<svg width="28" height="27" viewBox="0 0 28 27" fill="none" xmlns="http://www.w3.org/2000/svg">
<path d="M25.3273 9.3178C22.7946 9.3178 21.7591 7.5267 23.0185 5.3298C23.7461 4.05643 23.3123 2.43324 22.039 1.70561L19.6182 0.320302C18.5127 -0.337369 17.0855 0.0544347 16.4278 1.15988L16.2739 1.42575C15.0145 3.62265 12.9435 3.62265 11.6702 1.42575L11.5162 1.15988C10.8866 0.0544347 9.45927 -0.337369 8.35382 0.320302L5.93303 1.70561C4.65967 2.43324 4.22589 4.07043 4.95352 5.34379C6.22689 7.5267 5.1914 9.3178 2.65867 9.3178C1.2034 9.3178 0 10.5072 0 11.9765V14.4392C0 15.8945 1.18941 17.0979 2.65867 17.0979C5.1914 17.0979 6.22689 18.889 4.95352 21.0859C4.22589 22.3593 4.65967 23.9825 5.93303 24.7101L8.35382 26.0954C9.45927 26.7531 10.8866 26.3613 11.5442 25.2558L11.6982 24.99C12.9575 22.7931 15.0285 22.7931 16.3018 24.99L16.4558 25.2558C17.1134 26.3613 18.5407 26.7531 19.6462 26.0954L22.067 24.7101C23.3403 23.9825 23.7741 22.3453 23.0465 21.0859C21.7731 18.889 22.8086 17.0979 25.3413 17.0979C26.7966 17.0979 28 15.9085 28 14.4392V11.9765C27.986 10.5212 26.7966 9.3178 25.3273 9.3178ZM13.993 17.7556C11.4883 17.7556 9.44528 15.7126 9.44528 13.2079C9.44528 10.7031 11.4883 8.66013 13.993 8.66013C16.4978 8.66013 18.5407 10.7031 18.5407 13.2079C18.5407 15.7126 16.4978 17.7556 13.993 17.7556Z" fill="#C4C4C4"/>
</svg>
