<svg width="265" height="237" viewBox="0 0 265 237" fill="none" xmlns="http://www.w3.org/2000/svg">
<rect x="44" y="1" width="220" height="204" rx="5" fill="#767676"/>
<mask id="path-2-inside-1_2090_2626" fill="white">
<rect x="124" y="73" width="60" height="60" rx="2"/>
</mask>
<rect x="124" y="73" width="60" height="60" rx="2" stroke="#00FF2F" stroke-width="6" mask="url(#path-2-inside-1_2090_2626)"/>
<path d="M182 225L264 225" stroke="black" stroke-width="2" stroke-linecap="round"/>
<path d="M44 225L124 225" stroke="black" stroke-width="2" stroke-linecap="round"/>
<path d="M16 91L16 1" stroke="black" stroke-width="2" stroke-linecap="round"/>
<path d="M16 205L16 115" stroke="black" stroke-width="2" stroke-linecap="round"/>
<path d="M137.77 229V228.125L140.477 225.32C140.766 225.016 141.004 224.749 141.191 224.52C141.382 224.288 141.523 224.068 141.617 223.859C141.711 223.651 141.758 223.43 141.758 223.195C141.758 222.93 141.695 222.701 141.57 222.508C141.445 222.313 141.275 222.163 141.059 222.059C140.842 221.952 140.599 221.898 140.328 221.898C140.042 221.898 139.792 221.957 139.578 222.074C139.365 222.191 139.201 222.357 139.086 222.57C138.971 222.784 138.914 223.034 138.914 223.32H137.762C137.762 222.833 137.874 222.408 138.098 222.043C138.322 221.678 138.629 221.396 139.02 221.195C139.41 220.992 139.854 220.891 140.352 220.891C140.854 220.891 141.297 220.991 141.68 221.191C142.065 221.389 142.366 221.66 142.582 222.004C142.798 222.345 142.906 222.73 142.906 223.16C142.906 223.457 142.85 223.747 142.738 224.031C142.629 224.315 142.438 224.632 142.164 224.98C141.891 225.327 141.51 225.747 141.023 226.242L139.434 227.906V227.965H143.035V229H137.77ZM144.516 229V228.125L147.223 225.32C147.512 225.016 147.75 224.749 147.938 224.52C148.128 224.288 148.27 224.068 148.363 223.859C148.457 223.651 148.504 223.43 148.504 223.195C148.504 222.93 148.441 222.701 148.316 222.508C148.191 222.313 148.021 222.163 147.805 222.059C147.589 221.952 147.345 221.898 147.074 221.898C146.788 221.898 146.538 221.957 146.324 222.074C146.111 222.191 145.947 222.357 145.832 222.57C145.717 222.784 145.66 223.034 145.66 223.32H144.508C144.508 222.833 144.62 222.408 144.844 222.043C145.068 221.678 145.375 221.396 145.766 221.195C146.156 220.992 146.6 220.891 147.098 220.891C147.6 220.891 148.043 220.991 148.426 221.191C148.811 221.389 149.112 221.66 149.328 222.004C149.544 222.345 149.652 222.73 149.652 223.16C149.652 223.457 149.596 223.747 149.484 224.031C149.375 224.315 149.184 224.632 148.91 224.98C148.637 225.327 148.257 225.747 147.77 226.242L146.18 227.906V227.965H149.781V229H144.516ZM154.047 229.133C153.43 229.13 152.902 228.967 152.465 228.645C152.027 228.322 151.693 227.852 151.461 227.234C151.229 226.617 151.113 225.874 151.113 225.004C151.113 224.137 151.229 223.396 151.461 222.781C151.695 222.167 152.031 221.698 152.469 221.375C152.909 221.052 153.435 220.891 154.047 220.891C154.659 220.891 155.184 221.053 155.621 221.379C156.059 221.702 156.393 222.171 156.625 222.785C156.859 223.397 156.977 224.137 156.977 225.004C156.977 225.876 156.861 226.621 156.629 227.238C156.397 227.853 156.063 228.323 155.625 228.648C155.188 228.971 154.661 229.133 154.047 229.133ZM154.047 228.09C154.589 228.09 155.012 227.826 155.316 227.297C155.624 226.768 155.777 226.004 155.777 225.004C155.777 224.34 155.707 223.779 155.566 223.32C155.428 222.859 155.229 222.51 154.969 222.273C154.711 222.034 154.404 221.914 154.047 221.914C153.508 221.914 153.085 222.18 152.777 222.711C152.47 223.242 152.315 224.007 152.312 225.004C152.312 225.671 152.382 226.234 152.52 226.695C152.66 227.154 152.859 227.501 153.117 227.738C153.375 227.973 153.685 228.09 154.047 228.09ZM158.378 231.25V223H159.519V223.973H159.616C159.684 223.848 159.782 223.703 159.909 223.539C160.037 223.375 160.214 223.232 160.44 223.109C160.667 222.984 160.966 222.922 161.339 222.922C161.823 222.922 162.256 223.044 162.636 223.289C163.016 223.534 163.314 223.887 163.53 224.348C163.749 224.809 163.858 225.363 163.858 226.012C163.858 226.66 163.75 227.216 163.534 227.68C163.318 228.141 163.021 228.496 162.644 228.746C162.266 228.993 161.835 229.117 161.351 229.117C160.986 229.117 160.688 229.056 160.456 228.934C160.227 228.811 160.047 228.668 159.917 228.504C159.787 228.34 159.687 228.194 159.616 228.066H159.546V231.25H158.378ZM159.522 226C159.522 226.422 159.584 226.792 159.706 227.109C159.828 227.427 160.006 227.676 160.237 227.855C160.469 228.033 160.753 228.121 161.089 228.121C161.438 228.121 161.729 228.029 161.964 227.844C162.198 227.656 162.375 227.402 162.495 227.082C162.618 226.762 162.679 226.401 162.679 226C162.679 225.604 162.619 225.249 162.499 224.934C162.382 224.618 162.205 224.37 161.968 224.188C161.733 224.005 161.44 223.914 161.089 223.914C160.75 223.914 160.464 224.001 160.229 224.176C159.998 224.35 159.822 224.594 159.702 224.906C159.582 225.219 159.522 225.583 159.522 226ZM165.853 223L167.177 225.336L168.513 223H169.79L167.919 226L169.806 229H168.528L167.177 226.758L165.829 229H164.548L166.415 226L164.571 223H165.853Z" fill="black"/>
<path d="M145.563 149.109C145.206 149.104 144.854 149.039 144.508 148.914C144.164 148.789 143.852 148.581 143.57 148.289C143.289 147.997 143.064 147.605 142.895 147.113C142.728 146.621 142.645 146.007 142.645 145.27C142.645 144.572 142.714 143.952 142.852 143.41C142.992 142.868 143.194 142.411 143.457 142.039C143.72 141.664 144.038 141.379 144.41 141.184C144.783 140.988 145.201 140.891 145.664 140.891C146.141 140.891 146.564 140.984 146.934 141.172C147.303 141.359 147.603 141.618 147.832 141.949C148.064 142.28 148.211 142.656 148.273 143.078H147.082C147.001 142.745 146.841 142.473 146.602 142.262C146.362 142.051 146.049 141.945 145.664 141.945C145.078 141.945 144.621 142.201 144.293 142.711C143.967 143.221 143.803 143.931 143.801 144.84H143.859C143.997 144.613 144.167 144.421 144.367 144.262C144.57 144.1 144.797 143.977 145.047 143.891C145.299 143.802 145.565 143.758 145.844 143.758C146.307 143.758 146.727 143.871 147.102 144.098C147.479 144.322 147.78 144.632 148.004 145.027C148.228 145.423 148.34 145.876 148.34 146.387C148.34 146.897 148.224 147.359 147.992 147.773C147.763 148.187 147.44 148.516 147.023 148.758C146.607 148.997 146.12 149.115 145.563 149.109ZM145.559 148.094C145.866 148.094 146.141 148.018 146.383 147.867C146.625 147.716 146.816 147.513 146.957 147.258C147.098 147.003 147.168 146.717 147.168 146.402C147.168 146.095 147.099 145.815 146.961 145.562C146.826 145.31 146.638 145.109 146.398 144.961C146.161 144.812 145.891 144.738 145.586 144.738C145.354 144.738 145.139 144.783 144.941 144.871C144.746 144.96 144.574 145.082 144.426 145.238C144.277 145.395 144.16 145.574 144.074 145.777C143.991 145.978 143.949 146.19 143.949 146.414C143.949 146.714 144.018 146.991 144.156 147.246C144.297 147.501 144.488 147.707 144.73 147.863C144.975 148.017 145.251 148.094 145.559 148.094ZM152.548 149.133C151.931 149.13 151.403 148.967 150.966 148.645C150.528 148.322 150.194 147.852 149.962 147.234C149.73 146.617 149.614 145.874 149.614 145.004C149.614 144.137 149.73 143.396 149.962 142.781C150.196 142.167 150.532 141.698 150.97 141.375C151.41 141.052 151.936 140.891 152.548 140.891C153.16 140.891 153.685 141.053 154.122 141.379C154.56 141.702 154.894 142.171 155.126 142.785C155.36 143.397 155.478 144.137 155.478 145.004C155.478 145.876 155.362 146.621 155.13 147.238C154.898 147.853 154.563 148.323 154.126 148.648C153.688 148.971 153.162 149.133 152.548 149.133ZM152.548 148.09C153.09 148.09 153.513 147.826 153.817 147.297C154.125 146.768 154.278 146.004 154.278 145.004C154.278 144.34 154.208 143.779 154.067 143.32C153.929 142.859 153.73 142.51 153.47 142.273C153.212 142.034 152.905 141.914 152.548 141.914C152.009 141.914 151.586 142.18 151.278 142.711C150.971 143.242 150.816 144.007 150.813 145.004C150.813 145.671 150.882 146.234 151.021 146.695C151.161 147.154 151.36 147.501 151.618 147.738C151.876 147.973 152.186 148.09 152.548 148.09ZM156.879 151.25V143H158.02V143.973H158.117C158.185 143.848 158.283 143.703 158.41 143.539C158.538 143.375 158.715 143.232 158.941 143.109C159.168 142.984 159.467 142.922 159.84 142.922C160.324 142.922 160.757 143.044 161.137 143.289C161.517 143.534 161.815 143.887 162.031 144.348C162.25 144.809 162.359 145.363 162.359 146.012C162.359 146.66 162.251 147.216 162.035 147.68C161.819 148.141 161.522 148.496 161.145 148.746C160.767 148.993 160.336 149.117 159.852 149.117C159.487 149.117 159.189 149.056 158.957 148.934C158.728 148.811 158.548 148.668 158.418 148.504C158.288 148.34 158.188 148.194 158.117 148.066H158.047V151.25H156.879ZM158.023 146C158.023 146.422 158.085 146.792 158.207 147.109C158.329 147.427 158.507 147.676 158.738 147.855C158.97 148.033 159.254 148.121 159.59 148.121C159.939 148.121 160.23 148.029 160.465 147.844C160.699 147.656 160.876 147.402 160.996 147.082C161.118 146.762 161.18 146.401 161.18 146C161.18 145.604 161.12 145.249 161 144.934C160.883 144.618 160.706 144.37 160.469 144.188C160.234 144.005 159.941 143.914 159.59 143.914C159.251 143.914 158.965 144.001 158.73 144.176C158.499 144.35 158.323 144.594 158.203 144.906C158.083 145.219 158.023 145.583 158.023 146ZM164.354 143L165.678 145.336L167.014 143H168.291L166.42 146L168.307 149H167.029L165.678 146.758L164.33 149H163.049L164.916 146L163.072 143H164.354Z" fill="#00FF2F"/>
<path d="M194.563 107.109C194.206 107.104 193.854 107.039 193.508 106.914C193.164 106.789 192.852 106.581 192.57 106.289C192.289 105.997 192.064 105.605 191.895 105.113C191.728 104.621 191.645 104.007 191.645 103.27C191.645 102.572 191.714 101.952 191.852 101.41C191.992 100.868 192.194 100.411 192.457 100.039C192.72 99.6641 193.038 99.3789 193.41 99.1836C193.783 98.9883 194.201 98.8906 194.664 98.8906C195.141 98.8906 195.564 98.9844 195.934 99.1719C196.303 99.3594 196.603 99.6185 196.832 99.9492C197.064 100.28 197.211 100.656 197.273 101.078H196.082C196.001 100.745 195.841 100.473 195.602 100.262C195.362 100.051 195.049 99.9453 194.664 99.9453C194.078 99.9453 193.621 100.201 193.293 100.711C192.967 101.221 192.803 101.931 192.801 102.84H192.859C192.997 102.613 193.167 102.421 193.367 102.262C193.57 102.1 193.797 101.977 194.047 101.891C194.299 101.802 194.565 101.758 194.844 101.758C195.307 101.758 195.727 101.871 196.102 102.098C196.479 102.322 196.78 102.632 197.004 103.027C197.228 103.423 197.34 103.876 197.34 104.387C197.34 104.897 197.224 105.359 196.992 105.773C196.763 106.187 196.44 106.516 196.023 106.758C195.607 106.997 195.12 107.115 194.563 107.109ZM194.559 106.094C194.866 106.094 195.141 106.018 195.383 105.867C195.625 105.716 195.816 105.513 195.957 105.258C196.098 105.003 196.168 104.717 196.168 104.402C196.168 104.095 196.099 103.815 195.961 103.562C195.826 103.31 195.638 103.109 195.398 102.961C195.161 102.812 194.891 102.738 194.586 102.738C194.354 102.738 194.139 102.783 193.941 102.871C193.746 102.96 193.574 103.082 193.426 103.238C193.277 103.395 193.16 103.574 193.074 103.777C192.991 103.978 192.949 104.19 192.949 104.414C192.949 104.714 193.018 104.991 193.156 105.246C193.297 105.501 193.488 105.707 193.73 105.863C193.975 106.017 194.251 106.094 194.559 106.094ZM201.548 107.133C200.931 107.13 200.403 106.967 199.966 106.645C199.528 106.322 199.194 105.852 198.962 105.234C198.73 104.617 198.614 103.874 198.614 103.004C198.614 102.137 198.73 101.396 198.962 100.781C199.196 100.167 199.532 99.6979 199.97 99.375C200.41 99.0521 200.936 98.8906 201.548 98.8906C202.16 98.8906 202.685 99.0534 203.122 99.3789C203.56 99.7018 203.894 100.171 204.126 100.785C204.36 101.397 204.478 102.137 204.478 103.004C204.478 103.876 204.362 104.621 204.13 105.238C203.898 105.853 203.563 106.323 203.126 106.648C202.688 106.971 202.162 107.133 201.548 107.133ZM201.548 106.09C202.09 106.09 202.513 105.826 202.817 105.297C203.125 104.768 203.278 104.004 203.278 103.004C203.278 102.34 203.208 101.779 203.067 101.32C202.929 100.859 202.73 100.51 202.47 100.273C202.212 100.034 201.905 99.9141 201.548 99.9141C201.009 99.9141 200.586 100.18 200.278 100.711C199.971 101.242 199.816 102.007 199.813 103.004C199.813 103.671 199.882 104.234 200.021 104.695C200.161 105.154 200.36 105.501 200.618 105.738C200.876 105.973 201.186 106.09 201.548 106.09ZM205.879 109.25V101H207.02V101.973H207.117C207.185 101.848 207.283 101.703 207.41 101.539C207.538 101.375 207.715 101.232 207.941 101.109C208.168 100.984 208.467 100.922 208.84 100.922C209.324 100.922 209.757 101.044 210.137 101.289C210.517 101.534 210.815 101.887 211.031 102.348C211.25 102.809 211.359 103.363 211.359 104.012C211.359 104.66 211.251 105.216 211.035 105.68C210.819 106.141 210.522 106.496 210.145 106.746C209.767 106.993 209.336 107.117 208.852 107.117C208.487 107.117 208.189 107.056 207.957 106.934C207.728 106.811 207.548 106.668 207.418 106.504C207.288 106.34 207.188 106.194 207.117 106.066H207.047V109.25H205.879ZM207.023 104C207.023 104.422 207.085 104.792 207.207 105.109C207.329 105.427 207.507 105.676 207.738 105.855C207.97 106.033 208.254 106.121 208.59 106.121C208.939 106.121 209.23 106.029 209.465 105.844C209.699 105.656 209.876 105.402 209.996 105.082C210.118 104.762 210.18 104.401 210.18 104C210.18 103.604 210.12 103.249 210 102.934C209.883 102.618 209.706 102.37 209.469 102.188C209.234 102.005 208.941 101.914 208.59 101.914C208.251 101.914 207.965 102.001 207.73 102.176C207.499 102.35 207.323 102.594 207.203 102.906C207.083 103.219 207.023 103.583 207.023 104ZM213.354 101L214.678 103.336L216.014 101H217.291L215.42 104L217.307 107H216.029L214.678 104.758L213.33 107H212.049L213.916 104L212.072 101H213.354Z" fill="#00FF2F"/>
<path d="M0.769531 107V106.125L3.47656 103.32C3.76563 103.016 4.00391 102.749 4.19141 102.52C4.38151 102.288 4.52344 102.068 4.61719 101.859C4.71094 101.651 4.75781 101.43 4.75781 101.195C4.75781 100.93 4.69531 100.701 4.57031 100.508C4.44531 100.313 4.27474 100.163 4.05859 100.059C3.84245 99.9518 3.59896 99.8984 3.32812 99.8984C3.04167 99.8984 2.79167 99.957 2.57812 100.074C2.36458 100.191 2.20052 100.357 2.08594 100.57C1.97135 100.784 1.91406 101.034 1.91406 101.32H0.761719C0.761719 100.833 0.873698 100.408 1.09766 100.043C1.32161 99.6784 1.62891 99.3958 2.01953 99.1953C2.41016 98.9922 2.85417 98.8906 3.35156 98.8906C3.85417 98.8906 4.29688 98.9909 4.67969 99.1914C5.0651 99.3893 5.36589 99.6602 5.58203 100.004C5.79818 100.345 5.90625 100.73 5.90625 101.16C5.90625 101.457 5.85026 101.747 5.73828 102.031C5.62891 102.315 5.4375 102.632 5.16406 102.98C4.89063 103.327 4.51042 103.747 4.02344 104.242L2.43359 105.906V105.965H6.03516V107H0.769531ZM10.3008 107.133C9.68359 107.13 9.15625 106.967 8.71875 106.645C8.28125 106.322 7.94661 105.852 7.71484 105.234C7.48307 104.617 7.36719 103.874 7.36719 103.004C7.36719 102.137 7.48307 101.396 7.71484 100.781C7.94922 100.167 8.28516 99.6979 8.72266 99.375C9.16276 99.0521 9.6888 98.8906 10.3008 98.8906C10.9128 98.8906 11.4375 99.0534 11.875 99.3789C12.3125 99.7018 12.6471 100.171 12.8789 100.785C13.1133 101.397 13.2305 102.137 13.2305 103.004C13.2305 103.876 13.1146 104.621 12.8828 105.238C12.651 105.853 12.3164 106.323 11.8789 106.648C11.4414 106.971 10.9154 107.133 10.3008 107.133ZM10.3008 106.09C10.8424 106.09 11.2656 105.826 11.5703 105.297C11.8776 104.768 12.0312 104.004 12.0312 103.004C12.0312 102.34 11.9609 101.779 11.8203 101.32C11.6823 100.859 11.4831 100.51 11.2227 100.273C10.9648 100.034 10.6576 99.9141 10.3008 99.9141C9.76172 99.9141 9.33854 100.18 9.03125 100.711C8.72396 101.242 8.56901 102.007 8.56641 103.004C8.56641 103.671 8.63542 104.234 8.77344 104.695C8.91406 105.154 9.11328 105.501 9.37109 105.738C9.62891 105.973 9.9388 106.09 10.3008 106.09ZM14.4482 105.438V104.461L17.9053 99H18.6748V100.437H18.1865L15.7139 104.352V104.414H20.4521V105.438H14.4482ZM18.2412 107V105.141L18.249 104.695V99H19.3936V107H18.2412ZM21.8291 109.25V101H22.9697V101.973H23.0674C23.1351 101.848 23.2327 101.703 23.3604 101.539C23.488 101.375 23.665 101.232 23.8916 101.109C24.1182 100.984 24.4176 100.922 24.79 100.922C25.2744 100.922 25.7067 101.044 26.0869 101.289C26.4671 101.534 26.7653 101.887 26.9814 102.348C27.2002 102.809 27.3096 103.363 27.3096 104.012C27.3096 104.66 27.2015 105.216 26.9854 105.68C26.7692 106.141 26.4723 106.496 26.0947 106.746C25.7171 106.993 25.2861 107.117 24.8018 107.117C24.4372 107.117 24.139 107.056 23.9072 106.934C23.6781 106.811 23.4984 106.668 23.3682 106.504C23.238 106.34 23.1377 106.194 23.0674 106.066H22.9971V109.25H21.8291ZM22.9736 104C22.9736 104.422 23.0348 104.792 23.1572 105.109C23.2796 105.427 23.4567 105.676 23.6885 105.855C23.9202 106.033 24.2041 106.121 24.54 106.121C24.889 106.121 25.1807 106.029 25.415 105.844C25.6494 105.656 25.8265 105.402 25.9463 105.082C26.0687 104.762 26.1299 104.401 26.1299 104C26.1299 103.604 26.07 103.249 25.9502 102.934C25.833 102.618 25.6559 102.37 25.4189 102.188C25.1846 102.005 24.8916 101.914 24.54 101.914C24.2015 101.914 23.915 102.001 23.6807 102.176C23.4489 102.35 23.2731 102.594 23.1533 102.906C23.0335 103.219 22.9736 103.583 22.9736 104ZM29.3037 101L30.6279 103.336L31.9639 101H33.2412L31.3701 104L33.2568 107H31.9795L30.6279 104.758L29.2803 107H27.999L29.8662 104L28.0225 101H29.3037Z" fill="black"/>
</svg>
