<svg width="300" height="112" viewBox="0 0 300 112" fill="none" xmlns="http://www.w3.org/2000/svg">
<g clip-path="url(#clip0_2089_2172)" filter="url(#filter0_d_2089_2172)">
<path d="M281 0H19C10.7157 0 4 6.71573 4 15V89C4 97.2843 10.7157 104 19 104H281C289.284 104 296 97.2843 296 89V15C296 6.71573 289.284 0 281 0Z" fill="black"/>
<path d="M257 52C268.046 52 277 43.0457 277 32C277 20.9543 268.046 12 257 12C245.954 12 237 20.9543 237 32C237 43.0457 245.954 52 257 52Z" fill="white"/>
<path d="M43 52C54.0457 52 63 43.0457 63 32C63 20.9543 54.0457 12 43 12C31.9543 12 23 20.9543 23 32C23 43.0457 31.9543 52 43 52Z" fill="white"/>
</g>
<defs>
<filter id="filter0_d_2089_2172" x="0" y="0" width="300" height="112" filterUnits="userSpaceOnUse" color-interpolation-filters="sRGB">
<feFlood flood-opacity="0" result="BackgroundImageFix"/>
<feColorMatrix in="SourceAlpha" type="matrix" values="0 0 0 0 0 0 0 0 0 0 0 0 0 0 0 0 0 0 127 0" result="hardAlpha"/>
<feOffset dy="4"/>
<feGaussianBlur stdDeviation="2"/>
<feComposite in2="hardAlpha" operator="out"/>
<feColorMatrix type="matrix" values="0 0 0 0 0 0 0 0 0 0 0 0 0 0 0 0 0 0 0.25 0"/>
<feBlend mode="normal" in2="BackgroundImageFix" result="effect1_dropShadow_2089_2172"/>
<feBlend mode="normal" in="SourceGraphic" in2="effect1_dropShadow_2089_2172" result="shape"/>
</filter>
<clipPath id="clip0_2089_2172">
<rect width="292" height="104" fill="white" transform="translate(4)"/>
</clipPath>
</defs>
</svg>
