<svg width="159" height="356" viewBox="0 0 159 356" fill="none" xmlns="http://www.w3.org/2000/svg">
<g filter="url(#filter0_d_933_567)">
<rect x="4" width="150.185" height="347.662" rx="12.8769" fill="#F9F9F9"/>
<path d="M126.502 141.754C126.854 141.802 127.178 141.555 127.226 141.202L127.999 135.459C128.046 135.107 127.799 134.783 127.446 134.735C127.094 134.688 126.77 134.935 126.722 135.288L126.036 140.392L120.931 139.706C120.578 139.658 120.254 139.905 120.207 140.258C120.159 140.61 120.407 140.934 120.759 140.982L126.502 141.754ZM41.6033 30.7655L126.076 141.507L127.1 140.726L42.6272 29.9845L41.6033 30.7655Z" fill="#BBBBBB"/>
<path d="M126.364 214.861C126.698 214.984 127.068 214.814 127.191 214.481L129.204 209.047C129.328 208.714 129.158 208.343 128.824 208.22C128.491 208.096 128.12 208.266 127.997 208.6L126.208 213.43L121.378 211.641C121.044 211.517 120.674 211.687 120.55 212.021C120.427 212.354 120.597 212.725 120.93 212.848L126.364 214.861ZM41.5302 30.6438L126.003 214.526L127.173 213.988L42.7003 30.1062L41.5302 30.6438Z" fill="#BBBBBB"/>
<path d="M126.419 214.879C126.762 214.972 127.116 214.769 127.209 214.426L128.725 208.833C128.818 208.49 128.616 208.136 128.272 208.043C127.929 207.95 127.576 208.153 127.483 208.496L126.135 213.467L121.163 212.119C120.82 212.026 120.467 212.229 120.374 212.572C120.281 212.916 120.483 213.269 120.827 213.362L126.419 214.879ZM41.5567 67.2656L126.029 214.577L127.146 213.937L42.6738 66.625L41.5567 67.2656Z" fill="#BBBBBB"/>
<path d="M126.502 214.895C126.854 214.943 127.178 214.695 127.226 214.343L127.999 208.6C128.046 208.248 127.799 207.923 127.446 207.876C127.094 207.829 126.77 208.076 126.722 208.428L126.036 213.533L120.931 212.846C120.578 212.799 120.254 213.046 120.207 213.398C120.159 213.751 120.407 214.075 120.759 214.122L126.502 214.895ZM41.6033 103.906L126.076 214.648L127.1 213.867L42.6272 103.125L41.6033 103.906Z" fill="#BBBBBB"/>
<path d="M126.634 214.9C126.989 214.875 127.255 214.567 127.23 214.212L126.814 208.432C126.789 208.077 126.481 207.811 126.126 207.836C125.771 207.862 125.505 208.17 125.53 208.524L125.899 213.662L120.762 214.031C120.407 214.057 120.14 214.365 120.166 214.72C120.191 215.074 120.5 215.341 120.854 215.316L126.634 214.9ZM41.6938 141.604L126.166 214.745L127.009 213.771L42.5367 140.63L41.6938 141.604Z" fill="#BBBBBB"/>
<path d="M126.819 214.858C127.15 214.73 127.316 214.358 127.189 214.026L125.112 208.616C124.984 208.285 124.612 208.119 124.28 208.246C123.948 208.374 123.782 208.746 123.91 209.078L125.756 213.887L120.947 215.733C120.615 215.86 120.45 216.233 120.577 216.565C120.705 216.897 121.077 217.062 121.409 216.935L126.819 214.858ZM41.8534 177.244L126.326 214.845L126.85 213.669L42.3771 176.068L41.8534 177.244Z" fill="#BBBBBB"/>
<path d="M127.037 214.718C127.292 214.469 127.297 214.062 127.049 213.807L123.001 209.66C122.753 209.405 122.345 209.401 122.091 209.649C121.836 209.897 121.831 210.305 122.08 210.559L125.677 214.246L121.991 217.843C121.737 218.091 121.732 218.499 121.98 218.754C122.228 219.008 122.636 219.013 122.89 218.765L127.037 214.718ZM42.1074 213.87L126.58 214.901L126.596 213.613L42.1231 212.583L42.1074 213.87Z" fill="#BBBBBB"/>
<path d="M127.184 214.5C127.318 214.17 127.16 213.795 126.831 213.66L121.465 211.473C121.136 211.338 120.76 211.497 120.626 211.826C120.492 212.155 120.65 212.531 120.979 212.665L125.748 214.61L123.804 219.379C123.67 219.709 123.828 220.084 124.157 220.219C124.486 220.353 124.862 220.195 124.996 219.865L127.184 214.5ZM42.3649 250.39L126.837 214.85L126.338 213.663L41.8655 249.203L42.3649 250.39Z" fill="#BBBBBB"/>
<path d="M127.23 214.307C127.258 213.953 126.993 213.643 126.638 213.615L120.862 213.159C120.507 213.131 120.197 213.395 120.169 213.75C120.141 214.104 120.406 214.414 120.76 214.442L125.895 214.848L125.49 219.982C125.462 220.337 125.727 220.647 126.081 220.675C126.436 220.703 126.746 220.438 126.774 220.084L127.23 214.307ZM42.5333 286.857L127.006 214.746L126.17 213.767L41.6972 285.878L42.5333 286.857Z" fill="#BBBBBB"/>
<path d="M127.227 214.176C127.182 213.824 126.861 213.573 126.508 213.618L120.758 214.338C120.405 214.382 120.155 214.704 120.199 215.057C120.243 215.41 120.565 215.66 120.918 215.616L126.029 214.975L126.67 220.086C126.714 220.439 127.036 220.689 127.388 220.645C127.741 220.601 127.991 220.279 127.947 219.926L127.227 214.176ZM42.6236 323.333L127.096 214.652L126.079 213.861L41.6069 322.542L42.6236 323.333Z" fill="#BBBBBB"/>
<path d="M126.421 177.279C126.765 177.371 127.118 177.167 127.21 176.823L128.709 171.226C128.801 170.882 128.597 170.529 128.254 170.437C127.91 170.345 127.557 170.549 127.465 170.893L126.132 175.868L121.157 174.535C120.814 174.443 120.461 174.647 120.369 174.991C120.277 175.334 120.48 175.687 120.824 175.779L126.421 177.279ZM41.5577 30.697L126.03 176.979L127.145 176.335L42.6728 30.053L41.5577 30.697Z" fill="#BBBBBB"/>
<path d="M126.505 177.295C126.857 177.341 127.18 177.092 127.226 176.74L127.973 170.993C128.019 170.641 127.77 170.318 127.418 170.272C127.065 170.226 126.742 170.475 126.696 170.827L126.032 175.935L120.924 175.271C120.572 175.225 120.249 175.474 120.203 175.827C120.157 176.179 120.406 176.502 120.758 176.548L126.505 177.295ZM41.6051 67.3381L126.078 177.049L127.098 176.264L42.6254 66.5525L41.6051 67.3381Z" fill="#BBBBBB"/>
<path d="M126.636 177.299C126.991 177.272 127.256 176.963 127.23 176.609L126.794 170.83C126.767 170.476 126.458 170.21 126.104 170.237C125.749 170.264 125.483 170.573 125.51 170.927L125.897 176.063L120.761 176.451C120.407 176.477 120.141 176.787 120.168 177.141C120.194 177.496 120.503 177.761 120.858 177.735L126.636 177.299ZM41.6955 104.519L126.168 177.145L127.007 176.169L42.535 103.543L41.6955 104.519Z" fill="#BBBBBB"/>
<path d="M126.831 177.254C127.16 177.119 127.318 176.744 127.184 176.414L124.996 171.049C124.862 170.719 124.486 170.561 124.157 170.696C123.828 170.83 123.67 171.206 123.804 171.535L125.748 176.304L120.979 178.249C120.65 178.383 120.492 178.759 120.626 179.088C120.76 179.418 121.136 179.576 121.465 179.441L126.831 177.254ZM41.8655 141.711L126.338 177.251L126.837 176.064L42.3649 140.524L41.8655 141.711Z" fill="#BBBBBB"/>
<path d="M127.049 177.107C127.297 176.853 127.292 176.445 127.037 176.197L122.89 172.149C122.636 171.901 122.228 171.906 121.98 172.161C121.732 172.415 121.737 172.823 121.991 173.071L125.677 176.668L122.08 180.355C121.831 180.609 121.836 181.017 122.091 181.265C122.345 181.514 122.753 181.509 123.001 181.254L127.049 177.107ZM42.1231 178.331L126.596 177.301L126.58 176.014L42.1074 177.044L42.1231 178.331Z" fill="#BBBBBB"/>
<path d="M127.186 176.893C127.317 176.562 127.155 176.188 126.825 176.057L121.437 173.925C121.106 173.794 120.732 173.956 120.601 174.287C120.47 174.618 120.632 174.992 120.963 175.123L125.752 177.018L123.857 181.807C123.726 182.138 123.888 182.512 124.219 182.643C124.549 182.774 124.923 182.612 125.054 182.281L127.186 176.893ZM42.371 213.817L126.844 177.247L126.332 176.065L41.8594 212.636L42.371 213.817Z" fill="#BBBBBB"/>
<path d="M127.23 176.702C127.255 176.348 126.989 176.039 126.634 176.014L120.854 175.598C120.5 175.573 120.191 175.84 120.166 176.194C120.14 176.549 120.407 176.857 120.762 176.883L125.899 177.252L125.53 182.39C125.505 182.744 125.771 183.052 126.126 183.078C126.481 183.103 126.789 182.837 126.814 182.482L127.23 176.702ZM42.5367 250.284L127.009 177.143L126.166 176.169L41.6938 249.31L42.5367 250.284Z" fill="#BBBBBB"/>
<path d="M127.226 176.573C127.18 176.22 126.857 175.972 126.505 176.017L120.758 176.764C120.406 176.81 120.157 177.133 120.203 177.486C120.249 177.838 120.572 178.087 120.924 178.041L126.032 177.377L126.696 182.485C126.742 182.838 127.065 183.087 127.418 183.041C127.77 182.995 128.019 182.672 127.973 182.319L127.226 176.573ZM42.6254 286.76L127.098 177.049L126.078 176.263L41.6051 285.974L42.6254 286.76Z" fill="#BBBBBB"/>
<path d="M127.21 176.489C127.118 176.146 126.765 175.942 126.421 176.034L120.824 177.533C120.48 177.625 120.277 177.978 120.369 178.322C120.461 178.665 120.814 178.869 121.157 178.777L126.132 177.444L127.465 182.42C127.557 182.763 127.91 182.967 128.254 182.875C128.597 182.783 128.801 182.43 128.709 182.087L127.21 176.489ZM42.6728 323.259L127.145 176.978L126.03 176.334L41.5577 322.616L42.6728 323.259Z" fill="#BBBBBB"/>
<path d="M126.629 141.759C126.984 141.736 127.253 141.429 127.23 141.075L126.855 135.292C126.832 134.937 126.525 134.668 126.171 134.691C125.816 134.714 125.547 135.021 125.57 135.376L125.904 140.516L120.764 140.849C120.409 140.872 120.14 141.179 120.163 141.533C120.186 141.888 120.492 142.157 120.847 142.134L126.629 141.759ZM41.6904 67.4291L126.163 141.6L127.013 140.632L42.54 66.4615L41.6904 67.4291Z" fill="#BBBBBB"/>
<path d="M126.822 141.717C127.153 141.587 127.317 141.214 127.188 140.883L125.083 135.484C124.954 135.153 124.581 134.989 124.249 135.118C123.918 135.247 123.754 135.62 123.883 135.952L125.754 140.751L120.955 142.622C120.624 142.751 120.46 143.124 120.589 143.455C120.718 143.787 121.091 143.95 121.423 143.821L126.822 141.717ZM41.8564 104.621L126.329 141.706L126.847 140.527L42.3741 103.442L41.8564 104.621Z" fill="#BBBBBB"/>
<path d="M127.043 141.572C127.294 141.321 127.294 140.913 127.043 140.662L122.946 136.565C122.694 136.313 122.287 136.313 122.035 136.565C121.784 136.816 121.784 137.224 122.035 137.475L125.677 141.117L122.035 144.759C121.784 145.011 121.784 145.418 122.035 145.67C122.287 145.921 122.694 145.921 122.946 145.67L127.043 141.572ZM42.1152 141.761L126.588 141.761L126.588 140.473L42.1152 140.473L42.1152 141.761Z" fill="#BBBBBB"/>
<path d="M127.184 141.359C127.318 141.03 127.16 140.654 126.831 140.52L121.465 138.332C121.136 138.198 120.76 138.356 120.626 138.685C120.492 139.014 120.65 139.39 120.979 139.524L125.748 141.469L123.804 146.239C123.67 146.568 123.828 146.944 124.157 147.078C124.486 147.212 124.862 147.054 124.996 146.725L127.184 141.359ZM42.3649 177.25L126.837 141.709L126.338 140.523L41.8655 176.063L42.3649 177.25Z" fill="#BBBBBB"/>
<path d="M127.23 141.167C127.258 140.812 126.993 140.502 126.638 140.474L120.862 140.018C120.507 139.99 120.197 140.255 120.169 140.609C120.141 140.964 120.406 141.274 120.76 141.302L125.895 141.707L125.49 146.842C125.462 147.196 125.727 147.506 126.081 147.534C126.436 147.562 126.746 147.298 126.774 146.943L127.23 141.167ZM42.5333 213.716L127.006 141.606L126.17 140.626L41.6972 212.737L42.5333 213.716Z" fill="#BBBBBB"/>
<path d="M127.227 141.036C127.182 140.683 126.861 140.433 126.508 140.477L120.758 141.198C120.405 141.242 120.155 141.564 120.199 141.916C120.243 142.269 120.565 142.519 120.918 142.475L126.029 141.835L126.67 146.945C126.714 147.298 127.036 147.548 127.388 147.504C127.741 147.46 127.991 147.138 127.947 146.785L127.227 141.036ZM42.6236 250.192L127.096 141.511L126.079 140.721L41.6069 249.402L42.6236 250.192Z" fill="#BBBBBB"/>
<path d="M127.21 140.951C127.119 140.607 126.767 140.402 126.423 140.493L120.821 141.975C120.477 142.066 120.273 142.419 120.363 142.762C120.454 143.106 120.807 143.311 121.151 143.22L126.13 141.903L127.447 146.882C127.538 147.226 127.891 147.431 128.235 147.34C128.578 147.249 128.783 146.897 128.692 146.553L127.21 140.951ZM42.6718 286.691L127.144 141.439L126.031 140.792L41.5587 286.044L42.6718 286.691Z" fill="#BBBBBB"/>
<path d="M127.192 140.895C127.07 140.561 126.701 140.389 126.367 140.511L120.924 142.5C120.59 142.623 120.419 142.992 120.541 143.326C120.663 143.66 121.032 143.832 121.366 143.71L126.204 141.941L127.973 146.779C128.095 147.113 128.464 147.285 128.798 147.163C129.132 147.041 129.304 146.671 129.182 146.337L127.192 140.895ZM42.6991 323.209L127.172 141.387L126.004 140.844L41.5313 322.666L42.6991 323.209Z" fill="#BBBBBB"/>
<circle cx="42.052" cy="30.3099" r="11.6536" fill="#BDE3FF"/>
<circle cx="42.052" cy="66.8802" r="11.6536" fill="#BDE3FF"/>
<circle cx="42.052" cy="103.45" r="11.6536" fill="#BDE3FF"/>
<circle cx="42.052" cy="140.023" r="11.6536" fill="#BDE3FF"/>
<circle cx="42.052" cy="176.593" r="11.6536" fill="#BDE3FF"/>
<circle cx="42.052" cy="213.163" r="11.6536" fill="#BDE3FF"/>
<circle cx="126.525" cy="141.052" r="11.6536" fill="#BDE3FF"/>
<circle cx="126.525" cy="177.622" r="11.6536" fill="#BDE3FF"/>
<circle cx="126.525" cy="214.193" r="11.6536" fill="#BDE3FF"/>
<circle cx="42.052" cy="249.734" r="11.6536" fill="#BDE3FF"/>
<circle cx="42.052" cy="322.874" r="11.6536" fill="#BDE3FF"/>
<circle cx="42.052" cy="286.304" r="11.6536" fill="#BDE3FF"/>
<path d="M126.502 141.754C126.854 141.802 127.178 141.555 127.226 141.202L127.999 135.459C128.046 135.107 127.799 134.783 127.446 134.735C127.094 134.688 126.77 134.935 126.722 135.288L126.036 140.392L120.931 139.706C120.578 139.658 120.254 139.905 120.207 140.258C120.159 140.61 120.407 140.934 120.759 140.982L126.502 141.754ZM41.6033 30.7655L126.076 141.507L127.1 140.726L42.6272 29.9845L41.6033 30.7655Z" fill="#BBBBBB"/>
<path d="M126.364 214.861C126.698 214.984 127.068 214.814 127.191 214.481L129.204 209.047C129.328 208.714 129.158 208.343 128.824 208.22C128.491 208.096 128.12 208.266 127.997 208.6L126.208 213.43L121.378 211.641C121.044 211.517 120.674 211.687 120.55 212.021C120.427 212.354 120.597 212.725 120.93 212.848L126.364 214.861ZM41.5302 30.6438L126.003 214.526L127.173 213.988L42.7003 30.1062L41.5302 30.6438Z" fill="#BBBBBB"/>
<path d="M126.419 214.879C126.762 214.972 127.116 214.769 127.209 214.426L128.725 208.833C128.818 208.49 128.616 208.136 128.272 208.043C127.929 207.95 127.576 208.153 127.483 208.496L126.135 213.467L121.163 212.119C120.82 212.026 120.467 212.229 120.374 212.572C120.281 212.916 120.483 213.269 120.827 213.362L126.419 214.879ZM41.5567 67.2656L126.029 214.577L127.146 213.937L42.6738 66.625L41.5567 67.2656Z" fill="#BBBBBB"/>
<path d="M126.502 214.895C126.854 214.943 127.178 214.695 127.226 214.343L127.999 208.6C128.046 208.248 127.799 207.923 127.446 207.876C127.094 207.829 126.77 208.076 126.722 208.428L126.036 213.533L120.931 212.846C120.578 212.799 120.254 213.046 120.207 213.398C120.159 213.751 120.407 214.075 120.759 214.122L126.502 214.895ZM41.6033 103.906L126.076 214.648L127.1 213.867L42.6272 103.125L41.6033 103.906Z" fill="#BBBBBB"/>
<path d="M126.634 214.9C126.989 214.875 127.255 214.567 127.23 214.212L126.814 208.432C126.789 208.077 126.481 207.811 126.126 207.836C125.771 207.862 125.505 208.17 125.53 208.524L125.899 213.662L120.762 214.031C120.407 214.057 120.14 214.365 120.166 214.72C120.191 215.074 120.5 215.341 120.854 215.316L126.634 214.9ZM41.6938 141.604L126.166 214.745L127.009 213.771L42.5367 140.63L41.6938 141.604Z" fill="#BBBBBB"/>
<path d="M126.819 214.858C127.15 214.73 127.316 214.358 127.189 214.026L125.112 208.616C124.984 208.285 124.612 208.119 124.28 208.246C123.948 208.374 123.782 208.746 123.91 209.078L125.756 213.887L120.947 215.733C120.615 215.86 120.45 216.233 120.577 216.565C120.705 216.897 121.077 217.062 121.409 216.935L126.819 214.858ZM41.8534 177.244L126.326 214.845L126.85 213.669L42.3771 176.068L41.8534 177.244Z" fill="#BBBBBB"/>
<path d="M127.037 214.718C127.292 214.469 127.297 214.062 127.049 213.807L123.001 209.66C122.753 209.405 122.345 209.401 122.091 209.649C121.836 209.897 121.831 210.305 122.08 210.559L125.677 214.246L121.991 217.843C121.737 218.091 121.732 218.499 121.98 218.754C122.228 219.008 122.636 219.013 122.89 218.765L127.037 214.718ZM42.1074 213.87L126.58 214.901L126.596 213.613L42.1231 212.583L42.1074 213.87Z" fill="#BBBBBB"/>
<path d="M127.184 214.5C127.318 214.17 127.16 213.795 126.831 213.66L121.465 211.473C121.136 211.338 120.76 211.497 120.626 211.826C120.492 212.155 120.65 212.531 120.979 212.665L125.748 214.61L123.804 219.379C123.67 219.709 123.828 220.084 124.157 220.219C124.486 220.353 124.862 220.195 124.996 219.865L127.184 214.5ZM42.3649 250.39L126.837 214.85L126.338 213.663L41.8655 249.203L42.3649 250.39Z" fill="#BBBBBB"/>
<path d="M127.23 214.307C127.258 213.953 126.993 213.643 126.638 213.615L120.862 213.159C120.507 213.131 120.197 213.395 120.169 213.75C120.141 214.104 120.406 214.414 120.76 214.442L125.895 214.848L125.49 219.982C125.462 220.337 125.727 220.647 126.081 220.675C126.436 220.703 126.746 220.438 126.774 220.084L127.23 214.307ZM42.5333 286.857L127.006 214.746L126.17 213.767L41.6972 285.878L42.5333 286.857Z" fill="#BBBBBB"/>
<path d="M127.227 214.176C127.182 213.824 126.861 213.573 126.508 213.618L120.758 214.338C120.405 214.382 120.155 214.704 120.199 215.057C120.243 215.41 120.565 215.66 120.918 215.616L126.029 214.975L126.67 220.086C126.714 220.439 127.036 220.689 127.388 220.645C127.741 220.601 127.991 220.279 127.947 219.926L127.227 214.176ZM42.6236 323.333L127.096 214.652L126.079 213.861L41.6069 322.542L42.6236 323.333Z" fill="#BBBBBB"/>
<path d="M126.421 177.279C126.765 177.371 127.118 177.167 127.21 176.823L128.709 171.226C128.801 170.882 128.597 170.529 128.254 170.437C127.91 170.345 127.557 170.549 127.465 170.893L126.132 175.868L121.157 174.535C120.814 174.443 120.461 174.647 120.369 174.991C120.277 175.334 120.48 175.687 120.824 175.779L126.421 177.279ZM41.5577 30.697L126.03 176.979L127.145 176.335L42.6728 30.053L41.5577 30.697Z" fill="#BBBBBB"/>
<path d="M126.505 177.295C126.857 177.341 127.18 177.092 127.226 176.74L127.973 170.993C128.019 170.641 127.77 170.318 127.418 170.272C127.065 170.226 126.742 170.475 126.696 170.827L126.032 175.935L120.924 175.271C120.572 175.225 120.249 175.474 120.203 175.827C120.157 176.179 120.406 176.502 120.758 176.548L126.505 177.295ZM41.6051 67.3381L126.078 177.049L127.098 176.264L42.6254 66.5525L41.6051 67.3381Z" fill="#BBBBBB"/>
<path d="M126.636 177.299C126.991 177.272 127.256 176.963 127.23 176.609L126.794 170.83C126.767 170.476 126.458 170.21 126.104 170.237C125.749 170.264 125.483 170.573 125.51 170.927L125.897 176.063L120.761 176.451C120.407 176.477 120.141 176.787 120.168 177.141C120.194 177.496 120.503 177.761 120.858 177.735L126.636 177.299ZM41.6955 104.519L126.168 177.145L127.007 176.169L42.535 103.543L41.6955 104.519Z" fill="#BBBBBB"/>
<path d="M126.831 177.254C127.16 177.119 127.318 176.744 127.184 176.414L124.996 171.049C124.862 170.719 124.486 170.561 124.157 170.696C123.828 170.83 123.67 171.206 123.804 171.535L125.748 176.304L120.979 178.249C120.65 178.383 120.492 178.759 120.626 179.088C120.76 179.418 121.136 179.576 121.465 179.441L126.831 177.254ZM41.8655 141.711L126.338 177.251L126.837 176.064L42.3649 140.524L41.8655 141.711Z" fill="#BBBBBB"/>
<path d="M127.049 177.107C127.297 176.853 127.292 176.445 127.037 176.197L122.89 172.149C122.636 171.901 122.228 171.906 121.98 172.161C121.732 172.415 121.737 172.823 121.991 173.071L125.677 176.668L122.08 180.355C121.831 180.609 121.836 181.017 122.091 181.265C122.345 181.514 122.753 181.509 123.001 181.254L127.049 177.107ZM42.1231 178.331L126.596 177.301L126.58 176.014L42.1074 177.044L42.1231 178.331Z" fill="#BBBBBB"/>
<path d="M127.186 176.893C127.317 176.562 127.155 176.188 126.825 176.057L121.437 173.925C121.106 173.794 120.732 173.956 120.601 174.287C120.47 174.618 120.632 174.992 120.963 175.123L125.752 177.018L123.857 181.807C123.726 182.138 123.888 182.512 124.219 182.643C124.549 182.774 124.923 182.612 125.054 182.281L127.186 176.893ZM42.371 213.817L126.844 177.247L126.332 176.065L41.8594 212.636L42.371 213.817Z" fill="#BBBBBB"/>
<path d="M127.23 176.702C127.255 176.348 126.989 176.039 126.634 176.014L120.854 175.598C120.5 175.573 120.191 175.84 120.166 176.194C120.14 176.549 120.407 176.857 120.762 176.883L125.899 177.252L125.53 182.39C125.505 182.744 125.771 183.052 126.126 183.078C126.481 183.103 126.789 182.837 126.814 182.482L127.23 176.702ZM42.5367 250.284L127.009 177.143L126.166 176.169L41.6938 249.31L42.5367 250.284Z" fill="#BBBBBB"/>
<path d="M127.226 176.573C127.18 176.22 126.857 175.972 126.505 176.017L120.758 176.764C120.406 176.81 120.157 177.133 120.203 177.486C120.249 177.838 120.572 178.087 120.924 178.041L126.032 177.377L126.696 182.485C126.742 182.838 127.065 183.087 127.418 183.041C127.77 182.995 128.019 182.672 127.973 182.319L127.226 176.573ZM42.6254 286.76L127.098 177.049L126.078 176.263L41.6051 285.974L42.6254 286.76Z" fill="#BBBBBB"/>
<path d="M127.21 176.489C127.118 176.146 126.765 175.942 126.421 176.034L120.824 177.533C120.48 177.625 120.277 177.978 120.369 178.322C120.461 178.665 120.814 178.869 121.157 178.777L126.132 177.444L127.465 182.42C127.557 182.763 127.91 182.967 128.254 182.875C128.597 182.783 128.801 182.43 128.709 182.087L127.21 176.489ZM42.6728 323.259L127.145 176.978L126.03 176.334L41.5577 322.616L42.6728 323.259Z" fill="#BBBBBB"/>
<path d="M126.629 141.759C126.984 141.736 127.253 141.429 127.23 141.075L126.855 135.292C126.832 134.937 126.525 134.668 126.171 134.691C125.816 134.714 125.547 135.021 125.57 135.376L125.904 140.516L120.764 140.849C120.409 140.872 120.14 141.179 120.163 141.533C120.186 141.888 120.492 142.157 120.847 142.134L126.629 141.759ZM41.6904 67.4291L126.163 141.6L127.013 140.632L42.54 66.4615L41.6904 67.4291Z" fill="#BBBBBB"/>
<path d="M126.822 141.717C127.153 141.587 127.317 141.214 127.188 140.883L125.083 135.484C124.954 135.153 124.581 134.989 124.249 135.118C123.918 135.247 123.754 135.62 123.883 135.952L125.754 140.751L120.955 142.622C120.624 142.751 120.46 143.124 120.589 143.455C120.718 143.787 121.091 143.95 121.423 143.821L126.822 141.717ZM41.8564 104.621L126.329 141.706L126.847 140.527L42.3741 103.442L41.8564 104.621Z" fill="#BBBBBB"/>
<path d="M127.043 141.572C127.294 141.321 127.294 140.913 127.043 140.662L122.946 136.565C122.694 136.313 122.287 136.313 122.035 136.565C121.784 136.816 121.784 137.224 122.035 137.475L125.677 141.117L122.035 144.759C121.784 145.011 121.784 145.418 122.035 145.67C122.287 145.921 122.694 145.921 122.946 145.67L127.043 141.572ZM42.1152 141.761L126.588 141.761L126.588 140.473L42.1152 140.473L42.1152 141.761Z" fill="#BBBBBB"/>
<path d="M127.184 141.359C127.318 141.03 127.16 140.654 126.831 140.52L121.465 138.332C121.136 138.198 120.76 138.356 120.626 138.685C120.492 139.014 120.65 139.39 120.979 139.524L125.748 141.469L123.804 146.239C123.67 146.568 123.828 146.944 124.157 147.078C124.486 147.212 124.862 147.054 124.996 146.725L127.184 141.359ZM42.3649 177.25L126.837 141.709L126.338 140.523L41.8655 176.063L42.3649 177.25Z" fill="#BBBBBB"/>
<path d="M127.23 141.167C127.258 140.812 126.993 140.502 126.638 140.474L120.862 140.018C120.507 139.99 120.197 140.255 120.169 140.609C120.141 140.964 120.406 141.274 120.76 141.302L125.895 141.707L125.49 146.842C125.462 147.196 125.727 147.506 126.081 147.534C126.436 147.562 126.746 147.298 126.774 146.943L127.23 141.167ZM42.5333 213.716L127.006 141.606L126.17 140.626L41.6972 212.737L42.5333 213.716Z" fill="#BBBBBB"/>
<path d="M127.227 141.036C127.182 140.683 126.861 140.433 126.508 140.477L120.758 141.198C120.405 141.242 120.155 141.564 120.199 141.916C120.243 142.269 120.565 142.519 120.918 142.475L126.029 141.835L126.67 146.945C126.714 147.298 127.036 147.548 127.388 147.504C127.741 147.46 127.991 147.138 127.947 146.785L127.227 141.036ZM42.6236 250.192L127.096 141.511L126.079 140.721L41.6069 249.402L42.6236 250.192Z" fill="#BBBBBB"/>
<path d="M127.21 140.951C127.119 140.607 126.767 140.402 126.423 140.493L120.821 141.975C120.477 142.066 120.273 142.419 120.363 142.762C120.454 143.106 120.807 143.311 121.151 143.22L126.13 141.903L127.447 146.882C127.538 147.226 127.891 147.431 128.235 147.34C128.578 147.249 128.783 146.897 128.692 146.553L127.21 140.951ZM42.6718 286.691L127.144 141.439L126.031 140.792L41.5587 286.044L42.6718 286.691Z" fill="#BBBBBB"/>
<path d="M127.192 140.895C127.07 140.561 126.701 140.389 126.367 140.511L120.924 142.5C120.59 142.623 120.419 142.992 120.541 143.326C120.663 143.66 121.032 143.832 121.366 143.71L126.204 141.941L127.973 146.779C128.095 147.113 128.464 147.285 128.798 147.163C129.132 147.041 129.304 146.671 129.182 146.337L127.192 140.895ZM42.6991 323.209L127.172 141.387L126.004 140.844L41.5313 322.666L42.6991 323.209Z" fill="#BBBBBB"/>
<circle cx="42.052" cy="30.3099" r="11.6536" fill="#4C8DF6"/>
<circle cx="42.052" cy="66.8802" r="11.6536" fill="#4C8DF6"/>
<circle cx="42.052" cy="103.45" r="11.6536" fill="#4C8DF6"/>
<circle cx="42.052" cy="140.023" r="11.6536" fill="#4C8DF6"/>
<circle cx="42.052" cy="176.593" r="11.6536" fill="#4C8DF6"/>
<circle cx="42.052" cy="213.163" r="11.6536" fill="#4C8DF6"/>
<circle cx="126.525" cy="141.052" r="11.6536" fill="#4C8DF6"/>
<circle cx="126.525" cy="177.622" r="11.6536" fill="#4C8DF6"/>
<circle cx="126.525" cy="214.193" r="11.6536" fill="#4C8DF6"/>
<circle cx="42.052" cy="249.734" r="11.6536" fill="#4C8DF6"/>
<circle cx="42.052" cy="322.874" r="11.6536" fill="#4C8DF6"/>
<circle cx="42.052" cy="286.304" r="11.6536" fill="#4C8DF6"/>
</g>
<defs>
<filter id="filter0_d_933_567" x="0" y="0" width="158.186" height="355.662" filterUnits="userSpaceOnUse" color-interpolation-filters="sRGB">
<feFlood flood-opacity="0" result="BackgroundImageFix"/>
<feColorMatrix in="SourceAlpha" type="matrix" values="0 0 0 0 0 0 0 0 0 0 0 0 0 0 0 0 0 0 127 0" result="hardAlpha"/>
<feOffset dy="4"/>
<feGaussianBlur stdDeviation="2"/>
<feComposite in2="hardAlpha" operator="out"/>
<feColorMatrix type="matrix" values="0 0 0 0 0 0 0 0 0 0 0 0 0 0 0 0 0 0 0.25 0"/>
<feBlend mode="normal" in2="BackgroundImageFix" result="effect1_dropShadow_933_567"/>
<feBlend mode="normal" in="SourceGraphic" in2="effect1_dropShadow_933_567" result="shape"/>
</filter>
</defs>
</svg>
