<svg width="279" height="172" viewBox="0 0 279 172" fill="none" xmlns="http://www.w3.org/2000/svg">
<g filter="url(#filter0_d_933_457)">
<rect x="4" width="90.2" height="164" fill="#343434"/>
<path d="M94.1992 142.68C86.2306 142.68 78.34 141.11 70.978 138.061C63.616 135.012 56.9266 130.542 51.292 124.907C45.6573 119.273 41.1877 112.583 38.1382 105.221C35.0888 97.8592 33.5192 89.9686 33.5192 82C33.5192 74.0314 35.0888 66.1408 38.1382 58.7788C41.1877 51.4167 45.6573 44.7274 51.292 39.0928C56.9266 33.4581 63.6159 28.9885 70.978 25.939C78.34 22.8895 86.2306 21.32 94.1992 21.32" stroke="white" stroke-width="1.64"/>
<path d="M94.2 108.813C90.6787 108.813 87.1919 108.12 83.9387 106.772C80.6855 105.425 77.7295 103.45 75.2396 100.96C72.7497 98.4697 70.7746 95.5137 69.4271 92.2605C68.0796 89.0073 67.386 85.5205 67.386 81.9992C67.386 78.478 68.0796 74.9912 69.4271 71.738C70.7746 68.4847 72.7497 65.5288 75.2396 63.0389C77.7295 60.549 80.6855 58.5739 83.9387 57.2263C87.1919 55.8788 90.6787 55.1852 94.2 55.1852" stroke="white" stroke-width="1.64"/>
<path d="M6.0423 158.918V158.533H8.72594V158.918H7.60077V162.111H7.16747V158.918H6.0423ZM9.08716 158.533H9.58336L10.5757 160.203H10.6177L11.6101 158.533H12.1063L10.8134 160.637V162.111H10.3801V160.637L9.08716 158.533ZM12.6667 162.111V158.533H13.8757C14.1564 158.533 14.3859 158.584 14.5641 158.685C14.7434 158.785 14.8762 158.921 14.9624 159.092C15.0486 159.263 15.0917 159.454 15.0917 159.665C15.0917 159.876 15.0486 160.068 14.9624 160.24C14.8774 160.413 14.7458 160.55 14.5676 160.652C14.3894 160.754 14.1611 160.804 13.8827 160.804H13.0161V160.42H13.8687C14.0609 160.42 14.2152 160.387 14.3317 160.32C14.4482 160.254 14.5326 160.164 14.585 160.051C14.6386 159.937 14.6654 159.809 14.6654 159.665C14.6654 159.522 14.6386 159.394 14.585 159.281C14.5326 159.168 14.4476 159.079 14.3299 159.015C14.2123 158.95 14.0562 158.918 13.8617 158.918H13.0999V162.111H12.6667ZM15.7897 162.111V158.533H17.9492V158.918H16.223V160.127H17.8374V160.511H16.223V161.727H17.9771V162.111H15.7897ZM20.2118 160.13V160.514H18.6463V160.13H20.2118ZM22.0974 162.16C21.8341 162.16 21.6099 162.089 21.4247 161.945C21.2395 161.801 21.098 161.592 21.0002 161.318C20.9023 161.043 20.8534 160.711 20.8534 160.322C20.8534 159.936 20.9023 159.605 21.0002 159.332C21.0992 159.057 21.2413 158.847 21.4265 158.703C21.6128 158.557 21.8365 158.484 22.0974 158.484C22.3583 158.484 22.5813 158.557 22.7665 158.703C22.9529 158.847 23.095 159.057 23.1928 159.332C23.2919 159.605 23.3414 159.936 23.3414 160.322C23.3414 160.711 23.2924 161.043 23.1946 161.318C23.0968 161.592 22.9552 161.801 22.77 161.945C22.5848 162.089 22.3606 162.16 22.0974 162.16ZM22.0974 161.776C22.3583 161.776 22.561 161.65 22.7054 161.398C22.8498 161.147 22.922 160.788 22.922 160.322C22.922 160.012 22.8888 159.749 22.8225 159.531C22.7572 159.313 22.6629 159.147 22.5394 159.033C22.4171 158.919 22.2698 158.862 22.0974 158.862C21.8388 158.862 21.6367 158.989 21.4911 159.244C21.3455 159.498 21.2727 159.857 21.2727 160.322C21.2727 160.632 21.3053 160.895 21.3706 161.112C21.4358 161.329 21.5296 161.493 21.6519 161.606C21.7753 161.719 21.9238 161.776 22.0974 161.776Z" fill="#7E7E7E"/>
<rect x="274.6" y="164" width="90.2" height="164" transform="rotate(-180 274.6 164)" fill="#343434"/>
<path d="M184.4 21.32C192.369 21.32 200.26 22.8895 207.622 25.939C214.984 28.9884 221.673 33.4581 227.308 39.0928C232.942 44.7274 237.412 51.4167 240.461 58.7788C243.511 66.1408 245.08 74.0314 245.08 82C245.08 89.9686 243.511 97.8592 240.461 105.221C237.412 112.583 232.942 119.273 227.308 124.907C221.673 130.542 214.984 135.012 207.622 138.061C200.26 141.11 192.369 142.68 184.4 142.68" stroke="white" stroke-width="1.64"/>
<path d="M184.4 55.1868C187.921 55.1868 191.408 55.8803 194.661 57.2279C197.914 58.5754 200.87 60.5505 203.36 63.0404C205.85 65.5303 207.825 68.4863 209.173 71.7395C210.52 74.9927 211.214 78.4795 211.214 82.0008C211.214 85.522 210.52 89.0088 209.173 92.262C207.825 95.5153 205.85 98.4712 203.36 100.961C200.87 103.451 197.914 105.426 194.661 106.774C191.408 108.121 187.921 108.815 184.4 108.815" stroke="white" stroke-width="1.64"/>
<path d="M272.557 5.08248V5.46685H269.874V5.08248H270.999V1.88867H271.432V5.08248H272.557ZM269.512 5.46685H269.016L268.024 3.79657H267.982L266.99 5.46685H266.493L267.786 3.36327V1.88867H268.22V3.36327L269.512 5.46685ZM265.933 1.88867V5.46685H264.724C264.443 5.46685 264.214 5.41619 264.036 5.31485C263.856 5.21468 263.723 5.07898 263.637 4.90776C263.551 4.73654 263.508 4.54552 263.508 4.33469C263.508 4.12387 263.551 3.93227 263.637 3.75988C263.722 3.58749 263.854 3.45005 264.032 3.34755C264.21 3.24621 264.439 3.19555 264.717 3.19555H265.584V3.57992H264.731C264.539 3.57992 264.384 3.61312 264.268 3.67951C264.151 3.7459 264.067 3.83559 264.015 3.94857C263.961 4.06272 263.934 4.19143 263.934 4.33469C263.934 4.47796 263.961 4.60609 264.015 4.71907C264.067 4.83205 264.152 4.92058 264.27 4.98464C264.387 5.04986 264.543 5.08248 264.738 5.08248H265.5V1.88867H265.933ZM262.81 1.88867V5.46685H260.65V5.08248H262.377V3.87344H260.762V3.48907H262.377V2.27305L260.622 2.27305V1.88867L262.81 1.88867ZM258.388 3.86995V3.48558H259.953V3.86995H258.388ZM256.502 1.83975C256.765 1.83975 256.99 1.91138 257.175 2.05465C257.36 2.19908 257.502 2.40816 257.599 2.68188C257.697 2.95677 257.746 3.28873 257.746 3.67776C257.746 4.06447 257.697 4.39468 257.599 4.6684C257.5 4.94329 257.358 5.15295 257.173 5.29738C256.987 5.44298 256.763 5.51577 256.502 5.51577C256.241 5.51577 256.018 5.44298 255.833 5.29738C255.647 5.15295 255.505 4.94329 255.407 4.6684C255.308 4.39468 255.258 4.06447 255.258 3.67776C255.258 3.28873 255.307 2.95677 255.405 2.68188C255.503 2.40816 255.644 2.19908 255.83 2.05465C256.015 1.91138 256.239 1.83975 256.502 1.83975ZM256.502 2.22413C256.241 2.22413 256.039 2.34992 255.894 2.60151C255.75 2.8531 255.678 3.21185 255.678 3.67776C255.678 3.98759 255.711 4.25141 255.777 4.46923C255.842 4.68704 255.937 4.85302 256.06 4.96717C256.182 5.08131 256.33 5.13839 256.502 5.13839C256.761 5.13839 256.963 5.01084 257.108 4.75576C257.254 4.50184 257.327 4.14251 257.327 3.67776C257.327 3.36793 257.294 3.10469 257.229 2.88805C257.164 2.6714 257.07 2.50658 256.948 2.3936C256.824 2.28062 256.676 2.22413 256.502 2.22413Z" fill="#7E7E7E"/>
<rect x="94.1992" width="90.2" height="164" fill="#343434"/>
<rect x="94.1992" y="20.5" width="90.2" height="1.64" fill="white"/>
<rect x="94.1992" y="54.3652" width="90.2" height="1.64" fill="white"/>
<rect x="94.1992" y="107.994" width="90.2" height="1.64" fill="white"/>
<rect x="94.1992" y="141.859" width="90.2" height="1.64" fill="white"/>
<path d="M130.435 159.82V159.435H133.119V159.82H131.993V163.014H131.56V159.82H130.435ZM133.48 159.435H133.976L134.968 161.106H135.01L136.003 159.435H136.499L135.206 161.539V163.014H134.773V161.539L133.48 159.435ZM137.059 163.014V159.435H138.268C138.549 159.435 138.778 159.486 138.957 159.587C139.136 159.688 139.269 159.823 139.355 159.995C139.441 160.166 139.484 160.357 139.484 160.568C139.484 160.778 139.441 160.97 139.355 161.142C139.27 161.315 139.138 161.452 138.96 161.555C138.782 161.656 138.554 161.707 138.275 161.707H137.409V161.322H138.261C138.453 161.322 138.608 161.289 138.724 161.223C138.841 161.156 138.925 161.067 138.978 160.954C139.031 160.84 139.058 160.711 139.058 160.568C139.058 160.424 139.031 160.296 138.978 160.183C138.925 160.07 138.84 159.982 138.723 159.918C138.605 159.852 138.449 159.82 138.254 159.82H137.493V163.014H137.059ZM140.182 163.014V159.435H142.342V159.82H140.616V161.029H142.23V161.413H140.616V162.629H142.37V163.014H140.182ZM144.604 161.032V161.417H143.039V161.032H144.604ZM145.533 163.014H145.078L146.392 159.435H146.839L148.153 163.014H147.699L146.63 160.002H146.602L145.533 163.014ZM145.7 161.616H147.531V162H145.7V161.616Z" fill="#7E7E7E"/>
</g>
<defs>
<filter id="filter0_d_933_457" x="0" y="0" width="278.6" height="172" filterUnits="userSpaceOnUse" color-interpolation-filters="sRGB">
<feFlood flood-opacity="0" result="BackgroundImageFix"/>
<feColorMatrix in="SourceAlpha" type="matrix" values="0 0 0 0 0 0 0 0 0 0 0 0 0 0 0 0 0 0 127 0" result="hardAlpha"/>
<feOffset dy="4"/>
<feGaussianBlur stdDeviation="2"/>
<feComposite in2="hardAlpha" operator="out"/>
<feColorMatrix type="matrix" values="0 0 0 0 0 0 0 0 0 0 0 0 0 0 0 0 0 0 0.25 0"/>
<feBlend mode="normal" in2="BackgroundImageFix" result="effect1_dropShadow_933_457"/>
<feBlend mode="normal" in="SourceGraphic" in2="effect1_dropShadow_933_457" result="shape"/>
</filter>
</defs>
</svg>
