<svg width="386" height="100" viewBox="0 0 386 100" fill="none" xmlns="http://www.w3.org/2000/svg">
<path d="M384.333 6.66602H336C308.43 6.66602 286 29.0961 286 56.666V91.666C286 92.5877 286.745 93.3326 287.667 93.3326H311C311.922 93.3326 312.667 92.5877 312.667 91.666V56.666C312.667 43.7994 323.133 33.3326 336 33.3326H384.333C385.255 33.3326 386 32.5877 386 31.666V8.33281C386 7.41113 385.255 6.66602 384.333 6.66602ZM301 83.3328C301 84.2545 300.255 84.9994 299.333 84.9994C298.412 84.9994 297.667 84.2545 297.667 83.3328V79.9994C297.667 79.0777 298.412 78.3328 299.333 78.3328C300.255 78.3328 301 79.0777 301 79.9994V83.3328ZM301 69.3111C301 70.2328 300.255 70.9777 299.333 70.9777C298.412 70.9777 297.667 70.2328 297.667 69.3111V62.1861C297.667 61.2645 298.412 60.5195 299.333 60.5195C300.255 60.5195 301 61.2645 301 62.1861V69.3111ZM302.938 45.1512C302.197 47.2813 301.66 49.5012 301.343 51.7461C301.227 52.5795 300.513 53.1811 299.695 53.1811C299.618 53.1811 299.54 53.176 299.462 53.1645C298.548 53.0361 297.913 52.1945 298.043 51.2844C298.388 48.8227 298.977 46.3895 299.79 44.0543C300.093 43.1844 301.04 42.7242 301.913 43.0275C302.782 43.3311 303.242 44.2811 302.938 45.1512ZM312.145 31.0527C310.49 32.5943 308.977 34.3061 307.647 36.141C307.322 36.5893 306.812 36.8293 306.297 36.8293C305.958 36.8293 305.615 36.726 305.32 36.5109C304.575 35.9709 304.408 34.9293 304.948 34.1842C306.405 32.1758 308.062 30.3025 309.873 28.6143C310.546 27.9859 311.603 28.0209 312.228 28.6977C312.857 29.3711 312.82 30.4262 312.145 31.0527ZM326.857 22.8744C324.672 23.4627 322.537 24.2693 320.507 25.2727C320.27 25.3893 320.017 25.4459 319.77 25.4459C319.155 25.4459 318.563 25.1043 318.273 24.5176C317.865 23.6926 318.203 22.6926 319.028 22.2842C321.253 21.1859 323.595 20.3008 325.987 19.6541C326.878 19.4174 327.788 19.9408 328.032 20.8291C328.27 21.7178 327.745 22.6328 326.857 22.8744ZM344.123 21.666H336.998C336.077 21.666 335.332 20.9211 335.332 19.9994C335.332 19.0777 336.077 18.3328 336.998 18.3328H344.123C345.045 18.3328 345.79 19.0777 345.79 19.9994C345.79 20.9211 345.045 21.666 344.123 21.666ZM361.938 21.666H354.813C353.892 21.666 353.147 20.9211 353.147 19.9994C353.147 19.0777 353.892 18.3328 354.813 18.3328H361.938C362.86 18.3328 363.605 19.0777 363.605 19.9994C363.605 20.9211 362.86 21.666 361.938 21.666ZM376 21.666H372.667C371.745 21.666 371 20.9211 371 19.9994C371 19.0777 371.745 18.3328 372.667 18.3328H376C376.922 18.3328 377.667 19.0777 377.667 19.9994C377.667 20.9211 376.922 21.666 376 21.666Z" fill="black"/>
<path d="M50 6.66602H1.6666C0.744922 6.66602 0 7.41113 0 8.33281V31.6662C0 32.5879 0.744922 33.3328 1.6666 33.3328H50C62.8666 33.3328 73.3334 43.7994 73.3334 56.6662V91.6662C73.3334 92.5879 74.0783 93.3328 75 93.3328H98.3334C99.2551 93.3328 100 92.5879 100 91.6662V56.6662C100 29.0961 77.5699 6.66602 50 6.66602ZM13.3334 21.666H10C9.07832 21.666 8.3334 20.9211 8.3334 19.9994C8.3334 19.0777 9.07832 18.3328 10 18.3328H13.3334C14.2551 18.3328 15 19.0777 15 19.9994C15 20.9211 14.2551 21.666 13.3334 21.666ZM31.1867 21.666H24.0617C23.14 21.666 22.3951 20.9211 22.3951 19.9994C22.3951 19.0777 23.14 18.3328 24.0617 18.3328H31.1867C32.1084 18.3328 32.8533 19.0777 32.8533 19.9994C32.8533 20.9211 32.1084 21.666 31.1867 21.666ZM49.0018 21.666H41.8768C40.9551 21.666 40.2102 20.9211 40.2102 19.9994C40.2102 19.0777 40.9551 18.3328 41.8768 18.3328H49.0018C49.9234 18.3328 50.6684 19.0777 50.6684 19.9994C50.6684 20.9211 49.9232 21.666 49.0018 21.666ZM67.7268 24.5178C67.4367 25.1061 66.8451 25.4461 66.2301 25.4461C65.9834 25.4461 65.7301 25.3895 65.4934 25.2729C63.4633 24.2711 61.3283 23.4629 59.1434 22.8746C58.2551 22.633 57.7301 21.718 57.9684 20.8297C58.21 19.9414 59.1201 19.4164 60.0133 19.6547C62.4049 20.3014 64.7467 21.1863 66.9717 22.2848C67.7967 22.6928 68.135 23.6928 67.7268 24.5178ZM80.6801 36.5111C80.3852 36.7262 80.0418 36.8295 79.7033 36.8295C79.1883 36.8295 78.6783 36.5895 78.3533 36.1412C77.0232 34.3063 75.51 32.5945 73.8533 31.0529C73.1801 30.4262 73.1434 29.3713 73.7717 28.6979C74.3967 28.0262 75.4551 27.9879 76.1268 28.6145C77.9385 30.3027 79.5951 32.1762 81.0518 34.1844C81.5916 34.9295 81.425 35.9711 80.6801 36.5111ZM83.0617 45.1512C82.7584 44.2813 83.2184 43.3313 84.0867 43.0279C84.9533 42.7229 85.9066 43.183 86.2102 44.0545C87.0234 46.3895 87.6119 48.8228 87.9568 51.2846C88.0869 52.1945 87.4518 53.0363 86.5385 53.1646C86.4602 53.1764 86.3818 53.1812 86.3051 53.1812C85.4867 53.1812 84.7734 52.5795 84.6566 51.7463C84.34 49.5012 83.8033 47.2811 83.0617 45.1512ZM88.3334 83.3328C88.3334 84.2545 87.5885 84.9994 86.6668 84.9994C85.7451 84.9994 85.0002 84.2545 85.0002 83.3328V79.9994C85.0002 79.0777 85.7451 78.3328 86.6668 78.3328C87.5885 78.3328 88.3334 79.0777 88.3334 79.9994V83.3328ZM88.3334 69.3111C88.3334 70.2328 87.5885 70.9777 86.6668 70.9777C85.7451 70.9777 85.0002 70.2328 85.0002 69.3111V62.1861C85.0002 61.2645 85.7451 60.5195 86.6668 60.5195C87.5885 60.5195 88.3334 61.2645 88.3334 62.1861V69.3111Z" fill="black"/>
<path d="M210.666 0H190.666V5C190.666 5.92168 189.919 6.6666 188.999 6.6666C188.079 6.6666 187.333 5.92168 187.333 5V0H167.333C166.413 0 165.666 0.74668 165.666 1.6666V98.3332C165.666 99.2549 166.413 99.9998 167.333 99.9998H187.333V94.9998C187.333 94.0799 188.079 93.3332 188.999 93.3332C189.919 93.3332 190.666 94.0799 190.666 94.9998V100H210.666C211.586 100 212.332 99.2551 212.332 98.3334V1.6666C212.333 0.74668 211.586 0 210.666 0ZM190.666 85.3584C190.666 86.2801 189.919 87.025 188.999 87.025C188.079 87.025 187.333 86.2801 187.333 85.3584V78.9301C187.333 78.0084 188.079 77.2635 188.999 77.2635C189.919 77.2635 190.666 78.0084 190.666 78.9301V85.3584ZM190.666 69.2883C190.666 70.2082 189.919 70.9549 188.999 70.9549C188.079 70.9549 187.333 70.2082 187.333 69.2883V62.8582C187.333 61.9383 188.079 61.1916 188.999 61.1916C189.919 61.1916 190.666 61.9383 190.666 62.8582V69.2883ZM190.666 53.215C190.666 54.1367 189.919 54.8816 188.999 54.8816C188.079 54.8816 187.333 54.1367 187.333 53.215V46.7885C187.333 45.8668 188.079 45.1219 188.999 45.1219C189.919 45.1219 190.666 45.8668 190.666 46.7885V53.215ZM190.666 37.1449C190.666 38.0648 189.919 38.8115 188.999 38.8115C188.079 38.8115 187.333 38.0648 187.333 37.1449V30.7148C187.333 29.7932 188.079 29.0482 188.999 29.0482C189.919 29.0482 190.666 29.7932 190.666 30.7148V37.1449ZM190.666 21.0732C190.666 21.9949 189.919 22.7398 188.999 22.7398C188.079 22.7398 187.333 21.9949 187.333 21.0732V14.6449C187.333 13.7232 188.079 12.9783 188.999 12.9783C189.919 12.9783 190.666 13.7232 190.666 14.6449V21.0732Z" fill="black"/>
</svg>
