<svg width="3300" height="2000" viewBox="0 0 3300 2000" fill="none" xmlns="http://www.w3.org/2000/svg">
<rect width="1100" height="2000" fill="#343434"/>
<path d="M1100 1740C1002.82 1740 906.595 1720.86 816.814 1683.67C727.033 1646.48 645.456 1591.97 576.741 1523.26C508.026 1454.54 453.518 1372.97 416.329 1283.19C379.141 1193.4 360 1097.18 360 1000C360 902.822 379.141 806.595 416.329 716.814C453.518 627.033 508.026 545.456 576.741 476.741C645.456 408.026 727.033 353.518 816.814 316.329C906.595 279.141 1002.82 260 1100 260" stroke="white" stroke-width="20"/>
<path d="M1100 1327C1057.06 1327 1014.54 1318.54 974.863 1302.11C935.189 1285.68 899.141 1261.59 868.776 1231.22C838.411 1200.86 814.325 1164.81 797.891 1125.14C781.458 1085.46 773 1042.94 773 1000C773 957.058 781.458 914.536 797.891 874.863C814.325 835.189 838.411 799.141 868.776 768.776C899.141 738.411 935.189 714.325 974.863 697.891C1014.54 681.458 1057.06 673 1100 673" stroke="white" stroke-width="20"/>
<path d="M24.8977 1935.05V1930.36H57.625V1935.05H43.9034V1974H38.6193V1935.05H24.8977ZM62.0302 1930.36H68.0813L80.1836 1950.73H80.695L92.7972 1930.36H98.8484L83.0813 1956.02V1974H77.7972V1956.02L62.0302 1930.36ZM105.683 1974V1930.36H120.427C123.85 1930.36 126.648 1930.98 128.822 1932.22C131.009 1933.44 132.629 1935.09 133.68 1937.18C134.731 1939.27 135.256 1941.6 135.256 1944.17C135.256 1946.74 134.731 1949.08 133.68 1951.18C132.643 1953.28 131.038 1954.96 128.864 1956.21C126.691 1957.44 123.907 1958.06 120.512 1958.06H109.944V1953.38H120.342C122.685 1953.38 124.567 1952.97 125.988 1952.16C127.408 1951.35 128.438 1950.26 129.077 1948.88C129.731 1947.49 130.058 1945.92 130.058 1944.17C130.058 1942.42 129.731 1940.86 129.077 1939.48C128.438 1938.11 127.401 1937.03 125.967 1936.24C124.532 1935.45 122.629 1935.05 120.256 1935.05H110.967V1974H105.683ZM143.768 1974V1930.36H170.104V1935.05H149.053V1949.8H168.74V1954.48H149.053V1969.31H170.445V1974H143.768ZM197.696 1949.84V1954.53H178.605V1949.84H197.696ZM220.691 1974.6C217.481 1974.6 214.747 1973.72 212.488 1971.98C210.23 1970.21 208.504 1967.66 207.311 1964.33C206.118 1960.97 205.521 1956.93 205.521 1952.18C205.521 1947.47 206.118 1943.44 207.311 1940.1C208.518 1936.75 210.251 1934.19 212.51 1932.43C214.782 1930.65 217.51 1929.77 220.691 1929.77C223.873 1929.77 226.593 1930.65 228.852 1932.43C231.125 1934.19 232.858 1936.75 234.051 1940.1C235.258 1943.44 235.862 1947.47 235.862 1952.18C235.862 1956.93 235.265 1960.97 234.072 1964.33C232.879 1967.66 231.153 1970.21 228.895 1971.98C226.636 1973.72 223.902 1974.6 220.691 1974.6ZM220.691 1969.91C223.873 1969.91 226.345 1968.37 228.106 1965.31C229.868 1962.24 230.748 1957.86 230.748 1952.18C230.748 1948.4 230.343 1945.19 229.534 1942.53C228.738 1939.87 227.588 1937.85 226.082 1936.46C224.591 1935.07 222.794 1934.37 220.691 1934.37C217.538 1934.37 215.074 1935.92 213.298 1939.04C211.522 1942.13 210.635 1946.51 210.635 1952.18C210.635 1955.96 211.032 1959.17 211.828 1961.81C212.623 1964.45 213.767 1966.46 215.258 1967.84C216.764 1969.22 218.575 1969.91 220.691 1969.91Z" fill="#7E7E7E"/>
<rect x="3300" y="2000" width="1100" height="2000" transform="rotate(-180 3300 2000)" fill="#343434"/>
<path d="M2200 260C2297.18 260 2393.4 279.141 2483.19 316.329C2572.97 353.518 2654.54 408.026 2723.26 476.741C2791.97 545.456 2846.48 627.033 2883.67 716.814C2920.86 806.595 2940 902.822 2940 1000C2940 1097.18 2920.86 1193.4 2883.67 1283.19C2846.48 1372.97 2791.97 1454.54 2723.26 1523.26C2654.54 1591.97 2572.97 1646.48 2483.19 1683.67C2393.4 1720.86 2297.18 1740 2200 1740" stroke="white" stroke-width="20"/>
<path d="M2200 673C2242.94 673 2285.46 681.458 2325.14 697.891C2364.81 714.325 2400.86 738.411 2431.22 768.776C2461.59 799.141 2485.68 835.189 2502.11 874.863C2518.54 914.536 2527 957.058 2527 1000C2527 1042.94 2518.54 1085.46 2502.11 1125.14C2485.68 1164.81 2461.59 1200.86 2431.22 1231.22C2400.86 1261.59 2364.81 1285.68 2325.14 1302.11C2285.46 1318.54 2242.94 1327 2200 1327" stroke="white" stroke-width="20"/>
<path d="M3275.1 64.9489V69.6364H3242.38V64.9489H3256.1V26H3261.38V64.9489H3275.1ZM3237.97 69.6364H3231.92L3219.82 49.267H3219.31L3207.2 69.6364H3201.15L3216.92 43.983V26H3222.2V43.983L3237.97 69.6364ZM3194.32 26V69.6364H3179.57C3176.15 69.6364 3173.35 69.0185 3171.18 67.7827C3168.99 66.5611 3167.37 64.9062 3166.32 62.8182C3165.27 60.7301 3164.74 58.4006 3164.74 55.8295C3164.74 53.2585 3165.27 50.9219 3166.32 48.8196C3167.36 46.7173 3168.96 45.0412 3171.14 43.7912C3173.31 42.5554 3176.09 41.9375 3179.49 41.9375H3190.06V46.625H3179.66C3177.31 46.625 3175.43 47.0298 3174.01 47.8395C3172.59 48.6491 3171.56 49.7429 3170.92 51.1207C3170.27 52.5128 3169.94 54.0824 3169.94 55.8295C3169.94 57.5767 3170.27 59.1392 3170.92 60.517C3171.56 61.8949 3172.6 62.9744 3174.03 63.7557C3175.47 64.5511 3177.37 64.9489 3179.74 64.9489H3189.03V26L3194.32 26ZM3156.23 26V69.6364H3129.9V64.9489H3150.95V50.2045L3131.26 50.2045V45.517L3150.95 45.517V30.6875L3129.56 30.6875V26L3156.23 26ZM3102.3 50.1619V45.4744H3121.39V50.1619H3102.3ZM3079.31 25.4034C3082.52 25.4034 3085.25 26.277 3087.51 28.0241C3089.77 29.7855 3091.5 32.3352 3092.69 35.6733C3093.88 39.0256 3094.48 43.0739 3094.48 47.8182C3094.48 52.5341 3093.88 56.5611 3092.69 59.8991C3091.48 63.2514 3089.75 65.8082 3087.49 67.5696C3085.22 69.3452 3082.49 70.233 3079.31 70.233C3076.13 70.233 3073.41 69.3452 3071.15 67.5696C3068.88 65.8082 3067.14 63.2514 3065.95 59.8991C3064.74 56.5611 3064.14 52.5341 3064.14 47.8182C3064.14 43.0739 3064.73 39.0256 3065.93 35.6733C3067.12 32.3352 3068.85 29.7855 3071.11 28.0241C3073.36 26.277 3076.1 25.4034 3079.31 25.4034ZM3079.31 30.0909C3076.13 30.0909 3073.66 31.625 3071.89 34.6932C3070.13 37.7614 3069.25 42.1364 3069.25 47.8182C3069.25 51.5966 3069.66 54.8139 3070.47 57.4702C3071.26 60.1264 3072.41 62.1506 3073.92 63.5426C3075.41 64.9347 3077.21 65.6307 3079.31 65.6307C3082.46 65.6307 3084.93 64.0753 3086.7 60.9645C3088.48 57.8679 3089.37 53.4858 3089.37 47.8182C3089.37 44.0398 3088.97 40.8295 3088.17 38.1875C3087.38 35.5455 3086.23 33.5355 3084.74 32.1577C3083.24 30.7798 3081.43 30.0909 3079.31 30.0909Z" fill="#7E7E7E"/>
<rect x="1100" width="1100" height="2000" fill="#343434"/>
<rect x="1100" y="250" width="1100" height="20" fill="white"/>
<rect x="1100" y="663" width="1100" height="20" fill="white"/>
<rect x="1100" y="1317" width="1100" height="20" fill="white"/>
<rect x="1100" y="1730" width="1100" height="20" fill="white"/>
<path d="M1541.9 1946.05V1941.36H1574.62V1946.05H1560.9V1985H1555.62V1946.05H1541.9ZM1579.03 1941.36H1585.08L1597.18 1961.73H1597.69L1609.8 1941.36H1615.85L1600.08 1967.02V1985H1594.8V1967.02L1579.03 1941.36ZM1622.68 1985V1941.36H1637.43C1640.85 1941.36 1643.65 1941.98 1645.82 1943.22C1648.01 1944.44 1649.63 1946.09 1650.68 1948.18C1651.73 1950.27 1652.26 1952.6 1652.26 1955.17C1652.26 1957.74 1651.73 1960.08 1650.68 1962.18C1649.64 1964.28 1648.04 1965.96 1645.86 1967.21C1643.69 1968.44 1640.91 1969.06 1637.51 1969.06H1626.94V1964.38H1637.34C1639.69 1964.38 1641.57 1963.97 1642.99 1963.16C1644.41 1962.35 1645.44 1961.26 1646.08 1959.88C1646.73 1958.49 1647.06 1956.92 1647.06 1955.17C1647.06 1953.42 1646.73 1951.86 1646.08 1950.48C1645.44 1949.11 1644.4 1948.03 1642.97 1947.24C1641.53 1946.45 1639.63 1946.05 1637.26 1946.05H1627.97V1985H1622.68ZM1660.77 1985V1941.36H1687.1V1946.05H1666.05V1960.8H1685.74V1965.48H1666.05V1980.31H1687.44V1985H1660.77ZM1714.7 1960.84V1965.53H1695.61V1960.84H1714.7ZM1726.02 1985H1720.48L1736.5 1941.36H1741.95L1757.98 1985H1752.44L1739.4 1948.27H1739.06L1726.02 1985ZM1728.06 1967.95H1750.39V1972.64H1728.06V1967.95Z" fill="#7E7E7E"/>
</svg>
