<svg width="397" height="139" viewBox="0 0 397 139" fill="none" xmlns="http://www.w3.org/2000/svg">
<g filter="url(#filter0_d_1845_440)">
<circle cx="341.166" cy="51.8345" r="51.8345" fill="#5161F1"/>
</g>
<g filter="url(#filter1_d_1845_440)">
<rect x="49.0068" y="4.71222" width="7.53957" height="94.2446" rx="3.76978" fill="black"/>
<rect x="49.4781" y="5.18344" width="6.59712" height="93.3022" rx="3.29856" stroke="black" stroke-width="0.942446"/>
</g>
<path d="M8.78021 56.7617V58.4101H2.72518V56.7617H8.78021ZM3.305 46.3497V58.4101H1.22592V46.3497H3.305ZM12.3254 49.4477V58.4101H10.3209V49.4477H12.3254ZM10.1884 47.0952C10.1884 46.7915 10.2878 46.5402 10.4866 46.3414C10.6909 46.1371 10.9725 46.035 11.3314 46.035C11.6849 46.035 11.9637 46.1371 12.168 46.3414C12.3724 46.5402 12.4745 46.7915 12.4745 47.0952C12.4745 47.3934 12.3724 47.6419 12.168 47.8407C11.9637 48.0395 11.6849 48.1389 11.3314 48.1389C10.9725 48.1389 10.6909 48.0395 10.4866 47.8407C10.2878 47.6419 10.1884 47.3934 10.1884 47.0952ZM19.9791 56.5547V45.6871H21.9837V58.4101H20.1696L19.9791 56.5547ZM14.1477 54.0283V53.8543C14.1477 53.1751 14.2278 52.5566 14.3879 51.9989C14.5481 51.4356 14.78 50.9524 15.0837 50.5493C15.3875 50.1407 15.7574 49.8287 16.1937 49.6133C16.6299 49.3924 17.1214 49.282 17.6681 49.282C18.2093 49.282 18.6842 49.3869 19.0928 49.5968C19.5015 49.8066 19.8494 50.1076 20.1365 50.4996C20.4237 50.8862 20.6528 51.35 20.824 51.8912C20.9952 52.4269 21.1167 53.0232 21.1885 53.6804V54.2354C21.1167 54.8759 20.9952 55.4613 20.824 55.9914C20.6528 56.5215 20.4237 56.9799 20.1365 57.3664C19.8494 57.753 19.4987 58.0512 19.0845 58.261C18.6759 58.4708 18.1982 58.5758 17.6515 58.5758C17.1104 58.5758 16.6217 58.4626 16.1854 58.2361C15.7547 58.0097 15.3875 57.6922 15.0837 57.2836C14.78 56.8749 14.5481 56.3945 14.3879 55.8423C14.2278 55.2846 14.1477 54.6799 14.1477 54.0283ZM16.144 53.8543V54.0283C16.144 54.4369 16.1799 54.8179 16.2517 55.1714C16.329 55.5248 16.4477 55.8368 16.6079 56.1074C16.768 56.3724 16.9751 56.5823 17.2291 56.7369C17.4886 56.886 17.7979 56.9605 18.1568 56.9605C18.6096 56.9605 18.9824 56.8611 19.275 56.6623C19.5677 56.4635 19.7969 56.1957 19.9626 55.8589C20.1337 55.5165 20.2497 55.1355 20.3104 54.7158V53.2165C20.2773 52.8907 20.2083 52.587 20.1034 52.3054C20.004 52.0237 19.8687 51.778 19.6975 51.5682C19.5263 51.3528 19.3137 51.1871 19.0597 51.0712C18.8112 50.9497 18.5158 50.8889 18.1734 50.8889C17.8089 50.8889 17.4997 50.9662 17.2457 51.1209C16.9916 51.2755 16.7818 51.4881 16.6161 51.7587C16.456 52.0293 16.3373 52.344 16.26 52.703C16.1826 53.0619 16.144 53.4457 16.144 53.8543ZM29.1238 56.6126V52.3385C29.1238 52.0182 29.0658 51.7421 28.9498 51.5102C28.8339 51.2782 28.6572 51.0988 28.4197 50.9718C28.1878 50.8448 27.8951 50.7813 27.5417 50.7813C27.2159 50.7813 26.9343 50.8365 26.6968 50.9469C26.4594 51.0574 26.2744 51.2065 26.1418 51.3942C26.0093 51.582 25.943 51.7946 25.943 52.032H23.9551C23.9551 51.6786 24.0407 51.3362 24.2118 51.0049C24.383 50.6736 24.6315 50.3781 24.9573 50.1186C25.2831 49.8591 25.6725 49.6547 26.1253 49.5056C26.5781 49.3565 27.0861 49.282 27.6494 49.282C28.3231 49.282 28.9195 49.3952 29.4386 49.6216C29.9632 49.848 30.3746 50.1904 30.6728 50.6487C30.9765 51.1015 31.1283 51.6703 31.1283 52.3551V56.3393C31.1283 56.7479 31.1559 57.1152 31.2112 57.441C31.2719 57.7612 31.3575 58.0401 31.4679 58.2776V58.4101H29.422C29.3281 58.1947 29.2536 57.9214 29.1983 57.5901C29.1486 57.2532 29.1238 56.9274 29.1238 56.6126ZM29.4137 52.9597L29.4303 54.1939H27.9973C27.6273 54.1939 27.3015 54.2298 27.0199 54.3016C26.7382 54.3679 26.5035 54.4673 26.3158 54.5998C26.128 54.7323 25.9872 54.8925 25.8933 55.0802C25.7995 55.268 25.7525 55.4806 25.7525 55.718C25.7525 55.9555 25.8077 56.1736 25.9182 56.3724C26.0286 56.5657 26.1888 56.7176 26.3986 56.828C26.614 56.9384 26.8735 56.9937 27.1772 56.9937C27.5859 56.9937 27.9421 56.9108 28.2458 56.7452C28.555 56.574 28.798 56.3669 28.9747 56.1239C29.1514 55.8754 29.2453 55.6407 29.2563 55.4199L29.9024 56.3062C29.8361 56.5326 29.7229 56.7755 29.5628 57.0351C29.4027 57.2946 29.1928 57.5431 28.9333 57.7806C28.6793 58.0125 28.3728 58.203 28.0138 58.3521C27.6604 58.5012 27.2518 58.5758 26.7879 58.5758C26.2026 58.5758 25.6807 58.4598 25.2224 58.2279C24.7641 57.9904 24.4051 57.6729 24.1456 57.2753C23.886 56.8722 23.7563 56.4166 23.7563 55.9086C23.7563 55.4337 23.8446 55.014 24.0213 54.6495C24.2036 54.2795 24.4686 53.9703 24.8165 53.7218C25.1699 53.4733 25.6007 53.2855 26.1087 53.1585C26.6167 53.026 27.1966 52.9597 27.8482 52.9597H29.4137ZM35.2202 51.154V58.4101H33.224V49.4477H35.1291L35.2202 51.154ZM37.962 49.3897L37.9454 51.2451C37.8239 51.223 37.6914 51.2065 37.5478 51.1954C37.4098 51.1844 37.2717 51.1788 37.1337 51.1788C36.7913 51.1788 36.4903 51.2285 36.2308 51.3279C35.9713 51.4218 35.7531 51.5599 35.5764 51.7421C35.4052 51.9188 35.2727 52.1342 35.1788 52.3882C35.0849 52.6422 35.0297 52.9266 35.0132 53.2414L34.5576 53.2745C34.5576 52.7112 34.6128 52.1894 34.7232 51.709C34.8337 51.2285 34.9994 50.8061 35.2202 50.4416C35.4466 50.0772 35.7283 49.7928 36.0651 49.5885C36.4075 49.3841 36.8023 49.282 37.2496 49.282C37.3711 49.282 37.5009 49.293 37.6389 49.3151C37.7825 49.3372 37.8902 49.3621 37.962 49.3897Z" fill="black"/>
<g filter="url(#filter2_d_1845_440)">
<rect x="56.5469" y="23.5612" width="18.8489" height="18.8489" fill="#D9D9D9"/>
</g>
<g filter="url(#filter3_d_1845_440)">
<rect x="56.5469" y="61.259" width="18.8489" height="18.8489" fill="#D9D9D9"/>
</g>
<path d="M276.227 43.7829C276.614 43.4346 276.645 42.8387 276.297 42.4519L270.621 36.1485C270.273 35.7617 269.677 35.7305 269.29 36.0788C268.904 36.4271 268.872 37.023 269.221 37.4098L274.266 43.0128L268.663 48.0577C268.276 48.406 268.245 49.0019 268.593 49.3887C268.941 49.7755 269.537 49.8068 269.924 49.4585L276.227 43.7829ZM82.8862 33.9268L275.547 44.0237L275.646 42.1414L82.9849 32.0444L82.8862 33.9268Z" fill="#51F186"/>
<path d="M82.3051 71.1138C81.9183 70.7656 81.887 70.1696 82.2353 69.7828L87.9109 63.4795C88.2592 63.0927 88.8551 63.0614 89.2419 63.4097C89.6287 63.758 89.6599 64.3539 89.3116 64.7407L84.2667 70.3437L89.8697 75.3887C90.2565 75.7369 90.2877 76.3329 89.9394 76.7197C89.5911 77.1065 88.9952 77.1377 88.6084 76.7894L82.3051 71.1138ZM275.646 61.2577L82.985 71.3546L82.8864 69.4723L275.547 59.3754L275.646 61.2577Z" fill="#51F186"/>
<path d="M145.435 15.2941V16.9424H139.379V15.2941H145.435ZM139.959 4.88208V16.9424H137.88V4.88208H139.959ZM151.895 15.145V10.8708C151.895 10.5506 151.837 10.2745 151.721 10.0425C151.606 9.81059 151.429 9.63112 151.191 9.50411C150.959 9.37711 150.667 9.3136 150.313 9.3136C149.988 9.3136 149.706 9.36882 149.468 9.47926C149.231 9.58971 149.046 9.73881 148.913 9.92656C148.781 10.1143 148.715 10.3269 148.715 10.5644H146.727C146.727 10.2109 146.812 9.86858 146.983 9.53725C147.155 9.20592 147.403 8.91048 147.729 8.65094C148.055 8.3914 148.444 8.18708 148.897 8.03799C149.35 7.88889 149.858 7.81434 150.421 7.81434C151.095 7.81434 151.691 7.92754 152.21 8.15395C152.735 8.38036 153.146 8.72273 153.444 9.18107C153.748 9.63388 153.9 10.2027 153.9 10.8874V14.8716C153.9 15.2803 153.928 15.6475 153.983 15.9733C154.044 16.2936 154.129 16.5725 154.24 16.8099V16.9424H152.194C152.1 16.7271 152.025 16.4537 151.97 16.1224C151.92 15.7856 151.895 15.4597 151.895 15.145ZM152.185 11.4921L152.202 12.7263H150.769C150.399 12.7263 150.073 12.7622 149.791 12.834C149.51 12.9002 149.275 12.9996 149.087 13.1322C148.9 13.2647 148.759 13.4248 148.665 13.6126C148.571 13.8003 148.524 14.0129 148.524 14.2504C148.524 14.4879 148.579 14.706 148.69 14.9048C148.8 15.098 148.96 15.2499 149.17 15.3603C149.386 15.4708 149.645 15.526 149.949 15.526C150.357 15.526 150.714 15.4432 151.017 15.2775C151.327 15.1063 151.57 14.8993 151.746 14.6563C151.923 14.4078 152.017 14.1731 152.028 13.9522L152.674 14.8385C152.608 15.0649 152.495 15.3079 152.334 15.5674C152.174 15.827 151.964 16.0755 151.705 16.3129C151.451 16.5448 151.144 16.7354 150.785 16.8845C150.432 17.0336 150.023 17.1081 149.56 17.1081C148.974 17.1081 148.452 16.9921 147.994 16.7602C147.536 16.5228 147.177 16.2052 146.917 15.8076C146.658 15.4045 146.528 14.9489 146.528 14.4409C146.528 13.966 146.616 13.5463 146.793 13.1819C146.975 12.8119 147.24 12.5026 147.588 12.2541C147.942 12.0056 148.372 11.8179 148.88 11.6909C149.388 11.5584 149.968 11.4921 150.62 11.4921H152.185ZM161.015 14.5155C161.015 14.3167 160.966 14.1372 160.866 13.9771C160.767 13.8114 160.576 13.6623 160.295 13.5298C160.018 13.3972 159.61 13.2757 159.069 13.1653C158.594 13.0604 158.158 12.9361 157.76 12.7926C157.368 12.6435 157.031 12.464 156.749 12.2541C156.468 12.0443 156.25 11.7958 156.095 11.5087C155.94 11.2215 155.863 10.8902 155.863 10.5147C155.863 10.1502 155.943 9.80507 156.103 9.47926C156.263 9.15346 156.493 8.86631 156.791 8.61781C157.089 8.36931 157.451 8.17328 157.876 8.0297C158.307 7.88613 158.787 7.81434 159.317 7.81434C160.068 7.81434 160.712 7.94135 161.247 8.19537C161.788 8.44386 162.203 8.78347 162.49 9.2142C162.777 9.63941 162.92 10.1198 162.92 10.6555H160.924C160.924 10.418 160.863 10.1971 160.742 9.99282C160.626 9.78298 160.449 9.61456 160.212 9.48755C159.974 9.35502 159.676 9.28875 159.317 9.28875C158.975 9.28875 158.69 9.34397 158.464 9.45442C158.243 9.55934 158.077 9.69739 157.967 9.86858C157.862 10.0398 157.81 10.2275 157.81 10.4318C157.81 10.5809 157.837 10.7162 157.892 10.8377C157.953 10.9537 158.053 11.0614 158.191 11.1608C158.329 11.2546 158.516 11.343 158.754 11.4258C158.997 11.5087 159.301 11.5887 159.665 11.666C160.35 11.8096 160.938 11.9946 161.429 12.221C161.926 12.4419 162.307 12.729 162.572 13.0825C162.838 13.4304 162.97 13.8721 162.97 14.4078C162.97 14.8054 162.884 15.1698 162.713 15.5012C162.548 15.827 162.305 16.1114 161.984 16.3543C161.664 16.5918 161.28 16.7768 160.833 16.9093C160.391 17.0418 159.894 17.1081 159.342 17.1081C158.53 17.1081 157.843 16.9645 157.28 16.6774C156.716 16.3847 156.288 16.012 155.996 15.5591C155.708 15.1008 155.565 14.6259 155.565 14.1344H157.495C157.517 14.5044 157.619 14.7999 157.801 15.0207C157.989 15.2361 158.221 15.3935 158.497 15.4929C158.779 15.5868 159.069 15.6337 159.367 15.6337C159.726 15.6337 160.027 15.5868 160.27 15.4929C160.513 15.3935 160.698 15.261 160.825 15.0953C160.952 14.9241 161.015 14.7308 161.015 14.5155ZM168.669 17.1081C168.006 17.1081 167.407 17.0004 166.871 16.7851C166.341 16.5642 165.889 16.2577 165.513 15.8656C165.143 15.4736 164.859 15.0125 164.66 14.4823C164.461 13.9522 164.362 13.3807 164.362 12.7677V12.4364C164.362 11.7351 164.464 11.1 164.668 10.5312C164.872 9.96245 165.157 9.4765 165.521 9.07339C165.886 8.66475 166.316 8.35275 166.813 8.13738C167.31 7.92202 167.849 7.81434 168.429 7.81434C169.069 7.81434 169.63 7.92202 170.11 8.13738C170.591 8.35275 170.988 8.65647 171.303 9.04854C171.623 9.43509 171.861 9.89619 172.015 10.4318C172.175 10.9675 172.256 11.5584 172.256 12.2044V13.0576H165.331V11.6246H170.284V11.4672C170.273 11.1083 170.201 10.7714 170.069 10.4567C169.942 10.1419 169.746 9.8879 169.481 9.69463C169.216 9.50135 168.862 9.40472 168.42 9.40472C168.089 9.40472 167.794 9.4765 167.534 9.62008C167.28 9.75813 167.068 9.95969 166.896 10.2248C166.725 10.4898 166.593 10.8101 166.499 11.1856C166.41 11.5556 166.366 11.9725 166.366 12.4364V12.7677C166.366 13.1598 166.419 13.5242 166.524 13.8611C166.634 14.1924 166.794 14.4823 167.004 14.7308C167.214 14.9793 167.468 15.1754 167.766 15.3189C168.064 15.457 168.404 15.526 168.785 15.526C169.265 15.526 169.693 15.4294 170.069 15.2361C170.444 15.0428 170.77 14.7695 171.046 14.4161L172.098 15.4349C171.905 15.7165 171.654 15.9871 171.344 16.2467C171.035 16.5007 170.657 16.7078 170.21 16.8679C169.768 17.028 169.254 17.1081 168.669 17.1081ZM175.817 9.68635V16.9424H173.821V7.98H175.726L175.817 9.68635ZM178.559 7.92202L178.543 9.77746C178.421 9.75537 178.289 9.73881 178.145 9.72776C178.007 9.71672 177.869 9.7112 177.731 9.7112C177.388 9.7112 177.087 9.76089 176.828 9.86029C176.568 9.95417 176.35 10.0922 176.174 10.2745C176.002 10.4512 175.87 10.6665 175.776 10.9205C175.682 11.1746 175.627 11.459 175.61 11.7737L175.155 11.8068C175.155 11.2436 175.21 10.7217 175.32 10.2413C175.431 9.76089 175.596 9.33845 175.817 8.97399C176.044 8.60953 176.325 8.32514 176.662 8.12082C177.005 7.9165 177.399 7.81434 177.847 7.81434C177.968 7.81434 178.098 7.82538 178.236 7.84747C178.38 7.86956 178.487 7.89441 178.559 7.92202ZM191.787 15.2941V16.9424H185.732V15.2941H191.787ZM186.312 4.88208V16.9424H184.233V4.88208H186.312ZM195.333 7.98V16.9424H193.328V7.98H195.333ZM193.196 5.62757C193.196 5.32385 193.295 5.07259 193.494 4.8738C193.698 4.66948 193.98 4.56732 194.339 4.56732C194.692 4.56732 194.971 4.66948 195.175 4.8738C195.38 5.07259 195.482 5.32385 195.482 5.62757C195.482 5.92576 195.38 6.17426 195.175 6.37306C194.971 6.57186 194.692 6.67125 194.339 6.67125C193.98 6.67125 193.698 6.57186 193.494 6.37306C193.295 6.17426 193.196 5.92576 193.196 5.62757ZM203.26 7.98H205.074V16.6939C205.074 17.5002 204.902 18.1849 204.56 18.7482C204.218 19.3114 203.74 19.7394 203.127 20.0321C202.514 20.3303 201.805 20.4794 200.998 20.4794C200.656 20.4794 200.275 20.4297 199.855 20.3303C199.441 20.2309 199.038 20.0707 198.646 19.8499C198.259 19.6345 197.936 19.3501 197.677 18.9967L198.613 17.8205C198.933 18.2015 199.286 18.4804 199.673 18.6571C200.06 18.8338 200.465 18.9221 200.891 18.9221C201.349 18.9221 201.738 18.8365 202.059 18.6654C202.384 18.4997 202.636 18.254 202.812 17.9281C202.989 17.6023 203.077 17.2047 203.077 16.7354V10.0094L203.26 7.98ZM197.171 12.5606V12.3867C197.171 11.7075 197.254 11.089 197.42 10.5312C197.586 9.96797 197.823 9.48479 198.132 9.08167C198.442 8.67303 198.817 8.36103 199.259 8.14567C199.701 7.92478 200.2 7.81434 200.758 7.81434C201.338 7.81434 201.832 7.91926 202.241 8.1291C202.655 8.33894 203 8.6399 203.276 9.03197C203.552 9.41852 203.768 9.88238 203.922 10.4236C204.082 10.9592 204.201 11.5556 204.278 12.2127V12.7677C204.207 13.4083 204.085 13.9936 203.914 14.5237C203.743 15.0539 203.516 15.5122 203.235 15.8988C202.953 16.2853 202.605 16.5835 202.191 16.7933C201.782 17.0032 201.299 17.1081 200.742 17.1081C200.195 17.1081 199.701 16.9949 199.259 16.7685C198.823 16.5421 198.447 16.2246 198.132 15.8159C197.823 15.4073 197.586 14.9269 197.42 14.3746C197.254 13.8169 197.171 13.2122 197.171 12.5606ZM199.168 12.3867V12.5606C199.168 12.9693 199.206 13.3503 199.284 13.7037C199.367 14.0571 199.491 14.3691 199.656 14.6397C199.828 14.9048 200.043 15.1146 200.303 15.2692C200.568 15.4183 200.88 15.4929 201.239 15.4929C201.708 15.4929 202.092 15.3935 202.39 15.1947C202.694 14.9959 202.926 14.7281 203.086 14.3912C203.251 14.0488 203.367 13.6678 203.434 13.2481V11.7489C203.4 11.4231 203.331 11.1193 203.227 10.8377C203.127 10.5561 202.992 10.3103 202.821 10.1005C202.649 9.88514 202.434 9.71948 202.175 9.60351C201.915 9.48203 201.609 9.42128 201.255 9.42128C200.896 9.42128 200.584 9.49859 200.319 9.65321C200.054 9.80783 199.836 10.0204 199.665 10.291C199.499 10.5616 199.375 10.8764 199.292 11.2353C199.209 11.5942 199.168 11.978 199.168 12.3867ZM209.116 4.21942V16.9424H207.128V4.21942H209.116ZM208.768 12.1299L208.122 12.1216C208.127 11.5031 208.213 10.9316 208.379 10.407C208.55 9.88238 208.787 9.4268 209.091 9.04025C209.4 8.64818 209.77 8.34723 210.201 8.13738C210.632 7.92202 211.109 7.81434 211.634 7.81434C212.076 7.81434 212.473 7.87508 212.827 7.99657C213.186 8.11806 213.495 8.31409 213.754 8.58468C214.014 8.84974 214.21 9.19764 214.343 9.62836C214.481 10.0536 214.55 10.5726 214.55 11.1856V16.9424H212.545V11.169C212.545 10.7383 212.482 10.3959 212.355 10.1419C212.233 9.8879 212.054 9.70567 211.816 9.59523C211.579 9.47926 211.289 9.42128 210.946 9.42128C210.588 9.42128 210.27 9.49307 209.994 9.63665C209.723 9.78022 209.497 9.97626 209.315 10.2248C209.132 10.4733 208.994 10.7604 208.901 11.0862C208.812 11.412 208.768 11.7599 208.768 12.1299ZM220.679 7.98V9.43785H215.626V7.98H220.679ZM217.084 5.78495H219.081V14.4658C219.081 14.7419 219.119 14.9545 219.197 15.1036C219.279 15.2471 219.393 15.3438 219.536 15.3935C219.68 15.4432 219.848 15.468 220.041 15.468C220.179 15.468 220.312 15.4597 220.439 15.4432C220.566 15.4266 220.668 15.41 220.746 15.3935L220.754 16.9176C220.588 16.9673 220.395 17.0115 220.174 17.0501C219.959 17.0888 219.71 17.1081 219.428 17.1081C218.97 17.1081 218.564 17.028 218.211 16.8679C217.857 16.7022 217.581 16.4344 217.383 16.0644C217.184 15.6944 217.084 15.203 217.084 14.59V5.78495Z" fill="black"/>
<path d="M75.3955 112.151L84.82 117.592L84.82 106.71L75.3955 112.151ZM289.331 112.151L279.906 106.71L279.906 117.592L289.331 112.151ZM83.8775 113.094L280.849 113.093L280.849 111.209L83.8775 111.209L83.8775 113.094Z" fill="black"/>
<path d="M150.809 134.748H148.233L148.249 133.1H150.809C151.554 133.1 152.178 132.937 152.681 132.611C153.189 132.285 153.57 131.819 153.824 131.211C154.083 130.604 154.213 129.88 154.213 129.041V128.387C154.213 127.735 154.139 127.158 153.99 126.655C153.846 126.153 153.631 125.731 153.343 125.388C153.062 125.046 152.714 124.786 152.3 124.61C151.891 124.433 151.419 124.344 150.883 124.344H148.183V122.688H150.883C151.684 122.688 152.416 122.823 153.078 123.094C153.741 123.359 154.313 123.743 154.793 124.245C155.279 124.748 155.652 125.349 155.911 126.051C156.171 126.752 156.301 127.536 156.301 128.403V129.041C156.301 129.908 156.171 130.692 155.911 131.393C155.652 132.095 155.279 132.697 154.793 133.199C154.307 133.696 153.727 134.08 153.054 134.351C152.385 134.616 151.637 134.748 150.809 134.748ZM149.384 122.688V134.748H147.305V122.688H149.384ZM160.326 125.786V134.748H158.322V125.786H160.326ZM158.189 123.433C158.189 123.13 158.289 122.878 158.487 122.68C158.692 122.475 158.973 122.373 159.332 122.373C159.686 122.373 159.965 122.475 160.169 122.68C160.373 122.878 160.475 123.13 160.475 123.433C160.475 123.731 160.373 123.98 160.169 124.179C159.965 124.378 159.686 124.477 159.332 124.477C158.973 124.477 158.692 124.378 158.487 124.179C158.289 123.98 158.189 123.731 158.189 123.433ZM167.541 132.321C167.541 132.122 167.491 131.943 167.392 131.783C167.292 131.617 167.102 131.468 166.82 131.335C166.544 131.203 166.136 131.081 165.594 130.971C165.119 130.866 164.683 130.742 164.286 130.598C163.894 130.449 163.557 130.27 163.275 130.06C162.993 129.85 162.775 129.602 162.621 129.314C162.466 129.027 162.389 128.696 162.389 128.32C162.389 127.956 162.469 127.611 162.629 127.285C162.789 126.959 163.018 126.672 163.316 126.424C163.615 126.175 163.976 125.979 164.402 125.835C164.832 125.692 165.313 125.62 165.843 125.62C166.594 125.62 167.237 125.747 167.773 126.001C168.314 126.25 168.728 126.589 169.015 127.02C169.302 127.445 169.446 127.926 169.446 128.461H167.45C167.45 128.224 167.389 128.003 167.268 127.799C167.152 127.589 166.975 127.42 166.737 127.293C166.5 127.161 166.202 127.094 165.843 127.094C165.5 127.094 165.216 127.15 164.99 127.26C164.769 127.365 164.603 127.503 164.493 127.674C164.388 127.845 164.335 128.033 164.335 128.238C164.335 128.387 164.363 128.522 164.418 128.643C164.479 128.759 164.578 128.867 164.716 128.966C164.854 129.06 165.042 129.149 165.28 129.232C165.523 129.314 165.826 129.394 166.191 129.472C166.875 129.615 167.464 129.8 167.955 130.027C168.452 130.248 168.833 130.535 169.098 130.888C169.363 131.236 169.496 131.678 169.496 132.214C169.496 132.611 169.41 132.976 169.239 133.307C169.073 133.633 168.83 133.917 168.51 134.16C168.19 134.398 167.806 134.583 167.359 134.715C166.917 134.848 166.42 134.914 165.868 134.914C165.056 134.914 164.368 134.77 163.805 134.483C163.242 134.19 162.814 133.818 162.521 133.365C162.234 132.907 162.091 132.432 162.091 131.94H164.021C164.043 132.31 164.145 132.606 164.327 132.826C164.515 133.042 164.747 133.199 165.023 133.299C165.304 133.392 165.594 133.439 165.893 133.439C166.251 133.439 166.552 133.392 166.795 133.299C167.038 133.199 167.223 133.067 167.35 132.901C167.477 132.73 167.541 132.537 167.541 132.321ZM175.352 125.786V127.244H170.299V125.786H175.352ZM171.757 123.591H173.753V132.271C173.753 132.548 173.792 132.76 173.869 132.909C173.952 133.053 174.065 133.15 174.209 133.199C174.352 133.249 174.521 133.274 174.714 133.274C174.852 133.274 174.985 133.265 175.112 133.249C175.239 133.232 175.341 133.216 175.418 133.199L175.427 134.723C175.261 134.773 175.068 134.817 174.847 134.856C174.631 134.895 174.383 134.914 174.101 134.914C173.643 134.914 173.237 134.834 172.884 134.674C172.53 134.508 172.254 134.24 172.055 133.87C171.856 133.5 171.757 133.009 171.757 132.396V123.591ZM181.945 132.951V128.677C181.945 128.356 181.887 128.08 181.771 127.848C181.656 127.616 181.479 127.437 181.241 127.31C181.009 127.183 180.717 127.119 180.363 127.119C180.038 127.119 179.756 127.175 179.518 127.285C179.281 127.395 179.096 127.545 178.963 127.732C178.831 127.92 178.765 128.133 178.765 128.37H176.777C176.777 128.017 176.862 127.674 177.033 127.343C177.205 127.012 177.453 126.716 177.779 126.457C178.105 126.197 178.494 125.993 178.947 125.844C179.4 125.695 179.908 125.62 180.471 125.62C181.145 125.62 181.741 125.733 182.26 125.96C182.785 126.186 183.196 126.528 183.494 126.987C183.798 127.44 183.95 128.008 183.95 128.693V132.677C183.95 133.086 183.978 133.453 184.033 133.779C184.094 134.099 184.179 134.378 184.29 134.616V134.748H182.244C182.15 134.533 182.075 134.259 182.02 133.928C181.97 133.591 181.945 133.265 181.945 132.951ZM182.235 129.298L182.252 130.532H180.819C180.449 130.532 180.123 130.568 179.841 130.64C179.56 130.706 179.325 130.805 179.137 130.938C178.95 131.07 178.809 131.231 178.715 131.418C178.621 131.606 178.574 131.819 178.574 132.056C178.574 132.294 178.629 132.512 178.74 132.71C178.85 132.904 179.01 133.056 179.22 133.166C179.436 133.277 179.695 133.332 179.999 133.332C180.408 133.332 180.764 133.249 181.067 133.083C181.377 132.912 181.62 132.705 181.796 132.462C181.973 132.214 182.067 131.979 182.078 131.758L182.724 132.644C182.658 132.871 182.545 133.114 182.384 133.373C182.224 133.633 182.014 133.881 181.755 134.119C181.501 134.351 181.194 134.541 180.835 134.69C180.482 134.839 180.073 134.914 179.61 134.914C179.024 134.914 178.502 134.798 178.044 134.566C177.586 134.328 177.227 134.011 176.967 133.613C176.708 133.21 176.578 132.755 176.578 132.247C176.578 131.772 176.666 131.352 176.843 130.988C177.025 130.618 177.29 130.308 177.638 130.06C177.992 129.811 178.422 129.624 178.93 129.497C179.438 129.364 180.018 129.298 180.67 129.298H182.235ZM188.017 127.699V134.748H186.021V125.786H187.901L188.017 127.699ZM187.661 129.936L187.015 129.927C187.02 129.292 187.109 128.71 187.28 128.18C187.457 127.649 187.7 127.194 188.009 126.813C188.324 126.432 188.699 126.139 189.135 125.935C189.572 125.725 190.057 125.62 190.593 125.62C191.024 125.62 191.413 125.681 191.761 125.802C192.114 125.918 192.415 126.109 192.664 126.374C192.918 126.639 193.111 126.984 193.244 127.409C193.376 127.829 193.443 128.345 193.443 128.958V134.748H191.438V128.95C191.438 128.519 191.374 128.18 191.247 127.931C191.126 127.677 190.947 127.498 190.709 127.393C190.477 127.282 190.187 127.227 189.839 127.227C189.497 127.227 189.19 127.299 188.92 127.442C188.649 127.586 188.42 127.782 188.232 128.03C188.05 128.279 187.909 128.566 187.81 128.892C187.711 129.218 187.661 129.566 187.661 129.936ZM199.141 133.323C199.467 133.323 199.76 133.26 200.019 133.133C200.284 133 200.497 132.818 200.657 132.586C200.823 132.354 200.914 132.086 200.931 131.783H202.811C202.8 132.363 202.629 132.89 202.297 133.365C201.966 133.84 201.527 134.218 200.98 134.5C200.434 134.776 199.829 134.914 199.166 134.914C198.481 134.914 197.885 134.798 197.377 134.566C196.869 134.328 196.447 134.003 196.11 133.589C195.773 133.174 195.519 132.697 195.348 132.156C195.182 131.614 195.099 131.035 195.099 130.416V130.126C195.099 129.508 195.182 128.928 195.348 128.387C195.519 127.84 195.773 127.36 196.11 126.945C196.447 126.531 196.869 126.208 197.377 125.976C197.885 125.739 198.479 125.62 199.158 125.62C199.876 125.62 200.505 125.764 201.047 126.051C201.588 126.332 202.013 126.727 202.322 127.235C202.637 127.738 202.8 128.323 202.811 128.991H200.931C200.914 128.66 200.831 128.362 200.682 128.097C200.538 127.826 200.334 127.611 200.069 127.451C199.81 127.291 199.498 127.21 199.133 127.21C198.73 127.21 198.396 127.293 198.131 127.459C197.866 127.619 197.659 127.84 197.51 128.122C197.36 128.398 197.253 128.71 197.187 129.058C197.126 129.4 197.095 129.756 197.095 130.126V130.416C197.095 130.786 197.126 131.145 197.187 131.493C197.247 131.841 197.352 132.153 197.501 132.429C197.656 132.699 197.866 132.918 198.131 133.083C198.396 133.243 198.733 133.323 199.141 133.323ZM208.294 134.914C207.632 134.914 207.033 134.806 206.497 134.591C205.967 134.37 205.514 134.063 205.138 133.671C204.768 133.279 204.484 132.818 204.285 132.288C204.086 131.758 203.987 131.186 203.987 130.573V130.242C203.987 129.541 204.089 128.906 204.294 128.337C204.498 127.768 204.782 127.282 205.147 126.879C205.511 126.47 205.942 126.158 206.439 125.943C206.936 125.728 207.474 125.62 208.054 125.62C208.695 125.62 209.255 125.728 209.736 125.943C210.216 126.158 210.614 126.462 210.928 126.854C211.249 127.241 211.486 127.702 211.641 128.238C211.801 128.773 211.881 129.364 211.881 130.01V130.863H204.956V129.43H209.91V129.273C209.899 128.914 209.827 128.577 209.694 128.262C209.567 127.948 209.371 127.694 209.106 127.5C208.841 127.307 208.488 127.21 208.046 127.21C207.715 127.21 207.419 127.282 207.16 127.426C206.906 127.564 206.693 127.765 206.522 128.03C206.351 128.296 206.218 128.616 206.124 128.991C206.036 129.361 205.992 129.778 205.992 130.242V130.573C205.992 130.965 206.044 131.33 206.149 131.667C206.259 131.998 206.42 132.288 206.629 132.537C206.839 132.785 207.093 132.981 207.391 133.125C207.69 133.263 208.029 133.332 208.41 133.332C208.891 133.332 209.319 133.235 209.694 133.042C210.07 132.849 210.396 132.575 210.672 132.222L211.724 133.241C211.53 133.522 211.279 133.793 210.97 134.052C210.661 134.306 210.282 134.513 209.835 134.674C209.393 134.834 208.88 134.914 208.294 134.914Z" fill="black"/>
<path d="M326.562 121.79V122.452C326.562 123.363 326.444 124.181 326.206 124.904C325.969 125.627 325.629 126.243 325.187 126.751C324.751 127.259 324.227 127.649 323.614 127.919C323.001 128.184 322.321 128.317 321.576 128.317C320.836 128.317 320.16 128.184 319.547 127.919C318.939 127.649 318.412 127.259 317.964 126.751C317.517 126.243 317.169 125.627 316.921 124.904C316.678 124.181 316.556 123.363 316.556 122.452V121.79C316.556 120.878 316.678 120.064 316.921 119.346C317.164 118.623 317.506 118.007 317.948 117.499C318.395 116.985 318.923 116.596 319.53 116.331C320.143 116.06 320.819 115.925 321.559 115.925C322.305 115.925 322.984 116.06 323.597 116.331C324.21 116.596 324.737 116.985 325.179 117.499C325.621 118.007 325.961 118.623 326.198 119.346C326.441 120.064 326.562 120.878 326.562 121.79ZM324.483 122.452V121.773C324.483 121.099 324.417 120.506 324.285 119.992C324.158 119.473 323.967 119.04 323.713 118.692C323.465 118.338 323.158 118.073 322.794 117.896C322.429 117.714 322.018 117.623 321.559 117.623C321.101 117.623 320.692 117.714 320.333 117.896C319.975 118.073 319.668 118.338 319.414 118.692C319.166 119.04 318.975 119.473 318.842 119.992C318.71 120.506 318.644 121.099 318.644 121.773V122.452C318.644 123.126 318.71 123.722 318.842 124.241C318.975 124.76 319.168 125.199 319.422 125.558C319.682 125.912 319.991 126.18 320.35 126.362C320.709 126.539 321.118 126.627 321.576 126.627C322.04 126.627 322.451 126.539 322.81 126.362C323.169 126.18 323.473 125.912 323.721 125.558C323.97 125.199 324.158 124.76 324.285 124.241C324.417 123.722 324.483 123.126 324.483 122.452ZM328.451 115.428H330.447V126.238L330.257 128.151H328.451V115.428ZM336.295 123.587V123.761C336.295 124.424 336.221 125.034 336.072 125.592C335.928 126.144 335.707 126.624 335.409 127.033C335.116 127.441 334.752 127.759 334.316 127.985C333.885 128.206 333.385 128.317 332.816 128.317C332.259 128.317 331.773 128.212 331.358 128.002C330.944 127.792 330.596 127.494 330.315 127.107C330.039 126.721 329.815 126.26 329.644 125.724C329.473 125.188 329.351 124.598 329.279 123.951V123.396C329.351 122.745 329.473 122.154 329.644 121.624C329.815 121.088 330.039 120.627 330.315 120.241C330.596 119.849 330.942 119.548 331.35 119.338C331.764 119.128 332.248 119.023 332.8 119.023C333.374 119.023 333.879 119.133 334.316 119.354C334.757 119.575 335.125 119.89 335.417 120.299C335.71 120.702 335.928 121.182 336.072 121.74C336.221 122.298 336.295 122.913 336.295 123.587ZM334.299 123.761V123.587C334.299 123.184 334.266 122.806 334.2 122.452C334.133 122.093 334.023 121.779 333.868 121.508C333.719 121.237 333.515 121.025 333.255 120.87C333.001 120.71 332.684 120.63 332.303 120.63C331.949 120.63 331.646 120.691 331.392 120.812C331.138 120.934 330.925 121.099 330.754 121.309C330.583 121.519 330.447 121.762 330.348 122.038C330.254 122.314 330.191 122.612 330.157 122.933V124.432C330.207 124.846 330.312 125.227 330.472 125.575C330.638 125.917 330.87 126.193 331.168 126.403C331.466 126.608 331.85 126.71 332.319 126.71C332.689 126.71 333.001 126.635 333.255 126.486C333.509 126.337 333.711 126.13 333.86 125.865C334.015 125.594 334.125 125.28 334.191 124.921C334.263 124.562 334.299 124.175 334.299 123.761ZM338.084 119.189H340.089V128.93C340.089 129.543 339.984 130.059 339.774 130.479C339.564 130.904 339.255 131.224 338.846 131.439C338.438 131.66 337.938 131.771 337.347 131.771C337.17 131.771 336.988 131.757 336.801 131.729C336.607 131.707 336.425 131.674 336.254 131.63L336.262 130.073C336.378 130.095 336.502 130.111 336.635 130.122C336.762 130.139 336.883 130.147 336.999 130.147C337.237 130.147 337.436 130.106 337.596 130.023C337.756 129.94 337.877 129.81 337.96 129.634C338.043 129.457 338.084 129.222 338.084 128.93V119.189ZM337.91 116.836C337.91 116.532 338.013 116.281 338.217 116.082C338.421 115.878 338.7 115.776 339.054 115.776C339.412 115.776 339.691 115.878 339.89 116.082C340.094 116.281 340.197 116.532 340.197 116.836C340.197 117.134 340.094 117.383 339.89 117.582C339.691 117.78 339.412 117.88 339.054 117.88C338.7 117.88 338.421 117.78 338.217 117.582C338.013 117.383 337.91 117.134 337.91 116.836ZM346.194 128.317C345.531 128.317 344.932 128.209 344.396 127.994C343.866 127.773 343.413 127.466 343.038 127.074C342.668 126.682 342.383 126.221 342.185 125.691C341.986 125.161 341.886 124.589 341.886 123.976V123.645C341.886 122.944 341.989 122.309 342.193 121.74C342.397 121.171 342.682 120.685 343.046 120.282C343.411 119.873 343.841 119.561 344.338 119.346C344.835 119.131 345.374 119.023 345.953 119.023C346.594 119.023 347.155 119.131 347.635 119.346C348.115 119.561 348.513 119.865 348.828 120.257C349.148 120.644 349.385 121.105 349.54 121.64C349.7 122.176 349.78 122.767 349.78 123.413V124.266H342.856V122.833H347.809V122.676C347.798 122.317 347.726 121.98 347.594 121.665C347.467 121.351 347.271 121.097 347.005 120.903C346.74 120.71 346.387 120.613 345.945 120.613C345.614 120.613 345.318 120.685 345.059 120.829C344.805 120.967 344.592 121.168 344.421 121.433C344.25 121.698 344.117 122.019 344.023 122.394C343.935 122.764 343.891 123.181 343.891 123.645V123.976C343.891 124.368 343.943 124.733 344.048 125.07C344.159 125.401 344.319 125.691 344.529 125.939C344.739 126.188 344.993 126.384 345.291 126.528C345.589 126.666 345.929 126.735 346.31 126.735C346.79 126.735 347.218 126.638 347.594 126.445C347.969 126.251 348.295 125.978 348.571 125.625L349.623 126.644C349.43 126.925 349.178 127.196 348.869 127.455C348.56 127.709 348.182 127.916 347.734 128.077C347.293 128.237 346.779 128.317 346.194 128.317ZM354.999 126.726C355.325 126.726 355.617 126.663 355.877 126.536C356.142 126.403 356.354 126.221 356.515 125.989C356.68 125.757 356.771 125.489 356.788 125.186H358.668C358.657 125.765 358.486 126.293 358.155 126.768C357.823 127.243 357.384 127.621 356.838 127.903C356.291 128.179 355.686 128.317 355.024 128.317C354.339 128.317 353.742 128.201 353.234 127.969C352.726 127.731 352.304 127.406 351.967 126.991C351.63 126.577 351.376 126.1 351.205 125.558C351.039 125.017 350.957 124.437 350.957 123.819V123.529C350.957 122.911 351.039 122.331 351.205 121.79C351.376 121.243 351.63 120.762 351.967 120.348C352.304 119.934 352.726 119.611 353.234 119.379C353.742 119.142 354.336 119.023 355.015 119.023C355.733 119.023 356.363 119.167 356.904 119.454C357.445 119.735 357.87 120.13 358.18 120.638C358.494 121.141 358.657 121.726 358.668 122.394H356.788C356.771 122.063 356.689 121.765 356.539 121.5C356.396 121.229 356.192 121.014 355.926 120.854C355.667 120.693 355.355 120.613 354.99 120.613C354.587 120.613 354.253 120.696 353.988 120.862C353.723 121.022 353.516 121.243 353.367 121.524C353.218 121.801 353.11 122.113 353.044 122.46C352.983 122.803 352.953 123.159 352.953 123.529V123.819C352.953 124.189 352.983 124.548 353.044 124.896C353.105 125.244 353.21 125.556 353.359 125.832C353.513 126.102 353.723 126.32 353.988 126.486C354.253 126.646 354.59 126.726 354.999 126.726ZM364.309 119.189V120.646H359.256V119.189H364.309ZM360.714 116.994H362.71V125.674C362.71 125.95 362.749 126.163 362.826 126.312C362.909 126.456 363.022 126.552 363.166 126.602C363.31 126.652 363.478 126.677 363.671 126.677C363.809 126.677 363.942 126.668 364.069 126.652C364.196 126.635 364.298 126.619 364.375 126.602L364.384 128.126C364.218 128.176 364.025 128.22 363.804 128.259C363.588 128.297 363.34 128.317 363.058 128.317C362.6 128.317 362.194 128.237 361.841 128.077C361.487 127.911 361.211 127.643 361.012 127.273C360.814 126.903 360.714 126.412 360.714 125.799V116.994Z" fill="black"/>
<defs>
<filter id="filter0_d_1845_440" x="285.561" y="0" width="111.209" height="111.209" filterUnits="userSpaceOnUse" color-interpolation-filters="sRGB">
<feFlood flood-opacity="0" result="BackgroundImageFix"/>
<feColorMatrix in="SourceAlpha" type="matrix" values="0 0 0 0 0 0 0 0 0 0 0 0 0 0 0 0 0 0 127 0" result="hardAlpha"/>
<feOffset dy="3.76978"/>
<feGaussianBlur stdDeviation="1.88489"/>
<feComposite in2="hardAlpha" operator="out"/>
<feColorMatrix type="matrix" values="0 0 0 0 0 0 0 0 0 0 0 0 0 0 0 0 0 0 0.25 0"/>
<feBlend mode="normal" in2="BackgroundImageFix" result="effect1_dropShadow_1845_440"/>
<feBlend mode="normal" in="SourceGraphic" in2="effect1_dropShadow_1845_440" result="shape"/>
</filter>
<filter id="filter1_d_1845_440" x="45.2371" y="4.71222" width="15.0796" height="101.784" filterUnits="userSpaceOnUse" color-interpolation-filters="sRGB">
<feFlood flood-opacity="0" result="BackgroundImageFix"/>
<feColorMatrix in="SourceAlpha" type="matrix" values="0 0 0 0 0 0 0 0 0 0 0 0 0 0 0 0 0 0 127 0" result="hardAlpha"/>
<feOffset dy="3.76978"/>
<feGaussianBlur stdDeviation="1.88489"/>
<feComposite in2="hardAlpha" operator="out"/>
<feColorMatrix type="matrix" values="0 0 0 0 0 0 0 0 0 0 0 0 0 0 0 0 0 0 0.25 0"/>
<feBlend mode="normal" in2="BackgroundImageFix" result="effect1_dropShadow_1845_440"/>
<feBlend mode="normal" in="SourceGraphic" in2="effect1_dropShadow_1845_440" result="shape"/>
</filter>
<filter id="filter2_d_1845_440" x="52.7771" y="23.5612" width="26.3882" height="26.3885" filterUnits="userSpaceOnUse" color-interpolation-filters="sRGB">
<feFlood flood-opacity="0" result="BackgroundImageFix"/>
<feColorMatrix in="SourceAlpha" type="matrix" values="0 0 0 0 0 0 0 0 0 0 0 0 0 0 0 0 0 0 127 0" result="hardAlpha"/>
<feOffset dy="3.76978"/>
<feGaussianBlur stdDeviation="1.88489"/>
<feComposite in2="hardAlpha" operator="out"/>
<feColorMatrix type="matrix" values="0 0 0 0 0 0 0 0 0 0 0 0 0 0 0 0 0 0 0.25 0"/>
<feBlend mode="normal" in2="BackgroundImageFix" result="effect1_dropShadow_1845_440"/>
<feBlend mode="normal" in="SourceGraphic" in2="effect1_dropShadow_1845_440" result="shape"/>
</filter>
<filter id="filter3_d_1845_440" x="52.7771" y="61.259" width="26.3882" height="26.3885" filterUnits="userSpaceOnUse" color-interpolation-filters="sRGB">
<feFlood flood-opacity="0" result="BackgroundImageFix"/>
<feColorMatrix in="SourceAlpha" type="matrix" values="0 0 0 0 0 0 0 0 0 0 0 0 0 0 0 0 0 0 127 0" result="hardAlpha"/>
<feOffset dy="3.76978"/>
<feGaussianBlur stdDeviation="1.88489"/>
<feComposite in2="hardAlpha" operator="out"/>
<feColorMatrix type="matrix" values="0 0 0 0 0 0 0 0 0 0 0 0 0 0 0 0 0 0 0.25 0"/>
<feBlend mode="normal" in2="BackgroundImageFix" result="effect1_dropShadow_1845_440"/>
<feBlend mode="normal" in="SourceGraphic" in2="effect1_dropShadow_1845_440" result="shape"/>
</filter>
</defs>
</svg>
