<svg width="164" height="76" viewBox="0 0 164 76" fill="none" xmlns="http://www.w3.org/2000/svg">
<path d="M1.49975 13.369C1.6372 12.557 2.16738 11.6193 3.09028 10.556C4.01318 9.49267 5.15208 8.95133 6.50697 8.932C7.19424 8.932 7.8226 9.106 8.39205 9.454C8.9615 9.802 9.38367 10.237 9.65858 10.759C10.4833 9.541 11.4749 8.932 12.6335 8.932C13.36 8.932 13.9884 9.14467 14.5185 9.57C15.0487 9.99533 15.3236 10.5657 15.3433 11.281C15.3433 11.8417 15.2058 12.296 14.9309 12.644C14.656 12.992 14.3909 13.2047 14.1356 13.282C13.8804 13.3593 13.6545 13.398 13.4582 13.398C13.0851 13.398 12.7807 13.2917 12.5451 13.079C12.3095 12.8663 12.1916 12.586 12.1916 12.238C12.1916 11.3487 12.6826 10.7397 13.6644 10.411C13.4484 10.1597 13.0556 10.034 12.4862 10.034C12.2309 10.034 12.0444 10.0533 11.9266 10.092C11.1804 10.4013 10.6306 11.0393 10.2771 12.006C9.09895 16.2787 8.50986 18.7727 8.50986 19.488C8.50986 20.0293 8.66695 20.416 8.98113 20.648C9.29531 20.88 9.63895 20.996 10.012 20.996C10.7386 20.996 11.4553 20.677 12.1622 20.039C12.8691 19.401 13.3502 18.618 13.6055 17.69C13.6644 17.4967 13.7233 17.3903 13.7822 17.371C13.8411 17.3517 13.9982 17.3323 14.2534 17.313H14.3713C14.6658 17.313 14.8131 17.3903 14.8131 17.545C14.8131 17.5643 14.7934 17.6707 14.7542 17.864C14.44 18.966 13.8313 19.9423 12.928 20.793C12.0247 21.6437 10.9742 22.069 9.7764 22.069C8.40187 22.069 7.36115 21.46 6.65425 20.242C5.84916 21.4407 4.92626 22.04 3.88554 22.04H3.70882C2.74664 22.04 2.05938 21.7887 1.64702 21.286C1.23466 20.7833 1.01866 20.2517 0.999023 19.691C0.999023 19.0723 1.18557 18.5697 1.55865 18.183C1.93174 17.7963 2.37356 17.603 2.8841 17.603C3.72845 17.603 4.15063 18.009 4.15063 18.821C4.15063 19.2077 4.03281 19.546 3.79718 19.836C3.56155 20.126 3.33573 20.3193 3.11973 20.416C2.90373 20.5127 2.7761 20.561 2.73683 20.561L2.64846 20.59C2.64846 20.6093 2.70737 20.648 2.82519 20.706C2.94301 20.764 3.1001 20.8317 3.29646 20.909C3.49282 20.9863 3.67936 21.0153 3.85609 20.996C4.56299 20.996 5.17171 20.561 5.68225 19.691C5.85898 19.3817 6.0848 18.7243 6.3597 17.719C6.63461 16.7137 6.90952 15.6697 7.18442 14.587C7.45933 13.5043 7.61642 12.8663 7.65569 12.673C7.75387 12.151 7.80296 11.774 7.80296 11.542C7.80296 11.0007 7.65569 10.614 7.36115 10.382C7.06661 10.15 6.73279 10.034 6.3597 10.034C5.57425 10.034 4.8379 10.3433 4.15063 10.962C3.46336 11.5807 2.98228 12.3733 2.70737 13.34C2.6681 13.514 2.61901 13.6107 2.5601 13.63C2.50119 13.6493 2.3441 13.6687 2.08883 13.688H1.67647C1.55865 13.572 1.49975 13.4657 1.49975 13.369Z" fill="black"/>
<path d="M26.6484 11.687C26.6484 11.4357 26.7859 11.2423 27.0608 11.107H45.8232C46.1177 11.2617 46.265 11.455 46.265 11.687C46.265 11.8997 46.1275 12.0833 45.8526 12.238L36.4862 12.267H27.1197C26.8055 12.1703 26.6484 11.977 26.6484 11.687ZM26.6484 17.313C26.6484 17.023 26.8055 16.8297 27.1197 16.733H45.8526C46.1275 16.9263 46.265 17.1197 46.265 17.313C46.265 17.5643 46.1177 17.7577 45.8232 17.893H27.0608C26.7859 17.7577 26.6484 17.5643 26.6484 17.313Z" fill="black"/>
<path d="M56.7148 13.427C56.7345 13.369 56.7541 13.2917 56.7738 13.195C56.7934 13.0983 56.8425 12.8857 56.921 12.557C56.9996 12.2283 57.0977 11.9287 57.2156 11.658C57.3334 11.3873 57.4807 11.0683 57.6574 10.701C57.8341 10.3337 58.0305 10.0437 58.2465 9.831C58.4625 9.61833 58.7177 9.40567 59.0123 9.193C59.3068 8.98034 59.6308 8.89333 59.9843 8.932C60.5537 8.932 61.0544 9.048 61.4864 9.28C61.9184 9.512 62.2228 9.72467 62.3995 9.918C62.5762 10.1113 62.6842 10.3047 62.7235 10.498C62.7628 10.614 62.7922 10.672 62.8119 10.672C62.8315 10.672 62.9101 10.6043 63.0475 10.469C63.9901 9.46367 65.0799 8.961 66.3169 8.961H66.4053C67.3478 8.961 68.0547 9.35734 68.526 10.15C68.6831 10.5173 68.7616 10.875 68.7616 11.223C68.7616 11.803 68.634 12.267 68.3787 12.615C68.1235 12.963 67.8682 13.1853 67.6129 13.282C67.3577 13.3787 67.1122 13.4173 66.8766 13.398C66.4838 13.398 66.1697 13.2917 65.934 13.079C65.6984 12.8663 65.5806 12.586 65.5806 12.238C65.5806 11.31 66.1304 10.6913 67.23 10.382C66.798 10.1307 66.4446 10.005 66.1697 10.005C65.07 10.005 64.0588 10.7203 63.1359 12.151C62.9395 12.4603 62.7922 12.7793 62.6941 13.108C62.5959 13.4367 62.2621 14.7223 61.6926 16.965C61.025 19.6717 60.6421 21.112 60.5439 21.286C60.2886 21.808 59.8665 22.069 59.2774 22.069C59.0221 22.069 58.8159 22.011 58.6588 21.895C58.5017 21.779 58.3937 21.663 58.3348 21.547C58.2759 21.431 58.2563 21.3343 58.2759 21.257C58.2759 21.0057 58.6686 19.343 59.4541 16.269C60.2395 13.195 60.6323 11.484 60.6323 11.136C60.6323 10.382 60.377 10.005 59.8665 10.005C59.4541 10.005 59.1006 10.2757 58.8061 10.817C58.5116 11.3583 58.2759 11.948 58.0992 12.586C57.9225 13.224 57.8145 13.572 57.7752 13.63C57.7359 13.6687 57.5788 13.688 57.3039 13.688H56.8916C56.7738 13.572 56.7148 13.485 56.7148 13.427Z" fill="black"/>
<path d="M78.2227 14.5C78.2227 14.036 78.3896 13.63 78.7234 13.282C79.0572 12.934 79.4794 12.76 79.9899 12.76C80.4612 12.76 80.8735 12.9147 81.227 13.224C81.5804 13.5333 81.767 13.949 81.7866 14.471C81.7866 14.9543 81.6197 15.37 81.2859 15.718C80.9521 16.066 80.5299 16.24 80.0194 16.24C79.5088 16.24 79.0866 16.0757 78.7528 15.747C78.419 15.4183 78.2423 15.0027 78.2227 14.5Z" fill="black"/>
<path d="M101.556 12.905C101.556 12.905 101.35 12.905 100.937 12.905C100.525 12.905 100.171 12.76 99.8769 12.47C99.5824 12.18 99.4253 11.8127 99.4057 11.368C99.4057 10.9233 99.5529 10.556 99.8475 10.266C99.9457 10.1693 99.9947 10.1113 99.9947 10.092C99.9947 10.0727 99.8966 10.0533 99.7002 10.034C99.1897 9.95666 98.7086 9.91799 98.2569 9.91799C97.2948 9.91799 96.5093 10.2273 95.9006 10.846C94.9777 11.7547 94.5162 13.2723 94.5162 15.399C94.5162 16.9843 94.8206 18.2313 95.4293 19.14C96.2344 20.3193 97.3144 20.909 98.6693 20.909C99.4744 20.909 100.122 20.6577 100.613 20.155C101.104 19.6523 101.458 19.053 101.674 18.357C101.713 18.2023 101.762 18.1057 101.821 18.067C101.88 18.0283 102.037 18.009 102.292 18.009H102.705C102.822 18.125 102.881 18.212 102.881 18.27C102.881 18.3473 102.842 18.502 102.763 18.734C102.685 18.966 102.528 19.285 102.292 19.691C102.057 20.097 101.772 20.4643 101.438 20.793C101.104 21.1217 100.633 21.4213 100.024 21.692C99.4155 21.9627 98.738 22.0883 97.9919 22.069C96.3031 22.069 94.8304 21.4503 93.5737 20.213C92.317 18.9757 91.6788 17.4193 91.6592 15.544C91.6592 13.5333 92.2974 11.8997 93.5737 10.643C94.8501 9.38632 96.3326 8.75799 98.0213 8.75799C99.71 8.75799 100.888 9.01899 101.556 9.54099C102.223 10.063 102.557 10.6817 102.557 11.397C102.557 11.8417 102.39 12.1993 102.057 12.47L101.556 12.905Z" fill="black"/>
<path d="M104.561 15.544C104.561 13.7073 105.199 12.122 106.475 10.788C107.751 9.45401 109.293 8.77734 111.099 8.75801C112.867 8.75801 114.388 9.41534 115.665 10.73C116.941 12.0447 117.589 13.6397 117.609 15.515C117.609 17.3517 116.98 18.8983 115.724 20.155C114.467 21.4117 112.926 22.04 111.099 22.04C109.195 22.04 107.634 21.3923 106.416 20.097C105.199 18.8017 104.58 17.284 104.561 15.544ZM111.099 20.88C113.495 20.88 114.693 19.3043 114.693 16.153V15.225V14.5C114.693 14.0747 114.683 13.7073 114.663 13.398C114.644 13.0887 114.575 12.7213 114.457 12.296C114.339 11.8707 114.182 11.5227 113.986 11.252C113.79 10.9813 113.485 10.7107 113.073 10.44C112.66 10.1693 112.179 9.97601 111.63 9.86001C111.531 9.84068 111.374 9.83101 111.158 9.83101C110.569 9.83101 110.01 9.94701 109.479 10.179C108.635 10.6043 108.085 11.194 107.83 11.948C107.575 12.702 107.447 13.5913 107.447 14.616V15.196C107.447 17.052 107.634 18.357 108.007 19.111C108.635 20.2903 109.666 20.88 111.099 20.88Z" fill="black"/>
<path d="M127.152 12.586C127.152 11.8127 126.887 11.1457 126.356 10.585C125.826 10.0243 125.06 9.744 124.059 9.744C123.352 9.744 122.743 9.86967 122.233 10.121C121.644 10.4883 121.349 10.991 121.349 11.629C121.329 11.7257 121.329 11.8513 121.349 12.006C121.369 12.1607 121.526 12.3927 121.82 12.702C122.115 13.0113 122.537 13.253 123.087 13.427C123.44 13.5237 123.872 13.6107 124.383 13.688C124.893 13.7653 125.325 13.8523 125.679 13.949C126.032 14.0457 126.347 14.1713 126.621 14.326C126.955 14.4807 127.279 14.674 127.593 14.906C127.908 15.138 128.222 15.5343 128.536 16.095C128.85 16.6557 129.017 17.255 129.037 17.893C129.037 19.0917 128.664 20.0777 127.917 20.851C127.171 21.6243 125.964 22.0207 124.295 22.04H124.059C123.038 22.04 122.095 21.692 121.231 20.996L120.996 21.199L120.731 21.46C120.613 21.576 120.495 21.6823 120.377 21.779L120.053 22.069H119.817H119.7C119.641 22.069 119.552 22.011 119.435 21.895V19.604V17.922C119.435 17.516 119.454 17.2743 119.493 17.197C119.533 17.1197 119.631 17.0713 119.788 17.052H120.053C120.289 17.052 120.446 17.0907 120.524 17.168C120.603 17.2453 120.652 17.3613 120.672 17.516C120.691 17.6707 120.76 17.9317 120.878 18.299C120.996 18.6663 121.182 19.0723 121.437 19.517C122.125 20.503 123.077 20.996 124.295 20.996C126.199 20.996 127.152 20.242 127.152 18.734C127.152 18.1733 126.975 17.719 126.621 17.371C126.229 16.907 125.414 16.559 124.177 16.327C122.94 16.095 122.125 15.8727 121.732 15.66C121.025 15.3313 120.465 14.8867 120.053 14.326C119.641 13.7653 119.435 13.166 119.435 12.528C119.435 11.774 119.601 11.136 119.935 10.614C120.269 10.092 120.691 9.70533 121.202 9.454C121.712 9.20267 122.203 9.02867 122.675 8.932C123.146 8.83533 123.578 8.787 123.971 8.787H124.295C125.08 8.787 125.767 8.932 126.356 9.222L126.798 9.454L127.063 9.251C127.26 9.077 127.476 8.91267 127.711 8.758H127.947H128.065C128.124 8.758 128.212 8.816 128.33 8.932V12.76L128.153 12.934H127.328C127.211 12.818 127.152 12.702 127.152 12.586Z" fill="black"/>
<path d="M132.837 14.5C132.837 13.166 132.935 11.8997 133.131 10.701C133.328 9.50233 133.554 8.468 133.809 7.598C134.064 6.728 134.427 5.87733 134.899 5.046C135.37 4.21467 135.743 3.567 136.018 3.103C136.293 2.639 136.705 2.13633 137.255 1.595C137.805 1.05367 138.129 0.725 138.227 0.609001C138.325 0.493 138.571 0.290001 138.963 0H139.346H139.464C139.739 0 139.876 0.0869999 139.876 0.261002C139.876 0.319 139.71 0.522001 139.376 0.870001C139.042 1.218 138.639 1.73033 138.168 2.407C137.697 3.08367 137.216 3.915 136.725 4.901C136.234 5.887 135.822 7.221 135.488 8.903C135.154 10.585 134.987 12.4507 134.987 14.5C134.987 16.5493 135.154 18.4053 135.488 20.068C135.822 21.7307 136.224 23.0743 136.695 24.099C137.167 25.1237 137.648 25.955 138.139 26.593C138.63 27.231 139.042 27.7433 139.376 28.13C139.71 28.5167 139.876 28.7197 139.876 28.739C139.876 28.913 139.729 29 139.435 29H139.346H138.963L138.139 28.304C136.293 26.6607 134.948 24.6113 134.103 22.156C133.259 19.7007 132.837 17.1487 132.837 14.5Z" fill="black"/>
<path d="M142.557 15.95C142.557 13.978 142.94 11.8997 143.705 9.71501C144.471 7.53034 145.512 5.64534 146.828 4.06001C148.143 2.47468 149.508 1.56601 150.922 1.33401C150.941 1.33401 151.02 1.33401 151.157 1.33401C151.295 1.33401 151.413 1.32434 151.511 1.30501C152.571 1.38234 153.396 1.85601 153.985 2.72601C154.751 3.88601 155.134 5.44234 155.134 7.39501C155.134 9.61834 154.692 11.8803 153.808 14.181C152.925 16.4817 151.795 18.3667 150.421 19.836C149.046 21.3053 147.731 22.04 146.474 22.04H146.268C145.561 22.04 144.952 21.8467 144.442 21.46C143.931 21.0733 143.548 20.561 143.293 19.923C143.038 19.285 142.851 18.6373 142.733 17.98C142.616 17.3227 142.557 16.646 142.557 15.95ZM152.807 5.33601C152.807 3.36401 152.286 2.37801 151.246 2.37801C150.539 2.37801 149.851 2.81301 149.184 3.68301C148.516 4.55301 147.966 5.53901 147.534 6.64101C147.102 7.74301 146.769 8.70968 146.533 9.54101C146.297 10.3723 146.17 10.8557 146.15 10.991C147.112 11.0103 148.065 11.02 149.007 11.02L151.864 10.991C151.884 10.9717 151.962 10.6527 152.1 10.034C152.237 9.41534 152.394 8.64201 152.571 7.71401C152.748 6.78601 152.826 5.99334 152.807 5.33601ZM144.854 17.922C144.854 19.9713 145.374 20.996 146.415 20.996C146.71 20.996 147.024 20.8993 147.358 20.706C147.692 20.5127 148.094 20.1453 148.565 19.604C149.037 19.0627 149.508 18.2217 149.979 17.081C150.45 15.9403 150.922 14.529 151.393 12.847L151.54 12.354H145.797C145.797 12.412 145.708 12.7793 145.532 13.456C145.355 14.1327 145.198 14.8867 145.06 15.718C144.923 16.5493 144.854 17.284 144.854 17.922Z" fill="black"/>
<path d="M157.107 0.0290012L157.225 0C157.323 0 157.421 0 157.52 0H157.873L158.698 0.696001C160.544 2.33933 161.889 4.38867 162.733 6.844C163.577 9.29933 164 11.8513 164 14.5C164 15.8147 163.901 17.081 163.705 18.299C163.509 19.517 163.283 20.5513 163.028 21.402C162.772 22.2527 162.409 23.1033 161.938 23.954C161.466 24.8047 161.093 25.4523 160.818 25.897C160.544 26.3417 160.141 26.8347 159.611 27.376C159.081 27.9173 158.766 28.2363 158.668 28.333C158.57 28.4297 158.344 28.6133 157.991 28.884C157.932 28.942 157.893 28.9807 157.873 29H157.52C157.363 29 157.255 29 157.196 29C157.137 29 157.088 28.971 157.048 28.913C157.009 28.855 156.98 28.768 156.96 28.652C156.98 28.6327 157.088 28.507 157.284 28.275C160.328 25.1623 161.849 20.5707 161.849 14.5C161.849 8.42933 160.328 3.83767 157.284 0.725C157.088 0.493 156.98 0.367334 156.96 0.348001C156.96 0.193335 157.009 0.0869999 157.107 0.0290012Z" fill="black"/>
<path d="M0 59.353C0 59.0637 0.152165 58.5677 0.456495 57.865C0.760825 57.1623 1.24775 56.4287 1.91728 55.664C2.58681 54.8993 3.33749 54.5273 4.16932 54.548C5.00116 54.548 5.67068 54.7857 6.1779 55.261C6.68512 55.7363 6.94887 56.3977 6.96916 57.245C6.92858 57.6377 6.89815 57.8547 6.87786 57.896C6.87786 57.958 6.71555 58.4333 6.39093 59.322C6.06631 60.2107 5.73155 61.213 5.38664 62.329C5.04173 63.445 4.87942 64.3337 4.89971 64.995C4.89971 65.8837 5.04173 66.5037 5.32578 66.855C5.60982 67.2063 6.03588 67.3923 6.60396 67.413C7.0706 67.413 7.50681 67.2993 7.91258 67.072C8.31835 66.8447 8.63283 66.607 8.856 66.359C9.07918 66.111 9.35308 65.77 9.6777 65.336C9.6777 65.3153 9.72842 65.1087 9.82986 64.716C9.9313 64.3233 10.0733 63.7137 10.2559 62.887C10.4385 62.0603 10.6313 61.2957 10.8341 60.593C11.6051 57.493 12.0312 55.8707 12.1123 55.726C12.3761 55.168 12.8123 54.889 13.421 54.889C13.6847 54.889 13.8977 54.9613 14.06 55.106C14.2224 55.2507 14.3339 55.3747 14.3948 55.478C14.4557 55.5813 14.476 55.6743 14.4557 55.757C14.4557 56.0257 13.9586 58.1957 12.9645 62.267C11.9703 66.3383 11.4022 68.5703 11.2602 68.963C10.6921 70.6783 9.70813 72.0423 8.30821 73.055C6.90829 74.0677 5.50837 74.5843 4.10846 74.605C3.19547 74.605 2.39406 74.3777 1.70425 73.923C1.01443 73.4683 0.669526 72.7863 0.669526 71.877C0.669526 71.4223 0.740536 71.04 0.882557 70.73C1.02458 70.42 1.21732 70.1927 1.46078 70.048C1.70425 69.9033 1.90713 69.8 2.06944 69.738C2.23175 69.676 2.40421 69.645 2.58681 69.645C3.47951 69.645 3.92586 70.079 3.92586 70.947C3.92586 71.3603 3.80413 71.722 3.56066 72.032C3.3172 72.342 3.08388 72.5487 2.8607 72.652C2.63753 72.7553 2.50565 72.807 2.46507 72.807L2.37377 72.838C2.41435 72.9413 2.60709 73.0653 2.952 73.21C3.29691 73.3547 3.64182 73.427 3.98672 73.427H4.23019C4.57509 73.427 4.83885 73.4063 5.02145 73.365C5.69097 73.179 6.30978 72.7863 6.87786 72.187C7.44594 71.5877 7.88215 70.947 8.18648 70.265C8.49081 69.583 8.72413 69.0043 8.88644 68.529C9.04875 68.0537 9.1299 67.7437 9.1299 67.599L8.9473 67.723C8.82557 67.8057 8.63283 67.9193 8.36908 68.064C8.10532 68.2087 7.84157 68.3327 7.57782 68.436C7.17204 68.5393 6.77642 68.591 6.39093 68.591C5.45765 68.591 4.63596 68.3637 3.92586 67.909C3.21575 67.4543 2.74911 66.7207 2.52594 65.708C2.50565 65.5633 2.49551 65.243 2.49551 64.747C2.49551 63.569 2.85056 62.0293 3.56066 60.128C4.27076 58.2267 4.62582 57.0177 4.62582 56.501C4.62582 56.4803 4.62582 56.4597 4.62582 56.439C4.62582 56.253 4.62582 56.129 4.62582 56.067C4.62582 56.005 4.58524 55.9327 4.50408 55.85C4.42293 55.7673 4.31134 55.726 4.16932 55.726H4.04759C3.58095 55.726 3.15489 55.9223 2.7694 56.315C2.38392 56.7077 2.07959 57.1313 1.85641 57.586C1.63324 58.0407 1.46078 58.4747 1.33905 58.888C1.21732 59.3013 1.13617 59.5287 1.09559 59.57C1.05501 59.6113 0.892701 59.632 0.60866 59.632H0.182598C0.060866 59.508 0 59.415 0 59.353Z" fill="black"/>
<path d="M24.4316 57.493C24.4316 57.2243 24.5737 57.0177 24.8577 56.873H44.2435C44.5479 57.0383 44.7 57.245 44.7 57.493C44.7 57.7203 44.558 57.9167 44.274 58.082L34.5963 58.113H24.9186C24.5939 58.0097 24.4316 57.803 24.4316 57.493ZM24.4316 63.507C24.4316 63.197 24.5939 62.9903 24.9186 62.887H44.274C44.558 63.0937 44.7 63.3003 44.7 63.507C44.7 63.7757 44.5479 63.9823 44.2435 64.127H24.8577C24.5737 63.9823 24.4316 63.7757 24.4316 63.507Z" fill="black"/>
<path d="M55.498 59.353C55.5183 59.291 55.5386 59.2083 55.5589 59.105C55.5792 59.0017 55.6299 58.7743 55.7111 58.423C55.7922 58.0717 55.8937 57.7513 56.0154 57.462C56.1371 57.1727 56.2893 56.8317 56.4719 56.439C56.6545 56.0463 56.8574 55.7363 57.0806 55.509C57.3037 55.2817 57.5675 55.0543 57.8718 54.827C58.1762 54.5997 58.5109 54.5067 58.8761 54.548C59.4645 54.548 59.9818 54.672 60.4282 54.92C60.8745 55.168 61.189 55.3953 61.3716 55.602C61.5542 55.8087 61.6658 56.0153 61.7064 56.222C61.747 56.346 61.7774 56.408 61.7977 56.408C61.818 56.408 61.8991 56.3357 62.0411 56.191C63.015 55.1163 64.141 54.579 65.4192 54.579H65.5105C66.4844 54.579 67.2148 55.0027 67.7017 55.85C67.864 56.2427 67.9451 56.625 67.9451 56.997C67.9451 57.617 67.8133 58.113 67.5495 58.485C67.2858 58.857 67.022 59.0947 66.7583 59.198C66.4945 59.3013 66.2409 59.3427 65.9974 59.322C65.5917 59.322 65.267 59.2083 65.0236 58.981C64.7801 58.7537 64.6584 58.454 64.6584 58.082C64.6584 57.09 65.2265 56.4287 66.3626 56.098C65.9163 55.8293 65.5511 55.695 65.267 55.695C64.1309 55.695 63.086 56.4597 62.1324 57.989C61.9296 58.3197 61.7774 58.6607 61.6759 59.012C61.5745 59.3633 61.2296 60.7377 60.6412 63.135C59.9514 66.0283 59.5558 67.568 59.4543 67.754C59.1906 68.312 58.7544 68.591 58.1457 68.591C57.882 68.591 57.6689 68.529 57.5066 68.405C57.3443 68.281 57.2327 68.157 57.1719 68.033C57.111 67.909 57.0907 67.8057 57.111 67.723C57.111 67.4543 57.5168 65.677 58.3283 62.391C59.1399 59.105 59.5456 57.276 59.5456 56.904C59.5456 56.098 59.2819 55.695 58.7544 55.695C58.3283 55.695 57.9631 55.9843 57.6588 56.563C57.3545 57.1417 57.111 57.772 56.9284 58.454C56.7458 59.136 56.6342 59.508 56.5936 59.57C56.5531 59.6113 56.3907 59.632 56.1067 59.632H55.6806C55.5589 59.508 55.498 59.415 55.498 59.353Z" fill="black"/>
<path d="M77.7207 60.5C77.7207 60.004 77.8932 59.57 78.2381 59.198C78.583 58.826 79.0192 58.64 79.5467 58.64C80.0336 58.64 80.4597 58.8053 80.8249 59.136C81.1901 59.4667 81.3828 59.911 81.4031 60.469C81.4031 60.9857 81.2306 61.43 80.8857 61.802C80.5408 62.174 80.1046 62.36 79.5771 62.36C79.0496 62.36 78.6134 62.1843 78.2685 61.833C77.9236 61.4817 77.741 61.0373 77.7207 60.5Z" fill="black"/>
<path d="M99.5467 58.454C99.5467 57.6273 99.2728 56.9143 98.725 56.315C98.1772 55.7157 97.3859 55.416 96.3512 55.416C95.6208 55.416 94.9919 55.5503 94.4644 55.819C93.8557 56.2117 93.5514 56.749 93.5514 57.431C93.5311 57.5343 93.5311 57.6687 93.5514 57.834C93.5717 57.9993 93.734 58.2473 94.0383 58.578C94.3426 58.9087 94.7789 59.167 95.3469 59.353C95.7121 59.4563 96.1585 59.5493 96.686 59.632C97.2135 59.7147 97.6598 59.8077 98.025 59.911C98.3902 60.0143 98.7149 60.1487 98.9989 60.314C99.3438 60.4793 99.6786 60.686 100.003 60.934C100.328 61.182 100.652 61.6057 100.977 62.205C101.302 62.8043 101.474 63.445 101.494 64.127C101.494 65.4083 101.109 66.4623 100.338 67.289C99.567 68.1157 98.3192 68.5393 96.5947 68.56H96.3512C95.2962 68.56 94.3224 68.188 93.4297 67.444L93.1862 67.661L92.9123 67.94C92.7906 68.064 92.6688 68.1777 92.5471 68.281L92.2123 68.591H91.9689H91.8471C91.7863 68.591 91.695 68.529 91.5732 68.405V65.956V64.158C91.5732 63.724 91.5935 63.4657 91.6341 63.383C91.6747 63.3003 91.7761 63.2487 91.9384 63.228H92.2123C92.4558 63.228 92.6181 63.2693 92.6993 63.352C92.7804 63.4347 92.8311 63.5587 92.8514 63.724C92.8717 63.8893 92.9427 64.1683 93.0645 64.561C93.1862 64.9537 93.3789 65.3877 93.6427 65.863C94.3528 66.917 95.3368 67.444 96.5947 67.444C98.5627 67.444 99.5467 66.638 99.5467 65.026C99.5467 64.4267 99.3641 63.941 98.9989 63.569C98.5931 63.073 97.7511 62.701 96.473 62.453C95.1948 62.205 94.3528 61.9673 93.947 61.74C93.2166 61.3887 92.6384 60.9133 92.2123 60.314C91.7863 59.7147 91.5732 59.074 91.5732 58.392C91.5732 57.586 91.7457 56.904 92.0906 56.346C92.4355 55.788 92.8717 55.3747 93.3992 55.106C93.9267 54.8373 94.4339 54.6513 94.9209 54.548C95.4078 54.4447 95.8542 54.393 96.2599 54.393H96.5947C97.4062 54.393 98.1163 54.548 98.725 54.858L99.1815 55.106L99.4554 54.889C99.6583 54.703 99.8815 54.5273 100.125 54.362H100.368H100.49C100.551 54.362 100.642 54.424 100.764 54.548V58.64L100.581 58.826H99.7293C99.6076 58.702 99.5467 58.578 99.5467 58.454Z" fill="black"/>
<path d="M104.659 49.371C104.659 48.7923 104.842 48.3377 105.207 48.007C105.572 47.6763 106.019 47.511 106.546 47.511C107.013 47.5523 107.418 47.728 107.763 48.038C108.108 48.348 108.281 48.7923 108.281 49.371C108.281 49.991 108.108 50.456 107.763 50.766C107.418 51.076 106.992 51.231 106.485 51.231C105.978 51.231 105.552 51.076 105.207 50.766C104.862 50.456 104.679 49.991 104.659 49.371ZM110.076 68.25C109.772 68.188 108.717 68.157 106.911 68.157C106.688 68.157 106.313 68.157 105.785 68.157C105.258 68.157 104.751 68.1777 104.264 68.219L103.594 68.25H103.351V66.824H103.838C104.406 66.824 104.903 66.793 105.329 66.731C105.511 66.6483 105.623 66.5347 105.663 66.39C105.704 66.2453 105.724 65.8113 105.724 65.088V61.895V59.167C105.724 58.0923 105.704 57.4103 105.663 57.121C105.623 56.8317 105.481 56.6353 105.237 56.532C104.953 56.3873 104.477 56.315 103.807 56.315H103.472V55.602C103.472 55.1267 103.493 54.889 103.533 54.889L103.838 54.858C104.04 54.8373 104.324 54.8167 104.69 54.796C105.055 54.7753 105.42 54.7547 105.785 54.734C106.13 54.7133 106.495 54.6927 106.881 54.672C107.266 54.6513 107.56 54.6203 107.763 54.579C107.966 54.5377 108.078 54.5273 108.098 54.548H108.189V66.328C108.291 66.5347 108.413 66.6587 108.555 66.7C108.697 66.7413 109.052 66.7827 109.62 66.824H110.32V68.25H110.076Z" fill="black"/>
<path d="M112.267 66.824H112.693C113.485 66.824 113.961 66.6793 114.124 66.39V66.142C114.124 65.956 114.124 65.7183 114.124 65.429C114.124 65.1397 114.124 64.8193 114.124 64.468C114.124 64.1167 114.134 63.7137 114.154 63.259C114.174 62.8043 114.174 62.3703 114.154 61.957C114.154 61.3163 114.154 60.6343 114.154 59.911C114.154 59.1877 114.144 58.578 114.124 58.082V57.369C114.063 56.9763 113.921 56.718 113.698 56.594C113.474 56.47 113.018 56.377 112.328 56.315H111.78V55.602C111.78 55.1267 111.801 54.889 111.841 54.889L112.145 54.858C112.348 54.8373 112.632 54.8167 112.998 54.796C113.363 54.7753 113.738 54.7547 114.124 54.734C114.469 54.7133 114.834 54.6927 115.219 54.672C115.605 54.6513 115.899 54.6203 116.102 54.579C116.305 54.5377 116.416 54.5273 116.437 54.548H116.528V55.788C116.528 56.5733 116.538 56.966 116.558 56.966C116.579 56.966 116.629 56.9143 116.71 56.811C116.792 56.7077 116.913 56.5527 117.076 56.346C117.238 56.1393 117.431 55.9533 117.654 55.788C117.877 55.6227 118.171 55.4263 118.536 55.199C118.902 54.9717 119.287 54.8063 119.693 54.703C120.099 54.5997 120.616 54.548 121.245 54.548C123.558 54.6307 124.846 55.7983 125.11 58.051C125.13 58.1957 125.14 59.632 125.14 62.36V65.026C125.14 65.8113 125.161 66.2763 125.201 66.421C125.242 66.5657 125.353 66.669 125.536 66.731C125.962 66.793 126.459 66.824 127.027 66.824H127.514V68.25H127.271L126.54 68.219C126.074 68.1983 125.566 68.188 125.019 68.188C124.471 68.188 124.085 68.1777 123.862 68.157C121.772 68.157 120.636 68.188 120.454 68.25H120.21V66.824H120.697C121.935 66.824 122.554 66.6587 122.554 66.328C122.574 66.2867 122.584 64.8607 122.584 62.05C122.564 59.26 122.543 57.7823 122.523 57.617C122.401 57.0383 122.199 56.6043 121.914 56.315C121.63 56.0257 121.387 55.85 121.184 55.788C120.981 55.726 120.717 55.7053 120.393 55.726C119.48 55.726 118.678 56.0773 117.989 56.78C117.441 57.338 117.096 57.9063 116.954 58.485C116.812 59.0637 116.731 59.9213 116.71 61.058V63.042V64.902C116.71 65.522 116.721 65.9353 116.741 66.142C116.761 66.3487 116.792 66.483 116.832 66.545C116.873 66.607 116.964 66.669 117.106 66.731C117.532 66.793 118.029 66.824 118.597 66.824H119.084V68.25H118.841L118.141 68.219C117.654 68.1983 117.136 68.188 116.589 68.188C116.041 68.188 115.655 68.1777 115.432 68.157C113.343 68.157 112.206 68.188 112.024 68.25H111.78V66.824H112.267Z" fill="black"/>
<path d="M130.801 60.5C130.801 59.074 130.902 57.7203 131.105 56.439C131.308 55.1577 131.541 54.052 131.805 53.122C132.069 52.192 132.444 51.2827 132.931 50.394C133.418 49.5053 133.804 48.813 134.088 48.317C134.372 47.821 134.798 47.2837 135.366 46.705C135.934 46.1263 136.269 45.775 136.37 45.651C136.471 45.527 136.725 45.31 137.131 45H137.526H137.648C137.932 45 138.074 45.093 138.074 45.279C138.074 45.341 137.902 45.558 137.557 45.93C137.212 46.302 136.796 46.8497 136.309 47.573C135.822 48.2963 135.325 49.185 134.818 50.239C134.311 51.293 133.885 52.719 133.54 54.517C133.195 56.315 133.022 58.3093 133.022 60.5C133.022 62.6907 133.195 64.6747 133.54 66.452C133.885 68.2293 134.301 69.6657 134.788 70.761C135.274 71.8563 135.772 72.745 136.279 73.427C136.786 74.109 137.212 74.6567 137.557 75.07C137.902 75.4833 138.074 75.7003 138.074 75.721C138.074 75.907 137.922 76 137.618 76H137.526H137.131L136.279 75.256C134.372 73.4993 132.982 71.3087 132.109 68.684C131.237 66.0593 130.801 63.3313 130.801 60.5Z" fill="black"/>
<path d="M140.843 62.05C140.843 59.942 141.238 57.7203 142.03 55.385C142.821 53.0496 143.896 51.0346 145.256 49.34C146.615 47.6453 148.025 46.674 149.486 46.426C149.506 46.426 149.587 46.426 149.729 46.426C149.871 46.426 149.993 46.4156 150.094 46.395C151.19 46.4776 152.042 46.984 152.651 47.914C153.442 49.154 153.838 50.8176 153.838 52.905C153.838 55.2816 153.381 57.6996 152.468 60.159C151.555 62.6183 150.389 64.6333 148.968 66.204C147.548 67.7746 146.189 68.56 144.89 68.56H144.677C143.947 68.56 143.318 68.3533 142.79 67.94C142.263 67.5266 141.867 66.979 141.604 66.297C141.34 65.615 141.147 64.9226 141.025 64.22C140.904 63.5173 140.843 62.794 140.843 62.05ZM151.433 50.704C151.433 48.596 150.896 47.542 149.821 47.542C149.09 47.542 148.38 48.007 147.69 48.937C147 49.867 146.432 50.921 145.986 52.099C145.54 53.277 145.195 54.3103 144.951 55.199C144.708 56.0876 144.576 56.6043 144.556 56.749C145.55 56.7696 146.534 56.78 147.508 56.78L150.46 56.749C150.48 56.7283 150.561 56.3873 150.703 55.726C150.845 55.0646 151.007 54.238 151.19 53.246C151.373 52.254 151.454 51.4066 151.433 50.704ZM143.217 64.158C143.217 66.3486 143.754 67.444 144.829 67.444C145.134 67.444 145.458 67.3406 145.803 67.134C146.148 66.9273 146.564 66.5346 147.051 65.956C147.538 65.3773 148.025 64.4783 148.512 63.259C148.999 62.0396 149.486 60.531 149.973 58.733L150.125 58.206H144.19C144.19 58.268 144.099 58.6606 143.917 59.384C143.734 60.1073 143.572 60.9133 143.43 61.802C143.288 62.6906 143.217 63.476 143.217 64.158Z" fill="black"/>
<path d="M155.879 45.031L156 45C156.102 45 156.203 45 156.305 45H156.67L157.522 45.744C159.429 47.5007 160.819 49.6913 161.691 52.316C162.564 54.9407 163 57.6687 163 60.5C163 61.9053 162.899 63.259 162.696 64.561C162.493 65.863 162.26 66.9687 161.996 67.878C161.732 68.7873 161.357 69.6967 160.87 70.606C160.383 71.5153 159.997 72.2077 159.713 72.683C159.429 73.1583 159.013 73.6853 158.466 74.264C157.918 74.8427 157.593 75.1837 157.492 75.287C157.39 75.3903 157.157 75.5867 156.792 75.876C156.731 75.938 156.69 75.9793 156.67 76H156.305C156.142 76 156.031 76 155.97 76C155.909 76 155.858 75.969 155.818 75.907C155.777 75.845 155.747 75.752 155.727 75.628C155.747 75.6073 155.858 75.473 156.061 75.225C159.206 71.8977 160.778 66.9893 160.778 60.5C160.778 54.0107 159.206 49.1023 156.061 45.775C155.858 45.527 155.747 45.3927 155.727 45.372C155.727 45.2067 155.777 45.093 155.879 45.031Z" fill="black"/>
</svg>
