<svg width="307" height="270" viewBox="0 0 307 270" fill="none" xmlns="http://www.w3.org/2000/svg">
<g filter="url(#filter0_d_1845_498)">
<circle cx="143.5" cy="128.5" r="51.5" fill="black"/>
</g>
<g filter="url(#filter1_d_1845_498)">
<circle cx="116" cy="24" r="24" fill="#5161F1"/>
</g>
<g filter="url(#filter2_d_1845_498)">
<circle cx="279" cy="84" r="24" fill="#5161F1"/>
</g>
<g filter="url(#filter3_d_1845_498)">
<circle cx="279" cy="204" r="24" fill="#5161F1"/>
</g>
<g filter="url(#filter4_d_1845_498)">
<circle cx="182" cy="238" r="24" fill="#5161F1"/>
</g>
<g filter="url(#filter5_d_1845_498)">
<circle cx="28" cy="220" r="24" fill="#5161F1"/>
</g>
<g filter="url(#filter6_d_1845_498)">
<circle cx="28" cy="77" r="24" fill="#5161F1"/>
</g>
<path d="M121.598 135V120.455H123.793V133.111H130.384V135H121.598ZM132.717 135V124.091H134.84V135H132.717ZM133.789 122.408C133.42 122.408 133.103 122.285 132.837 122.038C132.577 121.787 132.447 121.489 132.447 121.143C132.447 120.793 132.577 120.495 132.837 120.249C133.103 119.998 133.42 119.872 133.789 119.872C134.158 119.872 134.473 119.998 134.734 120.249C134.999 120.495 135.131 120.793 135.131 121.143C135.131 121.489 134.999 121.787 134.734 122.038C134.473 122.285 134.158 122.408 133.789 122.408ZM141.781 135.213C140.9 135.213 140.114 134.988 139.423 134.538C138.736 134.084 138.197 133.437 137.804 132.599C137.415 131.757 137.221 130.746 137.221 129.567C137.221 128.388 137.418 127.379 137.811 126.541C138.208 125.703 138.753 125.062 139.444 124.616C140.136 124.171 140.919 123.949 141.795 123.949C142.472 123.949 143.017 124.062 143.429 124.29C143.845 124.512 144.167 124.773 144.395 125.071C144.627 125.369 144.806 125.632 144.934 125.859H145.062V120.455H147.186V135H145.112V133.303H144.934C144.806 133.535 144.622 133.8 144.38 134.098C144.144 134.396 143.817 134.657 143.4 134.879C142.984 135.102 142.444 135.213 141.781 135.213ZM142.25 133.402C142.86 133.402 143.377 133.241 143.798 132.919C144.224 132.592 144.546 132.14 144.764 131.562C144.986 130.985 145.098 130.312 145.098 129.545C145.098 128.788 144.989 128.125 144.771 127.557C144.553 126.989 144.234 126.546 143.812 126.229C143.391 125.911 142.87 125.753 142.25 125.753C141.61 125.753 141.078 125.919 140.652 126.25C140.225 126.581 139.904 127.034 139.686 127.607C139.473 128.179 139.366 128.826 139.366 129.545C139.366 130.275 139.475 130.93 139.693 131.513C139.911 132.095 140.233 132.557 140.659 132.898C141.09 133.234 141.62 133.402 142.25 133.402ZM153.391 135.241C152.7 135.241 152.075 135.114 151.516 134.858C150.958 134.598 150.515 134.221 150.188 133.729C149.866 133.236 149.705 132.633 149.705 131.918C149.705 131.302 149.824 130.795 150.06 130.398C150.297 130 150.617 129.685 151.019 129.453C151.422 129.221 151.871 129.046 152.369 128.928C152.866 128.809 153.372 128.719 153.888 128.658C154.542 128.582 155.072 128.52 155.479 128.473C155.887 128.421 156.183 128.338 156.367 128.224C156.552 128.111 156.644 127.926 156.644 127.67V127.621C156.644 127 156.469 126.52 156.119 126.179C155.773 125.838 155.257 125.668 154.57 125.668C153.855 125.668 153.292 125.826 152.88 126.143C152.473 126.456 152.191 126.804 152.035 127.188L150.039 126.733C150.276 126.07 150.621 125.535 151.076 125.128C151.535 124.716 152.063 124.418 152.66 124.233C153.256 124.044 153.884 123.949 154.542 123.949C154.978 123.949 155.439 124.001 155.927 124.105C156.419 124.205 156.879 124.389 157.305 124.659C157.736 124.929 158.088 125.315 158.363 125.817C158.638 126.314 158.775 126.96 158.775 127.756V135H156.701V133.509H156.616C156.478 133.783 156.272 134.053 155.998 134.318C155.723 134.583 155.371 134.804 154.94 134.979C154.509 135.154 153.993 135.241 153.391 135.241ZM153.853 133.537C154.44 133.537 154.942 133.421 155.359 133.189C155.78 132.957 156.1 132.654 156.317 132.28C156.54 131.901 156.651 131.496 156.651 131.065V129.659C156.576 129.735 156.429 129.806 156.211 129.872C155.998 129.934 155.754 129.988 155.479 130.036C155.205 130.078 154.937 130.118 154.677 130.156C154.416 130.189 154.199 130.218 154.023 130.241C153.612 130.294 153.235 130.381 152.894 130.504C152.558 130.627 152.288 130.805 152.085 131.037C151.886 131.264 151.786 131.567 151.786 131.946C151.786 132.472 151.98 132.869 152.369 133.139C152.757 133.404 153.252 133.537 153.853 133.537ZM161.603 135V124.091H163.656V125.824H163.77C163.968 125.237 164.319 124.775 164.821 124.439C165.327 124.098 165.9 123.928 166.539 123.928C166.672 123.928 166.828 123.932 167.008 123.942C167.193 123.951 167.337 123.963 167.441 123.977V126.009C167.356 125.985 167.205 125.959 166.987 125.93C166.769 125.897 166.551 125.881 166.333 125.881C165.832 125.881 165.384 125.987 164.991 126.2C164.603 126.409 164.295 126.7 164.068 127.074C163.841 127.443 163.727 127.865 163.727 128.338V135H161.603Z" fill="white"/>
<path d="M51.0064 200.887C50.9439 201.436 51.3381 201.931 51.8868 201.994L60.829 203.012C61.3777 203.075 61.8732 202.681 61.9357 202.132C61.9982 201.583 61.6041 201.088 61.0554 201.025L53.1068 200.12L54.0123 192.171C54.0748 191.622 53.6807 191.127 53.1319 191.064C52.5832 191.002 52.0877 191.396 52.0252 191.945L51.0064 200.887ZM96.9936 166.113C97.0561 165.564 96.6619 165.069 96.1132 165.006L87.171 163.988C86.6223 163.925 86.1268 164.319 86.0643 164.868C86.0018 165.417 86.3959 165.912 86.9446 165.975L94.8932 166.88L93.9877 174.829C93.9252 175.378 94.3193 175.873 94.8681 175.936C95.4168 175.998 95.9123 175.604 95.9748 175.055L96.9936 166.113ZM52.6225 201.783L96.6225 166.783L95.3775 165.217L51.3775 200.217L52.6225 201.783Z" fill="#5CF28E"/>
<path d="M171.58 211.907C172.081 212.14 172.675 211.922 172.907 211.42L176.691 203.255C176.924 202.754 176.706 202.159 176.205 201.927C175.704 201.695 175.109 201.913 174.877 202.414L171.513 209.672L164.255 206.309C163.754 206.076 163.159 206.294 162.927 206.795C162.695 207.296 162.913 207.891 163.414 208.123L171.58 211.907ZM161.42 180.093C160.919 179.86 160.325 180.078 160.093 180.58L156.309 188.745C156.076 189.246 156.294 189.841 156.795 190.073C157.296 190.305 157.891 190.087 158.123 189.586L161.487 182.328L168.745 185.691C169.246 185.924 169.841 185.706 170.073 185.205C170.305 184.704 170.087 184.109 169.586 183.877L161.42 180.093ZM172.939 210.656L161.939 180.656L160.061 181.344L171.061 211.344L172.939 210.656Z" fill="#5CF28E"/>
<path d="M253.216 190.976C253.755 190.857 254.096 190.323 253.976 189.784L252.034 180.996C251.915 180.457 251.381 180.117 250.842 180.236C250.302 180.355 249.962 180.889 250.081 181.428L251.808 189.239L243.996 190.966C243.457 191.085 243.117 191.619 243.236 192.158C243.355 192.698 243.889 193.038 244.428 192.919L253.216 190.976ZM194.784 152.024C194.245 152.143 193.904 152.677 194.024 153.216L195.966 162.004C196.085 162.543 196.619 162.883 197.158 162.764C197.698 162.645 198.038 162.111 197.919 161.572L196.192 153.761L204.004 152.034C204.543 151.915 204.883 151.381 204.764 150.842C204.645 150.302 204.111 149.962 203.572 150.081L194.784 152.024ZM253.538 189.157L195.538 152.157L194.462 153.843L252.462 190.843L253.538 189.157Z" fill="#5CF28E"/>
<path d="M129.541 73.8882C130.031 74.142 130.634 73.95 130.888 73.4594L135.023 65.4655C135.277 64.9749 135.085 64.3716 134.594 64.1178C134.104 63.8641 133.5 64.0561 133.247 64.5466L129.571 71.6524L122.465 67.977C121.975 67.7232 121.372 67.9152 121.118 68.4058C120.864 68.8963 121.056 69.4997 121.547 69.7534L129.541 73.8882ZM123.459 50.1118C122.969 49.858 122.366 50.05 122.112 50.5406L117.977 58.5345C117.723 59.0251 117.915 59.6284 118.406 59.8822C118.896 60.1359 119.5 59.9439 119.753 59.4534L123.429 52.3476L130.535 56.023C131.025 56.2768 131.628 56.0848 131.882 55.5942C132.136 55.1037 131.944 54.5003 131.453 54.2466L123.459 50.1118ZM130.953 72.6968L123.953 50.6968L122.047 51.3032L129.047 73.3032L130.953 72.6968Z" fill="#5CF28E"/>
<path d="M92.3265 105.945C92.8485 105.765 93.1255 105.195 92.9452 104.673L90.0065 96.1668C89.8262 95.6448 89.2568 95.3678 88.7348 95.5481C88.2128 95.7284 87.9358 96.2978 88.1161 96.8198L90.7283 104.381L83.1668 106.993C82.6448 107.174 82.3678 107.743 82.5481 108.265C82.7284 108.787 83.2978 109.064 83.8198 108.884L92.3265 105.945ZM54.6735 86.0548C54.1515 86.2351 53.8745 86.8045 54.0548 87.3265L56.9935 95.8332C57.1738 96.3552 57.7432 96.6322 58.2652 96.4519C58.7872 96.2716 59.0642 95.7022 58.8839 95.1802L56.2717 87.6187L63.8332 85.0065C64.3552 84.8262 64.6322 84.2568 64.4519 83.7348C64.2716 83.2128 63.7022 82.9358 63.1802 83.1161L54.6735 86.0548ZM92.4375 104.101L55.4375 86.1008L54.5625 87.8992L91.5625 105.899L92.4375 104.101Z" fill="#5CF28E"/>
<path d="M251.874 92.4856C252.142 92.0029 251.968 91.3941 251.486 91.1258L243.618 86.7551C243.135 86.4868 242.527 86.6608 242.258 87.1436C241.99 87.6264 242.164 88.2352 242.647 88.5034L249.64 92.3885L245.755 99.3818C245.487 99.8646 245.661 100.473 246.144 100.742C246.626 101.01 247.235 100.836 247.503 100.353L251.874 92.4856ZM194.126 107.514C193.858 107.997 194.032 108.606 194.514 108.874L202.382 113.245C202.865 113.513 203.473 113.339 203.742 112.856C204.01 112.374 203.836 111.765 203.353 111.497L196.36 107.611L200.245 100.618C200.513 100.135 200.339 99.5266 199.856 99.2584C199.374 98.9902 198.765 99.1642 198.497 99.6469L194.126 107.514ZM250.725 91.0385L194.725 107.038L195.275 108.962L251.275 92.9615L250.725 91.0385Z" fill="#5CF28E"/>
<path d="M107.031 23.875V24.3047C107.031 24.8955 106.954 25.4255 106.8 25.8945C106.646 26.3636 106.426 26.7629 106.139 27.0923C105.856 27.4217 105.516 27.6742 105.119 27.8496C104.721 28.0215 104.281 28.1074 103.797 28.1074C103.318 28.1074 102.879 28.0215 102.481 27.8496C102.088 27.6742 101.746 27.4217 101.456 27.0923C101.166 26.7629 100.94 26.3636 100.779 25.8945C100.621 25.4255 100.542 24.8955 100.542 24.3047V23.875C100.542 23.2842 100.621 22.756 100.779 22.2905C100.936 21.8215 101.158 21.4222 101.445 21.0928C101.735 20.7598 102.077 20.5073 102.471 20.3354C102.868 20.16 103.307 20.0723 103.787 20.0723C104.27 20.0723 104.71 20.16 105.108 20.3354C105.505 20.5073 105.847 20.7598 106.134 21.0928C106.42 21.4222 106.64 21.8215 106.794 22.2905C106.952 22.756 107.031 23.2842 107.031 23.875ZM105.683 24.3047V23.8643C105.683 23.4274 105.64 23.0425 105.554 22.7095C105.471 22.3729 105.348 22.0918 105.183 21.8662C105.022 21.637 104.823 21.4652 104.587 21.3506C104.351 21.2324 104.084 21.1733 103.787 21.1733C103.489 21.1733 103.224 21.2324 102.992 21.3506C102.759 21.4652 102.56 21.637 102.396 21.8662C102.234 22.0918 102.111 22.3729 102.025 22.7095C101.939 23.0425 101.896 23.4274 101.896 23.8643V24.3047C101.896 24.7415 101.939 25.1283 102.025 25.4648C102.111 25.8014 102.236 26.0861 102.401 26.3188C102.569 26.548 102.77 26.7217 103.002 26.8398C103.235 26.9544 103.5 27.0117 103.797 27.0117C104.098 27.0117 104.365 26.9544 104.598 26.8398C104.83 26.7217 105.027 26.548 105.188 26.3188C105.35 26.0861 105.471 25.8014 105.554 25.4648C105.64 25.1283 105.683 24.7415 105.683 24.3047ZM108.255 19.75H109.55V26.7593L109.426 28H108.255V19.75ZM113.342 25.0405V25.1533C113.342 25.583 113.293 25.9787 113.197 26.3403C113.104 26.6984 112.96 27.0099 112.767 27.2749C112.577 27.5399 112.341 27.7458 112.058 27.8926C111.779 28.0358 111.455 28.1074 111.086 28.1074C110.724 28.1074 110.409 28.0394 110.141 27.9033C109.872 27.7673 109.646 27.5739 109.464 27.3232C109.285 27.0726 109.14 26.7736 109.029 26.4263C108.918 26.0789 108.839 25.6958 108.792 25.2769V24.917C108.839 24.4945 108.918 24.1113 109.029 23.7676C109.14 23.4202 109.285 23.1213 109.464 22.8706C109.646 22.6164 109.87 22.4212 110.135 22.2852C110.404 22.1491 110.717 22.0811 111.075 22.0811C111.448 22.0811 111.775 22.1527 112.058 22.2959C112.345 22.4391 112.583 22.6432 112.772 22.9082C112.962 23.1696 113.104 23.4811 113.197 23.8428C113.293 24.2044 113.342 24.6037 113.342 25.0405ZM112.047 25.1533V25.0405C112.047 24.7791 112.026 24.5339 111.983 24.3047C111.94 24.0719 111.868 23.8678 111.768 23.6924C111.671 23.5169 111.539 23.3791 111.371 23.2788C111.206 23.175 111 23.123 110.753 23.123C110.524 23.123 110.327 23.1624 110.162 23.2412C109.997 23.32 109.86 23.4274 109.749 23.5635C109.638 23.6995 109.55 23.8571 109.485 24.0361C109.424 24.2152 109.383 24.4085 109.362 24.6162V25.5884C109.394 25.8569 109.462 26.104 109.566 26.3296C109.673 26.5516 109.824 26.7306 110.017 26.8667C110.21 26.9992 110.459 27.0654 110.764 27.0654C111.004 27.0654 111.206 27.0171 111.371 26.9204C111.535 26.8237 111.666 26.6895 111.763 26.5176C111.863 26.3421 111.935 26.138 111.978 25.9053C112.024 25.6725 112.047 25.4219 112.047 25.1533ZM114.502 22.1885H115.802V28.5049C115.802 28.9023 115.734 29.2371 115.598 29.5093C115.462 29.785 115.261 29.9927 114.996 30.1323C114.731 30.2756 114.407 30.3472 114.024 30.3472C113.909 30.3472 113.791 30.3382 113.669 30.3203C113.544 30.306 113.426 30.2845 113.315 30.2559L113.32 29.2461C113.396 29.2604 113.476 29.2712 113.562 29.2783C113.644 29.2891 113.723 29.2944 113.798 29.2944C113.952 29.2944 114.081 29.2676 114.185 29.2139C114.289 29.1602 114.368 29.076 114.421 28.9614C114.475 28.8468 114.502 28.6947 114.502 28.5049V22.1885ZM114.389 20.6631C114.389 20.4661 114.455 20.3032 114.588 20.1743C114.72 20.0418 114.901 19.9756 115.13 19.9756C115.363 19.9756 115.544 20.0418 115.673 20.1743C115.805 20.3032 115.872 20.4661 115.872 20.6631C115.872 20.8564 115.805 21.0176 115.673 21.1465C115.544 21.2754 115.363 21.3398 115.13 21.3398C114.901 21.3398 114.72 21.2754 114.588 21.1465C114.455 21.0176 114.389 20.8564 114.389 20.6631ZM119.76 28.1074C119.331 28.1074 118.942 28.0376 118.595 27.8979C118.251 27.7547 117.957 27.556 117.714 27.3018C117.474 27.0475 117.29 26.7485 117.161 26.4048C117.032 26.061 116.967 25.6904 116.967 25.293V25.0781C116.967 24.6234 117.034 24.2116 117.166 23.8428C117.299 23.474 117.483 23.1589 117.719 22.8975C117.956 22.6325 118.235 22.4302 118.557 22.2905C118.879 22.1509 119.229 22.0811 119.604 22.0811C120.02 22.0811 120.383 22.1509 120.695 22.2905C121.006 22.4302 121.264 22.6271 121.468 22.8813C121.676 23.132 121.83 23.431 121.93 23.7783C122.034 24.1257 122.086 24.5088 122.086 24.9277V25.481H117.596V24.5518H120.808V24.4497C120.8 24.217 120.754 23.9985 120.668 23.7944C120.586 23.5903 120.458 23.4256 120.287 23.3003C120.115 23.175 119.886 23.1123 119.599 23.1123C119.384 23.1123 119.193 23.1589 119.024 23.252C118.86 23.3415 118.722 23.4722 118.611 23.644C118.5 23.8159 118.414 24.0236 118.353 24.2671C118.296 24.507 118.267 24.7773 118.267 25.0781V25.293C118.267 25.5472 118.301 25.7835 118.369 26.002C118.441 26.2168 118.545 26.4048 118.681 26.5659C118.817 26.7271 118.981 26.8542 119.175 26.9473C119.368 27.0368 119.588 27.0815 119.835 27.0815C120.147 27.0815 120.424 27.0189 120.668 26.8936C120.911 26.7682 121.123 26.591 121.302 26.3618L121.984 27.0225C121.859 27.2051 121.696 27.3805 121.495 27.5488C121.295 27.7135 121.049 27.8478 120.759 27.9517C120.473 28.0555 120.14 28.1074 119.76 28.1074ZM125.47 27.0762C125.681 27.0762 125.871 27.035 126.039 26.9526C126.211 26.8667 126.349 26.7485 126.453 26.5981C126.56 26.4478 126.619 26.2741 126.63 26.0771H127.849C127.842 26.4531 127.731 26.7951 127.516 27.103C127.301 27.411 127.017 27.6562 126.662 27.8389C126.308 28.0179 125.916 28.1074 125.486 28.1074C125.042 28.1074 124.655 28.0322 124.326 27.8818C123.996 27.7279 123.722 27.5166 123.504 27.248C123.285 26.9795 123.121 26.6698 123.01 26.3188C122.902 25.9679 122.849 25.592 122.849 25.1909V25.0029C122.849 24.6019 122.902 24.2259 123.01 23.875C123.121 23.5205 123.285 23.209 123.504 22.9404C123.722 22.6719 123.996 22.4624 124.326 22.312C124.655 22.158 125.04 22.0811 125.48 22.0811C125.946 22.0811 126.354 22.1742 126.705 22.3604C127.056 22.543 127.332 22.799 127.532 23.1284C127.736 23.4543 127.842 23.8338 127.849 24.2671H126.63C126.619 24.0522 126.565 23.8589 126.469 23.687C126.376 23.5116 126.243 23.3719 126.071 23.2681C125.903 23.1642 125.701 23.1123 125.464 23.1123C125.203 23.1123 124.986 23.166 124.814 23.2734C124.643 23.3773 124.508 23.5205 124.412 23.7031C124.315 23.8822 124.245 24.0845 124.202 24.3101C124.163 24.5321 124.143 24.763 124.143 25.0029V25.1909C124.143 25.4308 124.163 25.6636 124.202 25.8892C124.242 26.1147 124.31 26.3171 124.406 26.4961C124.507 26.6715 124.643 26.813 124.814 26.9204C124.986 27.0243 125.205 27.0762 125.47 27.0762ZM131.507 22.1885V23.1338H128.23V22.1885H131.507ZM129.176 20.7651H130.47V26.394C130.47 26.5731 130.495 26.7109 130.545 26.8076C130.599 26.9007 130.673 26.9634 130.766 26.9956C130.859 27.0278 130.968 27.0439 131.093 27.0439C131.183 27.0439 131.269 27.0386 131.351 27.0278C131.433 27.0171 131.5 27.0063 131.55 26.9956L131.555 27.9839C131.448 28.0161 131.322 28.0448 131.179 28.0698C131.04 28.0949 130.878 28.1074 130.696 28.1074C130.399 28.1074 130.135 28.0555 129.906 27.9517C129.677 27.8442 129.498 27.6706 129.369 27.4307C129.24 27.1908 129.176 26.8721 129.176 26.4746V20.7651Z" fill="black"/>
<path d="M19.0308 76.875V77.3047C19.0308 77.8955 18.9538 78.4255 18.7998 78.8945C18.6458 79.3636 18.4256 79.7629 18.1392 80.0923C17.8563 80.4217 17.5161 80.6742 17.1187 80.8496C16.7212 81.0215 16.2808 81.1074 15.7974 81.1074C15.3175 81.1074 14.8789 81.0215 14.4814 80.8496C14.0876 80.6742 13.7456 80.4217 13.4556 80.0923C13.1655 79.7629 12.9399 79.3636 12.7788 78.8945C12.6213 78.4255 12.5425 77.8955 12.5425 77.3047V76.875C12.5425 76.2842 12.6213 75.756 12.7788 75.2905C12.9364 74.8215 13.1584 74.4222 13.4448 74.0928C13.7349 73.7598 14.0768 73.5073 14.4707 73.3354C14.8682 73.16 15.3068 73.0723 15.7866 73.0723C16.27 73.0723 16.7104 73.16 17.1079 73.3354C17.5054 73.5073 17.8473 73.7598 18.1338 74.0928C18.4202 74.4222 18.6405 74.8215 18.7944 75.2905C18.952 75.756 19.0308 76.2842 19.0308 76.875ZM17.6826 77.3047V76.8643C17.6826 76.4274 17.6396 76.0425 17.5537 75.7095C17.4714 75.3729 17.3478 75.0918 17.1831 74.8662C17.022 74.637 16.8232 74.4652 16.5869 74.3506C16.3506 74.2324 16.0838 74.1733 15.7866 74.1733C15.4894 74.1733 15.2244 74.2324 14.9917 74.3506C14.759 74.4652 14.5602 74.637 14.3955 74.8662C14.2344 75.0918 14.1108 75.3729 14.0249 75.7095C13.939 76.0425 13.896 76.4274 13.896 76.8643V77.3047C13.896 77.7415 13.939 78.1283 14.0249 78.4648C14.1108 78.8014 14.2362 79.0861 14.4009 79.3188C14.5692 79.548 14.7697 79.7217 15.0024 79.8398C15.2352 79.9544 15.5002 80.0117 15.7974 80.0117C16.0981 80.0117 16.3649 79.9544 16.5977 79.8398C16.8304 79.7217 17.0273 79.548 17.1885 79.3188C17.3496 79.0861 17.4714 78.8014 17.5537 78.4648C17.6396 78.1283 17.6826 77.7415 17.6826 77.3047ZM20.2554 72.75H21.5498V79.7593L21.4263 81H20.2554V72.75ZM25.3418 78.0405V78.1533C25.3418 78.583 25.2935 78.9787 25.1968 79.3403C25.1037 79.6984 24.9604 80.0099 24.7671 80.2749C24.5773 80.5399 24.341 80.7458 24.0581 80.8926C23.7788 81.0358 23.4548 81.1074 23.0859 81.1074C22.7243 81.1074 22.4092 81.0394 22.1406 80.9033C21.8721 80.7673 21.6465 80.5739 21.4639 80.3232C21.2848 80.0726 21.1398 79.7736 21.0288 79.4263C20.9178 79.0789 20.839 78.6958 20.7925 78.2769V77.917C20.839 77.4945 20.9178 77.1113 21.0288 76.7676C21.1398 76.4202 21.2848 76.1213 21.4639 75.8706C21.6465 75.6164 21.8703 75.4212 22.1353 75.2852C22.4038 75.1491 22.7171 75.0811 23.0752 75.0811C23.4476 75.0811 23.7752 75.1527 24.0581 75.2959C24.3446 75.4391 24.5827 75.6432 24.7725 75.9082C24.9622 76.1696 25.1037 76.4811 25.1968 76.8428C25.2935 77.2044 25.3418 77.6037 25.3418 78.0405ZM24.0474 78.1533V78.0405C24.0474 77.7791 24.0259 77.5339 23.9829 77.3047C23.9399 77.0719 23.8683 76.8678 23.7681 76.6924C23.6714 76.5169 23.5389 76.3791 23.3706 76.2788C23.2059 76.175 23 76.123 22.7529 76.123C22.5238 76.123 22.3268 76.1624 22.1621 76.2412C21.9974 76.32 21.8595 76.4274 21.7485 76.5635C21.6375 76.6995 21.5498 76.8571 21.4854 77.0361C21.4245 77.2152 21.3833 77.4085 21.3618 77.6162V78.5884C21.394 78.8569 21.4621 79.104 21.5659 79.3296C21.6733 79.5516 21.8237 79.7306 22.0171 79.8667C22.2104 79.9992 22.4593 80.0654 22.7637 80.0654C23.0036 80.0654 23.2059 80.0171 23.3706 79.9204C23.5353 79.8237 23.666 79.6895 23.7627 79.5176C23.863 79.3421 23.9346 79.138 23.9775 78.9053C24.0241 78.6725 24.0474 78.4219 24.0474 78.1533ZM26.502 75.1885H27.8018V81.5049C27.8018 81.9023 27.7337 82.2371 27.5977 82.5093C27.4616 82.785 27.2611 82.9927 26.9961 83.1323C26.7311 83.2756 26.4071 83.3472 26.0239 83.3472C25.9093 83.3472 25.7912 83.3382 25.6694 83.3203C25.5441 83.306 25.4259 83.2845 25.3149 83.2559L25.3203 82.2461C25.3955 82.2604 25.4761 82.2712 25.562 82.2783C25.6444 82.2891 25.7231 82.2944 25.7983 82.2944C25.9523 82.2944 26.0812 82.2676 26.1851 82.2139C26.2889 82.1602 26.3677 82.076 26.4214 81.9614C26.4751 81.8468 26.502 81.6947 26.502 81.5049V75.1885ZM26.3892 73.6631C26.3892 73.4661 26.4554 73.3032 26.5879 73.1743C26.7204 73.0418 26.9012 72.9756 27.1304 72.9756C27.3631 72.9756 27.5439 73.0418 27.6729 73.1743C27.8053 73.3032 27.8716 73.4661 27.8716 73.6631C27.8716 73.8564 27.8053 74.0176 27.6729 74.1465C27.5439 74.2754 27.3631 74.3398 27.1304 74.3398C26.9012 74.3398 26.7204 74.2754 26.5879 74.1465C26.4554 74.0176 26.3892 73.8564 26.3892 73.6631ZM31.7603 81.1074C31.3306 81.1074 30.9421 81.0376 30.5947 80.8979C30.251 80.7547 29.9574 80.556 29.7139 80.3018C29.474 80.0475 29.2896 79.7485 29.1606 79.4048C29.0317 79.061 28.9673 78.6904 28.9673 78.293V78.0781C28.9673 77.6234 29.0335 77.2116 29.166 76.8428C29.2985 76.474 29.4829 76.1589 29.7192 75.8975C29.9556 75.6325 30.2349 75.4302 30.5571 75.2905C30.8794 75.1509 31.2285 75.0811 31.6045 75.0811C32.0199 75.0811 32.3833 75.1509 32.6948 75.2905C33.0063 75.4302 33.2642 75.6271 33.4683 75.8813C33.6759 76.132 33.8299 76.431 33.9302 76.7783C34.034 77.1257 34.0859 77.5088 34.0859 77.9277V78.481H29.5957V77.5518H32.8076V77.4497C32.8005 77.217 32.7539 76.9985 32.668 76.7944C32.5856 76.5903 32.4585 76.4256 32.2866 76.3003C32.1147 76.175 31.8856 76.1123 31.5991 76.1123C31.3843 76.1123 31.1927 76.1589 31.0244 76.252C30.8597 76.3415 30.7218 76.4722 30.6108 76.644C30.4998 76.8159 30.4139 77.0236 30.353 77.2671C30.2957 77.507 30.2671 77.7773 30.2671 78.0781V78.293C30.2671 78.5472 30.3011 78.7835 30.3691 79.002C30.4408 79.2168 30.5446 79.4048 30.6807 79.5659C30.8167 79.7271 30.9814 79.8542 31.1748 79.9473C31.3682 80.0368 31.5884 80.0815 31.8354 80.0815C32.147 80.0815 32.4245 80.0189 32.668 79.8936C32.9115 79.7682 33.1227 79.591 33.3018 79.3618L33.9839 80.0225C33.8586 80.2051 33.6956 80.3805 33.4951 80.5488C33.2946 80.7135 33.0493 80.8478 32.7593 80.9517C32.4728 81.0555 32.1398 81.1074 31.7603 81.1074ZM37.4697 80.0762C37.681 80.0762 37.8708 80.035 38.0391 79.9526C38.2109 79.8667 38.3488 79.7485 38.4526 79.5981C38.5601 79.4478 38.6191 79.2741 38.6299 79.0771H39.8491C39.842 79.4531 39.731 79.7951 39.5161 80.103C39.3013 80.411 39.0166 80.6562 38.6621 80.8389C38.3076 81.0179 37.9155 81.1074 37.4858 81.1074C37.0418 81.1074 36.6551 81.0322 36.3257 80.8818C35.9963 80.7279 35.7223 80.5166 35.5039 80.248C35.2855 79.9795 35.1208 79.6698 35.0098 79.3188C34.9023 78.9679 34.8486 78.592 34.8486 78.1909V78.0029C34.8486 77.6019 34.9023 77.2259 35.0098 76.875C35.1208 76.5205 35.2855 76.209 35.5039 75.9404C35.7223 75.6719 35.9963 75.4624 36.3257 75.312C36.6551 75.158 37.04 75.0811 37.4805 75.0811C37.946 75.0811 38.3542 75.1742 38.7051 75.3604C39.056 75.543 39.3317 75.799 39.5322 76.1284C39.7363 76.4543 39.842 76.8338 39.8491 77.2671H38.6299C38.6191 77.0522 38.5654 76.8589 38.4688 76.687C38.3757 76.5116 38.2432 76.3719 38.0713 76.2681C37.903 76.1642 37.7007 76.1123 37.4644 76.1123C37.203 76.1123 36.9863 76.166 36.8145 76.2734C36.6426 76.3773 36.5083 76.5205 36.4116 76.7031C36.3149 76.8822 36.2451 77.0845 36.2021 77.3101C36.1628 77.5321 36.1431 77.763 36.1431 78.0029V78.1909C36.1431 78.4308 36.1628 78.6636 36.2021 78.8892C36.2415 79.1147 36.3096 79.3171 36.4062 79.4961C36.5065 79.6715 36.6426 79.813 36.8145 79.9204C36.9863 80.0243 37.2048 80.0762 37.4697 80.0762ZM43.5068 75.1885V76.1338H40.2305V75.1885H43.5068ZM41.1758 73.7651H42.4702V79.394C42.4702 79.5731 42.4953 79.7109 42.5454 79.8076C42.5991 79.9007 42.6725 79.9634 42.7656 79.9956C42.8587 80.0278 42.9679 80.0439 43.0933 80.0439C43.1828 80.0439 43.2687 80.0386 43.3511 80.0278C43.4334 80.0171 43.4997 80.0063 43.5498 79.9956L43.5552 80.9839C43.4478 81.0161 43.3224 81.0448 43.1792 81.0698C43.0396 81.0949 42.8784 81.1074 42.6958 81.1074C42.3986 81.1074 42.1354 81.0555 41.9062 80.9517C41.6771 80.8442 41.498 80.6706 41.3691 80.4307C41.2402 80.1908 41.1758 79.8721 41.1758 79.4746V73.7651Z" fill="black"/>
<path d="M173.031 237.875V238.305C173.031 238.896 172.954 239.425 172.8 239.895C172.646 240.364 172.426 240.763 172.139 241.092C171.856 241.422 171.516 241.674 171.119 241.85C170.721 242.021 170.281 242.107 169.797 242.107C169.318 242.107 168.879 242.021 168.481 241.85C168.088 241.674 167.746 241.422 167.456 241.092C167.166 240.763 166.94 240.364 166.779 239.895C166.621 239.425 166.542 238.896 166.542 238.305V237.875C166.542 237.284 166.621 236.756 166.779 236.291C166.936 235.821 167.158 235.422 167.445 235.093C167.735 234.76 168.077 234.507 168.471 234.335C168.868 234.16 169.307 234.072 169.787 234.072C170.27 234.072 170.71 234.16 171.108 234.335C171.505 234.507 171.847 234.76 172.134 235.093C172.42 235.422 172.64 235.821 172.794 236.291C172.952 236.756 173.031 237.284 173.031 237.875ZM171.683 238.305V237.864C171.683 237.427 171.64 237.042 171.554 236.709C171.471 236.373 171.348 236.092 171.183 235.866C171.022 235.637 170.823 235.465 170.587 235.351C170.351 235.232 170.084 235.173 169.787 235.173C169.489 235.173 169.224 235.232 168.992 235.351C168.759 235.465 168.56 235.637 168.396 235.866C168.234 236.092 168.111 236.373 168.025 236.709C167.939 237.042 167.896 237.427 167.896 237.864V238.305C167.896 238.742 167.939 239.128 168.025 239.465C168.111 239.801 168.236 240.086 168.401 240.319C168.569 240.548 168.77 240.722 169.002 240.84C169.235 240.954 169.5 241.012 169.797 241.012C170.098 241.012 170.365 240.954 170.598 240.84C170.83 240.722 171.027 240.548 171.188 240.319C171.35 240.086 171.471 239.801 171.554 239.465C171.64 239.128 171.683 238.742 171.683 238.305ZM174.255 233.75H175.55V240.759L175.426 242H174.255V233.75ZM179.342 239.041V239.153C179.342 239.583 179.293 239.979 179.197 240.34C179.104 240.698 178.96 241.01 178.767 241.275C178.577 241.54 178.341 241.746 178.058 241.893C177.779 242.036 177.455 242.107 177.086 242.107C176.724 242.107 176.409 242.039 176.141 241.903C175.872 241.767 175.646 241.574 175.464 241.323C175.285 241.073 175.14 240.774 175.029 240.426C174.918 240.079 174.839 239.696 174.792 239.277V238.917C174.839 238.494 174.918 238.111 175.029 237.768C175.14 237.42 175.285 237.121 175.464 236.871C175.646 236.616 175.87 236.421 176.135 236.285C176.404 236.149 176.717 236.081 177.075 236.081C177.448 236.081 177.775 236.153 178.058 236.296C178.345 236.439 178.583 236.643 178.772 236.908C178.962 237.17 179.104 237.481 179.197 237.843C179.293 238.204 179.342 238.604 179.342 239.041ZM178.047 239.153V239.041C178.047 238.779 178.026 238.534 177.983 238.305C177.94 238.072 177.868 237.868 177.768 237.692C177.671 237.517 177.539 237.379 177.371 237.279C177.206 237.175 177 237.123 176.753 237.123C176.524 237.123 176.327 237.162 176.162 237.241C175.997 237.32 175.86 237.427 175.749 237.563C175.638 237.7 175.55 237.857 175.485 238.036C175.424 238.215 175.383 238.409 175.362 238.616V239.588C175.394 239.857 175.462 240.104 175.566 240.33C175.673 240.552 175.824 240.731 176.017 240.867C176.21 240.999 176.459 241.065 176.764 241.065C177.004 241.065 177.206 241.017 177.371 240.92C177.535 240.824 177.666 240.689 177.763 240.518C177.863 240.342 177.935 240.138 177.978 239.905C178.024 239.673 178.047 239.422 178.047 239.153ZM180.502 236.188H181.802V242.505C181.802 242.902 181.734 243.237 181.598 243.509C181.462 243.785 181.261 243.993 180.996 244.132C180.731 244.276 180.407 244.347 180.024 244.347C179.909 244.347 179.791 244.338 179.669 244.32C179.544 244.306 179.426 244.285 179.315 244.256L179.32 243.246C179.396 243.26 179.476 243.271 179.562 243.278C179.644 243.289 179.723 243.294 179.798 243.294C179.952 243.294 180.081 243.268 180.185 243.214C180.289 243.16 180.368 243.076 180.421 242.961C180.475 242.847 180.502 242.695 180.502 242.505V236.188ZM180.389 234.663C180.389 234.466 180.455 234.303 180.588 234.174C180.72 234.042 180.901 233.976 181.13 233.976C181.363 233.976 181.544 234.042 181.673 234.174C181.805 234.303 181.872 234.466 181.872 234.663C181.872 234.856 181.805 235.018 181.673 235.146C181.544 235.275 181.363 235.34 181.13 235.34C180.901 235.34 180.72 235.275 180.588 235.146C180.455 235.018 180.389 234.856 180.389 234.663ZM185.76 242.107C185.331 242.107 184.942 242.038 184.595 241.898C184.251 241.755 183.957 241.556 183.714 241.302C183.474 241.048 183.29 240.749 183.161 240.405C183.032 240.061 182.967 239.69 182.967 239.293V239.078C182.967 238.623 183.034 238.212 183.166 237.843C183.299 237.474 183.483 237.159 183.719 236.897C183.956 236.632 184.235 236.43 184.557 236.291C184.879 236.151 185.229 236.081 185.604 236.081C186.02 236.081 186.383 236.151 186.695 236.291C187.006 236.43 187.264 236.627 187.468 236.881C187.676 237.132 187.83 237.431 187.93 237.778C188.034 238.126 188.086 238.509 188.086 238.928V239.481H183.596V238.552H186.808V238.45C186.8 238.217 186.754 237.999 186.668 237.794C186.586 237.59 186.458 237.426 186.287 237.3C186.115 237.175 185.886 237.112 185.599 237.112C185.384 237.112 185.193 237.159 185.024 237.252C184.86 237.341 184.722 237.472 184.611 237.644C184.5 237.816 184.414 238.024 184.353 238.267C184.296 238.507 184.267 238.777 184.267 239.078V239.293C184.267 239.547 184.301 239.784 184.369 240.002C184.441 240.217 184.545 240.405 184.681 240.566C184.817 240.727 184.981 240.854 185.175 240.947C185.368 241.037 185.588 241.082 185.835 241.082C186.147 241.082 186.424 241.019 186.668 240.894C186.911 240.768 187.123 240.591 187.302 240.362L187.984 241.022C187.859 241.205 187.696 241.381 187.495 241.549C187.295 241.714 187.049 241.848 186.759 241.952C186.473 242.056 186.14 242.107 185.76 242.107ZM191.47 241.076C191.681 241.076 191.871 241.035 192.039 240.953C192.211 240.867 192.349 240.749 192.453 240.598C192.56 240.448 192.619 240.274 192.63 240.077H193.849C193.842 240.453 193.731 240.795 193.516 241.103C193.301 241.411 193.017 241.656 192.662 241.839C192.308 242.018 191.916 242.107 191.486 242.107C191.042 242.107 190.655 242.032 190.326 241.882C189.996 241.728 189.722 241.517 189.504 241.248C189.285 240.979 189.121 240.67 189.01 240.319C188.902 239.968 188.849 239.592 188.849 239.191V239.003C188.849 238.602 188.902 238.226 189.01 237.875C189.121 237.521 189.285 237.209 189.504 236.94C189.722 236.672 189.996 236.462 190.326 236.312C190.655 236.158 191.04 236.081 191.48 236.081C191.946 236.081 192.354 236.174 192.705 236.36C193.056 236.543 193.332 236.799 193.532 237.128C193.736 237.454 193.842 237.834 193.849 238.267H192.63C192.619 238.052 192.565 237.859 192.469 237.687C192.376 237.512 192.243 237.372 192.071 237.268C191.903 237.164 191.701 237.112 191.464 237.112C191.203 237.112 190.986 237.166 190.814 237.273C190.643 237.377 190.508 237.521 190.412 237.703C190.315 237.882 190.245 238.084 190.202 238.31C190.163 238.532 190.143 238.763 190.143 239.003V239.191C190.143 239.431 190.163 239.664 190.202 239.889C190.242 240.115 190.31 240.317 190.406 240.496C190.507 240.672 190.643 240.813 190.814 240.92C190.986 241.024 191.205 241.076 191.47 241.076ZM197.507 236.188V237.134H194.23V236.188H197.507ZM195.176 234.765H196.47V240.394C196.47 240.573 196.495 240.711 196.545 240.808C196.599 240.901 196.673 240.963 196.766 240.996C196.859 241.028 196.968 241.044 197.093 241.044C197.183 241.044 197.269 241.039 197.351 241.028C197.433 241.017 197.5 241.006 197.55 240.996L197.555 241.984C197.448 242.016 197.322 242.045 197.179 242.07C197.04 242.095 196.878 242.107 196.696 242.107C196.399 242.107 196.135 242.056 195.906 241.952C195.677 241.844 195.498 241.671 195.369 241.431C195.24 241.191 195.176 240.872 195.176 240.475V234.765Z" fill="black"/>
<path d="M270.031 203.875V204.305C270.031 204.896 269.954 205.425 269.8 205.895C269.646 206.364 269.426 206.763 269.139 207.092C268.856 207.422 268.516 207.674 268.119 207.85C267.721 208.021 267.281 208.107 266.797 208.107C266.318 208.107 265.879 208.021 265.481 207.85C265.088 207.674 264.746 207.422 264.456 207.092C264.166 206.763 263.94 206.364 263.779 205.895C263.621 205.425 263.542 204.896 263.542 204.305V203.875C263.542 203.284 263.621 202.756 263.779 202.291C263.936 201.821 264.158 201.422 264.445 201.093C264.735 200.76 265.077 200.507 265.471 200.335C265.868 200.16 266.307 200.072 266.787 200.072C267.27 200.072 267.71 200.16 268.108 200.335C268.505 200.507 268.847 200.76 269.134 201.093C269.42 201.422 269.64 201.821 269.794 202.291C269.952 202.756 270.031 203.284 270.031 203.875ZM268.683 204.305V203.864C268.683 203.427 268.64 203.042 268.554 202.709C268.471 202.373 268.348 202.092 268.183 201.866C268.022 201.637 267.823 201.465 267.587 201.351C267.351 201.232 267.084 201.173 266.787 201.173C266.489 201.173 266.224 201.232 265.992 201.351C265.759 201.465 265.56 201.637 265.396 201.866C265.234 202.092 265.111 202.373 265.025 202.709C264.939 203.042 264.896 203.427 264.896 203.864V204.305C264.896 204.742 264.939 205.128 265.025 205.465C265.111 205.801 265.236 206.086 265.401 206.319C265.569 206.548 265.77 206.722 266.002 206.84C266.235 206.954 266.5 207.012 266.797 207.012C267.098 207.012 267.365 206.954 267.598 206.84C267.83 206.722 268.027 206.548 268.188 206.319C268.35 206.086 268.471 205.801 268.554 205.465C268.64 205.128 268.683 204.742 268.683 204.305ZM271.255 199.75H272.55V206.759L272.426 208H271.255V199.75ZM276.342 205.041V205.153C276.342 205.583 276.293 205.979 276.197 206.34C276.104 206.698 275.96 207.01 275.767 207.275C275.577 207.54 275.341 207.746 275.058 207.893C274.779 208.036 274.455 208.107 274.086 208.107C273.724 208.107 273.409 208.039 273.141 207.903C272.872 207.767 272.646 207.574 272.464 207.323C272.285 207.073 272.14 206.774 272.029 206.426C271.918 206.079 271.839 205.696 271.792 205.277V204.917C271.839 204.494 271.918 204.111 272.029 203.768C272.14 203.42 272.285 203.121 272.464 202.871C272.646 202.616 272.87 202.421 273.135 202.285C273.404 202.149 273.717 202.081 274.075 202.081C274.448 202.081 274.775 202.153 275.058 202.296C275.345 202.439 275.583 202.643 275.772 202.908C275.962 203.17 276.104 203.481 276.197 203.843C276.293 204.204 276.342 204.604 276.342 205.041ZM275.047 205.153V205.041C275.047 204.779 275.026 204.534 274.983 204.305C274.94 204.072 274.868 203.868 274.768 203.692C274.671 203.517 274.539 203.379 274.371 203.279C274.206 203.175 274 203.123 273.753 203.123C273.524 203.123 273.327 203.162 273.162 203.241C272.997 203.32 272.86 203.427 272.749 203.563C272.638 203.7 272.55 203.857 272.485 204.036C272.424 204.215 272.383 204.409 272.362 204.616V205.588C272.394 205.857 272.462 206.104 272.566 206.33C272.673 206.552 272.824 206.731 273.017 206.867C273.21 206.999 273.459 207.065 273.764 207.065C274.004 207.065 274.206 207.017 274.371 206.92C274.535 206.824 274.666 206.689 274.763 206.518C274.863 206.342 274.935 206.138 274.978 205.905C275.024 205.673 275.047 205.422 275.047 205.153ZM277.502 202.188H278.802V208.505C278.802 208.902 278.734 209.237 278.598 209.509C278.462 209.785 278.261 209.993 277.996 210.132C277.731 210.276 277.407 210.347 277.024 210.347C276.909 210.347 276.791 210.338 276.669 210.32C276.544 210.306 276.426 210.285 276.315 210.256L276.32 209.246C276.396 209.26 276.476 209.271 276.562 209.278C276.644 209.289 276.723 209.294 276.798 209.294C276.952 209.294 277.081 209.268 277.185 209.214C277.289 209.16 277.368 209.076 277.421 208.961C277.475 208.847 277.502 208.695 277.502 208.505V202.188ZM277.389 200.663C277.389 200.466 277.455 200.303 277.588 200.174C277.72 200.042 277.901 199.976 278.13 199.976C278.363 199.976 278.544 200.042 278.673 200.174C278.805 200.303 278.872 200.466 278.872 200.663C278.872 200.856 278.805 201.018 278.673 201.146C278.544 201.275 278.363 201.34 278.13 201.34C277.901 201.34 277.72 201.275 277.588 201.146C277.455 201.018 277.389 200.856 277.389 200.663ZM282.76 208.107C282.331 208.107 281.942 208.038 281.595 207.898C281.251 207.755 280.957 207.556 280.714 207.302C280.474 207.048 280.29 206.749 280.161 206.405C280.032 206.061 279.967 205.69 279.967 205.293V205.078C279.967 204.623 280.034 204.212 280.166 203.843C280.299 203.474 280.483 203.159 280.719 202.897C280.956 202.632 281.235 202.43 281.557 202.291C281.879 202.151 282.229 202.081 282.604 202.081C283.02 202.081 283.383 202.151 283.695 202.291C284.006 202.43 284.264 202.627 284.468 202.881C284.676 203.132 284.83 203.431 284.93 203.778C285.034 204.126 285.086 204.509 285.086 204.928V205.481H280.596V204.552H283.808V204.45C283.8 204.217 283.754 203.999 283.668 203.794C283.586 203.59 283.458 203.426 283.287 203.3C283.115 203.175 282.886 203.112 282.599 203.112C282.384 203.112 282.193 203.159 282.024 203.252C281.86 203.341 281.722 203.472 281.611 203.644C281.5 203.816 281.414 204.024 281.353 204.267C281.296 204.507 281.267 204.777 281.267 205.078V205.293C281.267 205.547 281.301 205.784 281.369 206.002C281.441 206.217 281.545 206.405 281.681 206.566C281.817 206.727 281.981 206.854 282.175 206.947C282.368 207.037 282.588 207.082 282.835 207.082C283.147 207.082 283.424 207.019 283.668 206.894C283.911 206.768 284.123 206.591 284.302 206.362L284.984 207.022C284.859 207.205 284.696 207.381 284.495 207.549C284.295 207.714 284.049 207.848 283.759 207.952C283.473 208.056 283.14 208.107 282.76 208.107ZM288.47 207.076C288.681 207.076 288.871 207.035 289.039 206.953C289.211 206.867 289.349 206.749 289.453 206.598C289.56 206.448 289.619 206.274 289.63 206.077H290.849C290.842 206.453 290.731 206.795 290.516 207.103C290.301 207.411 290.017 207.656 289.662 207.839C289.308 208.018 288.916 208.107 288.486 208.107C288.042 208.107 287.655 208.032 287.326 207.882C286.996 207.728 286.722 207.517 286.504 207.248C286.285 206.979 286.121 206.67 286.01 206.319C285.902 205.968 285.849 205.592 285.849 205.191V205.003C285.849 204.602 285.902 204.226 286.01 203.875C286.121 203.521 286.285 203.209 286.504 202.94C286.722 202.672 286.996 202.462 287.326 202.312C287.655 202.158 288.04 202.081 288.48 202.081C288.946 202.081 289.354 202.174 289.705 202.36C290.056 202.543 290.332 202.799 290.532 203.128C290.736 203.454 290.842 203.834 290.849 204.267H289.63C289.619 204.052 289.565 203.859 289.469 203.687C289.376 203.512 289.243 203.372 289.071 203.268C288.903 203.164 288.701 203.112 288.464 203.112C288.203 203.112 287.986 203.166 287.814 203.273C287.643 203.377 287.508 203.521 287.412 203.703C287.315 203.882 287.245 204.084 287.202 204.31C287.163 204.532 287.143 204.763 287.143 205.003V205.191C287.143 205.431 287.163 205.664 287.202 205.889C287.242 206.115 287.31 206.317 287.406 206.496C287.507 206.672 287.643 206.813 287.814 206.92C287.986 207.024 288.205 207.076 288.47 207.076ZM294.507 202.188V203.134H291.23V202.188H294.507ZM292.176 200.765H293.47V206.394C293.47 206.573 293.495 206.711 293.545 206.808C293.599 206.901 293.673 206.963 293.766 206.996C293.859 207.028 293.968 207.044 294.093 207.044C294.183 207.044 294.269 207.039 294.351 207.028C294.433 207.017 294.5 207.006 294.55 206.996L294.555 207.984C294.448 208.016 294.322 208.045 294.179 208.07C294.04 208.095 293.878 208.107 293.696 208.107C293.399 208.107 293.135 208.056 292.906 207.952C292.677 207.844 292.498 207.671 292.369 207.431C292.24 207.191 292.176 206.872 292.176 206.475V200.765Z" fill="black"/>
<path d="M270.031 82.875V83.3047C270.031 83.8955 269.954 84.4255 269.8 84.8945C269.646 85.3636 269.426 85.7629 269.139 86.0923C268.856 86.4217 268.516 86.6742 268.119 86.8496C267.721 87.0215 267.281 87.1074 266.797 87.1074C266.318 87.1074 265.879 87.0215 265.481 86.8496C265.088 86.6742 264.746 86.4217 264.456 86.0923C264.166 85.7629 263.94 85.3636 263.779 84.8945C263.621 84.4255 263.542 83.8955 263.542 83.3047V82.875C263.542 82.2842 263.621 81.756 263.779 81.2905C263.936 80.8215 264.158 80.4222 264.445 80.0928C264.735 79.7598 265.077 79.5073 265.471 79.3354C265.868 79.16 266.307 79.0723 266.787 79.0723C267.27 79.0723 267.71 79.16 268.108 79.3354C268.505 79.5073 268.847 79.7598 269.134 80.0928C269.42 80.4222 269.64 80.8215 269.794 81.2905C269.952 81.756 270.031 82.2842 270.031 82.875ZM268.683 83.3047V82.8643C268.683 82.4274 268.64 82.0425 268.554 81.7095C268.471 81.3729 268.348 81.0918 268.183 80.8662C268.022 80.637 267.823 80.4652 267.587 80.3506C267.351 80.2324 267.084 80.1733 266.787 80.1733C266.489 80.1733 266.224 80.2324 265.992 80.3506C265.759 80.4652 265.56 80.637 265.396 80.8662C265.234 81.0918 265.111 81.3729 265.025 81.7095C264.939 82.0425 264.896 82.4274 264.896 82.8643V83.3047C264.896 83.7415 264.939 84.1283 265.025 84.4648C265.111 84.8014 265.236 85.0861 265.401 85.3188C265.569 85.548 265.77 85.7217 266.002 85.8398C266.235 85.9544 266.5 86.0117 266.797 86.0117C267.098 86.0117 267.365 85.9544 267.598 85.8398C267.83 85.7217 268.027 85.548 268.188 85.3188C268.35 85.0861 268.471 84.8014 268.554 84.4648C268.64 84.1283 268.683 83.7415 268.683 83.3047ZM271.255 78.75H272.55V85.7593L272.426 87H271.255V78.75ZM276.342 84.0405V84.1533C276.342 84.583 276.293 84.9787 276.197 85.3403C276.104 85.6984 275.96 86.0099 275.767 86.2749C275.577 86.5399 275.341 86.7458 275.058 86.8926C274.779 87.0358 274.455 87.1074 274.086 87.1074C273.724 87.1074 273.409 87.0394 273.141 86.9033C272.872 86.7673 272.646 86.5739 272.464 86.3232C272.285 86.0726 272.14 85.7736 272.029 85.4263C271.918 85.0789 271.839 84.6958 271.792 84.2769V83.917C271.839 83.4945 271.918 83.1113 272.029 82.7676C272.14 82.4202 272.285 82.1213 272.464 81.8706C272.646 81.6164 272.87 81.4212 273.135 81.2852C273.404 81.1491 273.717 81.0811 274.075 81.0811C274.448 81.0811 274.775 81.1527 275.058 81.2959C275.345 81.4391 275.583 81.6432 275.772 81.9082C275.962 82.1696 276.104 82.4811 276.197 82.8428C276.293 83.2044 276.342 83.6037 276.342 84.0405ZM275.047 84.1533V84.0405C275.047 83.7791 275.026 83.5339 274.983 83.3047C274.94 83.0719 274.868 82.8678 274.768 82.6924C274.671 82.5169 274.539 82.3791 274.371 82.2788C274.206 82.175 274 82.123 273.753 82.123C273.524 82.123 273.327 82.1624 273.162 82.2412C272.997 82.32 272.86 82.4274 272.749 82.5635C272.638 82.6995 272.55 82.8571 272.485 83.0361C272.424 83.2152 272.383 83.4085 272.362 83.6162V84.5884C272.394 84.8569 272.462 85.104 272.566 85.3296C272.673 85.5516 272.824 85.7306 273.017 85.8667C273.21 85.9992 273.459 86.0654 273.764 86.0654C274.004 86.0654 274.206 86.0171 274.371 85.9204C274.535 85.8237 274.666 85.6895 274.763 85.5176C274.863 85.3421 274.935 85.138 274.978 84.9053C275.024 84.6725 275.047 84.4219 275.047 84.1533ZM277.502 81.1885H278.802V87.5049C278.802 87.9023 278.734 88.2371 278.598 88.5093C278.462 88.785 278.261 88.9927 277.996 89.1323C277.731 89.2756 277.407 89.3472 277.024 89.3472C276.909 89.3472 276.791 89.3382 276.669 89.3203C276.544 89.306 276.426 89.2845 276.315 89.2559L276.32 88.2461C276.396 88.2604 276.476 88.2712 276.562 88.2783C276.644 88.2891 276.723 88.2944 276.798 88.2944C276.952 88.2944 277.081 88.2676 277.185 88.2139C277.289 88.1602 277.368 88.076 277.421 87.9614C277.475 87.8468 277.502 87.6947 277.502 87.5049V81.1885ZM277.389 79.6631C277.389 79.4661 277.455 79.3032 277.588 79.1743C277.72 79.0418 277.901 78.9756 278.13 78.9756C278.363 78.9756 278.544 79.0418 278.673 79.1743C278.805 79.3032 278.872 79.4661 278.872 79.6631C278.872 79.8564 278.805 80.0176 278.673 80.1465C278.544 80.2754 278.363 80.3398 278.13 80.3398C277.901 80.3398 277.72 80.2754 277.588 80.1465C277.455 80.0176 277.389 79.8564 277.389 79.6631ZM282.76 87.1074C282.331 87.1074 281.942 87.0376 281.595 86.8979C281.251 86.7547 280.957 86.556 280.714 86.3018C280.474 86.0475 280.29 85.7485 280.161 85.4048C280.032 85.061 279.967 84.6904 279.967 84.293V84.0781C279.967 83.6234 280.034 83.2116 280.166 82.8428C280.299 82.474 280.483 82.1589 280.719 81.8975C280.956 81.6325 281.235 81.4302 281.557 81.2905C281.879 81.1509 282.229 81.0811 282.604 81.0811C283.02 81.0811 283.383 81.1509 283.695 81.2905C284.006 81.4302 284.264 81.6271 284.468 81.8813C284.676 82.132 284.83 82.431 284.93 82.7783C285.034 83.1257 285.086 83.5088 285.086 83.9277V84.481H280.596V83.5518H283.808V83.4497C283.8 83.217 283.754 82.9985 283.668 82.7944C283.586 82.5903 283.458 82.4256 283.287 82.3003C283.115 82.175 282.886 82.1123 282.599 82.1123C282.384 82.1123 282.193 82.1589 282.024 82.252C281.86 82.3415 281.722 82.4722 281.611 82.644C281.5 82.8159 281.414 83.0236 281.353 83.2671C281.296 83.507 281.267 83.7773 281.267 84.0781V84.293C281.267 84.5472 281.301 84.7835 281.369 85.002C281.441 85.2168 281.545 85.4048 281.681 85.5659C281.817 85.7271 281.981 85.8542 282.175 85.9473C282.368 86.0368 282.588 86.0815 282.835 86.0815C283.147 86.0815 283.424 86.0189 283.668 85.8936C283.911 85.7682 284.123 85.591 284.302 85.3618L284.984 86.0225C284.859 86.2051 284.696 86.3805 284.495 86.5488C284.295 86.7135 284.049 86.8478 283.759 86.9517C283.473 87.0555 283.14 87.1074 282.76 87.1074ZM288.47 86.0762C288.681 86.0762 288.871 86.035 289.039 85.9526C289.211 85.8667 289.349 85.7485 289.453 85.5981C289.56 85.4478 289.619 85.2741 289.63 85.0771H290.849C290.842 85.4531 290.731 85.7951 290.516 86.103C290.301 86.411 290.017 86.6562 289.662 86.8389C289.308 87.0179 288.916 87.1074 288.486 87.1074C288.042 87.1074 287.655 87.0322 287.326 86.8818C286.996 86.7279 286.722 86.5166 286.504 86.248C286.285 85.9795 286.121 85.6698 286.01 85.3188C285.902 84.9679 285.849 84.592 285.849 84.1909V84.0029C285.849 83.6019 285.902 83.2259 286.01 82.875C286.121 82.5205 286.285 82.209 286.504 81.9404C286.722 81.6719 286.996 81.4624 287.326 81.312C287.655 81.158 288.04 81.0811 288.48 81.0811C288.946 81.0811 289.354 81.1742 289.705 81.3604C290.056 81.543 290.332 81.799 290.532 82.1284C290.736 82.4543 290.842 82.8338 290.849 83.2671H289.63C289.619 83.0522 289.565 82.8589 289.469 82.687C289.376 82.5116 289.243 82.3719 289.071 82.2681C288.903 82.1642 288.701 82.1123 288.464 82.1123C288.203 82.1123 287.986 82.166 287.814 82.2734C287.643 82.3773 287.508 82.5205 287.412 82.7031C287.315 82.8822 287.245 83.0845 287.202 83.3101C287.163 83.5321 287.143 83.763 287.143 84.0029V84.1909C287.143 84.4308 287.163 84.6636 287.202 84.8892C287.242 85.1147 287.31 85.3171 287.406 85.4961C287.507 85.6715 287.643 85.813 287.814 85.9204C287.986 86.0243 288.205 86.0762 288.47 86.0762ZM294.507 81.1885V82.1338H291.23V81.1885H294.507ZM292.176 79.7651H293.47V85.394C293.47 85.5731 293.495 85.7109 293.545 85.8076C293.599 85.9007 293.673 85.9634 293.766 85.9956C293.859 86.0278 293.968 86.0439 294.093 86.0439C294.183 86.0439 294.269 86.0386 294.351 86.0278C294.433 86.0171 294.5 86.0063 294.55 85.9956L294.555 86.9839C294.448 87.0161 294.322 87.0448 294.179 87.0698C294.04 87.0949 293.878 87.1074 293.696 87.1074C293.399 87.1074 293.135 87.0555 292.906 86.9517C292.677 86.8442 292.498 86.6706 292.369 86.4307C292.24 86.1908 292.176 85.8721 292.176 85.4746V79.7651Z" fill="black"/>
<path d="M19.0308 220.875V221.305C19.0308 221.896 18.9538 222.425 18.7998 222.895C18.6458 223.364 18.4256 223.763 18.1392 224.092C17.8563 224.422 17.5161 224.674 17.1187 224.85C16.7212 225.021 16.2808 225.107 15.7974 225.107C15.3175 225.107 14.8789 225.021 14.4814 224.85C14.0876 224.674 13.7456 224.422 13.4556 224.092C13.1655 223.763 12.9399 223.364 12.7788 222.895C12.6213 222.425 12.5425 221.896 12.5425 221.305V220.875C12.5425 220.284 12.6213 219.756 12.7788 219.291C12.9364 218.821 13.1584 218.422 13.4448 218.093C13.7349 217.76 14.0768 217.507 14.4707 217.335C14.8682 217.16 15.3068 217.072 15.7866 217.072C16.27 217.072 16.7104 217.16 17.1079 217.335C17.5054 217.507 17.8473 217.76 18.1338 218.093C18.4202 218.422 18.6405 218.821 18.7944 219.291C18.952 219.756 19.0308 220.284 19.0308 220.875ZM17.6826 221.305V220.864C17.6826 220.427 17.6396 220.042 17.5537 219.709C17.4714 219.373 17.3478 219.092 17.1831 218.866C17.022 218.637 16.8232 218.465 16.5869 218.351C16.3506 218.232 16.0838 218.173 15.7866 218.173C15.4894 218.173 15.2244 218.232 14.9917 218.351C14.759 218.465 14.5602 218.637 14.3955 218.866C14.2344 219.092 14.1108 219.373 14.0249 219.709C13.939 220.042 13.896 220.427 13.896 220.864V221.305C13.896 221.742 13.939 222.128 14.0249 222.465C14.1108 222.801 14.2362 223.086 14.4009 223.319C14.5692 223.548 14.7697 223.722 15.0024 223.84C15.2352 223.954 15.5002 224.012 15.7974 224.012C16.0981 224.012 16.3649 223.954 16.5977 223.84C16.8304 223.722 17.0273 223.548 17.1885 223.319C17.3496 223.086 17.4714 222.801 17.5537 222.465C17.6396 222.128 17.6826 221.742 17.6826 221.305ZM20.2554 216.75H21.5498V223.759L21.4263 225H20.2554V216.75ZM25.3418 222.041V222.153C25.3418 222.583 25.2935 222.979 25.1968 223.34C25.1037 223.698 24.9604 224.01 24.7671 224.275C24.5773 224.54 24.341 224.746 24.0581 224.893C23.7788 225.036 23.4548 225.107 23.0859 225.107C22.7243 225.107 22.4092 225.039 22.1406 224.903C21.8721 224.767 21.6465 224.574 21.4639 224.323C21.2848 224.073 21.1398 223.774 21.0288 223.426C20.9178 223.079 20.839 222.696 20.7925 222.277V221.917C20.839 221.494 20.9178 221.111 21.0288 220.768C21.1398 220.42 21.2848 220.121 21.4639 219.871C21.6465 219.616 21.8703 219.421 22.1353 219.285C22.4038 219.149 22.7171 219.081 23.0752 219.081C23.4476 219.081 23.7752 219.153 24.0581 219.296C24.3446 219.439 24.5827 219.643 24.7725 219.908C24.9622 220.17 25.1037 220.481 25.1968 220.843C25.2935 221.204 25.3418 221.604 25.3418 222.041ZM24.0474 222.153V222.041C24.0474 221.779 24.0259 221.534 23.9829 221.305C23.9399 221.072 23.8683 220.868 23.7681 220.692C23.6714 220.517 23.5389 220.379 23.3706 220.279C23.2059 220.175 23 220.123 22.7529 220.123C22.5238 220.123 22.3268 220.162 22.1621 220.241C21.9974 220.32 21.8595 220.427 21.7485 220.563C21.6375 220.7 21.5498 220.857 21.4854 221.036C21.4245 221.215 21.3833 221.409 21.3618 221.616V222.588C21.394 222.857 21.4621 223.104 21.5659 223.33C21.6733 223.552 21.8237 223.731 22.0171 223.867C22.2104 223.999 22.4593 224.065 22.7637 224.065C23.0036 224.065 23.2059 224.017 23.3706 223.92C23.5353 223.824 23.666 223.689 23.7627 223.518C23.863 223.342 23.9346 223.138 23.9775 222.905C24.0241 222.673 24.0474 222.422 24.0474 222.153ZM26.502 219.188H27.8018V225.505C27.8018 225.902 27.7337 226.237 27.5977 226.509C27.4616 226.785 27.2611 226.993 26.9961 227.132C26.7311 227.276 26.4071 227.347 26.0239 227.347C25.9093 227.347 25.7912 227.338 25.6694 227.32C25.5441 227.306 25.4259 227.285 25.3149 227.256L25.3203 226.246C25.3955 226.26 25.4761 226.271 25.562 226.278C25.6444 226.289 25.7231 226.294 25.7983 226.294C25.9523 226.294 26.0812 226.268 26.1851 226.214C26.2889 226.16 26.3677 226.076 26.4214 225.961C26.4751 225.847 26.502 225.695 26.502 225.505V219.188ZM26.3892 217.663C26.3892 217.466 26.4554 217.303 26.5879 217.174C26.7204 217.042 26.9012 216.976 27.1304 216.976C27.3631 216.976 27.5439 217.042 27.6729 217.174C27.8053 217.303 27.8716 217.466 27.8716 217.663C27.8716 217.856 27.8053 218.018 27.6729 218.146C27.5439 218.275 27.3631 218.34 27.1304 218.34C26.9012 218.34 26.7204 218.275 26.5879 218.146C26.4554 218.018 26.3892 217.856 26.3892 217.663ZM31.7603 225.107C31.3306 225.107 30.9421 225.038 30.5947 224.898C30.251 224.755 29.9574 224.556 29.7139 224.302C29.474 224.048 29.2896 223.749 29.1606 223.405C29.0317 223.061 28.9673 222.69 28.9673 222.293V222.078C28.9673 221.623 29.0335 221.212 29.166 220.843C29.2985 220.474 29.4829 220.159 29.7192 219.897C29.9556 219.632 30.2349 219.43 30.5571 219.291C30.8794 219.151 31.2285 219.081 31.6045 219.081C32.0199 219.081 32.3833 219.151 32.6948 219.291C33.0063 219.43 33.2642 219.627 33.4683 219.881C33.6759 220.132 33.8299 220.431 33.9302 220.778C34.034 221.126 34.0859 221.509 34.0859 221.928V222.481H29.5957V221.552H32.8076V221.45C32.8005 221.217 32.7539 220.999 32.668 220.794C32.5856 220.59 32.4585 220.426 32.2866 220.3C32.1147 220.175 31.8856 220.112 31.5991 220.112C31.3843 220.112 31.1927 220.159 31.0244 220.252C30.8597 220.341 30.7218 220.472 30.6108 220.644C30.4998 220.816 30.4139 221.024 30.353 221.267C30.2957 221.507 30.2671 221.777 30.2671 222.078V222.293C30.2671 222.547 30.3011 222.784 30.3691 223.002C30.4408 223.217 30.5446 223.405 30.6807 223.566C30.8167 223.727 30.9814 223.854 31.1748 223.947C31.3682 224.037 31.5884 224.082 31.8354 224.082C32.147 224.082 32.4245 224.019 32.668 223.894C32.9115 223.768 33.1227 223.591 33.3018 223.362L33.9839 224.022C33.8586 224.205 33.6956 224.381 33.4951 224.549C33.2946 224.714 33.0493 224.848 32.7593 224.952C32.4728 225.056 32.1398 225.107 31.7603 225.107ZM37.4697 224.076C37.681 224.076 37.8708 224.035 38.0391 223.953C38.2109 223.867 38.3488 223.749 38.4526 223.598C38.5601 223.448 38.6191 223.274 38.6299 223.077H39.8491C39.842 223.453 39.731 223.795 39.5161 224.103C39.3013 224.411 39.0166 224.656 38.6621 224.839C38.3076 225.018 37.9155 225.107 37.4858 225.107C37.0418 225.107 36.6551 225.032 36.3257 224.882C35.9963 224.728 35.7223 224.517 35.5039 224.248C35.2855 223.979 35.1208 223.67 35.0098 223.319C34.9023 222.968 34.8486 222.592 34.8486 222.191V222.003C34.8486 221.602 34.9023 221.226 35.0098 220.875C35.1208 220.521 35.2855 220.209 35.5039 219.94C35.7223 219.672 35.9963 219.462 36.3257 219.312C36.6551 219.158 37.04 219.081 37.4805 219.081C37.946 219.081 38.3542 219.174 38.7051 219.36C39.056 219.543 39.3317 219.799 39.5322 220.128C39.7363 220.454 39.842 220.834 39.8491 221.267H38.6299C38.6191 221.052 38.5654 220.859 38.4688 220.687C38.3757 220.512 38.2432 220.372 38.0713 220.268C37.903 220.164 37.7007 220.112 37.4644 220.112C37.203 220.112 36.9863 220.166 36.8145 220.273C36.6426 220.377 36.5083 220.521 36.4116 220.703C36.3149 220.882 36.2451 221.084 36.2021 221.31C36.1628 221.532 36.1431 221.763 36.1431 222.003V222.191C36.1431 222.431 36.1628 222.664 36.2021 222.889C36.2415 223.115 36.3096 223.317 36.4062 223.496C36.5065 223.672 36.6426 223.813 36.8145 223.92C36.9863 224.024 37.2048 224.076 37.4697 224.076ZM43.5068 219.188V220.134H40.2305V219.188H43.5068ZM41.1758 217.765H42.4702V223.394C42.4702 223.573 42.4953 223.711 42.5454 223.808C42.5991 223.901 42.6725 223.963 42.7656 223.996C42.8587 224.028 42.9679 224.044 43.0933 224.044C43.1828 224.044 43.2687 224.039 43.3511 224.028C43.4334 224.017 43.4997 224.006 43.5498 223.996L43.5552 224.984C43.4478 225.016 43.3224 225.045 43.1792 225.07C43.0396 225.095 42.8784 225.107 42.6958 225.107C42.3986 225.107 42.1354 225.056 41.9062 224.952C41.6771 224.844 41.498 224.671 41.3691 224.431C41.2402 224.191 41.1758 223.872 41.1758 223.475V217.765Z" fill="black"/>
<defs>
<filter id="filter0_d_1845_498" x="88" y="77" width="111" height="111" filterUnits="userSpaceOnUse" color-interpolation-filters="sRGB">
<feFlood flood-opacity="0" result="BackgroundImageFix"/>
<feColorMatrix in="SourceAlpha" type="matrix" values="0 0 0 0 0 0 0 0 0 0 0 0 0 0 0 0 0 0 127 0" result="hardAlpha"/>
<feOffset dy="4"/>
<feGaussianBlur stdDeviation="2"/>
<feComposite in2="hardAlpha" operator="out"/>
<feColorMatrix type="matrix" values="0 0 0 0 0 0 0 0 0 0 0 0 0 0 0 0 0 0 0.25 0"/>
<feBlend mode="normal" in2="BackgroundImageFix" result="effect1_dropShadow_1845_498"/>
<feBlend mode="normal" in="SourceGraphic" in2="effect1_dropShadow_1845_498" result="shape"/>
</filter>
<filter id="filter1_d_1845_498" x="88" y="0" width="56" height="56" filterUnits="userSpaceOnUse" color-interpolation-filters="sRGB">
<feFlood flood-opacity="0" result="BackgroundImageFix"/>
<feColorMatrix in="SourceAlpha" type="matrix" values="0 0 0 0 0 0 0 0 0 0 0 0 0 0 0 0 0 0 127 0" result="hardAlpha"/>
<feOffset dy="4"/>
<feGaussianBlur stdDeviation="2"/>
<feComposite in2="hardAlpha" operator="out"/>
<feColorMatrix type="matrix" values="0 0 0 0 0 0 0 0 0 0 0 0 0 0 0 0 0 0 0.25 0"/>
<feBlend mode="normal" in2="BackgroundImageFix" result="effect1_dropShadow_1845_498"/>
<feBlend mode="normal" in="SourceGraphic" in2="effect1_dropShadow_1845_498" result="shape"/>
</filter>
<filter id="filter2_d_1845_498" x="251" y="60" width="56" height="56" filterUnits="userSpaceOnUse" color-interpolation-filters="sRGB">
<feFlood flood-opacity="0" result="BackgroundImageFix"/>
<feColorMatrix in="SourceAlpha" type="matrix" values="0 0 0 0 0 0 0 0 0 0 0 0 0 0 0 0 0 0 127 0" result="hardAlpha"/>
<feOffset dy="4"/>
<feGaussianBlur stdDeviation="2"/>
<feComposite in2="hardAlpha" operator="out"/>
<feColorMatrix type="matrix" values="0 0 0 0 0 0 0 0 0 0 0 0 0 0 0 0 0 0 0.25 0"/>
<feBlend mode="normal" in2="BackgroundImageFix" result="effect1_dropShadow_1845_498"/>
<feBlend mode="normal" in="SourceGraphic" in2="effect1_dropShadow_1845_498" result="shape"/>
</filter>
<filter id="filter3_d_1845_498" x="251" y="180" width="56" height="56" filterUnits="userSpaceOnUse" color-interpolation-filters="sRGB">
<feFlood flood-opacity="0" result="BackgroundImageFix"/>
<feColorMatrix in="SourceAlpha" type="matrix" values="0 0 0 0 0 0 0 0 0 0 0 0 0 0 0 0 0 0 127 0" result="hardAlpha"/>
<feOffset dy="4"/>
<feGaussianBlur stdDeviation="2"/>
<feComposite in2="hardAlpha" operator="out"/>
<feColorMatrix type="matrix" values="0 0 0 0 0 0 0 0 0 0 0 0 0 0 0 0 0 0 0.25 0"/>
<feBlend mode="normal" in2="BackgroundImageFix" result="effect1_dropShadow_1845_498"/>
<feBlend mode="normal" in="SourceGraphic" in2="effect1_dropShadow_1845_498" result="shape"/>
</filter>
<filter id="filter4_d_1845_498" x="154" y="214" width="56" height="56" filterUnits="userSpaceOnUse" color-interpolation-filters="sRGB">
<feFlood flood-opacity="0" result="BackgroundImageFix"/>
<feColorMatrix in="SourceAlpha" type="matrix" values="0 0 0 0 0 0 0 0 0 0 0 0 0 0 0 0 0 0 127 0" result="hardAlpha"/>
<feOffset dy="4"/>
<feGaussianBlur stdDeviation="2"/>
<feComposite in2="hardAlpha" operator="out"/>
<feColorMatrix type="matrix" values="0 0 0 0 0 0 0 0 0 0 0 0 0 0 0 0 0 0 0.25 0"/>
<feBlend mode="normal" in2="BackgroundImageFix" result="effect1_dropShadow_1845_498"/>
<feBlend mode="normal" in="SourceGraphic" in2="effect1_dropShadow_1845_498" result="shape"/>
</filter>
<filter id="filter5_d_1845_498" x="0" y="196" width="56" height="56" filterUnits="userSpaceOnUse" color-interpolation-filters="sRGB">
<feFlood flood-opacity="0" result="BackgroundImageFix"/>
<feColorMatrix in="SourceAlpha" type="matrix" values="0 0 0 0 0 0 0 0 0 0 0 0 0 0 0 0 0 0 127 0" result="hardAlpha"/>
<feOffset dy="4"/>
<feGaussianBlur stdDeviation="2"/>
<feComposite in2="hardAlpha" operator="out"/>
<feColorMatrix type="matrix" values="0 0 0 0 0 0 0 0 0 0 0 0 0 0 0 0 0 0 0.25 0"/>
<feBlend mode="normal" in2="BackgroundImageFix" result="effect1_dropShadow_1845_498"/>
<feBlend mode="normal" in="SourceGraphic" in2="effect1_dropShadow_1845_498" result="shape"/>
</filter>
<filter id="filter6_d_1845_498" x="0" y="53" width="56" height="56" filterUnits="userSpaceOnUse" color-interpolation-filters="sRGB">
<feFlood flood-opacity="0" result="BackgroundImageFix"/>
<feColorMatrix in="SourceAlpha" type="matrix" values="0 0 0 0 0 0 0 0 0 0 0 0 0 0 0 0 0 0 127 0" result="hardAlpha"/>
<feOffset dy="4"/>
<feGaussianBlur stdDeviation="2"/>
<feComposite in2="hardAlpha" operator="out"/>
<feColorMatrix type="matrix" values="0 0 0 0 0 0 0 0 0 0 0 0 0 0 0 0 0 0 0.25 0"/>
<feBlend mode="normal" in2="BackgroundImageFix" result="effect1_dropShadow_1845_498"/>
<feBlend mode="normal" in="SourceGraphic" in2="effect1_dropShadow_1845_498" result="shape"/>
</filter>
</defs>
</svg>
