<svg width="297" height="84" viewBox="0 0 297 84" fill="none" xmlns="http://www.w3.org/2000/svg">
<path d="M126.206 20.4958V63.1979C126.206 74.5171 138.796 83.6902 150.115 83.6902L276.504 83.6902C287.82 83.6902 297 74.5171 297 63.1979V20.4958C297 9.18027 287.823 -1.52588e-05 276.504 -1.52588e-05L150.115 -1.52588e-05C138.796 0.00724792 126.206 9.18027 126.206 20.4958ZM177.729 3.59148H220.09L221.364 13.5017H203.912L177.729 3.59148ZM165.328 8.79171C179.49 12.4812 196.231 16.8499 196.231 16.8499V66.8475L165.328 74.9166C165.328 74.9166 154.368 42.6549 165.328 8.79171ZM205.056 70.0795H221.368L220.101 79.9934H178.869L205.056 70.0795ZM263.976 79.9934L226.358 79.9934L227.603 70.0795L257.366 70.0795L263.976 79.9934ZM274.667 74.3392L262.552 66.2847V16.2761L274.667 8.21793V74.3392ZM256.23 13.5017L227.643 13.5017L226.354 3.59148L262.843 3.59148L256.23 13.5017Z" fill="black"/>
<rect y="19.1733" width="45.3435" height="45.3435" rx="7.55725" fill="#1D1C1C"/>
<path d="M45.3438 41.8451L56.6796 48.3898V35.3003L45.3438 41.8451ZM126.206 41.8451L114.87 35.3003V48.3898L126.206 41.8451ZM55.546 42.9787L116.004 42.9787V40.7115L55.546 40.7115V42.9787Z" fill="#48FF97"/>
</svg>
