<svg width="20" height="25" viewBox="0 0 20 25" fill="none" xmlns="http://www.w3.org/2000/svg">
<path d="M7.55521 8.70364C5.72697 7.64811 4.83562 5.49621 5.38201 3.45707C5.9284 1.41793 7.77627 0 9.88735 0C11.9984 0 13.8463 1.41793 14.3927 3.45707C14.9391 5.49621 14.0477 7.64811 12.2195 8.70364L10.8151 6.27125C11.5425 5.85133 11.8971 4.99524 11.6797 4.18401C11.4623 3.37278 10.7272 2.80868 9.88735 2.80868C9.0475 2.80868 8.31236 3.37278 8.09499 4.18401C7.87762 4.99524 8.23222 5.85133 8.95955 6.27125L7.55521 8.70364Z" fill="white"/>
<path d="M17.5424 9.83346C19.3707 10.889 20.262 13.0409 19.7156 15.08C19.1693 17.1192 17.3214 18.5371 15.2103 18.5371C13.0992 18.5371 11.2514 17.1192 10.705 15.08C10.1586 13.0409 11.0499 10.889 12.8782 9.83346L14.2825 12.2659C13.5552 12.6858 13.2006 13.5419 13.418 14.3531C13.6353 15.1643 14.3705 15.7284 15.2103 15.7284C16.0502 15.7284 16.7853 15.1643 17.0027 14.3531C17.22 13.5419 16.8654 12.6858 16.1381 12.2659L17.5424 9.83346Z" fill="white"/>
<path d="M9.32865 13.8714C9.32865 15.9825 7.91072 17.8304 5.87158 18.3767C3.83244 18.9231 1.68054 18.0318 0.625003 16.2035C-0.430535 14.3753 -0.126513 12.066 1.36624 10.5733C2.859 9.08052 5.16827 8.7765 6.99651 9.83203L5.59217 12.2644C4.86484 11.8445 3.94614 11.9655 3.35228 12.5593C2.75842 13.1532 2.63747 14.0719 3.05739 14.7992C3.47732 15.5265 4.33341 15.8811 5.14464 15.6638C5.95587 15.4464 6.51996 14.7113 6.51996 13.8714H9.32865Z" fill="white"/>
<path d="M1.33326 19.6552C1.72803 19.6197 2.12715 19.62 2.51991 19.6763C2.762 19.7191 3.01882 19.7818 3.20063 19.9582C3.39115 20.1708 3.43803 20.4662 3.47988 20.7384C3.54852 21.3032 3.54049 21.8761 3.47988 22.4413C3.43937 22.7172 3.39952 23.0153 3.21871 23.2396C3.02149 23.4398 2.73019 23.4967 2.46299 23.5389C2.06856 23.5882 1.66843 23.5995 1.27232 23.56C1.00412 23.5326 0.724196 23.4854 0.495839 23.3323C0.348177 23.2386 0.268821 23.0732 0.214913 22.9128C0.106761 22.5786 0.0930332 22.2237 0.0783005 21.8755C0.0766264 21.4154 0.0853321 20.9507 0.175068 20.498C0.223619 20.2867 0.28255 20.0543 0.461016 19.9133C0.712477 19.7309 1.03224 19.6867 1.33326 19.6552ZM1.39855 20.2857C1.23247 20.3108 1.02555 20.3245 0.925432 20.4792C0.83804 20.7099 0.841053 20.9617 0.823307 21.2045C0.814936 21.6374 0.793172 22.0744 0.860139 22.504C0.884917 22.6489 0.935811 22.8217 1.09687 22.8642C1.4461 22.9711 1.81977 22.953 2.17972 22.9325C2.35919 22.9051 2.59726 22.8897 2.68465 22.7018C2.78477 22.4159 2.77774 22.1072 2.79012 21.8085C2.78611 21.3886 2.80954 20.9607 2.70909 20.5499C2.68499 20.4039 2.53364 20.3416 2.4054 20.3158C2.07458 20.2509 1.73305 20.2589 1.39855 20.2857ZM4.9257 20.9637C5.16544 20.8114 5.46311 20.7866 5.73968 20.8117C5.99784 20.8338 6.28446 20.9215 6.42274 21.1593C6.58782 21.4576 6.59719 21.8102 6.60858 22.143C6.60121 22.4852 6.59485 22.8425 6.45355 23.1606C6.37285 23.3538 6.18735 23.4803 5.9888 23.5302C5.68477 23.6049 5.3506 23.6129 5.05762 23.4917C4.89925 23.4298 4.78975 23.2952 4.69902 23.1572V24.7212H4.02935C4.02968 23.4268 4.02868 22.132 4.02968 20.8375C4.24632 20.8365 4.46296 20.8365 4.67926 20.8375C4.67189 20.9708 4.66453 21.1037 4.66084 21.2373C4.7412 21.1392 4.81587 21.0314 4.9257 20.9637ZM5.14368 21.3133C4.98429 21.3257 4.81085 21.4047 4.76565 21.5714C4.68026 21.8654 4.69533 22.1768 4.70772 22.4795C4.72848 22.6767 4.75292 22.9309 4.96286 23.0193C5.18854 23.1067 5.44904 23.102 5.6774 23.0273C5.87495 22.9577 5.90375 22.7253 5.92451 22.5458C5.94527 22.2485 5.95264 21.9451 5.89437 21.6515C5.87462 21.5376 5.81602 21.4201 5.70486 21.3722C5.5294 21.2949 5.33118 21.2989 5.14368 21.3133ZM7.40983 20.9687C7.73898 20.7997 8.12437 20.7936 8.48566 20.8107C8.78634 20.8358 9.15131 20.886 9.31705 21.1737C9.50389 21.5209 9.47342 21.9294 9.49954 22.3104H7.66766C7.68909 22.507 7.66364 22.7189 7.76275 22.8991C7.84746 23.0414 8.02727 23.0705 8.17928 23.0789C8.36713 23.0802 8.56937 23.0956 8.74248 23.0082C8.84159 22.9305 8.84226 22.7926 8.85498 22.6787C9.06927 22.6784 9.28357 22.6784 9.49786 22.6787C9.48983 22.9024 9.46103 23.1529 9.28156 23.3102C9.01202 23.552 8.62629 23.5771 8.28141 23.5838C7.97704 23.5748 7.6556 23.5594 7.38305 23.4094C7.16239 23.2791 7.09208 23.0116 7.05324 22.7758C7.00401 22.4256 6.99163 22.0687 7.03348 21.7171C7.06763 21.4395 7.1423 21.1131 7.40983 20.9687ZM7.80126 21.395C7.66129 21.5226 7.67502 21.7342 7.669 21.9076C8.06276 21.9096 8.45653 21.9086 8.85063 21.908C8.84996 21.7519 8.86502 21.5818 8.78065 21.4429C8.69794 21.3304 8.54291 21.323 8.41568 21.3093C8.21042 21.3063 7.98408 21.2838 7.80126 21.395ZM10.9256 20.9671C11.1573 20.8063 11.4566 20.7839 11.7292 20.8154C11.9612 20.8398 12.207 20.9282 12.344 21.1285C12.4655 21.2945 12.4993 21.5062 12.501 21.7074C12.5 22.3215 12.5013 22.9352 12.5007 23.5493C12.2884 23.5496 12.0764 23.5496 11.8648 23.5493C11.8638 22.9684 11.8655 22.3878 11.8638 21.8072C11.8574 21.6803 11.8625 21.5336 11.767 21.4358C11.6652 21.3257 11.5055 21.3042 11.3632 21.3053C11.1911 21.3042 11.005 21.3337 10.8724 21.4526C10.7428 21.5631 10.6936 21.7412 10.6929 21.9059C10.6919 22.4537 10.6932 23.0015 10.6922 23.549C10.4803 23.5496 10.2683 23.5496 10.0567 23.5493C10.0564 22.6453 10.0564 21.7412 10.0567 20.8372C10.265 20.8365 10.4736 20.8368 10.6818 20.8372C10.6808 20.9959 10.6651 21.1536 10.6604 21.3123C10.7287 21.184 10.8004 21.0488 10.9256 20.9671ZM13.6522 19.7791C14.0031 19.6612 14.3771 19.6445 14.744 19.6314C15.0996 19.6331 15.4713 19.6364 15.8035 19.7797C15.9722 19.8501 16.0891 20.0041 16.146 20.1742C16.2387 20.4283 16.2414 20.7036 16.2434 20.9711C15.9987 20.9711 15.7539 20.9718 15.5095 20.9708C15.5055 20.7826 15.5199 20.5716 15.4033 20.4116C15.2855 20.291 15.1013 20.2914 14.9449 20.273C14.6269 20.2669 14.2957 20.2465 13.991 20.3563C13.8812 20.3912 13.8243 20.501 13.8022 20.6068C13.7395 20.8907 13.7392 21.1837 13.7395 21.4733C13.7432 21.8604 13.7372 22.2532 13.8199 22.6339C13.8417 22.7732 13.9699 22.8589 14.0985 22.8897C14.3958 22.9637 14.7062 22.953 15.0099 22.9349C15.1683 22.9141 15.3611 22.9038 15.4606 22.7584C15.5667 22.585 15.549 22.3717 15.5433 22.1768C15.7904 22.1758 16.0372 22.1762 16.2843 22.1768C16.2813 22.4845 16.2759 22.8023 16.1641 23.0936C16.1065 23.246 15.9876 23.3752 15.8336 23.4335C15.5312 23.5547 15.1998 23.5624 14.879 23.5818C14.507 23.5882 14.1303 23.5791 13.7667 23.4924C13.5534 23.4368 13.3203 23.339 13.2216 23.1271C13.0953 22.8468 13.0722 22.5351 13.0397 22.2334C13.0126 21.835 12.9952 21.4358 13.0049 21.0367C13.024 20.7136 13.0535 20.3731 13.2279 20.0915C13.3207 19.9348 13.4834 19.8367 13.6522 19.7791ZM16.4048 19.6662C16.66 19.6666 16.9151 19.6592 17.1699 19.6699C17.418 20.4571 17.6906 21.2363 17.941 22.0225C18.0385 22.3245 18.1075 22.6352 18.2082 22.9362C18.3211 22.6114 18.3934 22.2739 18.5039 21.9485C18.7487 21.1881 19.0001 20.43 19.2446 19.6696C19.4963 19.6589 19.7488 19.6682 20.0009 19.6649V19.7483C19.5864 21.0116 19.1816 22.2783 18.7755 23.5446C18.3964 23.5523 18.0167 23.5533 17.6377 23.544C17.2339 22.2492 16.8106 20.9604 16.4048 19.6662Z" fill="white"/>
</svg>
