<svg width="332" height="331" viewBox="0 0 332 331" fill="none" xmlns="http://www.w3.org/2000/svg">
<rect width="208" height="208" rx="6" fill="#F24822"/>
<rect x="32" y="32" width="208" height="208" rx="6" fill="#14AE5C"/>
<rect x="64" y="64" width="208" height="208" rx="6" fill="#0D99FF"/>
<path d="M129.881 180.911C127.973 180.902 126.343 180.399 124.991 179.401C123.639 178.403 122.604 176.95 121.888 175.043C121.171 173.135 120.813 170.837 120.813 168.148C120.813 165.468 121.171 163.178 121.888 161.278C122.612 159.379 123.651 157.93 125.003 156.932C126.363 155.934 127.989 155.435 129.881 155.435C131.772 155.435 133.394 155.938 134.746 156.944C136.099 157.942 137.133 159.391 137.849 161.29C138.574 163.182 138.936 165.468 138.936 168.148C138.936 170.845 138.578 173.147 137.862 175.055C137.145 176.954 136.111 178.407 134.759 179.413C133.406 180.411 131.78 180.911 129.881 180.911ZM129.881 177.687C131.555 177.687 132.863 176.87 133.805 175.236C134.755 173.602 135.229 171.239 135.229 168.148C135.229 166.096 135.012 164.361 134.577 162.945C134.151 161.52 133.535 160.441 132.73 159.709C131.933 158.968 130.983 158.598 129.881 158.598C128.215 158.598 126.907 159.419 125.957 161.061C125.007 162.703 124.528 165.066 124.52 168.148C124.52 170.209 124.733 171.952 125.16 173.376C125.595 174.793 126.21 175.868 127.007 176.6C127.804 177.325 128.762 177.687 129.881 177.687ZM153.82 166.567V169.706H142.857V166.567H153.82ZM157.214 180.5V177.795L165.581 169.126C166.474 168.185 167.211 167.36 167.79 166.651C168.378 165.935 168.816 165.255 169.106 164.611C169.396 163.967 169.541 163.283 169.541 162.558C169.541 161.737 169.348 161.029 168.961 160.433C168.575 159.83 168.048 159.367 167.38 159.045C166.712 158.715 165.959 158.55 165.122 158.55C164.236 158.55 163.464 158.731 162.804 159.093C162.144 159.455 161.637 159.966 161.282 160.626C160.928 161.286 160.751 162.059 160.751 162.945H157.189C157.189 161.439 157.535 160.123 158.228 158.996C158.92 157.87 159.87 156.996 161.077 156.376C162.285 155.749 163.657 155.435 165.194 155.435C166.748 155.435 168.116 155.745 169.299 156.364C170.491 156.976 171.42 157.813 172.089 158.876C172.757 159.93 173.091 161.121 173.091 162.45C173.091 163.367 172.918 164.265 172.571 165.142C172.233 166.019 171.642 166.997 170.797 168.076C169.951 169.147 168.776 170.446 167.271 171.976L162.357 177.119V177.3H173.489V180.5H157.214ZM185.853 180.838C184.34 180.838 182.979 180.548 181.772 179.969C180.573 179.381 179.615 178.576 178.898 177.554C178.182 176.532 177.8 175.365 177.751 174.053H181.374C181.462 175.115 181.933 175.988 182.786 176.673C183.639 177.357 184.662 177.699 185.853 177.699C186.803 177.699 187.644 177.482 188.376 177.047C189.117 176.604 189.697 175.996 190.115 175.224C190.542 174.451 190.755 173.57 190.755 172.58C190.755 171.573 190.538 170.676 190.103 169.887C189.668 169.098 189.069 168.478 188.304 168.028C187.547 167.577 186.678 167.348 185.696 167.339C184.947 167.339 184.195 167.468 183.438 167.726C182.682 167.983 182.07 168.321 181.603 168.74L178.186 168.233L179.575 155.773H193.17V158.972H182.678L181.893 165.891H182.038C182.521 165.424 183.161 165.033 183.957 164.719C184.762 164.406 185.624 164.249 186.541 164.249C188.046 164.249 189.387 164.607 190.562 165.323C191.745 166.04 192.675 167.018 193.351 168.257C194.035 169.489 194.373 170.905 194.365 172.507C194.373 174.109 194.011 175.538 193.278 176.793C192.554 178.049 191.548 179.039 190.26 179.763C188.98 180.48 187.511 180.838 185.853 180.838ZM206.563 180.838C205.05 180.838 203.689 180.548 202.482 179.969C201.283 179.381 200.325 178.576 199.608 177.554C198.892 176.532 198.51 175.365 198.461 174.053H202.084C202.172 175.115 202.643 175.988 203.496 176.673C204.349 177.357 205.372 177.699 206.563 177.699C207.513 177.699 208.354 177.482 209.086 177.047C209.827 176.604 210.407 175.996 210.825 175.224C211.252 174.451 211.465 173.57 211.465 172.58C211.465 171.573 211.248 170.676 210.813 169.887C210.378 169.098 209.779 168.478 209.014 168.028C208.257 167.577 207.388 167.348 206.406 167.339C205.657 167.339 204.905 167.468 204.148 167.726C203.392 167.983 202.78 168.321 202.313 168.74L198.896 168.233L200.285 155.773H213.88V158.972H203.388L202.603 165.891H202.748C203.231 165.424 203.871 165.033 204.667 164.719C205.472 164.406 206.334 164.249 207.251 164.249C208.756 164.249 210.097 164.607 211.272 165.323C212.455 166.04 213.385 167.018 214.061 168.257C214.745 169.489 215.083 170.905 215.075 172.507C215.083 174.109 214.721 175.538 213.988 176.793C213.264 178.049 212.258 179.039 210.97 179.763C209.69 180.48 208.221 180.838 206.563 180.838Z" fill="white"/>
<rect x="64" y="64" width="208" height="208" rx="6" fill="#0D99FF"/>
<path d="M129.881 180.911C127.973 180.902 126.343 180.399 124.991 179.401C123.639 178.403 122.604 176.95 121.888 175.043C121.171 173.135 120.813 170.837 120.813 168.148C120.813 165.468 121.171 163.178 121.888 161.278C122.612 159.379 123.651 157.93 125.003 156.932C126.363 155.934 127.989 155.435 129.881 155.435C131.772 155.435 133.394 155.938 134.746 156.944C136.099 157.942 137.133 159.391 137.849 161.29C138.574 163.182 138.936 165.468 138.936 168.148C138.936 170.845 138.578 173.147 137.862 175.055C137.145 176.954 136.111 178.407 134.759 179.413C133.406 180.411 131.78 180.911 129.881 180.911ZM129.881 177.687C131.555 177.687 132.863 176.87 133.805 175.236C134.755 173.602 135.229 171.239 135.229 168.148C135.229 166.096 135.012 164.361 134.577 162.945C134.151 161.52 133.535 160.441 132.73 159.709C131.933 158.968 130.983 158.598 129.881 158.598C128.215 158.598 126.907 159.419 125.957 161.061C125.007 162.703 124.528 165.066 124.52 168.148C124.52 170.209 124.733 171.952 125.16 173.376C125.595 174.793 126.21 175.868 127.007 176.6C127.804 177.325 128.762 177.687 129.881 177.687ZM153.82 166.567V169.706H142.857V166.567H153.82ZM157.214 180.5V177.795L165.581 169.126C166.474 168.185 167.211 167.36 167.79 166.651C168.378 165.935 168.816 165.255 169.106 164.611C169.396 163.967 169.541 163.283 169.541 162.558C169.541 161.737 169.348 161.029 168.961 160.433C168.575 159.83 168.048 159.367 167.38 159.045C166.712 158.715 165.959 158.55 165.122 158.55C164.236 158.55 163.464 158.731 162.804 159.093C162.144 159.455 161.637 159.966 161.282 160.626C160.928 161.286 160.751 162.059 160.751 162.945H157.189C157.189 161.439 157.535 160.123 158.228 158.996C158.92 157.87 159.87 156.996 161.077 156.376C162.285 155.749 163.657 155.435 165.194 155.435C166.748 155.435 168.116 155.745 169.299 156.364C170.491 156.976 171.42 157.813 172.089 158.876C172.757 159.93 173.091 161.121 173.091 162.45C173.091 163.367 172.918 164.265 172.571 165.142C172.233 166.019 171.642 166.997 170.797 168.076C169.951 169.147 168.776 170.446 167.271 171.976L162.357 177.119V177.3H173.489V180.5H157.214ZM185.853 180.838C184.34 180.838 182.979 180.548 181.772 179.969C180.573 179.381 179.615 178.576 178.898 177.554C178.182 176.532 177.8 175.365 177.751 174.053H181.374C181.462 175.115 181.933 175.988 182.786 176.673C183.639 177.357 184.662 177.699 185.853 177.699C186.803 177.699 187.644 177.482 188.376 177.047C189.117 176.604 189.697 175.996 190.115 175.224C190.542 174.451 190.755 173.57 190.755 172.58C190.755 171.573 190.538 170.676 190.103 169.887C189.668 169.098 189.069 168.478 188.304 168.028C187.547 167.577 186.678 167.348 185.696 167.339C184.947 167.339 184.195 167.468 183.438 167.726C182.682 167.983 182.07 168.321 181.603 168.74L178.186 168.233L179.575 155.773H193.17V158.972H182.678L181.893 165.891H182.038C182.521 165.424 183.161 165.033 183.957 164.719C184.762 164.406 185.624 164.249 186.541 164.249C188.046 164.249 189.387 164.607 190.562 165.323C191.745 166.04 192.675 167.018 193.351 168.257C194.035 169.489 194.373 170.905 194.365 172.507C194.373 174.109 194.011 175.538 193.278 176.793C192.554 178.049 191.548 179.039 190.26 179.763C188.98 180.48 187.511 180.838 185.853 180.838ZM206.563 180.838C205.05 180.838 203.689 180.548 202.482 179.969C201.283 179.381 200.325 178.576 199.608 177.554C198.892 176.532 198.51 175.365 198.461 174.053H202.084C202.172 175.115 202.643 175.988 203.496 176.673C204.349 177.357 205.372 177.699 206.563 177.699C207.513 177.699 208.354 177.482 209.086 177.047C209.827 176.604 210.407 175.996 210.825 175.224C211.252 174.451 211.465 173.57 211.465 172.58C211.465 171.573 211.248 170.676 210.813 169.887C210.378 169.098 209.779 168.478 209.014 168.028C208.257 167.577 207.388 167.348 206.406 167.339C205.657 167.339 204.905 167.468 204.148 167.726C203.392 167.983 202.78 168.321 202.313 168.74L198.896 168.233L200.285 155.773H213.88V158.972H203.388L202.603 165.891H202.748C203.231 165.424 203.871 165.033 204.667 164.719C205.472 164.406 206.334 164.249 207.251 164.249C208.756 164.249 210.097 164.607 211.272 165.323C212.455 166.04 213.385 167.018 214.061 168.257C214.745 169.489 215.083 170.905 215.075 172.507C215.083 174.109 214.721 175.538 213.988 176.793C213.264 178.049 212.258 179.039 210.97 179.763C209.69 180.48 208.221 180.838 206.563 180.838Z" fill="white"/>
<path d="M84 295.12C84 294.015 82.6472 293.234 81.6906 293.786L66.3094 302.667C65.3528 303.219 65.3528 304.781 66.3094 305.333L81.6906 314.214C82.6472 314.766 84 313.985 84 312.88V295.12ZM149.25 306C150.355 306 151.25 305.105 151.25 304C151.25 302.895 150.355 302 149.25 302V306ZM186.75 302C185.645 302 184.75 302.895 184.75 304C184.75 305.105 185.645 306 186.75 306V302ZM252 312.88C252 313.985 253.353 314.766 254.309 314.214L269.691 305.333C270.647 304.781 270.647 303.219 269.691 302.667L254.309 293.786C253.353 293.234 252 294.015 252 295.12V312.88ZM82 306H149.25V302H82V306ZM186.75 306H254V302H186.75V306Z" fill="#B3B3B3"/>
<path d="M171.137 295.545V313H167.447V299.048H167.345L163.348 301.554V298.281L167.669 295.545H171.137Z" fill="#757575"/>
<path d="M321.63 84C322.735 84 323.516 82.6472 322.964 81.6906L314.083 66.3094C313.531 65.3528 311.969 65.3528 311.417 66.3094L302.536 81.6906C301.984 82.6472 302.765 84 303.87 84H321.63ZM310.75 141.5C310.75 142.605 311.645 143.5 312.75 143.5C313.855 143.5 314.75 142.605 314.75 141.5H310.75ZM314.75 194.5C314.75 193.395 313.855 192.5 312.75 192.5C311.645 192.5 310.75 193.395 310.75 194.5H314.75ZM303.87 252C302.765 252 301.984 253.353 302.536 254.309L311.417 269.691C311.969 270.647 313.531 270.647 314.083 269.691L322.964 254.309C323.516 253.353 322.735 252 321.63 252H303.87ZM310.75 82V141.5H314.75V82H310.75ZM310.75 194.5V254H314.75V194.5H310.75Z" fill="#B3B3B3"/>
<path d="M315.887 159.545V177H312.197V163.048H312.095L308.098 165.554V162.281L312.419 159.545H315.887Z" fill="#757575"/>
</svg>
