<svg width="268" height="267" viewBox="0 0 268 267" fill="none" xmlns="http://www.w3.org/2000/svg">
<rect width="208" height="208" rx="6" fill="#939393"/>
<path d="M65.8807 116.911C63.9731 116.902 62.3431 116.399 60.9908 115.401C59.6385 114.403 58.6042 112.95 57.8878 111.043C57.1714 109.135 56.8133 106.837 56.8133 104.148C56.8133 101.468 57.1714 99.178 57.8878 97.2784C58.6123 95.3788 59.6506 93.9299 61.0029 92.9318C62.3632 91.9337 63.9892 91.4347 65.8807 91.4347C67.7723 91.4347 69.3942 91.9377 70.7465 92.9439C72.0988 93.942 73.1331 95.3909 73.8495 97.2905C74.5739 99.1821 74.9361 101.468 74.9361 104.148C74.9361 106.845 74.5779 109.147 73.8615 111.055C73.1452 112.954 72.1108 114.407 70.7586 115.413C69.4063 116.411 67.7803 116.911 65.8807 116.911ZM65.8807 113.687C67.555 113.687 68.863 112.87 69.8047 111.236C70.7545 109.602 71.2294 107.239 71.2294 104.148C71.2294 102.096 71.0121 100.361 70.5775 98.9446C70.1508 97.5199 69.5351 96.4413 68.7302 95.7088C67.9333 94.9683 66.9835 94.598 65.8807 94.598C64.2145 94.598 62.9065 95.419 61.9567 97.0611C61.0069 98.7031 60.528 101.066 60.5199 104.148C60.5199 106.209 60.7332 107.952 61.1598 109.376C61.5945 110.793 62.2103 111.868 63.0071 112.6C63.804 113.325 64.7619 113.687 65.8807 113.687ZM89.8205 102.567V105.706H78.8574V102.567H89.8205ZM93.2135 116.5V113.795L101.581 105.126C102.474 104.185 103.211 103.36 103.79 102.651C104.378 101.935 104.816 101.255 105.106 100.611C105.396 99.9669 105.541 99.2827 105.541 98.5582C105.541 97.7372 105.348 97.0289 104.961 96.4332C104.575 95.8295 104.048 95.3667 103.38 95.0447C102.712 94.7147 101.959 94.5497 101.122 94.5497C100.236 94.5497 99.4637 94.7308 98.8037 95.093C98.1437 95.4553 97.6366 95.9664 97.2824 96.6264C96.9282 97.2865 96.7512 98.0592 96.7512 98.9446H93.1894C93.1894 97.4394 93.5355 96.1233 94.2277 94.9964C94.92 93.8696 95.8698 92.9962 97.0771 92.3764C98.2845 91.7486 99.6569 91.4347 101.194 91.4347C102.748 91.4347 104.116 91.7446 105.299 92.3643C106.491 92.9761 107.42 93.8132 108.089 94.8757C108.757 95.9302 109.091 97.1214 109.091 98.4496C109.091 99.3672 108.918 100.265 108.571 101.142C108.233 102.019 107.642 102.997 106.797 104.076C105.951 105.147 104.776 106.446 103.271 107.976L98.357 113.119V113.3H109.489V116.5H93.2135ZM121.853 116.838C120.34 116.838 118.979 116.548 117.772 115.969C116.573 115.381 115.615 114.576 114.898 113.554C114.182 112.532 113.8 111.365 113.751 110.053H117.374C117.462 111.115 117.933 111.988 118.786 112.673C119.639 113.357 120.662 113.699 121.853 113.699C122.803 113.699 123.644 113.482 124.376 113.047C125.117 112.604 125.697 111.996 126.115 111.224C126.542 110.451 126.755 109.57 126.755 108.58C126.755 107.573 126.538 106.676 126.103 105.887C125.668 105.098 125.069 104.478 124.304 104.028C123.547 103.577 122.678 103.348 121.696 103.339C120.947 103.339 120.195 103.468 119.438 103.726C118.682 103.983 118.07 104.321 117.603 104.74L114.186 104.233L115.575 91.7727H129.17V94.9723H118.678L117.893 101.891H118.038C118.521 101.424 119.161 101.033 119.957 100.719C120.762 100.406 121.624 100.249 122.541 100.249C124.046 100.249 125.387 100.607 126.562 101.323C127.745 102.04 128.675 103.018 129.351 104.257C130.035 105.489 130.373 106.905 130.365 108.507C130.373 110.109 130.011 111.538 129.278 112.793C128.554 114.049 127.548 115.039 126.26 115.763C124.98 116.48 123.511 116.838 121.853 116.838ZM142.563 116.838C141.05 116.838 139.689 116.548 138.482 115.969C137.283 115.381 136.325 114.576 135.608 113.554C134.892 112.532 134.51 111.365 134.461 110.053H138.084C138.172 111.115 138.643 111.988 139.496 112.673C140.349 113.357 141.372 113.699 142.563 113.699C143.513 113.699 144.354 113.482 145.086 113.047C145.827 112.604 146.407 111.996 146.825 111.224C147.252 110.451 147.465 109.57 147.465 108.58C147.465 107.573 147.248 106.676 146.813 105.887C146.378 105.098 145.779 104.478 145.014 104.028C144.257 103.577 143.388 103.348 142.406 103.339C141.657 103.339 140.905 103.468 140.148 103.726C139.392 103.983 138.78 104.321 138.313 104.74L134.896 104.233L136.285 91.7727H149.88V94.9723H139.388L138.603 101.891H138.748C139.231 101.424 139.871 101.033 140.667 100.719C141.472 100.406 142.334 100.249 143.251 100.249C144.756 100.249 146.097 100.607 147.272 101.323C148.455 102.04 149.385 103.018 150.061 104.257C150.745 105.489 151.083 106.905 151.075 108.507C151.083 110.109 150.721 111.538 149.988 112.793C149.264 114.049 148.258 115.039 146.97 115.763C145.69 116.48 144.221 116.838 142.563 116.838Z" fill="white"/>
<path d="M20 231.12C20 230.015 18.6472 229.234 17.6906 229.786L2.3094 238.667C1.35282 239.219 1.35282 240.781 2.3094 241.333L17.6906 250.214C18.6472 250.766 20 249.985 20 248.88V231.12ZM85.25 242C86.3546 242 87.25 241.105 87.25 240C87.25 238.895 86.3546 238 85.25 238V242ZM122.75 238C121.645 238 120.75 238.895 120.75 240C120.75 241.105 121.645 242 122.75 242V238ZM188 248.88C188 249.985 189.353 250.766 190.309 250.214L205.691 241.333C206.647 240.781 206.647 239.219 205.691 238.667L190.309 229.786C189.353 229.234 188 230.015 188 231.12V248.88ZM18 242H85.25V238H18V242ZM122.75 242H190V238H122.75V242Z" fill="#B3B3B3"/>
<path d="M107.137 231.545V249H103.447V235.048H103.345L99.3477 237.554V234.281L103.669 231.545H107.137Z" fill="#757575"/>
<path d="M257.63 20C258.735 20 259.516 18.6472 258.964 17.6906L250.083 2.3094C249.531 1.35282 247.969 1.35282 247.417 2.3094L238.536 17.6906C237.984 18.6472 238.765 20 239.87 20H257.63ZM246.75 77.5C246.75 78.6046 247.645 79.5 248.75 79.5C249.855 79.5 250.75 78.6046 250.75 77.5H246.75ZM250.75 130.5C250.75 129.395 249.855 128.5 248.75 128.5C247.645 128.5 246.75 129.395 246.75 130.5H250.75ZM239.87 188C238.765 188 237.984 189.353 238.536 190.309L247.417 205.691C247.969 206.647 249.531 206.647 250.083 205.691L258.964 190.309C259.516 189.353 258.735 188 257.63 188H239.87ZM246.75 18V77.5H250.75V18H246.75ZM246.75 130.5V190H250.75V130.5H246.75Z" fill="#B3B3B3"/>
<path d="M251.887 95.5455V113H248.197V99.0483H248.095L244.098 101.554V98.2812L248.419 95.5455H251.887Z" fill="#757575"/>
</svg>
