<svg width="741" height="297" viewBox="0 0 741 297" fill="none" xmlns="http://www.w3.org/2000/svg">
<rect x="28.5" y="25.5" width="49" height="49" fill="#F1F1F1" stroke="black"/>
<rect x="77.5" y="25.5" width="49" height="49" fill="#F1F1F1" stroke="black"/>
<rect x="126.5" y="25.5" width="49" height="49" fill="#F1F1F1" stroke="black"/>
<rect x="175.5" y="25.5" width="49" height="49" fill="#F1F1F1" stroke="black"/>
<rect x="224.5" y="25.5" width="49" height="49" fill="#F1F1F1" stroke="black"/>
<rect x="28.5" y="74.5" width="49" height="49" fill="#F1F1F1" stroke="black"/>
<rect x="77.5" y="74.5" width="49" height="49" fill="#F1F1F1" stroke="black"/>
<rect x="126.5" y="74.5" width="49" height="49" fill="#F1F1F1" stroke="black"/>
<rect x="175.5" y="74.5" width="49" height="49" fill="#F1F1F1" stroke="black"/>
<rect x="224.5" y="74.5" width="49" height="49" fill="#F1F1F1" stroke="black"/>
<rect x="28.5" y="123.5" width="49" height="49" fill="#F1F1F1" stroke="black"/>
<rect x="77.5" y="123.5" width="49" height="49" fill="#F1F1F1" stroke="black"/>
<rect x="126.5" y="123.5" width="49" height="49" fill="#F1F1F1" stroke="black"/>
<rect x="175.5" y="123.5" width="49" height="49" fill="#F1F1F1" stroke="black"/>
<rect x="224.5" y="123.5" width="49" height="49" fill="#F1F1F1" stroke="black"/>
<rect x="28.5" y="172.5" width="49" height="49" fill="#F1F1F1" stroke="black"/>
<rect x="77.5" y="172.5" width="49" height="49" fill="#F1F1F1" stroke="black"/>
<rect x="126.5" y="172.5" width="49" height="49" fill="#F1F1F1" stroke="black"/>
<rect x="175.5" y="172.5" width="49" height="49" fill="#F1F1F1" stroke="black"/>
<rect x="224.5" y="172.5" width="49" height="49" fill="#F1F1F1" stroke="black"/>
<rect x="28.5" y="221.5" width="49" height="49" fill="#F1F1F1" stroke="black"/>
<rect x="77.5" y="221.5" width="49" height="49" fill="#F1F1F1" stroke="black"/>
<rect x="126.5" y="221.5" width="49" height="49" fill="#F1F1F1" stroke="black"/>
<rect x="175.5" y="221.5" width="49" height="49" fill="#F1F1F1" stroke="black"/>
<rect x="224.5" y="221.5" width="49" height="49" fill="#F1F1F1" stroke="black"/>
<rect x="365.5" y="149.5" width="49" height="49" fill="#F1F1F1" stroke="black"/>
<rect x="414.5" y="149.5" width="49" height="49" fill="#F1F1F1" stroke="black"/>
<rect x="463.5" y="149.5" width="49" height="49" fill="#F1F1F1" stroke="black"/>
<rect x="365.5" y="198.5" width="49" height="49" fill="#F1F1F1" stroke="black"/>
<rect x="414.5" y="198.5" width="49" height="49" fill="#F1F1F1" stroke="black"/>
<rect x="463.5" y="198.5" width="49" height="49" fill="#F1F1F1" stroke="black"/>
<rect x="365.5" y="247.5" width="49" height="49" fill="#F1F1F1" stroke="black"/>
<rect x="414.5" y="247.5" width="49" height="49" fill="#F1F1F1" stroke="black"/>
<rect x="463.5" y="247.5" width="49" height="49" fill="#F1F1F1" stroke="black"/>
<rect x="642.5" y="25.5" width="49" height="49" fill="#F1F1F1" stroke="black"/>
<rect x="691.5" y="25.5" width="49" height="49" fill="#F1F1F1" stroke="black"/>
<rect x="642.5" y="74.5" width="49" height="49" fill="#F1F1F1" stroke="black"/>
<rect x="691.5" y="74.5" width="49" height="49" fill="#F1F1F1" stroke="black"/>
<rect x="593.5" y="123.5" width="49" height="49" fill="#F1F1F1" stroke="black"/>
<rect x="642.5" y="123.5" width="49" height="49" fill="#F1F1F1" stroke="black"/>
<rect x="691.5" y="123.5" width="49" height="49" fill="#F1F1F1" stroke="black"/>
<rect x="28.5" y="25.5" width="147" height="147" stroke="#FF0000"/>
<rect x="365.5" y="149.5" width="147" height="147" stroke="#FF0000"/>
<path d="M274.707 8.70713C275.098 8.3166 275.098 7.68344 274.707 7.29291L268.343 0.928953C267.953 0.538429 267.319 0.538429 266.929 0.928953C266.538 1.31948 266.538 1.95264 266.929 2.34317L272.586 8.00002L266.929 13.6569C266.538 14.0474 266.538 14.6806 266.929 15.0711C267.319 15.4616 267.953 15.4616 268.343 15.0711L274.707 8.70713ZM28 9L151 9.00001L151 7.00001L28 7L28 9ZM151 9.00001L274 9.00002L274 7.00002L151 7.00001L151 9.00001Z" fill="#FF0000"/>
<path d="M7.2929 271.707C7.68343 272.098 8.31659 272.098 8.70712 271.707L15.0711 265.343C15.4616 264.953 15.4616 264.319 15.0711 263.929C14.6806 263.538 14.0474 263.538 13.6569 263.929L8.00001 269.586L2.34316 263.929C1.95263 263.538 1.31947 263.538 0.928943 263.929C0.538418 264.319 0.538418 264.953 0.928943 265.343L7.2929 271.707ZM7 25L7.00001 271L9.00001 271L9 25L7 25Z" fill="#0065D0"/>
<line x1="175.173" y1="25.5308" x2="512.173" y2="149.531" stroke="#FF0000" stroke-dasharray="5 5"/>
<line x1="175.173" y1="172.531" x2="512.173" y2="296.531" stroke="#FF0000" stroke-dasharray="5 5"/>
<line x1="29.1727" y1="25.5308" x2="366.173" y2="149.531" stroke="#FF0000" stroke-dasharray="5 5"/>
<line x1="29.1727" y1="172.531" x2="366.173" y2="296.531" stroke="#FF0000" stroke-dasharray="5 5"/>
<rect x="593.5" y="74.5" width="49" height="49" fill="#F1F1F1" stroke="black"/>
<line x1="365.763" y1="148.56" x2="593.763" y2="25.5599" stroke="#0065D0"/>
<line x1="365.65" y1="296.643" x2="593.65" y2="73.6426" stroke="#0065D0"/>
<line x1="511.569" y1="296.747" x2="641.569" y2="74.7473" stroke="#0065D0"/>
<line x1="512.654" y1="149.64" x2="641.654" y2="25.6395" stroke="#0065D0"/>
<rect x="594" y="26" width="48" height="48" fill="#F1F1F1" stroke="#0065D0" stroke-width="2"/>
<path d="M628.732 239.457C628.647 238.597 628.281 237.93 627.635 237.454C626.989 236.978 626.112 236.74 625.004 236.74C624.251 236.74 623.615 236.847 623.097 237.06C622.578 237.266 622.18 237.553 621.903 237.923C621.634 238.292 621.499 238.711 621.499 239.18C621.484 239.57 621.566 239.911 621.744 240.202C621.928 240.494 622.18 240.746 622.5 240.959C622.82 241.165 623.189 241.346 623.608 241.502C624.027 241.651 624.474 241.779 624.95 241.886L626.911 242.354C627.862 242.567 628.736 242.852 629.531 243.207C630.327 243.562 631.016 243.999 631.598 244.517C632.18 245.036 632.631 245.646 632.951 246.349C633.278 247.053 633.445 247.859 633.452 248.768C633.445 250.103 633.104 251.261 632.429 252.241C631.761 253.214 630.795 253.97 629.531 254.51C628.274 255.043 626.758 255.309 624.982 255.309C623.221 255.309 621.687 255.039 620.38 254.499C619.08 253.96 618.065 253.161 617.333 252.102C616.609 251.037 616.229 249.719 616.193 248.15H620.657C620.707 248.881 620.916 249.492 621.286 249.982C621.662 250.465 622.163 250.831 622.788 251.08C623.42 251.321 624.134 251.442 624.929 251.442C625.71 251.442 626.388 251.328 626.964 251.101C627.546 250.874 627.997 250.558 628.317 250.153C628.636 249.748 628.796 249.283 628.796 248.757C628.796 248.267 628.651 247.855 628.359 247.521C628.075 247.187 627.656 246.903 627.102 246.669C626.555 246.435 625.884 246.222 625.089 246.03L622.713 245.433C620.874 244.986 619.421 244.286 618.356 243.335C617.29 242.383 616.761 241.101 616.768 239.489C616.761 238.168 617.113 237.013 617.823 236.026C618.54 235.039 619.524 234.268 620.774 233.714C622.024 233.161 623.445 232.884 625.036 232.884C626.655 232.884 628.068 233.161 629.276 233.714C630.49 234.268 631.435 235.039 632.109 236.026C632.784 237.013 633.132 238.157 633.153 239.457H628.732ZM635.154 236.985V233.182H653.073V236.985H646.393V255H641.833V236.985H635.154ZM655.454 255V233.182H670.155V236.985H660.066V242.184H669.399V245.987H660.066V251.197H670.198V255H655.454ZM673.253 255V233.182H681.861C683.515 233.182 684.925 233.498 686.09 234.13C687.255 234.755 688.143 235.625 688.753 236.74C689.371 237.848 689.68 239.126 689.68 240.575C689.68 242.024 689.368 243.303 688.743 244.411C688.118 245.518 687.212 246.381 686.026 246.999C684.847 247.617 683.42 247.926 681.743 247.926H676.257V244.229H680.998C681.886 244.229 682.617 244.077 683.192 243.771C683.775 243.459 684.208 243.029 684.492 242.482C684.783 241.928 684.929 241.293 684.929 240.575C684.929 239.851 684.783 239.219 684.492 238.679C684.208 238.132 683.775 237.71 683.192 237.411C682.61 237.106 681.871 236.953 680.976 236.953H677.866V255H673.253ZM707.844 233.182V255H703.231V237.56H703.103L698.107 240.692V236.602L703.508 233.182H707.844Z" fill="black"/>
<path d="M54.6193 42.4545V57H52.858V44.3011H52.7727L49.2216 46.6591V44.8693L52.858 42.4545H54.6193Z" fill="black"/>
<path d="M103.619 91.4545V106H101.858V93.3011H101.773L98.2216 95.6591V93.8693L101.858 91.4545H103.619Z" fill="black"/>
<path d="M201.619 239.455V254H199.858V241.301H199.773L196.222 243.659V241.869L199.858 239.455H201.619Z" fill="black"/>
<path d="M152.619 189.455V204H150.858V191.301H150.773L147.222 193.659V191.869L150.858 189.455H152.619Z" fill="black"/>
<path d="M489.619 166.455V181H487.858V168.301H487.773L484.222 170.659V168.869L487.858 166.455H489.619Z" fill="black"/>
<path d="M613.619 42.4545V57H611.858V44.3011H611.773L608.222 46.6591V44.8693L611.858 42.4545H613.619ZM622.082 57.1989C621.106 57.1989 620.245 57.026 619.496 56.6804C618.753 56.33 618.173 55.8494 617.756 55.2386C617.34 54.6231 617.134 53.9223 617.138 53.1364C617.134 52.5208 617.254 51.9527 617.501 51.4318C617.747 50.9062 618.083 50.4683 618.509 50.1179C618.94 49.7628 619.421 49.5379 619.951 49.4432V49.358C619.255 49.178 618.701 48.7874 618.289 48.1861C617.877 47.58 617.674 46.8911 617.678 46.1193C617.674 45.3807 617.861 44.7202 618.239 44.1378C618.618 43.5554 619.139 43.0961 619.802 42.7599C620.469 42.4238 621.229 42.2557 622.082 42.2557C622.924 42.2557 623.677 42.4238 624.34 42.7599C625.003 43.0961 625.524 43.5554 625.903 44.1378C626.286 44.7202 626.48 45.3807 626.485 46.1193C626.48 46.8911 626.27 47.58 625.853 48.1861C625.441 48.7874 624.894 49.178 624.212 49.358V49.4432C624.738 49.5379 625.211 49.7628 625.633 50.1179C626.054 50.4683 626.39 50.9062 626.641 51.4318C626.892 51.9527 627.02 52.5208 627.025 53.1364C627.02 53.9223 626.807 54.6231 626.386 55.2386C625.969 55.8494 625.389 56.33 624.646 56.6804C623.907 57.026 623.052 57.1989 622.082 57.1989ZM622.082 55.6364C622.74 55.6364 623.308 55.5298 623.786 55.3168C624.264 55.1037 624.634 54.803 624.894 54.4148C625.155 54.0265 625.287 53.572 625.292 53.0511C625.287 52.5019 625.145 52.0166 624.866 51.5952C624.586 51.1738 624.205 50.8423 623.722 50.6009C623.244 50.3594 622.697 50.2386 622.082 50.2386C621.461 50.2386 620.907 50.3594 620.42 50.6009C619.937 50.8423 619.556 51.1738 619.276 51.5952C619.002 52.0166 618.867 52.5019 618.871 53.0511C618.867 53.572 618.992 54.0265 619.248 54.4148C619.508 54.803 619.88 55.1037 620.363 55.3168C620.846 55.5298 621.419 55.6364 622.082 55.6364ZM622.082 48.733C622.602 48.733 623.064 48.6288 623.467 48.4205C623.874 48.2121 624.193 47.9209 624.425 47.5469C624.657 47.1728 624.776 46.7348 624.781 46.233C624.776 45.7405 624.66 45.312 624.432 44.9474C624.205 44.5781 623.89 44.294 623.488 44.0952C623.085 43.8916 622.617 43.7898 622.082 43.7898C621.537 43.7898 621.061 43.8916 620.654 44.0952C620.247 44.294 619.932 44.5781 619.709 44.9474C619.487 45.312 619.378 45.7405 619.383 46.233C619.378 46.7348 619.489 47.1728 619.717 47.5469C619.949 47.9209 620.268 48.2121 620.675 48.4205C621.083 48.6288 621.551 48.733 622.082 48.733Z" fill="black"/>
<path d="M440.619 264.455V279H438.858V266.301H438.773L435.222 268.659V266.869L438.858 264.455H440.619Z" fill="black"/>
<path d="M391.619 214.455V229H389.858V216.301H389.773L386.222 218.659V216.869L389.858 214.455H391.619Z" fill="black"/>
<path d="M56.6193 189.455V204H54.858V191.301H54.7727L51.2216 193.659V191.869L54.858 189.455H56.6193Z" fill="black"/>
<path d="M54.25 106.199C53.1799 106.199 52.2685 105.908 51.5156 105.325C50.7628 104.738 50.1875 103.888 49.7898 102.776C49.392 101.658 49.1932 100.309 49.1932 98.7273C49.1932 97.1553 49.392 95.813 49.7898 94.7003C50.1922 93.5829 50.7699 92.7306 51.5227 92.1435C52.2803 91.5516 53.1894 91.2557 54.25 91.2557C55.3106 91.2557 56.2173 91.5516 56.9702 92.1435C57.7277 92.7306 58.3054 93.5829 58.7031 94.7003C59.1056 95.813 59.3068 97.1553 59.3068 98.7273C59.3068 100.309 59.108 101.658 58.7102 102.776C58.3125 103.888 57.7372 104.738 56.9844 105.325C56.2315 105.908 55.3201 106.199 54.25 106.199ZM54.25 104.636C55.3106 104.636 56.1345 104.125 56.7216 103.102C57.3087 102.08 57.6023 100.621 57.6023 98.7273C57.6023 97.4678 57.4673 96.3954 57.1974 95.5099C56.9323 94.6245 56.5488 93.9498 56.0469 93.4858C55.5497 93.0218 54.9508 92.7898 54.25 92.7898C53.1989 92.7898 52.3774 93.3082 51.7855 94.3452C51.1937 95.3774 50.8977 96.8381 50.8977 98.7273C50.8977 99.9867 51.0303 101.057 51.2955 101.938C51.5606 102.818 51.9418 103.488 52.4389 103.947C52.9408 104.407 53.5445 104.636 54.25 104.636Z" fill="black"/>
<path d="M101.25 253.199C100.18 253.199 99.2685 252.908 98.5156 252.325C97.7628 251.738 97.1875 250.888 96.7898 249.776C96.392 248.658 96.1932 247.309 96.1932 245.727C96.1932 244.155 96.392 242.813 96.7898 241.7C97.1922 240.583 97.7699 239.731 98.5227 239.143C99.2803 238.552 100.189 238.256 101.25 238.256C102.311 238.256 103.217 238.552 103.97 239.143C104.728 239.731 105.305 240.583 105.703 241.7C106.106 242.813 106.307 244.155 106.307 245.727C106.307 247.309 106.108 248.658 105.71 249.776C105.312 250.888 104.737 251.738 103.984 252.325C103.232 252.908 102.32 253.199 101.25 253.199ZM101.25 251.636C102.311 251.636 103.134 251.125 103.722 250.102C104.309 249.08 104.602 247.621 104.602 245.727C104.602 244.468 104.467 243.395 104.197 242.51C103.932 241.625 103.549 240.95 103.047 240.486C102.55 240.022 101.951 239.79 101.25 239.79C100.199 239.79 99.3774 240.308 98.7855 241.345C98.1937 242.377 97.8977 243.838 97.8977 245.727C97.8977 246.987 98.0303 248.057 98.2955 248.938C98.5606 249.818 98.9418 250.488 99.4389 250.947C99.9408 251.407 100.545 251.636 101.25 251.636Z" fill="black"/>
<path d="M200.25 204.199C199.18 204.199 198.268 203.908 197.516 203.325C196.763 202.738 196.188 201.888 195.79 200.776C195.392 199.658 195.193 198.309 195.193 196.727C195.193 195.155 195.392 193.813 195.79 192.7C196.192 191.583 196.77 190.731 197.523 190.143C198.28 189.552 199.189 189.256 200.25 189.256C201.311 189.256 202.217 189.552 202.97 190.143C203.728 190.731 204.305 191.583 204.703 192.7C205.106 193.813 205.307 195.155 205.307 196.727C205.307 198.309 205.108 199.658 204.71 200.776C204.312 201.888 203.737 202.738 202.984 203.325C202.232 203.908 201.32 204.199 200.25 204.199ZM200.25 202.636C201.311 202.636 202.134 202.125 202.722 201.102C203.309 200.08 203.602 198.621 203.602 196.727C203.602 195.468 203.467 194.395 203.197 193.51C202.932 192.625 202.549 191.95 202.047 191.486C201.55 191.022 200.951 190.79 200.25 190.79C199.199 190.79 198.377 191.308 197.786 192.345C197.194 193.377 196.898 194.838 196.898 196.727C196.898 197.987 197.03 199.057 197.295 199.938C197.561 200.818 197.942 201.488 198.439 201.947C198.941 202.407 199.545 202.636 200.25 202.636Z" fill="black"/>
<path d="M487.25 279.199C486.18 279.199 485.268 278.908 484.516 278.325C483.763 277.738 483.188 276.888 482.79 275.776C482.392 274.658 482.193 273.309 482.193 271.727C482.193 270.155 482.392 268.813 482.79 267.7C483.192 266.583 483.77 265.731 484.523 265.143C485.28 264.552 486.189 264.256 487.25 264.256C488.311 264.256 489.217 264.552 489.97 265.143C490.728 265.731 491.305 266.583 491.703 267.7C492.106 268.813 492.307 270.155 492.307 271.727C492.307 273.309 492.108 274.658 491.71 275.776C491.312 276.888 490.737 277.738 489.984 278.325C489.232 278.908 488.32 279.199 487.25 279.199ZM487.25 277.636C488.311 277.636 489.134 277.125 489.722 276.102C490.309 275.08 490.602 273.621 490.602 271.727C490.602 270.468 490.467 269.395 490.197 268.51C489.932 267.625 489.549 266.95 489.047 266.486C488.55 266.022 487.951 265.79 487.25 265.79C486.199 265.79 485.377 266.308 484.786 267.345C484.194 268.377 483.898 269.838 483.898 271.727C483.898 272.987 484.03 274.057 484.295 274.938C484.561 275.818 484.942 276.488 485.439 276.947C485.941 277.407 486.545 277.636 487.25 277.636Z" fill="black"/>
<path d="M438.25 181.199C437.18 181.199 436.268 180.908 435.516 180.325C434.763 179.738 434.188 178.888 433.79 177.776C433.392 176.658 433.193 175.309 433.193 173.727C433.193 172.155 433.392 170.813 433.79 169.7C434.192 168.583 434.77 167.731 435.523 167.143C436.28 166.552 437.189 166.256 438.25 166.256C439.311 166.256 440.217 166.552 440.97 167.143C441.728 167.731 442.305 168.583 442.703 169.7C443.106 170.813 443.307 172.155 443.307 173.727C443.307 175.309 443.108 176.658 442.71 177.776C442.312 178.888 441.737 179.738 440.984 180.325C440.232 180.908 439.32 181.199 438.25 181.199ZM438.25 179.636C439.311 179.636 440.134 179.125 440.722 178.102C441.309 177.08 441.602 175.621 441.602 173.727C441.602 172.468 441.467 171.395 441.197 170.51C440.932 169.625 440.549 168.95 440.047 168.486C439.55 168.022 438.951 167.79 438.25 167.79C437.199 167.79 436.377 168.308 435.786 169.345C435.194 170.377 434.898 171.838 434.898 173.727C434.898 174.987 435.03 176.057 435.295 176.938C435.561 177.818 435.942 178.488 436.439 178.947C436.941 179.407 437.545 179.636 438.25 179.636Z" fill="black"/>
<path d="M101.25 155.199C100.18 155.199 99.2685 154.908 98.5156 154.325C97.7628 153.738 97.1875 152.888 96.7898 151.776C96.392 150.658 96.1932 149.309 96.1932 147.727C96.1932 146.155 96.392 144.813 96.7898 143.7C97.1922 142.583 97.7699 141.731 98.5227 141.143C99.2803 140.552 100.189 140.256 101.25 140.256C102.311 140.256 103.217 140.552 103.97 141.143C104.728 141.731 105.305 142.583 105.703 143.7C106.106 144.813 106.307 146.155 106.307 147.727C106.307 149.309 106.108 150.658 105.71 151.776C105.312 152.888 104.737 153.738 103.984 154.325C103.232 154.908 102.32 155.199 101.25 155.199ZM101.25 153.636C102.311 153.636 103.134 153.125 103.722 152.102C104.309 151.08 104.602 149.621 104.602 147.727C104.602 146.468 104.467 145.395 104.197 144.51C103.932 143.625 103.549 142.95 103.047 142.486C102.55 142.022 101.951 141.79 101.25 141.79C100.199 141.79 99.3774 142.308 98.7855 143.345C98.1937 144.377 97.8977 145.838 97.8977 147.727C97.8977 148.987 98.0303 150.057 98.2955 150.938C98.5606 151.818 98.9418 152.488 99.4389 152.947C99.9408 153.407 100.545 153.636 101.25 153.636Z" fill="black"/>
<path d="M248.25 106.199C247.18 106.199 246.268 105.908 245.516 105.325C244.763 104.738 244.188 103.888 243.79 102.776C243.392 101.658 243.193 100.309 243.193 98.7273C243.193 97.1553 243.392 95.813 243.79 94.7003C244.192 93.5829 244.77 92.7306 245.523 92.1435C246.28 91.5516 247.189 91.2557 248.25 91.2557C249.311 91.2557 250.217 91.5516 250.97 92.1435C251.728 92.7306 252.305 93.5829 252.703 94.7003C253.106 95.813 253.307 97.1553 253.307 98.7273C253.307 100.309 253.108 101.658 252.71 102.776C252.312 103.888 251.737 104.738 250.984 105.325C250.232 105.908 249.32 106.199 248.25 106.199ZM248.25 104.636C249.311 104.636 250.134 104.125 250.722 103.102C251.309 102.08 251.602 100.621 251.602 98.7273C251.602 97.4678 251.467 96.3954 251.197 95.5099C250.932 94.6245 250.549 93.9498 250.047 93.4858C249.55 93.0218 248.951 92.7898 248.25 92.7898C247.199 92.7898 246.377 93.3082 245.786 94.3452C245.194 95.3774 244.898 96.8381 244.898 98.7273C244.898 99.9867 245.03 101.057 245.295 101.938C245.561 102.818 245.942 103.488 246.439 103.947C246.941 104.407 247.545 104.636 248.25 104.636Z" fill="black"/>
<path d="M98.5057 57V55.7216L103.307 50.4659C103.87 49.8504 104.334 49.3153 104.699 48.8608C105.063 48.4015 105.333 47.9706 105.509 47.5682C105.688 47.161 105.778 46.7348 105.778 46.2898C105.778 45.7784 105.655 45.3357 105.409 44.9616C105.168 44.5876 104.836 44.2988 104.415 44.0952C103.993 43.8916 103.52 43.7898 102.994 43.7898C102.436 43.7898 101.948 43.9058 101.531 44.1378C101.119 44.3651 100.8 44.6847 100.572 45.0966C100.35 45.5085 100.239 45.9915 100.239 46.5455H98.5625C98.5625 45.6932 98.759 44.9451 99.152 44.3011C99.545 43.6572 100.08 43.1553 100.757 42.7955C101.439 42.4356 102.204 42.2557 103.051 42.2557C103.903 42.2557 104.659 42.4356 105.317 42.7955C105.975 43.1553 106.491 43.6406 106.865 44.2514C107.239 44.8622 107.426 45.5417 107.426 46.2898C107.426 46.8248 107.329 47.348 107.135 47.8594C106.946 48.366 106.614 48.9318 106.141 49.5568C105.672 50.1771 105.021 50.9347 104.188 51.8295L100.92 55.3239V55.4375H107.682V57H98.5057Z" fill="black"/>
<path d="M98.5057 57V55.7216L103.307 50.4659C103.87 49.8504 104.334 49.3153 104.699 48.8608C105.063 48.4015 105.333 47.9706 105.509 47.5682C105.688 47.161 105.778 46.7348 105.778 46.2898C105.778 45.7784 105.655 45.3357 105.409 44.9616C105.168 44.5876 104.836 44.2988 104.415 44.0952C103.993 43.8916 103.52 43.7898 102.994 43.7898C102.436 43.7898 101.948 43.9058 101.531 44.1378C101.119 44.3651 100.8 44.6847 100.572 45.0966C100.35 45.5085 100.239 45.9915 100.239 46.5455H98.5625C98.5625 45.6932 98.759 44.9451 99.152 44.3011C99.545 43.6572 100.08 43.1553 100.757 42.7955C101.439 42.4356 102.204 42.2557 103.051 42.2557C103.903 42.2557 104.659 42.4356 105.317 42.7955C105.975 43.1553 106.491 43.6406 106.865 44.2514C107.239 44.8622 107.426 45.5417 107.426 46.2898C107.426 46.8248 107.329 47.348 107.135 47.8594C106.946 48.366 106.614 48.9318 106.141 49.5568C105.672 50.1771 105.021 50.9347 104.188 51.8295L100.92 55.3239V55.4375H107.682V57H98.5057Z" fill="black"/>
<path d="M150.42 57.1989C149.483 57.1989 148.647 57.0379 147.913 56.7159C147.184 56.3939 146.604 55.9465 146.173 55.3736C145.747 54.7959 145.515 54.1259 145.477 53.3636H147.267C147.305 53.8324 147.466 54.2372 147.75 54.5781C148.034 54.9143 148.406 55.1747 148.865 55.3594C149.324 55.544 149.833 55.6364 150.392 55.6364C151.017 55.6364 151.571 55.5275 152.054 55.3097C152.537 55.0919 152.916 54.7888 153.19 54.4006C153.465 54.0123 153.602 53.5625 153.602 53.0511C153.602 52.5161 153.47 52.045 153.205 51.6378C152.939 51.2259 152.551 50.9039 152.04 50.6719C151.528 50.4399 150.903 50.3239 150.165 50.3239H149V48.7614H150.165C150.742 48.7614 151.249 48.6572 151.685 48.4489C152.125 48.2405 152.468 47.947 152.714 47.5682C152.965 47.1894 153.091 46.7443 153.091 46.233C153.091 45.7405 152.982 45.312 152.764 44.9474C152.546 44.5829 152.239 44.2988 151.841 44.0952C151.448 43.8916 150.984 43.7898 150.449 43.7898C149.947 43.7898 149.473 43.8821 149.028 44.0668C148.588 44.2467 148.228 44.5095 147.949 44.8551C147.67 45.196 147.518 45.608 147.494 46.0909H145.79C145.818 45.3286 146.048 44.661 146.479 44.0881C146.91 43.5104 147.473 43.0606 148.169 42.7386C148.87 42.4167 149.639 42.2557 150.477 42.2557C151.377 42.2557 152.149 42.438 152.793 42.8026C153.437 43.1624 153.931 43.6383 154.277 44.2301C154.623 44.822 154.795 45.4612 154.795 46.1477C154.795 46.9669 154.58 47.6652 154.149 48.2429C153.723 48.8205 153.143 49.2206 152.409 49.4432V49.5568C153.328 49.7083 154.045 50.099 154.561 50.7287C155.077 51.3537 155.335 52.1278 155.335 53.0511C155.335 53.8419 155.12 54.5521 154.689 55.1818C154.263 55.8068 153.68 56.2992 152.942 56.6591C152.203 57.0189 151.363 57.1989 150.42 57.1989Z" fill="black"/>
<path d="M145.506 106V104.722L150.307 99.4659C150.87 98.8504 151.334 98.3153 151.699 97.8608C152.063 97.4015 152.333 96.9706 152.509 96.5682C152.688 96.161 152.778 95.7348 152.778 95.2898C152.778 94.7784 152.655 94.3357 152.409 93.9616C152.168 93.5876 151.836 93.2988 151.415 93.0952C150.993 92.8916 150.52 92.7898 149.994 92.7898C149.436 92.7898 148.948 92.9058 148.531 93.1378C148.119 93.3651 147.8 93.6847 147.572 94.0966C147.35 94.5085 147.239 94.9915 147.239 95.5455H145.562C145.562 94.6932 145.759 93.9451 146.152 93.3011C146.545 92.6572 147.08 92.1553 147.757 91.7955C148.439 91.4356 149.204 91.2557 150.051 91.2557C150.903 91.2557 151.659 91.4356 152.317 91.7955C152.975 92.1553 153.491 92.6406 153.865 93.2514C154.239 93.8622 154.426 94.5417 154.426 95.2898C154.426 95.8248 154.329 96.348 154.135 96.8594C153.946 97.366 153.614 97.9318 153.141 98.5568C152.672 99.1771 152.021 99.9347 151.188 100.83L147.92 104.324V104.438H154.682V106H145.506Z" fill="black"/>
<path d="M49.5057 155V153.722L54.3068 148.466C54.8703 147.85 55.3343 147.315 55.6989 146.861C56.0634 146.402 56.3333 145.971 56.5085 145.568C56.6884 145.161 56.7784 144.735 56.7784 144.29C56.7784 143.778 56.6553 143.336 56.4091 142.962C56.1676 142.588 55.8362 142.299 55.4148 142.095C54.9934 141.892 54.5199 141.79 53.9943 141.79C53.4356 141.79 52.9479 141.906 52.5312 142.138C52.1193 142.365 51.7997 142.685 51.5724 143.097C51.3499 143.509 51.2386 143.991 51.2386 144.545H49.5625C49.5625 143.693 49.759 142.945 50.152 142.301C50.545 141.657 51.08 141.155 51.7571 140.795C52.4389 140.436 53.2036 140.256 54.0511 140.256C54.9034 140.256 55.6586 140.436 56.3168 140.795C56.9749 141.155 57.491 141.641 57.8651 142.251C58.2391 142.862 58.4261 143.542 58.4261 144.29C58.4261 144.825 58.3291 145.348 58.1349 145.859C57.9455 146.366 57.6141 146.932 57.1406 147.557C56.6719 148.177 56.0208 148.935 55.1875 149.83L51.9205 153.324V153.438H58.6818V155H49.5057Z" fill="black"/>
<path d="M243.506 253V251.722L248.307 246.466C248.87 245.85 249.334 245.315 249.699 244.861C250.063 244.402 250.333 243.971 250.509 243.568C250.688 243.161 250.778 242.735 250.778 242.29C250.778 241.778 250.655 241.336 250.409 240.962C250.168 240.588 249.836 240.299 249.415 240.095C248.993 239.892 248.52 239.79 247.994 239.79C247.436 239.79 246.948 239.906 246.531 240.138C246.119 240.365 245.8 240.685 245.572 241.097C245.35 241.509 245.239 241.991 245.239 242.545H243.562C243.562 241.693 243.759 240.945 244.152 240.301C244.545 239.657 245.08 239.155 245.757 238.795C246.439 238.436 247.204 238.256 248.051 238.256C248.903 238.256 249.659 238.436 250.317 238.795C250.975 239.155 251.491 239.641 251.865 240.251C252.239 240.862 252.426 241.542 252.426 242.29C252.426 242.825 252.329 243.348 252.135 243.859C251.946 244.366 251.614 244.932 251.141 245.557C250.672 246.177 250.021 246.935 249.188 247.83L245.92 251.324V251.438H252.682V253H243.506Z" fill="black"/>
<path d="M49.5057 253V251.722L54.3068 246.466C54.8703 245.85 55.3343 245.315 55.6989 244.861C56.0634 244.402 56.3333 243.971 56.5085 243.568C56.6884 243.161 56.7784 242.735 56.7784 242.29C56.7784 241.778 56.6553 241.336 56.4091 240.962C56.1676 240.588 55.8362 240.299 55.4148 240.095C54.9934 239.892 54.5199 239.79 53.9943 239.79C53.4356 239.79 52.9479 239.906 52.5312 240.138C52.1193 240.365 51.7997 240.685 51.5724 241.097C51.3499 241.509 51.2386 241.991 51.2386 242.545H49.5625C49.5625 241.693 49.759 240.945 50.152 240.301C50.545 239.657 51.08 239.155 51.7571 238.795C52.4389 238.436 53.2036 238.256 54.0511 238.256C54.9034 238.256 55.6586 238.436 56.3168 238.795C56.9749 239.155 57.491 239.641 57.8651 240.251C58.2391 240.862 58.4261 241.542 58.4261 242.29C58.4261 242.825 58.3291 243.348 58.1349 243.859C57.9455 244.366 57.6141 244.932 57.1406 245.557C56.6719 246.177 56.0208 246.935 55.1875 247.83L51.9205 251.324V251.438H58.6818V253H49.5057Z" fill="black"/>
<path d="M145.506 253V251.722L150.307 246.466C150.87 245.85 151.334 245.315 151.699 244.861C152.063 244.402 152.333 243.971 152.509 243.568C152.688 243.161 152.778 242.735 152.778 242.29C152.778 241.778 152.655 241.336 152.409 240.962C152.168 240.588 151.836 240.299 151.415 240.095C150.993 239.892 150.52 239.79 149.994 239.79C149.436 239.79 148.948 239.906 148.531 240.138C148.119 240.365 147.8 240.685 147.572 241.097C147.35 241.509 147.239 241.991 147.239 242.545H145.562C145.562 241.693 145.759 240.945 146.152 240.301C146.545 239.657 147.08 239.155 147.757 238.795C148.439 238.436 149.204 238.256 150.051 238.256C150.903 238.256 151.659 238.436 152.317 238.795C152.975 239.155 153.491 239.641 153.865 240.251C154.239 240.862 154.426 241.542 154.426 242.29C154.426 242.825 154.329 243.348 154.135 243.859C153.946 244.366 153.614 244.932 153.141 245.557C152.672 246.177 152.021 246.935 151.188 247.83L147.92 251.324V251.438H154.682V253H145.506Z" fill="black"/>
<path d="M244.506 155V153.722L249.307 148.466C249.87 147.85 250.334 147.315 250.699 146.861C251.063 146.402 251.333 145.971 251.509 145.568C251.688 145.161 251.778 144.735 251.778 144.29C251.778 143.778 251.655 143.336 251.409 142.962C251.168 142.588 250.836 142.299 250.415 142.095C249.993 141.892 249.52 141.79 248.994 141.79C248.436 141.79 247.948 141.906 247.531 142.138C247.119 142.365 246.8 142.685 246.572 143.097C246.35 143.509 246.239 143.991 246.239 144.545H244.562C244.562 143.693 244.759 142.945 245.152 142.301C245.545 141.657 246.08 141.155 246.757 140.795C247.439 140.436 248.204 140.256 249.051 140.256C249.903 140.256 250.659 140.436 251.317 140.795C251.975 141.155 252.491 141.641 252.865 142.251C253.239 142.862 253.426 143.542 253.426 144.29C253.426 144.825 253.329 145.348 253.135 145.859C252.946 146.366 252.614 146.932 252.141 147.557C251.672 148.177 251.021 148.935 250.188 149.83L246.92 153.324V153.438H253.682V155H244.506Z" fill="black"/>
<path d="M482.506 229V227.722L487.307 222.466C487.87 221.85 488.334 221.315 488.699 220.861C489.063 220.402 489.333 219.971 489.509 219.568C489.688 219.161 489.778 218.735 489.778 218.29C489.778 217.778 489.655 217.336 489.409 216.962C489.168 216.588 488.836 216.299 488.415 216.095C487.993 215.892 487.52 215.79 486.994 215.79C486.436 215.79 485.948 215.906 485.531 216.138C485.119 216.365 484.8 216.685 484.572 217.097C484.35 217.509 484.239 217.991 484.239 218.545H482.562C482.562 217.693 482.759 216.945 483.152 216.301C483.545 215.657 484.08 215.155 484.757 214.795C485.439 214.436 486.204 214.256 487.051 214.256C487.903 214.256 488.659 214.436 489.317 214.795C489.975 215.155 490.491 215.641 490.865 216.251C491.239 216.862 491.426 217.542 491.426 218.29C491.426 218.825 491.329 219.348 491.135 219.859C490.946 220.366 490.614 220.932 490.141 221.557C489.672 222.177 489.021 222.935 488.188 223.83L484.92 227.324V227.438H491.682V229H482.506Z" fill="black"/>
<path d="M384.506 181V179.722L389.307 174.466C389.87 173.85 390.334 173.315 390.699 172.861C391.063 172.402 391.333 171.971 391.509 171.568C391.688 171.161 391.778 170.735 391.778 170.29C391.778 169.778 391.655 169.336 391.409 168.962C391.168 168.588 390.836 168.299 390.415 168.095C389.993 167.892 389.52 167.79 388.994 167.79C388.436 167.79 387.948 167.906 387.531 168.138C387.119 168.365 386.8 168.685 386.572 169.097C386.35 169.509 386.239 169.991 386.239 170.545H384.562C384.562 169.693 384.759 168.945 385.152 168.301C385.545 167.657 386.08 167.155 386.757 166.795C387.439 166.436 388.204 166.256 389.051 166.256C389.903 166.256 390.659 166.436 391.317 166.795C391.975 167.155 392.491 167.641 392.865 168.251C393.239 168.862 393.426 169.542 393.426 170.29C393.426 170.825 393.329 171.348 393.135 171.859C392.946 172.366 392.614 172.932 392.141 173.557C391.672 174.177 391.021 174.935 390.188 175.83L386.92 179.324V179.438H393.682V181H384.506Z" fill="black"/>
<path d="M199.42 106.199C198.483 106.199 197.647 106.038 196.913 105.716C196.184 105.394 195.604 104.946 195.173 104.374C194.747 103.796 194.515 103.126 194.477 102.364H196.267C196.305 102.832 196.466 103.237 196.75 103.578C197.034 103.914 197.406 104.175 197.865 104.359C198.324 104.544 198.833 104.636 199.392 104.636C200.017 104.636 200.571 104.527 201.054 104.31C201.537 104.092 201.916 103.789 202.19 103.401C202.465 103.012 202.602 102.562 202.602 102.051C202.602 101.516 202.47 101.045 202.205 100.638C201.939 100.226 201.551 99.9039 201.04 99.6719C200.528 99.4399 199.903 99.3239 199.165 99.3239H198V97.7614H199.165C199.742 97.7614 200.249 97.6572 200.685 97.4489C201.125 97.2405 201.468 96.947 201.714 96.5682C201.965 96.1894 202.091 95.7443 202.091 95.233C202.091 94.7405 201.982 94.312 201.764 93.9474C201.546 93.5829 201.239 93.2988 200.841 93.0952C200.448 92.8916 199.984 92.7898 199.449 92.7898C198.947 92.7898 198.473 92.8821 198.028 93.0668C197.588 93.2467 197.228 93.5095 196.949 93.8551C196.67 94.196 196.518 94.608 196.494 95.0909H194.79C194.818 94.3286 195.048 93.661 195.479 93.0881C195.91 92.5104 196.473 92.0606 197.169 91.7386C197.87 91.4167 198.639 91.2557 199.477 91.2557C200.377 91.2557 201.149 91.438 201.793 91.8026C202.437 92.1624 202.931 92.6383 203.277 93.2301C203.623 93.822 203.795 94.4612 203.795 95.1477C203.795 95.9669 203.58 96.6652 203.149 97.2429C202.723 97.8205 202.143 98.2206 201.409 98.4432V98.5568C202.328 98.7083 203.045 99.099 203.561 99.7287C204.077 100.354 204.335 101.128 204.335 102.051C204.335 102.842 204.12 103.552 203.689 104.182C203.263 104.807 202.68 105.299 201.942 105.659C201.203 106.019 200.363 106.199 199.42 106.199Z" fill="black"/>
<path d="M101.42 204.199C100.483 204.199 99.6473 204.038 98.9134 203.716C98.1842 203.394 97.6042 202.946 97.1733 202.374C96.7472 201.796 96.5152 201.126 96.4773 200.364H98.267C98.3049 200.832 98.4659 201.237 98.75 201.578C99.0341 201.914 99.4058 202.175 99.8651 202.359C100.324 202.544 100.833 202.636 101.392 202.636C102.017 202.636 102.571 202.527 103.054 202.31C103.537 202.092 103.916 201.789 104.19 201.401C104.465 201.012 104.602 200.562 104.602 200.051C104.602 199.516 104.47 199.045 104.205 198.638C103.939 198.226 103.551 197.904 103.04 197.672C102.528 197.44 101.903 197.324 101.165 197.324H100V195.761H101.165C101.742 195.761 102.249 195.657 102.685 195.449C103.125 195.241 103.468 194.947 103.714 194.568C103.965 194.189 104.091 193.744 104.091 193.233C104.091 192.741 103.982 192.312 103.764 191.947C103.546 191.583 103.239 191.299 102.841 191.095C102.448 190.892 101.984 190.79 101.449 190.79C100.947 190.79 100.473 190.882 100.028 191.067C99.5881 191.247 99.2282 191.509 98.9489 191.855C98.6695 192.196 98.518 192.608 98.4943 193.091H96.7898C96.8182 192.329 97.0478 191.661 97.4787 191.088C97.9096 190.51 98.473 190.061 99.169 189.739C99.8698 189.417 100.639 189.256 101.477 189.256C102.377 189.256 103.149 189.438 103.793 189.803C104.437 190.162 104.931 190.638 105.277 191.23C105.623 191.822 105.795 192.461 105.795 193.148C105.795 193.967 105.58 194.665 105.149 195.243C104.723 195.821 104.143 196.221 103.409 196.443V196.557C104.328 196.708 105.045 197.099 105.561 197.729C106.077 198.354 106.335 199.128 106.335 200.051C106.335 200.842 106.12 201.552 105.689 202.182C105.263 202.807 104.68 203.299 103.942 203.659C103.203 204.019 102.363 204.199 101.42 204.199Z" fill="black"/>
<path d="M151.42 155.199C150.483 155.199 149.647 155.038 148.913 154.716C148.184 154.394 147.604 153.946 147.173 153.374C146.747 152.796 146.515 152.126 146.477 151.364H148.267C148.305 151.832 148.466 152.237 148.75 152.578C149.034 152.914 149.406 153.175 149.865 153.359C150.324 153.544 150.833 153.636 151.392 153.636C152.017 153.636 152.571 153.527 153.054 153.31C153.537 153.092 153.916 152.789 154.19 152.401C154.465 152.012 154.602 151.562 154.602 151.051C154.602 150.516 154.47 150.045 154.205 149.638C153.939 149.226 153.551 148.904 153.04 148.672C152.528 148.44 151.903 148.324 151.165 148.324H150V146.761H151.165C151.742 146.761 152.249 146.657 152.685 146.449C153.125 146.241 153.468 145.947 153.714 145.568C153.965 145.189 154.091 144.744 154.091 144.233C154.091 143.741 153.982 143.312 153.764 142.947C153.546 142.583 153.239 142.299 152.841 142.095C152.448 141.892 151.984 141.79 151.449 141.79C150.947 141.79 150.473 141.882 150.028 142.067C149.588 142.247 149.228 142.509 148.949 142.855C148.67 143.196 148.518 143.608 148.494 144.091H146.79C146.818 143.329 147.048 142.661 147.479 142.088C147.91 141.51 148.473 141.061 149.169 140.739C149.87 140.417 150.639 140.256 151.477 140.256C152.377 140.256 153.149 140.438 153.793 140.803C154.437 141.162 154.931 141.638 155.277 142.23C155.623 142.822 155.795 143.461 155.795 144.148C155.795 144.967 155.58 145.665 155.149 146.243C154.723 146.821 154.143 147.221 153.409 147.443V147.557C154.328 147.708 155.045 148.099 155.561 148.729C156.077 149.354 156.335 150.128 156.335 151.051C156.335 151.842 156.12 152.552 155.689 153.182C155.263 153.807 154.68 154.299 153.942 154.659C153.203 155.019 152.363 155.199 151.42 155.199Z" fill="black"/>
<path d="M200.42 155.199C199.483 155.199 198.647 155.038 197.913 154.716C197.184 154.394 196.604 153.946 196.173 153.374C195.747 152.796 195.515 152.126 195.477 151.364H197.267C197.305 151.832 197.466 152.237 197.75 152.578C198.034 152.914 198.406 153.175 198.865 153.359C199.324 153.544 199.833 153.636 200.392 153.636C201.017 153.636 201.571 153.527 202.054 153.31C202.537 153.092 202.916 152.789 203.19 152.401C203.465 152.012 203.602 151.562 203.602 151.051C203.602 150.516 203.47 150.045 203.205 149.638C202.939 149.226 202.551 148.904 202.04 148.672C201.528 148.44 200.903 148.324 200.165 148.324H199V146.761H200.165C200.742 146.761 201.249 146.657 201.685 146.449C202.125 146.241 202.468 145.947 202.714 145.568C202.965 145.189 203.091 144.744 203.091 144.233C203.091 143.741 202.982 143.312 202.764 142.947C202.546 142.583 202.239 142.299 201.841 142.095C201.448 141.892 200.984 141.79 200.449 141.79C199.947 141.79 199.473 141.882 199.028 142.067C198.588 142.247 198.228 142.509 197.949 142.855C197.67 143.196 197.518 143.608 197.494 144.091H195.79C195.818 143.329 196.048 142.661 196.479 142.088C196.91 141.51 197.473 141.061 198.169 140.739C198.87 140.417 199.639 140.256 200.477 140.256C201.377 140.256 202.149 140.438 202.793 140.803C203.437 141.162 203.931 141.638 204.277 142.23C204.623 142.822 204.795 143.461 204.795 144.148C204.795 144.967 204.58 145.665 204.149 146.243C203.723 146.821 203.143 147.221 202.409 147.443V147.557C203.328 147.708 204.045 148.099 204.561 148.729C205.077 149.354 205.335 150.128 205.335 151.051C205.335 151.842 205.12 152.552 204.689 153.182C204.263 153.807 203.68 154.299 202.942 154.659C202.203 155.019 201.363 155.199 200.42 155.199Z" fill="black"/>
<path d="M249.42 204.199C248.483 204.199 247.647 204.038 246.913 203.716C246.184 203.394 245.604 202.946 245.173 202.374C244.747 201.796 244.515 201.126 244.477 200.364H246.267C246.305 200.832 246.466 201.237 246.75 201.578C247.034 201.914 247.406 202.175 247.865 202.359C248.324 202.544 248.833 202.636 249.392 202.636C250.017 202.636 250.571 202.527 251.054 202.31C251.537 202.092 251.916 201.789 252.19 201.401C252.465 201.012 252.602 200.562 252.602 200.051C252.602 199.516 252.47 199.045 252.205 198.638C251.939 198.226 251.551 197.904 251.04 197.672C250.528 197.44 249.903 197.324 249.165 197.324H248V195.761H249.165C249.742 195.761 250.249 195.657 250.685 195.449C251.125 195.241 251.468 194.947 251.714 194.568C251.965 194.189 252.091 193.744 252.091 193.233C252.091 192.741 251.982 192.312 251.764 191.947C251.546 191.583 251.239 191.299 250.841 191.095C250.448 190.892 249.984 190.79 249.449 190.79C248.947 190.79 248.473 190.882 248.028 191.067C247.588 191.247 247.228 191.509 246.949 191.855C246.67 192.196 246.518 192.608 246.494 193.091H244.79C244.818 192.329 245.048 191.661 245.479 191.088C245.91 190.51 246.473 190.061 247.169 189.739C247.87 189.417 248.639 189.256 249.477 189.256C250.377 189.256 251.149 189.438 251.793 189.803C252.437 190.162 252.931 190.638 253.277 191.23C253.623 191.822 253.795 192.461 253.795 193.148C253.795 193.967 253.58 194.665 253.149 195.243C252.723 195.821 252.143 196.221 251.409 196.443V196.557C252.328 196.708 253.045 197.099 253.561 197.729C254.077 198.354 254.335 199.128 254.335 200.051C254.335 200.842 254.12 201.552 253.689 202.182C253.263 202.807 252.68 203.299 251.942 203.659C251.203 204.019 250.363 204.199 249.42 204.199Z" fill="black"/>
<path d="M438.42 229.199C437.483 229.199 436.647 229.038 435.913 228.716C435.184 228.394 434.604 227.946 434.173 227.374C433.747 226.796 433.515 226.126 433.477 225.364H435.267C435.305 225.832 435.466 226.237 435.75 226.578C436.034 226.914 436.406 227.175 436.865 227.359C437.324 227.544 437.833 227.636 438.392 227.636C439.017 227.636 439.571 227.527 440.054 227.31C440.537 227.092 440.916 226.789 441.19 226.401C441.465 226.012 441.602 225.562 441.602 225.051C441.602 224.516 441.47 224.045 441.205 223.638C440.939 223.226 440.551 222.904 440.04 222.672C439.528 222.44 438.903 222.324 438.165 222.324H437V220.761H438.165C438.742 220.761 439.249 220.657 439.685 220.449C440.125 220.241 440.468 219.947 440.714 219.568C440.965 219.189 441.091 218.744 441.091 218.233C441.091 217.741 440.982 217.312 440.764 216.947C440.546 216.583 440.239 216.299 439.841 216.095C439.448 215.892 438.984 215.79 438.449 215.79C437.947 215.79 437.473 215.882 437.028 216.067C436.588 216.247 436.228 216.509 435.949 216.855C435.67 217.196 435.518 217.608 435.494 218.091H433.79C433.818 217.329 434.048 216.661 434.479 216.088C434.91 215.51 435.473 215.061 436.169 214.739C436.87 214.417 437.639 214.256 438.477 214.256C439.377 214.256 440.149 214.438 440.793 214.803C441.437 215.162 441.931 215.638 442.277 216.23C442.623 216.822 442.795 217.461 442.795 218.148C442.795 218.967 442.58 219.665 442.149 220.243C441.723 220.821 441.143 221.221 440.409 221.443V221.557C441.328 221.708 442.045 222.099 442.561 222.729C443.077 223.354 443.335 224.128 443.335 225.051C443.335 225.842 443.12 226.552 442.689 227.182C442.263 227.807 441.68 228.299 440.942 228.659C440.203 229.019 439.363 229.199 438.42 229.199Z" fill="black"/>
<path d="M389.42 279.199C388.483 279.199 387.647 279.038 386.913 278.716C386.184 278.394 385.604 277.946 385.173 277.374C384.747 276.796 384.515 276.126 384.477 275.364H386.267C386.305 275.832 386.466 276.237 386.75 276.578C387.034 276.914 387.406 277.175 387.865 277.359C388.324 277.544 388.833 277.636 389.392 277.636C390.017 277.636 390.571 277.527 391.054 277.31C391.537 277.092 391.916 276.789 392.19 276.401C392.465 276.012 392.602 275.562 392.602 275.051C392.602 274.516 392.47 274.045 392.205 273.638C391.939 273.226 391.551 272.904 391.04 272.672C390.528 272.44 389.903 272.324 389.165 272.324H388V270.761H389.165C389.742 270.761 390.249 270.657 390.685 270.449C391.125 270.241 391.468 269.947 391.714 269.568C391.965 269.189 392.091 268.744 392.091 268.233C392.091 267.741 391.982 267.312 391.764 266.947C391.546 266.583 391.239 266.299 390.841 266.095C390.448 265.892 389.984 265.79 389.449 265.79C388.947 265.79 388.473 265.882 388.028 266.067C387.588 266.247 387.228 266.509 386.949 266.855C386.67 267.196 386.518 267.608 386.494 268.091H384.79C384.818 267.329 385.048 266.661 385.479 266.088C385.91 265.51 386.473 265.061 387.169 264.739C387.87 264.417 388.639 264.256 389.477 264.256C390.377 264.256 391.149 264.438 391.793 264.803C392.437 265.162 392.931 265.638 393.277 266.23C393.623 266.822 393.795 267.461 393.795 268.148C393.795 268.967 393.58 269.665 393.149 270.243C392.723 270.821 392.143 271.221 391.409 271.443V271.557C392.328 271.708 393.045 272.099 393.561 272.729C394.077 273.354 394.335 274.128 394.335 275.051C394.335 275.842 394.12 276.552 393.689 277.182C393.263 277.807 392.68 278.299 391.942 278.659C391.203 279.019 390.363 279.199 389.42 279.199Z" fill="black"/>
<path d="M194.506 57V55.7216L199.307 50.4659C199.87 49.8504 200.334 49.3153 200.699 48.8608C201.063 48.4015 201.333 47.9706 201.509 47.5682C201.688 47.161 201.778 46.7348 201.778 46.2898C201.778 45.7784 201.655 45.3357 201.409 44.9616C201.168 44.5876 200.836 44.2988 200.415 44.0952C199.993 43.8916 199.52 43.7898 198.994 43.7898C198.436 43.7898 197.948 43.9058 197.531 44.1378C197.119 44.3651 196.8 44.6847 196.572 45.0966C196.35 45.5085 196.239 45.9915 196.239 46.5455H194.562C194.562 45.6932 194.759 44.9451 195.152 44.3011C195.545 43.6572 196.08 43.1553 196.757 42.7955C197.439 42.4356 198.204 42.2557 199.051 42.2557C199.903 42.2557 200.659 42.4356 201.317 42.7955C201.975 43.1553 202.491 43.6406 202.865 44.2514C203.239 44.8622 203.426 45.5417 203.426 46.2898C203.426 46.8248 203.329 47.348 203.135 47.8594C202.946 48.366 202.614 48.9318 202.141 49.5568C201.672 50.1771 201.021 50.9347 200.188 51.8295L196.92 55.3239V55.4375H203.682V57H194.506Z" fill="black"/>
<path d="M249.619 42.4545V57H247.858V44.3011H247.773L244.222 46.6591V44.8693L247.858 42.4545H249.619Z" fill="black"/>
</svg>
