<svg width="183" height="68" viewBox="0 0 183 68" fill="none" xmlns="http://www.w3.org/2000/svg">
<g clip-path="url(#clip0_1295_4344)">
<path d="M39.7906 56.0316L43.6696 45.7387H42.8682C41.6179 49.0839 38.2197 51.2711 34.533 52.2361C33.8598 52.3969 30.7181 53.2332 24.5629 53.2332H5.2317L21.5494 34.0305C21.7738 33.7731 21.8379 33.6766 21.8379 33.5158C21.8379 33.4515 21.8379 33.355 21.6135 33.0333L6.67433 12.5439H24.2423C28.5381 12.5439 31.4554 12.9943 31.7439 13.0586C33.4751 13.3159 36.2642 13.8627 38.7968 15.471C39.5982 15.9856 41.7782 17.4331 42.8682 20.0385H43.6696L39.7906 11H1.89763C1.16029 11 1.12823 11.0322 1.03206 11.2252C1 11.3217 1 11.9328 1 12.2866L17.9589 35.5744L1.35264 55.0988C1.03206 55.4848 1.03206 55.6456 1.03206 55.6778C1.03206 56.0316 1.32058 56.0316 1.89763 56.0316H39.7906Z" fill="black"/>
<path d="M24.8613 65.4047C24.8613 64.9329 24.5193 64.5898 24.0278 64.5898C23.4721 64.5898 22.8523 65.1045 22.8523 65.7478C22.8523 66.2196 23.1943 66.5627 23.6858 66.5627C24.2415 66.5627 24.8613 66.048 24.8613 65.4047ZM21.741 73.2745L20.5869 76.2337C20.48 76.5554 20.3731 76.8127 20.3731 77.1773C20.3731 78.228 21.1853 79 22.318 79C24.3911 79 25.2674 75.9979 25.2674 75.7191C25.2674 75.5047 25.0964 75.4403 24.9468 75.4403C24.6903 75.4403 24.6476 75.5904 24.5835 75.8049C24.0919 77.5204 23.2156 78.3995 22.3608 78.3995C22.1043 78.3995 21.8478 78.2923 21.8478 77.7133C21.8478 77.1987 21.9974 76.8127 22.2753 76.148C22.489 75.569 22.7027 74.99 22.9378 74.411L23.6003 72.6741C23.7927 72.1809 24.0492 71.5161 24.0492 71.1516C24.0492 70.0794 23.1943 69.3289 22.1043 69.3289C20.0312 69.3289 19.1335 72.331 19.1335 72.6098C19.1335 72.8028 19.2832 72.8885 19.4541 72.8885C19.732 72.8885 19.7533 72.7599 19.8175 72.5454C20.4159 70.5083 21.399 69.9293 22.0402 69.9293C22.3394 69.9293 22.5531 70.0365 22.5531 70.6369C22.5531 70.8514 22.5317 71.1516 22.318 71.7949L21.741 73.2745Z" fill="black"/>
<path d="M61.8825 39.5952C62.5877 41.5252 64.5754 41.879 65.7936 41.879C68.23 41.879 69.6726 39.7561 70.5703 37.5367C71.3076 35.6711 72.4938 31.4252 72.4938 29.5275C72.4938 27.5654 71.5 27.3724 71.2114 27.3724C70.442 27.3724 69.7367 28.1443 69.7367 28.7877C69.7367 29.1736 69.9612 29.3988 70.1215 29.5275C70.41 29.817 71.2435 30.6854 71.2435 32.358C71.2435 33.4516 70.3459 36.4752 69.6726 37.987C68.775 39.9491 67.5888 41.2357 65.9218 41.2357C64.1265 41.2357 63.5495 39.8847 63.5495 38.4051C63.5495 37.4723 63.838 36.3465 63.9663 35.7997L65.3127 30.3959C65.473 29.7526 65.7615 28.6268 65.7615 28.4982C65.7615 28.0157 65.3768 27.694 64.8959 27.694C63.9663 27.694 63.7418 28.4982 63.5495 29.2701C63.2289 30.5246 61.8825 35.9606 61.7542 36.6682C61.626 37.215 61.626 37.5688 61.626 38.2765C61.626 39.0484 60.6001 40.2707 60.5681 40.3351C60.2154 40.6889 59.7025 41.2357 58.7087 41.2357C56.1761 41.2357 56.1761 38.8233 56.1761 38.2765C56.1761 37.2472 56.4005 35.8319 57.8431 32.0042C58.2278 31.0071 58.3881 30.5889 58.3881 29.9456C58.3881 28.5947 57.4264 27.3724 55.8555 27.3724C52.9061 27.3724 51.72 32.0364 51.72 32.2937C51.72 32.4224 51.8482 32.5832 52.0726 32.5832C52.3611 32.5832 52.3932 32.4545 52.5214 32.0042C53.3229 29.1736 54.5732 28.0157 55.7593 28.0157C56.0799 28.0157 56.5928 28.0478 56.5928 29.0771C56.5928 29.238 56.5928 29.9134 56.0478 31.3287C54.5411 35.3494 54.2205 36.6682 54.2205 37.8905C54.2205 41.2678 56.9775 41.879 58.6125 41.879C59.1575 41.879 60.6001 41.879 61.8825 39.5952Z" fill="black"/>
<path d="M79.6621 33.0013C79.6621 32.5295 79.3201 32.1864 78.8286 32.1864C78.2729 32.1864 77.6531 32.701 77.6531 33.3444C77.6531 33.8161 77.995 34.1592 78.4866 34.1592C79.0423 34.1592 79.6621 33.6446 79.6621 33.0013ZM76.5417 40.8711L75.3876 43.8303C75.2808 44.1519 75.1739 44.4093 75.1739 44.7738C75.1739 45.8246 75.9861 46.5965 77.1188 46.5965C79.1919 46.5965 80.0682 43.5944 80.0682 43.3156C80.0682 43.1012 79.8972 43.0369 79.7476 43.0369C79.4911 43.0369 79.4484 43.187 79.3842 43.4014C78.8927 45.1169 78.0164 45.9961 77.1615 45.9961C76.9051 45.9961 76.6486 45.8889 76.6486 45.3099C76.6486 44.7953 76.7982 44.4093 77.076 43.7445C77.2898 43.1655 77.5035 42.5866 77.7386 42.0076L78.4011 40.2707C78.5935 39.7774 78.8499 39.1127 78.8499 38.7482C78.8499 37.676 77.995 36.9254 76.9051 36.9254C74.832 36.9254 73.9343 39.9276 73.9343 40.2063C73.9343 40.3993 74.0839 40.4851 74.2549 40.4851C74.5328 40.4851 74.5541 40.3564 74.6182 40.142C75.2167 38.1048 76.1998 37.5259 76.841 37.5259C77.1402 37.5259 77.3539 37.6331 77.3539 38.2335C77.3539 38.4479 77.3325 38.7482 77.1188 39.3915L76.5417 40.8711Z" fill="black"/>
<path d="M95.6392 33.516C95.6392 32.5832 94.8698 31.8112 93.9401 31.8112C93.0104 31.8112 92.241 32.5832 92.241 33.516C92.241 34.4488 93.0104 35.2208 93.9401 35.2208C94.8698 35.2208 95.6392 34.4488 95.6392 33.516Z" fill="black"/>
<path d="M120.709 28.4338C119.683 28.6268 119.298 29.3988 119.298 30.0099C119.298 30.7819 119.907 31.0392 120.356 31.0392C121.318 31.0392 121.991 30.2029 121.991 29.3345C121.991 27.9835 120.452 27.3724 119.106 27.3724C117.15 27.3724 116.06 29.3023 115.772 29.9134C115.035 27.501 113.047 27.3724 112.47 27.3724C109.2 27.3724 107.469 31.5861 107.469 32.2937C107.469 32.4224 107.597 32.5832 107.821 32.5832C108.078 32.5832 108.142 32.3902 108.206 32.2615C109.296 28.6912 111.444 28.0157 112.374 28.0157C113.816 28.0157 114.105 29.3666 114.105 30.1386C114.105 30.8462 113.913 31.5861 113.528 33.13L112.438 37.5367C111.957 39.4666 111.027 41.2357 109.328 41.2357C109.168 41.2357 108.366 41.2357 107.693 40.8175C108.847 40.5924 109.104 39.6274 109.104 39.2414C109.104 38.5981 108.623 38.2121 108.014 38.2121C107.244 38.2121 106.411 38.8876 106.411 39.9169C106.411 41.2678 107.918 41.879 109.296 41.879C110.835 41.879 111.925 40.6567 112.598 39.3379C113.111 41.2357 114.714 41.879 115.9 41.879C119.17 41.879 120.901 37.6653 120.901 36.9577C120.901 36.7969 120.773 36.6682 120.581 36.6682C120.292 36.6682 120.26 36.829 120.164 37.0863C119.298 39.9169 117.439 41.2357 115.996 41.2357C114.874 41.2357 114.265 40.3994 114.265 39.0806C114.265 38.373 114.393 37.8583 114.906 35.7354L116.028 31.3609C116.509 29.431 117.599 28.0157 119.074 28.0157C119.138 28.0157 120.036 28.0157 120.709 28.4338Z" fill="black"/>
<path d="M129.72 33.0013C129.72 32.5295 129.378 32.1864 128.886 32.1864C128.331 32.1864 127.711 32.701 127.711 33.3444C127.711 33.8161 128.053 34.1592 128.544 34.1592C129.1 34.1592 129.72 33.6446 129.72 33.0013ZM126.6 40.8711L125.445 43.8303C125.339 44.1519 125.232 44.4093 125.232 44.7738C125.232 45.8246 126.044 46.5965 127.177 46.5965C129.25 46.5965 130.126 43.5944 130.126 43.3156C130.126 43.1012 129.955 43.0369 129.805 43.0369C129.549 43.0369 129.506 43.187 129.442 43.4014C128.951 45.1169 128.074 45.9961 127.219 45.9961C126.963 45.9961 126.706 45.8889 126.706 45.3099C126.706 44.7953 126.856 44.4093 127.134 43.7445C127.348 43.1655 127.561 42.5866 127.796 42.0076L128.459 40.2707C128.651 39.7774 128.908 39.1127 128.908 38.7482C128.908 37.676 128.053 36.9254 126.963 36.9254C124.89 36.9254 123.992 39.9276 123.992 40.2063C123.992 40.3993 124.142 40.4851 124.313 40.4851C124.591 40.4851 124.612 40.3564 124.676 40.142C125.275 38.1048 126.258 37.5259 126.899 37.5259C127.198 37.5259 127.412 37.6331 127.412 38.2335C127.412 38.4479 127.39 38.7482 127.177 39.3915L126.6 40.8711Z" fill="black"/>
<path d="M152.333 34.1271H161.181C161.63 34.1271 162.207 34.1271 162.207 33.5481C162.207 32.937 161.662 32.937 161.181 32.937H152.333V24.0593C152.333 23.609 152.333 23.03 151.756 23.03C151.147 23.03 151.147 23.5768 151.147 24.0593V32.937H142.299C141.85 32.937 141.273 32.937 141.273 33.516C141.273 34.1271 141.818 34.1271 142.299 34.1271H151.147V43.0048C151.147 43.4551 151.147 44.0341 151.724 44.0341C152.333 44.0341 152.333 43.4873 152.333 43.0048V34.1271Z" fill="black"/>
<path d="M178.486 20.0386C178.518 19.91 178.582 19.717 178.582 19.5562C178.582 19.2345 178.262 19.2345 178.198 19.2345C178.165 19.2345 177.011 19.331 176.434 19.3953C175.889 19.4275 175.408 19.4918 174.831 19.524C174.062 19.5883 173.838 19.6205 173.838 20.1995C173.838 20.5211 174.158 20.5211 174.479 20.5211C176.114 20.5211 176.114 20.8106 176.114 21.1323C176.114 21.3574 175.857 22.2902 175.729 22.8692L174.96 25.9571C174.639 27.2437 172.812 34.5453 172.683 35.1242C172.523 35.9284 172.523 36.4752 172.523 36.8933C172.523 40.1742 174.351 41.879 176.434 41.879C180.153 41.879 184 37.0863 184 32.4223C184 29.4631 182.333 27.3724 179.929 27.3724C178.262 27.3724 176.755 28.7555 176.146 29.3988L178.486 20.0386ZM176.466 41.2357C175.441 41.2357 174.318 40.4637 174.318 37.9548C174.318 36.8933 174.415 36.2822 174.992 34.0306C175.088 33.6125 175.601 31.5539 175.729 31.1357C175.793 30.8784 177.685 28.0157 179.865 28.0157C181.275 28.0157 181.916 29.4309 181.916 31.1035C181.916 32.6475 181.019 36.2822 180.217 37.9548C179.416 39.6917 177.941 41.2357 176.466 41.2357Z" fill="black"/>
</g>
<defs>
<clipPath id="clip0_1295_4344">
<rect width="183" height="68" fill="white"/>
</clipPath>
</defs>
</svg>
