<svg width="211" height="125" viewBox="0 0 211 125" fill="none" xmlns="http://www.w3.org/2000/svg">
<g clip-path="url(#clip0_1340_2186)">
<path d="M2.68386 29.2941C3.65653 27.7811 3.96274 26.6283 4.1969 25.6736C4.82734 23.1879 5.51181 21.0264 6.62858 19.7836C6.84473 19.5494 6.98883 19.3873 7.56523 19.3873C8.80809 19.3873 8.84412 20.6301 8.84412 20.8823C8.84412 21.2065 8.75405 21.4587 8.75405 21.5488C8.75405 21.6749 8.86213 21.6749 8.88014 21.6749C9.16834 21.6749 9.65467 21.4767 10.105 21.1525C10.4292 20.9003 10.5913 20.7202 10.5913 19.9817C10.5913 19.009 10.087 18.2705 9.07828 18.2705C8.50188 18.2705 6.91678 18.4146 5.15156 20.1978C3.71057 21.6749 2.86398 24.9171 2.52174 26.268C2.19752 27.5109 2.05342 28.0693 1.51305 29.15C1.38696 29.3662 0.918636 30.1587 0.66646 30.3929C0.180125 30.8432 0 31.1674 0 31.2575C0 31.2935 0.0360259 31.3656 0.162113 31.3656C0.234162 31.3656 0.612424 31.2935 1.08075 30.9873C1.38696 30.8072 1.42298 30.7712 1.83727 30.3389C2.73789 30.3569 3.36833 30.519 4.50311 30.8432C5.42175 31.0954 6.34038 31.3656 7.25902 31.3656C8.71803 31.3656 10.195 30.2668 10.7714 29.4743C11.1317 28.9879 11.2398 28.5376 11.2398 28.4836C11.2398 28.3575 11.1317 28.3575 11.1137 28.3575C10.8255 28.3575 10.3932 28.5556 10.087 28.7718C9.60064 29.078 9.56461 29.1861 9.45654 29.4923C9.36648 29.7805 9.2584 29.9246 9.18635 30.0326C9.04225 30.2488 9.02424 30.2488 8.75405 30.2488C7.88946 30.2488 6.98883 29.9786 5.80001 29.6544C5.29566 29.5103 4.30498 29.2221 3.40435 29.2221C3.17019 29.2221 2.91802 29.2401 2.68386 29.2941Z" fill="black"/>
<path d="M29.027 25.1333C29.2792 25.1333 29.6034 25.1333 29.6034 24.809C29.6034 24.4668 29.2972 24.4668 29.027 24.4668H18.4177C18.1655 24.4668 17.8413 24.4668 17.8413 24.791C17.8413 25.1333 18.1475 25.1333 18.4177 25.1333H29.027ZM29.027 28.4836C29.2792 28.4836 29.6034 28.4836 29.6034 28.1594C29.6034 27.8171 29.2972 27.8171 29.027 27.8171H18.4177C18.1655 27.8171 17.8413 27.8171 17.8413 28.1413C17.8413 28.4836 18.1475 28.4836 18.4177 28.4836H29.027Z" fill="black"/>
<path d="M47.4599 26.8265C47.7661 26.8265 48.0903 26.8265 48.0903 26.4662C48.0903 26.106 47.7661 26.106 47.4599 26.106H37.7152C37.4089 26.106 37.0847 26.106 37.0847 26.4662C37.0847 26.8265 37.4089 26.8265 37.7152 26.8265H47.4599Z" fill="black"/>
<path d="M60.1813 7.23796C60.1813 6.82368 60.1813 6.80566 59.821 6.80566C59.3887 7.292 58.4881 7.95846 56.6328 7.95846V8.48082C57.0471 8.48082 57.9477 8.48082 58.9384 8.0125V17.397C58.9384 18.0454 58.8844 18.2616 57.2993 18.2616H56.7409V18.7839C57.2272 18.7479 58.9744 18.7479 59.5688 18.7479C60.1633 18.7479 61.8924 18.7479 62.3788 18.7839V18.2616H61.8204C60.2353 18.2616 60.1813 18.0454 60.1813 17.397V7.23796Z" fill="black"/>
<path d="M67.4054 26.106H51.4006V26.8264H67.4054V26.106Z" fill="black"/>
<path d="M64.7299 32.9138C64.928 32.1392 65.2162 31.5989 66.5852 31.5448C66.6392 31.5448 66.8554 31.5268 66.8554 31.2206C66.8554 31.0225 66.6932 31.0225 66.6212 31.0225C66.2609 31.0225 65.3423 31.0585 64.9821 31.0585H64.1175C63.8653 31.0585 63.5411 31.0225 63.2889 31.0225C63.1808 31.0225 62.9647 31.0225 62.9647 31.3647C62.9647 31.5448 63.1088 31.5448 63.2349 31.5448C64.3156 31.5808 64.3877 31.9951 64.3877 32.3194C64.3877 32.4815 64.3696 32.5355 64.3156 32.7877L62.2802 40.9113L58.4255 31.3287C58.2994 31.0405 58.2814 31.0225 57.8852 31.0225H55.6876C55.3274 31.0225 55.1653 31.0225 55.1653 31.3647C55.1653 31.5448 55.2914 31.5448 55.6336 31.5448C55.7237 31.5448 56.7864 31.5448 56.7864 31.7069C56.7864 31.743 56.7504 31.8871 56.7324 31.9411L54.3367 41.4877C54.1206 42.3703 53.6883 42.7486 52.4994 42.8026C52.4094 42.8026 52.2292 42.8206 52.2292 43.1448C52.2292 43.325 52.4094 43.325 52.4634 43.325C52.8237 43.325 53.7423 43.2889 54.1025 43.2889H54.9671C55.2193 43.2889 55.5255 43.325 55.7777 43.325C55.9038 43.325 56.1019 43.325 56.1019 42.9827C56.1019 42.8206 55.9218 42.8026 55.8498 42.8026C55.2553 42.7846 54.6789 42.6765 54.6789 42.0281C54.6789 41.884 54.715 41.7219 54.751 41.5778L57.1827 31.9411C57.2907 32.1212 57.2907 32.1572 57.3628 32.3194L61.6498 43.0007C61.7398 43.2169 61.7758 43.325 61.938 43.325C62.1181 43.325 62.1361 43.2709 62.2081 42.9647L64.7299 32.9138Z" fill="black"/>
<path d="M89.0254 1.56086C89.1695 0.972452 89.4337 0.684252 90.2983 0.648227C90.4184 0.648227 90.5144 0.576177 90.5144 0.42007C90.5144 0.348019 90.4544 0.251953 90.3343 0.251953C90.2502 0.251953 90.0221 0.287979 89.1335 0.287979C88.1728 0.287979 88.0167 0.251953 87.9086 0.251953C87.7165 0.251953 87.6805 0.384046 87.6805 0.480112C87.6805 0.636219 87.8366 0.648227 87.9446 0.648227C88.6772 0.672244 88.6772 0.996467 88.6772 1.16458C88.6772 1.22463 88.6772 1.28467 88.6291 1.4768L87.3082 6.73644L84.4142 0.468102C84.3181 0.251953 84.2941 0.251953 84.0059 0.251953H82.4448C82.2287 0.251953 82.0726 0.251953 82.0726 0.480112C82.0726 0.648228 82.2167 0.648227 82.4689 0.648227C82.5649 0.648227 82.9252 0.648227 83.2014 0.720278L81.5923 7.16874C81.4482 7.76915 81.1359 8.03333 80.3314 8.05735C80.2593 8.05735 80.1152 8.06936 80.1152 8.28551C80.1152 8.35756 80.1753 8.45362 80.2954 8.45362C80.3434 8.45362 80.6196 8.4176 81.4842 8.4176C82.4328 8.4176 82.613 8.45362 82.721 8.45362C82.7691 8.45362 82.9492 8.45362 82.9492 8.22547C82.9492 8.08137 82.8171 8.05735 82.733 8.05735C82.3007 8.04534 81.9405 7.97329 81.9405 7.553C81.9405 7.49296 81.9765 7.32484 81.9765 7.31284L83.5496 1.0445H83.5616L86.8999 8.23747C86.984 8.42961 86.996 8.45362 87.1281 8.45362C87.2962 8.45362 87.3082 8.40559 87.3562 8.20145L89.0254 1.56086Z" fill="black"/>
<path d="M95.0124 39.0749L97.1919 33.3109H96.7416C96.0391 35.1842 94.1297 36.409 92.0583 36.9494C91.6801 37.0394 89.9148 37.5078 86.4564 37.5078H75.5949L84.7633 26.7543C84.8894 26.6102 84.9254 26.5562 84.9254 26.4661C84.9254 26.4301 84.9254 26.3761 84.7993 26.196L76.4055 14.722H86.2763C88.69 14.722 90.3291 14.9742 90.4912 15.0102C91.4639 15.1543 93.031 15.4605 94.454 16.3612C94.9043 16.6494 96.1291 17.4599 96.7416 18.9189H97.1919L95.0124 13.8574H73.7216C73.3073 13.8574 73.2893 13.8754 73.2353 13.9835C73.2173 14.0375 73.2173 14.3798 73.2173 14.5779L82.7459 27.6189L73.4154 38.5525C73.2353 38.7686 73.2353 38.8587 73.2353 38.8767C73.2353 39.0749 73.3974 39.0749 73.7216 39.0749H95.0124Z" fill="black"/>
<path d="M78.4726 44.324C78.4726 44.0598 78.2805 43.8677 78.0043 43.8677C77.6921 43.8677 77.3438 44.1559 77.3438 44.5161C77.3438 44.7803 77.536 44.9724 77.8122 44.9724C78.1244 44.9724 78.4726 44.6842 78.4726 44.324ZM76.7194 48.731L76.071 50.3882C76.0109 50.5683 75.9509 50.7124 75.9509 50.9166C75.9509 51.505 76.4072 51.9373 77.0436 51.9373C78.2084 51.9373 78.7008 50.2561 78.7008 50.1C78.7008 49.9799 78.6047 49.9439 78.5207 49.9439C78.3766 49.9439 78.3525 50.0279 78.3165 50.148C78.0403 51.1087 77.548 51.601 77.0676 51.601C76.9235 51.601 76.7795 51.541 76.7795 51.2168C76.7795 50.9286 76.8635 50.7124 77.0196 50.3402C77.1397 50.0159 77.2598 49.6917 77.3919 49.3675L77.7641 48.3948C77.8722 48.1186 78.0163 47.7464 78.0163 47.5422C78.0163 46.9418 77.536 46.5215 76.9235 46.5215C75.7587 46.5215 75.2544 48.2027 75.2544 48.3588C75.2544 48.4669 75.3385 48.5149 75.4345 48.5149C75.5906 48.5149 75.6026 48.4428 75.6387 48.3228C75.9749 47.182 76.5273 46.8577 76.8875 46.8577C77.0556 46.8577 77.1757 46.9178 77.1757 47.254C77.1757 47.3741 77.1637 47.5422 77.0436 47.9025L76.7194 48.731Z" fill="black"/>
<path d="M88.0161 47.8185C88.1962 47.8185 88.4364 47.8185 88.4364 47.5423C88.4364 47.2661 88.1482 47.2661 87.9681 47.2661H80.4149C80.2347 47.2661 79.9465 47.2661 79.9465 47.5423C79.9465 47.8185 80.1867 47.8185 80.3668 47.8185H88.0161ZM87.9681 50.3643C88.1482 50.3643 88.4364 50.3643 88.4364 50.0881C88.4364 49.8119 88.1962 49.8119 88.0161 49.8119H80.3668C80.1867 49.8119 79.9465 49.8119 79.9465 50.0881C79.9465 50.3643 80.2347 50.3643 80.4149 50.3643H87.9681Z" fill="black"/>
<path d="M92.9323 44.1678C92.9323 43.8436 92.9082 43.8315 92.584 43.8315C92.0917 44.3119 91.4552 44.6001 90.3145 44.6001V44.9963C90.6387 44.9963 91.2871 44.9963 91.9836 44.6721V50.8324C91.9836 51.2767 91.9476 51.4208 90.8068 51.4208H90.3865V51.8171C90.8788 51.781 91.9116 51.781 92.4519 51.781C92.9923 51.781 94.037 51.781 94.5294 51.8171V51.4208H94.1091C92.9683 51.4208 92.9323 51.2767 92.9323 50.8324V44.1678Z" fill="black"/>
<path d="M118.825 0.324225C118.837 0.276192 118.862 0.204141 118.862 0.144099C118.862 0.0600424 118.789 0 118.705 0C118.621 0 118.585 0.0360246 118.489 0.144099L117.649 1.06874C117.541 0.912632 116.904 0 115.499 0C112.713 0 109.903 2.58178 109.903 5.34369C109.903 7.43314 111.488 8.70602 113.398 8.70602C114.971 8.70602 116.304 7.74535 116.952 6.80871C117.348 6.2203 117.505 5.6439 117.505 5.57185C117.505 5.46378 117.433 5.41575 117.324 5.41575C117.18 5.41575 117.156 5.47579 117.12 5.60788C116.616 7.26502 114.995 8.30975 113.554 8.30975C112.329 8.30975 111.044 7.58925 111.044 5.75198C111.044 5.36771 111.176 3.36232 112.509 1.86129C113.41 0.852589 114.635 0.396274 115.583 0.396274C117.096 0.396274 117.721 1.60911 117.721 2.7499C117.721 2.91802 117.673 3.14617 117.673 3.29028C117.673 3.44638 117.829 3.44638 117.877 3.44638C118.033 3.44638 118.057 3.39835 118.105 3.1822L118.825 0.324225Z" fill="black"/>
<path d="M124.033 39.0749L126.212 33.3109H125.762C125.059 35.1842 123.15 36.409 121.079 36.9494C120.7 37.0394 118.935 37.5078 115.477 37.5078H104.615L113.784 26.7543C113.91 26.6102 113.946 26.5562 113.946 26.4661C113.946 26.4301 113.946 26.3761 113.82 26.196L105.426 14.722H115.297C117.71 14.722 119.349 14.9742 119.511 15.0102C120.484 15.1543 122.051 15.4605 123.474 16.3612C123.925 16.6494 125.149 17.4599 125.762 18.9189H126.212L124.033 13.8574H102.742C102.328 13.8574 102.31 13.8754 102.256 13.9835C102.238 14.0375 102.238 14.3798 102.238 14.5779L111.766 27.6189L102.436 38.5525C102.256 38.7686 102.256 38.8587 102.256 38.8767C102.256 39.0749 102.418 39.0749 102.742 39.0749H124.033Z" fill="black"/>
<path d="M108.12 44.324C108.12 44.0958 107.94 43.8677 107.651 43.8677C107.291 43.8677 106.979 44.2039 106.979 44.5161C106.979 44.7443 107.159 44.9724 107.447 44.9724C107.808 44.9724 108.12 44.6362 108.12 44.324ZM105.61 52.4176C105.43 53.1501 104.841 53.9306 104.109 53.9306C103.917 53.9306 103.737 53.8826 103.713 53.8706C104.085 53.6905 104.133 53.3662 104.133 53.2582C104.133 52.97 103.917 52.8139 103.665 52.8139C103.316 52.8139 102.992 53.1141 102.992 53.5103C102.992 53.9667 103.436 54.2669 104.121 54.2669C104.853 54.2669 106.174 53.8106 106.535 52.3696L107.615 48.0706C107.651 47.9265 107.675 47.8304 107.675 47.6503C107.675 46.9898 107.147 46.5215 106.451 46.5215C105.178 46.5215 104.433 48.2027 104.433 48.3588C104.433 48.4669 104.517 48.5149 104.613 48.5149C104.745 48.5149 104.757 48.4789 104.841 48.2987C105.202 47.4702 105.814 46.8577 106.415 46.8577C106.667 46.8577 106.811 47.0259 106.811 47.4221C106.811 47.5903 106.775 47.7584 106.739 47.9265L105.61 52.4176Z" fill="black"/>
<path d="M117.79 47.8185C117.97 47.8185 118.211 47.8185 118.211 47.5423C118.211 47.2661 117.922 47.2661 117.742 47.2661H110.189C110.009 47.2661 109.721 47.2661 109.721 47.5423C109.721 47.8185 109.961 47.8185 110.141 47.8185H117.79ZM117.742 50.3643C117.922 50.3643 118.211 50.3643 118.211 50.0881C118.211 49.8119 117.97 49.8119 117.79 49.8119H110.141C109.961 49.8119 109.721 49.8119 109.721 50.0881C109.721 50.3643 110.009 50.3643 110.189 50.3643H117.742Z" fill="black"/>
<path d="M122.706 44.1678C122.706 43.8436 122.682 43.8315 122.358 43.8315C121.866 44.3119 121.229 44.6001 120.089 44.6001V44.9963C120.413 44.9963 121.061 44.9963 121.758 44.6721V50.8324C121.758 51.2767 121.722 51.4208 120.581 51.4208H120.161V51.8171C120.653 51.781 121.686 51.781 122.226 51.781C122.766 51.781 123.811 51.781 124.304 51.8171V51.4208H123.883C122.742 51.4208 122.706 51.2767 122.706 50.8324V44.1678Z" fill="black"/>
<path d="M134.986 32.9868C134.5 33.6712 133.797 34.2837 132.915 34.2837C132.698 34.2837 131.834 34.2476 131.564 33.4191C131.618 33.4371 131.708 33.4371 131.744 33.4371C132.284 33.4371 132.644 32.9688 132.644 32.5545C132.644 32.1402 132.302 31.9961 132.032 31.9961C131.744 31.9961 131.113 32.2122 131.113 33.0948C131.113 34.0135 131.888 34.6439 132.915 34.6439C134.716 34.6439 136.535 32.9868 137.039 30.9874L138.805 23.9625C138.823 23.8725 138.859 23.7644 138.859 23.6563C138.859 23.3861 138.643 23.206 138.372 23.206C138.21 23.206 137.832 23.2781 137.688 23.8184L136.355 29.1141C136.265 29.4383 136.265 29.4743 136.121 29.6725C135.761 30.1768 135.166 30.7892 134.302 30.7892C133.293 30.7892 133.203 29.7986 133.203 29.3122C133.203 28.2855 133.689 26.8986 134.175 25.6017C134.374 25.0793 134.482 24.8271 134.482 24.4669C134.482 23.7104 133.941 23.0259 133.059 23.0259C131.402 23.0259 130.735 25.6377 130.735 25.7818C130.735 25.8538 130.807 25.9439 130.933 25.9439C131.095 25.9439 131.113 25.8718 131.185 25.6197C131.618 24.1066 132.302 23.3861 133.005 23.3861C133.167 23.3861 133.473 23.3861 133.473 23.9805C133.473 24.4489 133.275 24.9712 133.005 25.6557C132.122 28.0153 132.122 28.6097 132.122 29.042C132.122 30.7532 133.347 31.1495 134.248 31.1495C134.77 31.1495 135.418 30.9874 136.049 30.3209L136.067 30.3389C135.797 31.4017 135.616 32.1042 134.986 32.9868Z" fill="black"/>
<path d="M142.427 26.178C142.427 25.9138 142.235 25.7217 141.959 25.7217C141.646 25.7217 141.298 26.0099 141.298 26.3701C141.298 26.6343 141.49 26.8264 141.767 26.8264C142.079 26.8264 142.427 26.5382 142.427 26.178ZM140.674 30.585L140.025 32.2422C139.965 32.4223 139.905 32.5664 139.905 32.7706C139.905 33.359 140.362 33.7913 140.998 33.7913C142.163 33.7913 142.655 32.1101 142.655 31.954C142.655 31.8339 142.559 31.7979 142.475 31.7979C142.331 31.7979 142.307 31.8819 142.271 32.002C141.995 32.9627 141.502 33.455 141.022 33.455C140.878 33.455 140.734 33.395 140.734 33.0708C140.734 32.7826 140.818 32.5664 140.974 32.1942C141.094 31.8699 141.214 31.5457 141.346 31.2215L141.718 30.2488C141.827 29.9726 141.971 29.6004 141.971 29.3962C141.971 28.7958 141.49 28.3755 140.878 28.3755C139.713 28.3755 139.209 30.0567 139.209 30.2128C139.209 30.3209 139.293 30.3689 139.389 30.3689C139.545 30.3689 139.557 30.2968 139.593 30.1768C139.929 29.036 140.482 28.7117 140.842 28.7117C141.01 28.7117 141.13 28.7718 141.13 29.108C141.13 29.2281 141.118 29.3962 140.998 29.7565L140.674 30.585Z" fill="black"/>
<path d="M148.152 26.178C148.152 25.9498 147.972 25.7217 147.683 25.7217C147.323 25.7217 147.011 26.0579 147.011 26.3701C147.011 26.5983 147.191 26.8264 147.479 26.8264C147.839 26.8264 148.152 26.4902 148.152 26.178ZM145.642 34.2716C145.462 35.0041 144.873 35.7846 144.141 35.7846C143.949 35.7846 143.769 35.7366 143.745 35.7246C144.117 35.5445 144.165 35.2202 144.165 35.1122C144.165 34.824 143.949 34.6679 143.697 34.6679C143.348 34.6679 143.024 34.9681 143.024 35.3643C143.024 35.8207 143.468 36.1209 144.153 36.1209C144.885 36.1209 146.206 35.6646 146.567 34.2236L147.647 29.9246C147.683 29.7805 147.707 29.6844 147.707 29.5043C147.707 28.8438 147.179 28.3755 146.483 28.3755C145.21 28.3755 144.465 30.0567 144.465 30.2128C144.465 30.3209 144.549 30.3689 144.645 30.3689C144.777 30.3689 144.789 30.3329 144.873 30.1527C145.234 29.3242 145.846 28.7117 146.447 28.7117C146.699 28.7117 146.843 28.8799 146.843 29.2761C146.843 29.4443 146.807 29.6124 146.771 29.7805L145.642 34.2716Z" fill="black"/>
<path d="M155.895 18.4688L153.391 18.6669V19.1892C154.616 19.1892 154.76 19.3153 154.76 20.1979V29.6365C154.76 30.447 154.562 30.447 153.391 30.447V30.9694C153.896 30.9334 154.778 30.9334 155.319 30.9334C155.859 30.9334 156.76 30.9334 157.264 30.9694V30.447C156.111 30.447 155.895 30.447 155.895 29.6365V18.4688Z" fill="black"/>
<path d="M165.964 27.1149C165.964 24.7913 164.198 22.936 162.109 22.936C159.948 22.936 158.236 24.8454 158.236 27.1149C158.236 29.4205 160.038 31.1497 162.091 31.1497C164.216 31.1497 165.964 29.3845 165.964 27.1149ZM162.109 30.7534C161.443 30.7534 160.632 30.4652 160.11 29.5826C159.623 28.7721 159.605 27.7093 159.605 26.9528C159.605 26.2683 159.605 25.1696 160.164 24.359C160.668 23.5845 161.461 23.2963 162.091 23.2963C162.793 23.2963 163.55 23.6205 164.036 24.323C164.595 25.1516 164.595 26.2864 164.595 26.9528C164.595 27.5832 164.595 28.7 164.126 29.5466C163.622 30.4112 162.793 30.7534 162.109 30.7534Z" fill="black"/>
<path d="M168.658 27.7095C169.505 28.2679 170.225 28.2679 170.423 28.2679C172.044 28.2679 173.251 27.043 173.251 25.6561C173.251 25.1697 173.107 24.4853 172.531 23.9089C173.233 23.1884 174.08 23.1884 174.17 23.1884C174.242 23.1884 174.332 23.1884 174.404 23.2244C174.224 23.2964 174.134 23.4766 174.134 23.6747C174.134 23.9269 174.314 24.143 174.602 24.143C174.746 24.143 175.071 24.053 175.071 23.6567C175.071 23.3325 174.818 22.8281 174.188 22.8281C173.251 22.8281 172.549 23.4045 172.297 23.6747C171.756 23.2604 171.126 23.0263 170.441 23.0263C168.82 23.0263 167.613 24.2511 167.613 25.6381C167.613 26.6648 168.244 27.3312 168.424 27.4934C168.208 27.7635 167.884 28.2859 167.884 28.9884C167.884 30.0331 168.514 30.4834 168.658 30.5735C167.83 30.8076 167.001 31.4561 167.001 32.3927C167.001 33.6356 168.694 34.6623 170.91 34.6623C173.053 34.6623 174.836 33.7076 174.836 32.3567C174.836 31.9064 174.71 30.8437 173.63 30.2853C172.711 29.817 171.81 29.817 170.261 29.817C169.162 29.817 169.036 29.817 168.712 29.4747C168.532 29.2946 168.37 28.9524 168.37 28.5741C168.37 28.2679 168.478 27.9617 168.658 27.7095ZM170.441 27.8896C168.856 27.8896 168.856 26.0704 168.856 25.6561C168.856 25.3319 168.856 24.5933 169.162 24.107C169.505 23.5846 170.045 23.4045 170.423 23.4045C172.008 23.4045 172.008 25.2238 172.008 25.6381C172.008 25.9623 172.008 26.7008 171.702 27.1871C171.36 27.7095 170.82 27.8896 170.441 27.8896ZM170.928 34.284C169.198 34.284 167.884 33.4014 167.884 32.3747C167.884 32.2306 167.92 31.5281 168.604 31.0598C169 30.8076 169.162 30.8076 170.423 30.8076C171.918 30.8076 173.954 30.8076 173.954 32.3747C173.954 33.4375 172.585 34.284 170.928 34.284Z" fill="black"/>
<path d="M181.432 35.3463C181.432 35.2923 181.432 35.2563 181.126 34.9501C179.325 33.1308 178.316 30.1587 178.316 26.4842C178.316 22.9898 179.163 19.9817 181.252 17.8562C181.432 17.6941 181.432 17.6581 181.432 17.6041C181.432 17.496 181.342 17.46 181.27 17.46C181.036 17.46 179.559 18.7569 178.676 20.5221C177.758 22.3413 177.343 24.2687 177.343 26.4842C177.343 28.0873 177.595 30.2308 178.532 32.1581C179.595 34.3196 181.072 35.4904 181.27 35.4904C181.342 35.4904 181.432 35.4544 181.432 35.3463Z" fill="black"/>
<path d="M188.043 18.4688L185.684 20.9184L185.972 21.1886L188.025 19.3333L190.097 21.1886L190.385 20.9184L188.043 18.4688Z" fill="black"/>
<path d="M187.174 32.9868C186.688 33.6712 185.985 34.2837 185.103 34.2837C184.886 34.2837 184.022 34.2476 183.752 33.4191C183.806 33.4371 183.896 33.4371 183.932 33.4371C184.472 33.4371 184.832 32.9688 184.832 32.5545C184.832 32.1402 184.49 31.9961 184.22 31.9961C183.932 31.9961 183.301 32.2122 183.301 33.0948C183.301 34.0135 184.076 34.6439 185.103 34.6439C186.904 34.6439 188.723 32.9868 189.227 30.9874L190.993 23.9625C191.011 23.8725 191.047 23.7644 191.047 23.6563C191.047 23.3861 190.831 23.206 190.56 23.206C190.398 23.206 190.02 23.2781 189.876 23.8184L188.543 29.1141C188.453 29.4383 188.453 29.4743 188.309 29.6725C187.949 30.1768 187.354 30.7892 186.49 30.7892C185.481 30.7892 185.391 29.7986 185.391 29.3122C185.391 28.2855 185.877 26.8986 186.363 25.6017C186.562 25.0793 186.67 24.8271 186.67 24.4669C186.67 23.7104 186.129 23.0259 185.247 23.0259C183.59 23.0259 182.923 25.6377 182.923 25.7818C182.923 25.8538 182.995 25.9439 183.121 25.9439C183.283 25.9439 183.301 25.8718 183.373 25.6197C183.806 24.1066 184.49 23.3861 185.193 23.3861C185.355 23.3861 185.661 23.3861 185.661 23.9805C185.661 24.4489 185.463 24.9712 185.193 25.6557C184.31 28.0153 184.31 28.6097 184.31 29.042C184.31 30.7532 185.535 31.1495 186.436 31.1495C186.958 31.1495 187.606 30.9874 188.237 30.3209L188.255 30.3389C187.985 31.4017 187.804 32.1042 187.174 32.9868Z" fill="black"/>
<path d="M194.615 26.178C194.615 25.9138 194.423 25.7217 194.147 25.7217C193.834 25.7217 193.486 26.0099 193.486 26.3701C193.486 26.6343 193.678 26.8264 193.954 26.8264C194.267 26.8264 194.615 26.5382 194.615 26.178ZM192.862 30.585L192.213 32.2422C192.153 32.4223 192.093 32.5664 192.093 32.7706C192.093 33.359 192.55 33.7913 193.186 33.7913C194.351 33.7913 194.843 32.1101 194.843 31.954C194.843 31.8339 194.747 31.7979 194.663 31.7979C194.519 31.7979 194.495 31.8819 194.459 32.002C194.183 32.9627 193.69 33.455 193.21 33.455C193.066 33.455 192.922 33.395 192.922 33.0708C192.922 32.7826 193.006 32.5664 193.162 32.1942C193.282 31.8699 193.402 31.5457 193.534 31.2215L193.906 30.2488C194.015 29.9726 194.159 29.6004 194.159 29.3962C194.159 28.7958 193.678 28.3755 193.066 28.3755C191.901 28.3755 191.397 30.0567 191.397 30.2128C191.397 30.3209 191.481 30.3689 191.577 30.3689C191.733 30.3689 191.745 30.2968 191.781 30.1768C192.117 29.036 192.67 28.7117 193.03 28.7117C193.198 28.7117 193.318 28.7718 193.318 29.108C193.318 29.2281 193.306 29.3962 193.186 29.7565L192.862 30.585Z" fill="black"/>
<path d="M200.34 26.178C200.34 25.9498 200.16 25.7217 199.871 25.7217C199.511 25.7217 199.199 26.0579 199.199 26.3701C199.199 26.5983 199.379 26.8264 199.667 26.8264C200.027 26.8264 200.34 26.4902 200.34 26.178ZM197.83 34.2716C197.65 35.0041 197.061 35.7846 196.329 35.7846C196.137 35.7846 195.957 35.7366 195.933 35.7246C196.305 35.5445 196.353 35.2202 196.353 35.1122C196.353 34.824 196.137 34.6679 195.885 34.6679C195.536 34.6679 195.212 34.9681 195.212 35.3643C195.212 35.8207 195.656 36.1209 196.341 36.1209C197.073 36.1209 198.394 35.6646 198.755 34.2236L199.835 29.9246C199.871 29.7805 199.895 29.6844 199.895 29.5043C199.895 28.8438 199.367 28.3755 198.671 28.3755C197.398 28.3755 196.653 30.0567 196.653 30.2128C196.653 30.3209 196.737 30.3689 196.833 30.3689C196.965 30.3689 196.977 30.3329 197.061 30.1527C197.422 29.3242 198.034 28.7117 198.635 28.7117C198.887 28.7117 199.031 28.8799 199.031 29.2761C199.031 29.4443 198.995 29.6124 198.959 29.7805L197.83 34.2716Z" fill="black"/>
<path d="M207.062 26.4842C207.062 25.1153 206.882 22.8817 205.873 20.7923C204.811 18.6308 203.334 17.46 203.136 17.46C203.063 17.46 202.973 17.496 202.973 17.6041C202.973 17.6581 202.973 17.6941 203.28 18.0003C205.081 19.8196 206.09 22.7916 206.09 26.4662C206.09 29.9606 205.243 32.9687 203.154 35.0942C202.973 35.2563 202.973 35.2923 202.973 35.3463C202.973 35.4544 203.063 35.4904 203.136 35.4904C203.37 35.4904 204.847 34.1935 205.729 32.4283C206.648 30.591 207.062 28.6457 207.062 26.4842Z" fill="black"/>
</g>
<g clip-path="url(#clip1_1340_2186)">
<path d="M9.63552 69.9617C9.76876 69.4409 9.96256 69.0775 10.8831 69.0412C10.9194 69.0412 11.0648 69.0291 11.0648 68.8232C11.0648 68.6899 10.9558 68.6899 10.9073 68.6899C10.6651 68.6899 10.0473 68.7142 9.8051 68.7142H9.2237C9.05413 68.7142 8.8361 68.6899 8.66653 68.6899C8.59385 68.6899 8.4485 68.6899 8.4485 68.9201C8.4485 69.0412 8.5454 69.0412 8.63019 69.0412C9.35694 69.0654 9.40539 69.344 9.40539 69.562C9.40539 69.671 9.39327 69.7074 9.35694 69.877L7.98823 75.3397L5.39617 68.8959C5.31138 68.7021 5.29927 68.6899 5.0328 68.6899H3.55508C3.31283 68.6899 3.20382 68.6899 3.20382 68.9201C3.20382 69.0412 3.28861 69.0412 3.51874 69.0412C3.5793 69.0412 4.29394 69.0412 4.29394 69.1502C4.29394 69.1744 4.26971 69.2713 4.2576 69.3077L2.64665 75.7273C2.5013 76.3208 2.2106 76.5751 1.41118 76.6115C1.35062 76.6115 1.22949 76.6236 1.22949 76.8416C1.22949 76.9627 1.35062 76.9627 1.38695 76.9627C1.6292 76.9627 2.24694 76.9385 2.48919 76.9385H3.07058C3.24016 76.9385 3.44607 76.9627 3.61564 76.9627C3.70043 76.9627 3.83367 76.9627 3.83367 76.7326C3.83367 76.6236 3.71254 76.6115 3.66409 76.6115C3.26438 76.5994 2.87678 76.5267 2.87678 76.0906C2.87678 75.9937 2.90101 75.8847 2.92523 75.7878L4.56041 69.3077C4.63309 69.4288 4.63309 69.453 4.68154 69.562L7.5643 76.7447C7.62486 76.8901 7.64908 76.9627 7.75809 76.9627C7.87922 76.9627 7.89133 76.9264 7.93978 76.7205L9.63552 69.9617Z" fill="black"/>
</g>
<g clip-path="url(#clip2_1340_2186)">
<path d="M9.72044 83.5929C9.72044 83.4839 9.63566 83.4839 9.61143 83.4839C9.58721 83.4839 9.53876 83.4839 9.44186 83.605L8.6061 84.6225C8.18216 83.8957 7.51598 83.4839 6.60755 83.4839C3.99126 83.4839 1.27808 86.1365 1.27808 88.9829C1.27808 91.0057 2.69523 92.2654 4.46365 92.2654C5.43264 92.2654 6.28051 91.8536 6.98303 91.2601C8.03682 90.3759 8.35174 89.201 8.35174 89.1041C8.35174 88.995 8.25484 88.995 8.2185 88.995C8.10949 88.995 8.09738 89.0677 8.07315 89.1162C7.51598 91.0057 5.8808 91.9141 4.66956 91.9141C3.38564 91.9141 2.2713 91.0905 2.2713 89.3705C2.2713 88.9829 2.39242 86.8754 3.76113 85.2886C4.42731 84.5134 5.56588 83.8351 6.71656 83.8351C8.04893 83.8351 8.64244 84.9374 8.64244 86.1728C8.64244 86.4878 8.6061 86.7542 8.6061 86.8027C8.6061 86.9117 8.72722 86.9117 8.76356 86.9117C8.8968 86.9117 8.90891 86.8996 8.95736 86.6816L9.72044 83.5929Z" fill="black"/>
</g>
<g clip-path="url(#clip3_1340_2186)">
<path d="M3.5309 104.303C3.20386 104.763 2.73148 105.175 2.13797 105.175C1.99262 105.175 1.41122 105.151 1.22953 104.594C1.26587 104.606 1.32643 104.606 1.35066 104.606C1.71403 104.606 1.95628 104.291 1.95628 104.012C1.95628 103.734 1.72614 103.637 1.54446 103.637C1.35066 103.637 0.926724 103.782 0.926724 104.376C0.926724 104.994 1.44756 105.418 2.13797 105.418C3.34921 105.418 4.57257 104.303 4.91171 102.959L6.09873 98.2348C6.11085 98.1743 6.13507 98.1016 6.13507 98.0289C6.13507 97.8472 5.98972 97.7261 5.80804 97.7261C5.69902 97.7261 5.44466 97.7746 5.34776 98.1379L4.45144 101.699C4.39088 101.917 4.39088 101.941 4.29398 102.074C4.05173 102.414 3.65202 102.825 3.07063 102.825C2.39233 102.825 2.33177 102.159 2.33177 101.832C2.33177 101.142 2.6588 100.209 2.98584 99.3371C3.11907 98.9858 3.19175 98.8162 3.19175 98.574C3.19175 98.0653 2.82838 97.605 2.23487 97.605C1.12052 97.605 0.672363 99.3613 0.672363 99.4582C0.672363 99.5066 0.720812 99.5672 0.805599 99.5672C0.914612 99.5672 0.926724 99.5187 0.975174 99.3492C1.26587 98.3317 1.72614 97.8472 2.19853 97.8472C2.30754 97.8472 2.51345 97.8472 2.51345 98.2469C2.51345 98.5619 2.38022 98.9131 2.19853 99.3734C1.60502 100.96 1.60502 101.36 1.60502 101.651C1.60502 102.801 2.42867 103.068 3.03429 103.068C3.38555 103.068 3.8216 102.959 4.24553 102.511L4.25764 102.523C4.07596 103.237 3.95483 103.71 3.5309 104.303Z" fill="black"/>
<path d="M8.53469 99.7248C8.53469 99.5472 8.4055 99.418 8.21977 99.418C8.00982 99.418 7.77565 99.6118 7.77565 99.854C7.77565 100.032 7.90485 100.161 8.09057 100.161C8.30052 100.161 8.53469 99.9671 8.53469 99.7248ZM7.35575 102.688L6.9197 103.803C6.87933 103.924 6.83895 104.021 6.83895 104.158C6.83895 104.554 7.1458 104.844 7.57377 104.844C8.35705 104.844 8.68812 103.714 8.68812 103.609C8.68812 103.528 8.62352 103.504 8.56699 103.504C8.4701 103.504 8.45394 103.56 8.42972 103.641C8.244 104.287 7.91292 104.618 7.58992 104.618C7.49302 104.618 7.39613 104.578 7.39613 104.36C7.39613 104.166 7.45265 104.021 7.55762 103.77C7.63837 103.552 7.71912 103.334 7.80795 103.116L8.05827 102.462C8.13095 102.277 8.22785 102.026 8.22785 101.889C8.22785 101.485 7.90485 101.203 7.49302 101.203C6.70975 101.203 6.37061 102.333 6.37061 102.438C6.37061 102.511 6.42713 102.543 6.49173 102.543C6.59671 102.543 6.60478 102.495 6.629 102.414C6.8551 101.647 7.22655 101.429 7.4688 101.429C7.58185 101.429 7.6626 101.469 7.6626 101.695C7.6626 101.776 7.65452 101.889 7.57377 102.131L7.35575 102.688Z" fill="black"/>
<path d="M12.384 99.7248C12.384 99.5714 12.2629 99.418 12.0691 99.418C11.8269 99.418 11.6169 99.6441 11.6169 99.854C11.6169 100.007 11.738 100.161 11.9318 100.161C12.1741 100.161 12.384 99.9348 12.384 99.7248ZM10.6964 105.167C10.5753 105.66 10.1796 106.185 9.68701 106.185C9.55781 106.185 9.43668 106.152 9.42053 106.144C9.67086 106.023 9.70316 105.805 9.70316 105.733C9.70316 105.539 9.55781 105.434 9.38823 105.434C9.15406 105.434 8.93604 105.636 8.93604 105.902C8.93604 106.209 9.23481 106.411 9.69508 106.411C10.1877 106.411 11.0759 106.104 11.3181 105.135L12.0449 102.244C12.0691 102.147 12.0853 102.083 12.0853 101.962C12.0853 101.517 11.73 101.203 11.2616 101.203C10.4057 101.203 9.90503 102.333 9.90503 102.438C9.90503 102.511 9.96156 102.543 10.0262 102.543C10.115 102.543 10.1231 102.519 10.1796 102.398C10.4218 101.84 10.8337 101.429 11.2374 101.429C11.407 101.429 11.5039 101.542 11.5039 101.808C11.5039 101.921 11.4796 102.034 11.4554 102.147L10.6964 105.167Z" fill="black"/>
</g>
<g clip-path="url(#clip4_1340_2186)">
<path d="M3.44317 111.727L1.85645 113.374L2.05024 113.556L3.43106 112.308L4.82399 113.556L5.01779 113.374L3.44317 111.727Z" fill="black"/>
<path d="M2.85853 121.489C2.5315 121.949 2.05911 122.361 1.4656 122.361C1.32026 122.361 0.738858 122.337 0.557171 121.78C0.593509 121.792 0.654071 121.792 0.678296 121.792C1.04167 121.792 1.28392 121.477 1.28392 121.198C1.28392 120.92 1.05378 120.823 0.872095 120.823C0.678296 120.823 0.254361 120.968 0.254361 121.562C0.254361 122.18 0.775195 122.604 1.4656 122.604C2.67685 122.604 3.9002 121.489 4.23935 120.145L5.42637 115.421C5.43848 115.36 5.46271 115.288 5.46271 115.215C5.46271 115.033 5.31736 114.912 5.13567 114.912C5.02666 114.912 4.7723 114.961 4.6754 115.324L3.77908 118.885C3.71852 119.103 3.71852 119.127 3.62162 119.261C3.37937 119.6 2.97966 120.011 2.39826 120.011C1.71997 120.011 1.6594 119.345 1.6594 119.018C1.6594 118.328 1.98644 117.395 2.31348 116.523C2.44671 116.172 2.51939 116.002 2.51939 115.76C2.51939 115.251 2.15601 114.791 1.5625 114.791C0.44816 114.791 0 116.547 0 116.644C0 116.693 0.0484491 116.753 0.133236 116.753C0.242248 116.753 0.254361 116.705 0.302811 116.535C0.593509 115.518 1.05378 115.033 1.52617 115.033C1.63518 115.033 1.84109 115.033 1.84109 115.433C1.84109 115.748 1.70785 116.099 1.52617 116.559C0.932657 118.146 0.932657 118.546 0.932657 118.837C0.932657 119.987 1.7563 120.254 2.36192 120.254C2.71318 120.254 3.14923 120.145 3.57317 119.697L3.58528 119.709C3.40359 120.423 3.28247 120.896 2.85853 121.489Z" fill="black"/>
<path d="M7.86209 116.911C7.86209 116.733 7.73289 116.604 7.54716 116.604C7.33721 116.604 7.10304 116.798 7.10304 117.04C7.10304 117.218 7.23224 117.347 7.41796 117.347C7.62791 117.347 7.86209 117.153 7.86209 116.911ZM6.68314 119.874L6.2471 120.989C6.20672 121.11 6.16635 121.207 6.16635 121.344C6.16635 121.74 6.47319 122.03 6.90117 122.03C7.68444 122.03 8.01551 120.9 8.01551 120.795C8.01551 120.714 7.95091 120.69 7.89439 120.69C7.79749 120.69 7.78134 120.746 7.75711 120.827C7.57139 121.473 7.24032 121.804 6.91732 121.804C6.82042 121.804 6.72352 121.764 6.72352 121.546C6.72352 121.352 6.78004 121.207 6.88502 120.956C6.96577 120.738 7.04652 120.52 7.13534 120.302L7.38566 119.648C7.45834 119.463 7.55524 119.212 7.55524 119.075C7.55524 118.671 7.23224 118.389 6.82042 118.389C6.03715 118.389 5.698 119.519 5.698 119.624C5.698 119.697 5.75452 119.729 5.81912 119.729C5.9241 119.729 5.93217 119.681 5.9564 119.6C6.1825 118.833 6.55394 118.615 6.79619 118.615C6.90924 118.615 6.98999 118.655 6.98999 118.881C6.98999 118.962 6.98192 119.075 6.90117 119.317L6.68314 119.874Z" fill="black"/>
<path d="M11.7117 116.911C11.7117 116.757 11.5906 116.604 11.3968 116.604C11.1545 116.604 10.9446 116.83 10.9446 117.04C10.9446 117.193 11.0657 117.347 11.2595 117.347C11.5017 117.347 11.7117 117.121 11.7117 116.911ZM10.024 122.353C9.90289 122.846 9.50722 123.371 9.01464 123.371C8.88544 123.371 8.76432 123.339 8.74817 123.33C8.99849 123.209 9.03079 122.991 9.03079 122.919C9.03079 122.725 8.88544 122.62 8.71587 122.62C8.4817 122.62 8.26367 122.822 8.26367 123.088C8.26367 123.395 8.56245 123.597 9.02272 123.597C9.51529 123.597 10.4035 123.29 10.6458 122.321L11.3725 119.43C11.3968 119.333 11.4129 119.269 11.4129 119.148C11.4129 118.703 11.0576 118.389 10.5893 118.389C9.73331 118.389 9.23267 119.519 9.23267 119.624C9.23267 119.697 9.28919 119.729 9.35379 119.729C9.44262 119.729 9.45069 119.705 9.50722 119.584C9.74946 119.026 10.1613 118.615 10.565 118.615C10.7346 118.615 10.8315 118.728 10.8315 118.994C10.8315 119.107 10.8073 119.22 10.7831 119.333L10.024 122.353Z" fill="black"/>
</g>
<path d="M14.5497 72.9316H21.6918V73.5261H14.5497V72.9316ZM15.4763 75.9126H20.905V76.507H15.4763V75.9126ZM15.4763 74.2167H16.2019V76.0962H15.4763V74.2167ZM18.1251 69.0415C19.8123 69.0415 20.905 69.636 20.905 70.6238C20.905 71.6029 19.8123 72.1973 18.1251 72.1973C16.4292 72.1973 15.3452 71.6029 15.3452 70.6238C15.3452 69.636 16.4292 69.0415 18.1251 69.0415ZM18.1251 69.636C16.8838 69.636 16.0882 70.0031 16.0882 70.6238C16.0882 71.2444 16.8838 71.6116 18.1251 71.6116C19.3664 71.6116 20.1619 71.2444 20.1619 70.6238C20.1619 70.0031 19.3664 69.636 18.1251 69.636ZM30.6886 68.788H31.3792V73.4037H30.6886V68.788ZM29.4735 70.7549H30.9596V71.3494H29.4735V70.7549ZM28.9927 68.9191H29.6833V73.2988H28.9927V68.9191ZM26.1953 73.8145H31.3792V76.577H26.1953V73.8145ZM30.6799 74.3915H26.9034V75.9913H30.6799V74.3915ZM26.3789 69.2251H26.9558V70.2741C26.9558 71.4455 26.274 72.6868 25.1113 73.2026L24.7179 72.6431C25.7582 72.1798 26.3789 71.1658 26.3789 70.2741V69.2251ZM26.4925 69.2251H27.0695V70.2741C27.0695 71.1483 27.6639 72.04 28.678 72.4421L28.2846 72.9841C27.1482 72.5295 26.4925 71.428 26.4925 70.2741V69.2251ZM33.258 69.0153H39.0626V69.5835H33.258V69.0153ZM33.293 71.0871H39.0276V71.6466H33.293V71.0871ZM34.4556 69.2338H35.1812V71.4543H34.4556V69.2338ZM37.1481 69.2338H37.8649V71.4543H37.1481V69.2338ZM32.5936 72.3022H39.7357V72.8879H32.5936V72.3022ZM33.4591 73.5785H38.8265V75.3094H34.1934V76.2623H33.4766V74.7936H38.1097V74.1205H33.4591V73.5785ZM33.4766 76.0437H39.0626V76.5944H33.4766V76.0437ZM43.0394 69.3475C44.272 69.3475 45.1549 70.108 45.1549 71.2095C45.1549 72.3197 44.272 73.0802 43.0394 73.0802C41.8068 73.0802 40.9152 72.3197 40.9152 71.2095C40.9152 70.108 41.8068 69.3475 43.0394 69.3475ZM43.0394 69.9769C42.2177 69.9769 41.6232 70.4752 41.6232 71.2095C41.6232 71.9438 42.2177 72.4508 43.0394 72.4508C43.8524 72.4508 44.4469 71.9438 44.4469 71.2095C44.4469 70.4752 43.8524 69.9769 43.0394 69.9769ZM46.1865 68.7705H46.912V76.6906H46.1865V68.7705ZM40.6179 74.9597L40.513 74.3565C41.9554 74.3565 43.9486 74.3478 45.6707 74.0768L45.7319 74.6101C43.9573 74.951 42.0254 74.9597 40.6179 74.9597ZM56.6432 68.7793H57.3425V76.6819H56.6432V68.7793ZM55.3669 71.9525H56.8792V72.547H55.3669V71.9525ZM53.3213 69.7933H54.0207C54.0207 71.8302 53.3213 73.7184 51.0659 74.9859L50.6376 74.4702C52.622 73.36 53.3213 71.7602 53.3213 69.9332V69.7933ZM50.9435 69.7933H53.5661V70.3965H50.9435V69.7933ZM54.8861 68.9891H55.5767V76.2972H54.8861V68.9891ZM61.7128 69.059H62.3509V69.4961C62.3509 71.0084 60.8124 72.0924 59.1689 72.3721L58.8804 71.7864C60.3228 71.5679 61.7128 70.6238 61.7128 69.4961V69.059ZM61.8439 69.059H62.4733V69.4961C62.4733 70.5976 63.8807 71.5679 65.3057 71.7864L65.0172 72.3721C63.3912 72.0924 61.8439 70.9909 61.8439 69.4961V69.059ZM61.7128 73.6747H62.4296V76.6819H61.7128V73.6747ZM58.522 73.2288H65.6641V73.832H58.522V73.2288ZM66.389 72.4508H73.5573V73.0016H66.389V72.4508ZM67.2369 73.6397H72.6569V75.3269H67.98V76.2535H67.2631V74.8286H71.9488V74.1555H67.2369V73.6397ZM67.2631 76.0612H72.9104V76.5857H67.2631V76.0612ZM67.2981 69.0065H72.6306V70.65H68.0324V71.5067H67.3156V70.1605H71.9225V69.5223H67.2981V69.0065ZM67.3156 71.3319H72.7792V71.8564H67.3156V71.3319ZM82.4405 71.9263H83.9003V72.5382H82.4405V71.9263ZM81.9072 68.7705H82.6415V76.6819H81.9072V68.7705ZM76.8719 69.5485H77.5975V74.444H76.8719V69.5485ZM76.8719 74.0681H77.5013C78.6727 74.0681 79.8704 73.9894 81.1729 73.7184L81.2603 74.3216C79.9141 74.6013 78.699 74.68 77.5013 74.68H76.8719V74.0681ZM84.7738 74.1817H85.3945C86.8544 74.1817 87.8597 74.1467 89.0486 73.9369L89.1273 74.5314C87.9034 74.7412 86.8719 74.7849 85.3945 74.7849H84.7738V74.1817ZM84.7738 69.4961H88.4541V70.0993H85.4994V74.3915H84.7738V69.4961ZM85.3158 71.7078H88.2793V72.2935H85.3158V71.7078ZM89.7829 68.7793H90.5172V76.6819H89.7829V68.7793ZM90.3424 71.9525H91.811V72.5645H90.3424V71.9525ZM98.2793 68.7793H98.9699V73.0802H98.2793V68.7793ZM96.9942 70.7025H98.4891V71.2882H96.9942V70.7025ZM96.5222 68.9279H97.1953V73.019H96.5222V68.9279ZM93.7947 73.4474H94.5115V74.3915H98.2705V73.4474H98.9699V76.577H93.7947V73.4474ZM94.5115 74.9772V75.9825H98.2705V74.9772H94.5115ZM92.702 69.295H93.4276V72.311H92.702V69.295ZM92.702 71.9788H93.2003C94.0919 71.9788 94.9486 71.9438 95.9539 71.7427L96.0414 72.3459C94.9836 72.5382 94.1269 72.5732 93.2003 72.5732H92.702V71.9788ZM105.936 68.7793H106.662V76.6819H105.936V68.7793ZM100.691 69.5485H101.408V74.444H100.691V69.5485ZM100.691 74.0156H101.338C102.536 74.0156 103.786 73.9282 105.123 73.6484L105.211 74.2691C103.838 74.5489 102.588 74.645 101.338 74.645H100.691V74.0156ZM113.41 68.7705H114.144V76.6906H113.41V68.7705ZM113.969 71.8913H115.438V72.5033H113.969V71.8913ZM108.401 74.1118H109.022C110.481 74.1118 111.504 74.0593 112.684 73.8408L112.763 74.4527C111.548 74.68 110.508 74.7237 109.022 74.7237H108.401V74.1118ZM108.401 69.5398H112.073V70.1342H109.118V74.3828H108.401V69.5398ZM116.712 76.0497C116.559 76.0497 116.427 75.9948 116.318 75.8851C116.208 75.7755 116.153 75.644 116.153 75.4909C116.153 75.3377 116.208 75.2063 116.318 75.0966C116.427 74.987 116.559 74.9321 116.712 74.9321C116.865 74.9321 116.996 74.987 117.106 75.0966C117.216 75.2063 117.271 75.3377 117.271 75.4909C117.271 75.5923 117.245 75.6854 117.193 75.7703C117.143 75.8551 117.076 75.9234 116.991 75.9752C116.908 76.0248 116.815 76.0497 116.712 76.0497Z" fill="black"/>
<path d="M15.52 86.6146H20.8875V87.209H15.52V86.6146ZM14.5497 88.2668H21.718V88.8612H14.5497V88.2668ZM15.52 84.534H16.2369V86.9118H15.52V84.534ZM15.4676 91.3614H20.9312V91.9559H15.4676V91.3614ZM15.4676 89.648H16.1844V91.5188H15.4676V89.648ZM25.6358 84.6127H30.7236V85.1984H25.6358V84.6127ZM30.2515 84.6127H30.9596V85.2246C30.9596 85.8803 30.9596 86.6583 30.7323 87.6986L30.0155 87.6199C30.2515 86.5971 30.2515 85.8715 30.2515 85.2246V84.6127ZM30.4526 85.9502V86.466L25.5309 86.6845L25.4348 86.1076L30.4526 85.9502ZM24.7267 87.48H31.86V88.057H24.7267V87.48ZM25.5571 88.8088H31.0208V90.6533H26.2915V91.7198H25.5746V90.1113H30.304V89.3683H25.5571V88.8088ZM25.5746 91.4751H31.2918V92.0433H25.5746V91.4751ZM32.8559 89.6568H33.3804C34.342 89.6568 35.2162 89.6218 36.2827 89.4382L36.3439 90.0414C35.2511 90.2337 34.3595 90.2599 33.3804 90.2599H32.8559V89.6568ZM32.8384 85.1023H35.8019V87.8822H33.564V89.884H32.8559V87.2877H35.0938V85.6967H32.8384V85.1023ZM38.608 84.2456H39.3073V92.1482H38.608V84.2456ZM37.2705 87.3664H38.7916V87.9608H37.2705V87.3664ZM36.8159 84.4204H37.4978V91.746H36.8159V84.4204ZM43.6426 84.7876H44.272V85.3907C44.272 87.1129 42.6723 88.4504 41.09 88.8088L40.7665 88.2056C42.1565 87.9434 43.6426 86.737 43.6426 85.3907V84.7876ZM43.7737 84.7876H44.4031V85.3907C44.4031 86.7457 45.898 87.9434 47.2792 88.2056L46.9558 88.8088C45.3822 88.4504 43.7737 87.1216 43.7737 85.3907V84.7876ZM40.4781 90.4872H47.6376V91.0817H40.4781V90.4872ZM48.848 88.7842C48.848 88.0019 48.9494 87.2827 49.1522 86.6266C49.3571 85.9685 49.6489 85.3632 50.0276 84.8106H50.6733C50.5243 85.0155 50.3846 85.268 50.2542 85.5681C50.1259 85.8661 50.0131 86.1941 49.9159 86.5521C49.8186 86.9081 49.742 87.2765 49.6862 87.6573C49.6323 88.0381 49.6054 88.4137 49.6054 88.7842C49.6054 89.2767 49.653 89.7765 49.7482 90.2836C49.8434 90.7906 49.9718 91.2614 50.1332 91.696C50.2946 92.1306 50.4747 92.4845 50.6733 92.7577H50.0276C49.6489 92.2051 49.3571 91.6008 49.1522 90.9448C48.9494 90.2867 48.848 89.5665 48.848 88.7842ZM51.3461 88.4154H58.5057V89.0099H51.3461V88.4154ZM54.6156 88.7126H55.3411V90.5309H54.6156V88.7126ZM52.2553 91.3789H57.7102V91.9733H52.2553V91.3789ZM52.2553 89.8316H52.9721V91.6062H52.2553V89.8316ZM52.299 84.4903H53.0158V85.4956H56.836V84.4903H57.5616V87.6549H52.299V84.4903ZM53.0158 86.0639V87.0692H56.836V86.0639H53.0158ZM59.2218 88.9487H66.3901V89.5431H59.2218V88.9487ZM61.0751 89.2721H61.8094V92.1482H61.0751V89.2721ZM63.7938 89.2721H64.5194V92.1482H63.7938V89.2721ZM60.0785 84.5515H65.5159V86.5884H60.8303V87.9434H60.096V86.0289H64.7904V85.1372H60.0785V84.5515ZM60.096 87.5587H65.6995V88.1444H60.096V87.5587ZM74.8013 84.2456H75.5268V89.3333H74.8013V84.2456ZM75.3258 86.4398H76.6982V87.0429H75.3258V86.4398ZM73.0442 89.4032C74.6439 89.4032 75.6143 89.9015 75.6143 90.767C75.6143 91.6324 74.6439 92.1307 73.0442 92.1307C71.4531 92.1307 70.4741 91.6324 70.4741 90.767C70.4741 89.9015 71.4531 89.4032 73.0442 89.4032ZM73.0442 89.9627C71.8902 89.9627 71.1909 90.2599 71.1909 90.767C71.1909 91.2827 71.8902 91.5712 73.0442 91.5712C74.2068 91.5712 74.9062 91.2827 74.9062 90.767C74.9062 90.2599 74.2068 89.9627 73.0442 89.9627ZM69.4163 85.1372H74.0844V85.7142H69.4163V85.1372ZM71.7504 86.1163C72.8781 86.1163 73.6386 86.6583 73.6386 87.5063C73.6386 88.363 72.8781 88.905 71.7504 88.905C70.6139 88.905 69.8534 88.363 69.8534 87.5063C69.8534 86.6583 70.6139 86.1163 71.7504 86.1163ZM71.7504 86.667C71.0248 86.667 70.544 86.9992 70.544 87.5063C70.544 88.022 71.0248 88.3542 71.7504 88.3542C72.4585 88.3542 72.948 88.022 72.948 87.5063C72.948 86.9992 72.4585 86.667 71.7504 86.667ZM71.3832 84.1756H72.1088V85.4607H71.3832V84.1756ZM78.1837 84.569H83.4987V87.2615H78.1837V84.569ZM82.7819 85.1547H78.8918V86.6758H82.7819V85.1547ZM77.2658 88.2493H84.4078V88.835H77.2658V88.2493ZM80.4828 87.1041H81.1996V88.4679H80.4828V87.1041ZM78.0613 89.648H83.5249V92.1482H82.7993V90.2425H78.0613V89.648ZM86.9483 88.7842C86.9483 89.5665 86.8458 90.2867 86.6409 90.9448C86.4381 91.6008 86.1473 92.2051 85.7686 92.7577H85.1229C85.2719 92.5528 85.4106 92.3003 85.5389 92.0003C85.6693 91.7022 85.7831 91.3752 85.8804 91.0193C85.9776 90.6612 86.0532 90.2918 86.107 89.911C86.1629 89.5282 86.1908 89.1525 86.1908 88.7842C86.1908 88.2916 86.1432 87.7918 86.048 87.2848C85.9528 86.7777 85.8245 86.3069 85.6631 85.8723C85.5016 85.4377 85.3216 85.0838 85.1229 84.8106H85.7686C86.1473 85.3632 86.4381 85.9685 86.6409 86.6266C86.8458 87.2827 86.9483 88.0019 86.9483 88.7842ZM90.7127 84.8138C91.9453 84.8138 92.8282 85.5743 92.8282 86.6758C92.8282 87.786 91.9453 88.5465 90.7127 88.5465C89.4801 88.5465 88.5884 87.786 88.5884 86.6758C88.5884 85.5743 89.4801 84.8138 90.7127 84.8138ZM90.7127 85.4432C89.8909 85.4432 89.2965 85.9415 89.2965 86.6758C89.2965 87.4101 89.8909 87.9171 90.7127 87.9171C91.5257 87.9171 92.1201 87.4101 92.1201 86.6758C92.1201 85.9415 91.5257 85.4432 90.7127 85.4432ZM93.8597 84.2368H94.5853V92.1569H93.8597V84.2368ZM88.2912 90.426L88.1863 89.8228C89.6287 89.8228 91.6218 89.8141 93.344 89.5431L93.4052 90.0764C91.6306 90.4173 89.6986 90.426 88.2912 90.426ZM104.316 84.2456H105.016V92.1482H104.316V84.2456ZM103.04 87.4188H104.552V88.0133H103.04V87.4188ZM100.995 85.2596H101.694C101.694 87.2965 100.995 89.1847 98.7392 90.4523L98.3108 89.9365C100.295 88.8263 100.995 87.2265 100.995 85.3995V85.2596ZM98.6168 85.2596H101.239V85.8628H98.6168V85.2596ZM102.559 84.4554H103.25V91.7635H102.559V84.4554ZM109.386 84.5253H110.024V84.9624C110.024 86.4747 108.486 87.5587 106.842 87.8385L106.554 87.2528C107.996 87.0342 109.386 86.0901 109.386 84.9624V84.5253ZM109.517 84.5253H110.147V84.9624C110.147 86.0639 111.554 87.0342 112.979 87.2528L112.69 87.8385C111.064 87.5587 109.517 86.4572 109.517 84.9624V84.5253ZM109.386 89.141H110.103V92.1482H109.386V89.141ZM106.195 88.6952H113.337V89.2983H106.195V88.6952ZM114.062 87.9171H121.231V88.4679H114.062V87.9171ZM114.91 89.106H120.33V90.7932H115.653V91.7198H114.936V90.2949H119.622V89.6218H114.91V89.106ZM114.936 91.5275H120.584V92.052H114.936V91.5275ZM114.971 84.4729H120.304V86.1163H115.706V86.973H114.989V85.6268H119.596V84.9886H114.971V84.4729ZM114.989 86.7982H120.452V87.3227H114.989V86.7982ZM130.114 87.3926H131.574V88.0045H130.114V87.3926ZM129.58 84.2368H130.315V92.1482H129.58V84.2368ZM124.545 85.0148H125.271V89.9103H124.545V85.0148ZM124.545 89.5344H125.175C126.346 89.5344 127.544 89.4557 128.846 89.1847L128.934 89.7879C127.587 90.0676 126.372 90.1463 125.175 90.1463H124.545V89.5344ZM132.447 89.648H133.068C134.528 89.648 135.533 89.613 136.722 89.4032L136.801 89.9977C135.577 90.2075 134.545 90.2512 133.068 90.2512H132.447V89.648ZM132.447 84.9624H136.127V85.5656H133.173V89.8578H132.447V84.9624ZM132.989 87.1741H135.953V87.7598H132.989V87.1741ZM137.456 84.2456H138.19V92.1482H137.456V84.2456ZM138.016 87.4188H139.484V88.0308H138.016V87.4188ZM145.953 84.2456H146.643V88.5465H145.953V84.2456ZM144.667 86.1688H146.162V86.7545H144.667V86.1688ZM144.195 84.3942H144.869V88.4853H144.195V84.3942ZM141.468 88.9137H142.185V89.8578H145.944V88.9137H146.643V92.0433H141.468V88.9137ZM142.185 90.4435V91.4488H145.944V90.4435H142.185ZM140.375 84.7613H141.101V87.7773H140.375V84.7613ZM140.375 87.4451H140.874C141.765 87.4451 142.622 87.4101 143.627 87.209L143.715 87.8122C142.657 88.0045 141.8 88.0395 140.874 88.0395H140.375V87.4451ZM153.61 84.2456H154.335V92.1482H153.61V84.2456ZM148.365 85.0148H149.081V89.9103H148.365V85.0148ZM148.365 89.4819H149.011C150.209 89.4819 151.459 89.3945 152.797 89.1148L152.884 89.7354C151.512 90.0152 150.262 90.1113 149.011 90.1113H148.365V89.4819ZM161.083 84.2368H161.818V92.1569H161.083V84.2368ZM161.643 87.3577H163.111V87.9696H161.643V87.3577ZM156.074 89.5781H156.695C158.155 89.5781 159.178 89.5256 160.358 89.3071L160.436 89.919C159.221 90.1463 158.181 90.19 156.695 90.19H156.074V89.5781ZM156.074 85.0061H159.746V85.6005H156.791V89.8491H156.074V85.0061ZM164.385 91.516C164.232 91.516 164.101 91.4611 163.991 91.3514C163.881 91.2418 163.826 91.1103 163.826 90.9572C163.826 90.804 163.881 90.6726 163.991 90.5629C164.101 90.4533 164.232 90.3984 164.385 90.3984C164.538 90.3984 164.67 90.4533 164.779 90.5629C164.889 90.6726 164.944 90.804 164.944 90.9572C164.944 91.0586 164.918 91.1517 164.866 91.2366C164.817 91.3214 164.749 91.3897 164.664 91.4415C164.582 91.4911 164.489 91.516 164.385 91.516Z" fill="black"/>
<path d="M15.52 100.736H20.8875V101.33H15.52V100.736ZM14.5497 102.388H21.718V102.982H14.5497V102.388ZM15.52 98.6551H16.2369V101.033H15.52V98.6551ZM15.4676 105.483H20.9312V106.077H15.4676V105.483ZM15.4676 103.769H16.1844V105.64H15.4676V103.769ZM30.6886 98.3754H31.3792V102.991H30.6886V98.3754ZM29.4735 100.342H30.9596V100.937H29.4735V100.342ZM28.9927 98.5065H29.6833V102.886H28.9927V98.5065ZM26.1953 103.402H31.3792V106.164H26.1953V103.402ZM30.6799 103.979H26.9034V105.579H30.6799V103.979ZM26.3789 98.8125H26.9558V99.8615C26.9558 101.033 26.274 102.274 25.1113 102.79L24.7179 102.231C25.7582 101.767 26.3789 100.753 26.3789 99.8615V98.8125ZM26.4925 98.8125H27.0695V99.8615C27.0695 100.736 27.6639 101.627 28.678 102.029L28.2846 102.571C27.1482 102.117 26.4925 101.015 26.4925 99.8615V98.8125ZM33.258 98.6027H39.0626V99.1709H33.258V98.6027ZM33.293 100.674H39.0276V101.234H33.293V100.674ZM34.4556 98.8212H35.1812V101.042H34.4556V98.8212ZM37.1481 98.8212H37.8649V101.042H37.1481V98.8212ZM32.5936 101.89H39.7357V102.475H32.5936V101.89ZM33.4591 103.166H38.8265V104.897H34.1934V105.85H33.4766V104.381H38.1097V103.708H33.4591V103.166ZM33.4766 105.631H39.0626V106.182H33.4766V105.631ZM43.0041 105.587V100.819H43.7367V105.587H43.0041ZM43.3766 100.024C43.2338 100.024 43.1106 99.9758 43.0072 99.8785C42.9058 99.7813 42.8551 99.6643 42.8551 99.5277C42.8551 99.3911 42.9058 99.2742 43.0072 99.1769C43.1106 99.0797 43.2338 99.031 43.3766 99.031C43.5194 99.031 43.6415 99.0797 43.7429 99.1769C43.8464 99.2742 43.8981 99.3911 43.8981 99.5277C43.8981 99.6643 43.8464 99.7813 43.7429 99.8785C43.6415 99.9758 43.5194 100.024 43.3766 100.024ZM50.0202 98.3579H50.7546V106.269H50.0202V98.3579ZM50.5535 101.566H52.0134V102.169H50.5535V101.566ZM48.0009 99.2146H48.709C48.709 101.461 47.6774 103.489 45.1248 104.774L44.7227 104.215C46.9082 103.105 48.0009 101.418 48.0009 99.3283V99.2146ZM45.0899 99.2146H48.3768V99.8091H45.0899V99.2146ZM55.7564 98.7338H60.8441V99.3195H55.7564V98.7338ZM60.3721 98.7338H61.0802V99.3457C61.0802 100.001 61.0802 100.779 60.8529 101.82L60.136 101.741C60.3721 100.718 60.3721 99.9926 60.3721 99.3457V98.7338ZM60.5731 100.071V100.587L55.6515 100.806L55.5553 100.229L60.5731 100.071ZM54.8472 101.601H61.9806V102.178H54.8472V101.601ZM55.6777 102.93H61.1413V104.774H56.412V105.841H55.6952V104.232H60.4245V103.489H55.6777V102.93ZM55.6952 105.596H61.4123V106.164H55.6952V105.596ZM62.9764 103.778H63.501C64.4626 103.778 65.3367 103.743 66.4032 103.559L66.4644 104.162C65.3717 104.355 64.48 104.381 63.501 104.381H62.9764V103.778ZM62.959 99.2234H65.9224V102.003H63.6845V104.005H62.9764V101.409H65.2144V99.8178H62.959V99.2234ZM68.7286 98.3667H69.4279V106.269H68.7286V98.3667ZM67.3911 101.487H68.9121V102.082H67.3911V101.487ZM66.9365 98.5415H67.6184V105.867H66.9365V98.5415ZM73.7632 98.9086H74.3926V99.5118C74.3926 101.234 72.7928 102.571 71.2106 102.93L70.8871 102.327C72.2771 102.064 73.7632 100.858 73.7632 99.5118V98.9086ZM73.8943 98.9086H74.5237V99.5118C74.5237 100.867 76.0186 102.064 77.3998 102.327L77.0763 102.93C75.5028 102.571 73.8943 101.243 73.8943 99.5118V98.9086ZM70.5986 104.608H77.7582V105.203H70.5986V104.608ZM81.0003 100.819H81.733V105.935C81.733 106.229 81.6822 106.484 81.5808 106.699C81.4815 106.914 81.3304 107.081 81.1276 107.199C80.9269 107.317 80.6733 107.376 80.367 107.376C80.3422 107.376 80.3174 107.376 80.2925 107.376C80.2677 107.376 80.2429 107.376 80.218 107.376V106.693C80.2429 106.693 80.2656 106.693 80.2863 106.693C80.307 106.693 80.3298 106.693 80.3546 106.693C80.5781 106.693 80.7416 106.626 80.8451 106.494C80.9486 106.363 81.0003 106.177 81.0003 105.935V100.819ZM81.3604 100.024C81.2176 100.024 81.0945 99.9758 80.991 99.8785C80.8896 99.7813 80.8389 99.6643 80.8389 99.5277C80.8389 99.3911 80.8896 99.2742 80.991 99.1769C81.0945 99.0797 81.2176 99.031 81.3604 99.031C81.5032 99.031 81.6253 99.0797 81.7267 99.1769C81.8302 99.2742 81.882 99.3911 81.882 99.5277C81.882 99.6643 81.8302 99.7813 81.7267 99.8785C81.6253 99.9758 81.5032 100.024 81.3604 100.024ZM85.8748 101.435H87.3696V102.038H85.8748V101.435ZM88.6896 98.3667H89.389V106.269H88.6896V98.3667ZM87.1248 98.5328H87.8154V105.876H87.1248V98.5328ZM84.4498 99.0223C85.4726 99.0223 86.137 100.08 86.137 101.776C86.137 103.472 85.4726 104.53 84.4498 104.53C83.4271 104.53 82.7714 103.472 82.7714 101.776C82.7714 100.08 83.4271 99.0223 84.4498 99.0223ZM84.4498 99.6954C83.8292 99.6954 83.4358 100.5 83.4358 101.776C83.4358 103.052 83.8292 103.857 84.4498 103.857C85.0793 103.857 85.4726 103.052 85.4726 101.776C85.4726 100.5 85.0793 99.6954 84.4498 99.6954ZM92.8348 102.327H100.003V102.921H92.8348V102.327ZM96.043 101.129H96.7598V102.598H96.043V101.129ZM96.0343 98.489H96.6637V98.8387C96.6637 100.264 95.1513 101.278 93.5428 101.54L93.2631 100.963C94.6793 100.771 96.0343 99.8965 96.0343 98.8387V98.489ZM96.1479 98.489H96.7686V98.8387C96.7686 99.8965 98.1323 100.771 99.5397 100.963L99.2687 101.54C97.669 101.269 96.1479 100.264 96.1479 98.8387V98.489ZM93.6303 103.69H99.0939V106.269H98.3683V104.276H93.6303V103.69ZM106.069 98.3667H106.795V106.269H106.069V98.3667ZM106.62 101.61H108.089V102.222H106.62V101.61ZM100.675 99.6255H105.335V100.22H100.675V99.6255ZM103.036 100.876C104.155 100.876 104.959 101.627 104.959 102.694C104.959 103.76 104.155 104.512 103.036 104.512C101.926 104.512 101.113 103.76 101.113 102.694C101.113 101.627 101.926 100.876 103.036 100.876ZM103.036 101.479C102.319 101.479 101.803 101.977 101.803 102.694C101.803 103.402 102.319 103.909 103.036 103.909C103.753 103.909 104.268 103.402 104.268 102.694C104.268 101.977 103.753 101.479 103.036 101.479ZM102.66 98.4628H103.385V99.8965H102.66V98.4628ZM112.38 99.7566H114.592V100.351H112.38V99.7566ZM112.38 101.444H114.609V102.047H112.38V101.444ZM108.953 99.0485H112.564V102.755H108.953V99.0485ZM111.847 99.6342H109.661V102.169H111.847V99.6342ZM114.365 98.3754H115.09V104.145H114.365V98.3754ZM110.011 105.5H115.282V106.094H110.011V105.5ZM110.011 103.62H110.737V105.771H110.011V103.62ZM121.219 99.2297V105.587H120.449V100.037H120.412L118.86 101.067V100.285L120.449 99.2297H121.219ZM123.611 104.718L123.562 105.053C123.526 105.289 123.473 105.542 123.4 105.811C123.33 106.08 123.256 106.333 123.18 106.571C123.103 106.809 123.04 106.999 122.99 107.14H122.432C122.458 107.007 122.494 106.832 122.537 106.615C122.581 106.398 122.624 106.154 122.667 105.885C122.713 105.618 122.75 105.345 122.779 105.066L122.816 104.718H123.611ZM127.631 99.2059H132.719V99.7916H127.631V99.2059ZM126.862 104.512H134.004V105.115H126.862V104.512ZM132.334 99.2059H133.042V99.9926C133.042 101.007 133.042 102.134 132.745 103.839L132.019 103.769C132.334 102.152 132.334 100.972 132.334 99.9926V99.2059ZM140.507 98.3667H141.232V102.711H140.507V98.3667ZM135.9 103.157H141.407V103.708H135.9V103.157ZM138.662 104.04C140.052 104.04 140.865 104.433 140.865 105.15C140.865 105.867 140.052 106.261 138.662 106.261C137.264 106.261 136.451 105.867 136.451 105.15C136.451 104.433 137.264 104.04 138.662 104.04ZM138.662 104.565C137.692 104.565 137.15 104.774 137.15 105.15C137.15 105.535 137.692 105.745 138.662 105.745C139.624 105.745 140.166 105.535 140.166 105.15C140.166 104.774 139.624 104.565 138.662 104.565ZM138.295 102.405H139.021V103.559H138.295V102.405ZM135.061 101.627H135.655C137.036 101.627 138.015 101.584 139.187 101.383L139.248 101.951C138.059 102.152 137.063 102.196 135.655 102.196H135.061V101.627ZM135.043 98.7251H138.54V100.701H135.778V101.907H135.061V100.167H137.832V99.2933H135.043V98.7251ZM139.029 99.914H140.734V100.5H139.029V99.914ZM144.702 99.4944H145.288V100.779C145.288 102.449 144.283 104.128 143.024 104.748L142.604 104.171C143.749 103.629 144.702 102.143 144.702 100.779V99.4944ZM144.842 99.4944H145.428V100.779C145.428 102.117 146.381 103.481 147.543 103.979L147.132 104.556C145.856 103.961 144.842 102.423 144.842 100.779V99.4944ZM142.866 99.1709H147.281V99.7828H142.866V99.1709ZM148.348 98.3667H149.073V106.269H148.348V98.3667ZM154.958 98.8125C156.138 98.8125 157.003 99.5643 157.003 100.64C157.003 101.715 156.138 102.467 154.958 102.467C153.787 102.467 152.921 101.715 152.921 100.64C152.921 99.5643 153.787 98.8125 154.958 98.8125ZM154.958 99.4069C154.206 99.4069 153.629 99.9227 153.629 100.64C153.629 101.356 154.206 101.872 154.958 101.872C155.727 101.872 156.304 101.356 156.304 100.64C156.304 99.9227 155.727 99.4069 154.958 99.4069ZM158.184 98.3667H158.909V102.3H158.184V98.3667ZM158.595 100.141H160.081V100.736H158.595V100.141ZM153.603 105.465H153.979C154.451 105.465 155.211 105.421 155.885 105.194L156.007 105.78C155.246 106.024 154.521 106.059 153.979 106.059H153.603V105.465ZM153.603 103.157H154.311V105.675H153.603V103.157ZM155.718 103.21H159.687V103.752H155.718V103.21ZM157.712 104.031C158.568 104.031 159.171 104.46 159.171 105.142C159.171 105.832 158.568 106.261 157.712 106.261C156.846 106.261 156.243 105.832 156.243 105.142C156.243 104.46 156.846 104.031 157.712 104.031ZM157.712 104.547C157.222 104.547 156.89 104.783 156.89 105.142C156.89 105.509 157.222 105.745 157.712 105.745C158.184 105.745 158.525 105.509 158.525 105.142C158.525 104.783 158.184 104.547 157.712 104.547ZM157.353 102.502H158.061V103.629H157.353V102.502ZM164.224 98.8649C165.867 98.8649 167.091 99.7391 167.091 101.05C167.091 102.37 165.867 103.236 164.224 103.236C162.58 103.236 161.347 102.37 161.347 101.05C161.347 99.7391 162.58 98.8649 164.224 98.8649ZM164.224 99.4594C162.973 99.4594 162.047 100.098 162.047 101.05C162.047 101.995 162.973 102.641 164.224 102.641C165.474 102.641 166.4 101.995 166.4 101.05C166.4 100.098 165.474 99.4594 164.224 99.4594ZM160.657 104.617H167.816V105.229H160.657V104.617ZM172.318 99.7566H174.529V100.351H172.318V99.7566ZM172.318 101.444H174.547V102.047H172.318V101.444ZM168.891 99.0485H172.501V102.755H168.891V99.0485ZM171.785 99.6342H169.599V102.169H171.785V99.6342ZM174.302 98.3754H175.028V104.145H174.302V98.3754ZM169.949 105.5H175.22V106.094H169.949V105.5ZM169.949 103.62H170.674V105.771H169.949V103.62ZM180.996 105.674C180.528 105.674 180.129 105.547 179.8 105.292C179.471 105.036 179.22 104.664 179.046 104.178C178.872 103.69 178.785 103.1 178.785 102.409C178.785 101.721 178.872 101.135 179.046 100.648C179.222 100.16 179.474 99.7875 179.803 99.5308C180.135 99.2721 180.532 99.1428 180.996 99.1428C181.459 99.1428 181.855 99.2721 182.185 99.5308C182.516 99.7875 182.768 100.16 182.942 100.648C183.118 101.135 183.206 101.721 183.206 102.409C183.206 103.1 183.119 103.69 182.945 104.178C182.771 104.664 182.52 105.036 182.191 105.292C181.862 105.547 181.463 105.674 180.996 105.674ZM180.996 104.991C181.459 104.991 181.819 104.768 182.076 104.321C182.332 103.874 182.461 103.236 182.461 102.409C182.461 101.858 182.402 101.389 182.284 101.002C182.168 100.615 182 100.32 181.781 100.118C181.564 99.9147 181.302 99.8133 180.996 99.8133C180.536 99.8133 180.177 100.04 179.918 100.493C179.66 100.944 179.53 101.583 179.53 102.409C179.53 102.959 179.588 103.427 179.704 103.812C179.82 104.197 179.987 104.49 180.204 104.69C180.423 104.891 180.687 104.991 180.996 104.991ZM189.742 98.3667H190.476V102.606H189.742V98.3667ZM185.38 103H186.096V103.961H189.759V103H190.476V106.164H185.38V103ZM186.096 104.538V105.579H189.759V104.538H186.096ZM186.236 98.7426C187.434 98.7426 188.291 99.4856 188.291 100.561C188.291 101.645 187.434 102.388 186.236 102.388C185.039 102.388 184.173 101.645 184.173 100.561C184.173 99.4856 185.039 98.7426 186.236 98.7426ZM186.236 99.3457C185.45 99.3457 184.881 99.844 184.881 100.561C184.881 101.278 185.45 101.776 186.236 101.776C187.023 101.776 187.591 101.278 187.591 100.561C187.591 99.844 187.023 99.3457 186.236 99.3457ZM197.617 98.3667H198.343V106.269H197.617V98.3667ZM192.372 99.1359H193.089V104.031H192.372V99.1359ZM192.372 103.603H193.019C194.217 103.603 195.467 103.516 196.804 103.236L196.892 103.857C195.519 104.136 194.269 104.232 193.019 104.232H192.372V103.603ZM205.091 98.3579H205.825V106.278H205.091V98.3579ZM205.651 101.479H207.119V102.091H205.651V101.479ZM200.082 103.699H200.703C202.163 103.699 203.185 103.647 204.365 103.428L204.444 104.04C203.229 104.267 202.189 104.311 200.703 104.311H200.082V103.699ZM200.082 99.1272H203.754V99.7216H200.799V103.97H200.082V99.1272ZM208.393 105.637C208.24 105.637 208.108 105.582 207.999 105.473C207.889 105.363 207.834 105.231 207.834 105.078C207.834 104.925 207.889 104.794 207.999 104.684C208.108 104.574 208.24 104.52 208.393 104.52C208.546 104.52 208.677 104.574 208.787 104.684C208.897 104.794 208.952 104.925 208.952 105.078C208.952 105.18 208.926 105.273 208.874 105.358C208.824 105.443 208.757 105.511 208.672 105.563C208.589 105.612 208.496 105.637 208.393 105.637Z" fill="black"/>
<path d="M15.52 116.875H20.8875V117.469H15.52V116.875ZM14.5497 118.527H21.718V119.121H14.5497V118.527ZM15.52 114.794H16.2369V117.172H15.52V114.794ZM15.4676 121.622H20.9312V122.216H15.4676V121.622ZM15.4676 119.908H16.1844V121.779H15.4676V119.908ZM30.6886 114.515H31.3792V119.13H30.6886V114.515ZM29.4735 116.481H30.9596V117.076H29.4735V116.481ZM28.9927 114.646H29.6833V119.025H28.9927V114.646ZM26.1953 119.541H31.3792V122.304H26.1953V119.541ZM30.6799 120.118H26.9034V121.718H30.6799V120.118ZM26.3789 114.952H26.9558V116.001C26.9558 117.172 26.274 118.413 25.1113 118.929L24.7179 118.37C25.7582 117.906 26.3789 116.892 26.3789 116.001V114.952ZM26.4925 114.952H27.0695V116.001C27.0695 116.875 27.6639 117.767 28.678 118.169L28.2846 118.711C27.1482 118.256 26.4925 117.155 26.4925 116.001V114.952ZM33.258 114.742H39.0626V115.31H33.258V114.742ZM33.293 116.814H39.0276V117.373H33.293V116.814ZM34.4556 114.96H35.1812V117.181H34.4556V114.96ZM37.1481 114.96H37.8649V117.181H37.1481V114.96ZM32.5936 118.029H39.7357V118.614H32.5936V118.029ZM33.4591 119.305H38.8265V121.036H34.1934V121.989H33.4766V120.52H38.1097V119.847H33.4591V119.305ZM33.4766 121.77H39.0626V122.321H33.4766V121.77ZM43.0041 121.727V116.958H43.7367V121.727H43.0041ZM43.3766 116.164C43.2338 116.164 43.1106 116.115 43.0072 116.018C42.9058 115.92 42.8551 115.803 42.8551 115.667C42.8551 115.53 42.9058 115.413 43.0072 115.316C43.1106 115.219 43.2338 115.17 43.3766 115.17C43.5194 115.17 43.6415 115.219 43.7429 115.316C43.8464 115.413 43.8981 115.53 43.8981 115.667C43.8981 115.803 43.8464 115.92 43.7429 116.018C43.6415 116.115 43.5194 116.164 43.3766 116.164ZM50.0202 114.497H50.7546V122.408H50.0202V114.497ZM50.5535 117.705H52.0134V118.309H50.5535V117.705ZM48.0009 115.354H48.709C48.709 117.6 47.6774 119.629 45.1248 120.914L44.7227 120.354C46.9082 119.244 48.0009 117.557 48.0009 115.467V115.354ZM45.0899 115.354H48.3768V115.948H45.0899V115.354ZM55.7564 114.873H60.8441V115.459H55.7564V114.873ZM60.3721 114.873H61.0802V115.485C61.0802 116.141 61.0802 116.919 60.8529 117.959L60.136 117.88C60.3721 116.857 60.3721 116.132 60.3721 115.485V114.873ZM60.5731 116.21V116.726L55.6515 116.945L55.5553 116.368L60.5731 116.21ZM54.8472 117.74H61.9806V118.317H54.8472V117.74ZM55.6777 119.069H61.1413V120.914H56.412V121.98H55.6952V120.372H60.4245V119.629H55.6777V119.069ZM55.6952 121.735H61.4123V122.304H55.6952V121.735ZM62.9764 119.917H63.501C64.4626 119.917 65.3367 119.882 66.4032 119.698L66.4644 120.302C65.3717 120.494 64.48 120.52 63.501 120.52H62.9764V119.917ZM62.959 115.363H65.9224V118.142H63.6845V120.144H62.9764V117.548H65.2144V115.957H62.959V115.363ZM68.7286 114.506H69.4279V122.408H68.7286V114.506ZM67.3911 117.627H68.9121V118.221H67.3911V117.627ZM66.9365 114.681H67.6184V122.006H66.9365V114.681ZM73.7632 115.048H74.3926V115.651C74.3926 117.373 72.7928 118.711 71.2106 119.069L70.8871 118.466C72.2771 118.204 73.7632 116.997 73.7632 115.651V115.048ZM73.8943 115.048H74.5237V115.651C74.5237 117.006 76.0186 118.204 77.3998 118.466L77.0763 119.069C75.5028 118.711 73.8943 117.382 73.8943 115.651V115.048ZM70.5986 120.747H77.7582V121.342H70.5986V120.747ZM81.0003 116.958H81.733V122.074C81.733 122.368 81.6822 122.623 81.5808 122.838C81.4815 123.053 81.3304 123.22 81.1276 123.338C80.9269 123.456 80.6733 123.515 80.367 123.515C80.3422 123.515 80.3174 123.515 80.2925 123.515C80.2677 123.515 80.2429 123.515 80.218 123.515V122.832C80.2429 122.832 80.2656 122.832 80.2863 122.832C80.307 122.832 80.3298 122.832 80.3546 122.832C80.5781 122.832 80.7416 122.765 80.8451 122.633C80.9486 122.503 81.0003 122.316 81.0003 122.074V116.958ZM81.3604 116.164C81.2176 116.164 81.0945 116.115 80.991 116.018C80.8896 115.92 80.8389 115.803 80.8389 115.667C80.8389 115.53 80.8896 115.413 80.991 115.316C81.0945 115.219 81.2176 115.17 81.3604 115.17C81.5032 115.17 81.6253 115.219 81.7267 115.316C81.8302 115.413 81.882 115.53 81.882 115.667C81.882 115.803 81.8302 115.92 81.7267 116.018C81.6253 116.115 81.5032 116.164 81.3604 116.164ZM85.8748 117.574H87.3696V118.177H85.8748V117.574ZM88.6896 114.506H89.389V122.408H88.6896V114.506ZM87.1248 114.672H87.8154V122.015H87.1248V114.672ZM84.4498 115.161C85.4726 115.161 86.137 116.219 86.137 117.915C86.137 119.611 85.4726 120.669 84.4498 120.669C83.4271 120.669 82.7714 119.611 82.7714 117.915C82.7714 116.219 83.4271 115.161 84.4498 115.161ZM84.4498 115.835C83.8292 115.835 83.4358 116.639 83.4358 117.915C83.4358 119.191 83.8292 119.996 84.4498 119.996C85.0793 119.996 85.4726 119.191 85.4726 117.915C85.4726 116.639 85.0793 115.835 84.4498 115.835ZM92.8348 118.466H100.003V119.06H92.8348V118.466ZM96.043 117.268H96.7598V118.737H96.043V117.268ZM96.0343 114.628H96.6637V114.978C96.6637 116.403 95.1513 117.417 93.5428 117.679L93.2631 117.102C94.6793 116.91 96.0343 116.036 96.0343 114.978V114.628ZM96.1479 114.628H96.7686V114.978C96.7686 116.036 98.1323 116.91 99.5397 117.102L99.2687 117.679C97.669 117.408 96.1479 116.403 96.1479 114.978V114.628ZM93.6303 119.83H99.0939V122.408H98.3683V120.415H93.6303V119.83ZM106.122 114.48H106.847V118.842H106.122V114.48ZM106.541 116.377H108.019V116.988H106.541V116.377ZM101.829 119.244H106.847V121.01H102.564V121.971H101.847V120.485H106.139V119.795H101.829V119.244ZM101.847 121.762H107.136V122.321H101.847V121.762ZM100.737 115.214H105.405V115.782H100.737V115.214ZM103.071 116.132C104.207 116.132 104.959 116.63 104.959 117.434C104.959 118.23 104.207 118.719 103.071 118.719C101.917 118.719 101.174 118.23 101.174 117.434C101.174 116.63 101.917 116.132 103.071 116.132ZM103.071 116.665C102.336 116.665 101.864 116.962 101.864 117.434C101.864 117.898 102.336 118.195 103.071 118.195C103.796 118.195 104.268 117.898 104.268 117.434C104.268 116.962 103.796 116.665 103.071 116.665ZM102.704 114.418H103.429V115.607H102.704V114.418ZM112.951 118.212H113.676V119.226H112.951V118.212ZM116.281 114.515H117.007V119.812H116.281V114.515ZM116.701 116.901H118.161V117.504H116.701V116.901ZM110.931 119.585L110.835 118.99C112.251 118.99 114.174 118.99 115.809 118.754L115.87 119.27C114.183 119.567 112.312 119.576 110.931 119.585ZM111.814 120.205H117.007V122.408H116.281V120.782H111.814V120.205ZM111.036 115.223H115.573V115.765H111.036V115.223ZM113.309 116.071C114.419 116.071 115.145 116.516 115.145 117.242C115.145 117.968 114.419 118.413 113.309 118.413C112.19 118.413 111.464 117.968 111.464 117.242C111.464 116.516 112.19 116.071 113.309 116.071ZM113.309 116.569C112.601 116.569 112.146 116.822 112.146 117.242C112.146 117.644 112.601 117.906 113.309 117.906C114.008 117.906 114.463 117.644 114.463 117.242C114.463 116.822 114.008 116.569 113.309 116.569ZM112.951 114.445H113.676V115.485H112.951V114.445ZM118.754 118.107H125.923V118.667H118.754V118.107ZM119.602 119.375H125.022V121.062H120.345V121.989H119.629V120.564H124.314V119.891H119.602V119.375ZM119.629 121.796H125.276V122.321H119.629V121.796ZM119.664 114.724H124.996V116.368H120.398V117.225H119.681V115.878H124.288V115.24H119.664V114.724ZM119.681 117.041H125.145V117.565H119.681V117.041ZM120.686 118.326H121.403V119.698H120.686V118.326ZM123.274 118.326H123.991V119.698H123.274V118.326ZM130.205 114.637C131.945 114.637 132.985 115.126 132.985 116.009C132.985 116.892 131.945 117.382 130.205 117.382C128.457 117.382 127.426 116.892 127.426 116.009C127.426 115.126 128.457 114.637 130.205 114.637ZM130.205 115.188C128.912 115.188 128.169 115.485 128.169 116.009C128.169 116.534 128.912 116.831 130.205 116.831C131.491 116.831 132.234 116.534 132.234 116.009C132.234 115.485 131.491 115.188 130.205 115.188ZM126.63 117.906H133.772V118.492H126.63V117.906ZM127.496 119.165H132.863V120.949H128.23V121.91H127.513V120.424H132.146V119.725H127.496V119.165ZM127.513 121.753H133.099V122.321H127.513V121.753ZM139.954 116.412H141.493V117.015H139.954V116.412ZM139.954 118.816H141.493V119.419H139.954V118.816ZM142.821 114.506H143.521V122.408H142.821V114.506ZM141.274 114.672H141.956V122.015H141.274V114.672ZM138.582 115.161C139.604 115.161 140.269 116.219 140.269 117.915C140.269 119.611 139.604 120.669 138.582 120.669C137.559 120.669 136.903 119.611 136.903 117.915C136.903 116.219 137.559 115.161 138.582 115.161ZM138.582 115.835C137.961 115.835 137.559 116.639 137.559 117.915C137.559 119.191 137.961 119.996 138.582 119.996C139.211 119.996 139.604 119.191 139.604 117.915C139.604 116.639 139.211 115.835 138.582 115.835ZM144.674 118.501H151.816V119.087H144.674V118.501ZM145.47 119.926H150.933V122.408H150.208V120.511H145.47V119.926ZM147.891 114.48H148.608V115.581H147.891V114.48ZM147.856 115.677H148.494V115.808C148.494 117.102 147.052 117.871 145.33 118.055L145.102 117.496C146.632 117.356 147.856 116.717 147.856 115.808V115.677ZM148.005 115.677H148.643V115.808C148.643 116.717 149.867 117.356 151.396 117.496L151.169 118.055C149.438 117.871 148.005 117.102 148.005 115.808V115.677ZM145.408 115.293H151.091V115.878H145.408V115.293ZM157.961 114.515H158.686V120.442H157.961V114.515ZM158.459 117.102H159.858V117.714H158.459V117.102ZM152.576 115.467H157.244V116.053H152.576V115.467ZM154.91 116.49C156.029 116.49 156.798 117.076 156.798 117.968C156.798 118.851 156.029 119.436 154.91 119.436C153.782 119.436 153.013 118.851 153.013 117.968C153.013 117.076 153.782 116.49 154.91 116.49ZM154.91 117.058C154.193 117.058 153.704 117.417 153.704 117.968C153.704 118.51 154.193 118.868 154.91 118.868C155.618 118.868 156.108 118.51 156.108 117.968C156.108 117.417 155.618 117.058 154.91 117.058ZM154.543 114.506H155.268V115.773H154.543V114.506ZM153.765 121.639H159.045V122.234H153.765V121.639ZM153.765 119.969H154.49V121.893H153.765V119.969ZM168.129 114.506H168.855V118.798H168.129V114.506ZM168.654 116.324H170.026V116.927H168.654V116.324ZM165.935 114.978H166.713C166.713 116.971 165.332 118.309 163.015 118.877L162.735 118.282C164.781 117.793 165.935 116.717 165.935 115.336V114.978ZM163.085 114.978H166.372V115.572H163.085V114.978ZM163.583 119.209H164.265V120.153H165.62V119.209H166.293V122.295H163.583V119.209ZM164.265 120.713V121.735H165.62V120.713H164.265ZM167.71 119.13H168.278V119.786C168.278 120.809 167.771 121.901 166.722 122.373L166.337 121.831C167.246 121.421 167.71 120.546 167.71 119.786V119.13ZM167.841 119.13H168.4V119.768C168.4 120.538 168.855 121.429 169.764 121.831L169.371 122.373C168.321 121.901 167.841 120.809 167.841 119.768V119.13ZM176.346 114.506H177.08V118.746H176.346V114.506ZM171.984 119.139H172.7V120.101H176.363V119.139H177.08V122.304H171.984V119.139ZM172.7 120.678V121.718H176.363V120.678H172.7ZM172.84 114.882C174.038 114.882 174.895 115.625 174.895 116.7C174.895 117.784 174.038 118.527 172.84 118.527C171.643 118.527 170.777 117.784 170.777 116.7C170.777 115.625 171.643 114.882 172.84 114.882ZM172.84 115.485C172.054 115.485 171.485 115.983 171.485 116.7C171.485 117.417 172.054 117.915 172.84 117.915C173.627 117.915 174.195 117.417 174.195 116.7C174.195 115.983 173.627 115.485 172.84 115.485ZM184.221 114.506H184.947V122.408H184.221V114.506ZM178.976 115.275H179.693V120.171H178.976V115.275ZM178.976 119.742H179.623C180.821 119.742 182.071 119.655 183.409 119.375L183.496 119.996C182.123 120.275 180.873 120.372 179.623 120.372H178.976V119.742ZM191.695 114.497H192.429V122.417H191.695V114.497ZM192.255 117.618H193.723V118.23H192.255V117.618ZM186.686 119.838H187.307C188.767 119.838 189.789 119.786 190.97 119.567L191.048 120.179C189.833 120.407 188.793 120.45 187.307 120.45H186.686V119.838ZM186.686 115.266H190.358V115.861H187.403V120.109H186.686V115.266ZM194.997 121.776C194.844 121.776 194.712 121.721 194.603 121.612C194.493 121.502 194.438 121.371 194.438 121.217C194.438 121.064 194.493 120.933 194.603 120.823C194.712 120.714 194.844 120.659 194.997 120.659C195.15 120.659 195.281 120.714 195.391 120.823C195.501 120.933 195.556 121.064 195.556 121.217C195.556 121.319 195.53 121.412 195.478 121.497C195.428 121.582 195.361 121.65 195.276 121.702C195.194 121.751 195.1 121.776 194.997 121.776Z" fill="black"/>
<defs>
<clipPath id="clip0_1340_2186">
<rect width="207.062" height="54.2668" fill="white"/>
</clipPath>
<clipPath id="clip1_1340_2186">
<rect width="10.3925" height="8.27279" fill="white" transform="translate(0.672363 68.6899)"/>
</clipPath>
<clipPath id="clip2_1340_2186">
<rect width="9.04799" height="8.78152" fill="white" transform="translate(0.672363 83.4839)"/>
</clipPath>
<clipPath id="clip3_1340_2186">
<rect width="11.7118" height="8.80573" fill="white" transform="translate(0.672363 97.605)"/>
</clipPath>
<clipPath id="clip4_1340_2186">
<rect width="11.7118" height="11.8702" fill="white" transform="translate(0 111.727)"/>
</clipPath>
</defs>
</svg>
