<svg width="454" height="348" viewBox="0 0 454 348" fill="none" xmlns="http://www.w3.org/2000/svg">
<path d="M217.792 11.844H222.544V14.198H217.792V11.844ZM221.004 6.608H223.93V21.458H221.004V6.608ZM210.488 24.274H224.392V26.606H210.488V24.274ZM210.488 20.204H213.414V25.66H210.488V20.204ZM211.588 9.27H213.964V10.546C213.964 14.374 212.16 17.916 208.244 19.214L206.77 16.882C210.136 15.782 211.588 13.12 211.588 10.546V9.27ZM212.204 9.27H214.558V10.546C214.558 12.922 215.944 15.452 219.156 16.53L217.726 18.818C213.942 17.564 212.204 14.176 212.204 10.546V9.27ZM207.562 7.972H218.518V10.282H207.562V7.972ZM234.994 14.308H238.228V16.662H234.994V14.308ZM230.264 12.24H232.464V12.768C232.464 17.014 231.232 21.26 227.976 23.13L226.326 20.93C229.23 19.236 230.264 15.892 230.264 12.768V12.24ZM230.836 12.24H233.036V12.768C233.036 15.848 234.092 18.95 236.974 20.49L235.39 22.646C232.09 20.93 230.836 16.948 230.836 12.768V12.24ZM227.096 9.996H236.182V12.35H227.096V9.996ZM230.264 7.268H233.036V11.91H230.264V7.268ZM241.418 6.586H244.19V26.958H241.418V6.586ZM237.304 6.916H240.032V26.034H237.304V6.916ZM261.239 6.586H264.033V26.958H261.239V6.586ZM253.495 14.022H258.225V16.376H253.495V14.022ZM257.037 6.938H259.765V26.056H257.037V6.938ZM247.115 20.028H248.523C251.405 20.028 253.319 19.962 255.563 19.522L255.783 21.898C253.517 22.36 251.493 22.448 248.523 22.448H247.115V20.028ZM247.115 8.874H254.881V11.206H249.997V21.04H247.115V8.874ZM280.311 6.564H283.259V27.002H280.311V6.564ZM272.281 7.994C275.361 7.994 277.627 10.81 277.627 15.254C277.627 19.742 275.361 22.558 272.281 22.558C269.201 22.558 266.935 19.742 266.935 15.254C266.935 10.81 269.201 7.994 272.281 7.994ZM272.281 10.656C270.763 10.656 269.729 12.262 269.729 15.254C269.729 18.29 270.763 19.918 272.281 19.918C273.799 19.918 274.811 18.29 274.811 15.254C274.811 12.262 273.799 10.656 272.281 10.656ZM300.351 6.564H303.255V27.002H300.351V6.564ZM296.853 13.736H300.681V16.112H296.853V13.736ZM287.085 20.028H288.713C292.079 20.028 294.587 19.984 297.469 19.522L297.733 21.854C294.785 22.316 292.145 22.404 288.713 22.404H287.085V20.028ZM287.085 8.28H296.523V10.656H289.989V20.776H287.085V8.28ZM289.329 13.956H295.819V16.244H289.329V13.956ZM317.722 23.1406C317.207 23.1406 316.764 22.9583 316.394 22.5938C316.03 22.2292 315.847 21.7865 315.847 21.2656C315.847 20.7552 316.03 20.3177 316.394 19.9531C316.764 19.5885 317.207 19.4062 317.722 19.4062C318.222 19.4062 318.66 19.5885 319.035 19.9531C319.41 20.3177 319.597 20.7552 319.597 21.2656C319.597 21.6094 319.509 21.9245 319.332 22.2109C319.16 22.4922 318.933 22.7187 318.652 22.8906C318.371 23.0573 318.061 23.1406 317.722 23.1406ZM317.722 15.2891C317.207 15.2891 316.764 15.1068 316.394 14.7422C316.03 14.3776 315.847 13.9349 315.847 13.4141C315.847 12.9036 316.03 12.4687 316.394 12.1094C316.764 11.7448 317.207 11.5625 317.722 11.5625C318.222 11.5625 318.66 11.7448 319.035 12.1094C319.41 12.4687 319.597 12.9036 319.597 13.4141C319.597 13.763 319.509 14.0807 319.332 14.3672C319.16 14.6484 318.933 14.8724 318.652 15.0391C318.371 15.2057 318.061 15.2891 317.722 15.2891ZM326.554 25V22.5625L332.25 17.2891C332.734 16.8203 333.14 16.3984 333.468 16.0234C333.802 15.6484 334.054 15.2812 334.226 14.9219C334.398 14.5573 334.484 14.1641 334.484 13.7422C334.484 13.2734 334.377 12.8698 334.164 12.5312C333.95 12.1875 333.659 11.9245 333.289 11.7422C332.919 11.5547 332.5 11.4609 332.031 11.4609C331.541 11.4609 331.114 11.5599 330.75 11.7578C330.385 11.9557 330.104 12.2396 329.906 12.6094C329.708 12.9792 329.609 13.4193 329.609 13.9297H326.398C326.398 12.8828 326.635 11.974 327.109 11.2031C327.583 10.4323 328.247 9.83594 329.101 9.41406C329.955 8.99219 330.94 8.78125 332.054 8.78125C333.2 8.78125 334.198 8.98437 335.047 9.39062C335.901 9.79167 336.565 10.349 337.039 11.0625C337.513 11.776 337.75 12.5937 337.75 13.5156C337.75 14.1198 337.63 14.7161 337.39 15.3047C337.156 15.8932 336.737 16.5469 336.133 17.2656C335.528 17.9792 334.677 18.8359 333.578 19.8359L331.242 22.125V22.2344H337.961V25H326.554ZM346.267 25.3516C344.924 25.3464 343.767 25.0156 342.799 24.3594C341.835 23.7031 341.093 22.7526 340.572 21.5078C340.056 20.263 339.801 18.7656 339.806 17.0156C339.806 15.2708 340.064 13.7839 340.58 12.5547C341.101 11.3255 341.843 10.3906 342.806 9.75C343.775 9.10417 344.929 8.78125 346.267 8.78125C347.606 8.78125 348.757 9.10417 349.72 9.75C350.689 10.3958 351.434 11.3333 351.955 12.5625C352.476 13.7865 352.733 15.2708 352.728 17.0156C352.728 18.7708 352.468 20.2708 351.947 21.5156C351.431 22.7604 350.692 23.7109 349.728 24.3672C348.765 25.0234 347.611 25.3516 346.267 25.3516ZM346.267 22.5469C347.184 22.5469 347.916 22.0859 348.463 21.1641C349.009 20.2422 349.28 18.8594 349.275 17.0156C349.275 15.8021 349.15 14.7917 348.9 13.9844C348.655 13.1771 348.306 12.5703 347.853 12.1641C347.405 11.7578 346.877 11.5547 346.267 11.5547C345.356 11.5547 344.627 12.0104 344.08 12.9219C343.533 13.8333 343.257 15.1979 343.252 17.0156C343.252 18.2448 343.374 19.2708 343.619 20.0937C343.869 20.9115 344.22 21.526 344.674 21.9375C345.127 22.3437 345.658 22.5469 346.267 22.5469ZM360.996 25.3516C359.652 25.3464 358.496 25.0156 357.527 24.3594C356.563 23.7031 355.821 22.7526 355.3 21.5078C354.785 20.263 354.53 18.7656 354.535 17.0156C354.535 15.2708 354.793 13.7839 355.308 12.5547C355.829 11.3255 356.571 10.3906 357.535 9.75C358.504 9.10417 359.657 8.78125 360.996 8.78125C362.334 8.78125 363.485 9.10417 364.449 9.75C365.418 10.3958 366.162 11.3333 366.683 12.5625C367.204 13.7865 367.462 15.2708 367.457 17.0156C367.457 18.7708 367.196 20.2708 366.675 21.5156C366.16 22.7604 365.42 23.7109 364.457 24.3672C363.493 25.0234 362.339 25.3516 360.996 25.3516ZM360.996 22.5469C361.912 22.5469 362.644 22.0859 363.191 21.1641C363.738 20.2422 364.009 18.8594 364.004 17.0156C364.004 15.8021 363.879 14.7917 363.629 13.9844C363.384 13.1771 363.035 12.5703 362.582 12.1641C362.134 11.7578 361.605 11.5547 360.996 11.5547C360.084 11.5547 359.355 12.0104 358.808 12.9219C358.261 13.8333 357.985 15.1979 357.98 17.0156C357.98 18.2448 358.103 19.2708 358.347 20.0937C358.597 20.9115 358.949 21.526 359.402 21.9375C359.855 22.3437 360.386 22.5469 360.996 22.5469ZM375.724 25.3516C374.38 25.3464 373.224 25.0156 372.255 24.3594C371.292 23.7031 370.55 22.7526 370.029 21.5078C369.513 20.263 369.258 18.7656 369.263 17.0156C369.263 15.2708 369.521 13.7839 370.037 12.5547C370.558 11.3255 371.3 10.3906 372.263 9.75C373.232 9.10417 374.386 8.78125 375.724 8.78125C377.063 8.78125 378.214 9.10417 379.177 9.75C380.146 10.3958 380.891 11.3333 381.412 12.5625C381.933 13.7865 382.19 15.2708 382.185 17.0156C382.185 18.7708 381.925 20.2708 381.404 21.5156C380.888 22.7604 380.149 23.7109 379.185 24.3672C378.222 25.0234 377.068 25.3516 375.724 25.3516ZM375.724 22.5469C376.641 22.5469 377.373 22.0859 377.92 21.1641C378.466 20.2422 378.737 18.8594 378.732 17.0156C378.732 15.8021 378.607 14.7917 378.357 13.9844C378.112 13.1771 377.763 12.5703 377.31 12.1641C376.862 11.7578 376.334 11.5547 375.724 11.5547C374.813 11.5547 374.084 12.0104 373.537 12.9219C372.99 13.8333 372.714 15.1979 372.709 17.0156C372.709 18.2448 372.831 19.2708 373.076 20.0937C373.326 20.9115 373.677 21.526 374.13 21.9375C374.584 22.3437 375.115 22.5469 375.724 22.5469ZM398.414 6.586H401.208V26.958H398.414V6.586ZM395.84 14.264H399.206V16.596H395.84V14.264ZM389.768 9.072H392.562C392.562 14.814 390.89 19.456 385.192 22.778L383.498 20.754C388.14 18.004 389.768 14.572 389.768 9.688V9.072ZM384.532 9.072H390.626V11.426H384.532V9.072ZM393.904 7.114H396.632V26.078H393.904V7.114Z" fill="black"/>
<rect x="278" y="48" width="53" height="300" rx="5" fill="#D9D9D9"/>
<rect x="278" y="48" width="53" height="30" rx="5" fill="#B9B9B9"/>
<path d="M287.707 67V65.6705L290.814 62.794C291.078 62.5384 291.3 62.3082 291.479 62.1037C291.661 61.8991 291.798 61.6989 291.892 61.5028C291.986 61.304 292.033 61.0895 292.033 60.8594C292.033 60.6037 291.974 60.3835 291.858 60.1989C291.741 60.0114 291.582 59.8679 291.381 59.7685C291.179 59.6662 290.95 59.6151 290.695 59.6151C290.428 59.6151 290.195 59.669 289.996 59.777C289.797 59.8849 289.643 60.0398 289.536 60.2415C289.428 60.4432 289.374 60.6832 289.374 60.9616H287.622C287.622 60.3906 287.751 59.8949 288.01 59.4744C288.268 59.054 288.631 58.7287 289.097 58.4986C289.563 58.2685 290.099 58.1534 290.707 58.1534C291.332 58.1534 291.876 58.2642 292.339 58.4858C292.805 58.7045 293.168 59.0085 293.426 59.3977C293.685 59.7869 293.814 60.233 293.814 60.7358C293.814 61.0653 293.749 61.3906 293.618 61.7116C293.49 62.0327 293.261 62.3892 292.932 62.7812C292.602 63.1705 292.138 63.6378 291.538 64.1832L290.264 65.4318V65.4915H293.929V67H287.707ZM298.46 67.1918C297.727 67.1889 297.096 67.0085 296.568 66.6506C296.042 66.2926 295.637 65.7741 295.353 65.0952C295.072 64.4162 294.933 63.5994 294.936 62.6449C294.936 61.6932 295.076 60.8821 295.358 60.2116C295.642 59.5412 296.047 59.0312 296.572 58.6818C297.1 58.3295 297.73 58.1534 298.46 58.1534C299.19 58.1534 299.818 58.3295 300.343 58.6818C300.872 59.0341 301.278 59.5455 301.562 60.2159C301.846 60.8835 301.987 61.6932 301.984 62.6449C301.984 63.6023 301.842 64.4205 301.558 65.0994C301.277 65.7784 300.873 66.2969 300.348 66.6548C299.822 67.0128 299.193 67.1918 298.46 67.1918ZM298.46 65.6619C298.96 65.6619 299.359 65.4105 299.657 64.9077C299.956 64.4048 300.103 63.6506 300.1 62.6449C300.1 61.983 300.032 61.4318 299.896 60.9915C299.762 60.5511 299.572 60.2202 299.325 59.9986C299.081 59.777 298.792 59.6662 298.46 59.6662C297.963 59.6662 297.565 59.9148 297.267 60.4119C296.968 60.9091 296.818 61.6534 296.815 62.6449C296.815 63.3153 296.882 63.875 297.015 64.3239C297.152 64.7699 297.343 65.1051 297.591 65.3295C297.838 65.5511 298.127 65.6619 298.46 65.6619ZM306.494 67.1918C305.761 67.1889 305.13 67.0085 304.602 66.6506C304.076 66.2926 303.671 65.7741 303.387 65.0952C303.106 64.4162 302.967 63.5994 302.969 62.6449C302.969 61.6932 303.11 60.8821 303.391 60.2116C303.675 59.5412 304.08 59.0312 304.606 58.6818C305.134 58.3295 305.763 58.1534 306.494 58.1534C307.224 58.1534 307.852 58.3295 308.377 58.6818C308.906 59.0341 309.312 59.5455 309.596 60.2159C309.88 60.8835 310.021 61.6932 310.018 62.6449C310.018 63.6023 309.876 64.4205 309.592 65.0994C309.31 65.7784 308.907 66.2969 308.381 66.6548C307.856 67.0128 307.227 67.1918 306.494 67.1918ZM306.494 65.6619C306.994 65.6619 307.393 65.4105 307.691 64.9077C307.989 64.4048 308.137 63.6506 308.134 62.6449C308.134 61.983 308.066 61.4318 307.93 60.9915C307.796 60.5511 307.606 60.2202 307.359 59.9986C307.114 59.777 306.826 59.6662 306.494 59.6662C305.996 59.6662 305.599 59.9148 305.3 60.4119C305.002 60.9091 304.852 61.6534 304.849 62.6449C304.849 63.3153 304.915 63.875 305.049 64.3239C305.185 64.7699 305.377 65.1051 305.624 65.3295C305.871 65.5511 306.161 65.6619 306.494 65.6619ZM318.87 56.956H320.394V68.068H318.87V56.956ZM317.466 61.144H319.302V62.416H317.466V61.144ZM314.154 58.312H315.678C315.678 61.444 314.766 63.976 311.658 65.788L310.734 64.684C313.266 63.184 314.154 61.312 314.154 58.648V58.312ZM311.298 58.312H314.622V59.596H311.298V58.312ZM316.41 57.244H317.898V67.588H316.41V57.244Z" fill="black"/>
<rect x="278" y="78" width="53" height="30" rx="5" fill="#8F8F8F"/>
<path d="M287.707 97V95.6705L290.814 92.794C291.078 92.5384 291.3 92.3082 291.479 92.1037C291.661 91.8991 291.798 91.6989 291.892 91.5028C291.986 91.304 292.033 91.0895 292.033 90.8594C292.033 90.6037 291.974 90.3835 291.858 90.1989C291.741 90.0114 291.582 89.8679 291.381 89.7685C291.179 89.6662 290.95 89.6151 290.695 89.6151C290.428 89.6151 290.195 89.669 289.996 89.777C289.797 89.8849 289.643 90.0398 289.536 90.2415C289.428 90.4432 289.374 90.6832 289.374 90.9616H287.622C287.622 90.3906 287.751 89.8949 288.01 89.4744C288.268 89.054 288.631 88.7287 289.097 88.4986C289.563 88.2685 290.099 88.1534 290.707 88.1534C291.332 88.1534 291.876 88.2642 292.339 88.4858C292.805 88.7045 293.168 89.0085 293.426 89.3977C293.685 89.7869 293.814 90.233 293.814 90.7358C293.814 91.0653 293.749 91.3906 293.618 91.7116C293.49 92.0327 293.261 92.3892 292.932 92.7812C292.602 93.1705 292.138 93.6378 291.538 94.1832L290.264 95.4318V95.4915H293.929V97H287.707ZM298.46 97.1918C297.727 97.1889 297.096 97.0085 296.568 96.6506C296.042 96.2926 295.637 95.7741 295.353 95.0952C295.072 94.4162 294.933 93.5994 294.936 92.6449C294.936 91.6932 295.076 90.8821 295.358 90.2116C295.642 89.5412 296.047 89.0312 296.572 88.6818C297.1 88.3295 297.73 88.1534 298.46 88.1534C299.19 88.1534 299.818 88.3295 300.343 88.6818C300.872 89.0341 301.278 89.5455 301.562 90.2159C301.846 90.8835 301.987 91.6932 301.984 92.6449C301.984 93.6023 301.842 94.4205 301.558 95.0994C301.277 95.7784 300.873 96.2969 300.348 96.6548C299.822 97.0128 299.193 97.1918 298.46 97.1918ZM298.46 95.6619C298.96 95.6619 299.359 95.4105 299.657 94.9077C299.956 94.4048 300.103 93.6506 300.1 92.6449C300.1 91.983 300.032 91.4318 299.896 90.9915C299.762 90.5511 299.572 90.2202 299.325 89.9986C299.081 89.777 298.792 89.6662 298.46 89.6662C297.963 89.6662 297.565 89.9148 297.267 90.4119C296.968 90.9091 296.818 91.6534 296.815 92.6449C296.815 93.3153 296.882 93.875 297.015 94.3239C297.152 94.7699 297.343 95.1051 297.591 95.3295C297.838 95.5511 298.127 95.6619 298.46 95.6619ZM306.494 97.1918C305.761 97.1889 305.13 97.0085 304.602 96.6506C304.076 96.2926 303.671 95.7741 303.387 95.0952C303.106 94.4162 302.967 93.5994 302.969 92.6449C302.969 91.6932 303.11 90.8821 303.391 90.2116C303.675 89.5412 304.08 89.0312 304.606 88.6818C305.134 88.3295 305.763 88.1534 306.494 88.1534C307.224 88.1534 307.852 88.3295 308.377 88.6818C308.906 89.0341 309.312 89.5455 309.596 90.2159C309.88 90.8835 310.021 91.6932 310.018 92.6449C310.018 93.6023 309.876 94.4205 309.592 95.0994C309.31 95.7784 308.907 96.2969 308.381 96.6548C307.856 97.0128 307.227 97.1918 306.494 97.1918ZM306.494 95.6619C306.994 95.6619 307.393 95.4105 307.691 94.9077C307.989 94.4048 308.137 93.6506 308.134 92.6449C308.134 91.983 308.066 91.4318 307.93 90.9915C307.796 90.5511 307.606 90.2202 307.359 89.9986C307.114 89.777 306.826 89.6662 306.494 89.6662C305.996 89.6662 305.599 89.9148 305.3 90.4119C305.002 90.9091 304.852 91.6534 304.849 92.6449C304.849 93.3153 304.915 93.875 305.049 94.3239C305.185 94.7699 305.377 95.1051 305.624 95.3295C305.871 95.5511 306.161 95.6619 306.494 95.6619ZM318.87 86.956H320.394V98.068H318.87V86.956ZM317.466 91.144H319.302V92.416H317.466V91.144ZM314.154 88.312H315.678C315.678 91.444 314.766 93.976 311.658 95.788L310.734 94.684C313.266 93.184 314.154 91.312 314.154 88.648V88.312ZM311.298 88.312H314.622V89.596H311.298V88.312ZM316.41 87.244H317.898V97.588H316.41V87.244Z" fill="black"/>
<rect x="278" y="288" width="53" height="30" rx="5" fill="#B9B9B9"/>
<path d="M287.707 307V305.67L290.814 302.794C291.078 302.538 291.3 302.308 291.479 302.104C291.661 301.899 291.798 301.699 291.892 301.503C291.986 301.304 292.033 301.089 292.033 300.859C292.033 300.604 291.974 300.384 291.858 300.199C291.741 300.011 291.582 299.868 291.381 299.768C291.179 299.666 290.95 299.615 290.695 299.615C290.428 299.615 290.195 299.669 289.996 299.777C289.797 299.885 289.643 300.04 289.536 300.241C289.428 300.443 289.374 300.683 289.374 300.962H287.622C287.622 300.391 287.751 299.895 288.01 299.474C288.268 299.054 288.631 298.729 289.097 298.499C289.563 298.268 290.099 298.153 290.707 298.153C291.332 298.153 291.876 298.264 292.339 298.486C292.805 298.705 293.168 299.009 293.426 299.398C293.685 299.787 293.814 300.233 293.814 300.736C293.814 301.065 293.749 301.391 293.618 301.712C293.49 302.033 293.261 302.389 292.932 302.781C292.602 303.17 292.138 303.638 291.538 304.183L290.264 305.432V305.491H293.929V307H287.707ZM298.46 307.192C297.727 307.189 297.096 307.009 296.568 306.651C296.042 306.293 295.637 305.774 295.353 305.095C295.072 304.416 294.933 303.599 294.936 302.645C294.936 301.693 295.076 300.882 295.358 300.212C295.642 299.541 296.047 299.031 296.572 298.682C297.1 298.33 297.73 298.153 298.46 298.153C299.19 298.153 299.818 298.33 300.343 298.682C300.872 299.034 301.278 299.545 301.562 300.216C301.846 300.884 301.987 301.693 301.984 302.645C301.984 303.602 301.842 304.42 301.558 305.099C301.277 305.778 300.873 306.297 300.348 306.655C299.822 307.013 299.193 307.192 298.46 307.192ZM298.46 305.662C298.96 305.662 299.359 305.411 299.657 304.908C299.956 304.405 300.103 303.651 300.1 302.645C300.1 301.983 300.032 301.432 299.896 300.991C299.762 300.551 299.572 300.22 299.325 299.999C299.081 299.777 298.792 299.666 298.46 299.666C297.963 299.666 297.565 299.915 297.267 300.412C296.968 300.909 296.818 301.653 296.815 302.645C296.815 303.315 296.882 303.875 297.015 304.324C297.152 304.77 297.343 305.105 297.591 305.33C297.838 305.551 298.127 305.662 298.46 305.662ZM306.494 307.192C305.761 307.189 305.13 307.009 304.602 306.651C304.076 306.293 303.671 305.774 303.387 305.095C303.106 304.416 302.967 303.599 302.969 302.645C302.969 301.693 303.11 300.882 303.391 300.212C303.675 299.541 304.08 299.031 304.606 298.682C305.134 298.33 305.763 298.153 306.494 298.153C307.224 298.153 307.852 298.33 308.377 298.682C308.906 299.034 309.312 299.545 309.596 300.216C309.88 300.884 310.021 301.693 310.018 302.645C310.018 303.602 309.876 304.42 309.592 305.099C309.31 305.778 308.907 306.297 308.381 306.655C307.856 307.013 307.227 307.192 306.494 307.192ZM306.494 305.662C306.994 305.662 307.393 305.411 307.691 304.908C307.989 304.405 308.137 303.651 308.134 302.645C308.134 301.983 308.066 301.432 307.93 300.991C307.796 300.551 307.606 300.22 307.359 299.999C307.114 299.777 306.826 299.666 306.494 299.666C305.996 299.666 305.599 299.915 305.3 300.412C305.002 300.909 304.852 301.653 304.849 302.645C304.849 303.315 304.915 303.875 305.049 304.324C305.185 304.77 305.377 305.105 305.624 305.33C305.871 305.551 306.161 305.662 306.494 305.662ZM318.87 296.956H320.394V308.068H318.87V296.956ZM317.466 301.144H319.302V302.416H317.466V301.144ZM314.154 298.312H315.678C315.678 301.444 314.766 303.976 311.658 305.788L310.734 304.684C313.266 303.184 314.154 301.312 314.154 298.648V298.312ZM311.298 298.312H314.622V299.596H311.298V298.312ZM316.41 297.244H317.898V307.588H316.41V297.244Z" fill="black"/>
<rect x="278" y="318" width="53" height="30" rx="5" fill="#8F8F8F"/>
<path d="M287.707 337V335.67L290.814 332.794C291.078 332.538 291.3 332.308 291.479 332.104C291.661 331.899 291.798 331.699 291.892 331.503C291.986 331.304 292.033 331.089 292.033 330.859C292.033 330.604 291.974 330.384 291.858 330.199C291.741 330.011 291.582 329.868 291.381 329.768C291.179 329.666 290.95 329.615 290.695 329.615C290.428 329.615 290.195 329.669 289.996 329.777C289.797 329.885 289.643 330.04 289.536 330.241C289.428 330.443 289.374 330.683 289.374 330.962H287.622C287.622 330.391 287.751 329.895 288.01 329.474C288.268 329.054 288.631 328.729 289.097 328.499C289.563 328.268 290.099 328.153 290.707 328.153C291.332 328.153 291.876 328.264 292.339 328.486C292.805 328.705 293.168 329.009 293.426 329.398C293.685 329.787 293.814 330.233 293.814 330.736C293.814 331.065 293.749 331.391 293.618 331.712C293.49 332.033 293.261 332.389 292.932 332.781C292.602 333.17 292.138 333.638 291.538 334.183L290.264 335.432V335.491H293.929V337H287.707ZM298.46 337.192C297.727 337.189 297.096 337.009 296.568 336.651C296.042 336.293 295.637 335.774 295.353 335.095C295.072 334.416 294.933 333.599 294.936 332.645C294.936 331.693 295.076 330.882 295.358 330.212C295.642 329.541 296.047 329.031 296.572 328.682C297.1 328.33 297.73 328.153 298.46 328.153C299.19 328.153 299.818 328.33 300.343 328.682C300.872 329.034 301.278 329.545 301.562 330.216C301.846 330.884 301.987 331.693 301.984 332.645C301.984 333.602 301.842 334.42 301.558 335.099C301.277 335.778 300.873 336.297 300.348 336.655C299.822 337.013 299.193 337.192 298.46 337.192ZM298.46 335.662C298.96 335.662 299.359 335.411 299.657 334.908C299.956 334.405 300.103 333.651 300.1 332.645C300.1 331.983 300.032 331.432 299.896 330.991C299.762 330.551 299.572 330.22 299.325 329.999C299.081 329.777 298.792 329.666 298.46 329.666C297.963 329.666 297.565 329.915 297.267 330.412C296.968 330.909 296.818 331.653 296.815 332.645C296.815 333.315 296.882 333.875 297.015 334.324C297.152 334.77 297.343 335.105 297.591 335.33C297.838 335.551 298.127 335.662 298.46 335.662ZM306.494 337.192C305.761 337.189 305.13 337.009 304.602 336.651C304.076 336.293 303.671 335.774 303.387 335.095C303.106 334.416 302.967 333.599 302.969 332.645C302.969 331.693 303.11 330.882 303.391 330.212C303.675 329.541 304.08 329.031 304.606 328.682C305.134 328.33 305.763 328.153 306.494 328.153C307.224 328.153 307.852 328.33 308.377 328.682C308.906 329.034 309.312 329.545 309.596 330.216C309.88 330.884 310.021 331.693 310.018 332.645C310.018 333.602 309.876 334.42 309.592 335.099C309.31 335.778 308.907 336.297 308.381 336.655C307.856 337.013 307.227 337.192 306.494 337.192ZM306.494 335.662C306.994 335.662 307.393 335.411 307.691 334.908C307.989 334.405 308.137 333.651 308.134 332.645C308.134 331.983 308.066 331.432 307.93 330.991C307.796 330.551 307.606 330.22 307.359 329.999C307.114 329.777 306.826 329.666 306.494 329.666C305.996 329.666 305.599 329.915 305.3 330.412C305.002 330.909 304.852 331.653 304.849 332.645C304.849 333.315 304.915 333.875 305.049 334.324C305.185 334.77 305.377 335.105 305.624 335.33C305.871 335.551 306.161 335.662 306.494 335.662ZM318.87 326.956H320.394V338.068H318.87V326.956ZM317.466 331.144H319.302V332.416H317.466V331.144ZM314.154 328.312H315.678C315.678 331.444 314.766 333.976 311.658 335.788L310.734 334.684C313.266 333.184 314.154 331.312 314.154 328.648V328.312ZM311.298 328.312H314.622V329.596H311.298V328.312ZM316.41 327.244H317.898V337.588H316.41V327.244Z" fill="black"/>
<rect x="278" y="228" width="53" height="30" rx="5" fill="#B9B9B9"/>
<path d="M287.707 247V245.67L290.814 242.794C291.078 242.538 291.3 242.308 291.479 242.104C291.661 241.899 291.798 241.699 291.892 241.503C291.986 241.304 292.033 241.089 292.033 240.859C292.033 240.604 291.974 240.384 291.858 240.199C291.741 240.011 291.582 239.868 291.381 239.768C291.179 239.666 290.95 239.615 290.695 239.615C290.428 239.615 290.195 239.669 289.996 239.777C289.797 239.885 289.643 240.04 289.536 240.241C289.428 240.443 289.374 240.683 289.374 240.962H287.622C287.622 240.391 287.751 239.895 288.01 239.474C288.268 239.054 288.631 238.729 289.097 238.499C289.563 238.268 290.099 238.153 290.707 238.153C291.332 238.153 291.876 238.264 292.339 238.486C292.805 238.705 293.168 239.009 293.426 239.398C293.685 239.787 293.814 240.233 293.814 240.736C293.814 241.065 293.749 241.391 293.618 241.712C293.49 242.033 293.261 242.389 292.932 242.781C292.602 243.17 292.138 243.638 291.538 244.183L290.264 245.432V245.491H293.929V247H287.707ZM298.46 247.192C297.727 247.189 297.096 247.009 296.568 246.651C296.042 246.293 295.637 245.774 295.353 245.095C295.072 244.416 294.933 243.599 294.936 242.645C294.936 241.693 295.076 240.882 295.358 240.212C295.642 239.541 296.047 239.031 296.572 238.682C297.1 238.33 297.73 238.153 298.46 238.153C299.19 238.153 299.818 238.33 300.343 238.682C300.872 239.034 301.278 239.545 301.562 240.216C301.846 240.884 301.987 241.693 301.984 242.645C301.984 243.602 301.842 244.42 301.558 245.099C301.277 245.778 300.873 246.297 300.348 246.655C299.822 247.013 299.193 247.192 298.46 247.192ZM298.46 245.662C298.96 245.662 299.359 245.411 299.657 244.908C299.956 244.405 300.103 243.651 300.1 242.645C300.1 241.983 300.032 241.432 299.896 240.991C299.762 240.551 299.572 240.22 299.325 239.999C299.081 239.777 298.792 239.666 298.46 239.666C297.963 239.666 297.565 239.915 297.267 240.412C296.968 240.909 296.818 241.653 296.815 242.645C296.815 243.315 296.882 243.875 297.015 244.324C297.152 244.77 297.343 245.105 297.591 245.33C297.838 245.551 298.127 245.662 298.46 245.662ZM306.494 247.192C305.761 247.189 305.13 247.009 304.602 246.651C304.076 246.293 303.671 245.774 303.387 245.095C303.106 244.416 302.967 243.599 302.969 242.645C302.969 241.693 303.11 240.882 303.391 240.212C303.675 239.541 304.08 239.031 304.606 238.682C305.134 238.33 305.763 238.153 306.494 238.153C307.224 238.153 307.852 238.33 308.377 238.682C308.906 239.034 309.312 239.545 309.596 240.216C309.88 240.884 310.021 241.693 310.018 242.645C310.018 243.602 309.876 244.42 309.592 245.099C309.31 245.778 308.907 246.297 308.381 246.655C307.856 247.013 307.227 247.192 306.494 247.192ZM306.494 245.662C306.994 245.662 307.393 245.411 307.691 244.908C307.989 244.405 308.137 243.651 308.134 242.645C308.134 241.983 308.066 241.432 307.93 240.991C307.796 240.551 307.606 240.22 307.359 239.999C307.114 239.777 306.826 239.666 306.494 239.666C305.996 239.666 305.599 239.915 305.3 240.412C305.002 240.909 304.852 241.653 304.849 242.645C304.849 243.315 304.915 243.875 305.049 244.324C305.185 244.77 305.377 245.105 305.624 245.33C305.871 245.551 306.161 245.662 306.494 245.662ZM318.87 236.956H320.394V248.068H318.87V236.956ZM317.466 241.144H319.302V242.416H317.466V241.144ZM314.154 238.312H315.678C315.678 241.444 314.766 243.976 311.658 245.788L310.734 244.684C313.266 243.184 314.154 241.312 314.154 238.648V238.312ZM311.298 238.312H314.622V239.596H311.298V238.312ZM316.41 237.244H317.898V247.588H316.41V237.244Z" fill="black"/>
<rect x="278" y="258" width="53" height="30" rx="5" fill="#8F8F8F"/>
<path d="M287.707 277V275.67L290.814 272.794C291.078 272.538 291.3 272.308 291.479 272.104C291.661 271.899 291.798 271.699 291.892 271.503C291.986 271.304 292.033 271.089 292.033 270.859C292.033 270.604 291.974 270.384 291.858 270.199C291.741 270.011 291.582 269.868 291.381 269.768C291.179 269.666 290.95 269.615 290.695 269.615C290.428 269.615 290.195 269.669 289.996 269.777C289.797 269.885 289.643 270.04 289.536 270.241C289.428 270.443 289.374 270.683 289.374 270.962H287.622C287.622 270.391 287.751 269.895 288.01 269.474C288.268 269.054 288.631 268.729 289.097 268.499C289.563 268.268 290.099 268.153 290.707 268.153C291.332 268.153 291.876 268.264 292.339 268.486C292.805 268.705 293.168 269.009 293.426 269.398C293.685 269.787 293.814 270.233 293.814 270.736C293.814 271.065 293.749 271.391 293.618 271.712C293.49 272.033 293.261 272.389 292.932 272.781C292.602 273.17 292.138 273.638 291.538 274.183L290.264 275.432V275.491H293.929V277H287.707ZM298.46 277.192C297.727 277.189 297.096 277.009 296.568 276.651C296.042 276.293 295.637 275.774 295.353 275.095C295.072 274.416 294.933 273.599 294.936 272.645C294.936 271.693 295.076 270.882 295.358 270.212C295.642 269.541 296.047 269.031 296.572 268.682C297.1 268.33 297.73 268.153 298.46 268.153C299.19 268.153 299.818 268.33 300.343 268.682C300.872 269.034 301.278 269.545 301.562 270.216C301.846 270.884 301.987 271.693 301.984 272.645C301.984 273.602 301.842 274.42 301.558 275.099C301.277 275.778 300.873 276.297 300.348 276.655C299.822 277.013 299.193 277.192 298.46 277.192ZM298.46 275.662C298.96 275.662 299.359 275.411 299.657 274.908C299.956 274.405 300.103 273.651 300.1 272.645C300.1 271.983 300.032 271.432 299.896 270.991C299.762 270.551 299.572 270.22 299.325 269.999C299.081 269.777 298.792 269.666 298.46 269.666C297.963 269.666 297.565 269.915 297.267 270.412C296.968 270.909 296.818 271.653 296.815 272.645C296.815 273.315 296.882 273.875 297.015 274.324C297.152 274.77 297.343 275.105 297.591 275.33C297.838 275.551 298.127 275.662 298.46 275.662ZM306.494 277.192C305.761 277.189 305.13 277.009 304.602 276.651C304.076 276.293 303.671 275.774 303.387 275.095C303.106 274.416 302.967 273.599 302.969 272.645C302.969 271.693 303.11 270.882 303.391 270.212C303.675 269.541 304.08 269.031 304.606 268.682C305.134 268.33 305.763 268.153 306.494 268.153C307.224 268.153 307.852 268.33 308.377 268.682C308.906 269.034 309.312 269.545 309.596 270.216C309.88 270.884 310.021 271.693 310.018 272.645C310.018 273.602 309.876 274.42 309.592 275.099C309.31 275.778 308.907 276.297 308.381 276.655C307.856 277.013 307.227 277.192 306.494 277.192ZM306.494 275.662C306.994 275.662 307.393 275.411 307.691 274.908C307.989 274.405 308.137 273.651 308.134 272.645C308.134 271.983 308.066 271.432 307.93 270.991C307.796 270.551 307.606 270.22 307.359 269.999C307.114 269.777 306.826 269.666 306.494 269.666C305.996 269.666 305.599 269.915 305.3 270.412C305.002 270.909 304.852 271.653 304.849 272.645C304.849 273.315 304.915 273.875 305.049 274.324C305.185 274.77 305.377 275.105 305.624 275.33C305.871 275.551 306.161 275.662 306.494 275.662ZM318.87 266.956H320.394V278.068H318.87V266.956ZM317.466 271.144H319.302V272.416H317.466V271.144ZM314.154 268.312H315.678C315.678 271.444 314.766 273.976 311.658 275.788L310.734 274.684C313.266 273.184 314.154 271.312 314.154 268.648V268.312ZM311.298 268.312H314.622V269.596H311.298V268.312ZM316.41 267.244H317.898V277.588H316.41V267.244Z" fill="black"/>
<rect x="278" y="168" width="53" height="30" rx="5" fill="#B9B9B9"/>
<path d="M287.707 187V185.67L290.814 182.794C291.078 182.538 291.3 182.308 291.479 182.104C291.661 181.899 291.798 181.699 291.892 181.503C291.986 181.304 292.033 181.089 292.033 180.859C292.033 180.604 291.974 180.384 291.858 180.199C291.741 180.011 291.582 179.868 291.381 179.768C291.179 179.666 290.95 179.615 290.695 179.615C290.428 179.615 290.195 179.669 289.996 179.777C289.797 179.885 289.643 180.04 289.536 180.241C289.428 180.443 289.374 180.683 289.374 180.962H287.622C287.622 180.391 287.751 179.895 288.01 179.474C288.268 179.054 288.631 178.729 289.097 178.499C289.563 178.268 290.099 178.153 290.707 178.153C291.332 178.153 291.876 178.264 292.339 178.486C292.805 178.705 293.168 179.009 293.426 179.398C293.685 179.787 293.814 180.233 293.814 180.736C293.814 181.065 293.749 181.391 293.618 181.712C293.49 182.033 293.261 182.389 292.932 182.781C292.602 183.17 292.138 183.638 291.538 184.183L290.264 185.432V185.491H293.929V187H287.707ZM298.46 187.192C297.727 187.189 297.096 187.009 296.568 186.651C296.042 186.293 295.637 185.774 295.353 185.095C295.072 184.416 294.933 183.599 294.936 182.645C294.936 181.693 295.076 180.882 295.358 180.212C295.642 179.541 296.047 179.031 296.572 178.682C297.1 178.33 297.73 178.153 298.46 178.153C299.19 178.153 299.818 178.33 300.343 178.682C300.872 179.034 301.278 179.545 301.562 180.216C301.846 180.884 301.987 181.693 301.984 182.645C301.984 183.602 301.842 184.42 301.558 185.099C301.277 185.778 300.873 186.297 300.348 186.655C299.822 187.013 299.193 187.192 298.46 187.192ZM298.46 185.662C298.96 185.662 299.359 185.411 299.657 184.908C299.956 184.405 300.103 183.651 300.1 182.645C300.1 181.983 300.032 181.432 299.896 180.991C299.762 180.551 299.572 180.22 299.325 179.999C299.081 179.777 298.792 179.666 298.46 179.666C297.963 179.666 297.565 179.915 297.267 180.412C296.968 180.909 296.818 181.653 296.815 182.645C296.815 183.315 296.882 183.875 297.015 184.324C297.152 184.77 297.343 185.105 297.591 185.33C297.838 185.551 298.127 185.662 298.46 185.662ZM306.494 187.192C305.761 187.189 305.13 187.009 304.602 186.651C304.076 186.293 303.671 185.774 303.387 185.095C303.106 184.416 302.967 183.599 302.969 182.645C302.969 181.693 303.11 180.882 303.391 180.212C303.675 179.541 304.08 179.031 304.606 178.682C305.134 178.33 305.763 178.153 306.494 178.153C307.224 178.153 307.852 178.33 308.377 178.682C308.906 179.034 309.312 179.545 309.596 180.216C309.88 180.884 310.021 181.693 310.018 182.645C310.018 183.602 309.876 184.42 309.592 185.099C309.31 185.778 308.907 186.297 308.381 186.655C307.856 187.013 307.227 187.192 306.494 187.192ZM306.494 185.662C306.994 185.662 307.393 185.411 307.691 184.908C307.989 184.405 308.137 183.651 308.134 182.645C308.134 181.983 308.066 181.432 307.93 180.991C307.796 180.551 307.606 180.22 307.359 179.999C307.114 179.777 306.826 179.666 306.494 179.666C305.996 179.666 305.599 179.915 305.3 180.412C305.002 180.909 304.852 181.653 304.849 182.645C304.849 183.315 304.915 183.875 305.049 184.324C305.185 184.77 305.377 185.105 305.624 185.33C305.871 185.551 306.161 185.662 306.494 185.662ZM318.87 176.956H320.394V188.068H318.87V176.956ZM317.466 181.144H319.302V182.416H317.466V181.144ZM314.154 178.312H315.678C315.678 181.444 314.766 183.976 311.658 185.788L310.734 184.684C313.266 183.184 314.154 181.312 314.154 178.648V178.312ZM311.298 178.312H314.622V179.596H311.298V178.312ZM316.41 177.244H317.898V187.588H316.41V177.244Z" fill="black"/>
<rect x="278" y="198" width="53" height="30" rx="5" fill="#8F8F8F"/>
<path d="M287.707 217V215.67L290.814 212.794C291.078 212.538 291.3 212.308 291.479 212.104C291.661 211.899 291.798 211.699 291.892 211.503C291.986 211.304 292.033 211.089 292.033 210.859C292.033 210.604 291.974 210.384 291.858 210.199C291.741 210.011 291.582 209.868 291.381 209.768C291.179 209.666 290.95 209.615 290.695 209.615C290.428 209.615 290.195 209.669 289.996 209.777C289.797 209.885 289.643 210.04 289.536 210.241C289.428 210.443 289.374 210.683 289.374 210.962H287.622C287.622 210.391 287.751 209.895 288.01 209.474C288.268 209.054 288.631 208.729 289.097 208.499C289.563 208.268 290.099 208.153 290.707 208.153C291.332 208.153 291.876 208.264 292.339 208.486C292.805 208.705 293.168 209.009 293.426 209.398C293.685 209.787 293.814 210.233 293.814 210.736C293.814 211.065 293.749 211.391 293.618 211.712C293.49 212.033 293.261 212.389 292.932 212.781C292.602 213.17 292.138 213.638 291.538 214.183L290.264 215.432V215.491H293.929V217H287.707ZM298.46 217.192C297.727 217.189 297.096 217.009 296.568 216.651C296.042 216.293 295.637 215.774 295.353 215.095C295.072 214.416 294.933 213.599 294.936 212.645C294.936 211.693 295.076 210.882 295.358 210.212C295.642 209.541 296.047 209.031 296.572 208.682C297.1 208.33 297.73 208.153 298.46 208.153C299.19 208.153 299.818 208.33 300.343 208.682C300.872 209.034 301.278 209.545 301.562 210.216C301.846 210.884 301.987 211.693 301.984 212.645C301.984 213.602 301.842 214.42 301.558 215.099C301.277 215.778 300.873 216.297 300.348 216.655C299.822 217.013 299.193 217.192 298.46 217.192ZM298.46 215.662C298.96 215.662 299.359 215.411 299.657 214.908C299.956 214.405 300.103 213.651 300.1 212.645C300.1 211.983 300.032 211.432 299.896 210.991C299.762 210.551 299.572 210.22 299.325 209.999C299.081 209.777 298.792 209.666 298.46 209.666C297.963 209.666 297.565 209.915 297.267 210.412C296.968 210.909 296.818 211.653 296.815 212.645C296.815 213.315 296.882 213.875 297.015 214.324C297.152 214.77 297.343 215.105 297.591 215.33C297.838 215.551 298.127 215.662 298.46 215.662ZM306.494 217.192C305.761 217.189 305.13 217.009 304.602 216.651C304.076 216.293 303.671 215.774 303.387 215.095C303.106 214.416 302.967 213.599 302.969 212.645C302.969 211.693 303.11 210.882 303.391 210.212C303.675 209.541 304.08 209.031 304.606 208.682C305.134 208.33 305.763 208.153 306.494 208.153C307.224 208.153 307.852 208.33 308.377 208.682C308.906 209.034 309.312 209.545 309.596 210.216C309.88 210.884 310.021 211.693 310.018 212.645C310.018 213.602 309.876 214.42 309.592 215.099C309.31 215.778 308.907 216.297 308.381 216.655C307.856 217.013 307.227 217.192 306.494 217.192ZM306.494 215.662C306.994 215.662 307.393 215.411 307.691 214.908C307.989 214.405 308.137 213.651 308.134 212.645C308.134 211.983 308.066 211.432 307.93 210.991C307.796 210.551 307.606 210.22 307.359 209.999C307.114 209.777 306.826 209.666 306.494 209.666C305.996 209.666 305.599 209.915 305.3 210.412C305.002 210.909 304.852 211.653 304.849 212.645C304.849 213.315 304.915 213.875 305.049 214.324C305.185 214.77 305.377 215.105 305.624 215.33C305.871 215.551 306.161 215.662 306.494 215.662ZM318.87 206.956H320.394V218.068H318.87V206.956ZM317.466 211.144H319.302V212.416H317.466V211.144ZM314.154 208.312H315.678C315.678 211.444 314.766 213.976 311.658 215.788L310.734 214.684C313.266 213.184 314.154 211.312 314.154 208.648V208.312ZM311.298 208.312H314.622V209.596H311.298V208.312ZM316.41 207.244H317.898V217.588H316.41V207.244Z" fill="black"/>
<rect x="278" y="108" width="53" height="30" rx="5" fill="#B9B9B9"/>
<path d="M287.707 127V125.67L290.814 122.794C291.078 122.538 291.3 122.308 291.479 122.104C291.661 121.899 291.798 121.699 291.892 121.503C291.986 121.304 292.033 121.089 292.033 120.859C292.033 120.604 291.974 120.384 291.858 120.199C291.741 120.011 291.582 119.868 291.381 119.768C291.179 119.666 290.95 119.615 290.695 119.615C290.428 119.615 290.195 119.669 289.996 119.777C289.797 119.885 289.643 120.04 289.536 120.241C289.428 120.443 289.374 120.683 289.374 120.962H287.622C287.622 120.391 287.751 119.895 288.01 119.474C288.268 119.054 288.631 118.729 289.097 118.499C289.563 118.268 290.099 118.153 290.707 118.153C291.332 118.153 291.876 118.264 292.339 118.486C292.805 118.705 293.168 119.009 293.426 119.398C293.685 119.787 293.814 120.233 293.814 120.736C293.814 121.065 293.749 121.391 293.618 121.712C293.49 122.033 293.261 122.389 292.932 122.781C292.602 123.17 292.138 123.638 291.538 124.183L290.264 125.432V125.491H293.929V127H287.707ZM298.46 127.192C297.727 127.189 297.096 127.009 296.568 126.651C296.042 126.293 295.637 125.774 295.353 125.095C295.072 124.416 294.933 123.599 294.936 122.645C294.936 121.693 295.076 120.882 295.358 120.212C295.642 119.541 296.047 119.031 296.572 118.682C297.1 118.33 297.73 118.153 298.46 118.153C299.19 118.153 299.818 118.33 300.343 118.682C300.872 119.034 301.278 119.545 301.562 120.216C301.846 120.884 301.987 121.693 301.984 122.645C301.984 123.602 301.842 124.42 301.558 125.099C301.277 125.778 300.873 126.297 300.348 126.655C299.822 127.013 299.193 127.192 298.46 127.192ZM298.46 125.662C298.96 125.662 299.359 125.411 299.657 124.908C299.956 124.405 300.103 123.651 300.1 122.645C300.1 121.983 300.032 121.432 299.896 120.991C299.762 120.551 299.572 120.22 299.325 119.999C299.081 119.777 298.792 119.666 298.46 119.666C297.963 119.666 297.565 119.915 297.267 120.412C296.968 120.909 296.818 121.653 296.815 122.645C296.815 123.315 296.882 123.875 297.015 124.324C297.152 124.77 297.343 125.105 297.591 125.33C297.838 125.551 298.127 125.662 298.46 125.662ZM306.494 127.192C305.761 127.189 305.13 127.009 304.602 126.651C304.076 126.293 303.671 125.774 303.387 125.095C303.106 124.416 302.967 123.599 302.969 122.645C302.969 121.693 303.11 120.882 303.391 120.212C303.675 119.541 304.08 119.031 304.606 118.682C305.134 118.33 305.763 118.153 306.494 118.153C307.224 118.153 307.852 118.33 308.377 118.682C308.906 119.034 309.312 119.545 309.596 120.216C309.88 120.884 310.021 121.693 310.018 122.645C310.018 123.602 309.876 124.42 309.592 125.099C309.31 125.778 308.907 126.297 308.381 126.655C307.856 127.013 307.227 127.192 306.494 127.192ZM306.494 125.662C306.994 125.662 307.393 125.411 307.691 124.908C307.989 124.405 308.137 123.651 308.134 122.645C308.134 121.983 308.066 121.432 307.93 120.991C307.796 120.551 307.606 120.22 307.359 119.999C307.114 119.777 306.826 119.666 306.494 119.666C305.996 119.666 305.599 119.915 305.3 120.412C305.002 120.909 304.852 121.653 304.849 122.645C304.849 123.315 304.915 123.875 305.049 124.324C305.185 124.77 305.377 125.105 305.624 125.33C305.871 125.551 306.161 125.662 306.494 125.662ZM318.87 116.956H320.394V128.068H318.87V116.956ZM317.466 121.144H319.302V122.416H317.466V121.144ZM314.154 118.312H315.678C315.678 121.444 314.766 123.976 311.658 125.788L310.734 124.684C313.266 123.184 314.154 121.312 314.154 118.648V118.312ZM311.298 118.312H314.622V119.596H311.298V118.312ZM316.41 117.244H317.898V127.588H316.41V117.244Z" fill="black"/>
<rect x="278" y="138" width="53" height="30" rx="5" fill="#8F8F8F"/>
<path d="M287.707 157V155.67L290.814 152.794C291.078 152.538 291.3 152.308 291.479 152.104C291.661 151.899 291.798 151.699 291.892 151.503C291.986 151.304 292.033 151.089 292.033 150.859C292.033 150.604 291.974 150.384 291.858 150.199C291.741 150.011 291.582 149.868 291.381 149.768C291.179 149.666 290.95 149.615 290.695 149.615C290.428 149.615 290.195 149.669 289.996 149.777C289.797 149.885 289.643 150.04 289.536 150.241C289.428 150.443 289.374 150.683 289.374 150.962H287.622C287.622 150.391 287.751 149.895 288.01 149.474C288.268 149.054 288.631 148.729 289.097 148.499C289.563 148.268 290.099 148.153 290.707 148.153C291.332 148.153 291.876 148.264 292.339 148.486C292.805 148.705 293.168 149.009 293.426 149.398C293.685 149.787 293.814 150.233 293.814 150.736C293.814 151.065 293.749 151.391 293.618 151.712C293.49 152.033 293.261 152.389 292.932 152.781C292.602 153.17 292.138 153.638 291.538 154.183L290.264 155.432V155.491H293.929V157H287.707ZM298.46 157.192C297.727 157.189 297.096 157.009 296.568 156.651C296.042 156.293 295.637 155.774 295.353 155.095C295.072 154.416 294.933 153.599 294.936 152.645C294.936 151.693 295.076 150.882 295.358 150.212C295.642 149.541 296.047 149.031 296.572 148.682C297.1 148.33 297.73 148.153 298.46 148.153C299.19 148.153 299.818 148.33 300.343 148.682C300.872 149.034 301.278 149.545 301.562 150.216C301.846 150.884 301.987 151.693 301.984 152.645C301.984 153.602 301.842 154.42 301.558 155.099C301.277 155.778 300.873 156.297 300.348 156.655C299.822 157.013 299.193 157.192 298.46 157.192ZM298.46 155.662C298.96 155.662 299.359 155.411 299.657 154.908C299.956 154.405 300.103 153.651 300.1 152.645C300.1 151.983 300.032 151.432 299.896 150.991C299.762 150.551 299.572 150.22 299.325 149.999C299.081 149.777 298.792 149.666 298.46 149.666C297.963 149.666 297.565 149.915 297.267 150.412C296.968 150.909 296.818 151.653 296.815 152.645C296.815 153.315 296.882 153.875 297.015 154.324C297.152 154.77 297.343 155.105 297.591 155.33C297.838 155.551 298.127 155.662 298.46 155.662ZM306.494 157.192C305.761 157.189 305.13 157.009 304.602 156.651C304.076 156.293 303.671 155.774 303.387 155.095C303.106 154.416 302.967 153.599 302.969 152.645C302.969 151.693 303.11 150.882 303.391 150.212C303.675 149.541 304.08 149.031 304.606 148.682C305.134 148.33 305.763 148.153 306.494 148.153C307.224 148.153 307.852 148.33 308.377 148.682C308.906 149.034 309.312 149.545 309.596 150.216C309.88 150.884 310.021 151.693 310.018 152.645C310.018 153.602 309.876 154.42 309.592 155.099C309.31 155.778 308.907 156.297 308.381 156.655C307.856 157.013 307.227 157.192 306.494 157.192ZM306.494 155.662C306.994 155.662 307.393 155.411 307.691 154.908C307.989 154.405 308.137 153.651 308.134 152.645C308.134 151.983 308.066 151.432 307.93 150.991C307.796 150.551 307.606 150.22 307.359 149.999C307.114 149.777 306.826 149.666 306.494 149.666C305.996 149.666 305.599 149.915 305.3 150.412C305.002 150.909 304.852 151.653 304.849 152.645C304.849 153.315 304.915 153.875 305.049 154.324C305.185 154.77 305.377 155.105 305.624 155.33C305.871 155.551 306.161 155.662 306.494 155.662ZM318.87 146.956H320.394V158.068H318.87V146.956ZM317.466 151.144H319.302V152.416H317.466V151.144ZM314.154 148.312H315.678C315.678 151.444 314.766 153.976 311.658 155.788L310.734 154.684C313.266 153.184 314.154 151.312 314.154 148.648V148.312ZM311.298 148.312H314.622V149.596H311.298V148.312ZM316.41 147.244H317.898V157.588H316.41V147.244Z" fill="black"/>
<path d="M330.293 92.2929C329.902 92.6834 329.902 93.3166 330.293 93.7071L336.657 100.071C337.047 100.462 337.681 100.462 338.071 100.071C338.462 99.6805 338.462 99.0474 338.071 98.6569L332.414 93L338.071 87.3431C338.462 86.9526 338.462 86.3195 338.071 85.9289C337.681 85.5384 337.047 85.5384 336.657 85.9289L330.293 92.2929ZM360 92H331V94H360V92Z" fill="black"/>
<path d="M368.032 87.952H373.372V95.428H368.032V87.952ZM371.812 89.2H369.604V94.168H371.812V89.2ZM375.1 86.944H376.708V98.092H375.1V86.944ZM385.983 86.956H387.579V98.068H385.983V86.956ZM378.879 88.012H380.463V94.912H378.879V88.012ZM378.879 93.976H379.863C381.483 93.976 383.283 93.856 385.119 93.496L385.299 94.816C383.391 95.212 381.555 95.332 379.863 95.332H378.879V93.976ZM389.414 87.94H390.914V90.436H392.33V87.94H393.806V95.44H389.414V87.94ZM390.914 91.684V94.168H392.33V91.684H390.914ZM397.13 86.956H398.654V98.068H397.13V86.956ZM395.762 91.192H397.61V92.476H395.762V91.192ZM394.694 87.124H396.194V97.564H394.694V87.124ZM407.545 86.956H409.153V98.068H407.545V86.956ZM402.649 89.836H403.909V90.412C403.909 92.764 402.865 95.128 400.813 96.016L399.961 94.792C401.785 93.976 402.649 92.092 402.649 90.412V89.836ZM402.997 89.836H404.245V90.412C404.245 92.008 405.121 93.832 406.957 94.612L406.105 95.836C404.053 94.984 402.997 92.692 402.997 90.412V89.836ZM400.333 88.768H406.513V90.028H400.333V88.768ZM402.649 87.208H404.245V89.416H402.649V87.208ZM414.579 95.9858C414.298 95.9858 414.056 95.8864 413.855 95.6875C413.656 95.4886 413.556 95.2472 413.556 94.9631C413.556 94.6847 413.656 94.446 413.855 94.2472C414.056 94.0483 414.298 93.9489 414.579 93.9489C414.852 93.9489 415.09 94.0483 415.295 94.2472C415.5 94.446 415.602 94.6847 415.602 94.9631C415.602 95.1506 415.554 95.3224 415.457 95.4787C415.363 95.6321 415.24 95.7557 415.086 95.8494C414.933 95.9403 414.764 95.9858 414.579 95.9858ZM414.579 91.7031C414.298 91.7031 414.056 91.6037 413.855 91.4048C413.656 91.206 413.556 90.9645 413.556 90.6804C413.556 90.402 413.656 90.1648 413.855 89.9688C414.056 89.7699 414.298 89.6705 414.579 89.6705C414.852 89.6705 415.09 89.7699 415.295 89.9688C415.5 90.1648 415.602 90.402 415.602 90.6804C415.602 90.8707 415.554 91.044 415.457 91.2003C415.363 91.3537 415.24 91.4759 415.086 91.5668C414.933 91.6577 414.764 91.7031 414.579 91.7031ZM419.397 97V95.6705L422.503 92.794C422.767 92.5384 422.989 92.3082 423.168 92.1037C423.35 91.8991 423.487 91.6989 423.581 91.5028C423.675 91.304 423.722 91.0895 423.722 90.8594C423.722 90.6037 423.664 90.3835 423.547 90.1989C423.431 90.0114 423.272 89.8679 423.07 89.7685C422.868 89.6662 422.639 89.6151 422.384 89.6151C422.117 89.6151 421.884 89.669 421.685 89.777C421.486 89.8849 421.333 90.0398 421.225 90.2415C421.117 90.4432 421.063 90.6832 421.063 90.9616H419.311C419.311 90.3906 419.441 89.8949 419.699 89.4744C419.958 89.054 420.32 88.7287 420.786 88.4986C421.252 88.2685 421.789 88.1534 422.397 88.1534C423.022 88.1534 423.566 88.2642 424.029 88.4858C424.495 88.7045 424.857 89.0085 425.115 89.3977C425.374 89.7869 425.503 90.233 425.503 90.7358C425.503 91.0653 425.438 91.3906 425.307 91.7116C425.179 92.0327 424.951 92.3892 424.621 92.7812C424.291 93.1705 423.827 93.6378 423.228 94.1832L421.953 95.4318V95.4915H425.618V97H419.397ZM430.149 97.1918C429.416 97.1889 428.785 97.0085 428.257 96.6506C427.731 96.2926 427.327 95.7741 427.042 95.0952C426.761 94.4162 426.622 93.5994 426.625 92.6449C426.625 91.6932 426.765 90.8821 427.047 90.2116C427.331 89.5412 427.736 89.0312 428.261 88.6818C428.79 88.3295 429.419 88.1534 430.149 88.1534C430.879 88.1534 431.507 88.3295 432.033 88.6818C432.561 89.0341 432.967 89.5455 433.251 90.2159C433.535 90.8835 433.676 91.6932 433.673 92.6449C433.673 93.6023 433.531 94.4205 433.247 95.0994C432.966 95.7784 432.562 96.2969 432.037 96.6548C431.511 97.0128 430.882 97.1918 430.149 97.1918ZM430.149 95.6619C430.649 95.6619 431.048 95.4105 431.346 94.9077C431.645 94.4048 431.792 93.6506 431.79 92.6449C431.79 91.983 431.721 91.4318 431.585 90.9915C431.452 90.5511 431.261 90.2202 431.014 89.9986C430.77 89.777 430.481 89.6662 430.149 89.6662C429.652 89.6662 429.254 89.9148 428.956 90.4119C428.658 90.9091 428.507 91.6534 428.504 92.6449C428.504 93.3153 428.571 93.875 428.704 94.3239C428.841 94.7699 429.033 95.1051 429.28 95.3295C429.527 95.5511 429.817 95.6619 430.149 95.6619ZM438.183 97.1918C437.45 97.1889 436.819 97.0085 436.291 96.6506C435.765 96.2926 435.36 95.7741 435.076 95.0952C434.795 94.4162 434.656 93.5994 434.659 92.6449C434.659 91.6932 434.799 90.8821 435.08 90.2116C435.365 89.5412 435.769 89.0312 436.295 88.6818C436.823 88.3295 437.453 88.1534 438.183 88.1534C438.913 88.1534 439.541 88.3295 440.066 88.6818C440.595 89.0341 441.001 89.5455 441.285 90.2159C441.569 90.8835 441.71 91.6932 441.707 92.6449C441.707 93.6023 441.565 94.4205 441.281 95.0994C440.999 95.7784 440.596 96.2969 440.071 96.6548C439.545 97.0128 438.916 97.1918 438.183 97.1918ZM438.183 95.6619C438.683 95.6619 439.082 95.4105 439.38 94.9077C439.678 94.4048 439.826 93.6506 439.823 92.6449C439.823 91.983 439.755 91.4318 439.619 90.9915C439.485 90.5511 439.295 90.2202 439.048 89.9986C438.803 89.777 438.515 89.6662 438.183 89.6662C437.686 89.6662 437.288 89.9148 436.99 90.4119C436.691 90.9091 436.541 91.6534 436.538 92.6449C436.538 93.3153 436.605 93.875 436.738 94.3239C436.874 94.7699 437.066 95.1051 437.313 95.3295C437.561 95.5511 437.85 95.6619 438.183 95.6619ZM450.559 86.956H452.083V98.068H450.559V86.956ZM449.155 91.144H450.991V92.416H449.155V91.144ZM445.843 88.312H447.367C447.367 91.444 446.455 93.976 443.347 95.788L442.423 94.684C444.955 93.184 445.843 91.312 445.843 88.648V88.312ZM442.987 88.312H446.311V89.596H442.987V88.312ZM448.099 87.244H449.587V97.588H448.099V87.244Z" fill="black"/>
<path d="M247.5 58L252.274 48L240.726 48L245.5 58L247.5 58ZM245.5 338L240.727 348L252.274 348L247.5 338L245.5 338ZM245.5 57L245.5 339L247.5 339L247.5 57L245.5 57Z" fill="#4D4D4D"/>
<path d="M8.25781 190V206H4.875V193.211H4.78125L1.11719 195.508V192.508L5.07813 190H8.25781ZM17.916 206.352C16.5722 206.346 15.416 206.016 14.4472 205.359C13.4837 204.703 12.7415 203.753 12.2207 202.508C11.705 201.263 11.4498 199.766 11.455 198.016C11.455 196.271 11.7129 194.784 12.2285 193.555C12.7493 192.326 13.4915 191.391 14.455 190.75C15.4238 190.104 16.5774 189.781 17.916 189.781C19.2545 189.781 20.4056 190.104 21.3691 190.75C22.3379 191.396 23.0827 192.333 23.6035 193.562C24.1243 194.786 24.3821 196.271 24.3769 198.016C24.3769 199.771 24.1165 201.271 23.5957 202.516C23.08 203.76 22.3405 204.711 21.3769 205.367C20.4134 206.023 19.2597 206.352 17.916 206.352ZM17.916 203.547C18.8327 203.547 19.5644 203.086 20.1113 202.164C20.6582 201.242 20.929 199.859 20.9238 198.016C20.9238 196.802 20.7988 195.792 20.5488 194.984C20.304 194.177 19.955 193.57 19.5019 193.164C19.054 192.758 18.5254 192.555 17.916 192.555C17.0045 192.555 16.2754 193.01 15.7285 193.922C15.1816 194.833 14.9056 196.198 14.9004 198.016C14.9004 199.245 15.0228 200.271 15.2675 201.094C15.5175 201.911 15.8691 202.526 16.3222 202.937C16.7754 203.344 17.3066 203.547 17.916 203.547ZM34.5214 190V206H31.1386V190H34.5214ZM43.2069 194V196.5H35.9803V194H43.2069ZM37.621 191.125H40.9491V202.312C40.9491 202.62 40.996 202.859 41.0897 203.031C41.1835 203.198 41.3137 203.315 41.4803 203.383C41.6522 203.451 41.8501 203.484 42.0741 203.484C42.2303 203.484 42.3866 203.471 42.5428 203.445C42.6991 203.414 42.8189 203.391 42.9022 203.375L43.4257 205.852C43.259 205.904 43.0246 205.964 42.7225 206.031C42.4204 206.104 42.0533 206.148 41.621 206.164C40.8189 206.195 40.1158 206.089 39.5116 205.844C38.9126 205.599 38.4465 205.219 38.1132 204.703C37.7798 204.187 37.6158 203.536 37.621 202.75V191.125ZM50.2967 206.234C49.0623 206.234 47.9998 205.984 47.1092 205.484C46.2238 204.979 45.5415 204.266 45.0623 203.344C44.5832 202.417 44.3436 201.32 44.3436 200.055C44.3436 198.82 44.5832 197.737 45.0623 196.805C45.5415 195.872 46.216 195.146 47.0858 194.625C47.9608 194.104 48.9868 193.844 50.1639 193.844C50.9556 193.844 51.6926 193.971 52.3748 194.227C53.0623 194.477 53.6613 194.854 54.1717 195.359C54.6873 195.865 55.0884 196.5 55.3748 197.266C55.6613 198.026 55.8045 198.917 55.8045 199.937V200.852H45.6717V198.789H52.6717C52.6717 198.31 52.5676 197.885 52.3592 197.516C52.1509 197.146 51.8618 196.857 51.492 196.648C51.1274 196.435 50.703 196.328 50.2186 196.328C49.7134 196.328 49.2655 196.445 48.8748 196.68C48.4894 196.909 48.1873 197.219 47.9686 197.609C47.7498 197.995 47.6379 198.424 47.6327 198.898V200.859C47.6327 201.453 47.742 201.966 47.9608 202.398C48.1847 202.831 48.4998 203.164 48.9061 203.398C49.3123 203.633 49.7941 203.75 50.3514 203.75C50.7212 203.75 51.0597 203.698 51.367 203.594C51.6743 203.49 51.9373 203.333 52.1561 203.125C52.3748 202.917 52.5415 202.661 52.6561 202.359L55.7342 202.562C55.578 203.302 55.2577 203.948 54.7733 204.5C54.2941 205.047 53.6743 205.474 52.9139 205.781C52.1587 206.083 51.2863 206.234 50.2967 206.234ZM57.5584 206V194H60.785V196.094H60.91C61.1287 195.349 61.4959 194.786 62.0115 194.406C62.5272 194.021 63.1209 193.828 63.7928 193.828C63.9594 193.828 64.1391 193.839 64.3318 193.859C64.5246 193.88 64.6938 193.909 64.8397 193.945V196.898C64.6834 196.852 64.4673 196.81 64.1912 196.773C63.9152 196.737 63.6626 196.719 63.4334 196.719C62.9438 196.719 62.5063 196.826 62.1209 197.039C61.7407 197.247 61.4386 197.539 61.2147 197.914C60.9959 198.289 60.8865 198.721 60.8865 199.211V206H57.5584ZM69.2205 206.227C68.4549 206.227 67.7726 206.094 67.1736 205.828C66.5746 205.557 66.1007 205.159 65.7517 204.633C65.408 204.102 65.2361 203.44 65.2361 202.648C65.2361 201.982 65.3585 201.422 65.6033 200.969C65.8481 200.516 66.1814 200.151 66.6033 199.875C67.0252 199.599 67.5043 199.391 68.0408 199.25C68.5825 199.109 69.1502 199.01 69.7439 198.953C70.4418 198.88 71.0043 198.812 71.4314 198.75C71.8585 198.682 72.1684 198.583 72.3611 198.453C72.5538 198.323 72.6502 198.13 72.6502 197.875V197.828C72.6502 197.333 72.4939 196.951 72.1814 196.68C71.8741 196.409 71.4366 196.273 70.8689 196.273C70.27 196.273 69.7934 196.406 69.4392 196.672C69.0851 196.932 68.8507 197.26 68.7361 197.656L65.658 197.406C65.8142 196.677 66.1215 196.047 66.5799 195.516C67.0382 194.979 67.6293 194.568 68.3533 194.281C69.0825 193.99 69.9262 193.844 70.8845 193.844C71.5512 193.844 72.1892 193.922 72.7986 194.078C73.4132 194.234 73.9575 194.477 74.4314 194.805C74.9106 195.133 75.2882 195.555 75.5642 196.07C75.8403 196.581 75.9783 197.193 75.9783 197.906V206H72.822V204.336H72.7283C72.5356 204.711 72.2778 205.042 71.9549 205.328C71.6319 205.609 71.2439 205.831 70.7908 205.992C70.3377 206.148 69.8142 206.227 69.2205 206.227ZM70.1736 203.93C70.6632 203.93 71.0955 203.833 71.4705 203.641C71.8455 203.443 72.1398 203.177 72.3533 202.844C72.5668 202.51 72.6736 202.133 72.6736 201.711V200.438C72.5694 200.505 72.4262 200.568 72.2439 200.625C72.0668 200.677 71.8663 200.727 71.6424 200.773C71.4184 200.815 71.1944 200.854 70.9705 200.891C70.7465 200.922 70.5434 200.951 70.3611 200.977C69.9705 201.034 69.6293 201.125 69.3377 201.25C69.046 201.375 68.8194 201.544 68.658 201.758C68.4965 201.966 68.4158 202.227 68.4158 202.539C68.4158 202.992 68.5799 203.339 68.908 203.578C69.2413 203.812 69.6632 203.93 70.1736 203.93ZM84.5251 194V196.5H77.2986V194H84.5251ZM78.9392 191.125H82.2673V202.312C82.2673 202.62 82.3142 202.859 82.408 203.031C82.5017 203.198 82.6319 203.315 82.7986 203.383C82.9705 203.451 83.1684 203.484 83.3923 203.484C83.5486 203.484 83.7048 203.471 83.8611 203.445C84.0173 203.414 84.1371 203.391 84.2205 203.375L84.7439 205.852C84.5772 205.904 84.3428 205.964 84.0408 206.031C83.7387 206.104 83.3715 206.148 82.9392 206.164C82.1371 206.195 81.434 206.089 80.8298 205.844C80.2309 205.599 79.7647 205.219 79.4314 204.703C79.0981 204.187 78.934 203.536 78.9392 202.75V191.125ZM86.2751 206V194H89.6032V206H86.2751ZM87.947 192.453C87.4522 192.453 87.0277 192.289 86.6735 191.961C86.3246 191.628 86.1501 191.229 86.1501 190.766C86.1501 190.307 86.3246 189.914 86.6735 189.586C87.0277 189.253 87.4522 189.086 87.947 189.086C88.4418 189.086 88.8637 189.253 89.2126 189.586C89.5668 189.914 89.7439 190.307 89.7439 190.766C89.7439 191.229 89.5668 191.628 89.2126 191.961C88.8637 192.289 88.4418 192.453 87.947 192.453ZM97.2731 206.234C96.0596 206.234 95.0101 205.977 94.1247 205.461C93.2445 204.94 92.5648 204.216 92.0856 203.289C91.6065 202.357 91.3669 201.276 91.3669 200.047C91.3669 198.807 91.6065 197.724 92.0856 196.797C92.5648 195.865 93.2445 195.141 94.1247 194.625C95.0101 194.104 96.0596 193.844 97.2731 193.844C98.4867 193.844 99.5335 194.104 100.414 194.625C101.299 195.141 101.981 195.865 102.461 196.797C102.94 197.724 103.179 198.807 103.179 200.047C103.179 201.276 102.94 202.357 102.461 203.289C101.981 204.216 101.299 204.94 100.414 205.461C99.5335 205.977 98.4867 206.234 97.2731 206.234ZM97.2887 203.656C97.8408 203.656 98.3018 203.5 98.6716 203.188C99.0414 202.87 99.32 202.437 99.5075 201.891C99.7002 201.344 99.7966 200.721 99.7966 200.023C99.7966 199.326 99.7002 198.703 99.5075 198.156C99.32 197.609 99.0414 197.177 98.6716 196.859C98.3018 196.542 97.8408 196.383 97.2887 196.383C96.7315 196.383 96.2627 196.542 95.8825 196.859C95.5075 197.177 95.2236 197.609 95.0309 198.156C94.8434 198.703 94.7497 199.326 94.7497 200.023C94.7497 200.721 94.8434 201.344 95.0309 201.891C95.2236 202.437 95.5075 202.87 95.8825 203.188C96.2627 203.5 96.7315 203.656 97.2887 203.656ZM108.254 199.063V206H104.925V194H108.097V196.117H108.238C108.504 195.419 108.949 194.867 109.574 194.461C110.199 194.049 110.957 193.844 111.847 193.844C112.681 193.844 113.407 194.026 114.027 194.391C114.647 194.755 115.129 195.276 115.472 195.953C115.816 196.625 115.988 197.427 115.988 198.359V206H112.66V198.953C112.665 198.219 112.478 197.646 112.097 197.234C111.717 196.818 111.194 196.609 110.527 196.609C110.079 196.609 109.683 196.706 109.34 196.898C109.001 197.091 108.735 197.372 108.543 197.742C108.355 198.107 108.259 198.547 108.254 199.063ZM128.291 196.797V194.016H139.08V196.797H128.291ZM128.291 201.984V199.203H139.08V201.984H128.291ZM153.679 190V206H150.296V193.211H150.203L146.539 195.508V192.508L150.499 190H153.679ZM167.238 206.234C166.003 206.234 164.941 205.984 164.05 205.484C163.165 204.979 162.483 204.266 162.003 203.344C161.524 202.417 161.285 201.32 161.285 200.055C161.285 198.82 161.524 197.737 162.003 196.805C162.483 195.872 163.157 195.146 164.027 194.625C164.902 194.104 165.928 193.844 167.105 193.844C167.897 193.844 168.634 193.971 169.316 194.227C170.003 194.477 170.602 194.854 171.113 195.359C171.628 195.865 172.029 196.5 172.316 197.266C172.602 198.026 172.746 198.917 172.746 199.937V200.852H162.613V198.789H169.613C169.613 198.31 169.509 197.885 169.3 197.516C169.092 197.146 168.803 196.857 168.433 196.648C168.068 196.435 167.644 196.328 167.16 196.328C166.654 196.328 166.206 196.445 165.816 196.68C165.43 196.909 165.128 197.219 164.91 197.609C164.691 197.995 164.579 198.424 164.574 198.898V200.859C164.574 201.453 164.683 201.966 164.902 202.398C165.126 202.831 165.441 203.164 165.847 203.398C166.253 203.633 166.735 203.75 167.292 203.75C167.662 203.75 168.001 203.698 168.308 203.594C168.615 203.49 168.878 203.333 169.097 203.125C169.316 202.917 169.483 202.661 169.597 202.359L172.675 202.562C172.519 203.302 172.199 203.948 171.714 204.5C171.235 205.047 170.615 205.474 169.855 205.781C169.1 206.083 168.227 206.234 167.238 206.234ZM174.499 210.5V194H177.781V196.016H177.929C178.075 195.693 178.286 195.365 178.562 195.031C178.843 194.693 179.208 194.411 179.656 194.188C180.109 193.958 180.671 193.844 181.343 193.844C182.218 193.844 183.025 194.073 183.765 194.531C184.505 194.984 185.096 195.669 185.538 196.586C185.981 197.497 186.203 198.641 186.203 200.016C186.203 201.354 185.986 202.484 185.554 203.406C185.127 204.323 184.544 205.018 183.804 205.492C183.07 205.961 182.247 206.195 181.335 206.195C180.69 206.195 180.14 206.089 179.687 205.875C179.239 205.661 178.872 205.393 178.585 205.07C178.299 204.742 178.08 204.411 177.929 204.078H177.828V210.5H174.499ZM177.757 200C177.757 200.714 177.856 201.336 178.054 201.867C178.252 202.398 178.538 202.812 178.913 203.109C179.288 203.401 179.744 203.547 180.281 203.547C180.822 203.547 181.281 203.398 181.656 203.102C182.031 202.799 182.315 202.383 182.507 201.852C182.705 201.315 182.804 200.698 182.804 200C182.804 199.307 182.708 198.698 182.515 198.172C182.322 197.646 182.038 197.234 181.663 196.937C181.288 196.641 180.828 196.492 180.281 196.492C179.739 196.492 179.281 196.635 178.906 196.922C178.536 197.208 178.252 197.615 178.054 198.141C177.856 198.667 177.757 199.286 177.757 200ZM193.425 206.234C192.212 206.234 191.162 205.977 190.277 205.461C189.397 204.94 188.717 204.216 188.238 203.289C187.758 202.357 187.519 201.276 187.519 200.047C187.519 198.807 187.758 197.724 188.238 196.797C188.717 195.865 189.397 195.141 190.277 194.625C191.162 194.104 192.212 193.844 193.425 193.844C194.639 193.844 195.686 194.104 196.566 194.625C197.451 195.141 198.133 195.865 198.613 196.797C199.092 197.724 199.331 198.807 199.331 200.047C199.331 201.276 199.092 202.357 198.613 203.289C198.133 204.216 197.451 204.94 196.566 205.461C195.686 205.977 194.639 206.234 193.425 206.234ZM193.441 203.656C193.993 203.656 194.454 203.5 194.824 203.188C195.193 202.87 195.472 202.437 195.66 201.891C195.852 201.344 195.949 200.721 195.949 200.023C195.949 199.326 195.852 198.703 195.66 198.156C195.472 197.609 195.193 197.177 194.824 196.859C194.454 196.542 193.993 196.383 193.441 196.383C192.883 196.383 192.415 196.542 192.035 196.859C191.66 197.177 191.376 197.609 191.183 198.156C190.995 198.703 190.902 199.326 190.902 200.023C190.902 200.721 190.995 201.344 191.183 201.891C191.376 202.437 191.66 202.87 192.035 203.188C192.415 203.5 192.883 203.656 193.441 203.656ZM206.499 206.234C205.27 206.234 204.213 205.974 203.327 205.453C202.447 204.927 201.77 204.198 201.296 203.266C200.827 202.333 200.593 201.26 200.593 200.047C200.593 198.818 200.83 197.74 201.304 196.812C201.783 195.88 202.463 195.154 203.343 194.633C204.223 194.107 205.27 193.844 206.484 193.844C207.531 193.844 208.447 194.034 209.234 194.414C210.02 194.794 210.643 195.328 211.101 196.016C211.559 196.703 211.812 197.51 211.859 198.438H208.718C208.63 197.839 208.395 197.357 208.015 196.992C207.64 196.622 207.148 196.437 206.538 196.437C206.023 196.437 205.572 196.578 205.187 196.859C204.807 197.135 204.51 197.539 204.296 198.07C204.083 198.602 203.976 199.245 203.976 200C203.976 200.766 204.08 201.417 204.288 201.953C204.502 202.49 204.801 202.898 205.187 203.18C205.572 203.461 206.023 203.602 206.538 203.602C206.919 203.602 207.26 203.523 207.562 203.367C207.869 203.211 208.122 202.984 208.32 202.687C208.523 202.385 208.656 202.023 208.718 201.602H211.859C211.807 202.518 211.557 203.326 211.109 204.023C210.666 204.716 210.054 205.258 209.273 205.648C208.492 206.039 207.567 206.234 206.499 206.234ZM216.9 199.063V206H213.572V190H216.806V196.117H216.947C217.217 195.409 217.655 194.854 218.259 194.453C218.863 194.047 219.621 193.844 220.533 193.844C221.366 193.844 222.092 194.026 222.712 194.391C223.337 194.75 223.822 195.268 224.165 195.945C224.514 196.617 224.686 197.422 224.681 198.359V206H221.353V198.953C221.358 198.214 221.171 197.638 220.79 197.227C220.415 196.815 219.889 196.609 219.212 196.609C218.759 196.609 218.358 196.706 218.009 196.898C217.665 197.091 217.394 197.372 217.197 197.742C217.004 198.107 216.905 198.547 216.9 199.063Z" fill="black"/>
<path d="M34.4062 229.627C34.4062 228.306 34.582 227.089 34.9336 225.978C35.2887 224.866 35.8303 223.837 36.5582 222.888H38.7262C38.4492 223.24 38.1918 223.67 37.9538 224.178C37.7159 224.682 37.5082 225.236 37.3306 225.839C37.1531 226.443 37.0146 227.068 36.9151 227.714C36.8157 228.357 36.766 228.995 36.766 229.627C36.766 230.468 36.8512 231.319 37.0217 232.178C37.1957 233.034 37.43 233.83 37.7248 234.565C38.0231 235.3 38.3569 235.902 38.7262 236.37H36.5582C35.8303 235.422 35.2887 234.392 34.9336 233.281C34.582 232.169 34.4062 230.951 34.4062 229.627ZM48.9777 221.43H50.9877V235.365H48.9777V221.43ZM43.5027 222.405C45.6027 222.405 47.1477 224.325 47.1477 227.355C47.1477 230.415 45.6027 232.335 43.5027 232.335C41.4027 232.335 39.8577 230.415 39.8577 227.355C39.8577 224.325 41.4027 222.405 43.5027 222.405ZM43.5027 224.22C42.4677 224.22 41.7627 225.315 41.7627 227.355C41.7627 229.425 42.4677 230.535 43.5027 230.535C44.5377 230.535 45.2277 229.425 45.2277 227.355C45.2277 225.315 44.5377 224.22 43.5027 224.22ZM62.6415 221.43H64.6215V235.365H62.6415V221.43ZM60.2565 226.32H62.8665V227.94H60.2565V226.32ZM53.5965 230.61H54.7065C57.0015 230.61 58.7115 230.58 60.6765 230.265L60.8565 231.855C58.8465 232.17 57.0465 232.23 54.7065 232.23H53.5965V230.61ZM53.5965 222.6H60.0315V224.22H55.5765V231.12H53.5965V222.6ZM55.1265 226.47H59.5515V228.03H55.1265V226.47ZM66.8554 230.46H67.8454C69.5254 230.46 71.0104 230.415 72.7354 230.115L72.9004 231.72C71.1154 232.05 69.5854 232.095 67.8454 232.095H66.8554V230.46ZM66.8404 222.81H71.7454V228.12H68.7904V231.09H66.8554V226.56H69.8254V224.385H66.8404V222.81ZM76.5154 221.445H78.4054V235.335H76.5154V221.445ZM72.3154 226.17H74.4754V227.805H72.3154V226.17ZM73.6954 221.7H75.5404V234.675H73.6954V221.7ZM89.5192 221.43H91.5292V235.365H89.5192V221.43ZM84.0442 222.405C86.1442 222.405 87.6892 224.325 87.6892 227.355C87.6892 230.415 86.1442 232.335 84.0442 232.335C81.9442 232.335 80.3992 230.415 80.3992 227.355C80.3992 224.325 81.9442 222.405 84.0442 222.405ZM84.0442 224.22C83.0092 224.22 82.3042 225.315 82.3042 227.355C82.3042 229.425 83.0092 230.535 84.0442 230.535C85.0792 230.535 85.7692 229.425 85.7692 227.355C85.7692 225.315 85.0792 224.22 84.0442 224.22ZM100.843 223.245H103.603V224.85H100.843V223.245ZM100.843 225.93H103.603V227.52H100.843V225.93ZM96.688 222.24H98.293V223.83C98.293 226.71 97.123 229.2 94.498 230.175L93.433 228.615C95.728 227.805 96.688 225.855 96.688 223.83V222.24ZM97.108 222.24H98.713V223.83C98.713 225.735 99.613 227.64 101.803 228.465L100.708 230.01C98.248 229.035 97.108 226.59 97.108 223.83V222.24ZM103.138 221.46H105.133V231.735H103.138V221.46ZM95.938 233.505H105.433V235.095H95.938V233.505ZM95.938 230.79H97.948V234.51H95.938V230.79ZM111.152 229.627C111.152 230.951 110.974 232.169 110.619 233.281C110.268 234.392 109.728 235.422 109 236.37H106.832C107.109 236.019 107.366 235.589 107.604 235.081C107.842 234.574 108.05 234.02 108.228 233.419C108.405 232.816 108.544 232.191 108.643 231.544C108.743 230.898 108.792 230.259 108.792 229.627C108.792 228.785 108.705 227.936 108.531 227.081C108.361 226.221 108.126 225.426 107.828 224.694C107.533 223.959 107.201 223.357 106.832 222.888H109C109.728 223.837 110.268 224.866 110.619 225.978C110.974 227.089 111.152 228.306 111.152 229.627Z" fill="black"/>
<path d="M168.406 229.627C168.406 228.306 168.582 227.089 168.934 225.978C169.289 224.866 169.83 223.837 170.558 222.888H172.726C172.449 223.24 172.192 223.67 171.954 224.178C171.716 224.682 171.508 225.236 171.331 225.839C171.153 226.443 171.015 227.068 170.915 227.714C170.816 228.357 170.766 228.995 170.766 229.627C170.766 230.468 170.851 231.319 171.022 232.178C171.196 233.034 171.43 233.83 171.725 234.565C172.023 235.3 172.357 235.902 172.726 236.37H170.558C169.83 235.422 169.289 234.392 168.934 233.281C168.582 232.169 168.406 230.951 168.406 229.627ZM179.003 226.56H181.283V228.165H179.003V226.56ZM183.488 221.445H185.393V235.335H183.488V221.445ZM180.653 221.655H182.528V234.705H180.653V221.655ZM176.573 222.42C178.418 222.42 179.603 224.325 179.603 227.46C179.603 230.61 178.418 232.515 176.573 232.515C174.743 232.515 173.573 230.61 173.573 227.46C173.573 224.325 174.743 222.42 176.573 222.42ZM176.573 224.295C175.823 224.295 175.388 225.345 175.388 227.46C175.388 229.59 175.823 230.625 176.573 230.625C177.353 230.625 177.788 229.59 177.788 227.46C177.788 225.345 177.353 224.295 176.573 224.295ZM188.062 221.895H198.412V223.485H188.062V221.895ZM188.167 225.735H198.307V227.295H188.167V225.735ZM189.832 222.51H191.827V226.62H189.832V222.51ZM194.647 222.51H196.642V226.62H194.647V222.51ZM186.967 228.48H199.522V230.055H186.967V228.48ZM192.232 226.92H194.227V229.02H192.232V226.92ZM188.362 231H198.007V235.335H196.012V232.575H188.362V231ZM204.61 229.627C204.61 230.951 204.433 232.169 204.078 233.281C203.726 234.392 203.186 235.422 202.458 236.37H200.291C200.567 236.019 200.825 235.589 201.063 235.081C201.301 234.574 201.509 234.02 201.686 233.419C201.864 232.816 202.002 232.191 202.102 231.544C202.201 230.898 202.251 230.259 202.251 229.627C202.251 228.785 202.164 227.936 201.99 227.081C201.819 226.221 201.585 225.426 201.287 224.694C200.992 223.959 200.66 223.357 200.291 222.888H202.458C203.186 223.837 203.726 224.866 204.078 225.978C204.433 227.089 204.61 228.306 204.61 229.627Z" fill="black"/>
</svg>
