<svg width="741" height="297" viewBox="0 0 741 297" fill="none" xmlns="http://www.w3.org/2000/svg">
<rect x="28.5" y="25.5" width="49" height="49" fill="#F1F1F1" stroke="black"/>
<rect x="77.5" y="25.5" width="49" height="49" fill="#F1F1F1" stroke="black"/>
<rect x="126.5" y="25.5" width="49" height="49" fill="#F1F1F1" stroke="black"/>
<rect x="175.5" y="25.5" width="49" height="49" fill="#F1F1F1" stroke="black"/>
<rect x="224.5" y="25.5" width="49" height="49" fill="#F1F1F1" stroke="black"/>
<rect x="28.5" y="74.5" width="49" height="49" fill="#F1F1F1" stroke="black"/>
<rect x="77.5" y="74.5" width="49" height="49" fill="#F1F1F1" stroke="black"/>
<rect x="126.5" y="74.5" width="49" height="49" fill="#F1F1F1" stroke="black"/>
<rect x="175.5" y="74.5" width="49" height="49" fill="#F1F1F1" stroke="black"/>
<rect x="224.5" y="74.5" width="49" height="49" fill="#F1F1F1" stroke="black"/>
<rect x="28.5" y="123.5" width="49" height="49" fill="#F1F1F1" stroke="black"/>
<rect x="77.5" y="123.5" width="49" height="49" fill="#F1F1F1" stroke="black"/>
<rect x="126.5" y="123.5" width="49" height="49" fill="#F1F1F1" stroke="black"/>
<rect x="175.5" y="123.5" width="49" height="49" fill="#F1F1F1" stroke="black"/>
<rect x="224.5" y="123.5" width="49" height="49" fill="#F1F1F1" stroke="black"/>
<rect x="28.5" y="172.5" width="49" height="49" fill="#F1F1F1" stroke="black"/>
<rect x="77.5" y="172.5" width="49" height="49" fill="#F1F1F1" stroke="black"/>
<rect x="126.5" y="172.5" width="49" height="49" fill="#F1F1F1" stroke="black"/>
<rect x="175.5" y="172.5" width="49" height="49" fill="#F1F1F1" stroke="black"/>
<rect x="224.5" y="172.5" width="49" height="49" fill="#F1F1F1" stroke="black"/>
<rect x="28.5" y="221.5" width="49" height="49" fill="#F1F1F1" stroke="black"/>
<rect x="77.5" y="221.5" width="49" height="49" fill="#F1F1F1" stroke="black"/>
<rect x="126.5" y="221.5" width="49" height="49" fill="#F1F1F1" stroke="black"/>
<rect x="175.5" y="221.5" width="49" height="49" fill="#F1F1F1" stroke="black"/>
<rect x="224.5" y="221.5" width="49" height="49" fill="#F1F1F1" stroke="black"/>
<rect x="365.5" y="149.5" width="49" height="49" fill="#F1F1F1" stroke="black"/>
<rect x="414.5" y="149.5" width="49" height="49" fill="#F1F1F1" stroke="black"/>
<rect x="463.5" y="149.5" width="49" height="49" fill="#F1F1F1" stroke="black"/>
<rect x="365.5" y="198.5" width="49" height="49" fill="#F1F1F1" stroke="black"/>
<rect x="414.5" y="198.5" width="49" height="49" fill="#F1F1F1" stroke="black"/>
<rect x="463.5" y="198.5" width="49" height="49" fill="#F1F1F1" stroke="black"/>
<rect x="365.5" y="247.5" width="49" height="49" fill="#F1F1F1" stroke="black"/>
<rect x="414.5" y="247.5" width="49" height="49" fill="#F1F1F1" stroke="black"/>
<rect x="463.5" y="247.5" width="49" height="49" fill="#F1F1F1" stroke="black"/>
<rect x="691.5" y="25.5" width="49" height="49" fill="#F1F1F1" stroke="black"/>
<rect x="642.5" y="74.5" width="49" height="49" fill="#F1F1F1" stroke="black"/>
<rect x="691.5" y="74.5" width="49" height="49" fill="#F1F1F1" stroke="black"/>
<rect x="593.5" y="123.5" width="49" height="49" fill="#F1F1F1" stroke="black"/>
<rect x="642.5" y="123.5" width="49" height="49" fill="#F1F1F1" stroke="black"/>
<rect x="691.5" y="123.5" width="49" height="49" fill="#F1F1F1" stroke="black"/>
<rect x="77.5" y="25.5" width="147" height="147" stroke="#FF0000"/>
<rect x="365.5" y="149.5" width="147" height="147" stroke="#FF0000"/>
<path d="M274.707 8.70713C275.098 8.3166 275.098 7.68344 274.707 7.29291L268.343 0.928953C267.953 0.538429 267.319 0.538429 266.929 0.928953C266.538 1.31948 266.538 1.95264 266.929 2.34317L272.586 8.00002L266.929 13.6569C266.538 14.0474 266.538 14.6806 266.929 15.0711C267.319 15.4616 267.953 15.4616 268.343 15.0711L274.707 8.70713ZM28 9L151 9.00001L151 7.00001L28 7L28 9ZM151 9.00001L274 9.00002L274 7.00002L151 7.00001L151 9.00001Z" fill="#FF0000"/>
<path d="M7.2929 271.707C7.68343 272.098 8.31659 272.098 8.70712 271.707L15.0711 265.343C15.4616 264.953 15.4616 264.319 15.0711 263.929C14.6806 263.538 14.0474 263.538 13.6569 263.929L8.00001 269.586L2.34316 263.929C1.95263 263.538 1.31947 263.538 0.928943 263.929C0.538418 264.319 0.538418 264.953 0.928943 265.343L7.2929 271.707ZM7 25L7.00001 271L9.00001 271L9 25L7 25Z" fill="#0065D0"/>
<line x1="224.198" y1="25.5408" x2="512.198" y2="149.541" stroke="#FF0000" stroke-dasharray="5 5"/>
<line x1="224.198" y1="172.541" x2="512.198" y2="296.541" stroke="#FF0000" stroke-dasharray="5 5"/>
<line x1="77.1972" y1="25.5405" x2="366.197" y2="149.541" stroke="#FF0000" stroke-dasharray="5 5"/>
<line x1="77.1972" y1="172.541" x2="366.197" y2="296.541" stroke="#FF0000" stroke-dasharray="5 5"/>
<rect x="593.5" y="74.5" width="49" height="49" fill="#F1F1F1" stroke="black"/>
<line x1="511.61" y1="296.687" x2="690.61" y2="73.687" stroke="#0065D0"/>
<rect x="593.5" y="25.5" width="49" height="49" fill="#F1F1F1" stroke="black"/>
<path d="M628.732 239.457C628.647 238.597 628.281 237.93 627.635 237.454C626.989 236.978 626.112 236.74 625.004 236.74C624.251 236.74 623.615 236.847 623.097 237.06C622.578 237.266 622.18 237.553 621.903 237.923C621.634 238.292 621.499 238.711 621.499 239.18C621.484 239.57 621.566 239.911 621.744 240.202C621.928 240.494 622.18 240.746 622.5 240.959C622.82 241.165 623.189 241.346 623.608 241.502C624.027 241.651 624.474 241.779 624.95 241.886L626.911 242.354C627.862 242.567 628.736 242.852 629.531 243.207C630.327 243.562 631.016 243.999 631.598 244.517C632.18 245.036 632.631 245.646 632.951 246.349C633.278 247.053 633.445 247.859 633.452 248.768C633.445 250.103 633.104 251.261 632.429 252.241C631.761 253.214 630.795 253.97 629.531 254.51C628.274 255.043 626.758 255.309 624.982 255.309C623.221 255.309 621.687 255.039 620.38 254.499C619.08 253.96 618.065 253.161 617.333 252.102C616.609 251.037 616.229 249.719 616.193 248.15H620.657C620.707 248.881 620.916 249.492 621.286 249.982C621.662 250.465 622.163 250.831 622.788 251.08C623.42 251.321 624.134 251.442 624.929 251.442C625.71 251.442 626.388 251.328 626.964 251.101C627.546 250.874 627.997 250.558 628.317 250.153C628.636 249.748 628.796 249.283 628.796 248.757C628.796 248.267 628.651 247.855 628.359 247.521C628.075 247.187 627.656 246.903 627.102 246.669C626.555 246.435 625.884 246.222 625.089 246.03L622.713 245.433C620.874 244.986 619.421 244.286 618.356 243.335C617.29 242.383 616.761 241.101 616.768 239.489C616.761 238.168 617.113 237.013 617.823 236.026C618.54 235.039 619.524 234.268 620.774 233.714C622.024 233.161 623.445 232.884 625.036 232.884C626.655 232.884 628.068 233.161 629.276 233.714C630.49 234.268 631.435 235.039 632.109 236.026C632.784 237.013 633.132 238.157 633.153 239.457H628.732ZM635.154 236.985V233.182H653.073V236.985H646.393V255H641.833V236.985H635.154ZM655.454 255V233.182H670.155V236.985H660.066V242.184H669.399V245.987H660.066V251.197H670.198V255H655.454ZM673.253 255V233.182H681.861C683.515 233.182 684.925 233.498 686.09 234.13C687.255 234.755 688.143 235.625 688.753 236.74C689.371 237.848 689.68 239.126 689.68 240.575C689.68 242.024 689.368 243.303 688.743 244.411C688.118 245.518 687.212 246.381 686.026 246.999C684.847 247.617 683.42 247.926 681.743 247.926H676.257V244.229H680.998C681.886 244.229 682.617 244.077 683.192 243.771C683.775 243.459 684.208 243.029 684.492 242.482C684.783 241.928 684.929 241.293 684.929 240.575C684.929 239.851 684.783 239.219 684.492 238.679C684.208 238.132 683.775 237.71 683.192 237.411C682.61 237.106 681.871 236.953 680.976 236.953H677.866V255H673.253ZM698.352 255V251.676L706.118 244.485C706.779 243.846 707.333 243.271 707.78 242.759C708.235 242.248 708.579 241.747 708.814 241.257C709.048 240.76 709.165 240.224 709.165 239.648C709.165 239.009 709.02 238.459 708.728 237.997C708.437 237.528 708.04 237.17 707.535 236.921C707.031 236.665 706.459 236.538 705.82 236.538C705.152 236.538 704.57 236.673 704.073 236.942C703.576 237.212 703.192 237.599 702.922 238.104C702.652 238.608 702.518 239.208 702.518 239.904H698.139C698.139 238.477 698.462 237.237 699.108 236.186C699.755 235.135 700.66 234.322 701.825 233.746C702.99 233.171 704.332 232.884 705.852 232.884C707.415 232.884 708.775 233.161 709.932 233.714C711.097 234.261 712.003 235.021 712.649 235.994C713.295 236.967 713.618 238.082 713.618 239.339C713.618 240.163 713.455 240.977 713.128 241.779C712.809 242.582 712.237 243.473 711.413 244.453C710.589 245.426 709.428 246.594 707.929 247.958L704.744 251.08V251.229H713.906V255H698.352Z" fill="black"/>
<rect x="643" y="26" width="48" height="48" fill="#F1F1F1" stroke="#0065D0" stroke-width="2"/>
<line x1="365.797" y1="148.543" x2="642.797" y2="25.543" stroke="#0065D0"/>
<line x1="365.686" y1="296.611" x2="642.686" y2="73.6105" stroke="#0065D0"/>
<line x1="512.716" y1="149.589" x2="690.716" y2="26.5887" stroke="#0065D0"/>
<path d="M657.506 57V55.7216L662.307 50.4659C662.87 49.8504 663.334 49.3153 663.699 48.8608C664.063 48.4015 664.333 47.9706 664.509 47.5682C664.688 47.161 664.778 46.7348 664.778 46.2898C664.778 45.7784 664.655 45.3357 664.409 44.9616C664.168 44.5876 663.836 44.2988 663.415 44.0952C662.993 43.8916 662.52 43.7898 661.994 43.7898C661.436 43.7898 660.948 43.9058 660.531 44.1378C660.119 44.3651 659.8 44.6847 659.572 45.0966C659.35 45.5085 659.239 45.9915 659.239 46.5455H657.562C657.562 45.6932 657.759 44.9451 658.152 44.3011C658.545 43.6572 659.08 43.1553 659.757 42.7955C660.439 42.4356 661.204 42.2557 662.051 42.2557C662.903 42.2557 663.659 42.4356 664.317 42.7955C664.975 43.1553 665.491 43.6406 665.865 44.2514C666.239 44.8622 666.426 45.5417 666.426 46.2898C666.426 46.8248 666.329 47.348 666.135 47.8594C665.946 48.366 665.614 48.9318 665.141 49.5568C664.672 50.1771 664.021 50.9347 663.188 51.8295L659.92 55.3239V55.4375H666.682V57H657.506ZM674.349 42.4545V57H672.587V44.3011H672.502L668.951 46.6591V44.8693L672.587 42.4545H674.349Z" fill="black"/>
<path d="M489.619 166.455V181H487.858V168.301H487.773L484.222 170.659V168.869L487.858 166.455H489.619Z" fill="black"/>
<path d="M440.619 264.455V279H438.858V266.301H438.773L435.222 268.659V266.869L438.858 264.455H440.619Z" fill="black"/>
<path d="M391.619 214.455V229H389.858V216.301H389.773L386.222 218.659V216.869L389.858 214.455H391.619Z" fill="black"/>
<path d="M487.25 279.199C486.18 279.199 485.268 278.908 484.516 278.325C483.763 277.738 483.188 276.888 482.79 275.776C482.392 274.658 482.193 273.309 482.193 271.727C482.193 270.155 482.392 268.813 482.79 267.7C483.192 266.583 483.77 265.731 484.523 265.143C485.28 264.552 486.189 264.256 487.25 264.256C488.311 264.256 489.217 264.552 489.97 265.143C490.728 265.731 491.305 266.583 491.703 267.7C492.106 268.813 492.307 270.155 492.307 271.727C492.307 273.309 492.108 274.658 491.71 275.776C491.312 276.888 490.737 277.738 489.984 278.325C489.232 278.908 488.32 279.199 487.25 279.199ZM487.25 277.636C488.311 277.636 489.134 277.125 489.722 276.102C490.309 275.08 490.602 273.621 490.602 271.727C490.602 270.468 490.467 269.395 490.197 268.51C489.932 267.625 489.549 266.95 489.047 266.486C488.55 266.022 487.951 265.79 487.25 265.79C486.199 265.79 485.377 266.308 484.786 267.345C484.194 268.377 483.898 269.838 483.898 271.727C483.898 272.987 484.03 274.057 484.295 274.938C484.561 275.818 484.942 276.488 485.439 276.947C485.941 277.407 486.545 277.636 487.25 277.636Z" fill="black"/>
<path d="M438.25 181.199C437.18 181.199 436.268 180.908 435.516 180.325C434.763 179.738 434.188 178.888 433.79 177.776C433.392 176.658 433.193 175.309 433.193 173.727C433.193 172.155 433.392 170.813 433.79 169.7C434.192 168.583 434.77 167.731 435.523 167.143C436.28 166.552 437.189 166.256 438.25 166.256C439.311 166.256 440.217 166.552 440.97 167.143C441.728 167.731 442.305 168.583 442.703 169.7C443.106 170.813 443.307 172.155 443.307 173.727C443.307 175.309 443.108 176.658 442.71 177.776C442.312 178.888 441.737 179.738 440.984 180.325C440.232 180.908 439.32 181.199 438.25 181.199ZM438.25 179.636C439.311 179.636 440.134 179.125 440.722 178.102C441.309 177.08 441.602 175.621 441.602 173.727C441.602 172.468 441.467 171.395 441.197 170.51C440.932 169.625 440.549 168.95 440.047 168.486C439.55 168.022 438.951 167.79 438.25 167.79C437.199 167.79 436.377 168.308 435.786 169.345C435.194 170.377 434.898 171.838 434.898 173.727C434.898 174.987 435.03 176.057 435.295 176.938C435.561 177.818 435.942 178.488 436.439 178.947C436.941 179.407 437.545 179.636 438.25 179.636Z" fill="black"/>
<path d="M482.506 229V227.722L487.307 222.466C487.87 221.85 488.334 221.315 488.699 220.861C489.063 220.402 489.333 219.971 489.509 219.568C489.688 219.161 489.778 218.735 489.778 218.29C489.778 217.778 489.655 217.336 489.409 216.962C489.168 216.588 488.836 216.299 488.415 216.095C487.993 215.892 487.52 215.79 486.994 215.79C486.436 215.79 485.948 215.906 485.531 216.138C485.119 216.365 484.8 216.685 484.572 217.097C484.35 217.509 484.239 217.991 484.239 218.545H482.562C482.562 217.693 482.759 216.945 483.152 216.301C483.545 215.657 484.08 215.155 484.757 214.795C485.439 214.436 486.204 214.256 487.051 214.256C487.903 214.256 488.659 214.436 489.317 214.795C489.975 215.155 490.491 215.641 490.865 216.251C491.239 216.862 491.426 217.542 491.426 218.29C491.426 218.825 491.329 219.348 491.135 219.859C490.946 220.366 490.614 220.932 490.141 221.557C489.672 222.177 489.021 222.935 488.188 223.83L484.92 227.324V227.438H491.682V229H482.506Z" fill="black"/>
<path d="M384.506 181V179.722L389.307 174.466C389.87 173.85 390.334 173.315 390.699 172.861C391.063 172.402 391.333 171.971 391.509 171.568C391.688 171.161 391.778 170.735 391.778 170.29C391.778 169.778 391.655 169.336 391.409 168.962C391.168 168.588 390.836 168.299 390.415 168.095C389.993 167.892 389.52 167.79 388.994 167.79C388.436 167.79 387.948 167.906 387.531 168.138C387.119 168.365 386.8 168.685 386.572 169.097C386.35 169.509 386.239 169.991 386.239 170.545H384.562C384.562 169.693 384.759 168.945 385.152 168.301C385.545 167.657 386.08 167.155 386.757 166.795C387.439 166.436 388.204 166.256 389.051 166.256C389.903 166.256 390.659 166.436 391.317 166.795C391.975 167.155 392.491 167.641 392.865 168.251C393.239 168.862 393.426 169.542 393.426 170.29C393.426 170.825 393.329 171.348 393.135 171.859C392.946 172.366 392.614 172.932 392.141 173.557C391.672 174.177 391.021 174.935 390.188 175.83L386.92 179.324V179.438H393.682V181H384.506Z" fill="black"/>
<path d="M438.42 229.199C437.483 229.199 436.647 229.038 435.913 228.716C435.184 228.394 434.604 227.946 434.173 227.374C433.747 226.796 433.515 226.126 433.477 225.364H435.267C435.305 225.832 435.466 226.237 435.75 226.578C436.034 226.914 436.406 227.175 436.865 227.359C437.324 227.544 437.833 227.636 438.392 227.636C439.017 227.636 439.571 227.527 440.054 227.31C440.537 227.092 440.916 226.789 441.19 226.401C441.465 226.012 441.602 225.562 441.602 225.051C441.602 224.516 441.47 224.045 441.205 223.638C440.939 223.226 440.551 222.904 440.04 222.672C439.528 222.44 438.903 222.324 438.165 222.324H437V220.761H438.165C438.742 220.761 439.249 220.657 439.685 220.449C440.125 220.241 440.468 219.947 440.714 219.568C440.965 219.189 441.091 218.744 441.091 218.233C441.091 217.741 440.982 217.312 440.764 216.947C440.546 216.583 440.239 216.299 439.841 216.095C439.448 215.892 438.984 215.79 438.449 215.79C437.947 215.79 437.473 215.882 437.028 216.067C436.588 216.247 436.228 216.509 435.949 216.855C435.67 217.196 435.518 217.608 435.494 218.091H433.79C433.818 217.329 434.048 216.661 434.479 216.088C434.91 215.51 435.473 215.061 436.169 214.739C436.87 214.417 437.639 214.256 438.477 214.256C439.377 214.256 440.149 214.438 440.793 214.803C441.437 215.162 441.931 215.638 442.277 216.23C442.623 216.822 442.795 217.461 442.795 218.148C442.795 218.967 442.58 219.665 442.149 220.243C441.723 220.821 441.143 221.221 440.409 221.443V221.557C441.328 221.708 442.045 222.099 442.561 222.729C443.077 223.354 443.335 224.128 443.335 225.051C443.335 225.842 443.12 226.552 442.689 227.182C442.263 227.807 441.68 228.299 440.942 228.659C440.203 229.019 439.363 229.199 438.42 229.199Z" fill="black"/>
<path d="M389.42 279.199C388.483 279.199 387.647 279.038 386.913 278.716C386.184 278.394 385.604 277.946 385.173 277.374C384.747 276.796 384.515 276.126 384.477 275.364H386.267C386.305 275.832 386.466 276.237 386.75 276.578C387.034 276.914 387.406 277.175 387.865 277.359C388.324 277.544 388.833 277.636 389.392 277.636C390.017 277.636 390.571 277.527 391.054 277.31C391.537 277.092 391.916 276.789 392.19 276.401C392.465 276.012 392.602 275.562 392.602 275.051C392.602 274.516 392.47 274.045 392.205 273.638C391.939 273.226 391.551 272.904 391.04 272.672C390.528 272.44 389.903 272.324 389.165 272.324H388V270.761H389.165C389.742 270.761 390.249 270.657 390.685 270.449C391.125 270.241 391.468 269.947 391.714 269.568C391.965 269.189 392.091 268.744 392.091 268.233C392.091 267.741 391.982 267.312 391.764 266.947C391.546 266.583 391.239 266.299 390.841 266.095C390.448 265.892 389.984 265.79 389.449 265.79C388.947 265.79 388.473 265.882 388.028 266.067C387.588 266.247 387.228 266.509 386.949 266.855C386.67 267.196 386.518 267.608 386.494 268.091H384.79C384.818 267.329 385.048 266.661 385.479 266.088C385.91 265.51 386.473 265.061 387.169 264.739C387.87 264.417 388.639 264.256 389.477 264.256C390.377 264.256 391.149 264.438 391.793 264.803C392.437 265.162 392.931 265.638 393.277 266.23C393.623 266.822 393.795 267.461 393.795 268.148C393.795 268.967 393.58 269.665 393.149 270.243C392.723 270.821 392.143 271.221 391.409 271.443V271.557C392.328 271.708 393.045 272.099 393.561 272.729C394.077 273.354 394.335 274.128 394.335 275.051C394.335 275.842 394.12 276.552 393.689 277.182C393.263 277.807 392.68 278.299 391.942 278.659C391.203 279.019 390.363 279.199 389.42 279.199Z" fill="black"/>
<path d="M53.6193 42.4545V57H51.858V44.3011H51.7727L48.2216 46.6591V44.8693L51.858 42.4545H53.6193Z" fill="black"/>
<path d="M102.619 91.4545V106H100.858V93.3011H100.773L97.2216 95.6591V93.8693L100.858 91.4545H102.619Z" fill="black"/>
<path d="M200.619 239.455V254H198.858V241.301H198.773L195.222 243.659V241.869L198.858 239.455H200.619Z" fill="black"/>
<path d="M151.619 189.455V204H149.858V191.301H149.773L146.222 193.659V191.869L149.858 189.455H151.619Z" fill="black"/>
<path d="M55.6193 189.455V204H53.858V191.301H53.7727L50.2216 193.659V191.869L53.858 189.455H55.6193Z" fill="black"/>
<path d="M53.25 106.199C52.1799 106.199 51.2685 105.908 50.5156 105.325C49.7628 104.738 49.1875 103.888 48.7898 102.776C48.392 101.658 48.1932 100.309 48.1932 98.7273C48.1932 97.1553 48.392 95.813 48.7898 94.7003C49.1922 93.5829 49.7699 92.7306 50.5227 92.1435C51.2803 91.5516 52.1894 91.2557 53.25 91.2557C54.3106 91.2557 55.2173 91.5516 55.9702 92.1435C56.7277 92.7306 57.3054 93.5829 57.7031 94.7003C58.1056 95.813 58.3068 97.1553 58.3068 98.7273C58.3068 100.309 58.108 101.658 57.7102 102.776C57.3125 103.888 56.7372 104.738 55.9844 105.325C55.2315 105.908 54.3201 106.199 53.25 106.199ZM53.25 104.636C54.3106 104.636 55.1345 104.125 55.7216 103.102C56.3087 102.08 56.6023 100.621 56.6023 98.7273C56.6023 97.4678 56.4673 96.3954 56.1974 95.5099C55.9323 94.6245 55.5488 93.9498 55.0469 93.4858C54.5497 93.0218 53.9508 92.7898 53.25 92.7898C52.1989 92.7898 51.3774 93.3082 50.7855 94.3452C50.1937 95.3774 49.8977 96.8381 49.8977 98.7273C49.8977 99.9867 50.0303 101.057 50.2955 101.938C50.5606 102.818 50.9418 103.488 51.4389 103.947C51.9408 104.407 52.5445 104.636 53.25 104.636Z" fill="black"/>
<path d="M100.25 253.199C99.1799 253.199 98.2685 252.908 97.5156 252.325C96.7628 251.738 96.1875 250.888 95.7898 249.776C95.392 248.658 95.1932 247.309 95.1932 245.727C95.1932 244.155 95.392 242.813 95.7898 241.7C96.1922 240.583 96.7699 239.731 97.5227 239.143C98.2803 238.552 99.1894 238.256 100.25 238.256C101.311 238.256 102.217 238.552 102.97 239.143C103.728 239.731 104.305 240.583 104.703 241.7C105.106 242.813 105.307 244.155 105.307 245.727C105.307 247.309 105.108 248.658 104.71 249.776C104.312 250.888 103.737 251.738 102.984 252.325C102.232 252.908 101.32 253.199 100.25 253.199ZM100.25 251.636C101.311 251.636 102.134 251.125 102.722 250.102C103.309 249.08 103.602 247.621 103.602 245.727C103.602 244.468 103.467 243.395 103.197 242.51C102.932 241.625 102.549 240.95 102.047 240.486C101.55 240.022 100.951 239.79 100.25 239.79C99.1989 239.79 98.3774 240.308 97.7855 241.345C97.1937 242.377 96.8977 243.838 96.8977 245.727C96.8977 246.987 97.0303 248.057 97.2955 248.938C97.5606 249.818 97.9418 250.488 98.4389 250.947C98.9408 251.407 99.5445 251.636 100.25 251.636Z" fill="black"/>
<path d="M199.25 204.199C198.18 204.199 197.268 203.908 196.516 203.325C195.763 202.738 195.188 201.888 194.79 200.776C194.392 199.658 194.193 198.309 194.193 196.727C194.193 195.155 194.392 193.813 194.79 192.7C195.192 191.583 195.77 190.731 196.523 190.143C197.28 189.552 198.189 189.256 199.25 189.256C200.311 189.256 201.217 189.552 201.97 190.143C202.728 190.731 203.305 191.583 203.703 192.7C204.106 193.813 204.307 195.155 204.307 196.727C204.307 198.309 204.108 199.658 203.71 200.776C203.312 201.888 202.737 202.738 201.984 203.325C201.232 203.908 200.32 204.199 199.25 204.199ZM199.25 202.636C200.311 202.636 201.134 202.125 201.722 201.102C202.309 200.08 202.602 198.621 202.602 196.727C202.602 195.468 202.467 194.395 202.197 193.51C201.932 192.625 201.549 191.95 201.047 191.486C200.55 191.022 199.951 190.79 199.25 190.79C198.199 190.79 197.377 191.308 196.786 192.345C196.194 193.377 195.898 194.838 195.898 196.727C195.898 197.987 196.03 199.057 196.295 199.938C196.561 200.818 196.942 201.488 197.439 201.947C197.941 202.407 198.545 202.636 199.25 202.636Z" fill="black"/>
<path d="M100.25 155.199C99.1799 155.199 98.2685 154.908 97.5156 154.325C96.7628 153.738 96.1875 152.888 95.7898 151.776C95.392 150.658 95.1932 149.309 95.1932 147.727C95.1932 146.155 95.392 144.813 95.7898 143.7C96.1922 142.583 96.7699 141.731 97.5227 141.143C98.2803 140.552 99.1894 140.256 100.25 140.256C101.311 140.256 102.217 140.552 102.97 141.143C103.728 141.731 104.305 142.583 104.703 143.7C105.106 144.813 105.307 146.155 105.307 147.727C105.307 149.309 105.108 150.658 104.71 151.776C104.312 152.888 103.737 153.738 102.984 154.325C102.232 154.908 101.32 155.199 100.25 155.199ZM100.25 153.636C101.311 153.636 102.134 153.125 102.722 152.102C103.309 151.08 103.602 149.621 103.602 147.727C103.602 146.468 103.467 145.395 103.197 144.51C102.932 143.625 102.549 142.95 102.047 142.486C101.55 142.022 100.951 141.79 100.25 141.79C99.1989 141.79 98.3774 142.308 97.7855 143.345C97.1937 144.377 96.8977 145.838 96.8977 147.727C96.8977 148.987 97.0303 150.057 97.2955 150.938C97.5606 151.818 97.9418 152.488 98.4389 152.947C98.9408 153.407 99.5445 153.636 100.25 153.636Z" fill="black"/>
<path d="M247.25 106.199C246.18 106.199 245.268 105.908 244.516 105.325C243.763 104.738 243.188 103.888 242.79 102.776C242.392 101.658 242.193 100.309 242.193 98.7273C242.193 97.1553 242.392 95.813 242.79 94.7003C243.192 93.5829 243.77 92.7306 244.523 92.1435C245.28 91.5516 246.189 91.2557 247.25 91.2557C248.311 91.2557 249.217 91.5516 249.97 92.1435C250.728 92.7306 251.305 93.5829 251.703 94.7003C252.106 95.813 252.307 97.1553 252.307 98.7273C252.307 100.309 252.108 101.658 251.71 102.776C251.312 103.888 250.737 104.738 249.984 105.325C249.232 105.908 248.32 106.199 247.25 106.199ZM247.25 104.636C248.311 104.636 249.134 104.125 249.722 103.102C250.309 102.08 250.602 100.621 250.602 98.7273C250.602 97.4678 250.467 96.3954 250.197 95.5099C249.932 94.6245 249.549 93.9498 249.047 93.4858C248.55 93.0218 247.951 92.7898 247.25 92.7898C246.199 92.7898 245.377 93.3082 244.786 94.3452C244.194 95.3774 243.898 96.8381 243.898 98.7273C243.898 99.9867 244.03 101.057 244.295 101.938C244.561 102.818 244.942 103.488 245.439 103.947C245.941 104.407 246.545 104.636 247.25 104.636Z" fill="black"/>
<path d="M97.5057 57V55.7216L102.307 50.4659C102.87 49.8504 103.334 49.3153 103.699 48.8608C104.063 48.4015 104.333 47.9706 104.509 47.5682C104.688 47.161 104.778 46.7348 104.778 46.2898C104.778 45.7784 104.655 45.3357 104.409 44.9616C104.168 44.5876 103.836 44.2988 103.415 44.0952C102.993 43.8916 102.52 43.7898 101.994 43.7898C101.436 43.7898 100.948 43.9058 100.531 44.1378C100.119 44.3651 99.7997 44.6847 99.5724 45.0966C99.3499 45.5085 99.2386 45.9915 99.2386 46.5455H97.5625C97.5625 45.6932 97.759 44.9451 98.152 44.3011C98.545 43.6572 99.08 43.1553 99.7571 42.7955C100.439 42.4356 101.204 42.2557 102.051 42.2557C102.903 42.2557 103.659 42.4356 104.317 42.7955C104.975 43.1553 105.491 43.6406 105.865 44.2514C106.239 44.8622 106.426 45.5417 106.426 46.2898C106.426 46.8248 106.329 47.348 106.135 47.8594C105.946 48.366 105.614 48.9318 105.141 49.5568C104.672 50.1771 104.021 50.9347 103.188 51.8295L99.9205 55.3239V55.4375H106.682V57H97.5057Z" fill="black"/>
<path d="M97.5057 57V55.7216L102.307 50.4659C102.87 49.8504 103.334 49.3153 103.699 48.8608C104.063 48.4015 104.333 47.9706 104.509 47.5682C104.688 47.161 104.778 46.7348 104.778 46.2898C104.778 45.7784 104.655 45.3357 104.409 44.9616C104.168 44.5876 103.836 44.2988 103.415 44.0952C102.993 43.8916 102.52 43.7898 101.994 43.7898C101.436 43.7898 100.948 43.9058 100.531 44.1378C100.119 44.3651 99.7997 44.6847 99.5724 45.0966C99.3499 45.5085 99.2386 45.9915 99.2386 46.5455H97.5625C97.5625 45.6932 97.759 44.9451 98.152 44.3011C98.545 43.6572 99.08 43.1553 99.7571 42.7955C100.439 42.4356 101.204 42.2557 102.051 42.2557C102.903 42.2557 103.659 42.4356 104.317 42.7955C104.975 43.1553 105.491 43.6406 105.865 44.2514C106.239 44.8622 106.426 45.5417 106.426 46.2898C106.426 46.8248 106.329 47.348 106.135 47.8594C105.946 48.366 105.614 48.9318 105.141 49.5568C104.672 50.1771 104.021 50.9347 103.188 51.8295L99.9205 55.3239V55.4375H106.682V57H97.5057Z" fill="black"/>
<path d="M149.42 57.1989C148.483 57.1989 147.647 57.0379 146.913 56.7159C146.184 56.3939 145.604 55.9465 145.173 55.3736C144.747 54.7959 144.515 54.1259 144.477 53.3636H146.267C146.305 53.8324 146.466 54.2372 146.75 54.5781C147.034 54.9143 147.406 55.1747 147.865 55.3594C148.324 55.544 148.833 55.6364 149.392 55.6364C150.017 55.6364 150.571 55.5275 151.054 55.3097C151.537 55.0919 151.916 54.7888 152.19 54.4006C152.465 54.0123 152.602 53.5625 152.602 53.0511C152.602 52.5161 152.47 52.045 152.205 51.6378C151.939 51.2259 151.551 50.9039 151.04 50.6719C150.528 50.4399 149.903 50.3239 149.165 50.3239H148V48.7614H149.165C149.742 48.7614 150.249 48.6572 150.685 48.4489C151.125 48.2405 151.468 47.947 151.714 47.5682C151.965 47.1894 152.091 46.7443 152.091 46.233C152.091 45.7405 151.982 45.312 151.764 44.9474C151.546 44.5829 151.239 44.2988 150.841 44.0952C150.448 43.8916 149.984 43.7898 149.449 43.7898C148.947 43.7898 148.473 43.8821 148.028 44.0668C147.588 44.2467 147.228 44.5095 146.949 44.8551C146.67 45.196 146.518 45.608 146.494 46.0909H144.79C144.818 45.3286 145.048 44.661 145.479 44.0881C145.91 43.5104 146.473 43.0606 147.169 42.7386C147.87 42.4167 148.639 42.2557 149.477 42.2557C150.377 42.2557 151.149 42.438 151.793 42.8026C152.437 43.1624 152.931 43.6383 153.277 44.2301C153.623 44.822 153.795 45.4612 153.795 46.1477C153.795 46.9669 153.58 47.6652 153.149 48.2429C152.723 48.8205 152.143 49.2206 151.409 49.4432V49.5568C152.328 49.7083 153.045 50.099 153.561 50.7287C154.077 51.3537 154.335 52.1278 154.335 53.0511C154.335 53.8419 154.12 54.5521 153.689 55.1818C153.263 55.8068 152.68 56.2992 151.942 56.6591C151.203 57.0189 150.363 57.1989 149.42 57.1989Z" fill="black"/>
<path d="M144.506 106V104.722L149.307 99.4659C149.87 98.8504 150.334 98.3153 150.699 97.8608C151.063 97.4015 151.333 96.9706 151.509 96.5682C151.688 96.161 151.778 95.7348 151.778 95.2898C151.778 94.7784 151.655 94.3357 151.409 93.9616C151.168 93.5876 150.836 93.2988 150.415 93.0952C149.993 92.8916 149.52 92.7898 148.994 92.7898C148.436 92.7898 147.948 92.9058 147.531 93.1378C147.119 93.3651 146.8 93.6847 146.572 94.0966C146.35 94.5085 146.239 94.9915 146.239 95.5455H144.562C144.562 94.6932 144.759 93.9451 145.152 93.3011C145.545 92.6572 146.08 92.1553 146.757 91.7955C147.439 91.4356 148.204 91.2557 149.051 91.2557C149.903 91.2557 150.659 91.4356 151.317 91.7955C151.975 92.1553 152.491 92.6406 152.865 93.2514C153.239 93.8622 153.426 94.5417 153.426 95.2898C153.426 95.8248 153.329 96.348 153.135 96.8594C152.946 97.366 152.614 97.9318 152.141 98.5568C151.672 99.1771 151.021 99.9347 150.188 100.83L146.92 104.324V104.438H153.682V106H144.506Z" fill="black"/>
<path d="M48.5057 155V153.722L53.3068 148.466C53.8703 147.85 54.3343 147.315 54.6989 146.861C55.0634 146.402 55.3333 145.971 55.5085 145.568C55.6884 145.161 55.7784 144.735 55.7784 144.29C55.7784 143.778 55.6553 143.336 55.4091 142.962C55.1676 142.588 54.8362 142.299 54.4148 142.095C53.9934 141.892 53.5199 141.79 52.9943 141.79C52.4356 141.79 51.9479 141.906 51.5312 142.138C51.1193 142.365 50.7997 142.685 50.5724 143.097C50.3499 143.509 50.2386 143.991 50.2386 144.545H48.5625C48.5625 143.693 48.759 142.945 49.152 142.301C49.545 141.657 50.08 141.155 50.7571 140.795C51.4389 140.436 52.2036 140.256 53.0511 140.256C53.9034 140.256 54.6586 140.436 55.3168 140.795C55.9749 141.155 56.491 141.641 56.8651 142.251C57.2391 142.862 57.4261 143.542 57.4261 144.29C57.4261 144.825 57.3291 145.348 57.1349 145.859C56.9455 146.366 56.6141 146.932 56.1406 147.557C55.6719 148.177 55.0208 148.935 54.1875 149.83L50.9205 153.324V153.438H57.6818V155H48.5057Z" fill="black"/>
<path d="M242.506 253V251.722L247.307 246.466C247.87 245.85 248.334 245.315 248.699 244.861C249.063 244.402 249.333 243.971 249.509 243.568C249.688 243.161 249.778 242.735 249.778 242.29C249.778 241.778 249.655 241.336 249.409 240.962C249.168 240.588 248.836 240.299 248.415 240.095C247.993 239.892 247.52 239.79 246.994 239.79C246.436 239.79 245.948 239.906 245.531 240.138C245.119 240.365 244.8 240.685 244.572 241.097C244.35 241.509 244.239 241.991 244.239 242.545H242.562C242.562 241.693 242.759 240.945 243.152 240.301C243.545 239.657 244.08 239.155 244.757 238.795C245.439 238.436 246.204 238.256 247.051 238.256C247.903 238.256 248.659 238.436 249.317 238.795C249.975 239.155 250.491 239.641 250.865 240.251C251.239 240.862 251.426 241.542 251.426 242.29C251.426 242.825 251.329 243.348 251.135 243.859C250.946 244.366 250.614 244.932 250.141 245.557C249.672 246.177 249.021 246.935 248.188 247.83L244.92 251.324V251.438H251.682V253H242.506Z" fill="black"/>
<path d="M48.5057 253V251.722L53.3068 246.466C53.8703 245.85 54.3343 245.315 54.6989 244.861C55.0634 244.402 55.3333 243.971 55.5085 243.568C55.6884 243.161 55.7784 242.735 55.7784 242.29C55.7784 241.778 55.6553 241.336 55.4091 240.962C55.1676 240.588 54.8362 240.299 54.4148 240.095C53.9934 239.892 53.5199 239.79 52.9943 239.79C52.4356 239.79 51.9479 239.906 51.5312 240.138C51.1193 240.365 50.7997 240.685 50.5724 241.097C50.3499 241.509 50.2386 241.991 50.2386 242.545H48.5625C48.5625 241.693 48.759 240.945 49.152 240.301C49.545 239.657 50.08 239.155 50.7571 238.795C51.4389 238.436 52.2036 238.256 53.0511 238.256C53.9034 238.256 54.6586 238.436 55.3168 238.795C55.9749 239.155 56.491 239.641 56.8651 240.251C57.2391 240.862 57.4261 241.542 57.4261 242.29C57.4261 242.825 57.3291 243.348 57.1349 243.859C56.9455 244.366 56.6141 244.932 56.1406 245.557C55.6719 246.177 55.0208 246.935 54.1875 247.83L50.9205 251.324V251.438H57.6818V253H48.5057Z" fill="black"/>
<path d="M144.506 253V251.722L149.307 246.466C149.87 245.85 150.334 245.315 150.699 244.861C151.063 244.402 151.333 243.971 151.509 243.568C151.688 243.161 151.778 242.735 151.778 242.29C151.778 241.778 151.655 241.336 151.409 240.962C151.168 240.588 150.836 240.299 150.415 240.095C149.993 239.892 149.52 239.79 148.994 239.79C148.436 239.79 147.948 239.906 147.531 240.138C147.119 240.365 146.8 240.685 146.572 241.097C146.35 241.509 146.239 241.991 146.239 242.545H144.562C144.562 241.693 144.759 240.945 145.152 240.301C145.545 239.657 146.08 239.155 146.757 238.795C147.439 238.436 148.204 238.256 149.051 238.256C149.903 238.256 150.659 238.436 151.317 238.795C151.975 239.155 152.491 239.641 152.865 240.251C153.239 240.862 153.426 241.542 153.426 242.29C153.426 242.825 153.329 243.348 153.135 243.859C152.946 244.366 152.614 244.932 152.141 245.557C151.672 246.177 151.021 246.935 150.188 247.83L146.92 251.324V251.438H153.682V253H144.506Z" fill="black"/>
<path d="M243.506 155V153.722L248.307 148.466C248.87 147.85 249.334 147.315 249.699 146.861C250.063 146.402 250.333 145.971 250.509 145.568C250.688 145.161 250.778 144.735 250.778 144.29C250.778 143.778 250.655 143.336 250.409 142.962C250.168 142.588 249.836 142.299 249.415 142.095C248.993 141.892 248.52 141.79 247.994 141.79C247.436 141.79 246.948 141.906 246.531 142.138C246.119 142.365 245.8 142.685 245.572 143.097C245.35 143.509 245.239 143.991 245.239 144.545H243.562C243.562 143.693 243.759 142.945 244.152 142.301C244.545 141.657 245.08 141.155 245.757 140.795C246.439 140.436 247.204 140.256 248.051 140.256C248.903 140.256 249.659 140.436 250.317 140.795C250.975 141.155 251.491 141.641 251.865 142.251C252.239 142.862 252.426 143.542 252.426 144.29C252.426 144.825 252.329 145.348 252.135 145.859C251.946 146.366 251.614 146.932 251.141 147.557C250.672 148.177 250.021 148.935 249.188 149.83L245.92 153.324V153.438H252.682V155H243.506Z" fill="black"/>
<path d="M198.42 106.199C197.483 106.199 196.647 106.038 195.913 105.716C195.184 105.394 194.604 104.946 194.173 104.374C193.747 103.796 193.515 103.126 193.477 102.364H195.267C195.305 102.832 195.466 103.237 195.75 103.578C196.034 103.914 196.406 104.175 196.865 104.359C197.324 104.544 197.833 104.636 198.392 104.636C199.017 104.636 199.571 104.527 200.054 104.31C200.537 104.092 200.916 103.789 201.19 103.401C201.465 103.012 201.602 102.562 201.602 102.051C201.602 101.516 201.47 101.045 201.205 100.638C200.939 100.226 200.551 99.9039 200.04 99.6719C199.528 99.4399 198.903 99.3239 198.165 99.3239H197V97.7614H198.165C198.742 97.7614 199.249 97.6572 199.685 97.4489C200.125 97.2405 200.468 96.947 200.714 96.5682C200.965 96.1894 201.091 95.7443 201.091 95.233C201.091 94.7405 200.982 94.312 200.764 93.9474C200.546 93.5829 200.239 93.2988 199.841 93.0952C199.448 92.8916 198.984 92.7898 198.449 92.7898C197.947 92.7898 197.473 92.8821 197.028 93.0668C196.588 93.2467 196.228 93.5095 195.949 93.8551C195.67 94.196 195.518 94.608 195.494 95.0909H193.79C193.818 94.3286 194.048 93.661 194.479 93.0881C194.91 92.5104 195.473 92.0606 196.169 91.7386C196.87 91.4167 197.639 91.2557 198.477 91.2557C199.377 91.2557 200.149 91.438 200.793 91.8026C201.437 92.1624 201.931 92.6383 202.277 93.2301C202.623 93.822 202.795 94.4612 202.795 95.1477C202.795 95.9669 202.58 96.6652 202.149 97.2429C201.723 97.8205 201.143 98.2206 200.409 98.4432V98.5568C201.328 98.7083 202.045 99.099 202.561 99.7287C203.077 100.354 203.335 101.128 203.335 102.051C203.335 102.842 203.12 103.552 202.689 104.182C202.263 104.807 201.68 105.299 200.942 105.659C200.203 106.019 199.363 106.199 198.42 106.199Z" fill="black"/>
<path d="M100.42 204.199C99.483 204.199 98.6473 204.038 97.9134 203.716C97.1842 203.394 96.6042 202.946 96.1733 202.374C95.7472 201.796 95.5152 201.126 95.4773 200.364H97.267C97.3049 200.832 97.4659 201.237 97.75 201.578C98.0341 201.914 98.4058 202.175 98.8651 202.359C99.3243 202.544 99.8333 202.636 100.392 202.636C101.017 202.636 101.571 202.527 102.054 202.31C102.537 202.092 102.916 201.789 103.19 201.401C103.465 201.012 103.602 200.562 103.602 200.051C103.602 199.516 103.47 199.045 103.205 198.638C102.939 198.226 102.551 197.904 102.04 197.672C101.528 197.44 100.903 197.324 100.165 197.324H99V195.761H100.165C100.742 195.761 101.249 195.657 101.685 195.449C102.125 195.241 102.468 194.947 102.714 194.568C102.965 194.189 103.091 193.744 103.091 193.233C103.091 192.741 102.982 192.312 102.764 191.947C102.546 191.583 102.239 191.299 101.841 191.095C101.448 190.892 100.984 190.79 100.449 190.79C99.947 190.79 99.4735 190.882 99.0284 191.067C98.5881 191.247 98.2282 191.509 97.9489 191.855C97.6695 192.196 97.518 192.608 97.4943 193.091H95.7898C95.8182 192.329 96.0478 191.661 96.4787 191.088C96.9096 190.51 97.473 190.061 98.169 189.739C98.8698 189.417 99.6392 189.256 100.477 189.256C101.377 189.256 102.149 189.438 102.793 189.803C103.437 190.162 103.931 190.638 104.277 191.23C104.623 191.822 104.795 192.461 104.795 193.148C104.795 193.967 104.58 194.665 104.149 195.243C103.723 195.821 103.143 196.221 102.409 196.443V196.557C103.328 196.708 104.045 197.099 104.561 197.729C105.077 198.354 105.335 199.128 105.335 200.051C105.335 200.842 105.12 201.552 104.689 202.182C104.263 202.807 103.68 203.299 102.942 203.659C102.203 204.019 101.363 204.199 100.42 204.199Z" fill="black"/>
<path d="M150.42 155.199C149.483 155.199 148.647 155.038 147.913 154.716C147.184 154.394 146.604 153.946 146.173 153.374C145.747 152.796 145.515 152.126 145.477 151.364H147.267C147.305 151.832 147.466 152.237 147.75 152.578C148.034 152.914 148.406 153.175 148.865 153.359C149.324 153.544 149.833 153.636 150.392 153.636C151.017 153.636 151.571 153.527 152.054 153.31C152.537 153.092 152.916 152.789 153.19 152.401C153.465 152.012 153.602 151.562 153.602 151.051C153.602 150.516 153.47 150.045 153.205 149.638C152.939 149.226 152.551 148.904 152.04 148.672C151.528 148.44 150.903 148.324 150.165 148.324H149V146.761H150.165C150.742 146.761 151.249 146.657 151.685 146.449C152.125 146.241 152.468 145.947 152.714 145.568C152.965 145.189 153.091 144.744 153.091 144.233C153.091 143.741 152.982 143.312 152.764 142.947C152.546 142.583 152.239 142.299 151.841 142.095C151.448 141.892 150.984 141.79 150.449 141.79C149.947 141.79 149.473 141.882 149.028 142.067C148.588 142.247 148.228 142.509 147.949 142.855C147.67 143.196 147.518 143.608 147.494 144.091H145.79C145.818 143.329 146.048 142.661 146.479 142.088C146.91 141.51 147.473 141.061 148.169 140.739C148.87 140.417 149.639 140.256 150.477 140.256C151.377 140.256 152.149 140.438 152.793 140.803C153.437 141.162 153.931 141.638 154.277 142.23C154.623 142.822 154.795 143.461 154.795 144.148C154.795 144.967 154.58 145.665 154.149 146.243C153.723 146.821 153.143 147.221 152.409 147.443V147.557C153.328 147.708 154.045 148.099 154.561 148.729C155.077 149.354 155.335 150.128 155.335 151.051C155.335 151.842 155.12 152.552 154.689 153.182C154.263 153.807 153.68 154.299 152.942 154.659C152.203 155.019 151.363 155.199 150.42 155.199Z" fill="black"/>
<path d="M199.42 155.199C198.483 155.199 197.647 155.038 196.913 154.716C196.184 154.394 195.604 153.946 195.173 153.374C194.747 152.796 194.515 152.126 194.477 151.364H196.267C196.305 151.832 196.466 152.237 196.75 152.578C197.034 152.914 197.406 153.175 197.865 153.359C198.324 153.544 198.833 153.636 199.392 153.636C200.017 153.636 200.571 153.527 201.054 153.31C201.537 153.092 201.916 152.789 202.19 152.401C202.465 152.012 202.602 151.562 202.602 151.051C202.602 150.516 202.47 150.045 202.205 149.638C201.939 149.226 201.551 148.904 201.04 148.672C200.528 148.44 199.903 148.324 199.165 148.324H198V146.761H199.165C199.742 146.761 200.249 146.657 200.685 146.449C201.125 146.241 201.468 145.947 201.714 145.568C201.965 145.189 202.091 144.744 202.091 144.233C202.091 143.741 201.982 143.312 201.764 142.947C201.546 142.583 201.239 142.299 200.841 142.095C200.448 141.892 199.984 141.79 199.449 141.79C198.947 141.79 198.473 141.882 198.028 142.067C197.588 142.247 197.228 142.509 196.949 142.855C196.67 143.196 196.518 143.608 196.494 144.091H194.79C194.818 143.329 195.048 142.661 195.479 142.088C195.91 141.51 196.473 141.061 197.169 140.739C197.87 140.417 198.639 140.256 199.477 140.256C200.377 140.256 201.149 140.438 201.793 140.803C202.437 141.162 202.931 141.638 203.277 142.23C203.623 142.822 203.795 143.461 203.795 144.148C203.795 144.967 203.58 145.665 203.149 146.243C202.723 146.821 202.143 147.221 201.409 147.443V147.557C202.328 147.708 203.045 148.099 203.561 148.729C204.077 149.354 204.335 150.128 204.335 151.051C204.335 151.842 204.12 152.552 203.689 153.182C203.263 153.807 202.68 154.299 201.942 154.659C201.203 155.019 200.363 155.199 199.42 155.199Z" fill="black"/>
<path d="M248.42 204.199C247.483 204.199 246.647 204.038 245.913 203.716C245.184 203.394 244.604 202.946 244.173 202.374C243.747 201.796 243.515 201.126 243.477 200.364H245.267C245.305 200.832 245.466 201.237 245.75 201.578C246.034 201.914 246.406 202.175 246.865 202.359C247.324 202.544 247.833 202.636 248.392 202.636C249.017 202.636 249.571 202.527 250.054 202.31C250.537 202.092 250.916 201.789 251.19 201.401C251.465 201.012 251.602 200.562 251.602 200.051C251.602 199.516 251.47 199.045 251.205 198.638C250.939 198.226 250.551 197.904 250.04 197.672C249.528 197.44 248.903 197.324 248.165 197.324H247V195.761H248.165C248.742 195.761 249.249 195.657 249.685 195.449C250.125 195.241 250.468 194.947 250.714 194.568C250.965 194.189 251.091 193.744 251.091 193.233C251.091 192.741 250.982 192.312 250.764 191.947C250.546 191.583 250.239 191.299 249.841 191.095C249.448 190.892 248.984 190.79 248.449 190.79C247.947 190.79 247.473 190.882 247.028 191.067C246.588 191.247 246.228 191.509 245.949 191.855C245.67 192.196 245.518 192.608 245.494 193.091H243.79C243.818 192.329 244.048 191.661 244.479 191.088C244.91 190.51 245.473 190.061 246.169 189.739C246.87 189.417 247.639 189.256 248.477 189.256C249.377 189.256 250.149 189.438 250.793 189.803C251.437 190.162 251.931 190.638 252.277 191.23C252.623 191.822 252.795 192.461 252.795 193.148C252.795 193.967 252.58 194.665 252.149 195.243C251.723 195.821 251.143 196.221 250.409 196.443V196.557C251.328 196.708 252.045 197.099 252.561 197.729C253.077 198.354 253.335 199.128 253.335 200.051C253.335 200.842 253.12 201.552 252.689 202.182C252.263 202.807 251.68 203.299 250.942 203.659C250.203 204.019 249.363 204.199 248.42 204.199Z" fill="black"/>
<path d="M193.506 57V55.7216L198.307 50.4659C198.87 49.8504 199.334 49.3153 199.699 48.8608C200.063 48.4015 200.333 47.9706 200.509 47.5682C200.688 47.161 200.778 46.7348 200.778 46.2898C200.778 45.7784 200.655 45.3357 200.409 44.9616C200.168 44.5876 199.836 44.2988 199.415 44.0952C198.993 43.8916 198.52 43.7898 197.994 43.7898C197.436 43.7898 196.948 43.9058 196.531 44.1378C196.119 44.3651 195.8 44.6847 195.572 45.0966C195.35 45.5085 195.239 45.9915 195.239 46.5455H193.562C193.562 45.6932 193.759 44.9451 194.152 44.3011C194.545 43.6572 195.08 43.1553 195.757 42.7955C196.439 42.4356 197.204 42.2557 198.051 42.2557C198.903 42.2557 199.659 42.4356 200.317 42.7955C200.975 43.1553 201.491 43.6406 201.865 44.2514C202.239 44.8622 202.426 45.5417 202.426 46.2898C202.426 46.8248 202.329 47.348 202.135 47.8594C201.946 48.366 201.614 48.9318 201.141 49.5568C200.672 50.1771 200.021 50.9347 199.188 51.8295L195.92 55.3239V55.4375H202.682V57H193.506Z" fill="black"/>
<path d="M248.619 42.4545V57H246.858V44.3011H246.773L243.222 46.6591V44.8693L246.858 42.4545H248.619Z" fill="black"/>
</svg>
