<svg width="791" height="277" viewBox="0 0 791 277" fill="none" xmlns="http://www.w3.org/2000/svg">
<path d="M343.707 236.707C344.098 236.317 344.098 235.683 343.707 235.293L337.343 228.929C336.953 228.538 336.319 228.538 335.929 228.929C335.538 229.319 335.538 229.953 335.929 230.343L341.586 236L335.929 241.657C335.538 242.047 335.538 242.681 335.929 243.071C336.319 243.462 336.953 243.462 337.343 243.071L343.707 236.707ZM45 237H343V235H45V237Z" fill="black"/>
<path d="M45.7071 33.2929C45.3166 32.9024 44.6834 32.9024 44.2929 33.2929L37.9289 39.6569C37.5384 40.0474 37.5384 40.6805 37.9289 41.0711C38.3194 41.4616 38.9526 41.4616 39.3431 41.0711L45 35.4142L50.6568 41.0711C51.0474 41.4616 51.6805 41.4616 52.0711 41.0711C52.4616 40.6805 52.4616 40.0474 52.0711 39.6569L45.7071 33.2929ZM46 236L46 34L44 34L44 236L46 236Z" fill="black"/>
<path d="M320.563 253L323.789 258.453H323.914L327.156 253H330.977L326.094 261L331.086 269H327.195L323.914 263.539H323.789L320.508 269H316.633L321.641 261L316.727 253H320.563Z" fill="black"/>
<path d="M17.4531 53H21.2422L24.8906 59.8906H25.0469L28.6953 53H32.4844L26.6484 63.3437V69H23.2891V63.3437L17.4531 53Z" fill="black"/>
<line x1="0.528304" y1="166.576" x2="323.528" y2="59.5761" stroke="black" stroke-width="3" stroke-dasharray="5 5"/>
<line x1="87.5724" y1="172.461" x2="77.5724" y2="141.461" stroke="black" stroke-width="3"/>
<line x1="267.572" y1="76.4605" x2="257.572" y2="45.4605" stroke="black" stroke-width="3"/>
<line x1="277.579" y1="141.482" x2="257.579" y2="82.4816" stroke="black" stroke-width="3"/>
<line x1="164.584" y1="156.496" x2="150.584" y2="116.496" stroke="black" stroke-width="3"/>
<line x1="134.575" y1="121.467" x2="115.575" y2="63.467" stroke="black" stroke-width="3"/>
<circle cx="88" cy="172" r="8" fill="#BDE3FF"/>
<line x1="111.584" y1="151.496" x2="104.584" y2="131.496" stroke="black" stroke-width="3"/>
<circle cx="113" cy="152" r="8" fill="#FF9F05"/>
<circle cx="114" cy="61" r="8" fill="#BDE3FF"/>
<line x1="162.575" y1="113.467" x2="143.575" y2="55.467" stroke="black" stroke-width="3"/>
<circle cx="142" cy="53" r="8" fill="#FF9F05"/>
<circle cx="258" cy="46" r="8" fill="#BDE3FF"/>
<circle cx="279" cy="141" r="8" fill="#BDE3FF"/>
<circle cx="167" cy="159" r="8" fill="#FFBFBD"/>
<line x1="209.572" y1="98.4605" x2="199.572" y2="67.4605" stroke="black" stroke-width="3"/>
<line x1="94.5724" y1="135.461" x2="84.5724" y2="104.461" stroke="black" stroke-width="3"/>
<line x1="181.572" y1="141.461" x2="171.572" y2="110.461" stroke="black" stroke-width="3"/>
<line x1="210.572" y1="130.461" x2="200.572" y2="99.4605" stroke="black" stroke-width="3"/>
<line x1="246.572" y1="84.4605" x2="236.572" y2="53.4605" stroke="black" stroke-width="3"/>
<line x1="209.572" y1="98.4605" x2="199.572" y2="67.4605" stroke="black" stroke-width="3"/>
<circle cx="200" cy="68" r="8" fill="#FF9F05"/>
<line x1="181.572" y1="106.461" x2="171.572" y2="75.4605" stroke="black" stroke-width="3"/>
<circle cx="174" cy="83" r="8" fill="#BDE3FF"/>
<line x1="296.586" y1="104.502" x2="285.586" y2="73.5016" stroke="black" stroke-width="3"/>
<circle cx="297" cy="103" r="8" fill="#FFBFBD"/>
<circle cx="84" cy="102" r="8" fill="#FF9F05"/>
<circle cx="182" cy="141" r="8" fill="#BDE3FF"/>
<circle cx="211" cy="129" r="8" fill="#BDE3FF"/>
<circle cx="238" cy="55" r="8" fill="#FFBFBD"/>
<path d="M75.892 258.412H85.682V272.118H75.892V258.412ZM82.822 260.7H78.774V269.808H82.822V260.7ZM88.85 256.564H91.798V277.002H88.85V256.564ZM108.802 256.586H111.728V276.958H108.802V256.586ZM95.7783 258.522H98.6823V271.172H95.7783V258.522ZM95.7783 269.456H97.5823C100.552 269.456 103.852 269.236 107.218 268.576L107.548 270.996C104.05 271.722 100.684 271.942 97.5823 271.942H95.7783V269.456ZM115.093 258.39H117.843V262.966H120.439V258.39H123.145V272.14H115.093V258.39ZM117.843 265.254V269.808H120.439V265.254H117.843ZM129.239 256.586H132.033V276.958H129.239V256.586ZM126.731 264.352H130.119V266.706H126.731V264.352ZM124.773 256.894H127.523V276.034H124.773V256.894ZM148.333 256.586H151.281V276.958H148.333V256.586ZM139.357 261.866H141.667V262.922C141.667 267.234 139.753 271.568 135.991 273.196L134.429 270.952C137.773 269.456 139.357 266.002 139.357 262.922V261.866ZM139.995 261.866H142.283V262.922C142.283 265.848 143.889 269.192 147.255 270.622L145.693 272.866C141.931 271.304 139.995 267.102 139.995 262.922V261.866ZM135.111 259.908H146.441V262.218H135.111V259.908ZM139.357 257.048H142.283V261.096H139.357V257.048ZM154.183 272.338H172.619V274.714H154.183V272.338ZM161.905 268.488H164.831V273.306H161.905V268.488ZM156.251 257.906H170.551V264.682H159.199V268.114H156.295V262.394H167.647V260.216H156.251V257.906ZM156.295 266.948H171.013V269.302H156.295V266.948ZM182.351 259.314H184.529V260.568C184.529 263.846 183.209 266.97 179.931 268.268L178.523 266.09C181.229 265.034 182.351 262.724 182.351 260.568V259.314ZM183.121 259.314H185.255V260.568C185.255 262.526 186.289 264.77 188.951 265.826L187.851 268.07C184.375 266.816 183.121 263.56 183.121 260.568V259.314ZM190.469 259.314H192.581V260.568C192.581 263.604 191.349 266.816 187.851 268.07L186.773 265.826C189.413 264.792 190.469 262.57 190.469 260.568V259.314ZM191.195 259.314H193.417V260.568C193.417 262.812 194.495 265.122 197.223 266.2L195.793 268.356C192.515 267.08 191.195 263.912 191.195 260.568V259.314ZM186.399 268.73H189.325V273.724H186.399V268.73ZM179.249 258.016H187.433V260.348H179.249V258.016ZM188.291 258.016H196.475V260.348H188.291V258.016ZM178.655 272.228H197.091V274.604H178.655V272.228ZM213.127 256.586H215.921V276.958H213.127V256.586ZM210.553 264.264H213.919V266.596H210.553V264.264ZM204.481 259.072H207.275C207.275 264.814 205.603 269.456 199.905 272.778L198.211 270.754C202.853 268.004 204.481 264.572 204.481 259.688V259.072ZM199.245 259.072H205.339V261.426H199.245V259.072ZM208.617 257.114H211.345V276.078H208.617V257.114ZM228.57 262.944H233.938V265.298H228.57V262.944ZM223.026 258.148H225.402V261.096C225.402 266.222 223.664 270.952 219.836 272.866L218.01 270.512C221.486 268.906 223.026 264.968 223.026 261.096V258.148ZM223.642 258.148H225.974V261.096C225.974 264.968 227.448 268.686 230.814 270.182L229.076 272.514C225.248 270.666 223.642 266.178 223.642 261.096V258.148ZM232.486 256.564H235.39V277.002H232.486V256.564ZM252.008 259.424H257.992V261.756H252.008V259.424ZM252.008 264.374H257.992V266.706H252.008V264.374ZM256.914 256.608H259.84V271.502H256.914V256.608ZM246.398 274.274H260.302V276.606H246.398V274.274ZM246.398 270.028H249.324V275.484H246.398V270.028ZM248.422 257.796C251.436 257.796 253.79 259.996 253.79 263.076C253.79 266.112 251.436 268.334 248.422 268.334C245.386 268.334 243.032 266.112 243.032 263.076C243.032 259.996 245.386 257.796 248.422 257.796ZM248.422 260.37C246.926 260.37 245.826 261.382 245.826 263.076C245.826 264.77 246.926 265.782 248.422 265.782C249.896 265.782 251.018 264.77 251.018 263.076C251.018 261.382 249.896 260.37 248.422 260.37ZM267.186 257.84H269.584V260.04C269.584 264.088 267.758 267.564 263.864 268.906L262.302 266.618C265.756 265.518 267.186 262.79 267.186 260.04V257.84ZM267.758 257.84H270.134V260.062C270.134 262.614 271.52 265.166 274.798 266.244L273.302 268.51C269.518 267.256 267.758 263.89 267.758 260.062V257.84ZM275.722 256.586H278.648V271.48H275.722V256.586ZM277.812 262.482H281.354V264.902H277.812V262.482ZM265.514 274.274H279.374V276.606H265.514V274.274ZM265.514 270.072H268.462V275.506H265.514V270.072Z" fill="black"/>
<circle cx="386" cy="89" r="8" fill="#BDE3FF"/>
<circle cx="386" cy="167" r="8" fill="#FFBFBD"/>
<line x1="228.575" y1="89.467" x2="209.575" y2="31.467" stroke="black" stroke-width="3"/>
<circle cx="208" cy="29" r="8" fill="#FF9F05"/>
<circle cx="386" cy="129" r="8" fill="#FF9F05"/>
<line x1="295.575" y1="68.467" x2="276.575" y2="10.467" stroke="black" stroke-width="3"/>
<circle cx="275" cy="8" r="8" fill="#FFBFBD"/>
<path d="M677.02 123.088H680.364V125.442H677.02V123.088ZM683.598 115.586H686.392V135.958H683.598V115.586ZM679.44 115.894H682.19V135.034H679.44V115.894ZM673.456 117.016C676.162 117.016 677.9 119.81 677.9 124.408C677.9 129.028 676.162 131.822 673.456 131.822C670.772 131.822 669.056 129.028 669.056 124.408C669.056 119.81 670.772 117.016 673.456 117.016ZM673.456 119.766C672.356 119.766 671.718 121.306 671.718 124.408C671.718 127.532 672.356 129.05 673.456 129.05C674.6 129.05 675.238 127.532 675.238 124.408C675.238 121.306 674.6 119.766 673.456 119.766ZM690.306 116.246H705.486V118.578H690.306V116.246ZM690.46 121.878H705.332V124.166H690.46V121.878ZM692.902 117.148H695.828V123.176H692.902V117.148ZM699.964 117.148H702.89V123.176H699.964V117.148ZM688.7 125.904H707.114V128.214H688.7V125.904ZM696.422 123.616H699.348V126.696H696.422V123.616ZM690.746 129.6H704.892V135.958H701.966V131.91H690.746V129.6ZM709.703 127.586C709.703 125.648 709.961 123.865 710.477 122.234C710.997 120.604 711.792 119.094 712.859 117.703H716.039C715.633 118.219 715.255 118.849 714.906 119.594C714.557 120.333 714.253 121.146 713.992 122.031C713.732 122.917 713.529 123.833 713.383 124.781C713.237 125.724 713.164 126.659 713.164 127.586C713.164 128.82 713.289 130.068 713.539 131.328C713.794 132.583 714.138 133.75 714.57 134.828C715.008 135.906 715.497 136.789 716.039 137.477H712.859C711.792 136.086 710.997 134.576 710.477 132.945C709.961 131.315 709.703 129.529 709.703 127.586ZM722.914 134.234C721.68 134.234 720.617 133.984 719.726 133.484C718.841 132.979 718.159 132.266 717.68 131.344C717.2 130.417 716.961 129.32 716.961 128.055C716.961 126.82 717.2 125.737 717.68 124.805C718.159 123.872 718.833 123.146 719.703 122.625C720.578 122.104 721.604 121.844 722.781 121.844C723.573 121.844 724.31 121.971 724.992 122.227C725.68 122.477 726.279 122.854 726.789 123.359C727.305 123.865 727.706 124.5 727.992 125.266C728.279 126.026 728.422 126.917 728.422 127.937V128.852H718.289V126.789H725.289C725.289 126.31 725.185 125.885 724.976 125.516C724.768 125.146 724.479 124.857 724.109 124.648C723.745 124.435 723.32 124.328 722.836 124.328C722.331 124.328 721.883 124.445 721.492 124.68C721.107 124.909 720.805 125.219 720.586 125.609C720.367 125.995 720.255 126.424 720.25 126.898V128.859C720.25 129.453 720.359 129.966 720.578 130.398C720.802 130.831 721.117 131.164 721.523 131.398C721.93 131.633 722.411 131.75 722.969 131.75C723.338 131.75 723.677 131.698 723.984 131.594C724.292 131.49 724.555 131.333 724.773 131.125C724.992 130.917 725.159 130.661 725.273 130.359L728.351 130.562C728.195 131.302 727.875 131.948 727.391 132.5C726.911 133.047 726.292 133.474 725.531 133.781C724.776 134.083 723.904 134.234 722.914 134.234ZM730.176 138.5V122H733.457V124.016H733.605C733.751 123.693 733.962 123.365 734.238 123.031C734.519 122.693 734.884 122.411 735.332 122.188C735.785 121.958 736.348 121.844 737.019 121.844C737.894 121.844 738.702 122.073 739.441 122.531C740.181 122.984 740.772 123.669 741.215 124.586C741.657 125.497 741.879 126.641 741.879 128.016C741.879 129.354 741.663 130.484 741.23 131.406C740.803 132.323 740.22 133.018 739.48 133.492C738.746 133.961 737.923 134.195 737.012 134.195C736.366 134.195 735.816 134.089 735.363 133.875C734.915 133.661 734.548 133.393 734.262 133.07C733.975 132.742 733.756 132.411 733.605 132.078H733.504V138.5H730.176ZM733.433 128C733.433 128.714 733.532 129.336 733.73 129.867C733.928 130.398 734.215 130.812 734.59 131.109C734.965 131.401 735.42 131.547 735.957 131.547C736.499 131.547 736.957 131.398 737.332 131.102C737.707 130.799 737.991 130.383 738.183 129.852C738.381 129.315 738.48 128.698 738.48 128C738.48 127.307 738.384 126.698 738.191 126.172C737.999 125.646 737.715 125.234 737.34 124.937C736.965 124.641 736.504 124.492 735.957 124.492C735.415 124.492 734.957 124.635 734.582 124.922C734.212 125.208 733.928 125.615 733.73 126.141C733.532 126.667 733.433 127.286 733.433 128ZM749.101 134.234C747.888 134.234 746.838 133.977 745.953 133.461C745.073 132.94 744.393 132.216 743.914 131.289C743.435 130.357 743.195 129.276 743.195 128.047C743.195 126.807 743.435 125.724 743.914 124.797C744.393 123.865 745.073 123.141 745.953 122.625C746.838 122.104 747.888 121.844 749.101 121.844C750.315 121.844 751.362 122.104 752.242 122.625C753.127 123.141 753.81 123.865 754.289 124.797C754.768 125.724 755.008 126.807 755.008 128.047C755.008 129.276 754.768 130.357 754.289 131.289C753.81 132.216 753.127 132.94 752.242 133.461C751.362 133.977 750.315 134.234 749.101 134.234ZM749.117 131.656C749.669 131.656 750.13 131.5 750.5 131.188C750.87 130.87 751.148 130.437 751.336 129.891C751.528 129.344 751.625 128.721 751.625 128.023C751.625 127.326 751.528 126.703 751.336 126.156C751.148 125.609 750.87 125.177 750.5 124.859C750.13 124.542 749.669 124.383 749.117 124.383C748.56 124.383 748.091 124.542 747.711 124.859C747.336 125.177 747.052 125.609 746.859 126.156C746.672 126.703 746.578 127.326 746.578 128.023C746.578 128.721 746.672 129.344 746.859 129.891C747.052 130.437 747.336 130.87 747.711 131.188C748.091 131.5 748.56 131.656 749.117 131.656ZM762.176 134.234C760.946 134.234 759.889 133.974 759.004 133.453C758.124 132.927 757.446 132.198 756.972 131.266C756.504 130.333 756.269 129.26 756.269 128.047C756.269 126.818 756.506 125.74 756.98 124.812C757.459 123.88 758.139 123.154 759.019 122.633C759.9 122.107 760.946 121.844 762.16 121.844C763.207 121.844 764.124 122.034 764.91 122.414C765.696 122.794 766.319 123.328 766.777 124.016C767.235 124.703 767.488 125.51 767.535 126.438H764.394C764.306 125.839 764.071 125.357 763.691 124.992C763.316 124.622 762.824 124.437 762.215 124.437C761.699 124.437 761.249 124.578 760.863 124.859C760.483 125.135 760.186 125.539 759.972 126.07C759.759 126.602 759.652 127.245 759.652 128C759.652 128.766 759.756 129.417 759.965 129.953C760.178 130.49 760.478 130.898 760.863 131.18C761.249 131.461 761.699 131.602 762.215 131.602C762.595 131.602 762.936 131.523 763.238 131.367C763.545 131.211 763.798 130.984 763.996 130.687C764.199 130.385 764.332 130.023 764.394 129.602H767.535C767.483 130.518 767.233 131.326 766.785 132.023C766.342 132.716 765.73 133.258 764.949 133.648C764.168 134.039 763.243 134.234 762.176 134.234ZM772.576 127.063V134H769.248V118H772.482V124.117H772.623C772.894 123.409 773.331 122.854 773.935 122.453C774.539 122.047 775.297 121.844 776.209 121.844C777.042 121.844 777.769 122.026 778.388 122.391C779.013 122.75 779.498 123.268 779.842 123.945C780.191 124.617 780.362 125.422 780.357 126.359V134H777.029V126.953C777.034 126.214 776.847 125.638 776.467 125.227C776.092 124.815 775.566 124.609 774.888 124.609C774.435 124.609 774.034 124.706 773.685 124.898C773.342 125.091 773.071 125.372 772.873 125.742C772.68 126.107 772.581 126.547 772.576 127.063ZM788.168 127.586C788.168 129.529 787.907 131.315 787.386 132.945C786.871 134.576 786.079 136.086 785.011 137.477H781.832C782.238 136.961 782.616 136.331 782.965 135.586C783.314 134.841 783.618 134.029 783.879 133.148C784.139 132.263 784.342 131.346 784.488 130.398C784.634 129.451 784.707 128.513 784.707 127.586C784.707 126.352 784.579 125.107 784.324 123.852C784.074 122.591 783.73 121.424 783.293 120.352C782.86 119.273 782.373 118.391 781.832 117.703H785.011C786.079 119.094 786.871 120.604 787.386 122.234C787.907 123.865 788.168 125.648 788.168 127.586Z" fill="black"/>
<path d="M416.968 84.296H418.68V84.824C418.68 87.416 417.368 89.736 414.552 90.568L413.544 88.904C415.944 88.2 416.968 86.504 416.968 84.824V84.296ZM417.368 84.296H419.096V84.824C419.096 86.344 420.12 87.912 422.488 88.552L421.528 90.184C418.696 89.432 417.368 87.256 417.368 84.824V84.296ZM414.056 83.112H422.008V84.776H414.056V83.112ZM416.968 81.56H419.096V83.816H416.968V81.56ZM421.624 85.528H424.44V87.256H421.624V85.528ZM423.912 81.608H426.04V91.688H423.912V81.608ZM419.992 90.856H421.8V91.08C421.8 93.528 419.784 95.848 416.088 96.376L415.32 94.712C418.424 94.264 419.992 92.52 419.992 91.08V90.856ZM420.36 90.856H422.168V91.08C422.168 92.616 423.672 94.28 426.856 94.712L426.056 96.376C422.376 95.832 420.36 93.64 420.36 91.08V90.856ZM435.063 85.544H438.871V87.24H435.063V85.544ZM438.327 81.624H440.455V92.552H438.327V81.624ZM430.647 94.472H440.775V96.168H430.647V94.472ZM430.647 91.48H432.791V95.448H430.647V91.48ZM428.679 82.584H430.791V84.84H433.607V82.584H435.687V90.232H428.679V82.584ZM430.791 86.456V88.552H433.607V86.456H430.791ZM453.51 81.608H455.494V96.424H453.51V81.608ZM451.878 87.336H454.23V89.048H451.878V87.336ZM450.63 81.832H452.582V95.752H450.63V81.832ZM443.878 84.344H445.286V85.72C445.286 88.44 445.11 91.576 443.254 93.128L442.102 91.704C443.75 90.28 443.878 87.816 443.878 85.72V84.344ZM444.31 84.344H445.686V85.72C445.686 87.656 445.75 90.264 447.446 91.832L446.454 93.304C444.438 91.656 444.31 88.232 444.31 85.72V84.344ZM447.206 84.344H448.582V85.72C448.582 88.296 448.438 91.656 446.454 93.304L445.446 91.832C447.158 90.248 447.206 87.704 447.206 85.72V84.344ZM447.606 84.344H449.014V85.72C449.014 87.848 449.142 90.28 450.79 91.704L449.638 93.128C447.798 91.576 447.606 88.472 447.606 85.72V84.344ZM442.598 83.256H446.278V84.936H442.598V83.256ZM446.63 83.256H450.086V84.936H446.63V83.256ZM470.443 81.592H472.587V96.456H470.443V81.592ZM464.603 82.632C466.843 82.632 468.491 84.68 468.491 87.912C468.491 91.176 466.843 93.224 464.603 93.224C462.363 93.224 460.715 91.176 460.715 87.912C460.715 84.68 462.363 82.632 464.603 82.632ZM464.603 84.568C463.499 84.568 462.747 85.736 462.747 87.912C462.747 90.12 463.499 91.304 464.603 91.304C465.707 91.304 466.443 90.12 466.443 87.912C466.443 85.736 465.707 84.568 464.603 84.568ZM485.018 81.592H487.13V96.456H485.018V81.592ZM482.474 86.808H485.258V88.536H482.474V86.808ZM475.37 91.384H476.554C479.002 91.384 480.826 91.352 482.922 91.016L483.114 92.712C480.97 93.048 479.05 93.112 476.554 93.112H475.37V91.384ZM475.37 82.84H482.234V84.568H477.482V91.928H475.37V82.84ZM477.002 86.968H481.722V88.632H477.002V86.968ZM489.513 91.224H490.569C492.361 91.224 493.945 91.176 495.785 90.856L495.961 92.568C494.057 92.92 492.425 92.968 490.569 92.968H489.513V91.224ZM489.497 83.064H494.729V88.728H491.577V91.896H489.513V87.064H492.681V84.744H489.497V83.064ZM499.817 81.608H501.833V96.424H499.817V81.608ZM495.337 86.648H497.641V88.392H495.337V86.648ZM496.809 81.88H498.777V95.72H496.809V81.88ZM513.688 81.592H515.832V96.456H513.688V81.592ZM507.848 82.632C510.088 82.632 511.736 84.68 511.736 87.912C511.736 91.176 510.088 93.224 507.848 93.224C505.608 93.224 503.96 91.176 503.96 87.912C503.96 84.68 505.608 82.632 507.848 82.632ZM507.848 84.568C506.744 84.568 505.992 85.736 505.992 87.912C505.992 90.12 506.744 91.304 507.848 91.304C508.952 91.304 509.688 90.12 509.688 87.912C509.688 85.736 508.952 84.568 507.848 84.568ZM525.766 83.528H528.71V85.24H525.766V83.528ZM525.766 86.392H528.71V88.088H525.766V86.392ZM521.334 82.456H523.046V84.152C523.046 87.224 521.798 89.88 518.998 90.92L517.862 89.256C520.31 88.392 521.334 86.312 521.334 84.152V82.456ZM521.782 82.456H523.494V84.152C523.494 86.184 524.454 88.216 526.79 89.096L525.622 90.744C522.998 89.704 521.782 87.096 521.782 84.152V82.456ZM528.214 81.624H530.342V92.584H528.214V81.624ZM520.534 94.472H530.662V96.168H520.534V94.472ZM520.534 91.576H522.678V95.544H520.534V91.576ZM536.616 90.3352C536.616 88.9261 536.804 87.6288 537.179 86.4432C537.558 85.2576 538.135 84.1591 538.912 83.1477H541.224C540.929 83.5227 540.654 83.9811 540.4 84.5227C540.147 85.0606 539.925 85.6515 539.736 86.2955C539.546 86.9394 539.398 87.6061 539.292 88.2955C539.186 88.9811 539.133 89.661 539.133 90.3352C539.133 91.233 539.224 92.1402 539.406 93.0568C539.592 93.9697 539.842 94.8182 540.156 95.6023C540.474 96.3864 540.83 97.0284 541.224 97.5284H538.912C538.135 96.517 537.558 95.4186 537.179 94.233C536.804 93.0473 536.616 91.7481 536.616 90.3352ZM542.735 82.936H549.855V92.904H542.735V82.936ZM547.775 84.6H544.831V91.224H547.775V84.6ZM552.159 81.592H554.303V96.456H552.159V81.592ZM566.67 81.608H568.798V96.424H566.67V81.608ZM557.198 83.016H559.31V92.216H557.198V83.016ZM557.198 90.968H558.51C560.67 90.968 563.07 90.808 565.518 90.328L565.758 92.088C563.214 92.616 560.766 92.776 558.51 92.776H557.198V90.968ZM571.245 82.92H573.245V86.248H575.133V82.92H577.101V92.92H571.245V82.92ZM573.245 87.912V91.224H575.133V87.912H573.245ZM581.533 81.608H583.565V96.424H581.533V81.608ZM579.709 87.256H582.173V88.968H579.709V87.256ZM578.285 81.832H580.285V95.752H578.285V81.832ZM595.419 81.608H597.563V96.424H595.419V81.608ZM588.891 85.448H590.571V86.216C590.571 89.352 589.179 92.504 586.443 93.688L585.307 92.056C587.739 90.968 588.891 88.456 588.891 86.216V85.448ZM589.355 85.448H591.019V86.216C591.019 88.344 592.187 90.776 594.635 91.816L593.499 93.448C590.763 92.312 589.355 89.256 589.355 86.216V85.448ZM585.803 84.024H594.043V85.704H585.803V84.024ZM588.891 81.944H591.019V84.888H588.891V81.944ZM608.423 83.3636V95H605.963V85.6989H605.895L603.23 87.3693V85.1875L606.11 83.3636H608.423ZM614.987 89.1818C614.987 90.5947 614.797 91.8939 614.419 93.0795C614.044 94.2652 613.468 95.3636 612.691 96.375H610.379C610.674 96 610.949 95.5417 611.203 95C611.457 94.4583 611.678 93.8674 611.868 93.2273C612.057 92.5833 612.205 91.9167 612.311 91.2273C612.417 90.5379 612.47 89.8561 612.47 89.1818C612.47 88.2841 612.377 87.3788 612.191 86.4659C612.01 85.5492 611.76 84.7008 611.441 83.9205C611.127 83.1364 610.773 82.4943 610.379 81.9943H612.691C613.468 83.0057 614.044 84.1042 614.419 85.2898C614.797 86.4754 614.987 87.7727 614.987 89.1818Z" fill="black"/>
<path d="M415.336 125.84H425.512V127.536H415.336V125.84ZM413.64 128.992H427.064V130.704H413.64V128.992ZM419.24 129.984H421.352V135.408H419.24V129.984ZM415.336 121.392H425.368V123.088H417.512V126.656H415.336V121.392ZM435.063 124.544H438.871V126.24H435.063V124.544ZM438.327 120.624H440.455V131.552H438.327V120.624ZM430.647 133.472H440.775V135.168H430.647V133.472ZM430.647 130.48H432.791V134.448H430.647V130.48ZM428.679 121.584H430.791V123.84H433.607V121.584H435.687V129.232H428.679V121.584ZM430.791 125.456V127.552H433.607V125.456H430.791ZM453.51 120.608H455.494V135.424H453.51V120.608ZM451.878 126.336H454.23V128.048H451.878V126.336ZM450.63 120.832H452.582V134.752H450.63V120.832ZM443.878 123.344H445.286V124.72C445.286 127.44 445.11 130.576 443.254 132.128L442.102 130.704C443.75 129.28 443.878 126.816 443.878 124.72V123.344ZM444.31 123.344H445.686V124.72C445.686 126.656 445.75 129.264 447.446 130.832L446.454 132.304C444.438 130.656 444.31 127.232 444.31 124.72V123.344ZM447.206 123.344H448.582V124.72C448.582 127.296 448.438 130.656 446.454 132.304L445.446 130.832C447.158 129.248 447.206 126.704 447.206 124.72V123.344ZM447.606 123.344H449.014V124.72C449.014 126.848 449.142 129.28 450.79 130.704L449.638 132.128C447.798 130.576 447.606 127.472 447.606 124.72V123.344ZM442.598 122.256H446.278V123.936H442.598V122.256ZM446.63 122.256H450.086V123.936H446.63V122.256ZM470.443 120.592H472.587V135.456H470.443V120.592ZM464.603 121.632C466.843 121.632 468.491 123.68 468.491 126.912C468.491 130.176 466.843 132.224 464.603 132.224C462.363 132.224 460.715 130.176 460.715 126.912C460.715 123.68 462.363 121.632 464.603 121.632ZM464.603 123.568C463.499 123.568 462.747 124.736 462.747 126.912C462.747 129.12 463.499 130.304 464.603 130.304C465.707 130.304 466.443 129.12 466.443 126.912C466.443 124.736 465.707 123.568 464.603 123.568ZM485.018 120.592H487.13V135.456H485.018V120.592ZM482.474 125.808H485.258V127.536H482.474V125.808ZM475.37 130.384H476.554C479.002 130.384 480.826 130.352 482.922 130.016L483.114 131.712C480.97 132.048 479.05 132.112 476.554 132.112H475.37V130.384ZM475.37 121.84H482.234V123.568H477.482V130.928H475.37V121.84ZM477.002 125.968H481.722V127.632H477.002V125.968ZM489.513 130.224H490.569C492.361 130.224 493.945 130.176 495.785 129.856L495.961 131.568C494.057 131.92 492.425 131.968 490.569 131.968H489.513V130.224ZM489.497 122.064H494.729V127.728H491.577V130.896H489.513V126.064H492.681V123.744H489.497V122.064ZM499.817 120.608H501.833V135.424H499.817V120.608ZM495.337 125.648H497.641V127.392H495.337V125.648ZM496.809 120.88H498.777V134.72H496.809V120.88ZM513.688 120.592H515.832V135.456H513.688V120.592ZM507.848 121.632C510.088 121.632 511.736 123.68 511.736 126.912C511.736 130.176 510.088 132.224 507.848 132.224C505.608 132.224 503.96 130.176 503.96 126.912C503.96 123.68 505.608 121.632 507.848 121.632ZM507.848 123.568C506.744 123.568 505.992 124.736 505.992 126.912C505.992 129.12 506.744 130.304 507.848 130.304C508.952 130.304 509.688 129.12 509.688 126.912C509.688 124.736 508.952 123.568 507.848 123.568ZM525.766 122.528H528.71V124.24H525.766V122.528ZM525.766 125.392H528.71V127.088H525.766V125.392ZM521.334 121.456H523.046V123.152C523.046 126.224 521.798 128.88 518.998 129.92L517.862 128.256C520.31 127.392 521.334 125.312 521.334 123.152V121.456ZM521.782 121.456H523.494V123.152C523.494 125.184 524.454 127.216 526.79 128.096L525.622 129.744C522.998 128.704 521.782 126.096 521.782 123.152V121.456ZM528.214 120.624H530.342V131.584H528.214V120.624ZM520.534 133.472H530.662V135.168H520.534V133.472ZM520.534 130.576H522.678V134.544H520.534V130.576ZM536.616 129.335C536.616 127.926 536.804 126.629 537.179 125.443C537.558 124.258 538.135 123.159 538.912 122.148H541.224C540.929 122.523 540.654 122.981 540.4 123.523C540.147 124.061 539.925 124.652 539.736 125.295C539.546 125.939 539.398 126.606 539.292 127.295C539.186 127.981 539.133 128.661 539.133 129.335C539.133 130.233 539.224 131.14 539.406 132.057C539.592 132.97 539.842 133.818 540.156 134.602C540.474 135.386 540.83 136.028 541.224 136.528H538.912C538.135 135.517 537.558 134.419 537.179 133.233C536.804 132.047 536.616 130.748 536.616 129.335ZM542.735 121.936H549.855V131.904H542.735V121.936ZM547.775 123.6H544.831V130.224H547.775V123.6ZM552.159 120.592H554.303V135.456H552.159V120.592ZM566.67 120.608H568.798V135.424H566.67V120.608ZM557.198 122.016H559.31V131.216H557.198V122.016ZM557.198 129.968H558.51C560.67 129.968 563.07 129.808 565.518 129.328L565.758 131.088C563.214 131.616 560.766 131.776 558.51 131.776H557.198V129.968ZM571.245 121.92H573.245V125.248H575.133V121.92H577.101V131.92H571.245V121.92ZM573.245 126.912V130.224H575.133V126.912H573.245ZM581.533 120.608H583.565V135.424H581.533V120.608ZM579.709 126.256H582.173V127.968H579.709V126.256ZM578.285 120.832H580.285V134.752H578.285V120.832ZM595.419 120.608H597.563V135.424H595.419V120.608ZM588.891 124.448H590.571V125.216C590.571 128.352 589.179 131.504 586.443 132.688L585.307 131.056C587.739 129.968 588.891 127.456 588.891 125.216V124.448ZM589.355 124.448H591.019V125.216C591.019 127.344 592.187 129.776 594.635 130.816L593.499 132.448C590.763 131.312 589.355 128.256 589.355 125.216V124.448ZM585.803 123.024H594.043V124.704H585.803V123.024ZM588.891 120.944H591.019V123.888H588.891V120.944ZM603.36 134V132.227L607.502 128.392C607.855 128.051 608.15 127.744 608.389 127.472C608.631 127.199 608.815 126.932 608.94 126.67C609.065 126.405 609.127 126.119 609.127 125.812C609.127 125.472 609.05 125.178 608.895 124.932C608.739 124.682 608.527 124.491 608.258 124.358C607.989 124.222 607.684 124.153 607.343 124.153C606.987 124.153 606.677 124.225 606.412 124.369C606.146 124.513 605.942 124.72 605.798 124.989C605.654 125.258 605.582 125.578 605.582 125.949H603.247C603.247 125.187 603.419 124.527 603.764 123.966C604.109 123.405 604.591 122.972 605.213 122.665C605.834 122.358 606.55 122.205 607.36 122.205C608.194 122.205 608.919 122.352 609.537 122.648C610.158 122.939 610.641 123.345 610.985 123.864C611.33 124.383 611.502 124.977 611.502 125.648C611.502 126.087 611.415 126.521 611.241 126.949C611.071 127.377 610.766 127.852 610.326 128.375C609.887 128.894 609.268 129.517 608.468 130.244L606.77 131.909V131.989H611.656V134H603.36ZM617.237 128.182C617.237 129.595 617.047 130.894 616.669 132.08C616.294 133.265 615.718 134.364 614.941 135.375H612.629C612.924 135 613.199 134.542 613.453 134C613.707 133.458 613.928 132.867 614.118 132.227C614.307 131.583 614.455 130.917 614.561 130.227C614.667 129.538 614.72 128.856 614.72 128.182C614.72 127.284 614.627 126.379 614.441 125.466C614.26 124.549 614.01 123.701 613.691 122.92C613.377 122.136 613.023 121.494 612.629 120.994H614.941C615.718 122.006 616.294 123.104 616.669 124.29C617.047 125.475 617.237 126.773 617.237 128.182Z" fill="black"/>
<path d="M419.48 164.584H421.928V166.312H419.48V164.584ZM416.312 160.888H417.944V163.384C417.944 166.744 417.016 170.024 414.648 171.48L413.368 169.88C415.544 168.536 416.312 165.896 416.312 163.384V160.888ZM416.776 160.888H418.376V163.288C418.376 165.704 419 168.168 421.016 169.48L419.864 171.144C417.512 169.688 416.776 166.488 416.776 163.288V160.888ZM424.344 159.608H426.376V174.424H424.344V159.608ZM421.336 159.832H423.32V173.752H421.336V159.832ZM435.063 163.544H438.871V165.24H435.063V163.544ZM438.327 159.624H440.455V170.552H438.327V159.624ZM430.647 172.472H440.775V174.168H430.647V172.472ZM430.647 169.48H432.791V173.448H430.647V169.48ZM428.679 160.584H430.791V162.84H433.607V160.584H435.687V168.232H428.679V160.584ZM430.791 164.456V166.552H433.607V164.456H430.791ZM453.51 159.608H455.494V174.424H453.51V159.608ZM451.878 165.336H454.23V167.048H451.878V165.336ZM450.63 159.832H452.582V173.752H450.63V159.832ZM443.878 162.344H445.286V163.72C445.286 166.44 445.11 169.576 443.254 171.128L442.102 169.704C443.75 168.28 443.878 165.816 443.878 163.72V162.344ZM444.31 162.344H445.686V163.72C445.686 165.656 445.75 168.264 447.446 169.832L446.454 171.304C444.438 169.656 444.31 166.232 444.31 163.72V162.344ZM447.206 162.344H448.582V163.72C448.582 166.296 448.438 169.656 446.454 171.304L445.446 169.832C447.158 168.248 447.206 165.704 447.206 163.72V162.344ZM447.606 162.344H449.014V163.72C449.014 165.848 449.142 168.28 450.79 169.704L449.638 171.128C447.798 169.576 447.606 166.472 447.606 163.72V162.344ZM442.598 161.256H446.278V162.936H442.598V161.256ZM446.63 161.256H450.086V162.936H446.63V161.256ZM470.443 159.592H472.587V174.456H470.443V159.592ZM464.603 160.632C466.843 160.632 468.491 162.68 468.491 165.912C468.491 169.176 466.843 171.224 464.603 171.224C462.363 171.224 460.715 169.176 460.715 165.912C460.715 162.68 462.363 160.632 464.603 160.632ZM464.603 162.568C463.499 162.568 462.747 163.736 462.747 165.912C462.747 168.12 463.499 169.304 464.603 169.304C465.707 169.304 466.443 168.12 466.443 165.912C466.443 163.736 465.707 162.568 464.603 162.568ZM485.018 159.592H487.13V174.456H485.018V159.592ZM482.474 164.808H485.258V166.536H482.474V164.808ZM475.37 169.384H476.554C479.002 169.384 480.826 169.352 482.922 169.016L483.114 170.712C480.97 171.048 479.05 171.112 476.554 171.112H475.37V169.384ZM475.37 160.84H482.234V162.568H477.482V169.928H475.37V160.84ZM477.002 164.968H481.722V166.632H477.002V164.968ZM489.513 169.224H490.569C492.361 169.224 493.945 169.176 495.785 168.856L495.961 170.568C494.057 170.92 492.425 170.968 490.569 170.968H489.513V169.224ZM489.497 161.064H494.729V166.728H491.577V169.896H489.513V165.064H492.681V162.744H489.497V161.064ZM499.817 159.608H501.833V174.424H499.817V159.608ZM495.337 164.648H497.641V166.392H495.337V164.648ZM496.809 159.88H498.777V173.72H496.809V159.88ZM513.688 159.592H515.832V174.456H513.688V159.592ZM507.848 160.632C510.088 160.632 511.736 162.68 511.736 165.912C511.736 169.176 510.088 171.224 507.848 171.224C505.608 171.224 503.96 169.176 503.96 165.912C503.96 162.68 505.608 160.632 507.848 160.632ZM507.848 162.568C506.744 162.568 505.992 163.736 505.992 165.912C505.992 168.12 506.744 169.304 507.848 169.304C508.952 169.304 509.688 168.12 509.688 165.912C509.688 163.736 508.952 162.568 507.848 162.568ZM525.766 161.528H528.71V163.24H525.766V161.528ZM525.766 164.392H528.71V166.088H525.766V164.392ZM521.334 160.456H523.046V162.152C523.046 165.224 521.798 167.88 518.998 168.92L517.862 167.256C520.31 166.392 521.334 164.312 521.334 162.152V160.456ZM521.782 160.456H523.494V162.152C523.494 164.184 524.454 166.216 526.79 167.096L525.622 168.744C522.998 167.704 521.782 165.096 521.782 162.152V160.456ZM528.214 159.624H530.342V170.584H528.214V159.624ZM520.534 172.472H530.662V174.168H520.534V172.472ZM520.534 169.576H522.678V173.544H520.534V169.576ZM536.616 168.335C536.616 166.926 536.804 165.629 537.179 164.443C537.558 163.258 538.135 162.159 538.912 161.148H541.224C540.929 161.523 540.654 161.981 540.4 162.523C540.147 163.061 539.925 163.652 539.736 164.295C539.546 164.939 539.398 165.606 539.292 166.295C539.186 166.981 539.133 167.661 539.133 168.335C539.133 169.233 539.224 170.14 539.406 171.057C539.592 171.97 539.842 172.818 540.156 173.602C540.474 174.386 540.83 175.028 541.224 175.528H538.912C538.135 174.517 537.558 173.419 537.179 172.233C536.804 171.047 536.616 169.748 536.616 168.335ZM542.735 160.936H549.855V170.904H542.735V160.936ZM547.775 162.6H544.831V169.224H547.775V162.6ZM552.159 159.592H554.303V174.456H552.159V159.592ZM566.67 159.608H568.798V174.424H566.67V159.608ZM557.198 161.016H559.31V170.216H557.198V161.016ZM557.198 168.968H558.51C560.67 168.968 563.07 168.808 565.518 168.328L565.758 170.088C563.214 170.616 560.766 170.776 558.51 170.776H557.198V168.968ZM571.245 160.92H573.245V164.248H575.133V160.92H577.101V170.92H571.245V160.92ZM573.245 165.912V169.224H575.133V165.912H573.245ZM581.533 159.608H583.565V174.424H581.533V159.608ZM579.709 165.256H582.173V166.968H579.709V165.256ZM578.285 159.832H580.285V173.752H578.285V159.832ZM595.419 159.608H597.563V174.424H595.419V159.608ZM588.891 163.448H590.571V164.216C590.571 167.352 589.179 170.504 586.443 171.688L585.307 170.056C587.739 168.968 588.891 166.456 588.891 164.216V163.448ZM589.355 163.448H591.019V164.216C591.019 166.344 592.187 168.776 594.635 169.816L593.499 171.448C590.763 170.312 589.355 167.256 589.355 164.216V163.448ZM585.803 162.024H594.043V163.704H585.803V162.024ZM588.891 159.944H591.019V162.888H588.891V159.944ZM607.662 173.159C606.813 173.159 606.057 173.013 605.395 172.722C604.735 172.426 604.215 172.021 603.832 171.506C603.453 170.987 603.258 170.388 603.247 169.71H605.724C605.739 169.994 605.832 170.244 606.002 170.46C606.177 170.672 606.408 170.837 606.696 170.955C606.984 171.072 607.307 171.131 607.667 171.131C608.042 171.131 608.374 171.064 608.662 170.932C608.949 170.799 609.175 170.616 609.338 170.381C609.501 170.146 609.582 169.875 609.582 169.568C609.582 169.258 609.495 168.983 609.321 168.744C609.15 168.502 608.904 168.312 608.582 168.176C608.264 168.04 607.885 167.972 607.446 167.972H606.36V166.165H607.446C607.817 166.165 608.145 166.1 608.429 165.972C608.716 165.843 608.94 165.665 609.099 165.438C609.258 165.206 609.338 164.938 609.338 164.631C609.338 164.339 609.268 164.083 609.127 163.864C608.991 163.64 608.798 163.466 608.548 163.341C608.302 163.216 608.014 163.153 607.684 163.153C607.351 163.153 607.046 163.214 606.77 163.335C606.493 163.453 606.271 163.621 606.105 163.841C605.938 164.061 605.849 164.318 605.838 164.614H603.48C603.491 163.943 603.682 163.352 604.054 162.841C604.425 162.33 604.925 161.93 605.554 161.642C606.186 161.35 606.9 161.205 607.696 161.205C608.499 161.205 609.201 161.35 609.804 161.642C610.406 161.934 610.874 162.328 611.207 162.824C611.544 163.316 611.711 163.869 611.707 164.483C611.711 165.134 611.508 165.678 611.099 166.114C610.694 166.549 610.165 166.826 609.514 166.943V167.034C610.37 167.144 611.021 167.441 611.468 167.926C611.919 168.407 612.143 169.009 612.139 169.733C612.143 170.396 611.951 170.985 611.565 171.5C611.182 172.015 610.654 172.42 609.98 172.716C609.306 173.011 608.533 173.159 607.662 173.159ZM617.706 167.182C617.706 168.595 617.516 169.894 617.137 171.08C616.762 172.265 616.187 173.364 615.41 174.375H613.098C613.393 174 613.668 173.542 613.921 173C614.175 172.458 614.397 171.867 614.586 171.227C614.776 170.583 614.923 169.917 615.029 169.227C615.136 168.538 615.189 167.856 615.189 167.182C615.189 166.284 615.096 165.379 614.91 164.466C614.728 163.549 614.478 162.701 614.16 161.92C613.846 161.136 613.492 160.494 613.098 159.994H615.41C616.187 161.006 616.762 162.104 617.137 163.29C617.516 164.475 617.706 165.773 617.706 167.182Z" fill="black"/>
<path d="M645 91L649.773 81L638.226 81L643 91L645 91ZM643 165L638.226 175L649.774 175L645 165L643 165ZM643 90L643 166L645 166L645 90L643 90Z" fill="black"/>
</svg>
