<svg width="61" height="42" viewBox="0 0 61 42" fill="none" xmlns="http://www.w3.org/2000/svg">
<path d="M30.1067 35.388C32.16 40.9756 37.9467 42 41.4933 42C48.5867 42 52.7867 35.8537 55.4 29.4279C57.5467 24.0266 61 11.7339 61 6.23947C61 0.558761 58.1067 0 57.2667 0C55.0267 0 52.9734 2.23503 52.9734 4.09756C52.9734 5.21508 53.6267 5.86696 54.0934 6.23947C54.9334 7.07761 57.36 9.59202 57.36 14.4346C57.36 17.6009 54.7467 26.3548 52.7867 30.7317C50.1734 36.4124 46.72 40.1375 41.8667 40.1375C36.64 40.1375 34.96 36.2262 34.96 31.9424C34.96 29.2417 35.8 25.9823 36.1734 24.3991L40.0934 8.75388C40.56 6.89135 41.4 3.63193 41.4 3.25943C41.4 1.86253 40.28 0.931267 38.88 0.931267C36.1734 0.931267 35.52 3.25943 34.96 5.49446C34.0267 9.12638 30.1067 24.8647 29.7334 26.9135C29.36 28.4967 29.36 29.5211 29.36 31.5698C29.36 33.8049 26.3734 37.3437 26.28 37.5299C25.2534 38.5543 23.76 40.1375 20.8667 40.1375C13.4934 40.1375 13.4934 33.153 13.4934 31.5698C13.4934 28.5898 14.1467 24.4922 18.3467 13.4102C19.4667 10.5233 19.9334 9.31264 19.9334 7.45011C19.9334 3.5388 17.1333 0 12.56 0C3.97335 0 0.52002 13.5033 0.52002 14.2483C0.52002 14.6208 0.893348 15.0865 1.54668 15.0865C2.38668 15.0865 2.48002 14.714 2.85335 13.4102C5.18668 5.21508 8.82669 1.86253 12.28 1.86253C13.2133 1.86253 14.7067 1.95565 14.7067 4.9357C14.7067 5.40133 14.7067 7.35698 13.12 11.4545C8.73335 23.0953 7.80002 26.9135 7.80002 30.4523C7.80002 40.2306 15.8267 42 20.5867 42C22.1734 42 26.3734 42 30.1067 35.388Z" fill="black"/>
</svg>
