<svg width="197" height="150" viewBox="0 0 197 150" fill="none" xmlns="http://www.w3.org/2000/svg">
<g clip-path="url(#clip0_1335_1857)">
<path d="M21.3503 18.7573C21.2242 18.415 21.2062 18.415 20.7919 18.415H18V18.9374H18.3602C19.6571 18.9374 19.7112 19.1175 19.7112 19.784V28.8623C19.7112 29.3486 19.7112 30.1952 18 30.1952V30.7175C18.4683 30.6815 19.423 30.6815 19.9273 30.6815C20.4317 30.6815 21.3863 30.6815 21.8547 30.7175V30.1952C20.1435 30.1952 20.1435 29.3486 20.1435 28.8623V19.0275H20.1615L24.5025 30.3753C24.5745 30.5734 24.6286 30.7175 24.8087 30.7175C24.9708 30.7175 25.0068 30.6275 25.1149 30.3573L29.4919 18.9374H29.51V29.3486C29.51 30.0151 29.4559 30.1952 28.159 30.1952H27.7988V30.7175C28.2131 30.6815 29.6541 30.6815 30.1764 30.6815C30.6988 30.6815 32.1398 30.6815 32.5541 30.7175V30.1952H32.1938C30.8969 30.1952 30.8429 30.0151 30.8429 29.3486V19.784C30.8429 19.1175 30.8969 18.9374 32.1938 18.9374H32.5541V18.415H29.7621C29.3659 18.415 29.3478 18.4331 29.2037 18.7753L25.277 29.0244L21.3503 18.7573Z" fill="black"/>
<path d="M37.115 23.2062C36.1963 22.972 35.3858 22.0714 35.3858 20.9186C35.3858 19.6577 36.3945 18.523 37.7995 18.523C40.7535 18.523 41.1498 21.441 41.2578 22.2155C41.2939 22.4317 41.2939 22.5037 41.474 22.5037C41.6721 22.5037 41.6721 22.4136 41.6721 22.0894V18.4509C41.6721 18.1267 41.6721 18.0366 41.492 18.0366C41.438 18.0366 41.3659 18.0366 41.2398 18.2708L40.6454 19.3695C39.7808 18.2528 38.592 18.0366 37.7995 18.0366C35.8001 18.0366 34.3411 19.6397 34.3411 21.477C34.3411 22.3416 34.6473 23.1341 35.3137 23.8546C35.9442 24.5571 36.5746 24.7192 37.8535 25.0435C38.4839 25.1876 39.4746 25.4397 39.7268 25.5478C40.5734 25.9621 41.1318 26.9348 41.1318 27.9435C41.1318 29.2944 40.1771 30.5733 38.6821 30.5733C37.8715 30.5733 36.7547 30.3752 35.8721 29.6006C34.8274 28.664 34.7554 27.3671 34.7373 26.7727C34.7193 26.6286 34.5752 26.6286 34.5392 26.6286C34.3411 26.6286 34.3411 26.7186 34.3411 27.0428V30.6814C34.3411 31.0056 34.3411 31.0956 34.5212 31.0956C34.6293 31.0956 34.6473 31.0596 34.7734 30.8435C34.8454 30.6994 35.2237 30.0329 35.3678 29.7627C36.0162 30.4832 37.151 31.0956 38.7001 31.0956C40.7175 31.0956 42.1765 29.3845 42.1765 27.4031C42.1765 26.3043 41.7622 25.4938 41.2759 24.8994C40.6094 24.0888 39.7988 23.8907 39.0964 23.7105L37.115 23.2062Z" fill="black"/>
<path d="M54.6587 26.106H54.2624C53.8301 28.9159 53.3978 30.1948 50.3537 30.1948H47.904C47.1115 30.1948 47.0755 30.0687 47.0755 29.4743V24.6109H48.7146C50.4438 24.6109 50.6419 25.1693 50.6419 26.7184H51.0382V21.9811H50.6419C50.6419 23.5302 50.4438 24.0886 48.7146 24.0886H47.0755V19.6935C47.0755 19.0991 47.1115 18.973 47.904 18.973H50.2997C52.9475 18.973 53.5059 19.8737 53.7761 22.4675H54.1724L53.704 18.4507H43.9053V18.973H44.2655C45.5624 18.973 45.6165 19.1532 45.6165 19.8196V29.3482C45.6165 30.0147 45.5624 30.1948 44.2655 30.1948H43.9053V30.7172H53.9382L54.6587 26.106Z" fill="black"/>
<path d="M72.3283 24.8813C72.5805 24.8813 72.9047 24.8813 72.9047 24.5571C72.9047 24.2148 72.5985 24.2148 72.3283 24.2148H61.719C61.4668 24.2148 61.1426 24.2148 61.1426 24.5391C61.1426 24.8813 61.4488 24.8813 61.719 24.8813H72.3283ZM72.3283 28.2316C72.5805 28.2316 72.9047 28.2316 72.9047 27.9074C72.9047 27.5652 72.5985 27.5652 72.3283 27.5652H61.719C61.4668 27.5652 61.1426 27.5652 61.1426 27.8894C61.1426 28.2316 61.4488 28.2316 61.719 28.2316H72.3283Z" fill="black"/>
<path d="M89.473 6.98601C89.473 6.57172 89.473 6.55371 89.1128 6.55371C88.6805 7.04005 87.7798 7.70651 85.9246 7.70651V8.22887C86.3388 8.22887 87.2395 8.22887 88.2302 7.76055V17.145C88.2302 17.7935 88.1761 18.0096 86.591 18.0096H86.0326V18.532C86.519 18.496 88.2662 18.496 88.8606 18.496C89.455 18.496 91.1842 18.496 91.6705 18.532V18.0096H91.1121C89.5271 18.0096 89.473 17.7935 89.473 17.145V6.98601Z" fill="black"/>
<path d="M96.6971 25.854H80.6924V26.5745H96.6971V25.854Z" fill="black"/>
<path d="M94.0216 32.6618C94.2198 31.8873 94.508 31.3469 95.8769 31.2929C95.931 31.2929 96.1471 31.2749 96.1471 30.9686C96.1471 30.7705 95.985 30.7705 95.9129 30.7705C95.5527 30.7705 94.6341 30.8065 94.2738 30.8065H93.4092C93.157 30.8065 92.8328 30.7705 92.5806 30.7705C92.4726 30.7705 92.2564 30.7705 92.2564 31.1127C92.2564 31.2929 92.4005 31.2929 92.5266 31.2929C93.6074 31.3289 93.6794 31.7432 93.6794 32.0674C93.6794 32.2295 93.6614 32.2836 93.6074 32.5357L91.5719 40.6593L87.7173 31.0767C87.5912 30.7885 87.5732 30.7705 87.1769 30.7705H84.9794C84.6191 30.7705 84.457 30.7705 84.457 31.1127C84.457 31.2929 84.5831 31.2929 84.9254 31.2929C85.0154 31.2929 86.0781 31.2929 86.0781 31.455C86.0781 31.491 86.0421 31.6351 86.0241 31.6891L83.6285 41.2357C83.4123 42.1184 82.98 42.4966 81.7912 42.5507C81.7011 42.5507 81.521 42.5687 81.521 42.8929C81.521 43.073 81.7011 43.073 81.7552 43.073C82.1154 43.073 83.034 43.037 83.3943 43.037H84.2589C84.5111 43.037 84.8173 43.073 85.0694 43.073C85.1955 43.073 85.3937 43.073 85.3937 42.7308C85.3937 42.5687 85.2135 42.5507 85.1415 42.5507C84.5471 42.5326 83.9707 42.4246 83.9707 41.7761C83.9707 41.632 84.0067 41.4699 84.0427 41.3258L86.4744 31.6891C86.5825 31.8693 86.5825 31.9053 86.6545 32.0674L90.9415 42.7488C91.0316 42.9649 91.0676 43.073 91.2297 43.073C91.4098 43.073 91.4278 43.019 91.4999 42.7128L94.0216 32.6618Z" fill="black"/>
<path d="M118.317 1.30891C118.461 0.720498 118.725 0.432299 119.59 0.396274C119.71 0.396274 119.806 0.324224 119.806 0.168117C119.806 0.0960663 119.746 0 119.626 0C119.542 0 119.314 0.0360259 118.425 0.0360259C117.464 0.0360259 117.308 0 117.2 0C117.008 0 116.972 0.132092 116.972 0.228159C116.972 0.384266 117.128 0.396274 117.236 0.396274C117.969 0.42029 117.969 0.744514 117.969 0.912631C117.969 0.972673 117.969 1.03271 117.921 1.22485L116.6 6.48448L113.706 0.216149C113.61 -4.49022e-07 113.586 0 113.297 0H111.736C111.52 0 111.364 -2.24511e-08 111.364 0.228159C111.364 0.396274 111.508 0.396274 111.76 0.396274C111.856 0.396274 112.217 0.396274 112.493 0.468325L110.884 6.91678C110.74 7.5172 110.427 7.78138 109.623 7.8054C109.551 7.8054 109.407 7.81741 109.407 8.03355C109.407 8.10561 109.467 8.20167 109.587 8.20167C109.635 8.20167 109.911 8.16565 110.776 8.16565C111.724 8.16565 111.904 8.20167 112.013 8.20167C112.061 8.20167 112.241 8.20167 112.241 7.97351C112.241 7.82941 112.109 7.8054 112.025 7.8054C111.592 7.79339 111.232 7.72134 111.232 7.30105C111.232 7.24101 111.268 7.07289 111.268 7.06088L112.841 0.792548H112.853L116.191 7.98552C116.275 8.17765 116.287 8.20167 116.42 8.20167C116.588 8.20167 116.6 8.15364 116.648 7.9495L118.317 1.30891Z" fill="black"/>
<path d="M124.304 38.8229L126.484 33.0589H126.033C125.331 34.9322 123.421 36.1571 121.35 36.6974C120.972 36.7875 119.207 37.2558 115.748 37.2558H104.887L114.055 26.5024C114.181 26.3583 114.217 26.3043 114.217 26.2142C114.217 26.1782 114.217 26.1241 114.091 25.944L105.697 14.4701H115.568C117.982 14.4701 119.621 14.7222 119.783 14.7583C120.756 14.9024 122.323 15.2086 123.746 16.1092C124.196 16.3974 125.421 17.208 126.033 18.667H126.484L124.304 13.6055H103.013C102.599 13.6055 102.581 13.6235 102.527 13.7316C102.509 13.7856 102.509 14.1278 102.509 14.326L112.038 27.367L102.707 38.3005C102.527 38.5167 102.527 38.6068 102.527 38.6248C102.527 38.8229 102.689 38.8229 103.013 38.8229H124.304Z" fill="black"/>
<path d="M107.764 44.0715C107.764 43.8074 107.572 43.6152 107.296 43.6152C106.984 43.6152 106.636 43.9034 106.636 44.2637C106.636 44.5279 106.828 44.72 107.104 44.72C107.416 44.72 107.764 44.4318 107.764 44.0715ZM106.011 48.4786L105.363 50.1357C105.303 50.3159 105.243 50.46 105.243 50.6641C105.243 51.2525 105.699 51.6848 106.335 51.6848C107.5 51.6848 107.993 50.0037 107.993 49.8475C107.993 49.7275 107.896 49.6914 107.812 49.6914C107.668 49.6914 107.644 49.7755 107.608 49.8956C107.332 50.8562 106.84 51.3486 106.359 51.3486C106.215 51.3486 106.071 51.2885 106.071 50.9643C106.071 50.6761 106.155 50.46 106.311 50.0877C106.431 49.7635 106.552 49.4393 106.684 49.115L107.056 48.1424C107.164 47.8662 107.308 47.4939 107.308 47.2898C107.308 46.6894 106.828 46.2691 106.215 46.2691C105.05 46.2691 104.546 47.9502 104.546 48.1063C104.546 48.2144 104.63 48.2624 104.726 48.2624C104.882 48.2624 104.894 48.1904 104.93 48.0703C105.267 46.9295 105.819 46.6053 106.179 46.6053C106.347 46.6053 106.467 46.6653 106.467 47.0016C106.467 47.1217 106.455 47.2898 106.335 47.65L106.011 48.4786Z" fill="black"/>
<path d="M117.308 47.5661C117.488 47.5661 117.728 47.5661 117.728 47.2899C117.728 47.0137 117.44 47.0137 117.26 47.0137H109.707C109.526 47.0137 109.238 47.0137 109.238 47.2899C109.238 47.5661 109.478 47.5661 109.659 47.5661H117.308ZM117.26 50.1118C117.44 50.1118 117.728 50.1118 117.728 49.8356C117.728 49.5594 117.488 49.5594 117.308 49.5594H109.659C109.478 49.5594 109.238 49.5594 109.238 49.8356C109.238 50.1118 109.526 50.1118 109.707 50.1118H117.26Z" fill="black"/>
<path d="M122.224 43.9158C122.224 43.5916 122.2 43.5796 121.876 43.5796C121.383 44.0599 120.747 44.3481 119.606 44.3481V44.7444C119.93 44.7444 120.579 44.7444 121.275 44.4202V50.5804C121.275 51.0247 121.239 51.1688 120.099 51.1688H119.678V51.5651C120.171 51.5291 121.203 51.5291 121.744 51.5291C122.284 51.5291 123.329 51.5291 123.821 51.5651V51.1688H123.401C122.26 51.1688 122.224 51.0247 122.224 50.5804V43.9158Z" fill="black"/>
<path d="M133.373 35.0944C133.373 35.0403 133.373 35.0043 133.066 34.6981C131.265 32.8788 130.256 29.9068 130.256 26.2322C130.256 22.7378 131.103 19.7298 133.192 17.6043C133.373 17.4422 133.373 17.4061 133.373 17.3521C133.373 17.244 133.282 17.208 133.21 17.208C132.976 17.208 131.499 18.5049 130.617 20.2701C129.698 22.0894 129.284 24.0167 129.284 26.2322C129.284 27.8354 129.536 29.9788 130.473 31.9062C131.535 34.0677 133.012 35.2385 133.21 35.2385C133.282 35.2385 133.373 35.2025 133.373 35.0944Z" fill="black"/>
<path d="M139.114 32.7348C138.628 33.4193 137.926 34.0317 137.043 34.0317C136.827 34.0317 135.962 33.9957 135.692 33.1671C135.746 33.1851 135.836 33.1851 135.872 33.1851C136.413 33.1851 136.773 32.7168 136.773 32.3025C136.773 31.8882 136.431 31.7441 136.16 31.7441C135.872 31.7441 135.242 31.9603 135.242 32.8429C135.242 33.7615 136.016 34.392 137.043 34.392C138.844 34.392 140.664 32.7348 141.168 30.7354L142.933 23.7106C142.951 23.6205 142.987 23.5124 142.987 23.4044C142.987 23.1342 142.771 22.9541 142.501 22.9541C142.339 22.9541 141.96 23.0261 141.816 23.5665L140.483 28.8621C140.393 29.1864 140.393 29.2224 140.249 29.4205C139.889 29.9249 139.295 30.5373 138.43 30.5373C137.421 30.5373 137.331 29.5466 137.331 29.0603C137.331 28.0336 137.818 26.6466 138.304 25.3497C138.502 24.8273 138.61 24.5752 138.61 24.2149C138.61 23.4584 138.07 22.7739 137.187 22.7739C135.53 22.7739 134.864 25.3857 134.864 25.5298C134.864 25.6019 134.936 25.6919 135.062 25.6919C135.224 25.6919 135.242 25.6199 135.314 25.3677C135.746 23.8547 136.431 23.1342 137.133 23.1342C137.295 23.1342 137.601 23.1342 137.601 23.7286C137.601 24.1969 137.403 24.7193 137.133 25.4037C136.25 27.7634 136.25 28.3578 136.25 28.7901C136.25 30.5013 137.475 30.8975 138.376 30.8975C138.898 30.8975 139.547 30.7354 140.177 30.069L140.195 30.087C139.925 31.1497 139.745 31.8522 139.114 32.7348Z" fill="black"/>
<path d="M146.555 25.926C146.555 25.6619 146.363 25.4697 146.087 25.4697C145.775 25.4697 145.427 25.7579 145.427 26.1182C145.427 26.3824 145.619 26.5745 145.895 26.5745C146.207 26.5745 146.555 26.2863 146.555 25.926ZM144.802 30.3331L144.154 31.9902C144.094 32.1704 144.034 32.3145 144.034 32.5186C144.034 33.107 144.49 33.5393 145.126 33.5393C146.291 33.5393 146.784 31.8581 146.784 31.702C146.784 31.582 146.687 31.5459 146.603 31.5459C146.459 31.5459 146.435 31.63 146.399 31.7501C146.123 32.7107 145.631 33.2031 145.15 33.2031C145.006 33.2031 144.862 33.143 144.862 32.8188C144.862 32.5306 144.946 32.3145 145.102 31.9422C145.222 31.618 145.343 31.2938 145.475 30.9695L145.847 29.9969C145.955 29.7207 146.099 29.3484 146.099 29.1443C146.099 28.5439 145.619 28.1236 145.006 28.1236C143.842 28.1236 143.337 29.8047 143.337 29.9608C143.337 30.0689 143.421 30.1169 143.517 30.1169C143.673 30.1169 143.685 30.0449 143.721 29.9248C144.058 28.784 144.61 28.4598 144.97 28.4598C145.138 28.4598 145.258 28.5198 145.258 28.8561C145.258 28.9762 145.246 29.1443 145.126 29.5045L144.802 30.3331Z" fill="black"/>
<path d="M163.944 26.5745C164.25 26.5745 164.575 26.5745 164.575 26.2143C164.575 25.854 164.25 25.854 163.944 25.854H154.2C153.893 25.854 153.569 25.854 153.569 26.2143C153.569 26.5745 153.893 26.5745 154.2 26.5745H163.944Z" fill="black"/>
<path d="M175.693 18.2168L173.333 20.6665L173.622 20.9367L175.675 19.0814L177.747 20.9367L178.035 20.6665L175.693 18.2168Z" fill="black"/>
<path d="M174.824 32.7348C174.337 33.4193 173.635 34.0317 172.752 34.0317C172.536 34.0317 171.672 33.9957 171.401 33.1671C171.455 33.1851 171.545 33.1851 171.581 33.1851C172.122 33.1851 172.482 32.7168 172.482 32.3025C172.482 31.8882 172.14 31.7441 171.87 31.7441C171.581 31.7441 170.951 31.9603 170.951 32.8429C170.951 33.7615 171.726 34.392 172.752 34.392C174.554 34.392 176.373 32.7348 176.877 30.7354L178.642 23.7106C178.66 23.6205 178.696 23.5124 178.696 23.4044C178.696 23.1342 178.48 22.9541 178.21 22.9541C178.048 22.9541 177.67 23.0261 177.526 23.5665L176.193 28.8621C176.103 29.1864 176.103 29.2224 175.958 29.4205C175.598 29.9249 175.004 30.5373 174.139 30.5373C173.131 30.5373 173.04 29.5466 173.04 29.0603C173.04 28.0336 173.527 26.6466 174.013 25.3497C174.211 24.8273 174.319 24.5752 174.319 24.2149C174.319 23.4584 173.779 22.7739 172.896 22.7739C171.239 22.7739 170.573 25.3857 170.573 25.5298C170.573 25.6019 170.645 25.6919 170.771 25.6919C170.933 25.6919 170.951 25.6199 171.023 25.3677C171.455 23.8547 172.14 23.1342 172.842 23.1342C173.004 23.1342 173.311 23.1342 173.311 23.7286C173.311 24.1969 173.113 24.7193 172.842 25.4037C171.96 27.7634 171.96 28.3578 171.96 28.7901C171.96 30.5013 173.185 30.8975 174.085 30.8975C174.608 30.8975 175.256 30.7354 175.886 30.069L175.904 30.087C175.634 31.1497 175.454 31.8522 174.824 32.7348Z" fill="black"/>
<path d="M182.265 25.926C182.265 25.6619 182.072 25.4697 181.796 25.4697C181.484 25.4697 181.136 25.7579 181.136 26.1182C181.136 26.3824 181.328 26.5745 181.604 26.5745C181.916 26.5745 182.265 26.2863 182.265 25.926ZM180.511 30.3331L179.863 31.9902C179.803 32.1704 179.743 32.3145 179.743 32.5186C179.743 33.107 180.199 33.5393 180.836 33.5393C182 33.5393 182.493 31.8581 182.493 31.702C182.493 31.582 182.397 31.5459 182.313 31.5459C182.169 31.5459 182.145 31.63 182.109 31.7501C181.832 32.7107 181.34 33.2031 180.86 33.2031C180.716 33.2031 180.571 33.143 180.571 32.8188C180.571 32.5306 180.655 32.3145 180.812 31.9422C180.932 31.618 181.052 31.2938 181.184 30.9695L181.556 29.9969C181.664 29.7207 181.808 29.3484 181.808 29.1443C181.808 28.5439 181.328 28.1236 180.716 28.1236C179.551 28.1236 179.046 29.8047 179.046 29.9608C179.046 30.0689 179.13 30.1169 179.227 30.1169C179.383 30.1169 179.395 30.0449 179.431 29.9248C179.767 28.784 180.319 28.4598 180.68 28.4598C180.848 28.4598 180.968 28.5198 180.968 28.8561C180.968 28.9762 180.956 29.1443 180.836 29.5045L180.511 30.3331Z" fill="black"/>
<path d="M188.86 26.2322C188.86 24.8633 188.68 22.6298 187.671 20.5403C186.609 18.3788 185.131 17.208 184.933 17.208C184.861 17.208 184.771 17.244 184.771 17.3521C184.771 17.4061 184.771 17.4422 185.077 17.7484C186.879 19.5676 187.887 22.5397 187.887 26.2142C187.887 29.7087 187.041 32.7167 184.951 34.8422C184.771 35.0043 184.771 35.0403 184.771 35.0944C184.771 35.2025 184.861 35.2385 184.933 35.2385C185.168 35.2385 186.645 33.9416 187.527 32.1764C188.446 30.3391 188.86 28.3937 188.86 26.2322Z" fill="black"/>
<path d="M194.026 20.8303C194.218 20.6501 194.722 20.2539 194.914 20.0857C195.659 19.4013 196.367 18.7408 196.367 17.6481C196.367 16.2191 195.167 15.2944 193.666 15.2944C192.225 15.2944 191.276 16.3872 191.276 17.4559C191.276 18.0443 191.744 18.1284 191.912 18.1284C192.164 18.1284 192.537 17.9483 192.537 17.492C192.537 16.8675 191.936 16.8675 191.792 16.8675C192.14 15.9909 192.945 15.6907 193.533 15.6907C194.65 15.6907 195.227 16.6394 195.227 17.6481C195.227 18.8969 194.35 19.8096 192.933 21.2626L191.42 22.8236C191.276 22.9557 191.276 22.9797 191.276 23.28H196.019L196.367 21.1305H195.995C195.959 21.3706 195.863 21.9711 195.719 22.1992C195.647 22.2953 194.734 22.2953 194.542 22.2953H192.405L194.026 20.8303Z" fill="black"/>
</g>
<path d="M12.6112 143.258C12.6112 143.168 12.5391 143.096 12.4311 143.096C12.269 143.096 12.2509 143.15 12.1609 143.457C11.6926 145.096 10.954 145.654 10.3596 145.654C10.1435 145.654 9.89131 145.6 9.89131 145.06C9.89131 144.573 10.1075 144.033 10.3056 143.493L11.5665 140.142C11.6205 139.998 11.7466 139.674 11.7466 139.332C11.7466 138.575 11.2062 137.891 10.3236 137.891C8.66646 137.891 8 140.502 8 140.647C8 140.719 8.07205 140.809 8.19814 140.809C8.36025 140.809 8.37826 140.737 8.45031 140.484C8.88261 138.971 9.56708 138.251 10.2696 138.251C10.4317 138.251 10.7379 138.269 10.7379 138.845C10.7379 139.314 10.5037 139.908 10.3596 140.304L9.09876 143.655C8.99068 143.943 8.88261 144.231 8.88261 144.555C8.88261 145.366 9.441 146.014 10.3056 146.014C11.9627 146.014 12.6112 143.384 12.6112 143.258ZM12.4671 134.594C12.4671 134.324 12.2509 134 11.8547 134C11.4404 134 10.9721 134.396 10.9721 134.865C10.9721 135.315 11.3503 135.459 11.5665 135.459C12.0528 135.459 12.4671 134.991 12.4671 134.594Z" fill="black"/>
<path d="M10.2509 115.961C9.7646 116.645 9.06212 117.258 8.17951 117.258C7.96336 117.258 7.09876 117.222 6.82857 116.393C6.88261 116.411 6.97267 116.411 7.0087 116.411C7.54907 116.411 7.90932 115.943 7.90932 115.529C7.90932 115.114 7.56708 114.97 7.2969 114.97C7.0087 114.97 6.37826 115.186 6.37826 116.069C6.37826 116.988 7.1528 117.618 8.17951 117.618C9.98075 117.618 11.8 115.961 12.3044 113.962L14.0696 106.937C14.0876 106.847 14.1236 106.739 14.1236 106.63C14.1236 106.36 13.9075 106.18 13.6373 106.18C13.4752 106.18 13.0969 106.252 12.9528 106.793L11.6199 112.088C11.5298 112.412 11.5298 112.448 11.3857 112.647C11.0255 113.151 10.4311 113.763 9.56647 113.763C8.55777 113.763 8.46771 112.773 8.46771 112.286C8.46771 111.26 8.95404 109.873 9.44038 108.576C9.63851 108.053 9.74659 107.801 9.74659 107.441C9.74659 106.684 9.20622 106 8.32361 106C6.66646 106 6 108.612 6 108.756C6 108.828 6.07205 108.918 6.19814 108.918C6.36025 108.918 6.37826 108.846 6.45031 108.594C6.88261 107.081 7.56708 106.36 8.26957 106.36C8.43168 106.36 8.73789 106.36 8.73789 106.955C8.73789 107.423 8.53975 107.945 8.26957 108.63C7.38696 110.989 7.38696 111.584 7.38696 112.016C7.38696 113.727 8.61181 114.124 9.51243 114.124C10.0348 114.124 10.6832 113.962 11.3137 113.295L11.3317 113.313C11.0615 114.376 10.8814 115.078 10.2509 115.961Z" fill="black"/>
<path d="M17.6919 109.152C17.6919 108.888 17.4997 108.696 17.2235 108.696C16.9113 108.696 16.5631 108.984 16.5631 109.344C16.5631 109.608 16.7552 109.801 17.0314 109.801C17.3436 109.801 17.6919 109.512 17.6919 109.152ZM15.9386 113.559L15.2902 115.216C15.2302 115.396 15.1701 115.541 15.1701 115.745C15.1701 116.333 15.6264 116.765 16.2629 116.765C17.4277 116.765 17.92 115.084 17.92 114.928C17.92 114.808 17.824 114.772 17.7399 114.772C17.5958 114.772 17.5718 114.856 17.5358 114.976C17.2596 115.937 16.7672 116.429 16.2869 116.429C16.1428 116.429 15.9987 116.369 15.9987 116.045C15.9987 115.757 16.0827 115.541 16.2389 115.168C16.3589 114.844 16.479 114.52 16.6111 114.196L16.9834 113.223C17.0914 112.947 17.2355 112.574 17.2355 112.37C17.2355 111.77 16.7552 111.35 16.1428 111.35C14.978 111.35 14.4736 113.031 14.4736 113.187C14.4736 113.295 14.5577 113.343 14.6538 113.343C14.8099 113.343 14.8219 113.271 14.8579 113.151C15.1941 112.01 15.7465 111.686 16.1068 111.686C16.2749 111.686 16.395 111.746 16.395 112.082C16.395 112.202 16.383 112.37 16.2629 112.731L15.9386 113.559Z" fill="black"/>
<path d="M11.1204 71L8.76074 73.4497L9.04894 73.7199L11.1024 71.8646L13.1738 73.7199L13.462 73.4497L11.1204 71Z" fill="black"/>
<path d="M10.2509 85.518C9.7646 86.2025 9.06212 86.8149 8.17951 86.8149C7.96336 86.8149 7.09876 86.7789 6.82857 85.9503C6.88261 85.9683 6.97267 85.9683 7.0087 85.9683C7.54907 85.9683 7.90932 85.5 7.90932 85.0857C7.90932 84.6714 7.56708 84.5273 7.2969 84.5273C7.0087 84.5273 6.37826 84.7435 6.37826 85.6261C6.37826 86.5447 7.1528 87.1752 8.17951 87.1752C9.98075 87.1752 11.8 85.518 12.3044 83.5186L14.0696 76.4938C14.0876 76.4037 14.1236 76.2956 14.1236 76.1876C14.1236 75.9174 13.9075 75.7373 13.6373 75.7373C13.4752 75.7373 13.0969 75.8093 12.9528 76.3497L11.6199 81.6453C11.5298 81.9696 11.5298 82.0056 11.3857 82.2037C11.0255 82.7081 10.4311 83.3205 9.56647 83.3205C8.55777 83.3205 8.46771 82.3298 8.46771 81.8435C8.46771 80.8168 8.95404 79.4298 9.44038 78.1329C9.63851 77.6105 9.74659 77.3584 9.74659 76.9981C9.74659 76.2416 9.20622 75.5571 8.32361 75.5571C6.66646 75.5571 6 78.1689 6 78.313C6 78.3851 6.07205 78.4751 6.19814 78.4751C6.36025 78.4751 6.37826 78.4031 6.45031 78.1509C6.88261 76.6379 7.56708 75.9174 8.26957 75.9174C8.43168 75.9174 8.73789 75.9174 8.73789 76.5118C8.73789 76.9801 8.53975 77.5025 8.26957 78.1869C7.38696 80.5466 7.38696 81.141 7.38696 81.5733C7.38696 83.2845 8.61181 83.6807 9.51243 83.6807C10.0348 83.6807 10.6832 83.5186 11.3137 82.8522L11.3317 82.8702C11.0615 83.9329 10.8814 84.6354 10.2509 85.518Z" fill="black"/>
<path d="M17.6919 78.7092C17.6919 78.4451 17.4997 78.2529 17.2235 78.2529C16.9113 78.2529 16.5631 78.5411 16.5631 78.9014C16.5631 79.1656 16.7552 79.3577 17.0314 79.3577C17.3436 79.3577 17.6919 79.0695 17.6919 78.7092ZM15.9386 83.1163L15.2902 84.7734C15.2302 84.9536 15.1701 85.0977 15.1701 85.3018C15.1701 85.8902 15.6264 86.3225 16.2629 86.3225C17.4277 86.3225 17.92 84.6413 17.92 84.4852C17.92 84.3652 17.824 84.3291 17.7399 84.3291C17.5958 84.3291 17.5718 84.4132 17.5358 84.5333C17.2596 85.4939 16.7672 85.9863 16.2869 85.9863C16.1428 85.9863 15.9987 85.9262 15.9987 85.602C15.9987 85.3138 16.0827 85.0977 16.2389 84.7254C16.3589 84.4012 16.479 84.077 16.6111 83.7527L16.9834 82.7801C17.0914 82.5039 17.2355 82.1316 17.2355 81.9275C17.2355 81.3271 16.7552 80.9068 16.1428 80.9068C14.978 80.9068 14.4736 82.5879 14.4736 82.744C14.4736 82.8521 14.5577 82.9001 14.6538 82.9001C14.8099 82.9001 14.8219 82.8281 14.8579 82.708C15.1941 81.5672 15.7465 81.243 16.1068 81.243C16.2749 81.243 16.395 81.303 16.395 81.6393C16.395 81.7594 16.383 81.9275 16.2629 82.2877L15.9386 83.1163Z" fill="black"/>
<path d="M27.7912 86.0739C27.5634 86.0739 27.368 85.9923 27.2049 85.8292C27.0418 85.6661 26.9602 85.4706 26.9602 85.2429C26.9602 85.0152 27.0418 84.8197 27.2049 84.6566C27.368 84.4935 27.5634 84.4119 27.7912 84.4119C28.0189 84.4119 28.2144 84.4935 28.3775 84.6566C28.5406 84.8197 28.6222 85.0152 28.6222 85.2429C28.6222 85.3937 28.5837 85.5322 28.5067 85.6584C28.4329 85.7846 28.3329 85.8861 28.2067 85.9631C28.0836 86.0369 27.9451 86.0739 27.7912 86.0739ZM27.7912 80.8111C27.5634 80.8111 27.368 80.7295 27.2049 80.5664C27.0418 80.4033 26.9602 80.2079 26.9602 79.9801C26.9602 79.7524 27.0418 79.5569 27.2049 79.3938C27.368 79.2307 27.5634 79.1491 27.7912 79.1491C28.0189 79.1491 28.2144 79.2307 28.3775 79.3938C28.5406 79.5569 28.6222 79.7524 28.6222 79.9801C28.6222 80.1309 28.5837 80.2694 28.5067 80.3956C28.4329 80.5218 28.3329 80.6233 28.2067 80.7003C28.0836 80.7741 27.9451 80.8111 27.7912 80.8111ZM41.9333 75.275H43.0253V83.881H41.9333V75.275ZM35.4723 85.87H43.3763V86.754H35.4723V85.87ZM35.4723 83.088H36.5383V86.286H35.4723V83.088ZM36.4473 75.912H37.3443V77.108C37.3443 79.396 36.0443 81.398 34.0683 82.204L33.5093 81.333C35.2773 80.644 36.4473 78.928 36.4473 77.108V75.912ZM36.6423 75.912H37.5263V77.108C37.5263 78.876 38.7093 80.475 40.4643 81.112L39.8923 81.983C37.9423 81.229 36.6423 79.344 36.6423 77.108V75.912ZM50.7203 77.42H53.8663V78.304H50.7203V77.42ZM50.6163 79.864H53.7883V80.748H50.6163V79.864ZM53.6843 75.262H54.7633V82.308H53.6843V75.262ZM50.0053 76.146H51.1623C51.1623 79.175 49.0693 81.294 45.6893 82.308L45.2473 81.437C48.2503 80.566 50.0053 78.837 50.0053 76.614V76.146ZM45.8583 76.146H50.7463V77.03H45.8583V76.146ZM50.9413 82.438C53.3203 82.438 54.8283 83.283 54.8283 84.7C54.8283 86.117 53.3203 86.962 50.9413 86.962C48.5623 86.962 47.0543 86.117 47.0543 84.7C47.0543 83.283 48.5623 82.438 50.9413 82.438ZM50.9413 83.283C49.2253 83.283 48.1203 83.816 48.1203 84.7C48.1203 85.584 49.2253 86.104 50.9413 86.104C52.6703 86.104 53.7753 85.584 53.7753 84.7C53.7753 83.816 52.6703 83.283 50.9413 83.283ZM57.2973 76.146H62.6923V81.203H57.2973V76.146ZM61.6393 77.017H58.3503V80.345H61.6393V77.017ZM64.8503 75.262H65.9293V82.204H64.8503V75.262ZM65.6303 78.174H67.6713V79.084H65.6303V78.174ZM62.1853 82.607C64.5773 82.607 66.0463 83.426 66.0463 84.804C66.0463 86.195 64.5773 87.001 62.1853 87.001C59.7933 87.001 58.3243 86.195 58.3243 84.804C58.3243 83.426 59.7933 82.607 62.1853 82.607ZM62.1853 83.478C60.4433 83.478 59.3773 83.959 59.3773 84.804C59.3773 85.649 60.4433 86.143 62.1853 86.143C63.9273 86.143 64.9933 85.649 64.9933 84.804C64.9933 83.959 63.9273 83.478 62.1853 83.478ZM72.3373 76.107C74.1703 76.107 75.4833 77.238 75.4833 78.876C75.4833 80.527 74.1703 81.658 72.3373 81.658C70.5043 81.658 69.1783 80.527 69.1783 78.876C69.1783 77.238 70.5043 76.107 72.3373 76.107ZM72.3373 77.043C71.1153 77.043 70.2313 77.784 70.2313 78.876C70.2313 79.968 71.1153 80.722 72.3373 80.722C73.5463 80.722 74.4303 79.968 74.4303 78.876C74.4303 77.784 73.5463 77.043 72.3373 77.043ZM77.0173 75.249H78.0963V87.027H77.0173V75.249ZM68.7363 84.453L68.5803 83.556C70.7253 83.556 73.6893 83.543 76.2503 83.14L76.3413 83.933C73.7023 84.44 70.8293 84.453 68.7363 84.453ZM88.4075 81.112H89.4865V82.893H88.4075V81.112ZM83.6495 80.475H94.2575V81.307H83.6495V80.475ZM88.4205 75.184H89.4865V76.614H88.4205V75.184ZM88.3685 76.718H89.3175V76.9C89.3175 78.746 87.1205 79.734 84.5205 79.955L84.2085 79.123C86.5225 78.98 88.3685 78.161 88.3685 76.9V76.718ZM88.5895 76.718H89.5385V76.9C89.5385 78.161 91.3845 78.98 93.6855 79.123L93.3735 79.955C90.7735 79.734 88.5895 78.746 88.5895 76.9V76.718ZM84.7285 76.289H93.1785V77.108H84.7285V76.289ZM84.9235 82.373H92.9055V84.96H86.0155V86.377H84.9495V84.193H91.8395V83.192H84.9235V82.373ZM84.9495 86.065H93.2565V86.884H84.9495V86.065ZM95.8425 81.086H96.6875C99.0015 81.086 100.146 81.047 101.55 80.8L101.667 81.671C100.211 81.931 99.0405 81.97 96.6875 81.97H95.8425V81.086ZM95.8165 75.964H100.887V79.305H96.9085V81.619H95.8425V78.46H99.8205V76.848H95.8165V75.964ZM103.942 75.275H105.021V82.49H103.942V75.275ZM101.667 77.004H104.189V77.888H101.667V77.004ZM101.667 79.435H104.189V80.319H101.667V79.435ZM97.1555 83.127H105.021V87.04H103.942V84.011H97.1555V83.127Z" fill="black"/>
<path d="M27.7912 117.074C27.5634 117.074 27.368 116.992 27.2049 116.829C27.0418 116.666 26.9602 116.471 26.9602 116.243C26.9602 116.015 27.0418 115.82 27.2049 115.657C27.368 115.493 27.5634 115.412 27.7912 115.412C28.0189 115.412 28.2144 115.493 28.3775 115.657C28.5406 115.82 28.6222 116.015 28.6222 116.243C28.6222 116.394 28.5837 116.532 28.5067 116.658C28.4329 116.785 28.3329 116.886 28.2067 116.963C28.0836 117.037 27.9451 117.074 27.7912 117.074ZM27.7912 111.811C27.5634 111.811 27.368 111.73 27.2049 111.566C27.0418 111.403 26.9602 111.208 26.9602 110.98C26.9602 110.752 27.0418 110.557 27.2049 110.394C27.368 110.231 27.5634 110.149 27.7912 110.149C28.0189 110.149 28.2144 110.231 28.3775 110.394C28.5406 110.557 28.6222 110.752 28.6222 110.98C28.6222 111.131 28.5837 111.269 28.5067 111.396C28.4329 111.522 28.3329 111.623 28.2067 111.7C28.0836 111.774 27.9451 111.811 27.7912 111.811ZM39.6583 109.304H42.3103V110.201H39.6583V109.304ZM41.9723 106.262H43.0513V113.269H41.9723V106.262ZM39.1903 113.62C41.6083 113.62 43.1033 114.439 43.1033 115.817C43.1033 117.208 41.6083 118.001 39.1903 118.001C36.7593 118.001 35.2643 117.208 35.2643 115.817C35.2643 114.439 36.7593 113.62 39.1903 113.62ZM39.1903 114.465C37.4223 114.465 36.3433 114.959 36.3433 115.817C36.3433 116.662 37.4223 117.156 39.1903 117.156C40.9583 117.156 42.0373 116.662 42.0373 115.817C42.0373 114.959 40.9583 114.465 39.1903 114.465ZM36.3823 107.445H37.2663V108.394C37.2663 110.565 35.9403 112.424 33.9903 113.152L33.4313 112.294C35.1733 111.657 36.3823 110.084 36.3823 108.394V107.445ZM36.5903 107.445H37.4613V108.394C37.4613 109.915 38.6053 111.371 40.3083 111.969L39.7623 112.827C37.8513 112.138 36.5903 110.37 36.5903 108.394V107.445ZM33.7563 107.12H40.0353V108.004H33.7563V107.12ZM53.1383 106.262H54.2173V112.528H53.1383V106.262ZM53.9183 109.005H55.9593V109.902H53.9183V109.005ZM45.6373 111.241H46.5473C48.9653 111.241 50.3303 111.163 51.9033 110.851L52.0203 111.722C50.4083 112.06 49.0173 112.138 46.5473 112.138H45.6373V111.241ZM45.6373 107.029H50.8113V107.913H46.7033V111.852H45.6373V107.029ZM46.8073 113.165H47.8733V114.608H53.1513V113.165H54.2173V117.819H46.8073V113.165ZM47.8733 115.466V116.935H53.1513V115.466H47.8733ZM60.6025 114.231H61.3825C62.8125 114.231 64.1385 114.179 65.7505 113.906L65.8415 114.79C64.1905 115.076 62.8645 115.128 61.3825 115.128H60.6025V114.231ZM60.5765 107.549H64.7755V111.644H61.6555V114.595H60.6025V110.773H63.7355V108.433H60.5765V107.549ZM69.1565 106.262H70.1965V118.014H69.1565V106.262ZM65.3345 110.474H67.2325V111.371H65.3345V110.474ZM66.7905 106.548H67.7915V117.403H66.7905V106.548ZM80.4655 106.249H81.5445V118.027H80.4655V106.249ZM75.3435 107.159C77.0855 107.159 78.3335 108.758 78.3335 111.254C78.3335 113.763 77.0855 115.362 75.3435 115.362C73.6145 115.362 72.3665 113.763 72.3665 111.254C72.3665 108.758 73.6145 107.159 75.3435 107.159ZM75.3435 108.134C74.1995 108.134 73.3935 109.356 73.3935 111.254C73.3935 113.165 74.1995 114.413 75.3435 114.413C76.5005 114.413 77.2935 113.165 77.2935 111.254C77.2935 109.356 76.5005 108.134 75.3435 108.134ZM85.0535 106.47H86.1195V107.562H91.8005V106.47H92.8795V110.344H85.0535V106.47ZM86.1195 108.394V109.512H91.8005V108.394H86.1195ZM83.6365 111.332H94.2575V112.203H83.6365V111.332ZM84.9235 113.269H92.9055V115.895H86.0155V117.338H84.9495V115.115H91.8395V114.088H84.9235V113.269ZM84.9495 117.052H93.2565V117.884H84.9495V117.052Z" fill="black"/>
<path d="M27.7912 145.074C27.5634 145.074 27.368 144.992 27.2049 144.829C27.0418 144.666 26.9602 144.471 26.9602 144.243C26.9602 144.015 27.0418 143.82 27.2049 143.657C27.368 143.493 27.5634 143.412 27.7912 143.412C28.0189 143.412 28.2144 143.493 28.3775 143.657C28.5406 143.82 28.6222 144.015 28.6222 144.243C28.6222 144.394 28.5837 144.532 28.5067 144.658C28.4329 144.785 28.3329 144.886 28.2067 144.963C28.0836 145.037 27.9451 145.074 27.7912 145.074ZM27.7912 139.811C27.5634 139.811 27.368 139.73 27.2049 139.566C27.0418 139.403 26.9602 139.208 26.9602 138.98C26.9602 138.752 27.0418 138.557 27.2049 138.394C27.368 138.231 27.5634 138.149 27.7912 138.149C28.0189 138.149 28.2144 138.231 28.3775 138.394C28.5406 138.557 28.6222 138.752 28.6222 138.98C28.6222 139.131 28.5837 139.269 28.5067 139.396C28.4329 139.522 28.3329 139.623 28.2067 139.7C28.0836 139.774 27.9451 139.811 27.7912 139.811ZM42.3233 134.262H43.3633V146.014H42.3233V134.262ZM37.4483 138.747H40.3993V139.631H37.4483V138.747ZM39.9573 134.535H40.9843V145.416H39.9573V134.535ZM33.8213 142.283H34.5753C36.4083 142.283 37.5133 142.231 38.8133 141.958L38.9173 142.855C37.5783 143.141 36.4473 143.193 34.5753 143.193H33.8213V142.283ZM33.8213 135.692H38.2413V136.576H34.8873V142.634H33.8213V135.692ZM53.6323 134.249H54.7113V146.027H53.6323V134.249ZM48.5103 135.159C50.2523 135.159 51.5003 136.758 51.5003 139.254C51.5003 141.763 50.2523 143.362 48.5103 143.362C46.7813 143.362 45.5333 141.763 45.5333 139.254C45.5333 136.758 46.7813 135.159 48.5103 135.159ZM48.5103 136.134C47.3663 136.134 46.5603 137.356 46.5603 139.254C46.5603 141.165 47.3663 142.413 48.5103 142.413C49.6673 142.413 50.4603 141.165 50.4603 139.254C50.4603 137.356 49.6673 136.134 48.5103 136.134ZM65.4223 134.249H66.4883V146.027H65.4223V134.249ZM62.9783 138.682H65.5783V139.579H62.9783V138.682ZM57.3493 142.309H58.2463C60.4563 142.309 61.8473 142.27 63.4983 141.958L63.6023 142.842C61.9123 143.141 60.4823 143.206 58.2463 143.206H57.3493V142.309ZM57.3493 135.328H62.7833V136.225H58.4153V142.621H57.3493V135.328ZM58.1423 138.63H62.2763V139.501H58.1423V138.63ZM72.3373 135.107C74.1703 135.107 75.4833 136.238 75.4833 137.876C75.4833 139.527 74.1703 140.658 72.3373 140.658C70.5043 140.658 69.1783 139.527 69.1783 137.876C69.1783 136.238 70.5043 135.107 72.3373 135.107ZM72.3373 136.043C71.1153 136.043 70.2313 136.784 70.2313 137.876C70.2313 138.968 71.1153 139.722 72.3373 139.722C73.5463 139.722 74.4303 138.968 74.4303 137.876C74.4303 136.784 73.5463 136.043 72.3373 136.043ZM77.0173 134.249H78.0963V146.027H77.0173V134.249ZM68.7363 143.453L68.5803 142.556C70.7253 142.556 73.6893 142.543 76.2503 142.14L76.3413 142.933C73.7023 143.44 70.8293 143.453 68.7363 143.453ZM86.5095 137.057H87.3545V138.058C87.3545 140.541 86.0025 142.829 84.1435 143.752L83.5325 142.92C85.2615 142.088 86.5095 140.086 86.5095 138.058V137.057ZM86.7175 137.057H87.5625V138.058C87.5625 139.956 88.7455 141.867 90.4225 142.699L89.8245 143.531C87.9915 142.621 86.7175 140.398 86.7175 138.058V137.057ZM83.8575 136.303H90.1625V137.174H83.8575V136.303ZM86.4965 134.47H87.5625V136.784H86.4965V134.47ZM91.5925 134.262H92.6845V146.014H91.5925V134.262ZM92.4245 139.085H94.6085V139.982H92.4245V139.085ZM98.6895 140.177H99.7685V142.79H98.6895V140.177ZM103.903 134.262H104.982V143.206H103.903V134.262ZM96.9605 144.87H105.268V145.754H96.9605V144.87ZM96.9605 142.335H98.0395V145.117H96.9605V142.335ZM95.4395 140.58L95.2965 139.696C97.4675 139.696 100.38 139.67 102.876 139.345L102.954 140.138C100.419 140.541 97.5715 140.58 95.4395 140.58ZM101.511 141.204H104.176V141.997H101.511V141.204ZM99.1185 134.743C100.835 134.743 102.005 135.549 102.005 136.784C102.005 138.032 100.835 138.838 99.1185 138.838C97.3895 138.838 96.2195 138.032 96.2195 136.784C96.2195 135.549 97.3895 134.743 99.1185 134.743ZM99.1185 135.549C98.0135 135.549 97.2465 136.03 97.2465 136.784C97.2465 137.538 98.0135 138.019 99.1185 138.019C100.211 138.019 100.978 137.538 100.978 136.784C100.978 136.03 100.211 135.549 99.1185 135.549ZM119.401 134.262H120.441V146.014H119.401V134.262ZM117.503 138.981H119.752V139.865H117.503V138.981ZM114.461 135.77H115.501C115.501 138.799 114.461 141.607 111.107 143.492L110.47 142.725C113.421 141.074 114.461 138.695 114.461 135.978V135.77ZM110.925 135.77H114.825V136.667H110.925V135.77ZM116.788 134.574H117.815V145.442H116.788V134.574ZM126.94 134.678H127.889V135.328C127.889 137.577 125.601 139.189 123.157 139.605L122.728 138.734C124.873 138.409 126.94 137.005 126.94 135.328V134.678ZM127.135 134.678H128.071V135.328C128.071 136.966 130.164 138.409 132.283 138.734L131.854 139.605C129.436 139.189 127.135 137.551 127.135 135.328V134.678ZM126.94 141.542H128.006V146.014H126.94V141.542ZM122.195 140.879H132.816V141.776H122.195V140.879Z" fill="black"/>
<defs>
<clipPath id="clip0_1335_1857">
<rect width="178.367" height="51.685" fill="white" transform="translate(18)"/>
</clipPath>
</defs>
</svg>
