<svg width="344" height="244" viewBox="0 0 344 244" fill="none" xmlns="http://www.w3.org/2000/svg">
<path d="M343.707 203.707C344.098 203.317 344.098 202.683 343.707 202.293L337.343 195.929C336.953 195.538 336.319 195.538 335.929 195.929C335.538 196.319 335.538 196.953 335.929 197.343L341.586 203L335.929 208.657C335.538 209.047 335.538 209.681 335.929 210.071C336.319 210.462 336.953 210.462 337.343 210.071L343.707 203.707ZM45 204H343V202H45V204Z" fill="black"/>
<path d="M45.7071 0.292893C45.3166 -0.0976311 44.6834 -0.0976311 44.2929 0.292893L37.9289 6.65685C37.5384 7.04738 37.5384 7.68054 37.9289 8.07107C38.3194 8.46159 38.9526 8.46159 39.3431 8.07107L45 2.41421L50.6568 8.07107C51.0474 8.46159 51.6805 8.46159 52.0711 8.07107C52.4616 7.68054 52.4616 7.04738 52.0711 6.65685L45.7071 0.292893ZM46 203L46 1L44 1L44 203L46 203Z" fill="black"/>
<path d="M320.563 220L323.789 225.453H323.914L327.156 220H330.977L326.094 228L331.086 236H327.195L323.914 230.539H323.789L320.508 236H316.633L321.641 228L316.727 220H320.563Z" fill="black"/>
<path d="M17.4531 20H21.2422L24.8906 26.8906H25.0469L28.6953 20H32.4844L26.6484 30.3437V36H23.2891V30.3437L17.4531 20Z" fill="black"/>
<line x1="0.528304" y1="133.576" x2="323.528" y2="26.5761" stroke="black" stroke-width="3" stroke-dasharray="10 10"/>
<line x1="87.5724" y1="139.461" x2="77.5724" y2="108.461" stroke="black" stroke-width="3"/>
<line x1="267.572" y1="43.4605" x2="257.572" y2="12.4605" stroke="black" stroke-width="3"/>
<line x1="249.59" y1="116.511" x2="228.59" y2="58.5107" stroke="black" stroke-width="3"/>
<line x1="164.584" y1="123.496" x2="150.584" y2="83.4955" stroke="black" stroke-width="3"/>
<line x1="134.575" y1="88.467" x2="115.575" y2="30.467" stroke="black" stroke-width="3"/>
<circle cx="88" cy="139" r="8" fill="#BDE3FF"/>
<circle cx="114" cy="28" r="8" fill="#BDE3FF"/>
<circle cx="258" cy="13" r="8" fill="#BDE3FF"/>
<circle cx="251" cy="118" r="8" fill="#BDE3FF"/>
<circle cx="167" cy="126" r="8" fill="#BDE3FF"/>
<line x1="209.572" y1="65.4605" x2="199.572" y2="34.4605" stroke="black" stroke-width="3"/>
<circle cx="200" cy="35" r="8" fill="#BDE3FF"/>
<line x1="296.586" y1="71.5016" x2="285.586" y2="40.5016" stroke="black" stroke-width="3"/>
<circle cx="297" cy="70" r="8" fill="#BDE3FF"/>
</svg>
