<svg width="32" height="56" viewBox="0 0 32 56" fill="none" xmlns="http://www.w3.org/2000/svg">
<g clip-path="url(#clip0_1295_4320)">
<path d="M18.3425 1.98865C18.4219 1.67046 18.5807 1.19319 18.5807 0.795461C18.5807 4.06503e-06 17.7866 0 17.6278 0C17.5484 0 14.6899 0.238642 13.2606 0.39773C11.9107 0.477275 10.7196 0.63637 9.29036 0.715915C7.38466 0.875003 6.82882 0.954548 6.82882 2.38637C6.82882 3.18182 7.62287 3.18182 8.41691 3.18182C12.4665 3.18182 12.4665 3.89773 12.4665 4.69318C12.4665 5.25 11.8313 7.55682 11.5137 8.98864L9.60798 16.625C8.81394 19.8068 4.28788 37.8636 3.97026 39.2955C3.57324 41.2841 3.57324 42.6364 3.57324 43.6705C3.57324 51.7841 8.09929 56 13.2606 56C22.4715 56 32 44.1477 32 32.6136C32 25.2955 27.871 20.125 21.9157 20.125C17.7866 20.125 14.0546 23.5455 12.5459 25.1364L18.3425 1.98865ZM13.34 54.4091C10.799 54.4091 8.01989 52.5 8.01989 46.2955C8.01989 43.6705 8.2581 42.1591 9.68739 36.5909C9.9256 35.5568 11.1961 30.4659 11.5137 29.4318C11.6725 28.7955 16.3574 21.7159 21.7569 21.7159C25.2507 21.7159 26.8387 25.2159 26.8387 29.3523C26.8387 33.1705 24.6154 42.1591 22.6303 46.2955C20.6452 50.5909 16.9926 54.4091 13.34 54.4091Z" fill="black"/>
</g>
<defs>
<clipPath id="clip0_1295_4320">
<rect width="32" height="56" fill="white"/>
</clipPath>
</defs>
</svg>
