<svg width="690" height="90" viewBox="0 0 690 90" fill="none" xmlns="http://www.w3.org/2000/svg">
<g clip-path="url(#clip0_1295_4720)">
<path d="M10.8507 33.4839C10.8507 32.8218 10.8507 32.6379 10.4828 32.6379C10.1886 32.6379 9.48974 33.4471 9.23227 33.7781C8.09203 32.8586 6.95178 32.6379 5.77476 32.6379C1.32415 32.6379 0 35.0654 0 37.0882C0 37.4928 0 38.7801 1.39771 40.0674C2.57473 41.0972 3.82532 41.3547 5.51729 41.6857C7.5403 42.0902 8.01846 42.2006 8.93801 42.9362C9.60008 43.4879 10.0782 44.297 10.0782 45.3268C10.0782 46.9083 9.1587 48.6737 5.92189 48.6737C3.49428 48.6737 1.72875 47.2761 0.919548 43.5982C0.772419 42.9362 0.772419 42.8994 0.735638 42.8626C0.662075 42.7155 0.514946 42.7155 0.404599 42.7155C9.16915e-08 42.7155 0 42.8994 0 43.5614V48.5634C0 49.2254 0 49.4093 0.367817 49.4093C0.551727 49.4093 0.588509 49.3726 1.2138 48.6002C1.39771 48.3427 1.39771 48.2692 1.94944 47.6807C3.34716 49.4093 5.33338 49.4093 5.95867 49.4093C9.82077 49.4093 11.7334 47.2761 11.7334 44.3706C11.7334 42.3845 10.5196 41.2075 10.1886 40.8765C8.86444 39.7364 7.87133 39.5157 5.44372 39.0743C4.34027 38.8537 1.65519 38.3387 1.65519 36.132C1.65519 34.9918 2.42761 33.3 5.73798 33.3C9.74721 33.3 9.9679 36.7205 10.0415 37.8606C10.0782 38.1548 10.3357 38.1548 10.4461 38.1548C10.8507 38.1548 10.8507 37.9709 10.8507 37.3089V33.4839Z" fill="black"/>
<path d="M29.8752 41.1708C29.8752 36.4262 26.2705 32.6379 22.0038 32.6379C17.59 32.6379 14.0957 36.5366 14.0957 41.1708C14.0957 45.8785 17.7739 49.4093 21.967 49.4093C26.3073 49.4093 29.8752 45.805 29.8752 41.1708ZM22.0038 48.6002C20.6429 48.6002 18.9877 48.0117 17.921 46.2095C16.9279 44.5545 16.8911 42.3845 16.8911 40.8397C16.8911 39.4421 16.8911 37.1986 18.0314 35.5435C19.0613 33.962 20.6797 33.3735 21.967 33.3735C23.4015 33.3735 24.9464 34.0356 25.9395 35.47C27.0797 37.1618 27.0797 39.4789 27.0797 40.8397C27.0797 42.127 27.0797 44.4073 26.1234 46.136C25.0935 47.9014 23.4015 48.6002 22.0038 48.6002Z" fill="black"/>
<path d="M37.3264 34.2563H41.4827V33.1897H37.2528V28.8865C37.2528 25.5764 38.9448 23.8845 40.4529 23.8845C40.7471 23.8845 41.2988 23.9581 41.7402 24.1787C41.5931 24.2155 40.6735 24.5465 40.6735 25.6131C40.6735 26.4591 41.2621 27.0475 42.108 27.0475C42.9908 27.0475 43.5793 26.4591 43.5793 25.5764C43.5793 24.2155 42.2552 23.1489 40.4896 23.1489C37.9149 23.1489 35.0091 25.135 35.0091 28.8865V33.1897H32.1401V34.2563H35.0091V46.3199C35.0091 47.975 34.6045 47.975 32.2137 47.975V49.0416C33.2436 48.968 35.2666 48.9681 36.3701 48.9681C37.3632 48.9681 39.9747 48.968 40.8207 49.0416V47.975H40.085C37.4 47.975 37.3264 47.5704 37.3264 46.2464V34.2563Z" fill="black"/>
<path d="M48.1838 34.2564H53.37V33.1898H48.1838V26.4224H47.3746C47.3378 29.8796 46.0137 33.4104 42.6665 33.5208V34.2564H45.793V44.481C45.793 48.5635 48.5148 49.4095 50.4643 49.4095C52.7815 49.4095 53.9953 47.1292 53.9953 44.481V42.3846H53.1861V44.4075C53.1861 47.0556 52.1195 48.6003 50.685 48.6003C48.1838 48.6003 48.1838 45.1798 48.1838 44.5546V34.2564Z" fill="black"/>
<path d="M82.3831 40.1041C82.3831 36.6836 82.3831 35.6538 81.5371 34.4768C80.4705 33.0425 78.7417 32.8218 77.4911 32.8218C74.4382 32.8218 72.8934 35.0285 72.3049 36.4629C71.7899 33.6309 69.8037 32.8218 67.4864 32.8218C63.9186 32.8218 62.5209 35.8745 62.2266 36.6101H62.1898V32.8218L57.1875 33.2264V34.293C59.6887 34.293 59.9829 34.5504 59.9829 36.3526V46.3198C59.9829 47.9749 59.5783 47.9749 57.1875 47.9749V49.0415C58.1438 48.9679 60.1301 48.9679 61.16 48.9679C62.2266 48.9679 64.2128 48.9679 65.1692 49.0415V47.9749C62.8151 47.9749 62.3738 47.9749 62.3738 46.3198V39.4788C62.3738 35.617 64.9117 33.5574 67.1922 33.5574C69.4727 33.5574 69.9876 35.4331 69.9876 37.6767V46.3198C69.9876 47.9749 69.583 47.9749 67.1922 47.9749V49.0415C68.1485 48.9679 70.1347 48.9679 71.1646 48.9679C72.2313 48.9679 74.2175 48.9679 75.1739 49.0415V47.9749C72.8198 47.9749 72.3784 47.9749 72.3784 46.3198V39.4788C72.3784 35.617 74.9164 33.5574 77.1969 33.5574C79.4774 33.5574 79.9923 35.4331 79.9923 37.6767V46.3198C79.9923 47.9749 79.5877 47.9749 77.1969 47.9749V49.0415C78.1532 48.9679 80.1394 48.9679 81.1693 48.9679C82.236 48.9679 84.2222 48.9679 85.1786 49.0415V47.9749C83.3395 47.9749 82.4199 47.9749 82.3831 46.8715V40.1041Z" fill="black"/>
<path d="M100.221 39.2214C100.221 37.2354 100.221 35.7642 98.6026 34.3298C97.3153 33.1529 95.6601 32.6379 94.0417 32.6379C91.0255 32.6379 88.7083 34.624 88.7083 37.0147C88.7083 38.0813 89.4071 38.5962 90.2531 38.5962C91.1359 38.5962 91.7612 37.9709 91.7612 37.0882C91.7612 35.5803 90.437 35.5803 89.8853 35.5803C90.7313 34.0356 92.4968 33.3735 93.9681 33.3735C95.6601 33.3735 97.8302 34.7711 97.8302 38.0813V39.5525C90.437 39.6628 87.6416 42.7523 87.6416 45.5843C87.6416 48.4898 91.0255 49.4093 93.2692 49.4093C95.6968 49.4093 97.352 47.9382 98.0509 46.1727C98.198 47.9014 99.3383 49.2254 100.92 49.2254C101.692 49.2254 103.826 48.7105 103.826 45.7682V43.7085H103.016V45.7682C103.016 47.8646 102.134 48.1588 101.619 48.1588C100.221 48.1588 100.221 46.2095 100.221 45.6578V39.2214ZM97.8302 43.8556C97.8302 47.46 95.1451 48.6737 93.5635 48.6737C91.7612 48.6737 90.2531 47.3497 90.2531 45.5843C90.2531 40.7294 96.5061 40.288 97.8302 40.2145V43.8556Z" fill="black"/>
<path d="M114.33 40.3617C115.396 38.9641 116.941 36.978 117.64 36.2056C119.148 34.5138 120.877 34.2563 122.054 34.2563V33.1897C120.472 33.2633 120.399 33.2633 118.964 33.2633C117.567 33.2633 117.493 33.2633 115.654 33.1897V34.2563C116.132 34.3299 116.721 34.5505 116.721 35.3965C116.721 36.0217 116.39 36.4263 116.169 36.7205L113.815 39.6996L110.946 35.9114C110.836 35.7643 110.615 35.4332 110.615 35.1758C110.615 34.9551 110.799 34.2931 111.902 34.2563V33.1897C110.983 33.2633 109.107 33.2633 108.114 33.2633C106.9 33.2633 106.826 33.2633 104.583 33.1897V34.2563C106.458 34.2563 107.157 34.3299 107.93 35.3229L112.233 40.9501C112.307 41.0237 112.454 41.2444 112.454 41.3547C112.454 41.4651 109.585 45.0694 109.217 45.5476C107.599 47.5337 105.98 47.9382 104.399 47.975V49.0416C105.796 48.968 105.87 48.968 107.452 48.968C108.849 48.968 108.923 48.968 110.762 49.0416V47.975C109.879 47.8647 109.732 47.313 109.732 46.7981C109.732 46.2096 109.99 45.9154 110.357 45.4372C110.909 44.6649 112.123 43.1569 113.006 42.0167L116.022 45.9521C116.647 46.7613 116.647 46.8348 116.647 47.0555C116.647 47.3498 116.353 47.9382 115.36 47.975V49.0416C116.316 48.968 118.118 48.968 119.148 48.968C120.362 48.968 120.436 48.968 122.643 49.0416V47.975C120.693 47.975 120.031 47.9014 119.148 46.7245L114.33 40.3617Z" fill="black"/>
<path d="M134.993 57.979C134.993 57.8686 134.993 57.7951 134.368 57.1698C130.69 53.4551 128.63 47.3865 128.63 39.8835C128.63 32.7483 130.359 26.6061 134.625 22.2662C134.993 21.9352 134.993 21.8616 134.993 21.7513C134.993 21.5306 134.809 21.457 134.662 21.457C134.184 21.457 131.168 24.1051 129.365 27.7095C127.49 31.4242 126.644 35.3596 126.644 39.8835C126.644 43.1569 127.159 47.5336 129.071 51.469C131.241 55.8825 134.257 58.2732 134.662 58.2732C134.809 58.2732 134.993 58.1996 134.993 57.979Z" fill="black"/>
<path d="M154.479 34.0355C153.302 34.2562 152.861 35.1389 152.861 35.8377C152.861 36.7204 153.56 37.0146 154.075 37.0146C155.178 37.0146 155.951 36.0584 155.951 35.0653C155.951 33.5206 154.185 32.8218 152.64 32.8218C150.397 32.8218 149.146 35.0285 148.815 35.7273C147.969 32.9689 145.689 32.8218 145.026 32.8218C141.275 32.8218 139.289 37.6399 139.289 38.449C139.289 38.5961 139.436 38.78 139.693 38.78C139.987 38.78 140.061 38.5594 140.134 38.4122C141.385 34.3297 143.849 33.5574 144.916 33.5574C146.571 33.5574 146.902 35.1021 146.902 35.9848C146.902 36.794 146.682 37.6399 146.24 39.4053L144.99 44.4441C144.438 46.6508 143.371 48.6737 141.422 48.6737C141.238 48.6737 140.318 48.6737 139.546 48.1956C140.87 47.9381 141.164 46.8347 141.164 46.3934C141.164 45.6578 140.613 45.2164 139.914 45.2164C139.031 45.2164 138.075 45.9888 138.075 47.1657C138.075 48.7105 139.803 49.4093 141.385 49.4093C143.151 49.4093 144.401 48.0117 145.174 46.5037C145.762 48.6737 147.601 49.4093 148.962 49.4093C152.714 49.4093 154.7 44.5912 154.7 43.782C154.7 43.5981 154.553 43.451 154.332 43.451C154.001 43.451 153.964 43.6349 153.854 43.9292C152.861 47.1657 150.728 48.6737 149.073 48.6737C147.785 48.6737 147.086 47.7174 147.086 46.2095C147.086 45.4003 147.233 44.8119 147.822 42.3844L149.109 37.3824C149.661 35.1757 150.912 33.5574 152.604 33.5574C152.677 33.5574 153.707 33.5574 154.479 34.0355Z" fill="black"/>
<path d="M164.818 39.2582C164.818 38.7187 164.426 38.3264 163.862 38.3264C163.224 38.3264 162.513 38.9149 162.513 39.6505C162.513 40.1899 162.906 40.5822 163.47 40.5822C164.107 40.5822 164.818 39.9937 164.818 39.2582ZM161.238 48.2568L159.914 51.6406C159.791 52.0083 159.669 52.3026 159.669 52.7194C159.669 53.9209 160.601 54.8036 161.9 54.8036C164.279 54.8036 165.284 51.3708 165.284 51.0521C165.284 50.8069 165.088 50.7333 164.916 50.7333C164.622 50.7333 164.573 50.905 164.5 51.1502C163.936 53.1117 162.93 54.117 161.949 54.117C161.655 54.117 161.361 53.9944 161.361 53.3324C161.361 52.7439 161.532 52.3026 161.851 51.5425C162.096 50.8804 162.342 50.2184 162.611 49.5564L163.372 47.5703C163.592 47.0063 163.886 46.2462 163.886 45.8294C163.886 44.6034 162.906 43.7452 161.655 43.7452C159.276 43.7452 158.247 47.178 158.247 47.4967C158.247 47.7174 158.418 47.8155 158.614 47.8155C158.933 47.8155 158.958 47.6684 159.031 47.4232C159.718 45.0938 160.846 44.4318 161.581 44.4318C161.925 44.4318 162.17 44.5544 162.17 45.2409C162.17 45.4861 162.145 45.8294 161.9 46.565L161.238 48.2568Z" fill="black"/>
<path d="M178.287 39.8835C178.287 37.0883 177.919 32.5276 175.859 28.2612C173.689 23.8477 170.673 21.457 170.268 21.457C170.121 21.457 169.937 21.5306 169.937 21.7513C169.937 21.8616 169.937 21.9352 170.562 22.5604C174.24 26.2751 176.3 32.3437 176.3 39.8467C176.3 46.9819 174.572 53.1241 170.305 57.464C169.937 57.7951 169.937 57.8686 169.937 57.979C169.937 58.1996 170.121 58.2732 170.268 58.2732C170.746 58.2732 173.762 55.6251 175.565 52.0207C177.441 48.2692 178.287 44.297 178.287 39.8835Z" fill="black"/>
<path d="M216.965 37.125C217.48 37.125 218.142 37.125 218.142 36.463C218.142 35.7642 217.517 35.7642 216.965 35.7642H195.3C194.785 35.7642 194.123 35.7642 194.123 36.4262C194.123 37.125 194.749 37.125 195.3 37.125H216.965ZM216.965 43.966C217.48 43.966 218.142 43.966 218.142 43.3039C218.142 42.6051 217.517 42.6051 216.965 42.6051H195.3C194.785 42.6051 194.123 42.6051 194.123 43.2672C194.123 43.966 194.749 43.966 195.3 43.966H216.965Z" fill="black"/>
<path d="M287.633 15.6273C288.626 15.6273 291.127 15.5538 292.893 14.8917C295.688 13.8251 295.946 11.6919 295.946 11.0299C295.946 9.41161 294.548 7.94043 292.12 7.94043C288.258 7.94043 282.704 11.4345 282.704 17.9812C282.704 21.843 284.911 24.5279 288.258 24.5279C293.261 24.5279 296.424 20.6293 296.424 20.1512C296.424 19.9305 296.203 19.7466 296.056 19.7466C295.946 19.7466 295.909 19.7834 295.578 20.1144C293.224 23.2407 289.729 23.7923 288.332 23.7923C286.235 23.7923 285.132 22.1373 285.132 19.4156C285.132 18.9007 285.132 17.9812 285.683 15.6273H287.633ZM285.867 14.8917C287.449 9.22771 290.943 8.67602 292.12 8.67602C293.739 8.67602 294.842 9.63228 294.842 11.0299C294.842 14.8917 288.957 14.8917 287.412 14.8917H285.867Z" fill="black"/>
<path d="M310.026 1.02982C308.947 1.29954 308.898 2.2558 308.898 2.35388C308.898 2.89331 309.315 3.2611 309.854 3.2611C310.394 3.2611 311.228 2.84427 311.228 1.78993C311.228 0.39231 309.683 0 308.776 0C307.623 0 306.691 0.809144 306.127 1.76541C305.588 0.465872 304.313 0 303.307 0C300.634 0 299.139 3.06495 299.139 3.7515C299.139 3.97217 299.31 4.07025 299.506 4.07025C299.801 4.07025 299.85 3.94765 299.923 3.65342C300.487 1.86349 301.959 0.686548 303.234 0.686548C304.19 0.686548 304.656 1.3731 304.656 2.2558C304.656 2.74619 304.362 3.87409 304.166 4.65872C303.994 5.36979 303.454 7.55203 303.332 8.0179C302.989 9.34196 302.106 10.3718 301.002 10.3718C300.904 10.3718 300.267 10.3718 299.752 10.0285C300.88 9.75879 300.88 8.72897 300.88 8.70445C300.88 8.1405 300.438 7.79723 299.899 7.79723C299.237 7.79723 298.526 8.36118 298.526 9.29292C298.526 10.4208 299.727 11.0583 300.978 11.0583C302.277 11.0583 303.185 10.0775 303.626 9.29292C304.166 10.4944 305.294 11.0583 306.471 11.0583C309.143 11.0583 310.615 7.99338 310.615 7.30683C310.615 7.06164 310.418 6.98808 310.247 6.98808C309.953 6.98808 309.904 7.15972 309.83 7.40491C309.34 9.04772 307.942 10.3718 306.52 10.3718C305.71 10.3718 305.122 9.83235 305.122 8.80253C305.122 8.31214 305.269 7.74819 305.612 6.37509C305.784 5.6395 306.323 3.48178 306.446 3.01591C306.789 1.74089 307.648 0.686548 308.751 0.686548C308.874 0.686548 309.511 0.686548 310.026 1.02982Z" fill="black"/>
<path d="M318.807 3.07617C318.807 2.63481 318.476 2.34058 318.053 2.34058C317.557 2.34058 317.023 2.81871 317.023 3.35201C317.023 3.81175 317.354 4.0876 317.759 4.0876C318.347 4.0876 318.807 3.53591 318.807 3.07617ZM317.704 9.49416C317.777 9.31027 317.943 8.86892 318.016 8.70341C318.072 8.5379 318.145 8.354 318.145 8.04138C318.145 7.01156 317.226 6.44148 316.306 6.44148C314.43 6.44148 313.529 8.86892 313.529 9.27349C313.529 9.36544 313.603 9.53095 313.86 9.53095C314.118 9.53095 314.173 9.42061 314.228 9.2551C314.743 7.4713 315.718 7.04834 316.233 7.04834C316.6 7.04834 316.729 7.2874 316.729 7.71037C316.729 8.07816 316.619 8.354 316.582 8.48273L315.626 10.8366C315.405 11.3699 315.405 11.4067 315.166 12.0319C314.927 12.5836 314.835 12.8227 314.835 13.1353C314.835 14.0732 315.681 14.7352 316.692 14.7352C318.55 14.7352 319.469 12.3078 319.469 11.9032C319.469 11.8664 319.451 11.6458 319.12 11.6458C318.862 11.6458 318.844 11.7377 318.734 12.0871C318.439 13.025 317.685 14.1284 316.747 14.1284C316.416 14.1284 316.251 13.9077 316.251 13.4663C316.251 13.0985 316.361 12.8227 316.6 12.2526L317.704 9.49416Z" fill="black"/>
<path d="M370.672 39.1111H234.044V40.5822H370.672V39.1111Z" fill="black"/>
<path d="M249.529 66.326L236.472 82.4721C236.178 82.8399 236.141 82.9135 236.141 83.0606C236.141 83.4652 236.472 83.4652 237.134 83.4652H267.626L270.789 74.3071H269.87C268.95 77.0656 266.486 79.3091 263.359 80.3757C262.771 80.5596 260.233 81.4423 254.826 81.4423H239.194L251.957 65.6639C252.214 65.3329 252.288 65.2226 252.288 65.0755C252.288 64.9284 252.251 64.8916 252.031 64.5606L240.076 48.157H254.642C258.835 48.157 267.295 48.4144 269.87 55.2922H270.789L267.626 46.6858H237.134C236.141 46.6858 236.104 46.7226 236.104 47.8627L249.529 66.326Z" fill="black"/>
<path d="M277.774 52.37C277.847 52.0023 278.093 51.0705 278.166 50.7027C278.509 49.3787 278.509 49.3541 279.073 48.545C279.883 47.3435 281.035 46.2647 282.678 46.2647C283.561 46.2647 284.076 46.7796 284.076 47.932C284.076 49.2806 283.046 52.0758 282.58 53.2773C282.261 54.0864 282.261 54.2335 282.261 54.5523C282.261 55.9499 283.414 56.6365 284.468 56.6365C286.871 56.6365 287.877 53.2037 287.877 52.885C287.877 52.6398 287.68 52.5662 287.509 52.5662C287.215 52.5662 287.165 52.7378 287.092 52.983C286.503 54.9936 285.474 55.9499 284.542 55.9499C284.149 55.9499 283.953 55.7047 283.953 55.1408C283.953 54.5768 284.149 54.0374 284.395 53.4244C284.762 52.4926 285.841 49.6729 285.841 48.2998C285.841 46.4608 284.566 45.5781 282.801 45.5781C280.814 45.5781 279.539 46.7796 278.828 47.7113C278.657 46.3627 277.578 45.5781 276.327 45.5781C275.444 45.5781 274.831 46.1421 274.439 46.9022C273.85 48.0546 273.605 49.2806 273.605 49.3296C273.605 49.5503 273.777 49.6484 273.973 49.6484C274.292 49.6484 274.316 49.5503 274.488 48.9128C274.782 47.7113 275.224 46.2647 276.254 46.2647C276.891 46.2647 277.038 46.8777 277.038 47.4171C277.038 47.8584 276.916 48.3243 276.719 49.1335C276.67 49.3296 276.303 50.7763 276.204 51.1195L275.297 54.7975C275.199 55.1653 275.052 55.7783 275.052 55.8763C275.052 56.4403 275.518 56.6365 275.837 56.6365C276.278 56.6365 276.646 56.3422 276.818 56.048C276.891 55.9009 277.087 55.0672 277.21 54.5523L277.774 52.37Z" fill="black"/>
<path d="M282.997 69.6979C282.997 69.232 282.629 68.7661 282.041 68.7661C281.305 68.7661 280.667 69.4527 280.667 70.0902C280.667 70.556 281.035 71.0219 281.624 71.0219C282.359 71.0219 282.997 70.3354 282.997 69.6979ZM277.872 86.2241C277.504 87.7198 276.303 89.3135 274.807 89.3135C274.415 89.3135 274.047 89.2154 273.998 89.1909C274.758 88.8231 274.856 88.1611 274.856 87.9404C274.856 87.352 274.415 87.0332 273.9 87.0332C273.188 87.0332 272.526 87.6462 272.526 88.4553C272.526 89.3871 273.434 90.0001 274.831 90.0001C276.327 90.0001 279.025 89.0683 279.76 86.126L281.967 77.348C282.041 77.0537 282.09 76.8576 282.09 76.4898C282.09 75.1412 281.011 74.1849 279.589 74.1849C276.989 74.1849 275.469 77.6177 275.469 77.9364C275.469 78.1571 275.641 78.2552 275.837 78.2552C276.106 78.2552 276.131 78.1816 276.303 77.8138C277.038 76.122 278.289 74.8715 279.515 74.8715C280.03 74.8715 280.324 75.2148 280.324 76.0239C280.324 76.3672 280.251 76.7105 280.177 77.0537L277.872 86.2241Z" fill="black"/>
<path d="M302.744 76.833C303.112 76.833 303.603 76.833 303.603 76.269C303.603 75.7051 303.014 75.7051 302.646 75.7051H287.222C286.855 75.7051 286.266 75.7051 286.266 76.269C286.266 76.833 286.757 76.833 287.124 76.833H302.744ZM302.646 82.0311C303.014 82.0311 303.603 82.0311 303.603 81.4672C303.603 80.9032 303.112 80.9032 302.744 80.9032H287.124C286.757 80.9032 286.266 80.9032 286.266 81.4672C286.266 82.0311 286.855 82.0311 287.222 82.0311H302.646Z" fill="black"/>
<path d="M312.784 69.3789C312.784 68.7169 312.735 68.6924 312.073 68.6924C311.067 69.6732 309.768 70.2616 307.438 70.2616V71.0708C308.1 71.0708 309.424 71.0708 310.846 70.4088V82.9873C310.846 83.8945 310.773 84.1888 308.443 84.1888H307.585V84.9979C308.59 84.9244 310.699 84.9244 311.803 84.9244C312.906 84.9244 315.04 84.9244 316.045 84.9979V84.1888H315.187C312.857 84.1888 312.784 83.8945 312.784 82.9873V69.3789Z" fill="black"/>
<path d="M332.358 65.7377C333.351 65.7377 335.852 65.6641 337.618 65.0021C340.413 63.9355 340.67 61.8023 340.67 61.1402C340.67 59.522 339.273 58.0508 336.845 58.0508C332.983 58.0508 327.429 61.5448 327.429 68.0916C327.429 71.9534 329.636 74.6383 332.983 74.6383C337.985 74.6383 341.149 70.7397 341.149 70.2615C341.149 70.0409 340.928 69.857 340.781 69.857C340.67 69.857 340.634 69.8937 340.303 70.2248C337.949 73.351 334.454 73.9027 333.057 73.9027C330.96 73.9027 329.857 72.2476 329.857 69.5259C329.857 69.011 329.857 68.0916 330.408 65.7377H332.358ZM330.592 65.0021C332.174 59.3381 335.668 58.7864 336.845 58.7864C338.464 58.7864 339.567 59.7426 339.567 61.1402C339.567 65.0021 333.682 65.0021 332.137 65.0021H330.592Z" fill="black"/>
<path d="M354.751 53.2144C353.672 53.4841 353.623 54.4404 353.623 54.5384C353.623 55.0779 354.04 55.4457 354.579 55.4457C355.119 55.4457 355.953 55.0288 355.953 53.9745C355.953 52.5769 354.408 52.1846 353.5 52.1846C352.348 52.1846 351.416 52.9937 350.852 53.95C350.313 52.6504 349.038 52.1846 348.032 52.1846C345.359 52.1846 343.864 55.2495 343.864 55.9361C343.864 56.1567 344.035 56.2548 344.231 56.2548C344.526 56.2548 344.575 56.1322 344.648 55.838C345.212 54.0481 346.683 52.8711 347.959 52.8711C348.915 52.8711 349.381 53.5577 349.381 54.4404C349.381 54.9308 349.087 56.0587 348.89 56.8433C348.719 57.5544 348.179 59.7366 348.057 60.2025C347.713 61.5265 346.831 62.5564 345.727 62.5564C345.629 62.5564 344.991 62.5564 344.477 62.2131C345.605 61.9434 345.605 60.9135 345.605 60.889C345.605 60.3251 345.163 59.9818 344.624 59.9818C343.962 59.9818 343.25 60.5457 343.25 61.4775C343.25 62.6054 344.452 63.2429 345.703 63.2429C347.002 63.2429 347.91 62.2621 348.351 61.4775C348.89 62.679 350.018 63.2429 351.195 63.2429C353.868 63.2429 355.339 60.178 355.339 59.4914C355.339 59.2462 355.143 59.1727 354.972 59.1727C354.677 59.1727 354.628 59.3443 354.555 59.5895C354.064 61.2323 352.667 62.5564 351.244 62.5564C350.435 62.5564 349.847 62.0169 349.847 60.9871C349.847 60.4967 349.994 59.9328 350.337 58.5597C350.509 57.8241 351.048 55.6663 351.171 55.2005C351.514 53.9255 352.372 52.8711 353.476 52.8711C353.598 52.8711 354.236 52.8711 354.751 53.2144Z" fill="black"/>
<path d="M365.665 55.2607C365.665 54.709 365.224 54.5251 364.93 54.5251C364.341 54.5251 363.882 55.0952 363.882 55.5366C363.882 55.9228 364.176 56.2722 364.636 56.2722C365.114 56.2722 365.665 55.8124 365.665 55.2607ZM361.748 67.5634C361.399 68.9427 360.314 69.8805 359.247 69.8805C359.192 69.8805 358.677 69.8621 358.677 69.7886C358.677 69.7702 358.732 69.7334 358.732 69.715C359.008 69.4944 359.137 69.2001 359.137 68.9243C359.137 68.3358 358.659 68.2071 358.401 68.2071C357.905 68.2071 357.353 68.6116 357.353 69.2921C357.353 70.2667 358.511 70.4874 359.265 70.4874C360.498 70.4874 362.705 69.7886 363.256 67.5818L364.911 60.9983C364.948 60.8144 365.003 60.6489 365.003 60.3915C365.003 59.3616 364.084 58.626 362.907 58.626C360.829 58.626 359.541 61.1087 359.541 61.4581C359.541 61.5684 359.615 61.7155 359.872 61.7155C360.13 61.7155 360.148 61.642 360.277 61.3845C360.81 60.1892 361.84 59.2329 362.852 59.2329C363.403 59.2329 363.532 59.6926 363.532 60.1524C363.532 60.3915 363.495 60.6489 363.477 60.7041L361.748 67.5634Z" fill="black"/>
<path d="M397.024 34.2563H401.181V33.1897H396.951V28.8865C396.951 25.5764 398.643 23.8845 400.151 23.8845C400.445 23.8845 400.997 23.9581 401.438 24.1787C401.291 24.2155 400.371 24.5465 400.371 25.6131C400.371 26.4591 400.96 27.0475 401.806 27.0475C402.689 27.0475 403.277 26.4591 403.277 25.5764C403.277 24.2155 401.953 23.1489 400.187 23.1489C397.613 23.1489 394.707 25.135 394.707 28.8865V33.1897H391.838V34.2563H394.707V46.3199C394.707 47.975 394.302 47.975 391.911 47.975V49.0416C392.941 48.968 394.964 48.9681 396.068 48.9681C397.061 48.9681 399.672 48.968 400.518 49.0416V47.975H399.783C397.098 47.975 397.024 47.5704 397.024 46.2464V34.2563Z" fill="black"/>
<path d="M418.585 41.1708C418.585 36.4262 414.98 32.6379 410.714 32.6379C406.3 32.6379 402.806 36.5366 402.806 41.1708C402.806 45.8785 406.484 49.4093 410.677 49.4093C415.017 49.4093 418.585 45.805 418.585 41.1708ZM410.714 48.6002C409.353 48.6002 407.698 48.0117 406.631 46.2095C405.638 44.5545 405.601 42.3845 405.601 40.8397C405.601 39.4421 405.601 37.1986 406.741 35.5435C407.771 33.962 409.39 33.3735 410.677 33.3735C412.111 33.3735 413.656 34.0356 414.649 35.47C415.79 37.1618 415.79 39.4789 415.79 40.8397C415.79 42.127 415.79 44.4073 414.833 46.136C413.803 47.9014 412.111 48.6002 410.714 48.6002Z" fill="black"/>
<path d="M425.852 40.4719C425.852 36.9043 427.324 33.5574 430.156 33.5574C430.45 33.5574 430.524 33.5574 430.671 33.5941C430.377 33.7413 429.788 33.9619 429.788 34.955C429.788 36.0216 430.634 36.4262 431.223 36.4262C431.958 36.4262 432.694 35.948 432.694 34.955C432.694 33.8516 431.701 32.8218 430.119 32.8218C426.993 32.8218 425.926 36.2055 425.705 36.9043H425.669V32.8218L420.74 33.2264V34.293C423.241 34.293 423.535 34.5504 423.535 36.3526V46.3198C423.535 47.9749 423.131 47.9749 420.74 47.9749V49.0415C421.77 48.9679 423.793 48.9679 424.896 48.9679C425.889 48.9679 428.501 48.9679 429.347 49.0415V47.9749H428.611C425.926 47.9749 425.852 47.5703 425.852 46.2462V40.4719Z" fill="black"/>
<path d="M452.299 43.7823C452.299 43.5984 452.152 43.4513 451.931 43.4513C451.6 43.4513 451.563 43.5616 451.379 44.1869C450.423 47.5338 448.915 48.6739 447.701 48.6739C447.26 48.6739 446.745 48.5636 446.745 47.4602C446.745 46.4672 447.186 45.3638 447.591 44.2604L450.165 37.4195C450.276 37.1252 450.533 36.4632 450.533 35.7644C450.533 34.2196 449.43 32.822 447.627 32.822C444.243 32.822 442.883 38.155 442.883 38.4493C442.883 38.5964 443.03 38.7803 443.287 38.7803C443.618 38.7803 443.655 38.6332 443.802 38.1183C444.685 35.0288 446.083 33.5576 447.517 33.5576C447.848 33.5576 448.473 33.5944 448.473 34.7713C448.473 35.7276 447.995 36.9413 447.701 37.7505L445.126 44.5914C444.906 45.1799 444.685 45.7684 444.685 46.4304C444.685 48.0855 445.825 49.4095 447.591 49.4095C450.975 49.4095 452.299 44.0397 452.299 43.7823ZM452.004 26.0914C452.004 25.5397 451.563 24.8777 450.754 24.8777C449.908 24.8777 448.952 25.6868 448.952 26.6431C448.952 27.5626 449.724 27.8568 450.165 27.8568C451.159 27.8568 452.004 26.9006 452.004 26.0914Z" fill="black"/>
<path d="M489.221 37.125C489.736 37.125 490.398 37.125 490.398 36.463C490.398 35.7642 489.772 35.7642 489.221 35.7642H467.556C467.041 35.7642 466.379 35.7642 466.379 36.4262C466.379 37.125 467.004 37.125 467.556 37.125H489.221ZM489.221 43.966C489.736 43.966 490.398 43.966 490.398 43.3039C490.398 42.6051 489.772 42.6051 489.221 42.6051H467.556C467.041 42.6051 466.379 42.6051 466.379 43.2672C466.379 43.966 467.004 43.966 467.556 43.966H489.221Z" fill="black"/>
<path d="M513.215 25.466C513.215 24.62 513.215 24.5833 512.479 24.5833C511.597 25.5763 509.758 26.9371 505.969 26.9371V28.0037C506.815 28.0037 508.654 28.0037 510.677 27.0475V46.2095C510.677 47.5336 510.567 47.9749 507.33 47.9749H506.19V49.0415C507.183 48.968 510.751 48.968 511.964 48.968C513.178 48.968 516.709 48.968 517.702 49.0415V47.9749H516.562C513.325 47.9749 513.215 47.5336 513.215 46.2095V25.466Z" fill="black"/>
<path d="M527.802 49.1886C527.802 47.0554 527.103 45.4739 525.595 45.4739C524.418 45.4739 523.829 46.4301 523.829 47.2393C523.829 48.0484 524.381 49.0415 525.632 49.0415C526.11 49.0415 526.514 48.8944 526.845 48.5633C526.919 48.4898 526.956 48.4898 526.993 48.4898C527.066 48.4898 527.066 49.0047 527.066 49.1886C527.066 50.4023 526.845 52.793 524.712 55.1836C524.308 55.625 524.308 55.6985 524.308 55.7721C524.308 55.956 524.491 56.1399 524.675 56.1399C524.97 56.1399 527.802 53.4182 527.802 49.1886Z" fill="black"/>
<path d="M552.948 42.8626H552.139C552.029 43.4879 551.734 45.5107 551.367 46.0992C551.109 46.4302 549.012 46.4302 547.909 46.4302H541.104C542.097 45.5843 544.341 43.2304 545.298 42.3477C550.888 37.1986 552.948 35.286 552.948 31.6449C552.948 27.4153 549.601 24.5833 545.334 24.5833C541.068 24.5833 538.566 28.2244 538.566 31.3874C538.566 33.2632 540.185 33.2632 540.295 33.2632C541.068 33.2632 542.024 32.7115 542.024 31.5346C542.024 30.5047 541.325 29.8059 540.295 29.8059C539.964 29.8059 539.891 29.8059 539.78 29.8427C540.479 27.3417 542.465 25.6499 544.856 25.6499C547.983 25.6499 549.895 28.2612 549.895 31.6449C549.895 34.7711 548.093 37.4928 545.996 39.8467L538.566 48.1588V49.0415H551.992L552.948 42.8626Z" fill="black"/>
<path d="M561.944 49.1886C561.944 47.0554 561.245 45.4739 559.737 45.4739C558.56 45.4739 557.972 46.4301 557.972 47.2393C557.972 48.0484 558.523 49.0415 559.774 49.0415C560.252 49.0415 560.657 48.8944 560.988 48.5633C561.061 48.4898 561.098 48.4898 561.135 48.4898C561.208 48.4898 561.208 49.0047 561.208 49.1886C561.208 50.4023 560.988 52.793 558.854 55.1836C558.45 55.625 558.45 55.6985 558.45 55.7721C558.45 55.956 558.634 56.1399 558.818 56.1399C559.112 56.1399 561.944 53.4182 561.944 49.1886Z" fill="black"/>
<path d="M577.674 35.8377C577.049 35.8745 576.901 35.9113 576.901 36.2423C576.901 36.6101 577.085 36.6101 577.747 36.6101H579.439C582.566 36.6101 583.964 39.1847 583.964 42.7155C583.964 47.5336 581.462 48.8209 579.66 48.8209C577.895 48.8209 574.878 47.9749 573.812 45.5475C574.989 45.7314 576.055 45.0694 576.055 43.7453C576.055 42.6787 575.283 41.9431 574.253 41.9431C573.37 41.9431 572.414 42.458 572.414 43.8556C572.414 47.129 575.688 49.8139 579.77 49.8139C584.148 49.8139 587.384 46.467 587.384 42.7523C587.384 39.3686 584.662 36.7204 581.131 36.0952C584.331 35.1757 586.391 32.4908 586.391 29.622C586.391 26.7165 583.375 24.5833 579.807 24.5833C576.129 24.5833 573.407 26.8268 573.407 29.5117C573.407 30.9829 574.547 31.2771 575.099 31.2771C575.872 31.2771 576.754 30.7254 576.754 29.622C576.754 28.4451 575.872 27.9302 575.062 27.9302C574.842 27.9302 574.768 27.9302 574.658 27.967C576.055 25.466 579.513 25.466 579.697 25.466C580.911 25.466 583.302 26.0177 583.302 29.622C583.302 30.3208 583.191 32.3805 582.124 33.962C581.021 35.5803 579.77 35.6906 578.777 35.7274L577.674 35.8377Z" fill="black"/>
<path d="M596.086 49.1886C596.086 47.0554 595.387 45.4739 593.879 45.4739C592.702 45.4739 592.114 46.4301 592.114 47.2393C592.114 48.0484 592.665 49.0415 593.916 49.0415C594.394 49.0415 594.799 48.8944 595.13 48.5633C595.203 48.4898 595.24 48.4898 595.277 48.4898C595.351 48.4898 595.351 49.0047 595.351 49.1886C595.351 50.4023 595.13 52.793 592.997 55.1836C592.592 55.625 592.592 55.6985 592.592 55.7721C592.592 55.956 592.776 56.1399 592.96 56.1399C593.254 56.1399 596.086 53.4182 596.086 49.1886Z" fill="black"/>
<path d="M611.816 47.2761C611.816 46.2095 610.933 45.4739 610.05 45.4739C608.984 45.4739 608.248 46.3566 608.248 47.2393C608.248 48.3059 609.131 49.0415 610.014 49.0415C611.08 49.0415 611.816 48.1588 611.816 47.2761Z" fill="black"/>
<path d="M627.95 47.2761C627.95 46.2095 627.068 45.4739 626.185 45.4739C625.118 45.4739 624.383 46.3566 624.383 47.2393C624.383 48.3059 625.265 49.0415 626.148 49.0415C627.215 49.0415 627.95 48.1588 627.95 47.2761Z" fill="black"/>
<path d="M644.085 47.2761C644.085 46.2095 643.202 45.4739 642.319 45.4739C641.253 45.4739 640.517 46.3566 640.517 47.2393C640.517 48.3059 641.4 49.0415 642.283 49.0415C643.349 49.0415 644.085 48.1588 644.085 47.2761Z" fill="black"/>
<path d="M660.624 49.1886C660.624 47.0554 659.925 45.4739 658.417 45.4739C657.24 45.4739 656.652 46.4301 656.652 47.2393C656.652 48.0484 657.203 49.0415 658.454 49.0415C658.932 49.0415 659.337 48.8944 659.668 48.5633C659.741 48.4898 659.778 48.4898 659.815 48.4898C659.888 48.4898 659.888 49.0047 659.888 49.1886C659.888 50.4023 659.668 52.793 657.534 55.1836C657.13 55.625 657.13 55.6985 657.13 55.7721C657.13 55.956 657.314 56.1399 657.498 56.1399C657.792 56.1399 660.624 53.4182 660.624 49.1886Z" fill="black"/>
<path d="M677.163 38.2651C677.237 38.0444 678.156 36.2055 679.517 35.0285C680.473 34.1458 681.724 33.5574 683.159 33.5574C684.63 33.5574 685.145 34.6607 685.145 36.1319C685.145 38.2283 683.637 42.4212 682.901 44.4073C682.57 45.29 682.386 45.7681 682.386 46.4301C682.386 48.0852 683.526 49.4093 685.292 49.4093C688.713 49.4093 690 44.0027 690 43.782C690 43.5981 689.853 43.451 689.632 43.451C689.301 43.451 689.264 43.5614 689.08 44.1866C688.234 47.2025 686.837 48.6737 685.402 48.6737C685.034 48.6737 684.446 48.6369 684.446 47.46C684.446 46.5405 684.85 45.4371 685.071 44.9222C685.807 42.8993 687.352 38.78 687.352 36.6836C687.352 34.4768 686.064 32.8218 683.269 32.8218C679.995 32.8218 678.267 35.1389 677.604 36.0584C677.494 33.9619 675.986 32.8218 674.368 32.8218C673.191 32.8218 672.381 33.5206 671.756 34.7711C671.094 36.0951 670.579 38.3019 670.579 38.449C670.579 38.5961 670.726 38.78 670.984 38.78C671.278 38.78 671.315 38.7433 671.535 37.8973C672.124 35.6538 672.786 33.5574 674.257 33.5574C675.103 33.5574 675.398 34.1458 675.398 35.2492C675.398 36.0584 675.03 37.4928 674.772 38.6329L673.742 42.6051C673.595 43.3039 673.191 44.959 673.007 45.621C672.749 46.5773 672.345 48.3059 672.345 48.4898C672.345 49.0047 672.749 49.4093 673.301 49.4093C673.742 49.4093 674.257 49.1886 674.552 48.6369C674.625 48.453 674.956 47.1657 675.14 46.4301L675.949 43.12L677.163 38.2651Z" fill="black"/>
</g>
<defs>
<clipPath id="clip0_1295_4720">
<rect width="690" height="90" fill="white"/>
</clipPath>
</defs>
</svg>
