<svg width="650" height="175" viewBox="0 0 650 175" fill="none" xmlns="http://www.w3.org/2000/svg">
<rect x="165.566" y="45.283" width="100.472" height="110.849" rx="1.88679" fill="#F1F1F1" stroke="black" stroke-width="0.943396"/>
<rect x="176.415" y="53.7736" width="100.472" height="110.377" rx="1.88679" fill="#F1F1F1" stroke="black" stroke-width="0.943396"/>
<rect x="186.557" y="62.5" width="100.943" height="111.321" rx="2.12264" fill="#F1F1F1" stroke="black" stroke-width="0.471698"/>
<rect x="186.792" y="62.7359" width="100.472" height="110.849" rx="1.88679" fill="#F1F1F1" stroke="black" stroke-width="0.943396"/>
<rect x="382.547" y="62.7359" width="62.2642" height="68.8679" rx="1.88679" fill="#F1F1F1" stroke="black" stroke-width="0.943396"/>
<rect x="389.151" y="67.9245" width="62.2642" height="68.8679" rx="1.88679" fill="#F1F1F1" stroke="black" stroke-width="0.943396"/>
<rect x="395.519" y="73.3491" width="62.7359" height="69.3396" rx="2.12264" fill="#F1F1F1" stroke="black" stroke-width="0.471698"/>
<rect x="395.755" y="73.5849" width="62.2642" height="68.8679" rx="1.88679" fill="#F1F1F1" stroke="black" stroke-width="0.943396"/>
<rect x="402.83" y="80.6604" width="62.2642" height="68.8679" rx="1.88679" fill="#F1F1F1" stroke="black" stroke-width="0.943396"/>
<rect x="409.906" y="88.2075" width="62.2642" height="68.8679" rx="1.88679" fill="#F1F1F1" stroke="black" stroke-width="0.943396"/>
<rect x="489.387" y="73.3491" width="15.566" height="17.4528" rx="2.12264" fill="#F1F1F1" stroke="black" stroke-width="0.471698"/>
<rect x="491.745" y="75.7075" width="15.566" height="17.4528" rx="2.12264" fill="#F1F1F1" stroke="black" stroke-width="0.471698"/>
<rect x="494.104" y="78.066" width="15.566" height="17.4528" rx="2.12264" fill="#F1F1F1" stroke="black" stroke-width="0.471698"/>
<rect x="496.462" y="80.4245" width="15.566" height="17.4528" rx="2.12264" fill="#F1F1F1" stroke="black" stroke-width="0.471698"/>
<rect x="498.821" y="82.783" width="15.566" height="17.4528" rx="2.12264" fill="#F1F1F1" stroke="black" stroke-width="0.471698"/>
<rect x="501.179" y="85.1415" width="15.566" height="17.4528" rx="2.12264" fill="#F1F1F1" stroke="black" stroke-width="0.471698"/>
<rect x="503.538" y="87.5" width="15.566" height="17.4528" rx="2.12264" fill="#F1F1F1" stroke="black" stroke-width="0.471698"/>
<rect x="505.896" y="89.8585" width="15.566" height="17.4528" rx="2.12264" fill="#F1F1F1" stroke="black" stroke-width="0.471698"/>
<rect x="508.255" y="92.217" width="15.566" height="17.4528" rx="2.12264" fill="#F1F1F1" stroke="black" stroke-width="0.471698"/>
<rect x="510.613" y="94.5755" width="15.566" height="17.4528" rx="2.12264" fill="#F1F1F1" stroke="black" stroke-width="0.471698"/>
<rect x="512.972" y="96.934" width="15.566" height="17.4528" rx="2.12264" fill="#F1F1F1" stroke="black" stroke-width="0.471698"/>
<rect x="515.33" y="99.2925" width="15.566" height="17.4528" rx="2.12264" fill="#F1F1F1" stroke="black" stroke-width="0.471698"/>
<rect x="517.689" y="101.651" width="15.566" height="17.4528" rx="2.12264" fill="#F1F1F1" stroke="black" stroke-width="0.471698"/>
<rect x="520.047" y="104.009" width="15.566" height="17.4528" rx="2.12264" fill="#F1F1F1" stroke="black" stroke-width="0.471698"/>
<rect x="522.406" y="106.368" width="15.566" height="17.4528" rx="2.12264" fill="#F1F1F1" stroke="black" stroke-width="0.471698"/>
<rect x="524.764" y="108.726" width="15.566" height="17.4528" rx="2.12264" fill="#F1F1F1" stroke="black" stroke-width="0.471698"/>
<rect x="527.123" y="111.085" width="15.566" height="17.4528" rx="2.12264" fill="#F1F1F1" stroke="black" stroke-width="0.471698"/>
<rect x="529.481" y="113.443" width="15.566" height="17.4528" rx="2.12264" fill="#F1F1F1" stroke="black" stroke-width="0.471698"/>
<rect x="531.84" y="115.802" width="15.566" height="17.4528" rx="2.12264" fill="#F1F1F1" stroke="black" stroke-width="0.471698"/>
<rect x="534.198" y="118.16" width="15.566" height="17.4528" rx="2.12264" fill="#F1F1F1" stroke="black" stroke-width="0.471698"/>
<rect x="536.557" y="120.519" width="15.566" height="17.4528" rx="2.12264" fill="#F1F1F1" stroke="black" stroke-width="0.471698"/>
<rect x="538.915" y="122.877" width="15.566" height="17.4528" rx="2.12264" fill="#F1F1F1" stroke="black" stroke-width="0.471698"/>
<rect x="560.142" y="75.2358" width="21.2264" height="23.5849" rx="2.12264" fill="#F1F1F1" stroke="black" stroke-width="0.471698"/>
<rect x="567.217" y="82.3113" width="21.2264" height="23.5849" rx="2.12264" fill="#F1F1F1" stroke="black" stroke-width="0.471698"/>
<rect x="574.292" y="90.3302" width="21.2264" height="23.5849" rx="2.12264" fill="#F1F1F1" stroke="black" stroke-width="0.471698"/>
<rect x="581.368" y="97.4056" width="21.2264" height="23.5849" rx="2.12264" fill="#F1F1F1" stroke="black" stroke-width="0.471698"/>
<rect x="308.491" y="101.415" width="46.0629" height="50.8728" rx="1.88679" fill="#F1F1F1" stroke="black" stroke-width="0.943396"/>
<rect x="313.519" y="105.35" width="46.0629" height="50.6542" rx="1.88679" fill="#F1F1F1" stroke="black" stroke-width="0.943396"/>
<rect x="317.967" y="109.142" width="46.7876" height="51.5976" rx="2.24917" fill="#F1F1F1" stroke="black" stroke-width="0.218634"/>
<rect x="318.329" y="109.505" width="46.0629" height="50.8728" rx="1.88679" fill="#F1F1F1" stroke="black" stroke-width="0.943396"/>
<path d="M134.215 8.86699H135.846V15.5142H134.215V8.86699ZM135.196 11.5896H137.355V12.9387H135.196V11.5896ZM128.463 15.9557H130.07V16.8142H134.227V15.9557H135.846V20.1009H128.463V15.9557ZM130.07 18.0406V18.8255H134.227V18.0406H130.07ZM126.906 9.84812H133.59V11.1359H126.906V9.84812ZM130.254 11.4425C131.897 11.4425 133.038 12.2519 133.038 13.4538C133.038 14.6557 131.897 15.4651 130.254 15.4651C128.598 15.4651 127.457 14.6557 127.457 13.4538C127.457 12.2519 128.598 11.4425 130.254 11.4425ZM130.254 12.6321C129.518 12.6321 129.027 12.9264 129.027 13.4538C129.027 13.9934 129.518 14.2755 130.254 14.2755C130.977 14.2755 131.48 13.9934 131.48 13.4538C131.48 12.9264 130.977 12.6321 130.254 12.6321ZM129.432 8.78114H131.063V10.5717H129.432V8.78114ZM140.591 9.45566H141.953V10.4736C141.953 12.7547 140.935 14.7538 138.703 15.5019L137.857 14.1896C139.794 13.5642 140.591 12.0311 140.591 10.4736V9.45566ZM140.935 9.45566H142.247V10.4C142.247 11.9085 142.983 13.3066 144.786 13.883L143.94 15.1585C141.842 14.4349 140.935 12.6076 140.935 10.4V9.45566ZM145.828 8.86699H147.459V15.5142H145.828V8.86699ZM143.608 15.8085C146.012 15.8085 147.496 16.6302 147.496 18.016C147.496 19.4142 146.012 20.2236 143.608 20.2236C141.205 20.2236 139.721 19.4142 139.721 18.016C139.721 16.6302 141.205 15.8085 143.608 15.8085ZM143.608 17.0717C142.137 17.0717 141.352 17.3783 141.352 18.016C141.352 18.6538 142.137 18.9726 143.608 18.9726C145.092 18.9726 145.877 18.6538 145.877 18.016C145.877 17.3783 145.092 17.0717 143.608 17.0717ZM143.756 10.9274H146.061V12.2519H143.756V10.9274ZM150.181 9.2717H157.368V10.5594H150.181V9.2717ZM149.028 13.5887H159.257V14.8764H149.028V13.5887ZM152.818 11.7368H154.437V14.0057H152.818V11.7368ZM156.424 9.2717H158.042V9.98302C158.042 10.7434 158.042 11.7613 157.748 13.0736L156.129 12.9264C156.424 11.6264 156.424 10.7189 156.424 9.98302V9.2717ZM150.23 15.5387H151.849V16.6057H156.411V15.5387H158.018V20.1009H150.23V15.5387ZM151.849 17.8321V18.8132H156.411V17.8321H151.849ZM160.053 14.4717H170.318V15.7594H160.053V14.4717ZM164.37 8.90378H165.989V10.5717H164.37V8.90378ZM164.272 10.6453H165.707V10.866C165.707 12.583 164.063 13.7972 160.96 14.0057L160.482 12.7792C163.217 12.6198 164.272 11.7245 164.272 10.866V10.6453ZM164.652 10.6453H166.087V10.866C166.087 11.7245 167.141 12.6198 169.876 12.7792L169.398 14.0057C166.295 13.7972 164.652 12.583 164.652 10.866V10.6453ZM161.034 9.88491H169.337V11.1481H161.034V9.88491ZM165.167 16.3726C167.644 16.3726 169.104 17.0594 169.104 18.2981C169.104 19.5491 167.644 20.2236 165.167 20.2236C162.69 20.2236 161.218 19.5491 161.218 18.2981C161.218 17.0594 162.69 16.3726 165.167 16.3726ZM165.167 17.5745C163.622 17.5745 162.873 17.783 162.873 18.2981C162.873 18.8009 163.622 19.0217 165.167 19.0217C166.7 19.0217 167.46 18.8009 167.46 18.2981C167.46 17.783 166.7 17.5745 165.167 17.5745Z" fill="black"/>
<path d="M275.914 9.12453H284.376V10.3387H275.914V9.12453ZM276 11.7368H284.291V12.9509H276V11.7368ZM277.361 9.60283H278.992V12.5708H277.361V9.60283ZM281.298 9.60283H282.929V12.5708H281.298V9.60283ZM275.019 13.5396H285.284V14.8151H275.019V13.5396ZM279.324 14.3123H280.955V15.8943H279.324V14.3123ZM276.196 15.5387H284.045V18.3594H277.815V19.4142H276.209V17.2679H282.439V16.7038H276.196V15.5387ZM276.209 18.9604H284.34V20.15H276.209V18.9604ZM293.868 8.87925H295.511V15.7594H293.868V8.87925ZM286.657 13.9934H287.65C289.858 13.9934 291.292 13.9443 292.936 13.6745L293.12 14.9745C291.427 15.2689 289.919 15.3057 287.65 15.3057H286.657V13.9934ZM286.644 9.54151H291.869V13H288.263V14.7292H286.657V11.7859H290.262V10.8415H286.644V9.54151ZM291.685 15.9679C294.089 15.9679 295.585 16.7406 295.585 18.1019C295.585 19.4509 294.089 20.2359 291.685 20.2359C289.281 20.2359 287.809 19.4509 287.809 18.1019C287.809 16.7406 289.281 15.9679 291.685 15.9679ZM291.685 17.2311C290.201 17.2311 289.428 17.5009 289.428 18.1019C289.428 18.6906 290.201 18.9726 291.685 18.9726C293.181 18.9726 293.954 18.6906 293.954 18.1019C293.954 17.5009 293.181 17.2311 291.685 17.2311ZM297.117 14.4717H307.382V15.7594H297.117V14.4717ZM301.434 8.90378H303.053V10.5717H301.434V8.90378ZM301.336 10.6453H302.771V10.866C302.771 12.583 301.127 13.7972 298.025 14.0057L297.546 12.7792C300.281 12.6198 301.336 11.7245 301.336 10.866V10.6453ZM301.716 10.6453H303.151V10.866C303.151 11.7245 304.206 12.6198 306.941 12.7792L306.462 14.0057C303.359 13.7972 301.716 12.583 301.716 10.866V10.6453ZM298.098 9.88491H306.401V11.1481H298.098V9.88491ZM302.231 16.3726C304.708 16.3726 306.168 17.0594 306.168 18.2981C306.168 19.5491 304.708 20.2236 302.231 20.2236C299.754 20.2236 298.282 19.5491 298.282 18.2981C298.282 17.0594 299.754 16.3726 302.231 16.3726ZM302.231 17.5745C300.686 17.5745 299.938 17.783 299.938 18.2981C299.938 18.8009 300.686 19.0217 302.231 19.0217C303.764 19.0217 304.525 18.8009 304.525 18.2981C304.525 17.783 303.764 17.5745 302.231 17.5745Z" fill="black"/>
<path d="M353.555 8.86699H355.186V15.5142H353.555V8.86699ZM354.536 11.5896H356.695V12.9387H354.536V11.5896ZM347.803 15.9557H349.41V16.8142H353.567V15.9557H355.186V20.1009H347.803V15.9557ZM349.41 18.0406V18.8255H353.567V18.0406H349.41ZM346.245 9.84812H352.929V11.1359H346.245V9.84812ZM349.594 11.4425C351.237 11.4425 352.378 12.2519 352.378 13.4538C352.378 14.6557 351.237 15.4651 349.594 15.4651C347.938 15.4651 346.797 14.6557 346.797 13.4538C346.797 12.2519 347.938 11.4425 349.594 11.4425ZM349.594 12.6321C348.858 12.6321 348.367 12.9264 348.367 13.4538C348.367 13.9934 348.858 14.2755 349.594 14.2755C350.317 14.2755 350.82 13.9934 350.82 13.4538C350.82 12.9264 350.317 12.6321 349.594 12.6321ZM348.772 8.78114H350.403V10.5717H348.772V8.78114ZM359.931 9.45566H361.293V10.4736C361.293 12.7547 360.275 14.7538 358.043 15.5019L357.196 14.1896C359.134 13.5642 359.931 12.0311 359.931 10.4736V9.45566ZM360.275 9.45566H361.587V10.4C361.587 11.9085 362.323 13.3066 364.126 13.883L363.279 15.1585C361.182 14.4349 360.275 12.6076 360.275 10.4V9.45566ZM365.168 8.86699H366.799V15.5142H365.168V8.86699ZM362.948 15.8085C365.352 15.8085 366.836 16.6302 366.836 18.016C366.836 19.4142 365.352 20.2236 362.948 20.2236C360.544 20.2236 359.061 19.4142 359.061 18.016C359.061 16.6302 360.544 15.8085 362.948 15.8085ZM362.948 17.0717C361.477 17.0717 360.692 17.3783 360.692 18.016C360.692 18.6538 361.477 18.9726 362.948 18.9726C364.432 18.9726 365.217 18.6538 365.217 18.016C365.217 17.3783 364.432 17.0717 362.948 17.0717ZM363.095 10.9274H365.401V12.2519H363.095V10.9274ZM369.521 9.2717H376.708V10.5594H369.521V9.2717ZM368.368 13.5887H378.596V14.8764H368.368V13.5887ZM372.158 11.7368H373.777V14.0057H372.158V11.7368ZM375.763 9.2717H377.382V9.98302C377.382 10.7434 377.382 11.7613 377.088 13.0736L375.469 12.9264C375.763 11.6264 375.763 10.7189 375.763 9.98302V9.2717ZM369.57 15.5387H371.189V16.6057H375.751V15.5387H377.358V20.1009H369.57V15.5387ZM371.189 17.8321V18.8132H375.751V17.8321H371.189ZM379.393 14.4717H389.658V15.7594H379.393V14.4717ZM383.71 8.90378H385.328V10.5717H383.71V8.90378ZM383.611 10.6453H385.046V10.866C385.046 12.583 383.403 13.7972 380.3 14.0057L379.822 12.7792C382.557 12.6198 383.611 11.7245 383.611 10.866V10.6453ZM383.992 10.6453H385.427V10.866C385.427 11.7245 386.481 12.6198 389.216 12.7792L388.738 14.0057C385.635 13.7972 383.992 12.583 383.992 10.866V10.6453ZM380.374 9.88491H388.677V11.1481H380.374V9.88491ZM384.507 16.3726C386.984 16.3726 388.444 17.0594 388.444 18.2981C388.444 19.5491 386.984 20.2236 384.507 20.2236C382.029 20.2236 380.558 19.5491 380.558 18.2981C380.558 17.0594 382.029 16.3726 384.507 16.3726ZM384.507 17.5745C382.961 17.5745 382.213 17.783 382.213 18.2981C382.213 18.8009 382.961 19.0217 384.507 19.0217C386.04 19.0217 386.8 18.8009 386.8 18.2981C386.8 17.783 386.04 17.5745 384.507 17.5745Z" fill="black"/>
<path d="M463.326 5.64151H464.581V6.96226H463.326V5.64151ZM463.94 2.45283C465.204 2.45283 466.119 3.17924 466.119 4.23585C466.119 5.27358 465.204 6 463.94 6C462.675 6 461.76 5.27358 461.76 4.23585C461.76 3.17924 462.675 2.45283 463.94 2.45283ZM463.94 3.39623C463.345 3.39623 462.93 3.69811 462.93 4.23585C462.93 4.76415 463.345 5.06604 463.94 5.06604C464.543 5.06604 464.949 4.76415 464.949 4.23585C464.949 3.69811 464.543 3.39623 463.94 3.39623ZM467.015 2.11321H468.27V8.77358H467.015V2.11321ZM467.826 4.84906H469.364V5.87736H467.826V4.84906ZM462.44 9.67925H468.562V10.6887H462.44V9.67925ZM462.44 8.19811H463.704V10.1132H462.44V8.19811ZM461.449 7.64151L461.308 6.64151C462.789 6.64151 464.836 6.63208 466.553 6.38679L466.638 7.28302C464.874 7.61321 462.892 7.64151 461.449 7.64151ZM474.514 4.35849H476.552V5.36792H474.514V4.35849ZM475.892 2.11321H477.146V8.48113H475.892V2.11321ZM471.382 9.68868H477.345V10.6887H471.382V9.68868ZM471.382 7.9434H472.637V10.283H471.382V7.9434ZM471.854 3.25472H472.873V3.80189C472.873 5.4434 472.099 6.96226 470.42 7.51887L469.788 6.51887C471.231 6.04717 471.854 4.90566 471.854 3.80189V3.25472ZM472.118 3.25472H473.128V3.80189C473.128 4.82075 473.722 5.90566 475.099 6.36792L474.486 7.34906C472.863 6.81132 472.118 5.35849 472.118 3.80189V3.25472ZM470.128 2.69811H474.826V3.68868H470.128V2.69811ZM461.039 17.3208H463.605V18.3208H461.039V17.3208ZM461.039 19.4434H463.605V20.4434H461.039V19.4434ZM463.143 16.1132H464.398V22.5H463.143V16.1132ZM458.633 23.6887H464.596V24.6887H458.633V23.6887ZM458.633 21.8679H459.888V24.2075H458.633V21.8679ZM459.501 16.6226C460.794 16.6226 461.803 17.566 461.803 18.8868C461.803 20.1887 460.794 21.1415 459.501 21.1415C458.199 21.1415 457.19 20.1887 457.19 18.8868C457.19 17.566 458.199 16.6226 459.501 16.6226ZM459.501 17.7264C458.86 17.7264 458.388 18.1604 458.388 18.8868C458.388 19.6132 458.86 20.0472 459.501 20.0472C460.133 20.0472 460.615 19.6132 460.615 18.8868C460.615 18.1604 460.133 17.7264 459.501 17.7264ZM471.642 16.1038H472.897V20.4906H471.642V16.1038ZM468.727 16.434H470.095C470.095 18.7547 468.755 20.1132 466.104 20.6887L465.689 19.6792C467.878 19.2453 468.727 18.283 468.727 17.1132V16.434ZM466.189 16.434H469.255V17.434H466.189V16.434ZM469.755 17.1887H471.802V18.1415H469.755V17.1887ZM469.699 18.8868H471.755V19.8302H469.699V18.8868ZM467.123 20.8113H472.897V23.217H468.397V24.3019H467.142V22.2925H471.642V21.7925H467.123V20.8113ZM467.142 23.7736H473.076V24.7547H467.142V23.7736ZM474.085 20.4151H481.981V21.4057H474.085V20.4151ZM477.405 16.1321H478.651V17.4151H477.405V16.1321ZM477.33 17.4717H478.434V17.6415C478.434 18.9623 477.17 19.8962 474.783 20.0566L474.415 19.1132C476.519 18.9906 477.33 18.3019 477.33 17.6415V17.4717ZM477.622 17.4717H478.726V17.6415C478.726 18.3019 479.538 18.9906 481.641 19.1132L481.273 20.0566C478.887 19.8962 477.622 18.9623 477.622 17.6415V17.4717ZM474.839 16.8868H481.226V17.8585H474.839V16.8868ZM478.019 21.8774C479.924 21.8774 481.047 22.4057 481.047 23.3585C481.047 24.3208 479.924 24.8396 478.019 24.8396C476.113 24.8396 474.981 24.3208 474.981 23.3585C474.981 22.4057 476.113 21.8774 478.019 21.8774ZM478.019 22.8019C476.83 22.8019 476.255 22.9623 476.255 23.3585C476.255 23.7453 476.83 23.9151 478.019 23.9151C479.198 23.9151 479.783 23.7453 479.783 23.3585C479.783 22.9623 479.198 22.8019 478.019 22.8019Z" fill="black"/>
<path d="M523.614 13.6227H524.869V14.8868H523.614V13.6227ZM520.313 12.8868H528.181V13.8019H520.313V12.8868ZM523.614 9.16984H524.86V10.2264H523.614V9.16984ZM523.539 10.283H524.643V10.4529C524.643 11.7076 523.369 12.5378 520.954 12.6698L520.605 11.7359C522.737 11.651 523.539 11.0566 523.539 10.4529V10.283ZM523.831 10.283H524.935V10.4529C524.935 11.0566 525.737 11.651 527.86 11.7359L527.511 12.6698C525.105 12.5378 523.831 11.7076 523.831 10.4529V10.283ZM521.048 9.85852H527.435V10.7736H521.048V9.85852ZM521.199 14.3302H527.237V16.4906H522.445V17.3208H521.209V15.651H526.001V15.2359H521.199V14.3302ZM521.209 16.9434H527.464V17.8585H521.209V16.9434ZM529.123 13.3397H529.793C531.416 13.3397 532.265 13.3113 533.255 13.1321L533.378 14.1227C532.359 14.3113 531.463 14.3397 529.793 14.3397H529.123V13.3397ZM529.114 9.67927H532.953V12.434H530.368V14H529.123V11.5H531.708V10.6698H529.114V9.67927ZM534.85 9.18871H536.104V14.5661H534.85V9.18871ZM533.453 10.3868H535.076V11.3868H533.453V10.3868ZM533.453 12.2453H535.076V13.2453H533.453V12.2453ZM530.123 14.9623H536.104V17.9246H534.85V15.9623H530.123V14.9623ZM537.292 13.4906H545.188V14.4812H537.292V13.4906ZM540.613 9.20758H541.858V10.4906H540.613V9.20758ZM540.538 10.5472H541.641V10.717C541.641 12.0378 540.377 12.9717 537.99 13.1321L537.622 12.1887C539.726 12.0661 540.538 11.3774 540.538 10.717V10.5472ZM540.83 10.5472H541.934V10.717C541.934 11.3774 542.745 12.0661 544.849 12.1887L544.481 13.1321C542.094 12.9717 540.83 12.0378 540.83 10.717V10.5472ZM538.047 9.96229H544.434V10.934H538.047V9.96229ZM541.226 14.9529C543.132 14.9529 544.255 15.4812 544.255 16.434C544.255 17.3963 543.132 17.9151 541.226 17.9151C539.321 17.9151 538.188 17.3963 538.188 16.434C538.188 15.4812 539.321 14.9529 541.226 14.9529ZM541.226 15.8774C540.038 15.8774 539.462 16.0378 539.462 16.434C539.462 16.8208 540.038 16.9906 541.226 16.9906C542.405 16.9906 542.99 16.8208 542.99 16.434C542.99 16.0378 542.405 15.8774 541.226 15.8774Z" fill="black"/>
<g clip-path="url(#clip0_1456_2056)">
<path d="M124.764 44.8113H5.42454C2.44102 44.8113 0 47.2524 0 50.2359V169.575C0 172.559 2.44102 175 5.42454 175H124.764C127.748 175 130.189 172.559 130.189 169.575V50.2359C130.189 47.2524 127.748 44.8113 124.764 44.8113Z" fill="#F2F2F2"/>
<path d="M120.696 54.3041H9.49316V144.08H120.696V54.3041Z" fill="#84DBFF"/>
<path d="M67.8068 144.08H9.49316V121.297C14.1039 119.941 19.2572 119.399 24.4105 119.399C30.9201 119.399 37.4294 120.484 42.8539 122.654C44.4812 123.196 45.8374 123.739 47.1934 124.552C56.6868 128.891 64.0098 135.672 67.8068 144.08Z" fill="#334A5E"/>
<path d="M120.696 115.33V144.08H33.0898C35.5309 136.486 40.6841 129.705 47.465 124.28C58.5853 115.33 74.3164 109.905 92.2173 109.905C102.253 109.906 112.288 111.804 120.696 115.33Z" fill="#40596B"/>
<path d="M31.7336 87.6651C37.8752 87.6651 42.8539 82.6864 42.8539 76.5448C42.8539 70.4032 37.8752 65.4244 31.7336 65.4244C25.592 65.4244 20.6133 70.4032 20.6133 76.5448C20.6133 82.6864 25.592 87.6651 31.7336 87.6651Z" fill="white"/>
<path d="M112.559 71.1202C112.83 70.3065 112.83 69.493 112.83 68.6792C112.83 64.3397 109.304 60.5424 104.693 60.5424C101.71 60.5424 98.9975 62.1697 97.6414 64.6107C96.8277 64.0682 95.7429 64.0682 94.6579 64.0682C90.8606 64.0682 87.8774 66.7805 87.3349 70.3065C85.1651 70.849 83.5376 72.7475 83.5376 74.9173C83.5376 77.6295 85.7074 79.7993 88.4196 79.7993H109.847C112.559 79.7993 114.729 77.6295 114.729 74.9173C114.729 73.29 113.915 71.934 112.559 71.1202Z" fill="white"/>
<rect x="52.3584" y="80.1887" width="21.2264" height="24.0566" fill="#84DBFF" stroke="black" stroke-width="0.943396"/>
</g>
<path d="M597.689 77.283H596.245V72.8233H597.734C598.171 72.8233 598.547 72.9126 598.86 73.0912C599.174 73.2683 599.414 73.5231 599.581 73.8555C599.749 74.1865 599.833 74.5835 599.833 75.0466C599.833 75.5112 599.749 75.9104 599.579 76.2443C599.41 76.5782 599.166 76.8352 598.847 77.0152C598.528 77.1937 598.142 77.283 597.689 77.283ZM596.918 76.6951H597.652C597.991 76.6951 598.274 76.6312 598.499 76.5034C598.724 76.3742 598.892 76.1877 599.004 75.9438C599.116 75.6985 599.172 75.3994 599.172 75.0466C599.172 74.6968 599.116 74.3999 599.004 74.156C598.894 73.9121 598.729 73.727 598.51 73.6007C598.29 73.4744 598.018 73.4113 597.693 73.4113H596.918V76.6951ZM601.91 77.3505C601.597 77.3505 601.323 77.2787 601.089 77.1349C600.856 76.9912 600.674 76.7902 600.545 76.5318C600.416 76.2733 600.351 75.9714 600.351 75.6259C600.351 75.2789 600.416 74.9755 600.545 74.7156C600.674 74.4558 600.856 74.254 601.089 74.1103C601.323 73.9666 601.597 73.8947 601.91 73.8947C602.224 73.8947 602.498 73.9666 602.731 74.1103C602.965 74.254 603.147 74.4558 603.276 74.7156C603.405 74.9755 603.47 75.2789 603.47 75.6259C603.47 75.9714 603.405 76.2733 603.276 76.5318C603.147 76.7902 602.965 76.9912 602.731 77.1349C602.498 77.2787 602.224 77.3505 601.91 77.3505ZM601.913 76.804C602.116 76.804 602.284 76.7502 602.418 76.6428C602.551 76.5354 602.65 76.3924 602.714 76.2138C602.779 76.0353 602.812 75.8386 602.812 75.6237C602.812 75.4103 602.779 75.2143 602.714 75.0358C602.65 74.8557 602.551 74.7113 602.418 74.6024C602.284 74.4935 602.116 74.4391 601.913 74.4391C601.708 74.4391 601.538 74.4935 601.403 74.6024C601.269 74.7113 601.17 74.8557 601.105 75.0358C601.041 75.2143 601.009 75.4103 601.009 75.6237C601.009 75.8386 601.041 76.0353 601.105 76.2138C601.17 76.3924 601.269 76.5354 601.403 76.6428C601.538 76.7502 601.708 76.804 601.913 76.804ZM605.482 78.607C605.216 78.607 604.988 78.5721 604.796 78.5025C604.606 78.4328 604.451 78.3406 604.33 78.2259C604.21 78.1112 604.12 77.9857 604.06 77.8492L604.62 77.6184C604.659 77.6822 604.711 77.7497 604.777 77.8209C604.843 77.8935 604.933 77.9552 605.047 78.006C605.161 78.0568 605.309 78.0822 605.489 78.0822C605.735 78.0822 605.939 78.0219 606.101 77.9015C606.262 77.7824 606.342 77.5922 606.342 77.3309V76.6733H606.301C606.262 76.7444 606.205 76.8235 606.131 76.9107C606.058 76.9978 605.958 77.0732 605.831 77.1371C605.703 77.201 605.537 77.2329 605.332 77.2329C605.068 77.2329 604.83 77.1712 604.618 77.0478C604.407 76.923 604.24 76.7393 604.117 76.4969C603.995 76.253 603.934 75.9532 603.934 75.5976C603.934 75.2419 603.994 74.937 604.115 74.683C604.237 74.4289 604.404 74.2344 604.615 74.0994C604.827 73.9629 605.068 73.8947 605.336 73.8947C605.544 73.8947 605.712 73.9295 605.839 73.9992C605.967 74.0675 606.066 74.1473 606.138 74.2388C606.21 74.3302 606.266 74.4108 606.305 74.4805H606.353V73.9383H606.991V77.3571C606.991 77.6445 606.924 77.8804 606.791 78.0648C606.657 78.2491 606.477 78.3856 606.249 78.4742C606.022 78.5627 605.767 78.607 605.482 78.607ZM605.476 76.6929C605.663 76.6929 605.821 76.6493 605.95 76.5622C606.081 76.4737 606.18 76.3474 606.246 76.1833C606.315 76.0178 606.349 75.8197 606.349 75.5889C606.349 75.3638 606.315 75.1657 606.249 74.9944C606.182 74.8231 606.084 74.6895 605.955 74.5937C605.825 74.4964 605.666 74.4478 605.476 74.4478C605.28 74.4478 605.116 74.4986 604.986 74.6002C604.855 74.7004 604.756 74.8369 604.689 75.0096C604.624 75.1824 604.592 75.3755 604.592 75.5889C604.592 75.8081 604.625 76.0004 604.692 76.1659C604.758 76.3314 604.857 76.4606 604.988 76.5535C605.12 76.6464 605.283 76.6929 605.476 76.6929ZM609.444 75.0532C609.444 74.5073 609.516 74.005 609.659 73.5463C609.803 73.0875 610.013 72.6644 610.289 72.2768H610.885C610.778 72.4205 610.678 72.5969 610.585 72.8059C610.492 73.015 610.411 73.2443 610.341 73.494C610.271 73.7423 610.217 73.9999 610.178 74.2671C610.138 74.5327 610.119 74.7948 610.119 75.0532C610.119 75.3987 610.153 75.7485 610.221 76.1028C610.289 76.457 610.381 76.7858 610.498 77.0892C610.614 77.3926 610.743 77.6401 610.885 77.8318H610.289C610.013 77.4442 609.803 77.021 609.659 76.5622C609.516 76.1035 609.444 75.6005 609.444 75.0532ZM612.999 77.3571C612.655 77.3556 612.361 77.2649 612.117 77.0849C611.873 76.9048 611.687 76.6428 611.558 76.2988C611.428 75.9547 611.364 75.5402 611.364 75.0554C611.364 74.5719 611.428 74.1589 611.558 73.8163C611.688 73.4737 611.875 73.2124 612.119 73.0324C612.365 72.8524 612.658 72.7624 612.999 72.7624C613.34 72.7624 613.633 72.8531 613.877 73.0346C614.121 73.2146 614.307 73.4759 614.436 73.8185C614.567 74.1596 614.632 74.5719 614.632 75.0554C614.632 75.5417 614.568 75.9569 614.439 76.3009C614.309 76.6435 614.123 76.9056 613.879 77.087C613.635 77.2671 613.342 77.3571 612.999 77.3571ZM612.999 76.7756C613.301 76.7756 613.537 76.6283 613.707 76.3336C613.878 76.0389 613.964 75.6128 613.964 75.0554C613.964 74.6852 613.925 74.3723 613.846 74.1168C613.769 73.8599 613.658 73.6653 613.513 73.5332C613.369 73.3997 613.198 73.3329 612.999 73.3329C612.699 73.3329 612.463 73.481 612.291 73.7771C612.12 74.0733 612.034 74.4993 612.032 75.0554C612.032 75.427 612.071 75.7413 612.148 75.9982C612.226 76.2537 612.337 76.4476 612.481 76.5797C612.625 76.7103 612.797 76.7756 612.999 76.7756ZM615.564 77.3244C615.445 77.3244 615.343 77.2823 615.257 77.1981C615.172 77.1124 615.129 77.0094 615.129 76.8889C615.129 76.7698 615.172 76.6682 615.257 76.584C615.343 76.4984 615.445 76.4555 615.564 76.4555C615.683 76.4555 615.786 76.4984 615.871 76.584C615.957 76.6682 616 76.7698 616 76.8889C616 76.9687 615.98 77.042 615.939 77.1088C615.9 77.1741 615.847 77.2264 615.782 77.2656C615.717 77.3048 615.644 77.3244 615.564 77.3244ZM618.138 77.3571C617.794 77.3556 617.5 77.2649 617.256 77.0849C617.012 76.9048 616.825 76.6428 616.696 76.2988C616.567 75.9547 616.502 75.5402 616.502 75.0554C616.502 74.5719 616.567 74.1589 616.696 73.8163C616.827 73.4737 617.014 73.2124 617.258 73.0324C617.503 72.8524 617.797 72.7624 618.138 72.7624C618.479 72.7624 618.771 72.8531 619.015 73.0346C619.259 73.2146 619.446 73.4759 619.575 73.8185C619.706 74.1596 619.771 74.5719 619.771 75.0554C619.771 75.5417 619.706 75.9569 619.577 76.3009C619.448 76.6435 619.261 76.9056 619.017 77.087C618.774 77.2671 618.48 77.3571 618.138 77.3571ZM618.138 76.7756C618.44 76.7756 618.676 76.6283 618.845 76.3336C619.017 76.0389 619.102 75.6128 619.102 75.0554C619.102 74.6852 619.063 74.3723 618.985 74.1168C618.908 73.8599 618.797 73.6653 618.652 73.5332C618.508 73.3997 618.337 73.3329 618.138 73.3329C617.837 73.3329 617.601 73.481 617.43 73.7771C617.259 74.0733 617.172 74.4993 617.171 75.0554C617.171 75.427 617.209 75.7413 617.286 75.9982C617.365 76.2537 617.476 76.4476 617.619 76.5797C617.763 76.7103 617.936 76.7756 618.138 76.7756ZM622.119 72.8233V77.283H621.444V73.4984H621.418L620.351 74.1952V73.5506L621.463 72.8233H622.119ZM624.47 75.0532C624.47 75.6005 624.398 76.1035 624.254 76.5622C624.11 77.021 623.9 77.4442 623.625 77.8318H623.028C623.135 77.6881 623.236 77.5117 623.328 77.3026C623.421 77.0936 623.503 76.8649 623.572 76.6167C623.642 76.367 623.696 76.1086 623.736 75.8415C623.775 75.5743 623.794 75.3116 623.794 75.0532C623.794 74.7091 623.76 74.36 623.692 74.0058C623.624 73.6515 623.532 73.3227 623.416 73.0193C623.299 72.7159 623.17 72.4684 623.028 72.2768H623.625C623.9 72.6644 624.11 73.0875 624.254 73.5463C624.398 74.005 624.47 74.5073 624.47 75.0532Z" fill="black"/>
<path d="M609.383 86.0661H608.703C608.677 85.9209 608.628 85.7932 608.557 85.6828C608.486 85.5725 608.399 85.4789 608.296 85.4019C608.193 85.325 608.077 85.2669 607.95 85.2277C607.823 85.1885 607.689 85.1689 607.547 85.1689C607.29 85.1689 607.06 85.2335 606.857 85.3627C606.655 85.4919 606.495 85.6814 606.377 85.9311C606.261 86.1808 606.203 86.4856 606.203 86.8457C606.203 87.2086 606.261 87.5149 606.377 87.7646C606.495 88.0143 606.655 88.203 606.859 88.3308C607.062 88.4585 607.291 88.5224 607.545 88.5224C607.685 88.5224 607.819 88.5035 607.945 88.4658C608.073 88.4266 608.188 88.3692 608.292 88.2937C608.395 88.2183 608.482 88.1261 608.553 88.0172C608.625 87.9069 608.676 87.7806 608.703 87.6383L609.383 87.6405C609.346 87.8597 609.276 88.0615 609.171 88.2458C609.068 88.4288 608.935 88.587 608.773 88.7206C608.612 88.8527 608.427 88.955 608.22 89.0276C608.012 89.1002 607.786 89.1365 607.54 89.1365C607.154 89.1365 606.81 89.045 606.508 88.8621C606.206 88.6777 605.968 88.4142 605.794 88.0716C605.621 87.729 605.535 87.3204 605.535 86.8457C605.535 86.3695 605.622 85.9608 605.796 85.6197C605.97 85.2771 606.208 85.0143 606.51 84.8314C606.812 84.647 607.156 84.5548 607.54 84.5548C607.777 84.5548 607.998 84.589 608.202 84.6572C608.408 84.724 608.593 84.8227 608.758 84.9533C608.922 85.0825 609.057 85.2408 609.165 85.428C609.272 85.6139 609.345 85.8265 609.383 86.0661ZM610.992 89.1495C610.78 89.1495 610.589 89.1103 610.417 89.0319C610.246 88.9521 610.11 88.8367 610.01 88.6857C609.911 88.5347 609.862 88.3496 609.862 88.1304C609.862 87.9417 609.898 87.7864 609.971 87.6644C610.044 87.5425 610.142 87.4459 610.265 87.3748C610.388 87.3037 610.526 87.25 610.679 87.2137C610.831 87.1774 610.986 87.1498 611.145 87.1309C611.345 87.1077 611.508 87.0888 611.632 87.0743C611.757 87.0583 611.848 87.0329 611.905 86.9981C611.961 86.9632 611.99 86.9066 611.99 86.8282V86.813C611.99 86.6228 611.936 86.4755 611.828 86.3709C611.722 86.2664 611.564 86.2142 611.354 86.2142C611.135 86.2142 610.962 86.2628 610.835 86.3601C610.711 86.4559 610.624 86.5626 610.576 86.6802L609.964 86.5408C610.037 86.3376 610.143 86.1735 610.282 86.0487C610.423 85.9224 610.585 85.8309 610.768 85.7743C610.951 85.7162 611.143 85.6872 611.345 85.6872C611.479 85.6872 611.62 85.7031 611.77 85.7351C611.921 85.7656 612.061 85.8222 612.192 85.9049C612.324 85.9877 612.432 86.106 612.517 86.2599C612.601 86.4123 612.643 86.6105 612.643 86.8544V89.0755H612.007V88.6182H611.981C611.939 88.7024 611.876 88.7852 611.791 88.8665C611.707 88.9477 611.599 89.0153 611.467 89.069C611.335 89.1227 611.177 89.1495 610.992 89.1495ZM611.134 88.6269C611.314 88.6269 611.468 88.5914 611.595 88.5202C611.725 88.4491 611.823 88.3562 611.889 88.2415C611.958 88.1253 611.992 88.0012 611.992 87.8691V87.438C611.969 87.4612 611.924 87.483 611.857 87.5033C611.791 87.5222 611.717 87.5389 611.632 87.5534C611.548 87.5664 611.466 87.5788 611.386 87.5904C611.307 87.6006 611.24 87.6093 611.186 87.6165C611.06 87.6325 610.944 87.6593 610.84 87.6971C610.737 87.7348 610.654 87.7893 610.592 87.8604C610.531 87.9301 610.5 88.023 610.5 88.1391C610.5 88.3003 610.56 88.4222 610.679 88.505C610.798 88.5863 610.949 88.6269 611.134 88.6269ZM614.955 85.7307V86.2534H613.128V85.7307H614.955ZM613.618 84.9294H614.269V88.0934C614.269 88.2197 614.288 88.3148 614.326 88.3787C614.363 88.4411 614.412 88.4839 614.471 88.5072C614.532 88.5289 614.599 88.5398 614.67 88.5398C614.722 88.5398 614.768 88.5362 614.807 88.5289C614.846 88.5217 614.877 88.5159 614.898 88.5115L615.016 89.0494C614.978 89.0639 614.924 89.0784 614.855 89.0929C614.785 89.1089 614.698 89.1176 614.593 89.1191C614.422 89.122 614.262 89.0915 614.114 89.0276C613.966 88.9637 613.847 88.865 613.755 88.7314C613.664 88.5979 613.618 88.4302 613.618 88.2284V84.9294ZM617.254 86.8457C617.254 86.2998 617.326 85.7975 617.47 85.3388C617.614 84.88 617.824 84.4568 618.099 84.0692H618.696C618.589 84.213 618.488 84.3893 618.395 84.5984C618.303 84.8074 618.221 85.0368 618.152 85.2865C618.082 85.5347 618.027 85.7924 617.988 86.0595C617.949 86.3252 617.929 86.5872 617.929 86.8457C617.929 87.1912 617.964 87.541 618.032 87.8953C618.1 88.2495 618.192 88.5783 618.308 88.8817C618.425 89.1851 618.554 89.4326 618.696 89.6243H618.099C617.824 89.2366 617.614 88.8135 617.47 88.3547C617.326 87.896 617.254 87.393 617.254 86.8457ZM620.81 89.1495C620.466 89.1481 620.172 89.0574 619.928 88.8773C619.684 88.6973 619.498 88.4353 619.368 88.0912C619.239 87.7472 619.175 87.3327 619.175 86.8478C619.175 86.3644 619.239 85.9514 619.368 85.6088C619.499 85.2662 619.686 85.0049 619.93 84.8249C620.175 84.6448 620.469 84.5548 620.81 84.5548C621.151 84.5548 621.444 84.6456 621.687 84.827C621.931 85.007 622.118 85.2684 622.247 85.611C622.378 85.9521 622.443 86.3644 622.443 86.8478C622.443 87.3342 622.378 87.7494 622.249 88.0934C622.12 88.436 621.934 88.6981 621.69 88.8795C621.446 89.0595 621.152 89.1495 620.81 89.1495ZM620.81 88.5681C621.112 88.5681 621.348 88.4208 621.518 88.1261C621.689 87.8314 621.775 87.4053 621.775 86.8478C621.775 86.4776 621.735 86.1648 621.657 85.9093C621.58 85.6523 621.469 85.4578 621.324 85.3257C621.18 85.1921 621.009 85.1254 620.81 85.1254C620.509 85.1254 620.273 85.2734 620.102 85.5696C619.931 85.8657 619.844 86.2918 619.843 86.8478C619.843 87.2195 619.881 87.5338 619.958 87.7907C620.037 88.0462 620.148 88.24 620.292 88.3721C620.435 88.5028 620.608 88.5681 620.81 88.5681ZM623.375 89.1169C623.256 89.1169 623.154 89.0748 623.068 88.9906C622.982 88.9049 622.94 88.8019 622.94 88.6814C622.94 88.5623 622.982 88.4607 623.068 88.3765C623.154 88.2908 623.256 88.248 623.375 88.248C623.494 88.248 623.596 88.2908 623.682 88.3765C623.768 88.4607 623.811 88.5623 623.811 88.6814C623.811 88.7612 623.79 88.8345 623.75 88.9013C623.71 88.9666 623.658 89.0189 623.593 89.0581C623.527 89.0973 623.455 89.1169 623.375 89.1169ZM625.948 89.1495C625.604 89.1481 625.31 89.0574 625.066 88.8773C624.823 88.6973 624.636 88.4353 624.507 88.0912C624.378 87.7472 624.313 87.3327 624.313 86.8478C624.313 86.3644 624.378 85.9514 624.507 85.6088C624.638 85.2662 624.825 85.0049 625.069 84.8249C625.314 84.6448 625.607 84.5548 625.948 84.5548C626.29 84.5548 626.582 84.6456 626.826 84.827C627.07 85.007 627.256 85.2684 627.386 85.611C627.516 85.9521 627.582 86.3644 627.582 86.8478C627.582 87.3342 627.517 87.7494 627.388 88.0934C627.259 88.436 627.072 88.6981 626.828 88.8795C626.584 89.0595 626.291 89.1495 625.948 89.1495ZM625.948 88.5681C626.25 88.5681 626.486 88.4208 626.656 88.1261C626.827 87.8314 626.913 87.4053 626.913 86.8478C626.913 86.4776 626.874 86.1648 626.795 85.9093C626.719 85.6523 626.607 85.4578 626.462 85.3257C626.319 85.1921 626.147 85.1254 625.948 85.1254C625.648 85.1254 625.412 85.2734 625.241 85.5696C625.069 85.8657 624.983 86.2918 624.982 86.8478C624.982 87.2195 625.02 87.5338 625.097 87.7907C625.175 88.0462 625.286 88.24 625.43 88.3721C625.574 88.5028 625.747 88.5681 625.948 88.5681ZM629.93 84.6158V89.0755H629.255V85.2909H629.228L628.161 85.9877V85.3431L629.274 84.6158H629.93ZM632.28 86.8457C632.28 87.393 632.208 87.896 632.065 88.3547C631.921 88.8135 631.711 89.2366 631.435 89.6243H630.839C630.946 89.4805 631.046 89.3041 631.139 89.0951C631.232 88.8861 631.313 88.6574 631.383 88.4092C631.453 88.1595 631.507 87.9011 631.546 87.6339C631.586 87.3668 631.605 87.1041 631.605 86.8457C631.605 86.5016 631.571 86.1525 631.503 85.7982C631.435 85.444 631.342 85.1152 631.226 84.8118C631.11 84.5084 630.981 84.2609 630.839 84.0692H631.435C631.711 84.4568 631.921 84.88 632.065 85.3388C632.208 85.7975 632.28 86.2998 632.28 86.8457Z" fill="black"/>
<path d="M614.641 100.396V95.9365H616.274C616.59 95.9365 616.853 95.9888 617.06 96.0933C617.268 96.1964 617.423 96.3365 617.526 96.5136C617.629 96.6893 617.681 96.8874 617.681 97.1081C617.681 97.2939 617.647 97.4507 617.578 97.5784C617.51 97.7047 617.419 97.8064 617.304 97.8833C617.191 97.9588 617.066 98.014 616.929 98.0488V98.0924C617.078 98.0996 617.222 98.1475 617.363 98.2361C617.505 98.3232 617.623 98.4473 617.716 98.6084C617.808 98.7696 617.855 98.9656 617.855 99.1964C617.855 99.4243 617.801 99.629 617.694 99.8105C617.588 99.9905 617.424 100.133 617.202 100.239C616.98 100.344 616.696 100.396 616.35 100.396H614.641ZM615.314 99.8192H616.285C616.607 99.8192 616.838 99.7568 616.977 99.6319C617.117 99.5071 617.186 99.351 617.186 99.1637C617.186 99.0229 617.151 98.8937 617.08 98.7761C617.009 98.6585 616.907 98.5649 616.775 98.4952C616.644 98.4255 616.489 98.3907 616.309 98.3907H615.314V99.8192ZM615.314 97.8659H616.215C616.366 97.8659 616.502 97.8369 616.622 97.7788C616.744 97.7207 616.841 97.6394 616.912 97.5349C616.985 97.4289 617.021 97.3041 617.021 97.1604C617.021 96.976 616.956 96.8214 616.827 96.6965C616.698 96.5717 616.5 96.5093 616.233 96.5093H615.314V97.8659ZM619.893 100.464C619.58 100.464 619.306 100.392 619.072 100.248C618.838 100.104 618.657 99.9034 618.528 99.645C618.399 99.3866 618.334 99.0846 618.334 98.7391C618.334 98.3921 618.399 98.0887 618.528 97.8289C618.657 97.569 618.838 97.3672 619.072 97.2235C619.306 97.0798 619.58 97.0079 619.893 97.0079C620.207 97.0079 620.48 97.0798 620.714 97.2235C620.948 97.3672 621.129 97.569 621.259 97.8289C621.388 98.0887 621.452 98.3921 621.452 98.7391C621.452 99.0846 621.388 99.3866 621.259 99.645C621.129 99.9034 620.948 100.104 620.714 100.248C620.48 100.392 620.207 100.464 619.893 100.464ZM619.895 99.9172C620.099 99.9172 620.267 99.8635 620.401 99.756C620.534 99.6486 620.633 99.5056 620.697 99.327C620.762 99.1485 620.795 98.9518 620.795 98.7369C620.795 98.5235 620.762 98.3275 620.697 98.149C620.633 97.969 620.534 97.8245 620.401 97.7156C620.267 97.6068 620.099 97.5523 619.895 97.5523C619.691 97.5523 619.521 97.6068 619.386 97.7156C619.252 97.8245 619.153 97.969 619.087 98.149C619.024 98.3275 618.992 98.5235 618.992 98.7369C618.992 98.9518 619.024 99.1485 619.087 99.327C619.153 99.5056 619.252 99.6486 619.386 99.756C619.521 99.8635 619.691 99.9172 619.895 99.9172ZM623.036 100.47C622.824 100.47 622.632 100.431 622.461 100.353C622.29 100.273 622.154 100.157 622.054 100.006C621.955 99.8555 621.906 99.6704 621.906 99.4512C621.906 99.2624 621.942 99.1071 622.015 98.9852C622.087 98.8632 622.185 98.7667 622.309 98.6955C622.432 98.6244 622.57 98.5707 622.722 98.5344C622.875 98.4981 623.03 98.4705 623.188 98.4517C623.389 98.4284 623.551 98.4096 623.676 98.395C623.801 98.3791 623.892 98.3537 623.948 98.3188C624.005 98.284 624.033 98.2274 624.033 98.149V98.1337C624.033 97.9436 623.98 97.7962 623.872 97.6917C623.766 97.5872 623.608 97.5349 623.397 97.5349C623.178 97.5349 623.005 97.5835 622.879 97.6808C622.754 97.7766 622.668 97.8833 622.62 98.0009L622.008 97.8615C622.081 97.6583 622.187 97.4942 622.326 97.3694C622.467 97.2431 622.629 97.1516 622.812 97.095C622.995 97.037 623.187 97.0079 623.389 97.0079C623.522 97.0079 623.664 97.0239 623.813 97.0558C623.964 97.0863 624.105 97.1429 624.236 97.2257C624.368 97.3084 624.476 97.4267 624.56 97.5806C624.644 97.7331 624.687 97.9312 624.687 98.1751V100.396H624.051V99.9389H624.025C623.982 100.023 623.919 100.106 623.835 100.187C623.751 100.268 623.643 100.336 623.511 100.39C623.379 100.443 623.22 100.47 623.036 100.47ZM623.177 99.9477C623.358 99.9477 623.511 99.9121 623.639 99.841C623.768 99.7698 623.866 99.6769 623.933 99.5622C624.001 99.4461 624.035 99.322 624.035 99.1899V98.7587C624.012 98.7819 623.967 98.8037 623.9 98.824C623.835 98.8429 623.76 98.8596 623.676 98.8741C623.592 98.8872 623.51 98.8995 623.43 98.9111C623.35 98.9213 623.283 98.93 623.23 98.9373C623.103 98.9532 622.988 98.9801 622.884 99.0178C622.78 99.0556 622.698 99.11 622.635 99.1811C622.574 99.2508 622.544 99.3437 622.544 99.4599C622.544 99.621 622.603 99.743 622.722 99.8257C622.841 99.907 622.993 99.9477 623.177 99.9477ZM626.999 97.0515V97.5741H625.172V97.0515H626.999ZM625.662 96.2501H626.313V99.4141C626.313 99.5404 626.332 99.6355 626.369 99.6994C626.407 99.7618 626.456 99.8047 626.515 99.8279C626.576 99.8497 626.642 99.8606 626.713 99.8606C626.766 99.8606 626.811 99.8569 626.851 99.8497C626.89 99.8424 626.92 99.8366 626.942 99.8322L627.06 100.37C627.022 100.385 626.968 100.399 626.898 100.414C626.829 100.43 626.742 100.438 626.637 100.44C626.466 100.443 626.306 100.412 626.158 100.348C626.01 100.284 625.89 100.186 625.799 100.052C625.707 99.9186 625.662 99.7509 625.662 99.5492V96.2501ZM629.298 98.1664C629.298 97.6205 629.37 97.1183 629.514 96.6595C629.657 96.2008 629.867 95.7776 630.143 95.39H630.74C630.632 95.5337 630.532 95.7101 630.439 95.9191C630.346 96.1282 630.265 96.3575 630.195 96.6072C630.126 96.8555 630.071 97.1132 630.032 97.3803C629.993 97.646 629.973 97.908 629.973 98.1664C629.973 98.5119 630.007 98.8618 630.076 99.216C630.144 99.5702 630.236 99.899 630.352 100.202C630.468 100.506 630.597 100.753 630.74 100.945H630.143C629.867 100.557 629.657 100.134 629.514 99.6755C629.37 99.2167 629.298 98.7137 629.298 98.1664ZM632.854 100.47C632.509 100.469 632.216 100.378 631.972 100.198C631.728 100.018 631.541 99.756 631.412 99.412C631.283 99.0679 631.218 98.6534 631.218 98.1686C631.218 97.6851 631.283 97.2721 631.412 96.9295C631.543 96.5869 631.73 96.3256 631.974 96.1456C632.219 95.9656 632.512 95.8756 632.854 95.8756C633.195 95.8756 633.487 95.9663 633.731 96.1478C633.975 96.3278 634.162 96.5891 634.291 96.9317C634.421 97.2729 634.487 97.6851 634.487 98.1686C634.487 98.6549 634.422 99.0701 634.293 99.4141C634.164 99.7568 633.977 100.019 633.733 100.2C633.489 100.38 633.196 100.47 632.854 100.47ZM632.854 99.8889C633.156 99.8889 633.391 99.7415 633.561 99.4468C633.733 99.1521 633.818 98.726 633.818 98.1686C633.818 97.7984 633.779 97.4855 633.701 97.23C633.624 96.9731 633.513 96.7785 633.367 96.6464C633.224 96.5129 633.052 96.4461 632.854 96.4461C632.553 96.4461 632.317 96.5942 632.146 96.8903C631.975 97.1865 631.888 97.6126 631.887 98.1686C631.887 98.5402 631.925 98.8545 632.002 99.1115C632.081 99.367 632.192 99.5608 632.335 99.6929C632.479 99.8235 632.652 99.8889 632.854 99.8889ZM635.419 100.438C635.3 100.438 635.197 100.396 635.112 100.311C635.026 100.226 634.983 100.123 634.983 100.002C634.983 99.8831 635.026 99.7814 635.112 99.6972C635.197 99.6116 635.3 99.5688 635.419 99.5688C635.538 99.5688 635.64 99.6116 635.726 99.6972C635.811 99.7814 635.854 99.8831 635.854 100.002C635.854 100.082 635.834 100.155 635.793 100.222C635.754 100.287 635.702 100.34 635.636 100.379C635.571 100.418 635.499 100.438 635.419 100.438ZM637.992 100.47C637.648 100.469 637.354 100.378 637.11 100.198C636.866 100.018 636.68 99.756 636.551 99.412C636.421 99.0679 636.357 98.6534 636.357 98.1686C636.357 97.6851 636.421 97.2721 636.551 96.9295C636.681 96.5869 636.868 96.3256 637.112 96.1456C637.358 95.9656 637.651 95.8756 637.992 95.8756C638.333 95.8756 638.626 95.9663 638.87 96.1478C639.114 96.3278 639.3 96.5891 639.429 96.9317C639.56 97.2729 639.625 97.6851 639.625 98.1686C639.625 98.6549 639.561 99.0701 639.431 99.4141C639.302 99.7568 639.116 100.019 638.872 100.2C638.628 100.38 638.335 100.47 637.992 100.47ZM637.992 99.8889C638.294 99.8889 638.53 99.7415 638.7 99.4468C638.871 99.1521 638.957 98.726 638.957 98.1686C638.957 97.7984 638.918 97.4855 638.839 97.23C638.762 96.9731 638.651 96.7785 638.506 96.6464C638.362 96.5129 638.191 96.4461 637.992 96.4461C637.692 96.4461 637.456 96.5942 637.284 96.8903C637.113 97.1865 637.027 97.6126 637.025 98.1686C637.025 98.5402 637.064 98.8545 637.141 99.1115C637.219 99.367 637.33 99.5608 637.474 99.6929C637.618 99.8235 637.79 99.8889 637.992 99.8889ZM640.188 99.5252V98.9808L642.115 95.9365H642.544V96.7379H642.272L640.893 98.9198V98.9547H643.535V99.5252H640.188ZM642.302 100.396V99.3597L642.306 99.1115V95.9365H642.944V100.396H642.302ZM645.438 98.1664C645.438 98.7137 645.366 99.2167 645.222 99.6755C645.078 100.134 644.869 100.557 644.593 100.945H643.996C644.104 100.801 644.204 100.625 644.297 100.416C644.39 100.207 644.471 99.9781 644.541 99.7299C644.61 99.4802 644.665 99.2218 644.704 98.9547C644.743 98.6876 644.763 98.4248 644.763 98.1664C644.763 97.8223 644.729 97.4732 644.66 97.119C644.592 96.7648 644.5 96.4359 644.384 96.1325C644.268 95.8291 644.138 95.5816 643.996 95.39H644.593C644.869 95.7776 645.078 96.2008 645.222 96.6595C645.366 97.1183 645.438 97.6205 645.438 98.1664Z" fill="black"/>
<path d="M624.949 109.179H624.27C624.243 109.034 624.195 108.906 624.124 108.796C624.052 108.686 623.965 108.592 623.862 108.515C623.759 108.438 623.644 108.38 623.516 108.341C623.39 108.302 623.255 108.282 623.113 108.282C622.856 108.282 622.626 108.347 622.423 108.476C622.221 108.605 622.061 108.795 621.944 109.044C621.828 109.294 621.77 109.599 621.77 109.959C621.77 110.322 621.828 110.628 621.944 110.878C622.061 111.127 622.222 111.316 622.425 111.444C622.628 111.572 622.857 111.636 623.111 111.636C623.252 111.636 623.385 111.617 623.512 111.579C623.639 111.54 623.755 111.482 623.858 111.407C623.961 111.331 624.048 111.239 624.119 111.13C624.192 111.02 624.242 110.894 624.27 110.751L624.949 110.754C624.913 110.973 624.842 111.175 624.738 111.359C624.635 111.542 624.502 111.7 624.339 111.834C624.178 111.966 623.994 112.068 623.786 112.141C623.578 112.213 623.352 112.25 623.107 112.25C622.721 112.25 622.376 112.158 622.074 111.975C621.773 111.791 621.534 111.527 621.36 111.185C621.187 110.842 621.101 110.434 621.101 109.959C621.101 109.483 621.188 109.074 621.362 108.733C621.537 108.39 621.775 108.127 622.077 107.945C622.379 107.76 622.722 107.668 623.107 107.668C623.343 107.668 623.564 107.702 623.769 107.77C623.975 107.837 624.16 107.936 624.324 108.067C624.488 108.196 624.624 108.354 624.731 108.541C624.839 108.727 624.911 108.94 624.949 109.179ZM626.559 112.263C626.347 112.263 626.155 112.224 625.984 112.145C625.812 112.065 625.677 111.95 625.577 111.799C625.478 111.648 625.429 111.463 625.429 111.244C625.429 111.055 625.465 110.9 625.537 110.778C625.61 110.656 625.708 110.559 625.831 110.488C625.955 110.417 626.093 110.363 626.245 110.327C626.398 110.291 626.553 110.263 626.711 110.244C626.911 110.221 627.074 110.202 627.199 110.187C627.324 110.172 627.414 110.146 627.471 110.111C627.528 110.076 627.556 110.02 627.556 109.941V109.926C627.556 109.736 627.502 109.589 627.395 109.484C627.289 109.38 627.131 109.327 626.92 109.327C626.701 109.327 626.528 109.376 626.402 109.473C626.277 109.569 626.191 109.676 626.143 109.793L625.531 109.654C625.603 109.451 625.709 109.287 625.849 109.162C625.99 109.036 626.151 108.944 626.334 108.887C626.517 108.829 626.71 108.8 626.911 108.8C627.045 108.8 627.187 108.816 627.336 108.848C627.487 108.879 627.628 108.935 627.759 109.018C627.891 109.101 627.999 109.219 628.083 109.373C628.167 109.526 628.209 109.724 628.209 109.968V112.189H627.573V111.731H627.547C627.505 111.816 627.442 111.898 627.358 111.98C627.274 112.061 627.165 112.128 627.033 112.182C626.901 112.236 626.743 112.263 626.559 112.263ZM626.7 111.74C626.88 111.74 627.034 111.705 627.162 111.633C627.291 111.562 627.389 111.469 627.456 111.355C627.524 111.239 627.558 111.114 627.558 110.982V110.551C627.535 110.574 627.49 110.596 627.423 110.616C627.358 110.635 627.283 110.652 627.199 110.667C627.115 110.68 627.033 110.692 626.953 110.704C626.873 110.714 626.806 110.722 626.752 110.73C626.626 110.746 626.511 110.773 626.406 110.81C626.303 110.848 626.22 110.902 626.158 110.974C626.097 111.043 626.067 111.136 626.067 111.252C626.067 111.413 626.126 111.535 626.245 111.618C626.364 111.699 626.516 111.74 626.7 111.74ZM628.96 112.189V108.844H629.589V109.375H629.624C629.685 109.195 629.793 109.054 629.946 108.951C630.102 108.846 630.277 108.794 630.473 108.794C630.514 108.794 630.562 108.795 630.617 108.798C630.674 108.801 630.718 108.805 630.75 108.809V109.432C630.724 109.425 630.677 109.417 630.611 109.408C630.544 109.398 630.477 109.393 630.41 109.393C630.256 109.393 630.119 109.425 629.999 109.491C629.88 109.555 629.785 109.644 629.716 109.759C629.646 109.872 629.611 110.001 629.611 110.146V112.189H628.96ZM632.893 109.959C632.893 109.413 632.965 108.911 633.108 108.452C633.252 107.993 633.462 107.57 633.738 107.182H634.334C634.227 107.326 634.127 107.503 634.034 107.712C633.941 107.921 633.86 108.15 633.79 108.4C633.72 108.648 633.666 108.906 633.627 109.173C633.587 109.438 633.568 109.7 633.568 109.959C633.568 110.304 633.602 110.654 633.67 111.008C633.738 111.363 633.831 111.691 633.947 111.995C634.063 112.298 634.192 112.546 634.334 112.737H633.738C633.462 112.35 633.252 111.927 633.108 111.468C632.965 111.009 632.893 110.506 632.893 109.959ZM636.448 112.263C636.104 112.261 635.81 112.171 635.566 111.991C635.322 111.811 635.136 111.548 635.007 111.204C634.877 110.86 634.813 110.446 634.813 109.961C634.813 109.478 634.877 109.065 635.007 108.722C635.137 108.379 635.325 108.118 635.568 107.938C635.814 107.758 636.107 107.668 636.448 107.668C636.789 107.668 637.082 107.759 637.326 107.94C637.57 108.12 637.756 108.382 637.885 108.724C638.016 109.065 638.081 109.478 638.081 109.961C638.081 110.447 638.017 110.863 637.888 111.207C637.758 111.549 637.572 111.811 637.328 111.993C637.084 112.173 636.791 112.263 636.448 112.263ZM636.448 111.681C636.75 111.681 636.986 111.534 637.156 111.239C637.327 110.945 637.413 110.518 637.413 109.961C637.413 109.591 637.374 109.278 637.295 109.022C637.218 108.766 637.107 108.571 636.962 108.439C636.818 108.305 636.647 108.239 636.448 108.239C636.148 108.239 635.912 108.387 635.74 108.683C635.569 108.979 635.483 109.405 635.481 109.961C635.481 110.333 635.52 110.647 635.597 110.904C635.675 111.159 635.786 111.353 635.93 111.485C636.074 111.616 636.246 111.681 636.448 111.681ZM639.013 112.23C638.894 112.23 638.792 112.188 638.706 112.104C638.621 112.018 638.578 111.915 638.578 111.795C638.578 111.676 638.621 111.574 638.706 111.49C638.792 111.404 638.894 111.361 639.013 111.361C639.132 111.361 639.235 111.404 639.32 111.49C639.406 111.574 639.449 111.676 639.449 111.795C639.449 111.874 639.429 111.948 639.388 112.014C639.349 112.08 639.296 112.132 639.231 112.171C639.166 112.21 639.093 112.23 639.013 112.23ZM641.625 107.668C641.824 107.669 642.02 107.706 642.213 107.777C642.406 107.848 642.58 107.964 642.735 108.125C642.892 108.286 643.017 108.504 643.11 108.779C643.204 109.052 643.252 109.391 643.254 109.798C643.254 110.188 643.214 110.536 643.136 110.841C643.058 111.144 642.945 111.4 642.799 111.609C642.653 111.819 642.477 111.977 642.269 112.086C642.062 112.195 641.828 112.25 641.568 112.25C641.303 112.25 641.067 112.197 640.86 112.093C640.654 111.988 640.487 111.844 640.357 111.66C640.228 111.474 640.148 111.26 640.116 111.019H640.78C640.823 111.211 640.912 111.366 641.046 111.485C641.181 111.603 641.355 111.662 641.568 111.662C641.895 111.662 642.15 111.519 642.332 111.235C642.515 110.949 642.608 110.55 642.609 110.037H642.574C642.499 110.162 642.404 110.27 642.291 110.36C642.179 110.45 642.054 110.519 641.914 110.569C641.775 110.618 641.626 110.643 641.468 110.643C641.211 110.643 640.977 110.579 640.767 110.453C640.556 110.327 640.389 110.153 640.264 109.933C640.139 109.712 640.077 109.46 640.077 109.177C640.077 108.895 640.14 108.64 640.268 108.411C640.397 108.181 640.577 108 640.808 107.866C641.04 107.731 641.313 107.665 641.625 107.668ZM641.627 108.234C641.457 108.234 641.304 108.276 641.167 108.36C641.032 108.443 640.926 108.556 640.847 108.698C640.769 108.839 640.73 108.996 640.73 109.168C640.73 109.341 640.768 109.498 640.843 109.639C640.92 109.778 641.024 109.889 641.157 109.972C641.29 110.053 641.443 110.094 641.614 110.094C641.742 110.094 641.861 110.069 641.971 110.02C642.081 109.97 642.178 109.902 642.261 109.815C642.343 109.727 642.408 109.626 642.454 109.515C642.501 109.403 642.524 109.285 642.524 109.162C642.524 108.998 642.485 108.845 642.407 108.705C642.33 108.564 642.224 108.451 642.089 108.365C641.954 108.278 641.8 108.234 641.627 108.234ZM643.83 111.318V110.773L645.757 107.729H646.186V108.53H645.914L644.536 110.712V110.747H647.177V111.318H643.83ZM645.945 112.189V111.152L645.949 110.904V107.729H646.587V112.189H645.945ZM649.08 109.959C649.08 110.506 649.008 111.009 648.865 111.468C648.721 111.927 648.511 112.35 648.235 112.737H647.639C647.746 112.594 647.846 112.417 647.939 112.208C648.032 111.999 648.113 111.771 648.183 111.522C648.253 111.273 648.307 111.014 648.346 110.747C648.386 110.48 648.405 110.217 648.405 109.959C648.405 109.615 648.371 109.266 648.303 108.911C648.235 108.557 648.142 108.228 648.026 107.925C647.91 107.622 647.781 107.374 647.639 107.182H648.235C648.511 107.57 648.721 107.993 648.865 108.452C649.008 108.911 649.08 109.413 649.08 109.959Z" fill="black"/>
<rect x="248.113" y="132.547" width="22.6415" height="25.4717" fill="#F1F1F1" stroke="black" stroke-width="0.943396" stroke-dasharray="1.89 1.89"/>
<rect x="198.585" y="137.736" width="18.3962" height="20.7547" fill="#F1F1F1" stroke="black" stroke-width="0.943396"/>
<rect x="346.227" y="140.094" width="10.8491" height="12.2642" fill="#F1F1F1" stroke="black" stroke-width="0.943396"/>
<rect x="417.924" y="96.6981" width="17.9245" height="20.283" fill="#F1F1F1" stroke="black" stroke-width="0.943396"/>
<rect x="543.632" y="128.066" width="6.13208" height="7.07547" fill="#F1F1F1" stroke="black" stroke-width="0.471698"/>
<rect x="327.358" y="117.453" width="11.3208" height="12.7358" fill="#F1F1F1" stroke="black" stroke-width="0.943396" stroke-dasharray="1.89 1.89"/>
<line x1="73.7822" y1="80.2319" x2="198.782" y2="137.779" stroke="black" stroke-width="0.943396" stroke-dasharray="1.89 1.89"/>
<line x1="73.7727" y1="104.284" x2="198.773" y2="158.53" stroke="black" stroke-width="0.943396" stroke-dasharray="1.89 1.89"/>
<line x1="270.802" y1="132.55" x2="346.274" y2="140.097" stroke="black" stroke-width="0.943396" stroke-dasharray="1.89 1.89"/>
<line x1="270.72" y1="158.02" x2="346.191" y2="152.36" stroke="black" stroke-width="0.943396" stroke-dasharray="1.89 1.89"/>
<line x1="339.031" y1="117.468" x2="417.804" y2="96.7137" stroke="black" stroke-width="0.943396" stroke-dasharray="1.89 1.89"/>
<line x1="443.446" y1="62.9769" x2="492.031" y2="73.3542" stroke="black" stroke-width="0.471698" stroke-dasharray="1.89 1.89"/>
<line x1="563.2" y1="75.2357" x2="502.351" y2="73.3489" stroke="black" stroke-width="0.471698" stroke-dasharray="1.89 1.89"/>
<line x1="584.086" y1="120.956" x2="552.482" y2="140.296" stroke="black" stroke-width="0.471698" stroke-dasharray="1.89 1.89"/>
<line x1="469.757" y1="157.318" x2="541.455" y2="140.337" stroke="black" stroke-width="0.471698" stroke-dasharray="1.89 1.89"/>
<line x1="339.073" y1="130.195" x2="417.846" y2="116.988" stroke="black" stroke-width="0.943396" stroke-dasharray="1.89 1.89"/>
<defs>
<clipPath id="clip0_1456_2056">
<rect width="130.189" height="130.189" fill="white" transform="translate(0 44.8113)"/>
</clipPath>
</defs>
</svg>
