<svg width="707" height="277" viewBox="0 0 707 277" fill="none" xmlns="http://www.w3.org/2000/svg">
<path d="M343.707 236.707C344.098 236.317 344.098 235.683 343.707 235.293L337.343 228.929C336.953 228.538 336.319 228.538 335.929 228.929C335.538 229.319 335.538 229.953 335.929 230.343L341.586 236L335.929 241.657C335.538 242.047 335.538 242.681 335.929 243.071C336.319 243.462 336.953 243.462 337.343 243.071L343.707 236.707ZM45 237H343V235H45V237Z" fill="black"/>
<path d="M45.7071 33.2929C45.3166 32.9024 44.6834 32.9024 44.2929 33.2929L37.9289 39.6569C37.5384 40.0474 37.5384 40.6805 37.9289 41.0711C38.3194 41.4616 38.9526 41.4616 39.3431 41.0711L45 35.4142L50.6568 41.0711C51.0474 41.4616 51.6805 41.4616 52.0711 41.0711C52.4616 40.6805 52.4616 40.0474 52.0711 39.6569L45.7071 33.2929ZM46 236L46 34L44 34L44 236L46 236Z" fill="black"/>
<path d="M320.563 253L323.789 258.453H323.914L327.156 253H330.977L326.094 261L331.086 269H327.195L323.914 263.539H323.789L320.508 269H316.633L321.641 261L316.727 253H320.563Z" fill="black"/>
<path d="M17.4531 53H21.2422L24.8906 59.8906H25.0469L28.6953 53H32.4844L26.6484 63.3437V69H23.2891V63.3437L17.4531 53Z" fill="black"/>
<line x1="0.528304" y1="166.576" x2="323.528" y2="59.5761" stroke="black" stroke-width="3" stroke-dasharray="10 10"/>
<line x1="87.5724" y1="172.461" x2="77.5724" y2="141.461" stroke="black" stroke-width="3"/>
<line x1="267.572" y1="76.4605" x2="257.572" y2="45.4605" stroke="black" stroke-width="3"/>
<line x1="249.59" y1="149.511" x2="228.59" y2="91.5107" stroke="black" stroke-width="3"/>
<line x1="164.584" y1="156.496" x2="150.584" y2="116.496" stroke="black" stroke-width="3"/>
<line x1="134.575" y1="121.467" x2="115.575" y2="63.467" stroke="black" stroke-width="3"/>
<circle cx="88" cy="172" r="8" fill="#BDE3FF"/>
<circle cx="114" cy="61" r="8" fill="#BDE3FF"/>
<circle cx="258" cy="46" r="8" fill="#BDE3FF"/>
<circle cx="251" cy="151" r="8" fill="#BDE3FF"/>
<circle cx="167" cy="159" r="8" fill="#BDE3FF"/>
<line x1="209.572" y1="98.4605" x2="199.572" y2="67.4605" stroke="black" stroke-width="3"/>
<circle cx="200" cy="68" r="8" fill="#BDE3FF"/>
<line x1="296.586" y1="104.502" x2="285.586" y2="73.5016" stroke="black" stroke-width="3"/>
<circle cx="297" cy="103" r="8" fill="#BDE3FF"/>
<path d="M141.588 252.61H143.964V253.908C143.964 257.736 142.16 261.278 138.244 262.554L136.77 260.244C140.136 259.144 141.588 256.46 141.588 253.908V252.61ZM142.204 252.61H144.558V253.908C144.558 256.284 145.944 258.792 149.156 259.87L147.726 262.158C143.942 260.904 142.204 257.516 142.204 253.908V252.61ZM147.968 255.448H151.84V257.824H147.968V255.448ZM137.562 251.708H148.518V254.018H137.562V251.708ZM140.048 263.632H153.93V270.958H151.004V265.964H140.048V263.632ZM151.004 250.586H153.93V262.708H151.004V250.586ZM156.7 260.97H175.114V263.302H156.7V260.97ZM158.922 268.274H173.046V270.606H158.922V268.274ZM158.922 264.666H161.848V269.022H158.922V264.666ZM165.918 251.18C170.34 251.18 173.288 252.786 173.288 255.382C173.288 257.978 170.34 259.584 165.918 259.584C161.474 259.584 158.548 257.978 158.548 255.382C158.548 252.786 161.474 251.18 165.918 251.18ZM165.918 253.512C163.168 253.512 161.562 254.15 161.562 255.382C161.562 256.636 163.168 257.252 165.918 257.252C168.668 257.252 170.274 256.636 170.274 255.382C170.274 254.15 168.668 253.512 165.918 253.512ZM191.239 250.586H194.033V270.958H191.239V250.586ZM183.495 258.022H188.225V260.376H183.495V258.022ZM187.037 250.938H189.765V270.056H187.037V250.938ZM177.115 264.028H178.523C181.405 264.028 183.319 263.962 185.563 263.522L185.783 265.898C183.517 266.36 181.493 266.448 178.523 266.448H177.115V264.028ZM177.115 252.874H184.881V255.206H179.997V265.04H177.115V252.874ZM210.311 250.564H213.259V271.002H210.311V250.564ZM202.281 251.994C205.361 251.994 207.627 254.81 207.627 259.254C207.627 263.742 205.361 266.558 202.281 266.558C199.201 266.558 196.935 263.742 196.935 259.254C196.935 254.81 199.201 251.994 202.281 251.994ZM202.281 254.656C200.763 254.656 199.729 256.262 199.729 259.254C199.729 262.29 200.763 263.918 202.281 263.918C203.799 263.918 204.811 262.29 204.811 259.254C204.811 256.262 203.799 254.656 202.281 254.656ZM230.351 250.564H233.255V271.002H230.351V250.564ZM226.853 257.736H230.681V260.112H226.853V257.736ZM217.085 264.028H218.713C222.079 264.028 224.587 263.984 227.469 263.522L227.733 265.854C224.785 266.316 222.145 266.404 218.713 266.404H217.085V264.028ZM217.085 252.28H226.523V254.656H219.989V264.776H217.085V252.28ZM219.329 257.956H225.819V260.244H219.329V257.956Z" fill="black"/>
<path d="M706.707 236.707C707.098 236.317 707.098 235.683 706.707 235.293L700.343 228.929C699.953 228.538 699.319 228.538 698.929 228.929C698.538 229.319 698.538 229.953 698.929 230.343L704.586 236L698.929 241.657C698.538 242.047 698.538 242.681 698.929 243.071C699.319 243.462 699.953 243.462 700.343 243.071L706.707 236.707ZM408 237H706V235H408V237Z" fill="black"/>
<path d="M408.707 33.2929C408.317 32.9024 407.683 32.9024 407.293 33.2929L400.929 39.6569C400.538 40.0474 400.538 40.6805 400.929 41.0711C401.319 41.4616 401.953 41.4616 402.343 41.0711L408 35.4142L413.657 41.0711C414.047 41.4616 414.681 41.4616 415.071 41.0711C415.462 40.6805 415.462 40.0474 415.071 39.6569L408.707 33.2929ZM409 236L409 34L407 34L407 236L409 236Z" fill="black"/>
<path d="M683.563 253L686.789 258.453H686.914L690.156 253H693.977L689.094 261L694.086 269H690.195L686.914 263.539H686.789L683.508 269H679.633L684.641 261L679.727 253H683.563Z" fill="black"/>
<path d="M380.453 53H384.242L387.891 59.8906H388.047L391.695 53H395.484L389.648 63.3437V69H386.289V63.3437L380.453 53Z" fill="black"/>
<line x1="363.528" y1="166.576" x2="686.528" y2="59.5761" stroke="black" stroke-width="3" stroke-dasharray="5 5"/>
<line x1="450.572" y1="172.461" x2="440.572" y2="141.461" stroke="black" stroke-width="3"/>
<line x1="630.572" y1="76.4605" x2="620.572" y2="45.4605" stroke="black" stroke-width="3"/>
<line x1="640.579" y1="141.482" x2="620.579" y2="82.4816" stroke="black" stroke-width="3"/>
<line x1="527.584" y1="156.496" x2="513.584" y2="116.496" stroke="black" stroke-width="3"/>
<line x1="497.575" y1="121.467" x2="478.575" y2="63.467" stroke="black" stroke-width="3"/>
<circle cx="451" cy="172" r="8" fill="#BDE3FF"/>
<line x1="474.584" y1="151.496" x2="467.584" y2="131.496" stroke="black" stroke-width="3"/>
<circle cx="476" cy="152" r="8" fill="#BDE3FF"/>
<circle cx="477" cy="61" r="8" fill="#BDE3FF"/>
<line x1="525.575" y1="113.467" x2="506.575" y2="55.467" stroke="black" stroke-width="3"/>
<circle cx="505" cy="53" r="8" fill="#BDE3FF"/>
<circle cx="621" cy="46" r="8" fill="#BDE3FF"/>
<circle cx="642" cy="141" r="8" fill="#BDE3FF"/>
<circle cx="530" cy="159" r="8" fill="#BDE3FF"/>
<line x1="572.572" y1="98.4605" x2="562.572" y2="67.4605" stroke="black" stroke-width="3"/>
<line x1="457.572" y1="135.461" x2="447.572" y2="104.461" stroke="black" stroke-width="3"/>
<line x1="544.572" y1="141.461" x2="534.572" y2="110.461" stroke="black" stroke-width="3"/>
<line x1="573.572" y1="130.461" x2="563.572" y2="99.4605" stroke="black" stroke-width="3"/>
<line x1="609.572" y1="84.4605" x2="599.572" y2="53.4605" stroke="black" stroke-width="3"/>
<line x1="572.572" y1="98.4605" x2="562.572" y2="67.4605" stroke="black" stroke-width="3"/>
<circle cx="563" cy="68" r="8" fill="#BDE3FF"/>
<line x1="544.572" y1="106.461" x2="534.572" y2="75.4605" stroke="black" stroke-width="3"/>
<circle cx="537" cy="83" r="8" fill="#BDE3FF"/>
<line x1="659.586" y1="104.502" x2="648.586" y2="73.5016" stroke="black" stroke-width="3"/>
<circle cx="660" cy="103" r="8" fill="#BDE3FF"/>
<circle cx="447" cy="102" r="8" fill="#BDE3FF"/>
<circle cx="545" cy="141" r="8" fill="#BDE3FF"/>
<circle cx="574" cy="129" r="8" fill="#BDE3FF"/>
<circle cx="601" cy="55" r="8" fill="#BDE3FF"/>
<path d="M514.992 250.586H517.918V260.706H514.992V250.586ZM516.752 254.832H520.624V257.23H516.752V254.832ZM502.474 251.84H512.176V260.354H502.474V251.84ZM509.294 254.128H505.356V258.066H509.294V254.128ZM503.684 268.098H504.806C506.588 268.098 508.15 267.966 509.646 267.46L510.086 269.748C508.392 270.342 506.808 270.43 504.806 270.43H503.684V268.098ZM503.684 262.444H506.522V268.67H503.684V262.444ZM509.36 262.642H519.546V264.71H509.36V262.642ZM514.464 265.238C516.774 265.238 518.38 266.36 518.38 268.098C518.38 269.858 516.774 270.958 514.464 270.958C512.132 270.958 510.526 269.858 510.526 268.098C510.526 266.36 512.132 265.238 514.464 265.238ZM514.464 267.218C513.672 267.218 513.122 267.504 513.122 268.098C513.122 268.714 513.672 269 514.464 269C515.212 269 515.784 268.714 515.784 268.098C515.784 267.504 515.212 267.218 514.464 267.218ZM513.056 261.19H515.894V264.16H513.056V261.19ZM521.7 260.97H540.114V263.302H521.7V260.97ZM523.922 268.274H538.046V270.606H523.922V268.274ZM523.922 264.666H526.848V269.022H523.922V264.666ZM530.918 251.18C535.34 251.18 538.288 252.786 538.288 255.382C538.288 257.978 535.34 259.584 530.918 259.584C526.474 259.584 523.548 257.978 523.548 255.382C523.548 252.786 526.474 251.18 530.918 251.18ZM530.918 253.512C528.168 253.512 526.562 254.15 526.562 255.382C526.562 256.636 528.168 257.252 530.918 257.252C533.668 257.252 535.274 256.636 535.274 255.382C535.274 254.15 533.668 253.512 530.918 253.512ZM560.912 250.586H563.706V270.958H560.912V250.586ZM553.168 258.022H557.898V260.376H553.168V258.022ZM556.71 250.938H559.438V270.056H556.71V250.938ZM546.788 264.028H548.196C551.078 264.028 552.992 263.962 555.236 263.522L555.456 265.898C553.19 266.36 551.166 266.448 548.196 266.448H546.788V264.028ZM546.788 252.874H554.554V255.206H549.67V265.04H546.788V252.874ZM579.985 250.564H582.933V271.002H579.985V250.564ZM571.955 251.994C575.035 251.994 577.301 254.81 577.301 259.254C577.301 263.742 575.035 266.558 571.955 266.558C568.875 266.558 566.609 263.742 566.609 259.254C566.609 254.81 568.875 251.994 571.955 251.994ZM571.955 254.656C570.437 254.656 569.403 256.262 569.403 259.254C569.403 262.29 570.437 263.918 571.955 263.918C573.473 263.918 574.485 262.29 574.485 259.254C574.485 256.262 573.473 254.656 571.955 254.656ZM600.025 250.564H602.929V271.002H600.025V250.564ZM596.527 257.736H600.355V260.112H596.527V257.736ZM586.759 264.028H588.387C591.753 264.028 594.261 263.984 597.143 263.522L597.407 265.854C594.459 266.316 591.819 266.404 588.387 266.404H586.759V264.028ZM586.759 252.28H596.197V254.656H589.663V264.776H586.759V252.28ZM589.003 257.956H595.493V260.244H589.003V257.956Z" fill="black"/>
<line x1="591.575" y1="89.467" x2="572.575" y2="31.467" stroke="black" stroke-width="3"/>
<circle cx="571" cy="29" r="8" fill="#BDE3FF"/>
<line x1="658.575" y1="68.467" x2="639.575" y2="10.467" stroke="black" stroke-width="3"/>
<circle cx="638" cy="8" r="8" fill="#BDE3FF"/>
</svg>
