<svg width="695" height="167" viewBox="0 0 695 167" fill="none" xmlns="http://www.w3.org/2000/svg">
<rect width="695" height="167" rx="10" fill="#8C8C8C"/>
<rect x="35" y="21" width="124" height="124" rx="10" fill="#A8D6A7"/>
<rect x="535" y="21" width="124" height="124" rx="10" fill="#8DA9D0"/>
<path d="M75.08 70.89H79.07V87.15H75.08V70.89ZM77.48 77.55H82.76V80.85H77.48V77.55ZM61.01 88.23H64.94V90.33H75.11V88.23H79.07V98.37H61.01V88.23ZM64.94 93.33V95.25H75.11V93.33H64.94ZM57.2 73.29H73.55V76.44H57.2V73.29ZM65.39 77.19C69.41 77.19 72.2 79.17 72.2 82.11C72.2 85.05 69.41 87.03 65.39 87.03C61.34 87.03 58.55 85.05 58.55 82.11C58.55 79.17 61.34 77.19 65.39 77.19ZM65.39 80.1C63.59 80.1 62.39 80.82 62.39 82.11C62.39 83.43 63.59 84.12 65.39 84.12C67.16 84.12 68.39 83.43 68.39 82.11C68.39 80.82 67.16 80.1 65.39 80.1ZM63.38 70.68H67.37V75.06H63.38V70.68ZM90.6777 72.33H94.0077V74.82C94.0077 80.4 91.5177 85.29 86.0577 87.12L83.9877 83.91C88.7277 82.38 90.6777 78.63 90.6777 74.82V72.33ZM91.5177 72.33H94.7277V74.64C94.7277 78.33 96.5277 81.75 100.938 83.16L98.8677 86.28C93.7377 84.51 91.5177 80.04 91.5177 74.64V72.33ZM103.488 70.89H107.478V87.15H103.488V70.89ZM98.0577 87.87C103.938 87.87 107.568 89.88 107.568 93.27C107.568 96.69 103.938 98.67 98.0577 98.67C92.1777 98.67 88.5477 96.69 88.5477 93.27C88.5477 89.88 92.1777 87.87 98.0577 87.87ZM98.0577 90.96C94.4577 90.96 92.5377 91.71 92.5377 93.27C92.5377 94.83 94.4577 95.61 98.0577 95.61C101.688 95.61 103.608 94.83 103.608 93.27C103.608 91.71 101.688 90.96 98.0577 90.96ZM98.4177 75.93H104.058V79.17H98.4177V75.93ZM114.135 71.88H131.715V75.03H114.135V71.88ZM111.315 82.44H136.335V85.59H111.315V82.44ZM120.585 77.91H124.545V83.46H120.585V77.91ZM129.405 71.88H133.365V73.62C133.365 75.48 133.365 77.97 132.645 81.18L128.685 80.82C129.405 77.64 129.405 75.42 129.405 73.62V71.88ZM114.255 87.21H118.215V89.82H129.375V87.21H133.305V98.37H114.255V87.21ZM118.215 92.82V95.22H129.375V92.82H118.215Z" fill="black"/>
<path d="M572.39 71.52H593.09V74.49H572.39V71.52ZM572.6 78.03H592.88V81H572.6V78.03ZM575.93 72.69H579.92V79.95H575.93V72.69ZM585.56 72.69H589.55V79.95H585.56V72.69ZM570.2 82.68H595.31V85.77H570.2V82.68ZM580.73 80.19H584.72V84.09H580.73V80.19ZM573.08 87.18H592.28V94.08H577.04V96.69H573.11V91.41H588.35V90.03H573.08V87.18ZM573.11 95.58H593V98.49H573.11V95.58ZM616.308 70.92H620.328V87.75H616.308V70.92ZM598.668 83.43H601.098C606.498 83.43 610.008 83.31 614.028 82.65L614.478 85.83C610.338 86.55 606.648 86.64 601.098 86.64H598.668V83.43ZM598.638 72.54H611.418V81H602.598V85.23H598.668V78.03H607.488V75.72H598.638V72.54ZM610.968 88.26C616.848 88.26 620.508 90.15 620.508 93.48C620.508 96.78 616.848 98.7 610.968 98.7C605.088 98.7 601.488 96.78 601.488 93.48C601.488 90.15 605.088 88.26 610.968 88.26ZM610.968 91.35C607.338 91.35 605.448 92.01 605.448 93.48C605.448 94.92 607.338 95.61 610.968 95.61C614.628 95.61 616.518 94.92 616.518 93.48C616.518 92.01 614.628 91.35 610.968 91.35Z" fill="black"/>
<path d="M286 85L261 70.5662V99.4338L286 85ZM159 87.5H263.5V82.5H159V87.5Z" fill="white"/>
<path d="M535 85L510 70.5662V99.4338L535 85ZM410 87.5H512.5V82.5H410V87.5Z" fill="white"/>
<rect x="285" y="21" width="124" height="124" rx="10" fill="#DBDB8C"/>
<path d="M325.434 47.89H329.424V64.21H325.434V47.89ZM328.014 54.43H332.904V57.7H328.014V54.43ZM310.734 65.23H329.424V71.53H314.724V73.75H310.764V69.07H325.494V67.87H310.734V65.23ZM310.764 72.85H330.384V75.49H310.764V72.85ZM313.674 58.99H317.664V62.95H313.674V58.99ZM307.464 63.97L307.044 61.27C311.964 61.27 318.594 61.24 324.204 60.49L324.504 62.92C318.654 63.94 312.264 63.97 307.464 63.97ZM307.764 49.63H323.514V52.27H307.764V49.63ZM315.654 52.78C319.764 52.78 322.404 54.13 322.404 56.41C322.404 58.72 319.764 60.07 315.654 60.07C311.514 60.07 308.874 58.72 308.874 56.41C308.874 54.13 311.514 52.78 315.654 52.78ZM315.654 55.24C313.764 55.24 312.654 55.6 312.654 56.41C312.654 57.22 313.764 57.61 315.654 57.61C317.544 57.61 318.624 57.22 318.624 56.41C318.624 55.6 317.544 55.24 315.654 55.24ZM313.674 47.65H317.664V51.1H313.674V47.65ZM340.851 49.33H344.181V51.82C344.181 57.4 341.691 62.29 336.231 64.12L334.161 60.91C338.901 59.38 340.851 55.63 340.851 51.82V49.33ZM341.691 49.33H344.901V51.64C344.901 55.33 346.701 58.75 351.111 60.16L349.041 63.28C343.911 61.51 341.691 57.04 341.691 51.64V49.33ZM353.661 47.89H357.651V64.15H353.661V47.89ZM348.231 64.87C354.111 64.87 357.741 66.88 357.741 70.27C357.741 73.69 354.111 75.67 348.231 75.67C342.351 75.67 338.721 73.69 338.721 70.27C338.721 66.88 342.351 64.87 348.231 64.87ZM348.231 67.96C344.631 67.96 342.711 68.71 342.711 70.27C342.711 71.83 344.631 72.61 348.231 72.61C351.861 72.61 353.781 71.83 353.781 70.27C353.781 68.71 351.861 67.96 348.231 67.96ZM348.591 52.93H354.231V56.17H348.591V52.93ZM367.849 64.33H371.839V68.83H367.849V64.33ZM379.519 47.89H383.539V75.67H379.519V47.89ZM382.129 59.17H387.019V62.47H382.129V59.17ZM361.609 71.05L361.129 67.84C365.929 67.84 372.529 67.81 378.139 67.03L378.439 69.91C372.589 71.05 366.289 71.05 361.609 71.05ZM361.639 50.95H377.989V54.07H361.639V50.95ZM369.859 55.18C373.819 55.18 376.639 57.28 376.639 60.37C376.639 63.49 373.819 65.59 369.859 65.59C365.869 65.59 363.079 63.49 363.079 60.37C363.079 57.28 365.869 55.18 369.859 55.18ZM369.859 58.18C368.029 58.18 366.859 58.96 366.859 60.37C366.859 61.81 368.029 62.59 369.859 62.59C371.659 62.59 372.859 61.81 372.859 60.37C372.859 58.96 371.659 58.18 369.859 58.18ZM367.849 48.04H371.839V53.29H367.849V48.04ZM338.767 92.89H342.757V109.63H338.767V92.89ZM341.647 99.73H346.447V103H341.647V99.73ZM324.697 110.83H342.757V120.37H324.697V110.83ZM338.857 113.98H328.627V117.22H338.857V113.98ZM320.887 95.38H337.237V98.53H320.887V95.38ZM329.077 99.34C333.097 99.34 335.887 101.38 335.887 104.35C335.887 107.35 333.097 109.33 329.077 109.33C325.027 109.33 322.237 107.35 322.237 104.35C322.237 101.38 325.027 99.34 329.077 99.34ZM329.077 102.31C327.277 102.31 326.077 103 326.077 104.35C326.077 105.7 327.277 106.42 329.077 106.42C330.847 106.42 332.077 105.7 332.077 104.35C332.077 103 330.847 102.31 329.077 102.31ZM327.067 92.71H331.057V97.09H327.067V92.71ZM358.385 93.7H361.895V94.99C361.895 100.33 357.695 104.86 350.405 105.94L348.845 102.73C355.235 101.89 358.385 98.26 358.385 94.99V93.7ZM359.135 93.7H362.615V94.99C362.615 98.23 365.795 101.89 372.155 102.73L370.625 105.94C363.335 104.86 359.135 100.33 359.135 94.99V93.7ZM358.415 110.5H362.375V120.67H358.415V110.5ZM347.945 107.98H373.055V111.22H347.945V107.98Z" fill="black"/>
</svg>
