<svg width="692" height="510" viewBox="0 0 692 510" fill="none" xmlns="http://www.w3.org/2000/svg">
<rect y="110.916" width="99.5981" height="256.352" rx="6" fill="#F0F0F0"/>
<circle cx="49.799" cy="310.678" r="36.2175" fill="#BDE3FF"/>
<circle cx="49.799" cy="169.77" r="36.2175" fill="#BDE3FF"/>
<rect x="210.514" width="99.5981" height="464.037" rx="6" fill="#F0F0F0"/>
<circle cx="256.352" cy="238.243" r="36.2175" fill="#BDE3FF"/>
<circle cx="260.313" cy="58.8534" r="36.2175" fill="#BDE3FF"/>
<rect x="591.93" y="110.916" width="99.5981" height="256.352" rx="6" fill="#F0F0F0"/>
<circle cx="641.729" cy="310.678" r="36.2175" fill="#BDE3FF"/>
<circle cx="641.729" cy="169.77" r="36.2175" fill="#BDE3FF"/>
<circle cx="260.313" cy="403.486" r="36.2175" fill="#BDE3FF"/>
<path d="M91.1306 147.993L218.982 80.6302" stroke="#B3B3B3" stroke-width="8" stroke-linecap="round" stroke-linejoin="bevel"/>
<path d="M94.1433 184.47L212.008 223.543" stroke="#B3B3B3" stroke-width="8" stroke-linecap="round" stroke-linejoin="bevel"/>
<path d="M81.0654 204.482L229.047 368.773" stroke="#B3B3B3" stroke-width="8" stroke-linecap="round" stroke-linejoin="bevel"/>
<path d="M79.7622 274.835L230.35 94.6965" stroke="#B3B3B3" stroke-width="8" stroke-linecap="round" stroke-linejoin="bevel"/>
<path d="M93.8843 295.218L212.267 253.703" stroke="#B3B3B3" stroke-width="8" stroke-linecap="round" stroke-linejoin="bevel"/>
<path d="M92.5466 329.524L217.566 384.64" stroke="#B3B3B3" stroke-width="8" stroke-linecap="round" stroke-linejoin="bevel"/>
<path d="M31.713 392.82H34.7462V404.092H31.713V392.82ZM20.8025 404.998H23.7678V406.944H31.7583V404.998H34.7462V413.554H20.8025V404.998ZM23.7678 409.253V411.155H31.7583V409.253H23.7678ZM23.3377 393.68C26.5973 393.68 29.0194 395.74 29.0194 398.637C29.0194 401.534 26.5973 403.594 23.3377 403.594C20.0782 403.594 17.6335 401.534 17.6335 398.637C17.6335 395.74 20.0782 393.68 23.3377 393.68ZM23.3377 396.17C21.7306 396.17 20.5761 397.098 20.5761 398.637C20.5761 400.199 21.7306 401.104 23.3377 401.104C24.9222 401.104 26.0767 400.199 26.0767 398.637C26.0767 397.098 24.9222 396.17 23.3377 396.17ZM38.4341 402.802H40.0413C43.9347 402.802 45.9719 402.734 48.3487 402.304L48.6429 404.681C46.1983 405.134 44.0478 405.202 40.0413 405.202H38.4341V402.802ZM38.4115 394.019H47.6243V400.629H41.4221V404.387H38.4341V398.388H44.6364V396.396H38.4115V394.019ZM52.1741 392.842H55.1847V405.745H52.1741V392.842ZM48.824 395.717H52.7174V398.116H48.824V395.717ZM48.824 400.176H52.7174V402.576H48.824V400.176ZM40.8335 406.695H55.1847V413.803H52.1741V409.095H40.8335V406.695ZM57.9672 403.164H76.9135V405.541H57.9672V403.164ZM65.935 392.888H68.923V395.966H65.935V392.888ZM65.7539 396.102H68.4023V396.509C68.4023 399.678 65.3691 401.919 59.6422 402.304L58.7594 400.041C63.8073 399.746 65.7539 398.094 65.7539 396.509V396.102ZM66.4557 396.102H69.1041V396.509C69.1041 398.094 71.0508 399.746 76.0986 400.041L75.2158 402.304C69.4889 401.919 66.4557 399.678 66.4557 396.509V396.102ZM59.7781 394.698H75.1026V397.03H59.7781V394.698ZM67.4064 406.673C71.9788 406.673 74.6725 407.94 74.6725 410.227C74.6725 412.536 71.9788 413.781 67.4064 413.781C62.8339 413.781 60.1176 412.536 60.1176 410.227C60.1176 407.94 62.8339 406.673 67.4064 406.673ZM67.4064 408.891C64.5542 408.891 63.1734 409.276 63.1734 410.227C63.1734 411.155 64.5542 411.562 67.4064 411.562C70.2359 411.562 71.6393 411.155 71.6393 410.227C71.6393 409.276 70.2359 408.891 67.4064 408.891Z" fill="#1E1E1E"/>
<path d="M223.869 491.784H242.816V494.183H223.869V491.784ZM226.156 499.299H240.688V501.699H226.156V499.299ZM226.156 495.587H229.166V500.069H226.156V495.587ZM233.354 481.711C237.904 481.711 240.937 483.363 240.937 486.034C240.937 488.705 237.904 490.358 233.354 490.358C228.781 490.358 225.771 488.705 225.771 486.034C225.771 483.363 228.781 481.711 233.354 481.711ZM233.354 484.11C230.524 484.11 228.872 484.767 228.872 486.034C228.872 487.325 230.524 487.958 233.354 487.958C236.183 487.958 237.836 487.325 237.836 486.034C237.836 484.767 236.183 484.11 233.354 484.11ZM247.318 493.912H261.624V502.106H258.591V496.334H247.318V493.912ZM258.591 481.145H261.624V493.052H258.591V481.145ZM245.394 482.209H248.382V490.856H245.394V482.209ZM245.394 489.498H247.205C250.193 489.498 253.475 489.294 256.893 488.615L257.256 491.06C253.702 491.761 250.306 491.965 247.205 491.965H245.394V489.498ZM264.52 491.444H283.466V493.821H264.52V491.444ZM272.488 481.168H275.476V484.246H272.488V481.168ZM272.307 484.382H274.955V484.789C274.955 487.958 271.922 490.199 266.195 490.584L265.312 488.321C270.36 488.026 272.307 486.374 272.307 484.789V484.382ZM273.009 484.382H275.657V484.789C275.657 486.374 277.604 488.026 282.651 488.321L281.769 490.584C276.042 490.199 273.009 487.958 273.009 484.789V484.382ZM266.331 482.979H281.655V485.31H266.331V482.979ZM273.959 494.953C278.532 494.953 281.225 496.221 281.225 498.507C281.225 500.816 278.532 502.061 273.959 502.061C269.387 502.061 266.67 500.816 266.67 498.507C266.67 496.221 269.387 494.953 273.959 494.953ZM273.959 497.171C271.107 497.171 269.726 497.556 269.726 498.507C269.726 499.435 271.107 499.842 273.959 499.842C276.789 499.842 278.192 499.435 278.192 498.507C278.192 497.556 276.789 497.171 273.959 497.171ZM297.177 483.584V500.046H293.697V486.887H293.6L289.83 489.251V486.164L293.906 483.584H297.177Z" fill="#1E1E1E"/>
<path d="M619.478 393.295H622.488V396.328H619.478V393.295ZM611.555 391.529H630.434V393.725H611.555V391.529ZM619.478 382.611H622.466V385.146H619.478V382.611ZM619.297 385.282H621.945V385.689C621.945 388.7 618.889 390.692 613.094 391.009L612.257 388.768C617.373 388.564 619.297 387.138 619.297 385.689V385.282ZM619.998 385.282H622.647V385.689C622.647 387.138 624.571 388.564 629.664 388.768L628.826 391.009C623.054 390.692 619.998 388.7 619.998 385.689V385.282ZM613.321 384.263H628.645V386.459H613.321V384.263ZM613.683 394.993H628.17V400.176H616.671V402.168H613.706V398.162H625.205V397.166H613.683V394.993ZM613.706 401.263H628.713V403.459H613.706V401.263ZM632.627 392.616H634.235C638.128 392.616 640.165 392.548 642.542 392.118L642.836 394.495C640.392 394.947 638.241 395.015 634.235 395.015H632.627V392.616ZM632.605 383.833H641.818V390.443H635.615V394.2H632.627V388.202H638.83V386.21H632.605V383.833ZM646.368 382.656H649.378V395.559H646.368V382.656ZM643.017 385.531H646.911V387.93H643.017V385.531ZM643.017 389.99H646.911V392.39H643.017V389.99ZM635.027 396.509H649.378V403.617H646.368V398.909H635.027V396.509ZM652.161 392.978H671.107V395.355H652.161V392.978ZM660.128 382.701H663.116V385.78H660.128V382.701ZM659.947 385.916H662.596V386.323C662.596 389.492 659.562 391.733 653.836 392.118L652.953 389.854C658.001 389.56 659.947 387.908 659.947 386.323V385.916ZM660.649 385.916H663.297V386.323C663.297 387.908 665.244 389.56 670.292 389.854L669.409 392.118C663.682 391.733 660.649 389.492 660.649 386.323V385.916ZM653.971 384.512H669.296V386.844H653.971V384.512ZM661.6 396.487C666.172 396.487 668.866 397.754 668.866 400.04C668.866 402.349 666.172 403.594 661.6 403.594C657.027 403.594 654.311 402.349 654.311 400.04C654.311 397.754 657.027 396.487 661.6 396.487ZM661.6 398.705C658.748 398.705 657.367 399.09 657.367 400.04C657.367 400.969 658.748 401.376 661.6 401.376C664.429 401.376 665.833 400.969 665.833 400.04C665.833 399.09 664.429 398.705 661.6 398.705Z" fill="#1E1E1E"/>
<rect x="408.013" width="99.5981" height="464.037" rx="6" fill="#F0F0F0"/>
<circle cx="453.851" cy="238.243" r="36.2175" fill="#BDE3FF"/>
<circle cx="457.812" cy="58.8534" r="36.2175" fill="#BDE3FF"/>
<circle cx="457.812" cy="403.486" r="36.2175" fill="#BDE3FF"/>
<path d="M307.031 58.8535H411.094" stroke="#B3B3B3" stroke-width="8" stroke-linecap="round" stroke-linejoin="bevel"/>
<path d="M294.576 90.6116L419.588 206.485" stroke="#B3B3B3" stroke-width="8" stroke-linecap="round" stroke-linejoin="bevel"/>
<path d="M283.542 99.3869L434.583 362.952" stroke="#B3B3B3" stroke-width="8" stroke-linecap="round" stroke-linejoin="bevel"/>
<path d="M291.242 207.175L422.922 89.9213" stroke="#B3B3B3" stroke-width="8" stroke-linecap="round" stroke-linejoin="bevel"/>
<path d="M303.07 238.243H407.133" stroke="#B3B3B3" stroke-width="8" stroke-linecap="round" stroke-linejoin="bevel"/>
<path d="M292.473 267.871L421.691 373.858" stroke="#B3B3B3" stroke-width="8" stroke-linecap="round" stroke-linejoin="bevel"/>
<path d="M283.542 362.952L434.583 99.3869" stroke="#B3B3B3" stroke-width="8" stroke-linecap="round" stroke-linejoin="bevel"/>
<path d="M295.843 373.151L418.321 268.578" stroke="#B3B3B3" stroke-width="8" stroke-linecap="round" stroke-linejoin="bevel"/>
<path d="M307.031 403.486H411.094" stroke="#B3B3B3" stroke-width="8" stroke-linecap="round" stroke-linejoin="bevel"/>
<path d="M497.817 82.9799L601.723 145.643" stroke="#B3B3B3" stroke-width="8" stroke-linecap="round" stroke-linejoin="bevel"/>
<path d="M485.365 96.5805L614.175 272.951" stroke="#B3B3B3" stroke-width="8" stroke-linecap="round" stroke-linejoin="bevel"/>
<path d="M497.744 222.246L597.836 185.767" stroke="#B3B3B3" stroke-width="8" stroke-linecap="round" stroke-linejoin="bevel"/>
<path d="M497.441 255.049L598.139 293.873" stroke="#B3B3B3" stroke-width="8" stroke-linecap="round" stroke-linejoin="bevel"/>
<path d="M486.702 366.772L612.838 206.483" stroke="#B3B3B3" stroke-width="8" stroke-linecap="round" stroke-linejoin="bevel"/>
<path d="M499.52 382.439L600.021 331.725" stroke="#B3B3B3" stroke-width="8" stroke-linecap="round" stroke-linejoin="bevel"/>
<path d="M423.632 491.784H442.578V494.183H423.632V491.784ZM425.918 499.299H440.45V501.699H425.918V499.299ZM425.918 495.587H428.928V500.069H425.918V495.587ZM433.116 481.711C437.666 481.711 440.699 483.363 440.699 486.034C440.699 488.705 437.666 490.358 433.116 490.358C428.544 490.358 425.533 488.705 425.533 486.034C425.533 483.363 428.544 481.711 433.116 481.711ZM433.116 484.11C430.287 484.11 428.634 484.767 428.634 486.034C428.634 487.325 430.287 487.958 433.116 487.958C435.946 487.958 437.598 487.325 437.598 486.034C437.598 484.767 435.946 484.11 433.116 484.11ZM447.081 493.912H461.387V502.106H458.353V496.334H447.081V493.912ZM458.353 481.145H461.387V493.052H458.353V481.145ZM445.157 482.209H448.145V490.856H445.157V482.209ZM445.157 489.498H446.968C449.955 489.498 453.238 489.294 456.656 488.615L457.018 491.06C453.464 491.761 450.069 491.965 446.968 491.965H445.157V489.498ZM464.282 491.444H483.229V493.821H464.282V491.444ZM472.25 481.168H475.238V484.246H472.25V481.168ZM472.069 484.382H474.717V484.789C474.717 487.958 471.684 490.199 465.957 490.584L465.074 488.321C470.122 488.026 472.069 486.374 472.069 484.789V484.382ZM472.771 484.382H475.419V484.789C475.419 486.374 477.366 488.026 482.414 488.321L481.531 490.584C475.804 490.199 472.771 487.958 472.771 484.789V484.382ZM466.093 482.979H481.418V485.31H466.093V482.979ZM473.721 494.953C478.294 494.953 480.988 496.221 480.988 498.507C480.988 500.816 478.294 502.061 473.721 502.061C469.149 502.061 466.433 500.816 466.433 498.507C466.433 496.221 469.149 494.953 473.721 494.953ZM473.721 497.171C470.869 497.171 469.489 497.556 469.489 498.507C469.489 499.435 470.869 499.842 473.721 499.842C476.551 499.842 477.954 499.435 477.954 498.507C477.954 497.556 476.551 497.171 473.721 497.171ZM489.777 500.046V497.538L495.637 492.112C496.136 491.63 496.554 491.196 496.891 490.81C497.234 490.424 497.494 490.046 497.671 489.677C497.848 489.302 497.936 488.897 497.936 488.463C497.936 487.981 497.827 487.565 497.607 487.217C497.387 486.863 497.087 486.593 496.707 486.405C496.326 486.212 495.895 486.116 495.412 486.116C494.909 486.116 494.469 486.217 494.094 486.421C493.719 486.625 493.43 486.917 493.226 487.297C493.022 487.678 492.92 488.131 492.92 488.656H489.617C489.617 487.579 489.861 486.644 490.348 485.85C490.836 485.057 491.519 484.444 492.398 484.01C493.277 483.576 494.29 483.359 495.436 483.359C496.615 483.359 497.642 483.568 498.515 483.985C499.394 484.398 500.077 484.972 500.565 485.706C501.053 486.44 501.296 487.281 501.296 488.23C501.296 488.851 501.173 489.465 500.927 490.071C500.685 490.676 500.254 491.349 499.632 492.088C499.011 492.822 498.135 493.704 497.004 494.733L494.6 497.088V497.201H501.513V500.046H489.777Z" fill="#1E1E1E"/>
</svg>
