<svg width="331" height="249" viewBox="0 0 331 249" fill="none" xmlns="http://www.w3.org/2000/svg">
<path d="M320.656 0.375H10.3438C7.60042 0.375 4.96944 1.46479 3.02961 3.40461C1.08979 5.34444 0 7.97542 0 10.7188L0 238.281C0 241.025 1.08979 243.656 3.02961 245.595C4.96944 247.535 7.60042 248.625 10.3438 248.625H320.656C323.4 248.625 326.031 247.535 327.97 245.595C329.91 243.656 331 241.025 331 238.281V10.7188C331 7.97542 329.91 5.34444 327.97 3.40461C326.031 1.46479 323.4 0.375 320.656 0.375ZM310.312 21.0625V192.562L245.147 127.603C244.218 126.614 243.097 125.825 241.851 125.286C240.606 124.747 239.263 124.469 237.906 124.469C236.549 124.469 235.207 124.747 233.961 125.286C232.716 125.825 231.594 126.614 230.666 127.603L175.844 182.218L100.334 106.916C99.4057 105.926 98.2841 105.137 97.0387 104.598C95.7934 104.059 94.4508 103.781 93.0938 103.781C91.7367 103.781 90.3941 104.059 89.1488 104.598C87.9034 105.137 86.7818 105.926 85.8531 106.916L20.6875 171.874V21.0625H310.312ZM20.6875 227.938V201.251L93.0938 128.844L168.603 204.147C169.532 205.136 170.653 205.925 171.899 206.464C173.144 207.003 174.487 207.281 175.844 207.281C177.201 207.281 178.543 207.003 179.789 206.464C181.034 205.925 182.156 205.136 183.084 204.147L237.906 149.532L310.312 221.938V227.938H20.6875ZM186.188 124.5C194.371 124.5 202.37 122.073 209.174 117.527C215.978 112.981 221.281 106.519 224.413 98.9585C227.545 91.3982 228.364 83.0791 226.768 75.0531C225.171 67.0272 221.23 59.6549 215.444 53.8685C209.658 48.0821 202.285 44.1415 194.259 42.545C186.233 40.9485 177.914 41.7679 170.354 44.8995C162.794 48.0311 156.332 53.3342 151.785 60.1383C147.239 66.9424 144.812 74.9418 144.812 83.125C144.812 94.0983 149.172 104.622 156.931 112.382C164.69 120.141 175.214 124.5 186.188 124.5ZM186.188 62.4375C190.279 62.4375 194.279 63.6508 197.681 65.924C201.083 68.1971 203.734 71.4281 205.3 75.2082C206.866 78.9884 207.276 83.1479 206.477 87.1609C205.679 91.1739 203.709 94.8601 200.816 97.7533C197.923 100.646 194.236 102.617 190.223 103.415C186.21 104.213 182.051 103.804 178.271 102.238C174.491 100.672 171.26 98.0204 168.986 94.6184C166.713 91.2163 165.5 87.2166 165.5 83.125C165.5 77.6383 167.68 72.3764 171.559 68.4967C175.439 64.6171 180.701 62.4375 186.188 62.4375Z" fill="black"/>
<mask id="path-2-inside-1_2085_652" fill="white">
<rect x="125" y="21" width="118" height="118" rx="5"/>
</mask>
<rect x="125" y="21" width="118" height="118" rx="5" stroke="#00FF73" stroke-width="14" mask="url(#path-2-inside-1_2085_652)"/>
<mask id="path-3-inside-2_2085_652" fill="white">
<rect x="30" y="90" width="277" height="134" rx="5"/>
</mask>
<rect x="30" y="90" width="277" height="134" rx="5" stroke="#00FF73" stroke-width="14" mask="url(#path-3-inside-2_2085_652)"/>
<path d="M31.1378 66.9091H34.5511L38.1562 75.7045H38.3097L41.9148 66.9091H45.3281V80H42.6435V71.4794H42.5348L39.147 79.9361H37.3189L33.9311 71.4474H33.8224V80H31.1378V66.9091ZM49.149 80.1662C48.7271 80.1662 48.3649 80.017 48.0623 79.7188C47.764 79.4162 47.6149 79.054 47.6149 78.6321C47.6149 78.2145 47.764 77.8565 48.0623 77.5582C48.3649 77.2599 48.7271 77.1108 49.149 77.1108C49.5581 77.1108 49.916 77.2599 50.2228 77.5582C50.5297 77.8565 50.6831 78.2145 50.6831 78.6321C50.6831 78.9134 50.6106 79.1712 50.4657 79.4055C50.3251 79.6357 50.1397 79.821 49.9096 79.9616C49.6795 80.098 49.426 80.1662 49.149 80.1662ZM51.856 69.1911V66.9091H62.6074V69.1911H58.5996V80H55.8638V69.1911H51.856Z" fill="#0BDF0B"/>
<path d="M87.2393 40.674C87.1882 40.1584 86.9688 39.7578 86.581 39.4723C86.1932 39.1868 85.6669 39.044 85.0021 39.044C84.5504 39.044 84.169 39.108 83.858 39.2358C83.5469 39.3594 83.3082 39.532 83.142 39.7536C82.9801 39.9751 82.8991 40.2266 82.8991 40.5078C82.8906 40.7422 82.9396 40.9467 83.0462 41.1214C83.157 41.2962 83.3082 41.4474 83.5 41.5753C83.6918 41.6989 83.9134 41.8075 84.1648 41.9013C84.4162 41.9908 84.6847 42.0675 84.9702 42.1314L86.1463 42.4126C86.7173 42.5405 87.2415 42.7109 87.7188 42.924C88.196 43.1371 88.6094 43.3991 88.9588 43.7102C89.3082 44.0213 89.5788 44.3878 89.7706 44.8097C89.9666 45.2315 90.0668 45.7152 90.071 46.2607C90.0668 47.0618 89.8622 47.7564 89.4574 48.3445C89.0568 48.9283 88.4773 49.3821 87.7188 49.706C86.9645 50.0256 86.0547 50.1854 84.9893 50.1854C83.9325 50.1854 83.0121 50.0234 82.228 49.6996C81.4482 49.3757 80.8388 48.8963 80.3999 48.2614C79.9652 47.6222 79.7372 46.8317 79.7159 45.8899H82.3942C82.424 46.3288 82.5497 46.6953 82.7713 46.9893C82.9972 47.2791 83.2976 47.4986 83.6726 47.6477C84.0518 47.7926 84.4801 47.8651 84.9574 47.8651C85.4261 47.8651 85.8331 47.7969 86.1783 47.6605C86.5277 47.5241 86.7983 47.3345 86.9901 47.0916C87.1818 46.8487 87.2777 46.5696 87.2777 46.2543C87.2777 45.9602 87.1903 45.7131 87.0156 45.5128C86.8452 45.3125 86.5938 45.142 86.2614 45.0014C85.9332 44.8608 85.5305 44.733 85.0533 44.6179L83.6278 44.2599C82.5241 43.9915 81.6527 43.5717 81.0135 43.0007C80.3743 42.4297 80.0568 41.6605 80.0611 40.6932C80.0568 39.9006 80.2678 39.2081 80.6939 38.6158C81.1243 38.0234 81.7145 37.5611 82.4645 37.2287C83.2145 36.8963 84.0668 36.7301 85.0213 36.7301C85.9929 36.7301 86.8409 36.8963 87.5653 37.2287C88.294 37.5611 88.8608 38.0234 89.2656 38.6158C89.6705 39.2081 89.8793 39.8942 89.892 40.674H87.2393ZM100.019 36.9091H102.786V45.4105C102.786 46.3651 102.558 47.2003 102.102 47.9162C101.651 48.6321 101.018 49.1903 100.204 49.5909C99.3901 49.9872 98.4419 50.1854 97.3596 50.1854C96.2729 50.1854 95.3226 49.9872 94.5087 49.5909C93.6948 49.1903 93.062 48.6321 92.6103 47.9162C92.1586 47.2003 91.9327 46.3651 91.9327 45.4105V36.9091H94.7005V45.174C94.7005 45.6726 94.8091 46.1158 95.0265 46.5036C95.248 46.8913 95.5591 47.196 95.9597 47.4176C96.3603 47.6392 96.8269 47.75 97.3596 47.75C97.8965 47.75 98.3631 47.6392 98.7594 47.4176C99.16 47.196 99.4689 46.8913 99.6863 46.5036C99.9078 46.1158 100.019 45.6726 100.019 45.174V36.9091ZM116.013 36.9091V50H113.623L107.927 41.7607H107.831V50H105.064V36.9091H107.493L113.143 45.142H113.258V36.9091H116.013Z" fill="#0BDF0B"/>
</svg>
