<svg width="353" height="94" viewBox="0 0 353 94" fill="none" xmlns="http://www.w3.org/2000/svg">
<g filter="url(#filter0_d_2076_480)">
<path fill-rule="evenodd" clip-rule="evenodd" d="M158.314 40.4033L174.996 15.7198C175.883 14.5267 177.781 15.1537 177.781 16.6404V50.7974C177.781 51.9905 176.482 52.7358 175.453 52.133L158.771 42.6596C157.977 42.1929 157.764 41.142 158.314 40.4033ZM202.968 42.6596L186.29 52.133C185.258 52.7358 183.962 51.9905 183.962 50.7974V16.6404C183.962 15.1537 185.857 14.5267 186.747 15.7198L203.429 40.4033C203.976 41.142 203.763 42.1929 202.968 42.6596ZM183.962 1.62505C182.473 -0.541682 179.27 -0.541682 177.781 1.62505L150.704 40.2735C149.369 42.0662 149.888 44.6192 151.817 45.7505L177.781 60.6617L179.088 61.365C180.201 61.9646 181.539 61.9646 182.652 61.365L183.962 60.6617L209.926 45.7505C211.852 44.6192 212.371 42.0662 211.039 40.2735L183.962 1.62505Z" fill="url(#paint0_linear_2076_480)"/>
<path fill-rule="evenodd" clip-rule="evenodd" d="M12.5992 42.6113L29.2808 17.9278C30.1679 16.7347 32.0657 17.3617 32.0657 18.8484V53.0054C32.0657 54.1985 30.7676 54.9438 29.7383 54.341L13.0567 44.8676C12.2623 44.4009 12.049 43.35 12.5992 42.6113ZM57.2536 44.8676L40.575 54.341C39.5427 54.9438 38.2476 54.1985 38.2476 53.0054V18.8484C38.2476 17.3617 40.1423 16.7347 41.0325 17.9278L57.7141 42.6113C58.2612 43.35 58.0479 44.4009 57.2536 44.8676ZM38.2476 3.83305C36.7577 1.66633 33.5556 1.66633 32.0657 3.83305L4.98938 42.4815C3.65411 44.2742 4.17338 46.8272 6.10211 47.9585L32.0657 62.8697L33.3732 63.573C34.4859 64.1727 35.8243 64.1727 36.937 63.573L38.2476 62.8697L64.2112 47.9585C66.1368 46.8272 66.6561 44.2742 65.3239 42.4815L38.2476 3.83305Z" fill="black"/>
<path d="M296.779 3.93701V17.7725H348.662V3.93701H296.779ZM308.021 13.448H302.832V8.25973H308.021V13.448Z" fill="black"/>
<path d="M296.779 35.0665H348.662V21.231H296.779V35.0665ZM302.832 25.5537H308.021V30.742H302.832V25.5537Z" fill="black"/>
<path d="M296.779 52.3609H348.662V38.5254H296.779V52.3609ZM302.832 42.8481H308.021V48.0364H302.832V42.8481Z" fill="black"/>
<path d="M83.7935 16.2214H84.7097V26.2227H83.7935V16.2214ZM79.4442 16.9941C80.9234 16.9941 81.9831 18.3519 81.9831 20.4714C81.9831 22.6019 80.9234 23.9597 79.4442 23.9597C77.976 23.9597 76.9162 22.6019 76.9162 20.4714C76.9162 18.3519 77.976 16.9941 79.4442 16.9941ZM79.4442 17.822C78.4727 17.822 77.7883 18.8597 77.7883 20.4714C77.7883 22.0941 78.4727 23.1538 79.4442 23.1538C80.4266 23.1538 81.1 22.0941 81.1 20.4714C81.1 18.8597 80.4266 17.822 79.4442 17.822ZM86.6959 21.3766H95.7478V22.1272H86.6959V21.3766ZM87.8439 16.4753H94.5777V18.8376H88.7712V20.1623H87.866V18.1642H93.6836V17.1928H87.8439V16.4753ZM87.866 19.809H94.7985V20.5266H87.866V19.809ZM87.9102 23.0324H94.5887V26.0792H87.9102V23.0324ZM93.6946 23.761H88.8043V25.3395H93.6946V23.761ZM104.724 18.0649H107.606V18.8045H104.724V18.0649ZM104.724 20.2175H107.628V20.9571H104.724V20.2175ZM107.252 16.2434H108.169V23.6285H107.252V16.2434ZM101.755 25.2402H108.411V25.9908H101.755V25.2402ZM101.755 22.911H102.671V25.6266H101.755V22.911ZM100.452 16.8947H101.358V18.661H104.062V16.8947H104.956V21.9285H100.452V16.8947ZM101.358 19.3785V21.1779H104.062V19.3785H101.358ZM114.89 18.0649H117.562V18.8155H114.89V18.0649ZM114.802 20.1402H117.496V20.8908H114.802V20.1402ZM117.407 16.2324H118.324V22.2155H117.407V16.2324ZM114.283 16.9831H115.266C115.266 19.5551 113.488 21.3545 110.618 22.2155L110.243 21.4759C112.793 20.7363 114.283 19.2681 114.283 17.3805V16.9831ZM110.762 16.9831H114.913V17.7337H110.762V16.9831ZM115.078 22.3259C117.098 22.3259 118.379 23.0434 118.379 24.2467C118.379 25.4499 117.098 26.1675 115.078 26.1675C113.058 26.1675 111.777 25.4499 111.777 24.2467C111.777 23.0434 113.058 22.3259 115.078 22.3259ZM115.078 23.0434C113.621 23.0434 112.683 23.496 112.683 24.2467C112.683 24.9973 113.621 25.4389 115.078 25.4389C116.546 25.4389 117.485 24.9973 117.485 24.2467C117.485 23.496 116.546 23.0434 115.078 23.0434Z" fill="black"/>
<path d="M247.226 16.2214H248.131V26.2227H247.226V16.2214ZM245.073 19.8642H247.491V20.6149H245.073V19.8642ZM242.457 17.6564H243.196V19.1467C243.196 21.2993 241.96 23.4298 240.381 24.2467L239.841 23.5181C241.276 22.8116 242.457 20.924 242.457 19.1467V17.6564ZM242.644 17.6564H243.373V19.1467C243.373 20.8136 244.532 22.635 245.978 23.3194L245.437 24.0369C243.859 23.2532 242.644 21.1999 242.644 19.1467V17.6564ZM240.205 17.248H245.636V18.0097H240.205V17.248ZM252.535 17.3032H253.285V18.109C253.285 19.9415 252.181 21.4759 250.503 22.0831L250.04 21.3545C251.541 20.8246 252.535 19.5331 252.535 18.109V17.3032ZM252.7 17.3032H253.451V18.098C253.451 19.4006 254.4 20.5707 255.868 21.0564L255.427 21.774C253.76 21.222 252.7 19.798 252.7 18.098V17.3032ZM250.316 16.972H255.648V17.7227H250.316V16.972ZM256.906 16.2324H257.822V22.2486H256.906V16.2324ZM257.568 18.7603H259.301V19.5331H257.568V18.7603ZM254.643 22.5136C256.674 22.5136 257.922 23.1869 257.922 24.346C257.922 25.5162 256.674 26.1895 254.643 26.1895C252.612 26.1895 251.364 25.5162 251.364 24.346C251.364 23.1869 252.612 22.5136 254.643 22.5136ZM254.643 23.2532C253.164 23.2532 252.259 23.6506 252.259 24.346C252.259 25.0525 253.164 25.472 254.643 25.472C256.122 25.472 257.027 25.0525 257.027 24.346C257.027 23.6506 256.122 23.2532 254.643 23.2532Z" fill="black"/>
<path d="M130.872 31.6898C131.303 31.2587 131.303 30.5597 130.872 30.1286L123.846 23.1035C123.415 22.6724 122.716 22.6724 122.285 23.1035C121.854 23.5346 121.854 24.2335 122.285 24.6646L128.53 30.9092L122.285 37.1538C121.854 37.5849 121.854 38.2838 122.285 38.7149C122.716 39.146 123.415 39.146 123.846 38.7149L130.872 31.6898ZM72.6885 32.0131L130.091 32.0131V29.8053L72.6885 29.8053V32.0131Z" fill="black"/>
<path d="M281.002 31.6898C281.433 31.2587 281.433 30.5597 281.002 30.1286L273.977 23.1035C273.545 22.6724 272.847 22.6724 272.415 23.1035C271.984 23.5346 271.984 24.2335 272.415 24.6646L278.66 30.9092L272.415 37.1538C271.984 37.5849 271.984 38.2838 272.415 38.7149C272.847 39.146 273.545 39.146 273.977 38.7149L281.002 31.6898ZM225.026 32.0131H280.221V29.8053H225.026V32.0131Z" fill="black"/>
<path d="M11.3713 83.1254C10.7911 83.1254 10.2906 82.9974 9.86988 82.7413C9.45174 82.4825 9.12898 82.1219 8.90162 81.6593C8.67687 81.1941 8.56449 80.6532 8.56449 80.0364C8.56449 79.4197 8.67687 78.8761 8.90162 78.4057C9.12898 77.9326 9.4452 77.5641 9.85028 77.3002C10.258 77.0336 10.7336 76.9003 11.2772 76.9003C11.5908 76.9003 11.9005 76.9526 12.2063 77.0571C12.512 77.1617 12.7903 77.3316 13.0412 77.5668C13.2921 77.7994 13.492 78.1077 13.641 78.4919C13.79 78.8761 13.8644 79.3491 13.8644 79.911V80.303H9.22307V79.5033H12.9236C12.9236 79.1635 12.8557 78.8604 12.7198 78.5938C12.5865 78.3273 12.3957 78.1169 12.1475 77.9627C11.9018 77.8085 11.6117 77.7314 11.2772 77.7314C10.9087 77.7314 10.5899 77.8229 10.3207 78.0058C10.0541 78.1861 9.84897 78.4213 9.70524 78.7114C9.5615 79.0015 9.48963 79.3125 9.48963 79.6444V80.1775C9.48963 80.6323 9.56803 81.0177 9.72484 81.334C9.88425 81.6476 10.1051 81.8867 10.3873 82.0513C10.6696 82.2134 10.9976 82.2944 11.3713 82.2944C11.6143 82.2944 11.8338 82.2604 12.0298 82.1925C12.2285 82.1219 12.3996 82.0174 12.5434 81.8789C12.6871 81.7377 12.7982 81.5626 12.8766 81.3536L13.7704 81.6044C13.6763 81.9076 13.5182 82.1742 13.296 82.4041C13.0739 82.6315 12.7995 82.8092 12.4728 82.9373C12.1461 83.0627 11.779 83.1254 11.3713 83.1254ZM15.2718 85.258V76.9787H16.1655V77.9352H16.2753C16.3432 77.8307 16.4373 77.6974 16.5575 77.5354C16.6804 77.3708 16.8555 77.2244 17.0828 77.0964C17.3128 76.9657 17.6238 76.9003 18.0158 76.9003C18.5228 76.9003 18.9697 77.0271 19.3565 77.2806C19.7433 77.5341 20.0451 77.8934 20.262 78.3586C20.4789 78.8238 20.5874 79.3726 20.5874 80.0051C20.5874 80.6427 20.4789 81.1955 20.262 81.6633C20.0451 82.1284 19.7446 82.4891 19.3604 82.7452C18.9762 82.9987 18.5333 83.1254 18.0315 83.1254C17.6447 83.1254 17.335 83.0614 17.1024 82.9334C16.8698 82.8027 16.6908 82.655 16.5654 82.4904C16.4399 82.3231 16.3432 82.1846 16.2753 82.0749H16.1969V85.258H15.2718ZM16.1812 79.9894C16.1812 80.4441 16.2479 80.8453 16.3811 81.1928C16.5144 81.5378 16.7091 81.8083 16.9652 82.0043C17.2213 82.1977 17.535 82.2944 17.9061 82.2944C18.2928 82.2944 18.6156 82.1925 18.8743 81.9886C19.1357 81.7822 19.3317 81.5051 19.4623 81.1576C19.5956 80.8074 19.6623 80.418 19.6623 79.9894C19.6623 79.566 19.5969 79.1844 19.4663 78.8447C19.3382 78.5024 19.1435 78.2319 18.8822 78.0333C18.6234 77.832 18.2981 77.7314 17.9061 77.7314C17.5297 77.7314 17.2135 77.8268 16.9574 78.0176C16.7013 78.2057 16.5079 78.4697 16.3772 78.8094C16.2466 79.1466 16.1812 79.5399 16.1812 79.9894ZM24.4448 83.1254C23.9012 83.1254 23.4242 82.9961 23.0139 82.7374C22.6062 82.4786 22.2874 82.1167 22.0574 81.6515C21.8301 81.1863 21.7164 80.6427 21.7164 80.0207C21.7164 79.3935 21.8301 78.846 22.0574 78.3782C22.2874 77.9104 22.6062 77.5472 23.0139 77.2884C23.4242 77.0297 23.9012 76.9003 24.4448 76.9003C24.9883 76.9003 25.464 77.0297 25.8717 77.2884C26.282 77.5472 26.6008 77.9104 26.8282 78.3782C27.0582 78.846 27.1731 79.3935 27.1731 80.0207C27.1731 80.6427 27.0582 81.1863 26.8282 81.6515C26.6008 82.1167 26.282 82.4786 25.8717 82.7374C25.464 82.9961 24.9883 83.1254 24.4448 83.1254ZM24.4448 82.2944C24.8577 82.2944 25.1974 82.1885 25.464 81.9769C25.7305 81.7652 25.9279 81.4868 26.0559 81.1419C26.184 80.7969 26.248 80.4232 26.248 80.0207C26.248 79.6183 26.184 79.2433 26.0559 78.8957C25.9279 78.5481 25.7305 78.2671 25.464 78.0529C25.1974 77.8386 24.8577 77.7314 24.4448 77.7314C24.0318 77.7314 23.6921 77.8386 23.4255 78.0529C23.159 78.2671 22.9617 78.5481 22.8336 78.8957C22.7055 79.2433 22.6415 79.6183 22.6415 80.0207C22.6415 80.4232 22.7055 80.7969 22.8336 81.1419C22.9617 81.4868 23.159 81.7652 23.4255 81.9769C23.6921 82.1885 24.0318 82.2944 24.4448 82.2944ZM31.0315 83.1254C30.467 83.1254 29.9809 82.9922 29.5732 82.7256C29.1655 82.459 28.8519 82.0918 28.6324 81.624C28.4129 81.1563 28.3031 80.6218 28.3031 80.0207C28.3031 79.4092 28.4155 78.8695 28.6402 78.4017C28.8676 77.9313 29.1838 77.5641 29.5889 77.3002C29.9966 77.0336 30.4722 76.9003 31.0158 76.9003C31.4392 76.9003 31.8207 76.9787 32.1605 77.1356C32.5002 77.2924 32.7785 77.5119 32.9954 77.7941C33.2124 78.0764 33.3469 78.4057 33.3992 78.782H32.4741C32.4035 78.5076 32.2467 78.2645 32.0037 78.0529C31.7632 77.8386 31.4392 77.7314 31.0315 77.7314C30.6708 77.7314 30.3546 77.8255 30.0828 78.0137C29.8136 78.1992 29.6033 78.4618 29.4517 78.8016C29.3027 79.1387 29.2282 79.5346 29.2282 79.9894C29.2282 80.4546 29.3014 80.8596 29.4478 81.2046C29.5967 81.5496 29.8058 81.8174 30.075 82.0082C30.3468 82.199 30.6656 82.2944 31.0315 82.2944C31.2719 82.2944 31.4901 82.2526 31.6861 82.1689C31.8821 82.0853 32.0481 81.9651 32.184 81.8083C32.3199 81.6515 32.4166 81.4633 32.4741 81.2438H33.3992C33.3469 81.5992 33.2176 81.9194 33.0111 82.2042C32.8073 82.4865 32.5368 82.7112 32.1997 82.8785C31.8652 83.0431 31.4758 83.1254 31.0315 83.1254ZM35.6768 79.3778V83H34.7516V74.9717H35.6768V77.9196H35.7552C35.8963 77.6086 36.108 77.3616 36.3902 77.1787C36.6751 76.9931 37.054 76.9003 37.5271 76.9003C37.9374 76.9003 38.2967 76.9827 38.6051 77.1473C38.9135 77.3093 39.1526 77.5589 39.3225 77.896C39.4949 78.2306 39.5812 78.6565 39.5812 79.174V83H38.6561V79.2367C38.6561 78.7585 38.5319 78.3887 38.2836 78.1273C38.038 77.8634 37.6969 77.7314 37.2605 77.7314C36.9573 77.7314 36.6856 77.7954 36.4451 77.9235C36.2073 78.0515 36.0191 78.2384 35.8806 78.4841C35.7447 78.7297 35.6768 79.0276 35.6768 79.3778ZM43.8766 83.1098C43.286 83.1098 42.7829 82.949 42.3674 82.6276C41.9519 82.3035 41.6343 81.8344 41.4148 81.2203C41.1953 80.6035 41.0855 79.8587 41.0855 78.9858C41.0855 78.1182 41.1953 77.3773 41.4148 76.7631C41.6369 76.1464 41.9558 75.676 42.3713 75.3519C42.7895 75.0252 43.2912 74.8619 43.8766 74.8619C44.462 74.8619 44.9625 75.0252 45.378 75.3519C45.7962 75.676 46.115 76.1464 46.3345 76.7631C46.5567 77.3773 46.6677 78.1182 46.6677 78.9858C46.6677 79.8587 46.558 80.6035 46.3384 81.2203C46.1189 81.8344 45.8014 82.3035 45.3859 82.6276C44.9703 82.949 44.4673 83.1098 43.8766 83.1098ZM43.8766 82.2473C44.462 82.2473 44.9168 81.9651 45.2408 81.4006C45.5649 80.8361 45.7269 80.0312 45.7269 78.9858C45.7269 78.2907 45.6524 77.6987 45.5035 77.21C45.3571 76.7213 45.1454 76.3489 44.8684 76.0928C44.594 75.8367 44.2634 75.7086 43.8766 75.7086C43.2965 75.7086 42.843 75.9948 42.5164 76.5671C42.1897 77.1369 42.0263 77.9431 42.0263 78.9858C42.0263 79.681 42.0995 80.2716 42.2459 80.7577C42.3922 81.2438 42.6026 81.6136 42.877 81.8671C43.154 82.1206 43.4872 82.2473 43.8766 82.2473ZM48.567 83.0627C48.3736 83.0627 48.2077 82.9935 48.0692 82.855C47.9306 82.7164 47.8614 82.5505 47.8614 82.3571C47.8614 82.1637 47.9306 81.9978 48.0692 81.8593C48.2077 81.7207 48.3736 81.6515 48.567 81.6515C48.7604 81.6515 48.9263 81.7207 49.0649 81.8593C49.2034 81.9978 49.2726 82.1637 49.2726 82.3571C49.2726 82.4852 49.24 82.6028 49.1746 82.7099C49.1119 82.8171 49.027 82.9033 48.9198 82.9686C48.8153 83.0314 48.6977 83.0627 48.567 83.0627ZM50.9328 85.258V76.9787H51.8266V77.9352H51.9363C52.0043 77.8307 52.0984 77.6974 52.2186 77.5354C52.3414 77.3708 52.5165 77.2244 52.7439 77.0964C52.9738 76.9657 53.2848 76.9003 53.6768 76.9003C54.1838 76.9003 54.6307 77.0271 55.0175 77.2806C55.4043 77.5341 55.7061 77.8934 55.923 78.3586C56.14 78.8238 56.2484 79.3726 56.2484 80.0051C56.2484 80.6427 56.14 81.1955 55.923 81.6633C55.7061 82.1284 55.4056 82.4891 55.0214 82.7452C54.6373 82.9987 54.1943 83.1254 53.6925 83.1254C53.3057 83.1254 52.9961 83.0614 52.7635 82.9334C52.5309 82.8027 52.3519 82.655 52.2264 82.4904C52.101 82.3231 52.0043 82.1846 51.9363 82.0749H51.8579V85.258H50.9328ZM51.8422 79.9894C51.8422 80.4441 51.9089 80.8453 52.0422 81.1928C52.1754 81.5378 52.3701 81.8083 52.6263 82.0043C52.8824 82.1977 53.196 82.2944 53.5671 82.2944C53.9539 82.2944 54.2766 82.1925 54.5353 81.9886C54.7967 81.7822 54.9927 81.5051 55.1234 81.1576C55.2566 80.8074 55.3233 80.418 55.3233 79.9894C55.3233 79.566 55.2579 79.1844 55.1273 78.8447C54.9992 78.5024 54.8045 78.2319 54.5432 78.0333C54.2845 77.832 53.9591 77.7314 53.5671 77.7314C53.1907 77.7314 52.8745 77.8268 52.6184 78.0176C52.3623 78.2057 52.1689 78.4697 52.0382 78.8094C51.9076 79.1466 51.8422 79.5399 51.8422 79.9894ZM60.2783 76.9787V77.7628H57.1579V76.9787H60.2783ZM58.0673 75.5362H58.9925V81.2752C58.9925 81.5365 59.0304 81.7325 59.1062 81.8632C59.1846 81.9912 59.2839 82.0775 59.4041 82.1219C59.5269 82.1637 59.6563 82.1846 59.7922 82.1846C59.8941 82.1846 59.9777 82.1794 60.0431 82.1689C60.1084 82.1559 60.1607 82.1454 60.1999 82.1376L60.388 82.9686C60.3253 82.9922 60.2378 83.0157 60.1254 83.0392C60.013 83.0653 59.8706 83.0784 59.6981 83.0784C59.4368 83.0784 59.1806 83.0222 58.9298 82.9098C58.6815 82.7975 58.475 82.6263 58.3104 82.3963C58.1484 82.1663 58.0673 81.8762 58.0673 81.526V75.5362Z" fill="black"/>
<path d="M159.687 75.4677H162.568V76.2073H159.687V75.4677ZM159.687 77.6203H162.59V78.3599H159.687V77.6203ZM162.215 73.6463H163.131V81.0313H162.215V73.6463ZM156.717 82.643H163.374V83.3937H156.717V82.643ZM156.717 80.3138H157.633V83.0294H156.717V80.3138ZM155.415 74.2976H156.32V76.0638H159.024V74.2976H159.919V79.3313H155.415V74.2976ZM156.32 76.7813V78.5807H159.024V76.7813H156.32ZM169.853 75.4677H172.524V76.2184H169.853V75.4677ZM169.764 77.543H172.458V78.2937H169.764V77.543ZM172.37 73.6352H173.286V79.6184H172.37V73.6352ZM169.246 74.3859H170.228C170.228 76.958 168.451 78.7573 165.581 79.6184L165.205 78.8787C167.755 78.1391 169.246 76.671 169.246 74.7833V74.3859ZM165.724 74.3859H169.875V75.1365H165.724V74.3859ZM170.04 79.7287C172.061 79.7287 173.341 80.4463 173.341 81.6495C173.341 82.8528 172.061 83.5703 170.04 83.5703C168.02 83.5703 166.74 82.8528 166.74 81.6495C166.74 80.4463 168.02 79.7287 170.04 79.7287ZM170.04 80.4463C168.583 80.4463 167.645 80.8989 167.645 81.6495C167.645 82.4002 168.583 82.8417 170.04 82.8417C171.509 82.8417 172.447 82.4002 172.447 81.6495C172.447 80.8989 171.509 80.4463 170.04 80.4463ZM176.166 76.8917H180.979V77.6424H176.166V76.8917ZM178.087 77.3443H179.003V79.3424H178.087V77.3443ZM176.166 74.2865H180.913V75.0372H177.082V77.2229H176.166V74.2865ZM182.48 73.6352H183.397V81.0976H182.48V73.6352ZM176.95 82.643H183.728V83.3937H176.95V82.643ZM176.95 80.6119H177.855V82.9632H176.95V80.6119ZM175.404 79.8391L175.283 79.0885C177.204 79.0885 179.632 79.0443 181.686 78.8015L181.741 79.4748C179.632 79.7839 177.27 79.8391 175.404 79.8391ZM195.74 73.6242H196.656V83.6255H195.74V73.6242ZM191.391 74.3969C192.87 74.3969 193.93 75.7547 193.93 77.8742C193.93 80.0047 192.87 81.3625 191.391 81.3625C189.923 81.3625 188.863 80.0047 188.863 77.8742C188.863 75.7547 189.923 74.3969 191.391 74.3969ZM191.391 75.2248C190.419 75.2248 189.735 76.2625 189.735 77.8742C189.735 79.4969 190.419 80.5567 191.391 80.5567C192.373 80.5567 193.047 79.4969 193.047 77.8742C193.047 76.2625 192.373 75.2248 191.391 75.2248ZM198.642 78.7794H207.694V79.53H198.642V78.7794ZM199.791 73.8781H206.524V76.2404H200.718V77.5651H199.813V75.5671H205.63V74.5956H199.791V73.8781ZM199.813 77.2119H206.745V77.9294H199.813V77.2119ZM199.857 80.4352H206.535V83.482H199.857V80.4352ZM205.641 81.1638H200.751V82.7424H205.641V81.1638Z" fill="black"/>
<path d="M303.8 73.6352H304.684V83.6145H303.8V73.6352ZM302.123 77.6976H304.043V78.4482H302.123V77.6976ZM301.537 73.856H302.399V83.1067H301.537V73.856ZM296.702 74.8385H297.619V80.6008H296.702V74.8385ZM296.702 80.2365H297.343C298.369 80.2365 299.517 80.1703 300.82 79.9164L300.919 80.7112C299.561 80.9761 298.413 81.0313 297.343 81.0313H296.702V80.2365ZM306.372 79.5411H315.424V80.2917H306.372V79.5411ZM310.412 79.8943H311.317V83.6145H310.412V79.8943ZM307.509 74.0326H308.425V75.4015H313.359V74.0326H314.265V78.3489H307.509V74.0326ZM308.425 76.1411V77.6093H313.359V76.1411H308.425ZM326.939 73.6242H327.844V83.6255H326.939V73.6242ZM324.787 77.2671H327.204V78.0177H324.787V77.2671ZM322.17 75.0593H322.91V76.5495C322.91 78.7021 321.674 80.8326 320.095 81.6495L319.554 80.921C320.989 80.2145 322.17 78.3268 322.17 76.5495V75.0593ZM322.358 75.0593H323.087V76.5495C323.087 78.2164 324.246 80.0378 325.692 80.7222L325.151 81.4398C323.572 80.656 322.358 78.6028 322.358 76.5495V75.0593ZM319.918 74.6508H325.35V75.4125H319.918V74.6508ZM332.248 74.706H332.999V75.5119C332.999 77.3443 331.895 78.8787 330.217 79.4859L329.753 78.7573C331.255 78.2274 332.248 76.9359 332.248 75.5119V74.706ZM332.414 74.706H333.164V75.5008C333.164 76.8034 334.114 77.9735 335.582 78.4593L335.14 79.1768C333.473 78.6248 332.414 77.2008 332.414 75.5008V74.706ZM330.029 74.3748H335.361V75.1255H330.029V74.3748ZM336.619 73.6352H337.536V79.6515H336.619V73.6352ZM337.282 76.1632H339.015V76.9359H337.282V76.1632ZM334.356 79.9164C336.388 79.9164 337.635 80.5898 337.635 81.7489C337.635 82.919 336.388 83.5924 334.356 83.5924C332.325 83.5924 331.078 82.919 331.078 81.7489C331.078 80.5898 332.325 79.9164 334.356 79.9164ZM334.356 80.656C332.877 80.656 331.972 81.0534 331.972 81.7489C331.972 82.4554 332.877 82.8748 334.356 82.8748C335.836 82.8748 336.741 82.4554 336.741 81.7489C336.741 81.0534 335.836 80.656 334.356 80.656ZM339.952 81.5612H348.993V82.3229H339.952V81.5612ZM343.971 79.1437H344.876V81.8151H343.971V79.1437ZM343.948 74.2976H344.743V75.0703C344.743 77.2008 342.701 78.8456 340.692 79.2651L340.306 78.5034C342.061 78.1833 343.948 76.7151 343.948 75.0703V74.2976ZM344.114 74.2976H344.909V75.0703C344.909 76.7261 346.808 78.1833 348.563 78.5034L348.165 79.2651C346.156 78.8456 344.114 77.2008 344.114 75.0703V74.2976Z" fill="black"/>
</g>
<defs>
<filter id="filter0_d_2076_480" x="0.246094" y="0" width="352.747" height="93.2578" filterUnits="userSpaceOnUse" color-interpolation-filters="sRGB">
<feFlood flood-opacity="0" result="BackgroundImageFix"/>
<feColorMatrix in="SourceAlpha" type="matrix" values="0 0 0 0 0 0 0 0 0 0 0 0 0 0 0 0 0 0 127 0" result="hardAlpha"/>
<feOffset dy="4"/>
<feGaussianBlur stdDeviation="2"/>
<feComposite in2="hardAlpha" operator="out"/>
<feColorMatrix type="matrix" values="0 0 0 0 0 0 0 0 0 0 0 0 0 0 0 0 0 0 0.25 0"/>
<feBlend mode="normal" in2="BackgroundImageFix" result="effect1_dropShadow_2076_480"/>
<feBlend mode="normal" in="SourceGraphic" in2="effect1_dropShadow_2076_480" result="shape"/>
</filter>
<linearGradient id="paint0_linear_2076_480" x1="180.87" y1="0" x2="180.87" y2="61.8147" gradientUnits="userSpaceOnUse">
<stop stop-color="#336CFE"/>
<stop offset="1" stop-color="#242424"/>
</linearGradient>
</defs>
</svg>
