<svg width="347" height="214" viewBox="0 0 347 214" fill="none" xmlns="http://www.w3.org/2000/svg">
<g filter="url(#filter0_d_2188_1829)">
<rect x="5" width="112.2" height="204" fill="#343434"/>
<path d="M117.199 177.48C107.287 177.48 97.4719 175.528 88.3143 171.734C79.1566 167.941 70.8358 162.381 63.8268 155.372C56.8178 148.363 51.258 140.043 47.4648 130.885C43.6716 121.727 41.7192 111.912 41.7192 102C41.7192 92.0878 43.6716 82.2727 47.4648 73.1151C51.258 63.9574 56.8178 55.6365 63.8268 48.6276C70.8358 41.6186 79.1566 36.0588 88.3143 32.2656C97.4719 28.4723 107.287 26.52 117.199 26.52" stroke="white" stroke-width="2.04"/>
<path d="M117.198 135.354C112.818 135.354 108.481 134.491 104.434 132.815C100.388 131.139 96.7106 128.682 93.6134 125.585C90.5162 122.488 88.0594 118.811 86.3832 114.764C84.707 110.717 83.8443 106.38 83.8443 102C83.8443 97.6199 84.707 93.2826 86.3832 89.236C88.0594 85.1893 90.5162 81.5123 93.6134 78.4151C96.7106 75.3179 100.388 72.8611 104.434 71.1849C108.481 69.5087 112.818 68.646 117.198 68.646" stroke="white" stroke-width="2.04"/>
<path d="M7.53971 197.459V196.981H10.8779V197.459H9.47829V201.432H8.93931V197.459H7.53971ZM11.3272 196.981H11.9444L13.1789 199.059H13.231L14.4655 196.981H15.0827L13.4744 199.598V201.432H12.9355V199.598L11.3272 196.981ZM15.7798 201.432V196.981H17.2837C17.6329 196.981 17.9183 197.044 18.14 197.17C18.3631 197.295 18.5283 197.464 18.6355 197.677C18.7427 197.89 18.7963 198.127 18.7963 198.39C18.7963 198.652 18.7427 198.89 18.6355 199.105C18.5297 199.319 18.366 199.49 18.1443 199.617C17.9226 199.743 17.6387 199.807 17.2924 199.807H16.2144V199.328H17.275C17.514 199.328 17.706 199.287 17.8509 199.205C17.9958 199.122 18.1008 199.01 18.166 198.87C18.2327 198.728 18.266 198.568 18.266 198.39C18.266 198.211 18.2327 198.052 18.166 197.911C18.1008 197.771 17.9951 197.661 17.8487 197.581C17.7024 197.5 17.5083 197.459 17.2663 197.459H16.3187V201.432H15.7798ZM19.6645 201.432V196.981H22.3507V197.459H20.2035V198.963H22.2116V199.441H20.2035V200.954H22.3855V201.432H19.6645ZM25.1651 198.968V199.446H23.2179V198.968H25.1651ZM27.5107 201.493C27.1832 201.493 26.9043 201.404 26.6739 201.226C26.4436 201.046 26.2675 200.786 26.1458 200.445C26.0241 200.104 25.9633 199.691 25.9633 199.207C25.9633 198.726 26.0241 198.315 26.1458 197.974C26.269 197.632 26.4457 197.372 26.6761 197.192C26.9079 197.011 27.1861 196.92 27.5107 196.92C27.8352 196.92 28.1127 197.011 28.343 197.192C28.5749 197.372 28.7516 197.632 28.8733 197.974C28.9965 198.315 29.0581 198.726 29.0581 199.207C29.0581 199.691 28.9972 200.104 28.8755 200.445C28.7538 200.786 28.5778 201.046 28.3474 201.226C28.117 201.404 27.8381 201.493 27.5107 201.493ZM27.5107 201.015C27.8352 201.015 28.0873 200.858 28.267 200.545C28.4466 200.232 28.5365 199.786 28.5365 199.207C28.5365 198.821 28.4952 198.493 28.4126 198.222C28.3314 197.951 28.2141 197.745 28.0605 197.603C27.9084 197.461 27.7251 197.39 27.5107 197.39C27.189 197.39 26.9376 197.548 26.7565 197.866C26.5754 198.182 26.4849 198.629 26.4849 199.207C26.4849 199.592 26.5254 199.92 26.6066 200.189C26.6877 200.458 26.8043 200.664 26.9565 200.804C27.1101 200.945 27.2948 201.015 27.5107 201.015Z" fill="#7E7E7E"/>
<rect x="341.6" y="204" width="112.2" height="204" transform="rotate(-180 341.6 204)" fill="#343434"/>
<path d="M229.4 26.52C239.313 26.52 249.128 28.4723 258.285 32.2656C267.443 36.0588 275.764 41.6186 282.773 48.6276C289.782 55.6365 295.342 63.9574 299.135 73.1151C302.928 82.2727 304.88 92.0878 304.88 102C304.88 111.912 302.928 121.727 299.135 130.885C295.342 140.043 289.782 148.363 282.773 155.372C275.764 162.381 267.443 167.941 258.285 171.734C249.128 175.528 239.313 177.48 229.4 177.48" stroke="white" stroke-width="2.04"/>
<path d="M229.401 68.646C233.781 68.646 238.119 69.5087 242.165 71.1849C246.212 72.8611 249.889 75.318 252.986 78.4152C256.083 81.5124 258.54 85.1893 260.216 89.236C261.893 93.2827 262.755 97.6199 262.755 102C262.755 106.38 261.893 110.717 260.216 114.764C258.54 118.811 256.083 122.488 252.986 125.585C249.889 128.682 246.212 131.139 242.165 132.815C238.119 134.491 233.781 135.354 229.401 135.354" stroke="white" stroke-width="2.04"/>
<path d="M339.06 6.54066V7.01878H335.722V6.54066H337.121V2.56787H337.66V6.54066H339.06ZM335.272 7.01878L334.655 7.01878L333.421 4.94111H333.369L332.134 7.01878H331.517L333.125 4.40213V2.56787H333.664V4.40213L335.272 7.01878ZM330.82 2.56787V7.01878L329.316 7.01878C328.967 7.01878 328.681 6.95575 328.46 6.8297C328.237 6.7051 328.071 6.53631 327.964 6.32333C327.857 6.11034 327.803 5.87273 327.803 5.61048C327.803 5.34824 327.857 5.1099 327.964 4.89547C328.07 4.68104 328.234 4.51007 328.455 4.38257C328.677 4.25652 328.961 4.1935 329.307 4.1935H330.385V4.67162L329.325 4.67162C329.086 4.67162 328.894 4.71291 328.749 4.7955C328.604 4.87808 328.499 4.98965 328.434 5.13019C328.367 5.27218 328.334 5.43227 328.334 5.61048C328.334 5.78869 328.367 5.94807 328.434 6.08861C328.499 6.22915 328.605 6.33926 328.751 6.41895C328.897 6.50009 329.091 6.54066 329.333 6.54066H330.281V2.56787H330.82ZM326.935 2.56787V7.01878H324.249V6.54066H326.396V5.03673H324.388V4.55861H326.396V3.046H324.214V2.56787H326.935ZM321.434 5.03239V4.55426H323.382V5.03239H321.434ZM319.089 2.50702C319.416 2.50702 319.695 2.59612 319.926 2.77433C320.156 2.95399 320.332 3.21406 320.454 3.55455C320.575 3.89648 320.636 4.30941 320.636 4.79333C320.636 5.27435 320.575 5.6851 320.454 6.02558C320.331 6.36752 320.154 6.62831 319.923 6.80797C319.692 6.98908 319.413 7.07963 319.089 7.07963C318.764 7.07963 318.487 6.98908 318.257 6.80797C318.025 6.62831 317.848 6.36752 317.726 6.02558C317.603 5.6851 317.542 5.27435 317.542 4.79333C317.542 4.30941 317.602 3.89648 317.724 3.55455C317.846 3.21406 318.022 2.95399 318.252 2.77433C318.483 2.59612 318.762 2.50702 319.089 2.50702ZM319.089 2.98514C318.764 2.98514 318.512 3.14162 318.333 3.45458C318.153 3.76753 318.063 4.21378 318.063 4.79333C318.063 5.17872 318.104 5.50689 318.187 5.77783C318.268 6.04877 318.386 6.25523 318.539 6.39722C318.691 6.53921 318.875 6.6102 319.089 6.6102C319.411 6.6102 319.662 6.45155 319.843 6.13425C320.024 5.8184 320.115 5.37142 320.115 4.79333C320.115 4.40793 320.074 4.08048 319.993 3.811C319.912 3.54151 319.795 3.33649 319.643 3.19595C319.49 3.05541 319.305 2.98514 319.089 2.98514Z" fill="#7E7E7E"/>
<rect x="117.199" width="112.2" height="204" fill="#343434"/>
<rect x="117.199" y="25.5" width="112.2" height="2.04" fill="white"/>
<rect x="117.199" y="67.626" width="112.2" height="2.04" fill="white"/>
<rect x="117.199" y="134.334" width="112.2" height="2.04" fill="white"/>
<rect x="117.199" y="176.46" width="112.2" height="2.04" fill="white"/>
<path d="M162.272 198.581V198.103H165.61V198.581H164.211V202.554H163.672V198.581H162.272ZM166.06 198.103H166.677L167.911 200.181H167.963L169.198 198.103H169.815L168.207 200.72V202.554H167.668V200.72L166.06 198.103ZM170.512 202.554V198.103H172.016C172.365 198.103 172.651 198.166 172.872 198.292C173.096 198.417 173.261 198.586 173.368 198.799C173.475 199.012 173.529 199.249 173.529 199.512C173.529 199.774 173.475 200.012 173.368 200.227C173.262 200.441 173.098 200.612 172.877 200.739C172.655 200.866 172.371 200.929 172.025 200.929H170.947V200.45H172.007C172.246 200.45 172.438 200.409 172.583 200.327C172.728 200.244 172.833 200.132 172.898 199.992C172.965 199.85 172.998 199.69 172.998 199.512C172.998 199.333 172.965 199.174 172.898 199.033C172.833 198.893 172.727 198.783 172.581 198.703C172.435 198.622 172.241 198.581 171.999 198.581H171.051V202.554H170.512ZM174.397 202.554V198.103H177.083V198.581H174.936V200.085H176.944V200.563H174.936V202.076H177.118V202.554H174.397ZM179.898 200.09V200.568H177.95V200.09H179.898ZM181.052 202.554H180.487L182.121 198.103H182.678L184.312 202.554H183.747L182.417 198.807H182.382L181.052 202.554ZM181.261 200.816H183.538V201.294H181.261V200.816Z" fill="#7E7E7E"/>
</g>
<defs>
<filter id="filter0_d_2188_1829" x="0.0243902" y="0" width="346.551" height="213.951" filterUnits="userSpaceOnUse" color-interpolation-filters="sRGB">
<feFlood flood-opacity="0" result="BackgroundImageFix"/>
<feColorMatrix in="SourceAlpha" type="matrix" values="0 0 0 0 0 0 0 0 0 0 0 0 0 0 0 0 0 0 127 0" result="hardAlpha"/>
<feOffset dy="4.97561"/>
<feGaussianBlur stdDeviation="2.4878"/>
<feComposite in2="hardAlpha" operator="out"/>
<feColorMatrix type="matrix" values="0 0 0 0 0 0 0 0 0 0 0 0 0 0 0 0 0 0 0.25 0"/>
<feBlend mode="normal" in2="BackgroundImageFix" result="effect1_dropShadow_2188_1829"/>
<feBlend mode="normal" in="SourceGraphic" in2="effect1_dropShadow_2188_1829" result="shape"/>
</filter>
</defs>
</svg>
