<svg width="298" height="174" viewBox="0 0 298 174" fill="none" xmlns="http://www.w3.org/2000/svg">
<path d="M145.298 17.2322C144.322 16.2559 142.739 16.2559 141.763 17.2322L125.853 33.1421C124.876 34.1185 124.876 35.7014 125.853 36.6777C126.829 37.654 128.412 37.654 129.388 36.6777L143.53 22.5355L157.672 36.6777C158.649 37.654 160.232 37.654 161.208 36.6777C162.184 35.7014 162.184 34.1185 161.208 33.1421L145.298 17.2322ZM146.03 164L146.03 19L141.03 19L141.03 164L146.03 164Z" fill="black"/>
<path d="M248.561 60.9998C248.561 59.6191 247.441 58.4998 246.061 58.4998L223.561 58.4998C222.18 58.4998 221.061 59.6191 221.061 60.9998C221.061 62.3805 222.18 63.4998 223.561 63.4998H243.561V83.4998C243.561 84.8805 244.68 85.9998 246.061 85.9998C247.441 85.9998 248.561 84.8805 248.561 83.4998L248.561 60.9998ZM145.298 165.298L247.829 62.7676L244.293 59.232L141.763 161.763L145.298 165.298Z" fill="black"/>
<path d="M201.329 29.0432C200.801 27.7675 199.338 27.1618 198.063 27.6902L177.275 36.3005C176 36.8289 175.394 38.2913 175.922 39.567C176.451 40.8426 177.913 41.4483 179.189 40.9199L197.666 33.2663L205.32 51.7439C205.848 53.0195 207.311 53.6252 208.586 53.0969C209.862 52.5685 210.468 51.1061 209.939 49.8304L201.329 29.0432ZM145.84 164.919L201.329 30.9566L196.71 29.0432L141.221 163.006L145.84 164.919Z" fill="black"/>
<path d="M86.2207 29.0432C86.7491 27.7675 88.2115 27.1618 89.4871 27.6902L110.274 36.3005C111.55 36.8289 112.156 38.2913 111.627 39.567C111.099 40.8426 109.637 41.4483 108.361 40.9199L89.8834 33.2663L82.2298 51.7439C81.7014 53.0195 80.239 53.6252 78.9633 53.0969C77.6877 52.5685 77.082 51.1061 77.6104 49.8304L86.2207 29.0432ZM141.71 164.919L86.2207 30.9566L90.8401 29.0432L146.329 163.006L141.71 164.919Z" fill="black"/>
<path d="M40.9998 58.9695C39.6191 58.9695 38.4998 60.0888 38.4998 61.4695L38.4998 83.9695C38.4998 85.3502 39.6191 86.4695 40.9998 86.4695C42.3805 86.4695 43.4998 85.3502 43.4998 83.9695V63.9695H63.4998C64.8805 63.9695 65.9998 62.8502 65.9998 61.4695C65.9998 60.0888 64.8805 58.9695 63.4998 58.9695L40.9998 58.9695ZM145.298 162.232L42.7676 59.7018L39.232 63.2373L141.763 165.768L145.298 162.232Z" fill="black"/>
<circle cx="144" cy="156" r="18" fill="black"/>
<path d="M8.02086 45.2446H6.72153C6.67155 44.967 6.57855 44.7227 6.4425 44.5117C6.30646 44.3007 6.13988 44.1216 5.94276 43.9745C5.74564 43.8273 5.52492 43.7163 5.2806 43.6413C5.03906 43.5663 4.78225 43.5289 4.51017 43.5289C4.01876 43.5289 3.57871 43.6524 3.19002 43.8995C2.80411 44.1466 2.49871 44.5089 2.27383 44.9864C2.05172 45.464 1.94066 46.047 1.94066 46.7355C1.94066 47.4296 2.05172 48.0154 2.27383 48.493C2.49871 48.9705 2.80549 49.3314 3.19418 49.5757C3.58287 49.8201 4.02015 49.9422 4.50601 49.9422C4.77531 49.9422 5.03073 49.9061 5.27228 49.8339C5.51659 49.759 5.73731 49.6493 5.93443 49.5049C6.13155 49.3606 6.29813 49.1843 6.43418 48.976C6.57299 48.765 6.66878 48.5235 6.72153 48.2514L8.02086 48.2556C7.95145 48.6748 7.81679 49.0607 7.6169 49.4133C7.41978 49.7631 7.16574 50.0658 6.85479 50.3212C6.54662 50.5738 6.19402 50.7696 5.797 50.9084C5.39999 51.0472 4.96688 51.1166 4.49768 51.1166C3.75917 51.1166 3.10118 50.9417 2.5237 50.5919C1.94622 50.2393 1.4909 49.7354 1.15774 49.0802C0.82735 48.4249 0.662158 47.6434 0.662158 46.7355C0.662158 45.8249 0.828739 45.0434 1.1619 44.3909C1.49506 43.7357 1.95038 43.2332 2.52786 42.8834C3.10534 42.5308 3.76195 42.3545 4.49768 42.3545C4.95022 42.3545 5.37222 42.4197 5.76369 42.5502C6.15793 42.6779 6.51191 42.8667 6.82564 43.1166C7.13937 43.3637 7.39896 43.6663 7.6044 44.0244C7.80985 44.3798 7.94867 44.7865 8.02086 45.2446ZM9.56069 51V42.4711H10.8475V49.8922H14.7122V51H9.56069ZM17.3358 51H15.9699L19.0391 42.4711H20.5259L23.5951 51H22.2291L19.8179 44.0203H19.7513L17.3358 51ZM17.5649 47.6601H21.9959V48.7428H17.5649V47.6601ZM29.4098 44.7116C29.3654 44.3173 29.1821 44.0119 28.8601 43.7954C28.538 43.5761 28.1327 43.4664 27.6441 43.4664C27.2942 43.4664 26.9916 43.5219 26.7362 43.633C26.4808 43.7413 26.2823 43.8912 26.1407 44.0827C26.0018 44.2715 25.9324 44.4867 25.9324 44.7282C25.9324 44.9309 25.9796 45.1058 26.074 45.253C26.1712 45.4001 26.2975 45.5237 26.453 45.6236C26.6113 45.7208 26.7806 45.8027 26.9611 45.8693C27.1415 45.9332 27.3151 45.9859 27.4816 46.0276L28.3145 46.2441C28.5866 46.3108 28.8656 46.401 29.1516 46.5148C29.4376 46.6286 29.7027 46.7786 29.947 46.9646C30.1913 47.1506 30.3885 47.381 30.5384 47.6559C30.6911 47.9308 30.7674 48.2597 30.7674 48.6429C30.7674 49.126 30.6425 49.5549 30.3926 49.9297C30.1455 50.3045 29.786 50.6002 29.314 50.8168C28.8448 51.0333 28.2771 51.1416 27.6107 51.1416C26.9722 51.1416 26.4197 51.0403 25.9533 50.8376C25.4868 50.6349 25.1217 50.3476 24.858 49.9755C24.5942 49.6007 24.4485 49.1565 24.4207 48.6429H25.7117C25.7367 48.9511 25.8367 49.2079 26.0116 49.4133C26.1892 49.616 26.4155 49.7673 26.6904 49.8673C26.968 49.9644 27.272 50.013 27.6024 50.013C27.9661 50.013 28.2896 49.9561 28.5727 49.8423C28.8587 49.7257 29.0836 49.5646 29.2474 49.3592C29.4112 49.151 29.4931 48.908 29.4931 48.6304C29.4931 48.3777 29.4209 48.1709 29.2765 48.0099C29.1349 47.8489 28.942 47.7156 28.6977 47.6101C28.4561 47.5046 28.1827 47.4116 27.8773 47.3311L26.8695 47.0562C26.1865 46.8702 25.6451 46.5967 25.2453 46.2358C24.8483 45.8749 24.6498 45.3973 24.6498 44.8032C24.6498 44.3118 24.783 43.8828 25.0496 43.5164C25.3161 43.1499 25.677 42.8653 26.1323 42.6626C26.5877 42.4572 27.1013 42.3545 27.6732 42.3545C28.2507 42.3545 28.7601 42.4558 29.2016 42.6585C29.6458 42.8611 29.9956 43.1402 30.251 43.4955C30.5065 43.8481 30.6397 44.2535 30.6508 44.7116H29.4098ZM36.9569 44.7116C36.9125 44.3173 36.7293 44.0119 36.4072 43.7954C36.0852 43.5761 35.6798 43.4664 35.1912 43.4664C34.8414 43.4664 34.5388 43.5219 34.2833 43.633C34.0279 43.7413 33.8294 43.8912 33.6878 44.0827C33.549 44.2715 33.4796 44.4867 33.4796 44.7282C33.4796 44.9309 33.5268 45.1058 33.6212 45.253C33.7183 45.4001 33.8447 45.5237 34.0001 45.6236C34.1584 45.7208 34.3277 45.8027 34.5082 45.8693C34.6887 45.9332 34.8622 45.9859 35.0288 46.0276L35.8617 46.2441C36.1338 46.3108 36.4128 46.401 36.6987 46.5148C36.9847 46.6286 37.2499 46.7786 37.4942 46.9646C37.7385 47.1506 37.9356 47.381 38.0855 47.6559C38.2382 47.9308 38.3146 48.2597 38.3146 48.6429C38.3146 49.126 38.1896 49.5549 37.9398 49.9297C37.6927 50.3045 37.3331 50.6002 36.8612 50.8168C36.392 51.0333 35.8242 51.1416 35.1579 51.1416C34.5193 51.1416 33.9668 51.0403 33.5004 50.8376C33.034 50.6349 32.6689 50.3476 32.4051 49.9755C32.1414 49.6007 31.9956 49.1565 31.9679 48.6429H33.2589C33.2838 48.9511 33.3838 49.2079 33.5587 49.4133C33.7364 49.616 33.9627 49.7673 34.2375 49.8673C34.5152 49.9644 34.8192 50.013 35.1495 50.013C35.5132 50.013 35.8367 49.9561 36.1199 49.8423C36.4058 49.7257 36.6307 49.5646 36.7945 49.3592C36.9583 49.151 37.0402 48.908 37.0402 48.6304C37.0402 48.3777 36.9681 48.1709 36.8237 48.0099C36.6821 47.8489 36.4891 47.7156 36.2448 47.6101C36.0033 47.5046 35.7298 47.4116 35.4244 47.3311L34.4166 47.0562C33.7336 46.8702 33.1922 46.5967 32.7924 46.2358C32.3954 45.8749 32.1969 45.3973 32.1969 44.8032C32.1969 44.3118 32.3302 43.8828 32.5967 43.5164C32.8632 43.1499 33.2242 42.8653 33.6795 42.6626C34.1348 42.4572 34.6484 42.3545 35.2203 42.3545C35.7978 42.3545 36.3073 42.4558 36.7487 42.6585C37.1929 42.8611 37.5428 43.1402 37.7982 43.4955C38.0536 43.8481 38.1869 44.2535 38.198 44.7116H36.9569ZM43.5213 46.1941V47.2769H39.7399V46.1941H43.5213ZM48.4 42.4711V51H47.109V43.7621H47.059L45.0184 45.0947V43.862L47.1465 42.4711H48.4Z" fill="black"/>
<path d="M58.0209 16.2446H56.7215C56.6716 15.967 56.5785 15.7227 56.4425 15.5117C56.3065 15.3007 56.1399 15.1216 55.9428 14.9745C55.7456 14.8273 55.5249 14.7163 55.2806 14.6413C55.0391 14.5663 54.7823 14.5289 54.5102 14.5289C54.0188 14.5289 53.5787 14.6524 53.19 14.8995C52.8041 15.1466 52.4987 15.5089 52.2738 15.9864C52.0517 16.464 51.9407 17.047 51.9407 17.7355C51.9407 18.4296 52.0517 19.0154 52.2738 19.493C52.4987 19.9705 52.8055 20.3314 53.1942 20.5757C53.5829 20.8201 54.0201 20.9422 54.506 20.9422C54.7753 20.9422 55.0307 20.9061 55.2723 20.8339C55.5166 20.759 55.7373 20.6493 55.9344 20.5049C56.1316 20.3606 56.2981 20.1843 56.4342 19.976C56.573 19.765 56.6688 19.5235 56.7215 19.2514L58.0209 19.2556C57.9514 19.6748 57.8168 20.0607 57.6169 20.4133C57.4198 20.7631 57.1657 21.0658 56.8548 21.3212C56.5466 21.5738 56.194 21.7696 55.797 21.9084C55.4 22.0472 54.9669 22.1166 54.4977 22.1166C53.7592 22.1166 53.1012 21.9417 52.5237 21.5919C51.9462 21.2393 51.4909 20.7354 51.1577 20.0802C50.8274 19.4249 50.6622 18.6434 50.6622 17.7355C50.6622 16.8249 50.8287 16.0434 51.1619 15.3909C51.4951 14.7357 51.9504 14.2332 52.5279 13.8834C53.1053 13.5308 53.7619 13.3545 54.4977 13.3545C54.9502 13.3545 55.3722 13.4197 55.7637 13.5502C56.1579 13.6779 56.5119 13.8667 56.8256 14.1166C57.1394 14.3637 57.399 14.6663 57.6044 15.0244C57.8099 15.3798 57.9487 15.7865 58.0209 16.2446ZM59.5607 22V13.4711H60.8475V20.8922H64.7122V22H59.5607ZM67.3358 22H65.9699L69.0391 13.4711H70.5259L73.5951 22H72.2291L69.8179 15.0203H69.7513L67.3358 22ZM67.5649 18.6601H71.9959V19.7428H67.5649V18.6601ZM79.4098 15.7116C79.3654 15.3173 79.1821 15.0119 78.8601 14.7954C78.538 14.5761 78.1327 14.4664 77.6441 14.4664C77.2942 14.4664 76.9916 14.5219 76.7362 14.633C76.4808 14.7413 76.2823 14.8912 76.1407 15.0827C76.0018 15.2715 75.9324 15.4867 75.9324 15.7282C75.9324 15.9309 75.9796 16.1058 76.074 16.253C76.1712 16.4001 76.2975 16.5237 76.453 16.6236C76.6113 16.7208 76.7806 16.8027 76.9611 16.8693C77.1415 16.9332 77.3151 16.9859 77.4816 17.0276L78.3145 17.2441C78.5866 17.3108 78.8656 17.401 79.1516 17.5148C79.4376 17.6286 79.7027 17.7786 79.947 17.9646C80.1913 18.1506 80.3885 18.381 80.5384 18.6559C80.6911 18.9308 80.7674 19.2597 80.7674 19.6429C80.7674 20.126 80.6425 20.5549 80.3926 20.9297C80.1455 21.3045 79.786 21.6002 79.314 21.8168C78.8448 22.0333 78.2771 22.1416 77.6107 22.1416C76.9722 22.1416 76.4197 22.0403 75.9533 21.8376C75.4868 21.6349 75.1217 21.3476 74.858 20.9755C74.5942 20.6007 74.4485 20.1565 74.4207 19.6429H75.7117C75.7367 19.9511 75.8367 20.2079 76.0116 20.4133C76.1892 20.616 76.4155 20.7673 76.6904 20.8673C76.968 20.9644 77.272 21.013 77.6024 21.013C77.9661 21.013 78.2896 20.9561 78.5727 20.8423C78.8587 20.7257 79.0836 20.5646 79.2474 20.3592C79.4112 20.151 79.4931 19.908 79.4931 19.6304C79.4931 19.3777 79.4209 19.1709 79.2765 19.0099C79.1349 18.8489 78.942 18.7156 78.6977 18.6101C78.4561 18.5046 78.1827 18.4116 77.8773 18.3311L76.8695 18.0562C76.1865 17.8702 75.6451 17.5967 75.2453 17.2358C74.8483 16.8749 74.6498 16.3973 74.6498 15.8032C74.6498 15.3118 74.783 14.8828 75.0496 14.5164C75.3161 14.1499 75.677 13.8653 76.1323 13.6626C76.5877 13.4572 77.1013 13.3545 77.6732 13.3545C78.2507 13.3545 78.7601 13.4558 79.2016 13.6585C79.6458 13.8611 79.9956 14.1402 80.251 14.4955C80.5065 14.8481 80.6397 15.2535 80.6508 15.7116H79.4098ZM86.9569 15.7116C86.9125 15.3173 86.7293 15.0119 86.4072 14.7954C86.0852 14.5761 85.6798 14.4664 85.1912 14.4664C84.8414 14.4664 84.5388 14.5219 84.2833 14.633C84.0279 14.7413 83.8294 14.8912 83.6878 15.0827C83.549 15.2715 83.4796 15.4867 83.4796 15.7282C83.4796 15.9309 83.5268 16.1058 83.6212 16.253C83.7183 16.4001 83.8447 16.5237 84.0001 16.6236C84.1584 16.7208 84.3277 16.8027 84.5082 16.8693C84.6887 16.9332 84.8622 16.9859 85.0288 17.0276L85.8617 17.2441C86.1338 17.3108 86.4128 17.401 86.6987 17.5148C86.9847 17.6286 87.2499 17.7786 87.4942 17.9646C87.7385 18.1506 87.9356 18.381 88.0855 18.6559C88.2382 18.9308 88.3146 19.2597 88.3146 19.6429C88.3146 20.126 88.1896 20.5549 87.9398 20.9297C87.6927 21.3045 87.3331 21.6002 86.8612 21.8168C86.392 22.0333 85.8242 22.1416 85.1579 22.1416C84.5193 22.1416 83.9668 22.0403 83.5004 21.8376C83.034 21.6349 82.6689 21.3476 82.4051 20.9755C82.1414 20.6007 81.9956 20.1565 81.9679 19.6429H83.2589C83.2838 19.9511 83.3838 20.2079 83.5587 20.4133C83.7364 20.616 83.9627 20.7673 84.2375 20.8673C84.5152 20.9644 84.8192 21.013 85.1495 21.013C85.5132 21.013 85.8367 20.9561 86.1199 20.8423C86.4058 20.7257 86.6307 20.5646 86.7945 20.3592C86.9583 20.151 87.0402 19.908 87.0402 19.6304C87.0402 19.3777 86.9681 19.1709 86.8237 19.0099C86.6821 18.8489 86.4891 18.7156 86.2448 18.6101C86.0033 18.5046 85.7298 18.4116 85.4244 18.3311L84.4166 18.0562C83.7336 17.8702 83.1922 17.5967 82.7924 17.2358C82.3954 16.8749 82.1969 16.3973 82.1969 15.8032C82.1969 15.3118 82.3302 14.8828 82.5967 14.5164C82.8632 14.1499 83.2242 13.8653 83.6795 13.6626C84.1348 13.4572 84.6484 13.3545 85.2203 13.3545C85.7978 13.3545 86.3073 13.4558 86.7487 13.6585C87.1929 13.8611 87.5428 14.1402 87.7982 14.4955C88.0536 14.8481 88.1869 15.2535 88.198 15.7116H86.9569ZM93.5213 17.1941V18.2769H89.7399V17.1941H93.5213ZM94.8206 22V21.0671L97.7066 18.077C98.0148 17.7522 98.2688 17.4676 98.4687 17.2233C98.6714 16.9762 98.8227 16.7416 98.9226 16.5195C99.0226 16.2974 99.0726 16.0614 99.0726 15.8115C99.0726 15.5283 99.0059 15.284 98.8727 15.0786C98.7394 14.8704 98.5576 14.7107 98.3271 14.5997C98.0967 14.4858 97.8371 14.4289 97.5483 14.4289C97.243 14.4289 96.9764 14.4914 96.7488 14.6163C96.5211 14.7413 96.3462 14.9175 96.224 15.1452C96.1019 15.3729 96.0408 15.6394 96.0408 15.9448H94.8123C94.8123 15.4256 94.9316 14.9717 95.1704 14.583C95.4092 14.1943 95.7368 13.8931 96.1532 13.6793C96.5697 13.4627 97.0431 13.3545 97.5733 13.3545C98.1092 13.3545 98.5811 13.4614 98.9893 13.6751C99.4002 13.8861 99.7208 14.1749 99.9513 14.5414C100.182 14.9051 100.297 15.316 100.297 15.7741C100.297 16.0906 100.237 16.4001 100.118 16.7027C100.001 17.0054 99.7972 17.3427 99.5057 17.7147C99.2142 18.084 98.8088 18.5323 98.2896 19.0599L96.5947 20.8339V20.8964H100.434V22H94.8206Z" fill="black"/>
<path d="M127.021 5.24464H125.722C125.672 4.96701 125.579 4.72269 125.443 4.51169C125.306 4.30068 125.14 4.12161 124.943 3.97446C124.746 3.82732 124.525 3.71626 124.281 3.6413C124.039 3.56634 123.782 3.52886 123.51 3.52886C123.019 3.52886 122.579 3.65241 122.19 3.8995C121.804 4.1466 121.499 4.50891 121.274 4.98644C121.052 5.46397 120.941 6.047 120.941 6.73554C120.941 7.42962 121.052 8.01543 121.274 8.49296C121.499 8.97049 121.805 9.33142 122.194 9.57574C122.583 9.82005 123.02 9.94221 123.506 9.94221C123.775 9.94221 124.031 9.90612 124.272 9.83394C124.517 9.75897 124.737 9.64931 124.934 9.50494C125.132 9.36057 125.298 9.18427 125.434 8.97605C125.573 8.76504 125.669 8.5235 125.722 8.25142L127.021 8.25558C126.951 8.67481 126.817 9.06072 126.617 9.41332C126.42 9.76314 126.166 10.0658 125.855 10.3212C125.547 10.5738 125.194 10.7696 124.797 10.9084C124.4 11.0472 123.967 11.1166 123.498 11.1166C122.759 11.1166 122.101 10.9417 121.524 10.5919C120.946 10.2393 120.491 9.73538 120.158 9.08016C119.827 8.42494 119.662 7.6434 119.662 6.73554C119.662 5.8249 119.829 5.04336 120.162 4.39091C120.495 3.7357 120.95 3.23318 121.528 2.88336C122.105 2.53076 122.762 2.35447 123.498 2.35447C123.95 2.35447 124.372 2.41971 124.764 2.5502C125.158 2.67791 125.512 2.8667 125.826 3.11657C126.139 3.36367 126.399 3.66629 126.604 4.02444C126.81 4.37981 126.949 4.78654 127.021 5.24464ZM128.561 11V2.47107H129.848V9.89224H133.712V11H128.561ZM136.336 11H134.97L138.039 2.47107H139.526L142.595 11H141.229L138.818 4.02027H138.751L136.336 11ZM136.565 7.66006H140.996V8.74283H136.565V7.66006ZM148.41 4.71158C148.365 4.31734 148.182 4.01194 147.86 3.79539C147.538 3.57606 147.133 3.46639 146.644 3.46639C146.294 3.46639 145.992 3.52192 145.736 3.63297C145.481 3.74125 145.282 3.89117 145.141 4.08274C145.002 4.27153 144.932 4.4867 144.932 4.72824C144.932 4.93091 144.98 5.10582 145.074 5.25297C145.171 5.40012 145.298 5.52366 145.453 5.62361C145.611 5.72078 145.781 5.80269 145.961 5.86932C146.142 5.93317 146.315 5.98592 146.482 6.02757L147.315 6.24412C147.587 6.31076 147.866 6.40099 148.152 6.51482C148.438 6.62865 148.703 6.77857 148.947 6.96458C149.191 7.1506 149.388 7.38104 149.538 7.65589C149.691 7.93075 149.767 8.25975 149.767 8.64288C149.767 9.12597 149.643 9.55491 149.393 9.92972C149.146 10.3045 148.786 10.6002 148.314 10.8168C147.845 11.0333 147.277 11.1416 146.611 11.1416C145.972 11.1416 145.42 11.0403 144.953 10.8376C144.487 10.6349 144.122 10.3476 143.858 9.97553C143.594 9.60072 143.448 9.15651 143.421 8.64288H144.712C144.737 8.95106 144.837 9.20787 145.012 9.41332C145.189 9.61599 145.416 9.7673 145.69 9.86725C145.968 9.96442 146.272 10.013 146.602 10.013C146.966 10.013 147.29 9.95609 147.573 9.84226C147.859 9.72566 148.084 9.56463 148.247 9.35918C148.411 9.15096 148.493 8.90803 148.493 8.63039C148.493 8.37774 148.421 8.17091 148.277 8.00988C148.135 7.84885 147.942 7.71559 147.698 7.61008C147.456 7.50458 147.183 7.41158 146.877 7.33106L145.869 7.0562C145.186 6.87019 144.645 6.59672 144.245 6.23579C143.848 5.87487 143.65 5.39734 143.65 4.8032C143.65 4.31179 143.783 3.88284 144.05 3.51637C144.316 3.14989 144.677 2.86531 145.132 2.66264C145.588 2.45719 146.101 2.35447 146.673 2.35447C147.251 2.35447 147.76 2.4558 148.202 2.65848C148.646 2.86115 148.996 3.14017 149.251 3.49554C149.506 3.84814 149.64 4.25349 149.651 4.71158H148.41ZM155.957 4.71158C155.913 4.31734 155.729 4.01194 155.407 3.79539C155.085 3.57606 154.68 3.46639 154.191 3.46639C153.841 3.46639 153.539 3.52192 153.283 3.63297C153.028 3.74125 152.829 3.89117 152.688 4.08274C152.549 4.27153 152.48 4.4867 152.48 4.72824C152.48 4.93091 152.527 5.10582 152.621 5.25297C152.718 5.40012 152.845 5.52366 153 5.62361C153.158 5.72078 153.328 5.80269 153.508 5.86932C153.689 5.93317 153.862 5.98592 154.029 6.02757L154.862 6.24412C155.134 6.31076 155.413 6.40099 155.699 6.51482C155.985 6.62865 156.25 6.77857 156.494 6.96458C156.738 7.1506 156.936 7.38104 157.086 7.65589C157.238 7.93075 157.315 8.25975 157.315 8.64288C157.315 9.12597 157.19 9.55491 156.94 9.92972C156.693 10.3045 156.333 10.6002 155.861 10.8168C155.392 11.0333 154.824 11.1416 154.158 11.1416C153.519 11.1416 152.967 11.0403 152.5 10.8376C152.034 10.6349 151.669 10.3476 151.405 9.97553C151.141 9.60072 150.996 9.15651 150.968 8.64288H152.259C152.284 8.95106 152.384 9.20787 152.559 9.41332C152.736 9.61599 152.963 9.7673 153.238 9.86725C153.515 9.96442 153.819 10.013 154.15 10.013C154.513 10.013 154.837 9.95609 155.12 9.84226C155.406 9.72566 155.631 9.56463 155.795 9.35918C155.958 9.15096 156.04 8.90803 156.04 8.63039C156.04 8.37774 155.968 8.17091 155.824 8.00988C155.682 7.84885 155.489 7.71559 155.245 7.61008C155.003 7.50458 154.73 7.41158 154.424 7.33106L153.417 7.0562C152.734 6.87019 152.192 6.59672 151.792 6.23579C151.395 5.87487 151.197 5.39734 151.197 4.8032C151.197 4.31179 151.33 3.88284 151.597 3.51637C151.863 3.14989 152.224 2.86531 152.679 2.66264C153.135 2.45719 153.648 2.35447 154.22 2.35447C154.798 2.35447 155.307 2.4558 155.749 2.65848C156.193 2.86115 156.543 3.14017 156.798 3.49554C157.054 3.84814 157.187 4.25349 157.198 4.71158H155.957ZM162.521 6.19415V7.27692H158.74V6.19415H162.521ZM167.019 11.1166C166.447 11.1166 165.936 11.018 165.486 10.8209C165.039 10.6238 164.685 10.3503 164.424 10.0005C164.166 9.64792 164.027 9.2398 164.008 8.77615H165.316C165.332 9.0288 165.417 9.24813 165.57 9.43414C165.725 9.61738 165.928 9.75897 166.178 9.85892C166.428 9.95887 166.705 10.0088 167.011 10.0088C167.347 10.0088 167.644 9.95054 167.902 9.83394C168.163 9.71733 168.367 9.55491 168.514 9.34669C168.661 9.13569 168.735 8.89276 168.735 8.6179C168.735 8.33193 168.661 8.08067 168.514 7.86412C168.37 7.64479 168.157 7.47266 167.877 7.34772C167.599 7.22278 167.263 7.16032 166.869 7.16032H166.149V6.11086H166.869C167.186 6.11086 167.463 6.05394 167.702 5.94011C167.943 5.82628 168.132 5.66803 168.268 5.46536C168.404 5.25991 168.472 5.01976 168.472 4.7449C168.472 4.48115 168.413 4.2521 168.293 4.05775C168.177 3.86063 168.01 3.70655 167.794 3.59549C167.58 3.48444 167.327 3.42891 167.036 3.42891C166.758 3.42891 166.498 3.48027 166.257 3.583C166.018 3.68295 165.824 3.82732 165.674 4.01611C165.524 4.20212 165.443 4.42562 165.432 4.68659H164.187C164.201 4.22572 164.337 3.82038 164.595 3.47056C164.856 3.12074 165.2 2.84727 165.628 2.65015C166.056 2.45303 166.53 2.35447 167.052 2.35447C167.599 2.35447 168.071 2.46136 168.468 2.67513C168.868 2.88614 169.176 3.16794 169.393 3.52053C169.612 3.87313 169.72 4.25904 169.718 4.67827C169.72 5.1558 169.587 5.56114 169.318 5.8943C169.051 6.22747 168.696 6.45096 168.252 6.56479V6.63142C168.818 6.71749 169.257 6.94237 169.568 7.30608C169.881 7.66978 170.037 8.12093 170.034 8.65954C170.037 9.12874 169.906 9.54936 169.643 9.92139C169.382 10.2934 169.025 10.5863 168.572 10.8001C168.12 11.0111 167.602 11.1166 167.019 11.1166Z" fill="black"/>
<path d="M197.021 16.2446H195.722C195.672 15.967 195.579 15.7227 195.443 15.5117C195.306 15.3007 195.14 15.1216 194.943 14.9745C194.746 14.8273 194.525 14.7163 194.281 14.6413C194.039 14.5663 193.782 14.5289 193.51 14.5289C193.019 14.5289 192.579 14.6524 192.19 14.8995C191.804 15.1466 191.499 15.5089 191.274 15.9864C191.052 16.464 190.941 17.047 190.941 17.7355C190.941 18.4296 191.052 19.0154 191.274 19.493C191.499 19.9705 191.805 20.3314 192.194 20.5757C192.583 20.8201 193.02 20.9422 193.506 20.9422C193.775 20.9422 194.031 20.9061 194.272 20.8339C194.517 20.759 194.737 20.6493 194.934 20.5049C195.132 20.3606 195.298 20.1843 195.434 19.976C195.573 19.765 195.669 19.5235 195.722 19.2514L197.021 19.2556C196.951 19.6748 196.817 20.0607 196.617 20.4133C196.42 20.7631 196.166 21.0658 195.855 21.3212C195.547 21.5738 195.194 21.7696 194.797 21.9084C194.4 22.0472 193.967 22.1166 193.498 22.1166C192.759 22.1166 192.101 21.9417 191.524 21.5919C190.946 21.2393 190.491 20.7354 190.158 20.0802C189.827 19.4249 189.662 18.6434 189.662 17.7355C189.662 16.8249 189.829 16.0434 190.162 15.3909C190.495 14.7357 190.95 14.2332 191.528 13.8834C192.105 13.5308 192.762 13.3545 193.498 13.3545C193.95 13.3545 194.372 13.4197 194.764 13.5502C195.158 13.6779 195.512 13.8667 195.826 14.1166C196.139 14.3637 196.399 14.6663 196.604 15.0244C196.81 15.3798 196.949 15.7865 197.021 16.2446ZM198.561 22V13.4711H199.848V20.8922H203.712V22H198.561ZM206.336 22H204.97L208.039 13.4711H209.526L212.595 22H211.229L208.818 15.0203H208.751L206.336 22ZM206.565 18.6601H210.996V19.7428H206.565V18.6601ZM218.41 15.7116C218.365 15.3173 218.182 15.0119 217.86 14.7954C217.538 14.5761 217.133 14.4664 216.644 14.4664C216.294 14.4664 215.992 14.5219 215.736 14.633C215.481 14.7413 215.282 14.8912 215.141 15.0827C215.002 15.2715 214.932 15.4867 214.932 15.7282C214.932 15.9309 214.98 16.1058 215.074 16.253C215.171 16.4001 215.298 16.5237 215.453 16.6236C215.611 16.7208 215.781 16.8027 215.961 16.8693C216.142 16.9332 216.315 16.9859 216.482 17.0276L217.315 17.2441C217.587 17.3108 217.866 17.401 218.152 17.5148C218.438 17.6286 218.703 17.7786 218.947 17.9646C219.191 18.1506 219.388 18.381 219.538 18.6559C219.691 18.9308 219.767 19.2597 219.767 19.6429C219.767 20.126 219.643 20.5549 219.393 20.9297C219.146 21.3045 218.786 21.6002 218.314 21.8168C217.845 22.0333 217.277 22.1416 216.611 22.1416C215.972 22.1416 215.42 22.0403 214.953 21.8376C214.487 21.6349 214.122 21.3476 213.858 20.9755C213.594 20.6007 213.448 20.1565 213.421 19.6429H214.712C214.737 19.9511 214.837 20.2079 215.012 20.4133C215.189 20.616 215.416 20.7673 215.69 20.8673C215.968 20.9644 216.272 21.013 216.602 21.013C216.966 21.013 217.29 20.9561 217.573 20.8423C217.859 20.7257 218.084 20.5646 218.247 20.3592C218.411 20.151 218.493 19.908 218.493 19.6304C218.493 19.3777 218.421 19.1709 218.277 19.0099C218.135 18.8489 217.942 18.7156 217.698 18.6101C217.456 18.5046 217.183 18.4116 216.877 18.3311L215.869 18.0562C215.186 17.8702 214.645 17.5967 214.245 17.2358C213.848 16.8749 213.65 16.3973 213.65 15.8032C213.65 15.3118 213.783 14.8828 214.05 14.5164C214.316 14.1499 214.677 13.8653 215.132 13.6626C215.588 13.4572 216.101 13.3545 216.673 13.3545C217.251 13.3545 217.76 13.4558 218.202 13.6585C218.646 13.8611 218.996 14.1402 219.251 14.4955C219.506 14.8481 219.64 15.2535 219.651 15.7116H218.41ZM225.957 15.7116C225.913 15.3173 225.729 15.0119 225.407 14.7954C225.085 14.5761 224.68 14.4664 224.191 14.4664C223.841 14.4664 223.539 14.5219 223.283 14.633C223.028 14.7413 222.829 14.8912 222.688 15.0827C222.549 15.2715 222.48 15.4867 222.48 15.7282C222.48 15.9309 222.527 16.1058 222.621 16.253C222.718 16.4001 222.845 16.5237 223 16.6236C223.158 16.7208 223.328 16.8027 223.508 16.8693C223.689 16.9332 223.862 16.9859 224.029 17.0276L224.862 17.2441C225.134 17.3108 225.413 17.401 225.699 17.5148C225.985 17.6286 226.25 17.7786 226.494 17.9646C226.738 18.1506 226.936 18.381 227.086 18.6559C227.238 18.9308 227.315 19.2597 227.315 19.6429C227.315 20.126 227.19 20.5549 226.94 20.9297C226.693 21.3045 226.333 21.6002 225.861 21.8168C225.392 22.0333 224.824 22.1416 224.158 22.1416C223.519 22.1416 222.967 22.0403 222.5 21.8376C222.034 21.6349 221.669 21.3476 221.405 20.9755C221.141 20.6007 220.996 20.1565 220.968 19.6429H222.259C222.284 19.9511 222.384 20.2079 222.559 20.4133C222.736 20.616 222.963 20.7673 223.238 20.8673C223.515 20.9644 223.819 21.013 224.15 21.013C224.513 21.013 224.837 20.9561 225.12 20.8423C225.406 20.7257 225.631 20.5646 225.795 20.3592C225.958 20.151 226.04 19.908 226.04 19.6304C226.04 19.3777 225.968 19.1709 225.824 19.0099C225.682 18.8489 225.489 18.7156 225.245 18.6101C225.003 18.5046 224.73 18.4116 224.424 18.3311L223.417 18.0562C222.734 17.8702 222.192 17.5967 221.792 17.2358C221.395 16.8749 221.197 16.3973 221.197 15.8032C221.197 15.3118 221.33 14.8828 221.597 14.5164C221.863 14.1499 222.224 13.8653 222.679 13.6626C223.135 13.4572 223.648 13.3545 224.22 13.3545C224.798 13.3545 225.307 13.4558 225.749 13.6585C226.193 13.8611 226.543 14.1402 226.798 14.4955C227.054 14.8481 227.187 15.2535 227.198 15.7116H225.957ZM232.521 17.1941V18.2769H228.74V17.1941H232.521ZM233.985 20.3342V19.2931L237.671 13.4711H238.491V15.0036H237.971L235.334 19.1765V19.2431H240.386V20.3342H233.985ZM238.029 22V20.0177L238.037 19.5429V13.4711H239.257V22H238.029Z" fill="black"/>
<path d="M254.021 48.2446H252.722C252.672 47.967 252.579 47.7227 252.443 47.5117C252.306 47.3007 252.14 47.1216 251.943 46.9745C251.746 46.8273 251.525 46.7163 251.281 46.6413C251.039 46.5663 250.782 46.5289 250.51 46.5289C250.019 46.5289 249.579 46.6524 249.19 46.8995C248.804 47.1466 248.499 47.5089 248.274 47.9864C248.052 48.464 247.941 49.047 247.941 49.7355C247.941 50.4296 248.052 51.0154 248.274 51.493C248.499 51.9705 248.805 52.3314 249.194 52.5757C249.583 52.8201 250.02 52.9422 250.506 52.9422C250.775 52.9422 251.031 52.9061 251.272 52.8339C251.517 52.759 251.737 52.6493 251.934 52.5049C252.132 52.3606 252.298 52.1843 252.434 51.976C252.573 51.765 252.669 51.5235 252.722 51.2514L254.021 51.2556C253.951 51.6748 253.817 52.0607 253.617 52.4133C253.42 52.7631 253.166 53.0658 252.855 53.3212C252.547 53.5738 252.194 53.7696 251.797 53.9084C251.4 54.0472 250.967 54.1166 250.498 54.1166C249.759 54.1166 249.101 53.9417 248.524 53.5919C247.946 53.2393 247.491 52.7354 247.158 52.0802C246.827 51.4249 246.662 50.6434 246.662 49.7355C246.662 48.8249 246.829 48.0434 247.162 47.3909C247.495 46.7357 247.95 46.2332 248.528 45.8834C249.105 45.5308 249.762 45.3545 250.498 45.3545C250.95 45.3545 251.372 45.4197 251.764 45.5502C252.158 45.6779 252.512 45.8667 252.826 46.1166C253.139 46.3637 253.399 46.6663 253.604 47.0244C253.81 47.3798 253.949 47.7865 254.021 48.2446ZM255.561 54V45.4711H256.848V52.8922H260.712V54H255.561ZM263.336 54H261.97L265.039 45.4711H266.526L269.595 54H268.229L265.818 47.0203H265.751L263.336 54ZM263.565 50.6601H267.996V51.7428H263.565V50.6601ZM275.41 47.7116C275.365 47.3173 275.182 47.0119 274.86 46.7954C274.538 46.5761 274.133 46.4664 273.644 46.4664C273.294 46.4664 272.992 46.5219 272.736 46.633C272.481 46.7413 272.282 46.8912 272.141 47.0827C272.002 47.2715 271.932 47.4867 271.932 47.7282C271.932 47.9309 271.98 48.1058 272.074 48.253C272.171 48.4001 272.298 48.5237 272.453 48.6236C272.611 48.7208 272.781 48.8027 272.961 48.8693C273.142 48.9332 273.315 48.9859 273.482 49.0276L274.315 49.2441C274.587 49.3108 274.866 49.401 275.152 49.5148C275.438 49.6286 275.703 49.7786 275.947 49.9646C276.191 50.1506 276.388 50.381 276.538 50.6559C276.691 50.9308 276.767 51.2597 276.767 51.6429C276.767 52.126 276.643 52.5549 276.393 52.9297C276.146 53.3045 275.786 53.6002 275.314 53.8168C274.845 54.0333 274.277 54.1416 273.611 54.1416C272.972 54.1416 272.42 54.0403 271.953 53.8376C271.487 53.6349 271.122 53.3476 270.858 52.9755C270.594 52.6007 270.448 52.1565 270.421 51.6429H271.712C271.737 51.9511 271.837 52.2079 272.012 52.4133C272.189 52.616 272.416 52.7673 272.69 52.8673C272.968 52.9644 273.272 53.013 273.602 53.013C273.966 53.013 274.29 52.9561 274.573 52.8423C274.859 52.7257 275.084 52.5646 275.247 52.3592C275.411 52.151 275.493 51.908 275.493 51.6304C275.493 51.3777 275.421 51.1709 275.277 51.0099C275.135 50.8489 274.942 50.7156 274.698 50.6101C274.456 50.5046 274.183 50.4116 273.877 50.3311L272.869 50.0562C272.186 49.8702 271.645 49.5967 271.245 49.2358C270.848 48.8749 270.65 48.3973 270.65 47.8032C270.65 47.3118 270.783 46.8828 271.05 46.5164C271.316 46.1499 271.677 45.8653 272.132 45.6626C272.588 45.4572 273.101 45.3545 273.673 45.3545C274.251 45.3545 274.76 45.4558 275.202 45.6585C275.646 45.8611 275.996 46.1402 276.251 46.4955C276.506 46.8481 276.64 47.2535 276.651 47.7116H275.41ZM282.957 47.7116C282.913 47.3173 282.729 47.0119 282.407 46.7954C282.085 46.5761 281.68 46.4664 281.191 46.4664C280.841 46.4664 280.539 46.5219 280.283 46.633C280.028 46.7413 279.829 46.8912 279.688 47.0827C279.549 47.2715 279.48 47.4867 279.48 47.7282C279.48 47.9309 279.527 48.1058 279.621 48.253C279.718 48.4001 279.845 48.5237 280 48.6236C280.158 48.7208 280.328 48.8027 280.508 48.8693C280.689 48.9332 280.862 48.9859 281.029 49.0276L281.862 49.2441C282.134 49.3108 282.413 49.401 282.699 49.5148C282.985 49.6286 283.25 49.7786 283.494 49.9646C283.738 50.1506 283.936 50.381 284.086 50.6559C284.238 50.9308 284.315 51.2597 284.315 51.6429C284.315 52.126 284.19 52.5549 283.94 52.9297C283.693 53.3045 283.333 53.6002 282.861 53.8168C282.392 54.0333 281.824 54.1416 281.158 54.1416C280.519 54.1416 279.967 54.0403 279.5 53.8376C279.034 53.6349 278.669 53.3476 278.405 52.9755C278.141 52.6007 277.996 52.1565 277.968 51.6429H279.259C279.284 51.9511 279.384 52.2079 279.559 52.4133C279.736 52.616 279.963 52.7673 280.238 52.8673C280.515 52.9644 280.819 53.013 281.15 53.013C281.513 53.013 281.837 52.9561 282.12 52.8423C282.406 52.7257 282.631 52.5646 282.795 52.3592C282.958 52.151 283.04 51.908 283.04 51.6304C283.04 51.3777 282.968 51.1709 282.824 51.0099C282.682 50.8489 282.489 50.7156 282.245 50.6101C282.003 50.5046 281.73 50.4116 281.424 50.3311L280.417 50.0562C279.734 49.8702 279.192 49.5967 278.792 49.2358C278.395 48.8749 278.197 48.3973 278.197 47.8032C278.197 47.3118 278.33 46.8828 278.597 46.5164C278.863 46.1499 279.224 45.8653 279.679 45.6626C280.135 45.4572 280.648 45.3545 281.22 45.3545C281.798 45.3545 282.307 45.4558 282.749 45.6585C283.193 45.8611 283.543 46.1402 283.798 46.4955C284.054 46.8481 284.187 47.2535 284.198 47.7116H282.957ZM289.521 49.1941V50.2769H285.74V49.1941H289.521ZM293.979 54.1166C293.457 54.1166 292.988 54.0167 292.572 53.8168C292.158 53.6141 291.828 53.3365 291.581 52.9839C291.334 52.6313 291.202 52.2287 291.185 51.7761H292.434C292.465 52.1426 292.627 52.4439 292.922 52.6798C293.216 52.9158 293.568 53.0338 293.979 53.0338C294.307 53.0338 294.597 52.9589 294.85 52.8089C295.105 52.6562 295.305 52.4466 295.449 52.1801C295.597 51.9136 295.67 51.6096 295.67 51.2681C295.67 50.921 295.595 50.6115 295.445 50.3394C295.295 50.0673 295.089 49.8535 294.825 49.6981C294.564 49.5426 294.264 49.4635 293.925 49.4607C293.667 49.4607 293.407 49.5051 293.146 49.5939C292.885 49.6828 292.674 49.7994 292.513 49.9438L291.335 49.7689L291.814 45.4711H296.503V46.5747H292.884L292.613 48.9609H292.663C292.83 48.7999 293.051 48.6653 293.326 48.557C293.603 48.4487 293.9 48.3946 294.217 48.3946C294.736 48.3946 295.198 48.5181 295.604 48.7652C296.012 49.0123 296.332 49.3496 296.566 49.7772C296.802 50.202 296.918 50.6906 296.915 51.2431C296.918 51.7956 296.793 52.2884 296.541 52.7215C296.291 53.1546 295.944 53.4961 295.499 53.746C295.058 53.9931 294.551 54.1166 293.979 54.1166Z" fill="black"/>
</svg>
