<svg width="331" height="145" viewBox="0 0 331 145" fill="none" xmlns="http://www.w3.org/2000/svg">
<g filter="url(#filter0_d_2188_1751)">
<path d="M6 24.7903C6 17.4291 6 13.7485 7.43261 10.9369C8.6927 8.4637 10.7034 6.45296 13.1766 5.19286C15.9882 3.76025 19.6689 3.76025 27.0301 3.76025H49.8643C53.0791 3.76025 54.6866 3.76026 56.1995 4.12342C57.5401 4.44538 58.8223 4.97645 59.9987 5.69713C61.3249 6.50994 62.4618 7.64655 64.735 9.91983L65.5592 10.7445C67.8324 13.0178 68.9693 14.1544 70.2955 14.9672C71.4719 15.6879 72.7541 16.2189 74.0947 16.5409C75.6076 16.9041 77.2151 16.9041 80.43 16.9041H103.264C110.625 16.9041 114.306 16.9041 117.118 18.3367C119.591 19.5968 121.602 21.6075 122.862 24.0807C124.294 26.8923 124.294 30.5729 124.294 37.9341V74.7368C124.294 82.098 124.294 85.7789 122.862 88.5903C121.602 91.0633 119.591 93.0743 117.118 94.3342C114.306 95.7668 110.625 95.7668 103.264 95.7668H27.0301C19.6688 95.7668 15.9882 95.7668 13.1766 94.3342C10.7034 93.0743 8.6927 91.0633 7.43261 88.5903C6 85.7789 6 82.098 6 74.7368V24.7903Z" stroke="black" stroke-width="4" stroke-linecap="round" stroke-linejoin="round"/>
<path d="M79.822 8V0.517594H82.4891C83.0712 0.517594 83.5535 0.623546 83.9359 0.83545C84.3183 1.04735 84.6045 1.3372 84.7945 1.70499C84.9845 2.07034 85.0795 2.48197 85.0795 2.93988C85.0795 3.40022 84.9832 3.81429 84.7908 4.18207C84.6008 4.54742 84.3134 4.83727 83.9286 5.05161C83.5462 5.26351 83.0651 5.36947 82.4855 5.36947H80.6514V4.41224H82.3832C82.7509 4.41224 83.0493 4.34892 83.2783 4.22226C83.5072 4.09317 83.6753 3.9178 83.7825 3.69616C83.8896 3.47451 83.9432 3.22242 83.9432 2.93988C83.9432 2.65734 83.8896 2.40646 83.7825 2.18725C83.6753 1.96804 83.506 1.79633 83.2746 1.67211C83.0457 1.54789 82.7436 1.48578 82.3685 1.48578H80.951V8H79.822ZM86.3153 8V2.3882H87.3711V3.27965H87.4296C87.5319 2.97763 87.7121 2.74015 87.9703 2.56722C88.2309 2.39185 88.5256 2.30416 88.8545 2.30416C88.9227 2.30416 89.003 2.3066 89.0956 2.31147C89.1906 2.31634 89.2649 2.32243 89.3184 2.32974V3.37465C89.2746 3.36247 89.1967 3.34907 89.0846 3.33446C88.9726 3.31741 88.8605 3.30888 88.7485 3.30888C88.4903 3.30888 88.2601 3.36368 88.058 3.47329C87.8583 3.58046 87.6999 3.73025 87.583 3.92267C87.4661 4.11266 87.4077 4.32943 87.4077 4.573V8H86.3153ZM92.4267 8.11326C91.9006 8.11326 91.4414 7.99269 91.0493 7.75156C90.6572 7.51043 90.3527 7.17309 90.1359 6.73954C89.9191 6.30599 89.8108 5.79936 89.8108 5.21967C89.8108 4.63754 89.9191 4.12849 90.1359 3.6925C90.3527 3.25651 90.6572 2.91796 91.0493 2.67682C91.4414 2.43569 91.9006 2.31513 92.4267 2.31513C92.9528 2.31513 93.4119 2.43569 93.8041 2.67682C94.1962 2.91796 94.5007 3.25651 94.7174 3.6925C94.9342 4.12849 95.0426 4.63754 95.0426 5.21967C95.0426 5.79936 94.9342 6.30599 94.7174 6.73954C94.5007 7.17309 94.1962 7.51043 93.8041 7.75156C93.4119 7.99269 92.9528 8.11326 92.4267 8.11326ZM92.4303 7.19623C92.7713 7.19623 93.0539 7.10611 93.278 6.92587C93.502 6.74563 93.6677 6.50571 93.7748 6.20612C93.8844 5.90653 93.9392 5.5765 93.9392 5.21602C93.9392 4.85797 93.8844 4.52916 93.7748 4.22957C93.6677 3.92754 93.502 3.68519 93.278 3.50252C93.0539 3.31984 92.7713 3.2285 92.4303 3.2285C92.0869 3.2285 91.8019 3.31984 91.5754 3.50252C91.3513 3.68519 91.1845 3.92754 91.0749 4.22957C90.9677 4.52916 90.9141 4.85797 90.9141 5.21602C90.9141 5.5765 90.9677 5.90653 91.0749 6.20612C91.1845 6.50571 91.3513 6.74563 91.5754 6.92587C91.8019 7.10611 92.0869 7.19623 92.4303 7.19623ZM96.262 2.3882H97.3544V8.36535C97.3544 8.74045 97.2862 9.05708 97.1498 9.31527C97.0158 9.57345 96.8161 9.76952 96.5506 9.90348C96.2875 10.0374 95.9624 10.1044 95.5751 10.1044C95.5361 10.1044 95.4996 10.1044 95.4655 10.1044C95.429 10.1044 95.3912 10.1032 95.3522 10.1008V9.16182C95.3863 9.16182 95.4168 9.16182 95.4436 9.16182C95.4679 9.16182 95.4959 9.16182 95.5276 9.16182C95.7858 9.16182 95.9721 9.0924 96.0866 8.95357C96.2035 8.81717 96.262 8.61866 96.262 8.35804V2.3882ZM96.8027 1.52231C96.6127 1.52231 96.4495 1.45898 96.3131 1.33233C96.1791 1.20324 96.1122 1.04979 96.1122 0.871985C96.1122 0.691745 96.1791 0.538297 96.3131 0.411642C96.4495 0.282551 96.6127 0.218005 96.8027 0.218005C96.9927 0.218005 97.1546 0.282551 97.2886 0.411642C97.425 0.538297 97.4932 0.691745 97.4932 0.871985C97.4932 1.04979 97.425 1.20324 97.2886 1.33233C97.1546 1.45898 96.9927 1.52231 96.8027 1.52231ZM101.243 8.11326C100.69 8.11326 100.214 7.99513 99.8141 7.75887C99.4171 7.52017 99.1102 7.18527 98.8934 6.75415C98.6791 6.3206 98.5719 5.81276 98.5719 5.23063C98.5719 4.65581 98.6791 4.14919 98.8934 3.71077C99.1102 3.27235 99.4122 2.93013 99.7995 2.68413C100.189 2.43813 100.645 2.31513 101.166 2.31513C101.483 2.31513 101.789 2.36749 102.087 2.47223C102.384 2.57696 102.65 2.74137 102.887 2.96545C103.123 3.18953 103.309 3.4806 103.446 3.83864C103.582 4.19425 103.65 4.62658 103.65 5.13564V5.52291H99.1893V4.70453H102.58C102.58 4.41712 102.521 4.16259 102.404 3.94094C102.288 3.71686 102.123 3.54027 101.911 3.41118C101.702 3.28209 101.456 3.21754 101.173 3.21754C100.866 3.21754 100.598 3.29305 100.369 3.44406C100.143 3.59264 99.9675 3.78749 99.8433 4.02863C99.7215 4.26732 99.6606 4.52672 99.6606 4.80682V5.44619C99.6606 5.82129 99.7264 6.14036 99.8579 6.40341C99.9919 6.66647 100.178 6.86741 100.417 7.00624C100.656 7.14264 100.935 7.21084 101.254 7.21084C101.461 7.21084 101.649 7.18161 101.82 7.12316C101.99 7.06226 102.138 6.97214 102.262 6.8528C102.386 6.73345 102.481 6.58609 102.547 6.41072L103.581 6.59705C103.498 6.90151 103.349 7.16822 103.135 7.39717C102.923 7.62369 102.657 7.80027 102.335 7.92693C102.016 8.05115 101.652 8.11326 101.243 8.11326ZM107.226 8.11326C106.683 8.11326 106.215 7.99026 105.823 7.74425C105.434 7.49581 105.134 7.1536 104.924 6.71761C104.715 6.28163 104.61 5.78231 104.61 5.21967C104.61 4.64972 104.717 4.14676 104.932 3.71077C105.146 3.27235 105.448 2.93013 105.838 2.68413C106.228 2.43813 106.687 2.31513 107.215 2.31513C107.641 2.31513 108.021 2.39428 108.355 2.5526C108.689 2.70849 108.958 2.9277 109.163 3.21024C109.37 3.49278 109.493 3.82281 109.532 4.20034H108.468C108.41 3.93729 108.276 3.71077 108.066 3.52079C107.859 3.3308 107.582 3.23581 107.233 3.23581C106.929 3.23581 106.662 3.31619 106.433 3.47694C106.207 3.63526 106.03 3.86178 105.904 4.1565C105.777 4.44878 105.714 4.79465 105.714 5.1941C105.714 5.60329 105.776 5.95647 105.9 6.25362C106.024 6.55077 106.2 6.78094 106.426 6.94413C106.655 7.10732 106.924 7.18892 107.233 7.18892C107.441 7.18892 107.628 7.15117 107.796 7.07566C107.967 6.99772 108.109 6.88689 108.224 6.74319C108.34 6.59948 108.422 6.42655 108.468 6.22439H109.532C109.493 6.58731 109.374 6.91125 109.177 7.19623C108.98 7.4812 108.716 7.70528 108.384 7.86847C108.056 8.03166 107.669 8.11326 107.226 8.11326ZM113.319 2.3882V3.26504H110.254V2.3882H113.319ZM111.076 1.0437H112.168V6.35226C112.168 6.56417 112.2 6.7237 112.263 6.83087C112.327 6.93561 112.408 7.00746 112.508 7.04643C112.611 7.08297 112.721 7.10123 112.841 7.10123C112.928 7.10123 113.005 7.09515 113.071 7.08297C113.137 7.07079 113.188 7.06105 113.224 7.05374L113.422 7.95616C113.358 7.98051 113.268 8.00487 113.151 8.02923C113.034 8.05602 112.888 8.07063 112.713 8.07307C112.425 8.07794 112.158 8.02679 111.909 7.91962C111.661 7.81245 111.46 7.64683 111.306 7.42274C111.153 7.19866 111.076 6.91734 111.076 6.57878V1.0437ZM117.352 0.517594V8H116.219V1.65018H116.175L114.385 2.81931V1.73787L116.252 0.517594H117.352Z" fill="black"/>
<path d="M206.707 24.7903C206.707 17.4291 206.707 13.7485 208.14 10.9369C209.4 8.4637 211.41 6.45296 213.884 5.19286C216.695 3.76025 220.376 3.76025 227.737 3.76025H250.571C253.786 3.76025 255.394 3.76026 256.906 4.12342C258.247 4.44538 259.529 4.97645 260.706 5.69713C262.032 6.50994 263.169 7.64655 265.442 9.91983L266.266 10.7445C268.539 13.0178 269.676 14.1544 271.003 14.9672C272.179 15.6879 273.461 16.2189 274.802 16.5409C276.315 16.9041 277.922 16.9041 281.137 16.9041H303.971C311.332 16.9041 315.013 16.9041 317.825 18.3367C320.298 19.5968 322.309 21.6075 323.569 24.0807C325.001 26.8923 325.001 30.5729 325.001 37.9341V74.7368C325.001 82.098 325.001 85.7789 323.569 88.5903C322.309 91.0633 320.298 93.0743 317.825 94.3342C315.013 95.7668 311.332 95.7668 303.971 95.7668H227.737C220.376 95.7668 216.695 95.7668 213.884 94.3342C211.41 93.0743 209.4 91.0633 208.14 88.5903C206.707 85.7789 206.707 82.098 206.707 74.7368V24.7903Z" stroke="black" stroke-width="4" stroke-linecap="round" stroke-linejoin="round"/>
<path d="M91.1719 52.6549C90.083 52.6549 89.2003 53.5376 89.2003 54.6265C89.2003 55.7153 90.083 56.598 91.1719 56.598L91.1719 52.6549ZM203.368 56.0206C204.138 55.2506 204.138 54.0023 203.368 53.2324L190.821 40.6854C190.051 39.9154 188.803 39.9154 188.033 40.6854C187.263 41.4553 187.263 42.7036 188.033 43.4736L199.186 54.6265L188.033 65.7794C187.263 66.5493 187.263 67.7976 188.033 68.5676C188.803 69.3375 190.051 69.3375 190.821 68.5676L203.368 56.0206ZM91.1719 56.598L201.974 56.598L201.974 52.6549L91.1719 52.6549L91.1719 56.598Z" fill="#535353"/>
<path d="M24.5325 34.5166V39.7215C24.5325 40.384 24.5325 40.7153 24.4036 40.9684C24.2902 41.1909 24.1092 41.3719 23.8867 41.4853C23.6336 41.6143 23.3023 41.6143 22.6398 41.6143H18.1447C17.4821 41.6143 17.1509 41.6143 16.8979 41.4853C16.6753 41.3719 16.4943 41.1909 16.3809 40.9684C16.252 40.7153 16.252 40.384 16.252 39.7215V32.8605C16.252 32.198 16.252 31.8667 16.3809 31.6137C16.4943 31.3911 16.6753 31.2101 16.8979 31.0967C17.1509 30.9678 17.4822 30.9678 18.1447 30.9678H20.9837M24.5325 34.5166L20.9837 30.9678M24.5325 34.5166H21.5752C21.2485 34.5166 20.9837 34.2518 20.9837 33.9251V30.9678" stroke="black" stroke-width="1.14655" stroke-linecap="round" stroke-linejoin="round"/>
<path d="M31.1816 40.1509V34.5391H32.2375V35.4305H32.2959C32.3982 35.1285 32.5785 34.891 32.8367 34.7181C33.0973 34.5427 33.392 34.455 33.7208 34.455C33.789 34.455 33.8694 34.4575 33.962 34.4624C34.0569 34.4672 34.1312 34.4733 34.1848 34.4806V35.5255C34.141 35.5133 34.063 35.4999 33.951 35.4853C33.8389 35.4683 33.7269 35.4598 33.6149 35.4598C33.3567 35.4598 33.1265 35.5146 32.9244 35.6242C32.7246 35.7313 32.5663 35.8811 32.4494 36.0736C32.3325 36.2635 32.274 36.4803 32.274 36.7239V40.1509H31.1816ZM37.3478 40.2641C36.7949 40.2641 36.3188 40.146 35.9193 39.9097C35.5223 39.6711 35.2154 39.3361 34.9986 38.905C34.7843 38.4715 34.6771 37.9636 34.6771 37.3815C34.6771 36.8067 34.7843 36.3001 34.9986 35.8616C35.2154 35.4232 35.5174 35.081 35.9047 34.835C36.2944 34.589 36.7499 34.466 37.2711 34.466C37.5878 34.466 37.8947 34.5184 38.1918 34.6231C38.489 34.7278 38.7557 34.8922 38.9919 35.1163C39.2282 35.3404 39.4145 35.6315 39.5509 35.9895C39.6873 36.3451 39.7555 36.7775 39.7555 37.2865V37.6738H35.2946V36.8554H38.685C38.685 36.568 38.6266 36.3135 38.5097 36.0918C38.3928 35.8677 38.2283 35.6912 38.0164 35.5621C37.807 35.433 37.561 35.3684 37.2784 35.3684C36.9715 35.3684 36.7036 35.4439 36.4747 35.5949C36.2481 35.7435 36.0728 35.9384 35.9486 36.1795C35.8268 36.4182 35.7659 36.6776 35.7659 36.9577V37.5971C35.7659 37.9722 35.8316 38.2912 35.9632 38.5543C36.0971 38.8173 36.2835 39.0183 36.5222 39.1571C36.7609 39.2935 37.0397 39.3617 37.3588 39.3617C37.5658 39.3617 37.7546 39.3325 37.9251 39.274C38.0956 39.2131 38.243 39.123 38.3672 39.0037C38.4914 38.8843 38.5864 38.737 38.6522 38.5616L39.6861 38.7479C39.6033 39.0524 39.4547 39.3191 39.2404 39.548C39.0285 39.7746 38.7618 39.9512 38.4403 40.0778C38.1212 40.202 37.757 40.2641 37.3478 40.2641ZM45.1728 35.9091L44.1827 36.0845C44.1413 35.9579 44.0755 35.8373 43.9854 35.7228C43.8977 35.6083 43.7783 35.5146 43.6273 35.4415C43.4763 35.3684 43.2876 35.3319 43.061 35.3319C42.7517 35.3319 42.4935 35.4013 42.2865 35.5401C42.0795 35.6765 41.9759 35.8531 41.9759 36.0699C41.9759 36.2574 42.0454 36.4085 42.1842 36.5229C42.323 36.6374 42.5471 36.7312 42.8564 36.8043L43.7479 37.0089C44.2643 37.1282 44.6491 37.3121 44.9024 37.5605C45.1557 37.809 45.2824 38.1317 45.2824 38.5287C45.2824 38.8648 45.185 39.1644 44.9901 39.4275C44.7977 39.6881 44.5285 39.8927 44.1827 40.0413C43.8392 40.1898 43.441 40.2641 42.988 40.2641C42.3596 40.2641 41.8469 40.1302 41.4498 39.8623C41.0528 39.5919 40.8093 39.2083 40.7191 38.7114L41.775 38.5506C41.8408 38.8259 41.9759 39.0341 42.1805 39.1754C42.3851 39.3142 42.6518 39.3836 42.9807 39.3836C43.3387 39.3836 43.6249 39.3094 43.8392 39.1608C44.0536 39.0098 44.1607 38.8259 44.1607 38.6091C44.1607 38.4337 44.095 38.2864 43.9635 38.167C43.8344 38.0477 43.6359 37.9575 43.3679 37.8967L42.418 37.6884C41.8943 37.5691 41.5071 37.3791 41.2562 37.1185C41.0078 36.8578 40.8835 36.5278 40.8835 36.1284C40.8835 35.7971 40.9761 35.5073 41.1612 35.2588C41.3463 35.0104 41.6021 34.8167 41.9284 34.6779C42.2548 34.5366 42.6287 34.466 43.0501 34.466C43.6566 34.466 44.134 34.5975 44.4823 34.8606C44.8306 35.1212 45.0607 35.4707 45.1728 35.9091ZM47.5759 36.8189V40.1509H46.4835V34.5391H47.532V35.4525H47.6014C47.7305 35.1553 47.9327 34.9166 48.2079 34.7364C48.4856 34.5561 48.8351 34.466 49.2565 34.466C49.6389 34.466 49.9738 34.5464 50.2612 34.7071C50.5486 34.8655 50.7715 35.1017 50.9298 35.4159C51.0881 35.7301 51.1673 36.1186 51.1673 36.5814V40.1509H50.0749V36.7129C50.0749 36.3062 49.9689 35.9883 49.757 35.7593C49.5451 35.528 49.2541 35.4123 48.8838 35.4123C48.6305 35.4123 48.4052 35.4671 48.2079 35.5767C48.0131 35.6863 47.8584 35.847 47.7439 36.0589C47.6319 36.2684 47.5759 36.5217 47.5759 36.8189ZM55.051 40.2641C54.4981 40.2641 54.0219 40.146 53.6224 39.9097C53.2254 39.6711 52.9185 39.3361 52.7018 38.905C52.4874 38.4715 52.3803 37.9636 52.3803 37.3815C52.3803 36.8067 52.4874 36.3001 52.7018 35.8616C52.9185 35.4232 53.2206 35.081 53.6078 34.835C53.9975 34.589 54.453 34.466 54.9743 34.466C55.2909 34.466 55.5978 34.5184 55.8949 34.6231C56.1921 34.7278 56.4588 34.8922 56.6951 35.1163C56.9313 35.3404 57.1176 35.6315 57.254 35.9895C57.3904 36.3451 57.4586 36.7775 57.4586 37.2865V37.6738H52.9977V36.8554H56.3882C56.3882 36.568 56.3297 36.3135 56.2128 36.0918C56.0959 35.8677 55.9315 35.6912 55.7196 35.5621C55.5101 35.433 55.2641 35.3684 54.9816 35.3684C54.6747 35.3684 54.4067 35.4439 54.1778 35.5949C53.9513 35.7435 53.7759 35.9384 53.6517 36.1795C53.5299 36.4182 53.469 36.6776 53.469 36.9577V37.5971C53.469 37.9722 53.5348 38.2912 53.6663 38.5543C53.8003 38.8173 53.9866 39.0183 54.2253 39.1571C54.464 39.2935 54.7429 39.3617 55.0619 39.3617C55.269 39.3617 55.4577 39.3325 55.6282 39.274C55.7987 39.2131 55.9461 39.123 56.0703 39.0037C56.1945 38.8843 56.2895 38.737 56.3553 38.5616L57.3892 38.7479C57.3064 39.0524 57.1578 39.3191 56.9435 39.548C56.7316 39.7746 56.4649 39.9512 56.1434 40.0778C55.8243 40.202 55.4602 40.2641 55.051 40.2641ZM61.2903 34.5391V35.4159H58.225V34.5391H61.2903ZM59.047 33.1946H60.1394V38.5031C60.1394 38.715 60.1711 38.8746 60.2344 38.9818C60.2977 39.0865 60.3793 39.1583 60.4792 39.1973C60.5815 39.2338 60.6923 39.2521 60.8117 39.2521C60.8993 39.2521 60.9761 39.246 61.0418 39.2338C61.1076 39.2217 61.1587 39.2119 61.1953 39.2046L61.3926 40.107C61.3292 40.1314 61.2391 40.1558 61.1222 40.1801C61.0053 40.2069 60.8592 40.2215 60.6838 40.2239C60.3964 40.2288 60.1285 40.1777 59.88 40.0705C59.6316 39.9633 59.4306 39.7977 59.2772 39.5736C59.1237 39.3495 59.047 39.0682 59.047 38.7297V33.1946ZM66.5066 40.1509V41.0789H61.7534V40.1509H66.5066ZM67.4684 40.1509L70.7346 33.6915V33.6367H66.9569V32.6685H71.9037V33.6695L68.6485 40.1509H67.4684ZM72.6226 40.2203C72.4228 40.2203 72.2511 40.1497 72.1074 40.0084C71.9637 39.8647 71.8919 39.6918 71.8919 39.4896C71.8919 39.2899 71.9637 39.1194 72.1074 38.9781C72.2511 38.8344 72.4228 38.7625 72.6226 38.7625C72.8223 38.7625 72.994 38.8344 73.1377 38.9781C73.2814 39.1194 73.3533 39.2899 73.3533 39.4896C73.3533 39.6236 73.3192 39.7466 73.251 39.8586C73.1852 39.9682 73.0975 40.0559 72.9879 40.1217C72.8783 40.1874 72.7565 40.2203 72.6226 40.2203ZM74.8165 42.2553V34.5391H75.8833V35.4488H75.9747C76.038 35.3319 76.1293 35.1967 76.2487 35.0433C76.368 34.8898 76.5337 34.7558 76.7456 34.6414C76.9575 34.5245 77.2376 34.466 77.5859 34.466C78.0389 34.466 78.4432 34.5805 78.7988 34.8094C79.1545 35.0384 79.4333 35.3684 79.6355 35.7995C79.8401 36.2307 79.9424 36.7495 79.9424 37.3559C79.9424 37.9624 79.8413 38.4824 79.6392 38.916C79.437 39.3471 79.1593 39.6796 78.8062 39.9134C78.453 40.1448 78.0499 40.2605 77.5968 40.2605C77.2558 40.2605 76.977 40.2032 76.7602 40.0888C76.5458 39.9743 76.3778 39.8403 76.256 39.6869C76.1342 39.5334 76.0404 39.397 75.9747 39.2777H75.9089V42.2553H74.8165ZM75.887 37.345C75.887 37.7396 75.9442 38.0854 76.0587 38.3826C76.1732 38.6797 76.3388 38.9123 76.5556 39.0804C76.7724 39.246 77.0378 39.3288 77.3521 39.3288C77.6784 39.3288 77.9512 39.2424 78.1704 39.0694C78.3897 38.8941 78.5553 38.6566 78.6673 38.357C78.7818 38.0574 78.839 37.7201 78.839 37.345C78.839 36.9748 78.783 36.6423 78.671 36.3476C78.5614 36.0528 78.3957 35.8202 78.1741 35.6497C77.9549 35.4792 77.6809 35.394 77.3521 35.394C77.0354 35.394 76.7675 35.4756 76.5483 35.6388C76.3315 35.802 76.1671 36.0297 76.0551 36.322C75.943 36.6143 75.887 36.9553 75.887 37.345ZM83.7859 34.5391V35.4159H80.7206V34.5391H83.7859ZM81.5426 33.1946H82.635V38.5031C82.635 38.715 82.6667 38.8746 82.73 38.9818C82.7934 39.0865 82.875 39.1583 82.9748 39.1973C83.0771 39.2338 83.1879 39.2521 83.3073 39.2521C83.395 39.2521 83.4717 39.246 83.5375 39.2338C83.6032 39.2217 83.6544 39.2119 83.6909 39.2046L83.8882 40.107C83.8249 40.1314 83.7347 40.1558 83.6178 40.1801C83.5009 40.2069 83.3548 40.2215 83.1794 40.2239C82.892 40.2288 82.6241 40.1777 82.3756 40.0705C82.1272 39.9633 81.9263 39.7977 81.7728 39.5736C81.6194 39.3495 81.5426 39.0682 81.5426 38.7297V33.1946Z" fill="black"/>
<path d="M24.5325 53.8379V59.0428C24.5325 59.7053 24.5325 60.0366 24.4036 60.2897C24.2902 60.5122 24.1092 60.6932 23.8867 60.8066C23.6336 60.9355 23.3023 60.9355 22.6398 60.9355H18.1447C17.4821 60.9355 17.1509 60.9355 16.8979 60.8066C16.6753 60.6932 16.4943 60.5122 16.3809 60.2897C16.252 60.0366 16.252 59.7053 16.252 59.0428V52.1818C16.252 51.5193 16.252 51.188 16.3809 50.935C16.4943 50.7124 16.6753 50.5314 16.8979 50.418C17.1509 50.2891 17.4822 50.2891 18.1447 50.2891H20.9837M24.5325 53.8379L20.9837 50.2891M24.5325 53.8379H21.5752C21.2485 53.8379 20.9837 53.5731 20.9837 53.2464V50.2891" stroke="black" stroke-width="1.14655" stroke-linecap="round" stroke-linejoin="round"/>
<path d="M31.5762 58.2891V52.6773H32.632V53.5687H32.6905C32.7928 53.2667 32.973 53.0292 33.2312 52.8563C33.4918 52.6809 33.7865 52.5932 34.1153 52.5932C34.1835 52.5932 34.2639 52.5957 34.3565 52.6005C34.4515 52.6054 34.5258 52.6115 34.5793 52.6188V53.6637C34.5355 53.6515 34.4576 53.6381 34.3455 53.6235C34.2335 53.6065 34.1214 53.5979 34.0094 53.5979C33.7512 53.5979 33.521 53.6527 33.3189 53.7624C33.1192 53.8695 32.9608 54.0193 32.8439 54.2117C32.727 54.4017 32.6686 54.6185 32.6686 54.8621V58.2891H31.5762ZM37.7424 58.4023C37.1895 58.4023 36.7133 58.2842 36.3139 58.0479C35.9168 57.8092 35.6099 57.4743 35.3932 57.0432C35.1788 56.6097 35.0717 56.1018 35.0717 55.5197C35.0717 54.9449 35.1788 54.4383 35.3932 53.9998C35.6099 53.5614 35.912 53.2192 36.2992 52.9732C36.6889 52.7272 37.1444 52.6042 37.6657 52.6042C37.9823 52.6042 38.2892 52.6566 38.5863 52.7613C38.8835 52.866 39.1502 53.0304 39.3865 53.2545C39.6227 53.4786 39.8091 53.7697 39.9455 54.1277C40.0818 54.4833 40.15 54.9156 40.15 55.4247V55.812H35.6891V54.9936H39.0796C39.0796 54.7062 39.0211 54.4517 38.9042 54.23C38.7873 54.0059 38.6229 53.8293 38.411 53.7002C38.2015 53.5712 37.9555 53.5066 37.673 53.5066C37.3661 53.5066 37.0981 53.5821 36.8692 53.7331C36.6427 53.8817 36.4673 54.0766 36.3431 54.3177C36.2213 54.5564 36.1604 54.8158 36.1604 55.0959V55.7353C36.1604 56.1103 36.2262 56.4294 36.3577 56.6925C36.4917 56.9555 36.678 57.1565 36.9167 57.2953C37.1554 57.4317 37.4343 57.4999 37.7533 57.4999C37.9604 57.4999 38.1491 57.4707 38.3196 57.4122C38.4901 57.3513 38.6375 57.2612 38.7617 57.1419C38.8859 57.0225 38.9809 56.8752 39.0467 56.6998L40.0806 56.8861C39.9978 57.1906 39.8492 57.4573 39.6349 57.6862C39.423 57.9128 39.1563 58.0893 38.8348 58.216C38.5157 58.3402 38.1516 58.4023 37.7424 58.4023ZM45.5673 54.0473L44.5772 54.2227C44.5358 54.096 44.47 53.9755 44.3799 53.861C44.2922 53.7465 44.1729 53.6527 44.0219 53.5797C43.8709 53.5066 43.6821 53.4701 43.4556 53.4701C43.1462 53.4701 42.8881 53.5395 42.681 53.6783C42.474 53.8147 42.3705 53.9913 42.3705 54.2081C42.3705 54.3956 42.4399 54.5466 42.5787 54.6611C42.7176 54.7756 42.9416 54.8694 43.251 54.9424L44.1424 55.147C44.6588 55.2664 45.0436 55.4503 45.2969 55.6987C45.5503 55.9472 45.6769 56.2699 45.6769 56.6669C45.6769 57.003 45.5795 57.3026 45.3846 57.5657C45.1922 57.8263 44.9231 58.0309 44.5772 58.1795C44.2338 58.328 43.8355 58.4023 43.3825 58.4023C42.7541 58.4023 42.2414 58.2684 41.8444 58.0004C41.4474 57.7301 41.2038 57.3465 41.1137 56.8496L42.1695 56.6888C42.2353 56.9641 42.3705 57.1723 42.5751 57.3136C42.7797 57.4524 43.0464 57.5218 43.3752 57.5218C43.7332 57.5218 44.0194 57.4475 44.2338 57.299C44.4481 57.1479 44.5553 56.9641 44.5553 56.7473C44.5553 56.5719 44.4895 56.4246 44.358 56.3052C44.2289 56.1859 44.0304 56.0957 43.7625 56.0348L42.8126 55.8266C42.2889 55.7072 41.9016 55.5173 41.6507 55.2566C41.4023 54.996 41.2781 54.666 41.2781 54.2665C41.2781 53.9353 41.3706 53.6454 41.5557 53.397C41.7409 53.1486 41.9966 52.9549 42.323 52.8161C42.6494 52.6748 43.0232 52.6042 43.4446 52.6042C44.0511 52.6042 44.5285 52.7357 44.8768 52.9988C45.2251 53.2594 45.4553 53.6089 45.5673 54.0473ZM47.9704 54.9571V58.2891H46.878V52.6773H47.9266V53.5906H47.996C48.1251 53.2935 48.3272 53.0548 48.6025 52.8745C48.8801 52.6943 49.2297 52.6042 49.651 52.6042C50.0334 52.6042 50.3683 52.6846 50.6557 52.8453C50.9432 53.0036 51.166 53.2399 51.3243 53.5541C51.4827 53.8683 51.5618 54.2568 51.5618 54.7196V58.2891H50.4694V54.8511C50.4694 54.4443 50.3635 54.1265 50.1516 53.8975C49.9397 53.6661 49.6486 53.5504 49.2784 53.5504C49.0251 53.5504 48.7998 53.6053 48.6025 53.7149C48.4076 53.8245 48.2529 53.9852 48.1385 54.1971C48.0264 54.4066 47.9704 54.6599 47.9704 54.9571ZM55.4455 58.4023C54.8926 58.4023 54.4164 58.2842 54.017 58.0479C53.62 57.8092 53.3131 57.4743 53.0963 57.0432C52.882 56.6097 52.7748 56.1018 52.7748 55.5197C52.7748 54.9449 52.882 54.4383 53.0963 53.9998C53.3131 53.5614 53.6151 53.2192 54.0024 52.9732C54.3921 52.7272 54.8475 52.6042 55.3688 52.6042C55.6854 52.6042 55.9923 52.6566 56.2895 52.7613C56.5866 52.866 56.8533 53.0304 57.0896 53.2545C57.3258 53.4786 57.5122 53.7697 57.6486 54.1277C57.785 54.4833 57.8532 54.9156 57.8532 55.4247V55.812H53.3922V54.9936H56.7827C56.7827 54.7062 56.7242 54.4517 56.6073 54.23C56.4904 54.0059 56.326 53.8293 56.1141 53.7002C55.9046 53.5712 55.6586 53.5066 55.3761 53.5066C55.0692 53.5066 54.8013 53.5821 54.5723 53.7331C54.3458 53.8817 54.1704 54.0766 54.0462 54.3177C53.9244 54.5564 53.8635 54.8158 53.8635 55.0959V55.7353C53.8635 56.1103 53.9293 56.4294 54.0608 56.6925C54.1948 56.9555 54.3811 57.1565 54.6198 57.2953C54.8585 57.4317 55.1374 57.4999 55.4565 57.4999C55.6635 57.4999 55.8523 57.4707 56.0228 57.4122C56.1933 57.3513 56.3406 57.2612 56.4648 57.1419C56.5891 57.0225 56.684 56.8752 56.7498 56.6998L57.7838 56.8861C57.7009 57.1906 57.5524 57.4573 57.338 57.6862C57.1261 57.9128 56.8594 58.0893 56.5379 58.216C56.2188 58.3402 55.8547 58.4023 55.4455 58.4023ZM61.6848 52.6773V53.5541H58.6195V52.6773H61.6848ZM59.4415 51.3328H60.5339V56.6413C60.5339 56.8532 60.5656 57.0128 60.6289 57.1199C60.6923 57.2247 60.7739 57.2965 60.8737 57.3355C60.976 57.372 61.0868 57.3903 61.2062 57.3903C61.2939 57.3903 61.3706 57.3842 61.4364 57.372C61.5021 57.3599 61.5533 57.3501 61.5898 57.3428L61.7871 58.2452C61.7238 58.2696 61.6337 58.2939 61.5167 58.3183C61.3998 58.3451 61.2537 58.3597 61.0783 58.3621C60.7909 58.367 60.523 58.3159 60.2745 58.2087C60.0261 58.1015 59.8252 57.9359 59.6717 57.7118C59.5183 57.4877 59.4415 57.2064 59.4415 56.8678V51.3328ZM66.9011 58.2891V59.2171H62.1479V58.2891H66.9011ZM69.6668 58.3914C69.1432 58.3914 68.6804 58.3012 68.2785 58.121C67.879 57.9408 67.5661 57.6923 67.3395 57.3757C67.113 57.059 67.001 56.6986 67.0034 56.2942C67.001 55.9776 67.0655 55.6865 67.197 55.4211C67.331 55.1531 67.5125 54.9303 67.7414 54.7525C67.9704 54.5722 68.2261 54.4577 68.5087 54.409V54.3652C68.136 54.2751 67.8376 54.0753 67.6135 53.766C67.3895 53.4567 67.2786 53.1011 67.2811 52.6992C67.2786 52.3168 67.3797 51.9758 67.5843 51.6762C67.7914 51.3742 68.0751 51.1367 68.4356 50.9638C68.7961 50.7908 69.2065 50.7044 69.6668 50.7044C70.1223 50.7044 70.5291 50.792 70.8871 50.9674C71.2476 51.1403 71.5313 51.3778 71.7384 51.6798C71.9454 51.9794 72.0501 52.3192 72.0526 52.6992C72.0501 53.1011 71.9357 53.4567 71.7091 53.766C71.4826 54.0753 71.1879 54.2751 70.825 54.3652V54.409C71.1051 54.4577 71.3572 54.5722 71.5813 54.7525C71.8078 54.9303 71.988 55.1531 72.122 55.4211C72.2584 55.6865 72.3278 55.9776 72.3302 56.2942C72.3278 56.6986 72.2133 57.059 71.9868 57.3757C71.7603 57.6923 71.4461 57.9408 71.0442 58.121C70.6447 58.3012 70.1856 58.3914 69.6668 58.3914ZM69.6668 57.467C69.9762 57.467 70.2441 57.4159 70.4706 57.3136C70.6971 57.2088 70.8725 57.0639 70.9967 56.8788C71.1209 56.6913 71.1843 56.472 71.1867 56.2212C71.1843 55.9606 71.1161 55.7304 70.9821 55.5307C70.8506 55.3309 70.6715 55.1738 70.445 55.0594C70.2185 54.9449 69.9591 54.8876 69.6668 54.8876C69.3721 54.8876 69.1103 54.9449 68.8813 55.0594C68.6524 55.1738 68.4721 55.3309 68.3406 55.5307C68.2091 55.7304 68.1445 55.9606 68.147 56.2212C68.1445 56.472 68.2042 56.6913 68.326 56.8788C68.4502 57.0639 68.6268 57.2088 68.8557 57.3136C69.0847 57.4159 69.3551 57.467 69.6668 57.467ZM69.6668 53.9852C69.9153 53.9852 70.1357 53.9353 70.3281 53.8354C70.5205 53.7356 70.6715 53.5967 70.7811 53.4189C70.8932 53.2411 70.9504 53.0329 70.9529 52.7942C70.9504 52.5603 70.8944 52.3557 70.7848 52.1804C70.6776 52.005 70.5278 51.8698 70.3354 51.7748C70.143 51.6774 69.9201 51.6287 69.6668 51.6287C69.4086 51.6287 69.1821 51.6774 68.9873 51.7748C68.7949 51.8698 68.6451 52.005 68.5379 52.1804C68.4307 52.3557 68.3784 52.5603 68.3808 52.7942C68.3784 53.0329 68.4319 53.2411 68.5415 53.4189C68.6511 53.5967 68.8022 53.7356 68.9946 53.8354C69.1894 53.9353 69.4135 53.9852 69.6668 53.9852ZM74.1524 58.3585C73.9527 58.3585 73.781 58.2878 73.6373 58.1466C73.4936 58.0029 73.4217 57.8299 73.4217 57.6278C73.4217 57.428 73.4936 57.2576 73.6373 57.1163C73.781 56.9726 73.9527 56.9007 74.1524 56.9007C74.3522 56.9007 74.5239 56.9726 74.6676 57.1163C74.8113 57.2576 74.8831 57.428 74.8831 57.6278C74.8831 57.7617 74.849 57.8847 74.7808 57.9968C74.7151 58.1064 74.6274 58.1941 74.5178 58.2598C74.4082 58.3256 74.2864 58.3585 74.1524 58.3585ZM76.3464 60.3935V52.6773H77.4132V53.587H77.5045C77.5679 53.4701 77.6592 53.3349 77.7786 53.1814C77.8979 53.028 78.0635 52.894 78.2754 52.7796C78.4873 52.6626 78.7674 52.6042 79.1157 52.6042C79.5688 52.6042 79.9731 52.7187 80.3287 52.9476C80.6843 53.1766 80.9632 53.5066 81.1654 53.9377C81.37 54.3688 81.4723 54.8876 81.4723 55.4941C81.4723 56.1006 81.3712 56.6206 81.169 57.0542C80.9669 57.4853 80.6892 57.8178 80.336 58.0516C79.9828 58.283 79.5797 58.3987 79.1267 58.3987C78.7857 58.3987 78.5068 58.3414 78.29 58.227C78.0757 58.1125 77.9076 57.9785 77.7859 57.8251C77.6641 57.6716 77.5703 57.5352 77.5045 57.4159H77.4388V60.3935H76.3464ZM77.4169 55.4832C77.4169 55.8777 77.4741 56.2236 77.5886 56.5208C77.703 56.8179 77.8687 57.0505 78.0854 57.2186C78.3022 57.3842 78.5677 57.467 78.8819 57.467C79.2083 57.467 79.4811 57.3806 79.7003 57.2076C79.9195 57.0323 80.0851 56.7948 80.1972 56.4952C80.3117 56.1956 80.3689 55.8583 80.3689 55.4832C80.3689 55.1129 80.3129 54.7805 80.2008 54.4857C80.0912 54.191 79.9256 53.9584 79.704 53.7879C79.4847 53.6174 79.2107 53.5322 78.8819 53.5322C78.5653 53.5322 78.2974 53.6138 78.0781 53.777C77.8614 53.9402 77.697 54.1679 77.5849 54.4602C77.4729 54.7525 77.4169 55.0935 77.4169 55.4832ZM85.3158 52.6773V53.5541H82.2505V52.6773H85.3158ZM83.0725 51.3328H84.1649V56.6413C84.1649 56.8532 84.1966 57.0128 84.2599 57.1199C84.3232 57.2247 84.4048 57.2965 84.5047 57.3355C84.607 57.372 84.7178 57.3903 84.8371 57.3903C84.9248 57.3903 85.0016 57.3842 85.0673 57.372C85.1331 57.3599 85.1842 57.3501 85.2208 57.3428L85.4181 58.2452C85.3547 58.2696 85.2646 58.2939 85.1477 58.3183C85.0308 58.3451 84.8846 58.3597 84.7093 58.3621C84.4219 58.367 84.1539 58.3159 83.9055 58.2087C83.6571 58.1015 83.4561 57.9359 83.3027 57.7118C83.1492 57.4877 83.0725 57.2064 83.0725 56.8678V51.3328Z" fill="black"/>
<path d="M31.1816 76.4277V70.8159H32.2375V71.7074H32.2959C32.3982 71.4054 32.5785 71.1679 32.8367 70.995C33.0973 70.8196 33.392 70.7319 33.7208 70.7319C33.789 70.7319 33.8694 70.7343 33.962 70.7392C34.0569 70.7441 34.1312 70.7502 34.1848 70.7575V71.8024C34.141 71.7902 34.063 71.7768 33.951 71.7622C33.8389 71.7451 33.7269 71.7366 33.6149 71.7366C33.3567 71.7366 33.1265 71.7914 32.9244 71.901C32.7246 72.0082 32.5663 72.158 32.4494 72.3504C32.3325 72.5404 32.274 72.7572 32.274 73.0007V76.4277H31.1816ZM37.3478 76.541C36.7949 76.541 36.3188 76.4229 35.9193 76.1866C35.5223 75.9479 35.2154 75.613 34.9986 75.1819C34.7843 74.7483 34.6771 74.2405 34.6771 73.6584C34.6771 73.0835 34.7843 72.5769 34.9986 72.1385C35.2154 71.7001 35.5174 71.3579 35.9047 71.1119C36.2944 70.8659 36.7499 70.7429 37.2711 70.7429C37.5878 70.7429 37.8947 70.7952 38.1918 70.9C38.489 71.0047 38.7557 71.1691 38.9919 71.3932C39.2282 71.6173 39.4145 71.9083 39.5509 72.2664C39.6873 72.622 39.7555 73.0543 39.7555 73.5634V73.9506H35.2946V73.1323H38.685C38.685 72.8449 38.6266 72.5903 38.5097 72.3687C38.3928 72.1446 38.2283 71.968 38.0164 71.8389C37.807 71.7098 37.561 71.6453 37.2784 71.6453C36.9715 71.6453 36.7036 71.7208 36.4747 71.8718C36.2481 72.0204 36.0728 72.2152 35.9486 72.4564C35.8268 72.6951 35.7659 72.9545 35.7659 73.2346V73.8739C35.7659 74.249 35.8316 74.5681 35.9632 74.8311C36.0971 75.0942 36.2835 75.2951 36.5222 75.434C36.7609 75.5704 37.0397 75.6386 37.3588 75.6386C37.5658 75.6386 37.7546 75.6093 37.9251 75.5509C38.0956 75.49 38.243 75.3999 38.3672 75.2805C38.4914 75.1612 38.5864 75.0138 38.6522 74.8385L39.6861 75.0248C39.6033 75.3292 39.4547 75.5959 39.2404 75.8249C39.0285 76.0514 38.7618 76.228 38.4403 76.3547C38.1212 76.4789 37.757 76.541 37.3478 76.541ZM45.1728 72.186L44.1827 72.3614C44.1413 72.2347 44.0755 72.1141 43.9854 71.9997C43.8977 71.8852 43.7783 71.7914 43.6273 71.7183C43.4763 71.6453 43.2876 71.6087 43.061 71.6087C42.7517 71.6087 42.4935 71.6782 42.2865 71.817C42.0795 71.9534 41.9759 72.13 41.9759 72.3468C41.9759 72.5343 42.0454 72.6853 42.1842 72.7998C42.323 72.9143 42.5471 73.008 42.8564 73.0811L43.7479 73.2857C44.2643 73.4051 44.6491 73.589 44.9024 73.8374C45.1557 74.0858 45.2824 74.4086 45.2824 74.8056C45.2824 75.1417 45.185 75.4413 44.9901 75.7043C44.7977 75.965 44.5285 76.1696 44.1827 76.3181C43.8392 76.4667 43.441 76.541 42.988 76.541C42.3596 76.541 41.8469 76.407 41.4498 76.1391C41.0528 75.8687 40.8093 75.4851 40.7191 74.9882L41.775 74.8275C41.8408 75.1027 41.9759 75.311 42.1805 75.4522C42.3851 75.5911 42.6518 75.6605 42.9807 75.6605C43.3387 75.6605 43.6249 75.5862 43.8392 75.4376C44.0536 75.2866 44.1607 75.1027 44.1607 74.8859C44.1607 74.7106 44.095 74.5632 43.9635 74.4439C43.8344 74.3245 43.6359 74.2344 43.3679 74.1735L42.418 73.9653C41.8943 73.8459 41.5071 73.6559 41.2562 73.3953C41.0078 73.1347 40.8835 72.8047 40.8835 72.4052C40.8835 72.074 40.9761 71.7841 41.1612 71.5357C41.3463 71.2872 41.6021 71.0936 41.9284 70.9548C42.2548 70.8135 42.6287 70.7429 43.0501 70.7429C43.6566 70.7429 44.134 70.8744 44.4823 71.1374C44.8306 71.3981 45.0607 71.7476 45.1728 72.186ZM47.5759 73.0957V76.4277H46.4835V70.8159H47.532V71.7293H47.6014C47.7305 71.4322 47.9327 71.1935 48.2079 71.0132C48.4856 70.833 48.8351 70.7429 49.2565 70.7429C49.6389 70.7429 49.9738 70.8232 50.2612 70.984C50.5486 71.1423 50.7715 71.3786 50.9298 71.6928C51.0881 72.007 51.1673 72.3955 51.1673 72.8582V76.4277H50.0749V72.9898C50.0749 72.583 49.9689 72.2652 49.757 72.0362C49.5451 71.8048 49.2541 71.6891 48.8838 71.6891C48.6305 71.6891 48.4052 71.7439 48.2079 71.8535C48.0131 71.9631 47.8584 72.1239 47.7439 72.3358C47.6319 72.5453 47.5759 72.7986 47.5759 73.0957ZM55.051 76.541C54.4981 76.541 54.0219 76.4229 53.6224 76.1866C53.2254 75.9479 52.9185 75.613 52.7018 75.1819C52.4874 74.7483 52.3803 74.2405 52.3803 73.6584C52.3803 73.0835 52.4874 72.5769 52.7018 72.1385C52.9185 71.7001 53.2206 71.3579 53.6078 71.1119C53.9975 70.8659 54.453 70.7429 54.9743 70.7429C55.2909 70.7429 55.5978 70.7952 55.8949 70.9C56.1921 71.0047 56.4588 71.1691 56.6951 71.3932C56.9313 71.6173 57.1176 71.9083 57.254 72.2664C57.3904 72.622 57.4586 73.0543 57.4586 73.5634V73.9506H52.9977V73.1323H56.3882C56.3882 72.8449 56.3297 72.5903 56.2128 72.3687C56.0959 72.1446 55.9315 71.968 55.7196 71.8389C55.5101 71.7098 55.2641 71.6453 54.9816 71.6453C54.6747 71.6453 54.4067 71.7208 54.1778 71.8718C53.9513 72.0204 53.7759 72.2152 53.6517 72.4564C53.5299 72.6951 53.469 72.9545 53.469 73.2346V73.8739C53.469 74.249 53.5348 74.5681 53.6663 74.8311C53.8003 75.0942 53.9866 75.2951 54.2253 75.434C54.464 75.5704 54.7429 75.6386 55.0619 75.6386C55.269 75.6386 55.4577 75.6093 55.6282 75.5509C55.7987 75.49 55.9461 75.3999 56.0703 75.2805C56.1945 75.1612 56.2895 75.0138 56.3553 74.8385L57.3892 75.0248C57.3064 75.3292 57.1578 75.5959 56.9435 75.8249C56.7316 76.0514 56.4649 76.228 56.1434 76.3547C55.8243 76.4789 55.4602 76.541 55.051 76.541ZM61.2903 70.8159V71.6928H58.225V70.8159H61.2903ZM59.047 69.4714H60.1394V74.78C60.1394 74.9919 60.1711 75.1514 60.2344 75.2586C60.2977 75.3633 60.3793 75.4352 60.4792 75.4742C60.5815 75.5107 60.6923 75.529 60.8117 75.529C60.8993 75.529 60.9761 75.5229 61.0418 75.5107C61.1076 75.4985 61.1587 75.4888 61.1953 75.4815L61.3926 76.3839C61.3292 76.4082 61.2391 76.4326 61.1222 76.457C61.0053 76.4838 60.8592 76.4984 60.6838 76.5008C60.3964 76.5057 60.1285 76.4545 59.88 76.3474C59.6316 76.2402 59.4306 76.0746 59.2772 75.8505C59.1237 75.6264 59.047 75.3451 59.047 75.0065V69.4714ZM66.5066 76.4277V77.3557H61.7534V76.4277H66.5066ZM69.2321 68.843C69.5658 68.8455 69.8946 68.9064 70.2186 69.0257C70.5425 69.1451 70.8348 69.3399 71.0954 69.6103C71.3585 69.8806 71.5679 70.246 71.7238 70.7063C71.8821 71.1642 71.9625 71.7342 71.9649 72.4162C71.9649 73.0714 71.8992 73.6547 71.7676 74.1662C71.6361 74.6753 71.4474 75.1052 71.2014 75.4559C70.9578 75.8066 70.6618 76.0733 70.3135 76.256C69.9652 76.4387 69.5731 76.53 69.1371 76.53C68.6914 76.53 68.2956 76.4423 67.9497 76.267C67.6039 76.0916 67.3225 75.8493 67.1058 75.5399C66.889 75.2282 66.7538 74.8701 66.7002 74.4658H67.8145C67.8876 74.7873 68.0362 75.0479 68.2603 75.2476C68.4868 75.4449 68.7791 75.5436 69.1371 75.5436C69.6851 75.5436 70.1126 75.3049 70.4195 74.8275C70.7264 74.3477 70.8811 73.6779 70.8835 72.8181H70.825C70.6984 73.0275 70.5401 73.2078 70.3501 73.3588C70.1625 73.5098 69.9518 73.6267 69.718 73.7095C69.4842 73.7923 69.2345 73.8337 68.9691 73.8337C68.5379 73.8337 68.1458 73.7278 67.7926 73.5159C67.4394 73.304 67.1581 73.0129 66.9487 72.6427C66.7392 72.2725 66.6345 71.8499 66.6345 71.3749C66.6345 70.9024 66.7416 70.4737 66.956 70.0889C67.1727 69.704 67.4748 69.3996 67.862 69.1755C68.2517 68.949 68.7084 68.8382 69.2321 68.843ZM69.2358 69.7929C68.9508 69.7929 68.6938 69.8636 68.4649 70.0048C68.2383 70.1437 68.0593 70.3324 67.9278 70.5711C67.7963 70.8074 67.7305 71.0705 67.7305 71.3603C67.7305 71.6501 67.7938 71.9132 67.9205 72.1495C68.0496 72.3833 68.225 72.5696 68.4466 72.7085C68.6707 72.8449 68.9264 72.913 69.2138 72.913C69.4282 72.913 69.6279 72.8716 69.813 72.7888C69.9981 72.706 70.1601 72.5915 70.2989 72.4454C70.4378 72.2968 70.5462 72.1288 70.6241 71.9412C70.702 71.7537 70.741 71.5564 70.741 71.3493C70.741 71.0741 70.6752 70.8184 70.5437 70.5821C70.4146 70.3458 70.2368 70.1559 70.0103 70.0122C69.7838 69.866 69.5256 69.7929 69.2358 69.7929ZM73.7479 76.4972C73.5481 76.4972 73.3764 76.4265 73.2327 76.2852C73.089 76.1415 73.0172 75.9686 73.0172 75.7664C73.0172 75.5667 73.089 75.3962 73.2327 75.255C73.3764 75.1112 73.5481 75.0394 73.7479 75.0394C73.9476 75.0394 74.1193 75.1112 74.263 75.255C74.4067 75.3962 74.4786 75.5667 74.4786 75.7664C74.4786 75.9004 74.4445 76.0234 74.3763 76.1355C74.3105 76.2451 74.2228 76.3327 74.1132 76.3985C74.0036 76.4643 73.8818 76.4972 73.7479 76.4972ZM75.9418 78.5322V70.8159H77.0086V71.7257H77.1C77.1633 71.6087 77.2546 71.4736 77.374 71.3201C77.4933 71.1667 77.6589 71.0327 77.8709 70.9182C78.0828 70.8013 78.3629 70.7429 78.7112 70.7429C79.1642 70.7429 79.5685 70.8573 79.9241 71.0863C80.2797 71.3152 80.5586 71.6453 80.7608 72.0764C80.9654 72.5075 81.0677 73.0263 81.0677 73.6328C81.0677 74.2393 80.9666 74.7593 80.7644 75.1928C80.5623 75.624 80.2846 75.9564 79.9314 76.1903C79.5783 76.4216 79.1752 76.5373 78.7221 76.5373C78.3811 76.5373 78.1022 76.4801 77.8855 76.3656C77.6711 76.2511 77.5031 76.1172 77.3813 75.9637C77.2595 75.8103 77.1657 75.6739 77.1 75.5545H77.0342V78.5322H75.9418ZM77.0123 73.6218C77.0123 74.0164 77.0695 74.3623 77.184 74.6594C77.2985 74.9566 77.4641 75.1892 77.6809 75.3573C77.8976 75.5229 78.1631 75.6057 78.4773 75.6057C78.8037 75.6057 79.0765 75.5192 79.2957 75.3463C79.5149 75.1709 79.6806 74.9334 79.7926 74.6339C79.9071 74.3343 79.9643 73.9969 79.9643 73.6218C79.9643 73.2516 79.9083 72.9191 79.7963 72.6244C79.6866 72.3297 79.521 72.0971 79.2994 71.9266C79.0802 71.7561 78.8062 71.6709 78.4773 71.6709C78.1607 71.6709 77.8928 71.7524 77.6736 71.9156C77.4568 72.0788 77.2924 72.3066 77.1803 72.5988C77.0683 72.8911 77.0123 73.2321 77.0123 73.6218ZM84.9112 70.8159V71.6928H81.8459V70.8159H84.9112ZM82.6679 69.4714H83.7603V74.78C83.7603 74.9919 83.792 75.1514 83.8553 75.2586C83.9186 75.3633 84.0002 75.4352 84.1001 75.4742C84.2024 75.5107 84.3132 75.529 84.4326 75.529C84.5203 75.529 84.597 75.5229 84.6627 75.5107C84.7285 75.4985 84.7797 75.4888 84.8162 75.4815L85.0135 76.3839C84.9502 76.4082 84.86 76.4326 84.7431 76.457C84.6262 76.4838 84.4801 76.4984 84.3047 76.5008C84.0173 76.5057 83.7494 76.4545 83.5009 76.3474C83.2525 76.2402 83.0515 76.0746 82.8981 75.8505C82.7446 75.6264 82.6679 75.3451 82.6679 75.0065V69.4714Z" fill="black"/>
<path d="M24.5325 70.7935V75.9984C24.5325 76.6609 24.5325 76.9922 24.4036 77.2452C24.2902 77.4678 24.1092 77.6488 23.8867 77.7622C23.6336 77.8911 23.3023 77.8911 22.6398 77.8911H18.1447C17.4821 77.8911 17.1509 77.8911 16.8979 77.7622C16.6753 77.6488 16.4943 77.4678 16.3809 77.2452C16.252 76.9922 16.252 76.6609 16.252 75.9984V69.1373C16.252 68.4748 16.252 68.1436 16.3809 67.8905C16.4943 67.6679 16.6753 67.487 16.8979 67.3736C17.1509 67.2446 17.4822 67.2446 18.1447 67.2446H20.9837M24.5325 70.7935L20.9837 67.2446M24.5325 70.7935H21.5752C21.2485 70.7935 20.9837 70.5286 20.9837 70.202V67.2446" stroke="black" stroke-width="1.14655" stroke-linecap="round" stroke-linejoin="round"/>
<path d="M230.365 52.6553V57.8602C230.365 58.5227 230.365 58.854 230.236 59.107C230.122 59.3296 229.941 59.5106 229.719 59.624C229.466 59.7529 229.134 59.7529 228.472 59.7529H223.977C223.314 59.7529 222.983 59.7529 222.73 59.624C222.507 59.5106 222.326 59.3296 222.213 59.107C222.084 58.854 222.084 58.5227 222.084 57.8602V50.9992C222.084 50.3366 222.084 50.0054 222.213 49.7523C222.326 49.5298 222.507 49.3488 222.73 49.2354C222.983 49.1064 223.314 49.1064 223.977 49.1064H226.816M230.365 52.6553L226.816 49.1064M230.365 52.6553H227.407C227.081 52.6553 226.816 52.3905 226.816 52.0638V49.1064" stroke="black" stroke-width="1.14655" stroke-linecap="round" stroke-linejoin="round"/>
<path d="M239.633 52.6773V53.5541H236.568V52.6773H239.633ZM237.39 51.3328H238.482V56.6413C238.482 56.8532 238.514 57.0128 238.577 57.1199C238.641 57.2247 238.722 57.2965 238.822 57.3355C238.924 57.372 239.035 57.3903 239.155 57.3903C239.242 57.3903 239.319 57.3842 239.385 57.372C239.451 57.3599 239.502 57.3501 239.538 57.3428L239.736 58.2452C239.672 58.2696 239.582 58.2939 239.465 58.3183C239.348 58.3451 239.202 58.3597 239.027 58.3621C238.739 58.367 238.471 58.3159 238.223 58.2087C237.975 58.1015 237.774 57.9359 237.62 57.7118C237.467 57.4877 237.39 57.2064 237.39 56.8678V51.3328ZM243.2 58.4023C242.647 58.4023 242.171 58.2842 241.771 58.0479C241.374 57.8092 241.068 57.4743 240.851 57.0432C240.636 56.6097 240.529 56.1018 240.529 55.5197C240.529 54.9449 240.636 54.4383 240.851 53.9998C241.068 53.5614 241.37 53.2192 241.757 52.9732C242.147 52.7272 242.602 52.6042 243.123 52.6042C243.44 52.6042 243.747 52.6566 244.044 52.7613C244.341 52.866 244.608 53.0304 244.844 53.2545C245.08 53.4786 245.267 53.7697 245.403 54.1277C245.539 54.4833 245.608 54.9156 245.608 55.4247V55.812H241.147V54.9936H244.537C244.537 54.7062 244.479 54.4517 244.362 54.23C244.245 54.0059 244.08 53.8293 243.869 53.7002C243.659 53.5712 243.413 53.5066 243.131 53.5066C242.824 53.5066 242.556 53.5821 242.327 53.7331C242.1 53.8817 241.925 54.0766 241.801 54.3177C241.679 54.5564 241.618 54.8158 241.618 55.0959V55.7353C241.618 56.1103 241.684 56.4294 241.815 56.6925C241.949 56.9555 242.136 57.1565 242.374 57.2953C242.613 57.4317 242.892 57.4999 243.211 57.4999C243.418 57.4999 243.607 57.4707 243.777 57.4122C243.948 57.3513 244.095 57.2612 244.219 57.1419C244.344 57.0225 244.439 56.8752 244.504 56.6998L245.538 56.8861C245.455 57.1906 245.307 57.4573 245.092 57.6862C244.881 57.9128 244.614 58.0893 244.292 58.216C243.973 58.3402 243.609 58.4023 243.2 58.4023ZM251.025 54.0473L250.035 54.2227C249.993 54.096 249.928 53.9755 249.838 53.861C249.75 53.7465 249.63 53.6527 249.479 53.5797C249.328 53.5066 249.14 53.4701 248.913 53.4701C248.604 53.4701 248.346 53.5395 248.139 53.6783C247.932 53.8147 247.828 53.9913 247.828 54.2081C247.828 54.3956 247.897 54.5466 248.036 54.6611C248.175 54.7756 248.399 54.8694 248.709 54.9424L249.6 55.147C250.116 55.2664 250.501 55.4503 250.755 55.6987C251.008 55.9472 251.135 56.2699 251.135 56.6669C251.135 57.003 251.037 57.3026 250.842 57.5657C250.65 57.8263 250.381 58.0309 250.035 58.1795C249.691 58.328 249.293 58.4023 248.84 58.4023C248.212 58.4023 247.699 58.2684 247.302 58.0004C246.905 57.7301 246.661 57.3465 246.571 56.8496L247.627 56.6888C247.693 56.9641 247.828 57.1723 248.033 57.3136C248.237 57.4524 248.504 57.5218 248.833 57.5218C249.191 57.5218 249.477 57.4475 249.691 57.299C249.906 57.1479 250.013 56.9641 250.013 56.7473C250.013 56.5719 249.947 56.4246 249.816 56.3052C249.686 56.1859 249.488 56.0957 249.22 56.0348L248.27 55.8266C247.746 55.7072 247.359 55.5173 247.108 55.2566C246.86 54.996 246.736 54.666 246.736 54.2665C246.736 53.9353 246.828 53.6454 247.013 53.397C247.198 53.1486 247.454 52.9549 247.781 52.8161C248.107 52.6748 248.481 52.6042 248.902 52.6042C249.509 52.6042 249.986 52.7357 250.334 52.9988C250.683 53.2594 250.913 53.6089 251.025 54.0473ZM254.955 52.6773V53.5541H251.89V52.6773H254.955ZM252.712 51.3328H253.804V56.6413C253.804 56.8532 253.836 57.0128 253.899 57.1199C253.963 57.2247 254.044 57.2965 254.144 57.3355C254.246 57.372 254.357 57.3903 254.477 57.3903C254.564 57.3903 254.641 57.3842 254.707 57.372C254.772 57.3599 254.824 57.3501 254.86 57.3428L255.057 58.2452C254.994 58.2696 254.904 58.2939 254.787 58.3183C254.67 58.3451 254.524 58.3597 254.349 58.3621C254.061 58.367 253.793 58.3159 253.545 58.2087C253.296 58.1015 253.096 57.9359 252.942 57.7118C252.789 57.4877 252.712 57.2064 252.712 56.8678V51.3328ZM256.883 58.3585C256.684 58.3585 256.512 58.2878 256.368 58.1466C256.224 58.0029 256.153 57.8299 256.153 57.6278C256.153 57.428 256.224 57.2576 256.368 57.1163C256.512 56.9726 256.684 56.9007 256.883 56.9007C257.083 56.9007 257.255 56.9726 257.398 57.1163C257.542 57.2576 257.614 57.428 257.614 57.6278C257.614 57.7617 257.58 57.8847 257.512 57.9968C257.446 58.1064 257.358 58.1941 257.249 58.2598C257.139 58.3256 257.017 58.3585 256.883 58.3585ZM259.077 58.2891V52.6773H260.17V58.2891H259.077ZM259.629 51.8114C259.439 51.8114 259.276 51.748 259.139 51.6214C259.005 51.4923 258.938 51.3389 258.938 51.161C258.938 50.9808 259.005 50.8274 259.139 50.7007C259.276 50.5716 259.439 50.5071 259.629 50.5071C259.819 50.5071 259.981 50.5716 260.115 50.7007C260.251 50.8274 260.319 50.9808 260.319 51.161C260.319 51.3389 260.251 51.4923 260.115 51.6214C259.981 51.748 259.819 51.8114 259.629 51.8114ZM261.639 60.3935V52.6773H262.706V53.587H262.797C262.861 53.4701 262.952 53.3349 263.071 53.1814C263.191 53.028 263.356 52.894 263.568 52.7796C263.78 52.6626 264.06 52.6042 264.409 52.6042C264.862 52.6042 265.266 52.7187 265.622 52.9476C265.977 53.1766 266.256 53.5066 266.458 53.9377C266.663 54.3688 266.765 54.8876 266.765 55.4941C266.765 56.1006 266.664 56.6206 266.462 57.0542C266.26 57.4853 265.982 57.8178 265.629 58.0516C265.276 58.283 264.873 58.3987 264.42 58.3987C264.079 58.3987 263.8 58.3414 263.583 58.227C263.369 58.1125 263.201 57.9785 263.079 57.8251C262.957 57.6716 262.863 57.5352 262.797 57.4159H262.732V60.3935H261.639ZM262.71 55.4832C262.71 55.8777 262.767 56.2236 262.881 56.5208C262.996 56.8179 263.162 57.0505 263.378 57.2186C263.595 57.3842 263.861 57.467 264.175 57.467C264.501 57.467 264.774 57.3806 264.993 57.2076C265.212 57.0323 265.378 56.7948 265.49 56.4952C265.605 56.1956 265.662 55.8583 265.662 55.4832C265.662 55.1129 265.606 54.7805 265.494 54.4857C265.384 54.191 265.219 53.9584 264.997 53.7879C264.778 53.6174 264.504 53.5322 264.175 53.5322C263.858 53.5322 263.59 53.6138 263.371 53.777C263.154 53.9402 262.99 54.1679 262.878 54.4602C262.766 54.7525 262.71 55.0935 262.71 55.4832ZM268.489 60.3935C268.326 60.3935 268.177 60.3801 268.043 60.3533C267.909 60.3289 267.809 60.3022 267.743 60.2729L268.006 59.3778C268.206 59.4314 268.384 59.4545 268.54 59.4472C268.696 59.4399 268.833 59.3815 268.953 59.2719C269.074 59.1623 269.182 58.9832 269.274 58.7348L269.409 58.3621L267.356 52.6773H268.525L269.946 57.0323H270.005L271.426 52.6773H272.599L270.286 59.038C270.179 59.3303 270.043 59.5775 269.877 59.7797C269.711 59.9843 269.514 60.1377 269.285 60.24C269.056 60.3423 268.791 60.3935 268.489 60.3935ZM274.718 54.9571V58.2891H273.626V52.6773H274.674V53.5906H274.744C274.873 53.2935 275.075 53.0548 275.35 52.8745C275.628 52.6943 275.977 52.6042 276.399 52.6042C276.781 52.6042 277.116 52.6846 277.403 52.8453C277.691 53.0036 277.914 53.2399 278.072 53.5541C278.23 53.8683 278.309 54.2568 278.309 54.7196V58.2891H277.217V54.8511C277.217 54.4443 277.111 54.1265 276.899 53.8975C276.687 53.6661 276.396 53.5504 276.026 53.5504C275.773 53.5504 275.547 53.6053 275.35 53.7149C275.155 53.8245 275.001 53.9852 274.886 54.1971C274.774 54.4066 274.718 54.6599 274.718 54.9571ZM279.862 58.2891V50.8067H280.955V53.587H281.02C281.084 53.4701 281.175 53.3349 281.294 53.1814C281.414 53.028 281.579 52.894 281.791 52.7796C282.003 52.6626 282.283 52.6042 282.631 52.6042C283.085 52.6042 283.489 52.7187 283.844 52.9476C284.2 53.1766 284.479 53.5066 284.681 53.9377C284.886 54.3688 284.988 54.8876 284.988 55.4941C284.988 56.1006 284.887 56.6206 284.685 57.0542C284.483 57.4853 284.205 57.8178 283.852 58.0516C283.499 58.283 283.095 58.3987 282.642 58.3987C282.301 58.3987 282.023 58.3414 281.806 58.227C281.591 58.1125 281.423 57.9785 281.302 57.8251C281.18 57.6716 281.086 57.5352 281.02 57.4159H280.929V58.2891H279.862ZM280.933 55.4832C280.933 55.8777 280.99 56.2236 281.104 56.5208C281.219 56.8179 281.384 57.0505 281.601 57.2186C281.818 57.3842 282.083 57.467 282.398 57.467C282.724 57.467 282.997 57.3806 283.216 57.2076C283.435 57.0323 283.601 56.7948 283.713 56.4952C283.827 56.1956 283.885 55.8583 283.885 55.4832C283.885 55.1129 283.829 54.7805 283.717 54.4857C283.607 54.191 283.441 53.9584 283.22 53.7879C283 53.6174 282.726 53.5322 282.398 53.5322C282.081 53.5322 281.813 53.6138 281.594 53.777C281.377 53.9402 281.213 54.1679 281.101 54.4602C280.989 54.7525 280.933 55.0935 280.933 55.4832Z" fill="black"/>
<path d="M283.822 8V0.517594H286.489C287.071 0.517594 287.554 0.623546 287.936 0.83545C288.318 1.04735 288.604 1.3372 288.794 1.70499C288.984 2.07034 289.079 2.48197 289.079 2.93988C289.079 3.40022 288.983 3.81429 288.791 4.18207C288.601 4.54742 288.313 4.83727 287.929 5.05161C287.546 5.26351 287.065 5.36947 286.485 5.36947H284.651V4.41224H286.383C286.751 4.41224 287.049 4.34892 287.278 4.22226C287.507 4.09317 287.675 3.9178 287.782 3.69616C287.89 3.47451 287.943 3.22242 287.943 2.93988C287.943 2.65734 287.89 2.40646 287.782 2.18725C287.675 1.96804 287.506 1.79633 287.275 1.67211C287.046 1.54789 286.744 1.48578 286.369 1.48578H284.951V8H283.822ZM290.315 8V2.3882H291.371V3.27965H291.43C291.532 2.97763 291.712 2.74015 291.97 2.56722C292.231 2.39185 292.526 2.30416 292.854 2.30416C292.923 2.30416 293.003 2.3066 293.096 2.31147C293.191 2.31634 293.265 2.32243 293.318 2.32974V3.37465C293.275 3.36247 293.197 3.34907 293.085 3.33446C292.973 3.31741 292.861 3.30888 292.749 3.30888C292.49 3.30888 292.26 3.36368 292.058 3.47329C291.858 3.58046 291.7 3.73025 291.583 3.92267C291.466 4.11266 291.408 4.32943 291.408 4.573V8H290.315ZM296.427 8.11326C295.901 8.11326 295.441 7.99269 295.049 7.75156C294.657 7.51043 294.353 7.17309 294.136 6.73954C293.919 6.30599 293.811 5.79936 293.811 5.21967C293.811 4.63754 293.919 4.12849 294.136 3.6925C294.353 3.25651 294.657 2.91796 295.049 2.67682C295.441 2.43569 295.901 2.31513 296.427 2.31513C296.953 2.31513 297.412 2.43569 297.804 2.67682C298.196 2.91796 298.501 3.25651 298.717 3.6925C298.934 4.12849 299.043 4.63754 299.043 5.21967C299.043 5.79936 298.934 6.30599 298.717 6.73954C298.501 7.17309 298.196 7.51043 297.804 7.75156C297.412 7.99269 296.953 8.11326 296.427 8.11326ZM296.43 7.19623C296.771 7.19623 297.054 7.10611 297.278 6.92587C297.502 6.74563 297.668 6.50571 297.775 6.20612C297.884 5.90653 297.939 5.5765 297.939 5.21602C297.939 4.85797 297.884 4.52916 297.775 4.22957C297.668 3.92754 297.502 3.68519 297.278 3.50252C297.054 3.31984 296.771 3.2285 296.43 3.2285C296.087 3.2285 295.802 3.31984 295.575 3.50252C295.351 3.68519 295.184 3.92754 295.075 4.22957C294.968 4.52916 294.914 4.85797 294.914 5.21602C294.914 5.5765 294.968 5.90653 295.075 6.20612C295.184 6.50571 295.351 6.74563 295.575 6.92587C295.802 7.10611 296.087 7.19623 296.43 7.19623ZM300.262 2.3882H301.354V8.36535C301.354 8.74045 301.286 9.05708 301.15 9.31527C301.016 9.57345 300.816 9.76952 300.551 9.90348C300.288 10.0374 299.962 10.1044 299.575 10.1044C299.536 10.1044 299.5 10.1044 299.465 10.1044C299.429 10.1044 299.391 10.1032 299.352 10.1008V9.16182C299.386 9.16182 299.417 9.16182 299.444 9.16182C299.468 9.16182 299.496 9.16182 299.528 9.16182C299.786 9.16182 299.972 9.0924 300.087 8.95357C300.204 8.81717 300.262 8.61866 300.262 8.35804V2.3882ZM300.803 1.52231C300.613 1.52231 300.45 1.45898 300.313 1.33233C300.179 1.20324 300.112 1.04979 300.112 0.871985C300.112 0.691745 300.179 0.538297 300.313 0.411642C300.45 0.282551 300.613 0.218005 300.803 0.218005C300.993 0.218005 301.155 0.282551 301.289 0.411642C301.425 0.538297 301.493 0.691745 301.493 0.871985C301.493 1.04979 301.425 1.20324 301.289 1.33233C301.155 1.45898 300.993 1.52231 300.803 1.52231ZM305.243 8.11326C304.69 8.11326 304.214 7.99513 303.814 7.75887C303.417 7.52017 303.11 7.18527 302.893 6.75415C302.679 6.3206 302.572 5.81276 302.572 5.23063C302.572 4.65581 302.679 4.14919 302.893 3.71077C303.11 3.27235 303.412 2.93013 303.799 2.68413C304.189 2.43813 304.645 2.31513 305.166 2.31513C305.483 2.31513 305.789 2.36749 306.087 2.47223C306.384 2.57696 306.65 2.74137 306.887 2.96545C307.123 3.18953 307.309 3.4806 307.446 3.83864C307.582 4.19425 307.65 4.62658 307.65 5.13564V5.52291H303.189V4.70453H306.58C306.58 4.41712 306.521 4.16259 306.404 3.94094C306.288 3.71686 306.123 3.54027 305.911 3.41118C305.702 3.28209 305.456 3.21754 305.173 3.21754C304.866 3.21754 304.598 3.29305 304.369 3.44406C304.143 3.59264 303.968 3.78749 303.843 4.02863C303.722 4.26732 303.661 4.52672 303.661 4.80682V5.44619C303.661 5.82129 303.726 6.14036 303.858 6.40341C303.992 6.66647 304.178 6.86741 304.417 7.00624C304.656 7.14264 304.935 7.21084 305.254 7.21084C305.461 7.21084 305.649 7.18161 305.82 7.12316C305.99 7.06226 306.138 6.97214 306.262 6.8528C306.386 6.73345 306.481 6.58609 306.547 6.41072L307.581 6.59705C307.498 6.90151 307.349 7.16822 307.135 7.39717C306.923 7.62369 306.657 7.80027 306.335 7.92693C306.016 8.05115 305.652 8.11326 305.243 8.11326ZM311.226 8.11326C310.683 8.11326 310.215 7.99026 309.823 7.74425C309.434 7.49581 309.134 7.1536 308.924 6.71761C308.715 6.28163 308.61 5.78231 308.61 5.21967C308.61 4.64972 308.717 4.14676 308.932 3.71077C309.146 3.27235 309.448 2.93013 309.838 2.68413C310.228 2.43813 310.687 2.31513 311.215 2.31513C311.641 2.31513 312.021 2.39428 312.355 2.5526C312.689 2.70849 312.958 2.9277 313.163 3.21024C313.37 3.49278 313.493 3.82281 313.532 4.20034H312.468C312.41 3.93729 312.276 3.71077 312.066 3.52079C311.859 3.3308 311.582 3.23581 311.233 3.23581C310.929 3.23581 310.662 3.31619 310.433 3.47694C310.207 3.63526 310.03 3.86178 309.904 4.1565C309.777 4.44878 309.714 4.79465 309.714 5.1941C309.714 5.60329 309.776 5.95647 309.9 6.25362C310.024 6.55077 310.2 6.78094 310.426 6.94413C310.655 7.10732 310.924 7.18892 311.233 7.18892C311.441 7.18892 311.628 7.15117 311.796 7.07566C311.967 6.99772 312.109 6.88689 312.224 6.74319C312.34 6.59948 312.422 6.42655 312.468 6.22439H313.532C313.493 6.58731 313.374 6.91125 313.177 7.19623C312.98 7.4812 312.716 7.70528 312.384 7.86847C312.056 8.03166 311.669 8.11326 311.226 8.11326ZM317.319 2.3882V3.26504H314.254V2.3882H317.319ZM315.076 1.0437H316.168V6.35226C316.168 6.56417 316.2 6.7237 316.263 6.83087C316.327 6.93561 316.408 7.00746 316.508 7.04643C316.611 7.08297 316.721 7.10123 316.841 7.10123C316.928 7.10123 317.005 7.09515 317.071 7.08297C317.137 7.07079 317.188 7.06105 317.224 7.05374L317.422 7.95616C317.358 7.98051 317.268 8.00487 317.151 8.02923C317.034 8.05602 316.888 8.07063 316.713 8.07307C316.425 8.07794 316.158 8.02679 315.909 7.91962C315.661 7.81245 315.46 7.64683 315.306 7.42274C315.153 7.19866 315.076 6.91734 315.076 6.57878V1.0437ZM318.513 8V7.18161L321.045 4.55839C321.315 4.27341 321.538 4.02375 321.714 3.80941C321.891 3.59264 322.024 3.38682 322.112 3.19197C322.2 2.99712 322.243 2.79008 322.243 2.57087C322.243 2.32243 322.185 2.10809 322.068 1.92785C321.951 1.74518 321.792 1.60512 321.589 1.5077C321.387 1.40783 321.159 1.3579 320.906 1.3579C320.638 1.3579 320.404 1.41271 320.205 1.52231C320.005 1.63192 319.852 1.78658 319.744 1.98631C319.637 2.18603 319.584 2.41986 319.584 2.68778H318.506C318.506 2.23231 318.611 1.83408 318.82 1.49308C319.029 1.15209 319.317 0.887817 319.682 0.70027C320.048 0.510287 320.463 0.415295 320.928 0.415295C321.398 0.415295 321.812 0.509069 322.17 0.696616C322.531 0.881728 322.812 1.13504 323.014 1.45655C323.216 1.77562 323.317 2.1361 323.317 2.53799C323.317 2.81566 323.265 3.08724 323.16 3.35272C323.058 3.61821 322.879 3.91415 322.623 4.24053C322.368 4.56447 322.012 4.95784 321.556 5.42062L320.07 6.97701V7.03182H323.438V8H318.513Z" fill="black"/>
<path d="M261.318 70.7935C261.318 70.249 260.876 69.8077 260.332 69.8077C259.788 69.8077 259.346 70.249 259.346 70.7935L261.318 70.7935ZM259.635 120.385C260.02 120.77 260.644 120.77 261.029 120.385L267.303 114.112C267.688 113.727 267.688 113.103 267.303 112.718C266.918 112.333 266.293 112.333 265.908 112.718L260.332 118.294L254.756 112.718C254.371 112.333 253.746 112.333 253.361 112.718C252.977 113.103 252.977 113.727 253.361 114.112L259.635 120.385ZM259.346 70.7935L259.346 119.688L261.318 119.688L261.318 70.7935L259.346 70.7935Z" fill="#4A4A4A"/>
<path d="M208.948 134.856C208.749 134.856 208.577 134.785 208.433 134.644C208.289 134.5 208.218 134.327 208.218 134.125C208.218 133.925 208.289 133.755 208.433 133.613C208.577 133.47 208.749 133.398 208.948 133.398C209.148 133.398 209.32 133.47 209.463 133.613C209.607 133.755 209.679 133.925 209.679 134.125C209.679 134.259 209.645 134.382 209.577 134.494C209.511 134.603 209.423 134.691 209.314 134.757C209.204 134.823 209.082 134.856 208.948 134.856ZM211.862 134.856C211.662 134.856 211.49 134.785 211.347 134.644C211.203 134.5 211.131 134.327 211.131 134.125C211.131 133.925 211.203 133.755 211.347 133.613C211.49 133.47 211.662 133.398 211.862 133.398C212.062 133.398 212.233 133.47 212.377 133.613C212.521 133.755 212.593 133.925 212.593 134.125C212.593 134.259 212.559 134.382 212.49 134.494C212.425 134.603 212.337 134.691 212.227 134.757C212.118 134.823 211.996 134.856 211.862 134.856ZM216.906 126.953L214.494 135.911H213.519L215.93 126.953H216.906ZM217.921 134.786V127.304H220.588C221.17 127.304 221.653 127.41 222.035 127.622C222.418 127.833 222.704 128.123 222.894 128.491C223.084 128.856 223.179 129.268 223.179 129.726C223.179 130.186 223.082 130.6 222.89 130.968C222.7 131.334 222.413 131.623 222.028 131.838C221.645 132.05 221.164 132.156 220.585 132.156H218.751V131.198H220.482C220.85 131.198 221.149 131.135 221.378 131.008C221.606 130.879 221.775 130.704 221.882 130.482C221.989 130.261 222.042 130.009 222.042 129.726C222.042 129.443 221.989 129.193 221.882 128.973C221.775 128.754 221.605 128.582 221.374 128.458C221.145 128.334 220.843 128.272 220.468 128.272H219.05V134.786H217.921ZM224.414 134.786V129.174H225.47V130.066H225.529C225.631 129.764 225.811 129.526 226.07 129.353C226.33 129.178 226.625 129.09 226.954 129.09C227.022 129.09 227.102 129.093 227.195 129.098C227.29 129.102 227.364 129.109 227.418 129.116V130.161C227.374 130.149 227.296 130.135 227.184 130.121C227.072 130.104 226.96 130.095 226.848 130.095C226.59 130.095 226.359 130.15 226.157 130.259C225.958 130.367 225.799 130.516 225.682 130.709C225.565 130.899 225.507 131.116 225.507 131.359V134.786H224.414ZM230.526 134.899C230 134.899 229.541 134.779 229.149 134.538C228.756 134.297 228.452 133.959 228.235 133.526C228.018 133.092 227.91 132.585 227.91 132.006C227.91 131.424 228.018 130.915 228.235 130.479C228.452 130.043 228.756 129.704 229.149 129.463C229.541 129.222 230 129.101 230.526 129.101C231.052 129.101 231.511 129.222 231.903 129.463C232.295 129.704 232.6 130.043 232.817 130.479C233.033 130.915 233.142 131.424 233.142 132.006C233.142 132.585 233.033 133.092 232.817 133.526C232.6 133.959 232.295 134.297 231.903 134.538C231.511 134.779 231.052 134.899 230.526 134.899ZM230.53 133.982C230.871 133.982 231.153 133.892 231.377 133.712C231.601 133.532 231.767 133.292 231.874 132.992C231.984 132.693 232.038 132.363 232.038 132.002C232.038 131.644 231.984 131.315 231.874 131.016C231.767 130.714 231.601 130.471 231.377 130.289C231.153 130.106 230.871 130.015 230.53 130.015C230.186 130.015 229.901 130.106 229.675 130.289C229.451 130.471 229.284 130.714 229.174 131.016C229.067 131.315 229.013 131.644 229.013 132.002C229.013 132.363 229.067 132.693 229.174 132.992C229.284 133.292 229.451 133.532 229.675 133.712C229.901 133.892 230.186 133.982 230.53 133.982ZM234.361 129.174H235.454V135.151C235.454 135.527 235.385 135.843 235.249 136.101C235.115 136.36 234.915 136.556 234.65 136.69C234.387 136.824 234.062 136.891 233.674 136.891C233.635 136.891 233.599 136.891 233.565 136.891C233.528 136.891 233.49 136.889 233.451 136.887V135.948C233.486 135.948 233.516 135.948 233.543 135.948C233.567 135.948 233.595 135.948 233.627 135.948C233.885 135.948 234.071 135.879 234.186 135.74C234.303 135.603 234.361 135.405 234.361 135.144V129.174ZM234.902 128.308C234.712 128.308 234.549 128.245 234.412 128.118C234.278 127.989 234.211 127.836 234.211 127.658C234.211 127.478 234.278 127.324 234.412 127.198C234.549 127.069 234.712 127.004 234.902 127.004C235.092 127.004 235.254 127.069 235.388 127.198C235.524 127.324 235.592 127.478 235.592 127.658C235.592 127.836 235.524 127.989 235.388 128.118C235.254 128.245 235.092 128.308 234.902 128.308ZM239.342 134.899C238.789 134.899 238.313 134.781 237.913 134.545C237.516 134.306 237.209 133.971 236.993 133.54C236.778 133.107 236.671 132.599 236.671 132.017C236.671 131.442 236.778 130.935 236.993 130.497C237.209 130.058 237.511 129.716 237.899 129.47C238.288 129.224 238.744 129.101 239.265 129.101C239.582 129.101 239.889 129.154 240.186 129.258C240.483 129.363 240.75 129.528 240.986 129.752C241.222 129.976 241.409 130.267 241.545 130.625C241.681 130.98 241.75 131.413 241.75 131.922V132.309H237.289V131.491H240.679C240.679 131.203 240.621 130.949 240.504 130.727C240.387 130.503 240.222 130.326 240.01 130.197C239.801 130.068 239.555 130.004 239.272 130.004C238.966 130.004 238.698 130.079 238.469 130.23C238.242 130.379 238.067 130.574 237.943 130.815C237.821 131.053 237.76 131.313 237.76 131.593V132.232C237.76 132.607 237.826 132.926 237.957 133.19C238.091 133.453 238.277 133.654 238.516 133.792C238.755 133.929 239.034 133.997 239.353 133.997C239.56 133.997 239.749 133.968 239.919 133.909C240.09 133.848 240.237 133.758 240.361 133.639C240.485 133.52 240.58 133.372 240.646 133.197L241.68 133.383C241.597 133.688 241.449 133.954 241.234 134.183C241.022 134.41 240.756 134.586 240.434 134.713C240.115 134.837 239.751 134.899 239.342 134.899ZM245.325 134.899C244.782 134.899 244.315 134.776 243.922 134.53C243.533 134.282 243.233 133.94 243.024 133.504C242.814 133.068 242.709 132.568 242.709 132.006C242.709 131.436 242.817 130.933 243.031 130.497C243.245 130.058 243.547 129.716 243.937 129.47C244.327 129.224 244.786 129.101 245.314 129.101C245.741 129.101 246.121 129.18 246.454 129.339C246.788 129.495 247.057 129.714 247.262 129.996C247.469 130.279 247.592 130.609 247.631 130.986H246.568C246.509 130.723 246.375 130.497 246.166 130.307C245.959 130.117 245.681 130.022 245.333 130.022C245.028 130.022 244.762 130.102 244.533 130.263C244.306 130.421 244.129 130.648 244.003 130.943C243.876 131.235 243.813 131.581 243.813 131.98C243.813 132.389 243.875 132.743 243.999 133.04C244.123 133.337 244.299 133.567 244.525 133.73C244.754 133.893 245.023 133.975 245.333 133.975C245.54 133.975 245.727 133.937 245.895 133.862C246.066 133.784 246.208 133.673 246.323 133.529C246.44 133.386 246.521 133.213 246.568 133.011H247.631C247.592 133.373 247.474 133.697 247.276 133.982C247.079 134.267 246.815 134.491 246.484 134.655C246.155 134.818 245.769 134.899 245.325 134.899ZM251.419 129.174V130.051H248.353V129.174H251.419ZM249.175 127.83H250.268V133.138C250.268 133.35 250.299 133.51 250.363 133.617C250.426 133.722 250.508 133.794 250.607 133.833C250.71 133.869 250.821 133.887 250.94 133.887C251.028 133.887 251.104 133.881 251.17 133.869C251.236 133.857 251.287 133.847 251.324 133.84L251.521 134.742C251.458 134.767 251.367 134.791 251.251 134.815C251.134 134.842 250.987 134.857 250.812 134.859C250.525 134.864 250.257 134.813 250.008 134.706C249.76 134.599 249.559 134.433 249.405 134.209C249.252 133.985 249.175 133.703 249.175 133.365V127.83ZM255.451 127.304V134.786H254.319V128.436H254.275L252.484 129.605V128.524L254.351 127.304H255.451ZM260.34 126.953L257.928 135.911H256.953L259.364 126.953H260.34ZM261.268 134.786V129.174H262.323V130.066H262.382C262.484 129.764 262.664 129.526 262.923 129.353C263.183 129.178 263.478 129.09 263.807 129.09C263.875 129.09 263.955 129.093 264.048 129.098C264.143 129.102 264.217 129.109 264.271 129.116V130.161C264.227 130.149 264.149 130.135 264.037 130.121C263.925 130.104 263.813 130.095 263.701 130.095C263.443 130.095 263.212 130.15 263.01 130.259C262.811 130.367 262.652 130.516 262.535 130.709C262.418 130.899 262.36 131.116 262.36 131.359V134.786H261.268ZM267.434 134.899C266.881 134.899 266.405 134.781 266.005 134.545C265.608 134.306 265.301 133.971 265.085 133.54C264.87 133.107 264.763 132.599 264.763 132.017C264.763 131.442 264.87 130.935 265.085 130.497C265.301 130.058 265.603 129.716 265.991 129.47C266.38 129.224 266.836 129.101 267.357 129.101C267.674 129.101 267.981 129.154 268.278 129.258C268.575 129.363 268.842 129.528 269.078 129.752C269.314 129.976 269.5 130.267 269.637 130.625C269.773 130.98 269.841 131.413 269.841 131.922V132.309H265.38V131.491H268.771C268.771 131.203 268.712 130.949 268.596 130.727C268.479 130.503 268.314 130.326 268.102 130.197C267.893 130.068 267.647 130.004 267.364 130.004C267.057 130.004 266.79 130.079 266.561 130.23C266.334 130.379 266.159 130.574 266.034 130.815C265.913 131.053 265.852 131.313 265.852 131.593V132.232C265.852 132.607 265.918 132.926 266.049 133.19C266.183 133.453 266.369 133.654 266.608 133.792C266.847 133.929 267.126 133.997 267.445 133.997C267.652 133.997 267.841 133.968 268.011 133.909C268.182 133.848 268.329 133.758 268.453 133.639C268.577 133.52 268.672 133.372 268.738 133.197L269.772 133.383C269.689 133.688 269.541 133.954 269.326 134.183C269.114 134.41 268.848 134.586 268.526 134.713C268.207 134.837 267.843 134.899 267.434 134.899ZM275.259 130.544L274.269 130.72C274.227 130.593 274.161 130.473 274.071 130.358C273.984 130.244 273.864 130.15 273.713 130.077C273.562 130.004 273.373 129.967 273.147 129.967C272.838 129.967 272.579 130.037 272.372 130.175C272.165 130.312 272.062 130.488 272.062 130.705C272.062 130.893 272.131 131.044 272.27 131.158C272.409 131.273 272.633 131.366 272.942 131.44L273.834 131.644C274.35 131.763 274.735 131.947 274.988 132.196C275.242 132.444 275.368 132.767 275.368 133.164C275.368 133.5 275.271 133.8 275.076 134.063C274.884 134.323 274.614 134.528 274.269 134.677C273.925 134.825 273.527 134.899 273.074 134.899C272.445 134.899 271.933 134.765 271.536 134.498C271.139 134.227 270.895 133.844 270.805 133.347L271.861 133.186C271.927 133.461 272.062 133.669 272.266 133.811C272.471 133.949 272.738 134.019 273.067 134.019C273.425 134.019 273.711 133.945 273.925 133.796C274.139 133.645 274.247 133.461 274.247 133.244C274.247 133.069 274.181 132.922 274.049 132.802C273.92 132.683 273.722 132.593 273.454 132.532L272.504 132.324C271.98 132.204 271.593 132.014 271.342 131.754C271.094 131.493 270.969 131.163 270.969 130.764C270.969 130.432 271.062 130.143 271.247 129.894C271.432 129.646 271.688 129.452 272.014 129.313C272.341 129.172 272.715 129.101 273.136 129.101C273.742 129.101 274.22 129.233 274.568 129.496C274.916 129.756 275.147 130.106 275.259 130.544ZM277.662 131.454V134.786H276.569V129.174H277.618V130.088H277.687C277.816 129.791 278.019 129.552 278.294 129.372C278.572 129.191 278.921 129.101 279.342 129.101C279.725 129.101 280.06 129.182 280.347 129.342C280.635 129.501 280.857 129.737 281.016 130.051C281.174 130.365 281.253 130.754 281.253 131.217V134.786H280.161V131.348C280.161 130.941 280.055 130.624 279.843 130.395C279.631 130.163 279.34 130.048 278.97 130.048C278.716 130.048 278.491 130.102 278.294 130.212C278.099 130.322 277.944 130.482 277.83 130.694C277.718 130.904 277.662 131.157 277.662 131.454ZM285.137 134.899C284.584 134.899 284.108 134.781 283.708 134.545C283.311 134.306 283.004 133.971 282.788 133.54C282.573 133.107 282.466 132.599 282.466 132.017C282.466 131.442 282.573 130.935 282.788 130.497C283.004 130.058 283.306 129.716 283.694 129.47C284.083 129.224 284.539 129.101 285.06 129.101C285.377 129.101 285.684 129.154 285.981 129.258C286.278 129.363 286.545 129.528 286.781 129.752C287.017 129.976 287.204 130.267 287.34 130.625C287.476 130.98 287.545 131.413 287.545 131.922V132.309H283.084V131.491H286.474C286.474 131.203 286.416 130.949 286.299 130.727C286.182 130.503 286.017 130.326 285.805 130.197C285.596 130.068 285.35 130.004 285.067 130.004C284.761 130.004 284.493 130.079 284.264 130.23C284.037 130.379 283.862 130.574 283.738 130.815C283.616 131.053 283.555 131.313 283.555 131.593V132.232C283.555 132.607 283.621 132.926 283.752 133.19C283.886 133.453 284.072 133.654 284.311 133.792C284.55 133.929 284.829 133.997 285.148 133.997C285.355 133.997 285.544 133.968 285.714 133.909C285.885 133.848 286.032 133.758 286.156 133.639C286.28 133.52 286.375 133.372 286.441 133.197L287.475 133.383C287.392 133.688 287.244 133.954 287.029 134.183C286.818 134.41 286.551 134.586 286.229 134.713C285.91 134.837 285.546 134.899 285.137 134.899ZM291.376 129.174V130.051H288.311V129.174H291.376ZM289.133 127.83H290.225V133.138C290.225 133.35 290.257 133.51 290.32 133.617C290.384 133.722 290.465 133.794 290.565 133.833C290.667 133.869 290.778 133.887 290.898 133.887C290.985 133.887 291.062 133.881 291.128 133.869C291.194 133.857 291.245 133.847 291.281 133.84L291.478 134.742C291.415 134.767 291.325 134.791 291.208 134.815C291.091 134.842 290.945 134.857 290.77 134.859C290.482 134.864 290.214 134.813 289.966 134.706C289.717 134.599 289.517 134.433 289.363 134.209C289.21 133.985 289.133 133.703 289.133 133.365V127.83ZM296.592 134.786V135.714H291.839V134.786H296.592ZM297.554 134.786L300.821 128.327V128.272H297.043V127.304H301.99V128.305L298.734 134.786H297.554ZM302.708 134.856C302.509 134.856 302.337 134.785 302.193 134.644C302.05 134.5 301.978 134.327 301.978 134.125C301.978 133.925 302.05 133.755 302.193 133.613C302.337 133.47 302.509 133.398 302.708 133.398C302.908 133.398 303.08 133.47 303.224 133.613C303.367 133.755 303.439 133.925 303.439 134.125C303.439 134.259 303.405 134.382 303.337 134.494C303.271 134.603 303.183 134.691 303.074 134.757C302.964 134.823 302.842 134.856 302.708 134.856ZM304.902 136.891V129.174H305.969V130.084H306.061C306.124 129.967 306.215 129.832 306.335 129.679C306.454 129.525 306.62 129.391 306.831 129.277C307.043 129.16 307.323 129.101 307.672 129.101C308.125 129.101 308.529 129.216 308.885 129.445C309.24 129.674 309.519 130.004 309.721 130.435C309.926 130.866 310.028 131.385 310.028 131.991C310.028 132.598 309.927 133.118 309.725 133.551C309.523 133.982 309.245 134.315 308.892 134.549C308.539 134.78 308.136 134.896 307.683 134.896C307.342 134.896 307.063 134.838 306.846 134.724C306.632 134.61 306.464 134.476 306.342 134.322C306.22 134.169 306.126 134.032 306.061 133.913H305.995V136.891H304.902ZM305.973 131.98C305.973 132.375 306.03 132.721 306.145 133.018C306.259 133.315 306.425 133.548 306.642 133.716C306.858 133.881 307.124 133.964 307.438 133.964C307.764 133.964 308.037 133.878 308.256 133.705C308.476 133.529 308.641 133.292 308.753 132.992C308.868 132.693 308.925 132.355 308.925 131.98C308.925 131.61 308.869 131.278 308.757 130.983C308.647 130.688 308.482 130.455 308.26 130.285C308.041 130.115 307.767 130.029 307.438 130.029C307.121 130.029 306.853 130.111 306.634 130.274C306.417 130.437 306.253 130.665 306.141 130.957C306.029 131.25 305.973 131.591 305.973 131.98ZM313.872 129.174V130.051H310.807V129.174H313.872ZM311.629 127.83H312.721V133.138C312.721 133.35 312.753 133.51 312.816 133.617C312.879 133.722 312.961 133.794 313.061 133.833C313.163 133.869 313.274 133.887 313.393 133.887C313.481 133.887 313.558 133.881 313.623 133.869C313.689 133.857 313.74 133.847 313.777 133.84L313.974 134.742C313.911 134.767 313.821 134.791 313.704 134.815C313.587 134.842 313.441 134.857 313.265 134.859C312.978 134.864 312.71 134.813 312.462 134.706C312.213 134.599 312.012 134.433 311.859 134.209C311.705 133.985 311.629 133.703 311.629 133.365V127.83Z" fill="black"/>
</g>
<defs>
<filter id="filter0_d_2188_1751" x="0" y="0.217773" width="331.002" height="144.673" filterUnits="userSpaceOnUse" color-interpolation-filters="sRGB">
<feFlood flood-opacity="0" result="BackgroundImageFix"/>
<feColorMatrix in="SourceAlpha" type="matrix" values="0 0 0 0 0 0 0 0 0 0 0 0 0 0 0 0 0 0 127 0" result="hardAlpha"/>
<feOffset dy="4"/>
<feGaussianBlur stdDeviation="2"/>
<feComposite in2="hardAlpha" operator="out"/>
<feColorMatrix type="matrix" values="0 0 0 0 0 0 0 0 0 0 0 0 0 0 0 0 0 0 0.25 0"/>
<feBlend mode="normal" in2="BackgroundImageFix" result="effect1_dropShadow_2188_1751"/>
<feBlend mode="normal" in="SourceGraphic" in2="effect1_dropShadow_2188_1751" result="shape"/>
</filter>
</defs>
</svg>
