<svg width="257" height="174" viewBox="0 0 257 174" fill="none" xmlns="http://www.w3.org/2000/svg">
<path d="M124.299 17.2322C123.323 16.2559 121.74 16.2559 120.763 17.2322L104.854 33.1421C103.877 34.1184 103.877 35.7014 104.854 36.6777C105.83 37.654 107.413 37.654 108.389 36.6777L122.531 22.5355L136.673 36.6777C137.65 37.654 139.233 37.654 140.209 36.6777C141.185 35.7014 141.185 34.1184 140.209 33.1421L124.299 17.2322ZM125.031 164L125.031 19L120.031 19L120.031 164L125.031 164Z" fill="black"/>
<path d="M227.562 60.9998C227.562 59.6191 226.442 58.4998 225.062 58.4998L202.562 58.4998C201.181 58.4998 200.062 59.6191 200.062 60.9998C200.062 62.3805 201.181 63.4998 202.562 63.4998L222.562 63.4998L222.562 83.4998C222.562 84.8805 223.681 85.9998 225.062 85.9998C226.442 85.9998 227.562 84.8805 227.562 83.4998L227.562 60.9998ZM124.299 165.298L226.829 62.7676L223.294 59.232L120.763 161.763L124.299 165.298Z" fill="#848484"/>
<path d="M180.33 29.0432C179.802 27.7675 178.339 27.1618 177.064 27.6902L156.276 36.3005C155.001 36.8289 154.395 38.2913 154.923 39.567C155.452 40.8426 156.914 41.4483 158.19 40.9199L176.667 33.2663L184.321 51.7439C184.849 53.0195 186.312 53.6252 187.587 53.0969C188.863 52.5685 189.469 51.1061 188.94 49.8304L180.33 29.0432ZM124.841 164.919L180.33 30.9566L175.711 29.0432L120.222 163.006L124.841 164.919Z" fill="#666666"/>
<path d="M65.2207 29.0432C65.7491 27.7675 67.2115 27.1618 68.4871 27.6902L89.2744 36.3005C90.55 36.8289 91.1558 38.2913 90.6274 39.567C90.099 40.8426 88.6366 41.4483 87.361 40.9199L68.8834 33.2663L61.2298 51.7439C60.7014 53.0195 59.239 53.6252 57.9633 53.0969C56.6877 52.5685 56.082 51.1061 56.6104 49.8304L65.2207 29.0432ZM120.71 164.919L65.2207 30.9566L69.8401 29.0432L125.329 163.006L120.71 164.919Z" fill="#666666"/>
<path d="M20.0008 58.9695C18.6201 58.9695 17.5008 60.0888 17.5008 61.4695L17.5008 83.9695C17.5008 85.3502 18.6201 86.4695 20.0008 86.4695C21.3815 86.4695 22.5008 85.3502 22.5008 83.9695L22.5008 63.9695L42.5008 63.9695C43.8815 63.9695 45.0008 62.8502 45.0008 61.4695C45.0008 60.0888 43.8815 58.9695 42.5008 58.9695L20.0008 58.9695ZM124.299 162.232L21.7685 59.7018L18.233 63.2373L120.763 165.768L124.299 162.232Z" fill="#848484"/>
<circle cx="123" cy="156" r="18" fill="black"/>
<path d="M2.08226 42.4711V51H0.837068V42.4711H2.08226ZM6.51434 51.1291C5.88411 51.1291 5.34134 50.9944 4.88602 50.7251C4.43347 50.4531 4.08365 50.0713 3.83656 49.5799C3.59224 49.0857 3.47008 48.5068 3.47008 47.8433C3.47008 47.1881 3.59224 46.6106 3.83656 46.1109C4.08365 45.6111 4.42792 45.221 4.86936 44.9406C5.31357 44.6602 5.83275 44.52 6.42689 44.52C6.78781 44.52 7.13763 44.5797 7.47635 44.6991C7.81506 44.8185 8.11907 45.0059 8.38837 45.2613C8.65768 45.5167 8.87007 45.8485 9.02555 46.2566C9.18102 46.662 9.25876 47.1548 9.25876 47.735V48.1765H4.17389V47.2436H8.03856C8.03856 46.916 7.97192 46.6259 7.83866 46.3732C7.70539 46.1178 7.51799 45.9165 7.27645 45.7694C7.03768 45.6222 6.75727 45.5487 6.43522 45.5487C6.0854 45.5487 5.78 45.6347 5.51902 45.8068C5.26082 45.9762 5.06093 46.1983 4.91933 46.4732C4.78052 46.7453 4.71111 47.0409 4.71111 47.3602V48.089C4.71111 48.5166 4.78607 48.8803 4.93599 49.1801C5.08869 49.48 5.30108 49.709 5.57316 49.8673C5.84524 50.0227 6.16314 50.1005 6.52684 50.1005C6.76283 50.1005 6.97799 50.0671 7.17234 50.0005C7.36668 49.9311 7.53465 49.8284 7.67624 49.6923C7.81784 49.5563 7.92611 49.3883 8.00107 49.1884L9.17963 49.4008C9.08524 49.7479 8.91588 50.0519 8.67156 50.3129C8.43002 50.5711 8.12601 50.7723 7.75953 50.9167C7.39583 51.0583 6.98077 51.1291 6.51434 51.1291ZM13.6846 44.6033V45.6028H10.0698V44.6033H13.6846ZM11.061 51V43.862C11.061 43.4622 11.1484 43.1305 11.3233 42.8667C11.4982 42.6002 11.7301 42.4017 12.0188 42.2712C12.3075 42.1379 12.6213 42.0713 12.96 42.0713C13.2098 42.0713 13.4236 42.0921 13.6013 42.1337C13.779 42.1726 13.9109 42.2087 13.9969 42.242L13.7054 43.2498C13.6471 43.2332 13.5722 43.2137 13.4805 43.1915C13.3889 43.1665 13.2779 43.1541 13.1474 43.1541C12.8448 43.1541 12.6282 43.229 12.4977 43.3789C12.37 43.5289 12.3061 43.7454 12.3061 44.0286V51H11.061ZM17.9553 44.6033V45.6028H14.4613V44.6033H17.9553ZM15.3983 43.0708H16.6435V49.1218C16.6435 49.3633 16.6796 49.5452 16.7518 49.6674C16.8239 49.7867 16.917 49.8686 17.0308 49.9131C17.1474 49.9547 17.2737 49.9755 17.4098 49.9755C17.5097 49.9755 17.5972 49.9686 17.6721 49.9547C17.7471 49.9408 17.8054 49.9297 17.847 49.9214L18.0719 50.95C17.9997 50.9778 17.897 51.0056 17.7637 51.0333C17.6305 51.0639 17.4639 51.0805 17.264 51.0833C16.9364 51.0888 16.631 51.0305 16.3478 50.9084C16.0646 50.7862 15.8356 50.5974 15.6607 50.342C15.4857 50.0866 15.3983 49.7659 15.3983 49.38V43.0708ZM22.884 46.8563V47.9349H19.1026V46.8563H22.884ZM24.1833 51V50.0671L27.0693 47.077C27.3775 46.7522 27.6316 46.4676 27.8315 46.2233C28.0341 45.9762 28.1854 45.7416 28.2854 45.5195C28.3853 45.2974 28.4353 45.0614 28.4353 44.8115C28.4353 44.5283 28.3687 44.284 28.2354 44.0786C28.1021 43.8704 27.9203 43.7107 27.6899 43.5997C27.4594 43.4858 27.1998 43.4289 26.9111 43.4289C26.6057 43.4289 26.3392 43.4914 26.1115 43.6163C25.8838 43.7413 25.7089 43.9175 25.5868 44.1452C25.4646 44.3729 25.4035 44.6394 25.4035 44.9448H24.175C24.175 44.4256 24.2944 43.9717 24.5332 43.583C24.7719 43.1943 25.0995 42.8931 25.516 42.6793C25.9324 42.4627 26.4058 42.3545 26.9361 42.3545C27.4719 42.3545 27.9439 42.4614 28.352 42.6751C28.7629 42.8861 29.0836 43.1749 29.314 43.5414C29.5445 43.9051 29.6597 44.316 29.6597 44.7741C29.6597 45.0906 29.6 45.4001 29.4806 45.7027C29.364 46.0054 29.1599 46.3427 28.8684 46.7147C28.5769 47.084 28.1716 47.5323 27.6524 48.0599L25.9574 49.8339V49.8964H29.7971V51H24.1833Z" fill="black"/>
<path d="M51.0823 13.4711V22H49.8371V13.4711H51.0823ZM55.5143 22.1291C54.8841 22.1291 54.3413 21.9944 53.886 21.7251C53.4335 21.4531 53.0837 21.0713 52.8366 20.5799C52.5922 20.0857 52.4701 19.5068 52.4701 18.8433C52.4701 18.1881 52.5922 17.6106 52.8366 17.1109C53.0837 16.6111 53.4279 16.221 53.8694 15.9406C54.3136 15.6602 54.8328 15.52 55.4269 15.52C55.7878 15.52 56.1376 15.5797 56.4763 15.6991C56.8151 15.8185 57.1191 16.0059 57.3884 16.2613C57.6577 16.5167 57.8701 16.8485 58.0255 17.2566C58.181 17.662 58.2588 18.1548 58.2588 18.735V19.1765H53.1739V18.2436H57.0386C57.0386 17.916 56.9719 17.6259 56.8387 17.3732C56.7054 17.1178 56.518 16.9165 56.2764 16.7694C56.0377 16.6222 55.7573 16.5487 55.4352 16.5487C55.0854 16.5487 54.78 16.6347 54.519 16.8068C54.2608 16.9762 54.0609 17.1983 53.9193 17.4732C53.7805 17.7453 53.7111 18.0409 53.7111 18.3602V19.089C53.7111 19.5166 53.7861 19.8803 53.936 20.1801C54.0887 20.48 54.3011 20.709 54.5732 20.8673C54.8452 21.0227 55.1631 21.1005 55.5268 21.1005C55.7628 21.1005 55.978 21.0671 56.1723 21.0005C56.3667 20.9311 56.5346 20.8284 56.6762 20.6923C56.8178 20.5563 56.9261 20.3883 57.0011 20.1884L58.1796 20.4008C58.0852 20.7479 57.9159 21.0519 57.6716 21.3129C57.43 21.5711 57.126 21.7723 56.7595 21.9167C56.3958 22.0583 55.9808 22.1291 55.5143 22.1291ZM62.6846 15.6033V16.6028H59.0698V15.6033H62.6846ZM60.061 22V14.862C60.061 14.4622 60.1484 14.1305 60.3233 13.8667C60.4982 13.6002 60.7301 13.4017 61.0188 13.2712C61.3075 13.1379 61.6213 13.0713 61.96 13.0713C62.2098 13.0713 62.4236 13.0921 62.6013 13.1337C62.779 13.1726 62.9109 13.2087 62.9969 13.242L62.7054 14.2498C62.6471 14.2332 62.5722 14.2137 62.4805 14.1915C62.3889 14.1665 62.2779 14.1541 62.1474 14.1541C61.8448 14.1541 61.6282 14.229 61.4977 14.3789C61.37 14.5289 61.3061 14.7454 61.3061 15.0286V22H60.061ZM66.9553 15.6033V16.6028H63.4613V15.6033H66.9553ZM64.3983 14.0708H65.6435V20.1218C65.6435 20.3633 65.6796 20.5452 65.7518 20.6674C65.8239 20.7867 65.917 20.8686 66.0308 20.9131C66.1474 20.9547 66.2737 20.9755 66.4098 20.9755C66.5097 20.9755 66.5972 20.9686 66.6721 20.9547C66.7471 20.9408 66.8054 20.9297 66.847 20.9214L67.0719 21.95C66.9997 21.9778 66.897 22.0056 66.7637 22.0333C66.6305 22.0639 66.4639 22.0805 66.264 22.0833C65.9364 22.0888 65.631 22.0305 65.3478 21.9084C65.0646 21.7862 64.8356 21.5974 64.6607 21.342C64.4857 21.0866 64.3983 20.7659 64.3983 20.38V14.0708ZM71.884 17.8563V18.9349H68.1026V17.8563H71.884ZM76.7627 13.4711V22H75.4717V14.7621H75.4218L73.3812 16.0947V14.862L75.5092 13.4711H76.7627Z" fill="black"/>
<path d="M108.532 11.1291C107.912 11.1291 107.379 10.9889 106.932 10.7085C106.488 10.4253 106.147 10.0352 105.908 9.53826C105.669 9.04129 105.55 8.47214 105.55 7.8308C105.55 7.18114 105.672 6.60782 105.916 6.11086C106.161 5.61112 106.505 5.22104 106.949 4.94063C107.393 4.66022 107.917 4.52001 108.519 4.52001C109.005 4.52001 109.438 4.61025 109.818 4.79071C110.199 4.96839 110.505 5.21826 110.739 5.54032C110.975 5.86238 111.115 6.23857 111.159 6.6689H109.947C109.881 6.36906 109.728 6.11086 109.489 5.8943C109.253 5.67775 108.937 5.56947 108.54 5.56947C108.193 5.56947 107.889 5.66109 107.628 5.84433C107.37 6.02479 107.168 6.28299 107.024 6.61893C106.88 6.95209 106.807 7.34633 106.807 7.80165C106.807 8.26808 106.878 8.67065 107.02 9.00936C107.161 9.34808 107.361 9.61044 107.619 9.79646C107.88 9.98247 108.187 10.0755 108.54 10.0755C108.776 10.0755 108.99 10.0324 109.181 9.94638C109.376 9.85753 109.538 9.73121 109.668 9.56741C109.802 9.4036 109.895 9.20648 109.947 8.97605H111.159C111.115 9.38972 110.98 9.75897 110.755 10.0838C110.53 10.4086 110.229 10.6641 109.852 10.8501C109.477 11.0361 109.037 11.1291 108.532 11.1291ZM115.248 11.1291C114.618 11.1291 114.075 10.9944 113.62 10.7251C113.167 10.4531 112.817 10.0713 112.57 9.5799C112.326 9.08571 112.204 8.50684 112.204 7.8433C112.204 7.18808 112.326 6.6106 112.57 6.11086C112.817 5.61112 113.161 5.22104 113.603 4.94063C114.047 4.66022 114.566 4.52001 115.16 4.52001C115.521 4.52001 115.871 4.57971 116.21 4.69909C116.549 4.81847 116.853 5.00587 117.122 5.2613C117.391 5.51672 117.604 5.84849 117.759 6.25662C117.915 6.66196 117.992 7.15476 117.992 7.73502V8.17646H112.907V7.24361H116.772C116.772 6.916 116.705 6.62587 116.572 6.37322C116.439 6.1178 116.251 5.91652 116.01 5.76937C115.771 5.62222 115.491 5.54865 115.169 5.54865C114.819 5.54865 114.513 5.63472 114.253 5.80685C113.994 5.97621 113.794 6.19831 113.653 6.47317C113.514 6.74525 113.445 7.04093 113.445 7.36021V8.089C113.445 8.51656 113.52 8.88026 113.669 9.18011C113.822 9.47995 114.035 9.709 114.307 9.86725C114.579 10.0227 114.897 10.1005 115.26 10.1005C115.496 10.1005 115.711 10.0671 115.906 10.0005C116.1 9.93111 116.268 9.82838 116.41 9.69234C116.551 9.5563 116.66 9.38833 116.735 9.18844L117.913 9.40083C117.819 9.74787 117.649 10.0519 117.405 10.3129C117.164 10.5711 116.859 10.7723 116.493 10.9167C116.129 11.0583 115.714 11.1291 115.248 11.1291ZM120.619 7.20196V11H119.374V4.6033H120.569V5.64443H120.648C120.795 5.30572 121.026 5.03364 121.339 4.82819C121.656 4.62274 122.054 4.52001 122.535 4.52001C122.971 4.52001 123.352 4.61163 123.68 4.79487C124.008 4.97534 124.262 5.24464 124.442 5.60279C124.623 5.96094 124.713 6.40376 124.713 6.93127V11H123.468V7.08119C123.468 6.61754 123.347 6.25523 123.105 5.99425C122.864 5.7305 122.532 5.59862 122.11 5.59862C121.821 5.59862 121.564 5.66109 121.339 5.78603C121.117 5.91096 120.941 6.0942 120.811 6.33574C120.683 6.57451 120.619 6.86325 120.619 7.20196ZM129.369 4.6033V5.60279H125.875V4.6033H129.369ZM126.812 3.07076H128.057V9.1218C128.057 9.36335 128.093 9.5452 128.165 9.66736C128.237 9.78674 128.33 9.86864 128.444 9.91306C128.561 9.95471 128.687 9.97553 128.823 9.97553C128.923 9.97553 129.011 9.96859 129.085 9.95471C129.16 9.94083 129.219 9.92972 129.26 9.92139L129.485 10.95C129.413 10.9778 129.31 11.0056 129.177 11.0333C129.044 11.0639 128.877 11.0805 128.677 11.0833C128.35 11.0888 128.044 11.0305 127.761 10.9084C127.478 10.7862 127.249 10.5974 127.074 10.342C126.899 10.0866 126.812 9.76592 126.812 9.38V3.07076ZM133.434 11.1291C132.804 11.1291 132.261 10.9944 131.806 10.7251C131.353 10.4531 131.004 10.0713 130.756 9.5799C130.512 9.08571 130.39 8.50684 130.39 7.8433C130.39 7.18808 130.512 6.6106 130.756 6.11086C131.004 5.61112 131.348 5.22104 131.789 4.94063C132.233 4.66022 132.753 4.52001 133.347 4.52001C133.708 4.52001 134.058 4.57971 134.396 4.69909C134.735 4.81847 135.039 5.00587 135.308 5.2613C135.578 5.51672 135.79 5.84849 135.945 6.25662C136.101 6.66196 136.179 7.15476 136.179 7.73502V8.17646H131.094V7.24361H134.958C134.958 6.916 134.892 6.62587 134.759 6.37322C134.625 6.1178 134.438 5.91652 134.196 5.76937C133.958 5.62222 133.677 5.54865 133.355 5.54865C133.005 5.54865 132.7 5.63472 132.439 5.80685C132.181 5.97621 131.981 6.19831 131.839 6.47317C131.7 6.74525 131.631 7.04093 131.631 7.36021V8.089C131.631 8.51656 131.706 8.88026 131.856 9.18011C132.009 9.47995 132.221 9.709 132.493 9.86725C132.765 10.0227 133.083 10.1005 133.447 10.1005C133.683 10.1005 133.898 10.0671 134.092 10.0005C134.287 9.93111 134.455 9.82838 134.596 9.69234C134.738 9.5563 134.846 9.38833 134.921 9.18844L136.1 9.40083C136.005 9.74787 135.836 10.0519 135.591 10.3129C135.35 10.5711 135.046 10.7723 134.679 10.9167C134.316 11.0583 133.901 11.1291 133.434 11.1291ZM137.56 11V4.6033H138.764V5.61945H138.83C138.947 5.27518 139.152 5.00449 139.447 4.80737C139.744 4.60747 140.08 4.50752 140.455 4.50752C140.532 4.50752 140.624 4.5103 140.729 4.51585C140.838 4.5214 140.922 4.52834 140.983 4.53667V5.72772C140.934 5.71384 140.845 5.69857 140.717 5.68191C140.589 5.66248 140.462 5.65276 140.334 5.65276C140.04 5.65276 139.777 5.71523 139.547 5.84017C139.319 5.96232 139.139 6.13307 139.005 6.3524C138.872 6.56896 138.805 6.81605 138.805 7.09368V11H137.56Z" fill="black"/>
<path d="M159.837 22V15.6033H161.041V16.6194H161.107C161.224 16.2752 161.429 16.0045 161.724 15.8074C162.021 15.6075 162.357 15.5075 162.731 15.5075C162.809 15.5075 162.901 15.5103 163.006 15.5159C163.115 15.5214 163.199 15.5283 163.26 15.5367V16.7277C163.21 16.7138 163.121 16.6986 162.994 16.6819C162.866 16.6625 162.738 16.6528 162.611 16.6528C162.316 16.6528 162.054 16.7152 161.824 16.8402C161.596 16.9623 161.415 17.1331 161.282 17.3524C161.149 17.569 161.082 17.8161 161.082 18.0937V22H159.837ZM164.338 22V15.6033H165.583V22H164.338ZM164.967 14.6163C164.75 14.6163 164.564 14.5441 164.409 14.3998C164.256 14.2526 164.18 14.0777 164.18 13.875C164.18 13.6696 164.256 13.4947 164.409 13.3503C164.564 13.2032 164.75 13.1296 164.967 13.1296C165.183 13.1296 165.368 13.2032 165.521 13.3503C165.676 13.4947 165.754 13.6696 165.754 13.875C165.754 14.0777 165.676 14.2526 165.521 14.3998C165.368 14.5441 165.183 14.6163 164.967 14.6163ZM169.94 24.532C169.432 24.532 168.995 24.4654 168.628 24.3321C168.265 24.1989 167.968 24.0226 167.737 23.8032C167.507 23.5839 167.335 23.3438 167.221 23.0828L168.291 22.6413C168.366 22.7635 168.466 22.8926 168.591 23.0286C168.719 23.1675 168.891 23.2854 169.107 23.3826C169.327 23.4798 169.608 23.5284 169.953 23.5284C170.425 23.5284 170.815 23.4132 171.123 23.1827C171.431 22.9551 171.585 22.5914 171.585 22.0916V20.8339H171.506C171.431 20.97 171.323 21.1213 171.181 21.2879C171.042 21.4544 170.851 21.5988 170.607 21.721C170.362 21.8431 170.044 21.9042 169.653 21.9042C169.148 21.9042 168.692 21.7862 168.287 21.5502C167.884 21.3115 167.565 20.9603 167.329 20.4966C167.096 20.0302 166.979 19.4569 166.979 18.7767C166.979 18.0965 167.094 17.5134 167.325 17.0276C167.558 16.5417 167.877 16.1697 168.283 15.9115C168.688 15.6505 169.148 15.52 169.661 15.52C170.058 15.52 170.379 15.5866 170.623 15.7199C170.867 15.8504 171.058 16.0031 171.194 16.178C171.333 16.3529 171.439 16.507 171.514 16.6403H171.606V15.6033H172.826V22.1416C172.826 22.6913 172.698 23.1425 172.443 23.4951C172.188 23.8477 171.842 24.1086 171.406 24.278C170.973 24.4473 170.484 24.532 169.94 24.532ZM169.928 20.8714C170.286 20.8714 170.588 20.7881 170.836 20.6215C171.085 20.4522 171.274 20.2106 171.402 19.8969C171.532 19.5804 171.598 19.2014 171.598 18.76C171.598 18.3297 171.534 17.9507 171.406 17.6231C171.278 17.2955 171.091 17.0401 170.844 16.8568C170.597 16.6708 170.291 16.5778 169.928 16.5778C169.553 16.5778 169.241 16.675 168.991 16.8693C168.741 17.0609 168.552 17.3219 168.424 17.6522C168.299 17.9826 168.237 18.3519 168.237 18.76C168.237 19.1792 168.301 19.5471 168.428 19.8636C168.556 20.1801 168.745 20.4272 168.995 20.6049C169.247 20.7826 169.558 20.8714 169.928 20.8714ZM175.741 18.202V22H174.496V13.4711H175.725V16.6444H175.804C175.954 16.3002 176.183 16.0267 176.491 15.824C176.799 15.6214 177.202 15.52 177.699 15.52C178.137 15.52 178.52 15.6102 178.848 15.7907C179.178 15.9712 179.434 16.2405 179.614 16.5986C179.798 16.954 179.889 17.3982 179.889 17.9313V22H178.644V18.0812C178.644 17.612 178.523 17.2483 178.282 16.9901C178.04 16.7291 177.704 16.5986 177.274 16.5986C176.98 16.5986 176.716 16.6611 176.483 16.786C176.252 16.911 176.07 17.0942 175.937 17.3357C175.807 17.5745 175.741 17.8632 175.741 18.202ZM184.537 15.6033V16.6028H181.043V15.6033H184.537ZM181.98 14.0708H183.225V20.1218C183.225 20.3633 183.261 20.5452 183.333 20.6674C183.405 20.7867 183.498 20.8686 183.612 20.9131C183.729 20.9547 183.855 20.9755 183.991 20.9755C184.091 20.9755 184.179 20.9686 184.254 20.9547C184.329 20.9408 184.387 20.9297 184.429 20.9214L184.653 21.95C184.581 21.9778 184.479 22.0056 184.345 22.0333C184.212 22.0639 184.045 22.0805 183.845 22.0833C183.518 22.0888 183.212 22.0305 182.929 21.9084C182.646 21.7862 182.417 21.5974 182.242 21.342C182.067 21.0866 181.98 20.7659 181.98 20.38V14.0708ZM189.466 17.8563V18.9349H185.684V17.8563H189.466ZM194.344 13.4711V22H193.053V14.7621H193.003L190.963 16.0947V14.862L193.091 13.4711H194.344Z" fill="black"/>
<path d="M218.837 51V44.6033H220.041V45.6194H220.107C220.224 45.2752 220.429 45.0045 220.724 44.8074C221.021 44.6075 221.357 44.5075 221.731 44.5075C221.809 44.5075 221.901 44.5103 222.006 44.5159C222.115 44.5214 222.199 44.5283 222.26 44.5367V45.7277C222.21 45.7138 222.121 45.6986 221.994 45.6819C221.866 45.6625 221.738 45.6528 221.611 45.6528C221.316 45.6528 221.054 45.7152 220.824 45.8402C220.596 45.9623 220.415 46.1331 220.282 46.3524C220.149 46.569 220.082 46.8161 220.082 47.0937V51H218.837ZM223.338 51V44.6033H224.583V51H223.338ZM223.967 43.6163C223.75 43.6163 223.564 43.5441 223.409 43.3998C223.256 43.2526 223.18 43.0777 223.18 42.875C223.18 42.6696 223.256 42.4947 223.409 42.3503C223.564 42.2032 223.75 42.1296 223.967 42.1296C224.183 42.1296 224.368 42.2032 224.521 42.3503C224.676 42.4947 224.754 42.6696 224.754 42.875C224.754 43.0777 224.676 43.2526 224.521 43.3998C224.368 43.5441 224.183 43.6163 223.967 43.6163ZM228.94 53.532C228.432 53.532 227.995 53.4654 227.628 53.3321C227.265 53.1989 226.968 53.0226 226.737 52.8032C226.507 52.5839 226.335 52.3438 226.221 52.0828L227.291 51.6413C227.366 51.7635 227.466 51.8926 227.591 52.0286C227.719 52.1675 227.891 52.2854 228.107 52.3826C228.327 52.4798 228.608 52.5284 228.953 52.5284C229.425 52.5284 229.815 52.4132 230.123 52.1827C230.431 51.9551 230.585 51.5914 230.585 51.0916V49.8339H230.506C230.431 49.97 230.323 50.1213 230.181 50.2879C230.042 50.4544 229.851 50.5988 229.607 50.721C229.362 50.8431 229.044 50.9042 228.653 50.9042C228.148 50.9042 227.692 50.7862 227.287 50.5502C226.884 50.3115 226.565 49.9603 226.329 49.4966C226.096 49.0302 225.979 48.4569 225.979 47.7767C225.979 47.0965 226.094 46.5134 226.325 46.0276C226.558 45.5417 226.877 45.1697 227.283 44.9115C227.688 44.6505 228.148 44.52 228.661 44.52C229.058 44.52 229.379 44.5866 229.623 44.7199C229.867 44.8504 230.058 45.0031 230.194 45.178C230.333 45.3529 230.439 45.507 230.514 45.6403H230.606V44.6033H231.826V51.1416C231.826 51.6913 231.698 52.1425 231.443 52.4951C231.188 52.8477 230.842 53.1086 230.406 53.278C229.973 53.4473 229.484 53.532 228.94 53.532ZM228.928 49.8714C229.286 49.8714 229.588 49.7881 229.836 49.6215C230.085 49.4522 230.274 49.2106 230.402 48.8969C230.532 48.5804 230.598 48.2014 230.598 47.76C230.598 47.3297 230.534 46.9507 230.406 46.6231C230.278 46.2955 230.091 46.0401 229.844 45.8568C229.597 45.6708 229.291 45.5778 228.928 45.5778C228.553 45.5778 228.241 45.675 227.991 45.8693C227.741 46.0609 227.552 46.3219 227.424 46.6522C227.299 46.9826 227.237 47.3519 227.237 47.76C227.237 48.1792 227.301 48.5471 227.428 48.8636C227.556 49.1801 227.745 49.4272 227.995 49.6049C228.247 49.7826 228.558 49.8714 228.928 49.8714ZM234.741 47.202V51H233.496V42.4711H234.725V45.6444H234.804C234.954 45.3002 235.183 45.0267 235.491 44.824C235.799 44.6214 236.202 44.52 236.699 44.52C237.137 44.52 237.52 44.6102 237.848 44.7907C238.178 44.9712 238.434 45.2405 238.614 45.5986C238.798 45.954 238.889 46.3982 238.889 46.9313V51H237.644V47.0812C237.644 46.612 237.523 46.2483 237.282 45.9901C237.04 45.7291 236.704 45.5986 236.274 45.5986C235.98 45.5986 235.716 45.6611 235.483 45.786C235.252 45.911 235.07 46.0942 234.937 46.3357C234.807 46.5745 234.741 46.8632 234.741 47.202ZM243.537 44.6033V45.6028H240.043V44.6033H243.537ZM240.98 43.0708H242.225V49.1218C242.225 49.3633 242.261 49.5452 242.333 49.6674C242.405 49.7867 242.498 49.8686 242.612 49.9131C242.729 49.9547 242.855 49.9755 242.991 49.9755C243.091 49.9755 243.179 49.9686 243.254 49.9547C243.329 49.9408 243.387 49.9297 243.429 49.9214L243.653 50.95C243.581 50.9778 243.479 51.0056 243.345 51.0333C243.212 51.0639 243.045 51.0805 242.845 51.0833C242.518 51.0888 242.212 51.0305 241.929 50.9084C241.646 50.7862 241.417 50.5974 241.242 50.342C241.067 50.0866 240.98 49.7659 240.98 49.38V43.0708ZM248.466 46.8563V47.9349H244.684V46.8563H248.466ZM249.765 51V50.0671L252.651 47.077C252.959 46.7522 253.213 46.4676 253.413 46.2233C253.616 45.9762 253.767 45.7416 253.867 45.5195C253.967 45.2974 254.017 45.0614 254.017 44.8115C254.017 44.5283 253.95 44.284 253.817 44.0786C253.684 43.8704 253.502 43.7107 253.271 43.5997C253.041 43.4858 252.781 43.4289 252.493 43.4289C252.187 43.4289 251.921 43.4914 251.693 43.6163C251.465 43.7413 251.29 43.9175 251.168 44.1452C251.046 44.3729 250.985 44.6394 250.985 44.9448H249.757C249.757 44.4256 249.876 43.9717 250.115 43.583C250.353 43.1943 250.681 42.8931 251.097 42.6793C251.514 42.4627 251.987 42.3545 252.518 42.3545C253.053 42.3545 253.525 42.4614 253.934 42.6751C254.344 42.8861 254.665 43.1749 254.896 43.5414C255.126 43.9051 255.241 44.316 255.241 44.7741C255.241 45.0906 255.181 45.4001 255.062 45.7027C254.945 46.0054 254.741 46.3427 254.45 46.7147C254.158 47.084 253.753 47.5323 253.234 48.0599L251.539 49.8339V49.8964H255.379V51H249.765Z" fill="black"/>
</svg>
