<svg width="279" height="172" viewBox="0 0 279 172" fill="none" xmlns="http://www.w3.org/2000/svg">
<g filter="url(#filter0_d_2188_1523)">
<rect x="4" width="90.2" height="164" fill="#343434"/>
<path d="M94.1992 142.68C86.2306 142.68 78.34 141.11 70.978 138.061C63.616 135.012 56.9266 130.542 51.292 124.907C45.6573 119.273 41.1877 112.583 38.1382 105.221C35.0888 97.8592 33.5192 89.9686 33.5192 82C33.5192 74.0314 35.0888 66.1408 38.1382 58.7788C41.1877 51.4167 45.6573 44.7274 51.292 39.0928C56.9266 33.4581 63.6159 28.9885 70.978 25.939C78.34 22.8895 86.2306 21.32 94.1992 21.32" stroke="white" stroke-width="1.64"/>
<path d="M94.2 108.814C90.6787 108.814 87.1919 108.121 83.9387 106.773C80.6855 105.426 77.7295 103.45 75.2396 100.961C72.7497 98.4707 70.7746 95.5147 69.4271 92.2615C68.0796 89.0083 67.386 85.5215 67.386 82.0002C67.386 78.4789 68.0796 74.9922 69.4271 71.7389C70.7746 68.4857 72.7497 65.5298 75.2396 63.0398C77.7295 60.5499 80.6855 58.5748 83.9387 57.2273C87.1919 55.8798 90.6787 55.1862 94.2 55.1862" stroke="white" stroke-width="1.64"/>
<path d="M6.0423 158.918V158.534H8.72594V158.918H7.60077V162.112H7.16747V158.918H6.0423ZM9.08716 158.534H9.58336L10.5757 160.204H10.6177L11.6101 158.534H12.1063L10.8134 160.637V162.112H10.3801V160.637L9.08716 158.534ZM12.6667 162.112V158.534H13.8757C14.1564 158.534 14.3859 158.584 14.5641 158.686C14.7434 158.786 14.8762 158.922 14.9624 159.093C15.0486 159.264 15.0917 159.455 15.0917 159.666C15.0917 159.877 15.0486 160.068 14.9624 160.241C14.8774 160.413 14.7458 160.55 14.5676 160.653C14.3894 160.754 14.1611 160.805 13.8827 160.805H13.0161V160.421H13.8687C14.0609 160.421 14.2152 160.387 14.3317 160.321C14.4482 160.255 14.5326 160.165 14.585 160.052C14.6386 159.938 14.6654 159.809 14.6654 159.666C14.6654 159.523 14.6386 159.394 14.585 159.281C14.5326 159.168 14.4476 159.08 14.3299 159.016C14.2123 158.951 14.0562 158.918 13.8617 158.918H13.0999V162.112H12.6667ZM15.7897 162.112V158.534H17.9492V158.918H16.223V160.127H17.8374V160.511H16.223V161.727H17.9771V162.112H15.7897ZM20.2118 160.131V160.515H18.6463V160.131H20.2118ZM22.0974 162.161C21.8341 162.161 21.6099 162.089 21.4247 161.946C21.2395 161.801 21.098 161.592 21.0002 161.319C20.9023 161.044 20.8534 160.712 20.8534 160.323C20.8534 159.936 20.9023 159.606 21.0002 159.332C21.0992 159.057 21.2413 158.848 21.4265 158.703C21.6128 158.558 21.8365 158.485 22.0974 158.485C22.3583 158.485 22.5813 158.558 22.7665 158.703C22.9529 158.848 23.095 159.057 23.1928 159.332C23.2919 159.606 23.3414 159.936 23.3414 160.323C23.3414 160.712 23.2924 161.044 23.1946 161.319C23.0968 161.592 22.9552 161.801 22.77 161.946C22.5848 162.089 22.3606 162.161 22.0974 162.161ZM22.0974 161.776C22.3583 161.776 22.561 161.651 22.7054 161.399C22.8498 161.147 22.922 160.789 22.922 160.323C22.922 160.013 22.8888 159.749 22.8225 159.531C22.7572 159.313 22.6629 159.147 22.5394 159.033C22.4171 158.919 22.2698 158.862 22.0974 158.862C21.8388 158.862 21.6367 158.99 21.4911 159.245C21.3455 159.499 21.2727 159.858 21.2727 160.323C21.2727 160.633 21.3053 160.896 21.3706 161.112C21.4358 161.329 21.5296 161.494 21.6519 161.607C21.7753 161.72 21.9238 161.776 22.0974 161.776Z" fill="#7E7E7E"/>
<rect x="274.6" y="164" width="90.2" height="164" transform="rotate(-180 274.6 164)" fill="#343434"/>
<path d="M184.4 21.32C192.369 21.32 200.26 22.8895 207.622 25.939C214.984 28.9884 221.673 33.4581 227.308 39.0928C232.942 44.7274 237.412 51.4167 240.461 58.7788C243.511 66.1408 245.08 74.0314 245.08 82C245.08 89.9686 243.511 97.8592 240.461 105.221C237.412 112.583 232.942 119.273 227.308 124.907C221.673 130.542 214.984 135.012 207.622 138.061C200.26 141.11 192.369 142.68 184.4 142.68" stroke="white" stroke-width="1.64"/>
<path d="M184.4 55.1858C187.921 55.1858 191.408 55.8794 194.661 57.2269C197.914 58.5744 200.87 60.5495 203.36 63.0394C205.85 65.5293 207.825 68.4853 209.173 71.7385C210.52 74.9917 211.214 78.4785 211.214 81.9998C211.214 85.5211 210.52 89.0078 209.173 92.2611C207.825 95.5143 205.85 98.4702 203.36 100.96C200.87 103.45 197.914 105.425 194.661 106.773C191.408 108.12 187.921 108.814 184.4 108.814" stroke="white" stroke-width="1.64"/>
<path d="M272.557 5.08199V5.46637H269.874V5.08199H270.999V1.88818H271.432V5.08199H272.557ZM269.512 5.46637H269.016L268.024 3.79608H267.982L266.99 5.46637H266.493L267.786 3.36279V1.88818H268.22V3.36279L269.512 5.46637ZM265.933 1.88818V5.46637H264.724C264.443 5.46637 264.214 5.4157 264.036 5.31436C263.856 5.21419 263.723 5.0785 263.637 4.90727C263.551 4.73605 263.508 4.54503 263.508 4.33421C263.508 4.12338 263.551 3.93178 263.637 3.75939C263.722 3.587 263.854 3.44956 264.032 3.34706C264.21 3.24573 264.439 3.19506 264.717 3.19506H265.584V3.57943H264.731C264.539 3.57943 264.384 3.61263 264.268 3.67902C264.151 3.74541 264.067 3.8351 264.015 3.94808C263.961 4.06223 263.934 4.19094 263.934 4.33421C263.934 4.47747 263.961 4.6056 264.015 4.71858C264.067 4.83156 264.152 4.92009 264.27 4.98415C264.387 5.04938 264.543 5.08199 264.738 5.08199H265.5V1.88818H265.933ZM262.81 1.88818V5.46637H260.65V5.08199H262.377V3.87296H260.762V3.48858H262.377V2.27256L260.622 2.27256V1.88818L262.81 1.88818ZM258.388 3.86946V3.48509H259.953V3.86946H258.388ZM256.502 1.83926C256.765 1.83926 256.99 1.9109 257.175 2.05416C257.36 2.1986 257.502 2.40767 257.599 2.68139C257.697 2.95628 257.746 3.28824 257.746 3.67727C257.746 4.06398 257.697 4.39419 257.599 4.66791C257.5 4.9428 257.358 5.15246 257.173 5.29689C256.987 5.44249 256.763 5.51529 256.502 5.51529C256.241 5.51529 256.018 5.44249 255.833 5.29689C255.647 5.15246 255.505 4.9428 255.407 4.66791C255.308 4.39419 255.258 4.06398 255.258 3.67727C255.258 3.28824 255.307 2.95628 255.405 2.68139C255.503 2.40767 255.644 2.1986 255.83 2.05416C256.015 1.9109 256.239 1.83926 256.502 1.83926ZM256.502 2.22364C256.241 2.22364 256.039 2.34943 255.894 2.60102C255.75 2.85262 255.678 3.21137 255.678 3.67727C255.678 3.9871 255.711 4.25092 255.777 4.46874C255.842 4.68655 255.937 4.85253 256.06 4.96668C256.182 5.08083 256.33 5.1379 256.502 5.1379C256.761 5.1379 256.963 5.01036 257.108 4.75527C257.254 4.50135 257.327 4.14202 257.327 3.67727C257.327 3.36744 257.294 3.10421 257.229 2.88756C257.164 2.67091 257.07 2.5061 256.948 2.39311C256.824 2.28013 256.676 2.22364 256.502 2.22364Z" fill="#7E7E7E"/>
<rect x="94.1992" width="90.2" height="164" fill="#343434"/>
<rect x="94.1992" y="20.5" width="90.2" height="1.64" fill="white"/>
<rect x="94.1992" y="54.3662" width="90.2" height="1.64" fill="white"/>
<rect x="94.1992" y="107.994" width="90.2" height="1.64" fill="white"/>
<rect x="94.1992" y="141.86" width="90.2" height="1.64" fill="white"/>
<path d="M130.435 159.82V159.436H133.119V159.82H131.993V163.014H131.56V159.82H130.435ZM133.48 159.436H133.976L134.968 161.106H135.01L136.003 159.436H136.499L135.206 161.54V163.014H134.773V161.54L133.48 159.436ZM137.059 163.014V159.436H138.268C138.549 159.436 138.778 159.487 138.957 159.588C139.136 159.688 139.269 159.824 139.355 159.995C139.441 160.166 139.484 160.357 139.484 160.568C139.484 160.779 139.441 160.971 139.355 161.143C139.27 161.315 139.138 161.453 138.96 161.555C138.782 161.657 138.554 161.707 138.275 161.707H137.409V161.323H138.261C138.453 161.323 138.608 161.29 138.724 161.223C138.841 161.157 138.925 161.067 138.978 160.954C139.031 160.84 139.058 160.711 139.058 160.568C139.058 160.425 139.031 160.297 138.978 160.184C138.925 160.071 138.84 159.982 138.723 159.918C138.605 159.853 138.449 159.82 138.254 159.82H137.493V163.014H137.059ZM140.182 163.014V159.436H142.342V159.82H140.616V161.029H142.23V161.414H140.616V162.63H142.37V163.014H140.182ZM144.604 161.033V161.417H143.039V161.033H144.604ZM145.533 163.014H145.078L146.392 159.436H146.839L148.153 163.014H147.699L146.63 160.002H146.602L145.533 163.014ZM145.7 161.616H147.531V162.001H145.7V161.616Z" fill="#7E7E7E"/>
</g>
<defs>
<filter id="filter0_d_2188_1523" x="0" y="0" width="278.6" height="172" filterUnits="userSpaceOnUse" color-interpolation-filters="sRGB">
<feFlood flood-opacity="0" result="BackgroundImageFix"/>
<feColorMatrix in="SourceAlpha" type="matrix" values="0 0 0 0 0 0 0 0 0 0 0 0 0 0 0 0 0 0 127 0" result="hardAlpha"/>
<feOffset dy="4"/>
<feGaussianBlur stdDeviation="2"/>
<feComposite in2="hardAlpha" operator="out"/>
<feColorMatrix type="matrix" values="0 0 0 0 0 0 0 0 0 0 0 0 0 0 0 0 0 0 0.25 0"/>
<feBlend mode="normal" in2="BackgroundImageFix" result="effect1_dropShadow_2188_1523"/>
<feBlend mode="normal" in="SourceGraphic" in2="effect1_dropShadow_2188_1523" result="shape"/>
</filter>
</defs>
</svg>
