<svg width="382" height="236" viewBox="0 0 382 236" fill="none" xmlns="http://www.w3.org/2000/svg">
<g filter="url(#filter0_d_2188_2013)">
<path d="M6 10.9923C6 4.9214 10.9214 0 16.9923 0H129.333V224.242H16.9923C10.9214 224.242 6 219.321 6 213.25V10.9923Z" fill="#343434"/>
<path d="M129.333 195.091C118.437 195.091 107.648 192.945 97.582 188.775C87.5156 184.605 78.3691 178.494 70.6647 170.789C62.9602 163.085 56.8487 153.938 52.6791 143.872C48.5095 133.806 46.3634 123.017 46.3634 112.121C46.3634 101.225 48.5095 90.4362 52.6791 80.3699C56.8487 70.3035 62.9602 61.157 70.6647 53.4526C78.3691 45.7481 87.5156 39.6366 97.582 35.467C107.648 31.2974 118.437 29.1513 129.333 29.1513" stroke="white" stroke-width="2.24242"/>
<path d="M129.333 148.785C124.519 148.785 119.751 147.837 115.303 145.994C110.855 144.152 106.813 141.451 103.408 138.046C100.004 134.642 97.303 130.6 95.4605 126.152C93.618 121.704 92.6697 116.936 92.6697 112.121C92.6697 107.307 93.618 102.539 95.4605 98.0907C97.303 93.6425 100.004 89.6007 103.408 86.1962C106.813 82.7916 110.855 80.091 115.303 78.2485C119.751 76.406 124.519 75.4576 129.333 75.4576" stroke="white" stroke-width="2.24242"/>
<path d="M8.79169 216.457V215.932H12.4611V216.457H10.9226V220.824H10.3302V216.457H8.79169ZM12.955 215.932H13.6335L14.9904 218.215H15.0477L16.4047 215.932H17.0831L15.3153 218.808V220.824H14.7229V218.808L12.955 215.932ZM17.8494 220.824V215.932H19.5025C19.8864 215.932 20.2001 216.001 20.4438 216.139C20.689 216.276 20.8706 216.462 20.9885 216.696C21.1063 216.93 21.1652 217.191 21.1652 217.48C21.1652 217.768 21.1063 218.03 20.9885 218.266C20.8722 218.501 20.6922 218.689 20.4486 218.829C20.2049 218.968 19.8927 219.037 19.5121 219.037H18.3272V218.512H19.493C19.7558 218.512 19.9668 218.466 20.1261 218.376C20.2853 218.285 20.4008 218.162 20.4724 218.008C20.5457 217.852 20.5823 217.676 20.5823 217.48C20.5823 217.284 20.5457 217.109 20.4724 216.954C20.4008 216.8 20.2845 216.679 20.1237 216.591C19.9628 216.502 19.7494 216.457 19.4834 216.457H18.4418V220.824H17.8494ZM22.1196 220.824V215.932H25.0724V216.457H22.7121V218.11H24.9195V218.636H22.7121V220.299H25.1106V220.824H22.1196ZM28.166 218.115V218.641H26.0256V218.115H28.166ZM30.7443 220.891C30.3844 220.891 30.0778 220.793 29.8246 220.597C29.5713 220.4 29.3778 220.114 29.2441 219.74C29.1103 219.364 29.0434 218.91 29.0434 218.378C29.0434 217.849 29.1103 217.398 29.2441 217.023C29.3794 216.648 29.5737 216.361 29.827 216.163C30.0818 215.964 30.3876 215.865 30.7443 215.865C31.1011 215.865 31.4061 215.964 31.6593 216.163C31.9141 216.361 32.1084 216.648 32.2422 217.023C32.3776 217.398 32.4453 217.849 32.4453 218.378C32.4453 218.91 32.3784 219.364 32.2446 219.74C32.1108 220.114 31.9173 220.4 31.6641 220.597C31.4108 220.793 31.1043 220.891 30.7443 220.891ZM30.7443 220.366C31.1011 220.366 31.3782 220.194 31.5757 219.85C31.7732 219.506 31.8719 219.015 31.8719 218.378C31.8719 217.954 31.8265 217.594 31.7357 217.296C31.6465 216.998 31.5175 216.771 31.3487 216.615C31.1815 216.459 30.98 216.381 30.7443 216.381C30.3908 216.381 30.1144 216.555 29.9154 216.904C29.7163 217.251 29.6167 217.742 29.6167 218.378C29.6167 218.802 29.6613 219.162 29.7505 219.458C29.8397 219.754 29.9679 219.979 30.1351 220.134C30.304 220.288 30.507 220.366 30.7443 220.366Z" fill="#7E7E7E"/>
<path d="M376 213.25C376 219.321 371.079 224.242 365.008 224.242L252.667 224.242L252.667 -0.000259399L365.008 -0.000259399C371.079 -0.000259399 376 4.92115 376 10.992V213.25Z" fill="#343434"/>
<path d="M252.667 29.1515C263.563 29.1515 274.352 31.2976 284.418 35.4672C294.484 39.6368 303.631 45.7483 311.335 53.4527C319.04 61.1572 325.151 70.3037 329.321 80.3701C333.491 90.4364 335.637 101.225 335.637 112.121C335.637 123.017 333.491 133.806 329.321 143.872C325.151 153.939 319.04 163.085 311.335 170.79C303.631 178.494 294.484 184.606 284.418 188.775C274.352 192.945 263.563 195.091 252.667 195.091" stroke="white" stroke-width="2.24242"/>
<path d="M252.666 75.4573C257.48 75.4573 262.248 76.4056 266.696 78.2481C271.145 80.0906 275.186 82.7913 278.591 86.1958C281.995 89.6003 284.696 93.6421 286.538 98.0903C288.381 102.539 289.329 107.306 289.329 112.121C289.329 116.936 288.381 121.703 286.538 126.151C284.696 130.6 281.995 134.641 278.591 138.046C275.186 141.451 271.145 144.151 266.696 145.994C262.248 147.836 257.48 148.785 252.666 148.785" stroke="white" stroke-width="2.24242"/>
<path d="M373.208 7.78496V8.31053H369.539V7.78496H371.077V3.41797H371.67V7.78496H373.208ZM369.045 8.31053H368.367L367.01 6.0267H366.952L365.595 8.31053L364.917 8.31053L366.685 5.43424V3.41797H367.277V5.43424L369.045 8.31053ZM364.151 3.41797V8.31053H362.497C362.114 8.31053 361.8 8.24125 361.556 8.10269C361.311 7.96573 361.129 7.78019 361.012 7.54607C360.894 7.31195 360.835 7.05076 360.835 6.76249C360.835 6.47423 360.894 6.21224 361.012 5.97653C361.128 5.74082 361.308 5.55289 361.551 5.41274C361.795 5.27418 362.107 5.2049 362.488 5.2049L363.673 5.2049V5.73047H362.507C362.244 5.73047 362.033 5.77586 361.874 5.86664C361.715 5.95742 361.599 6.08005 361.528 6.23454C361.454 6.39061 361.418 6.5666 361.418 6.76249C361.418 6.95839 361.454 7.13358 361.528 7.28806C361.599 7.44255 361.715 7.56359 361.876 7.65118C362.037 7.74037 362.251 7.78496 362.517 7.78496H363.558V3.41797H364.151ZM359.88 3.41797V8.31053H356.928V7.78496H359.288V6.13181H357.081V5.60624H359.288V3.94354H356.889V3.41797H359.88ZM353.834 6.12703V5.60147H355.974V6.12703H353.834ZM351.256 3.35108C351.616 3.35108 351.922 3.44903 352.175 3.64492C352.429 3.8424 352.622 4.12828 352.756 4.50255C352.89 4.87841 352.957 5.33231 352.957 5.86425C352.957 6.393 352.89 6.84451 352.756 7.21878C352.621 7.59464 352.426 7.88132 352.173 8.0788C351.918 8.27788 351.612 8.37742 351.256 8.37742C350.899 8.37742 350.594 8.27788 350.341 8.0788C350.086 7.88132 349.892 7.59464 349.758 7.21878C349.622 6.84451 349.555 6.393 349.555 5.86425C349.555 5.33231 349.622 4.87841 349.755 4.50255C349.889 4.12828 350.083 3.8424 350.336 3.64492C350.589 3.44903 350.896 3.35108 351.256 3.35108ZM351.256 3.87665C350.899 3.87665 350.622 4.04865 350.424 4.39266C350.227 4.73667 350.128 5.2272 350.128 5.86425C350.128 6.28789 350.173 6.64862 350.264 6.94644C350.353 7.24427 350.482 7.47121 350.651 7.62729C350.819 7.78337 351.02 7.86141 351.256 7.86141C351.609 7.86141 351.886 7.68702 352.085 7.33823C352.284 6.99104 352.383 6.49971 352.383 5.86425C352.383 5.44061 352.339 5.08068 352.249 4.78445C352.16 4.48822 352.032 4.26286 351.865 4.10837C351.696 3.95389 351.493 3.87665 351.256 3.87665Z" fill="#7E7E7E"/>
<rect x="129.333" width="123.333" height="224.242" fill="#343434"/>
<rect x="129.333" y="28.0303" width="123.333" height="2.24242" fill="white"/>
<rect x="129.333" y="74.3364" width="123.333" height="2.24242" fill="white"/>
<rect x="129.333" y="147.664" width="123.333" height="2.24242" fill="white"/>
<rect x="129.333" y="193.97" width="123.333" height="2.24242" fill="white"/>
<path d="M178.879 217.691V217.165H182.548V217.691H181.01V222.058H180.417V217.691H178.879ZM183.042 217.165H183.72L185.077 219.449H185.135L186.492 217.165H187.17L185.402 220.041V222.058H184.81V220.041L183.042 217.165ZM187.936 222.058V217.165H189.589C189.973 217.165 190.287 217.234 190.531 217.373C190.776 217.51 190.958 217.695 191.075 217.93C191.193 218.164 191.252 218.425 191.252 218.713C191.252 219.001 191.193 219.263 191.075 219.499C190.959 219.735 190.779 219.923 190.535 220.063C190.292 220.201 189.98 220.271 189.599 220.271H188.414V219.745H189.58C189.843 219.745 190.054 219.7 190.213 219.609C190.372 219.518 190.488 219.396 190.559 219.241C190.633 219.085 190.669 218.909 190.669 218.713C190.669 218.517 190.633 218.342 190.559 218.188C190.488 218.033 190.371 217.912 190.211 217.824C190.05 217.735 189.836 217.691 189.57 217.691H188.529V222.058H187.936ZM192.207 222.058V217.165H195.159V217.691H192.799V219.344H195.006V219.869H192.799V221.532H195.198V222.058H192.207ZM198.253 219.349V219.874H196.112V219.349H198.253ZM199.522 222.058H198.901L200.697 217.165H201.309L203.106 222.058H202.484L201.022 217.939H200.984L199.522 222.058ZM199.751 220.146H202.255V220.672H199.751V220.146Z" fill="#7E7E7E"/>
</g>
<path d="M118.715 191.837L122.304 201.697C123.255 204.311 126.934 205.371 129.547 204.42L158.732 193.797C161.345 192.846 162.694 189.957 161.742 187.343L158.153 177.483C157.202 174.87 154.312 173.521 151.698 174.473L122.514 185.095C119.9 186.048 117.764 189.224 118.715 191.837ZM129.192 183.603L138.973 180.043L140.1 182.224L136.07 183.691L129.192 183.603ZM126.765 185.846C130.346 185.508 134.578 185.11 134.578 185.11L138.78 196.655L132.323 201.115C132.323 201.115 127.08 194.587 126.765 185.846ZM141.09 196.659L144.856 195.289L145.397 197.684L135.876 201.15L141.09 196.659ZM155.528 193.997L146.842 197.158L146.296 194.764L153.169 192.263L155.528 193.997ZM157.522 191.793L154.047 190.951L149.844 179.403L151.964 176.525L157.522 191.793ZM148.151 179.294L141.55 181.697L140.42 179.517L148.845 176.45L148.151 179.294Z" fill="white"/>
<path d="M53.357 129.791L49.7682 139.651C48.8168 142.265 50.9531 145.441 53.5668 146.393L82.7513 157.015C85.3642 157.966 88.2549 156.619 89.2063 154.006L92.7951 144.145C93.7461 141.532 92.3987 138.641 89.785 137.69L60.6005 127.068C57.9862 126.118 54.308 127.178 53.357 129.791ZM66.6749 130.218L76.4565 133.778L75.9179 136.174L71.8879 134.707L66.6749 130.218ZM63.3743 130.376C66.3345 132.419 69.833 134.834 69.833 134.834L65.6309 146.379L57.8168 145.645C57.8168 145.645 57.9975 137.275 63.3743 130.376ZM67.397 147.867L71.1637 149.238L70.0378 151.421L60.5171 147.956L67.397 147.867ZM80.169 155.108L71.4826 151.947L72.6034 149.762L79.4761 152.264L80.169 155.108ZM83.1129 154.701L80.9925 151.823L85.1954 140.276L88.67 139.433L83.1129 154.701ZM83.9687 139.104L77.3677 136.701L77.9029 134.305L86.3286 137.371L83.9687 139.104Z" fill="white"/>
<path d="M244.805 66.523L241.216 76.3834C240.265 78.9971 236.587 80.0571 233.973 79.1058L204.789 68.4835C202.176 67.5325 200.827 64.6428 201.778 62.0291L205.367 52.1687C206.318 49.5558 209.209 48.2073 211.822 49.1586L241.007 59.7808C243.62 60.7338 245.756 63.9101 244.805 66.523ZM234.329 58.2894L224.547 54.7292L223.42 56.9104L227.45 58.3773L234.329 58.2894ZM236.755 60.5324C233.175 60.1941 228.942 59.7959 228.942 59.7959L224.74 71.3409L231.198 75.8014C231.198 75.8014 236.44 69.2729 236.755 60.5324ZM222.431 71.3455L218.664 69.9746L218.124 72.3703L227.644 75.8356L222.431 71.3455ZM207.992 68.6828L216.679 71.8444L217.224 69.4505L210.352 66.9491L207.992 68.6828ZM205.999 66.4787L209.473 65.637L213.676 54.0895L211.556 51.2106L205.999 66.4787ZM215.369 53.9802L221.97 56.3828L223.101 54.2027L214.675 51.1361L215.369 53.9802Z" fill="white"/>
<path d="M343.131 101.158L335.711 108.578C333.744 110.544 329.963 109.951 327.996 107.984L306.035 86.0228C304.069 84.0567 304.068 80.8676 306.034 78.9008L313.454 71.481C315.42 69.5149 318.61 69.5143 320.577 71.481L342.538 93.442C344.503 95.41 345.097 99.1916 343.131 101.158ZM337.116 89.268L329.755 81.9075L327.812 83.408L330.844 86.4405L337.116 89.268ZM338.367 92.3264C335.265 90.5066 331.597 88.3568 331.597 88.3568L322.91 97.0443L326.877 103.816C326.877 103.816 334.387 100.115 338.367 92.3264ZM320.815 96.0726L317.98 93.2382L316.478 95.181L323.642 102.345L320.815 96.0726ZM308.854 87.5574L315.391 94.0938L316.897 92.1548L311.725 86.9832L308.854 87.5574ZM307.979 84.7173L311.484 85.4227L320.173 76.7334L319.468 73.2283L307.979 84.7173ZM321.754 77.3499L326.721 82.317L328.667 80.8191L322.327 74.4789L321.754 77.3499Z" fill="white"/>
<path d="M154.246 33.998L150.657 24.1376C149.706 21.5239 146.027 20.4639 143.414 21.4152L114.229 32.0375C111.616 32.9885 110.267 35.8782 111.219 38.4919L114.808 48.3523C115.759 50.9652 118.649 52.3137 121.263 51.3624L150.447 40.7402C153.06 39.7872 155.197 36.6109 154.246 33.998ZM143.769 42.2316L133.988 45.7918L132.86 43.6105L136.89 42.1437L143.769 42.2316ZM146.196 39.9885C142.615 40.3269 138.383 40.7251 138.383 40.7251L134.181 29.1801L140.638 24.7196C140.638 24.7196 145.881 31.2481 146.196 39.9885ZM131.871 29.1755L128.105 30.5464L127.564 28.1507L137.085 24.6854L131.871 29.1755ZM117.433 31.8382L126.119 28.6766L126.665 31.0705L119.792 33.5719L117.433 31.8382ZM115.439 34.0423L118.914 34.884L123.117 46.4315L120.997 49.3104L115.439 34.0423ZM124.81 46.5408L131.411 44.1382L132.541 46.3183L124.116 49.3849L124.81 46.5408Z" fill="white"/>
<path d="M224.417 153.665L228.006 143.805C228.958 141.191 232.636 140.131 235.249 141.083L264.434 151.705C267.047 152.656 268.396 155.546 267.444 158.159L263.855 168.02C262.904 170.633 260.014 171.981 257.4 171.03L228.216 160.408C225.603 159.455 223.466 156.278 224.417 153.665ZM234.894 161.899L244.675 165.459L245.803 163.278L241.773 161.811L234.894 161.899ZM232.467 159.656C236.048 159.994 240.28 160.393 240.28 160.393L244.483 148.848L238.025 144.387C238.025 144.387 232.783 150.916 232.467 159.656ZM246.792 148.843L250.558 150.214L251.099 147.818L241.578 144.353L246.792 148.843ZM261.23 151.506L252.544 148.344L251.998 150.738L258.871 153.239L261.23 151.506ZM263.224 153.71L259.749 154.551L255.546 166.099L257.667 168.978L263.224 153.71ZM253.853 166.208L247.252 163.806L246.122 165.986L254.547 169.052L253.853 166.208Z" fill="white"/>
<defs>
<filter id="filter0_d_2188_2013" x="0.530673" y="-0.000488281" width="380.939" height="235.182" filterUnits="userSpaceOnUse" color-interpolation-filters="sRGB">
<feFlood flood-opacity="0" result="BackgroundImageFix"/>
<feColorMatrix in="SourceAlpha" type="matrix" values="0 0 0 0 0 0 0 0 0 0 0 0 0 0 0 0 0 0 127 0" result="hardAlpha"/>
<feOffset dy="5.46933"/>
<feGaussianBlur stdDeviation="2.73466"/>
<feComposite in2="hardAlpha" operator="out"/>
<feColorMatrix type="matrix" values="0 0 0 0 0 0 0 0 0 0 0 0 0 0 0 0 0 0 0.25 0"/>
<feBlend mode="normal" in2="BackgroundImageFix" result="effect1_dropShadow_2188_2013"/>
<feBlend mode="normal" in="SourceGraphic" in2="effect1_dropShadow_2188_2013" result="shape"/>
</filter>
</defs>
</svg>
