<svg width="188" height="212" viewBox="0 0 188 212" fill="none" xmlns="http://www.w3.org/2000/svg">
<path d="M175.731 75.7702H170.644V51.2267C170.644 51.0725 170.62 50.9195 170.602 50.763C170.594 49.7894 170.282 48.8324 169.615 48.074L128.77 1.42062C128.758 1.40865 128.746 1.40362 128.737 1.39165C128.494 1.11965 128.21 0.89325 127.91 0.697755C127.821 0.638257 127.732 0.588417 127.638 0.535873C127.379 0.394854 127.103 0.276243 126.819 0.190859C126.742 0.170768 126.673 0.139087 126.596 0.118997C126.287 0.0455898 125.967 0 125.643 0H25.2664C20.6827 0 16.9594 3.72793 16.9594 8.30738V75.7698H11.8738C5.31662 75.7698 0 81.0845 0 87.6436V149.388C0 155.941 5.31662 161.261 11.8738 161.261H16.9594V203.527C16.9594 208.107 20.6827 211.834 25.2664 211.834H162.336C166.915 211.834 170.643 208.107 170.643 203.527V161.261H175.729C182.284 161.261 187.602 155.941 187.602 149.388V87.644C187.602 81.0849 182.288 75.7702 175.731 75.7702ZM162.336 201.276H25.2664V161.261H162.336V201.276ZM49.2412 147.823L68.63 84.3724H87.4539L107.13 147.823H91.6961L86.7964 131.535H68.63L64.1116 147.823H49.2412ZM115.599 147.823V84.3724H130.007V147.823H115.599ZM162.336 75.7702H25.2664V8.30738H121.489V50.8086C121.489 53.1047 123.35 54.9623 125.643 54.9623H162.336V75.7702Z" fill="#353D5B"/>
<path d="M80.7699 107.348C79.6422 103.583 78.5125 98.8748 77.5694 95.1094H77.3808C76.4416 98.8748 75.4985 103.676 74.4642 107.348L70.6992 120.81H84.7258L80.7699 107.348Z" fill="#353D5B"/>
</svg>
