<svg width="240" height="277" viewBox="0 0 240 277" fill="none" xmlns="http://www.w3.org/2000/svg">
<path fill-rule="evenodd" clip-rule="evenodd" d="M239.972 144.02L119.977 204.086V276.167L239.972 216.1V144.02Z" fill="#4285F4"/>
<path fill-rule="evenodd" clip-rule="evenodd" d="M192.082 84.0971V144.026L239.998 120.137V60.0703L192.082 84.0971Z" fill="#4285F4"/>
<path fill-rule="evenodd" clip-rule="evenodd" d="M119.977 180.057L168.03 156.168V96.1016L119.977 120.128V180.057Z" fill="#4285F4"/>
<path d="M47.9155 36.043L0 60.0697L47.9155 84.0965L95.969 60.0697L47.9155 36.043Z" fill="#AECBFA"/>
<path fill-rule="evenodd" clip-rule="evenodd" d="M119.975 0L71.9219 24.0268L119.975 48.0535L192.056 84.0937L239.971 60.0669L119.975 0Z" fill="#AECBFA"/>
<path d="M119.975 72.0938L71.9219 96.1205L119.975 120.147L168.029 96.1205L119.975 72.0938Z" fill="#AECBFA"/>
<path d="M71.9219 179.52V251.6L119.975 276.179V204.099L71.9219 179.52ZM107.962 251.6L83.9353 239.586V204.099L107.962 216.112V251.6Z" fill="#669DF6"/>
<path d="M0 60.0703V216.106L47.9155 240.133V84.0971L0 60.0703ZM36.0402 216.106L11.8753 204.093V66.008L36.0402 78.0213V216.106Z" fill="#669DF6"/>
<path d="M71.9219 96.6602L119.975 120.135V179.511L71.9219 156.175V96.6602ZM107.962 156.727V115.302L83.9353 102.874V144.299L107.962 156.727Z" fill="#669DF6"/>
</svg>
