<svg width="84" height="70" viewBox="0 0 84 70" fill="none" xmlns="http://www.w3.org/2000/svg">
<path d="M31.7146 13.772C30.6102 13.7501 29.7097 12.8568 29.7097 11.7522L29.7096 4.55545C29.7096 2.81386 27.6381 1.90443 26.356 3.08315L1.60145 25.8417C0.739595 26.6341 0.739598 27.994 1.60145 28.7864L26.356 51.5449C27.6381 52.7237 29.7096 51.8142 29.7096 50.0726V44.4436C29.7096 43.339 30.6175 42.4406 31.7216 42.4729C57.6612 43.2316 73.6773 58.5097 79.9261 65.8849C81.0892 67.2577 83.483 66.6952 83.6753 64.9063C83.8899 62.9103 84 60.883 84 58.8299C84 28.4617 61.7454 14.368 31.7146 13.772Z" fill="#A3ABBB"/>
</svg>
