<!DOCTYPE svg PUBLIC "-//W3C//DTD SVG 1.1//EN" "http://www.w3.org/Graphics/SVG/1.1/DTD/svg11.dtd">
<!-- Uploaded to: SVG Repo, www.svgrepo.com, Transformed by: SVG Repo Mixer Tools -->
<svg width="800px" height="800px" viewBox="0 0 512 512" id="Layer_1" version="1.1" xml:space="preserve" xmlns="http://www.w3.org/2000/svg" xmlns:xlink="http://www.w3.org/1999/xlink" fill="#000000">
<g id="SVGRepo_bgCarrier" stroke-width="0"/>
<g id="SVGRepo_tracerCarrier" stroke-linecap="round" stroke-linejoin="round"/>
<g id="SVGRepo_iconCarrier"> <style type="text/css"> .st0{fill:#424242;} .st1{fill:#424242;} </style> <g> <g> <g> <path class="st0" d="M450.1,213.3H197.8c-6.6,0-12-5.4-12-12s5.4-12,12-12h252.3c6.6,0,12,5.4,12,12S456.7,213.3,450.1,213.3z"/> </g> <g> <path class="st0" d="M450.1,110.4H198c-6.6,0-12-5.4-12-12s5.4-12,12-12h252.1c6.6,0,12,5.4,12,12S456.7,110.4,450.1,110.4z"/> </g> <g> <path class="st0" d="M449.9,316.3H198c-6.6,0-12-5.4-12-12s5.4-12,12-12h251.9c6.6,0,12,5.4,12,12S456.5,316.3,449.9,316.3z"/> </g> <g> <path class="st0" d="M448.1,419H195.8c-6.6,0-12-5.4-12-12s5.4-12,12-12h252.3c6.6,0,12,5.4,12,12S454.7,419,448.1,419z"/> </g> </g> <path class="st1" d="M103.8,87.4L84.1,97.9c-3.7,2-5.6,6.3-4.6,10.4l0,0c1.5,5.8,8,8.7,13.3,5.8l9.9-5.3v92.8 c0,6,4.9,10.9,10.9,10.9h0c6,0,10.9-4.9,10.9-10.9V99.8c0-7.8-6.3-14.1-14.1-14.1h0C108.1,85.7,105.8,86.3,103.8,87.4z"/> <path class="st1" d="M101.6,395.1l4.1-4.3c21.4-23.1,37.8-42.7,37.8-66.8c0-18.9-11.1-38-35.9-38c-9.3,0-18.2,2.7-25.9,7.8 c-3.9,2.6-5.2,7.9-2.9,12l0,0c2.5,4.5,8.2,6,12.7,3.4c4.4-2.5,8.8-3.8,13.2-3.8c15,0,18.2,11.2,18.2,20.6 c-0.1,17.4-12.6,32.7-39.3,61.2l-9.5,10.4c-1.7,1.9-2.7,4.3-2.7,6.9v0c0,5.6,4.5,10.2,10.2,10.2h54.8c5.4,0,9.8-4.4,9.8-9.8l0,0 c0-5.4-4.4-9.8-9.8-9.8H101.6z"/> </g> </g>
</svg>