<svg width="128" height="119" viewBox="0 0 128 119" fill="none" xmlns="http://www.w3.org/2000/svg">
<rect x="36.4297" y="6.71094" width="86.3787" height="84.7412" fill="#80A9AD"/>
<path fill-rule="evenodd" clip-rule="evenodd" d="M127.997 13.6665C127.997 6.43154 122.132 0.566406 114.897 0.566406H45.0298C37.7948 0.566406 31.9297 6.43154 31.9297 13.6665V83.5337C31.9297 90.7688 37.7948 96.6338 45.0298 96.6338H114.897C122.132 96.6338 127.997 90.7688 127.997 83.5337V13.6665ZM119.264 13.6665C119.264 11.2549 117.309 9.2998 114.897 9.2998H45.0298C42.6181 9.2998 40.6631 11.2549 40.6631 13.6665V83.5337C40.6631 85.9454 42.6181 87.9004 45.0298 87.9004H114.897C117.309 87.9004 119.264 85.9454 119.264 83.5337V13.6665Z" fill="#161616"/>
<path d="M48.5511 72.7062L67.3954 38.1585C69.0504 35.1243 73.4074 35.1243 75.0624 38.1585L88.8987 63.5252L93.6379 55.232C95.3143 52.2984 99.5439 52.2984 101.22 55.232L111.163 72.6311C112.826 75.5419 110.724 79.1641 107.371 79.1641H52.3846C49.07 79.1641 46.9639 75.6161 48.5511 72.7062Z" fill="#1C3E11"/>
<path d="M106.166 31.1357C106.166 35.9591 102.256 39.8691 97.4326 39.8691C92.6092 39.8691 88.6992 35.9591 88.6992 31.1357C88.6992 26.3124 92.6092 22.4023 97.4326 22.4023C102.256 22.4023 106.166 26.3124 106.166 31.1357Z" fill="#E7E6C8"/>
<rect x="4.91797" y="28.4062" width="86.3787" height="84.7412" fill="#D8F1F8"/>
<path fill-rule="evenodd" clip-rule="evenodd" d="M96.0674 35.354C96.0674 28.119 90.2024 22.2539 82.9673 22.2539H13.1001C5.86513 22.2539 0 28.119 0 35.354V105.221C0 112.456 5.86513 118.321 13.1001 118.321H82.9673C90.2024 118.321 96.0674 112.456 96.0674 105.221V35.354ZM87.334 35.354C87.334 32.9424 85.379 30.9873 82.9673 30.9873H13.1001C10.6885 30.9873 8.7334 32.9424 8.7334 35.354V105.221C8.7334 107.633 10.6885 109.588 13.1001 109.588H82.9673C85.379 109.588 87.334 107.633 87.334 105.221V35.354Z" fill="#161616"/>
<path d="M16.6214 94.3937L35.4657 59.846C37.1207 56.8118 41.4777 56.8118 43.1327 59.846L56.969 85.2127L61.7082 76.9195C63.3846 73.9859 67.6142 73.9859 69.2905 76.9195L79.2331 94.3186C80.8964 97.2294 78.7942 100.852 75.4415 100.852H20.4549C17.1403 100.852 15.0342 97.3036 16.6214 94.3937Z" fill="#38AC31"/>
<path d="M74.2363 52.8232C74.2363 57.6466 70.3264 61.5566 65.5029 61.5566C60.6795 61.5566 56.7695 57.6466 56.7695 52.8232C56.7695 47.9999 60.6795 44.0898 65.5029 44.0898C70.3264 44.0898 74.2363 47.9999 74.2363 52.8232Z" fill="#C65348"/>
</svg>
