<svg width="800" height="800" viewBox="0 0 800 800" fill="none" xmlns="http://www.w3.org/2000/svg">
<path d="M275 150V74.95C275 68.3195 277.634 61.9607 282.322 57.2723C287.011 52.5839 293.37 49.95 300 49.95H500C506.63 49.95 512.989 52.5839 517.678 57.2723C522.366 61.9607 525 68.3195 525 74.95V150H725C731.63 150 737.989 152.634 742.678 157.322C747.366 162.011 750 168.37 750 175C750 181.63 747.366 187.989 742.678 192.678C737.989 197.366 731.63 200 725 200H75C68.3696 200 62.0107 197.366 57.3223 192.678C52.6339 187.989 50 181.63 50 175C50 168.37 52.6339 162.011 57.3223 157.322C62.0107 152.634 68.3696 150 75 150H275ZM325 150H475V100H325V150ZM150 750C143.37 750 137.011 747.366 132.322 742.678C127.634 737.989 125 731.63 125 725V200H675V725C675 731.63 672.366 737.989 667.678 742.678C662.989 747.366 656.63 750 650 750H150ZM325 600C331.63 600 337.989 597.366 342.678 592.678C347.366 587.989 350 581.63 350 575V325C350 318.37 347.366 312.011 342.678 307.322C337.989 302.634 331.63 300 325 300C318.37 300 312.011 302.634 307.322 307.322C302.634 312.011 300 318.37 300 325V575C300 581.63 302.634 587.989 307.322 592.678C312.011 597.366 318.37 600 325 600ZM475 600C481.63 600 487.989 597.366 492.678 592.678C497.366 587.989 500 581.63 500 575V325C500 318.37 497.366 312.011 492.678 307.322C487.989 302.634 481.63 300 475 300C468.37 300 462.011 302.634 457.322 307.322C452.634 312.011 450 318.37 450 325V575C450 581.63 452.634 587.989 457.322 592.678C462.011 597.366 468.37 600 475 600Z" fill="#E63131"/>
</svg>
