<svg width="130" height="130" viewBox="0 0 130 130" fill="none" xmlns="http://www.w3.org/2000/svg">
<g clip-path="url(#clip0_613_546)">
<path d="M65 130C100.899 130 130 100.899 130 65C130 29.1015 100.899 0 65 0C29.1015 0 0 29.1015 0 65C0 100.899 29.1015 130 65 130Z" fill="#048F46"/>
<path d="M65 0C29.1015 0 0 29.1015 0 65C0 100.899 29.1015 130 65 130V0Z" fill="#3DDB86"/>
<path d="M65 110.083C40.1411 110.083 19.9169 89.859 19.9169 65.0001C19.9169 40.1411 40.1411 19.917 65 19.917C77.0428 19.917 88.3645 24.6069 96.8795 33.1221L91.2509 38.75C84.2392 31.7376 74.9166 27.8762 65 27.8762C44.5298 27.8762 27.8759 44.5296 27.8759 65.0003C27.8759 85.471 44.5298 102.124 65 102.124C85.4702 102.124 102.124 85.4703 102.124 65.0001H110.083C110.083 89.859 89.8589 110.083 65 110.083Z" fill="#424242"/>
<path d="M65 86.1869C53.3175 86.1869 43.8133 76.6827 43.8133 65.0002C43.8133 53.3177 53.3175 43.8135 65 43.8135C70.6596 43.8135 75.9802 46.0176 79.982 50.0194L74.3534 55.6473C71.8552 53.1486 68.5331 51.7727 64.9997 51.7727C57.706 51.7727 51.772 57.7065 51.772 65.0004C51.772 72.2941 57.7058 78.2282 64.9997 78.2282C72.2937 78.2282 78.2275 72.2944 78.2275 65.0004H86.1867C86.1867 76.6827 76.6825 86.1869 65 86.1869Z" fill="#424242"/>
<path d="M102.984 54.2415C105.731 54.2415 107.958 52.0146 107.958 49.2675C107.958 46.5204 105.731 44.2935 102.984 44.2935C100.237 44.2935 98.0098 46.5204 98.0098 49.2675C98.0098 52.0146 100.237 54.2415 102.984 54.2415Z" fill="#EE2712"/>
<path d="M62.1859 62.1872L67.8138 67.8152L120.568 15.0613L114.94 9.43331L62.1859 62.1872Z" fill="#EAEAEA"/>
</g>
<defs>
<clipPath id="clip0_613_546">
<rect width="130" height="130" fill="white"/>
</clipPath>
</defs>
</svg>
