<svg width="512" height="512" viewBox="0 0 512 512" fill="none" xmlns="http://www.w3.org/2000/svg">
<g clip-path="url(#clip0_1825_410)">
<path d="M256 512C397.385 512 512 397.385 512 256C512 114.615 397.385 0 256 0C114.615 0 0 114.615 0 256C0 397.385 114.615 512 256 512Z" fill="#00E06A"/>
<path d="M256 0C114.615 0 0 114.615 0 256C0 397.385 114.615 512 256 512V0Z" fill="#00E06A"/>
<path d="M256 433.558C158.094 433.558 78.442 353.906 78.442 256C78.442 158.094 158.094 78.4424 256 78.4424C303.43 78.4424 348.02 96.9134 381.556 130.45L359.388 152.615C331.773 124.997 295.056 109.789 256 109.789C175.379 109.789 109.788 175.378 109.788 256.001C109.788 336.624 175.379 402.211 256 402.211C336.621 402.211 402.211 336.621 402.211 256H433.558C433.558 353.906 353.906 433.558 256 433.558Z" fill="#424242"/>
<path d="M256 339.444C209.989 339.444 172.557 302.012 172.557 256.001C172.557 209.99 209.989 172.558 256 172.558C278.29 172.558 299.245 181.239 315.006 197L292.838 219.165C282.999 209.324 269.915 203.905 255.999 203.905C227.273 203.905 203.902 227.275 203.902 256.002C203.902 284.728 227.272 308.099 255.999 308.099C284.726 308.099 308.096 284.729 308.096 256.002H339.443C339.443 302.012 302.011 339.444 256 339.444Z" fill="#424242"/>
<path d="M405.598 213.628C416.417 213.628 425.188 204.857 425.188 194.038C425.188 183.219 416.417 174.448 405.598 174.448C394.779 174.448 386.008 183.219 386.008 194.038C386.008 204.857 394.779 213.628 405.598 213.628Z" fill="#EE2712"/>
<path d="M244.917 244.921L267.082 267.087L474.851 59.3176L452.686 37.1521L244.917 244.921Z" fill="#EAEAEA"/>
</g>
<defs>
<clipPath id="clip0_1825_410">
<rect width="512" height="512" fill="white"/>
</clipPath>
</defs>
</svg>
