<svg width="150" height="150" viewBox="0 0 150 150" fill="none" xmlns="http://www.w3.org/2000/svg">
<path d="M82.7906 2.57275V14.1333H67.2097V2.57275H39.3396V147.427H67.2097V135.866H82.7906V147.427H110.661V2.57275H82.7906Z" fill="#515262"/>
<g opacity="0.1">
<path d="M53.0625 2.57275H39.3407V147.428H53.0625V2.57275Z" fill="black"/>
</g>
<path d="M82.7912 31.1006H67.21V66.5132H82.7912V31.1006Z" fill="white"/>
<path d="M82.7912 83.4836H67.21V118.896H82.7912V83.4836Z" fill="white"/>
<path d="M123.769 89.357V60.6428L142.821 75L123.769 89.357Z" fill="#7DD2F0"/>
<path d="M26.2315 89.357V60.6428L7.1792 75L26.2315 89.357Z" fill="#7DD2F0"/>
<path d="M82.7906 69.0884H67.2094C65.7882 69.0884 64.6365 67.9367 64.6365 66.5155V31.1012C64.6365 29.68 65.7882 28.5283 67.2094 28.5283H82.7906C84.2118 28.5283 85.3635 29.68 85.3635 31.1012V66.5155C85.3635 67.937 84.2115 69.0884 82.7906 69.0884ZM69.7825 63.9427H80.2181V33.674H69.7825V63.9427Z" fill="black"/>
<path d="M82.7906 121.471H67.2094C65.7882 121.471 64.6365 120.32 64.6365 118.898V83.4837C64.6365 82.0626 65.7882 80.9109 67.2094 80.9109H82.7906C84.2118 80.9109 85.3635 82.0626 85.3635 83.4837V118.898C85.3635 120.319 84.2115 121.471 82.7906 121.471ZM69.7825 116.326H80.2181V86.0566H69.7825V116.326Z" fill="black"/>
<path d="M123.768 91.9297C123.377 91.9297 122.984 91.8407 122.621 91.6593C121.748 91.224 121.196 90.3325 121.196 89.3569V60.6427C121.196 59.6671 121.748 58.7756 122.621 58.3403C123.494 57.9046 124.538 58.001 125.317 58.5878L144.369 72.9451C145.015 73.4314 145.394 74.1925 145.394 75C145.394 75.8074 145.015 76.5685 144.369 77.0548L125.317 91.4121C124.862 91.7548 124.317 91.9297 123.768 91.9297ZM126.342 65.8031V84.1963L138.546 74.9994L126.342 65.8031Z" fill="black"/>
<path d="M26.2318 91.9297C25.6831 91.9297 25.1382 91.7545 24.6829 91.4117L5.63057 77.0545C4.98516 76.5681 4.60635 75.807 4.60635 74.9996C4.60635 74.1922 4.98546 73.431 5.63057 72.9447L24.6829 58.5875C25.4619 58.0007 26.5058 57.9046 27.3794 58.3399C28.2524 58.7753 28.8041 59.6668 28.8041 60.6424V89.3565C28.8041 90.3321 28.2524 91.2236 27.3794 91.659C27.0161 91.8406 26.623 91.9297 26.2318 91.9297ZM11.4542 74.9999L23.6587 84.1968V65.8033L11.4542 74.9999Z" fill="black"/>
<path d="M110.661 113.8C109.24 113.8 108.088 112.648 108.088 111.227V5.1457H85.3641V14.1334C85.3641 15.5546 84.2124 16.7062 82.7912 16.7062H67.2097C65.7885 16.7062 64.6368 15.5546 64.6368 14.1334V5.1457H41.9124V20.2178C41.9124 21.639 40.7607 22.7906 39.3395 22.7906C37.9184 22.7906 36.7667 21.639 36.7667 20.2178V2.57285C36.7667 1.15166 37.9184 0 39.3395 0H67.2097C68.6309 0 69.7825 1.15166 69.7825 2.57285V11.5605H80.2184V2.57285C80.2184 1.15166 81.37 0 82.7912 0H110.661C112.082 0 113.234 1.15166 113.234 2.57285V111.227C113.234 112.648 112.082 113.8 110.661 113.8Z" fill="black"/>
<path d="M110.661 150H82.7912C81.37 150 80.2184 148.848 80.2184 147.427V138.439H69.7825V147.427C69.7825 148.848 68.6309 150 67.2097 150H39.3395C37.9184 150 36.7667 148.848 36.7667 147.427V30.5091C36.7667 29.0879 37.9184 27.9363 39.3395 27.9363C40.7607 27.9363 41.9124 29.0879 41.9124 30.5091V144.854H64.6368V135.867C64.6368 134.445 65.7885 133.294 67.2097 133.294H82.7912C84.2124 133.294 85.3641 134.445 85.3641 135.867V144.854H108.088V121.518C108.088 120.097 109.24 118.946 110.661 118.946C112.082 118.946 113.234 120.097 113.234 121.518V147.427C113.234 148.848 112.082 150 110.661 150Z" fill="black"/>
</svg>
