<svg width="150" height="150" viewBox="0 0 150 150" fill="none" xmlns="http://www.w3.org/2000/svg">
<path d="M51.5158 18.9366C54.8645 19.7738 56.9005 23.1671 56.0633 26.5159L31.0633 126.516C30.2262 129.864 26.8328 131.901 23.4841 131.063C20.1354 130.226 18.0994 126.833 18.9366 123.484L43.9366 23.4842C44.7738 20.1354 48.1671 18.0994 51.5158 18.9366ZM106.063 23.4842L131.063 123.484C131.901 126.833 129.864 130.226 126.516 131.063C123.167 131.901 119.774 129.864 118.937 126.516L93.9369 26.5159C93.0994 23.1671 95.1356 19.7738 98.4844 18.9366C101.833 18.0994 105.226 20.1354 106.063 23.4842ZM75 106.25C78.2053 106.25 80.8469 108.663 81.208 111.771L81.25 112.5V125C81.25 128.452 78.4519 131.25 75 131.25C71.7947 131.25 69.1531 128.837 68.792 125.729L68.75 125V112.5C68.75 109.048 71.5481 106.25 75 106.25ZM75 62.5C78.4519 62.5 81.25 65.2982 81.25 68.75V81.25C81.25 84.7019 78.4519 87.5 75 87.5C71.5481 87.5 68.75 84.7019 68.75 81.25V68.75C68.75 65.2982 71.5481 62.5 75 62.5ZM75 18.75C78.2053 18.75 80.8469 21.1628 81.208 24.2711L81.25 25V37.5C81.25 40.9518 78.4519 43.75 75 43.75C71.7947 43.75 69.1531 41.3373 68.792 38.2289L68.75 37.5V25C68.75 21.5483 71.5481 18.75 75 18.75Z" fill="black"/>
</svg>
