<svg width="150" height="150" viewBox="0 0 150 150" fill="none" xmlns="http://www.w3.org/2000/svg">
<path d="M82.7908 2.57275V14.1333H67.2099V2.57275H39.3398V147.427H67.2099V135.866H82.7908V147.427H110.661V2.57275H82.7908Z" fill="#515262"/>
<g opacity="0.1">
<path d="M53.0626 2.57275H39.3408V147.428H53.0626V2.57275Z" fill="black"/>
</g>
<path d="M82.7912 31.1006H67.21V66.5132H82.7912V31.1006Z" fill="#20FA70"/>
<path d="M82.7912 83.4836H67.21V118.896H82.7912V83.4836Z" fill="#20FA70"/>
<path d="M123.769 89.357V60.6428L142.821 75L123.769 89.357Z" fill="#20FA70"/>
<path d="M26.232 89.357V60.6428L7.17969 75L26.232 89.357Z" fill="#20FA70"/>
<path d="M82.7908 69.0884H67.2096C65.7884 69.0884 64.6367 67.9367 64.6367 66.5155V31.1012C64.6367 29.68 65.7884 28.5283 67.2096 28.5283H82.7908C84.212 28.5283 85.3637 29.68 85.3637 31.1012V66.5155C85.3637 67.937 84.2117 69.0884 82.7908 69.0884ZM69.7827 63.9427H80.2183V33.674H69.7827V63.9427Z" fill="black"/>
<path d="M82.7908 121.471H67.2096C65.7884 121.471 64.6367 120.32 64.6367 118.898V83.4837C64.6367 82.0626 65.7884 80.9109 67.2096 80.9109H82.7908C84.212 80.9109 85.3637 82.0626 85.3637 83.4837V118.898C85.3637 120.319 84.2117 121.471 82.7908 121.471ZM69.7827 116.326H80.2183V86.0566H69.7827V116.326Z" fill="black"/>
<path d="M123.768 91.9297C123.377 91.9297 122.984 91.8407 122.621 91.6593C121.748 91.224 121.196 90.3325 121.196 89.3569V60.6427C121.196 59.6671 121.748 58.7756 122.621 58.3403C123.494 57.9046 124.538 58.001 125.317 58.5878L144.369 72.9451C145.015 73.4314 145.394 74.1925 145.394 75C145.394 75.8074 145.015 76.5685 144.369 77.0548L125.317 91.4121C124.862 91.7548 124.317 91.9297 123.768 91.9297ZM126.342 65.8031V84.1963L138.546 74.9994L126.342 65.8031Z" fill="black"/>
<path d="M26.2319 91.9297C25.6832 91.9297 25.1383 91.7545 24.683 91.4117L5.63067 77.0545C4.98526 76.5681 4.60645 75.807 4.60645 74.9996C4.60645 74.1922 4.98556 73.431 5.63067 72.9447L24.683 58.5875C25.462 58.0007 26.5059 57.9046 27.3795 58.3399C28.2525 58.7753 28.8042 59.6668 28.8042 60.6424V89.3565C28.8042 90.3321 28.2525 91.2236 27.3795 91.659C27.0162 91.8406 26.6231 91.9297 26.2319 91.9297ZM11.4543 74.9999L23.6588 84.1968V65.8033L11.4543 74.9999Z" fill="black"/>
<path d="M110.661 113.8C109.24 113.8 108.088 112.648 108.088 111.227V5.1457H85.364V14.1334C85.364 15.5546 84.2123 16.7062 82.7911 16.7062H67.2096C65.7884 16.7062 64.6367 15.5546 64.6367 14.1334V5.1457H41.9123V20.2178C41.9123 21.639 40.7606 22.7906 39.3394 22.7906C37.9183 22.7906 36.7666 21.639 36.7666 20.2178V2.57285C36.7666 1.15166 37.9183 0 39.3394 0H67.2096C68.6308 0 69.7824 1.15166 69.7824 2.57285V11.5605H80.2183V2.57285C80.2183 1.15166 81.3699 0 82.7911 0H110.661C112.082 0 113.234 1.15166 113.234 2.57285V111.227C113.234 112.648 112.082 113.8 110.661 113.8Z" fill="black"/>
<path d="M110.661 150H82.7911C81.3699 150 80.2183 148.848 80.2183 147.427V138.439H69.7824V147.427C69.7824 148.848 68.6308 150 67.2096 150H39.3394C37.9183 150 36.7666 148.848 36.7666 147.427V30.5091C36.7666 29.0879 37.9183 27.9363 39.3394 27.9363C40.7606 27.9363 41.9123 29.0879 41.9123 30.5091V144.854H64.6367V135.867C64.6367 134.445 65.7884 133.294 67.2096 133.294H82.7911C84.2123 133.294 85.364 134.445 85.364 135.867V144.854H108.088V121.518C108.088 120.097 109.24 118.946 110.661 118.946C112.082 118.946 113.234 120.097 113.234 121.518V147.427C113.234 148.848 112.082 150 110.661 150Z" fill="black"/>
</svg>
