<svg width="688" height="554" viewBox="0 0 688 554" fill="none" xmlns="http://www.w3.org/2000/svg">
<path d="M431.987 69.3624C435.074 61.8228 432.283 54.1275 425.759 52.1717C419.23 50.2179 411.438 54.7478 408.352 62.2897L259.756 425.394C257.145 431.775 258.74 438.266 263.245 441.297C264.065 441.849 264.982 442.286 265.988 442.587C272.512 444.541 280.306 440.01 283.392 432.47L431.987 69.3624Z" fill="#1B1B1B"/>
<path d="M593.744 300.005C612.231 254.091 630.705 208.172 649.19 162.257C651.189 157.285 652.572 151.378 645.533 145.361C590.664 97.2815 508.856 126.277 453.988 78.1967C449.834 74.1698 445.087 74.3297 443.087 79.3005C424.604 125.216 406.023 171.094 387.64 217.049C384.69 224.424 387.144 229.917 391.298 233.945C446.165 282.025 527.975 253.03 582.844 301.111C586.999 305.136 591.744 304.976 593.744 300.005ZM630.538 156.634C625.437 169.302 620.341 181.971 615.24 194.638C602.726 185.811 590.087 180.129 575.433 175.776C580.534 163.11 585.631 150.439 590.731 137.773C605.383 142.126 618.024 147.806 630.538 156.634ZM421.816 184.109C427.606 169.713 433.403 155.319 439.197 140.926C452.313 150.255 465.805 156.082 481.276 160.378C486.374 147.709 491.473 135.041 496.574 122.374C512.154 125.971 527.848 128.041 543.714 129.92C538.614 142.586 533.517 155.257 528.417 167.924C512.552 166.045 496.855 163.976 481.276 160.378C475.483 174.772 469.688 189.167 463.894 203.56C448.422 199.263 434.932 193.437 421.816 184.109ZM448.374 242.122C453.546 229.268 458.721 216.414 463.895 203.559C479.364 207.134 494.941 209.198 510.694 211.063C505.52 223.918 500.346 236.772 495.171 249.626C479.419 247.763 463.842 245.696 448.374 242.122ZM511.034 211.104C516.83 196.712 522.624 182.317 528.418 167.923C544.271 169.815 559.909 171.979 575.432 175.777C569.64 190.172 563.846 204.566 558.051 218.959C542.529 215.164 526.888 212.997 511.034 211.104ZM542.793 257.593C547.965 244.739 553.14 231.885 558.314 219.03C572.866 223.377 585.427 229.047 597.857 237.821C592.683 250.676 587.51 263.53 582.337 276.384C569.907 267.611 557.344 261.939 542.793 257.593Z" fill="#1B1B1B"/>
<path d="M255.38 69.3624C252.294 61.8228 255.084 54.1275 261.608 52.1717C268.137 50.2179 275.929 54.7478 279.016 62.2897L427.611 425.394C430.223 431.775 428.628 438.266 424.123 441.297C423.302 441.849 422.385 442.286 421.38 442.587C414.855 444.541 407.061 440.01 403.975 432.47L255.38 69.3624Z" fill="#1B1B1B"/>
<path d="M93.6231 300.005C75.1366 254.091 56.662 208.172 38.1776 162.257C36.1784 157.285 34.795 151.378 41.8346 145.361C96.7028 97.2815 178.511 126.277 233.379 78.1967C237.533 74.1698 242.28 74.3297 244.28 79.3005C262.763 125.216 281.344 171.094 299.727 217.049C302.677 224.424 300.224 229.917 296.069 233.945C241.202 282.025 159.392 253.03 104.523 301.111C100.369 305.136 95.6236 304.976 93.6231 300.005ZM56.8296 156.634C61.9302 169.302 67.0261 181.971 72.1267 194.638C84.6408 185.811 97.2798 180.129 111.934 175.776C106.833 163.11 101.737 150.439 96.6358 137.773C81.9838 142.126 69.3432 147.806 56.8296 156.634ZM265.551 184.109C259.761 169.713 253.964 155.319 248.17 140.926C235.054 150.255 221.563 156.082 206.091 160.378C200.993 147.709 195.894 135.041 190.793 122.374C175.213 125.971 159.519 128.041 143.653 129.92C148.753 142.586 153.85 155.257 158.95 167.924C174.815 166.045 190.512 163.976 206.091 160.378C211.884 174.772 217.679 189.167 223.473 203.56C238.945 199.263 252.435 193.437 265.551 184.109ZM238.993 242.122C233.821 229.268 228.646 216.414 223.472 203.559C208.003 207.134 192.426 209.198 176.673 211.063C181.848 223.918 187.021 236.772 192.196 249.626C207.948 247.763 223.525 245.696 238.993 242.122ZM176.334 211.104C170.537 196.712 164.744 182.317 158.949 167.923C143.096 169.815 127.458 171.979 111.935 175.777C117.727 190.172 123.521 204.566 129.316 218.959C144.839 215.164 160.479 212.997 176.334 211.104ZM144.574 257.593C139.402 244.739 134.227 231.885 129.053 219.03C114.501 223.377 101.94 229.047 89.5102 237.821C94.6837 250.676 99.8573 263.53 105.03 276.384C117.461 267.611 130.023 261.939 144.574 257.593Z" fill="#1B1B1B"/>
</svg>
