<svg width="20" height="20" viewBox="0 0 20 20" fill="none" xmlns="http://www.w3.org/2000/svg">
<path fill-rule="evenodd" clip-rule="evenodd" d="M6.92916 2.47028C5.65795 2.3282 4.34204 2.3282 3.07082 2.47028C2.76193 2.5048 2.51833 2.74939 2.48359 3.04645C2.33178 4.34439 2.33178 5.6556 2.48359 6.95355C2.51833 7.2506 2.76193 7.49519 3.07082 7.52972C4.34204 7.67179 5.65795 7.67179 6.92916 7.52972C7.23805 7.49519 7.48165 7.2506 7.5164 6.95355C7.6682 5.6556 7.6682 4.34439 7.5164 3.04645C7.48165 2.74939 7.23805 2.5048 6.92916 2.47028ZM2.90421 0.979563C4.28616 0.825111 5.71383 0.825111 7.09577 0.979563C8.08661 1.0903 8.88906 1.87029 9.00624 2.8722C9.17159 4.28591 9.17159 5.71408 9.00624 7.1278C8.88906 8.12971 8.08661 8.90969 7.09577 9.02043C5.71383 9.17489 4.28616 9.17489 2.90421 9.02043C1.91337 8.90969 1.11093 8.12971 0.993746 7.1278C0.828399 5.71408 0.828399 4.28591 0.993746 2.8722C1.11093 1.87029 1.91337 1.0903 2.90421 0.979563Z" fill="black"/>
<path fill-rule="evenodd" clip-rule="evenodd" d="M6.92916 12.4703C5.65795 12.3282 4.34204 12.3282 3.07082 12.4703C2.76193 12.5048 2.51833 12.7494 2.48359 13.0465C2.33178 14.3444 2.33178 15.6556 2.48359 16.9535C2.51833 17.2506 2.76193 17.4952 3.07082 17.5297C4.34204 17.6718 5.65795 17.6718 6.92916 17.5297C7.23805 17.4952 7.48165 17.2506 7.5164 16.9535C7.6682 15.6556 7.6682 14.3444 7.5164 13.0465C7.48165 12.7494 7.23805 12.5048 6.92916 12.4703ZM2.90421 10.9796C4.28616 10.8251 5.71383 10.8251 7.09577 10.9796C8.08661 11.0903 8.88906 11.8703 9.00624 12.8722C9.17159 14.2859 9.17159 15.7141 9.00624 17.1278C8.88906 18.1297 8.08661 18.9097 7.09577 19.0204C5.71383 19.1749 4.28616 19.1749 2.90421 19.0204C1.91337 18.9097 1.11093 18.1297 0.993746 17.1278C0.828399 15.7141 0.828399 14.2859 0.993746 12.8722C1.11093 11.8703 1.91337 11.0903 2.90421 10.9796Z" fill="black"/>
<path fill-rule="evenodd" clip-rule="evenodd" d="M16.9292 2.47028C15.6579 2.3282 14.342 2.3282 13.0708 2.47028C12.7619 2.5048 12.5183 2.74939 12.4836 3.04645C12.3318 4.34439 12.3318 5.6556 12.4836 6.95355C12.5183 7.2506 12.7619 7.49519 13.0708 7.52972C14.342 7.67179 15.6579 7.67179 16.9292 7.52972C17.2381 7.49519 17.4817 7.2506 17.5164 6.95355C17.6682 5.6556 17.6682 4.34439 17.5164 3.04645C17.4817 2.74939 17.2381 2.5048 16.9292 2.47028ZM12.9042 0.979563C14.2862 0.825111 15.7138 0.825111 17.0958 0.979563C18.0866 1.0903 18.8891 1.87029 19.0062 2.8722C19.1716 4.28591 19.1716 5.71408 19.0062 7.1278C18.8891 8.12971 18.0866 8.90969 17.0958 9.02043C15.7138 9.17489 14.2862 9.17489 12.9042 9.02043C11.9134 8.90969 11.1109 8.12971 10.9937 7.1278C10.8284 5.71408 10.8284 4.28591 10.9937 2.8722C11.1109 1.87029 11.9134 1.0903 12.9042 0.979563Z" fill="black"/>
<path fill-rule="evenodd" clip-rule="evenodd" d="M16.9292 12.4703C15.6579 12.3282 14.342 12.3282 13.0708 12.4703C12.7619 12.5048 12.5183 12.7494 12.4836 13.0465C12.3318 14.3444 12.3318 15.6556 12.4836 16.9535C12.5183 17.2506 12.7619 17.4952 13.0708 17.5297C14.342 17.6718 15.6579 17.6718 16.9292 17.5297C17.2381 17.4952 17.4817 17.2506 17.5164 16.9535C17.6682 15.6556 17.6682 14.3444 17.5164 13.0465C17.4817 12.7494 17.2381 12.5048 16.9292 12.4703ZM12.9042 10.9796C14.2862 10.8251 15.7138 10.8251 17.0958 10.9796C18.0866 11.0903 18.8891 11.8703 19.0062 12.8722C19.1716 14.2859 19.1716 15.7141 19.0062 17.1278C18.8891 18.1297 18.0866 18.9097 17.0958 19.0204C15.7138 19.1749 14.2862 19.1749 12.9042 19.0204C11.9134 18.9097 11.1109 18.1297 10.9937 17.1278C10.8284 15.7141 10.8284 14.2859 10.9937 12.8722C11.1109 11.8703 11.9134 11.0903 12.9042 10.9796Z" fill="black"/>
</svg>
