<svg width="125" height="125" viewBox="0 0 125 125" fill="none" xmlns="http://www.w3.org/2000/svg">
<rect x="3" y="3" width="103.275" height="103.275" rx="4" stroke="black" stroke-width="6"/>
<rect x="3" y="3" width="103.275" height="103.275" rx="4" stroke="#3DBE4C" stroke-width="6"/>
<path d="M72.7058 82.6853C72.7058 85.8038 76.37 86.7393 78.2411 87.2071C84.1662 88.7664 96.0164 91.8069 96.0164 91.8069C98.5111 92.6644 100.46 94.5355 101.552 96.9523V104.593H23.5898V96.9523C24.6033 94.5355 26.6304 92.6644 29.1251 91.8069C29.1251 91.8069 40.9753 88.7664 46.9004 87.2071C48.7715 86.7393 52.4357 85.8038 52.4357 82.6853C52.4357 79.5669 52.4357 74.1875 52.4357 74.1875H72.7058C72.7058 74.1875 72.7058 79.5669 72.7058 82.6853Z" fill="#EECFB1"/>
<mask id="mask0_1912_1068" style="mask-type:luminance" maskUnits="userSpaceOnUse" x="23" y="74" width="79" height="31">
<path d="M72.7136 82.6892C72.7136 85.8077 76.3778 86.7433 78.2489 87.211C84.174 88.7703 96.0242 91.8108 96.0242 91.8108C98.519 92.6684 100.468 94.5394 101.559 96.9562V104.597H23.5977V96.9562C24.6112 94.5394 26.6382 92.6684 29.1329 91.8108C29.1329 91.8108 40.9831 88.7703 46.9082 87.211C48.7793 86.7433 52.4435 85.8077 52.4435 82.6892C52.4435 79.5708 52.4435 74.1914 52.4435 74.1914H72.7136C72.7136 74.1914 72.7136 79.5708 72.7136 82.6892Z" fill="white"/>
</mask>
<g mask="url(#mask0_1912_1068)">
<path d="M62.7242 35.207C62.8021 35.207 62.8021 35.207 62.8801 35.207C65.4528 35.207 69.2729 35.363 71.7677 36.7663C74.3405 38.2475 77.4589 41.1321 78.3945 46.1996C80.2656 56.8804 76.7573 73.7981 73.4829 79.2554C70.3644 84.4789 65.8426 86.4279 62.958 86.5839H62.8801C62.8021 86.5839 62.8021 86.5839 62.7242 86.5839C62.6462 86.5839 62.6462 86.5839 62.5682 86.5839H62.4903C59.6057 86.4279 55.0839 84.4789 51.9654 79.2554C48.691 73.7981 45.1828 56.8804 47.0538 46.1996C47.9894 41.1321 51.1079 38.2475 53.6806 36.7663C56.1754 35.363 59.9955 35.207 62.5682 35.207C62.6462 35.207 62.6462 35.207 62.7242 35.207Z" fill="#DFBE9C"/>
</g>
<path d="M62.4404 37.7383C77.3311 37.7383 78.5784 48.497 78.6564 49.5105C79.514 58.788 76.3175 71.4178 73.355 75.7836C70.2365 80.3834 65.7147 82.0985 62.8302 82.2545C62.6742 82.2545 62.6742 82.2545 62.5963 82.2545C62.5183 82.2545 62.5183 82.2545 62.4404 82.2545C59.4778 82.0206 54.956 80.3054 51.8375 75.7057C48.875 71.3398 45.6786 58.71 46.5361 49.3546C46.6141 48.419 47.5496 37.7383 62.4404 37.7383Z" fill="#F8D5AD"/>
<rect x="18.7227" y="18.7266" width="103.275" height="103.275" rx="4" stroke="#DB4343" stroke-width="6"/>
</svg>
