<svg width="200" height="187" viewBox="0 0 200 187" fill="none" xmlns="http://www.w3.org/2000/svg">
<path d="M76.0253 87.5777C57.6292 76.9567 48.6603 55.3039 54.1581 34.7857C59.656 14.2674 78.2497 0 99.4917 0C120.734 0 139.327 14.2674 144.825 34.7857C150.323 55.3039 141.354 76.9567 122.958 87.5777L108.827 63.1025C116.146 58.8771 119.714 50.263 117.527 42.1003C115.34 33.9375 107.942 28.2615 99.4917 28.2615C91.041 28.2615 83.6439 33.9375 81.4566 42.1003C79.2694 50.263 82.8375 58.8771 90.1561 63.1025L76.0253 87.5777Z" fill="#FF0101"/>
<path d="M176.529 98.934C194.926 109.555 203.894 131.208 198.397 151.726C192.899 172.244 174.305 186.512 153.063 186.512C131.821 186.512 113.227 172.244 107.729 151.726C102.232 131.208 111.201 109.555 129.597 98.934L143.727 123.409C136.409 127.635 132.841 136.249 135.028 144.411C137.215 152.574 144.612 158.25 153.063 158.25C161.514 158.25 168.911 152.574 171.098 144.411C173.285 136.249 169.717 127.635 162.399 123.409L176.529 98.934Z" fill="#0101FF"/>
<path d="M93.8666 139.578C93.8666 160.82 79.5992 179.414 59.0809 184.912C38.5627 190.41 16.9099 181.441 6.28889 163.045C-4.33212 144.649 -1.273 121.412 13.7474 106.392C28.7678 91.3715 52.0041 88.3124 70.4002 98.9334L56.2695 123.409C48.9509 119.183 39.7068 120.4 33.7313 126.376C27.7557 132.351 26.5387 141.595 30.7641 148.914C34.9894 156.233 43.6036 159.801 51.7663 157.613C59.9291 155.426 65.6051 148.029 65.6051 139.578H93.8666Z" fill="#01FF01"/>
</svg>
