<svg width="800" height="800" viewBox="0 0 800 800" fill="none" xmlns="http://www.w3.org/2000/svg">
<path fill-rule="evenodd" clip-rule="evenodd" d="M225 725V518.75C225 480.8 255.8 450 293.75 450H506.25C544.2 450 575 480.8 575 518.75V725H225ZM175 722.475C151.175 717.6 129.075 705.85 111.6 688.4C88.175 664.95 75 633.15 75 600C75 489.025 75 310.975 75 200C75 166.85 88.175 135.05 111.6 111.6C135.05 88.175 166.85 75 200 75H250V202.075C250 257.1 290.325 300 337.5 300H462.5C509.675 300 550 257.1 550 202.075V75H555.525C561.525 75 567.325 77.175 571.875 81.1L716.35 206.1C721.85 210.85 725 217.75 725 225C725 225 725 460.65 725 600C725 633.15 711.825 664.95 688.4 688.4C670.925 705.85 648.825 717.6 625 722.475V518.75C625 453.2 571.8 400 506.25 400H293.75C228.2 400 175 453.2 175 518.75V722.475ZM500 75V202.075C500 227.575 484.35 250 462.5 250H337.5C315.65 250 300 227.575 300 202.075V75H500Z" fill="#B93535"/>
</svg>
