<!DOCTYPE svg PUBLIC "-//W3C//DTD SVG 1.1//EN" "http://www.w3.org/Graphics/SVG/1.1/DTD/svg11.dtd">
<!-- Uploaded to: SVG Repo, www.svgrepo.com, Transformed by: SVG Repo Mixer Tools -->
<svg width="800px" height="800px" viewBox="0 0 24 24" xmlns="http://www.w3.org/2000/svg" fill="#2862e4">
<g id="SVGRepo_bgCarrier" stroke-width="0"/>
<g id="SVGRepo_tracerCarrier" stroke-linecap="round" stroke-linejoin="round"/>
<g id="SVGRepo_iconCarrier"> <g> <path fill="none" d="M0 0h24v24H0z"/> <path d="M21.8 14.001a10.009 10.009 0 0 1-8.4 7.902v-2.025A8.01 8.01 0 0 0 19.748 14l2.052.001zm-17.548 0a8.01 8.01 0 0 0 6.247 5.858v2.03A10.01 10.01 0 0 1 2.2 14h2.052zM18 11v2h-1a4 4 0 0 0-3.995 3.8L13 17v1h-2v-1a4 4 0 0 0-3.8-3.995L7 13H6v-2h12zm-6-9c5.185 0 9.449 3.947 9.95 9h-2.012a8.001 8.001 0 0 0-15.876 0H2.049C2.551 5.947 6.815 2 12 2z"/> </g> </g>
</svg>