<svg width="24" height="24" viewBox="0 0 24 24" fill="none" xmlns="http://www.w3.org/2000/svg">
<path d="M18.54 9.00027L8.87997 3.46027C8.35725 3.15843 7.76397 3.00031 7.16036 3.00197C6.55676 3.00362 5.96435 3.165 5.4433 3.46971C4.92225 3.77442 4.49112 4.2116 4.19372 4.73685C3.89631 5.2621 3.74321 5.8567 3.74997 6.46027V17.5803C3.74997 18.4873 4.11029 19.3572 4.75167 19.9986C5.39304 20.6399 6.26293 21.0003 7.16997 21.0003C7.77041 20.9993 8.36006 20.8406 8.87997 20.5403L18.54 15.0003C19.059 14.6999 19.49 14.2682 19.7896 13.7487C20.0891 13.2292 20.2468 12.64 20.2468 12.0403C20.2468 11.4405 20.0891 10.8514 19.7896 10.3318C19.49 9.8123 19.059 9.38068 18.54 9.08027V9.00027ZM17.54 13.1903L7.87997 18.8103C7.66346 18.933 7.41884 18.9975 7.16997 18.9975C6.9211 18.9975 6.67648 18.933 6.45997 18.8103C6.24407 18.6856 6.06479 18.5063 5.94015 18.2904C5.81552 18.0745 5.74993 17.8296 5.74997 17.5803V6.42027C5.74993 6.17097 5.81552 5.92605 5.94015 5.71013C6.06479 5.49422 6.24407 5.31492 6.45997 5.19027C6.67738 5.06943 6.92127 5.00416 7.16997 5.00027C7.4185 5.00537 7.66211 5.07056 7.87997 5.19027L17.54 10.7703C17.756 10.8949 17.9353 11.0741 18.06 11.2901C18.1847 11.506 18.2504 11.7509 18.2504 12.0003C18.2504 12.2496 18.1847 12.4946 18.06 12.7105C17.9353 12.9264 17.756 13.1057 17.54 13.2303V13.1903Z" fill="black"/>
</svg>
