<svg width="251" height="251" viewBox="0 0 251 251" fill="none" xmlns="http://www.w3.org/2000/svg">
<path d="M169.567 224.974C169.567 227.108 167.841 228.833 165.723 228.833H87.6307C87.122 228.837 86.6176 228.741 86.1466 228.548C85.6756 228.356 85.2475 228.072 84.8871 227.713C84.5267 227.354 84.2411 226.927 84.0469 226.457C83.8527 225.987 83.7538 225.483 83.7559 224.974V29.2726C83.7559 27.1548 85.4658 25.4292 87.6307 25.4292H165.707C167.825 25.4292 169.551 27.1548 169.551 29.2726V224.974H169.567Z" fill="#00E06A"/>
<path d="M101.074 65.5111C101.074 68.8052 101.723 72.0671 102.984 75.1104C104.244 78.1538 106.092 80.9191 108.421 83.2484C110.751 85.5777 113.516 87.4254 116.559 88.686C119.603 89.9466 122.864 90.5954 126.159 90.5954C129.453 90.5954 132.715 89.9466 135.758 88.686C138.801 87.4254 141.567 85.5777 143.896 83.2484C146.225 80.9191 148.073 78.1538 149.333 75.1104C150.594 72.0671 151.243 68.8052 151.243 65.5111C151.243 62.217 150.594 58.9551 149.333 55.9117C148.073 52.8683 146.225 50.1031 143.896 47.7738C141.567 45.4445 138.801 43.5968 135.758 42.3362C132.715 41.0756 129.453 40.4268 126.159 40.4268C122.864 40.4268 119.603 41.0756 116.559 42.3362C113.516 43.5968 110.751 45.4445 108.421 47.7738C106.092 50.1031 104.244 52.8683 102.984 55.9117C101.723 58.9551 101.074 62.217 101.074 65.5111Z" fill="#D0431F"/>
<path d="M101.09 127.132C101.09 133.78 103.731 140.157 108.432 144.858C113.134 149.559 119.51 152.2 126.158 152.2C132.807 152.2 139.183 149.559 143.885 144.858C148.586 140.157 151.227 133.78 151.227 127.132C151.227 120.483 148.586 114.107 143.885 109.405C139.183 104.704 132.807 102.063 126.158 102.063C119.51 102.063 113.134 104.704 108.432 109.405C103.731 114.107 101.09 120.483 101.09 127.132Z" fill="#E1D250"/>
<path d="M101.09 188.736C101.09 195.385 103.731 201.761 108.432 206.462C113.134 211.164 119.51 213.805 126.158 213.805C132.807 213.805 139.183 211.164 143.885 206.462C148.586 201.761 151.227 195.385 151.227 188.736C151.227 182.088 148.586 175.711 143.885 171.01C139.183 166.309 132.807 163.667 126.158 163.667C119.51 163.667 113.134 166.309 108.432 171.01C103.731 175.711 101.09 182.088 101.09 188.736Z" fill="#6CAA3D"/>
<path d="M212.989 35.8301H169.566V84.979H170.962L212.989 51.9411V35.8301ZM212.989 100.4H169.566V149.549H170.962L212.989 116.527V100.4ZM212.989 165.942H169.566V215.107H170.962L212.989 182.085V165.942ZM40.3164 35.8301H83.7551V84.979H82.3589L40.3164 51.9411V35.8301ZM40.3164 100.4H83.7551V149.549H82.3589L40.3164 116.527V100.4ZM40.3164 165.942H83.7551V215.107H82.3589L40.3164 182.085V165.942Z" fill="#00E06A"/>
</svg>
