<svg width="130" height="130" viewBox="0 0 130 130" fill="none" xmlns="http://www.w3.org/2000/svg">
<path d="M119.495 33.5365L111.197 52.157L56.7021 19.9528L65 2.07373L119.495 33.5365Z" fill="#2DD4AA"/>
<path d="M65 2.07373V19.9528L56.7021 6.86443L65 2.07373Z" fill="#4CF5CB"/>
<path d="M111.197 38.3271L65 81.5948L48.4042 46.6248L65 11.6548L111.197 38.3271Z" fill="#4CF5CB"/>
<path d="M65 11.6547V81.5947L10.5051 33.5364L56.7021 6.86426L65 11.6547Z" fill="#A3FBE5"/>
<path d="M65 64.9991L78.8298 94.8161L65 127.925L10.5051 96.4619L28.1973 61.8286L65 64.9991Z" fill="#68AEF4"/>
<path d="M65 64.9992L10.5051 96.462V33.5364L65 64.9992Z" fill="#8FE1EA"/>
<path d="M119.495 96.4621L111.197 101.253L100.686 72.3098L119.495 96.4621Z" fill="#FFE08F"/>
<path d="M111.197 69.5437V101.253L65 127.925V64.9993L111.197 69.5437Z" fill="#FFEAB2"/>
<path d="M119.495 33.5364V96.462L111.197 91.6713L105.665 64.9992L111.197 38.3271L119.495 33.5364Z" fill="#FFD159"/>
<path d="M111.197 38.3271V91.6713L65 64.9992L111.197 38.3271Z" fill="#FFE08F"/>
<path d="M65 67.0743C63.8541 67.0743 62.9256 66.1455 62.9256 64.9999V59.0532C62.9256 57.9075 63.8541 56.9788 65 56.9788C66.1459 56.9788 67.0744 57.9075 67.0744 59.0532V64.9999C67.0744 66.1455 66.1459 67.0743 65 67.0743Z" fill="white"/>
<path d="M65 52.8297C63.8541 52.8297 62.9256 51.9009 62.9256 50.7553V44.8085C62.9256 43.6629 63.8541 42.7341 65 42.7341C66.1459 42.7341 67.0744 43.6629 67.0744 44.8085V50.7553C67.0744 51.9009 66.1459 52.8297 65 52.8297Z" fill="white"/>
<path d="M65 38.5851C63.8541 38.5851 62.9256 37.6563 62.9256 36.5107V30.5639C62.9256 29.4183 63.8541 28.4895 65 28.4895C66.1459 28.4895 67.0744 29.4183 67.0744 30.5639V36.5107C67.0744 37.6563 66.1459 38.5851 65 38.5851Z" fill="white"/>
<path d="M65 24.3404C63.8541 24.3404 62.9256 23.4117 62.9256 22.266V16.319C62.9256 15.1734 63.8541 14.2446 65 14.2446C66.1459 14.2446 67.0744 15.1734 67.0744 16.319V22.2658C67.0744 23.4117 66.1459 24.3404 65 24.3404Z" fill="white"/>
<path d="M65 10.0958C63.8541 10.0958 62.9256 9.16703 62.9256 8.02141V2.07441C62.9256 0.928789 63.8541 0 65 0C66.1459 0 67.0744 0.928789 67.0744 2.07441V8.02115C67.0744 9.16703 66.1459 10.0958 65 10.0958Z" fill="white"/>
<path d="M70.1482 70.0483C69.7963 70.0483 69.4396 69.9587 69.1131 69.77L63.9628 66.7965C62.9706 66.2237 62.6308 64.955 63.2037 63.9629C63.7762 62.9704 65.0447 62.6307 66.0375 63.2038L71.1877 66.1773C72.18 66.7501 72.5197 68.0188 71.9469 69.0111C71.5628 69.6763 70.8653 70.0483 70.1482 70.0483Z" fill="white"/>
<path d="M82.4847 77.1706C82.1328 77.1706 81.7761 77.081 81.4496 76.8924L76.2993 73.9189C75.3071 73.346 74.9673 72.0773 75.5401 71.085C76.1127 70.0925 77.3812 69.7528 78.3737 70.3258L83.524 73.2993C84.5162 73.8721 84.856 75.1409 84.2832 76.1332C83.899 76.7984 83.2018 77.1706 82.4847 77.1706Z" fill="white"/>
<path d="M94.8205 84.2932C94.4686 84.2932 94.1116 84.2036 93.7854 84.0149L88.6354 81.0414C87.6431 80.4686 87.3034 79.1998 87.8762 78.2076C88.4488 77.2151 89.718 76.8753 90.7098 77.4484L95.8598 80.4219C96.852 80.9947 97.1918 82.2635 96.619 83.2555C96.2351 83.9212 95.5376 84.2932 94.8205 84.2932Z" fill="white"/>
<path d="M107.157 91.4155C106.805 91.4155 106.448 91.3259 106.122 91.1372L100.972 88.1637C99.9797 87.5909 99.6399 86.3221 100.213 85.3301C100.785 84.3376 102.055 83.9974 103.047 84.5709L108.197 87.5444C109.189 88.1172 109.529 89.386 108.956 90.378C108.571 91.0435 107.874 91.4155 107.157 91.4155Z" fill="white"/>
<path d="M119.493 98.5375C119.141 98.5375 118.785 98.4479 118.458 98.2592L113.308 95.2857C112.316 94.7129 111.976 93.4442 112.549 92.4521C113.121 91.4599 114.39 91.1199 115.383 91.693L120.533 94.6665C121.525 95.2393 121.865 96.508 121.292 97.5003C120.907 98.1655 120.21 98.5375 119.493 98.5375Z" fill="white"/>
<path d="M59.8518 70.0483C59.1348 70.0483 58.4378 69.6764 58.0534 69.0109C57.4806 68.0186 57.8206 66.7501 58.8126 66.1773L63.9628 63.2038C64.9546 62.631 66.2233 62.971 66.7967 63.963C67.3695 64.9552 67.0295 66.2237 66.0375 66.7968L60.8872 69.7703C60.5605 69.9587 60.2035 70.0483 59.8518 70.0483Z" fill="white"/>
<path d="M47.5153 77.1707C46.7982 77.1707 46.101 76.7987 45.7168 76.1332C45.144 75.141 45.484 73.8725 46.476 73.2994L51.6263 70.3259C52.618 69.7531 53.8875 70.0928 54.4601 71.0851C55.0329 72.0774 54.6929 73.3459 53.7009 73.9189L48.5507 76.8924C48.2242 77.0811 47.8674 77.1707 47.5153 77.1707Z" fill="white"/>
<path d="M35.1795 84.293C34.4625 84.293 33.7655 83.921 33.3811 83.2556C32.8083 82.2633 33.1483 80.9948 34.1403 80.422L39.2903 77.4485C40.282 76.8757 41.5508 77.2154 42.1238 78.2076C42.6967 79.1999 42.3567 80.4684 41.3647 81.0415L36.2147 84.015C35.8882 84.2034 35.5312 84.293 35.1795 84.293Z" fill="white"/>
<path d="M22.843 91.4154C22.1259 91.4154 21.429 91.0434 21.0445 90.3779C20.4717 89.3857 20.8117 88.1171 21.8037 87.5443L26.9537 84.5708C27.9455 83.9978 29.2142 84.338 29.7876 85.33C30.3604 86.3223 30.0204 87.5908 29.0284 88.1636L23.8781 91.1371C23.5516 91.3258 23.1949 91.4154 22.843 91.4154Z" fill="white"/>
<path d="M10.5067 98.5374C9.78963 98.5374 9.0924 98.1654 8.70824 97.4999C8.13543 96.5076 8.47541 95.2391 9.46742 94.666L14.6174 91.6926C15.6092 91.1197 16.8787 91.4597 17.4512 92.4517C18.0241 93.444 17.6841 94.7125 16.6921 95.2853L11.5421 98.2591C11.2158 98.4477 10.8588 98.5374 10.5067 98.5374Z" fill="white"/>
<path d="M120.532 31.7408L66.0372 0.278027C65.3955 -0.0926758 64.6044 -0.0926758 63.9628 0.278027L9.46763 31.7408C8.82601 32.1115 8.43042 32.7961 8.43042 33.5372V96.4628C8.43042 97.2039 8.82601 97.8887 9.46763 98.2592L63.9628 129.722C64.2837 129.907 64.6417 130 65 130C65.3582 130 65.7162 129.907 66.0372 129.722L120.532 98.2592C121.174 97.8885 121.57 97.2039 121.57 96.4628V33.5372C121.57 32.7961 121.174 32.1113 120.532 31.7408ZM65 4.46977L115.346 33.5372L65 62.6046L14.6537 33.5372L65 4.46977ZM12.5792 37.1302L62.9255 66.1977V124.333L12.5792 95.2651V37.1302ZM67.0744 124.333V66.1977L117.421 37.1302V95.2651L67.0744 124.333Z" fill="#276AAD"/>
</svg>
