<svg width="339" height="142" viewBox="0 0 339 142" fill="none" xmlns="http://www.w3.org/2000/svg">
<path d="M317.051 33.3446C314.637 29.439 309.163 26.3992 304.633 27.1496C299.553 27.9865 296.831 31.6419 296.11 36.2785C295.85 37.962 295.898 39.6358 296.187 40.819C296.225 40.9633 296.504 41.9926 296.523 42.3196C296.716 43.5702 294.292 44.8111 294.013 46.1867C293.801 47.2256 295.965 47.8894 296.139 48.0721C296.985 49.0052 295.648 53.4398 301.583 53.8823C303.863 54.0555 303.421 53.9112 304.094 54.1709C305.142 54.575 305.046 57.3646 305.046 57.3646C305.046 57.3646 305.633 61.9628 309.558 60.7411C314.041 59.3559 314.214 56.1814 314.214 56.1814C314.214 56.1814 312.549 51.7564 315.224 47.1583C317.35 43.4836 318.61 35.8553 317.051 33.3446Z" fill="#FFC677" stroke="black" stroke-width="0.00064"/>
<path d="M296.735 50.5528C297.562 50.6009 298.37 50.4086 299.072 49.8891C299.832 49.3215 299.313 48.6963 298.437 49.0618C297.908 49.2831 297.168 49.3985 296.494 49.2734L296.735 50.5528Z" fill="#795548" stroke="black" stroke-width="0.00064"/>
<path d="M300.249 44.6849C300.849 44.6659 301.312 43.9015 301.282 42.9775C301.253 42.0536 300.743 41.3199 300.143 41.3389C299.543 41.3579 299.08 42.1223 299.11 43.0463C299.139 43.9702 299.649 44.7038 300.249 44.6849Z" fill="#404040" stroke="black" stroke-width="0.00064"/>
<path d="M299.35 40.5394C298.272 40.7895 298.061 40.0777 298.446 39.539C298.725 39.135 299.388 38.8271 300.61 39.135C301.764 39.4236 302.207 40.1258 302.505 40.549C302.803 40.9723 302.736 41.3763 302.467 41.4052C302.101 41.4244 300.677 40.2316 299.35 40.5394Z" fill="#6D4C41" stroke="black" stroke-width="0.00064"/>
<path d="M334.452 125.055L320.917 109.616C320.071 108.654 319.571 107.442 319.494 106.162L318.166 84.5566L303.256 86.2016L307.95 108.49C308.71 112.097 310.74 115.31 313.664 117.552L329.527 129.672L334.452 125.055Z" fill="#616161" stroke="black" stroke-width="0.00064"/>
<path d="M317.993 80.998L301.082 82.5468L296.724 102.161C295.926 105.778 295.647 109.501 295.907 113.195L297.475 135.551H303.891L306.729 111.473C306.729 111.473 311.548 98.6596 311.702 98.5826C315.617 96.726 319.003 93.8498 318.83 89.1266C318.744 86.4139 318.301 83.6819 317.993 80.998Z" fill="#7C7C7C" stroke="black" stroke-width="0.00064"/>
<path d="M314.858 91.2233H303.411C301.227 91.2233 299.447 89.1263 299.447 86.5482L301.515 64.9042C301.939 60.9505 303.949 57.122 305.969 55.679C307.864 54.3227 310.606 54.1014 310.606 54.1014C312.078 53.986 314.261 54.3419 315.656 56.3813C316.493 57.6029 317.118 59.9886 317.253 62.0376L318.811 86.5482C318.811 89.1359 317.041 91.2233 314.858 91.2233Z" fill="url(#paint0_linear_1060_4846)" stroke="black" stroke-width="0.00064"/>
<path d="M316.694 78.5089L314.53 65.2051L307.825 66.2921L309.893 78.9803L306.459 88.446C306.238 88.8788 303.131 90.2833 302.938 90.3795C302.342 90.6681 301.928 91.2356 301.62 92.3611C301.438 93.0537 300.976 95.0354 301.947 95.3817C301.62 96.2955 301.832 97.4403 302.082 97.7096C302.659 98.3349 303.362 98.0559 303.362 98.0559C303.362 98.0559 303.458 98.8543 304.093 99.0756C304.881 99.3545 305.43 98.9217 305.43 98.9217C305.709 99.1333 306.045 99.2487 306.401 99.2487C306.825 99.2487 307.2 99.0852 307.488 98.8736C307.671 98.9505 308.171 99.2487 308.806 98.7966C309.21 98.508 310.48 96.8438 310.874 95.7761C311.144 95.045 311.105 91.3703 311.442 90.7258C311.779 90.0813 316.386 80.9138 316.386 80.9138H316.377C316.79 80.1539 316.887 79.2977 316.694 78.5089Z" fill="url(#paint1_linear_1060_4846)" stroke="black" stroke-width="0.00064"/>
<path d="M309.076 96.2203C308.854 95.6431 308.71 95.6046 308.306 95.7104C307.758 95.8547 307.161 95.8355 306.825 95.1621C306.748 94.9986 306.632 94.9409 306.459 94.9986C305.872 95.191 305.141 95.2006 304.891 94.3156C304.795 93.9885 304.66 93.95 304.304 93.95C304.189 93.95 303.852 94.0943 303.506 93.7288C303.121 93.3152 303.641 92.4879 303.15 92.4109C303.006 92.3917 302.313 92.4686 302.102 91.7279C301.967 91.247 302.525 90.6698 302.534 90.6602C302.15 90.9968 301.851 91.5259 301.63 92.3724C301.447 93.065 300.986 95.0467 301.957 95.393C301.63 96.3068 301.842 97.4516 302.092 97.7209C302.669 98.3462 303.371 98.0672 303.371 98.0672C303.371 98.0672 303.467 98.8656 304.102 99.0869C304.891 99.3659 305.44 98.933 305.44 98.933C305.718 99.1446 306.055 99.2601 306.411 99.2601C306.834 99.2601 307.21 99.0965 307.498 98.8849C307.681 98.9618 308.181 99.2601 308.816 98.8079C309.153 98.5674 310.105 97.3458 310.634 96.3261C310.163 96.7012 309.239 96.6531 309.076 96.2203Z" fill="url(#paint2_linear_1060_4846)" stroke="black" stroke-width="0.00064"/>
<path d="M304.959 139.775C305.565 139.775 306.065 139.285 306.065 138.669V135.975C306.065 134.148 304.209 132.06 304.209 132.06H297.494L291.453 134.052C289.991 134.629 289.019 136.033 289.01 137.601L289 138.813C289 139.342 289.433 139.775 289.962 139.775H304.959Z" fill="#444444" stroke="black" stroke-width="0.00064"/>
<path d="M338.676 128.095C339.109 127.662 339.109 126.97 338.676 126.537L336.771 124.632C335.472 123.333 332.692 123.17 332.692 123.17L327.95 127.912L325.093 133.598C324.468 135.04 324.775 136.714 325.882 137.84L326.738 138.706C327.113 139.081 327.729 139.081 328.104 138.706L338.676 128.095Z" fill="#232323" stroke="black" stroke-width="0.00064"/>
<path d="M308.586 96.8809C308.653 97.3522 308.528 97.7081 308.355 98.0544C308.163 98.3815 307.932 98.6797 307.499 98.8817C307.432 98.4104 307.557 98.0544 307.73 97.7081C307.913 97.3811 308.153 97.0829 308.586 96.8809Z" fill="#EDA600" stroke="black" stroke-width="0.00064"/>
<path d="M306.642 96.0059C306.709 96.6119 306.575 97.1506 306.382 97.6604C306.171 98.1606 305.921 98.6512 305.449 99.0456C305.382 98.43 305.517 97.9009 305.709 97.3911C305.921 96.9005 306.18 96.4099 306.642 96.0059Z" fill="#EDA600" stroke="black" stroke-width="0.00064"/>
<path d="M304.334 95.0449C304.449 95.6413 304.353 96.18 304.209 96.6995C304.045 97.2093 303.824 97.7095 303.391 98.1424C303.276 97.546 303.372 97.0073 303.516 96.4879C303.689 95.978 303.911 95.4778 304.334 95.0449Z" fill="#EDA600" stroke="black" stroke-width="0.00064"/>
<path d="M304.19 91.5798C303.892 91.8396 303.603 92.1089 303.363 92.3975C303.103 92.6861 302.978 92.9458 302.891 93.321C302.67 94.0328 302.449 94.7735 301.929 95.4565C301.775 94.6196 301.929 93.8308 302.247 93.0805C302.41 92.7149 302.728 92.2917 303.074 92.0801C303.43 91.8396 303.805 91.676 304.19 91.5798Z" fill="#EDA600" stroke="black" stroke-width="0.00064"/>
<path d="M306.691 71.4949L317.176 69.5902L315.483 60.2689C315.358 59.5803 315.099 58.9232 314.72 58.3349C314.341 57.7466 313.85 57.2387 313.275 56.8403C312.699 56.4419 312.051 56.1607 311.367 56.0129C310.683 55.865 309.977 55.8533 309.288 55.9786C308.6 56.1035 307.943 56.3628 307.354 56.7418C306.766 57.1208 306.258 57.6119 305.86 58.1872C305.461 58.7625 305.18 59.4107 305.032 60.0947C304.885 60.7787 304.873 61.4851 304.998 62.1736L306.691 71.4949Z" fill="#008CB4" stroke="black" stroke-width="0.00064"/>
<path d="M320.407 33.5248C319.138 30.3408 316.559 29.3788 315.713 29.1479C315.319 27.9936 313.318 23.6167 306.093 24.8095C304.333 25.0981 303.044 25.935 301.909 26.6757C301.428 26.9932 300.966 27.301 300.533 27.503C300.177 27.6665 299.562 27.8204 299.052 27.6569C297.888 27.2721 298.253 25.5021 298.253 25.5021C298.253 25.5021 293.982 26.3486 295.82 30.4754C294.386 31.1103 293.723 32.6302 293.473 34.0635C293.126 36.0163 294.079 37.8729 295.954 38.7098C295.954 38.7098 295.579 35.5738 300.11 35.7566C301.514 35.8143 302.986 36.0356 304.285 35.5065C304.785 35.3045 305.247 34.987 305.728 34.7562H305.901C307.613 35.67 305.362 39.7198 307.267 42.0863C307.642 42.5576 307.96 42.3845 307.96 42.3845L308.72 41.259C309.297 40.4894 309.826 39.816 310.547 39.9796C312.683 40.4509 312.298 44.2603 309.768 45.0972C309.518 45.1838 310.105 49.426 315.347 49.426C318.06 49.426 319.012 47.175 319.012 47.175C319.012 47.175 317.858 47.4636 317.608 46.4824C317.473 45.9726 317.945 45.28 318.791 44.5296C321.235 42.3556 320.35 39.8545 319.994 39.0753C320.378 38.3442 321.398 36.0163 320.407 33.5248Z" fill="#543930" stroke="black" stroke-width="0.00064"/>
<path d="M320.003 39.0669C320.051 38.9803 319.243 41.0005 315.78 40.6638C314.356 40.6638 312.375 44.0979 314.452 46.3682C316.299 48.369 319.022 47.1666 319.022 47.1666C319.022 47.1666 318.646 47.2724 318.098 47.0896C317.742 46.9646 317.617 46.5028 317.617 46.474C317.482 45.9641 317.954 45.2715 318.8 44.5212C321.244 42.3376 320.359 39.8461 320.003 39.0669Z" fill="url(#paint3_radial_1060_4846)" stroke="black" stroke-width="0.00064"/>
<path d="M320.407 33.5253C319.743 31.8515 318.521 30.4375 316.905 29.6198C316.674 29.5044 316.097 29.2254 315.703 29.1484C315.895 29.8891 315.876 30.6876 315.558 31.5052C315.549 31.5341 315.183 32.7558 314.135 33.7274C314.895 34.7855 315.279 36.0649 315.645 37.3251C315.962 38.4217 316.27 39.6338 315.78 40.6631C316.443 40.6246 317.502 40.8074 318.666 40.2879C319.781 39.7877 320.368 38.4987 320.638 37.3443C320.936 36.0841 320.888 34.747 320.407 33.5253Z" fill="url(#paint4_radial_1060_4846)" stroke="black" stroke-width="0.00064"/>
<path d="M315.549 31.5128C316.386 29.3676 315.203 27.386 313.423 26.0681C311.326 24.5193 308.575 24.4039 306.093 24.8079C304.333 25.0965 303.044 25.9334 301.909 26.6741C301.418 26.9916 300.956 27.2898 300.524 27.5014C300.168 27.6649 299.552 27.8188 299.042 27.6553C297.878 27.2705 298.244 25.5005 298.244 25.5005C298.244 25.5005 293.973 26.347 295.81 30.4738C294.377 31.1087 293.713 32.6286 293.463 34.0619C293.116 36.0147 294.069 37.8713 295.945 38.7082C295.945 38.7082 295.569 35.5722 300.1 35.755C301.505 35.8127 302.977 36.034 304.275 35.5049C305.429 35.0431 305.814 34.4179 307.113 34.4852C308.508 34.5622 310.364 35.0912 311.798 34.87C314.693 34.4275 315.54 31.5512 315.549 31.5128Z" fill="url(#paint5_radial_1060_4846)" stroke="black" stroke-width="0.00064"/>
<path d="M314.453 46.3669C313.52 45.3761 313.27 43.7408 311.807 42.875C311.538 43.8273 310.855 44.722 309.768 45.0875C309.518 45.1741 310.105 49.4163 315.347 49.4163C318.06 49.4163 319.012 47.1653 319.012 47.1653C319.012 47.1653 316.329 48.3582 314.453 46.3669Z" fill="url(#paint6_radial_1060_4846)" stroke="black" stroke-width="0.00064"/>
<path d="M79.3379 39.8713L73.7809 45.6876L41.4171 47.626L41.9898 57.1881L80.2378 54.8973L79.3379 39.8713Z" fill="#EFEFEF" stroke="black" stroke-width="0.00064"/>
<path d="M83.505 35.5074L40.8438 38.0625L41.4164 47.6245L73.7802 45.6861L83.505 35.5074Z" fill="#61ACD2" stroke="black" stroke-width="0.00064"/>
<path d="M85.2906 40.6612L79.4062 41.0137L79.9349 49.8401L85.8192 49.4876L85.2906 40.6612Z" fill="#F5C525" stroke="black" stroke-width="0.00064"/>
<path d="M58.3186 56.2096L49.4922 56.7383L49.8446 62.6226L58.671 62.094L58.3186 56.2096Z" fill="#61ACD2" stroke="black" stroke-width="0.00064"/>
<path d="M40.4292 68.0948L34.5449 68.4473L35.0736 77.2736L40.9579 76.9212L40.4292 68.0948Z" fill="#F5C525" stroke="black" stroke-width="0.00064"/>
<path d="M85.2103 39.3219L81.5054 39.5438L84.4755 36.4349C84.8566 36.0361 84.9546 35.4446 84.7227 34.9442C84.4907 34.4438 83.976 34.1362 83.4253 34.1691L40.764 36.7243C40.0244 36.7686 39.4608 37.4041 39.5051 38.1436L40.0778 47.7056L40.6505 57.2676C40.6948 58.0071 41.3302 58.5708 42.0698 58.5265L48.2332 58.1574L48.5054 62.7025C48.5497 63.4419 49.1852 64.0057 49.9247 63.9614L52.9989 63.7772L53.0993 65.4539C53.2628 68.1833 51.1751 70.5367 48.4459 70.7002L41.9515 71.0891L41.7674 68.015C41.7231 67.2755 41.0876 66.7118 40.3481 66.7561L34.4639 67.1085C33.7243 67.1528 33.1607 67.7884 33.205 68.5278L33.7336 77.3544C33.7779 78.0939 34.4133 78.6576 35.1529 78.6133L41.0372 78.2609C41.7768 78.2166 42.3404 77.581 42.2961 76.8416L42.112 73.7674L48.6065 73.3784C52.8125 73.1265 56.0295 69.4996 55.7776 65.2936L55.6772 63.6169L58.7514 63.4328C59.491 63.3885 60.0546 62.753 60.0103 62.0135L59.7381 57.4684L80.3181 56.2358C81.0577 56.1915 81.6213 55.556 81.577 54.8165L81.3543 51.0986L85.8995 50.8264C86.639 50.7821 87.2026 50.1466 87.1583 49.4071L86.6297 40.5808C86.5853 39.8413 85.9499 39.2776 85.2103 39.3219ZM39.5378 75.6631L36.3316 75.8551L35.9634 69.7067L39.1696 69.5147L39.5378 75.6631ZM42.2633 39.3222L80.1756 37.0516L73.1745 44.3796L42.6756 46.2063L42.2633 39.3222ZM57.2517 60.835L51.1033 61.2032L50.9113 57.9971L57.0597 57.6288L57.2517 60.835ZM78.8184 53.6378L43.2483 55.7682L42.8361 48.8844L73.8608 47.0263C74.1988 47.006 74.5167 46.8588 74.7506 46.6139L78.1826 43.0218L78.5958 49.9202L78.8184 53.6378ZM84.3999 48.2286L81.1936 48.4206L80.8253 42.2722L84.0316 42.0801L84.3999 48.2286Z" fill="#231F20" stroke="black" stroke-width="0.00064"/>
<path d="M86.7932 126.009L14.7002 130.327C14.7002 130.327 3.88621 130.974 3.02264 116.556C2.59085 109.346 1.72727 94.9278 5.11603 91.1072C8.50479 87.2867 32.442 64.1475 43.2559 63.4998L64.8838 62.2045C75.6978 61.5568 102.442 85.2781 102.442 85.2781L117.076 88.0191C117.076 88.0191 128.106 90.9761 128.538 98.1854L129.185 108.999C129.185 108.999 132.863 110.002 133.213 115.838C133.654 123.202 126.444 123.634 126.444 123.634L86.7932 126.009Z" fill="#DD2E44" stroke="black" stroke-width="0.00109"/>
<path d="M58.1058 69.8445L65.3151 69.4127C72.5244 68.9809 95.4477 89.3135 95.4477 89.3135C95.4477 89.3135 77.3785 89.4443 59.2891 89.6016L58.1058 69.8445ZM22.707 82.8174C26.0958 78.9968 40.0826 70.924 47.2919 70.4922L50.8965 70.2763L52.0578 89.6657C37.5555 89.7963 24.6455 89.9364 23.1388 90.0267C19.5341 90.2426 19.3182 86.6379 22.707 82.8174Z" fill="#BBDDF5" stroke="black" stroke-width="0.00109"/>
<path d="M98.2558 136.175C90.2926 136.652 83.4506 130.583 82.9736 122.62C82.4967 114.657 88.5655 107.815 96.5287 107.338C104.492 106.861 111.334 112.93 111.811 120.893C112.288 128.856 106.219 135.698 98.2558 136.175Z" fill="#292F33" stroke="black" stroke-width="0.00109"/>
<path d="M97.8222 128.966C93.8407 129.204 90.4196 126.17 90.1812 122.188C89.9427 118.207 92.9771 114.785 96.9587 114.547C100.94 114.309 104.361 117.343 104.6 121.325C104.838 125.306 101.804 128.727 97.8222 128.966Z" fill="#CCD6DD" stroke="black" stroke-width="0.00109"/>
<path d="M36.9765 139.845C29.0133 140.322 22.1713 134.253 21.6943 126.29C21.2174 118.327 27.2862 111.485 35.2494 111.008C43.2125 110.531 50.0546 116.6 50.5315 124.563C51.0085 132.526 44.9397 139.368 36.9765 139.845Z" fill="#292F33" stroke="black" stroke-width="0.00109"/>
<path d="M36.5429 132.636C32.5614 132.874 29.1403 129.84 28.9019 125.858C28.6634 121.876 31.6978 118.455 35.6794 118.217C39.661 117.978 43.082 121.013 43.3205 124.994C43.5589 128.976 40.5245 132.397 36.5429 132.636Z" fill="#CCD6DD" stroke="black" stroke-width="0.00109"/>
<path d="M217.309 50.3398H205.688V63.9997H217.309V50.3398Z" fill="#AEADB3"/>
<path d="M217.312 50.3398H211.543V63.9997H217.312V50.3398Z" fill="#8B8892"/>
<path d="M224.227 17.7832C227.989 17.7832 231.111 16.0928 233.303 12.8522C235.018 10.3163 235.535 7.68472 235.556 7.57384L236.001 5.24609H221.35V17.5916L223.159 17.7391C223.52 17.7685 223.876 17.7832 224.227 17.7832Z" fill="#8B8892"/>
<path d="M221.35 32.031L223.159 32.1785C223.52 32.2079 223.876 32.2227 224.227 32.2227C227.989 32.2227 231.111 30.5323 233.303 27.2917C235.018 24.7558 235.535 22.1242 235.556 22.0133L236.001 19.6855H221.35V32.031Z" fill="#8B8892"/>
<path d="M221.35 46.4725L223.159 46.62C223.52 46.6493 223.876 46.6641 224.227 46.6641C227.989 46.6641 231.111 44.9737 233.303 41.7331C235.018 39.1973 235.535 36.5656 235.556 36.4547L236.001 34.127H221.35V46.4725Z" fill="#8B8892"/>
<path d="M187.445 7.57384C187.466 7.68459 187.983 10.3163 189.698 12.8522C191.89 16.0931 195.012 17.7832 198.774 17.7832C199.124 17.7832 199.481 17.7686 199.842 17.7391L201.651 17.5916V5.24609H187L187.445 7.57384Z" fill="#AEADB3"/>
<path d="M187.445 22.0152C187.466 22.126 187.983 24.7577 189.698 27.2936C191.89 30.5345 195.012 32.2246 198.774 32.2246C199.124 32.2246 199.481 32.21 199.842 32.1805L201.651 32.033V19.6875H187L187.445 22.0152Z" fill="#AEADB3"/>
<path d="M187.445 36.4547C187.466 36.5655 187.983 39.1972 189.698 41.7331C191.89 44.974 195.012 46.6641 198.774 46.6641C199.124 46.6641 199.481 46.6495 199.842 46.62L201.651 46.4725V34.127H187L187.445 36.4547Z" fill="#AEADB3"/>
<path d="M225.288 0H197.711V54.2627H225.288V0Z" fill="#57555C"/>
<path d="M225.289 0H211.543V54.2627H225.289V0Z" fill="#2B292C"/>
<path d="M218.246 11.5138C218.246 15.2089 215.248 18.2084 211.542 18.2306H211.5C207.774 18.2306 204.754 15.2233 204.754 11.5138C204.754 7.80425 207.774 4.79688 211.5 4.79688H211.542C215.248 4.81925 218.246 7.81875 218.246 11.5138Z" fill="#E70020"/>
<path d="M218.246 27.0977C218.246 30.7929 215.248 33.7924 211.542 33.8146H211.5C207.774 33.8146 204.754 30.8072 204.754 27.0977C204.754 23.387 207.774 20.3809 211.5 20.3809H211.542C215.248 20.4031 218.246 23.4014 218.246 27.0977Z" fill="#FFC473"/>
<path d="M218.246 42.6798C218.246 46.3749 215.248 49.3744 211.542 49.3965H211.5C207.774 49.3965 204.754 46.3891 204.754 42.6798C204.754 38.9703 207.774 35.9629 211.5 35.9629H211.542C215.248 35.9853 218.246 38.9848 218.246 42.6798Z" fill="#36CD90"/>
<path d="M218.245 42.6796C218.245 46.3748 215.247 49.3743 211.541 49.3964V35.9629C215.247 35.9851 218.245 38.9846 218.245 42.6796Z" fill="#00A653"/>
<path d="M218.245 27.0976C218.245 30.7927 215.247 33.7922 211.541 33.8145V20.3809C215.247 20.403 218.245 23.4012 218.245 27.0976Z" fill="#FFA91F"/>
<path d="M211.543 18.2305V4.79688C215.249 4.81913 218.247 7.81862 218.247 11.5137C218.247 15.2087 215.249 18.2083 211.543 18.2305Z" fill="#990013"/>
<rect x="205.85" y="54.85" width="11.3" height="78.3" fill="#AEADB3" stroke="#AEADB3" stroke-width="0.3"/>
<path d="M143.324 41.323C143.458 44.3536 142.691 47.3558 141.118 49.9502C139.546 52.5445 137.24 54.6144 134.492 55.8982C131.743 57.1819 128.676 57.6217 125.677 57.1621C122.679 56.7025 119.884 55.3641 117.646 53.3161C115.408 51.268 113.828 48.6024 113.105 45.6563C112.382 42.7102 112.549 39.6159 113.585 36.7647C114.621 33.9135 116.479 31.4335 118.924 29.6382C121.369 27.843 124.292 26.8131 127.323 26.6789C129.335 26.5896 131.345 26.8975 133.238 27.5851C135.132 28.2727 136.871 29.3266 138.357 30.6864C139.843 32.0463 141.046 33.6856 141.898 35.5107C142.751 37.3357 143.235 39.3108 143.324 41.323ZM130.269 49.8208C130.252 49.437 130.122 49.0668 129.894 48.757C129.667 48.4473 129.353 48.2119 128.992 48.0806C128.631 47.9493 128.239 47.9281 127.866 48.0195C127.492 48.1109 127.155 48.3109 126.895 48.5942C126.636 48.8775 126.466 49.2314 126.407 49.6112C126.349 49.9909 126.404 50.3795 126.567 50.7278C126.729 51.076 126.991 51.3683 127.319 51.5677C127.648 51.7671 128.028 51.8647 128.412 51.8481C128.667 51.837 128.917 51.7758 129.149 51.668C129.38 51.5601 129.588 51.4076 129.761 51.2194C129.933 51.0311 130.067 50.8107 130.154 50.5707C130.241 50.3307 130.28 50.0759 130.269 49.8208ZM126.575 44.4829C126.607 44.8791 126.791 45.2476 127.089 45.5107C127.387 45.7738 127.775 45.911 128.173 45.8934C128.57 45.8758 128.944 45.7048 129.218 45.4164C129.491 45.128 129.642 44.7447 129.639 44.3472L129.102 32.2161C129.07 31.8198 128.886 31.4514 128.588 31.1883C128.29 30.9251 127.902 30.7879 127.504 30.8055C127.107 30.8231 126.733 30.9941 126.459 31.2825C126.185 31.5709 126.035 31.9543 126.038 32.3517L126.575 44.4829Z" fill="#FFB43F" stroke="#FFB43F" stroke-width="0.00064"/>
<defs>
<linearGradient id="paint0_linear_1060_4846" x1="302.335" y1="68.954" x2="318.929" y2="80.4975" gradientUnits="userSpaceOnUse">
<stop stop-color="#006D8F"/>
<stop offset="0.482" stop-color="#004D65"/>
<stop offset="1" stop-color="#004D65"/>
</linearGradient>
<linearGradient id="paint1_linear_1060_4846" x1="309.382" y1="88.218" x2="306.31" y2="70.2053" gradientUnits="userSpaceOnUse">
<stop offset="0.461" stop-color="#FFC677"/>
<stop offset="1" stop-color="#FFB300"/>
</linearGradient>
<linearGradient id="paint2_linear_1060_4846" x1="303.741" y1="100.512" x2="305.902" y2="94.8812" gradientUnits="userSpaceOnUse">
<stop offset="0.456" stop-color="#FFC677"/>
<stop offset="1" stop-color="#FFB300"/>
</linearGradient>
<radialGradient id="paint3_radial_1060_4846" cx="0" cy="0" r="1" gradientUnits="userSpaceOnUse" gradientTransform="translate(313.454 44.0739) rotate(20.2616) scale(6.8509 9.86648)">
<stop offset="0.45" stop-color="#6D4C41" stop-opacity="0"/>
<stop offset="1" stop-color="#6D4C41"/>
</radialGradient>
<radialGradient id="paint4_radial_1060_4846" cx="0" cy="0" r="1" gradientUnits="userSpaceOnUse" gradientTransform="translate(314.265 37.167) rotate(-7.72413) scale(6.94418 8.76275)">
<stop offset="0.45" stop-color="#6D4C41" stop-opacity="0"/>
<stop offset="1" stop-color="#6D4C41"/>
</radialGradient>
<radialGradient id="paint5_radial_1060_4846" cx="0" cy="0" r="1" gradientUnits="userSpaceOnUse" gradientTransform="translate(306.523 34.7691) rotate(-8.8237) scale(14.2933 10.7438)">
<stop offset="0.45" stop-color="#6D4C41" stop-opacity="0"/>
<stop offset="1" stop-color="#6D4C41"/>
</radialGradient>
<radialGradient id="paint6_radial_1060_4846" cx="0" cy="0" r="1" gradientUnits="userSpaceOnUse" gradientTransform="translate(315.036 44.9118) rotate(14.2586) scale(7.69474 4.94687)">
<stop offset="0.45" stop-color="#6D4C41" stop-opacity="0"/>
<stop offset="1" stop-color="#6D4C41"/>
</radialGradient>
</defs>
</svg>
