<svg width="394" height="133" viewBox="0 0 394 133" fill="none" xmlns="http://www.w3.org/2000/svg">
<path d="M170.575 116.636C170.575 115.562 170.714 114.575 170.993 113.675C171.274 112.771 171.675 111.94 172.195 111.182H173.081C172.876 111.463 172.685 111.81 172.506 112.222C172.33 112.631 172.175 113.081 172.041 113.572C171.908 114.061 171.803 114.567 171.726 115.089C171.652 115.612 171.615 116.128 171.615 116.636C171.615 117.312 171.68 117.999 171.811 118.695C171.942 119.391 172.118 120.037 172.339 120.634C172.561 121.23 172.808 121.716 173.081 122.091H172.195C171.675 121.332 171.274 120.503 170.993 119.602C170.714 118.699 170.575 117.71 170.575 116.636ZM177.395 121.119C176.752 121.119 176.206 120.945 175.754 120.595C175.302 120.243 174.957 119.733 174.718 119.065C174.48 118.395 174.36 117.585 174.36 116.636C174.36 115.693 174.48 114.888 174.718 114.22C174.96 113.55 175.306 113.038 175.758 112.686C176.213 112.331 176.758 112.153 177.395 112.153C178.031 112.153 178.575 112.331 179.027 112.686C179.481 113.038 179.828 113.55 180.066 114.22C180.308 114.888 180.429 115.693 180.429 116.636C180.429 117.585 180.309 118.395 180.071 119.065C179.832 119.733 179.487 120.243 179.035 120.595C178.583 120.945 178.037 121.119 177.395 121.119ZM177.395 120.182C178.031 120.182 178.525 119.875 178.877 119.261C179.23 118.648 179.406 117.773 179.406 116.636C179.406 115.881 179.325 115.237 179.163 114.706C179.004 114.175 178.774 113.77 178.473 113.491C178.174 113.213 177.815 113.074 177.395 113.074C176.764 113.074 176.271 113.385 175.916 114.007C175.561 114.626 175.383 115.503 175.383 116.636C175.383 117.392 175.463 118.034 175.622 118.562C175.781 119.091 176.01 119.493 176.308 119.768C176.609 120.044 176.971 120.182 177.395 120.182ZM183.26 119.807L183.192 120.267C183.144 120.591 183.07 120.938 182.971 121.307C182.874 121.676 182.773 122.024 182.668 122.351C182.563 122.678 182.476 122.938 182.408 123.131H181.641C181.678 122.949 181.726 122.709 181.786 122.411C181.846 122.112 181.905 121.778 181.965 121.409C182.027 121.043 182.078 120.668 182.118 120.284L182.169 119.807H183.26ZM188.482 121V120.233L191.362 117.08C191.7 116.71 191.979 116.389 192.197 116.116C192.416 115.841 192.578 115.582 192.683 115.341C192.791 115.097 192.845 114.841 192.845 114.574C192.845 114.267 192.771 114.001 192.624 113.777C192.479 113.553 192.28 113.379 192.027 113.257C191.774 113.135 191.49 113.074 191.175 113.074C190.839 113.074 190.547 113.143 190.297 113.283C190.05 113.419 189.858 113.611 189.722 113.858C189.588 114.105 189.521 114.395 189.521 114.727H188.516C188.516 114.216 188.634 113.767 188.869 113.381C189.105 112.994 189.426 112.693 189.832 112.477C190.241 112.261 190.7 112.153 191.209 112.153C191.72 112.153 192.173 112.261 192.568 112.477C192.963 112.693 193.273 112.984 193.497 113.351C193.722 113.717 193.834 114.125 193.834 114.574C193.834 114.895 193.776 115.209 193.659 115.516C193.545 115.82 193.347 116.159 193.062 116.534C192.781 116.906 192.391 117.361 191.891 117.898L189.93 119.994V120.062H193.987V121H188.482ZM198.474 121.119C197.974 121.119 197.524 121.02 197.124 120.821C196.723 120.622 196.402 120.349 196.161 120.003C195.919 119.656 195.787 119.261 195.764 118.818H196.787C196.827 119.213 197.006 119.54 197.324 119.798C197.645 120.054 198.028 120.182 198.474 120.182C198.832 120.182 199.151 120.098 199.429 119.93C199.71 119.763 199.93 119.533 200.089 119.24C200.251 118.945 200.332 118.611 200.332 118.239C200.332 117.858 200.249 117.518 200.081 117.22C199.916 116.919 199.689 116.682 199.399 116.509C199.109 116.335 198.778 116.247 198.406 116.244C198.139 116.241 197.865 116.283 197.584 116.368C197.303 116.45 197.071 116.557 196.889 116.688L195.901 116.568L196.429 112.273H200.963V113.21H197.315L197.009 115.784H197.06C197.239 115.642 197.463 115.524 197.733 115.43C198.003 115.337 198.284 115.29 198.577 115.29C199.111 115.29 199.587 115.418 200.004 115.673C200.425 115.926 200.754 116.273 200.993 116.713C201.234 117.153 201.355 117.656 201.355 118.222C201.355 118.778 201.23 119.276 200.98 119.713C200.733 120.148 200.392 120.491 199.957 120.744C199.523 120.994 199.028 121.119 198.474 121.119ZM205.775 121.119C205.275 121.119 204.825 121.02 204.424 120.821C204.024 120.622 203.703 120.349 203.461 120.003C203.22 119.656 203.088 119.261 203.065 118.818H204.088C204.127 119.213 204.306 119.54 204.625 119.798C204.946 120.054 205.329 120.182 205.775 120.182C206.133 120.182 206.451 120.098 206.73 119.93C207.011 119.763 207.231 119.533 207.39 119.24C207.552 118.945 207.633 118.611 207.633 118.239C207.633 117.858 207.549 117.518 207.382 117.22C207.217 116.919 206.99 116.682 206.7 116.509C206.41 116.335 206.079 116.247 205.707 116.244C205.44 116.241 205.166 116.283 204.885 116.368C204.603 116.45 204.372 116.557 204.19 116.688L203.201 116.568L203.73 112.273H208.264V113.21H204.616L204.309 115.784H204.36C204.539 115.642 204.764 115.524 205.034 115.43C205.304 115.337 205.585 115.29 205.877 115.29C206.412 115.29 206.887 115.418 207.305 115.673C207.725 115.926 208.055 116.273 208.294 116.713C208.535 117.153 208.656 117.656 208.656 118.222C208.656 118.778 208.531 119.276 208.281 119.713C208.034 120.148 207.693 120.491 207.258 120.744C206.824 120.994 206.329 121.119 205.775 121.119ZM211.538 119.807L211.469 120.267C211.421 120.591 211.347 120.938 211.248 121.307C211.151 121.676 211.05 122.024 210.945 122.351C210.84 122.678 210.754 122.938 210.685 123.131H209.918C209.955 122.949 210.004 122.709 210.063 122.411C210.123 122.112 210.183 121.778 210.242 121.409C210.305 121.043 210.356 120.668 210.396 120.284L210.447 119.807H211.538ZM219.605 121.119C218.963 121.119 218.417 120.945 217.965 120.595C217.513 120.243 217.168 119.733 216.929 119.065C216.691 118.395 216.571 117.585 216.571 116.636C216.571 115.693 216.691 114.888 216.929 114.22C217.171 113.55 217.517 113.038 217.969 112.686C218.424 112.331 218.969 112.153 219.605 112.153C220.242 112.153 220.786 112.331 221.238 112.686C221.692 113.038 222.039 113.55 222.277 114.22C222.519 114.888 222.64 115.693 222.64 116.636C222.64 117.585 222.52 118.395 222.282 119.065C222.043 119.733 221.698 120.243 221.246 120.595C220.794 120.945 220.248 121.119 219.605 121.119ZM219.605 120.182C220.242 120.182 220.736 119.875 221.088 119.261C221.441 118.648 221.617 117.773 221.617 116.636C221.617 115.881 221.536 115.237 221.374 114.706C221.215 114.175 220.985 113.77 220.684 113.491C220.385 113.213 220.026 113.074 219.605 113.074C218.975 113.074 218.482 113.385 218.127 114.007C217.772 114.626 217.594 115.503 217.594 116.636C217.594 117.392 217.674 118.034 217.833 118.562C217.992 119.091 218.221 119.493 218.519 119.768C218.82 120.044 219.182 120.182 219.605 120.182ZM226.424 116.636C226.424 117.71 226.283 118.699 226.002 119.602C225.723 120.503 225.324 121.332 224.804 122.091H223.918C224.123 121.81 224.313 121.463 224.489 121.051C224.668 120.642 224.824 120.193 224.958 119.705C225.091 119.213 225.195 118.706 225.269 118.183C225.346 117.658 225.384 117.142 225.384 116.636C225.384 115.96 225.319 115.274 225.188 114.578C225.057 113.882 224.881 113.236 224.659 112.639C224.438 112.043 224.191 111.557 223.918 111.182H224.804C225.324 111.94 225.723 112.771 226.002 113.675C226.283 114.575 226.424 115.562 226.424 116.636Z" fill="black"/>
<path d="M316.564 116.636C316.564 115.562 316.703 114.575 316.981 113.675C317.262 112.771 317.663 111.94 318.183 111.182H319.069C318.865 111.463 318.673 111.81 318.494 112.222C318.318 112.631 318.163 113.081 318.029 113.572C317.896 114.061 317.791 114.567 317.714 115.089C317.64 115.612 317.603 116.128 317.603 116.636C317.603 117.312 317.669 117.999 317.799 118.695C317.93 119.391 318.106 120.037 318.328 120.634C318.549 121.23 318.797 121.716 319.069 122.091H318.183C317.663 121.332 317.262 120.503 316.981 119.602C316.703 118.699 316.564 117.71 316.564 116.636ZM323.383 121.119C322.741 121.119 322.194 120.945 321.742 120.595C321.29 120.243 320.945 119.733 320.707 119.065C320.468 118.395 320.349 117.585 320.349 116.636C320.349 115.693 320.468 114.888 320.707 114.22C320.948 113.55 321.295 113.038 321.746 112.686C322.201 112.331 322.746 112.153 323.383 112.153C324.019 112.153 324.563 112.331 325.015 112.686C325.469 113.038 325.816 113.55 326.055 114.22C326.296 114.888 326.417 115.693 326.417 116.636C326.417 117.585 326.298 118.395 326.059 119.065C325.82 119.733 325.475 120.243 325.023 120.595C324.572 120.945 324.025 121.119 323.383 121.119ZM323.383 120.182C324.019 120.182 324.513 119.875 324.866 119.261C325.218 118.648 325.394 117.773 325.394 116.636C325.394 115.881 325.313 115.237 325.151 114.706C324.992 114.175 324.762 113.77 324.461 113.491C324.163 113.213 323.803 113.074 323.383 113.074C322.752 113.074 322.259 113.385 321.904 114.007C321.549 114.626 321.371 115.503 321.371 116.636C321.371 117.392 321.451 118.034 321.61 118.562C321.769 119.091 321.998 119.493 322.296 119.768C322.597 120.044 322.96 120.182 323.383 120.182ZM329.249 119.807L329.18 120.267C329.132 120.591 329.058 120.938 328.959 121.307C328.862 121.676 328.761 122.024 328.656 122.351C328.551 122.678 328.464 122.938 328.396 123.131H327.629C327.666 122.949 327.714 122.709 327.774 122.411C327.834 122.112 327.893 121.778 327.953 121.409C328.016 121.043 328.067 120.668 328.107 120.284L328.158 119.807H329.249ZM337.316 121.119C336.674 121.119 336.127 120.945 335.676 120.595C335.224 120.243 334.879 119.733 334.64 119.065C334.402 118.395 334.282 117.585 334.282 116.636C334.282 115.693 334.402 114.888 334.64 114.22C334.882 113.55 335.228 113.038 335.68 112.686C336.135 112.331 336.68 112.153 337.316 112.153C337.953 112.153 338.497 112.331 338.949 112.686C339.403 113.038 339.75 113.55 339.988 114.22C340.23 114.888 340.35 115.693 340.35 116.636C340.35 117.585 340.231 118.395 339.993 119.065C339.754 119.733 339.409 120.243 338.957 120.595C338.505 120.945 337.958 121.119 337.316 121.119ZM337.316 120.182C337.953 120.182 338.447 119.875 338.799 119.261C339.152 118.648 339.328 117.773 339.328 116.636C339.328 115.881 339.247 115.237 339.085 114.706C338.926 114.175 338.696 113.77 338.395 113.491C338.096 113.213 337.737 113.074 337.316 113.074C336.686 113.074 336.193 113.385 335.838 114.007C335.483 114.626 335.305 115.503 335.305 116.636C335.305 117.392 335.385 118.034 335.544 118.562C335.703 119.091 335.931 119.493 336.23 119.768C336.531 120.044 336.893 120.182 337.316 120.182ZM343.182 119.807L343.114 120.267C343.066 120.591 342.992 120.938 342.892 121.307C342.796 121.676 342.695 122.024 342.59 122.351C342.485 122.678 342.398 122.938 342.33 123.131H341.563C341.6 122.949 341.648 122.709 341.708 122.411C341.767 122.112 341.827 121.778 341.887 121.409C341.949 121.043 342 120.668 342.04 120.284L342.091 119.807H343.182ZM348.403 121V120.233L351.284 117.08C351.622 116.71 351.901 116.389 352.119 116.116C352.338 115.841 352.5 115.582 352.605 115.341C352.713 115.097 352.767 114.841 352.767 114.574C352.767 114.267 352.693 114.001 352.545 113.777C352.401 113.553 352.202 113.379 351.949 113.257C351.696 113.135 351.412 113.074 351.097 113.074C350.761 113.074 350.469 113.143 350.219 113.283C349.972 113.419 349.78 113.611 349.643 113.858C349.51 114.105 349.443 114.395 349.443 114.727H348.438C348.438 114.216 348.555 113.767 348.791 113.381C349.027 112.994 349.348 112.693 349.754 112.477C350.163 112.261 350.622 112.153 351.131 112.153C351.642 112.153 352.095 112.261 352.49 112.477C352.885 112.693 353.195 112.984 353.419 113.351C353.643 113.717 353.756 114.125 353.756 114.574C353.756 114.895 353.697 115.209 353.581 115.516C353.467 115.82 353.268 116.159 352.984 116.534C352.703 116.906 352.312 117.361 351.812 117.898L349.852 119.994V120.062H353.909V121H348.403ZM358.396 121.119C357.896 121.119 357.446 121.02 357.045 120.821C356.645 120.622 356.324 120.349 356.082 120.003C355.841 119.656 355.709 119.261 355.686 118.818H356.709C356.749 119.213 356.928 119.54 357.246 119.798C357.567 120.054 357.95 120.182 358.396 120.182C358.754 120.182 359.072 120.098 359.351 119.93C359.632 119.763 359.852 119.533 360.011 119.24C360.173 118.945 360.254 118.611 360.254 118.239C360.254 117.858 360.17 117.518 360.003 117.22C359.838 116.919 359.611 116.682 359.321 116.509C359.031 116.335 358.7 116.247 358.328 116.244C358.061 116.241 357.787 116.283 357.506 116.368C357.224 116.45 356.993 116.557 356.811 116.688L355.822 116.568L356.351 112.273H360.885V113.21H357.237L356.93 115.784H356.982C357.161 115.642 357.385 115.524 357.655 115.43C357.925 115.337 358.206 115.29 358.499 115.29C359.033 115.29 359.509 115.418 359.926 115.673C360.347 115.926 360.676 116.273 360.915 116.713C361.156 117.153 361.277 117.656 361.277 118.222C361.277 118.778 361.152 119.276 360.902 119.713C360.655 120.148 360.314 120.491 359.879 120.744C359.445 120.994 358.95 121.119 358.396 121.119ZM365.697 121.119C365.197 121.119 364.747 121.02 364.346 120.821C363.946 120.622 363.625 120.349 363.383 120.003C363.142 119.656 363.01 119.261 362.987 118.818H364.01C364.049 119.213 364.228 119.54 364.547 119.798C364.868 120.054 365.251 120.182 365.697 120.182C366.055 120.182 366.373 120.098 366.652 119.93C366.933 119.763 367.153 119.533 367.312 119.24C367.474 118.945 367.555 118.611 367.555 118.239C367.555 117.858 367.471 117.518 367.304 117.22C367.139 116.919 366.912 116.682 366.622 116.509C366.332 116.335 366.001 116.247 365.629 116.244C365.362 116.241 365.088 116.283 364.806 116.368C364.525 116.45 364.294 116.557 364.112 116.688L363.123 116.568L363.652 112.273H368.186V113.21H364.538L364.231 115.784H364.282C364.461 115.642 364.686 115.524 364.956 115.43C365.225 115.337 365.507 115.29 365.799 115.29C366.333 115.29 366.809 115.418 367.227 115.673C367.647 115.926 367.977 116.273 368.216 116.713C368.457 117.153 368.578 117.656 368.578 118.222C368.578 118.778 368.453 119.276 368.203 119.713C367.956 120.148 367.615 120.491 367.18 120.744C366.745 120.994 366.251 121.119 365.697 121.119ZM372.435 116.636C372.435 117.71 372.295 118.699 372.013 119.602C371.735 120.503 371.336 121.332 370.816 122.091H369.93C370.134 121.81 370.325 121.463 370.501 121.051C370.68 120.642 370.836 120.193 370.969 119.705C371.103 119.213 371.207 118.706 371.281 118.183C371.357 117.658 371.396 117.142 371.396 116.636C371.396 115.96 371.33 115.274 371.2 114.578C371.069 113.882 370.893 113.236 370.671 112.639C370.45 112.043 370.202 111.557 369.93 111.182H370.816C371.336 111.94 371.735 112.771 372.013 113.675C372.295 114.575 372.435 115.562 372.435 116.636Z" fill="black"/>
<path d="M28.5753 116.636C28.5753 115.562 28.7145 114.575 28.9929 113.675C29.2741 112.771 29.6747 111.94 30.1946 111.182H31.081C30.8764 111.463 30.6847 111.81 30.5057 112.222C30.3295 112.631 30.1747 113.081 30.0412 113.572C29.9077 114.061 29.8026 114.567 29.7259 115.089C29.652 115.612 29.6151 116.128 29.6151 116.636C29.6151 117.312 29.6804 117.999 29.8111 118.695C29.9418 119.391 30.1179 120.037 30.3395 120.634C30.5611 121.23 30.8082 121.716 31.081 122.091H30.1946C29.6747 121.332 29.2741 120.503 28.9929 119.602C28.7145 118.699 28.5753 117.71 28.5753 116.636ZM32.5479 121V120.233L35.4286 117.08C35.7667 116.71 36.0451 116.389 36.2638 116.116C36.4826 115.841 36.6445 115.582 36.7496 115.341C36.8576 115.097 36.9116 114.841 36.9116 114.574C36.9116 114.267 36.8377 114.001 36.69 113.777C36.5451 113.553 36.3462 113.379 36.0934 113.257C35.8406 113.135 35.5565 113.074 35.2411 113.074C34.9059 113.074 34.6133 113.143 34.3633 113.283C34.1161 113.419 33.9244 113.611 33.788 113.858C33.6545 114.105 33.5877 114.395 33.5877 114.727H32.582C32.582 114.216 32.6999 113.767 32.9357 113.381C33.1715 112.994 33.4925 112.693 33.8988 112.477C34.3079 112.261 34.7667 112.153 35.2752 112.153C35.7866 112.153 36.2397 112.261 36.6346 112.477C37.0295 112.693 37.3391 112.984 37.5636 113.351C37.788 113.717 37.9002 114.125 37.9002 114.574C37.9002 114.895 37.842 115.209 37.7255 115.516C37.6119 115.82 37.413 116.159 37.1289 116.534C36.8477 116.906 36.457 117.361 35.957 117.898L33.9968 119.994V120.062H38.0536V121H32.5479ZM42.5408 121.119C42.0408 121.119 41.5906 121.02 41.19 120.821C40.7894 120.622 40.4684 120.349 40.2269 120.003C39.9854 119.656 39.8533 119.261 39.8306 118.818H40.8533C40.8931 119.213 41.0721 119.54 41.3903 119.798C41.7113 120.054 42.0948 120.182 42.5408 120.182C42.8988 120.182 43.217 120.098 43.4954 119.93C43.7766 119.763 43.9968 119.533 44.1559 119.24C44.3178 118.945 44.3988 118.611 44.3988 118.239C44.3988 117.858 44.315 117.518 44.1474 117.22C43.9826 116.919 43.7553 116.682 43.4656 116.509C43.1758 116.335 42.8448 116.247 42.4727 116.244C42.2056 116.241 41.9315 116.283 41.6502 116.368C41.369 116.45 41.1374 116.557 40.9556 116.688L39.967 116.568L40.4954 112.273H45.0295V113.21H41.3817L41.0749 115.784H41.1261C41.305 115.642 41.5295 115.524 41.7994 115.43C42.0692 115.337 42.3505 115.29 42.6431 115.29C43.1772 115.29 43.6531 115.418 44.0707 115.673C44.4911 115.926 44.8207 116.273 45.0593 116.713C45.3008 117.153 45.4215 117.656 45.4215 118.222C45.4215 118.778 45.2965 119.276 45.0465 119.713C44.7994 120.148 44.4585 120.491 44.0238 120.744C43.5891 120.994 43.0948 121.119 42.5408 121.119ZM49.8416 121.119C49.3416 121.119 48.8913 121.02 48.4908 120.821C48.0902 120.622 47.7692 120.349 47.5277 120.003C47.2862 119.656 47.1541 119.261 47.1314 118.818H48.1541C48.1939 119.213 48.3729 119.54 48.6911 119.798C49.0121 120.054 49.3956 120.182 49.8416 120.182C50.1996 120.182 50.5178 120.098 50.7962 119.93C51.0774 119.763 51.2976 119.533 51.4567 119.24C51.6186 118.945 51.6996 118.611 51.6996 118.239C51.6996 117.858 51.6158 117.518 51.4482 117.22C51.2834 116.919 51.0561 116.682 50.7663 116.509C50.4766 116.335 50.1456 116.247 49.7734 116.244C49.5064 116.241 49.2322 116.283 48.951 116.368C48.6697 116.45 48.4382 116.557 48.2564 116.688L47.2678 116.568L47.7962 112.273H52.3303V113.21H48.6825L48.3757 115.784H48.4268C48.6058 115.642 48.8303 115.524 49.1001 115.43C49.37 115.337 49.6513 115.29 49.9439 115.29C50.478 115.29 50.9538 115.418 51.3714 115.673C51.7919 115.926 52.1214 116.273 52.3601 116.713C52.6016 117.153 52.7223 117.656 52.7223 118.222C52.7223 118.778 52.5973 119.276 52.3473 119.713C52.1001 120.148 51.7592 120.491 51.3246 120.744C50.8899 120.994 50.3956 121.119 49.8416 121.119ZM55.604 119.807L55.5359 120.267C55.4876 120.591 55.4137 120.938 55.3143 121.307C55.2177 121.676 55.1168 122.024 55.0117 122.351C54.9066 122.678 54.82 122.938 54.7518 123.131H53.9847C54.0217 122.949 54.07 122.709 54.1296 122.411C54.1893 122.112 54.2489 121.778 54.3086 121.409C54.3711 121.043 54.4222 120.668 54.462 120.284L54.5131 119.807H55.604ZM63.6719 121.119C63.0298 121.119 62.483 120.945 62.0312 120.595C61.5795 120.243 61.2344 119.733 60.9957 119.065C60.7571 118.395 60.6378 117.585 60.6378 116.636C60.6378 115.693 60.7571 114.888 60.9957 114.22C61.2372 113.55 61.5838 113.038 62.0355 112.686C62.4901 112.331 63.0355 112.153 63.6719 112.153C64.3082 112.153 64.8523 112.331 65.304 112.686C65.7585 113.038 66.1051 113.55 66.3438 114.22C66.5852 114.888 66.706 115.693 66.706 116.636C66.706 117.585 66.5866 118.395 66.348 119.065C66.1094 119.733 65.7642 120.243 65.3125 120.595C64.8608 120.945 64.3139 121.119 63.6719 121.119ZM63.6719 120.182C64.3082 120.182 64.8026 119.875 65.1548 119.261C65.5071 118.648 65.6832 117.773 65.6832 116.636C65.6832 115.881 65.6023 115.237 65.4403 114.706C65.2813 114.175 65.0511 113.77 64.75 113.491C64.4517 113.213 64.0923 113.074 63.6719 113.074C63.0412 113.074 62.5483 113.385 62.1932 114.007C61.8381 114.626 61.6605 115.503 61.6605 116.636C61.6605 117.392 61.7401 118.034 61.8991 118.562C62.0582 119.091 62.2869 119.493 62.5852 119.768C62.8864 120.044 63.2486 120.182 63.6719 120.182ZM69.5376 119.807L69.4695 120.267C69.4212 120.591 69.3473 120.938 69.2479 121.307C69.1513 121.676 69.0504 122.024 68.9453 122.351C68.8402 122.678 68.7536 122.938 68.6854 123.131H67.9183C67.9553 122.949 68.0036 122.709 68.0632 122.411C68.1229 122.112 68.1825 121.778 68.2422 121.409C68.3047 121.043 68.3558 120.668 68.3956 120.284L68.4467 119.807H69.5376ZM77.6055 121.119C76.9634 121.119 76.4165 120.945 75.9648 120.595C75.5131 120.243 75.168 119.733 74.9293 119.065C74.6907 118.395 74.5714 117.585 74.5714 116.636C74.5714 115.693 74.6907 114.888 74.9293 114.22C75.1708 113.55 75.5174 113.038 75.9691 112.686C76.4237 112.331 76.9691 112.153 77.6055 112.153C78.2418 112.153 78.7859 112.331 79.2376 112.686C79.6921 113.038 80.0387 113.55 80.2773 114.22C80.5188 114.888 80.6396 115.693 80.6396 116.636C80.6396 117.585 80.5202 118.395 80.2816 119.065C80.043 119.733 79.6978 120.243 79.2461 120.595C78.7944 120.945 78.2475 121.119 77.6055 121.119ZM77.6055 120.182C78.2418 120.182 78.7362 119.875 79.0884 119.261C79.4407 118.648 79.6168 117.773 79.6168 116.636C79.6168 115.881 79.5359 115.237 79.3739 114.706C79.2148 114.175 78.9847 113.77 78.6836 113.491C78.3853 113.213 78.0259 113.074 77.6055 113.074C76.9748 113.074 76.4819 113.385 76.1268 114.007C75.7717 114.626 75.5941 115.503 75.5941 116.636C75.5941 117.392 75.6737 118.034 75.8327 118.562C75.9918 119.091 76.2205 119.493 76.5188 119.768C76.82 120.044 77.1822 120.182 77.6055 120.182ZM84.4237 116.636C84.4237 117.71 84.283 118.699 84.0018 119.602C83.7234 120.503 83.3242 121.332 82.8043 122.091H81.918C82.1225 121.81 82.3129 121.463 82.489 121.051C82.668 120.642 82.8242 120.193 82.9577 119.705C83.0913 119.213 83.195 118.706 83.2688 118.183C83.3455 117.658 83.3839 117.142 83.3839 116.636C83.3839 115.96 83.3185 115.274 83.1879 114.578C83.0572 113.882 82.881 113.236 82.6594 112.639C82.4379 112.043 82.1907 111.557 81.918 111.182H82.8043C83.3242 111.94 83.7234 112.771 84.0018 113.675C84.283 114.575 84.4237 115.562 84.4237 116.636Z" fill="black"/>
<rect x="183.289" y="5.4647" width="58.3454" height="63.5851" fill="white" stroke="#6C6C6C" stroke-width="1.2"/>
<path d="M241.315 5.50849L240.953 5.66482V6.05939V68.4497V69.4701L241.844 68.974L250.157 64.349L250.465 64.1774V63.8247V2.47266V1.56027L249.627 1.92176L241.315 5.50849Z" fill="#333333" stroke="#6C6C6C" stroke-width="1.2"/>
<path d="M193.586 1.4H193.479L193.378 1.43736L183.68 5.02923L183.889 6.19187H241.034H241.151L241.26 6.14766L250.092 2.55579L249.866 1.4H193.586Z" fill="#676767" stroke="#6C6C6C" stroke-width="1.2"/>
<rect x="163.816" y="19.2652" width="58.3454" height="63.5851" fill="#00FF00" stroke="#6C6C6C" stroke-width="1.2"/>
<path d="M221.842 19.3093L221.48 19.4656V19.8602V82.2505V83.2709L222.372 82.7747L230.684 78.1498L230.992 77.9782V77.6255V16.2734V15.3611L230.154 15.7225L221.842 19.3093Z" fill="#333333" stroke="#6C6C6C" stroke-width="1.2"/>
<path d="M174.113 15.2008H174.006L173.905 15.2381L164.208 18.83L164.416 19.9927H221.561H221.679L221.787 19.9484L230.619 16.3566L230.393 15.2008H174.113Z" fill="#676767" stroke="#6C6C6C" stroke-width="1.2"/>
<rect x="143.4" y="33.8219" width="58.3454" height="63.5851" rx="2.6" fill="white" stroke="#6C6C6C" stroke-width="1.2"/>
<path d="M201.426 33.8659L201.064 34.0222V34.4168V96.8071V97.8276L201.956 97.3314L210.268 92.7064L210.576 92.5349V92.1821V30.8301V29.9177L209.738 30.2792L201.426 33.8659Z" fill="#333333" stroke="#6C6C6C" stroke-width="1.2"/>
<path d="M153.697 29.7574H153.59L153.489 29.7948L143.792 33.3866L144 34.5493H201.145H201.263L201.371 34.5051L210.203 30.9132L209.977 29.7574H153.697Z" fill="#676767" stroke="#6C6C6C" stroke-width="1.2"/>
<rect x="41.2887" y="5.4647" width="58.3454" height="63.5851" fill="white" stroke="#6C6C6C" stroke-width="1.2"/>
<path d="M99.315 5.50849L98.9527 5.66482V6.05939V68.4497V69.4701L99.8445 68.974L108.157 64.349L108.465 64.1774V63.8247V2.47266V1.56027L107.627 1.92176L99.315 5.50849Z" fill="#333333" stroke="#6C6C6C" stroke-width="1.2"/>
<path d="M51.5861 1.4H51.4785L51.3777 1.43736L41.6803 5.02923L41.8887 6.19187H99.0341H99.1514L99.2601 6.14766L108.092 2.55579L107.866 1.4H51.5861Z" fill="#676767" stroke="#6C6C6C" stroke-width="1.2"/>
<rect x="21.816" y="19.2652" width="58.3454" height="63.5851" fill="white" stroke="#6C6C6C" stroke-width="1.2"/>
<path d="M79.8424 19.3093L79.4801 19.4656V19.8602V82.2505V83.2709L80.3718 82.7747L88.6839 78.1498L88.9921 77.9782V77.6255V16.2734V15.3611L88.1544 15.7225L79.8424 19.3093Z" fill="#333333" stroke="#6C6C6C" stroke-width="1.2"/>
<path d="M32.1134 15.2008H32.0059L31.905 15.2381L22.2076 18.83L22.416 19.9927H79.5614H79.6788L79.7875 19.9484L88.6191 16.3566L88.393 15.2008H32.1134Z" fill="#676767" stroke="#6C6C6C" stroke-width="1.2"/>
<rect x="1.4" y="33.8219" width="58.3454" height="63.5851" rx="2.6" fill="#0000FF" stroke="#6C6C6C" stroke-width="1.2"/>
<path d="M59.4263 33.8659L59.0641 34.0222V34.4168V96.8071V97.8276L59.9558 97.3314L68.2679 92.7064L68.5761 92.5349V92.1821V30.8301V29.9177L67.7384 30.2792L59.4263 33.8659Z" fill="#333333" stroke="#6C6C6C" stroke-width="1.2"/>
<path d="M11.6974 29.7574H11.5899L11.489 29.7948L1.7916 33.3866L2 34.5493H59.1454H59.2628L59.3715 34.5051L68.203 30.9132L67.977 29.7574H11.6974Z" fill="#676767" stroke="#6C6C6C" stroke-width="1.2"/>
<rect x="325.289" y="5.4647" width="58.3454" height="63.5851" fill="#FF0000" stroke="#6C6C6C" stroke-width="1.2"/>
<path d="M383.315 5.50849L382.953 5.66482V6.05939V68.4497V69.4701L383.844 68.974L392.157 64.349L392.465 64.1774V63.8247V2.47266V1.56027L391.627 1.92176L383.315 5.50849Z" fill="#333333" stroke="#6C6C6C" stroke-width="1.2"/>
<path d="M335.586 1.4H335.479L335.378 1.43736L325.68 5.02923L325.889 6.19187H383.034H383.151L383.26 6.14766L392.092 2.55579L391.866 1.4H335.586Z" fill="#676767" stroke="#6C6C6C" stroke-width="1.2"/>
<rect x="305.816" y="19.2652" width="58.3454" height="63.5851" fill="white" stroke="#6C6C6C" stroke-width="1.2"/>
<path d="M363.842 19.3093L363.48 19.4656V19.8602V82.2505V83.2709L364.372 82.7747L372.684 78.1498L372.992 77.9782V77.6255V16.2734V15.3611L372.154 15.7225L363.842 19.3093Z" fill="#333333" stroke="#6C6C6C" stroke-width="1.2"/>
<path d="M316.113 15.2008H316.006L315.905 15.2381L306.208 18.83L306.416 19.9927H363.561H363.679L363.787 19.9484L372.619 16.3566L372.393 15.2008H316.113Z" fill="#676767" stroke="#6C6C6C" stroke-width="1.2"/>
<rect x="285.4" y="33.8219" width="58.3454" height="63.5851" fill="white" stroke="#6C6C6C" stroke-width="1.2"/>
<path d="M343.426 33.8659L343.064 34.0222V34.4168V96.8071V97.8276L343.956 97.3314L352.268 92.7064L352.576 92.5349V92.1821V30.8301V29.9177L351.738 30.2792L343.426 33.8659Z" fill="#333333" stroke="#6C6C6C" stroke-width="1.2"/>
<path d="M295.697 29.7574H295.59L295.489 29.7948L285.792 33.3866L286 34.5493H343.145H343.263L343.371 34.5051L352.203 30.9132L351.977 29.7574H295.697Z" fill="#676767" stroke="#6C6C6C" stroke-width="1.2"/>
<rect x="325.289" y="5.4647" width="58.3454" height="63.5851" fill="#FF0000" stroke="#6C6C6C" stroke-width="1.2"/>
<path d="M383.315 5.50849L382.953 5.66482V6.05939V68.4497V69.4701L383.844 68.974L392.157 64.349L392.465 64.1774V63.8247V2.47266V1.56027L391.627 1.92176L383.315 5.50849Z" fill="#333333" stroke="#6C6C6C" stroke-width="1.2"/>
<path d="M335.586 1.4H335.479L335.378 1.43736L325.68 5.02923L325.889 6.19187H383.034H383.151L383.26 6.14766L392.092 2.55579L391.866 1.4H335.586Z" fill="#676767" stroke="#6C6C6C" stroke-width="1.2"/>
<rect x="305.816" y="19.2652" width="58.3454" height="63.5851" fill="white" stroke="#6C6C6C" stroke-width="1.2"/>
<path d="M363.842 19.3093L363.48 19.4656V19.8602V82.2505V83.2709L364.372 82.7747L372.684 78.1498L372.992 77.9782V77.6255V16.2734V15.3611L372.154 15.7225L363.842 19.3093Z" fill="#333333" stroke="#6C6C6C" stroke-width="1.2"/>
<path d="M316.113 15.2008H316.006L315.905 15.2381L306.208 18.83L306.416 19.9927H363.561H363.679L363.787 19.9484L372.619 16.3566L372.393 15.2008H316.113Z" fill="#676767" stroke="#6C6C6C" stroke-width="1.2"/>
<rect x="285.4" y="33.8219" width="58.3454" height="63.5851" rx="2.6" fill="white" stroke="#6C6C6C" stroke-width="1.2"/>
<path d="M343.426 33.8659L343.064 34.0222V34.4168V96.8071V97.8276L343.956 97.3314L352.268 92.7064L352.576 92.5349V92.1821V30.8301V29.9177L351.738 30.2792L343.426 33.8659Z" fill="#333333" stroke="#6C6C6C" stroke-width="1.2"/>
<path d="M295.697 29.7574H295.59L295.489 29.7948L285.792 33.3866L286 34.5493H343.145H343.263L343.371 34.5051L352.203 30.9132L351.977 29.7574H295.697Z" fill="#676767" stroke="#6C6C6C" stroke-width="1.2"/>
</svg>
