<svg width="409" height="161" viewBox="0 0 409 161" fill="none" xmlns="http://www.w3.org/2000/svg">
<path d="M39.0709 145.388V149.803H36.953V139.621H39.0112V143.514H39.1007C39.2731 143.063 39.5515 142.71 39.9359 142.455C40.3204 142.196 40.8027 142.067 41.3827 142.067C41.913 142.067 42.3753 142.183 42.7697 142.415C43.1675 142.644 43.4757 142.973 43.6945 143.404C43.9165 143.832 44.0259 144.344 44.0226 144.941V149.803H41.9047V145.318C41.908 144.848 41.7887 144.481 41.5467 144.22C41.3081 143.958 40.9733 143.827 40.5425 143.827C40.2541 143.827 39.9989 143.888 39.7768 144.011C39.5581 144.133 39.3857 144.312 39.2598 144.548C39.1372 144.78 39.0742 145.06 39.0709 145.388ZM46.3893 149.803V142.166H48.5072V149.803H46.3893ZM47.4532 141.182C47.1384 141.182 46.8682 141.078 46.6429 140.869C46.4208 140.657 46.3098 140.403 46.3098 140.108C46.3098 139.816 46.4208 139.566 46.6429 139.357C46.8682 139.145 47.1384 139.039 47.4532 139.039C47.7681 139.039 48.0366 139.145 48.2586 139.357C48.484 139.566 48.5967 139.816 48.5967 140.108C48.5967 140.403 48.484 140.657 48.2586 140.869C48.0366 141.078 47.7681 141.182 47.4532 141.182ZM54.3441 152.825C53.658 152.825 53.0697 152.731 52.5792 152.542C52.092 152.356 51.7042 152.103 51.4158 151.781C51.1275 151.46 50.9402 151.099 50.854 150.698L52.8129 150.434C52.8725 150.587 52.967 150.729 53.0962 150.862C53.2255 150.994 53.3962 151.1 53.6083 151.18C53.8237 151.263 54.0856 151.304 54.3938 151.304C54.8545 151.304 55.234 151.191 55.5323 150.966C55.8339 150.744 55.9847 150.371 55.9847 149.847V148.45H55.8952C55.8024 148.663 55.6632 148.863 55.4776 149.052C55.292 149.241 55.0534 149.395 54.7617 149.514C54.4701 149.634 54.122 149.693 53.7177 149.693C53.1443 149.693 52.6223 149.561 52.1516 149.296C51.6843 149.027 51.3114 148.618 51.033 148.068C50.7579 147.514 50.6204 146.815 50.6204 145.97C50.6204 145.105 50.7612 144.382 51.043 143.802C51.3247 143.222 51.6992 142.788 52.1665 142.499C52.6372 142.211 53.1526 142.067 53.7127 142.067C54.1403 142.067 54.4982 142.14 54.7866 142.286C55.0749 142.428 55.3069 142.607 55.4826 142.823C55.6616 143.035 55.7991 143.244 55.8952 143.449H55.9748V142.166H58.0778V149.877C58.0778 150.527 57.9187 151.07 57.6005 151.508C57.2823 151.945 56.8415 152.274 56.2781 152.492C55.7179 152.714 55.0733 152.825 54.3441 152.825ZM54.3888 148.102C54.7302 148.102 55.0186 148.018 55.2539 147.849C55.4925 147.677 55.6748 147.431 55.8008 147.113C55.93 146.792 55.9947 146.407 55.9947 145.96C55.9947 145.512 55.9317 145.124 55.8058 144.796C55.6798 144.465 55.4975 144.208 55.2589 144.026C55.0202 143.843 54.7302 143.752 54.3888 143.752C54.0408 143.752 53.7475 143.847 53.5089 144.036C53.2702 144.221 53.0896 144.48 52.967 144.811C52.8443 145.143 52.783 145.526 52.783 145.96C52.783 146.401 52.8443 146.782 52.967 147.103C53.0929 147.421 53.2736 147.668 53.5089 147.844C53.7475 148.016 54.0408 148.102 54.3888 148.102ZM62.581 145.388V149.803H60.4631V139.621H62.5214V143.514H62.6109C62.7832 143.063 63.0616 142.71 63.4461 142.455C63.8306 142.196 64.3128 142.067 64.8928 142.067C65.4231 142.067 65.8855 142.183 66.2799 142.415C66.6776 142.644 66.9859 142.973 67.2046 143.404C67.4267 143.832 67.5361 144.344 67.5327 144.941V149.803H65.4148V145.318C65.4182 144.848 65.2988 144.481 65.0569 144.22C64.8183 143.958 64.4835 143.827 64.0526 143.827C63.7643 143.827 63.5091 143.888 63.287 144.011C63.0682 144.133 62.8959 144.312 62.77 144.548C62.6473 144.78 62.5843 145.06 62.581 145.388ZM73.3796 149.952C72.5941 149.952 71.9179 149.793 71.3512 149.475C70.7877 149.153 70.3535 148.699 70.0486 148.112C69.7437 147.522 69.5912 146.825 69.5912 146.019C69.5912 145.234 69.7437 144.544 70.0486 143.951C70.3535 143.358 70.7827 142.896 71.3363 142.564C71.8931 142.233 72.546 142.067 73.2951 142.067C73.7988 142.067 74.2678 142.148 74.702 142.311C75.1395 142.47 75.5207 142.71 75.8455 143.031C76.1736 143.353 76.4288 143.757 76.6111 144.244C76.7934 144.728 76.8845 145.295 76.8845 145.945V146.526H70.4364V145.214H74.8909C74.8909 144.909 74.8247 144.639 74.6921 144.404C74.5595 144.168 74.3756 143.984 74.1402 143.852C73.9082 143.716 73.6381 143.648 73.3299 143.648C73.0084 143.648 72.7233 143.722 72.4747 143.872C72.2295 144.017 72.0372 144.215 71.898 144.463C71.7588 144.709 71.6876 144.982 71.6843 145.284V146.531C71.6843 146.909 71.7539 147.236 71.8931 147.511C72.0356 147.786 72.2361 147.998 72.4946 148.147C72.7532 148.296 73.0597 148.371 73.4144 148.371C73.6497 148.371 73.8651 148.338 74.0607 148.271C74.2562 148.205 74.4236 148.106 74.5628 147.973C74.702 147.841 74.8081 147.678 74.881 147.486L76.8398 147.615C76.7404 148.086 76.5365 148.497 76.2283 148.848C75.9234 149.196 75.529 149.468 75.0451 149.664C74.5645 149.856 74.0093 149.952 73.3796 149.952ZM78.9667 149.803V142.166H81.0199V143.499H81.0995C81.2387 143.025 81.4723 142.667 81.8005 142.425C82.1286 142.18 82.5064 142.057 82.934 142.057C83.04 142.057 83.1544 142.064 83.277 142.077C83.3997 142.09 83.5074 142.108 83.6002 142.132V144.011C83.5007 143.981 83.3632 143.954 83.1875 143.931C83.0119 143.908 82.8511 143.896 82.7053 143.896C82.3937 143.896 82.1153 143.964 81.8701 144.1C81.6281 144.233 81.4359 144.419 81.2934 144.657C81.1542 144.896 81.0846 145.171 81.0846 145.482V149.803H78.9667ZM94.3816 152.666V148.58H94.3169C94.2175 148.792 94.0766 149.002 93.8944 149.211C93.7154 149.417 93.4817 149.587 93.1934 149.723C92.9083 149.859 92.5603 149.927 92.1493 149.927C91.5693 149.927 91.044 149.778 90.5733 149.48C90.106 149.178 89.7348 148.735 89.4597 148.152C89.1879 147.566 89.052 146.846 89.052 145.994C89.052 145.119 89.1929 144.392 89.4746 143.812C89.7563 143.229 90.1309 142.793 90.5982 142.504C91.0688 142.213 91.5842 142.067 92.1444 142.067C92.5719 142.067 92.9282 142.14 93.2132 142.286C93.5016 142.428 93.7336 142.607 93.9093 142.823C94.0882 143.035 94.2241 143.244 94.3169 143.449H94.4064V142.166H96.4945V152.666H94.3816ZM92.8205 148.242C93.1619 148.242 93.4502 148.149 93.6855 147.963C93.9242 147.774 94.1065 147.511 94.2324 147.173C94.3617 146.835 94.4263 146.439 94.4263 145.985C94.4263 145.53 94.3633 145.136 94.2374 144.801C94.1114 144.467 93.9292 144.208 93.6905 144.026C93.4519 143.843 93.1619 143.752 92.8205 143.752C92.4725 143.752 92.1792 143.847 91.9405 144.036C91.7019 144.225 91.5212 144.486 91.3986 144.821C91.276 145.156 91.2147 145.544 91.2147 145.985C91.2147 146.429 91.276 146.821 91.3986 147.163C91.5246 147.501 91.7052 147.766 91.9405 147.958C92.1792 148.147 92.4725 148.242 92.8205 148.242ZM103.792 146.551V142.166H105.91V149.803H103.876V148.416H103.797C103.624 148.863 103.338 149.223 102.937 149.494C102.539 149.766 102.053 149.902 101.48 149.902C100.97 149.902 100.52 149.786 100.133 149.554C99.7449 149.322 99.4417 148.992 99.2229 148.565C99.0075 148.137 98.8981 147.625 98.8948 147.029V142.166H101.013V146.651C101.016 147.102 101.137 147.458 101.376 147.72C101.614 147.981 101.934 148.112 102.335 148.112C102.59 148.112 102.829 148.054 103.051 147.938C103.273 147.819 103.452 147.643 103.588 147.411C103.727 147.179 103.795 146.893 103.792 146.551ZM110.481 149.947C109.994 149.947 109.56 149.862 109.179 149.693C108.798 149.521 108.496 149.267 108.274 148.933C108.055 148.595 107.946 148.174 107.946 147.67C107.946 147.246 108.024 146.889 108.179 146.601C108.335 146.313 108.547 146.081 108.816 145.905C109.084 145.729 109.389 145.597 109.731 145.507C110.075 145.418 110.437 145.355 110.814 145.318C111.259 145.272 111.617 145.229 111.888 145.189C112.16 145.146 112.357 145.083 112.48 145C112.603 144.917 112.664 144.795 112.664 144.632V144.602C112.664 144.288 112.564 144.044 112.366 143.872C112.17 143.699 111.892 143.613 111.53 143.613C111.149 143.613 110.846 143.698 110.621 143.867C110.395 144.032 110.246 144.241 110.173 144.493L108.214 144.334C108.314 143.87 108.509 143.469 108.801 143.131C109.093 142.789 109.469 142.528 109.929 142.345C110.393 142.16 110.93 142.067 111.54 142.067C111.965 142.067 112.371 142.117 112.758 142.216C113.149 142.316 113.496 142.47 113.797 142.678C114.102 142.887 114.343 143.156 114.518 143.484C114.694 143.809 114.782 144.198 114.782 144.652V149.803H112.773V148.744H112.714C112.591 148.982 112.427 149.193 112.221 149.375C112.016 149.554 111.769 149.695 111.481 149.798C111.192 149.897 110.859 149.947 110.481 149.947ZM111.088 148.485C111.399 148.485 111.675 148.424 111.913 148.301C112.152 148.175 112.339 148.006 112.475 147.794C112.611 147.582 112.679 147.342 112.679 147.073V146.263C112.612 146.306 112.521 146.346 112.405 146.382C112.293 146.415 112.165 146.447 112.023 146.477C111.88 146.503 111.737 146.528 111.595 146.551C111.452 146.571 111.323 146.589 111.207 146.606C110.959 146.642 110.742 146.7 110.556 146.78C110.37 146.86 110.226 146.967 110.123 147.103C110.021 147.236 109.969 147.401 109.969 147.6C109.969 147.889 110.074 148.109 110.282 148.262C110.495 148.411 110.763 148.485 111.088 148.485ZM119.243 139.621V149.803H117.125V139.621H119.243ZM121.639 149.803V142.166H123.757V149.803H121.639ZM122.703 141.182C122.388 141.182 122.118 141.078 121.893 140.869C121.671 140.657 121.56 140.403 121.56 140.108C121.56 139.816 121.671 139.566 121.893 139.357C122.118 139.145 122.388 139.039 122.703 139.039C123.018 139.039 123.287 139.145 123.509 139.357C123.734 139.566 123.847 139.816 123.847 140.108C123.847 140.403 123.734 140.657 123.509 140.869C123.287 141.078 123.018 141.182 122.703 141.182ZM130.216 142.166V143.757H125.617V142.166H130.216ZM126.661 140.337H128.779V147.456C128.779 147.652 128.809 147.804 128.868 147.914C128.928 148.02 129.011 148.094 129.117 148.137C129.226 148.18 129.352 148.202 129.495 148.202C129.594 148.202 129.694 148.194 129.793 148.177C129.892 148.157 129.969 148.142 130.022 148.132L130.355 149.708C130.249 149.741 130.1 149.78 129.907 149.823C129.715 149.869 129.481 149.897 129.206 149.907C128.696 149.927 128.248 149.859 127.864 149.703C127.483 149.548 127.186 149.306 126.974 148.977C126.762 148.649 126.658 148.235 126.661 147.735V140.337ZM133.603 152.666C133.334 152.666 133.082 152.645 132.847 152.602C132.615 152.562 132.423 152.511 132.27 152.448L132.748 150.867C132.996 150.943 133.22 150.984 133.419 150.991C133.621 150.998 133.795 150.951 133.941 150.852C134.09 150.752 134.211 150.583 134.304 150.345L134.428 150.021L131.689 142.166H133.916L135.497 147.774H135.576L137.172 142.166H139.414L136.446 150.628C136.304 151.039 136.11 151.397 135.865 151.702C135.623 152.01 135.316 152.247 134.945 152.413C134.574 152.582 134.126 152.666 133.603 152.666ZM143.729 139.621L143.535 146.75H141.715L141.516 139.621H143.729ZM142.625 149.932C142.297 149.932 142.015 149.816 141.78 149.584C141.545 149.349 141.429 149.067 141.432 148.739C141.429 148.414 141.545 148.136 141.78 147.904C142.015 147.672 142.297 147.556 142.625 147.556C142.94 147.556 143.217 147.672 143.455 147.904C143.694 148.136 143.815 148.414 143.818 148.739C143.815 148.958 143.757 149.158 143.644 149.34C143.535 149.519 143.391 149.664 143.212 149.773C143.033 149.879 142.837 149.932 142.625 149.932Z" fill="black"/>
<path d="M102.349 38.0927L88.4999 24.2432L74.6503 38.0927L73.2207 36.6631L87.7849 22.0989C87.9744 21.9094 88.2317 21.803 88.4999 21.803C88.768 21.803 89.025 21.9094 89.2148 22.0989L103.779 36.6631L102.349 38.0927Z" fill="#B3B3B3"/>
<path d="M49 34.6604V129.572H128V34.6604H49Z" fill="#F7B239"/>
<path d="M114.613 50.4846H64.4062V98.5013H114.613V50.4846Z" fill="white"/>
<path d="M60.166 45.8259V118.407H116.836V45.8259H60.166Z" fill="#87B6DD"/>
<path d="M127.998 34.6604V35.9114L116.833 47.0765V45.8255H115.582L126.747 34.6604H127.998Z" fill="#D69732"/>
<path d="M61.4161 45.8255H60.1651V47.0765L49 35.9114V34.6604H50.251L61.4161 45.8255Z" fill="#D69732"/>
<path d="M61.4161 118.406L50.251 129.571H49V128.32L60.1651 117.155V118.406H61.4161Z" fill="#D69732"/>
<path d="M127.998 128.32V129.571H126.747L115.582 118.406H116.833V117.155L127.998 128.32Z" fill="#D69732"/>
<path d="M90.435 98.3711V118.407H87.4023V98.3711C87.8825 98.5151 88.3905 98.5935 88.9187 98.5935C89.4468 98.5935 89.9548 98.5151 90.435 98.3711Z" fill="#14AF61"/>
<path d="M88.9184 112.793V114.221H87.4906C79.9545 114.221 73.8438 108.11 73.8438 100.574V99.146H75.2716C82.8077 99.146 88.9184 105.257 88.9184 112.793Z" fill="#14AF61"/>
<path d="M90.435 98.3711V101.932C90.3895 101.95 90.3415 101.962 90.296 101.977C89.8613 102.106 89.3988 102.18 88.9187 102.18C88.4385 102.18 87.976 102.106 87.5388 101.977C87.4933 101.965 87.4478 101.95 87.4023 101.934V98.3711C87.8825 98.5151 88.3905 98.5935 88.9187 98.5935C89.4468 98.5935 89.9548 98.5151 90.435 98.3711Z" fill="#0EA053"/>
<path d="M104.988 83.3184H100.413L103.648 86.5553C104.579 87.484 105.044 88.7026 105.044 89.921C105.044 91.1393 104.579 92.3579 103.648 93.289C101.788 95.1465 98.7743 95.1465 96.9143 93.289L93.6797 90.0521V94.6271C93.6797 96.7767 92.2544 98.5951 90.2981 99.1859C89.8614 99.3171 89.3992 99.3883 88.9188 99.3883C88.4384 99.3883 87.9761 99.3171 87.5394 99.1859C85.5831 98.5951 84.1578 96.7765 84.1578 94.6271V90.0521L80.9232 93.289C79.9945 94.2177 78.7736 94.6822 77.5553 94.6822C76.3369 94.6822 75.1183 94.2177 74.1895 93.289C72.3298 91.4292 72.3298 88.413 74.1895 86.5553L77.4241 83.3184H72.8491C71.5342 83.3184 70.3432 82.7849 69.4834 81.9252C68.6214 81.0632 68.0879 79.8724 68.0879 78.5572C68.0879 75.9294 70.2191 73.796 72.8491 73.796H77.4241L74.1895 70.5614C73.2585 69.6304 72.794 68.4118 72.794 67.1934C72.794 65.9751 73.2585 64.7565 74.1895 63.8277C76.047 61.968 79.0632 61.968 80.9232 63.8277L84.1578 67.0623V62.4873C84.1578 59.8595 86.289 57.7261 88.919 57.7261C91.5491 57.7261 93.6803 59.8595 93.6803 62.4873V67.0623L96.9148 63.8277C97.8436 62.899 99.0619 62.4322 100.281 62.4322C101.499 62.4322 102.717 62.8987 103.649 63.8277C105.508 65.6875 105.508 68.7014 103.649 70.5614L100.414 73.796H104.989C106.304 73.796 107.495 74.3295 108.355 75.1915C109.217 76.0535 109.75 77.2443 109.75 78.5572C109.75 81.1873 107.618 83.3184 104.988 83.3184Z" fill="white"/>
<path d="M88.9199 66.3931C95.6382 66.3931 101.086 71.8404 101.086 78.5587C101.086 85.2795 95.6382 90.7266 88.9199 90.7266C82.1991 90.7266 76.752 85.2793 76.752 78.5587C76.752 71.8404 82.1991 66.3931 88.9199 66.3931Z" fill="#F24125"/>
<path d="M97.3319 78.5575C97.3319 83.205 93.5639 86.9705 88.9189 86.9705C88.282 86.9705 87.6629 86.8997 87.0664 86.7658C83.3085 85.9217 80.5059 82.5681 80.5059 78.5575C80.5059 74.5493 83.3085 71.1958 87.0664 70.3517C87.6629 70.2177 88.282 70.147 88.9189 70.147C93.5639 70.147 97.3319 73.9125 97.3319 78.5575Z" fill="#E5A030"/>
<path d="M93.6245 78.5578C93.6245 82.5685 90.8193 85.9221 87.0665 86.7662C83.3085 85.9221 80.5059 82.5685 80.5059 78.5578C80.5059 74.5497 83.3085 71.1961 87.0665 70.3521C90.8193 71.1961 93.6245 74.5497 93.6245 78.5578Z" fill="#F7B239"/>
<path d="M392.603 92.2955C396.622 91.4457 398.785 89.6527 399.123 87.5643C399.461 85.476 397.948 83.2487 394.335 81.5924L364.869 68.0904L381.612 48.5653C382.507 47.5849 382.889 46.4682 383.05 45.4761C383.523 42.5523 381.13 39.9683 377.543 39.3879C376.305 39.1875 374.844 39.112 373.383 39.4647L343.634 45.9017L333.075 18.5288C331.958 15.5086 329.643 13.6872 327.035 13.2651C324.491 12.8535 321.72 13.8518 319.707 16.3655L301.053 39.0105L274.854 23.5192C273.512 22.7127 272.168 22.3343 270.929 22.1338C267.343 21.5534 264.192 23.2403 263.719 26.164C263.559 27.1562 263.633 28.3469 264.174 29.5595L273.904 53.369L241.618 56.8773C237.806 57.2783 235.52 58.998 235.182 61.0864C234.853 63.1226 236.406 65.517 239.886 67.5804L267.657 83.701L247.296 108.213C246.319 109.287 245.807 110.383 245.629 111.479C245.207 114.09 247.12 116.328 250.25 116.835C251.554 117.046 253.048 116.913 254.666 116.424L295.384 104.637L301.595 132.002C302.378 135.022 304.489 136.864 306.967 137.265C309.575 137.687 312.094 136.595 313.724 133.965L328.314 109.966L363.237 133.995C364.618 134.969 366.002 135.514 367.307 135.725C370.306 136.211 372.94 134.815 373.362 132.205C373.54 131.108 373.343 129.844 372.82 128.527L361.165 98.8341L392.603 92.2955Z" fill="#CE3F32" stroke="black" stroke-width="0.00064"/>
<path d="M345.837 125.536H268.936H345.837ZM345.837 125.536V87.646C345.837 78.165 345.837 73.4244 342.891 70.4791C339.946 67.5337 335.205 67.5337 325.724 67.5337H289.049C279.568 67.5337 274.827 67.5337 271.882 70.4791C268.936 73.4244 268.936 78.165 268.936 87.646V125.536M345.837 125.536L354.606 134.587C354.829 134.819 354.941 134.934 355.046 135.049C356.661 136.822 357.588 139.113 357.662 141.509C357.667 141.664 357.667 141.825 357.667 142.147C357.667 142.897 357.667 143.272 357.647 143.589C357.328 148.644 353.3 152.672 348.245 152.991C347.928 153.011 347.553 153.011 346.803 153.011H267.97C267.219 153.011 266.844 153.011 266.527 152.991C261.473 152.672 257.445 148.644 257.125 143.589C257.105 143.272 257.105 142.897 257.105 142.147C257.105 141.825 257.105 141.664 257.11 141.509C257.184 139.113 258.112 136.822 259.726 135.049C259.831 134.934 259.943 134.819 260.167 134.587L268.936 125.536" fill="#D0D0D0"/>
<path d="M345.837 125.536H268.936M345.837 125.536V87.646C345.837 78.165 345.837 73.4244 342.891 70.4791C339.946 67.5337 335.205 67.5337 325.724 67.5337H289.049C279.568 67.5337 274.827 67.5337 271.882 70.4791C268.936 73.4244 268.936 78.165 268.936 87.646V125.536M345.837 125.536L354.606 134.587C354.829 134.819 354.941 134.934 355.046 135.049C356.661 136.822 357.588 139.113 357.662 141.509C357.667 141.664 357.667 141.825 357.667 142.147C357.667 142.897 357.667 143.272 357.647 143.589C357.328 148.644 353.3 152.672 348.245 152.991C347.928 153.011 347.553 153.011 346.803 153.011H267.97C267.219 153.011 266.844 153.011 266.527 152.991C261.473 152.672 257.445 148.644 257.125 143.589C257.105 143.272 257.105 142.897 257.105 142.147C257.105 141.825 257.105 141.664 257.11 141.509C257.184 139.113 258.112 136.822 259.726 135.049C259.831 134.934 259.943 134.819 260.167 134.587L268.936 125.536" stroke="black" stroke-width="4.687" stroke-linecap="round"/>
<g opacity="0.5">
<path d="M294.816 140.44H319.957H294.816Z" fill="#D0D0D0"/>
<path d="M294.816 140.44H319.957" stroke="black" stroke-width="4.687" stroke-linecap="round"/>
</g>
<path opacity="0.5" d="M306.925 77.3905C308.089 77.3905 309.033 76.4471 309.033 75.2834C309.033 74.1196 308.089 73.1763 306.925 73.1763C305.762 73.1763 304.818 74.1196 304.818 75.2834C304.818 76.4471 305.762 77.3905 306.925 77.3905Z" fill="#D0D0D0" stroke="black" stroke-width="2"/>
<rect x="278.141" y="80.8186" width="58.6764" height="37.6414" rx="5" fill="#B9B9B9"/>
<path d="M315.653 43.0758C314.328 44.0879 313.568 45.6248 313.568 47.2921C313.568 48.9596 314.328 50.4963 315.653 51.5086C316.296 51.9995 316.665 52.7448 316.665 53.5538C316.665 54.3627 316.296 55.1079 315.653 55.599C315.054 56.057 314.939 56.9144 315.397 57.5139C315.666 57.866 316.073 58.0508 316.484 58.0508C316.773 58.0508 317.065 57.9592 317.312 57.7701C318.637 56.7578 319.397 55.2211 319.397 53.5538C319.397 51.8865 318.637 50.3496 317.312 49.3375C316.669 48.8465 316.301 48.1011 316.301 47.2923C316.301 46.4835 316.669 45.7383 317.312 45.2471C318.637 44.235 319.397 42.6981 319.397 41.0308C319.397 39.3635 318.637 37.8266 317.312 36.8145C316.713 36.3566 315.855 36.4712 315.397 37.0707C314.939 37.6703 315.054 38.5276 315.653 38.9856C316.296 39.4766 316.665 40.222 316.665 41.0308C316.665 41.8394 316.296 42.5848 315.653 43.0758Z" fill="black"/>
<path d="M300.153 52.9971C300.796 53.488 301.165 54.2332 301.165 55.0423C301.165 55.8512 300.796 56.5963 300.153 57.0874C299.554 57.5454 299.439 58.4029 299.897 59.0024C300.166 59.3544 300.572 59.5392 300.984 59.5392C301.273 59.5392 301.565 59.4476 301.812 59.2586C303.137 58.2462 303.897 56.7095 303.897 55.0423C303.897 53.375 303.137 51.838 301.812 50.8259C301.169 50.3349 300.801 49.5896 300.801 48.7807C300.801 47.9719 301.169 47.2265 301.812 46.7356C302.412 46.2776 302.526 45.4201 302.068 44.8206C301.61 44.221 300.753 44.1062 300.153 44.5644C298.828 45.5765 298.068 47.1135 298.068 48.7807C298.068 50.4479 298.828 51.9848 300.153 52.9971Z" fill="black"/>
</svg>
