<svg width="379" height="143" viewBox="0 0 379 143" fill="none" xmlns="http://www.w3.org/2000/svg">
<rect x="106.983" y="95.1078" width="11.676" height="11.676" rx="0.9" fill="#464646" stroke="#D9D9D9" stroke-width="0.2"/>
<rect x="106.983" y="83.2311" width="11.676" height="11.676" rx="0.9" fill="#3D3D3D" stroke="#D9D9D9" stroke-width="0.2"/>
<rect x="106.983" y="71.3559" width="11.676" height="11.676" rx="0.9" fill="#565656" stroke="#D9D9D9" stroke-width="0.2"/>
<rect x="95.1078" y="83.2311" width="11.676" height="11.676" rx="0.9" fill="white" stroke="#D9D9D9" stroke-width="0.2"/>
<rect x="95.1078" y="95.1078" width="11.676" height="11.676" rx="0.9" fill="#F9F9F9" stroke="#D9D9D9" stroke-width="0.2"/>
<rect x="166.364" y="106.983" width="11.676" height="11.676" rx="0.9" fill="black" stroke="#D9D9D9" stroke-width="0.2"/>
<rect x="178.241" y="130.737" width="11.676" height="11.676" rx="0.9" fill="black" stroke="#D9D9D9" stroke-width="0.2"/>
<rect x="178.241" y="118.86" width="11.676" height="11.676" rx="0.9" fill="black" stroke="#D9D9D9" stroke-width="0.2"/>
<rect x="178.241" y="106.983" width="11.676" height="11.676" rx="0.9" fill="black" stroke="#D9D9D9" stroke-width="0.2"/>
<rect x="166.364" y="118.86" width="11.676" height="11.676" rx="0.9" fill="black" stroke="#D9D9D9" stroke-width="0.2"/>
<rect x="166.364" y="130.737" width="11.676" height="11.676" rx="0.9" fill="black" stroke="#D9D9D9" stroke-width="0.2"/>
<rect x="166.364" y="71.3559" width="11.676" height="11.676" rx="0.9" fill="black" stroke="#D9D9D9" stroke-width="0.2"/>
<rect x="178.241" y="95.1078" width="11.676" height="11.676" rx="0.9" fill="black" stroke="#D9D9D9" stroke-width="0.2"/>
<rect x="178.239" y="83.2311" width="11.676" height="11.676" rx="0.9" fill="black" stroke="#D9D9D9" stroke-width="0.2"/>
<rect x="178.239" y="71.3559" width="11.676" height="11.676" rx="0.9" fill="black" stroke="#D9D9D9" stroke-width="0.2"/>
<rect x="166.364" y="83.2311" width="11.676" height="11.676" rx="0.9" fill="black" stroke="#D9D9D9" stroke-width="0.2"/>
<rect x="166.364" y="95.1078" width="11.676" height="11.676" rx="0.9" fill="black" stroke="#D9D9D9" stroke-width="0.2"/>
<rect x="142.612" y="106.983" width="11.676" height="11.676" rx="0.9" fill="black" stroke="#D9D9D9" stroke-width="0.2"/>
<rect x="154.487" y="130.737" width="11.676" height="11.676" rx="0.9" fill="black" stroke="#D9D9D9" stroke-width="0.2"/>
<rect x="154.487" y="118.86" width="11.676" height="11.676" rx="0.9" fill="black" stroke="#D9D9D9" stroke-width="0.2"/>
<rect x="154.487" y="106.983" width="11.676" height="11.676" rx="0.9" fill="black" stroke="#D9D9D9" stroke-width="0.2"/>
<rect x="142.612" y="118.86" width="11.676" height="11.676" rx="0.9" fill="black" stroke="#D9D9D9" stroke-width="0.2"/>
<rect x="142.612" y="130.737" width="11.676" height="11.676" rx="0.9" fill="black" stroke="#D9D9D9" stroke-width="0.2"/>
<rect x="142.612" y="71.3559" width="11.676" height="11.676" rx="0.9" fill="#7A7A7A" stroke="#D9D9D9" stroke-width="0.2"/>
<rect x="154.487" y="95.1078" width="11.676" height="11.676" rx="0.9" fill="black" stroke="#D9D9D9" stroke-width="0.2"/>
<rect x="154.487" y="83.2311" width="11.676" height="11.676" rx="0.9" fill="black" stroke="#D9D9D9" stroke-width="0.2"/>
<rect x="154.487" y="71.3559" width="11.676" height="11.676" rx="0.9" fill="#292929" stroke="#D9D9D9" stroke-width="0.2"/>
<rect x="142.612" y="83.2311" width="11.676" height="11.676" rx="0.9" fill="#181818" stroke="#D9D9D9" stroke-width="0.2"/>
<rect x="142.612" y="95.1078" width="11.676" height="11.676" rx="0.9" fill="black" stroke="#D9D9D9" stroke-width="0.2"/>
<rect x="118.86" y="106.983" width="11.676" height="11.676" rx="0.9" fill="#131313" stroke="#D9D9D9" stroke-width="0.2"/>
<rect x="130.737" y="130.737" width="11.676" height="11.676" rx="0.9" fill="black" stroke="#D9D9D9" stroke-width="0.2"/>
<rect x="130.737" y="118.86" width="11.676" height="11.676" rx="0.9" fill="black" stroke="#D9D9D9" stroke-width="0.2"/>
<rect x="130.737" y="106.983" width="11.676" height="11.676" rx="0.9" fill="black" stroke="#D9D9D9" stroke-width="0.2"/>
<rect x="118.86" y="118.86" width="11.676" height="11.676" rx="0.9" fill="black" stroke="#D9D9D9" stroke-width="0.2"/>
<rect x="118.86" y="130.737" width="11.676" height="11.676" rx="0.9" fill="black" stroke="#D9D9D9" stroke-width="0.2"/>
<rect x="95.1078" y="106.983" width="11.676" height="11.676" rx="0.9" fill="#F7F7F7" stroke="#D9D9D9" stroke-width="0.2"/>
<rect x="106.983" y="130.737" width="11.676" height="11.676" rx="0.9" fill="black" stroke="#D9D9D9" stroke-width="0.2"/>
<rect x="106.983" y="118.86" width="11.676" height="11.676" rx="0.9" fill="#3C3C3C" stroke="#D9D9D9" stroke-width="0.2"/>
<rect x="106.983" y="106.983" width="11.676" height="11.676" rx="0.9" fill="#232323" stroke="#D9D9D9" stroke-width="0.2"/>
<rect x="95.1078" y="118.86" width="11.676" height="11.676" rx="0.9" fill="#545454" stroke="#D9D9D9" stroke-width="0.2"/>
<rect x="95.1078" y="130.737" width="11.676" height="11.676" rx="0.9" fill="#202020" stroke="#D9D9D9" stroke-width="0.2"/>
<rect x="118.86" y="71.3559" width="11.676" height="11.676" rx="0.9" fill="#333333" stroke="#D9D9D9" stroke-width="0.2"/>
<rect x="130.737" y="95.1078" width="11.676" height="11.676" rx="0.9" fill="black" stroke="#D9D9D9" stroke-width="0.2"/>
<rect x="130.737" y="83.2311" width="11.676" height="11.676" rx="0.9" fill="#2B2B2B" stroke="#D9D9D9" stroke-width="0.2"/>
<rect x="130.737" y="71.3559" width="11.676" height="11.676" rx="0.9" fill="#8D8D8D" stroke="#D9D9D9" stroke-width="0.2"/>
<rect x="118.86" y="83.2311" width="11.676" height="11.676" rx="0.9" fill="black" stroke="#D9D9D9" stroke-width="0.2"/>
<rect x="118.86" y="95.1078" width="11.676" height="11.676" rx="0.9" fill="black" stroke="#D9D9D9" stroke-width="0.2"/>
<rect x="106.983" y="23.852" width="11.676" height="11.676" rx="0.9" fill="#CCCCCC" stroke="#D9D9D9" stroke-width="0.2"/>
<rect x="106.983" y="11.975" width="11.676" height="11.676" rx="0.9" fill="#181818" stroke="#D9D9D9" stroke-width="0.2"/>
<rect x="106.983" y="0.1" width="11.676" height="11.676" rx="0.9" fill="black" stroke="#D9D9D9" stroke-width="0.2"/>
<rect x="166.364" y="35.727" width="11.676" height="11.676" rx="0.9" fill="black" stroke="#D9D9D9" stroke-width="0.2"/>
<rect x="178.241" y="59.4809" width="11.676" height="11.676" rx="0.9" fill="black" stroke="#D9D9D9" stroke-width="0.2"/>
<rect x="178.241" y="47.6039" width="11.676" height="11.676" rx="0.9" fill="black" stroke="#D9D9D9" stroke-width="0.2"/>
<rect x="178.241" y="35.727" width="11.676" height="11.676" rx="0.9" fill="black" stroke="#D9D9D9" stroke-width="0.2"/>
<rect x="166.364" y="47.6039" width="11.676" height="11.676" rx="0.9" fill="black" stroke="#D9D9D9" stroke-width="0.2"/>
<rect x="166.364" y="59.4809" width="11.676" height="11.676" rx="0.9" fill="black" stroke="#D9D9D9" stroke-width="0.2"/>
<rect x="166.364" y="0.1" width="11.676" height="11.676" rx="0.9" fill="black" stroke="#D9D9D9" stroke-width="0.2"/>
<rect x="178.241" y="23.852" width="11.676" height="11.676" rx="0.9" fill="black" stroke="#D9D9D9" stroke-width="0.2"/>
<rect x="178.241" y="11.975" width="11.676" height="11.676" rx="0.9" fill="black" stroke="#D9D9D9" stroke-width="0.2"/>
<rect x="178.239" y="0.1" width="11.676" height="11.676" rx="0.9" fill="black" stroke="#D9D9D9" stroke-width="0.2"/>
<rect x="166.364" y="11.975" width="11.676" height="11.676" rx="0.9" fill="black" stroke="#D9D9D9" stroke-width="0.2"/>
<rect x="166.364" y="23.852" width="11.676" height="11.676" rx="0.9" fill="black" stroke="#D9D9D9" stroke-width="0.2"/>
<rect x="142.612" y="35.727" width="11.676" height="11.676" rx="0.9" fill="black" stroke="#D9D9D9" stroke-width="0.2"/>
<rect x="154.487" y="59.4809" width="11.676" height="11.676" rx="0.9" fill="#292929" stroke="#D9D9D9" stroke-width="0.2"/>
<rect x="154.487" y="47.6039" width="11.676" height="11.676" rx="0.9" fill="black" stroke="#D9D9D9" stroke-width="0.2"/>
<rect x="154.487" y="35.727" width="11.676" height="11.676" rx="0.9" fill="black" stroke="#D9D9D9" stroke-width="0.2"/>
<rect x="142.612" y="47.6039" width="11.676" height="11.676" rx="0.9" fill="#272727" stroke="#D9D9D9" stroke-width="0.2"/>
<rect x="142.612" y="59.4809" width="11.676" height="11.676" rx="0.9" fill="#B1B1B1" stroke="#D9D9D9" stroke-width="0.2"/>
<rect x="142.612" y="0.1" width="11.676" height="11.676" rx="0.9" fill="black" stroke="#D9D9D9" stroke-width="0.2"/>
<rect x="154.487" y="23.852" width="11.676" height="11.676" rx="0.9" fill="black" stroke="#D9D9D9" stroke-width="0.2"/>
<rect x="154.487" y="11.975" width="11.676" height="11.676" rx="0.9" fill="black" stroke="#D9D9D9" stroke-width="0.2"/>
<rect x="154.487" y="0.1" width="11.676" height="11.676" rx="0.9" fill="black" stroke="#D9D9D9" stroke-width="0.2"/>
<rect x="142.612" y="11.975" width="11.676" height="11.676" rx="0.9" fill="black" stroke="#D9D9D9" stroke-width="0.2"/>
<rect x="142.612" y="23.852" width="11.676" height="11.676" rx="0.9" fill="black" stroke="#D9D9D9" stroke-width="0.2"/>
<rect x="118.86" y="35.727" width="11.676" height="11.676" rx="0.9" fill="#ABABAB" stroke="#D9D9D9" stroke-width="0.2"/>
<rect x="130.737" y="59.4809" width="11.676" height="11.676" rx="0.9" fill="white" stroke="#D9D9D9" stroke-width="0.2"/>
<rect x="130.737" y="47.6039" width="11.676" height="11.676" rx="0.9" fill="#CDCDCD" stroke="#D9D9D9" stroke-width="0.2"/>
<rect x="130.737" y="35.727" width="11.676" height="11.676" rx="0.9" fill="#343434" stroke="#D9D9D9" stroke-width="0.2"/>
<rect x="118.86" y="47.6039" width="11.676" height="11.676" rx="0.9" fill="white" stroke="#D9D9D9" stroke-width="0.2"/>
<rect x="118.86" y="59.4809" width="11.676" height="11.676" rx="0.9" fill="#D3D3D3" stroke="#D9D9D9" stroke-width="0.2"/>
<rect x="106.983" y="59.4809" width="11.676" height="11.676" rx="0.9" fill="#717171" stroke="#D9D9D9" stroke-width="0.2"/>
<rect x="106.983" y="47.6039" width="11.676" height="11.676" rx="0.9" fill="#D6D6D6" stroke="#D9D9D9" stroke-width="0.2"/>
<rect x="106.983" y="35.727" width="11.676" height="11.676" rx="0.9" fill="white" stroke="#D9D9D9" stroke-width="0.2"/>
<rect x="118.86" y="0.1" width="11.676" height="11.676" rx="0.9" fill="black" stroke="#D9D9D9" stroke-width="0.2"/>
<rect x="130.737" y="23.852" width="11.676" height="11.676" rx="0.9" fill="black" stroke="#D9D9D9" stroke-width="0.2"/>
<rect x="130.737" y="11.975" width="11.676" height="11.676" rx="0.9" fill="black" stroke="#D9D9D9" stroke-width="0.2"/>
<rect x="130.737" y="0.1" width="11.676" height="11.676" rx="0.9" fill="black" stroke="#D9D9D9" stroke-width="0.2"/>
<rect x="118.86" y="11.975" width="11.676" height="11.676" rx="0.9" fill="black" stroke="#D9D9D9" stroke-width="0.2"/>
<rect x="118.86" y="23.852" width="11.676" height="11.676" rx="0.9" fill="#222222" stroke="#D9D9D9" stroke-width="0.2"/>
<rect x="23.852" y="71.3559" width="11.676" height="11.676" rx="0.9" fill="#171717" stroke="#D9D9D9" stroke-width="0.2"/>
<rect x="83.2309" y="71.3559" width="11.676" height="11.676" rx="0.9" fill="#F0F0F0" stroke="#D9D9D9" stroke-width="0.2"/>
<rect x="95.1078" y="71.3559" width="11.676" height="11.676" rx="0.9" fill="#F2F2F2" stroke="#D9D9D9" stroke-width="0.2"/>
<rect x="59.4809" y="71.3559" width="11.676" height="11.676" rx="0.9" fill="#2E2E2E" stroke="#D9D9D9" stroke-width="0.2"/>
<rect x="71.3559" y="71.3559" width="11.676" height="11.676" rx="0.9" fill="#505050" stroke="#D9D9D9" stroke-width="0.2"/>
<rect x="35.727" y="71.3559" width="11.676" height="11.676" rx="0.9" fill="#898989" stroke="#D9D9D9" stroke-width="0.2"/>
<rect x="47.6039" y="71.3559" width="11.676" height="11.676" rx="0.9" fill="#B5B5B5" stroke="#D9D9D9" stroke-width="0.2"/>
<rect x="23.852" y="23.852" width="11.676" height="11.676" rx="0.9" fill="black" stroke="#D9D9D9" stroke-width="0.2"/>
<rect x="23.852" y="11.975" width="11.676" height="11.676" rx="0.9" fill="black" stroke="#D9D9D9" stroke-width="0.2"/>
<rect x="23.852" y="0.1" width="11.676" height="11.676" rx="0.9" fill="black" stroke="#D9D9D9" stroke-width="0.2"/>
<rect x="83.2328" y="35.727" width="11.676" height="11.676" rx="0.9" fill="white" stroke="#D9D9D9" stroke-width="0.2"/>
<rect x="95.1078" y="59.4809" width="11.676" height="11.676" rx="0.9" fill="#F8F8F8" stroke="#D9D9D9" stroke-width="0.2"/>
<rect x="95.1078" y="47.6039" width="11.676" height="11.676" rx="0.9" fill="white" stroke="#D9D9D9" stroke-width="0.2"/>
<rect x="95.1078" y="35.727" width="11.676" height="11.676" rx="0.9" fill="white" stroke="#D9D9D9" stroke-width="0.2"/>
<rect x="83.2328" y="47.6039" width="11.676" height="11.676" rx="0.9" fill="white" stroke="#D9D9D9" stroke-width="0.2"/>
<rect x="83.2328" y="59.4809" width="11.676" height="11.676" rx="0.9" fill="white" stroke="#D9D9D9" stroke-width="0.2"/>
<rect x="83.2309" y="0.1" width="11.676" height="11.676" rx="0.9" fill="#1F1F1F" stroke="#D9D9D9" stroke-width="0.2"/>
<rect x="95.1078" y="23.852" width="11.676" height="11.676" rx="0.9" fill="white" stroke="#D9D9D9" stroke-width="0.2"/>
<rect x="95.1078" y="11.975" width="11.676" height="11.676" rx="0.9" fill="#BFBFBF" stroke="#D9D9D9" stroke-width="0.2"/>
<rect x="95.1078" y="0.1" width="11.676" height="11.676" rx="0.9" fill="#161616" stroke="#D9D9D9" stroke-width="0.2"/>
<rect x="83.2328" y="11.975" width="11.676" height="11.676" rx="0.9" fill="#9E9E9E" stroke="#D9D9D9" stroke-width="0.2"/>
<rect x="83.2328" y="23.852" width="11.676" height="11.676" rx="0.9" fill="white" stroke="#D9D9D9" stroke-width="0.2"/>
<rect x="59.4789" y="35.727" width="11.676" height="11.676" rx="0.9" fill="#B1B1B1" stroke="#D9D9D9" stroke-width="0.2"/>
<rect x="71.3559" y="59.4809" width="11.676" height="11.676" rx="0.9" fill="#7A7A7A" stroke="#D9D9D9" stroke-width="0.2"/>
<rect x="71.3559" y="47.6039" width="11.676" height="11.676" rx="0.9" fill="#DBDBDB" stroke="#D9D9D9" stroke-width="0.2"/>
<rect x="71.3559" y="35.727" width="11.676" height="11.676" rx="0.9" fill="white" stroke="#D9D9D9" stroke-width="0.2"/>
<rect x="59.4789" y="47.6039" width="11.676" height="11.676" rx="0.9" fill="white" stroke="#D9D9D9" stroke-width="0.2"/>
<rect x="59.4789" y="59.4809" width="11.676" height="11.676" rx="0.9" fill="#CECECE" stroke="#D9D9D9" stroke-width="0.2"/>
<rect x="59.4809" y="0.1" width="11.676" height="11.676" rx="0.9" fill="black" stroke="#D9D9D9" stroke-width="0.2"/>
<rect x="71.3559" y="23.852" width="11.676" height="11.676" rx="0.9" fill="#A2A2A2" stroke="#D9D9D9" stroke-width="0.2"/>
<rect x="71.3559" y="11.975" width="11.676" height="11.676" rx="0.9" fill="#141414" stroke="#D9D9D9" stroke-width="0.2"/>
<rect x="71.3559" y="0.1" width="11.676" height="11.676" rx="0.9" fill="black" stroke="#D9D9D9" stroke-width="0.2"/>
<rect x="59.4789" y="11.975" width="11.676" height="11.676" rx="0.9" fill="black" stroke="#D9D9D9" stroke-width="0.2"/>
<rect x="59.4789" y="23.852" width="11.676" height="11.676" rx="0.9" fill="#2F2F2F" stroke="#D9D9D9" stroke-width="0.2"/>
<rect x="35.7289" y="35.727" width="11.676" height="11.676" rx="0.9" fill="black" stroke="#D9D9D9" stroke-width="0.2"/>
<rect x="47.6039" y="59.4809" width="11.676" height="11.676" rx="0.9" fill="white" stroke="#D9D9D9" stroke-width="0.2"/>
<rect x="47.6039" y="47.6039" width="11.676" height="11.676" rx="0.9" fill="#B1B1B1" stroke="#D9D9D9" stroke-width="0.2"/>
<rect x="47.6039" y="35.727" width="11.676" height="11.676" rx="0.9" fill="#303030" stroke="#D9D9D9" stroke-width="0.2"/>
<rect x="35.7289" y="47.6039" width="11.676" height="11.676" rx="0.9" fill="#2E2E2E" stroke="#D9D9D9" stroke-width="0.2"/>
<rect x="35.7289" y="59.4809" width="11.676" height="11.676" rx="0.9" fill="#9B9B9B" stroke="#D9D9D9" stroke-width="0.2"/>
<rect x="23.852" y="59.4809" width="11.676" height="11.676" rx="0.9" fill="#181818" stroke="#D9D9D9" stroke-width="0.2"/>
<rect x="23.852" y="47.6039" width="11.676" height="11.676" rx="0.9" fill="black" stroke="#D9D9D9" stroke-width="0.2"/>
<rect x="23.852" y="35.727" width="11.676" height="11.676" rx="0.9" fill="black" stroke="#D9D9D9" stroke-width="0.2"/>
<rect x="35.727" y="0.1" width="11.676" height="11.676" rx="0.9" fill="black" stroke="#D9D9D9" stroke-width="0.2"/>
<rect x="47.6039" y="23.852" width="11.676" height="11.676" rx="0.9" fill="black" stroke="#D9D9D9" stroke-width="0.2"/>
<rect x="47.6039" y="11.975" width="11.676" height="11.676" rx="0.9" fill="black" stroke="#D9D9D9" stroke-width="0.2"/>
<rect x="47.6039" y="0.1" width="11.676" height="11.676" rx="0.9" fill="black" stroke="#D9D9D9" stroke-width="0.2"/>
<rect x="35.7289" y="11.975" width="11.676" height="11.676" rx="0.9" fill="black" stroke="#D9D9D9" stroke-width="0.2"/>
<rect x="35.7289" y="23.852" width="11.676" height="11.676" rx="0.9" fill="black" stroke="#D9D9D9" stroke-width="0.2"/>
<rect x="0.1" y="71.3559" width="11.676" height="11.676" rx="0.9" fill="black" stroke="#D9D9D9" stroke-width="0.2"/>
<rect x="11.975" y="71.3559" width="11.676" height="11.676" rx="0.9" fill="black" stroke="#D9D9D9" stroke-width="0.2"/>
<rect x="0.1" y="23.852" width="11.676" height="11.676" rx="0.9" fill="black" stroke="#D9D9D9" stroke-width="0.2"/>
<rect x="0.1" y="11.975" width="11.676" height="11.676" rx="0.9" fill="black" stroke="#D9D9D9" stroke-width="0.2"/>
<rect x="0.1" y="0.1" width="11.676" height="11.676" rx="0.9" fill="black" stroke="#D9D9D9" stroke-width="0.2"/>
<rect x="11.975" y="35.727" width="11.676" height="11.676" rx="0.9" fill="black" stroke="#D9D9D9" stroke-width="0.2"/>
<rect x="11.975" y="47.6039" width="11.676" height="11.676" rx="0.9" fill="black" stroke="#D9D9D9" stroke-width="0.2"/>
<rect x="11.975" y="59.4809" width="11.676" height="11.676" rx="0.9" fill="black" stroke="#D9D9D9" stroke-width="0.2"/>
<rect x="0.1" y="59.4809" width="11.676" height="11.676" rx="0.9" fill="black" stroke="#D9D9D9" stroke-width="0.2"/>
<rect x="0.1" y="47.6039" width="11.676" height="11.676" rx="0.9" fill="black" stroke="#D9D9D9" stroke-width="0.2"/>
<rect x="0.1" y="35.727" width="11.676" height="11.676" rx="0.9" fill="black" stroke="#D9D9D9" stroke-width="0.2"/>
<rect x="11.975" y="0.1" width="11.676" height="11.676" rx="0.9" fill="black" stroke="#D9D9D9" stroke-width="0.2"/>
<rect x="11.975" y="11.975" width="11.676" height="11.676" rx="0.9" fill="black" stroke="#D9D9D9" stroke-width="0.2"/>
<rect x="11.975" y="23.852" width="11.676" height="11.676" rx="0.9" fill="black" stroke="#D9D9D9" stroke-width="0.2"/>
<rect x="11.975" y="95.1078" width="11.676" height="11.676" rx="0.9" fill="black" stroke="#D9D9D9" stroke-width="0.2"/>
<rect x="11.975" y="83.2311" width="11.676" height="11.676" rx="0.9" fill="black" stroke="#D9D9D9" stroke-width="0.2"/>
<rect x="0.1" y="83.2311" width="11.676" height="11.676" rx="0.9" fill="black" stroke="#D9D9D9" stroke-width="0.2"/>
<rect x="0.1" y="95.1078" width="11.676" height="11.676" rx="0.9" fill="black" stroke="#D9D9D9" stroke-width="0.2"/>
<rect x="71.3559" y="106.983" width="11.676" height="11.676" rx="0.9" fill="#5B5B5B" stroke="#D9D9D9" stroke-width="0.2"/>
<rect x="83.2328" y="130.737" width="11.676" height="11.676" rx="0.9" fill="#1F1F1F" stroke="#D9D9D9" stroke-width="0.2"/>
<rect x="83.2328" y="118.86" width="11.676" height="11.676" rx="0.9" fill="#585858" stroke="#D9D9D9" stroke-width="0.2"/>
<rect x="83.2328" y="106.983" width="11.676" height="11.676" rx="0.9" fill="white" stroke="#D9D9D9" stroke-width="0.2"/>
<rect x="71.3559" y="118.86" width="11.676" height="11.676" rx="0.9" fill="#363636" stroke="#D9D9D9" stroke-width="0.2"/>
<rect x="71.3559" y="130.737" width="11.676" height="11.676" rx="0.9" fill="black" stroke="#D9D9D9" stroke-width="0.2"/>
<rect x="83.2328" y="95.1078" width="11.676" height="11.676" rx="0.9" fill="white" stroke="#D9D9D9" stroke-width="0.2"/>
<rect x="83.2309" y="83.2311" width="11.676" height="11.676" rx="0.9" fill="white" stroke="#D9D9D9" stroke-width="0.2"/>
<rect x="71.3559" y="83.2311" width="11.676" height="11.676" rx="0.9" fill="#535353" stroke="#D9D9D9" stroke-width="0.2"/>
<rect x="71.3559" y="95.1078" width="11.676" height="11.676" rx="0.9" fill="#5A5A5A" stroke="#D9D9D9" stroke-width="0.2"/>
<rect x="47.6039" y="106.983" width="11.676" height="11.676" rx="0.9" fill="black" stroke="#D9D9D9" stroke-width="0.2"/>
<rect x="59.4789" y="130.737" width="11.676" height="11.676" rx="0.9" fill="black" stroke="#D9D9D9" stroke-width="0.2"/>
<rect x="59.4789" y="118.86" width="11.676" height="11.676" rx="0.9" fill="black" stroke="#D9D9D9" stroke-width="0.2"/>
<rect x="59.4789" y="106.983" width="11.676" height="11.676" rx="0.9" fill="black" stroke="#D9D9D9" stroke-width="0.2"/>
<rect x="47.6039" y="118.86" width="11.676" height="11.676" rx="0.9" fill="black" stroke="#D9D9D9" stroke-width="0.2"/>
<rect x="47.6039" y="130.737" width="11.676" height="11.676" rx="0.9" fill="black" stroke="#D9D9D9" stroke-width="0.2"/>
<rect x="59.4789" y="95.1078" width="11.676" height="11.676" rx="0.9" fill="#202020" stroke="#D9D9D9" stroke-width="0.2"/>
<rect x="59.4809" y="83.2311" width="11.676" height="11.676" rx="0.9" fill="black" stroke="#D9D9D9" stroke-width="0.2"/>
<rect x="47.6039" y="83.2311" width="11.676" height="11.676" rx="0.9" fill="#363636" stroke="#D9D9D9" stroke-width="0.2"/>
<rect x="47.6039" y="95.1078" width="11.676" height="11.676" rx="0.9" fill="black" stroke="#D9D9D9" stroke-width="0.2"/>
<rect x="23.852" y="106.983" width="11.676" height="11.676" rx="0.9" fill="black" stroke="#D9D9D9" stroke-width="0.2"/>
<rect x="35.7289" y="130.737" width="11.676" height="11.676" rx="0.9" fill="black" stroke="#D9D9D9" stroke-width="0.2"/>
<rect x="35.7289" y="118.86" width="11.676" height="11.676" rx="0.9" fill="black" stroke="#D9D9D9" stroke-width="0.2"/>
<rect x="35.7289" y="106.983" width="11.676" height="11.676" rx="0.9" fill="black" stroke="#D9D9D9" stroke-width="0.2"/>
<rect x="23.852" y="118.86" width="11.676" height="11.676" rx="0.9" fill="black" stroke="#D9D9D9" stroke-width="0.2"/>
<rect x="23.852" y="130.737" width="11.676" height="11.676" rx="0.9" fill="black" stroke="#D9D9D9" stroke-width="0.2"/>
<rect x="0.1" y="106.983" width="11.676" height="11.676" rx="0.9" fill="black" stroke="#D9D9D9" stroke-width="0.2"/>
<rect x="11.975" y="130.737" width="11.676" height="11.676" rx="0.9" fill="black" stroke="#D9D9D9" stroke-width="0.2"/>
<rect x="11.975" y="118.86" width="11.676" height="11.676" rx="0.9" fill="black" stroke="#D9D9D9" stroke-width="0.2"/>
<rect x="11.975" y="106.983" width="11.676" height="11.676" rx="0.9" fill="black" stroke="#D9D9D9" stroke-width="0.2"/>
<rect x="0.1" y="118.86" width="11.676" height="11.676" rx="0.9" fill="black" stroke="#D9D9D9" stroke-width="0.2"/>
<rect x="0.1" y="130.737" width="11.676" height="11.676" rx="0.9" fill="black" stroke="#D9D9D9" stroke-width="0.2"/>
<rect x="35.7289" y="95.1078" width="11.676" height="11.676" rx="0.9" fill="black" stroke="#D9D9D9" stroke-width="0.2"/>
<rect x="35.727" y="83.2311" width="11.676" height="11.676" rx="0.9" fill="#202020" stroke="#D9D9D9" stroke-width="0.2"/>
<rect x="23.852" y="83.2311" width="11.676" height="11.676" rx="0.9" fill="black" stroke="#D9D9D9" stroke-width="0.2"/>
<rect x="23.852" y="95.1078" width="11.676" height="11.676" rx="0.9" fill="black" stroke="#D9D9D9" stroke-width="0.2"/>
<rect x="305.271" y="80.5773" width="3.59116" height="3.59116" rx="0.25" fill="#464646" stroke="#E0E0E0" stroke-width="0.1"/>
<rect x="305.271" y="76.8879" width="3.59116" height="3.59116" rx="0.25" fill="#3D3D3D" stroke="#E0E0E0" stroke-width="0.1"/>
<rect x="305.271" y="73.1965" width="3.59116" height="3.59116" rx="0.25" fill="#565656" stroke="#E0E0E0" stroke-width="0.1"/>
<rect x="301.579" y="76.8879" width="3.59116" height="3.59116" rx="0.25" fill="white" stroke="#E0E0E0" stroke-width="0.1"/>
<rect x="301.579" y="80.5773" width="3.59116" height="3.59116" rx="0.25" fill="#F9F9F9" stroke="#E0E0E0" stroke-width="0.1"/>
<rect x="323.726" y="84.2707" width="3.59116" height="3.59116" rx="0.25" fill="black" stroke="#E0E0E0" stroke-width="0.1"/>
<rect x="327.417" y="91.6513" width="3.59116" height="3.59116" rx="0.25" fill="black" stroke="#E0E0E0" stroke-width="0.1"/>
<rect x="327.417" y="87.9621" width="3.59116" height="3.59116" rx="0.25" fill="black" stroke="#E0E0E0" stroke-width="0.1"/>
<rect x="327.417" y="84.2707" width="3.59116" height="3.59116" rx="0.25" fill="black" stroke="#E0E0E0" stroke-width="0.1"/>
<rect x="323.726" y="87.9621" width="3.59116" height="3.59116" rx="0.25" fill="black" stroke="#E0E0E0" stroke-width="0.1"/>
<rect x="323.726" y="91.6513" width="3.59116" height="3.59116" rx="0.25" fill="black" stroke="#E0E0E0" stroke-width="0.1"/>
<rect x="323.726" y="73.1965" width="3.59116" height="3.59116" rx="0.25" fill="black" stroke="#E0E0E0" stroke-width="0.1"/>
<rect x="327.417" y="80.5773" width="3.59116" height="3.59116" rx="0.25" fill="black" stroke="#E0E0E0" stroke-width="0.1"/>
<rect x="327.417" y="76.8879" width="3.59116" height="3.59116" rx="0.25" fill="black" stroke="#E0E0E0" stroke-width="0.1"/>
<rect x="327.417" y="73.1965" width="3.59116" height="3.59116" rx="0.25" fill="black" stroke="#E0E0E0" stroke-width="0.1"/>
<rect x="323.726" y="76.8879" width="3.59116" height="3.59116" rx="0.25" fill="black" stroke="#E0E0E0" stroke-width="0.1"/>
<rect x="323.726" y="80.5773" width="3.59116" height="3.59116" rx="0.25" fill="black" stroke="#E0E0E0" stroke-width="0.1"/>
<rect x="316.343" y="84.2707" width="3.59116" height="3.59116" rx="0.25" fill="black" stroke="#E0E0E0" stroke-width="0.1"/>
<rect x="320.034" y="91.6513" width="3.59116" height="3.59116" rx="0.25" fill="black" stroke="#E0E0E0" stroke-width="0.1"/>
<rect x="320.034" y="87.9621" width="3.59116" height="3.59116" rx="0.25" fill="black" stroke="#E0E0E0" stroke-width="0.1"/>
<rect x="320.034" y="84.2707" width="3.59116" height="3.59116" rx="0.25" fill="black" stroke="#E0E0E0" stroke-width="0.1"/>
<rect x="316.343" y="87.9621" width="3.59116" height="3.59116" rx="0.25" fill="black" stroke="#E0E0E0" stroke-width="0.1"/>
<rect x="316.343" y="91.6513" width="3.59116" height="3.59116" rx="0.25" fill="black" stroke="#E0E0E0" stroke-width="0.1"/>
<rect x="316.343" y="73.1965" width="3.59116" height="3.59116" rx="0.25" fill="#7A7A7A" stroke="#E0E0E0" stroke-width="0.1"/>
<rect x="320.034" y="80.5773" width="3.59116" height="3.59116" rx="0.25" fill="black" stroke="#E0E0E0" stroke-width="0.1"/>
<rect x="320.034" y="76.8879" width="3.59116" height="3.59116" rx="0.25" fill="black" stroke="#E0E0E0" stroke-width="0.1"/>
<rect x="320.034" y="73.1965" width="3.59116" height="3.59116" rx="0.25" fill="#292929" stroke="#E0E0E0" stroke-width="0.1"/>
<rect x="316.343" y="76.8879" width="3.59116" height="3.59116" rx="0.25" fill="#181818" stroke="#E0E0E0" stroke-width="0.1"/>
<rect x="316.343" y="80.5773" width="3.59116" height="3.59116" rx="0.25" fill="black" stroke="#E0E0E0" stroke-width="0.1"/>
<rect x="308.962" y="84.2707" width="3.59116" height="3.59116" rx="0.25" fill="#131313" stroke="#E0E0E0" stroke-width="0.1"/>
<rect x="312.654" y="91.6513" width="3.59116" height="3.59116" rx="0.25" fill="black" stroke="#E0E0E0" stroke-width="0.1"/>
<rect x="312.654" y="87.9621" width="3.59116" height="3.59116" rx="0.25" fill="black" stroke="#E0E0E0" stroke-width="0.1"/>
<rect x="312.654" y="84.2707" width="3.59116" height="3.59116" rx="0.25" fill="black" stroke="#E0E0E0" stroke-width="0.1"/>
<rect x="308.962" y="87.9621" width="3.59116" height="3.59116" rx="0.25" fill="black" stroke="#E0E0E0" stroke-width="0.1"/>
<rect x="308.962" y="91.6513" width="3.59116" height="3.59116" rx="0.25" fill="black" stroke="#E0E0E0" stroke-width="0.1"/>
<rect x="301.579" y="84.2707" width="3.59116" height="3.59116" rx="0.25" fill="#E3E3E3" stroke="#E0E0E0" stroke-width="0.1"/>
<rect x="305.271" y="91.6513" width="3.59116" height="3.59116" rx="0.25" fill="black" stroke="#E0E0E0" stroke-width="0.1"/>
<rect x="305.271" y="87.9621" width="3.59116" height="3.59116" rx="0.25" fill="#3C3C3C" stroke="#E0E0E0" stroke-width="0.1"/>
<rect x="305.271" y="84.2707" width="3.59116" height="3.59116" rx="0.25" fill="#232323" stroke="#E0E0E0" stroke-width="0.1"/>
<rect x="301.579" y="87.9621" width="3.59116" height="3.59116" rx="0.25" fill="#545454" stroke="#E0E0E0" stroke-width="0.1"/>
<rect x="301.579" y="91.6513" width="3.59116" height="3.59116" rx="0.25" fill="#202020" stroke="#E0E0E0" stroke-width="0.1"/>
<rect x="308.962" y="73.1965" width="3.59116" height="3.59116" rx="0.25" fill="#333333" stroke="#E0E0E0" stroke-width="0.1"/>
<rect x="312.654" y="80.5773" width="3.59116" height="3.59116" rx="0.25" fill="black" stroke="#E0E0E0" stroke-width="0.1"/>
<rect x="312.654" y="76.8879" width="3.59116" height="3.59116" rx="0.25" fill="#2B2B2B" stroke="#E0E0E0" stroke-width="0.1"/>
<rect x="312.654" y="73.1965" width="3.59116" height="3.59116" rx="0.25" fill="#8D8D8D" stroke="#E0E0E0" stroke-width="0.1"/>
<rect x="308.962" y="76.8879" width="3.59116" height="3.59116" rx="0.25" fill="black" stroke="#E0E0E0" stroke-width="0.1"/>
<rect x="308.962" y="80.5773" width="3.59116" height="3.59116" rx="0.25" fill="black" stroke="#E0E0E0" stroke-width="0.1"/>
<rect x="305.271" y="58.4328" width="3.59116" height="3.59116" rx="0.25" fill="#CCCCCC" stroke="#E0E0E0" stroke-width="0.1"/>
<rect x="305.271" y="54.7395" width="3.59116" height="3.59116" rx="0.25" fill="#181818" stroke="#E0E0E0" stroke-width="0.1"/>
<rect x="305.271" y="51.05" width="3.59116" height="3.59116" rx="0.25" fill="black" stroke="#E0E0E0" stroke-width="0.1"/>
<rect x="323.726" y="62.1242" width="3.59116" height="3.59116" rx="0.25" fill="black" stroke="#E0E0E0" stroke-width="0.1"/>
<rect x="327.417" y="69.507" width="3.59116" height="3.59116" rx="0.25" fill="black" stroke="#E0E0E0" stroke-width="0.1"/>
<rect x="327.417" y="65.8156" width="3.59116" height="3.59116" rx="0.25" fill="black" stroke="#E0E0E0" stroke-width="0.1"/>
<rect x="327.417" y="62.1242" width="3.59116" height="3.59116" rx="0.25" fill="black" stroke="#E0E0E0" stroke-width="0.1"/>
<rect x="323.726" y="65.8156" width="3.59116" height="3.59116" rx="0.25" fill="black" stroke="#E0E0E0" stroke-width="0.1"/>
<rect x="323.726" y="69.507" width="3.59116" height="3.59116" rx="0.25" fill="black" stroke="#E0E0E0" stroke-width="0.1"/>
<rect x="323.726" y="51.05" width="3.59116" height="3.59116" rx="0.25" fill="black" stroke="#E0E0E0" stroke-width="0.1"/>
<rect x="327.417" y="58.4328" width="3.59116" height="3.59116" rx="0.25" fill="black" stroke="#E0E0E0" stroke-width="0.1"/>
<rect x="327.417" y="54.7395" width="3.59116" height="3.59116" rx="0.25" fill="black" stroke="#E0E0E0" stroke-width="0.1"/>
<rect x="327.417" y="51.05" width="3.59116" height="3.59116" rx="0.25" fill="black" stroke="#E0E0E0" stroke-width="0.1"/>
<rect x="323.726" y="54.7395" width="3.59116" height="3.59116" rx="0.25" fill="black" stroke="#E0E0E0" stroke-width="0.1"/>
<rect x="323.726" y="58.4328" width="3.59116" height="3.59116" rx="0.25" fill="black" stroke="#E0E0E0" stroke-width="0.1"/>
<rect x="316.343" y="62.1242" width="3.59116" height="3.59116" rx="0.25" fill="black" stroke="#E0E0E0" stroke-width="0.1"/>
<rect x="320.034" y="69.507" width="3.59116" height="3.59116" rx="0.25" fill="#292929" stroke="#E0E0E0" stroke-width="0.1"/>
<rect x="320.034" y="65.8156" width="3.59116" height="3.59116" rx="0.25" fill="black" stroke="#E0E0E0" stroke-width="0.1"/>
<rect x="320.034" y="62.1242" width="3.59116" height="3.59116" rx="0.25" fill="black" stroke="#E0E0E0" stroke-width="0.1"/>
<rect x="316.343" y="65.8156" width="3.59116" height="3.59116" rx="0.25" fill="#272727" stroke="#E0E0E0" stroke-width="0.1"/>
<rect x="316.343" y="69.507" width="3.59116" height="3.59116" rx="0.25" fill="#B1B1B1" stroke="#E0E0E0" stroke-width="0.1"/>
<rect x="316.343" y="51.05" width="3.59116" height="3.59116" rx="0.25" fill="black" stroke="#E0E0E0" stroke-width="0.1"/>
<rect x="320.034" y="58.4328" width="3.59116" height="3.59116" rx="0.25" fill="black" stroke="#E0E0E0" stroke-width="0.1"/>
<rect x="320.034" y="54.7395" width="3.59116" height="3.59116" rx="0.25" fill="black" stroke="#E0E0E0" stroke-width="0.1"/>
<rect x="320.034" y="51.05" width="3.59116" height="3.59116" rx="0.25" fill="black" stroke="#E0E0E0" stroke-width="0.1"/>
<rect x="316.343" y="54.7395" width="3.59116" height="3.59116" rx="0.25" fill="black" stroke="#E0E0E0" stroke-width="0.1"/>
<rect x="316.343" y="58.4328" width="3.59116" height="3.59116" rx="0.25" fill="black" stroke="#E0E0E0" stroke-width="0.1"/>
<rect x="308.962" y="62.1242" width="3.59116" height="3.59116" rx="0.25" fill="#ABABAB" stroke="#E0E0E0" stroke-width="0.1"/>
<rect x="312.654" y="69.507" width="3.59116" height="3.59116" rx="0.25" fill="white" stroke="#E0E0E0" stroke-width="0.1"/>
<rect x="312.654" y="65.8156" width="3.59116" height="3.59116" rx="0.25" fill="#CDCDCD" stroke="#E0E0E0" stroke-width="0.1"/>
<rect x="312.654" y="62.1242" width="3.59116" height="3.59116" rx="0.25" fill="#343434" stroke="#E0E0E0" stroke-width="0.1"/>
<rect x="308.962" y="65.8156" width="3.59116" height="3.59116" rx="0.25" fill="white" stroke="#E0E0E0" stroke-width="0.1"/>
<rect x="308.962" y="69.507" width="3.59116" height="3.59116" rx="0.25" fill="#D3D3D3" stroke="#E0E0E0" stroke-width="0.1"/>
<rect x="305.271" y="69.507" width="3.59116" height="3.59116" rx="0.25" fill="#717171" stroke="#E0E0E0" stroke-width="0.1"/>
<rect x="305.271" y="65.8156" width="3.59116" height="3.59116" rx="0.25" fill="#D6D6D6" stroke="#E0E0E0" stroke-width="0.1"/>
<rect x="305.271" y="62.1242" width="3.59116" height="3.59116" rx="0.25" fill="white" stroke="#E0E0E0" stroke-width="0.1"/>
<rect x="308.962" y="51.05" width="3.59116" height="3.59116" rx="0.25" fill="black" stroke="#E0E0E0" stroke-width="0.1"/>
<rect x="312.654" y="58.4328" width="3.59116" height="3.59116" rx="0.25" fill="black" stroke="#E0E0E0" stroke-width="0.1"/>
<rect x="312.654" y="54.7395" width="3.59116" height="3.59116" rx="0.25" fill="black" stroke="#E0E0E0" stroke-width="0.1"/>
<rect x="312.654" y="51.05" width="3.59116" height="3.59116" rx="0.25" fill="black" stroke="#E0E0E0" stroke-width="0.1"/>
<rect x="308.962" y="54.7395" width="3.59116" height="3.59116" rx="0.25" fill="black" stroke="#E0E0E0" stroke-width="0.1"/>
<rect x="308.962" y="58.4328" width="3.59116" height="3.59116" rx="0.25" fill="#222222" stroke="#E0E0E0" stroke-width="0.1"/>
<rect x="279.433" y="73.1965" width="3.59116" height="3.59116" rx="0.25" fill="#171717" stroke="#E0E0E0" stroke-width="0.1"/>
<rect x="297.888" y="73.1965" width="3.59116" height="3.59116" rx="0.25" fill="#F0F0F0" stroke="#E0E0E0" stroke-width="0.1"/>
<rect x="301.579" y="73.1965" width="3.59116" height="3.59116" rx="0.25" fill="#F2F2F2" stroke="#E0E0E0" stroke-width="0.1"/>
<rect x="290.505" y="73.1965" width="3.59116" height="3.59116" rx="0.25" fill="#2E2E2E" stroke="#E0E0E0" stroke-width="0.1"/>
<rect x="294.196" y="73.1965" width="3.59116" height="3.59116" rx="0.25" fill="#505050" stroke="#E0E0E0" stroke-width="0.1"/>
<rect x="283.124" y="73.1965" width="3.59116" height="3.59116" rx="0.25" fill="#898989" stroke="#E0E0E0" stroke-width="0.1"/>
<rect x="286.814" y="73.1965" width="3.59116" height="3.59116" rx="0.25" fill="#B5B5B5" stroke="#E0E0E0" stroke-width="0.1"/>
<rect x="279.433" y="58.4328" width="3.59116" height="3.59116" rx="0.25" fill="black" stroke="#E0E0E0" stroke-width="0.1"/>
<rect x="279.433" y="54.7395" width="3.59116" height="3.59116" rx="0.25" fill="black" stroke="#E0E0E0" stroke-width="0.1"/>
<rect x="279.433" y="51.05" width="3.59116" height="3.59116" rx="0.25" fill="black" stroke="#E0E0E0" stroke-width="0.1"/>
<rect x="297.888" y="62.1242" width="3.59116" height="3.59116" rx="0.25" fill="white" stroke="#E0E0E0" stroke-width="0.1"/>
<rect x="301.579" y="69.507" width="3.59116" height="3.59116" rx="0.25" fill="#F8F8F8" stroke="#E0E0E0" stroke-width="0.1"/>
<rect x="301.579" y="65.8156" width="3.59116" height="3.59116" rx="0.25" fill="white" stroke="#E0E0E0" stroke-width="0.1"/>
<rect x="301.579" y="62.1242" width="3.59116" height="3.59116" rx="0.25" fill="white" stroke="#E0E0E0" stroke-width="0.1"/>
<rect x="297.888" y="65.8156" width="3.59116" height="3.59116" rx="0.25" fill="white" stroke="#E0E0E0" stroke-width="0.1"/>
<rect x="297.888" y="69.507" width="3.59116" height="3.59116" rx="0.25" fill="#EEEEEE" stroke="#E0E0E0" stroke-width="0.1"/>
<rect x="297.888" y="51.05" width="3.59116" height="3.59116" rx="0.25" fill="#1F1F1F" stroke="#E0E0E0" stroke-width="0.1"/>
<rect x="301.579" y="58.4328" width="3.59116" height="3.59116" rx="0.25" fill="white" stroke="#E0E0E0" stroke-width="0.1"/>
<rect x="301.579" y="54.7395" width="3.59116" height="3.59116" rx="0.25" fill="#BFBFBF" stroke="#E0E0E0" stroke-width="0.1"/>
<rect x="301.579" y="51.05" width="3.59116" height="3.59116" rx="0.25" fill="#161616" stroke="#E0E0E0" stroke-width="0.1"/>
<rect x="297.888" y="54.7395" width="3.59116" height="3.59116" rx="0.25" fill="#9E9E9E" stroke="#E0E0E0" stroke-width="0.1"/>
<rect x="297.888" y="58.4328" width="3.59116" height="3.59116" rx="0.25" fill="white" stroke="#E0E0E0" stroke-width="0.1"/>
<rect x="290.505" y="62.1242" width="3.59116" height="3.59116" rx="0.25" fill="#B1B1B1" stroke="#E0E0E0" stroke-width="0.1"/>
<rect x="294.196" y="69.507" width="3.59116" height="3.59116" rx="0.25" fill="#7A7A7A" stroke="#E0E0E0" stroke-width="0.1"/>
<rect x="294.196" y="65.8156" width="3.59116" height="3.59116" rx="0.25" fill="#DBDBDB" stroke="#E0E0E0" stroke-width="0.1"/>
<rect x="294.196" y="62.1242" width="3.59116" height="3.59116" rx="0.25" fill="white" stroke="#E0E0E0" stroke-width="0.1"/>
<rect x="290.505" y="65.8156" width="3.59116" height="3.59116" rx="0.25" fill="white" stroke="#E0E0E0" stroke-width="0.1"/>
<rect x="290.505" y="69.507" width="3.59116" height="3.59116" rx="0.25" fill="#CECECE" stroke="#E0E0E0" stroke-width="0.1"/>
<rect x="290.505" y="51.05" width="3.59116" height="3.59116" rx="0.25" fill="black" stroke="#E0E0E0" stroke-width="0.1"/>
<rect x="294.196" y="58.4328" width="3.59116" height="3.59116" rx="0.25" fill="#A2A2A2" stroke="#E0E0E0" stroke-width="0.1"/>
<rect x="294.196" y="54.7395" width="3.59116" height="3.59116" rx="0.25" fill="#141414" stroke="#E0E0E0" stroke-width="0.1"/>
<rect x="294.196" y="51.05" width="3.59116" height="3.59116" rx="0.25" fill="black" stroke="#E0E0E0" stroke-width="0.1"/>
<rect x="290.505" y="54.7395" width="3.59116" height="3.59116" rx="0.25" fill="black" stroke="#E0E0E0" stroke-width="0.1"/>
<rect x="290.505" y="58.4328" width="3.59116" height="3.59116" rx="0.25" fill="#2F2F2F" stroke="#E0E0E0" stroke-width="0.1"/>
<rect x="283.124" y="62.1242" width="3.59116" height="3.59116" rx="0.25" fill="black" stroke="#E0E0E0" stroke-width="0.1"/>
<rect x="286.814" y="69.507" width="3.59116" height="3.59116" rx="0.25" fill="white" stroke="#E0E0E0" stroke-width="0.1"/>
<rect x="286.814" y="65.8156" width="3.59116" height="3.59116" rx="0.25" fill="#B1B1B1" stroke="#E0E0E0" stroke-width="0.1"/>
<rect x="286.814" y="62.1242" width="3.59116" height="3.59116" rx="0.25" fill="#303030" stroke="#E0E0E0" stroke-width="0.1"/>
<rect x="283.124" y="65.8156" width="3.59116" height="3.59116" rx="0.25" fill="#2E2E2E" stroke="#E0E0E0" stroke-width="0.1"/>
<rect x="283.124" y="69.507" width="3.59116" height="3.59116" rx="0.25" fill="#9B9B9B" stroke="#E0E0E0" stroke-width="0.1"/>
<rect x="279.433" y="69.507" width="3.59116" height="3.59116" rx="0.25" fill="#181818" stroke="#E0E0E0" stroke-width="0.1"/>
<rect x="279.433" y="65.8156" width="3.59116" height="3.59116" rx="0.25" fill="black" stroke="#E0E0E0" stroke-width="0.1"/>
<rect x="279.433" y="62.1242" width="3.59116" height="3.59116" rx="0.25" fill="black" stroke="#E0E0E0" stroke-width="0.1"/>
<rect x="283.124" y="51.05" width="3.59116" height="3.59116" rx="0.25" fill="black" stroke="#E0E0E0" stroke-width="0.1"/>
<rect x="286.814" y="58.4328" width="3.59116" height="3.59116" rx="0.25" fill="black" stroke="#E0E0E0" stroke-width="0.1"/>
<rect x="286.814" y="54.7395" width="3.59116" height="3.59116" rx="0.25" fill="black" stroke="#E0E0E0" stroke-width="0.1"/>
<rect x="286.814" y="51.05" width="3.59116" height="3.59116" rx="0.25" fill="black" stroke="#E0E0E0" stroke-width="0.1"/>
<rect x="283.124" y="54.7395" width="3.59116" height="3.59116" rx="0.25" fill="black" stroke="#E0E0E0" stroke-width="0.1"/>
<rect x="283.124" y="58.4328" width="3.59116" height="3.59116" rx="0.25" fill="black" stroke="#E0E0E0" stroke-width="0.1"/>
<rect x="272.05" y="73.1965" width="3.59116" height="3.59116" rx="0.25" fill="black" stroke="#E0E0E0" stroke-width="0.1"/>
<rect x="275.741" y="73.1965" width="3.59116" height="3.59116" rx="0.25" fill="black" stroke="#E0E0E0" stroke-width="0.1"/>
<rect x="272.05" y="58.4328" width="3.59116" height="3.59116" rx="0.25" fill="black" stroke="#E0E0E0" stroke-width="0.1"/>
<rect x="272.05" y="54.7395" width="3.59116" height="3.59116" rx="0.25" fill="black" stroke="#E0E0E0" stroke-width="0.1"/>
<rect x="272.05" y="51.05" width="3.59116" height="3.59116" rx="0.25" fill="black" stroke="#E0E0E0" stroke-width="0.1"/>
<rect x="275.741" y="62.1242" width="3.59116" height="3.59116" rx="0.25" fill="black" stroke="#E0E0E0" stroke-width="0.1"/>
<rect x="275.741" y="65.8156" width="3.59116" height="3.59116" rx="0.25" fill="black" stroke="#E0E0E0" stroke-width="0.1"/>
<rect x="275.741" y="69.507" width="3.59116" height="3.59116" rx="0.25" fill="black" stroke="#E0E0E0" stroke-width="0.1"/>
<rect x="272.05" y="69.507" width="3.59116" height="3.59116" rx="0.25" fill="black" stroke="#E0E0E0" stroke-width="0.1"/>
<rect x="272.05" y="65.8156" width="3.59116" height="3.59116" rx="0.25" fill="black" stroke="#E0E0E0" stroke-width="0.1"/>
<rect x="272.05" y="62.1242" width="3.59116" height="3.59116" rx="0.25" fill="black" stroke="#E0E0E0" stroke-width="0.1"/>
<rect x="275.741" y="51.05" width="3.59116" height="3.59116" rx="0.25" fill="black" stroke="#E0E0E0" stroke-width="0.1"/>
<rect x="275.741" y="54.7395" width="3.59116" height="3.59116" rx="0.25" fill="black" stroke="#E0E0E0" stroke-width="0.1"/>
<rect x="275.741" y="58.4328" width="3.59116" height="3.59116" rx="0.25" fill="black" stroke="#E0E0E0" stroke-width="0.1"/>
<rect x="275.741" y="80.5773" width="3.59116" height="3.59116" rx="0.25" fill="black" stroke="#E0E0E0" stroke-width="0.1"/>
<rect x="275.741" y="76.8879" width="3.59116" height="3.59116" rx="0.25" fill="black" stroke="#E0E0E0" stroke-width="0.1"/>
<rect x="272.05" y="76.8879" width="3.59116" height="3.59116" rx="0.25" fill="black" stroke="#E0E0E0" stroke-width="0.1"/>
<rect x="272.05" y="80.5773" width="3.59116" height="3.59116" rx="0.25" fill="black" stroke="#E0E0E0" stroke-width="0.1"/>
<rect x="294.196" y="84.2707" width="3.59116" height="3.59116" rx="0.25" fill="#5B5B5B" stroke="#E0E0E0" stroke-width="0.1"/>
<rect x="297.888" y="91.6513" width="3.59116" height="3.59116" rx="0.25" fill="#1F1F1F" stroke="#E0E0E0" stroke-width="0.1"/>
<rect x="297.888" y="87.9621" width="3.59116" height="3.59116" rx="0.25" fill="#585858" stroke="#E0E0E0" stroke-width="0.1"/>
<rect x="297.888" y="84.2707" width="3.59116" height="3.59116" rx="0.25" fill="white" stroke="#E0E0E0" stroke-width="0.1"/>
<rect x="294.196" y="87.9621" width="3.59116" height="3.59116" rx="0.25" fill="#363636" stroke="#E0E0E0" stroke-width="0.1"/>
<rect x="294.196" y="91.6513" width="3.59116" height="3.59116" rx="0.25" fill="black" stroke="#E0E0E0" stroke-width="0.1"/>
<rect x="297.888" y="80.5773" width="3.59116" height="3.59116" rx="0.25" fill="white" stroke="#E0E0E0" stroke-width="0.1"/>
<rect x="297.888" y="76.8879" width="3.59116" height="3.59116" rx="0.25" fill="#E4E4E4" stroke="#E0E0E0" stroke-width="0.1"/>
<rect x="294.196" y="76.8879" width="3.59116" height="3.59116" rx="0.25" fill="#535353" stroke="#E0E0E0" stroke-width="0.1"/>
<rect x="294.196" y="80.5773" width="3.59116" height="3.59116" rx="0.25" fill="#5A5A5A" stroke="#E0E0E0" stroke-width="0.1"/>
<rect x="286.814" y="84.2707" width="3.59116" height="3.59116" rx="0.25" fill="black" stroke="#E0E0E0" stroke-width="0.1"/>
<rect x="290.505" y="91.6513" width="3.59116" height="3.59116" rx="0.25" fill="black" stroke="#E0E0E0" stroke-width="0.1"/>
<rect x="290.505" y="87.9621" width="3.59116" height="3.59116" rx="0.25" fill="black" stroke="#E0E0E0" stroke-width="0.1"/>
<rect x="290.505" y="84.2707" width="3.59116" height="3.59116" rx="0.25" fill="black" stroke="#E0E0E0" stroke-width="0.1"/>
<rect x="286.814" y="87.9621" width="3.59116" height="3.59116" rx="0.25" fill="black" stroke="#E0E0E0" stroke-width="0.1"/>
<rect x="286.814" y="91.6513" width="3.59116" height="3.59116" rx="0.25" fill="black" stroke="#E0E0E0" stroke-width="0.1"/>
<rect x="290.505" y="80.5773" width="3.59116" height="3.59116" rx="0.25" fill="#202020" stroke="#E0E0E0" stroke-width="0.1"/>
<rect x="290.505" y="76.8879" width="3.59116" height="3.59116" rx="0.25" fill="black" stroke="#E0E0E0" stroke-width="0.1"/>
<rect x="286.814" y="76.8879" width="3.59116" height="3.59116" rx="0.25" fill="#363636" stroke="#E0E0E0" stroke-width="0.1"/>
<rect x="286.814" y="80.5773" width="3.59116" height="3.59116" rx="0.25" fill="black" stroke="#E0E0E0" stroke-width="0.1"/>
<rect x="279.433" y="84.2707" width="3.59116" height="3.59116" rx="0.25" fill="black" stroke="#E0E0E0" stroke-width="0.1"/>
<rect x="283.124" y="91.6513" width="3.59116" height="3.59116" rx="0.25" fill="black" stroke="#E0E0E0" stroke-width="0.1"/>
<rect x="283.124" y="87.9621" width="3.59116" height="3.59116" rx="0.25" fill="black" stroke="#E0E0E0" stroke-width="0.1"/>
<rect x="283.124" y="84.2707" width="3.59116" height="3.59116" rx="0.25" fill="black" stroke="#E0E0E0" stroke-width="0.1"/>
<rect x="279.433" y="87.9621" width="3.59116" height="3.59116" rx="0.25" fill="black" stroke="#E0E0E0" stroke-width="0.1"/>
<rect x="279.433" y="91.6513" width="3.59116" height="3.59116" rx="0.25" fill="black" stroke="#E0E0E0" stroke-width="0.1"/>
<rect x="272.05" y="84.2707" width="3.59116" height="3.59116" rx="0.25" fill="black" stroke="#E0E0E0" stroke-width="0.1"/>
<rect x="275.741" y="91.6513" width="3.59116" height="3.59116" rx="0.25" fill="black" stroke="#E0E0E0" stroke-width="0.1"/>
<rect x="275.741" y="87.9621" width="3.59116" height="3.59116" rx="0.25" fill="black" stroke="#E0E0E0" stroke-width="0.1"/>
<rect x="275.741" y="84.2707" width="3.59116" height="3.59116" rx="0.25" fill="black" stroke="#E0E0E0" stroke-width="0.1"/>
<rect x="272.05" y="87.9621" width="3.59116" height="3.59116" rx="0.25" fill="black" stroke="#E0E0E0" stroke-width="0.1"/>
<rect x="272.05" y="91.6513" width="3.59116" height="3.59116" rx="0.25" fill="black" stroke="#E0E0E0" stroke-width="0.1"/>
<rect x="283.124" y="80.5773" width="3.59116" height="3.59116" rx="0.25" fill="black" stroke="#E0E0E0" stroke-width="0.1"/>
<rect x="283.124" y="76.8879" width="3.59116" height="3.59116" rx="0.25" fill="#202020" stroke="#E0E0E0" stroke-width="0.1"/>
<rect x="279.433" y="76.8879" width="3.59116" height="3.59116" rx="0.25" fill="black" stroke="#E0E0E0" stroke-width="0.1"/>
<rect x="279.433" y="80.5773" width="3.59116" height="3.59116" rx="0.25" fill="black" stroke="#E0E0E0" stroke-width="0.1"/>
</svg>
