<svg width="375" height="195" viewBox="0 0 375 195" fill="none" xmlns="http://www.w3.org/2000/svg">
<g clip-path="url(#clip0_1060_4991)">
<rect width="114" height="38" transform="translate(11 15)" fill="white"/>
<path d="M63.9088 -10.7836C63.9088 0.510769 56.3228 10.397 45.4133 13.3202C34.5038 16.2434 22.991 11.4747 17.3438 1.69345C11.6966 -8.08776 13.3231 -20.4425 21.3095 -28.4288C29.2958 -36.4151 41.6505 -38.0417 51.4317 -32.3945L43.9184 -19.381C40.0272 -21.6277 35.1121 -20.9806 31.9349 -17.8034C28.7577 -14.6262 28.1106 -9.71111 30.3572 -5.81986C32.6039 -1.9286 37.184 -0.0314522 41.5241 -1.19439C45.8642 -2.35732 48.8822 -6.29037 48.8822 -10.7836H63.9088Z" fill="#01FF01"/>
<path d="M21.1272 20.1536C23.2392 19.9637 25.3745 19.9655 27.4758 20.2665C28.771 20.4958 30.145 20.8308 31.1177 21.7748C32.137 22.9123 32.3878 24.4923 32.6117 25.9487C32.9789 28.9708 32.9359 32.0358 32.6117 35.0597C32.395 36.5358 32.1818 38.1301 31.2144 39.3304C30.1593 40.4016 28.6008 40.7061 27.1713 40.9319C25.061 41.1952 22.9203 41.2561 20.8011 41.0447C19.3662 40.8978 17.8686 40.6452 16.6469 39.8266C15.8569 39.325 15.4323 38.44 15.1439 37.582C14.5653 35.7942 14.4919 33.8953 14.413 32.0323C14.4041 29.5709 14.4507 27.0845 14.9308 24.6625C15.1905 23.5322 15.5058 22.2889 16.4606 21.5348C17.8059 20.5585 19.5167 20.322 21.1272 20.1536ZM21.4765 23.5268C20.5879 23.6611 19.4809 23.7346 18.9452 24.5622C18.4777 25.7965 18.4938 27.1436 18.3989 28.4423C18.3541 30.7586 18.2377 33.0963 18.5959 35.3947C18.7285 36.1704 19.0008 37.0947 19.8624 37.3222C21.7308 37.8937 23.73 37.7969 25.6558 37.6877C26.6159 37.5408 27.8896 37.4584 28.3572 36.4534C28.8928 34.9236 28.8552 33.2719 28.9215 31.674C28.9 29.4276 29.0254 27.1382 28.4879 24.9402C28.359 24.1591 27.5493 23.8259 26.8632 23.688C25.0933 23.3405 23.2661 23.3835 21.4765 23.5268ZM40.3469 27.1543C41.6295 26.3392 43.2221 26.2067 44.7017 26.341C46.0829 26.4593 47.6163 26.9286 48.3562 28.2005C49.2393 29.7966 49.2895 31.6829 49.3504 33.4636C49.311 35.2944 49.2769 37.2058 48.521 38.9076C48.0893 39.9412 47.0968 40.6184 46.0345 40.8853C44.408 41.2848 42.6202 41.3277 41.0527 40.6793C40.2054 40.3479 39.6196 39.6277 39.1341 38.8897V47.2572H35.5514C35.5532 40.3317 35.5478 33.4045 35.5532 26.479C36.7122 26.4736 37.8712 26.4736 39.0284 26.479C38.989 27.192 38.9496 27.9031 38.9299 28.6179C39.3598 28.093 39.7593 27.5162 40.3469 27.1543ZM41.5131 29.0245C40.6604 29.0908 39.7325 29.5136 39.4906 30.4057C39.0338 31.9785 39.1144 33.6445 39.1807 35.2639C39.2918 36.319 39.4225 37.6787 40.5457 38.1516C41.7531 38.6192 43.1468 38.5941 44.3686 38.1946C45.4255 37.822 45.5795 36.5788 45.6906 35.6186C45.8017 34.0279 45.8411 32.4049 45.5294 30.8338C45.4237 30.2248 45.1102 29.596 44.5154 29.3398C43.5768 28.926 42.5163 28.9475 41.5131 29.0245ZM53.6372 27.1812C55.3981 26.2765 57.46 26.2443 59.3929 26.3357C61.0015 26.47 62.9541 26.7387 63.8409 28.2775C64.8405 30.1352 64.6775 32.3207 64.8172 34.3593H55.0165C55.1312 35.4108 54.995 36.5448 55.5253 37.5085C55.9785 38.2699 56.9405 38.4257 57.7538 38.4705C58.7587 38.4777 59.8407 38.5601 60.7669 38.0925C61.2971 37.6769 61.3007 36.9389 61.3688 36.3298C62.5153 36.328 63.6617 36.328 64.8082 36.3298C64.7652 37.5264 64.6112 38.8664 63.651 39.7083C62.2089 41.0017 60.1453 41.1361 58.3001 41.1719C56.6718 41.1235 54.952 41.0411 53.4939 40.2386C52.3133 39.5417 51.9371 38.1104 51.7293 36.8493C51.466 34.9755 51.3997 33.0659 51.6237 31.1849C51.8064 29.6999 52.2059 27.9533 53.6372 27.1812ZM55.7313 29.4616C54.9825 30.1441 55.0559 31.2763 55.0237 32.2042C57.1304 32.215 59.237 32.2096 61.3455 32.206C61.3419 31.3712 61.4225 30.4612 60.9711 29.7178C60.5286 29.1159 59.6992 29.0765 59.0185 29.003C57.9204 28.9869 56.7094 28.8669 55.7313 29.4616ZM72.4467 27.1722C73.6863 26.3124 75.2878 26.1924 76.746 26.3607C77.9874 26.4915 79.3023 26.9644 80.035 28.0357C80.6853 28.9242 80.8662 30.0564 80.8751 31.133C80.8698 34.4184 80.8769 37.702 80.8734 40.9874C79.7376 40.9892 78.6037 40.9892 77.4715 40.9874C77.4661 37.8793 77.4751 34.7731 77.4661 31.6668C77.4321 30.9879 77.459 30.2033 76.9484 29.6802C76.4039 29.0908 75.5494 28.9762 74.788 28.9815C73.8673 28.9762 72.8712 29.1338 72.1619 29.7698C71.4686 30.3609 71.2053 31.3139 71.2017 32.1953C71.1963 35.126 71.2035 38.0567 71.1981 40.9856C70.0641 40.9892 68.9302 40.9892 67.798 40.9874C67.7963 36.1507 67.7963 31.3139 67.798 26.4772C68.9123 26.4736 70.0283 26.4754 71.1426 26.4772C71.1372 27.3263 71.053 28.17 71.0279 29.0192C71.3934 28.3331 71.7767 27.6093 72.4467 27.1722ZM87.0339 20.8164C88.9113 20.1858 90.9123 20.0963 92.8756 20.0264C94.7781 20.0354 96.7665 20.0533 98.5435 20.82C99.4464 21.1962 100.072 22.0202 100.376 22.9302C100.872 24.2899 100.887 25.7624 100.897 27.1937C99.5879 27.1937 98.2784 27.1973 96.9707 27.1919C96.9492 26.1852 97.0262 25.0566 96.4028 24.2003C95.7723 23.5554 94.787 23.5572 93.9504 23.4587C92.2486 23.4265 90.477 23.3172 88.8468 23.9048C88.2592 24.0911 87.9547 24.6786 87.8365 25.2447C87.5015 26.7638 87.4997 28.3313 87.5015 29.8808C87.5212 31.9517 87.4889 34.0529 87.9314 36.0898C88.0478 36.835 88.7339 37.2936 89.4218 37.4584C91.0126 37.8543 92.6732 37.7969 94.298 37.7002C95.1453 37.5891 96.1771 37.5336 96.7092 36.7561C97.277 35.8282 97.1821 34.6871 97.1516 33.6445C98.4737 33.6391 99.7939 33.6409 101.116 33.6445C101.1 35.2908 101.071 36.9908 100.473 38.5493C100.165 39.3644 99.5288 40.0559 98.7048 40.3676C97.0872 41.0161 95.3137 41.0573 93.5975 41.1612C91.6073 41.1952 89.592 41.1468 87.6466 40.6829C86.5055 40.3855 85.2587 39.8624 84.7302 38.7285C84.0548 37.2291 83.9312 35.5613 83.7575 33.9472C83.6124 31.8155 83.5192 29.6802 83.5712 27.5449C83.6733 25.8162 83.8309 23.9943 84.7642 22.4878C85.2604 21.6494 86.1311 21.1245 87.0339 20.8164ZM101.761 20.2127C103.126 20.2145 104.491 20.1751 105.854 20.2324C107.182 24.444 108.64 28.6125 109.98 32.8187C110.501 34.4345 110.87 36.0969 111.409 37.7074C112.013 35.9697 112.4 34.164 112.991 32.4228C114.301 28.3546 115.646 24.2989 116.954 20.2306C118.301 20.1733 119.651 20.2235 121 20.2056V20.6516C118.783 27.4105 116.617 34.1873 114.444 40.9623C112.416 41.0035 110.385 41.0089 108.357 40.9587C106.196 34.0314 103.932 27.1364 101.761 20.2127Z" fill="#050505"/>
</g>
<path d="M181.252 183V174.273H184.303C184.911 174.273 185.413 174.378 185.808 174.588C186.202 174.795 186.496 175.075 186.69 175.428C186.883 175.777 186.979 176.165 186.979 176.591C186.979 176.966 186.913 177.276 186.779 177.52C186.648 177.764 186.475 177.957 186.259 178.099C186.046 178.241 185.815 178.347 185.565 178.415V178.5C185.832 178.517 186.1 178.611 186.37 178.781C186.64 178.952 186.866 179.196 187.048 179.514C187.229 179.832 187.32 180.222 187.32 180.682C187.32 181.119 187.221 181.513 187.022 181.862C186.823 182.212 186.509 182.489 186.08 182.693C185.651 182.898 185.093 183 184.406 183H181.252ZM182.309 182.062H184.406C185.096 182.062 185.586 181.929 185.876 181.662C186.168 181.392 186.315 181.065 186.315 180.682C186.315 180.386 186.239 180.114 186.089 179.864C185.938 179.611 185.724 179.409 185.445 179.259C185.167 179.105 184.837 179.028 184.457 179.028H182.309V182.062ZM182.309 178.108H184.269C184.587 178.108 184.874 178.045 185.13 177.92C185.388 177.795 185.593 177.619 185.744 177.392C185.897 177.165 185.974 176.898 185.974 176.591C185.974 176.207 185.84 175.882 185.573 175.615C185.306 175.345 184.883 175.21 184.303 175.21H182.309V178.108ZM189.926 174.273V183H188.92V174.273H189.926ZM195.893 180.324V176.455H196.899V183H195.893V181.892H195.825C195.672 182.224 195.433 182.507 195.109 182.74C194.785 182.97 194.376 183.085 193.882 183.085C193.473 183.085 193.109 182.996 192.791 182.817C192.473 182.635 192.223 182.362 192.041 181.999C191.859 181.632 191.768 181.17 191.768 180.614V176.455H192.774V180.545C192.774 181.023 192.907 181.403 193.174 181.688C193.444 181.972 193.788 182.114 194.206 182.114C194.456 182.114 194.71 182.05 194.968 181.922C195.23 181.794 195.449 181.598 195.625 181.334C195.804 181.07 195.893 180.733 195.893 180.324ZM201.485 183.136C200.854 183.136 200.31 182.997 199.853 182.719C199.398 182.438 199.048 182.045 198.8 181.543C198.556 181.037 198.434 180.449 198.434 179.778C198.434 179.108 198.556 178.517 198.8 178.006C199.048 177.491 199.391 177.091 199.832 176.804C200.275 176.514 200.792 176.369 201.383 176.369C201.724 176.369 202.06 176.426 202.393 176.54C202.725 176.653 203.028 176.838 203.3 177.094C203.573 177.347 203.79 177.682 203.952 178.099C204.114 178.517 204.195 179.031 204.195 179.642V180.068H199.15V179.199H203.173C203.173 178.83 203.099 178.5 202.951 178.21C202.806 177.92 202.599 177.692 202.329 177.524C202.062 177.357 201.746 177.273 201.383 177.273C200.982 177.273 200.636 177.372 200.343 177.571C200.053 177.767 199.83 178.023 199.674 178.338C199.518 178.653 199.44 178.991 199.44 179.352V179.932C199.44 180.426 199.525 180.845 199.695 181.189C199.869 181.53 200.109 181.79 200.415 181.969C200.722 182.145 201.079 182.233 201.485 182.233C201.749 182.233 201.988 182.196 202.201 182.122C202.417 182.045 202.603 181.932 202.759 181.781C202.915 181.628 203.036 181.437 203.121 181.21L204.093 181.483C203.991 181.812 203.819 182.102 203.577 182.352C203.336 182.599 203.038 182.793 202.683 182.932C202.327 183.068 201.928 183.136 201.485 183.136Z" fill="black"/>
<path d="M254.437 177C254.343 176.713 254.219 176.456 254.066 176.229C253.915 175.999 253.735 175.803 253.525 175.641C253.317 175.479 253.082 175.355 252.817 175.27C252.553 175.185 252.263 175.142 251.948 175.142C251.431 175.142 250.961 175.276 250.538 175.543C250.114 175.81 249.778 176.203 249.528 176.723C249.278 177.243 249.153 177.881 249.153 178.636C249.153 179.392 249.279 180.03 249.532 180.55C249.785 181.07 250.127 181.463 250.559 181.73C250.991 181.997 251.477 182.131 252.016 182.131C252.516 182.131 252.957 182.024 253.337 181.811C253.721 181.595 254.019 181.291 254.232 180.899C254.448 180.504 254.556 180.04 254.556 179.506L254.88 179.574H252.255V178.636H255.579V179.574C255.579 180.293 255.425 180.918 255.119 181.449C254.815 181.98 254.394 182.392 253.857 182.685C253.323 182.974 252.71 183.119 252.016 183.119C251.244 183.119 250.565 182.938 249.979 182.574C249.397 182.21 248.942 181.693 248.616 181.023C248.292 180.352 248.13 179.557 248.13 178.636C248.13 177.946 248.222 177.325 248.407 176.774C248.594 176.22 248.859 175.749 249.2 175.359C249.54 174.97 249.944 174.672 250.41 174.464C250.876 174.257 251.388 174.153 251.948 174.153C252.408 174.153 252.837 174.223 253.235 174.362C253.636 174.499 253.992 174.693 254.305 174.946C254.62 175.196 254.883 175.496 255.093 175.845C255.303 176.192 255.448 176.577 255.528 177H254.437ZM257.252 183V176.455H258.224V177.443H258.292C258.412 177.119 258.627 176.857 258.94 176.655C259.252 176.453 259.605 176.352 259.997 176.352C260.071 176.352 260.163 176.354 260.274 176.357C260.385 176.359 260.468 176.364 260.525 176.369V177.392C260.491 177.384 260.413 177.371 260.291 177.354C260.172 177.334 260.045 177.324 259.912 177.324C259.593 177.324 259.309 177.391 259.059 177.524C258.812 177.655 258.616 177.837 258.471 178.07C258.329 178.3 258.258 178.562 258.258 178.858V183H257.252ZM264.262 183.136C263.632 183.136 263.088 182.997 262.63 182.719C262.176 182.438 261.825 182.045 261.578 181.543C261.333 181.037 261.211 180.449 261.211 179.778C261.211 179.108 261.333 178.517 261.578 178.006C261.825 177.491 262.169 177.091 262.609 176.804C263.052 176.514 263.569 176.369 264.16 176.369C264.501 176.369 264.838 176.426 265.17 176.54C265.502 176.653 265.805 176.838 266.078 177.094C266.35 177.347 266.568 177.682 266.73 178.099C266.892 178.517 266.973 179.031 266.973 179.642V180.068H261.927V179.199H265.95C265.95 178.83 265.876 178.5 265.728 178.21C265.583 177.92 265.376 177.692 265.106 177.524C264.839 177.357 264.524 177.273 264.16 177.273C263.76 177.273 263.413 177.372 263.12 177.571C262.831 177.767 262.608 178.023 262.451 178.338C262.295 178.653 262.217 178.991 262.217 179.352V179.932C262.217 180.426 262.302 180.845 262.473 181.189C262.646 181.53 262.886 181.79 263.193 181.969C263.5 182.145 263.856 182.233 264.262 182.233C264.527 182.233 264.765 182.196 264.978 182.122C265.194 182.045 265.38 181.932 265.537 181.781C265.693 181.628 265.814 181.437 265.899 181.21L266.87 181.483C266.768 181.812 266.596 182.102 266.355 182.352C266.113 182.599 265.815 182.793 265.46 182.932C265.105 183.068 264.706 183.136 264.262 183.136ZM271.247 183.136C270.616 183.136 270.072 182.997 269.615 182.719C269.16 182.438 268.809 182.045 268.562 181.543C268.318 181.037 268.196 180.449 268.196 179.778C268.196 179.108 268.318 178.517 268.562 178.006C268.809 177.491 269.153 177.091 269.593 176.804C270.037 176.514 270.554 176.369 271.145 176.369C271.485 176.369 271.822 176.426 272.154 176.54C272.487 176.653 272.789 176.838 273.062 177.094C273.335 177.347 273.552 177.682 273.714 178.099C273.876 178.517 273.957 179.031 273.957 179.642V180.068H268.912V179.199H272.934C272.934 178.83 272.86 178.5 272.713 178.21C272.568 177.92 272.36 177.692 272.091 177.524C271.824 177.357 271.508 177.273 271.145 177.273C270.744 177.273 270.397 177.372 270.105 177.571C269.815 177.767 269.592 178.023 269.436 178.338C269.279 178.653 269.201 178.991 269.201 179.352V179.932C269.201 180.426 269.287 180.845 269.457 181.189C269.63 181.53 269.87 181.79 270.177 181.969C270.484 182.145 270.841 182.233 271.247 182.233C271.511 182.233 271.75 182.196 271.963 182.122C272.179 182.045 272.365 181.932 272.521 181.781C272.677 181.628 272.798 181.437 272.883 181.21L273.855 181.483C273.752 181.812 273.581 182.102 273.339 182.352C273.098 182.599 272.799 182.793 272.444 182.932C272.089 183.068 271.69 183.136 271.247 183.136ZM276.493 179.062V183H275.487V176.455H276.458V177.477H276.544C276.697 177.145 276.93 176.878 277.243 176.676C277.555 176.472 277.958 176.369 278.453 176.369C278.896 176.369 279.284 176.46 279.616 176.642C279.949 176.821 280.207 177.094 280.392 177.46C280.576 177.824 280.669 178.284 280.669 178.841V183H279.663V178.909C279.663 178.395 279.529 177.994 279.262 177.707C278.995 177.418 278.629 177.273 278.163 177.273C277.842 177.273 277.555 177.342 277.302 177.482C277.052 177.621 276.855 177.824 276.71 178.091C276.565 178.358 276.493 178.682 276.493 179.062Z" fill="black"/>
<path d="M326.535 183V174.273H329.484C330.166 174.273 330.726 174.389 331.163 174.622C331.601 174.852 331.925 175.169 332.135 175.572C332.345 175.976 332.45 176.435 332.45 176.949C332.45 177.463 332.345 177.919 332.135 178.317C331.925 178.714 331.602 179.027 331.167 179.254C330.733 179.479 330.177 179.591 329.501 179.591H327.115V178.636H329.467C329.933 178.636 330.308 178.568 330.592 178.432C330.879 178.295 331.086 178.102 331.214 177.852C331.345 177.599 331.41 177.298 331.41 176.949C331.41 176.599 331.345 176.294 331.214 176.033C331.084 175.771 330.875 175.57 330.588 175.428C330.301 175.283 329.922 175.21 329.45 175.21H327.592V183H326.535ZM330.643 179.08L332.791 183H331.564L329.45 179.08H330.643ZM336.749 183.136C336.118 183.136 335.574 182.997 335.117 182.719C334.662 182.438 334.311 182.045 334.064 181.543C333.82 181.037 333.698 180.449 333.698 179.778C333.698 179.108 333.82 178.517 334.064 178.006C334.311 177.491 334.655 177.091 335.095 176.804C335.539 176.514 336.056 176.369 336.646 176.369C336.987 176.369 337.324 176.426 337.656 176.54C337.989 176.653 338.291 176.838 338.564 177.094C338.837 177.347 339.054 177.682 339.216 178.099C339.378 178.517 339.459 179.031 339.459 179.642V180.068H334.414V179.199H338.436C338.436 178.83 338.362 178.5 338.215 178.21C338.07 177.92 337.862 177.692 337.593 177.524C337.325 177.357 337.01 177.273 336.646 177.273C336.246 177.273 335.899 177.372 335.607 177.571C335.317 177.767 335.094 178.023 334.938 178.338C334.781 178.653 334.703 178.991 334.703 179.352V179.932C334.703 180.426 334.789 180.845 334.959 181.189C335.132 181.53 335.372 181.79 335.679 181.969C335.986 182.145 336.343 182.233 336.749 182.233C337.013 182.233 337.252 182.196 337.465 182.122C337.681 182.045 337.867 181.932 338.023 181.781C338.179 181.628 338.3 181.437 338.385 181.21L339.357 181.483C339.254 181.812 339.083 182.102 338.841 182.352C338.6 182.599 338.301 182.793 337.946 182.932C337.591 183.068 337.192 183.136 336.749 183.136ZM343.46 183.136C342.915 183.136 342.433 182.999 342.016 182.723C341.598 182.445 341.271 182.053 341.036 181.547C340.8 181.038 340.682 180.438 340.682 179.744C340.682 179.057 340.8 178.46 341.036 177.955C341.271 177.449 341.6 177.058 342.02 176.783C342.441 176.507 342.926 176.369 343.477 176.369C343.904 176.369 344.24 176.44 344.487 176.582C344.737 176.722 344.928 176.881 345.058 177.06C345.192 177.236 345.296 177.381 345.369 177.494H345.455V174.273H346.46V183H345.489V181.994H345.369C345.296 182.114 345.191 182.264 345.054 182.446C344.918 182.625 344.723 182.786 344.47 182.928C344.218 183.067 343.881 183.136 343.46 183.136ZM343.597 182.233C344 182.233 344.341 182.128 344.619 181.918C344.898 181.705 345.11 181.411 345.254 181.036C345.399 180.658 345.472 180.222 345.472 179.727C345.472 179.239 345.401 178.811 345.259 178.445C345.117 178.075 344.906 177.788 344.628 177.584C344.35 177.376 344.006 177.273 343.597 177.273C343.171 177.273 342.816 177.382 342.531 177.601C342.25 177.817 342.039 178.111 341.896 178.483C341.757 178.852 341.688 179.267 341.688 179.727C341.688 180.193 341.759 180.616 341.901 180.997C342.046 181.375 342.259 181.676 342.54 181.901C342.824 182.122 343.176 182.233 343.597 182.233Z" fill="black"/>
<path d="M168 6.75678C168 5.76787 168.723 4.92741 169.701 4.77932L198.958 0.348263C200.168 0.164994 201.257 1.10183 201.257 2.32571V149.299C201.257 150.56 200.104 151.507 198.867 151.261L169.61 145.445C168.674 145.259 168 144.438 168 143.483L168 6.75678Z" fill="#0000FF"/>
<path d="M168.25 6.75678C168.25 5.89148 168.882 5.15608 169.738 5.0265L198.995 0.595445C200.054 0.435083 201.007 1.25482 201.007 2.32571V149.299C201.007 150.403 199.998 151.231 198.916 151.015L169.659 145.2C168.84 145.037 168.25 144.318 168.25 143.483V6.75678Z" stroke="#414141" stroke-opacity="0.55" stroke-width="0.5"/>
<path d="M201.258 2.06364C201.258 0.934525 202.192 0.0292693 203.32 0.0646327L219.413 0.568902C220.493 0.602733 221.351 1.48774 221.351 2.56792V148.312C221.351 149.356 220.548 150.225 219.507 150.306L203.414 151.567C202.251 151.658 201.258 150.739 201.258 149.573V2.06364Z" fill="#00003A"/>
<path d="M201.508 2.06364C201.508 1.07567 202.325 0.283567 203.313 0.31451L219.405 0.818779C220.35 0.848381 221.101 1.62276 221.101 2.56792V148.312C221.101 149.226 220.398 149.986 219.487 150.057L203.394 151.318C202.377 151.397 201.508 150.593 201.508 149.573V2.06364Z" stroke="#414141" stroke-opacity="0.55" stroke-width="0.5"/>
<path d="M308.9 6.75678C308.9 5.89148 309.533 5.15608 310.388 5.0265L339.645 0.595445C340.704 0.435083 341.658 1.25482 341.658 2.32571V149.299C341.658 150.403 340.649 151.231 339.566 151.015L310.309 145.2C309.49 145.037 308.9 144.318 308.9 143.483V6.75678Z" fill="#FF0000" stroke="#CF6868" stroke-width="0.5"/>
<path d="M342.158 2.06364C342.158 1.07567 342.976 0.283567 343.963 0.31451L360.056 0.818779C361.001 0.848381 361.751 1.62276 361.751 2.56792V148.312C361.751 149.226 361.048 149.986 360.138 150.057L344.045 151.318C343.028 151.397 342.158 150.593 342.158 149.573V2.06364Z" fill="#750000" stroke="#CF6868" stroke-width="0.5"/>
<path d="M238.229 6.75678C238.229 5.89148 238.861 5.15608 239.716 5.0265L268.974 0.595445C270.032 0.435083 270.986 1.25482 270.986 2.32571V149.299C270.986 150.403 269.977 151.231 268.894 151.015L239.637 145.2C238.818 145.037 238.229 144.318 238.229 143.483V6.75678Z" fill="#00FF00" stroke="#B1DEA7" stroke-width="0.5"/>
<path d="M271.486 2.06364C271.486 1.07567 272.304 0.283567 273.291 0.31451L289.384 0.818779C290.329 0.848381 291.079 1.62276 291.079 2.56792V148.312C291.079 149.226 290.377 149.986 289.466 150.057L273.373 151.318C272.356 151.397 271.486 150.593 271.486 149.573V2.06364Z" fill="#002900" stroke="#B1DEA7" stroke-width="0.5"/>
<path d="M14.1293 90.5469H11.0185C10.9616 90.1444 10.8456 89.7869 10.6705 89.4744C10.4953 89.1572 10.2704 88.8873 9.99574 88.6648C9.72112 88.4422 9.40388 88.2718 9.04403 88.1534C8.68892 88.035 8.30303 87.9759 7.88636 87.9759C7.13352 87.9759 6.47775 88.1629 5.91903 88.5369C5.36032 88.9062 4.92708 89.446 4.61932 90.1562C4.31155 90.8617 4.15767 91.7187 4.15767 92.7273C4.15767 93.7642 4.31155 94.6354 4.61932 95.3409C4.93182 96.0464 5.36742 96.5791 5.92614 96.9389C6.48485 97.2988 7.13116 97.4787 7.86506 97.4787C8.27699 97.4787 8.65814 97.4242 9.00852 97.3153C9.36364 97.2064 9.6785 97.0478 9.95312 96.8395C10.2277 96.6264 10.455 96.3684 10.6349 96.0653C10.8196 95.7623 10.9474 95.4167 11.0185 95.0284L14.1293 95.0426C14.0488 95.7102 13.8475 96.3542 13.5256 96.9744C13.2083 97.59 12.7798 98.1416 12.2401 98.6293C11.705 99.1122 11.0658 99.4957 10.3224 99.7798C9.58381 100.059 8.74811 100.199 7.81534 100.199C6.51799 100.199 5.35795 99.9053 4.33523 99.3182C3.31723 98.7311 2.51231 97.8812 1.92045 96.7685C1.33333 95.6558 1.03977 94.3087 1.03977 92.7273C1.03977 91.1411 1.33807 89.7917 1.93466 88.679C2.53125 87.5663 3.34091 86.7187 4.36364 86.1364C5.38636 85.5492 6.53693 85.2557 7.81534 85.2557C8.65814 85.2557 9.43939 85.3741 10.1591 85.6108C10.8835 85.8475 11.5251 86.1932 12.0838 86.6477C12.6425 87.0975 13.0971 87.6491 13.4474 88.3026C13.8026 88.956 14.0298 89.7041 14.1293 90.5469ZM21.2067 100.213C20.1035 100.213 19.1494 99.9787 18.3445 99.5099C17.5443 99.0365 16.9264 98.3783 16.4908 97.5355C16.0552 96.688 15.8374 95.7055 15.8374 94.5881C15.8374 93.4612 16.0552 92.4763 16.4908 91.6335C16.9264 90.786 17.5443 90.1278 18.3445 89.6591C19.1494 89.1856 20.1035 88.9489 21.2067 88.9489C22.3099 88.9489 23.2616 89.1856 24.0618 89.6591C24.8667 90.1278 25.487 90.786 25.9226 91.6335C26.3582 92.4763 26.576 93.4612 26.576 94.5881C26.576 95.7055 26.3582 96.688 25.9226 97.5355C25.487 98.3783 24.8667 99.0365 24.0618 99.5099C23.2616 99.9787 22.3099 100.213 21.2067 100.213ZM21.2209 97.8693C21.7228 97.8693 22.1418 97.7273 22.478 97.4432C22.8142 97.1544 23.0675 96.7614 23.2379 96.2642C23.4131 95.767 23.5007 95.2012 23.5007 94.5668C23.5007 93.9323 23.4131 93.3665 23.2379 92.8693C23.0675 92.3722 22.8142 91.9792 22.478 91.6903C22.1418 91.4015 21.7228 91.2571 21.2209 91.2571C20.7143 91.2571 20.2881 91.4015 19.9425 91.6903C19.6016 91.9792 19.3435 92.3722 19.1683 92.8693C18.9979 93.3665 18.9126 93.9323 18.9126 94.5668C18.9126 95.2012 18.9979 95.767 19.1683 96.2642C19.3435 96.7614 19.6016 97.1544 19.9425 97.4432C20.2881 97.7273 20.7143 97.8693 21.2209 97.8693ZM31.5689 85.4545V100H28.5433V85.4545H31.5689ZM38.9215 100.213C37.8183 100.213 36.8642 99.9787 36.0593 99.5099C35.2591 99.0365 34.6412 98.3783 34.2056 97.5355C33.77 96.688 33.5522 95.7055 33.5522 94.5881C33.5522 93.4612 33.77 92.4763 34.2056 91.6335C34.6412 90.786 35.2591 90.1278 36.0593 89.6591C36.8642 89.1856 37.8183 88.9489 38.9215 88.9489C40.0247 88.9489 40.9764 89.1856 41.7766 89.6591C42.5816 90.1278 43.2018 90.786 43.6374 91.6335C44.073 92.4763 44.2908 93.4612 44.2908 94.5881C44.2908 95.7055 44.073 96.688 43.6374 97.5355C43.2018 98.3783 42.5816 99.0365 41.7766 99.5099C40.9764 99.9787 40.0247 100.213 38.9215 100.213ZM38.9357 97.8693C39.4376 97.8693 39.8567 97.7273 40.1928 97.4432C40.529 97.1544 40.7823 96.7614 40.9528 96.2642C41.128 95.767 41.2156 95.2012 41.2156 94.5668C41.2156 93.9323 41.128 93.3665 40.9528 92.8693C40.7823 92.3722 40.529 91.9792 40.1928 91.6903C39.8567 91.4015 39.4376 91.2571 38.9357 91.2571C38.4291 91.2571 38.003 91.4015 37.6573 91.6903C37.3164 91.9792 37.0584 92.3722 36.8832 92.8693C36.7127 93.3665 36.6275 93.9323 36.6275 94.5668C36.6275 95.2012 36.7127 95.767 36.8832 96.2642C37.0584 96.7614 37.3164 97.1544 37.6573 97.4432C38.003 97.7273 38.4291 97.8693 38.9357 97.8693ZM46.2582 100V89.0909H49.1914V90.9943H49.305C49.5039 90.3172 49.8377 89.8059 50.3065 89.4602C50.7752 89.1098 51.315 88.9347 51.9258 88.9347C52.0773 88.9347 52.2406 88.9441 52.4158 88.9631C52.591 88.982 52.7449 89.008 52.8775 89.0412V91.7259C52.7354 91.6832 52.5389 91.6454 52.288 91.6122C52.0371 91.5791 51.8074 91.5625 51.5991 91.5625C51.154 91.5625 50.7563 91.6596 50.4059 91.8537C50.0603 92.0431 49.7856 92.3082 49.582 92.6491C49.3832 92.9901 49.2837 93.383 49.2837 93.8281V100H46.2582ZM63.9996 100.213C62.8822 100.213 61.921 99.9763 61.1161 99.5028C60.3159 99.0246 59.7004 98.3617 59.2695 97.5142C58.8434 96.6667 58.6303 95.6913 58.6303 94.5881C58.6303 93.4706 58.8458 92.4905 59.2766 91.6477C59.7122 90.8002 60.3301 90.1397 61.1303 89.6662C61.9305 89.188 62.8822 88.9489 63.9854 88.9489C64.9371 88.9489 65.7705 89.1217 66.4854 89.4673C67.2004 89.813 67.7662 90.2983 68.1829 90.9233C68.5996 91.5483 68.8292 92.2822 68.8718 93.125H66.0167C65.9362 92.5805 65.7231 92.1425 65.3775 91.8111C65.0366 91.4749 64.5891 91.3068 64.0352 91.3068C63.5664 91.3068 63.1568 91.4347 62.8065 91.6903C62.4608 91.9413 62.1909 92.3082 61.9968 92.7912C61.8027 93.2741 61.7056 93.8589 61.7056 94.5455C61.7056 95.2415 61.8003 95.8333 61.9897 96.321C62.1838 96.8087 62.4561 97.1804 62.8065 97.4361C63.1568 97.6918 63.5664 97.8196 64.0352 97.8196C64.3808 97.8196 64.6909 97.7486 64.9656 97.6065C65.2449 97.4645 65.4746 97.2585 65.6545 96.9886C65.8391 96.714 65.9599 96.3849 66.0167 96.0014H68.8718C68.8245 96.8348 68.5972 97.5687 68.19 98.2031C67.7875 98.8329 67.2312 99.3253 66.521 99.6804C65.8107 100.036 64.9703 100.213 63.9996 100.213ZM73.8345 93.6932V100H70.8089V85.4545H73.7493V91.0156H73.8771C74.1233 90.3717 74.5211 89.8674 75.0703 89.5028C75.6196 89.1335 76.3085 88.9489 77.1371 88.9489C77.8946 88.9489 78.5552 89.1146 79.1186 89.446C79.6868 89.7727 80.1271 90.2438 80.4396 90.8594C80.7569 91.4702 80.9131 92.2017 80.9084 93.054V100H77.8828V93.5938C77.8875 92.9214 77.7171 92.3982 77.3714 92.0241C77.0305 91.6501 76.5523 91.4631 75.9368 91.4631C75.5249 91.4631 75.1603 91.5507 74.843 91.7259C74.5305 91.901 74.2843 92.1567 74.1044 92.4929C73.9292 92.8243 73.8393 93.2244 73.8345 93.6932ZM86.4002 100.206C85.7042 100.206 85.0839 100.085 84.5394 99.8438C83.9949 99.5975 83.564 99.2353 83.2468 98.7571C82.9343 98.2741 82.7781 97.6728 82.7781 96.9531C82.7781 96.3471 82.8893 95.8381 83.1119 95.4261C83.3344 95.0142 83.6374 94.6828 84.021 94.4318C84.4045 94.1809 84.8401 93.9915 85.3278 93.8636C85.8202 93.7358 86.3363 93.6458 86.8761 93.5938C87.5105 93.5275 88.0219 93.4659 88.4102 93.4091C88.7984 93.3475 89.0801 93.2576 89.2553 93.1392C89.4305 93.0208 89.5181 92.8456 89.5181 92.6136V92.571C89.5181 92.1212 89.3761 91.7732 89.092 91.527C88.8126 91.2808 88.4149 91.1577 87.8988 91.1577C87.3543 91.1577 86.921 91.2784 86.5991 91.5199C86.2771 91.7566 86.064 92.0549 85.9599 92.4148L83.1616 92.1875C83.3036 91.5246 83.583 90.9517 83.9996 90.4688C84.4163 89.9811 84.9537 89.607 85.6119 89.3466C86.2747 89.0814 87.0418 88.9489 87.913 88.9489C88.5191 88.9489 89.0991 89.0199 89.6531 89.1619C90.2118 89.304 90.7066 89.5241 91.1374 89.8224C91.573 90.1207 91.9163 90.5043 92.1673 90.973C92.4182 91.437 92.5437 91.9934 92.5437 92.642V100H89.6744V98.4872H89.5891C89.4139 98.8281 89.1796 99.1288 88.886 99.3892C88.5924 99.6449 88.2397 99.8461 87.8278 99.9929C87.4158 100.135 86.94 100.206 86.4002 100.206ZM87.2667 98.1179C87.7118 98.1179 88.1048 98.0303 88.4457 97.8551C88.7866 97.6752 89.0541 97.4337 89.2482 97.1307C89.4424 96.8277 89.5394 96.4844 89.5394 96.1009V94.9432C89.4447 95.0047 89.3145 95.0616 89.1488 95.1136C88.9878 95.161 88.8055 95.206 88.6019 95.2486C88.3983 95.2865 88.1947 95.322 87.9911 95.3551C87.7875 95.3835 87.6029 95.4096 87.4371 95.4332C87.082 95.4853 86.7719 95.5682 86.5067 95.6818C86.2416 95.7955 86.0356 95.9493 85.8888 96.1435C85.7421 96.3329 85.6687 96.5696 85.6687 96.8537C85.6687 97.2656 85.8178 97.5805 86.1161 97.7983C86.4192 98.0114 86.8027 98.1179 87.2667 98.1179ZM97.9165 93.6932V100H94.891V89.0909H97.7745V91.0156H97.9023C98.1438 90.3812 98.5487 89.8793 99.1168 89.5099C99.685 89.1359 100.374 88.9489 101.184 88.9489C101.941 88.9489 102.602 89.1146 103.165 89.446C103.729 89.7775 104.167 90.2509 104.479 90.8665C104.792 91.4773 104.948 92.2064 104.948 93.054V100H101.922V93.5938C101.927 92.9261 101.757 92.4053 101.411 92.0312C101.065 91.6525 100.589 91.4631 99.9833 91.4631C99.5761 91.4631 99.2163 91.5507 98.9038 91.7259C98.596 91.901 98.3545 92.1567 98.1793 92.4929C98.0089 92.8243 97.9213 93.2244 97.9165 93.6932ZM110.358 93.6932V100H107.332V89.0909H110.216V91.0156H110.344C110.585 90.3812 110.99 89.8793 111.558 89.5099C112.126 89.1359 112.815 88.9489 113.625 88.9489C114.383 88.9489 115.043 89.1146 115.607 89.446C116.17 89.7775 116.608 90.2509 116.92 90.8665C117.233 91.4773 117.389 92.2064 117.389 93.054V100H114.364V93.5938C114.368 92.9261 114.198 92.4053 113.852 92.0312C113.507 91.6525 113.031 91.4631 112.425 91.4631C112.018 91.4631 111.658 91.5507 111.345 91.7259C111.037 91.901 110.796 92.1567 110.621 92.4929C110.45 92.8243 110.363 93.2244 110.358 93.6932ZM124.745 100.213C123.623 100.213 122.657 99.9858 121.848 99.5312C121.043 99.072 120.422 98.4233 119.987 97.5852C119.551 96.7424 119.333 95.7457 119.333 94.5952C119.333 93.473 119.551 92.4882 119.987 91.6406C120.422 90.7931 121.036 90.1326 121.826 89.6591C122.622 89.1856 123.555 88.9489 124.625 88.9489C125.344 88.9489 126.014 89.0649 126.635 89.2969C127.26 89.5241 127.804 89.8674 128.268 90.3267C128.737 90.786 129.101 91.3636 129.362 92.0597C129.622 92.7509 129.752 93.5606 129.752 94.4886V95.3196H120.541V93.4446H126.904C126.904 93.009 126.81 92.6231 126.62 92.2869C126.431 91.9508 126.168 91.688 125.832 91.4986C125.501 91.3045 125.115 91.2074 124.674 91.2074C124.215 91.2074 123.808 91.3139 123.453 91.527C123.102 91.7353 122.828 92.017 122.629 92.3722C122.43 92.7225 122.328 93.1132 122.324 93.544V95.3267C122.324 95.8665 122.423 96.3329 122.622 96.7259C122.825 97.1188 123.112 97.4219 123.481 97.6349C123.85 97.848 124.288 97.9545 124.795 97.9545C125.131 97.9545 125.439 97.9072 125.718 97.8125C125.998 97.7178 126.237 97.5758 126.436 97.3864C126.635 97.197 126.786 96.965 126.89 96.6903L129.689 96.875C129.547 97.5473 129.255 98.1345 128.815 98.6364C128.379 99.1335 127.816 99.5218 127.125 99.8011C126.438 100.076 125.645 100.213 124.745 100.213ZM134.752 85.4545V100H131.727V85.4545H134.752Z" fill="black"/>
<defs>
<clipPath id="clip0_1060_4991">
<rect width="114" height="38" fill="white" transform="translate(11 15)"/>
</clipPath>
</defs>
</svg>
