<svg width="387" height="124" viewBox="0 0 387 124" fill="none" xmlns="http://www.w3.org/2000/svg">
<path d="M90.3776 80.0972L91.4111 78.1035C91.7392 77.4628 92.0446 76.8335 92.3319 76.1915C92.8951 74.913 93.3556 73.6147 93.6456 72.332C94.2356 69.7426 93.9286 67.3675 92.3544 65.6087C90.7803 63.8149 88.1811 62.6109 85.4945 61.7718C79.7751 60.1258 73.9262 58.294 68.2673 56.1454C66.8468 55.6061 65.4331 55.0458 64.025 54.4488C62.638 53.8659 61.1344 53.1845 59.7586 52.2621C58.3986 51.3428 56.9723 50.1177 56.236 48.2395C55.8712 47.3158 55.7754 46.2711 55.8981 45.322C56.0219 44.3703 56.3317 43.5043 56.7162 42.7326C57.5159 41.1514 58.4973 40.0109 59.3815 38.7873L62.1343 35.1968L67.6974 28.0919L77.1692 16.1758L69.9486 15.9688C69.9486 15.9688 53.5015 31.0938 46.16 40.6388C39.7774 48.9348 43.2636 56.2651 54.8094 61.1958C64.5544 65.3594 73.6756 68.5823 73.6756 68.5823C75.2471 69.3961 76.365 70.8224 76.7366 72.4867C77.1083 74.1525 76.6972 75.8858 75.6088 77.2388L50.484 108.48H75.5512L86.2127 88.0864L90.3776 80.0972Z" fill="#935834"/>
<path d="M114.493 63.131C110.994 57.2778 105.004 53.1495 98.0656 51.8076L73.4829 46.6248C72.4579 46.4276 71.5962 45.7772 71.1611 44.8732C70.726 43.9707 70.7724 42.9243 71.2836 42.0585L87.6252 16.4733L79.6656 16.2452L69.6025 29.5568L64.2267 36.777L61.5838 40.4055C60.7333 41.6262 59.7955 42.8331 59.2788 43.9622C58.7284 45.1294 58.5904 46.2419 58.9875 47.1654C59.3704 48.1116 60.3067 48.9916 61.436 49.6986C62.5794 50.4222 63.8368 50.967 65.2308 51.5134C66.6022 52.0555 67.9933 52.5695 69.3943 53.0623C75.0236 55.0404 80.6937 56.668 86.5595 58.2044C89.5671 59.0999 92.7506 60.2995 95.2865 62.9749C96.5227 64.3138 97.445 66.0724 97.7955 67.893C98.156 69.715 98.0378 71.5089 97.7223 73.1674C97.39 74.8247 96.8706 76.382 96.2608 77.866C95.9525 78.6037 95.62 79.3346 95.2794 80.0385L94.2882 82.0704L90.3162 90.1651L81.303 108.479H106.712L116.323 82.3436C118.659 75.9877 117.992 68.984 114.493 63.131Z" fill="#935834"/>
<path d="M34.5625 0H4.9375C2.212 0 0 2.212 0 4.9375V34.5625C0 37.288 2.212 39.5 4.9375 39.5C7.663 39.5 9.875 37.288 9.875 34.5625V9.875H34.5625C37.288 9.875 39.5 7.663 39.5 4.9375C39.5 2.212 37.288 0 34.5625 0ZM153.062 83.9375C150.337 83.9375 148.125 86.1495 148.125 88.875V113.562H123.438C120.712 113.562 118.5 115.774 118.5 118.5C118.5 121.226 120.712 123.438 123.438 123.438H153.062C155.788 123.438 158 121.226 158 118.5V88.875C158 86.1495 155.788 83.9375 153.062 83.9375ZM34.5625 113.562H9.875V88.875C9.875 86.1495 7.663 83.9375 4.9375 83.9375C2.212 83.9375 0 86.1495 0 88.875V118.5C0 121.226 2.212 123.438 4.9375 123.438H34.5625C37.288 123.438 39.5 121.226 39.5 118.5C39.5 115.774 37.288 113.562 34.5625 113.562ZM153.062 0H123.438C120.712 0 118.5 2.212 118.5 4.9375C118.5 7.663 120.712 9.875 123.438 9.875H148.125V34.5625C148.125 37.288 150.337 39.5 153.062 39.5C155.788 39.5 158 37.288 158 34.5625V4.9375C158 2.212 155.788 0 153.062 0Z" fill="#AEAEAE" stroke="black" stroke-width="0.00067"/>
<path d="M319.378 80.0972L320.411 78.1035C320.739 77.4628 321.045 76.8335 321.332 76.1915C321.895 74.913 322.356 73.6147 322.646 72.332C323.236 69.7426 322.929 67.3675 321.354 65.6087C319.78 63.8149 317.181 62.6109 314.495 61.7718C308.775 60.1258 302.926 58.294 297.267 56.1454C295.847 55.6061 294.433 55.0458 293.025 54.4488C291.638 53.8659 290.134 53.1845 288.759 52.2621C287.399 51.3428 285.972 50.1177 285.236 48.2395C284.871 47.3158 284.775 46.2711 284.898 45.322C285.022 44.3703 285.332 43.5043 285.716 42.7326C286.516 41.1514 287.497 40.0109 288.382 38.7873L291.134 35.1968L296.697 28.0919L306.169 16.1758L298.949 15.9688C298.949 15.9688 282.501 31.0938 275.16 40.6388C268.777 48.9348 272.264 56.2651 283.809 61.1958C293.554 65.3594 302.676 68.5823 302.676 68.5823C304.247 69.3961 305.365 70.8224 305.737 72.4867C306.108 74.1525 305.697 75.8858 304.609 77.2388L279.484 108.48H304.551L315.213 88.0864L319.378 80.0972Z" fill="black"/>
<path d="M343.493 63.131C339.994 57.2778 334.004 53.1495 327.066 51.8076L302.483 46.6248C301.458 46.4276 300.596 45.7772 300.161 44.8732C299.726 43.9707 299.772 42.9243 300.284 42.0585L316.625 16.4733L308.666 16.2452L298.602 29.5568L293.227 36.777L290.584 40.4055C289.733 41.6262 288.796 42.8331 288.279 43.9622C287.728 45.1294 287.59 46.2419 287.988 47.1654C288.37 48.1116 289.307 48.9916 290.436 49.6986C291.579 50.4222 292.837 50.967 294.231 51.5134C295.602 52.0555 296.993 52.5695 298.394 53.0623C304.024 55.0404 309.694 56.668 315.56 58.2044C318.567 59.0999 321.751 60.2995 324.286 62.9749C325.523 64.3138 326.445 66.0724 326.796 67.893C327.156 69.715 327.038 71.5089 326.722 73.1674C326.39 74.8247 325.871 76.382 325.261 77.866C324.953 78.6037 324.62 79.3346 324.279 80.0385L323.288 82.0704L319.316 90.1651L310.303 108.479H335.712L345.323 82.3436C347.659 75.9877 346.992 68.984 343.493 63.131Z" fill="black"/>
<path d="M263.562 0H233.938C231.212 0 229 2.212 229 4.9375V34.5625C229 37.288 231.212 39.5 233.938 39.5C236.663 39.5 238.875 37.288 238.875 34.5625V9.875H263.562C266.288 9.875 268.5 7.663 268.5 4.9375C268.5 2.212 266.288 0 263.562 0ZM382.062 83.9375C379.337 83.9375 377.125 86.1495 377.125 88.875V113.562H352.438C349.712 113.562 347.5 115.774 347.5 118.5C347.5 121.226 349.712 123.438 352.438 123.438H382.062C384.788 123.438 387 121.226 387 118.5V88.875C387 86.1495 384.788 83.9375 382.062 83.9375ZM263.562 113.562H238.875V88.875C238.875 86.1495 236.663 83.9375 233.938 83.9375C231.212 83.9375 229 86.1495 229 88.875V118.5C229 121.226 231.212 123.438 233.938 123.438H263.562C266.288 123.438 268.5 121.226 268.5 118.5C268.5 115.774 266.288 113.562 263.562 113.562ZM382.062 0H352.438C349.712 0 347.5 2.212 347.5 4.9375C347.5 7.663 349.712 9.875 352.438 9.875H377.125V34.5625C377.125 37.288 379.337 39.5 382.062 39.5C384.788 39.5 387 37.288 387 34.5625V4.9375C387 2.212 384.788 0 382.062 0Z" fill="#AEAEAE" stroke="black" stroke-width="0.00067"/>
<path d="M172 62.5C171.172 62.5 170.5 63.1716 170.5 64C170.5 64.8284 171.172 65.5 172 65.5V62.5ZM215.061 65.0607C215.646 64.4749 215.646 63.5251 215.061 62.9393L205.515 53.3934C204.929 52.8076 203.979 52.8076 203.393 53.3934C202.808 53.9792 202.808 54.9289 203.393 55.5147L211.879 64L203.393 72.4853C202.808 73.0711 202.808 74.0208 203.393 74.6066C203.979 75.1924 204.929 75.1924 205.515 74.6066L215.061 65.0607ZM172 65.5H214V62.5H172V65.5Z" fill="black"/>
</svg>
