<svg width="392" height="154" viewBox="0 0 392 154" fill="none" xmlns="http://www.w3.org/2000/svg">
<rect x="0.65" y="7.63926" width="98.9101" height="107.915" rx="2.35" fill="white" stroke="#BFBFBF" stroke-width="0.7"/>
<path d="M99.9629 7.65872L99.7516 7.74991V7.98007V115.204V115.799L100.272 115.51L114.557 107.561L114.737 107.461V107.255V1.81592V1.28369L114.248 1.49456L99.9629 7.65872Z" fill="#C1C1C1" stroke="#BFBFBF" stroke-width="0.7"/>
<path d="M17.6659 0.653906H17.6032L17.5444 0.675697L0.878433 6.84868L1 7.52689H99.2101H99.2785L99.3419 7.5011L114.52 1.32812L114.388 0.653906H17.6659Z" fill="#DFDFDF" stroke="#BFBFBF" stroke-width="0.7"/>
<rect x="277.261" y="7.63535" width="98.9101" height="107.915" rx="2.35" fill="black" stroke="#373737" stroke-width="0.7"/>
<path d="M376.574 7.65481L376.363 7.746V7.97617V115.2V115.795L376.883 115.506L391.168 107.557L391.348 107.457V107.252V1.81201V1.27979L390.859 1.49065L376.574 7.65481Z" fill="#252525" stroke="#373737" stroke-width="0.7"/>
<path d="M294.277 0.65H294.215L294.156 0.671791L277.49 6.84478L277.611 7.52299H375.821H375.89L375.953 7.4972L391.131 1.32421L390.999 0.65H294.277Z" fill="#565656" stroke="#373737" stroke-width="0.7"/>
<path d="M33.8295 138.186C33.8295 136.754 34.0152 135.438 34.3864 134.237C34.7614 133.032 35.2955 131.924 35.9886 130.913H37.1705C36.8977 131.288 36.642 131.75 36.4034 132.299C36.1686 132.845 35.9621 133.445 35.7841 134.1C35.6061 134.752 35.4659 135.426 35.3636 136.123C35.2652 136.82 35.2159 137.508 35.2159 138.186C35.2159 139.087 35.303 140.002 35.4773 140.93C35.6515 141.858 35.8864 142.72 36.1818 143.515C36.4773 144.311 36.8068 144.958 37.1705 145.458H35.9886C35.2955 144.447 34.7614 143.341 34.3864 142.14C34.0152 140.936 33.8295 139.618 33.8295 138.186ZM39.1264 144.004V142.981L42.9673 138.777C43.4181 138.284 43.7893 137.856 44.081 137.493C44.3726 137.125 44.5885 136.78 44.7287 136.458C44.8726 136.133 44.9446 135.792 44.9446 135.436C44.9446 135.027 44.8461 134.672 44.6491 134.373C44.456 134.074 44.1908 133.843 43.8537 133.68C43.5166 133.517 43.1378 133.436 42.7173 133.436C42.2704 133.436 41.8802 133.529 41.5469 133.714C41.2173 133.896 40.9616 134.152 40.7798 134.481C40.6018 134.811 40.5128 135.197 40.5128 135.64H39.1719C39.1719 134.958 39.3291 134.36 39.6435 133.845C39.9579 133.33 40.3859 132.928 40.9276 132.64C41.473 132.352 42.0848 132.208 42.7628 132.208C43.4446 132.208 44.0488 132.352 44.5753 132.64C45.1018 132.928 45.5147 133.316 45.8139 133.805C46.1132 134.294 46.2628 134.837 46.2628 135.436C46.2628 135.864 46.1851 136.282 46.0298 136.691C45.8783 137.097 45.6132 137.549 45.2344 138.049C44.8594 138.546 44.3385 139.152 43.6719 139.868L41.0582 142.663V142.754H46.4673V144.004H39.1264ZM52.4503 144.163C51.7836 144.163 51.1832 144.03 50.6491 143.765C50.1151 143.5 49.687 143.136 49.3651 142.674C49.0431 142.212 48.867 141.686 48.8366 141.095H50.2003C50.2533 141.621 50.492 142.057 50.9162 142.402C51.3442 142.743 51.8556 142.913 52.4503 142.913C52.9276 142.913 53.3518 142.801 53.723 142.578C54.098 142.354 54.3916 142.047 54.6037 141.657C54.8196 141.263 54.9276 140.818 54.9276 140.322C54.9276 139.815 54.8158 139.362 54.5923 138.964C54.3726 138.563 54.0696 138.246 53.6832 138.015C53.2969 137.784 52.8556 137.667 52.3594 137.663C52.0033 137.659 51.6378 137.714 51.2628 137.828C50.8878 137.938 50.5791 138.08 50.3366 138.254L49.0185 138.095L49.723 132.368H55.7685V133.618H50.9048L50.4957 137.049H50.5639C50.8026 136.86 51.1018 136.703 51.4616 136.578C51.8215 136.453 52.1965 136.39 52.5866 136.39C53.2988 136.39 53.9332 136.561 54.4901 136.902C55.0507 137.239 55.4901 137.701 55.8082 138.288C56.1302 138.875 56.2912 139.546 56.2912 140.299C56.2912 141.042 56.1245 141.705 55.7912 142.288C55.4616 142.868 55.0071 143.326 54.4276 143.663C53.848 143.996 53.1889 144.163 52.4503 144.163ZM62.1847 144.163C61.518 144.163 60.9176 144.03 60.3835 143.765C59.8494 143.5 59.4214 143.136 59.0994 142.674C58.7775 142.212 58.6013 141.686 58.571 141.095H59.9347C59.9877 141.621 60.2263 142.057 60.6506 142.402C61.0786 142.743 61.59 142.913 62.1847 142.913C62.6619 142.913 63.0862 142.801 63.4574 142.578C63.8324 142.354 64.1259 142.047 64.3381 141.657C64.554 141.263 64.6619 140.818 64.6619 140.322C64.6619 139.815 64.5502 139.362 64.3267 138.964C64.107 138.563 63.804 138.246 63.4176 138.015C63.0313 137.784 62.59 137.667 62.0938 137.663C61.7377 137.659 61.3722 137.714 60.9972 137.828C60.6222 137.938 60.3134 138.08 60.071 138.254L58.7528 138.095L59.4574 132.368H65.5028V133.618H60.6392L60.2301 137.049H60.2983C60.5369 136.86 60.8362 136.703 61.196 136.578C61.5559 136.453 61.9309 136.39 62.321 136.39C63.0331 136.39 63.6676 136.561 64.2244 136.902C64.785 137.239 65.2244 137.701 65.5426 138.288C65.8646 138.875 66.0256 139.546 66.0256 140.299C66.0256 141.042 65.8589 141.705 65.5256 142.288C65.196 142.868 64.7415 143.326 64.1619 143.663C63.5824 143.996 62.9233 144.163 62.1847 144.163ZM71.169 138.186C71.169 139.618 70.9815 140.936 70.6065 142.14C70.2353 143.341 69.7031 144.447 69.0099 145.458H67.8281C68.1009 145.083 68.3546 144.621 68.5895 144.072C68.8281 143.527 69.0365 142.928 69.2145 142.277C69.3925 141.621 69.5308 140.945 69.6293 140.248C69.7315 139.547 69.7827 138.86 69.7827 138.186C69.7827 137.284 69.6955 136.369 69.5213 135.441C69.3471 134.513 69.1122 133.652 68.8168 132.856C68.5213 132.061 68.1918 131.413 67.8281 130.913H69.0099C69.7031 131.924 70.2353 133.032 70.6065 134.237C70.9815 135.438 71.169 136.754 71.169 138.186Z" fill="black"/>
<rect x="138.957" y="7.63535" width="98.9101" height="107.915" rx="2.35" fill="#B2B2B2" stroke="#BFBFBF" stroke-width="0.7"/>
<path d="M238.27 7.65481L238.058 7.746V7.97617V115.2V115.795L238.578 115.506L252.863 107.557L253.043 107.457V107.252V1.81201V1.27979L252.555 1.49065L238.27 7.65481Z" fill="#858585" stroke="#BFBFBF" stroke-width="0.7"/>
<path d="M155.973 0.65H155.91L155.851 0.671791L139.185 6.84478L139.307 7.52299H237.517H237.585L237.649 7.4972L252.826 1.32421L252.695 0.65H155.973Z" fill="#D2D1D1" stroke="#BFBFBF" stroke-width="0.7"/>
<path d="M174.306 138.186C174.306 136.754 174.492 135.438 174.863 134.237C175.238 133.032 175.772 131.924 176.465 130.913H177.647C177.374 131.288 177.119 131.75 176.88 132.299C176.645 132.845 176.439 133.445 176.261 134.1C176.083 134.752 175.942 135.426 175.84 136.123C175.742 136.82 175.692 137.508 175.692 138.186C175.692 139.087 175.78 140.002 175.954 140.93C176.128 141.858 176.363 142.72 176.658 143.515C176.954 144.311 177.283 144.958 177.647 145.458H176.465C175.772 144.447 175.238 143.341 174.863 142.14C174.492 140.936 174.306 139.618 174.306 138.186ZM183.694 132.368V144.004H182.285V133.845H182.217L179.376 135.731V134.299L182.285 132.368H183.694ZM187.404 144.004L192.609 133.708V133.618H186.609V132.368H194.063V133.686L188.881 144.004H187.404ZM199.674 144.163C198.894 144.163 198.204 144.025 197.606 143.748C197.011 143.468 196.547 143.083 196.214 142.595C195.88 142.102 195.716 141.542 195.719 140.913C195.716 140.421 195.812 139.966 196.009 139.549C196.206 139.129 196.475 138.779 196.816 138.498C197.161 138.214 197.545 138.034 197.969 137.958V137.89C197.413 137.746 196.969 137.434 196.64 136.953C196.31 136.468 196.147 135.917 196.151 135.299C196.147 134.708 196.297 134.18 196.6 133.714C196.903 133.248 197.32 132.881 197.85 132.612C198.384 132.343 198.992 132.208 199.674 132.208C200.348 132.208 200.951 132.343 201.481 132.612C202.011 132.881 202.428 133.248 202.731 133.714C203.038 134.18 203.193 134.708 203.197 135.299C203.193 135.917 203.024 136.468 202.691 136.953C202.362 137.434 201.924 137.746 201.379 137.89V137.958C201.799 138.034 202.178 138.214 202.515 138.498C202.852 138.779 203.121 139.129 203.322 139.549C203.522 139.966 203.625 140.421 203.629 140.913C203.625 141.542 203.454 142.102 203.117 142.595C202.784 143.083 202.32 143.468 201.725 143.748C201.134 144.025 200.451 144.163 199.674 144.163ZM199.674 142.913C200.201 142.913 200.655 142.828 201.038 142.657C201.42 142.487 201.716 142.246 201.924 141.936C202.132 141.625 202.238 141.261 202.242 140.845C202.238 140.405 202.125 140.017 201.901 139.68C201.678 139.343 201.373 139.078 200.987 138.885C200.604 138.691 200.166 138.595 199.674 138.595C199.178 138.595 198.735 138.691 198.344 138.885C197.958 139.078 197.653 139.343 197.43 139.68C197.21 140.017 197.102 140.405 197.106 140.845C197.102 141.261 197.202 141.625 197.407 141.936C197.615 142.246 197.913 142.487 198.299 142.657C198.685 142.828 199.144 142.913 199.674 142.913ZM199.674 137.39C200.091 137.39 200.46 137.307 200.782 137.14C201.108 136.974 201.363 136.741 201.549 136.441C201.735 136.142 201.829 135.792 201.833 135.39C201.829 134.996 201.737 134.654 201.555 134.362C201.373 134.066 201.121 133.839 200.799 133.68C200.477 133.517 200.102 133.436 199.674 133.436C199.238 133.436 198.858 133.517 198.532 133.68C198.206 133.839 197.954 134.066 197.776 134.362C197.598 134.654 197.511 134.996 197.515 135.39C197.511 135.792 197.6 136.142 197.782 136.441C197.968 136.741 198.223 136.974 198.549 137.14C198.875 137.307 199.25 137.39 199.674 137.39ZM208.692 138.186C208.692 139.618 208.505 140.936 208.13 142.14C207.759 143.341 207.227 144.447 206.533 145.458H205.352C205.624 145.083 205.878 144.621 206.113 144.072C206.352 143.527 206.56 142.928 206.738 142.277C206.916 141.621 207.054 140.945 207.153 140.248C207.255 139.547 207.306 138.86 207.306 138.186C207.306 137.284 207.219 136.369 207.045 135.441C206.871 134.513 206.636 133.652 206.34 132.856C206.045 132.061 205.715 131.413 205.352 130.913H206.533C207.227 131.924 207.759 133.032 208.13 134.237C208.505 135.438 208.692 136.754 208.692 138.186Z" fill="black"/>
<path d="M312.408 138.186C312.408 136.754 312.593 135.438 312.964 134.237C313.339 133.032 313.874 131.924 314.567 130.913H315.749C315.476 131.288 315.22 131.75 314.982 132.299C314.747 132.845 314.54 133.445 314.362 134.1C314.184 134.752 314.044 135.426 313.942 136.123C313.843 136.82 313.794 137.508 313.794 138.186C313.794 139.087 313.881 140.002 314.055 140.93C314.23 141.858 314.464 142.72 314.76 143.515C315.055 144.311 315.385 144.958 315.749 145.458H314.567C313.874 144.447 313.339 143.341 312.964 142.14C312.593 140.936 312.408 139.618 312.408 138.186ZM330.5 144.163C329.644 144.163 328.915 143.93 328.312 143.464C327.71 142.994 327.25 142.315 326.932 141.424C326.614 140.53 326.455 139.451 326.455 138.186C326.455 136.928 326.614 135.854 326.932 134.964C327.254 134.07 327.716 133.388 328.318 132.919C328.924 132.445 329.652 132.208 330.5 132.208C331.348 132.208 332.074 132.445 332.676 132.919C333.282 133.388 333.744 134.07 334.062 134.964C334.384 135.854 334.545 136.928 334.545 138.186C334.545 139.451 334.386 140.53 334.068 141.424C333.75 142.315 333.29 142.994 332.688 143.464C332.085 143.93 331.356 144.163 330.5 144.163ZM330.5 142.913C331.348 142.913 332.008 142.504 332.477 141.686C332.947 140.868 333.182 139.701 333.182 138.186C333.182 137.178 333.074 136.32 332.858 135.612C332.646 134.904 332.339 134.364 331.938 133.993C331.54 133.621 331.061 133.436 330.5 133.436C329.659 133.436 329.002 133.85 328.528 134.68C328.055 135.506 327.818 136.674 327.818 138.186C327.818 139.193 327.924 140.049 328.136 140.754C328.348 141.458 328.653 141.994 329.051 142.362C329.453 142.729 329.936 142.913 330.5 142.913ZM348.591 138.186C348.591 139.618 348.403 140.936 348.028 142.14C347.657 143.341 347.125 144.447 346.432 145.458H345.25C345.523 145.083 345.777 144.621 346.011 144.072C346.25 143.527 346.458 142.928 346.636 142.277C346.814 141.621 346.953 140.945 347.051 140.248C347.153 139.547 347.205 138.86 347.205 138.186C347.205 137.284 347.117 136.369 346.943 135.441C346.769 134.513 346.534 133.652 346.239 132.856C345.943 132.061 345.614 131.413 345.25 130.913H346.432C347.125 131.924 347.657 133.032 348.028 134.237C348.403 135.438 348.591 136.754 348.591 138.186Z" fill="black"/>
</svg>
