<svg width="400" height="383" viewBox="0 0 400 383" fill="none" xmlns="http://www.w3.org/2000/svg">
<path d="M72.8622 154V142.364H76.794C77.7069 142.364 78.4531 142.528 79.0327 142.858C79.616 143.184 80.0478 143.625 80.3281 144.182C80.6084 144.739 80.7486 145.36 80.7486 146.045C80.7486 146.731 80.6084 147.354 80.3281 147.915C80.0516 148.475 79.6236 148.922 79.044 149.256C78.4645 149.585 77.7221 149.75 76.8168 149.75H73.9986V148.5H76.7713C77.3963 148.5 77.8982 148.392 78.277 148.176C78.6558 147.96 78.9304 147.669 79.1009 147.301C79.2751 146.93 79.3622 146.511 79.3622 146.045C79.3622 145.58 79.2751 145.163 79.1009 144.795C78.9304 144.428 78.6539 144.14 78.2713 143.932C77.8887 143.72 77.3812 143.614 76.7486 143.614H74.2713V154H72.8622ZM92.2457 142.364V154H90.8821L84.5412 144.864H84.4276V154H83.0185V142.364H84.3821L90.7457 151.523H90.8594V142.364H92.2457ZM103.02 146C102.895 145.617 102.73 145.275 102.526 144.972C102.325 144.665 102.084 144.403 101.804 144.188C101.527 143.972 101.213 143.807 100.861 143.693C100.509 143.58 100.122 143.523 99.7017 143.523C99.0123 143.523 98.3854 143.701 97.821 144.057C97.2566 144.413 96.8078 144.938 96.4744 145.631C96.1411 146.324 95.9744 147.174 95.9744 148.182C95.9744 149.189 96.143 150.04 96.4801 150.733C96.8172 151.426 97.2737 151.951 97.8494 152.307C98.4252 152.663 99.0729 152.841 99.7926 152.841C100.459 152.841 101.046 152.699 101.554 152.415C102.065 152.127 102.463 151.722 102.747 151.199C103.035 150.672 103.179 150.053 103.179 149.341L103.611 149.432H100.111V148.182H104.543V149.432C104.543 150.39 104.338 151.223 103.929 151.932C103.524 152.64 102.963 153.189 102.247 153.58C101.535 153.966 100.717 154.159 99.7926 154.159C98.7623 154.159 97.857 153.917 97.0767 153.432C96.3002 152.947 95.6941 152.258 95.2585 151.364C94.8267 150.47 94.6108 149.409 94.6108 148.182C94.6108 147.261 94.7339 146.434 94.9801 145.699C95.2301 144.96 95.5824 144.331 96.0369 143.812C96.4915 143.294 97.0294 142.896 97.6506 142.619C98.2718 142.343 98.9555 142.205 99.7017 142.205C100.315 142.205 100.887 142.297 101.418 142.483C101.952 142.665 102.427 142.924 102.844 143.261C103.264 143.595 103.615 143.994 103.895 144.46C104.175 144.922 104.368 145.436 104.474 146H103.02Z" fill="black"/>
<path d="M299.215 142.364H300.624V150.682C300.624 151.424 300.488 152.055 300.215 152.574C299.942 153.093 299.558 153.487 299.062 153.756C298.566 154.025 297.98 154.159 297.306 154.159C296.67 154.159 296.103 154.044 295.607 153.812C295.111 153.578 294.721 153.244 294.437 152.812C294.153 152.381 294.011 151.867 294.011 151.273H295.397C295.397 151.602 295.478 151.89 295.641 152.136C295.808 152.379 296.035 152.568 296.323 152.705C296.611 152.841 296.939 152.909 297.306 152.909C297.711 152.909 298.056 152.824 298.34 152.653C298.624 152.483 298.84 152.233 298.988 151.903C299.139 151.57 299.215 151.163 299.215 150.682V142.364ZM303.448 154V142.364H307.38C308.293 142.364 309.039 142.528 309.619 142.858C310.202 143.184 310.634 143.625 310.914 144.182C311.194 144.739 311.335 145.36 311.335 146.045C311.335 146.731 311.194 147.354 310.914 147.915C310.638 148.475 310.21 148.922 309.63 149.256C309.05 149.585 308.308 149.75 307.403 149.75H304.585V148.5H307.357C307.982 148.5 308.484 148.392 308.863 148.176C309.242 147.96 309.516 147.669 309.687 147.301C309.861 146.93 309.948 146.511 309.948 146.045C309.948 145.58 309.861 145.163 309.687 144.795C309.516 144.428 309.24 144.14 308.857 143.932C308.475 143.72 307.967 143.614 307.335 143.614H304.857V154H303.448ZM313.604 154V142.364H320.627V143.614H315.013V147.545H320.263V148.795H315.013V152.75H320.718V154H313.604ZM331.121 146C330.996 145.617 330.832 145.275 330.627 144.972C330.426 144.665 330.186 144.403 329.906 144.188C329.629 143.972 329.315 143.807 328.962 143.693C328.61 143.58 328.224 143.523 327.803 143.523C327.114 143.523 326.487 143.701 325.923 144.057C325.358 144.413 324.909 144.938 324.576 145.631C324.243 146.324 324.076 147.174 324.076 148.182C324.076 149.189 324.245 150.04 324.582 150.733C324.919 151.426 325.375 151.951 325.951 152.307C326.527 152.663 327.174 152.841 327.894 152.841C328.561 152.841 329.148 152.699 329.656 152.415C330.167 152.127 330.565 151.722 330.849 151.199C331.137 150.672 331.281 150.053 331.281 149.341L331.712 149.432H328.212V148.182H332.644V149.432C332.644 150.39 332.44 151.223 332.031 151.932C331.625 152.64 331.065 153.189 330.349 153.58C329.637 153.966 328.818 154.159 327.894 154.159C326.864 154.159 325.959 153.917 325.178 153.432C324.402 152.947 323.796 152.258 323.36 151.364C322.928 150.47 322.712 149.409 322.712 148.182C322.712 147.261 322.835 146.434 323.082 145.699C323.332 144.96 323.684 144.331 324.138 143.812C324.593 143.294 325.131 142.896 325.752 142.619C326.373 142.343 327.057 142.205 327.803 142.205C328.417 142.205 328.989 142.297 329.519 142.483C330.053 142.665 330.529 142.924 330.945 143.261C331.366 143.595 331.716 143.994 331.996 144.46C332.277 144.922 332.47 145.436 332.576 146H331.121Z" fill="black"/>
<rect y="29.1094" width="7.27778" height="7.27778" fill="#E6E6E6"/>
<rect x="7.27734" y="36.3867" width="7.27778" height="7.27778" fill="#E6E6E6"/>
<rect x="7.27734" y="29.1094" width="7.27778" height="7.27778" fill="#F7F7F7"/>
<rect y="36.3867" width="7.27778" height="7.27778" fill="#F7F7F7"/>
<rect x="14.5547" y="29.1094" width="7.27778" height="7.27778" fill="#E6E6E6"/>
<rect x="21.832" y="36.3867" width="7.27778" height="7.27778" fill="#E6E6E6"/>
<rect x="21.832" y="29.1094" width="7.27778" height="7.27778" fill="#F7F7F7"/>
<rect x="14.5547" y="36.3867" width="7.27778" height="7.27778" fill="#F7F7F7"/>
<rect y="43.666" width="7.27778" height="7.27778" fill="#E6E6E6"/>
<rect x="7.27734" y="50.9434" width="7.27778" height="7.27778" fill="#E6E6E6"/>
<rect x="7.27734" y="43.666" width="7.27778" height="7.27778" fill="#F7F7F7"/>
<rect y="50.9434" width="7.27778" height="7.27778" fill="#F7F7F7"/>
<rect x="14.5547" y="43.666" width="7.27778" height="7.27778" fill="#E6E6E6"/>
<rect x="21.832" y="50.9434" width="7.27778" height="7.27778" fill="#E6E6E6"/>
<rect x="21.832" y="43.666" width="7.27778" height="7.27778" fill="#F7F7F7"/>
<rect x="14.5547" y="50.9434" width="7.27778" height="7.27778" fill="#F7F7F7"/>
<rect x="29.1113" width="7.27778" height="7.27778" fill="#E6E6E6"/>
<rect x="36.3887" y="7.27734" width="7.27778" height="7.27778" fill="#E6E6E6"/>
<rect x="36.3887" width="7.27778" height="7.27778" fill="#F7F7F7"/>
<rect x="29.1113" y="7.27734" width="7.27778" height="7.27778" fill="#F7F7F7"/>
<rect x="43.666" width="7.27778" height="7.27778" fill="#E6E6E6"/>
<rect x="50.9434" y="7.27734" width="7.27778" height="7.27778" fill="#E6E6E6"/>
<rect x="50.9434" width="7.27778" height="7.27778" fill="#F7F7F7"/>
<rect x="43.666" y="7.27734" width="7.27778" height="7.27778" fill="#F7F7F7"/>
<rect x="29.1113" y="14.5566" width="7.27778" height="7.27778" fill="#E6E6E6"/>
<rect x="36.3887" y="21.834" width="7.27778" height="7.27778" fill="#E6E6E6"/>
<rect x="36.3887" y="14.5566" width="7.27778" height="7.27778" fill="#F7F7F7"/>
<rect x="29.1113" y="21.834" width="7.27778" height="7.27778" fill="#F7F7F7"/>
<rect x="43.666" y="14.5566" width="7.27778" height="7.27778" fill="#E6E6E6"/>
<rect x="50.9434" y="21.834" width="7.27778" height="7.27778" fill="#E6E6E6"/>
<rect x="50.9434" y="14.5566" width="7.27778" height="7.27778" fill="#F7F7F7"/>
<rect x="43.666" y="21.834" width="7.27778" height="7.27778" fill="#F7F7F7"/>
<rect width="7.27778" height="7.27778" fill="#E6E6E6"/>
<rect x="7.27734" y="7.27734" width="7.27778" height="7.27778" fill="#E6E6E6"/>
<rect x="7.27734" width="7.27778" height="7.27778" fill="#F7F7F7"/>
<rect y="7.27734" width="7.27778" height="7.27778" fill="#F7F7F7"/>
<rect x="14.5547" width="7.27778" height="7.27778" fill="#E6E6E6"/>
<rect x="21.832" y="7.27734" width="7.27778" height="7.27778" fill="#E6E6E6"/>
<rect x="21.832" width="7.27778" height="7.27778" fill="#F7F7F7"/>
<rect x="14.5547" y="7.27734" width="7.27778" height="7.27778" fill="#F7F7F7"/>
<rect y="14.5566" width="7.27778" height="7.27778" fill="#E6E6E6"/>
<rect x="7.27734" y="21.834" width="7.27778" height="7.27778" fill="#E6E6E6"/>
<rect x="7.27734" y="14.5566" width="7.27778" height="7.27778" fill="#F7F7F7"/>
<rect y="21.834" width="7.27778" height="7.27778" fill="#F7F7F7"/>
<rect x="14.5547" y="14.5566" width="7.27778" height="7.27778" fill="#E6E6E6"/>
<rect x="21.832" y="21.834" width="7.27778" height="7.27778" fill="#E6E6E6"/>
<rect x="21.832" y="14.5566" width="7.27778" height="7.27778" fill="#F7F7F7"/>
<rect x="14.5547" y="21.834" width="7.27778" height="7.27778" fill="#F7F7F7"/>
<rect x="29.1113" y="58.2227" width="7.27778" height="7.27778" fill="#E6E6E6"/>
<rect x="36.3887" y="65.5" width="7.27778" height="7.27778" fill="#E6E6E6"/>
<rect x="36.3887" y="58.2227" width="7.27778" height="7.27778" fill="#F7F7F7"/>
<rect x="29.1113" y="65.5" width="7.27778" height="7.27778" fill="#F7F7F7"/>
<rect x="43.666" y="58.2227" width="7.27778" height="7.27778" fill="#E6E6E6"/>
<rect x="50.9434" y="65.5" width="7.27778" height="7.27778" fill="#E6E6E6"/>
<rect x="50.9434" y="58.2227" width="7.27778" height="7.27778" fill="#F7F7F7"/>
<rect x="43.666" y="65.5" width="7.27778" height="7.27778" fill="#F7F7F7"/>
<rect x="29.1113" y="72.7754" width="7.27778" height="7.27778" fill="#E6E6E6"/>
<rect x="36.3887" y="80.0527" width="7.27778" height="7.27778" fill="#E6E6E6"/>
<rect x="36.3887" y="72.7754" width="7.27778" height="7.27778" fill="#F7F7F7"/>
<rect x="29.1113" y="80.0527" width="7.27778" height="7.27778" fill="#F7F7F7"/>
<rect x="43.666" y="72.7754" width="7.27778" height="7.27778" fill="#E6E6E6"/>
<rect x="50.9434" y="80.0527" width="7.27778" height="7.27778" fill="#E6E6E6"/>
<rect x="50.9434" y="72.7754" width="7.27778" height="7.27778" fill="#F7F7F7"/>
<rect x="43.666" y="80.0527" width="7.27778" height="7.27778" fill="#F7F7F7"/>
<rect x="29.1113" y="29.1094" width="7.27778" height="7.27778" fill="#E6E6E6"/>
<rect x="36.3887" y="36.3867" width="7.27778" height="7.27778" fill="#E6E6E6"/>
<rect x="36.3887" y="29.1094" width="7.27778" height="7.27778" fill="#F7F7F7"/>
<rect x="29.1113" y="36.3867" width="7.27778" height="7.27778" fill="#F7F7F7"/>
<rect x="43.666" y="29.1094" width="7.27778" height="7.27778" fill="#E6E6E6"/>
<rect x="50.9434" y="36.3867" width="7.27778" height="7.27778" fill="#E6E6E6"/>
<rect x="50.9434" y="29.1094" width="7.27778" height="7.27778" fill="#F7F7F7"/>
<rect x="43.666" y="36.3867" width="7.27778" height="7.27778" fill="#F7F7F7"/>
<rect x="29.1113" y="43.666" width="7.27778" height="7.27778" fill="#E6E6E6"/>
<rect x="36.3887" y="50.9434" width="7.27778" height="7.27778" fill="#E6E6E6"/>
<rect x="36.3887" y="43.666" width="7.27778" height="7.27778" fill="#F7F7F7"/>
<rect x="29.1113" y="50.9434" width="7.27778" height="7.27778" fill="#F7F7F7"/>
<rect x="43.666" y="43.666" width="7.27778" height="7.27778" fill="#E6E6E6"/>
<rect x="50.9434" y="50.9434" width="7.27778" height="7.27778" fill="#E6E6E6"/>
<rect x="50.9434" y="43.666" width="7.27778" height="7.27778" fill="#F7F7F7"/>
<rect x="43.666" y="50.9434" width="7.27778" height="7.27778" fill="#F7F7F7"/>
<rect y="58.2227" width="7.27778" height="7.27778" fill="#E6E6E6"/>
<rect x="7.27734" y="65.5" width="7.27778" height="7.27778" fill="#E6E6E6"/>
<rect x="7.27734" y="58.2227" width="7.27778" height="7.27778" fill="#F7F7F7"/>
<rect y="65.5" width="7.27778" height="7.27778" fill="#F7F7F7"/>
<rect x="14.5547" y="58.2227" width="7.27778" height="7.27778" fill="#E6E6E6"/>
<rect x="21.832" y="65.5" width="7.27778" height="7.27778" fill="#E6E6E6"/>
<rect x="21.832" y="58.2227" width="7.27778" height="7.27778" fill="#F7F7F7"/>
<rect x="14.5547" y="65.5" width="7.27778" height="7.27778" fill="#F7F7F7"/>
<rect y="72.7754" width="7.27778" height="7.27778" fill="#E6E6E6"/>
<rect x="7.27734" y="80.0527" width="7.27778" height="7.27778" fill="#E6E6E6"/>
<rect x="7.27734" y="72.7754" width="7.27778" height="7.27778" fill="#F7F7F7"/>
<rect y="80.0527" width="7.27778" height="7.27778" fill="#F7F7F7"/>
<rect x="14.5547" y="72.7754" width="7.27778" height="7.27778" fill="#E6E6E6"/>
<rect x="21.832" y="80.0527" width="7.27778" height="7.27778" fill="#E6E6E6"/>
<rect x="21.832" y="72.7754" width="7.27778" height="7.27778" fill="#F7F7F7"/>
<rect x="14.5547" y="80.0527" width="7.27778" height="7.27778" fill="#F7F7F7"/>
<rect x="58.2207" y="29.1094" width="7.27778" height="7.27778" fill="#E6E6E6"/>
<rect x="65.498" y="36.3867" width="7.27778" height="7.27778" fill="#E6E6E6"/>
<rect x="65.498" y="29.1094" width="7.27778" height="7.27778" fill="#F7F7F7"/>
<rect x="58.2207" y="36.3867" width="7.27778" height="7.27778" fill="#F7F7F7"/>
<rect x="72.7773" y="29.1094" width="7.27778" height="7.27778" fill="#E6E6E6"/>
<rect x="80.0547" y="36.3867" width="7.27778" height="7.27778" fill="#E6E6E6"/>
<rect x="80.0547" y="29.1094" width="7.27778" height="7.27778" fill="#F7F7F7"/>
<rect x="72.7773" y="36.3867" width="7.27778" height="7.27778" fill="#F7F7F7"/>
<rect x="58.2207" y="43.666" width="7.27778" height="7.27778" fill="#E6E6E6"/>
<rect x="65.498" y="50.9434" width="7.27778" height="7.27778" fill="#E6E6E6"/>
<rect x="65.498" y="43.666" width="7.27778" height="7.27778" fill="#F7F7F7"/>
<rect x="58.2207" y="50.9434" width="7.27778" height="7.27778" fill="#F7F7F7"/>
<rect x="72.7773" y="43.666" width="7.27778" height="7.27778" fill="#E6E6E6"/>
<rect x="80.0547" y="50.9434" width="7.27778" height="7.27778" fill="#E6E6E6"/>
<rect x="80.0547" y="43.666" width="7.27778" height="7.27778" fill="#F7F7F7"/>
<rect x="72.7773" y="50.9434" width="7.27778" height="7.27778" fill="#F7F7F7"/>
<rect x="87.332" width="7.27778" height="7.27778" fill="#E6E6E6"/>
<rect x="94.6094" y="7.27734" width="7.27778" height="7.27778" fill="#E6E6E6"/>
<rect x="94.6094" width="7.27778" height="7.27778" fill="#F7F7F7"/>
<rect x="87.332" y="7.27734" width="7.27778" height="7.27778" fill="#F7F7F7"/>
<rect x="101.887" width="7.27778" height="7.27778" fill="#E6E6E6"/>
<rect x="109.164" y="7.27734" width="7.27778" height="7.27778" fill="#E6E6E6"/>
<rect x="109.164" width="7.27778" height="7.27778" fill="#F7F7F7"/>
<rect x="101.887" y="7.27734" width="7.27778" height="7.27778" fill="#F7F7F7"/>
<rect x="87.332" y="14.5566" width="7.27778" height="7.27778" fill="#E6E6E6"/>
<rect x="94.6094" y="21.834" width="7.27778" height="7.27778" fill="#E6E6E6"/>
<rect x="94.6094" y="14.5566" width="7.27778" height="7.27778" fill="#F7F7F7"/>
<rect x="87.332" y="21.834" width="7.27778" height="7.27778" fill="#F7F7F7"/>
<rect x="101.887" y="14.5566" width="7.27778" height="7.27778" fill="#E6E6E6"/>
<rect x="109.164" y="21.834" width="7.27778" height="7.27778" fill="#E6E6E6"/>
<rect x="109.164" y="14.5566" width="7.27778" height="7.27778" fill="#F7F7F7"/>
<rect x="101.887" y="21.834" width="7.27778" height="7.27778" fill="#F7F7F7"/>
<rect x="58.2207" width="7.27778" height="7.27778" fill="#E6E6E6"/>
<rect x="65.498" y="7.27734" width="7.27778" height="7.27778" fill="#E6E6E6"/>
<rect x="65.498" width="7.27778" height="7.27778" fill="#F7F7F7"/>
<rect x="58.2207" y="7.27734" width="7.27778" height="7.27778" fill="#F7F7F7"/>
<rect x="72.7773" width="7.27778" height="7.27778" fill="#E6E6E6"/>
<rect x="80.0547" y="7.27734" width="7.27778" height="7.27778" fill="#E6E6E6"/>
<rect x="80.0547" width="7.27778" height="7.27778" fill="#F7F7F7"/>
<rect x="72.7773" y="7.27734" width="7.27778" height="7.27778" fill="#F7F7F7"/>
<rect x="58.2207" y="14.5566" width="7.27778" height="7.27778" fill="#E6E6E6"/>
<rect x="65.498" y="21.834" width="7.27778" height="7.27778" fill="#E6E6E6"/>
<rect x="65.498" y="14.5566" width="7.27778" height="7.27778" fill="#F7F7F7"/>
<rect x="58.2207" y="21.834" width="7.27778" height="7.27778" fill="#F7F7F7"/>
<rect x="72.7773" y="14.5566" width="7.27778" height="7.27778" fill="#E6E6E6"/>
<rect x="80.0547" y="21.834" width="7.27778" height="7.27778" fill="#E6E6E6"/>
<rect x="80.0547" y="14.5566" width="7.27778" height="7.27778" fill="#F7F7F7"/>
<rect x="72.7773" y="21.834" width="7.27778" height="7.27778" fill="#F7F7F7"/>
<rect x="87.332" y="58.2227" width="7.27778" height="7.27778" fill="#E6E6E6"/>
<rect x="94.6094" y="65.5" width="7.27778" height="7.27778" fill="#E6E6E6"/>
<rect x="94.6094" y="58.2227" width="7.27778" height="7.27778" fill="#F7F7F7"/>
<rect x="87.332" y="65.5" width="7.27778" height="7.27778" fill="#F7F7F7"/>
<rect x="101.887" y="58.2227" width="7.27778" height="7.27778" fill="#E6E6E6"/>
<rect x="109.164" y="65.5" width="7.27778" height="7.27778" fill="#E6E6E6"/>
<rect x="109.164" y="58.2227" width="7.27778" height="7.27778" fill="#F7F7F7"/>
<rect x="101.887" y="65.5" width="7.27778" height="7.27778" fill="#F7F7F7"/>
<rect x="87.332" y="72.7754" width="7.27778" height="7.27778" fill="#E6E6E6"/>
<rect x="94.6094" y="80.0527" width="7.27778" height="7.27778" fill="#E6E6E6"/>
<rect x="94.6094" y="72.7754" width="7.27778" height="7.27778" fill="#F7F7F7"/>
<rect x="87.332" y="80.0527" width="7.27778" height="7.27778" fill="#F7F7F7"/>
<rect x="101.887" y="72.7754" width="7.27778" height="7.27778" fill="#E6E6E6"/>
<rect x="109.164" y="80.0527" width="7.27778" height="7.27778" fill="#E6E6E6"/>
<rect x="109.164" y="72.7754" width="7.27778" height="7.27778" fill="#F7F7F7"/>
<rect x="101.887" y="80.0527" width="7.27778" height="7.27778" fill="#F7F7F7"/>
<rect x="87.332" y="29.1094" width="7.27778" height="7.27778" fill="#E6E6E6"/>
<rect x="94.6094" y="36.3867" width="7.27778" height="7.27778" fill="#E6E6E6"/>
<rect x="94.6094" y="29.1094" width="7.27778" height="7.27778" fill="#F7F7F7"/>
<rect x="87.332" y="36.3867" width="7.27778" height="7.27778" fill="#F7F7F7"/>
<rect x="101.887" y="29.1094" width="7.27778" height="7.27778" fill="#E6E6E6"/>
<rect x="109.164" y="36.3867" width="7.27778" height="7.27778" fill="#E6E6E6"/>
<rect x="109.164" y="29.1094" width="7.27778" height="7.27778" fill="#F7F7F7"/>
<rect x="101.887" y="36.3867" width="7.27778" height="7.27778" fill="#F7F7F7"/>
<rect x="87.332" y="43.666" width="7.27778" height="7.27778" fill="#E6E6E6"/>
<rect x="94.6094" y="50.9434" width="7.27778" height="7.27778" fill="#E6E6E6"/>
<rect x="94.6094" y="43.666" width="7.27778" height="7.27778" fill="#F7F7F7"/>
<rect x="87.332" y="50.9434" width="7.27778" height="7.27778" fill="#F7F7F7"/>
<rect x="101.887" y="43.666" width="7.27778" height="7.27778" fill="#E6E6E6"/>
<rect x="109.164" y="50.9434" width="7.27778" height="7.27778" fill="#E6E6E6"/>
<rect x="109.164" y="43.666" width="7.27778" height="7.27778" fill="#F7F7F7"/>
<rect x="101.887" y="50.9434" width="7.27778" height="7.27778" fill="#F7F7F7"/>
<rect x="58.2207" y="58.2227" width="7.27778" height="7.27778" fill="#E6E6E6"/>
<rect x="65.498" y="65.5" width="7.27778" height="7.27778" fill="#E6E6E6"/>
<rect x="65.498" y="58.2227" width="7.27778" height="7.27778" fill="#F7F7F7"/>
<rect x="58.2207" y="65.5" width="7.27778" height="7.27778" fill="#F7F7F7"/>
<rect x="72.7773" y="58.2227" width="7.27778" height="7.27778" fill="#E6E6E6"/>
<rect x="80.0547" y="65.5" width="7.27778" height="7.27778" fill="#E6E6E6"/>
<rect x="80.0547" y="58.2227" width="7.27778" height="7.27778" fill="#F7F7F7"/>
<rect x="72.7773" y="65.5" width="7.27778" height="7.27778" fill="#F7F7F7"/>
<rect x="58.2207" y="72.7754" width="7.27778" height="7.27778" fill="#E6E6E6"/>
<rect x="65.498" y="80.0527" width="7.27778" height="7.27778" fill="#E6E6E6"/>
<rect x="65.498" y="72.7754" width="7.27778" height="7.27778" fill="#F7F7F7"/>
<rect x="58.2207" y="80.0527" width="7.27778" height="7.27778" fill="#F7F7F7"/>
<rect x="72.7773" y="72.7754" width="7.27778" height="7.27778" fill="#E6E6E6"/>
<rect x="80.0547" y="80.0527" width="7.27778" height="7.27778" fill="#E6E6E6"/>
<rect x="80.0547" y="72.7754" width="7.27778" height="7.27778" fill="#F7F7F7"/>
<rect x="72.7773" y="80.0527" width="7.27778" height="7.27778" fill="#F7F7F7"/>
<rect y="116.441" width="7.27778" height="7.27778" fill="#E6E6E6"/>
<rect x="7.27734" y="123.719" width="7.27778" height="7.27778" fill="#E6E6E6"/>
<rect x="7.27734" y="116.441" width="7.27778" height="7.27778" fill="#F7F7F7"/>
<rect y="123.719" width="7.27778" height="7.27778" fill="#F7F7F7"/>
<rect x="14.5547" y="116.441" width="7.27778" height="7.27778" fill="#E6E6E6"/>
<rect x="21.832" y="123.719" width="7.27778" height="7.27778" fill="#E6E6E6"/>
<rect x="21.832" y="116.441" width="7.27778" height="7.27778" fill="#F7F7F7"/>
<rect x="14.5547" y="123.719" width="7.27778" height="7.27778" fill="#F7F7F7"/>
<rect x="29.1113" y="87.332" width="7.27778" height="7.27778" fill="#E6E6E6"/>
<rect x="36.3887" y="94.6094" width="7.27778" height="7.27778" fill="#E6E6E6"/>
<rect x="36.3887" y="87.332" width="7.27778" height="7.27778" fill="#F7F7F7"/>
<rect x="29.1113" y="94.6094" width="7.27778" height="7.27778" fill="#F7F7F7"/>
<rect x="43.666" y="87.332" width="7.27778" height="7.27778" fill="#E6E6E6"/>
<rect x="50.9434" y="94.6094" width="7.27778" height="7.27778" fill="#E6E6E6"/>
<rect x="50.9434" y="87.332" width="7.27778" height="7.27778" fill="#F7F7F7"/>
<rect x="43.666" y="94.6094" width="7.27778" height="7.27778" fill="#F7F7F7"/>
<rect x="29.1113" y="101.889" width="7.27778" height="7.27778" fill="#E6E6E6"/>
<rect x="36.3887" y="109.166" width="7.27778" height="7.27778" fill="#E6E6E6"/>
<rect x="36.3887" y="101.889" width="7.27778" height="7.27778" fill="#F7F7F7"/>
<rect x="29.1113" y="109.166" width="7.27778" height="7.27778" fill="#F7F7F7"/>
<rect x="43.666" y="101.889" width="7.27778" height="7.27778" fill="#E6E6E6"/>
<rect x="50.9434" y="109.166" width="7.27778" height="7.27778" fill="#E6E6E6"/>
<rect x="50.9434" y="101.889" width="7.27778" height="7.27778" fill="#F7F7F7"/>
<rect x="43.666" y="109.166" width="7.27778" height="7.27778" fill="#F7F7F7"/>
<rect y="87.332" width="7.27778" height="7.27778" fill="#E6E6E6"/>
<rect x="7.27734" y="94.6094" width="7.27778" height="7.27778" fill="#E6E6E6"/>
<rect x="7.27734" y="87.332" width="7.27778" height="7.27778" fill="#F7F7F7"/>
<rect y="94.6094" width="7.27778" height="7.27778" fill="#F7F7F7"/>
<rect x="14.5547" y="87.332" width="7.27778" height="7.27778" fill="#E6E6E6"/>
<rect x="21.832" y="94.6094" width="7.27778" height="7.27778" fill="#E6E6E6"/>
<rect x="21.832" y="87.332" width="7.27778" height="7.27778" fill="#F7F7F7"/>
<rect x="14.5547" y="94.6094" width="7.27778" height="7.27778" fill="#F7F7F7"/>
<rect y="101.889" width="7.27778" height="7.27778" fill="#E6E6E6"/>
<rect x="7.27734" y="109.166" width="7.27778" height="7.27778" fill="#E6E6E6"/>
<rect x="7.27734" y="101.889" width="7.27778" height="7.27778" fill="#F7F7F7"/>
<rect y="109.166" width="7.27778" height="7.27778" fill="#F7F7F7"/>
<rect x="14.5547" y="101.889" width="7.27778" height="7.27778" fill="#E6E6E6"/>
<rect x="21.832" y="109.166" width="7.27778" height="7.27778" fill="#E6E6E6"/>
<rect x="21.832" y="101.889" width="7.27778" height="7.27778" fill="#F7F7F7"/>
<rect x="14.5547" y="109.166" width="7.27778" height="7.27778" fill="#F7F7F7"/>
<rect x="29.1113" y="116.441" width="7.27778" height="7.27778" fill="#E6E6E6"/>
<rect x="36.3887" y="123.719" width="7.27778" height="7.27778" fill="#E6E6E6"/>
<rect x="36.3887" y="116.441" width="7.27778" height="7.27778" fill="#F7F7F7"/>
<rect x="29.1113" y="123.719" width="7.27778" height="7.27778" fill="#F7F7F7"/>
<rect x="43.666" y="116.441" width="7.27778" height="7.27778" fill="#E6E6E6"/>
<rect x="50.9434" y="123.719" width="7.27778" height="7.27778" fill="#E6E6E6"/>
<rect x="50.9434" y="116.441" width="7.27778" height="7.27778" fill="#F7F7F7"/>
<rect x="43.666" y="123.719" width="7.27778" height="7.27778" fill="#F7F7F7"/>
<rect x="58.2207" y="116.441" width="7.27778" height="7.27778" fill="#E6E6E6"/>
<rect x="65.498" y="123.719" width="7.27778" height="7.27778" fill="#E6E6E6"/>
<rect x="65.498" y="116.441" width="7.27778" height="7.27778" fill="#F7F7F7"/>
<rect x="58.2207" y="123.719" width="7.27778" height="7.27778" fill="#F7F7F7"/>
<rect x="72.7773" y="116.441" width="7.27778" height="7.27778" fill="#E6E6E6"/>
<rect x="80.0547" y="123.719" width="7.27778" height="7.27778" fill="#E6E6E6"/>
<rect x="80.0547" y="116.441" width="7.27778" height="7.27778" fill="#F7F7F7"/>
<rect x="72.7773" y="123.719" width="7.27778" height="7.27778" fill="#F7F7F7"/>
<rect x="87.332" y="87.332" width="7.27778" height="7.27778" fill="#E6E6E6"/>
<rect x="94.6094" y="94.6094" width="7.27778" height="7.27778" fill="#E6E6E6"/>
<rect x="94.6094" y="87.332" width="7.27778" height="7.27778" fill="#F7F7F7"/>
<rect x="87.332" y="94.6094" width="7.27778" height="7.27778" fill="#F7F7F7"/>
<rect x="101.887" y="87.332" width="7.27778" height="7.27778" fill="#E6E6E6"/>
<rect x="109.164" y="94.6094" width="7.27778" height="7.27778" fill="#E6E6E6"/>
<rect x="109.164" y="87.332" width="7.27778" height="7.27778" fill="#F7F7F7"/>
<rect x="101.887" y="94.6094" width="7.27778" height="7.27778" fill="#F7F7F7"/>
<rect x="87.332" y="101.889" width="7.27778" height="7.27778" fill="#E6E6E6"/>
<rect x="94.6094" y="109.166" width="7.27778" height="7.27778" fill="#E6E6E6"/>
<rect x="94.6094" y="101.889" width="7.27778" height="7.27778" fill="#F7F7F7"/>
<rect x="87.332" y="109.166" width="7.27778" height="7.27778" fill="#F7F7F7"/>
<rect x="101.887" y="101.889" width="7.27778" height="7.27778" fill="#E6E6E6"/>
<rect x="109.164" y="109.166" width="7.27778" height="7.27778" fill="#E6E6E6"/>
<rect x="109.164" y="101.889" width="7.27778" height="7.27778" fill="#F7F7F7"/>
<rect x="101.887" y="109.166" width="7.27778" height="7.27778" fill="#F7F7F7"/>
<rect x="58.2207" y="87.332" width="7.27778" height="7.27778" fill="#E6E6E6"/>
<rect x="65.498" y="94.6094" width="7.27778" height="7.27778" fill="#E6E6E6"/>
<rect x="65.498" y="87.332" width="7.27778" height="7.27778" fill="#F7F7F7"/>
<rect x="58.2207" y="94.6094" width="7.27778" height="7.27778" fill="#F7F7F7"/>
<rect x="72.7773" y="87.332" width="7.27778" height="7.27778" fill="#E6E6E6"/>
<rect x="80.0547" y="94.6094" width="7.27778" height="7.27778" fill="#E6E6E6"/>
<rect x="80.0547" y="87.332" width="7.27778" height="7.27778" fill="#F7F7F7"/>
<rect x="72.7773" y="94.6094" width="7.27778" height="7.27778" fill="#F7F7F7"/>
<rect x="58.2207" y="101.889" width="7.27778" height="7.27778" fill="#E6E6E6"/>
<rect x="65.498" y="109.166" width="7.27778" height="7.27778" fill="#E6E6E6"/>
<rect x="65.498" y="101.889" width="7.27778" height="7.27778" fill="#F7F7F7"/>
<rect x="58.2207" y="109.166" width="7.27778" height="7.27778" fill="#F7F7F7"/>
<rect x="72.7773" y="101.889" width="7.27778" height="7.27778" fill="#E6E6E6"/>
<rect x="80.0547" y="109.166" width="7.27778" height="7.27778" fill="#E6E6E6"/>
<rect x="80.0547" y="101.889" width="7.27778" height="7.27778" fill="#F7F7F7"/>
<rect x="72.7773" y="109.166" width="7.27778" height="7.27778" fill="#F7F7F7"/>
<rect x="87.332" y="116.441" width="7.27778" height="7.27778" fill="#E6E6E6"/>
<rect x="94.6094" y="123.719" width="7.27778" height="7.27778" fill="#E6E6E6"/>
<rect x="94.6094" y="116.441" width="7.27778" height="7.27778" fill="#F7F7F7"/>
<rect x="87.332" y="123.719" width="7.27778" height="7.27778" fill="#F7F7F7"/>
<rect x="101.887" y="116.441" width="7.27778" height="7.27778" fill="#E6E6E6"/>
<rect x="109.164" y="123.719" width="7.27778" height="7.27778" fill="#E6E6E6"/>
<rect x="109.164" y="116.441" width="7.27778" height="7.27778" fill="#F7F7F7"/>
<rect x="101.887" y="123.719" width="7.27778" height="7.27778" fill="#F7F7F7"/>
<rect x="116.443" y="29.1094" width="7.27778" height="7.27778" fill="#E6E6E6"/>
<rect x="123.721" y="36.3867" width="7.27778" height="7.27778" fill="#E6E6E6"/>
<rect x="123.721" y="29.1094" width="7.27778" height="7.27778" fill="#F7F7F7"/>
<rect x="116.443" y="36.3867" width="7.27778" height="7.27778" fill="#F7F7F7"/>
<rect x="130.998" y="29.1094" width="7.27778" height="7.27778" fill="#E6E6E6"/>
<rect x="138.275" y="36.3867" width="7.27778" height="7.27778" fill="#E6E6E6"/>
<rect x="138.275" y="29.1094" width="7.27778" height="7.27778" fill="#F7F7F7"/>
<rect x="130.998" y="36.3867" width="7.27778" height="7.27778" fill="#F7F7F7"/>
<rect x="116.443" y="43.666" width="7.27778" height="7.27778" fill="#E6E6E6"/>
<rect x="123.721" y="50.9434" width="7.27778" height="7.27778" fill="#E6E6E6"/>
<rect x="123.721" y="43.666" width="7.27778" height="7.27778" fill="#F7F7F7"/>
<rect x="116.443" y="50.9434" width="7.27778" height="7.27778" fill="#F7F7F7"/>
<rect x="130.998" y="43.666" width="7.27778" height="7.27778" fill="#E6E6E6"/>
<rect x="138.275" y="50.9434" width="7.27778" height="7.27778" fill="#E6E6E6"/>
<rect x="138.275" y="43.666" width="7.27778" height="7.27778" fill="#F7F7F7"/>
<rect x="130.998" y="50.9434" width="7.27778" height="7.27778" fill="#F7F7F7"/>
<rect x="145.553" width="7.27778" height="7.27778" fill="#E6E6E6"/>
<rect x="152.83" y="7.27734" width="7.27778" height="7.27778" fill="#E6E6E6"/>
<rect x="152.83" width="7.27778" height="7.27778" fill="#F7F7F7"/>
<rect x="145.553" y="7.27734" width="7.27778" height="7.27778" fill="#F7F7F7"/>
<rect x="160.109" width="7.27778" height="7.27778" fill="#E6E6E6"/>
<rect x="167.387" y="7.27734" width="7.27778" height="7.27778" fill="#E6E6E6"/>
<rect x="167.387" width="7.27778" height="7.27778" fill="#F7F7F7"/>
<rect x="160.109" y="7.27734" width="7.27778" height="7.27778" fill="#F7F7F7"/>
<rect x="145.553" y="14.5566" width="7.27778" height="7.27778" fill="#E6E6E6"/>
<rect x="152.83" y="21.834" width="7.27778" height="7.27778" fill="#E6E6E6"/>
<rect x="152.83" y="14.5566" width="7.27778" height="7.27778" fill="#F7F7F7"/>
<rect x="145.553" y="21.834" width="7.27778" height="7.27778" fill="#F7F7F7"/>
<rect x="160.109" y="14.5566" width="7.27778" height="7.27778" fill="#E6E6E6"/>
<rect x="167.387" y="21.834" width="7.27778" height="7.27778" fill="#E6E6E6"/>
<rect x="167.387" y="14.5566" width="7.27778" height="7.27778" fill="#F7F7F7"/>
<rect x="160.109" y="21.834" width="7.27778" height="7.27778" fill="#F7F7F7"/>
<rect x="116.443" width="7.27778" height="7.27778" fill="#E6E6E6"/>
<rect x="123.721" y="7.27734" width="7.27778" height="7.27778" fill="#E6E6E6"/>
<rect x="123.721" width="7.27778" height="7.27778" fill="#F7F7F7"/>
<rect x="116.443" y="7.27734" width="7.27778" height="7.27778" fill="#F7F7F7"/>
<rect x="130.998" width="7.27778" height="7.27778" fill="#E6E6E6"/>
<rect x="138.275" y="7.27734" width="7.27778" height="7.27778" fill="#E6E6E6"/>
<rect x="138.275" width="7.27778" height="7.27778" fill="#F7F7F7"/>
<rect x="130.998" y="7.27734" width="7.27778" height="7.27778" fill="#F7F7F7"/>
<rect x="116.443" y="14.5566" width="7.27778" height="7.27778" fill="#E6E6E6"/>
<rect x="123.721" y="21.834" width="7.27778" height="7.27778" fill="#E6E6E6"/>
<rect x="123.721" y="14.5566" width="7.27778" height="7.27778" fill="#F7F7F7"/>
<rect x="116.443" y="21.834" width="7.27778" height="7.27778" fill="#F7F7F7"/>
<rect x="130.998" y="14.5566" width="7.27778" height="7.27778" fill="#E6E6E6"/>
<rect x="138.275" y="21.834" width="7.27778" height="7.27778" fill="#E6E6E6"/>
<rect x="138.275" y="14.5566" width="7.27778" height="7.27778" fill="#F7F7F7"/>
<rect x="130.998" y="21.834" width="7.27778" height="7.27778" fill="#F7F7F7"/>
<rect x="145.553" y="58.2227" width="7.27778" height="7.27778" fill="#E6E6E6"/>
<rect x="152.83" y="65.5" width="7.27778" height="7.27778" fill="#E6E6E6"/>
<rect x="152.83" y="58.2227" width="7.27778" height="7.27778" fill="#F7F7F7"/>
<rect x="145.553" y="65.5" width="7.27778" height="7.27778" fill="#F7F7F7"/>
<rect x="160.109" y="58.2227" width="7.27778" height="7.27778" fill="#E6E6E6"/>
<rect x="167.387" y="65.5" width="7.27778" height="7.27778" fill="#E6E6E6"/>
<rect x="167.387" y="58.2227" width="7.27778" height="7.27778" fill="#F7F7F7"/>
<rect x="160.109" y="65.5" width="7.27778" height="7.27778" fill="#F7F7F7"/>
<rect x="145.553" y="72.7754" width="7.27778" height="7.27778" fill="#E6E6E6"/>
<rect x="152.83" y="80.0527" width="7.27778" height="7.27778" fill="#E6E6E6"/>
<rect x="152.83" y="72.7754" width="7.27778" height="7.27778" fill="#F7F7F7"/>
<rect x="145.553" y="80.0527" width="7.27778" height="7.27778" fill="#F7F7F7"/>
<rect x="160.109" y="72.7754" width="7.27778" height="7.27778" fill="#E6E6E6"/>
<rect x="167.387" y="80.0527" width="7.27778" height="7.27778" fill="#E6E6E6"/>
<rect x="167.387" y="72.7754" width="7.27778" height="7.27778" fill="#F7F7F7"/>
<rect x="160.109" y="80.0527" width="7.27778" height="7.27778" fill="#F7F7F7"/>
<rect x="145.553" y="29.1094" width="7.27778" height="7.27778" fill="#E6E6E6"/>
<rect x="152.83" y="36.3867" width="7.27778" height="7.27778" fill="#E6E6E6"/>
<rect x="152.83" y="29.1094" width="7.27778" height="7.27778" fill="#F7F7F7"/>
<rect x="145.553" y="36.3867" width="7.27778" height="7.27778" fill="#F7F7F7"/>
<rect x="160.109" y="29.1094" width="7.27778" height="7.27778" fill="#E6E6E6"/>
<rect x="167.387" y="36.3867" width="7.27778" height="7.27778" fill="#E6E6E6"/>
<rect x="167.387" y="29.1094" width="7.27778" height="7.27778" fill="#F7F7F7"/>
<rect x="160.109" y="36.3867" width="7.27778" height="7.27778" fill="#F7F7F7"/>
<rect x="145.553" y="43.666" width="7.27778" height="7.27778" fill="#E6E6E6"/>
<rect x="152.83" y="50.9434" width="7.27778" height="7.27778" fill="#E6E6E6"/>
<rect x="152.83" y="43.666" width="7.27778" height="7.27778" fill="#F7F7F7"/>
<rect x="145.553" y="50.9434" width="7.27778" height="7.27778" fill="#F7F7F7"/>
<rect x="160.109" y="43.666" width="7.27778" height="7.27778" fill="#E6E6E6"/>
<rect x="167.387" y="50.9434" width="7.27778" height="7.27778" fill="#E6E6E6"/>
<rect x="167.387" y="43.666" width="7.27778" height="7.27778" fill="#F7F7F7"/>
<rect x="160.109" y="50.9434" width="7.27778" height="7.27778" fill="#F7F7F7"/>
<rect x="116.443" y="58.2227" width="7.27778" height="7.27778" fill="#E6E6E6"/>
<rect x="123.721" y="65.5" width="7.27778" height="7.27778" fill="#E6E6E6"/>
<rect x="123.721" y="58.2227" width="7.27778" height="7.27778" fill="#F7F7F7"/>
<rect x="116.443" y="65.5" width="7.27778" height="7.27778" fill="#F7F7F7"/>
<rect x="130.998" y="58.2227" width="7.27778" height="7.27778" fill="#E6E6E6"/>
<rect x="138.275" y="65.5" width="7.27778" height="7.27778" fill="#E6E6E6"/>
<rect x="138.275" y="58.2227" width="7.27778" height="7.27778" fill="#F7F7F7"/>
<rect x="130.998" y="65.5" width="7.27778" height="7.27778" fill="#F7F7F7"/>
<rect x="116.443" y="72.7754" width="7.27778" height="7.27778" fill="#E6E6E6"/>
<rect x="123.721" y="80.0527" width="7.27778" height="7.27778" fill="#E6E6E6"/>
<rect x="123.721" y="72.7754" width="7.27778" height="7.27778" fill="#F7F7F7"/>
<rect x="116.443" y="80.0527" width="7.27778" height="7.27778" fill="#F7F7F7"/>
<rect x="130.998" y="72.7754" width="7.27778" height="7.27778" fill="#E6E6E6"/>
<rect x="138.275" y="80.0527" width="7.27778" height="7.27778" fill="#E6E6E6"/>
<rect x="138.275" y="72.7754" width="7.27778" height="7.27778" fill="#F7F7F7"/>
<rect x="130.998" y="80.0527" width="7.27778" height="7.27778" fill="#F7F7F7"/>
<rect x="116.443" y="116.441" width="7.27778" height="7.27778" fill="#E6E6E6"/>
<rect x="123.721" y="123.719" width="7.27778" height="7.27778" fill="#E6E6E6"/>
<rect x="123.721" y="116.441" width="7.27778" height="7.27778" fill="#F7F7F7"/>
<rect x="116.443" y="123.719" width="7.27778" height="7.27778" fill="#F7F7F7"/>
<rect x="130.998" y="116.441" width="7.27778" height="7.27778" fill="#E6E6E6"/>
<rect x="138.275" y="123.719" width="7.27778" height="7.27778" fill="#E6E6E6"/>
<rect x="138.275" y="116.441" width="7.27778" height="7.27778" fill="#F7F7F7"/>
<rect x="130.998" y="123.719" width="7.27778" height="7.27778" fill="#F7F7F7"/>
<rect x="145.553" y="87.332" width="7.27778" height="7.27778" fill="#E6E6E6"/>
<rect x="152.83" y="94.6094" width="7.27778" height="7.27778" fill="#E6E6E6"/>
<rect x="152.83" y="87.332" width="7.27778" height="7.27778" fill="#F7F7F7"/>
<rect x="145.553" y="94.6094" width="7.27778" height="7.27778" fill="#F7F7F7"/>
<rect x="160.109" y="87.332" width="7.27778" height="7.27778" fill="#E6E6E6"/>
<rect x="167.387" y="94.6094" width="7.27778" height="7.27778" fill="#E6E6E6"/>
<rect x="167.387" y="87.332" width="7.27778" height="7.27778" fill="#F7F7F7"/>
<rect x="160.109" y="94.6094" width="7.27778" height="7.27778" fill="#F7F7F7"/>
<rect x="145.553" y="101.889" width="7.27778" height="7.27778" fill="#E6E6E6"/>
<rect x="152.83" y="109.166" width="7.27778" height="7.27778" fill="#E6E6E6"/>
<rect x="152.83" y="101.889" width="7.27778" height="7.27778" fill="#F7F7F7"/>
<rect x="145.553" y="109.166" width="7.27778" height="7.27778" fill="#F7F7F7"/>
<rect x="160.109" y="101.889" width="7.27778" height="7.27778" fill="#E6E6E6"/>
<rect x="167.387" y="109.166" width="7.27778" height="7.27778" fill="#E6E6E6"/>
<rect x="167.387" y="101.889" width="7.27778" height="7.27778" fill="#F7F7F7"/>
<rect x="160.109" y="109.166" width="7.27778" height="7.27778" fill="#F7F7F7"/>
<rect x="116.443" y="87.332" width="7.27778" height="7.27778" fill="#E6E6E6"/>
<rect x="123.721" y="94.6094" width="7.27778" height="7.27778" fill="#E6E6E6"/>
<rect x="123.721" y="87.332" width="7.27778" height="7.27778" fill="#F7F7F7"/>
<rect x="116.443" y="94.6094" width="7.27778" height="7.27778" fill="#F7F7F7"/>
<rect x="130.998" y="87.332" width="7.27778" height="7.27778" fill="#E6E6E6"/>
<rect x="138.275" y="94.6094" width="7.27778" height="7.27778" fill="#E6E6E6"/>
<rect x="138.275" y="87.332" width="7.27778" height="7.27778" fill="#F7F7F7"/>
<rect x="130.998" y="94.6094" width="7.27778" height="7.27778" fill="#F7F7F7"/>
<rect x="116.443" y="101.889" width="7.27778" height="7.27778" fill="#E6E6E6"/>
<rect x="123.721" y="109.166" width="7.27778" height="7.27778" fill="#E6E6E6"/>
<rect x="123.721" y="101.889" width="7.27778" height="7.27778" fill="#F7F7F7"/>
<rect x="116.443" y="109.166" width="7.27778" height="7.27778" fill="#F7F7F7"/>
<rect x="130.998" y="101.889" width="7.27778" height="7.27778" fill="#E6E6E6"/>
<rect x="138.275" y="109.166" width="7.27778" height="7.27778" fill="#E6E6E6"/>
<rect x="138.275" y="101.889" width="7.27778" height="7.27778" fill="#F7F7F7"/>
<rect x="130.998" y="109.166" width="7.27778" height="7.27778" fill="#F7F7F7"/>
<rect x="145.553" y="116.441" width="7.27778" height="7.27778" fill="#E6E6E6"/>
<rect x="152.83" y="123.719" width="7.27778" height="7.27778" fill="#E6E6E6"/>
<rect x="152.83" y="116.441" width="7.27778" height="7.27778" fill="#F7F7F7"/>
<rect x="145.553" y="123.719" width="7.27778" height="7.27778" fill="#F7F7F7"/>
<rect x="160.109" y="116.441" width="7.27778" height="7.27778" fill="#E6E6E6"/>
<rect x="167.387" y="123.719" width="7.27778" height="7.27778" fill="#E6E6E6"/>
<rect x="167.387" y="116.441" width="7.27778" height="7.27778" fill="#F7F7F7"/>
<rect x="160.109" y="123.719" width="7.27778" height="7.27778" fill="#F7F7F7"/>
<rect x="225.5" y="0.5" width="174" height="130" fill="white" stroke="#ABABAB"/>
<rect x="16.5" y="228.5" width="372" height="154" fill="black" stroke="#ABABAB"/>
<path d="M42.8523 58.7142C38.8296 43.0893 37.6028 24.3564 43.7937 22.209C49.9846 20.0616 63.9355 35.0932 67.3305 38.4555" fill="url(#paint0_linear_1060_5016)"/>
<path d="M61.6535 42.893C49.1006 22.493 44.9924 24.3295 44.593 24.4708C42.4248 25.2337 41.8827 31.6758 41.9112 35.3772C41.9397 41.8476 43.138 50.1262 45.1921 58.1224" fill="url(#paint1_radial_1060_5016)"/>
<path d="M132.148 58.7142C136.171 43.0611 137.426 24.3564 131.207 22.209C125.016 20.0616 111.065 35.0932 107.67 38.4555" fill="url(#paint2_linear_1060_5016)"/>
<path d="M113.348 42.893C125.901 22.493 130.009 24.3295 130.408 24.4708C132.576 25.2337 133.119 31.6758 133.09 35.3772C133.062 41.8476 131.863 50.1262 129.809 58.1224" fill="url(#paint3_radial_1060_5016)"/>
<path d="M121.307 99.0903C127.897 93.2136 134.202 88.5232 134.202 72.4181C134.202 38.7098 103.933 27.7188 87.4993 27.7188C71.0666 27.7188 40.7969 38.7099 40.7969 72.4463C40.7969 87.9298 46.731 92.5921 52.9504 98.4124C59.6833 104.741 114.717 104.967 121.307 99.0903Z" fill="url(#paint4_radial_1060_5016)"/>
<path d="M63.1934 34.1608L63.0508 34.4434C63.0508 34.4434 86.388 60.8052 76.2314 72.8137C66.1034 84.8216 87.5004 97.1411 87.5004 97.1411C87.5004 97.1411 108.897 84.7935 98.7413 72.785C88.5848 60.8052 111.922 34.4434 111.922 34.4434L111.608 34.0478C103.277 29.5553 94.2334 27.7188 87.5004 27.7188C80.7104 27.7188 71.6096 29.5836 63.1934 34.1608Z" fill="url(#paint5_radial_1060_5016)"/>
<path d="M45.6754 74.1716C45.6754 52.0198 62.9928 43.2891 58.0286 37.4121C48.4143 44.3628 40.7969 55.5517 40.7969 72.4479C40.7969 87.932 46.731 92.5937 52.9504 98.4145C54.7192 100.053 59.7689 101.296 66.3878 102.116C56.8019 95.3063 45.6754 87.3668 45.6754 74.1716Z" fill="url(#paint6_linear_1060_5016)"/>
<path d="M69.1551 40.0938C69.1268 40.2633 69.0986 40.4611 69.0703 40.6306C69.1268 40.4046 69.1551 40.2068 69.1551 40.0938Z" fill="url(#paint7_radial_1060_5016)"/>
<path d="M129.295 74.1716C129.295 52.0198 111.978 43.2891 116.942 37.4121C126.585 44.3628 134.202 55.5517 134.202 72.4479C134.202 87.932 128.268 92.5937 122.049 98.4145C120.28 100.053 115.23 101.296 108.611 102.116C118.197 95.3063 129.295 87.3668 129.295 74.1716Z" fill="url(#paint8_linear_1060_5016)"/>
<path d="M111.492 80.7535C102.591 80.7535 97.3701 67.502 87.4986 67.502C77.6276 67.502 72.4352 80.7535 63.5055 80.7535C54.6043 80.7535 46.8443 88.2411 52.9496 98.4126C69.7249 114.179 66.5867 104.77 87.4986 115.987C98.5683 110.054 102.819 116.467 122.048 98.4126C128.153 88.2411 120.393 80.7535 111.492 80.7535Z" fill="url(#paint9_linear_1060_5016)"/>
<path d="M102.393 97.82L87.5006 90.9258L72.6083 97.82C69.1563 105.392 87.5006 112.315 87.5006 112.315C87.5006 112.315 105.845 105.42 102.393 97.82Z" fill="url(#paint10_linear_1060_5016)"/>
<path d="M94.3762 100.872C94.3762 104.63 91.2948 107.681 87.5004 107.681C83.706 107.681 80.625 104.63 80.625 100.872C80.625 89.7109 83.706 85.2188 87.5004 85.2188C91.2948 85.2188 94.3762 89.7396 94.3762 100.872Z" fill="url(#paint11_linear_1060_5016)"/>
<path d="M94.3762 100.872C94.3762 89.7396 91.2948 85.2188 87.5004 85.2188C83.706 85.2188 80.625 89.6827 80.625 100.872C80.625 101.154 80.6535 101.409 80.6819 101.663C82.0514 101.154 83.2212 100.504 84.2197 99.7415C86.1598 98.2443 88.8414 98.2443 90.7815 99.7415C91.7801 100.504 92.9783 101.154 94.3193 101.663C94.3478 101.409 94.3762 101.126 94.3762 100.872Z" fill="url(#paint12_linear_1060_5016)"/>
<path d="M86.4453 92.9858C86.4453 90.0472 86.9301 87.6738 87.5008 87.6738C88.0714 87.6738 88.5562 90.0472 88.5562 92.9858C88.5562 101.716 88.0714 105.192 87.5008 105.192C86.9301 105.192 86.4453 101.688 86.4453 92.9858Z" fill="url(#paint13_linear_1060_5016)"/>
<path d="M93.8625 76.3171H81.1098C67.0449 74.1696 63.0508 81.4313 63.0508 86.9974C63.0508 93.6939 66.4458 100.193 72.8934 100.193C81.3095 100.193 87.4719 96.2369 87.4719 90.9249C87.4719 96.2369 93.6343 100.193 102.05 100.193C108.527 100.193 111.893 93.6939 111.893 86.9974C111.922 81.4031 107.956 74.1414 93.8625 76.3171Z" fill="url(#paint14_linear_1060_5016)"/>
<path d="M106.785 73.3792C109.227 73.3792 111.207 70.9504 111.207 67.954C111.207 64.9581 109.227 62.5293 106.785 62.5293C104.343 62.5293 102.363 64.9581 102.363 67.954C102.363 70.9504 104.343 73.3792 106.785 73.3792Z" fill="url(#paint15_radial_1060_5016)"/>
<path d="M68.1857 73.3792C70.628 73.3792 72.6077 70.9504 72.6077 67.954C72.6077 64.9581 70.628 62.5293 68.1857 62.5293C65.7435 62.5293 63.7637 64.9581 63.7637 67.954C63.7637 70.9504 65.7435 73.3792 68.1857 73.3792Z" fill="url(#paint16_radial_1060_5016)"/>
<path d="M105.931 67.7281C106.703 67.7281 107.329 66.9568 107.329 66.0049C107.329 65.0531 106.703 64.2812 105.931 64.2812C105.159 64.2812 104.533 65.0531 104.533 66.0049C104.533 66.9568 105.159 67.7281 105.931 67.7281Z" fill="url(#paint17_linear_1060_5016)"/>
<path d="M67.3296 67.7281C68.1016 67.7281 68.7275 66.9568 68.7275 66.0049C68.7275 65.0531 68.1016 64.2812 67.3296 64.2812C66.5575 64.2812 65.9316 65.0531 65.9316 66.0049C65.9316 66.9568 66.5575 67.7281 67.3296 67.7281Z" fill="url(#paint18_linear_1060_5016)"/>
<path d="M102.648 99.091C92.5492 99.091 90.666 93.9486 90.666 90.6145C90.666 88.8344 97.1424 85.2743 97.1424 81.2905C97.1424 78.1823 88.7833 80.1319 87.4991 87.4499C86.2155 80.1037 77.8564 78.1823 77.8564 81.2905C77.8564 85.2743 84.3323 88.8062 84.3323 90.6145C84.3323 93.9768 82.3927 100.108 72.3502 99.091C64.7043 98.328 63.0781 86.998 63.0781 86.998C63.0781 93.6945 66.4731 100.193 72.9208 100.193C80.5669 100.193 86.3294 96.9436 87.3569 92.3663C87.4138 92.0835 87.4707 91.8012 87.4991 91.4902C87.5566 91.773 87.585 92.0553 87.6419 92.3663C88.6405 96.9436 94.4319 100.193 102.078 100.193C108.554 100.193 111.921 93.6945 111.921 86.998C111.921 85.0765 111.036 99.091 102.648 99.091Z" fill="url(#paint19_radial_1060_5016)"/>
<path d="M96.8293 80.3879C93.2062 76.3759 81.8229 76.3759 78.1713 80.3879C76.2882 82.479 82.9927 89.797 87.5001 89.797C92.0079 89.797 98.7126 82.479 96.8293 80.3879Z" fill="url(#paint20_linear_1060_5016)"/>
<path d="M94.0048 80.0741C91.466 78.5482 83.5062 78.5482 80.967 80.0741C79.6544 80.8653 84.3335 82.6735 87.4719 82.6735C90.6098 82.6735 95.3458 80.8653 94.0048 80.0741Z" fill="url(#paint21_linear_1060_5016)"/>
<path d="M100.31 83.0409C119.853 83.8884 135.829 95.3885 135.829 95.3885C135.829 95.3885 121.422 82.7586 100.082 82.5039L100.31 83.0409Z" fill="url(#paint22_linear_1060_5016)"/>
<path d="M100.052 84.5103C117.626 89.0593 130.15 102.537 130.15 102.537C130.15 102.537 118.738 88.1554 99.9375 84.002L100.052 84.5103Z" fill="url(#paint23_linear_1060_5016)"/>
<path d="M100.109 80.8952C117.883 78.6914 135.999 87.3657 135.999 87.3657C135.999 87.3657 118.825 77.3069 99.8242 80.4714L100.109 80.8952Z" fill="url(#paint24_linear_1060_5016)"/>
<path d="M74.6909 83.0409C55.1483 83.8884 39.1719 95.3885 39.1719 95.3885C39.1719 95.3885 53.5792 82.7586 74.9192 82.5039L74.6909 83.0409Z" fill="url(#paint25_linear_1060_5016)"/>
<path d="M74.9462 84.5103C57.3721 89.0593 44.8477 102.537 44.8477 102.537C44.8477 102.537 56.2594 88.1554 75.0603 84.002L74.9462 84.5103Z" fill="url(#paint26_linear_1060_5016)"/>
<path d="M74.89 80.8952C57.1162 78.6914 39 87.3657 39 87.3657C39 87.3657 56.1747 77.3069 75.1753 80.4714L74.89 80.8952Z" fill="url(#paint27_linear_1060_5016)"/>
<path d="M66.8164 32.3808C77.5149 34.4434 76.545 53.7979 87.5003 53.7979C98.4556 53.7979 97.514 34.4434 108.184 32.3808C101.194 29.2445 93.9762 27.86 88.2706 27.7188C88.0135 27.7188 87.7284 27.7188 87.4718 27.7188C87.2147 27.7188 86.9581 27.7188 86.673 27.7188C80.9954 27.86 73.8061 29.2445 66.8164 32.3808Z" fill="url(#paint28_linear_1060_5016)"/>
<path d="M72.3663 300.718C69.2341 288.552 68.2789 273.966 73.0994 272.294C77.9199 270.622 88.7827 282.326 91.4262 284.944" fill="url(#paint29_linear_1060_5016)"/>
<path d="M87.0059 288.399C77.2316 272.515 74.0328 273.945 73.7218 274.055C72.0335 274.649 71.6114 279.665 71.6336 282.547C71.6558 287.585 72.5888 294.031 74.1883 300.257" fill="url(#paint30_radial_1060_5016)"/>
<path d="M141.896 300.718C145.028 288.53 146.005 273.966 141.163 272.294C136.342 270.622 125.479 282.326 122.836 284.944" fill="url(#paint31_linear_1060_5016)"/>
<path d="M127.258 288.399C137.032 272.515 140.231 273.945 140.542 274.055C142.23 274.649 142.652 279.665 142.63 282.547C142.608 287.585 141.675 294.031 140.075 300.257" fill="url(#paint32_radial_1060_5016)"/>
<path d="M133.457 332.157C138.588 327.581 143.497 323.929 143.497 311.389C143.497 285.142 119.928 276.584 107.132 276.584C94.337 276.584 70.7676 285.142 70.7676 311.411C70.7676 323.467 75.3882 327.097 80.2309 331.629C85.4735 336.557 128.325 336.733 133.457 332.157Z" fill="url(#paint33_radial_1060_5016)"/>
<path d="M88.2048 281.6L88.0938 281.82C88.0938 281.82 106.265 302.346 98.3568 311.697C90.4707 321.047 107.131 330.639 107.131 330.639C107.131 330.639 123.792 321.025 115.884 311.674C107.976 302.346 126.147 281.82 126.147 281.82L125.903 281.512C119.416 278.014 112.374 276.584 107.131 276.584C101.844 276.584 94.7581 278.036 88.2048 281.6Z" fill="url(#paint34_radial_1060_5016)"/>
<path d="M74.5662 312.754C74.5662 295.506 88.0503 288.708 84.185 284.131C76.6988 289.544 70.7676 298.256 70.7676 311.412C70.7676 323.469 75.3882 327.098 80.2309 331.631C81.6082 332.907 85.5401 333.875 90.6938 334.513C83.2298 329.211 74.5662 323.029 74.5662 312.754Z" fill="url(#paint35_linear_1060_5016)"/>
<path d="M92.8472 286.219C92.8253 286.352 92.8033 286.506 92.7812 286.637C92.8253 286.461 92.8472 286.307 92.8472 286.219Z" fill="url(#paint36_radial_1060_5016)"/>
<path d="M139.676 312.754C139.676 295.506 126.192 288.708 130.057 284.131C137.565 289.544 143.497 298.256 143.497 311.412C143.497 323.469 138.876 327.098 134.033 331.631C132.656 332.907 128.724 333.875 123.57 334.513C131.034 329.211 139.676 323.029 139.676 312.754Z" fill="url(#paint37_linear_1060_5016)"/>
<path d="M125.813 317.879C118.882 317.879 114.817 307.561 107.131 307.561C99.4447 307.561 95.4016 317.879 88.4485 317.879C81.5176 317.879 75.4753 323.709 80.2292 331.629C93.2912 343.906 90.8476 336.579 107.131 345.314C115.75 340.694 119.06 345.688 134.032 331.629C138.786 323.709 132.744 317.879 125.813 317.879Z" fill="url(#paint38_linear_1060_5016)"/>
<path d="M118.728 331.168L107.132 325.8L95.536 331.168C92.8481 337.064 107.132 342.454 107.132 342.454C107.132 342.454 121.416 337.086 118.728 331.168Z" fill="url(#paint39_linear_1060_5016)"/>
<path d="M112.485 333.544C112.485 336.47 110.085 338.846 107.131 338.846C104.176 338.846 101.777 336.47 101.777 333.544C101.777 324.854 104.176 321.356 107.131 321.356C110.085 321.356 112.485 324.876 112.485 333.544Z" fill="url(#paint40_linear_1060_5016)"/>
<path d="M112.485 333.544C112.485 324.876 110.085 321.356 107.131 321.356C104.176 321.356 101.777 324.832 101.777 333.544C101.777 333.764 101.8 333.962 101.822 334.16C102.888 333.764 103.799 333.258 104.576 332.664C106.087 331.498 108.175 331.498 109.686 332.664C110.463 333.258 111.396 333.764 112.44 334.16C112.463 333.962 112.485 333.742 112.485 333.544Z" fill="url(#paint41_linear_1060_5016)"/>
<path d="M106.311 327.404C106.311 325.116 106.688 323.268 107.132 323.268C107.577 323.268 107.954 325.116 107.954 327.404C107.954 334.202 107.577 336.908 107.132 336.908C106.688 336.908 106.311 334.18 106.311 327.404Z" fill="url(#paint42_linear_1060_5016)"/>
<path d="M112.085 314.425H102.155C91.2038 312.753 88.0938 318.407 88.0938 322.741C88.0938 327.955 90.7373 333.015 95.7577 333.015C102.311 333.015 107.109 329.935 107.109 325.799C107.109 329.935 111.908 333.015 118.461 333.015C123.504 333.015 126.125 327.955 126.125 322.741C126.147 318.385 123.059 312.731 112.085 314.425Z" fill="url(#paint43_linear_1060_5016)"/>
<path d="M122.148 312.137C124.05 312.137 125.591 310.246 125.591 307.913C125.591 305.58 124.05 303.689 122.148 303.689C120.246 303.689 118.705 305.58 118.705 307.913C118.705 310.246 120.246 312.137 122.148 312.137Z" fill="url(#paint44_radial_1060_5016)"/>
<path d="M92.0916 312.137C93.9933 312.137 95.5348 310.246 95.5348 307.913C95.5348 305.58 93.9933 303.689 92.0916 303.689C90.19 303.689 88.6484 305.58 88.6484 307.913C88.6484 310.246 90.19 312.137 92.0916 312.137Z" fill="url(#paint45_radial_1060_5016)"/>
<path d="M121.483 307.737C122.084 307.737 122.572 307.136 122.572 306.395C122.572 305.654 122.084 305.053 121.483 305.053C120.882 305.053 120.395 305.654 120.395 306.395C120.395 307.136 120.882 307.737 121.483 307.737Z" fill="url(#paint46_linear_1060_5016)"/>
<path d="M91.4264 307.737C92.0276 307.737 92.5149 307.136 92.5149 306.395C92.5149 305.654 92.0276 305.053 91.4264 305.053C90.8252 305.053 90.3379 305.654 90.3379 306.395C90.3379 307.136 90.8252 307.737 91.4264 307.737Z" fill="url(#paint47_linear_1060_5016)"/>
<path d="M118.926 332.157C111.063 332.157 109.596 328.153 109.596 325.557C109.596 324.171 114.639 321.399 114.639 318.297C114.639 315.877 108.13 317.395 107.131 323.093C106.131 317.373 99.6223 315.877 99.6223 318.297C99.6223 321.399 104.665 324.149 104.665 325.557C104.665 328.175 103.154 332.949 95.3349 332.157C89.3814 331.563 88.1152 322.741 88.1152 322.741C88.1152 327.955 90.7587 333.015 95.7792 333.015C101.733 333.015 106.22 330.485 107.02 326.921C107.064 326.701 107.108 326.481 107.131 326.239C107.175 326.459 107.197 326.679 107.242 326.921C108.019 330.485 112.529 333.015 118.482 333.015C123.525 333.015 126.146 327.955 126.146 322.741C126.146 321.245 125.457 332.157 118.926 332.157Z" fill="url(#paint48_radial_1060_5016)"/>
<path d="M114.395 317.594C111.574 314.47 102.71 314.47 99.8668 317.594C98.4006 319.223 103.621 324.921 107.131 324.921C110.641 324.921 115.861 319.223 114.395 317.594Z" fill="url(#paint49_linear_1060_5016)"/>
<path d="M112.198 317.35C110.221 316.162 104.023 316.162 102.046 317.35C101.024 317.966 104.667 319.374 107.111 319.374C109.554 319.374 113.242 317.966 112.198 317.35Z" fill="url(#paint50_linear_1060_5016)"/>
<path d="M117.105 319.66C132.322 320.32 144.762 329.275 144.762 329.275C144.762 329.275 133.544 319.44 116.928 319.242L117.105 319.66Z" fill="url(#paint51_linear_1060_5016)"/>
<path d="M116.905 320.804C130.589 324.346 140.341 334.841 140.341 334.841C140.341 334.841 131.456 323.643 116.816 320.408L116.905 320.804Z" fill="url(#paint52_linear_1060_5016)"/>
<path d="M116.95 317.989C130.79 316.273 144.896 323.028 144.896 323.028C144.896 323.028 131.523 315.195 116.729 317.659L116.95 317.989Z" fill="url(#paint53_linear_1060_5016)"/>
<path d="M97.1588 319.66C81.942 320.32 69.502 329.275 69.502 329.275C69.502 329.275 80.7202 319.44 97.3365 319.242L97.1588 319.66Z" fill="url(#paint54_linear_1060_5016)"/>
<path d="M97.358 320.804C83.674 324.346 73.9219 334.841 73.9219 334.841C73.9219 334.841 82.8076 323.643 97.4468 320.408L97.358 320.804Z" fill="url(#paint55_linear_1060_5016)"/>
<path d="M97.3128 317.989C83.4733 316.273 69.3672 323.028 69.3672 323.028C69.3672 323.028 82.7402 315.195 97.535 317.659L97.3128 317.989Z" fill="url(#paint56_linear_1060_5016)"/>
<path d="M91.0254 280.214C99.3558 281.82 98.6005 296.89 107.131 296.89C115.661 296.89 114.928 281.82 123.236 280.214C117.793 277.772 112.173 276.694 107.731 276.584C107.53 276.584 107.308 276.584 107.109 276.584C106.908 276.584 106.709 276.584 106.487 276.584C102.066 276.694 96.4679 277.772 91.0254 280.214Z" fill="url(#paint57_linear_1060_5016)"/>
<path d="M267.852 58.7142C263.83 43.0893 262.603 24.3564 268.794 22.209C274.985 20.0616 288.935 35.0932 292.33 38.4555" fill="url(#paint58_linear_1060_5016)"/>
<path d="M286.654 42.893C274.101 22.493 269.992 24.3295 269.593 24.4708C267.425 25.2337 266.883 31.6758 266.911 35.3772C266.94 41.8476 268.138 50.1262 270.192 58.1224" fill="url(#paint59_radial_1060_5016)"/>
<path d="M357.148 58.7142C361.171 43.0611 362.426 24.3564 356.207 22.209C350.016 20.0616 336.065 35.0932 332.67 38.4555" fill="url(#paint60_linear_1060_5016)"/>
<path d="M338.348 42.893C350.901 22.493 355.009 24.3295 355.408 24.4708C357.576 25.2337 358.119 31.6758 358.09 35.3772C358.062 41.8476 356.863 50.1262 354.809 58.1224" fill="url(#paint61_radial_1060_5016)"/>
<path d="M346.307 99.0903C352.897 93.2136 359.202 88.5232 359.202 72.4181C359.202 38.7098 328.933 27.7188 312.499 27.7188C296.067 27.7188 265.797 38.7099 265.797 72.4463C265.797 87.9298 271.731 92.5921 277.95 98.4124C284.683 104.741 339.717 104.967 346.307 99.0903Z" fill="url(#paint62_radial_1060_5016)"/>
<path d="M288.193 34.1608L288.051 34.4434C288.051 34.4434 311.388 60.8052 301.231 72.8137C291.103 84.8216 312.5 97.1411 312.5 97.1411C312.5 97.1411 333.897 84.7935 323.741 72.785C313.585 60.8052 336.922 34.4434 336.922 34.4434L336.608 34.0478C328.277 29.5553 319.233 27.7188 312.5 27.7188C305.71 27.7188 296.61 29.5836 288.193 34.1608Z" fill="url(#paint63_radial_1060_5016)"/>
<path d="M270.675 74.1716C270.675 52.0198 287.993 43.2891 283.029 37.4121C273.414 44.3628 265.797 55.5517 265.797 72.4479C265.797 87.932 271.731 92.5937 277.95 98.4145C279.719 100.053 284.769 101.296 291.388 102.116C281.802 95.3063 270.675 87.3668 270.675 74.1716Z" fill="url(#paint64_linear_1060_5016)"/>
<path d="M294.155 40.0938C294.127 40.2633 294.099 40.4611 294.07 40.6306C294.127 40.4046 294.155 40.2068 294.155 40.0938Z" fill="url(#paint65_radial_1060_5016)"/>
<path d="M354.295 74.1716C354.295 52.0198 336.978 43.2891 341.942 37.4121C351.585 44.3628 359.202 55.5517 359.202 72.4479C359.202 87.932 353.268 92.5937 347.049 98.4145C345.28 100.053 340.23 101.296 333.611 102.116C343.197 95.3063 354.295 87.3668 354.295 74.1716Z" fill="url(#paint66_linear_1060_5016)"/>
<path d="M336.492 80.7535C327.591 80.7535 322.37 67.502 312.499 67.502C302.628 67.502 297.435 80.7535 288.505 80.7535C279.604 80.7535 271.844 88.2411 277.95 98.4126C294.725 114.179 291.587 104.77 312.499 115.987C323.568 110.054 327.819 116.467 347.048 98.4126C353.153 88.2411 345.393 80.7535 336.492 80.7535Z" fill="url(#paint67_linear_1060_5016)"/>
<path d="M327.393 97.82L312.501 90.9258L297.608 97.82C294.156 105.392 312.501 112.315 312.501 112.315C312.501 112.315 330.845 105.42 327.393 97.82Z" fill="url(#paint68_linear_1060_5016)"/>
<path d="M319.376 100.872C319.376 104.63 316.295 107.681 312.5 107.681C308.706 107.681 305.625 104.63 305.625 100.872C305.625 89.7109 308.706 85.2188 312.5 85.2188C316.295 85.2188 319.376 89.7396 319.376 100.872Z" fill="url(#paint69_linear_1060_5016)"/>
<path d="M319.376 100.872C319.376 89.7396 316.295 85.2188 312.5 85.2188C308.706 85.2188 305.625 89.6827 305.625 100.872C305.625 101.154 305.653 101.409 305.682 101.663C307.051 101.154 308.221 100.504 309.22 99.7415C311.16 98.2443 313.841 98.2443 315.782 99.7415C316.78 100.504 317.978 101.154 319.319 101.663C319.348 101.409 319.376 101.126 319.376 100.872Z" fill="url(#paint70_linear_1060_5016)"/>
<path d="M311.445 92.9858C311.445 90.0472 311.93 87.6738 312.501 87.6738C313.071 87.6738 313.556 90.0472 313.556 92.9858C313.556 101.716 313.071 105.192 312.501 105.192C311.93 105.192 311.445 101.688 311.445 92.9858Z" fill="url(#paint71_linear_1060_5016)"/>
<path d="M318.862 76.3171H306.11C292.045 74.1696 288.051 81.4313 288.051 86.9974C288.051 93.6939 291.446 100.193 297.893 100.193C306.309 100.193 312.472 96.2369 312.472 90.9249C312.472 96.2369 318.634 100.193 327.05 100.193C333.527 100.193 336.893 93.6939 336.893 86.9974C336.922 81.4031 332.956 74.1414 318.862 76.3171Z" fill="url(#paint72_linear_1060_5016)"/>
<path d="M331.785 73.3792C334.227 73.3792 336.207 70.9504 336.207 67.954C336.207 64.9581 334.227 62.5293 331.785 62.5293C329.343 62.5293 327.363 64.9581 327.363 67.954C327.363 70.9504 329.343 73.3792 331.785 73.3792Z" fill="url(#paint73_radial_1060_5016)"/>
<path d="M293.186 73.3792C295.628 73.3792 297.608 70.9504 297.608 67.954C297.608 64.9581 295.628 62.5293 293.186 62.5293C290.743 62.5293 288.764 64.9581 288.764 67.954C288.764 70.9504 290.743 73.3792 293.186 73.3792Z" fill="url(#paint74_radial_1060_5016)"/>
<path d="M330.931 67.7281C331.703 67.7281 332.329 66.9568 332.329 66.0049C332.329 65.0531 331.703 64.2812 330.931 64.2812C330.159 64.2812 329.533 65.0531 329.533 66.0049C329.533 66.9568 330.159 67.7281 330.931 67.7281Z" fill="url(#paint75_linear_1060_5016)"/>
<path d="M292.33 67.7281C293.102 67.7281 293.728 66.9568 293.728 66.0049C293.728 65.0531 293.102 64.2812 292.33 64.2812C291.558 64.2812 290.932 65.0531 290.932 66.0049C290.932 66.9568 291.558 67.7281 292.33 67.7281Z" fill="url(#paint76_linear_1060_5016)"/>
<path d="M327.648 99.091C317.549 99.091 315.666 93.9486 315.666 90.6145C315.666 88.8344 322.142 85.2743 322.142 81.2905C322.142 78.1823 313.783 80.1319 312.499 87.4499C311.216 80.1037 302.856 78.1823 302.856 81.2905C302.856 85.2743 309.332 88.8062 309.332 90.6145C309.332 93.9768 307.393 100.108 297.35 99.091C289.704 98.328 288.078 86.998 288.078 86.998C288.078 93.6945 291.473 100.193 297.921 100.193C305.567 100.193 311.329 96.9436 312.357 92.3663C312.414 92.0835 312.471 91.8012 312.499 91.4902C312.557 91.773 312.585 92.0553 312.642 92.3663C313.64 96.9436 319.432 100.193 327.078 100.193C333.554 100.193 336.921 93.6945 336.921 86.998C336.921 85.0765 336.036 99.091 327.648 99.091Z" fill="url(#paint77_radial_1060_5016)"/>
<path d="M321.829 80.3879C318.206 76.3759 306.823 76.3759 303.171 80.3879C301.288 82.479 307.993 89.797 312.5 89.797C317.008 89.797 323.713 82.479 321.829 80.3879Z" fill="url(#paint78_linear_1060_5016)"/>
<path d="M319.005 80.0741C316.466 78.5482 308.506 78.5482 305.967 80.0741C304.654 80.8653 309.334 82.6735 312.472 82.6735C315.61 82.6735 320.346 80.8653 319.005 80.0741Z" fill="url(#paint79_linear_1060_5016)"/>
<path d="M325.31 83.0409C344.853 83.8884 360.829 95.3885 360.829 95.3885C360.829 95.3885 346.422 82.7586 325.082 82.5039L325.31 83.0409Z" fill="url(#paint80_linear_1060_5016)"/>
<path d="M325.052 84.5103C342.626 89.0593 355.15 102.537 355.15 102.537C355.15 102.537 343.738 88.1554 324.938 84.002L325.052 84.5103Z" fill="url(#paint81_linear_1060_5016)"/>
<path d="M325.109 80.8952C342.883 78.6914 360.999 87.3657 360.999 87.3657C360.999 87.3657 343.825 77.3069 324.824 80.4714L325.109 80.8952Z" fill="url(#paint82_linear_1060_5016)"/>
<path d="M299.691 83.0409C280.148 83.8884 264.172 95.3885 264.172 95.3885C264.172 95.3885 278.579 82.7586 299.919 82.5039L299.691 83.0409Z" fill="url(#paint83_linear_1060_5016)"/>
<path d="M299.946 84.5103C282.372 89.0593 269.848 102.537 269.848 102.537C269.848 102.537 281.259 88.1554 300.06 84.002L299.946 84.5103Z" fill="url(#paint84_linear_1060_5016)"/>
<path d="M299.89 80.8952C282.116 78.6914 264 87.3657 264 87.3657C264 87.3657 281.175 77.3069 300.175 80.4714L299.89 80.8952Z" fill="url(#paint85_linear_1060_5016)"/>
<path d="M291.816 32.3808C302.515 34.4434 301.545 53.7979 312.5 53.7979C323.456 53.7979 322.514 34.4434 333.184 32.3808C326.194 29.2445 318.976 27.86 313.271 27.7188C313.014 27.7188 312.728 27.7188 312.472 27.7188C312.215 27.7188 311.958 27.7188 311.673 27.7188C305.995 27.86 298.806 29.2445 291.816 32.3808Z" fill="url(#paint86_linear_1060_5016)"/>
<rect x="226.5" y="255.5" width="135" height="101" fill="white" stroke="#ABABAB"/>
<path d="M259.301 300.823C256.175 288.68 255.221 274.122 260.032 272.453C264.844 270.785 275.685 282.466 278.324 285.079" fill="url(#paint87_linear_1060_5016)"/>
<path d="M273.914 288.528C264.158 272.674 260.966 274.101 260.655 274.211C258.97 274.804 258.549 279.811 258.571 282.687C258.593 287.715 259.524 294.149 261.121 300.363" fill="url(#paint88_radial_1060_5016)"/>
<path d="M328.697 300.823C331.823 288.658 332.799 274.122 327.965 272.453C323.154 270.785 312.312 282.466 309.674 285.079" fill="url(#paint89_linear_1060_5016)"/>
<path d="M314.088 288.528C323.843 272.674 327.036 274.101 327.346 274.211C329.031 274.804 329.453 279.811 329.431 282.687C329.408 287.715 328.477 294.149 326.881 300.363" fill="url(#paint90_radial_1060_5016)"/>
<path d="M320.273 332.201C325.395 327.634 330.294 323.989 330.294 311.473C330.294 285.277 306.771 276.735 294 276.735C281.229 276.735 257.705 285.277 257.705 311.495C257.705 323.528 262.317 327.151 267.15 331.674C272.383 336.593 315.151 336.769 320.273 332.201Z" fill="url(#paint91_radial_1060_5016)"/>
<path d="M275.111 281.742L275 281.961C275 281.961 293.136 302.448 285.243 311.781C277.372 321.112 294.001 330.686 294.001 330.686C294.001 330.686 310.629 321.091 302.737 311.758C294.844 302.448 312.98 281.961 312.98 281.961L312.736 281.654C306.262 278.163 299.233 276.735 294.001 276.735C288.724 276.735 281.651 278.185 275.111 281.742Z" fill="url(#paint92_radial_1060_5016)"/>
<path d="M261.496 312.836C261.496 295.621 274.954 288.836 271.097 284.268C263.625 289.67 257.705 298.365 257.705 311.496C257.705 323.53 262.317 327.152 267.15 331.676C268.525 332.949 272.449 333.916 277.593 334.552C270.143 329.261 261.496 323.09 261.496 312.836Z" fill="url(#paint93_linear_1060_5016)"/>
<path d="M279.744 286.352C279.722 286.484 279.7 286.638 279.678 286.77C279.722 286.594 279.744 286.44 279.744 286.352Z" fill="url(#paint94_radial_1060_5016)"/>
<path d="M326.481 312.836C326.481 295.621 313.023 288.836 316.88 284.268C324.374 289.67 330.294 298.365 330.294 311.496C330.294 323.53 325.683 327.152 320.849 331.676C319.475 332.949 315.55 333.916 310.406 334.552C317.856 329.261 326.481 323.09 326.481 312.836Z" fill="url(#paint95_linear_1060_5016)"/>
<path d="M312.645 317.951C305.728 317.951 301.671 307.653 293.999 307.653C286.328 307.653 282.293 317.951 275.353 317.951C268.436 317.951 262.405 323.77 267.15 331.675C280.187 343.927 277.748 336.615 293.999 345.333C302.602 340.721 305.905 345.706 320.849 331.675C325.594 323.77 319.563 317.951 312.645 317.951Z" fill="url(#paint96_linear_1060_5016)"/>
<path d="M305.573 331.214L293.999 325.856L282.426 331.214C279.743 337.099 293.999 342.478 293.999 342.478C293.999 342.478 308.256 337.121 305.573 331.214Z" fill="url(#paint97_linear_1060_5016)"/>
<path d="M299.343 333.586C299.343 336.506 296.948 338.877 293.999 338.877C291.051 338.877 288.656 336.506 288.656 333.586C288.656 324.912 291.051 321.421 293.999 321.421C296.948 321.421 299.343 324.934 299.343 333.586Z" fill="url(#paint98_linear_1060_5016)"/>
<path d="M299.343 333.586C299.343 324.934 296.948 321.421 293.999 321.421C291.051 321.421 288.656 324.89 288.656 333.586C288.656 333.805 288.678 334.003 288.7 334.201C289.765 333.805 290.674 333.3 291.45 332.707C292.958 331.544 295.042 331.544 296.549 332.707C297.325 333.3 298.257 333.805 299.299 334.201C299.321 334.003 299.343 333.783 299.343 333.586Z" fill="url(#paint99_linear_1060_5016)"/>
<path d="M293.18 327.457C293.18 325.173 293.556 323.329 294 323.329C294.443 323.329 294.82 325.173 294.82 327.457C294.82 334.242 294.443 336.943 294 336.943C293.556 336.943 293.18 334.22 293.18 327.457Z" fill="url(#paint100_linear_1060_5016)"/>
<path d="M298.945 314.503H289.034C278.104 312.834 275 318.478 275 322.803C275 328.007 277.638 333.058 282.649 333.058C289.19 333.058 293.979 329.984 293.979 325.856C293.979 329.984 298.768 333.058 305.308 333.058C310.341 333.058 312.957 328.007 312.957 322.803C312.98 318.456 309.898 312.812 298.945 314.503Z" fill="url(#paint101_linear_1060_5016)"/>
<path d="M308.987 312.22C310.885 312.22 312.424 310.333 312.424 308.004C312.424 305.676 310.885 303.788 308.987 303.788C307.089 303.788 305.551 305.676 305.551 308.004C305.551 310.333 307.089 312.22 308.987 312.22Z" fill="url(#paint102_radial_1060_5016)"/>
<path d="M278.989 312.22C280.887 312.22 282.426 310.333 282.426 308.004C282.426 305.676 280.887 303.788 278.989 303.788C277.091 303.788 275.553 305.676 275.553 308.004C275.553 310.333 277.091 312.22 278.989 312.22Z" fill="url(#paint103_radial_1060_5016)"/>
<path d="M308.323 307.828C308.923 307.828 309.409 307.229 309.409 306.489C309.409 305.749 308.923 305.15 308.323 305.15C307.722 305.15 307.236 305.749 307.236 306.489C307.236 307.229 307.722 307.828 308.323 307.828Z" fill="url(#paint104_linear_1060_5016)"/>
<path d="M278.325 307.828C278.925 307.828 279.411 307.229 279.411 306.489C279.411 305.749 278.925 305.15 278.325 305.15C277.725 305.15 277.238 305.749 277.238 306.489C277.238 307.229 277.725 307.828 278.325 307.828Z" fill="url(#paint105_linear_1060_5016)"/>
<path d="M305.773 332.202C297.925 332.202 296.461 328.205 296.461 325.614C296.461 324.231 301.494 321.464 301.494 318.368C301.494 315.953 294.998 317.468 294 323.155C293.003 317.446 286.506 315.953 286.506 318.368C286.506 321.464 291.539 324.209 291.539 325.614C291.539 328.227 290.032 332.992 282.227 332.202C276.285 331.609 275.021 322.804 275.021 322.804C275.021 328.008 277.66 333.058 282.671 333.058C288.613 333.058 293.091 330.533 293.89 326.976C293.934 326.756 293.978 326.537 294 326.295C294.045 326.515 294.067 326.734 294.111 326.976C294.887 330.533 299.388 333.058 305.33 333.058C310.363 333.058 312.979 328.008 312.979 322.804C312.979 321.311 312.292 332.202 305.773 332.202Z" fill="url(#paint106_radial_1060_5016)"/>
<path d="M301.249 317.667C298.433 314.549 289.587 314.549 286.749 317.667C285.286 319.292 290.496 324.979 293.999 324.979C297.502 324.979 302.713 319.292 301.249 317.667Z" fill="url(#paint107_linear_1060_5016)"/>
<path d="M299.055 317.423C297.082 316.237 290.896 316.237 288.922 317.423C287.902 318.038 291.539 319.443 293.978 319.443C296.416 319.443 300.097 318.038 299.055 317.423Z" fill="url(#paint108_linear_1060_5016)"/>
<path d="M303.955 319.728C319.142 320.387 331.558 329.324 331.558 329.324C331.558 329.324 320.362 319.509 303.777 319.311L303.955 319.728Z" fill="url(#paint109_linear_1060_5016)"/>
<path d="M303.755 320.87C317.412 324.406 327.145 334.88 327.145 334.88C327.145 334.88 318.277 323.703 303.666 320.475L303.755 320.87Z" fill="url(#paint110_linear_1060_5016)"/>
<path d="M303.8 318.061C317.612 316.348 331.691 323.089 331.691 323.089C331.691 323.089 318.344 315.272 303.578 317.732L303.8 318.061Z" fill="url(#paint111_linear_1060_5016)"/>
<path d="M284.045 319.728C268.857 320.387 256.441 329.324 256.441 329.324C256.441 329.324 267.638 319.509 284.222 319.311L284.045 319.728Z" fill="url(#paint112_linear_1060_5016)"/>
<path d="M284.244 320.87C270.587 324.406 260.854 334.88 260.854 334.88C260.854 334.88 269.722 323.703 284.333 320.475L284.244 320.87Z" fill="url(#paint113_linear_1060_5016)"/>
<path d="M284.2 318.061C270.387 316.348 256.309 323.089 256.309 323.089C256.309 323.089 269.656 315.272 284.422 317.732L284.2 318.061Z" fill="url(#paint114_linear_1060_5016)"/>
<path d="M277.926 280.358C286.24 281.961 285.486 297.003 294 297.003C302.514 297.003 301.782 281.961 310.074 280.358C304.642 277.921 299.033 276.845 294.599 276.735C294.399 276.735 294.177 276.735 293.978 276.735C293.778 276.735 293.579 276.735 293.357 276.735C288.945 276.845 283.358 277.921 277.926 280.358Z" fill="url(#paint115_linear_1060_5016)"/>
<path d="M199.939 208.061C200.525 208.646 201.475 208.646 202.061 208.061L211.607 198.515C212.192 197.929 212.192 196.979 211.607 196.393C211.021 195.808 210.071 195.808 209.485 196.393L201 204.879L192.515 196.393C191.929 195.808 190.979 195.808 190.393 196.393C189.808 196.979 189.808 197.929 190.393 198.515L199.939 208.061ZM199.5 179V207H202.5V179H199.5Z" fill="black"/>
<defs>
<linearGradient id="paint0_linear_1060_5016" x1="54.1184" y1="21.4247" x2="51.2047" y2="83.5742" gradientUnits="userSpaceOnUse">
<stop stop-color="#FBDF79"/>
<stop offset="0.00397695" stop-color="#FBE07A"/>
<stop offset="1" stop-color="#FFBC47"/>
</linearGradient>
<radialGradient id="paint1_radial_1060_5016" cx="0" cy="0" r="1" gradientUnits="userSpaceOnUse" gradientTransform="translate(44.9482 63.0017) scale(37.8101 37.4463)">
<stop stop-color="#FCCE38"/>
<stop offset="1" stop-color="#FF8000"/>
</radialGradient>
<linearGradient id="paint2_linear_1060_5016" x1="120.88" y1="21.4247" x2="123.793" y2="83.5742" gradientUnits="userSpaceOnUse">
<stop stop-color="#FBDF79"/>
<stop offset="0.00397695" stop-color="#FBE07A"/>
<stop offset="1" stop-color="#FFBC47"/>
</linearGradient>
<radialGradient id="paint3_radial_1060_5016" cx="0" cy="0" r="1" gradientUnits="userSpaceOnUse" gradientTransform="translate(130.07 63.0017) rotate(180) scale(37.8101 37.4462)">
<stop stop-color="#FCCE38"/>
<stop offset="1" stop-color="#FF8000"/>
</radialGradient>
<radialGradient id="paint4_radial_1060_5016" cx="0" cy="0" r="1" gradientUnits="userSpaceOnUse" gradientTransform="translate(98.4132 29.5375) scale(65.1121 64.4855)">
<stop stop-color="#FBDF79"/>
<stop offset="0.00397695" stop-color="#FBE07A"/>
<stop offset="1" stop-color="#FFBC47"/>
</radialGradient>
<radialGradient id="paint5_radial_1060_5016" cx="0" cy="0" r="1" gradientUnits="userSpaceOnUse" gradientTransform="translate(94.3298 113.133) scale(104.692 103.685)">
<stop stop-color="#FBDF79"/>
<stop offset="0.00397695" stop-color="#FBE07A"/>
<stop offset="1" stop-color="#FFBC47"/>
</radialGradient>
<linearGradient id="paint6_linear_1060_5016" x1="53.5971" y1="28.0685" x2="53.5971" y2="168.795" gradientUnits="userSpaceOnUse">
<stop stop-color="#FCCE38"/>
<stop offset="1" stop-color="#FF8000"/>
</linearGradient>
<radialGradient id="paint7_radial_1060_5016" cx="0" cy="0" r="1" gradientUnits="userSpaceOnUse" gradientTransform="translate(57.2776 -2.14952) rotate(105.816) scale(65.6382 138.623)">
<stop stop-color="#E74A3A"/>
<stop offset="1" stop-color="#FF9D00"/>
</radialGradient>
<linearGradient id="paint8_linear_1060_5016" x1="121.4" y1="28.0685" x2="121.4" y2="168.795" gradientUnits="userSpaceOnUse">
<stop stop-color="#FCCE38"/>
<stop offset="1" stop-color="#FF8000"/>
</linearGradient>
<linearGradient id="paint9_linear_1060_5016" x1="87.4971" y1="132.219" x2="87.4971" y2="78.6372" gradientUnits="userSpaceOnUse">
<stop stop-color="#FBE07A"/>
<stop offset="1" stop-color="white"/>
</linearGradient>
<linearGradient id="paint10_linear_1060_5016" x1="87.4996" y1="88.5024" x2="87.4996" y2="112" gradientUnits="userSpaceOnUse">
<stop stop-color="#FBE07A"/>
<stop offset="1" stop-color="white"/>
</linearGradient>
<linearGradient id="paint11_linear_1060_5016" x1="87.4474" y1="98.7838" x2="90.4669" y2="115.451" gradientUnits="userSpaceOnUse">
<stop stop-color="#FF6688"/>
<stop offset="1" stop-color="#FB9C9C"/>
</linearGradient>
<linearGradient id="paint12_linear_1060_5016" x1="88.4195" y1="103.414" x2="85.1312" y2="86.8787" gradientUnits="userSpaceOnUse">
<stop stop-color="#FF6688"/>
<stop offset="1" stop-color="#B30B0B"/>
</linearGradient>
<linearGradient id="paint13_linear_1060_5016" x1="88.9651" y1="103.302" x2="85.6763" y2="86.7676" gradientUnits="userSpaceOnUse">
<stop stop-color="#FF6688"/>
<stop offset="1" stop-color="#B30B0B"/>
</linearGradient>
<linearGradient id="paint14_linear_1060_5016" x1="87.4994" y1="127.599" x2="87.4994" y2="81.1618" gradientUnits="userSpaceOnUse">
<stop stop-color="#FBE07A"/>
<stop offset="1" stop-color="white"/>
</linearGradient>
<radialGradient id="paint15_radial_1060_5016" cx="0" cy="0" r="1" gradientUnits="userSpaceOnUse" gradientTransform="translate(107.005 66.4692) rotate(91.4584) scale(5.3531 4.38593)">
<stop stop-color="#512D00"/>
<stop offset="1" stop-color="#3C2200"/>
</radialGradient>
<radialGradient id="paint16_radial_1060_5016" cx="0" cy="0" r="1" gradientUnits="userSpaceOnUse" gradientTransform="translate(67.9917 66.523) rotate(88.5416) scale(5.3531 4.38592)">
<stop stop-color="#512D00"/>
<stop offset="1" stop-color="#3C2200"/>
</radialGradient>
<linearGradient id="paint17_linear_1060_5016" x1="104.824" y1="63.6305" x2="107.145" y2="68.7267" gradientUnits="userSpaceOnUse">
<stop stop-color="#A3541E"/>
<stop offset="1" stop-color="#512D00"/>
</linearGradient>
<linearGradient id="paint18_linear_1060_5016" x1="66.2219" y1="63.6305" x2="68.5435" y2="68.7267" gradientUnits="userSpaceOnUse">
<stop stop-color="#A3541E"/>
<stop offset="1" stop-color="#512D00"/>
</linearGradient>
<radialGradient id="paint19_radial_1060_5016" cx="0" cy="0" r="1" gradientUnits="userSpaceOnUse" gradientTransform="translate(85.1701 54.7882) scale(53.5496 53.0343)">
<stop stop-color="#FCCE38"/>
<stop offset="1" stop-color="#FF8000" stop-opacity="0"/>
</radialGradient>
<linearGradient id="paint20_linear_1060_5016" x1="88.7937" y1="86.0367" x2="81.3176" y2="58.6036" gradientUnits="userSpaceOnUse">
<stop stop-color="#FF6688"/>
<stop offset="1" stop-color="#FB9C9C"/>
</linearGradient>
<linearGradient id="paint21_linear_1060_5016" x1="86.1314" y1="74.8625" x2="87.5114" y2="80.5426" gradientUnits="userSpaceOnUse">
<stop stop-color="#FF6688"/>
<stop offset="1" stop-color="#FB9C9C"/>
</linearGradient>
<linearGradient id="paint22_linear_1060_5016" x1="63.9154" y1="147.585" x2="99.3249" y2="109.369" gradientUnits="userSpaceOnUse">
<stop stop-color="#FCCE38"/>
<stop offset="1" stop-color="#C86F34"/>
</linearGradient>
<linearGradient id="paint23_linear_1060_5016" x1="55.1995" y1="135.777" x2="92.8218" y2="108.511" gradientUnits="userSpaceOnUse">
<stop stop-color="#FCCE38"/>
<stop offset="1" stop-color="#C86F34"/>
</linearGradient>
<linearGradient id="paint24_linear_1060_5016" x1="80.1971" y1="143.195" x2="104.701" y2="103.917" gradientUnits="userSpaceOnUse">
<stop stop-color="#FCCE38"/>
<stop offset="1" stop-color="#C86F34"/>
</linearGradient>
<linearGradient id="paint25_linear_1060_5016" x1="111.077" y1="147.583" x2="75.6678" y2="109.368" gradientUnits="userSpaceOnUse">
<stop stop-color="#FCCE38"/>
<stop offset="1" stop-color="#C86F34"/>
</linearGradient>
<linearGradient id="paint26_linear_1060_5016" x1="119.788" y1="135.804" x2="82.1662" y2="108.538" gradientUnits="userSpaceOnUse">
<stop stop-color="#FCCE38"/>
<stop offset="1" stop-color="#C86F34"/>
</linearGradient>
<linearGradient id="paint27_linear_1060_5016" x1="94.7926" y1="143.184" x2="70.2881" y2="103.906" gradientUnits="userSpaceOnUse">
<stop stop-color="#FCCE38"/>
<stop offset="1" stop-color="#C86F34"/>
</linearGradient>
<linearGradient id="paint28_linear_1060_5016" x1="107.528" y1="-7.14522" x2="75.5794" y2="57.1339" gradientUnits="userSpaceOnUse">
<stop stop-color="#FBE07A"/>
<stop offset="1" stop-color="white"/>
</linearGradient>
<linearGradient id="paint29_linear_1060_5016" x1="81.1387" y1="271.683" x2="78.8699" y2="320.075" gradientUnits="userSpaceOnUse">
<stop stop-color="#FBDF79"/>
<stop offset="0.00397695" stop-color="#FBE07A"/>
<stop offset="1" stop-color="#FFBC47"/>
</linearGradient>
<radialGradient id="paint30_radial_1060_5016" cx="0" cy="0" r="1" gradientUnits="userSpaceOnUse" gradientTransform="translate(73.9984 304.057) scale(29.4407 29.1574)">
<stop stop-color="#FCCE38"/>
<stop offset="1" stop-color="#FF8000"/>
</radialGradient>
<linearGradient id="paint31_linear_1060_5016" x1="133.122" y1="271.683" x2="135.39" y2="320.075" gradientUnits="userSpaceOnUse">
<stop stop-color="#FBDF79"/>
<stop offset="0.00397695" stop-color="#FBE07A"/>
<stop offset="1" stop-color="#FFBC47"/>
</linearGradient>
<radialGradient id="paint32_radial_1060_5016" cx="0" cy="0" r="1" gradientUnits="userSpaceOnUse" gradientTransform="translate(140.279 304.057) rotate(180) scale(29.4407 29.1574)">
<stop stop-color="#FCCE38"/>
<stop offset="1" stop-color="#FF8000"/>
</radialGradient>
<radialGradient id="paint33_radial_1060_5016" cx="0" cy="0" r="1" gradientUnits="userSpaceOnUse" gradientTransform="translate(115.63 278) scale(50.6993 50.2114)">
<stop stop-color="#FBDF79"/>
<stop offset="0.00397695" stop-color="#FBE07A"/>
<stop offset="1" stop-color="#FFBC47"/>
</radialGradient>
<radialGradient id="paint34_radial_1060_5016" cx="0" cy="0" r="1" gradientUnits="userSpaceOnUse" gradientTransform="translate(112.449 343.091) scale(81.5183 80.7338)">
<stop stop-color="#FBDF79"/>
<stop offset="0.00397695" stop-color="#FBE07A"/>
<stop offset="1" stop-color="#FFBC47"/>
</radialGradient>
<linearGradient id="paint35_linear_1060_5016" x1="80.7344" y1="276.856" x2="80.7344" y2="386.433" gradientUnits="userSpaceOnUse">
<stop stop-color="#FCCE38"/>
<stop offset="1" stop-color="#FF8000"/>
</linearGradient>
<radialGradient id="paint36_radial_1060_5016" cx="0" cy="0" r="1" gradientUnits="userSpaceOnUse" gradientTransform="translate(83.5989 253.327) rotate(105.816) scale(51.109 107.938)">
<stop stop-color="#E74A3A"/>
<stop offset="1" stop-color="#FF9D00"/>
</radialGradient>
<linearGradient id="paint37_linear_1060_5016" x1="133.528" y1="276.856" x2="133.528" y2="386.433" gradientUnits="userSpaceOnUse">
<stop stop-color="#FCCE38"/>
<stop offset="1" stop-color="#FF8000"/>
</linearGradient>
<linearGradient id="paint38_linear_1060_5016" x1="107.129" y1="357.952" x2="107.129" y2="316.231" gradientUnits="userSpaceOnUse">
<stop stop-color="#FBE07A"/>
<stop offset="1" stop-color="white"/>
</linearGradient>
<linearGradient id="paint39_linear_1060_5016" x1="107.131" y1="323.913" x2="107.131" y2="342.209" gradientUnits="userSpaceOnUse">
<stop stop-color="#FBE07A"/>
<stop offset="1" stop-color="white"/>
</linearGradient>
<linearGradient id="paint40_linear_1060_5016" x1="107.09" y1="331.918" x2="109.441" y2="344.897" gradientUnits="userSpaceOnUse">
<stop stop-color="#FF6688"/>
<stop offset="1" stop-color="#FB9C9C"/>
</linearGradient>
<linearGradient id="paint41_linear_1060_5016" x1="107.847" y1="335.524" x2="105.286" y2="322.649" gradientUnits="userSpaceOnUse">
<stop stop-color="#FF6688"/>
<stop offset="1" stop-color="#B30B0B"/>
</linearGradient>
<linearGradient id="paint42_linear_1060_5016" x1="108.273" y1="335.436" x2="105.712" y2="322.562" gradientUnits="userSpaceOnUse">
<stop stop-color="#FF6688"/>
<stop offset="1" stop-color="#B30B0B"/>
</linearGradient>
<linearGradient id="paint43_linear_1060_5016" x1="107.131" y1="354.356" x2="107.131" y2="318.197" gradientUnits="userSpaceOnUse">
<stop stop-color="#FBE07A"/>
<stop offset="1" stop-color="white"/>
</linearGradient>
<radialGradient id="paint44_radial_1060_5016" cx="0" cy="0" r="1" gradientUnits="userSpaceOnUse" gradientTransform="translate(122.32 306.757) rotate(91.4584) scale(4.16818 3.41509)">
<stop stop-color="#512D00"/>
<stop offset="1" stop-color="#3C2200"/>
</radialGradient>
<radialGradient id="paint45_radial_1060_5016" cx="0" cy="0" r="1" gradientUnits="userSpaceOnUse" gradientTransform="translate(91.9406 306.799) rotate(88.5416) scale(4.16818 3.41509)">
<stop stop-color="#512D00"/>
<stop offset="1" stop-color="#3C2200"/>
</radialGradient>
<linearGradient id="paint46_linear_1060_5016" x1="120.621" y1="304.546" x2="122.428" y2="308.514" gradientUnits="userSpaceOnUse">
<stop stop-color="#A3541E"/>
<stop offset="1" stop-color="#512D00"/>
</linearGradient>
<linearGradient id="paint47_linear_1060_5016" x1="90.5639" y1="304.546" x2="92.3716" y2="308.514" gradientUnits="userSpaceOnUse">
<stop stop-color="#A3541E"/>
<stop offset="1" stop-color="#512D00"/>
</linearGradient>
<radialGradient id="paint48_radial_1060_5016" cx="0" cy="0" r="1" gradientUnits="userSpaceOnUse" gradientTransform="translate(105.317 297.661) scale(41.6962 41.2949)">
<stop stop-color="#FCCE38"/>
<stop offset="1" stop-color="#FF8000" stop-opacity="0"/>
</radialGradient>
<linearGradient id="paint49_linear_1060_5016" x1="108.138" y1="321.993" x2="102.317" y2="300.632" gradientUnits="userSpaceOnUse">
<stop stop-color="#FF6688"/>
<stop offset="1" stop-color="#FB9C9C"/>
</linearGradient>
<linearGradient id="paint50_linear_1060_5016" x1="106.067" y1="313.292" x2="107.141" y2="317.715" gradientUnits="userSpaceOnUse">
<stop stop-color="#FF6688"/>
<stop offset="1" stop-color="#FB9C9C"/>
</linearGradient>
<linearGradient id="paint51_linear_1060_5016" x1="88.7667" y1="369.917" x2="116.338" y2="340.161" gradientUnits="userSpaceOnUse">
<stop stop-color="#FCCE38"/>
<stop offset="1" stop-color="#C86F34"/>
</linearGradient>
<linearGradient id="paint52_linear_1060_5016" x1="81.9813" y1="360.723" x2="111.276" y2="339.493" gradientUnits="userSpaceOnUse">
<stop stop-color="#FCCE38"/>
<stop offset="1" stop-color="#C86F34"/>
</linearGradient>
<linearGradient id="paint53_linear_1060_5016" x1="101.446" y1="366.499" x2="120.526" y2="335.915" gradientUnits="userSpaceOnUse">
<stop stop-color="#FCCE38"/>
<stop offset="1" stop-color="#C86F34"/>
</linearGradient>
<linearGradient id="paint54_linear_1060_5016" x1="125.491" y1="369.916" x2="97.9194" y2="340.16" gradientUnits="userSpaceOnUse">
<stop stop-color="#FCCE38"/>
<stop offset="1" stop-color="#C86F34"/>
</linearGradient>
<linearGradient id="paint55_linear_1060_5016" x1="132.274" y1="360.744" x2="102.98" y2="339.513" gradientUnits="userSpaceOnUse">
<stop stop-color="#FCCE38"/>
<stop offset="1" stop-color="#C86F34"/>
</linearGradient>
<linearGradient id="paint56_linear_1060_5016" x1="112.81" y1="366.49" x2="93.7295" y2="335.907" gradientUnits="userSpaceOnUse">
<stop stop-color="#FCCE38"/>
<stop offset="1" stop-color="#C86F34"/>
</linearGradient>
<linearGradient id="paint57_linear_1060_5016" x1="122.725" y1="249.437" x2="97.8487" y2="299.488" gradientUnits="userSpaceOnUse">
<stop stop-color="#FBE07A"/>
<stop offset="1" stop-color="white"/>
</linearGradient>
<linearGradient id="paint58_linear_1060_5016" x1="279.118" y1="21.4247" x2="276.205" y2="83.5742" gradientUnits="userSpaceOnUse">
<stop stop-color="#FBDF79"/>
<stop offset="0.00397695" stop-color="#FBE07A"/>
<stop offset="1" stop-color="#FFBC47"/>
</linearGradient>
<radialGradient id="paint59_radial_1060_5016" cx="0" cy="0" r="1" gradientUnits="userSpaceOnUse" gradientTransform="translate(269.948 63.0017) scale(37.8101 37.4463)">
<stop stop-color="#FCCE38"/>
<stop offset="1" stop-color="#FF8000"/>
</radialGradient>
<linearGradient id="paint60_linear_1060_5016" x1="345.88" y1="21.4247" x2="348.793" y2="83.5742" gradientUnits="userSpaceOnUse">
<stop stop-color="#FBDF79"/>
<stop offset="0.00397695" stop-color="#FBE07A"/>
<stop offset="1" stop-color="#FFBC47"/>
</linearGradient>
<radialGradient id="paint61_radial_1060_5016" cx="0" cy="0" r="1" gradientUnits="userSpaceOnUse" gradientTransform="translate(355.07 63.0017) rotate(180) scale(37.8101 37.4462)">
<stop stop-color="#FCCE38"/>
<stop offset="1" stop-color="#FF8000"/>
</radialGradient>
<radialGradient id="paint62_radial_1060_5016" cx="0" cy="0" r="1" gradientUnits="userSpaceOnUse" gradientTransform="translate(323.413 29.5375) scale(65.1121 64.4855)">
<stop stop-color="#FBDF79"/>
<stop offset="0.00397695" stop-color="#FBE07A"/>
<stop offset="1" stop-color="#FFBC47"/>
</radialGradient>
<radialGradient id="paint63_radial_1060_5016" cx="0" cy="0" r="1" gradientUnits="userSpaceOnUse" gradientTransform="translate(319.33 113.133) scale(104.692 103.685)">
<stop stop-color="#FBDF79"/>
<stop offset="0.00397695" stop-color="#FBE07A"/>
<stop offset="1" stop-color="#FFBC47"/>
</radialGradient>
<linearGradient id="paint64_linear_1060_5016" x1="278.597" y1="28.0685" x2="278.597" y2="168.795" gradientUnits="userSpaceOnUse">
<stop stop-color="#FCCE38"/>
<stop offset="1" stop-color="#FF8000"/>
</linearGradient>
<radialGradient id="paint65_radial_1060_5016" cx="0" cy="0" r="1" gradientUnits="userSpaceOnUse" gradientTransform="translate(282.278 -2.14952) rotate(105.816) scale(65.6382 138.623)">
<stop stop-color="#E74A3A"/>
<stop offset="1" stop-color="#FF9D00"/>
</radialGradient>
<linearGradient id="paint66_linear_1060_5016" x1="346.4" y1="28.0685" x2="346.4" y2="168.795" gradientUnits="userSpaceOnUse">
<stop stop-color="#FCCE38"/>
<stop offset="1" stop-color="#FF8000"/>
</linearGradient>
<linearGradient id="paint67_linear_1060_5016" x1="312.497" y1="132.219" x2="312.497" y2="78.6372" gradientUnits="userSpaceOnUse">
<stop stop-color="#FBE07A"/>
<stop offset="1" stop-color="white"/>
</linearGradient>
<linearGradient id="paint68_linear_1060_5016" x1="312.5" y1="88.5024" x2="312.5" y2="112" gradientUnits="userSpaceOnUse">
<stop stop-color="#FBE07A"/>
<stop offset="1" stop-color="white"/>
</linearGradient>
<linearGradient id="paint69_linear_1060_5016" x1="312.447" y1="98.7838" x2="315.467" y2="115.451" gradientUnits="userSpaceOnUse">
<stop stop-color="#FF6688"/>
<stop offset="1" stop-color="#FB9C9C"/>
</linearGradient>
<linearGradient id="paint70_linear_1060_5016" x1="313.42" y1="103.414" x2="310.131" y2="86.8787" gradientUnits="userSpaceOnUse">
<stop stop-color="#FF6688"/>
<stop offset="1" stop-color="#B30B0B"/>
</linearGradient>
<linearGradient id="paint71_linear_1060_5016" x1="313.965" y1="103.302" x2="310.676" y2="86.7676" gradientUnits="userSpaceOnUse">
<stop stop-color="#FF6688"/>
<stop offset="1" stop-color="#B30B0B"/>
</linearGradient>
<linearGradient id="paint72_linear_1060_5016" x1="312.499" y1="127.599" x2="312.499" y2="81.1618" gradientUnits="userSpaceOnUse">
<stop stop-color="#FBE07A"/>
<stop offset="1" stop-color="white"/>
</linearGradient>
<radialGradient id="paint73_radial_1060_5016" cx="0" cy="0" r="1" gradientUnits="userSpaceOnUse" gradientTransform="translate(332.005 66.4692) rotate(91.4584) scale(5.3531 4.38593)">
<stop stop-color="#512D00"/>
<stop offset="1" stop-color="#3C2200"/>
</radialGradient>
<radialGradient id="paint74_radial_1060_5016" cx="0" cy="0" r="1" gradientUnits="userSpaceOnUse" gradientTransform="translate(292.992 66.523) rotate(88.5416) scale(5.3531 4.38592)">
<stop stop-color="#512D00"/>
<stop offset="1" stop-color="#3C2200"/>
</radialGradient>
<linearGradient id="paint75_linear_1060_5016" x1="329.824" y1="63.6305" x2="332.145" y2="68.7267" gradientUnits="userSpaceOnUse">
<stop stop-color="#A3541E"/>
<stop offset="1" stop-color="#512D00"/>
</linearGradient>
<linearGradient id="paint76_linear_1060_5016" x1="291.222" y1="63.6305" x2="293.544" y2="68.7267" gradientUnits="userSpaceOnUse">
<stop stop-color="#A3541E"/>
<stop offset="1" stop-color="#512D00"/>
</linearGradient>
<radialGradient id="paint77_radial_1060_5016" cx="0" cy="0" r="1" gradientUnits="userSpaceOnUse" gradientTransform="translate(310.17 54.7882) scale(53.5496 53.0343)">
<stop stop-color="#FCCE38"/>
<stop offset="1" stop-color="#FF8000" stop-opacity="0"/>
</radialGradient>
<linearGradient id="paint78_linear_1060_5016" x1="313.794" y1="86.0367" x2="306.318" y2="58.6036" gradientUnits="userSpaceOnUse">
<stop stop-color="#FF6688"/>
<stop offset="1" stop-color="#FB9C9C"/>
</linearGradient>
<linearGradient id="paint79_linear_1060_5016" x1="311.131" y1="74.8625" x2="312.511" y2="80.5426" gradientUnits="userSpaceOnUse">
<stop stop-color="#FF6688"/>
<stop offset="1" stop-color="#FB9C9C"/>
</linearGradient>
<linearGradient id="paint80_linear_1060_5016" x1="288.915" y1="147.585" x2="324.325" y2="109.369" gradientUnits="userSpaceOnUse">
<stop stop-color="#FCCE38"/>
<stop offset="1" stop-color="#C86F34"/>
</linearGradient>
<linearGradient id="paint81_linear_1060_5016" x1="280.199" y1="135.777" x2="317.822" y2="108.511" gradientUnits="userSpaceOnUse">
<stop stop-color="#FCCE38"/>
<stop offset="1" stop-color="#C86F34"/>
</linearGradient>
<linearGradient id="paint82_linear_1060_5016" x1="305.197" y1="143.195" x2="329.701" y2="103.917" gradientUnits="userSpaceOnUse">
<stop stop-color="#FCCE38"/>
<stop offset="1" stop-color="#C86F34"/>
</linearGradient>
<linearGradient id="paint83_linear_1060_5016" x1="336.077" y1="147.583" x2="300.668" y2="109.368" gradientUnits="userSpaceOnUse">
<stop stop-color="#FCCE38"/>
<stop offset="1" stop-color="#C86F34"/>
</linearGradient>
<linearGradient id="paint84_linear_1060_5016" x1="344.788" y1="135.804" x2="307.166" y2="108.538" gradientUnits="userSpaceOnUse">
<stop stop-color="#FCCE38"/>
<stop offset="1" stop-color="#C86F34"/>
</linearGradient>
<linearGradient id="paint85_linear_1060_5016" x1="319.793" y1="143.184" x2="295.288" y2="103.906" gradientUnits="userSpaceOnUse">
<stop stop-color="#FCCE38"/>
<stop offset="1" stop-color="#C86F34"/>
</linearGradient>
<linearGradient id="paint86_linear_1060_5016" x1="332.528" y1="-7.14522" x2="300.579" y2="57.1339" gradientUnits="userSpaceOnUse">
<stop stop-color="#FBE07A"/>
<stop offset="1" stop-color="white"/>
</linearGradient>
<linearGradient id="paint87_linear_1060_5016" x1="268.056" y1="271.844" x2="265.792" y2="320.143" gradientUnits="userSpaceOnUse">
<stop stop-color="#FBDF79"/>
<stop offset="0.00397695" stop-color="#FBE07A"/>
<stop offset="1" stop-color="#FFBC47"/>
</linearGradient>
<radialGradient id="paint88_radial_1060_5016" cx="0" cy="0" r="1" gradientUnits="userSpaceOnUse" gradientTransform="translate(260.931 304.155) scale(29.3839 29.1011)">
<stop stop-color="#FCCE38"/>
<stop offset="1" stop-color="#FF8000"/>
</radialGradient>
<linearGradient id="paint89_linear_1060_5016" x1="319.94" y1="271.844" x2="322.204" y2="320.143" gradientUnits="userSpaceOnUse">
<stop stop-color="#FBDF79"/>
<stop offset="0.00397695" stop-color="#FBE07A"/>
<stop offset="1" stop-color="#FFBC47"/>
</linearGradient>
<radialGradient id="paint90_radial_1060_5016" cx="0" cy="0" r="1" gradientUnits="userSpaceOnUse" gradientTransform="translate(327.084 304.155) rotate(180) scale(29.3838 29.1011)">
<stop stop-color="#FCCE38"/>
<stop offset="1" stop-color="#FF8000"/>
</radialGradient>
<radialGradient id="paint91_radial_1060_5016" cx="0" cy="0" r="1" gradientUnits="userSpaceOnUse" gradientTransform="translate(302.481 278.149) scale(50.6014 50.1144)">
<stop stop-color="#FBDF79"/>
<stop offset="0.00397695" stop-color="#FBE07A"/>
<stop offset="1" stop-color="#FFBC47"/>
</radialGradient>
<radialGradient id="paint92_radial_1060_5016" cx="0" cy="0" r="1" gradientUnits="userSpaceOnUse" gradientTransform="translate(299.308 343.114) scale(81.3608 80.5779)">
<stop stop-color="#FBDF79"/>
<stop offset="0.00397695" stop-color="#FBE07A"/>
<stop offset="1" stop-color="#FFBC47"/>
</radialGradient>
<linearGradient id="paint93_linear_1060_5016" x1="267.653" y1="277.007" x2="267.653" y2="386.372" gradientUnits="userSpaceOnUse">
<stop stop-color="#FCCE38"/>
<stop offset="1" stop-color="#FF8000"/>
</linearGradient>
<radialGradient id="paint94_radial_1060_5016" cx="0" cy="0" r="1" gradientUnits="userSpaceOnUse" gradientTransform="translate(270.513 253.523) rotate(105.816) scale(51.0103 107.73)">
<stop stop-color="#E74A3A"/>
<stop offset="1" stop-color="#FF9D00"/>
</radialGradient>
<linearGradient id="paint95_linear_1060_5016" x1="320.345" y1="277.007" x2="320.345" y2="386.372" gradientUnits="userSpaceOnUse">
<stop stop-color="#FCCE38"/>
<stop offset="1" stop-color="#FF8000"/>
</linearGradient>
<linearGradient id="paint96_linear_1060_5016" x1="293.998" y1="357.947" x2="293.998" y2="316.306" gradientUnits="userSpaceOnUse">
<stop stop-color="#FBE07A"/>
<stop offset="1" stop-color="white"/>
</linearGradient>
<linearGradient id="paint97_linear_1060_5016" x1="293.999" y1="323.973" x2="293.999" y2="342.234" gradientUnits="userSpaceOnUse">
<stop stop-color="#FBE07A"/>
<stop offset="1" stop-color="white"/>
</linearGradient>
<linearGradient id="paint98_linear_1060_5016" x1="293.958" y1="331.963" x2="296.305" y2="344.916" gradientUnits="userSpaceOnUse">
<stop stop-color="#FF6688"/>
<stop offset="1" stop-color="#FB9C9C"/>
</linearGradient>
<linearGradient id="paint99_linear_1060_5016" x1="294.714" y1="335.562" x2="292.158" y2="322.711" gradientUnits="userSpaceOnUse">
<stop stop-color="#FF6688"/>
<stop offset="1" stop-color="#B30B0B"/>
</linearGradient>
<linearGradient id="paint100_linear_1060_5016" x1="295.138" y1="335.474" x2="292.582" y2="322.625" gradientUnits="userSpaceOnUse">
<stop stop-color="#FF6688"/>
<stop offset="1" stop-color="#B30B0B"/>
</linearGradient>
<linearGradient id="paint101_linear_1060_5016" x1="294" y1="354.357" x2="294" y2="318.268" gradientUnits="userSpaceOnUse">
<stop stop-color="#FBE07A"/>
<stop offset="1" stop-color="white"/>
</linearGradient>
<radialGradient id="paint102_radial_1060_5016" cx="0" cy="0" r="1" gradientUnits="userSpaceOnUse" gradientTransform="translate(309.158 306.85) rotate(91.4584) scale(4.16013 3.40849)">
<stop stop-color="#512D00"/>
<stop offset="1" stop-color="#3C2200"/>
</radialGradient>
<radialGradient id="paint103_radial_1060_5016" cx="0" cy="0" r="1" gradientUnits="userSpaceOnUse" gradientTransform="translate(278.839 306.892) rotate(88.5416) scale(4.16013 3.40849)">
<stop stop-color="#512D00"/>
<stop offset="1" stop-color="#3C2200"/>
</radialGradient>
<linearGradient id="paint104_linear_1060_5016" x1="307.462" y1="304.644" x2="309.266" y2="308.604" gradientUnits="userSpaceOnUse">
<stop stop-color="#A3541E"/>
<stop offset="1" stop-color="#512D00"/>
</linearGradient>
<linearGradient id="paint105_linear_1060_5016" x1="277.464" y1="304.644" x2="279.268" y2="308.604" gradientUnits="userSpaceOnUse">
<stop stop-color="#A3541E"/>
<stop offset="1" stop-color="#512D00"/>
</linearGradient>
<radialGradient id="paint106_radial_1060_5016" cx="0" cy="0" r="1" gradientUnits="userSpaceOnUse" gradientTransform="translate(292.19 297.772) scale(41.6157 41.2152)">
<stop stop-color="#FCCE38"/>
<stop offset="1" stop-color="#FF8000" stop-opacity="0"/>
</radialGradient>
<linearGradient id="paint107_linear_1060_5016" x1="295.004" y1="322.057" x2="289.194" y2="300.737" gradientUnits="userSpaceOnUse">
<stop stop-color="#FF6688"/>
<stop offset="1" stop-color="#FB9C9C"/>
</linearGradient>
<linearGradient id="paint108_linear_1060_5016" x1="292.936" y1="313.373" x2="294.008" y2="317.787" gradientUnits="userSpaceOnUse">
<stop stop-color="#FF6688"/>
<stop offset="1" stop-color="#FB9C9C"/>
</linearGradient>
<linearGradient id="paint109_linear_1060_5016" x1="275.671" y1="369.888" x2="303.189" y2="340.189" gradientUnits="userSpaceOnUse">
<stop stop-color="#FCCE38"/>
<stop offset="1" stop-color="#C86F34"/>
</linearGradient>
<linearGradient id="paint110_linear_1060_5016" x1="268.898" y1="360.712" x2="298.136" y2="339.523" gradientUnits="userSpaceOnUse">
<stop stop-color="#FCCE38"/>
<stop offset="1" stop-color="#C86F34"/>
</linearGradient>
<linearGradient id="paint111_linear_1060_5016" x1="288.325" y1="366.477" x2="307.368" y2="335.952" gradientUnits="userSpaceOnUse">
<stop stop-color="#FCCE38"/>
<stop offset="1" stop-color="#C86F34"/>
</linearGradient>
<linearGradient id="paint112_linear_1060_5016" x1="312.322" y1="369.887" x2="284.804" y2="340.188" gradientUnits="userSpaceOnUse">
<stop stop-color="#FCCE38"/>
<stop offset="1" stop-color="#C86F34"/>
</linearGradient>
<linearGradient id="paint113_linear_1060_5016" x1="319.093" y1="360.733" x2="289.855" y2="339.543" gradientUnits="userSpaceOnUse">
<stop stop-color="#FCCE38"/>
<stop offset="1" stop-color="#C86F34"/>
</linearGradient>
<linearGradient id="paint114_linear_1060_5016" x1="299.667" y1="366.468" x2="280.624" y2="335.944" gradientUnits="userSpaceOnUse">
<stop stop-color="#FCCE38"/>
<stop offset="1" stop-color="#C86F34"/>
</linearGradient>
<linearGradient id="paint115_linear_1060_5016" x1="309.564" y1="249.641" x2="284.736" y2="299.595" gradientUnits="userSpaceOnUse">
<stop stop-color="#FBE07A"/>
<stop offset="1" stop-color="white"/>
</linearGradient>
</defs>
</svg>
