<svg width="380" height="157" viewBox="0 0 380 157" fill="none" xmlns="http://www.w3.org/2000/svg">
<circle cx="330.5" cy="73.5" r="48.5" fill="white" stroke="black" stroke-width="2"/>
<path d="M331.417 90.0204C331.196 90.0204 330.975 89.9362 330.807 89.7677C330.471 89.431 330.471 88.885 330.807 88.5482L337.546 81.8109C337.883 81.4744 338.429 81.4744 338.766 81.8112C339.102 82.148 339.102 82.694 338.766 83.0304L332.026 89.7677C331.858 89.9362 331.637 90.0204 331.417 90.0204Z" fill="#743629"/>
<path d="M330.394 94.9537C330.174 94.9537 329.953 94.8696 329.785 94.7011L323.047 87.962C322.711 87.6253 322.711 87.0793 323.048 86.7425C323.384 86.4061 323.93 86.4061 324.267 86.7429L331.004 93.4819C331.341 93.8187 331.341 94.3647 331.004 94.7011C330.836 94.8696 330.615 94.9537 330.394 94.9537Z" fill="#743629"/>
<path d="M345.753 60.3344C345.532 60.3344 345.311 60.2503 345.143 60.082C344.806 59.7452 344.806 59.1992 345.143 58.8626L351.882 52.1236C352.219 51.7869 352.765 51.7869 353.101 52.1236C353.438 52.4603 353.438 53.0063 353.101 53.3429L346.362 60.082C346.194 60.2503 345.974 60.3344 345.753 60.3344Z" fill="#743629"/>
<path d="M355.126 79.5137C356.851 79.5137 358.251 80.912 358.251 82.6382C358.251 84.3643 356.851 85.7647 355.126 85.7647C353.4 85.7647 352 84.3643 352 82.6382C352 80.912 353.4 79.5137 355.126 79.5137Z" fill="#EF3E5C"/>
<path d="M355.673 81.4392C356.739 81.4392 357.679 81.9744 358.243 82.7901C358.246 82.7392 358.251 82.6894 358.251 82.6382C358.251 80.912 356.851 79.5137 355.126 79.5137C353.4 79.5137 352 80.912 352 82.6382C352 83.2972 352.205 83.9079 352.554 84.4124C352.633 82.757 353.997 81.4392 355.673 81.4392Z" fill="#E42A53"/>
<path d="M345.603 74.9752C345.789 75.984 345.803 76.9688 345.636 77.8791C345.422 79.0414 344.911 80.0845 344.091 80.9074C343.251 81.747 342.178 82.2611 340.985 82.4661C340.095 82.6198 339.138 82.6008 338.158 82.4196C337.974 81.4246 337.957 80.452 338.119 79.5517C338.329 78.3739 338.84 77.317 339.671 76.4873C340.483 75.6753 341.511 75.1682 342.656 74.9492C343.579 74.7734 344.579 74.7839 345.603 74.9752Z" fill="#8EAA39"/>
<path d="M338.457 81.7073C338.667 80.5296 339.177 79.4727 340.009 78.643C340.821 77.831 341.849 77.3238 342.994 77.1048C343.853 76.9408 344.781 76.9408 345.732 77.0964C345.78 76.414 345.737 75.701 345.603 74.9752C344.579 74.7839 343.579 74.7734 342.656 74.9493C341.511 75.1683 340.483 75.6755 339.671 76.4875C338.84 77.3171 338.329 78.3738 338.119 79.5518C337.957 80.4521 337.974 81.4247 338.158 82.4197C338.227 82.4325 338.296 82.4426 338.365 82.4537C338.383 82.2004 338.413 81.9512 338.457 81.7073Z" fill="#7C912F"/>
<path d="M340.151 87.6067C340.929 88.0273 341.628 88.5982 342.217 89.2826C341.636 89.9569 340.95 90.5191 340.186 90.9384C339.213 91.473 338.115 91.7748 336.952 91.7748C335.764 91.7748 334.643 91.4592 333.654 90.9021C332.917 90.4865 332.253 89.9364 331.689 89.2826C332.262 88.6172 332.938 88.06 333.688 87.6427C334.669 87.0978 335.778 86.791 336.952 86.791C338.101 86.791 339.186 87.084 340.151 87.6067Z" fill="#8EAA39"/>
<path d="M340.151 87.6067C339.186 87.084 338.101 86.791 336.952 86.791C335.778 86.791 334.669 87.0978 333.688 87.6427C332.938 88.06 332.262 88.617 331.689 89.2826C331.726 89.3251 331.764 89.3654 331.801 89.407C332.085 89.1868 332.384 88.9876 332.696 88.8139C333.678 88.269 334.786 87.9619 335.961 87.9619C337.109 87.9619 338.194 88.2552 339.16 88.7776C339.889 89.1723 340.547 89.7001 341.113 90.3285C341.512 90.0207 341.882 89.671 342.217 89.2828C341.627 88.5982 340.929 88.0274 340.151 87.6067Z" fill="#7C912F"/>
<path d="M328.027 92.5722C328.779 92.9895 329.455 93.5465 330.028 94.2104C329.464 94.8658 328.8 95.4158 328.062 95.8313C327.072 96.3883 325.951 96.7024 324.763 96.7024C323.602 96.7024 322.504 96.4023 321.53 95.8677C320.767 95.4484 320.081 94.8846 319.5 94.2104C320.09 93.526 320.788 92.9567 321.566 92.5361C322.53 92.0135 323.616 91.7188 324.763 91.7188C325.937 91.7188 327.048 92.0273 328.027 92.5722Z" fill="#8EAA39"/>
<path d="M322.582 93.7863C323.546 93.2637 324.632 92.969 325.779 92.969C326.953 92.969 328.064 93.2775 329.043 93.8224C329.335 93.9847 329.616 94.1686 329.883 94.3711C329.932 94.3178 329.981 94.2654 330.028 94.2104C329.455 93.5465 328.779 92.9895 328.027 92.5722C327.048 92.0273 325.937 91.7188 324.763 91.7188C323.616 91.7188 322.53 92.0135 321.566 92.5361C320.788 92.9567 320.09 93.526 319.5 94.2104C319.85 94.6168 320.239 94.9824 320.66 95.3009C321.218 94.688 321.866 94.1737 322.582 93.7863Z" fill="#7C912F"/>
<path d="M323.699 84.4834C323.86 85.3838 323.844 86.3563 323.66 87.3496C322.678 87.5326 321.721 87.5496 320.833 87.3977C319.638 87.191 318.567 86.6786 317.728 85.8373C316.905 85.0165 316.396 83.973 316.182 82.8107C316.014 81.8987 316.027 80.9139 316.215 79.9068C317.24 79.7156 318.238 79.705 319.161 79.8809C320.307 80.0999 321.335 80.6071 322.147 81.4191C322.977 82.2488 323.489 83.306 323.699 84.4834Z" fill="#8EAA39"/>
<path d="M316.214 81.7097C317.238 81.5185 318.237 81.5079 319.159 81.6838C320.306 81.9028 321.334 82.41 322.146 83.222C322.976 84.0516 323.488 85.1087 323.698 86.2863C323.721 86.4174 323.74 86.5503 323.756 86.6842C323.84 85.9233 323.822 85.1817 323.698 84.4834C323.488 83.306 322.976 82.2488 322.146 81.4191C321.334 80.6071 320.306 80.0999 319.159 79.8809C318.237 79.705 317.238 79.7156 316.214 79.9068C316.056 80.7549 316.023 81.5867 316.117 82.3733C316.141 82.1532 316.173 81.9323 316.214 81.7097Z" fill="#7C912F"/>
<path d="M305.126 84.2012C306.853 84.2012 308.251 85.6012 308.251 87.3274C308.251 89.0535 306.853 90.4522 305.126 90.4522C303.4 90.4522 302 89.0535 302 87.3274C302 85.6012 303.4 84.2012 305.126 84.2012Z" fill="#EF3E5C"/>
<path d="M305.622 86.0334C306.722 86.0334 307.687 86.6033 308.244 87.4628C308.246 87.4176 308.251 87.3731 308.251 87.3274C308.251 85.6012 306.853 84.2012 305.126 84.2012C303.4 84.2012 302 85.6012 302 87.3274C302 87.9532 302.186 88.5345 302.503 89.0232C302.575 87.3607 303.942 86.0334 305.622 86.0334Z" fill="#E42A53"/>
<path d="M306.687 52.9512C308.413 52.9512 309.812 54.3497 309.812 56.0758C309.812 57.802 308.413 59.2005 306.687 59.2005C304.961 59.2005 303.562 57.802 303.562 56.0758C303.562 54.3497 304.961 52.9512 306.687 52.9512Z" fill="#EF3E5C"/>
<path d="M307.387 55.0493C308.363 55.0493 309.233 55.4961 309.806 56.1959C309.807 56.1557 309.812 56.1164 309.812 56.0758C309.812 54.3497 308.413 52.9512 306.687 52.9512C304.961 52.9512 303.562 54.3497 303.562 56.0758C303.562 56.8267 303.828 57.5152 304.269 58.0539C304.332 56.384 305.702 55.0493 307.387 55.0493Z" fill="#E42A53"/>
<path d="M354.485 57.9189C355.261 58.3397 355.961 58.9088 356.549 59.5934C355.97 60.2676 355.281 60.8315 354.519 61.2505C353.545 61.7851 352.448 62.0852 351.286 62.0852C350.098 62.0852 348.977 61.7713 347.987 61.2143C347.251 60.7987 346.587 60.2486 346.021 59.5934C346.596 58.9295 347.27 58.3725 348.022 57.9552C349.003 57.4085 350.112 57.1016 351.286 57.1016C352.434 57.1016 353.519 57.3964 354.485 57.9189Z" fill="#8EAA39"/>
<path d="M354.485 57.9189C353.519 57.3964 352.435 57.1016 351.286 57.1016C350.112 57.1016 349.003 57.4085 348.022 57.9552C347.27 58.3725 346.596 58.9295 346.021 59.5934C346.059 59.6372 346.099 59.6792 346.137 59.722C346.288 59.6222 346.442 59.527 346.6 59.4394C347.581 58.8927 348.69 58.5858 349.864 58.5858C351.013 58.5858 352.098 58.8807 353.063 59.4032C353.79 59.7974 354.449 60.323 355.013 60.9505C355.58 60.5756 356.098 60.1185 356.549 59.5934C355.961 58.9088 355.261 58.3397 354.485 57.9189Z" fill="#7C912F"/>
<path d="M358.848 46.1498C359.036 47.1586 359.05 48.1433 358.883 49.0555C358.667 50.2178 358.158 51.261 357.336 52.0819C356.496 52.9217 355.425 53.4356 354.23 53.6425C353.342 53.7942 352.385 53.777 351.405 53.5942C351.219 52.5992 351.204 51.6284 351.364 50.7282C351.575 49.5504 352.087 48.4933 352.916 47.6622C353.728 46.8517 354.756 46.3447 355.903 46.1257C356.825 45.9496 357.824 45.96 358.848 46.1498Z" fill="#8EAA39"/>
<path d="M351.365 52.7154C351.575 51.5376 352.087 50.4805 352.917 49.6494C353.729 48.8389 354.757 48.3319 355.904 48.1129C356.826 47.937 357.825 47.9474 358.849 48.137C358.885 48.3319 358.913 48.5256 358.936 48.7185C359.044 47.9025 359.014 47.0353 358.849 46.1495C357.825 45.9598 356.826 45.9494 355.904 46.1253C354.757 46.3443 353.729 46.8513 352.917 47.6618C352.087 48.493 351.575 49.55 351.365 50.7278C351.236 51.453 351.223 52.2241 351.319 53.0167C351.332 52.9154 351.347 52.8147 351.365 52.7154Z" fill="#7C912F"/>
<path d="M330.909 102.254C330.433 102.254 330.047 101.868 330.047 101.391V70.1396C330.047 69.6633 330.433 69.2773 330.909 69.2773C331.385 69.2773 331.771 69.6633 331.771 70.1396V101.391C331.771 101.868 331.385 102.254 330.909 102.254Z" fill="#743629"/>
<path d="M344.19 102.252H309.813C309.337 102.252 308.951 101.866 308.951 101.39C308.951 100.913 309.337 100.527 309.813 100.527H344.19C344.666 100.527 345.052 100.913 345.052 101.39C345.052 101.866 344.666 102.252 344.19 102.252Z" fill="#743629"/>
<path d="M331.985 58.9521C333.514 59.547 334.269 61.268 333.676 62.7958C333.081 64.3237 331.362 65.0807 329.832 64.4858C328.305 63.8926 327.548 62.1716 328.142 60.6437C328.736 59.1159 330.457 58.3589 331.985 58.9521Z" fill="#FFC230"/>
<path d="M328.893 62.282C329.486 60.7541 331.207 59.9971 332.735 60.5903C333.179 60.7631 333.556 61.0328 333.856 61.3634C333.727 60.3121 333.041 59.3632 331.984 58.9521C330.456 58.3589 328.735 59.1159 328.142 60.6437C327.72 61.7279 327.981 62.9072 328.712 63.7139C328.655 63.244 328.709 62.7539 328.893 62.282Z" fill="#E5A423"/>
<path d="M339.058 61.5427C342.908 63.7155 345.223 65.8624 344.742 67.1003C344.26 68.3383 341.103 68.3575 336.797 67.3573C337.982 71.6166 338.103 74.7725 336.885 75.3071C335.669 75.8417 333.424 73.6223 331.084 69.8715C328.913 73.7203 326.766 76.0365 325.526 75.5552C324.288 75.0726 324.271 71.9151 325.269 67.6091C321.01 68.7955 317.856 68.9144 317.32 67.6987C316.785 66.4814 319.004 64.2362 322.755 61.8979C318.906 59.7251 316.59 57.5782 317.073 56.3401C317.554 55.1019 320.712 55.083 325.018 56.0814C323.831 51.8238 323.712 48.6681 324.93 48.1335C326.145 47.5972 328.391 49.8166 330.729 53.5689C332.902 49.7183 335.049 47.4041 336.287 47.8852C337.527 48.3663 337.544 51.5237 336.545 55.8296C340.805 54.645 343.959 54.526 344.493 55.7417C345.03 56.9574 342.81 59.2044 339.058 61.5427ZM333.674 62.7963C334.267 61.2685 333.512 59.5475 331.982 58.9526C330.454 58.3594 328.733 59.1164 328.14 60.6443C327.545 62.1721 328.302 63.8931 329.83 64.4863C331.36 65.0812 333.079 64.3242 333.674 62.7963Z" fill="#EF3E5C"/>
<path d="M319.261 59.6048C318.887 59.0542 318.755 58.5669 318.909 58.1724C319.39 56.9342 322.548 56.9153 326.854 57.9137C325.667 53.6561 325.548 50.5004 326.766 49.9658C327.229 49.7611 327.844 49.9587 328.555 50.4886C327.068 48.683 325.761 47.7687 324.933 48.1341C323.716 48.6687 323.835 51.8244 325.021 56.082C320.715 55.0836 317.558 55.1025 317.077 56.3407C316.768 57.1334 317.607 58.2988 319.261 59.6048Z" fill="#E42A53"/>
<path fill-rule="evenodd" clip-rule="evenodd" d="M12.2053 25.7768C0.152687 25.8072 0.03125 32.8505 0.03125 37.3133V95.0867L62.6621 43.4458C62.6621 43.4458 45.661 25.6554 12.2053 25.7464V25.7768Z" fill="#FFB5AF"/>
<path fill-rule="evenodd" clip-rule="evenodd" d="M163.909 95.115H163.97C163.97 89.4075 163.939 80.3909 162.695 77.2942C159.81 70.0991 153.131 57.5304 139.318 48.3923L93.5972 37.4023C50.6087 39.5882 12.2347 69.1276 3.61274 80.3909C0.607183 84.3072 0 90.8648 0 95.0543H163.909V95.115Z" fill="#B1DD8C"/>
<path fill-rule="evenodd" clip-rule="evenodd" d="M90.8031 77.5676C90.8031 77.5676 110.263 69.1581 131.272 77.5676L134.399 156.167H24.2559L38.4336 82.9108L90.7727 77.5676H90.8031Z" fill="#53D5FD"/>
<path fill-rule="evenodd" clip-rule="evenodd" d="M163.969 99.4263C163.969 90.349 163.969 77.5678 144.661 77.5678C144.661 77.5678 136.525 77.6285 131.273 77.5678C122.742 77.5071 111.995 79.4501 98.4848 84.4897C77.0513 93.3242 53.7658 115.335 91.7451 125.201C114.059 131 121.892 140.654 124.563 147.667C126.263 152.099 129.633 156.168 134.43 156.168L156.653 132.821L164 102.614V99.4263H163.969Z" fill="#669C35"/>
<path fill-rule="evenodd" clip-rule="evenodd" d="M5.28338 156.197C2.3689 156.197 0.03125 153.86 0.03125 150.945V95.0845C0.03125 91.5628 1.21526 77.7191 17.1538 77.5977H90.805C90.805 77.5977 59.778 88.4359 46.3896 112.996C34.3371 135.098 53.1901 156.197 24.2882 156.197H5.28338Z" fill="#669C35"/>
<path fill-rule="evenodd" clip-rule="evenodd" d="M163.971 125.17V102.613C161.512 102.795 159.174 103.737 157.261 105.285L150.825 110.446C148.852 112.055 147.789 114.544 148.032 117.064L148.791 125.261L164.001 125.2L163.971 125.17Z" fill="#FCBFAD"/>
<path fill-rule="evenodd" clip-rule="evenodd" d="M155.802 123.441C154.041 123.38 152.31 123.714 150.671 124.412L143.081 127.63C140.743 128.632 139.043 130.727 138.588 133.247L134.398 156.168H158.716C161.631 156.168 163.968 153.83 163.968 150.916V125.171L158.382 123.805C157.532 123.592 156.652 123.471 155.771 123.441H155.802Z" fill="#B1DD8C"/>
<path fill-rule="evenodd" clip-rule="evenodd" d="M85.4918 9.89844C81.5451 9.89844 78.3574 13.0861 78.3574 17.0328C78.3574 20.9795 81.5451 24.1672 85.4918 24.1672H101.886C104.648 24.1672 106.865 26.4138 106.865 29.1765C106.865 31.9392 104.648 34.1554 101.886 34.1857H99.5785C95.6318 34.1857 92.4441 37.3734 92.4441 41.3201C92.4441 45.2668 95.6318 48.4545 99.5785 48.4545H152.1C156.046 48.4545 159.234 45.2668 159.234 41.3201C159.234 37.3734 156.046 34.1857 152.1 34.1857H138.165C135.402 34.1857 133.156 31.9392 133.156 29.1765C133.156 26.4138 135.402 24.1672 138.165 24.1672H142.324C146.271 24.1672 149.458 20.9795 149.458 17.0328C149.458 13.0861 146.271 9.89844 142.324 9.89844H85.4918Z" fill="#D4E3FE"/>
<path fill-rule="evenodd" clip-rule="evenodd" d="M28.1435 0H47.5126C51.3378 0 54.4041 3.06627 54.4041 6.89152C54.4041 10.7168 51.3378 13.783 47.5126 13.783H28.1435C24.3182 13.783 21.252 10.7168 21.252 6.89152C21.252 3.06627 24.3182 0 28.1435 0Z" fill="#D4E3FE"/>
<path fill-rule="evenodd" clip-rule="evenodd" d="M25.3498 98.1211C23.68 98.1211 22.3138 99.4873 22.3138 101.157V103.13C21.312 102.614 20.0673 101.977 20.0673 101.977C18.4582 101.582 16.7885 102.584 16.3938 104.193C16.3331 104.436 16.3027 104.679 16.3027 104.922C16.3027 106.318 17.2742 107.532 18.61 107.866C18.61 107.866 21.2513 108.231 22.4353 112.208C22.8299 113.483 24.014 114.363 25.3498 114.363C26.6856 114.363 27.8696 113.483 28.2642 112.208C29.4786 108.261 32.0895 107.866 32.0895 107.866C33.4253 107.532 34.3968 106.318 34.3968 104.922C34.3968 104.679 34.3968 104.436 34.3057 104.193C33.911 102.584 32.2413 101.582 30.6322 101.977C30.6322 101.977 29.3875 102.614 28.3857 103.13V101.157C28.3857 99.4873 27.0195 98.1211 25.3498 98.1211Z" fill="#FF8C82"/>
<path fill-rule="evenodd" clip-rule="evenodd" d="M110.265 102.494C108.595 102.494 107.229 103.86 107.229 105.53V107.503C106.227 106.987 104.982 106.35 104.982 106.35C103.373 105.955 101.703 106.957 101.309 108.566C100.914 110.175 101.916 111.845 103.525 112.239C103.525 112.239 106.166 112.604 107.35 116.581C107.745 117.856 108.929 118.736 110.265 118.736C111.6 118.736 112.784 117.856 113.179 116.581C114.393 112.634 117.004 112.239 117.004 112.239C118.613 111.845 119.615 110.175 119.221 108.566C118.887 107.23 117.672 106.259 116.276 106.259C116.033 106.259 115.79 106.259 115.547 106.35C115.547 106.35 114.302 106.987 113.301 107.503V105.53C113.301 103.86 111.934 102.494 110.265 102.494Z" fill="#FF8C82"/>
<path fill-rule="evenodd" clip-rule="evenodd" d="M135.856 88.4375C134.187 88.4375 132.821 89.8037 132.821 91.4734V93.4468C131.819 92.9307 130.574 92.2931 130.574 92.2931C128.965 91.8984 127.295 92.9003 126.9 94.5093C126.506 96.1184 127.508 97.7881 129.117 98.1828C129.117 98.1828 131.758 98.5471 132.942 102.524C133.337 103.799 134.521 104.68 135.856 104.68C137.192 104.68 138.376 103.799 138.771 102.524C139.985 98.5774 142.596 98.1828 142.596 98.1828C144.205 97.7881 145.207 96.1184 144.812 94.5093C144.418 92.9003 142.748 91.8984 141.139 92.2931C141.139 92.2931 139.894 92.9307 138.892 93.4468V91.4734C138.892 89.8037 137.526 88.4375 135.856 88.4375Z" fill="#FF8C82"/>
<circle cx="135.5" cy="96.4238" r="14.5" stroke="black" stroke-width="2"/>
<line x1="132.724" y1="82.071" x2="311.93" y2="28.6472" stroke="black" stroke-width="2"/>
<line x1="136.056" y1="111.002" x2="331.056" y2="122.002" stroke="black" stroke-width="2"/>
</svg>
