<svg width="309" height="216" viewBox="0 0 309 216" fill="none" xmlns="http://www.w3.org/2000/svg">
<path d="M211.122 35.6364V19.2727H214.906V20.5256H212.554V34.3835H214.906V35.6364H211.122ZM217.644 35.6364V19.2727H221.428V20.5256H219.075V34.3835H221.428V35.6364H217.644ZM223.398 34V32.8494L227.719 28.1193C228.226 27.5653 228.644 27.0838 228.972 26.6747C229.3 26.2614 229.543 25.8736 229.701 25.5114C229.863 25.1449 229.944 24.7614 229.944 24.3608C229.944 23.9006 229.833 23.5021 229.611 23.1655C229.394 22.8288 229.096 22.5689 228.716 22.3857C228.337 22.2024 227.911 22.1108 227.438 22.1108C226.935 22.1108 226.496 22.2152 226.121 22.424C225.75 22.6286 225.463 22.9162 225.258 23.2869C225.058 23.6577 224.958 24.0923 224.958 24.5909H223.449C223.449 23.8239 223.626 23.1506 223.98 22.571C224.333 21.9915 224.815 21.5398 225.424 21.2159C226.038 20.892 226.726 20.7301 227.489 20.7301C228.256 20.7301 228.936 20.892 229.528 21.2159C230.12 21.5398 230.585 21.9766 230.922 22.5263C231.258 23.076 231.426 23.6875 231.426 24.3608C231.426 24.8423 231.339 25.3132 231.164 25.7734C230.994 26.2294 230.696 26.7386 230.27 27.3011C229.848 27.8594 229.262 28.5412 228.512 29.3466L225.571 32.4915V32.5938H231.657V34H223.398ZM238.566 34.179C237.603 34.179 236.783 33.9169 236.105 33.3928C235.428 32.8643 234.91 32.0994 234.552 31.098C234.194 30.0923 234.015 28.8778 234.015 27.4545C234.015 26.0398 234.194 24.8317 234.552 23.8303C234.914 22.8246 235.434 22.0575 236.112 21.5291C236.794 20.9964 237.612 20.7301 238.566 20.7301C239.521 20.7301 240.337 20.9964 241.015 21.5291C241.696 22.0575 242.216 22.8246 242.574 23.8303C242.936 24.8317 243.118 26.0398 243.118 27.4545C243.118 28.8778 242.939 30.0923 242.581 31.098C242.223 32.0994 241.705 32.8643 241.027 33.3928C240.35 33.9169 239.529 34.179 238.566 34.179ZM238.566 32.7727C239.521 32.7727 240.262 32.3125 240.791 31.392C241.319 30.4716 241.583 29.1591 241.583 27.4545C241.583 26.321 241.462 25.3558 241.219 24.5589C240.98 23.7621 240.635 23.1548 240.184 22.7372C239.736 22.3196 239.197 22.1108 238.566 22.1108C237.62 22.1108 236.881 22.5774 236.348 23.5107C235.816 24.4396 235.549 25.7543 235.549 27.4545C235.549 28.5881 235.669 29.5511 235.907 30.3438C236.146 31.1364 236.489 31.7393 236.936 32.1527C237.388 32.5661 237.931 32.7727 238.566 32.7727ZM255.211 20.9091V34H253.626V22.571H253.549L250.353 24.6932V23.0824L253.626 20.9091H255.211ZM263.246 34.179C262.283 34.179 261.463 33.9169 260.785 33.3928C260.108 32.8643 259.59 32.0994 259.232 31.098C258.874 30.0923 258.695 28.8778 258.695 27.4545C258.695 26.0398 258.874 24.8317 259.232 23.8303C259.594 22.8246 260.114 22.0575 260.792 21.5291C261.473 20.9964 262.292 20.7301 263.246 20.7301C264.201 20.7301 265.017 20.9964 265.694 21.5291C266.376 22.0575 266.896 22.8246 267.254 23.8303C267.616 24.8317 267.797 26.0398 267.797 27.4545C267.797 28.8778 267.618 30.0923 267.26 31.098C266.902 32.0994 266.385 32.8643 265.707 33.3928C265.029 33.9169 264.209 34.179 263.246 34.179ZM263.246 32.7727C264.201 32.7727 264.942 32.3125 265.471 31.392C265.999 30.4716 266.263 29.1591 266.263 27.4545C266.263 26.321 266.142 25.3558 265.899 24.5589C265.66 23.7621 265.315 23.1548 264.863 22.7372C264.416 22.3196 263.877 22.1108 263.246 22.1108C262.3 22.1108 261.561 22.5774 261.028 23.5107C260.495 24.4396 260.229 25.7543 260.229 27.4545C260.229 28.5881 260.348 29.5511 260.587 30.3438C260.826 31.1364 261.169 31.7393 261.616 32.1527C262.068 32.5661 262.611 32.7727 263.246 32.7727ZM275.289 34V32.8494L279.61 28.1193C280.117 27.5653 280.534 27.0838 280.863 26.6747C281.191 26.2614 281.434 25.8736 281.591 25.5114C281.753 25.1449 281.834 24.7614 281.834 24.3608C281.834 23.9006 281.723 23.5021 281.502 23.1655C281.284 22.8288 280.986 22.5689 280.607 22.3857C280.228 22.2024 279.801 22.1108 279.328 22.1108C278.826 22.1108 278.387 22.2152 278.012 22.424C277.641 22.6286 277.353 22.9162 277.149 23.2869C276.949 23.6577 276.848 24.0923 276.848 24.5909H275.34C275.34 23.8239 275.517 23.1506 275.87 22.571C276.224 21.9915 276.706 21.5398 277.315 21.2159C277.929 20.892 278.617 20.7301 279.38 20.7301C280.147 20.7301 280.826 20.892 281.419 21.2159C282.011 21.5398 282.475 21.9766 282.812 22.5263C283.149 23.076 283.317 23.6875 283.317 24.3608C283.317 24.8423 283.23 25.3132 283.055 25.7734C282.885 26.2294 282.586 26.7386 282.16 27.3011C281.738 27.8594 281.152 28.5412 280.402 29.3466L277.462 32.4915V32.5938H283.547V34H275.289ZM290.457 34.179C289.494 34.179 288.674 33.9169 287.996 33.3928C287.319 32.8643 286.801 32.0994 286.443 31.098C286.085 30.0923 285.906 28.8778 285.906 27.4545C285.906 26.0398 286.085 24.8317 286.443 23.8303C286.805 22.8246 287.325 22.0575 288.002 21.5291C288.684 20.9964 289.502 20.7301 290.457 20.7301C291.412 20.7301 292.228 20.9964 292.905 21.5291C293.587 22.0575 294.107 22.8246 294.465 23.8303C294.827 24.8317 295.008 26.0398 295.008 27.4545C295.008 28.8778 294.829 30.0923 294.471 31.098C294.113 32.0994 293.596 32.8643 292.918 33.3928C292.24 33.9169 291.42 34.179 290.457 34.179ZM290.457 32.7727C291.412 32.7727 292.153 32.3125 292.681 31.392C293.21 30.4716 293.474 29.1591 293.474 27.4545C293.474 26.321 293.353 25.3558 293.11 24.5589C292.871 23.7621 292.526 23.1548 292.074 22.7372C291.627 22.3196 291.088 22.1108 290.457 22.1108C289.511 22.1108 288.772 22.5774 288.239 23.5107C287.706 24.4396 287.44 25.7543 287.44 27.4545C287.44 28.5881 287.559 29.5511 287.798 30.3438C288.037 31.1364 288.38 31.7393 288.827 32.1527C289.279 32.5661 289.822 32.7727 290.457 32.7727ZM300.48 19.2727V35.6364H296.696V34.3835H299.048V20.5256H296.696V19.2727H300.48ZM211.122 67.6364V51.2727H214.906V52.5256H212.554V66.3835H214.906V67.6364H211.122ZM221.3 66.179C220.456 66.179 219.704 66.0341 219.044 65.7443C218.387 65.4545 217.865 65.0518 217.477 64.5362C217.094 64.0163 216.885 63.4134 216.851 62.7273H218.462C218.496 63.1491 218.641 63.5135 218.896 63.8203C219.152 64.1229 219.487 64.3572 219.9 64.5234C220.313 64.6896 220.771 64.7727 221.274 64.7727C221.837 64.7727 222.335 64.6747 222.77 64.4787C223.205 64.2827 223.546 64.0099 223.793 63.6605C224.04 63.3111 224.164 62.9062 224.164 62.446C224.164 61.9645 224.044 61.5405 223.806 61.174C223.567 60.8033 223.218 60.5135 222.757 60.3047C222.297 60.0959 221.735 59.9915 221.07 59.9915H220.021V58.5852H221.07C221.59 58.5852 222.046 58.4915 222.438 58.304C222.834 58.1165 223.143 57.8523 223.365 57.5114C223.59 57.1705 223.703 56.7699 223.703 56.3097C223.703 55.8665 223.605 55.4808 223.409 55.1527C223.213 54.8246 222.936 54.5689 222.578 54.3857C222.225 54.2024 221.807 54.1108 221.325 54.1108C220.874 54.1108 220.448 54.1939 220.047 54.3601C219.651 54.522 219.327 54.7585 219.075 55.0696C218.824 55.3764 218.688 55.7472 218.666 56.1818H217.132C217.158 55.4957 217.365 54.8949 217.752 54.3793C218.14 53.8594 218.647 53.4545 219.274 53.1648C219.904 52.875 220.597 52.7301 221.351 52.7301C222.161 52.7301 222.855 52.8942 223.435 53.2223C224.014 53.5462 224.46 53.9744 224.771 54.5071C225.082 55.0398 225.237 55.6151 225.237 56.233C225.237 56.9702 225.044 57.5987 224.656 58.1186C224.272 58.6385 223.75 58.9986 223.09 59.1989V59.3011C223.916 59.4375 224.562 59.7891 225.026 60.3558C225.491 60.9183 225.723 61.6151 225.723 62.446C225.723 63.1577 225.529 63.7969 225.142 64.3636C224.758 64.9261 224.234 65.3693 223.569 65.6932C222.904 66.017 222.148 66.179 221.3 66.179ZM232.607 66.179C231.644 66.179 230.824 65.9169 230.146 65.3928C229.469 64.8643 228.951 64.0994 228.593 63.098C228.235 62.0923 228.056 60.8778 228.056 59.4545C228.056 58.0398 228.235 56.8317 228.593 55.8303C228.955 54.8246 229.475 54.0575 230.153 53.5291C230.835 52.9964 231.653 52.7301 232.607 52.7301C233.562 52.7301 234.378 52.9964 235.056 53.5291C235.737 54.0575 236.257 54.8246 236.615 55.8303C236.977 56.8317 237.159 58.0398 237.159 59.4545C237.159 60.8778 236.98 62.0923 236.622 63.098C236.264 64.0994 235.746 64.8643 235.068 65.3928C234.391 65.9169 233.57 66.179 232.607 66.179ZM232.607 64.7727C233.562 64.7727 234.303 64.3125 234.832 63.392C235.36 62.4716 235.624 61.1591 235.624 59.4545C235.624 58.321 235.503 57.3558 235.26 56.5589C235.021 55.7621 234.676 55.1548 234.225 54.7372C233.777 54.3196 233.238 54.1108 232.607 54.1108C231.661 54.1108 230.922 54.5774 230.389 55.5107C229.857 56.4396 229.59 57.7543 229.59 59.4545C229.59 60.5881 229.71 61.5511 229.948 62.3438C230.187 63.1364 230.53 63.7393 230.977 64.1527C231.429 64.5661 231.972 64.7727 232.607 64.7727ZM248.741 66.179C247.991 66.179 247.316 66.0298 246.715 65.7315C246.114 65.4332 245.632 65.0241 245.27 64.5043C244.908 63.9844 244.71 63.392 244.676 62.7273H246.21C246.269 63.3196 246.538 63.8097 247.015 64.1974C247.497 64.581 248.072 64.7727 248.741 64.7727C249.278 64.7727 249.755 64.647 250.173 64.3956C250.595 64.1442 250.925 63.799 251.164 63.3601C251.406 62.9169 251.528 62.4162 251.528 61.858C251.528 61.2869 251.402 60.7777 251.151 60.3303C250.904 59.8786 250.563 59.5227 250.128 59.2628C249.693 59.0028 249.197 58.8707 248.639 58.8665C248.238 58.8622 247.827 58.924 247.405 59.0518C246.983 59.1754 246.636 59.3352 246.363 59.5312L244.88 59.3523L245.673 52.9091H252.474V54.3153H247.002L246.542 58.1761H246.619C246.887 57.9631 247.224 57.7862 247.629 57.6456C248.034 57.505 248.455 57.4347 248.894 57.4347C249.695 57.4347 250.409 57.6264 251.036 58.0099C251.666 58.3892 252.161 58.9091 252.519 59.5696C252.881 60.2301 253.062 60.9844 253.062 61.8324C253.062 62.6676 252.874 63.4134 252.499 64.0696C252.129 64.7216 251.617 65.2372 250.965 65.6165C250.313 65.9915 249.572 66.179 248.741 66.179ZM259.871 66.179C258.908 66.179 258.088 65.9169 257.41 65.3928C256.733 64.8643 256.215 64.0994 255.857 63.098C255.499 62.0923 255.32 60.8778 255.32 59.4545C255.32 58.0398 255.499 56.8317 255.857 55.8303C256.219 54.8246 256.739 54.0575 257.417 53.5291C258.098 52.9964 258.917 52.7301 259.871 52.7301C260.826 52.7301 261.642 52.9964 262.319 53.5291C263.001 54.0575 263.521 54.8246 263.879 55.8303C264.241 56.8317 264.422 58.0398 264.422 59.4545C264.422 60.8778 264.243 62.0923 263.885 63.098C263.527 64.0994 263.01 64.8643 262.332 65.3928C261.654 65.9169 260.834 66.179 259.871 66.179ZM259.871 64.7727C260.826 64.7727 261.567 64.3125 262.096 63.392C262.624 62.4716 262.888 61.1591 262.888 59.4545C262.888 58.321 262.767 57.3558 262.524 56.5589C262.285 55.7621 261.94 55.1548 261.488 54.7372C261.041 54.3196 260.502 54.1108 259.871 54.1108C258.925 54.1108 258.186 54.5774 257.653 55.5107C257.12 56.4396 256.854 57.7543 256.854 59.4545C256.854 60.5881 256.973 61.5511 257.212 62.3438C257.451 63.1364 257.794 63.7393 258.241 64.1527C258.693 64.5661 259.236 64.7727 259.871 64.7727ZM276.337 66.179C275.493 66.179 274.741 66.0341 274.081 65.7443C273.424 65.4545 272.902 65.0518 272.515 64.5362C272.131 64.0163 271.922 63.4134 271.888 62.7273H273.499C273.533 63.1491 273.678 63.5135 273.934 63.8203C274.189 64.1229 274.524 64.3572 274.937 64.5234C275.35 64.6896 275.809 64.7727 276.311 64.7727C276.874 64.7727 277.373 64.6747 277.807 64.4787C278.242 64.2827 278.583 64.0099 278.83 63.6605C279.077 63.3111 279.201 62.9062 279.201 62.446C279.201 61.9645 279.081 61.5405 278.843 61.174C278.604 60.8033 278.255 60.5135 277.794 60.3047C277.334 60.0959 276.772 59.9915 276.107 59.9915H275.059V58.5852H276.107C276.627 58.5852 277.083 58.4915 277.475 58.304C277.871 58.1165 278.18 57.8523 278.402 57.5114C278.627 57.1705 278.74 56.7699 278.74 56.3097C278.74 55.8665 278.642 55.4808 278.446 55.1527C278.25 54.8246 277.973 54.5689 277.615 54.3857C277.262 54.2024 276.844 54.1108 276.363 54.1108C275.911 54.1108 275.485 54.1939 275.084 54.3601C274.688 54.522 274.364 54.7585 274.113 55.0696C273.861 55.3764 273.725 55.7472 273.703 56.1818H272.169C272.195 55.4957 272.402 54.8949 272.789 54.3793C273.177 53.8594 273.684 53.4545 274.311 53.1648C274.941 52.875 275.634 52.7301 276.388 52.7301C277.198 52.7301 277.892 52.8942 278.472 53.2223C279.051 53.5462 279.497 53.9744 279.808 54.5071C280.119 55.0398 280.275 55.6151 280.275 56.233C280.275 56.9702 280.081 57.5987 279.693 58.1186C279.309 58.6385 278.787 58.9986 278.127 59.1989V59.3011C278.953 59.4375 279.599 59.7891 280.064 60.3558C280.528 60.9183 280.76 61.6151 280.76 62.446C280.76 63.1577 280.566 63.7969 280.179 64.3636C279.795 64.9261 279.271 65.3693 278.606 65.6932C277.941 66.017 277.185 66.179 276.337 66.179ZM287.645 66.179C286.681 66.179 285.861 65.9169 285.184 65.3928C284.506 64.8643 283.988 64.0994 283.63 63.098C283.272 62.0923 283.093 60.8778 283.093 59.4545C283.093 58.0398 283.272 56.8317 283.63 55.8303C283.993 54.8246 284.512 54.0575 285.19 53.5291C285.872 52.9964 286.69 52.7301 287.645 52.7301C288.599 52.7301 289.415 52.9964 290.093 53.5291C290.775 54.0575 291.294 54.8246 291.652 55.8303C292.015 56.8317 292.196 58.0398 292.196 59.4545C292.196 60.8778 292.017 62.0923 291.659 63.098C291.301 64.0994 290.783 64.8643 290.105 65.3928C289.428 65.9169 288.608 66.179 287.645 66.179ZM287.645 64.7727C288.599 64.7727 289.341 64.3125 289.869 63.392C290.397 62.4716 290.662 61.1591 290.662 59.4545C290.662 58.321 290.54 57.3558 290.297 56.5589C290.059 55.7621 289.713 55.1548 289.262 54.7372C288.814 54.3196 288.275 54.1108 287.645 54.1108C286.699 54.1108 285.959 54.5774 285.426 55.5107C284.894 56.4396 284.627 57.7543 284.627 59.4545C284.627 60.5881 284.747 61.5511 284.985 62.3438C285.224 63.1364 285.567 63.7393 286.015 64.1527C286.466 64.5661 287.01 64.7727 287.645 64.7727ZM297.667 51.2727V67.6364H293.883V66.3835H296.235V52.5256H293.883V51.2727H297.667ZM211.122 99.6364V83.2727H214.906V84.5256H212.554V98.3835H214.906V99.6364H211.122ZM216.57 95.3153V94.0114L222.323 84.9091H223.269V86.929H222.629L218.283 93.8068V93.9091H226.03V95.3153H216.57ZM222.732 98V94.919V94.3118V84.9091H224.24V98H222.732ZM232.695 98.179C231.732 98.179 230.912 97.9169 230.234 97.3928C229.557 96.8643 229.039 96.0994 228.681 95.098C228.323 94.0923 228.144 92.8778 228.144 91.4545C228.144 90.0398 228.323 88.8317 228.681 87.8303C229.043 86.8246 229.563 86.0575 230.241 85.5291C230.923 84.9964 231.741 84.7301 232.695 84.7301C233.65 84.7301 234.466 84.9964 235.143 85.5291C235.825 86.0575 236.345 86.8246 236.703 87.8303C237.065 88.8317 237.246 90.0398 237.246 91.4545C237.246 92.8778 237.067 94.0923 236.71 95.098C236.352 96.0994 235.834 96.8643 235.156 97.3928C234.479 97.9169 233.658 98.179 232.695 98.179ZM232.695 96.7727C233.65 96.7727 234.391 96.3125 234.92 95.392C235.448 94.4716 235.712 93.1591 235.712 91.4545C235.712 90.321 235.591 89.3558 235.348 88.5589C235.109 87.7621 234.764 87.1548 234.312 86.7372C233.865 86.3196 233.326 86.1108 232.695 86.1108C231.749 86.1108 231.01 86.5774 230.477 87.5107C229.945 88.4396 229.678 89.7543 229.678 91.4545C229.678 92.5881 229.798 93.5511 230.036 94.3438C230.275 95.1364 230.618 95.7393 231.065 96.1527C231.517 96.5661 232.06 96.7727 232.695 96.7727ZM244.431 95.3153V94.0114L250.184 84.9091H251.13V86.929H250.491L246.144 93.8068V93.9091H253.891V95.3153H244.431ZM250.593 98V94.919V94.3118V84.9091H252.102V98H250.593ZM260.557 98.179C259.594 98.179 258.773 97.9169 258.096 97.3928C257.418 96.8643 256.9 96.0994 256.542 95.098C256.184 94.0923 256.006 92.8778 256.006 91.4545C256.006 90.0398 256.184 88.8317 256.542 87.8303C256.905 86.8246 257.425 86.0575 258.102 85.5291C258.784 84.9964 259.602 84.7301 260.557 84.7301C261.511 84.7301 262.327 84.9964 263.005 85.5291C263.687 86.0575 264.206 86.8246 264.564 87.8303C264.927 88.8317 265.108 90.0398 265.108 91.4545C265.108 92.8778 264.929 94.0923 264.571 95.098C264.213 96.0994 263.695 96.8643 263.018 97.3928C262.34 97.9169 261.52 98.179 260.557 98.179ZM260.557 96.7727C261.511 96.7727 262.253 96.3125 262.781 95.392C263.309 94.4716 263.574 93.1591 263.574 91.4545C263.574 90.321 263.452 89.3558 263.209 88.5589C262.971 87.7621 262.626 87.1548 262.174 86.7372C261.726 86.3196 261.187 86.1108 260.557 86.1108C259.611 86.1108 258.871 86.5774 258.339 87.5107C257.806 88.4396 257.54 89.7543 257.54 91.4545C257.54 92.5881 257.659 93.5511 257.898 94.3438C258.136 95.1364 258.479 95.7393 258.927 96.1527C259.378 96.5661 259.922 96.7727 260.557 96.7727ZM277.023 98.179C276.179 98.179 275.427 98.0341 274.766 97.7443C274.11 97.4545 273.588 97.0518 273.2 96.5362C272.817 96.0163 272.608 95.4134 272.574 94.7273H274.184C274.219 95.1491 274.363 95.5135 274.619 95.8203C274.875 96.1229 275.209 96.3572 275.623 96.5234C276.036 96.6896 276.494 96.7727 276.997 96.7727C277.559 96.7727 278.058 96.6747 278.493 96.4787C278.927 96.2827 279.268 96.0099 279.515 95.6605C279.763 95.3111 279.886 94.9062 279.886 94.446C279.886 93.9645 279.767 93.5405 279.528 93.174C279.29 92.8033 278.94 92.5135 278.48 92.3047C278.02 92.0959 277.457 91.9915 276.792 91.9915H275.744V90.5852H276.792C277.312 90.5852 277.768 90.4915 278.16 90.304C278.557 90.1165 278.866 89.8523 279.087 89.5114C279.313 89.1705 279.426 88.7699 279.426 88.3097C279.426 87.8665 279.328 87.4808 279.132 87.1527C278.936 86.8246 278.659 86.5689 278.301 86.3857C277.947 86.2024 277.53 86.1108 277.048 86.1108C276.596 86.1108 276.17 86.1939 275.77 86.3601C275.373 86.522 275.05 86.7585 274.798 87.0696C274.547 87.3764 274.41 87.7472 274.389 88.1818H272.855C272.881 87.4957 273.087 86.8949 273.475 86.3793C273.863 85.8594 274.37 85.4545 274.996 85.1648C275.627 84.875 276.319 84.7301 277.074 84.7301C277.883 84.7301 278.578 84.8942 279.157 85.2223C279.737 85.5462 280.182 85.9744 280.493 86.5071C280.805 87.0398 280.96 87.6151 280.96 88.233C280.96 88.9702 280.766 89.5987 280.378 90.1186C279.995 90.6385 279.473 90.9986 278.812 91.1989V91.3011C279.639 91.4375 280.285 91.7891 280.749 92.3558C281.214 92.9183 281.446 93.6151 281.446 94.446C281.446 95.1577 281.252 95.7969 280.864 96.3636C280.481 96.9261 279.956 97.3693 279.292 97.6932C278.627 98.017 277.871 98.179 277.023 98.179ZM288.33 98.179C287.367 98.179 286.547 97.9169 285.869 97.3928C285.192 96.8643 284.674 96.0994 284.316 95.098C283.958 94.0923 283.779 92.8778 283.779 91.4545C283.779 90.0398 283.958 88.8317 284.316 87.8303C284.678 86.8246 285.198 86.0575 285.876 85.5291C286.557 84.9964 287.376 84.7301 288.33 84.7301C289.285 84.7301 290.101 84.9964 290.778 85.5291C291.46 86.0575 291.98 86.8246 292.338 87.8303C292.7 88.8317 292.881 90.0398 292.881 91.4545C292.881 92.8778 292.702 94.0923 292.344 95.098C291.986 96.0994 291.469 96.8643 290.791 97.3928C290.113 97.9169 289.293 98.179 288.33 98.179ZM288.33 96.7727C289.285 96.7727 290.026 96.3125 290.555 95.392C291.083 94.4716 291.347 93.1591 291.347 91.4545C291.347 90.321 291.226 89.3558 290.983 88.5589C290.744 87.7621 290.399 87.1548 289.947 86.7372C289.5 86.3196 288.961 86.1108 288.33 86.1108C287.384 86.1108 286.645 86.5774 286.112 87.5107C285.579 88.4396 285.313 89.7543 285.313 91.4545C285.313 92.5881 285.432 93.5511 285.671 94.3438C285.91 95.1364 286.253 95.7393 286.7 96.1527C287.152 96.5661 287.695 96.7727 288.33 96.7727ZM298.353 83.2727V99.6364H294.569V98.3835H296.921V84.5256H294.569V83.2727H298.353ZM304.874 83.2727V99.6364H301.09V98.3835H303.442V84.5256H301.09V83.2727H304.874Z" fill="black"/>
<rect x="1" y="1" width="40" height="40" fill="white" stroke="#AFAFAF" stroke-width="2"/>
<rect x="40" y="1" width="40" height="40" fill="white" stroke="#AFAFAF" stroke-width="2"/>
<rect x="78" y="1" width="40" height="40" fill="white" stroke="#AFAFAF" stroke-width="2"/>
<rect x="1" y="77" width="40" height="40" fill="white" stroke="#AFAFAF" stroke-width="2"/>
<rect x="40" y="77" width="40" height="40" fill="white" stroke="#AFAFAF" stroke-width="2"/>
<rect x="78" y="77" width="40" height="40" fill="white" stroke="#AFAFAF" stroke-width="2"/>
<rect x="1" y="39" width="40" height="40" fill="white" stroke="#AFAFAF" stroke-width="2"/>
<rect x="40" y="39" width="40" height="40" fill="#FFDBDB" stroke="#AFAFAF" stroke-width="2"/>
<rect x="78" y="39" width="40" height="40" fill="white" stroke="#AFAFAF" stroke-width="2"/>
<path d="M13.2045 27V25.9773L17.0455 21.7727C17.4962 21.2803 17.8674 20.8523 18.1591 20.4886C18.4508 20.1212 18.6667 19.7765 18.8068 19.4545C18.9508 19.1288 19.0227 18.7879 19.0227 18.4318C19.0227 18.0227 18.9242 17.6686 18.7273 17.3693C18.5341 17.0701 18.2689 16.839 17.9318 16.6761C17.5947 16.5133 17.2159 16.4318 16.7955 16.4318C16.3485 16.4318 15.9583 16.5246 15.625 16.7102C15.2955 16.892 15.0398 17.1477 14.858 17.4773C14.6799 17.8068 14.5909 18.1932 14.5909 18.6364H13.25C13.25 17.9545 13.4072 17.3561 13.7216 16.8409C14.036 16.3258 14.464 15.9242 15.0057 15.6364C15.5511 15.3485 16.1629 15.2045 16.8409 15.2045C17.5227 15.2045 18.1269 15.3485 18.6534 15.6364C19.1799 15.9242 19.5928 16.3125 19.892 16.8011C20.1913 17.2898 20.3409 17.8333 20.3409 18.4318C20.3409 18.8598 20.2633 19.2784 20.108 19.6875C19.9564 20.0928 19.6913 20.5455 19.3125 21.0455C18.9375 21.5417 18.4167 22.1477 17.75 22.8636L15.1364 25.6591V25.75H20.5455V27H13.2045ZM26.6875 27.1591C25.8314 27.1591 25.1023 26.9261 24.5 26.4602C23.8977 25.9905 23.4375 25.3106 23.1193 24.4205C22.8011 23.5265 22.642 22.447 22.642 21.1818C22.642 19.9242 22.8011 18.8504 23.1193 17.9602C23.4413 17.0663 23.9034 16.3845 24.5057 15.9148C25.1117 15.4413 25.839 15.2045 26.6875 15.2045C27.536 15.2045 28.2614 15.4413 28.8636 15.9148C29.4697 16.3845 29.9318 17.0663 30.25 17.9602C30.572 18.8504 30.733 19.9242 30.733 21.1818C30.733 22.447 30.5739 23.5265 30.2557 24.4205C29.9375 25.3106 29.4773 25.9905 28.875 26.4602C28.2727 26.9261 27.5436 27.1591 26.6875 27.1591ZM26.6875 25.9091C27.536 25.9091 28.1951 25.5 28.6648 24.6818C29.1345 23.8636 29.3693 22.697 29.3693 21.1818C29.3693 20.1742 29.2614 19.3163 29.0455 18.608C28.8333 17.8996 28.5265 17.3598 28.125 16.9886C27.7273 16.6174 27.2481 16.4318 26.6875 16.4318C25.8466 16.4318 25.1894 16.8466 24.7159 17.6761C24.2424 18.5019 24.0057 19.6705 24.0057 21.1818C24.0057 22.1894 24.1117 23.0455 24.3239 23.75C24.536 24.4545 24.8409 24.9905 25.2386 25.358C25.6402 25.7254 26.1231 25.9091 26.6875 25.9091Z" fill="black"/>
<path d="M10.9318 100.614V99.4545L16.0455 91.3636H16.8864V93.1591H16.3182L12.4545 99.2727V99.3636H19.3409V100.614H10.9318ZM16.4091 103V100.261V99.7216V91.3636H17.75V103H16.4091ZM25.2656 103.159C24.4096 103.159 23.6804 102.926 23.0781 102.46C22.4759 101.991 22.0156 101.311 21.6974 100.42C21.3793 99.5265 21.2202 98.447 21.2202 97.1818C21.2202 95.9242 21.3793 94.8504 21.6974 93.9602C22.0194 93.0663 22.4815 92.3845 23.0838 91.9148C23.6899 91.4413 24.4171 91.2045 25.2656 91.2045C26.1141 91.2045 26.8395 91.4413 27.4418 91.9148C28.0478 92.3845 28.5099 93.0663 28.8281 93.9602C29.1501 94.8504 29.3111 95.9242 29.3111 97.1818C29.3111 98.447 29.152 99.5265 28.8338 100.42C28.5156 101.311 28.0554 101.991 27.4531 102.46C26.8509 102.926 26.1217 103.159 25.2656 103.159ZM25.2656 101.909C26.1141 101.909 26.7732 101.5 27.2429 100.682C27.7126 99.8636 27.9474 98.697 27.9474 97.1818C27.9474 96.1742 27.8395 95.3163 27.6236 94.608C27.4115 93.8996 27.1046 93.3598 26.7031 92.9886C26.3054 92.6174 25.8262 92.4318 25.2656 92.4318C24.4247 92.4318 23.7675 92.8466 23.294 93.6761C22.8205 94.5019 22.5838 95.6705 22.5838 97.1818C22.5838 98.1894 22.6899 99.0455 22.902 99.75C23.1141 100.455 23.419 100.991 23.8168 101.358C24.2183 101.725 24.7012 101.909 25.2656 101.909Z" fill="black"/>
<path d="M17.1364 65.1591C16.3864 65.1591 15.7178 65.0303 15.1307 64.7727C14.5473 64.5152 14.0833 64.1572 13.7386 63.6989C13.3977 63.2367 13.2121 62.7008 13.1818 62.0909H14.6136C14.6439 62.4659 14.7727 62.7898 15 63.0625C15.2273 63.3314 15.5246 63.5398 15.892 63.6875C16.2595 63.8352 16.6667 63.9091 17.1136 63.9091C17.6136 63.9091 18.0568 63.822 18.4432 63.6477C18.8295 63.4735 19.1326 63.2311 19.3523 62.9205C19.572 62.6098 19.6818 62.25 19.6818 61.8409C19.6818 61.4129 19.5758 61.036 19.3636 60.7102C19.1515 60.3807 18.8409 60.1231 18.4318 59.9375C18.0227 59.7519 17.5227 59.6591 16.9318 59.6591H16V58.4091H16.9318C17.3939 58.4091 17.7992 58.3258 18.1477 58.1591C18.5 57.9924 18.7746 57.7576 18.9716 57.4545C19.1723 57.1515 19.2727 56.7955 19.2727 56.3864C19.2727 55.9924 19.1856 55.6496 19.0114 55.358C18.8371 55.0663 18.5909 54.839 18.2727 54.6761C17.9583 54.5133 17.5871 54.4318 17.1591 54.4318C16.7576 54.4318 16.3788 54.5057 16.0227 54.6534C15.6705 54.7973 15.3826 55.0076 15.1591 55.2841C14.9356 55.5568 14.8144 55.8864 14.7955 56.2727H13.4318C13.4545 55.6629 13.6383 55.1288 13.983 54.6705C14.3277 54.2083 14.7784 53.8485 15.3352 53.5909C15.8958 53.3333 16.5114 53.2045 17.1818 53.2045C17.9015 53.2045 18.5189 53.3504 19.0341 53.642C19.5492 53.9299 19.9451 54.3106 20.2216 54.7841C20.4981 55.2576 20.6364 55.7689 20.6364 56.3182C20.6364 56.9735 20.464 57.5322 20.1193 57.9943C19.7784 58.4564 19.3144 58.7765 18.7273 58.9545V59.0455C19.4621 59.1667 20.036 59.4792 20.4489 59.983C20.8617 60.483 21.0682 61.1023 21.0682 61.8409C21.0682 62.4735 20.8958 63.0417 20.5511 63.5455C20.2102 64.0455 19.7443 64.4394 19.1534 64.7273C18.5625 65.0152 17.8902 65.1591 17.1364 65.1591ZM27.1875 65.1591C26.3314 65.1591 25.6023 64.9261 25 64.4602C24.3977 63.9905 23.9375 63.3106 23.6193 62.4205C23.3011 61.5265 23.142 60.447 23.142 59.1818C23.142 57.9242 23.3011 56.8504 23.6193 55.9602C23.9413 55.0663 24.4034 54.3845 25.0057 53.9148C25.6117 53.4413 26.339 53.2045 27.1875 53.2045C28.036 53.2045 28.7614 53.4413 29.3636 53.9148C29.9697 54.3845 30.4318 55.0663 30.75 55.9602C31.072 56.8504 31.233 57.9242 31.233 59.1818C31.233 60.447 31.0739 61.5265 30.7557 62.4205C30.4375 63.3106 29.9773 63.9905 29.375 64.4602C28.7727 64.9261 28.0436 65.1591 27.1875 65.1591ZM27.1875 63.9091C28.036 63.9091 28.6951 63.5 29.1648 62.6818C29.6345 61.8636 29.8693 60.697 29.8693 59.1818C29.8693 58.1742 29.7614 57.3163 29.5455 56.608C29.3333 55.8996 29.0265 55.3598 28.625 54.9886C28.2273 54.6174 27.7481 54.4318 27.1875 54.4318C26.3466 54.4318 25.6894 54.8466 25.2159 55.6761C24.7424 56.5019 24.5057 57.6705 24.5057 59.1818C24.5057 60.1894 24.6117 61.0455 24.8239 61.75C25.036 62.4545 25.3409 62.9905 25.7386 63.358C26.1402 63.7254 26.6231 63.9091 27.1875 63.9091Z" fill="black"/>
<path d="M89.2045 27V25.9773L93.0455 21.7727C93.4962 21.2803 93.8674 20.8523 94.1591 20.4886C94.4508 20.1212 94.6667 19.7765 94.8068 19.4545C94.9508 19.1288 95.0227 18.7879 95.0227 18.4318C95.0227 18.0227 94.9242 17.6686 94.7273 17.3693C94.5341 17.0701 94.2689 16.839 93.9318 16.6761C93.5947 16.5133 93.2159 16.4318 92.7955 16.4318C92.3485 16.4318 91.9583 16.5246 91.625 16.7102C91.2955 16.892 91.0398 17.1477 90.858 17.4773C90.6799 17.8068 90.5909 18.1932 90.5909 18.6364H89.25C89.25 17.9545 89.4072 17.3561 89.7216 16.8409C90.036 16.3258 90.464 15.9242 91.0057 15.6364C91.5511 15.3485 92.1629 15.2045 92.8409 15.2045C93.5227 15.2045 94.1269 15.3485 94.6534 15.6364C95.1799 15.9242 95.5928 16.3125 95.892 16.8011C96.1913 17.2898 96.3409 17.8333 96.3409 18.4318C96.3409 18.8598 96.2633 19.2784 96.108 19.6875C95.9564 20.0928 95.6913 20.5455 95.3125 21.0455C94.9375 21.5417 94.4167 22.1477 93.75 22.8636L91.1364 25.6591V25.75H96.5455V27H89.2045ZM102.688 27.1591C101.831 27.1591 101.102 26.9261 100.5 26.4602C99.8977 25.9905 99.4375 25.3106 99.1193 24.4205C98.8011 23.5265 98.642 22.447 98.642 21.1818C98.642 19.9242 98.8011 18.8504 99.1193 17.9602C99.4413 17.0663 99.9034 16.3845 100.506 15.9148C101.112 15.4413 101.839 15.2045 102.688 15.2045C103.536 15.2045 104.261 15.4413 104.864 15.9148C105.47 16.3845 105.932 17.0663 106.25 17.9602C106.572 18.8504 106.733 19.9242 106.733 21.1818C106.733 22.447 106.574 23.5265 106.256 24.4205C105.938 25.3106 105.477 25.9905 104.875 26.4602C104.273 26.9261 103.544 27.1591 102.688 27.1591ZM102.688 25.9091C103.536 25.9091 104.195 25.5 104.665 24.6818C105.134 23.8636 105.369 22.697 105.369 21.1818C105.369 20.1742 105.261 19.3163 105.045 18.608C104.833 17.8996 104.527 17.3598 104.125 16.9886C103.727 16.6174 103.248 16.4318 102.688 16.4318C101.847 16.4318 101.189 16.8466 100.716 17.6761C100.242 18.5019 100.006 19.6705 100.006 21.1818C100.006 22.1894 100.112 23.0455 100.324 23.75C100.536 24.4545 100.841 24.9905 101.239 25.358C101.64 25.7254 102.123 25.9091 102.688 25.9091Z" fill="black"/>
<path d="M93.1364 103.159C92.3864 103.159 91.7178 103.03 91.1307 102.773C90.5473 102.515 90.0833 102.157 89.7386 101.699C89.3977 101.237 89.2121 100.701 89.1818 100.091H90.6136C90.6439 100.466 90.7727 100.79 91 101.062C91.2273 101.331 91.5246 101.54 91.892 101.688C92.2595 101.835 92.6667 101.909 93.1136 101.909C93.6136 101.909 94.0568 101.822 94.4432 101.648C94.8295 101.473 95.1326 101.231 95.3523 100.92C95.572 100.61 95.6818 100.25 95.6818 99.8409C95.6818 99.4129 95.5758 99.036 95.3636 98.7102C95.1515 98.3807 94.8409 98.1231 94.4318 97.9375C94.0227 97.7519 93.5227 97.6591 92.9318 97.6591H92V96.4091H92.9318C93.3939 96.4091 93.7992 96.3258 94.1477 96.1591C94.5 95.9924 94.7746 95.7576 94.9716 95.4545C95.1723 95.1515 95.2727 94.7955 95.2727 94.3864C95.2727 93.9924 95.1856 93.6496 95.0114 93.358C94.8371 93.0663 94.5909 92.839 94.2727 92.6761C93.9583 92.5133 93.5871 92.4318 93.1591 92.4318C92.7576 92.4318 92.3788 92.5057 92.0227 92.6534C91.6705 92.7973 91.3826 93.0076 91.1591 93.2841C90.9356 93.5568 90.8144 93.8864 90.7955 94.2727H89.4318C89.4545 93.6629 89.6383 93.1288 89.983 92.6705C90.3277 92.2083 90.7784 91.8485 91.3352 91.5909C91.8958 91.3333 92.5114 91.2045 93.1818 91.2045C93.9015 91.2045 94.5189 91.3504 95.0341 91.642C95.5492 91.9299 95.9451 92.3106 96.2216 92.7841C96.4981 93.2576 96.6364 93.7689 96.6364 94.3182C96.6364 94.9735 96.464 95.5322 96.1193 95.9943C95.7784 96.4564 95.3144 96.7765 94.7273 96.9545V97.0455C95.4621 97.1667 96.036 97.4792 96.4489 97.983C96.8617 98.483 97.0682 99.1023 97.0682 99.8409C97.0682 100.473 96.8958 101.042 96.5511 101.545C96.2102 102.045 95.7443 102.439 95.1534 102.727C94.5625 103.015 93.8902 103.159 93.1364 103.159ZM103.188 103.159C102.331 103.159 101.602 102.926 101 102.46C100.398 101.991 99.9375 101.311 99.6193 100.42C99.3011 99.5265 99.142 98.447 99.142 97.1818C99.142 95.9242 99.3011 94.8504 99.6193 93.9602C99.9413 93.0663 100.403 92.3845 101.006 91.9148C101.612 91.4413 102.339 91.2045 103.188 91.2045C104.036 91.2045 104.761 91.4413 105.364 91.9148C105.97 92.3845 106.432 93.0663 106.75 93.9602C107.072 94.8504 107.233 95.9242 107.233 97.1818C107.233 98.447 107.074 99.5265 106.756 100.42C106.438 101.311 105.977 101.991 105.375 102.46C104.773 102.926 104.044 103.159 103.188 103.159ZM103.188 101.909C104.036 101.909 104.695 101.5 105.165 100.682C105.634 99.8636 105.869 98.697 105.869 97.1818C105.869 96.1742 105.761 95.3163 105.545 94.608C105.333 93.8996 105.027 93.3598 104.625 92.9886C104.227 92.6174 103.748 92.4318 103.188 92.4318C102.347 92.4318 101.689 92.8466 101.216 93.6761C100.742 94.5019 100.506 95.6705 100.506 97.1818C100.506 98.1894 100.612 99.0455 100.824 99.75C101.036 100.455 101.341 100.991 101.739 101.358C102.14 101.725 102.623 101.909 103.188 101.909Z" fill="black"/>
<path d="M93.1364 65.1591C92.3864 65.1591 91.7178 65.0303 91.1307 64.7727C90.5473 64.5152 90.0833 64.1572 89.7386 63.6989C89.3977 63.2367 89.2121 62.7008 89.1818 62.0909H90.6136C90.6439 62.4659 90.7727 62.7898 91 63.0625C91.2273 63.3314 91.5246 63.5398 91.892 63.6875C92.2595 63.8352 92.6667 63.9091 93.1136 63.9091C93.6136 63.9091 94.0568 63.822 94.4432 63.6477C94.8295 63.4735 95.1326 63.2311 95.3523 62.9205C95.572 62.6098 95.6818 62.25 95.6818 61.8409C95.6818 61.4129 95.5758 61.036 95.3636 60.7102C95.1515 60.3807 94.8409 60.1231 94.4318 59.9375C94.0227 59.7519 93.5227 59.6591 92.9318 59.6591H92V58.4091H92.9318C93.3939 58.4091 93.7992 58.3258 94.1477 58.1591C94.5 57.9924 94.7746 57.7576 94.9716 57.4545C95.1723 57.1515 95.2727 56.7955 95.2727 56.3864C95.2727 55.9924 95.1856 55.6496 95.0114 55.358C94.8371 55.0663 94.5909 54.839 94.2727 54.6761C93.9583 54.5133 93.5871 54.4318 93.1591 54.4318C92.7576 54.4318 92.3788 54.5057 92.0227 54.6534C91.6705 54.7973 91.3826 55.0076 91.1591 55.2841C90.9356 55.5568 90.8144 55.8864 90.7955 56.2727H89.4318C89.4545 55.6629 89.6383 55.1288 89.983 54.6705C90.3277 54.2083 90.7784 53.8485 91.3352 53.5909C91.8958 53.3333 92.5114 53.2045 93.1818 53.2045C93.9015 53.2045 94.5189 53.3504 95.0341 53.642C95.5492 53.9299 95.9451 54.3106 96.2216 54.7841C96.4981 55.2576 96.6364 55.7689 96.6364 56.3182C96.6364 56.9735 96.464 57.5322 96.1193 57.9943C95.7784 58.4564 95.3144 58.7765 94.7273 58.9545V59.0455C95.4621 59.1667 96.036 59.4792 96.4489 59.983C96.8617 60.483 97.0682 61.1023 97.0682 61.8409C97.0682 62.4735 96.8958 63.0417 96.5511 63.5455C96.2102 64.0455 95.7443 64.4394 95.1534 64.7273C94.5625 65.0152 93.8902 65.1591 93.1364 65.1591ZM103.188 65.1591C102.331 65.1591 101.602 64.9261 101 64.4602C100.398 63.9905 99.9375 63.3106 99.6193 62.4205C99.3011 61.5265 99.142 60.447 99.142 59.1818C99.142 57.9242 99.3011 56.8504 99.6193 55.9602C99.9413 55.0663 100.403 54.3845 101.006 53.9148C101.612 53.4413 102.339 53.2045 103.188 53.2045C104.036 53.2045 104.761 53.4413 105.364 53.9148C105.97 54.3845 106.432 55.0663 106.75 55.9602C107.072 56.8504 107.233 57.9242 107.233 59.1818C107.233 60.447 107.074 61.5265 106.756 62.4205C106.438 63.3106 105.977 63.9905 105.375 64.4602C104.773 64.9261 104.044 65.1591 103.188 65.1591ZM103.188 63.9091C104.036 63.9091 104.695 63.5 105.165 62.6818C105.634 61.8636 105.869 60.697 105.869 59.1818C105.869 58.1742 105.761 57.3163 105.545 56.608C105.333 55.8996 105.027 55.3598 104.625 54.9886C104.227 54.6174 103.748 54.4318 103.188 54.4318C102.347 54.4318 101.689 54.8466 101.216 55.6761C100.742 56.5019 100.506 57.6705 100.506 59.1818C100.506 60.1894 100.612 61.0455 100.824 61.75C101.036 62.4545 101.341 62.9905 101.739 63.358C102.14 63.7254 102.623 63.9091 103.188 63.9091Z" fill="black"/>
<path d="M54.2955 15.3636V27H52.8864V16.8409H52.8182L49.9773 18.7273V17.2955L52.8864 15.3636H54.2955ZM61.4375 27.1591C60.5814 27.1591 59.8523 26.9261 59.25 26.4602C58.6477 25.9905 58.1875 25.3106 57.8693 24.4205C57.5511 23.5265 57.392 22.447 57.392 21.1818C57.392 19.9242 57.5511 18.8504 57.8693 17.9602C58.1913 17.0663 58.6534 16.3845 59.2557 15.9148C59.8617 15.4413 60.589 15.2045 61.4375 15.2045C62.286 15.2045 63.0114 15.4413 63.6136 15.9148C64.2197 16.3845 64.6818 17.0663 65 17.9602C65.322 18.8504 65.483 19.9242 65.483 21.1818C65.483 22.447 65.3239 23.5265 65.0057 24.4205C64.6875 25.3106 64.2273 25.9905 63.625 26.4602C63.0227 26.9261 62.2936 27.1591 61.4375 27.1591ZM61.4375 25.9091C62.286 25.9091 62.9451 25.5 63.4148 24.6818C63.8845 23.8636 64.1193 22.697 64.1193 21.1818C64.1193 20.1742 64.0114 19.3163 63.7955 18.608C63.5833 17.8996 63.2765 17.3598 62.875 16.9886C62.4773 16.6174 61.9981 16.4318 61.4375 16.4318C60.5966 16.4318 59.9394 16.8466 59.4659 17.6761C58.9924 18.5019 58.7557 19.6705 58.7557 21.1818C58.7557 22.1894 58.8617 23.0455 59.0739 23.75C59.286 24.4545 59.5909 24.9905 59.9886 25.358C60.3902 25.7254 60.8731 25.9091 61.4375 25.9091Z" fill="black"/>
<path d="M49.9318 100.614V99.4545L55.0455 91.3636H55.8864V93.1591H55.3182L51.4545 99.2727V99.3636H58.3409V100.614H49.9318ZM55.4091 103V100.261V99.7216V91.3636H56.75V103H55.4091ZM64.2656 103.159C63.4096 103.159 62.6804 102.926 62.0781 102.46C61.4759 101.991 61.0156 101.311 60.6974 100.42C60.3793 99.5265 60.2202 98.447 60.2202 97.1818C60.2202 95.9242 60.3793 94.8504 60.6974 93.9602C61.0194 93.0663 61.4815 92.3845 62.0838 91.9148C62.6899 91.4413 63.4171 91.2045 64.2656 91.2045C65.1141 91.2045 65.8395 91.4413 66.4418 91.9148C67.0478 92.3845 67.5099 93.0663 67.8281 93.9602C68.1501 94.8504 68.3111 95.9242 68.3111 97.1818C68.3111 98.447 68.152 99.5265 67.8338 100.42C67.5156 101.311 67.0554 101.991 66.4531 102.46C65.8509 102.926 65.1217 103.159 64.2656 103.159ZM64.2656 101.909C65.1141 101.909 65.7732 101.5 66.2429 100.682C66.7126 99.8636 66.9474 98.697 66.9474 97.1818C66.9474 96.1742 66.8395 95.3163 66.6236 94.608C66.4115 93.8996 66.1046 93.3598 65.7031 92.9886C65.3054 92.6174 64.8262 92.4318 64.2656 92.4318C63.4247 92.4318 62.7675 92.8466 62.294 93.6761C61.8205 94.5019 61.5838 95.6705 61.5838 97.1818C61.5838 98.1894 61.6899 99.0455 61.902 99.75C62.1141 100.455 62.419 100.991 62.8168 101.358C63.2183 101.725 63.7012 101.909 64.2656 101.909Z" fill="black"/>
<path d="M53.8409 65.1591C53.1742 65.1591 52.5739 65.0265 52.0398 64.7614C51.5057 64.4962 51.0777 64.1326 50.7557 63.6705C50.4337 63.2083 50.2576 62.6818 50.2273 62.0909H51.5909C51.6439 62.6174 51.8826 63.053 52.3068 63.3977C52.7348 63.7386 53.2462 63.9091 53.8409 63.9091C54.3182 63.9091 54.7424 63.7973 55.1136 63.5739C55.4886 63.3504 55.7822 63.0436 55.9943 62.6534C56.2102 62.2595 56.3182 61.8144 56.3182 61.3182C56.3182 60.8106 56.2064 60.358 55.983 59.9602C55.7633 59.5587 55.4602 59.2424 55.0739 59.0114C54.6875 58.7803 54.2462 58.6629 53.75 58.6591C53.3939 58.6553 53.0284 58.7102 52.6534 58.8239C52.2784 58.9337 51.9697 59.0758 51.7273 59.25L50.4091 59.0909L51.1136 53.3636H57.1591V54.6136H52.2955L51.8864 58.0455H51.9545C52.1932 57.8561 52.4924 57.6989 52.8523 57.5739C53.2121 57.4489 53.5871 57.3864 53.9773 57.3864C54.6894 57.3864 55.3239 57.5568 55.8807 57.8977C56.4413 58.2348 56.8807 58.697 57.1989 59.2841C57.5208 59.8712 57.6818 60.5417 57.6818 61.2955C57.6818 62.0379 57.5152 62.7008 57.1818 63.2841C56.8523 63.8636 56.3977 64.322 55.8182 64.6591C55.2386 64.9924 54.5795 65.1591 53.8409 65.1591ZM63.7344 65.1591C62.8783 65.1591 62.1491 64.9261 61.5469 64.4602C60.9446 63.9905 60.4844 63.3106 60.1662 62.4205C59.848 61.5265 59.6889 60.447 59.6889 59.1818C59.6889 57.9242 59.848 56.8504 60.1662 55.9602C60.4882 55.0663 60.9503 54.3845 61.5526 53.9148C62.1586 53.4413 62.8859 53.2045 63.7344 53.2045C64.5829 53.2045 65.3082 53.4413 65.9105 53.9148C66.5166 54.3845 66.9787 55.0663 67.2969 55.9602C67.6188 56.8504 67.7798 57.9242 67.7798 59.1818C67.7798 60.447 67.6207 61.5265 67.3026 62.4205C66.9844 63.3106 66.5241 63.9905 65.9219 64.4602C65.3196 64.9261 64.5904 65.1591 63.7344 65.1591ZM63.7344 63.9091C64.5829 63.9091 65.242 63.5 65.7116 62.6818C66.1813 61.8636 66.4162 60.697 66.4162 59.1818C66.4162 58.1742 66.3082 57.3163 66.0923 56.608C65.8802 55.8996 65.5734 55.3598 65.1719 54.9886C64.7741 54.6174 64.295 54.4318 63.7344 54.4318C62.8935 54.4318 62.2363 54.8466 61.7628 55.6761C61.2893 56.5019 61.0526 57.6705 61.0526 59.1818C61.0526 60.1894 61.1586 61.0455 61.3707 61.75C61.5829 62.4545 61.8878 62.9905 62.2855 63.358C62.687 63.7254 63.17 63.9091 63.7344 63.9091Z" fill="black"/>
<path d="M156 55H174" stroke="black" stroke-width="3.5" stroke-linecap="round"/>
<path d="M156 62.75H174" stroke="black" stroke-width="3.5" stroke-linecap="round"/>
<circle cx="203" cy="198" r="17.5" stroke="#FF0000"/>
<path d="M103.122 205H101.46L106.267 191.909H107.903L112.71 205H111.048L107.136 193.98H107.034L103.122 205ZM103.736 199.886H110.435V201.293H103.736V199.886ZM121.343 195.182L117.712 205H116.178L112.547 195.182H114.184L116.894 203.006H116.996L119.706 195.182H121.343ZM127.099 205.205C126.153 205.205 125.337 204.996 124.651 204.578C123.969 204.156 123.442 203.568 123.072 202.814C122.705 202.055 122.522 201.173 122.522 200.168C122.522 199.162 122.705 198.276 123.072 197.509C123.442 196.737 123.958 196.136 124.619 195.706C125.283 195.271 126.059 195.054 126.945 195.054C127.457 195.054 127.962 195.139 128.46 195.31C128.959 195.48 129.413 195.757 129.822 196.141C130.231 196.52 130.557 197.023 130.8 197.649C131.043 198.276 131.164 199.047 131.164 199.963V200.602H123.596V199.298H129.63C129.63 198.744 129.519 198.25 129.298 197.815C129.08 197.381 128.769 197.038 128.364 196.786C127.964 196.535 127.491 196.409 126.945 196.409C126.344 196.409 125.825 196.558 125.386 196.857C124.951 197.151 124.616 197.534 124.382 198.007C124.148 198.48 124.031 198.987 124.031 199.528V200.398C124.031 201.139 124.158 201.768 124.414 202.283C124.674 202.795 125.034 203.185 125.494 203.453C125.955 203.717 126.489 203.849 127.099 203.849C127.495 203.849 127.853 203.794 128.173 203.683C128.496 203.568 128.776 203.398 129.01 203.172C129.244 202.942 129.425 202.656 129.553 202.315L131.011 202.724C130.857 203.219 130.599 203.653 130.237 204.028C129.875 204.399 129.428 204.689 128.895 204.898C128.362 205.102 127.763 205.205 127.099 205.205ZM133.459 205V195.182H134.916V196.665H135.018C135.197 196.179 135.521 195.785 135.99 195.482C136.459 195.18 136.987 195.028 137.575 195.028C137.686 195.028 137.825 195.031 137.991 195.035C138.157 195.039 138.283 195.045 138.368 195.054V196.588C138.317 196.575 138.2 196.556 138.016 196.531C137.837 196.501 137.648 196.486 137.447 196.486C136.97 196.486 136.544 196.586 136.169 196.786C135.798 196.982 135.504 197.255 135.287 197.604C135.074 197.95 134.967 198.344 134.967 198.787V205H133.459ZM143.045 205.23C142.423 205.23 141.858 205.113 141.351 204.879C140.844 204.64 140.442 204.297 140.143 203.849C139.845 203.398 139.696 202.852 139.696 202.213C139.696 201.651 139.807 201.195 140.028 200.845C140.25 200.491 140.546 200.214 140.917 200.014C141.287 199.814 141.697 199.665 142.144 199.567C142.596 199.464 143.05 199.384 143.506 199.324C144.102 199.247 144.586 199.19 144.956 199.151C145.331 199.109 145.604 199.038 145.775 198.94C145.949 198.842 146.037 198.672 146.037 198.429V198.378C146.037 197.747 145.864 197.257 145.519 196.908C145.178 196.558 144.66 196.384 143.966 196.384C143.246 196.384 142.681 196.541 142.272 196.857C141.863 197.172 141.575 197.509 141.409 197.866L139.977 197.355C140.233 196.759 140.574 196.294 141 195.962C141.43 195.625 141.899 195.391 142.406 195.259C142.917 195.122 143.42 195.054 143.915 195.054C144.23 195.054 144.592 195.092 145.001 195.169C145.415 195.241 145.813 195.393 146.197 195.623C146.584 195.853 146.906 196.2 147.162 196.665C147.417 197.129 147.545 197.751 147.545 198.531V205H146.037V203.67H145.96C145.858 203.884 145.687 204.112 145.449 204.354C145.21 204.597 144.893 204.804 144.496 204.974C144.1 205.145 143.616 205.23 143.045 205.23ZM143.275 203.875C143.872 203.875 144.375 203.758 144.784 203.523C145.197 203.289 145.508 202.987 145.717 202.616C145.93 202.245 146.037 201.855 146.037 201.446V200.065C145.973 200.142 145.832 200.212 145.615 200.276C145.402 200.336 145.155 200.389 144.873 200.436C144.596 200.479 144.326 200.517 144.062 200.551C143.802 200.581 143.591 200.607 143.429 200.628C143.037 200.679 142.67 200.762 142.329 200.877C141.993 200.988 141.72 201.156 141.511 201.382C141.307 201.604 141.204 201.906 141.204 202.29C141.204 202.814 141.398 203.21 141.786 203.479C142.178 203.743 142.675 203.875 143.275 203.875ZM154.262 208.886C153.533 208.886 152.907 208.793 152.382 208.605C151.858 208.422 151.422 208.179 151.072 207.876C150.727 207.578 150.452 207.259 150.248 206.918L151.449 206.074C151.586 206.253 151.758 206.457 151.967 206.688C152.176 206.922 152.461 207.124 152.824 207.295C153.19 207.469 153.669 207.557 154.262 207.557C155.054 207.557 155.708 207.365 156.224 206.982C156.74 206.598 156.998 205.997 156.998 205.179V203.185H156.87C156.759 203.364 156.601 203.585 156.397 203.849C156.196 204.109 155.907 204.342 155.527 204.546C155.152 204.746 154.645 204.847 154.006 204.847C153.213 204.847 152.502 204.659 151.871 204.284C151.245 203.909 150.748 203.364 150.382 202.648C150.02 201.932 149.838 201.062 149.838 200.04C149.838 199.034 150.015 198.158 150.369 197.413C150.723 196.663 151.215 196.083 151.846 195.674C152.476 195.261 153.205 195.054 154.032 195.054C154.671 195.054 155.178 195.161 155.553 195.374C155.932 195.582 156.222 195.821 156.422 196.089C156.627 196.354 156.784 196.571 156.895 196.741H157.049V195.182H158.506V205.281C158.506 206.125 158.314 206.811 157.931 207.339C157.551 207.872 157.04 208.262 156.397 208.509C155.757 208.761 155.046 208.886 154.262 208.886ZM154.211 203.491C154.816 203.491 155.327 203.353 155.745 203.076C156.162 202.799 156.48 202.401 156.697 201.881C156.914 201.361 157.023 200.739 157.023 200.014C157.023 199.307 156.917 198.683 156.703 198.141C156.49 197.6 156.175 197.176 155.757 196.869C155.34 196.562 154.824 196.409 154.211 196.409C153.571 196.409 153.039 196.571 152.613 196.895C152.191 197.219 151.873 197.653 151.66 198.199C151.451 198.744 151.347 199.349 151.347 200.014C151.347 200.696 151.453 201.299 151.667 201.823C151.884 202.343 152.203 202.752 152.625 203.05C153.051 203.344 153.58 203.491 154.211 203.491ZM165.384 205.205C164.438 205.205 163.622 204.996 162.936 204.578C162.254 204.156 161.728 203.568 161.357 202.814C160.99 202.055 160.807 201.173 160.807 200.168C160.807 199.162 160.99 198.276 161.357 197.509C161.728 196.737 162.243 196.136 162.904 195.706C163.569 195.271 164.344 195.054 165.23 195.054C165.742 195.054 166.247 195.139 166.745 195.31C167.244 195.48 167.698 195.757 168.107 196.141C168.516 196.52 168.842 197.023 169.085 197.649C169.328 198.276 169.449 199.047 169.449 199.963V200.602H161.881V199.298H167.915C167.915 198.744 167.804 198.25 167.583 197.815C167.365 197.381 167.054 197.038 166.65 196.786C166.249 196.535 165.776 196.409 165.23 196.409C164.63 196.409 164.11 196.558 163.671 196.857C163.236 197.151 162.902 197.534 162.667 198.007C162.433 198.48 162.316 198.987 162.316 199.528V200.398C162.316 201.139 162.444 201.768 162.699 202.283C162.959 202.795 163.319 203.185 163.779 203.453C164.24 203.717 164.775 203.849 165.384 203.849C165.78 203.849 166.138 203.794 166.458 203.683C166.782 203.568 167.061 203.398 167.295 203.172C167.529 202.942 167.711 202.656 167.838 202.315L169.296 202.724C169.142 203.219 168.885 203.653 168.522 204.028C168.16 204.399 167.713 204.689 167.18 204.898C166.647 205.102 166.049 205.205 165.384 205.205ZM177.906 205.102C177.591 205.102 177.32 204.989 177.094 204.763C176.868 204.538 176.755 204.267 176.755 203.952C176.755 203.636 176.868 203.366 177.094 203.14C177.32 202.914 177.591 202.801 177.906 202.801C178.221 202.801 178.492 202.914 178.718 203.14C178.944 203.366 179.056 203.636 179.056 203.952C179.056 204.161 179.003 204.352 178.897 204.527C178.794 204.702 178.656 204.842 178.481 204.949C178.311 205.051 178.119 205.102 177.906 205.102ZM177.906 197.815C177.591 197.815 177.32 197.702 177.094 197.477C176.868 197.251 176.755 196.98 176.755 196.665C176.755 196.349 176.868 196.079 177.094 195.853C177.32 195.627 177.591 195.514 177.906 195.514C178.221 195.514 178.492 195.627 178.718 195.853C178.944 196.079 179.056 196.349 179.056 196.665C179.056 196.874 179.003 197.065 178.897 197.24C178.794 197.415 178.656 197.555 178.481 197.662C178.311 197.764 178.119 197.815 177.906 197.815ZM196.735 205.189C195.728 205.189 194.83 205.016 194.043 204.669C193.261 204.319 192.642 203.837 192.188 203.225C191.738 202.609 191.506 201.899 191.493 201.093H194.435C194.453 201.431 194.563 201.728 194.765 201.984C194.972 202.236 195.247 202.432 195.588 202.571C195.93 202.71 196.315 202.78 196.742 202.78C197.188 202.78 197.581 202.701 197.923 202.544C198.265 202.387 198.532 202.168 198.726 201.89C198.919 201.611 199.016 201.289 199.016 200.925C199.016 200.556 198.913 200.23 198.706 199.946C198.503 199.658 198.211 199.434 197.828 199.272C197.451 199.11 197.001 199.029 196.479 199.029H195.19V196.883H196.479C196.92 196.883 197.309 196.807 197.646 196.654C197.988 196.501 198.254 196.289 198.442 196.02C198.631 195.745 198.726 195.426 198.726 195.061C198.726 194.715 198.643 194.411 198.476 194.151C198.314 193.885 198.085 193.678 197.788 193.53C197.496 193.381 197.154 193.307 196.762 193.307C196.367 193.307 196.004 193.379 195.676 193.523C195.348 193.663 195.085 193.863 194.887 194.124C194.689 194.384 194.583 194.69 194.57 195.041H191.77C191.783 194.245 192.01 193.543 192.451 192.936C192.892 192.329 193.486 191.854 194.232 191.512C194.983 191.166 195.831 190.993 196.776 190.993C197.73 190.993 198.564 191.166 199.279 191.512C199.994 191.859 200.55 192.327 200.946 192.916C201.346 193.501 201.544 194.157 201.539 194.886C201.544 195.66 201.303 196.305 200.817 196.822C200.336 197.34 199.709 197.668 198.935 197.808V197.915C199.952 198.046 200.725 198.399 201.256 198.975C201.791 199.546 202.057 200.261 202.052 201.12C202.057 201.908 201.83 202.607 201.371 203.219C200.916 203.83 200.289 204.312 199.488 204.663C198.688 205.013 197.77 205.189 196.735 205.189ZM209.57 205.304C208.41 205.299 207.411 205.013 206.574 204.447C205.742 203.88 205.101 203.059 204.652 201.984C204.206 200.909 203.986 199.616 203.99 198.104C203.99 196.598 204.213 195.313 204.658 194.252C205.108 193.19 205.749 192.383 206.581 191.83C207.418 191.272 208.414 190.993 209.57 190.993C210.726 190.993 211.72 191.272 212.552 191.83C213.389 192.387 214.032 193.197 214.482 194.259C214.932 195.316 215.155 196.598 215.15 198.104C215.15 199.62 214.925 200.916 214.475 201.991C214.03 203.066 213.391 203.887 212.559 204.453C211.727 205.02 210.731 205.304 209.57 205.304ZM209.57 202.881C210.362 202.881 210.994 202.483 211.466 201.687C211.938 200.891 212.172 199.697 212.168 198.104C212.168 197.056 212.06 196.184 211.844 195.487C211.633 194.789 211.331 194.265 210.94 193.914C210.553 193.564 210.097 193.388 209.57 193.388C208.783 193.388 208.153 193.782 207.681 194.569C207.209 195.356 206.97 196.535 206.966 198.104C206.966 199.166 207.072 200.052 207.283 200.763C207.499 201.469 207.802 202 208.194 202.355C208.585 202.706 209.044 202.881 209.57 202.881Z" fill="black"/>
<path d="M159.939 161.061C160.525 161.646 161.475 161.646 162.061 161.061L171.607 151.515C172.192 150.929 172.192 149.979 171.607 149.393C171.021 148.808 170.071 148.808 169.485 149.393L161 157.879L152.515 149.393C151.929 148.808 150.979 148.808 150.393 149.393C149.808 149.979 149.808 150.929 150.393 151.515L159.939 161.061ZM162.5 160L162.5 134L159.5 134L159.5 160L162.5 160Z" fill="#0000FF"/>
</svg>
