<svg width="388" height="153" viewBox="0 0 388 153" fill="none" xmlns="http://www.w3.org/2000/svg">
<path d="M28.693 13.9961V26.6627M28.693 26.6627V58.3293M28.693 26.6627L38.1929 17.1628M28.693 26.6627L19.1931 17.1628M28.693 58.3293V70.996M28.693 58.3293L38.1929 67.8293M28.693 58.3293L19.1931 67.8293M53.3713 28.246L42.4017 34.5794M42.4017 34.5794L14.9776 50.4127M42.4017 34.5794L55.3789 38.0567M42.4017 34.5794L45.8789 21.6021M14.9776 50.4127L4.00798 56.746M14.9776 50.4127L11.5003 63.39M14.9776 50.4127L2.00032 46.9354M53.3699 56.746L42.4003 50.4127M42.4003 50.4127L14.976 34.5794M42.4003 50.4127L55.3774 46.9354M42.4003 50.4127L45.8775 63.39M14.976 34.5794L4.00639 28.246M14.976 34.5794L11.499 21.6022M14.976 34.5794L1.99905 38.0567" stroke="black" stroke-width="3.8" stroke-linecap="round" stroke-linejoin="round"/>
<path d="M71.3605 128.833C71.3605 131.506 72.4225 134.07 74.3127 135.96C76.203 137.85 78.7668 138.912 81.44 138.912C84.1133 138.912 86.677 137.85 88.5673 135.96C90.4576 134.07 91.5195 131.506 91.5195 128.833C91.5195 118.753 81.44 111.172 81.44 111.172C81.44 111.172 71.3605 118.84 71.3605 128.833Z" stroke="#020202" stroke-width="3.36" stroke-miterlimit="10"/>
<path d="M55.3814 94.9909C55.3814 97.564 56.4035 100.032 58.223 101.851C60.0425 103.671 62.5102 104.693 65.0833 104.693C67.6564 104.693 70.1241 103.671 71.9435 101.851C73.763 100.032 74.7852 97.564 74.7852 94.9909C74.7852 85.289 65.0833 77.998 65.0833 77.998C65.0833 77.998 55.3814 85.2599 55.3814 94.9909Z" stroke="#020202" stroke-width="3.36" stroke-miterlimit="10"/>
<path d="M96.979 107.105C96.979 109.678 98.0012 112.145 99.8207 113.965C101.64 115.784 104.108 116.807 106.681 116.807C109.254 116.807 111.722 115.784 113.541 113.965C115.361 112.145 116.383 109.678 116.383 107.105C116.383 97.4028 106.681 90.1409 106.681 90.1409C106.681 90.1409 96.979 97.4028 96.979 107.105Z" stroke="#020202" stroke-width="3.36" stroke-miterlimit="10"/>
<path fill-rule="evenodd" clip-rule="evenodd" d="M387.379 21.8181C387.379 9.76834 377.611 0 365.561 0H249.197C237.147 0 227.379 9.76834 227.379 21.8181V101.818C227.379 113.868 237.147 123.636 249.197 123.636H271.016V138.182H263.743C259.726 138.182 256.47 141.438 256.47 145.454C256.47 149.471 259.726 152.727 263.743 152.727H278.288H336.47H351.015C355.032 152.727 358.288 149.471 358.288 145.454C358.288 141.438 355.032 138.182 351.015 138.182H343.743V123.636H365.561C377.611 123.636 387.379 113.868 387.379 101.818V21.8181ZM285.561 138.182V123.636H329.197V138.182H285.561ZM249.197 109.091H278.288H336.47H365.561C369.577 109.091 372.833 105.835 372.833 101.818V21.8181C372.833 17.8016 369.577 14.5454 365.561 14.5454H249.197C245.181 14.5454 241.925 17.8016 241.925 21.8181V101.818C241.925 105.835 245.181 109.091 249.197 109.091ZM361.924 21.8181C363.933 21.8181 365.561 23.4462 365.561 25.4545V90.9089C365.561 92.9169 363.933 94.5453 361.924 94.5453H252.834C250.826 94.5453 249.197 92.9169 249.197 90.9089V25.4545C249.197 23.4462 250.826 21.8181 252.834 21.8181H361.924Z" fill="black" stroke="black" stroke-width="0.00093"/>
<rect width="4.14999" height="4.14999" transform="matrix(-1 0 0 1 331.629 48.5781)" fill="white"/>
<rect width="4.14999" height="4.14999" transform="matrix(-1 0 0 1 321.668 32.8105)" fill="white"/>
<rect width="4.14999" height="4.14999" transform="matrix(-1 0 0 1 293.449 27)" fill="white"/>
<rect width="4.14999" height="4.14999" transform="matrix(-1 0 0 1 333.289 85.9277)" fill="white"/>
<rect width="4.14999" height="4.14999" transform="matrix(-1 0 0 1 352.379 54.3887)" fill="white"/>
<rect width="4.14999" height="4.14999" transform="matrix(-1 0 0 1 273.531 78.4609)" fill="white"/>
<rect width="4.14999" height="4.14999" transform="matrix(-1 0 0 1 295.109 39.4492)" fill="white"/>
<rect width="4.14999" height="4.14999" transform="matrix(-1 0 0 1 273.531 36.1309)" fill="white"/>
<rect width="4.14999" height="4.14999" transform="matrix(-1 0 0 1 348.227 31.1504)" fill="white"/>
<rect width="4.14999" height="4.14999" transform="matrix(-1 0 0 1 330.801 75.9668)" fill="white"/>
<rect width="4.14999" height="4.14999" transform="matrix(-1 0 0 1 344.078 67.6699)" fill="white"/>
<rect width="4.14999" height="4.14999" transform="matrix(-1 0 0 1 303.41 69.3301)" fill="white"/>
<rect width="4.14999" height="4.14999" transform="matrix(-1 0 0 1 335.781 56.0508)" fill="white"/>
<rect width="4.14999" height="4.14999" transform="matrix(-1 0 0 1 284.32 39.4492)" fill="white"/>
<rect width="4.14999" height="4.14999" transform="matrix(-1 0 0 1 300.09 51.9004)" fill="white"/>
<rect width="4.14999" height="4.14999" transform="matrix(-1 0 0 1 281 58.5391)" fill="white"/>
<rect width="4.14999" height="4.14999" transform="matrix(-1 0 0 1 351.379 83)" fill="white"/>
<rect width="4.14999" height="4.14999" transform="matrix(-1 0 0 1 287.379 87)" fill="white"/>
<rect width="4.14999" height="4.14999" transform="matrix(-1 0 0 1 356.379 67)" fill="white"/>
<rect width="4.14999" height="4.14999" transform="matrix(-1 0 0 1 361.379 40)" fill="white"/>
<rect width="4.14999" height="4.14999" transform="matrix(-1 0 0 1 274.379 59)" fill="white"/>
<rect width="4.14999" height="4.14999" transform="matrix(-1 0 0 1 258.379 28.998)" fill="white"/>
<rect width="4.14999" height="4.14999" transform="matrix(-1 0 0 1 258.379 57.998)" fill="white"/>
<rect width="4.14999" height="4.14999" transform="matrix(-1 0 0 1 295.109 78.4609)" fill="white"/>
<rect width="4.14999" height="4.14999" transform="matrix(-1 0 0 1 339.93 46.9219)" fill="white"/>
<rect width="4.14999" height="4.14999" transform="matrix(-1 0 0 1 331.629 38.6172)" fill="white"/>
<rect width="4.14999" height="4.14999" transform="matrix(-1 0 0 1 311.707 46.9219)" fill="white"/>
<rect width="4.14999" height="4.14999" transform="matrix(-1 0 0 1 313.367 60.1992)" fill="white"/>
<rect width="4.14999" height="4.14999" transform="matrix(-1 0 0 1 289.301 46.9219)" fill="white"/>
<rect width="4.14999" height="4.14999" transform="matrix(-1 0 0 1 333.289 68.5)" fill="white"/>
<rect width="4.14999" height="4.14999" transform="matrix(-1 0 0 1 287.641 64.3496)" fill="white"/>
<rect width="4.14999" height="4.14999" transform="matrix(-1 0 0 1 310.047 35.2988)" fill="white"/>
<rect width="4.14999" height="4.14999" transform="matrix(-1 0 0 1 305.07 48.5781)" fill="white"/>
<rect width="4.14999" height="4.14999" transform="matrix(-1 0 0 1 324.16 56.0508)" fill="white"/>
<rect width="4.14999" height="4.14999" transform="matrix(-1 0 0 1 316.688 79.2891)" fill="white"/>
<rect width="4.14999" height="4.14999" transform="matrix(-1 0 0 1 279.34 48.5781)" fill="white"/>
<path d="M189.793 67.5838C190.574 68.3649 190.574 69.6312 189.793 70.4123L177.065 83.1402C176.284 83.9212 175.018 83.9212 174.237 83.1402C173.456 82.3591 173.456 81.0928 174.237 80.3118L185.55 68.998L174.237 57.6843C173.456 56.9033 173.456 55.637 174.237 54.8559C175.018 54.0749 176.284 54.0749 177.065 54.8559L189.793 67.5838ZM143.379 66.998H188.379V70.998H143.379V66.998Z" fill="#FF0000"/>
</svg>
