<svg width="329" height="217" viewBox="0 0 329 217" fill="none" xmlns="http://www.w3.org/2000/svg">
<path d="M211.122 35.6364V19.2727H214.906V20.5256H212.554V34.3835H214.906V35.6364H211.122ZM217.644 35.6364V19.2727H221.428V20.5256H219.075V34.3835H221.428V35.6364H217.644ZM228 20.9091V34H226.415V22.571H226.338L223.142 24.6932V23.0824L226.415 20.9091H228ZM236.035 34.179C235.072 34.179 234.252 33.9169 233.574 33.3928C232.897 32.8643 232.379 32.0994 232.021 31.098C231.663 30.0923 231.484 28.8778 231.484 27.4545C231.484 26.0398 231.663 24.8317 232.021 23.8303C232.383 22.8246 232.903 22.0575 233.581 21.5291C234.262 20.9964 235.081 20.7301 236.035 20.7301C236.99 20.7301 237.806 20.9964 238.483 21.5291C239.165 22.0575 239.685 22.8246 240.043 23.8303C240.405 24.8317 240.586 26.0398 240.586 27.4545C240.586 28.8778 240.407 30.0923 240.049 31.098C239.691 32.0994 239.174 32.8643 238.496 33.3928C237.819 33.9169 236.998 34.179 236.035 34.179ZM236.035 32.7727C236.99 32.7727 237.731 32.3125 238.26 31.392C238.788 30.4716 239.052 29.1591 239.052 27.4545C239.052 26.321 238.931 25.3558 238.688 24.5589C238.449 23.7621 238.104 23.1548 237.652 22.7372C237.205 22.3196 236.666 22.1108 236.035 22.1108C235.089 22.1108 234.35 22.5774 233.817 23.5107C233.284 24.4396 233.018 25.7543 233.018 27.4545C233.018 28.5881 233.137 29.5511 233.376 30.3438C233.615 31.1364 233.958 31.7393 234.405 32.1527C234.857 32.5661 235.4 32.7727 236.035 32.7727ZM252.501 34.179C251.657 34.179 250.905 34.0341 250.245 33.7443C249.588 33.4545 249.066 33.0518 248.679 32.5362C248.295 32.0163 248.086 31.4134 248.052 30.7273H249.663C249.697 31.1491 249.842 31.5135 250.098 31.8203C250.353 32.1229 250.688 32.3572 251.101 32.5234C251.515 32.6896 251.973 32.7727 252.475 32.7727C253.038 32.7727 253.537 32.6747 253.971 32.4787C254.406 32.2827 254.747 32.0099 254.994 31.6605C255.241 31.3111 255.365 30.9062 255.365 30.446C255.365 29.9645 255.245 29.5405 255.007 29.174C254.768 28.8033 254.419 28.5135 253.958 28.3047C253.498 28.0959 252.936 27.9915 252.271 27.9915H251.223V26.5852H252.271C252.791 26.5852 253.247 26.4915 253.639 26.304C254.035 26.1165 254.344 25.8523 254.566 25.5114C254.792 25.1705 254.904 24.7699 254.904 24.3097C254.904 23.8665 254.806 23.4808 254.61 23.1527C254.414 22.8246 254.137 22.5689 253.779 22.3857C253.426 22.2024 253.008 22.1108 252.527 22.1108C252.075 22.1108 251.649 22.1939 251.248 22.3601C250.852 22.522 250.528 22.7585 250.277 23.0696C250.025 23.3764 249.889 23.7472 249.868 24.1818H248.333C248.359 23.4957 248.566 22.8949 248.953 22.3793C249.341 21.8594 249.848 21.4545 250.475 21.1648C251.105 20.875 251.798 20.7301 252.552 20.7301C253.362 20.7301 254.056 20.8942 254.636 21.2223C255.216 21.5462 255.661 21.9744 255.972 22.5071C256.283 23.0398 256.439 23.6151 256.439 24.233C256.439 24.9702 256.245 25.5987 255.857 26.1186C255.473 26.6385 254.951 26.9986 254.291 27.1989V27.3011C255.118 27.4375 255.763 27.7891 256.228 28.3558C256.692 28.9183 256.924 29.6151 256.924 30.446C256.924 31.1577 256.73 31.7969 256.343 32.3636C255.959 32.9261 255.435 33.3693 254.77 33.6932C254.105 34.017 253.349 34.179 252.501 34.179ZM263.809 34.179C262.846 34.179 262.025 33.9169 261.348 33.3928C260.67 32.8643 260.152 32.0994 259.794 31.098C259.436 30.0923 259.257 28.8778 259.257 27.4545C259.257 26.0398 259.436 24.8317 259.794 23.8303C260.157 22.8246 260.676 22.0575 261.354 21.5291C262.036 20.9964 262.854 20.7301 263.809 20.7301C264.763 20.7301 265.579 20.9964 266.257 21.5291C266.939 22.0575 267.458 22.8246 267.816 23.8303C268.179 24.8317 268.36 26.0398 268.36 27.4545C268.36 28.8778 268.181 30.0923 267.823 31.098C267.465 32.0994 266.947 32.8643 266.27 33.3928C265.592 33.9169 264.772 34.179 263.809 34.179ZM263.809 32.7727C264.763 32.7727 265.505 32.3125 266.033 31.392C266.561 30.4716 266.826 29.1591 266.826 27.4545C266.826 26.321 266.704 25.3558 266.461 24.5589C266.223 23.7621 265.877 23.1548 265.426 22.7372C264.978 22.3196 264.439 22.1108 263.809 22.1108C262.863 22.1108 262.123 22.5774 261.591 23.5107C261.058 24.4396 260.792 25.7543 260.792 27.4545C260.792 28.5881 260.911 29.5511 261.15 30.3438C261.388 31.1364 261.731 31.7393 262.179 32.1527C262.63 32.5661 263.174 32.7727 263.809 32.7727ZM275.851 34V32.8494L280.172 28.1193C280.679 27.5653 281.097 27.0838 281.425 26.6747C281.753 26.2614 281.996 25.8736 282.154 25.5114C282.316 25.1449 282.397 24.7614 282.397 24.3608C282.397 23.9006 282.286 23.5021 282.064 23.1655C281.847 22.8288 281.549 22.5689 281.169 22.3857C280.79 22.2024 280.364 22.1108 279.891 22.1108C279.388 22.1108 278.949 22.2152 278.574 22.424C278.203 22.6286 277.916 22.9162 277.711 23.2869C277.511 23.6577 277.411 24.0923 277.411 24.5909H275.902C275.902 23.8239 276.079 23.1506 276.433 22.571C276.787 21.9915 277.268 21.5398 277.877 21.2159C278.491 20.892 279.179 20.7301 279.942 20.7301C280.709 20.7301 281.389 20.892 281.981 21.2159C282.574 21.5398 283.038 21.9766 283.375 22.5263C283.711 23.076 283.88 23.6875 283.88 24.3608C283.88 24.8423 283.792 25.3132 283.618 25.7734C283.447 26.2294 283.149 26.7386 282.723 27.3011C282.301 27.8594 281.715 28.5412 280.965 29.3466L278.025 32.4915V32.5938H284.11V34H275.851ZM291.02 34.179C290.056 34.179 289.236 33.9169 288.559 33.3928C287.881 32.8643 287.363 32.0994 287.005 31.098C286.647 30.0923 286.468 28.8778 286.468 27.4545C286.468 26.0398 286.647 24.8317 287.005 23.8303C287.368 22.8246 287.887 22.0575 288.565 21.5291C289.247 20.9964 290.065 20.7301 291.02 20.7301C291.974 20.7301 292.79 20.9964 293.468 21.5291C294.15 22.0575 294.669 22.8246 295.027 23.8303C295.39 24.8317 295.571 26.0398 295.571 27.4545C295.571 28.8778 295.392 30.0923 295.034 31.098C294.676 32.0994 294.158 32.8643 293.48 33.3928C292.803 33.9169 291.983 34.179 291.02 34.179ZM291.02 32.7727C291.974 32.7727 292.716 32.3125 293.244 31.392C293.772 30.4716 294.037 29.1591 294.037 27.4545C294.037 26.321 293.915 25.3558 293.672 24.5589C293.434 23.7621 293.088 23.1548 292.637 22.7372C292.189 22.3196 291.65 22.1108 291.02 22.1108C290.074 22.1108 289.334 22.5774 288.801 23.5107C288.269 24.4396 288.002 25.7543 288.002 27.4545C288.002 28.5881 288.122 29.5511 288.36 30.3438C288.599 31.1364 288.942 31.7393 289.39 32.1527C289.841 32.5661 290.385 32.7727 291.02 32.7727ZM301.042 19.2727V35.6364H297.258V34.3835H299.61V20.5256H297.258V19.2727H301.042ZM216.185 67.6364V51.2727H219.969V52.5256H217.616V66.3835H219.969V67.6364H216.185ZM226.541 52.9091V66H224.956V54.571H224.879L221.683 56.6932V55.0824L224.956 52.9091H226.541ZM234.576 66.179C233.613 66.179 232.793 65.9169 232.115 65.3928C231.438 64.8643 230.92 64.0994 230.562 63.098C230.204 62.0923 230.025 60.8778 230.025 59.4545C230.025 58.0398 230.204 56.8317 230.562 55.8303C230.924 54.8246 231.444 54.0575 232.122 53.5291C232.803 52.9964 233.622 52.7301 234.576 52.7301C235.531 52.7301 236.347 52.9964 237.024 53.5291C237.706 54.0575 238.226 54.8246 238.584 55.8303C238.946 56.8317 239.127 58.0398 239.127 59.4545C239.127 60.8778 238.948 62.0923 238.59 63.098C238.232 64.0994 237.715 64.8643 237.037 65.3928C236.36 65.9169 235.539 66.179 234.576 66.179ZM234.576 64.7727C235.531 64.7727 236.272 64.3125 236.801 63.392C237.329 62.4716 237.593 61.1591 237.593 59.4545C237.593 58.321 237.472 57.3558 237.229 56.5589C236.99 55.7621 236.645 55.1548 236.193 54.7372C235.746 54.3196 235.207 54.1108 234.576 54.1108C233.63 54.1108 232.891 54.5774 232.358 55.5107C231.825 56.4396 231.559 57.7543 231.559 59.4545C231.559 60.5881 231.678 61.5511 231.917 62.3438C232.156 63.1364 232.499 63.7393 232.946 64.1527C233.398 64.5661 233.941 64.7727 234.576 64.7727ZM246.619 66V64.8494L250.94 60.1193C251.447 59.5653 251.865 59.0838 252.193 58.6747C252.521 58.2614 252.764 57.8736 252.921 57.5114C253.083 57.1449 253.164 56.7614 253.164 56.3608C253.164 55.9006 253.053 55.5021 252.832 55.1655C252.615 54.8288 252.316 54.5689 251.937 54.3857C251.558 54.2024 251.132 54.1108 250.659 54.1108C250.156 54.1108 249.717 54.2152 249.342 54.424C248.971 54.6286 248.683 54.9162 248.479 55.2869C248.279 55.6577 248.178 56.0923 248.178 56.5909H246.67C246.67 55.8239 246.847 55.1506 247.2 54.571C247.554 53.9915 248.036 53.5398 248.645 53.2159C249.259 52.892 249.947 52.7301 250.71 52.7301C251.477 52.7301 252.156 52.892 252.749 53.2159C253.341 53.5398 253.806 53.9766 254.142 54.5263C254.479 55.076 254.647 55.6875 254.647 56.3608C254.647 56.8423 254.56 57.3132 254.385 57.7734C254.215 58.2294 253.916 58.7386 253.49 59.3011C253.068 59.8594 252.482 60.5412 251.732 61.3466L248.792 64.4915V64.5938H254.877V66H246.619ZM261.787 66.179C260.824 66.179 260.004 65.9169 259.326 65.3928C258.649 64.8643 258.131 64.0994 257.773 63.098C257.415 62.0923 257.236 60.8778 257.236 59.4545C257.236 58.0398 257.415 56.8317 257.773 55.8303C258.135 54.8246 258.655 54.0575 259.333 53.5291C260.014 52.9964 260.833 52.7301 261.787 52.7301C262.742 52.7301 263.558 52.9964 264.235 53.5291C264.917 54.0575 265.437 54.8246 265.795 55.8303C266.157 56.8317 266.338 58.0398 266.338 59.4545C266.338 60.8778 266.159 62.0923 265.801 63.098C265.443 64.0994 264.926 64.8643 264.248 65.3928C263.57 65.9169 262.75 66.179 261.787 66.179ZM261.787 64.7727C262.742 64.7727 263.483 64.3125 264.012 63.392C264.54 62.4716 264.804 61.1591 264.804 59.4545C264.804 58.321 264.683 57.3558 264.44 56.5589C264.201 55.7621 263.856 55.1548 263.404 54.7372C262.957 54.3196 262.418 54.1108 261.787 54.1108C260.841 54.1108 260.102 54.5774 259.569 55.5107C259.036 56.4396 258.77 57.7543 258.77 59.4545C258.77 60.5881 258.889 61.5511 259.128 62.3438C259.367 63.1364 259.71 63.7393 260.157 64.1527C260.609 64.5661 261.152 64.7727 261.787 64.7727ZM273.523 63.3153V62.0114L279.276 52.9091H280.222V54.929H279.583L275.236 61.8068V61.9091H282.983V63.3153H273.523ZM279.685 66V62.919V62.3118V52.9091H281.193V66H279.685ZM289.648 66.179C288.685 66.179 287.865 65.9169 287.188 65.3928C286.51 64.8643 285.992 64.0994 285.634 63.098C285.276 62.0923 285.097 60.8778 285.097 59.4545C285.097 58.0398 285.276 56.8317 285.634 55.8303C285.996 54.8246 286.516 54.0575 287.194 53.5291C287.876 52.9964 288.694 52.7301 289.648 52.7301C290.603 52.7301 291.419 52.9964 292.097 53.5291C292.778 54.0575 293.298 54.8246 293.656 55.8303C294.018 56.8317 294.2 58.0398 294.2 59.4545C294.2 60.8778 294.021 62.0923 293.663 63.098C293.305 64.0994 292.787 64.8643 292.109 65.3928C291.432 65.9169 290.612 66.179 289.648 66.179ZM289.648 64.7727C290.603 64.7727 291.344 64.3125 291.873 63.392C292.401 62.4716 292.665 61.1591 292.665 59.4545C292.665 58.321 292.544 57.3558 292.301 56.5589C292.063 55.7621 291.717 55.1548 291.266 54.7372C290.818 54.3196 290.279 54.1108 289.648 54.1108C288.702 54.1108 287.963 54.5774 287.43 55.5107C286.898 56.4396 286.631 57.7543 286.631 59.4545C286.631 60.5881 286.751 61.5511 286.989 62.3438C287.228 63.1364 287.571 63.7393 288.018 64.1527C288.47 64.5661 289.013 64.7727 289.648 64.7727ZM299.671 51.2727V67.6364H295.887V66.3835H298.239V52.5256H295.887V51.2727H299.671ZM216.185 99.6364V83.2727H219.969V84.5256H217.616V98.3835H219.969V99.6364H216.185ZM226.362 98.179C225.519 98.179 224.767 98.0341 224.106 97.7443C223.45 97.4545 222.928 97.0518 222.54 96.5362C222.156 96.0163 221.948 95.4134 221.914 94.7273H223.524C223.558 95.1491 223.703 95.5135 223.959 95.8203C224.215 96.1229 224.549 96.3572 224.963 96.5234C225.376 96.6896 225.834 96.7727 226.337 96.7727C226.899 96.7727 227.398 96.6747 227.833 96.4787C228.267 96.2827 228.608 96.0099 228.855 95.6605C229.102 95.3111 229.226 94.9062 229.226 94.446C229.226 93.9645 229.107 93.5405 228.868 93.174C228.629 92.8033 228.28 92.5135 227.82 92.3047C227.36 92.0959 226.797 91.9915 226.132 91.9915H225.084V90.5852H226.132C226.652 90.5852 227.108 90.4915 227.5 90.304C227.896 90.1165 228.205 89.8523 228.427 89.5114C228.653 89.1705 228.766 88.7699 228.766 88.3097C228.766 87.8665 228.668 87.4808 228.472 87.1527C228.276 86.8246 227.999 86.5689 227.641 86.3857C227.287 86.2024 226.869 86.1108 226.388 86.1108C225.936 86.1108 225.51 86.1939 225.11 86.3601C224.713 86.522 224.389 86.7585 224.138 87.0696C223.887 87.3764 223.75 87.7472 223.729 88.1818H222.195C222.22 87.4957 222.427 86.8949 222.815 86.3793C223.203 85.8594 223.71 85.4545 224.336 85.1648C224.967 84.875 225.659 84.7301 226.414 84.7301C227.223 84.7301 227.918 84.8942 228.497 85.2223C229.077 85.5462 229.522 85.9744 229.833 86.5071C230.144 87.0398 230.3 87.6151 230.3 88.233C230.3 88.9702 230.106 89.5987 229.718 90.1186C229.335 90.6385 228.813 90.9986 228.152 91.1989V91.3011C228.979 91.4375 229.624 91.7891 230.089 92.3558C230.553 92.9183 230.786 93.6151 230.786 94.446C230.786 95.1577 230.592 95.7969 230.204 96.3636C229.82 96.9261 229.296 97.3693 228.632 97.6932C227.967 98.017 227.21 98.179 226.362 98.179ZM237.67 98.179C236.707 98.179 235.887 97.9169 235.209 97.3928C234.531 96.8643 234.014 96.0994 233.656 95.098C233.298 94.0923 233.119 92.8778 233.119 91.4545C233.119 90.0398 233.298 88.8317 233.656 87.8303C234.018 86.8246 234.538 86.0575 235.215 85.5291C235.897 84.9964 236.715 84.7301 237.67 84.7301C238.624 84.7301 239.441 84.9964 240.118 85.5291C240.8 86.0575 241.32 86.8246 241.678 87.8303C242.04 88.8317 242.221 90.0398 242.221 91.4545C242.221 92.8778 242.042 94.0923 241.684 95.098C241.326 96.0994 240.808 96.8643 240.131 97.3928C239.453 97.9169 238.633 98.179 237.67 98.179ZM237.67 96.7727C238.624 96.7727 239.366 96.3125 239.894 95.392C240.423 94.4716 240.687 93.1591 240.687 91.4545C240.687 90.321 240.566 89.3558 240.323 88.5589C240.084 87.7621 239.739 87.1548 239.287 86.7372C238.84 86.3196 238.301 86.1108 237.67 86.1108C236.724 86.1108 235.985 86.5774 235.452 87.5107C234.919 88.4396 234.653 89.7543 234.653 91.4545C234.653 92.5881 234.772 93.5511 235.011 94.3438C235.249 95.1364 235.593 95.7393 236.04 96.1527C236.492 96.5661 237.035 96.7727 237.67 96.7727ZM249.406 95.3153V94.0114L255.159 84.9091H256.105V86.929H255.465L251.119 93.8068V93.9091H258.866V95.3153H249.406ZM255.568 98V94.919V94.3118V84.9091H257.076V98H255.568ZM265.531 98.179C264.568 98.179 263.748 97.9169 263.07 97.3928C262.393 96.8643 261.875 96.0994 261.517 95.098C261.159 94.0923 260.98 92.8778 260.98 91.4545C260.98 90.0398 261.159 88.8317 261.517 87.8303C261.879 86.8246 262.399 86.0575 263.077 85.5291C263.759 84.9964 264.577 84.7301 265.531 84.7301C266.486 84.7301 267.302 84.9964 267.979 85.5291C268.661 86.0575 269.181 86.8246 269.539 87.8303C269.901 88.8317 270.082 90.0398 270.082 91.4545C270.082 92.8778 269.903 94.0923 269.545 95.098C269.188 96.0994 268.67 96.8643 267.992 97.3928C267.315 97.9169 266.494 98.179 265.531 98.179ZM265.531 96.7727C266.486 96.7727 267.227 96.3125 267.756 95.392C268.284 94.4716 268.548 93.1591 268.548 91.4545C268.548 90.321 268.427 89.3558 268.184 88.5589C267.945 87.7621 267.6 87.1548 267.148 86.7372C266.701 86.3196 266.162 86.1108 265.531 86.1108C264.585 86.1108 263.846 86.5774 263.313 87.5107C262.781 88.4396 262.514 89.7543 262.514 91.4545C262.514 92.5881 262.634 93.5511 262.872 94.3438C263.111 95.1364 263.454 95.7393 263.901 96.1527C264.353 96.5661 264.896 96.7727 265.531 96.7727ZM281.92 98.179C281.384 98.1705 280.847 98.0682 280.31 97.8722C279.773 97.6761 279.283 97.3459 278.839 96.8814C278.396 96.4126 278.04 95.7798 277.772 94.983C277.504 94.1818 277.369 93.1761 277.369 91.9659C277.369 90.8068 277.478 89.7798 277.695 88.8849C277.913 87.9858 278.228 87.2294 278.641 86.6158C279.055 85.9979 279.553 85.5291 280.137 85.2095C280.725 84.8899 281.388 84.7301 282.125 84.7301C282.858 84.7301 283.51 84.8771 284.081 85.1712C284.656 85.4609 285.125 85.8658 285.487 86.3857C285.849 86.9055 286.084 87.5043 286.19 88.1818H284.631C284.486 87.5937 284.205 87.1058 283.787 86.718C283.369 86.3303 282.815 86.1364 282.125 86.1364C281.111 86.1364 280.312 86.5774 279.728 87.4595C279.148 88.3416 278.857 89.5795 278.852 91.1733H278.955C279.193 90.8111 279.477 90.5021 279.805 90.2464C280.137 89.9865 280.504 89.7862 280.904 89.6456C281.305 89.505 281.729 89.4347 282.176 89.4347C282.926 89.4347 283.612 89.6222 284.234 89.9972C284.857 90.3679 285.355 90.8814 285.73 91.5376C286.105 92.1896 286.293 92.9375 286.293 93.7812C286.293 94.5909 286.112 95.3324 285.749 96.0057C285.387 96.6747 284.878 97.2074 284.222 97.6037C283.57 97.9957 282.803 98.1875 281.92 98.179ZM281.92 96.7727C282.457 96.7727 282.939 96.6385 283.365 96.37C283.795 96.1016 284.134 95.7415 284.381 95.2898C284.633 94.8381 284.759 94.3352 284.759 93.7812C284.759 93.2401 284.637 92.7479 284.394 92.3047C284.156 91.8572 283.825 91.5014 283.403 91.2372C282.986 90.973 282.509 90.8409 281.972 90.8409C281.567 90.8409 281.19 90.9219 280.84 91.0838C280.491 91.2415 280.184 91.4588 279.92 91.7358C279.66 92.0128 279.455 92.3303 279.306 92.6882C279.157 93.0419 279.082 93.4148 279.082 93.8068C279.082 94.3267 279.204 94.8125 279.447 95.2642C279.694 95.7159 280.031 96.0803 280.457 96.3572C280.887 96.6342 281.375 96.7727 281.92 96.7727ZM293.076 98.179C292.113 98.179 291.293 97.9169 290.615 97.3928C289.938 96.8643 289.42 96.0994 289.062 95.098C288.704 94.0923 288.525 92.8778 288.525 91.4545C288.525 90.0398 288.704 88.8317 289.062 87.8303C289.424 86.8246 289.944 86.0575 290.622 85.5291C291.303 84.9964 292.122 84.7301 293.076 84.7301C294.031 84.7301 294.847 84.9964 295.524 85.5291C296.206 86.0575 296.726 86.8246 297.084 87.8303C297.446 88.8317 297.627 90.0398 297.627 91.4545C297.627 92.8778 297.448 94.0923 297.09 95.098C296.732 96.0994 296.215 96.8643 295.537 97.3928C294.86 97.9169 294.039 98.179 293.076 98.179ZM293.076 96.7727C294.031 96.7727 294.772 96.3125 295.301 95.392C295.829 94.4716 296.093 93.1591 296.093 91.4545C296.093 90.321 295.972 89.3558 295.729 88.5589C295.49 87.7621 295.145 87.1548 294.693 86.7372C294.246 86.3196 293.707 86.1108 293.076 86.1108C292.13 86.1108 291.391 86.5774 290.858 87.5107C290.325 88.4396 290.059 89.7543 290.059 91.4545C290.059 92.5881 290.178 93.5511 290.417 94.3438C290.656 95.1364 290.999 95.7393 291.446 96.1527C291.898 96.5661 292.441 96.7727 293.076 96.7727ZM303.099 83.2727V99.6364H299.315V98.3835H301.667V84.5256H299.315V83.2727H303.099ZM309.62 83.2727V99.6364H305.836V98.3835H308.189V84.5256H305.836V83.2727H309.62Z" fill="black"/>
<rect x="1" y="1" width="40" height="40" fill="white" stroke="#AFAFAF" stroke-width="2"/>
<rect x="40" y="1" width="40" height="40" fill="white" stroke="#AFAFAF" stroke-width="2"/>
<rect x="78" y="1" width="40" height="40" fill="white" stroke="#AFAFAF" stroke-width="2"/>
<rect x="1" y="77" width="40" height="40" fill="white" stroke="#AFAFAF" stroke-width="2"/>
<rect x="40" y="77" width="40" height="40" fill="white" stroke="#AFAFAF" stroke-width="2"/>
<rect x="78" y="77" width="40" height="40" fill="white" stroke="#AFAFAF" stroke-width="2"/>
<rect x="1" y="39" width="40" height="40" fill="white" stroke="#AFAFAF" stroke-width="2"/>
<rect x="40" y="39" width="40" height="40" fill="#FFDBDB" stroke="#AFAFAF" stroke-width="2"/>
<rect x="78" y="39" width="40" height="40" fill="white" stroke="#AFAFAF" stroke-width="2"/>
<path d="M17.2955 15.3636V27H15.8864V16.8409H15.8182L12.9773 18.7273V17.2955L15.8864 15.3636H17.2955ZM24.4375 27.1591C23.5814 27.1591 22.8523 26.9261 22.25 26.4602C21.6477 25.9905 21.1875 25.3106 20.8693 24.4205C20.5511 23.5265 20.392 22.447 20.392 21.1818C20.392 19.9242 20.5511 18.8504 20.8693 17.9602C21.1913 17.0663 21.6534 16.3845 22.2557 15.9148C22.8617 15.4413 23.589 15.2045 24.4375 15.2045C25.286 15.2045 26.0114 15.4413 26.6136 15.9148C27.2197 16.3845 27.6818 17.0663 28 17.9602C28.322 18.8504 28.483 19.9242 28.483 21.1818C28.483 22.447 28.3239 23.5265 28.0057 24.4205C27.6875 25.3106 27.2273 25.9905 26.625 26.4602C26.0227 26.9261 25.2936 27.1591 24.4375 27.1591ZM24.4375 25.9091C25.286 25.9091 25.9451 25.5 26.4148 24.6818C26.8845 23.8636 27.1193 22.697 27.1193 21.1818C27.1193 20.1742 27.0114 19.3163 26.7955 18.608C26.5833 17.8996 26.2765 17.3598 25.875 16.9886C25.4773 16.6174 24.9981 16.4318 24.4375 16.4318C23.5966 16.4318 22.9394 16.8466 22.4659 17.6761C21.9924 18.5019 21.7557 19.6705 21.7557 21.1818C21.7557 22.1894 21.8617 23.0455 22.0739 23.75C22.286 24.4545 22.5909 24.9905 22.9886 25.358C23.3902 25.7254 23.8731 25.9091 24.4375 25.9091Z" fill="black"/>
<path d="M15.1364 103.159C14.3864 103.159 13.7178 103.03 13.1307 102.773C12.5473 102.515 12.0833 102.157 11.7386 101.699C11.3977 101.237 11.2121 100.701 11.1818 100.091H12.6136C12.6439 100.466 12.7727 100.79 13 101.062C13.2273 101.331 13.5246 101.54 13.892 101.688C14.2595 101.835 14.6667 101.909 15.1136 101.909C15.6136 101.909 16.0568 101.822 16.4432 101.648C16.8295 101.473 17.1326 101.231 17.3523 100.92C17.572 100.61 17.6818 100.25 17.6818 99.8409C17.6818 99.4129 17.5758 99.036 17.3636 98.7102C17.1515 98.3807 16.8409 98.1231 16.4318 97.9375C16.0227 97.7519 15.5227 97.6591 14.9318 97.6591H14V96.4091H14.9318C15.3939 96.4091 15.7992 96.3258 16.1477 96.1591C16.5 95.9924 16.7746 95.7576 16.9716 95.4545C17.1723 95.1515 17.2727 94.7955 17.2727 94.3864C17.2727 93.9924 17.1856 93.6496 17.0114 93.358C16.8371 93.0663 16.5909 92.839 16.2727 92.6761C15.9583 92.5133 15.5871 92.4318 15.1591 92.4318C14.7576 92.4318 14.3788 92.5057 14.0227 92.6534C13.6705 92.7973 13.3826 93.0076 13.1591 93.2841C12.9356 93.5568 12.8144 93.8864 12.7955 94.2727H11.4318C11.4545 93.6629 11.6383 93.1288 11.983 92.6705C12.3277 92.2083 12.7784 91.8485 13.3352 91.5909C13.8958 91.3333 14.5114 91.2045 15.1818 91.2045C15.9015 91.2045 16.5189 91.3504 17.0341 91.642C17.5492 91.9299 17.9451 92.3106 18.2216 92.7841C18.4981 93.2576 18.6364 93.7689 18.6364 94.3182C18.6364 94.9735 18.464 95.5322 18.1193 95.9943C17.7784 96.4564 17.3144 96.7765 16.7273 96.9545V97.0455C17.4621 97.1667 18.036 97.4792 18.4489 97.983C18.8617 98.483 19.0682 99.1023 19.0682 99.8409C19.0682 100.473 18.8958 101.042 18.5511 101.545C18.2102 102.045 17.7443 102.439 17.1534 102.727C16.5625 103.015 15.8902 103.159 15.1364 103.159ZM25.1875 103.159C24.3314 103.159 23.6023 102.926 23 102.46C22.3977 101.991 21.9375 101.311 21.6193 100.42C21.3011 99.5265 21.142 98.447 21.142 97.1818C21.142 95.9242 21.3011 94.8504 21.6193 93.9602C21.9413 93.0663 22.4034 92.3845 23.0057 91.9148C23.6117 91.4413 24.339 91.2045 25.1875 91.2045C26.036 91.2045 26.7614 91.4413 27.3636 91.9148C27.9697 92.3845 28.4318 93.0663 28.75 93.9602C29.072 94.8504 29.233 95.9242 29.233 97.1818C29.233 98.447 29.0739 99.5265 28.7557 100.42C28.4375 101.311 27.9773 101.991 27.375 102.46C26.7727 102.926 26.0436 103.159 25.1875 103.159ZM25.1875 101.909C26.036 101.909 26.6951 101.5 27.1648 100.682C27.6345 99.8636 27.8693 98.697 27.8693 97.1818C27.8693 96.1742 27.7614 95.3163 27.5455 94.608C27.3333 93.8996 27.0265 93.3598 26.625 92.9886C26.2273 92.6174 25.7481 92.4318 25.1875 92.4318C24.3466 92.4318 23.6894 92.8466 23.2159 93.6761C22.7424 94.5019 22.5057 95.6705 22.5057 97.1818C22.5057 98.1894 22.6117 99.0455 22.8239 99.75C23.036 100.455 23.3409 100.991 23.7386 101.358C24.1402 101.725 24.6231 101.909 25.1875 101.909Z" fill="black"/>
<path d="M17.2955 53.3636V65H15.8864V54.8409H15.8182L12.9773 56.7273V55.2955L15.8864 53.3636H17.2955ZM24.4375 65.1591C23.5814 65.1591 22.8523 64.9261 22.25 64.4602C21.6477 63.9905 21.1875 63.3106 20.8693 62.4205C20.5511 61.5265 20.392 60.447 20.392 59.1818C20.392 57.9242 20.5511 56.8504 20.8693 55.9602C21.1913 55.0663 21.6534 54.3845 22.2557 53.9148C22.8617 53.4413 23.589 53.2045 24.4375 53.2045C25.286 53.2045 26.0114 53.4413 26.6136 53.9148C27.2197 54.3845 27.6818 55.0663 28 55.9602C28.322 56.8504 28.483 57.9242 28.483 59.1818C28.483 60.447 28.3239 61.5265 28.0057 62.4205C27.6875 63.3106 27.2273 63.9905 26.625 64.4602C26.0227 64.9261 25.2936 65.1591 24.4375 65.1591ZM24.4375 63.9091C25.286 63.9091 25.9451 63.5 26.4148 62.6818C26.8845 61.8636 27.1193 60.697 27.1193 59.1818C27.1193 58.1742 27.0114 57.3163 26.7955 56.608C26.5833 55.8996 26.2765 55.3598 25.875 54.9886C25.4773 54.6174 24.9981 54.4318 24.4375 54.4318C23.5966 54.4318 22.9394 54.8466 22.4659 55.6761C21.9924 56.5019 21.7557 57.6705 21.7557 59.1818C21.7557 60.1894 21.8617 61.0455 22.0739 61.75C22.286 62.4545 22.5909 62.9905 22.9886 63.358C23.3902 63.7254 23.8731 63.9091 24.4375 63.9091Z" fill="black"/>
<path d="M89.2045 27V25.9773L93.0455 21.7727C93.4962 21.2803 93.8674 20.8523 94.1591 20.4886C94.4508 20.1212 94.6667 19.7765 94.8068 19.4545C94.9508 19.1288 95.0227 18.7879 95.0227 18.4318C95.0227 18.0227 94.9242 17.6686 94.7273 17.3693C94.5341 17.0701 94.2689 16.839 93.9318 16.6761C93.5947 16.5133 93.2159 16.4318 92.7955 16.4318C92.3485 16.4318 91.9583 16.5246 91.625 16.7102C91.2955 16.892 91.0398 17.1477 90.858 17.4773C90.6799 17.8068 90.5909 18.1932 90.5909 18.6364H89.25C89.25 17.9545 89.4072 17.3561 89.7216 16.8409C90.036 16.3258 90.464 15.9242 91.0057 15.6364C91.5511 15.3485 92.1629 15.2045 92.8409 15.2045C93.5227 15.2045 94.1269 15.3485 94.6534 15.6364C95.1799 15.9242 95.5928 16.3125 95.892 16.8011C96.1913 17.2898 96.3409 17.8333 96.3409 18.4318C96.3409 18.8598 96.2633 19.2784 96.108 19.6875C95.9564 20.0928 95.6913 20.5455 95.3125 21.0455C94.9375 21.5417 94.4167 22.1477 93.75 22.8636L91.1364 25.6591V25.75H96.5455V27H89.2045ZM102.688 27.1591C101.831 27.1591 101.102 26.9261 100.5 26.4602C99.8977 25.9905 99.4375 25.3106 99.1193 24.4205C98.8011 23.5265 98.642 22.447 98.642 21.1818C98.642 19.9242 98.8011 18.8504 99.1193 17.9602C99.4413 17.0663 99.9034 16.3845 100.506 15.9148C101.112 15.4413 101.839 15.2045 102.688 15.2045C103.536 15.2045 104.261 15.4413 104.864 15.9148C105.47 16.3845 105.932 17.0663 106.25 17.9602C106.572 18.8504 106.733 19.9242 106.733 21.1818C106.733 22.447 106.574 23.5265 106.256 24.4205C105.938 25.3106 105.477 25.9905 104.875 26.4602C104.273 26.9261 103.544 27.1591 102.688 27.1591ZM102.688 25.9091C103.536 25.9091 104.195 25.5 104.665 24.6818C105.134 23.8636 105.369 22.697 105.369 21.1818C105.369 20.1742 105.261 19.3163 105.045 18.608C104.833 17.8996 104.527 17.3598 104.125 16.9886C103.727 16.6174 103.248 16.4318 102.688 16.4318C101.847 16.4318 101.189 16.8466 100.716 17.6761C100.242 18.5019 100.006 19.6705 100.006 21.1818C100.006 22.1894 100.112 23.0455 100.324 23.75C100.536 24.4545 100.841 24.9905 101.239 25.358C101.64 25.7254 102.123 25.9091 102.688 25.9091Z" fill="black"/>
<path d="M93.0682 103.159C92.5909 103.152 92.1136 103.061 91.6364 102.886C91.1591 102.712 90.7235 102.419 90.3295 102.006C89.9356 101.589 89.6193 101.027 89.3807 100.318C89.142 99.6061 89.0227 98.7121 89.0227 97.6364C89.0227 96.6061 89.1193 95.6932 89.3125 94.8977C89.5057 94.0985 89.786 93.4261 90.1534 92.8807C90.5208 92.3314 90.964 91.9148 91.483 91.6307C92.0057 91.3466 92.5947 91.2045 93.25 91.2045C93.9015 91.2045 94.4811 91.3352 94.9886 91.5966C95.5 91.8542 95.9167 92.214 96.2386 92.6761C96.5606 93.1383 96.7689 93.6705 96.8636 94.2727H95.4773C95.3485 93.75 95.0985 93.3163 94.7273 92.9716C94.3561 92.6269 93.8636 92.4545 93.25 92.4545C92.3485 92.4545 91.6383 92.8466 91.1193 93.6307C90.6042 94.4148 90.3447 95.5152 90.3409 96.9318H90.4318C90.6439 96.6098 90.8958 96.3352 91.1875 96.108C91.483 95.8769 91.8087 95.6989 92.1648 95.5739C92.5208 95.4489 92.8977 95.3864 93.2955 95.3864C93.9621 95.3864 94.572 95.553 95.125 95.8864C95.678 96.2159 96.1212 96.6723 96.4545 97.2557C96.7879 97.8352 96.9545 98.5 96.9545 99.25C96.9545 99.9697 96.7936 100.629 96.4716 101.227C96.1496 101.822 95.697 102.295 95.1136 102.648C94.5341 102.996 93.8523 103.167 93.0682 103.159ZM93.0682 101.909C93.5455 101.909 93.9735 101.79 94.3523 101.551C94.7348 101.312 95.036 100.992 95.2557 100.591C95.4792 100.189 95.5909 99.7424 95.5909 99.25C95.5909 98.7689 95.483 98.3314 95.267 97.9375C95.0549 97.5398 94.7614 97.2235 94.3864 96.9886C94.0152 96.7538 93.5909 96.6364 93.1136 96.6364C92.7538 96.6364 92.4186 96.7083 92.108 96.8523C91.7973 96.9924 91.5246 97.1856 91.2898 97.4318C91.0587 97.678 90.8769 97.9602 90.7443 98.2784C90.6117 98.5928 90.5455 98.9242 90.5455 99.2727C90.5455 99.7348 90.6534 100.167 90.8693 100.568C91.089 100.97 91.3883 101.294 91.767 101.54C92.1496 101.786 92.5833 101.909 93.0682 101.909ZM102.984 103.159C102.128 103.159 101.399 102.926 100.797 102.46C100.195 101.991 99.7344 101.311 99.4162 100.42C99.098 99.5265 98.9389 98.447 98.9389 97.1818C98.9389 95.9242 99.098 94.8504 99.4162 93.9602C99.7382 93.0663 100.2 92.3845 100.803 91.9148C101.409 91.4413 102.136 91.2045 102.984 91.2045C103.833 91.2045 104.558 91.4413 105.161 91.9148C105.767 92.3845 106.229 93.0663 106.547 93.9602C106.869 94.8504 107.03 95.9242 107.03 97.1818C107.03 98.447 106.871 99.5265 106.553 100.42C106.234 101.311 105.774 101.991 105.172 102.46C104.57 102.926 103.84 103.159 102.984 103.159ZM102.984 101.909C103.833 101.909 104.492 101.5 104.962 100.682C105.431 99.8636 105.666 98.697 105.666 97.1818C105.666 96.1742 105.558 95.3163 105.342 94.608C105.13 93.8996 104.823 93.3598 104.422 92.9886C104.024 92.6174 103.545 92.4318 102.984 92.4318C102.143 92.4318 101.486 92.8466 101.013 93.6761C100.539 94.5019 100.303 95.6705 100.303 97.1818C100.303 98.1894 100.409 99.0455 100.621 99.75C100.833 100.455 101.138 100.991 101.536 101.358C101.937 101.725 102.42 101.909 102.984 101.909Z" fill="black"/>
<path d="M88.9318 62.6136V61.4545L94.0455 53.3636H94.8864V55.1591H94.3182L90.4545 61.2727V61.3636H97.3409V62.6136H88.9318ZM94.4091 65V62.2614V61.7216V53.3636H95.75V65H94.4091ZM103.266 65.1591C102.41 65.1591 101.68 64.9261 101.078 64.4602C100.476 63.9905 100.016 63.3106 99.6974 62.4205C99.3793 61.5265 99.2202 60.447 99.2202 59.1818C99.2202 57.9242 99.3793 56.8504 99.6974 55.9602C100.019 55.0663 100.482 54.3845 101.084 53.9148C101.69 53.4413 102.417 53.2045 103.266 53.2045C104.114 53.2045 104.839 53.4413 105.442 53.9148C106.048 54.3845 106.51 55.0663 106.828 55.9602C107.15 56.8504 107.311 57.9242 107.311 59.1818C107.311 60.447 107.152 61.5265 106.834 62.4205C106.516 63.3106 106.055 63.9905 105.453 64.4602C104.851 64.9261 104.122 65.1591 103.266 65.1591ZM103.266 63.9091C104.114 63.9091 104.773 63.5 105.243 62.6818C105.713 61.8636 105.947 60.697 105.947 59.1818C105.947 58.1742 105.839 57.3163 105.624 56.608C105.411 55.8996 105.105 55.3598 104.703 54.9886C104.305 54.6174 103.826 54.4318 103.266 54.4318C102.425 54.4318 101.768 54.8466 101.294 55.6761C100.821 56.5019 100.584 57.6705 100.584 59.1818C100.584 60.1894 100.69 61.0455 100.902 61.75C101.114 62.4545 101.419 62.9905 101.817 63.358C102.218 63.7254 102.701 63.9091 103.266 63.9091Z" fill="black"/>
<path d="M54.1364 27.1591C53.3864 27.1591 52.7178 27.0303 52.1307 26.7727C51.5473 26.5152 51.0833 26.1572 50.7386 25.6989C50.3977 25.2367 50.2121 24.7008 50.1818 24.0909H51.6136C51.6439 24.4659 51.7727 24.7898 52 25.0625C52.2273 25.3314 52.5246 25.5398 52.892 25.6875C53.2595 25.8352 53.6667 25.9091 54.1136 25.9091C54.6136 25.9091 55.0568 25.822 55.4432 25.6477C55.8295 25.4735 56.1326 25.2311 56.3523 24.9205C56.572 24.6098 56.6818 24.25 56.6818 23.8409C56.6818 23.4129 56.5758 23.036 56.3636 22.7102C56.1515 22.3807 55.8409 22.1231 55.4318 21.9375C55.0227 21.7519 54.5227 21.6591 53.9318 21.6591H53V20.4091H53.9318C54.3939 20.4091 54.7992 20.3258 55.1477 20.1591C55.5 19.9924 55.7746 19.7576 55.9716 19.4545C56.1723 19.1515 56.2727 18.7955 56.2727 18.3864C56.2727 17.9924 56.1856 17.6496 56.0114 17.358C55.8371 17.0663 55.5909 16.839 55.2727 16.6761C54.9583 16.5133 54.5871 16.4318 54.1591 16.4318C53.7576 16.4318 53.3788 16.5057 53.0227 16.6534C52.6705 16.7973 52.3826 17.0076 52.1591 17.2841C51.9356 17.5568 51.8144 17.8864 51.7955 18.2727H50.4318C50.4545 17.6629 50.6383 17.1288 50.983 16.6705C51.3277 16.2083 51.7784 15.8485 52.3352 15.5909C52.8958 15.3333 53.5114 15.2045 54.1818 15.2045C54.9015 15.2045 55.5189 15.3504 56.0341 15.642C56.5492 15.9299 56.9451 16.3106 57.2216 16.7841C57.4981 17.2576 57.6364 17.7689 57.6364 18.3182C57.6364 18.9735 57.464 19.5322 57.1193 19.9943C56.7784 20.4564 56.3144 20.7765 55.7273 20.9545V21.0455C56.4621 21.1667 57.036 21.4792 57.4489 21.983C57.8617 22.483 58.0682 23.1023 58.0682 23.8409C58.0682 24.4735 57.8958 25.0417 57.5511 25.5455C57.2102 26.0455 56.7443 26.4394 56.1534 26.7273C55.5625 27.0152 54.8902 27.1591 54.1364 27.1591ZM64.1875 27.1591C63.3314 27.1591 62.6023 26.9261 62 26.4602C61.3977 25.9905 60.9375 25.3106 60.6193 24.4205C60.3011 23.5265 60.142 22.447 60.142 21.1818C60.142 19.9242 60.3011 18.8504 60.6193 17.9602C60.9413 17.0663 61.4034 16.3845 62.0057 15.9148C62.6117 15.4413 63.339 15.2045 64.1875 15.2045C65.036 15.2045 65.7614 15.4413 66.3636 15.9148C66.9697 16.3845 67.4318 17.0663 67.75 17.9602C68.072 18.8504 68.233 19.9242 68.233 21.1818C68.233 22.447 68.0739 23.5265 67.7557 24.4205C67.4375 25.3106 66.9773 25.9905 66.375 26.4602C65.7727 26.9261 65.0436 27.1591 64.1875 27.1591ZM64.1875 25.9091C65.036 25.9091 65.6951 25.5 66.1648 24.6818C66.6345 23.8636 66.8693 22.697 66.8693 21.1818C66.8693 20.1742 66.7614 19.3163 66.5455 18.608C66.3333 17.8996 66.0265 17.3598 65.625 16.9886C65.2273 16.6174 64.7481 16.4318 64.1875 16.4318C63.3466 16.4318 62.6894 16.8466 62.2159 17.6761C61.7424 18.5019 61.5057 19.6705 61.5057 21.1818C61.5057 22.1894 61.6117 23.0455 61.8239 23.75C62.036 24.4545 62.3409 24.9905 62.7386 25.358C63.1402 25.7254 63.6231 25.9091 64.1875 25.9091Z" fill="black"/>
<path d="M49.9318 100.614V99.4545L55.0455 91.3636H55.8864V93.1591H55.3182L51.4545 99.2727V99.3636H58.3409V100.614H49.9318ZM55.4091 103V100.261V99.7216V91.3636H56.75V103H55.4091ZM64.2656 103.159C63.4096 103.159 62.6804 102.926 62.0781 102.46C61.4759 101.991 61.0156 101.311 60.6974 100.42C60.3793 99.5265 60.2202 98.447 60.2202 97.1818C60.2202 95.9242 60.3793 94.8504 60.6974 93.9602C61.0194 93.0663 61.4815 92.3845 62.0838 91.9148C62.6899 91.4413 63.4171 91.2045 64.2656 91.2045C65.1141 91.2045 65.8395 91.4413 66.4418 91.9148C67.0478 92.3845 67.5099 93.0663 67.8281 93.9602C68.1501 94.8504 68.3111 95.9242 68.3111 97.1818C68.3111 98.447 68.152 99.5265 67.8338 100.42C67.5156 101.311 67.0554 101.991 66.4531 102.46C65.8509 102.926 65.1217 103.159 64.2656 103.159ZM64.2656 101.909C65.1141 101.909 65.7732 101.5 66.2429 100.682C66.7126 99.8636 66.9474 98.697 66.9474 97.1818C66.9474 96.1742 66.8395 95.3163 66.6236 94.608C66.4115 93.8996 66.1046 93.3598 65.7031 92.9886C65.3054 92.6174 64.8262 92.4318 64.2656 92.4318C63.4247 92.4318 62.7675 92.8466 62.294 93.6761C61.8205 94.5019 61.5838 95.6705 61.5838 97.1818C61.5838 98.1894 61.6899 99.0455 61.902 99.75C62.1141 100.455 62.419 100.991 62.8168 101.358C63.2183 101.725 63.7012 101.909 64.2656 101.909Z" fill="black"/>
<path d="M50.2045 65V63.9773L54.0455 59.7727C54.4962 59.2803 54.8674 58.8523 55.1591 58.4886C55.4508 58.1212 55.6667 57.7765 55.8068 57.4545C55.9508 57.1288 56.0227 56.7879 56.0227 56.4318C56.0227 56.0227 55.9242 55.6686 55.7273 55.3693C55.5341 55.0701 55.2689 54.839 54.9318 54.6761C54.5947 54.5133 54.2159 54.4318 53.7955 54.4318C53.3485 54.4318 52.9583 54.5246 52.625 54.7102C52.2955 54.892 52.0398 55.1477 51.858 55.4773C51.6799 55.8068 51.5909 56.1932 51.5909 56.6364H50.25C50.25 55.9545 50.4072 55.3561 50.7216 54.8409C51.036 54.3258 51.464 53.9242 52.0057 53.6364C52.5511 53.3485 53.1629 53.2045 53.8409 53.2045C54.5227 53.2045 55.1269 53.3485 55.6534 53.6364C56.1799 53.9242 56.5928 54.3125 56.892 54.8011C57.1913 55.2898 57.3409 55.8333 57.3409 56.4318C57.3409 56.8598 57.2633 57.2784 57.108 57.6875C56.9564 58.0928 56.6913 58.5455 56.3125 59.0455C55.9375 59.5417 55.4167 60.1477 54.75 60.8636L52.1364 63.6591V63.75H57.5455V65H50.2045ZM63.6875 65.1591C62.8314 65.1591 62.1023 64.9261 61.5 64.4602C60.8977 63.9905 60.4375 63.3106 60.1193 62.4205C59.8011 61.5265 59.642 60.447 59.642 59.1818C59.642 57.9242 59.8011 56.8504 60.1193 55.9602C60.4413 55.0663 60.9034 54.3845 61.5057 53.9148C62.1117 53.4413 62.839 53.2045 63.6875 53.2045C64.536 53.2045 65.2614 53.4413 65.8636 53.9148C66.4697 54.3845 66.9318 55.0663 67.25 55.9602C67.572 56.8504 67.733 57.9242 67.733 59.1818C67.733 60.447 67.5739 61.5265 67.2557 62.4205C66.9375 63.3106 66.4773 63.9905 65.875 64.4602C65.2727 64.9261 64.5436 65.1591 63.6875 65.1591ZM63.6875 63.9091C64.536 63.9091 65.1951 63.5 65.6648 62.6818C66.1345 61.8636 66.3693 60.697 66.3693 59.1818C66.3693 58.1742 66.2614 57.3163 66.0455 56.608C65.8333 55.8996 65.5265 55.3598 65.125 54.9886C64.7273 54.6174 64.2481 54.4318 63.6875 54.4318C62.8466 54.4318 62.1894 54.8466 61.7159 55.6761C61.2424 56.5019 61.0057 57.6705 61.0057 59.1818C61.0057 60.1894 61.1117 61.0455 61.3239 61.75C61.536 62.4545 61.8409 62.9905 62.2386 63.358C62.6402 63.7254 63.1231 63.9091 63.6875 63.9091Z" fill="black"/>
<path d="M156 55H174" stroke="black" stroke-width="3.5" stroke-linecap="round"/>
<path d="M156 62.75H174" stroke="black" stroke-width="3.5" stroke-linecap="round"/>
<path d="M44.9574 192.909V206H43.3722V194.571H43.2955L40.0994 196.693V195.082L43.3722 192.909H44.9574ZM52.9922 206.179C52.0291 206.179 51.2088 205.917 50.5312 205.393C49.8537 204.864 49.3359 204.099 48.978 203.098C48.62 202.092 48.4411 200.878 48.4411 199.455C48.4411 198.04 48.62 196.832 48.978 195.83C49.3402 194.825 49.8601 194.058 50.5376 193.529C51.2195 192.996 52.0376 192.73 52.9922 192.73C53.9467 192.73 54.7628 192.996 55.4403 193.529C56.1222 194.058 56.642 194.825 57 195.83C57.3622 196.832 57.5433 198.04 57.5433 199.455C57.5433 200.878 57.3643 202.092 57.0064 203.098C56.6484 204.099 56.1307 204.864 55.4531 205.393C54.7756 205.917 53.9553 206.179 52.9922 206.179ZM52.9922 204.773C53.9467 204.773 54.6882 204.312 55.2166 203.392C55.745 202.472 56.0092 201.159 56.0092 199.455C56.0092 198.321 55.8878 197.356 55.6449 196.559C55.4063 195.762 55.0611 195.155 54.6094 194.737C54.1619 194.32 53.6229 194.111 52.9922 194.111C52.0462 194.111 51.3068 194.577 50.7741 195.511C50.2415 196.44 49.9751 197.754 49.9751 199.455C49.9751 200.588 50.0945 201.551 50.3331 202.344C50.5717 203.136 50.9148 203.739 51.3622 204.153C51.8139 204.566 52.3572 204.773 52.9922 204.773ZM69.6371 192.909V206H68.0518V194.571H67.9751L64.7791 196.693V195.082L68.0518 192.909H69.6371ZM77.6719 206.179C76.7088 206.179 75.8885 205.917 75.2109 205.393C74.5334 204.864 74.0156 204.099 73.6577 203.098C73.2997 202.092 73.1207 200.878 73.1207 199.455C73.1207 198.04 73.2997 196.832 73.6577 195.83C74.0199 194.825 74.5398 194.058 75.2173 193.529C75.8991 192.996 76.7173 192.73 77.6719 192.73C78.6264 192.73 79.4425 192.996 80.12 193.529C80.8018 194.058 81.3217 194.825 81.6797 195.83C82.0419 196.832 82.223 198.04 82.223 199.455C82.223 200.878 82.044 202.092 81.6861 203.098C81.3281 204.099 80.8104 204.864 80.1328 205.393C79.4553 205.917 78.6349 206.179 77.6719 206.179ZM77.6719 204.773C78.6264 204.773 79.3679 204.312 79.8963 203.392C80.4247 202.472 80.6889 201.159 80.6889 199.455C80.6889 198.321 80.5675 197.356 80.3246 196.559C80.0859 195.762 79.7408 195.155 79.2891 194.737C78.8416 194.32 78.3026 194.111 77.6719 194.111C76.7259 194.111 75.9865 194.577 75.4538 195.511C74.9212 196.44 74.6548 197.754 74.6548 199.455C74.6548 200.588 74.7741 201.551 75.0128 202.344C75.2514 203.136 75.5945 203.739 76.0419 204.153C76.4936 204.566 77.0369 204.773 77.6719 204.773ZM89.7145 206V204.849L94.0355 200.119C94.5426 199.565 94.9602 199.084 95.2884 198.675C95.6165 198.261 95.8594 197.874 96.017 197.511C96.179 197.145 96.2599 196.761 96.2599 196.361C96.2599 195.901 96.1491 195.502 95.9276 195.165C95.7102 194.829 95.4119 194.569 95.0327 194.386C94.6534 194.202 94.2273 194.111 93.7543 194.111C93.2514 194.111 92.8125 194.215 92.4375 194.424C92.0668 194.629 91.7791 194.916 91.5746 195.287C91.3743 195.658 91.2741 196.092 91.2741 196.591H89.7656C89.7656 195.824 89.9425 195.151 90.2962 194.571C90.6499 193.991 91.1314 193.54 91.7408 193.216C92.3544 192.892 93.0426 192.73 93.8054 192.73C94.5724 192.73 95.2521 192.892 95.8445 193.216C96.4368 193.54 96.9013 193.977 97.2379 194.526C97.5746 195.076 97.7429 195.688 97.7429 196.361C97.7429 196.842 97.6555 197.313 97.4808 197.773C97.3104 198.229 97.0121 198.739 96.5859 199.301C96.1641 199.859 95.5781 200.541 94.8281 201.347L91.8878 204.491V204.594H97.973V206H89.7145ZM104.883 206.179C103.92 206.179 103.099 205.917 102.422 205.393C101.744 204.864 101.227 204.099 100.869 203.098C100.511 202.092 100.332 200.878 100.332 199.455C100.332 198.04 100.511 196.832 100.869 195.83C101.231 194.825 101.751 194.058 102.428 193.529C103.11 192.996 103.928 192.73 104.883 192.73C105.837 192.73 106.653 192.996 107.331 193.529C108.013 194.058 108.533 194.825 108.891 195.83C109.253 196.832 109.434 198.04 109.434 199.455C109.434 200.878 109.255 202.092 108.897 203.098C108.539 204.099 108.021 204.864 107.344 205.393C106.666 205.917 105.846 206.179 104.883 206.179ZM104.883 204.773C105.837 204.773 106.579 204.312 107.107 203.392C107.636 202.472 107.9 201.159 107.9 199.455C107.9 198.321 107.778 197.356 107.536 196.559C107.297 195.762 106.952 195.155 106.5 194.737C106.053 194.32 105.513 194.111 104.883 194.111C103.937 194.111 103.197 194.577 102.665 195.511C102.132 196.44 101.866 197.754 101.866 199.455C101.866 200.588 101.985 201.551 102.224 202.344C102.462 203.136 102.805 203.739 103.253 204.153C103.705 204.566 104.248 204.773 104.883 204.773ZM116.925 206V204.849L121.246 200.119C121.754 199.565 122.171 199.084 122.499 198.675C122.827 198.261 123.07 197.874 123.228 197.511C123.39 197.145 123.471 196.761 123.471 196.361C123.471 195.901 123.36 195.502 123.138 195.165C122.921 194.829 122.623 194.569 122.244 194.386C121.864 194.202 121.438 194.111 120.965 194.111C120.462 194.111 120.023 194.215 119.648 194.424C119.278 194.629 118.99 194.916 118.786 195.287C118.585 195.658 118.485 196.092 118.485 196.591H116.977C116.977 195.824 117.153 195.151 117.507 194.571C117.861 193.991 118.342 193.54 118.952 193.216C119.565 192.892 120.254 192.73 121.016 192.73C121.783 192.73 122.463 192.892 123.055 193.216C123.648 193.54 124.112 193.977 124.449 194.526C124.786 195.076 124.954 195.688 124.954 196.361C124.954 196.842 124.866 197.313 124.692 197.773C124.521 198.229 124.223 198.739 123.797 199.301C123.375 199.859 122.789 200.541 122.039 201.347L119.099 204.491V204.594H125.184V206H116.925ZM132.094 206.179C131.131 206.179 130.31 205.917 129.633 205.393C128.955 204.864 128.438 204.099 128.08 203.098C127.722 202.092 127.543 200.878 127.543 199.455C127.543 198.04 127.722 196.832 128.08 195.83C128.442 194.825 128.962 194.058 129.639 193.529C130.321 192.996 131.139 192.73 132.094 192.73C133.048 192.73 133.864 192.996 134.542 193.529C135.224 194.058 135.744 194.825 136.102 195.83C136.464 196.832 136.645 198.04 136.645 199.455C136.645 200.878 136.466 202.092 136.108 203.098C135.75 204.099 135.232 204.864 134.555 205.393C133.877 205.917 133.057 206.179 132.094 206.179ZM132.094 204.773C133.048 204.773 133.79 204.312 134.318 203.392C134.847 202.472 135.111 201.159 135.111 199.455C135.111 198.321 134.989 197.356 134.746 196.559C134.508 195.762 134.163 195.155 133.711 194.737C133.263 194.32 132.724 194.111 132.094 194.111C131.148 194.111 130.408 194.577 129.876 195.511C129.343 196.44 129.077 197.754 129.077 199.455C129.077 200.588 129.196 201.551 129.435 202.344C129.673 203.136 130.016 203.739 130.464 204.153C130.915 204.566 131.459 204.773 132.094 204.773ZM154.399 206.199C153.339 206.199 152.394 206.017 151.565 205.652C150.741 205.283 150.09 204.776 149.612 204.132C149.139 203.483 148.895 202.735 148.881 201.888H151.977C151.996 202.243 152.112 202.555 152.325 202.825C152.543 203.09 152.832 203.296 153.192 203.443C153.552 203.59 153.956 203.663 154.406 203.663C154.875 203.663 155.289 203.58 155.649 203.415C156.009 203.249 156.291 203.019 156.494 202.726C156.698 202.432 156.8 202.094 156.8 201.71C156.8 201.322 156.691 200.979 156.473 200.68C156.26 200.377 155.952 200.141 155.55 199.97C155.152 199.8 154.679 199.714 154.129 199.714H152.773V197.456H154.129C154.593 197.456 155.003 197.375 155.358 197.214C155.718 197.054 155.997 196.831 156.196 196.547C156.395 196.258 156.494 195.922 156.494 195.538C156.494 195.174 156.407 194.854 156.232 194.58C156.061 194.3 155.82 194.082 155.507 193.926C155.199 193.77 154.839 193.692 154.428 193.692C154.011 193.692 153.63 193.768 153.284 193.919C152.938 194.066 152.661 194.277 152.453 194.551C152.245 194.826 152.134 195.148 152.119 195.517H149.172C149.186 194.679 149.425 193.94 149.889 193.301C150.353 192.662 150.978 192.162 151.764 191.803C152.555 191.438 153.447 191.256 154.442 191.256C155.446 191.256 156.324 191.438 157.077 191.803C157.83 192.167 158.414 192.66 158.831 193.28C159.252 193.895 159.461 194.587 159.456 195.354C159.461 196.168 159.207 196.848 158.696 197.392C158.189 197.937 157.529 198.282 156.714 198.429V198.543C157.785 198.68 158.599 199.052 159.158 199.658C159.721 200.259 160 201.012 159.996 201.916C160 202.745 159.761 203.481 159.278 204.125C158.8 204.769 158.14 205.276 157.297 205.645C156.454 206.014 155.488 206.199 154.399 206.199ZM167.909 206.32C166.688 206.315 165.637 206.014 164.756 205.418C163.88 204.821 163.205 203.957 162.732 202.825C162.263 201.694 162.031 200.332 162.036 198.741C162.036 197.155 162.27 195.804 162.739 194.686C163.212 193.569 163.887 192.719 164.763 192.136C165.644 191.549 166.693 191.256 167.909 191.256C169.126 191.256 170.173 191.549 171.049 192.136C171.929 192.723 172.606 193.576 173.08 194.693C173.553 195.806 173.788 197.155 173.783 198.741C173.783 200.337 173.546 201.701 173.073 202.832C172.604 203.964 171.932 204.828 171.056 205.425C170.18 206.021 169.131 206.32 167.909 206.32ZM167.909 203.77C168.743 203.77 169.408 203.351 169.905 202.513C170.402 201.675 170.649 200.418 170.644 198.741C170.644 197.638 170.53 196.72 170.303 195.986C170.08 195.252 169.763 194.7 169.351 194.331C168.944 193.962 168.463 193.777 167.909 193.777C167.081 193.777 166.418 194.191 165.921 195.02C165.424 195.848 165.173 197.089 165.168 198.741C165.168 199.859 165.279 200.792 165.502 201.54C165.729 202.283 166.049 202.842 166.461 203.216C166.873 203.585 167.355 203.77 167.909 203.77ZM190.7 206.179C189.857 206.179 189.104 206.034 188.444 205.744C187.788 205.455 187.266 205.052 186.878 204.536C186.494 204.016 186.286 203.413 186.251 202.727H187.862C187.896 203.149 188.041 203.513 188.297 203.82C188.553 204.123 188.887 204.357 189.3 204.523C189.714 204.69 190.172 204.773 190.675 204.773C191.237 204.773 191.736 204.675 192.17 204.479C192.605 204.283 192.946 204.01 193.193 203.661C193.44 203.311 193.564 202.906 193.564 202.446C193.564 201.964 193.445 201.54 193.206 201.174C192.967 200.803 192.618 200.513 192.158 200.305C191.697 200.096 191.135 199.991 190.47 199.991H189.422V198.585H190.47C190.99 198.585 191.446 198.491 191.838 198.304C192.234 198.116 192.543 197.852 192.765 197.511C192.991 197.17 193.104 196.77 193.104 196.31C193.104 195.866 193.006 195.481 192.81 195.153C192.614 194.825 192.337 194.569 191.979 194.386C191.625 194.202 191.207 194.111 190.726 194.111C190.274 194.111 189.848 194.194 189.447 194.36C189.051 194.522 188.727 194.759 188.476 195.07C188.224 195.376 188.088 195.747 188.067 196.182H186.533C186.558 195.496 186.765 194.895 187.153 194.379C187.54 193.859 188.048 193.455 188.674 193.165C189.305 192.875 189.997 192.73 190.751 192.73C191.561 192.73 192.256 192.894 192.835 193.222C193.415 193.546 193.86 193.974 194.171 194.507C194.482 195.04 194.638 195.615 194.638 196.233C194.638 196.97 194.444 197.599 194.056 198.119C193.673 198.638 193.151 198.999 192.49 199.199V199.301C193.317 199.437 193.962 199.789 194.427 200.356C194.891 200.918 195.124 201.615 195.124 202.446C195.124 203.158 194.93 203.797 194.542 204.364C194.158 204.926 193.634 205.369 192.969 205.693C192.305 206.017 191.548 206.179 190.7 206.179ZM202.008 206.179C201.045 206.179 200.224 205.917 199.547 205.393C198.869 204.864 198.352 204.099 197.994 203.098C197.636 202.092 197.457 200.878 197.457 199.455C197.457 198.04 197.636 196.832 197.994 195.83C198.356 194.825 198.876 194.058 199.553 193.529C200.235 192.996 201.053 192.73 202.008 192.73C202.962 192.73 203.778 192.996 204.456 193.529C205.138 194.058 205.658 194.825 206.016 195.83C206.378 196.832 206.559 198.04 206.559 199.455C206.559 200.878 206.38 202.092 206.022 203.098C205.664 204.099 205.146 204.864 204.469 205.393C203.791 205.917 202.971 206.179 202.008 206.179ZM202.008 204.773C202.962 204.773 203.704 204.312 204.232 203.392C204.761 202.472 205.025 201.159 205.025 199.455C205.025 198.321 204.903 197.356 204.661 196.559C204.422 195.762 204.077 195.155 203.625 194.737C203.178 194.32 202.638 194.111 202.008 194.111C201.062 194.111 200.322 194.577 199.79 195.511C199.257 196.44 198.991 197.754 198.991 199.455C198.991 200.588 199.11 201.551 199.349 202.344C199.587 203.136 199.93 203.739 200.378 204.153C200.83 204.566 201.373 204.773 202.008 204.773ZM213.744 203.315V202.011L219.496 192.909H220.442V194.929H219.803L215.457 201.807V201.909H223.204V203.315H213.744ZM219.906 206V202.919V202.312V192.909H221.414V206H219.906ZM229.869 206.179C228.906 206.179 228.086 205.917 227.408 205.393C226.731 204.864 226.213 204.099 225.855 203.098C225.497 202.092 225.318 200.878 225.318 199.455C225.318 198.04 225.497 196.832 225.855 195.83C226.217 194.825 226.737 194.058 227.415 193.529C228.096 192.996 228.915 192.73 229.869 192.73C230.824 192.73 231.64 192.996 232.317 193.529C232.999 194.058 233.519 194.825 233.877 195.83C234.239 196.832 234.42 198.04 234.42 199.455C234.42 200.878 234.241 202.092 233.883 203.098C233.525 204.099 233.008 204.864 232.33 205.393C231.653 205.917 230.832 206.179 229.869 206.179ZM229.869 204.773C230.824 204.773 231.565 204.312 232.094 203.392C232.622 202.472 232.886 201.159 232.886 199.455C232.886 198.321 232.765 197.356 232.522 196.559C232.283 195.762 231.938 195.155 231.486 194.737C231.039 194.32 230.5 194.111 229.869 194.111C228.923 194.111 228.184 194.577 227.651 195.511C227.118 196.44 226.852 197.754 226.852 199.455C226.852 200.588 226.971 201.551 227.21 202.344C227.449 203.136 227.792 203.739 228.239 204.153C228.691 204.566 229.234 204.773 229.869 204.773ZM241.605 203.315V202.011L247.358 192.909H248.304V194.929H247.665L243.318 201.807V201.909H251.065V203.315H241.605ZM247.767 206V202.919V202.312V192.909H249.275V206H247.767ZM257.73 206.179C256.767 206.179 255.947 205.917 255.27 205.393C254.592 204.864 254.074 204.099 253.716 203.098C253.358 202.092 253.179 200.878 253.179 199.455C253.179 198.04 253.358 196.832 253.716 195.83C254.078 194.825 254.598 194.058 255.276 193.529C255.958 192.996 256.776 192.73 257.73 192.73C258.685 192.73 259.501 192.996 260.179 193.529C260.86 194.058 261.38 194.825 261.738 195.83C262.1 196.832 262.282 198.04 262.282 199.455C262.282 200.878 262.103 202.092 261.745 203.098C261.387 204.099 260.869 204.864 260.191 205.393C259.514 205.917 258.694 206.179 257.73 206.179ZM257.73 204.773C258.685 204.773 259.426 204.312 259.955 203.392C260.483 202.472 260.748 201.159 260.748 199.455C260.748 198.321 260.626 197.356 260.383 196.559C260.145 195.762 259.799 195.155 259.348 194.737C258.9 194.32 258.361 194.111 257.73 194.111C256.784 194.111 256.045 194.577 255.512 195.511C254.98 196.44 254.713 197.754 254.713 199.455C254.713 200.588 254.833 201.551 255.071 202.344C255.31 203.136 255.653 203.739 256.1 204.153C256.552 204.566 257.096 204.773 257.73 204.773ZM274.12 206.179C273.583 206.17 273.046 206.068 272.509 205.872C271.972 205.676 271.482 205.346 271.039 204.881C270.596 204.413 270.24 203.78 269.971 202.983C269.703 202.182 269.569 201.176 269.569 199.966C269.569 198.807 269.677 197.78 269.895 196.885C270.112 195.986 270.427 195.229 270.841 194.616C271.254 193.998 271.752 193.529 272.336 193.21C272.924 192.89 273.587 192.73 274.324 192.73C275.057 192.73 275.709 192.877 276.28 193.171C276.855 193.461 277.324 193.866 277.686 194.386C278.049 194.906 278.283 195.504 278.39 196.182H276.83C276.685 195.594 276.404 195.106 275.986 194.718C275.569 194.33 275.015 194.136 274.324 194.136C273.31 194.136 272.511 194.577 271.927 195.46C271.348 196.342 271.056 197.58 271.051 199.173H271.154C271.392 198.811 271.676 198.502 272.004 198.246C272.336 197.987 272.703 197.786 273.103 197.646C273.504 197.505 273.928 197.435 274.375 197.435C275.125 197.435 275.811 197.622 276.434 197.997C277.056 198.368 277.554 198.881 277.929 199.538C278.304 200.19 278.492 200.938 278.492 201.781C278.492 202.591 278.311 203.332 277.949 204.006C277.586 204.675 277.077 205.207 276.421 205.604C275.769 205.996 275.002 206.188 274.12 206.179ZM274.12 204.773C274.657 204.773 275.138 204.638 275.564 204.37C275.995 204.102 276.333 203.741 276.581 203.29C276.832 202.838 276.958 202.335 276.958 201.781C276.958 201.24 276.836 200.748 276.593 200.305C276.355 199.857 276.025 199.501 275.603 199.237C275.185 198.973 274.708 198.841 274.171 198.841C273.766 198.841 273.389 198.922 273.039 199.084C272.69 199.241 272.383 199.459 272.119 199.736C271.859 200.013 271.654 200.33 271.505 200.688C271.356 201.042 271.282 201.415 271.282 201.807C271.282 202.327 271.403 202.812 271.646 203.264C271.893 203.716 272.23 204.08 272.656 204.357C273.086 204.634 273.574 204.773 274.12 204.773ZM285.275 206.179C284.312 206.179 283.492 205.917 282.814 205.393C282.137 204.864 281.619 204.099 281.261 203.098C280.903 202.092 280.724 200.878 280.724 199.455C280.724 198.04 280.903 196.832 281.261 195.83C281.623 194.825 282.143 194.058 282.821 193.529C283.503 192.996 284.321 192.73 285.275 192.73C286.23 192.73 287.046 192.996 287.724 193.529C288.405 194.058 288.925 194.825 289.283 195.83C289.645 196.832 289.827 198.04 289.827 199.455C289.827 200.878 289.648 202.092 289.29 203.098C288.932 204.099 288.414 204.864 287.736 205.393C287.059 205.917 286.238 206.179 285.275 206.179ZM285.275 204.773C286.23 204.773 286.971 204.312 287.5 203.392C288.028 202.472 288.292 201.159 288.292 199.455C288.292 198.321 288.171 197.356 287.928 196.559C287.689 195.762 287.344 195.155 286.893 194.737C286.445 194.32 285.906 194.111 285.275 194.111C284.329 194.111 283.59 194.577 283.057 195.511C282.525 196.44 282.258 197.754 282.258 199.455C282.258 200.588 282.378 201.551 282.616 202.344C282.855 203.136 283.198 203.739 283.645 204.153C284.097 204.566 284.64 204.773 285.275 204.773Z" fill="black"/>
<circle cx="161" cy="199" r="17.5" stroke="#FF0000"/>
<path d="M159.939 161.061C160.525 161.646 161.475 161.646 162.061 161.061L171.607 151.515C172.192 150.929 172.192 149.979 171.607 149.393C171.021 148.808 170.071 148.808 169.485 149.393L161 157.879L152.515 149.393C151.929 148.808 150.979 148.808 150.393 149.393C149.808 149.979 149.808 150.929 150.393 151.515L159.939 161.061ZM162.5 160L162.5 134L159.5 134L159.5 160L162.5 160Z" fill="#0000FF"/>
</svg>
