<svg width="383" height="161" viewBox="0 0 383 161" fill="none" xmlns="http://www.w3.org/2000/svg">
<path fill-rule="evenodd" clip-rule="evenodd" d="M129.9 0L79.4935 5.53132e-07V10.42H68.75V0H20L0 160H149.225L129.9 0ZM79.17 150H69.17V120H79.17V150ZM79.17 100.42H69.17V70H79.17V100.42ZM68.75 49.59V29.59H78.75V49.59H68.75Z" fill="#BEBEBE"/>
<path d="M128.804 63.3362C128.72 60.9392 127.747 58.9586 125.313 58.2277L86.5969 46.5993C84.1633 45.8683 82.297 46.9962 80.8693 48.9391L67.1379 67.889L58.8319 95.5434C58.2227 97.5714 58.7387 98.5304 60.7667 99.1395L62.6103 99.6932C64.6383 100.302 65.5973 99.7864 66.2064 97.7584L67.5907 93.1493L115.525 107.546L114.141 112.155C113.532 114.183 114.048 115.142 116.076 115.752L117.919 116.305C119.947 116.914 120.906 116.398 121.515 114.37L129.821 86.716L128.804 63.3362Z" fill="white" stroke="black" stroke-width="3.125"/>
<path d="M74.6012 83.1929C72.561 82.5801 71.4087 80.4384 72.0214 78.3982C72.6342 76.358 74.7759 75.2056 76.8162 75.8184C78.8564 76.4312 80.0087 78.573 79.396 80.6131C78.7832 82.6533 76.6415 83.8057 74.6012 83.1929Z" fill="white" stroke="black" stroke-width="3.125"/>
<path d="M115.16 95.3765C113.12 94.7638 111.967 92.622 112.58 90.5818C113.193 88.5416 115.335 87.3892 117.375 88.002C119.415 88.6148 120.567 90.7566 119.955 92.7967C119.342 94.8369 117.2 95.9893 115.16 95.3765Z" fill="white" stroke="black" stroke-width="3.125"/>
<path d="M77.37 63.9269L85.8552 52.4058L122.728 63.4805L123.461 77.7703L77.37 63.9269Z" fill="white" stroke="black" stroke-width="3.125" stroke-linejoin="round"/>
<path d="M67.2582 43.3602C66.5698 44.3294 66.7956 45.6742 67.7669 46.3632C68.7377 47.0544 70.0808 46.826 70.7713 45.8572C73.2442 42.3808 77.4769 40.3216 81.9932 40.8546C83.1734 40.9942 84.2438 40.1499 84.382 38.9669C84.5224 37.7843 83.6777 36.7161 82.4944 36.5778C76.3583 35.8566 70.602 38.6496 67.2582 43.3602Z" fill="black" stroke="black" stroke-width="0.00212"/>
<path d="M84.7348 25.7377C85.916 25.8753 86.9869 25.0292 87.1267 23.8486C87.2643 22.6674 86.4182 21.5965 85.2376 21.4568C73.1967 20.0437 61.9038 25.5224 55.3363 34.765C54.6478 35.7345 54.8734 37.0792 55.845 37.768C56.8135 38.4585 58.1588 38.2311 58.8472 37.2617C64.5431 29.2547 74.3145 24.5105 84.7348 25.7377Z" fill="black" stroke="black" stroke-width="0.00212"/>
<path d="M136.912 122.898C137.357 121.796 136.826 120.54 135.722 120.095C134.617 119.648 133.363 120.181 132.916 121.283C131.316 125.238 127.676 128.222 123.159 128.75C121.978 128.888 121.133 129.957 121.272 131.14C121.41 132.323 122.479 133.166 123.662 133.027C129.799 132.306 134.751 128.256 136.912 122.898Z" fill="black" stroke="black" stroke-width="0.00212"/>
<path d="M123.994 144.092C122.813 144.232 121.967 145.303 122.105 146.484C122.245 147.665 123.316 148.51 124.497 148.373C136.537 146.957 146.254 139.011 150.501 128.498C150.946 127.396 150.415 126.14 149.31 125.695C148.208 125.248 146.952 125.781 146.507 126.883C142.821 135.992 134.415 142.871 123.994 144.092Z" fill="black" stroke="black" stroke-width="0.00212"/>
<path fill-rule="evenodd" clip-rule="evenodd" d="M362.9 0L312.493 5.53132e-07V10.42H301.75V0H253L233 160H382.225L362.9 0ZM312.17 150H302.17V120H312.17V150ZM312.17 100.42H302.17V70H312.17V100.42ZM301.75 49.59V29.59H311.75V49.59H301.75Z" fill="#BEBEBE"/>
<path d="M292.75 19.7438C292.206 18.141 291.147 17 289.354 17L260.829 17C259.036 17 258.004 18.141 257.433 19.7438L252 35.3374V55.7123C252 57.2064 252.543 57.7497 254.037 57.7497H255.396C256.89 57.7497 257.433 57.2064 257.433 55.7123V52.3164L292.75 52.3164V55.7123C292.75 57.2064 293.293 57.7497 294.787 57.7497H296.146C297.64 57.7497 298.183 57.2064 298.183 55.7123V35.3374L292.75 19.7438Z" fill="white" stroke="black" stroke-width="3.125"/>
<path d="M260.15 44.1657C258.647 44.1657 257.434 42.9522 257.434 41.4491C257.434 39.9459 258.647 38.7324 260.15 38.7324C261.653 38.7324 262.867 39.9459 262.867 41.4491C262.867 42.9522 261.653 44.1657 260.15 44.1657Z" fill="white" stroke="black" stroke-width="3.125"/>
<path d="M290.033 44.1657C288.53 44.1657 287.316 42.9522 287.316 41.4491C287.316 39.9459 288.53 38.7324 290.033 38.7324C291.536 38.7324 292.75 39.9459 292.75 41.4491C292.75 42.9522 291.536 44.1657 290.033 44.1657Z" fill="white" stroke="black" stroke-width="3.125"/>
<path d="M258.113 30.5844L261.509 21.0762L288.676 21.0762L292.071 30.5844L258.113 30.5844Z" fill="white" stroke="black" stroke-width="3.125" stroke-linejoin="round"/>
<line x1="253.49" y1="0.176882" x2="234.49" y2="160.177" stroke="#0000FF" stroke-opacity="0.5" stroke-width="3"/>
<line x1="302.5" y1="-5.00916e-10" x2="302.5" y2="160" stroke="#0000FF" stroke-opacity="0.5" stroke-width="3"/>
</svg>
