<svg width="389" height="301" viewBox="0 0 389 301" fill="none" xmlns="http://www.w3.org/2000/svg">
<path d="M8.60156 20.1937C8.18872 23.0798 6.73051 24.7085 5.27229 24.485C2.39374 24.0419 0 20.3679 0 17.4553C0 14.5427 2.36344 13.8079 5.27229 13.9404C9.22273 14.1222 9.06744 16.925 8.60156 20.1937Z" fill="#272B2B"/>
<path d="M10.6843 30.2885C11.7051 30.2885 12.5326 29.4609 12.5326 28.4401C12.5326 27.4193 11.7051 26.5918 10.6843 26.5918C9.66346 26.5918 8.83594 27.4193 8.83594 28.4401C8.83594 29.4609 9.66346 30.2885 10.6843 30.2885Z" fill="#D99E82"/>
<path d="M13.1165 26.8111C13.6792 26.8111 14.1354 26.355 14.1354 25.7923C14.1354 25.2296 13.6792 24.7734 13.1165 24.7734C12.5538 24.7734 12.0977 25.2296 12.0977 25.7923C12.0977 26.355 12.5538 26.8111 13.1165 26.8111Z" fill="#D99E82"/>
<path d="M14.6517 29.4596C15.2144 29.4596 15.6705 29.0034 15.6705 28.4407C15.6705 27.878 15.2144 27.4219 14.6517 27.4219C14.089 27.4219 13.6328 27.878 13.6328 28.4407C13.6328 29.0034 14.089 29.4596 14.6517 29.4596Z" fill="#D99E82"/>
<path d="M116.663 43.1002C129.95 40.6383 130.249 19.2499 116.47 19.4128C105.687 19.5416 106.774 29.999 105.315 27.9424C102.482 23.9465 101.569 13.6671 112.368 9.40604C121.689 5.72831 134.51 13.1785 135.332 26.7948C135.858 35.5137 130.419 51.6185 110.891 48.9369C83.5368 45.1834 103.38 45.5584 116.663 43.1002Z" fill="#D99E82"/>
<path d="M38.212 71.74C38.212 71.74 42.0602 80.6484 40.7724 102.957C40.5413 106.961 39.9808 111.047 39.8558 114.403C32.9927 114.403 33.5987 122.221 35.0532 122.221H46.0447C48.6316 122.221 53.2145 109.199 54.4228 91.1286C55.631 73.0543 38.212 71.74 38.212 71.74ZM83.2462 70.4863C83.2462 70.4863 85.424 83.8489 97.0746 94.776C98.048 99.1809 99.9872 110.805 100.669 114.452C93.5143 114.452 95.8133 122.206 97.9003 122.206H107.922C111.524 122.206 112.058 109.169 108.702 93.064C105.35 76.9631 83.2462 70.4863 83.2462 70.4863Z" fill="#C1694F"/>
<path d="M121.085 47.9501C116.339 33.7391 93.7615 34.2088 68.0704 37.4774C56.4994 38.9508 54.2836 20.6114 54.2836 17.4563C54.2836 3.72263 41.9968 -3.20483 29.6796 1.43872C26.7291 2.54848 24.3694 6.47619 23.0362 8.52905C15.5482 20.0319 5.39373 8.58586 4.41275 19.2176C3.22724 32.0764 10.9312 36.3904 23.5438 37.4774C30.7098 38.0948 36.6449 41.6248 38.2054 56.5819C38.7887 62.1572 37.0881 77.9589 47.2501 83.3827C50.2044 94.5901 54.2041 108.438 55.7722 115.482C47.2426 117.285 50.693 123.735 50.693 123.735C50.693 123.735 62.6277 123.573 65.2221 123.573C68.3052 123.573 65.9456 100.938 61.6808 86.5037C79.7247 86.6666 91.3298 81.4397 95.0076 79.83C98.9012 91.0412 110.734 93.5902 113.381 98.3588C115.021 101.313 120.494 111.172 120.96 115.388C114.892 117.357 116.828 121.948 117.517 123.425C121.619 123.262 129.713 123.262 130.766 123.262C134.97 123.262 126.46 97.1127 122.876 90.261C118.778 82.4169 125.835 62.161 121.085 47.9501Z" fill="#D99E82"/>
<path d="M60.7294 81.319C60.8961 82.7242 61.2635 84.6937 61.6877 86.5041C79.7316 86.667 91.3368 81.4402 95.0145 79.8304C94.2002 76.8761 94.1433 75.0202 94.3668 74.0052C81.5118 76.1148 77.141 82.3568 60.7294 81.319ZM23.5469 37.4779C30.713 38.0952 32.7317 41.5268 34.296 56.4839C34.8793 62.0592 37.095 77.9594 47.2533 83.3832C44.5262 72.8235 39.8334 36.4628 23.5469 37.4779Z" fill="#F4C7B5"/>
<path d="M11.061 13.9023C0.482327 13.9023 3.83054 15.8946 3.47829 20.3109C3.12605 24.7272 3.19801 31.5827 6.41744 35.1923C10.686 39.9722 21.0299 39.9873 26.1696 36.2414C31.3093 32.4955 24.5637 13.9023 11.061 13.9023Z" fill="#F4C7B5"/>
<path d="M56.5628 22.8461C57.8808 32.3718 52.1805 33.8225 47.537 33.8225C42.8934 33.8225 35.9698 29.088 37.1288 19.5433C37.6363 15.3505 39.2309 11.2372 40.1929 7.51781C41.4655 2.58261 44.7342 0.957744 47.3665 2.34021C53.6728 5.65054 55.7106 16.7216 56.5628 22.8461Z" fill="#662113"/>
<path d="M29.6789 17.4555C31.6201 17.4555 33.1938 15.8818 33.1938 13.9406C33.1938 11.9994 31.6201 10.4258 29.6789 10.4258C27.7377 10.4258 26.1641 11.9994 26.1641 13.9406C26.1641 15.8818 27.7377 17.4555 29.6789 17.4555Z" fill="#292F33"/>
<path d="M71.2148 37.0988C71.4913 42.9014 74.6464 49.1357 81.5663 50.9727C88.7664 52.8854 97.171 51.4537 99.2542 41.5984C99.5989 39.9698 99.7466 36.9625 99.5307 35.8641C91.3836 35.1861 81.6155 35.8641 71.2148 37.0988Z" fill="#C1694F"/>
<path d="M359.845 44.0835L359.845 44.0835C367.082 42.7427 370.702 36.2569 370.716 30.2746C370.723 27.269 369.829 24.2902 367.946 22.0548C366.043 19.795 363.188 18.3688 359.458 18.4129L359.458 18.4129C356.592 18.4471 354.443 19.1713 352.825 20.2592C351.213 21.3429 350.194 22.743 349.512 24.0287C349.073 24.8575 348.755 25.6832 348.522 26.3216C347.624 24.4667 347.119 21.7444 347.708 18.982C348.404 15.7146 350.641 12.3463 355.735 10.3362C364.342 6.94044 376.547 13.8268 377.334 26.855L378.332 26.7948L377.334 26.855C377.585 31.0202 376.401 36.9722 372.844 41.5254C369.34 46.0099 363.458 49.2413 354.027 47.9462L354.027 47.9462C348.873 47.239 345.443 46.6842 343.339 46.2379C344.696 46.0413 346.456 45.8454 348.45 45.6235C348.768 45.5881 349.092 45.552 349.422 45.5152C352.72 45.1463 356.484 44.7054 359.845 44.0835ZM348.068 27.4779C348.068 27.4776 348.07 27.474 348.075 27.4677C348.07 27.475 348.068 27.4781 348.068 27.4779ZM349.153 27.3925C349.158 27.3978 349.16 27.4009 349.16 27.4011C349.16 27.4014 349.158 27.3987 349.153 27.3925Z" fill="#CDCDCD" stroke="black" stroke-width="2"/>
<path d="M282.687 72.9753C282.983 73.0346 283.313 73.1077 283.671 73.1976C285.218 73.5864 287.256 74.2826 289.246 75.508C291.233 76.7308 293.16 78.4721 294.523 80.9553C295.884 83.4337 296.716 86.7107 296.425 91.0619C295.825 100.035 294.388 107.735 292.791 113.169C291.991 115.892 291.161 118.011 290.395 119.428C290.01 120.141 289.664 120.633 289.376 120.934C289.156 121.163 289.037 121.212 289.017 121.221H278.334C278.292 121.127 278.244 120.986 278.203 120.793C278.083 120.219 278.079 119.401 278.301 118.571C278.522 117.749 278.95 116.969 279.643 116.395C280.326 115.83 281.341 115.403 282.856 115.403H283.819L283.855 114.44C283.916 112.796 284.085 110.964 284.27 109.018C284.282 108.891 284.294 108.764 284.306 108.637C284.48 106.815 284.662 104.907 284.771 103.015C285.418 91.7955 284.776 83.9186 283.963 78.8251C283.556 76.2783 283.106 74.4279 282.754 73.204C282.731 73.1252 282.709 73.0489 282.687 72.9753ZM278.411 121.355C278.411 121.355 278.409 121.354 278.406 121.35C278.409 121.353 278.411 121.355 278.411 121.355ZM341.051 94.5602L340.984 94.2582L340.759 94.0466C335.059 88.7008 331.673 82.7554 329.712 78.1423C328.732 75.8369 328.11 73.869 327.734 72.4831C327.687 72.3123 327.645 72.1504 327.606 71.9979C328.105 72.1784 328.703 72.4043 329.378 72.677C331.466 73.5213 334.282 74.8106 337.196 76.5907C343.06 80.1733 349.132 85.6253 350.723 93.2678L350.723 93.268C352.39 101.267 353.083 108.471 352.922 113.643C352.841 116.24 352.546 118.258 352.089 119.593C351.86 120.263 351.613 120.693 351.388 120.941C351.18 121.169 351.031 121.206 350.922 121.206H340.918C340.902 121.2 340.855 121.179 340.775 121.111C340.643 120.998 340.481 120.802 340.324 120.515C340.009 119.938 339.795 119.145 339.819 118.359C339.842 117.584 340.092 116.889 340.617 116.386C341.138 115.885 342.059 115.452 343.669 115.452H344.873L344.652 114.269C344.44 113.136 344.102 111.2 343.706 108.941C342.847 104.029 341.72 97.5896 341.051 94.5602Z" fill="#CDCDCD" stroke="black" stroke-width="2"/>
<path d="M363.137 48.267L363.136 48.2668C360.951 41.7216 354.635 38.3854 345.301 37.1502C335.992 35.9184 324.038 36.8356 311.197 38.4694M363.137 48.267L311.07 37.4774M363.137 48.267C365.435 55.1448 364.89 63.552 364.229 71.4092C364.192 71.8451 364.155 72.2794 364.118 72.7117C363.826 76.1349 363.546 79.4277 363.536 82.3357C363.524 85.5878 363.846 88.5345 364.99 90.724L364.99 90.7244C366.734 94.0581 369.735 102.23 371.778 109.598C372.799 113.28 373.562 116.698 373.816 119.171C373.945 120.424 373.931 121.341 373.805 121.907C373.763 122.096 373.717 122.205 373.686 122.262C372.433 122.262 365.34 122.265 361.162 122.401C360.868 121.665 360.581 120.683 360.698 119.709C360.77 119.104 360.999 118.499 361.507 117.938C362.022 117.368 362.873 116.792 364.269 116.339L365.043 116.087L364.954 115.278C364.823 114.09 364.353 112.583 363.743 111.003C363.125 109.405 362.333 107.657 361.51 105.964C359.867 102.578 358.078 99.3551 357.257 97.8765L357.255 97.8734L356.381 98.3588L357.255 97.8734C356.474 96.4663 355.069 95.3026 353.516 94.2105C352.748 93.6701 351.908 93.1242 351.045 92.5636L350.976 92.5183C350.084 91.9382 349.162 91.3383 348.234 90.6903C344.522 88.1001 340.796 84.8116 338.952 79.5019L338.597 78.4802L337.607 78.9139C337.543 78.9416 337.477 78.9705 337.409 79.0004C333.575 80.6811 322.214 85.6619 304.69 85.5037L303.339 85.4915L303.722 86.787C305.833 93.933 307.479 103.137 308.212 110.549C308.578 114.26 308.712 117.479 308.571 119.748C308.5 120.895 308.362 121.728 308.184 122.247C308.13 122.406 308.08 122.51 308.043 122.573C306.608 122.576 303.136 122.615 299.972 122.654C298.318 122.674 296.745 122.695 295.585 122.71L294.349 122.727M363.137 48.267L294.349 122.727M311.197 38.4694L311.07 37.4774M311.197 38.4694C311.197 38.4694 311.197 38.4694 311.197 38.4694L311.07 37.4774M311.197 38.4694C308.004 38.876 305.419 37.9053 303.387 36.176C301.385 34.473 299.947 32.0615 298.915 29.5875C296.855 24.6489 296.284 19.1404 296.284 17.4563C296.284 10.9116 293.371 6.07878 289.072 3.40521C284.756 0.72045 278.935 0.149019 273.032 2.37444L273.032 2.37471C271.809 2.83446 270.62 3.92419 269.526 5.26297C268.596 6.40076 267.811 7.62104 267.175 8.60918C267.071 8.77068 266.971 8.92598 266.875 9.07371L266.874 9.07461C264.894 12.1159 262.686 13.7091 260.437 14.5002C258.224 15.2785 256.053 15.2469 254.258 15.1996C254.175 15.1975 254.094 15.1953 254.013 15.1931C253.195 15.171 252.48 15.1517 251.827 15.1944C251.116 15.2409 250.565 15.3579 250.13 15.5748C249.37 15.9536 248.639 16.8096 248.409 19.3094C247.836 25.5148 249.413 29.4441 252.448 31.9967C255.558 34.6127 260.375 35.9421 266.63 36.4811M311.07 37.4774C299.499 38.9508 297.284 20.6114 297.284 17.4563C297.284 3.72263 284.997 -3.20483 272.68 1.43872C269.934 2.47127 267.701 5.94326 266.329 8.0749C266.227 8.2343 266.129 8.38621 266.036 8.52905C262.204 14.4153 257.674 14.2922 254.033 14.1932C250.558 14.0988 247.892 14.0263 247.413 19.2176C246.227 32.0764 253.931 36.3904 266.544 37.4774M266.63 36.4811L266.544 37.4774M266.63 36.4811C270.355 36.802 273.911 37.8962 276.716 40.9792C279.495 44.0333 281.409 48.9001 282.2 56.4781C282.305 57.486 282.34 58.8254 282.378 60.3241C282.394 60.9661 282.411 61.6373 282.435 62.3243C282.516 64.6594 282.674 67.2736 283.121 69.8693C284.022 75.0942 286.054 80.0094 290.721 82.5005L291.106 82.706L291.217 83.1278C292.279 87.1552 293.48 91.541 294.657 95.8342C296.74 103.436 298.743 110.748 299.748 115.265L299.968 116.252L298.979 116.461C296.972 116.885 295.782 117.559 295.08 118.247C294.39 118.923 294.108 119.674 294.028 120.395C293.946 121.136 294.078 121.857 294.245 122.412C294.279 122.526 294.315 122.632 294.349 122.727M266.63 36.4811C266.63 36.4811 266.63 36.4811 266.63 36.4811L266.544 37.4774M266.544 37.4774L294.349 122.727" fill="#CDCDCD" stroke="black" stroke-width="2"/>
<path d="M305.487 85.5079C305.25 84.4306 305.041 83.3385 304.889 82.3821C312.562 82.7131 317.607 81.4286 322.218 79.7843C323.367 79.3743 324.477 78.9476 325.587 78.5214C328.834 77.2733 332.072 76.029 336.254 75.2198C336.254 76.2599 336.423 77.5934 336.831 79.2564C332.578 81.1049 321.754 85.5124 305.487 85.5079ZM281.127 69.6562C279.27 64.4181 278.58 59.142 278.291 56.3798C277.675 50.4986 276.982 46.2638 275.873 43.2581C275.902 43.2939 275.931 43.3298 275.961 43.3659C278.625 46.6633 280.779 51.315 282.54 56.4163C285.002 63.5487 286.623 71.2953 287.854 77.1821C288.161 78.6511 288.445 80.0043 288.71 81.2033C285.107 78.4514 282.714 74.1328 281.127 69.6562Z" fill="#CDCDCD" stroke="black" stroke-width="2"/>
<path d="M247.475 20.3904C247.564 19.2821 247.44 18.3078 247.346 17.5558C247.335 17.4763 247.326 17.3992 247.317 17.3247C247.21 16.4523 247.223 16.1083 247.328 15.9006C247.386 15.7849 247.593 15.4947 248.675 15.2599C249.743 15.0282 251.427 14.9023 254.061 14.9023C260.309 14.9023 265.092 19.2089 267.724 24.1382C269.034 26.592 269.766 29.1256 269.877 31.2237C269.992 33.3764 269.452 34.7983 268.581 35.4333C266.241 37.1384 262.61 38.0422 259.002 37.9146C255.383 37.7866 252.045 36.6329 250.163 34.5262C248.748 32.939 247.965 30.5562 247.599 27.9169C247.236 25.2993 247.302 22.5608 247.475 20.3904Z" fill="#CDCDCD" stroke="black" stroke-width="2"/>
<path d="M249.551 22.8767C250.006 22.3146 250.423 21.3717 250.612 20.0526C250.852 18.3681 250.951 17.1021 250.649 16.2403C250.516 15.859 250.309 15.5827 249.988 15.3784C249.648 15.162 249.104 14.9798 248.227 14.9394L249.551 22.8767ZM249.551 22.8767C249.098 23.4371 248.693 23.5378 248.424 23.4966L249.551 22.8767ZM248.424 23.4966C247.345 23.3302 246.237 22.525 245.37 21.314C244.508 20.1107 244 18.6634 244 17.4553C244 16.8635 244.119 16.447 244.287 16.1476C244.453 15.852 244.696 15.6166 245.032 15.4297C245.74 15.0353 246.83 14.8758 248.226 14.9394L248.424 23.4966Z" fill="#CDCDCD" stroke="black" stroke-width="2"/>
<path d="M281.122 19.6635L281.121 19.6639C280.038 28.5847 286.465 32.8225 290.537 32.8225C292.804 32.8225 295.082 32.4573 296.641 31.1422C298.125 29.8894 299.204 27.5492 298.572 22.9834L281.122 19.6635ZM281.122 19.6635C281.366 17.6471 281.874 15.6312 282.451 13.6304C282.657 12.9157 282.876 12.1935 283.093 11.4737C283.474 10.2131 283.853 8.95998 284.161 7.76823L284.161 7.76751M281.122 19.6635L284.161 7.76751M284.161 7.76751C284.756 5.46081 285.781 4.07202 286.816 3.39778C287.822 2.74232 288.911 2.70512 289.902 3.22554L289.902 3.22563M284.161 7.76751L289.902 3.22563M289.902 3.22563C292.708 4.69843 294.684 7.98384 296.068 11.873M289.902 3.22563L296.068 11.873M296.068 11.873C297.437 15.7208 298.148 19.937 298.572 22.9832L296.068 11.873Z" fill="#CDCDCD" stroke="black" stroke-width="2"/>
<path d="M210.237 63.2374C210.921 62.554 210.921 61.446 210.237 60.7626L199.101 49.6256C198.417 48.9422 197.309 48.9422 196.626 49.6256C195.942 50.309 195.942 51.4171 196.626 52.1005L206.525 62L196.626 71.8995C195.942 72.5829 195.942 73.691 196.626 74.3744C197.309 75.0578 198.417 75.0578 199.101 74.3744L210.237 63.2374ZM175 63.75H209V60.25H175V63.75Z" fill="black"/>
<path d="M210.237 233.237C210.921 232.554 210.921 231.446 210.237 230.763L199.101 219.626C198.417 218.942 197.309 218.942 196.626 219.626C195.942 220.309 195.942 221.417 196.626 222.101L206.525 232L196.626 241.899C195.942 242.583 195.942 243.691 196.626 244.374C197.309 245.058 198.417 245.058 199.101 244.374L210.237 233.237ZM175 233.75H209V230.25H175V233.75Z" fill="black"/>
<path d="M141 204.114V260.885L100.886 301H44.1142L4 260.885V204.114L44.1142 164H100.886L141 204.114Z" fill="#E32400"/>
<path d="M97.0573 173.242H47.9433L13.2422 207.943V257.057L47.9433 291.758H97.0573L131.758 257.057V207.943L97.0573 173.242ZM127.996 255.495L95.4949 287.995H49.5057L17.0051 255.495V209.506L49.5057 177.005H95.4952L127.996 209.506V255.495Z" fill="white"/>
<path d="M44.0912 239.674C44.0251 238.772 43.849 237.958 43.5849 237.188C43.233 236.131 42.6387 235.251 41.8026 234.525C41.1644 233.887 40.3724 233.403 39.4701 233.029C38.5678 232.677 37.4236 232.391 36.0154 232.215L32.4068 231.664C31.7467 231.576 31.2185 231.445 30.7786 231.246C30.3384 231.048 29.9644 230.828 29.6344 230.542C29.3265 230.234 29.1062 229.904 28.9743 229.552C28.8641 229.178 28.7983 228.804 28.7983 228.43C28.7983 228.056 28.8424 227.682 28.9743 227.352C29.1285 226.757 29.4584 226.251 29.9205 225.79C30.6686 225.063 31.8347 224.689 33.4191 224.689C34.4313 224.689 35.4655 224.799 36.5877 225.041C37.688 225.283 38.7003 225.833 39.6464 226.714L43.3872 223.105C42.9911 222.731 42.5951 222.401 42.1769 222.093C41.2088 221.366 40.1743 220.816 39.0963 220.442C37.5339 219.936 35.7077 219.672 33.5951 219.672C31.9447 219.672 30.4706 219.892 29.1721 220.332C27.8738 220.772 26.7738 221.388 25.8493 222.181C24.9473 222.972 24.265 223.897 23.7809 224.997C23.4288 225.789 23.2088 226.647 23.1208 227.55C23.0769 227.902 23.055 228.254 23.055 228.628C23.055 231.158 23.7812 233.095 25.2114 234.437C25.8934 235.075 26.7077 235.603 27.6538 235.999C28.578 236.396 29.7222 236.703 31.0866 236.901L34.6954 237.43C35.4655 237.54 36.0376 237.672 36.4119 237.804C36.786 237.958 37.1159 238.156 37.4242 238.442C37.8202 238.794 38.0843 239.234 38.1945 239.762C38.3265 240.092 38.3706 240.466 38.3706 240.884C38.3706 242.072 37.9085 242.975 37.0062 243.613C36.1042 244.251 34.7398 244.581 32.9575 244.581C31.5712 244.581 30.2509 244.405 28.9965 244.031C27.7643 243.679 26.6421 243.019 25.696 242.094L23.0336 244.669L21.8672 245.813C23.3415 247.287 24.97 248.3 26.7743 248.872C28.5786 249.444 30.625 249.73 32.9136 249.73C34.4979 249.73 35.9942 249.532 37.3586 249.114C38.7449 248.717 39.933 248.145 40.9452 247.375C41.9353 246.627 42.7276 245.681 43.2997 244.581C43.8717 243.458 44.1578 242.204 44.1578 240.752C44.157 240.378 44.135 240.026 44.0912 239.674Z" fill="#B51A00"/>
<path d="M47.457 219.914V225.063H55.3787V249.466H61.2978V225.063H69.1972V219.914H47.457Z" fill="#B51A00"/>
<path d="M95.3411 233.601C95.3411 232.611 95.3191 231.708 95.2969 230.872C95.253 229.75 95.1431 228.694 94.9448 227.748C94.7468 226.779 94.4388 225.899 94.0206 225.107C93.6023 224.293 93.0303 223.523 92.2602 222.774C91.2479 221.784 90.0818 221.014 88.7616 220.464C87.4633 219.936 85.9451 219.672 84.1847 219.672C82.4243 219.672 80.8841 219.936 79.5639 220.464C78.2436 221.014 77.0773 221.784 76.0431 222.774C75.2949 223.523 74.7009 224.293 74.2827 225.107C73.8644 225.899 73.5784 226.779 73.4026 227.748C73.2046 228.694 73.0946 229.75 73.0505 230.872C73.0285 231.708 73.0063 232.611 73.0063 233.601C72.9844 233.953 72.9844 234.327 72.9844 234.701C72.9844 236.109 73.0063 237.386 73.0502 238.508C73.0944 239.652 73.2043 240.686 73.4023 241.654C73.5781 242.601 73.8644 243.481 74.2824 244.295C74.7006 245.087 75.2947 245.857 76.0428 246.605C77.077 247.618 78.2434 248.366 79.5636 248.916C80.8838 249.466 82.4243 249.73 84.1844 249.73C85.9448 249.73 87.463 249.466 88.7613 248.916C90.0815 248.366 91.2479 247.618 92.2599 246.605C93.0303 245.857 93.6023 245.087 94.0203 244.295C94.4385 243.481 94.7462 242.601 94.9445 241.654C95.1425 240.686 95.2525 239.652 95.2966 238.508C95.3408 237.386 95.3627 236.109 95.3627 234.701C95.363 234.327 95.363 233.953 95.3411 233.601ZM78.9257 233.601C78.9257 232.655 78.9476 231.862 78.9698 231.18C79.014 230.256 79.0798 229.486 79.1901 228.892C79.322 228.276 79.4541 227.792 79.6522 227.417C79.8282 227.044 80.0704 226.692 80.3564 226.383C80.7966 225.921 81.3467 225.547 81.9846 225.239C82.6228 224.953 83.349 224.821 84.1852 224.821C84.9994 224.821 85.7256 224.953 86.3636 225.239C87.0017 225.547 87.5299 225.921 87.9701 226.383C88.2561 226.691 88.4761 227.043 88.6744 227.417C88.8504 227.792 89.0043 228.276 89.1143 228.892C89.2245 229.486 89.3123 230.256 89.3564 231.18C89.4003 231.862 89.4222 232.654 89.4222 233.601C89.4442 233.953 89.4442 234.327 89.4442 234.701C89.4442 236.109 89.4222 237.276 89.3561 238.2C89.312 239.124 89.2242 239.894 89.114 240.488C89.004 241.082 88.8499 241.567 88.6741 241.941C88.4761 242.315 88.2559 242.645 87.9698 242.953C87.5297 243.437 87.0017 243.811 86.3633 244.119C85.7251 244.427 84.9989 244.582 84.1849 244.582C83.3487 244.582 82.6228 244.427 81.9844 244.119C81.3462 243.811 80.7961 243.437 80.3562 242.953C80.0701 242.645 79.828 242.315 79.6519 241.941C79.4539 241.567 79.322 241.082 79.1898 240.488C79.0798 239.894 79.0137 239.124 78.9696 238.2C78.9254 237.276 78.9035 236.109 78.9035 234.701C78.9037 234.327 78.9037 233.953 78.9257 233.601Z" fill="#B51A00"/>
<path d="M123.066 228.034C122.978 227.176 122.78 226.361 122.451 225.591C122.01 224.469 121.35 223.479 120.492 222.643C119.656 221.785 118.6 221.124 117.345 220.64C116.113 220.156 114.705 219.914 113.143 219.914H101.414V249.466H107.311V238.353H113.143C114.705 238.353 116.113 238.112 117.345 237.627C118.6 237.143 119.656 236.484 120.492 235.625C121.35 234.789 122.01 233.799 122.451 232.676C122.913 231.554 123.133 230.366 123.133 229.134C123.133 228.76 123.11 228.386 123.066 228.034ZM107.311 225.063H112.834C114.199 225.063 115.277 225.437 116.047 226.185C116.575 226.691 116.949 227.307 117.103 228.034C117.191 228.386 117.235 228.738 117.235 229.134C117.235 230.344 116.839 231.335 116.047 232.061C115.276 232.787 114.198 233.161 112.834 233.161H107.311L107.311 225.063Z" fill="#B51A00"/>
<path d="M43.5854 234.986C43.2336 233.93 42.6393 233.05 41.8031 232.324C41.1649 231.707 40.3729 231.201 39.4706 230.85C38.5683 230.476 37.4242 230.211 36.0159 230.013L32.4074 229.463C31.7472 229.375 31.219 229.243 30.7791 229.045C30.339 228.869 29.9649 228.627 29.635 228.341C29.327 228.033 29.1068 227.703 28.9749 227.351C28.8646 226.999 28.7988 226.625 28.7988 226.229C28.7988 225.216 29.1729 224.336 29.921 223.588C30.6692 222.862 31.8353 222.488 33.4196 222.488C34.4319 222.488 35.466 222.62 36.5883 222.84C37.6885 223.082 38.7008 223.632 39.647 224.534L42.1774 222.092L43.3877 220.925C42.0894 219.671 40.637 218.791 39.0968 218.263C37.5344 217.735 35.7082 217.471 33.5957 217.471C31.9453 217.471 30.4712 217.691 29.1726 218.131C27.8743 218.571 26.7743 219.187 25.8498 219.979C24.9478 220.771 24.2655 221.717 23.7814 222.796C23.2974 223.896 23.0552 225.106 23.0552 226.448C23.0552 226.822 23.0772 227.196 23.1211 227.549C23.2971 229.529 24.0014 231.091 25.2116 232.257C25.8937 232.896 26.7079 233.402 27.6541 233.798C28.5783 234.216 29.7225 234.502 31.0869 234.7L34.6957 235.25C35.4658 235.36 36.0379 235.47 36.4122 235.624C36.7863 235.756 37.1162 235.954 37.4244 236.24C38.0626 236.856 38.3706 237.671 38.3706 238.683C38.3706 239.079 38.3267 239.431 38.1945 239.761C38.0185 240.443 37.6225 240.993 37.0062 241.434C36.1042 242.072 34.7398 242.38 32.9575 242.38C31.5712 242.38 30.2509 242.203 28.9965 241.851C27.7643 241.477 26.6421 240.839 25.696 239.893L21.8672 243.634C22.2413 244.008 22.6375 244.338 23.0336 244.668C24.1777 245.592 25.4319 246.252 26.7743 246.67C28.5786 247.243 30.625 247.529 32.9136 247.529C34.4979 247.529 35.9942 247.331 37.3586 246.935C38.7449 246.517 39.933 245.944 40.9452 245.174C41.9353 244.426 42.7276 243.48 43.2997 242.38C43.7179 241.566 43.982 240.663 44.092 239.673C44.1358 239.321 44.1578 238.947 44.1578 238.551C44.1575 237.231 43.9595 236.042 43.5854 234.986Z" fill="white"/>
<path d="M47.457 217.713V222.862H55.3787V247.287H61.2978V222.862H69.1972V217.713H47.457Z" fill="white"/>
<path d="M95.2966 228.672C95.2528 227.549 95.1428 226.493 94.9445 225.547C94.7465 224.6 94.4385 223.721 94.0203 222.906C93.6021 222.114 93.03 221.322 92.2599 220.574C91.2476 219.584 90.0815 218.813 88.7613 218.285C87.463 217.735 85.9448 217.471 84.1844 217.471C82.424 217.471 80.8838 217.735 79.5636 218.285C78.2434 218.813 77.077 219.584 76.0428 220.574C75.2946 221.322 74.7006 222.114 74.2824 222.906C73.8642 223.721 73.5781 224.6 73.4023 225.547C73.2043 226.493 73.0944 227.549 73.0502 228.672C73.006 229.816 72.9844 231.092 72.9844 232.5C72.9844 232.874 72.9844 233.248 73.0063 233.601C73.0063 234.591 73.0283 235.493 73.0505 236.329C73.0946 237.451 73.2046 238.507 73.4026 239.454C73.5784 240.4 73.8647 241.28 74.2827 242.094C74.7009 242.886 75.2949 243.679 76.0431 244.427C77.0773 245.417 78.2436 246.187 79.5639 246.715C80.8841 247.265 82.4245 247.529 84.1847 247.529C85.9451 247.529 87.4633 247.265 88.7616 246.715C90.0818 246.187 91.2482 245.417 92.2602 244.427C93.0305 243.678 93.6026 242.886 94.0206 242.094C94.4388 241.28 94.7465 240.4 94.9448 239.454C95.1428 238.508 95.2528 237.451 95.2969 236.329C95.3189 235.493 95.3411 234.591 95.3411 233.601C95.363 233.248 95.363 232.874 95.363 232.5C95.3627 231.092 95.3408 229.816 95.2966 228.672ZM89.4214 233.601C89.4214 234.525 89.3995 235.317 89.3556 235.999C89.3115 236.945 89.2237 237.693 89.1135 238.288C89.0035 238.882 88.8493 239.366 88.6736 239.74C88.4755 240.114 88.2553 240.466 87.9693 240.752C87.5291 241.236 87.0012 241.632 86.3628 241.919C85.7246 242.226 84.9984 242.381 84.1844 242.381C83.3482 242.381 82.6223 242.227 81.9838 241.919C81.3457 241.632 80.7955 241.236 80.3556 240.752C80.0696 240.466 79.8274 240.114 79.6514 239.74C79.4533 239.366 79.3214 238.882 79.1892 238.288C79.0793 237.694 79.0132 236.946 78.969 235.999C78.9471 235.317 78.9249 234.525 78.9249 233.601C78.9029 233.248 78.9029 232.874 78.9029 232.5C78.9029 231.092 78.9249 229.926 78.969 229.001C79.0132 228.055 79.079 227.307 79.1892 226.691C79.3212 226.075 79.4533 225.591 79.6514 225.217C79.8274 224.843 80.0696 224.491 80.3556 224.205C80.7958 223.721 81.3459 223.346 81.9838 223.06C82.622 222.774 83.3482 222.621 84.1844 222.621C84.9986 222.621 85.7248 222.774 86.3628 223.06C87.0009 223.346 87.5291 223.721 87.9693 224.205C88.2553 224.491 88.4753 224.843 88.6736 225.217C88.8496 225.591 89.0035 226.075 89.1135 226.691C89.2237 227.307 89.3115 228.056 89.3556 229.001C89.4214 229.926 89.4436 231.092 89.4436 232.5C89.4436 232.874 89.4436 233.248 89.4214 233.601Z" fill="white"/>
<path d="M122.451 223.39C122.01 222.268 121.35 221.277 120.492 220.441C119.656 219.583 118.6 218.923 117.345 218.439C116.113 217.955 114.705 217.713 113.143 217.713H101.414V247.287H107.311V236.152H113.143C114.705 236.152 116.113 235.91 117.345 235.426C118.6 234.942 119.656 234.282 120.492 233.424C121.35 232.588 122.01 231.598 122.451 230.475C122.781 229.705 122.979 228.891 123.066 228.033C123.111 227.681 123.133 227.307 123.133 226.933C123.133 225.7 122.913 224.512 122.451 223.39ZM117.104 228.033C116.949 228.759 116.575 229.375 116.047 229.859C115.277 230.607 114.199 230.96 112.835 230.96H107.311V222.862H112.835C114.199 222.862 115.277 223.236 116.047 223.984C116.839 224.732 117.236 225.722 117.236 226.933C117.235 227.329 117.192 227.703 117.104 228.033Z" fill="white"/>
<path opacity="0.1" d="M44.1142 164L4 204.114V260.885L44.1142 301H72.5V164H44.1142Z" fill="white"/>
<path d="M348.264 165.5L387.5 204.736V260.264L348.264 299.5H292.736L253.5 260.264V204.736L292.736 165.5H348.264Z" fill="#CDCDCD" stroke="black" stroke-width="3"/>
<path d="M377.056 256.556L377.496 256.116V255.495V209.506V208.884L377.056 208.445L344.556 175.944L344.116 175.505H343.495H297.506H296.884L296.445 175.944L263.944 208.445L263.505 208.884V209.506V255.495V256.116L263.944 256.556L296.445 289.056L296.884 289.495H297.506H343.495H344.116L344.556 289.056L377.056 256.556ZM262.742 208.565L296.565 174.742H344.436L378.258 208.564V256.436L344.436 290.258H296.565L262.742 256.436V208.565Z" fill="#CDCDCD" stroke="black" stroke-width="3"/>
<path d="M290.598 239.822L290.595 239.784C290.539 239.014 290.39 238.326 290.166 237.674L290.162 237.662L290.162 237.662C289.896 236.865 289.456 236.211 288.819 235.657L288.779 235.623L288.742 235.586C288.279 235.123 287.672 234.738 286.91 234.421C286.149 234.125 285.134 233.866 283.829 233.703L283.809 233.701L283.789 233.697L280.194 233.149C279.457 233.05 278.778 232.891 278.162 232.614C277.632 232.375 277.123 232.084 276.652 231.676L276.612 231.641L276.574 231.603C276.138 231.168 275.788 230.661 275.57 230.078L275.551 230.028L275.536 229.976C275.395 229.499 275.298 228.979 275.298 228.43C275.298 227.979 275.346 227.432 275.546 226.887C275.792 226.012 276.28 225.309 276.86 224.729L276.868 224.721L276.876 224.713C278.014 223.608 279.632 223.189 281.419 223.189C282.544 223.189 283.685 223.312 284.904 223.575L284.91 223.576L284.91 223.576C285.856 223.784 286.735 224.171 287.55 224.722L289.138 223.19C288.336 222.609 287.491 222.169 286.619 221.864C285.239 221.419 283.578 221.172 281.595 221.172C280.076 221.172 278.769 221.375 277.653 221.753L290.598 239.822ZM290.598 239.822L290.603 239.86M290.598 239.822L290.603 239.86M290.603 239.86C290.639 240.148 290.657 240.439 290.658 240.753C290.658 241.996 290.416 243.01 289.966 243.894C289.495 244.798 288.848 245.569 288.041 246.179L288.037 246.182C287.195 246.822 286.181 247.319 284.946 247.672L284.933 247.675L284.919 247.68C283.72 248.047 282.375 248.23 280.914 248.23C278.748 248.23 276.858 247.959 275.228 247.442C274.109 247.087 273.058 246.534 272.064 245.76M290.603 239.86L272.064 245.76M272.064 245.76L272.08 245.744L273.77 244.109C274.622 244.72 275.566 245.181 276.576 245.471C277.982 245.889 279.446 246.081 280.957 246.081C282.881 246.081 284.607 245.732 285.872 244.838L285.872 244.838C287.193 243.903 287.871 242.533 287.871 240.884C287.871 240.412 287.827 239.871 287.635 239.331C287.442 238.535 287.023 237.86 286.433 237.332C285.979 236.913 285.495 236.627 284.983 236.417L284.947 236.402L284.91 236.388C284.405 236.211 283.726 236.062 282.91 235.945C282.909 235.945 282.909 235.945 282.908 235.945L279.304 235.417L279.302 235.417C278.033 235.233 277.021 234.953 276.245 234.621L276.245 234.621L276.233 234.616C275.445 234.286 274.783 233.853 274.237 233.342C273.187 232.357 272.555 230.864 272.555 228.628C272.555 228.314 272.573 228.024 272.609 227.735L272.612 227.715L272.614 227.695C272.687 226.942 272.869 226.242 273.152 225.606L273.152 225.606L273.154 225.601C273.547 224.707 274.096 223.962 274.832 223.314C275.596 222.661 276.522 222.136 277.653 221.753L272.064 245.76Z" stroke="black" stroke-width="3"/>
<path d="M304.879 225.063V223.563H303.379H296.957V221.414H315.697V223.563H309.298H307.798V225.063V247.966H304.879V225.063Z" stroke="black" stroke-width="3"/>
<path d="M325.471 231.12L325.472 231.109C325.516 230.169 325.586 229.316 325.715 228.618L325.719 228.598L325.723 228.578C325.854 227.966 326.016 227.315 326.31 226.748C326.554 226.238 326.88 225.769 327.257 225.363L327.264 225.356L327.27 225.349C327.863 224.727 328.573 224.255 329.332 223.888L329.352 223.879L329.371 223.87C330.246 223.478 331.192 223.321 332.185 223.321C333.16 223.321 334.105 223.479 334.977 223.87L334.997 223.879L335.016 223.888C335.795 224.264 336.476 224.74 337.056 225.348L337.063 225.355L337.069 225.362C337.481 225.805 337.772 226.285 338 226.715L338.016 226.746L338.032 226.779C338.274 227.295 338.462 227.908 338.59 228.623C338.714 229.296 338.807 230.129 338.854 231.096C338.899 231.805 338.922 232.613 338.922 233.556C338.944 233.94 338.944 234.335 338.944 234.679V234.701C338.944 236.108 338.923 237.312 338.854 238.289C338.807 239.256 338.714 240.09 338.589 240.761L325.471 231.12ZM325.471 231.12L325.471 231.131M325.471 231.12L325.471 231.131M325.471 231.131C325.449 231.81 325.426 232.606 325.426 233.556C325.404 233.935 325.404 234.326 325.403 234.667L325.403 234.7V234.701C325.403 236.122 325.426 237.314 325.471 238.271C325.516 239.212 325.586 240.064 325.715 240.761L325.72 240.788L325.726 240.814C325.855 241.397 326.018 242.047 326.309 242.61C326.564 243.142 326.898 243.587 327.252 243.968C327.853 244.628 328.574 245.104 329.332 245.47L329.333 245.47C330.205 245.891 331.16 246.082 332.185 246.082C333.192 246.082 334.146 245.89 335.015 245.471L335.016 245.47C335.794 245.094 336.485 244.615 337.075 243.968C337.466 243.545 337.756 243.103 338 242.643L338.016 242.611M325.471 231.131L338.016 242.611M338.016 242.611L338.032 242.579M338.016 242.611L338.032 242.579M338.032 242.579C338.273 242.065 338.461 241.454 338.589 240.762L338.032 242.579ZM341.841 233.601V233.648L341.844 233.694C341.862 233.991 341.863 234.317 341.863 234.7V234.701C341.863 236.095 341.841 237.351 341.798 238.449L341.798 238.45C341.756 239.533 341.653 240.482 341.476 241.35C341.304 242.169 341.041 242.918 340.69 243.603C340.351 244.243 339.878 244.886 339.215 245.529L339.207 245.537L339.199 245.545C338.339 246.405 337.343 247.049 336.184 247.531L336.184 247.531L336.176 247.535C335.108 247.988 333.799 248.23 332.184 248.23C330.57 248.23 329.235 247.988 328.141 247.531C326.986 247.05 325.985 246.406 325.098 245.539C324.436 244.876 323.945 244.23 323.613 243.603C323.272 242.936 323.029 242.2 322.877 241.381L322.875 241.367L322.872 241.354C322.694 240.484 322.591 239.534 322.549 238.45L322.549 238.449C322.506 237.351 322.484 236.094 322.484 234.701C322.484 234.317 322.485 233.991 322.503 233.694L322.506 233.648V233.601C322.506 232.636 322.528 231.754 322.55 230.922C322.592 229.859 322.695 228.894 322.871 228.055L322.875 228.035L322.878 228.016C323.032 227.172 323.274 226.442 323.609 225.807L323.613 225.8L323.617 225.792C323.945 225.153 324.431 224.51 325.092 223.847C325.99 222.989 326.994 222.328 328.131 221.853C329.236 221.413 330.576 221.172 332.185 221.172C333.795 221.172 335.111 221.413 336.191 221.851C337.334 222.329 338.338 222.993 339.211 223.847L339.215 223.85C339.879 224.496 340.349 225.136 340.686 225.792L340.69 225.8L340.694 225.807C341.039 226.461 341.303 227.205 341.475 228.048L341.475 228.048L341.477 228.055C341.652 228.894 341.756 229.859 341.798 230.922C341.82 231.753 341.841 232.636 341.841 233.601Z" stroke="black" stroke-width="3"/>
<path d="M369.574 228.187L369.576 228.203L369.578 228.219C369.614 228.506 369.633 228.818 369.633 229.134C369.633 230.185 369.446 231.177 369.064 232.105L369.059 232.117L369.054 232.129C368.692 233.051 368.152 233.862 367.445 234.55L367.431 234.564L367.417 234.578C366.758 235.256 365.896 235.807 364.805 236.228L364.805 236.228L364.797 236.231C363.769 236.635 362.552 236.853 361.143 236.853H355.311H353.811V238.353V247.966H350.914V221.414H361.143C362.552 221.414 363.769 221.632 364.797 222.036L364.797 222.036L364.805 222.04C365.895 222.46 366.758 223.012 367.418 223.69L367.431 223.704L367.445 223.717C368.152 224.405 368.692 225.216 369.054 226.139L369.063 226.161L369.072 226.182C369.335 226.797 369.5 227.462 369.574 228.187ZM355.311 223.563H353.811L353.811 225.063L353.811 233.161L353.811 234.661H355.311H360.834C362.47 234.661 363.951 234.208 365.068 233.16C366.212 232.107 366.735 230.693 366.735 229.134C366.735 228.629 366.679 228.162 366.565 227.696C366.338 226.653 365.799 225.787 365.088 225.106C363.966 224.018 362.473 223.563 360.834 223.563H355.311Z" stroke="black" stroke-width="3"/>
<path d="M290.167 235.474L290.162 235.46C289.897 234.663 289.456 234.009 288.82 233.456L288.79 233.43L288.761 233.403C288.273 232.932 287.652 232.531 286.926 232.247L286.911 232.241L286.896 232.235C286.162 231.931 285.16 231.689 283.807 231.499L283.798 231.498L283.79 231.496L280.195 230.948C279.47 230.851 278.8 230.695 278.192 230.426C277.592 230.182 277.086 229.85 276.652 229.474L276.612 229.439L276.574 229.402C276.139 228.966 275.788 228.459 275.57 227.877L275.556 227.838L275.543 227.799C275.393 227.319 275.299 226.793 275.299 226.229C275.299 224.799 275.845 223.543 276.86 222.528L276.868 222.52L276.876 222.512C278.015 221.407 279.632 220.988 281.42 220.988C282.561 220.988 283.698 221.137 284.877 221.368L284.894 221.371L284.91 221.375C285.859 221.583 286.74 221.971 287.56 222.534L289.136 221.013L289.137 221.012L289.148 221.001C288.341 220.42 287.491 219.984 286.613 219.683C285.242 219.22 283.586 218.971 281.596 218.971C280.077 218.971 278.77 219.174 277.654 219.551L290.167 235.474ZM290.167 235.474L290.172 235.487M290.167 235.474L290.172 235.487M290.172 235.487C290.482 236.365 290.658 237.381 290.658 238.551L290.172 235.487ZM272.071 243.577C273.041 244.341 274.094 244.888 275.22 245.238L275.228 245.241L275.228 245.241C276.858 245.758 278.748 246.029 280.914 246.029C282.372 246.029 283.723 245.847 284.933 245.496C286.18 245.12 287.196 244.621 288.037 243.981L288.041 243.978C288.848 243.367 289.496 242.596 289.967 241.691C290.294 241.054 290.51 240.331 290.601 239.508L290.602 239.498L290.603 239.488C290.639 239.204 290.658 238.892 290.658 238.551L272.071 243.577ZM272.071 243.577L273.77 241.918C274.628 242.535 275.569 242.986 276.561 243.287L276.576 243.291L276.591 243.296C277.986 243.687 279.443 243.88 280.957 243.88C282.861 243.88 284.597 243.56 285.872 242.658L285.872 242.658L285.878 242.654C286.725 242.049 287.338 241.243 287.623 240.226C287.822 239.686 287.871 239.158 287.871 238.683C287.871 237.34 287.448 236.109 286.466 235.161L286.456 235.151L286.445 235.141C285.998 234.726 285.502 234.423 284.946 234.222C284.381 233.997 283.648 233.871 282.915 233.766L279.313 233.217L279.313 233.217L279.303 233.216C278.009 233.028 277.018 232.769 276.273 232.431L276.253 232.422L276.234 232.414C275.43 232.078 274.776 231.665 274.245 231.17C273.339 230.294 272.764 229.091 272.615 227.416L272.613 227.389L272.61 227.363C272.574 227.077 272.555 226.765 272.555 226.448C272.555 225.294 272.762 224.294 273.152 223.405C273.551 222.518 274.105 221.753 274.833 221.112C275.597 220.459 276.522 219.935 277.654 219.552L272.071 243.577Z" fill="#CDCDCD" stroke="black" stroke-width="3"/>
<path d="M304.879 222.862V221.362H303.379H296.957V219.213H315.697V221.362H309.298H307.798V222.862V245.787H304.879V222.862Z" fill="#CDCDCD" stroke="black" stroke-width="3"/>
<path d="M341.476 225.854L341.476 225.854C341.305 225.035 341.042 224.285 340.69 223.599C340.344 222.946 339.867 222.283 339.215 221.649L339.211 221.646C338.336 220.79 337.336 220.131 336.204 219.678L336.19 219.672L336.176 219.666C335.107 219.213 333.798 218.971 332.184 218.971C330.57 218.971 329.235 219.214 328.141 219.67L328.131 219.674L328.121 219.678C326.995 220.128 325.993 220.785 325.092 221.646C324.443 222.296 323.95 222.963 323.613 223.599C323.271 224.266 323.029 225.002 322.877 225.821L322.874 225.837L322.871 225.854C322.694 226.695 322.591 227.664 322.549 228.73C322.506 229.851 322.484 231.107 322.484 232.5C322.484 232.884 322.485 233.21 322.503 233.507L322.506 233.554V233.601C322.506 234.566 322.528 235.448 322.55 236.28C322.592 237.342 322.695 238.308 322.871 239.146L322.874 239.163L322.877 239.18C323.029 239.998 323.272 240.735 323.613 241.402C323.95 242.038 324.444 242.704 325.092 243.354C325.994 244.215 326.995 244.872 328.121 245.322L328.131 245.326L328.141 245.331C329.236 245.787 330.57 246.029 332.185 246.029C333.799 246.029 335.108 245.787 336.176 245.334L336.19 245.328L336.204 245.322C337.336 244.87 338.336 244.211 339.211 243.354L339.215 243.35C339.868 242.717 340.345 242.055 340.69 241.402C341.041 240.716 341.305 239.966 341.477 239.146L341.476 225.854ZM341.476 225.854C341.653 226.695 341.756 227.664 341.798 228.729M341.476 225.854L341.798 228.729M341.841 233.554L341.844 233.507C341.862 233.21 341.863 232.884 341.863 232.501L341.841 233.554ZM341.841 233.554V233.601M341.841 233.554V233.601M341.841 233.601C341.841 234.565 341.82 235.447 341.798 236.28M341.841 233.601L341.798 236.28M338.016 240.411L337.999 240.442C337.779 240.857 337.484 241.351 337.056 241.787C336.492 242.4 335.811 242.91 334.995 243.279C334.131 243.692 333.184 243.881 332.184 243.881C331.167 243.881 330.218 243.693 329.351 243.279C328.553 242.918 327.846 242.415 327.269 241.787C326.872 241.383 326.547 240.907 326.309 240.41C326.017 239.846 325.855 239.196 325.725 238.614L325.719 238.587L325.714 238.561C325.585 237.865 325.516 237.036 325.471 236.069L325.47 236.058L325.47 236.047C325.448 235.371 325.426 234.575 325.425 233.646C325.403 233.262 325.403 232.867 325.403 232.522V232.5C325.403 231.08 325.425 229.888 325.471 228.931C325.516 227.962 325.585 227.138 325.713 226.427L325.717 226.402L325.722 226.377C325.853 225.765 326.016 225.114 326.309 224.547C326.547 224.05 326.872 223.574 327.269 223.17C327.868 222.519 328.59 222.041 329.37 221.692L329.37 221.692C330.221 221.31 331.159 221.121 332.184 221.121C333.191 221.121 334.129 221.312 334.976 221.692C335.775 222.05 336.47 222.533 337.056 223.17C337.484 223.606 337.779 224.1 337.999 224.514L338.016 224.546L338.031 224.578C338.274 225.095 338.462 225.71 338.59 226.427L338.016 240.411ZM338.016 240.411L338.031 240.378L338.016 240.411ZM341.798 228.729C341.841 229.85 341.863 231.107 341.863 232.5L341.798 228.729ZM341.798 236.28C341.755 237.342 341.652 238.308 341.477 239.146L341.798 236.28ZM338.853 236.082C338.806 237.076 338.713 237.89 338.588 238.561C338.588 238.561 338.588 238.561 338.588 238.561L337.113 238.288L338.853 236.082ZM338.853 236.082C338.899 235.374 338.921 234.567 338.921 233.646C338.944 233.262 338.944 232.867 338.944 232.522V232.5C338.944 231.093 338.922 229.889 338.853 228.913C338.806 227.92 338.713 227.112 338.59 226.428L338.853 236.082Z" fill="#CDCDCD" stroke="black" stroke-width="3"/>
<path d="M369.054 223.938L369.059 223.949L369.064 223.961C369.446 224.889 369.633 225.882 369.633 226.932V226.933C369.633 227.25 369.614 227.562 369.578 227.846L369.576 227.863L369.574 227.88C369.5 228.605 369.336 229.269 369.072 229.884L369.063 229.906L369.054 229.928C368.692 230.85 368.152 231.661 367.445 232.349L367.431 232.363L367.418 232.377C366.758 233.055 365.896 233.606 364.805 234.027L364.805 234.027L364.797 234.03C363.769 234.434 362.552 234.652 361.143 234.652H355.311H353.811V236.152V245.787H350.914V219.213H361.143C362.552 219.213 363.769 219.431 364.797 219.835L364.797 219.835L364.805 219.838C365.895 220.259 366.758 220.811 367.418 221.488L367.431 221.502L367.445 221.516C368.152 222.204 368.692 223.015 369.054 223.938ZM353.811 230.96V232.46H355.311H360.835C362.446 232.46 363.944 232.041 365.077 230.95C365.801 230.281 366.336 229.412 366.563 228.382C366.683 227.915 366.735 227.422 366.736 226.934V226.933C366.736 225.368 366.209 223.967 365.085 222.901C363.963 221.816 362.471 221.362 360.835 221.362H355.311H353.811V222.862V230.96Z" fill="#CDCDCD" stroke="black" stroke-width="3"/>
</svg>
