<svg width="212" height="180" viewBox="0 0 212 180" fill="none" xmlns="http://www.w3.org/2000/svg">
<path d="M174.138 160.818L176.099 164.163L178.059 160.818H179.508L176.866 164.909L179.508 169H178.059L176.099 165.825L174.138 169H172.689L175.289 164.909L172.689 160.818H174.138ZM186.406 164.155H187.636V166.285H186.406V164.155ZM180.886 163.435H193.141V164.44H180.886V163.435ZM182.251 165.97H191.626V170.125H190.381V166.99H182.251V165.97ZM186.406 156.535H187.636V158.425H186.406V156.535ZM186.346 158.59H187.441V158.815C187.441 161.05 184.966 162.355 182.011 162.67L181.621 161.725C184.246 161.485 186.346 160.375 186.346 158.815V158.59ZM186.601 158.59H187.696V158.815C187.696 160.375 189.796 161.485 192.421 161.725L192.031 162.67C189.061 162.355 186.601 161.05 186.601 158.815V158.59ZM182.146 157.93H191.896V158.935H182.146V157.93Z" fill="black"/>
<path d="M19.886 24.0682C19.6729 24.0682 19.483 24.0504 19.3161 24.0149C19.1491 23.983 19.0337 23.951 18.9698 23.919L19.2894 22.8111C19.5948 22.8892 19.8647 22.9176 20.0991 22.8963C20.3335 22.875 20.5412 22.7702 20.7223 22.582C20.907 22.3974 21.0756 22.0973 21.2283 21.6818L21.4627 21.0426L18.4371 12.8182H19.8008L22.0593 19.3381H22.1445L24.4031 12.8182H25.7667L22.2937 22.1932C22.1374 22.6158 21.9439 22.9656 21.7131 23.2425C21.4822 23.5231 21.2141 23.7308 20.9087 23.8658C20.6069 24.0007 20.266 24.0682 19.886 24.0682ZM32.5304 16.155H33.7604V18.285H32.5304V16.155ZM27.0104 15.435H39.2654V16.44H27.0104V15.435ZM28.3754 17.97H37.7504V22.125H36.5054V18.99H28.3754V17.97ZM32.5304 8.535H33.7604V10.425H32.5304V8.535ZM32.4704 10.59H33.5654V10.815C33.5654 13.05 31.0904 14.355 28.1354 14.67L27.7454 13.725C30.3704 13.485 32.4704 12.375 32.4704 10.815V10.59ZM32.7254 10.59H33.8204V10.815C33.8204 12.375 35.9204 13.485 38.5454 13.725L38.1554 14.67C35.1854 14.355 32.7254 13.05 32.7254 10.815V10.59ZM28.2704 9.93H38.0204V10.935H28.2704V9.93Z" fill="black"/>
<rect x="92.3984" y="60.3965" width="43.2054" height="43.2054" rx="2.5" fill="#CCCCCC" stroke="white" stroke-linejoin="round"/>
<rect x="92.3984" y="17.5" width="43.2054" height="43.2054" rx="2.5" fill="black" stroke="white" stroke-linejoin="round"/>
<rect x="135.293" y="60.3965" width="43.2054" height="43.2054" rx="2.5" fill="black" stroke="white" stroke-linejoin="round"/>
<rect x="49.5" y="60.3965" width="43.2054" height="43.2054" rx="2.5" fill="black" stroke="white" stroke-linejoin="round"/>
<rect x="92.3984" y="103.295" width="43.2054" height="43.2054" rx="2.5" fill="black" stroke="white" stroke-linejoin="round"/>
<path d="M115.202 33.954C115.062 36.698 114.992 38.882 114.992 40.506C114.992 41.346 115.013 42.144 115.055 42.9C115.167 42.984 115.384 43.026 115.706 43.026L116.189 43.005C116.385 42.977 116.567 42.963 116.735 42.963C117.099 42.963 117.379 43.026 117.575 43.152C117.785 43.278 117.89 43.523 117.89 43.887C117.89 44.237 117.785 44.51 117.575 44.706C117.379 44.902 116.966 45 116.336 45C115.804 45 115.16 44.958 114.404 44.874C114.222 44.86 114.047 44.846 113.879 44.832C113.711 44.818 113.557 44.811 113.417 44.811C112.647 44.825 112.073 44.853 111.695 44.895C111.317 44.937 110.89 44.958 110.414 44.958C109.98 44.958 109.763 44.629 109.763 43.971C109.763 43.341 110.169 43.026 110.981 43.026C111.107 43.026 111.31 43.04 111.59 43.068C111.828 43.11 112.08 43.131 112.346 43.131C112.5 43.131 112.626 43.124 112.724 43.11C112.738 42.172 112.787 40.807 112.871 39.015C112.955 36.915 112.997 35.361 112.997 34.353C112.927 34.367 112.682 34.465 112.262 34.647C111.618 34.969 111.142 35.13 110.834 35.13C110.666 35.13 110.512 35.046 110.372 34.878C110.232 34.696 110.162 34.486 110.162 34.248C110.162 34.01 110.309 33.779 110.603 33.555C110.897 33.331 111.373 33.037 112.031 32.673C112.395 32.491 112.745 32.288 113.081 32.064C113.165 32.008 113.284 31.952 113.438 31.896C113.606 31.84 113.732 31.812 113.816 31.812C114.18 31.812 114.509 31.889 114.803 32.043C115.111 32.183 115.265 32.372 115.265 32.61L115.202 33.954Z" fill="white"/>
<path d="M115.393 123.6C116.541 123.852 117.493 124.349 118.249 125.091C119.005 125.833 119.383 126.694 119.383 127.674C119.383 128.262 119.243 128.836 118.963 129.396C118.515 130.292 117.843 130.964 116.947 131.412C116.065 131.86 115.043 132.084 113.881 132.084C113.153 132.084 112.502 131.951 111.928 131.685C111.354 131.405 110.787 131.034 110.227 130.572C110.017 130.376 109.828 130.096 109.66 129.732C109.506 129.368 109.429 129.067 109.429 128.829C109.429 128.521 109.513 128.276 109.681 128.094C109.863 127.898 110.101 127.8 110.395 127.8C110.689 127.8 110.92 127.87 111.088 128.01C111.256 128.15 111.459 128.374 111.697 128.682C111.921 128.976 112.124 129.214 112.306 129.396C112.488 129.564 112.733 129.711 113.041 129.837C113.349 129.963 113.734 130.026 114.196 130.026C115.134 130.026 115.869 129.795 116.401 129.333C116.933 128.871 117.199 128.22 117.199 127.38C117.199 127.058 117.024 126.736 116.674 126.414C116.324 126.078 115.995 125.84 115.687 125.7C115.505 125.602 115.169 125.504 114.679 125.406C114.021 125.238 113.524 125.077 113.188 124.923C112.866 124.755 112.705 124.496 112.705 124.146C112.705 123.908 112.81 123.677 113.02 123.453C113.23 123.215 113.545 122.921 113.965 122.571C114.385 122.221 114.7 121.934 114.91 121.71C115.12 121.472 115.225 121.234 115.225 120.996C114.959 120.926 114.56 120.891 114.028 120.891C113.79 120.891 113.433 120.905 112.957 120.933C112.537 120.961 112.215 120.975 111.991 120.975C111.487 120.975 111.053 120.891 110.689 120.723C110.339 120.555 110.164 120.338 110.164 120.072C110.164 119.778 110.192 119.547 110.248 119.379C110.304 119.197 110.409 119.085 110.563 119.043C110.661 119.001 110.836 118.98 111.088 118.98C111.774 118.98 112.369 119.001 112.873 119.043C113.433 119.071 113.86 119.085 114.154 119.085L115.897 119.064C117.325 119.064 118.039 119.407 118.039 120.093C118.039 120.611 117.773 121.199 117.241 121.857C116.723 122.501 116.107 123.082 115.393 123.6Z" fill="white"/>
<path d="M69.1498 76.4C69.1498 77.086 69.0238 77.884 68.7718 78.794C68.5338 79.69 68.1838 80.796 67.7218 82.112L67.2388 83.561C67.4768 83.603 67.7218 83.624 67.9738 83.624C68.4078 83.624 69.0588 83.582 69.9268 83.498C70.7948 83.414 71.4178 83.372 71.7958 83.372L71.7748 81.062C71.7468 79.466 71.7328 78.29 71.7328 77.534C71.7328 76.54 72.0618 76.043 72.7198 76.043C73.2378 76.043 73.5668 76.176 73.7068 76.442C73.8608 76.708 73.9378 77.107 73.9378 77.639C73.9378 78.185 73.8958 79.032 73.8118 80.18C73.7978 80.404 73.7768 80.775 73.7488 81.293C73.7208 81.811 73.7068 82.259 73.7068 82.637L73.7278 83.309L74.1478 83.288C74.4838 83.26 74.7428 83.246 74.9248 83.246C75.2608 83.246 75.5828 83.358 75.8908 83.582C76.1988 83.792 76.3528 84.044 76.3528 84.338C76.3528 84.688 76.2968 84.961 76.1848 85.157C76.0868 85.353 75.9678 85.451 75.8278 85.451C75.5898 85.451 75.2888 85.423 74.9248 85.367C74.8408 85.367 74.7148 85.36 74.5468 85.346C74.3788 85.318 74.2178 85.304 74.0638 85.304L73.7068 85.325L73.7278 88.16C73.7278 88.454 73.6298 88.678 73.4338 88.832C73.2378 88.986 73.0138 89.063 72.7618 89.063C72.4538 89.063 72.1808 88.965 71.9428 88.769C71.7048 88.573 71.5858 88.328 71.5858 88.034C71.5858 87.096 71.5998 86.361 71.6278 85.829C71.6418 85.703 71.6488 85.549 71.6488 85.367C71.2288 85.353 70.5008 85.402 69.4648 85.514C68.4848 85.626 67.7428 85.682 67.2388 85.682C66.5948 85.682 66.0488 85.591 65.6008 85.409C65.1668 85.227 64.9498 84.94 64.9498 84.548C64.9498 84.17 65.0268 83.708 65.1808 83.162C65.3348 82.616 65.5658 81.881 65.8738 80.957C66.0138 80.593 66.1188 80.292 66.1888 80.054C66.4408 79.34 66.6298 78.738 66.7558 78.248C66.8818 77.744 67.0218 77.135 67.1758 76.421C67.2318 76.197 67.3508 76.029 67.5328 75.917C67.7148 75.805 67.9248 75.749 68.1628 75.749C68.4148 75.749 68.6388 75.812 68.8348 75.938C69.0448 76.05 69.1498 76.204 69.1498 76.4Z" fill="white"/>
<path d="M154.984 86.816C155.46 86.844 155.775 86.858 155.929 86.858C156.405 86.858 156.825 86.851 157.189 86.837C157.567 86.823 157.889 86.809 158.155 86.795C158.841 86.753 159.457 86.732 160.003 86.732C160.535 86.732 160.927 86.872 161.179 87.152C161.431 87.432 161.557 87.803 161.557 88.265C161.557 88.489 161.41 88.671 161.116 88.811C160.822 88.937 160.521 89 160.213 89C159.947 89 159.394 88.972 158.554 88.916C157.546 88.832 156.755 88.79 156.181 88.79C155.873 88.79 155.509 88.811 155.089 88.853C154.921 88.867 154.718 88.881 154.48 88.895C154.242 88.909 153.976 88.916 153.682 88.916C153.122 88.916 152.695 88.839 152.401 88.685C152.107 88.531 151.96 88.251 151.96 87.845C151.96 87.495 152.1 87.138 152.38 86.774C152.66 86.41 153.052 85.976 153.556 85.472L154.06 84.968C154.284 84.73 154.697 84.324 155.299 83.75C156.293 82.854 157.063 82.063 157.609 81.377C158.169 80.691 158.449 80.012 158.449 79.34C158.449 78.906 158.239 78.556 157.819 78.29C157.413 78.01 156.944 77.87 156.412 77.87C155.6 77.87 155.012 78.052 154.648 78.416C154.298 78.766 154.123 79.277 154.123 79.949C154.123 80.117 154.025 80.271 153.829 80.411C153.647 80.537 153.416 80.6 153.136 80.6C152.744 80.6 152.471 80.46 152.317 80.18C152.163 79.9 152.086 79.557 152.086 79.151C152.086 78.507 152.282 77.94 152.674 77.45C153.066 76.946 153.598 76.554 154.27 76.274C154.956 75.994 155.712 75.854 156.538 75.854C157.126 75.854 157.735 76.001 158.365 76.295C159.009 76.575 159.541 76.96 159.961 77.45C160.395 77.926 160.612 78.451 160.612 79.025C160.612 79.893 160.395 80.719 159.961 81.503C159.527 82.287 159.016 82.987 158.428 83.603C157.854 84.205 157.105 84.919 156.181 85.745C155.733 86.123 155.334 86.48 154.984 86.816Z" fill="white"/>
<path d="M158.707 166.707C159.098 166.317 159.098 165.683 158.707 165.293L152.343 158.929C151.953 158.538 151.319 158.538 150.929 158.929C150.538 159.319 150.538 159.953 150.929 160.343L156.586 166L150.929 171.657C150.538 172.047 150.538 172.681 150.929 173.071C151.319 173.462 151.953 173.462 152.343 173.071L158.707 166.707ZM30 167L158 167L158 165L30 165L30 167Z" fill="#6C6C6C"/>
<path d="M30.7071 37.2929C30.3166 36.9024 29.6834 36.9024 29.2929 37.2929L22.9289 43.6569C22.5384 44.0474 22.5384 44.6805 22.9289 45.0711C23.3195 45.4616 23.9526 45.4616 24.3431 45.0711L30 39.4142L35.6568 45.0711C36.0474 45.4616 36.6805 45.4616 37.0711 45.0711C37.4616 44.6805 37.4616 44.0474 37.0711 43.6569L30.7071 37.2929ZM31 166L31 38L29 38L29 166L31 166Z" fill="#6C6C6C"/>
</svg>
