<svg width="347" height="173" viewBox="0 0 347 173" fill="none" xmlns="http://www.w3.org/2000/svg">
<rect x="1" y="56" width="40" height="40" fill="#EFEFEF" stroke="#AFAFAF" stroke-width="2"/>
<rect x="40" y="56" width="40" height="40" fill="#EFEFEF" stroke="#AFAFAF" stroke-width="2"/>
<rect x="78" y="56" width="40" height="40" fill="#EFEFEF" stroke="#AFAFAF" stroke-width="2"/>
<rect x="1" y="132" width="40" height="40" fill="#EFEFEF" stroke="#AFAFAF" stroke-width="2"/>
<rect x="40" y="132" width="40" height="40" fill="#EFEFEF" stroke="#AFAFAF" stroke-width="2"/>
<rect x="78" y="132" width="40" height="40" fill="#EFEFEF" stroke="#AFAFAF" stroke-width="2"/>
<rect x="1" y="94" width="40" height="40" fill="#EFEFEF" stroke="#AFAFAF" stroke-width="2"/>
<rect x="40" y="94" width="40" height="40" fill="#EFEFEF" stroke="#AFAFAF" stroke-width="2"/>
<rect x="78" y="94" width="40" height="40" fill="#EFEFEF" stroke="#AFAFAF" stroke-width="2"/>
<path d="M18.2273 75.5568V76.8068H13.1364V75.5568H18.2273ZM24.6548 70.3636V82H23.2457V71.8409H23.1776L20.3366 73.7273V72.2955L23.2457 70.3636H24.6548Z" fill="black"/>
<path d="M19.2273 151.557V152.807H14.1364V151.557H19.2273ZM25.6548 146.364V158H24.2457V147.841H24.1776L21.3366 149.727V148.295L24.2457 146.364H25.6548Z" fill="black"/>
<path d="M18.2273 113.557V114.807H13.1364V113.557H18.2273ZM20.017 120V118.977L23.858 114.773C24.3087 114.28 24.6799 113.852 24.9716 113.489C25.2633 113.121 25.4792 112.777 25.6193 112.455C25.7633 112.129 25.8352 111.788 25.8352 111.432C25.8352 111.023 25.7367 110.669 25.5398 110.369C25.3466 110.07 25.0814 109.839 24.7443 109.676C24.4072 109.513 24.0284 109.432 23.608 109.432C23.161 109.432 22.7708 109.525 22.4375 109.71C22.108 109.892 21.8523 110.148 21.6705 110.477C21.4924 110.807 21.4034 111.193 21.4034 111.636H20.0625C20.0625 110.955 20.2197 110.356 20.5341 109.841C20.8485 109.326 21.2765 108.924 21.8182 108.636C22.3636 108.348 22.9754 108.205 23.6534 108.205C24.3352 108.205 24.9394 108.348 25.4659 108.636C25.9924 108.924 26.4053 109.312 26.7045 109.801C27.0038 110.29 27.1534 110.833 27.1534 111.432C27.1534 111.86 27.0758 112.278 26.9205 112.688C26.7689 113.093 26.5038 113.545 26.125 114.045C25.75 114.542 25.2292 115.148 24.5625 115.864L21.9489 118.659V118.75H27.358V120H20.017Z" fill="black"/>
<path d="M92.6364 79.9545V72.4545H93.9091V79.9545H92.6364ZM89.5227 76.8409V75.5682H97.0227V76.8409H89.5227ZM103.842 70.3636V82H102.433V71.8409H102.365L99.5241 73.7273V72.2955L102.433 70.3636H103.842Z" fill="black"/>
<path d="M92.6364 155.955V148.455H93.9091V155.955H92.6364ZM89.5227 152.841V151.568H97.0227V152.841H89.5227ZM103.842 146.364V158H102.433V147.841H102.365L99.5241 149.727V148.295L102.433 146.364H103.842Z" fill="black"/>
<path d="M92.6364 117.955V110.455H93.9091V117.955H92.6364ZM89.5227 114.841V113.568H97.0227V114.841H89.5227ZM99.2045 120V118.977L103.045 114.773C103.496 114.28 103.867 113.852 104.159 113.489C104.451 113.121 104.667 112.777 104.807 112.455C104.951 112.129 105.023 111.788 105.023 111.432C105.023 111.023 104.924 110.669 104.727 110.369C104.534 110.07 104.269 109.839 103.932 109.676C103.595 109.513 103.216 109.432 102.795 109.432C102.348 109.432 101.958 109.525 101.625 109.71C101.295 109.892 101.04 110.148 100.858 110.477C100.68 110.807 100.591 111.193 100.591 111.636H99.25C99.25 110.955 99.4072 110.356 99.7216 109.841C100.036 109.326 100.464 108.924 101.006 108.636C101.551 108.348 102.163 108.205 102.841 108.205C103.523 108.205 104.127 108.348 104.653 108.636C105.18 108.924 105.593 109.312 105.892 109.801C106.191 110.29 106.341 110.833 106.341 111.432C106.341 111.86 106.263 112.278 106.108 112.688C105.956 113.093 105.691 113.545 105.312 114.045C104.938 114.542 104.417 115.148 103.75 115.864L101.136 118.659V118.75H106.545V120H99.2045Z" fill="black"/>
<path d="M59 82.1591C58.1439 82.1591 57.4148 81.9261 56.8125 81.4602C56.2102 80.9905 55.75 80.3106 55.4318 79.4205C55.1136 78.5265 54.9545 77.447 54.9545 76.1818C54.9545 74.9242 55.1136 73.8504 55.4318 72.9602C55.7538 72.0663 56.2159 71.3845 56.8182 70.9148C57.4242 70.4413 58.1515 70.2045 59 70.2045C59.8485 70.2045 60.5739 70.4413 61.1761 70.9148C61.7822 71.3845 62.2443 72.0663 62.5625 72.9602C62.8845 73.8504 63.0455 74.9242 63.0455 76.1818C63.0455 77.447 62.8864 78.5265 62.5682 79.4205C62.25 80.3106 61.7898 80.9905 61.1875 81.4602C60.5852 81.9261 59.8561 82.1591 59 82.1591ZM59 80.9091C59.8485 80.9091 60.5076 80.5 60.9773 79.6818C61.447 78.8636 61.6818 77.697 61.6818 76.1818C61.6818 75.1742 61.5739 74.3163 61.358 73.608C61.1458 72.8996 60.839 72.3598 60.4375 71.9886C60.0398 71.6174 59.5606 71.4318 59 71.4318C58.1591 71.4318 57.5019 71.8466 57.0284 72.6761C56.5549 73.5019 56.3182 74.6705 56.3182 76.1818C56.3182 77.1894 56.4242 78.0455 56.6364 78.75C56.8485 79.4545 57.1534 79.9905 57.5511 80.358C57.9527 80.7254 58.4356 80.9091 59 80.9091Z" fill="black"/>
<path d="M59 158.159C58.1439 158.159 57.4148 157.926 56.8125 157.46C56.2102 156.991 55.75 156.311 55.4318 155.42C55.1136 154.527 54.9545 153.447 54.9545 152.182C54.9545 150.924 55.1136 149.85 55.4318 148.96C55.7538 148.066 56.2159 147.384 56.8182 146.915C57.4242 146.441 58.1515 146.205 59 146.205C59.8485 146.205 60.5739 146.441 61.1761 146.915C61.7822 147.384 62.2443 148.066 62.5625 148.96C62.8845 149.85 63.0455 150.924 63.0455 152.182C63.0455 153.447 62.8864 154.527 62.5682 155.42C62.25 156.311 61.7898 156.991 61.1875 157.46C60.5852 157.926 59.8561 158.159 59 158.159ZM59 156.909C59.8485 156.909 60.5076 156.5 60.9773 155.682C61.447 154.864 61.6818 153.697 61.6818 152.182C61.6818 151.174 61.5739 150.316 61.358 149.608C61.1458 148.9 60.839 148.36 60.4375 147.989C60.0398 147.617 59.5606 147.432 59 147.432C58.1591 147.432 57.5019 147.847 57.0284 148.676C56.5549 149.502 56.3182 150.67 56.3182 152.182C56.3182 153.189 56.4242 154.045 56.6364 154.75C56.8485 155.455 57.1534 155.991 57.5511 156.358C57.9527 156.725 58.4356 156.909 59 156.909Z" fill="black"/>
<path d="M59 120.159C58.1439 120.159 57.4148 119.926 56.8125 119.46C56.2102 118.991 55.75 118.311 55.4318 117.42C55.1136 116.527 54.9545 115.447 54.9545 114.182C54.9545 112.924 55.1136 111.85 55.4318 110.96C55.7538 110.066 56.2159 109.384 56.8182 108.915C57.4242 108.441 58.1515 108.205 59 108.205C59.8485 108.205 60.5739 108.441 61.1761 108.915C61.7822 109.384 62.2443 110.066 62.5625 110.96C62.8845 111.85 63.0455 112.924 63.0455 114.182C63.0455 115.447 62.8864 116.527 62.5682 117.42C62.25 118.311 61.7898 118.991 61.1875 119.46C60.5852 119.926 59.8561 120.159 59 120.159ZM59 118.909C59.8485 118.909 60.5076 118.5 60.9773 117.682C61.447 116.864 61.6818 115.697 61.6818 114.182C61.6818 113.174 61.5739 112.316 61.358 111.608C61.1458 110.9 60.839 110.36 60.4375 109.989C60.0398 109.617 59.5606 109.432 59 109.432C58.1591 109.432 57.5019 109.847 57.0284 110.676C56.5549 111.502 56.3182 112.67 56.3182 114.182C56.3182 115.189 56.4242 116.045 56.6364 116.75C56.8485 117.455 57.1534 117.991 57.5511 118.358C57.9527 118.725 58.4356 118.909 59 118.909Z" fill="black"/>
<rect x="229" y="56" width="40" height="40" fill="#EFEFEF" stroke="#AFAFAF" stroke-width="2"/>
<rect x="268" y="56" width="40" height="40" fill="#EFEFEF" stroke="#AFAFAF" stroke-width="2"/>
<rect x="306" y="56" width="40" height="40" fill="#EFEFEF" stroke="#AFAFAF" stroke-width="2"/>
<rect x="229" y="132" width="40" height="40" fill="#EFEFEF" stroke="#AFAFAF" stroke-width="2"/>
<rect x="268" y="132" width="40" height="40" fill="#EFEFEF" stroke="#AFAFAF" stroke-width="2"/>
<rect x="306" y="132" width="40" height="40" fill="#EFEFEF" stroke="#AFAFAF" stroke-width="2"/>
<rect x="229" y="94" width="40" height="40" fill="#EFEFEF" stroke="#AFAFAF" stroke-width="2"/>
<rect x="268" y="94" width="40" height="40" fill="#EFEFEF" stroke="#AFAFAF" stroke-width="2"/>
<rect x="306" y="94" width="40" height="40" fill="#EFEFEF" stroke="#AFAFAF" stroke-width="2"/>
<path d="M246.227 75.5568V76.8068H241.136V75.5568H246.227ZM252.655 70.3636V82H251.246V71.8409H251.178L248.337 73.7273V72.2955L251.246 70.3636H252.655Z" fill="black"/>
<path d="M245.636 155.955V148.455H246.909V155.955H245.636ZM242.523 152.841V151.568H250.023V152.841H242.523ZM256.842 146.364V158H255.433V147.841H255.365L252.524 149.727V148.295L255.433 146.364H256.842Z" fill="black"/>
<path d="M248 120.159C247.144 120.159 246.415 119.926 245.812 119.46C245.21 118.991 244.75 118.311 244.432 117.42C244.114 116.527 243.955 115.447 243.955 114.182C243.955 112.924 244.114 111.85 244.432 110.96C244.754 110.066 245.216 109.384 245.818 108.915C246.424 108.441 247.152 108.205 248 108.205C248.848 108.205 249.574 108.441 250.176 108.915C250.782 109.384 251.244 110.066 251.562 110.96C251.884 111.85 252.045 112.924 252.045 114.182C252.045 115.447 251.886 116.527 251.568 117.42C251.25 118.311 250.79 118.991 250.188 119.46C249.585 119.926 248.856 120.159 248 120.159ZM248 118.909C248.848 118.909 249.508 118.5 249.977 117.682C250.447 116.864 250.682 115.697 250.682 114.182C250.682 113.174 250.574 112.316 250.358 111.608C250.146 110.9 249.839 110.36 249.438 109.989C249.04 109.617 248.561 109.432 248 109.432C247.159 109.432 246.502 109.847 246.028 110.676C245.555 111.502 245.318 112.67 245.318 114.182C245.318 115.189 245.424 116.045 245.636 116.75C245.848 117.455 246.153 117.991 246.551 118.358C246.953 118.725 247.436 118.909 248 118.909Z" fill="black"/>
<path d="M322.227 75.5568V76.8068H317.136V75.5568H322.227ZM328.655 70.3636V82H327.246V71.8409H327.178L324.337 73.7273V72.2955L327.246 70.3636H328.655Z" fill="black"/>
<path d="M320.636 155.955V148.455H321.909V155.955H320.636ZM317.523 152.841V151.568H325.023V152.841H317.523ZM331.842 146.364V158H330.433V147.841H330.365L327.524 149.727V148.295L330.433 146.364H331.842Z" fill="black"/>
<path d="M327 120.159C326.144 120.159 325.415 119.926 324.812 119.46C324.21 118.991 323.75 118.311 323.432 117.42C323.114 116.527 322.955 115.447 322.955 114.182C322.955 112.924 323.114 111.85 323.432 110.96C323.754 110.066 324.216 109.384 324.818 108.915C325.424 108.441 326.152 108.205 327 108.205C327.848 108.205 328.574 108.441 329.176 108.915C329.782 109.384 330.244 110.066 330.562 110.96C330.884 111.85 331.045 112.924 331.045 114.182C331.045 115.447 330.886 116.527 330.568 117.42C330.25 118.311 329.79 118.991 329.188 119.46C328.585 119.926 327.856 120.159 327 120.159ZM327 118.909C327.848 118.909 328.508 118.5 328.977 117.682C329.447 116.864 329.682 115.697 329.682 114.182C329.682 113.174 329.574 112.316 329.358 111.608C329.146 110.9 328.839 110.36 328.438 109.989C328.04 109.617 327.561 109.432 327 109.432C326.159 109.432 325.502 109.847 325.028 110.676C324.555 111.502 324.318 112.67 324.318 114.182C324.318 115.189 324.424 116.045 324.636 116.75C324.848 117.455 325.153 117.991 325.551 118.358C325.953 118.725 326.436 118.909 327 118.909Z" fill="black"/>
<path d="M285.227 75.5568V76.8068H280.136V75.5568H285.227ZM287.017 82V80.9773L290.858 76.7727C291.309 76.2803 291.68 75.8523 291.972 75.4886C292.263 75.1212 292.479 74.7765 292.619 74.4545C292.763 74.1288 292.835 73.7879 292.835 73.4318C292.835 73.0227 292.737 72.6686 292.54 72.3693C292.347 72.0701 292.081 71.839 291.744 71.6761C291.407 71.5133 291.028 71.4318 290.608 71.4318C290.161 71.4318 289.771 71.5246 289.438 71.7102C289.108 71.892 288.852 72.1477 288.67 72.4773C288.492 72.8068 288.403 73.1932 288.403 73.6364H287.062C287.062 72.9545 287.22 72.3561 287.534 71.8409C287.848 71.3258 288.277 70.9242 288.818 70.6364C289.364 70.3485 289.975 70.2045 290.653 70.2045C291.335 70.2045 291.939 70.3485 292.466 70.6364C292.992 70.9242 293.405 71.3125 293.705 71.8011C294.004 72.2898 294.153 72.8333 294.153 73.4318C294.153 73.8598 294.076 74.2784 293.92 74.6875C293.769 75.0928 293.504 75.5455 293.125 76.0455C292.75 76.5417 292.229 77.1477 291.562 77.8636L288.949 80.6591V80.75H294.358V82H287.017Z" fill="black"/>
<path d="M281.793 155.955V148.455H283.065V155.955H281.793ZM278.679 152.841V151.568H286.179V152.841H278.679ZM288.361 158V156.977L292.202 152.773C292.652 152.28 293.024 151.852 293.315 151.489C293.607 151.121 293.823 150.777 293.963 150.455C294.107 150.129 294.179 149.788 294.179 149.432C294.179 149.023 294.08 148.669 293.884 148.369C293.69 148.07 293.425 147.839 293.088 147.676C292.751 147.513 292.372 147.432 291.952 147.432C291.505 147.432 291.115 147.525 290.781 147.71C290.452 147.892 290.196 148.148 290.014 148.477C289.836 148.807 289.747 149.193 289.747 149.636H288.406C288.406 148.955 288.563 148.356 288.878 147.841C289.192 147.326 289.62 146.924 290.162 146.636C290.707 146.348 291.319 146.205 291.997 146.205C292.679 146.205 293.283 146.348 293.81 146.636C294.336 146.924 294.749 147.312 295.048 147.801C295.348 148.29 295.497 148.833 295.497 149.432C295.497 149.86 295.42 150.278 295.264 150.688C295.113 151.093 294.848 151.545 294.469 152.045C294.094 152.542 293.573 153.148 292.906 153.864L290.293 156.659V156.75H295.702V158H288.361Z" fill="black"/>
<path d="M287 120.159C286.144 120.159 285.415 119.926 284.812 119.46C284.21 118.991 283.75 118.311 283.432 117.42C283.114 116.527 282.955 115.447 282.955 114.182C282.955 112.924 283.114 111.85 283.432 110.96C283.754 110.066 284.216 109.384 284.818 108.915C285.424 108.441 286.152 108.205 287 108.205C287.848 108.205 288.574 108.441 289.176 108.915C289.782 109.384 290.244 110.066 290.562 110.96C290.884 111.85 291.045 112.924 291.045 114.182C291.045 115.447 290.886 116.527 290.568 117.42C290.25 118.311 289.79 118.991 289.188 119.46C288.585 119.926 287.856 120.159 287 120.159ZM287 118.909C287.848 118.909 288.508 118.5 288.977 117.682C289.447 116.864 289.682 115.697 289.682 114.182C289.682 113.174 289.574 112.316 289.358 111.608C289.146 110.9 288.839 110.36 288.438 109.989C288.04 109.617 287.561 109.432 287 109.432C286.159 109.432 285.502 109.847 285.028 110.676C284.555 111.502 284.318 112.67 284.318 114.182C284.318 115.189 284.424 116.045 284.636 116.75C284.848 117.455 285.153 117.991 285.551 118.358C285.953 118.725 286.436 118.909 287 118.909Z" fill="black"/>
<path d="M27.0872 8.45455L30.0204 13.4119H30.1341L33.0815 8.45455H36.5545L32.1156 15.7273L36.6539 23H33.117L30.1341 18.0355H30.0204L27.0375 23H23.5147L28.0673 15.7273L23.6 8.45455H27.0872ZM45.0763 16.88H47.7163V19.6H45.0763V16.88ZM38.0363 15.38H54.7763V17.48H38.0363V15.38ZM39.8963 19.06H52.7563V24.76H50.0963V21.16H39.8963V19.06ZM45.0763 6.28H47.7163V9H45.0763V6.28ZM44.9163 9.2H47.2563V9.58C47.2563 12.4 44.5763 14.36 39.5363 14.72L38.7363 12.74C43.1963 12.46 44.9163 11 44.9163 9.58V9.2ZM45.5363 9.2H47.8763V9.58C47.8763 11 49.5963 12.46 54.0563 12.74L53.2563 14.72C48.1963 14.36 45.5363 12.4 45.5363 9.58V9.2ZM39.6363 7.94H53.1763V10H39.6363V7.94ZM73.8237 6.26H76.5037V15.74H73.8237V6.26ZM63.9637 16.48H76.5037V21.48H66.6237V23.72H64.0037V19.58H73.8637V18.52H63.9637V16.48ZM64.0037 22.6H77.0037V24.66H64.0037V22.6ZM61.8637 7.38H71.8437V9.42H61.8637V7.38ZM61.6437 15.42L61.3837 13.32C64.6237 13.32 68.9437 13.26 72.5237 12.82L72.6637 14.72C69.0037 15.32 64.8437 15.4 61.6437 15.42ZM63.3237 8.3H65.8637V14.36H63.3237V8.3ZM67.8037 8.3H70.3837V14.36H67.8037V8.3ZM92.3621 6.24H95.0021V24.82H92.3621V6.24ZM89.1821 12.76H92.6621V14.92H89.1821V12.76ZM80.3021 18.48H81.7821C84.8421 18.48 87.1221 18.44 89.7421 18.02L89.9821 20.14C87.3021 20.56 84.9021 20.64 81.7821 20.64H80.3021V18.48ZM80.3021 7.8H88.8821V9.96H82.9421V19.16H80.3021V7.8ZM82.3421 12.96H88.2421V15.04H82.3421V12.96Z" fill="black"/>
<path d="M251.254 8.45455H254.698L258.015 14.7188H258.157L261.474 8.45455H264.919L259.613 17.858V23H256.559V17.858L251.254 8.45455ZM273.174 16.88H275.814V19.6H273.174V16.88ZM266.134 15.38H282.874V17.48H266.134V15.38ZM267.994 19.06H280.854V24.76H278.194V21.16H267.994V19.06ZM273.174 6.28H275.814V9H273.174V6.28ZM273.014 9.2H275.354V9.58C275.354 12.4 272.674 14.36 267.634 14.72L266.834 12.74C271.294 12.46 273.014 11 273.014 9.58V9.2ZM273.634 9.2H275.974V9.58C275.974 11 277.694 12.46 282.154 12.74L281.354 14.72C276.294 14.36 273.634 12.4 273.634 9.58V9.2ZM267.734 7.94H281.274V10H267.734V7.94ZM301.921 6.26H304.601V15.74H301.921V6.26ZM292.061 16.48H304.601V21.48H294.721V23.72H292.101V19.58H301.961V18.52H292.061V16.48ZM292.101 22.6H305.101V24.66H292.101V22.6ZM289.961 7.38H299.941V9.42H289.961V7.38ZM289.741 15.42L289.481 13.32C292.721 13.32 297.041 13.26 300.621 12.82L300.761 14.72C297.101 15.32 292.941 15.4 289.741 15.42ZM291.421 8.3H293.961V14.36H291.421V8.3ZM295.901 8.3H298.481V14.36H295.901V8.3ZM320.46 6.24H323.1V24.82H320.46V6.24ZM317.28 12.76H320.76V14.92H317.28V12.76ZM308.4 18.48H309.88C312.94 18.48 315.22 18.44 317.84 18.02L318.08 20.14C315.4 20.56 313 20.64 309.88 20.64H308.4V18.48ZM308.4 7.8H316.98V9.96H311.04V19.16H308.4V7.8ZM310.44 12.96H316.34V15.04H310.44V12.96Z" fill="black"/>
</svg>
