<svg width="392" height="690" viewBox="0 0 392 690" fill="none" xmlns="http://www.w3.org/2000/svg">
<rect x="136" y="267" width="40" height="40" fill="white" stroke="#AFAFAF" stroke-width="2"/>
<rect x="175" y="267" width="40" height="40" fill="white" stroke="#AFAFAF" stroke-width="2"/>
<rect x="213" y="267" width="40" height="40" fill="white" stroke="#AFAFAF" stroke-width="2"/>
<rect x="136" y="343" width="40" height="40" fill="white" stroke="#AFAFAF" stroke-width="2"/>
<rect x="175" y="343" width="40" height="40" fill="white" stroke="#AFAFAF" stroke-width="2"/>
<rect x="213" y="343" width="40" height="40" fill="white" stroke="#AFAFAF" stroke-width="2"/>
<rect x="136" y="305" width="40" height="40" fill="white" stroke="#AFAFAF" stroke-width="2"/>
<rect x="175" y="305" width="40" height="40" fill="#FFDBDB" stroke="#AFAFAF" stroke-width="2"/>
<rect x="213" y="305" width="40" height="40" fill="white" stroke="#AFAFAF" stroke-width="2"/>
<path d="M152.295 281.364V293H150.886V282.841H150.818L147.977 284.727V283.295L150.886 281.364H152.295ZM159.438 293.159C158.581 293.159 157.852 292.926 157.25 292.46C156.648 291.991 156.188 291.311 155.869 290.42C155.551 289.527 155.392 288.447 155.392 287.182C155.392 285.924 155.551 284.85 155.869 283.96C156.191 283.066 156.653 282.384 157.256 281.915C157.862 281.441 158.589 281.205 159.438 281.205C160.286 281.205 161.011 281.441 161.614 281.915C162.22 282.384 162.682 283.066 163 283.96C163.322 284.85 163.483 285.924 163.483 287.182C163.483 288.447 163.324 289.527 163.006 290.42C162.688 291.311 162.227 291.991 161.625 292.46C161.023 292.926 160.294 293.159 159.438 293.159ZM159.438 291.909C160.286 291.909 160.945 291.5 161.415 290.682C161.884 289.864 162.119 288.697 162.119 287.182C162.119 286.174 162.011 285.316 161.795 284.608C161.583 283.9 161.277 283.36 160.875 282.989C160.477 282.617 159.998 282.432 159.438 282.432C158.597 282.432 157.939 282.847 157.466 283.676C156.992 284.502 156.756 285.67 156.756 287.182C156.756 288.189 156.862 289.045 157.074 289.75C157.286 290.455 157.591 290.991 157.989 291.358C158.39 291.725 158.873 291.909 159.438 291.909Z" fill="black"/>
<path d="M147.568 369L152.773 358.705V358.614H146.773V357.364H154.227V358.682L149.045 369H147.568ZM159.891 369.159C159.035 369.159 158.305 368.926 157.703 368.46C157.101 367.991 156.641 367.311 156.322 366.42C156.004 365.527 155.845 364.447 155.845 363.182C155.845 361.924 156.004 360.85 156.322 359.96C156.644 359.066 157.107 358.384 157.709 357.915C158.315 357.441 159.042 357.205 159.891 357.205C160.739 357.205 161.464 357.441 162.067 357.915C162.673 358.384 163.135 359.066 163.453 359.96C163.775 360.85 163.936 361.924 163.936 363.182C163.936 364.447 163.777 365.527 163.459 366.42C163.141 367.311 162.68 367.991 162.078 368.46C161.476 368.926 160.747 369.159 159.891 369.159ZM159.891 367.909C160.739 367.909 161.398 367.5 161.868 366.682C162.338 365.864 162.572 364.697 162.572 363.182C162.572 362.174 162.464 361.316 162.249 360.608C162.036 359.9 161.73 359.36 161.328 358.989C160.93 358.617 160.451 358.432 159.891 358.432C159.05 358.432 158.393 358.847 157.919 359.676C157.446 360.502 157.209 361.67 157.209 363.182C157.209 364.189 157.315 365.045 157.527 365.75C157.739 366.455 158.044 366.991 158.442 367.358C158.843 367.725 159.326 367.909 159.891 367.909Z" fill="black"/>
<path d="M146.932 328.614V327.455L152.045 319.364H152.886V321.159H152.318L148.455 327.273V327.364H155.341V328.614H146.932ZM152.409 331V328.261V327.722V319.364H153.75V331H152.409ZM161.266 331.159C160.41 331.159 159.68 330.926 159.078 330.46C158.476 329.991 158.016 329.311 157.697 328.42C157.379 327.527 157.22 326.447 157.22 325.182C157.22 323.924 157.379 322.85 157.697 321.96C158.019 321.066 158.482 320.384 159.084 319.915C159.69 319.441 160.417 319.205 161.266 319.205C162.114 319.205 162.839 319.441 163.442 319.915C164.048 320.384 164.51 321.066 164.828 321.96C165.15 322.85 165.311 323.924 165.311 325.182C165.311 326.447 165.152 327.527 164.834 328.42C164.516 329.311 164.055 329.991 163.453 330.46C162.851 330.926 162.122 331.159 161.266 331.159ZM161.266 329.909C162.114 329.909 162.773 329.5 163.243 328.682C163.713 327.864 163.947 326.697 163.947 325.182C163.947 324.174 163.839 323.316 163.624 322.608C163.411 321.9 163.105 321.36 162.703 320.989C162.305 320.617 161.826 320.432 161.266 320.432C160.425 320.432 159.768 320.847 159.294 321.676C158.821 322.502 158.584 323.67 158.584 325.182C158.584 326.189 158.69 327.045 158.902 327.75C159.114 328.455 159.419 328.991 159.817 329.358C160.218 329.725 160.701 329.909 161.266 329.909Z" fill="black"/>
<path d="M229.136 293.159C228.386 293.159 227.718 293.03 227.131 292.773C226.547 292.515 226.083 292.157 225.739 291.699C225.398 291.237 225.212 290.701 225.182 290.091H226.614C226.644 290.466 226.773 290.79 227 291.062C227.227 291.331 227.525 291.54 227.892 291.688C228.259 291.835 228.667 291.909 229.114 291.909C229.614 291.909 230.057 291.822 230.443 291.648C230.83 291.473 231.133 291.231 231.352 290.92C231.572 290.61 231.682 290.25 231.682 289.841C231.682 289.413 231.576 289.036 231.364 288.71C231.152 288.381 230.841 288.123 230.432 287.938C230.023 287.752 229.523 287.659 228.932 287.659H228V286.409H228.932C229.394 286.409 229.799 286.326 230.148 286.159C230.5 285.992 230.775 285.758 230.972 285.455C231.172 285.152 231.273 284.795 231.273 284.386C231.273 283.992 231.186 283.65 231.011 283.358C230.837 283.066 230.591 282.839 230.273 282.676C229.958 282.513 229.587 282.432 229.159 282.432C228.758 282.432 228.379 282.506 228.023 282.653C227.67 282.797 227.383 283.008 227.159 283.284C226.936 283.557 226.814 283.886 226.795 284.273H225.432C225.455 283.663 225.638 283.129 225.983 282.67C226.328 282.208 226.778 281.848 227.335 281.591C227.896 281.333 228.511 281.205 229.182 281.205C229.902 281.205 230.519 281.35 231.034 281.642C231.549 281.93 231.945 282.311 232.222 282.784C232.498 283.258 232.636 283.769 232.636 284.318C232.636 284.973 232.464 285.532 232.119 285.994C231.778 286.456 231.314 286.777 230.727 286.955V287.045C231.462 287.167 232.036 287.479 232.449 287.983C232.862 288.483 233.068 289.102 233.068 289.841C233.068 290.473 232.896 291.042 232.551 291.545C232.21 292.045 231.744 292.439 231.153 292.727C230.563 293.015 229.89 293.159 229.136 293.159ZM239.188 293.159C238.331 293.159 237.602 292.926 237 292.46C236.398 291.991 235.938 291.311 235.619 290.42C235.301 289.527 235.142 288.447 235.142 287.182C235.142 285.924 235.301 284.85 235.619 283.96C235.941 283.066 236.403 282.384 237.006 281.915C237.612 281.441 238.339 281.205 239.188 281.205C240.036 281.205 240.761 281.441 241.364 281.915C241.97 282.384 242.432 283.066 242.75 283.96C243.072 284.85 243.233 285.924 243.233 287.182C243.233 288.447 243.074 289.527 242.756 290.42C242.438 291.311 241.977 291.991 241.375 292.46C240.773 292.926 240.044 293.159 239.188 293.159ZM239.188 291.909C240.036 291.909 240.695 291.5 241.165 290.682C241.634 289.864 241.869 288.697 241.869 287.182C241.869 286.174 241.761 285.316 241.545 284.608C241.333 283.9 241.027 283.36 240.625 282.989C240.227 282.617 239.748 282.432 239.188 282.432C238.347 282.432 237.689 282.847 237.216 283.676C236.742 284.502 236.506 285.67 236.506 287.182C236.506 288.189 236.612 289.045 236.824 289.75C237.036 290.455 237.341 290.991 237.739 291.358C238.14 291.725 238.623 291.909 239.188 291.909Z" fill="black"/>
<path d="M229.909 357.205C230.386 357.208 230.864 357.299 231.341 357.477C231.818 357.655 232.254 357.951 232.648 358.364C233.042 358.773 233.358 359.331 233.597 360.04C233.835 360.748 233.955 361.636 233.955 362.705C233.955 363.739 233.856 364.657 233.659 365.46C233.466 366.259 233.186 366.934 232.818 367.483C232.455 368.032 232.011 368.449 231.489 368.733C230.97 369.017 230.383 369.159 229.727 369.159C229.076 369.159 228.494 369.03 227.983 368.773C227.475 368.511 227.059 368.15 226.733 367.688C226.411 367.222 226.205 366.682 226.114 366.068H227.5C227.625 366.602 227.873 367.044 228.244 367.392C228.619 367.737 229.114 367.909 229.727 367.909C230.625 367.909 231.333 367.517 231.852 366.733C232.375 365.949 232.636 364.841 232.636 363.409H232.545C232.333 363.727 232.081 364.002 231.79 364.233C231.498 364.464 231.174 364.642 230.818 364.767C230.462 364.892 230.083 364.955 229.682 364.955C229.015 364.955 228.403 364.79 227.847 364.46C227.294 364.127 226.85 363.67 226.517 363.091C226.188 362.508 226.023 361.841 226.023 361.091C226.023 360.379 226.182 359.727 226.5 359.136C226.822 358.542 227.273 358.068 227.852 357.716C228.436 357.364 229.121 357.193 229.909 357.205ZM229.909 358.455C229.432 358.455 229.002 358.574 228.619 358.812C228.241 359.047 227.939 359.366 227.716 359.767C227.496 360.165 227.386 360.606 227.386 361.091C227.386 361.576 227.492 362.017 227.705 362.415C227.92 362.809 228.214 363.123 228.585 363.358C228.96 363.589 229.386 363.705 229.864 363.705C230.223 363.705 230.559 363.634 230.869 363.494C231.18 363.35 231.451 363.155 231.682 362.909C231.917 362.659 232.1 362.377 232.233 362.062C232.366 361.744 232.432 361.413 232.432 361.068C232.432 360.614 232.322 360.187 232.102 359.79C231.886 359.392 231.587 359.07 231.205 358.824C230.826 358.578 230.394 358.455 229.909 358.455ZM239.984 369.159C239.128 369.159 238.399 368.926 237.797 368.46C237.195 367.991 236.734 367.311 236.416 366.42C236.098 365.527 235.939 364.447 235.939 363.182C235.939 361.924 236.098 360.85 236.416 359.96C236.738 359.066 237.2 358.384 237.803 357.915C238.409 357.441 239.136 357.205 239.984 357.205C240.833 357.205 241.558 357.441 242.161 357.915C242.767 358.384 243.229 359.066 243.547 359.96C243.869 360.85 244.03 361.924 244.03 363.182C244.03 364.447 243.871 365.527 243.553 366.42C243.234 367.311 242.774 367.991 242.172 368.46C241.57 368.926 240.84 369.159 239.984 369.159ZM239.984 367.909C240.833 367.909 241.492 367.5 241.962 366.682C242.431 365.864 242.666 364.697 242.666 363.182C242.666 362.174 242.558 361.316 242.342 360.608C242.13 359.9 241.823 359.36 241.422 358.989C241.024 358.617 240.545 358.432 239.984 358.432C239.143 358.432 238.486 358.847 238.013 359.676C237.539 360.502 237.303 361.67 237.303 363.182C237.303 364.189 237.409 365.045 237.621 365.75C237.833 366.455 238.138 366.991 238.536 367.358C238.937 367.725 239.42 367.909 239.984 367.909Z" fill="black"/>
<path d="M230.068 331.159C229.591 331.152 229.114 331.061 228.636 330.886C228.159 330.712 227.723 330.419 227.33 330.006C226.936 329.589 226.619 329.027 226.381 328.318C226.142 327.606 226.023 326.712 226.023 325.636C226.023 324.606 226.119 323.693 226.312 322.898C226.506 322.098 226.786 321.426 227.153 320.881C227.521 320.331 227.964 319.915 228.483 319.631C229.006 319.347 229.595 319.205 230.25 319.205C230.902 319.205 231.481 319.335 231.989 319.597C232.5 319.854 232.917 320.214 233.239 320.676C233.561 321.138 233.769 321.67 233.864 322.273H232.477C232.348 321.75 232.098 321.316 231.727 320.972C231.356 320.627 230.864 320.455 230.25 320.455C229.348 320.455 228.638 320.847 228.119 321.631C227.604 322.415 227.345 323.515 227.341 324.932H227.432C227.644 324.61 227.896 324.335 228.188 324.108C228.483 323.877 228.809 323.699 229.165 323.574C229.521 323.449 229.898 323.386 230.295 323.386C230.962 323.386 231.572 323.553 232.125 323.886C232.678 324.216 233.121 324.672 233.455 325.256C233.788 325.835 233.955 326.5 233.955 327.25C233.955 327.97 233.794 328.629 233.472 329.227C233.15 329.822 232.697 330.295 232.114 330.648C231.534 330.996 230.852 331.167 230.068 331.159ZM230.068 329.909C230.545 329.909 230.973 329.79 231.352 329.551C231.735 329.312 232.036 328.992 232.256 328.591C232.479 328.189 232.591 327.742 232.591 327.25C232.591 326.769 232.483 326.331 232.267 325.938C232.055 325.54 231.761 325.223 231.386 324.989C231.015 324.754 230.591 324.636 230.114 324.636C229.754 324.636 229.419 324.708 229.108 324.852C228.797 324.992 228.525 325.186 228.29 325.432C228.059 325.678 227.877 325.96 227.744 326.278C227.612 326.593 227.545 326.924 227.545 327.273C227.545 327.735 227.653 328.167 227.869 328.568C228.089 328.97 228.388 329.294 228.767 329.54C229.15 329.786 229.583 329.909 230.068 329.909ZM239.984 331.159C239.128 331.159 238.399 330.926 237.797 330.46C237.195 329.991 236.734 329.311 236.416 328.42C236.098 327.527 235.939 326.447 235.939 325.182C235.939 323.924 236.098 322.85 236.416 321.96C236.738 321.066 237.2 320.384 237.803 319.915C238.409 319.441 239.136 319.205 239.984 319.205C240.833 319.205 241.558 319.441 242.161 319.915C242.767 320.384 243.229 321.066 243.547 321.96C243.869 322.85 244.03 323.924 244.03 325.182C244.03 326.447 243.871 327.527 243.553 328.42C243.234 329.311 242.774 329.991 242.172 330.46C241.57 330.926 240.84 331.159 239.984 331.159ZM239.984 329.909C240.833 329.909 241.492 329.5 241.962 328.682C242.431 327.864 242.666 326.697 242.666 325.182C242.666 324.174 242.558 323.316 242.342 322.608C242.13 321.9 241.823 321.36 241.422 320.989C241.024 320.617 240.545 320.432 239.984 320.432C239.143 320.432 238.486 320.847 238.013 321.676C237.539 322.502 237.303 323.67 237.303 325.182C237.303 326.189 237.409 327.045 237.621 327.75C237.833 328.455 238.138 328.991 238.536 329.358C238.937 329.725 239.42 329.909 239.984 329.909Z" fill="black"/>
<path d="M185.205 293V291.977L189.045 287.773C189.496 287.28 189.867 286.852 190.159 286.489C190.451 286.121 190.667 285.777 190.807 285.455C190.951 285.129 191.023 284.788 191.023 284.432C191.023 284.023 190.924 283.669 190.727 283.369C190.534 283.07 190.269 282.839 189.932 282.676C189.595 282.513 189.216 282.432 188.795 282.432C188.348 282.432 187.958 282.525 187.625 282.71C187.295 282.892 187.04 283.148 186.858 283.477C186.68 283.807 186.591 284.193 186.591 284.636H185.25C185.25 283.955 185.407 283.356 185.722 282.841C186.036 282.326 186.464 281.924 187.006 281.636C187.551 281.348 188.163 281.205 188.841 281.205C189.523 281.205 190.127 281.348 190.653 281.636C191.18 281.924 191.593 282.312 191.892 282.801C192.191 283.29 192.341 283.833 192.341 284.432C192.341 284.86 192.263 285.278 192.108 285.688C191.956 286.093 191.691 286.545 191.312 287.045C190.938 287.542 190.417 288.148 189.75 288.864L187.136 291.659V291.75H192.545V293H185.205ZM198.688 293.159C197.831 293.159 197.102 292.926 196.5 292.46C195.898 291.991 195.438 291.311 195.119 290.42C194.801 289.527 194.642 288.447 194.642 287.182C194.642 285.924 194.801 284.85 195.119 283.96C195.441 283.066 195.903 282.384 196.506 281.915C197.112 281.441 197.839 281.205 198.688 281.205C199.536 281.205 200.261 281.441 200.864 281.915C201.47 282.384 201.932 283.066 202.25 283.96C202.572 284.85 202.733 285.924 202.733 287.182C202.733 288.447 202.574 289.527 202.256 290.42C201.938 291.311 201.477 291.991 200.875 292.46C200.273 292.926 199.544 293.159 198.688 293.159ZM198.688 291.909C199.536 291.909 200.195 291.5 200.665 290.682C201.134 289.864 201.369 288.697 201.369 287.182C201.369 286.174 201.261 285.316 201.045 284.608C200.833 283.9 200.527 283.36 200.125 282.989C199.727 282.617 199.248 282.432 198.688 282.432C197.847 282.432 197.189 282.847 196.716 283.676C196.242 284.502 196.006 285.67 196.006 287.182C196.006 288.189 196.112 289.045 196.324 289.75C196.536 290.455 196.841 290.991 197.239 291.358C197.64 291.725 198.123 291.909 198.688 291.909Z" fill="black"/>
<path d="M190.002 369.159C189.222 369.159 188.532 369.021 187.934 368.744C187.339 368.464 186.875 368.08 186.542 367.591C186.209 367.098 186.044 366.538 186.048 365.909C186.044 365.417 186.14 364.962 186.337 364.545C186.534 364.125 186.803 363.775 187.144 363.494C187.489 363.21 187.873 363.03 188.298 362.955V362.886C187.741 362.742 187.298 362.43 186.968 361.949C186.638 361.464 186.476 360.913 186.479 360.295C186.476 359.705 186.625 359.176 186.928 358.71C187.231 358.244 187.648 357.877 188.178 357.608C188.712 357.339 189.32 357.205 190.002 357.205C190.676 357.205 191.279 357.339 191.809 357.608C192.339 357.877 192.756 358.244 193.059 358.71C193.366 359.176 193.521 359.705 193.525 360.295C193.521 360.913 193.353 361.464 193.019 361.949C192.69 362.43 192.252 362.742 191.707 362.886V362.955C192.127 363.03 192.506 363.21 192.843 363.494C193.18 363.775 193.449 364.125 193.65 364.545C193.851 364.962 193.953 365.417 193.957 365.909C193.953 366.538 193.782 367.098 193.445 367.591C193.112 368.08 192.648 368.464 192.053 368.744C191.462 369.021 190.779 369.159 190.002 369.159ZM190.002 367.909C190.529 367.909 190.983 367.824 191.366 367.653C191.748 367.483 192.044 367.242 192.252 366.932C192.46 366.621 192.567 366.258 192.57 365.841C192.567 365.402 192.453 365.013 192.229 364.676C192.006 364.339 191.701 364.074 191.315 363.881C190.932 363.687 190.495 363.591 190.002 363.591C189.506 363.591 189.063 363.687 188.673 363.881C188.286 364.074 187.981 364.339 187.758 364.676C187.538 365.013 187.43 365.402 187.434 365.841C187.43 366.258 187.531 366.621 187.735 366.932C187.943 367.242 188.241 367.483 188.627 367.653C189.013 367.824 189.472 367.909 190.002 367.909ZM190.002 362.386C190.419 362.386 190.788 362.303 191.11 362.136C191.436 361.97 191.692 361.737 191.877 361.438C192.063 361.138 192.157 360.788 192.161 360.386C192.157 359.992 192.065 359.65 191.883 359.358C191.701 359.062 191.449 358.835 191.127 358.676C190.805 358.513 190.43 358.432 190.002 358.432C189.567 358.432 189.186 358.513 188.86 358.676C188.534 358.835 188.282 359.062 188.104 359.358C187.926 359.65 187.839 359.992 187.843 360.386C187.839 360.788 187.928 361.138 188.11 361.438C188.296 361.737 188.551 361.97 188.877 362.136C189.203 362.303 189.578 362.386 190.002 362.386ZM199.93 369.159C199.074 369.159 198.344 368.926 197.742 368.46C197.14 367.991 196.68 367.311 196.362 366.42C196.043 365.527 195.884 364.447 195.884 363.182C195.884 361.924 196.043 360.85 196.362 359.96C196.683 359.066 197.146 358.384 197.748 357.915C198.354 357.441 199.081 357.205 199.93 357.205C200.778 357.205 201.504 357.441 202.106 357.915C202.712 358.384 203.174 359.066 203.492 359.96C203.814 360.85 203.975 361.924 203.975 363.182C203.975 364.447 203.816 365.527 203.498 366.42C203.18 367.311 202.719 367.991 202.117 368.46C201.515 368.926 200.786 369.159 199.93 369.159ZM199.93 367.909C200.778 367.909 201.437 367.5 201.907 366.682C202.377 365.864 202.612 364.697 202.612 363.182C202.612 362.174 202.504 361.316 202.288 360.608C202.076 359.9 201.769 359.36 201.367 358.989C200.969 358.617 200.49 358.432 199.93 358.432C199.089 358.432 198.432 358.847 197.958 359.676C197.485 360.502 197.248 361.67 197.248 363.182C197.248 364.189 197.354 365.045 197.566 365.75C197.778 366.455 198.083 366.991 198.481 367.358C198.882 367.725 199.365 367.909 199.93 367.909Z" fill="black"/>
<path d="M189.841 331.159C189.174 331.159 188.574 331.027 188.04 330.761C187.506 330.496 187.078 330.133 186.756 329.67C186.434 329.208 186.258 328.682 186.227 328.091H187.591C187.644 328.617 187.883 329.053 188.307 329.398C188.735 329.739 189.246 329.909 189.841 329.909C190.318 329.909 190.742 329.797 191.114 329.574C191.489 329.35 191.782 329.044 191.994 328.653C192.21 328.259 192.318 327.814 192.318 327.318C192.318 326.811 192.206 326.358 191.983 325.96C191.763 325.559 191.46 325.242 191.074 325.011C190.688 324.78 190.246 324.663 189.75 324.659C189.394 324.655 189.028 324.71 188.653 324.824C188.278 324.934 187.97 325.076 187.727 325.25L186.409 325.091L187.114 319.364H193.159V320.614H188.295L187.886 324.045H187.955C188.193 323.856 188.492 323.699 188.852 323.574C189.212 323.449 189.587 323.386 189.977 323.386C190.689 323.386 191.324 323.557 191.881 323.898C192.441 324.235 192.881 324.697 193.199 325.284C193.521 325.871 193.682 326.542 193.682 327.295C193.682 328.038 193.515 328.701 193.182 329.284C192.852 329.864 192.398 330.322 191.818 330.659C191.239 330.992 190.58 331.159 189.841 331.159ZM199.734 331.159C198.878 331.159 198.149 330.926 197.547 330.46C196.945 329.991 196.484 329.311 196.166 328.42C195.848 327.527 195.689 326.447 195.689 325.182C195.689 323.924 195.848 322.85 196.166 321.96C196.488 321.066 196.95 320.384 197.553 319.915C198.159 319.441 198.886 319.205 199.734 319.205C200.583 319.205 201.308 319.441 201.911 319.915C202.517 320.384 202.979 321.066 203.297 321.96C203.619 322.85 203.78 323.924 203.78 325.182C203.78 326.447 203.621 327.527 203.303 328.42C202.984 329.311 202.524 329.991 201.922 330.46C201.32 330.926 200.59 331.159 199.734 331.159ZM199.734 329.909C200.583 329.909 201.242 329.5 201.712 328.682C202.181 327.864 202.416 326.697 202.416 325.182C202.416 324.174 202.308 323.316 202.092 322.608C201.88 321.9 201.573 321.36 201.172 320.989C200.774 320.617 200.295 320.432 199.734 320.432C198.893 320.432 198.236 320.847 197.763 321.676C197.289 322.502 197.053 323.67 197.053 325.182C197.053 326.189 197.159 327.045 197.371 327.75C197.583 328.455 197.888 328.991 198.286 329.358C198.687 329.725 199.17 329.909 199.734 329.909Z" fill="black"/>
<path d="M193.524 256.476C194.208 257.159 195.316 257.159 195.999 256.476L207.136 245.339C207.82 244.655 207.82 243.547 207.136 242.864C206.453 242.18 205.345 242.18 204.661 242.864L194.762 252.763L184.862 242.864C184.179 242.18 183.071 242.18 182.387 242.864C181.704 243.547 181.704 244.655 182.387 245.339L193.524 256.476ZM193.012 231.238L193.012 255.238L196.512 255.238L196.512 231.238L193.012 231.238Z" fill="black"/>
<path d="M156.237 191.763C155.554 191.079 154.446 191.079 153.763 191.763C153.079 192.446 153.079 193.554 153.763 194.237L156.237 191.763ZM153.763 194.237L193.763 234.237L196.237 231.763L156.237 191.763L153.763 194.237Z" fill="black"/>
<path d="M235.237 194.714C235.921 194.031 235.921 192.923 235.237 192.239C234.554 191.556 233.446 191.556 232.763 192.239L235.237 194.714ZM232.763 192.239L192.763 232.239L195.237 234.714L235.237 194.714L232.763 192.239Z" fill="black"/>
<path d="M193.524 613.476C194.208 614.159 195.316 614.159 195.999 613.476L207.136 602.339C207.82 601.655 207.82 600.547 207.136 599.864C206.453 599.18 205.345 599.18 204.661 599.864L194.762 609.763L184.862 599.864C184.179 599.18 183.071 599.18 182.387 599.864C181.704 600.547 181.704 601.655 182.387 602.339L193.524 613.476ZM193.012 588.238L193.012 612.238L196.512 612.238L196.512 588.238L193.012 588.238Z" fill="black"/>
<path d="M156.237 548.763C155.554 548.079 154.446 548.079 153.763 548.763C153.079 549.446 153.079 550.554 153.763 551.237L156.237 548.763ZM153.763 551.237L193.763 591.237L196.237 588.763L156.237 548.763L153.763 551.237Z" fill="black"/>
<path d="M235.237 551.714C235.921 551.031 235.921 549.923 235.237 549.239C234.554 548.556 233.446 548.556 232.763 549.239L235.237 551.714ZM232.763 549.239L192.763 589.239L195.237 591.714L235.237 551.714L232.763 549.239Z" fill="black"/>
<path d="M195.988 395C195.988 394.034 195.205 393.25 194.238 393.25C193.272 393.25 192.488 394.034 192.488 395L195.988 395ZM195.988 419L195.988 395L192.488 395L192.488 419L195.988 419Z" fill="black"/>
<path d="M234 458.988C234.966 458.988 235.75 458.205 235.75 457.238L235.75 441.488C235.75 440.522 234.966 439.738 234 439.738C233.034 439.738 232.25 440.522 232.25 441.488L232.25 455.488L218.25 455.488C217.284 455.488 216.5 456.272 216.5 457.238C216.5 458.205 217.284 458.988 218.25 458.988L234 458.988ZM235.237 456.001L195.237 416.001L192.763 418.476L232.763 458.476L235.237 456.001Z" fill="black"/>
<path d="M153.25 456.762C153.25 457.728 154.034 458.512 155 458.512L170.75 458.512C171.716 458.512 172.5 457.728 172.5 456.762C172.5 455.795 171.716 455.012 170.75 455.012L156.75 455.012L156.75 441.012C156.75 440.045 155.966 439.262 155 439.262C154.034 439.262 153.25 440.045 153.25 441.012L153.25 456.762ZM156.237 457.999L196.237 417.999L193.763 415.524L153.763 455.524L156.237 457.999Z" fill="black"/>
<rect x="21" y="56" width="40" height="40" fill="#EFEFEF" stroke="#AFAFAF" stroke-width="2"/>
<rect x="60" y="56" width="40" height="40" fill="#EFEFEF" stroke="#AFAFAF" stroke-width="2"/>
<rect x="98" y="56" width="40" height="40" fill="#EFEFEF" stroke="#AFAFAF" stroke-width="2"/>
<rect x="21" y="132" width="40" height="40" fill="#EFEFEF" stroke="#AFAFAF" stroke-width="2"/>
<rect x="60" y="132" width="40" height="40" fill="#EFEFEF" stroke="#AFAFAF" stroke-width="2"/>
<rect x="98" y="132" width="40" height="40" fill="#EFEFEF" stroke="#AFAFAF" stroke-width="2"/>
<rect x="21" y="94" width="40" height="40" fill="#EFEFEF" stroke="#AFAFAF" stroke-width="2"/>
<rect x="60" y="94" width="40" height="40" fill="#EFEFEF" stroke="#AFAFAF" stroke-width="2"/>
<rect x="98" y="94" width="40" height="40" fill="#EFEFEF" stroke="#AFAFAF" stroke-width="2"/>
<path d="M38.2273 75.5568V76.8068H33.1364V75.5568H38.2273ZM44.6548 70.3636V82H43.2457V71.8409H43.1776L40.3366 73.7273V72.2955L43.2457 70.3636H44.6548Z" fill="black"/>
<path d="M39.2273 151.557V152.807H34.1364V151.557H39.2273ZM45.6548 146.364V158H44.2457V147.841H44.1776L41.3366 149.727V148.295L44.2457 146.364H45.6548Z" fill="black"/>
<path d="M38.2273 113.557V114.807H33.1364V113.557H38.2273ZM40.017 120V118.977L43.858 114.773C44.3087 114.28 44.6799 113.852 44.9716 113.489C45.2633 113.121 45.4792 112.777 45.6193 112.455C45.7633 112.129 45.8352 111.788 45.8352 111.432C45.8352 111.023 45.7367 110.669 45.5398 110.369C45.3466 110.07 45.0814 109.839 44.7443 109.676C44.4072 109.513 44.0284 109.432 43.608 109.432C43.161 109.432 42.7708 109.525 42.4375 109.71C42.108 109.892 41.8523 110.148 41.6705 110.477C41.4924 110.807 41.4034 111.193 41.4034 111.636H40.0625C40.0625 110.955 40.2197 110.356 40.5341 109.841C40.8485 109.326 41.2765 108.924 41.8182 108.636C42.3636 108.348 42.9754 108.205 43.6534 108.205C44.3352 108.205 44.9394 108.348 45.4659 108.636C45.9924 108.924 46.4053 109.312 46.7045 109.801C47.0038 110.29 47.1534 110.833 47.1534 111.432C47.1534 111.86 47.0758 112.278 46.9205 112.688C46.7689 113.093 46.5038 113.545 46.125 114.045C45.75 114.542 45.2292 115.148 44.5625 115.864L41.9489 118.659V118.75H47.358V120H40.017Z" fill="black"/>
<path d="M112.636 79.9545V72.4545H113.909V79.9545H112.636ZM109.523 76.8409V75.5682H117.023V76.8409H109.523ZM123.842 70.3636V82H122.433V71.8409H122.365L119.524 73.7273V72.2955L122.433 70.3636H123.842Z" fill="black"/>
<path d="M112.636 155.955V148.455H113.909V155.955H112.636ZM109.523 152.841V151.568H117.023V152.841H109.523ZM123.842 146.364V158H122.433V147.841H122.365L119.524 149.727V148.295L122.433 146.364H123.842Z" fill="black"/>
<path d="M112.636 117.955V110.455H113.909V117.955H112.636ZM109.523 114.841V113.568H117.023V114.841H109.523ZM119.205 120V118.977L123.045 114.773C123.496 114.28 123.867 113.852 124.159 113.489C124.451 113.121 124.667 112.777 124.807 112.455C124.951 112.129 125.023 111.788 125.023 111.432C125.023 111.023 124.924 110.669 124.727 110.369C124.534 110.07 124.269 109.839 123.932 109.676C123.595 109.513 123.216 109.432 122.795 109.432C122.348 109.432 121.958 109.525 121.625 109.71C121.295 109.892 121.04 110.148 120.858 110.477C120.68 110.807 120.591 111.193 120.591 111.636H119.25C119.25 110.955 119.407 110.356 119.722 109.841C120.036 109.326 120.464 108.924 121.006 108.636C121.551 108.348 122.163 108.205 122.841 108.205C123.523 108.205 124.127 108.348 124.653 108.636C125.18 108.924 125.593 109.312 125.892 109.801C126.191 110.29 126.341 110.833 126.341 111.432C126.341 111.86 126.263 112.278 126.108 112.688C125.956 113.093 125.691 113.545 125.312 114.045C124.938 114.542 124.417 115.148 123.75 115.864L121.136 118.659V118.75H126.545V120H119.205Z" fill="black"/>
<path d="M79 82.1591C78.1439 82.1591 77.4148 81.9261 76.8125 81.4602C76.2102 80.9905 75.75 80.3106 75.4318 79.4205C75.1136 78.5265 74.9545 77.447 74.9545 76.1818C74.9545 74.9242 75.1136 73.8504 75.4318 72.9602C75.7538 72.0663 76.2159 71.3845 76.8182 70.9148C77.4242 70.4413 78.1515 70.2045 79 70.2045C79.8485 70.2045 80.5739 70.4413 81.1761 70.9148C81.7822 71.3845 82.2443 72.0663 82.5625 72.9602C82.8845 73.8504 83.0455 74.9242 83.0455 76.1818C83.0455 77.447 82.8864 78.5265 82.5682 79.4205C82.25 80.3106 81.7898 80.9905 81.1875 81.4602C80.5852 81.9261 79.8561 82.1591 79 82.1591ZM79 80.9091C79.8485 80.9091 80.5076 80.5 80.9773 79.6818C81.447 78.8636 81.6818 77.697 81.6818 76.1818C81.6818 75.1742 81.5739 74.3163 81.358 73.608C81.1458 72.8996 80.839 72.3598 80.4375 71.9886C80.0398 71.6174 79.5606 71.4318 79 71.4318C78.1591 71.4318 77.5019 71.8466 77.0284 72.6761C76.5549 73.5019 76.3182 74.6705 76.3182 76.1818C76.3182 77.1894 76.4242 78.0455 76.6364 78.75C76.8485 79.4545 77.1534 79.9905 77.5511 80.358C77.9527 80.7254 78.4356 80.9091 79 80.9091Z" fill="black"/>
<path d="M79 158.159C78.1439 158.159 77.4148 157.926 76.8125 157.46C76.2102 156.991 75.75 156.311 75.4318 155.42C75.1136 154.527 74.9545 153.447 74.9545 152.182C74.9545 150.924 75.1136 149.85 75.4318 148.96C75.7538 148.066 76.2159 147.384 76.8182 146.915C77.4242 146.441 78.1515 146.205 79 146.205C79.8485 146.205 80.5739 146.441 81.1761 146.915C81.7822 147.384 82.2443 148.066 82.5625 148.96C82.8845 149.85 83.0455 150.924 83.0455 152.182C83.0455 153.447 82.8864 154.527 82.5682 155.42C82.25 156.311 81.7898 156.991 81.1875 157.46C80.5852 157.926 79.8561 158.159 79 158.159ZM79 156.909C79.8485 156.909 80.5076 156.5 80.9773 155.682C81.447 154.864 81.6818 153.697 81.6818 152.182C81.6818 151.174 81.5739 150.316 81.358 149.608C81.1458 148.9 80.839 148.36 80.4375 147.989C80.0398 147.617 79.5606 147.432 79 147.432C78.1591 147.432 77.5019 147.847 77.0284 148.676C76.5549 149.502 76.3182 150.67 76.3182 152.182C76.3182 153.189 76.4242 154.045 76.6364 154.75C76.8485 155.455 77.1534 155.991 77.5511 156.358C77.9527 156.725 78.4356 156.909 79 156.909Z" fill="black"/>
<path d="M79 120.159C78.1439 120.159 77.4148 119.926 76.8125 119.46C76.2102 118.991 75.75 118.311 75.4318 117.42C75.1136 116.527 74.9545 115.447 74.9545 114.182C74.9545 112.924 75.1136 111.85 75.4318 110.96C75.7538 110.066 76.2159 109.384 76.8182 108.915C77.4242 108.441 78.1515 108.205 79 108.205C79.8485 108.205 80.5739 108.441 81.1761 108.915C81.7822 109.384 82.2443 110.066 82.5625 110.96C82.8845 111.85 83.0455 112.924 83.0455 114.182C83.0455 115.447 82.8864 116.527 82.5682 117.42C82.25 118.311 81.7898 118.991 81.1875 119.46C80.5852 119.926 79.8561 120.159 79 120.159ZM79 118.909C79.8485 118.909 80.5076 118.5 80.9773 117.682C81.447 116.864 81.6818 115.697 81.6818 114.182C81.6818 113.174 81.5739 112.316 81.358 111.608C81.1458 110.9 80.839 110.36 80.4375 109.989C80.0398 109.617 79.5606 109.432 79 109.432C78.1591 109.432 77.5019 109.847 77.0284 110.676C76.5549 111.502 76.3182 112.67 76.3182 114.182C76.3182 115.189 76.4242 116.045 76.6364 116.75C76.8485 117.455 77.1534 117.991 77.5511 118.358C77.9527 118.725 78.4356 118.909 79 118.909Z" fill="black"/>
<rect x="249" y="56" width="40" height="40" fill="#EFEFEF" stroke="#AFAFAF" stroke-width="2"/>
<rect x="288" y="56" width="40" height="40" fill="#EFEFEF" stroke="#AFAFAF" stroke-width="2"/>
<rect x="326" y="56" width="40" height="40" fill="#EFEFEF" stroke="#AFAFAF" stroke-width="2"/>
<rect x="249" y="132" width="40" height="40" fill="#EFEFEF" stroke="#AFAFAF" stroke-width="2"/>
<rect x="288" y="132" width="40" height="40" fill="#EFEFEF" stroke="#AFAFAF" stroke-width="2"/>
<rect x="326" y="132" width="40" height="40" fill="#EFEFEF" stroke="#AFAFAF" stroke-width="2"/>
<rect x="249" y="94" width="40" height="40" fill="#EFEFEF" stroke="#AFAFAF" stroke-width="2"/>
<rect x="288" y="94" width="40" height="40" fill="#EFEFEF" stroke="#AFAFAF" stroke-width="2"/>
<rect x="326" y="94" width="40" height="40" fill="#EFEFEF" stroke="#AFAFAF" stroke-width="2"/>
<path d="M266.227 75.5568V76.8068H261.136V75.5568H266.227ZM272.655 70.3636V82H271.246V71.8409H271.178L268.337 73.7273V72.2955L271.246 70.3636H272.655Z" fill="black"/>
<path d="M265.636 155.955V148.455H266.909V155.955H265.636ZM262.523 152.841V151.568H270.023V152.841H262.523ZM276.842 146.364V158H275.433V147.841H275.365L272.524 149.727V148.295L275.433 146.364H276.842Z" fill="black"/>
<path d="M268 120.159C267.144 120.159 266.415 119.926 265.812 119.46C265.21 118.991 264.75 118.311 264.432 117.42C264.114 116.527 263.955 115.447 263.955 114.182C263.955 112.924 264.114 111.85 264.432 110.96C264.754 110.066 265.216 109.384 265.818 108.915C266.424 108.441 267.152 108.205 268 108.205C268.848 108.205 269.574 108.441 270.176 108.915C270.782 109.384 271.244 110.066 271.562 110.96C271.884 111.85 272.045 112.924 272.045 114.182C272.045 115.447 271.886 116.527 271.568 117.42C271.25 118.311 270.79 118.991 270.188 119.46C269.585 119.926 268.856 120.159 268 120.159ZM268 118.909C268.848 118.909 269.508 118.5 269.977 117.682C270.447 116.864 270.682 115.697 270.682 114.182C270.682 113.174 270.574 112.316 270.358 111.608C270.146 110.9 269.839 110.36 269.438 109.989C269.04 109.617 268.561 109.432 268 109.432C267.159 109.432 266.502 109.847 266.028 110.676C265.555 111.502 265.318 112.67 265.318 114.182C265.318 115.189 265.424 116.045 265.636 116.75C265.848 117.455 266.153 117.991 266.551 118.358C266.953 118.725 267.436 118.909 268 118.909Z" fill="black"/>
<path d="M342.227 75.5568V76.8068H337.136V75.5568H342.227ZM348.655 70.3636V82H347.246V71.8409H347.178L344.337 73.7273V72.2955L347.246 70.3636H348.655Z" fill="black"/>
<path d="M340.636 155.955V148.455H341.909V155.955H340.636ZM337.523 152.841V151.568H345.023V152.841H337.523ZM351.842 146.364V158H350.433V147.841H350.365L347.524 149.727V148.295L350.433 146.364H351.842Z" fill="black"/>
<path d="M347 120.159C346.144 120.159 345.415 119.926 344.812 119.46C344.21 118.991 343.75 118.311 343.432 117.42C343.114 116.527 342.955 115.447 342.955 114.182C342.955 112.924 343.114 111.85 343.432 110.96C343.754 110.066 344.216 109.384 344.818 108.915C345.424 108.441 346.152 108.205 347 108.205C347.848 108.205 348.574 108.441 349.176 108.915C349.782 109.384 350.244 110.066 350.562 110.96C350.884 111.85 351.045 112.924 351.045 114.182C351.045 115.447 350.886 116.527 350.568 117.42C350.25 118.311 349.79 118.991 349.188 119.46C348.585 119.926 347.856 120.159 347 120.159ZM347 118.909C347.848 118.909 348.508 118.5 348.977 117.682C349.447 116.864 349.682 115.697 349.682 114.182C349.682 113.174 349.574 112.316 349.358 111.608C349.146 110.9 348.839 110.36 348.438 109.989C348.04 109.617 347.561 109.432 347 109.432C346.159 109.432 345.502 109.847 345.028 110.676C344.555 111.502 344.318 112.67 344.318 114.182C344.318 115.189 344.424 116.045 344.636 116.75C344.848 117.455 345.153 117.991 345.551 118.358C345.953 118.725 346.436 118.909 347 118.909Z" fill="black"/>
<path d="M305.227 75.5568V76.8068H300.136V75.5568H305.227ZM307.017 82V80.9773L310.858 76.7727C311.309 76.2803 311.68 75.8523 311.972 75.4886C312.263 75.1212 312.479 74.7765 312.619 74.4545C312.763 74.1288 312.835 73.7879 312.835 73.4318C312.835 73.0227 312.737 72.6686 312.54 72.3693C312.347 72.0701 312.081 71.839 311.744 71.6761C311.407 71.5133 311.028 71.4318 310.608 71.4318C310.161 71.4318 309.771 71.5246 309.438 71.7102C309.108 71.892 308.852 72.1477 308.67 72.4773C308.492 72.8068 308.403 73.1932 308.403 73.6364H307.062C307.062 72.9545 307.22 72.3561 307.534 71.8409C307.848 71.3258 308.277 70.9242 308.818 70.6364C309.364 70.3485 309.975 70.2045 310.653 70.2045C311.335 70.2045 311.939 70.3485 312.466 70.6364C312.992 70.9242 313.405 71.3125 313.705 71.8011C314.004 72.2898 314.153 72.8333 314.153 73.4318C314.153 73.8598 314.076 74.2784 313.92 74.6875C313.769 75.0928 313.504 75.5455 313.125 76.0455C312.75 76.5417 312.229 77.1477 311.562 77.8636L308.949 80.6591V80.75H314.358V82H307.017Z" fill="black"/>
<path d="M301.793 155.955V148.455H303.065V155.955H301.793ZM298.679 152.841V151.568H306.179V152.841H298.679ZM308.361 158V156.977L312.202 152.773C312.652 152.28 313.024 151.852 313.315 151.489C313.607 151.121 313.823 150.777 313.963 150.455C314.107 150.129 314.179 149.788 314.179 149.432C314.179 149.023 314.08 148.669 313.884 148.369C313.69 148.07 313.425 147.839 313.088 147.676C312.751 147.513 312.372 147.432 311.952 147.432C311.505 147.432 311.115 147.525 310.781 147.71C310.452 147.892 310.196 148.148 310.014 148.477C309.836 148.807 309.747 149.193 309.747 149.636H308.406C308.406 148.955 308.563 148.356 308.878 147.841C309.192 147.326 309.62 146.924 310.162 146.636C310.707 146.348 311.319 146.205 311.997 146.205C312.679 146.205 313.283 146.348 313.81 146.636C314.336 146.924 314.749 147.312 315.048 147.801C315.348 148.29 315.497 148.833 315.497 149.432C315.497 149.86 315.42 150.278 315.264 150.688C315.113 151.093 314.848 151.545 314.469 152.045C314.094 152.542 313.573 153.148 312.906 153.864L310.293 156.659V156.75H315.702V158H308.361Z" fill="black"/>
<path d="M307 120.159C306.144 120.159 305.415 119.926 304.812 119.46C304.21 118.991 303.75 118.311 303.432 117.42C303.114 116.527 302.955 115.447 302.955 114.182C302.955 112.924 303.114 111.85 303.432 110.96C303.754 110.066 304.216 109.384 304.818 108.915C305.424 108.441 306.152 108.205 307 108.205C307.848 108.205 308.574 108.441 309.176 108.915C309.782 109.384 310.244 110.066 310.562 110.96C310.884 111.85 311.045 112.924 311.045 114.182C311.045 115.447 310.886 116.527 310.568 117.42C310.25 118.311 309.79 118.991 309.188 119.46C308.585 119.926 307.856 120.159 307 120.159ZM307 118.909C307.848 118.909 308.508 118.5 308.977 117.682C309.447 116.864 309.682 115.697 309.682 114.182C309.682 113.174 309.574 112.316 309.358 111.608C309.146 110.9 308.839 110.36 308.438 109.989C308.04 109.617 307.561 109.432 307 109.432C306.159 109.432 305.502 109.847 305.028 110.676C304.555 111.502 304.318 112.67 304.318 114.182C304.318 115.189 304.424 116.045 304.636 116.75C304.848 117.455 305.153 117.991 305.551 118.358C305.953 118.725 306.436 118.909 307 118.909Z" fill="black"/>
<path d="M47.0872 8.45455L50.0204 13.4119H50.1341L53.0815 8.45455H56.5545L52.1156 15.7273L56.6539 23H53.117L50.1341 18.0355H50.0204L47.0375 23H43.5147L48.0673 15.7273L43.6 8.45455H47.0872ZM65.0763 16.88H67.7163V19.6H65.0763V16.88ZM58.0363 15.38H74.7763V17.48H58.0363V15.38ZM59.8963 19.06H72.7563V24.76H70.0963V21.16H59.8963V19.06ZM65.0763 6.28H67.7163V9H65.0763V6.28ZM64.9163 9.2H67.2563V9.58C67.2563 12.4 64.5763 14.36 59.5363 14.72L58.7363 12.74C63.1963 12.46 64.9163 11 64.9163 9.58V9.2ZM65.5363 9.2H67.8763V9.58C67.8763 11 69.5963 12.46 74.0563 12.74L73.2563 14.72C68.1963 14.36 65.5363 12.4 65.5363 9.58V9.2ZM59.6363 7.94H73.1763V10H59.6363V7.94ZM93.8237 6.26H96.5037V15.74H93.8237V6.26ZM83.9637 16.48H96.5037V21.48H86.6237V23.72H84.0037V19.58H93.8637V18.52H83.9637V16.48ZM84.0037 22.6H97.0037V24.66H84.0037V22.6ZM81.8637 7.38H91.8437V9.42H81.8637V7.38ZM81.6437 15.42L81.3837 13.32C84.6237 13.32 88.9437 13.26 92.5237 12.82L92.6637 14.72C89.0037 15.32 84.8437 15.4 81.6437 15.42ZM83.3237 8.3H85.8637V14.36H83.3237V8.3ZM87.8037 8.3H90.3837V14.36H87.8037V8.3ZM112.362 6.24H115.002V24.82H112.362V6.24ZM109.182 12.76H112.662V14.92H109.182V12.76ZM100.302 18.48H101.782C104.842 18.48 107.122 18.44 109.742 18.02L109.982 20.14C107.302 20.56 104.902 20.64 101.782 20.64H100.302V18.48ZM100.302 7.8H108.882V9.96H102.942V19.16H100.302V7.8ZM102.342 12.96H108.242V15.04H102.342V12.96Z" fill="black"/>
<path d="M271.254 8.45455H274.698L278.015 14.7188H278.157L281.474 8.45455H284.919L279.613 17.858V23H276.559V17.858L271.254 8.45455ZM293.174 16.88H295.814V19.6H293.174V16.88ZM286.134 15.38H302.874V17.48H286.134V15.38ZM287.994 19.06H300.854V24.76H298.194V21.16H287.994V19.06ZM293.174 6.28H295.814V9H293.174V6.28ZM293.014 9.2H295.354V9.58C295.354 12.4 292.674 14.36 287.634 14.72L286.834 12.74C291.294 12.46 293.014 11 293.014 9.58V9.2ZM293.634 9.2H295.974V9.58C295.974 11 297.694 12.46 302.154 12.74L301.354 14.72C296.294 14.36 293.634 12.4 293.634 9.58V9.2ZM287.734 7.94H301.274V10H287.734V7.94ZM321.921 6.26H324.601V15.74H321.921V6.26ZM312.061 16.48H324.601V21.48H314.721V23.72H312.101V19.58H321.961V18.52H312.061V16.48ZM312.101 22.6H325.101V24.66H312.101V22.6ZM309.961 7.38H319.941V9.42H309.961V7.38ZM309.741 15.42L309.481 13.32C312.721 13.32 317.041 13.26 320.621 12.82L320.761 14.72C317.101 15.32 312.941 15.4 309.741 15.42ZM311.421 8.3H313.961V14.36H311.421V8.3ZM315.901 8.3H318.481V14.36H315.901V8.3ZM340.46 6.24H343.1V24.82H340.46V6.24ZM337.28 12.76H340.76V14.92H337.28V12.76ZM328.4 18.48H329.88C332.94 18.48 335.22 18.44 337.84 18.02L338.08 20.14C335.4 20.56 333 20.64 329.88 20.64H328.4V18.48ZM328.4 7.8H336.98V9.96H331.04V19.16H328.4V7.8ZM330.44 12.96H336.34V15.04H330.44V12.96Z" fill="black"/>
<path d="M5.44187 480.455L8.37511 485.412H8.48875L11.4362 480.455H14.9092L10.4703 487.727L15.0086 495H11.4717L8.48875 490.036H8.37511L5.39216 495H1.86943L6.42198 487.727L1.95466 480.455H5.44187ZM22.631 488.88H25.271V491.6H22.631V488.88ZM15.591 487.38H32.331V489.48H15.591V487.38ZM17.451 491.06H30.311V496.76H27.651V493.16H17.451V491.06ZM22.631 478.28H25.271V481H22.631V478.28ZM22.471 481.2H24.811V481.58C24.811 484.4 22.131 486.36 17.091 486.72L16.291 484.74C20.751 484.46 22.471 483 22.471 481.58V481.2ZM23.091 481.2H25.431V481.58C25.431 483 27.151 484.46 31.611 484.74L30.811 486.72C25.751 486.36 23.091 484.4 23.091 481.58V481.2ZM17.191 479.94H30.731V482H17.191V479.94ZM37.5584 479.18H40.1984V481.46H43.8184V479.18H46.4584V487.44H37.5584V479.18ZM40.1984 483.44V485.36H43.8184V483.44H40.1984ZM48.9384 478.26H51.5984V488.08H48.9384V478.26ZM50.5184 481.96H54.0384V484.12H50.5184V481.96ZM38.6984 494.66H39.9184C43.4184 494.66 44.6384 494.62 46.0384 494.28L46.2984 496.2C44.8184 496.56 43.5584 496.6 39.9184 496.6H38.6984V494.66ZM38.6784 488.86H44.8784V493.6H41.2784V496.1H38.6984V491.78H42.3184V490.8H38.6784V488.86ZM45.6384 488.86H51.5984V496.68H48.9784V490.94H45.6384V488.86ZM67.3768 478.26H70.0568V496.78H67.3768V478.26ZM61.9168 480.18H64.5568C64.5568 485.84 62.6368 490.48 56.0568 493.66L54.6768 491.54C59.9968 488.98 61.9168 485.62 61.9168 480.66V480.18ZM55.6568 480.18H63.1768V482.28H55.6568V480.18ZM85.1241 481.36H89.8441V483.46H85.1241V481.36ZM85.1241 485.34H89.9241V487.44H85.1241V485.34ZM88.8841 478.28H91.5441V491.94H88.8841V478.28ZM79.2841 494.34H91.9441V496.46H79.2841V494.34ZM79.2841 490.6H81.9641V495.56H79.2841V490.6ZM76.8241 479.48H79.4641V482.3H82.9841V479.48H85.5841V489.04H76.8241V479.48ZM79.4641 484.32V486.94H82.9841V484.32H79.4641ZM97.9226 489.22H100.583V492.22H97.9226V489.22ZM105.703 478.26H108.383V496.78H105.703V478.26ZM107.443 485.78H110.703V487.98H107.443V485.78ZM93.7626 493.7L93.4426 491.56C96.6426 491.56 101.043 491.54 104.783 491.02L104.983 492.94C101.083 493.7 96.8826 493.7 93.7626 493.7ZM93.7826 480.3H104.683V482.38H93.7826V480.3ZM99.2626 483.12C101.903 483.12 103.783 484.52 103.783 486.58C103.783 488.66 101.903 490.06 99.2626 490.06C96.6026 490.06 94.7426 488.66 94.7426 486.58C94.7426 484.52 96.6026 483.12 99.2626 483.12ZM99.2626 485.12C98.0426 485.12 97.2626 485.64 97.2626 486.58C97.2626 487.54 98.0426 488.06 99.2626 488.06C100.463 488.06 101.263 487.54 101.263 486.58C101.263 485.64 100.463 485.12 99.2626 485.12ZM97.9226 478.36H100.583V481.86H97.9226V478.36ZM113.201 486.52H126.221V488.64H113.201V486.52ZM111.261 492.52H128.021V494.7H111.261V492.52ZM118.281 487.48H120.941V493.22H118.281V487.48ZM113.201 479.52H126.081V481.66H115.861V487.44H113.201V479.52ZM129.914 489.169C129.914 487.408 130.149 485.786 130.618 484.304C131.091 482.822 131.813 481.449 132.784 480.185H135.674C135.305 480.653 134.962 481.226 134.645 481.903C134.327 482.576 134.05 483.314 133.814 484.119C133.577 484.924 133.392 485.758 133.26 486.619C133.127 487.476 133.061 488.326 133.061 489.169C133.061 490.291 133.174 491.425 133.402 492.571C133.634 493.712 133.946 494.773 134.339 495.753C134.737 496.733 135.182 497.536 135.674 498.161H132.784C131.813 496.896 131.091 495.523 130.618 494.041C130.149 492.559 129.914 490.935 129.914 489.169ZM146.332 485.156C146.233 484.811 146.093 484.505 145.913 484.24C145.733 483.97 145.513 483.743 145.253 483.558C144.997 483.369 144.703 483.224 144.372 483.125C144.045 483.026 143.683 482.976 143.285 482.976C142.542 482.976 141.888 483.161 141.325 483.53C140.766 483.899 140.331 484.437 140.018 485.142C139.706 485.843 139.549 486.7 139.549 487.713C139.549 488.726 139.703 489.588 140.011 490.298C140.319 491.009 140.754 491.551 141.318 491.925C141.881 492.294 142.547 492.479 143.314 492.479C144.01 492.479 144.604 492.356 145.096 492.109C145.594 491.858 145.972 491.506 146.233 491.051C146.498 490.597 146.63 490.059 146.63 489.439L147.255 489.531H143.505V487.216H149.592V489.048C149.592 490.327 149.322 491.425 148.782 492.344C148.243 493.258 147.499 493.963 146.552 494.46C145.605 494.953 144.521 495.199 143.299 495.199C141.936 495.199 140.738 494.898 139.706 494.297C138.674 493.691 137.869 492.831 137.291 491.719C136.718 490.601 136.432 489.276 136.432 487.741C136.432 486.562 136.602 485.511 136.943 484.588C137.289 483.66 137.772 482.874 138.392 482.23C139.012 481.586 139.734 481.096 140.558 480.76C141.382 480.424 142.274 480.256 143.236 480.256C144.059 480.256 144.826 480.376 145.537 480.618C146.247 480.855 146.877 481.191 147.426 481.626C147.98 482.062 148.432 482.58 148.782 483.182C149.133 483.778 149.358 484.437 149.457 485.156H146.332ZM153.574 484.091L155.577 487.905L157.629 484.091H160.733L157.572 489.545L160.818 495H157.729L155.577 491.229L153.46 495H150.335L153.574 489.545L150.449 484.091H153.574ZM166.829 489.169C166.829 490.935 166.592 492.559 166.119 494.041C165.65 495.523 164.93 496.896 163.96 498.161H161.069C161.438 497.692 161.782 497.119 162.099 496.442C162.416 495.765 162.693 495.026 162.93 494.226C163.167 493.421 163.351 492.588 163.484 491.726C163.616 490.864 163.683 490.012 163.683 489.169C163.683 488.047 163.567 486.915 163.335 485.774C163.107 484.628 162.795 483.568 162.397 482.592C162.004 481.612 161.562 480.81 161.069 480.185H163.96C164.93 481.449 165.65 482.822 166.119 484.304C166.592 485.786 166.829 487.408 166.829 489.169Z" fill="black"/>
<path d="M223.491 480.455H226.936L230.253 486.719H230.395L233.711 480.455H237.156L231.851 489.858V495H228.797V489.858L223.491 480.455ZM244.611 488.88H247.251V491.6H244.611V488.88ZM237.571 487.38H254.311V489.48H237.571V487.38ZM239.431 491.06H252.291V496.76H249.631V493.16H239.431V491.06ZM244.611 478.28H247.251V481H244.611V478.28ZM244.451 481.2H246.791V481.58C246.791 484.4 244.111 486.36 239.071 486.72L238.271 484.74C242.731 484.46 244.451 483 244.451 481.58V481.2ZM245.071 481.2H247.411V481.58C247.411 483 249.131 484.46 253.591 484.74L252.791 486.72C247.731 486.36 245.071 484.4 245.071 481.58V481.2ZM239.171 479.94H252.711V482H239.171V479.94ZM259.539 479.18H262.179V481.46H265.799V479.18H268.439V487.44H259.539V479.18ZM262.179 483.44V485.36H265.799V483.44H262.179ZM270.919 478.26H273.579V488.08H270.919V478.26ZM272.499 481.96H276.019V484.12H272.499V481.96ZM260.679 494.66H261.899C265.399 494.66 266.619 494.62 268.019 494.28L268.279 496.2C266.799 496.56 265.539 496.6 261.899 496.6H260.679V494.66ZM260.659 488.86H266.859V493.6H263.259V496.1H260.679V491.78H264.299V490.8H260.659V488.86ZM267.619 488.86H273.579V496.68H270.959V490.94H267.619V488.86ZM289.357 478.26H292.037V496.78H289.357V478.26ZM283.897 480.18H286.537C286.537 485.84 284.617 490.48 278.037 493.66L276.657 491.54C281.977 488.98 283.897 485.62 283.897 480.66V480.18ZM277.637 480.18H285.157V482.28H277.637V480.18ZM307.105 481.36H311.825V483.46H307.105V481.36ZM307.105 485.34H311.905V487.44H307.105V485.34ZM310.865 478.28H313.525V491.94H310.865V478.28ZM301.265 494.34H313.925V496.46H301.265V494.34ZM301.265 490.6H303.945V495.56H301.265V490.6ZM298.805 479.48H301.445V482.3H304.965V479.48H307.565V489.04H298.805V479.48ZM301.445 484.32V486.94H304.965V484.32H301.445ZM319.903 489.22H322.563V492.22H319.903V489.22ZM327.683 478.26H330.363V496.78H327.683V478.26ZM329.423 485.78H332.683V487.98H329.423V485.78ZM315.743 493.7L315.423 491.56C318.623 491.56 323.023 491.54 326.763 491.02L326.963 492.94C323.063 493.7 318.863 493.7 315.743 493.7ZM315.763 480.3H326.663V482.38H315.763V480.3ZM321.243 483.12C323.883 483.12 325.763 484.52 325.763 486.58C325.763 488.66 323.883 490.06 321.243 490.06C318.583 490.06 316.723 488.66 316.723 486.58C316.723 484.52 318.583 483.12 321.243 483.12ZM321.243 485.12C320.023 485.12 319.243 485.64 319.243 486.58C319.243 487.54 320.023 488.06 321.243 488.06C322.443 488.06 323.243 487.54 323.243 486.58C323.243 485.64 322.443 485.12 321.243 485.12ZM319.903 478.36H322.563V481.86H319.903V478.36ZM335.181 486.52H348.201V488.64H335.181V486.52ZM333.241 492.52H350.001V494.7H333.241V492.52ZM340.261 487.48H342.921V493.22H340.261V487.48ZM335.181 479.52H348.061V481.66H337.841V487.44H335.181V479.52ZM351.895 489.169C351.895 487.408 352.129 485.786 352.598 484.304C353.072 482.822 353.794 481.449 354.764 480.185H357.655C357.286 480.653 356.942 481.226 356.625 481.903C356.308 482.576 356.031 483.314 355.794 484.119C355.557 484.924 355.373 485.758 355.24 486.619C355.108 487.476 355.041 488.326 355.041 489.169C355.041 490.291 355.155 491.425 355.382 492.571C355.614 493.712 355.927 494.773 356.32 495.753C356.717 496.733 357.162 497.536 357.655 498.161H354.764C353.794 496.896 353.072 495.523 352.598 494.041C352.129 492.559 351.895 490.935 351.895 489.169ZM368.313 485.156C368.213 484.811 368.074 484.505 367.894 484.24C367.714 483.97 367.493 483.743 367.233 483.558C366.977 483.369 366.684 483.224 366.352 483.125C366.026 483.026 365.663 482.976 365.266 482.976C364.522 482.976 363.869 483.161 363.306 483.53C362.747 483.899 362.311 484.437 361.999 485.142C361.686 485.843 361.53 486.7 361.53 487.713C361.53 488.726 361.684 489.588 361.992 490.298C362.299 491.009 362.735 491.551 363.298 491.925C363.862 492.294 364.527 492.479 365.294 492.479C365.99 492.479 366.584 492.356 367.077 492.109C367.574 491.858 367.953 491.506 368.213 491.051C368.478 490.597 368.611 490.059 368.611 489.439L369.236 489.531H365.486V487.216H371.573V489.048C371.573 490.327 371.303 491.425 370.763 492.344C370.223 493.258 369.48 493.963 368.533 494.46C367.586 494.953 366.502 495.199 365.28 495.199C363.916 495.199 362.718 494.898 361.686 494.297C360.654 493.691 359.849 492.831 359.271 491.719C358.698 490.601 358.412 489.276 358.412 487.741C358.412 486.562 358.582 485.511 358.923 484.588C359.269 483.66 359.752 482.874 360.372 482.23C360.993 481.586 361.715 481.096 362.538 480.76C363.362 480.424 364.255 480.256 365.216 480.256C366.04 480.256 366.807 480.376 367.517 480.618C368.227 480.855 368.857 481.191 369.406 481.626C369.96 482.062 370.413 482.58 370.763 483.182C371.113 483.778 371.338 484.437 371.438 485.156H368.313ZM374.894 499.091C374.51 499.091 374.15 499.06 373.814 498.999C373.483 498.942 373.208 498.868 372.99 498.778L373.672 496.52C374.027 496.629 374.347 496.688 374.631 496.697C374.92 496.707 375.168 496.641 375.377 496.499C375.59 496.357 375.762 496.115 375.895 495.774L376.073 495.312L372.159 484.091H375.341L377.6 492.102H377.713L379.993 484.091H383.196L378.956 496.179C378.753 496.766 378.476 497.277 378.125 497.713C377.78 498.153 377.342 498.492 376.811 498.729C376.281 498.97 375.642 499.091 374.894 499.091ZM389.044 489.169C389.044 490.935 388.807 492.559 388.334 494.041C387.865 495.523 387.145 496.896 386.175 498.161H383.284C383.653 497.692 383.997 497.119 384.314 496.442C384.631 495.765 384.908 495.026 385.145 494.226C385.382 493.421 385.566 492.588 385.699 491.726C385.831 490.864 385.898 490.012 385.898 489.169C385.898 488.047 385.782 486.915 385.55 485.774C385.322 484.628 385.01 483.568 384.612 482.592C384.219 481.612 383.776 480.81 383.284 480.185H386.175C387.145 481.449 387.865 482.822 388.334 484.304C388.807 485.786 389.044 487.408 389.044 489.169Z" fill="black"/>
<path d="M69.7772 526.139C69.4268 526.139 69.1261 526.014 68.8752 525.763C68.6242 525.512 68.4988 525.211 68.4988 524.861C68.4988 524.51 68.6242 524.21 68.8752 523.959C69.1261 523.708 69.4268 523.582 69.7772 523.582C70.1275 523.582 70.4282 523.708 70.6792 523.959C70.9301 524.21 71.0556 524.51 71.0556 524.861C71.0556 525.093 70.9964 525.306 70.878 525.5C70.7644 525.694 70.6105 525.85 70.4164 525.969C70.227 526.082 70.0139 526.139 69.7772 526.139ZM69.7772 518.781C69.4268 518.781 69.1261 518.656 68.8752 518.405C68.6242 518.154 68.4988 517.853 68.4988 517.503C68.4988 517.152 68.6242 516.852 68.8752 516.601C69.1261 516.35 69.4268 516.224 69.7772 516.224C70.1275 516.224 70.4282 516.35 70.6792 516.601C70.9301 516.852 71.0556 517.152 71.0556 517.503C71.0556 517.735 70.9964 517.948 70.878 518.142C70.7644 518.336 70.6105 518.492 70.4164 518.611C70.227 518.724 70.0139 518.781 69.7772 518.781ZM84.3191 528.199C83.3437 528.199 82.4819 528.026 81.7338 527.68C80.9905 527.33 80.4105 526.849 79.9938 526.239C79.5771 525.623 79.3712 524.922 79.3759 524.136C79.3712 523.521 79.4919 522.953 79.7381 522.432C79.9843 521.906 80.3205 521.468 80.7466 521.118C81.1775 520.763 81.6581 520.538 82.1884 520.443V520.358C81.4924 520.178 80.9384 519.787 80.5265 519.186C80.1145 518.58 79.9109 517.891 79.9157 517.119C79.9109 516.381 80.098 515.72 80.4767 515.138C80.8555 514.555 81.3764 514.096 82.0392 513.76C82.7069 513.424 83.4668 513.256 84.3191 513.256C85.1619 513.256 85.9147 513.424 86.5776 513.76C87.2405 514.096 87.7613 514.555 88.1401 515.138C88.5236 515.72 88.7177 516.381 88.7225 517.119C88.7177 517.891 88.507 518.58 88.0904 519.186C87.6784 519.787 87.1316 520.178 86.4498 520.358V520.443C86.9753 520.538 87.4488 520.763 87.8702 521.118C88.2916 521.468 88.6278 521.906 88.8787 522.432C89.1297 522.953 89.2575 523.521 89.2623 524.136C89.2575 524.922 89.0444 525.623 88.623 526.239C88.2064 526.849 87.6264 527.33 86.883 527.68C86.1444 528.026 85.2897 528.199 84.3191 528.199ZM84.3191 526.636C84.9772 526.636 85.5454 526.53 86.0236 526.317C86.5018 526.104 86.8712 525.803 87.1316 525.415C87.392 525.027 87.5246 524.572 87.5293 524.051C87.5246 523.502 87.3825 523.017 87.1032 522.595C86.8238 522.174 86.4426 521.842 85.9597 521.601C85.4815 521.359 84.9346 521.239 84.3191 521.239C83.6988 521.239 83.1448 521.359 82.6571 521.601C82.1742 521.842 81.793 522.174 81.5137 522.595C81.2391 523.017 81.1041 523.502 81.1088 524.051C81.1041 524.572 81.2296 525.027 81.4853 525.415C81.7457 525.803 82.1174 526.104 82.6003 526.317C83.0833 526.53 83.6562 526.636 84.3191 526.636ZM84.3191 519.733C84.8399 519.733 85.3016 519.629 85.704 519.42C86.1112 519.212 86.4308 518.921 86.6628 518.547C86.8948 518.173 87.0132 517.735 87.0179 517.233C87.0132 516.741 86.8972 516.312 86.6699 515.947C86.4426 515.578 86.1278 515.294 85.7253 515.095C85.3229 514.892 84.8541 514.79 84.3191 514.79C83.7746 514.79 83.2987 514.892 82.8915 515.095C82.4843 515.294 82.1694 515.578 81.9469 515.947C81.7244 516.312 81.6155 516.741 81.6202 517.233C81.6155 517.735 81.7267 518.173 81.954 518.547C82.186 518.921 82.5056 519.212 82.9128 519.42C83.32 519.629 83.7888 519.733 84.3191 519.733ZM96.7285 528.199C95.6584 528.199 94.747 527.908 93.9941 527.325C93.2413 526.738 92.666 525.888 92.2683 524.776C91.8706 523.658 91.6717 522.309 91.6717 520.727C91.6717 519.155 91.8706 517.813 92.2683 516.7C92.6708 515.583 93.2484 514.731 94.0012 514.143C94.7588 513.552 95.6679 513.256 96.7285 513.256C97.7891 513.256 98.6958 513.552 99.4487 514.143C100.206 514.731 100.784 515.583 101.182 516.7C101.584 517.813 101.785 519.155 101.785 520.727C101.785 522.309 101.586 523.658 101.189 524.776C100.791 525.888 100.216 526.738 99.4629 527.325C98.71 527.908 97.7986 528.199 96.7285 528.199ZM96.7285 526.636C97.7891 526.636 98.613 526.125 99.2001 525.102C99.7872 524.08 100.081 522.621 100.081 520.727C100.081 519.468 99.9458 518.395 99.676 517.51C99.4108 516.625 99.0273 515.95 98.5254 515.486C98.0282 515.022 97.4293 514.79 96.7285 514.79C95.6774 514.79 94.8559 515.308 94.264 516.345C93.6722 517.377 93.3762 518.838 93.3762 520.727C93.3762 521.987 93.5088 523.057 93.774 523.938C94.0391 524.818 94.4203 525.488 94.9174 525.947C95.4193 526.407 96.023 526.636 96.7285 526.636Z" fill="black"/>
<path d="M115.726 641.32H118.406V645.14H115.726V641.32ZM115.706 634.72H117.826V635.14C117.826 638.24 116.166 640.94 112.646 641.88L111.446 639.84C114.406 639.06 115.706 637.12 115.706 635.14V634.72ZM116.266 634.72H118.406V635.14C118.406 637.04 119.746 638.92 122.686 639.68L121.506 641.72C117.986 640.82 116.266 638.16 116.266 635.14V634.72ZM112.006 633.44H122.146V635.54H112.006V633.44ZM115.726 631.42H118.406V634.36H115.726V631.42ZM123.786 631.24H126.446V649.82H123.786V631.24ZM111.386 646.38L111.066 644.22C114.306 644.22 118.866 644.18 122.766 643.6L122.966 645.54C118.946 646.32 114.586 646.36 111.386 646.38ZM136.404 637.9H139.044V641.22H136.404V637.9ZM129.384 640.12H146.124V642.22H129.384V640.12ZM137.724 643.24C141.744 643.24 144.144 644.42 144.144 646.52C144.144 648.62 141.744 649.78 137.724 649.78C133.704 649.78 131.284 648.62 131.284 646.52C131.284 644.42 133.704 643.24 137.724 643.24ZM137.724 645.24C135.224 645.24 133.984 645.64 133.984 646.52C133.984 647.42 135.224 647.8 137.724 647.8C140.224 647.8 141.464 647.42 141.464 646.52C141.464 645.64 140.224 645.24 137.724 645.24ZM135.924 633H138.284V633.46C138.284 636.24 135.784 638.5 131.004 638.96L130.084 636.86C134.144 636.52 135.924 634.9 135.924 633.46V633ZM137.224 633H139.584V633.46C139.584 634.9 141.344 636.52 145.424 636.86L144.504 638.96C139.744 638.5 137.224 636.26 137.224 633.46V633ZM130.904 632.02H144.624V634.12H130.904V632.02ZM152.951 632.18H155.591V634.46H159.211V632.18H161.851V640.44H152.951V632.18ZM155.591 636.44V638.36H159.211V636.44H155.591ZM164.331 631.26H166.991V641.08H164.331V631.26ZM165.911 634.96H169.431V637.12H165.911V634.96ZM154.091 647.66H155.311C158.811 647.66 160.031 647.62 161.431 647.28L161.691 649.2C160.211 649.56 158.951 649.6 155.311 649.6H154.091V647.66ZM154.071 641.86H160.271V646.6H156.671V649.1H154.091V644.78H157.711V643.8H154.071V641.86ZM161.031 641.86H166.991V649.68H164.371V643.94H161.031V641.86ZM183.57 631.26H186.25V649.78H183.57V631.26ZM178.11 633.18H180.75C180.75 638.84 178.83 643.48 172.25 646.66L170.87 644.54C176.19 641.98 178.11 638.62 178.11 633.66V633.18ZM171.85 633.18H179.37V635.28H171.85V633.18ZM202.917 634.36H207.637V636.46H202.917V634.36ZM202.917 638.34H207.717V640.44H202.917V638.34ZM206.677 631.28H209.337V644.94H206.677V631.28ZM197.077 647.34H209.737V649.46H197.077V647.34ZM197.077 643.6H199.757V648.56H197.077V643.6ZM194.617 632.48H197.257V635.3H200.777V632.48H203.377V642.04H194.617V632.48ZM197.257 637.32V639.94H200.777V637.32H197.257ZM216.516 642.22H219.176V645.22H216.516V642.22ZM224.296 631.26H226.976V649.78H224.296V631.26ZM226.036 638.78H229.296V640.98H226.036V638.78ZM212.356 646.7L212.036 644.56C215.236 644.56 219.636 644.54 223.376 644.02L223.576 645.94C219.676 646.7 215.476 646.7 212.356 646.7ZM212.376 633.3H223.276V635.38H212.376V633.3ZM217.856 636.12C220.496 636.12 222.376 637.52 222.376 639.58C222.376 641.66 220.496 643.06 217.856 643.06C215.196 643.06 213.336 641.66 213.336 639.58C213.336 637.52 215.196 636.12 217.856 636.12ZM217.856 638.12C216.636 638.12 215.856 638.64 215.856 639.58C215.856 640.54 216.636 641.06 217.856 641.06C219.056 641.06 219.856 640.54 219.856 639.58C219.856 638.64 219.056 638.12 217.856 638.12ZM216.516 631.36H219.176V634.86H216.516V631.36ZM232.594 639.52H245.614V641.64H232.594V639.52ZM230.654 645.52H247.414V647.7H230.654V645.52ZM237.674 640.48H240.334V646.22H237.674V640.48ZM232.594 632.52H245.474V634.66H235.254V640.44H232.594V632.52ZM250.107 640.727C250.107 638.966 250.342 637.344 250.811 635.862C251.284 634.38 252.006 633.007 252.977 631.743H255.867C255.498 632.212 255.155 632.785 254.838 633.462C254.52 634.134 254.243 634.873 254.007 635.678C253.77 636.482 253.585 637.316 253.453 638.178C253.32 639.035 253.254 639.884 253.254 640.727C253.254 641.849 253.367 642.983 253.595 644.129C253.827 645.27 254.139 646.331 254.532 647.311C254.93 648.291 255.375 649.094 255.867 649.719H252.977C252.006 648.455 251.284 647.081 250.811 645.599C250.342 644.117 250.107 642.493 250.107 640.727ZM267.325 638.156C267.226 637.811 267.086 637.505 266.906 637.24C266.726 636.97 266.506 636.743 266.246 636.558C265.99 636.369 265.696 636.224 265.365 636.125C265.038 636.026 264.676 635.976 264.278 635.976C263.535 635.976 262.881 636.161 262.318 636.53C261.759 636.899 261.324 637.437 261.011 638.142C260.699 638.843 260.542 639.7 260.542 640.713C260.542 641.726 260.696 642.588 261.004 643.298C261.312 644.009 261.747 644.551 262.311 644.925C262.874 645.294 263.54 645.479 264.307 645.479C265.003 645.479 265.597 645.356 266.089 645.109C266.586 644.858 266.965 644.506 267.226 644.051C267.491 643.597 267.623 643.059 267.623 642.439L268.248 642.531H264.498V640.216H270.585V642.048C270.585 643.327 270.315 644.425 269.775 645.344C269.236 646.258 268.492 646.963 267.545 647.46C266.598 647.953 265.514 648.199 264.292 648.199C262.929 648.199 261.731 647.898 260.699 647.297C259.666 646.691 258.862 645.831 258.284 644.719C257.711 643.601 257.425 642.276 257.425 640.741C257.425 639.562 257.595 638.511 257.936 637.588C258.282 636.66 258.765 635.874 259.385 635.23C260.005 634.586 260.727 634.096 261.551 633.76C262.375 633.424 263.267 633.256 264.229 633.256C265.052 633.256 265.819 633.376 266.53 633.618C267.24 633.855 267.87 634.191 268.419 634.626C268.973 635.062 269.425 635.58 269.775 636.182C270.126 636.778 270.351 637.437 270.45 638.156H267.325ZM277.938 640.727C277.938 642.493 277.701 644.117 277.227 645.599C276.759 647.081 276.039 648.455 275.068 649.719H272.178C272.547 649.25 272.89 648.677 273.208 648C273.525 647.323 273.802 646.584 274.039 645.784C274.275 644.979 274.46 644.146 274.593 643.284C274.725 642.422 274.791 641.57 274.791 640.727C274.791 639.605 274.675 638.473 274.443 637.332C274.216 636.187 273.904 635.126 273.506 634.151C273.113 633.17 272.67 632.368 272.178 631.743H275.068C276.039 633.007 276.759 634.38 277.227 635.862C277.701 637.344 277.938 638.966 277.938 640.727Z" fill="black"/>
<path d="M161.672 681.114C161.321 681.114 161.021 680.988 160.77 680.737C160.519 680.486 160.393 680.186 160.393 679.835C160.393 679.485 160.519 679.184 160.77 678.933C161.021 678.682 161.321 678.557 161.672 678.557C162.022 678.557 162.323 678.682 162.574 678.933C162.825 679.184 162.95 679.485 162.95 679.835C162.95 680.067 162.891 680.28 162.773 680.474C162.659 680.669 162.505 680.825 162.311 680.943C162.122 681.057 161.908 681.114 161.672 681.114ZM161.672 673.017C161.321 673.017 161.021 672.892 160.77 672.641C160.519 672.39 160.393 672.089 160.393 671.739C160.393 671.388 160.519 671.088 160.77 670.837C161.021 670.586 161.321 670.46 161.672 670.46C162.022 670.46 162.323 670.586 162.574 670.837C162.825 671.088 162.95 671.388 162.95 671.739C162.95 671.971 162.891 672.184 162.773 672.378C162.659 672.572 162.505 672.728 162.311 672.847C162.122 672.96 161.908 673.017 161.672 673.017ZM184.569 667.22H187.709V668.62H184.569V667.22ZM184.569 671.1H187.709V672.48H184.569V671.1ZM183.409 664.48H185.069V675.22H183.409V664.48ZM173.329 676.08H185.069V682.56H183.409V677.42H173.329V676.08ZM176.089 665.54C178.809 665.54 180.809 667.3 180.809 669.84C180.809 672.36 178.809 674.1 176.089 674.1C173.369 674.1 171.369 672.36 171.369 669.84C171.369 667.3 173.369 665.54 176.089 665.54ZM176.089 666.96C174.289 666.96 172.989 668.12 172.989 669.84C172.989 671.54 174.289 672.72 176.089 672.72C177.889 672.72 179.189 671.54 179.189 669.84C179.189 668.12 177.889 666.96 176.089 666.96ZM195.578 681V679.722L200.379 674.466C200.943 673.85 201.407 673.315 201.771 672.861C202.136 672.402 202.406 671.971 202.581 671.568C202.761 671.161 202.851 670.735 202.851 670.29C202.851 669.778 202.728 669.336 202.481 668.962C202.24 668.588 201.908 668.299 201.487 668.095C201.066 667.892 200.592 667.79 200.067 667.79C199.508 667.79 199.02 667.906 198.604 668.138C198.192 668.365 197.872 668.685 197.645 669.097C197.422 669.509 197.311 669.991 197.311 670.545H195.635C195.635 669.693 195.831 668.945 196.224 668.301C196.617 667.657 197.152 667.155 197.829 666.795C198.511 666.436 199.276 666.256 200.123 666.256C200.976 666.256 201.731 666.436 202.389 666.795C203.047 667.155 203.563 667.641 203.937 668.251C204.311 668.862 204.498 669.542 204.498 670.29C204.498 670.825 204.401 671.348 204.207 671.859C204.018 672.366 203.686 672.932 203.213 673.557C202.744 674.177 202.093 674.935 201.26 675.83L197.993 679.324V679.438H204.754V681H195.578ZM212.233 681.199C211.399 681.199 210.649 681.033 209.981 680.702C209.314 680.37 208.779 679.916 208.376 679.338C207.974 678.76 207.754 678.102 207.716 677.364H209.42C209.487 678.022 209.785 678.566 210.315 678.997C210.85 679.423 211.489 679.636 212.233 679.636C212.829 679.636 213.36 679.497 213.824 679.217C214.292 678.938 214.659 678.554 214.925 678.067C215.194 677.574 215.329 677.018 215.329 676.398C215.329 675.763 215.19 675.197 214.91 674.7C214.636 674.198 214.257 673.803 213.774 673.514C213.291 673.225 212.739 673.079 212.119 673.074C211.674 673.069 211.217 673.138 210.748 673.28C210.28 673.417 209.894 673.595 209.591 673.812L207.943 673.614L208.824 666.455H216.381V668.017H210.301L209.79 672.307H209.875C210.173 672.07 210.547 671.874 210.997 671.717C211.447 671.561 211.916 671.483 212.403 671.483C213.293 671.483 214.086 671.696 214.782 672.122C215.483 672.544 216.032 673.121 216.43 673.855C216.833 674.589 217.034 675.427 217.034 676.369C217.034 677.297 216.826 678.126 216.409 678.855C215.997 679.58 215.429 680.152 214.704 680.574C213.98 680.991 213.156 681.199 212.233 681.199ZM224.77 681.199C223.833 681.199 222.997 681.038 222.263 680.716C221.534 680.394 220.954 679.946 220.523 679.374C220.097 678.796 219.865 678.126 219.827 677.364H221.617C221.655 677.832 221.816 678.237 222.1 678.578C222.384 678.914 222.755 679.175 223.215 679.359C223.674 679.544 224.183 679.636 224.742 679.636C225.367 679.636 225.921 679.527 226.404 679.31C226.887 679.092 227.265 678.789 227.54 678.401C227.815 678.012 227.952 677.562 227.952 677.051C227.952 676.516 227.819 676.045 227.554 675.638C227.289 675.226 226.901 674.904 226.389 674.672C225.878 674.44 225.253 674.324 224.514 674.324H223.35V672.761H224.514C225.092 672.761 225.599 672.657 226.034 672.449C226.475 672.241 226.818 671.947 227.064 671.568C227.315 671.189 227.441 670.744 227.441 670.233C227.441 669.741 227.332 669.312 227.114 668.947C226.896 668.583 226.588 668.299 226.191 668.095C225.798 667.892 225.334 667.79 224.798 667.79C224.297 667.79 223.823 667.882 223.378 668.067C222.938 668.247 222.578 668.509 222.298 668.855C222.019 669.196 221.868 669.608 221.844 670.091H220.139C220.168 669.329 220.397 668.661 220.828 668.088C221.259 667.51 221.823 667.061 222.519 666.739C223.219 666.417 223.989 666.256 224.827 666.256C225.727 666.256 226.498 666.438 227.142 666.803C227.786 667.162 228.281 667.638 228.627 668.23C228.972 668.822 229.145 669.461 229.145 670.148C229.145 670.967 228.93 671.665 228.499 672.243C228.073 672.821 227.493 673.221 226.759 673.443V673.557C227.677 673.708 228.395 674.099 228.911 674.729C229.427 675.354 229.685 676.128 229.685 677.051C229.685 677.842 229.469 678.552 229.039 679.182C228.612 679.807 228.03 680.299 227.291 680.659C226.553 681.019 225.712 681.199 224.77 681.199Z" fill="black"/>
<path d="M285.625 526.139C285.274 526.139 284.974 526.014 284.723 525.763C284.472 525.512 284.346 525.211 284.346 524.861C284.346 524.51 284.472 524.21 284.723 523.959C284.974 523.708 285.274 523.582 285.625 523.582C285.975 523.582 286.276 523.708 286.527 523.959C286.778 524.21 286.903 524.51 286.903 524.861C286.903 525.093 286.844 525.306 286.726 525.5C286.612 525.694 286.458 525.85 286.264 525.969C286.075 526.082 285.862 526.139 285.625 526.139ZM285.625 518.781C285.274 518.781 284.974 518.656 284.723 518.405C284.472 518.154 284.346 517.853 284.346 517.503C284.346 517.152 284.472 516.852 284.723 516.601C284.974 516.35 285.274 516.224 285.625 516.224C285.975 516.224 286.276 516.35 286.527 516.601C286.778 516.852 286.903 517.152 286.903 517.503C286.903 517.735 286.844 517.948 286.726 518.142C286.612 518.336 286.458 518.492 286.264 518.611C286.075 518.724 285.862 518.781 285.625 518.781ZM295.508 528V526.722L300.309 521.466C300.872 520.85 301.336 520.315 301.701 519.861C302.065 519.402 302.335 518.971 302.51 518.568C302.69 518.161 302.78 517.735 302.78 517.29C302.78 516.778 302.657 516.336 302.411 515.962C302.17 515.588 301.838 515.299 301.417 515.095C300.995 514.892 300.522 514.79 299.996 514.79C299.438 514.79 298.95 514.906 298.533 515.138C298.121 515.365 297.802 515.685 297.574 516.097C297.352 516.509 297.241 516.991 297.241 517.545H295.564C295.564 516.693 295.761 515.945 296.154 515.301C296.547 514.657 297.082 514.155 297.759 513.795C298.441 513.436 299.206 513.256 300.053 513.256C300.905 513.256 301.661 513.436 302.319 513.795C302.977 514.155 303.493 514.641 303.867 515.251C304.241 515.862 304.428 516.542 304.428 517.29C304.428 517.825 304.331 518.348 304.137 518.859C303.948 519.366 303.616 519.932 303.143 520.557C302.674 521.177 302.023 521.935 301.189 522.83L297.922 526.324V526.438H304.684V528H295.508ZM306.964 525.017V523.568L313.356 513.455H314.407V515.699H313.697L308.867 523.341V523.455H317.475V525.017H306.964ZM313.81 528V524.577V523.902V513.455H315.486V528H313.81ZM324.881 528.199C323.811 528.199 322.899 527.908 322.146 527.325C321.394 526.738 320.818 525.888 320.421 524.776C320.023 523.658 319.824 522.309 319.824 520.727C319.824 519.155 320.023 517.813 320.421 516.7C320.823 515.583 321.401 514.731 322.154 514.143C322.911 513.552 323.82 513.256 324.881 513.256C325.941 513.256 326.848 513.552 327.601 514.143C328.359 514.731 328.936 515.583 329.334 516.7C329.736 517.813 329.938 519.155 329.938 520.727C329.938 522.309 329.739 523.658 329.341 524.776C328.943 525.888 328.368 526.738 327.615 527.325C326.862 527.908 325.951 528.199 324.881 528.199ZM324.881 526.636C325.941 526.636 326.765 526.125 327.352 525.102C327.94 524.08 328.233 522.621 328.233 520.727C328.233 519.468 328.098 518.395 327.828 517.51C327.563 516.625 327.18 515.95 326.678 515.486C326.181 515.022 325.582 514.79 324.881 514.79C323.83 514.79 323.008 515.308 322.416 516.345C321.825 517.377 321.529 518.838 321.529 520.727C321.529 521.987 321.661 523.057 321.926 523.938C322.191 524.818 322.573 525.488 323.07 525.947C323.572 526.407 324.175 526.636 324.881 526.636Z" fill="black"/>
</svg>
