<svg width="429" height="254" viewBox="0 0 429 254" fill="none" xmlns="http://www.w3.org/2000/svg">
<rect x="1" y="137" width="40" height="40" fill="#EFEFEF" stroke="#AFAFAF" stroke-width="2"/>
<rect x="40" y="137" width="40" height="40" fill="#EFEFEF" stroke="#AFAFAF" stroke-width="2"/>
<rect x="78" y="137" width="40" height="40" fill="#EFEFEF" stroke="#AFAFAF" stroke-width="2"/>
<rect x="1" y="213" width="40" height="40" fill="#EFEFEF" stroke="#AFAFAF" stroke-width="2"/>
<rect x="40" y="213" width="40" height="40" fill="#EFEFEF" stroke="#AFAFAF" stroke-width="2"/>
<rect x="78" y="213" width="40" height="40" fill="#EFEFEF" stroke="#AFAFAF" stroke-width="2"/>
<rect x="1" y="175" width="40" height="40" fill="#EFEFEF" stroke="#AFAFAF" stroke-width="2"/>
<rect x="40" y="175" width="40" height="40" fill="#EFEFEF" stroke="#AFAFAF" stroke-width="2"/>
<rect x="78" y="175" width="40" height="40" fill="#EFEFEF" stroke="#AFAFAF" stroke-width="2"/>
<path d="M14.3288 156.557V157.807H9.23793V156.557H14.3288ZM20.7564 151.364V163H19.3473V152.841H19.2791L16.4382 154.727V153.295L19.3473 151.364H20.7564ZM27.8984 163.159C27.0424 163.159 26.3132 162.926 25.7109 162.46C25.1087 161.991 24.6484 161.311 24.3303 160.42C24.0121 159.527 23.853 158.447 23.853 157.182C23.853 155.924 24.0121 154.85 24.3303 153.96C24.6522 153.066 25.1143 152.384 25.7166 151.915C26.3227 151.441 27.05 151.205 27.8984 151.205C28.7469 151.205 29.4723 151.441 30.0746 151.915C30.6806 152.384 31.1428 153.066 31.4609 153.96C31.7829 154.85 31.9439 155.924 31.9439 157.182C31.9439 158.447 31.7848 159.527 31.4666 160.42C31.1484 161.311 30.6882 161.991 30.0859 162.46C29.4837 162.926 28.7545 163.159 27.8984 163.159ZM27.8984 161.909C28.7469 161.909 29.406 161.5 29.8757 160.682C30.3454 159.864 30.5803 158.697 30.5803 157.182C30.5803 156.174 30.4723 155.316 30.2564 154.608C30.0443 153.9 29.7375 153.36 29.3359 152.989C28.9382 152.617 28.459 152.432 27.8984 152.432C27.0575 152.432 26.4003 152.847 25.9268 153.676C25.4534 154.502 25.2166 155.67 25.2166 157.182C25.2166 158.189 25.3227 159.045 25.5348 159.75C25.7469 160.455 26.0518 160.991 26.4496 161.358C26.8511 161.725 27.334 161.909 27.8984 161.909Z" fill="black"/>
<path d="M17.6804 232.557V233.807H12.5895V232.557H17.6804ZM23.6534 239.159C22.9867 239.159 22.3864 239.027 21.8523 238.761C21.3182 238.496 20.8902 238.133 20.5682 237.67C20.2462 237.208 20.0701 236.682 20.0398 236.091H21.4034C21.4564 236.617 21.6951 237.053 22.1193 237.398C22.5473 237.739 23.0587 237.909 23.6534 237.909C24.1307 237.909 24.5549 237.797 24.9261 237.574C25.3011 237.35 25.5947 237.044 25.8068 236.653C26.0227 236.259 26.1307 235.814 26.1307 235.318C26.1307 234.811 26.0189 234.358 25.7955 233.96C25.5758 233.559 25.2727 233.242 24.8864 233.011C24.5 232.78 24.0587 232.663 23.5625 232.659C23.2064 232.655 22.8409 232.71 22.4659 232.824C22.0909 232.934 21.7822 233.076 21.5398 233.25L20.2216 233.091L20.9261 227.364H26.9716V228.614H22.108L21.6989 232.045H21.767C22.0057 231.856 22.3049 231.699 22.6648 231.574C23.0246 231.449 23.3996 231.386 23.7898 231.386C24.5019 231.386 25.1364 231.557 25.6932 231.898C26.2538 232.235 26.6932 232.697 27.0114 233.284C27.3333 233.871 27.4943 234.542 27.4943 235.295C27.4943 236.038 27.3277 236.701 26.9943 237.284C26.6648 237.864 26.2102 238.322 25.6307 238.659C25.0511 238.992 24.392 239.159 23.6534 239.159Z" fill="black"/>
<path d="M17.6179 194.557V195.807H12.527V194.557H17.6179ZM23.6818 201.159C22.9015 201.159 22.2121 201.021 21.6136 200.744C21.0189 200.464 20.5549 200.08 20.2216 199.591C19.8883 199.098 19.7235 198.538 19.7273 197.909C19.7235 197.417 19.8201 196.962 20.017 196.545C20.214 196.125 20.483 195.775 20.8239 195.494C21.1686 195.21 21.553 195.03 21.9773 194.955V194.886C21.4205 194.742 20.9773 194.43 20.6477 193.949C20.3182 193.464 20.1553 192.913 20.1591 192.295C20.1553 191.705 20.3049 191.176 20.608 190.71C20.911 190.244 21.3277 189.877 21.858 189.608C22.392 189.339 23 189.205 23.6818 189.205C24.3561 189.205 24.9583 189.339 25.4886 189.608C26.0189 189.877 26.4356 190.244 26.7386 190.71C27.0455 191.176 27.2008 191.705 27.2045 192.295C27.2008 192.913 27.0322 193.464 26.6989 193.949C26.3693 194.43 25.9318 194.742 25.3864 194.886V194.955C25.8068 195.03 26.1856 195.21 26.5227 195.494C26.8598 195.775 27.1288 196.125 27.3295 196.545C27.5303 196.962 27.6326 197.417 27.6364 197.909C27.6326 198.538 27.4621 199.098 27.125 199.591C26.7917 200.08 26.3277 200.464 25.733 200.744C25.142 201.021 24.4583 201.159 23.6818 201.159ZM23.6818 199.909C24.2083 199.909 24.6629 199.824 25.0455 199.653C25.428 199.483 25.7235 199.242 25.9318 198.932C26.1402 198.621 26.2462 198.258 26.25 197.841C26.2462 197.402 26.1326 197.013 25.9091 196.676C25.6856 196.339 25.3807 196.074 24.9943 195.881C24.6117 195.687 24.1742 195.591 23.6818 195.591C23.1856 195.591 22.7424 195.687 22.3523 195.881C21.9659 196.074 21.661 196.339 21.4375 196.676C21.2178 197.013 21.1098 197.402 21.1136 197.841C21.1098 198.258 21.2102 198.621 21.4148 198.932C21.6231 199.242 21.9205 199.483 22.3068 199.653C22.6932 199.824 23.1515 199.909 23.6818 199.909ZM23.6818 194.386C24.0985 194.386 24.4678 194.303 24.7898 194.136C25.1155 193.97 25.3712 193.737 25.5568 193.438C25.7424 193.138 25.8371 192.788 25.8409 192.386C25.8371 191.992 25.7443 191.65 25.5625 191.358C25.3807 191.062 25.1288 190.835 24.8068 190.676C24.4848 190.513 24.1098 190.432 23.6818 190.432C23.2462 190.432 22.8655 190.513 22.5398 190.676C22.214 190.835 21.9621 191.062 21.7841 191.358C21.6061 191.65 21.5189 191.992 21.5227 192.386C21.5189 192.788 21.608 193.138 21.7898 193.438C21.9754 193.737 22.2311 193.97 22.5568 194.136C22.8826 194.303 23.2576 194.386 23.6818 194.386Z" fill="black"/>
<path d="M98 163.159C97.1439 163.159 96.4148 162.926 95.8125 162.46C95.2102 161.991 94.75 161.311 94.4318 160.42C94.1136 159.527 93.9545 158.447 93.9545 157.182C93.9545 155.924 94.1136 154.85 94.4318 153.96C94.7538 153.066 95.2159 152.384 95.8182 151.915C96.4242 151.441 97.1515 151.205 98 151.205C98.8485 151.205 99.5739 151.441 100.176 151.915C100.782 152.384 101.244 153.066 101.562 153.96C101.884 154.85 102.045 155.924 102.045 157.182C102.045 158.447 101.886 159.527 101.568 160.42C101.25 161.311 100.79 161.991 100.188 162.46C99.5852 162.926 98.8561 163.159 98 163.159ZM98 161.909C98.8485 161.909 99.5076 161.5 99.9773 160.682C100.447 159.864 100.682 158.697 100.682 157.182C100.682 156.174 100.574 155.316 100.358 154.608C100.146 153.9 99.839 153.36 99.4375 152.989C99.0398 152.617 98.5606 152.432 98 152.432C97.1591 152.432 96.5019 152.847 96.0284 153.676C95.5549 154.502 95.3182 155.67 95.3182 157.182C95.3182 158.189 95.4242 159.045 95.6364 159.75C95.8485 160.455 96.1534 160.991 96.5511 161.358C96.9527 161.725 97.4356 161.909 98 161.909Z" fill="black"/>
<path d="M98 239.159C97.1439 239.159 96.4148 238.926 95.8125 238.46C95.2102 237.991 94.75 237.311 94.4318 236.42C94.1136 235.527 93.9545 234.447 93.9545 233.182C93.9545 231.924 94.1136 230.85 94.4318 229.96C94.7538 229.066 95.2159 228.384 95.8182 227.915C96.4242 227.441 97.1515 227.205 98 227.205C98.8485 227.205 99.5739 227.441 100.176 227.915C100.782 228.384 101.244 229.066 101.562 229.96C101.884 230.85 102.045 231.924 102.045 233.182C102.045 234.447 101.886 235.527 101.568 236.42C101.25 237.311 100.79 237.991 100.188 238.46C99.5852 238.926 98.8561 239.159 98 239.159ZM98 237.909C98.8485 237.909 99.5076 237.5 99.9773 236.682C100.447 235.864 100.682 234.697 100.682 233.182C100.682 232.174 100.574 231.316 100.358 230.608C100.146 229.9 99.839 229.36 99.4375 228.989C99.0398 228.617 98.5606 228.432 98 228.432C97.1591 228.432 96.5019 228.847 96.0284 229.676C95.5549 230.502 95.3182 231.67 95.3182 233.182C95.3182 234.189 95.4242 235.045 95.6364 235.75C95.8485 236.455 96.1534 236.991 96.5511 237.358C96.9527 237.725 97.4356 237.909 98 237.909Z" fill="black"/>
<path d="M98 201.159C97.1439 201.159 96.4148 200.926 95.8125 200.46C95.2102 199.991 94.75 199.311 94.4318 198.42C94.1136 197.527 93.9545 196.447 93.9545 195.182C93.9545 193.924 94.1136 192.85 94.4318 191.96C94.7538 191.066 95.2159 190.384 95.8182 189.915C96.4242 189.441 97.1515 189.205 98 189.205C98.8485 189.205 99.5739 189.441 100.176 189.915C100.782 190.384 101.244 191.066 101.562 191.96C101.884 192.85 102.045 193.924 102.045 195.182C102.045 196.447 101.886 197.527 101.568 198.42C101.25 199.311 100.79 199.991 100.188 200.46C99.5852 200.926 98.8561 201.159 98 201.159ZM98 199.909C98.8485 199.909 99.5076 199.5 99.9773 198.682C100.447 197.864 100.682 196.697 100.682 195.182C100.682 194.174 100.574 193.316 100.358 192.608C100.146 191.9 99.839 191.36 99.4375 190.989C99.0398 190.617 98.5606 190.432 98 190.432C97.1591 190.432 96.5019 190.847 96.0284 191.676C95.5549 192.502 95.3182 193.67 95.3182 195.182C95.3182 196.189 95.4242 197.045 95.6364 197.75C95.8485 198.455 96.1534 198.991 96.5511 199.358C96.9527 199.725 97.4356 199.909 98 199.909Z" fill="black"/>
<path d="M52.4773 156.557V157.807H47.3864V156.557H52.4773ZM54.267 163V161.977L58.108 157.773C58.5587 157.28 58.9299 156.852 59.2216 156.489C59.5133 156.121 59.7292 155.777 59.8693 155.455C60.0133 155.129 60.0852 154.788 60.0852 154.432C60.0852 154.023 59.9867 153.669 59.7898 153.369C59.5966 153.07 59.3314 152.839 58.9943 152.676C58.6572 152.513 58.2784 152.432 57.858 152.432C57.411 152.432 57.0208 152.525 56.6875 152.71C56.358 152.892 56.1023 153.148 55.9205 153.477C55.7424 153.807 55.6534 154.193 55.6534 154.636H54.3125C54.3125 153.955 54.4697 153.356 54.7841 152.841C55.0985 152.326 55.5265 151.924 56.0682 151.636C56.6136 151.348 57.2254 151.205 57.9034 151.205C58.5852 151.205 59.1894 151.348 59.7159 151.636C60.2424 151.924 60.6553 152.312 60.9545 152.801C61.2538 153.29 61.4034 153.833 61.4034 154.432C61.4034 154.86 61.3258 155.278 61.1705 155.688C61.0189 156.093 60.7538 156.545 60.375 157.045C60 157.542 59.4792 158.148 58.8125 158.864L56.1989 161.659V161.75H61.608V163H54.267ZM67.75 163.159C66.8939 163.159 66.1648 162.926 65.5625 162.46C64.9602 161.991 64.5 161.311 64.1818 160.42C63.8636 159.527 63.7045 158.447 63.7045 157.182C63.7045 155.924 63.8636 154.85 64.1818 153.96C64.5038 153.066 64.9659 152.384 65.5682 151.915C66.1742 151.441 66.9015 151.205 67.75 151.205C68.5985 151.205 69.3239 151.441 69.9261 151.915C70.5322 152.384 70.9943 153.066 71.3125 153.96C71.6345 154.85 71.7955 155.924 71.7955 157.182C71.7955 158.447 71.6364 159.527 71.3182 160.42C71 161.311 70.5398 161.991 69.9375 162.46C69.3352 162.926 68.6061 163.159 67.75 163.159ZM67.75 161.909C68.5985 161.909 69.2576 161.5 69.7273 160.682C70.197 159.864 70.4318 158.697 70.4318 157.182C70.4318 156.174 70.3239 155.316 70.108 154.608C69.8958 153.9 69.589 153.36 69.1875 152.989C68.7898 152.617 68.3106 152.432 67.75 152.432C66.9091 152.432 66.2519 152.847 65.7784 153.676C65.3049 154.502 65.0682 155.67 65.0682 157.182C65.0682 158.189 65.1742 159.045 65.3864 159.75C65.5985 160.455 65.9034 160.991 66.3011 161.358C66.7027 161.725 67.1856 161.909 67.75 161.909Z" fill="black"/>
<rect x="1" y="57" width="40" height="40" fill="#EFEFEF" stroke="#AFAFAF" stroke-width="2"/>
<rect x="40" y="57" width="40" height="40" fill="#EFEFEF" stroke="#AFAFAF" stroke-width="2"/>
<rect x="78" y="57" width="40" height="40" fill="#EFEFEF" stroke="#AFAFAF" stroke-width="2"/>
<path d="M17.6804 76.5568V77.8068H12.5895V76.5568H17.6804ZM23.6534 83.1591C22.9867 83.1591 22.3864 83.0265 21.8523 82.7614C21.3182 82.4962 20.8902 82.1326 20.5682 81.6705C20.2462 81.2083 20.0701 80.6818 20.0398 80.0909H21.4034C21.4564 80.6174 21.6951 81.053 22.1193 81.3977C22.5473 81.7386 23.0587 81.9091 23.6534 81.9091C24.1307 81.9091 24.5549 81.7973 24.9261 81.5739C25.3011 81.3504 25.5947 81.0436 25.8068 80.6534C26.0227 80.2595 26.1307 79.8144 26.1307 79.3182C26.1307 78.8106 26.0189 78.358 25.7955 77.9602C25.5758 77.5587 25.2727 77.2424 24.8864 77.0114C24.5 76.7803 24.0587 76.6629 23.5625 76.6591C23.2064 76.6553 22.8409 76.7102 22.4659 76.8239C22.0909 76.9337 21.7822 77.0758 21.5398 77.25L20.2216 77.0909L20.9261 71.3636H26.9716V72.6136H22.108L21.6989 76.0455H21.767C22.0057 75.8561 22.3049 75.6989 22.6648 75.5739C23.0246 75.4489 23.3996 75.3864 23.7898 75.3864C24.5019 75.3864 25.1364 75.5568 25.6932 75.8977C26.2538 76.2348 26.6932 76.697 27.0114 77.2841C27.3333 77.8712 27.4943 78.5417 27.4943 79.2955C27.4943 80.0379 27.3277 80.7008 26.9943 81.2841C26.6648 81.8636 26.2102 82.322 25.6307 82.6591C25.0511 82.9924 24.392 83.1591 23.6534 83.1591Z" fill="black"/>
<path d="M98 83.1591C97.1439 83.1591 96.4148 82.9261 95.8125 82.4602C95.2102 81.9905 94.75 81.3106 94.4318 80.4205C94.1136 79.5265 93.9545 78.447 93.9545 77.1818C93.9545 75.9242 94.1136 74.8504 94.4318 73.9602C94.7538 73.0663 95.2159 72.3845 95.8182 71.9148C96.4242 71.4413 97.1515 71.2045 98 71.2045C98.8485 71.2045 99.5739 71.4413 100.176 71.9148C100.782 72.3845 101.244 73.0663 101.562 73.9602C101.884 74.8504 102.045 75.9242 102.045 77.1818C102.045 78.447 101.886 79.5265 101.568 80.4205C101.25 81.3106 100.79 81.9905 100.188 82.4602C99.5852 82.9261 98.8561 83.1591 98 83.1591ZM98 81.9091C98.8485 81.9091 99.5076 81.5 99.9773 80.6818C100.447 79.8636 100.682 78.697 100.682 77.1818C100.682 76.1742 100.574 75.3163 100.358 74.608C100.146 73.8996 99.839 73.3598 99.4375 72.9886C99.0398 72.6174 98.5606 72.4318 98 72.4318C97.1591 72.4318 96.5019 72.8466 96.0284 73.6761C95.5549 74.5019 95.3182 75.6705 95.3182 77.1818C95.3182 78.1894 95.4242 79.0455 95.6364 79.75C95.8485 80.4545 96.1534 80.9905 96.5511 81.358C96.9527 81.7254 97.4356 81.9091 98 81.9091Z" fill="black"/>
<path d="M56.4148 76.5568V77.8068H51.3239V76.5568H56.4148ZM58.4787 80.6136V79.4545L63.5923 71.3636H64.4332V73.1591H63.8651L60.0014 79.2727V79.3636H66.8878V80.6136H58.4787ZM63.956 83V80.2614V79.7216V71.3636H65.2969V83H63.956Z" fill="black"/>
<rect x="1" y="97" width="40" height="40" fill="#EFEFEF" stroke="#AFAFAF" stroke-width="2"/>
<rect x="40" y="97" width="40" height="40" fill="#EFEFEF" stroke="#AFAFAF" stroke-width="2"/>
<rect x="78" y="97" width="40" height="40" fill="#EFEFEF" stroke="#AFAFAF" stroke-width="2"/>
<path d="M17.6179 116.557V117.807H12.527V116.557H17.6179ZM23.6818 123.159C22.9015 123.159 22.2121 123.021 21.6136 122.744C21.0189 122.464 20.5549 122.08 20.2216 121.591C19.8883 121.098 19.7235 120.538 19.7273 119.909C19.7235 119.417 19.8201 118.962 20.017 118.545C20.214 118.125 20.483 117.775 20.8239 117.494C21.1686 117.21 21.553 117.03 21.9773 116.955V116.886C21.4205 116.742 20.9773 116.43 20.6477 115.949C20.3182 115.464 20.1553 114.913 20.1591 114.295C20.1553 113.705 20.3049 113.176 20.608 112.71C20.911 112.244 21.3277 111.877 21.858 111.608C22.392 111.339 23 111.205 23.6818 111.205C24.3561 111.205 24.9583 111.339 25.4886 111.608C26.0189 111.877 26.4356 112.244 26.7386 112.71C27.0455 113.176 27.2008 113.705 27.2045 114.295C27.2008 114.913 27.0322 115.464 26.6989 115.949C26.3693 116.43 25.9318 116.742 25.3864 116.886V116.955C25.8068 117.03 26.1856 117.21 26.5227 117.494C26.8598 117.775 27.1288 118.125 27.3295 118.545C27.5303 118.962 27.6326 119.417 27.6364 119.909C27.6326 120.538 27.4621 121.098 27.125 121.591C26.7917 122.08 26.3277 122.464 25.733 122.744C25.142 123.021 24.4583 123.159 23.6818 123.159ZM23.6818 121.909C24.2083 121.909 24.6629 121.824 25.0455 121.653C25.428 121.483 25.7235 121.242 25.9318 120.932C26.1402 120.621 26.2462 120.258 26.25 119.841C26.2462 119.402 26.1326 119.013 25.9091 118.676C25.6856 118.339 25.3807 118.074 24.9943 117.881C24.6117 117.687 24.1742 117.591 23.6818 117.591C23.1856 117.591 22.7424 117.687 22.3523 117.881C21.9659 118.074 21.661 118.339 21.4375 118.676C21.2178 119.013 21.1098 119.402 21.1136 119.841C21.1098 120.258 21.2102 120.621 21.4148 120.932C21.6231 121.242 21.9205 121.483 22.3068 121.653C22.6932 121.824 23.1515 121.909 23.6818 121.909ZM23.6818 116.386C24.0985 116.386 24.4678 116.303 24.7898 116.136C25.1155 115.97 25.3712 115.737 25.5568 115.438C25.7424 115.138 25.8371 114.788 25.8409 114.386C25.8371 113.992 25.7443 113.65 25.5625 113.358C25.3807 113.062 25.1288 112.835 24.8068 112.676C24.4848 112.513 24.1098 112.432 23.6818 112.432C23.2462 112.432 22.8655 112.513 22.5398 112.676C22.214 112.835 21.9621 113.062 21.7841 113.358C21.6061 113.65 21.5189 113.992 21.5227 114.386C21.5189 114.788 21.608 115.138 21.7898 115.438C21.9754 115.737 22.2311 115.97 22.5568 116.136C22.8826 116.303 23.2576 116.386 23.6818 116.386Z" fill="black"/>
<path d="M98 123.159C97.1439 123.159 96.4148 122.926 95.8125 122.46C95.2102 121.991 94.75 121.311 94.4318 120.42C94.1136 119.527 93.9545 118.447 93.9545 117.182C93.9545 115.924 94.1136 114.85 94.4318 113.96C94.7538 113.066 95.2159 112.384 95.8182 111.915C96.4242 111.441 97.1515 111.205 98 111.205C98.8485 111.205 99.5739 111.441 100.176 111.915C100.782 112.384 101.244 113.066 101.562 113.96C101.884 114.85 102.045 115.924 102.045 117.182C102.045 118.447 101.886 119.527 101.568 120.42C101.25 121.311 100.79 121.991 100.188 122.46C99.5852 122.926 98.8561 123.159 98 123.159ZM98 121.909C98.8485 121.909 99.5076 121.5 99.9773 120.682C100.447 119.864 100.682 118.697 100.682 117.182C100.682 116.174 100.574 115.316 100.358 114.608C100.146 113.9 99.839 113.36 99.4375 112.989C99.0398 112.617 98.5606 112.432 98 112.432C97.1591 112.432 96.5019 112.847 96.0284 113.676C95.5549 114.502 95.3182 115.67 95.3182 117.182C95.3182 118.189 95.4242 119.045 95.6364 119.75C95.8485 120.455 96.1534 120.991 96.5511 121.358C96.9527 121.725 97.4356 121.909 98 121.909Z" fill="black"/>
<rect x="158" y="137" width="40" height="40" fill="#EFEFEF" stroke="#AFAFAF" stroke-width="2"/>
<rect x="158" y="213" width="40" height="40" fill="#EFEFEF" stroke="#AFAFAF" stroke-width="2"/>
<rect x="158" y="175" width="40" height="40" fill="#EFEFEF" stroke="#AFAFAF" stroke-width="2"/>
<path d="M174.577 151.364V163H173.168V152.841H173.099L170.259 154.727V153.295L173.168 151.364H174.577ZM181.719 163.159C180.863 163.159 180.134 162.926 179.531 162.46C178.929 161.991 178.469 161.311 178.151 160.42C177.832 159.527 177.673 158.447 177.673 157.182C177.673 155.924 177.832 154.85 178.151 153.96C178.473 153.066 178.935 152.384 179.537 151.915C180.143 151.441 180.87 151.205 181.719 151.205C182.567 151.205 183.293 151.441 183.895 151.915C184.501 152.384 184.963 153.066 185.281 153.96C185.603 154.85 185.764 155.924 185.764 157.182C185.764 158.447 185.605 159.527 185.287 160.42C184.969 161.311 184.509 161.991 183.906 162.46C183.304 162.926 182.575 163.159 181.719 163.159ZM181.719 161.909C182.567 161.909 183.226 161.5 183.696 160.682C184.166 159.864 184.401 158.697 184.401 157.182C184.401 156.174 184.293 155.316 184.077 154.608C183.865 153.9 183.558 153.36 183.156 152.989C182.759 152.617 182.279 152.432 181.719 152.432C180.878 152.432 180.221 152.847 179.747 153.676C179.274 154.502 179.037 155.67 179.037 157.182C179.037 158.189 179.143 159.045 179.355 159.75C179.567 160.455 179.872 160.991 180.27 161.358C180.671 161.725 181.154 161.909 181.719 161.909Z" fill="black"/>
<path d="M177.974 239.159C177.307 239.159 176.707 239.027 176.173 238.761C175.638 238.496 175.21 238.133 174.888 237.67C174.567 237.208 174.39 236.682 174.36 236.091H175.724C175.777 236.617 176.015 237.053 176.44 237.398C176.868 237.739 177.379 237.909 177.974 237.909C178.451 237.909 178.875 237.797 179.246 237.574C179.621 237.35 179.915 237.044 180.127 236.653C180.343 236.259 180.451 235.814 180.451 235.318C180.451 234.811 180.339 234.358 180.116 233.96C179.896 233.559 179.593 233.242 179.207 233.011C178.82 232.78 178.379 232.663 177.883 232.659C177.527 232.655 177.161 232.71 176.786 232.824C176.411 232.934 176.103 233.076 175.86 233.25L174.542 233.091L175.246 227.364H181.292V228.614H176.428L176.019 232.045H176.087C176.326 231.856 176.625 231.699 176.985 231.574C177.345 231.449 177.72 231.386 178.11 231.386C178.822 231.386 179.457 231.557 180.013 231.898C180.574 232.235 181.013 232.697 181.332 233.284C181.654 233.871 181.815 234.542 181.815 235.295C181.815 236.038 181.648 236.701 181.315 237.284C180.985 237.864 180.531 238.322 179.951 238.659C179.371 238.992 178.712 239.159 177.974 239.159Z" fill="black"/>
<path d="M178.002 201.159C177.222 201.159 176.532 201.021 175.934 200.744C175.339 200.464 174.875 200.08 174.542 199.591C174.209 199.098 174.044 198.538 174.048 197.909C174.044 197.417 174.14 196.962 174.337 196.545C174.534 196.125 174.803 195.775 175.144 195.494C175.489 195.21 175.873 195.03 176.298 194.955V194.886C175.741 194.742 175.298 194.43 174.968 193.949C174.638 193.464 174.476 192.913 174.479 192.295C174.476 191.705 174.625 191.176 174.928 190.71C175.231 190.244 175.648 189.877 176.178 189.608C176.712 189.339 177.32 189.205 178.002 189.205C178.676 189.205 179.279 189.339 179.809 189.608C180.339 189.877 180.756 190.244 181.059 190.71C181.366 191.176 181.521 191.705 181.525 192.295C181.521 192.913 181.353 193.464 181.019 193.949C180.69 194.43 180.252 194.742 179.707 194.886V194.955C180.127 195.03 180.506 195.21 180.843 195.494C181.18 195.775 181.449 196.125 181.65 196.545C181.851 196.962 181.953 197.417 181.957 197.909C181.953 198.538 181.782 199.098 181.445 199.591C181.112 200.08 180.648 200.464 180.053 200.744C179.462 201.021 178.779 201.159 178.002 201.159ZM178.002 199.909C178.529 199.909 178.983 199.824 179.366 199.653C179.748 199.483 180.044 199.242 180.252 198.932C180.46 198.621 180.567 198.258 180.57 197.841C180.567 197.402 180.453 197.013 180.229 196.676C180.006 196.339 179.701 196.074 179.315 195.881C178.932 195.687 178.495 195.591 178.002 195.591C177.506 195.591 177.063 195.687 176.673 195.881C176.286 196.074 175.981 196.339 175.758 196.676C175.538 197.013 175.43 197.402 175.434 197.841C175.43 198.258 175.531 198.621 175.735 198.932C175.943 199.242 176.241 199.483 176.627 199.653C177.013 199.824 177.472 199.909 178.002 199.909ZM178.002 194.386C178.419 194.386 178.788 194.303 179.11 194.136C179.436 193.97 179.692 193.737 179.877 193.438C180.063 193.138 180.157 192.788 180.161 192.386C180.157 191.992 180.065 191.65 179.883 191.358C179.701 191.062 179.449 190.835 179.127 190.676C178.805 190.513 178.43 190.432 178.002 190.432C177.567 190.432 177.186 190.513 176.86 190.676C176.534 190.835 176.282 191.062 176.104 191.358C175.926 191.65 175.839 191.992 175.843 192.386C175.839 192.788 175.928 193.138 176.11 193.438C176.296 193.737 176.551 193.97 176.877 194.136C177.203 194.303 177.578 194.386 178.002 194.386Z" fill="black"/>
<rect x="158" y="57" width="40" height="40" fill="#EFEFEF" stroke="#AFAFAF" stroke-width="2"/>
<path d="M177.974 83.1591C177.307 83.1591 176.707 83.0265 176.173 82.7614C175.638 82.4962 175.21 82.1326 174.888 81.6705C174.567 81.2083 174.39 80.6818 174.36 80.0909H175.724C175.777 80.6174 176.015 81.053 176.44 81.3977C176.868 81.7386 177.379 81.9091 177.974 81.9091C178.451 81.9091 178.875 81.7973 179.246 81.5739C179.621 81.3504 179.915 81.0436 180.127 80.6534C180.343 80.2595 180.451 79.8144 180.451 79.3182C180.451 78.8106 180.339 78.358 180.116 77.9602C179.896 77.5587 179.593 77.2424 179.207 77.0114C178.82 76.7803 178.379 76.6629 177.883 76.6591C177.527 76.6553 177.161 76.7102 176.786 76.8239C176.411 76.9337 176.103 77.0758 175.86 77.25L174.542 77.0909L175.246 71.3636H181.292V72.6136H176.428L176.019 76.0455H176.087C176.326 75.8561 176.625 75.6989 176.985 75.5739C177.345 75.4489 177.72 75.3864 178.11 75.3864C178.822 75.3864 179.457 75.5568 180.013 75.8977C180.574 76.2348 181.013 76.697 181.332 77.2841C181.654 77.8712 181.815 78.5417 181.815 79.2955C181.815 80.0379 181.648 80.7008 181.315 81.2841C180.985 81.8636 180.531 82.322 179.951 82.6591C179.371 82.9924 178.712 83.1591 177.974 83.1591Z" fill="black"/>
<rect x="158" y="97" width="40" height="40" fill="#EFEFEF" stroke="#AFAFAF" stroke-width="2"/>
<path d="M178.002 123.159C177.222 123.159 176.532 123.021 175.934 122.744C175.339 122.464 174.875 122.08 174.542 121.591C174.209 121.098 174.044 120.538 174.048 119.909C174.044 119.417 174.14 118.962 174.337 118.545C174.534 118.125 174.803 117.775 175.144 117.494C175.489 117.21 175.873 117.03 176.298 116.955V116.886C175.741 116.742 175.298 116.43 174.968 115.949C174.638 115.464 174.476 114.913 174.479 114.295C174.476 113.705 174.625 113.176 174.928 112.71C175.231 112.244 175.648 111.877 176.178 111.608C176.712 111.339 177.32 111.205 178.002 111.205C178.676 111.205 179.279 111.339 179.809 111.608C180.339 111.877 180.756 112.244 181.059 112.71C181.366 113.176 181.521 113.705 181.525 114.295C181.521 114.913 181.353 115.464 181.019 115.949C180.69 116.43 180.252 116.742 179.707 116.886V116.955C180.127 117.03 180.506 117.21 180.843 117.494C181.18 117.775 181.449 118.125 181.65 118.545C181.851 118.962 181.953 119.417 181.957 119.909C181.953 120.538 181.782 121.098 181.445 121.591C181.112 122.08 180.648 122.464 180.053 122.744C179.462 123.021 178.779 123.159 178.002 123.159ZM178.002 121.909C178.529 121.909 178.983 121.824 179.366 121.653C179.748 121.483 180.044 121.242 180.252 120.932C180.46 120.621 180.567 120.258 180.57 119.841C180.567 119.402 180.453 119.013 180.229 118.676C180.006 118.339 179.701 118.074 179.315 117.881C178.932 117.687 178.495 117.591 178.002 117.591C177.506 117.591 177.063 117.687 176.673 117.881C176.286 118.074 175.981 118.339 175.758 118.676C175.538 119.013 175.43 119.402 175.434 119.841C175.43 120.258 175.531 120.621 175.735 120.932C175.943 121.242 176.241 121.483 176.627 121.653C177.013 121.824 177.472 121.909 178.002 121.909ZM178.002 116.386C178.419 116.386 178.788 116.303 179.11 116.136C179.436 115.97 179.692 115.737 179.877 115.438C180.063 115.138 180.157 114.788 180.161 114.386C180.157 113.992 180.065 113.65 179.883 113.358C179.701 113.062 179.449 112.835 179.127 112.676C178.805 112.513 178.43 112.432 178.002 112.432C177.567 112.432 177.186 112.513 176.86 112.676C176.534 112.835 176.282 113.062 176.104 113.358C175.926 113.65 175.839 113.992 175.843 114.386C175.839 114.788 175.928 115.138 176.11 115.438C176.296 115.737 176.551 115.97 176.877 116.136C177.203 116.303 177.578 116.386 178.002 116.386Z" fill="black"/>
<rect x="118" y="137" width="40" height="40" fill="#EFEFEF" stroke="#AFAFAF" stroke-width="2"/>
<rect x="118" y="213" width="40" height="40" fill="#EFEFEF" stroke="#AFAFAF" stroke-width="2"/>
<rect x="118" y="175" width="40" height="40" fill="#EFEFEF" stroke="#AFAFAF" stroke-width="2"/>
<path d="M129.361 163V161.977L133.202 157.773C133.652 157.28 134.024 156.852 134.315 156.489C134.607 156.121 134.823 155.777 134.963 155.455C135.107 155.129 135.179 154.788 135.179 154.432C135.179 154.023 135.08 153.669 134.884 153.369C134.69 153.07 134.425 152.839 134.088 152.676C133.751 152.513 133.372 152.432 132.952 152.432C132.505 152.432 132.115 152.525 131.781 152.71C131.452 152.892 131.196 153.148 131.014 153.477C130.836 153.807 130.747 154.193 130.747 154.636H129.406C129.406 153.955 129.563 153.356 129.878 152.841C130.192 152.326 130.62 151.924 131.162 151.636C131.707 151.348 132.319 151.205 132.997 151.205C133.679 151.205 134.283 151.348 134.81 151.636C135.336 151.924 135.749 152.312 136.048 152.801C136.348 153.29 136.497 153.833 136.497 154.432C136.497 154.86 136.42 155.278 136.264 155.688C136.113 156.093 135.848 156.545 135.469 157.045C135.094 157.542 134.573 158.148 133.906 158.864L131.293 161.659V161.75H136.702V163H129.361ZM142.844 163.159C141.988 163.159 141.259 162.926 140.656 162.46C140.054 161.991 139.594 161.311 139.276 160.42C138.957 159.527 138.798 158.447 138.798 157.182C138.798 155.924 138.957 154.85 139.276 153.96C139.598 153.066 140.06 152.384 140.662 151.915C141.268 151.441 141.995 151.205 142.844 151.205C143.692 151.205 144.418 151.441 145.02 151.915C145.626 152.384 146.088 153.066 146.406 153.96C146.728 154.85 146.889 155.924 146.889 157.182C146.889 158.447 146.73 159.527 146.412 160.42C146.094 161.311 145.634 161.991 145.031 162.46C144.429 162.926 143.7 163.159 142.844 163.159ZM142.844 161.909C143.692 161.909 144.351 161.5 144.821 160.682C145.291 159.864 145.526 158.697 145.526 157.182C145.526 156.174 145.418 155.316 145.202 154.608C144.99 153.9 144.683 153.36 144.281 152.989C143.884 152.617 143.404 152.432 142.844 152.432C142.003 152.432 141.346 152.847 140.872 153.676C140.399 154.502 140.162 155.67 140.162 157.182C140.162 158.189 140.268 159.045 140.48 159.75C140.692 160.455 140.997 160.991 141.395 161.358C141.796 161.725 142.279 161.909 142.844 161.909Z" fill="black"/>
<path d="M134.299 236.614V235.455L139.413 227.364H140.254V229.159H139.685L135.822 235.273V235.364H142.708V236.614H134.299ZM139.776 239V236.261V235.722V227.364H141.117V239H139.776Z" fill="black"/>
<path d="M135.577 189.364V201H134.168V190.841H134.099L131.259 192.727V191.295L134.168 189.364H135.577ZM142.719 201.159C141.863 201.159 141.134 200.926 140.531 200.46C139.929 199.991 139.469 199.311 139.151 198.42C138.832 197.527 138.673 196.447 138.673 195.182C138.673 193.924 138.832 192.85 139.151 191.96C139.473 191.066 139.935 190.384 140.537 189.915C141.143 189.441 141.87 189.205 142.719 189.205C143.567 189.205 144.293 189.441 144.895 189.915C145.501 190.384 145.963 191.066 146.281 191.96C146.603 192.85 146.764 193.924 146.764 195.182C146.764 196.447 146.605 197.527 146.287 198.42C145.969 199.311 145.509 199.991 144.906 200.46C144.304 200.926 143.575 201.159 142.719 201.159ZM142.719 199.909C143.567 199.909 144.226 199.5 144.696 198.682C145.166 197.864 145.401 196.697 145.401 195.182C145.401 194.174 145.293 193.316 145.077 192.608C144.865 191.9 144.558 191.36 144.156 190.989C143.759 190.617 143.279 190.432 142.719 190.432C141.878 190.432 141.221 190.847 140.747 191.676C140.274 192.502 140.037 193.67 140.037 195.182C140.037 196.189 140.143 197.045 140.355 197.75C140.567 198.455 140.872 198.991 141.27 199.358C141.671 199.725 142.154 199.909 142.719 199.909Z" fill="black"/>
<rect x="118" y="57" width="40" height="40" fill="#EFEFEF" stroke="#AFAFAF" stroke-width="2"/>
<path d="M133.299 80.6136V79.4545L138.413 71.3636H139.254V73.1591H138.685L134.822 79.2727V79.3636H141.708V80.6136H133.299ZM138.776 83V80.2614V79.7216V71.3636H140.117V83H138.776Z" fill="black"/>
<rect x="118" y="97" width="40" height="40" fill="#EFEFEF" stroke="#AFAFAF" stroke-width="2"/>
<path d="M134.577 111.364V123H133.168V112.841H133.099L130.259 114.727V113.295L133.168 111.364H134.577ZM141.719 123.159C140.863 123.159 140.134 122.926 139.531 122.46C138.929 121.991 138.469 121.311 138.151 120.42C137.832 119.527 137.673 118.447 137.673 117.182C137.673 115.924 137.832 114.85 138.151 113.96C138.473 113.066 138.935 112.384 139.537 111.915C140.143 111.441 140.87 111.205 141.719 111.205C142.567 111.205 143.293 111.441 143.895 111.915C144.501 112.384 144.963 113.066 145.281 113.96C145.603 114.85 145.764 115.924 145.764 117.182C145.764 118.447 145.605 119.527 145.287 120.42C144.969 121.311 144.509 121.991 143.906 122.46C143.304 122.926 142.575 123.159 141.719 123.159ZM141.719 121.909C142.567 121.909 143.226 121.5 143.696 120.682C144.166 119.864 144.401 118.697 144.401 117.182C144.401 116.174 144.293 115.316 144.077 114.608C143.865 113.9 143.558 113.36 143.156 112.989C142.759 112.617 142.279 112.432 141.719 112.432C140.878 112.432 140.221 112.847 139.747 113.676C139.274 114.502 139.037 115.67 139.037 117.182C139.037 118.189 139.143 119.045 139.355 119.75C139.567 120.455 139.872 120.991 140.27 121.358C140.671 121.725 141.154 121.909 141.719 121.909Z" fill="black"/>
<path d="M52.3288 116.557V117.807H47.2379V116.557H52.3288ZM58.7564 111.364V123H57.3473V112.841H57.2791L54.4382 114.727V113.295L57.3473 111.364H58.7564ZM65.8984 123.159C65.0424 123.159 64.3132 122.926 63.7109 122.46C63.1087 121.991 62.6484 121.311 62.3303 120.42C62.0121 119.527 61.853 118.447 61.853 117.182C61.853 115.924 62.0121 114.85 62.3303 113.96C62.6522 113.066 63.1143 112.384 63.7166 111.915C64.3227 111.441 65.05 111.205 65.8984 111.205C66.7469 111.205 67.4723 111.441 68.0746 111.915C68.6806 112.384 69.1428 113.066 69.4609 113.96C69.7829 114.85 69.9439 115.924 69.9439 117.182C69.9439 118.447 69.7848 119.527 69.4666 120.42C69.1484 121.311 68.6882 121.991 68.0859 122.46C67.4837 122.926 66.7545 123.159 65.8984 123.159ZM65.8984 121.909C66.7469 121.909 67.406 121.5 67.8757 120.682C68.3454 119.864 68.5803 118.697 68.5803 117.182C68.5803 116.174 68.4723 115.316 68.2564 114.608C68.0443 113.9 67.7375 113.36 67.3359 112.989C66.9382 112.617 66.459 112.432 65.8984 112.432C65.0575 112.432 64.4003 112.847 63.9268 113.676C63.4534 114.502 63.2166 115.67 63.2166 117.182C63.2166 118.189 63.3227 119.045 63.5348 119.75C63.7469 120.455 64.0518 120.991 64.4496 121.358C64.8511 121.725 65.334 121.909 65.8984 121.909Z" fill="black"/>
<path d="M56.6804 232.557V233.807H51.5895V232.557H56.6804ZM62.6534 239.159C61.9867 239.159 61.3864 239.027 60.8523 238.761C60.3182 238.496 59.8902 238.133 59.5682 237.67C59.2462 237.208 59.0701 236.682 59.0398 236.091H60.4034C60.4564 236.617 60.6951 237.053 61.1193 237.398C61.5473 237.739 62.0587 237.909 62.6534 237.909C63.1307 237.909 63.5549 237.797 63.9261 237.574C64.3011 237.35 64.5947 237.044 64.8068 236.653C65.0227 236.259 65.1307 235.814 65.1307 235.318C65.1307 234.811 65.0189 234.358 64.7955 233.96C64.5758 233.559 64.2727 233.242 63.8864 233.011C63.5 232.78 63.0587 232.663 62.5625 232.659C62.2064 232.655 61.8409 232.71 61.4659 232.824C61.0909 232.934 60.7822 233.076 60.5398 233.25L59.2216 233.091L59.9261 227.364H65.9716V228.614H61.108L60.6989 232.045H60.767C61.0057 231.856 61.3049 231.699 61.6648 231.574C62.0246 231.449 62.3996 231.386 62.7898 231.386C63.5019 231.386 64.1364 231.557 64.6932 231.898C65.2538 232.235 65.6932 232.697 66.0114 233.284C66.3333 233.871 66.4943 234.542 66.4943 235.295C66.4943 236.038 66.3277 236.701 65.9943 237.284C65.6648 237.864 65.2102 238.322 64.6307 238.659C64.0511 238.992 63.392 239.159 62.6534 239.159Z" fill="black"/>
<path d="M52.3288 194.557V195.807H47.2379V194.557H52.3288ZM58.7564 189.364V201H57.3473V190.841H57.2791L54.4382 192.727V191.295L57.3473 189.364H58.7564ZM65.8984 201.159C65.0424 201.159 64.3132 200.926 63.7109 200.46C63.1087 199.991 62.6484 199.311 62.3303 198.42C62.0121 197.527 61.853 196.447 61.853 195.182C61.853 193.924 62.0121 192.85 62.3303 191.96C62.6522 191.066 63.1143 190.384 63.7166 189.915C64.3227 189.441 65.05 189.205 65.8984 189.205C66.7469 189.205 67.4723 189.441 68.0746 189.915C68.6806 190.384 69.1428 191.066 69.4609 191.96C69.7829 192.85 69.9439 193.924 69.9439 195.182C69.9439 196.447 69.7848 197.527 69.4666 198.42C69.1484 199.311 68.6882 199.991 68.0859 200.46C67.4837 200.926 66.7545 201.159 65.8984 201.159ZM65.8984 199.909C66.7469 199.909 67.406 199.5 67.8757 198.682C68.3454 197.864 68.5803 196.697 68.5803 195.182C68.5803 194.174 68.4723 193.316 68.2564 192.608C68.0443 191.9 67.7375 191.36 67.3359 190.989C66.9382 190.617 66.459 190.432 65.8984 190.432C65.0575 190.432 64.4003 190.847 63.9268 191.676C63.4534 192.502 63.2166 193.67 63.2166 195.182C63.2166 196.189 63.3227 197.045 63.5348 197.75C63.7469 198.455 64.0518 198.991 64.4496 199.358C64.8511 199.725 65.334 199.909 65.8984 199.909Z" fill="black"/>
<rect x="231" y="137" width="40" height="40" fill="#EFEFEF" stroke="#AFAFAF" stroke-width="2"/>
<rect x="270" y="137" width="40" height="40" fill="#EFEFEF" stroke="#AFAFAF" stroke-width="2"/>
<rect x="308" y="137" width="40" height="40" fill="#EFEFEF" stroke="#AFAFAF" stroke-width="2"/>
<rect x="231" y="213" width="40" height="40" fill="#EFEFEF" stroke="#AFAFAF" stroke-width="2"/>
<rect x="270" y="213" width="40" height="40" fill="#EFEFEF" stroke="#AFAFAF" stroke-width="2"/>
<rect x="308" y="213" width="40" height="40" fill="#EFEFEF" stroke="#AFAFAF" stroke-width="2"/>
<rect x="231" y="175" width="40" height="40" fill="#EFEFEF" stroke="#AFAFAF" stroke-width="2"/>
<rect x="270" y="175" width="40" height="40" fill="#EFEFEF" stroke="#AFAFAF" stroke-width="2"/>
<rect x="308" y="175" width="40" height="40" fill="#EFEFEF" stroke="#AFAFAF" stroke-width="2"/>
<path d="M250 163.159C249.144 163.159 248.415 162.926 247.812 162.46C247.21 161.991 246.75 161.311 246.432 160.42C246.114 159.527 245.955 158.447 245.955 157.182C245.955 155.924 246.114 154.85 246.432 153.96C246.754 153.066 247.216 152.384 247.818 151.915C248.424 151.441 249.152 151.205 250 151.205C250.848 151.205 251.574 151.441 252.176 151.915C252.782 152.384 253.244 153.066 253.562 153.96C253.884 154.85 254.045 155.924 254.045 157.182C254.045 158.447 253.886 159.527 253.568 160.42C253.25 161.311 252.79 161.991 252.188 162.46C251.585 162.926 250.856 163.159 250 163.159ZM250 161.909C250.848 161.909 251.508 161.5 251.977 160.682C252.447 159.864 252.682 158.697 252.682 157.182C252.682 156.174 252.574 155.316 252.358 154.608C252.146 153.9 251.839 153.36 251.438 152.989C251.04 152.617 250.561 152.432 250 152.432C249.159 152.432 248.502 152.847 248.028 153.676C247.555 154.502 247.318 155.67 247.318 157.182C247.318 158.189 247.424 159.045 247.636 159.75C247.848 160.455 248.153 160.991 248.551 161.358C248.953 161.725 249.436 161.909 250 161.909Z" fill="black"/>
<path d="M249.841 239.159C249.174 239.159 248.574 239.027 248.04 238.761C247.506 238.496 247.078 238.133 246.756 237.67C246.434 237.208 246.258 236.682 246.227 236.091H247.591C247.644 236.617 247.883 237.053 248.307 237.398C248.735 237.739 249.246 237.909 249.841 237.909C250.318 237.909 250.742 237.797 251.114 237.574C251.489 237.35 251.782 237.044 251.994 236.653C252.21 236.259 252.318 235.814 252.318 235.318C252.318 234.811 252.206 234.358 251.983 233.96C251.763 233.559 251.46 233.242 251.074 233.011C250.688 232.78 250.246 232.663 249.75 232.659C249.394 232.655 249.028 232.71 248.653 232.824C248.278 232.934 247.97 233.076 247.727 233.25L246.409 233.091L247.114 227.364H253.159V228.614H248.295L247.886 232.045H247.955C248.193 231.856 248.492 231.699 248.852 231.574C249.212 231.449 249.587 231.386 249.977 231.386C250.689 231.386 251.324 231.557 251.881 231.898C252.441 232.235 252.881 232.697 253.199 233.284C253.521 233.871 253.682 234.542 253.682 235.295C253.682 236.038 253.515 236.701 253.182 237.284C252.852 237.864 252.398 238.322 251.818 238.659C251.239 238.992 250.58 239.159 249.841 239.159Z" fill="black"/>
<path d="M245.932 198.614V197.455L251.045 189.364H251.886V191.159H251.318L247.455 197.273V197.364H254.341V198.614H245.932ZM251.409 201V198.261V197.722V189.364H252.75V201H251.409Z" fill="black"/>
<path d="M329 163.159C328.144 163.159 327.415 162.926 326.812 162.46C326.21 161.991 325.75 161.311 325.432 160.42C325.114 159.527 324.955 158.447 324.955 157.182C324.955 155.924 325.114 154.85 325.432 153.96C325.754 153.066 326.216 152.384 326.818 151.915C327.424 151.441 328.152 151.205 329 151.205C329.848 151.205 330.574 151.441 331.176 151.915C331.782 152.384 332.244 153.066 332.562 153.96C332.884 154.85 333.045 155.924 333.045 157.182C333.045 158.447 332.886 159.527 332.568 160.42C332.25 161.311 331.79 161.991 331.188 162.46C330.585 162.926 329.856 163.159 329 163.159ZM329 161.909C329.848 161.909 330.508 161.5 330.977 160.682C331.447 159.864 331.682 158.697 331.682 157.182C331.682 156.174 331.574 155.316 331.358 154.608C331.146 153.9 330.839 153.36 330.438 152.989C330.04 152.617 329.561 152.432 329 152.432C328.159 152.432 327.502 152.847 327.028 153.676C326.555 154.502 326.318 155.67 326.318 157.182C326.318 158.189 326.424 159.045 326.636 159.75C326.848 160.455 327.153 160.991 327.551 161.358C327.953 161.725 328.436 161.909 329 161.909Z" fill="black"/>
<path d="M325.295 227.364V239H323.886V228.841H323.818L320.977 230.727V229.295L323.886 227.364H325.295ZM332.438 239.159C331.581 239.159 330.852 238.926 330.25 238.46C329.648 237.991 329.188 237.311 328.869 236.42C328.551 235.527 328.392 234.447 328.392 233.182C328.392 231.924 328.551 230.85 328.869 229.96C329.191 229.066 329.653 228.384 330.256 227.915C330.862 227.441 331.589 227.205 332.438 227.205C333.286 227.205 334.011 227.441 334.614 227.915C335.22 228.384 335.682 229.066 336 229.96C336.322 230.85 336.483 231.924 336.483 233.182C336.483 234.447 336.324 235.527 336.006 236.42C335.688 237.311 335.227 237.991 334.625 238.46C334.023 238.926 333.294 239.159 332.438 239.159ZM332.438 237.909C333.286 237.909 333.945 237.5 334.415 236.682C334.884 235.864 335.119 234.697 335.119 233.182C335.119 232.174 335.011 231.316 334.795 230.608C334.583 229.9 334.277 229.36 333.875 228.989C333.477 228.617 332.998 228.432 332.438 228.432C331.597 228.432 330.939 228.847 330.466 229.676C329.992 230.502 329.756 231.67 329.756 233.182C329.756 234.189 329.862 235.045 330.074 235.75C330.286 236.455 330.591 236.991 330.989 237.358C331.39 237.725 331.873 237.909 332.438 237.909Z" fill="black"/>
<path d="M319.205 201V199.977L323.045 195.773C323.496 195.28 323.867 194.852 324.159 194.489C324.451 194.121 324.667 193.777 324.807 193.455C324.951 193.129 325.023 192.788 325.023 192.432C325.023 192.023 324.924 191.669 324.727 191.369C324.534 191.07 324.269 190.839 323.932 190.676C323.595 190.513 323.216 190.432 322.795 190.432C322.348 190.432 321.958 190.525 321.625 190.71C321.295 190.892 321.04 191.148 320.858 191.477C320.68 191.807 320.591 192.193 320.591 192.636H319.25C319.25 191.955 319.407 191.356 319.722 190.841C320.036 190.326 320.464 189.924 321.006 189.636C321.551 189.348 322.163 189.205 322.841 189.205C323.523 189.205 324.127 189.348 324.653 189.636C325.18 189.924 325.593 190.312 325.892 190.801C326.191 191.29 326.341 191.833 326.341 192.432C326.341 192.86 326.263 193.278 326.108 193.688C325.956 194.093 325.691 194.545 325.312 195.045C324.938 195.542 324.417 196.148 323.75 196.864L321.136 199.659V199.75H326.545V201H319.205ZM332.688 201.159C331.831 201.159 331.102 200.926 330.5 200.46C329.898 199.991 329.438 199.311 329.119 198.42C328.801 197.527 328.642 196.447 328.642 195.182C328.642 193.924 328.801 192.85 329.119 191.96C329.441 191.066 329.903 190.384 330.506 189.915C331.112 189.441 331.839 189.205 332.688 189.205C333.536 189.205 334.261 189.441 334.864 189.915C335.47 190.384 335.932 191.066 336.25 191.96C336.572 192.85 336.733 193.924 336.733 195.182C336.733 196.447 336.574 197.527 336.256 198.42C335.938 199.311 335.477 199.991 334.875 200.46C334.273 200.926 333.544 201.159 332.688 201.159ZM332.688 199.909C333.536 199.909 334.195 199.5 334.665 198.682C335.134 197.864 335.369 196.697 335.369 195.182C335.369 194.174 335.261 193.316 335.045 192.608C334.833 191.9 334.527 191.36 334.125 190.989C333.727 190.617 333.248 190.432 332.688 190.432C331.847 190.432 331.189 190.847 330.716 191.676C330.242 192.502 330.006 193.67 330.006 195.182C330.006 196.189 330.112 197.045 330.324 197.75C330.536 198.455 330.841 198.991 331.239 199.358C331.64 199.725 332.123 199.909 332.688 199.909Z" fill="black"/>
<path d="M290 163.159C289.144 163.159 288.415 162.926 287.812 162.46C287.21 161.991 286.75 161.311 286.432 160.42C286.114 159.527 285.955 158.447 285.955 157.182C285.955 155.924 286.114 154.85 286.432 153.96C286.754 153.066 287.216 152.384 287.818 151.915C288.424 151.441 289.152 151.205 290 151.205C290.848 151.205 291.574 151.441 292.176 151.915C292.782 152.384 293.244 153.066 293.562 153.96C293.884 154.85 294.045 155.924 294.045 157.182C294.045 158.447 293.886 159.527 293.568 160.42C293.25 161.311 292.79 161.991 292.188 162.46C291.585 162.926 290.856 163.159 290 163.159ZM290 161.909C290.848 161.909 291.508 161.5 291.977 160.682C292.447 159.864 292.682 158.697 292.682 157.182C292.682 156.174 292.574 155.316 292.358 154.608C292.146 153.9 291.839 153.36 291.438 152.989C291.04 152.617 290.561 152.432 290 152.432C289.159 152.432 288.502 152.847 288.028 153.676C287.555 154.502 287.318 155.67 287.318 157.182C287.318 158.189 287.424 159.045 287.636 159.75C287.848 160.455 288.153 160.991 288.551 161.358C288.953 161.725 289.436 161.909 290 161.909Z" fill="black"/>
<rect x="231" y="57" width="40" height="40" fill="#EFEFEF" stroke="#AFAFAF" stroke-width="2"/>
<rect x="270" y="57" width="40" height="40" fill="#EFEFEF" stroke="#AFAFAF" stroke-width="2"/>
<rect x="308" y="57" width="40" height="40" fill="#EFEFEF" stroke="#AFAFAF" stroke-width="2"/>
<path d="M247.227 76.5568V77.8068H242.136V76.5568H247.227ZM253.2 83.1591C252.534 83.1591 251.933 83.0265 251.399 82.7614C250.865 82.4962 250.437 82.1326 250.115 81.6705C249.793 81.2083 249.617 80.6818 249.587 80.0909H250.95C251.003 80.6174 251.242 81.053 251.666 81.3977C252.094 81.7386 252.606 81.9091 253.2 81.9091C253.678 81.9091 254.102 81.7973 254.473 81.5739C254.848 81.3504 255.142 81.0436 255.354 80.6534C255.57 80.2595 255.678 79.8144 255.678 79.3182C255.678 78.8106 255.566 78.358 255.342 77.9602C255.123 77.5587 254.82 77.2424 254.433 77.0114C254.047 76.7803 253.606 76.6629 253.109 76.6591C252.753 76.6553 252.388 76.7102 252.013 76.8239C251.638 76.9337 251.329 77.0758 251.087 77.25L249.768 77.0909L250.473 71.3636H256.518V72.6136H251.655L251.246 76.0455H251.314C251.553 75.8561 251.852 75.6989 252.212 75.5739C252.571 75.4489 252.946 75.3864 253.337 75.3864C254.049 75.3864 254.683 75.5568 255.24 75.8977C255.801 76.2348 256.24 76.697 256.558 77.2841C256.88 77.8712 257.041 78.5417 257.041 79.2955C257.041 80.0379 256.875 80.7008 256.541 81.2841C256.212 81.8636 255.757 82.322 255.178 82.6591C254.598 82.9924 253.939 83.1591 253.2 83.1591Z" fill="black"/>
<path d="M322.227 76.5568V77.8068H317.136V76.5568H322.227ZM328.655 71.3636V83H327.246V72.8409H327.178L324.337 74.7273V73.2955L327.246 71.3636H328.655ZM335.797 83.1591C334.941 83.1591 334.212 82.9261 333.609 82.4602C333.007 81.9905 332.547 81.3106 332.229 80.4205C331.911 79.5265 331.751 78.447 331.751 77.1818C331.751 75.9242 331.911 74.8504 332.229 73.9602C332.551 73.0663 333.013 72.3845 333.615 71.9148C334.221 71.4413 334.948 71.2045 335.797 71.2045C336.645 71.2045 337.371 71.4413 337.973 71.9148C338.579 72.3845 339.041 73.0663 339.359 73.9602C339.681 74.8504 339.842 75.9242 339.842 77.1818C339.842 78.447 339.683 79.5265 339.365 80.4205C339.047 81.3106 338.587 81.9905 337.984 82.4602C337.382 82.9261 336.653 83.1591 335.797 83.1591ZM335.797 81.9091C336.645 81.9091 337.304 81.5 337.774 80.6818C338.244 79.8636 338.479 78.697 338.479 77.1818C338.479 76.1742 338.371 75.3163 338.155 74.608C337.943 73.8996 337.636 73.3598 337.234 72.9886C336.837 72.6174 336.357 72.4318 335.797 72.4318C334.956 72.4318 334.299 72.8466 333.825 73.6761C333.352 74.5019 333.115 75.6705 333.115 77.1818C333.115 78.1894 333.221 79.0455 333.433 79.75C333.645 80.4545 333.95 80.9905 334.348 81.358C334.75 81.7254 335.232 81.9091 335.797 81.9091Z" fill="black"/>
<path d="M286.227 76.5568V77.8068H281.136V76.5568H286.227ZM292.291 83.1591C291.511 83.1591 290.821 83.0208 290.223 82.7443C289.628 82.464 289.164 82.0795 288.831 81.5909C288.498 81.0985 288.333 80.5379 288.337 79.9091C288.333 79.4167 288.429 78.9621 288.626 78.5455C288.823 78.125 289.092 77.7746 289.433 77.4943C289.778 77.2102 290.162 77.0303 290.587 76.9545V76.8864C290.03 76.7424 289.587 76.4299 289.257 75.9489C288.928 75.464 288.765 74.9129 288.768 74.2955C288.765 73.7045 288.914 73.1761 289.217 72.7102C289.52 72.2443 289.937 71.8769 290.467 71.608C291.001 71.339 291.609 71.2045 292.291 71.2045C292.965 71.2045 293.568 71.339 294.098 71.608C294.628 71.8769 295.045 72.2443 295.348 72.7102C295.655 73.1761 295.81 73.7045 295.814 74.2955C295.81 74.9129 295.642 75.464 295.308 75.9489C294.979 76.4299 294.541 76.7424 293.996 76.8864V76.9545C294.416 77.0303 294.795 77.2102 295.132 77.4943C295.469 77.7746 295.738 78.125 295.939 78.5455C296.14 78.9621 296.242 79.4167 296.246 79.9091C296.242 80.5379 296.071 81.0985 295.734 81.5909C295.401 82.0795 294.937 82.464 294.342 82.7443C293.751 83.0208 293.068 83.1591 292.291 83.1591ZM292.291 81.9091C292.818 81.9091 293.272 81.8239 293.655 81.6534C294.037 81.483 294.333 81.2424 294.541 80.9318C294.75 80.6212 294.856 80.2576 294.859 79.8409C294.856 79.4015 294.742 79.0133 294.518 78.6761C294.295 78.339 293.99 78.0739 293.604 77.8807C293.221 77.6875 292.784 77.5909 292.291 77.5909C291.795 77.5909 291.352 77.6875 290.962 77.8807C290.575 78.0739 290.27 78.339 290.047 78.6761C289.827 79.0133 289.719 79.4015 289.723 79.8409C289.719 80.2576 289.82 80.6212 290.024 80.9318C290.232 81.2424 290.53 81.483 290.916 81.6534C291.303 81.8239 291.761 81.9091 292.291 81.9091ZM292.291 76.3864C292.708 76.3864 293.077 76.303 293.399 76.1364C293.725 75.9697 293.981 75.7367 294.166 75.4375C294.352 75.1383 294.446 74.7879 294.45 74.3864C294.446 73.9924 294.354 73.6496 294.172 73.358C293.99 73.0625 293.738 72.8352 293.416 72.6761C293.094 72.5133 292.719 72.4318 292.291 72.4318C291.856 72.4318 291.475 72.5133 291.149 72.6761C290.823 72.8352 290.571 73.0625 290.393 73.358C290.215 73.6496 290.128 73.9924 290.132 74.3864C290.128 74.7879 290.217 75.1383 290.399 75.4375C290.585 75.7367 290.84 75.9697 291.166 76.1364C291.492 76.303 291.867 76.3864 292.291 76.3864Z" fill="black"/>
<rect x="231" y="97" width="40" height="40" fill="#EFEFEF" stroke="#AFAFAF" stroke-width="2"/>
<rect x="270" y="97" width="40" height="40" fill="#EFEFEF" stroke="#AFAFAF" stroke-width="2"/>
<rect x="308" y="97" width="40" height="40" fill="#EFEFEF" stroke="#AFAFAF" stroke-width="2"/>
<path d="M247.227 116.557V117.807H242.136V116.557H247.227ZM249.291 120.614V119.455L254.405 111.364H255.246V113.159H254.678L250.814 119.273V119.364H257.7V120.614H249.291ZM254.768 123V120.261V119.722V111.364H256.109V123H254.768Z" fill="black"/>
<path d="M321.227 116.557V117.807H316.136V116.557H321.227ZM323.017 123V121.977L326.858 117.773C327.309 117.28 327.68 116.852 327.972 116.489C328.263 116.121 328.479 115.777 328.619 115.455C328.763 115.129 328.835 114.788 328.835 114.432C328.835 114.023 328.737 113.669 328.54 113.369C328.347 113.07 328.081 112.839 327.744 112.676C327.407 112.513 327.028 112.432 326.608 112.432C326.161 112.432 325.771 112.525 325.438 112.71C325.108 112.892 324.852 113.148 324.67 113.477C324.492 113.807 324.403 114.193 324.403 114.636H323.062C323.062 113.955 323.22 113.356 323.534 112.841C323.848 112.326 324.277 111.924 324.818 111.636C325.364 111.348 325.975 111.205 326.653 111.205C327.335 111.205 327.939 111.348 328.466 111.636C328.992 111.924 329.405 112.312 329.705 112.801C330.004 113.29 330.153 113.833 330.153 114.432C330.153 114.86 330.076 115.278 329.92 115.688C329.769 116.093 329.504 116.545 329.125 117.045C328.75 117.542 328.229 118.148 327.562 118.864L324.949 121.659V121.75H330.358V123H323.017ZM336.5 123.159C335.644 123.159 334.915 122.926 334.312 122.46C333.71 121.991 333.25 121.311 332.932 120.42C332.614 119.527 332.455 118.447 332.455 117.182C332.455 115.924 332.614 114.85 332.932 113.96C333.254 113.066 333.716 112.384 334.318 111.915C334.924 111.441 335.652 111.205 336.5 111.205C337.348 111.205 338.074 111.441 338.676 111.915C339.282 112.384 339.744 113.066 340.062 113.96C340.384 114.85 340.545 115.924 340.545 117.182C340.545 118.447 340.386 119.527 340.068 120.42C339.75 121.311 339.29 121.991 338.688 122.46C338.085 122.926 337.356 123.159 336.5 123.159ZM336.5 121.909C337.348 121.909 338.008 121.5 338.477 120.682C338.947 119.864 339.182 118.697 339.182 117.182C339.182 116.174 339.074 115.316 338.858 114.608C338.646 113.9 338.339 113.36 337.938 112.989C337.54 112.617 337.061 112.432 336.5 112.432C335.659 112.432 335.002 112.847 334.528 113.676C334.055 114.502 333.818 115.67 333.818 117.182C333.818 118.189 333.924 119.045 334.136 119.75C334.348 120.455 334.653 120.991 335.051 121.358C335.453 121.725 335.936 121.909 336.5 121.909Z" fill="black"/>
<rect x="388" y="137" width="40" height="40" fill="#EFEFEF" stroke="#AFAFAF" stroke-width="2"/>
<rect x="388" y="213" width="40" height="40" fill="#EFEFEF" stroke="#AFAFAF" stroke-width="2"/>
<rect x="388" y="175" width="40" height="40" fill="#EFEFEF" stroke="#AFAFAF" stroke-width="2"/>
<path d="M409 163.159C408.144 163.159 407.415 162.926 406.812 162.46C406.21 161.991 405.75 161.311 405.432 160.42C405.114 159.527 404.955 158.447 404.955 157.182C404.955 155.924 405.114 154.85 405.432 153.96C405.754 153.066 406.216 152.384 406.818 151.915C407.424 151.441 408.152 151.205 409 151.205C409.848 151.205 410.574 151.441 411.176 151.915C411.782 152.384 412.244 153.066 412.562 153.96C412.884 154.85 413.045 155.924 413.045 157.182C413.045 158.447 412.886 159.527 412.568 160.42C412.25 161.311 411.79 161.991 411.188 162.46C410.585 162.926 409.856 163.159 409 163.159ZM409 161.909C409.848 161.909 410.508 161.5 410.977 160.682C411.447 159.864 411.682 158.697 411.682 157.182C411.682 156.174 411.574 155.316 411.358 154.608C411.146 153.9 410.839 153.36 410.438 152.989C410.04 152.617 409.561 152.432 409 152.432C408.159 152.432 407.502 152.847 407.028 153.676C406.555 154.502 406.318 155.67 406.318 157.182C406.318 158.189 406.424 159.045 406.636 159.75C406.848 160.455 407.153 160.991 407.551 161.358C407.953 161.725 408.436 161.909 409 161.909Z" fill="black"/>
<path d="M407.841 239.159C407.174 239.159 406.574 239.027 406.04 238.761C405.506 238.496 405.078 238.133 404.756 237.67C404.434 237.208 404.258 236.682 404.227 236.091H405.591C405.644 236.617 405.883 237.053 406.307 237.398C406.735 237.739 407.246 237.909 407.841 237.909C408.318 237.909 408.742 237.797 409.114 237.574C409.489 237.35 409.782 237.044 409.994 236.653C410.21 236.259 410.318 235.814 410.318 235.318C410.318 234.811 410.206 234.358 409.983 233.96C409.763 233.559 409.46 233.242 409.074 233.011C408.688 232.78 408.246 232.663 407.75 232.659C407.394 232.655 407.028 232.71 406.653 232.824C406.278 232.934 405.97 233.076 405.727 233.25L404.409 233.091L405.114 227.364H411.159V228.614H406.295L405.886 232.045H405.955C406.193 231.856 406.492 231.699 406.852 231.574C407.212 231.449 407.587 231.386 407.977 231.386C408.689 231.386 409.324 231.557 409.881 231.898C410.441 232.235 410.881 232.697 411.199 233.284C411.521 233.871 411.682 234.542 411.682 235.295C411.682 236.038 411.515 236.701 411.182 237.284C410.852 237.864 410.398 238.322 409.818 238.659C409.239 238.992 408.58 239.159 407.841 239.159Z" fill="black"/>
<path d="M403.932 198.614V197.455L409.045 189.364H409.886V191.159H409.318L405.455 197.273V197.364H412.341V198.614H403.932ZM409.409 201V198.261V197.722V189.364H410.75V201H409.409Z" fill="black"/>
<rect x="388" y="57" width="40" height="40" fill="#EFEFEF" stroke="#AFAFAF" stroke-width="2"/>
<path d="M405.227 76.5568V77.8068H400.136V76.5568H405.227ZM411.2 83.1591C410.534 83.1591 409.933 83.0265 409.399 82.7614C408.865 82.4962 408.437 82.1326 408.115 81.6705C407.793 81.2083 407.617 80.6818 407.587 80.0909H408.95C409.003 80.6174 409.242 81.053 409.666 81.3977C410.094 81.7386 410.606 81.9091 411.2 81.9091C411.678 81.9091 412.102 81.7973 412.473 81.5739C412.848 81.3504 413.142 81.0436 413.354 80.6534C413.57 80.2595 413.678 79.8144 413.678 79.3182C413.678 78.8106 413.566 78.358 413.342 77.9602C413.123 77.5587 412.82 77.2424 412.433 77.0114C412.047 76.7803 411.606 76.6629 411.109 76.6591C410.753 76.6553 410.388 76.7102 410.013 76.8239C409.638 76.9337 409.329 77.0758 409.087 77.25L407.768 77.0909L408.473 71.3636H414.518V72.6136H409.655L409.246 76.0455H409.314C409.553 75.8561 409.852 75.6989 410.212 75.5739C410.571 75.4489 410.946 75.3864 411.337 75.3864C412.049 75.3864 412.683 75.5568 413.24 75.8977C413.801 76.2348 414.24 76.697 414.558 77.2841C414.88 77.8712 415.041 78.5417 415.041 79.2955C415.041 80.0379 414.875 80.7008 414.541 81.2841C414.212 81.8636 413.757 82.322 413.178 82.6591C412.598 82.9924 411.939 83.1591 411.2 83.1591Z" fill="black"/>
<rect x="388" y="97" width="40" height="40" fill="#EFEFEF" stroke="#AFAFAF" stroke-width="2"/>
<path d="M405.227 116.557V117.807H400.136V116.557H405.227ZM407.291 120.614V119.455L412.405 111.364H413.246V113.159H412.678L408.814 119.273V119.364H415.7V120.614H407.291ZM412.768 123V120.261V119.722V111.364H414.109V123H412.768Z" fill="black"/>
<rect x="348" y="137" width="40" height="40" fill="#EFEFEF" stroke="#AFAFAF" stroke-width="2"/>
<rect x="348" y="213" width="40" height="40" fill="#EFEFEF" stroke="#AFAFAF" stroke-width="2"/>
<rect x="348" y="175" width="40" height="40" fill="#EFEFEF" stroke="#AFAFAF" stroke-width="2"/>
<path d="M368 163.159C367.144 163.159 366.415 162.926 365.812 162.46C365.21 161.991 364.75 161.311 364.432 160.42C364.114 159.527 363.955 158.447 363.955 157.182C363.955 155.924 364.114 154.85 364.432 153.96C364.754 153.066 365.216 152.384 365.818 151.915C366.424 151.441 367.152 151.205 368 151.205C368.848 151.205 369.574 151.441 370.176 151.915C370.782 152.384 371.244 153.066 371.562 153.96C371.884 154.85 372.045 155.924 372.045 157.182C372.045 158.447 371.886 159.527 371.568 160.42C371.25 161.311 370.79 161.991 370.188 162.46C369.585 162.926 368.856 163.159 368 163.159ZM368 161.909C368.848 161.909 369.508 161.5 369.977 160.682C370.447 159.864 370.682 158.697 370.682 157.182C370.682 156.174 370.574 155.316 370.358 154.608C370.146 153.9 369.839 153.36 369.438 152.989C369.04 152.617 368.561 152.432 368 152.432C367.159 152.432 366.502 152.847 366.028 153.676C365.555 154.502 365.318 155.67 365.318 157.182C365.318 158.189 365.424 159.045 365.636 159.75C365.848 160.455 366.153 160.991 366.551 161.358C366.953 161.725 367.436 161.909 368 161.909Z" fill="black"/>
<path d="M367.932 239.159C367.152 239.159 366.462 239.021 365.864 238.744C365.269 238.464 364.805 238.08 364.472 237.591C364.138 237.098 363.973 236.538 363.977 235.909C363.973 235.417 364.07 234.962 364.267 234.545C364.464 234.125 364.733 233.775 365.074 233.494C365.419 233.21 365.803 233.03 366.227 232.955V232.886C365.67 232.742 365.227 232.43 364.898 231.949C364.568 231.464 364.405 230.913 364.409 230.295C364.405 229.705 364.555 229.176 364.858 228.71C365.161 228.244 365.578 227.877 366.108 227.608C366.642 227.339 367.25 227.205 367.932 227.205C368.606 227.205 369.208 227.339 369.739 227.608C370.269 227.877 370.686 228.244 370.989 228.71C371.295 229.176 371.451 229.705 371.455 230.295C371.451 230.913 371.282 231.464 370.949 231.949C370.619 232.43 370.182 232.742 369.636 232.886V232.955C370.057 233.03 370.436 233.21 370.773 233.494C371.11 233.775 371.379 234.125 371.58 234.545C371.78 234.962 371.883 235.417 371.886 235.909C371.883 236.538 371.712 237.098 371.375 237.591C371.042 238.08 370.578 238.464 369.983 238.744C369.392 239.021 368.708 239.159 367.932 239.159ZM367.932 237.909C368.458 237.909 368.913 237.824 369.295 237.653C369.678 237.483 369.973 237.242 370.182 236.932C370.39 236.621 370.496 236.258 370.5 235.841C370.496 235.402 370.383 235.013 370.159 234.676C369.936 234.339 369.631 234.074 369.244 233.881C368.862 233.687 368.424 233.591 367.932 233.591C367.436 233.591 366.992 233.687 366.602 233.881C366.216 234.074 365.911 234.339 365.688 234.676C365.468 235.013 365.36 235.402 365.364 235.841C365.36 236.258 365.46 236.621 365.665 236.932C365.873 237.242 366.17 237.483 366.557 237.653C366.943 237.824 367.402 237.909 367.932 237.909ZM367.932 232.386C368.348 232.386 368.718 232.303 369.04 232.136C369.366 231.97 369.621 231.737 369.807 231.438C369.992 231.138 370.087 230.788 370.091 230.386C370.087 229.992 369.994 229.65 369.812 229.358C369.631 229.062 369.379 228.835 369.057 228.676C368.735 228.513 368.36 228.432 367.932 228.432C367.496 228.432 367.116 228.513 366.79 228.676C366.464 228.835 366.212 229.062 366.034 229.358C365.856 229.65 365.769 229.992 365.773 230.386C365.769 230.788 365.858 231.138 366.04 231.438C366.225 231.737 366.481 231.97 366.807 232.136C367.133 232.303 367.508 232.386 367.932 232.386Z" fill="black"/>
<path d="M364.295 189.364V201H362.886V190.841H362.818L359.977 192.727V191.295L362.886 189.364H364.295ZM371.438 201.159C370.581 201.159 369.852 200.926 369.25 200.46C368.648 199.991 368.188 199.311 367.869 198.42C367.551 197.527 367.392 196.447 367.392 195.182C367.392 193.924 367.551 192.85 367.869 191.96C368.191 191.066 368.653 190.384 369.256 189.915C369.862 189.441 370.589 189.205 371.438 189.205C372.286 189.205 373.011 189.441 373.614 189.915C374.22 190.384 374.682 191.066 375 191.96C375.322 192.85 375.483 193.924 375.483 195.182C375.483 196.447 375.324 197.527 375.006 198.42C374.688 199.311 374.227 199.991 373.625 200.46C373.023 200.926 372.294 201.159 371.438 201.159ZM371.438 199.909C372.286 199.909 372.945 199.5 373.415 198.682C373.884 197.864 374.119 196.697 374.119 195.182C374.119 194.174 374.011 193.316 373.795 192.608C373.583 191.9 373.277 191.36 372.875 190.989C372.477 190.617 371.998 190.432 371.438 190.432C370.597 190.432 369.939 190.847 369.466 191.676C368.992 192.502 368.756 193.67 368.756 195.182C368.756 196.189 368.862 197.045 369.074 197.75C369.286 198.455 369.591 198.991 369.989 199.358C370.39 199.725 370.873 199.909 371.438 199.909Z" fill="black"/>
<rect x="348" y="57" width="40" height="40" fill="#EFEFEF" stroke="#AFAFAF" stroke-width="2"/>
<path d="M365.227 76.5568V77.8068H360.136V76.5568H365.227ZM371.291 83.1591C370.511 83.1591 369.821 83.0208 369.223 82.7443C368.628 82.464 368.164 82.0795 367.831 81.5909C367.498 81.0985 367.333 80.5379 367.337 79.9091C367.333 79.4167 367.429 78.9621 367.626 78.5455C367.823 78.125 368.092 77.7746 368.433 77.4943C368.778 77.2102 369.162 77.0303 369.587 76.9545V76.8864C369.03 76.7424 368.587 76.4299 368.257 75.9489C367.928 75.464 367.765 74.9129 367.768 74.2955C367.765 73.7045 367.914 73.1761 368.217 72.7102C368.52 72.2443 368.937 71.8769 369.467 71.608C370.001 71.339 370.609 71.2045 371.291 71.2045C371.965 71.2045 372.568 71.339 373.098 71.608C373.628 71.8769 374.045 72.2443 374.348 72.7102C374.655 73.1761 374.81 73.7045 374.814 74.2955C374.81 74.9129 374.642 75.464 374.308 75.9489C373.979 76.4299 373.541 76.7424 372.996 76.8864V76.9545C373.416 77.0303 373.795 77.2102 374.132 77.4943C374.469 77.7746 374.738 78.125 374.939 78.5455C375.14 78.9621 375.242 79.4167 375.246 79.9091C375.242 80.5379 375.071 81.0985 374.734 81.5909C374.401 82.0795 373.937 82.464 373.342 82.7443C372.751 83.0208 372.068 83.1591 371.291 83.1591ZM371.291 81.9091C371.818 81.9091 372.272 81.8239 372.655 81.6534C373.037 81.483 373.333 81.2424 373.541 80.9318C373.75 80.6212 373.856 80.2576 373.859 79.8409C373.856 79.4015 373.742 79.0133 373.518 78.6761C373.295 78.339 372.99 78.0739 372.604 77.8807C372.221 77.6875 371.784 77.5909 371.291 77.5909C370.795 77.5909 370.352 77.6875 369.962 77.8807C369.575 78.0739 369.27 78.339 369.047 78.6761C368.827 79.0133 368.719 79.4015 368.723 79.8409C368.719 80.2576 368.82 80.6212 369.024 80.9318C369.232 81.2424 369.53 81.483 369.916 81.6534C370.303 81.8239 370.761 81.9091 371.291 81.9091ZM371.291 76.3864C371.708 76.3864 372.077 76.303 372.399 76.1364C372.725 75.9697 372.981 75.7367 373.166 75.4375C373.352 75.1383 373.446 74.7879 373.45 74.3864C373.446 73.9924 373.354 73.6496 373.172 73.358C372.99 73.0625 372.738 72.8352 372.416 72.6761C372.094 72.5133 371.719 72.4318 371.291 72.4318C370.856 72.4318 370.475 72.5133 370.149 72.6761C369.823 72.8352 369.571 73.0625 369.393 73.358C369.215 73.6496 369.128 73.9924 369.132 74.3864C369.128 74.7879 369.217 75.1383 369.399 75.4375C369.585 75.7367 369.84 75.9697 370.166 76.1364C370.492 76.303 370.867 76.3864 371.291 76.3864Z" fill="black"/>
<rect x="348" y="97" width="40" height="40" fill="#EFEFEF" stroke="#AFAFAF" stroke-width="2"/>
<path d="M361.227 116.557V117.807H356.136V116.557H361.227ZM367.655 111.364V123H366.246V112.841H366.178L363.337 114.727V113.295L366.246 111.364H367.655ZM374.797 123.159C373.941 123.159 373.212 122.926 372.609 122.46C372.007 121.991 371.547 121.311 371.229 120.42C370.911 119.527 370.751 118.447 370.751 117.182C370.751 115.924 370.911 114.85 371.229 113.96C371.551 113.066 372.013 112.384 372.615 111.915C373.221 111.441 373.948 111.205 374.797 111.205C375.645 111.205 376.371 111.441 376.973 111.915C377.579 112.384 378.041 113.066 378.359 113.96C378.681 114.85 378.842 115.924 378.842 117.182C378.842 118.447 378.683 119.527 378.365 120.42C378.047 121.311 377.587 121.991 376.984 122.46C376.382 122.926 375.653 123.159 374.797 123.159ZM374.797 121.909C375.645 121.909 376.304 121.5 376.774 120.682C377.244 119.864 377.479 118.697 377.479 117.182C377.479 116.174 377.371 115.316 377.155 114.608C376.943 113.9 376.636 113.36 376.234 112.989C375.837 112.617 375.357 112.432 374.797 112.432C373.956 112.432 373.299 112.847 372.825 113.676C372.352 114.502 372.115 115.67 372.115 117.182C372.115 118.189 372.221 119.045 372.433 119.75C372.645 120.455 372.95 120.991 373.348 121.358C373.75 121.725 374.232 121.909 374.797 121.909Z" fill="black"/>
<path d="M282.227 116.557V117.807H277.136V116.557H282.227ZM288.655 111.364V123H287.246V112.841H287.178L284.337 114.727V113.295L287.246 111.364H288.655ZM295.797 123.159C294.941 123.159 294.212 122.926 293.609 122.46C293.007 121.991 292.547 121.311 292.229 120.42C291.911 119.527 291.751 118.447 291.751 117.182C291.751 115.924 291.911 114.85 292.229 113.96C292.551 113.066 293.013 112.384 293.615 111.915C294.221 111.441 294.948 111.205 295.797 111.205C296.645 111.205 297.371 111.441 297.973 111.915C298.579 112.384 299.041 113.066 299.359 113.96C299.681 114.85 299.842 115.924 299.842 117.182C299.842 118.447 299.683 119.527 299.365 120.42C299.047 121.311 298.587 121.991 297.984 122.46C297.382 122.926 296.653 123.159 295.797 123.159ZM295.797 121.909C296.645 121.909 297.304 121.5 297.774 120.682C298.244 119.864 298.479 118.697 298.479 117.182C298.479 116.174 298.371 115.316 298.155 114.608C297.943 113.9 297.636 113.36 297.234 112.989C296.837 112.617 296.357 112.432 295.797 112.432C294.956 112.432 294.299 112.847 293.825 113.676C293.352 114.502 293.115 115.67 293.115 117.182C293.115 118.189 293.221 119.045 293.433 119.75C293.645 120.455 293.95 120.991 294.348 121.358C294.75 121.725 295.232 121.909 295.797 121.909Z" fill="black"/>
<path d="M289.002 239.159C288.222 239.159 287.532 239.021 286.934 238.744C286.339 238.464 285.875 238.08 285.542 237.591C285.209 237.098 285.044 236.538 285.048 235.909C285.044 235.417 285.14 234.962 285.337 234.545C285.534 234.125 285.803 233.775 286.144 233.494C286.489 233.21 286.873 233.03 287.298 232.955V232.886C286.741 232.742 286.298 232.43 285.968 231.949C285.638 231.464 285.476 230.913 285.479 230.295C285.476 229.705 285.625 229.176 285.928 228.71C286.231 228.244 286.648 227.877 287.178 227.608C287.712 227.339 288.32 227.205 289.002 227.205C289.676 227.205 290.279 227.339 290.809 227.608C291.339 227.877 291.756 228.244 292.059 228.71C292.366 229.176 292.521 229.705 292.525 230.295C292.521 230.913 292.353 231.464 292.019 231.949C291.69 232.43 291.252 232.742 290.707 232.886V232.955C291.127 233.03 291.506 233.21 291.843 233.494C292.18 233.775 292.449 234.125 292.65 234.545C292.851 234.962 292.953 235.417 292.957 235.909C292.953 236.538 292.782 237.098 292.445 237.591C292.112 238.08 291.648 238.464 291.053 238.744C290.462 239.021 289.779 239.159 289.002 239.159ZM289.002 237.909C289.529 237.909 289.983 237.824 290.366 237.653C290.748 237.483 291.044 237.242 291.252 236.932C291.46 236.621 291.567 236.258 291.57 235.841C291.567 235.402 291.453 235.013 291.229 234.676C291.006 234.339 290.701 234.074 290.315 233.881C289.932 233.687 289.495 233.591 289.002 233.591C288.506 233.591 288.063 233.687 287.673 233.881C287.286 234.074 286.981 234.339 286.758 234.676C286.538 235.013 286.43 235.402 286.434 235.841C286.43 236.258 286.531 236.621 286.735 236.932C286.943 237.242 287.241 237.483 287.627 237.653C288.013 237.824 288.472 237.909 289.002 237.909ZM289.002 232.386C289.419 232.386 289.788 232.303 290.11 232.136C290.436 231.97 290.692 231.737 290.877 231.438C291.063 231.138 291.157 230.788 291.161 230.386C291.157 229.992 291.065 229.65 290.883 229.358C290.701 229.062 290.449 228.835 290.127 228.676C289.805 228.513 289.43 228.432 289.002 228.432C288.567 228.432 288.186 228.513 287.86 228.676C287.534 228.835 287.282 229.062 287.104 229.358C286.926 229.65 286.839 229.992 286.843 230.386C286.839 230.788 286.928 231.138 287.11 231.438C287.296 231.737 287.551 231.97 287.877 232.136C288.203 232.303 288.578 232.386 289.002 232.386Z" fill="black"/>
<path d="M285.295 189.364V201H283.886V190.841H283.818L280.977 192.727V191.295L283.886 189.364H285.295ZM292.438 201.159C291.581 201.159 290.852 200.926 290.25 200.46C289.648 199.991 289.188 199.311 288.869 198.42C288.551 197.527 288.392 196.447 288.392 195.182C288.392 193.924 288.551 192.85 288.869 191.96C289.191 191.066 289.653 190.384 290.256 189.915C290.862 189.441 291.589 189.205 292.438 189.205C293.286 189.205 294.011 189.441 294.614 189.915C295.22 190.384 295.682 191.066 296 191.96C296.322 192.85 296.483 193.924 296.483 195.182C296.483 196.447 296.324 197.527 296.006 198.42C295.688 199.311 295.227 199.991 294.625 200.46C294.023 200.926 293.294 201.159 292.438 201.159ZM292.438 199.909C293.286 199.909 293.945 199.5 294.415 198.682C294.884 197.864 295.119 196.697 295.119 195.182C295.119 194.174 295.011 193.316 294.795 192.608C294.583 191.9 294.277 191.36 293.875 190.989C293.477 190.617 292.998 190.432 292.438 190.432C291.597 190.432 290.939 190.847 290.466 191.676C289.992 192.502 289.756 193.67 289.756 195.182C289.756 196.189 289.862 197.045 290.074 197.75C290.286 198.455 290.591 198.991 290.989 199.358C291.39 199.725 291.873 199.909 292.438 199.909Z" fill="black"/>
<path d="M65.0872 8.45455L68.0204 13.4119H68.1341L71.0815 8.45455H74.5545L70.1156 15.7273L74.6539 23H71.117L68.1341 18.0355H68.0204L65.0375 23H61.5147L66.0673 15.7273L61.6 8.45455H65.0872ZM83.0763 16.88H85.7163V19.6H83.0763V16.88ZM76.0363 15.38H92.7763V17.48H76.0363V15.38ZM77.8963 19.06H90.7563V24.76H88.0963V21.16H77.8963V19.06ZM83.0763 6.28H85.7163V9H83.0763V6.28ZM82.9163 9.2H85.2563V9.58C85.2563 12.4 82.5763 14.36 77.5363 14.72L76.7363 12.74C81.1963 12.46 82.9163 11 82.9163 9.58V9.2ZM83.5363 9.2H85.8763V9.58C85.8763 11 87.5963 12.46 92.0563 12.74L91.2563 14.72C86.1963 14.36 83.5363 12.4 83.5363 9.58V9.2ZM77.6363 7.94H91.1763V10H77.6363V7.94ZM111.824 6.26H114.504V15.74H111.824V6.26ZM101.964 16.48H114.504V21.48H104.624V23.72H102.004V19.58H111.864V18.52H101.964V16.48ZM102.004 22.6H115.004V24.66H102.004V22.6ZM99.8637 7.38H109.844V9.42H99.8637V7.38ZM99.6437 15.42L99.3837 13.32C102.624 13.32 106.944 13.26 110.524 12.82L110.664 14.72C107.004 15.32 102.844 15.4 99.6437 15.42ZM101.324 8.3H103.864V14.36H101.324V8.3ZM105.804 8.3H108.384V14.36H105.804V8.3ZM130.362 6.24H133.002V24.82H130.362V6.24ZM127.182 12.76H130.662V14.92H127.182V12.76ZM118.302 18.48H119.782C122.842 18.48 125.122 18.44 127.742 18.02L127.982 20.14C125.302 20.56 122.902 20.64 119.782 20.64H118.302V18.48ZM118.302 7.8H126.882V9.96H120.942V19.16H118.302V7.8ZM120.342 12.96H126.242V15.04H120.342V12.96Z" fill="black"/>
<path d="M291.254 8.45455H294.698L298.015 14.7188H298.157L301.474 8.45455H304.919L299.613 17.858V23H296.559V17.858L291.254 8.45455ZM313.174 16.88H315.814V19.6H313.174V16.88ZM306.134 15.38H322.874V17.48H306.134V15.38ZM307.994 19.06H320.854V24.76H318.194V21.16H307.994V19.06ZM313.174 6.28H315.814V9H313.174V6.28ZM313.014 9.2H315.354V9.58C315.354 12.4 312.674 14.36 307.634 14.72L306.834 12.74C311.294 12.46 313.014 11 313.014 9.58V9.2ZM313.634 9.2H315.974V9.58C315.974 11 317.694 12.46 322.154 12.74L321.354 14.72C316.294 14.36 313.634 12.4 313.634 9.58V9.2ZM307.734 7.94H321.274V10H307.734V7.94ZM341.921 6.26H344.601V15.74H341.921V6.26ZM332.061 16.48H344.601V21.48H334.721V23.72H332.101V19.58H341.961V18.52H332.061V16.48ZM332.101 22.6H345.101V24.66H332.101V22.6ZM329.961 7.38H339.941V9.42H329.961V7.38ZM329.741 15.42L329.481 13.32C332.721 13.32 337.041 13.26 340.621 12.82L340.761 14.72C337.101 15.32 332.941 15.4 329.741 15.42ZM331.421 8.3H333.961V14.36H331.421V8.3ZM335.901 8.3H338.481V14.36H335.901V8.3ZM360.46 6.24H363.1V24.82H360.46V6.24ZM357.28 12.76H360.76V14.92H357.28V12.76ZM348.4 18.48H349.88C352.94 18.48 355.22 18.44 357.84 18.02L358.08 20.14C355.4 20.56 353 20.64 349.88 20.64H348.4V18.48ZM348.4 7.8H356.98V9.96H351.04V19.16H348.4V7.8ZM350.44 12.96H356.34V15.04H350.44V12.96Z" fill="black"/>
</svg>
