<svg width="408" height="281" viewBox="0 0 408 281" fill="none" xmlns="http://www.w3.org/2000/svg">
<path d="M29.5675 5.90909V19H27.9823V7.57102H27.9056L24.7096 9.69318V8.08239L27.9823 5.90909H29.5675ZM28.4553 24.7528C27.0959 24.7528 25.8005 24.5462 24.5689 24.1328C23.3417 23.7195 22.2145 23.1357 21.1875 22.3814C20.1648 21.6314 19.2763 20.7429 18.5221 19.7159C17.7721 18.6932 17.1904 17.5682 16.777 16.3409C16.3637 15.1094 16.157 13.8139 16.157 12.4545C16.157 11.0952 16.3637 9.80185 16.777 8.57457C17.1904 7.34304 17.7721 6.21591 18.5221 5.19318C19.2763 4.16619 20.1648 3.2777 21.1875 2.5277C22.2145 1.77344 23.3417 1.18963 24.5689 0.776278C25.8005 0.362926 27.0959 0.15625 28.4553 0.15625C29.8147 0.15625 31.108 0.362926 32.3353 0.776278C33.5668 1.18963 34.6939 1.77344 35.7167 2.5277C36.7436 3.2777 37.6321 4.16619 38.3821 5.19318C39.1364 6.21591 39.7202 7.34304 40.1336 8.57457C40.5469 9.80185 40.7536 11.0952 40.7536 12.4545C40.7536 13.8139 40.5469 15.1094 40.1336 16.3409C39.7202 17.5682 39.1364 18.6932 38.3821 19.7159C37.6321 20.7429 36.7436 21.6314 35.7167 22.3814C34.6939 23.1357 33.5668 23.7195 32.3353 24.1328C31.108 24.5462 29.8147 24.7528 28.4553 24.7528ZM28.4553 23.2699C29.6527 23.2699 30.7905 23.0866 31.8686 22.7202C32.951 22.358 33.9418 21.8445 34.8409 21.1797C35.7444 20.5192 36.5263 19.7393 37.1868 18.8402C37.8516 17.9368 38.3651 16.946 38.7273 15.8679C39.0895 14.7855 39.2706 13.6477 39.2706 12.4545C39.2706 11.2571 39.0895 10.1193 38.7273 9.04119C38.3651 7.95881 37.8516 6.96804 37.1868 6.06889C36.5263 5.16548 35.7444 4.38352 34.8409 3.72301C33.9418 3.05824 32.951 2.54474 31.8686 2.18253C30.7905 1.82031 29.6527 1.6392 28.4553 1.6392C27.2579 1.6392 26.1179 1.82031 25.0356 2.18253C23.9574 2.54474 22.9667 3.05824 22.0632 3.72301C21.1641 4.38352 20.3821 5.16548 19.7174 6.06889C19.0569 6.96804 18.5455 7.95881 18.1833 9.04119C17.8211 10.1193 17.64 11.2571 17.64 12.4545C17.64 13.6477 17.8211 14.7855 18.1833 15.8679C18.5455 16.946 19.0569 17.9368 19.7174 18.8402C20.3821 19.7393 21.1641 20.5192 22.0632 21.1797C22.9667 21.8445 23.9574 22.358 25.0356 22.7202C26.1179 23.0866 27.2579 23.2699 28.4553 23.2699ZM48.1526 4.42H49.6286V5.932H57.4946V4.42H58.9886V9.784H48.1526V4.42ZM49.6286 7.084V8.632H57.4946V7.084H49.6286ZM46.1906 11.152H60.8966V12.358H46.1906V11.152ZM47.9726 13.834H59.0246V17.47H49.4846V19.468H48.0086V16.39H57.5486V14.968H47.9726V13.834ZM48.0086 19.072H59.5106V20.224H48.0086V19.072ZM74.2872 4.114H75.7812V20.422H74.2872V4.114ZM71.1912 10.378H74.6472V11.602H71.1912V10.378ZM63.0012 15.274H64.2432C67.1232 15.274 69.1572 15.184 71.5512 14.752L71.6952 15.994C69.2472 16.426 67.1772 16.534 64.2432 16.534H63.0012V15.274ZM62.9652 5.644H70.2372V11.35H64.4772V15.652H63.0012V10.126H68.7612V6.868H62.9652V5.644ZM90.4318 4.15H91.9438V14.14H90.4318V4.15ZM79.4338 11.926H80.7478C83.6998 11.926 85.8778 11.836 88.4878 11.404L88.6498 12.628C85.9678 13.078 83.7718 13.15 80.7478 13.15H79.4338V11.926ZM79.3978 5.158H86.7778V9.658H80.8918V12.61H79.4338V8.488H85.3198V6.382H79.3978V5.158ZM86.5798 14.5C89.9638 14.5 92.0518 15.562 92.0518 17.434C92.0518 19.306 89.9638 20.386 86.5798 20.386C83.1778 20.386 81.1258 19.306 81.1258 17.434C81.1258 15.562 83.1778 14.5 86.5798 14.5ZM86.5798 15.688C84.0958 15.688 82.6018 16.318 82.6018 17.434C82.6018 18.55 84.0958 19.198 86.5798 19.198C89.0638 19.198 90.5578 18.55 90.5578 17.434C90.5578 16.318 89.0638 15.688 86.5798 15.688ZM102.148 4.402C105.73 4.402 107.872 5.41 107.872 7.228C107.872 9.046 105.73 10.054 102.148 10.054C98.5484 10.054 96.4244 9.046 96.4244 7.228C96.4244 5.41 98.5484 4.402 102.148 4.402ZM102.148 5.536C99.4844 5.536 97.9544 6.148 97.9544 7.228C97.9544 8.308 99.4844 8.92 102.148 8.92C104.794 8.92 106.324 8.308 106.324 7.228C106.324 6.148 104.794 5.536 102.148 5.536ZM94.7864 11.134H109.492V12.34H94.7864V11.134ZM96.5684 13.726H107.62V17.398H98.0804V19.378H96.6044V16.318H106.144V14.878H96.5684V13.726ZM96.6044 19.054H108.106V20.224H96.6044V19.054ZM119.684 5.536H120.908V8.452C120.908 12.052 118.964 15.562 116.39 16.93L115.472 15.742C117.83 14.554 119.684 11.422 119.684 8.452V5.536ZM119.954 5.536H121.16V8.452C121.16 11.314 122.978 14.284 125.282 15.436L124.364 16.624C121.844 15.274 119.954 11.944 119.954 8.452V5.536ZM126.704 4.132H128.216V20.404H126.704V4.132ZM127.856 10.72H130.88V11.98H127.856V10.72ZM135.522 9.64H136.998V12.718H135.522V9.64ZM141.498 9.64H142.974V12.718H141.498V9.64ZM131.886 12.178H146.592V13.384H131.886V12.178ZM139.23 14.608C142.722 14.608 144.81 15.634 144.81 17.488C144.81 19.342 142.722 20.386 139.23 20.386C135.738 20.386 133.65 19.342 133.65 17.488C133.65 15.634 135.738 14.608 139.23 14.608ZM139.23 15.76C136.692 15.76 135.162 16.39 135.162 17.488C135.162 18.604 136.692 19.216 139.23 19.216C141.786 19.216 143.298 18.604 143.298 17.488C143.298 16.39 141.786 15.76 139.23 15.76ZM139.248 4.42C142.776 4.42 144.972 5.554 144.972 7.462C144.972 9.352 142.776 10.468 139.248 10.468C135.702 10.468 133.524 9.352 133.524 7.462C133.524 5.554 135.702 4.42 139.248 4.42ZM139.248 5.59C136.656 5.59 135.054 6.274 135.054 7.462C135.054 8.632 136.656 9.316 139.248 9.316C141.84 9.316 143.442 8.632 143.442 7.462C143.442 6.274 141.84 5.59 139.248 5.59ZM148.067 6.904H156.131V8.128H148.067V6.904ZM152.099 9.208C154.133 9.208 155.609 10.738 155.609 12.934C155.609 15.112 154.133 16.642 152.099 16.642C150.083 16.642 148.607 15.112 148.607 12.934C148.607 10.738 150.083 9.208 152.099 9.208ZM152.099 10.486C150.857 10.486 149.957 11.494 149.957 12.934C149.957 14.374 150.857 15.382 152.099 15.382C153.359 15.382 154.277 14.374 154.277 12.934C154.277 11.494 153.359 10.486 152.099 10.486ZM160.433 4.132H161.873V20.404H160.433V4.132ZM157.841 10.972H160.919V12.214H157.841V10.972ZM156.959 4.492H158.363V19.612H156.959V4.492ZM151.379 4.6H152.855V7.66H151.379V4.6ZM180.812 4.114H182.306V20.422H180.812V4.114ZM173.72 5.374C176.132 5.374 177.86 7.588 177.86 11.044C177.86 14.518 176.132 16.732 173.72 16.732C171.326 16.732 169.598 14.518 169.598 11.044C169.598 7.588 171.326 5.374 173.72 5.374ZM173.72 6.724C172.136 6.724 171.02 8.416 171.02 11.044C171.02 13.69 172.136 15.418 173.72 15.418C175.322 15.418 176.42 13.69 176.42 11.044C176.42 8.416 175.322 6.724 173.72 6.724ZM186.12 5.716H193.608V16.318H186.12V5.716ZM192.15 6.922H187.578V15.112H192.15V6.922ZM197.01 4.114H198.504V20.422H197.01V4.114ZM205.703 6.454H206.909V9.1C206.909 12.538 204.839 15.994 202.247 17.272L201.383 16.084C203.741 14.968 205.703 11.908 205.703 9.1V6.454ZM205.991 6.454H207.197V9.1C207.197 11.854 209.159 14.662 211.553 15.688L210.707 16.876C208.079 15.652 205.991 12.484 205.991 9.1V6.454ZM201.923 5.788H211.013V7.048H201.923V5.788ZM213.209 4.132H214.703V20.404H213.209V4.132ZM222.874 5.302C225.412 5.302 227.23 6.868 227.23 9.136C227.23 11.422 225.412 12.988 222.874 12.988C220.336 12.988 218.5 11.422 218.5 9.136C218.5 6.868 220.336 5.302 222.874 5.302ZM222.874 6.598C221.182 6.598 219.958 7.624 219.958 9.136C219.958 10.648 221.182 11.692 222.874 11.692C224.548 11.692 225.772 10.648 225.772 9.136C225.772 7.624 224.548 6.598 222.874 6.598ZM229.354 4.114H230.848V20.422H229.354V4.114ZM217.888 16.858L217.672 15.616C220.642 15.616 224.746 15.598 228.292 15.04L228.418 16.138C224.764 16.84 220.786 16.858 217.888 16.858ZM240.301 11.512H251.569V12.736H240.301V11.512ZM238.501 17.074H253.243V18.316H238.501V17.074ZM245.107 12.268H246.583V17.47H245.107V12.268ZM240.301 5.5H241.795V12.052H240.301V5.5ZM266.507 4.114H268.001V20.422H266.507V4.114ZM259.415 5.374C261.827 5.374 263.555 7.588 263.555 11.044C263.555 14.518 261.827 16.732 259.415 16.732C257.021 16.732 255.293 14.518 255.293 11.044C255.293 7.588 257.021 5.374 259.415 5.374ZM259.415 6.724C257.831 6.724 256.715 8.416 256.715 11.044C256.715 13.69 257.831 15.418 259.415 15.418C261.017 15.418 262.115 13.69 262.115 11.044C262.115 8.416 261.017 6.724 259.415 6.724ZM270.898 17.002H285.64V18.244H270.898V17.002ZM277.486 6.328H278.746V7.678C278.746 11.008 275.416 13.528 272.212 14.194L271.6 13.006C274.408 12.52 277.486 10.252 277.486 7.678V6.328ZM277.756 6.328H279.016V7.678C279.016 10.252 282.112 12.484 284.956 12.934L284.362 14.14C281.104 13.492 277.756 11.008 277.756 7.678V6.328ZM272.104 5.734H284.398V6.976H272.104V5.734ZM287.078 11.692H301.838V12.826H287.078V11.692ZM288.824 14.14H299.984V17.614H290.354V19.522H288.878V16.588H298.526V15.202H288.824V14.14ZM288.878 19.126H300.506V20.206H288.878V19.126ZM288.95 4.6H299.93V7.984H290.462V9.748H288.986V6.976H298.472V5.662H288.95V4.6ZM288.986 9.388H300.236V10.468H288.986V9.388ZM320.364 4.132H321.804V20.404H320.364V4.132ZM314.442 9.964H317.556V11.206H314.442V9.964ZM317.106 4.51H318.51V19.576H317.106V4.51ZM311.31 6.652H312.462V8.722C312.462 12.286 311.094 15.652 308.7 17.164L307.782 16.048C310.05 14.68 311.31 11.71 311.31 8.722V6.652ZM311.616 6.652H312.768V8.722C312.768 11.548 313.992 14.374 316.224 15.67L315.306 16.768C312.93 15.328 311.616 12.124 311.616 8.722V6.652ZM308.232 6.022H315.666V7.264H308.232V6.022ZM336.076 4.132H337.57V20.404H336.076V4.132ZM332.278 10.648H336.742V11.89H332.278V10.648ZM330.856 5.878H332.332C332.332 10.522 330.406 14.626 325.006 17.326L324.178 16.156C328.912 13.834 330.856 10.378 330.856 6.13V5.878ZM324.88 5.878H331.648V7.102H324.88V5.878ZM351.519 4.132H353.013V13.582H351.519V4.132ZM352.365 8.272H355.425V9.532H352.365V8.272ZM342.789 14.302H344.247V16.03H351.537V14.302H353.013V20.188H342.789V14.302ZM344.247 17.182V18.982H351.537V17.182H344.247ZM340.431 5.788H350.043V7.012H340.431V5.788ZM345.237 7.75C347.559 7.75 349.125 8.884 349.125 10.612C349.125 12.34 347.559 13.474 345.237 13.474C342.897 13.474 341.331 12.34 341.331 10.612C341.331 8.884 342.897 7.75 345.237 7.75ZM345.237 8.884C343.743 8.884 342.753 9.568 342.753 10.612C342.753 11.656 343.743 12.34 345.237 12.34C346.695 12.34 347.703 11.656 347.703 10.612C347.703 9.568 346.695 8.884 345.237 8.884ZM344.481 3.97H345.975V6.454H344.481V3.97ZM368.419 4.132H369.913V20.404H368.419V4.132ZM357.619 5.716H359.095V15.796H357.619V5.716ZM357.619 14.914H358.951C361.417 14.914 363.991 14.734 366.745 14.158L366.925 15.436C364.099 16.012 361.525 16.21 358.951 16.21H357.619V14.914ZM383.79 4.114H385.302V20.422H383.79V4.114ZM384.942 10.54H387.966V11.8H384.942V10.54ZM373.476 15.112H374.754C377.76 15.112 379.866 15.004 382.296 14.554L382.458 15.814C379.956 16.282 377.814 16.372 374.754 16.372H373.476V15.112ZM373.476 5.698H381.036V6.922H374.952V15.67H373.476V5.698ZM390.571 19.1023C390.255 19.1023 389.985 18.9893 389.759 18.7635C389.533 18.5376 389.42 18.267 389.42 17.9517C389.42 17.6364 389.533 17.3658 389.759 17.1399C389.985 16.9141 390.255 16.8011 390.571 16.8011C390.886 16.8011 391.157 16.9141 391.382 17.1399C391.608 17.3658 391.721 17.6364 391.721 17.9517C391.721 18.1605 391.668 18.3523 391.561 18.527C391.459 18.7017 391.321 18.8423 391.146 18.9489C390.975 19.0511 390.784 19.1023 390.571 19.1023ZM205.207 37.9091V48.4176L209.247 44.3651L210.244 45.3494L204.504 51.0767L198.777 45.3494L199.748 44.3651L203.801 48.4176V37.9091H205.207ZM8.82495 83V81.8494L13.146 77.1193C13.6531 76.5653 14.0707 76.0838 14.3988 75.6747C14.7269 75.2614 14.9698 74.8736 15.1275 74.5114C15.2894 74.1449 15.3704 73.7614 15.3704 73.3608C15.3704 72.9006 15.2596 72.5021 15.038 72.1655C14.8207 71.8288 14.5224 71.5689 14.1431 71.3857C13.7639 71.2024 13.3377 71.1108 12.8647 71.1108C12.3619 71.1108 11.923 71.2152 11.548 71.424C11.1772 71.6286 10.8896 71.9162 10.685 72.2869C10.4848 72.6577 10.3846 73.0923 10.3846 73.5909H8.87609C8.87609 72.8239 9.05293 72.1506 9.40663 71.571C9.76032 70.9915 10.2419 70.5398 10.8512 70.2159C11.4649 69.892 12.1531 69.7301 12.9159 69.7301C13.6829 69.7301 14.3626 69.892 14.9549 70.2159C15.5473 70.5398 16.0117 70.9766 16.3484 71.5263C16.685 72.076 16.8534 72.6875 16.8534 73.3608C16.8534 73.8423 16.766 74.3132 16.5913 74.7734C16.4208 75.2294 16.1225 75.7386 15.6964 76.3011C15.2745 76.8594 14.6886 77.5412 13.9386 78.3466L10.9982 81.4915V81.5938H17.0835V83H8.82495ZM12.9542 88.7528C11.5948 88.7528 10.2994 88.5462 9.06785 88.1328C7.84057 87.7195 6.71344 87.1357 5.68646 86.3814C4.66373 85.6314 3.77523 84.7429 3.02097 83.7159C2.27097 82.6932 1.6893 81.5682 1.27594 80.3409C0.862592 79.1094 0.655916 77.8139 0.655916 76.4545C0.655916 75.0952 0.862592 73.8018 1.27594 72.5746C1.6893 71.343 2.27097 70.2159 3.02097 69.1932C3.77523 68.1662 4.66373 67.2777 5.68646 66.5277C6.71344 65.7734 7.84057 65.1896 9.06785 64.7763C10.2994 64.3629 11.5948 64.1562 12.9542 64.1562C14.3136 64.1562 15.6069 64.3629 16.8342 64.7763C18.0657 65.1896 19.1928 65.7734 20.2156 66.5277C21.2426 67.2777 22.1311 68.1662 22.8811 69.1932C23.6353 70.2159 24.2191 71.343 24.6325 72.5746C25.0458 73.8018 25.2525 75.0952 25.2525 76.4545C25.2525 77.8139 25.0458 79.1094 24.6325 80.3409C24.2191 81.5682 23.6353 82.6932 22.8811 83.7159C22.1311 84.7429 21.2426 85.6314 20.2156 86.3814C19.1928 87.1357 18.0657 87.7195 16.8342 88.1328C15.6069 88.5462 14.3136 88.7528 12.9542 88.7528ZM12.9542 87.2699C14.1517 87.2699 15.2894 87.0866 16.3676 86.7202C17.45 86.358 18.4407 85.8445 19.3399 85.1797C20.2433 84.5192 21.0252 83.7393 21.6857 82.8402C22.3505 81.9368 22.864 80.946 23.2262 79.8679C23.5884 78.7855 23.7696 77.6477 23.7696 76.4545C23.7696 75.2571 23.5884 74.1193 23.2262 73.0412C22.864 71.9588 22.3505 70.968 21.6857 70.0689C21.0252 69.1655 20.2433 68.3835 19.3399 67.723C18.4407 67.0582 17.45 66.5447 16.3676 66.1825C15.2894 65.8203 14.1517 65.6392 12.9542 65.6392C11.7568 65.6392 10.6169 65.8203 9.53447 66.1825C8.45634 66.5447 7.46558 67.0582 6.56217 67.723C5.66302 68.3835 4.88106 69.1655 4.21629 70.0689C3.55577 70.968 3.04441 71.9588 2.68219 73.0412C2.31998 74.1193 2.13887 75.2571 2.13887 76.4545C2.13887 77.6477 2.31998 78.7855 2.68219 79.8679C3.04441 80.946 3.55577 81.9368 4.21629 82.8402C4.88106 83.7393 5.66302 84.5192 6.56217 85.1797C7.46558 85.8445 8.45634 86.358 9.53447 86.7202C10.6169 87.0866 11.7568 87.2699 12.9542 87.2699ZM37.3315 68.528C40.7695 68.528 43.0375 69.788 43.0375 71.786C43.0375 73.802 40.7695 75.044 37.3315 75.044C33.8755 75.044 31.6255 73.802 31.6255 71.786C31.6255 69.788 33.8755 68.528 37.3315 68.528ZM37.3315 69.752C34.8475 69.752 33.2095 70.544 33.2095 71.786C33.2095 73.046 34.8475 73.82 37.3315 73.82C39.8155 73.82 41.4535 73.046 41.4535 71.786C41.4535 70.544 39.8155 69.752 37.3315 69.752ZM29.9875 76.268H44.6935V77.492H29.9875V76.268ZM31.7695 82.82H43.1815V84.044H31.7695V82.82ZM31.7695 79.49H33.2635V83.432H31.7695V79.49ZM35.1175 76.79H36.5935V80.858H35.1175V76.79ZM39.4555 76.79H40.9495V80.876H39.4555V76.79ZM46.6901 69.23H53.8901V70.454H46.6901V69.23ZM49.1381 72.722H50.6141V76.7H49.1381V72.722ZM53.2961 69.23H54.7541V70.094C54.7541 71.12 54.7541 72.668 54.3221 74.63L52.8641 74.468C53.2961 72.506 53.2961 71.12 53.2961 70.094V69.23ZM56.9861 68.132H58.4801V78.194H56.9861V68.132ZM57.7961 72.65H60.8021V73.91H57.7961V72.65ZM45.8621 77.33L45.7001 76.088C48.5801 76.088 52.5581 76.034 55.8881 75.566L55.9781 76.664C52.5941 77.258 48.7241 77.33 45.8621 77.33ZM47.7701 79.004H58.4801V84.314H56.9861V80.228H47.7701V79.004ZM69.9987 71.966H74.1027V73.208H69.9987V71.966ZM65.7327 69.122H66.9387V71.12C66.9387 74.27 65.1747 76.898 62.4567 77.996L61.6827 76.808C64.0947 75.908 65.7327 73.604 65.7327 71.12V69.122ZM66.0207 69.122H67.2267V71.174C67.2267 73.442 68.8107 75.584 71.1687 76.448L70.3587 77.6C67.7667 76.592 66.0207 74.072 66.0207 71.174V69.122ZM73.5447 68.15H75.0387V80.318H73.5447V68.15ZM64.5807 82.82H75.4347V84.044H64.5807V82.82ZM64.5807 78.968H66.0747V83.396H64.5807V78.968ZM93.6898 68.132H95.2018V76.556H93.6898V68.132ZM84.5818 77.348H95.2018V81.272H86.0938V83.72H84.6358V80.156H93.7078V78.536H84.5818V77.348ZM84.6358 83.036H95.7958V84.224H84.6358V83.036ZM82.5658 69.23H91.2958V70.418H82.5658V69.23ZM82.2778 76.016L82.1158 74.774C85.0138 74.774 88.9018 74.702 92.0698 74.306L92.1598 75.404C88.9198 75.89 85.1398 75.998 82.2778 76.016ZM84.1678 69.77H85.6078V75.314H84.1678V69.77ZM88.2358 69.77H89.6938V75.314H88.2358V69.77ZM109.6 68.114H111.076V84.422H109.6V68.114ZM106.216 74.252H109.816V75.494H106.216V74.252ZM98.4224 79.274H99.6644C102.724 79.274 104.65 79.22 106.936 78.788L107.08 80.012C104.74 80.426 102.76 80.516 99.6644 80.516H98.4224V79.274ZM98.4224 69.608H105.946V70.85H99.8984V79.706H98.4224V69.608ZM99.5204 74.18H105.244V75.386H99.5204V74.18ZM113.505 75.692H128.265V76.826H113.505V75.692ZM115.251 78.14H126.411V81.614H116.781V83.522H115.305V80.588H124.953V79.202H115.251V78.14ZM115.305 83.126H126.933V84.206H115.305V83.126ZM115.377 68.6H126.357V71.984H116.889V73.748H115.413V70.976H124.899V69.662H115.377V68.6ZM115.413 73.388H126.663V74.468H115.413V73.388ZM137.844 69.788H139.068V71.102C139.068 74.072 137.232 76.61 134.514 77.618L133.74 76.43C136.17 75.566 137.844 73.406 137.844 71.102V69.788ZM138.132 69.788H139.338V71.102C139.338 73.19 140.922 75.224 143.28 76.052L142.524 77.24C139.878 76.268 138.132 73.82 138.132 71.102V69.788ZM142.398 72.362H146.016V73.604H142.398V72.362ZM134.208 69.248H142.902V70.454H134.208V69.248ZM136.224 78.752H147.078V84.404H145.584V79.976H136.224V78.752ZM145.584 68.132H147.078V77.87H145.584V68.132ZM153.161 73.64H154.637V76.718H153.161V73.64ZM159.137 73.64H160.613V76.718H159.137V73.64ZM149.525 76.178H164.231V77.384H149.525V76.178ZM156.869 78.608C160.361 78.608 162.449 79.634 162.449 81.488C162.449 83.342 160.361 84.386 156.869 84.386C153.377 84.386 151.289 83.342 151.289 81.488C151.289 79.634 153.377 78.608 156.869 78.608ZM156.869 79.76C154.331 79.76 152.801 80.39 152.801 81.488C152.801 82.604 154.331 83.216 156.869 83.216C159.425 83.216 160.937 82.604 160.937 81.488C160.937 80.39 159.425 79.76 156.869 79.76ZM156.887 68.42C160.415 68.42 162.611 69.554 162.611 71.462C162.611 73.352 160.415 74.468 156.887 74.468C153.341 74.468 151.163 73.352 151.163 71.462C151.163 69.554 153.341 68.42 156.887 68.42ZM156.887 69.59C154.295 69.59 152.693 70.274 152.693 71.462C152.693 72.632 154.295 73.316 156.887 73.316C159.479 73.316 161.081 72.632 161.081 71.462C161.081 70.274 159.479 69.59 156.887 69.59ZM165.345 70.904H173.409V72.128H165.345V70.904ZM169.377 73.208C171.411 73.208 172.887 74.738 172.887 76.934C172.887 79.112 171.411 80.642 169.377 80.642C167.361 80.642 165.885 79.112 165.885 76.934C165.885 74.738 167.361 73.208 169.377 73.208ZM169.377 74.486C168.135 74.486 167.235 75.494 167.235 76.934C167.235 78.374 168.135 79.382 169.377 79.382C170.637 79.382 171.555 78.374 171.555 76.934C171.555 75.494 170.637 74.486 169.377 74.486ZM177.711 68.132H179.151V84.404H177.711V68.132ZM175.119 74.972H178.197V76.214H175.119V74.972ZM174.237 68.492H175.641V83.612H174.237V68.492ZM168.657 68.6H170.133V71.66H168.657V68.6ZM186.282 69.446H195.012V70.67H186.282V69.446ZM186.012 77.024L185.832 75.764C188.676 75.764 192.564 75.728 195.786 75.332L195.912 76.448C192.6 76.97 188.802 77.024 186.012 77.024ZM187.884 70.31H189.324V76.196H187.884V70.31ZM191.952 70.31H193.41V76.196H191.952V70.31ZM188.028 78.806H198.9V84.404H197.388V80.03H188.028V78.806ZM197.388 68.132H198.9V77.996H197.388V68.132ZM208.025 71.174H211.157V72.416H208.025V71.174ZM204.767 68.816H205.937V70.454C205.937 72.974 204.569 75.566 202.211 76.664L201.401 75.53C203.525 74.576 204.767 72.398 204.767 70.454V68.816ZM205.055 68.816H206.207V70.526C206.207 72.38 207.377 74.234 209.375 75.044L208.601 76.196C206.279 75.224 205.055 72.938 205.055 70.526V68.816ZM213.677 68.15H215.099V76.808H213.677V68.15ZM210.491 68.438H211.913V76.664H210.491V68.438ZM204.371 77.546H215.099V81.344H205.883V83.738H204.407V80.228H213.659V78.734H204.371V77.546ZM204.407 83.036H215.729V84.224H204.407V83.036ZM222.248 68.906H223.724V71.282H228.314V68.906H229.772V76.07H222.248V68.906ZM223.724 72.434V74.864H228.314V72.434H223.724ZM232.706 68.132H234.2V76.808H232.706V68.132ZM233.552 71.714H236.594V72.938H233.552V71.714ZM223.238 83.09H224.192C226.784 83.09 228.044 83.036 229.574 82.73L229.736 83.846C228.134 84.188 226.856 84.224 224.192 84.224H223.238V83.09ZM223.202 77.708H228.512V81.434H224.678V83.882H223.238V80.354H227.072V78.842H223.202V77.708ZM229.196 77.708H234.2V84.332H232.724V78.914H229.196V77.708ZM249.265 68.132H250.759V84.404H249.265V68.132ZM244.495 69.878H245.971C245.971 74.594 243.847 78.716 238.411 81.38L237.619 80.174C242.317 77.906 244.495 74.45 244.495 70.13V69.878ZM238.357 69.878H245.143V71.102H238.357V69.878ZM265.36 71.12H270.058V72.326H265.36V71.12ZM265.36 74.63H270.094V75.836H265.36V74.63ZM269.482 68.15H270.976V80.192H269.482V68.15ZM260.518 82.82H271.372V84.044H260.518V82.82ZM260.518 79.022H262.012V83.45H260.518V79.022ZM258.394 69.212H259.87V72.092H264.28V69.212H265.738V77.42H258.394V69.212ZM259.87 73.262V76.196H264.28V73.262H259.87ZM277.652 77.834H279.146V80.48H277.652V77.834ZM284.492 68.132H285.986V84.404H284.492V68.132ZM285.5 75.044H288.506V76.304H285.5V75.044ZM273.458 81.308L273.242 80.066C276.158 80.066 280.136 80.03 283.502 79.544L283.628 80.66C280.118 81.29 276.302 81.308 273.458 81.308ZM273.512 70.094H283.25V71.3H273.512V70.094ZM278.39 72.254C280.658 72.254 282.224 73.442 282.224 75.26C282.224 77.096 280.658 78.266 278.39 78.266C276.122 78.266 274.574 77.096 274.574 75.26C274.574 73.442 276.122 72.254 278.39 72.254ZM278.39 73.406C276.932 73.406 275.978 74.144 275.978 75.26C275.978 76.376 276.932 77.114 278.39 77.114C279.848 77.114 280.82 76.376 280.82 75.26C280.82 74.144 279.848 73.406 278.39 73.406ZM277.652 68.15H279.146V70.904H277.652V68.15ZM291.133 75.728H302.311V76.952H291.133V75.728ZM289.279 81.11H304.021V82.37H289.279V81.11ZM295.867 76.25H297.361V81.614H295.867V76.25ZM291.133 69.428H302.149V70.652H292.627V76.268H291.133V69.428ZM305.1 75.692H319.86V76.826H305.1V75.692ZM306.846 78.14H318.006V81.614H308.376V83.522H306.9V80.588H316.548V79.202H306.846V78.14ZM306.9 83.126H318.528V84.206H306.9V83.126ZM306.972 68.6H317.952V71.984H308.484V73.748H307.008V70.976H316.494V69.662H306.972V68.6ZM307.008 73.388H318.258V74.468H307.008V73.388ZM331.599 72.65H335.217V73.856H331.599V72.65ZM331.473 76.736H335.181V77.942H331.473V76.736ZM337.683 68.132H339.123V84.404H337.683V68.132ZM334.425 68.546H335.829V83.576H334.425V68.546ZM330.789 70.184H332.229C332.229 74.45 330.519 78.284 326.145 80.894L325.281 79.832C329.079 77.528 330.789 74.288 330.789 70.454V70.184ZM326.001 70.184H331.383V71.408H326.001V70.184ZM345.133 69.122H346.357V71.12C346.357 74.306 344.593 76.844 341.857 77.906L341.065 76.718C343.549 75.836 345.133 73.64 345.133 71.12V69.122ZM345.385 69.122H346.609V71.174C346.609 73.388 348.229 75.476 350.605 76.322L349.867 77.492C347.185 76.52 345.385 74.036 345.385 71.174V69.122ZM352.261 68.114H353.755V80.138H352.261V68.114ZM353.287 73.118H356.167V74.36H353.287V73.118ZM343.657 82.82H354.475V84.044H343.657V82.82ZM343.657 79.004H345.151V83.414H343.657V79.004ZM368.1 68.132H369.594V77.582H368.1V68.132ZM368.946 72.272H372.006V73.532H368.946V72.272ZM359.37 78.302H360.828V80.03H368.118V78.302H369.594V84.188H359.37V78.302ZM360.828 81.182V82.982H368.118V81.182H360.828ZM357.012 69.788H366.624V71.012H357.012V69.788ZM361.818 71.75C364.14 71.75 365.706 72.884 365.706 74.612C365.706 76.34 364.14 77.474 361.818 77.474C359.478 77.474 357.912 76.34 357.912 74.612C357.912 72.884 359.478 71.75 361.818 71.75ZM361.818 72.884C360.324 72.884 359.334 73.568 359.334 74.612C359.334 75.656 360.324 76.34 361.818 76.34C363.276 76.34 364.284 75.656 364.284 74.612C364.284 73.568 363.276 72.884 361.818 72.884ZM361.062 67.97H362.556V70.454H361.062V67.97ZM384.64 68.132H386.134V84.404H384.64V68.132ZM373.84 69.716H375.316V79.796H373.84V69.716ZM373.84 78.914H375.172C377.638 78.914 380.212 78.734 382.966 78.158L383.146 79.436C380.32 80.012 377.746 80.21 375.172 80.21H373.84V78.914ZM399.651 68.114H401.163V84.422H399.651V68.114ZM400.803 74.54H403.827V75.8H400.803V74.54ZM389.337 79.112H390.615C393.621 79.112 395.727 79.004 398.157 78.554L398.319 79.814C395.817 80.282 393.675 80.372 390.615 80.372H389.337V79.112ZM389.337 69.698H396.897V70.922H390.813V79.67H389.337V69.698ZM406.072 83.1023C405.756 83.1023 405.486 82.9893 405.26 82.7635C405.034 82.5376 404.921 82.267 404.921 81.9517C404.921 81.6364 405.034 81.3658 405.26 81.1399C405.486 80.9141 405.756 80.8011 406.072 80.8011C406.387 80.8011 406.658 80.9141 406.884 81.1399C407.109 81.3658 407.222 81.6364 407.222 81.9517C407.222 82.1605 407.169 82.3523 407.062 82.527C406.96 82.7017 406.822 82.8423 406.647 82.9489C406.477 83.0511 406.285 83.1023 406.072 83.1023ZM205.207 101.909V112.418L209.247 108.365L210.244 109.349L204.504 115.077L198.777 109.349L199.748 108.365L203.801 112.418V101.909H205.207ZM79.9203 147.179C79.0766 147.179 78.3244 147.034 77.6639 146.744C77.0077 146.455 76.4857 146.052 76.0979 145.536C75.7144 145.016 75.5055 144.413 75.4715 143.727H77.0823C77.1163 144.149 77.2612 144.513 77.5169 144.82C77.7726 145.123 78.1071 145.357 78.5205 145.523C78.9338 145.69 79.3919 145.773 79.8948 145.773C80.4573 145.773 80.9558 145.675 81.3905 145.479C81.8251 145.283 82.1661 145.01 82.4132 144.661C82.6604 144.311 82.784 143.906 82.784 143.446C82.784 142.964 82.6646 142.54 82.426 142.174C82.1874 141.803 81.8379 141.513 81.3777 141.305C80.9175 141.096 80.355 140.991 79.6902 140.991H78.6419V139.585H79.6902C80.2101 139.585 80.6661 139.491 81.0581 139.304C81.4544 139.116 81.7634 138.852 81.985 138.511C82.2108 138.17 82.3237 137.77 82.3237 137.31C82.3237 136.866 82.2257 136.481 82.0297 136.153C81.8337 135.825 81.5567 135.569 81.1987 135.386C80.845 135.202 80.4274 135.111 79.9459 135.111C79.4942 135.111 79.068 135.194 78.6675 135.36C78.2712 135.522 77.9473 135.759 77.6959 136.07C77.4445 136.376 77.3081 136.747 77.2868 137.182H75.7527C75.7783 136.496 75.9849 135.895 76.3727 135.379C76.7605 134.859 77.2676 134.455 77.894 134.165C78.5247 133.875 79.2172 133.73 79.9715 133.73C80.7811 133.73 81.4757 133.894 82.0553 134.222C82.6348 134.546 83.0801 134.974 83.3912 135.507C83.7023 136.04 83.8578 136.615 83.8578 137.233C83.8578 137.97 83.6639 138.599 83.2761 139.119C82.8926 139.638 82.3706 139.999 81.7101 140.199V140.301C82.5368 140.437 83.1824 140.789 83.6469 141.356C84.1114 141.918 84.3436 142.615 84.3436 143.446C84.3436 144.158 84.1497 144.797 83.7619 145.364C83.3784 145.926 82.8543 146.369 82.1895 146.693C81.5247 147.017 80.7683 147.179 79.9203 147.179ZM79.9075 152.753C78.5482 152.753 77.2527 152.546 76.0212 152.133C74.7939 151.719 73.6668 151.136 72.6398 150.381C71.6171 149.631 70.7286 148.743 69.9743 147.716C69.2243 146.693 68.6426 145.568 68.2293 144.341C67.8159 143.109 67.6092 141.814 67.6092 140.455C67.6092 139.095 67.8159 137.802 68.2293 136.575C68.6426 135.343 69.2243 134.216 69.9743 133.193C70.7286 132.166 71.6171 131.278 72.6398 130.528C73.6668 129.773 74.7939 129.19 76.0212 128.776C77.2527 128.363 78.5482 128.156 79.9075 128.156C81.2669 128.156 82.5602 128.363 83.7875 128.776C85.019 129.19 86.1462 129.773 87.1689 130.528C88.1959 131.278 89.0844 132.166 89.8344 133.193C90.5886 134.216 91.1724 135.343 91.5858 136.575C91.9992 137.802 92.2058 139.095 92.2058 140.455C92.2058 141.814 91.9992 143.109 91.5858 144.341C91.1724 145.568 90.5886 146.693 89.8344 147.716C89.0844 148.743 88.1959 149.631 87.1689 150.381C86.1462 151.136 85.019 151.719 83.7875 152.133C82.5602 152.546 81.2669 152.753 79.9075 152.753ZM79.9075 151.27C81.105 151.27 82.2428 151.087 83.3209 150.72C84.4033 150.358 85.394 149.844 86.2932 149.18C87.1966 148.519 87.9786 147.739 88.6391 146.84C89.3038 145.937 89.8173 144.946 90.1796 143.868C90.5418 142.786 90.7229 141.648 90.7229 140.455C90.7229 139.257 90.5418 138.119 90.1796 137.041C89.8173 135.959 89.3038 134.968 88.6391 134.069C87.9786 133.165 87.1966 132.384 86.2932 131.723C85.394 131.058 84.4033 130.545 83.3209 130.183C82.2428 129.82 81.105 129.639 79.9075 129.639C78.7101 129.639 77.5702 129.82 76.4878 130.183C75.4097 130.545 74.4189 131.058 73.5155 131.723C72.6163 132.384 71.8344 133.165 71.1696 134.069C70.5091 134.968 69.9977 135.959 69.6355 137.041C69.2733 138.119 69.0922 139.257 69.0922 140.455C69.0922 141.648 69.2733 142.786 69.6355 143.868C69.9977 144.946 70.5091 145.937 71.1696 146.84C71.8344 147.739 72.6163 148.519 73.5155 149.18C74.4189 149.844 75.4097 150.358 76.4878 150.72C77.5702 151.087 78.7101 151.27 79.9075 151.27ZM109.469 132.114H110.963V148.422H109.469V132.114ZM98.5789 133.5H100.055V137.802H104.753V133.5H106.247V144.498H98.5789V133.5ZM100.055 138.99V143.274H104.753V138.99H100.055ZM118.503 140.736H120.015V144.264H118.503V140.736ZM118.503 135.012H119.709V135.372C119.709 138.216 117.855 140.412 115.119 141.276L114.435 140.106C116.847 139.386 118.503 137.568 118.503 135.372V135.012ZM118.791 135.012H119.997V135.372C119.997 137.478 121.707 139.242 124.101 139.944L123.417 141.096C120.681 140.286 118.791 138.126 118.791 135.372V135.012ZM114.813 134.256H123.759V135.462H114.813V134.256ZM118.503 132.24H120.015V134.778H118.503V132.24ZM125.613 132.114H127.107V148.422H125.613V132.114ZM114.147 145.074L113.931 143.814C116.901 143.814 121.005 143.796 124.551 143.256L124.677 144.354C121.023 145.038 117.045 145.056 114.147 145.074ZM142.424 132.132H143.864V148.404H142.424V132.132ZM139.67 138.648H142.802V139.89H139.67V138.648ZM138.734 132.492H140.138V147.576H138.734V132.492ZM130.634 143.148H131.696C134.072 143.148 135.692 143.058 137.582 142.662L137.726 143.904C135.782 144.318 134.144 144.39 131.696 144.39H130.634V143.148ZM130.634 134.112H136.682V135.336H132.11V143.706H130.634V134.112ZM158.951 136.326H163.379V137.55H158.951V136.326ZM153.479 142.644H164.333V148.422H162.839V143.832H153.479V142.644ZM162.839 132.132H164.333V141.726H162.839V132.132ZM155.387 133.032C157.781 133.032 159.581 134.652 159.581 136.956C159.581 139.26 157.781 140.862 155.387 140.862C152.975 140.862 151.193 139.26 151.193 136.956C151.193 134.652 152.975 133.032 155.387 133.032ZM155.387 134.31C153.803 134.31 152.633 135.408 152.633 136.956C152.633 138.504 153.803 139.584 155.387 139.584C156.953 139.584 158.141 138.504 158.141 136.956C158.141 135.408 156.953 134.31 155.387 134.31ZM179.524 132.132H180.964V148.404H179.524V132.132ZM173.602 137.964H176.716V139.206H173.602V137.964ZM176.266 132.51H177.67V147.576H176.266V132.51ZM170.47 134.652H171.622V136.722C171.622 140.286 170.254 143.652 167.86 145.164L166.942 144.048C169.21 142.68 170.47 139.71 170.47 136.722V134.652ZM170.776 134.652H171.928V136.722C171.928 139.548 173.152 142.374 175.384 143.67L174.466 144.768C172.09 143.328 170.776 140.124 170.776 136.722V134.652ZM167.392 134.022H174.826V135.264H167.392V134.022ZM184.374 140.455C184.374 138.844 184.583 137.363 185 136.012C185.422 134.657 186.023 133.411 186.803 132.273H188.132C187.826 132.695 187.538 133.214 187.27 133.832C187.005 134.446 186.773 135.121 186.573 135.859C186.373 136.592 186.215 137.35 186.1 138.134C185.989 138.918 185.934 139.692 185.934 140.455C185.934 141.469 186.032 142.498 186.228 143.542C186.424 144.586 186.688 145.555 187.02 146.45C187.353 147.345 187.723 148.074 188.132 148.636H186.803C186.023 147.499 185.422 146.254 185 144.903C184.583 143.548 184.374 142.065 184.374 140.455ZM200.584 133.909V147H199.05L191.916 136.722H191.788V147H190.203V133.909H191.737L198.896 144.213H199.024V133.909H200.584ZM203.396 133.909H205.288L209.737 144.776H209.89L214.339 133.909H216.231V147H214.748V137.054H214.62L210.529 147H209.097L205.007 137.054H204.879V147H203.396V133.909ZM226.209 137.182C226.132 136.534 225.821 136.031 225.275 135.673C224.73 135.315 224.061 135.136 223.268 135.136C222.689 135.136 222.182 135.23 221.747 135.418C221.316 135.605 220.98 135.863 220.737 136.191C220.498 136.519 220.379 136.892 220.379 137.31C220.379 137.659 220.462 137.96 220.628 138.211C220.799 138.458 221.016 138.665 221.28 138.831C221.544 138.993 221.821 139.127 222.111 139.234C222.401 139.336 222.667 139.419 222.91 139.483L224.24 139.841C224.581 139.93 224.96 140.054 225.378 140.212C225.799 140.369 226.202 140.585 226.586 140.857C226.973 141.126 227.293 141.471 227.544 141.893C227.796 142.315 227.922 142.832 227.922 143.446C227.922 144.153 227.736 144.793 227.365 145.364C226.999 145.935 226.462 146.388 225.755 146.725C225.052 147.062 224.197 147.23 223.191 147.23C222.254 147.23 221.442 147.079 220.756 146.776C220.074 146.474 219.537 146.052 219.145 145.511C218.758 144.969 218.538 144.341 218.487 143.625H220.123C220.166 144.119 220.332 144.528 220.622 144.852C220.916 145.172 221.287 145.411 221.734 145.568C222.186 145.722 222.672 145.798 223.191 145.798C223.797 145.798 224.34 145.7 224.821 145.504C225.303 145.304 225.684 145.027 225.966 144.673C226.247 144.315 226.388 143.898 226.388 143.42C226.388 142.986 226.266 142.632 226.023 142.359C225.78 142.087 225.461 141.865 225.064 141.695C224.668 141.524 224.24 141.375 223.78 141.247L222.169 140.787C221.146 140.493 220.336 140.073 219.74 139.528C219.143 138.982 218.845 138.268 218.845 137.386C218.845 136.653 219.043 136.014 219.439 135.469C219.84 134.919 220.377 134.493 221.05 134.19C221.728 133.884 222.484 133.73 223.319 133.73C224.163 133.73 224.913 133.881 225.569 134.184C226.226 134.482 226.745 134.891 227.129 135.411C227.517 135.931 227.721 136.521 227.743 137.182H226.209ZM233.185 140.455C233.185 142.065 232.974 143.548 232.552 144.903C232.135 146.254 231.536 147.499 230.756 148.636H229.426C229.733 148.214 230.019 147.695 230.283 147.077C230.551 146.463 230.786 145.79 230.986 145.057C231.186 144.32 231.342 143.559 231.453 142.775C231.568 141.987 231.625 141.213 231.625 140.455C231.625 139.44 231.527 138.411 231.331 137.367C231.135 136.323 230.871 135.354 230.539 134.459C230.206 133.564 229.836 132.835 229.426 132.273H230.756C231.536 133.411 232.135 134.657 232.552 136.012C232.974 137.363 233.185 138.844 233.185 140.455ZM235.626 139.692H250.386V140.826H235.626V139.692ZM237.372 142.14H248.532V145.614H238.902V147.522H237.426V144.588H247.074V143.202H237.372V142.14ZM237.426 147.126H249.054V148.206H237.426V147.126ZM237.498 132.6H248.478V135.984H239.01V137.748H237.534V134.976H247.02V133.662H237.498V132.6ZM237.534 137.388H248.784V138.468H237.534V137.388ZM260.685 133.788H261.909V135.102C261.909 138.072 260.073 140.61 257.355 141.618L256.581 140.43C259.011 139.566 260.685 137.406 260.685 135.102V133.788ZM260.973 133.788H262.179V135.102C262.179 137.19 263.763 139.224 266.121 140.052L265.365 141.24C262.719 140.268 260.973 137.82 260.973 135.102V133.788ZM265.239 136.362H268.857V137.604H265.239V136.362ZM257.049 133.248H265.743V134.454H257.049V133.248ZM259.065 142.752H269.919V148.404H268.425V143.976H259.065V142.752ZM268.425 132.132H269.919V141.87H268.425V132.132ZM276.362 137.64H277.838V140.718H276.362V137.64ZM282.338 137.64H283.814V140.718H282.338V137.64ZM272.726 140.178H287.432V141.384H272.726V140.178ZM280.07 142.608C283.562 142.608 285.65 143.634 285.65 145.488C285.65 147.342 283.562 148.386 280.07 148.386C276.578 148.386 274.49 147.342 274.49 145.488C274.49 143.634 276.578 142.608 280.07 142.608ZM280.07 143.76C277.532 143.76 276.002 144.39 276.002 145.488C276.002 146.604 277.532 147.216 280.07 147.216C282.626 147.216 284.138 146.604 284.138 145.488C284.138 144.39 282.626 143.76 280.07 143.76ZM280.088 132.42C283.616 132.42 285.812 133.554 285.812 135.462C285.812 137.352 283.616 138.468 280.088 138.468C276.542 138.468 274.364 137.352 274.364 135.462C274.364 133.554 276.542 132.42 280.088 132.42ZM280.088 133.59C277.496 133.59 275.894 134.274 275.894 135.462C275.894 136.632 277.496 137.316 280.088 137.316C282.68 137.316 284.282 136.632 284.282 135.462C284.282 134.274 282.68 133.59 280.088 133.59ZM300.067 132.132H301.561V141.582H300.067V132.132ZM300.913 136.272H303.973V137.532H300.913V136.272ZM291.337 142.302H292.795V144.03H300.085V142.302H301.561V148.188H291.337V142.302ZM292.795 145.182V146.982H300.085V145.182H292.795ZM288.979 133.788H298.591V135.012H288.979V133.788ZM293.785 135.75C296.107 135.75 297.673 136.884 297.673 138.612C297.673 140.34 296.107 141.474 293.785 141.474C291.445 141.474 289.879 140.34 289.879 138.612C289.879 136.884 291.445 135.75 293.785 135.75ZM293.785 136.884C292.291 136.884 291.301 137.568 291.301 138.612C291.301 139.656 292.291 140.34 293.785 140.34C295.243 140.34 296.251 139.656 296.251 138.612C296.251 137.568 295.243 136.884 293.785 136.884ZM293.029 131.97H294.523V134.454H293.029V131.97ZM316.967 132.132H318.461V148.404H316.967V132.132ZM306.167 133.716H307.643V143.796H306.167V133.716ZM306.167 142.914H307.499C309.965 142.914 312.539 142.734 315.293 142.158L315.473 143.436C312.647 144.012 310.073 144.21 307.499 144.21H306.167V142.914ZM332.338 132.114H333.85V148.422H332.338V132.114ZM333.49 138.54H336.514V139.8H333.49V138.54ZM322.024 143.112H323.302C326.308 143.112 328.414 143.004 330.844 142.554L331.006 143.814C328.504 144.282 326.362 144.372 323.302 144.372H322.024V143.112ZM322.024 133.698H329.584V134.922H323.5V143.67H322.024V133.698ZM339.118 147.102C338.803 147.102 338.532 146.989 338.307 146.763C338.081 146.538 337.968 146.267 337.968 145.952C337.968 145.636 338.081 145.366 338.307 145.14C338.532 144.914 338.803 144.801 339.118 144.801C339.434 144.801 339.704 144.914 339.93 145.14C340.156 145.366 340.269 145.636 340.269 145.952C340.269 146.161 340.216 146.352 340.109 146.527C340.007 146.702 339.868 146.842 339.694 146.949C339.523 147.051 339.331 147.102 339.118 147.102ZM205.207 165.909V176.418L209.247 172.365L210.244 173.349L204.504 179.077L198.777 173.349L199.748 172.365L203.801 176.418V165.909H205.207ZM39.1567 208.315V207.011L44.9096 197.909H45.8556V199.929H45.2164L40.8698 206.807V206.909H48.617V208.315H39.1567ZM45.3187 211V207.919V207.312V197.909H46.8272V211H45.3187ZM44.6539 216.753C43.2945 216.753 41.9991 216.546 40.7675 216.133C39.5403 215.719 38.4131 215.136 37.3861 214.381C36.3634 213.631 35.4749 212.743 34.7207 211.716C33.9707 210.693 33.389 209.568 32.9756 208.341C32.5623 207.109 32.3556 205.814 32.3556 204.455C32.3556 203.095 32.5623 201.802 32.9756 200.575C33.389 199.343 33.9707 198.216 34.7207 197.193C35.4749 196.166 36.3634 195.278 37.3861 194.528C38.4131 193.773 39.5403 193.19 40.7675 192.776C41.9991 192.363 43.2945 192.156 44.6539 192.156C46.0133 192.156 47.3066 192.363 48.5339 192.776C49.7654 193.19 50.8925 193.773 51.9153 194.528C52.9423 195.278 53.8307 196.166 54.5807 197.193C55.335 198.216 55.9188 199.343 56.3322 200.575C56.7455 201.802 56.9522 203.095 56.9522 204.455C56.9522 205.814 56.7455 207.109 56.3322 208.341C55.9188 209.568 55.335 210.693 54.5807 211.716C53.8307 212.743 52.9423 213.631 51.9153 214.381C50.8925 215.136 49.7654 215.719 48.5339 216.133C47.3066 216.546 46.0133 216.753 44.6539 216.753ZM44.6539 215.27C45.8513 215.27 46.9891 215.087 48.0673 214.72C49.1496 214.358 50.1404 213.844 51.0396 213.18C51.943 212.519 52.7249 211.739 53.3854 210.84C54.0502 209.937 54.5637 208.946 54.9259 207.868C55.2881 206.786 55.4692 205.648 55.4692 204.455C55.4692 203.257 55.2881 202.119 54.9259 201.041C54.5637 199.959 54.0502 198.968 53.3854 198.069C52.7249 197.165 51.943 196.384 51.0396 195.723C50.1404 195.058 49.1496 194.545 48.0673 194.183C46.9891 193.82 45.8513 193.639 44.6539 193.639C43.4565 193.639 42.3165 193.82 41.2342 194.183C40.156 194.545 39.1653 195.058 38.2619 195.723C37.3627 196.384 36.5807 197.165 35.916 198.069C35.2555 198.968 34.7441 199.959 34.3819 201.041C34.0197 202.119 33.8386 203.257 33.8386 204.455C33.8386 205.648 34.0197 206.786 34.3819 207.868C34.7441 208.946 35.2555 209.937 35.916 210.84C36.5807 211.739 37.3627 212.519 38.2619 213.18C39.1653 213.844 40.156 214.358 41.2342 214.72C42.3165 215.087 43.4565 215.27 44.6539 215.27ZM74.2152 196.114H75.7092V212.422H74.2152V196.114ZM67.1232 197.374C69.5352 197.374 71.2632 199.588 71.2632 203.044C71.2632 206.518 69.5352 208.732 67.1232 208.732C64.7292 208.732 63.0012 206.518 63.0012 203.044C63.0012 199.588 64.7292 197.374 67.1232 197.374ZM67.1232 198.724C65.5392 198.724 64.4232 200.416 64.4232 203.044C64.4232 205.69 65.5392 207.418 67.1232 207.418C68.7252 207.418 69.8232 205.69 69.8232 203.044C69.8232 200.416 68.7252 198.724 67.1232 198.724ZM85.1938 204.268H86.6878V207.112H85.1938V204.268ZM78.5878 203.746H93.2938V204.952H78.5878V203.746ZM85.9318 206.662C89.4238 206.662 91.5118 207.688 91.5118 209.524C91.5118 211.342 89.4238 212.368 85.9318 212.368C82.4398 212.368 80.3518 211.342 80.3518 209.524C80.3518 207.688 82.4398 206.662 85.9318 206.662ZM85.9318 207.814C83.3938 207.814 81.8638 208.426 81.8638 209.524C81.8638 210.604 83.3938 211.216 85.9318 211.216C88.4878 211.216 89.9998 210.604 89.9998 209.524C89.9998 208.426 88.4878 207.814 85.9318 207.814ZM84.9778 197.464H86.3098V197.95C86.3098 200.578 83.3218 202.342 79.9558 202.756L79.4158 201.568C82.3318 201.262 84.9778 199.804 84.9778 197.95V197.464ZM85.6078 197.464H86.9218V197.95C86.9218 199.804 89.5678 201.262 92.4838 201.568L91.9438 202.756C88.5778 202.342 85.6078 200.578 85.6078 197.95V197.464ZM79.9378 196.87H91.9798V198.076H79.9378V196.87ZM111.333 196.15H112.845V205.438H111.333V196.15ZM102.333 206.32H112.845V212.188H102.333V206.32ZM111.369 207.508H103.791V210.982H111.369V207.508ZM104.115 196.996C106.581 196.996 108.345 198.544 108.345 200.794C108.345 203.044 106.581 204.592 104.115 204.592C101.649 204.592 99.8669 203.044 99.8669 200.794C99.8669 198.544 101.649 196.996 104.115 196.996ZM104.115 198.238C102.495 198.238 101.325 199.282 101.325 200.794C101.325 202.306 102.495 203.332 104.115 203.332C105.735 203.332 106.905 202.306 106.905 200.794C106.905 199.282 105.735 198.238 104.115 198.238ZM122.006 200.65H125.624V201.856H122.006V200.65ZM121.88 204.736H125.588V205.942H121.88V204.736ZM128.09 196.132H129.53V212.404H128.09V196.132ZM124.832 196.546H126.236V211.576H124.832V196.546ZM121.196 198.184H122.636C122.636 202.45 120.926 206.284 116.552 208.894L115.688 207.832C119.486 205.528 121.196 202.288 121.196 198.454V198.184ZM116.408 198.184H121.79V199.408H116.408V198.184ZM143.028 196.132H144.522V204.97H143.028V196.132ZM144.108 199.876H146.934V201.118H144.108V199.876ZM138.51 197.104H140.112C140.112 201.208 137.268 203.962 132.498 205.132L131.922 203.908C136.134 202.9 138.51 200.686 138.51 197.842V197.104ZM132.642 197.104H139.41V198.328H132.642V197.104ZM133.668 205.816H135.072V207.76H137.862V205.816H139.248V212.17H133.668V205.816ZM135.072 208.912V211.018H137.862V208.912H135.072ZM142.164 205.654H143.334V207.004C143.334 209.11 142.29 211.36 140.13 212.332L139.338 211.216C141.21 210.37 142.164 208.57 142.164 207.004V205.654ZM142.434 205.654H143.586V206.968C143.586 208.552 144.522 210.388 146.394 211.216L145.584 212.332C143.424 211.36 142.434 209.11 142.434 206.968V205.654ZM155.447 196.402C159.029 196.402 161.171 197.41 161.171 199.228C161.171 201.046 159.029 202.054 155.447 202.054C151.847 202.054 149.723 201.046 149.723 199.228C149.723 197.41 151.847 196.402 155.447 196.402ZM155.447 197.536C152.783 197.536 151.253 198.148 151.253 199.228C151.253 200.308 152.783 200.92 155.447 200.92C158.093 200.92 159.623 200.308 159.623 199.228C159.623 198.148 158.093 197.536 155.447 197.536ZM148.085 203.134H162.791V204.34H148.085V203.134ZM149.867 205.726H160.919V209.398H151.379V211.378H149.903V208.318H159.443V206.878H149.867V205.726ZM149.903 211.054H161.405V212.224H149.903V211.054ZM177.356 199.066H181.514V200.308H177.356V199.066ZM180.884 196.132H182.378V204.52H180.884V196.132ZM171.902 205.366H182.378V209.254H173.414V211.72H171.956V208.138H180.902V206.554H171.902V205.366ZM171.956 211H182.99V212.188H171.956V211ZM173.054 196.636H174.278V198.166C174.278 201.172 172.478 203.602 169.76 204.574L168.986 203.386C171.434 202.558 173.054 200.524 173.054 198.166V196.636ZM173.306 196.636H174.512V198.166C174.512 200.29 176.15 202.252 178.508 203.026L177.734 204.196C175.106 203.26 173.306 200.92 173.306 198.166V196.636ZM193.878 200.344H197.55V201.586H193.878V200.344ZM197.082 196.132H198.576V205.834H197.082V196.132ZM193.23 206.32C196.578 206.32 198.648 207.454 198.648 209.362C198.648 211.288 196.578 212.386 193.23 212.386C189.864 212.386 187.794 211.288 187.794 209.362C187.794 207.454 189.864 206.32 193.23 206.32ZM193.23 207.49C190.782 207.49 189.288 208.174 189.288 209.362C189.288 210.532 190.782 211.216 193.23 211.216C195.678 211.216 197.172 210.532 197.172 209.362C197.172 208.174 195.678 207.49 193.23 207.49ZM189.342 197.77H190.566V199.084C190.566 202.09 188.73 204.664 186.03 205.672L185.256 204.484C187.668 203.602 189.342 201.424 189.342 199.084V197.77ZM189.63 197.77H190.836V199.084C190.836 201.19 192.42 203.206 194.778 204.034L194.022 205.222C191.376 204.268 189.63 201.82 189.63 199.084V197.77ZM185.706 197.32H194.4V198.544H185.706V197.32ZM201.365 198.904H209.429V200.128H201.365V198.904ZM205.397 201.208C207.431 201.208 208.907 202.738 208.907 204.934C208.907 207.112 207.431 208.642 205.397 208.642C203.381 208.642 201.905 207.112 201.905 204.934C201.905 202.738 203.381 201.208 205.397 201.208ZM205.397 202.486C204.155 202.486 203.255 203.494 203.255 204.934C203.255 206.374 204.155 207.382 205.397 207.382C206.657 207.382 207.575 206.374 207.575 204.934C207.575 203.494 206.657 202.486 205.397 202.486ZM213.731 196.132H215.171V212.404H213.731V196.132ZM211.139 202.972H214.217V204.214H211.139V202.972ZM210.257 196.492H211.661V211.612H210.257V196.492ZM204.677 196.6H206.153V199.66H204.677V196.6ZM230.078 199.12H234.434V200.344H230.078V199.12ZM229.934 202.504H234.326V203.728H229.934V202.504ZM234.182 196.132H235.676V205.888H234.182V196.132ZM229.088 197.356H230.69C230.69 201.55 227.792 204.484 223.112 205.888L222.5 204.682C226.658 203.476 229.088 201.082 229.088 198.004V197.356ZM223.346 197.356H230.114V198.58H223.346V197.356ZM230.384 206.068C233.678 206.068 235.766 207.238 235.766 209.2C235.766 211.162 233.678 212.332 230.384 212.332C227.09 212.332 225.002 211.162 225.002 209.2C225.002 207.238 227.09 206.068 230.384 206.068ZM230.384 207.238C228.008 207.238 226.478 207.976 226.478 209.2C226.478 210.424 228.008 211.144 230.384 211.144C232.778 211.144 234.308 210.424 234.308 209.2C234.308 207.976 232.778 207.238 230.384 207.238ZM244.801 200.65H248.419V201.856H244.801V200.65ZM244.675 204.736H248.383V205.942H244.675V204.736ZM250.885 196.132H252.325V212.404H250.885V196.132ZM247.627 196.546H249.031V211.576H247.627V196.546ZM243.991 198.184H245.431C245.431 202.45 243.721 206.284 239.347 208.894L238.483 207.832C242.281 205.528 243.991 202.288 243.991 198.454V198.184ZM239.203 198.184H244.585V199.408H239.203V198.184ZM263.033 199.966H267.137V201.208H263.033V199.966ZM258.767 197.122H259.973V199.12C259.973 202.27 258.209 204.898 255.491 205.996L254.717 204.808C257.129 203.908 258.767 201.604 258.767 199.12V197.122ZM259.055 197.122H260.261V199.174C260.261 201.442 261.845 203.584 264.203 204.448L263.393 205.6C260.801 204.592 259.055 202.072 259.055 199.174V197.122ZM266.579 196.15H268.073V208.318H266.579V196.15ZM257.615 210.82H268.469V212.044H257.615V210.82ZM257.615 206.968H259.109V211.396H257.615V206.968ZM278.242 196.402C281.824 196.402 283.966 197.41 283.966 199.228C283.966 201.046 281.824 202.054 278.242 202.054C274.642 202.054 272.518 201.046 272.518 199.228C272.518 197.41 274.642 196.402 278.242 196.402ZM278.242 197.536C275.578 197.536 274.048 198.148 274.048 199.228C274.048 200.308 275.578 200.92 278.242 200.92C280.888 200.92 282.418 200.308 282.418 199.228C282.418 198.148 280.888 197.536 278.242 197.536ZM270.88 203.134H285.586V204.34H270.88V203.134ZM272.662 205.726H283.714V209.398H274.174V211.378H272.698V208.318H282.238V206.878H272.662V205.726ZM272.698 211.054H284.2V212.224H272.698V211.054ZM291.781 204.718H306.523V205.942H291.781V204.718ZM298.513 205.33H300.007V209.074H298.513V205.33ZM293.653 210.82H304.885V212.044H293.653V210.82ZM293.653 207.634H295.129V211.288H293.653V207.634ZM293.743 196.636H295.219V198.706H303.085V196.636H304.579V203.152H293.743V196.636ZM295.219 199.876V201.946H303.085V199.876H295.219ZM307.98 205.816H322.74V207.04H307.98V205.816ZM311.796 206.482H313.308V212.404H311.796V206.482ZM317.394 206.482H318.888V212.404H317.394V206.482ZM309.744 196.762H320.94V200.956H311.292V203.746H309.78V199.804H319.446V197.968H309.744V196.762ZM309.78 202.954H321.318V204.16H309.78V202.954ZM335.32 196.132H336.814V205.582H335.32V196.132ZM336.166 200.272H339.226V201.532H336.166V200.272ZM326.59 206.302H328.048V208.03H335.338V206.302H336.814V212.188H326.59V206.302ZM328.048 209.182V210.982H335.338V209.182H328.048ZM324.232 197.788H333.844V199.012H324.232V197.788ZM329.038 199.75C331.36 199.75 332.926 200.884 332.926 202.612C332.926 204.34 331.36 205.474 329.038 205.474C326.698 205.474 325.132 204.34 325.132 202.612C325.132 200.884 326.698 199.75 329.038 199.75ZM329.038 200.884C327.544 200.884 326.554 201.568 326.554 202.612C326.554 203.656 327.544 204.34 329.038 204.34C330.496 204.34 331.504 203.656 331.504 202.612C331.504 201.568 330.496 200.884 329.038 200.884ZM328.282 195.97H329.776V198.454H328.282V195.97ZM352.221 196.132H353.715V212.404H352.221V196.132ZM341.421 197.716H342.897V207.796H341.421V197.716ZM341.421 206.914H342.753C345.219 206.914 347.793 206.734 350.547 206.158L350.727 207.436C347.901 208.012 345.327 208.21 342.753 208.21H341.421V206.914ZM367.591 196.114H369.103V212.422H367.591V196.114ZM368.743 202.54H371.767V203.8H368.743V202.54ZM357.277 207.112H358.555C361.561 207.112 363.667 207.004 366.097 206.554L366.259 207.814C363.757 208.282 361.615 208.372 358.555 208.372H357.277V207.112ZM357.277 197.698H364.837V198.922H358.753V207.67H357.277V197.698ZM374.372 211.102C374.057 211.102 373.786 210.989 373.56 210.763C373.334 210.538 373.221 210.267 373.221 209.952C373.221 209.636 373.334 209.366 373.56 209.14C373.786 208.914 374.057 208.801 374.372 208.801C374.687 208.801 374.958 208.914 375.184 209.14C375.41 209.366 375.523 209.636 375.523 209.952C375.523 210.161 375.469 210.352 375.363 210.527C375.261 210.702 375.122 210.842 374.947 210.949C374.777 211.051 374.585 211.102 374.372 211.102ZM205.207 229.909V240.418L209.247 236.365L210.244 237.349L204.504 243.077L198.777 237.349L199.748 236.365L203.801 240.418V229.909H205.207ZM17.8769 275.179C17.1269 275.179 16.4515 275.03 15.8506 274.732C15.2498 274.433 14.7682 274.024 14.406 273.504C14.0438 272.984 13.8457 272.392 13.8116 271.727H15.3457C15.4053 272.32 15.6738 272.81 16.1511 273.197C16.6326 273.581 17.2079 273.773 17.8769 273.773C18.4138 273.773 18.8911 273.647 19.3087 273.396C19.7306 273.144 20.0609 272.799 20.2995 272.36C20.5424 271.917 20.6638 271.416 20.6638 270.858C20.6638 270.287 20.5381 269.778 20.2867 269.33C20.0395 268.879 19.6986 268.523 19.264 268.263C18.8293 268.003 18.3329 267.871 17.7746 267.866C17.3741 267.862 16.9628 267.924 16.541 268.052C16.1191 268.175 15.7718 268.335 15.4991 268.531L14.0161 268.352L14.8087 261.909H21.6099V263.315H16.1383L15.678 267.176H15.7547C16.0232 266.963 16.3599 266.786 16.7647 266.646C17.1695 266.505 17.5914 266.435 18.0303 266.435C18.8315 266.435 19.5452 266.626 20.1717 267.01C20.8023 267.389 21.2967 267.909 21.6546 268.57C22.0168 269.23 22.1979 269.984 22.1979 270.832C22.1979 271.668 22.0104 272.413 21.6354 273.07C21.2647 273.722 20.7533 274.237 20.1013 274.616C19.4494 274.991 18.7079 275.179 17.8769 275.179ZM18.0047 280.753C16.6454 280.753 15.3499 280.546 14.1184 280.133C12.8911 279.719 11.764 279.136 10.737 278.381C9.71427 277.631 8.82577 276.743 8.07151 275.716C7.32151 274.693 6.73983 273.568 6.32648 272.341C5.91313 271.109 5.70645 269.814 5.70645 268.455C5.70645 267.095 5.91313 265.802 6.32648 264.575C6.73983 263.343 7.32151 262.216 8.07151 261.193C8.82577 260.166 9.71427 259.278 10.737 258.528C11.764 257.773 12.8911 257.19 14.1184 256.776C15.3499 256.363 16.6454 256.156 18.0047 256.156C19.3641 256.156 20.6574 256.363 21.8847 256.776C23.1163 257.19 24.2434 257.773 25.2661 258.528C26.2931 259.278 27.1816 260.166 27.9316 261.193C28.6859 262.216 29.2697 263.343 29.683 264.575C30.0964 265.802 30.303 267.095 30.303 268.455C30.303 269.814 30.0964 271.109 29.683 272.341C29.2697 273.568 28.6859 274.693 27.9316 275.716C27.1816 276.743 26.2931 277.631 25.2661 278.381C24.2434 279.136 23.1163 279.719 21.8847 280.133C20.6574 280.546 19.3641 280.753 18.0047 280.753ZM18.0047 279.27C19.2022 279.27 20.34 279.087 21.4181 278.72C22.5005 278.358 23.4913 277.844 24.3904 277.18C25.2938 276.519 26.0758 275.739 26.7363 274.84C27.4011 273.937 27.9145 272.946 28.2768 271.868C28.639 270.786 28.8201 269.648 28.8201 268.455C28.8201 267.257 28.639 266.119 28.2768 265.041C27.9145 263.959 27.4011 262.968 26.7363 262.069C26.0758 261.165 25.2938 260.384 24.3904 259.723C23.4913 259.058 22.5005 258.545 21.4181 258.183C20.34 257.82 19.2022 257.639 18.0047 257.639C16.8073 257.639 15.6674 257.82 14.585 258.183C13.5069 258.545 12.5161 259.058 11.6127 259.723C10.7136 260.384 9.93159 261.165 9.26682 262.069C8.60631 262.968 8.09495 263.959 7.73273 265.041C7.37052 266.119 7.18941 267.257 7.18941 268.455C7.18941 269.648 7.37052 270.786 7.73273 271.868C8.09495 272.946 8.60631 273.937 9.26682 274.84C9.93159 275.739 10.7136 276.519 11.6127 277.18C12.5161 277.844 13.5069 278.358 14.585 278.72C15.6674 279.087 16.8073 279.27 18.0047 279.27ZM42.5261 261.176H44.0921C44.0921 265.28 41.2121 268.214 36.5321 269.528L35.9201 268.358C40.0421 267.188 42.5261 264.83 42.5261 261.806V261.176ZM36.7661 261.176H43.5341V262.382H36.7661V261.176ZM47.6381 260.132H49.1321V269.42H47.6381V260.132ZM44.1101 264.308H47.9261V265.55H44.1101V264.308ZM38.6381 270.104H49.1321V276.188H38.6381V270.104ZM47.6741 271.31H40.1141V274.964H47.6741V271.31ZM58.5447 268.232H60.0387V270.698H58.5447V268.232ZM51.9567 267.35H66.6447V268.502H51.9567V267.35ZM58.5627 260.024H60.0387V262.004H58.5627V260.024ZM58.4907 262.148H59.8047V262.4C59.8047 264.956 56.7627 266.324 53.1627 266.63L52.7307 265.478C55.9347 265.28 58.4907 264.146 58.4907 262.4V262.148ZM58.7967 262.148H60.1107V262.4C60.1107 264.146 62.6667 265.28 65.8527 265.478L65.4207 266.63C61.8207 266.324 58.7967 264.956 58.7967 262.4V262.148ZM53.4507 261.554H65.1507V262.688H53.4507V261.554ZM53.7207 269.978H64.7727V273.56H55.2327V275.522H53.7567V272.498H63.2967V271.112H53.7207V269.978ZM53.7567 275.09H65.2587V276.224H53.7567V275.09ZM79.2793 260.15H80.7733V272.354H79.2793V260.15ZM80.3053 265.478H83.1853V266.738H80.3053V265.478ZM68.1913 262.112H77.8033V263.318H68.1913V262.112ZM72.9973 264.218C75.3013 264.218 76.8853 265.424 76.8853 267.26C76.8853 269.078 75.3013 270.284 72.9973 270.284C70.6753 270.284 69.0913 269.078 69.0913 267.26C69.0913 265.424 70.6753 264.218 72.9973 264.218ZM72.9973 265.388C71.5213 265.388 70.5133 266.126 70.5133 267.26C70.5133 268.376 71.5213 269.114 72.9973 269.114C74.4553 269.114 75.4633 268.376 75.4633 267.26C75.4633 266.126 74.4553 265.388 72.9973 265.388ZM72.2413 260.132H73.7353V262.742H72.2413V260.132ZM70.6393 274.82H81.5113V276.044H70.6393V274.82ZM70.6393 271.382H72.1333V275.342H70.6393V271.382ZM96.8324 263.12H101.188V264.344H96.8324V263.12ZM96.6884 266.504H101.08V267.728H96.6884V266.504ZM100.936 260.132H102.43V269.888H100.936V260.132ZM95.8424 261.356H97.4444C97.4444 265.55 94.5464 268.484 89.8664 269.888L89.2544 268.682C93.4124 267.476 95.8424 265.082 95.8424 262.004V261.356ZM90.1004 261.356H96.8684V262.58H90.1004V261.356ZM97.1384 270.068C100.432 270.068 102.52 271.238 102.52 273.2C102.52 275.162 100.432 276.332 97.1384 276.332C93.8444 276.332 91.7564 275.162 91.7564 273.2C91.7564 271.238 93.8444 270.068 97.1384 270.068ZM97.1384 271.238C94.7624 271.238 93.2324 271.976 93.2324 273.2C93.2324 274.424 94.7624 275.144 97.1384 275.144C99.5324 275.144 101.062 274.424 101.062 273.2C101.062 271.976 99.5324 271.238 97.1384 271.238ZM111.555 264.65H115.173V265.856H111.555V264.65ZM111.429 268.736H115.137V269.942H111.429V268.736ZM117.639 260.132H119.079V276.404H117.639V260.132ZM114.381 260.546H115.785V275.576H114.381V260.546ZM110.745 262.184H112.185C112.185 266.45 110.475 270.284 106.101 272.894L105.237 271.832C109.035 269.528 110.745 266.288 110.745 262.454V262.184ZM105.957 262.184H111.339V263.408H105.957V262.184ZM129.788 263.966H133.892V265.208H129.788V263.966ZM125.522 261.122H126.728V263.12C126.728 266.27 124.964 268.898 122.246 269.996L121.472 268.808C123.884 267.908 125.522 265.604 125.522 263.12V261.122ZM125.81 261.122H127.016V263.174C127.016 265.442 128.6 267.584 130.958 268.448L130.148 269.6C127.556 268.592 125.81 266.072 125.81 263.174V261.122ZM133.334 260.15H134.828V272.318H133.334V260.15ZM124.37 274.82H135.224V276.044H124.37V274.82ZM124.37 270.968H125.864V275.396H124.37V270.968ZM144.996 260.402C148.578 260.402 150.72 261.41 150.72 263.228C150.72 265.046 148.578 266.054 144.996 266.054C141.396 266.054 139.272 265.046 139.272 263.228C139.272 261.41 141.396 260.402 144.996 260.402ZM144.996 261.536C142.332 261.536 140.802 262.148 140.802 263.228C140.802 264.308 142.332 264.92 144.996 264.92C147.642 264.92 149.172 264.308 149.172 263.228C149.172 262.148 147.642 261.536 144.996 261.536ZM137.634 267.134H152.34V268.34H137.634V267.134ZM139.416 269.726H150.468V273.398H140.928V275.378H139.452V272.318H148.992V270.878H139.416V269.726ZM139.452 275.054H150.954V276.224H139.452V275.054ZM166.077 262.67H170.973V263.894H166.077V262.67ZM166.077 266.576H170.973V267.8H166.077V266.576ZM170.433 260.15H171.927V272.174H170.433V260.15ZM161.541 274.82H172.377V276.044H161.541V274.82ZM161.541 270.932H163.035V275.36H161.541V270.932ZM162.981 261.176C165.375 261.176 167.175 262.85 167.175 265.244C167.175 267.638 165.375 269.312 162.981 269.312C160.587 269.312 158.787 267.638 158.787 265.244C158.787 262.85 160.587 261.176 162.981 261.176ZM162.981 262.49C161.397 262.49 160.227 263.642 160.227 265.244C160.227 266.864 161.397 268.016 162.981 268.016C164.565 268.016 165.753 266.864 165.753 265.244C165.753 263.642 164.565 262.49 162.981 262.49ZM186.632 260.132H188.126V268.43H186.632V260.132ZM181.484 260.924H183.104C183.104 265.028 180.278 267.656 175.526 268.808L175.004 267.584C179.216 266.612 181.484 264.47 181.484 261.662V260.924ZM175.85 260.924H182.168V262.148H175.85V260.924ZM182.528 262.472H186.884V263.66H182.528V262.472ZM182.384 265.586H186.794V266.756H182.384V265.586ZM177.65 269.186H188.126V273.182H179.18V275.774H177.704V272.03H186.65V270.392H177.65V269.186ZM177.704 275.054H188.666V276.242H177.704V275.054ZM190.914 262.904H198.978V264.128H190.914V262.904ZM194.946 265.208C196.98 265.208 198.456 266.738 198.456 268.934C198.456 271.112 196.98 272.642 194.946 272.642C192.93 272.642 191.454 271.112 191.454 268.934C191.454 266.738 192.93 265.208 194.946 265.208ZM194.946 266.486C193.704 266.486 192.804 267.494 192.804 268.934C192.804 270.374 193.704 271.382 194.946 271.382C196.206 271.382 197.124 270.374 197.124 268.934C197.124 267.494 196.206 266.486 194.946 266.486ZM203.28 260.132H204.72V276.404H203.28V260.132ZM200.688 266.972H203.766V268.214H200.688V266.972ZM199.806 260.492H201.21V275.612H199.806V260.492ZM194.226 260.6H195.702V263.66H194.226V260.6ZM216.496 268.736H218.008V272.264H216.496V268.736ZM216.496 263.012H217.702V263.372C217.702 266.216 215.848 268.412 213.112 269.276L212.428 268.106C214.84 267.386 216.496 265.568 216.496 263.372V263.012ZM216.784 263.012H217.99V263.372C217.99 265.478 219.7 267.242 222.094 267.944L221.41 269.096C218.674 268.286 216.784 266.126 216.784 263.372V263.012ZM212.806 262.256H221.752V263.462H212.806V262.256ZM216.496 260.24H218.008V262.778H216.496V260.24ZM223.606 260.114H225.1V276.422H223.606V260.114ZM212.14 273.074L211.924 271.814C214.894 271.814 218.998 271.796 222.544 271.256L222.67 272.354C219.016 273.038 215.038 273.056 212.14 273.074ZM234.638 265.91H236.114V268.934H234.638V265.91ZM228.032 268.232H242.738V269.438H228.032V268.232ZM235.376 270.77C238.868 270.77 240.956 271.778 240.956 273.578C240.956 275.378 238.868 276.368 235.376 276.368C231.884 276.368 229.796 275.378 229.796 273.578C229.796 271.778 231.884 270.77 235.376 270.77ZM235.376 271.922C232.82 271.922 231.308 272.516 231.308 273.578C231.308 274.64 232.82 275.216 235.376 275.216C237.95 275.216 239.444 274.64 239.444 273.578C239.444 272.516 237.95 271.922 235.376 271.922ZM234.422 261.464H235.754V261.95C235.754 264.56 232.766 266.324 229.382 266.738L228.842 265.532C231.776 265.244 234.422 263.786 234.422 261.95V261.464ZM235.052 261.464H236.366V261.95C236.366 263.786 239.012 265.244 241.946 265.532L241.406 266.738C238.04 266.324 235.052 264.56 235.052 261.95V261.464ZM229.382 260.87H241.424V262.076H229.382V260.87ZM256.295 260.528C259.733 260.528 262.001 261.788 262.001 263.786C262.001 265.802 259.733 267.044 256.295 267.044C252.839 267.044 250.589 265.802 250.589 263.786C250.589 261.788 252.839 260.528 256.295 260.528ZM256.295 261.752C253.811 261.752 252.173 262.544 252.173 263.786C252.173 265.046 253.811 265.82 256.295 265.82C258.779 265.82 260.417 265.046 260.417 263.786C260.417 262.544 258.779 261.752 256.295 261.752ZM248.951 268.268H263.657V269.492H248.951V268.268ZM250.733 274.82H262.145V276.044H250.733V274.82ZM250.733 271.49H252.227V275.432H250.733V271.49ZM254.081 268.79H255.557V272.858H254.081V268.79ZM258.419 268.79H259.913V272.876H258.419V268.79ZM266.014 261.23H273.214V262.454H266.014V261.23ZM268.462 264.722H269.938V268.7H268.462V264.722ZM272.62 261.23H274.078V262.094C274.078 263.12 274.078 264.668 273.646 266.63L272.188 266.468C272.62 264.506 272.62 263.12 272.62 262.094V261.23ZM276.31 260.132H277.804V270.194H276.31V260.132ZM277.12 264.65H280.126V265.91H277.12V264.65ZM265.186 269.33L265.024 268.088C267.904 268.088 271.882 268.034 275.212 267.566L275.302 268.664C271.918 269.258 268.048 269.33 265.186 269.33ZM267.094 271.004H277.804V276.314H276.31V272.228H267.094V271.004ZM289.682 263.966H293.786V265.208H289.682V263.966ZM285.416 261.122H286.622V263.12C286.622 266.27 284.858 268.898 282.14 269.996L281.366 268.808C283.778 267.908 285.416 265.604 285.416 263.12V261.122ZM285.704 261.122H286.91V263.174C286.91 265.442 288.494 267.584 290.852 268.448L290.042 269.6C287.45 268.592 285.704 266.072 285.704 263.174V261.122ZM293.228 260.15H294.722V272.318H293.228V260.15ZM284.264 274.82H295.118V276.044H284.264V274.82ZM284.264 270.968H285.758V275.396H284.264V270.968ZM304.891 260.402C308.473 260.402 310.615 261.41 310.615 263.228C310.615 265.046 308.473 266.054 304.891 266.054C301.291 266.054 299.167 265.046 299.167 263.228C299.167 261.41 301.291 260.402 304.891 260.402ZM304.891 261.536C302.227 261.536 300.697 262.148 300.697 263.228C300.697 264.308 302.227 264.92 304.891 264.92C307.537 264.92 309.067 264.308 309.067 263.228C309.067 262.148 307.537 261.536 304.891 261.536ZM297.529 267.134H312.235V268.34H297.529V267.134ZM299.311 269.726H310.363V273.398H300.823V275.378H299.347V272.318H308.887V270.878H299.311V269.726ZM299.347 275.054H310.849V276.224H299.347V275.054ZM322.642 266.882H324.136V269.348H322.642V266.882ZM323.344 260.87C325.702 260.87 327.358 262.166 327.358 264.092C327.358 266.018 325.702 267.296 323.344 267.296C321.004 267.296 319.348 266.018 319.348 264.092C319.348 262.166 321.004 260.87 323.344 260.87ZM323.344 262.022C321.814 262.022 320.752 262.868 320.752 264.092C320.752 265.334 321.814 266.162 323.344 266.162C324.892 266.162 325.954 265.334 325.954 264.092C325.954 262.868 324.892 262.022 323.344 262.022ZM329.554 260.15H331.048V272.588H329.554V260.15ZM330.418 265.64H333.424V266.882H330.418V265.64ZM320.752 274.802H331.624V276.044H320.752V274.802ZM320.752 271.526H322.246V275.342H320.752V271.526ZM318.61 270.176L318.412 268.952C321.274 268.952 325.234 268.916 328.546 268.412L328.654 269.51C325.252 270.14 321.4 270.176 318.61 270.176ZM338.733 261.05H339.975V262.724C339.975 265.874 338.193 268.448 335.403 269.492L334.629 268.268C337.113 267.386 338.733 265.208 338.733 262.724V261.05ZM339.003 261.05H340.227V262.67C340.227 264.974 341.811 267.008 344.187 267.836L343.377 269.006C340.749 268.016 339.003 265.622 339.003 262.67V261.05ZM346.527 260.132H348.021V269.762H346.527V260.132ZM342.675 270.23C346.023 270.23 348.093 271.364 348.093 273.308C348.093 275.252 346.023 276.368 342.675 276.368C339.309 276.368 337.239 275.252 337.239 273.308C337.239 271.364 339.309 270.23 342.675 270.23ZM342.675 271.418C340.227 271.418 338.733 272.12 338.733 273.308C338.733 274.496 340.227 275.198 342.675 275.198C345.123 275.198 346.617 274.496 346.617 273.308C346.617 272.12 345.123 271.418 342.675 271.418ZM342.999 263.57H346.851V264.812H342.999V263.57ZM361.969 260.132H363.463V269.582H361.969V260.132ZM362.815 264.272H365.875V265.532H362.815V264.272ZM353.239 270.302H354.697V272.03H361.987V270.302H363.463V276.188H353.239V270.302ZM354.697 273.182V274.982H361.987V273.182H354.697ZM350.881 261.788H360.493V263.012H350.881V261.788ZM355.687 263.75C358.009 263.75 359.575 264.884 359.575 266.612C359.575 268.34 358.009 269.474 355.687 269.474C353.347 269.474 351.781 268.34 351.781 266.612C351.781 264.884 353.347 263.75 355.687 263.75ZM355.687 264.884C354.193 264.884 353.203 265.568 353.203 266.612C353.203 267.656 354.193 268.34 355.687 268.34C357.145 268.34 358.153 267.656 358.153 266.612C358.153 265.568 357.145 264.884 355.687 264.884ZM354.931 259.97H356.425V262.454H354.931V259.97ZM378.87 260.132H380.364V276.404H378.87V260.132ZM368.07 261.716H369.546V271.796H368.07V261.716ZM368.07 270.914H369.402C371.868 270.914 374.442 270.734 377.196 270.158L377.376 271.436C374.55 272.012 371.976 272.21 369.402 272.21H368.07V270.914ZM394.24 260.114H395.752V276.422H394.24V260.114ZM395.392 266.54H398.416V267.8H395.392V266.54ZM383.926 271.112H385.204C388.21 271.112 390.316 271.004 392.746 270.554L392.908 271.814C390.406 272.282 388.264 272.372 385.204 272.372H383.926V271.112ZM383.926 261.698H391.486V262.922H385.402V271.67H383.926V261.698ZM401.021 275.102C400.706 275.102 400.435 274.989 400.209 274.763C399.984 274.538 399.871 274.267 399.871 273.952C399.871 273.636 399.984 273.366 400.209 273.14C400.435 272.914 400.706 272.801 401.021 272.801C401.337 272.801 401.607 272.914 401.833 273.14C402.059 273.366 402.172 273.636 402.172 273.952C402.172 274.161 402.118 274.352 402.012 274.527C401.91 274.702 401.771 274.842 401.596 274.949C401.426 275.051 401.234 275.102 401.021 275.102Z" fill="black"/>
</svg>
