<svg width="149" height="127" viewBox="0 0 149 127" fill="none" xmlns="http://www.w3.org/2000/svg">
<g filter="url(#filter0_d_1283_1100)">
<path d="M131.912 3.21118C138.991 3.21118 144.782 8.99125 144.782 16.0558V105.968C144.782 113.032 138.991 118.812 131.912 118.812H16.0864C9.0081 118.812 3.2168 113.032 3.2168 105.968V16.0558C3.2168 8.99125 9.0081 3.21118 16.0864 3.21118H131.912Z" fill="black"/>
<path d="M131.912 3.71118C138.716 3.71118 144.282 9.26831 144.282 16.0558V105.968C144.282 112.755 138.716 118.312 131.912 118.312H16.0864C9.28332 118.312 3.7168 112.755 3.7168 105.968V16.0558C3.7168 9.26831 9.28332 3.71118 16.0864 3.71118H131.912Z" stroke="black"/>
</g>
<path d="M143.173 69.3608L124.03 50.2543C122.743 48.9701 120.812 48.9701 119.525 50.2543L80.595 88.467L56.4647 65.8287L8.52539 116.725H143.656L143.173 69.3608Z" fill="white"/>
<path d="M80.1131 87.0222L59.0391 66.7919C57.7524 65.5074 55.8217 65.5074 54.5347 66.7919L4.82617 115.601H53.0871L80.1131 87.0222Z" fill="white"/>
<path d="M8.36583 115.28C7.5615 115.28 6.75713 114.959 6.11366 114.317C4.8267 113.033 4.8267 110.945 6.11366 109.821L52.6049 64.2232C53.8919 62.9387 55.5006 62.2963 57.1093 62.2963C58.7179 62.2963 60.4876 62.9387 61.6136 64.2232L80.2746 82.8477C81.5616 84.1322 119.017 118.4 115.317 120.867C114.03 122.151 106.067 117.64 75.7703 87.3433L57.1093 68.7188L10.618 114.317C9.97453 114.959 9.1702 115.28 8.36583 115.28Z" fill="black"/>
<path d="M81.1251 90.65C80.4229 90.65 79.7207 90.3777 79.1591 89.8337C78.0355 88.7455 78.0355 87.1132 79.1591 86.0249L120.73 46.0324C122.977 43.8559 126.347 43.8559 128.595 46.0324L145.307 62.2197C146.431 63.308 146.431 64.9403 145.307 66.0285C144.183 67.1168 142.498 67.1168 141.375 66.0285L124.662 49.8412L83.0914 89.8337C82.5295 90.3777 81.8273 90.65 81.1251 90.65Z" fill="black"/>
<path d="M131.913 122.024H16.087C7.23913 122.024 0 114.799 0 105.968V16.0558C0 7.22509 7.23913 0 16.087 0H131.913C140.761 0 148 7.22509 148 16.0558V105.968C148 114.799 140.761 122.024 131.913 122.024ZM16.087 6.42228C10.7783 6.42228 6.43477 10.7574 6.43477 16.0558V105.968C6.43477 111.266 10.7783 115.601 16.087 115.601H131.913C137.222 115.601 141.565 111.266 141.565 105.968V16.0558C141.565 10.7574 137.222 6.42228 131.913 6.42228H16.087Z" fill="black"/>
<path d="M35.3905 44.956C40.7213 44.956 45.0425 40.6432 45.0425 35.3227C45.0425 30.0023 40.7213 25.6892 35.3905 25.6892C30.0597 25.6892 25.7383 30.0023 25.7383 35.3227C25.7383 40.6432 30.0597 44.956 35.3905 44.956Z" fill="black"/>
<path d="M35.3906 44.956C40.6993 44.956 45.0426 40.6211 45.0426 35.3227C45.0426 30.0243 40.6993 25.6892 35.3906 25.6892C35.3906 35.3227 35.3906 37.5703 35.3906 44.956Z" fill="black"/>
<path d="M35.3911 48.1674C28.3128 48.1674 22.5215 42.3873 22.5215 35.3227C22.5215 28.2581 28.3128 22.478 35.3911 22.478C42.4694 22.478 48.2608 28.2581 48.2608 35.3227C48.2608 42.3873 42.4694 48.1674 35.3911 48.1674ZM35.3911 28.9003C31.8519 28.9003 28.9562 31.7904 28.9562 35.3227C28.9562 38.8548 31.8519 41.7448 35.3911 41.7448C38.9301 41.7448 41.8257 38.8548 41.8257 35.3227C41.8257 31.7904 38.9301 28.9003 35.3911 28.9003Z" fill="white"/>
<defs>
<filter id="filter0_d_1283_1100" x="-0.783203" y="3.21118" width="149.564" height="123.601" filterUnits="userSpaceOnUse" color-interpolation-filters="sRGB">
<feFlood flood-opacity="0" result="BackgroundImageFix"/>
<feColorMatrix in="SourceAlpha" type="matrix" values="0 0 0 0 0 0 0 0 0 0 0 0 0 0 0 0 0 0 127 0" result="hardAlpha"/>
<feOffset dy="4"/>
<feGaussianBlur stdDeviation="2"/>
<feComposite in2="hardAlpha" operator="out"/>
<feColorMatrix type="matrix" values="0 0 0 0 0 0 0 0 0 0 0 0 0 0 0 0 0 0 0.25 0"/>
<feBlend mode="normal" in2="BackgroundImageFix" result="effect1_dropShadow_1283_1100"/>
<feBlend mode="normal" in="SourceGraphic" in2="effect1_dropShadow_1283_1100" result="shape"/>
</filter>
</defs>
</svg>
