<svg width="107" height="133" viewBox="0 0 107 133" fill="none" xmlns="http://www.w3.org/2000/svg">
<path d="M40.4227 46.565C30.6415 40.9178 25.8727 29.405 28.7959 18.4955C31.7191 7.58598 41.6054 0 52.8997 0C64.1941 0 74.0803 7.58598 77.0035 18.4955C79.9267 29.405 75.158 40.9178 65.3768 46.565L57.8635 33.5516C61.7547 31.3049 63.6519 26.7248 62.4889 22.3847C61.326 18.0445 57.393 15.0266 52.8997 15.0266C48.4065 15.0266 44.4734 18.0445 43.3105 22.3847C42.1476 26.7248 44.0447 31.3049 47.936 33.5516L40.4227 46.565Z" fill="#FF0101"/>
<path d="M93.8605 52.6047C103.642 58.2519 108.41 69.7647 105.487 80.6742C102.564 91.5837 92.6779 99.1697 81.3835 99.1697C70.0891 99.1697 60.2029 91.5837 57.2797 80.6742C54.3565 69.7647 59.1252 58.2519 68.9064 52.6047L76.4197 65.6181C72.5285 67.8647 70.6313 72.4449 71.7943 76.785C72.9572 81.1251 76.8903 84.1431 81.3835 84.1431C85.8767 84.1431 89.8098 81.1251 90.9727 76.785C92.1356 72.4449 90.2385 67.8647 86.3472 65.6181L93.8605 52.6047Z" fill="#0101FF"/>
<path d="M49.9088 74.2164C49.9088 85.5108 42.3228 95.397 31.4133 98.3202C20.5038 101.243 8.99098 96.4747 3.3438 86.6935C-2.30338 76.9122 -0.676853 64.5575 7.30947 56.5712C15.2958 48.5849 27.6505 46.9583 37.4317 52.6055L29.9184 65.619C26.0272 63.3723 21.1121 64.0194 17.9349 67.1966C14.7577 70.3738 14.1106 75.2889 16.3572 79.1801C18.6039 83.0714 23.184 84.9685 27.5241 83.8056C31.8642 82.6427 34.8822 78.7096 34.8822 74.2164H49.9088Z" fill="#01FF01"/>
<path d="M7.12715 105.154C9.23919 104.964 11.3745 104.966 13.4758 105.266C14.771 105.496 16.145 105.831 17.1177 106.775C18.137 107.912 18.3878 109.492 18.6117 110.949C18.9789 113.971 18.9359 117.036 18.6117 120.06C18.395 121.536 18.1818 123.13 17.2144 124.33C16.1593 125.402 14.6008 125.706 13.1713 125.932C11.061 126.195 8.92033 126.256 6.80112 126.045C5.36622 125.898 3.86863 125.645 2.6469 124.827C1.8569 124.325 1.43235 123.44 1.14393 122.582C0.565316 120.794 0.491869 118.895 0.413048 117.032C0.404092 114.571 0.450668 112.084 0.930758 109.663C1.19051 108.532 1.50579 107.289 2.4606 106.535C3.80593 105.558 5.5167 105.322 7.12715 105.154ZM7.47647 108.527C6.58795 108.661 5.48087 108.735 4.94525 109.562C4.4777 110.796 4.49382 112.144 4.39888 113.442C4.35409 115.759 4.23765 118.096 4.59593 120.395C4.72849 121.17 5.00078 122.095 5.86243 122.322C7.73085 122.894 9.73003 122.797 11.6558 122.688C12.6159 122.541 13.8896 122.458 14.3572 121.453C14.8928 119.924 14.8552 118.272 14.9215 116.674C14.9 114.428 15.0254 112.138 14.4879 109.94C14.359 109.159 13.5493 108.826 12.8632 108.688C11.0933 108.34 9.26606 108.383 7.47647 108.527ZM26.3469 112.154C27.6295 111.339 29.2221 111.207 30.7017 111.341C32.0829 111.459 33.6163 111.929 34.3562 113.2C35.2393 114.797 35.2895 116.683 35.3504 118.464C35.311 120.294 35.2769 122.206 34.521 123.908C34.0893 124.941 33.0968 125.618 32.0345 125.885C30.408 126.285 28.6202 126.328 27.0527 125.679C26.2054 125.348 25.6196 124.628 25.1341 123.89V132.257H21.5514C21.5532 125.332 21.5478 118.404 21.5532 111.479C22.7122 111.474 23.8712 111.474 25.0284 111.479C24.989 112.192 24.9496 112.903 24.9299 113.618C25.3598 113.093 25.7593 112.516 26.3469 112.154ZM27.5131 114.025C26.6604 114.091 25.7325 114.514 25.4906 115.406C25.0338 116.979 25.1144 118.645 25.1807 120.264C25.2918 121.319 25.4225 122.679 26.5457 123.152C27.7531 123.619 29.1468 123.594 30.3686 123.195C31.4255 122.822 31.5795 121.579 31.6906 120.619C31.8017 119.028 31.8411 117.405 31.5294 115.834C31.4237 115.225 31.1102 114.596 30.5154 114.34C29.5768 113.926 28.5163 113.947 27.5131 114.025ZM39.6372 112.181C41.3981 111.277 43.46 111.244 45.3929 111.336C47.0015 111.47 48.9541 111.739 49.8409 113.278C50.8405 115.135 50.6775 117.321 50.8172 119.359H41.0165C41.1312 120.411 40.995 121.545 41.5253 122.509C41.9785 123.27 42.9405 123.426 43.7538 123.47C44.7587 123.478 45.8407 123.56 46.7669 123.093C47.2971 122.677 47.3007 121.939 47.3688 121.33C48.5153 121.328 49.6617 121.328 50.8082 121.33C50.7652 122.526 50.6112 123.866 49.651 124.708C48.2089 126.002 46.1453 126.136 44.3001 126.172C42.6718 126.124 40.952 126.041 39.4939 125.239C38.3133 124.542 37.9371 123.11 37.7293 121.849C37.466 119.976 37.3997 118.066 37.6237 116.185C37.8064 114.7 38.2059 112.953 39.6372 112.181ZM41.7313 114.462C40.9825 115.144 41.0559 116.276 41.0237 117.204C43.1304 117.215 45.237 117.21 47.3455 117.206C47.3419 116.371 47.4225 115.461 46.9711 114.718C46.5286 114.116 45.6992 114.076 45.0185 114.003C43.9204 113.987 42.7094 113.867 41.7313 114.462ZM58.4467 112.172C59.6863 111.312 61.2878 111.192 62.746 111.361C63.9874 111.492 65.3023 111.964 66.035 113.036C66.6853 113.924 66.8662 115.056 66.8751 116.133C66.8698 119.418 66.8769 122.702 66.8734 125.987C65.7376 125.989 64.6037 125.989 63.4715 125.987C63.4661 122.879 63.4751 119.773 63.4661 116.667C63.4321 115.988 63.459 115.203 62.9484 114.68C62.4039 114.091 61.5494 113.976 60.788 113.982C59.8673 113.976 58.8712 114.134 58.1619 114.77C57.4686 115.361 57.2053 116.314 57.2017 117.195C57.1963 120.126 57.2035 123.057 57.1981 125.986C56.0641 125.989 54.9302 125.989 53.798 125.987C53.7963 121.151 53.7963 116.314 53.798 111.477C54.9123 111.474 56.0283 111.475 57.1426 111.477C57.1372 112.326 57.053 113.17 57.0279 114.019C57.3934 113.333 57.7767 112.609 58.4467 112.172ZM73.0339 105.816C74.9113 105.186 76.9123 105.096 78.8756 105.026C80.7781 105.035 82.7665 105.053 84.5435 105.82C85.4464 106.196 86.0716 107.02 86.3761 107.93C86.8723 109.29 86.8867 110.762 86.8974 112.194C85.5879 112.194 84.2784 112.197 82.9707 112.192C82.9492 111.185 83.0262 110.057 82.4028 109.2C81.7723 108.555 80.787 108.557 79.9504 108.459C78.2486 108.426 76.477 108.317 74.8468 108.905C74.2592 109.091 73.9547 109.679 73.8365 110.245C73.5015 111.764 73.4997 113.331 73.5015 114.881C73.5212 116.952 73.4889 119.053 73.9314 121.09C74.0478 121.835 74.7339 122.294 75.4218 122.458C77.0126 122.854 78.6732 122.797 80.298 122.7C81.1453 122.589 82.1771 122.534 82.7092 121.756C83.277 120.828 83.1821 119.687 83.1516 118.645C84.4737 118.639 85.7939 118.641 87.116 118.645C87.0999 120.291 87.0712 121.991 86.4729 123.549C86.1647 124.364 85.5288 125.056 84.7048 125.368C83.0872 126.016 81.3137 126.057 79.5975 126.161C77.6073 126.195 75.592 126.147 73.6466 125.683C72.5055 125.385 71.2587 124.862 70.7302 123.728C70.0548 122.229 69.9312 120.561 69.7575 118.947C69.6124 116.816 69.5192 114.68 69.5712 112.545C69.6733 110.816 69.8309 108.994 70.7642 107.488C71.2604 106.649 72.1311 106.125 73.0339 105.816ZM87.7609 105.213C89.1259 105.215 90.4909 105.175 91.8542 105.232C93.1816 109.444 94.6398 113.613 95.9797 117.819C96.501 119.435 96.8701 121.097 97.4093 122.707C98.013 120.97 98.3999 119.164 98.9911 117.423C100.301 113.355 101.646 109.299 102.954 105.231C104.301 105.173 105.651 105.223 107 105.206V105.652C104.783 112.41 102.617 119.187 100.444 125.962C98.416 126.004 96.3846 126.009 94.3568 125.959C92.1963 119.031 89.932 112.136 87.7609 105.213Z" fill="#050505"/>
</svg>
