<svg width="20" height="25" viewBox="0 0 20 25" fill="none" xmlns="http://www.w3.org/2000/svg">
<path d="M7.55521 8.70364C5.72697 7.64811 4.83562 5.49621 5.38201 3.45707C5.9284 1.41793 7.77627 0 9.88735 0C11.9984 0 13.8463 1.41793 14.3927 3.45707C14.9391 5.49621 14.0477 7.64811 12.2195 8.70364L10.8151 6.27125C11.5425 5.85133 11.8971 4.99524 11.6797 4.18401C11.4623 3.37278 10.7272 2.80868 9.88735 2.80868C9.0475 2.80868 8.31236 3.37278 8.09499 4.18401C7.87762 4.99524 8.23222 5.85133 8.95955 6.27125L7.55521 8.70364Z" fill="white"/>
<path d="M17.5435 9.83285C19.3718 10.8884 20.2631 13.0403 19.7167 15.0794C19.1704 17.1186 17.3225 18.5365 15.2114 18.5365C13.1003 18.5365 11.2525 17.1186 10.7061 15.0794C10.1597 13.0403 11.051 10.8884 12.8793 9.83285L14.2836 12.2652C13.5563 12.6852 13.2017 13.5413 13.4191 14.3525C13.6364 15.1637 14.3716 15.7278 15.2114 15.7278C16.0513 15.7278 16.7864 15.1637 17.0038 14.3525C17.2211 13.5413 16.8665 12.6852 16.1392 12.2652L17.5435 9.83285Z" fill="white"/>
<path d="M9.32865 13.8723C9.32865 15.9833 7.91072 17.8312 5.87158 18.3776C3.83244 18.924 1.68054 18.0326 0.625003 16.2044C-0.430535 14.3762 -0.126513 12.0669 1.36624 10.5741C2.859 9.08137 5.16827 8.77735 6.99651 9.83289L5.59217 12.2653C4.86484 11.8454 3.94614 11.9663 3.35228 12.5602C2.75842 13.154 2.63747 14.0727 3.05739 14.8001C3.47732 15.5274 4.33341 15.882 5.14464 15.6646C5.95587 15.4473 6.51996 14.7121 6.51996 13.8723H9.32865Z" fill="white"/>
<path d="M1.33192 19.6548C1.72669 19.6193 2.12581 19.6197 2.51857 19.6759C2.76066 19.7188 3.01747 19.7814 3.19929 19.9578C3.38981 20.1705 3.43669 20.4658 3.47854 20.738C3.54718 21.3029 3.53915 21.8758 3.47854 22.441C3.43803 22.7169 3.39818 23.0149 3.21737 23.2392C3.02015 23.4395 2.72885 23.4964 2.46165 23.5386C2.06721 23.5878 1.66709 23.5992 1.27098 23.5597C1.00277 23.5322 0.722853 23.485 0.494496 23.332C0.346834 23.2382 0.267479 23.0728 0.21357 22.9124C0.105419 22.5783 0.0916905 22.2233 0.0769578 21.8751C0.0752836 21.415 0.0839893 20.9503 0.173725 20.4976C0.222276 20.2863 0.281207 20.0539 0.459673 19.913C0.711134 19.7305 1.0309 19.6863 1.33192 19.6548ZM1.39721 20.2853C1.23113 20.3104 1.0242 20.3242 0.924089 20.4788C0.836697 20.7096 0.83971 20.9613 0.821964 21.2041C0.813593 21.637 0.791829 22.074 0.858796 22.5036C0.883574 22.6486 0.934469 22.8214 1.09552 22.8639C1.44476 22.9707 1.81843 22.9526 2.17838 22.9322C2.35785 22.9047 2.59592 22.8893 2.68331 22.7015C2.78342 22.4155 2.77639 22.1068 2.78878 21.8081C2.78476 21.3883 2.8082 20.9603 2.70775 20.5495C2.68364 20.4035 2.5323 20.3412 2.40406 20.3155C2.07324 20.2505 1.73171 20.2585 1.39721 20.2853ZM4.92436 20.9634C5.1641 20.811 5.46176 20.7862 5.73834 20.8113C5.99649 20.8334 6.28311 20.9212 6.4214 21.1589C6.58647 21.4572 6.59585 21.8098 6.60723 22.1426C6.59987 22.4848 6.5935 22.8421 6.4522 23.1602C6.37151 23.3534 6.18601 23.48 5.98745 23.5299C5.68342 23.6045 5.34926 23.6126 5.05628 23.4914C4.8979 23.4294 4.78841 23.2948 4.69767 23.1569V24.7209H4.028C4.02834 23.4264 4.02733 22.1316 4.02834 20.8371C4.24498 20.8361 4.46161 20.8361 4.67792 20.8371C4.67055 20.9704 4.66318 21.1033 4.6595 21.2369C4.73986 21.1388 4.81453 21.031 4.92436 20.9634ZM5.14233 21.3129C4.98295 21.3253 4.80951 21.4043 4.7643 21.5711C4.67892 21.8651 4.69399 22.1765 4.70638 22.4792C4.72714 22.6764 4.75158 22.9305 4.96152 23.0189C5.1872 23.1063 5.4477 23.1016 5.67606 23.0269C5.87361 22.9573 5.90241 22.7249 5.92317 22.5454C5.94393 22.2481 5.95129 21.9448 5.89303 21.6511C5.87328 21.5373 5.81468 21.4197 5.70352 21.3719C5.52806 21.2945 5.32984 21.2985 5.14233 21.3129ZM7.40849 20.9684C7.73763 20.7993 8.12303 20.7933 8.48431 20.8103C8.785 20.8354 9.14997 20.8857 9.31571 21.1733C9.50255 21.5205 9.47208 21.929 9.49819 22.3101H7.66631C7.68774 22.5066 7.6623 22.7186 7.76141 22.8987C7.84612 23.041 8.02593 23.0701 8.17794 23.0785C8.36578 23.0798 8.56802 23.0952 8.74113 23.0079C8.84024 22.9302 8.84091 22.7922 8.85364 22.6784C9.06793 22.678 9.28222 22.678 9.49652 22.6784C9.48848 22.902 9.45969 23.1525 9.28022 23.3099C9.01067 23.5516 8.62494 23.5767 8.28007 23.5834C7.9757 23.5744 7.65426 23.559 7.3817 23.409C7.16105 23.2787 7.09073 23.0112 7.05189 22.7755C7.00267 22.4252 6.99028 22.0683 7.03214 21.7167C7.06629 21.4392 7.14096 21.1127 7.40849 20.9684ZM7.79991 21.3946C7.65995 21.5222 7.67368 21.7338 7.66765 21.9073C8.06142 21.9093 8.45518 21.9083 8.84928 21.9076C8.84861 21.7516 8.86368 21.5815 8.7793 21.4425C8.6966 21.33 8.54157 21.3226 8.41433 21.3089C8.20908 21.3059 7.98273 21.2835 7.79991 21.3946ZM10.9243 20.9667C11.156 20.806 11.4553 20.7835 11.7279 20.815C11.9599 20.8395 12.2057 20.9279 12.3426 21.1281C12.4642 21.2942 12.498 21.5058 12.4996 21.707C12.4986 22.3211 12.5 22.9349 12.4993 23.5489C12.287 23.5493 12.0751 23.5493 11.8635 23.5489C11.8625 22.968 11.8641 22.3874 11.8625 21.8068C11.8561 21.6799 11.8611 21.5332 11.7657 21.4355C11.6639 21.3253 11.5042 21.3039 11.3619 21.3049C11.1898 21.3039 11.0036 21.3333 10.871 21.4522C10.7414 21.5627 10.6922 21.7408 10.6915 21.9056C10.6905 22.4534 10.6919 23.0012 10.6909 23.5486C10.4789 23.5493 10.267 23.5493 10.0554 23.5489C10.055 22.6449 10.055 21.7408 10.0554 20.8368C10.2636 20.8361 10.4722 20.8365 10.6805 20.8368C10.6795 20.9955 10.6638 21.1532 10.6591 21.3119C10.7274 21.1837 10.799 21.0484 10.9243 20.9667ZM13.6508 19.7787C14.0017 19.6608 14.3757 19.6441 14.7427 19.631C15.0983 19.6327 15.47 19.6361 15.8021 19.7794C15.9709 19.8497 16.0877 20.0037 16.1447 20.1738C16.2374 20.428 16.2401 20.7032 16.2421 20.9707C15.9973 20.9707 15.7526 20.9714 15.5081 20.9704C15.5041 20.7822 15.5185 20.5713 15.402 20.4112C15.2841 20.2907 15.1 20.291 14.9436 20.2726C14.6255 20.2666 14.2944 20.2461 13.9897 20.356C13.8798 20.3908 13.8229 20.5006 13.8008 20.6064C13.7382 20.8904 13.7379 21.1833 13.7382 21.473C13.7419 21.86 13.7359 22.2528 13.8186 22.6335C13.8403 22.7728 13.9686 22.8585 14.0971 22.8893C14.3945 22.9633 14.7049 22.9526 15.0086 22.9345C15.1669 22.9138 15.3598 22.9034 15.4592 22.7581C15.5654 22.5846 15.5476 22.3713 15.542 22.1765C15.7891 22.1755 16.0358 22.1758 16.2829 22.1765C16.2799 22.4842 16.2746 22.8019 16.1627 23.0932C16.1051 23.2456 15.9863 23.3748 15.8323 23.4331C15.5299 23.5543 15.1984 23.562 14.8776 23.5814C14.5056 23.5878 14.129 23.5787 13.7653 23.492C13.552 23.4364 13.319 23.3387 13.2202 23.1267C13.094 22.8465 13.0709 22.5347 13.0384 22.233C13.0113 21.8346 12.9939 21.4355 13.0036 21.0364C13.0227 20.7132 13.0521 20.3727 13.2266 20.0911C13.3193 19.9344 13.4821 19.8363 13.6508 19.7787ZM16.4035 19.6659C16.6586 19.6662 16.9138 19.6588 17.1686 19.6696C17.4167 20.4568 17.6892 21.2359 17.9397 22.0221C18.0371 22.3241 18.1061 22.6348 18.2069 22.9359C18.3197 22.6111 18.3921 22.2736 18.5026 21.9481C18.7473 21.1877 18.9988 20.4296 19.2432 19.6692C19.495 19.6585 19.7475 19.6679 19.9996 19.6645V19.7479C19.5851 21.0112 19.1803 22.2779 18.7741 23.5443C18.3951 23.552 18.0154 23.553 17.6363 23.5436C17.2325 22.2488 16.8093 20.96 16.4035 19.6659Z" fill="white"/>
</svg>
