<svg width="262" height="261" viewBox="0 0 262 261" fill="none" xmlns="http://www.w3.org/2000/svg">
<path d="M133.999 15.6641C81.1987 15.6641 43.332 58.8641 43.332 111.664C43.332 164.464 104.665 225.264 126.532 247.131C127.481 248.165 128.635 248.991 129.921 249.556C131.206 250.121 132.595 250.413 133.999 250.413C135.403 250.413 136.792 250.121 138.077 249.556C139.362 248.991 140.516 248.165 141.465 247.131C163.332 225.264 224.665 165.531 224.665 111.664C224.665 57.7974 186.799 15.6641 133.999 15.6641ZM164.399 104.731L153.199 115.397L155.865 131.931C155.934 132.919 155.752 133.908 155.335 134.806C154.918 135.705 154.281 136.483 153.482 137.069C152.684 137.654 151.75 138.028 150.768 138.156C149.785 138.283 148.787 138.16 147.865 137.797L133.999 127.664L120.132 137.797C119.21 138.16 118.212 138.283 117.23 138.156C116.248 138.028 115.314 137.654 114.515 137.069C113.717 136.483 113.079 135.705 112.663 134.806C112.246 133.908 112.063 132.919 112.132 131.931L114.799 115.397L103.599 104.731C102.926 103.961 102.466 103.028 102.264 102.025C102.063 101.023 102.127 99.9848 102.45 99.0146C102.774 98.0443 103.345 97.1755 104.108 96.4942C104.871 95.8129 105.798 95.3429 106.799 95.1307L122.265 92.9974L129.199 77.5307C129.635 76.629 130.317 75.8686 131.166 75.3365C132.015 74.8044 132.997 74.5221 133.999 74.5221C135.001 74.5221 135.982 74.8044 136.831 75.3365C137.68 75.8686 138.362 76.629 138.799 77.5307L145.732 92.9974L161.199 95.1307C162.199 95.3429 163.127 95.8129 163.89 96.4942C164.652 97.1755 165.224 98.0443 165.547 99.0146C165.871 99.9848 165.935 101.023 165.733 102.025C165.532 103.028 165.072 103.961 164.399 104.731Z" fill="#851C72"/>
<circle cx="133" cy="108" r="48" fill="#F3F4F6"/>
<path d="M127.999 10.6641C75.1987 10.6641 37.332 53.8641 37.332 106.664C37.332 159.464 98.6654 220.264 120.532 242.131C121.481 243.165 122.635 243.991 123.921 244.556C125.206 245.121 126.595 245.413 127.999 245.413C129.403 245.413 130.792 245.121 132.077 244.556C133.362 243.991 134.516 243.165 135.465 242.131C157.332 220.264 218.665 160.531 218.665 106.664C218.665 52.7974 180.799 10.6641 127.999 10.6641ZM158.399 99.7307L147.199 110.397L149.865 126.931C149.934 127.919 149.752 128.908 149.335 129.806C148.918 130.705 148.281 131.483 147.482 132.069C146.684 132.654 145.75 133.028 144.768 133.156C143.785 133.283 142.787 133.16 141.865 132.797L127.999 122.664L114.132 132.797C113.21 133.16 112.212 133.283 111.23 133.156C110.248 133.028 109.314 132.654 108.515 132.069C107.717 131.483 107.079 130.705 106.663 129.806C106.246 128.908 106.063 127.919 106.132 126.931L108.799 110.397L97.5987 99.7307C96.9256 98.9607 96.4655 98.0281 96.2641 97.0254C96.0626 96.0227 96.1268 94.9848 96.4502 94.0146C96.7736 93.0443 97.345 92.1755 98.1078 91.4942C98.8706 90.8129 99.7982 90.3429 100.799 90.1307L116.265 87.9974L123.199 72.5307C123.635 71.629 124.317 70.8686 125.166 70.3365C126.015 69.8044 126.997 69.5221 127.999 69.5221C129.001 69.5221 129.982 69.8044 130.831 70.3365C131.68 70.8686 132.362 71.629 132.799 72.5307L139.732 87.9974L155.199 90.1307C156.199 90.3429 157.127 90.8129 157.89 91.4942C158.652 92.1755 159.224 93.0443 159.547 94.0146C159.871 94.9848 159.935 96.0227 159.733 97.0254C159.532 98.0281 159.072 98.9607 158.399 99.7307Z" fill="#D75AC0"/>
<circle cx="129" cy="104" r="48" fill="#F3F4F6"/>
<path d="M110.325 130V122.134L128.705 105.115C130.268 103.602 131.579 102.24 132.638 101.03C133.714 99.82 134.529 98.6349 135.084 97.4751C135.638 96.2985 135.916 95.0295 135.916 93.668C135.916 92.1552 135.571 90.8525 134.882 89.7599C134.193 88.6506 133.252 87.8017 132.058 87.2134C130.865 86.6083 129.512 86.3058 127.999 86.3058C126.419 86.3058 125.041 86.6251 123.864 87.2638C122.687 87.9026 121.78 88.8187 121.141 90.0121C120.502 91.2055 120.183 92.6258 120.183 94.2731H109.82C109.82 90.8945 110.585 87.9614 112.115 85.4737C113.644 82.986 115.787 81.0614 118.544 79.6999C121.301 78.3384 124.477 77.6577 128.075 77.6577C131.772 77.6577 134.991 78.3132 137.731 79.6243C140.488 80.9186 142.631 82.7171 144.16 85.0199C145.69 87.3227 146.455 89.9616 146.455 92.9368C146.455 94.8866 146.068 96.8112 145.295 98.7106C144.539 100.61 143.186 102.719 141.236 105.039C139.286 107.342 136.538 110.107 132.991 113.334L125.452 120.722V121.075H147.136V130H110.325Z" fill="#D75AC0"/>
</svg>
