<svg width="263" height="262" viewBox="0 0 263 262" fill="none" xmlns="http://www.w3.org/2000/svg">
<path d="M134.499 16.4453C81.6987 16.4453 43.832 59.6453 43.832 112.445C43.832 165.245 105.165 226.045 127.032 247.912C127.981 248.947 129.135 249.773 130.421 250.338C131.706 250.903 133.095 251.195 134.499 251.195C135.903 251.195 137.292 250.903 138.577 250.338C139.862 249.773 141.016 248.947 141.965 247.912C163.832 226.045 225.165 166.312 225.165 112.445C225.165 58.5786 187.299 16.4453 134.499 16.4453ZM164.899 105.512L153.699 116.179L156.365 132.712C156.434 133.7 156.252 134.689 155.835 135.588C155.418 136.486 154.781 137.264 153.982 137.85C153.184 138.436 152.25 138.81 151.268 138.937C150.285 139.064 149.287 138.941 148.365 138.579L134.499 128.445L120.632 138.579C119.71 138.941 118.712 139.064 117.73 138.937C116.748 138.81 115.814 138.436 115.015 137.85C114.217 137.264 113.579 136.486 113.163 135.588C112.746 134.689 112.563 133.7 112.632 132.712L115.299 116.179L104.099 105.512C103.426 104.742 102.966 103.809 102.764 102.807C102.563 101.804 102.627 100.766 102.95 99.7958C103.274 98.8256 103.845 97.9567 104.608 97.2755C105.371 96.5942 106.298 96.1242 107.299 95.912L122.765 93.7786L129.699 78.312C130.135 77.4103 130.817 76.6498 131.666 76.1177C132.515 75.5856 133.497 75.3034 134.499 75.3034C135.501 75.3034 136.482 75.5856 137.331 76.1177C138.18 76.6498 138.862 77.4103 139.299 78.312L146.232 93.7786L161.699 95.912C162.699 96.1242 163.627 96.5942 164.39 97.2755C165.152 97.9567 165.724 98.8256 166.047 99.7958C166.371 100.766 166.435 101.804 166.233 102.807C166.032 103.809 165.572 104.742 164.899 105.512Z" fill="#3464A3"/>
<circle cx="135.5" cy="109.781" r="48" fill="#F3F4F6"/>
<path d="M128.499 11.4453C75.6987 11.4453 37.832 54.6453 37.832 107.445C37.832 160.245 99.1654 221.045 121.032 242.912C121.981 243.947 123.135 244.773 124.421 245.338C125.706 245.903 127.095 246.195 128.499 246.195C129.903 246.195 131.292 245.903 132.577 245.338C133.862 244.773 135.016 243.947 135.965 242.912C157.832 221.045 219.165 161.312 219.165 107.445C219.165 53.5786 181.299 11.4453 128.499 11.4453ZM158.899 100.512L147.699 111.179L150.365 127.712C150.434 128.7 150.252 129.689 149.835 130.588C149.418 131.486 148.781 132.264 147.982 132.85C147.184 133.436 146.25 133.81 145.268 133.937C144.285 134.064 143.287 133.941 142.365 133.579L128.499 123.445L114.632 133.579C113.71 133.941 112.712 134.064 111.73 133.937C110.748 133.81 109.814 133.436 109.015 132.85C108.217 132.264 107.579 131.486 107.163 130.588C106.746 129.689 106.563 128.7 106.632 127.712L109.299 111.179L98.0987 100.512C97.4256 99.742 96.9655 98.8094 96.7641 97.8067C96.5626 96.804 96.6268 95.7661 96.9502 94.7958C97.2736 93.8256 97.845 92.9567 98.6078 92.2755C99.3706 91.5942 100.298 91.1242 101.299 90.912L116.765 88.7786L123.699 73.312C124.135 72.4103 124.817 71.6498 125.666 71.1177C126.515 70.5856 127.497 70.3034 128.499 70.3034C129.501 70.3034 130.482 70.5856 131.331 71.1177C132.18 71.6498 132.862 72.4103 133.299 73.312L140.232 88.7786L155.699 90.912C156.699 91.1242 157.627 91.5942 158.39 92.2755C159.152 92.9567 159.724 93.8256 160.047 94.7958C160.371 95.7661 160.435 96.804 160.233 97.8067C160.032 98.8094 159.572 99.742 158.899 100.512Z" fill="#80B4F7"/>
<circle cx="129.5" cy="104.781" r="48" fill="#F3F4F6"/>
<path d="M137.282 79.1449V130.781H126.364V89.5075H126.062L114.237 96.9201V87.2383L127.02 79.1449H137.282Z" fill="#80B4F6"/>
</svg>
