<svg width="257" height="257" viewBox="0 0 257 257" fill="none" xmlns="http://www.w3.org/2000/svg">
<path d="M128.499 11.5703C75.6987 11.5703 37.832 54.7703 37.832 107.57C37.832 160.37 99.1654 221.17 121.032 243.037C121.981 244.072 123.135 244.898 124.421 245.463C125.706 246.028 127.095 246.32 128.499 246.32C129.903 246.32 131.292 246.028 132.577 245.463C133.862 244.898 135.016 244.072 135.965 243.037C157.832 221.17 219.165 161.437 219.165 107.57C219.165 53.7036 181.299 11.5703 128.499 11.5703ZM158.899 100.637L147.699 111.304L150.365 127.837C150.434 128.825 150.252 129.814 149.835 130.713C149.418 131.611 148.781 132.389 147.982 132.975C147.184 133.561 146.25 133.935 145.268 134.062C144.285 134.189 143.287 134.066 142.365 133.704L128.499 123.57L114.632 133.704C113.71 134.066 112.712 134.189 111.73 134.062C110.748 133.935 109.814 133.561 109.015 132.975C108.217 132.389 107.579 131.611 107.163 130.713C106.746 129.814 106.563 128.825 106.632 127.837L109.299 111.304L98.0987 100.637C97.4256 99.867 96.9655 98.9344 96.7641 97.9317C96.5626 96.929 96.6268 95.8911 96.9502 94.9208C97.2736 93.9506 97.845 93.0817 98.6078 92.4005C99.3706 91.7192 100.298 91.2492 101.299 91.037L116.765 88.9036L123.699 73.437C124.135 72.5353 124.817 71.7748 125.666 71.2427C126.515 70.7106 127.497 70.4284 128.499 70.4284C129.501 70.4284 130.482 70.7106 131.331 71.2427C132.18 71.7748 132.862 72.5353 133.299 73.437L140.232 88.9036L155.699 91.037C156.699 91.2492 157.627 91.7192 158.39 92.4005C159.152 93.0817 159.724 93.9506 160.047 94.9208C160.371 95.8911 160.435 96.929 160.233 97.9317C160.032 98.9344 159.572 99.867 158.899 100.637Z" fill="#4992F1"/>
<circle cx="129.5" cy="104.906" r="48" fill="#F3F4F6"/>
<path d="M127.871 131.612C124.106 131.612 120.752 130.965 117.811 129.671C114.886 128.36 112.575 126.561 110.877 124.275C109.196 121.972 108.331 119.317 108.28 116.308H119.273C119.34 117.569 119.752 118.678 120.509 119.636C121.282 120.577 122.307 121.308 123.585 121.83C124.862 122.351 126.299 122.611 127.896 122.611C129.56 122.611 131.031 122.317 132.308 121.729C133.586 121.14 134.586 120.325 135.309 119.283C136.031 118.241 136.393 117.039 136.393 115.678C136.393 114.299 136.006 113.081 135.233 112.022C134.477 110.946 133.384 110.105 131.955 109.5C130.543 108.895 128.862 108.593 126.913 108.593H122.097V100.575H126.913C128.56 100.575 130.014 100.289 131.275 99.7177C132.552 99.1462 133.544 98.3562 134.25 97.3477C134.956 96.3223 135.309 95.1289 135.309 93.7674C135.309 92.4731 134.998 91.3385 134.376 90.3636C133.771 89.3719 132.913 88.5987 131.804 88.044C130.711 87.4893 129.434 87.212 127.972 87.212C126.492 87.212 125.139 87.4809 123.912 88.0188C122.685 88.5399 121.702 89.2879 120.962 90.2628C120.223 91.2377 119.828 92.3807 119.777 93.6918H109.314C109.364 90.7166 110.213 88.0945 111.86 85.8253C113.508 83.5561 115.726 81.7828 118.517 80.5053C121.324 79.2111 124.492 78.5639 128.022 78.5639C131.586 78.5639 134.704 79.2111 137.376 80.5053C140.049 81.7996 142.125 83.5477 143.604 85.7496C145.1 87.9348 145.839 90.3888 145.822 93.1119C145.839 96.003 144.94 98.415 143.125 100.348C141.326 102.281 138.981 103.508 136.09 104.029V104.433C139.889 104.92 142.78 106.239 144.764 108.391C146.764 110.526 147.755 113.198 147.739 116.409C147.755 119.35 146.907 121.964 145.192 124.25C143.494 126.536 141.15 128.335 138.158 129.646C135.166 130.957 131.737 131.612 127.871 131.612Z" fill="#1C549C"/>
</svg>
