<svg width="257" height="256" viewBox="0 0 257 256" fill="none" xmlns="http://www.w3.org/2000/svg">
<path d="M128.936 10.6641C76.1362 10.6641 38.2695 53.8641 38.2695 106.664C38.2695 159.464 99.6029 220.264 121.47 242.131C122.419 243.165 123.573 243.991 124.858 244.556C126.143 245.121 127.532 245.413 128.936 245.413C130.34 245.413 131.729 245.121 133.014 244.556C134.3 243.991 135.454 243.165 136.403 242.131C158.27 220.264 219.603 160.531 219.603 106.664C219.603 52.7974 181.736 10.6641 128.936 10.6641ZM159.336 99.7307L148.136 110.397L150.803 126.931C150.872 127.919 150.689 128.908 150.272 129.806C149.856 130.705 149.218 131.483 148.42 132.069C147.621 132.654 146.687 133.028 145.705 133.156C144.723 133.283 143.724 133.16 142.803 132.797L128.936 122.664L115.07 132.797C114.148 133.16 113.15 133.283 112.167 133.156C111.185 133.028 110.251 132.654 109.453 132.069C108.654 131.483 108.017 130.705 107.6 129.806C107.183 128.908 107.001 127.919 107.07 126.931L109.736 110.397L98.5362 99.7307C97.8631 98.9607 97.403 98.0281 97.2016 97.0254C97.0001 96.0227 97.0643 94.9848 97.3877 94.0146C97.7111 93.0443 98.2825 92.1755 99.0453 91.4942C99.8081 90.8129 100.736 90.3429 101.736 90.1307L117.203 87.9974L124.136 72.5307C124.573 71.629 125.255 70.8686 126.104 70.3365C126.953 69.8044 127.934 69.5221 128.936 69.5221C129.938 69.5221 130.92 69.8044 131.769 70.3365C132.618 70.8686 133.299 71.629 133.736 72.5307L140.67 87.9974L156.136 90.1307C157.137 90.3429 158.064 90.8129 158.827 91.4942C159.59 92.1755 160.161 93.0443 160.485 94.0146C160.808 94.9848 160.872 96.0227 160.671 97.0254C160.469 98.0281 160.009 98.9607 159.336 99.7307Z" fill="#4992F1"/>
<circle cx="129.938" cy="104" r="48" fill="#F3F4F6"/>
<path d="M107.782 120.923V112.326L129.339 78.3636H136.752V90.2642H132.364L118.775 111.771V112.174H149.408V120.923H107.782ZM132.566 130V118.301L132.768 114.494V78.3636H143.004V130H132.566Z" fill="#1C549C"/>
</svg>
