<svg width="263" height="261" viewBox="0 0 263 261" fill="none" xmlns="http://www.w3.org/2000/svg">
<path d="M134.499 15.6641C81.6987 15.6641 43.832 58.8641 43.832 111.664C43.832 164.464 105.165 225.264 127.032 247.131C127.981 248.165 129.135 248.991 130.421 249.556C131.706 250.121 133.095 250.413 134.499 250.413C135.903 250.413 137.292 250.121 138.577 249.556C139.862 248.991 141.016 248.165 141.965 247.131C163.832 225.264 225.165 165.531 225.165 111.664C225.165 57.7974 187.299 15.6641 134.499 15.6641ZM164.899 104.731L153.699 115.397L156.365 131.931C156.434 132.919 156.252 133.908 155.835 134.806C155.418 135.705 154.781 136.483 153.982 137.069C153.184 137.654 152.25 138.028 151.268 138.156C150.285 138.283 149.287 138.16 148.365 137.797L134.499 127.664L120.632 137.797C119.71 138.16 118.712 138.283 117.73 138.156C116.748 138.028 115.814 137.654 115.015 137.069C114.217 136.483 113.579 135.705 113.163 134.806C112.746 133.908 112.563 132.919 112.632 131.931L115.299 115.397L104.099 104.731C103.426 103.961 102.966 103.028 102.764 102.025C102.563 101.023 102.627 99.9848 102.95 99.0146C103.274 98.0443 103.845 97.1755 104.608 96.4942C105.371 95.8129 106.298 95.3429 107.299 95.1307L122.765 92.9974L129.699 77.5307C130.135 76.629 130.817 75.8686 131.666 75.3365C132.515 74.8044 133.497 74.5221 134.499 74.5221C135.501 74.5221 136.482 74.8044 137.331 75.3365C138.18 75.8686 138.862 76.629 139.299 77.5307L146.232 92.9974L161.699 95.1307C162.699 95.3429 163.627 95.8129 164.39 96.4942C165.152 97.1755 165.724 98.0443 166.047 99.0146C166.371 99.9848 166.435 101.023 166.233 102.025C166.032 103.028 165.572 103.961 164.899 104.731Z" fill="#851C72"/>
<circle cx="133.5" cy="108" r="48" fill="#F3F4F6"/>
<path d="M128.499 10.6641C75.6987 10.6641 37.832 53.8641 37.832 106.664C37.832 159.464 99.1654 220.264 121.032 242.131C121.981 243.165 123.135 243.991 124.421 244.556C125.706 245.121 127.095 245.413 128.499 245.413C129.903 245.413 131.292 245.121 132.577 244.556C133.862 243.991 135.016 243.165 135.965 242.131C157.832 220.264 219.165 160.531 219.165 106.664C219.165 52.7974 181.299 10.6641 128.499 10.6641ZM158.899 99.7307L147.699 110.397L150.365 126.931C150.434 127.919 150.252 128.908 149.835 129.806C149.418 130.705 148.781 131.483 147.982 132.069C147.184 132.654 146.25 133.028 145.268 133.156C144.285 133.283 143.287 133.16 142.365 132.797L128.499 122.664L114.632 132.797C113.71 133.16 112.712 133.283 111.73 133.156C110.748 133.028 109.814 132.654 109.015 132.069C108.217 131.483 107.579 130.705 107.163 129.806C106.746 128.908 106.563 127.919 106.632 126.931L109.299 110.397L98.0987 99.7307C97.4256 98.9607 96.9655 98.0281 96.7641 97.0254C96.5626 96.0227 96.6268 94.9848 96.9502 94.0146C97.2736 93.0443 97.845 92.1755 98.6078 91.4942C99.3706 90.8129 100.298 90.3429 101.299 90.1307L116.765 87.9974L123.699 72.5307C124.135 71.629 124.817 70.8686 125.666 70.3365C126.515 69.8044 127.497 69.5221 128.499 69.5221C129.501 69.5221 130.482 69.8044 131.331 70.3365C132.18 70.8686 132.862 71.629 133.299 72.5307L140.232 87.9974L155.699 90.1307C156.699 90.3429 157.627 90.8129 158.39 91.4942C159.152 92.1755 159.724 93.0443 160.047 94.0146C160.371 94.9848 160.435 96.0227 160.233 97.0254C160.032 98.0281 159.572 98.9607 158.899 99.7307Z" fill="#D75AC0"/>
<circle cx="129.5" cy="104" r="48" fill="#F3F4F6"/>
<path d="M128.991 131.135C124.654 131.118 120.922 130.05 117.796 127.933C114.686 125.815 112.291 122.747 110.61 118.73C108.946 114.712 108.123 109.88 108.139 104.232C108.139 98.6013 108.971 93.8024 110.635 89.8356C112.316 85.8687 114.712 82.8516 117.821 80.7841C120.948 78.6998 124.671 77.6577 128.991 77.6577C133.31 77.6577 137.025 78.6998 140.135 80.7841C143.261 82.8684 145.665 85.8939 147.346 89.8608C149.027 93.8108 149.859 98.6013 149.842 104.232C149.842 109.897 149.001 114.738 147.32 118.755C145.656 122.772 143.27 125.84 140.16 127.958C137.05 130.076 133.327 131.135 128.991 131.135ZM128.991 122.083C131.949 122.083 134.311 120.596 136.075 117.62C137.84 114.645 138.714 110.183 138.698 104.232C138.698 100.316 138.294 97.0549 137.487 94.4496C136.697 91.8442 135.571 89.886 134.109 88.5749C132.663 87.2638 130.957 86.6083 128.991 86.6083C126.049 86.6083 123.696 88.0791 121.931 91.0206C120.166 93.9621 119.275 98.366 119.258 104.232C119.258 108.199 119.653 111.51 120.443 114.166C121.25 116.805 122.385 118.789 123.847 120.116C125.309 121.428 127.024 122.083 128.991 122.083Z" fill="#D75AC0"/>
</svg>
