<svg width="263" height="261" viewBox="0 0 263 261" fill="none" xmlns="http://www.w3.org/2000/svg">
<path d="M134.936 15.6641C82.1362 15.6641 44.2695 58.8641 44.2695 111.664C44.2695 164.464 105.603 225.264 127.47 247.131C128.419 248.165 129.573 248.991 130.858 249.556C132.143 250.121 133.532 250.413 134.936 250.413C136.34 250.413 137.729 250.121 139.014 249.556C140.3 248.991 141.454 248.165 142.403 247.131C164.27 225.264 225.603 165.531 225.603 111.664C225.603 57.7974 187.736 15.6641 134.936 15.6641ZM165.336 104.731L154.136 115.397L156.803 131.931C156.872 132.919 156.689 133.908 156.272 134.806C155.856 135.705 155.218 136.483 154.42 137.069C153.621 137.654 152.687 138.028 151.705 138.156C150.723 138.283 149.724 138.16 148.803 137.797L134.936 127.664L121.07 137.797C120.148 138.16 119.15 138.283 118.167 138.156C117.185 138.028 116.251 137.654 115.453 137.069C114.654 136.483 114.017 135.705 113.6 134.806C113.183 133.908 113.001 132.919 113.07 131.931L115.736 115.397L104.536 104.731C103.863 103.961 103.403 103.028 103.202 102.025C103 101.023 103.064 99.9848 103.388 99.0146C103.711 98.0443 104.283 97.1755 105.045 96.4942C105.808 95.8129 106.736 95.3429 107.736 95.1307L123.203 92.9974L130.136 77.5307C130.573 76.629 131.255 75.8686 132.104 75.3365C132.953 74.8044 133.934 74.5221 134.936 74.5221C135.938 74.5221 136.92 74.8044 137.769 75.3365C138.618 75.8686 139.299 76.629 139.736 77.5307L146.67 92.9974L162.136 95.1307C163.137 95.3429 164.064 95.8129 164.827 96.4942C165.59 97.1755 166.161 98.0443 166.485 99.0146C166.808 99.9848 166.872 101.023 166.671 102.025C166.469 103.028 166.009 103.961 165.336 104.731Z" fill="#3464A3"/>
<circle cx="135.938" cy="109" r="48" fill="#F3F4F6"/>
<path d="M128.936 10.6641C76.1362 10.6641 38.2695 53.8641 38.2695 106.664C38.2695 159.464 99.6029 220.264 121.47 242.131C122.419 243.165 123.573 243.991 124.858 244.556C126.143 245.121 127.532 245.413 128.936 245.413C130.34 245.413 131.729 245.121 133.014 244.556C134.3 243.991 135.454 243.165 136.403 242.131C158.27 220.264 219.603 160.531 219.603 106.664C219.603 52.7974 181.736 10.6641 128.936 10.6641ZM159.336 99.7307L148.136 110.397L150.803 126.931C150.872 127.919 150.689 128.908 150.272 129.806C149.856 130.705 149.218 131.483 148.42 132.069C147.621 132.654 146.687 133.028 145.705 133.156C144.723 133.283 143.724 133.16 142.803 132.797L128.936 122.664L115.07 132.797C114.148 133.16 113.15 133.283 112.167 133.156C111.185 133.028 110.251 132.654 109.453 132.069C108.654 131.483 108.017 130.705 107.6 129.806C107.183 128.908 107.001 127.919 107.07 126.931L109.736 110.397L98.5362 99.7307C97.8631 98.9607 97.403 98.0281 97.2016 97.0254C97.0001 96.0227 97.0643 94.9848 97.3877 94.0146C97.7111 93.0443 98.2825 92.1755 99.0453 91.4942C99.8081 90.8129 100.736 90.3429 101.736 90.1307L117.203 87.9974L124.136 72.5307C124.573 71.629 125.255 70.8686 126.104 70.3365C126.953 69.8044 127.934 69.5221 128.936 69.5221C129.938 69.5221 130.92 69.8044 131.769 70.3365C132.618 70.8686 133.299 71.629 133.736 72.5307L140.67 87.9974L156.136 90.1307C157.137 90.3429 158.064 90.8129 158.827 91.4942C159.59 92.1755 160.161 93.0443 160.485 94.0146C160.808 94.9848 160.872 96.0227 160.671 97.0254C160.469 98.0281 160.009 98.9607 159.336 99.7307Z" fill="#80B4F7"/>
<circle cx="129.938" cy="104" r="48" fill="#F3F4F6"/>
<path d="M107.782 120.923V112.326L129.339 78.3636H136.752V90.2642H132.364L118.775 111.771V112.174H149.408V120.923H107.782ZM132.566 130V118.301L132.768 114.494V78.3636H143.004V130H132.566Z" fill="#80B4F6"/>
</svg>
