<svg width="262" height="261" viewBox="0 0 262 261" fill="none" xmlns="http://www.w3.org/2000/svg">
<path d="M133.999 15.6641C81.1987 15.6641 43.332 58.8641 43.332 111.664C43.332 164.464 104.665 225.264 126.532 247.131C127.481 248.165 128.635 248.991 129.921 249.556C131.206 250.121 132.595 250.413 133.999 250.413C135.403 250.413 136.792 250.121 138.077 249.556C139.362 248.991 140.516 248.165 141.465 247.131C163.332 225.264 224.665 165.531 224.665 111.664C224.665 57.7974 186.799 15.6641 133.999 15.6641ZM164.399 104.731L153.199 115.397L155.865 131.931C155.934 132.919 155.752 133.908 155.335 134.806C154.918 135.705 154.281 136.483 153.482 137.069C152.684 137.654 151.75 138.028 150.768 138.156C149.785 138.283 148.787 138.16 147.865 137.797L133.999 127.664L120.132 137.797C119.21 138.16 118.212 138.283 117.23 138.156C116.248 138.028 115.314 137.654 114.515 137.069C113.717 136.483 113.079 135.705 112.663 134.806C112.246 133.908 112.063 132.919 112.132 131.931L114.799 115.397L103.599 104.731C102.926 103.961 102.466 103.028 102.264 102.025C102.063 101.023 102.127 99.9848 102.45 99.0146C102.774 98.0443 103.345 97.1755 104.108 96.4942C104.871 95.8129 105.798 95.3429 106.799 95.1307L122.265 92.9974L129.199 77.5307C129.635 76.629 130.317 75.8686 131.166 75.3365C132.015 74.8044 132.997 74.5221 133.999 74.5221C135.001 74.5221 135.982 74.8044 136.831 75.3365C137.68 75.8686 138.362 76.629 138.799 77.5307L145.732 92.9974L161.199 95.1307C162.199 95.3429 163.127 95.8129 163.89 96.4942C164.652 97.1755 165.224 98.0443 165.547 99.0146C165.871 99.9848 165.935 101.023 165.733 102.025C165.532 103.028 165.072 103.961 164.399 104.731Z" fill="#851C72"/>
<circle cx="133" cy="108" r="48" fill="#F3F4F6"/>
<path d="M127.999 10.6641C75.1987 10.6641 37.332 53.8641 37.332 106.664C37.332 159.464 98.6654 220.264 120.532 242.131C121.481 243.165 122.635 243.991 123.921 244.556C125.206 245.121 126.595 245.413 127.999 245.413C129.403 245.413 130.792 245.121 132.077 244.556C133.362 243.991 134.516 243.165 135.465 242.131C157.332 220.264 218.665 160.531 218.665 106.664C218.665 52.7974 180.799 10.6641 127.999 10.6641ZM158.399 99.7307L147.199 110.397L149.865 126.931C149.934 127.919 149.752 128.908 149.335 129.806C148.918 130.705 148.281 131.483 147.482 132.069C146.684 132.654 145.75 133.028 144.768 133.156C143.785 133.283 142.787 133.16 141.865 132.797L127.999 122.664L114.132 132.797C113.21 133.16 112.212 133.283 111.23 133.156C110.248 133.028 109.314 132.654 108.515 132.069C107.717 131.483 107.079 130.705 106.663 129.806C106.246 128.908 106.063 127.919 106.132 126.931L108.799 110.397L97.5987 99.7307C96.9256 98.9607 96.4655 98.0281 96.2641 97.0254C96.0626 96.0227 96.1268 94.9848 96.4502 94.0146C96.7736 93.0443 97.345 92.1755 98.1078 91.4942C98.8706 90.8129 99.7982 90.3429 100.799 90.1307L116.265 87.9974L123.199 72.5307C123.635 71.629 124.317 70.8686 125.166 70.3365C126.015 69.8044 126.997 69.5221 127.999 69.5221C129.001 69.5221 129.982 69.8044 130.831 70.3365C131.68 70.8686 132.362 71.629 132.799 72.5307L139.732 87.9974L155.199 90.1307C156.199 90.3429 157.127 90.8129 157.89 91.4942C158.652 92.1755 159.224 93.0443 159.547 94.0146C159.871 94.9848 159.935 96.0227 159.733 97.0254C159.532 98.0281 159.072 98.9607 158.399 99.7307Z" fill="#D75AC0"/>
<circle cx="129" cy="104" r="48" fill="#F3F4F6"/>
<path d="M128.371 130.706C124.606 130.706 121.252 130.059 118.311 128.765C115.386 127.453 113.075 125.655 111.377 123.369C109.696 121.066 108.831 118.41 108.78 115.402H119.773C119.84 116.662 120.252 117.772 121.009 118.73C121.782 119.671 122.807 120.402 124.085 120.923C125.362 121.444 126.799 121.705 128.396 121.705C130.06 121.705 131.531 121.411 132.808 120.822C134.086 120.234 135.086 119.419 135.809 118.377C136.531 117.335 136.893 116.133 136.893 114.771C136.893 113.393 136.506 112.174 135.733 111.115C134.977 110.04 133.884 109.199 132.455 108.594C131.043 107.989 129.362 107.686 127.413 107.686H122.597V99.6687H127.413C129.06 99.6687 130.514 99.3829 131.775 98.8114C133.052 98.2399 134.044 97.4499 134.75 96.4414C135.456 95.4161 135.809 94.2227 135.809 92.8612C135.809 91.5669 135.498 90.4323 134.876 89.4574C134.271 88.4657 133.413 87.6925 132.304 87.1378C131.211 86.5831 129.934 86.3058 128.472 86.3058C126.992 86.3058 125.639 86.5747 124.412 87.1126C123.185 87.6336 122.202 88.3816 121.462 89.3565C120.723 90.3314 120.328 91.4744 120.277 92.7855H109.814C109.864 89.8104 110.713 87.1882 112.36 84.919C114.008 82.6499 116.226 80.8765 119.017 79.5991C121.824 78.3048 124.992 77.6577 128.522 77.6577C132.086 77.6577 135.204 78.3048 137.876 79.5991C140.549 80.8933 142.625 82.6415 144.104 84.8434C145.6 87.0285 146.339 89.4826 146.322 92.2056C146.339 95.0967 145.44 97.5088 143.625 99.4418C141.826 101.375 139.481 102.602 136.59 103.123V103.526C140.389 104.014 143.28 105.333 145.264 107.485C147.264 109.619 148.255 112.292 148.239 115.502C148.255 118.444 147.407 121.058 145.692 123.344C143.994 125.63 141.65 127.428 138.658 128.739C135.666 130.05 132.237 130.706 128.371 130.706Z" fill="#D75AC0"/>
</svg>
