<svg width="263" height="262" viewBox="0 0 263 262" fill="none" xmlns="http://www.w3.org/2000/svg">
<path d="M134.499 16.2891C81.6987 16.2891 43.832 59.4891 43.832 112.289C43.832 165.089 105.165 225.889 127.032 247.756C127.981 248.79 129.135 249.616 130.421 250.181C131.706 250.746 133.095 251.038 134.499 251.038C135.903 251.038 137.292 250.746 138.577 250.181C139.862 249.616 141.016 248.79 141.965 247.756C163.832 225.889 225.165 166.156 225.165 112.289C225.165 58.4224 187.299 16.2891 134.499 16.2891ZM164.899 105.356L153.699 116.022L156.365 132.556C156.434 133.544 156.252 134.533 155.835 135.431C155.418 136.33 154.781 137.108 153.982 137.694C153.184 138.279 152.25 138.653 151.268 138.781C150.285 138.908 149.287 138.785 148.365 138.422L134.499 128.289L120.632 138.422C119.71 138.785 118.712 138.908 117.73 138.781C116.748 138.653 115.814 138.279 115.015 137.694C114.217 137.108 113.579 136.33 113.163 135.431C112.746 134.533 112.563 133.544 112.632 132.556L115.299 116.022L104.099 105.356C103.426 104.586 102.966 103.653 102.764 102.65C102.563 101.648 102.627 100.61 102.95 99.6396C103.274 98.6693 103.845 97.8005 104.608 97.1192C105.371 96.4379 106.298 95.9679 107.299 95.7557L122.765 93.6224L129.699 78.1557C130.135 77.254 130.817 76.4936 131.666 75.9615C132.515 75.4294 133.497 75.1471 134.499 75.1471C135.501 75.1471 136.482 75.4294 137.331 75.9615C138.18 76.4936 138.862 77.254 139.299 78.1557L146.232 93.6224L161.699 95.7557C162.699 95.9679 163.627 96.4379 164.39 97.1192C165.152 97.8005 165.724 98.6693 166.047 99.6396C166.371 100.61 166.435 101.648 166.233 102.65C166.032 103.653 165.572 104.586 164.899 105.356Z" fill="#3464A3"/>
<circle cx="135.5" cy="109.625" r="48" fill="#F3F4F6"/>
<path d="M128.499 11.2891C75.6987 11.2891 37.832 54.4891 37.832 107.289C37.832 160.089 99.1654 220.889 121.032 242.756C121.981 243.79 123.135 244.616 124.421 245.181C125.706 245.746 127.095 246.038 128.499 246.038C129.903 246.038 131.292 245.746 132.577 245.181C133.862 244.616 135.016 243.79 135.965 242.756C157.832 220.889 219.165 161.156 219.165 107.289C219.165 53.4224 181.299 11.2891 128.499 11.2891ZM158.899 100.356L147.699 111.022L150.365 127.556C150.434 128.544 150.252 129.533 149.835 130.431C149.418 131.33 148.781 132.108 147.982 132.694C147.184 133.279 146.25 133.653 145.268 133.781C144.285 133.908 143.287 133.785 142.365 133.422L128.499 123.289L114.632 133.422C113.71 133.785 112.712 133.908 111.73 133.781C110.748 133.653 109.814 133.279 109.015 132.694C108.217 132.108 107.579 131.33 107.163 130.431C106.746 129.533 106.563 128.544 106.632 127.556L109.299 111.022L98.0987 100.356C97.4256 99.5857 96.9655 98.6531 96.7641 97.6504C96.5626 96.6477 96.6268 95.6098 96.9502 94.6396C97.2736 93.6693 97.845 92.8005 98.6078 92.1192C99.3706 91.4379 100.298 90.9679 101.299 90.7557L116.765 88.6224L123.699 73.1557C124.135 72.254 124.817 71.4936 125.666 70.9615C126.515 70.4294 127.497 70.1471 128.499 70.1471C129.501 70.1471 130.482 70.4294 131.331 70.9615C132.18 71.4936 132.862 72.254 133.299 73.1557L140.232 88.6224L155.699 90.7557C156.699 90.9679 157.627 91.4379 158.39 92.1192C159.152 92.8005 159.724 93.6693 160.047 94.6396C160.371 95.6098 160.435 96.6477 160.233 97.6504C160.032 98.6531 159.572 99.5857 158.899 100.356Z" fill="#80B4F7"/>
<circle cx="129.5" cy="104.625" r="48" fill="#F3F4F6"/>
<path d="M109.825 130.625V122.759L128.205 105.74C129.768 104.227 131.079 102.865 132.138 101.655C133.214 100.445 134.029 99.2599 134.584 98.1001C135.138 96.9235 135.416 95.6545 135.416 94.293C135.416 92.7802 135.071 91.4775 134.382 90.3849C133.693 89.2756 132.752 88.4267 131.558 87.8384C130.365 87.2333 129.012 86.9308 127.499 86.9308C125.919 86.9308 124.541 87.2501 123.364 87.8888C122.187 88.5276 121.28 89.4437 120.641 90.6371C120.002 91.8305 119.683 93.2508 119.683 94.8981H109.32C109.32 91.5195 110.085 88.5864 111.615 86.0987C113.144 83.611 115.287 81.6864 118.044 80.3249C120.801 78.9634 123.977 78.2827 127.575 78.2827C131.272 78.2827 134.491 78.9382 137.231 80.2493C139.988 81.5436 142.131 83.3421 143.66 85.6449C145.19 87.9477 145.955 90.5866 145.955 93.5618C145.955 95.5116 145.568 97.4362 144.795 99.3356C144.039 101.235 142.686 103.344 140.736 105.664C138.786 107.967 136.038 110.732 132.491 113.959L124.952 121.347V121.7H146.636V130.625H109.825Z" fill="#80B4F6"/>
</svg>
