<svg width="257" height="257" viewBox="0 0 257 257" fill="none" xmlns="http://www.w3.org/2000/svg">
<path d="M128.499 11.4453C75.6987 11.4453 37.832 54.6453 37.832 107.445C37.832 160.245 99.1654 221.045 121.032 242.912C121.981 243.947 123.135 244.773 124.421 245.338C125.706 245.903 127.095 246.195 128.499 246.195C129.903 246.195 131.292 245.903 132.577 245.338C133.862 244.773 135.016 243.947 135.965 242.912C157.832 221.045 219.165 161.312 219.165 107.445C219.165 53.5786 181.299 11.4453 128.499 11.4453ZM158.899 100.512L147.699 111.179L150.365 127.712C150.434 128.7 150.252 129.689 149.835 130.588C149.418 131.486 148.781 132.264 147.982 132.85C147.184 133.436 146.25 133.81 145.268 133.937C144.285 134.064 143.287 133.941 142.365 133.579L128.499 123.445L114.632 133.579C113.71 133.941 112.712 134.064 111.73 133.937C110.748 133.81 109.814 133.436 109.015 132.85C108.217 132.264 107.579 131.486 107.163 130.588C106.746 129.689 106.563 128.7 106.632 127.712L109.299 111.179L98.0987 100.512C97.4256 99.742 96.9655 98.8094 96.7641 97.8067C96.5626 96.804 96.6268 95.7661 96.9502 94.7958C97.2736 93.8256 97.845 92.9567 98.6078 92.2755C99.3706 91.5942 100.298 91.1242 101.299 90.912L116.765 88.7786L123.699 73.312C124.135 72.4103 124.817 71.6498 125.666 71.1177C126.515 70.5856 127.497 70.3034 128.499 70.3034C129.501 70.3034 130.482 70.5856 131.331 71.1177C132.18 71.6498 132.862 72.4103 133.299 73.312L140.232 88.7786L155.699 90.912C156.699 91.1242 157.627 91.5942 158.39 92.2755C159.152 92.9567 159.724 93.8256 160.047 94.7958C160.371 95.7661 160.435 96.804 160.233 97.8067C160.032 98.8094 159.572 99.742 158.899 100.512Z" fill="#4992F1"/>
<circle cx="129.5" cy="104.781" r="48" fill="#F3F4F6"/>
<path d="M137.282 79.1449V130.781H126.364V89.5075H126.062L114.237 96.9201V87.2383L127.02 79.1449H137.282Z" fill="#1C549C"/>
</svg>
