<svg width="256" height="257" viewBox="0 0 256 257" fill="none" xmlns="http://www.w3.org/2000/svg">
<path d="M127.999 11.1641C75.1987 11.1641 37.332 54.3641 37.332 107.164C37.332 159.964 98.6654 220.764 120.532 242.631C121.481 243.665 122.635 244.491 123.921 245.056C125.206 245.621 126.595 245.913 127.999 245.913C129.403 245.913 130.792 245.621 132.077 245.056C133.362 244.491 134.516 243.665 135.465 242.631C157.332 220.764 218.665 161.031 218.665 107.164C218.665 53.2974 180.799 11.1641 127.999 11.1641ZM158.399 100.231L147.199 110.897L149.865 127.431C149.934 128.419 149.752 129.408 149.335 130.306C148.918 131.205 148.281 131.983 147.482 132.569C146.684 133.154 145.75 133.528 144.768 133.656C143.785 133.783 142.787 133.66 141.865 133.297L127.999 123.164L114.132 133.297C113.21 133.66 112.212 133.783 111.23 133.656C110.248 133.528 109.314 133.154 108.515 132.569C107.717 131.983 107.079 131.205 106.663 130.306C106.246 129.408 106.063 128.419 106.132 127.431L108.799 110.897L97.5987 100.231C96.9256 99.4607 96.4655 98.5281 96.2641 97.5254C96.0626 96.5227 96.1268 95.4848 96.4502 94.5146C96.7736 93.5443 97.345 92.6755 98.1078 91.9942C98.8706 91.3129 99.7982 90.8429 100.799 90.6307L116.265 88.4974L123.199 73.0307C123.635 72.129 124.317 71.3686 125.166 70.8365C126.015 70.3044 126.997 70.0221 127.999 70.0221C129.001 70.0221 129.982 70.3044 130.831 70.8365C131.68 71.3686 132.362 72.129 132.799 73.0307L139.732 88.4974L155.199 90.6307C156.199 90.8429 157.127 91.3129 157.89 91.9942C158.652 92.6755 159.224 93.5443 159.547 94.5146C159.871 95.4848 159.935 96.5227 159.733 97.5254C159.532 98.5281 159.072 99.4607 158.399 100.231Z" fill="#B82E9F"/>
<circle cx="129" cy="104.5" r="48" fill="#F3F4F6"/>
<path d="M128.491 131.635C124.154 131.618 120.422 130.55 117.296 128.433C114.186 126.315 111.791 123.247 110.11 119.23C108.446 115.212 107.623 110.38 107.639 104.732C107.639 99.1013 108.471 94.3024 110.135 90.3356C111.816 86.3687 114.212 83.3516 117.321 81.2841C120.448 79.1998 124.171 78.1577 128.491 78.1577C132.81 78.1577 136.525 79.1998 139.635 81.2841C142.761 83.3684 145.165 86.3939 146.846 90.3608C148.527 94.3108 149.359 99.1013 149.342 104.732C149.342 110.397 148.501 115.238 146.82 119.255C145.156 123.272 142.77 126.34 139.66 128.458C136.55 130.576 132.827 131.635 128.491 131.635ZM128.491 122.583C131.449 122.583 133.811 121.096 135.575 118.12C137.34 115.145 138.214 110.683 138.198 104.732C138.198 100.816 137.794 97.5549 136.987 94.9496C136.197 92.3442 135.071 90.386 133.609 89.0749C132.163 87.7638 130.457 87.1083 128.491 87.1083C125.549 87.1083 123.196 88.5791 121.431 91.5206C119.666 94.4621 118.775 98.866 118.758 104.732C118.758 108.699 119.153 112.01 119.943 114.666C120.75 117.305 121.885 119.289 123.347 120.616C124.809 121.928 126.524 122.583 128.491 122.583Z" fill="#7A1067"/>
</svg>
