<svg width="5500" height="4230" viewBox="0 0 5500 4230" fill="none" xmlns="http://www.w3.org/2000/svg">
<rect width="1100" height="2000" transform="matrix(1 0 0 -1 4400 3999.41)" fill="#343434"/>
<rect width="19.9309" height="597.574" transform="matrix(0.984808 0.173648 0.173648 -0.984808 4642.89 2580.5)" fill="white"/>
<rect width="19.9309" height="428.901" transform="matrix(0.984808 -0.173648 -0.173648 -0.984808 4717.37 3002.87)" fill="white"/>
<rect width="19.9309" height="427.02" transform="matrix(0.984808 -0.173648 -0.173648 -0.984808 5130.37 3002.87)" fill="white"/>
<rect width="19.9309" height="598.571" transform="matrix(0.984808 0.173648 0.173648 -0.984808 5056.22 2582.35)" fill="white"/>
<path d="M5140 2999.41C5140 3096.59 5120.86 3192.82 5083.67 3282.6C5046.48 3372.38 4991.97 3453.96 4923.26 3522.67C4854.54 3591.39 4772.97 3645.89 4683.19 3683.08C4593.4 3720.27 4497.18 3739.41 4400 3739.41" stroke="white" stroke-width="20"/>
<path d="M4727 2999.41C4727 3042.35 4718.54 3084.88 4702.11 3124.55C4685.68 3164.22 4661.59 3200.27 4631.22 3230.64C4600.86 3261 4564.81 3285.09 4525.14 3301.52C4485.46 3317.95 4442.94 3326.41 4400 3326.41" stroke="white" stroke-width="20"/>
<path d="M4841.9 3911.05V3906.36H4874.62V3911.05H4860.9V3950H4855.62V3911.05H4841.9ZM4879.03 3906.36H4885.08L4897.18 3926.73H4897.69L4909.8 3906.36H4915.85L4900.08 3932.02V3950H4894.8V3932.02L4879.03 3906.36ZM4922.68 3950V3906.36H4937.43C4940.85 3906.36 4943.65 3906.98 4945.82 3908.22C4948.01 3909.44 4949.63 3911.09 4950.68 3913.18C4951.73 3915.27 4952.26 3917.6 4952.26 3920.17C4952.26 3922.74 4951.73 3925.08 4950.68 3927.18C4949.64 3929.28 4948.04 3930.96 4945.86 3932.21C4943.69 3933.44 4940.91 3934.06 4937.51 3934.06H4926.94V3929.38H4937.34C4939.69 3929.38 4941.57 3928.97 4942.99 3928.16C4944.41 3927.35 4945.44 3926.26 4946.08 3924.88C4946.73 3923.49 4947.06 3921.92 4947.06 3920.17C4947.06 3918.42 4946.73 3916.86 4946.08 3915.48C4945.44 3914.11 4944.4 3913.03 4942.97 3912.24C4941.53 3911.45 4939.63 3911.05 4937.26 3911.05H4927.97V3950H4922.68ZM4960.77 3950V3906.36H4987.1V3911.05H4966.05V3925.8H4985.74V3930.48H4966.05V3945.31H4987.44V3950H4960.77ZM5014.7 3925.84V3930.53H4995.61V3925.84H5014.7ZM5024.23 3950V3906.36H5029.51V3928.01H5030.02L5049.62 3906.36H5056.53L5038.2 3926.05L5056.53 3950H5050.13L5034.96 3929.72L5029.51 3935.85V3950H5024.23Z" fill="#7E7E7E"/>
<rect x="4400" width="1100" height="2000" fill="#343434"/>
<path d="M5069.57 1315.08C5122.64 1202.29 5146.37 1077.93 5138.54 953.535C5130.71 829.136 5091.59 708.729 5024.8 603.488C4958.01 498.247 4865.72 411.581 4756.5 351.533C4647.27 291.485 4524.64 260 4400 260" stroke="white" stroke-width="20"/>
<path d="M5169.79 1999.58C5175.51 1864.44 5144.08 1730.32 5078.92 1611.8" stroke="white" stroke-width="20"/>
<path fill-rule="evenodd" clip-rule="evenodd" d="M4704.94 1143.49C4655.89 1247.73 4632.2 1362.1 4635.82 1477.24C4639.44 1592.39 4670.26 1705.04 4725.76 1805.99L4708.23 1815.63C4651.21 1711.91 4619.55 1596.17 4615.83 1477.87C4612.11 1359.57 4636.45 1242.07 4686.84 1134.98L4704.94 1143.49Z" fill="white"/>
<path d="M4695.88 1139.23C4719.33 1089.39 4729.81 1034.44 4726.35 979.468C4722.9 924.497 4705.61 871.29 4676.1 824.785C4646.58 778.279 4605.8 739.983 4557.53 713.448C4509.27 686.913 4455.08 673 4400 673" stroke="white" stroke-width="20"/>
<path d="M4695.88 1139.23C4719.33 1089.39 4729.81 1034.44 4726.35 979.468C4722.9 924.497 4705.61 871.29 4676.1 824.785C4646.58 778.279 4605.8 739.983 4557.53 713.448C4509.27 686.913 4455.08 673 4400 673" stroke="white" stroke-width="20"/>
<path fill-rule="evenodd" clip-rule="evenodd" d="M4707.79 1815.28C4738.45 1871.05 4751.61 1934.75 4745.57 1998.09L4765.48 1999.99C4771.9 1932.65 4757.91 1864.93 4725.32 1805.65L4707.79 1815.28Z" fill="white"/>
<path d="M5078.92 1611.8C5054.06 1566.58 5040.26 1516.12 5038.64 1464.54C5037.02 1412.96 5047.62 1361.73 5069.6 1315.04" stroke="white" stroke-width="20"/>
<path d="M5057.1 80.9489V85.6364H5024.38V80.9489H5038.1V42H5043.38V80.9489H5057.1ZM5019.97 85.6364H5013.92L5001.82 65.267H5001.31L4989.2 85.6364H4983.15L4998.92 59.983V42H5004.2V59.983L5019.97 85.6364ZM4976.32 42V85.6364H4961.57C4958.15 85.6364 4955.35 85.0185 4953.18 83.7827C4950.99 82.5611 4949.37 80.9062 4948.32 78.8182C4947.27 76.7301 4946.74 74.4006 4946.74 71.8295C4946.74 69.2585 4947.27 66.9219 4948.32 64.8196C4949.36 62.7173 4950.96 61.0412 4953.14 59.7912C4955.31 58.5554 4958.09 57.9375 4961.49 57.9375H4972.06V62.625H4961.66C4959.31 62.625 4957.43 63.0298 4956.01 63.8395C4954.59 64.6491 4953.56 65.7429 4952.92 67.1207C4952.27 68.5128 4951.94 70.0824 4951.94 71.8295C4951.94 73.5767 4952.27 75.1392 4952.92 76.517C4953.56 77.8949 4954.6 78.9744 4956.03 79.7557C4957.47 80.5511 4959.37 80.9489 4961.74 80.9489H4971.03V42L4976.32 42ZM4938.23 42V85.6364H4911.9V80.9489H4932.95V66.2045L4913.26 66.2045V61.517L4932.95 61.517V46.6875L4911.56 46.6875V42L4938.23 42ZM4884.3 66.1619V61.4744H4903.39V66.1619H4884.3ZM4874.77 42V85.6364H4860.03C4856.62 85.6364 4853.82 85.054 4851.64 83.8892C4849.45 82.7386 4847.83 81.1548 4846.78 79.1378C4845.73 77.1207 4845.2 74.8267 4845.2 72.2557C4845.2 69.6847 4845.73 67.4048 4846.78 65.4162C4847.83 63.4276 4849.44 61.8651 4851.61 60.7287C4853.79 59.6065 4856.56 59.0455 4859.94 59.0455H4871.88V63.8182H4860.12C4857.79 63.8182 4855.91 64.1591 4854.49 64.8409C4853.06 65.5227 4852.02 66.4886 4851.38 67.7386C4850.73 69.0028 4850.4 70.5085 4850.4 72.2557C4850.4 74.0028 4850.73 75.5298 4851.38 76.8366C4852.03 78.1435 4853.08 79.152 4854.51 79.8622C4855.95 80.5866 4857.84 80.9489 4860.2 80.9489H4869.49V42H4874.77ZM4854.23 61.6023L4843.5 42H4849.63L4860.2 61.6023L4854.23 61.6023Z" fill="#7E7E7E"/>
<path d="M5159.79 2000C5159.79 1999.63 5159.8 1999.26 5159.81 1998.89L5179.87 2000H5159.79Z" fill="white"/>
<path d="M4745.5 2000C4745.5 1999.28 4745.53 1998.57 4745.59 1997.86L4765.52 2000H4745.5Z" fill="white"/>
<rect x="1100" width="1100" height="2000" fill="#343434"/>
<rect x="1100" y="250" width="1100" height="20" fill="white"/>
<rect x="1100" y="663" width="1100" height="20" fill="white"/>
<rect x="1100" y="1730" width="1100" height="20" fill="white"/>
<path d="M1100 1337V1000H1120V1327C1120 1332.52 1115.52 1337 1110 1337H1100Z" fill="white"/>
<rect x="1100" y="1000" width="1100" height="20" fill="white"/>
<path d="M1541.9 1946.05V1941.36H1574.62V1946.05H1560.9V1985H1555.62V1946.05H1541.9ZM1579.03 1941.36H1585.08L1597.18 1961.73H1597.69L1609.8 1941.36H1615.85L1600.08 1967.02V1985H1594.8V1967.02L1579.03 1941.36ZM1622.68 1985V1941.36H1637.43C1640.85 1941.36 1643.65 1941.98 1645.82 1943.22C1648.01 1944.44 1649.63 1946.09 1650.68 1948.18C1651.73 1950.27 1652.26 1952.6 1652.26 1955.17C1652.26 1957.74 1651.73 1960.08 1650.68 1962.18C1649.64 1964.28 1648.04 1965.96 1645.86 1967.21C1643.69 1968.44 1640.91 1969.06 1637.51 1969.06H1626.94V1964.38H1637.34C1639.69 1964.38 1641.57 1963.97 1642.99 1963.16C1644.41 1962.35 1645.44 1961.26 1646.08 1959.88C1646.73 1958.49 1647.06 1956.92 1647.06 1955.17C1647.06 1953.42 1646.73 1951.86 1646.08 1950.48C1645.44 1949.11 1644.4 1948.03 1642.97 1947.24C1641.53 1946.45 1639.63 1946.05 1637.26 1946.05H1627.97V1985H1622.68ZM1660.77 1985V1941.36H1687.1V1946.05H1666.05V1960.8H1685.74V1965.48H1666.05V1980.31H1687.44V1985H1660.77ZM1714.7 1960.84V1965.53H1695.61V1960.84H1714.7ZM1726.02 1985H1720.48L1736.5 1941.36H1741.95L1757.98 1985H1752.44L1739.4 1948.27H1739.06L1726.02 1985ZM1728.06 1967.95H1750.39V1972.64H1728.06V1967.95Z" fill="#7E7E7E"/>
<rect x="2120" y="1770" width="60" height="60" rx="3" fill="#5161F1"/>
<rect x="3300" width="1100" height="2000" fill="#343434"/>
<rect x="3300" y="250" width="1100" height="20" fill="white"/>
<path d="M3300 663H3627C3632.52 663 3637 667.477 3637 673V683H3300V663Z" fill="white"/>
<path d="M4030 673C4030 667.477 4034.48 663 4040 663H4400V683H4030V673Z" fill="white"/>
<rect x="3617" y="1000" width="317" height="20" transform="rotate(-90 3617 1000)" fill="white"/>
<rect x="4030" y="1000" width="317" height="20" transform="rotate(-90 4030 1000)" fill="white"/>
<path d="M3741.9 1946.05V1941.36H3774.62V1946.05H3760.9V1985H3755.62V1946.05H3741.9ZM3779.03 1941.36H3785.08L3797.18 1961.73H3797.69L3809.8 1941.36H3815.85L3800.08 1967.02V1985H3794.8V1967.02L3779.03 1941.36ZM3822.68 1985V1941.36H3837.43C3840.85 1941.36 3843.65 1941.98 3845.82 1943.22C3848.01 1944.44 3849.63 1946.09 3850.68 1948.18C3851.73 1950.27 3852.26 1952.6 3852.26 1955.17C3852.26 1957.74 3851.73 1960.08 3850.68 1962.18C3849.64 1964.28 3848.04 1965.96 3845.86 1967.21C3843.69 1968.44 3840.91 1969.06 3837.51 1969.06H3826.94V1964.38H3837.34C3839.69 1964.38 3841.57 1963.97 3842.99 1963.16C3844.41 1962.35 3845.44 1961.26 3846.08 1959.88C3846.73 1958.49 3847.06 1956.92 3847.06 1955.17C3847.06 1953.42 3846.73 1951.86 3846.08 1950.48C3845.44 1949.11 3844.4 1948.03 3842.97 1947.24C3841.53 1946.45 3839.63 1946.05 3837.26 1946.05H3827.97V1985H3822.68ZM3860.77 1985V1941.36H3887.1V1946.05H3866.05V1960.8H3885.74V1965.48H3866.05V1980.31H3887.44V1985H3860.77ZM3914.7 1960.84V1965.53H3895.61V1960.84H3914.7ZM3926.02 1985H3920.48L3936.5 1941.36H3941.95L3957.98 1985H3952.44L3939.4 1948.27H3939.06L3926.02 1985ZM3928.06 1967.95H3950.39V1972.64H3928.06V1967.95ZM3964.01 1985V1981.16L3978.41 1965.4C3980.1 1963.55 3981.49 1961.95 3982.58 1960.58C3983.68 1959.2 3984.49 1957.91 3985.01 1956.7C3985.55 1955.48 3985.82 1954.2 3985.82 1952.87C3985.82 1951.34 3985.45 1950.01 3984.72 1948.88C3983.99 1947.76 3983 1946.9 3981.73 1946.29C3980.47 1945.67 3979.05 1945.37 3977.47 1945.37C3975.8 1945.37 3974.33 1945.72 3973.08 1946.41C3971.85 1947.1 3970.89 1948.05 3970.21 1949.29C3969.54 1950.53 3969.2 1951.97 3969.2 1953.64H3964.18C3964.18 1951.08 3964.77 1948.84 3965.94 1946.9C3967.12 1944.97 3968.73 1943.47 3970.76 1942.39C3972.81 1941.31 3975.1 1940.77 3977.64 1940.77C3980.2 1940.77 3982.46 1941.31 3984.44 1942.39C3986.41 1943.47 3987.96 1944.92 3989.08 1946.75C3990.21 1948.59 3990.77 1950.62 3990.77 1952.87C3990.77 1954.47 3990.48 1956.04 3989.89 1957.58C3989.32 1959.1 3988.33 1960.8 3986.91 1962.67C3985.5 1964.53 3983.55 1966.8 3981.05 1969.49L3971.25 1979.97V1980.31H3991.53V1985H3964.01Z" fill="#7E7E7E"/>
<path d="M3627 1000C3627 1042.94 3618.54 1085.46 3602.11 1125.14C3585.68 1164.81 3561.59 1200.86 3531.22 1231.22C3500.86 1261.59 3464.81 1285.68 3425.14 1302.11C3385.46 1318.54 3342.94 1327 3300 1327" stroke="white" stroke-width="20"/>
<path d="M3300 1740C3397.18 1740 3493.4 1720.86 3583.19 1683.67C3672.97 1646.48 3754.54 1591.97 3823.26 1523.26C3891.97 1454.54 3946.48 1372.97 3983.67 1283.19C4020.86 1193.4 4040 1097.18 4040 1000" stroke="white" stroke-width="20"/>
<rect x="3820" y="170" width="60" height="60" rx="3" fill="#5161F1"/>
<rect width="1100" height="2000" fill="#343434"/>
<path d="M360 1000C360 902.822 379.141 806.595 416.329 716.814C453.518 627.033 508.026 545.456 576.741 476.741C645.456 408.026 727.033 353.518 816.814 316.329C906.595 279.141 1002.82 260 1100 260" stroke="white" stroke-width="20"/>
<path d="M360 1654C360 1611.06 368.458 1568.54 384.891 1528.86C401.325 1489.19 425.411 1453.14 455.776 1422.78C486.141 1392.41 522.189 1368.32 561.863 1351.89C601.536 1335.46 644.058 1327 687 1327" stroke="white" stroke-width="20"/>
<path d="M773 1000C773 957.058 781.458 914.536 797.891 874.863C814.325 835.189 838.411 799.141 868.776 768.776C899.141 738.411 935.189 714.325 974.863 697.891C1014.54 681.458 1057.06 673 1100 673" stroke="white" stroke-width="20"/>
<path d="M772 1980C772 1948.48 778.208 1917.27 790.269 1888.16C802.33 1859.04 820.008 1832.58 842.294 1810.29C864.58 1788.01 891.038 1770.33 920.156 1758.27C949.274 1746.21 980.483 1740 1012 1740" stroke="white" stroke-width="20"/>
<rect x="687" y="1317" width="413" height="20" fill="white"/>
<path d="M360 1243C354.477 1243 350 1238.52 350 1233V1000H370V1243H360Z" fill="url(#paint0_linear_2443_3754)"/>
<path d="M763 1243V1000H783V1233C783 1238.52 778.523 1243 773 1243H763Z" fill="url(#paint1_linear_2443_3754)"/>
<rect x="1012" y="1730" width="88" height="20" fill="white"/>
<rect x="762" y="2000" width="20" height="20" transform="rotate(-90 762 2000)" fill="white"/>
<rect x="350" y="2000" width="346" height="20" transform="rotate(-90 350 2000)" fill="white"/>
<line x1="370" y1="1233" x2="768.853" y2="1233" stroke="#5161F1" stroke-width="20"/>
<rect x="458" y="958" width="216" height="243" rx="5" fill="#414141"/>
<path d="M675.102 80.9489V85.6364H642.375V80.9489H656.097V42H661.381V80.9489H675.102ZM637.97 85.6364H631.919L619.816 65.267H619.305L607.203 85.6364H601.152L616.919 59.983V42H622.203V59.983L637.97 85.6364ZM594.317 42V85.6364H579.573C576.15 85.6364 573.352 85.0185 571.178 83.7827C568.991 82.5611 567.371 80.9062 566.32 78.8182C565.269 76.7301 564.744 74.4006 564.744 71.8295C564.744 69.2585 565.269 66.9219 566.32 64.8196C567.357 62.7173 568.962 61.0412 571.136 59.7912C573.309 58.5554 576.093 57.9375 579.488 57.9375H590.056V62.625H579.658C577.315 62.625 575.433 63.0298 574.012 63.8395C572.592 64.6491 571.562 65.7429 570.923 67.1207C570.269 68.5128 569.942 70.0824 569.942 71.8295C569.942 73.5767 570.269 75.1392 570.923 76.517C571.562 77.8949 572.599 78.9744 574.033 79.7557C575.468 80.5511 577.371 80.9489 579.744 80.9489H589.033V42L594.317 42ZM556.232 42V85.6364H529.896V80.9489H550.947V66.2045L531.26 66.2045V61.517L550.947 61.517V46.6875L529.555 46.6875V42L556.232 42ZM502.304 66.1619V61.4744H521.395V66.1619H502.304ZM468.911 74.7273C469.167 76.8864 470.203 78.5625 472.022 79.7557C473.84 80.9489 476.07 81.5455 478.712 81.5455C480.644 81.5455 482.334 81.233 483.783 80.608C485.218 79.983 486.34 79.1236 487.15 78.0298C487.945 76.9361 488.343 75.6932 488.343 74.3011C488.343 73.1364 488.066 72.1349 487.512 71.2969C486.944 70.473 486.219 69.7841 485.338 69.2301C484.458 68.6903 483.534 68.2429 482.569 67.8878C481.603 67.5469 480.715 67.2699 479.905 67.0568L475.473 65.8636C474.337 65.5653 473.073 65.1534 471.681 64.6278C470.275 64.1023 468.932 63.3849 467.654 62.4759C466.361 61.581 465.296 60.4304 464.458 59.0241C463.62 57.6179 463.201 55.892 463.201 53.8466C463.201 51.4886 463.819 49.358 465.054 47.4545C466.276 45.5511 468.066 44.0384 470.424 42.9162C472.767 41.794 475.615 41.233 478.968 41.233C482.093 41.233 484.799 41.7372 487.086 42.7457C489.358 43.7543 491.148 45.1605 492.455 46.9645C493.748 48.7685 494.479 50.8636 494.65 53.25H489.195C489.053 51.6023 488.499 50.2386 487.533 49.1591C486.553 48.0938 485.317 47.2983 483.826 46.7727C482.32 46.2614 480.701 46.0057 478.968 46.0057C476.951 46.0057 475.14 46.3324 473.534 46.9858C471.929 47.6534 470.658 48.5767 469.721 49.7557C468.783 50.9489 468.314 52.3409 468.314 53.9318C468.314 55.3807 468.719 56.5597 469.529 57.4687C470.338 58.3778 471.404 59.1165 472.725 59.6847C474.046 60.2528 475.473 60.75 477.007 61.1761L482.377 62.7102C485.786 63.6903 488.485 65.0895 490.473 66.9077C492.462 68.7259 493.456 71.1051 493.456 74.0455C493.456 76.4886 492.796 78.6193 491.475 80.4375C490.14 82.2699 488.35 83.6903 486.105 84.6989C483.847 85.7216 481.326 86.233 478.542 86.233C475.729 86.233 473.229 85.7287 471.042 84.7202C468.854 83.7259 467.121 82.3622 465.843 80.6293C464.55 78.8963 463.868 76.929 463.797 74.7273H468.911Z" fill="#7E7E7E"/>
<rect y="2000" width="1100" height="2000" fill="#343434"/>
<path d="M1100 3740C1002.82 3740 906.595 3720.86 816.814 3683.67C727.033 3646.48 645.456 3591.97 576.741 3523.26C508.026 3454.54 453.518 3372.97 416.329 3283.19C379.141 3193.4 360 3097.18 360 3000" stroke="white" stroke-width="20"/>
<path d="M762 2000H1100V2020H772C766.477 2020 762 2015.52 762 2010V2000Z" fill="white"/>
<rect x="350" y="3000.07" width="1000.07" height="20" transform="rotate(-90 350 3000.07)" fill="white"/>
<path d="M763 3000V2560C763 2554.48 767.477 2550 773 2550C778.523 2550 783 2554.48 783 2560V3000H763Z" fill="white"/>
<path d="M773 3000C773 3042.94 781.458 3085.46 797.891 3125.14C814.325 3164.81 838.411 3200.86 868.776 3231.22C899.141 3261.59 935.189 3285.68 974.863 3302.11C1014.54 3318.54 1057.06 3327 1100 3327" stroke="white" stroke-width="20"/>
<path d="M441.898 3919.05V3914.36H474.625V3919.05H460.903V3958H455.619V3919.05H441.898ZM479.03 3914.36H485.081L497.184 3934.73H497.695L509.797 3914.36H515.848L500.081 3940.02V3958H494.797V3940.02L479.03 3914.36ZM522.683 3958V3914.36H537.427C540.85 3914.36 543.648 3914.98 545.822 3916.22C548.009 3917.44 549.629 3919.09 550.68 3921.18C551.731 3923.27 552.256 3925.6 552.256 3928.17C552.256 3930.74 551.731 3933.08 550.68 3935.18C549.643 3937.28 548.038 3938.96 545.864 3940.21C543.691 3941.44 540.907 3942.06 537.512 3942.06H526.944V3937.38H537.342C539.685 3937.38 541.567 3936.97 542.988 3936.16C544.408 3935.35 545.438 3934.26 546.077 3932.88C546.731 3931.49 547.058 3929.92 547.058 3928.17C547.058 3926.42 546.731 3924.86 546.077 3923.48C545.438 3922.11 544.401 3921.03 542.967 3920.24C541.532 3919.45 539.629 3919.05 537.256 3919.05H527.967V3958H522.683ZM560.768 3958V3914.36H587.104V3919.05H566.053V3933.8H585.74V3938.48H566.053V3953.31H587.445V3958H560.768ZM614.696 3933.84V3938.53H595.605V3933.84H614.696ZM624.225 3958V3914.36H639.481C642.521 3914.36 645.028 3914.89 647.002 3915.94C648.977 3916.98 650.447 3918.38 651.413 3920.14C652.379 3921.88 652.862 3923.82 652.862 3925.95C652.862 3927.83 652.528 3929.38 651.86 3930.6C651.207 3931.82 650.341 3932.79 649.261 3933.5C648.196 3934.21 647.038 3934.73 645.788 3935.07V3935.5C647.123 3935.59 648.466 3936.05 649.815 3936.91C651.164 3937.76 652.294 3938.98 653.203 3940.57C654.112 3942.16 654.566 3944.11 654.566 3946.41C654.566 3948.6 654.069 3950.56 653.075 3952.31C652.081 3954.06 650.511 3955.44 648.366 3956.47C646.221 3957.49 643.43 3958 639.993 3958H624.225ZM629.51 3953.31H639.993C643.444 3953.31 645.895 3952.64 647.343 3951.31C648.806 3949.96 649.538 3948.33 649.538 3946.41C649.538 3944.93 649.162 3943.57 648.409 3942.32C647.656 3941.05 646.583 3940.05 645.191 3939.29C643.799 3938.53 642.152 3938.14 640.248 3938.14H629.51V3953.31ZM629.51 3933.54H639.311C640.902 3933.54 642.336 3933.23 643.615 3932.6C644.907 3931.98 645.93 3931.1 646.683 3929.96C647.45 3928.82 647.833 3927.49 647.833 3925.95C647.833 3924.04 647.166 3922.41 645.831 3921.08C644.495 3919.73 642.379 3919.05 639.481 3919.05H629.51V3933.54ZM662.482 3958V3954.16L676.885 3938.4C678.576 3936.55 679.968 3934.95 681.061 3933.58C682.155 3932.2 682.965 3930.91 683.49 3929.7C684.03 3928.48 684.3 3927.2 684.3 3925.87C684.3 3924.34 683.931 3923.01 683.192 3921.88C682.468 3920.76 681.473 3919.9 680.209 3919.29C678.945 3918.67 677.525 3918.37 675.948 3918.37C674.272 3918.37 672.809 3918.72 671.559 3919.41C670.323 3920.1 669.364 3921.05 668.682 3922.29C668.015 3923.53 667.681 3924.97 667.681 3926.64H662.652C662.652 3924.08 663.242 3921.84 664.421 3919.9C665.6 3917.97 667.205 3916.47 669.236 3915.39C671.282 3914.31 673.576 3913.77 676.118 3913.77C678.675 3913.77 680.941 3914.31 682.915 3915.39C684.89 3916.47 686.438 3917.92 687.56 3919.75C688.682 3921.59 689.243 3923.62 689.243 3925.87C689.243 3927.47 688.952 3929.04 688.37 3930.58C687.801 3932.1 686.807 3933.8 685.387 3935.67C683.98 3937.53 682.027 3939.8 679.527 3942.49L669.726 3952.97V3953.31H690.01V3958H662.482Z" fill="#7E7E7E"/>
<rect x="1100" y="2000" width="1100" height="2000" fill="#343434"/>
<rect x="1100" y="3730" width="1100" height="20" fill="white"/>
<path d="M2190 3337C2184.48 3337 2180 3332.52 2180 3327V2750H2200V3337H2190Z" fill="white"/>
<path d="M1100 3317H1540C1545.52 3317 1550 3321.48 1550 3327C1550 3332.52 1545.52 3337 1540 3337H1100V3317Z" fill="white"/>
<path d="M1450 2010C1547.18 2010 1643.4 2029.14 1733.19 2066.33C1822.97 2103.52 1904.54 2158.03 1973.26 2226.74C2041.97 2295.46 2096.48 2377.03 2133.67 2466.81C2170.86 2556.6 2190 2652.82 2190 2750" stroke="white" stroke-width="20"/>
<rect x="1100" y="2000" width="358" height="20" fill="white"/>
<path d="M1541.9 3919.05V3914.36H1574.62V3919.05H1560.9V3958H1555.62V3919.05H1541.9ZM1579.03 3914.36H1585.08L1597.18 3934.73H1597.69L1609.8 3914.36H1615.85L1600.08 3940.02V3958H1594.8V3940.02L1579.03 3914.36ZM1622.68 3958V3914.36H1637.43C1640.85 3914.36 1643.65 3914.98 1645.82 3916.22C1648.01 3917.44 1649.63 3919.09 1650.68 3921.18C1651.73 3923.27 1652.26 3925.6 1652.26 3928.17C1652.26 3930.74 1651.73 3933.08 1650.68 3935.18C1649.64 3937.28 1648.04 3938.96 1645.86 3940.21C1643.69 3941.44 1640.91 3942.06 1637.51 3942.06H1626.94V3937.38H1637.34C1639.69 3937.38 1641.57 3936.97 1642.99 3936.16C1644.41 3935.35 1645.44 3934.26 1646.08 3932.88C1646.73 3931.49 1647.06 3929.92 1647.06 3928.17C1647.06 3926.42 1646.73 3924.86 1646.08 3923.48C1645.44 3922.11 1644.4 3921.03 1642.97 3920.24C1641.53 3919.45 1639.63 3919.05 1637.26 3919.05H1627.97V3958H1622.68ZM1660.77 3958V3914.36H1687.1V3919.05H1666.05V3933.8H1685.74V3938.48H1666.05V3953.31H1687.44V3958H1660.77ZM1714.7 3933.84V3938.53H1695.61V3933.84H1714.7ZM1724.23 3958V3914.36H1739.48C1742.52 3914.36 1745.03 3914.89 1747 3915.94C1748.98 3916.98 1750.45 3918.38 1751.41 3920.14C1752.38 3921.88 1752.86 3923.82 1752.86 3925.95C1752.86 3927.83 1752.53 3929.38 1751.86 3930.6C1751.21 3931.82 1750.34 3932.79 1749.26 3933.5C1748.2 3934.21 1747.04 3934.73 1745.79 3935.07V3935.5C1747.12 3935.59 1748.47 3936.05 1749.81 3936.91C1751.16 3937.76 1752.29 3938.98 1753.2 3940.57C1754.11 3942.16 1754.57 3944.11 1754.57 3946.41C1754.57 3948.6 1754.07 3950.56 1753.07 3952.31C1752.08 3954.06 1750.51 3955.44 1748.37 3956.47C1746.22 3957.49 1743.43 3958 1739.99 3958H1724.23ZM1729.51 3953.31H1739.99C1743.44 3953.31 1745.89 3952.64 1747.34 3951.31C1748.81 3949.96 1749.54 3948.33 1749.54 3946.41C1749.54 3944.93 1749.16 3943.57 1748.41 3942.32C1747.66 3941.05 1746.58 3940.05 1745.19 3939.29C1743.8 3938.53 1742.15 3938.14 1740.25 3938.14H1729.51V3953.31ZM1729.51 3933.54H1739.31C1740.9 3933.54 1742.34 3933.23 1743.61 3932.6C1744.91 3931.98 1745.93 3931.1 1746.68 3929.96C1747.45 3928.82 1747.83 3927.49 1747.83 3925.95C1747.83 3924.04 1747.17 3922.41 1745.83 3921.08C1744.5 3919.73 1742.38 3919.05 1739.48 3919.05H1729.51V3933.54ZM1777.82 3914.36V3958H1772.54V3919.9H1772.28L1761.63 3926.98V3921.61L1772.54 3914.36H1777.82Z" fill="#7E7E7E"/>
<rect x="1520" y="3297" width="60" height="60" rx="3" fill="#5161F1"/>
<rect x="2200" width="1100" height="2000" fill="#343434"/>
<rect x="2200" y="250" width="1100" height="20" fill="white"/>
<rect x="2200" y="1730" width="1100" height="20" fill="white"/>
<path d="M2200 663H2210C2215.52 663 2220 667.477 2220 673L2220 1337H2200L2200 663Z" fill="white"/>
<path d="M3280 673C3280 667.477 3284.48 663 3290 663H3300L3300 1337H3280L3280 673Z" fill="white"/>
<rect x="2220" y="1317" width="1060" height="20" fill="white"/>
<path d="M2560 874C2560 868.477 2564.48 864 2570 864C2575.52 864 2580 868.477 2580 874V1337H2560V874Z" fill="white"/>
<rect width="100" height="20" rx="3" transform="matrix(-1 0 0 1 3009 1623)" fill="white"/>
<rect width="100" height="20" rx="3" transform="matrix(-1 0 0 1 3009 1573)" fill="white"/>
<rect width="100" height="20" rx="3" transform="matrix(-1 0 0 1 3009 1523)" fill="white"/>
<rect width="100" height="20" rx="3" transform="matrix(-1 0 0 1 3009 1473)" fill="white"/>
<rect width="100" height="20" rx="3" transform="matrix(-1 0 0 1 3009 1423)" fill="white"/>
<rect width="100" height="20" rx="3" transform="matrix(-1 0 0 1 3009 1373)" fill="white"/>
<rect width="100" height="20" rx="3" transform="matrix(-1 0 0 1 3009 1673)" fill="white"/>
<path d="M2920 874C2920 868.477 2924.48 864 2930 864C2935.52 864 2940 868.477 2940 874V1337H2920V874Z" fill="white"/>
<rect x="2858" y="1337" width="10" height="393" fill="white"/>
<path d="M2368.43 1112H2361.05L2382.41 1053.82H2389.68L2411.05 1112H2403.66L2386.27 1063.02H2385.82L2368.43 1112ZM2371.16 1089.27H2400.93V1095.52H2371.16V1089.27Z" fill="white"/>
<path d="M2731.05 1112V1053.82H2751.39C2755.44 1053.82 2758.78 1054.52 2761.41 1055.92C2764.05 1057.3 2766.01 1059.17 2767.3 1061.52C2768.58 1063.85 2769.23 1066.43 2769.23 1069.27C2769.23 1071.77 2768.78 1073.84 2767.89 1075.47C2767.02 1077.09 2765.87 1078.38 2764.43 1079.33C2763.01 1080.28 2761.46 1080.98 2759.8 1081.43V1082C2761.58 1082.11 2763.37 1082.74 2765.16 1083.88C2766.96 1085.01 2768.47 1086.64 2769.68 1088.76C2770.89 1090.88 2771.5 1093.48 2771.5 1096.55C2771.5 1099.46 2770.84 1102.09 2769.51 1104.41C2768.19 1106.74 2766.09 1108.59 2763.23 1109.95C2760.37 1111.32 2756.65 1112 2752.07 1112H2731.05ZM2738.09 1105.75H2752.07C2756.67 1105.75 2759.94 1104.86 2761.87 1103.08C2763.82 1101.28 2764.8 1099.1 2764.8 1096.55C2764.8 1094.58 2764.29 1092.76 2763.29 1091.09C2762.29 1089.41 2760.86 1088.06 2759 1087.06C2757.14 1086.03 2754.95 1085.52 2752.41 1085.52H2738.09V1105.75ZM2738.09 1079.39H2751.16C2753.28 1079.39 2755.19 1078.97 2756.9 1078.14C2758.62 1077.3 2759.98 1076.13 2760.99 1074.61C2762.01 1073.1 2762.52 1071.32 2762.52 1069.27C2762.52 1066.72 2761.63 1064.55 2759.85 1062.77C2758.07 1060.97 2755.25 1060.07 2751.39 1060.07H2738.09V1079.39Z" fill="white"/>
<path d="M3135.86 1069H3128.82C3128.4 1066.97 3127.67 1065.19 3126.63 1063.66C3125.61 1062.12 3124.36 1060.84 3122.88 1059.8C3121.42 1058.73 3119.8 1057.94 3118.02 1057.41C3116.24 1056.88 3114.39 1056.61 3112.45 1056.61C3108.93 1056.61 3105.74 1057.5 3102.88 1059.28C3100.04 1061.06 3097.78 1063.69 3096.09 1067.15C3094.42 1070.62 3093.59 1074.87 3093.59 1079.91C3093.59 1084.95 3094.42 1089.2 3096.09 1092.66C3097.78 1096.13 3100.04 1098.75 3102.88 1100.53C3105.74 1102.31 3108.93 1103.2 3112.45 1103.2C3114.39 1103.2 3116.24 1102.94 3118.02 1102.41C3119.8 1101.88 3121.42 1101.09 3122.88 1100.05C3124.36 1098.99 3125.61 1097.69 3126.63 1096.16C3127.67 1094.61 3128.4 1092.83 3128.82 1090.82H3135.86C3135.33 1093.79 3134.37 1096.45 3132.97 1098.8C3131.56 1101.15 3129.82 1103.15 3127.74 1104.8C3125.66 1106.42 3123.32 1107.66 3120.72 1108.52C3118.15 1109.37 3115.39 1109.8 3112.45 1109.8C3107.49 1109.8 3103.08 1108.58 3099.22 1106.16C3095.35 1103.73 3092.31 1100.29 3090.1 1095.82C3087.88 1091.35 3086.77 1086.05 3086.77 1079.91C3086.77 1073.77 3087.88 1068.47 3090.1 1064C3092.31 1059.53 3095.35 1056.08 3099.22 1053.66C3103.08 1051.23 3107.49 1050.02 3112.45 1050.02C3115.39 1050.02 3118.15 1050.45 3120.72 1051.3C3123.32 1052.15 3125.66 1053.4 3127.74 1055.05C3129.82 1056.68 3131.56 1058.67 3132.97 1061.02C3134.37 1063.35 3135.33 1066.01 3135.86 1069Z" fill="white"/>
<path d="M2642.9 1934.05V1929.36H2675.62V1934.05H2661.9V1973H2656.62V1934.05H2642.9ZM2680.03 1929.36H2686.08L2698.18 1949.73H2698.69L2710.8 1929.36H2716.85L2701.08 1955.02V1973H2695.8V1955.02L2680.03 1929.36ZM2723.68 1973V1929.36H2738.43C2741.85 1929.36 2744.65 1929.98 2746.82 1931.22C2749.01 1932.44 2750.63 1934.09 2751.68 1936.18C2752.73 1938.27 2753.26 1940.6 2753.26 1943.17C2753.26 1945.74 2752.73 1948.08 2751.68 1950.18C2750.64 1952.28 2749.04 1953.96 2746.86 1955.21C2744.69 1956.44 2741.91 1957.06 2738.51 1957.06H2727.94V1952.38H2738.34C2740.69 1952.38 2742.57 1951.97 2743.99 1951.16C2745.41 1950.35 2746.44 1949.26 2747.08 1947.88C2747.73 1946.49 2748.06 1944.92 2748.06 1943.17C2748.06 1941.42 2747.73 1939.86 2747.08 1938.48C2746.44 1937.11 2745.4 1936.03 2743.97 1935.24C2742.53 1934.45 2740.63 1934.05 2738.26 1934.05H2728.97V1973H2723.68ZM2761.77 1973V1929.36H2788.1V1934.05H2767.05V1948.8H2786.74V1953.48H2767.05V1968.31H2788.44V1973H2761.77ZM2815.7 1948.84V1953.53H2796.61V1948.84H2815.7ZM2825.23 1973V1929.36H2840.48C2843.52 1929.36 2846.03 1929.89 2848 1930.94C2849.98 1931.98 2851.45 1933.38 2852.41 1935.14C2853.38 1936.88 2853.86 1938.82 2853.86 1940.95C2853.86 1942.83 2853.53 1944.38 2852.86 1945.6C2852.21 1946.82 2851.34 1947.79 2850.26 1948.5C2849.2 1949.21 2848.04 1949.73 2846.79 1950.07V1950.5C2848.12 1950.59 2849.47 1951.05 2850.81 1951.91C2852.16 1952.76 2853.29 1953.98 2854.2 1955.57C2855.11 1957.16 2855.57 1959.11 2855.57 1961.41C2855.57 1963.6 2855.07 1965.56 2854.07 1967.31C2853.08 1969.06 2851.51 1970.44 2849.37 1971.47C2847.22 1972.49 2844.43 1973 2840.99 1973H2825.23ZM2830.51 1968.31H2840.99C2844.44 1968.31 2846.89 1967.64 2848.34 1966.31C2849.81 1964.96 2850.54 1963.33 2850.54 1961.41C2850.54 1959.93 2850.16 1958.57 2849.41 1957.32C2848.66 1956.05 2847.58 1955.05 2846.19 1954.29C2844.8 1953.53 2843.15 1953.14 2841.25 1953.14H2830.51V1968.31ZM2830.51 1948.54H2840.31C2841.9 1948.54 2843.34 1948.23 2844.61 1947.6C2845.91 1946.98 2846.93 1946.1 2847.68 1944.96C2848.45 1943.82 2848.83 1942.49 2848.83 1940.95C2848.83 1939.04 2848.17 1937.41 2846.83 1936.08C2845.5 1934.73 2843.38 1934.05 2840.48 1934.05H2830.51V1948.54Z" fill="#7E7E7E"/>
<rect x="3220" y="170" width="60" height="60" rx="3" fill="#5161F1"/>
<rect x="3300" y="2000" width="1100" height="2000" fill="#343434"/>
<path d="M4040 2844C4040 2746.82 4020.86 2650.6 3983.67 2560.81C3946.48 2471.03 3891.97 2389.46 3823.26 2320.74C3754.54 2252.03 3672.97 2197.52 3583.19 2160.33C3493.4 2123.14 3397.18 2104 3300 2104" stroke="white" stroke-width="20"/>
<path d="M3627 3000C3627 3097.18 3646.14 3193.4 3683.33 3283.19C3720.52 3372.97 3775.03 3454.54 3843.74 3523.26C3912.46 3591.97 3994.03 3646.48 4083.81 3683.67C4173.6 3720.86 4269.82 3740 4367 3740" stroke="white" stroke-width="20"/>
<path d="M4367 3327C4324.06 3327 4281.54 3318.54 4241.86 3302.11C4202.19 3285.68 4166.14 3261.59 4135.78 3231.22C4105.41 3200.86 4081.32 3164.81 4064.89 3125.14C4048.46 3085.46 4040 3042.94 4040 3000" stroke="white" stroke-width="20"/>
<path d="M3300 2517C3342.94 2517 3385.46 2525.46 3425.14 2541.89C3464.81 2558.32 3500.86 2582.41 3531.22 2612.78C3561.59 2643.14 3585.68 2679.19 3602.11 2718.86C3618.54 2758.54 3627 2801.06 3627 2844" stroke="white" stroke-width="20"/>
<rect x="4030" y="3000" width="156" height="20" transform="rotate(-90 4030 3000)" fill="white"/>
<rect x="3617" y="3000" width="156" height="20" transform="rotate(-90 3617 3000)" fill="white"/>
<rect x="4367" y="3317" width="33" height="20" fill="white"/>
<rect x="4367" y="3730" width="33" height="20" fill="white"/>
<path d="M3723.9 3919.05V3914.36H3756.62V3919.05H3742.9V3958H3737.62V3919.05H3723.9ZM3761.03 3914.36H3767.08L3779.18 3934.73H3779.69L3791.8 3914.36H3797.85L3782.08 3940.02V3958H3776.8V3940.02L3761.03 3914.36ZM3804.68 3958V3914.36H3819.43C3822.85 3914.36 3825.65 3914.98 3827.82 3916.22C3830.01 3917.44 3831.63 3919.09 3832.68 3921.18C3833.73 3923.27 3834.26 3925.6 3834.26 3928.17C3834.26 3930.74 3833.73 3933.08 3832.68 3935.18C3831.64 3937.28 3830.04 3938.96 3827.86 3940.21C3825.69 3941.44 3822.91 3942.06 3819.51 3942.06H3808.94V3937.38H3819.34C3821.69 3937.38 3823.57 3936.97 3824.99 3936.16C3826.41 3935.35 3827.44 3934.26 3828.08 3932.88C3828.73 3931.49 3829.06 3929.92 3829.06 3928.17C3829.06 3926.42 3828.73 3924.86 3828.08 3923.48C3827.44 3922.11 3826.4 3921.03 3824.97 3920.24C3823.53 3919.45 3821.63 3919.05 3819.26 3919.05H3809.97V3958H3804.68ZM3842.77 3958V3914.36H3869.1V3919.05H3848.05V3933.8H3867.74V3938.48H3848.05V3953.31H3869.44V3958H3842.77ZM3896.7 3933.84V3938.53H3877.61V3933.84H3896.7ZM3906.23 3958V3914.36H3920.97C3924.38 3914.36 3927.18 3914.95 3929.36 3916.11C3931.55 3917.26 3933.17 3918.85 3934.22 3920.86C3935.27 3922.88 3935.8 3925.17 3935.8 3927.74C3935.8 3930.32 3935.27 3932.6 3934.22 3934.58C3933.17 3936.57 3931.56 3938.13 3929.39 3939.27C3927.21 3940.39 3924.44 3940.95 3921.06 3940.95H3909.12V3936.18H3920.88C3923.21 3936.18 3925.09 3935.84 3926.51 3935.16C3927.94 3934.48 3928.98 3933.51 3929.62 3932.26C3930.27 3931 3930.6 3929.49 3930.6 3927.74C3930.6 3926 3930.27 3924.47 3929.62 3923.16C3928.97 3921.86 3927.92 3920.85 3926.49 3920.14C3925.05 3919.41 3923.16 3919.05 3920.8 3919.05H3911.51V3958H3906.23ZM3926.77 3938.4L3937.5 3958H3931.37L3920.8 3938.4H3926.77ZM3944.6 3958V3914.36H3959.35C3962.76 3914.36 3965.56 3914.95 3967.74 3916.11C3969.93 3917.26 3971.55 3918.85 3972.6 3920.86C3973.65 3922.88 3974.18 3925.17 3974.18 3927.74C3974.18 3930.32 3973.65 3932.6 3972.6 3934.58C3971.55 3936.57 3969.94 3938.13 3967.76 3939.27C3965.59 3940.39 3962.81 3940.95 3959.43 3940.95H3947.5V3936.18H3959.26C3961.59 3936.18 3963.47 3935.84 3964.89 3935.16C3966.32 3934.48 3967.36 3933.51 3968 3932.26C3968.65 3931 3968.98 3929.49 3968.98 3927.74C3968.98 3926 3968.65 3924.47 3968 3923.16C3967.35 3921.86 3966.3 3920.85 3964.87 3920.14C3963.43 3919.41 3961.54 3919.05 3959.18 3919.05H3949.89V3958H3944.6ZM3965.14 3938.4L3975.88 3958H3969.75L3959.18 3938.4H3965.14Z" fill="#7E7E7E"/>
<rect width="1100" height="2000" transform="matrix(-1 0 0 1 3300 2000)" fill="#343434"/>
<path d="M2560 2844C2560 2746.82 2579.14 2650.6 2616.33 2560.81C2653.52 2471.03 2708.03 2389.46 2776.74 2320.74C2845.46 2252.03 2927.03 2197.52 3016.81 2160.33C3106.6 2123.14 3202.82 2104 3300 2104" stroke="white" stroke-width="20"/>
<path d="M2973 3000C2973 3097.18 2953.86 3193.4 2916.67 3283.19C2879.48 3372.97 2824.97 3454.54 2756.26 3523.26C2687.54 3591.97 2605.97 3646.48 2516.19 3683.67C2426.4 3720.86 2330.18 3740 2233 3740" stroke="white" stroke-width="20"/>
<path d="M2233 3327C2275.94 3327 2318.46 3318.54 2358.14 3302.11C2397.81 3285.68 2433.86 3261.59 2464.22 3231.22C2494.59 3200.86 2518.68 3164.81 2535.11 3125.14C2551.54 3085.46 2560 3042.94 2560 3000" stroke="white" stroke-width="20"/>
<path d="M3300 2517C3257.06 2517 3214.54 2525.46 3174.86 2541.89C3135.19 2558.32 3099.14 2582.41 3068.78 2612.78C3038.41 2643.14 3014.32 2679.19 2997.89 2718.86C2981.46 2758.54 2973 2801.06 2973 2844" stroke="white" stroke-width="20"/>
<rect width="156" height="20" transform="matrix(0 -1 -1 0 2570 3000)" fill="white"/>
<rect width="156" height="20" transform="matrix(0 -1 -1 0 2983 3000)" fill="white"/>
<rect width="33" height="20" transform="matrix(-1 0 0 1 2233 3317)" fill="white"/>
<rect width="33" height="20" transform="matrix(-1 0 0 1 2233 3730)" fill="white"/>
<path d="M2656.9 3930.05V3925.36H2689.62V3930.05H2675.9V3969H2670.62V3930.05H2656.9ZM2694.03 3925.36H2700.08L2712.18 3945.73H2712.69L2724.8 3925.36H2730.85L2715.08 3951.02V3969H2709.8V3951.02L2694.03 3925.36ZM2737.68 3969V3925.36H2752.43C2755.85 3925.36 2758.65 3925.98 2760.82 3927.22C2763.01 3928.44 2764.63 3930.09 2765.68 3932.18C2766.73 3934.27 2767.26 3936.6 2767.26 3939.17C2767.26 3941.74 2766.73 3944.08 2765.68 3946.18C2764.64 3948.28 2763.04 3949.96 2760.86 3951.21C2758.69 3952.44 2755.91 3953.06 2752.51 3953.06H2741.94V3948.38H2752.34C2754.69 3948.38 2756.57 3947.97 2757.99 3947.16C2759.41 3946.35 2760.44 3945.26 2761.08 3943.88C2761.73 3942.49 2762.06 3940.92 2762.06 3939.17C2762.06 3937.42 2761.73 3935.86 2761.08 3934.48C2760.44 3933.11 2759.4 3932.03 2757.97 3931.24C2756.53 3930.45 2754.63 3930.05 2752.26 3930.05H2742.97V3969H2737.68ZM2775.77 3969V3925.36H2802.1V3930.05H2781.05V3944.8H2800.74V3949.48H2781.05V3964.31H2802.44V3969H2775.77ZM2829.7 3944.84V3949.53H2810.61V3944.84H2829.7ZM2839.23 3969V3925.36H2853.97C2857.38 3925.36 2860.18 3925.95 2862.36 3927.11C2864.55 3928.26 2866.17 3929.85 2867.22 3931.86C2868.27 3933.88 2868.8 3936.17 2868.8 3938.74C2868.8 3941.32 2868.27 3943.6 2867.22 3945.58C2866.17 3947.57 2864.56 3949.13 2862.39 3950.27C2860.21 3951.39 2857.44 3951.95 2854.06 3951.95H2842.12V3947.18H2853.88C2856.21 3947.18 2858.09 3946.84 2859.51 3946.16C2860.94 3945.48 2861.98 3944.51 2862.62 3943.26C2863.27 3942 2863.6 3940.49 2863.6 3938.74C2863.6 3937 2863.27 3935.47 2862.62 3934.16C2861.97 3932.86 2860.92 3931.85 2859.49 3931.14C2858.05 3930.41 2856.16 3930.05 2853.8 3930.05H2844.51V3969H2839.23ZM2859.77 3949.4L2870.5 3969H2864.37L2853.8 3949.4H2859.77ZM2877.6 3969V3925.36H2882.89V3964.31H2903.17V3969H2877.6Z" fill="#7E7E7E"/>
<defs>
<linearGradient id="paint0_linear_2443_3754" x1="360" y1="1000" x2="360" y2="1243" gradientUnits="userSpaceOnUse">
<stop stop-color="white"/>
<stop offset="0.138889" stop-color="#5161F1"/>
</linearGradient>
<linearGradient id="paint1_linear_2443_3754" x1="773" y1="1000" x2="773" y2="1243" gradientUnits="userSpaceOnUse">
<stop stop-color="white"/>
<stop offset="0.14" stop-color="#5161F1"/>
</linearGradient>
</defs>
</svg>
