<svg width="432" height="122" viewBox="0 0 432 122" fill="none" xmlns="http://www.w3.org/2000/svg">
<rect x="9.92578" y="45.488" width="108.192" height="30.2936" rx="3.11748" fill="#484848"/>
<ellipse cx="27.9586" cy="61.3558" rx="9.3766" ry="8.65533" fill="#ADADAD"/>
<ellipse cx="65.4645" cy="61.3558" rx="9.3766" ry="8.65533" fill="#A5A5A5"/>
<ellipse cx="101.531" cy="61.3558" rx="9.3766" ry="8.65533" fill="white"/>
<rect x="2.88511" y="37.6493" width="122.011" height="45.906" rx="3.39057" stroke="#47ABD5" stroke-width="5.77022"/>
<path d="M0.614725 13.605V11.4104H10.9544V13.605H7.10007V24H4.46905V13.605H0.614725ZM13.547 24.1598C13.1413 24.1598 12.7929 24.0164 12.502 23.7295C12.2151 23.4386 12.0717 23.0902 12.0717 22.6845C12.0717 22.2829 12.2151 21.9386 12.502 21.6518C12.7929 21.3649 13.1413 21.2214 13.547 21.2214C13.9404 21.2214 14.2847 21.3649 14.5797 21.6518C14.8748 21.9386 15.0223 22.2829 15.0223 22.6845C15.0223 22.955 14.9527 23.2029 14.8133 23.4283C14.6781 23.6496 14.4998 23.8279 14.2785 23.9631C14.0572 24.0943 13.8134 24.1598 13.547 24.1598ZM17.2215 24V11.4104H19.8833V21.8054H25.2806V24H17.2215Z" fill="#47ABD5"/>
<line x1="47.0167" y1="13.4333" x2="47.0167" y2="106.882" stroke="#47ABD5" stroke-width="1.75217" stroke-dasharray="5.84 5.84"/>
<line x1="86.1495" y1="13.4333" x2="86.1495" y2="106.882" stroke="#47ABD5" stroke-width="1.75217" stroke-dasharray="5.84 5.84"/>
<path d="M29.3922 97.7842V110.374H26.7304V100.311H26.6566L23.7736 102.118V99.7575L26.8902 97.7842H29.3922Z" fill="#484848"/>
<path d="M60.8583 110.374V108.456L65.3397 104.306C65.7208 103.938 66.0405 103.606 66.2986 103.311C66.5609 103.016 66.7597 102.727 66.8949 102.444C67.0302 102.157 67.0978 101.848 67.0978 101.516C67.0978 101.147 67.0138 100.829 66.8458 100.563C66.6777 100.292 66.4482 100.085 66.1573 99.9419C65.8663 99.7944 65.5364 99.7206 65.1676 99.7206C64.7823 99.7206 64.4463 99.7985 64.1594 99.9542C63.8725 100.11 63.6512 100.333 63.4955 100.624C63.3398 100.915 63.2619 101.262 63.2619 101.663H60.7354C60.7354 100.839 60.9219 100.124 61.2948 99.5177C61.6677 98.9112 62.1902 98.442 62.8623 98.11C63.5344 97.7781 64.309 97.6121 65.186 97.6121C66.0876 97.6121 66.8724 97.7719 67.5404 98.0916C68.2125 98.4071 68.735 98.8456 69.1079 99.4071C69.4809 99.9685 69.6673 100.612 69.6673 101.337C69.6673 101.813 69.5731 102.282 69.3846 102.745C69.2001 103.208 68.8702 103.722 68.3949 104.288C67.9195 104.849 67.2494 105.524 66.3847 106.31L64.5467 108.112V108.198H69.8333V110.374H60.8583Z" fill="#484848"/>
<path d="M101.412 110.546C100.494 110.546 99.6766 110.388 98.9594 110.073C98.2464 109.753 97.6829 109.314 97.2689 108.757C96.8591 108.196 96.6481 107.548 96.6358 106.815H99.316C99.3324 107.122 99.4328 107.392 99.6172 107.626C99.8057 107.855 100.056 108.034 100.367 108.161C100.679 108.288 101.029 108.351 101.418 108.351C101.824 108.351 102.183 108.28 102.494 108.136C102.806 107.993 103.049 107.794 103.226 107.54C103.402 107.286 103.49 106.993 103.49 106.661C103.49 106.325 103.396 106.028 103.207 105.769C103.023 105.507 102.756 105.302 102.408 105.155C102.064 105.007 101.654 104.933 101.179 104.933H100.004V102.979H101.179C101.58 102.979 101.935 102.909 102.242 102.77C102.554 102.63 102.795 102.438 102.967 102.192C103.14 101.942 103.226 101.651 103.226 101.319C103.226 101.003 103.15 100.727 102.998 100.489C102.851 100.247 102.642 100.059 102.371 99.9235C102.105 99.7882 101.793 99.7206 101.437 99.7206C101.076 99.7206 100.746 99.7862 100.447 99.9173C100.148 100.044 99.9082 100.227 99.7278 100.464C99.5475 100.702 99.4512 100.981 99.4389 101.3H96.8878C96.9001 100.575 97.1071 99.9358 97.5087 99.3825C97.9103 98.8292 98.4513 98.3969 99.1316 98.0854C99.816 97.7699 100.588 97.6121 101.449 97.6121C102.318 97.6121 103.078 97.7699 103.73 98.0854C104.381 98.401 104.887 98.8272 105.248 99.3641C105.613 99.8968 105.793 100.495 105.789 101.159C105.793 101.864 105.574 102.452 105.131 102.923C104.693 103.395 104.121 103.694 103.416 103.821V103.919C104.342 104.038 105.047 104.36 105.531 104.884C106.019 105.405 106.26 106.056 106.256 106.839C106.26 107.556 106.053 108.194 105.635 108.751C105.221 109.308 104.65 109.747 103.92 110.066C103.191 110.386 102.355 110.546 101.412 110.546Z" fill="#484848"/>
<rect x="161.926" y="45.488" width="108.192" height="30.2936" rx="3.11748" fill="#484848"/>
<ellipse cx="179.959" cy="61.3558" rx="9.3766" ry="8.65533" fill="#ADADAD"/>
<ellipse cx="217.464" cy="61.3558" rx="9.3766" ry="8.65533" fill="white"/>
<ellipse cx="253.531" cy="61.3558" rx="9.3766" ry="8.65533" fill="#ADADAD"/>
<rect x="154.885" y="37.6493" width="122.011" height="45.906" rx="3.39057" stroke="#47ABD5" stroke-width="5.77022"/>
<path d="M152.615 13.605V11.4104H162.954V13.605H159.1V24H156.469V13.605H152.615ZM165.547 24.1598C165.141 24.1598 164.793 24.0164 164.502 23.7295C164.215 23.4386 164.072 23.0902 164.072 22.6845C164.072 22.2829 164.215 21.9386 164.502 21.6518C164.793 21.3649 165.141 21.2214 165.547 21.2214C165.94 21.2214 166.285 21.3649 166.58 21.6518C166.875 21.9386 167.022 22.2829 167.022 22.6845C167.022 22.955 166.953 23.2029 166.813 23.4283C166.678 23.6496 166.5 23.8279 166.279 23.9631C166.057 24.0943 165.813 24.1598 165.547 24.1598ZM169.222 24V11.4104H171.883V21.8054H177.281V24H169.222Z" fill="#47ABD5"/>
<line x1="199.017" y1="13.4333" x2="199.017" y2="106.882" stroke="#47ABD5" stroke-width="1.75217" stroke-dasharray="5.84 5.84"/>
<line x1="238.15" y1="13.4333" x2="238.15" y2="106.882" stroke="#47ABD5" stroke-width="1.75217" stroke-dasharray="5.84 5.84"/>
<path d="M181.392 97.7842V110.374H178.73V100.311H178.657L175.774 102.118V99.7575L178.89 97.7842H181.392Z" fill="#484848"/>
<path d="M212.858 110.374V108.456L217.34 104.306C217.721 103.938 218.04 103.606 218.299 103.311C218.561 103.016 218.76 102.727 218.895 102.444C219.03 102.157 219.098 101.848 219.098 101.516C219.098 101.147 219.014 100.829 218.846 100.563C218.678 100.292 218.448 100.085 218.157 99.9419C217.866 99.7944 217.536 99.7206 217.168 99.7206C216.782 99.7206 216.446 99.7985 216.159 99.9542C215.873 100.11 215.651 100.333 215.496 100.624C215.34 100.915 215.262 101.262 215.262 101.663H212.735C212.735 100.839 212.922 100.124 213.295 99.5177C213.668 98.9112 214.19 98.442 214.862 98.11C215.534 97.7781 216.309 97.6121 217.186 97.6121C218.088 97.6121 218.872 97.7719 219.54 98.0916C220.212 98.4071 220.735 98.8456 221.108 99.4071C221.481 99.9685 221.667 100.612 221.667 101.337C221.667 101.813 221.573 102.282 221.385 102.745C221.2 103.208 220.87 103.722 220.395 104.288C219.919 104.849 219.249 105.524 218.385 106.31L216.547 108.112V108.198H221.833V110.374H212.858Z" fill="#484848"/>
<path d="M253.412 110.546C252.494 110.546 251.677 110.388 250.959 110.073C250.246 109.753 249.683 109.314 249.269 108.757C248.859 108.196 248.648 107.548 248.636 106.815H251.316C251.332 107.122 251.433 107.392 251.617 107.626C251.806 107.855 252.056 108.034 252.367 108.161C252.679 108.288 253.029 108.351 253.418 108.351C253.824 108.351 254.183 108.28 254.494 108.136C254.806 107.993 255.049 107.794 255.226 107.54C255.402 107.286 255.49 106.993 255.49 106.661C255.49 106.325 255.396 106.028 255.207 105.769C255.023 105.507 254.756 105.302 254.408 105.155C254.064 105.007 253.654 104.933 253.179 104.933H252.004V102.979H253.179C253.58 102.979 253.935 102.909 254.242 102.77C254.554 102.63 254.795 102.438 254.967 102.192C255.14 101.942 255.226 101.651 255.226 101.319C255.226 101.003 255.15 100.727 254.998 100.489C254.851 100.247 254.642 100.059 254.371 99.9235C254.105 99.7882 253.793 99.7206 253.437 99.7206C253.076 99.7206 252.746 99.7862 252.447 99.9173C252.148 100.044 251.908 100.227 251.728 100.464C251.548 100.702 251.451 100.981 251.439 101.3H248.888C248.9 100.575 249.107 99.9358 249.509 99.3825C249.91 98.8292 250.451 98.3969 251.132 98.0854C251.816 97.7699 252.588 97.6121 253.449 97.6121C254.318 97.6121 255.078 97.7699 255.73 98.0854C256.381 98.401 256.887 98.8272 257.248 99.3641C257.613 99.8968 257.793 100.495 257.789 101.159C257.793 101.864 257.574 102.452 257.131 102.923C256.693 103.395 256.121 103.694 255.416 103.821V103.919C256.342 104.038 257.047 104.36 257.531 104.884C258.019 105.405 258.26 106.056 258.256 106.839C258.26 107.556 258.053 108.194 257.635 108.751C257.221 109.308 256.65 109.747 255.92 110.066C255.191 110.386 254.355 110.546 253.412 110.546Z" fill="#484848"/>
<rect x="313.926" y="45.488" width="108.192" height="30.2936" rx="3.11748" fill="#484848"/>
<ellipse cx="331.959" cy="61.3558" rx="9.3766" ry="8.65533" fill="white"/>
<ellipse cx="369.465" cy="61.3558" rx="9.3766" ry="8.65533" fill="#A5A5A5"/>
<ellipse cx="405.531" cy="61.3558" rx="9.3766" ry="8.65533" fill="#ADADAD"/>
<rect x="306.885" y="37.6493" width="122.011" height="45.906" rx="3.39057" stroke="#47ABD5" stroke-width="5.77022"/>
<path d="M304.615 13.605V11.4104H314.954V13.605H311.1V24H308.469V13.605H304.615ZM317.547 24.1598C317.141 24.1598 316.793 24.0164 316.502 23.7295C316.215 23.4386 316.072 23.0902 316.072 22.6845C316.072 22.2829 316.215 21.9386 316.502 21.6518C316.793 21.3649 317.141 21.2214 317.547 21.2214C317.94 21.2214 318.285 21.3649 318.58 21.6518C318.875 21.9386 319.022 22.2829 319.022 22.6845C319.022 22.955 318.953 23.2029 318.813 23.4283C318.678 23.6496 318.5 23.8279 318.279 23.9631C318.057 24.0943 317.813 24.1598 317.547 24.1598ZM321.222 24V11.4104H323.883V21.8054H329.281V24H321.222Z" fill="#47ABD5"/>
<line x1="351.017" y1="13.4333" x2="351.017" y2="106.882" stroke="#47ABD5" stroke-width="1.75217" stroke-dasharray="5.84 5.84"/>
<line x1="390.15" y1="13.4333" x2="390.15" y2="106.882" stroke="#47ABD5" stroke-width="1.75217" stroke-dasharray="5.84 5.84"/>
<path d="M333.392 97.7842V110.374H330.73V100.311H330.657L327.774 102.118V99.7575L330.89 97.7842H333.392Z" fill="#484848"/>
<path d="M364.858 110.374V108.456L369.34 104.306C369.721 103.938 370.04 103.606 370.299 103.311C370.561 103.016 370.76 102.727 370.895 102.444C371.03 102.157 371.098 101.848 371.098 101.516C371.098 101.147 371.014 100.829 370.846 100.563C370.678 100.292 370.448 100.085 370.157 99.9419C369.866 99.7944 369.536 99.7206 369.168 99.7206C368.782 99.7206 368.446 99.7985 368.159 99.9542C367.873 100.11 367.651 100.333 367.496 100.624C367.34 100.915 367.262 101.262 367.262 101.663H364.735C364.735 100.839 364.922 100.124 365.295 99.5177C365.668 98.9112 366.19 98.442 366.862 98.11C367.534 97.7781 368.309 97.6121 369.186 97.6121C370.088 97.6121 370.872 97.7719 371.54 98.0916C372.212 98.4071 372.735 98.8456 373.108 99.4071C373.481 99.9685 373.667 100.612 373.667 101.337C373.667 101.813 373.573 102.282 373.385 102.745C373.2 103.208 372.87 103.722 372.395 104.288C371.919 104.849 371.249 105.524 370.385 106.31L368.547 108.112V108.198H373.833V110.374H364.858Z" fill="#484848"/>
<path d="M405.412 110.546C404.494 110.546 403.677 110.388 402.959 110.073C402.246 109.753 401.683 109.314 401.269 108.757C400.859 108.196 400.648 107.548 400.636 106.815H403.316C403.332 107.122 403.433 107.392 403.617 107.626C403.806 107.855 404.056 108.034 404.367 108.161C404.679 108.288 405.029 108.351 405.418 108.351C405.824 108.351 406.183 108.28 406.494 108.136C406.806 107.993 407.049 107.794 407.226 107.54C407.402 107.286 407.49 106.993 407.49 106.661C407.49 106.325 407.396 106.028 407.207 105.769C407.023 105.507 406.756 105.302 406.408 105.155C406.064 105.007 405.654 104.933 405.179 104.933H404.004V102.979H405.179C405.58 102.979 405.935 102.909 406.242 102.77C406.554 102.63 406.795 102.438 406.967 102.192C407.14 101.942 407.226 101.651 407.226 101.319C407.226 101.003 407.15 100.727 406.998 100.489C406.851 100.247 406.642 100.059 406.371 99.9235C406.105 99.7882 405.793 99.7206 405.437 99.7206C405.076 99.7206 404.746 99.7862 404.447 99.9173C404.148 100.044 403.908 100.227 403.728 100.464C403.548 100.702 403.451 100.981 403.439 101.3H400.888C400.9 100.575 401.107 99.9358 401.509 99.3825C401.91 98.8292 402.451 98.3969 403.132 98.0854C403.816 97.7699 404.588 97.6121 405.449 97.6121C406.318 97.6121 407.078 97.7699 407.73 98.0854C408.381 98.401 408.887 98.8272 409.248 99.3641C409.613 99.8968 409.793 100.495 409.789 101.159C409.793 101.864 409.574 102.452 409.131 102.923C408.693 103.395 408.121 103.694 407.416 103.821V103.919C408.342 104.038 409.047 104.36 409.531 104.884C410.019 105.405 410.26 106.056 410.256 106.839C410.26 107.556 410.053 108.194 409.635 108.751C409.221 109.308 408.65 109.747 407.92 110.066C407.191 110.386 406.355 110.546 405.412 110.546Z" fill="#484848"/>
</svg>
