<svg width="378" height="290" viewBox="0 0 378 290" fill="none" xmlns="http://www.w3.org/2000/svg">
<line x1="65.0908" y1="246.555" x2="140.555" y2="46.9092" stroke="#595959" stroke-width="10" stroke-linecap="round"/>
<line x1="5" y1="-5" x2="218.432" y2="-5" transform="matrix(-0.353575 -0.935406 -0.935406 0.353575 307 253)" stroke="#595959" stroke-width="10" stroke-linecap="round"/>
<line x1="191" y1="240" x2="191" y2="48" stroke="#4D4D4D" stroke-width="8" stroke-linecap="round" stroke-dasharray="20 20"/>
<rect width="46" height="13" rx="2.16109" transform="matrix(-1 0 0 1 171 59)" fill="#484848"/>
<rect width="29" height="8" transform="matrix(-1 0 0 1 128 59)" fill="#484848"/>
<path d="M99 59H93.1611C91.9676 59 91 59.9676 91 61.1611V114H99V59Z" fill="#484848"/>
<path d="M99 116.839C99 118.032 98.0324 119 96.8389 119H83.1611C81.9676 119 81 118.032 81 116.839V114.161C81 112.968 81.9676 112 83.1611 112H99V116.839Z" fill="#484848"/>
<circle cx="4" cy="4" r="4" transform="matrix(-1 0 0 1 138 62)" fill="#FF0000"/>
<circle cx="4" cy="4" r="4" transform="matrix(-1 0 0 1 152 62)" fill="#F6EBA2"/>
<circle cx="4" cy="4" r="4" transform="matrix(-1 0 0 1 166 62)" fill="#C7F4D3"/>
<rect x="5" y="5" width="368" height="280" rx="15" stroke="#595959" stroke-width="10"/>
<rect x="189" y="118" width="75" height="21" rx="2.16109" fill="#484848"/>
<rect x="259" y="118" width="46" height="14" fill="#484848"/>
<path d="M305 118H315.839C317.032 118 318 118.968 318 120.161V208H305V118Z" fill="#484848"/>
<path d="M305 213.839C305 215.032 305.968 216 307.161 216H332.839C334.032 216 335 215.032 335 213.839V207.161C335 205.968 334.032 205 332.839 205H305V213.839Z" fill="#484848"/>
<ellipse cx="201.5" cy="129" rx="6.5" ry="6" fill="#F3CACA"/>
<ellipse cx="227.5" cy="129" rx="6.5" ry="6" fill="#F6EBA2"/>
<ellipse cx="252.5" cy="129" rx="6.5" ry="6" fill="#00FF44"/>
<rect x="175" y="104" width="106.5" height="48.2047" rx="2.35039" stroke="#47ABD5" stroke-width="4"/>
<rect x="119" y="52" width="60" height="26" rx="2.35039" stroke="#47ABD5" stroke-width="4"/>
<path d="M155.426 37.794V36.2727H162.594V37.794H159.922V45H158.098V37.794H155.426ZM164.391 45.1108C164.11 45.1108 163.868 45.0114 163.667 44.8125C163.468 44.6108 163.368 44.3693 163.368 44.0881C163.368 43.8097 163.468 43.571 163.667 43.3722C163.868 43.1733 164.11 43.0739 164.391 43.0739C164.664 43.0739 164.902 43.1733 165.107 43.3722C165.311 43.571 165.414 43.8097 165.414 44.0881C165.414 44.2756 165.365 44.4474 165.269 44.6037C165.175 44.7571 165.051 44.8807 164.898 44.9744C164.745 45.0653 164.576 45.1108 164.391 45.1108ZM166.938 45V36.2727H168.783V43.4787H172.525V45H166.938Z" fill="#47ABD5"/>
<path d="M208.426 88.794V87.2727H215.594V88.794H212.922V96H211.098V88.794H208.426ZM217.391 96.1108C217.11 96.1108 216.868 96.0114 216.667 95.8125C216.468 95.6108 216.368 95.3693 216.368 95.0881C216.368 94.8097 216.468 94.571 216.667 94.3722C216.868 94.1733 217.11 94.0739 217.391 94.0739C217.664 94.0739 217.902 94.1733 218.107 94.3722C218.311 94.571 218.414 94.8097 218.414 95.0881C218.414 95.2756 218.365 95.4474 218.269 95.6037C218.175 95.7571 218.051 95.8807 217.898 95.9744C217.745 96.0653 217.576 96.1108 217.391 96.1108ZM219.938 96V87.2727H221.783V94.4787H225.525V96H219.938Z" fill="#47ABD5"/>
</svg>
