<svg width="246" height="234" viewBox="0 0 246 234" fill="none" xmlns="http://www.w3.org/2000/svg">
<rect x="19.0762" y="87.4224" width="207.931" height="58.2207" rx="5.99143" fill="#484848"/>
<ellipse cx="53.7336" cy="117.918" rx="18.0207" ry="16.6345" fill="#ADADAD"/>
<ellipse cx="125.814" cy="117.918" rx="18.0207" ry="16.6345" fill="#A5A5A5"/>
<ellipse cx="195.128" cy="117.918" rx="18.0207" ry="16.6345" fill="white"/>
<rect x="5.54483" y="72.3571" width="234.49" height="88.2258" rx="6.51627" stroke="#47ABD5" stroke-width="11.0897"/>
<path d="M1.18143 25.0221V20.8044H21.053V25.0221H13.6455V45H8.58897V25.0221H1.18143ZM26.0357 45.3072C25.2559 45.3072 24.5865 45.0315 24.0273 44.4802C23.4759 43.921 23.2003 43.2515 23.2003 42.4717C23.2003 41.6999 23.4759 41.0383 24.0273 40.487C24.5865 39.9356 25.2559 39.66 26.0357 39.66C26.7918 39.66 27.4534 39.9356 28.0205 40.487C28.5876 41.0383 28.8711 41.6999 28.8711 42.4717C28.8711 42.9916 28.7372 43.4681 28.4694 43.9013C28.2095 44.3266 27.8669 44.6692 27.4416 44.9291C27.0163 45.1812 26.5476 45.3072 26.0357 45.3072ZM33.0977 45V20.8044H38.2132V40.7823H48.5862V45H33.0977Z" fill="#47ABD5"/>
<line x1="90.3595" y1="25.8171" x2="90.3595" y2="205.415" stroke="#47ABD5" stroke-width="3.36745" stroke-dasharray="11.22 11.22"/>
<line x1="165.567" y1="25.8171" x2="165.567" y2="205.415" stroke="#47ABD5" stroke-width="3.36745" stroke-dasharray="11.22 11.22"/>
<path d="M56.4877 186.804V211H51.3721V191.66H51.2303L45.6894 195.133V190.597L51.6793 186.804H56.4877Z" fill="#484848"/>
<path d="M116.961 211V207.314L125.574 199.339C126.306 198.63 126.921 197.992 127.417 197.425C127.921 196.858 128.303 196.303 128.563 195.76C128.823 195.208 128.953 194.614 128.953 193.976C128.953 193.267 128.791 192.656 128.468 192.144C128.145 191.625 127.704 191.227 127.145 190.951C126.586 190.668 125.952 190.526 125.243 190.526C124.503 190.526 123.857 190.676 123.305 190.975C122.754 191.274 122.329 191.703 122.029 192.263C121.73 192.822 121.581 193.487 121.581 194.259H116.725C116.725 192.676 117.083 191.302 117.8 190.136C118.517 188.97 119.521 188.069 120.813 187.431C122.104 186.793 123.593 186.474 125.278 186.474C127.011 186.474 128.519 186.781 129.803 187.395C131.095 188.002 132.099 188.844 132.816 189.923C133.533 191.002 133.891 192.239 133.891 193.633C133.891 194.547 133.71 195.448 133.348 196.338C132.993 197.229 132.359 198.217 131.445 199.304C130.532 200.383 129.244 201.679 127.582 203.191L124.05 206.652V206.818H134.21V211H116.961Z" fill="#484848"/>
<path d="M194.905 211.331C193.14 211.331 191.569 211.028 190.191 210.421C188.82 209.807 187.737 208.964 186.942 207.893C186.154 206.814 185.749 205.569 185.725 204.16H190.876C190.907 204.75 191.1 205.27 191.455 205.719C191.817 206.16 192.298 206.503 192.896 206.747C193.495 206.991 194.168 207.113 194.916 207.113C195.696 207.113 196.385 206.975 196.984 206.7C197.582 206.424 198.051 206.042 198.39 205.554C198.728 205.065 198.898 204.502 198.898 203.864C198.898 203.218 198.717 202.647 198.354 202.151C198 201.647 197.488 201.253 196.818 200.97C196.157 200.686 195.369 200.544 194.456 200.544H192.199V196.787H194.456C195.227 196.787 195.909 196.654 196.499 196.386C197.098 196.118 197.563 195.748 197.894 195.275C198.224 194.795 198.39 194.236 198.39 193.598C198.39 192.991 198.244 192.459 197.953 192.003C197.669 191.538 197.267 191.176 196.748 190.916C196.236 190.656 195.637 190.526 194.952 190.526C194.259 190.526 193.625 190.652 193.05 190.904C192.475 191.148 192.014 191.499 191.667 191.955C191.321 192.412 191.136 192.948 191.112 193.562H186.209C186.233 192.168 186.631 190.939 187.403 189.876C188.174 188.813 189.214 187.982 190.521 187.383C191.837 186.777 193.321 186.474 194.975 186.474C196.645 186.474 198.106 186.777 199.359 187.383C200.611 187.99 201.584 188.809 202.277 189.841C202.978 190.865 203.324 192.014 203.316 193.29C203.324 194.645 202.903 195.775 202.052 196.681C201.209 197.587 200.111 198.162 198.756 198.406V198.595C200.536 198.823 201.891 199.442 202.82 200.45C203.757 201.45 204.222 202.702 204.214 204.207C204.222 205.585 203.824 206.81 203.021 207.881C202.225 208.952 201.127 209.795 199.725 210.409C198.323 211.024 196.716 211.331 194.905 211.331Z" fill="#484848"/>
</svg>
