<svg width="378" height="290" viewBox="0 0 378 290" fill="none" xmlns="http://www.w3.org/2000/svg">
<line x1="65.0908" y1="246.555" x2="140.555" y2="46.9092" stroke="#595959" stroke-width="10" stroke-linecap="round"/>
<line x1="5" y1="-5" x2="218.432" y2="-5" transform="matrix(-0.353575 -0.935406 -0.935406 0.353575 307 253)" stroke="#595959" stroke-width="10" stroke-linecap="round"/>
<line x1="191" y1="240" x2="191" y2="48" stroke="#4D4D4D" stroke-width="8" stroke-linecap="round" stroke-dasharray="20 20"/>
<rect width="46" height="13" rx="2.16109" transform="matrix(-1 0 0 1 171 59)" fill="#484848"/>
<rect width="29" height="8" transform="matrix(-1 0 0 1 128 59)" fill="#484848"/>
<path d="M99 59H93.1611C91.9676 59 91 59.9676 91 61.1611V114H99V59Z" fill="#484848"/>
<path d="M99 116.839C99 118.032 98.0324 119 96.8389 119H83.1611C81.9676 119 81 118.032 81 116.839V114.161C81 112.968 81.9676 112 83.1611 112H99V116.839Z" fill="#484848"/>
<circle cx="4" cy="4" r="4" transform="matrix(-1 0 0 1 138 62)" fill="#FF0000"/>
<circle cx="4" cy="4" r="4" transform="matrix(-1 0 0 1 152 62)" fill="#F6EBA2"/>
<circle cx="4" cy="4" r="4" transform="matrix(-1 0 0 1 166 62)" fill="#C7F4D3"/>
<rect x="5" y="5" width="368" height="280" rx="15" stroke="#595959" stroke-width="10"/>
<rect x="189" y="118" width="75" height="21" rx="2.16109" fill="#484848"/>
<rect x="259" y="118" width="46" height="14" fill="#484848"/>
<path d="M305 118H315.839C317.032 118 318 118.968 318 120.161V208H305V118Z" fill="#484848"/>
<path d="M305 213.839C305 215.032 305.968 216 307.161 216H332.839C334.032 216 335 215.032 335 213.839V207.161C335 205.968 334.032 205 332.839 205H305V213.839Z" fill="#484848"/>
<ellipse cx="201.5" cy="129" rx="6.5" ry="6" fill="#F3CACA"/>
<ellipse cx="227.5" cy="129" rx="6.5" ry="6" fill="#F6EBA2"/>
<ellipse cx="252.5" cy="129" rx="6.5" ry="6" fill="#00FF44"/>
<rect x="175" y="104" width="106.5" height="48.2047" rx="2.35039" stroke="#47ABD5" stroke-width="4"/>
<rect x="119" y="52" width="60" height="26" rx="2.35039" stroke="#47ABD5" stroke-width="4"/>
<path d="M155.759 45V36.2727H159.202C159.861 36.2727 160.423 36.3906 160.889 36.6264C161.358 36.8594 161.714 37.1903 161.959 37.6193C162.206 38.0455 162.33 38.5469 162.33 39.1236C162.33 39.7031 162.205 40.2017 161.955 40.6193C161.705 41.0341 161.342 41.3523 160.868 41.5739C160.396 41.7955 159.825 41.9062 159.155 41.9062H156.849V40.4233H158.857C159.209 40.4233 159.501 40.375 159.734 40.2784C159.967 40.1818 160.141 40.0369 160.254 39.8438C160.371 39.6506 160.429 39.4105 160.429 39.1236C160.429 38.8338 160.371 38.5895 160.254 38.3906C160.141 38.1918 159.966 38.0412 159.73 37.9389C159.497 37.8338 159.203 37.7812 158.848 37.7812H157.604V45H155.759ZM160.472 41.0284L162.641 45H160.604L158.482 41.0284H160.472ZM163.634 45V36.2727H169.514V37.794H165.479V39.8736H169.212V41.3949H165.479V43.4787H169.531V45H163.634ZM174.075 45H170.981V36.2727H174.1C174.978 36.2727 175.734 36.4474 176.368 36.7969C177.001 37.1435 177.488 37.642 177.829 38.2926C178.173 38.9432 178.345 39.7216 178.345 40.6278C178.345 41.5369 178.173 42.3182 177.829 42.9716C177.488 43.625 176.998 44.1264 176.359 44.4759C175.723 44.8253 174.961 45 174.075 45ZM172.826 43.419H173.998C174.544 43.419 175.002 43.3224 175.375 43.1293C175.75 42.9332 176.031 42.6307 176.218 42.2216C176.409 41.8097 176.504 41.2784 176.504 40.6278C176.504 39.983 176.409 39.456 176.218 39.0469C176.031 38.6378 175.751 38.3366 175.379 38.1435C175.007 37.9503 174.548 37.8537 174.002 37.8537H172.826V43.419Z" fill="#FF0000"/>
<path d="M206.545 90.0938C206.486 89.8864 206.402 89.7031 206.294 89.544C206.186 89.3821 206.054 89.2457 205.898 89.1349C205.744 89.0213 205.568 88.9347 205.369 88.875C205.173 88.8153 204.956 88.7855 204.717 88.7855C204.271 88.7855 203.879 88.8963 203.541 89.1179C203.206 89.3395 202.945 89.6619 202.757 90.0852C202.57 90.5057 202.476 91.0199 202.476 91.6278C202.476 92.2358 202.568 92.7528 202.753 93.179C202.938 93.6051 203.199 93.9304 203.537 94.1548C203.875 94.3764 204.274 94.4872 204.734 94.4872C205.152 94.4872 205.509 94.4134 205.804 94.2656C206.102 94.1151 206.33 93.9034 206.486 93.6307C206.645 93.358 206.724 93.0355 206.724 92.6634L207.099 92.7188H204.849V91.3295H208.501V92.429C208.501 93.196 208.339 93.8551 208.016 94.4062C207.692 94.9545 207.246 95.3778 206.678 95.6761C206.109 95.9716 205.459 96.1193 204.726 96.1193C203.908 96.1193 203.189 95.9389 202.57 95.5781C201.95 95.2145 201.467 94.6989 201.121 94.0312C200.777 93.3608 200.605 92.5653 200.605 91.6449C200.605 90.9375 200.707 90.3068 200.912 89.7528C201.119 89.196 201.409 88.7244 201.781 88.3381C202.153 87.9517 202.587 87.6577 203.081 87.456C203.575 87.2543 204.111 87.1534 204.688 87.1534C205.182 87.1534 205.642 87.2259 206.068 87.3707C206.494 87.5128 206.872 87.7145 207.202 87.9759C207.534 88.2372 207.805 88.5483 208.016 88.9091C208.226 89.267 208.361 89.6619 208.42 90.0938H206.545ZM209.887 96V87.2727H213.331C213.99 87.2727 214.552 87.3906 215.018 87.6264C215.487 87.8594 215.843 88.1903 216.088 88.6193C216.335 89.0455 216.458 89.5469 216.458 90.1236C216.458 90.7031 216.333 91.2017 216.083 91.6193C215.833 92.0341 215.471 92.3523 214.997 92.5739C214.525 92.7955 213.954 92.9062 213.284 92.9062H210.978V91.4233H212.985C213.338 91.4233 213.63 91.375 213.863 91.2784C214.096 91.1818 214.27 91.0369 214.383 90.8438C214.5 90.6506 214.558 90.4105 214.558 90.1236C214.558 89.8338 214.5 89.5895 214.383 89.3906C214.27 89.1918 214.095 89.0412 213.859 88.9389C213.626 88.8338 213.332 88.7812 212.977 88.7812H211.733V96H209.887ZM214.6 92.0284L216.77 96H214.733L212.61 92.0284H214.6ZM217.762 96V87.2727H223.643V88.794H219.608V90.8736H223.341V92.3949H219.608V94.4787H223.66V96H217.762ZM225.11 96V87.2727H230.991V88.794H226.955V90.8736H230.688V92.3949H226.955V94.4787H231.008V96H225.11ZM239.757 87.2727V96H238.164L234.367 90.5071H234.303V96H232.458V87.2727H234.077L237.844 92.7614H237.921V87.2727H239.757Z" fill="#01DA3B"/>
</svg>
