<svg width="378" height="302" viewBox="0 0 378 302" fill="none" xmlns="http://www.w3.org/2000/svg">
<line x1="65.0908" y1="258.555" x2="140.555" y2="58.9092" stroke="#595959" stroke-width="10" stroke-linecap="round"/>
<line x1="5" y1="-5" x2="218.432" y2="-5" transform="matrix(-0.353575 -0.935406 -0.935406 0.353575 307 265)" stroke="#595959" stroke-width="10" stroke-linecap="round"/>
<line x1="191" y1="252" x2="191" y2="60" stroke="#4D4D4D" stroke-width="8" stroke-linecap="round" stroke-dasharray="20 20"/>
<rect width="46" height="13" rx="2.16109" transform="matrix(-1 0 0 1 171 71)" fill="#484848"/>
<rect width="29" height="8" transform="matrix(-1 0 0 1 128 71)" fill="#484848"/>
<path d="M99 71H93.1611C91.9676 71 91 71.9676 91 73.1611V126H99V71Z" fill="#484848"/>
<path d="M99 128.839C99 130.032 98.0324 131 96.8389 131H83.1611C81.9676 131 81 130.032 81 128.839V126.161C81 124.968 81.9676 124 83.1611 124H99V128.839Z" fill="#484848"/>
<circle cx="4" cy="4" r="4" transform="matrix(-1 0 0 1 138 74)" fill="#FF0000"/>
<circle cx="4" cy="4" r="4" transform="matrix(-1 0 0 1 152 74)" fill="#F6EBA2"/>
<circle cx="4" cy="4" r="4" transform="matrix(-1 0 0 1 166 74)" fill="#C7F4D3"/>
<rect x="5" y="17" width="368" height="280" rx="15" stroke="#595959" stroke-width="10"/>
<rect x="189" y="130" width="75" height="21" rx="2.16109" fill="#484848"/>
<rect x="259" y="130" width="46" height="14" fill="#484848"/>
<path d="M305 130H315.839C317.032 130 318 130.968 318 132.161V220H305V130Z" fill="#484848"/>
<path d="M305 225.839C305 227.032 305.968 228 307.161 228H332.839C334.032 228 335 227.032 335 225.839V219.161C335 217.968 334.032 217 332.839 217H305V225.839Z" fill="#484848"/>
<ellipse cx="201.5" cy="141" rx="6.5" ry="6" fill="#F3CACA"/>
<ellipse cx="227.5" cy="141" rx="6.5" ry="6" fill="#F6EBA2"/>
<ellipse cx="252.5" cy="141" rx="6.5" ry="6" fill="#00FF44"/>
<rect x="175" y="116" width="106.5" height="48.2047" rx="2.35039" stroke="#47ABD5" stroke-width="4"/>
<rect x="119" y="64" width="60" height="26" rx="2.35039" stroke="#47ABD5" stroke-width="4"/>
<path d="M158.426 46.794V45.2727H165.594V46.794H162.922V54H161.098V46.794H158.426ZM167.391 54.1108C167.11 54.1108 166.868 54.0114 166.667 53.8125C166.468 53.6108 166.368 53.3693 166.368 53.0881C166.368 52.8097 166.468 52.571 166.667 52.3722C166.868 52.1733 167.11 52.0739 167.391 52.0739C167.664 52.0739 167.902 52.1733 168.107 52.3722C168.311 52.571 168.414 52.8097 168.414 53.0881C168.414 53.2756 168.365 53.4474 168.269 53.6037C168.175 53.7571 168.051 53.8807 167.898 53.9744C167.745 54.0653 167.576 54.1108 167.391 54.1108ZM169.938 54V45.2727H171.783V52.4787H175.525V54H169.938Z" fill="#47ABD5"/>
<path d="M202.426 100.794V99.2727H209.594V100.794H206.922V108H205.098V100.794H202.426ZM211.391 108.111C211.11 108.111 210.868 108.011 210.667 107.812C210.468 107.611 210.368 107.369 210.368 107.088C210.368 106.81 210.468 106.571 210.667 106.372C210.868 106.173 211.11 106.074 211.391 106.074C211.664 106.074 211.902 106.173 212.107 106.372C212.311 106.571 212.414 106.81 212.414 107.088C212.414 107.276 212.365 107.447 212.269 107.604C212.175 107.757 212.051 107.881 211.898 107.974C211.745 108.065 211.576 108.111 211.391 108.111ZM213.938 108V99.2727H215.783V106.479H219.525V108H213.938Z" fill="#47ABD5"/>
<path d="M225 103C224.448 103 224 103.448 224 104C224 104.552 224.448 105 225 105V103ZM276.707 104.707C277.098 104.317 277.098 103.683 276.707 103.293L270.343 96.9289C269.953 96.5384 269.319 96.5384 268.929 96.9289C268.538 97.3195 268.538 97.9526 268.929 98.3431L274.586 104L268.929 109.657C268.538 110.047 268.538 110.681 268.929 111.071C269.319 111.462 269.953 111.462 270.343 111.071L276.707 104.707ZM225 105H276V103H225V105Z" fill="#47ABD5"/>
<path d="M98.2929 49.2929C97.9024 49.6834 97.9024 50.3166 98.2929 50.7071L104.657 57.0711C105.047 57.4616 105.681 57.4616 106.071 57.0711C106.462 56.6805 106.462 56.0474 106.071 55.6569L100.414 50L106.071 44.3431C106.462 43.9526 106.462 43.3195 106.071 42.9289C105.681 42.5384 105.047 42.5384 104.657 42.9289L98.2929 49.2929ZM150 51C150.552 51 151 50.5523 151 50C151 49.4477 150.552 49 150 49V51ZM99 51H150V49H99V51Z" fill="#47ABD5"/>
<path d="M290.545 102.094C290.486 101.886 290.402 101.703 290.294 101.544C290.186 101.382 290.054 101.246 289.898 101.135C289.744 101.021 289.568 100.935 289.369 100.875C289.173 100.815 288.956 100.786 288.717 100.786C288.271 100.786 287.879 100.896 287.541 101.118C287.206 101.339 286.945 101.662 286.757 102.085C286.57 102.506 286.476 103.02 286.476 103.628C286.476 104.236 286.568 104.753 286.753 105.179C286.938 105.605 287.199 105.93 287.537 106.155C287.875 106.376 288.274 106.487 288.734 106.487C289.152 106.487 289.509 106.413 289.804 106.266C290.102 106.115 290.33 105.903 290.486 105.631C290.645 105.358 290.724 105.036 290.724 104.663L291.099 104.719H288.849V103.33H292.501V104.429C292.501 105.196 292.339 105.855 292.016 106.406C291.692 106.955 291.246 107.378 290.678 107.676C290.109 107.972 289.459 108.119 288.726 108.119C287.908 108.119 287.189 107.939 286.57 107.578C285.95 107.214 285.467 106.699 285.121 106.031C284.777 105.361 284.605 104.565 284.605 103.645C284.605 102.937 284.707 102.307 284.912 101.753C285.119 101.196 285.409 100.724 285.781 100.338C286.153 99.9517 286.587 99.6577 287.081 99.456C287.575 99.2543 288.111 99.1534 288.688 99.1534C289.182 99.1534 289.642 99.2259 290.068 99.3707C290.494 99.5128 290.872 99.7145 291.202 99.9759C291.534 100.237 291.805 100.548 292.016 100.909C292.226 101.267 292.361 101.662 292.42 102.094H290.545ZM293.853 108V101.455H295.613V102.597H295.681C295.801 102.19 296.001 101.884 296.282 101.676C296.564 101.466 296.887 101.361 297.254 101.361C297.345 101.361 297.443 101.366 297.548 101.378C297.653 101.389 297.745 101.405 297.825 101.425V103.036C297.74 103.01 297.622 102.987 297.471 102.967C297.321 102.947 297.183 102.938 297.058 102.938C296.791 102.938 296.552 102.996 296.342 103.112C296.135 103.226 295.97 103.385 295.848 103.589C295.728 103.794 295.669 104.03 295.669 104.297V108H293.853ZM301.442 108.128C300.768 108.128 300.189 107.991 299.703 107.719C299.22 107.443 298.848 107.054 298.587 106.551C298.325 106.045 298.195 105.447 298.195 104.757C298.195 104.084 298.325 103.493 298.587 102.984C298.848 102.476 299.216 102.08 299.69 101.795C300.168 101.511 300.727 101.369 301.369 101.369C301.801 101.369 302.203 101.439 302.575 101.578C302.95 101.714 303.277 101.92 303.555 102.196C303.837 102.472 304.055 102.818 304.212 103.236C304.368 103.651 304.446 104.136 304.446 104.693V105.192H298.919V104.067H302.737C302.737 103.805 302.68 103.574 302.567 103.372C302.453 103.17 302.295 103.013 302.094 102.899C301.895 102.783 301.663 102.724 301.399 102.724C301.124 102.724 300.879 102.788 300.666 102.916C300.456 103.041 300.291 103.21 300.172 103.423C300.053 103.634 299.991 103.868 299.989 104.126V105.196C299.989 105.52 300.048 105.8 300.168 106.036C300.29 106.271 300.462 106.453 300.683 106.581C300.905 106.709 301.168 106.773 301.472 106.773C301.673 106.773 301.858 106.744 302.026 106.688C302.193 106.631 302.337 106.545 302.456 106.432C302.575 106.318 302.666 106.179 302.729 106.014L304.408 106.125C304.322 106.528 304.148 106.881 303.884 107.182C303.622 107.48 303.284 107.713 302.869 107.881C302.457 108.045 301.982 108.128 301.442 108.128ZM308.614 108.128C307.94 108.128 307.361 107.991 306.875 107.719C306.392 107.443 306.02 107.054 305.759 106.551C305.497 106.045 305.366 105.447 305.366 104.757C305.366 104.084 305.497 103.493 305.759 102.984C306.02 102.476 306.388 102.08 306.862 101.795C307.339 101.511 307.899 101.369 308.541 101.369C308.973 101.369 309.375 101.439 309.747 101.578C310.122 101.714 310.449 101.92 310.727 102.196C311.009 102.472 311.227 102.818 311.384 103.236C311.54 103.651 311.618 104.136 311.618 104.693V105.192H306.091V104.067H309.909C309.909 103.805 309.852 103.574 309.739 103.372C309.625 103.17 309.467 103.013 309.266 102.899C309.067 102.783 308.835 102.724 308.571 102.724C308.295 102.724 308.051 102.788 307.838 102.916C307.628 103.041 307.463 103.21 307.344 103.423C307.224 103.634 307.163 103.868 307.161 104.126V105.196C307.161 105.52 307.22 105.8 307.339 106.036C307.462 106.271 307.634 106.453 307.855 106.581C308.077 106.709 308.339 106.773 308.643 106.773C308.845 106.773 309.03 106.744 309.197 106.688C309.365 106.631 309.509 106.545 309.628 106.432C309.747 106.318 309.838 106.179 309.901 106.014L311.58 106.125C311.494 106.528 311.32 106.881 311.055 107.182C310.794 107.48 310.456 107.713 310.041 107.881C309.629 108.045 309.153 108.128 308.614 108.128ZM314.618 104.216V108H312.803V101.455H314.533V102.609H314.609C314.754 102.229 314.997 101.928 315.338 101.706C315.679 101.482 316.092 101.369 316.578 101.369C317.033 101.369 317.429 101.469 317.767 101.668C318.105 101.866 318.368 102.151 318.555 102.52C318.743 102.886 318.837 103.324 318.837 103.832V108H317.021V104.156C317.024 103.756 316.922 103.443 316.714 103.219C316.507 102.991 316.222 102.878 315.858 102.878C315.614 102.878 315.398 102.93 315.21 103.036C315.026 103.141 314.881 103.294 314.776 103.496C314.673 103.695 314.621 103.935 314.618 104.216Z" fill="#04D93D"/>
<path d="M68.7585 54V45.2727H72.2017C72.8608 45.2727 73.4233 45.3906 73.8892 45.6264C74.358 45.8594 74.7145 46.1903 74.9588 46.6193C75.206 47.0455 75.3295 47.5469 75.3295 48.1236C75.3295 48.7031 75.2045 49.2017 74.9545 49.6193C74.7045 50.0341 74.3423 50.3523 73.8679 50.5739C73.3963 50.7955 72.8253 50.9062 72.1548 50.9062H69.8494V49.4233H71.8565C72.2088 49.4233 72.5014 49.375 72.7344 49.2784C72.9673 49.1818 73.1406 49.0369 73.2543 48.8438C73.3707 48.6506 73.429 48.4105 73.429 48.1236C73.429 47.8338 73.3707 47.5895 73.2543 47.3906C73.1406 47.1918 72.9659 47.0412 72.7301 46.9389C72.4972 46.8338 72.2031 46.7812 71.848 46.7812H70.6037V54H68.7585ZM73.4716 50.0284L75.6406 54H73.6037L71.4815 50.0284H73.4716ZM79.4769 54.1278C78.8036 54.1278 78.2241 53.9915 77.7383 53.7188C77.2553 53.4432 76.8832 53.054 76.6218 52.5511C76.3604 52.0455 76.2298 51.4474 76.2298 50.7571C76.2298 50.0838 76.3604 49.4929 76.6218 48.9844C76.8832 48.4759 77.2511 48.0795 77.7255 47.7955C78.2028 47.5114 78.7624 47.3693 79.4045 47.3693C79.8363 47.3693 80.2383 47.4389 80.6104 47.5781C80.9854 47.7145 81.3121 47.9205 81.5906 48.196C81.8718 48.4716 82.0906 48.8182 82.2468 49.2358C82.4031 49.6506 82.4812 50.1364 82.4812 50.6932V51.1918H76.9542V50.0668H80.7724C80.7724 49.8054 80.7156 49.5739 80.6019 49.3722C80.4883 49.1705 80.3306 49.0128 80.1289 48.8991C79.93 48.7827 79.6985 48.7244 79.4343 48.7244C79.1587 48.7244 78.9144 48.7884 78.7013 48.9162C78.4911 49.0412 78.3263 49.2102 78.207 49.4233C78.0877 49.6335 78.0266 49.8679 78.0238 50.1264V51.196C78.0238 51.5199 78.0835 51.7997 78.2028 52.0355C78.3249 52.2713 78.4968 52.4531 78.7184 52.581C78.94 52.7088 79.2028 52.7727 79.5067 52.7727C79.7085 52.7727 79.8931 52.7443 80.0607 52.6875C80.2283 52.6307 80.3718 52.5455 80.4911 52.4318C80.6104 52.3182 80.7013 52.179 80.7638 52.0142L82.4428 52.125C82.3576 52.5284 82.1829 52.8807 81.9187 53.1818C81.6573 53.4801 81.3192 53.7131 80.9045 53.8807C80.4925 54.0455 80.0167 54.1278 79.4769 54.1278ZM86.0778 54.1065C85.5806 54.1065 85.1303 53.9787 84.7269 53.723C84.3263 53.4645 84.0082 53.0852 83.7724 52.5852C83.5394 52.0824 83.4229 51.4659 83.4229 50.7358C83.4229 49.9858 83.5437 49.3622 83.7852 48.8651C84.0266 48.3651 84.3477 47.9915 84.7482 47.7443C85.1516 47.4943 85.5934 47.3693 86.0735 47.3693C86.44 47.3693 86.7454 47.4318 86.9897 47.5568C87.2369 47.679 87.4357 47.8324 87.5863 48.017C87.7397 48.1989 87.8562 48.3778 87.9357 48.554H87.9911V45.2727H89.8022V54H88.0124V52.9517H87.9357C87.8505 53.1335 87.7298 53.3139 87.5735 53.4929C87.4201 53.669 87.2198 53.8153 86.9727 53.9318C86.7283 54.0483 86.43 54.1065 86.0778 54.1065ZM86.6531 52.6619C86.9457 52.6619 87.1928 52.5824 87.3945 52.4233C87.5991 52.2614 87.7553 52.0355 87.8633 51.7457C87.9741 51.456 88.0295 51.1165 88.0295 50.7273C88.0295 50.3381 87.9755 50 87.8675 49.7131C87.7596 49.4261 87.6033 49.2045 87.3988 49.0483C87.1942 48.892 86.9457 48.8139 86.6531 48.8139C86.3548 48.8139 86.1033 48.8949 85.8988 49.0568C85.6942 49.2187 85.5394 49.4432 85.4343 49.7301C85.3292 50.017 85.2766 50.3494 85.2766 50.7273C85.2766 51.108 85.3292 51.4446 85.4343 51.7372C85.5423 52.027 85.6971 52.2543 85.8988 52.419C86.1033 52.581 86.3548 52.6619 86.6531 52.6619Z" fill="#FF0000"/>
</svg>
