<svg width="297" height="98" viewBox="0 0 297 98" fill="none" xmlns="http://www.w3.org/2000/svg">
<path d="M126.206 27.2253V69.9274C126.206 81.2466 138.796 90.4196 150.115 90.4196L276.504 90.4196C287.82 90.4196 297 81.2466 297 69.9274V27.2253C297 15.9097 287.823 6.72942 276.504 6.72942L150.115 6.72942C138.796 6.73668 126.206 15.9097 126.206 27.2253ZM177.729 10.3209H220.09L221.364 20.2311H203.912L177.729 10.3209ZM165.328 15.5211C179.49 19.2107 196.231 23.5793 196.231 23.5793V73.577L165.328 81.646C165.328 81.646 154.368 49.3843 165.328 15.5211ZM205.056 76.8089H221.368L220.101 86.7228H178.869L205.056 76.8089ZM263.976 86.7228L226.358 86.7228L227.603 76.8089L257.366 76.8089L263.976 86.7228ZM274.667 81.0686L262.552 73.0141V23.0055L274.667 14.9474V81.0686ZM256.23 20.2311L227.643 20.2311L226.354 10.3209L262.843 10.3209L256.23 20.2311Z" fill="black"/>
<rect y="25.9027" width="45.3435" height="45.3435" rx="7.55725" fill="#1D1C1C"/>
<path d="M45.3438 48.5745L56.6796 55.1193V42.0297L45.3438 48.5745ZM126.206 48.5745L114.87 42.0297V55.1193L126.206 48.5745ZM55.546 49.7081L116.004 49.7081V47.4409L55.546 47.4409V49.7081Z" fill="#FF4848"/>
<path d="M61 0.729431L66.2677 12.7122L74.0113 2.15883L61 0.729431ZM126.206 48.5745L120.939 36.5917L113.195 47.1451L126.206 48.5745ZM68.5549 7.67887L117.31 43.453L118.651 41.6251L69.8962 5.85097L68.5549 7.67887Z" fill="#7C48FF"/>
<rect x="143.958" y="82.7294" width="21" height="7" rx="3" transform="rotate(25 143.958 82.7294)" fill="black"/>
<rect x="144.027" width="21" height="7" rx="3" transform="rotate(25 144.027 0)" fill="black"/>
</svg>
