<svg width="154" height="175" viewBox="0 0 154 175" fill="none" xmlns="http://www.w3.org/2000/svg">
<path d="M0 75.7714L0 97.8581C0 103.713 6.51198 108.457 12.3666 108.457H77.738C83.5907 108.457 88.339 103.713 88.339 97.8581V75.7714C88.339 69.9187 83.5926 65.1704 77.738 65.1704H12.3666C6.51198 65.1742 0 69.9187 0 75.7714ZM26.649 67.028H48.559L49.2183 72.1539H40.1913L26.649 67.028ZM20.2347 69.7177C27.5599 71.6261 36.2188 73.8856 36.2188 73.8856V99.7457L20.2347 103.919C20.2347 103.919 14.566 87.2326 20.2347 69.7177ZM40.783 101.417H49.2202L48.5647 106.545H27.2387L40.783 101.417ZM71.258 106.545H51.8009L52.4452 101.417H67.8395L71.258 106.545ZM76.7876 103.621L70.5217 99.4546V73.5889L76.7876 69.421V103.621ZM67.2516 72.1539H52.4658L51.7991 67.028H70.672L67.2516 72.1539Z" fill="black"/>
<rect x="130.234" y="74.9977" width="23.4528" height="23.4528" rx="3.90881" fill="#1D1C1C"/>
<rect x="38.1689" width="23.4528" height="23.4528" rx="3.90881" fill="#1D1C1C"/>
<rect x="38.1689" y="151.547" width="23.4528" height="23.4528" rx="3.90881" fill="#1D1C1C"/>
<path d="M88.3389 86.8939L94.2021 90.2791V83.5088L88.3389 86.8939ZM130.163 86.8939L124.3 83.5088V90.2791L130.163 86.8939ZM93.6158 87.4803H124.886V86.3076H93.6158V87.4803Z" fill="#48FF97"/>
<path d="M50.0645 65.0994L53.4496 59.2362H46.6793L50.0645 65.0994ZM50.0645 23.2752L46.6793 29.1384H53.4496L50.0645 23.2752ZM50.6508 59.8225V28.5521H49.4781V59.8225H50.6508Z" fill="#48FF97"/>
<path d="M50.0645 150.442L53.4496 144.578H46.6793L50.0645 150.442ZM50.0645 108.617L46.6793 114.481H53.4496L50.0645 108.617ZM50.6508 145.165V113.894H49.4781V145.165H50.6508Z" fill="#48FF97"/>
<mask id="path-8-inside-1_1847_1379" fill="white">
<path fill-rule="evenodd" clip-rule="evenodd" d="M88.9275 21.2725C89.5269 20.673 90.4988 20.673 91.0983 21.2725L108.015 38.1896L108.015 28.8704C108.015 28.0227 108.703 27.3354 109.55 27.3354C110.398 27.3354 111.086 28.0227 111.086 28.8704L111.086 41.8955C111.086 42.7433 110.398 43.4305 109.55 43.4305L96.5254 43.4305C95.6776 43.4305 94.9904 42.7433 94.9904 41.8955C94.9904 41.0478 95.6776 40.3605 96.5254 40.3605L105.845 40.3605L88.9275 23.4433C88.328 22.8439 88.328 21.8719 88.9275 21.2725Z"/>
</mask>
<path d="M91.0983 21.2725L88.9275 23.4433L88.9275 23.4433L91.0983 21.2725ZM88.9275 21.2725L91.0983 23.4433L91.0983 23.4433L88.9275 21.2725ZM108.015 38.1896L105.845 40.3605L111.086 45.6014L111.086 38.1896L108.015 38.1896ZM108.015 28.8704L104.945 28.8704L104.945 28.8704L108.015 28.8704ZM111.086 28.8704L108.015 28.8704L111.086 28.8704ZM111.086 41.8955L114.156 41.8955L111.086 41.8955ZM109.55 43.4305L109.55 46.5006L109.55 46.5006L109.55 43.4305ZM96.5254 43.4305L96.5254 40.3605L96.5254 40.3605L96.5254 43.4305ZM96.5254 40.3605L96.5254 37.2905L96.5254 40.3605ZM105.845 40.3605L105.845 43.4305L113.256 43.4305L108.015 38.1897L105.845 40.3605ZM88.9275 23.4433L91.0983 21.2725L91.0983 21.2725L88.9275 23.4433ZM93.2691 19.1016C91.4707 17.3032 88.555 17.3033 86.7566 19.1016L91.0983 23.4433C90.4988 24.0428 89.5269 24.0428 88.9275 23.4433L93.2691 19.1016ZM110.186 36.0188L93.2691 19.1016L88.9275 23.4433L105.845 40.3605L110.186 36.0188ZM104.945 28.8704L104.945 38.1897L111.086 38.1896L111.086 28.8704L104.945 28.8704ZM109.55 24.2654C107.007 24.2654 104.945 26.3271 104.945 28.8704L111.086 28.8704C111.086 29.7182 110.398 30.4055 109.55 30.4055L109.55 24.2654ZM114.156 28.8704C114.156 26.3271 112.094 24.2654 109.55 24.2654L109.55 30.4055C108.703 30.4055 108.015 29.7182 108.015 28.8704L114.156 28.8704ZM114.156 41.8955L114.156 28.8704L108.015 28.8704L108.015 41.8955L114.156 41.8955ZM109.55 46.5006C112.094 46.5006 114.156 44.4388 114.156 41.8955L108.015 41.8955C108.015 41.0478 108.703 40.3605 109.55 40.3605L109.55 46.5006ZM96.5254 46.5006L109.55 46.5006L109.55 40.3605L96.5254 40.3605L96.5254 46.5006ZM91.9203 41.8955C91.9203 44.4389 93.9821 46.5006 96.5254 46.5006L96.5254 40.3605C97.3731 40.3605 98.0604 41.0477 98.0604 41.8955L91.9203 41.8955ZM96.5254 37.2905C93.9821 37.2905 91.9203 39.3522 91.9203 41.8955L98.0604 41.8955C98.0604 42.7433 97.3732 43.4305 96.5254 43.4305L96.5254 37.2905ZM105.845 37.2905L96.5254 37.2905L96.5254 43.4305L105.845 43.4305L105.845 37.2905ZM86.7566 25.6142L103.674 42.5313L108.015 38.1897L91.0983 21.2725L86.7566 25.6142ZM86.7566 19.1016C84.9582 20.9 84.9582 23.8158 86.7566 25.6142L91.0983 21.2725C91.6978 21.8719 91.6978 22.8439 91.0983 23.4433L86.7566 19.1016Z" fill="black" mask="url(#path-8-inside-1_1847_1379)"/>
<mask id="path-10-inside-2_1847_1379" fill="white">
<path fill-rule="evenodd" clip-rule="evenodd" d="M113.444 122.652C114.043 123.251 114.043 124.223 113.444 124.823L96.5275 141.741L105.847 141.74C106.694 141.74 107.382 142.428 107.382 143.275C107.382 144.123 106.695 144.81 105.847 144.811L92.8218 144.811C91.974 144.811 91.2868 144.124 91.2867 143.276L91.286 130.251C91.2859 129.403 91.9732 128.716 92.8209 128.716C93.6687 128.716 94.356 129.403 94.356 130.251L94.3565 139.57L111.273 122.652C111.872 122.053 112.844 122.053 113.444 122.652Z"/>
</mask>
<path d="M113.444 124.823L111.273 122.652L111.273 122.652L113.444 124.823ZM113.444 122.652L111.273 124.823L111.273 124.823L113.444 122.652ZM96.5275 141.741L94.3565 139.57L89.1159 144.811L96.5277 144.811L96.5275 141.741ZM105.847 141.74L105.847 138.67L105.847 138.67L105.847 141.74ZM105.847 144.811L105.847 141.74L105.847 144.811ZM92.8218 144.811L92.822 147.881L92.8218 144.811ZM91.2867 143.276L88.2167 143.276L88.2167 143.276L91.2867 143.276ZM91.286 130.251L94.356 130.251L94.356 130.251L91.286 130.251ZM94.356 130.251L97.4261 130.251L94.356 130.251ZM94.3565 139.57L91.2865 139.57L91.2869 146.982L96.5275 141.741L94.3565 139.57ZM111.273 122.652L113.444 124.823L113.444 124.823L111.273 122.652ZM115.615 126.994C117.413 125.195 117.413 122.279 115.614 120.481L111.273 124.823C110.673 124.224 110.673 123.252 111.273 122.652L115.615 126.994ZM98.6985 143.912L115.615 126.994L111.273 122.652L94.3565 139.57L98.6985 143.912ZM105.847 138.67L96.5273 138.671L96.5277 144.811L105.847 144.811L105.847 138.67ZM110.452 143.275C110.452 140.732 108.39 138.67 105.847 138.67L105.847 144.811C104.999 144.811 104.312 144.123 104.312 143.276L110.452 143.275ZM105.847 147.881C108.39 147.88 110.452 145.819 110.452 143.275L104.312 143.276C104.312 142.428 104.999 141.741 105.847 141.74L105.847 147.881ZM92.822 147.881L105.847 147.881L105.847 141.74L92.8216 141.741L92.822 147.881ZM88.2167 143.276C88.2168 145.82 90.2787 147.881 92.822 147.881L92.8216 141.741C93.6694 141.741 94.3567 142.428 94.3568 143.276L88.2167 143.276ZM88.216 130.251L88.2167 143.276L94.3567 143.276L94.356 130.251L88.216 130.251ZM92.8208 125.646C90.2774 125.646 88.2158 127.708 88.216 130.251L94.356 130.251C94.3561 131.099 93.6689 131.786 92.8211 131.786L92.8208 125.646ZM97.4261 130.251C97.4259 127.708 95.364 125.646 92.8208 125.646L92.8211 131.786C91.9733 131.786 91.286 131.099 91.286 130.251L97.4261 130.251ZM97.4266 139.57L97.4261 130.251L91.286 130.251L91.2865 139.57L97.4266 139.57ZM109.102 120.481L92.1856 137.4L96.5275 141.741L113.444 124.823L109.102 120.481ZM115.614 120.481C113.816 118.683 110.9 118.683 109.102 120.481L113.444 124.823C112.844 125.422 111.872 125.422 111.273 124.823L115.614 120.481Z" fill="black" mask="url(#path-10-inside-2_1847_1379)"/>
</svg>
