<svg width="255" height="126" viewBox="0 0 255 126" fill="none" xmlns="http://www.w3.org/2000/svg">
<path d="M198.07 84.1046C198.434 83.741 198.434 83.1514 198.07 82.7877L192.144 76.8617C191.78 76.498 191.191 76.498 190.827 76.8617C190.464 77.2253 190.464 77.8149 190.827 78.1786L196.095 83.4462L190.827 88.7138C190.464 89.0774 190.464 89.667 190.827 90.0307C191.191 90.3943 191.78 90.3943 192.144 90.0307L198.07 84.1046ZM41.9033 84.3774H197.412V82.515H41.9033V84.3774Z" fill="black"/>
<path d="M41.4216 82.6493C40.9815 82.9153 40.8404 83.4878 41.1064 83.9279C41.3725 84.368 41.9449 84.5091 42.385 84.2431L41.4216 82.6493ZM175.891 3.22291C176.014 2.72358 175.709 2.21901 175.21 2.09591L167.073 0.0900202C166.574 -0.0330735 166.069 0.271933 165.946 0.771264C165.823 1.2706 166.128 1.77518 166.627 1.89826L173.86 3.68128L172.077 10.9143C171.954 11.4136 172.259 11.9182 172.758 12.0413C173.258 12.1643 173.762 11.8593 173.885 11.36L175.891 3.22291ZM42.385 84.2431L175.469 3.79694L174.505 2.20312L41.4216 82.6493L42.385 84.2431Z" fill="black"/>
<path d="M9.09981 93.8402H18.8549V94.98H9.09981V93.8402ZM7.35662 99.4888H21.0842V100.629H7.35662V99.4888ZM17.9498 93.8402H19.3075V94.8794C19.3075 96.1197 19.3075 97.7288 18.8382 99.9413L17.4805 99.7905C17.9498 97.6283 17.9498 96.0862 17.9498 94.8794V93.8402ZM8.81486 102.891H19.4081V108.322H18.0169V104.014H8.81486V102.891ZM30.8548 96.9075H34.2238V98.0641H30.8548V96.9075ZM33.8383 93.1195H35.2295V101.986H33.8383V93.1195ZM25.4073 102.724H35.2295V108.071H25.4073V102.724ZM33.8718 103.83H26.765V106.948H33.8718V103.83ZM26.6309 94.5609H27.7707V95.7845C27.7707 98.5501 26.061 100.913 23.5301 101.852L22.8093 100.746C25.0721 99.9413 26.6309 97.93 26.6309 95.7845V94.5609ZM26.8991 94.5609H28.0221V95.7677C28.0221 97.7288 29.4971 99.6229 31.6928 100.394L30.9889 101.5C28.5249 100.612 26.8991 98.3155 26.8991 95.7677V94.5609ZM23.2451 94.0916H31.3409V95.2146H23.2451V94.0916ZM39.0711 100.869C39.0711 99.3773 39.2675 98.0043 39.6604 96.7504C40.0532 95.4965 40.6266 94.3397 41.3806 93.2803H43.0115C42.7178 93.6731 42.444 94.1552 42.1901 94.7266C41.9361 95.298 41.7139 95.925 41.5234 96.6075C41.333 97.2861 41.1841 97.9904 41.077 98.7206C40.9699 99.4467 40.9163 100.163 40.9163 100.869C40.9163 101.814 41.0095 102.77 41.1961 103.738C41.3826 104.706 41.6345 105.605 41.952 106.435C42.2694 107.264 42.6226 107.941 43.0115 108.464H41.3806C40.6266 107.405 40.0532 106.248 39.6604 104.994C39.2675 103.74 39.0711 102.365 39.0711 100.869ZM45.0308 106.964V94.7743H49.3759C50.3242 94.7743 51.1099 94.9469 51.7329 95.2921C52.3559 95.6373 52.8222 96.1095 53.1317 96.7087C53.4412 97.3039 53.596 97.9746 53.596 98.7206C53.596 99.4705 53.4392 100.145 53.1257 100.744C52.8162 101.34 52.348 101.812 51.721 102.161C51.098 102.506 50.3143 102.679 49.3699 102.679H46.3819V101.119H49.2032C49.8024 101.119 50.2885 101.016 50.6615 100.81C51.0345 100.599 51.3083 100.314 51.4829 99.9527C51.6575 99.5916 51.7448 99.1809 51.7448 98.7206C51.7448 98.2603 51.6575 97.8515 51.4829 97.4944C51.3083 97.1373 51.0326 96.8575 50.6556 96.6552C50.2826 96.4528 49.7905 96.3516 49.1794 96.3516H46.87V106.964H45.0308ZM59.3458 107.149C58.4887 107.149 57.7407 106.952 57.1018 106.56C56.4629 106.167 55.9669 105.617 55.6138 104.911C55.2606 104.205 55.084 103.379 55.084 102.435C55.084 101.486 55.2606 100.657 55.6138 99.9467C55.9669 99.2364 56.4629 98.6849 57.1018 98.292C57.7407 97.8992 58.4887 97.7027 59.3458 97.7027C60.2029 97.7027 60.9509 97.8992 61.5898 98.292C62.2286 98.6849 62.7247 99.2364 63.0778 99.9467C63.431 100.657 63.6076 101.486 63.6076 102.435C63.6076 103.379 63.431 104.205 63.0778 104.911C62.7247 105.617 62.2286 106.167 61.5898 106.56C60.9509 106.952 60.2029 107.149 59.3458 107.149ZM59.3517 105.655C59.9073 105.655 60.3676 105.508 60.7326 105.214C61.0977 104.921 61.3676 104.53 61.5421 104.042C61.7207 103.554 61.81 103.016 61.81 102.429C61.81 101.845 61.7207 101.31 61.5421 100.822C61.3676 100.33 61.0977 99.9348 60.7326 99.6372C60.3676 99.3396 59.9073 99.1908 59.3517 99.1908C58.7922 99.1908 58.328 99.3396 57.9589 99.6372C57.5939 99.9348 57.322 100.33 57.1435 100.822C56.9689 101.31 56.8816 101.845 56.8816 102.429C56.8816 103.016 56.9689 103.554 57.1435 104.042C57.322 104.53 57.5939 104.921 57.9589 105.214C58.328 105.508 58.7922 105.655 59.3517 105.655ZM67.3738 94.7743V106.964H65.5941V94.7743H67.3738ZM73.7084 107.149C72.8077 107.149 72.0319 106.956 71.3811 106.572C70.7343 106.183 70.2343 105.637 69.8812 104.935C69.532 104.228 69.3574 103.401 69.3574 102.453C69.3574 101.516 69.532 100.691 69.8812 99.9765C70.2343 99.2622 70.7264 98.7047 71.3573 98.3039C71.9922 97.9031 72.7343 97.7027 73.5834 97.7027C74.0993 97.7027 74.5993 97.7881 75.0834 97.9587C75.5675 98.1293 76.002 98.3972 76.3869 98.7622C76.7718 99.1273 77.0754 99.6015 77.2976 100.185C77.5198 100.764 77.6309 101.468 77.6309 102.298V102.929H70.3633V101.595H75.8869C75.8869 101.127 75.7917 100.713 75.6012 100.351C75.4108 99.9864 75.1429 99.6987 74.7977 99.4884C74.4564 99.2781 74.0556 99.1729 73.5953 99.1729C73.0954 99.1729 72.6589 99.2959 72.2859 99.542C71.9168 99.784 71.6311 100.101 71.4287 100.494C71.2303 100.883 71.1311 101.306 71.1311 101.762V102.804C71.1311 103.415 71.2383 103.935 71.4526 104.363C71.6708 104.792 71.9744 105.119 72.3632 105.345C72.7521 105.568 73.2065 105.679 73.7263 105.679C74.0636 105.679 74.3711 105.631 74.6489 105.536C74.9267 105.437 75.1667 105.29 75.3691 105.095C75.5715 104.901 75.7262 104.661 75.8334 104.375L77.5178 104.679C77.3829 105.175 77.1409 105.609 76.7917 105.982C76.4464 106.351 76.0119 106.639 75.4881 106.845C74.9683 107.048 74.3751 107.149 73.7084 107.149ZM83.0281 101.905C83.0281 103.401 82.8317 104.776 82.4388 106.03C82.046 107.284 81.4726 108.441 80.7186 109.5H79.0877C79.3814 109.107 79.6552 108.625 79.9091 108.054C80.1631 107.482 80.3853 106.857 80.5758 106.179C80.7662 105.496 80.9151 104.79 81.0222 104.06C81.1293 103.33 81.1829 102.611 81.1829 101.905C81.1829 100.965 81.0897 100.01 80.9032 99.042C80.7166 98.0738 80.4647 97.175 80.1472 96.3456C79.8298 95.5163 79.4766 94.8397 79.0877 94.3159H80.7186C81.4726 95.3754 82.046 96.5321 82.4388 97.7861C82.8317 99.04 83.0281 100.413 83.0281 101.905Z" fill="black"/>
<path d="M142.259 93.8402H152.014V94.98H142.259V93.8402ZM140.516 99.4888H154.243V100.629H140.516V99.4888ZM151.109 93.8402H152.467V94.8794C152.467 96.1197 152.467 97.7288 151.997 99.9413L150.64 99.7905C151.109 97.6283 151.109 96.0862 151.109 94.8794V93.8402ZM141.974 102.891H152.567V108.322H151.176V104.014H141.974V102.891ZM162.086 101.55H163.461V103.931H162.086V101.55ZM155.918 100.746H169.612V101.869H155.918V100.746ZM157.443 103.579H167.919V108.221H166.528V104.718H157.443V103.579ZM162.086 93.0356H163.461V95.1476H162.086V93.0356ZM162.019 95.332H163.243V95.5834C163.243 98.0808 160.477 99.5391 157.175 99.8911L156.74 98.8351C159.673 98.5669 162.019 97.3266 162.019 95.5834V95.332ZM162.304 95.332H163.528V95.5834C163.528 97.3266 165.874 98.5669 168.808 98.8351L168.372 99.8911C165.053 99.5391 162.304 98.0808 162.304 95.5834V95.332ZM157.326 94.5945H168.221V95.7175H157.326V94.5945ZM172.23 100.869C172.23 99.3773 172.427 98.0043 172.82 96.7504C173.212 95.4965 173.786 94.3397 174.54 93.2803H176.171C175.877 93.6731 175.603 94.1552 175.349 94.7266C175.095 95.298 174.873 95.925 174.683 96.6075C174.492 97.2861 174.343 97.9904 174.236 98.7206C174.129 99.4467 174.075 100.163 174.075 100.869C174.075 101.814 174.169 102.77 174.355 103.738C174.542 104.706 174.794 105.605 175.111 106.435C175.429 107.264 175.782 107.941 176.171 108.464H174.54C173.786 107.405 173.212 106.248 172.82 104.994C172.427 103.74 172.23 102.365 172.23 100.869ZM178.19 106.964V94.7743H182.535C183.483 94.7743 184.269 94.9469 184.892 95.2921C185.515 95.6373 185.981 96.1095 186.291 96.7087C186.6 97.3039 186.755 97.9746 186.755 98.7206C186.755 99.4705 186.598 100.145 186.285 100.744C185.975 101.34 185.507 101.812 184.88 102.161C184.257 102.506 183.473 102.679 182.529 102.679H179.541V101.119H182.362C182.962 101.119 183.448 101.016 183.821 100.81C184.194 100.599 184.468 100.314 184.642 99.9527C184.817 99.5916 184.904 99.1809 184.904 98.7206C184.904 98.2603 184.817 97.8515 184.642 97.4944C184.468 97.1373 184.192 96.8575 183.815 96.6552C183.442 96.4528 182.95 96.3516 182.339 96.3516H180.029V106.964H178.19ZM192.505 107.149C191.648 107.149 190.9 106.952 190.261 106.56C189.622 106.167 189.126 105.617 188.773 104.911C188.42 104.205 188.243 103.379 188.243 102.435C188.243 101.486 188.42 100.657 188.773 99.9467C189.126 99.2364 189.622 98.6849 190.261 98.292C190.9 97.8992 191.648 97.7027 192.505 97.7027C193.362 97.7027 194.11 97.8992 194.749 98.292C195.388 98.6849 195.884 99.2364 196.237 99.9467C196.59 100.657 196.767 101.486 196.767 102.435C196.767 103.379 196.59 104.205 196.237 104.911C195.884 105.617 195.388 106.167 194.749 106.56C194.11 106.952 193.362 107.149 192.505 107.149ZM192.511 105.655C193.066 105.655 193.527 105.508 193.892 105.214C194.257 104.921 194.527 104.53 194.701 104.042C194.88 103.554 194.969 103.016 194.969 102.429C194.969 101.845 194.88 101.31 194.701 100.822C194.527 100.33 194.257 99.9348 193.892 99.6372C193.527 99.3396 193.066 99.1908 192.511 99.1908C191.951 99.1908 191.487 99.3396 191.118 99.6372C190.753 99.9348 190.481 100.33 190.303 100.822C190.128 101.31 190.041 101.845 190.041 102.429C190.041 103.016 190.128 103.554 190.303 104.042C190.481 104.53 190.753 104.921 191.118 105.214C191.487 105.508 191.951 105.655 192.511 105.655ZM200.533 94.7743V106.964H198.753V94.7743H200.533ZM206.868 107.149C205.967 107.149 205.191 106.956 204.54 106.572C203.894 106.183 203.394 105.637 203.04 104.935C202.691 104.228 202.517 103.401 202.517 102.453C202.517 101.516 202.691 100.691 203.04 99.9765C203.394 99.2622 203.886 98.7047 204.516 98.3039C205.151 97.9031 205.893 97.7027 206.743 97.7027C207.258 97.7027 207.758 97.7881 208.243 97.9587C208.727 98.1293 209.161 98.3972 209.546 98.7622C209.931 99.1273 210.235 99.6015 210.457 100.185C210.679 100.764 210.79 101.468 210.79 102.298V102.929H203.522V101.595H209.046C209.046 101.127 208.951 100.713 208.76 100.351C208.57 99.9864 208.302 99.6987 207.957 99.4884C207.616 99.2781 207.215 99.1729 206.755 99.1729C206.255 99.1729 205.818 99.2959 205.445 99.542C205.076 99.784 204.79 100.101 204.588 100.494C204.39 100.883 204.29 101.306 204.29 101.762V102.804C204.29 103.415 204.397 103.935 204.612 104.363C204.83 104.792 205.134 105.119 205.522 105.345C205.911 105.568 206.366 105.679 206.885 105.679C207.223 105.679 207.53 105.631 207.808 105.536C208.086 105.437 208.326 105.29 208.528 105.095C208.731 104.901 208.885 104.661 208.993 104.375L210.677 104.679C210.542 105.175 210.3 105.609 209.951 105.982C209.606 106.351 209.171 106.639 208.647 106.845C208.127 107.048 207.534 107.149 206.868 107.149ZM219.861 107.167C219.282 107.167 218.758 107.06 218.29 106.845C217.822 106.627 217.451 106.312 217.177 105.899C216.907 105.486 216.772 104.98 216.772 104.381C216.772 103.865 216.871 103.441 217.07 103.107C217.268 102.774 217.536 102.51 217.873 102.316C218.211 102.121 218.587 101.974 219.004 101.875C219.421 101.776 219.845 101.701 220.278 101.649C220.826 101.586 221.27 101.534 221.611 101.494C221.952 101.451 222.2 101.381 222.355 101.286C222.51 101.191 222.587 101.036 222.587 100.822V100.78C222.587 100.26 222.441 99.8574 222.147 99.5717C221.857 99.286 221.425 99.1432 220.849 99.1432C220.25 99.1432 219.778 99.2761 219.433 99.542C219.091 99.8039 218.855 100.096 218.724 100.417L217.052 100.036C217.25 99.4805 217.54 99.0321 217.921 98.6908C218.306 98.3456 218.748 98.0956 219.248 97.9408C219.748 97.7821 220.274 97.7027 220.826 97.7027C221.191 97.7027 221.577 97.7464 221.986 97.8337C222.399 97.917 222.784 98.0718 223.141 98.298C223.502 98.5241 223.798 98.8475 224.028 99.2682C224.258 99.6848 224.373 100.226 224.373 100.893V106.964H222.635V105.714H222.564C222.448 105.945 222.276 106.171 222.046 106.393C221.816 106.615 221.52 106.8 221.159 106.946C220.798 107.093 220.365 107.167 219.861 107.167ZM220.248 105.738C220.74 105.738 221.161 105.641 221.51 105.447C221.863 105.252 222.131 104.998 222.314 104.685C222.5 104.367 222.593 104.028 222.593 103.667V102.488C222.53 102.552 222.407 102.611 222.224 102.667C222.046 102.718 221.841 102.764 221.611 102.804C221.381 102.839 221.157 102.873 220.939 102.905C220.72 102.933 220.538 102.957 220.391 102.976C220.046 103.02 219.73 103.093 219.445 103.197C219.163 103.3 218.937 103.449 218.766 103.643C218.599 103.834 218.516 104.087 218.516 104.405C218.516 104.845 218.679 105.179 219.004 105.405C219.33 105.627 219.744 105.738 220.248 105.738ZM228.148 97.8218L230.166 101.381L232.202 97.8218H234.148L231.297 102.393L234.172 106.964H232.225L230.166 103.548L228.112 106.964H226.16L229.005 102.393L226.196 97.8218H228.148ZM235.975 106.964V97.8218H237.755V106.964H235.975ZM236.874 96.4111C236.565 96.4111 236.299 96.3079 236.077 96.1016C235.858 95.8913 235.749 95.6413 235.749 95.3516C235.749 95.058 235.858 94.808 236.077 94.6016C236.299 94.3913 236.565 94.2862 236.874 94.2862C237.184 94.2862 237.448 94.3913 237.666 94.6016C237.888 94.808 237.999 95.058 237.999 95.3516C237.999 95.6413 237.888 95.8913 237.666 96.1016C237.448 96.3079 237.184 96.4111 236.874 96.4111ZM247 100.054L245.387 100.34C245.32 100.133 245.213 99.9368 245.066 99.7503C244.923 99.5638 244.729 99.411 244.483 99.292C244.236 99.1729 243.929 99.1134 243.56 99.1134C243.056 99.1134 242.635 99.2265 242.298 99.4527C241.961 99.6749 241.792 99.9626 241.792 100.316C241.792 100.621 241.905 100.867 242.131 101.054C242.358 101.24 242.723 101.393 243.227 101.512L244.679 101.845C245.52 102.04 246.147 102.339 246.56 102.744C246.973 103.149 247.179 103.675 247.179 104.322C247.179 104.869 247.02 105.357 246.703 105.786C246.389 106.21 245.951 106.544 245.387 106.786C244.828 107.028 244.179 107.149 243.441 107.149C242.417 107.149 241.582 106.931 240.935 106.494C240.288 106.054 239.891 105.429 239.745 104.619L241.465 104.357C241.572 104.806 241.792 105.145 242.125 105.375C242.459 105.601 242.893 105.714 243.429 105.714C244.012 105.714 244.479 105.593 244.828 105.351C245.177 105.105 245.352 104.806 245.352 104.453C245.352 104.167 245.244 103.927 245.03 103.732C244.82 103.538 244.496 103.391 244.06 103.292L242.512 102.953C241.659 102.758 241.028 102.449 240.62 102.024C240.215 101.599 240.012 101.062 240.012 100.411C240.012 99.8713 240.163 99.3991 240.465 98.9944C240.766 98.5896 241.183 98.2741 241.715 98.048C242.246 97.8178 242.856 97.7027 243.542 97.7027C244.53 97.7027 245.308 97.917 245.875 98.3456C246.443 98.7702 246.818 99.3396 247 100.054ZM252.558 101.905C252.558 103.401 252.362 104.776 251.969 106.03C251.576 107.284 251.003 108.441 250.249 109.5H248.618C248.911 109.107 249.185 108.625 249.439 108.054C249.693 107.482 249.915 106.857 250.106 106.179C250.296 105.496 250.445 104.79 250.552 104.06C250.659 103.33 250.713 102.611 250.713 101.905C250.713 100.965 250.62 100.01 250.433 99.042C250.247 98.0738 249.995 97.175 249.677 96.3456C249.36 95.5163 249.007 94.8397 248.618 94.3159H250.249C251.003 95.3754 251.576 96.5321 251.969 97.7861C252.362 99.04 252.558 100.413 252.558 101.905Z" fill="black"/>
<mask id="path-5-inside-1_1846_727" fill="white">
<path d="M87.5317 82.9804C87.5317 74.9069 85.1489 67.0015 80.664 60.1949L79.789 60.7352C84.1676 67.3804 86.4939 75.0984 86.4939 82.9804H87.5317Z"/>
</mask>
<path d="M87.5317 82.9804C87.5317 74.9069 85.1489 67.0015 80.664 60.1949L79.789 60.7352C84.1676 67.3804 86.4939 75.0984 86.4939 82.9804H87.5317Z" fill="black" stroke="black" stroke-width="0.931188" mask="url(#path-5-inside-1_1846_727)"/>
<path d="M81.0605 61.152C80.8618 61.0988 80.6576 61.2167 80.6043 61.4154L79.7367 64.6535C79.6834 64.8522 79.8014 65.0564 80.0001 65.1097C80.1988 65.1629 80.403 65.045 80.4563 64.8463L81.2275 61.968L84.1058 62.7392C84.3045 62.7925 84.5087 62.6746 84.5619 62.4759C84.6152 62.2772 84.4973 62.0729 84.2986 62.0197L81.0605 61.152ZM83.262 64.747L81.2867 61.3256L80.6415 61.6981L82.6169 65.1195L83.262 64.747Z" fill="black"/>
<path d="M168.022 29.6758V17.4857H172.367C173.315 17.4857 174.101 17.6583 174.724 18.0035C175.347 18.3488 175.813 18.821 176.123 19.4201C176.432 20.0154 176.587 20.686 176.587 21.432C176.587 22.182 176.43 22.8565 176.117 23.4557C175.807 24.051 175.339 24.5232 174.712 24.8724C174.089 25.2176 173.305 25.3902 172.361 25.3902H169.373V23.8307H172.194C172.794 23.8307 173.28 23.7276 173.653 23.5212C174.026 23.3109 174.299 23.0252 174.474 22.6641C174.649 22.303 174.736 21.8923 174.736 21.432C174.736 20.9717 174.649 20.563 174.474 20.2058C174.299 19.8487 174.024 19.569 173.647 19.3666C173.274 19.1642 172.782 19.063 172.171 19.063H169.861V29.6758H168.022ZM179.118 24.6164C179.118 23.1244 179.315 21.7514 179.708 20.4975C180.1 19.2436 180.674 18.0869 181.428 17.0274H183.059C182.765 17.4202 182.491 17.9023 182.237 18.4737C181.983 19.0452 181.761 19.6721 181.571 20.3546C181.38 21.0332 181.231 21.7375 181.124 22.4677C181.017 23.1938 180.963 23.9101 180.963 24.6164C180.963 25.5608 181.057 26.5171 181.243 27.4854C181.43 28.4536 181.682 29.3524 181.999 30.1817C182.317 31.0111 182.67 31.6876 183.059 32.2114H181.428C180.674 31.1519 180.1 29.9952 179.708 28.7413C179.315 27.4874 179.118 26.1124 179.118 24.6164ZM184.935 29.6758V20.5332H186.655V21.9855H186.75C186.917 21.4935 187.211 21.1066 187.631 20.8249C188.056 20.5392 188.536 20.3963 189.072 20.3963C189.183 20.3963 189.314 20.4003 189.465 20.4082C189.619 20.4161 189.74 20.4261 189.828 20.438V22.1403C189.756 22.1205 189.629 22.0986 189.447 22.0748C189.264 22.047 189.082 22.0332 188.899 22.0332C188.479 22.0332 188.104 22.1224 187.774 22.301C187.449 22.4756 187.191 22.7196 187 23.0331C186.81 23.3426 186.715 23.6958 186.715 24.0926V29.6758H184.935ZM192.636 28.0092L192.546 28.658C192.487 29.1341 192.386 29.6301 192.243 30.146C192.104 30.6658 191.959 31.148 191.808 31.5924C191.662 32.0368 191.54 32.39 191.445 32.6519H190.183C190.235 32.4059 190.306 32.0725 190.398 31.6519C190.489 31.2353 190.578 30.769 190.666 30.2531C190.753 29.7373 190.818 29.2115 190.862 28.6758L190.921 28.0092H192.636ZM201.792 22.9319V24.4438H195.893V22.9319H201.792ZM202.714 22.8069V24.4736C202.714 25.6997 202.552 26.7096 202.226 27.5032C201.905 28.2969 201.452 28.8861 200.869 29.271C200.286 29.652 199.603 29.8424 198.822 29.8424C198.04 29.8424 197.353 29.652 196.762 29.271C196.171 28.8861 195.71 28.2969 195.381 27.5032C195.052 26.7096 194.887 25.6997 194.887 24.4736V22.8069C194.887 21.5927 195.05 20.5947 195.375 19.813C195.701 19.0313 196.157 18.4519 196.744 18.075C197.331 17.698 198.016 17.5095 198.798 17.5095C199.587 17.5095 200.274 17.698 200.857 18.075C201.444 18.4519 201.901 19.0313 202.226 19.813C202.552 20.5947 202.714 21.5927 202.714 22.8069ZM200.94 24.7593V22.5153C200.94 21.7455 200.851 21.1026 200.673 20.5868C200.494 20.067 200.244 19.6781 199.923 19.4201C199.601 19.1583 199.226 19.0273 198.798 19.0273C198.155 19.0273 197.635 19.3249 197.238 19.9201C196.841 20.5154 196.643 21.3804 196.643 22.5153V24.7593C196.643 25.9021 196.843 26.781 197.244 27.3961C197.649 28.0112 198.175 28.3187 198.822 28.3187C199.25 28.3187 199.621 28.1838 199.935 27.9139C200.252 27.6441 200.498 27.2453 200.673 26.7175C200.851 26.1858 200.94 25.5331 200.94 24.7593ZM208.262 24.6164C208.262 26.1124 208.065 27.4874 207.672 28.7413C207.28 29.9952 206.706 31.1519 205.952 32.2114H204.321C204.615 31.8186 204.889 31.3364 205.143 30.765C205.397 30.1936 205.619 29.5686 205.809 28.8901C206 28.2076 206.149 27.5012 206.256 26.7711C206.363 26.041 206.417 25.3227 206.417 24.6164C206.417 23.676 206.323 22.7216 206.137 21.7534C205.95 20.7852 205.698 19.8864 205.381 19.0571C205.063 18.2277 204.71 17.5512 204.321 17.0274H205.952C206.706 18.0869 207.28 19.2436 207.672 20.4975C208.065 21.7514 208.262 23.1244 208.262 24.6164Z" fill="black"/>
<path d="M95.9261 67.7529V69.0128H91.0106V67.7529H95.9261ZM96.6949 67.6488V69.0376C96.6949 70.0594 96.5593 70.901 96.2882 71.5623C96.0203 72.2237 95.6434 72.7148 95.1573 73.0355C94.6712 73.353 94.1024 73.5117 93.451 73.5117C92.7995 73.5117 92.2275 73.353 91.7348 73.0355C91.242 72.7148 90.8585 72.2237 90.584 71.5623C90.3095 70.901 90.1723 70.0594 90.1723 69.0376V67.6488C90.1723 66.6369 90.3079 65.8052 90.579 65.1538C90.8502 64.5024 91.2305 64.0196 91.7199 63.7054C92.2093 63.3913 92.7797 63.2342 93.4311 63.2342C94.0892 63.2342 94.6612 63.3913 95.1473 63.7054C95.6367 64.0196 96.017 64.5024 96.2882 65.1538C96.5593 65.8052 96.6949 66.6369 96.6949 67.6488ZM95.2168 69.2757V67.4057C95.2168 66.7642 95.1424 66.2285 94.9936 65.7986C94.8448 65.3654 94.6364 65.0414 94.3686 64.8264C94.1007 64.6082 93.7883 64.4991 93.4311 64.4991C92.8954 64.4991 92.4622 64.7471 92.1316 65.2431C91.8009 65.7391 91.6355 66.46 91.6355 67.4057V69.2757C91.6355 70.2281 91.8025 70.9605 92.1365 71.4731C92.4738 71.9856 92.912 72.2419 93.451 72.2419C93.8081 72.2419 94.1173 72.1295 94.3785 71.9046C94.6431 71.6797 94.8481 71.3474 94.9936 70.9076C95.1424 70.4645 95.2168 69.9205 95.2168 69.2757Z" fill="black"/>
<path d="M103.428 37.0565V29.4376H104.861V30.6479H104.941C105.079 30.2379 105.324 29.9155 105.675 29.6807C106.028 29.4426 106.429 29.3236 106.875 29.3236C106.968 29.3236 107.077 29.3269 107.202 29.3335C107.331 29.3401 107.432 29.3484 107.505 29.3583V30.7769C107.445 30.7604 107.34 30.7422 107.187 30.7223C107.035 30.6992 106.883 30.6876 106.731 30.6876C106.381 30.6876 106.068 30.762 105.794 30.9108C105.522 31.0563 105.308 31.2597 105.149 31.5209C104.99 31.7788 104.911 32.0731 104.911 32.4038V37.0565H103.428Z" fill="black"/>
</svg>
