<svg width="74" height="80" viewBox="0 0 74 80" fill="none" xmlns="http://www.w3.org/2000/svg">
<path d="M42 5C42 2.23858 39.7614 1.20706e-07 37 0C34.2386 -1.20706e-07 32 2.23858 32 5L42 5ZM33.4645 78.5355C35.4171 80.4882 38.5829 80.4882 40.5355 78.5355L72.3553 46.7157C74.308 44.7631 74.308 41.5973 72.3553 39.6447C70.4027 37.692 67.2369 37.692 65.2843 39.6447L37 67.9289L8.71573 39.6447C6.76311 37.692 3.59728 37.692 1.64466 39.6447C-0.307962 41.5973 -0.307962 44.7631 1.64466 46.7157L33.4645 78.5355ZM32 5L32 75L42 75L42 5L32 5Z" fill="#B4BFDF"/>
</svg>
