<svg width="333" height="145" viewBox="0 0 333 145" fill="none" xmlns="http://www.w3.org/2000/svg">
<g filter="url(#filter0_d_2076_460)">
<path d="M7 24.7903C7 17.4291 7 13.7485 8.43261 10.9369C9.6927 8.4637 11.7034 6.45296 14.1766 5.19286C16.9882 3.76025 20.6689 3.76025 28.0301 3.76025H50.8643C54.0791 3.76025 55.6866 3.76026 57.1995 4.12342C58.5401 4.44538 59.8223 4.97645 60.9987 5.69713C62.3249 6.50994 63.4618 7.64655 65.735 9.91983L66.5592 10.7445C68.8324 13.0178 69.9693 14.1544 71.2955 14.9672C72.4719 15.6879 73.7541 16.2189 75.0947 16.5409C76.6076 16.9041 78.2151 16.9041 81.43 16.9041H104.264C111.625 16.9041 115.306 16.9041 118.118 18.3367C120.591 19.5968 122.602 21.6075 123.862 24.0807C125.294 26.8923 125.294 30.5729 125.294 37.9341V74.7368C125.294 82.098 125.294 85.7789 123.862 88.5903C122.602 91.0633 120.591 93.0743 118.118 94.3342C115.306 95.7668 111.625 95.7668 104.264 95.7668H28.0301C20.6688 95.7668 16.9882 95.7668 14.1766 94.3342C11.7034 93.0743 9.6927 91.0633 8.43261 88.5903C7 85.7789 7 82.098 7 74.7368V24.7903Z" stroke="black" stroke-width="5.91471" stroke-linecap="round" stroke-linejoin="round"/>
<path d="M80.3758 9.39453V1.91213H83.0428C83.6249 1.91213 84.1072 2.01808 84.4896 2.22998C84.872 2.44189 85.1582 2.73173 85.3482 3.09952C85.5382 3.46487 85.6332 3.8765 85.6332 4.33441C85.6332 4.79475 85.537 5.20882 85.3445 5.5766C85.1546 5.94196 84.8671 6.2318 84.4823 6.44614C84.0999 6.65805 83.6189 6.764 83.0392 6.764H81.2051V5.80678H82.9369C83.3047 5.80678 83.603 5.74345 83.832 5.61679C84.0609 5.4877 84.229 5.31233 84.3362 5.09069C84.4433 4.86904 84.4969 4.61695 84.4969 4.33441C84.4969 4.05187 84.4433 3.80099 84.3362 3.58178C84.229 3.36257 84.0597 3.19086 83.8283 3.06664C83.5994 2.94242 83.2973 2.88031 82.9223 2.88031H81.5047V9.39453H80.3758ZM86.869 9.39453V3.78273H87.9248V4.67419H87.9833C88.0856 4.37216 88.2658 4.13468 88.524 3.96175C88.7846 3.78638 89.0793 3.6987 89.4082 3.6987C89.4764 3.6987 89.5567 3.70113 89.6493 3.706C89.7443 3.71087 89.8186 3.71696 89.8722 3.72427V4.76918C89.8283 4.757 89.7504 4.7436 89.6383 4.72899C89.5263 4.71194 89.4143 4.70341 89.3022 4.70341C89.044 4.70341 88.8139 4.75822 88.6117 4.86782C88.412 4.97499 88.2537 5.12479 88.1367 5.3172C88.0198 5.50719 87.9614 5.72396 87.9614 5.96753V9.39453H86.869ZM92.9804 9.50779C92.4543 9.50779 91.9952 9.38722 91.603 9.14609C91.2109 8.90496 90.9064 8.56762 90.6896 8.13407C90.4729 7.70052 90.3645 7.1939 90.3645 6.6142C90.3645 6.03208 90.4729 5.52302 90.6896 5.08703C90.9064 4.65105 91.2109 4.31249 91.603 4.07135C91.9952 3.83022 92.4543 3.70966 92.9804 3.70966C93.5065 3.70966 93.9656 3.83022 94.3578 4.07135C94.7499 4.31249 95.0544 4.65105 95.2711 5.08703C95.4879 5.52302 95.5963 6.03208 95.5963 6.6142C95.5963 7.1939 95.4879 7.70052 95.2711 8.13407C95.0544 8.56762 94.7499 8.90496 94.3578 9.14609C93.9656 9.38722 93.5065 9.50779 92.9804 9.50779ZM92.984 8.59076C93.325 8.59076 93.6076 8.50064 93.8317 8.3204C94.0557 8.14016 94.2214 7.90024 94.3285 7.60065C94.4381 7.30107 94.4929 6.97103 94.4929 6.61055C94.4929 6.25251 94.4381 5.92369 94.3285 5.6241C94.2214 5.32208 94.0557 5.07973 93.8317 4.89705C93.6076 4.71437 93.325 4.62304 92.984 4.62304C92.6406 4.62304 92.3556 4.71437 92.1291 4.89705C91.905 5.07973 91.7382 5.32208 91.6286 5.6241C91.5214 5.92369 91.4678 6.25251 91.4678 6.61055C91.4678 6.97103 91.5214 7.30107 91.6286 7.60065C91.7382 7.90024 91.905 8.14016 92.1291 8.3204C92.3556 8.50064 92.6406 8.59076 92.984 8.59076ZM96.8157 3.78273H97.9081V9.75988C97.9081 10.135 97.8399 10.4516 97.7035 10.7098C97.5695 10.968 97.3698 11.1641 97.1043 11.298C96.8412 11.432 96.5161 11.499 96.1288 11.499C96.0898 11.499 96.0533 11.499 96.0192 11.499C95.9827 11.499 95.9449 11.4977 95.9059 11.4953V10.5564C95.94 10.5564 95.9705 10.5564 95.9973 10.5564C96.0216 10.5564 96.0497 10.5564 96.0813 10.5564C96.3395 10.5564 96.5258 10.4869 96.6403 10.3481C96.7572 10.2117 96.8157 10.0132 96.8157 9.75258V3.78273ZM97.3564 2.91684C97.1664 2.91684 97.0032 2.85351 96.8668 2.72686C96.7329 2.59777 96.6659 2.44432 96.6659 2.26652C96.6659 2.08628 96.7329 1.93283 96.8668 1.80617C97.0032 1.67708 97.1664 1.61254 97.3564 1.61254C97.5464 1.61254 97.7083 1.67708 97.8423 1.80617C97.9787 1.93283 98.0469 2.08628 98.0469 2.26652C98.0469 2.44432 97.9787 2.59777 97.8423 2.72686C97.7083 2.85351 97.5464 2.91684 97.3564 2.91684ZM101.796 9.50779C101.243 9.50779 100.767 9.38966 100.368 9.1534C99.9708 8.9147 99.6639 8.5798 99.4471 8.14868C99.2328 7.71513 99.1256 7.20729 99.1256 6.62516C99.1256 6.05034 99.2328 5.54372 99.4471 5.1053C99.6639 4.66688 99.9659 4.32467 100.353 4.07866C100.743 3.83266 101.198 3.70966 101.72 3.70966C102.036 3.70966 102.343 3.76202 102.64 3.86676C102.937 3.97149 103.204 4.1359 103.44 4.35998C103.677 4.58407 103.863 4.87513 103.999 5.23317C104.136 5.58878 104.204 6.02112 104.204 6.53017V6.91745H99.7431V6.09906H103.134C103.134 5.81165 103.075 5.55712 102.958 5.33547C102.841 5.11139 102.677 4.9348 102.465 4.80571C102.255 4.67662 102.009 4.61208 101.727 4.61208C101.42 4.61208 101.152 4.68758 100.923 4.83859C100.697 4.98717 100.521 5.18202 100.397 5.42316C100.275 5.66185 100.214 5.92125 100.214 6.20136V6.84072C100.214 7.21582 100.28 7.53489 100.412 7.79794C100.546 8.061 100.732 8.26194 100.971 8.40077C101.209 8.53717 101.488 8.60537 101.807 8.60537C102.014 8.60537 102.203 8.57614 102.374 8.51769C102.544 8.45679 102.691 8.36667 102.816 8.24733C102.94 8.12798 103.035 7.98062 103.101 7.80525L104.135 7.99158C104.052 8.29604 103.903 8.56275 103.689 8.7917C103.477 9.01822 103.21 9.19481 102.889 9.32146C102.57 9.44568 102.206 9.50779 101.796 9.50779ZM107.78 9.50779C107.237 9.50779 106.769 9.38479 106.377 9.13878C105.987 8.89035 105.688 8.54813 105.478 8.11215C105.269 7.67616 105.164 7.17685 105.164 6.6142C105.164 6.04425 105.271 5.54129 105.485 5.1053C105.7 4.66688 106.002 4.32467 106.392 4.07866C106.781 3.83266 107.24 3.70966 107.769 3.70966C108.195 3.70966 108.575 3.78882 108.909 3.94714C109.243 4.10302 109.512 4.32223 109.716 4.60477C109.923 4.88731 110.046 5.21734 110.085 5.59487H109.022C108.964 5.33182 108.83 5.1053 108.62 4.91532C108.413 4.72533 108.135 4.63034 107.787 4.63034C107.483 4.63034 107.216 4.71072 106.987 4.87148C106.761 5.02979 106.584 5.25631 106.457 5.55103C106.331 5.84331 106.267 6.18918 106.267 6.58863C106.267 6.99782 106.329 7.351 106.454 7.64815C106.578 7.9453 106.753 8.17547 106.98 8.33866C107.209 8.50185 107.478 8.58345 107.787 8.58345C107.994 8.58345 108.182 8.5457 108.35 8.47019C108.52 8.39225 108.663 8.28143 108.777 8.13772C108.894 7.99402 108.976 7.82108 109.022 7.61892H110.085C110.046 7.98184 109.928 8.30578 109.731 8.59076C109.534 8.87573 109.269 9.09981 108.938 9.263C108.609 9.4262 108.223 9.50779 107.78 9.50779ZM113.873 3.78273V4.65957H110.808V3.78273H113.873ZM111.63 2.43823H112.722V7.74679C112.722 7.9587 112.754 8.11824 112.817 8.22541C112.88 8.33014 112.962 8.40199 113.062 8.44096C113.164 8.4775 113.275 8.49577 113.394 8.49577C113.482 8.49577 113.559 8.48968 113.625 8.4775C113.69 8.46532 113.742 8.45558 113.778 8.44827L113.975 9.35069C113.912 9.37505 113.822 9.3994 113.705 9.42376C113.588 9.45055 113.442 9.46517 113.267 9.4676C112.979 9.47247 112.711 9.42132 112.463 9.31415C112.214 9.20698 112.013 9.04136 111.86 8.81728C111.707 8.59319 111.63 8.31187 111.63 7.97331V2.43823ZM117.906 1.91213V9.39453H116.773V3.04472H116.729L114.939 4.21384V3.1324L116.806 1.91213H117.906Z" fill="black"/>
<path d="M207.706 24.7903C207.706 17.4291 207.706 13.7485 209.139 10.9369C210.399 8.4637 212.409 6.45296 214.883 5.19286C217.694 3.76025 221.375 3.76025 228.736 3.76025H251.57C254.785 3.76025 256.393 3.76026 257.906 4.12342C259.246 4.44538 260.528 4.97645 261.705 5.69713C263.031 6.50994 264.168 7.64655 266.441 9.91983L267.265 10.7445C269.538 13.0178 270.675 14.1544 272.002 14.9672C273.178 15.6879 274.46 16.2189 275.801 16.5409C277.314 16.9041 278.921 16.9041 282.136 16.9041H304.97C312.331 16.9041 316.012 16.9041 318.824 18.3367C321.297 19.5968 323.308 21.6075 324.568 24.0807C326 26.8923 326 30.5729 326 37.9341V74.7368C326 82.098 326 85.7789 324.568 88.5903C323.308 91.0633 321.297 93.0743 318.824 94.3342C316.012 95.7668 312.331 95.7668 304.97 95.7668H228.736C221.375 95.7668 217.694 95.7668 214.883 94.3342C212.409 93.0743 210.399 91.0633 209.139 88.5903C207.706 85.7789 207.706 82.098 207.706 74.7368V24.7903Z" stroke="black" stroke-width="5.91471" stroke-linecap="round" stroke-linejoin="round"/>
<path d="M92.1719 52.6549C91.083 52.6549 90.2003 53.5376 90.2003 54.6265C90.2003 55.7153 91.083 56.598 92.1719 56.598L92.1719 52.6549ZM204.368 56.0206C205.138 55.2506 205.138 54.0023 204.368 53.2324L191.821 40.6854C191.051 39.9154 189.803 39.9154 189.033 40.6854C188.263 41.4553 188.263 42.7036 189.033 43.4736L200.186 54.6265L189.033 65.7794C188.263 66.5493 188.263 67.7976 189.033 68.5676C189.803 69.3375 191.051 69.3375 191.821 68.5676L204.368 56.0206ZM92.1719 56.598L202.974 56.598L202.974 52.6549L92.1719 52.6549L92.1719 56.598Z" fill="#535353"/>
<path d="M25.5325 34.5166V39.7215C25.5325 40.384 25.5325 40.7153 25.4036 40.9684C25.2902 41.1909 25.1092 41.3719 24.8867 41.4853C24.6336 41.6143 24.3023 41.6143 23.6398 41.6143H19.1447C18.4821 41.6143 18.1509 41.6143 17.8979 41.4853C17.6753 41.3719 17.4943 41.1909 17.3809 40.9684C17.252 40.7153 17.252 40.384 17.252 39.7215V32.8605C17.252 32.198 17.252 31.8667 17.3809 31.6137C17.4943 31.3911 17.6753 31.2101 17.8979 31.0967C18.1509 30.9678 18.4822 30.9678 19.1447 30.9678H21.9837M25.5325 34.5166L21.9837 30.9678M25.5325 34.5166H22.5752C22.2485 34.5166 21.9837 34.2518 21.9837 33.9251V30.9678" stroke="black" stroke-width="1.14655" stroke-linecap="round" stroke-linejoin="round"/>
<path d="M34.6003 40.2641C34.0474 40.2641 33.5712 40.146 33.1717 39.9097C32.7747 39.6711 32.4678 39.3361 32.251 38.905C32.0367 38.4715 31.9295 37.9636 31.9295 37.3815C31.9295 36.8067 32.0367 36.3001 32.251 35.8616C32.4678 35.4232 32.7698 35.081 33.1571 34.835C33.5468 34.589 34.0023 34.466 34.5235 34.466C34.8402 34.466 35.1471 34.5184 35.4442 34.6231C35.7414 34.7278 36.0081 34.8922 36.2443 35.1163C36.4806 35.3404 36.6669 35.6315 36.8033 35.9895C36.9397 36.3451 37.0079 36.7775 37.0079 37.2865V37.6738H32.547V36.8554H35.9374C35.9374 36.568 35.879 36.3135 35.7621 36.0918C35.6452 35.8677 35.4808 35.6912 35.2688 35.5621C35.0594 35.433 34.8134 35.3684 34.5308 35.3684C34.2239 35.3684 33.956 35.4439 33.7271 35.5949C33.5005 35.7435 33.3252 35.9384 33.201 36.1795C33.0792 36.4182 33.0183 36.6776 33.0183 36.9577V37.5971C33.0183 37.9722 33.084 38.2912 33.2156 38.5543C33.3495 38.8173 33.5359 39.0183 33.7746 39.1571C34.0133 39.2935 34.2921 39.3617 34.6112 39.3617C34.8182 39.3617 35.007 39.3325 35.1775 39.274C35.348 39.2131 35.4954 39.123 35.6196 39.0037C35.7438 38.8843 35.8388 38.737 35.9046 38.5616L36.9385 38.7479C36.8557 39.0524 36.7071 39.3191 36.4928 39.548C36.2809 39.7746 36.0142 39.9512 35.6927 40.0778C35.3736 40.202 35.0094 40.2641 34.6003 40.2641ZM38.22 42.2553V34.5391H39.2868V35.4488H39.3781C39.4415 35.3319 39.5328 35.1967 39.6522 35.0433C39.7715 34.8898 39.9371 34.7558 40.149 34.6414C40.3609 34.5245 40.641 34.466 40.9893 34.466C41.4424 34.466 41.8467 34.5805 42.2023 34.8094C42.5579 35.0384 42.8368 35.3684 43.039 35.7995C43.2436 36.2307 43.3459 36.7495 43.3459 37.3559C43.3459 37.9624 43.2448 38.4824 43.0426 38.916C42.8405 39.3471 42.5628 39.6796 42.2096 39.9134C41.8564 40.1448 41.4533 40.2605 41.0003 40.2605C40.6593 40.2605 40.3804 40.2032 40.1636 40.0888C39.9493 39.9743 39.7812 39.8403 39.6595 39.6869C39.5377 39.5334 39.4439 39.397 39.3781 39.2777H39.3124V42.2553H38.22ZM39.2905 37.345C39.2905 37.7396 39.3477 38.0854 39.4622 38.3826C39.5766 38.6797 39.7423 38.9123 39.9591 39.0804C40.1758 39.246 40.4413 39.3288 40.7555 39.3288C41.0819 39.3288 41.3547 39.2424 41.5739 39.0694C41.7931 38.8941 41.9587 38.6566 42.0708 38.357C42.1853 38.0574 42.2425 37.7201 42.2425 37.345C42.2425 36.9748 42.1865 36.6423 42.0744 36.3476C41.9648 36.0528 41.7992 35.8202 41.5776 35.6497C41.3583 35.4792 41.0843 35.394 40.7555 35.394C40.4389 35.394 40.171 35.4756 39.9517 35.6388C39.735 35.802 39.5706 36.0297 39.4585 36.322C39.3465 36.6143 39.2905 36.9553 39.2905 37.345ZM46.9336 40.2641C46.4075 40.2641 45.9484 40.1436 45.5562 39.9024C45.1641 39.6613 44.8596 39.324 44.6429 38.8904C44.4261 38.4569 44.3177 37.9502 44.3177 37.3706C44.3177 36.7884 44.4261 36.2794 44.6429 35.8434C44.8596 35.4074 45.1641 35.0688 45.5562 34.8277C45.9484 34.5866 46.4075 34.466 46.9336 34.466C47.4597 34.466 47.9188 34.5866 48.311 34.8277C48.7031 35.0688 49.0076 35.4074 49.2244 35.8434C49.4411 36.2794 49.5495 36.7884 49.5495 37.3706C49.5495 37.9502 49.4411 38.4569 49.2244 38.8904C49.0076 39.324 48.7031 39.6613 48.311 39.9024C47.9188 40.1436 47.4597 40.2641 46.9336 40.2641ZM46.9373 39.3471C47.2783 39.3471 47.5608 39.257 47.7849 39.0767C48.009 38.8965 48.1746 38.6566 48.2818 38.357C48.3914 38.0574 48.4462 37.7274 48.4462 37.3669C48.4462 37.0089 48.3914 36.68 48.2818 36.3804C48.1746 36.0784 48.009 35.8361 47.7849 35.6534C47.5608 35.4707 47.2783 35.3794 46.9373 35.3794C46.5938 35.3794 46.3089 35.4707 46.0823 35.6534C45.8583 35.8361 45.6914 36.0784 45.5818 36.3804C45.4746 36.68 45.4211 37.0089 45.4211 37.3669C45.4211 37.7274 45.4746 38.0574 45.5818 38.357C45.6914 38.6566 45.8583 38.8965 46.0823 39.0767C46.3089 39.257 46.5938 39.3471 46.9373 39.3471ZM53.1327 40.2641C52.5896 40.2641 52.1219 40.1411 51.7298 39.8951C51.3401 39.6467 51.0405 39.3045 50.831 38.8685C50.6215 38.4325 50.5168 37.9332 50.5168 37.3706C50.5168 36.8006 50.624 36.2976 50.8383 35.8616C51.0527 35.4232 51.3547 35.081 51.7444 34.835C52.1341 34.589 52.5932 34.466 53.1218 34.466C53.548 34.466 53.928 34.5452 54.2617 34.7035C54.5954 34.8594 54.8645 35.0786 55.0691 35.3611C55.2761 35.6437 55.3991 35.9737 55.4381 36.3512H54.3749C54.3165 36.0882 54.1825 35.8616 53.973 35.6717C53.766 35.4817 53.4883 35.3867 53.14 35.3867C52.8356 35.3867 52.5689 35.4671 52.3399 35.6278C52.1134 35.7861 51.9368 36.0127 51.8102 36.3074C51.6835 36.5997 51.6202 36.9455 51.6202 37.345C51.6202 37.7542 51.6823 38.1073 51.8065 38.4045C51.9307 38.7016 52.1061 38.9318 52.3326 39.095C52.5616 39.2582 52.8307 39.3398 53.14 39.3398C53.3471 39.3398 53.5346 39.302 53.7027 39.2265C53.8732 39.1486 54.0157 39.0378 54.1301 38.8941C54.247 38.7504 54.3286 38.5774 54.3749 38.3753H55.4381C55.3991 38.7382 55.281 39.0621 55.0837 39.3471C54.8864 39.6321 54.6221 39.8562 54.2909 40.0194C53.9621 40.1825 53.576 40.2641 53.1327 40.2641ZM57.6987 36.8189V40.1509H56.6063V32.6685H57.6841V35.4525H57.7535C57.885 35.1504 58.086 34.9105 58.3563 34.7327C58.6267 34.5549 58.9799 34.466 59.4159 34.466C59.8007 34.466 60.1368 34.5452 60.4242 34.7035C60.7141 34.8618 60.9382 35.0981 61.0965 35.4123C61.2572 35.724 61.3376 36.1137 61.3376 36.5814V40.1509H60.2452V36.7129C60.2452 36.3013 60.1393 35.9822 59.9274 35.7557C59.7155 35.5267 59.4207 35.4123 59.0432 35.4123C58.785 35.4123 58.5536 35.4671 58.349 35.5767C58.1469 35.6863 57.9873 35.847 57.8704 36.0589C57.7559 36.2684 57.6987 36.5217 57.6987 36.8189ZM65.3857 40.2751C64.8085 40.2727 64.3152 40.1204 63.906 39.8184C63.4968 39.5164 63.1839 39.0767 62.9671 38.4995C62.7503 37.9222 62.6419 37.2268 62.6419 36.4133C62.6419 35.6022 62.7503 34.9093 62.9671 34.3345C63.1863 33.7597 63.5005 33.3212 63.9097 33.0192C64.3213 32.7172 64.8133 32.5662 65.3857 32.5662C65.9581 32.5662 66.4489 32.7184 66.8581 33.0229C67.2673 33.3249 67.5803 33.7633 67.797 34.3381C68.0162 34.9105 68.1259 35.6022 68.1259 36.4133C68.1259 37.2293 68.0175 37.9259 67.8007 38.5031C67.5839 39.078 67.2709 39.5176 66.8617 39.8221C66.4525 40.1241 65.9605 40.2751 65.3857 40.2751ZM65.3857 39.2996C65.8923 39.2996 66.2881 39.0524 66.5731 38.5579C66.8605 38.0635 67.0042 37.3486 67.0042 36.4133C67.0042 35.7922 66.9385 35.2673 66.8069 34.8387C66.6778 34.4075 66.4915 34.0812 66.2479 33.8595C66.0068 33.6354 65.7194 33.5234 65.3857 33.5234C64.8815 33.5234 64.4857 33.7718 64.1983 34.2687C63.9109 34.7656 63.766 35.4805 63.7635 36.4133C63.7635 37.0369 63.8281 37.5642 63.9572 37.9953C64.0887 38.424 64.275 38.7491 64.5162 38.9708C64.7573 39.19 65.0472 39.2996 65.3857 39.2996ZM69.885 40.2203C69.6853 40.2203 69.5136 40.1497 69.3699 40.0084C69.2262 39.8647 69.1543 39.6918 69.1543 39.4896C69.1543 39.2899 69.2262 39.1194 69.3699 38.9781C69.5136 38.8344 69.6853 38.7625 69.885 38.7625C70.0847 38.7625 70.2565 38.8344 70.4002 38.9781C70.5439 39.1194 70.6157 39.2899 70.6157 39.4896C70.6157 39.6236 70.5816 39.7466 70.5134 39.8586C70.4477 39.9682 70.36 40.0559 70.2504 40.1217C70.1408 40.1874 70.019 40.2203 69.885 40.2203ZM72.079 42.2553V34.5391H73.1458V35.4488H73.2371C73.3005 35.3319 73.3918 35.1967 73.5111 35.0433C73.6305 34.8898 73.7961 34.7558 74.008 34.6414C74.2199 34.5245 74.5 34.466 74.8483 34.466C75.3014 34.466 75.7057 34.5805 76.0613 34.8094C76.4169 35.0384 76.6958 35.3684 76.8979 35.7995C77.1025 36.2307 77.2048 36.7495 77.2048 37.3559C77.2048 37.9624 77.1038 38.4824 76.9016 38.916C76.6994 39.3471 76.4218 39.6796 76.0686 39.9134C75.7154 40.1448 75.3123 40.2605 74.8593 40.2605C74.5183 40.2605 74.2394 40.2032 74.0226 40.0888C73.8083 39.9743 73.6402 39.8403 73.5184 39.6869C73.3967 39.5334 73.3029 39.397 73.2371 39.2777H73.1714V42.2553H72.079ZM73.1494 37.345C73.1494 37.7396 73.2067 38.0854 73.3212 38.3826C73.4356 38.6797 73.6013 38.9123 73.818 39.0804C74.0348 39.246 74.3003 39.3288 74.6145 39.3288C74.9409 39.3288 75.2137 39.2424 75.4329 39.0694C75.6521 38.8941 75.8177 38.6566 75.9298 38.357C76.0442 38.0574 76.1015 37.7201 76.1015 37.345C76.1015 36.9748 76.0455 36.6423 75.9334 36.3476C75.8238 36.0528 75.6582 35.8202 75.4365 35.6497C75.2173 35.4792 74.9433 35.394 74.6145 35.394C74.2979 35.394 74.0299 35.4756 73.8107 35.6388C73.594 35.802 73.4295 36.0297 73.3175 36.322C73.2055 36.6143 73.1494 36.9553 73.1494 37.345ZM81.0483 34.5391V35.4159H77.983V34.5391H81.0483ZM78.8051 33.1946H79.8975V38.5031C79.8975 38.715 79.9292 38.8746 79.9925 38.9818C80.0558 39.0865 80.1374 39.1583 80.2373 39.1973C80.3396 39.2338 80.4504 39.2521 80.5697 39.2521C80.6574 39.2521 80.7341 39.246 80.7999 39.2338C80.8657 39.2217 80.9168 39.2119 80.9534 39.2046L81.1506 40.107C81.0873 40.1314 80.9972 40.1558 80.8803 40.1801C80.7634 40.2069 80.6172 40.2215 80.4419 40.2239C80.1545 40.2288 79.8865 40.1777 79.6381 40.0705C79.3896 39.9633 79.1887 39.7977 79.0353 39.5736C78.8818 39.3495 78.8051 39.0682 78.8051 38.7297V33.1946Z" fill="black"/>
<path d="M25.5325 53.8379V59.0428C25.5325 59.7053 25.5325 60.0366 25.4036 60.2897C25.2902 60.5122 25.1092 60.6932 24.8867 60.8066C24.6336 60.9355 24.3023 60.9355 23.6398 60.9355H19.1447C18.4821 60.9355 18.1509 60.9355 17.8979 60.8066C17.6753 60.6932 17.4943 60.5122 17.3809 60.2897C17.252 60.0366 17.252 59.7053 17.252 59.0428V52.1818C17.252 51.5193 17.252 51.188 17.3809 50.935C17.4943 50.7124 17.6753 50.5314 17.8979 50.418C18.1509 50.2891 18.4822 50.2891 19.1447 50.2891H21.9837M25.5325 53.8379L21.9837 50.2891M25.5325 53.8379H22.5752C22.2485 53.8379 21.9837 53.5731 21.9837 53.2464V50.2891" stroke="black" stroke-width="1.14655" stroke-linecap="round" stroke-linejoin="round"/>
<path d="M34.9948 58.4023C34.4419 58.4023 33.9657 58.2842 33.5663 58.0479C33.1692 57.8092 32.8623 57.4743 32.6456 57.0432C32.4312 56.6097 32.3241 56.1018 32.3241 55.5197C32.3241 54.9449 32.4312 54.4383 32.6456 53.9998C32.8623 53.5614 33.1644 53.2192 33.5516 52.9732C33.9414 52.7272 34.3968 52.6042 34.9181 52.6042C35.2347 52.6042 35.5416 52.6566 35.8387 52.7613C36.1359 52.866 36.4026 53.0304 36.6389 53.2545C36.8751 53.4786 37.0615 53.7697 37.1979 54.1277C37.3343 54.4833 37.4025 54.9156 37.4025 55.4247V55.812H32.9415V54.9936H36.332C36.332 54.7062 36.2735 54.4517 36.1566 54.23C36.0397 54.0059 35.8753 53.8293 35.6634 53.7002C35.4539 53.5712 35.2079 53.5066 34.9254 53.5066C34.6185 53.5066 34.3505 53.5821 34.1216 53.7331C33.8951 53.8817 33.7197 54.0766 33.5955 54.3177C33.4737 54.5564 33.4128 54.8158 33.4128 55.0959V55.7353C33.4128 56.1103 33.4786 56.4294 33.6101 56.6925C33.7441 56.9555 33.9304 57.1565 34.1691 57.2953C34.4078 57.4317 34.6867 57.4999 35.0057 57.4999C35.2128 57.4999 35.4015 57.4707 35.572 57.4122C35.7425 57.3513 35.8899 57.2612 36.0141 57.1419C36.1383 57.0225 36.2333 56.8752 36.2991 56.6998L37.333 56.8861C37.2502 57.1906 37.1016 57.4573 36.8873 57.6862C36.6754 57.9128 36.4087 58.0893 36.0872 58.216C35.7681 58.3402 35.404 58.4023 34.9948 58.4023ZM38.6145 60.3935V52.6773H39.6813V53.587H39.7727C39.836 53.4701 39.9273 53.3349 40.0467 53.1814C40.166 53.028 40.3317 52.894 40.5436 52.7796C40.7555 52.6626 41.0356 52.6042 41.3839 52.6042C41.8369 52.6042 42.2412 52.7187 42.5968 52.9476C42.9525 53.1766 43.2313 53.5066 43.4335 53.9377C43.6381 54.3688 43.7404 54.8876 43.7404 55.4941C43.7404 56.1006 43.6393 56.6206 43.4372 57.0542C43.235 57.4853 42.9573 57.8178 42.6041 58.0516C42.251 58.283 41.8479 58.3987 41.3948 58.3987C41.0538 58.3987 40.775 58.3414 40.5582 58.227C40.3438 58.1125 40.1758 57.9785 40.054 57.8251C39.9322 57.6716 39.8384 57.5352 39.7727 57.4159H39.7069V60.3935H38.6145ZM39.685 55.4832C39.685 55.8777 39.7422 56.2236 39.8567 56.5208C39.9712 56.8179 40.1368 57.0505 40.3536 57.2186C40.5704 57.3842 40.8358 57.467 41.15 57.467C41.4764 57.467 41.7492 57.3806 41.9684 57.2076C42.1876 57.0323 42.3533 56.7948 42.4653 56.4952C42.5798 56.1956 42.637 55.8583 42.637 55.4832C42.637 55.1129 42.581 54.7805 42.469 54.4857C42.3594 54.191 42.1937 53.9584 41.9721 53.7879C41.7529 53.6174 41.4789 53.5322 41.15 53.5322C40.8334 53.5322 40.5655 53.6138 40.3463 53.777C40.1295 53.9402 39.9651 54.1679 39.853 54.4602C39.741 54.7525 39.685 55.0935 39.685 55.4832ZM47.3281 58.4023C46.802 58.4023 46.3429 58.2818 45.9508 58.0406C45.5586 57.7995 45.2542 57.4621 45.0374 57.0286C44.8206 56.595 44.7122 56.0884 44.7122 55.5087C44.7122 54.9266 44.8206 54.4176 45.0374 53.9816C45.2542 53.5456 45.5586 53.207 45.9508 52.9659C46.3429 52.7248 46.802 52.6042 47.3281 52.6042C47.8543 52.6042 48.3134 52.7248 48.7055 52.9659C49.0977 53.207 49.4021 53.5456 49.6189 53.9816C49.8357 54.4176 49.9441 54.9266 49.9441 55.5087C49.9441 56.0884 49.8357 56.595 49.6189 57.0286C49.4021 57.4621 49.0977 57.7995 48.7055 58.0406C48.3134 58.2818 47.8543 58.4023 47.3281 58.4023ZM47.3318 57.4853C47.6728 57.4853 47.9553 57.3952 48.1794 57.2149C48.4035 57.0347 48.5691 56.7948 48.6763 56.4952C48.7859 56.1956 48.8407 55.8656 48.8407 55.5051C48.8407 55.147 48.7859 54.8182 48.6763 54.5186C48.5691 54.2166 48.4035 53.9743 48.1794 53.7916C47.9553 53.6089 47.6728 53.5176 47.3318 53.5176C46.9884 53.5176 46.7034 53.6089 46.4769 53.7916C46.2528 53.9743 46.086 54.2166 45.9763 54.5186C45.8692 54.8182 45.8156 55.147 45.8156 55.5051C45.8156 55.8656 45.8692 56.1956 45.9763 56.4952C46.086 56.7948 46.2528 57.0347 46.4769 57.2149C46.7034 57.3952 46.9884 57.4853 47.3318 57.4853ZM53.5273 58.4023C52.9841 58.4023 52.5165 58.2793 52.1243 58.0333C51.7346 57.7849 51.435 57.4427 51.2255 57.0067C51.0161 56.5707 50.9113 56.0714 50.9113 55.5087C50.9113 54.9388 51.0185 54.4358 51.2328 53.9998C51.4472 53.5614 51.7492 53.2192 52.1389 52.9732C52.5286 52.7272 52.9878 52.6042 53.5163 52.6042C53.9425 52.6042 54.3225 52.6833 54.6562 52.8417C54.9899 52.9975 55.259 53.2168 55.4636 53.4993C55.6707 53.7818 55.7937 54.1119 55.8326 54.4894H54.7695C54.711 54.2263 54.577 53.9998 54.3676 53.8098C54.1605 53.6199 53.8829 53.5249 53.5346 53.5249C53.2301 53.5249 52.9634 53.6053 52.7344 53.766C52.5079 53.9243 52.3313 54.1508 52.2047 54.4456C52.078 54.7378 52.0147 55.0837 52.0147 55.4832C52.0147 55.8924 52.0768 56.2455 52.201 56.5427C52.3252 56.8398 52.5006 57.07 52.7271 57.2332C52.9561 57.3964 53.2252 57.478 53.5346 57.478C53.7416 57.478 53.9291 57.4402 54.0972 57.3647C54.2677 57.2868 54.4102 57.176 54.5247 57.0323C54.6416 56.8885 54.7232 56.7156 54.7695 56.5135H55.8326C55.7937 56.8764 55.6755 57.2003 55.4782 57.4853C55.2809 57.7703 55.0167 57.9943 54.6854 58.1575C54.3566 58.3207 53.9706 58.4023 53.5273 58.4023ZM58.0932 54.9571V58.2891H57.0008V50.8067H58.0786V53.5906H58.148C58.2796 53.2886 58.4805 53.0487 58.7509 52.8709C59.0212 52.6931 59.3744 52.6042 59.8104 52.6042C60.1952 52.6042 60.5314 52.6833 60.8188 52.8417C61.1086 53 61.3327 53.2362 61.491 53.5504C61.6518 53.8622 61.7321 54.2519 61.7321 54.7196V58.2891H60.6397V54.8511C60.6397 54.4395 60.5338 54.1204 60.3219 53.8939C60.11 53.6649 59.8153 53.5504 59.4377 53.5504C59.1796 53.5504 58.9482 53.6053 58.7436 53.7149C58.5414 53.8245 58.3819 53.9852 58.265 54.1971C58.1505 54.4066 58.0932 54.6599 58.0932 54.9571ZM65.6021 50.8067V58.2891H64.4695V51.9392H64.4257L62.6355 53.1084V52.0269L64.5024 50.8067H65.6021ZM70.2311 58.4133C69.6539 58.4108 69.1607 58.2586 68.7515 57.9566C68.3423 57.6546 68.0293 57.2149 67.8125 56.6377C67.5957 56.0604 67.4874 55.365 67.4874 54.5515C67.4874 53.7404 67.5957 53.0475 67.8125 52.4727C68.0317 51.8978 68.3459 51.4594 68.7551 51.1574C69.1668 50.8554 69.6588 50.7044 70.2311 50.7044C70.8035 50.7044 71.2943 50.8566 71.7035 51.161C72.1127 51.4631 72.4257 51.9015 72.6425 52.4763C72.8617 53.0487 72.9713 53.7404 72.9713 54.5515C72.9713 55.3675 72.8629 56.0641 72.6461 56.6413C72.4293 57.2161 72.1164 57.6558 71.7072 57.9602C71.298 58.2623 70.806 58.4133 70.2311 58.4133ZM70.2311 57.4378C70.7378 57.4378 71.1336 57.1906 71.4185 56.6961C71.7059 56.2017 71.8497 55.4868 71.8497 54.5515C71.8497 53.9304 71.7839 53.4055 71.6524 52.9768C71.5233 52.5457 71.3369 52.2194 71.0934 51.9977C70.8522 51.7736 70.5648 51.6616 70.2311 51.6616C69.727 51.6616 69.3312 51.91 69.0437 52.4069C68.7563 52.9038 68.6114 53.6186 68.609 54.5515C68.609 55.175 68.6735 55.7024 68.8026 56.1335C68.9341 56.5622 69.1205 56.8873 69.3616 57.109C69.6027 57.3282 69.8926 57.4378 70.2311 57.4378ZM74.7305 58.3585C74.5307 58.3585 74.359 58.2878 74.2153 58.1466C74.0716 58.0029 73.9997 57.8299 73.9997 57.6278C73.9997 57.428 74.0716 57.2576 74.2153 57.1163C74.359 56.9726 74.5307 56.9007 74.7305 56.9007C74.9302 56.9007 75.1019 56.9726 75.2456 57.1163C75.3893 57.2576 75.4612 57.428 75.4612 57.6278C75.4612 57.7617 75.4271 57.8847 75.3589 57.9968C75.2931 58.1064 75.2054 58.1941 75.0958 58.2598C74.9862 58.3256 74.8644 58.3585 74.7305 58.3585ZM76.9244 60.3935V52.6773H77.9912V53.587H78.0826C78.1459 53.4701 78.2372 53.3349 78.3566 53.1814C78.4759 53.028 78.6415 52.894 78.8534 52.7796C79.0654 52.6626 79.3455 52.6042 79.6938 52.6042C80.1468 52.6042 80.5511 52.7187 80.9067 52.9476C81.2623 53.1766 81.5412 53.5066 81.7434 53.9377C81.948 54.3688 82.0503 54.8876 82.0503 55.4941C82.0503 56.1006 81.9492 56.6206 81.747 57.0542C81.5449 57.4853 81.2672 57.8178 80.914 58.0516C80.5609 58.283 80.1578 58.3987 79.7047 58.3987C79.3637 58.3987 79.0848 58.3414 78.8681 58.227C78.6537 58.1125 78.4857 57.9785 78.3639 57.8251C78.2421 57.6716 78.1483 57.5352 78.0826 57.4159H78.0168V60.3935H76.9244ZM77.9949 55.4832C77.9949 55.8777 78.0521 56.2236 78.1666 56.5208C78.2811 56.8179 78.4467 57.0505 78.6635 57.2186C78.8802 57.3842 79.1457 57.467 79.4599 57.467C79.7863 57.467 80.0591 57.3806 80.2783 57.2076C80.4975 57.0323 80.6632 56.7948 80.7752 56.4952C80.8897 56.1956 80.9469 55.8583 80.9469 55.4832C80.9469 55.1129 80.8909 54.7805 80.7789 54.4857C80.6692 54.191 80.5036 53.9584 80.282 53.7879C80.0628 53.6174 79.7887 53.5322 79.4599 53.5322C79.1433 53.5322 78.8754 53.6138 78.6562 53.777C78.4394 53.9402 78.275 54.1679 78.1629 54.4602C78.0509 54.7525 77.9949 55.0935 77.9949 55.4832ZM85.8938 52.6773V53.5541H82.8285V52.6773H85.8938ZM83.6505 51.3328H84.7429V56.6413C84.7429 56.8532 84.7746 57.0128 84.8379 57.1199C84.9012 57.2247 84.9828 57.2965 85.0827 57.3355C85.185 57.372 85.2958 57.3903 85.4152 57.3903C85.5029 57.3903 85.5796 57.3842 85.6453 57.372C85.7111 57.3599 85.7623 57.3501 85.7988 57.3428L85.9961 58.2452C85.9327 58.2696 85.8426 58.2939 85.7257 58.3183C85.6088 58.3451 85.4627 58.3597 85.2873 58.3621C84.9999 58.367 84.732 58.3159 84.4835 58.2087C84.2351 58.1015 84.0341 57.9359 83.8807 57.7118C83.7272 57.4877 83.6505 57.2064 83.6505 56.8678V51.3328Z" fill="black"/>
<path d="M34.6003 76.541C34.0474 76.541 33.5712 76.4229 33.1717 76.1866C32.7747 75.9479 32.4678 75.613 32.251 75.1819C32.0367 74.7483 31.9295 74.2405 31.9295 73.6584C31.9295 73.0835 32.0367 72.5769 32.251 72.1385C32.4678 71.7001 32.7698 71.3579 33.1571 71.1119C33.5468 70.8659 34.0023 70.7429 34.5235 70.7429C34.8402 70.7429 35.1471 70.7952 35.4442 70.9C35.7414 71.0047 36.0081 71.1691 36.2443 71.3932C36.4806 71.6173 36.6669 71.9083 36.8033 72.2664C36.9397 72.622 37.0079 73.0543 37.0079 73.5634V73.9506H32.547V73.1323H35.9374C35.9374 72.8449 35.879 72.5903 35.7621 72.3687C35.6452 72.1446 35.4808 71.968 35.2688 71.8389C35.0594 71.7098 34.8134 71.6453 34.5308 71.6453C34.2239 71.6453 33.956 71.7208 33.7271 71.8718C33.5005 72.0204 33.3252 72.2152 33.201 72.4564C33.0792 72.6951 33.0183 72.9545 33.0183 73.2346V73.8739C33.0183 74.249 33.084 74.5681 33.2156 74.8311C33.3495 75.0942 33.5359 75.2951 33.7746 75.434C34.0133 75.5704 34.2921 75.6386 34.6112 75.6386C34.8182 75.6386 35.007 75.6093 35.1775 75.5509C35.348 75.49 35.4954 75.3999 35.6196 75.2805C35.7438 75.1612 35.8388 75.0138 35.9046 74.8385L36.9385 75.0248C36.8557 75.3292 36.7071 75.5959 36.4928 75.8249C36.2809 76.0514 36.0142 76.228 35.6927 76.3547C35.3736 76.4789 35.0094 76.541 34.6003 76.541ZM38.22 78.5322V70.8159H39.2868V71.7257H39.3781C39.4415 71.6087 39.5328 71.4736 39.6522 71.3201C39.7715 71.1667 39.9371 71.0327 40.149 70.9182C40.3609 70.8013 40.641 70.7429 40.9893 70.7429C41.4424 70.7429 41.8467 70.8573 42.2023 71.0863C42.5579 71.3152 42.8368 71.6453 43.039 72.0764C43.2436 72.5075 43.3459 73.0263 43.3459 73.6328C43.3459 74.2393 43.2448 74.7593 43.0426 75.1928C42.8405 75.624 42.5628 75.9564 42.2096 76.1903C41.8564 76.4216 41.4533 76.5373 41.0003 76.5373C40.6593 76.5373 40.3804 76.4801 40.1636 76.3656C39.9493 76.2511 39.7812 76.1172 39.6595 75.9637C39.5377 75.8103 39.4439 75.6739 39.3781 75.5545H39.3124V78.5322H38.22ZM39.2905 73.6218C39.2905 74.0164 39.3477 74.3623 39.4622 74.6594C39.5766 74.9566 39.7423 75.1892 39.9591 75.3573C40.1758 75.5229 40.4413 75.6057 40.7555 75.6057C41.0819 75.6057 41.3547 75.5192 41.5739 75.3463C41.7931 75.1709 41.9587 74.9334 42.0708 74.6339C42.1853 74.3343 42.2425 73.9969 42.2425 73.6218C42.2425 73.2516 42.1865 72.9191 42.0744 72.6244C41.9648 72.3297 41.7992 72.0971 41.5776 71.9266C41.3583 71.7561 41.0843 71.6709 40.7555 71.6709C40.4389 71.6709 40.171 71.7524 39.9517 71.9156C39.735 72.0788 39.5706 72.3066 39.4585 72.5988C39.3465 72.8911 39.2905 73.2321 39.2905 73.6218ZM46.9336 76.541C46.4075 76.541 45.9484 76.4204 45.5562 76.1793C45.1641 75.9382 44.8596 75.6008 44.6429 75.1673C44.4261 74.7337 44.3177 74.2271 44.3177 73.6474C44.3177 73.0653 44.4261 72.5562 44.6429 72.1202C44.8596 71.6842 45.1641 71.3457 45.5562 71.1046C45.9484 70.8634 46.4075 70.7429 46.9336 70.7429C47.4597 70.7429 47.9188 70.8634 48.311 71.1046C48.7031 71.3457 49.0076 71.6842 49.2244 72.1202C49.4411 72.5562 49.5495 73.0653 49.5495 73.6474C49.5495 74.2271 49.4411 74.7337 49.2244 75.1673C49.0076 75.6008 48.7031 75.9382 48.311 76.1793C47.9188 76.4204 47.4597 76.541 46.9336 76.541ZM46.9373 75.624C47.2783 75.624 47.5608 75.5338 47.7849 75.3536C48.009 75.1734 48.1746 74.9334 48.2818 74.6339C48.3914 74.3343 48.4462 74.0042 48.4462 73.6438C48.4462 73.2857 48.3914 72.9569 48.2818 72.6573C48.1746 72.3553 48.009 72.1129 47.7849 71.9303C47.5608 71.7476 47.2783 71.6562 46.9373 71.6562C46.5938 71.6562 46.3089 71.7476 46.0823 71.9303C45.8583 72.1129 45.6914 72.3553 45.5818 72.6573C45.4746 72.9569 45.4211 73.2857 45.4211 73.6438C45.4211 74.0042 45.4746 74.3343 45.5818 74.6339C45.6914 74.9334 45.8583 75.1734 46.0823 75.3536C46.3089 75.5338 46.5938 75.624 46.9373 75.624ZM53.1327 76.541C52.5896 76.541 52.1219 76.418 51.7298 76.172C51.3401 75.9235 51.0405 75.5813 50.831 75.1453C50.6215 74.7094 50.5168 74.21 50.5168 73.6474C50.5168 73.0775 50.624 72.5745 50.8383 72.1385C51.0527 71.7001 51.3547 71.3579 51.7444 71.1119C52.1341 70.8659 52.5932 70.7429 53.1218 70.7429C53.548 70.7429 53.928 70.822 54.2617 70.9803C54.5954 71.1362 54.8645 71.3554 55.0691 71.638C55.2761 71.9205 55.3991 72.2505 55.4381 72.6281H54.3749C54.3165 72.365 54.1825 72.1385 53.973 71.9485C53.766 71.7585 53.4883 71.6635 53.14 71.6635C52.8356 71.6635 52.5689 71.7439 52.3399 71.9047C52.1134 72.063 51.9368 72.2895 51.8102 72.5842C51.6835 72.8765 51.6202 73.2224 51.6202 73.6218C51.6202 74.031 51.6823 74.3842 51.8065 74.6814C51.9307 74.9785 52.1061 75.2087 52.3326 75.3719C52.5616 75.5351 52.8307 75.6167 53.14 75.6167C53.3471 75.6167 53.5346 75.5789 53.7027 75.5034C53.8732 75.4255 54.0157 75.3146 54.1301 75.1709C54.247 75.0272 54.3286 74.8543 54.3749 74.6521H55.4381C55.3991 75.015 55.281 75.339 55.0837 75.624C54.8864 75.9089 54.6221 76.133 54.2909 76.2962C53.9621 76.4594 53.576 76.541 53.1327 76.541ZM57.6987 73.0957V76.4277H56.6063V68.9453H57.6841V71.7293H57.7535C57.885 71.4273 58.086 71.1874 58.3563 71.0096C58.6267 70.8318 58.9799 70.7429 59.4159 70.7429C59.8007 70.7429 60.1368 70.822 60.4242 70.9803C60.7141 71.1387 60.9382 71.3749 61.0965 71.6891C61.2572 72.0009 61.3376 72.3906 61.3376 72.8582V76.4277H60.2452V72.9898C60.2452 72.5781 60.1393 72.2591 59.9274 72.0326C59.7155 71.8036 59.4207 71.6891 59.0432 71.6891C58.785 71.6891 58.5536 71.7439 58.349 71.8535C58.1469 71.9631 57.9873 72.1239 57.8704 72.3358C57.7559 72.5453 57.6987 72.7986 57.6987 73.0957ZM62.7808 76.4277V75.6093L65.3126 72.9861C65.583 72.7011 65.8059 72.4515 65.9812 72.2371C66.159 72.0204 66.2918 71.8146 66.3795 71.6197C66.4672 71.4248 66.511 71.2178 66.511 70.9986C66.511 70.7502 66.4525 70.5358 66.3356 70.3556C66.2187 70.1729 66.0592 70.0329 65.857 69.9354C65.6549 69.8356 65.4271 69.7856 65.1738 69.7856C64.9059 69.7856 64.6721 69.8404 64.4723 69.95C64.2726 70.0597 64.1192 70.2143 64.012 70.414C63.9048 70.6138 63.8512 70.8476 63.8512 71.1155H62.7734C62.7734 70.66 62.8782 70.2618 63.0876 69.9208C63.2971 69.5798 63.5845 69.3156 63.9499 69.128C64.3152 68.938 64.7305 68.843 65.1957 68.843C65.6658 68.843 66.0799 68.9368 66.4379 69.1244C66.7984 69.3095 67.0797 69.5628 67.2819 69.8843C67.484 70.2034 67.5851 70.5638 67.5851 70.9657C67.5851 71.2434 67.5328 71.515 67.428 71.7805C67.3257 72.0459 67.1467 72.3419 66.891 72.6683C66.6352 72.9922 66.2796 73.3856 65.8241 73.8484L64.3372 75.4047V75.4596H67.7057V76.4277H62.7808ZM71.6953 76.552C71.1181 76.5495 70.6249 76.3973 70.2157 76.0953C69.8065 75.7932 69.4935 75.3536 69.2767 74.7763C69.0599 74.1991 68.9515 73.5037 68.9515 72.6902C68.9515 71.8791 69.0599 71.1862 69.2767 70.6113C69.4959 70.0365 69.8101 69.5981 70.2193 69.2961C70.6309 68.994 71.123 68.843 71.6953 68.843C72.2677 68.843 72.7585 68.9953 73.1677 69.2997C73.5769 69.6017 73.8899 70.0402 74.1067 70.615C74.3259 71.1874 74.4355 71.8791 74.4355 72.6902C74.4355 73.5061 74.3271 74.2027 74.1103 74.78C73.8935 75.3548 73.5806 75.7945 73.1714 76.0989C72.7622 76.4009 72.2702 76.552 71.6953 76.552ZM71.6953 75.5765C72.202 75.5765 72.5978 75.3292 72.8827 74.8348C73.1701 74.3404 73.3138 73.6255 73.3138 72.6902C73.3138 72.0691 73.2481 71.5442 73.1166 71.1155C72.9875 70.6844 72.8011 70.358 72.5576 70.1364C72.3164 69.9123 72.029 69.8003 71.6953 69.8003C71.1912 69.8003 70.7954 70.0487 70.5079 70.5456C70.2205 71.0424 70.0756 71.7573 70.0732 72.6902C70.0732 73.3137 70.1377 73.841 70.2668 74.2722C70.3983 74.7008 70.5847 75.026 70.8258 75.2476C71.0669 75.4669 71.3568 75.5765 71.6953 75.5765ZM76.1946 76.4972C75.9949 76.4972 75.8232 76.4265 75.6795 76.2852C75.5358 76.1415 75.4639 75.9686 75.4639 75.7664C75.4639 75.5667 75.5358 75.3962 75.6795 75.255C75.8232 75.1112 75.9949 75.0394 76.1946 75.0394C76.3944 75.0394 76.5661 75.1112 76.7098 75.255C76.8535 75.3962 76.9254 75.5667 76.9254 75.7664C76.9254 75.9004 76.8913 76.0234 76.8231 76.1355C76.7573 76.2451 76.6696 76.3327 76.56 76.3985C76.4504 76.4643 76.3286 76.4972 76.1946 76.4972ZM78.3886 78.5322V70.8159H79.4554V71.7257H79.5468C79.6101 71.6087 79.7014 71.4736 79.8208 71.3201C79.9401 71.1667 80.1057 71.0327 80.3176 70.9182C80.5295 70.8013 80.8097 70.7429 81.158 70.7429C81.611 70.7429 82.0153 70.8573 82.3709 71.0863C82.7265 71.3152 83.0054 71.6453 83.2076 72.0764C83.4122 72.5075 83.5145 73.0263 83.5145 73.6328C83.5145 74.2393 83.4134 74.7593 83.2112 75.1928C83.0091 75.624 82.7314 75.9564 82.3782 76.1903C82.0251 76.4216 81.6219 76.5373 81.1689 76.5373C80.8279 76.5373 80.549 76.4801 80.3323 76.3656C80.1179 76.2511 79.9499 76.1172 79.8281 75.9637C79.7063 75.8103 79.6125 75.6739 79.5468 75.5545H79.481V78.5322H78.3886ZM79.4591 73.6218C79.4591 74.0164 79.5163 74.3623 79.6308 74.6594C79.7453 74.9566 79.9109 75.1892 80.1277 75.3573C80.3444 75.5229 80.6099 75.6057 80.9241 75.6057C81.2505 75.6057 81.5233 75.5192 81.7425 75.3463C81.9617 75.1709 82.1274 74.9334 82.2394 74.6339C82.3539 74.3343 82.4111 73.9969 82.4111 73.6218C82.4111 73.2516 82.3551 72.9191 82.243 72.6244C82.1334 72.3297 81.9678 72.0971 81.7462 71.9266C81.527 71.7561 81.2529 71.6709 80.9241 71.6709C80.6075 71.6709 80.3396 71.7524 80.1204 71.9156C79.9036 72.0788 79.7392 72.3066 79.6271 72.5988C79.5151 72.8911 79.4591 73.2321 79.4591 73.6218ZM87.358 70.8159V71.6928H84.2927V70.8159H87.358ZM85.1147 69.4714H86.2071V74.78C86.2071 74.9919 86.2388 75.1514 86.3021 75.2586C86.3654 75.3633 86.447 75.4352 86.5469 75.4742C86.6492 75.5107 86.76 75.529 86.8794 75.529C86.967 75.529 87.0438 75.5229 87.1095 75.5107C87.1753 75.4985 87.2264 75.4888 87.263 75.4815L87.4603 76.3839C87.3969 76.4082 87.3068 76.4326 87.1899 76.457C87.073 76.4838 86.9269 76.4984 86.7515 76.5008C86.4641 76.5057 86.1962 76.4545 85.9477 76.3474C85.6993 76.2402 85.4983 76.0746 85.3449 75.8505C85.1914 75.6264 85.1147 75.3451 85.1147 75.0065V69.4714Z" fill="black"/>
<path d="M25.5325 70.7935V75.9984C25.5325 76.6609 25.5325 76.9922 25.4036 77.2452C25.2902 77.4678 25.1092 77.6488 24.8867 77.7622C24.6336 77.8911 24.3023 77.8911 23.6398 77.8911H19.1447C18.4821 77.8911 18.1509 77.8911 17.8979 77.7622C17.6753 77.6488 17.4943 77.4678 17.3809 77.2452C17.252 76.9922 17.252 76.6609 17.252 75.9984V69.1373C17.252 68.4748 17.252 68.1436 17.3809 67.8905C17.4943 67.6679 17.6753 67.487 17.8979 67.3736C18.1509 67.2446 18.4822 67.2446 19.1447 67.2446H21.9837M25.5325 70.7935L21.9837 67.2446M25.5325 70.7935H22.5752C22.2485 70.7935 21.9837 70.5286 21.9837 70.202V67.2446" stroke="black" stroke-width="1.14655" stroke-linecap="round" stroke-linejoin="round"/>
<path d="M231.365 52.6553V57.8602C231.365 58.5227 231.365 58.854 231.236 59.107C231.122 59.3296 230.941 59.5106 230.719 59.624C230.466 59.7529 230.134 59.7529 229.472 59.7529H224.977C224.314 59.7529 223.983 59.7529 223.73 59.624C223.507 59.5106 223.326 59.3296 223.213 59.107C223.084 58.854 223.084 58.5227 223.084 57.8602V50.9992C223.084 50.3366 223.084 50.0054 223.213 49.7523C223.326 49.5298 223.507 49.3488 223.73 49.2354C223.983 49.1064 224.314 49.1064 224.977 49.1064H227.816M231.365 52.6553L227.816 49.1064M231.365 52.6553H228.407C228.081 52.6553 227.816 52.3905 227.816 52.0638V49.1064" stroke="black" stroke-width="1.14655" stroke-linecap="round" stroke-linejoin="round"/>
<path d="M240.633 52.6773V53.5541H237.568V52.6773H240.633ZM238.39 51.3328H239.482V56.6413C239.482 56.8532 239.514 57.0128 239.577 57.1199C239.641 57.2247 239.722 57.2965 239.822 57.3355C239.924 57.372 240.035 57.3903 240.155 57.3903C240.242 57.3903 240.319 57.3842 240.385 57.372C240.451 57.3599 240.502 57.3501 240.538 57.3428L240.736 58.2452C240.672 58.2696 240.582 58.2939 240.465 58.3183C240.348 58.3451 240.202 58.3597 240.027 58.3621C239.739 58.367 239.471 58.3159 239.223 58.2087C238.975 58.1015 238.774 57.9359 238.62 57.7118C238.467 57.4877 238.39 57.2064 238.39 56.8678V51.3328ZM244.2 58.4023C243.647 58.4023 243.171 58.2842 242.771 58.0479C242.374 57.8092 242.068 57.4743 241.851 57.0432C241.636 56.6097 241.529 56.1018 241.529 55.5197C241.529 54.9449 241.636 54.4383 241.851 53.9998C242.068 53.5614 242.37 53.2192 242.757 52.9732C243.147 52.7272 243.602 52.6042 244.123 52.6042C244.44 52.6042 244.747 52.6566 245.044 52.7613C245.341 52.866 245.608 53.0304 245.844 53.2545C246.08 53.4786 246.267 53.7697 246.403 54.1277C246.539 54.4833 246.608 54.9156 246.608 55.4247V55.812H242.147V54.9936H245.537C245.537 54.7062 245.479 54.4517 245.362 54.23C245.245 54.0059 245.08 53.8293 244.869 53.7002C244.659 53.5712 244.413 53.5066 244.131 53.5066C243.824 53.5066 243.556 53.5821 243.327 53.7331C243.1 53.8817 242.925 54.0766 242.801 54.3177C242.679 54.5564 242.618 54.8158 242.618 55.0959V55.7353C242.618 56.1103 242.684 56.4294 242.815 56.6925C242.949 56.9555 243.136 57.1565 243.374 57.2953C243.613 57.4317 243.892 57.4999 244.211 57.4999C244.418 57.4999 244.607 57.4707 244.777 57.4122C244.948 57.3513 245.095 57.2612 245.219 57.1419C245.344 57.0225 245.439 56.8752 245.504 56.6998L246.538 56.8861C246.455 57.1906 246.307 57.4573 246.092 57.6862C245.881 57.9128 245.614 58.0893 245.292 58.216C244.973 58.3402 244.609 58.4023 244.2 58.4023ZM252.025 54.0473L251.035 54.2227C250.993 54.096 250.928 53.9755 250.838 53.861C250.75 53.7465 250.63 53.6527 250.479 53.5797C250.328 53.5066 250.14 53.4701 249.913 53.4701C249.604 53.4701 249.346 53.5395 249.139 53.6783C248.932 53.8147 248.828 53.9913 248.828 54.2081C248.828 54.3956 248.897 54.5466 249.036 54.6611C249.175 54.7756 249.399 54.8694 249.709 54.9424L250.6 55.147C251.116 55.2664 251.501 55.4503 251.755 55.6987C252.008 55.9472 252.135 56.2699 252.135 56.6669C252.135 57.003 252.037 57.3026 251.842 57.5657C251.65 57.8263 251.381 58.0309 251.035 58.1795C250.691 58.328 250.293 58.4023 249.84 58.4023C249.212 58.4023 248.699 58.2684 248.302 58.0004C247.905 57.7301 247.661 57.3465 247.571 56.8496L248.627 56.6888C248.693 56.9641 248.828 57.1723 249.033 57.3136C249.237 57.4524 249.504 57.5218 249.833 57.5218C250.191 57.5218 250.477 57.4475 250.691 57.299C250.906 57.1479 251.013 56.9641 251.013 56.7473C251.013 56.5719 250.947 56.4246 250.816 56.3052C250.686 56.1859 250.488 56.0957 250.22 56.0348L249.27 55.8266C248.746 55.7072 248.359 55.5173 248.108 55.2566C247.86 54.996 247.736 54.666 247.736 54.2665C247.736 53.9353 247.828 53.6454 248.013 53.397C248.198 53.1486 248.454 52.9549 248.781 52.8161C249.107 52.6748 249.481 52.6042 249.902 52.6042C250.509 52.6042 250.986 52.7357 251.334 52.9988C251.683 53.2594 251.913 53.6089 252.025 54.0473ZM255.955 52.6773V53.5541H252.89V52.6773H255.955ZM253.712 51.3328H254.804V56.6413C254.804 56.8532 254.836 57.0128 254.899 57.1199C254.963 57.2247 255.044 57.2965 255.144 57.3355C255.246 57.372 255.357 57.3903 255.477 57.3903C255.564 57.3903 255.641 57.3842 255.707 57.372C255.772 57.3599 255.824 57.3501 255.86 57.3428L256.057 58.2452C255.994 58.2696 255.904 58.2939 255.787 58.3183C255.67 58.3451 255.524 58.3597 255.349 58.3621C255.061 58.367 254.793 58.3159 254.545 58.2087C254.296 58.1015 254.096 57.9359 253.942 57.7118C253.789 57.4877 253.712 57.2064 253.712 56.8678V51.3328ZM257.883 58.3585C257.684 58.3585 257.512 58.2878 257.368 58.1466C257.224 58.0029 257.153 57.8299 257.153 57.6278C257.153 57.428 257.224 57.2576 257.368 57.1163C257.512 56.9726 257.684 56.9007 257.883 56.9007C258.083 56.9007 258.255 56.9726 258.398 57.1163C258.542 57.2576 258.614 57.428 258.614 57.6278C258.614 57.7617 258.58 57.8847 258.512 57.9968C258.446 58.1064 258.358 58.1941 258.249 58.2598C258.139 58.3256 258.017 58.3585 257.883 58.3585ZM260.077 58.2891V52.6773H261.17V58.2891H260.077ZM260.629 51.8114C260.439 51.8114 260.276 51.748 260.139 51.6214C260.005 51.4923 259.938 51.3389 259.938 51.161C259.938 50.9808 260.005 50.8274 260.139 50.7007C260.276 50.5716 260.439 50.5071 260.629 50.5071C260.819 50.5071 260.981 50.5716 261.115 50.7007C261.251 50.8274 261.319 50.9808 261.319 51.161C261.319 51.3389 261.251 51.4923 261.115 51.6214C260.981 51.748 260.819 51.8114 260.629 51.8114ZM262.639 60.3935V52.6773H263.706V53.587H263.797C263.861 53.4701 263.952 53.3349 264.071 53.1814C264.191 53.028 264.356 52.894 264.568 52.7796C264.78 52.6626 265.06 52.6042 265.409 52.6042C265.862 52.6042 266.266 52.7187 266.622 52.9476C266.977 53.1766 267.256 53.5066 267.458 53.9377C267.663 54.3688 267.765 54.8876 267.765 55.4941C267.765 56.1006 267.664 56.6206 267.462 57.0542C267.26 57.4853 266.982 57.8178 266.629 58.0516C266.276 58.283 265.873 58.3987 265.42 58.3987C265.079 58.3987 264.8 58.3414 264.583 58.227C264.369 58.1125 264.201 57.9785 264.079 57.8251C263.957 57.6716 263.863 57.5352 263.797 57.4159H263.732V60.3935H262.639ZM263.71 55.4832C263.71 55.8777 263.767 56.2236 263.881 56.5208C263.996 56.8179 264.162 57.0505 264.378 57.2186C264.595 57.3842 264.861 57.467 265.175 57.467C265.501 57.467 265.774 57.3806 265.993 57.2076C266.212 57.0323 266.378 56.7948 266.49 56.4952C266.605 56.1956 266.662 55.8583 266.662 55.4832C266.662 55.1129 266.606 54.7805 266.494 54.4857C266.384 54.191 266.219 53.9584 265.997 53.7879C265.778 53.6174 265.504 53.5322 265.175 53.5322C264.858 53.5322 264.59 53.6138 264.371 53.777C264.154 53.9402 263.99 54.1679 263.878 54.4602C263.766 54.7525 263.71 55.0935 263.71 55.4832ZM269.489 60.3935C269.326 60.3935 269.177 60.3801 269.043 60.3533C268.909 60.3289 268.809 60.3022 268.743 60.2729L269.006 59.3778C269.206 59.4314 269.384 59.4545 269.54 59.4472C269.696 59.4399 269.833 59.3815 269.953 59.2719C270.074 59.1623 270.182 58.9832 270.274 58.7348L270.409 58.3621L268.356 52.6773H269.525L270.946 57.0323H271.005L272.426 52.6773H273.599L271.286 59.038C271.179 59.3303 271.043 59.5775 270.877 59.7797C270.711 59.9843 270.514 60.1377 270.285 60.24C270.056 60.3423 269.791 60.3935 269.489 60.3935ZM275.718 54.9571V58.2891H274.626V52.6773H275.674V53.5906H275.744C275.873 53.2935 276.075 53.0548 276.35 52.8745C276.628 52.6943 276.977 52.6042 277.399 52.6042C277.781 52.6042 278.116 52.6846 278.403 52.8453C278.691 53.0036 278.914 53.2399 279.072 53.5541C279.23 53.8683 279.309 54.2568 279.309 54.7196V58.2891H278.217V54.8511C278.217 54.4443 278.111 54.1265 277.899 53.8975C277.687 53.6661 277.396 53.5504 277.026 53.5504C276.773 53.5504 276.547 53.6053 276.35 53.7149C276.155 53.8245 276.001 53.9852 275.886 54.1971C275.774 54.4066 275.718 54.6599 275.718 54.9571ZM280.862 58.2891V50.8067H281.955V53.587H282.02C282.084 53.4701 282.175 53.3349 282.294 53.1814C282.414 53.028 282.579 52.894 282.791 52.7796C283.003 52.6626 283.283 52.6042 283.631 52.6042C284.085 52.6042 284.489 52.7187 284.844 52.9476C285.2 53.1766 285.479 53.5066 285.681 53.9377C285.886 54.3688 285.988 54.8876 285.988 55.4941C285.988 56.1006 285.887 56.6206 285.685 57.0542C285.483 57.4853 285.205 57.8178 284.852 58.0516C284.499 58.283 284.095 58.3987 283.642 58.3987C283.301 58.3987 283.023 58.3414 282.806 58.227C282.591 58.1125 282.423 57.9785 282.302 57.8251C282.18 57.6716 282.086 57.5352 282.02 57.4159H281.929V58.2891H280.862ZM281.933 55.4832C281.933 55.8777 281.99 56.2236 282.104 56.5208C282.219 56.8179 282.384 57.0505 282.601 57.2186C282.818 57.3842 283.083 57.467 283.398 57.467C283.724 57.467 283.997 57.3806 284.216 57.2076C284.435 57.0323 284.601 56.7948 284.713 56.4952C284.827 56.1956 284.885 55.8583 284.885 55.4832C284.885 55.1129 284.829 54.7805 284.717 54.4857C284.607 54.191 284.441 53.9584 284.22 53.7879C284 53.6174 283.726 53.5322 283.398 53.5322C283.081 53.5322 282.813 53.6138 282.594 53.777C282.377 53.9402 282.213 54.1679 282.101 54.4602C281.989 54.7525 281.933 55.0935 281.933 55.4832Z" fill="black"/>
<path d="M278.716 9V1.51759H281.383C281.965 1.51759 282.447 1.62355 282.829 1.83545C283.212 2.04735 283.498 2.3372 283.688 2.70499C283.878 3.07034 283.973 3.48197 283.973 3.93988C283.973 4.40022 283.877 4.81429 283.684 5.18207C283.494 5.54742 283.207 5.83727 282.822 6.05161C282.44 6.26351 281.959 6.36947 281.379 6.36947H279.545V5.41224H281.277C281.645 5.41224 281.943 5.34892 282.172 5.22226C282.401 5.09317 282.569 4.9178 282.676 4.69616C282.783 4.47451 282.837 4.22242 282.837 3.93988C282.837 3.65734 282.783 3.40646 282.676 3.18725C282.569 2.96804 282.4 2.79633 282.168 2.67211C281.939 2.54789 281.637 2.48578 281.262 2.48578H279.845V9H278.716ZM285.209 9V3.3882H286.265V4.27965H286.323C286.425 3.97763 286.606 3.74015 286.864 3.56722C287.124 3.39185 287.419 3.30416 287.748 3.30416C287.816 3.30416 287.897 3.3066 287.989 3.31147C288.084 3.31634 288.158 3.32243 288.212 3.32974V4.37465C288.168 4.36247 288.09 4.34907 287.978 4.33446C287.866 4.31741 287.754 4.30888 287.642 4.30888C287.384 4.30888 287.154 4.36368 286.952 4.47329C286.752 4.58046 286.593 4.73025 286.477 4.92267C286.36 5.11266 286.301 5.32943 286.301 5.573V9H285.209ZM291.32 9.11326C290.794 9.11326 290.335 8.99269 289.943 8.75156C289.551 8.51043 289.246 8.17309 289.029 7.73954C288.813 7.30599 288.704 6.79936 288.704 6.21967C288.704 5.63754 288.813 5.12849 289.029 4.6925C289.246 4.25651 289.551 3.91796 289.943 3.67682C290.335 3.43569 290.794 3.31513 291.32 3.31513C291.846 3.31513 292.305 3.43569 292.698 3.67682C293.09 3.91796 293.394 4.25651 293.611 4.6925C293.828 5.12849 293.936 5.63754 293.936 6.21967C293.936 6.79936 293.828 7.30599 293.611 7.73954C293.394 8.17309 293.09 8.51043 292.698 8.75156C292.305 8.99269 291.846 9.11326 291.32 9.11326ZM291.324 8.19623C291.665 8.19623 291.947 8.10611 292.172 7.92587C292.396 7.74563 292.561 7.50571 292.668 7.20612C292.778 6.90653 292.833 6.5765 292.833 6.21602C292.833 5.85797 292.778 5.52916 292.668 5.22957C292.561 4.92754 292.396 4.68519 292.172 4.50252C291.947 4.31984 291.665 4.2285 291.324 4.2285C290.98 4.2285 290.695 4.31984 290.469 4.50252C290.245 4.68519 290.078 4.92754 289.968 5.22957C289.861 5.52916 289.808 5.85797 289.808 6.21602C289.808 6.5765 289.861 6.90653 289.968 7.20612C290.078 7.50571 290.245 7.74563 290.469 7.92587C290.695 8.10611 290.98 8.19623 291.324 8.19623ZM295.156 3.3882H296.248V9.36535C296.248 9.74045 296.18 10.0571 296.043 10.3153C295.909 10.5734 295.71 10.7695 295.444 10.9035C295.181 11.0374 294.856 11.1044 294.469 11.1044C294.43 11.1044 294.393 11.1044 294.359 11.1044C294.323 11.1044 294.285 11.1032 294.246 11.1008V10.1618C294.28 10.1618 294.31 10.1618 294.337 10.1618C294.361 10.1618 294.389 10.1618 294.421 10.1618C294.679 10.1618 294.866 10.0924 294.98 9.95357C295.097 9.81717 295.156 9.61866 295.156 9.35804V3.3882ZM295.696 2.52231C295.506 2.52231 295.343 2.45898 295.207 2.33233C295.073 2.20324 295.006 2.04979 295.006 1.87198C295.006 1.69174 295.073 1.5383 295.207 1.41164C295.343 1.28255 295.506 1.21801 295.696 1.21801C295.886 1.21801 296.048 1.28255 296.182 1.41164C296.319 1.5383 296.387 1.69174 296.387 1.87198C296.387 2.04979 296.319 2.20324 296.182 2.33233C296.048 2.45898 295.886 2.52231 295.696 2.52231ZM300.136 9.11326C299.583 9.11326 299.107 8.99513 298.708 8.75887C298.311 8.52017 298.004 8.18527 297.787 7.75415C297.573 7.3206 297.465 6.81276 297.465 6.23063C297.465 5.65581 297.573 5.14919 297.787 4.71077C298.004 4.27235 298.306 3.93013 298.693 3.68413C299.083 3.43813 299.538 3.31513 300.059 3.31513C300.376 3.31513 300.683 3.36749 300.98 3.47223C301.277 3.57696 301.544 3.74137 301.78 3.96545C302.017 4.18953 302.203 4.4806 302.339 4.83864C302.476 5.19425 302.544 5.62658 302.544 6.13564V6.52291H298.083V5.70453H301.473C301.473 5.41712 301.415 5.16259 301.298 4.94094C301.181 4.71686 301.017 4.54027 300.805 4.41118C300.595 4.28209 300.349 4.21754 300.067 4.21754C299.76 4.21754 299.492 4.29305 299.263 4.44406C299.036 4.59264 298.861 4.78749 298.737 5.02863C298.615 5.26732 298.554 5.52672 298.554 5.80682V6.44619C298.554 6.82129 298.62 7.14036 298.751 7.40341C298.885 7.66647 299.072 7.86741 299.31 8.00624C299.549 8.14264 299.828 8.21084 300.147 8.21084C300.354 8.21084 300.543 8.18161 300.713 8.12316C300.884 8.06226 301.031 7.97214 301.156 7.8528C301.28 7.73345 301.375 7.58609 301.44 7.41072L302.474 7.59705C302.392 7.90151 302.243 8.16822 302.029 8.39717C301.817 8.62369 301.55 8.80027 301.229 8.92693C300.91 9.05115 300.545 9.11326 300.136 9.11326ZM306.12 9.11326C305.577 9.11326 305.109 8.99026 304.717 8.74425C304.327 8.49581 304.027 8.1536 303.818 7.71761C303.609 7.28163 303.504 6.78231 303.504 6.21967C303.504 5.64972 303.611 5.14676 303.825 4.71077C304.04 4.27235 304.342 3.93013 304.731 3.68413C305.121 3.43813 305.58 3.31513 306.109 3.31513C306.535 3.31513 306.915 3.39428 307.249 3.5526C307.582 3.70849 307.851 3.9277 308.056 4.21024C308.263 4.49278 308.386 4.82281 308.425 5.20034H307.362C307.303 4.93729 307.17 4.71077 306.96 4.52079C306.753 4.3308 306.475 4.23581 306.127 4.23581C305.823 4.23581 305.556 4.31619 305.327 4.47694C305.1 4.63526 304.924 4.86178 304.797 5.1565C304.67 5.44878 304.607 5.79465 304.607 6.1941C304.607 6.60329 304.669 6.95647 304.793 7.25362C304.918 7.55077 305.093 7.78094 305.32 7.94413C305.549 8.10732 305.818 8.18892 306.127 8.18892C306.334 8.18892 306.522 8.15117 306.69 8.07566C306.86 7.99772 307.003 7.88689 307.117 7.74319C307.234 7.59948 307.316 7.42655 307.362 7.22439H308.425C308.386 7.58731 308.268 7.91125 308.071 8.19623C307.873 8.4812 307.609 8.70528 307.278 8.86847C306.949 9.03166 306.563 9.11326 306.12 9.11326ZM312.213 3.3882V4.26504H309.148V3.3882H312.213ZM309.97 2.0437H311.062V7.35226C311.062 7.56417 311.094 7.7237 311.157 7.83087C311.22 7.93561 311.302 8.00746 311.402 8.04643C311.504 8.08297 311.615 8.10123 311.734 8.10123C311.822 8.10123 311.899 8.09515 311.964 8.08297C312.03 8.07079 312.081 8.06105 312.118 8.05374L312.315 8.95616C312.252 8.98051 312.162 9.00487 312.045 9.02923C311.928 9.05602 311.782 9.07063 311.606 9.07307C311.319 9.07794 311.051 9.02679 310.803 8.91962C310.554 8.81245 310.353 8.64683 310.2 8.42274C310.046 8.19866 309.97 7.91734 309.97 7.57878V2.0437ZM313.407 9V8.18161L315.939 5.55839C316.209 5.27341 316.432 5.02375 316.607 4.80941C316.785 4.59264 316.918 4.38682 317.005 4.19197C317.093 3.99712 317.137 3.79008 317.137 3.57087C317.137 3.32243 317.078 3.10809 316.962 2.92785C316.845 2.74518 316.685 2.60512 316.483 2.5077C316.281 2.40783 316.053 2.3579 315.8 2.3579C315.532 2.3579 315.298 2.41271 315.098 2.52231C314.899 2.63192 314.745 2.78658 314.638 2.98631C314.531 3.18603 314.477 3.41986 314.477 3.68778H313.399C313.399 3.23231 313.504 2.83408 313.714 2.49308C313.923 2.15209 314.21 1.88782 314.576 1.70027C314.941 1.51029 315.356 1.4153 315.822 1.4153C316.292 1.4153 316.706 1.50907 317.064 1.69662C317.424 1.88173 317.706 2.13504 317.908 2.45655C318.11 2.77562 318.211 3.1361 318.211 3.53799C318.211 3.81566 318.159 4.08724 318.054 4.35272C317.952 4.61821 317.773 4.91415 317.517 5.24053C317.261 5.56447 316.906 5.95784 316.45 6.42062L314.963 7.97701V8.03182H318.332V9H313.407Z" fill="black"/>
<path d="M262.318 70.7935C262.318 70.249 261.876 69.8077 261.332 69.8077C260.788 69.8077 260.346 70.249 260.346 70.7935L262.318 70.7935ZM260.635 120.385C261.02 120.77 261.644 120.77 262.029 120.385L268.303 114.112C268.688 113.727 268.688 113.103 268.303 112.718C267.918 112.333 267.293 112.333 266.908 112.718L261.332 118.294L255.756 112.718C255.371 112.333 254.746 112.333 254.361 112.718C253.977 113.103 253.977 113.727 254.361 114.112L260.635 120.385ZM260.346 70.7935L260.346 119.688L262.318 119.688L262.318 70.7935L260.346 70.7935Z" fill="#4A4A4A"/>
<path d="M209.948 134.856C209.749 134.856 209.577 134.785 209.433 134.644C209.289 134.5 209.218 134.327 209.218 134.125C209.218 133.925 209.289 133.755 209.433 133.613C209.577 133.47 209.749 133.398 209.948 133.398C210.148 133.398 210.32 133.47 210.463 133.613C210.607 133.755 210.679 133.925 210.679 134.125C210.679 134.259 210.645 134.382 210.577 134.494C210.511 134.603 210.423 134.691 210.314 134.757C210.204 134.823 210.082 134.856 209.948 134.856ZM212.862 134.856C212.662 134.856 212.49 134.785 212.347 134.644C212.203 134.5 212.131 134.327 212.131 134.125C212.131 133.925 212.203 133.755 212.347 133.613C212.49 133.47 212.662 133.398 212.862 133.398C213.062 133.398 213.233 133.47 213.377 133.613C213.521 133.755 213.593 133.925 213.593 134.125C213.593 134.259 213.559 134.382 213.49 134.494C213.425 134.603 213.337 134.691 213.227 134.757C213.118 134.823 212.996 134.856 212.862 134.856ZM217.906 126.953L215.494 135.911H214.519L216.93 126.953H217.906ZM218.921 134.786V127.304H221.588C222.17 127.304 222.653 127.41 223.035 127.622C223.418 127.833 223.704 128.123 223.894 128.491C224.084 128.856 224.179 129.268 224.179 129.726C224.179 130.186 224.082 130.6 223.89 130.968C223.7 131.334 223.413 131.623 223.028 131.838C222.645 132.05 222.164 132.156 221.585 132.156H219.751V131.198H221.482C221.85 131.198 222.149 131.135 222.378 131.008C222.606 130.879 222.775 130.704 222.882 130.482C222.989 130.261 223.042 130.009 223.042 129.726C223.042 129.443 222.989 129.193 222.882 128.973C222.775 128.754 222.605 128.582 222.374 128.458C222.145 128.334 221.843 128.272 221.468 128.272H220.05V134.786H218.921ZM225.414 134.786V129.174H226.47V130.066H226.529C226.631 129.764 226.811 129.526 227.07 129.353C227.33 129.178 227.625 129.09 227.954 129.09C228.022 129.09 228.102 129.093 228.195 129.098C228.29 129.102 228.364 129.109 228.418 129.116V130.161C228.374 130.149 228.296 130.135 228.184 130.121C228.072 130.104 227.96 130.095 227.848 130.095C227.59 130.095 227.359 130.15 227.157 130.259C226.958 130.367 226.799 130.516 226.682 130.709C226.565 130.899 226.507 131.116 226.507 131.359V134.786H225.414ZM231.526 134.899C231 134.899 230.541 134.779 230.149 134.538C229.756 134.297 229.452 133.959 229.235 133.526C229.018 133.092 228.91 132.585 228.91 132.006C228.91 131.424 229.018 130.915 229.235 130.479C229.452 130.043 229.756 129.704 230.149 129.463C230.541 129.222 231 129.101 231.526 129.101C232.052 129.101 232.511 129.222 232.903 129.463C233.295 129.704 233.6 130.043 233.817 130.479C234.033 130.915 234.142 131.424 234.142 132.006C234.142 132.585 234.033 133.092 233.817 133.526C233.6 133.959 233.295 134.297 232.903 134.538C232.511 134.779 232.052 134.899 231.526 134.899ZM231.53 133.982C231.871 133.982 232.153 133.892 232.377 133.712C232.601 133.532 232.767 133.292 232.874 132.992C232.984 132.693 233.038 132.363 233.038 132.002C233.038 131.644 232.984 131.315 232.874 131.016C232.767 130.714 232.601 130.471 232.377 130.289C232.153 130.106 231.871 130.015 231.53 130.015C231.186 130.015 230.901 130.106 230.675 130.289C230.451 130.471 230.284 130.714 230.174 131.016C230.067 131.315 230.013 131.644 230.013 132.002C230.013 132.363 230.067 132.693 230.174 132.992C230.284 133.292 230.451 133.532 230.675 133.712C230.901 133.892 231.186 133.982 231.53 133.982ZM235.361 129.174H236.454V135.151C236.454 135.527 236.385 135.843 236.249 136.101C236.115 136.36 235.915 136.556 235.65 136.69C235.387 136.824 235.062 136.891 234.674 136.891C234.635 136.891 234.599 136.891 234.565 136.891C234.528 136.891 234.49 136.889 234.451 136.887V135.948C234.486 135.948 234.516 135.948 234.543 135.948C234.567 135.948 234.595 135.948 234.627 135.948C234.885 135.948 235.071 135.879 235.186 135.74C235.303 135.603 235.361 135.405 235.361 135.144V129.174ZM235.902 128.308C235.712 128.308 235.549 128.245 235.412 128.118C235.278 127.989 235.211 127.836 235.211 127.658C235.211 127.478 235.278 127.324 235.412 127.198C235.549 127.069 235.712 127.004 235.902 127.004C236.092 127.004 236.254 127.069 236.388 127.198C236.524 127.324 236.592 127.478 236.592 127.658C236.592 127.836 236.524 127.989 236.388 128.118C236.254 128.245 236.092 128.308 235.902 128.308ZM240.342 134.899C239.789 134.899 239.313 134.781 238.913 134.545C238.516 134.306 238.209 133.971 237.993 133.54C237.778 133.107 237.671 132.599 237.671 132.017C237.671 131.442 237.778 130.935 237.993 130.497C238.209 130.058 238.511 129.716 238.899 129.47C239.288 129.224 239.744 129.101 240.265 129.101C240.582 129.101 240.889 129.154 241.186 129.258C241.483 129.363 241.75 129.528 241.986 129.752C242.222 129.976 242.409 130.267 242.545 130.625C242.681 130.98 242.75 131.413 242.75 131.922V132.309H238.289V131.491H241.679C241.679 131.203 241.621 130.949 241.504 130.727C241.387 130.503 241.222 130.326 241.01 130.197C240.801 130.068 240.555 130.004 240.272 130.004C239.966 130.004 239.698 130.079 239.469 130.23C239.242 130.379 239.067 130.574 238.943 130.815C238.821 131.053 238.76 131.313 238.76 131.593V132.232C238.76 132.607 238.826 132.926 238.957 133.19C239.091 133.453 239.277 133.654 239.516 133.792C239.755 133.929 240.034 133.997 240.353 133.997C240.56 133.997 240.749 133.968 240.919 133.909C241.09 133.848 241.237 133.758 241.361 133.639C241.485 133.52 241.58 133.372 241.646 133.197L242.68 133.383C242.597 133.688 242.449 133.954 242.234 134.183C242.022 134.41 241.756 134.586 241.434 134.713C241.115 134.837 240.751 134.899 240.342 134.899ZM246.325 134.899C245.782 134.899 245.315 134.776 244.922 134.53C244.533 134.282 244.233 133.94 244.024 133.504C243.814 133.068 243.709 132.568 243.709 132.006C243.709 131.436 243.817 130.933 244.031 130.497C244.245 130.058 244.547 129.716 244.937 129.47C245.327 129.224 245.786 129.101 246.314 129.101C246.741 129.101 247.121 129.18 247.454 129.339C247.788 129.495 248.057 129.714 248.262 129.996C248.469 130.279 248.592 130.609 248.631 130.986H247.568C247.509 130.723 247.375 130.497 247.166 130.307C246.959 130.117 246.681 130.022 246.333 130.022C246.028 130.022 245.762 130.102 245.533 130.263C245.306 130.421 245.129 130.648 245.003 130.943C244.876 131.235 244.813 131.581 244.813 131.98C244.813 132.389 244.875 132.743 244.999 133.04C245.123 133.337 245.299 133.567 245.525 133.73C245.754 133.893 246.023 133.975 246.333 133.975C246.54 133.975 246.727 133.937 246.895 133.862C247.066 133.784 247.208 133.673 247.323 133.529C247.44 133.386 247.521 133.213 247.568 133.011H248.631C248.592 133.373 248.474 133.697 248.276 133.982C248.079 134.267 247.815 134.491 247.484 134.655C247.155 134.818 246.769 134.899 246.325 134.899ZM252.419 129.174V130.051H249.353V129.174H252.419ZM250.175 127.83H251.268V133.138C251.268 133.35 251.299 133.51 251.363 133.617C251.426 133.722 251.508 133.794 251.607 133.833C251.71 133.869 251.821 133.887 251.94 133.887C252.028 133.887 252.104 133.881 252.17 133.869C252.236 133.857 252.287 133.847 252.324 133.84L252.521 134.742C252.458 134.767 252.367 134.791 252.251 134.815C252.134 134.842 251.987 134.857 251.812 134.859C251.525 134.864 251.257 134.813 251.008 134.706C250.76 134.599 250.559 134.433 250.405 134.209C250.252 133.985 250.175 133.703 250.175 133.365V127.83ZM256.477 126.953L254.065 135.911H253.09L255.501 126.953H256.477ZM259.823 134.899C259.27 134.899 258.794 134.781 258.395 134.545C257.998 134.306 257.691 133.971 257.474 133.54C257.26 133.107 257.153 132.599 257.153 132.017C257.153 131.442 257.26 130.935 257.474 130.497C257.691 130.058 257.993 129.716 258.38 129.47C258.77 129.224 259.225 129.101 259.747 129.101C260.063 129.101 260.37 129.154 260.667 129.258C260.964 129.363 261.231 129.528 261.467 129.752C261.704 129.976 261.89 130.267 262.026 130.625C262.163 130.98 262.231 131.413 262.231 131.922V132.309H257.77V131.491H261.161C261.161 131.203 261.102 130.949 260.985 130.727C260.868 130.503 260.704 130.326 260.492 130.197C260.282 130.068 260.036 130.004 259.754 130.004C259.447 130.004 259.179 130.079 258.95 130.23C258.724 130.379 258.548 130.574 258.424 130.815C258.302 131.053 258.241 131.313 258.241 131.593V132.232C258.241 132.607 258.307 132.926 258.439 133.19C258.573 133.453 258.759 133.654 258.998 133.792C259.236 133.929 259.515 133.997 259.834 133.997C260.041 133.997 260.23 133.968 260.401 133.909C260.571 133.848 260.718 133.758 260.843 133.639C260.967 133.52 261.062 133.372 261.128 133.197L262.162 133.383C262.079 133.688 261.93 133.954 261.716 134.183C261.504 134.41 261.237 134.586 260.916 134.713C260.597 134.837 260.233 134.899 259.823 134.899ZM263.443 136.891V129.174H264.51V130.084H264.601C264.665 129.967 264.756 129.832 264.875 129.679C264.995 129.525 265.16 129.391 265.372 129.277C265.584 129.16 265.864 129.101 266.212 129.101C266.665 129.101 267.07 129.216 267.425 129.445C267.781 129.674 268.06 130.004 268.262 130.435C268.467 130.866 268.569 131.385 268.569 131.991C268.569 132.598 268.468 133.118 268.266 133.551C268.064 133.982 267.786 134.315 267.433 134.549C267.08 134.78 266.676 134.896 266.223 134.896C265.882 134.896 265.604 134.838 265.387 134.724C265.172 134.61 265.004 134.476 264.883 134.322C264.761 134.169 264.667 134.032 264.601 133.913H264.535V136.891H263.443ZM264.514 131.98C264.514 132.375 264.571 132.721 264.685 133.018C264.8 133.315 264.965 133.548 265.182 133.716C265.399 133.881 265.664 133.964 265.979 133.964C266.305 133.964 266.578 133.878 266.797 133.705C267.016 133.529 267.182 133.292 267.294 132.992C267.408 132.693 267.466 132.355 267.466 131.98C267.466 131.61 267.41 131.278 267.298 130.983C267.188 130.688 267.022 130.455 266.801 130.285C266.581 130.115 266.307 130.029 265.979 130.029C265.662 130.029 265.394 130.111 265.175 130.274C264.958 130.437 264.794 130.665 264.682 130.957C264.57 131.25 264.514 131.591 264.514 131.98ZM272.157 134.899C271.631 134.899 271.171 134.779 270.779 134.538C270.387 134.297 270.083 133.959 269.866 133.526C269.649 133.092 269.541 132.585 269.541 132.006C269.541 131.424 269.649 130.915 269.866 130.479C270.083 130.043 270.387 129.704 270.779 129.463C271.171 129.222 271.631 129.101 272.157 129.101C272.683 129.101 273.142 129.222 273.534 129.463C273.926 129.704 274.231 130.043 274.447 130.479C274.664 130.915 274.773 131.424 274.773 132.006C274.773 132.585 274.664 133.092 274.447 133.526C274.231 133.959 273.926 134.297 273.534 134.538C273.142 134.779 272.683 134.899 272.157 134.899ZM272.16 133.982C272.501 133.982 272.784 133.892 273.008 133.712C273.232 133.532 273.398 133.292 273.505 132.992C273.614 132.693 273.669 132.363 273.669 132.002C273.669 131.644 273.614 131.315 273.505 131.016C273.398 130.714 273.232 130.471 273.008 130.289C272.784 130.106 272.501 130.015 272.16 130.015C271.817 130.015 271.532 130.106 271.305 130.289C271.081 130.471 270.915 130.714 270.805 131.016C270.698 131.315 270.644 131.644 270.644 132.002C270.644 132.363 270.698 132.693 270.805 132.992C270.915 133.292 271.081 133.532 271.305 133.712C271.532 133.892 271.817 133.982 272.16 133.982ZM278.356 134.899C277.813 134.899 277.345 134.776 276.953 134.53C276.563 134.282 276.264 133.94 276.054 133.504C275.845 133.068 275.74 132.568 275.74 132.006C275.74 131.436 275.847 130.933 276.061 130.497C276.276 130.058 276.578 129.716 276.967 129.47C277.357 129.224 277.816 129.101 278.345 129.101C278.771 129.101 279.151 129.18 279.485 129.339C279.818 129.495 280.088 129.714 280.292 129.996C280.499 130.279 280.622 130.609 280.661 130.986H279.598C279.54 130.723 279.406 130.497 279.196 130.307C278.989 130.117 278.711 130.022 278.363 130.022C278.059 130.022 277.792 130.102 277.563 130.263C277.336 130.421 277.16 130.648 277.033 130.943C276.907 131.235 276.843 131.581 276.843 131.98C276.843 132.389 276.905 132.743 277.03 133.04C277.154 133.337 277.329 133.567 277.556 133.73C277.785 133.893 278.054 133.975 278.363 133.975C278.57 133.975 278.758 133.937 278.926 133.862C279.096 133.784 279.239 133.673 279.353 133.529C279.47 133.386 279.552 133.213 279.598 133.011H280.661C280.622 133.373 280.504 133.697 280.307 133.982C280.109 134.267 279.845 134.491 279.514 134.655C279.185 134.818 278.799 134.899 278.356 134.899ZM282.922 131.454V134.786H281.829V127.304H282.907V130.088H282.977C283.108 129.786 283.309 129.546 283.579 129.368C283.85 129.19 284.203 129.101 284.639 129.101C285.024 129.101 285.36 129.18 285.647 129.339C285.937 129.497 286.161 129.733 286.32 130.048C286.48 130.359 286.561 130.749 286.561 131.217V134.786H285.468V131.348C285.468 130.937 285.362 130.617 285.15 130.391C284.939 130.162 284.644 130.048 284.266 130.048C284.008 130.048 283.777 130.102 283.572 130.212C283.37 130.322 283.21 130.482 283.094 130.694C282.979 130.904 282.922 131.157 282.922 131.454ZM290.609 134.91C290.032 134.908 289.538 134.756 289.129 134.454C288.72 134.152 288.407 133.712 288.19 133.135C287.973 132.557 287.865 131.862 287.865 131.049C287.865 130.238 287.973 129.545 288.19 128.97C288.409 128.395 288.724 127.956 289.133 127.654C289.544 127.352 290.036 127.201 290.609 127.201C291.181 127.201 291.672 127.354 292.081 127.658C292.49 127.96 292.803 128.399 293.02 128.973C293.239 129.546 293.349 130.238 293.349 131.049C293.349 131.865 293.241 132.561 293.024 133.138C292.807 133.713 292.494 134.153 292.085 134.457C291.676 134.759 291.184 134.91 290.609 134.91ZM290.609 133.935C291.115 133.935 291.511 133.688 291.796 133.193C292.084 132.699 292.227 131.984 292.227 131.049C292.227 130.427 292.162 129.903 292.03 129.474C291.901 129.043 291.715 128.716 291.471 128.495C291.23 128.271 290.942 128.159 290.609 128.159C290.105 128.159 289.709 128.407 289.421 128.904C289.134 129.401 288.989 130.116 288.987 131.049C288.987 131.672 289.051 132.199 289.18 132.631C289.312 133.059 289.498 133.384 289.739 133.606C289.98 133.825 290.27 133.935 290.609 133.935ZM295.108 134.856C294.908 134.856 294.737 134.785 294.593 134.644C294.449 134.5 294.377 134.327 294.377 134.125C294.377 133.925 294.449 133.755 294.593 133.613C294.737 133.47 294.908 133.398 295.108 133.398C295.308 133.398 295.48 133.47 295.623 133.613C295.767 133.755 295.839 133.925 295.839 134.125C295.839 134.259 295.805 134.382 295.737 134.494C295.671 134.603 295.583 134.691 295.473 134.757C295.364 134.823 295.242 134.856 295.108 134.856ZM297.302 136.891V129.174H298.369V130.084H298.46C298.524 129.967 298.615 129.832 298.734 129.679C298.854 129.525 299.019 129.391 299.231 129.277C299.443 129.16 299.723 129.101 300.071 129.101C300.524 129.101 300.929 129.216 301.284 129.445C301.64 129.674 301.919 130.004 302.121 130.435C302.326 130.866 302.428 131.385 302.428 131.991C302.428 132.598 302.327 133.118 302.125 133.551C301.923 133.982 301.645 134.315 301.292 134.549C300.939 134.78 300.535 134.896 300.082 134.896C299.741 134.896 299.462 134.838 299.246 134.724C299.031 134.61 298.863 134.476 298.742 134.322C298.62 134.169 298.526 134.032 298.46 133.913H298.394V136.891H297.302ZM298.373 131.98C298.373 132.375 298.43 132.721 298.544 133.018C298.659 133.315 298.824 133.548 299.041 133.716C299.258 133.881 299.523 133.964 299.838 133.964C300.164 133.964 300.437 133.878 300.656 133.705C300.875 133.529 301.041 133.292 301.153 132.992C301.267 132.693 301.325 132.355 301.325 131.98C301.325 131.61 301.269 131.278 301.157 130.983C301.047 130.688 300.881 130.455 300.66 130.285C300.44 130.115 300.166 130.029 299.838 130.029C299.521 130.029 299.253 130.111 299.034 130.274C298.817 130.437 298.653 130.665 298.541 130.957C298.429 131.25 298.373 131.591 298.373 131.98ZM306.271 129.174V130.051H303.206V129.174H306.271ZM304.028 127.83H305.121V133.138C305.121 133.35 305.152 133.51 305.216 133.617C305.279 133.722 305.36 133.794 305.46 133.833C305.563 133.869 305.673 133.887 305.793 133.887C305.881 133.887 305.957 133.881 306.023 133.869C306.089 133.857 306.14 133.847 306.176 133.84L306.374 134.742C306.31 134.767 306.22 134.791 306.103 134.815C305.986 134.842 305.84 134.857 305.665 134.859C305.378 134.864 305.11 134.813 304.861 134.706C304.613 134.599 304.412 134.433 304.258 134.209C304.105 133.985 304.028 133.703 304.028 133.365V127.83Z" fill="black"/>
</g>
<defs>
<filter id="filter0_d_2076_460" x="0.0429688" y="0.802734" width="332.915" height="144.088" filterUnits="userSpaceOnUse" color-interpolation-filters="sRGB">
<feFlood flood-opacity="0" result="BackgroundImageFix"/>
<feColorMatrix in="SourceAlpha" type="matrix" values="0 0 0 0 0 0 0 0 0 0 0 0 0 0 0 0 0 0 127 0" result="hardAlpha"/>
<feOffset dy="4"/>
<feGaussianBlur stdDeviation="2"/>
<feComposite in2="hardAlpha" operator="out"/>
<feColorMatrix type="matrix" values="0 0 0 0 0 0 0 0 0 0 0 0 0 0 0 0 0 0 0.25 0"/>
<feBlend mode="normal" in2="BackgroundImageFix" result="effect1_dropShadow_2076_460"/>
<feBlend mode="normal" in="SourceGraphic" in2="effect1_dropShadow_2076_460" result="shape"/>
</filter>
</defs>
</svg>
