<svg width="361" height="213" viewBox="0 0 361 213" fill="none" xmlns="http://www.w3.org/2000/svg">
<path d="M135.404 67.858C128.837 61.0503 120.095 56.6381 110.541 55.3091C100.987 53.98 91.1568 55.8088 82.5836 60.5104L103.092 98.0488L135.404 67.858Z" fill="#4FD25E"/>
<path d="M97.9636 26.311C85.3202 26.6846 72.8985 30.3217 61.9481 36.8566C50.9978 43.3914 41.905 52.5935 35.5846 63.5371L97.9379 97.0201L97.9636 26.311Z" fill="#4FD25E"/>
<path d="M160.823 65.9439C156.51 58.4745 150.807 51.8934 144 46.5313L97.9379 102.251L160.823 65.9439Z" fill="#4FD25E"/>
<path d="M83.3825 126.822V115.954H85.0222V125.411H89.9467V126.822H83.3825ZM91.6899 126.822V118.671H93.2766V126.822H91.6899ZM92.4912 117.414C92.2153 117.414 91.9783 117.322 91.7802 117.138C91.5856 116.95 91.4883 116.727 91.4883 116.469C91.4883 116.207 91.5856 115.984 91.7802 115.8C91.9783 115.613 92.2153 115.519 92.4912 115.519C92.7672 115.519 93.0024 115.613 93.197 115.8C93.3951 115.984 93.4942 116.207 93.4942 116.469C93.4942 116.727 93.3951 116.95 93.197 117.138C93.0024 117.322 92.7672 117.414 92.4912 117.414ZM98.4625 126.981C97.8045 126.981 97.2172 126.813 96.7007 126.477C96.1877 126.138 95.7844 125.655 95.4908 125.029C95.2007 124.399 95.0556 123.644 95.0556 122.763C95.0556 121.882 95.2025 121.128 95.4961 120.502C95.7933 119.876 96.2001 119.397 96.7166 119.064C97.2331 118.731 97.8186 118.565 98.4731 118.565C98.979 118.565 99.3858 118.65 99.6936 118.82C100.005 118.986 100.245 119.181 100.415 119.404C100.589 119.627 100.723 119.823 100.819 119.993H100.914V115.954H102.501V126.822H100.951V125.554H100.819C100.723 125.727 100.585 125.925 100.405 126.148C100.228 126.371 99.9837 126.566 99.6724 126.732C99.3611 126.898 98.9578 126.981 98.4625 126.981ZM98.8127 125.628C99.2691 125.628 99.6547 125.508 99.9696 125.267C100.288 125.023 100.529 124.685 100.691 124.254C100.858 123.822 100.941 123.32 100.941 122.747C100.941 122.181 100.859 121.685 100.697 121.261C100.534 120.836 100.295 120.506 99.9802 120.269C99.6653 120.032 99.2762 119.913 98.8127 119.913C98.3351 119.913 97.9371 120.037 97.6187 120.285C97.3003 120.532 97.0598 120.87 96.897 121.298C96.7378 121.726 96.6582 122.209 96.6582 122.747C96.6582 123.292 96.7396 123.782 96.9023 124.217C97.0651 124.652 97.3056 124.997 97.624 125.252C97.946 125.503 98.3422 125.628 98.8127 125.628ZM107.137 127.003C106.621 127.003 106.154 126.907 105.736 126.716C105.319 126.522 104.988 126.24 104.744 125.872C104.504 125.504 104.383 125.053 104.383 124.519C104.383 124.059 104.472 123.681 104.649 123.384C104.826 123.086 105.064 122.851 105.365 122.678C105.666 122.504 106.002 122.374 106.373 122.285C106.745 122.197 107.123 122.129 107.509 122.083C107.997 122.027 108.393 121.981 108.698 121.946C109.002 121.907 109.223 121.845 109.361 121.76C109.499 121.675 109.568 121.537 109.568 121.346V121.309C109.568 120.845 109.437 120.486 109.175 120.231C108.917 119.977 108.531 119.849 108.018 119.849C107.484 119.849 107.063 119.968 106.755 120.205C106.451 120.438 106.241 120.698 106.124 120.985L104.633 120.645C104.81 120.15 105.068 119.75 105.407 119.446C105.751 119.138 106.145 118.915 106.591 118.777C107.037 118.636 107.505 118.565 107.997 118.565C108.323 118.565 108.668 118.604 109.032 118.682C109.4 118.756 109.743 118.894 110.061 119.096C110.383 119.298 110.647 119.586 110.852 119.961C111.057 120.332 111.16 120.815 111.16 121.41V126.822H109.61V125.708H109.547C109.444 125.913 109.29 126.115 109.085 126.313C108.88 126.511 108.616 126.675 108.294 126.806C107.972 126.937 107.587 127.003 107.137 127.003ZM107.482 125.729C107.921 125.729 108.296 125.642 108.607 125.469C108.922 125.296 109.161 125.069 109.324 124.79C109.49 124.507 109.573 124.204 109.573 123.882V122.832C109.517 122.888 109.407 122.941 109.244 122.991C109.085 123.037 108.903 123.078 108.698 123.113C108.492 123.145 108.293 123.175 108.098 123.203C107.903 123.228 107.741 123.249 107.61 123.267C107.302 123.306 107.021 123.371 106.766 123.463C106.515 123.555 106.313 123.688 106.161 123.861C106.012 124.031 105.938 124.257 105.938 124.54C105.938 124.933 106.083 125.23 106.373 125.432C106.663 125.63 107.033 125.729 107.482 125.729ZM113.273 126.822V118.671H114.807V119.966H114.892C115.04 119.527 115.302 119.183 115.677 118.931C116.056 118.677 116.484 118.549 116.961 118.549C117.06 118.549 117.177 118.553 117.312 118.56C117.449 118.567 117.557 118.576 117.635 118.586V120.104C117.572 120.086 117.458 120.067 117.296 120.046C117.133 120.021 116.97 120.009 116.807 120.009C116.432 120.009 116.098 120.088 115.804 120.247C115.514 120.403 115.284 120.621 115.115 120.9C114.945 121.176 114.86 121.491 114.86 121.845V126.822H113.273Z" fill="white"/>
<g filter="url(#filter0_d_2082_611)">
<circle cx="115.811" cy="53.7963" r="17.9321" fill="#5161F1"/>
</g>
<path d="M109.858 53.4843V53.8054C109.858 54.2468 109.8 54.6428 109.685 54.9933C109.57 55.3437 109.406 55.6421 109.191 55.8882C108.98 56.1343 108.726 56.3229 108.429 56.454C108.132 56.5825 107.803 56.6467 107.442 56.6467C107.083 56.6467 106.756 56.5825 106.459 56.454C106.164 56.3229 105.909 56.1343 105.692 55.8882C105.475 55.6421 105.307 55.3437 105.186 54.9933C105.069 54.6428 105.01 54.2468 105.01 53.8054V53.4843C105.01 53.0429 105.069 52.6483 105.186 52.3005C105.304 51.95 105.47 51.6517 105.684 51.4055C105.901 51.1567 106.156 50.9681 106.451 50.8397C106.747 50.7086 107.075 50.6431 107.434 50.6431C107.795 50.6431 108.124 50.7086 108.421 50.8397C108.718 50.9681 108.973 51.1567 109.187 51.4055C109.402 51.6517 109.566 51.95 109.681 52.3005C109.799 52.6483 109.858 53.0429 109.858 53.4843ZM108.85 53.8054V53.4763C108.85 53.1499 108.818 52.8623 108.754 52.6135C108.693 52.362 108.6 52.152 108.477 51.9834C108.357 51.8122 108.208 51.6838 108.032 51.5982C107.855 51.5099 107.656 51.4657 107.434 51.4657C107.212 51.4657 107.014 51.5099 106.84 51.5982C106.666 51.6838 106.517 51.8122 106.394 51.9834C106.274 52.152 106.182 52.362 106.117 52.6135C106.053 52.8623 106.021 53.1499 106.021 53.4763V53.8054C106.021 54.1318 106.053 54.4207 106.117 54.6722C106.182 54.9237 106.275 55.1364 106.398 55.3103C106.524 55.4815 106.674 55.6113 106.848 55.6996C107.022 55.7852 107.22 55.828 107.442 55.828C107.666 55.828 107.866 55.7852 108.04 55.6996C108.214 55.6113 108.361 55.4815 108.481 55.3103C108.602 55.1364 108.693 54.9237 108.754 54.6722C108.818 54.4207 108.85 54.1318 108.85 53.8054ZM110.773 50.4023H111.74V55.6394L111.648 56.5664H110.773V50.4023ZM114.573 54.3552V54.4395C114.573 54.7605 114.537 55.0561 114.465 55.3264C114.395 55.5939 114.288 55.8267 114.144 56.0246C114.002 56.2226 113.825 56.3765 113.614 56.4861C113.405 56.5932 113.163 56.6467 112.888 56.6467C112.617 56.6467 112.382 56.5958 112.181 56.4942C111.981 56.3925 111.812 56.248 111.676 56.0608C111.542 55.8735 111.433 55.6501 111.351 55.3906C111.268 55.131 111.209 54.8448 111.174 54.5318V54.2629C111.209 53.9472 111.268 53.6609 111.351 53.4041C111.433 53.1446 111.542 52.9212 111.676 52.7339C111.812 52.5439 111.979 52.3981 112.177 52.2965C112.378 52.1948 112.612 52.144 112.88 52.144C113.158 52.144 113.403 52.1975 113.614 52.3045C113.828 52.4115 114.006 52.564 114.148 52.762C114.289 52.9573 114.395 53.19 114.465 53.4603C114.537 53.7305 114.573 54.0288 114.573 54.3552ZM113.606 54.4395V54.3552C113.606 54.1599 113.59 53.9766 113.558 53.8054C113.526 53.6315 113.472 53.479 113.397 53.3479C113.325 53.2168 113.226 53.1138 113.1 53.0389C112.977 52.9613 112.823 52.9225 112.639 52.9225C112.468 52.9225 112.32 52.9519 112.197 53.0108C112.074 53.0696 111.971 53.1499 111.888 53.2516C111.805 53.3532 111.74 53.471 111.692 53.6047C111.646 53.7385 111.615 53.883 111.599 54.0381V54.7645C111.623 54.9652 111.674 55.1498 111.752 55.3183C111.832 55.4842 111.944 55.618 112.089 55.7196C112.233 55.8186 112.419 55.8681 112.647 55.8681C112.826 55.8681 112.977 55.832 113.1 55.7598C113.223 55.6875 113.321 55.5872 113.393 55.4588C113.468 55.3277 113.522 55.1752 113.554 55.0013C113.589 54.8274 113.606 54.6401 113.606 54.4395ZM115.44 52.2242H116.411V56.9436C116.411 57.2406 116.36 57.4908 116.259 57.6941C116.157 57.9001 116.007 58.0553 115.809 58.1596C115.611 58.2666 115.369 58.3201 115.083 58.3201C114.997 58.3201 114.909 58.3134 114.818 58.3001C114.724 58.2894 114.636 58.2733 114.553 58.2519L114.557 57.4974C114.613 57.5082 114.673 57.5162 114.738 57.5215C114.799 57.5296 114.858 57.5336 114.914 57.5336C115.029 57.5336 115.126 57.5135 115.203 57.4734C115.281 57.4332 115.34 57.3704 115.38 57.2848C115.42 57.1991 115.44 57.0854 115.44 56.9436V52.2242ZM115.356 51.0845C115.356 50.9373 115.405 50.8156 115.504 50.7193C115.603 50.6203 115.738 50.5708 115.909 50.5708C116.083 50.5708 116.218 50.6203 116.315 50.7193C116.414 50.8156 116.463 50.9373 116.463 51.0845C116.463 51.229 116.414 51.3494 116.315 51.4457C116.218 51.542 116.083 51.5901 115.909 51.5901C115.738 51.5901 115.603 51.542 115.504 51.4457C115.405 51.3494 115.356 51.229 115.356 51.0845ZM119.369 56.6467C119.048 56.6467 118.757 56.5945 118.498 56.4902C118.241 56.3831 118.022 56.2347 117.84 56.0447C117.66 55.8547 117.523 55.6314 117.426 55.3745C117.33 55.1177 117.282 54.8408 117.282 54.5438V54.3833C117.282 54.0435 117.331 53.7358 117.43 53.4603C117.529 53.1847 117.667 52.9493 117.844 52.7539C118.02 52.556 118.229 52.4048 118.47 52.3005C118.711 52.1961 118.971 52.144 119.252 52.144C119.563 52.144 119.834 52.1961 120.067 52.3005C120.3 52.4048 120.492 52.552 120.645 52.7419C120.8 52.9292 120.915 53.1526 120.99 53.4121C121.068 53.6716 121.106 53.9579 121.106 54.2709V54.6843H117.751V53.99H120.151V53.9137C120.146 53.7398 120.111 53.5766 120.047 53.4241C119.985 53.2716 119.89 53.1486 119.762 53.0549C119.634 52.9613 119.462 52.9145 119.248 52.9145C119.088 52.9145 118.945 52.9493 118.819 53.0188C118.696 53.0857 118.593 53.1834 118.51 53.3118C118.427 53.4402 118.363 53.5954 118.317 53.7773C118.274 53.9565 118.253 54.1585 118.253 54.3833V54.5438C118.253 54.7338 118.279 54.9103 118.329 55.0735C118.383 55.2341 118.46 55.3745 118.562 55.4949C118.664 55.6153 118.787 55.7103 118.931 55.7798C119.076 55.8467 119.24 55.8802 119.425 55.8802C119.658 55.8802 119.865 55.8333 120.047 55.7397C120.229 55.6461 120.387 55.5136 120.521 55.3424L121.03 55.836C120.937 55.9725 120.815 56.1036 120.665 56.2293C120.515 56.3524 120.332 56.4527 120.115 56.5303C119.901 56.6079 119.652 56.6467 119.369 56.6467ZM123.635 55.8762C123.793 55.8762 123.934 55.8454 124.06 55.7838C124.188 55.7196 124.291 55.6314 124.369 55.519C124.449 55.4066 124.493 55.2769 124.502 55.1297H125.412C125.407 55.4106 125.324 55.6661 125.164 55.8962C125.003 56.1263 124.79 56.3096 124.526 56.446C124.261 56.5798 123.968 56.6467 123.647 56.6467C123.315 56.6467 123.026 56.5905 122.78 56.4781C122.534 56.3631 122.329 56.2052 122.166 56.0046C122.003 55.8039 121.88 55.5725 121.797 55.3103C121.716 55.0481 121.676 54.7672 121.676 54.4675V54.3271C121.676 54.0274 121.716 53.7465 121.797 53.4843C121.88 53.2195 122.003 52.9867 122.166 52.7861C122.329 52.5854 122.534 52.4289 122.78 52.3165C123.026 52.2015 123.314 52.144 123.643 52.144C123.991 52.144 124.296 52.2135 124.558 52.3526C124.82 52.4891 125.026 52.6804 125.176 52.9265C125.328 53.17 125.407 53.4536 125.412 53.7773H124.502C124.493 53.6168 124.453 53.4723 124.381 53.3439C124.312 53.2128 124.213 53.1084 124.084 53.0309C123.958 52.9533 123.807 52.9145 123.631 52.9145C123.435 52.9145 123.273 52.9546 123.145 53.0349C123.017 53.1125 122.916 53.2195 122.844 53.3559C122.772 53.4897 122.72 53.6408 122.688 53.8094C122.658 53.9753 122.643 54.1478 122.643 54.3271V54.4675C122.643 54.6468 122.658 54.8207 122.688 54.9893C122.717 55.1578 122.768 55.309 122.84 55.4427C122.915 55.5738 123.017 55.6795 123.145 55.7598C123.273 55.8374 123.437 55.8762 123.635 55.8762ZM128.145 52.2242V52.9305H125.697V52.2242H128.145ZM126.404 51.1607H127.371V55.3665C127.371 55.5003 127.39 55.6033 127.427 55.6755C127.467 55.7451 127.522 55.7919 127.592 55.816C127.661 55.84 127.743 55.8521 127.836 55.8521C127.903 55.8521 127.968 55.8481 128.029 55.84C128.091 55.832 128.14 55.824 128.178 55.816L128.182 56.5544C128.101 56.5784 128.008 56.5998 127.901 56.6186C127.796 56.6373 127.676 56.6467 127.539 56.6467C127.317 56.6467 127.121 56.6079 126.95 56.5303C126.778 56.45 126.645 56.3203 126.548 56.141C126.452 55.9618 126.404 55.7237 126.404 55.4267V51.1607Z" fill="black"/>
<path d="M135.404 67.858C128.837 61.0503 120.095 56.6381 110.541 55.3091C100.987 53.98 91.1568 55.8088 82.5836 60.5104L103.092 98.0488L135.404 67.858Z" fill="#4FD25E"/>
<path d="M97.9636 26.311C85.3202 26.6846 72.8985 30.3217 61.9481 36.8566C50.9978 43.3914 41.905 52.5935 35.5846 63.5371L97.9379 97.0201L97.9636 26.311Z" fill="#4FD25E"/>
<path d="M160.823 65.9439C156.51 58.4745 150.807 51.8934 144 46.5313L97.9379 102.251L160.823 65.9439Z" fill="#4FD25E"/>
<path d="M83.3825 126.822V115.954H85.0222V125.411H89.9467V126.822H83.3825ZM91.6899 126.822V118.671H93.2766V126.822H91.6899ZM92.4912 117.414C92.2153 117.414 91.9783 117.322 91.7802 117.138C91.5856 116.95 91.4883 116.727 91.4883 116.469C91.4883 116.207 91.5856 115.984 91.7802 115.8C91.9783 115.613 92.2153 115.519 92.4912 115.519C92.7672 115.519 93.0024 115.613 93.197 115.8C93.3951 115.984 93.4942 116.207 93.4942 116.469C93.4942 116.727 93.3951 116.95 93.197 117.138C93.0024 117.322 92.7672 117.414 92.4912 117.414ZM98.4625 126.981C97.8045 126.981 97.2172 126.813 96.7007 126.477C96.1877 126.138 95.7844 125.655 95.4908 125.029C95.2007 124.399 95.0556 123.644 95.0556 122.763C95.0556 121.882 95.2025 121.128 95.4961 120.502C95.7933 119.876 96.2001 119.397 96.7166 119.064C97.2331 118.731 97.8186 118.565 98.4731 118.565C98.979 118.565 99.3858 118.65 99.6936 118.82C100.005 118.986 100.245 119.181 100.415 119.404C100.589 119.627 100.723 119.823 100.819 119.993H100.914V115.954H102.501V126.822H100.951V125.554H100.819C100.723 125.727 100.585 125.925 100.405 126.148C100.228 126.371 99.9837 126.566 99.6724 126.732C99.3611 126.898 98.9578 126.981 98.4625 126.981ZM98.8127 125.628C99.2691 125.628 99.6547 125.508 99.9696 125.267C100.288 125.023 100.529 124.685 100.691 124.254C100.858 123.822 100.941 123.32 100.941 122.747C100.941 122.181 100.859 121.685 100.697 121.261C100.534 120.836 100.295 120.506 99.9802 120.269C99.6653 120.032 99.2762 119.913 98.8127 119.913C98.3351 119.913 97.9371 120.037 97.6187 120.285C97.3003 120.532 97.0598 120.87 96.897 121.298C96.7378 121.726 96.6582 122.209 96.6582 122.747C96.6582 123.292 96.7396 123.782 96.9023 124.217C97.0651 124.652 97.3056 124.997 97.624 125.252C97.946 125.503 98.3422 125.628 98.8127 125.628ZM107.137 127.003C106.621 127.003 106.154 126.907 105.736 126.716C105.319 126.522 104.988 126.24 104.744 125.872C104.504 125.504 104.383 125.053 104.383 124.519C104.383 124.059 104.472 123.681 104.649 123.384C104.826 123.086 105.064 122.851 105.365 122.678C105.666 122.504 106.002 122.374 106.373 122.285C106.745 122.197 107.123 122.129 107.509 122.083C107.997 122.027 108.393 121.981 108.698 121.946C109.002 121.907 109.223 121.845 109.361 121.76C109.499 121.675 109.568 121.537 109.568 121.346V121.309C109.568 120.845 109.437 120.486 109.175 120.231C108.917 119.977 108.531 119.849 108.018 119.849C107.484 119.849 107.063 119.968 106.755 120.205C106.451 120.438 106.241 120.698 106.124 120.985L104.633 120.645C104.81 120.15 105.068 119.75 105.407 119.446C105.751 119.138 106.145 118.915 106.591 118.777C107.037 118.636 107.505 118.565 107.997 118.565C108.323 118.565 108.668 118.604 109.032 118.682C109.4 118.756 109.743 118.894 110.061 119.096C110.383 119.298 110.647 119.586 110.852 119.961C111.057 120.332 111.16 120.815 111.16 121.41V126.822H109.61V125.708H109.547C109.444 125.913 109.29 126.115 109.085 126.313C108.88 126.511 108.616 126.675 108.294 126.806C107.972 126.937 107.587 127.003 107.137 127.003ZM107.482 125.729C107.921 125.729 108.296 125.642 108.607 125.469C108.922 125.296 109.161 125.069 109.324 124.79C109.49 124.507 109.573 124.204 109.573 123.882V122.832C109.517 122.888 109.407 122.941 109.244 122.991C109.085 123.037 108.903 123.078 108.698 123.113C108.492 123.145 108.293 123.175 108.098 123.203C107.903 123.228 107.741 123.249 107.61 123.267C107.302 123.306 107.021 123.371 106.766 123.463C106.515 123.555 106.313 123.688 106.161 123.861C106.012 124.031 105.938 124.257 105.938 124.54C105.938 124.933 106.083 125.23 106.373 125.432C106.663 125.63 107.033 125.729 107.482 125.729ZM113.273 126.822V118.671H114.807V119.966H114.892C115.04 119.527 115.302 119.183 115.677 118.931C116.056 118.677 116.484 118.549 116.961 118.549C117.06 118.549 117.177 118.553 117.312 118.56C117.449 118.567 117.557 118.576 117.635 118.586V120.104C117.572 120.086 117.458 120.067 117.296 120.046C117.133 120.021 116.97 120.009 116.807 120.009C116.432 120.009 116.098 120.088 115.804 120.247C115.514 120.403 115.284 120.621 115.115 120.9C114.945 121.176 114.86 121.491 114.86 121.845V126.822H113.273Z" fill="white"/>
<g filter="url(#filter1_d_2082_611)">
<circle cx="115.811" cy="53.7963" r="17.9321" fill="#5161F1"/>
</g>
<path d="M109.858 53.4843V53.8054C109.858 54.2468 109.8 54.6428 109.685 54.9933C109.57 55.3437 109.406 55.6421 109.191 55.8882C108.98 56.1343 108.726 56.3229 108.429 56.454C108.132 56.5825 107.803 56.6467 107.442 56.6467C107.083 56.6467 106.756 56.5825 106.459 56.454C106.164 56.3229 105.909 56.1343 105.692 55.8882C105.475 55.6421 105.307 55.3437 105.186 54.9933C105.069 54.6428 105.01 54.2468 105.01 53.8054V53.4843C105.01 53.0429 105.069 52.6483 105.186 52.3005C105.304 51.95 105.47 51.6517 105.684 51.4055C105.901 51.1567 106.156 50.9681 106.451 50.8397C106.747 50.7086 107.075 50.6431 107.434 50.6431C107.795 50.6431 108.124 50.7086 108.421 50.8397C108.718 50.9681 108.973 51.1567 109.187 51.4055C109.402 51.6517 109.566 51.95 109.681 52.3005C109.799 52.6483 109.858 53.0429 109.858 53.4843ZM108.85 53.8054V53.4763C108.85 53.1499 108.818 52.8623 108.754 52.6135C108.693 52.362 108.6 52.152 108.477 51.9834C108.357 51.8122 108.208 51.6838 108.032 51.5982C107.855 51.5099 107.656 51.4657 107.434 51.4657C107.212 51.4657 107.014 51.5099 106.84 51.5982C106.666 51.6838 106.517 51.8122 106.394 51.9834C106.274 52.152 106.182 52.362 106.117 52.6135C106.053 52.8623 106.021 53.1499 106.021 53.4763V53.8054C106.021 54.1318 106.053 54.4207 106.117 54.6722C106.182 54.9237 106.275 55.1364 106.398 55.3103C106.524 55.4815 106.674 55.6113 106.848 55.6996C107.022 55.7852 107.22 55.828 107.442 55.828C107.666 55.828 107.866 55.7852 108.04 55.6996C108.214 55.6113 108.361 55.4815 108.481 55.3103C108.602 55.1364 108.693 54.9237 108.754 54.6722C108.818 54.4207 108.85 54.1318 108.85 53.8054ZM110.773 50.4023H111.74V55.6394L111.648 56.5664H110.773V50.4023ZM114.573 54.3552V54.4395C114.573 54.7605 114.537 55.0561 114.465 55.3264C114.395 55.5939 114.288 55.8267 114.144 56.0246C114.002 56.2226 113.825 56.3765 113.614 56.4861C113.405 56.5932 113.163 56.6467 112.888 56.6467C112.617 56.6467 112.382 56.5958 112.181 56.4942C111.981 56.3925 111.812 56.248 111.676 56.0608C111.542 55.8735 111.433 55.6501 111.351 55.3906C111.268 55.131 111.209 54.8448 111.174 54.5318V54.2629C111.209 53.9472 111.268 53.6609 111.351 53.4041C111.433 53.1446 111.542 52.9212 111.676 52.7339C111.812 52.5439 111.979 52.3981 112.177 52.2965C112.378 52.1948 112.612 52.144 112.88 52.144C113.158 52.144 113.403 52.1975 113.614 52.3045C113.828 52.4115 114.006 52.564 114.148 52.762C114.289 52.9573 114.395 53.19 114.465 53.4603C114.537 53.7305 114.573 54.0288 114.573 54.3552ZM113.606 54.4395V54.3552C113.606 54.1599 113.59 53.9766 113.558 53.8054C113.526 53.6315 113.472 53.479 113.397 53.3479C113.325 53.2168 113.226 53.1138 113.1 53.0389C112.977 52.9613 112.823 52.9225 112.639 52.9225C112.468 52.9225 112.32 52.9519 112.197 53.0108C112.074 53.0696 111.971 53.1499 111.888 53.2516C111.805 53.3532 111.74 53.471 111.692 53.6047C111.646 53.7385 111.615 53.883 111.599 54.0381V54.7645C111.623 54.9652 111.674 55.1498 111.752 55.3183C111.832 55.4842 111.944 55.618 112.089 55.7196C112.233 55.8186 112.419 55.8681 112.647 55.8681C112.826 55.8681 112.977 55.832 113.1 55.7598C113.223 55.6875 113.321 55.5872 113.393 55.4588C113.468 55.3277 113.522 55.1752 113.554 55.0013C113.589 54.8274 113.606 54.6401 113.606 54.4395ZM115.44 52.2242H116.411V56.9436C116.411 57.2406 116.36 57.4908 116.259 57.6941C116.157 57.9001 116.007 58.0553 115.809 58.1596C115.611 58.2666 115.369 58.3201 115.083 58.3201C114.997 58.3201 114.909 58.3134 114.818 58.3001C114.724 58.2894 114.636 58.2733 114.553 58.2519L114.557 57.4974C114.613 57.5082 114.673 57.5162 114.738 57.5215C114.799 57.5296 114.858 57.5336 114.914 57.5336C115.029 57.5336 115.126 57.5135 115.203 57.4734C115.281 57.4332 115.34 57.3704 115.38 57.2848C115.42 57.1991 115.44 57.0854 115.44 56.9436V52.2242ZM115.356 51.0845C115.356 50.9373 115.405 50.8156 115.504 50.7193C115.603 50.6203 115.738 50.5708 115.909 50.5708C116.083 50.5708 116.218 50.6203 116.315 50.7193C116.414 50.8156 116.463 50.9373 116.463 51.0845C116.463 51.229 116.414 51.3494 116.315 51.4457C116.218 51.542 116.083 51.5901 115.909 51.5901C115.738 51.5901 115.603 51.542 115.504 51.4457C115.405 51.3494 115.356 51.229 115.356 51.0845ZM119.369 56.6467C119.048 56.6467 118.757 56.5945 118.498 56.4902C118.241 56.3831 118.022 56.2347 117.84 56.0447C117.66 55.8547 117.523 55.6314 117.426 55.3745C117.33 55.1177 117.282 54.8408 117.282 54.5438V54.3833C117.282 54.0435 117.331 53.7358 117.43 53.4603C117.529 53.1847 117.667 52.9493 117.844 52.7539C118.02 52.556 118.229 52.4048 118.47 52.3005C118.711 52.1961 118.971 52.144 119.252 52.144C119.563 52.144 119.834 52.1961 120.067 52.3005C120.3 52.4048 120.492 52.552 120.645 52.7419C120.8 52.9292 120.915 53.1526 120.99 53.4121C121.068 53.6716 121.106 53.9579 121.106 54.2709V54.6843H117.751V53.99H120.151V53.9137C120.146 53.7398 120.111 53.5766 120.047 53.4241C119.985 53.2716 119.89 53.1486 119.762 53.0549C119.634 52.9613 119.462 52.9145 119.248 52.9145C119.088 52.9145 118.945 52.9493 118.819 53.0188C118.696 53.0857 118.593 53.1834 118.51 53.3118C118.427 53.4402 118.363 53.5954 118.317 53.7773C118.274 53.9565 118.253 54.1585 118.253 54.3833V54.5438C118.253 54.7338 118.279 54.9103 118.329 55.0735C118.383 55.2341 118.46 55.3745 118.562 55.4949C118.664 55.6153 118.787 55.7103 118.931 55.7798C119.076 55.8467 119.24 55.8802 119.425 55.8802C119.658 55.8802 119.865 55.8333 120.047 55.7397C120.229 55.6461 120.387 55.5136 120.521 55.3424L121.03 55.836C120.937 55.9725 120.815 56.1036 120.665 56.2293C120.515 56.3524 120.332 56.4527 120.115 56.5303C119.901 56.6079 119.652 56.6467 119.369 56.6467ZM123.635 55.8762C123.793 55.8762 123.934 55.8454 124.06 55.7838C124.188 55.7196 124.291 55.6314 124.369 55.519C124.449 55.4066 124.493 55.2769 124.502 55.1297H125.412C125.407 55.4106 125.324 55.6661 125.164 55.8962C125.003 56.1263 124.79 56.3096 124.526 56.446C124.261 56.5798 123.968 56.6467 123.647 56.6467C123.315 56.6467 123.026 56.5905 122.78 56.4781C122.534 56.3631 122.329 56.2052 122.166 56.0046C122.003 55.8039 121.88 55.5725 121.797 55.3103C121.716 55.0481 121.676 54.7672 121.676 54.4675V54.3271C121.676 54.0274 121.716 53.7465 121.797 53.4843C121.88 53.2195 122.003 52.9867 122.166 52.7861C122.329 52.5854 122.534 52.4289 122.78 52.3165C123.026 52.2015 123.314 52.144 123.643 52.144C123.991 52.144 124.296 52.2135 124.558 52.3526C124.82 52.4891 125.026 52.6804 125.176 52.9265C125.328 53.17 125.407 53.4536 125.412 53.7773H124.502C124.493 53.6168 124.453 53.4723 124.381 53.3439C124.312 53.2128 124.213 53.1084 124.084 53.0309C123.958 52.9533 123.807 52.9145 123.631 52.9145C123.435 52.9145 123.273 52.9546 123.145 53.0349C123.017 53.1125 122.916 53.2195 122.844 53.3559C122.772 53.4897 122.72 53.6408 122.688 53.8094C122.658 53.9753 122.643 54.1478 122.643 54.3271V54.4675C122.643 54.6468 122.658 54.8207 122.688 54.9893C122.717 55.1578 122.768 55.309 122.84 55.4427C122.915 55.5738 123.017 55.6795 123.145 55.7598C123.273 55.8374 123.437 55.8762 123.635 55.8762ZM128.145 52.2242V52.9305H125.697V52.2242H128.145ZM126.404 51.1607H127.371V55.3665C127.371 55.5003 127.39 55.6033 127.427 55.6755C127.467 55.7451 127.522 55.7919 127.592 55.816C127.661 55.84 127.743 55.8521 127.836 55.8521C127.903 55.8521 127.968 55.8481 128.029 55.84C128.091 55.832 128.14 55.824 128.178 55.816L128.182 56.5544C128.101 56.5784 128.008 56.5998 127.901 56.6186C127.796 56.6373 127.676 56.6467 127.539 56.6467C127.317 56.6467 127.121 56.6079 126.95 56.5303C126.778 56.45 126.645 56.3203 126.548 56.141C126.452 55.9618 126.404 55.7237 126.404 55.4267V51.1607Z" fill="black"/>
<path d="M81.6101 84.4297H113.516C121.973 84.4297 128.827 93.8367 128.827 102.294V196.728C128.827 205.182 121.973 212.042 113.516 212.042H81.6101C73.1554 212.042 66.2962 205.185 66.2962 196.728V102.294C66.3016 93.8367 73.1554 84.4297 81.6101 84.4297ZM68.9797 122.926V154.577L76.3843 155.529V142.489L68.9797 122.926ZM72.8651 113.66C75.6218 124.242 78.8859 136.75 78.8859 136.75H116.243L122.272 113.66C122.272 113.66 98.1666 105.471 72.8651 113.66ZM118.657 143.344V155.532L126.065 154.585V123.778L118.657 143.344ZM126.065 187.367V159.26L118.657 160.19V182.429L126.065 187.367ZM121.84 195.355L115.822 186.303H78.4572L72.4364 195.355H121.84ZM76.3843 181.579V160.22L68.9797 159.257V186.52L76.3843 181.579Z" fill="black"/>
<path d="M125.113 96.7461C123.991 97.2693 123.505 98.6029 124.028 99.7249L128.765 109.882C129.288 111.004 130.622 111.49 131.744 110.967L132.421 110.651C133.543 110.128 134.028 108.794 133.505 107.672L128.768 97.5145C128.245 96.3926 126.912 95.9071 125.79 96.4303L125.113 96.7461Z" fill="black"/>
<path d="M63.2996 96.7979C62.1777 97.3211 61.6922 98.6547 62.2154 99.7767L66.9519 109.934C67.4751 111.056 68.8088 111.542 69.9307 111.018L70.6079 110.703C71.7299 110.179 72.2153 108.846 71.6921 107.724L66.9556 97.5663C66.4324 96.4444 65.0988 95.9589 63.9768 96.4821L63.2996 96.7979Z" fill="black"/>
<path d="M225.596 67.858C232.163 61.0503 240.905 56.6381 250.459 55.3091C260.013 53.98 269.843 55.8088 278.416 60.5104L257.908 98.0488L225.596 67.858Z" fill="#4FD25E"/>
<path d="M263.036 26.311C275.68 26.6846 288.102 30.3217 299.052 36.8566C310.002 43.3914 319.095 52.5935 325.415 63.5371L263.062 97.0201L263.036 26.311Z" fill="#4FD25E"/>
<path d="M200.177 65.9439C204.49 58.4745 210.193 51.8934 217 46.5313L263.062 102.251L200.177 65.9439Z" fill="#4FD25E"/>
<path d="M277.618 126.822V115.954H275.978V125.411H271.053V126.822H277.618ZM269.31 126.822V118.671H267.723V126.822H269.31ZM268.509 117.414C268.785 117.414 269.022 117.322 269.22 117.138C269.414 116.95 269.512 116.727 269.512 116.469C269.512 116.207 269.414 115.984 269.22 115.8C269.022 115.613 268.785 115.519 268.509 115.519C268.233 115.519 267.998 115.613 267.803 115.8C267.605 115.984 267.506 116.207 267.506 116.469C267.506 116.727 267.605 116.95 267.803 117.138C267.998 117.322 268.233 117.414 268.509 117.414ZM262.538 126.981C263.196 126.981 263.783 126.813 264.299 126.477C264.812 126.138 265.216 125.655 265.509 125.029C265.799 124.399 265.944 123.644 265.944 122.763C265.944 121.882 265.798 121.128 265.504 120.502C265.207 119.876 264.8 119.397 264.283 119.064C263.767 118.731 263.181 118.565 262.527 118.565C262.021 118.565 261.614 118.65 261.306 118.82C260.995 118.986 260.755 119.181 260.585 119.404C260.411 119.627 260.277 119.823 260.181 119.993H260.086V115.954H258.499V126.822H260.049V125.554H260.181C260.277 125.727 260.415 125.925 260.595 126.148C260.772 126.371 261.016 126.566 261.328 126.732C261.639 126.898 262.042 126.981 262.538 126.981ZM262.187 125.628C261.731 125.628 261.345 125.508 261.03 125.267C260.712 125.023 260.471 124.685 260.309 124.254C260.142 123.822 260.059 123.32 260.059 122.747C260.059 122.181 260.141 121.685 260.303 121.261C260.466 120.836 260.705 120.506 261.02 120.269C261.335 120.032 261.724 119.913 262.187 119.913C262.665 119.913 263.063 120.037 263.381 120.285C263.7 120.532 263.94 120.87 264.103 121.298C264.262 121.726 264.342 122.209 264.342 122.747C264.342 123.292 264.26 123.782 264.098 124.217C263.935 124.652 263.694 124.997 263.376 125.252C263.054 125.503 262.658 125.628 262.187 125.628ZM253.863 127.003C254.379 127.003 254.846 126.907 255.264 126.716C255.681 126.522 256.012 126.24 256.256 125.872C256.496 125.504 256.617 125.053 256.617 124.519C256.617 124.059 256.528 123.681 256.351 123.384C256.174 123.086 255.936 122.851 255.635 122.678C255.334 122.504 254.998 122.374 254.627 122.285C254.255 122.197 253.877 122.129 253.491 122.083C253.003 122.027 252.607 121.981 252.302 121.946C251.998 121.907 251.777 121.845 251.639 121.76C251.501 121.675 251.432 121.537 251.432 121.346V121.309C251.432 120.845 251.563 120.486 251.825 120.231C252.083 119.977 252.469 119.849 252.982 119.849C253.516 119.849 253.937 119.968 254.245 120.205C254.549 120.438 254.759 120.698 254.876 120.985L256.367 120.645C256.19 120.15 255.932 119.75 255.593 119.446C255.249 119.138 254.855 118.915 254.409 118.777C253.963 118.636 253.495 118.565 253.003 118.565C252.677 118.565 252.332 118.604 251.968 118.682C251.6 118.756 251.257 118.894 250.939 119.096C250.617 119.298 250.353 119.586 250.148 119.961C249.943 120.332 249.84 120.815 249.84 121.41V126.822H251.39V125.708H251.453C251.556 125.913 251.71 126.115 251.915 126.313C252.12 126.511 252.384 126.675 252.706 126.806C253.028 126.937 253.413 127.003 253.863 127.003ZM253.518 125.729C253.079 125.729 252.704 125.642 252.393 125.469C252.078 125.296 251.839 125.069 251.676 124.79C251.51 124.507 251.427 124.204 251.427 123.882V122.832C251.483 122.888 251.593 122.941 251.756 122.991C251.915 123.037 252.097 123.078 252.302 123.113C252.508 123.145 252.707 123.175 252.902 123.203C253.097 123.228 253.259 123.249 253.39 123.267C253.698 123.306 253.979 123.371 254.234 123.463C254.485 123.555 254.687 123.688 254.839 123.861C254.988 124.031 255.062 124.257 255.062 124.54C255.062 124.933 254.917 125.23 254.627 125.432C254.337 125.63 253.967 125.729 253.518 125.729ZM247.727 126.822V118.671H246.193V119.966H246.108C245.96 119.527 245.698 119.183 245.323 118.931C244.944 118.677 244.516 118.549 244.039 118.549C243.94 118.549 243.823 118.553 243.688 118.56C243.551 118.567 243.443 118.576 243.365 118.586V120.104C243.428 120.086 243.542 120.067 243.704 120.046C243.867 120.021 244.03 120.009 244.193 120.009C244.568 120.009 244.902 120.088 245.196 120.247C245.486 120.403 245.716 120.621 245.885 120.9C246.055 121.176 246.14 121.491 246.14 121.845V126.822H247.727Z" fill="white"/>
<g filter="url(#filter2_d_2082_611)">
<circle cx="17.9321" cy="17.9321" r="17.9321" transform="matrix(-1 0 0 1 263.121 35.8643)" fill="#5161F1"/>
</g>
<path d="M251.142 53.4843V53.8054C251.142 54.2468 251.2 54.6428 251.315 54.9933C251.43 55.3437 251.594 55.6421 251.809 55.8882C252.02 56.1343 252.274 56.3229 252.571 56.454C252.868 56.5825 253.197 56.6467 253.558 56.6467C253.917 56.6467 254.244 56.5825 254.541 56.454C254.836 56.3229 255.091 56.1343 255.308 55.8882C255.525 55.6421 255.693 55.3437 255.814 54.9933C255.931 54.6428 255.99 54.2468 255.99 53.8054V53.4843C255.99 53.0429 255.931 52.6483 255.814 52.3005C255.696 51.95 255.53 51.6517 255.316 51.4055C255.099 51.1567 254.844 50.9681 254.549 50.8397C254.253 50.7086 253.925 50.6431 253.566 50.6431C253.205 50.6431 252.876 50.7086 252.579 50.8397C252.282 50.9681 252.027 51.1567 251.813 51.4055C251.598 51.6517 251.434 51.95 251.319 52.3005C251.201 52.6483 251.142 53.0429 251.142 53.4843ZM252.15 53.8054V53.4763C252.15 53.1499 252.182 52.8623 252.246 52.6135C252.307 52.362 252.4 52.152 252.523 51.9834C252.643 51.8122 252.792 51.6838 252.968 51.5982C253.145 51.5099 253.344 51.4657 253.566 51.4657C253.788 51.4657 253.986 51.5099 254.16 51.5982C254.334 51.6838 254.483 51.8122 254.606 51.9834C254.726 52.152 254.818 52.362 254.883 52.6135C254.947 52.8623 254.979 53.1499 254.979 53.4763V53.8054C254.979 54.1318 254.947 54.4207 254.883 54.6722C254.818 54.9237 254.725 55.1364 254.602 55.3103C254.476 55.4815 254.326 55.6113 254.152 55.6996C253.978 55.7852 253.78 55.828 253.558 55.828C253.334 55.828 253.134 55.7852 252.96 55.6996C252.786 55.6113 252.639 55.4815 252.519 55.3103C252.398 55.1364 252.307 54.9237 252.246 54.6722C252.182 54.4207 252.15 54.1318 252.15 53.8054ZM250.227 50.4023H249.26V55.6394L249.352 56.5664H250.227V50.4023ZM246.427 54.3552V54.4395C246.427 54.7605 246.463 55.0561 246.535 55.3264C246.605 55.5939 246.712 55.8267 246.856 56.0246C246.998 56.2226 247.175 56.3765 247.386 56.4861C247.595 56.5932 247.837 56.6467 248.112 56.6467C248.383 56.6467 248.618 56.5958 248.819 56.4942C249.019 56.3925 249.188 56.248 249.324 56.0608C249.458 55.8735 249.567 55.6501 249.649 55.3906C249.732 55.131 249.791 54.8448 249.826 54.5318V54.2629C249.791 53.9472 249.732 53.6609 249.649 53.4041C249.567 53.1446 249.458 52.9212 249.324 52.7339C249.188 52.5439 249.021 52.3981 248.823 52.2965C248.622 52.1948 248.388 52.144 248.12 52.144C247.842 52.144 247.597 52.1975 247.386 52.3045C247.172 52.4115 246.994 52.564 246.852 52.762C246.711 52.9573 246.605 53.19 246.535 53.4603C246.463 53.7305 246.427 54.0288 246.427 54.3552ZM247.394 54.4395V54.3552C247.394 54.1599 247.41 53.9766 247.442 53.8054C247.474 53.6315 247.528 53.479 247.603 53.3479C247.675 53.2168 247.774 53.1138 247.9 53.0389C248.023 52.9613 248.177 52.9225 248.361 52.9225C248.532 52.9225 248.68 52.9519 248.803 53.0108C248.926 53.0696 249.029 53.1499 249.112 53.2516C249.195 53.3532 249.26 53.471 249.308 53.6047C249.354 53.7385 249.385 53.883 249.401 54.0381V54.7645C249.377 54.9652 249.326 55.1498 249.248 55.3183C249.168 55.4842 249.056 55.618 248.911 55.7196C248.767 55.8186 248.581 55.8681 248.353 55.8681C248.174 55.8681 248.023 55.832 247.9 55.7598C247.777 55.6875 247.679 55.5872 247.607 55.4588C247.532 55.3277 247.478 55.1752 247.446 55.0013C247.411 54.8274 247.394 54.6401 247.394 54.4395ZM245.56 52.2242H244.589V56.9436C244.589 57.2406 244.64 57.4908 244.741 57.6941C244.843 57.9001 244.993 58.0553 245.191 58.1596C245.389 58.2666 245.631 58.3201 245.917 58.3201C246.003 58.3201 246.091 58.3134 246.182 58.3001C246.276 58.2894 246.364 58.2733 246.447 58.2519L246.443 57.4974C246.387 57.5082 246.327 57.5162 246.262 57.5215C246.201 57.5296 246.142 57.5336 246.086 57.5336C245.971 57.5336 245.874 57.5135 245.797 57.4734C245.719 57.4332 245.66 57.3704 245.62 57.2848C245.58 57.1991 245.56 57.0854 245.56 56.9436V52.2242ZM245.644 51.0845C245.644 50.9373 245.595 50.8156 245.496 50.7193C245.397 50.6203 245.262 50.5708 245.091 50.5708C244.917 50.5708 244.782 50.6203 244.685 50.7193C244.586 50.8156 244.537 50.9373 244.537 51.0845C244.537 51.229 244.586 51.3494 244.685 51.4457C244.782 51.542 244.917 51.5901 245.091 51.5901C245.262 51.5901 245.397 51.542 245.496 51.4457C245.595 51.3494 245.644 51.229 245.644 51.0845ZM241.631 56.6467C241.952 56.6467 242.243 56.5945 242.502 56.4902C242.759 56.3831 242.978 56.2347 243.16 56.0447C243.34 55.8547 243.477 55.6314 243.574 55.3745C243.67 55.1177 243.718 54.8408 243.718 54.5438V54.3833C243.718 54.0435 243.669 53.7358 243.57 53.4603C243.471 53.1847 243.333 52.9493 243.156 52.7539C242.98 52.556 242.771 52.4048 242.53 52.3005C242.289 52.1961 242.029 52.144 241.748 52.144C241.437 52.144 241.166 52.1961 240.933 52.3005C240.7 52.4048 240.508 52.552 240.355 52.7419C240.2 52.9292 240.085 53.1526 240.01 53.4121C239.932 53.6716 239.894 53.9579 239.894 54.2709V54.6843H243.249V53.99H240.849V53.9137C240.854 53.7398 240.889 53.5766 240.953 53.4241C241.015 53.2716 241.11 53.1486 241.238 53.0549C241.366 52.9613 241.538 52.9145 241.752 52.9145C241.912 52.9145 242.055 52.9493 242.181 53.0188C242.304 53.0857 242.407 53.1834 242.49 53.3118C242.573 53.4402 242.637 53.5954 242.683 53.7773C242.726 53.9565 242.747 54.1585 242.747 54.3833V54.5438C242.747 54.7338 242.721 54.9103 242.671 55.0735C242.617 55.2341 242.54 55.3745 242.438 55.4949C242.336 55.6153 242.213 55.7103 242.069 55.7798C241.924 55.8467 241.76 55.8802 241.575 55.8802C241.342 55.8802 241.135 55.8333 240.953 55.7397C240.771 55.6461 240.613 55.5136 240.479 55.3424L239.97 55.836C240.063 55.9725 240.185 56.1036 240.335 56.2293C240.485 56.3524 240.668 56.4527 240.885 56.5303C241.099 56.6079 241.348 56.6467 241.631 56.6467ZM237.365 55.8762C237.207 55.8762 237.066 55.8454 236.94 55.7838C236.812 55.7196 236.709 55.6314 236.631 55.519C236.551 55.4066 236.507 55.2769 236.498 55.1297H235.588C235.593 55.4106 235.676 55.6661 235.836 55.8962C235.997 56.1263 236.21 56.3096 236.474 56.446C236.739 56.5798 237.032 56.6467 237.353 56.6467C237.685 56.6467 237.974 56.5905 238.22 56.4781C238.466 56.3631 238.671 56.2052 238.834 56.0046C238.997 55.8039 239.12 55.5725 239.203 55.3103C239.284 55.0481 239.324 54.7672 239.324 54.4675V54.3271C239.324 54.0274 239.284 53.7465 239.203 53.4843C239.12 53.2195 238.997 52.9867 238.834 52.7861C238.671 52.5854 238.466 52.4289 238.22 52.3165C237.974 52.2015 237.686 52.144 237.357 52.144C237.009 52.144 236.704 52.2135 236.442 52.3526C236.18 52.4891 235.974 52.6804 235.824 52.9265C235.672 53.17 235.593 53.4536 235.588 53.7773H236.498C236.507 53.6168 236.547 53.4723 236.619 53.3439C236.688 53.2128 236.787 53.1084 236.916 53.0309C237.042 52.9533 237.193 52.9145 237.369 52.9145C237.565 52.9145 237.727 52.9546 237.855 53.0349C237.983 53.1125 238.084 53.2195 238.156 53.3559C238.228 53.4897 238.28 53.6408 238.312 53.8094C238.342 53.9753 238.357 54.1478 238.357 54.3271V54.4675C238.357 54.6468 238.342 54.8207 238.312 54.9893C238.283 55.1578 238.232 55.309 238.16 55.4427C238.085 55.5738 237.983 55.6795 237.855 55.7598C237.727 55.8374 237.563 55.8762 237.365 55.8762ZM232.855 52.2242V52.9305H235.303V52.2242H232.855ZM234.596 51.1607H233.629V55.3665C233.629 55.5003 233.61 55.6033 233.573 55.6755C233.533 55.7451 233.478 55.7919 233.408 55.816C233.339 55.84 233.257 55.8521 233.164 55.8521C233.097 55.8521 233.032 55.8481 232.971 55.84C232.909 55.832 232.86 55.824 232.822 55.816L232.818 56.5544C232.899 56.5784 232.992 56.5998 233.099 56.6186C233.204 56.6373 233.324 56.6467 233.461 56.6467C233.683 56.6467 233.879 56.6079 234.05 56.5303C234.222 56.45 234.355 56.3203 234.452 56.141C234.548 55.9618 234.596 55.7237 234.596 55.4267V51.1607Z" fill="black"/>
<path d="M225.596 67.858C232.163 61.0503 240.905 56.6381 250.459 55.3091C260.013 53.98 269.843 55.8088 278.416 60.5104L257.908 98.0488L225.596 67.858Z" fill="#4FD25E"/>
<path d="M263.036 26.311C275.68 26.6846 288.102 30.3217 299.052 36.8566C310.002 43.3914 319.095 52.5935 325.415 63.5371L263.062 97.0201L263.036 26.311Z" fill="#4FD25E"/>
<path d="M200.177 65.9439C204.49 58.4745 210.193 51.8934 217 46.5313L263.062 102.251L200.177 65.9439Z" fill="#4FD25E"/>
<path d="M277.618 126.822V115.954H275.978V125.411H271.053V126.822H277.618ZM269.31 126.822V118.671H267.723V126.822H269.31ZM268.509 117.414C268.785 117.414 269.022 117.322 269.22 117.138C269.414 116.95 269.512 116.727 269.512 116.469C269.512 116.207 269.414 115.984 269.22 115.8C269.022 115.613 268.785 115.519 268.509 115.519C268.233 115.519 267.998 115.613 267.803 115.8C267.605 115.984 267.506 116.207 267.506 116.469C267.506 116.727 267.605 116.95 267.803 117.138C267.998 117.322 268.233 117.414 268.509 117.414ZM262.538 126.981C263.196 126.981 263.783 126.813 264.299 126.477C264.812 126.138 265.216 125.655 265.509 125.029C265.799 124.399 265.944 123.644 265.944 122.763C265.944 121.882 265.798 121.128 265.504 120.502C265.207 119.876 264.8 119.397 264.283 119.064C263.767 118.731 263.181 118.565 262.527 118.565C262.021 118.565 261.614 118.65 261.306 118.82C260.995 118.986 260.755 119.181 260.585 119.404C260.411 119.627 260.277 119.823 260.181 119.993H260.086V115.954H258.499V126.822H260.049V125.554H260.181C260.277 125.727 260.415 125.925 260.595 126.148C260.772 126.371 261.016 126.566 261.328 126.732C261.639 126.898 262.042 126.981 262.538 126.981ZM262.187 125.628C261.731 125.628 261.345 125.508 261.03 125.267C260.712 125.023 260.471 124.685 260.309 124.254C260.142 123.822 260.059 123.32 260.059 122.747C260.059 122.181 260.141 121.685 260.303 121.261C260.466 120.836 260.705 120.506 261.02 120.269C261.335 120.032 261.724 119.913 262.187 119.913C262.665 119.913 263.063 120.037 263.381 120.285C263.7 120.532 263.94 120.87 264.103 121.298C264.262 121.726 264.342 122.209 264.342 122.747C264.342 123.292 264.26 123.782 264.098 124.217C263.935 124.652 263.694 124.997 263.376 125.252C263.054 125.503 262.658 125.628 262.187 125.628ZM253.863 127.003C254.379 127.003 254.846 126.907 255.264 126.716C255.681 126.522 256.012 126.24 256.256 125.872C256.496 125.504 256.617 125.053 256.617 124.519C256.617 124.059 256.528 123.681 256.351 123.384C256.174 123.086 255.936 122.851 255.635 122.678C255.334 122.504 254.998 122.374 254.627 122.285C254.255 122.197 253.877 122.129 253.491 122.083C253.003 122.027 252.607 121.981 252.302 121.946C251.998 121.907 251.777 121.845 251.639 121.76C251.501 121.675 251.432 121.537 251.432 121.346V121.309C251.432 120.845 251.563 120.486 251.825 120.231C252.083 119.977 252.469 119.849 252.982 119.849C253.516 119.849 253.937 119.968 254.245 120.205C254.549 120.438 254.759 120.698 254.876 120.985L256.367 120.645C256.19 120.15 255.932 119.75 255.593 119.446C255.249 119.138 254.855 118.915 254.409 118.777C253.963 118.636 253.495 118.565 253.003 118.565C252.677 118.565 252.332 118.604 251.968 118.682C251.6 118.756 251.257 118.894 250.939 119.096C250.617 119.298 250.353 119.586 250.148 119.961C249.943 120.332 249.84 120.815 249.84 121.41V126.822H251.39V125.708H251.453C251.556 125.913 251.71 126.115 251.915 126.313C252.12 126.511 252.384 126.675 252.706 126.806C253.028 126.937 253.413 127.003 253.863 127.003ZM253.518 125.729C253.079 125.729 252.704 125.642 252.393 125.469C252.078 125.296 251.839 125.069 251.676 124.79C251.51 124.507 251.427 124.204 251.427 123.882V122.832C251.483 122.888 251.593 122.941 251.756 122.991C251.915 123.037 252.097 123.078 252.302 123.113C252.508 123.145 252.707 123.175 252.902 123.203C253.097 123.228 253.259 123.249 253.39 123.267C253.698 123.306 253.979 123.371 254.234 123.463C254.485 123.555 254.687 123.688 254.839 123.861C254.988 124.031 255.062 124.257 255.062 124.54C255.062 124.933 254.917 125.23 254.627 125.432C254.337 125.63 253.967 125.729 253.518 125.729ZM247.727 126.822V118.671H246.193V119.966H246.108C245.96 119.527 245.698 119.183 245.323 118.931C244.944 118.677 244.516 118.549 244.039 118.549C243.94 118.549 243.823 118.553 243.688 118.56C243.551 118.567 243.443 118.576 243.365 118.586V120.104C243.428 120.086 243.542 120.067 243.704 120.046C243.867 120.021 244.03 120.009 244.193 120.009C244.568 120.009 244.902 120.088 245.196 120.247C245.486 120.403 245.716 120.621 245.885 120.9C246.055 121.176 246.14 121.491 246.14 121.845V126.822H247.727Z" fill="white"/>
<g filter="url(#filter3_d_2082_611)">
<circle cx="17.9321" cy="17.9321" r="17.9321" transform="matrix(-1 0 0 1 263.121 35.8643)" fill="#5161F1"/>
</g>
<path d="M237.739 53.4843V53.8054C237.739 54.2468 237.682 54.6428 237.567 54.9933C237.452 55.3437 237.287 55.6421 237.073 55.8882C236.862 56.1343 236.608 56.3229 236.311 56.454C236.014 56.5825 235.685 56.6467 235.324 56.6467C234.965 56.6467 234.637 56.5825 234.34 56.454C234.046 56.3229 233.791 56.1343 233.574 55.8882C233.357 55.6421 233.189 55.3437 233.068 54.9933C232.951 54.6428 232.892 54.2468 232.892 53.8054V53.4843C232.892 53.0429 232.951 52.6483 233.068 52.3005C233.186 51.95 233.352 51.6517 233.566 51.4055C233.783 51.1567 234.038 50.9681 234.332 50.8397C234.629 50.7086 234.957 50.6431 235.316 50.6431C235.677 50.6431 236.006 50.7086 236.303 50.8397C236.6 50.9681 236.855 51.1567 237.069 51.4055C237.283 51.6517 237.448 51.95 237.563 52.3005C237.681 52.6483 237.739 53.0429 237.739 53.4843ZM236.732 53.8054V53.4763C236.732 53.1499 236.7 52.8623 236.636 52.6135C236.574 52.362 236.482 52.152 236.359 51.9834C236.239 51.8122 236.09 51.6838 235.914 51.5982C235.737 51.5099 235.538 51.4657 235.316 51.4657C235.094 51.4657 234.896 51.5099 234.722 51.5982C234.548 51.6838 234.399 51.8122 234.276 51.9834C234.156 52.152 234.063 52.362 233.999 52.6135C233.935 52.8623 233.903 53.1499 233.903 53.4763V53.8054C233.903 54.1318 233.935 54.4207 233.999 54.6722C234.063 54.9237 234.157 55.1364 234.28 55.3103C234.406 55.4815 234.556 55.6113 234.73 55.6996C234.904 55.7852 235.102 55.828 235.324 55.828C235.548 55.828 235.748 55.7852 235.922 55.6996C236.095 55.6113 236.243 55.4815 236.363 55.3103C236.483 55.1364 236.574 54.9237 236.636 54.6722C236.7 54.4207 236.732 54.1318 236.732 53.8054ZM238.654 50.4023H239.622V55.6394L239.529 56.5664H238.654V50.4023ZM242.455 54.3552V54.4395C242.455 54.7605 242.419 55.0561 242.347 55.3264C242.277 55.5939 242.17 55.8267 242.025 56.0246C241.884 56.2226 241.707 56.3765 241.496 56.4861C241.287 56.5932 241.045 56.6467 240.769 56.6467C240.499 56.6467 240.264 56.5958 240.063 56.4942C239.862 56.3925 239.694 56.248 239.557 56.0608C239.424 55.8735 239.315 55.6501 239.232 55.3906C239.149 55.131 239.091 54.8448 239.056 54.5318V54.2629C239.091 53.9472 239.149 53.6609 239.232 53.4041C239.315 53.1446 239.424 52.9212 239.557 52.7339C239.694 52.5439 239.861 52.3981 240.059 52.2965C240.26 52.1948 240.494 52.144 240.761 52.144C241.04 52.144 241.284 52.1975 241.496 52.3045C241.71 52.4115 241.888 52.564 242.03 52.762C242.171 52.9573 242.277 53.19 242.347 53.4603C242.419 53.7305 242.455 54.0288 242.455 54.3552ZM241.488 54.4395V54.3552C241.488 54.1599 241.472 53.9766 241.44 53.8054C241.407 53.6315 241.354 53.479 241.279 53.3479C241.207 53.2168 241.108 53.1138 240.982 53.0389C240.859 52.9613 240.705 52.9225 240.521 52.9225C240.349 52.9225 240.202 52.9519 240.079 53.0108C239.956 53.0696 239.853 53.1499 239.77 53.2516C239.687 53.3532 239.622 53.471 239.573 53.6047C239.528 53.7385 239.497 53.883 239.481 54.0381V54.7645C239.505 54.9652 239.556 55.1498 239.634 55.3183C239.714 55.4842 239.826 55.618 239.971 55.7196C240.115 55.8186 240.301 55.8681 240.529 55.8681C240.708 55.8681 240.859 55.832 240.982 55.7598C241.105 55.6875 241.203 55.5872 241.275 55.4588C241.35 55.3277 241.403 55.1752 241.436 55.0013C241.47 54.8274 241.488 54.6401 241.488 54.4395ZM243.322 52.2242H244.293V56.9436C244.293 57.2406 244.242 57.4908 244.14 57.6941C244.039 57.9001 243.889 58.0553 243.691 58.1596C243.493 58.2666 243.251 58.3201 242.965 58.3201C242.879 58.3201 242.791 58.3134 242.7 58.3001C242.606 58.2894 242.518 58.2733 242.435 58.2519L242.439 57.4974C242.495 57.5082 242.555 57.5162 242.619 57.5215C242.681 57.5296 242.74 57.5336 242.796 57.5336C242.911 57.5336 243.007 57.5135 243.085 57.4734C243.163 57.4332 243.221 57.3704 243.262 57.2848C243.302 57.1991 243.322 57.0854 243.322 56.9436V52.2242ZM243.237 51.0845C243.237 50.9373 243.287 50.8156 243.386 50.7193C243.485 50.6203 243.62 50.5708 243.791 50.5708C243.965 50.5708 244.1 50.6203 244.197 50.7193C244.296 50.8156 244.345 50.9373 244.345 51.0845C244.345 51.229 244.296 51.3494 244.197 51.4457C244.1 51.542 243.965 51.5901 243.791 51.5901C243.62 51.5901 243.485 51.542 243.386 51.4457C243.287 51.3494 243.237 51.229 243.237 51.0845ZM247.251 56.6467C246.93 56.6467 246.639 56.5945 246.38 56.4902C246.123 56.3831 245.904 56.2347 245.722 56.0447C245.542 55.8547 245.405 55.6314 245.308 55.3745C245.212 55.1177 245.164 54.8408 245.164 54.5438V54.3833C245.164 54.0435 245.213 53.7358 245.312 53.4603C245.411 53.1847 245.549 52.9493 245.726 52.7539C245.902 52.556 246.111 52.4048 246.352 52.3005C246.592 52.1961 246.853 52.144 247.134 52.144C247.445 52.144 247.716 52.1961 247.949 52.3005C248.182 52.4048 248.374 52.552 248.527 52.7419C248.682 52.9292 248.797 53.1526 248.872 53.4121C248.949 53.6716 248.988 53.9579 248.988 54.2709V54.6843H245.633V53.99H248.033V53.9137C248.028 53.7398 247.993 53.5766 247.929 53.4241C247.867 53.2716 247.772 53.1486 247.644 53.0549C247.515 52.9613 247.344 52.9145 247.13 52.9145C246.97 52.9145 246.827 52.9493 246.701 53.0188C246.578 53.0857 246.475 53.1834 246.392 53.3118C246.309 53.4402 246.245 53.5954 246.199 53.7773C246.156 53.9565 246.135 54.1585 246.135 54.3833V54.5438C246.135 54.7338 246.16 54.9103 246.211 55.0735C246.265 55.2341 246.342 55.3745 246.444 55.4949C246.546 55.6153 246.669 55.7103 246.813 55.7798C246.958 55.8467 247.122 55.8802 247.307 55.8802C247.54 55.8802 247.747 55.8333 247.929 55.7397C248.111 55.6461 248.269 55.5136 248.402 55.3424L248.912 55.836C248.818 55.9725 248.697 56.1036 248.547 56.2293C248.397 56.3524 248.214 56.4527 247.997 56.5303C247.783 56.6079 247.534 56.6467 247.251 56.6467ZM251.517 55.8762C251.674 55.8762 251.816 55.8454 251.942 55.7838C252.07 55.7196 252.173 55.6314 252.251 55.519C252.331 55.4066 252.375 55.2769 252.383 55.1297H253.294C253.289 55.4106 253.206 55.6661 253.046 55.8962C252.885 56.1263 252.672 56.3096 252.407 56.446C252.143 56.5798 251.85 56.6467 251.529 56.6467C251.197 56.6467 250.908 56.5905 250.662 56.4781C250.416 56.3631 250.211 56.2052 250.048 56.0046C249.885 55.8039 249.761 55.5725 249.679 55.3103C249.598 55.0481 249.558 54.7672 249.558 54.4675V54.3271C249.558 54.0274 249.598 53.7465 249.679 53.4843C249.761 53.2195 249.885 52.9867 250.048 52.7861C250.211 52.5854 250.416 52.4289 250.662 52.3165C250.908 52.2015 251.195 52.144 251.525 52.144C251.872 52.144 252.177 52.2135 252.44 52.3526C252.702 52.4891 252.908 52.6804 253.058 52.9265C253.21 53.17 253.289 53.4536 253.294 53.7773H252.383C252.375 53.6168 252.335 53.4723 252.263 53.3439C252.193 53.2128 252.094 53.1084 251.966 53.0309C251.84 52.9533 251.689 52.9145 251.512 52.9145C251.317 52.9145 251.155 52.9546 251.027 53.0349C250.898 53.1125 250.798 53.2195 250.726 53.3559C250.654 53.4897 250.602 53.6408 250.569 53.8094C250.54 53.9753 250.525 54.1478 250.525 54.3271V54.4675C250.525 54.6468 250.54 54.8207 250.569 54.9893C250.599 55.1578 250.65 55.309 250.722 55.4427C250.797 55.5738 250.898 55.6795 251.027 55.7598C251.155 55.8374 251.319 55.8762 251.517 55.8762ZM256.027 52.2242V52.9305H253.579V52.2242H256.027ZM254.286 51.1607H255.253V55.3665C255.253 55.5003 255.271 55.6033 255.309 55.6755C255.349 55.7451 255.404 55.7919 255.473 55.816C255.543 55.84 255.625 55.8521 255.718 55.8521C255.785 55.8521 255.849 55.8481 255.911 55.84C255.972 55.832 256.022 55.824 256.059 55.816L256.063 56.5544C255.983 56.5784 255.889 56.5998 255.782 56.6186C255.678 56.6373 255.558 56.6467 255.421 56.6467C255.199 56.6467 255.003 56.6079 254.831 56.5303C254.66 56.45 254.526 56.3203 254.43 56.141C254.334 55.9618 254.286 55.7237 254.286 55.4267V51.1607Z" fill="black"/>
<path d="M279.39 84.4297H247.484C239.027 84.4297 232.173 93.8367 232.173 102.294V196.728C232.173 205.182 239.027 212.042 247.484 212.042H279.39C287.845 212.042 294.704 205.185 294.704 196.728V102.294C294.698 93.8367 287.845 84.4297 279.39 84.4297ZM292.02 122.926V154.577L284.616 155.529V142.489L292.02 122.926ZM288.135 113.66C285.378 124.242 282.114 136.75 282.114 136.75H244.757L238.728 113.66C238.728 113.66 262.833 105.471 288.135 113.66ZM242.343 143.344V155.532L234.935 154.585V123.778L242.343 143.344ZM234.935 187.367V159.26L242.343 160.19V182.429L234.935 187.367ZM239.16 195.355L245.178 186.303H282.543L288.564 195.355H239.16ZM284.616 181.579V160.22L292.02 159.257V186.52L284.616 181.579Z" fill="black"/>
<path d="M235.887 96.7461C237.009 97.2693 237.495 98.6029 236.972 99.7249L232.235 109.882C231.712 111.004 230.378 111.49 229.256 110.967L228.579 110.651C227.457 110.128 226.972 108.794 227.495 107.672L232.232 97.5145C232.755 96.3926 234.088 95.9071 235.21 96.4303L235.887 96.7461Z" fill="black"/>
<path d="M297.7 96.7979C298.822 97.3211 299.308 98.6547 298.785 99.7767L294.048 109.934C293.525 111.056 292.191 111.542 291.069 111.018L290.392 110.703C289.27 110.179 288.785 108.846 289.308 107.724L294.044 97.5663C294.568 96.4444 295.901 95.9589 297.023 96.4821L297.7 96.7979Z" fill="black"/>
<defs>
<filter id="filter0_d_2082_611" x="94.8902" y="35.8643" width="41.8416" height="41.8416" filterUnits="userSpaceOnUse" color-interpolation-filters="sRGB">
<feFlood flood-opacity="0" result="BackgroundImageFix"/>
<feColorMatrix in="SourceAlpha" type="matrix" values="0 0 0 0 0 0 0 0 0 0 0 0 0 0 0 0 0 0 127 0" result="hardAlpha"/>
<feOffset dy="2.98868"/>
<feGaussianBlur stdDeviation="1.49434"/>
<feComposite in2="hardAlpha" operator="out"/>
<feColorMatrix type="matrix" values="0 0 0 0 0 0 0 0 0 0 0 0 0 0 0 0 0 0 0.25 0"/>
<feBlend mode="normal" in2="BackgroundImageFix" result="effect1_dropShadow_2082_611"/>
<feBlend mode="normal" in="SourceGraphic" in2="effect1_dropShadow_2082_611" result="shape"/>
</filter>
<filter id="filter1_d_2082_611" x="94.8902" y="35.8643" width="41.8416" height="41.8416" filterUnits="userSpaceOnUse" color-interpolation-filters="sRGB">
<feFlood flood-opacity="0" result="BackgroundImageFix"/>
<feColorMatrix in="SourceAlpha" type="matrix" values="0 0 0 0 0 0 0 0 0 0 0 0 0 0 0 0 0 0 127 0" result="hardAlpha"/>
<feOffset dy="2.98868"/>
<feGaussianBlur stdDeviation="1.49434"/>
<feComposite in2="hardAlpha" operator="out"/>
<feColorMatrix type="matrix" values="0 0 0 0 0 0 0 0 0 0 0 0 0 0 0 0 0 0 0.25 0"/>
<feBlend mode="normal" in2="BackgroundImageFix" result="effect1_dropShadow_2082_611"/>
<feBlend mode="normal" in="SourceGraphic" in2="effect1_dropShadow_2082_611" result="shape"/>
</filter>
<filter id="filter2_d_2082_611" x="224.268" y="35.8643" width="41.8416" height="41.8416" filterUnits="userSpaceOnUse" color-interpolation-filters="sRGB">
<feFlood flood-opacity="0" result="BackgroundImageFix"/>
<feColorMatrix in="SourceAlpha" type="matrix" values="0 0 0 0 0 0 0 0 0 0 0 0 0 0 0 0 0 0 127 0" result="hardAlpha"/>
<feOffset dy="2.98868"/>
<feGaussianBlur stdDeviation="1.49434"/>
<feComposite in2="hardAlpha" operator="out"/>
<feColorMatrix type="matrix" values="0 0 0 0 0 0 0 0 0 0 0 0 0 0 0 0 0 0 0.25 0"/>
<feBlend mode="normal" in2="BackgroundImageFix" result="effect1_dropShadow_2082_611"/>
<feBlend mode="normal" in="SourceGraphic" in2="effect1_dropShadow_2082_611" result="shape"/>
</filter>
<filter id="filter3_d_2082_611" x="224.268" y="35.8643" width="41.8416" height="41.8416" filterUnits="userSpaceOnUse" color-interpolation-filters="sRGB">
<feFlood flood-opacity="0" result="BackgroundImageFix"/>
<feColorMatrix in="SourceAlpha" type="matrix" values="0 0 0 0 0 0 0 0 0 0 0 0 0 0 0 0 0 0 127 0" result="hardAlpha"/>
<feOffset dy="2.98868"/>
<feGaussianBlur stdDeviation="1.49434"/>
<feComposite in2="hardAlpha" operator="out"/>
<feColorMatrix type="matrix" values="0 0 0 0 0 0 0 0 0 0 0 0 0 0 0 0 0 0 0.25 0"/>
<feBlend mode="normal" in2="BackgroundImageFix" result="effect1_dropShadow_2082_611"/>
<feBlend mode="normal" in="SourceGraphic" in2="effect1_dropShadow_2082_611" result="shape"/>
</filter>
</defs>
</svg>
