<svg xmlns="http://www.w3.org/2000/svg" width="20" height="15" viewBox="0 0 20 15" fill="none">
<path d="M11.78 0.0256783C11.6601 -0.00296075 11.5358 -0.00769782 11.4142 0.0117378C11.2925 0.0311734 11.1759 0.0744006 11.0709 0.138947C10.966 0.203494 10.8748 0.288095 10.8026 0.387911C10.7303 0.487728 10.6785 0.600803 10.65 0.72067L7.52503 13.8455C7.46735 14.0875 7.50816 14.3425 7.6385 14.5544C7.76884 14.7664 7.97802 14.9178 8.22002 14.9755C8.46203 15.0332 8.71704 14.9924 8.92895 14.862C9.14087 14.7317 9.29233 14.5225 9.35001 14.2805L12.475 1.15566C12.5036 1.03583 12.5083 0.911529 12.4889 0.789864C12.4695 0.668199 12.4262 0.551558 12.3617 0.446612C12.2972 0.341665 12.2126 0.250471 12.1127 0.178244C12.0129 0.106017 11.8998 0.0541732 11.78 0.0256783ZM14 2.80064C14.0837 2.71035 14.1843 2.63743 14.2962 2.58605C14.4081 2.53468 14.529 2.50584 14.6521 2.5012C14.7751 2.49655 14.8979 2.51619 15.0133 2.55899C15.1288 2.6018 15.2347 2.66692 15.3249 2.75065L19.6999 6.8131C19.7945 6.90085 19.8701 7.00722 19.9217 7.12552C19.9733 7.24382 20 7.37151 20 7.50059C20 7.62967 19.9733 7.75736 19.9217 7.87566C19.8701 7.99396 19.7945 8.10032 19.6999 8.18808L15.3249 12.2505C15.2347 12.3342 15.1288 12.3994 15.0133 12.4422C14.8979 12.485 14.7751 12.5046 14.6521 12.4999C14.4036 12.4906 14.169 12.3829 14 12.2005C13.8309 12.0182 13.7412 11.7762 13.7505 11.5277C13.7599 11.2792 13.8676 11.0446 14.05 10.8755L17.6849 7.50059L14.05 4.12563C13.9597 4.04192 13.8867 3.94124 13.8354 3.82935C13.784 3.71745 13.7551 3.59653 13.7505 3.47349C13.7459 3.35045 13.7655 3.2277 13.8083 3.11226C13.8511 2.99681 13.9162 2.89092 14 2.80064ZM5.95005 4.12563C6.13239 3.95656 6.24009 3.72197 6.24946 3.47349C6.25884 3.22501 6.16912 2.98298 6.00005 2.80064C5.83098 2.61831 5.5964 2.51061 5.34791 2.50123C5.09943 2.49186 4.8574 2.58157 4.67507 2.75065L0.300119 6.8131C0.205459 6.90085 0.129943 7.00722 0.0782995 7.12552C0.0266565 7.24382 0 7.37151 0 7.50059C0 7.62967 0.0266565 7.75736 0.0782995 7.87566C0.129943 7.99396 0.205459 8.10032 0.300119 8.18808L4.67507 12.2505C4.8574 12.4196 5.09943 12.5093 5.34791 12.4999C5.5964 12.4906 5.83098 12.3829 6.00005 12.2005C6.16912 12.0182 6.25884 11.7762 6.24946 11.5277C6.24009 11.2792 6.13239 11.0446 5.95005 10.8755L2.31509 7.50059L5.95005 4.12563Z" fill="white"/>
</svg>