<svg width="21" height="21" viewBox="0 0 21 21" fill="none" xmlns="http://www.w3.org/2000/svg">
<g clip-path="url(#clip0_933_739)">
<path d="M18.6685 10.5692L15.0938 8.78182V4.59376C15.0938 4.47189 15.0598 4.35242 14.9958 4.24874C14.9317 4.14506 14.84 4.06126 14.731 4.00675L10.7935 2.038C10.7024 1.99246 10.6019 1.96875 10.5 1.96875C10.3981 1.96875 10.2976 1.99246 10.2065 2.038L6.26896 4.00675C6.15996 4.06126 6.06829 4.14506 6.00422 4.24874C5.94016 4.35242 5.90624 4.47189 5.90625 4.59376V8.78182L2.33146 10.5692C2.22246 10.6238 2.13079 10.7076 2.06672 10.8112C2.00266 10.9149 1.96874 11.0344 1.96875 11.1563V15.75C1.96874 15.8719 2.00266 15.9914 2.06672 16.095C2.13079 16.1987 2.22246 16.2825 2.33146 16.337L6.26896 18.3058C6.36011 18.3513 6.46061 18.375 6.5625 18.375C6.66439 18.375 6.76489 18.3513 6.85604 18.3058L10.5 16.4838L14.144 18.3058C14.2351 18.3513 14.3356 18.375 14.4375 18.375C14.5394 18.375 14.6399 18.3513 14.731 18.3058L18.6685 16.337C18.7775 16.2825 18.8692 16.1987 18.9333 16.095C18.9973 15.9914 19.0313 15.8719 19.0312 15.75V11.1563C19.0313 11.0344 18.9973 10.9149 18.9333 10.8112C18.8692 10.7076 18.7775 10.6238 18.6685 10.5692ZM13.7812 8.78182L11.1562 10.0943V6.96821L13.7812 5.65571V8.78182ZM10.5 3.35883L12.9699 4.59376L10.5 5.8287L8.03007 4.59376L10.5 3.35883ZM7.21875 5.65571L9.84375 6.96821V10.0943L7.21875 8.78182V5.65571ZM5.90625 16.6568L3.28125 15.3443V12.2182L5.90625 13.5307V16.6568ZM6.5625 12.3912L4.09257 11.1563L6.5625 9.92133L9.03243 11.1563L6.5625 12.3912ZM7.21875 13.5307L9.84375 12.2182V15.3443L7.21875 16.6568V13.5307ZM13.7812 16.6568L11.1562 15.3443V12.2182L13.7812 13.5307V16.6568ZM14.4375 12.3912L11.9676 11.1563L14.4375 9.92133L16.9074 11.1563L14.4375 12.3912ZM17.7188 15.3443L15.0938 16.6568V13.5307L17.7188 12.2182V15.3443Z" fill="black"/>
</g>
<defs>
<clipPath id="clip0_933_739">
<rect width="21" height="21" fill="white"/>
</clipPath>
</defs>
</svg>
