<svg width="284" height="70" viewBox="0 0 284 70" fill="none" xmlns="http://www.w3.org/2000/svg">
<rect x="5" y="46" width="61" height="20" fill="#E96851"/>
<rect x="5" y="15" width="61" height="27" fill="#FFD769"/>
<rect x="14" y="3" width="14" height="10" fill="#DEB872"/>
<rect x="43" y="3" width="14" height="10" fill="#DEB872"/>
<path d="M70 17.7917C70 14.5833 67.375 11.9583 64.1667 11.9583H63.25C62.1454 11.9583 61.25 11.0629 61.25 9.95833V2C61.25 0.895429 60.3546 0 59.25 0H39.9167C38.8121 0 37.9167 0.895431 37.9167 2V9.95834C37.9167 11.0629 37.0212 11.9583 35.9167 11.9583H34.0833C32.9788 11.9583 32.0833 11.0629 32.0833 9.95833V2C32.0833 0.895429 31.1879 0 30.0833 0H10.75C9.64543 0 8.75 0.895431 8.75 2V9.95834C8.75 11.0629 7.85457 11.9583 6.75 11.9583H5.83333C2.625 11.9583 0 14.5833 0 17.7917V40.8333C0 41.485 0.115851 42.1083 0.32146 42.6917C0.561466 43.3728 0.561466 44.1272 0.32146 44.8083C0.115851 45.3917 0 46.015 0 46.6667V64.1667C0 67.375 2.625 70 5.83333 70H64.1667C67.375 70 70 67.375 70 64.1667V46.6667C70 46.015 69.8842 45.3917 69.6785 44.8083C69.4385 44.1272 69.4385 43.3728 69.6785 42.6917C69.8842 42.1083 70 41.485 70 40.8333V17.7917ZM43.75 7.83334C43.75 6.72877 44.6454 5.83333 45.75 5.83333H53.4167C54.5212 5.83333 55.4167 6.72876 55.4167 7.83333V9.66667C55.4167 10.7712 54.5212 11.6667 53.4167 11.6667H45.75C44.6454 11.6667 43.75 10.7712 43.75 9.66667V7.83334ZM14.5833 7.83334C14.5833 6.72877 15.4788 5.83333 16.5833 5.83333H24.25C25.3546 5.83333 26.25 6.72876 26.25 7.83333V9.66667C26.25 10.7712 25.3546 11.6667 24.25 11.6667H16.5833C15.4788 11.6667 14.5833 10.7712 14.5833 9.66667V7.83334ZM5.83333 19.5C5.83333 18.3954 6.72876 17.5 7.83333 17.5H62.1667C63.2712 17.5 64.1667 18.3954 64.1667 19.5V38.8333C64.1667 39.9379 63.2712 40.8333 62.1667 40.8333H7.83333C6.72876 40.8333 5.83333 39.9379 5.83333 38.8333V19.5ZM64.1667 62.1667C64.1667 63.2712 63.2712 64.1667 62.1667 64.1667H7.83333C6.72876 64.1667 5.83333 63.2712 5.83333 62.1667V48.6667C5.83333 47.5621 6.72876 46.6667 7.83333 46.6667H62.1667C63.2712 46.6667 64.1667 47.5621 64.1667 48.6667V62.1667Z" fill="#3E2E0C"/>
<path d="M91.3605 49V18.2H96.7725L107.992 36.46L104.824 36.416L116.176 18.2H121.324V49H115.648V37.428C115.648 34.788 115.707 32.412 115.824 30.3C115.971 28.188 116.206 26.0907 116.528 24.008L117.232 25.9L107.684 40.64H104.78L95.5405 26.032L96.1565 24.008C96.4791 25.9733 96.6991 27.9973 96.8165 30.08C96.9631 32.1333 97.0365 34.5827 97.0365 37.428V49H91.3605ZM130.395 59.12L135.323 47.724L135.367 51.332L123.927 25.812H130.175L136.555 40.948C136.76 41.3293 136.965 41.8427 137.171 42.488C137.376 43.104 137.552 43.72 137.699 44.336L136.599 44.688C136.804 44.1307 137.024 43.544 137.259 42.928C137.493 42.2827 137.713 41.6227 137.919 40.948L143.375 25.812H149.667L139.987 49L136.027 59.12H130.395ZM163.424 49V18.2H168.836L180.056 36.46L176.888 36.416L188.24 18.2H193.388V49H187.712V37.428C187.712 34.788 187.771 32.412 187.888 30.3C188.035 28.188 188.27 26.0907 188.592 24.008L189.296 25.9L179.748 40.64H176.844L167.604 26.032L168.22 24.008C168.543 25.9733 168.763 27.9973 168.88 30.08C169.027 32.1333 169.1 34.5827 169.1 37.428V49H163.424ZM209.542 49.44C207.225 49.44 205.157 48.9267 203.338 47.9C201.52 46.844 200.082 45.4067 199.026 43.588C197.97 41.7693 197.442 39.7013 197.442 37.384C197.442 35.0667 197.97 32.9987 199.026 31.18C200.082 29.3613 201.52 27.9387 203.338 26.912C205.157 25.856 207.225 25.328 209.542 25.328C211.83 25.328 213.884 25.856 215.702 26.912C217.521 27.9387 218.944 29.3613 219.97 31.18C221.026 32.9987 221.554 35.0667 221.554 37.384C221.554 39.7013 221.026 41.7693 219.97 43.588C218.944 45.4067 217.521 46.844 215.702 47.9C213.884 48.9267 211.83 49.44 209.542 49.44ZM209.542 44.644C210.804 44.644 211.918 44.3213 212.886 43.676C213.884 43.0307 214.661 42.1653 215.218 41.08C215.805 39.9947 216.084 38.7627 216.054 37.384C216.084 35.976 215.805 34.7293 215.218 33.644C214.661 32.5587 213.884 31.708 212.886 31.092C211.918 30.4467 210.804 30.124 209.542 30.124C208.281 30.124 207.137 30.4467 206.11 31.092C205.113 31.708 204.336 32.5733 203.778 33.688C203.221 34.7733 202.942 36.0053 202.942 37.384C202.942 38.7627 203.221 39.9947 203.778 41.08C204.336 42.1653 205.113 43.0307 206.11 43.676C207.137 44.3213 208.281 44.644 209.542 44.644ZM233.963 49.44C231.91 49.44 230.062 48.9267 228.419 47.9C226.806 46.844 225.515 45.4213 224.547 43.632C223.609 41.8133 223.139 39.7307 223.139 37.384C223.139 35.0667 223.609 32.9987 224.547 31.18C225.486 29.3613 226.762 27.9387 228.375 26.912C230.018 25.856 231.866 25.328 233.919 25.328C235.034 25.328 236.105 25.504 237.131 25.856C238.187 26.208 239.126 26.692 239.947 27.308C240.769 27.8947 241.414 28.5547 241.883 29.288C242.382 30.0213 242.661 30.784 242.719 31.576L241.267 31.752V16.44H246.679V49H241.443L241.311 43.544L242.367 43.632C242.338 44.3653 242.074 45.0693 241.575 45.744C241.106 46.4187 240.49 47.0347 239.727 47.592C238.965 48.1493 238.07 48.604 237.043 48.956C236.046 49.2787 235.019 49.44 233.963 49.44ZM235.019 44.864C236.281 44.864 237.395 44.5413 238.363 43.896C239.331 43.2507 240.079 42.3707 240.607 41.256C241.165 40.1413 241.443 38.8507 241.443 37.384C241.443 35.9467 241.165 34.6707 240.607 33.556C240.079 32.412 239.331 31.532 238.363 30.916C237.395 30.2707 236.281 29.948 235.019 29.948C233.758 29.948 232.643 30.2707 231.675 30.916C230.707 31.532 229.945 32.412 229.387 33.556C228.859 34.6707 228.595 35.9467 228.595 37.384C228.595 38.8507 228.859 40.1413 229.387 41.256C229.945 42.3707 230.707 43.2507 231.675 43.896C232.643 44.5413 233.758 44.864 235.019 44.864ZM261.931 49.44C259.496 49.44 257.34 48.9267 255.463 47.9C253.615 46.8733 252.163 45.48 251.107 43.72C250.08 41.9307 249.567 39.892 249.567 37.604C249.567 35.7853 249.86 34.128 250.447 32.632C251.034 31.136 251.84 29.8453 252.867 28.76C253.923 27.6453 255.17 26.7947 256.607 26.208C258.074 25.592 259.672 25.284 261.403 25.284C262.928 25.284 264.351 25.5773 265.671 26.164C266.991 26.7507 268.135 27.5573 269.103 28.584C270.071 29.5813 270.804 30.784 271.303 32.192C271.831 33.5707 272.08 35.0813 272.051 36.724L272.007 38.616H253.219L252.207 34.92H267.475L266.771 35.668V34.7C266.683 33.7907 266.39 32.9987 265.891 32.324C265.392 31.62 264.747 31.0773 263.955 30.696C263.192 30.2853 262.342 30.08 261.403 30.08C259.966 30.08 258.748 30.3587 257.751 30.916C256.783 31.4733 256.05 32.28 255.551 33.336C255.052 34.3627 254.803 35.6533 254.803 37.208C254.803 38.704 255.111 40.0093 255.727 41.124C256.372 42.2387 257.267 43.104 258.411 43.72C259.584 44.3067 260.948 44.6 262.503 44.6C263.588 44.6 264.586 44.424 265.495 44.072C266.404 43.72 267.387 43.0893 268.443 42.18L271.127 45.92C270.335 46.6533 269.426 47.284 268.399 47.812C267.402 48.3107 266.346 48.7067 265.231 49C264.116 49.2933 263.016 49.44 261.931 49.44ZM275.128 49V16.44H280.584V49H275.128Z" fill="black"/>
</svg>
