<svg width="20" height="25" viewBox="0 0 20 25" fill="none" xmlns="http://www.w3.org/2000/svg">
<path d="M10.0048 0L2.9358 7.07354C1.05632 8.93265 0 11.464 0 14.1048C0 16.7456 1.05632 19.2755 2.9358 21.1346C4.78963 23.0088 7.32479 24.0659 9.96558 24.0659C12.6064 24.0659 15.1362 23.0088 16.9916 21.1346C20.9882 17.2202 20.9882 10.9012 17.0784 7.07354L15.3302 8.81872C18.2418 11.7304 18.2418 16.4732 15.3302 19.3856C12.4177 22.2973 7.67564 22.2973 4.76323 19.3856C1.85081 16.4732 1.85081 11.7296 4.76323 8.81872L9.42384 4.16188L10.0093 3.49414L10.0048 0ZM13.5842 3.91063C12.8501 3.91063 12.2525 4.5082 12.2525 5.24234C12.2525 5.97648 12.8501 6.57028 13.5842 6.57028C14.3199 6.57028 14.9129 5.97648 14.9129 5.24234C14.9129 4.5082 14.3191 3.91063 13.5842 3.91063Z" fill="white"/>
</svg>
