<svg width="384" height="116" viewBox="0 0 384 116" fill="none" xmlns="http://www.w3.org/2000/svg">
<rect y="27.5039" width="24.6981" height="63.5695" rx="3" fill="#F0F0F0"/>
<rect x="52.2031" width="24.6981" height="115.071" rx="3" fill="#F0F0F0"/>
<rect x="212.517" y="28.001" width="24.6981" height="63.5695" rx="3" fill="#DCDCDC"/>
<rect x="264.72" y="0.495117" width="24.6981" height="115.071" rx="3" fill="#DCDCDC"/>
<rect x="359.303" y="28.001" width="24.6981" height="63.5695" rx="3" fill="#DCDCDC"/>
<path d="M220.381 97.707H221.134V100.502H220.381V97.707ZM217.676 100.727H218.411V101.21H220.393V100.727H221.134V102.849H217.676V100.727ZM218.411 101.782V102.254H220.393V101.782H218.411ZM218.305 97.9203C219.113 97.9203 219.713 98.4311 219.713 99.1496C219.713 99.8681 219.113 100.379 218.305 100.379C217.496 100.379 216.89 99.8681 216.89 99.1496C216.89 98.4311 217.496 97.9203 218.305 97.9203ZM218.305 98.5378C217.906 98.5378 217.62 98.7679 217.62 99.1496C217.62 99.5369 217.906 99.7615 218.305 99.7615C218.697 99.7615 218.984 99.5369 218.984 99.1496C218.984 98.7679 218.697 98.5378 218.305 98.5378ZM222.048 100.182H222.447C223.412 100.182 223.917 100.166 224.507 100.059L224.58 100.648C223.973 100.761 223.44 100.777 222.447 100.777H222.048V100.182ZM222.043 98.0045H224.327V99.6436H222.789V100.575H222.048V99.0879H223.586V98.5939H222.043V98.0045ZM225.455 97.7126H226.202V100.912H225.455V97.7126ZM224.625 98.4255H225.59V99.0205H224.625V98.4255ZM224.625 99.5313H225.59V100.126H224.625V99.5313ZM222.643 101.148H226.202V102.91H225.455V101.743H222.643V101.148ZM226.892 100.272H231.59V100.862H226.892V100.272ZM228.868 97.7239H229.609V98.4873H228.868V97.7239ZM228.823 98.5209H229.48V98.622C229.48 99.4078 228.727 99.9635 227.307 100.059L227.088 99.4976C228.34 99.4247 228.823 99.0149 228.823 98.622V98.5209ZM228.997 98.5209H229.654V98.622C229.654 99.0149 230.136 99.4247 231.388 99.4976L231.169 100.059C229.749 99.9635 228.997 99.4078 228.997 98.622V98.5209ZM227.341 98.1729H231.141V98.7511H227.341V98.1729ZM229.233 101.142C230.366 101.142 231.034 101.457 231.034 102.024C231.034 102.596 230.366 102.905 229.233 102.905C228.099 102.905 227.425 102.596 227.425 102.024C227.425 101.457 228.099 101.142 229.233 101.142ZM229.233 101.692C228.525 101.692 228.183 101.788 228.183 102.024C228.183 102.254 228.525 102.355 229.233 102.355C229.934 102.355 230.282 102.254 230.282 102.024C230.282 101.788 229.934 101.692 229.233 101.692Z" fill="#1E1E1E"/>
<path d="M366.133 97.8255H366.88V98.5776H366.133V97.8255ZM364.168 97.3876H368.85V97.9321H364.168V97.3876ZM366.133 95.176H366.874V95.8047H366.133V95.176ZM366.088 95.8384H366.745V95.9394C366.745 96.686 365.987 97.1799 364.55 97.2585L364.342 96.7028C365.611 96.6523 366.088 96.2987 366.088 95.9394V95.8384ZM366.262 95.8384H366.919V95.9394C366.919 96.2987 367.396 96.6523 368.659 96.7028L368.451 97.2585C367.02 97.1799 366.262 96.686 366.262 95.9394V95.8384ZM364.606 95.5858H368.406V96.1303H364.606V95.5858ZM364.696 98.2464H368.288V99.5319H365.437V100.026H364.702V99.0323H367.553V98.7853H364.696V98.2464ZM364.702 99.8013H368.423V100.346H364.702V99.8013ZM369.394 97.6571H369.792C370.758 97.6571 371.263 97.6402 371.852 97.5336L371.925 98.123C371.319 98.2352 370.786 98.2521 369.792 98.2521H369.394V97.6571ZM369.388 95.4791H371.673V97.1182H370.135V98.05H369.394V96.5625H370.932V96.0685H369.388V95.4791ZM372.801 95.1872H373.548V98.3868H372.801V95.1872ZM371.97 95.9001H372.936V96.4951H371.97V95.9001ZM371.97 97.0059H372.936V97.6009H371.97V97.0059ZM369.989 98.6225H373.548V100.385H372.801V99.2175H369.989V98.6225ZM374.238 97.7469H378.936V98.3363H374.238V97.7469ZM376.213 95.1985H376.954V95.9619H376.213V95.1985ZM376.169 95.9955H376.825V96.0966C376.825 96.8824 376.073 97.4381 374.653 97.5336L374.434 96.9722C375.686 96.8993 376.169 96.4895 376.169 96.0966V95.9955ZM376.343 95.9955H376.999V96.0966C376.999 96.4895 377.482 96.8993 378.734 96.9722L378.515 97.5336C377.095 97.4381 376.343 96.8824 376.343 96.0966V95.9955ZM374.687 95.6475H378.487V96.2257H374.687V95.6475ZM376.578 98.6169C377.712 98.6169 378.38 98.9313 378.38 99.4982C378.38 100.071 377.712 100.379 376.578 100.379C375.444 100.379 374.771 100.071 374.771 99.4982C374.771 98.9313 375.444 98.6169 376.578 98.6169ZM376.578 99.167C375.871 99.167 375.529 99.2624 375.529 99.4982C375.529 99.7283 375.871 99.8294 376.578 99.8294C377.28 99.8294 377.628 99.7283 377.628 99.4982C377.628 99.2624 377.28 99.167 376.578 99.167Z" fill="#1E1E1E"/>
<rect x="313.695" y="0.495117" width="24.6981" height="115.071" rx="3" fill="#DCDCDC"/>
<path d="M186.728 56.9113C186.385 56.9113 186.108 57.1889 186.108 57.5312C186.108 57.8736 186.385 58.1512 186.728 58.1512V56.9113ZM202.045 57.9696C202.287 57.7275 202.287 57.335 202.045 57.0929L198.099 53.1476C197.857 52.9055 197.465 52.9055 197.223 53.1476C196.98 53.3897 196.98 53.7822 197.223 54.0243L200.729 57.5312L197.223 61.0382C196.98 61.2803 196.98 61.6728 197.223 61.9149C197.465 62.157 197.857 62.157 198.099 61.9149L202.045 57.9696ZM186.728 58.1512H201.606V56.9113H186.728V58.1512Z" fill="#595959"/>
<path d="M56.7871 19.7298C56.7871 19.9259 56.9461 20.085 57.1423 20.085H64.3879V6.4462H57.1423C56.9461 6.4462 56.7871 6.60522 56.7871 6.80138V19.7298Z" fill="#CFE0FF"/>
<rect x="63.9258" y="6.44531" width="3.65831" height="13.6388" fill="#9193FF"/>
<path d="M67.584 6.44531H71.8106C72.0067 6.44531 72.1658 6.60433 72.1658 6.80049V19.7289C72.1658 19.9251 72.0067 20.0841 71.8106 20.0841H67.584V6.44531Z" fill="#97C0FF"/>
<path d="M60.6068 7.12441H60.721V7.54892H60.6068V7.12441ZM60.1959 7.58302H60.3076V7.65632H60.6085V7.58302H60.721V7.90523H60.1959V7.58302ZM60.3076 7.74327V7.81488H60.6085V7.74327H60.3076ZM60.2914 7.1568C60.4142 7.1568 60.5054 7.23438 60.5054 7.34349C60.5054 7.4526 60.4142 7.53017 60.2914 7.53017C60.1687 7.53017 60.0766 7.4526 60.0766 7.34349C60.0766 7.23438 60.1687 7.1568 60.2914 7.1568ZM60.2914 7.25057C60.2309 7.25057 60.1874 7.28552 60.1874 7.34349C60.1874 7.4023 60.2309 7.4364 60.2914 7.4364C60.3511 7.4364 60.3946 7.4023 60.3946 7.34349C60.3946 7.28552 60.3511 7.25057 60.2914 7.25057ZM60.8625 7.50033H60.923C61.0696 7.50033 61.1463 7.49777 61.2358 7.48158L61.2469 7.57108C61.1549 7.58813 61.0739 7.59069 60.923 7.59069H60.8625V7.50033ZM60.8616 7.16959H61.2086V7.4185H60.975V7.56H60.8625V7.33411H61.096V7.2591H60.8616V7.16959ZM61.3799 7.12527H61.4933V7.61115H61.3799V7.12527ZM61.2537 7.23352H61.4004V7.32388H61.2537V7.23352ZM61.2537 7.40145H61.4004V7.49181H61.2537V7.40145ZM60.9528 7.64695H61.4933V7.91461H61.3799V7.7373H60.9528V7.64695Z" fill="black"/>
<path d="M65.4471 7.3324H65.6074V7.42276H65.4471V7.3324ZM65.4429 7.52931H65.604V7.61967H65.4429V7.52931ZM65.7148 7.12441H65.823V7.91376H65.7148V7.12441ZM65.552 7.14146H65.6577V7.87881H65.552V7.14146ZM65.3738 7.21733H65.4829C65.4829 7.44151 65.4156 7.62052 65.1956 7.75009L65.1317 7.67082C65.3099 7.56256 65.3738 7.43129 65.3738 7.24034V7.21733ZM65.1769 7.21733H65.4122V7.30768H65.1769V7.21733ZM66.0881 7.173H66.181V7.25824C66.181 7.41509 66.1102 7.54977 65.9594 7.60177L65.8988 7.51312C66.0327 7.4705 66.0881 7.3648 66.0881 7.25824V7.173ZM66.1102 7.173H66.2023V7.2591C66.2023 7.35798 66.256 7.45686 66.383 7.49863L66.325 7.58643C66.1784 7.53784 66.1102 7.40742 66.1102 7.2591V7.173ZM66.4188 7.12441H66.5322V7.7015H66.4188V7.12441ZM66.4998 7.35286H66.637V7.44663H66.4998V7.35286ZM66.0233 7.80976H66.5603V7.90012H66.0233V7.80976ZM66.0233 7.64695H66.1375V7.8575H66.0233V7.64695Z" fill="black"/>
<circle cx="65.7724" cy="13.2656" r="1.20025" stroke="black" stroke-width="0.0857321"/>
<path d="M65.6315 12.976V12.8398H64.9922L65.4032 13.2483L64.9922 13.6567H65.6315V13.5206" stroke="black" stroke-width="0.123835" stroke-linecap="round" stroke-linejoin="round"/>
<path d="M64.5292 12.5554L64.1968 12.0377L63.9147 12.5843L64.5292 12.5554ZM60.1006 10.3296L64.0787 12.3828L64.1275 12.2881L60.1494 10.2349L60.1006 10.3296Z" fill="#4542FF"/>
<path d="M64.5292 13.9769L64.1968 14.4946L63.9147 13.9479L64.5292 13.9769ZM60.1006 16.2027L64.0787 14.1494L64.1275 14.2441L60.1494 16.2973L60.1006 16.2027Z" fill="#FF4242"/>
<path d="M64.5305 13.2656L63.9977 12.958L63.9977 13.5732L64.5305 13.2656ZM59.8066 13.3189L64.051 13.3189L64.051 13.2123L59.8066 13.2123L59.8066 13.3189Z" fill="#FFD942"/>
<path d="M71.7395 13.2656L70.8515 12.753L70.8515 13.7783L71.7395 13.2656ZM67.0156 13.3544L70.9403 13.3544L70.9403 13.1768L67.0156 13.1768L67.0156 13.3544Z" fill="#37FF94"/>
<path d="M69.6694 7.5259H69.7828V7.64013H69.6694V7.5259ZM69.3711 7.45941H70.082V7.5421H69.3711V7.45941ZM69.6694 7.12356H69.7819V7.21903H69.6694V7.12356ZM69.6626 7.22415H69.7623V7.23949C69.7623 7.35286 69.6473 7.42788 69.429 7.43981L69.3975 7.35542C69.5901 7.34775 69.6626 7.29405 69.6626 7.23949V7.22415ZM69.689 7.22415H69.7888V7.23949C69.7888 7.29405 69.8612 7.34775 70.053 7.35542L70.0215 7.43981C69.8041 7.42788 69.689 7.35286 69.689 7.23949V7.22415ZM69.4376 7.18579H70.0146V7.26847H69.4376V7.18579ZM69.4512 7.58984H69.9967V7.78504H69.5637V7.86005H69.452V7.70917H69.8851V7.67167H69.4512V7.58984ZM69.452 7.82596H70.0172V7.90864H69.452V7.82596ZM70.1672 7.50033H70.2277C70.3743 7.50033 70.451 7.49777 70.5405 7.48158L70.5516 7.57108C70.4595 7.58813 70.3786 7.59069 70.2277 7.59069H70.1672V7.50033ZM70.1663 7.16959H70.5132V7.4185H70.2797V7.56H70.1672V7.33411H70.4007V7.2591H70.1663V7.16959ZM70.6846 7.12527H70.798V7.61115H70.6846V7.12527ZM70.5584 7.23352H70.705V7.32388H70.5584V7.23352ZM70.5584 7.40145H70.705V7.49181H70.5584V7.40145ZM70.2575 7.64695H70.798V7.91461H70.6846V7.7373H70.2575V7.64695Z" fill="black"/>
<line x1="66.0218" y1="12.0928" x2="66.0218" y2="14.4014" stroke="black" stroke-width="0.0710352"/>
<g clip-path="url(#clip0_1009_2799)">
<path d="M66.3441 13.5481C66.3935 13.5481 66.4197 13.5041 66.4274 13.478C66.4275 13.4776 66.4276 13.4772 66.4277 13.4768C66.4457 13.4024 66.4743 13.2846 66.4954 13.1989H66.5712C66.5855 13.1989 66.597 13.1874 66.597 13.1731C66.597 13.1589 66.5855 13.1473 66.5712 13.1473H66.5083C66.515 13.1203 66.52 13.1011 66.522 13.0945L66.5241 13.0872C66.5321 13.0599 66.5509 12.996 66.5798 12.996C66.6067 12.996 66.6107 13.0373 66.6109 13.0393C66.612 13.0535 66.6244 13.0642 66.6386 13.063C66.6528 13.0619 66.6634 13.0495 66.6623 13.0353C66.6599 13.0038 66.6395 12.9443 66.5798 12.9443C66.5122 12.9443 66.4868 13.031 66.4746 13.0727L66.4725 13.0797C66.47 13.0879 66.4635 13.1134 66.4551 13.1473H66.3648C66.3505 13.1473 66.339 13.1589 66.339 13.1731C66.339 13.1874 66.3505 13.1989 66.3648 13.1989H66.4423C66.4158 13.3064 66.3816 13.4481 66.3778 13.4637C66.3764 13.4678 66.3658 13.4965 66.3442 13.4965C66.3111 13.4965 66.2968 13.4501 66.2967 13.4498C66.2927 13.4361 66.2784 13.4282 66.2647 13.4322C66.251 13.4362 66.2432 13.4505 66.2471 13.4642C66.2561 13.4953 66.2867 13.5481 66.3441 13.5481Z" fill="black"/>
<path d="M66.7286 13.4821C66.7438 13.4821 66.7566 13.4712 66.7566 13.454C66.7566 13.446 66.7534 13.4388 66.7466 13.4307L66.6929 13.369L66.745 13.3081C66.7498 13.302 66.7534 13.2956 66.7534 13.2872C66.7534 13.272 66.741 13.2607 66.725 13.2607C66.7141 13.2607 66.7057 13.2676 66.6985 13.2764L66.658 13.3293L66.6183 13.2764C66.6103 13.2664 66.6019 13.2607 66.5899 13.2607C66.5746 13.2607 66.5618 13.2716 66.5618 13.2888C66.5618 13.2968 66.565 13.304 66.5718 13.3121L66.6219 13.3698L66.567 13.4347C66.5618 13.4408 66.5586 13.4472 66.5586 13.4556C66.5586 13.4708 66.571 13.482 66.587 13.482C66.5979 13.482 66.6063 13.4752 66.6135 13.4664L66.6568 13.4095L66.7001 13.4664C66.7081 13.4764 66.7166 13.4821 66.7286 13.4821Z" fill="black"/>
</g>
<path d="M56.7871 62.6312C56.7871 62.8273 56.9461 62.9863 57.1423 62.9863H64.3879V49.3476H57.1423C56.9461 49.3476 56.7871 49.5066 56.7871 49.7027V62.6312Z" fill="#CFE0FF"/>
<rect x="63.9258" y="49.3477" width="3.65831" height="13.6388" fill="#9193FF"/>
<path d="M67.584 49.3477H71.8106C72.0067 49.3477 72.1658 49.5067 72.1658 49.7028V62.6312C72.1658 62.8274 72.0067 62.9864 71.8106 62.9864H67.584V49.3477Z" fill="#97C0FF"/>
<path d="M60.6068 50.0258H60.721V50.4503H60.6068V50.0258ZM60.1959 50.4844H60.3076V50.5577H60.6085V50.4844H60.721V50.8066H60.1959V50.4844ZM60.3076 50.6446V50.7162H60.6085V50.6446H60.3076ZM60.2914 50.0582C60.4142 50.0582 60.5054 50.1357 60.5054 50.2449C60.5054 50.354 60.4142 50.4315 60.2914 50.4315C60.1687 50.4315 60.0766 50.354 60.0766 50.2449C60.0766 50.1357 60.1687 50.0582 60.2914 50.0582ZM60.2914 50.1519C60.2309 50.1519 60.1874 50.1869 60.1874 50.2449C60.1874 50.3037 60.2309 50.3378 60.2914 50.3378C60.3511 50.3378 60.3946 50.3037 60.3946 50.2449C60.3946 50.1869 60.3511 50.1519 60.2914 50.1519ZM60.8625 50.4017H60.923C61.0696 50.4017 61.1463 50.3991 61.2358 50.3829L61.2469 50.4724C61.1549 50.4895 61.0739 50.4921 60.923 50.4921H60.8625V50.4017ZM60.8616 50.071H61.2086V50.3199H60.975V50.4614H60.8625V50.2355H61.096V50.1605H60.8616V50.071ZM61.3799 50.0266H61.4933V50.5125H61.3799V50.0266ZM61.2537 50.1349H61.4004V50.2252H61.2537V50.1349ZM61.2537 50.3028H61.4004V50.3932H61.2537V50.3028ZM60.9528 50.5483H61.4933V50.816H61.3799V50.6387H60.9528V50.5483Z" fill="black"/>
<path d="M65.4471 50.2338H65.6074V50.3241H65.4471V50.2338ZM65.4429 50.4307H65.604V50.521H65.4429V50.4307ZM65.7148 50.0258H65.823V50.8151H65.7148V50.0258ZM65.552 50.0428H65.6577V50.7802H65.552V50.0428ZM65.3738 50.1187H65.4829C65.4829 50.3429 65.4156 50.5219 65.1956 50.6515L65.1317 50.5722C65.3099 50.4639 65.3738 50.3327 65.3738 50.1417V50.1187ZM65.1769 50.1187H65.4122V50.2091H65.1769V50.1187ZM66.0881 50.0744H66.181V50.1596C66.181 50.3165 66.1102 50.4511 65.9594 50.5031L65.8988 50.4145C66.0327 50.3719 66.0881 50.2662 66.0881 50.1596V50.0744ZM66.1102 50.0744H66.2023V50.1605C66.2023 50.2593 66.256 50.3582 66.383 50.4L66.325 50.4878C66.1784 50.4392 66.1102 50.3088 66.1102 50.1605V50.0744ZM66.4188 50.0258H66.5322V50.6029H66.4188V50.0258ZM66.4998 50.2542H66.637V50.348H66.4998V50.2542ZM66.0233 50.7111H66.5603V50.8015H66.0233V50.7111ZM66.0233 50.5483H66.1375V50.7589H66.0233V50.5483Z" fill="black"/>
<circle cx="65.7724" cy="56.1679" r="1.20025" stroke="black" stroke-width="0.0857321"/>
<path d="M65.6315 55.8774V55.7412H64.9922L65.4032 56.1497L64.9922 56.5581H65.6315V56.422" stroke="black" stroke-width="0.123835" stroke-linecap="round" stroke-linejoin="round"/>
<path d="M64.5292 55.4577L64.1968 54.94L63.9147 55.4867L64.5292 55.4577ZM60.1006 53.2319L64.0787 55.2851L64.1275 55.1904L60.1494 53.1372L60.1006 53.2319Z" fill="#4542FF"/>
<path d="M64.5292 56.8782L64.1968 57.3959L63.9147 56.8493L64.5292 56.8782ZM60.1006 59.104L64.0787 57.0508L64.1275 57.1455L60.1494 59.1987L60.1006 59.104Z" fill="#FF4242"/>
<path d="M64.5305 56.168L63.9977 55.8604L63.9977 56.4756L64.5305 56.168ZM59.8066 56.2212L64.051 56.2212L64.051 56.1147L59.8066 56.1147L59.8066 56.2212Z" fill="#FFD942"/>
<path d="M71.7395 56.168L70.8515 55.6553L70.8515 56.6806L71.7395 56.168ZM67.0156 56.2568L70.9403 56.2568L70.9403 56.0792L67.0156 56.0792L67.0156 56.2568Z" fill="#37FF94"/>
<path d="M69.6694 50.4273H69.7828V50.5415H69.6694V50.4273ZM69.3711 50.3608H70.082V50.4435H69.3711V50.3608ZM69.6694 50.0249H69.7819V50.1204H69.6694V50.0249ZM69.6626 50.1255H69.7623V50.1409C69.7623 50.2542 69.6473 50.3292 69.429 50.3412L69.3975 50.2568C69.5901 50.2491 69.6626 50.1954 69.6626 50.1409V50.1255ZM69.689 50.1255H69.7888V50.1409C69.7888 50.1954 69.8612 50.2491 70.053 50.2568L70.0215 50.3412C69.8041 50.3292 69.689 50.2542 69.689 50.1409V50.1255ZM69.4376 50.0872H70.0146V50.1698H69.4376V50.0872ZM69.4512 50.4912H69.9967V50.6864H69.5637V50.7614H69.452V50.6105H69.8851V50.573H69.4512V50.4912ZM69.452 50.7273H70.0172V50.81H69.452V50.7273ZM70.1672 50.4017H70.2277C70.3743 50.4017 70.451 50.3991 70.5405 50.3829L70.5516 50.4724C70.4595 50.4895 70.3786 50.4921 70.2277 50.4921H70.1672V50.4017ZM70.1663 50.071H70.5132V50.3199H70.2797V50.4614H70.1672V50.2355H70.4007V50.1605H70.1663V50.071ZM70.6846 50.0266H70.798V50.5125H70.6846V50.0266ZM70.5584 50.1349H70.705V50.2252H70.5584V50.1349ZM70.5584 50.3028H70.705V50.3932H70.5584V50.3028ZM70.2575 50.5483H70.798V50.816H70.6846V50.6387H70.2575V50.5483Z" fill="black"/>
<line x1="66.0218" y1="54.9951" x2="66.0218" y2="57.3038" stroke="black" stroke-width="0.0710352"/>
<g clip-path="url(#clip1_1009_2799)">
<path d="M66.3441 56.4475C66.3935 56.4475 66.4197 56.4035 66.4274 56.3775C66.4275 56.377 66.4276 56.3766 66.4277 56.3762C66.4457 56.3019 66.4743 56.184 66.4954 56.0984H66.5712C66.5855 56.0984 66.597 56.0868 66.597 56.0725C66.597 56.0583 66.5855 56.0467 66.5712 56.0467H66.5083C66.515 56.0197 66.52 56.0005 66.522 55.994L66.5241 55.9866C66.5321 55.9593 66.5509 55.8954 66.5798 55.8954C66.6067 55.8954 66.6107 55.9367 66.6109 55.9387C66.612 55.9529 66.6244 55.9636 66.6386 55.9624C66.6528 55.9613 66.6634 55.9489 66.6623 55.9347C66.6599 55.9032 66.6395 55.8438 66.5798 55.8438C66.5122 55.8438 66.4868 55.9304 66.4746 55.9721L66.4725 55.9791C66.47 55.9874 66.4635 56.0128 66.4551 56.0467H66.3648C66.3505 56.0467 66.339 56.0583 66.339 56.0725C66.339 56.0868 66.3505 56.0984 66.3648 56.0984H66.4423C66.4158 56.2058 66.3816 56.3475 66.3778 56.3631C66.3764 56.3672 66.3658 56.3959 66.3442 56.3959C66.3111 56.3959 66.2968 56.3496 66.2967 56.3492C66.2927 56.3355 66.2784 56.3276 66.2647 56.3316C66.251 56.3356 66.2432 56.3499 66.2471 56.3636C66.2561 56.3948 66.2867 56.4475 66.3441 56.4475Z" fill="black"/>
<path d="M66.7286 56.3815C66.7438 56.3815 66.7566 56.3706 66.7566 56.3534C66.7566 56.3454 66.7534 56.3382 66.7466 56.3301L66.6929 56.2684L66.745 56.2075C66.7498 56.2015 66.7534 56.195 66.7534 56.1866C66.7534 56.1714 66.741 56.1602 66.725 56.1602C66.7141 56.1602 66.7057 56.167 66.6985 56.1758L66.658 56.2287L66.6183 56.1758C66.6103 56.1658 66.6019 56.1602 66.5899 56.1602C66.5746 56.1602 66.5618 56.171 66.5618 56.1882C66.5618 56.1962 66.565 56.2035 66.5718 56.2115L66.6219 56.2692L66.567 56.3342C66.5618 56.3402 66.5586 56.3466 66.5586 56.355C66.5586 56.3702 66.571 56.3815 66.587 56.3815C66.5979 56.3815 66.6063 56.3746 66.6135 56.3658L66.6568 56.3089L66.7001 56.3658C66.7081 56.3759 66.7166 56.3815 66.7286 56.3815Z" fill="black"/>
</g>
<path d="M56.7871 107.516C56.7871 107.712 56.9461 107.871 57.1423 107.871H64.3879V94.2323H57.1423C56.9461 94.2323 56.7871 94.3914 56.7871 94.5875V107.516Z" fill="#CFE0FF"/>
<rect x="63.9258" y="94.2314" width="3.65831" height="13.6388" fill="#9193FF"/>
<path d="M67.584 94.2314H71.8106C72.0067 94.2314 72.1658 94.3905 72.1658 94.5866V107.515C72.1658 107.711 72.0067 107.87 71.8106 107.87H67.584V94.2314Z" fill="#97C0FF"/>
<path d="M60.6068 94.9105H60.721V95.3351H60.6068V94.9105ZM60.1959 95.3691H60.3076V95.4425H60.6085V95.3691H60.721V95.6914H60.1959V95.3691ZM60.3076 95.5294V95.601H60.6085V95.5294H60.3076ZM60.2914 94.9429C60.4142 94.9429 60.5054 95.0205 60.5054 95.1296C60.5054 95.2387 60.4142 95.3163 60.2914 95.3163C60.1687 95.3163 60.0766 95.2387 60.0766 95.1296C60.0766 95.0205 60.1687 94.9429 60.2914 94.9429ZM60.2914 95.0367C60.2309 95.0367 60.1874 95.0717 60.1874 95.1296C60.1874 95.1884 60.2309 95.2225 60.2914 95.2225C60.3511 95.2225 60.3946 95.1884 60.3946 95.1296C60.3946 95.0717 60.3511 95.0367 60.2914 95.0367ZM60.8625 95.2865H60.923C61.0696 95.2865 61.1463 95.2839 61.2358 95.2677L61.2469 95.3572C61.1549 95.3743 61.0739 95.3768 60.923 95.3768H60.8625V95.2865ZM60.8616 94.9557H61.2086V95.2046H60.975V95.3461H60.8625V95.1202H61.096V95.0452H60.8616V94.9557ZM61.3799 94.9114H61.4933V95.3973H61.3799V94.9114ZM61.2537 95.0197H61.4004V95.11H61.2537V95.0197ZM61.2537 95.1876H61.4004V95.2779H61.2537V95.1876ZM60.9528 95.4331H61.4933V95.7007H61.3799V95.5234H60.9528V95.4331Z" fill="black"/>
<path d="M65.4471 95.1185H65.6074V95.2089H65.4471V95.1185ZM65.4429 95.3154H65.604V95.4058H65.4429V95.3154ZM65.7148 94.9105H65.823V95.6999H65.7148V94.9105ZM65.552 94.9276H65.6577V95.6649H65.552V94.9276ZM65.3738 95.0035H65.4829C65.4829 95.2276 65.4156 95.4067 65.1956 95.5362L65.1317 95.4569C65.3099 95.3487 65.3738 95.2174 65.3738 95.0265V95.0035ZM65.1769 95.0035H65.4122V95.0938H65.1769V95.0035ZM66.0881 94.9591H66.181V95.0444C66.181 95.2012 66.1102 95.3359 65.9594 95.3879L65.8988 95.2993C66.0327 95.2566 66.0881 95.1509 66.0881 95.0444V94.9591ZM66.1102 94.9591H66.2023V95.0452C66.2023 95.1441 66.256 95.243 66.383 95.2848L66.325 95.3726C66.1784 95.324 66.1102 95.1936 66.1102 95.0452V94.9591ZM66.4188 94.9105H66.5322V95.4876H66.4188V94.9105ZM66.4998 95.139H66.637V95.2328H66.4998V95.139ZM66.0233 95.5959H66.5603V95.6863H66.0233V95.5959ZM66.0233 95.4331H66.1375V95.6436H66.0233V95.4331Z" fill="black"/>
<circle cx="65.7724" cy="101.052" r="1.20025" stroke="black" stroke-width="0.0857321"/>
<path d="M65.6315 100.762V100.626H64.9922L65.4032 101.034L64.9922 101.443H65.6315V101.307" stroke="black" stroke-width="0.123835" stroke-linecap="round" stroke-linejoin="round"/>
<path d="M64.5292 100.341L64.1968 99.8238L63.9147 100.37L64.5292 100.341ZM60.1006 98.1157L64.0787 100.169L64.1275 100.074L60.1494 98.021L60.1006 98.1157Z" fill="#4542FF"/>
<path d="M64.5292 101.763L64.1968 102.281L63.9147 101.734L64.5292 101.763ZM60.1006 103.989L64.0787 101.936L64.1275 102.03L60.1494 104.083L60.1006 103.989Z" fill="#FF4242"/>
<path d="M64.5305 101.052L63.9977 100.744L63.9977 101.359L64.5305 101.052ZM59.8066 101.105L64.051 101.105L64.051 100.998L59.8066 100.998L59.8066 101.105Z" fill="#FFD942"/>
<path d="M71.7395 101.052L70.8515 100.539L70.8515 101.564L71.7395 101.052ZM67.0156 101.141L70.9403 101.141L70.9403 100.963L67.0156 100.963L67.0156 101.141Z" fill="#37FF94"/>
<path d="M69.6694 95.312H69.7828V95.4263H69.6694V95.312ZM69.3711 95.2455H70.082V95.3282H69.3711V95.2455ZM69.6694 94.9097H69.7819V95.0052H69.6694V94.9097ZM69.6626 95.0103H69.7623V95.0256C69.7623 95.139 69.6473 95.214 69.429 95.2259L69.3975 95.1416C69.5901 95.1339 69.6626 95.0802 69.6626 95.0256V95.0103ZM69.689 95.0103H69.7888V95.0256C69.7888 95.0802 69.8612 95.1339 70.053 95.1416L70.0215 95.2259C69.8041 95.214 69.689 95.139 69.689 95.0256V95.0103ZM69.4376 94.9719H70.0146V95.0546H69.4376V94.9719ZM69.4512 95.376H69.9967V95.5712H69.5637V95.6462H69.452V95.4953H69.8851V95.4578H69.4512V95.376ZM69.452 95.6121H70.0172V95.6948H69.452V95.6121ZM70.1672 95.2865H70.2277C70.3743 95.2865 70.451 95.2839 70.5405 95.2677L70.5516 95.3572C70.4595 95.3743 70.3786 95.3768 70.2277 95.3768H70.1672V95.2865ZM70.1663 94.9557H70.5132V95.2046H70.2797V95.3461H70.1672V95.1202H70.4007V95.0452H70.1663V94.9557ZM70.6846 94.9114H70.798V95.3973H70.6846V94.9114ZM70.5584 95.0197H70.705V95.11H70.5584V95.0197ZM70.5584 95.1876H70.705V95.2779H70.5584V95.1876ZM70.2575 95.4331H70.798V95.7007H70.6846V95.5234H70.2575V95.4331Z" fill="black"/>
<line x1="66.0218" y1="99.8789" x2="66.0218" y2="102.188" stroke="black" stroke-width="0.0710352"/>
<g clip-path="url(#clip2_1009_2799)">
<path d="M66.3441 101.333C66.3935 101.333 66.4197 101.289 66.4274 101.263C66.4275 101.263 66.4276 101.262 66.4277 101.262C66.4457 101.188 66.4743 101.07 66.4954 100.984H66.5712C66.5855 100.984 66.597 100.973 66.597 100.958C66.597 100.944 66.5855 100.932 66.5712 100.932H66.5083C66.515 100.905 66.52 100.886 66.522 100.88L66.5241 100.872C66.5321 100.845 66.5509 100.781 66.5798 100.781C66.6067 100.781 66.6107 100.822 66.6109 100.824C66.612 100.839 66.6244 100.849 66.6386 100.848C66.6528 100.847 66.6634 100.835 66.6623 100.82C66.6599 100.789 66.6395 100.729 66.5798 100.729C66.5122 100.729 66.4868 100.816 66.4746 100.858L66.4725 100.865C66.47 100.873 66.4635 100.899 66.4551 100.932H66.3648C66.3505 100.932 66.339 100.944 66.339 100.958C66.339 100.973 66.3505 100.984 66.3648 100.984H66.4423C66.4158 101.092 66.3816 101.233 66.3778 101.249C66.3764 101.253 66.3658 101.282 66.3442 101.282C66.3111 101.282 66.2968 101.235 66.2967 101.235C66.2927 101.221 66.2784 101.213 66.2647 101.217C66.251 101.221 66.2432 101.236 66.2471 101.249C66.2561 101.28 66.2867 101.333 66.3441 101.333Z" fill="black"/>
<path d="M66.7286 101.267C66.7438 101.267 66.7566 101.256 66.7566 101.239C66.7566 101.231 66.7534 101.224 66.7466 101.216L66.6929 101.154L66.745 101.093C66.7498 101.087 66.7534 101.081 66.7534 101.072C66.7534 101.057 66.741 101.046 66.725 101.046C66.7141 101.046 66.7057 101.053 66.6985 101.062L66.658 101.114L66.6183 101.062C66.6103 101.052 66.6019 101.046 66.5899 101.046C66.5746 101.046 66.5618 101.057 66.5618 101.074C66.5618 101.082 66.565 101.089 66.5718 101.097L66.6219 101.155L66.567 101.22C66.5618 101.226 66.5586 101.232 66.5586 101.241C66.5586 101.256 66.571 101.267 66.587 101.267C66.5979 101.267 66.6063 101.26 66.6135 101.252L66.6568 101.195L66.7001 101.252C66.7081 101.262 66.7166 101.267 66.7286 101.267Z" fill="black"/>
</g>
<rect x="101.423" width="24.6981" height="115.071" rx="3" fill="#F0F0F0"/>
<path d="M106.008 19.7298C106.008 19.9259 106.167 20.085 106.363 20.085H113.609V6.4462H106.363C106.167 6.4462 106.008 6.60522 106.008 6.80138V19.7298Z" fill="#CFE0FF"/>
<rect x="113.146" y="6.44531" width="3.65831" height="13.6388" fill="#9193FF"/>
<path d="M116.805 6.44531H121.031C121.227 6.44531 121.386 6.60433 121.386 6.80049V19.7289C121.386 19.9251 121.227 20.0841 121.031 20.0841H116.805V6.44531Z" fill="#97C0FF"/>
<path d="M109.827 7.12441H109.941V7.54892H109.827V7.12441ZM109.416 7.58302H109.527V7.65632H109.828V7.58302H109.941V7.90523H109.416V7.58302ZM109.527 7.74327V7.81488H109.828V7.74327H109.527ZM109.511 7.1568C109.634 7.1568 109.725 7.23438 109.725 7.34349C109.725 7.4526 109.634 7.53017 109.511 7.53017C109.388 7.53017 109.296 7.4526 109.296 7.34349C109.296 7.23438 109.388 7.1568 109.511 7.1568ZM109.511 7.25057C109.451 7.25057 109.407 7.28552 109.407 7.34349C109.407 7.4023 109.451 7.4364 109.511 7.4364C109.571 7.4364 109.614 7.4023 109.614 7.34349C109.614 7.28552 109.571 7.25057 109.511 7.25057ZM110.082 7.50033H110.143C110.289 7.50033 110.366 7.49777 110.456 7.48158L110.467 7.57108C110.375 7.58813 110.294 7.59069 110.143 7.59069H110.082V7.50033ZM110.081 7.16959H110.428V7.4185H110.195V7.56H110.082V7.33411H110.316V7.2591H110.081V7.16959ZM110.6 7.12527H110.713V7.61115H110.6V7.12527ZM110.473 7.23352H110.62V7.32388H110.473V7.23352ZM110.473 7.40145H110.62V7.49181H110.473V7.40145ZM110.173 7.64695H110.713V7.91461H110.6V7.7373H110.173V7.64695Z" fill="black"/>
<path d="M114.667 7.3324H114.827V7.42276H114.667V7.3324ZM114.663 7.52931H114.824V7.61967H114.663V7.52931ZM114.935 7.12441H115.043V7.91376H114.935V7.12441ZM114.772 7.14146H114.877V7.87881H114.772V7.14146ZM114.594 7.21733H114.703C114.703 7.44151 114.635 7.62052 114.415 7.75009L114.351 7.67082C114.53 7.56256 114.594 7.43129 114.594 7.24034V7.21733ZM114.397 7.21733H114.632V7.30768H114.397V7.21733ZM115.308 7.173H115.401V7.25824C115.401 7.41509 115.33 7.54977 115.179 7.60177L115.119 7.51312C115.252 7.4705 115.308 7.3648 115.308 7.25824V7.173ZM115.33 7.173H115.422V7.2591C115.422 7.35798 115.476 7.45686 115.603 7.49863L115.545 7.58643C115.398 7.53784 115.33 7.40742 115.33 7.2591V7.173ZM115.639 7.12441H115.752V7.7015H115.639V7.12441ZM115.72 7.35286H115.857V7.44663H115.72V7.35286ZM115.243 7.80976H115.78V7.90012H115.243V7.80976ZM115.243 7.64695H115.357V7.8575H115.243V7.64695Z" fill="black"/>
<circle cx="114.993" cy="13.2656" r="1.20025" stroke="black" stroke-width="0.0857321"/>
<path d="M114.851 12.976V12.8398H114.212L114.623 13.2483L114.212 13.6567H114.851V13.5206" stroke="black" stroke-width="0.123835" stroke-linecap="round" stroke-linejoin="round"/>
<path d="M113.75 12.5554L113.418 12.0377L113.135 12.5843L113.75 12.5554ZM109.321 10.3296L113.299 12.3828L113.348 12.2881L109.37 10.2349L109.321 10.3296Z" fill="#4542FF"/>
<path d="M113.75 13.9769L113.418 14.4946L113.135 13.9479L113.75 13.9769ZM109.321 16.2027L113.299 14.1494L113.348 14.2441L109.37 16.2973L109.321 16.2027Z" fill="#FF4242"/>
<path d="M113.75 13.2656L113.217 12.958L113.217 13.5732L113.75 13.2656ZM109.026 13.3189L113.271 13.3189L113.271 13.2123L109.026 13.2123L109.026 13.3189Z" fill="#FFD942"/>
<path d="M120.959 13.2656L120.071 12.753L120.071 13.7783L120.959 13.2656ZM116.235 13.3544L120.16 13.3544L120.16 13.1768L116.235 13.1768L116.235 13.3544Z" fill="#37FF94"/>
<path d="M118.889 7.5259H119.003V7.64013H118.889V7.5259ZM118.591 7.45941H119.302V7.5421H118.591V7.45941ZM118.889 7.12356H119.002V7.21903H118.889V7.12356ZM118.882 7.22415H118.982V7.23949C118.982 7.35286 118.867 7.42788 118.649 7.43981L118.617 7.35542C118.81 7.34775 118.882 7.29405 118.882 7.23949V7.22415ZM118.909 7.22415H119.008V7.23949C119.008 7.29405 119.081 7.34775 119.273 7.35542L119.241 7.43981C119.024 7.42788 118.909 7.35286 118.909 7.23949V7.22415ZM118.657 7.18579H119.234V7.26847H118.657V7.18579ZM118.671 7.58984H119.216V7.78504H118.783V7.86005H118.672V7.70917H119.105V7.67167H118.671V7.58984ZM118.672 7.82596H119.237V7.90864H118.672V7.82596ZM119.387 7.50033H119.447C119.594 7.50033 119.671 7.49777 119.76 7.48158L119.771 7.57108C119.679 7.58813 119.598 7.59069 119.447 7.59069H119.387V7.50033ZM119.386 7.16959H119.733V7.4185H119.499V7.56H119.387V7.33411H119.62V7.2591H119.386V7.16959ZM119.904 7.12527H120.018V7.61115H119.904V7.12527ZM119.778 7.23352H119.925V7.32388H119.778V7.23352ZM119.778 7.40145H119.925V7.49181H119.778V7.40145ZM119.477 7.64695H120.018V7.91461H119.904V7.7373H119.477V7.64695Z" fill="black"/>
<line x1="115.241" y1="12.0928" x2="115.241" y2="14.4014" stroke="black" stroke-width="0.0710352"/>
<g clip-path="url(#clip3_1009_2799)">
<path d="M115.564 13.5481C115.613 13.5481 115.639 13.5041 115.647 13.478C115.647 13.4776 115.647 13.4772 115.647 13.4768C115.665 13.4024 115.694 13.2846 115.715 13.1989H115.791C115.805 13.1989 115.817 13.1874 115.817 13.1731C115.817 13.1589 115.805 13.1473 115.791 13.1473H115.728C115.735 13.1203 115.74 13.1011 115.742 13.0945L115.744 13.0872C115.752 13.0599 115.771 12.996 115.8 12.996C115.826 12.996 115.83 13.0373 115.831 13.0393C115.832 13.0535 115.844 13.0642 115.858 13.063C115.872 13.0619 115.883 13.0495 115.882 13.0353C115.88 13.0038 115.859 12.9443 115.8 12.9443C115.732 12.9443 115.707 13.031 115.694 13.0727L115.692 13.0797C115.69 13.0879 115.683 13.1134 115.675 13.1473H115.585C115.57 13.1473 115.559 13.1589 115.559 13.1731C115.559 13.1874 115.57 13.1989 115.585 13.1989H115.662C115.636 13.3064 115.601 13.4481 115.598 13.4637C115.596 13.4678 115.586 13.4965 115.564 13.4965C115.531 13.4965 115.517 13.4501 115.516 13.4498C115.512 13.4361 115.498 13.4282 115.484 13.4322C115.471 13.4362 115.463 13.4505 115.467 13.4642C115.476 13.4953 115.506 13.5481 115.564 13.5481Z" fill="black"/>
<path d="M115.947 13.4821C115.963 13.4821 115.975 13.4712 115.975 13.454C115.975 13.446 115.972 13.4388 115.965 13.4307L115.912 13.369L115.964 13.3081C115.969 13.302 115.972 13.2956 115.972 13.2872C115.972 13.272 115.96 13.2607 115.944 13.2607C115.933 13.2607 115.924 13.2676 115.917 13.2764L115.877 13.3293L115.837 13.2764C115.829 13.2664 115.821 13.2607 115.809 13.2607C115.793 13.2607 115.781 13.2716 115.781 13.2888C115.781 13.2968 115.784 13.304 115.791 13.3121L115.841 13.3698L115.786 13.4347C115.781 13.4408 115.777 13.4472 115.777 13.4556C115.777 13.4708 115.79 13.482 115.806 13.482C115.817 13.482 115.825 13.4752 115.832 13.4664L115.876 13.4095L115.919 13.4664C115.927 13.4764 115.935 13.4821 115.947 13.4821Z" fill="black"/>
</g>
<path d="M106.008 62.6312C106.008 62.8273 106.167 62.9863 106.363 62.9863H113.609V49.3476H106.363C106.167 49.3476 106.008 49.5066 106.008 49.7027V62.6312Z" fill="#CFE0FF"/>
<rect x="113.146" y="49.3477" width="3.65831" height="13.6388" fill="#9193FF"/>
<path d="M116.805 49.3477H121.031C121.227 49.3477 121.386 49.5067 121.386 49.7028V62.6312C121.386 62.8274 121.227 62.9864 121.031 62.9864H116.805V49.3477Z" fill="#97C0FF"/>
<path d="M109.827 50.0258H109.941V50.4503H109.827V50.0258ZM109.416 50.4844H109.527V50.5577H109.828V50.4844H109.941V50.8066H109.416V50.4844ZM109.527 50.6446V50.7162H109.828V50.6446H109.527ZM109.511 50.0582C109.634 50.0582 109.725 50.1357 109.725 50.2449C109.725 50.354 109.634 50.4315 109.511 50.4315C109.388 50.4315 109.296 50.354 109.296 50.2449C109.296 50.1357 109.388 50.0582 109.511 50.0582ZM109.511 50.1519C109.451 50.1519 109.407 50.1869 109.407 50.2449C109.407 50.3037 109.451 50.3378 109.511 50.3378C109.571 50.3378 109.614 50.3037 109.614 50.2449C109.614 50.1869 109.571 50.1519 109.511 50.1519ZM110.082 50.4017H110.143C110.289 50.4017 110.366 50.3991 110.456 50.3829L110.467 50.4724C110.375 50.4895 110.294 50.4921 110.143 50.4921H110.082V50.4017ZM110.081 50.071H110.428V50.3199H110.195V50.4614H110.082V50.2355H110.316V50.1605H110.081V50.071ZM110.6 50.0266H110.713V50.5125H110.6V50.0266ZM110.473 50.1349H110.62V50.2252H110.473V50.1349ZM110.473 50.3028H110.62V50.3932H110.473V50.3028ZM110.173 50.5483H110.713V50.816H110.6V50.6387H110.173V50.5483Z" fill="black"/>
<path d="M114.667 50.2338H114.827V50.3241H114.667V50.2338ZM114.663 50.4307H114.824V50.521H114.663V50.4307ZM114.935 50.0258H115.043V50.8151H114.935V50.0258ZM114.772 50.0428H114.877V50.7802H114.772V50.0428ZM114.594 50.1187H114.703C114.703 50.3429 114.635 50.5219 114.415 50.6515L114.351 50.5722C114.53 50.4639 114.594 50.3327 114.594 50.1417V50.1187ZM114.397 50.1187H114.632V50.2091H114.397V50.1187ZM115.308 50.0744H115.401V50.1596C115.401 50.3165 115.33 50.4511 115.179 50.5031L115.119 50.4145C115.252 50.3719 115.308 50.2662 115.308 50.1596V50.0744ZM115.33 50.0744H115.422V50.1605C115.422 50.2593 115.476 50.3582 115.603 50.4L115.545 50.4878C115.398 50.4392 115.33 50.3088 115.33 50.1605V50.0744ZM115.639 50.0258H115.752V50.6029H115.639V50.0258ZM115.72 50.2542H115.857V50.348H115.72V50.2542ZM115.243 50.7111H115.78V50.8015H115.243V50.7111ZM115.243 50.5483H115.357V50.7589H115.243V50.5483Z" fill="black"/>
<circle cx="114.993" cy="56.1679" r="1.20025" stroke="black" stroke-width="0.0857321"/>
<path d="M114.851 55.8774V55.7412H114.212L114.623 56.1497L114.212 56.5581H114.851V56.422" stroke="black" stroke-width="0.123835" stroke-linecap="round" stroke-linejoin="round"/>
<path d="M113.75 55.4577L113.418 54.94L113.135 55.4867L113.75 55.4577ZM109.321 53.2319L113.299 55.2851L113.348 55.1904L109.37 53.1372L109.321 53.2319Z" fill="#4542FF"/>
<path d="M113.75 56.8782L113.418 57.3959L113.135 56.8493L113.75 56.8782ZM109.321 59.104L113.299 57.0508L113.348 57.1455L109.37 59.1987L109.321 59.104Z" fill="#FF4242"/>
<path d="M113.75 56.168L113.217 55.8604L113.217 56.4756L113.75 56.168ZM109.026 56.2212L113.271 56.2212L113.271 56.1147L109.026 56.1147L109.026 56.2212Z" fill="#FFD942"/>
<path d="M120.959 56.168L120.071 55.6553L120.071 56.6806L120.959 56.168ZM116.235 56.2568L120.16 56.2568L120.16 56.0792L116.235 56.0792L116.235 56.2568Z" fill="#37FF94"/>
<path d="M118.889 50.4273H119.003V50.5415H118.889V50.4273ZM118.591 50.3608H119.302V50.4435H118.591V50.3608ZM118.889 50.0249H119.002V50.1204H118.889V50.0249ZM118.882 50.1255H118.982V50.1409C118.982 50.2542 118.867 50.3292 118.649 50.3412L118.617 50.2568C118.81 50.2491 118.882 50.1954 118.882 50.1409V50.1255ZM118.909 50.1255H119.008V50.1409C119.008 50.1954 119.081 50.2491 119.273 50.2568L119.241 50.3412C119.024 50.3292 118.909 50.2542 118.909 50.1409V50.1255ZM118.657 50.0872H119.234V50.1698H118.657V50.0872ZM118.671 50.4912H119.216V50.6864H118.783V50.7614H118.672V50.6105H119.105V50.573H118.671V50.4912ZM118.672 50.7273H119.237V50.81H118.672V50.7273ZM119.387 50.4017H119.447C119.594 50.4017 119.671 50.3991 119.76 50.3829L119.771 50.4724C119.679 50.4895 119.598 50.4921 119.447 50.4921H119.387V50.4017ZM119.386 50.071H119.733V50.3199H119.499V50.4614H119.387V50.2355H119.62V50.1605H119.386V50.071ZM119.904 50.0266H120.018V50.5125H119.904V50.0266ZM119.778 50.1349H119.925V50.2252H119.778V50.1349ZM119.778 50.3028H119.925V50.3932H119.778V50.3028ZM119.477 50.5483H120.018V50.816H119.904V50.6387H119.477V50.5483Z" fill="black"/>
<line x1="115.241" y1="54.9951" x2="115.241" y2="57.3038" stroke="black" stroke-width="0.0710352"/>
<g clip-path="url(#clip4_1009_2799)">
<path d="M115.564 56.4475C115.613 56.4475 115.639 56.4035 115.647 56.3775C115.647 56.377 115.647 56.3766 115.647 56.3762C115.665 56.3019 115.694 56.184 115.715 56.0984H115.791C115.805 56.0984 115.817 56.0868 115.817 56.0725C115.817 56.0583 115.805 56.0467 115.791 56.0467H115.728C115.735 56.0197 115.74 56.0005 115.742 55.994L115.744 55.9866C115.752 55.9593 115.771 55.8954 115.8 55.8954C115.826 55.8954 115.83 55.9367 115.831 55.9387C115.832 55.9529 115.844 55.9636 115.858 55.9624C115.872 55.9613 115.883 55.9489 115.882 55.9347C115.88 55.9032 115.859 55.8438 115.8 55.8438C115.732 55.8438 115.707 55.9304 115.694 55.9721L115.692 55.9791C115.69 55.9874 115.683 56.0128 115.675 56.0467H115.585C115.57 56.0467 115.559 56.0583 115.559 56.0725C115.559 56.0868 115.57 56.0984 115.585 56.0984H115.662C115.636 56.2058 115.601 56.3475 115.598 56.3631C115.596 56.3672 115.586 56.3959 115.564 56.3959C115.531 56.3959 115.517 56.3496 115.516 56.3492C115.512 56.3355 115.498 56.3276 115.484 56.3316C115.471 56.3356 115.463 56.3499 115.467 56.3636C115.476 56.3948 115.506 56.4475 115.564 56.4475Z" fill="black"/>
<path d="M115.947 56.3815C115.963 56.3815 115.975 56.3706 115.975 56.3534C115.975 56.3454 115.972 56.3382 115.965 56.3301L115.912 56.2684L115.964 56.2075C115.969 56.2015 115.972 56.195 115.972 56.1866C115.972 56.1714 115.96 56.1602 115.944 56.1602C115.933 56.1602 115.924 56.167 115.917 56.1758L115.877 56.2287L115.837 56.1758C115.829 56.1658 115.821 56.1602 115.809 56.1602C115.793 56.1602 115.781 56.171 115.781 56.1882C115.781 56.1962 115.784 56.2035 115.791 56.2115L115.841 56.2692L115.786 56.3342C115.781 56.3402 115.777 56.3466 115.777 56.355C115.777 56.3702 115.79 56.3815 115.806 56.3815C115.817 56.3815 115.825 56.3746 115.832 56.3658L115.876 56.3089L115.919 56.3658C115.927 56.3759 115.935 56.3815 115.947 56.3815Z" fill="black"/>
</g>
<path d="M106.008 107.516C106.008 107.712 106.167 107.871 106.363 107.871H113.609V94.2323H106.363C106.167 94.2323 106.008 94.3914 106.008 94.5875V107.516Z" fill="#CFE0FF"/>
<rect x="113.146" y="94.2314" width="3.65831" height="13.6388" fill="#9193FF"/>
<path d="M116.805 94.2314H121.031C121.227 94.2314 121.386 94.3905 121.386 94.5866V107.515C121.386 107.711 121.227 107.87 121.031 107.87H116.805V94.2314Z" fill="#97C0FF"/>
<path d="M109.827 94.9105H109.941V95.3351H109.827V94.9105ZM109.416 95.3691H109.527V95.4425H109.828V95.3691H109.941V95.6914H109.416V95.3691ZM109.527 95.5294V95.601H109.828V95.5294H109.527ZM109.511 94.9429C109.634 94.9429 109.725 95.0205 109.725 95.1296C109.725 95.2387 109.634 95.3163 109.511 95.3163C109.388 95.3163 109.296 95.2387 109.296 95.1296C109.296 95.0205 109.388 94.9429 109.511 94.9429ZM109.511 95.0367C109.451 95.0367 109.407 95.0717 109.407 95.1296C109.407 95.1884 109.451 95.2225 109.511 95.2225C109.571 95.2225 109.614 95.1884 109.614 95.1296C109.614 95.0717 109.571 95.0367 109.511 95.0367ZM110.082 95.2865H110.143C110.289 95.2865 110.366 95.2839 110.456 95.2677L110.467 95.3572C110.375 95.3743 110.294 95.3768 110.143 95.3768H110.082V95.2865ZM110.081 94.9557H110.428V95.2046H110.195V95.3461H110.082V95.1202H110.316V95.0452H110.081V94.9557ZM110.6 94.9114H110.713V95.3973H110.6V94.9114ZM110.473 95.0197H110.62V95.11H110.473V95.0197ZM110.473 95.1876H110.62V95.2779H110.473V95.1876ZM110.173 95.4331H110.713V95.7007H110.6V95.5234H110.173V95.4331Z" fill="black"/>
<path d="M114.667 95.1185H114.827V95.2089H114.667V95.1185ZM114.663 95.3154H114.824V95.4058H114.663V95.3154ZM114.935 94.9105H115.043V95.6999H114.935V94.9105ZM114.772 94.9276H114.877V95.6649H114.772V94.9276ZM114.594 95.0035H114.703C114.703 95.2276 114.635 95.4067 114.415 95.5362L114.351 95.4569C114.53 95.3487 114.594 95.2174 114.594 95.0265V95.0035ZM114.397 95.0035H114.632V95.0938H114.397V95.0035ZM115.308 94.9591H115.401V95.0444C115.401 95.2012 115.33 95.3359 115.179 95.3879L115.119 95.2993C115.252 95.2566 115.308 95.1509 115.308 95.0444V94.9591ZM115.33 94.9591H115.422V95.0452C115.422 95.1441 115.476 95.243 115.603 95.2848L115.545 95.3726C115.398 95.324 115.33 95.1936 115.33 95.0452V94.9591ZM115.639 94.9105H115.752V95.4876H115.639V94.9105ZM115.72 95.139H115.857V95.2328H115.72V95.139ZM115.243 95.5959H115.78V95.6863H115.243V95.5959ZM115.243 95.4331H115.357V95.6436H115.243V95.4331Z" fill="black"/>
<circle cx="114.993" cy="101.052" r="1.20025" stroke="black" stroke-width="0.0857321"/>
<path d="M114.851 100.762V100.626H114.212L114.623 101.034L114.212 101.443H114.851V101.307" stroke="black" stroke-width="0.123835" stroke-linecap="round" stroke-linejoin="round"/>
<path d="M113.75 100.341L113.418 99.8238L113.135 100.37L113.75 100.341ZM109.321 98.1157L113.299 100.169L113.348 100.074L109.37 98.021L109.321 98.1157Z" fill="#4542FF"/>
<path d="M113.75 101.763L113.418 102.281L113.135 101.734L113.75 101.763ZM109.321 103.989L113.299 101.936L113.348 102.03L109.37 104.083L109.321 103.989Z" fill="#FF4242"/>
<path d="M113.75 101.052L113.217 100.744L113.217 101.359L113.75 101.052ZM109.026 101.105L113.271 101.105L113.271 100.998L109.026 100.998L109.026 101.105Z" fill="#FFD942"/>
<path d="M120.959 101.052L120.071 100.539L120.071 101.564L120.959 101.052ZM116.235 101.141L120.16 101.141L120.16 100.963L116.235 100.963L116.235 101.141Z" fill="#37FF94"/>
<path d="M118.889 95.312H119.003V95.4263H118.889V95.312ZM118.591 95.2455H119.302V95.3282H118.591V95.2455ZM118.889 94.9097H119.002V95.0052H118.889V94.9097ZM118.882 95.0103H118.982V95.0256C118.982 95.139 118.867 95.214 118.649 95.2259L118.617 95.1416C118.81 95.1339 118.882 95.0802 118.882 95.0256V95.0103ZM118.909 95.0103H119.008V95.0256C119.008 95.0802 119.081 95.1339 119.273 95.1416L119.241 95.2259C119.024 95.214 118.909 95.139 118.909 95.0256V95.0103ZM118.657 94.9719H119.234V95.0546H118.657V94.9719ZM118.671 95.376H119.216V95.5712H118.783V95.6462H118.672V95.4953H119.105V95.4578H118.671V95.376ZM118.672 95.6121H119.237V95.6948H118.672V95.6121ZM119.387 95.2865H119.447C119.594 95.2865 119.671 95.2839 119.76 95.2677L119.771 95.3572C119.679 95.3743 119.598 95.3768 119.447 95.3768H119.387V95.2865ZM119.386 94.9557H119.733V95.2046H119.499V95.3461H119.387V95.1202H119.62V95.0452H119.386V94.9557ZM119.904 94.9114H120.018V95.3973H119.904V94.9114ZM119.778 95.0197H119.925V95.11H119.778V95.0197ZM119.778 95.1876H119.925V95.2779H119.778V95.1876ZM119.477 95.4331H120.018V95.7007H119.904V95.5234H119.477V95.4331Z" fill="black"/>
<line x1="115.241" y1="99.8789" x2="115.241" y2="102.188" stroke="black" stroke-width="0.0710352"/>
<g clip-path="url(#clip5_1009_2799)">
<path d="M115.564 101.333C115.613 101.333 115.639 101.289 115.647 101.263C115.647 101.263 115.647 101.262 115.647 101.262C115.665 101.188 115.694 101.07 115.715 100.984H115.791C115.805 100.984 115.817 100.973 115.817 100.958C115.817 100.944 115.805 100.932 115.791 100.932H115.728C115.735 100.905 115.74 100.886 115.742 100.88L115.744 100.872C115.752 100.845 115.771 100.781 115.8 100.781C115.826 100.781 115.83 100.822 115.831 100.824C115.832 100.839 115.844 100.849 115.858 100.848C115.872 100.847 115.883 100.835 115.882 100.82C115.88 100.789 115.859 100.729 115.8 100.729C115.732 100.729 115.707 100.816 115.694 100.858L115.692 100.865C115.69 100.873 115.683 100.899 115.675 100.932H115.585C115.57 100.932 115.559 100.944 115.559 100.958C115.559 100.973 115.57 100.984 115.585 100.984H115.662C115.636 101.092 115.601 101.233 115.598 101.249C115.596 101.253 115.586 101.282 115.564 101.282C115.531 101.282 115.517 101.235 115.516 101.235C115.512 101.221 115.498 101.213 115.484 101.217C115.471 101.221 115.463 101.236 115.467 101.249C115.476 101.28 115.506 101.333 115.564 101.333Z" fill="black"/>
<path d="M115.947 101.267C115.963 101.267 115.975 101.256 115.975 101.239C115.975 101.231 115.972 101.224 115.965 101.216L115.912 101.154L115.964 101.093C115.969 101.087 115.972 101.081 115.972 101.072C115.972 101.057 115.96 101.046 115.944 101.046C115.933 101.046 115.924 101.053 115.917 101.062L115.877 101.114L115.837 101.062C115.829 101.052 115.821 101.046 115.809 101.046C115.793 101.046 115.781 101.057 115.781 101.074C115.781 101.082 115.784 101.089 115.791 101.097L115.841 101.155L115.786 101.22C115.781 101.226 115.777 101.232 115.777 101.241C115.777 101.256 115.79 101.267 115.806 101.267C115.817 101.267 115.825 101.26 115.832 101.252L115.876 101.195L115.919 101.252C115.927 101.262 115.935 101.267 115.947 101.267Z" fill="black"/>
</g>
<rect x="154.738" y="27.5264" width="24.6981" height="63.5695" rx="3" fill="#F0F0F0"/>
<path d="M158.954 81.4974C158.954 81.6935 159.113 81.8525 159.309 81.8525H166.555V68.2138H159.309C159.113 68.2138 158.954 68.3728 158.954 68.569V81.4974Z" fill="#CFE0FF"/>
<rect x="166.093" y="68.2139" width="3.65831" height="13.6388" fill="#9193FF"/>
<path d="M169.751 68.2139H173.978C174.174 68.2139 174.333 68.3729 174.333 68.569V81.4975C174.333 81.6936 174.174 81.8526 173.978 81.8526H169.751V68.2139Z" fill="#97C0FF"/>
<path d="M162.773 68.893H162.887V69.3175H162.773V68.893ZM162.362 69.3516H162.474V69.4249H162.775V69.3516H162.887V69.6738H162.362V69.3516ZM162.474 69.5118V69.5834H162.775V69.5118H162.474ZM162.457 68.9254C162.58 68.9254 162.671 69.0029 162.671 69.112C162.671 69.2212 162.58 69.2987 162.457 69.2987C162.335 69.2987 162.243 69.2212 162.243 69.112C162.243 69.0029 162.335 68.9254 162.457 68.9254ZM162.457 69.0191C162.397 69.0191 162.353 69.0541 162.353 69.112C162.353 69.1709 162.397 69.205 162.457 69.205C162.517 69.205 162.561 69.1709 162.561 69.112C162.561 69.0541 162.517 69.0191 162.457 69.0191ZM163.028 69.2689H163.089C163.236 69.2689 163.312 69.2663 163.402 69.2501L163.413 69.3396C163.321 69.3567 163.24 69.3592 163.089 69.3592H163.028V69.2689ZM163.028 68.9381H163.375V69.1871H163.141V69.3286H163.028V69.1027H163.262V69.0277H163.028V68.9381ZM163.546 68.8938H163.659V69.3797H163.546V68.8938ZM163.42 69.0021H163.566V69.0924H163.42V69.0021ZM163.42 69.17H163.566V69.2604H163.42V69.17ZM163.119 69.4155H163.659V69.6832H163.546V69.5059H163.119V69.4155Z" fill="black"/>
<path d="M167.613 69.101H167.773V69.1913H167.613V69.101ZM167.609 69.2979H167.77V69.3882H167.609V69.2979ZM167.881 68.893H167.989V69.6823H167.881V68.893ZM167.718 68.91H167.824V69.6474H167.718V68.91ZM167.54 68.9859H167.649C167.649 69.2101 167.582 69.3891 167.362 69.5186L167.298 69.4394C167.476 69.3311 167.54 69.1998 167.54 69.0089V68.9859ZM167.343 68.9859H167.578V69.0762H167.343V68.9859ZM168.254 68.9416H168.347V69.0268C168.347 69.1836 168.276 69.3183 168.125 69.3703L168.065 69.2817C168.199 69.2391 168.254 69.1334 168.254 69.0268V68.9416ZM168.276 68.9416H168.368V69.0277C168.368 69.1265 168.422 69.2254 168.549 69.2672L168.491 69.355C168.344 69.3064 168.276 69.176 168.276 69.0277V68.9416ZM168.585 68.893H168.698V69.4701H168.585V68.893ZM168.666 69.1214H168.803V69.2152H168.666V69.1214ZM168.189 69.5783H168.726V69.6687H168.189V69.5783ZM168.189 69.4155H168.304V69.6261H168.189V69.4155Z" fill="black"/>
<path d="M171.836 69.2945H171.95V69.4087H171.836V69.2945ZM171.538 69.228H172.249V69.3107H171.538V69.228ZM171.836 68.8921H171.949V68.9876H171.836V68.8921ZM171.83 68.9927H171.929V69.008C171.929 69.1214 171.814 69.1964 171.596 69.2084L171.564 69.124C171.757 69.1163 171.83 69.0626 171.83 69.008V68.9927ZM171.856 68.9927H171.956V69.008C171.956 69.0626 172.028 69.1163 172.22 69.124L172.188 69.2084C171.971 69.1964 171.856 69.1214 171.856 69.008V68.9927ZM171.605 68.9543H172.182V69.037H171.605V68.9543ZM171.618 69.3584H172.164V69.5536H171.731V69.6286H171.619V69.4777H172.052V69.4402H171.618V69.3584ZM171.619 69.5945H172.184V69.6772H171.619V69.5945ZM172.334 69.2689H172.395C172.541 69.2689 172.618 69.2663 172.708 69.2501L172.719 69.3396C172.627 69.3567 172.546 69.3592 172.395 69.3592H172.334V69.2689ZM172.333 68.9381H172.68V69.1871H172.447V69.3286H172.334V69.1027H172.568V69.0277H172.333V68.9381ZM172.852 68.8938H172.965V69.3797H172.852V68.8938ZM172.725 69.0021H172.872V69.0924H172.725V69.0021ZM172.725 69.17H172.872V69.2604H172.725V69.17ZM172.425 69.4155H172.965V69.6832H172.852V69.5059H172.425V69.4155Z" fill="black"/>
<path d="M166.696 74.3239L166.364 73.8062L166.082 74.3529L166.696 74.3239ZM162.268 72.0981L166.246 74.1513L166.295 74.0567L162.316 72.0034L162.268 72.0981Z" fill="#4542FF"/>
<circle cx="167.939" cy="75.0341" r="1.20025" stroke="black" stroke-width="0.0857321"/>
<line x1="168.188" y1="73.8613" x2="168.188" y2="76.17" stroke="black" stroke-width="0.0710352"/>
<path d="M167.798 74.7436V74.6074H167.159L167.57 75.0159L167.159 75.4243H167.798V75.2882" stroke="black" stroke-width="0.123835" stroke-linecap="round" stroke-linejoin="round"/>
<g clip-path="url(#clip6_1009_2799)">
<path d="M168.511 75.3177C168.56 75.3177 168.587 75.2736 168.594 75.2476C168.594 75.2472 168.595 75.2467 168.595 75.2463C168.613 75.172 168.641 75.0542 168.662 74.9685H168.738C168.752 74.9685 168.764 74.9569 168.764 74.9427C168.764 74.9284 168.752 74.9169 168.738 74.9169H168.675C168.682 74.8899 168.687 74.8706 168.689 74.8641L168.691 74.8567C168.699 74.8294 168.718 74.7655 168.747 74.7655C168.774 74.7655 168.778 74.8069 168.778 74.8089C168.779 74.823 168.791 74.8337 168.806 74.8325C168.82 74.8314 168.83 74.819 168.829 74.8048C168.827 74.7733 168.807 74.7139 168.747 74.7139C168.679 74.7139 168.654 74.8005 168.642 74.8422L168.64 74.8492C168.637 74.8575 168.631 74.8829 168.622 74.9169H168.532C168.518 74.9169 168.506 74.9284 168.506 74.9427C168.506 74.9569 168.518 74.9685 168.532 74.9685H168.609C168.583 75.0759 168.549 75.2177 168.545 75.2333C168.543 75.2373 168.533 75.2661 168.511 75.2661C168.478 75.2661 168.464 75.2197 168.464 75.2193C168.46 75.2056 168.445 75.1977 168.432 75.2017C168.418 75.2057 168.41 75.22 168.414 75.2337C168.423 75.2649 168.454 75.3177 168.511 75.3177Z" fill="black"/>
<path d="M168.895 75.2516C168.91 75.2516 168.923 75.2408 168.923 75.2235C168.923 75.2155 168.919 75.2083 168.913 75.2003L168.859 75.1385L168.911 75.0776C168.916 75.0716 168.919 75.0652 168.919 75.0567C168.919 75.0415 168.907 75.0303 168.891 75.0303C168.88 75.0303 168.872 75.0371 168.865 75.0459L168.824 75.0988L168.784 75.0459C168.776 75.0359 168.768 75.0303 168.756 75.0303C168.741 75.0303 168.728 75.0411 168.728 75.0583C168.728 75.0664 168.731 75.0736 168.738 75.0816L168.788 75.1393L168.733 75.2043C168.728 75.2103 168.725 75.2167 168.725 75.2251C168.725 75.2404 168.737 75.2516 168.753 75.2516C168.764 75.2516 168.772 75.2448 168.78 75.2359L168.823 75.179L168.866 75.2359C168.874 75.246 168.883 75.2516 168.895 75.2516Z" fill="black"/>
</g>
<path d="M166.696 75.0342L166.164 74.7266L166.164 75.3418L166.696 75.0342ZM161.973 75.0875L166.217 75.0875L166.217 74.9809L161.973 74.9809L161.973 75.0875Z" fill="#FFD942"/>
<path d="M173.906 75.0342L173.019 74.5215L173.019 75.5468L173.906 75.0342ZM169.183 75.123L173.107 75.123L173.107 74.9454L169.183 74.9454L169.183 75.123Z" fill="#37FF94"/>
<path d="M166.696 75.7454L166.364 76.2631L166.082 75.7164L166.696 75.7454ZM162.268 77.9712L166.246 75.918L166.295 76.0127L162.316 78.0659L162.268 77.9712Z" fill="#FF4242"/>
<path d="M158.954 48.7649C158.954 48.9611 159.113 49.1201 159.309 49.1201H166.555V35.4814H159.309C159.113 35.4814 158.954 35.6404 158.954 35.8365V48.7649Z" fill="#CFE0FF"/>
<rect x="166.093" y="35.4814" width="3.65831" height="13.6388" fill="#9193FF"/>
<path d="M169.751 35.4814H173.978C174.174 35.4814 174.333 35.6405 174.333 35.8366V48.765C174.333 48.9612 174.174 49.1202 173.978 49.1202H169.751V35.4814Z" fill="#97C0FF"/>
<path d="M162.773 36.1596H162.887V36.5841H162.773V36.1596ZM162.362 36.6182H162.474V36.6915H162.775V36.6182H162.887V36.9404H162.362V36.6182ZM162.474 36.7784V36.85H162.775V36.7784H162.474ZM162.457 36.192C162.58 36.192 162.671 36.2695 162.671 36.3786C162.671 36.4878 162.58 36.5653 162.457 36.5653C162.335 36.5653 162.243 36.4878 162.243 36.3786C162.243 36.2695 162.335 36.192 162.457 36.192ZM162.457 36.2857C162.397 36.2857 162.353 36.3207 162.353 36.3786C162.353 36.4375 162.397 36.4716 162.457 36.4716C162.517 36.4716 162.561 36.4375 162.561 36.3786C162.561 36.3207 162.517 36.2857 162.457 36.2857ZM163.028 36.5355H163.089C163.236 36.5355 163.312 36.5329 163.402 36.5167L163.413 36.6062C163.321 36.6233 163.24 36.6258 163.089 36.6258H163.028V36.5355ZM163.028 36.2047H163.375V36.4537H163.141V36.5952H163.028V36.3693H163.262V36.2943H163.028V36.2047ZM163.546 36.1604H163.659V36.6463H163.546V36.1604ZM163.42 36.2687H163.566V36.359H163.42V36.2687ZM163.42 36.4366H163.566V36.527H163.42V36.4366ZM163.119 36.6821H163.659V36.9498H163.546V36.7725H163.119V36.6821Z" fill="black"/>
<path d="M167.613 36.3676H167.773V36.4579H167.613V36.3676ZM167.609 36.5645H167.77V36.6548H167.609V36.5645ZM167.881 36.1596H167.989V36.9489H167.881V36.1596ZM167.718 36.1766H167.824V36.914H167.718V36.1766ZM167.54 36.2525H167.649C167.649 36.4767 167.582 36.6557 167.362 36.7852L167.298 36.706C167.476 36.5977 167.54 36.4664 167.54 36.2755V36.2525ZM167.343 36.2525H167.578V36.3428H167.343V36.2525ZM168.254 36.2082H168.347V36.2934C168.347 36.4502 168.276 36.5849 168.125 36.6369L168.065 36.5483C168.199 36.5057 168.254 36.4 168.254 36.2934V36.2082ZM168.276 36.2082H168.368V36.2943C168.368 36.3931 168.422 36.492 168.549 36.5338L168.491 36.6216C168.344 36.573 168.276 36.4426 168.276 36.2943V36.2082ZM168.585 36.1596H168.698V36.7367H168.585V36.1596ZM168.666 36.388H168.803V36.4818H168.666V36.388ZM168.189 36.8449H168.726V36.9353H168.189V36.8449ZM168.189 36.6821H168.304V36.8927H168.189V36.6821Z" fill="black"/>
<path d="M171.836 36.5611H171.95V36.6753H171.836V36.5611ZM171.538 36.4946H172.249V36.5773H171.538V36.4946ZM171.836 36.1587H171.949V36.2542H171.836V36.1587ZM171.83 36.2593H171.929V36.2746C171.929 36.388 171.814 36.463 171.596 36.475L171.564 36.3906C171.757 36.3829 171.83 36.3292 171.83 36.2746V36.2593ZM171.856 36.2593H171.956V36.2746C171.956 36.3292 172.028 36.3829 172.22 36.3906L172.188 36.475C171.971 36.463 171.856 36.388 171.856 36.2746V36.2593ZM171.605 36.2209H172.182V36.3036H171.605V36.2209ZM171.618 36.625H172.164V36.8202H171.731V36.8952H171.619V36.7443H172.052V36.7068H171.618V36.625ZM171.619 36.8611H172.184V36.9438H171.619V36.8611ZM172.334 36.5355H172.395C172.541 36.5355 172.618 36.5329 172.708 36.5167L172.719 36.6062C172.627 36.6233 172.546 36.6258 172.395 36.6258H172.334V36.5355ZM172.333 36.2047H172.68V36.4537H172.447V36.5952H172.334V36.3693H172.568V36.2943H172.333V36.2047ZM172.852 36.1604H172.965V36.6463H172.852V36.1604ZM172.725 36.2687H172.872V36.359H172.725V36.2687ZM172.725 36.4366H172.872V36.527H172.725V36.4366ZM172.425 36.6821H172.965V36.9498H172.852V36.7725H172.425V36.6821Z" fill="black"/>
<path d="M166.696 41.5895L166.364 41.0719L166.082 41.6185L166.696 41.5895ZM162.268 39.3637L166.246 41.417L166.295 41.3223L162.316 39.2691L162.268 39.3637Z" fill="#4542FF"/>
<circle cx="167.939" cy="42.3017" r="1.20025" stroke="black" stroke-width="0.0857321"/>
<line x1="168.188" y1="41.1289" x2="168.188" y2="43.4375" stroke="black" stroke-width="0.0710352"/>
<path d="M167.798 42.0112V41.875H167.159L167.57 42.2835L167.159 42.6919H167.798V42.5558" stroke="black" stroke-width="0.123835" stroke-linecap="round" stroke-linejoin="round"/>
<g clip-path="url(#clip7_1009_2799)">
<path d="M168.511 42.5843C168.56 42.5843 168.587 42.5402 168.594 42.5142C168.594 42.5138 168.595 42.5133 168.595 42.5129C168.613 42.4386 168.641 42.3208 168.662 42.2351H168.738C168.752 42.2351 168.764 42.2235 168.764 42.2093C168.764 42.195 168.752 42.1835 168.738 42.1835H168.675C168.682 42.1565 168.687 42.1372 168.689 42.1307L168.691 42.1233C168.699 42.096 168.718 42.0321 168.747 42.0321C168.774 42.0321 168.778 42.0735 168.778 42.0755C168.779 42.0896 168.791 42.1003 168.806 42.0991C168.82 42.098 168.83 42.0856 168.829 42.0714C168.827 42.0399 168.807 41.9805 168.747 41.9805C168.679 41.9805 168.654 42.0671 168.642 42.1088L168.64 42.1158C168.637 42.1241 168.631 42.1495 168.622 42.1835H168.532C168.518 42.1835 168.506 42.195 168.506 42.2093C168.506 42.2235 168.518 42.2351 168.532 42.2351H168.609C168.583 42.3425 168.549 42.4843 168.545 42.4999C168.543 42.5039 168.533 42.5327 168.511 42.5327C168.478 42.5327 168.464 42.4863 168.464 42.4859C168.46 42.4722 168.445 42.4643 168.432 42.4683C168.418 42.4723 168.41 42.4866 168.414 42.5003C168.423 42.5315 168.454 42.5843 168.511 42.5843Z" fill="black"/>
<path d="M168.895 42.5182C168.91 42.5182 168.923 42.5074 168.923 42.4901C168.923 42.4821 168.919 42.4749 168.913 42.4669L168.859 42.4051L168.911 42.3442C168.916 42.3382 168.919 42.3318 168.919 42.3233C168.919 42.3081 168.907 42.2969 168.891 42.2969C168.88 42.2969 168.872 42.3037 168.865 42.3125L168.824 42.3654L168.784 42.3125C168.776 42.3025 168.768 42.2969 168.756 42.2969C168.741 42.2969 168.728 42.3077 168.728 42.3249C168.728 42.333 168.731 42.3402 168.738 42.3482L168.788 42.4059L168.733 42.4709C168.728 42.4769 168.725 42.4833 168.725 42.4917C168.725 42.507 168.737 42.5182 168.753 42.5182C168.764 42.5182 168.772 42.5114 168.78 42.5025L168.823 42.4456L168.866 42.5025C168.874 42.5126 168.883 42.5182 168.895 42.5182Z" fill="black"/>
</g>
<path d="M166.696 42.2998L166.164 41.9922L166.164 42.6074L166.696 42.2998ZM161.973 42.3531L166.217 42.3531L166.217 42.2465L161.973 42.2465L161.973 42.3531Z" fill="#FFD942"/>
<path d="M173.906 42.2998L173.019 41.7872L173.019 42.8125L173.906 42.2998ZM169.183 42.3886L173.107 42.3886L173.107 42.211L169.183 42.211L169.183 42.3886Z" fill="#37FF94"/>
<path d="M166.696 43.0111L166.364 43.5287L166.082 42.9821L166.696 43.0111ZM162.268 45.2368L166.246 43.1836L166.295 43.2783L162.316 45.3315L162.268 45.2368Z" fill="#FF4242"/>
<path d="M156.722 34.7168L123.741 12.6468" stroke="#B3B3B3" stroke-width="1.73584" stroke-linecap="round"/>
<path d="M156.722 43.3955L123.741 54.3065" stroke="#B3B3B3" stroke-width="1.73584" stroke-linecap="round"/>
<path d="M156.97 70.6738L123.741 18.8465" stroke="#B3B3B3" stroke-width="1.73584" stroke-linecap="round"/>
<path d="M154.986 75.1377L123.741 60.2591" stroke="#B3B3B3" stroke-width="1.73584" stroke-linecap="round"/>
<path d="M154.986 80.8408L123.741 103.407" stroke="#B3B3B3" stroke-width="1.73584" stroke-linecap="round"/>
<path d="M158.954 52.3232L123.741 99.6869" stroke="#B3B3B3" stroke-width="1.73584" stroke-linecap="round"/>
<path d="M4.21484 48.7454C4.21484 48.9416 4.37386 49.1006 4.57002 49.1006H11.8156V35.4618H4.57002C4.37386 35.4618 4.21484 35.6208 4.21484 35.817V48.7454Z" fill="#CFE0FF"/>
<rect x="11.3555" y="35.4619" width="3.65831" height="13.6388" fill="#9193FF"/>
<path d="M15.0117 35.4619H19.2383C19.4345 35.4619 19.5935 35.6209 19.5935 35.8171V48.7455C19.5935 48.9417 19.4345 49.1007 19.2383 49.1007H15.0117V35.4619Z" fill="#97C0FF"/>
<path d="M8.03455 36.1381H8.14877V36.5626H8.03455V36.1381ZM7.62368 36.5967H7.73535V36.67H8.03625V36.5967H8.14877V36.9189H7.62368V36.5967ZM7.73535 36.7569V36.8285H8.03625V36.7569H7.73535ZM7.71915 36.1705C7.8419 36.1705 7.93311 36.248 7.93311 36.3572C7.93311 36.4663 7.8419 36.5438 7.71915 36.5438C7.5964 36.5438 7.50434 36.4663 7.50434 36.3572C7.50434 36.248 7.5964 36.1705 7.71915 36.1705ZM7.71915 36.2642C7.65863 36.2642 7.61516 36.2992 7.61516 36.3572C7.61516 36.416 7.65863 36.4501 7.71915 36.4501C7.77882 36.4501 7.8223 36.416 7.8223 36.3572C7.8223 36.2992 7.77882 36.2642 7.71915 36.2642ZM8.29021 36.514H8.35073C8.49735 36.514 8.57407 36.5114 8.66357 36.4952L8.67465 36.5848C8.58259 36.6018 8.50161 36.6044 8.35073 36.6044H8.29021V36.514ZM8.28936 36.1833H8.63629V36.4322H8.40273V36.5737H8.29021V36.3478H8.52377V36.2728H8.28936V36.1833ZM8.80763 36.1389H8.921V36.6248H8.80763V36.1389ZM8.68147 36.2472H8.82809V36.3376H8.68147V36.2472ZM8.68147 36.4151H8.82809V36.5055H8.68147V36.4151ZM8.38057 36.6606H8.921V36.9283H8.80763V36.751H8.38057V36.6606Z" fill="black"/>
<path d="M12.8768 36.3461H13.0371V36.4364H12.8768V36.3461ZM12.8725 36.543H13.0336V36.6333H12.8725V36.543ZM13.1445 36.1381H13.2527V36.9274H13.1445V36.1381ZM12.9816 36.1551H13.0873V36.8925H12.9816V36.1551ZM12.8035 36.231H12.9126C12.9126 36.4552 12.8453 36.6342 12.6253 36.7638L12.5614 36.6845C12.7396 36.5762 12.8035 36.445 12.8035 36.254V36.231ZM12.6066 36.231H12.8419V36.3214H12.6066V36.231ZM13.5178 36.1867H13.6107V36.2719C13.6107 36.4288 13.5399 36.5634 13.389 36.6154L13.3285 36.5268C13.4623 36.4842 13.5178 36.3785 13.5178 36.2719V36.1867ZM13.5399 36.1867H13.632V36.2728C13.632 36.3716 13.6857 36.4705 13.8127 36.5123L13.7547 36.6001C13.6081 36.5515 13.5399 36.4211 13.5399 36.2728V36.1867ZM13.8485 36.1381H13.9619V36.7152H13.8485V36.1381ZM13.9295 36.3665H14.0667V36.4603H13.9295V36.3665ZM13.453 36.8234H13.99V36.9138H13.453V36.8234ZM13.453 36.6606H13.5672V36.8712H13.453V36.6606Z" fill="black"/>
<circle cx="13.2021" cy="42.2802" r="1.20025" stroke="black" stroke-width="0.0857321"/>
<path d="M13.0592 41.9897V41.8535H12.4199L12.8309 42.262L12.4199 42.6704H13.0592V42.5343" stroke="black" stroke-width="0.123835" stroke-linecap="round" stroke-linejoin="round"/>
<path d="M11.9589 41.57L11.6265 41.0523L11.3444 41.599L11.9589 41.57ZM7.53025 39.3442L11.5084 41.3974L11.5572 41.3027L7.57912 39.2495L7.53025 39.3442Z" fill="#4542FF"/>
<path d="M11.9589 42.9905L11.6265 43.5082L11.3444 42.9616L11.9589 42.9905ZM7.53025 45.2163L11.5084 43.1631L11.5572 43.2578L7.57912 45.311L7.53025 45.2163Z" fill="#FF4242"/>
<path d="M11.9582 42.2803L11.4255 41.9727L11.4255 42.5879L11.9582 42.2803ZM7.23437 42.3335L11.4787 42.3335L11.4787 42.227L7.23438 42.227L7.23437 42.3335Z" fill="#FFD942"/>
<path d="M19.1692 42.2803L18.2812 41.7676L18.2812 42.7929L19.1692 42.2803ZM14.4453 42.3691L18.37 42.3691L18.37 42.1915L14.4453 42.1915L14.4453 42.3691Z" fill="#37FF94"/>
<path d="M17.0971 36.5396H17.2105V36.6538H17.0971V36.5396ZM16.7988 36.4731H17.5097V36.5558H16.7988V36.4731ZM17.0971 36.1372H17.2097V36.2327H17.0971V36.1372ZM17.0903 36.2378H17.1901V36.2532C17.1901 36.3665 17.075 36.4415 16.8568 36.4535L16.8252 36.3691C17.0179 36.3614 17.0903 36.3077 17.0903 36.2532V36.2378ZM17.1168 36.2378H17.2165V36.2532C17.2165 36.3077 17.2889 36.3614 17.4807 36.3691L17.4492 36.4535C17.2318 36.4415 17.1168 36.3665 17.1168 36.2532V36.2378ZM16.8653 36.1995H17.4424V36.2821H16.8653V36.1995ZM16.8789 36.6035H17.4245V36.7987H16.9914V36.8737H16.8798V36.7228H17.3128V36.6853H16.8789V36.6035ZM16.8798 36.8396H17.4449V36.9223H16.8798V36.8396ZM17.5949 36.514H17.6554C17.802 36.514 17.8788 36.5114 17.9683 36.4952L17.9793 36.5848C17.8873 36.6018 17.8063 36.6044 17.6554 36.6044H17.5949V36.514ZM17.594 36.1833H17.941V36.4322H17.7074V36.5737H17.5949V36.3478H17.8285V36.2728H17.594V36.1833ZM18.1123 36.1389H18.2257V36.6248H18.1123V36.1389ZM17.9862 36.2472H18.1328V36.3376H17.9862V36.2472ZM17.9862 36.4151H18.1328V36.5055H17.9862V36.4151ZM17.6853 36.6606H18.2257V36.9283H18.1123V36.751H17.6853V36.6606Z" fill="black"/>
<line x1="13.4515" y1="41.1094" x2="13.4515" y2="43.418" stroke="black" stroke-width="0.0710352"/>
<g clip-path="url(#clip8_1009_2799)">
<path d="M13.7758 42.5618C13.8251 42.5618 13.8513 42.5177 13.859 42.4917C13.8591 42.4913 13.8593 42.4909 13.8594 42.4905C13.8773 42.4161 13.9059 42.2983 13.9271 42.2126H14.0029C14.0171 42.2126 14.0287 42.2011 14.0287 42.1868C14.0287 42.1726 14.0171 42.161 14.0029 42.161H13.9399C13.9467 42.134 13.9516 42.1148 13.9536 42.1082L13.9558 42.1009C13.9638 42.0736 13.9825 42.0096 14.0115 42.0096C14.0383 42.0096 14.0423 42.051 14.0425 42.053C14.0437 42.0672 14.056 42.0779 14.0702 42.0766C14.0844 42.0755 14.095 42.0631 14.094 42.0489C14.0915 42.0175 14.0712 41.958 14.0115 41.958C13.9438 41.958 13.9184 42.0447 13.9062 42.0863L13.9042 42.0934C13.9017 42.1016 13.8952 42.127 13.8867 42.161H13.7964C13.7822 42.161 13.7706 42.1726 13.7706 42.1868C13.7706 42.2011 13.7822 42.2126 13.7964 42.2126H13.8739C13.8474 42.3201 13.8132 42.4618 13.8094 42.4774C13.808 42.4815 13.7974 42.5102 13.7758 42.5102C13.7428 42.5102 13.7284 42.4638 13.7283 42.4635C13.7244 42.4498 13.7101 42.4419 13.6964 42.4459C13.6827 42.4498 13.6748 42.4641 13.6788 42.4778C13.6878 42.509 13.7184 42.5618 13.7758 42.5618Z" fill="black"/>
<path d="M14.1602 42.4957C14.1755 42.4957 14.1883 42.4849 14.1883 42.4677C14.1883 42.4597 14.1851 42.4524 14.1783 42.4444L14.1245 42.3827L14.1767 42.3217C14.1815 42.3157 14.1851 42.3093 14.1851 42.3009C14.1851 42.2856 14.1726 42.2744 14.1566 42.2744C14.1458 42.2744 14.1374 42.2812 14.1301 42.2901L14.0897 42.343L14.05 42.2901C14.0419 42.28 14.0335 42.2744 14.0215 42.2744C14.0063 42.2744 13.9934 42.2853 13.9934 42.3025C13.9934 42.3105 13.9967 42.3177 14.0035 42.3257L14.0536 42.3835L13.9986 42.4484C13.9934 42.4544 13.9902 42.4608 13.9902 42.4693C13.9902 42.4845 14.0027 42.4957 14.0187 42.4957C14.0295 42.4957 14.0379 42.4889 14.0452 42.4801L14.0884 42.4232L14.1317 42.4801C14.1398 42.4901 14.1482 42.4957 14.1602 42.4957Z" fill="black"/>
</g>
<path d="M23.3105 33.9727L54.5557 13.8865" stroke="#B3B3B3" stroke-width="1.73584" stroke-linecap="round"/>
<path d="M102.662 13.8867L76.8725 13.8867" stroke="#B3B3B3" stroke-width="1.73584" stroke-linecap="round"/>
<path d="M102.662 55.5469L76.8725 55.5469" stroke="#B3B3B3" stroke-width="1.73584" stroke-linecap="round"/>
<path d="M102.662 100.927L76.8725 100.927" stroke="#B3B3B3" stroke-width="1.73584" stroke-linecap="round"/>
<path d="M102.662 61.498L76.8725 95.471" stroke="#B3B3B3" stroke-width="1.73584" stroke-linecap="round"/>
<path d="M102.662 49.8438L76.8725 18.5986" stroke="#B3B3B3" stroke-width="1.73584" stroke-linecap="round"/>
<path d="M104.646 90.7607L73.8973 23.8068" stroke="#B3B3B3" stroke-width="1.73584" stroke-linecap="round"/>
<path d="M98.6953 18.5986L76.8733 52.3236" stroke="#B3B3B3" stroke-width="1.73584" stroke-linecap="round"/>
<path d="M102.662 96.7119L76.8725 59.5153" stroke="#B3B3B3" stroke-width="1.73584" stroke-linecap="round"/>
<path d="M102.662 18.5986L73.8967 90.7601" stroke="#B3B3B3" stroke-width="1.73584" stroke-linecap="round"/>
<path d="M23.3105 44.1396L54.5557 55.5466" stroke="#B3B3B3" stroke-width="1.73584" stroke-linecap="round"/>
<path d="M21.3262 71.9131L54.5551 20.0858" stroke="#B3B3B3" stroke-width="1.73584" stroke-linecap="round"/>
<path d="M23.3105 76.377L54.5557 61.4983" stroke="#B3B3B3" stroke-width="1.73584" stroke-linecap="round"/>
<path d="M23.3105 82.0811L54.5557 104.647" stroke="#B3B3B3" stroke-width="1.73584" stroke-linecap="round"/>
<path d="M19.5898 51.5801L54.5547 100.928" stroke="#B3B3B3" stroke-width="1.73584" stroke-linecap="round"/>
<path d="M4.21484 81.4778C4.21484 81.674 4.37386 81.833 4.57002 81.833H11.8156V68.1942H4.57002C4.37386 68.1942 4.21484 68.3533 4.21484 68.5494V81.4778Z" fill="#CFE0FF"/>
<rect x="11.3555" y="68.1943" width="3.65831" height="13.6388" fill="#9193FF"/>
<path d="M15.0117 68.1943H19.2383C19.4345 68.1943 19.5935 68.3534 19.5935 68.5495V81.4779C19.5935 81.6741 19.4345 81.8331 19.2383 81.8331H15.0117V68.1943Z" fill="#97C0FF"/>
<path d="M8.03455 68.8705H8.14877V69.295H8.03455V68.8705ZM7.62368 69.3291H7.73535V69.4024H8.03625V69.3291H8.14877V69.6513H7.62368V69.3291ZM7.73535 69.4894V69.561H8.03625V69.4894H7.73535ZM7.71915 68.9029C7.8419 68.9029 7.93311 68.9805 7.93311 69.0896C7.93311 69.1987 7.8419 69.2763 7.71915 69.2763C7.5964 69.2763 7.50434 69.1987 7.50434 69.0896C7.50434 68.9805 7.5964 68.9029 7.71915 68.9029ZM7.71915 68.9967C7.65863 68.9967 7.61516 69.0316 7.61516 69.0896C7.61516 69.1484 7.65863 69.1825 7.71915 69.1825C7.77882 69.1825 7.8223 69.1484 7.8223 69.0896C7.8223 69.0316 7.77882 68.9967 7.71915 68.9967ZM8.29021 69.2464H8.35073C8.49735 69.2464 8.57407 69.2439 8.66357 69.2277L8.67465 69.3172C8.58259 69.3342 8.50161 69.3368 8.35073 69.3368H8.29021V69.2464ZM8.28936 68.9157H8.63629V69.1646H8.40273V69.3061H8.29021V69.0802H8.52377V69.0052H8.28936V68.9157ZM8.80763 68.8714H8.921V69.3572H8.80763V68.8714ZM8.68147 68.9796H8.82809V69.07H8.68147V68.9796ZM8.68147 69.1475H8.82809V69.2379H8.68147V69.1475ZM8.38057 69.393H8.921V69.6607H8.80763V69.4834H8.38057V69.393Z" fill="black"/>
<path d="M12.8768 69.0785H13.0371V69.1689H12.8768V69.0785ZM12.8725 69.2754H13.0336V69.3658H12.8725V69.2754ZM13.1445 68.8705H13.2527V69.6598H13.1445V68.8705ZM12.9816 68.8876H13.0873V69.6249H12.9816V68.8876ZM12.8035 68.9634H12.9126C12.9126 69.1876 12.8453 69.3666 12.6253 69.4962L12.5614 69.4169C12.7396 69.3087 12.8035 69.1774 12.8035 68.9864V68.9634ZM12.6066 68.9634H12.8419V69.0538H12.6066V68.9634ZM13.5178 68.9191H13.6107V69.0043C13.6107 69.1612 13.5399 69.2959 13.389 69.3479L13.3285 69.2592C13.4623 69.2166 13.5178 69.1109 13.5178 69.0043V68.9191ZM13.5399 68.9191H13.632V69.0052C13.632 69.1041 13.6857 69.203 13.8127 69.2447L13.7547 69.3325C13.6081 69.2839 13.5399 69.1535 13.5399 69.0052V68.9191ZM13.8485 68.8705H13.9619V69.4476H13.8485V68.8705ZM13.9295 69.099H14.0667V69.1927H13.9295V69.099ZM13.453 69.5559H13.99V69.6462H13.453V69.5559ZM13.453 69.393H13.5672V69.6036H13.453V69.393Z" fill="black"/>
<circle cx="13.2021" cy="75.0126" r="1.20025" stroke="black" stroke-width="0.0857321"/>
<path d="M13.0592 74.724V74.5879H12.4199L12.8309 74.9963L12.4199 75.4048H13.0592V75.2686" stroke="black" stroke-width="0.123835" stroke-linecap="round" stroke-linejoin="round"/>
<path d="M11.9589 74.3024L11.6265 73.7847L11.3444 74.3314L11.9589 74.3024ZM7.53025 72.0766L11.5084 74.1299L11.5572 74.0352L7.57912 71.982L7.53025 72.0766Z" fill="#4542FF"/>
<path d="M11.9589 75.723L11.6265 76.2406L11.3444 75.694L11.9589 75.723ZM7.53025 77.9488L11.5084 75.8955L11.5572 75.9902L7.57912 78.0434L7.53025 77.9488Z" fill="#FF4242"/>
<path d="M11.9582 75.0127L11.4255 74.7051L11.4255 75.3203L11.9582 75.0127ZM7.23437 75.066L11.4787 75.066L11.4787 74.9594L7.23438 74.9594L7.23437 75.066Z" fill="#FFD942"/>
<path d="M19.1692 75.0127L18.2812 74.5L18.2812 75.5253L19.1692 75.0127ZM14.4453 75.1015L18.37 75.1015L18.37 74.9239L14.4453 74.9239L14.4453 75.1015Z" fill="#37FF94"/>
<path d="M17.0971 69.272H17.2105V69.3862H17.0971V69.272ZM16.7988 69.2055H17.5097V69.2882H16.7988V69.2055ZM17.0971 68.8697H17.2097V68.9651H17.0971V68.8697ZM17.0903 68.9702H17.1901V68.9856C17.1901 69.099 17.075 69.174 16.8568 69.1859L16.8252 69.1015C17.0179 69.0938 17.0903 69.0401 17.0903 68.9856V68.9702ZM17.1168 68.9702H17.2165V68.9856C17.2165 69.0401 17.2889 69.0938 17.4807 69.1015L17.4492 69.1859C17.2318 69.174 17.1168 69.099 17.1168 68.9856V68.9702ZM16.8653 68.9319H17.4424V69.0146H16.8653V68.9319ZM16.8789 69.3359H17.4245V69.5311H16.9914V69.6061H16.8798V69.4553H17.3128V69.4178H16.8789V69.3359ZM16.8798 69.5721H17.4449V69.6547H16.8798V69.5721ZM17.5949 69.2464H17.6554C17.802 69.2464 17.8788 69.2439 17.9683 69.2277L17.9793 69.3172C17.8873 69.3342 17.8063 69.3368 17.6554 69.3368H17.5949V69.2464ZM17.594 68.9157H17.941V69.1646H17.7074V69.3061H17.5949V69.0802H17.8285V69.0052H17.594V68.9157ZM18.1123 68.8714H18.2257V69.3572H18.1123V68.8714ZM17.9862 68.9796H18.1328V69.07H17.9862V68.9796ZM17.9862 69.1475H18.1328V69.2379H17.9862V69.1475ZM17.6853 69.393H18.2257V69.6607H18.1123V69.4834H17.6853V69.393Z" fill="black"/>
<line x1="13.4515" y1="73.8418" x2="13.4515" y2="76.1504" stroke="black" stroke-width="0.0710352"/>
<g clip-path="url(#clip9_1009_2799)">
<path d="M13.7758 75.2962C13.8251 75.2962 13.8513 75.2521 13.859 75.2261C13.8591 75.2257 13.8593 75.2253 13.8594 75.2248C13.8773 75.1505 13.9059 75.0327 13.9271 74.947H14.0029C14.0171 74.947 14.0287 74.9354 14.0287 74.9212C14.0287 74.9069 14.0171 74.8954 14.0029 74.8954H13.9399C13.9467 74.8684 13.9516 74.8491 13.9536 74.8426L13.9558 74.8352C13.9638 74.8079 13.9825 74.744 14.0115 74.744C14.0383 74.744 14.0423 74.7854 14.0425 74.7874C14.0437 74.8015 14.056 74.8122 14.0702 74.811C14.0844 74.8099 14.095 74.7975 14.094 74.7833C14.0915 74.7519 14.0712 74.6924 14.0115 74.6924C13.9438 74.6924 13.9184 74.7791 13.9062 74.8207L13.9042 74.8278C13.9017 74.836 13.8952 74.8614 13.8867 74.8954H13.7964C13.7822 74.8954 13.7706 74.9069 13.7706 74.9212C13.7706 74.9354 13.7822 74.947 13.7964 74.947H13.8739C13.8474 75.0544 13.8132 75.1962 13.8094 75.2118C13.808 75.2159 13.7974 75.2446 13.7758 75.2446C13.7428 75.2446 13.7284 75.1982 13.7283 75.1978C13.7244 75.1842 13.7101 75.1762 13.6964 75.1802C13.6827 75.1842 13.6748 75.1985 13.6788 75.2122C13.6878 75.2434 13.7184 75.2962 13.7758 75.2962Z" fill="black"/>
<path d="M14.1602 75.2301C14.1755 75.2301 14.1883 75.2193 14.1883 75.202C14.1883 75.194 14.1851 75.1868 14.1783 75.1788L14.1245 75.117L14.1767 75.0561C14.1815 75.0501 14.1851 75.0437 14.1851 75.0353C14.1851 75.02 14.1726 75.0088 14.1566 75.0088C14.1458 75.0088 14.1374 75.0156 14.1301 75.0244L14.0897 75.0773L14.05 75.0244C14.0419 75.0144 14.0335 75.0088 14.0215 75.0088C14.0063 75.0088 13.9934 75.0196 13.9934 75.0369C13.9934 75.0449 13.9967 75.0521 14.0035 75.0601L14.0536 75.1178L13.9986 75.1828C13.9934 75.1888 13.9902 75.1952 13.9902 75.2036C13.9902 75.2189 14.0027 75.2301 14.0187 75.2301C14.0295 75.2301 14.0379 75.2233 14.0452 75.2145L14.0884 75.1575L14.1317 75.2145C14.1398 75.2245 14.1482 75.2301 14.1602 75.2301Z" fill="black"/>
</g>
<line x1="224.526" y1="42.1195" x2="276.526" y2="14.1195" stroke="#B3B3B3" stroke-width="2"/>
<line x1="225.316" y1="42.0513" x2="276.316" y2="59.0513" stroke="#B3B3B3" stroke-width="2"/>
<line x1="224.667" y1="77.057" x2="275.667" y2="59.057" stroke="#B3B3B3" stroke-width="2"/>
<line x1="224.229" y1="77.3634" x2="276.229" y2="14.3634" stroke="#B3B3B3" stroke-width="2"/>
<line x1="326" y1="16" x2="277" y2="16" stroke="#B3B3B3" stroke-width="2"/>
<line x1="325.316" y1="61.7291" x2="276.316" y2="15.7291" stroke="#B3B3B3" stroke-width="2"/>
<line x1="325.131" y1="101.495" x2="276.131" y2="15.4951" stroke="#B3B3B3" stroke-width="2"/>
<line x1="325.358" y1="101.767" x2="276.358" y2="60.7669" stroke="#B3B3B3" stroke-width="2"/>
<line x1="325" y1="61" x2="277" y2="61" stroke="#B3B3B3" stroke-width="2"/>
<line x1="326.676" y1="15.7365" x2="277.676" y2="60.7365" stroke="#B3B3B3" stroke-width="2"/>
<line x1="326.871" y1="15.4907" x2="277.871" y2="102.491" stroke="#B3B3B3" stroke-width="2"/>
<line x1="326.642" y1="61.7669" x2="277.642" y2="102.767" stroke="#B3B3B3" stroke-width="2"/>
<line x1="325.636" y1="60.0688" x2="371.636" y2="42.0688" stroke="#B3B3B3" stroke-width="2"/>
<line x1="326.382" y1="60.0757" x2="372.382" y2="79.0757" stroke="#B3B3B3" stroke-width="2"/>
<line x1="325.553" y1="102.106" x2="371.553" y2="79.1056" stroke="#B3B3B3" stroke-width="2"/>
<line x1="325.206" y1="102.392" x2="371.206" y2="42.3916" stroke="#B3B3B3" stroke-width="2"/>
<line x1="326.506" y1="15.1376" x2="372.506" y2="42.1376" stroke="#B3B3B3" stroke-width="2"/>
<line x1="326.812" y1="15.4164" x2="372.812" y2="79.4164" stroke="#B3B3B3" stroke-width="2"/>
<line x1="325" y1="101" x2="277" y2="101" stroke="#B3B3B3" stroke-width="2"/>
<line x1="225.433" y1="77.0987" x2="277.433" y2="102.099" stroke="#B3B3B3" stroke-width="2"/>
<line x1="225.756" y1="42.3451" x2="277.756" y2="102.345" stroke="#B3B3B3" stroke-width="2"/>
<circle cx="224.866" cy="42.5954" r="8.98112" fill="#5161F1"/>
<circle cx="277.068" cy="15.0915" r="8.98112" fill="#5161F1"/>
<circle cx="276.086" cy="59.5749" r="8.98112" fill="#5161F1"/>
<circle cx="371.651" cy="77.5368" r="8.98112" fill="#5161F1"/>
<circle cx="371.651" cy="42.5954" r="8.98112" fill="#5161F1"/>
<circle cx="277.068" cy="100.551" r="8.98112" fill="#5161F1"/>
<circle cx="325.062" cy="59.5749" r="8.98112" fill="#5161F1"/>
<circle cx="326.044" cy="100.551" r="8.98112" fill="#5161F1"/>
<circle cx="326.044" cy="15.0915" r="8.98112" fill="#5161F1"/>
<circle cx="224.866" cy="77.5368" r="8.98112" fill="#5161F1"/>
<defs>
<clipPath id="clip0_1009_2799">
<rect width="0.603799" height="0.603799" fill="white" transform="translate(66.1992 12.9463)"/>
</clipPath>
<clipPath id="clip1_1009_2799">
<rect width="0.603799" height="0.603799" fill="white" transform="translate(66.1992 55.8477)"/>
</clipPath>
<clipPath id="clip2_1009_2799">
<rect width="0.603799" height="0.603799" fill="white" transform="translate(66.1992 100.732)"/>
</clipPath>
<clipPath id="clip3_1009_2799">
<rect width="0.603799" height="0.603799" fill="white" transform="translate(115.42 12.9463)"/>
</clipPath>
<clipPath id="clip4_1009_2799">
<rect width="0.603799" height="0.603799" fill="white" transform="translate(115.42 55.8477)"/>
</clipPath>
<clipPath id="clip5_1009_2799">
<rect width="0.603799" height="0.603799" fill="white" transform="translate(115.42 100.732)"/>
</clipPath>
<clipPath id="clip6_1009_2799">
<rect width="0.603799" height="0.603799" fill="white" transform="translate(168.366 74.7148)"/>
</clipPath>
<clipPath id="clip7_1009_2799">
<rect width="0.603799" height="0.603799" fill="white" transform="translate(168.366 41.9805)"/>
</clipPath>
<clipPath id="clip8_1009_2799">
<rect width="0.603799" height="0.603799" fill="white" transform="translate(13.6289 41.96)"/>
</clipPath>
<clipPath id="clip9_1009_2799">
<rect width="0.603799" height="0.603799" fill="white" transform="translate(13.6289 74.6924)"/>
</clipPath>
</defs>
</svg>
