<svg width="383" height="304" viewBox="0 0 383 304" fill="none" xmlns="http://www.w3.org/2000/svg">
<g filter="url(#filter0_d_1009_2196)">
<path d="M366.429 270.636C366.955 270.11 366.955 269.257 366.429 268.731L357.86 260.162C357.334 259.637 356.482 259.637 355.956 260.162C355.43 260.688 355.43 261.541 355.956 262.067L363.573 269.684L355.956 277.301C355.43 277.826 355.43 278.679 355.956 279.205C356.482 279.731 357.334 279.731 357.86 279.205L366.429 270.636ZM59.0137 271.03H365.477V268.337H59.0137V271.03Z" fill="black"/>
<path d="M59.9658 1.04745C59.4399 0.521606 58.5874 0.521606 58.0615 1.04745L49.4925 9.61652C48.9666 10.1424 48.9666 10.9949 49.4925 11.5208C50.0183 12.0466 50.8709 12.0466 51.3967 11.5208L59.0137 3.90381L66.6306 11.5208C67.1565 12.0466 68.009 12.0466 68.5348 11.5208C69.0607 10.9949 69.0607 10.1424 68.5348 9.61652L59.9658 1.04745ZM60.3602 269.684L60.3602 1.99957L57.6672 1.99957L57.6672 269.684L60.3602 269.684Z" fill="black"/>
<path d="M340.317 295.15C339.647 295.15 339.041 295.026 338.5 294.778C337.958 294.526 337.529 294.161 337.212 293.684C336.9 293.206 336.744 292.621 336.744 291.928C336.744 291.331 336.858 290.84 337.088 290.454C337.317 290.069 337.627 289.763 338.018 289.538C338.408 289.314 338.844 289.144 339.326 289.029C339.808 288.914 340.299 288.827 340.799 288.767C341.433 288.694 341.947 288.634 342.342 288.588C342.736 288.538 343.023 288.457 343.202 288.347C343.381 288.237 343.471 288.058 343.471 287.81V287.762C343.471 287.161 343.301 286.695 342.961 286.364C342.626 286.034 342.126 285.868 341.46 285.868C340.767 285.868 340.221 286.022 339.822 286.33C339.427 286.633 339.154 286.97 339.002 287.342L337.067 286.901C337.297 286.259 337.632 285.74 338.073 285.345C338.518 284.946 339.03 284.657 339.608 284.478C340.186 284.294 340.795 284.202 341.433 284.202C341.855 284.202 342.303 284.253 342.775 284.354C343.253 284.45 343.698 284.629 344.111 284.891C344.529 285.152 344.871 285.526 345.137 286.013C345.403 286.495 345.536 287.122 345.536 287.893V294.916H343.526V293.47H343.443C343.31 293.736 343.11 293.998 342.844 294.255C342.578 294.512 342.236 294.726 341.818 294.895C341.401 295.065 340.9 295.15 340.317 295.15ZM340.765 293.498C341.334 293.498 341.821 293.385 342.225 293.16C342.633 292.935 342.943 292.642 343.154 292.279C343.37 291.912 343.478 291.519 343.478 291.101V289.738C343.404 289.812 343.262 289.88 343.051 289.945C342.844 290.004 342.608 290.057 342.342 290.103C342.075 290.144 341.816 290.183 341.564 290.22C341.311 290.252 341.1 290.28 340.93 290.303C340.531 290.353 340.166 290.438 339.835 290.557C339.509 290.677 339.248 290.849 339.05 291.074C338.858 291.294 338.761 291.588 338.761 291.955C338.761 292.465 338.949 292.85 339.326 293.112C339.702 293.369 340.182 293.498 340.765 293.498Z" fill="black"/>
<path d="M143.279 280.814V294.916H141.144V282.949H141.062L137.688 285.152V283.114L141.206 280.814H143.279Z" fill="black"/>
<path d="M301.188 295.109C300.242 295.109 299.397 294.946 298.654 294.62C297.915 294.294 297.33 293.842 296.898 293.263C296.471 292.681 296.242 292.006 296.209 291.239H298.372C298.399 291.657 298.539 292.02 298.792 292.327C299.049 292.63 299.384 292.864 299.797 293.029C300.21 293.195 300.669 293.277 301.174 293.277C301.729 293.277 302.221 293.181 302.647 292.988C303.079 292.795 303.416 292.527 303.66 292.182C303.903 291.834 304.025 291.432 304.025 290.978C304.025 290.505 303.903 290.089 303.66 289.731C303.421 289.369 303.07 289.084 302.606 288.877C302.147 288.671 301.592 288.568 300.94 288.568H299.749V286.832H300.94C301.463 286.832 301.922 286.738 302.317 286.55C302.716 286.362 303.028 286.1 303.253 285.765C303.478 285.425 303.591 285.028 303.591 284.574C303.591 284.138 303.492 283.759 303.295 283.438C303.102 283.112 302.826 282.857 302.468 282.674C302.115 282.49 301.697 282.398 301.215 282.398C300.756 282.398 300.327 282.483 299.928 282.653C299.533 282.818 299.212 283.057 298.964 283.369C298.716 283.677 298.583 284.046 298.564 284.478H296.506C296.528 283.716 296.753 283.045 297.18 282.467C297.612 281.889 298.181 281.436 298.888 281.111C299.595 280.785 300.38 280.622 301.243 280.622C302.147 280.622 302.927 280.798 303.584 281.152C304.245 281.501 304.754 281.967 305.112 282.55C305.475 283.133 305.654 283.771 305.649 284.464C305.654 285.253 305.434 285.924 304.988 286.474C304.548 287.025 303.96 287.395 303.226 287.583V287.693C304.162 287.835 304.887 288.207 305.402 288.809C305.92 289.41 306.177 290.156 306.173 291.046C306.177 291.822 305.962 292.518 305.526 293.133C305.094 293.748 304.504 294.232 303.756 294.586C303.008 294.934 302.152 295.109 301.188 295.109Z" fill="black"/>
<path d="M4.54924 71.2989H7.1313L11.6207 82.2606H11.7859L16.2753 71.2989H18.8573V85.4004H16.833V75.1961H16.7022L12.5433 85.3797H10.8632L6.7044 75.1892H6.57358V85.4004H4.54924V71.2989ZM29.2733 75.0033C29.1999 74.3514 28.8969 73.8465 28.3645 73.4885C27.832 73.1258 27.1618 72.9445 26.3539 72.9445C25.7755 72.9445 25.2752 73.0363 24.8529 73.2199C24.4305 73.399 24.1023 73.6468 23.8682 73.9636C23.6387 74.2757 23.5239 74.6315 23.5239 75.0308C23.5239 75.3659 23.602 75.6551 23.7581 75.8984C23.9187 76.1417 24.1276 76.3459 24.3846 76.5112C24.6463 76.6719 24.9263 76.8073 25.2247 76.9174C25.523 77.023 25.8099 77.1102 26.0854 77.1791L27.4625 77.5371C27.9123 77.6473 28.3736 77.7965 28.8464 77.9847C29.3192 78.1729 29.7576 78.4208 30.1616 78.7283C30.5655 79.0359 30.8914 79.4169 31.1393 79.8713C31.3918 80.3258 31.518 80.8697 31.518 81.5032C31.518 82.3019 31.3115 83.0111 30.8983 83.6308C30.4898 84.2505 29.8953 84.7394 29.115 85.0974C28.3392 85.4555 27.4005 85.6345 26.2988 85.6345C25.243 85.6345 24.3296 85.467 23.5584 85.1319C22.7872 84.7968 22.1836 84.3217 21.7475 83.7066C21.3114 83.0869 21.0704 82.3524 21.0245 81.5032H23.159C23.2003 82.0127 23.3656 82.4373 23.6548 82.777C23.9486 83.1121 24.3227 83.3623 24.7771 83.5275C25.2361 83.6882 25.7388 83.7685 26.285 83.7685C26.8864 83.7685 27.4211 83.6744 27.8894 83.4862C28.3622 83.2934 28.734 83.0272 29.0048 82.6875C29.2756 82.3432 29.4111 81.9416 29.4111 81.4825C29.4111 81.0648 29.2917 80.7228 29.053 80.4566C28.8189 80.1904 28.4999 79.97 28.0959 79.7956C27.6966 79.6212 27.2444 79.4674 26.7395 79.3343L25.0732 78.8798C23.944 78.5723 23.0488 78.1201 22.3878 77.5234C21.7314 76.9266 21.4032 76.1371 21.4032 75.1548C21.4032 74.3423 21.6235 73.6331 22.0642 73.0271C22.5049 72.4212 23.1016 71.9507 23.8545 71.6156C24.6073 71.2759 25.4565 71.1061 26.4021 71.1061C27.3569 71.1061 28.1992 71.2736 28.9291 71.6087C29.6635 71.9438 30.2419 72.4051 30.6642 72.9927C31.0865 73.5757 31.3069 74.2459 31.3252 75.0033H29.2733ZM33.6921 85.4004V71.2989H42.5331V73.1304H35.8197V77.427H42.0718V79.2516H35.8197V83.5688H42.6157V85.4004H33.6921Z" fill="black"/>
<line x1="140.612" y1="269.684" x2="140.612" y2="114.028" stroke="black" stroke-width="1.6158"/>
<line x1="300.577" y1="269.684" x2="300.577" y2="114.028" stroke="black" stroke-width="1.6158"/>
<mask id="mask0_1009_2196" style="mask-type:luminance" maskUnits="userSpaceOnUse" x="101" y="2" width="241" height="239">
<path d="M341.454 2H101.023V240.88H341.454V2Z" fill="white"/>
</mask>
<g mask="url(#mask0_1009_2196)">
<path d="M111.953 12.8584L116.333 29.9175L120.714 46.2789L124.656 60.4076L128.598 73.9711L132.54 86.9696L136.482 99.4028L140.425 111.271L143.929 121.346L147.433 130.974L150.937 140.156L154.441 148.892L157.946 157.18L161.45 165.023L164.516 171.519L167.582 177.672L170.648 183.484L173.714 188.954L176.781 194.083L179.847 198.869L182.475 202.699L185.103 206.279L187.731 209.607L190.359 212.684L192.987 215.509L195.616 218.084L198.244 220.407L200.434 222.152L202.624 223.721L204.814 225.117L207.004 226.338L209.194 227.384L211.384 228.257L213.574 228.954L215.765 229.478L217.955 229.826L220.145 230.001H222.335L224.525 229.826L226.715 229.478L228.905 228.954L231.095 228.257L233.286 227.384L235.476 226.338L237.666 225.117L239.856 223.721L242.046 222.152L244.236 220.407L246.426 218.489L249.054 215.956L251.682 213.172L254.311 210.137L256.939 206.851L259.567 203.313L262.195 199.525L264.823 195.485L267.889 190.454L270.956 185.082L274.022 179.368L277.088 173.312L280.154 166.914L283.22 160.174L286.724 152.052L290.229 143.484L293.733 134.47L297.237 125.009L300.741 115.101L304.245 104.747L308.188 92.5652L312.13 79.818L316.072 66.5056L320.014 52.6281L323.956 38.1854L327.899 23.1776L330.527 12.8584" stroke="#FFAF00" stroke-width="2.693" stroke-linecap="square"/>
</g>
<line x1="125.695" y1="71.9814" x2="160.166" y2="162.466" stroke="#FF5858" stroke-width="3.2316"/>
<line x1="317.442" y1="71.4999" x2="284.048" y2="161.985" stroke="#58A9FF" stroke-width="3.2316"/>
<path d="M75.2594 116.054H76.1535V125.791H75.2594V116.054ZM72.4048 117.098H73.2881C73.2881 119.921 72.017 122.387 68.7639 123.982L68.2899 123.26C71.1014 121.903 72.4048 119.834 72.4048 117.249V117.098ZM68.7316 117.098H72.7926V117.831H68.7316V117.098ZM81.8187 120.632H82.702V122.129H81.8187V120.632ZM82.2711 116.172C84.4147 116.172 85.6966 116.764 85.6966 117.852C85.6966 118.94 84.4147 119.544 82.2711 119.544C80.1167 119.544 78.8456 118.94 78.8456 117.852C78.8456 116.764 80.1167 116.172 82.2711 116.172ZM82.2711 116.851C80.6769 116.851 79.7612 117.217 79.7612 117.852C79.7612 118.499 80.6769 118.865 82.2711 118.865C83.8546 118.865 84.7702 118.499 84.7702 117.852C84.7702 117.217 83.8546 116.851 82.2711 116.851ZM77.8654 120.168H86.6661V120.901H77.8654V120.168ZM78.9318 121.795H85.5458V123.992H79.8366V125.177H78.9533V123.346H84.6625V122.484H78.9318V121.795ZM78.9533 124.983H85.8366V125.684H78.9533V124.983ZM94.6688 116.054H95.5629V125.791H94.6688V116.054ZM91.8143 117.098H92.6976C92.6976 119.921 91.4265 122.387 88.1733 123.982L87.6994 123.26C90.5108 121.903 91.8143 119.834 91.8143 117.249V117.098ZM88.141 117.098H92.202V117.831H88.141V117.098ZM100.529 121.191V120.185H105.429V121.191H100.529ZM100.529 123.547V122.541H105.429V123.547H100.529Z" fill="black"/>
<path d="M116.589 116.269C118.689 116.269 120.014 116.958 120.014 118.111C120.014 119.264 118.689 119.942 116.589 119.942C114.477 119.942 113.163 119.264 113.163 118.111C113.163 116.958 114.477 116.269 116.589 116.269ZM116.589 116.98C115.037 116.98 114.079 117.389 114.079 118.111C114.079 118.822 115.037 119.242 116.589 119.242C118.129 119.242 119.098 118.822 119.098 118.111C119.098 117.389 118.129 116.98 116.589 116.98ZM113.26 122.452H119.906V125.662H113.26V122.452ZM119.034 123.174H114.143V124.94H119.034V123.174ZM112.183 120.782H120.984V121.504H112.183V120.782ZM125.83 116.398H126.616V116.937C126.616 118.8 124.721 120.136 122.695 120.481L122.34 119.759C124.117 119.49 125.83 118.326 125.83 116.937V116.398ZM125.992 116.398H126.767V116.937C126.767 118.294 128.502 119.49 130.257 119.759L129.902 120.481C127.898 120.136 125.992 118.779 125.992 116.937V116.398ZM125.83 122.086H126.713V125.791H125.83V122.086ZM121.898 121.536H130.699V122.28H121.898V121.536Z" fill="#FF5858"/>
<path d="M323.552 117.131H324.446V126.869H323.552V117.131ZM320.698 118.176H321.581C321.581 120.998 320.31 123.465 317.057 125.059L316.583 124.337C319.394 122.98 320.698 120.912 320.698 118.326V118.176ZM317.025 118.176H321.086V118.908H317.025V118.176ZM330.112 121.709H330.995V123.206H330.112V121.709ZM330.564 117.249C332.708 117.249 333.99 117.842 333.99 118.93C333.99 120.018 332.708 120.621 330.564 120.621C328.41 120.621 327.139 120.018 327.139 118.93C327.139 117.842 328.41 117.249 330.564 117.249ZM330.564 117.928C328.97 117.928 328.054 118.294 328.054 118.93C328.054 119.576 328.97 119.942 330.564 119.942C332.148 119.942 333.063 119.576 333.063 118.93C333.063 118.294 332.148 117.928 330.564 117.928ZM326.158 121.246H334.959V121.978H326.158V121.246ZM327.225 122.872H333.839V125.07H328.13V126.255H327.246V124.423H332.955V123.562H327.225V122.872ZM327.246 126.061H334.13V126.761H327.246V126.061ZM342.962 117.131H343.856V126.869H342.962V117.131ZM340.107 118.176H340.991C340.991 120.998 339.719 123.465 336.466 125.059L335.992 124.337C338.804 122.98 340.107 120.912 340.107 118.326V118.176ZM336.434 118.176H340.495V118.908H336.434V118.176ZM348.822 122.268V121.262H353.722V122.268H348.822ZM348.822 124.624V123.618H353.722V124.624H348.822Z" fill="black"/>
<path d="M367.768 118.585H369.46V119.328H367.768V118.585ZM367.768 120.653H369.46V121.396H367.768V120.653ZM363.201 117.702C364.666 117.702 365.743 118.65 365.743 120.007C365.743 121.353 364.666 122.29 363.201 122.29C361.736 122.29 360.659 121.353 360.659 120.007C360.659 118.65 361.736 117.702 363.201 117.702ZM363.201 118.456C362.232 118.456 361.531 119.091 361.531 120.007C361.531 120.922 362.232 121.547 363.201 121.547C364.171 121.547 364.871 120.922 364.871 120.007C364.871 119.091 364.171 118.456 363.201 118.456ZM367.144 117.131H368.038V122.894H367.144V117.131ZM364.935 123.206C366.917 123.206 368.135 123.885 368.135 125.027C368.135 126.179 366.917 126.847 364.935 126.847C362.953 126.847 361.736 126.179 361.736 125.027C361.736 123.885 362.953 123.206 364.935 123.206ZM364.935 123.928C363.492 123.928 362.609 124.326 362.609 125.027C362.609 125.727 363.492 126.136 364.935 126.136C366.379 126.136 367.262 125.727 367.262 125.027C367.262 124.326 366.379 123.928 364.935 123.928ZM374.123 117.475H374.909V118.014C374.909 119.878 373.014 121.213 370.988 121.558L370.633 120.836C372.41 120.567 374.123 119.404 374.123 118.014V117.475ZM374.285 117.475H375.06V118.014C375.06 119.371 376.795 120.567 378.55 120.836L378.195 121.558C376.191 121.213 374.285 119.856 374.285 118.014V117.475ZM374.123 123.163H375.006V126.869H374.123V123.163ZM370.191 122.614H378.992V123.357H370.191V122.614Z" fill="#58A9FF"/>
<path d="M143.574 116.452L157.039 124.226V108.678L143.574 116.452ZM299.23 116.452L285.765 108.678V124.226L299.23 116.452ZM155.693 117.799H287.111V115.106H155.693V117.799Z" fill="#BB00FF"/>
</g>
<defs>
<filter id="filter0_d_1009_2196" x="-1" y="0.65332" width="385.02" height="309.347" filterUnits="userSpaceOnUse" color-interpolation-filters="sRGB">
<feFlood flood-opacity="0" result="BackgroundImageFix"/>
<feColorMatrix in="SourceAlpha" type="matrix" values="0 0 0 0 0 0 0 0 0 0 0 0 0 0 0 0 0 0 127 0" result="hardAlpha"/>
<feOffset dy="4"/>
<feGaussianBlur stdDeviation="2"/>
<feComposite in2="hardAlpha" operator="out"/>
<feColorMatrix type="matrix" values="0 0 0 0 0 0 0 0 0 0 0 0 0 0 0 0 0 0 0.25 0"/>
<feBlend mode="normal" in2="BackgroundImageFix" result="effect1_dropShadow_1009_2196"/>
<feBlend mode="normal" in="SourceGraphic" in2="effect1_dropShadow_1009_2196" result="shape"/>
</filter>
</defs>
</svg>
