<svg width="421" height="165" viewBox="0 0 421 165" fill="none" xmlns="http://www.w3.org/2000/svg">
<path d="M204.68 140.682C204.912 140.45 204.912 140.074 204.68 139.841L200.898 136.059C200.665 135.827 200.289 135.827 200.057 136.059C199.825 136.291 199.825 136.668 200.057 136.9L203.419 140.262L200.057 143.624C199.825 143.856 199.825 144.232 200.057 144.464C200.289 144.696 200.665 144.696 200.898 144.464L204.68 140.682ZM27.1504 140.856H204.26V139.667H27.1504V140.856Z" fill="black"/>
<path d="M27.5706 19.7876C27.3385 19.5555 26.9622 19.5555 26.7301 19.7876L22.9479 23.5698C22.7158 23.8019 22.7158 24.1782 22.9479 24.4103C23.18 24.6424 23.5563 24.6424 23.7884 24.4103L27.1504 21.0483L30.5124 24.4103C30.7445 24.6424 31.1208 24.6424 31.3529 24.4103C31.585 24.1782 31.585 23.8019 31.3529 23.5698L27.5706 19.7876ZM27.7447 140.262L27.7447 20.2078L26.5561 20.2078L26.5561 140.262L27.7447 140.262Z" fill="black"/>
<path d="M190.925 150.507L192.842 153.748H192.916L194.843 150.507H197.114L194.212 155.262L197.179 160.017H194.867L192.916 156.771H192.842L190.892 160.017H188.589L191.565 155.262L188.645 150.507H190.925Z" fill="black"/>
<path d="M10.7781 31.6421H13.03L15.1984 35.7374H15.2913L17.4596 31.6421H19.7116L16.2431 37.7897V41.1514H14.2465V37.7897L10.7781 31.6421Z" fill="black"/>
<line x1="0.719659" y1="99.0014" x2="192.687" y2="35.4085" stroke="black" stroke-width="1.78298" stroke-dasharray="5.94 5.94"/>
<line x1="52.4093" y1="102.225" x2="52.4093" y2="81.4232" stroke="black" stroke-width="1.78298"/>
<line x1="153.444" y1="48.7354" x2="153.444" y2="26.7453" stroke="black" stroke-width="1.78298"/>
<line x1="149.284" y1="88.5694" x2="148.69" y2="49.9382" stroke="black" stroke-width="1.78298"/>
<line x1="98.172" y1="92.7158" x2="98.172" y2="66.5655" stroke="black" stroke-width="1.78298"/>
<line x1="69.6447" y1="76.0879" x2="69.0504" y2="37.4567" stroke="black" stroke-width="1.78298"/>
<circle cx="52.7068" cy="102.225" r="4.75461" fill="#5161F1"/>
<circle cx="68.1589" cy="36.2546" r="4.75461" fill="#5161F1"/>
<circle cx="153.742" cy="27.3396" r="4.75461" fill="#5161F1"/>
<circle cx="149.582" cy="89.7439" r="4.75461" fill="#5161F1"/>
<circle cx="99.6579" cy="94.4987" r="4.75461" fill="#5161F1"/>
<line x1="119.569" y1="60.0545" x2="118.975" y2="39.8474" stroke="black" stroke-width="1.78298"/>
<circle cx="119.271" cy="40.4148" r="4.75461" fill="#5161F1"/>
<line x1="176.624" y1="61.836" x2="176.029" y2="41.0346" stroke="black" stroke-width="1.78298"/>
<circle cx="176.921" cy="61.2165" r="4.75461" fill="#5161F1"/>
<path d="M84.5555 150.276H85.9676V151.047C85.9676 153.322 84.8954 155.427 82.568 156.186L81.692 154.813C83.6925 154.159 84.5555 152.564 84.5555 151.047V150.276ZM84.9216 150.276H86.3206V151.047C86.3206 152.459 87.1444 153.95 89.0533 154.59L88.2034 155.95C85.9545 155.205 84.9216 153.191 84.9216 151.047V150.276ZM88.3473 151.962H90.6485V153.374H88.3473V151.962ZM82.1627 149.74H88.6742V151.112H82.1627V149.74ZM83.6402 156.826H91.8906V161.18H90.1516V158.212H83.6402V156.826ZM90.1516 149.073H91.8906V156.277H90.1516V149.073ZM93.5371 155.244H104.481V156.63H93.5371V155.244ZM94.8577 159.585H103.252V160.971H94.8577V159.585ZM94.8577 157.441H96.5967V160.03H94.8577V157.441ZM99.0156 149.426C101.644 149.426 103.396 150.38 103.396 151.923C103.396 153.466 101.644 154.42 99.0156 154.42C96.3744 154.42 94.6354 153.466 94.6354 151.923C94.6354 150.38 96.3744 149.426 99.0156 149.426ZM99.0156 150.812C97.3812 150.812 96.4267 151.191 96.4267 151.923C96.4267 152.668 97.3812 153.034 99.0156 153.034C100.65 153.034 101.604 152.668 101.604 151.923C101.604 151.191 100.65 150.812 99.0156 150.812ZM114.064 149.073H115.725V161.18H114.064V149.073ZM109.462 153.492H112.273V154.891H109.462V153.492ZM111.567 149.282H113.188V160.644H111.567V149.282ZM105.67 157.062H106.507C108.219 157.062 109.357 157.022 110.691 156.761L110.821 158.173C109.475 158.448 108.272 158.5 106.507 158.5H105.67V157.062ZM105.67 150.432H110.285V151.818H107.383V157.663H105.67V150.432ZM125.399 149.06H127.151V161.206H125.399V149.06ZM120.627 149.909C122.457 149.909 123.804 151.583 123.804 154.224C123.804 156.892 122.457 158.565 120.627 158.565C118.796 158.565 117.45 156.892 117.45 154.224C117.45 151.583 118.796 149.909 120.627 149.909ZM120.627 151.492C119.725 151.492 119.11 152.446 119.11 154.224C119.11 156.029 119.725 156.996 120.627 156.996C121.529 156.996 122.13 156.029 122.13 154.224C122.13 152.446 121.529 151.492 120.627 151.492ZM137.31 149.06H139.036V161.206H137.31V149.06ZM135.231 153.322H137.506V154.734H135.231V153.322ZM129.425 157.062H130.393C132.393 157.062 133.884 157.035 135.597 156.761L135.754 158.147C134.002 158.421 132.433 158.474 130.393 158.474H129.425V157.062ZM129.425 150.079H135.035V151.492H131.151V157.506H129.425V150.079ZM130.759 153.453H134.616V154.813H130.759V153.453Z" fill="black"/>
<path d="M420.42 140.683C420.652 140.451 420.652 140.075 420.42 139.842L416.638 136.06C416.406 135.828 416.029 135.828 415.797 136.06C415.565 136.292 415.565 136.669 415.797 136.901L419.159 140.263L415.797 143.625C415.565 143.857 415.565 144.233 415.797 144.465C416.029 144.697 416.406 144.697 416.638 144.465L420.42 140.683ZM242.891 140.857H420V139.668H242.891V140.857Z" fill="black"/>
<path d="M243.311 19.7885C243.079 19.5564 242.702 19.5564 242.47 19.7885L238.688 23.5708C238.456 23.8029 238.456 24.1792 238.688 24.4113C238.92 24.6434 239.297 24.6434 239.529 24.4113L242.891 21.0493L246.253 24.4113C246.485 24.6434 246.861 24.6434 247.093 24.4113C247.325 24.1792 247.325 23.8029 247.093 23.5708L243.311 19.7885ZM243.485 140.263L243.485 20.2088L242.296 20.2088L242.296 140.263L243.485 140.263Z" fill="black"/>
<path d="M406.665 150.506L408.582 153.747H408.657L410.584 150.506H412.854L409.952 155.261L412.919 160.016H410.607L408.657 156.77H408.582L406.632 160.016H404.329L407.305 155.261L404.385 150.506H406.665Z" fill="black"/>
<path d="M226.519 31.6421H228.771L230.94 35.7374H231.032L233.201 31.6421H235.453L231.984 37.7897V41.1514H229.988V37.7897L226.519 31.6421Z" fill="black"/>
<line x1="216.46" y1="99.0014" x2="408.427" y2="35.4085" stroke="black" stroke-width="1.78298" stroke-dasharray="2.97 2.97"/>
<line x1="268.15" y1="102.225" x2="268.15" y2="81.4232" stroke="black" stroke-width="1.78298"/>
<line x1="369.779" y1="48.1406" x2="369.779" y2="26.7449" stroke="black" stroke-width="1.78298"/>
<line x1="382.261" y1="83.207" x2="382.261" y2="43.9815" stroke="black" stroke-width="1.78298"/>
<line x1="313.913" y1="92.7148" x2="313.913" y2="66.5645" stroke="black" stroke-width="1.78298"/>
<line x1="284.791" y1="76.6689" x2="284.791" y2="37.4434" stroke="black" stroke-width="1.78298"/>
<circle cx="268.446" cy="102.224" r="4.75461" fill="#5161F1"/>
<line x1="282.414" y1="89.7441" x2="282.414" y2="76.669" stroke="black" stroke-width="1.78298"/>
<circle cx="283.305" cy="90.3396" r="4.75461" fill="#5161F1"/>
<circle cx="283.899" cy="36.2546" r="4.75461" fill="#5161F1"/>
<line x1="301.432" y1="70.7256" x2="301.432" y2="32.6887" stroke="black" stroke-width="1.78298"/>
<circle cx="300.541" cy="31.4997" r="4.75461" fill="#5161F1"/>
<circle cx="369.482" cy="27.3405" r="4.75461" fill="#5161F1"/>
<circle cx="381.964" cy="83.8005" r="4.75461" fill="#5161F1"/>
<circle cx="315.398" cy="94.4987" r="4.75461" fill="#5161F1"/>
<line x1="266.367" y1="82.6133" x2="266.367" y2="61.8119" stroke="black" stroke-width="1.78298"/>
<line x1="324.017" y1="83.8008" x2="324.017" y2="63.5937" stroke="black" stroke-width="1.78298"/>
<line x1="341.251" y1="77.2646" x2="341.251" y2="57.0576" stroke="black" stroke-width="1.78298"/>
<line x1="357.894" y1="52.8955" x2="357.894" y2="32.0941" stroke="black" stroke-width="1.78298"/>
<line x1="334.715" y1="59.4346" x2="334.715" y2="39.8218" stroke="black" stroke-width="1.78298"/>
<circle cx="335.011" cy="40.4157" r="4.75461" fill="#5161F1"/>
<line x1="319.262" y1="65.377" x2="319.262" y2="47.5472" stroke="black" stroke-width="1.78298"/>
<circle cx="319.559" cy="49.3298" r="4.75461" fill="#5161F1"/>
<line x1="392.364" y1="61.8115" x2="392.364" y2="40.4158" stroke="black" stroke-width="1.78298"/>
<circle cx="392.662" cy="61.2175" r="4.75461" fill="#5161F1"/>
<circle cx="266.069" cy="60.6218" r="4.75461" fill="#5161F1"/>
<circle cx="324.314" cy="83.8005" r="4.75461" fill="#5161F1"/>
<circle cx="341.549" cy="76.6687" r="4.75461" fill="#5161F1"/>
<circle cx="357.595" cy="32.6892" r="4.75461" fill="#5161F1"/>
<path d="M306.478 149.072H308.217V155.086H306.478V149.072ZM307.524 151.595H309.825V153.02H307.524V151.595ZM299.038 149.817H304.804V154.877H299.038V149.817ZM303.091 151.177H300.751V153.517H303.091V151.177ZM299.757 159.48H300.424C301.483 159.48 302.412 159.401 303.301 159.1L303.562 160.46C302.555 160.813 301.614 160.866 300.424 160.866H299.757V159.48ZM299.757 156.119H301.444V159.819H299.757V156.119ZM303.131 156.237H309.184V157.466H303.131V156.237ZM306.164 157.78C307.537 157.78 308.492 158.447 308.492 159.48C308.492 160.526 307.537 161.179 306.164 161.179C304.778 161.179 303.824 160.526 303.824 159.48C303.824 158.447 304.778 157.78 306.164 157.78ZM306.164 158.957C305.693 158.957 305.367 159.127 305.367 159.48C305.367 159.846 305.693 160.016 306.164 160.016C306.609 160.016 306.949 159.846 306.949 159.48C306.949 159.127 306.609 158.957 306.164 158.957ZM305.327 155.374H307.014V157.139H305.327V155.374ZM310.465 155.243H321.409V156.629H310.465V155.243ZM311.785 159.584H320.18V160.97H311.785V159.584ZM311.785 157.44H313.524V160.029H311.785V157.44ZM315.943 149.425C318.571 149.425 320.324 150.379 320.324 151.922C320.324 153.465 318.571 154.419 315.943 154.419C313.302 154.419 311.563 153.465 311.563 151.922C311.563 150.379 313.302 149.425 315.943 149.425ZM315.943 150.811C314.309 150.811 313.354 151.19 313.354 151.922C313.354 152.667 314.309 153.033 315.943 153.033C317.578 153.033 318.532 152.667 318.532 151.922C318.532 151.19 317.578 150.811 315.943 150.811ZM333.77 149.072H335.43V161.179H333.77V149.072ZM329.167 153.491H331.978V154.89H329.167V153.491ZM331.272 149.281H332.894V160.643H331.272V149.281ZM325.375 157.061H326.212C327.925 157.061 329.063 157.021 330.396 156.76L330.527 158.172C329.18 158.447 327.977 158.499 326.212 158.499H325.375V157.061ZM325.375 150.432H329.991V151.817H327.088V157.662H325.375V150.432ZM345.105 149.059H346.857V161.205H345.105V149.059ZM340.332 149.909C342.163 149.909 343.51 151.582 343.51 154.223C343.51 156.891 342.163 158.564 340.332 158.564C338.502 158.564 337.155 156.891 337.155 154.223C337.155 151.582 338.502 149.909 340.332 149.909ZM340.332 151.491C339.43 151.491 338.816 152.445 338.816 154.223C338.816 156.028 339.43 156.995 340.332 156.995C341.235 156.995 341.836 156.028 341.836 154.223C341.836 152.445 341.235 151.491 340.332 151.491ZM357.015 149.059H358.741V161.205H357.015V149.059ZM354.936 153.321H357.211V154.733H354.936V153.321ZM349.131 157.061H350.098C352.099 157.061 353.59 157.034 355.302 156.76L355.459 158.146C353.707 158.42 352.138 158.473 350.098 158.473H349.131V157.061ZM349.131 150.078H354.74V151.491H350.857V157.505H349.131V150.078ZM350.465 153.452H354.322V154.812H350.465V153.452Z" fill="black"/>
<line x1="340.657" y1="57.6494" x2="340.657" y2="18.4239" stroke="black" stroke-width="1.78298"/>
<circle cx="339.766" cy="17.2361" r="4.75461" fill="#5161F1"/>
<line x1="380.477" y1="44.5742" x2="380.477" y2="5.94301" stroke="black" stroke-width="1.78298"/>
<circle cx="379.587" cy="4.75461" r="4.75461" fill="#5161F1"/>
</svg>
