<svg width="199" height="163" viewBox="0 0 199 163" fill="none" xmlns="http://www.w3.org/2000/svg">
<path d="M14.7071 0.292893C14.3166 -0.0976311 13.6834 -0.0976311 13.2929 0.292893L6.92893 6.65685C6.53841 7.04738 6.53841 7.68054 6.92893 8.07107C7.31946 8.46159 7.95262 8.46159 8.34315 8.07107L14 2.41421L19.6569 8.07107C20.0474 8.46159 20.6805 8.46159 21.0711 8.07107C21.4616 7.68054 21.4616 7.04738 21.0711 6.65685L14.7071 0.292893ZM13 1L13 141L15 141L15 1L13 1Z" fill="#808080"/>
<path d="M198.707 140.707C199.098 140.317 199.098 139.683 198.707 139.293L192.343 132.929C191.953 132.538 191.319 132.538 190.929 132.929C190.538 133.319 190.538 133.953 190.929 134.343L196.586 140L190.929 145.657C190.538 146.047 190.538 146.681 190.929 147.071C191.319 147.462 191.953 147.462 192.343 147.071L198.707 140.707ZM198 139L13 139V141L198 141V139Z" fill="#808080"/>
<circle cx="89.5" cy="101.5" r="6.5" fill="#5161F1"/>
<circle cx="92.5" cy="56.5" r="6.5" fill="#5161F1"/>
<circle cx="96.5" cy="35.5" r="6.5" fill="#5161F1"/>
<circle cx="79.5" cy="75.5" r="6.5" fill="#5161F1"/>
<circle cx="43.5" cy="103.5" r="6.5" fill="#5161F1"/>
<circle cx="59.5" cy="123.5" r="6.5" fill="#5161F1"/>
<circle cx="78.5" cy="120.5" r="6.5" fill="#5161F1"/>
<circle cx="56.5" cy="75.5" r="6.5" fill="#5161F1"/>
<circle cx="65.5" cy="97.5" r="6.5" fill="#5161F1"/>
<circle cx="165.5" cy="34.5" r="6.5" fill="#5161F1"/>
<circle cx="149.5" cy="17.5" r="6.5" fill="#5161F1"/>
<circle cx="112.5" cy="51.5" r="6.5" fill="#5161F1"/>
<circle cx="142.5" cy="46.5" r="6.5" fill="#5161F1"/>
<circle cx="123.5" cy="28.5" r="6.5" fill="#5161F1"/>
<circle cx="102.5" cy="82.5" r="6.5" fill="#5161F1"/>
<circle cx="165.5" cy="58.5" r="6.5" fill="#5161F1"/>
<circle cx="136.5" cy="68.5" r="6.5" fill="#5161F1"/>
<circle cx="123.5" cy="82.5" r="6.5" fill="#5161F1"/>
<path d="M180.506 145.182L182.858 149.196L185.21 145.182H186.949L183.778 150.091L186.949 155H185.21L182.858 151.19L180.506 155H178.767L181.886 150.091L178.767 145.182H180.506Z" fill="#707070"/>
<path d="M0.309304 13.5455H1.92969L4.3995 17.8434H4.50107L6.97088 13.5455H8.59126L5.16122 19.2884V23H3.73935V19.2884L0.309304 13.5455Z" fill="#707070"/>
<line x1="14.3264" y1="137.904" x2="178.904" y2="17.6736" stroke="#07BF29" stroke-width="3" stroke-linecap="round"/>
<path d="M14.7071 0.292893C14.3166 -0.0976311 13.6834 -0.0976311 13.2929 0.292893L6.92893 6.65685C6.53841 7.04738 6.53841 7.68054 6.92893 8.07107C7.31946 8.46159 7.95262 8.46159 8.34315 8.07107L14 2.41421L19.6569 8.07107C20.0474 8.46159 20.6805 8.46159 21.0711 8.07107C21.4616 7.68054 21.4616 7.04738 21.0711 6.65685L14.7071 0.292893ZM13 1L13 141L15 141L15 1L13 1Z" fill="#808080"/>
<path d="M198.707 140.707C199.098 140.317 199.098 139.683 198.707 139.293L192.343 132.929C191.953 132.538 191.319 132.538 190.929 132.929C190.538 133.319 190.538 133.953 190.929 134.343L196.586 140L190.929 145.657C190.538 146.047 190.538 146.681 190.929 147.071C191.319 147.462 191.953 147.462 192.343 147.071L198.707 140.707ZM198 139L13 139V141L198 141V139Z" fill="#808080"/>
<circle cx="89.5" cy="101.5" r="6.5" fill="#5161F1"/>
<circle cx="92.5" cy="56.5" r="6.5" fill="#5161F1"/>
<circle cx="96.5" cy="35.5" r="6.5" fill="#5161F1"/>
<circle cx="79.5" cy="75.5" r="6.5" fill="#5161F1"/>
<circle cx="43.5" cy="103.5" r="6.5" fill="#5161F1"/>
<circle cx="59.5" cy="123.5" r="6.5" fill="#5161F1"/>
<circle cx="78.5" cy="120.5" r="6.5" fill="#5161F1"/>
<circle cx="56.5" cy="75.5" r="6.5" fill="#5161F1"/>
<circle cx="65.5" cy="97.5" r="6.5" fill="#5161F1"/>
<circle cx="165.5" cy="34.5" r="6.5" fill="#5161F1"/>
<circle cx="149.5" cy="17.5" r="6.5" fill="#5161F1"/>
<circle cx="112.5" cy="51.5" r="6.5" fill="#5161F1"/>
<circle cx="142.5" cy="46.5" r="6.5" fill="#5161F1"/>
<circle cx="123.5" cy="28.5" r="6.5" fill="#5161F1"/>
<circle cx="102.5" cy="82.5" r="6.5" fill="#5161F1"/>
<circle cx="165.5" cy="58.5" r="6.5" fill="#5161F1"/>
<circle cx="136.5" cy="68.5" r="6.5" fill="#5161F1"/>
<circle cx="123.5" cy="82.5" r="6.5" fill="#5161F1"/>
<path d="M180.506 145.182L182.858 149.196L185.21 145.182H186.949L183.778 150.091L186.949 155H185.21L182.858 151.19L180.506 155H178.767L181.886 150.091L178.767 145.182H180.506Z" fill="#707070"/>
<path d="M0.309304 13.5455H1.92969L4.3995 17.8434H4.50107L6.97088 13.5455H8.59126L5.16122 19.2884V23H3.73935V19.2884L0.309304 13.5455Z" fill="#707070"/>
<line x1="14.3264" y1="137.904" x2="178.904" y2="17.6736" stroke="#07BF29" stroke-width="3" stroke-linecap="round"/>
</svg>
