<svg width="348" height="275" viewBox="0 0 348 275" fill="none" xmlns="http://www.w3.org/2000/svg">
<g filter="url(#filter0_d_1009_2466)">
<path d="M332.51 245.563C332.987 245.087 332.987 244.314 332.51 243.837L324.741 236.068C324.264 235.591 323.491 235.591 323.015 236.068C322.538 236.544 322.538 237.317 323.015 237.794L329.921 244.7L323.015 251.606C322.538 252.083 322.538 252.856 323.015 253.333C323.491 253.809 324.264 253.809 324.741 253.333L332.51 245.563ZM53.7871 245.921H331.647V243.479H53.7871V245.921Z" fill="black"/>
<path d="M54.6504 1.13676C54.1736 0.660004 53.4006 0.660004 52.9238 1.13676L45.1546 8.90605C44.6778 9.38281 44.6778 10.1558 45.1546 10.6326C45.6313 11.1093 46.4043 11.1093 46.8811 10.6326L53.7871 3.72652L60.6931 10.6326C61.1699 11.1093 61.9429 11.1093 62.4196 10.6326C62.8964 10.1558 62.8964 9.38281 62.4196 8.90605L54.6504 1.13676ZM55.0079 244.7L55.0079 2.00002L52.5663 2.00002L52.5663 244.7L55.0079 244.7Z" fill="black"/>
<path d="M308.834 266.842C308.227 266.842 307.677 266.73 307.186 266.505C306.695 266.276 306.306 265.945 306.019 265.512C305.736 265.08 305.594 264.549 305.594 263.92C305.594 263.379 305.698 262.934 305.907 262.585C306.115 262.235 306.396 261.958 306.749 261.754C307.103 261.55 307.498 261.396 307.935 261.292C308.372 261.188 308.818 261.109 309.271 261.055C309.846 260.988 310.312 260.934 310.67 260.893C311.028 260.847 311.288 260.774 311.45 260.674C311.613 260.574 311.694 260.412 311.694 260.187V260.144C311.694 259.598 311.54 259.176 311.232 258.876C310.928 258.577 310.474 258.427 309.871 258.427C309.242 258.427 308.747 258.566 308.385 258.845C308.027 259.12 307.779 259.426 307.642 259.763L305.888 259.363C306.096 258.781 306.4 258.31 306.799 257.952C307.203 257.59 307.667 257.328 308.191 257.166C308.716 256.999 309.267 256.916 309.846 256.916C310.229 256.916 310.634 256.962 311.063 257.053C311.496 257.141 311.9 257.303 312.274 257.54C312.653 257.778 312.963 258.117 313.204 258.558C313.446 258.995 313.567 259.563 313.567 260.262V266.63H311.744V265.319H311.669C311.548 265.56 311.367 265.798 311.126 266.031C310.884 266.264 310.574 266.457 310.195 266.611C309.817 266.765 309.363 266.842 308.834 266.842ZM309.24 265.344C309.756 265.344 310.197 265.242 310.564 265.038C310.934 264.834 311.215 264.568 311.406 264.239C311.602 263.906 311.7 263.55 311.7 263.171V261.935C311.633 262.002 311.504 262.064 311.313 262.123C311.126 262.177 310.911 262.225 310.67 262.266C310.428 262.304 310.193 262.339 309.964 262.372C309.735 262.401 309.544 262.426 309.39 262.447C309.028 262.493 308.697 262.57 308.397 262.678C308.102 262.786 307.865 262.942 307.686 263.146C307.511 263.346 307.424 263.613 307.424 263.945C307.424 264.407 307.594 264.757 307.935 264.994C308.277 265.227 308.712 265.344 309.24 265.344Z" fill="black"/>
<path d="M130.186 253.845V266.63H128.251V255.78H128.176L125.117 257.778V255.93L128.307 253.845H130.186Z" fill="black"/>
<path d="M273.357 266.805C272.499 266.805 271.734 266.657 271.059 266.361C270.389 266.066 269.859 265.656 269.467 265.132C269.08 264.603 268.872 263.991 268.843 263.296H270.803C270.828 263.675 270.955 264.004 271.184 264.283C271.417 264.557 271.721 264.77 272.096 264.919C272.47 265.069 272.886 265.144 273.344 265.144C273.848 265.144 274.293 265.057 274.68 264.882C275.071 264.707 275.377 264.464 275.598 264.151C275.819 263.835 275.929 263.471 275.929 263.059C275.929 262.63 275.819 262.254 275.598 261.929C275.382 261.6 275.063 261.342 274.643 261.155C274.227 260.968 273.723 260.874 273.132 260.874H272.052V259.301H273.132C273.606 259.301 274.023 259.215 274.381 259.045C274.743 258.874 275.026 258.637 275.23 258.333C275.434 258.025 275.536 257.665 275.536 257.253C275.536 256.858 275.446 256.514 275.267 256.223C275.092 255.928 274.843 255.697 274.518 255.53C274.197 255.364 273.819 255.28 273.382 255.28C272.966 255.28 272.576 255.357 272.214 255.511C271.856 255.661 271.565 255.878 271.34 256.161C271.116 256.439 270.995 256.774 270.978 257.166H269.112C269.132 256.475 269.336 255.867 269.723 255.343C270.115 254.818 270.631 254.408 271.272 254.113C271.913 253.817 272.624 253.67 273.407 253.67C274.227 253.67 274.934 253.83 275.529 254.15C276.129 254.467 276.591 254.889 276.915 255.418C277.244 255.946 277.406 256.525 277.402 257.153C277.406 257.869 277.207 258.477 276.803 258.976C276.403 259.476 275.871 259.811 275.205 259.981V260.081C276.054 260.21 276.711 260.547 277.177 261.092C277.648 261.638 277.881 262.314 277.877 263.121C277.881 263.825 277.685 264.455 277.29 265.013C276.899 265.571 276.364 266.01 275.685 266.33C275.007 266.647 274.231 266.805 273.357 266.805Z" fill="black"/>
<path d="M4.40464 63.8845H6.74572L10.8161 73.8232H10.9659L15.0362 63.8845H17.3773V76.6699H15.5419V67.418H15.4233L11.6526 76.6512H10.1293L6.35866 67.4118H6.24004V76.6699H4.40464V63.8845ZM26.8212 67.2432C26.7546 66.6522 26.4799 66.1944 25.9971 65.8698C25.5143 65.541 24.9067 65.3766 24.1742 65.3766C23.6498 65.3766 23.1961 65.4598 22.8132 65.6263C22.4304 65.7886 22.1328 66.0134 21.9205 66.3005C21.7124 66.5835 21.6084 66.9061 21.6084 67.2682C21.6084 67.572 21.6791 67.8342 21.8206 68.0548C21.9663 68.2754 22.1557 68.4606 22.3887 68.6104C22.626 68.7561 22.8798 68.8788 23.1504 68.9787C23.4209 69.0744 23.681 69.1535 23.9307 69.2159L25.1793 69.5406C25.5872 69.6405 26.0054 69.7757 26.4341 69.9464C26.8628 70.117 27.2602 70.3417 27.6265 70.6206C27.9927 70.8994 28.2882 71.2449 28.513 71.6569C28.7419 72.0689 28.8563 72.5621 28.8563 73.1365C28.8563 73.8606 28.6691 74.5036 28.2945 75.0655C27.9241 75.6274 27.3851 76.0706 26.6776 76.3952C25.9742 76.7199 25.1231 76.8822 24.1242 76.8822C23.167 76.8822 22.3388 76.7303 21.6396 76.4265C20.9404 76.1226 20.3931 75.6919 19.9977 75.1342C19.6023 74.5723 19.3838 73.9064 19.3422 73.1365H21.2775C21.315 73.5984 21.4648 73.9834 21.727 74.2914C21.9934 74.5952 22.3325 74.822 22.7446 74.9719C23.1608 75.1175 23.6165 75.1904 24.1118 75.1904C24.657 75.1904 25.1418 75.105 25.5663 74.9344C25.995 74.7596 26.3321 74.5182 26.5777 74.2102C26.8232 73.8981 26.946 73.5339 26.946 73.1177C26.946 72.739 26.8378 72.4289 26.6214 72.1875C26.4091 71.9462 26.1199 71.7464 25.7536 71.5882C25.3916 71.4301 24.9816 71.2907 24.5238 71.17L23.013 70.7579C21.9892 70.4791 21.1776 70.0691 20.5783 69.5281C19.9832 68.987 19.6856 68.2712 19.6856 67.3805C19.6856 66.6439 19.8853 66.0009 20.2849 65.4515C20.6844 64.9021 21.2255 64.4755 21.908 64.1717C22.5906 63.8637 23.3605 63.7097 24.2179 63.7097C25.0836 63.7097 25.8473 63.8617 26.509 64.1655C27.1749 64.4693 27.6993 64.8876 28.0822 65.4203C28.4651 65.9489 28.6649 66.5565 28.6815 67.2432H26.8212ZM30.8275 76.6699V63.8845H38.8433V65.5451H32.7565V69.4407H38.4251V71.095H32.7565V75.0093H38.9182V76.6699H30.8275Z" fill="black"/>
<line x1="127.768" y1="244.7" x2="127.768" y2="103.573" stroke="black" stroke-width="1.46499"/>
<line x1="272.803" y1="244.7" x2="272.803" y2="103.573" stroke="black" stroke-width="1.46499"/>
<mask id="mask0_1009_2466" style="mask-type:luminance" maskUnits="userSpaceOnUse" x="91" y="2" width="219" height="217">
<path d="M309.864 2H91.873V218.584H309.864V2Z" fill="white"/>
</mask>
<g mask="url(#mask0_1009_2466)">
<path d="M101.783 11.8447L105.755 27.3116L109.726 42.146L113.3 54.956L116.875 67.2536L120.449 79.0388L124.023 90.3117L127.597 101.072L130.774 110.207L133.952 118.937L137.129 127.261L140.306 135.182L143.483 142.697L146.66 149.807L149.44 155.697L152.22 161.276L155 166.546L157.78 171.505L160.56 176.155L163.34 180.494L165.723 183.967L168.106 187.212L170.489 190.23L172.871 193.02L175.254 195.582L177.637 197.916L180.02 200.022L182.006 201.604L183.991 203.027L185.977 204.292L187.963 205.399L189.948 206.348L191.934 207.139L193.92 207.772L195.906 208.246L197.891 208.562L199.877 208.721H201.863L203.848 208.562L205.834 208.246L207.82 207.772L209.806 207.139L211.791 206.348L213.777 205.399L215.763 204.292L217.748 203.027L219.734 201.604L221.72 200.022L223.705 198.283L226.088 195.986L228.471 193.462L230.854 190.711L233.237 187.731L235.62 184.524L238.003 181.089L240.385 177.426L243.165 172.865L245.945 167.994L248.725 162.813L251.505 157.322L254.285 151.521L257.065 145.411L260.242 138.047L263.42 130.279L266.597 122.106L269.774 113.528L272.951 104.545L276.128 95.1573L279.702 84.1122L283.277 72.5547L286.851 60.4849L290.425 47.9026L293.999 34.8079L297.574 21.2008L299.957 11.8447" stroke="#FFAF00" stroke-width="2.44165" stroke-linecap="square"/>
</g>
<line x1="114.244" y1="65.4501" x2="145.497" y2="147.49" stroke="#FF585B" stroke-width="2.92998"/>
<line x1="288.095" y1="65.0131" x2="257.819" y2="147.053" stroke="#58A9FF" stroke-width="2.92998"/>
<path d="M68.5144 105.528H69.325V114.357H68.5144V105.528ZM65.9262 106.476H66.7271C66.7271 109.035 65.5746 111.271 62.6251 112.717L62.1954 112.062C64.7445 110.832 65.9262 108.957 65.9262 106.613V106.476ZM62.5958 106.476H66.2778V107.14H62.5958V106.476ZM74.4615 109.679H75.2623V111.037H74.4615V109.679ZM74.8717 105.636C76.8152 105.636 77.9774 106.173 77.9774 107.16C77.9774 108.146 76.8152 108.693 74.8717 108.693C72.9183 108.693 71.7659 108.146 71.7659 107.16C71.7659 106.173 72.9183 105.636 74.8717 105.636ZM74.8717 106.251C73.4262 106.251 72.596 106.583 72.596 107.16C72.596 107.746 73.4262 108.078 74.8717 108.078C76.3074 108.078 77.1375 107.746 77.1375 107.16C77.1375 106.583 76.3074 106.251 74.8717 106.251ZM70.8771 109.259H78.8564V109.923H70.8771V109.259ZM71.844 110.734H77.8407V112.726H72.6644V113.801H71.8635V112.14H77.0399V111.359H71.844V110.734ZM71.8635 113.625H78.1044V114.26H71.8635V113.625ZM86.1123 105.528H86.9229V114.357H86.1123V105.528ZM83.5241 106.476H84.325C84.325 109.035 83.1725 111.271 80.223 112.717L79.7933 112.062C82.3424 110.832 83.5241 108.957 83.5241 106.613V106.476ZM80.1937 106.476H83.8757V107.14H80.1937V106.476ZM91.4257 110.186V109.274H95.8685V110.186H91.4257ZM91.4257 112.323V111.411H95.8685V112.323H91.4257Z" fill="black"/>
<path d="M105.986 105.724C107.891 105.724 109.092 106.349 109.092 107.394C109.092 108.439 107.891 109.054 105.986 109.054C104.072 109.054 102.88 108.439 102.88 107.394C102.88 106.349 104.072 105.724 105.986 105.724ZM105.986 106.368C104.58 106.368 103.711 106.74 103.711 107.394C103.711 108.039 104.58 108.419 105.986 108.419C107.383 108.419 108.262 108.039 108.262 107.394C108.262 106.74 107.383 106.368 105.986 106.368ZM102.968 111.33H108.994V114.24H102.968V111.33ZM108.203 111.984H103.769V113.586H108.203V111.984ZM101.992 109.816H109.971V110.47H101.992V109.816ZM114.365 105.841H115.078V106.329C115.078 108.019 113.359 109.23 111.523 109.543L111.201 108.888C112.812 108.644 114.365 107.589 114.365 106.329V105.841ZM114.512 105.841H115.215V106.329C115.215 107.56 116.787 108.644 118.379 108.888L118.057 109.543C116.24 109.23 114.512 107.999 114.512 106.329V105.841ZM114.365 110.998H115.166V114.357H114.365V110.998ZM110.8 110.5H118.78V111.174H110.8V110.5Z" fill="#FF5858"/>
<path d="M293.635 106.505H294.446V115.334H293.635V106.505ZM291.047 107.452H291.848C291.848 110.011 290.696 112.248 287.746 113.693L287.316 113.039C289.866 111.808 291.047 109.933 291.047 107.589V107.452ZM287.717 107.452H291.399V108.117H287.717V107.452ZM299.583 110.656H300.383V112.013H299.583V110.656ZM299.993 106.612C301.936 106.612 303.099 107.15 303.099 108.136C303.099 109.122 301.936 109.669 299.993 109.669C298.039 109.669 296.887 109.122 296.887 108.136C296.887 107.15 298.039 106.612 299.993 106.612ZM299.993 107.228C298.547 107.228 297.717 107.56 297.717 108.136C297.717 108.722 298.547 109.054 299.993 109.054C301.428 109.054 302.259 108.722 302.259 108.136C302.259 107.56 301.428 107.228 299.993 107.228ZM295.998 110.236H303.978V110.9H295.998V110.236ZM296.965 111.711H302.962V113.703H297.786V114.777H296.985V113.117H302.161V112.336H296.965V111.711ZM296.985 114.602H303.226V115.236H296.985V114.602ZM311.233 106.505H312.044V115.334H311.233V106.505ZM308.645 107.452H309.446C309.446 110.011 308.294 112.248 305.344 113.693L304.914 113.039C307.463 111.808 308.645 109.933 308.645 107.589V107.452ZM305.315 107.452H308.997V108.117H305.315V107.452ZM316.547 111.163V110.251H320.99V111.163H316.547ZM316.547 113.299V112.387H320.99V113.299H316.547Z" fill="black"/>
<path d="M333.725 107.824H335.258V108.497H333.725V107.824ZM333.725 109.699H335.258V110.373H333.725V109.699ZM329.584 107.023C330.912 107.023 331.889 107.882 331.889 109.113C331.889 110.334 330.912 111.183 329.584 111.183C328.255 111.183 327.279 110.334 327.279 109.113C327.279 107.882 328.255 107.023 329.584 107.023ZM329.584 107.706C328.705 107.706 328.07 108.283 328.07 109.113C328.07 109.943 328.705 110.509 329.584 110.509C330.463 110.509 331.097 109.943 331.097 109.113C331.097 108.283 330.463 107.706 329.584 107.706ZM333.158 106.505H333.969V111.73H333.158V106.505ZM331.156 112.013C332.953 112.013 334.057 112.629 334.057 113.664C334.057 114.709 332.953 115.315 331.156 115.315C329.359 115.315 328.255 114.709 328.255 113.664C328.255 112.629 329.359 112.013 331.156 112.013ZM331.156 112.668C329.847 112.668 329.047 113.029 329.047 113.664C329.047 114.299 329.847 114.67 331.156 114.67C332.465 114.67 333.266 114.299 333.266 113.664C333.266 113.029 332.465 112.668 331.156 112.668ZM339.486 106.818H340.199V107.306C340.199 108.996 338.48 110.207 336.644 110.519L336.322 109.865C337.933 109.621 339.486 108.566 339.486 107.306V106.818ZM339.633 106.818H340.336V107.306C340.336 108.537 341.908 109.621 343.5 109.865L343.178 110.519C341.361 110.207 339.633 108.976 339.633 107.306V106.818ZM339.486 111.974H340.287V115.334H339.486V111.974ZM335.921 111.476H343.901V112.15H335.921V111.476Z" fill="#58A9FF"/>
</g>
<defs>
<filter id="filter0_d_1009_2466" x="-1" y="0.779297" width="349.832" height="281.221" filterUnits="userSpaceOnUse" color-interpolation-filters="sRGB">
<feFlood flood-opacity="0" result="BackgroundImageFix"/>
<feColorMatrix in="SourceAlpha" type="matrix" values="0 0 0 0 0 0 0 0 0 0 0 0 0 0 0 0 0 0 127 0" result="hardAlpha"/>
<feOffset dy="4"/>
<feGaussianBlur stdDeviation="2"/>
<feComposite in2="hardAlpha" operator="out"/>
<feColorMatrix type="matrix" values="0 0 0 0 0 0 0 0 0 0 0 0 0 0 0 0 0 0 0.25 0"/>
<feBlend mode="normal" in2="BackgroundImageFix" result="effect1_dropShadow_1009_2466"/>
<feBlend mode="normal" in="SourceGraphic" in2="effect1_dropShadow_1009_2466" result="shape"/>
</filter>
</defs>
</svg>
