<svg width="337" height="277" viewBox="0 0 337 277" fill="none" xmlns="http://www.w3.org/2000/svg">
<path d="M273.605 22.3164C273.605 22.1695 273.684 21.9176 273.842 21.5608C273.999 21.204 274.251 20.8314 274.598 20.4431C274.945 20.0548 275.333 19.8659 275.764 19.8764C276.194 19.8764 276.541 19.9971 276.804 20.2385C277.066 20.4798 277.203 20.8157 277.213 21.246C277.192 21.4454 277.176 21.5556 277.166 21.5765C277.166 21.608 277.082 21.8494 276.914 22.3007C276.746 22.752 276.573 23.2609 276.394 23.8277C276.215 24.3944 276.131 24.8457 276.142 25.1815C276.142 25.6328 276.215 25.9476 276.363 26.126C276.51 26.3044 276.73 26.3989 277.024 26.4094C277.266 26.4094 277.492 26.3516 277.702 26.2362C277.912 26.1208 278.074 26.0001 278.19 25.8741C278.306 25.7482 278.447 25.575 278.615 25.3546C278.615 25.3441 278.642 25.2392 278.694 25.0398C278.747 24.8404 278.82 24.5308 278.915 24.111C279.009 23.6912 279.109 23.3029 279.214 22.9461C279.613 21.3719 279.834 20.5481 279.876 20.4746C280.012 20.1912 280.238 20.0496 280.553 20.0496C280.69 20.0496 280.8 20.0863 280.884 20.1598C280.968 20.2332 281.026 20.2962 281.057 20.3487C281.089 20.4011 281.099 20.4484 281.089 20.4903C281.089 20.6268 280.832 21.7287 280.317 23.7962C279.802 25.8636 279.508 26.9971 279.435 27.1965C279.141 28.0675 278.631 28.7602 277.906 29.2744C277.182 29.7887 276.457 30.051 275.732 30.0615C275.26 30.0615 274.845 29.9461 274.488 29.7152C274.131 29.4843 273.952 29.138 273.952 28.6762C273.952 28.4453 273.989 28.2512 274.062 28.0938C274.136 27.9363 274.236 27.8209 274.362 27.7474C274.488 27.674 274.593 27.6215 274.677 27.59C274.761 27.5585 274.85 27.5428 274.945 27.5428C275.407 27.5428 275.638 27.7632 275.638 28.204C275.638 28.4139 275.575 28.5975 275.449 28.7549C275.323 28.9124 275.202 29.0173 275.086 29.0698C274.971 29.1222 274.903 29.1485 274.882 29.1485L274.834 29.1642C274.855 29.2167 274.955 29.2797 275.134 29.3531C275.312 29.4266 275.491 29.4633 275.669 29.4633H275.795C275.974 29.4633 276.11 29.4528 276.205 29.4318C276.552 29.3374 276.872 29.138 277.166 28.8336C277.46 28.5293 277.686 28.204 277.843 27.8576C278.001 27.5113 278.122 27.2175 278.206 26.9761C278.29 26.7347 278.332 26.5773 278.332 26.5038L278.237 26.5668C278.174 26.6088 278.074 26.6665 277.938 26.7399C277.801 26.8134 277.665 26.8764 277.528 26.9289C277.318 26.9813 277.113 27.0076 276.914 27.0076C276.431 27.0076 276.005 26.8921 275.638 26.6612C275.27 26.4304 275.029 26.0578 274.913 25.5435C274.903 25.4701 274.897 25.3074 274.897 25.0555C274.897 24.4573 275.081 23.6755 275.449 22.71C275.816 21.7445 276 21.1305 276 20.8682C276 20.8577 276 20.8472 276 20.8367C276 20.7422 276 20.6792 276 20.6478C276 20.6163 275.979 20.5795 275.937 20.5376C275.895 20.4956 275.837 20.4746 275.764 20.4746H275.701C275.459 20.4746 275.239 20.5743 275.039 20.7737C274.84 20.9731 274.682 21.1882 274.566 21.4191C274.451 21.65 274.362 21.8704 274.299 22.0803C274.236 22.2902 274.194 22.4056 274.173 22.4266C274.152 22.4476 274.068 22.4581 273.921 22.4581H273.7C273.637 22.3951 273.605 22.3479 273.605 22.3164Z" fill="black"/>
<path d="M286.254 21.3714C286.254 21.235 286.327 21.1301 286.474 21.0566H296.51C296.668 21.1405 296.746 21.2455 296.746 21.3714C296.746 21.4869 296.673 21.5866 296.526 21.6705L291.516 21.6863H286.506C286.338 21.6338 286.254 21.5289 286.254 21.3714ZM286.254 24.4254C286.254 24.268 286.338 24.163 286.506 24.1106H296.526C296.673 24.2155 296.746 24.3204 296.746 24.4254C296.746 24.5618 296.668 24.6668 296.51 24.7402H286.474C286.327 24.6668 286.254 24.5618 286.254 24.4254Z" fill="black"/>
<path d="M302.823 22.2842C302.896 21.8434 303.18 21.3344 303.673 20.7572C304.167 20.18 304.776 19.8862 305.501 19.8757C305.868 19.8757 306.204 19.9701 306.509 20.159C306.814 20.3479 307.039 20.5841 307.187 20.8674C307.628 20.2063 308.158 19.8757 308.778 19.8757C309.166 19.8757 309.502 19.9911 309.786 20.222C310.07 20.4529 310.217 20.7625 310.227 21.1508C310.227 21.4551 310.154 21.7018 310.007 21.8907C309.86 22.0796 309.718 22.195 309.581 22.237C309.445 22.279 309.324 22.3 309.219 22.3C309.019 22.3 308.856 22.2422 308.73 22.1268C308.604 22.0114 308.541 21.8592 308.541 21.6703C308.541 21.1875 308.804 20.8569 309.329 20.6785C309.214 20.5421 309.004 20.4739 308.699 20.4739C308.562 20.4739 308.463 20.4844 308.4 20.5054C308 20.6733 307.706 21.0196 307.517 21.5443C306.887 23.8637 306.572 25.2175 306.572 25.6058C306.572 25.8996 306.656 26.1095 306.824 26.2355C306.992 26.3614 307.176 26.4244 307.376 26.4244C307.764 26.4244 308.148 26.2512 308.526 25.9049C308.904 25.5586 309.161 25.1335 309.298 24.6298C309.329 24.5248 309.361 24.4671 309.392 24.4566C309.424 24.4461 309.508 24.4356 309.644 24.4251H309.707C309.865 24.4251 309.944 24.4671 309.944 24.5511C309.944 24.5616 309.933 24.6193 309.912 24.7242C309.744 25.3224 309.418 25.8524 308.935 26.3142C308.452 26.776 307.89 27.0068 307.25 27.0068C306.514 27.0068 305.958 26.6763 305.58 26.0151C305.149 26.6658 304.655 26.9911 304.099 26.9911H304.004C303.489 26.9911 303.122 26.8547 302.901 26.5818C302.681 26.3089 302.565 26.0203 302.555 25.716C302.555 25.3802 302.654 25.1073 302.854 24.8974C303.054 24.6875 303.29 24.5826 303.563 24.5826C304.015 24.5826 304.24 24.8029 304.24 25.2437C304.24 25.4536 304.177 25.6373 304.051 25.7947C303.925 25.9521 303.805 26.0571 303.689 26.1095C303.573 26.162 303.505 26.1882 303.484 26.1882L303.437 26.204C303.437 26.2145 303.468 26.2355 303.531 26.267C303.594 26.2984 303.679 26.3352 303.784 26.3772C303.889 26.4191 303.988 26.4349 304.083 26.4244C304.461 26.4244 304.787 26.1882 305.06 25.716C305.154 25.5481 305.275 25.1913 305.422 24.6455C305.569 24.0998 305.716 23.5331 305.863 22.9454C306.01 22.3577 306.094 22.0114 306.115 21.9064C306.168 21.623 306.194 21.4184 306.194 21.2925C306.194 20.9986 306.115 20.7887 305.958 20.6628C305.8 20.5368 305.622 20.4739 305.422 20.4739C305.002 20.4739 304.608 20.6418 304.24 20.9776C303.873 21.3135 303.615 21.7437 303.468 22.2685C303.447 22.3629 303.421 22.4154 303.39 22.4259C303.358 22.4364 303.274 22.4469 303.138 22.4574H302.917C302.854 22.3944 302.823 22.3367 302.823 22.2842Z" fill="black"/>
<path d="M315.398 23.1033C315.398 23.1033 315.398 23.0351 315.398 22.8986C315.398 22.7622 315.472 22.6573 315.619 22.5838H320.33V20.2225L320.345 17.8612C320.45 17.7247 320.55 17.6565 320.645 17.6565C320.781 17.6565 320.886 17.7352 320.96 17.8927V22.5838H325.655C325.812 22.6677 325.891 22.7727 325.891 22.8986C325.891 23.0246 325.812 23.1295 325.655 23.2135H320.96V27.9046C320.876 28.0515 320.781 28.125 320.676 28.125H320.645H320.613C320.487 28.125 320.393 28.0515 320.33 27.9046V23.2135H315.619C315.472 23.14 315.398 23.0351 315.398 22.8986V23.1033Z" fill="black"/>
<path d="M333.63 17.7351L333.425 17.8138C333.278 17.8663 333.068 17.9187 332.795 17.9712C332.522 18.0237 332.217 18.0604 331.881 18.0814H331.582V17.3573H331.881C332.375 17.3363 332.832 17.2576 333.252 17.1211C333.672 16.9847 333.966 16.8588 334.134 16.7433C334.302 16.6279 334.449 16.5124 334.575 16.397C334.596 16.3655 334.659 16.3498 334.764 16.3498C334.859 16.3498 334.948 16.3812 335.032 16.4442V21.1511L335.048 25.8737C335.122 25.9472 335.185 25.9944 335.237 26.0154C335.29 26.0364 335.416 26.0574 335.615 26.0784C335.815 26.0994 336.14 26.1098 336.592 26.1098H337.002V26.834H336.828C336.608 26.8025 335.773 26.7868 334.323 26.7868C332.895 26.7868 332.07 26.8025 331.85 26.834H331.661V26.1098H332.07C332.301 26.1098 332.501 26.1098 332.669 26.1098C332.837 26.1098 332.968 26.1046 333.063 26.0941C333.157 26.0836 333.242 26.0679 333.315 26.0469C333.389 26.0259 333.431 26.0154 333.441 26.0154C333.452 26.0154 333.483 25.9892 333.536 25.9367C333.588 25.8842 333.62 25.8632 333.63 25.8737V17.7351Z" fill="black"/>
<path d="M21.4433 7.75058C21.1176 7.42482 20.5894 7.42482 20.2637 7.75058L14.9551 13.0591C14.6294 13.3849 14.6294 13.9131 14.9551 14.2388C15.2809 14.5646 15.809 14.5646 16.1348 14.2388L20.8535 9.5201L25.5722 14.2388C25.898 14.5646 26.4261 14.5646 26.7519 14.2388C27.0777 13.9131 27.0777 13.3849 26.7519 13.0591L21.4433 7.75058ZM21.6877 229.226L21.6877 8.34042L20.0193 8.34042L20.0194 229.226L21.6877 229.226Z" fill="black"/>
<path d="M289.876 229.815C290.201 229.49 290.201 228.962 289.876 228.636L284.567 223.327C284.241 223.001 283.713 223.001 283.388 223.327C283.062 223.653 283.062 224.181 283.388 224.507L288.106 229.226L283.388 233.944C283.062 234.27 283.062 234.798 283.388 235.124C283.713 235.45 284.241 235.45 284.567 235.124L289.876 229.815ZM20.0195 230.06L289.286 230.06V228.391L20.0195 228.391V230.06Z" fill="black"/>
<path d="M102.803 273.072V262.191H105.605V263.201H104.023V272.061H105.605V273.072H102.803ZM112.155 262.27H112.972V264.216C112.972 266.714 111.627 269.033 109.849 269.934L109.236 269.117C110.846 268.348 112.155 266.27 112.155 264.216V262.27ZM112.323 262.27H113.14V264.216C113.14 266.198 114.437 268.192 116.047 268.937L115.446 269.729C113.681 268.865 112.323 266.63 112.323 264.216V262.27ZM117.176 261.321H118.173V272.204H117.176V261.321ZM127.541 261.333H128.538V269.273H127.541V261.333ZM128.226 264.624H130.148V265.453H128.226V264.624ZM124.574 262.174H125.632C125.632 264.985 123.662 267.039 120.551 268.036L120.118 267.219C122.857 266.378 124.574 264.696 124.574 262.606V262.174ZM120.563 262.174H125.079V262.991H120.563V262.174ZM121.764 271.135H129.019V271.952H121.764V271.135ZM121.764 268.468H122.761V271.459H121.764V268.468ZM136.057 262.871H139.12V263.651H136.057V262.871ZM136.057 264.853H139.12V265.633H136.057V264.853ZM138.868 261.333H139.865V266.991H138.868V261.333ZM132.874 267.531H139.865V270.102H133.871V271.771H132.898V269.357H138.88V268.324H132.874V267.531ZM132.898 271.255H140.261V272.048H132.898V271.255ZM131.468 261.826H132.453V263.387H135.396V261.826H136.369V266.57H131.468V261.826ZM132.453 264.168V265.765H135.396V264.168H132.453ZM152.592 261.321H153.589V272.204H152.592V261.321ZM147.859 262.162C149.469 262.162 150.622 263.639 150.622 265.946C150.622 268.264 149.469 269.741 147.859 269.741C146.262 269.741 145.109 268.264 145.109 265.946C145.109 263.639 146.262 262.162 147.859 262.162ZM147.859 263.063C146.802 263.063 146.058 264.192 146.058 265.946C146.058 267.711 146.802 268.865 147.859 268.865C148.928 268.865 149.661 267.711 149.661 265.946C149.661 264.192 148.928 263.063 147.859 263.063ZM155.534 266.678H165.348V267.495H155.534V266.678ZM159.942 264.937H160.927V267.015H159.942V264.937ZM156.771 264.624H164.207V265.441H156.771V264.624ZM156.771 261.826H164.123V262.63H157.756V265.105H156.771V261.826ZM160.423 268.276C162.741 268.276 164.147 268.985 164.147 270.222C164.147 271.483 162.741 272.18 160.423 272.18C158.105 272.18 156.699 271.483 156.699 270.222C156.699 268.985 158.105 268.276 160.423 268.276ZM160.423 269.045C158.729 269.045 157.708 269.477 157.708 270.222C157.708 270.979 158.729 271.399 160.423 271.399C162.129 271.399 163.138 270.979 163.138 270.222C163.138 269.477 162.129 269.045 160.423 269.045ZM174.284 261.333H175.281V272.192H174.284V261.333ZM171.749 265.681H174.728V266.51H171.749V265.681ZM170.8 262.498H171.785C171.785 265.597 170.5 268.336 166.896 270.138L166.344 269.357C169.503 267.807 170.8 265.501 170.8 262.666V262.498ZM166.812 262.498H171.329V263.315H166.812V262.498ZM185.081 261.321H186.078V272.204H185.081V261.321ZM177.802 268.756H178.703C180.517 268.756 182.139 268.684 184.06 268.372L184.169 269.189C182.199 269.513 180.565 269.585 178.703 269.585H177.802V268.756ZM177.778 262.342H182.799V266.222H178.799V269.069H177.802V265.405H181.79V263.159H177.778V262.342ZM190.568 262.191V273.072H187.766V272.061H189.348V263.201H187.766V262.191H190.568Z" fill="black"/>
<path d="M275.468 235.674L276.914 238.224L278.372 235.674H279.767L277.724 238.95L279.784 242.226H278.389L276.914 239.777L275.442 242.226H274.043L276.082 238.95L274.068 235.674H275.468Z" fill="black"/>
<path d="M4.66748 22.7968C4.47695 22.7968 4.30349 22.7812 4.14708 22.7499C3.99068 22.7215 3.87409 22.6902 3.7973 22.6561L4.10443 21.611C4.33761 21.6735 4.5452 21.7006 4.7272 21.692C4.9092 21.6835 5.06987 21.6153 5.20921 21.4873C5.3514 21.3593 5.47652 21.1503 5.58458 20.8602L5.74241 20.4252L3.34515 13.7879H4.71014L6.36945 18.8725H6.4377L8.09701 13.7879H9.46626L6.76615 21.2143C6.64103 21.5555 6.48178 21.8442 6.28841 22.0802C6.09503 22.3191 5.86469 22.4982 5.59738 22.6177C5.33007 22.7371 5.02011 22.7968 4.66748 22.7968Z" fill="black"/>
<path d="M60.7266 229.226L60.7266 19.0176" stroke="black" stroke-width="0.667327"/>
<path d="M260.924 199.196L20.6862 199.196" stroke="black" stroke-width="0.667327"/>
<path d="M260.924 169.166L20.6862 169.166" stroke="black" stroke-width="0.667327"/>
<path d="M260.924 139.137L20.6862 139.137" stroke="black" stroke-width="0.667327"/>
<path d="M260.924 109.107L20.6862 109.107" stroke="black" stroke-width="0.667327"/>
<path d="M260.924 79.0771L20.6862 79.0771" stroke="black" stroke-width="0.667327"/>
<path d="M260.924 49.0479L20.6862 49.0479" stroke="black" stroke-width="0.667327"/>
<path d="M260.924 19.0176L20.6862 19.0176" stroke="black" stroke-width="0.667327"/>
<path d="M100.766 229.226L100.766 19.0176" stroke="black" stroke-width="0.667327"/>
<path d="M140.807 229.226L140.807 19.0176" stroke="black" stroke-width="0.667327"/>
<path d="M180.846 229.226L180.846 19.0176" stroke="black" stroke-width="0.667327"/>
<path d="M220.885 229.226L220.885 19.0176" stroke="black" stroke-width="0.667327"/>
<path d="M260.924 229.226L260.924 19.0176" stroke="black" stroke-width="0.667327"/>
<path d="M59.3893 236.587V242.896H58.4343V237.542H58.3973L56.8877 238.528V237.616L58.462 236.587H59.3893ZM64.4894 239.32L63.6545 239.468C63.6196 239.361 63.5641 239.259 63.4881 239.163C63.4142 239.066 63.3136 238.987 63.1862 238.925C63.0589 238.864 62.8997 238.833 62.7087 238.833C62.4479 238.833 62.2302 238.892 62.0556 239.009C61.881 239.124 61.7937 239.273 61.7937 239.455C61.7937 239.613 61.8523 239.741 61.9693 239.837C62.0864 239.934 62.2754 240.013 62.5362 240.075L63.2879 240.247C63.7233 240.348 64.0478 240.503 64.2614 240.712C64.475 240.922 64.5818 241.194 64.5818 241.529C64.5818 241.812 64.4996 242.065 64.3353 242.287C64.1731 242.506 63.9461 242.679 63.6545 242.804C63.3649 242.929 63.0291 242.992 62.6471 242.992C62.1172 242.992 61.6849 242.879 61.3501 242.653C61.0154 242.425 60.81 242.102 60.734 241.683L61.6243 241.547C61.6798 241.779 61.7937 241.955 61.9663 242.074C62.1388 242.191 62.3637 242.25 62.6409 242.25C62.9428 242.25 63.1842 242.187 63.3649 242.062C63.5456 241.934 63.636 241.779 63.636 241.596C63.636 241.449 63.5806 241.324 63.4696 241.224C63.3608 241.123 63.1934 241.047 62.9675 240.996L62.1665 240.82C61.7249 240.719 61.3984 240.559 61.1868 240.34C60.9774 240.12 60.8726 239.841 60.8726 239.505C60.8726 239.225 60.9507 238.981 61.1068 238.771C61.2628 238.562 61.4785 238.399 61.7537 238.282C62.0289 238.162 62.3442 238.103 62.6995 238.103C63.2109 238.103 63.6134 238.214 63.9071 238.436C64.2008 238.655 64.3949 238.95 64.4894 239.32Z" fill="black"/>
<path d="M4.33459 196.213V202.522H3.37957V197.168H3.3426L1.83306 198.154V197.242L3.40729 196.213H4.33459ZM5.96272 196.213H7.11798L9.1266 201.118H9.20054L11.2092 196.213H12.3644V202.522H11.4587V197.957H11.4002L9.53941 202.513H8.78772L6.92698 197.954H6.86845V202.522H5.96272V196.213Z" fill="black"/>
<path d="M1.94088 172.493V171.803L4.07581 169.591C4.30378 169.351 4.4917 169.14 4.63957 168.96C4.7895 168.777 4.90143 168.603 4.97537 168.439C5.04931 168.275 5.08628 168.1 5.08628 167.915C5.08628 167.706 5.03698 167.525 4.9384 167.373C4.83982 167.219 4.7053 167.101 4.53483 167.019C4.36437 166.935 4.17234 166.892 3.95874 166.892C3.73282 166.892 3.53566 166.939 3.36725 167.031C3.19883 167.124 3.06944 167.254 2.97908 167.422C2.88871 167.591 2.84353 167.788 2.84353 168.014H1.93472C1.93472 167.63 2.02303 167.294 2.19966 167.006C2.37629 166.719 2.61864 166.496 2.92671 166.338C3.23478 166.178 3.58495 166.098 3.97722 166.098C4.37361 166.098 4.72275 166.177 5.02466 166.335C5.32862 166.491 5.56584 166.705 5.7363 166.976C5.90677 167.245 5.992 167.549 5.992 167.888C5.992 168.122 5.94784 168.351 5.85953 168.575C5.77327 168.798 5.62232 169.048 5.40667 169.323C5.19102 169.596 4.89116 169.928 4.5071 170.318L3.25326 171.631V171.677H6.09366V172.493H1.94088ZM7.18268 166.184H8.33794L10.3466 171.088H10.4205L12.4291 166.184H13.5844V172.493H12.6786V167.928H12.6201L10.7594 172.484H10.0077L8.14694 167.924H8.0884V172.493H7.18268V166.184Z" fill="black"/>
<path d="M4.13742 142.549C3.71434 142.549 3.33644 142.476 3.00372 142.33C2.67306 142.185 2.4112 141.982 2.21814 141.724C2.02714 141.463 1.92445 141.161 1.91008 140.818H2.87741C2.88974 141.005 2.95238 141.167 3.06534 141.305C3.18035 141.44 3.33028 141.545 3.51512 141.619C3.69996 141.693 3.90534 141.73 4.13126 141.73C4.37977 141.73 4.59953 141.687 4.79053 141.6C4.98359 141.514 5.13454 141.394 5.24339 141.24C5.35224 141.084 5.40667 140.904 5.40667 140.701C5.40667 140.489 5.35224 140.303 5.24339 140.143C5.13659 139.981 4.97948 139.854 4.77204 139.761C4.56666 139.669 4.31815 139.622 4.02652 139.622H3.49355V138.846H4.02652C4.26065 138.846 4.46603 138.804 4.64266 138.72C4.82134 138.636 4.96099 138.519 5.06163 138.369C5.16227 138.217 5.21258 138.039 5.21258 137.836C5.21258 137.641 5.16843 137.471 5.08011 137.327C4.99385 137.182 4.87063 137.068 4.71043 136.985C4.55229 136.903 4.36539 136.862 4.14974 136.862C3.94436 136.862 3.75233 136.9 3.57365 136.976C3.39703 137.05 3.25326 137.157 3.14235 137.297C3.03145 137.434 2.97189 137.599 2.96367 137.793H2.04255C2.05281 137.452 2.15345 137.152 2.34445 136.893C2.53751 136.634 2.79218 136.432 3.10847 136.286C3.42475 136.14 3.77595 136.067 4.16207 136.067C4.56666 136.067 4.91581 136.146 5.2095 136.305C5.50525 136.461 5.73322 136.669 5.89342 136.93C6.05567 137.191 6.13577 137.476 6.13371 137.786C6.13577 138.14 6.03718 138.439 5.83797 138.686C5.6408 138.932 5.37792 139.098 5.04931 139.182V139.231C5.46828 139.295 5.79278 139.461 6.02281 139.73C6.25489 139.999 6.3699 140.333 6.36785 140.732C6.3699 141.079 6.27337 141.39 6.07826 141.665C5.8852 141.94 5.62129 142.157 5.28652 142.315C4.95175 142.471 4.56872 142.549 4.13742 142.549ZM7.45378 136.154H8.60904L10.6177 141.058H10.6916L12.7002 136.154H13.8555V142.463H12.9497V137.897H12.8912L11.0305 142.454H10.2788L8.41804 137.894H8.35951V142.463H7.45378V136.154Z" fill="black"/>
<path d="M2.68945 82.4906C2.30334 82.4906 1.95624 82.4166 1.64817 82.2687C1.34216 82.1188 1.09776 81.9134 0.914968 81.6526C0.732179 81.3918 0.634624 81.094 0.622301 80.7592H1.54651C1.5691 81.0303 1.68925 81.2531 1.90695 81.4277C2.12466 81.6023 2.38549 81.6896 2.68945 81.6896C2.9318 81.6896 3.14642 81.6341 3.33332 81.5232C3.52227 81.4103 3.67014 81.2552 3.77694 81.058C3.88579 80.8609 3.94021 80.636 3.94021 80.3834C3.94021 80.1266 3.88476 79.8976 3.77386 79.6964C3.66295 79.4951 3.50994 79.3369 3.31483 79.2219C3.12177 79.1069 2.89996 79.0484 2.6494 79.0463C2.4584 79.0463 2.26637 79.0792 2.07331 79.1449C1.88025 79.2106 1.72416 79.2969 1.60504 79.4037L0.733206 79.2743L1.08749 76.095H4.55635V76.9114H1.87923L1.67898 78.6767H1.71595C1.83918 78.5575 2.00245 78.4579 2.20578 78.3778C2.41116 78.2977 2.63092 78.2577 2.86505 78.2577C3.24911 78.2577 3.59107 78.3491 3.89092 78.5319C4.19283 78.7146 4.43005 78.9642 4.60256 79.2805C4.77714 79.5947 4.8634 79.9562 4.86134 80.3649C4.8634 80.7736 4.77098 81.1381 4.58408 81.4585C4.39924 81.7789 4.14251 82.0315 3.81391 82.2164C3.48735 82.3992 3.11253 82.4906 2.68945 82.4906ZM5.908 76.095H7.06326L9.07188 80.9995H9.14581L11.1544 76.095H12.3097V82.4043H11.404V77.8387H11.3454L9.48469 82.3951H8.733L6.87226 77.8356H6.81372V82.4043H5.908V76.095Z" fill="black"/>
<path d="M2.8096 52.4603C2.52823 52.4562 2.25096 52.4048 1.97781 52.3062C1.70671 52.2077 1.46025 52.0434 1.23844 51.8133C1.01663 51.5833 0.838977 51.2742 0.70548 50.886C0.574037 50.4979 0.508315 50.0132 0.508315 49.432C0.508315 48.8815 0.562741 48.3927 0.671592 47.9655C0.782498 47.5384 0.941667 47.1779 1.1491 46.8842C1.35653 46.5885 1.6071 46.3636 1.90079 46.2095C2.19448 46.0555 2.52412 45.9785 2.8897 45.9785C3.26554 45.9785 3.59928 46.0524 3.89092 46.2003C4.18256 46.3482 4.41875 46.5525 4.59948 46.8134C4.78227 47.0742 4.89831 47.371 4.9476 47.7037H4.00799C3.94432 47.4408 3.81801 47.2262 3.62906 47.0598C3.44011 46.8935 3.19366 46.8103 2.8897 46.8103C2.42759 46.8103 2.06715 47.0116 1.80837 47.4141C1.55165 47.8166 1.42226 48.3763 1.4202 49.0931H1.46641C1.57526 48.9144 1.70876 48.7624 1.8669 48.6371C2.0271 48.5098 2.20578 48.4122 2.40295 48.3445C2.60216 48.2746 2.81165 48.2397 3.03141 48.2397C3.39698 48.2397 3.72765 48.3291 4.02339 48.5077C4.32119 48.6844 4.55841 48.9288 4.73503 49.241C4.91166 49.5531 4.99997 49.9105 4.99997 50.313C4.99997 50.7156 4.90858 51.0801 4.72579 51.4067C4.54506 51.7332 4.29039 51.992 3.96178 52.183C3.63317 52.372 3.24911 52.4644 2.8096 52.4603ZM2.80652 51.6593C3.04887 51.6593 3.26554 51.5997 3.45654 51.4806C3.64755 51.3615 3.7985 51.2013 3.90941 51C4.02031 50.7988 4.07576 50.5739 4.07576 50.3254C4.07576 50.083 4.02134 49.8622 3.91249 49.663C3.80569 49.4638 3.65782 49.3056 3.46887 49.1886C3.28197 49.0715 3.06838 49.013 2.82808 49.013C2.64529 49.013 2.47586 49.0479 2.31977 49.1177C2.16573 49.1876 2.03018 49.2841 1.91311 49.4073C1.79605 49.5305 1.70363 49.6723 1.63585 49.8324C1.57013 49.9906 1.53727 50.158 1.53727 50.3346C1.53727 50.5708 1.59169 50.7895 1.70055 50.9908C1.81145 51.1921 1.96241 51.3543 2.15341 51.4775C2.34647 51.5987 2.56417 51.6593 2.80652 51.6593ZM6.04355 46.0648H7.19881L9.20743 50.9692H9.28136L11.29 46.0648H12.4452V52.374H11.5395V47.8084H11.481L9.62024 52.3648H8.86855L7.00781 47.8053H6.94927V52.374H6.04355V46.0648Z" fill="black"/>
<path d="M0.474428 111.201V110.431L3.20085 106.124H3.80774V107.258H3.42266L1.47257 110.345V110.394H5.20946V111.201H0.474428ZM3.46579 112.434V110.967L3.47195 110.616V106.124H4.37459V112.434H3.46579ZM6.20452 106.124H7.35978L9.36839 111.029H9.44233L11.4509 106.124H12.6062V112.434H11.7005V107.868H11.6419L9.78121 112.424H9.02952L7.16877 107.865H7.11024V112.434H6.20452V106.124Z" fill="black"/>
<path d="M97.0366 242.896V242.206L99.1715 239.994C99.3995 239.754 99.5874 239.544 99.7353 239.363C99.8852 239.18 99.9971 239.007 100.071 238.842C100.145 238.678 100.182 238.503 100.182 238.319C100.182 238.109 100.133 237.928 100.034 237.776C99.9355 237.622 99.801 237.504 99.6305 237.422C99.4601 237.338 99.268 237.296 99.0544 237.296C98.8285 237.296 98.6314 237.342 98.4629 237.434C98.2945 237.527 98.1651 237.657 98.0748 237.826C97.9844 237.994 97.9392 238.191 97.9392 238.417H97.0304C97.0304 238.033 97.1187 237.697 97.2954 237.41C97.472 237.122 97.7143 236.899 98.0224 236.741C98.3305 236.581 98.6807 236.501 99.0729 236.501C99.4693 236.501 99.8185 236.58 100.12 236.738C100.424 236.894 100.662 237.108 100.832 237.379C101.002 237.648 101.088 237.952 101.088 238.291C101.088 238.525 101.044 238.754 100.955 238.978C100.869 239.202 100.718 239.451 100.502 239.726C100.287 240 99.9869 240.331 99.6028 240.722L98.349 242.034V242.08H101.189V242.896H97.0366ZM105.75 239.32L104.915 239.468C104.881 239.361 104.825 239.259 104.749 239.163C104.675 239.066 104.575 238.987 104.447 238.925C104.32 238.864 104.161 238.833 103.97 238.833C103.709 238.833 103.491 238.892 103.317 239.009C103.142 239.124 103.055 239.273 103.055 239.455C103.055 239.613 103.113 239.741 103.23 239.837C103.347 239.934 103.536 240.013 103.797 240.075L104.549 240.247C104.984 240.348 105.309 240.503 105.522 240.712C105.736 240.922 105.843 241.194 105.843 241.529C105.843 241.812 105.761 242.065 105.596 242.287C105.434 242.506 105.207 242.679 104.915 242.804C104.626 242.929 104.29 242.992 103.908 242.992C103.378 242.992 102.946 242.879 102.611 242.653C102.276 242.425 102.071 242.102 101.995 241.683L102.885 241.547C102.941 241.779 103.055 241.955 103.227 242.074C103.4 242.191 103.625 242.25 103.902 242.25C104.204 242.25 104.445 242.187 104.626 242.062C104.807 241.934 104.897 241.779 104.897 241.596C104.897 241.449 104.842 241.324 104.731 241.224C104.622 241.123 104.454 241.047 104.228 240.996L103.427 240.82C102.986 240.719 102.659 240.559 102.448 240.34C102.238 240.12 102.134 239.841 102.134 239.505C102.134 239.225 102.212 238.981 102.368 238.771C102.524 238.562 102.739 238.399 103.015 238.282C103.29 238.162 103.605 238.103 103.96 238.103C104.472 238.103 104.874 238.214 105.168 238.436C105.462 238.655 105.656 238.95 105.75 239.32Z" fill="black"/>
<path d="M259.397 242.983C259.116 242.979 258.839 242.927 258.566 242.829C258.295 242.73 258.048 242.566 257.826 242.336C257.605 242.106 257.427 241.797 257.293 241.409C257.162 241.02 257.096 240.536 257.096 239.954C257.096 239.404 257.151 238.915 257.259 238.488C257.37 238.061 257.53 237.7 257.737 237.407C257.944 237.111 258.195 236.886 258.489 236.732C258.782 236.578 259.112 236.501 259.478 236.501C259.853 236.501 260.187 236.575 260.479 236.723C260.77 236.871 261.007 237.075 261.187 237.336C261.37 237.597 261.486 237.893 261.535 238.226H260.596C260.532 237.963 260.406 237.749 260.217 237.582C260.028 237.416 259.782 237.333 259.478 237.333C259.015 237.333 258.655 237.534 258.396 237.937C258.14 238.339 258.01 238.899 258.008 239.616H258.054C258.163 239.437 258.297 239.285 258.455 239.16C258.615 239.032 258.794 238.935 258.991 238.867C259.19 238.797 259.4 238.762 259.619 238.762C259.985 238.762 260.316 238.852 260.611 239.03C260.909 239.207 261.146 239.451 261.323 239.763C261.5 240.076 261.588 240.433 261.588 240.835C261.588 241.238 261.496 241.603 261.314 241.929C261.133 242.256 260.878 242.514 260.55 242.705C260.221 242.894 259.837 242.987 259.397 242.983ZM259.394 242.182C259.637 242.182 259.853 242.122 260.044 242.003C260.235 241.884 260.386 241.724 260.497 241.522C260.608 241.321 260.664 241.096 260.664 240.848C260.664 240.605 260.609 240.385 260.5 240.185C260.394 239.986 260.246 239.828 260.057 239.711C259.87 239.594 259.656 239.535 259.416 239.535C259.233 239.535 259.064 239.57 258.908 239.64C258.754 239.71 258.618 239.807 258.501 239.93C258.384 240.053 258.292 240.195 258.224 240.355C258.158 240.513 258.125 240.68 258.125 240.857C258.125 241.093 258.18 241.312 258.288 241.513C258.399 241.715 258.55 241.877 258.741 242C258.934 242.121 259.152 242.182 259.394 242.182ZM266.103 239.32L265.269 239.468C265.234 239.361 265.178 239.259 265.102 239.163C265.028 239.066 264.928 238.987 264.8 238.925C264.673 238.864 264.514 238.833 264.323 238.833C264.062 238.833 263.844 238.892 263.67 239.009C263.495 239.124 263.408 239.273 263.408 239.455C263.408 239.613 263.466 239.741 263.583 239.837C263.7 239.934 263.889 240.013 264.15 240.075L264.902 240.247C265.337 240.348 265.662 240.503 265.875 240.712C266.089 240.922 266.196 241.194 266.196 241.529C266.196 241.812 266.114 242.065 265.949 242.287C265.787 242.506 265.56 242.679 265.269 242.804C264.979 242.929 264.643 242.992 264.261 242.992C263.731 242.992 263.299 242.879 262.964 242.653C262.629 242.425 262.424 242.102 262.348 241.683L263.238 241.547C263.294 241.779 263.408 241.955 263.58 242.074C263.753 242.191 263.978 242.25 264.255 242.25C264.557 242.25 264.798 242.187 264.979 242.062C265.16 241.934 265.25 241.779 265.25 241.596C265.25 241.449 265.195 241.324 265.084 241.224C264.975 241.123 264.807 241.047 264.582 240.996L263.781 240.82C263.339 240.719 263.012 240.559 262.801 240.34C262.591 240.12 262.487 239.841 262.487 239.505C262.487 239.225 262.565 238.981 262.721 238.771C262.877 238.562 263.093 238.399 263.368 238.282C263.643 238.162 263.958 238.103 264.314 238.103C264.825 238.103 265.227 238.214 265.521 238.436C265.815 238.655 266.009 238.95 266.103 239.32Z" fill="black"/>
<path d="M219.236 242.983C218.85 242.983 218.503 242.909 218.195 242.761C217.889 242.611 217.645 242.406 217.462 242.145C217.279 241.884 217.181 241.586 217.169 241.251H218.093C218.116 241.522 218.236 241.745 218.454 241.92C218.672 242.094 218.932 242.182 219.236 242.182C219.479 242.182 219.693 242.126 219.88 242.015C220.069 241.902 220.217 241.747 220.324 241.55C220.433 241.353 220.487 241.128 220.487 240.876C220.487 240.619 220.432 240.39 220.321 240.189C220.21 239.987 220.057 239.829 219.862 239.714C219.669 239.599 219.447 239.541 219.196 239.539C219.005 239.539 218.813 239.571 218.62 239.637C218.427 239.703 218.271 239.789 218.152 239.896L217.28 239.766L217.634 236.587H221.103V237.404H218.426L218.226 239.169H218.263C218.386 239.05 218.549 238.95 218.753 238.87C218.958 238.79 219.178 238.75 219.412 238.75C219.796 238.75 220.138 238.841 220.438 239.024C220.74 239.207 220.977 239.456 221.149 239.773C221.324 240.087 221.41 240.448 221.408 240.857C221.41 241.266 221.318 241.63 221.131 241.951C220.946 242.271 220.689 242.524 220.361 242.709C220.034 242.891 219.659 242.983 219.236 242.983ZM225.927 239.32L225.092 239.468C225.057 239.361 225.002 239.259 224.926 239.163C224.852 239.066 224.751 238.987 224.624 238.925C224.496 238.864 224.337 238.833 224.146 238.833C223.885 238.833 223.668 238.892 223.493 239.009C223.318 239.124 223.231 239.273 223.231 239.455C223.231 239.613 223.29 239.741 223.407 239.837C223.524 239.934 223.713 240.013 223.974 240.075L224.725 240.247C225.161 240.348 225.485 240.503 225.699 240.712C225.912 240.922 226.019 241.194 226.019 241.529C226.019 241.812 225.937 242.065 225.773 242.287C225.611 242.506 225.384 242.679 225.092 242.804C224.802 242.929 224.467 242.992 224.085 242.992C223.555 242.992 223.122 242.879 222.788 242.653C222.453 242.425 222.247 242.102 222.171 241.683L223.062 241.547C223.117 241.779 223.231 241.955 223.404 242.074C223.576 242.191 223.801 242.25 224.078 242.25C224.38 242.25 224.622 242.187 224.802 242.062C224.983 241.934 225.073 241.779 225.073 241.596C225.073 241.449 225.018 241.324 224.907 241.224C224.798 241.123 224.631 241.047 224.405 240.996L223.604 240.82C223.162 240.719 222.836 240.559 222.624 240.34C222.415 240.12 222.31 239.841 222.31 239.505C222.31 239.225 222.388 238.981 222.544 238.771C222.7 238.562 222.916 238.399 223.191 238.282C223.466 238.162 223.782 238.103 224.137 238.103C224.648 238.103 225.051 238.214 225.345 238.436C225.638 238.655 225.832 238.95 225.927 239.32Z" fill="black"/>
<path d="M176.982 241.664V240.894L179.709 236.587H180.316V237.721H179.93L177.98 240.808V240.857H181.717V241.664H176.982ZM179.974 242.896V241.43L179.98 241.079V236.587H180.882V242.896H179.974ZM186.184 239.32L185.349 239.468C185.314 239.361 185.259 239.259 185.183 239.163C185.109 239.066 185.008 238.987 184.881 238.925C184.754 238.864 184.595 238.833 184.404 238.833C184.143 238.833 183.925 238.892 183.751 239.009C183.576 239.124 183.489 239.273 183.489 239.455C183.489 239.613 183.547 239.741 183.664 239.837C183.781 239.934 183.97 240.013 184.231 240.075L184.983 240.247C185.418 240.348 185.743 240.503 185.956 240.712C186.17 240.922 186.277 241.194 186.277 241.529C186.277 241.812 186.195 242.065 186.03 242.287C185.868 242.506 185.641 242.679 185.349 242.804C185.06 242.929 184.724 242.992 184.342 242.992C183.812 242.992 183.38 242.879 183.045 242.653C182.71 242.425 182.505 242.102 182.429 241.683L183.319 241.547C183.375 241.779 183.489 241.955 183.661 242.074C183.834 242.191 184.059 242.25 184.336 242.25C184.638 242.25 184.879 242.187 185.06 242.062C185.241 241.934 185.331 241.779 185.331 241.596C185.331 241.449 185.275 241.324 185.165 241.224C185.056 241.123 184.888 241.047 184.662 240.996L183.861 240.82C183.42 240.719 183.093 240.559 182.882 240.34C182.672 240.12 182.568 239.841 182.568 239.505C182.568 239.225 182.646 238.981 182.802 238.771C182.958 238.562 183.173 238.399 183.449 238.282C183.724 238.162 184.039 238.103 184.394 238.103C184.906 238.103 185.308 238.214 185.602 238.436C185.896 238.655 186.09 238.95 186.184 239.32Z" fill="black"/>
<path d="M139.272 242.983C138.849 242.983 138.471 242.91 138.138 242.764C137.808 242.618 137.546 242.416 137.353 242.157C137.162 241.896 137.059 241.594 137.045 241.251H138.012C138.025 241.438 138.087 241.601 138.2 241.738C138.315 241.874 138.465 241.978 138.65 242.052C138.835 242.126 139.04 242.163 139.266 242.163C139.515 242.163 139.734 242.12 139.925 242.034C140.118 241.948 140.269 241.827 140.378 241.673C140.487 241.517 140.541 241.338 140.541 241.134C140.541 240.923 140.487 240.737 140.378 240.577C140.271 240.414 140.114 240.287 139.907 240.195C139.701 240.102 139.453 240.056 139.161 240.056H138.628V239.28H139.161C139.395 239.28 139.601 239.238 139.777 239.153C139.956 239.069 140.096 238.952 140.196 238.802C140.297 238.65 140.347 238.473 140.347 238.269C140.347 238.074 140.303 237.905 140.215 237.761C140.129 237.615 140.005 237.501 139.845 237.419C139.687 237.337 139.5 237.296 139.285 237.296C139.079 237.296 138.887 237.334 138.708 237.41C138.532 237.484 138.388 237.59 138.277 237.73C138.166 237.868 138.107 238.033 138.098 238.226H137.177C137.188 237.885 137.288 237.585 137.479 237.327C137.672 237.068 137.927 236.866 138.243 236.72C138.56 236.574 138.911 236.501 139.297 236.501C139.701 236.501 140.051 236.58 140.344 236.738C140.64 236.894 140.868 237.103 141.028 237.364C141.19 237.624 141.271 237.91 141.268 238.22C141.271 238.573 141.172 238.873 140.973 239.12C140.776 239.366 140.513 239.531 140.184 239.616V239.665C140.603 239.728 140.928 239.895 141.158 240.164C141.39 240.433 141.505 240.767 141.503 241.165C141.505 241.512 141.408 241.823 141.213 242.099C141.02 242.374 140.756 242.59 140.421 242.749C140.087 242.905 139.703 242.983 139.272 242.983ZM146.06 239.32L145.226 239.468C145.191 239.361 145.135 239.259 145.059 239.163C144.985 239.066 144.885 238.987 144.757 238.925C144.63 238.864 144.471 238.833 144.28 238.833C144.019 238.833 143.801 238.892 143.627 239.009C143.452 239.124 143.365 239.273 143.365 239.455C143.365 239.613 143.423 239.741 143.54 239.837C143.658 239.934 143.846 240.013 144.107 240.075L144.859 240.247C145.294 240.348 145.619 240.503 145.833 240.712C146.046 240.922 146.153 241.194 146.153 241.529C146.153 241.812 146.071 242.065 145.906 242.287C145.744 242.506 145.517 242.679 145.226 242.804C144.936 242.929 144.6 242.992 144.218 242.992C143.688 242.992 143.256 242.879 142.921 242.653C142.586 242.425 142.381 242.102 142.305 241.683L143.195 241.547C143.251 241.779 143.365 241.955 143.537 242.074C143.71 242.191 143.935 242.25 144.212 242.25C144.514 242.25 144.755 242.187 144.936 242.062C145.117 241.934 145.207 241.779 145.207 241.596C145.207 241.449 145.152 241.324 145.041 241.224C144.932 241.123 144.765 241.047 144.539 240.996L143.738 240.82C143.296 240.719 142.97 240.559 142.758 240.34C142.548 240.12 142.444 239.841 142.444 239.505C142.444 239.225 142.522 238.981 142.678 238.771C142.834 238.562 143.05 238.399 143.325 238.282C143.6 238.162 143.915 238.103 144.271 238.103C144.782 238.103 145.185 238.214 145.478 238.436C145.772 238.655 145.966 238.95 146.06 239.32Z" fill="black"/>
<line x1="100.933" y1="138.47" x2="100.933" y2="108.44" stroke="#FF0000" stroke-width="1.66832"/>
<line x1="140.972" y1="108.439" x2="140.972" y2="51.383" stroke="#FF0000" stroke-width="1.66832"/>
<circle cx="100.933" cy="108.94" r="5.83911" fill="#818EFF"/>
<circle cx="100.933" cy="108.94" r="5.83911" fill="#818EFF"/>
<circle cx="100.933" cy="108.94" r="5.83911" fill="#818EFF"/>
<path d="M20.1875 198.528L284.615 1.00024" stroke="#1500FF" stroke-width="1.66832" stroke-linecap="round"/>
<circle cx="60.8938" cy="168.999" r="5.83911" fill="#818EFF"/>
<circle cx="60.8938" cy="168.999" r="5.83911" fill="#818EFF"/>
<circle cx="60.8938" cy="168.999" r="5.83911" fill="#818EFF"/>
<circle cx="140.972" cy="48.8811" r="5.83911" fill="#818EFF"/>
<circle cx="140.972" cy="48.8811" r="5.83911" fill="#818EFF"/>
<circle cx="140.972" cy="48.8811" r="5.83911" fill="#818EFF"/>
</svg>
