<svg width="413" height="317" viewBox="0 0 413 317" fill="none" xmlns="http://www.w3.org/2000/svg">
<path d="M197.89 10.0453H202.208V12.1842H197.89V10.0453ZM200.809 5.28776H203.467V18.7807H200.809V5.28776ZM191.254 21.3394H203.887V23.4583H191.254V21.3394ZM191.254 17.6413H193.912V22.5987H191.254V17.6413ZM192.253 7.7065H194.412V8.86589C194.412 12.3441 192.773 15.5624 189.215 16.7418L187.875 14.6229C190.934 13.6234 192.253 11.2047 192.253 8.86589V7.7065ZM192.813 7.7065H194.952V8.86589C194.952 11.0248 196.211 13.3236 199.13 14.303L197.83 16.382C194.392 15.2426 192.813 12.1642 192.813 8.86589V7.7065ZM188.595 6.52711H198.55V8.62602H188.595V6.52711ZM213.52 12.2841H216.459V14.423H213.52V12.2841ZM209.223 10.4051H211.222V10.8848C211.222 14.7428 210.102 18.6008 207.144 20.2999L205.645 18.301C208.283 16.7618 209.223 13.7234 209.223 10.8848V10.4051ZM209.742 10.4051H211.741V10.8848C211.741 13.6834 212.701 16.5019 215.32 17.9012L213.88 19.8601C210.882 18.301 209.742 14.6828 209.742 10.8848V10.4051ZM206.344 8.36615H214.6V10.505H206.344V8.36615ZM209.223 5.88745H211.741V10.1052H209.223V5.88745ZM219.357 5.26777H221.876V23.7781H219.357V5.26777ZM215.619 5.56762H218.098V22.9385H215.619V5.56762ZM237.366 5.26777H239.905V23.7781H237.366V5.26777ZM230.33 12.0242H234.628V14.1631H230.33V12.0242ZM233.548 5.58761H236.027V22.9585H233.548V5.58761ZM224.533 17.4814H225.812C228.431 17.4814 230.17 17.4214 232.209 17.0216L232.409 19.1805C230.35 19.6003 228.511 19.6802 225.812 19.6802H224.533V17.4814ZM224.533 7.34669H231.589V9.46558H227.152V18.4009H224.533V7.34669ZM254.696 5.24778H257.374V23.8181H254.696V5.24778ZM247.4 6.5471C250.198 6.5471 252.257 9.10577 252.257 13.1437C252.257 17.2215 250.198 19.7802 247.4 19.7802C244.601 19.7802 242.542 17.2215 242.542 13.1437C242.542 9.10577 244.601 6.5471 247.4 6.5471ZM247.4 8.96584C246.02 8.96584 245.081 10.4251 245.081 13.1437C245.081 15.9022 246.02 17.3814 247.4 17.3814C248.779 17.3814 249.698 15.9022 249.698 13.1437C249.698 10.4251 248.779 8.96584 247.4 8.96584ZM272.905 5.24778H275.543V23.8181H272.905V5.24778ZM269.726 11.7644H273.205V13.9232H269.726V11.7644ZM260.851 17.4814H262.33C265.389 17.4814 267.667 17.4414 270.286 17.0216L270.526 19.1405C267.847 19.5603 265.449 19.6403 262.33 19.6403H260.851V17.4814ZM260.851 6.80697H269.427V8.96584H263.49V18.161H260.851V6.80697ZM262.89 11.9643H268.787V14.0432H262.89V11.9643ZM288.689 20.3096C288.22 20.3096 287.818 20.1439 287.482 19.8127C287.151 19.4814 286.985 19.0791 286.985 18.6059C286.985 18.1421 287.151 17.7446 287.482 17.4134C287.818 17.0821 288.22 16.9165 288.689 16.9165C289.143 16.9165 289.54 17.0821 289.881 17.4134C290.222 17.7446 290.392 18.1421 290.392 18.6059C290.392 18.9182 290.312 19.2046 290.151 19.4648C289.995 19.7204 289.789 19.9262 289.533 20.0824C289.278 20.2338 288.996 20.3096 288.689 20.3096ZM288.689 13.1755C288.22 13.1755 287.818 13.0099 287.482 12.6786C287.151 12.3473 286.985 11.9451 286.985 11.4719C286.985 11.0081 287.151 10.6129 287.482 10.2864C287.818 9.95513 288.22 9.7895 288.689 9.7895C289.143 9.7895 289.54 9.95513 289.881 10.2864C290.222 10.6129 290.392 11.0081 290.392 11.4719C290.392 11.7889 290.312 12.0776 290.151 12.3379C289.995 12.5934 289.789 12.7969 289.533 12.9484C289.278 13.0998 288.996 13.1755 288.689 13.1755ZM296.713 21.999V19.7843L301.888 14.9927C302.328 14.5668 302.697 14.1835 302.996 13.8428C303.299 13.502 303.528 13.1684 303.684 12.8419C303.84 12.5106 303.918 12.1533 303.918 11.77C303.918 11.3441 303.821 10.9773 303.627 10.6697C303.433 10.3574 303.168 10.1184 302.832 9.95277C302.496 9.7824 302.115 9.69722 301.69 9.69722C301.245 9.69722 300.857 9.78713 300.525 9.96696C300.194 10.1468 299.939 10.4047 299.759 10.7407C299.579 11.0767 299.489 11.4766 299.489 11.9404H296.571C296.571 10.9892 296.787 10.1634 297.217 9.46297C297.648 8.76257 298.251 8.22072 299.028 7.83739C299.804 7.45407 300.698 7.26241 301.711 7.26241C302.752 7.26241 303.658 7.44697 304.43 7.8161C305.206 8.18049 305.809 8.68686 306.24 9.33519C306.67 9.98353 306.886 10.7265 306.886 11.5641C306.886 12.1131 306.777 12.655 306.559 13.1897C306.346 13.7245 305.965 14.3184 305.416 14.9714C304.867 15.6198 304.094 16.3983 303.095 17.3069L300.973 19.3868V19.4861H307.077V21.999H296.713ZM314.625 22.3185C313.404 22.3137 312.353 22.0132 311.473 21.4169C310.598 20.8207 309.923 19.957 309.45 18.826C308.981 17.6949 308.75 16.3344 308.754 14.7443C308.754 13.1589 308.989 11.8079 309.457 10.691C309.93 9.57418 310.605 8.72472 311.48 8.14263C312.36 7.55582 313.409 7.26241 314.625 7.26241C315.841 7.26241 316.887 7.55582 317.762 8.14263C318.643 8.72945 319.319 9.58127 319.793 10.6981C320.266 11.8102 320.5 13.1589 320.495 14.7443C320.495 16.3391 320.259 17.702 319.785 18.8331C319.317 19.9641 318.645 20.8278 317.769 21.424C316.894 22.0203 315.846 22.3185 314.625 22.3185ZM314.625 19.7701C315.458 19.7701 316.123 19.3513 316.62 18.5136C317.116 17.676 317.363 16.4196 317.358 14.7443C317.358 13.6417 317.244 12.7236 317.017 11.9901C316.795 11.2565 316.478 10.7052 316.066 10.3361C315.659 9.96696 315.179 9.7824 314.625 9.7824C313.797 9.7824 313.134 10.1965 312.637 11.0246C312.14 11.8528 311.89 13.0927 311.885 14.7443C311.885 15.8611 311.996 16.7934 312.218 17.5411C312.446 18.2841 312.765 18.8425 313.177 19.2164C313.588 19.5855 314.071 19.7701 314.625 19.7701ZM328.007 22.3185C326.786 22.3137 325.736 22.0132 324.856 21.4169C323.98 20.8207 323.306 19.957 322.832 18.826C322.364 17.6949 322.132 16.3344 322.137 14.7443C322.137 13.1589 322.371 11.8079 322.84 10.691C323.313 9.57418 323.987 8.72472 324.863 8.14263C325.743 7.55582 326.791 7.26241 328.007 7.26241C329.224 7.26241 330.269 7.55582 331.145 8.14263C332.025 8.72945 332.702 9.58127 333.175 10.6981C333.648 11.8102 333.883 13.1589 333.878 14.7443C333.878 16.3391 333.641 17.702 333.168 18.8331C332.699 19.9641 332.028 20.8278 331.152 21.424C330.277 22.0203 329.228 22.3185 328.007 22.3185ZM328.007 19.7701C328.84 19.7701 329.505 19.3513 330.002 18.5136C330.499 17.676 330.745 16.4196 330.74 14.7443C330.74 13.6417 330.627 12.7236 330.4 11.9901C330.177 11.2565 329.86 10.7052 329.448 10.3361C329.041 9.96696 328.561 9.7824 328.007 9.7824C327.179 9.7824 326.517 10.1965 326.02 11.0246C325.523 11.8528 325.272 13.0927 325.267 14.7443C325.267 15.8611 325.379 16.7934 325.601 17.5411C325.828 18.2841 326.148 18.8425 326.559 19.2164C326.971 19.5855 327.454 19.7701 328.007 19.7701ZM341.39 22.3185C340.169 22.3137 339.118 22.0132 338.238 21.4169C337.363 20.8207 336.688 19.957 336.215 18.826C335.747 17.6949 335.515 16.3344 335.519 14.7443C335.519 13.1589 335.754 11.8079 336.222 10.691C336.695 9.57418 337.37 8.72472 338.245 8.14263C339.125 7.55582 340.174 7.26241 341.39 7.26241C342.606 7.26241 343.652 7.55582 344.527 8.14263C345.408 8.72945 346.084 9.58127 346.558 10.6981C347.031 11.8102 347.265 13.1589 347.26 14.7443C347.26 16.3391 347.024 17.702 346.551 18.8331C346.082 19.9641 345.41 20.8278 344.535 21.424C343.659 22.0203 342.611 22.3185 341.39 22.3185ZM341.39 19.7701C342.223 19.7701 342.888 19.3513 343.385 18.5136C343.881 17.676 344.128 16.4196 344.123 14.7443C344.123 13.6417 344.009 12.7236 343.782 11.9901C343.56 11.2565 343.243 10.7052 342.831 10.3361C342.424 9.96696 341.944 9.7824 341.39 9.7824C340.562 9.7824 339.899 10.1965 339.402 11.0246C338.905 11.8528 338.655 13.0927 338.65 14.7443C338.65 15.8611 338.761 16.7934 338.983 17.5411C339.211 18.2841 339.53 18.8425 339.942 19.2164C340.353 19.5855 340.836 19.7701 341.39 19.7701ZM362.007 5.26777H364.545V23.7781H362.007V5.26777ZM359.668 12.2441H362.726V14.363H359.668V12.2441ZM354.151 7.52659H356.689C356.689 12.7439 355.17 16.9617 349.993 19.9801L348.454 18.141C352.671 15.6423 354.151 12.524 354.151 8.0863V7.52659ZM349.393 7.52659H354.93V9.66547H349.393V7.52659ZM357.909 5.74752H360.387V22.9785H357.909V5.74752Z" fill="black"/>
<rect x="252.596" y="43.6133" width="48.1566" height="272.585" rx="4.54308" fill="white"/>
<rect x="252.596" y="43.6133" width="48.1566" height="27.2585" rx="4.54308" fill="#D8F7FB"/>
<path d="M261.416 61.0654V59.8574L264.239 57.2438C264.479 57.0115 264.68 56.8024 264.843 56.6166C265.008 56.4307 265.133 56.2487 265.218 56.0706C265.304 55.8899 265.346 55.695 265.346 55.486C265.346 55.2536 265.293 55.0536 265.187 54.8858C265.082 54.7154 264.937 54.5851 264.754 54.4947C264.571 54.4018 264.363 54.3554 264.13 54.3554C263.888 54.3554 263.676 54.4044 263.495 54.5025C263.315 54.6006 263.175 54.7413 263.077 54.9245C262.979 55.1078 262.93 55.3259 262.93 55.5789H261.339C261.339 55.06 261.456 54.6096 261.691 54.2276C261.926 53.8455 262.255 53.55 262.678 53.3409C263.102 53.1318 263.59 53.0273 264.142 53.0273C264.71 53.0273 265.204 53.1279 265.625 53.3293C266.048 53.5281 266.377 53.8042 266.612 54.1579C266.847 54.5115 266.965 54.9168 266.965 55.3737C266.965 55.6731 266.905 55.9687 266.787 56.2604C266.67 56.552 266.463 56.876 266.163 57.2322C265.864 57.5858 265.442 58.0105 264.897 58.5061L263.739 59.6406V59.6948H267.069V61.0654H261.416ZM271.186 61.2397C270.52 61.2371 269.947 61.0732 269.467 60.7479C268.989 60.4227 268.622 59.9516 268.363 59.3347C268.108 58.7177 267.981 57.9756 267.984 57.1083C267.984 56.2436 268.112 55.5066 268.367 54.8974C268.625 54.2882 268.993 53.8249 269.471 53.5074C269.951 53.1873 270.523 53.0273 271.186 53.0273C271.849 53.0273 272.42 53.1873 272.897 53.5074C273.378 53.8275 273.747 54.2921 274.005 54.9013C274.263 55.5079 274.391 56.2436 274.388 57.1083C274.388 57.9782 274.259 58.7216 274.001 59.3385C273.745 59.9555 273.379 60.4266 272.901 60.7518C272.424 61.077 271.852 61.2397 271.186 61.2397ZM271.186 59.8496C271.64 59.8496 272.003 59.6212 272.274 59.1643C272.545 58.7074 272.679 58.0221 272.677 57.1083C272.677 56.5069 272.615 56.0061 272.491 55.606C272.37 55.2059 272.197 54.9052 271.972 54.7038C271.75 54.5025 271.488 54.4018 271.186 54.4018C270.734 54.4018 270.373 54.6277 270.102 55.0794C269.831 55.5311 269.694 56.2074 269.691 57.1083C269.691 57.7175 269.752 58.226 269.873 58.6339C269.997 59.0391 270.172 59.3437 270.396 59.5476C270.621 59.749 270.884 59.8496 271.186 59.8496ZM278.486 61.2397C277.82 61.2371 277.247 61.0732 276.766 60.7479C276.289 60.4227 275.921 59.9516 275.663 59.3347C275.407 58.7177 275.281 57.9756 275.284 57.1083C275.284 56.2436 275.411 55.5066 275.667 54.8974C275.925 54.2882 276.293 53.8249 276.77 53.5074C277.25 53.1873 277.822 53.0273 278.486 53.0273C279.149 53.0273 279.719 53.1873 280.197 53.5074C280.677 53.8275 281.046 54.2921 281.304 54.9013C281.563 55.5079 281.69 56.2436 281.688 57.1083C281.688 57.9782 281.559 58.7216 281.301 59.3385C281.045 59.9555 280.678 60.4266 280.201 60.7518C279.723 61.077 279.152 61.2397 278.486 61.2397ZM278.486 59.8496C278.94 59.8496 279.303 59.6212 279.574 59.1643C279.845 58.7074 279.979 58.0221 279.976 57.1083C279.976 56.5069 279.914 56.0061 279.79 55.606C279.669 55.2059 279.496 54.9052 279.272 54.7038C279.05 54.5025 278.788 54.4018 278.486 54.4018C278.034 54.4018 277.672 54.6277 277.401 55.0794C277.13 55.5311 276.994 56.2074 276.991 57.1083C276.991 57.7175 277.052 58.226 277.173 58.6339C277.297 59.0391 277.471 59.3437 277.696 59.5476C277.92 59.749 278.184 59.8496 278.486 59.8496ZM289.731 51.9393H291.116V62.0358H289.731V51.9393ZM288.455 55.7446H290.124V56.9003H288.455V55.7446ZM285.446 53.1714H286.831C286.831 56.0172 286.002 58.3178 283.178 59.9642L282.339 58.9611C284.639 57.5982 285.446 55.8972 285.446 53.4767V53.1714ZM282.851 53.1714H285.871V54.338H282.851V53.1714ZM287.496 52.201H288.848V61.5997H287.496V52.201Z" fill="black"/>
<rect x="252.596" y="70.8711" width="48.1566" height="27.2585" rx="4.54308" fill="#FFACAC"/>
<path d="M261.416 88.3232V87.1152L264.239 84.5016C264.479 84.2693 264.68 84.0602 264.843 83.8744C265.008 83.6885 265.133 83.5065 265.218 83.3284C265.304 83.1477 265.346 82.9529 265.346 82.7438C265.346 82.5115 265.293 82.3114 265.187 82.1436C265.082 81.9733 264.937 81.8429 264.754 81.7526C264.571 81.6596 264.363 81.6132 264.13 81.6132C263.888 81.6132 263.676 81.6622 263.495 81.7603C263.315 81.8584 263.175 81.9991 263.077 82.1823C262.979 82.3656 262.93 82.5837 262.93 82.8367H261.339C261.339 82.3179 261.456 81.8674 261.691 81.4854C261.926 81.1034 262.255 80.8078 262.678 80.5987C263.102 80.3896 263.59 80.2851 264.142 80.2851C264.71 80.2851 265.204 80.3858 265.625 80.5871C266.048 80.7859 266.377 81.0621 266.612 81.4157C266.847 81.7693 266.965 82.1746 266.965 82.6315C266.965 82.9309 266.905 83.2265 266.787 83.5182C266.67 83.8098 266.463 84.1338 266.163 84.49C265.864 84.8437 265.442 85.2683 264.897 85.7639L263.739 86.8984V86.9526H267.069V88.3232H261.416ZM271.186 88.4975C270.52 88.4949 269.947 88.331 269.467 88.0057C268.989 87.6805 268.622 87.2094 268.363 86.5925C268.108 85.9756 267.981 85.2334 267.984 84.3661C267.984 83.5014 268.112 82.7644 268.367 82.1552C268.625 81.5461 268.993 81.0827 269.471 80.7652C269.951 80.4451 270.523 80.2851 271.186 80.2851C271.849 80.2851 272.42 80.4451 272.897 80.7652C273.378 81.0853 273.747 81.5499 274.005 82.1591C274.263 82.7657 274.391 83.5014 274.388 84.3661C274.388 85.236 274.259 85.9794 274.001 86.5964C273.745 87.2133 273.379 87.6844 272.901 88.0096C272.424 88.3349 271.852 88.4975 271.186 88.4975ZM271.186 87.1075C271.64 87.1075 272.003 86.879 272.274 86.4221C272.545 85.9652 272.679 85.2799 272.677 84.3661C272.677 83.7647 272.615 83.2639 272.491 82.8638C272.37 82.4637 272.197 82.163 271.972 81.9616C271.75 81.7603 271.488 81.6596 271.186 81.6596C270.734 81.6596 270.373 81.8855 270.102 82.3372C269.831 82.7889 269.694 83.4652 269.691 84.3661C269.691 84.9753 269.752 85.4838 269.873 85.8917C269.997 86.2969 270.172 86.6015 270.396 86.8054C270.621 87.0068 270.884 87.1075 271.186 87.1075ZM278.486 88.4975C277.82 88.4949 277.247 88.331 276.766 88.0057C276.289 87.6805 275.921 87.2094 275.663 86.5925C275.407 85.9756 275.281 85.2334 275.284 84.3661C275.284 83.5014 275.411 82.7644 275.667 82.1552C275.925 81.5461 276.293 81.0827 276.77 80.7652C277.25 80.4451 277.822 80.2851 278.486 80.2851C279.149 80.2851 279.719 80.4451 280.197 80.7652C280.677 81.0853 281.046 81.5499 281.304 82.1591C281.563 82.7657 281.69 83.5014 281.688 84.3661C281.688 85.236 281.559 85.9794 281.301 86.5964C281.045 87.2133 280.678 87.6844 280.201 88.0096C279.723 88.3349 279.152 88.4975 278.486 88.4975ZM278.486 87.1075C278.94 87.1075 279.303 86.879 279.574 86.4221C279.845 85.9652 279.979 85.2799 279.976 84.3661C279.976 83.7647 279.914 83.2639 279.79 82.8638C279.669 82.4637 279.496 82.163 279.272 81.9616C279.05 81.7603 278.788 81.6596 278.486 81.6596C278.034 81.6596 277.672 81.8855 277.401 82.3372C277.13 82.7889 276.994 83.4652 276.991 84.3661C276.991 84.9753 277.052 85.4838 277.173 85.8917C277.297 86.2969 277.471 86.6015 277.696 86.8054C277.92 87.0068 278.184 87.1075 278.486 87.1075ZM289.731 79.1971H291.116V89.2936H289.731V79.1971ZM288.455 83.0024H290.124V84.1581H288.455V83.0024ZM285.446 80.4292H286.831C286.831 83.275 286.002 85.5756 283.178 87.222L282.339 86.2189C284.639 84.856 285.446 83.155 285.446 80.7345V80.4292ZM282.851 80.4292H285.871V81.5959H282.851V80.4292ZM287.496 79.4588H288.848V88.8575H287.496V79.4588Z" fill="black"/>
<rect x="252.596" y="261.68" width="48.1566" height="27.2585" rx="4.54308" fill="#D8F7FB"/>
<path d="M261.416 279.131V277.923L264.239 275.309C264.479 275.077 264.68 274.868 264.843 274.682C265.008 274.496 265.133 274.314 265.218 274.136C265.304 273.955 265.346 273.76 265.346 273.551C265.346 273.319 265.293 273.119 265.187 272.951C265.082 272.781 264.937 272.651 264.754 272.56C264.571 272.467 264.363 272.421 264.13 272.421C263.888 272.421 263.676 272.47 263.495 272.568C263.315 272.666 263.175 272.807 263.077 272.99C262.979 273.173 262.93 273.391 262.93 273.644H261.339C261.339 273.125 261.456 272.675 261.691 272.293C261.926 271.911 262.255 271.615 262.678 271.406C263.102 271.197 263.59 271.093 264.142 271.093C264.71 271.093 265.204 271.193 265.625 271.395C266.048 271.593 266.377 271.87 266.612 272.223C266.847 272.577 266.965 272.982 266.965 273.439C266.965 273.739 266.905 274.034 266.787 274.326C266.67 274.617 266.463 274.941 266.163 275.298C265.864 275.651 265.442 276.076 264.897 276.572L263.739 277.706V277.76H267.069V279.131H261.416ZM271.186 279.305C270.52 279.303 269.947 279.139 269.467 278.813C268.989 278.488 268.622 278.017 268.363 277.4C268.108 276.783 267.981 276.041 267.984 275.174C267.984 274.309 268.112 273.572 268.367 272.963C268.625 272.354 268.993 271.89 269.471 271.573C269.951 271.253 270.523 271.093 271.186 271.093C271.849 271.093 272.42 271.253 272.897 271.573C273.378 271.893 273.747 272.358 274.005 272.967C274.263 273.573 274.391 274.309 274.388 275.174C274.388 276.044 274.259 276.787 274.001 277.404C273.745 278.021 273.379 278.492 272.901 278.817C272.424 279.142 271.852 279.305 271.186 279.305ZM271.186 277.915C271.64 277.915 272.003 277.687 272.274 277.23C272.545 276.773 272.679 276.088 272.677 275.174C272.677 274.572 272.615 274.072 272.491 273.671C272.37 273.271 272.197 272.971 271.972 272.769C271.75 272.568 271.488 272.467 271.186 272.467C270.734 272.467 270.373 272.693 270.102 273.145C269.831 273.597 269.694 274.273 269.691 275.174C269.691 275.783 269.752 276.291 269.873 276.699C269.997 277.105 270.172 277.409 270.396 277.613C270.621 277.814 270.884 277.915 271.186 277.915ZM278.486 279.305C277.82 279.303 277.247 279.139 276.766 278.813C276.289 278.488 275.921 278.017 275.663 277.4C275.407 276.783 275.281 276.041 275.284 275.174C275.284 274.309 275.411 273.572 275.667 272.963C275.925 272.354 276.293 271.89 276.77 271.573C277.25 271.253 277.822 271.093 278.486 271.093C279.149 271.093 279.719 271.253 280.197 271.573C280.677 271.893 281.046 272.358 281.304 272.967C281.563 273.573 281.69 274.309 281.688 275.174C281.688 276.044 281.559 276.787 281.301 277.404C281.045 278.021 280.678 278.492 280.201 278.817C279.723 279.142 279.152 279.305 278.486 279.305ZM278.486 277.915C278.94 277.915 279.303 277.687 279.574 277.23C279.845 276.773 279.979 276.088 279.976 275.174C279.976 274.572 279.914 274.072 279.79 273.671C279.669 273.271 279.496 272.971 279.272 272.769C279.05 272.568 278.788 272.467 278.486 272.467C278.034 272.467 277.672 272.693 277.401 273.145C277.13 273.597 276.994 274.273 276.991 275.174C276.991 275.783 277.052 276.291 277.173 276.699C277.297 277.105 277.471 277.409 277.696 277.613C277.92 277.814 278.184 277.915 278.486 277.915ZM289.731 270.005H291.116V280.101H289.731V270.005ZM288.455 273.81H290.124V274.966H288.455V273.81ZM285.446 271.237H286.831C286.831 274.083 286.002 276.383 283.178 278.03L282.339 277.027C284.639 275.664 285.446 273.963 285.446 271.542V271.237ZM282.851 271.237H285.871V272.403H282.851V271.237ZM287.496 270.266H288.848V279.665H287.496V270.266Z" fill="black"/>
<rect x="252.596" y="288.939" width="48.1566" height="27.2585" rx="4.54308" fill="#FFACAC"/>
<path d="M261.416 306.391V305.183L264.239 302.569C264.479 302.337 264.68 302.128 264.843 301.942C265.008 301.756 265.133 301.574 265.218 301.396C265.304 301.215 265.346 301.02 265.346 300.811C265.346 300.579 265.293 300.379 265.187 300.211C265.082 300.041 264.937 299.91 264.754 299.82C264.571 299.727 264.363 299.681 264.13 299.681C263.888 299.681 263.676 299.73 263.495 299.828C263.315 299.926 263.175 300.066 263.077 300.25C262.979 300.433 262.93 300.651 262.93 300.904H261.339C261.339 300.385 261.456 299.935 261.691 299.553C261.926 299.171 262.255 298.875 262.678 298.666C263.102 298.457 263.59 298.352 264.142 298.352C264.71 298.352 265.204 298.453 265.625 298.654C266.048 298.853 266.377 299.129 266.612 299.483C266.847 299.837 266.965 300.242 266.965 300.699C266.965 300.998 266.905 301.294 266.787 301.586C266.67 301.877 266.463 302.201 266.163 302.557C265.864 302.911 265.442 303.336 264.897 303.831L263.739 304.966V305.02H267.069V306.391H261.416ZM271.186 306.565C270.52 306.562 269.947 306.398 269.467 306.073C268.989 305.748 268.622 305.277 268.363 304.66C268.108 304.043 267.981 303.301 267.984 302.434C267.984 301.569 268.112 300.832 268.367 300.223C268.625 299.613 268.993 299.15 269.471 298.833C269.951 298.513 270.523 298.352 271.186 298.352C271.849 298.352 272.42 298.513 272.897 298.833C273.378 299.153 273.747 299.617 274.005 300.226C274.263 300.833 274.391 301.569 274.388 302.434C274.388 303.303 274.259 304.047 274.001 304.664C273.745 305.281 273.379 305.752 272.901 306.077C272.424 306.402 271.852 306.565 271.186 306.565ZM271.186 305.175C271.64 305.175 272.003 304.946 272.274 304.49C272.545 304.033 272.679 303.347 272.677 302.434C272.677 301.832 272.615 301.331 272.491 300.931C272.37 300.531 272.197 300.23 271.972 300.029C271.75 299.828 271.488 299.727 271.186 299.727C270.734 299.727 270.373 299.953 270.102 300.405C269.831 300.856 269.694 301.533 269.691 302.434C269.691 303.043 269.752 303.551 269.873 303.959C269.997 304.364 270.172 304.669 270.396 304.873C270.621 305.074 270.884 305.175 271.186 305.175ZM278.486 306.565C277.82 306.562 277.247 306.398 276.766 306.073C276.289 305.748 275.921 305.277 275.663 304.66C275.407 304.043 275.281 303.301 275.284 302.434C275.284 301.569 275.411 300.832 275.667 300.223C275.925 299.613 276.293 299.15 276.77 298.833C277.25 298.513 277.822 298.352 278.486 298.352C279.149 298.352 279.719 298.513 280.197 298.833C280.677 299.153 281.046 299.617 281.304 300.226C281.563 300.833 281.69 301.569 281.688 302.434C281.688 303.303 281.559 304.047 281.301 304.664C281.045 305.281 280.678 305.752 280.201 306.077C279.723 306.402 279.152 306.565 278.486 306.565ZM278.486 305.175C278.94 305.175 279.303 304.946 279.574 304.49C279.845 304.033 279.979 303.347 279.976 302.434C279.976 301.832 279.914 301.331 279.79 300.931C279.669 300.531 279.496 300.23 279.272 300.029C279.05 299.828 278.788 299.727 278.486 299.727C278.034 299.727 277.672 299.953 277.401 300.405C277.13 300.856 276.994 301.533 276.991 302.434C276.991 303.043 277.052 303.551 277.173 303.959C277.297 304.364 277.471 304.669 277.696 304.873C277.92 305.074 278.184 305.175 278.486 305.175ZM289.731 297.264H291.116V307.361H289.731V297.264ZM288.455 301.07H290.124V302.226H288.455V301.07ZM285.446 298.497H286.831C286.831 301.342 286.002 303.643 283.178 305.289L282.339 304.286C284.639 302.923 285.446 301.222 285.446 298.802V298.497ZM282.851 298.497H285.871V299.663H282.851V298.497ZM287.496 297.526H288.848V306.925H287.496V297.526Z" fill="black"/>
<rect x="252.596" y="207.164" width="48.1566" height="27.2585" rx="4.54308" fill="#D8F7FB"/>
<path d="M261.416 224.615V223.407L264.239 220.794C264.479 220.561 264.68 220.352 264.843 220.166C265.008 219.981 265.133 219.799 265.218 219.62C265.304 219.44 265.346 219.245 265.346 219.036C265.346 218.803 265.293 218.603 265.187 218.436C265.082 218.265 264.937 218.135 264.754 218.045C264.571 217.952 264.363 217.905 264.13 217.905C263.888 217.905 263.676 217.954 263.495 218.052C263.315 218.15 263.175 218.291 263.077 218.474C262.979 218.658 262.93 218.876 262.93 219.129H261.339C261.339 218.61 261.456 218.159 261.691 217.777C261.926 217.395 262.255 217.1 262.678 216.891C263.102 216.682 263.59 216.577 264.142 216.577C264.71 216.577 265.204 216.678 265.625 216.879C266.048 217.078 266.377 217.354 266.612 217.708C266.847 218.061 266.965 218.467 266.965 218.923C266.965 219.223 266.905 219.518 266.787 219.81C266.67 220.102 266.463 220.426 266.163 220.782C265.864 221.136 265.442 221.56 264.897 222.056L263.739 223.19V223.245H267.069V224.615H261.416ZM271.186 224.789C270.52 224.787 269.947 224.623 269.467 224.298C268.989 223.972 268.622 223.501 268.363 222.884C268.108 222.268 267.981 221.525 267.984 220.658C267.984 219.793 268.112 219.056 268.367 218.447C268.625 217.838 268.993 217.375 269.471 217.057C269.951 216.737 270.523 216.577 271.186 216.577C271.849 216.577 272.42 216.737 272.897 217.057C273.378 217.377 273.747 217.842 274.005 218.451C274.263 219.058 274.391 219.793 274.388 220.658C274.388 221.528 274.259 222.271 274.001 222.888C273.745 223.505 273.379 223.976 272.901 224.302C272.424 224.627 271.852 224.789 271.186 224.789ZM271.186 223.399C271.64 223.399 272.003 223.171 272.274 222.714C272.545 222.257 272.679 221.572 272.677 220.658C272.677 220.057 272.615 219.556 272.491 219.156C272.37 218.756 272.197 218.455 271.972 218.254C271.75 218.052 271.488 217.952 271.186 217.952C270.734 217.952 270.373 218.177 270.102 218.629C269.831 219.081 269.694 219.757 269.691 220.658C269.691 221.267 269.752 221.776 269.873 222.184C269.997 222.589 270.172 222.894 270.396 223.097C270.621 223.299 270.884 223.399 271.186 223.399ZM278.486 224.789C277.82 224.787 277.247 224.623 276.766 224.298C276.289 223.972 275.921 223.501 275.663 222.884C275.407 222.268 275.281 221.525 275.284 220.658C275.284 219.793 275.411 219.056 275.667 218.447C275.925 217.838 276.293 217.375 276.77 217.057C277.25 216.737 277.822 216.577 278.486 216.577C279.149 216.577 279.719 216.737 280.197 217.057C280.677 217.377 281.046 217.842 281.304 218.451C281.563 219.058 281.69 219.793 281.688 220.658C281.688 221.528 281.559 222.271 281.301 222.888C281.045 223.505 280.678 223.976 280.201 224.302C279.723 224.627 279.152 224.789 278.486 224.789ZM278.486 223.399C278.94 223.399 279.303 223.171 279.574 222.714C279.845 222.257 279.979 221.572 279.976 220.658C279.976 220.057 279.914 219.556 279.79 219.156C279.669 218.756 279.496 218.455 279.272 218.254C279.05 218.052 278.788 217.952 278.486 217.952C278.034 217.952 277.672 218.177 277.401 218.629C277.13 219.081 276.994 219.757 276.991 220.658C276.991 221.267 277.052 221.776 277.173 222.184C277.297 222.589 277.471 222.894 277.696 223.097C277.92 223.299 278.184 223.399 278.486 223.399ZM289.731 215.489H291.116V225.586H289.731V215.489ZM288.455 219.294H290.124V220.45H288.455V219.294ZM285.446 216.721H286.831C286.831 219.567 286.002 221.868 283.178 223.514L282.339 222.511C284.639 221.148 285.446 219.447 285.446 217.026V216.721ZM282.851 216.721H285.871V217.888H282.851V216.721ZM287.496 215.751H288.848V225.15H287.496V215.751Z" fill="black"/>
<rect x="252.596" y="234.422" width="48.1566" height="27.2585" rx="4.54308" fill="#FFACAC"/>
<path d="M261.416 251.873V250.665L264.239 248.051C264.479 247.819 264.68 247.61 264.843 247.424C265.008 247.238 265.133 247.056 265.218 246.878C265.304 246.698 265.346 246.503 265.346 246.294C265.346 246.061 265.293 245.861 265.187 245.693C265.082 245.523 264.937 245.393 264.754 245.302C264.571 245.209 264.363 245.163 264.13 245.163C263.888 245.163 263.676 245.212 263.495 245.31C263.315 245.408 263.175 245.549 263.077 245.732C262.979 245.915 262.93 246.134 262.93 246.387H261.339C261.339 245.868 261.456 245.417 261.691 245.035C261.926 244.653 262.255 244.358 262.678 244.149C263.102 243.939 263.59 243.835 264.142 243.835C264.71 243.835 265.204 243.936 265.625 244.137C266.048 244.336 266.377 244.612 266.612 244.966C266.847 245.319 266.965 245.724 266.965 246.181C266.965 246.481 266.905 246.776 266.787 247.068C266.67 247.36 266.463 247.684 266.163 248.04C265.864 248.393 265.442 248.818 264.897 249.314L263.739 250.448V250.502H267.069V251.873H261.416ZM271.186 252.047C270.52 252.045 269.947 251.881 269.467 251.556C268.989 251.23 268.622 250.759 268.363 250.142C268.108 249.525 267.981 248.783 267.984 247.916C267.984 247.051 268.112 246.314 268.367 245.705C268.625 245.096 268.993 244.633 269.471 244.315C269.951 243.995 270.523 243.835 271.186 243.835C271.849 243.835 272.42 243.995 272.897 244.315C273.378 244.635 273.747 245.1 274.005 245.709C274.263 246.316 274.391 247.051 274.388 247.916C274.388 248.786 274.259 249.529 274.001 250.146C273.745 250.763 273.379 251.234 272.901 251.559C272.424 251.885 271.852 252.047 271.186 252.047ZM271.186 250.657C271.64 250.657 272.003 250.429 272.274 249.972C272.545 249.515 272.679 248.83 272.677 247.916C272.677 247.314 272.615 246.814 272.491 246.414C272.37 246.014 272.197 245.713 271.972 245.511C271.75 245.31 271.488 245.209 271.186 245.209C270.734 245.209 270.373 245.435 270.102 245.887C269.831 246.339 269.694 247.015 269.691 247.916C269.691 248.525 269.752 249.034 269.873 249.441C269.997 249.847 270.172 250.151 270.396 250.355C270.621 250.557 270.884 250.657 271.186 250.657ZM278.486 252.047C277.82 252.045 277.247 251.881 276.766 251.556C276.289 251.23 275.921 250.759 275.663 250.142C275.407 249.525 275.281 248.783 275.284 247.916C275.284 247.051 275.411 246.314 275.667 245.705C275.925 245.096 276.293 244.633 276.77 244.315C277.25 243.995 277.822 243.835 278.486 243.835C279.149 243.835 279.719 243.995 280.197 244.315C280.677 244.635 281.046 245.1 281.304 245.709C281.563 246.316 281.69 247.051 281.688 247.916C281.688 248.786 281.559 249.529 281.301 250.146C281.045 250.763 280.678 251.234 280.201 251.559C279.723 251.885 279.152 252.047 278.486 252.047ZM278.486 250.657C278.94 250.657 279.303 250.429 279.574 249.972C279.845 249.515 279.979 248.83 279.976 247.916C279.976 247.314 279.914 246.814 279.79 246.414C279.669 246.014 279.496 245.713 279.272 245.511C279.05 245.31 278.788 245.209 278.486 245.209C278.034 245.209 277.672 245.435 277.401 245.887C277.13 246.339 276.994 247.015 276.991 247.916C276.991 248.525 277.052 249.034 277.173 249.441C277.297 249.847 277.471 250.151 277.696 250.355C277.92 250.557 278.184 250.657 278.486 250.657ZM289.731 242.747H291.116V252.843H289.731V242.747ZM288.455 246.552H290.124V247.708H288.455V246.552ZM285.446 243.979H286.831C286.831 246.825 286.002 249.125 283.178 250.772L282.339 249.769C284.639 248.406 285.446 246.705 285.446 244.284V243.979ZM282.851 243.979H285.871V245.146H282.851V243.979ZM287.496 243.009H288.848V252.407H287.496V243.009Z" fill="black"/>
<rect x="252.596" y="152.646" width="48.1566" height="27.2585" rx="4.54308" fill="#D8F7FB"/>
<path d="M261.416 170.098V168.89L264.239 166.276C264.479 166.044 264.68 165.835 264.843 165.649C265.008 165.463 265.133 165.281 265.218 165.103C265.304 164.922 265.346 164.727 265.346 164.518C265.346 164.286 265.293 164.086 265.187 163.918C265.082 163.748 264.937 163.617 264.754 163.527C264.571 163.434 264.363 163.388 264.13 163.388C263.888 163.388 263.676 163.437 263.495 163.535C263.315 163.633 263.175 163.773 263.077 163.957C262.979 164.14 262.93 164.358 262.93 164.611H261.339C261.339 164.092 261.456 163.642 261.691 163.26C261.926 162.878 262.255 162.582 262.678 162.373C263.102 162.164 263.59 162.06 264.142 162.06C264.71 162.06 265.204 162.16 265.625 162.362C266.048 162.56 266.377 162.836 266.612 163.19C266.847 163.544 266.965 163.949 266.965 164.406C266.965 164.705 266.905 165.001 266.787 165.293C266.67 165.584 266.463 165.908 266.163 166.264C265.864 166.618 265.442 167.043 264.897 167.538L263.739 168.673V168.727H267.069V170.098H261.416ZM271.186 170.272C270.52 170.269 269.947 170.105 269.467 169.78C268.989 169.455 268.622 168.984 268.363 168.367C268.108 167.75 267.981 167.008 267.984 166.141C267.984 165.276 268.112 164.539 268.367 163.93C268.625 163.32 268.993 162.857 269.471 162.54C269.951 162.22 270.523 162.06 271.186 162.06C271.849 162.06 272.42 162.22 272.897 162.54C273.378 162.86 273.747 163.324 274.005 163.934C274.263 164.54 274.391 165.276 274.388 166.141C274.388 167.01 274.259 167.754 274.001 168.371C273.745 168.988 273.379 169.459 272.901 169.784C272.424 170.109 271.852 170.272 271.186 170.272ZM271.186 168.882C271.64 168.882 272.003 168.653 272.274 168.197C272.545 167.74 272.679 167.054 272.677 166.141C272.677 165.539 272.615 165.038 272.491 164.638C272.37 164.238 272.197 163.937 271.972 163.736C271.75 163.535 271.488 163.434 271.186 163.434C270.734 163.434 270.373 163.66 270.102 164.112C269.831 164.563 269.694 165.24 269.691 166.141C269.691 166.75 269.752 167.258 269.873 167.666C269.997 168.071 270.172 168.376 270.396 168.58C270.621 168.781 270.884 168.882 271.186 168.882ZM278.486 170.272C277.82 170.269 277.247 170.105 276.766 169.78C276.289 169.455 275.921 168.984 275.663 168.367C275.407 167.75 275.281 167.008 275.284 166.141C275.284 165.276 275.411 164.539 275.667 163.93C275.925 163.32 276.293 162.857 276.77 162.54C277.25 162.22 277.822 162.06 278.486 162.06C279.149 162.06 279.719 162.22 280.197 162.54C280.677 162.86 281.046 163.324 281.304 163.934C281.563 164.54 281.69 165.276 281.688 166.141C281.688 167.01 281.559 167.754 281.301 168.371C281.045 168.988 280.678 169.459 280.201 169.784C279.723 170.109 279.152 170.272 278.486 170.272ZM278.486 168.882C278.94 168.882 279.303 168.653 279.574 168.197C279.845 167.74 279.979 167.054 279.976 166.141C279.976 165.539 279.914 165.038 279.79 164.638C279.669 164.238 279.496 163.937 279.272 163.736C279.05 163.535 278.788 163.434 278.486 163.434C278.034 163.434 277.672 163.66 277.401 164.112C277.13 164.563 276.994 165.24 276.991 166.141C276.991 166.75 277.052 167.258 277.173 167.666C277.297 168.071 277.471 168.376 277.696 168.58C277.92 168.781 278.184 168.882 278.486 168.882ZM289.731 160.972H291.116V171.068H289.731V160.972ZM288.455 164.777H290.124V165.933H288.455V164.777ZM285.446 162.204H286.831C286.831 165.049 286.002 167.35 283.178 168.996L282.339 167.993C284.639 166.63 285.446 164.929 285.446 162.509V162.204ZM282.851 162.204H285.871V163.37H282.851V162.204ZM287.496 161.233H288.848V170.632H287.496V161.233Z" fill="black"/>
<rect x="252.596" y="179.904" width="48.1566" height="27.2585" rx="4.54308" fill="#FFACAC"/>
<path d="M261.416 197.355V196.147L264.239 193.534C264.479 193.302 264.68 193.092 264.843 192.907C265.008 192.721 265.133 192.539 265.218 192.361C265.304 192.18 265.346 191.985 265.346 191.776C265.346 191.544 265.293 191.344 265.187 191.176C265.082 191.005 264.937 190.875 264.754 190.785C264.571 190.692 264.363 190.645 264.13 190.645C263.888 190.645 263.676 190.694 263.495 190.793C263.315 190.891 263.175 191.031 263.077 191.215C262.979 191.398 262.93 191.616 262.93 191.869H261.339C261.339 191.35 261.456 190.9 261.691 190.518C261.926 190.136 262.255 189.84 262.678 189.631C263.102 189.422 263.59 189.317 264.142 189.317C264.71 189.317 265.204 189.418 265.625 189.619C266.048 189.818 266.377 190.094 266.612 190.448C266.847 190.802 266.965 191.207 266.965 191.664C266.965 191.963 266.905 192.259 266.787 192.55C266.67 192.842 266.463 193.166 266.163 193.522C265.864 193.876 265.442 194.301 264.897 194.796L263.739 195.931V195.985H267.069V197.355H261.416ZM271.186 197.53C270.52 197.527 269.947 197.363 269.467 197.038C268.989 196.713 268.622 196.242 268.363 195.625C268.108 195.008 267.981 194.266 267.984 193.398C267.984 192.534 268.112 191.797 268.367 191.187C268.625 190.578 268.993 190.115 269.471 189.797C269.951 189.477 270.523 189.317 271.186 189.317C271.849 189.317 272.42 189.477 272.897 189.797C273.378 190.118 273.747 190.582 274.005 191.191C274.263 191.798 274.391 192.534 274.388 193.398C274.388 194.268 274.259 195.012 274.001 195.629C273.745 196.246 273.379 196.717 272.901 197.042C272.424 197.367 271.852 197.53 271.186 197.53ZM271.186 196.14C271.64 196.14 272.003 195.911 272.274 195.454C272.545 194.997 272.679 194.312 272.677 193.398C272.677 192.797 272.615 192.296 272.491 191.896C272.37 191.496 272.197 191.195 271.972 190.994C271.75 190.793 271.488 190.692 271.186 190.692C270.734 190.692 270.373 190.918 270.102 191.369C269.831 191.821 269.694 192.497 269.691 193.398C269.691 194.008 269.752 194.516 269.873 194.924C269.997 195.329 270.172 195.634 270.396 195.838C270.621 196.039 270.884 196.14 271.186 196.14ZM278.486 197.53C277.82 197.527 277.247 197.363 276.766 197.038C276.289 196.713 275.921 196.242 275.663 195.625C275.407 195.008 275.281 194.266 275.284 193.398C275.284 192.534 275.411 191.797 275.667 191.187C275.925 190.578 276.293 190.115 276.77 189.797C277.25 189.477 277.822 189.317 278.486 189.317C279.149 189.317 279.719 189.477 280.197 189.797C280.677 190.118 281.046 190.582 281.304 191.191C281.563 191.798 281.69 192.534 281.688 193.398C281.688 194.268 281.559 195.012 281.301 195.629C281.045 196.246 280.678 196.717 280.201 197.042C279.723 197.367 279.152 197.53 278.486 197.53ZM278.486 196.14C278.94 196.14 279.303 195.911 279.574 195.454C279.845 194.997 279.979 194.312 279.976 193.398C279.976 192.797 279.914 192.296 279.79 191.896C279.669 191.496 279.496 191.195 279.272 190.994C279.05 190.793 278.788 190.692 278.486 190.692C278.034 190.692 277.672 190.918 277.401 191.369C277.13 191.821 276.994 192.497 276.991 193.398C276.991 194.008 277.052 194.516 277.173 194.924C277.297 195.329 277.471 195.634 277.696 195.838C277.92 196.039 278.184 196.14 278.486 196.14ZM289.731 188.229H291.116V198.326H289.731V188.229ZM288.455 192.035H290.124V193.19H288.455V192.035ZM285.446 189.461H286.831C286.831 192.307 286.002 194.608 283.178 196.254L282.339 195.251C284.639 193.888 285.446 192.187 285.446 189.767V189.461ZM282.851 189.461H285.871V190.628H282.851V189.461ZM287.496 188.491H288.848V197.89H287.496V188.491Z" fill="black"/>
<rect x="252.596" y="98.1289" width="48.1566" height="27.2585" rx="4.54308" fill="#D8F7FB"/>
<path d="M261.416 115.581V114.373L264.239 111.759C264.479 111.527 264.68 111.318 264.843 111.132C265.008 110.946 265.133 110.764 265.218 110.586C265.304 110.406 265.346 110.211 265.346 110.002C265.346 109.769 265.293 109.569 265.187 109.401C265.082 109.231 264.937 109.101 264.754 109.01C264.571 108.917 264.363 108.871 264.13 108.871C263.888 108.871 263.676 108.92 263.495 109.018C263.315 109.116 263.175 109.257 263.077 109.44C262.979 109.623 262.93 109.842 262.93 110.095H261.339C261.339 109.576 261.456 109.125 261.691 108.743C261.926 108.361 262.255 108.066 262.678 107.857C263.102 107.647 263.59 107.543 264.142 107.543C264.71 107.543 265.204 107.644 265.625 107.845C266.048 108.044 266.377 108.32 266.612 108.674C266.847 109.027 266.965 109.432 266.965 109.889C266.965 110.189 266.905 110.484 266.787 110.776C266.67 111.068 266.463 111.392 266.163 111.748C265.864 112.101 265.442 112.526 264.897 113.022L263.739 114.156V114.21H267.069V115.581H261.416ZM271.186 115.755C270.52 115.753 269.947 115.589 269.467 115.264C268.989 114.938 268.622 114.467 268.363 113.85C268.108 113.233 267.981 112.491 267.984 111.624C267.984 110.759 268.112 110.022 268.367 109.413C268.625 108.804 268.993 108.341 269.471 108.023C269.951 107.703 270.523 107.543 271.186 107.543C271.849 107.543 272.42 107.703 272.897 108.023C273.378 108.343 273.747 108.808 274.005 109.417C274.263 110.024 274.391 110.759 274.388 111.624C274.388 112.494 274.259 113.237 274.001 113.854C273.745 114.471 273.379 114.942 272.901 115.267C272.424 115.593 271.852 115.755 271.186 115.755ZM271.186 114.365C271.64 114.365 272.003 114.137 272.274 113.68C272.545 113.223 272.679 112.538 272.677 111.624C272.677 111.022 272.615 110.522 272.491 110.122C272.37 109.722 272.197 109.421 271.972 109.219C271.75 109.018 271.488 108.917 271.186 108.917C270.734 108.917 270.373 109.143 270.102 109.595C269.831 110.047 269.694 110.723 269.691 111.624C269.691 112.233 269.752 112.742 269.873 113.149C269.997 113.555 270.172 113.859 270.396 114.063C270.621 114.265 270.884 114.365 271.186 114.365ZM278.486 115.755C277.82 115.753 277.247 115.589 276.766 115.264C276.289 114.938 275.921 114.467 275.663 113.85C275.407 113.233 275.281 112.491 275.284 111.624C275.284 110.759 275.411 110.022 275.667 109.413C275.925 108.804 276.293 108.341 276.77 108.023C277.25 107.703 277.822 107.543 278.486 107.543C279.149 107.543 279.719 107.703 280.197 108.023C280.677 108.343 281.046 108.808 281.304 109.417C281.563 110.024 281.69 110.759 281.688 111.624C281.688 112.494 281.559 113.237 281.301 113.854C281.045 114.471 280.678 114.942 280.201 115.267C279.723 115.593 279.152 115.755 278.486 115.755ZM278.486 114.365C278.94 114.365 279.303 114.137 279.574 113.68C279.845 113.223 279.979 112.538 279.976 111.624C279.976 111.022 279.914 110.522 279.79 110.122C279.669 109.722 279.496 109.421 279.272 109.219C279.05 109.018 278.788 108.917 278.486 108.917C278.034 108.917 277.672 109.143 277.401 109.595C277.13 110.047 276.994 110.723 276.991 111.624C276.991 112.233 277.052 112.742 277.173 113.149C277.297 113.555 277.471 113.859 277.696 114.063C277.92 114.265 278.184 114.365 278.486 114.365ZM289.731 106.455H291.116V116.551H289.731V106.455ZM288.455 110.26H290.124V111.416H288.455V110.26ZM285.446 107.687H286.831C286.831 110.533 286.002 112.833 283.178 114.48L282.339 113.477C284.639 112.114 285.446 110.413 285.446 107.992V107.687ZM282.851 107.687H285.871V108.854H282.851V107.687ZM287.496 106.717H288.848V116.115H287.496V106.717Z" fill="black"/>
<rect x="252.596" y="125.389" width="48.1566" height="27.2585" rx="4.54308" fill="#FFACAC"/>
<path d="M261.416 142.841V141.633L264.239 139.019C264.479 138.787 264.68 138.578 264.843 138.392C265.008 138.206 265.133 138.024 265.218 137.846C265.304 137.665 265.346 137.47 265.346 137.261C265.346 137.029 265.293 136.829 265.187 136.661C265.082 136.491 264.937 136.36 264.754 136.27C264.571 136.177 264.363 136.131 264.13 136.131C263.888 136.131 263.676 136.18 263.495 136.278C263.315 136.376 263.175 136.517 263.077 136.7C262.979 136.883 262.93 137.101 262.93 137.354H261.339C261.339 136.835 261.456 136.385 261.691 136.003C261.926 135.621 262.255 135.325 262.678 135.116C263.102 134.907 263.59 134.803 264.142 134.803C264.71 134.803 265.204 134.903 265.625 135.105C266.048 135.303 266.377 135.58 266.612 135.933C266.847 136.287 266.965 136.692 266.965 137.149C266.965 137.448 266.905 137.744 266.787 138.036C266.67 138.327 266.463 138.651 266.163 139.008C265.864 139.361 265.442 139.786 264.897 140.281L263.739 141.416V141.47H267.069V142.841H261.416ZM271.186 143.015C270.52 143.012 269.947 142.849 269.467 142.523C268.989 142.198 268.622 141.727 268.363 141.11C268.108 140.493 267.981 139.751 267.984 138.884C267.984 138.019 268.112 137.282 268.367 136.673C268.625 136.064 268.993 135.6 269.471 135.283C269.951 134.963 270.523 134.803 271.186 134.803C271.849 134.803 272.42 134.963 272.897 135.283C273.378 135.603 273.747 136.068 274.005 136.677C274.263 137.283 274.391 138.019 274.388 138.884C274.388 139.754 274.259 140.497 274.001 141.114C273.745 141.731 273.379 142.202 272.901 142.527C272.424 142.852 271.852 143.015 271.186 143.015ZM271.186 141.625C271.64 141.625 272.003 141.397 272.274 140.94C272.545 140.483 272.679 139.797 272.677 138.884C272.677 138.282 272.615 137.781 272.491 137.381C272.37 136.981 272.197 136.681 271.972 136.479C271.75 136.278 271.488 136.177 271.186 136.177C270.734 136.177 270.373 136.403 270.102 136.855C269.831 137.307 269.694 137.983 269.691 138.884C269.691 139.493 269.752 140.001 269.873 140.409C269.997 140.815 270.172 141.119 270.396 141.323C270.621 141.524 270.884 141.625 271.186 141.625ZM278.486 143.015C277.82 143.012 277.247 142.849 276.766 142.523C276.289 142.198 275.921 141.727 275.663 141.11C275.407 140.493 275.281 139.751 275.284 138.884C275.284 138.019 275.411 137.282 275.667 136.673C275.925 136.064 276.293 135.6 276.77 135.283C277.25 134.963 277.822 134.803 278.486 134.803C279.149 134.803 279.719 134.963 280.197 135.283C280.677 135.603 281.046 136.068 281.304 136.677C281.563 137.283 281.69 138.019 281.688 138.884C281.688 139.754 281.559 140.497 281.301 141.114C281.045 141.731 280.678 142.202 280.201 142.527C279.723 142.852 279.152 143.015 278.486 143.015ZM278.486 141.625C278.94 141.625 279.303 141.397 279.574 140.94C279.845 140.483 279.979 139.797 279.976 138.884C279.976 138.282 279.914 137.781 279.79 137.381C279.669 136.981 279.496 136.681 279.272 136.479C279.05 136.278 278.788 136.177 278.486 136.177C278.034 136.177 277.672 136.403 277.401 136.855C277.13 137.307 276.994 137.983 276.991 138.884C276.991 139.493 277.052 140.001 277.173 140.409C277.297 140.815 277.471 141.119 277.696 141.323C277.92 141.524 278.184 141.625 278.486 141.625ZM289.731 133.715H291.116V143.811H289.731V133.715ZM288.455 137.52H290.124V138.676H288.455V137.52ZM285.446 134.947H286.831C286.831 137.793 286.002 140.093 283.178 141.74L282.339 140.736C284.639 139.374 285.446 137.673 285.446 135.252V134.947ZM282.851 134.947H285.871V136.113H282.851V134.947ZM287.496 133.976H288.848V143.375H287.496V133.976Z" fill="black"/>
<path d="M300.109 83.8575C299.754 84.2123 299.754 84.7877 300.109 85.1425L305.892 90.9249C306.246 91.2797 306.822 91.2797 307.177 90.9249C307.531 90.57 307.531 89.9947 307.177 89.6399L302.037 84.5L307.177 79.3601C307.531 79.0053 307.531 78.43 307.177 78.0751C306.822 77.7203 306.246 77.7203 305.892 78.0751L300.109 83.8575ZM327.102 83.5914H300.752V85.4086H327.102V83.5914Z" fill="black"/>
<path d="M334.4 80.1021H339.252V86.8949H334.4V80.1021ZM337.834 81.236H335.828V85.75H337.834V81.236ZM340.822 79.1862H342.283V89.3155H340.822V79.1862ZM350.71 79.1971H352.16V89.2936H350.71V79.1971ZM344.255 80.1566H345.695V86.4261H344.255V80.1566ZM344.255 85.5756H345.149C346.621 85.5756 348.257 85.4666 349.925 85.1395L350.089 86.3388C348.355 86.6986 346.687 86.8077 345.149 86.8077H344.255V85.5756ZM353.828 80.0912H355.191V82.3591H356.477V80.0912H357.818V86.9058H353.828V80.0912ZM355.191 83.493V85.75H356.477V83.493H355.191ZM360.839 79.1971H362.223V89.2936H360.839V79.1971ZM359.596 83.046H361.275V84.2127H359.596V83.046ZM358.625 79.3498H359.988V88.8357H358.625V79.3498ZM370.302 79.1971H371.763V89.2936H370.302V79.1971ZM365.853 81.8139H366.998V82.3373C366.998 84.4743 366.05 86.6223 364.185 87.4292L363.411 86.317C365.068 85.5756 365.853 83.8638 365.853 82.3373V81.8139ZM366.17 81.8139H367.303V82.3373C367.303 83.7874 368.099 85.4447 369.768 86.1535L368.993 87.2656C367.129 86.4915 366.17 84.4089 366.17 82.3373V81.8139ZM363.749 80.8435H369.364V81.9884H363.749V80.8435ZM365.853 79.4261H367.303V81.4323H365.853V79.4261ZM376.693 87.4017C376.437 87.4017 376.218 87.3114 376.035 87.1307C375.854 86.95 375.764 86.7306 375.764 86.4725C375.764 86.2195 375.854 86.0027 376.035 85.822C376.218 85.6413 376.437 85.5509 376.693 85.5509C376.941 85.5509 377.158 85.6413 377.344 85.822C377.529 86.0027 377.622 86.2195 377.622 86.4725C377.622 86.6428 377.578 86.799 377.491 86.941C377.405 87.0803 377.293 87.1926 377.154 87.2778C377.014 87.3604 376.861 87.4017 376.693 87.4017ZM376.693 83.5104C376.437 83.5104 376.218 83.4201 376.035 83.2394C375.854 83.0587 375.764 82.8393 375.764 82.5812C375.764 82.3282 375.854 82.1126 376.035 81.9345C376.218 81.7538 376.437 81.6635 376.693 81.6635C376.941 81.6635 377.158 81.7538 377.344 81.9345C377.529 82.1126 377.622 82.3282 377.622 82.5812C377.622 82.7541 377.578 82.9116 377.491 83.0535C377.405 83.1929 377.293 83.3039 377.154 83.3865C377.014 83.4691 376.861 83.5104 376.693 83.5104ZM381.07 88.3232V87.1152L383.893 84.5016C384.133 84.2693 384.334 84.0602 384.497 83.8744C384.662 83.6885 384.787 83.5065 384.872 83.3284C384.958 83.1477 385 82.9529 385 82.7438C385 82.5115 384.947 82.3114 384.841 82.1436C384.736 81.9733 384.591 81.8429 384.408 81.7526C384.225 81.6596 384.017 81.6132 383.784 81.6132C383.542 81.6132 383.33 81.6622 383.149 81.7603C382.969 81.8584 382.829 81.9991 382.731 82.1823C382.633 82.3656 382.584 82.5837 382.584 82.8367H380.993C380.993 82.3179 381.11 81.8674 381.345 81.4854C381.58 81.1034 381.909 80.8078 382.332 80.5987C382.756 80.3896 383.244 80.2851 383.796 80.2851C384.364 80.2851 384.858 80.3858 385.279 80.5871C385.702 80.7859 386.031 81.0621 386.266 81.4157C386.501 81.7693 386.619 82.1746 386.619 82.6315C386.619 82.9309 386.559 83.2265 386.441 83.5182C386.324 83.8098 386.117 84.1338 385.817 84.49C385.518 84.8437 385.096 85.2683 384.551 85.7639L383.393 86.8984V86.9526H386.723V88.3232H381.07ZM390.84 88.4975C390.174 88.4949 389.601 88.331 389.121 88.0057C388.643 87.6805 388.276 87.2094 388.017 86.5925C387.762 85.9756 387.635 85.2334 387.638 84.3661C387.638 83.5014 387.766 82.7644 388.021 82.1552C388.279 81.5461 388.647 81.0827 389.125 80.7652C389.605 80.4451 390.177 80.2851 390.84 80.2851C391.503 80.2851 392.074 80.4451 392.551 80.7652C393.032 81.0853 393.401 81.5499 393.659 82.1591C393.917 82.7657 394.045 83.5014 394.042 84.3661C394.042 85.236 393.913 85.9794 393.655 86.5964C393.399 87.2133 393.033 87.6844 392.555 88.0096C392.078 88.3349 391.506 88.4975 390.84 88.4975ZM390.84 87.1075C391.294 87.1075 391.657 86.879 391.928 86.4221C392.199 85.9652 392.333 85.2799 392.331 84.3661C392.331 83.7647 392.269 83.2639 392.145 82.8638C392.024 82.4637 391.851 82.163 391.626 81.9616C391.404 81.7603 391.142 81.6596 390.84 81.6596C390.388 81.6596 390.027 81.8855 389.756 82.3372C389.485 82.7889 389.348 83.4652 389.346 84.3661C389.346 84.9753 389.406 85.4838 389.527 85.8917C389.651 86.2969 389.826 86.6015 390.05 86.8054C390.275 87.0068 390.538 87.1075 390.84 87.1075ZM398.14 88.4975C397.474 88.4949 396.901 88.331 396.421 88.0057C395.943 87.6805 395.575 87.2094 395.317 86.5925C395.061 85.9756 394.935 85.2334 394.938 84.3661C394.938 83.5014 395.065 82.7644 395.321 82.1552C395.579 81.5461 395.947 81.0827 396.424 80.7652C396.905 80.4451 397.476 80.2851 398.14 80.2851C398.803 80.2851 399.374 80.4451 399.851 80.7652C400.331 81.0853 400.7 81.5499 400.958 82.1591C401.217 82.7657 401.344 83.5014 401.342 84.3661C401.342 85.236 401.213 85.9794 400.955 86.5964C400.699 87.2133 400.332 87.6844 399.855 88.0096C399.377 88.3349 398.806 88.4975 398.14 88.4975ZM398.14 87.1075C398.594 87.1075 398.957 86.879 399.228 86.4221C399.499 85.9652 399.633 85.2799 399.63 84.3661C399.63 83.7647 399.568 83.2639 399.444 82.8638C399.323 82.4637 399.15 82.163 398.926 81.9616C398.704 81.7603 398.442 81.6596 398.14 81.6596C397.688 81.6596 397.327 81.8855 397.056 82.3372C396.784 82.7889 396.648 83.4652 396.645 84.3661C396.645 84.9753 396.706 85.4838 396.827 85.8917C396.951 86.2969 397.125 86.6015 397.35 86.8054C397.574 87.0068 397.838 87.1075 398.14 87.1075ZM409.385 79.1971H410.77V89.2936H409.385V79.1971ZM408.109 83.0024H409.778V84.1581H408.109V83.0024ZM405.1 80.4292H406.485C406.485 83.275 405.656 85.5756 402.832 87.222L401.993 86.2189C404.293 84.856 405.1 83.155 405.1 80.7345V80.4292ZM402.505 80.4292H405.525V81.5959H402.505V80.4292ZM407.15 79.4588H408.502V88.8575H407.15V79.4588Z" fill="black"/>
<path d="M224.883 52.6994L229.221 43.6133L218.729 43.6133L223.066 52.6994L224.883 52.6994ZM223.066 307.112L218.729 316.198L229.221 316.198L224.883 307.112L223.066 307.112ZM223.066 51.7908L223.066 308.02L224.883 308.02L224.883 51.7908L223.066 51.7908Z" fill="#4D4D4D"/>
<path d="M7.50318 171.921V186.459H4.4295V174.839H4.34432L1.01509 176.926V174.2L4.61406 171.921H7.50318ZM16.2787 186.778C15.0578 186.774 14.0072 186.473 13.127 185.877C12.2515 185.281 11.5771 184.417 11.1039 183.286C10.6354 182.155 10.4035 180.794 10.4082 179.204C10.4082 177.619 10.6425 176.268 11.111 175.151C11.5842 174.034 12.2586 173.185 13.1341 172.603C14.0143 172.016 15.0625 171.722 16.2787 171.722C17.495 171.722 18.5408 172.016 19.4163 172.603C20.2965 173.189 20.9733 174.041 21.4465 175.158C21.9197 176.27 22.154 177.619 22.1493 179.204C22.1493 180.799 21.9126 182.162 21.4394 183.293C20.9709 184.424 20.2989 185.288 19.4234 185.884C18.5479 186.48 17.4997 186.778 16.2787 186.778ZM16.2787 184.23C17.1116 184.23 17.7765 183.811 18.2734 182.974C18.7703 182.136 19.0164 180.88 19.0117 179.204C19.0117 178.102 18.8981 177.184 18.671 176.45C18.4485 175.716 18.1315 175.165 17.7198 174.796C17.3128 174.427 16.8324 174.242 16.2787 174.242C15.4506 174.242 14.788 174.656 14.2911 175.485C13.7942 176.313 13.5434 177.553 13.5387 179.204C13.5387 180.321 13.6499 181.253 13.8723 182.001C14.0995 182.744 14.4189 183.302 14.8306 183.676C15.2424 184.045 15.7251 184.23 16.2787 184.23ZM31.3667 171.921V186.459H28.293V171.921H31.3667ZM39.2585 175.556V177.827H32.6923V175.556H39.2585ZM34.183 172.943H37.207V183.108C37.207 183.388 37.2496 183.605 37.3348 183.762C37.4199 183.913 37.5383 184.019 37.6897 184.081C37.8459 184.142 38.0257 184.173 38.2292 184.173C38.3712 184.173 38.5131 184.161 38.6551 184.138C38.7971 184.109 38.9059 184.088 38.9816 184.074L39.4572 186.324C39.3058 186.371 39.0928 186.426 38.8184 186.487C38.5439 186.554 38.2103 186.594 37.8175 186.608C37.0887 186.636 36.4498 186.539 35.9009 186.317C35.3566 186.095 34.9331 185.749 34.6302 185.281C34.3273 184.812 34.1783 184.221 34.183 183.506V172.943ZM45.7004 186.672C44.5788 186.672 43.6134 186.445 42.8042 185.99C41.9997 185.531 41.3797 184.883 40.9444 184.045C40.509 183.203 40.2913 182.207 40.2913 181.057C40.2913 179.935 40.509 178.951 40.9444 178.104C41.3797 177.257 41.9926 176.597 42.7829 176.123C43.5779 175.65 44.5102 175.414 45.5797 175.414C46.299 175.414 46.9687 175.53 47.5886 175.761C48.2133 175.989 48.7575 176.332 49.2213 176.791C49.6898 177.25 50.0542 177.827 50.3145 178.523C50.5747 179.214 50.7049 180.023 50.7049 180.951V181.781H41.498V179.907H47.8584C47.8584 179.472 47.7637 179.086 47.5744 178.75C47.3851 178.414 47.1225 178.151 46.7865 177.962C46.4552 177.768 46.0695 177.671 45.6294 177.671C45.1704 177.671 44.7634 177.777 44.4085 177.99C44.0583 178.199 43.7838 178.48 43.585 178.835C43.3863 179.185 43.2845 179.576 43.2798 180.006V181.788C43.2798 182.328 43.3792 182.794 43.5779 183.187C43.7814 183.579 44.0677 183.882 44.4368 184.095C44.806 184.308 45.2437 184.415 45.7501 184.415C46.0861 184.415 46.3937 184.367 46.6729 184.273C46.9521 184.178 47.1911 184.036 47.3898 183.847C47.5886 183.657 47.74 183.426 47.8442 183.151L50.641 183.336C50.499 184.008 50.208 184.594 49.7679 185.096C49.3325 185.593 48.7693 185.981 48.0784 186.26C47.3922 186.535 46.5995 186.672 45.7004 186.672ZM52.2985 186.459V175.556H55.2302V177.458H55.3438C55.5425 176.781 55.8761 176.27 56.3447 175.925C56.8132 175.575 57.3526 175.399 57.9631 175.399C58.1146 175.399 58.2778 175.409 58.4529 175.428C58.628 175.447 58.7818 175.473 58.9143 175.506V178.189C58.7724 178.147 58.576 178.109 58.3252 178.076C58.0743 178.042 57.8448 178.026 57.6366 178.026C57.1917 178.026 56.7942 178.123 56.444 178.317C56.0986 178.506 55.8241 178.771 55.6206 179.112C55.4218 179.453 55.3225 179.845 55.3225 180.29V186.459H52.2985ZM62.8948 186.665C62.1992 186.665 61.5792 186.544 61.035 186.303C60.4908 186.057 60.0601 185.695 59.7431 185.217C59.4307 184.734 59.2746 184.133 59.2746 183.414C59.2746 182.808 59.3858 182.299 59.6082 181.888C59.8306 181.476 60.1335 181.145 60.5168 180.894C60.9001 180.643 61.3355 180.454 61.8229 180.326C62.3151 180.198 62.8309 180.108 63.3704 180.056C64.0046 179.99 64.5157 179.928 64.9037 179.872C65.2918 179.81 65.5733 179.72 65.7484 179.602C65.9235 179.483 66.0111 179.308 66.0111 179.076V179.034C66.0111 178.584 65.8691 178.236 65.5852 177.99C65.306 177.744 64.9084 177.621 64.3926 177.621C63.8484 177.621 63.4154 177.742 63.0936 177.983C62.7718 178.22 62.5588 178.518 62.4547 178.878L59.6579 178.651C59.7998 177.988 60.0791 177.415 60.4955 176.933C60.912 176.445 61.4491 176.071 62.1069 175.811C62.7694 175.546 63.5361 175.414 64.4068 175.414C65.0126 175.414 65.5923 175.485 66.146 175.627C66.7044 175.769 67.1989 175.989 67.6296 176.287C68.0649 176.585 68.408 176.968 68.6589 177.437C68.9097 177.9 69.0351 178.457 69.0351 179.105V186.459H66.1673V184.947H66.0821C65.907 185.288 65.6727 185.588 65.3793 185.849C65.0859 186.104 64.7333 186.305 64.3216 186.452C63.9099 186.594 63.4343 186.665 62.8948 186.665ZM63.7608 184.578C64.2057 184.578 64.5985 184.49 64.9392 184.315C65.2799 184.135 65.5473 183.894 65.7413 183.591C65.9354 183.288 66.0324 182.945 66.0324 182.562V181.405C65.9377 181.466 65.8076 181.523 65.642 181.575C65.4811 181.622 65.2989 181.667 65.0954 181.71C64.8919 181.748 64.6884 181.783 64.4849 181.817C64.2814 181.845 64.0968 181.871 63.9312 181.895C63.5763 181.947 63.2663 182.029 63.0013 182.143C62.7363 182.257 62.5304 182.41 62.3837 182.604C62.237 182.794 62.1637 183.03 62.1637 183.314C62.1637 183.726 62.3127 184.041 62.6109 184.258C62.9137 184.471 63.2971 184.578 63.7608 184.578ZM76.8009 175.556V177.827H70.2347V175.556H76.8009ZM71.7254 172.943H74.7494V183.108C74.7494 183.388 74.792 183.605 74.8772 183.762C74.9623 183.913 75.0807 184.019 75.2321 184.081C75.3883 184.142 75.5681 184.173 75.7716 184.173C75.9136 184.173 76.0555 184.161 76.1975 184.138C76.3395 184.109 76.4483 184.088 76.524 184.074L76.9996 186.324C76.8482 186.371 76.6352 186.426 76.3608 186.487C76.0863 186.554 75.7527 186.594 75.3599 186.608C74.6311 186.636 73.9922 186.539 73.4433 186.317C72.899 186.095 72.4755 185.749 72.1726 185.281C71.8697 184.812 71.7207 184.221 71.7254 183.506V172.943ZM78.3909 186.459V175.556H81.4149V186.459H78.3909ZM79.91 174.15C79.4604 174.15 79.0747 174.001 78.7529 173.703C78.4359 173.4 78.2773 173.038 78.2773 172.617C78.2773 172.2 78.4359 171.843 78.7529 171.545C79.0747 171.242 79.4604 171.091 79.91 171.091C80.3596 171.091 80.7429 171.242 81.06 171.545C81.3818 171.843 81.5427 172.2 81.5427 172.617C81.5427 173.038 81.3818 173.4 81.06 173.703C80.7429 174.001 80.3596 174.15 79.91 174.15ZM88.3839 186.672C87.2812 186.672 86.3277 186.438 85.5232 185.969C84.7234 185.496 84.1058 184.838 83.6704 183.996C83.2351 183.149 83.0174 182.167 83.0174 181.05C83.0174 179.924 83.2351 178.939 83.6704 178.097C84.1058 177.25 84.7234 176.592 85.5232 176.123C86.3277 175.65 87.2812 175.414 88.3839 175.414C89.4865 175.414 90.4377 175.65 91.2375 176.123C92.042 176.592 92.662 177.25 93.0973 178.097C93.5327 178.939 93.7504 179.924 93.7504 181.05C93.7504 182.167 93.5327 183.149 93.0973 183.996C92.662 184.838 92.042 185.496 91.2375 185.969C90.4377 186.438 89.4865 186.672 88.3839 186.672ZM88.3981 184.329C88.8997 184.329 89.3185 184.187 89.6545 183.904C89.9905 183.615 90.2437 183.222 90.4141 182.725C90.5892 182.228 90.6767 181.663 90.6767 181.029C90.6767 180.394 90.5892 179.829 90.4141 179.332C90.2437 178.835 89.9905 178.442 89.6545 178.154C89.3185 177.865 88.8997 177.721 88.3981 177.721C87.8917 177.721 87.4658 177.865 87.1203 178.154C86.7796 178.442 86.5217 178.835 86.3466 179.332C86.1762 179.829 86.0911 180.394 86.0911 181.029C86.0911 181.663 86.1762 182.228 86.3466 182.725C86.5217 183.222 86.7796 183.615 87.1203 183.904C87.4658 184.187 87.8917 184.329 88.3981 184.329ZM98.3609 180.155V186.459H95.3369V175.556H98.2189V177.479H98.3467C98.588 176.845 98.9927 176.344 99.5605 175.974C100.128 175.601 100.817 175.414 101.626 175.414C102.383 175.414 103.044 175.579 103.607 175.911C104.17 176.242 104.608 176.715 104.92 177.33C105.232 177.941 105.388 178.669 105.388 179.517V186.459H102.364V180.056C102.369 179.389 102.199 178.868 101.853 178.494C101.508 178.116 101.032 177.927 100.427 177.927C100.02 177.927 99.6599 178.014 99.3476 178.189C99.04 178.364 98.7986 178.62 98.6235 178.956C98.4532 179.287 98.3656 179.687 98.3609 180.155ZM116.567 178.097V175.57H126.37V178.097H116.567ZM116.567 182.81V180.283H126.37V182.81H116.567ZM139.635 171.921V186.459H136.562V174.839H136.476L133.147 176.926V174.2L136.746 171.921H139.635ZM151.955 186.672C150.833 186.672 149.868 186.445 149.059 185.99C148.254 185.531 147.634 184.883 147.199 184.045C146.763 183.203 146.546 182.207 146.546 181.057C146.546 179.935 146.763 178.951 147.199 178.104C147.634 177.257 148.247 176.597 149.037 176.123C149.832 175.65 150.765 175.414 151.834 175.414C152.553 175.414 153.223 175.53 153.843 175.761C154.468 175.989 155.012 176.332 155.476 176.791C155.944 177.25 156.309 177.827 156.569 178.523C156.829 179.214 156.959 180.023 156.959 180.951V181.781H147.752V179.907H154.113C154.113 179.472 154.018 179.086 153.829 178.75C153.64 178.414 153.377 178.151 153.041 177.962C152.71 177.768 152.324 177.671 151.884 177.671C151.425 177.671 151.018 177.777 150.663 177.99C150.313 178.199 150.038 178.48 149.839 178.835C149.641 179.185 149.539 179.576 149.534 180.006V181.788C149.534 182.328 149.634 182.794 149.832 183.187C150.036 183.579 150.322 183.882 150.691 184.095C151.06 184.308 151.498 184.415 152.005 184.415C152.341 184.415 152.648 184.367 152.927 184.273C153.207 184.178 153.446 184.036 153.644 183.847C153.843 183.657 153.994 183.426 154.099 183.151L156.895 183.336C156.753 184.008 156.462 184.594 156.022 185.096C155.587 185.593 155.024 185.981 154.333 186.26C153.647 186.535 152.854 186.672 151.955 186.672ZM158.553 190.548V175.556H161.534V177.387H161.669C161.802 177.094 161.993 176.795 162.244 176.493C162.5 176.185 162.831 175.929 163.238 175.726C163.65 175.518 164.161 175.414 164.771 175.414C165.566 175.414 166.3 175.622 166.972 176.038C167.644 176.45 168.181 177.072 168.583 177.905C168.985 178.733 169.187 179.772 169.187 181.021C169.187 182.238 168.99 183.265 168.597 184.102C168.209 184.935 167.679 185.567 167.007 185.998C166.34 186.423 165.592 186.636 164.764 186.636C164.177 186.636 163.678 186.539 163.266 186.345C162.859 186.151 162.526 185.908 162.265 185.614C162.005 185.316 161.806 185.016 161.669 184.713H161.577V190.548H158.553ZM161.513 181.007C161.513 181.656 161.603 182.221 161.783 182.704C161.963 183.187 162.223 183.563 162.564 183.833C162.904 184.098 163.318 184.23 163.806 184.23C164.298 184.23 164.714 184.095 165.055 183.825C165.396 183.551 165.654 183.172 165.829 182.69C166.009 182.202 166.099 181.641 166.099 181.007C166.099 180.378 166.011 179.824 165.836 179.346C165.661 178.868 165.403 178.494 165.062 178.225C164.722 177.955 164.303 177.82 163.806 177.82C163.314 177.82 162.897 177.95 162.556 178.21C162.22 178.471 161.963 178.84 161.783 179.318C161.603 179.796 161.513 180.359 161.513 181.007ZM175.749 186.672C174.646 186.672 173.693 186.438 172.888 185.969C172.089 185.496 171.471 184.838 171.036 183.996C170.6 183.149 170.383 182.167 170.383 181.05C170.383 179.924 170.6 178.939 171.036 178.097C171.471 177.25 172.089 176.592 172.888 176.123C173.693 175.65 174.646 175.414 175.749 175.414C176.852 175.414 177.803 175.65 178.603 176.123C179.407 176.592 180.027 177.25 180.463 178.097C180.898 178.939 181.116 179.924 181.116 181.05C181.116 182.167 180.898 183.149 180.463 183.996C180.027 184.838 179.407 185.496 178.603 185.969C177.803 186.438 176.852 186.672 175.749 186.672ZM175.763 184.329C176.265 184.329 176.684 184.187 177.02 183.904C177.356 183.615 177.609 183.222 177.779 182.725C177.954 182.228 178.042 181.663 178.042 181.029C178.042 180.394 177.954 179.829 177.779 179.332C177.609 178.835 177.356 178.442 177.02 178.154C176.684 177.865 176.265 177.721 175.763 177.721C175.257 177.721 174.831 177.865 174.486 178.154C174.145 178.442 173.887 178.835 173.712 179.332C173.541 179.829 173.456 180.394 173.456 181.029C173.456 181.663 173.541 182.228 173.712 182.725C173.887 183.222 174.145 183.615 174.486 183.904C174.831 184.187 175.257 184.329 175.763 184.329ZM187.629 186.672C186.512 186.672 185.551 186.435 184.747 185.962C183.947 185.484 183.332 184.822 182.901 183.974C182.475 183.127 182.262 182.153 182.262 181.05C182.262 179.933 182.477 178.953 182.908 178.111C183.343 177.264 183.961 176.604 184.761 176.131C185.561 175.653 186.512 175.414 187.614 175.414C188.566 175.414 189.398 175.586 190.113 175.932C190.828 176.277 191.393 176.762 191.81 177.387C192.226 178.012 192.456 178.745 192.498 179.588H189.645C189.564 179.043 189.351 178.606 189.006 178.274C188.665 177.938 188.218 177.77 187.664 177.77C187.196 177.77 186.786 177.898 186.436 178.154C186.091 178.404 185.821 178.771 185.627 179.254C185.433 179.737 185.336 180.321 185.336 181.007C185.336 181.703 185.43 182.294 185.62 182.782C185.814 183.269 186.086 183.641 186.436 183.896C186.786 184.152 187.196 184.28 187.664 184.28C188.01 184.28 188.319 184.209 188.594 184.067C188.873 183.925 189.103 183.719 189.283 183.449C189.467 183.175 189.588 182.846 189.645 182.462H192.498C192.451 183.295 192.224 184.029 191.817 184.663C191.414 185.292 190.858 185.785 190.149 186.14C189.439 186.494 188.599 186.672 187.629 186.672ZM197.078 180.155V186.459H194.054V171.921H196.993V177.479H197.121C197.367 176.836 197.765 176.332 198.314 175.967C198.863 175.598 199.551 175.414 200.379 175.414C201.136 175.414 201.797 175.579 202.36 175.911C202.928 176.237 203.368 176.708 203.68 177.323C203.997 177.934 204.153 178.665 204.149 179.517V186.459H201.125V180.056C201.129 179.384 200.959 178.861 200.614 178.487C200.273 178.113 199.795 177.927 199.18 177.927C198.768 177.927 198.404 178.014 198.086 178.189C197.774 178.364 197.528 178.62 197.348 178.956C197.173 179.287 197.083 179.687 197.078 180.155Z" fill="black"/>
<path d="M31.2611 208.194C31.2611 206.994 31.4209 205.889 31.7403 204.879C32.063 203.869 32.555 202.933 33.2165 202.072H35.1863C34.9346 202.391 34.7007 202.782 34.4845 203.243C34.2683 203.701 34.0796 204.205 33.9183 204.753C33.7569 205.302 33.6311 205.87 33.5407 206.457C33.4504 207.041 33.4052 207.62 33.4052 208.194C33.4052 208.959 33.4827 209.732 33.6375 210.513C33.7956 211.29 34.0086 212.013 34.2764 212.681C34.5474 213.349 34.8508 213.896 35.1863 214.322H33.2165C32.555 213.46 32.063 212.525 31.7403 211.515C31.4209 210.505 31.2611 209.398 31.2611 208.194ZM44.501 200.747H46.3273V213.408H44.501V200.747ZM39.5263 201.633C41.4344 201.633 42.8382 203.377 42.8382 206.13C42.8382 208.911 41.4344 210.655 39.5263 210.655C37.6182 210.655 36.2144 208.911 36.2144 206.13C36.2144 203.377 37.6182 201.633 39.5263 201.633ZM39.5263 203.282C38.5859 203.282 37.9453 204.277 37.9453 206.13C37.9453 208.011 38.5859 209.02 39.5263 209.02C40.4667 209.02 41.0937 208.011 41.0937 206.13C41.0937 204.277 40.4667 203.282 39.5263 203.282ZM56.9162 200.747H58.7152V213.408H56.9162V200.747ZM54.7491 205.19H57.1206V206.662H54.7491V205.19ZM48.6977 209.088H49.7063C51.7916 209.088 53.3453 209.061 55.1307 208.774L55.2943 210.219C53.468 210.505 51.8324 210.56 49.7063 210.56H48.6977V209.088ZM48.6977 201.81H54.5447V203.282H50.4968V209.551H48.6977V201.81ZM50.0879 205.326H54.1085V206.744H50.0879V205.326ZM60.7449 208.951H61.6444C63.1709 208.951 64.5202 208.911 66.0876 208.638L66.2375 210.096C64.6156 210.396 63.2254 210.437 61.6444 210.437H60.7449V208.951ZM60.7313 202.001H65.188V206.825H62.5031V209.524H60.7449V205.408H63.4435V203.432H60.7313V202.001ZM69.5221 200.76H71.2394V213.381H69.5221V200.76ZM65.7059 205.054H67.6686V206.539H65.7059V205.054ZM66.9598 200.992H68.6362V212.781H66.9598V200.992ZM81.3376 200.747H83.1639V213.408H81.3376V200.747ZM76.3629 201.633C78.271 201.633 79.6748 203.377 79.6748 206.13C79.6748 208.911 78.271 210.655 76.3629 210.655C74.4548 210.655 73.051 208.911 73.051 206.13C73.051 203.377 74.4548 201.633 76.3629 201.633ZM76.3629 203.282C75.4225 203.282 74.7819 204.277 74.7819 206.13C74.7819 208.011 75.4225 209.02 76.3629 209.02C77.3034 209.02 77.9303 208.011 77.9303 206.13C77.9303 204.277 77.3034 203.282 76.3629 203.282ZM91.6266 202.396H94.1344V203.854H91.6266V202.396ZM91.6266 204.835H94.1344V206.28H91.6266V204.835ZM87.8513 201.483H89.3096V202.927C89.3096 205.544 88.2466 207.807 85.8614 208.693L84.8938 207.275C86.979 206.539 87.8513 204.767 87.8513 202.927V201.483ZM88.2329 201.483H89.6913V202.927C89.6913 204.658 90.509 206.389 92.4989 207.139L91.504 208.543C89.2688 207.657 88.2329 205.435 88.2329 202.927V201.483ZM93.7119 200.774H95.5246V210.11H93.7119V200.774ZM87.1699 211.718H95.7972V213.163H87.1699V211.718ZM87.1699 209.251H88.9962V212.631H87.1699V209.251ZM100.993 208.194C100.993 209.398 100.832 210.505 100.509 211.515C100.19 212.525 99.6996 213.46 99.0381 214.322H97.0683C97.32 214.002 97.5539 213.612 97.7701 213.15C97.9863 212.689 98.175 212.186 98.3364 211.64C98.4977 211.092 98.6235 210.524 98.7139 209.937C98.8042 209.35 98.8494 208.769 98.8494 208.194C98.8494 207.43 98.7703 206.659 98.6122 205.881C98.4574 205.1 98.2444 204.377 97.9734 203.713C97.7056 203.045 97.4039 202.498 97.0683 202.072H99.0381C99.6996 202.933 100.19 203.869 100.509 204.879C100.832 205.889 100.993 206.994 100.993 208.194Z" fill="black"/>
<path d="M153.016 208.194C153.016 206.994 153.176 205.889 153.495 204.879C153.818 203.869 154.31 202.933 154.971 202.072H156.941C156.69 202.391 156.456 202.782 156.239 203.243C156.023 203.701 155.834 204.205 155.673 204.753C155.512 205.302 155.386 205.87 155.296 206.457C155.205 207.041 155.16 207.62 155.16 208.194C155.16 208.959 155.238 209.732 155.392 210.513C155.551 211.29 155.763 212.013 156.031 212.681C156.302 213.349 156.606 213.896 156.941 214.322H154.971C154.31 213.46 153.818 212.525 153.495 211.515C153.176 210.505 153.016 209.398 153.016 208.194ZM162.644 205.408H164.716V206.866H162.644V205.408ZM166.719 200.76H168.45V213.381H166.719V200.76ZM164.143 200.951H165.847V212.809H164.143V200.951ZM160.436 201.646C162.113 201.646 163.189 203.377 163.189 206.226C163.189 209.088 162.113 210.819 160.436 210.819C158.773 210.819 157.71 209.088 157.71 206.226C157.71 203.377 158.773 201.646 160.436 201.646ZM160.436 203.35C159.755 203.35 159.359 204.304 159.359 206.226C159.359 208.161 159.755 209.101 160.436 209.101C161.145 209.101 161.54 208.161 161.54 206.226C161.54 204.304 161.145 203.35 160.436 203.35ZM170.875 201.169H180.279V202.614H170.875V201.169ZM170.971 204.658H180.184V206.076H170.971V204.658ZM172.483 201.728H174.296V205.462H172.483V201.728ZM176.858 201.728H178.671V205.462H176.858V201.728ZM169.88 207.152H181.288V208.583H169.88V207.152ZM174.664 205.735H176.477V207.643H174.664V205.735ZM171.148 209.442H179.911V213.381H178.099V210.873H171.148V209.442ZM185.912 208.194C185.912 209.398 185.75 210.505 185.428 211.515C185.108 212.525 184.618 213.46 183.956 214.322H181.987C182.238 214.002 182.472 213.612 182.688 213.15C182.905 212.689 183.093 212.186 183.255 211.64C183.416 211.092 183.542 210.524 183.632 209.937C183.722 209.35 183.768 208.769 183.768 208.194C183.768 207.43 183.689 206.659 183.53 205.881C183.376 205.1 183.163 204.377 182.892 203.713C182.624 203.045 182.322 202.498 181.987 202.072H183.956C184.618 202.933 185.108 203.869 185.428 204.879C185.75 205.889 185.912 206.994 185.912 208.194Z" fill="black"/>
</svg>
