<svg width="373" height="255" viewBox="0 0 373 255" fill="none" xmlns="http://www.w3.org/2000/svg">
<g filter="url(#filter0_d_2151_5814)">
<rect x="4" width="365" height="207" rx="17.7083" fill="#C0C0C0"/>
<path d="M40.2521 30.9325H38.1141C38.075 30.6559 37.9953 30.4102 37.8749 30.1954C37.7545 29.9774 37.5999 29.7919 37.4111 29.6389C37.2224 29.486 37.0044 29.3688 36.757 29.2875C36.513 29.2061 36.2477 29.1654 35.9614 29.1654C35.4439 29.1654 34.9932 29.294 34.6092 29.5511C34.2252 29.8049 33.9274 30.1759 33.7159 30.664C33.5044 31.1489 33.3986 31.7379 33.3986 32.4311C33.3986 33.1438 33.5044 33.7426 33.7159 34.2275C33.9307 34.7124 34.2301 35.0785 34.6141 35.3258C34.9981 35.5731 35.4423 35.6968 35.9467 35.6968C36.2298 35.6968 36.4918 35.6594 36.7326 35.5845C36.9767 35.5097 37.1931 35.4006 37.3819 35.2575C37.5706 35.111 37.7268 34.9337 37.8505 34.7254C37.9774 34.5171 38.0653 34.2795 38.1141 34.0127L40.2521 34.0225C40.1968 34.4813 40.0585 34.9239 39.8372 35.3502C39.6192 35.7733 39.3247 36.1524 38.9537 36.4876C38.5859 36.8195 38.1466 37.0831 37.6357 37.2784C37.128 37.4704 36.5536 37.5664 35.9125 37.5664C35.0209 37.5664 34.2236 37.3646 33.5206 36.9611C32.821 36.5575 32.2677 35.9734 31.861 35.2086C31.4574 34.4439 31.2557 33.518 31.2557 32.4311C31.2557 31.3409 31.4607 30.4135 31.8707 29.6487C32.2808 28.8839 32.8372 28.3014 33.5402 27.9011C34.2431 27.4976 35.0339 27.2958 35.9125 27.2958C36.4918 27.2958 37.0288 27.3772 37.5234 27.5399C38.0213 27.7026 38.4623 27.9402 38.8463 28.2526C39.2303 28.5618 39.5427 28.9409 39.7835 29.39C40.0276 29.8391 40.1838 30.3532 40.2521 30.9325ZM43.5471 27.4325V37.4297H41.4676V27.4325H43.5471ZM47.0897 37.5712C46.6114 37.5712 46.1851 37.4883 45.8108 37.3223C45.4366 37.1531 45.1404 36.9041 44.9224 36.5754C44.7076 36.2435 44.6002 35.8302 44.6002 35.3356C44.6002 34.919 44.6767 34.5692 44.8296 34.286C44.9826 34.0029 45.1909 33.7751 45.4545 33.6027C45.7181 33.4302 46.0175 33.3 46.3527 33.2121C46.6911 33.1243 47.0458 33.0624 47.4168 33.0266C47.8529 32.9811 48.2043 32.9388 48.4712 32.8997C48.738 32.8574 48.9317 32.7956 49.0521 32.7142C49.1725 32.6329 49.2327 32.5125 49.2327 32.353V32.3237C49.2327 32.0146 49.1351 31.7754 48.9398 31.6061C48.7478 31.4369 48.4744 31.3523 48.1197 31.3523C47.7455 31.3523 47.4477 31.4353 47.2264 31.6013C47.0051 31.764 46.8587 31.969 46.7871 32.2163L44.8638 32.0601C44.9614 31.6045 45.1534 31.2108 45.4398 30.8788C45.7262 30.5436 46.0956 30.2865 46.5479 30.1075C47.0035 29.9253 47.5307 29.8342 48.1295 29.8342C48.546 29.8342 48.9447 29.883 49.3254 29.9806C49.7094 30.0783 50.0495 30.2296 50.3457 30.4346C50.6451 30.6396 50.881 30.9032 51.0535 31.2254C51.2259 31.5443 51.3122 31.9267 51.3122 32.3725V37.4297H49.3401V36.3899H49.2815C49.1611 36.6243 49 36.8309 48.7982 37.0099C48.5965 37.1856 48.354 37.3239 48.0709 37.4248C47.7878 37.5224 47.4607 37.5712 47.0897 37.5712ZM47.6853 36.1361C47.9912 36.1361 48.2613 36.0759 48.4956 35.9555C48.7299 35.8318 48.9138 35.6659 49.0472 35.4576C49.1806 35.2493 49.2473 35.0134 49.2473 34.7498V33.9541C49.1823 33.9964 49.0928 34.0355 48.9789 34.0713C48.8682 34.1038 48.7429 34.1347 48.603 34.164C48.4631 34.19 48.3231 34.2145 48.1832 34.2372C48.0433 34.2568 47.9163 34.2747 47.8024 34.2909C47.5584 34.3267 47.3452 34.3837 47.163 34.4618C46.9807 34.5399 46.8392 34.6456 46.7383 34.7791C46.6374 34.9092 46.587 35.072 46.587 35.2672C46.587 35.5503 46.6895 35.7667 46.8945 35.9164C47.1028 36.0629 47.3664 36.1361 47.6853 36.1361ZM58.9028 32.0699L56.999 32.187C56.9665 32.0243 56.8965 31.8779 56.7891 31.7477C56.6817 31.6143 56.5402 31.5085 56.3644 31.4304C56.192 31.3491 55.9853 31.3084 55.7445 31.3084C55.4223 31.3084 55.1506 31.3767 54.9293 31.5134C54.708 31.6468 54.5974 31.8258 54.5974 32.0504C54.5974 32.2293 54.669 32.3807 54.8121 32.5043C54.9553 32.628 55.201 32.7272 55.5492 32.8021L56.9063 33.0755C57.6352 33.2252 58.1787 33.466 58.5367 33.7979C58.8946 34.1298 59.0736 34.5659 59.0736 35.1061C59.0736 35.5975 58.9288 36.0287 58.6392 36.3997C58.3528 36.7707 57.959 37.0603 57.4579 37.2686C56.96 37.4736 56.3856 37.5761 55.7347 37.5761C54.7422 37.5761 53.9514 37.3695 53.3624 36.9562C52.7766 36.5396 52.4333 35.9734 52.3324 35.2575L54.3777 35.1501C54.4395 35.4527 54.5892 35.6838 54.8268 35.8432C55.0643 35.9994 55.3686 36.0775 55.7396 36.0775C56.1041 36.0775 56.397 36.0076 56.6183 35.8676C56.8428 35.7244 56.9567 35.5406 56.96 35.316C56.9567 35.1273 56.877 34.9727 56.7208 34.8523C56.5646 34.7286 56.3238 34.6343 55.9983 34.5692L54.6999 34.3105C53.9677 34.164 53.4226 33.9102 53.0646 33.549C52.7099 33.1877 52.5325 32.7272 52.5325 32.1675C52.5325 31.6859 52.6627 31.271 52.923 30.9227C53.1866 30.5745 53.556 30.3061 54.0311 30.1173C54.5095 29.9286 55.0692 29.8342 55.7103 29.8342C56.6573 29.8342 57.4025 30.0343 57.946 30.4346C58.4927 30.8349 58.8117 31.38 58.9028 32.0699ZM66.3604 32.0699L64.4566 32.187C64.4241 32.0243 64.3541 31.8779 64.2467 31.7477C64.1393 31.6143 63.9977 31.5085 63.822 31.4304C63.6495 31.3491 63.4429 31.3084 63.2021 31.3084C62.8799 31.3084 62.6082 31.3767 62.3869 31.5134C62.1656 31.6468 62.0549 31.8258 62.0549 32.0504C62.0549 32.2293 62.1265 32.3807 62.2697 32.5043C62.4129 32.628 62.6586 32.7272 63.0068 32.8021L64.3639 33.0755C65.0928 33.2252 65.6363 33.466 65.9942 33.7979C66.3522 34.1298 66.5312 34.5659 66.5312 35.1061C66.5312 35.5975 66.3864 36.0287 66.0968 36.3997C65.8104 36.7707 65.4166 37.0603 64.9155 37.2686C64.4175 37.4736 63.8432 37.5761 63.1923 37.5761C62.1998 37.5761 61.409 37.3695 60.8199 36.9562C60.2342 36.5396 59.8908 35.9734 59.79 35.2575L61.8353 35.1501C61.8971 35.4527 62.0468 35.6838 62.2844 35.8432C62.5219 35.9994 62.8262 36.0775 63.1972 36.0775C63.5617 36.0775 63.8546 36.0076 64.0758 35.8676C64.3004 35.7244 64.4143 35.5406 64.4175 35.316C64.4143 35.1273 64.3346 34.9727 64.1784 34.8523C64.0222 34.7286 63.7813 34.6343 63.4559 34.5692L62.1574 34.3105C61.4252 34.164 60.8801 33.9102 60.5222 33.549C60.1675 33.1877 59.9901 32.7272 59.9901 32.1675C59.9901 31.6859 60.1203 31.271 60.3806 30.9227C60.6442 30.5745 61.0136 30.3061 61.4887 30.1173C61.9671 29.9286 62.5268 29.8342 63.1679 29.8342C64.1149 29.8342 64.8601 30.0343 65.4036 30.4346C65.9503 30.8349 66.2692 31.38 66.3604 32.0699ZM70.5388 27.4325H73.1455L75.8986 34.1494H76.0158L78.7689 27.4325H81.3756V37.4297H79.3254V30.9227H79.2424L76.6552 37.3809H75.2591L72.672 30.8983H72.589V37.4297H70.5388V27.4325ZM86.2045 37.5761C85.4463 37.5761 84.7905 37.415 84.2373 37.0929C83.6873 36.7674 83.2626 36.3151 82.9632 35.7358C82.6638 35.1533 82.5141 34.4781 82.5141 33.71C82.5141 32.9355 82.6638 32.2586 82.9632 31.6794C83.2626 31.0969 83.6873 30.6445 84.2373 30.3223C84.7905 29.9969 85.4463 29.8342 86.2045 29.8342C86.9628 29.8342 87.6169 29.9969 88.1668 30.3223C88.7201 30.6445 89.1464 31.0969 89.4458 31.6794C89.7452 32.2586 89.8949 32.9355 89.8949 33.71C89.8949 34.4781 89.7452 35.1533 89.4458 35.7358C89.1464 36.3151 88.7201 36.7674 88.1668 37.0929C87.6169 37.415 86.9628 37.5761 86.2045 37.5761ZM86.2143 35.9653C86.5592 35.9653 86.8472 35.8676 87.0783 35.6724C87.3093 35.4739 87.4834 35.2038 87.6006 34.8621C87.721 34.5204 87.7812 34.1315 87.7812 33.6954C87.7812 33.2593 87.721 32.8704 87.6006 32.5287C87.4834 32.187 87.3093 31.9169 87.0783 31.7184C86.8472 31.5199 86.5592 31.4207 86.2143 31.4207C85.8661 31.4207 85.5732 31.5199 85.3356 31.7184C85.1013 31.9169 84.9239 32.187 84.8035 32.5287C84.6864 32.8704 84.6278 33.2593 84.6278 33.6954C84.6278 34.1315 84.6864 34.5204 84.8035 34.8621C84.9239 35.2038 85.1013 35.4739 85.3356 35.6724C85.5732 35.8676 85.8661 35.9653 86.2143 35.9653ZM93.7487 37.5517C93.1792 37.5517 92.6634 37.4053 92.2013 37.1124C91.7425 36.8163 91.378 36.3818 91.1079 35.8091C90.841 35.233 90.7076 34.5269 90.7076 33.6905C90.7076 32.8314 90.8459 32.1171 91.1225 31.5476C91.3991 30.9748 91.7669 30.5469 92.2257 30.2638C92.6878 29.9774 93.1939 29.8342 93.7438 29.8342C94.1636 29.8342 94.5135 29.9058 94.7934 30.049C95.0765 30.1889 95.3043 30.3646 95.4768 30.5762C95.6525 30.7844 95.7859 30.9895 95.877 31.1912H95.9405V27.4325H98.0151V37.4297H95.9649V36.2289H95.877C95.7794 36.4371 95.6411 36.6438 95.4621 36.8488C95.2864 37.0506 95.0569 37.2182 94.7738 37.3516C94.494 37.485 94.1523 37.5517 93.7487 37.5517ZM94.4077 35.8969C94.7429 35.8969 95.026 35.8058 95.2571 35.6236C95.4914 35.4381 95.6704 35.1794 95.794 34.8474C95.921 34.5155 95.9844 34.1266 95.9844 33.6808C95.9844 33.2349 95.9226 32.8477 95.7989 32.519C95.6753 32.1903 95.4963 31.9365 95.262 31.7575C95.0277 31.5785 94.7429 31.489 94.4077 31.489C94.066 31.489 93.778 31.5817 93.5437 31.7672C93.3094 31.9527 93.132 32.2098 93.0116 32.5385C92.8912 32.8672 92.831 33.2479 92.831 33.6808C92.831 34.1168 92.8912 34.5025 93.0116 34.8377C93.1353 35.1696 93.3127 35.4299 93.5437 35.6187C93.778 35.8042 94.066 35.8969 94.4077 35.8969ZM102.881 37.5761C102.109 37.5761 101.445 37.4199 100.889 37.1075C100.336 36.7918 99.9095 36.346 99.6101 35.77C99.3107 35.1907 99.161 34.5057 99.161 33.7149C99.161 32.9437 99.3107 32.2668 99.6101 31.6843C99.9095 31.1017 100.331 30.6478 100.874 30.3223C101.421 29.9969 102.062 29.8342 102.798 29.8342C103.292 29.8342 103.753 29.9139 104.179 30.0734C104.609 30.2296 104.983 30.4655 105.302 30.7812C105.624 31.0969 105.875 31.4939 106.054 31.9723C106.233 32.4474 106.322 33.0039 106.322 33.6417V34.2128H99.9908V32.9241H104.365C104.365 32.6247 104.3 32.3595 104.169 32.1285C104.039 31.8974 103.859 31.7168 103.627 31.5866C103.4 31.4532 103.134 31.3865 102.832 31.3865C102.516 31.3865 102.236 31.4597 101.992 31.6061C101.751 31.7493 101.563 31.943 101.426 32.187C101.289 32.4279 101.219 32.6963 101.216 32.9925V34.2177C101.216 34.5887 101.284 34.9092 101.421 35.1794C101.561 35.4495 101.758 35.6577 102.012 35.8042C102.266 35.9506 102.567 36.0238 102.915 36.0238C103.146 36.0238 103.357 35.9913 103.549 35.9262C103.741 35.8611 103.906 35.7635 104.042 35.6333C104.179 35.5032 104.283 35.3437 104.355 35.1549L106.278 35.2819C106.18 35.744 105.98 36.1475 105.678 36.4925C105.378 36.8342 104.991 37.101 104.516 37.293C104.044 37.4818 103.499 37.5761 102.881 37.5761ZM109.497 27.4325V37.4297H107.418V27.4325H109.497ZM111.361 33.422C111.361 32.2114 111.522 31.0969 111.844 30.0783C112.17 29.0597 112.666 28.1159 113.333 27.247H115.32C115.066 27.5692 114.83 27.963 114.612 28.4283C114.394 28.8904 114.203 29.3981 114.041 29.9513C113.878 30.5046 113.751 31.0773 113.66 31.6696C113.569 32.2586 113.523 32.8428 113.523 33.422C113.523 34.1933 113.601 34.9727 113.758 35.7602C113.917 36.5445 114.132 37.2735 114.402 37.9471C114.675 38.6208 114.981 39.1724 115.32 39.6019H113.333C112.666 38.733 112.17 37.7893 111.844 36.7707C111.522 35.7521 111.361 34.6359 111.361 33.422ZM118.345 33.095V37.4297H116.265V29.9318H118.247V31.2547H118.335C118.501 30.8186 118.779 30.4737 119.17 30.2198C119.56 29.9627 120.034 29.8342 120.59 29.8342C121.111 29.8342 121.565 29.9481 121.952 30.1759C122.34 30.4037 122.641 30.7291 122.855 31.1522C123.07 31.572 123.178 32.0731 123.178 32.6557V37.4297H121.098V33.0266C121.101 32.5678 120.984 32.2098 120.747 31.9527C120.509 31.6924 120.182 31.5622 119.765 31.5622C119.486 31.5622 119.238 31.6224 119.023 31.7428C118.812 31.8632 118.646 32.039 118.526 32.27C118.408 32.4978 118.348 32.7728 118.345 33.095ZM126.635 33.095V37.4297H124.555V29.9318H126.537V31.2547H126.625C126.791 30.8186 127.069 30.4737 127.46 30.2198C127.85 29.9627 128.324 29.8342 128.88 29.8342C129.401 29.8342 129.855 29.9481 130.242 30.1759C130.629 30.4037 130.93 30.7291 131.145 31.1522C131.36 31.572 131.467 32.0731 131.467 32.6557V37.4297H129.388V33.0266C129.391 32.5678 129.274 32.2098 129.036 31.9527C128.799 31.6924 128.472 31.5622 128.055 31.5622C127.775 31.5622 127.528 31.6224 127.313 31.7428C127.102 31.8632 126.936 32.039 126.815 32.27C126.698 32.4978 126.638 32.7728 126.635 33.095ZM134.061 37.5566C133.738 37.5566 133.462 37.4427 133.231 37.2149C133.003 36.9839 132.889 36.7072 132.889 36.3851C132.889 36.0661 133.003 35.7928 133.231 35.565C133.462 35.3372 133.738 35.2233 134.061 35.2233C134.373 35.2233 134.646 35.3372 134.881 35.565C135.115 35.7928 135.232 36.0661 135.232 36.3851C135.232 36.5998 135.177 36.7967 135.066 36.9757C134.959 37.1514 134.817 37.293 134.642 37.4004C134.466 37.5045 134.272 37.5566 134.061 37.5566ZM136.717 27.4325H139.324L142.077 34.1494H142.194L144.947 27.4325H147.554V37.4297H145.504V30.9227H145.421L142.834 37.3809H141.438L138.851 30.8983H138.768V37.4297H136.717V27.4325ZM152.383 37.5761C151.625 37.5761 150.969 37.415 150.416 37.0929C149.866 36.7674 149.441 36.3151 149.142 35.7358C148.842 35.1533 148.693 34.4781 148.693 33.71C148.693 32.9355 148.842 32.2586 149.142 31.6794C149.441 31.0969 149.866 30.6445 150.416 30.3223C150.969 29.9969 151.625 29.8342 152.383 29.8342C153.141 29.8342 153.795 29.9969 154.345 30.3223C154.899 30.6445 155.325 31.0969 155.624 31.6794C155.924 32.2586 156.073 32.9355 156.073 33.71C156.073 34.4781 155.924 35.1533 155.624 35.7358C155.325 36.3151 154.899 36.7674 154.345 37.0929C153.795 37.415 153.141 37.5761 152.383 37.5761ZM152.393 35.9653C152.738 35.9653 153.026 35.8676 153.257 35.6724C153.488 35.4739 153.662 35.2038 153.779 34.8621C153.9 34.5204 153.96 34.1315 153.96 33.6954C153.96 33.2593 153.9 32.8704 153.779 32.5287C153.662 32.187 153.488 31.9169 153.257 31.7184C153.026 31.5199 152.738 31.4207 152.393 31.4207C152.045 31.4207 151.752 31.5199 151.514 31.7184C151.28 31.9169 151.102 32.187 150.982 32.5287C150.865 32.8704 150.806 33.2593 150.806 33.6954C150.806 34.1315 150.865 34.5204 150.982 34.8621C151.102 35.2038 151.28 35.4739 151.514 35.6724C151.752 35.8676 152.045 35.9653 152.393 35.9653ZM159.927 37.5517C159.358 37.5517 158.842 37.4053 158.38 37.1124C157.921 36.8163 157.557 36.3818 157.286 35.8091C157.02 35.233 156.886 34.5269 156.886 33.6905C156.886 32.8314 157.024 32.1171 157.301 31.5476C157.578 30.9748 157.945 30.5469 158.404 30.2638C158.866 29.9774 159.372 29.8342 159.922 29.8342C160.342 29.8342 160.692 29.9058 160.972 30.049C161.255 30.1889 161.483 30.3646 161.655 30.5762C161.831 30.7844 161.964 30.9895 162.056 31.1912H162.119V27.4325H164.194V37.4297H162.143V36.2289H162.056C161.958 36.4371 161.82 36.6438 161.641 36.8488C161.465 37.0506 161.235 37.2182 160.952 37.3516C160.672 37.485 160.331 37.5517 159.927 37.5517ZM160.586 35.8969C160.921 35.8969 161.205 35.8058 161.436 35.6236C161.67 35.4381 161.849 35.1794 161.973 34.8474C162.099 34.5155 162.163 34.1266 162.163 33.6808C162.163 33.2349 162.101 32.8477 161.977 32.519C161.854 32.1903 161.675 31.9365 161.44 31.7575C161.206 31.5785 160.921 31.489 160.586 31.489C160.245 31.489 159.957 31.5817 159.722 31.7672C159.488 31.9527 159.311 32.2098 159.19 32.5385C159.07 32.8672 159.01 33.2479 159.01 33.6808C159.01 34.1168 159.07 34.5025 159.19 34.8377C159.314 35.1696 159.491 35.4299 159.722 35.6187C159.957 35.8042 160.245 35.8969 160.586 35.8969ZM170.45 34.2372V29.9318H172.53V37.4297H170.533V36.0678H170.455C170.286 36.5071 170.005 36.8602 169.611 37.127C169.22 37.3939 168.743 37.5273 168.181 37.5273C167.679 37.5273 167.238 37.4134 166.858 37.1856C166.477 36.9578 166.179 36.634 165.964 36.2142C165.753 35.7944 165.645 35.2916 165.642 34.7059V29.9318H167.722V34.3349C167.725 34.7774 167.844 35.1273 168.078 35.3844C168.312 35.6415 168.626 35.77 169.02 35.77C169.271 35.77 169.505 35.7131 169.723 35.5992C169.941 35.482 170.117 35.3095 170.25 35.0817C170.387 34.8539 170.454 34.5724 170.45 34.2372ZM176.012 27.4325V37.4297H173.932V27.4325H176.012ZM180.833 37.5761C180.062 37.5761 179.398 37.4199 178.841 37.1075C178.288 36.7918 177.862 36.346 177.563 35.77C177.263 35.1907 177.113 34.5057 177.113 33.7149C177.113 32.9437 177.263 32.2668 177.563 31.6843C177.862 31.1017 178.283 30.6478 178.827 30.3223C179.374 29.9969 180.015 29.8342 180.75 29.8342C181.245 29.8342 181.705 29.9139 182.132 30.0734C182.561 30.2296 182.935 30.4655 183.254 30.7812C183.576 31.0969 183.827 31.4939 184.006 31.9723C184.185 32.4474 184.275 33.0039 184.275 33.6417V34.2128H177.943V32.9241H182.317C182.317 32.6247 182.252 32.3595 182.122 32.1285C181.992 31.8974 181.811 31.7168 181.58 31.5866C181.352 31.4532 181.087 31.3865 180.784 31.3865C180.469 31.3865 180.189 31.4597 179.945 31.6061C179.704 31.7493 179.515 31.943 179.378 32.187C179.242 32.4279 179.172 32.6963 179.169 32.9925V34.2177C179.169 34.5887 179.237 34.9092 179.374 35.1794C179.514 35.4495 179.71 35.6577 179.964 35.8042C180.218 35.9506 180.519 36.0238 180.867 36.0238C181.098 36.0238 181.31 35.9913 181.502 35.9262C181.694 35.8611 181.858 35.7635 181.995 35.6333C182.132 35.5032 182.236 35.3437 182.307 35.1549L184.231 35.2819C184.133 35.744 183.933 36.1475 183.63 36.4925C183.331 36.8342 182.944 37.101 182.468 37.293C181.997 37.4818 181.451 37.5761 180.833 37.5761ZM188.875 33.422C188.875 34.6359 188.713 35.7521 188.387 36.7707C188.065 37.7893 187.57 38.733 186.903 39.6019H184.916C185.17 39.2797 185.406 38.886 185.624 38.4206C185.842 37.9553 186.033 37.4476 186.195 36.8976C186.358 36.3444 186.485 35.7716 186.576 35.1794C186.667 34.5871 186.713 34.0013 186.713 33.422C186.713 32.6508 186.633 31.873 186.474 31.0887C186.317 30.3012 186.103 29.5722 185.829 28.9018C185.559 28.2282 185.255 27.6766 184.916 27.247H186.903C187.57 28.1159 188.065 29.0597 188.387 30.0783C188.713 31.0969 188.875 32.2114 188.875 33.422Z" fill="black"/>
<g filter="url(#filter1_d_2151_5814)">
<rect x="31" y="57" width="311" height="58" rx="5.90278" fill="#D9D9D9"/>
</g>
<path d="M44.1884 79.4619C43.6189 79.4619 43.1031 79.3154 42.641 79.0226C42.1822 78.7264 41.8177 78.292 41.5476 77.7192C41.2807 77.1432 41.1473 76.437 41.1473 75.6007C41.1473 74.7415 41.2856 74.0272 41.5622 73.4577C41.8388 72.885 42.2066 72.457 42.6654 72.1739C43.1275 71.8875 43.6336 71.7443 44.1836 71.7443C44.6034 71.7443 44.9532 71.8159 45.2331 71.9591C45.5162 72.0991 45.744 72.2748 45.9165 72.4863C46.0922 72.6946 46.2256 72.8996 46.3167 73.1014H46.3802V69.3427H48.4548V79.3398H46.4046V78.139H46.3167C46.2191 78.3473 46.0808 78.5539 45.9018 78.759C45.7261 78.9607 45.4967 79.1283 45.2135 79.2617C44.9337 79.3952 44.592 79.4619 44.1884 79.4619ZM44.8474 77.8071C45.1826 77.8071 45.4657 77.716 45.6968 77.5337C45.9311 77.3482 46.1101 77.0895 46.2337 76.7576C46.3607 76.4256 46.4241 76.0367 46.4241 75.5909C46.4241 75.1451 46.3623 74.7578 46.2386 74.4291C46.115 74.1004 45.936 73.8466 45.7017 73.6676C45.4674 73.4886 45.1826 73.3991 44.8474 73.3991C44.5057 73.3991 44.2177 73.4919 43.9834 73.6774C43.7491 73.8629 43.5717 74.12 43.4513 74.4487C43.3309 74.7773 43.2707 75.1581 43.2707 75.5909C43.2707 76.027 43.3309 76.4126 43.4513 76.7478C43.575 77.0797 43.7524 77.3401 43.9834 77.5288C44.2177 77.7143 44.5057 77.8071 44.8474 77.8071ZM53.3203 79.4863C52.5491 79.4863 51.8852 79.3301 51.3287 79.0177C50.7755 78.702 50.3492 78.2562 50.0498 77.6802C49.7504 77.1009 49.6007 76.4159 49.6007 75.6251C49.6007 74.8538 49.7504 74.1769 50.0498 73.5944C50.3492 73.0119 50.7706 72.5579 51.3141 72.2325C51.8608 71.9071 52.5019 71.7443 53.2374 71.7443C53.732 71.7443 54.1925 71.8241 54.6188 71.9835C55.0484 72.1397 55.4226 72.3757 55.7415 72.6913C56.0637 73.007 56.3143 73.404 56.4933 73.8824C56.6722 74.3575 56.7617 74.914 56.7617 75.5519V76.123H50.4305V74.8343H54.8043C54.8043 74.5349 54.7392 74.2697 54.609 74.0386C54.4789 73.8076 54.2982 73.6269 54.0672 73.4968C53.8394 73.3634 53.5742 73.2966 53.2715 73.2966C52.9559 73.2966 52.676 73.3699 52.4319 73.5163C52.1911 73.6595 52.0024 73.8531 51.8657 74.0972C51.729 74.338 51.659 74.6065 51.6558 74.9026V76.1279C51.6558 76.4989 51.7241 76.8194 51.8608 77.0895C52.0007 77.3596 52.1976 77.5679 52.4514 77.7143C52.7053 77.8608 53.0063 77.934 53.3545 77.934C53.5856 77.934 53.7971 77.9015 53.9891 77.8364C54.1811 77.7713 54.3454 77.6737 54.4821 77.5435C54.6188 77.4133 54.7229 77.2538 54.7945 77.0651L56.7178 77.192C56.6202 77.6541 56.42 78.0577 56.1174 78.4026C55.818 78.7443 55.4307 79.0112 54.9556 79.2032C54.4837 79.3919 53.9387 79.4863 53.3203 79.4863ZM61.8897 71.842V73.404H57.2621V71.842H61.8897ZM58.3213 79.3398V71.3001C58.3213 70.7567 58.4271 70.306 58.6386 69.948C58.8534 69.59 59.1463 69.3215 59.5173 69.1425C59.8883 68.9636 60.3097 68.8741 60.7816 68.8741C61.1005 68.8741 61.3918 68.8985 61.6554 68.9473C61.9222 68.9961 62.1207 69.04 62.2509 69.0791L61.8799 70.6411C61.7985 70.6151 61.6977 70.5907 61.5772 70.5679C61.4601 70.5451 61.3397 70.5338 61.216 70.5338C60.9101 70.5338 60.697 70.6053 60.5766 70.7485C60.4561 70.8885 60.3959 71.0854 60.3959 71.3392V79.3398H58.3213ZM65.8192 79.3398V71.842H67.8987V79.3398H65.8192ZM66.8638 70.8755C66.5546 70.8755 66.2894 70.7729 66.0681 70.5679C65.8501 70.3596 65.7411 70.1107 65.7411 69.8211C65.7411 69.5347 65.8501 69.289 66.0681 69.084C66.2894 68.8757 66.5546 68.7716 66.8638 68.7716C67.1729 68.7716 67.4365 68.8757 67.6546 69.084C67.8759 69.289 67.9865 69.5347 67.9865 69.8211C67.9865 70.1107 67.8759 70.3596 67.6546 70.5679C67.4365 70.7729 67.1729 70.8755 66.8638 70.8755ZM71.3828 75.0051V79.3398H69.3033V71.842H71.2851V73.1648H71.373C71.539 72.7288 71.8172 72.3838 72.2077 72.13C72.5982 71.8729 73.0717 71.7443 73.6282 71.7443C74.1489 71.7443 74.6029 71.8582 74.9901 72.086C75.3774 72.3138 75.6784 72.6393 75.8932 73.0623C76.108 73.4821 76.2154 73.9833 76.2154 74.5658V79.3398H74.1359V74.9368C74.1391 74.4779 74.022 74.12 73.7844 73.8629C73.5469 73.6025 73.2198 73.4724 72.8032 73.4724C72.5234 73.4724 72.2761 73.5326 72.0613 73.653C71.8497 73.7734 71.6838 73.9491 71.5634 74.1802C71.4462 74.408 71.386 74.683 71.3828 75.0051ZM77.5931 79.3398V71.842H79.6726V79.3398H77.5931ZM78.6378 70.8755C78.3286 70.8755 78.0634 70.7729 77.8421 70.5679C77.624 70.3596 77.515 70.1107 77.515 69.8211C77.515 69.5347 77.624 69.289 77.8421 69.084C78.0634 68.8757 78.3286 68.7716 78.6378 68.7716C78.9469 68.7716 79.2105 68.8757 79.4285 69.084C79.6498 69.289 79.7605 69.5347 79.7605 69.8211C79.7605 70.1107 79.6498 70.3596 79.4285 70.5679C79.2105 70.7729 78.9469 70.8755 78.6378 70.8755ZM85.0653 71.842V73.404H80.55V71.842H85.0653ZM81.5751 70.0456H83.6546V77.0358C83.6546 77.2278 83.6839 77.3775 83.7425 77.4849C83.8011 77.589 83.8824 77.6623 83.9866 77.7046C84.0939 77.7469 84.2176 77.768 84.3575 77.768C84.4552 77.768 84.5528 77.7599 84.6504 77.7436C84.7481 77.7241 84.8229 77.7094 84.875 77.6997L85.202 79.2471C85.0979 79.2796 84.9514 79.3171 84.7627 79.3594C84.5739 79.4049 84.3445 79.4326 84.0744 79.4424C83.5733 79.4619 83.1339 79.3952 82.7564 79.2422C82.3822 79.0893 82.0909 78.8517 81.8827 78.5295C81.6744 78.2074 81.5719 77.8006 81.5751 77.3092V70.0456ZM86.6176 75.3322C86.6176 74.1216 86.7787 73.007 87.1009 71.9884C87.4263 70.9698 87.9226 70.0261 88.5897 69.1572H90.5765C90.3226 69.4794 90.0867 69.8731 89.8687 70.3385C89.6506 70.8006 89.4602 71.3083 89.2975 71.8615C89.1348 72.4147 89.0079 72.9875 88.9168 73.5798C88.8257 74.1688 88.7801 74.7529 88.7801 75.3322C88.7801 76.1035 88.8582 76.8829 89.0144 77.6704C89.1739 78.4547 89.3886 79.1836 89.6588 79.8573C89.9321 80.5309 90.238 81.0825 90.5765 81.5121H88.5897C87.9226 80.6432 87.4263 79.6994 87.1009 78.6809C86.7787 77.6623 86.6176 76.546 86.6176 75.3322ZM97.7607 73.98L95.8569 74.0972C95.8244 73.9345 95.7544 73.788 95.647 73.6579C95.5396 73.5244 95.3981 73.4187 95.2223 73.3406C95.0499 73.2592 94.8432 73.2185 94.6024 73.2185C94.2802 73.2185 94.0085 73.2869 93.7872 73.4236C93.5659 73.557 93.4553 73.736 93.4553 73.9605C93.4553 74.1395 93.5269 74.2908 93.67 74.4145C93.8132 74.5381 94.0589 74.6374 94.4071 74.7123L95.7642 74.9856C96.4931 75.1353 97.0366 75.3761 97.3946 75.7081C97.7525 76.04 97.9315 76.4761 97.9315 77.0163C97.9315 77.5077 97.7867 77.9389 97.4971 78.3099C97.2107 78.6809 96.8169 78.9705 96.3158 79.1788C95.8179 79.3838 95.2435 79.4863 94.5926 79.4863C93.6001 79.4863 92.8093 79.2796 92.2203 78.8663C91.6345 78.4498 91.2912 77.8836 91.1903 77.1676L93.2356 77.0602C93.2974 77.3629 93.4471 77.5939 93.6847 77.7534C93.9222 77.9096 94.2265 77.9877 94.5975 77.9877C94.962 77.9877 95.2549 77.9177 95.4762 77.7778C95.7007 77.6346 95.8146 77.4507 95.8179 77.2262C95.8146 77.0374 95.7349 76.8829 95.5787 76.7625C95.4225 76.6388 95.1817 76.5444 94.8562 76.4793L93.5578 76.2206C92.8256 76.0742 92.2805 75.8203 91.9225 75.4591C91.5678 75.0979 91.3904 74.6374 91.3904 74.0777C91.3904 73.596 91.5206 73.1811 91.7809 72.8329C92.0445 72.4847 92.4139 72.2162 92.889 72.0275C93.3674 71.8387 93.9271 71.7443 94.5682 71.7443C95.5152 71.7443 96.2605 71.9445 96.8039 72.3448C97.3506 72.745 97.6696 73.2901 97.7607 73.98ZM102.397 79.4863C101.626 79.4863 100.962 79.3301 100.405 79.0177C99.8519 78.702 99.4256 78.2562 99.1262 77.6802C98.8268 77.1009 98.6771 76.4159 98.6771 75.6251C98.6771 74.8538 98.8268 74.1769 99.1262 73.5944C99.4256 73.0119 99.8471 72.5579 100.391 72.2325C100.937 71.9071 101.578 71.7443 102.314 71.7443C102.808 71.7443 103.269 71.8241 103.695 71.9835C104.125 72.1397 104.499 72.3757 104.818 72.6913C105.14 73.007 105.391 73.404 105.57 73.8824C105.749 74.3575 105.838 74.914 105.838 75.5519V76.123H99.507V74.8343H103.881C103.881 74.5349 103.816 74.2697 103.685 74.0386C103.555 73.8076 103.375 73.6269 103.144 73.4968C102.916 73.3634 102.651 73.2966 102.348 73.2966C102.032 73.2966 101.752 73.3699 101.508 73.5163C101.268 73.6595 101.079 73.8531 100.942 74.0972C100.805 74.338 100.735 74.6065 100.732 74.9026V76.1279C100.732 76.4989 100.801 76.8194 100.937 77.0895C101.077 77.3596 101.274 77.5679 101.528 77.7143C101.782 77.8608 102.083 77.934 102.431 77.934C102.662 77.934 102.874 77.9015 103.066 77.8364C103.258 77.7713 103.422 77.6737 103.559 77.5435C103.695 77.4133 103.799 77.2538 103.871 77.0651L105.794 77.192C105.697 77.6541 105.496 78.0577 105.194 78.4026C104.894 78.7443 104.507 79.0112 104.032 79.2032C103.56 79.3919 103.015 79.4863 102.397 79.4863ZM109.014 69.3427V79.3398H106.934V69.3427H109.014ZM114.45 71.842V73.404H109.823V71.842H114.45ZM110.882 79.3398V71.3001C110.882 70.7567 110.988 70.306 111.199 69.948C111.414 69.59 111.707 69.3215 112.078 69.1425C112.449 68.9636 112.87 68.8741 113.342 68.8741C113.661 68.8741 113.952 68.8985 114.216 68.9473C114.483 68.9961 114.681 69.04 114.811 69.0791L114.44 70.6411C114.359 70.6151 114.258 70.5907 114.138 70.5679C114.021 70.5451 113.9 70.5338 113.777 70.5338C113.471 70.5338 113.258 70.6053 113.137 70.7485C113.017 70.8885 112.956 71.0854 112.956 71.3392V79.3398H110.882ZM118.964 75.3322C118.964 76.546 118.802 77.6623 118.476 78.6809C118.154 79.6994 117.659 80.6432 116.992 81.5121H115.005C115.259 81.1899 115.495 80.7961 115.713 80.3308C115.931 79.8654 116.122 79.3577 116.284 78.8078C116.447 78.2545 116.574 77.6818 116.665 77.0895C116.756 76.4972 116.802 75.9115 116.802 75.3322C116.802 74.5609 116.722 73.7832 116.563 72.9989C116.406 72.2113 116.192 71.4824 115.918 70.812C115.648 70.1384 115.344 69.5868 115.005 69.1572H116.992C117.659 70.0261 118.154 70.9698 118.476 71.9884C118.802 73.007 118.964 74.1216 118.964 75.3322Z" fill="black"/>
<g filter="url(#filter2_d_2151_5814)">
<rect x="31" y="128" width="311" height="58" rx="5.90278" fill="#D9D9D9"/>
</g>
<path d="M203.439 78.5281H213.969V79.8851H203.439V78.5281ZM207.85 75.9521H209.521V78.8422H207.85V75.9521ZM204.532 70.4484H212.813V76.1657H204.532V70.4484ZM211.179 71.7804H206.178V74.8464H211.179V71.7804ZM223.153 69.594H224.749V75.6757H223.153V69.594ZM219.082 72.0317H221.57V73.2882H219.082V72.0317ZM220.841 69.795H222.399V75.6129H220.841V69.795ZM215.237 74.0799H216.029C217.813 74.0799 218.818 74.0673 220.05 73.8663L220.15 75.1731C218.906 75.3867 217.851 75.3993 216.029 75.3993H215.237V74.0799ZM215.237 70.1469H219.736V71.4537H216.883V74.9595H215.237V70.1469ZM216.758 76.0652H224.749V79.1563H218.429V80.5888H216.77V77.9501H223.091V77.3469H216.758V76.0652ZM216.77 79.8098H225.076V81.104H216.77V79.8098ZM230.717 73.8788H232.627V75.2233H230.717V73.8788ZM234.474 69.594H236.07V81.2297H234.474V69.594ZM232.099 69.7699H233.67V80.7019H232.099V69.7699ZM228.681 70.4107C230.227 70.4107 231.219 72.0066 231.219 74.6328C231.219 77.2715 230.227 78.8673 228.681 78.8673C227.148 78.8673 226.168 77.2715 226.168 74.6328C226.168 72.0066 227.148 70.4107 228.681 70.4107ZM228.681 71.9814C228.053 71.9814 227.689 72.861 227.689 74.6328C227.689 76.4171 228.053 77.2841 228.681 77.2841C229.335 77.2841 229.699 76.4171 229.699 74.6328C229.699 72.861 229.335 71.9814 228.681 71.9814ZM242.671 70.4861H244.028V72.1825C244.028 75.06 243.023 77.7616 240.824 78.8422L239.819 77.4977C241.779 76.5804 242.671 74.3437 242.671 72.1825V70.4861ZM243.011 70.4861H244.342V72.1825C244.342 74.2684 245.172 76.3919 247.032 77.2966L246.026 78.6286C243.928 77.5605 243.011 74.972 243.011 72.1825V70.4861ZM247.496 69.594H249.18V81.2297H247.496V69.594ZM248.803 74.0673H250.864V75.4621H248.803V74.0673ZM253.741 73.4893H255.412V75.6254H253.741V73.4893ZM257.837 73.4893H259.496V75.6254H257.837V73.4893ZM251.378 75.1102H261.896V76.4296H251.378V75.1102ZM256.618 77.0202C259.131 77.0202 260.652 77.7741 260.652 79.1187C260.652 80.4757 259.131 81.2297 256.618 81.2297C254.092 81.2297 252.572 80.4757 252.572 79.1187C252.572 77.7741 254.092 77.0202 256.618 77.0202ZM256.618 78.2768C255.06 78.2768 254.268 78.5406 254.268 79.1187C254.268 79.7092 255.06 79.9731 256.618 79.9731C258.176 79.9731 258.968 79.7092 258.968 79.1187C258.968 78.5406 258.176 78.2768 256.618 78.2768ZM256.643 69.7573C259.207 69.7573 260.853 70.6118 260.853 72.0066C260.853 73.3888 259.207 74.2181 256.643 74.2181C254.067 74.2181 252.434 73.3888 252.434 72.0066C252.434 70.6118 254.067 69.7573 256.643 69.7573ZM256.643 71.039C255.047 71.039 254.155 71.3531 254.155 72.0066C254.155 72.6474 255.047 72.9615 256.643 72.9615C258.239 72.9615 259.131 72.6474 259.131 72.0066C259.131 71.3531 258.239 71.039 256.643 71.039ZM270.188 69.5814H271.859V75.8642H270.188V69.5814ZM271.193 72.0694H273.405V73.4265H271.193V72.0694ZM264.169 76.3291H271.859V79.282H265.853V80.3375H264.194V78.1511H270.213V77.5354H264.169V76.3291ZM264.194 79.9228H272.198V81.1543H264.194V79.9228ZM262.699 70.4484H269.547V71.705H262.699V70.4484ZM266.129 71.9814C267.851 71.9814 268.982 72.7228 268.982 73.8914C268.982 75.06 267.851 75.7762 266.129 75.7762C264.395 75.7762 263.264 75.06 263.264 73.8914C263.264 72.7228 264.395 71.9814 266.129 71.9814ZM266.129 73.15C265.35 73.15 264.873 73.4013 264.873 73.8914C264.873 74.3563 265.35 74.6076 266.129 74.6076C266.908 74.6076 267.386 74.3563 267.386 73.8914C267.386 73.4013 266.908 73.15 266.129 73.15ZM265.287 69.506H266.958V71.3406H265.287V69.506ZM284.681 69.6065H286.364V77.9626H284.681V69.6065ZM278.611 79.6967H286.653V81.0286H278.611V79.6967ZM278.611 77.1207H280.283V80.237H278.611V77.1207ZM280.031 70.3353C281.816 70.3353 283.185 71.5668 283.185 73.2882C283.185 74.9972 281.816 76.2411 280.031 76.2411C278.247 76.2411 276.865 74.9972 276.865 73.2882C276.865 71.5668 278.247 70.3353 280.031 70.3353ZM280.031 71.7804C279.164 71.7804 278.498 72.3333 278.498 73.2882C278.498 74.2307 279.164 74.7835 280.031 74.7835C280.886 74.7835 281.552 74.2307 281.552 73.2882C281.552 72.3333 280.886 71.7804 280.031 71.7804ZM293.212 76.8317C295.725 76.8317 297.333 77.661 297.333 79.0433C297.333 80.4003 295.725 81.2297 293.212 81.2297C290.698 81.2297 289.09 80.4003 289.09 79.0433C289.09 77.661 290.698 76.8317 293.212 76.8317ZM293.212 78.0883C291.641 78.0883 290.749 78.415 290.749 79.0433C290.749 79.659 291.641 79.9731 293.212 79.9731C294.782 79.9731 295.674 79.659 295.674 79.0433C295.674 78.415 294.782 78.0883 293.212 78.0883ZM289.216 70.1092H296.579V71.4285H289.216V70.1092ZM288.035 74.7835H298.514V76.1155H288.035V74.7835ZM291.917 72.7605H293.576V75.1228H291.917V72.7605ZM295.612 70.1092H297.27V71.0641C297.27 71.9814 297.27 72.9741 296.956 74.1804L295.297 74.0045C295.612 72.8108 295.612 71.9689 295.612 71.0641V70.1092ZM307.322 69.6065H309.005V78.0883H307.322V69.6065ZM301.252 79.6967H309.294V81.0286H301.252V79.6967ZM301.252 77.2715H302.924V80.3878H301.252V77.2715ZM302.057 70.2348H303.439V71.3657C303.439 73.6401 302.396 75.7385 300.134 76.5301L299.292 75.1982C301.24 74.5322 302.057 72.9113 302.057 71.3657V70.2348ZM302.396 70.2348H303.766V71.3657C303.766 72.8861 304.557 74.3814 306.467 74.9972L305.613 76.3291C303.414 75.5877 302.396 73.6149 302.396 71.3657V70.2348ZM316.255 71.4285H318.981V72.7605H316.255V71.4285ZM316.167 73.8411H318.894V75.1731H316.167V73.8411ZM318.718 69.594H320.389V76.2914H318.718V69.594ZM314.923 70.3856H316.707C316.707 73.5521 314.923 75.5877 311.392 76.5553L310.738 75.2359C313.691 74.4694 314.923 73.0118 314.923 71.1898V70.3856ZM311.379 70.3856H316.091V71.7175H311.379V70.3856ZM316.531 76.4422C318.894 76.4422 320.464 77.3469 320.464 78.8045C320.464 80.2621 318.894 81.1794 316.531 81.1794C314.169 81.1794 312.598 80.2621 312.598 78.8045C312.598 77.3469 314.169 76.4422 316.531 76.4422ZM316.531 77.7239C315.111 77.7239 314.257 78.0883 314.257 78.8045C314.257 79.5207 315.111 79.8726 316.531 79.8726C317.964 79.8726 318.818 79.5207 318.818 78.8045C318.818 78.0883 317.964 77.7239 316.531 77.7239ZM322.31 70.4233H327.852V75.638H322.31V70.4233ZM326.206 71.7427H323.956V74.3186H326.206V71.7427ZM329.46 69.594H331.131V76.3417H329.46V69.594ZM330.666 72.195H332.677V73.5647H330.666V72.195ZM327.337 76.6432C329.737 76.6432 331.27 77.5103 331.27 78.9427C331.27 80.3878 329.737 81.2422 327.337 81.2422C324.924 81.2422 323.391 80.3878 323.391 78.9427C323.391 77.5103 324.924 76.6432 327.337 76.6432ZM327.337 77.9626C325.854 77.9626 325.05 78.2768 325.05 78.9427C325.05 79.6213 325.854 79.9354 327.337 79.9354C328.819 79.9354 329.611 79.6213 329.611 78.9427C329.611 78.2768 328.819 77.9626 327.337 77.9626Z" fill="black"/>
<path d="M272.358 139.896H273.791V140.26C273.791 142.409 272.069 144.231 269.104 144.683L268.476 143.376C271.052 143.012 272.358 141.579 272.358 140.26V139.896ZM272.635 139.896H274.067V140.26C274.067 141.542 275.374 142.987 277.938 143.339L277.322 144.645C274.356 144.206 272.635 142.384 272.635 140.26V139.896ZM267.948 145.311H278.478V146.643H267.948V145.311ZM272.509 146.153H274.193V148.603H272.509V146.153ZM269.167 149.697H277.322V151.029H269.167V149.697ZM269.167 147.623H270.825V150.111H269.167V147.623ZM285.501 142.597H288.215V143.942H285.501V142.597ZM287.336 139.607H289.007V148.088H287.336V139.607ZM281.329 149.697H289.271V151.029H281.329V149.697ZM281.329 147.372H283V150.488H281.329V147.372ZM281.958 141.127H283.315V141.856C283.315 144.042 282.284 146.065 280.048 146.807L279.206 145.475C281.128 144.846 281.958 143.326 281.958 141.856V141.127ZM282.309 141.127H283.654V141.856C283.654 143.213 284.446 144.658 286.28 145.274L285.463 146.58C283.302 145.864 282.309 143.929 282.309 141.856V141.127ZM279.658 140.386H285.916V141.705H279.658V140.386ZM290.74 140.662H297.161V141.994H290.74V140.662ZM290.614 148.578L290.438 147.209C292.461 147.209 295.201 147.184 297.5 146.895L297.588 148.113C295.238 148.528 292.6 148.578 290.614 148.578ZM291.733 141.705H293.353V147.573H291.733V141.705ZM294.547 141.705H296.168V147.573H294.547V141.705ZM298.028 139.594H299.712V151.23H298.028V139.594ZM299.335 144.004H301.395V145.374H299.335V144.004ZM305.785 140.273H313.086V141.592H305.785V140.273ZM304.592 145.223H315.109V146.568H304.592V145.223ZM308.952 146.166H310.636V151.242H308.952V146.166ZM312.232 140.273H313.878V141.303C313.878 142.559 313.878 143.967 313.425 146.028L311.779 145.839C312.232 143.891 312.232 142.509 312.232 141.303V140.273ZM315.912 148.528H326.442V149.885H315.912V148.528ZM320.335 145.952H322.007V148.905H320.335V145.952ZM320.285 141.114H321.692V141.529C321.692 143.979 319.933 145.927 316.968 146.467L316.314 145.148C318.903 144.746 320.285 143.137 320.285 141.529V141.114ZM320.624 141.114H322.032V141.529C322.032 143.137 323.414 144.696 326.065 145.085L325.424 146.404C322.409 145.877 320.624 143.979 320.624 141.529V141.114ZM316.779 140.474H325.537V141.806H316.779V140.474Z" fill="black"/>
<path d="M41.4189 151.233C40.8494 151.233 40.3336 151.087 39.8715 150.794C39.4126 150.498 39.0482 150.063 38.778 149.491C38.5112 148.915 38.3778 148.209 38.3778 147.372C38.3778 146.513 38.5161 145.799 38.7927 145.229C39.0693 144.656 39.437 144.229 39.8959 143.945C40.358 143.659 40.864 143.516 41.414 143.516C41.8338 143.516 42.1837 143.587 42.4635 143.731C42.7466 143.871 42.9744 144.046 43.1469 144.258C43.3227 144.466 43.4561 144.671 43.5472 144.873H43.6107V141.114H45.6853V151.111H43.6351V149.91H43.5472C43.4496 150.119 43.3113 150.325 43.1323 150.53C42.9565 150.732 42.7271 150.9 42.444 151.033C42.1641 151.167 41.8224 151.233 41.4189 151.233ZM42.0779 149.579C42.4131 149.579 42.6962 149.487 42.9273 149.305C43.1616 149.12 43.3406 148.861 43.4642 148.529C43.5911 148.197 43.6546 147.808 43.6546 147.362C43.6546 146.917 43.5928 146.529 43.4691 146.201C43.3454 145.872 43.1665 145.618 42.9321 145.439C42.6978 145.26 42.4131 145.171 42.0779 145.171C41.7362 145.171 41.4482 145.263 41.2139 145.449C40.9796 145.634 40.8022 145.891 40.6818 146.22C40.5614 146.549 40.5012 146.93 40.5012 147.362C40.5012 147.798 40.5614 148.184 40.6818 148.519C40.8055 148.851 40.9828 149.112 41.2139 149.3C41.4482 149.486 41.7362 149.579 42.0779 149.579ZM50.5508 151.258C49.7795 151.258 49.1157 151.102 48.5592 150.789C48.006 150.473 47.5796 150.028 47.2803 149.452C46.9809 148.872 46.8312 148.187 46.8312 147.397C46.8312 146.625 46.9809 145.948 47.2803 145.366C47.5796 144.783 48.0011 144.329 48.5445 144.004C49.0913 143.679 49.7324 143.516 50.4678 143.516C50.9625 143.516 51.423 143.596 51.8493 143.755C52.2788 143.911 52.6531 144.147 52.972 144.463C53.2942 144.778 53.5447 145.176 53.7237 145.654C53.9027 146.129 53.9922 146.686 53.9922 147.323V147.894H47.661V146.606H52.0348C52.0348 146.306 51.9697 146.041 51.8395 145.81C51.7093 145.579 51.5287 145.398 51.2977 145.268C51.0699 145.135 50.8046 145.068 50.502 145.068C50.1863 145.068 49.9065 145.141 49.6624 145.288C49.4216 145.431 49.2328 145.625 49.0961 145.869C48.9595 146.109 48.8895 146.378 48.8862 146.674V147.899C48.8862 148.27 48.9546 148.591 49.0913 148.861C49.2312 149.131 49.4281 149.339 49.6819 149.486C49.9357 149.632 50.2368 149.705 50.585 149.705C50.816 149.705 51.0276 149.673 51.2196 149.608C51.4116 149.543 51.5759 149.445 51.7126 149.315C51.8493 149.185 51.9534 149.025 52.025 148.837L53.9483 148.964C53.8506 149.426 53.6505 149.829 53.3479 150.174C53.0485 150.516 52.6612 150.783 52.1861 150.975C51.7142 151.163 51.1691 151.258 50.5508 151.258ZM59.1201 143.613V145.176H54.4925V143.613H59.1201ZM55.5518 151.111V143.072C55.5518 142.528 55.6576 142.077 55.8691 141.719C56.0839 141.361 56.3768 141.093 56.7478 140.914C57.1187 140.735 57.5402 140.646 58.012 140.646C58.331 140.646 58.6222 140.67 58.8858 140.719C59.1527 140.768 59.3512 140.812 59.4814 140.851L59.1104 142.413C59.029 142.387 58.9281 142.362 58.8077 142.339C58.6906 142.317 58.5702 142.305 58.4465 142.305C58.1406 142.305 57.9274 142.377 57.807 142.52C57.6866 142.66 57.6264 142.857 57.6264 143.111V151.111H55.5518ZM67.0817 143.613V145.176H62.4541V143.613H67.0817ZM63.5134 151.111V143.072C63.5134 142.528 63.6191 142.077 63.8307 141.719C64.0454 141.361 64.3383 141.093 64.7093 140.914C65.0803 140.735 65.5017 140.646 65.9736 140.646C66.2925 140.646 66.5838 140.67 66.8474 140.719C67.1142 140.768 67.3127 140.812 67.4429 140.851L67.0719 142.413C66.9906 142.387 66.8897 142.362 66.7693 142.339C66.6521 142.317 66.5317 142.305 66.4081 142.305C66.1022 142.305 65.889 142.377 65.7686 142.52C65.6482 142.66 65.588 142.857 65.588 143.111V151.111H63.5134ZM71.2101 151.258C70.4519 151.258 69.7962 151.097 69.2429 150.775C68.693 150.449 68.2683 149.997 67.9689 149.417C67.6695 148.835 67.5198 148.16 67.5198 147.392C67.5198 146.617 67.6695 145.94 67.9689 145.361C68.2683 144.778 68.693 144.326 69.2429 144.004C69.7962 143.679 70.4519 143.516 71.2101 143.516C71.9684 143.516 72.6225 143.679 73.1725 144.004C73.7257 144.326 74.152 144.778 74.4514 145.361C74.7508 145.94 74.9005 146.617 74.9005 147.392C74.9005 148.16 74.7508 148.835 74.4514 149.417C74.152 149.997 73.7257 150.449 73.1725 150.775C72.6225 151.097 71.9684 151.258 71.2101 151.258ZM71.2199 149.647C71.5649 149.647 71.8529 149.549 72.0839 149.354C72.315 149.156 72.4891 148.885 72.6062 148.544C72.7266 148.202 72.7868 147.813 72.7868 147.377C72.7868 146.941 72.7266 146.552 72.6062 146.21C72.4891 145.869 72.315 145.599 72.0839 145.4C71.8529 145.202 71.5649 145.102 71.2199 145.102C70.8717 145.102 70.5788 145.202 70.3412 145.4C70.1069 145.599 69.9296 145.869 69.8092 146.21C69.692 146.552 69.6334 146.941 69.6334 147.377C69.6334 147.813 69.692 148.202 69.8092 148.544C69.9296 148.885 70.1069 149.156 70.3412 149.354C70.5788 149.549 70.8717 149.647 71.2199 149.647ZM75.9915 151.111V143.613H78.0075V144.922H78.0856C78.2223 144.456 78.4517 144.105 78.7739 143.867C79.0961 143.626 79.467 143.506 79.8869 143.506C79.991 143.506 80.1033 143.513 80.2237 143.526C80.3441 143.539 80.4498 143.557 80.541 143.579V145.424C80.4433 145.395 80.3083 145.369 80.1358 145.346C79.9633 145.324 79.8055 145.312 79.6623 145.312C79.3564 145.312 79.083 145.379 78.8422 145.512C78.6047 145.643 78.4159 145.825 78.276 146.059C78.1393 146.293 78.071 146.563 78.071 146.869V151.111H75.9915ZM82.9548 151.111L80.9144 143.613H83.0183L84.18 148.651H84.2484L85.459 143.613H87.5238L88.7539 148.622H88.8174L89.9597 143.613H92.0587L90.0231 151.111H87.8216L86.5329 146.396H86.4401L85.1514 151.111H82.9548ZM95.0449 151.253C94.5665 151.253 94.1402 151.17 93.7659 151.004C93.3917 150.835 93.0955 150.586 92.8775 150.257C92.6627 149.925 92.5553 149.512 92.5553 149.017C92.5553 148.601 92.6318 148.251 92.7848 147.968C92.9377 147.685 93.146 147.457 93.4096 147.284C93.6732 147.112 93.9726 146.982 94.3078 146.894C94.6462 146.806 95.0009 146.744 95.3719 146.708C95.808 146.663 96.1594 146.62 96.4263 146.581C96.6932 146.539 96.8868 146.477 97.0072 146.396C97.1276 146.315 97.1878 146.194 97.1878 146.035V146.005C97.1878 145.696 97.0902 145.457 96.8949 145.288C96.7029 145.119 96.4296 145.034 96.0748 145.034C95.7006 145.034 95.4028 145.117 95.1815 145.283C94.9602 145.446 94.8138 145.651 94.7422 145.898L92.8189 145.742C92.9166 145.286 93.1086 144.892 93.3949 144.56C93.6813 144.225 94.0507 143.968 94.503 143.789C94.9586 143.607 95.4858 143.516 96.0846 143.516C96.5011 143.516 96.8998 143.565 97.2805 143.662C97.6646 143.76 98.0046 143.911 98.3008 144.116C98.6002 144.321 98.8361 144.585 99.0086 144.907C99.1811 145.226 99.2673 145.608 99.2673 146.054V151.111H97.2952V150.072H97.2366C97.1162 150.306 96.9551 150.513 96.7534 150.692C96.5516 150.867 96.3091 151.006 96.026 151.106C95.7429 151.204 95.4158 151.253 95.0449 151.253ZM95.6404 149.818C95.9463 149.818 96.2164 149.758 96.4507 149.637C96.685 149.513 96.8689 149.348 97.0023 149.139C97.1357 148.931 97.2024 148.695 97.2024 148.431V147.636C97.1374 147.678 97.0479 147.717 96.934 147.753C96.8233 147.785 96.698 147.816 96.5581 147.846C96.4182 147.872 96.2782 147.896 96.1383 147.919C95.9984 147.938 95.8714 147.956 95.7575 147.973C95.5135 148.008 95.3003 148.065 95.1181 148.143C94.9358 148.222 94.7943 148.327 94.6934 148.461C94.5925 148.591 94.5421 148.754 94.5421 148.949C94.5421 149.232 94.6446 149.448 94.8496 149.598C95.0579 149.745 95.3215 149.818 95.6404 149.818ZM100.619 151.111V143.613H102.635V144.922H102.714C102.85 144.456 103.08 144.105 103.402 143.867C103.724 143.626 104.095 143.506 104.515 143.506C104.619 143.506 104.731 143.513 104.852 143.526C104.972 143.539 105.078 143.557 105.169 143.579V145.424C105.071 145.395 104.936 145.369 104.764 145.346C104.591 145.324 104.433 145.312 104.29 145.312C103.984 145.312 103.711 145.379 103.47 145.512C103.233 145.643 103.044 145.825 102.904 146.059C102.767 146.293 102.699 146.563 102.699 146.869V151.111H100.619ZM108.397 151.233C107.827 151.233 107.311 151.087 106.849 150.794C106.39 150.498 106.026 150.063 105.756 149.491C105.489 148.915 105.356 148.209 105.356 147.372C105.356 146.513 105.494 145.799 105.771 145.229C106.047 144.656 106.415 144.229 106.874 143.945C107.336 143.659 107.842 143.516 108.392 143.516C108.812 143.516 109.161 143.587 109.441 143.731C109.724 143.871 109.952 144.046 110.125 144.258C110.3 144.466 110.434 144.671 110.525 144.873H110.588V141.114H112.663V151.111H110.613V149.91H110.525C110.427 150.119 110.289 150.325 110.11 150.53C109.934 150.732 109.705 150.9 109.422 151.033C109.142 151.167 108.8 151.233 108.397 151.233ZM109.056 149.579C109.391 149.579 109.674 149.487 109.905 149.305C110.139 149.12 110.318 148.861 110.442 148.529C110.569 148.197 110.632 147.808 110.632 147.362C110.632 146.917 110.571 146.529 110.447 146.201C110.323 145.872 110.144 145.618 109.91 145.439C109.676 145.26 109.391 145.171 109.056 145.171C108.714 145.171 108.426 145.263 108.192 145.449C107.957 145.634 107.78 145.891 107.66 146.22C107.539 146.549 107.479 146.93 107.479 147.362C107.479 147.798 107.539 148.184 107.66 148.519C107.783 148.851 107.961 149.112 108.192 149.3C108.426 149.486 108.714 149.579 109.056 149.579ZM114.57 147.104C114.57 145.893 114.732 144.778 115.054 143.76C115.379 142.741 115.875 141.798 116.543 140.929H118.529C118.275 141.251 118.04 141.645 117.822 142.11C117.603 142.572 117.413 143.08 117.25 143.633C117.088 144.186 116.961 144.759 116.87 145.351C116.779 145.94 116.733 146.524 116.733 147.104C116.733 147.875 116.811 148.654 116.967 149.442C117.127 150.226 117.342 150.955 117.612 151.629C117.885 152.302 118.191 152.854 118.529 153.284H116.543C115.875 152.415 115.379 151.471 115.054 150.452C114.732 149.434 114.57 148.318 114.57 147.104ZM125.714 145.752L123.81 145.869C123.777 145.706 123.707 145.56 123.6 145.429C123.493 145.296 123.351 145.19 123.175 145.112C123.003 145.031 122.796 144.99 122.555 144.99C122.233 144.99 121.961 145.058 121.74 145.195C121.519 145.328 121.408 145.507 121.408 145.732C121.408 145.911 121.48 146.062 121.623 146.186C121.766 146.31 122.012 146.409 122.36 146.484L123.717 146.757C124.446 146.907 124.989 147.148 125.347 147.48C125.705 147.811 125.884 148.248 125.884 148.788C125.884 149.279 125.74 149.71 125.45 150.081C125.164 150.452 124.77 150.742 124.269 150.95C123.771 151.155 123.196 151.258 122.546 151.258C121.553 151.258 120.762 151.051 120.173 150.638C119.587 150.221 119.244 149.655 119.143 148.939L121.188 148.832C121.25 149.134 121.4 149.365 121.638 149.525C121.875 149.681 122.179 149.759 122.55 149.759C122.915 149.759 123.208 149.689 123.429 149.549C123.654 149.406 123.767 149.222 123.771 148.998C123.767 148.809 123.688 148.654 123.532 148.534C123.375 148.41 123.135 148.316 122.809 148.251L121.511 147.992C120.778 147.846 120.233 147.592 119.875 147.231C119.521 146.869 119.343 146.409 119.343 145.849C119.343 145.368 119.473 144.953 119.734 144.604C119.997 144.256 120.367 143.988 120.842 143.799C121.32 143.61 121.88 143.516 122.521 143.516C123.468 143.516 124.213 143.716 124.757 144.116C125.304 144.517 125.622 145.062 125.714 145.752ZM130.35 151.258C129.578 151.258 128.915 151.102 128.358 150.789C127.805 150.473 127.379 150.028 127.079 149.452C126.78 148.872 126.63 148.187 126.63 147.397C126.63 146.625 126.78 145.948 127.079 145.366C127.379 144.783 127.8 144.329 128.343 144.004C128.89 143.679 129.531 143.516 130.267 143.516C130.761 143.516 131.222 143.596 131.648 143.755C132.078 143.911 132.452 144.147 132.771 144.463C133.093 144.778 133.344 145.176 133.523 145.654C133.702 146.129 133.791 146.686 133.791 147.323V147.894H127.46V146.606H131.834C131.834 146.306 131.769 146.041 131.638 145.81C131.508 145.579 131.328 145.398 131.097 145.268C130.869 145.135 130.604 145.068 130.301 145.068C129.985 145.068 129.705 145.141 129.461 145.288C129.22 145.431 129.032 145.625 128.895 145.869C128.758 146.109 128.688 146.378 128.685 146.674V147.899C128.685 148.27 128.753 148.591 128.89 148.861C129.03 149.131 129.227 149.339 129.481 149.486C129.735 149.632 130.036 149.705 130.384 149.705C130.615 149.705 130.826 149.673 131.018 149.608C131.21 149.543 131.375 149.445 131.511 149.315C131.648 149.185 131.752 149.025 131.824 148.837L133.747 148.964C133.65 149.426 133.449 149.829 133.147 150.174C132.847 150.516 132.46 150.783 131.985 150.975C131.513 151.163 130.968 151.258 130.35 151.258ZM136.966 141.114V151.111H134.887V141.114H136.966ZM142.403 143.613V145.176H137.775V143.613H142.403ZM138.835 151.111V143.072C138.835 142.528 138.941 142.077 139.152 141.719C139.367 141.361 139.66 141.093 140.031 140.914C140.402 140.735 140.823 140.646 141.295 140.646C141.614 140.646 141.905 140.67 142.169 140.719C142.436 140.768 142.634 140.812 142.764 140.851L142.393 142.413C142.312 142.387 142.211 142.362 142.091 142.339C141.974 142.317 141.853 142.305 141.729 142.305C141.424 142.305 141.21 142.377 141.09 142.52C140.97 142.66 140.909 142.857 140.909 143.111V151.111H138.835ZM148.593 149.745L148.539 150.281C148.497 150.711 148.415 151.139 148.295 151.565C148.178 151.995 148.054 152.384 147.924 152.732C147.797 153.08 147.695 153.354 147.616 153.552H146.269C146.318 153.36 146.385 153.092 146.469 152.747C146.554 152.405 146.634 152.021 146.708 151.595C146.783 151.168 146.831 150.734 146.85 150.291L146.874 149.745H148.593ZM154.421 143.613L155.798 146.235L157.208 143.613H159.342L157.169 147.362L159.4 151.111H157.277L155.798 148.519L154.343 151.111H152.195L154.421 147.362L152.273 143.613H154.421ZM163.82 147.104C163.82 148.318 163.658 149.434 163.332 150.452C163.01 151.471 162.515 152.415 161.848 153.284H159.861C160.115 152.961 160.351 152.568 160.569 152.102C160.787 151.637 160.978 151.129 161.14 150.579C161.303 150.026 161.43 149.453 161.521 148.861C161.612 148.269 161.658 147.683 161.658 147.104C161.658 146.332 161.578 145.555 161.419 144.77C161.262 143.983 161.048 143.254 160.774 142.583C160.504 141.91 160.2 141.358 159.861 140.929H161.848C162.515 141.798 163.01 142.741 163.332 143.76C163.658 144.778 163.82 145.893 163.82 147.104Z" fill="black"/>
</g>
<defs>
<filter id="filter0_d_2151_5814" x="0" y="0" width="373" height="263" filterUnits="userSpaceOnUse" color-interpolation-filters="sRGB">
<feFlood flood-opacity="0" result="BackgroundImageFix"/>
<feColorMatrix in="SourceAlpha" type="matrix" values="0 0 0 0 0 0 0 0 0 0 0 0 0 0 0 0 0 0 127 0" result="hardAlpha"/>
<feOffset dy="4"/>
<feGaussianBlur stdDeviation="2"/>
<feComposite in2="hardAlpha" operator="out"/>
<feColorMatrix type="matrix" values="0 0 0 0 0 0 0 0 0 0 0 0 0 0 0 0 0 0 0.25 0"/>
<feBlend mode="normal" in2="BackgroundImageFix" result="effect1_dropShadow_2151_5814"/>
<feBlend mode="normal" in="SourceGraphic" in2="effect1_dropShadow_2151_5814" result="shape"/>
</filter>
<filter id="filter1_d_2151_5814" x="27" y="57" width="319" height="66" filterUnits="userSpaceOnUse" color-interpolation-filters="sRGB">
<feFlood flood-opacity="0" result="BackgroundImageFix"/>
<feColorMatrix in="SourceAlpha" type="matrix" values="0 0 0 0 0 0 0 0 0 0 0 0 0 0 0 0 0 0 127 0" result="hardAlpha"/>
<feOffset dy="4"/>
<feGaussianBlur stdDeviation="2"/>
<feComposite in2="hardAlpha" operator="out"/>
<feColorMatrix type="matrix" values="0 0 0 0 0 0 0 0 0 0 0 0 0 0 0 0 0 0 0.25 0"/>
<feBlend mode="normal" in2="BackgroundImageFix" result="effect1_dropShadow_2151_5814"/>
<feBlend mode="normal" in="SourceGraphic" in2="effect1_dropShadow_2151_5814" result="shape"/>
</filter>
<filter id="filter2_d_2151_5814" x="27" y="128" width="319" height="66" filterUnits="userSpaceOnUse" color-interpolation-filters="sRGB">
<feFlood flood-opacity="0" result="BackgroundImageFix"/>
<feColorMatrix in="SourceAlpha" type="matrix" values="0 0 0 0 0 0 0 0 0 0 0 0 0 0 0 0 0 0 127 0" result="hardAlpha"/>
<feOffset dy="4"/>
<feGaussianBlur stdDeviation="2"/>
<feComposite in2="hardAlpha" operator="out"/>
<feColorMatrix type="matrix" values="0 0 0 0 0 0 0 0 0 0 0 0 0 0 0 0 0 0 0.25 0"/>
<feBlend mode="normal" in2="BackgroundImageFix" result="effect1_dropShadow_2151_5814"/>
<feBlend mode="normal" in="SourceGraphic" in2="effect1_dropShadow_2151_5814" result="shape"/>
</filter>
</defs>
</svg>
