<svg width="420" height="151" viewBox="0 0 420 151" fill="none" xmlns="http://www.w3.org/2000/svg">
<path d="M182.87 125.617C183.077 125.41 183.077 125.074 182.87 124.867L179.493 121.49C179.286 121.282 178.95 121.282 178.742 121.49C178.535 121.697 178.535 122.033 178.742 122.24L181.744 125.242L178.742 128.244C178.535 128.451 178.535 128.787 178.742 128.995C178.95 129.202 179.286 129.202 179.493 128.995L182.87 125.617ZM24.3506 125.773H182.495V124.712H24.3506V125.773Z" fill="black"/>
<path d="M24.7258 17.6684C24.5186 17.4611 24.1826 17.4611 23.9753 17.6684L20.5981 21.0456C20.3908 21.2529 20.3908 21.5889 20.5981 21.7961C20.8053 22.0034 21.1413 22.0034 21.3486 21.7961L24.3506 18.7941L27.3526 21.7961C27.5598 22.0034 27.8959 22.0034 28.1031 21.7961C28.3103 21.5889 28.3103 21.2529 28.1031 21.0456L24.7258 17.6684ZM24.8813 125.242L24.8813 18.0436L23.8199 18.0436L23.8199 125.242L24.8813 125.242Z" fill="black"/>
<path d="M170.587 133.996L172.3 136.89H172.366L174.086 133.996H176.114L173.523 138.242L176.172 142.487H174.107L172.366 139.589H172.3L170.558 142.487H168.502L171.159 138.242L168.552 133.996H170.587Z" fill="black"/>
<path d="M9.73168 27.8596H11.7425L13.6787 31.5164H13.7616L15.6977 27.8596H17.7086L14.6115 33.3489V36.3506H12.8287V33.3489L9.73168 27.8596Z" fill="black"/>
<line x1="0.749678" y1="88.3996" x2="172.161" y2="31.6162" stroke="black" stroke-width="1.59206" stroke-dasharray="2.65 2.65"/>
<line x1="46.9042" y1="91.2783" x2="46.9042" y2="72.7043" stroke="black" stroke-width="1.59206"/>
<line x1="137.121" y1="42.9854" x2="137.121" y2="23.8807" stroke="black" stroke-width="1.59206"/>
<line x1="147.734" y1="74.8271" x2="147.734" y2="39.8019" stroke="black" stroke-width="1.59206"/>
<line x1="87.7674" y1="82.7871" x2="87.7674" y2="58.9062" stroke="black" stroke-width="1.59206"/>
<line x1="61.2333" y1="68.458" x2="61.2333" y2="33.9634" stroke="black" stroke-width="1.59206"/>
<circle cx="47.1693" cy="91.2777" r="4.24549" fill="#BDE3FF"/>
<line x1="60.702" y1="79.0723" x2="60.702" y2="67.9279" stroke="black" stroke-width="1.59206"/>
<circle cx="60.4369" cy="80.6644" r="4.24549" fill="#FF9F05"/>
<circle cx="60.9672" cy="32.3715" r="4.24549" fill="#BDE3FF"/>
<line x1="76.6229" y1="62.6211" x2="76.6229" y2="29.1879" stroke="black" stroke-width="1.59206"/>
<circle cx="75.8265" cy="28.1263" r="4.24549" fill="#FF9F05"/>
<circle cx="137.386" cy="24.4115" r="4.24549" fill="#BDE3FF"/>
<circle cx="148.531" cy="74.8265" r="4.24549" fill="#BDE3FF"/>
<circle cx="89.0941" cy="84.3793" r="4.24549" fill="#FFBFBD"/>
<line x1="45.3124" y1="73.7656" x2="45.3124" y2="55.1916" stroke="black" stroke-width="1.59206"/>
<line x1="96.7889" y1="74.8271" x2="96.7889" y2="56.2531" stroke="black" stroke-width="1.59206"/>
<line x1="112.179" y1="68.9893" x2="112.179" y2="51.4766" stroke="black" stroke-width="1.59206"/>
<line x1="126.508" y1="46.7002" x2="126.508" y2="28.1262" stroke="black" stroke-width="1.59206"/>
<line x1="102.096" y1="55.1914" x2="102.096" y2="38.2095" stroke="black" stroke-width="1.59206"/>
<circle cx="102.361" cy="35.0248" r="4.24549" fill="#FF9F05"/>
<line x1="92.5428" y1="58.375" x2="92.5428" y2="42.9851" stroke="black" stroke-width="1.59206"/>
<circle cx="92.809" cy="44.0472" r="4.24549" fill="#BDE3FF"/>
<line x1="157.817" y1="55.1914" x2="157.817" y2="36.6174" stroke="black" stroke-width="1.59206"/>
<circle cx="158.083" cy="54.6605" r="4.24549" fill="#FFBFBD"/>
<circle cx="45.0472" cy="54.1303" r="4.24549" fill="#FF9F05"/>
<circle cx="97.0541" cy="74.8265" r="4.24549" fill="#BDE3FF"/>
<circle cx="112.444" cy="68.4584" r="4.24549" fill="#BDE3FF"/>
<circle cx="126.773" cy="29.1879" r="4.24549" fill="#FFBFBD"/>
<path d="M40.7443 136.869H45.9397V144.142H40.7443V136.869ZM44.4219 138.083H42.2737V142.917H44.4219V138.083ZM47.6209 135.888H49.1854V146.734H47.6209V135.888ZM58.2093 135.9H59.7621V146.711H58.2093V135.9ZM51.2977 136.927H52.8388V143.64H51.2977V136.927ZM51.2977 142.73H52.255C53.8312 142.73 55.5824 142.613 57.3687 142.263L57.5438 143.547C55.6875 143.932 53.9012 144.049 52.255 144.049H51.2977V142.73ZM61.5475 136.857H63.0069V139.286H64.3845V136.857H65.8206V144.154H61.5475V136.857ZM63.0069 140.5V142.917H64.3845V140.5H63.0069ZM69.0546 135.9H70.5373V146.711H69.0546V135.9ZM67.7236 140.021H69.5216V141.27H67.7236V140.021ZM66.6845 136.063H68.1439V146.221H66.6845V136.063ZM79.1876 135.9H80.7521V146.711H79.1876V135.9ZM74.4242 138.702H75.6501V139.262C75.6501 141.551 74.6343 143.851 72.6379 144.715L71.809 143.524C73.5836 142.73 74.4242 140.897 74.4242 139.262V138.702ZM74.7628 138.702H75.977V139.262C75.977 140.815 76.8293 142.59 78.6155 143.349L77.7866 144.539C75.7902 143.71 74.7628 141.481 74.7628 139.262V138.702ZM72.1709 137.663H78.1836V138.889H72.1709V137.663ZM74.4242 136.145H75.977V138.293H74.4242V136.145ZM82.2923 144.259H92.076V145.52H82.2923V144.259ZM86.3902 142.216H87.943V144.773H86.3902V142.216ZM83.3897 136.6H90.9786V140.196H84.9542V142.018H83.4131V138.982H89.4374V137.826H83.3897V136.6ZM83.4131 141.399H91.2237V142.648H83.4131V141.399ZM97.2407 137.348H98.3965V138.013C98.3965 139.753 97.696 141.41 95.9564 142.099L95.2092 140.943C96.6453 140.383 97.2407 139.157 97.2407 138.013V137.348ZM97.6493 137.348H98.7818V138.013C98.7818 139.052 99.3305 140.243 100.743 140.803L100.159 141.994C98.3148 141.329 97.6493 139.601 97.6493 138.013V137.348ZM101.549 137.348H102.67V138.013C102.67 139.624 102.016 141.329 100.159 141.994L99.5874 140.803C100.988 140.255 101.549 139.075 101.549 138.013V137.348ZM101.934 137.348H103.113V138.013C103.113 139.204 103.685 140.43 105.133 141.002L104.374 142.146C102.635 141.469 101.934 139.788 101.934 138.013V137.348ZM99.3889 142.344H100.942V144.995H99.3889V142.344ZM95.5945 136.659H99.9376V137.896H95.5945V136.659ZM100.393 136.659H104.736V137.896H100.393V136.659ZM95.2793 144.201H105.063V145.462H95.2793V144.201ZM113.573 135.9H115.056V146.711H113.573V135.9ZM112.207 139.974H113.994V141.212H112.207V139.974ZM108.985 137.219H110.468C110.468 140.266 109.58 142.73 106.556 144.493L105.658 143.419C108.121 141.959 108.985 140.138 108.985 137.546V137.219ZM106.206 137.219H109.44V138.468H106.206V137.219ZM111.18 136.18H112.628V146.244H111.18V136.18ZM121.768 139.274H124.617V140.523H121.768V139.274ZM118.826 136.729H120.087V138.293C120.087 141.014 119.165 143.524 117.133 144.539L116.164 143.29C118.009 142.438 118.826 140.348 118.826 138.293V136.729ZM119.153 136.729H120.391V138.293C120.391 140.348 121.173 142.321 122.959 143.115L122.037 144.353C120.005 143.372 119.153 140.99 119.153 138.293V136.729ZM123.846 135.888H125.388V146.734H123.846V135.888ZM134.206 137.406H137.382V138.643H134.206V137.406ZM134.206 140.033H137.382V141.27H134.206V140.033ZM136.81 135.911H138.363V143.816H136.81V135.911ZM131.229 145.287H138.608V146.524H131.229V145.287ZM131.229 143.033H132.782V145.929H131.229V143.033ZM132.303 136.542C133.903 136.542 135.152 137.709 135.152 139.344C135.152 140.955 133.903 142.134 132.303 142.134C130.692 142.134 129.443 140.955 129.443 139.344C129.443 137.709 130.692 136.542 132.303 136.542ZM132.303 137.908C131.51 137.908 130.926 138.445 130.926 139.344C130.926 140.243 131.51 140.78 132.303 140.78C133.086 140.78 133.681 140.243 133.681 139.344C133.681 138.445 133.086 137.908 132.303 137.908ZM142.261 136.565H143.534V137.733C143.534 139.881 142.565 141.726 140.498 142.438L139.67 141.224C141.503 140.64 142.261 139.192 142.261 137.733V136.565ZM142.565 136.565H143.826V137.744C143.826 139.099 144.561 140.453 146.301 141.025L145.507 142.228C143.499 141.562 142.565 139.776 142.565 137.744V136.565ZM146.791 135.9H148.344V143.804H146.791V135.9ZM147.9 139.029H149.78V140.313H147.9V139.029ZM141.374 145.287H148.729V146.524H141.374V145.287ZM141.374 143.057H142.939V145.94H141.374V143.057Z" fill="black"/>
<circle cx="205.314" cy="47.2308" r="4.24549" fill="#BDE3FF"/>
<circle cx="205.314" cy="88.6244" r="4.24549" fill="#FFBFBD"/>
<line x1="111.117" y1="52.0068" x2="111.117" y2="16.9816" stroke="black" stroke-width="1.59206"/>
<circle cx="110.852" cy="15.39" r="4.24549" fill="#FF9F05"/>
<circle cx="205.314" cy="68.4584" r="4.24549" fill="#FF9F05"/>
<line x1="146.142" y1="40.332" x2="146.142" y2="6.36813" stroke="black" stroke-width="1.59206"/>
<circle cx="146.408" cy="4.24549" r="4.24549" fill="#FFBFBD"/>
<path d="M359.755 65.0539H361.529V66.3031H359.755V65.0539ZM363.245 61.0727H364.728V71.8838H363.245V61.0727ZM361.039 61.2361H362.498V71.3935H361.039V61.2361ZM357.863 61.8316C359.299 61.8316 360.222 63.3143 360.222 65.7544C360.222 68.2062 359.299 69.6889 357.863 69.6889C356.439 69.6889 355.528 68.2062 355.528 65.7544C355.528 63.3143 356.439 61.8316 357.863 61.8316ZM357.863 63.2909C357.279 63.2909 356.941 64.1082 356.941 65.7544C356.941 67.4123 357.279 68.2178 357.863 68.2178C358.47 68.2178 358.809 67.4123 358.809 65.7544C358.809 64.1082 358.47 63.2909 357.863 63.2909ZM366.805 61.4229H374.861V62.6605H366.805V61.4229ZM366.887 64.4118H374.779V65.626H366.887V64.4118ZM368.183 61.9016H369.736V65.1006H368.183V61.9016ZM371.931 61.9016H373.484V65.1006H371.931V61.9016ZM365.953 66.5483H375.725V67.7742H365.953V66.5483ZM370.051 65.3341H371.604V66.9686H370.051V65.3341ZM367.039 68.5097H374.546V71.8838H372.993V69.7356H367.039V68.5097ZM377.099 67.4409C377.099 66.4127 377.236 65.466 377.509 64.6009C377.786 63.7357 378.207 62.9342 378.774 62.1962H380.461C380.246 62.4698 380.045 62.8043 379.86 63.1995C379.675 63.592 379.513 64.0232 379.375 64.4931C379.237 64.963 379.129 65.4494 379.052 65.9525C378.974 66.4527 378.936 66.9489 378.936 67.4409C378.936 68.0959 379.002 68.7579 379.135 69.4268C379.27 70.0929 379.453 70.7121 379.682 71.2842C379.914 71.8563 380.174 72.3248 380.461 72.6897H378.774C378.207 71.9517 377.786 71.1501 377.509 70.285C377.236 69.4199 377.099 68.4718 377.099 67.4409ZM384.11 70.9691C383.455 70.9691 382.891 70.8364 382.418 70.5711C381.948 70.303 381.586 69.9243 381.332 69.4351C381.078 68.9431 380.951 68.3613 380.951 67.6896C380.951 67.0346 381.078 66.4597 381.332 65.9649C381.586 65.4701 381.944 65.0846 382.406 64.8082C382.87 64.5318 383.415 64.3936 384.039 64.3936C384.459 64.3936 384.851 64.4613 385.213 64.5967C385.578 64.7294 385.895 64.9298 386.166 65.1979C386.44 65.466 386.653 65.8032 386.805 66.2095C386.957 66.6131 387.033 67.0857 387.033 67.6274V68.1125H381.655V67.018H385.37C385.37 66.7637 385.315 66.5384 385.204 66.3422C385.094 66.1459 384.94 65.9925 384.744 65.882C384.551 65.7687 384.325 65.712 384.068 65.712C383.8 65.712 383.563 65.7742 383.355 65.8986C383.151 66.0202 382.99 66.1846 382.874 66.3919C382.758 66.5965 382.699 66.8245 382.696 67.076V68.1167C382.696 68.4318 382.754 68.704 382.87 68.9334C382.989 69.1628 383.156 69.3397 383.372 69.4641C383.587 69.5885 383.843 69.6507 384.139 69.6507C384.335 69.6507 384.515 69.623 384.678 69.5678C384.841 69.5125 384.98 69.4296 385.097 69.319C385.213 69.2084 385.301 69.073 385.362 68.9127L386.995 69.0205C386.913 69.413 386.743 69.7557 386.485 70.0487C386.231 70.3389 385.902 70.5656 385.499 70.7286C385.098 70.889 384.635 70.9691 384.11 70.9691ZM387.964 73.2328V64.4765H389.705V65.5462H389.784C389.861 65.3748 389.973 65.2007 390.119 65.0238C390.269 64.8441 390.462 64.6949 390.7 64.576C390.94 64.4544 391.239 64.3936 391.595 64.3936C392.06 64.3936 392.488 64.5152 392.881 64.7584C393.273 64.9989 393.587 65.3624 393.822 65.8488C394.057 66.3325 394.174 66.9392 394.174 67.6689C394.174 68.3792 394.059 68.979 393.83 69.4683C393.603 69.9547 393.294 70.3237 392.901 70.5752C392.512 70.824 392.075 70.9484 391.591 70.9484C391.249 70.9484 390.957 70.8917 390.716 70.7784C390.479 70.6651 390.284 70.5227 390.132 70.3514C389.98 70.1772 389.864 70.0017 389.784 69.8248H389.73V73.2328H387.964ZM389.692 67.6606C389.692 68.0393 389.745 68.3696 389.85 68.6515C389.955 68.9334 390.107 69.1532 390.306 69.3107C390.505 69.4655 390.747 69.5429 391.032 69.5429C391.319 69.5429 391.562 69.4641 391.761 69.3066C391.96 69.1463 392.111 68.9251 392.213 68.6432C392.318 68.3585 392.371 68.031 392.371 67.6606C392.371 67.293 392.32 66.9696 392.217 66.6905C392.115 66.4113 391.964 66.1929 391.765 66.0354C391.566 65.8778 391.322 65.7991 391.032 65.7991C390.744 65.7991 390.501 65.8751 390.302 66.0271C390.106 66.1791 389.955 66.3947 389.85 66.6739C389.745 66.953 389.692 67.2819 389.692 67.6606ZM398.007 70.9691C397.363 70.9691 396.806 70.8323 396.336 70.5587C395.869 70.2823 395.508 69.8981 395.254 69.4061C395 68.9113 394.873 68.3378 394.873 67.6855C394.873 67.0277 395 66.4527 395.254 65.9608C395.508 65.466 395.869 65.0818 396.336 64.8082C396.806 64.5318 397.363 64.3936 398.007 64.3936C398.651 64.3936 399.207 64.5318 399.674 64.8082C400.144 65.0818 400.506 65.466 400.76 65.9608C401.014 66.4527 401.142 67.0277 401.142 67.6855C401.142 68.3378 401.014 68.9113 400.76 69.4061C400.506 69.8981 400.144 70.2823 399.674 70.5587C399.207 70.8323 398.651 70.9691 398.007 70.9691ZM398.015 69.6009C398.308 69.6009 398.553 69.518 398.749 69.3522C398.946 69.1836 399.093 68.9542 399.193 68.6639C399.295 68.3737 399.346 68.0434 399.346 67.673C399.346 67.3027 399.295 66.9724 399.193 66.6822C399.093 66.3919 398.946 66.1625 398.749 65.9939C398.553 65.8253 398.308 65.741 398.015 65.741C397.72 65.741 397.471 65.8253 397.269 65.9939C397.07 66.1625 396.92 66.3919 396.817 66.6822C396.718 66.9724 396.668 67.3027 396.668 67.673C396.668 68.0434 396.718 68.3737 396.817 68.6639C396.92 68.9542 397.07 69.1836 397.269 69.3522C397.471 69.518 397.72 69.6009 398.015 69.6009ZM404.945 70.9691C404.293 70.9691 403.732 70.8309 403.262 70.5545C402.795 70.2753 402.436 69.8884 402.184 69.3936C401.935 68.8989 401.811 68.3295 401.811 67.6855C401.811 67.0332 401.937 66.461 402.188 65.969C402.443 65.4743 402.803 65.0887 403.27 64.8123C403.738 64.5332 404.293 64.3936 404.937 64.3936C405.493 64.3936 405.979 64.4945 406.397 64.6962C406.814 64.898 407.144 65.1813 407.387 65.5462C407.631 65.911 407.765 66.3394 407.79 66.8314H406.123C406.076 66.5136 405.952 66.2579 405.75 66.0644C405.551 65.8682 405.29 65.77 404.966 65.77C404.693 65.77 404.453 65.8447 404.249 65.9939C404.047 66.1404 403.89 66.3546 403.776 66.6366C403.663 66.9185 403.606 67.2598 403.606 67.6606C403.606 68.0669 403.662 68.4124 403.772 68.6971C403.885 68.9818 404.044 69.1988 404.249 69.348C404.453 69.4973 404.693 69.5719 404.966 69.5719C405.168 69.5719 405.349 69.5304 405.509 69.4475C405.672 69.3646 405.806 69.2444 405.911 69.0868C406.019 68.9265 406.09 68.7344 406.123 68.5105H407.79C407.762 68.997 407.629 69.4254 407.392 69.7958C407.157 70.1634 406.832 70.4509 406.417 70.6582C406.003 70.8655 405.512 70.9691 404.945 70.9691ZM410.465 67.1631V70.8447H408.699V62.3538H410.415V65.6001H410.49C410.633 65.2242 410.866 64.9298 411.186 64.717C411.507 64.5014 411.909 64.3936 412.393 64.3936C412.835 64.3936 413.22 64.4903 413.549 64.6838C413.881 64.8745 414.138 65.1495 414.321 65.5088C414.506 65.8654 414.597 66.2924 414.594 66.79V70.8447H412.828V67.105C412.831 66.7126 412.731 66.4071 412.529 66.1888C412.33 65.9704 412.051 65.8613 411.692 65.8613C411.452 65.8613 411.239 65.9124 411.053 66.0147C410.871 66.1169 410.727 66.2662 410.622 66.4624C410.52 66.6559 410.468 66.8895 410.465 67.1631ZM418.739 67.4409C418.739 68.4718 418.601 69.4199 418.324 70.285C418.051 71.1501 417.631 71.9517 417.064 72.6897H415.377C415.592 72.4161 415.793 72.0816 415.978 71.6864C416.163 71.2911 416.325 70.8599 416.463 70.3928C416.601 69.9229 416.709 69.4365 416.786 68.9334C416.864 68.4304 416.902 67.9329 416.902 67.4409C416.902 66.7858 416.835 66.1252 416.699 65.4591C416.567 64.7902 416.384 64.1711 416.152 63.6017C415.923 63.0295 415.664 62.5611 415.377 62.1962H417.064C417.631 62.9342 418.051 63.7357 418.324 64.6009C418.601 65.466 418.739 66.4127 418.739 67.4409Z" fill="black"/>
<path d="M221.748 45.1828H222.657V45.463C222.657 46.8386 221.961 48.0698 220.466 48.5113L219.931 47.6282C221.205 47.2546 221.748 46.3546 221.748 45.463V45.1828ZM221.961 45.1828H222.878V45.463C222.878 46.2697 223.421 47.1018 224.678 47.4414L224.168 48.3075C222.665 47.9084 221.961 46.7536 221.961 45.463V45.1828ZM220.203 44.5545H224.423V45.4375H220.203V44.5545ZM221.748 43.7309H222.878V44.9281H221.748V43.7309ZM224.219 45.8366H225.714V46.7536H224.219V45.8366ZM225.433 43.7563H226.563V49.1056H225.433V43.7563ZM223.353 48.6641H224.313V48.783C224.313 50.0821 223.243 51.3133 221.281 51.5935L220.874 50.7104C222.521 50.4727 223.353 49.5472 223.353 48.783V48.6641ZM223.548 48.6641H224.508V48.783C224.508 49.5981 225.306 50.4812 226.996 50.7104L226.571 51.5935C224.618 51.3048 223.548 50.1415 223.548 48.783V48.6641ZM231.351 45.8451H233.372V46.7452H231.351V45.8451ZM233.083 43.7648H234.212V49.5642H233.083V43.7648ZM229.007 50.5831H234.382V51.4831H229.007V50.5831ZM229.007 48.9953H230.145V51.101H229.007V48.9953ZM227.963 44.2743H229.084V45.4715H230.578V44.2743H231.682V48.333H227.963V44.2743ZM229.084 46.3291V47.4414H230.578V46.3291H229.084ZM241.14 43.7563H242.193V51.619H241.14V43.7563ZM240.274 46.7961H241.522V47.7046H240.274V46.7961ZM239.612 43.8752H240.648V51.2624H239.612V43.8752ZM236.029 45.2083H236.776V45.9385C236.776 47.382 236.683 49.0462 235.698 49.8698L235.086 49.1141C235.961 48.3584 236.029 47.0508 236.029 45.9385V45.2083ZM236.258 45.2083H236.988V45.9385C236.988 46.9659 237.022 48.35 237.922 49.1821L237.396 49.9632C236.326 49.0887 236.258 47.2716 236.258 45.9385V45.2083ZM237.795 45.2083H238.525V45.9385C238.525 47.3056 238.449 49.0887 237.396 49.9632L236.861 49.1821C237.769 48.3415 237.795 46.9914 237.795 45.9385V45.2083ZM238.007 45.2083H238.754V45.9385C238.754 47.0678 238.822 48.3584 239.697 49.1141L239.086 49.8698C238.109 49.0462 238.007 47.399 238.007 45.9385V45.2083ZM235.35 44.6309H237.302V45.5225H235.35V44.6309ZM237.489 44.6309H239.323V45.5225H237.489V44.6309ZM250.127 43.7478H251.265V51.636H250.127V43.7478ZM247.028 44.2998C248.216 44.2998 249.091 45.3866 249.091 47.1018C249.091 48.8339 248.216 49.9208 247.028 49.9208C245.839 49.9208 244.964 48.8339 244.964 47.1018C244.964 45.3866 245.839 44.2998 247.028 44.2998ZM247.028 45.3272C246.442 45.3272 246.043 45.947 246.043 47.1018C246.043 48.2735 246.442 48.9019 247.028 48.9019C247.614 48.9019 248.004 48.2735 248.004 47.1018C248.004 45.947 247.614 45.3272 247.028 45.3272ZM257.862 43.7478H258.982V51.636H257.862V43.7478ZM256.512 46.5159H257.989V47.4329H256.512V46.5159ZM252.742 48.9443H253.37C254.669 48.9443 255.637 48.9273 256.749 48.749L256.851 49.6491C255.713 49.8274 254.694 49.8613 253.37 49.8613H252.742V48.9443ZM252.742 44.4101H256.384V45.3272H253.862V49.233H252.742V44.4101ZM253.608 46.6008H256.112V47.4839H253.608V46.6008ZM260.247 48.8594H260.807C261.758 48.8594 262.599 48.8339 263.575 48.6641L263.669 49.5727C262.658 49.7595 261.792 49.7849 260.807 49.7849H260.247V48.8594ZM260.238 44.529H263.015V47.5348H261.342V49.216H260.247V46.6518H261.928V45.4206H260.238V44.529ZM265.715 43.7563H266.785V51.619H265.715V43.7563ZM263.338 46.431H264.56V47.3565H263.338V46.431ZM264.119 43.9007H265.163V51.2454H264.119V43.9007ZM273.076 43.7478H274.214V51.636H273.076V43.7478ZM269.977 44.2998C271.166 44.2998 272.04 45.3866 272.04 47.1018C272.04 48.8339 271.166 49.9208 269.977 49.9208C268.788 49.9208 267.914 48.8339 267.914 47.1018C267.914 45.3866 268.788 44.2998 269.977 44.2998ZM269.977 45.3272C269.391 45.3272 268.992 45.947 268.992 47.1018C268.992 48.2735 269.391 48.9019 269.977 48.9019C270.563 48.9019 270.953 48.2735 270.953 47.1018C270.953 45.947 270.563 45.3272 269.977 45.3272ZM279.486 44.7753H281.048V45.6838H279.486V44.7753ZM279.486 46.2951H281.048V47.1952H279.486V46.2951ZM277.134 44.2064H278.043V45.1064C278.043 46.7367 277.38 48.1462 275.894 48.6981L275.292 47.815C276.591 47.3565 277.134 46.2527 277.134 45.1064V44.2064ZM277.372 44.2064H278.28V45.1064C278.28 46.1848 278.79 47.2631 280.03 47.7301L279.41 48.6047C278.017 48.0528 277.372 46.6687 277.372 45.1064V44.2064ZM280.785 43.7648H281.915V49.5811H280.785V43.7648ZM276.71 50.5831H282.084V51.4831H276.71V50.5831ZM276.71 49.0462H277.847V51.152H276.71V49.0462ZM285.244 48.3878C285.244 47.64 285.343 46.9515 285.542 46.3223C285.744 45.6931 286.05 45.1102 286.462 44.5734H287.689C287.533 44.7725 287.387 45.0157 287.252 45.3031C287.117 45.5886 287 45.9022 286.899 46.2439C286.799 46.5856 286.72 46.9394 286.664 47.3053C286.608 47.6691 286.58 48.0299 286.58 48.3878C286.58 48.8642 286.628 49.3456 286.724 49.8321C286.823 50.3165 286.956 50.7668 287.122 51.1829C287.291 51.599 287.48 51.9397 287.689 52.2051H286.462C286.05 51.6684 285.744 51.0854 285.542 50.4562C285.343 49.827 285.244 49.1375 285.244 48.3878ZM288.491 44.4611H292.27V49.751H288.491V44.4611ZM291.166 45.3441H289.603V48.8594H291.166V45.3441ZM293.492 43.7478H294.63V51.636H293.492V43.7478ZM301.193 43.7563H302.322V51.619H301.193V43.7563ZM296.166 44.5035H297.287V49.3859H296.166V44.5035ZM296.166 48.7236H296.863C298.009 48.7236 299.283 48.6386 300.582 48.3839L300.709 49.3179C299.359 49.5981 298.06 49.683 296.863 49.683H296.166V48.7236ZM303.621 44.4526H304.682V46.2187H305.684V44.4526H306.728V49.7595H303.621V44.4526ZM304.682 47.1018V48.8594H305.684V47.1018H304.682ZM309.08 43.7563H310.159V51.619H309.08V43.7563ZM308.112 46.7536H309.42V47.6622H308.112V46.7536ZM307.357 43.8752H308.418V51.2624H307.357V43.8752ZM316.45 43.7563H317.588V51.619H316.45V43.7563ZM312.986 45.7942H313.877V46.2017C313.877 47.866 313.138 49.5387 311.687 50.167L311.084 49.3009C312.374 48.7236 312.986 47.3905 312.986 46.2017V45.7942ZM313.232 45.7942H314.115V46.2017C314.115 47.331 314.735 48.6217 316.034 49.1736L315.431 50.0397C313.979 49.4368 313.232 47.815 313.232 46.2017V45.7942ZM311.347 45.0385H315.72V45.93H311.347V45.0385ZM312.986 43.9346H314.115V45.497H312.986V43.9346ZM323.351 44.688V50.8633H322.045V45.9273H322.009L320.595 46.8138V45.6559L322.124 44.688H323.351ZM326.834 47.7757C326.834 48.5254 326.734 49.2149 326.533 49.8441C326.334 50.4733 326.028 51.0563 325.616 51.593H324.389C324.546 51.394 324.691 51.1507 324.826 50.8633C324.961 50.5758 325.078 50.2622 325.179 49.9225C325.279 49.5808 325.358 49.227 325.414 48.8611C325.47 48.4953 325.498 48.1335 325.498 47.7757C325.498 47.2992 325.449 46.8188 325.351 46.3344C325.254 45.8479 325.121 45.3976 324.953 44.9835C324.786 44.5674 324.598 44.2267 324.389 43.9613H325.616C326.028 44.4981 326.334 45.081 326.533 45.7102C326.734 46.3394 326.834 47.0279 326.834 47.7757Z" fill="black"/>
<path d="M220.882 67.2292H226.283V68.1292H220.882V67.2292ZM219.982 68.9019H227.106V69.8104H219.982V68.9019ZM222.954 69.4283H224.075V72.3068H222.954V69.4283ZM220.882 64.8687H226.206V65.7687H222.037V67.6622H220.882V64.8687ZM231.351 66.5414H233.372V67.4414H231.351V66.5414ZM233.083 64.4611H234.212V70.2605H233.083V64.4611ZM229.007 71.2794H234.382V72.1794H229.007V71.2794ZM229.007 69.6916H230.145V71.7973H229.007V69.6916ZM227.963 64.9706H229.084V66.1678H230.578V64.9706H231.682V69.0293H227.963V64.9706ZM229.084 67.0254V68.1377H230.578V67.0254H229.084ZM241.14 64.4526H242.193V72.3153H241.14V64.4526ZM240.274 67.4924H241.522V68.4009H240.274V67.4924ZM239.612 64.5715H240.648V71.9586H239.612V64.5715ZM236.029 65.9046H236.776V66.6348C236.776 68.0783 236.683 69.7425 235.698 70.5661L235.086 69.8104C235.961 69.0547 236.029 67.7471 236.029 66.6348V65.9046ZM236.258 65.9046H236.988V66.6348C236.988 67.6622 237.022 69.0462 237.922 69.8784L237.396 70.6595C236.326 69.785 236.258 67.9679 236.258 66.6348V65.9046ZM237.795 65.9046H238.525V66.6348C238.525 68.0019 238.449 69.785 237.396 70.6595L236.861 69.8784C237.769 69.0378 237.795 67.6877 237.795 66.6348V65.9046ZM238.007 65.9046H238.754V66.6348C238.754 67.7641 238.822 69.0547 239.697 69.8104L239.086 70.5661C238.109 69.7425 238.007 68.0953 238.007 66.6348V65.9046ZM235.35 65.3272H237.302V66.2187H235.35V65.3272ZM237.489 65.3272H239.323V66.2187H237.489V65.3272ZM250.127 64.4441H251.265V72.3322H250.127V64.4441ZM247.028 64.996C248.216 64.996 249.091 66.0829 249.091 67.7981C249.091 69.5302 248.216 70.6171 247.028 70.6171C245.839 70.6171 244.964 69.5302 244.964 67.7981C244.964 66.0829 245.839 64.996 247.028 64.996ZM247.028 66.0235C246.442 66.0235 246.043 66.6433 246.043 67.7981C246.043 68.9698 246.442 69.5982 247.028 69.5982C247.614 69.5982 248.004 68.9698 248.004 67.7981C248.004 66.6433 247.614 66.0235 247.028 66.0235ZM257.862 64.4441H258.982V72.3322H257.862V64.4441ZM256.512 67.2122H257.989V68.1292H256.512V67.2122ZM252.742 69.6406H253.37C254.669 69.6406 255.637 69.6236 256.749 69.4453L256.851 70.3454C255.713 70.5237 254.694 70.5576 253.37 70.5576H252.742V69.6406ZM252.742 65.1064H256.384V66.0235H253.862V69.9293H252.742V65.1064ZM253.608 67.2971H256.112V68.1802H253.608V67.2971ZM260.247 69.5557H260.807C261.758 69.5557 262.599 69.5302 263.575 69.3604L263.669 70.2689C262.658 70.4557 261.792 70.4812 260.807 70.4812H260.247V69.5557ZM260.238 65.2253H263.015V68.2311H261.342V69.9123H260.247V67.348H261.928V66.1169H260.238V65.2253ZM265.715 64.4526H266.785V72.3153H265.715V64.4526ZM263.338 67.1273H264.56V68.0528H263.338V67.1273ZM264.119 64.597H265.163V71.9417H264.119V64.597ZM273.076 64.4441H274.214V72.3322H273.076V64.4441ZM269.977 64.996C271.166 64.996 272.04 66.0829 272.04 67.7981C272.04 69.5302 271.166 70.6171 269.977 70.6171C268.788 70.6171 267.914 69.5302 267.914 67.7981C267.914 66.0829 268.788 64.996 269.977 64.996ZM269.977 66.0235C269.391 66.0235 268.992 66.6433 268.992 67.7981C268.992 68.9698 269.391 69.5982 269.977 69.5982C270.563 69.5982 270.953 68.9698 270.953 67.7981C270.953 66.6433 270.563 66.0235 269.977 66.0235ZM279.486 65.4715H281.048V66.3801H279.486V65.4715ZM279.486 66.9914H281.048V67.8915H279.486V66.9914ZM277.134 64.9026H278.043V65.8027C278.043 67.433 277.38 68.8425 275.894 69.3944L275.292 68.5113C276.591 68.0528 277.134 66.949 277.134 65.8027V64.9026ZM277.372 64.9026H278.28V65.8027C278.28 66.881 278.79 67.9594 280.03 68.4264L279.41 69.301C278.017 68.7491 277.372 67.365 277.372 65.8027V64.9026ZM280.785 64.4611H281.915V70.2774H280.785V64.4611ZM276.71 71.2794H282.084V72.1794H276.71V71.2794ZM276.71 69.7425H277.847V71.8483H276.71V69.7425ZM285.244 69.084C285.244 68.3363 285.343 67.6478 285.542 67.0186C285.744 66.3894 286.05 65.8065 286.462 65.2697H287.689C287.533 65.4687 287.387 65.712 287.252 65.9994C287.117 66.2849 287 66.5985 286.899 66.9402C286.799 67.2819 286.72 67.6357 286.664 68.0016C286.608 68.3654 286.58 68.7262 286.58 69.084C286.58 69.5605 286.628 70.0419 286.724 70.5284C286.823 71.0128 286.956 71.4631 287.122 71.8792C287.291 72.2953 287.48 72.636 287.689 72.9014H286.462C286.05 72.3646 285.744 71.7817 285.542 71.1525C285.343 70.5233 285.244 69.8338 285.244 69.084ZM288.491 65.1574H292.27V70.4473H288.491V65.1574ZM291.166 66.0404H289.603V69.5557H291.166V66.0404ZM293.492 64.4441H294.63V72.3322H293.492V64.4441ZM301.193 64.4526H302.322V72.3153H301.193V64.4526ZM296.166 65.1998H297.287V70.0821H296.166V65.1998ZM296.166 69.4198H296.863C298.009 69.4198 299.283 69.3349 300.582 69.0802L300.709 70.0142C299.359 70.2944 298.06 70.3793 296.863 70.3793H296.166V69.4198ZM303.621 65.1489H304.682V66.915H305.684V65.1489H306.728V70.4557H303.621V65.1489ZM304.682 67.7981V69.5557H305.684V67.7981H304.682ZM309.08 64.4526H310.159V72.3153H309.08V64.4526ZM308.112 67.4499H309.42V68.3585H308.112V67.4499ZM307.357 64.5715H308.418V71.9586H307.357V64.5715ZM316.45 64.4526H317.588V72.3153H316.45V64.4526ZM312.986 66.4905H313.877V66.898C313.877 68.5623 313.138 70.235 311.687 70.8633L311.084 69.9972C312.374 69.4198 312.986 68.0868 312.986 66.898V66.4905ZM313.232 66.4905H314.115V66.898C314.115 68.0273 314.735 69.318 316.034 69.8699L315.431 70.7359C313.979 70.1331 313.232 68.5113 313.232 66.898V66.4905ZM311.347 65.7348H315.72V66.6263H311.347V65.7348ZM312.986 64.6309H314.115V66.1933H312.986V64.6309ZM320.664 71.5596V70.6188L322.862 68.5835C323.049 68.4026 323.206 68.2398 323.333 68.095C323.461 67.9503 323.559 67.8086 323.625 67.6699C323.691 67.5292 323.725 67.3774 323.725 67.2146C323.725 67.0337 323.683 66.8779 323.601 66.7472C323.519 66.6145 323.406 66.513 323.263 66.4427C323.121 66.3703 322.959 66.3341 322.778 66.3341C322.589 66.3341 322.424 66.3723 322.283 66.4487C322.143 66.5251 322.034 66.6346 321.958 66.7774C321.881 66.9201 321.843 67.0899 321.843 67.2869H320.604C320.604 66.8829 320.695 66.5321 320.878 66.2346C321.061 65.9371 321.317 65.7069 321.647 65.5441C321.977 65.3813 322.357 65.2999 322.787 65.2999C323.229 65.2999 323.614 65.3783 323.942 65.5351C324.271 65.6899 324.528 65.905 324.711 66.1803C324.894 66.4557 324.985 66.7713 324.985 67.1271C324.985 67.3603 324.939 67.5905 324.846 67.8176C324.756 68.0448 324.594 68.2971 324.361 68.5745C324.128 68.8499 323.799 69.1805 323.375 69.5665L322.473 70.45V70.4922H325.066V71.5596H320.664ZM328.028 68.4719C328.028 69.2217 327.928 69.9112 327.727 70.5404C327.528 71.1696 327.222 71.7525 326.81 72.2893H325.583C325.74 72.0903 325.885 71.847 326.02 71.5596C326.155 71.2721 326.272 70.9585 326.373 70.6188C326.473 70.2771 326.552 69.9233 326.608 69.5574C326.664 69.1916 326.692 68.8298 326.692 68.4719C326.692 67.9955 326.643 67.5151 326.545 67.0306C326.448 66.5442 326.316 66.0939 326.147 65.6798C325.98 65.2637 325.792 64.923 325.583 64.6576H326.81C327.222 65.1944 327.528 65.7773 327.727 66.4065C327.928 67.0357 328.028 67.7242 328.028 68.4719Z" fill="black"/>
<path d="M223.081 87.7896H224.381V88.7066H223.081V87.7896ZM221.4 85.8282H222.266V87.1528C222.266 88.9359 221.774 90.6765 220.517 91.4492L219.838 90.6001C220.993 89.8869 221.4 88.4859 221.4 87.1528V85.8282ZM221.646 85.8282H222.496V87.1018C222.496 88.384 222.827 89.6916 223.897 90.3878L223.285 91.2709C222.037 90.4982 221.646 88.8 221.646 87.1018V85.8282ZM225.663 85.1489H226.741V93.0116H225.663V85.1489ZM224.066 85.2678H225.119V92.6549H224.066V85.2678ZM231.351 87.2377H233.372V88.1377H231.351V87.2377ZM233.083 85.1574H234.212V90.9567H233.083V85.1574ZM229.007 91.9757H234.382V92.8757H229.007V91.9757ZM229.007 90.3878H230.145V92.4936H229.007V90.3878ZM227.963 85.6669H229.084V86.8641H230.578V85.6669H231.682V89.7255H227.963V85.6669ZM229.084 87.7217V88.834H230.578V87.7217H229.084ZM241.14 85.1489H242.193V93.0116H241.14V85.1489ZM240.274 88.1887H241.522V89.0972H240.274V88.1887ZM239.612 85.2678H240.648V92.6549H239.612V85.2678ZM236.029 86.6009H236.776V87.3311C236.776 88.7746 236.683 90.4388 235.698 91.2624L235.086 90.5067C235.961 89.751 236.029 88.4434 236.029 87.3311V86.6009ZM236.258 86.6009H236.988V87.3311C236.988 88.3585 237.022 89.7425 237.922 90.5746L237.396 91.3558C236.326 90.4812 236.258 88.6642 236.258 87.3311V86.6009ZM237.795 86.6009H238.525V87.3311C238.525 88.6981 238.449 90.4812 237.396 91.3558L236.861 90.5746C237.769 89.734 237.795 88.384 237.795 87.3311V86.6009ZM238.007 86.6009H238.754V87.3311C238.754 88.4604 238.822 89.751 239.697 90.5067L239.086 91.2624C238.109 90.4388 238.007 88.7915 238.007 87.3311V86.6009ZM235.35 86.0235H237.302V86.915H235.35V86.0235ZM237.489 86.0235H239.323V86.915H237.489V86.0235ZM250.127 85.1404H251.265V93.0285H250.127V85.1404ZM247.028 85.6923C248.216 85.6923 249.091 86.7792 249.091 88.4944C249.091 90.2265 248.216 91.3134 247.028 91.3134C245.839 91.3134 244.964 90.2265 244.964 88.4944C244.964 86.7792 245.839 85.6923 247.028 85.6923ZM247.028 86.7197C246.442 86.7197 246.043 87.3396 246.043 88.4944C246.043 89.6661 246.442 90.2944 247.028 90.2944C247.614 90.2944 248.004 89.6661 248.004 88.4944C248.004 87.3396 247.614 86.7197 247.028 86.7197ZM257.862 85.1404H258.982V93.0285H257.862V85.1404ZM256.512 87.9085H257.989V88.8255H256.512V87.9085ZM252.742 90.3369H253.37C254.669 90.3369 255.637 90.3199 256.749 90.1416L256.851 91.0416C255.713 91.22 254.694 91.2539 253.37 91.2539H252.742V90.3369ZM252.742 85.8027H256.384V86.7197H253.862V90.6256H252.742V85.8027ZM253.608 87.9934H256.112V88.8765H253.608V87.9934ZM260.247 90.252H260.807C261.758 90.252 262.599 90.2265 263.575 90.0567L263.669 90.9652C262.658 91.152 261.792 91.1775 260.807 91.1775H260.247V90.252ZM260.238 85.9216H263.015V88.9274H261.342V90.6086H260.247V88.0443H261.928V86.8131H260.238V85.9216ZM265.715 85.1489H266.785V93.0116H265.715V85.1489ZM263.338 87.8236H264.56V88.7491H263.338V87.8236ZM264.119 85.2933H265.163V92.638H264.119V85.2933ZM273.076 85.1404H274.214V93.0285H273.076V85.1404ZM269.977 85.6923C271.166 85.6923 272.04 86.7792 272.04 88.4944C272.04 90.2265 271.166 91.3134 269.977 91.3134C268.788 91.3134 267.914 90.2265 267.914 88.4944C267.914 86.7792 268.788 85.6923 269.977 85.6923ZM269.977 86.7197C269.391 86.7197 268.992 87.3396 268.992 88.4944C268.992 89.6661 269.391 90.2944 269.977 90.2944C270.563 90.2944 270.953 89.6661 270.953 88.4944C270.953 87.3396 270.563 86.7197 269.977 86.7197ZM279.486 86.1678H281.048V87.0764H279.486V86.1678ZM279.486 87.6877H281.048V88.5878H279.486V87.6877ZM277.134 85.5989H278.043V86.499C278.043 88.1292 277.38 89.5387 275.894 90.0907L275.292 89.2076C276.591 88.7491 277.134 87.6453 277.134 86.499V85.5989ZM277.372 85.5989H278.28V86.499C278.28 87.5773 278.79 88.6557 280.03 89.1227L279.41 89.9973C278.017 89.4453 277.372 88.0613 277.372 86.499V85.5989ZM280.785 85.1574H281.915V90.9737H280.785V85.1574ZM276.71 91.9757H282.084V92.8757H276.71V91.9757ZM276.71 90.4388H277.847V92.5446H276.71V90.4388ZM285.244 89.7803C285.244 89.0325 285.343 88.3441 285.542 87.7149C285.744 87.0857 286.05 86.5027 286.462 85.966H287.689C287.533 86.165 287.387 86.4083 287.252 86.6957C287.117 86.9812 287 87.2948 286.899 87.6365C286.799 87.9782 286.72 88.332 286.664 88.6979C286.608 89.0617 286.58 89.4225 286.58 89.7803C286.58 90.2567 286.628 90.7382 286.724 91.2246C286.823 91.7091 286.956 92.1594 287.122 92.5755C287.291 92.9916 287.48 93.3323 287.689 93.5977H286.462C286.05 93.0609 285.744 92.478 285.542 91.8488C285.343 91.2196 285.244 90.5301 285.244 89.7803ZM288.491 85.8537H292.27V91.1435H288.491V85.8537ZM291.166 86.7367H289.603V90.252H291.166V86.7367ZM293.492 85.1404H294.63V93.0285H293.492V85.1404ZM301.193 85.1489H302.322V93.0116H301.193V85.1489ZM296.166 85.8961H297.287V90.7784H296.166V85.8961ZM296.166 90.1161H296.863C298.009 90.1161 299.283 90.0312 300.582 89.7765L300.709 90.7105C299.359 90.9907 298.06 91.0756 296.863 91.0756H296.166V90.1161ZM303.621 85.8452H304.682V87.6113H305.684V85.8452H306.728V91.152H303.621V85.8452ZM304.682 88.4944V90.252H305.684V88.4944H304.682ZM309.08 85.1489H310.159V93.0116H309.08V85.1489ZM308.112 88.1462H309.42V89.0548H308.112V88.1462ZM307.357 85.2678H308.418V92.6549H307.357V85.2678ZM316.45 85.1489H317.588V93.0116H316.45V85.1489ZM312.986 87.1867H313.877V87.5943C313.877 89.2585 313.138 90.9313 311.687 91.5596L311.084 90.6935C312.374 90.1161 312.986 88.7831 312.986 87.5943V87.1867ZM313.232 87.1867H314.115V87.5943C314.115 88.7236 314.735 90.0142 316.034 90.5662L315.431 91.4322C313.979 90.8294 313.232 89.2076 313.232 87.5943V87.1867ZM311.347 86.4311H315.72V87.3226H311.347V86.4311ZM312.986 85.3272H314.115V86.8896H312.986V85.3272ZM322.947 92.3403C322.496 92.3403 322.095 92.2629 321.744 92.1081C321.394 91.9513 321.117 91.7362 320.914 91.4628C320.713 91.1875 320.61 90.8698 320.604 90.51H321.919C321.927 90.6608 321.976 90.7935 322.066 90.908C322.159 91.0206 322.281 91.1081 322.434 91.1704C322.587 91.2327 322.759 91.2638 322.95 91.2638C323.149 91.2638 323.325 91.2287 323.477 91.1583C323.63 91.0879 323.75 90.9905 323.836 90.8658C323.923 90.7412 323.966 90.5975 323.966 90.4346C323.966 90.2698 323.92 90.1241 323.827 89.9974C323.737 89.8688 323.606 89.7683 323.435 89.6959C323.266 89.6235 323.065 89.5874 322.832 89.5874H322.256V88.6285H322.832C323.029 88.6285 323.203 88.5943 323.354 88.526C323.507 88.4576 323.625 88.3632 323.71 88.2425C323.794 88.1199 323.836 87.9772 323.836 87.8144C323.836 87.6596 323.799 87.5239 323.725 87.4073C323.652 87.2887 323.55 87.1963 323.417 87.1299C323.286 87.0636 323.134 87.0304 322.959 87.0304C322.782 87.0304 322.62 87.0626 322.473 87.1269C322.327 87.1892 322.209 87.2787 322.121 87.3953C322.032 87.5118 321.985 87.6485 321.979 87.8053H320.727C320.734 87.4495 320.835 87.1359 321.032 86.8646C321.229 86.5932 321.494 86.3811 321.828 86.2284C322.164 86.0736 322.543 85.9962 322.965 85.9962C323.391 85.9962 323.764 86.0736 324.083 86.2284C324.403 86.3831 324.651 86.5922 324.828 86.8555C325.007 87.1168 325.096 87.4103 325.094 87.736C325.096 88.0817 324.988 88.3702 324.771 88.6014C324.556 88.8325 324.275 88.9793 323.93 89.0416V89.0898C324.384 89.1481 324.73 89.3059 324.967 89.5632C325.206 89.8185 325.325 90.1381 325.323 90.5221C325.325 90.8739 325.223 91.1864 325.018 91.4598C324.815 91.7332 324.535 91.9483 324.177 92.1051C323.819 92.2619 323.409 92.3403 322.947 92.3403ZM328.277 89.1682C328.277 89.918 328.176 90.6075 327.975 91.2367C327.776 91.8659 327.471 92.4488 327.059 92.9856H325.832C325.988 92.7865 326.134 92.5433 326.269 92.2559C326.403 91.9684 326.521 91.6548 326.622 91.3151C326.722 90.9734 326.8 90.6196 326.857 90.2537C326.913 89.8879 326.941 89.526 326.941 89.1682C326.941 88.6918 326.892 88.2114 326.793 87.7269C326.697 87.2405 326.564 86.7902 326.395 86.3761C326.229 85.96 326.041 85.6193 325.832 85.3539H327.059C327.471 85.8906 327.776 86.4736 327.975 87.1028C328.176 87.732 328.277 88.4204 328.277 89.1682Z" fill="black"/>
<path d="M342.762 48.2922L345.295 42.9853L339.167 42.9854L341.701 48.2922L342.762 48.2922ZM341.701 87.563L339.168 92.8698L345.295 92.8698L342.762 87.563L341.701 87.563ZM341.701 47.7615L341.701 88.0937L342.762 88.0937L342.762 47.7615L341.701 47.7615Z" fill="black"/>
</svg>
