<svg width="412" height="180" viewBox="0 0 412 180" fill="none" xmlns="http://www.w3.org/2000/svg">
<path d="M197.5 154.834C197.752 154.582 197.752 154.174 197.5 153.922L193.399 149.821C193.147 149.569 192.739 149.569 192.488 149.821C192.236 150.073 192.236 150.481 192.488 150.732L196.133 154.378L192.488 158.023C192.236 158.275 192.236 158.683 192.488 158.935C192.739 159.187 193.147 159.187 193.399 158.935L197.5 154.834ZM5 155.022H197.044V153.733H5V155.022Z" fill="black"/>
<path d="M5.45568 0.544464C5.20401 0.292786 4.79597 0.292786 4.5443 0.544464L0.443083 4.64568C0.191412 4.89735 0.191412 5.30539 0.443083 5.55707C0.694754 5.80873 1.10279 5.80873 1.35447 5.55707L4.99999 1.91153L8.64552 5.55707C8.89719 5.80873 9.30523 5.80873 9.5569 5.55707C9.80858 5.30539 9.80858 4.89735 9.5569 4.64568L5.45568 0.544464ZM5.64444 154.378L5.64444 1.00015L4.35555 1.00015L4.35556 154.378L5.64444 154.378Z" fill="black"/>
<circle cx="97.1554" cy="71.2443" r="63.8" stroke="black" stroke-width="1.28889"/>
<circle cx="97.1552" cy="71.244" r="50.9111" stroke="black" stroke-width="1.28889"/>
<circle cx="97.155" cy="71.2448" r="38.0222" stroke="black" stroke-width="1.28889"/>
<circle cx="97.1547" cy="71.2446" r="25.1333" stroke="black" stroke-width="1.28889"/>
<circle cx="97.1545" cy="71.2444" r="12.2444" stroke="black" stroke-width="1.28889"/>
<path d="M411.455 154.834C411.707 154.582 411.707 154.174 411.455 153.922L407.354 149.821C407.102 149.569 406.694 149.569 406.443 149.821C406.191 150.073 406.191 150.481 406.443 150.732L410.088 154.378L406.443 158.023C406.191 158.275 406.191 158.683 406.443 158.935C406.694 159.187 407.102 159.187 407.354 158.935L411.455 154.834ZM218.955 155.022H411V153.733H218.955V155.022Z" fill="black"/>
<path d="M219.411 0.544464C219.159 0.292786 218.751 0.292786 218.499 0.544464L214.398 4.64568C214.146 4.89735 214.146 5.30539 214.398 5.55707C214.65 5.80873 215.058 5.80873 215.31 5.55707L218.955 1.91153L222.601 5.55707C222.852 5.80873 223.26 5.80873 223.512 5.55707C223.764 5.30539 223.764 4.89735 223.512 4.64568L219.411 0.544464ZM219.6 154.378L219.6 1.00015L218.311 1.00015L218.311 154.378L219.6 154.378Z" fill="black"/>
<circle cx="311.11" cy="71.2443" r="63.8" stroke="black" stroke-width="1.28889"/>
<circle cx="259.555" cy="36.4449" r="3.22222" fill="#929DFF"/>
<path d="M302.089 60.9335L298.959 58.922L298.782 62.6385L302.089 60.9335ZM288.54 60.6109L299.177 61.1174L299.208 60.4737L288.571 59.9672L288.54 60.6109Z" fill="#929CFF"/>
<path d="M309.822 68.6661L309.759 64.9459L306.569 66.8602L309.822 68.6661ZM305.679 62.3875L308.053 66.3452L308.606 66.0136L306.231 62.0559L305.679 62.3875Z" fill="#929CFF"/>
<circle cx="311.11" cy="71.244" r="50.9111" stroke="black" stroke-width="1.28889"/>
<circle cx="311.11" cy="71.2448" r="38.0222" stroke="black" stroke-width="1.28889"/>
<circle cx="311.11" cy="71.2446" r="25.1333" stroke="black" stroke-width="1.28889"/>
<circle cx="311.112" cy="71.2444" r="12.2444" stroke="black" stroke-width="1.28889"/>
<circle cx="40.4449" cy="38.3785" r="3.22222" fill="#929DFF"/>
<circle cx="57.2007" cy="45.4673" r="3.22222" fill="#929DFF"/>
<circle cx="72.023" cy="53.2007" r="3.22222" fill="#929DFF"/>
<circle cx="83.6226" cy="60.2886" r="3.22222" fill="#929DFF"/>
<circle cx="92.6451" cy="68.023" r="3.22222" fill="#929DFF"/>
<path d="M53.9779 44.178L51.789 41.1693L50.2779 44.5694L53.9779 44.178ZM42.2471 39.3169L51.197 43.2947L51.4587 42.7058L42.5088 38.728L42.2471 39.3169Z" fill="#929CFF"/>
<path d="M68.7994 51.9113L66.903 48.7102L65.0789 51.953L68.7994 51.9113ZM58.3303 46.3922L66.1139 50.7704L66.4298 50.2087L58.6463 45.8305L58.3303 46.3922Z" fill="#929CFF"/>
<path d="M81.0447 59.0002L79.3402 55.6929L77.3282 58.8226L81.0447 59.0002ZM71.8482 53.4712L78.431 57.703L78.7795 57.161L72.1967 52.9291L71.8482 53.4712Z" fill="#929CFF"/>
<path d="M90.7119 66.0891L89.3961 62.6088L87.04 65.4885L90.7119 66.0891ZM83.419 60.5384L88.2634 64.5021L88.6715 64.0033L83.8271 60.0397L83.419 60.5384Z" fill="#929CFF"/>
<circle cx="278.245" cy="42.2447" r="3.22222" fill="#929DFF"/>
<circle cx="287.266" cy="59.6441" r="3.22222" fill="#929DFF"/>
<circle cx="305.31" cy="62.2222" r="3.22222" fill="#929DFF"/>
<circle cx="311.111" cy="71.2447" r="3.22222" fill="#929DFF"/>
<path d="M275.022 40.9565L272.434 38.2825L271.412 41.8601L275.022 40.9565ZM261.4 37.3997L272.145 40.4696L272.322 39.85L261.577 36.78L261.4 37.3997Z" fill="#929CFF"/>
<path d="M285.978 57.0657L286.28 53.3573L282.917 54.9501L285.978 57.0657ZM279.887 44.9592L284.445 54.5828L285.027 54.307L280.469 44.6834L279.887 44.9592Z" fill="#929CFF"/>
<path d="M58.9359 176.673V167.406H61.8249V168.57H60.4445V175.505H61.8249V176.673H58.9359ZM62.5484 167.259H63.8373V169.404H65.054V167.259H66.3223V173.704H62.5484V167.259ZM63.8373 170.476V172.611H65.054V170.476H63.8373ZM69.1785 166.414H70.488V175.962H69.1785V166.414ZM68.003 170.053H69.5909V171.157H68.003V170.053ZM67.0853 166.558H68.3742V175.529H67.0853V166.558ZM78.1277 166.414H79.5094V175.962H78.1277V166.414ZM73.9208 168.888H75.0035V169.383C75.0035 171.404 74.1064 173.435 72.3432 174.198L71.6111 173.147C73.1784 172.446 73.9208 170.827 73.9208 169.383V168.888ZM74.2198 168.888H75.2922V169.383C75.2922 170.755 76.0449 172.322 77.6225 172.992L76.8904 174.044C75.1272 173.312 74.2198 171.342 74.2198 169.383V168.888ZM71.9308 167.971H77.241V169.053H71.9308V167.971ZM73.9208 166.63H75.2922V168.527H73.9208V166.63ZM87.6487 167.919H89.8862V169.012H87.6487V167.919ZM87.5765 169.899H89.814V170.992H87.5765V169.899ZM89.6697 166.414H91.041V171.909H89.6697V166.414ZM86.5557 167.063H88.0199C88.0199 169.662 86.5557 171.332 83.6583 172.126L83.1221 171.043C85.5452 170.414 86.5557 169.218 86.5557 167.723V167.063ZM83.648 167.063H87.5146V168.156H83.648V167.063ZM87.8755 172.033C89.814 172.033 91.1029 172.776 91.1029 173.972C91.1029 175.168 89.814 175.92 87.8755 175.92C85.937 175.92 84.6481 175.168 84.6481 173.972C84.6481 172.776 85.937 172.033 87.8755 172.033ZM87.8755 173.085C86.7104 173.085 86.0092 173.384 86.0092 173.972C86.0092 174.559 86.7104 174.848 87.8755 174.848C89.051 174.848 89.7521 174.559 89.7521 173.972C89.7521 173.384 89.051 173.085 87.8755 173.085ZM94.4841 167.146H95.5977V168.538C95.5977 170.899 94.7728 173.116 92.9684 174.003L92.1435 172.899C93.752 172.147 94.4841 170.311 94.4841 168.538V167.146ZM94.7625 167.146H95.8555V168.538C95.8555 170.249 96.536 171.992 98.0621 172.734L97.2372 173.827C95.5152 172.951 94.7625 170.827 94.7625 168.538V167.146ZM98.4436 166.414H99.8253V175.962H98.4436V166.414ZM99.516 170.084H101.207V171.229H99.516V170.084ZM107.754 166.414H109.115V175.962H107.754V166.414ZM108.805 170.136H110.496V171.28H108.805V170.136ZM101.588 167.826H107.145V168.919H101.588V167.826ZM104.382 169.455C105.774 169.455 106.805 170.404 106.805 171.734C106.805 173.064 105.774 174.013 104.382 174.013C102.99 174.013 101.959 173.064 101.959 171.734C101.959 170.404 102.99 169.455 104.382 169.455ZM104.382 170.569C103.732 170.569 103.268 171.002 103.268 171.734C103.268 172.466 103.732 172.899 104.382 172.899C105.032 172.899 105.496 172.466 105.496 171.734C105.496 171.002 105.032 170.569 104.382 170.569ZM103.691 166.568H105.063V168.239H103.691V166.568ZM117.064 166.414H118.435V171.94H117.064V166.414ZM118.054 168.641H119.704V169.765H118.054V168.641ZM114.331 167.032H115.806C115.806 169.6 114.218 171.384 111.403 172.167L110.846 171.074C113.146 170.445 114.331 169.198 114.331 167.723V167.032ZM111.3 167.032H115.167V168.136H111.3V167.032ZM115.342 172.064C117.27 172.064 118.538 172.817 118.538 174.013C118.538 175.219 117.27 175.972 115.342 175.972C113.414 175.972 112.125 175.219 112.125 174.013C112.125 172.817 113.414 172.064 115.342 172.064ZM115.342 173.126C114.177 173.126 113.486 173.435 113.486 174.013C113.486 174.601 114.177 174.91 115.342 174.91C116.507 174.91 117.198 174.601 117.198 174.013C117.198 173.435 116.507 173.126 115.342 173.126ZM120.61 166.898H121.971V168.105H123.786V166.898H125.126V171.363H120.61V166.898ZM121.971 169.146V170.27H123.786V169.146H121.971ZM124.817 168.589H127.137V169.692H124.817V168.589ZM126.828 166.414H128.199V171.641H126.828V166.414ZM121.858 172.043H123.219V172.899H126.838V172.043H128.199V175.848H121.858V172.043ZM123.219 173.951V174.755H126.838V173.951H123.219ZM132.212 167.406V176.673H129.323V175.505H130.703V168.57H129.323V167.406H132.212Z" fill="black"/>
<path d="M268.38 176.673V167.406H271.269V168.57H269.889V175.505H271.269V176.673H268.38ZM272.199 167.269H276.787V173.693H272.199V167.269ZM275.447 168.342H273.55V172.611H275.447V168.342ZM278.272 166.403H279.654V175.982H278.272V166.403ZM287.624 166.414H288.995V175.962H287.624V166.414ZM281.519 167.321H282.881V173.25H281.519V167.321ZM281.519 172.446H282.365C283.757 172.446 285.304 172.342 286.881 172.033L287.036 173.167C285.396 173.508 283.819 173.611 282.365 173.611H281.519V172.446ZM290.572 167.259H291.861V169.404H293.077V167.259H294.346V173.704H290.572V167.259ZM291.861 170.476V172.611H293.077V170.476H291.861ZM297.202 166.414H298.511V175.962H297.202V166.414ZM296.026 170.053H297.614V171.157H296.026V170.053ZM295.109 166.558H296.398V175.529H295.109V166.558ZM306.151 166.414H307.533V175.962H306.151V166.414ZM301.944 168.888H303.027V169.383C303.027 171.404 302.13 173.435 300.367 174.198L299.634 173.147C301.202 172.446 301.944 170.827 301.944 169.383V168.888ZM302.243 168.888H303.316V169.383C303.316 170.755 304.068 172.322 305.646 172.992L304.914 174.044C303.151 173.312 302.243 171.342 302.243 169.383V168.888ZM299.954 167.971H305.264V169.053H299.954V167.971ZM301.944 166.63H303.316V168.527H301.944V166.63ZM315.672 167.919H317.91V169.012H315.672V167.919ZM315.6 169.899H317.837V170.992H315.6V169.899ZM317.693 166.414H319.064V171.909H317.693V166.414ZM314.579 167.063H316.043C316.043 169.662 314.579 171.332 311.682 172.126L311.145 171.043C313.569 170.414 314.579 169.218 314.579 167.723V167.063ZM311.671 167.063H315.538V168.156H311.671V167.063ZM315.899 172.033C317.837 172.033 319.126 172.776 319.126 173.972C319.126 175.168 317.837 175.92 315.899 175.92C313.96 175.92 312.671 175.168 312.671 173.972C312.671 172.776 313.96 172.033 315.899 172.033ZM315.899 173.085C314.734 173.085 314.033 173.384 314.033 173.972C314.033 174.559 314.734 174.848 315.899 174.848C317.074 174.848 317.775 174.559 317.775 173.972C317.775 173.384 317.074 173.085 315.899 173.085ZM322.507 167.146H323.621V168.538C323.621 170.899 322.796 173.116 320.992 174.003L320.167 172.899C321.775 172.147 322.507 170.311 322.507 168.538V167.146ZM322.786 167.146H323.879V168.538C323.879 170.249 324.559 171.992 326.085 172.734L325.261 173.827C323.539 172.951 322.786 170.827 322.786 168.538V167.146ZM326.467 166.414H327.849V175.962H326.467V166.414ZM327.539 170.084H329.23V171.229H327.539V170.084ZM335.777 166.414H337.138V175.962H335.777V166.414ZM336.829 170.136H338.52V171.28H336.829V170.136ZM329.611 167.826H335.169V168.919H329.611V167.826ZM332.405 169.455C333.797 169.455 334.828 170.404 334.828 171.734C334.828 173.064 333.797 174.013 332.405 174.013C331.013 174.013 329.982 173.064 329.982 171.734C329.982 170.404 331.013 169.455 332.405 169.455ZM332.405 170.569C331.756 170.569 331.292 171.002 331.292 171.734C331.292 172.466 331.756 172.899 332.405 172.899C333.055 172.899 333.519 172.466 333.519 171.734C333.519 171.002 333.055 170.569 332.405 170.569ZM331.715 166.568H333.086V168.239H331.715V166.568ZM345.087 166.414H346.459V171.94H345.087V166.414ZM346.077 168.641H347.727V169.765H346.077V168.641ZM342.355 167.032H343.829C343.829 169.6 342.241 171.384 339.426 172.167L338.87 171.074C341.169 170.445 342.355 169.198 342.355 167.723V167.032ZM339.323 167.032H343.19V168.136H339.323V167.032ZM343.365 172.064C345.293 172.064 346.562 172.817 346.562 174.013C346.562 175.219 345.293 175.972 343.365 175.972C341.437 175.972 340.148 175.219 340.148 174.013C340.148 172.817 341.437 172.064 343.365 172.064ZM343.365 173.126C342.2 173.126 341.509 173.435 341.509 174.013C341.509 174.601 342.2 174.91 343.365 174.91C344.53 174.91 345.221 174.601 345.221 174.013C345.221 173.435 344.53 173.126 343.365 173.126ZM348.633 166.898H349.994V168.105H351.809V166.898H353.15V171.363H348.633V166.898ZM349.994 169.146V170.27H351.809V169.146H349.994ZM352.84 168.589H355.16V169.692H352.84V168.589ZM354.851 166.414H356.222V171.641H354.851V166.414ZM349.881 172.043H351.242V172.899H354.861V172.043H356.222V175.848H349.881V172.043ZM351.242 173.951V174.755H354.861V173.951H351.242ZM360.235 167.406V176.673H357.346V175.505H358.727V168.57H357.346V167.406H360.235Z" fill="black"/>
</svg>
