<svg width="427" height="107" viewBox="0 0 427 107" fill="none" xmlns="http://www.w3.org/2000/svg">
<g filter="url(#filter0_d_2150_1408)">
<rect x="3" width="421.176" height="101.203" rx="6.06008" fill="#A8A8A8"/>
<rect x="24.2109" y="12.7266" width="75.145" height="75.145" rx="6.06008" fill="#51F19C"/>
<rect x="327.215" y="12.7266" width="75.145" height="75.145" rx="6.06008" fill="#51A1F1"/>
<path d="M48.4982 42.9609H50.9162V52.8146H48.4982V42.9609ZM49.9526 46.9969H53.1523V48.9967H49.9526V46.9969ZM39.9716 53.469H42.3533V54.7417H48.5164V53.469H50.9162V59.614H39.9716V53.469ZM42.3533 56.5597V57.7232H48.5164V56.5597H42.3533ZM37.6628 44.4153H47.571V46.3242H37.6628V44.4153ZM42.626 46.7787C45.0621 46.7787 46.7529 47.9786 46.7529 49.7603C46.7529 51.5419 45.0621 52.7418 42.626 52.7418C40.1716 52.7418 38.4809 51.5419 38.4809 49.7603C38.4809 47.9786 40.1716 46.7787 42.626 46.7787ZM42.626 48.5422C41.5352 48.5422 40.8079 48.9785 40.8079 49.7603C40.8079 50.5602 41.5352 50.9784 42.626 50.9784C43.6986 50.9784 44.444 50.5602 44.444 49.7603C44.444 48.9785 43.6986 48.5422 42.626 48.5422ZM41.4079 42.8336H43.8259V45.4879H41.4079V42.8336ZM57.9505 43.8335H59.9685V45.3425C59.9685 48.724 58.4595 51.6874 55.1507 52.7964L53.8963 50.8511C56.7688 49.9239 57.9505 47.6514 57.9505 45.3425V43.8335ZM58.4595 43.8335H60.4048V45.2334C60.4048 47.4696 61.4956 49.5421 64.1681 50.3966L62.9137 52.2873C59.8049 51.2147 58.4595 48.5058 58.4595 45.2334V43.8335ZM65.7135 42.9609H68.1314V52.8146H65.7135V42.9609ZM62.4228 53.2509C65.9862 53.2509 68.186 54.469 68.186 56.5233C68.186 58.5959 65.9862 59.7958 62.4228 59.7958C58.8595 59.7958 56.6597 58.5959 56.6597 56.5233C56.6597 54.469 58.8595 53.2509 62.4228 53.2509ZM62.4228 55.1235C60.2412 55.1235 59.0777 55.578 59.0777 56.5233C59.0777 57.4687 60.2412 57.9414 62.4228 57.9414C64.6226 57.9414 65.7862 57.4687 65.7862 56.5233C65.7862 55.578 64.6226 55.1235 62.4228 55.1235ZM62.641 46.0151H66.0589V47.9786H62.641V46.0151ZM72.166 43.5608H82.8197V45.4697H72.166V43.5608ZM70.4571 49.9603H85.6194V51.8692H70.4571V49.9603ZM76.0748 47.215H78.4746V50.5784H76.0748V47.215ZM81.4198 43.5608H83.8196V44.6153C83.8196 45.7424 83.8196 47.2514 83.3832 49.1967L80.9835 48.9785C81.4198 47.0514 81.4198 45.7061 81.4198 44.6153V43.5608ZM72.2388 52.8509H74.6385V54.4326H81.4016V52.8509H83.7832V59.614H72.2388V52.8509ZM74.6385 56.2506V57.705H81.4016V56.2506H74.6385Z" fill="black"/>
<path d="M349.873 43.3426H362.417V45.1425H349.873V43.3426ZM350 47.2878H362.29V49.0876H350V47.2878ZM352.018 44.0517H354.436V48.4513H352.018V44.0517ZM357.854 44.0517H360.272V48.4513H357.854V44.0517ZM348.546 50.1057H363.762V51.9783H348.546V50.1057ZM354.927 48.5967H357.345V50.9602H354.927V48.5967ZM350.291 52.8327H361.926V57.0142H352.691V58.5959H350.309V55.3962H359.545V54.5599H350.291V52.8327ZM350.309 57.9232H362.363V59.6867H350.309V57.9232ZM376.487 42.979H378.923V53.1782H376.487V42.979ZM365.797 50.5602H367.27C370.542 50.5602 372.669 50.4875 375.105 50.0875L375.378 52.0146C372.869 52.451 370.633 52.5055 367.27 52.5055H365.797V50.5602ZM365.779 43.9608H373.524V49.0876H368.179V51.651H365.797V47.2878H371.142V45.8879H365.779V43.9608ZM373.251 53.4872C376.814 53.4872 379.032 54.6326 379.032 56.6506C379.032 58.6504 376.814 59.814 373.251 59.814C369.688 59.814 367.506 58.6504 367.506 56.6506C367.506 54.6326 369.688 53.4872 373.251 53.4872ZM373.251 55.3598C371.051 55.3598 369.906 55.7598 369.906 56.6506C369.906 57.5232 371.051 57.9414 373.251 57.9414C375.469 57.9414 376.614 57.5232 376.614 56.6506C376.614 55.7598 375.469 55.3598 373.251 55.3598Z" fill="black"/>
<path d="M176.319 51.5098L161.168 42.7628V60.2567L176.319 51.5098ZM99.3555 53.0248H162.683V49.9947H99.3555V53.0248Z" fill="white"/>
<path d="M327.214 51.5098L312.064 42.7628V60.2567L327.214 51.5098ZM251.463 53.0248H313.579V49.9947H251.463V53.0248Z" fill="white"/>
<rect x="175.713" y="12.7266" width="75.145" height="75.145" rx="6.06008" fill="#F1E651"/>
<path d="M200.37 29.0234H202.788V38.9134H200.37V29.0234ZM201.933 32.9867H204.897V34.9683H201.933V32.9867ZM191.462 39.5315H202.788V43.3494H193.88V44.6947H191.48V41.8586H200.406V41.1314H191.462V39.5315ZM191.48 44.1493H203.37V45.7492H191.48V44.1493ZM193.243 35.7501H195.661V38.1499H193.243V35.7501ZM189.48 38.768L189.225 37.1318C192.207 37.1318 196.225 37.1136 199.625 36.6591L199.806 38.1317C196.261 38.7498 192.389 38.768 189.48 38.768ZM189.662 30.0778H199.206V31.6777H189.662V30.0778ZM194.443 31.9867C196.934 31.9867 198.534 32.8049 198.534 34.1866C198.534 35.5864 196.934 36.4045 194.443 36.4045C191.934 36.4045 190.334 35.5864 190.334 34.1866C190.334 32.8049 191.934 31.9867 194.443 31.9867ZM194.443 33.4775C193.298 33.4775 192.625 33.6957 192.625 34.1866C192.625 34.6774 193.298 34.9138 194.443 34.9138C195.589 34.9138 196.243 34.6774 196.243 34.1866C196.243 33.6957 195.589 33.4775 194.443 33.4775ZM193.243 28.8779H195.661V30.9687H193.243V28.8779ZM209.713 29.896H211.731V31.405C211.731 34.7865 210.222 37.7499 206.913 38.8589L205.659 36.9136C208.531 35.9864 209.713 33.7139 209.713 31.405V29.896ZM210.222 29.896H212.168V31.2959C212.168 33.5321 213.258 35.6046 215.931 36.4591L214.676 38.3498C211.568 37.2772 210.222 34.5683 210.222 31.2959V29.896ZM217.476 29.0234H219.894V38.8771H217.476V29.0234ZM214.186 39.3134C217.749 39.3134 219.949 40.5315 219.949 42.5858C219.949 44.6584 217.749 45.8583 214.186 45.8583C210.622 45.8583 208.422 44.6584 208.422 42.5858C208.422 40.5315 210.622 39.3134 214.186 39.3134ZM214.186 41.186C212.004 41.186 210.84 41.6405 210.84 42.5858C210.84 43.5312 212.004 44.0039 214.186 44.0039C216.385 44.0039 217.549 43.5312 217.549 42.5858C217.549 41.6405 216.385 41.186 214.186 41.186ZM214.404 32.0776H217.822V34.0411H214.404V32.0776ZM226.074 38.9861H228.492V41.7132H226.074V38.9861ZM233.146 29.0234H235.582V45.8583H233.146V29.0234ZM234.728 35.8591H237.691V37.859H234.728V35.8591ZM222.293 43.0585L222.002 41.1132C224.91 41.1132 228.91 41.0951 232.31 40.6224L232.492 42.3677C228.946 43.0585 225.129 43.0585 222.293 43.0585ZM222.311 30.8778H232.219V32.7685H222.311V30.8778ZM227.292 33.4412C229.692 33.4412 231.401 34.7138 231.401 36.5863C231.401 38.4771 229.692 39.7497 227.292 39.7497C224.874 39.7497 223.183 38.4771 223.183 36.5863C223.183 34.7138 224.874 33.4412 227.292 33.4412ZM227.292 35.2592C226.183 35.2592 225.474 35.7319 225.474 36.5863C225.474 37.459 226.183 37.9317 227.292 37.9317C228.383 37.9317 229.11 37.459 229.11 36.5863C229.11 35.7319 228.383 35.2592 227.292 35.2592ZM226.074 29.1143H228.492V32.2958H226.074V29.1143ZM208.45 56.0234H210.868V66.1679H208.45V56.0234ZM210.196 60.1685H213.105V62.1501H210.196V60.1685ZM199.924 66.8952H210.868V72.6765H199.924V66.8952ZM208.505 68.8041H202.305V70.7675H208.505V68.8041ZM197.615 57.5323H207.523V59.4413H197.615V57.5323ZM202.578 59.9321C205.014 59.9321 206.705 61.1684 206.705 62.9682C206.705 64.7862 205.014 65.9861 202.578 65.9861C200.124 65.9861 198.433 64.7862 198.433 62.9682C198.433 61.1684 200.124 59.9321 202.578 59.9321ZM202.578 61.732C201.487 61.732 200.76 62.1501 200.76 62.9682C200.76 63.7863 201.487 64.2227 202.578 64.2227C203.651 64.2227 204.396 63.7863 204.396 62.9682C204.396 62.1501 203.651 61.732 202.578 61.732ZM201.36 55.9143H203.778V58.5686H201.36V55.9143ZM220.339 56.5142H222.466V57.296C222.466 60.5321 219.921 63.2773 215.503 63.9318L214.558 61.9865C218.43 61.4774 220.339 59.2776 220.339 57.296V56.5142ZM220.793 56.5142H222.902V57.296C222.902 59.2594 224.829 61.4774 228.684 61.9865L227.756 63.9318C223.339 63.2773 220.793 60.5321 220.793 57.296V56.5142ZM220.357 66.6952H222.757V72.8583H220.357V66.6952ZM214.012 65.168H229.229V67.1315H214.012V65.168Z" fill="black"/>
</g>
<defs>
<filter id="filter0_d_2150_1408" x="0.575967" y="0" width="426.024" height="106.051" filterUnits="userSpaceOnUse" color-interpolation-filters="sRGB">
<feFlood flood-opacity="0" result="BackgroundImageFix"/>
<feColorMatrix in="SourceAlpha" type="matrix" values="0 0 0 0 0 0 0 0 0 0 0 0 0 0 0 0 0 0 127 0" result="hardAlpha"/>
<feOffset dy="2.42403"/>
<feGaussianBlur stdDeviation="1.21202"/>
<feComposite in2="hardAlpha" operator="out"/>
<feColorMatrix type="matrix" values="0 0 0 0 0 0 0 0 0 0 0 0 0 0 0 0 0 0 0.25 0"/>
<feBlend mode="normal" in2="BackgroundImageFix" result="effect1_dropShadow_2150_1408"/>
<feBlend mode="normal" in="SourceGraphic" in2="effect1_dropShadow_2150_1408" result="shape"/>
</filter>
</defs>
</svg>
