<svg width="410" height="156" viewBox="0 0 410 156" fill="none" xmlns="http://www.w3.org/2000/svg">
<rect x="226.44" y="25.1602" width="180.636" height="62.5775" rx="6.45129" fill="#81FFB8"/>
<rect y="23.8701" width="203.861" height="78.7057" rx="6.45129" fill="#D4D2D2"/>
<rect y="56.126" width="59.997" height="72.8995" rx="6.45129" fill="#99B2EB"/>
<rect x="59.9971" y="56.126" width="143.864" height="72.8995" rx="6.45129" fill="#81FFB8"/>
<path d="M70.6297 36.4017H73.8748V38.0092H70.6297V36.4017ZM72.8231 32.8262H74.8212V42.967H72.8231V32.8262ZM65.6419 44.89H75.1367V46.4825H65.6419V44.89ZM65.6419 42.1106H67.64V45.8364H65.6419V42.1106ZM66.3931 34.644H68.0156V35.5153C68.0156 38.1294 66.7837 40.5482 64.1095 41.4346L63.103 39.8421C65.4016 39.0909 66.3931 37.2731 66.3931 35.5153V34.644ZM66.8138 34.644H68.4213V35.5153C68.4213 37.1379 69.3677 38.8656 71.5612 39.6017L70.5846 41.1642C68.0006 40.3078 66.8138 37.9942 66.8138 35.5153V34.644ZM63.6438 33.7576H71.1255V35.3351H63.6438V33.7576ZM82.3769 38.0844H84.5853V39.6919H82.3769V38.0844ZM79.1468 36.6722H80.6492V37.0327C80.6492 39.9322 79.8079 42.8318 77.5844 44.1088L76.4576 42.6064C78.4407 41.4496 79.1468 39.166 79.1468 37.0327V36.6722ZM79.5374 36.6722H81.0398V37.0327C81.0398 39.136 81.7609 41.2543 83.729 42.3059L82.6473 43.7782C80.3938 42.6064 79.5374 39.8872 79.5374 37.0327V36.6722ZM76.9834 35.1398H83.1881V36.7473H76.9834V35.1398ZM79.1468 33.2769H81.0398V36.4468H79.1468V33.2769ZM86.7637 32.8111H88.6567V46.7228H86.7637V32.8111ZM83.9543 33.0365H85.8172V46.0918H83.9543V33.0365ZM106.682 32.8111H108.59V46.7228H106.682V32.8111ZM101.394 37.889H104.624V39.4966H101.394V37.889ZM103.812 33.0515H105.675V46.1069H103.812V33.0515ZM97.0369 41.9904H97.9984C99.9665 41.9904 101.274 41.9454 102.806 41.6449L102.956 43.2674C101.409 43.5829 100.027 43.643 97.9984 43.643H97.0369V41.9904ZM97.0369 34.3736H102.34V35.966H99.005V42.6815H97.0369V34.3736ZM119.706 32.7961H121.719V46.7529H119.706V32.7961ZM114.223 33.7726C116.326 33.7726 117.873 35.6956 117.873 38.7304C117.873 41.7951 116.326 43.7181 114.223 43.7181C112.119 43.7181 110.572 41.7951 110.572 38.7304C110.572 35.6956 112.119 33.7726 114.223 33.7726ZM114.223 35.5905C113.186 35.5905 112.48 36.6872 112.48 38.7304C112.48 40.8036 113.186 41.9153 114.223 41.9153C115.259 41.9153 115.95 40.8036 115.95 38.7304C115.95 36.6872 115.259 35.5905 114.223 35.5905ZM133.391 32.7961H135.374V46.7529H133.391V32.7961ZM131.003 37.6937H133.617V39.3163H131.003V37.6937ZM124.332 41.9904H125.444C127.742 41.9904 129.455 41.9604 131.423 41.6449L131.603 43.2374C129.59 43.5529 127.788 43.613 125.444 43.613H124.332V41.9904ZM124.332 33.9679H130.777V35.5905H126.315V42.5012H124.332V33.9679ZM125.865 37.844H130.296V39.4064H125.865V37.844Z" fill="#4C4C4C"/>
<path d="M80.4741 2.20277V13.1289H78.164V4.39547H78.1L75.5979 5.96397V3.91532L78.3027 2.20277H80.4741ZM87.0695 13.369C86.1519 13.3654 85.3623 13.1396 84.7007 12.6914C84.0427 12.2433 83.5359 11.5942 83.1803 10.7441C82.8281 9.8941 82.6539 8.87156 82.6574 7.67651C82.6574 6.48502 82.8335 5.46959 83.1856 4.63021C83.5413 3.79083 84.0481 3.15241 84.7061 2.71494C85.3676 2.27391 86.1554 2.05339 87.0695 2.05339C87.9836 2.05339 88.7696 2.27391 89.4276 2.71494C90.0891 3.15597 90.5977 3.79617 90.9534 4.63555C91.3091 5.47137 91.4851 6.48502 91.4816 7.67651C91.4816 8.87511 91.3037 9.89944 90.9481 10.7495C90.5959 11.5995 90.0909 12.2486 89.4329 12.6968C88.7749 13.1449 87.9871 13.369 87.0695 13.369ZM87.0695 11.4537C87.6955 11.4537 88.1952 11.1389 88.5686 10.5094C88.9421 9.87988 89.127 8.93558 89.1235 7.67651C89.1235 6.8478 89.0381 6.15781 88.8674 5.60652C88.7002 5.05523 88.4619 4.64088 88.1525 4.36346C87.8466 4.08604 87.4856 3.94733 87.0695 3.94733C86.4471 3.94733 85.9491 4.25854 85.5757 4.88096C85.2022 5.50338 85.0137 6.43523 85.0102 7.67651C85.0102 8.51589 85.0937 9.21655 85.2609 9.77851C85.4316 10.3369 85.6717 10.7566 85.9811 11.0376C86.2906 11.315 86.6534 11.4537 87.0695 11.4537ZM97.1273 13.369C96.2097 13.3654 95.4201 13.1396 94.7586 12.6914C94.1006 12.2433 93.5938 11.5942 93.2381 10.7441C92.886 9.8941 92.7117 8.87156 92.7153 7.67651C92.7153 6.48502 92.8913 5.46959 93.2434 4.63021C93.5991 3.79083 94.1059 3.15241 94.7639 2.71494C95.4255 2.27391 96.2133 2.05339 97.1273 2.05339C98.0414 2.05339 98.8274 2.27391 99.4854 2.71494C100.147 3.15597 100.656 3.79617 101.011 4.63555C101.367 5.47137 101.543 6.48502 101.539 7.67651C101.539 8.87511 101.362 9.89944 101.006 10.7495C100.654 11.5995 100.149 12.2486 99.4907 12.6968C98.8328 13.1449 98.0449 13.369 97.1273 13.369ZM97.1273 11.4537C97.7533 11.4537 98.253 11.1389 98.6265 10.5094C98.9999 9.87988 99.1849 8.93558 99.1813 7.67651C99.1813 6.8478 99.0959 6.15781 98.9252 5.60652C98.7581 5.05523 98.5198 4.64088 98.2103 4.36346C97.9045 4.08604 97.5435 3.94733 97.1273 3.94733C96.5049 3.94733 96.007 4.25854 95.6335 4.88096C95.2601 5.50338 95.0716 6.43523 95.068 7.67651C95.068 8.51589 95.1516 9.21655 95.3187 9.77851C95.4895 10.3369 95.7295 10.7566 96.039 11.0376C96.3484 11.315 96.7112 11.4537 97.1273 11.4537ZM107.185 13.369C106.268 13.3654 105.478 13.1396 104.816 12.6914C104.158 12.2433 103.652 11.5942 103.296 10.7441C102.944 9.8941 102.77 8.87156 102.773 7.67651C102.773 6.48502 102.949 5.46959 103.301 4.63021C103.657 3.79083 104.164 3.15241 104.822 2.71494C105.483 2.27391 106.271 2.05339 107.185 2.05339C108.099 2.05339 108.885 2.27391 109.543 2.71494C110.205 3.15597 110.713 3.79617 111.069 4.63555C111.425 5.47137 111.601 6.48502 111.597 7.67651C111.597 8.87511 111.419 9.89944 111.064 10.7495C110.712 11.5995 110.207 12.2486 109.549 12.6968C108.891 13.1449 108.103 13.369 107.185 13.369ZM107.185 11.4537C107.811 11.4537 108.311 11.1389 108.684 10.5094C109.058 9.87988 109.243 8.93558 109.239 7.67651C109.239 6.8478 109.154 6.15781 108.983 5.60652C108.816 5.05523 108.578 4.64088 108.268 4.36346C107.962 4.08604 107.601 3.94733 107.185 3.94733C106.563 3.94733 106.065 4.25854 105.691 4.88096C105.318 5.50338 105.129 6.43523 105.126 7.67651C105.126 8.51589 105.209 9.21655 105.377 9.77851C105.547 10.3369 105.787 10.7566 106.097 11.0376C106.406 11.315 106.769 11.4537 107.185 11.4537ZM122.68 0.554294H124.588V14.466H122.68V0.554294ZM120.922 5.79747H123.221V7.38995H120.922V5.79747ZM116.776 2.25194H118.684C118.684 6.17306 117.542 9.343 113.651 11.6115L112.494 10.2294C115.664 8.35145 116.776 6.0078 116.776 2.6726V2.25194ZM113.2 2.25194H117.362V3.85945H113.2V2.25194ZM119.6 0.914856H121.463V13.8651H119.6V0.914856Z" fill="#4C4C4C"/>
<path d="M106.474 151.187L111.003 142.224V142.149H105.727V140.26H113.394V142.176L108.859 151.187H106.474ZM118.741 151.427C117.823 151.423 117.033 151.197 116.372 150.749C115.714 150.301 115.207 149.652 114.851 148.802C114.499 147.952 114.325 146.929 114.328 145.734C114.328 144.543 114.505 143.527 114.857 142.688C115.212 141.848 115.719 141.21 116.377 140.773C117.039 140.332 117.826 140.111 118.741 140.111C119.655 140.111 120.441 140.332 121.099 140.773C121.76 141.214 122.269 141.854 122.624 142.693C122.98 143.529 123.156 144.543 123.153 145.734C123.153 146.933 122.975 147.957 122.619 148.807C122.267 149.657 121.762 150.306 121.104 150.754C120.446 151.203 119.658 151.427 118.741 151.427ZM118.741 149.511C119.367 149.511 119.866 149.197 120.24 148.567C120.613 147.937 120.798 146.993 120.795 145.734C120.795 144.905 120.709 144.215 120.538 143.664C120.371 143.113 120.133 142.698 119.824 142.421C119.518 142.144 119.157 142.005 118.741 142.005C118.118 142.005 117.62 142.316 117.247 142.939C116.873 143.561 116.685 144.493 116.681 145.734C116.681 146.574 116.765 147.274 116.932 147.836C117.103 148.395 117.343 148.814 117.652 149.095C117.962 149.373 118.324 149.511 118.741 149.511ZM128.798 151.427C127.881 151.423 127.091 151.197 126.43 150.749C125.772 150.301 125.265 149.652 124.909 148.802C124.557 147.952 124.383 146.929 124.386 145.734C124.386 144.543 124.562 143.527 124.914 142.688C125.27 141.848 125.777 141.21 126.435 140.773C127.097 140.332 127.884 140.111 128.798 140.111C129.712 140.111 130.498 140.332 131.156 140.773C131.818 141.214 132.327 141.854 132.682 142.693C133.038 143.529 133.214 144.543 133.21 145.734C133.21 146.933 133.033 147.957 132.677 148.807C132.325 149.657 131.82 150.306 131.162 150.754C130.504 151.203 129.716 151.427 128.798 151.427ZM128.798 149.511C129.424 149.511 129.924 149.197 130.298 148.567C130.671 147.937 130.856 146.993 130.852 145.734C130.852 144.905 130.767 144.215 130.596 143.664C130.429 143.113 130.191 142.698 129.881 142.421C129.576 142.144 129.215 142.005 128.798 142.005C128.176 142.005 127.678 142.316 127.305 142.939C126.931 143.561 126.743 144.493 126.739 145.734C126.739 146.574 126.823 147.274 126.99 147.836C127.161 148.395 127.401 148.814 127.71 149.095C128.019 149.373 128.382 149.511 128.798 149.511ZM144.293 138.612H146.201V152.524H144.293V138.612ZM142.535 143.855H144.834V145.448H142.535V143.855ZM138.389 140.31H140.297C140.297 144.231 139.155 147.401 135.264 149.669L134.107 148.287C137.277 146.409 138.389 144.065 138.389 140.73V140.31ZM134.813 140.31H138.975V141.917H134.813V140.31ZM141.213 138.972H143.076V151.923H141.213V138.972Z" fill="#4C4C4C"/>
<path d="M16.5365 151.336C15.7398 151.336 15.0303 151.199 14.4079 150.925C13.789 150.648 13.3 150.267 12.9407 149.783C12.5851 149.296 12.4019 148.734 12.3912 148.098H14.7173C14.7315 148.364 14.8187 148.599 14.9787 148.802C15.1423 149.001 15.3593 149.156 15.6296 149.266C15.8999 149.376 16.204 149.431 16.5419 149.431C16.894 149.431 17.2052 149.369 17.4755 149.245C17.7458 149.12 17.9574 148.948 18.1104 148.727C18.2633 148.507 18.3398 148.252 18.3398 147.964C18.3398 147.673 18.258 147.415 18.0944 147.191C17.9343 146.963 17.7031 146.785 17.4008 146.657C17.102 146.529 16.7464 146.465 16.3338 146.465H15.3148V144.768H16.3338C16.6824 144.768 16.99 144.708 17.2568 144.587C17.5271 144.466 17.7369 144.299 17.8863 144.086C18.0357 143.869 18.1104 143.616 18.1104 143.328C18.1104 143.054 18.0446 142.814 17.913 142.608C17.7849 142.398 17.6035 142.234 17.3688 142.117C17.1376 142 16.8673 141.941 16.5579 141.941C16.2449 141.941 15.9586 141.998 15.6989 142.112C15.4393 142.222 15.2312 142.38 15.0747 142.586C14.9182 142.793 14.8347 143.035 14.824 143.312H12.61C12.6206 142.682 12.8002 142.128 13.1488 141.647C13.4973 141.167 13.9668 140.792 14.5572 140.522C15.1512 140.248 15.8216 140.111 16.5685 140.111C17.3226 140.111 17.9823 140.248 18.5478 140.522C19.1134 140.796 19.5526 141.166 19.8656 141.631C20.1821 142.094 20.3386 142.613 20.3351 143.189C20.3386 143.801 20.1483 144.311 19.7642 144.72C19.3837 145.129 18.8875 145.389 18.2758 145.499V145.585C19.0796 145.688 19.6913 145.967 20.111 146.422C20.5342 146.874 20.7441 147.44 20.7405 148.119C20.7441 148.741 20.5645 149.294 20.2017 149.778C19.8425 150.262 19.3463 150.642 18.7132 150.92C18.0801 151.197 17.3546 151.336 16.5365 151.336ZM26.3996 151.427C25.482 151.423 24.6924 151.197 24.0309 150.749C23.3729 150.301 22.8661 149.652 22.5104 148.802C22.1583 147.952 21.984 146.929 21.9876 145.734C21.9876 144.543 22.1636 143.527 22.5157 142.688C22.8714 141.848 23.3782 141.21 24.0362 140.773C24.6978 140.332 25.4856 140.111 26.3996 140.111C27.3137 140.111 28.0997 140.332 28.7577 140.773C29.4193 141.214 29.9279 141.854 30.2835 142.693C30.6392 143.529 30.8153 144.543 30.8117 145.734C30.8117 146.933 30.6339 147.957 30.2782 148.807C29.9261 149.657 29.421 150.306 28.7631 150.754C28.1051 151.203 27.3173 151.427 26.3996 151.427ZM26.3996 149.511C27.0256 149.511 27.5253 149.197 27.8988 148.567C28.2722 147.937 28.4572 146.993 28.4536 145.734C28.4536 144.905 28.3683 144.215 28.1975 143.664C28.0304 143.113 27.7921 142.698 27.4827 142.421C27.1768 142.144 26.8158 142.005 26.3996 142.005C25.7772 142.005 25.2793 142.316 24.9058 142.939C24.5324 143.561 24.3439 144.493 24.3403 145.734C24.3403 146.574 24.4239 147.274 24.5911 147.836C24.7618 148.395 25.0019 148.814 25.3113 149.095C25.6207 149.373 25.9835 149.511 26.3996 149.511ZM36.4575 151.427C35.5399 151.423 34.7503 151.197 34.0887 150.749C33.4307 150.301 32.9239 149.652 32.5682 148.802C32.2161 147.952 32.0419 146.929 32.0454 145.734C32.0454 144.543 32.2215 143.527 32.5736 142.688C32.9292 141.848 33.4361 141.21 34.0941 140.773C34.7556 140.332 35.5434 140.111 36.4575 140.111C37.3715 140.111 38.1576 140.332 38.8156 140.773C39.4771 141.214 39.9857 141.854 40.3414 142.693C40.697 143.529 40.8731 144.543 40.8695 145.734C40.8695 146.933 40.6917 147.957 40.336 148.807C39.9839 149.657 39.4789 150.306 38.8209 150.754C38.1629 151.203 37.3751 151.427 36.4575 151.427ZM36.4575 149.511C37.0835 149.511 37.5832 149.197 37.9566 148.567C38.3301 147.937 38.515 146.993 38.5115 145.734C38.5115 144.905 38.4261 144.215 38.2554 143.664C38.0882 143.113 37.8499 142.698 37.5405 142.421C37.2346 142.144 36.8736 142.005 36.4575 142.005C35.8351 142.005 35.3371 142.316 34.9637 142.939C34.5902 143.561 34.4017 144.493 34.3982 145.734C34.3982 146.574 34.4817 147.274 34.6489 147.836C34.8196 148.395 35.0597 148.814 35.3691 149.095C35.6786 149.373 36.0413 149.511 36.4575 149.511ZM51.9522 138.612H53.8602V152.524H51.9522V138.612ZM50.1945 143.855H52.4931V145.448H50.1945V143.855ZM46.048 140.31H47.956C47.956 144.231 46.8142 147.401 42.9231 149.669L41.7663 148.287C44.9363 146.409 46.048 144.065 46.048 140.73V140.31ZM42.4724 140.31H46.6339V141.917H42.4724V140.31ZM48.8724 138.972H50.7353V151.923H48.8724V138.972Z" fill="#4C4C4C"/>
<path d="M92.2093 86.9284H100.397V88.5059H92.2093V86.9284ZM96.3107 88.9416C98.3088 88.9416 99.7211 89.9782 99.7211 91.5106C99.7211 93.043 98.3088 94.0645 96.3107 94.0645C94.2976 94.0645 92.8854 93.043 92.8854 91.5106C92.8854 89.9782 94.2976 88.9416 96.3107 88.9416ZM96.3107 90.4439C95.4093 90.4439 94.8084 90.8045 94.8084 91.5106C94.8084 92.2016 95.4093 92.5622 96.3107 92.5622C97.1971 92.5622 97.8131 92.2016 97.8131 91.5106C97.8131 90.8045 97.1971 90.4439 96.3107 90.4439ZM101.163 85.7115H103.161V94.4401H101.163V85.7115ZM102.606 89.3021H105.009V90.9247H102.606V89.3021ZM93.8769 95.011H103.161V99.6232H101.163V96.6035H93.8769V95.011ZM95.3042 85.6364H97.3023V87.8298H95.3042V85.6364ZM107.217 94.0495H109.185V95.2214H114.758V94.0495H116.741V99.473H107.217V94.0495ZM109.185 96.7087V97.9105H114.758V96.7087H109.185ZM105.744 91.781H118.319V93.3584H105.744V91.781ZM111.017 85.8618H112.73V86.2824C112.73 88.7012 110.657 90.6993 107.066 91.165L106.36 89.6176C109.5 89.242 111.017 87.6946 111.017 86.2824V85.8618ZM111.348 85.8618H113.061V86.2824C113.061 87.6796 114.578 89.242 117.703 89.6176L116.997 91.165C113.406 90.6993 111.348 88.6862 111.348 86.2824V85.8618ZM132.522 85.7115H134.43V99.6232H132.522V85.7115ZM127.233 90.7894H130.463V92.3969H127.233V90.7894ZM129.652 85.9519H131.515V99.0073H129.652V85.9519ZM122.877 94.8908H123.838C125.806 94.8908 127.113 94.8458 128.646 94.5453L128.796 96.1678C127.248 96.4833 125.866 96.5434 123.838 96.5434H122.877V94.8908ZM122.877 87.274H128.18V88.8664H124.845V95.5819H122.877V87.274ZM145.546 85.6965H147.559V99.6533H145.546V85.6965ZM140.062 86.673C142.165 86.673 143.713 88.596 143.713 91.6308C143.713 94.6955 142.165 96.6185 140.062 96.6185C137.959 96.6185 136.411 94.6955 136.411 91.6308C136.411 88.596 137.959 86.673 140.062 86.673ZM140.062 88.4909C139.026 88.4909 138.319 89.5876 138.319 91.6308C138.319 93.704 139.026 94.8157 140.062 94.8157C141.099 94.8157 141.79 93.704 141.79 91.6308C141.79 89.5876 141.099 88.4909 140.062 88.4909ZM159.231 85.6965H161.214V99.6533H159.231V85.6965ZM156.842 90.5941H159.456V92.2167H156.842V90.5941ZM150.172 94.8908H151.283C153.582 94.8908 155.295 94.8608 157.263 94.5453L157.443 96.1378C155.43 96.4533 153.627 96.5134 151.283 96.5134H150.172V94.8908ZM150.172 86.8683H156.617V88.4909H152.155V95.4016H150.172V86.8683ZM151.704 90.7444H156.136V92.3068H151.704V90.7444Z" fill="#4C4C4C"/>
<path d="M18.8995 75.8114H20.522V77.8395C20.522 81.4151 19.2901 84.6452 16.5258 85.9222L15.3389 84.2696C17.7577 83.2179 18.8995 80.5438 18.8995 77.8395V75.8114ZM19.2901 75.8114H20.9126V77.8395C20.9126 80.4086 22.0094 82.9625 24.3831 83.9841L23.2112 85.5916C20.522 84.3597 19.2901 81.2649 19.2901 77.8395V75.8114ZM25.0441 74.7297H27.0572V88.6865H25.0441V74.7297ZM38.6842 74.7447H40.6823V83.1428H38.6842V74.7447ZM36.9415 78.8161H39.4955V80.4386H36.9415V78.8161ZM31.4128 83.7287H40.6823V88.5062H31.4128V83.7287ZM38.7293 85.3062H33.3809V86.9287H38.7293V85.3062ZM29.0842 75.9466H37.2119V77.5241H29.0842V75.9466ZM33.1556 77.9748C35.0936 77.9748 36.4757 79.0114 36.4757 80.4837C36.4757 81.971 35.0936 82.9776 33.1556 82.9776C31.2175 82.9776 29.8204 81.971 29.8204 80.4837C29.8204 79.0114 31.2175 77.9748 33.1556 77.9748ZM33.1556 79.4621C32.2992 79.4621 31.7283 79.8076 31.7283 80.4837C31.7283 81.1597 32.2992 81.5203 33.1556 81.5203C33.9969 81.5203 34.5678 81.1597 34.5678 80.4837C34.5678 79.8076 33.9969 79.4621 33.1556 79.4621ZM32.149 74.6245H34.1471V77.0734H32.149V74.6245ZM20.3832 97.7447H22.2912V111.656H20.3832V97.7447ZM15.095 102.823H18.325V104.43H15.095V102.823ZM17.5138 97.9851H19.3767V111.04H17.5138V97.9851ZM10.7382 106.924H11.6997C13.6678 106.924 14.9748 106.879 16.5072 106.579L16.6574 108.201C15.11 108.517 13.7279 108.577 11.6997 108.577H10.7382V106.924ZM10.7382 99.3072H16.0415V100.9H12.7063V107.615H10.7382V99.3072ZM33.4074 97.7297H35.4205V111.686H33.4074V97.7297ZM27.9238 98.7062C30.0271 98.7062 31.5745 100.629 31.5745 103.664C31.5745 106.729 30.0271 108.652 27.9238 108.652C25.8205 108.652 24.2731 106.729 24.2731 103.664C24.2731 100.629 25.8205 98.7062 27.9238 98.7062ZM27.9238 100.524C26.8872 100.524 26.1811 101.621 26.1811 103.664C26.1811 105.737 26.8872 106.849 27.9238 106.849C28.9604 106.849 29.6515 105.737 29.6515 103.664C29.6515 101.621 28.9604 100.524 27.9238 100.524ZM47.0926 97.7297H49.0756V111.686H47.0926V97.7297ZM44.7038 102.627H47.3179V104.25H44.7038V102.627ZM38.0334 106.924H39.1452C41.4437 106.924 43.1564 106.894 45.1245 106.579L45.3048 108.171C43.2916 108.486 41.4888 108.547 39.1452 108.547H38.0334V106.924ZM38.0334 98.9015H44.4785V100.524H40.0165V107.435H38.0334V98.9015ZM39.5658 102.778H43.9977V104.34H39.5658V102.778Z" fill="#4C4C4C"/>
<line x1="1.61282" y1="7.4194" x2="61.6098" y2="7.4194" stroke="#D4D2D2" stroke-width="3.22564" stroke-linecap="round"/>
<line x1="1.61282" y1="145.476" x2="5.48359" y2="145.476" stroke="#D4D2D2" stroke-width="3.22564" stroke-linecap="round"/>
<line x1="61.6099" y1="145.476" x2="93.8663" y2="145.476" stroke="#D4D2D2" stroke-width="3.22564" stroke-linecap="round"/>
<line x1="158.379" y1="145.476" x2="202.248" y2="145.476" stroke="#D4D2D2" stroke-width="3.22564" stroke-linecap="round"/>
<line x1="140.316" y1="7.4194" x2="202.248" y2="7.4194" stroke="#D4D2D2" stroke-width="3.22564" stroke-linecap="round"/>
<path d="M179.346 91.6082C178.633 91.6082 178.055 92.1858 178.055 92.8984C178.055 93.611 178.633 94.1887 179.346 94.1887V91.6082ZM226.062 93.8108C226.566 93.3069 226.566 92.49 226.062 91.9861L217.851 83.7749C217.347 83.2711 216.53 83.2711 216.026 83.7749C215.522 84.2788 215.522 85.0958 216.026 85.5996L223.325 92.8984L216.026 100.197C215.522 100.701 215.522 101.518 216.026 102.022C216.53 102.526 217.347 102.526 217.851 102.022L226.062 93.8108ZM179.346 94.1887H225.15V91.6082H179.346V94.1887Z" fill="#545454"/>
<path d="M252.893 139.859H259.578V149.218H252.893V139.859ZM257.625 141.421H254.861V147.641H257.625V141.421ZM261.741 138.597H263.755V152.554H261.741V138.597ZM275.366 138.612H277.365V152.524H275.366V138.612ZM266.473 139.934H268.456V148.572H266.473V139.934ZM266.473 147.401H267.705C269.733 147.401 271.986 147.25 274.285 146.8L274.51 148.452C272.121 148.948 269.823 149.098 267.705 149.098H266.473V147.401ZM279.662 139.844H281.54V142.969H283.313V139.844H285.161V149.233H279.662V139.844ZM281.54 144.531V147.641H283.313V144.531H281.54ZM289.322 138.612H291.23V152.524H289.322V138.612ZM287.609 143.915H289.923V145.523H287.609V143.915ZM286.272 138.822H288.15V151.893H286.272V138.822ZM302.361 138.612H304.374V152.524H302.361V138.612ZM296.232 142.218H297.809V142.939C297.809 145.883 296.502 148.843 293.933 149.955L292.866 148.422C295.15 147.401 296.232 145.042 296.232 142.939V142.218ZM296.667 142.218H298.23V142.939C298.23 144.937 299.327 147.22 301.625 148.197L300.558 149.729C297.989 148.663 296.667 145.793 296.667 142.939V142.218ZM293.332 140.88H301.069V142.458H293.332V140.88ZM296.232 138.927H298.23V141.692H296.232V138.927ZM313.532 145.723C313.532 144.4 313.708 143.182 314.06 142.069C314.416 140.956 314.958 139.924 315.687 138.975H317.859C317.581 139.327 317.324 139.757 317.085 140.266C316.847 140.771 316.639 141.326 316.461 141.93C316.283 142.535 316.144 143.161 316.045 143.808C315.945 144.452 315.896 145.09 315.896 145.723C315.896 146.566 315.981 147.418 316.152 148.279C316.326 149.136 316.561 149.933 316.856 150.669C317.155 151.405 317.489 152.008 317.859 152.478H315.687C314.958 151.528 314.416 150.497 314.06 149.383C313.708 148.27 313.532 147.05 313.532 145.723ZM323.625 140.26V151.187H321.315V142.453H321.251L318.748 144.022V141.973L321.453 140.26H323.625ZM330.22 151.427C329.302 151.423 328.513 151.197 327.851 150.749C327.193 150.301 326.686 149.652 326.331 148.802C325.979 147.952 325.804 146.929 325.808 145.734C325.808 144.543 325.984 143.527 326.336 142.688C326.692 141.848 327.199 141.21 327.857 140.773C328.518 140.332 329.306 140.111 330.22 140.111C331.134 140.111 331.92 140.332 332.578 140.773C333.24 141.214 333.748 141.854 334.104 142.693C334.46 143.529 334.636 144.543 334.632 145.734C334.632 146.933 334.454 147.957 334.099 148.807C333.746 149.657 333.241 150.306 332.583 150.754C331.925 151.203 331.138 151.427 330.22 151.427ZM330.22 149.511C330.846 149.511 331.346 149.197 331.719 148.567C332.093 147.937 332.278 146.993 332.274 145.734C332.274 144.905 332.189 144.215 332.018 143.664C331.851 143.113 331.612 142.698 331.303 142.421C330.997 142.144 330.636 142.005 330.22 142.005C329.598 142.005 329.1 142.316 328.726 142.939C328.353 143.561 328.164 144.493 328.161 145.734C328.161 146.574 328.244 147.274 328.411 147.836C328.582 148.395 328.822 148.814 329.132 149.095C329.441 149.373 329.804 149.511 330.22 149.511ZM340.278 151.427C339.36 151.423 338.571 151.197 337.909 150.749C337.251 150.301 336.744 149.652 336.389 148.802C336.037 147.952 335.862 146.929 335.866 145.734C335.866 144.543 336.042 143.527 336.394 142.688C336.75 141.848 337.256 141.21 337.914 140.773C338.576 140.332 339.364 140.111 340.278 140.111C341.192 140.111 341.978 140.332 342.636 140.773C343.297 141.214 343.806 141.854 344.162 142.693C344.517 143.529 344.693 144.543 344.69 145.734C344.69 146.933 344.512 147.957 344.156 148.807C343.804 149.657 343.299 150.306 342.641 150.754C341.983 151.203 341.195 151.427 340.278 151.427ZM340.278 149.511C340.904 149.511 341.404 149.197 341.777 148.567C342.15 147.937 342.335 146.993 342.332 145.734C342.332 144.905 342.246 144.215 342.076 143.664C341.909 143.113 341.67 142.698 341.361 142.421C341.055 142.144 340.694 142.005 340.278 142.005C339.655 142.005 339.157 142.316 338.784 142.939C338.411 143.561 338.222 144.493 338.219 145.734C338.219 146.574 338.302 147.274 338.469 147.836C338.64 148.395 338.88 148.814 339.19 149.095C339.499 149.373 339.862 149.511 340.278 149.511ZM351.884 148.796L352.018 146.732L350.289 147.889L349.574 146.63L351.436 145.723L349.574 144.817L350.289 143.557L352.018 144.715L351.884 142.65H353.319L353.181 144.715L354.909 143.557L355.624 144.817L353.767 145.723L355.624 146.63L354.909 147.889L353.181 146.732L353.319 148.796H351.884ZM357.87 151.187L362.399 142.224V142.149H357.123V140.26H364.79V142.176L360.255 151.187H357.87ZM369.939 145.723C369.939 147.05 369.761 148.27 369.406 149.383C369.054 150.497 368.513 151.528 367.784 152.478H365.612C365.89 152.125 366.148 151.695 366.386 151.187C366.624 150.678 366.832 150.123 367.01 149.522C367.188 148.917 367.327 148.291 367.426 147.644C367.526 146.997 367.576 146.357 367.576 145.723C367.576 144.881 367.489 144.03 367.314 143.173C367.144 142.313 366.909 141.516 366.61 140.783C366.315 140.047 365.982 139.444 365.612 138.975H367.784C368.513 139.924 369.054 140.956 369.406 142.069C369.761 143.182 369.939 144.4 369.939 145.723Z" fill="#4C4C4C"/>
<line x1="228.053" y1="144.832" x2="244.181" y2="144.832" stroke="#D4D2D2" stroke-width="3.22564" stroke-linecap="round"/>
<line x1="389.335" y1="144.832" x2="405.464" y2="144.832" stroke="#D4D2D2" stroke-width="3.22564" stroke-linecap="round"/>
<path d="M292.915 13.1289L297.445 4.16606V4.09137H292.169V2.20277H299.835V4.11805L295.3 13.1289H292.915ZM305.182 13.369C304.264 13.3654 303.475 13.1396 302.813 12.6914C302.155 12.2433 301.648 11.5942 301.293 10.7441C300.941 9.8941 300.766 8.87156 300.77 7.67651C300.77 6.48502 300.946 5.46959 301.298 4.63021C301.654 3.79083 302.161 3.15241 302.819 2.71494C303.48 2.27391 304.268 2.05339 305.182 2.05339C306.096 2.05339 306.882 2.27391 307.54 2.71494C308.202 3.15597 308.71 3.79617 309.066 4.63555C309.422 5.47137 309.598 6.48502 309.594 7.67651C309.594 8.87511 309.416 9.89944 309.061 10.7495C308.708 11.5995 308.203 12.2486 307.545 12.6968C306.887 13.1449 306.1 13.369 305.182 13.369ZM305.182 11.4537C305.808 11.4537 306.308 11.1389 306.681 10.5094C307.055 9.87988 307.239 8.93558 307.236 7.67651C307.236 6.8478 307.151 6.15781 306.98 5.60652C306.813 5.05523 306.574 4.64088 306.265 4.36346C305.959 4.08604 305.598 3.94733 305.182 3.94733C304.56 3.94733 304.062 4.25854 303.688 4.88096C303.315 5.50338 303.126 6.43523 303.123 7.67651C303.123 8.51589 303.206 9.21655 303.373 9.77851C303.544 10.3369 303.784 10.7566 304.094 11.0376C304.403 11.315 304.766 11.4537 305.182 11.4537ZM315.24 13.369C314.322 13.3654 313.533 13.1396 312.871 12.6914C312.213 12.2433 311.706 11.5942 311.351 10.7441C310.998 9.8941 310.824 8.87156 310.828 7.67651C310.828 6.48502 311.004 5.46959 311.356 4.63021C311.712 3.79083 312.218 3.15241 312.876 2.71494C313.538 2.27391 314.326 2.05339 315.24 2.05339C316.154 2.05339 316.94 2.27391 317.598 2.71494C318.259 3.15597 318.768 3.79617 319.124 4.63555C319.479 5.47137 319.655 6.48502 319.652 7.67651C319.652 8.87511 319.474 9.89944 319.118 10.7495C318.766 11.5995 318.261 12.2486 317.603 12.6968C316.945 13.1449 316.157 13.369 315.24 13.369ZM315.24 11.4537C315.866 11.4537 316.365 11.1389 316.739 10.5094C317.112 9.87988 317.297 8.93558 317.294 7.67651C317.294 6.8478 317.208 6.15781 317.038 5.60652C316.871 5.05523 316.632 4.64088 316.323 4.36346C316.017 4.08604 315.656 3.94733 315.24 3.94733C314.617 3.94733 314.119 4.25854 313.746 4.88096C313.373 5.50338 313.184 6.43523 313.18 7.67651C313.18 8.51589 313.264 9.21655 313.431 9.77851C313.602 10.3369 313.842 10.7566 314.151 11.0376C314.461 11.315 314.824 11.4537 315.24 11.4537ZM330.735 0.554294H332.642V14.466H330.735V0.554294ZM328.977 5.79747H331.275V7.38995H328.977V5.79747ZM324.83 2.25194H326.738C326.738 6.17306 325.597 9.343 321.705 11.6115L320.549 10.2294C323.719 8.35145 324.83 6.0078 324.83 2.6726V2.25194ZM321.255 2.25194H325.416V3.85945H321.255V2.25194ZM327.655 0.914856H329.518V13.8651H327.655V0.914856Z" fill="#4C4C4C"/>
<line x1="228.053" y1="7.4194" x2="272.567" y2="7.4194" stroke="#D4D2D2" stroke-width="3.22564" stroke-linecap="round"/>
<line x1="353.208" y1="7.41941" x2="405.463" y2="7.41941" stroke="#D4D2D2" stroke-width="3.22564" stroke-linecap="round"/>
<path d="M274.781 34.028H282.968V35.6055H274.781V34.028ZM278.882 36.0412C280.88 36.0412 282.292 37.0778 282.292 38.6102C282.292 40.1426 280.88 41.1642 278.882 41.1642C276.869 41.1642 275.457 40.1426 275.457 38.6102C275.457 37.0778 276.869 36.0412 278.882 36.0412ZM278.882 37.5435C277.981 37.5435 277.38 37.9041 277.38 38.6102C277.38 39.3013 277.981 39.6618 278.882 39.6618C279.768 39.6618 280.384 39.3013 280.384 38.6102C280.384 37.9041 279.768 37.5435 278.882 37.5435ZM283.735 32.8111H285.733V41.5397H283.735V32.8111ZM285.177 36.4017H287.581V38.0243H285.177V36.4017ZM276.448 42.1106H285.733V46.7228H283.735V43.7031H276.448V42.1106ZM277.875 32.736H279.874V34.9294H277.875V32.736ZM289.788 41.1491H291.756V42.321H297.33V41.1491H299.313V46.5726H289.788V41.1491ZM291.756 43.8083V45.0102H297.33V43.8083H291.756ZM288.316 38.8806H300.89V40.4581H288.316V38.8806ZM293.589 32.9614H295.301V33.382C295.301 35.8008 293.228 37.7989 289.638 38.2646L288.932 36.7172C292.071 36.3416 293.589 34.7942 293.589 33.382V32.9614ZM293.919 32.9614H295.632V33.382C295.632 34.7792 297.149 36.3416 300.274 36.7172L299.568 38.2646C295.978 37.7989 293.919 35.7858 293.919 33.382V32.9614ZM315.093 32.8111H317.001V46.7228H315.093V32.8111ZM309.805 37.889H313.035V39.4966H309.805V37.889ZM312.223 33.0515H314.086V46.1069H312.223V33.0515ZM305.448 41.9904H306.409C308.377 41.9904 309.684 41.9454 311.217 41.6449L311.367 43.2674C309.82 43.5829 308.437 43.643 306.409 43.643H305.448V41.9904ZM305.448 34.3736H310.751V35.966H307.416V42.6815H305.448V34.3736ZM328.117 32.7961H330.13V46.7529H328.117V32.7961ZM322.633 33.7726C324.737 33.7726 326.284 35.6956 326.284 38.7304C326.284 41.7951 324.737 43.7181 322.633 43.7181C320.53 43.7181 318.983 41.7951 318.983 38.7304C318.983 35.6956 320.53 33.7726 322.633 33.7726ZM322.633 35.5905C321.597 35.5905 320.891 36.6872 320.891 38.7304C320.891 40.8036 321.597 41.9153 322.633 41.9153C323.67 41.9153 324.361 40.8036 324.361 38.7304C324.361 36.6872 323.67 35.5905 322.633 35.5905ZM341.802 32.7961H343.785V46.7529H341.802V32.7961ZM339.413 37.6937H342.027V39.3163H339.413V37.6937ZM332.743 41.9904H333.855C336.153 41.9904 337.866 41.9604 339.834 41.6449L340.014 43.2374C338.001 43.5529 336.198 43.613 333.855 43.613H332.743V41.9904ZM332.743 33.9679H339.188V35.5905H334.726V42.5012H332.743V33.9679ZM334.275 37.844H338.707V39.4064H334.275V37.844Z" fill="#4C4C4C"/>
<rect x="226.44" y="56.126" width="25.8051" height="72.8995" rx="6.45129" fill="#48FF97"/>
<g filter="url(#filter0_d_1009_4720)">
<rect x="226.44" y="56.126" width="25.8051" height="72.8995" rx="6.45129" fill="#48FF97"/>
</g>
<g filter="url(#filter1_d_1009_4720)">
<rect x="252.245" y="56.126" width="25.8051" height="72.8995" rx="6.45129" fill="#48FF97"/>
</g>
<g filter="url(#filter2_d_1009_4720)">
<rect x="278.051" y="56.126" width="25.8051" height="72.8995" rx="6.45129" fill="#48FF97"/>
</g>
<g filter="url(#filter3_d_1009_4720)">
<rect x="303.855" y="56.126" width="25.8051" height="72.8995" rx="6.45129" fill="#48FF97"/>
</g>
<g filter="url(#filter4_d_1009_4720)">
<rect x="329.661" y="56.126" width="25.8051" height="72.8995" rx="6.45129" fill="#48FF97"/>
</g>
<g filter="url(#filter5_d_1009_4720)">
<rect x="355.466" y="56.126" width="25.8051" height="72.8995" rx="6.45129" fill="#48FF97"/>
</g>
<g filter="url(#filter6_d_1009_4720)">
<rect x="381.271" y="56.126" width="25.8051" height="72.8995" rx="6.45129" fill="#48FF97"/>
</g>
<path d="M233.804 100.807H244.73V103.117H235.997V103.181L237.566 105.683H235.517L233.804 102.979V100.807ZM244.971 94.2118C244.967 95.1294 244.741 95.919 244.293 96.5805C243.845 97.2385 243.196 97.7453 242.346 98.101C241.496 98.4531 240.473 98.6274 239.278 98.6238C238.087 98.6238 237.071 98.4478 236.232 98.0957C235.392 97.74 234.754 97.2332 234.316 96.5752C233.875 95.9136 233.655 95.1258 233.655 94.2118C233.655 93.2977 233.875 92.5117 234.316 91.8537C234.758 91.1921 235.398 90.6835 236.237 90.3279C237.073 89.9722 238.087 89.7961 239.278 89.7997C240.477 89.7997 241.501 89.9775 242.351 90.3332C243.201 90.6853 243.85 91.1904 244.298 91.8483C244.746 92.5063 244.971 93.2941 244.971 94.2118ZM243.055 94.2118C243.055 93.5858 242.741 93.0861 242.111 92.7126C241.481 92.3392 240.537 92.1542 239.278 92.1578C238.449 92.1578 237.759 92.2431 237.208 92.4139C236.657 92.581 236.242 92.8193 235.965 93.1288C235.688 93.4346 235.549 93.7956 235.549 94.2118C235.549 94.8342 235.86 95.3321 236.483 95.7056C237.105 96.079 238.037 96.2675 239.278 96.2711C240.117 96.2711 240.818 96.1875 241.38 96.0203C241.938 95.8496 242.358 95.6095 242.639 95.3001C242.917 94.9907 243.055 94.6279 243.055 94.2118ZM244.971 84.1539C244.967 85.0716 244.741 85.8611 244.293 86.5227C243.845 87.1807 243.196 87.6875 242.346 88.0432C241.496 88.3953 240.473 88.5695 239.278 88.566C238.087 88.566 237.071 88.3899 236.232 88.0378C235.392 87.6822 234.754 87.1753 234.316 86.5173C233.875 85.8558 233.655 85.068 233.655 84.1539C233.655 83.2399 233.875 82.4538 234.316 81.7958C234.758 81.1343 235.398 80.6257 236.237 80.27C237.073 79.9144 238.087 79.7383 239.278 79.7419C240.477 79.7419 241.501 79.9197 242.351 80.2754C243.201 80.6275 243.85 81.1325 244.298 81.7905C244.746 82.4485 244.971 83.2363 244.971 84.1539ZM243.055 84.1539C243.055 83.528 242.741 83.0282 242.111 82.6548C241.481 82.2813 240.537 82.0964 239.278 82.0999C238.449 82.0999 237.759 82.1853 237.208 82.356C236.657 82.5232 236.242 82.7615 235.965 83.0709C235.688 83.3768 235.549 83.7378 235.549 84.1539C235.549 84.7763 235.86 85.2743 236.483 85.6477C237.105 86.0212 238.037 86.2097 239.278 86.2132C240.117 86.2132 240.818 86.1297 241.38 85.9625C241.938 85.7918 242.358 85.5517 242.639 85.2423C242.917 84.9328 243.055 84.5701 243.055 84.1539Z" fill="#4C4C4C"/>
<path d="M259.609 100.807H270.535V103.117H261.802V103.181L263.37 105.683H261.322L259.609 102.979V100.807ZM270.775 94.2118C270.772 95.1294 270.546 95.919 270.098 96.5805C269.65 97.2385 269 97.7453 268.15 98.101C267.3 98.4531 266.278 98.6274 265.083 98.6238C263.891 98.6238 262.876 98.4478 262.036 98.0957C261.197 97.74 260.559 97.2332 260.121 96.5752C259.68 95.9136 259.46 95.1258 259.46 94.2118C259.46 93.2977 259.68 92.5117 260.121 91.8537C260.562 91.1921 261.202 90.6835 262.042 90.3279C262.878 89.9722 263.891 89.7961 265.083 89.7997C266.281 89.7997 267.306 89.9775 268.156 90.3332C269.006 90.6853 269.655 91.1904 270.103 91.8483C270.551 92.5063 270.775 93.2941 270.775 94.2118ZM268.86 94.2118C268.86 93.5858 268.545 93.0861 267.916 92.7126C267.286 92.3392 266.342 92.1542 265.083 92.1578C264.254 92.1578 263.564 92.2431 263.013 92.4139C262.461 92.581 262.047 92.8193 261.77 93.1288C261.492 93.4346 261.354 93.7956 261.354 94.2118C261.354 94.8342 261.665 95.3321 262.287 95.7056C262.91 96.079 263.841 96.2675 265.083 96.2711C265.922 96.2711 266.623 96.1875 267.185 96.0203C267.743 95.8496 268.163 95.6095 268.444 95.3001C268.721 94.9907 268.86 94.6279 268.86 94.2118ZM270.775 84.1539C270.772 85.0716 270.546 85.8611 270.098 86.5227C269.65 87.1807 269 87.6875 268.15 88.0432C267.3 88.3953 266.278 88.5695 265.083 88.566C263.891 88.566 262.876 88.3899 262.036 88.0378C261.197 87.6822 260.559 87.1753 260.121 86.5173C259.68 85.8558 259.46 85.068 259.46 84.1539C259.46 83.2399 259.68 82.4538 260.121 81.7958C260.562 81.1343 261.202 80.6257 262.042 80.27C262.878 79.9144 263.891 79.7383 265.083 79.7419C266.281 79.7419 267.306 79.9197 268.156 80.2754C269.006 80.6275 269.655 81.1325 270.103 81.7905C270.551 82.4485 270.775 83.2363 270.775 84.1539ZM268.86 84.1539C268.86 83.528 268.545 83.0282 267.916 82.6548C267.286 82.2813 266.342 82.0964 265.083 82.0999C264.254 82.0999 263.564 82.1853 263.013 82.356C262.461 82.5232 262.047 82.7615 261.77 83.0709C261.492 83.3768 261.354 83.7378 261.354 84.1539C261.354 84.7763 261.665 85.2743 262.287 85.6477C262.91 86.0212 263.841 86.2097 265.083 86.2132C265.922 86.2132 266.623 86.1297 267.185 85.9625C267.743 85.7918 268.163 85.5517 268.444 85.2423C268.721 84.9328 268.86 84.5701 268.86 84.1539Z" fill="#4C4C4C"/>
<path d="M285.415 100.807H296.341V103.117H287.607V103.181L289.176 105.683H287.127L285.415 102.979V100.807ZM296.581 94.2118C296.577 95.1294 296.351 95.919 295.903 96.5805C295.455 97.2385 294.806 97.7453 293.956 98.101C293.106 98.4531 292.083 98.6274 290.888 98.6238C289.697 98.6238 288.682 98.4478 287.842 98.0957C287.003 97.74 286.364 97.2332 285.927 96.5752C285.486 95.9136 285.265 95.1258 285.265 94.2118C285.265 93.2977 285.486 92.5117 285.927 91.8537C286.368 91.1921 287.008 90.6835 287.847 90.3279C288.683 89.9722 289.697 89.7961 290.888 89.7997C292.087 89.7997 293.111 89.9775 293.961 90.3332C294.811 90.6853 295.461 91.1904 295.909 91.8483C296.357 92.5063 296.581 93.2941 296.581 94.2118ZM294.666 94.2118C294.666 93.5858 294.351 93.0861 293.721 92.7126C293.092 92.3392 292.147 92.1542 290.888 92.1578C290.06 92.1578 289.37 92.2431 288.818 92.4139C288.267 92.581 287.853 92.8193 287.575 93.1288C287.298 93.4346 287.159 93.7956 287.159 94.2118C287.159 94.8342 287.47 95.3321 288.093 95.7056C288.715 96.079 289.647 96.2675 290.888 96.2711C291.728 96.2711 292.428 96.1875 292.99 96.0203C293.549 95.8496 293.969 95.6095 294.249 95.3001C294.527 94.9907 294.666 94.6279 294.666 94.2118ZM296.581 84.1539C296.577 85.0716 296.351 85.8611 295.903 86.5227C295.455 87.1807 294.806 87.6875 293.956 88.0432C293.106 88.3953 292.083 88.5695 290.888 88.566C289.697 88.566 288.682 88.3899 287.842 88.0378C287.003 87.6822 286.364 87.1753 285.927 86.5173C285.486 85.8558 285.265 85.068 285.265 84.1539C285.265 83.2399 285.486 82.4538 285.927 81.7958C286.368 81.1343 287.008 80.6257 287.847 80.27C288.683 79.9144 289.697 79.7383 290.888 79.7419C292.087 79.7419 293.111 79.9197 293.961 80.2754C294.811 80.6275 295.461 81.1325 295.909 81.7905C296.357 82.4485 296.581 83.2363 296.581 84.1539ZM294.666 84.1539C294.666 83.528 294.351 83.0282 293.721 82.6548C293.092 82.2813 292.147 82.0964 290.888 82.0999C290.06 82.0999 289.37 82.1853 288.818 82.356C288.267 82.5232 287.853 82.7615 287.575 83.0709C287.298 83.3768 287.159 83.7378 287.159 84.1539C287.159 84.7763 287.47 85.2743 288.093 85.6477C288.715 86.0212 289.647 86.2097 290.888 86.2132C291.728 86.2132 292.428 86.1297 292.99 85.9625C293.549 85.7918 293.969 85.5517 294.249 85.2423C294.527 84.9328 294.666 84.5701 294.666 84.1539Z" fill="#4C4C4C"/>
<path d="M311.219 100.807H322.146V103.117H313.412V103.181L314.981 105.683H312.932L311.219 102.979V100.807ZM322.386 94.2118C322.382 95.1294 322.156 95.919 321.708 96.5805C321.26 97.2385 320.611 97.7453 319.761 98.101C318.911 98.4531 317.888 98.6274 316.693 98.6238C315.502 98.6238 314.486 98.4478 313.647 98.0957C312.807 97.74 312.169 97.2332 311.732 96.5752C311.291 95.9136 311.07 95.1258 311.07 94.2118C311.07 93.2977 311.291 92.5117 311.732 91.8537C312.173 91.1921 312.813 90.6835 313.652 90.3279C314.488 89.9722 315.502 89.7961 316.693 89.7997C317.892 89.7997 318.916 89.9775 319.766 90.3332C320.616 90.6853 321.265 91.1904 321.713 91.8483C322.162 92.5063 322.386 93.2941 322.386 94.2118ZM320.47 94.2118C320.47 93.5858 320.156 93.0861 319.526 92.7126C318.896 92.3392 317.952 92.1542 316.693 92.1578C315.864 92.1578 315.174 92.2431 314.623 92.4139C314.072 92.581 313.657 92.8193 313.38 93.1288C313.103 93.4346 312.964 93.7956 312.964 94.2118C312.964 94.8342 313.275 95.3321 313.898 95.7056C314.52 96.079 315.452 96.2675 316.693 96.2711C317.532 96.2711 318.233 96.1875 318.795 96.0203C319.354 95.8496 319.773 95.6095 320.054 95.3001C320.332 94.9907 320.47 94.6279 320.47 94.2118ZM322.386 84.1539C322.382 85.0716 322.156 85.8611 321.708 86.5227C321.26 87.1807 320.611 87.6875 319.761 88.0432C318.911 88.3953 317.888 88.5695 316.693 88.566C315.502 88.566 314.486 88.3899 313.647 88.0378C312.807 87.6822 312.169 87.1753 311.732 86.5173C311.291 85.8558 311.07 85.068 311.07 84.1539C311.07 83.2399 311.291 82.4538 311.732 81.7958C312.173 81.1343 312.813 80.6257 313.652 80.27C314.488 79.9144 315.502 79.7383 316.693 79.7419C317.892 79.7419 318.916 79.9197 319.766 80.2754C320.616 80.6275 321.265 81.1325 321.713 81.7905C322.162 82.4485 322.386 83.2363 322.386 84.1539ZM320.47 84.1539C320.47 83.528 320.156 83.0282 319.526 82.6548C318.896 82.2813 317.952 82.0964 316.693 82.0999C315.864 82.0999 315.174 82.1853 314.623 82.356C314.072 82.5232 313.657 82.7615 313.38 83.0709C313.103 83.3768 312.964 83.7378 312.964 84.1539C312.964 84.7763 313.275 85.2743 313.898 85.6477C314.52 86.0212 315.452 86.2097 316.693 86.2132C317.532 86.2132 318.233 86.1297 318.795 85.9625C319.354 85.7918 319.773 85.5517 320.054 85.2423C320.332 84.9328 320.47 84.5701 320.47 84.1539Z" fill="#4C4C4C"/>
<path d="M336.38 100.807H347.306V103.117H338.572V103.181L340.141 105.683H338.092L336.38 102.979V100.807ZM347.546 94.2118C347.542 95.1294 347.316 95.919 346.868 96.5805C346.42 97.2385 345.771 97.7453 344.921 98.101C344.071 98.4531 343.048 98.6274 341.853 98.6238C340.662 98.6238 339.646 98.4478 338.807 98.0957C337.968 97.74 337.329 97.2332 336.892 96.5752C336.451 95.9136 336.23 95.1258 336.23 94.2118C336.23 93.2977 336.451 92.5117 336.892 91.8537C337.333 91.1921 337.973 90.6835 338.812 90.3279C339.648 89.9722 340.662 89.7961 341.853 89.7997C343.052 89.7997 344.076 89.9775 344.926 90.3332C345.776 90.6853 346.425 91.1904 346.874 91.8483C347.322 92.5063 347.546 93.2941 347.546 94.2118ZM345.63 94.2118C345.63 93.5858 345.316 93.0861 344.686 92.7126C344.057 92.3392 343.112 92.1542 341.853 92.1578C341.025 92.1578 340.335 92.2431 339.783 92.4139C339.232 92.581 338.818 92.8193 338.54 93.1288C338.263 93.4346 338.124 93.7956 338.124 94.2118C338.124 94.8342 338.435 95.3321 339.058 95.7056C339.68 96.079 340.612 96.2675 341.853 96.2711C342.693 96.2711 343.393 96.1875 343.955 96.0203C344.514 95.8496 344.933 95.6095 345.214 95.3001C345.492 94.9907 345.63 94.6279 345.63 94.2118ZM347.546 84.1539C347.542 85.0716 347.316 85.8611 346.868 86.5227C346.42 87.1807 345.771 87.6875 344.921 88.0432C344.071 88.3953 343.048 88.5695 341.853 88.566C340.662 88.566 339.646 88.3899 338.807 88.0378C337.968 87.6822 337.329 87.1753 336.892 86.5173C336.451 85.8558 336.23 85.068 336.23 84.1539C336.23 83.2399 336.451 82.4538 336.892 81.7958C337.333 81.1343 337.973 80.6257 338.812 80.27C339.648 79.9144 340.662 79.7383 341.853 79.7419C343.052 79.7419 344.076 79.9197 344.926 80.2754C345.776 80.6275 346.425 81.1325 346.874 81.7905C347.322 82.4485 347.546 83.2363 347.546 84.1539ZM345.63 84.1539C345.63 83.528 345.316 83.0282 344.686 82.6548C344.057 82.2813 343.112 82.0964 341.853 82.0999C341.025 82.0999 340.335 82.1853 339.783 82.356C339.232 82.5232 338.818 82.7615 338.54 83.0709C338.263 83.3768 338.124 83.7378 338.124 84.1539C338.124 84.7763 338.435 85.2743 339.058 85.6477C339.68 86.0212 340.612 86.2097 341.853 86.2132C342.693 86.2132 343.393 86.1297 343.955 85.9625C344.514 85.7918 344.933 85.5517 345.214 85.2423C345.492 84.9328 345.63 84.5701 345.63 84.1539Z" fill="#4C4C4C"/>
<path d="M362.83 100.807H373.756V103.117H365.022V103.181L366.591 105.683H364.542L362.83 102.979V100.807ZM373.996 94.2118C373.992 95.1294 373.767 95.919 373.318 96.5805C372.87 97.2385 372.221 97.7453 371.371 98.101C370.521 98.4531 369.499 98.6274 368.303 98.6238C367.112 98.6238 366.097 98.4478 365.257 98.0957C364.418 97.74 363.779 97.2332 363.342 96.5752C362.901 95.9136 362.68 95.1258 362.68 94.2118C362.68 93.2977 362.901 92.5117 363.342 91.8537C363.783 91.1921 364.423 90.6835 365.262 90.3279C366.098 89.9722 367.112 89.7961 368.303 89.7997C369.502 89.7997 370.526 89.9775 371.376 90.3332C372.226 90.6853 372.876 91.1904 373.324 91.8483C373.772 92.5063 373.996 93.2941 373.996 94.2118ZM372.081 94.2118C372.081 93.5858 371.766 93.0861 371.136 92.7126C370.507 92.3392 369.563 92.1542 368.303 92.1578C367.475 92.1578 366.785 92.2431 366.233 92.4139C365.682 92.581 365.268 92.8193 364.99 93.1288C364.713 93.4346 364.574 93.7956 364.574 94.2118C364.574 94.8342 364.885 95.3321 365.508 95.7056C366.13 96.079 367.062 96.2675 368.303 96.2711C369.143 96.2711 369.844 96.1875 370.405 96.0203C370.964 95.8496 371.384 95.6095 371.665 95.3001C371.942 94.9907 372.081 94.6279 372.081 94.2118ZM373.996 84.1539C373.992 85.0716 373.767 85.8611 373.318 86.5227C372.87 87.1807 372.221 87.6875 371.371 88.0432C370.521 88.3953 369.499 88.5695 368.303 88.566C367.112 88.566 366.097 88.3899 365.257 88.0378C364.418 87.6822 363.779 87.1753 363.342 86.5173C362.901 85.8558 362.68 85.068 362.68 84.1539C362.68 83.2399 362.901 82.4538 363.342 81.7958C363.783 81.1343 364.423 80.6257 365.262 80.27C366.098 79.9144 367.112 79.7383 368.303 79.7419C369.502 79.7419 370.526 79.9197 371.376 80.2754C372.226 80.6275 372.876 81.1325 373.324 81.7905C373.772 82.4485 373.996 83.2363 373.996 84.1539ZM372.081 84.1539C372.081 83.528 371.766 83.0282 371.136 82.6548C370.507 82.2813 369.563 82.0964 368.303 82.0999C367.475 82.0999 366.785 82.1853 366.233 82.356C365.682 82.5232 365.268 82.7615 364.99 83.0709C364.713 83.3768 364.574 83.7378 364.574 84.1539C364.574 84.7763 364.885 85.2743 365.508 85.6477C366.13 86.0212 367.062 86.2097 368.303 86.2132C369.143 86.2132 369.844 86.1297 370.405 85.9625C370.964 85.7918 371.384 85.5517 371.665 85.2423C371.942 84.9328 372.081 84.5701 372.081 84.1539Z" fill="#4C4C4C"/>
<path d="M389.28 100.807H400.206V103.117H391.473V103.181L393.041 105.683H390.992L389.28 102.979V100.807ZM400.446 94.2118C400.443 95.1294 400.217 95.919 399.769 96.5805C399.32 97.2385 398.671 97.7453 397.821 98.101C396.971 98.4531 395.949 98.6274 394.754 98.6238C393.562 98.6238 392.547 98.4478 391.707 98.0957C390.868 97.74 390.23 97.2332 389.792 96.5752C389.351 95.9136 389.131 95.1258 389.131 94.2118C389.131 93.2977 389.351 92.5117 389.792 91.8537C390.233 91.1921 390.873 90.6835 391.713 90.3279C392.549 89.9722 393.562 89.7961 394.754 89.7997C395.952 89.7997 396.977 89.9775 397.827 90.3332C398.677 90.6853 399.326 91.1904 399.774 91.8483C400.222 92.5063 400.446 93.2941 400.446 94.2118ZM398.531 94.2118C398.531 93.5858 398.216 93.0861 397.587 92.7126C396.957 92.3392 396.013 92.1542 394.754 92.1578C393.925 92.1578 393.235 92.2431 392.684 92.4139C392.132 92.581 391.718 92.8193 391.441 93.1288C391.163 93.4346 391.024 93.7956 391.024 94.2118C391.024 94.8342 391.336 95.3321 391.958 95.7056C392.581 96.079 393.512 96.2675 394.754 96.2711C395.593 96.2711 396.294 96.1875 396.856 96.0203C397.414 95.8496 397.834 95.6095 398.115 95.3001C398.392 94.9907 398.531 94.6279 398.531 94.2118ZM400.446 84.1539C400.443 85.0716 400.217 85.8611 399.769 86.5227C399.32 87.1807 398.671 87.6875 397.821 88.0432C396.971 88.3953 395.949 88.5695 394.754 88.566C393.562 88.566 392.547 88.3899 391.707 88.0378C390.868 87.6822 390.23 87.1753 389.792 86.5173C389.351 85.8558 389.131 85.068 389.131 84.1539C389.131 83.2399 389.351 82.4538 389.792 81.7958C390.233 81.1343 390.873 80.6257 391.713 80.27C392.549 79.9144 393.562 79.7383 394.754 79.7419C395.952 79.7419 396.977 79.9197 397.827 80.2754C398.677 80.6275 399.326 81.1325 399.774 81.7905C400.222 82.4485 400.446 83.2363 400.446 84.1539ZM398.531 84.1539C398.531 83.528 398.216 83.0282 397.587 82.6548C396.957 82.2813 396.013 82.0964 394.754 82.0999C393.925 82.0999 393.235 82.1853 392.684 82.356C392.132 82.5232 391.718 82.7615 391.441 83.0709C391.163 83.3768 391.024 83.7378 391.024 84.1539C391.024 84.7763 391.336 85.2743 391.958 85.6477C392.581 86.0212 393.512 86.2097 394.754 86.2132C395.593 86.2132 396.294 86.1297 396.856 85.9625C397.414 85.7918 397.834 85.5517 398.115 85.2423C398.392 84.9328 398.531 84.5701 398.531 84.1539Z" fill="#4C4C4C"/>
<defs>
<filter id="filter0_d_1009_4720" x="223.86" y="56.126" width="30.9657" height="78.0604" filterUnits="userSpaceOnUse" color-interpolation-filters="sRGB">
<feFlood flood-opacity="0" result="BackgroundImageFix"/>
<feColorMatrix in="SourceAlpha" type="matrix" values="0 0 0 0 0 0 0 0 0 0 0 0 0 0 0 0 0 0 127 0" result="hardAlpha"/>
<feOffset dy="2.58051"/>
<feGaussianBlur stdDeviation="1.29026"/>
<feComposite in2="hardAlpha" operator="out"/>
<feColorMatrix type="matrix" values="0 0 0 0 0 0 0 0 0 0 0 0 0 0 0 0 0 0 0.25 0"/>
<feBlend mode="normal" in2="BackgroundImageFix" result="effect1_dropShadow_1009_4720"/>
<feBlend mode="normal" in="SourceGraphic" in2="effect1_dropShadow_1009_4720" result="shape"/>
</filter>
<filter id="filter1_d_1009_4720" x="249.665" y="56.126" width="30.9657" height="78.0604" filterUnits="userSpaceOnUse" color-interpolation-filters="sRGB">
<feFlood flood-opacity="0" result="BackgroundImageFix"/>
<feColorMatrix in="SourceAlpha" type="matrix" values="0 0 0 0 0 0 0 0 0 0 0 0 0 0 0 0 0 0 127 0" result="hardAlpha"/>
<feOffset dy="2.58051"/>
<feGaussianBlur stdDeviation="1.29026"/>
<feComposite in2="hardAlpha" operator="out"/>
<feColorMatrix type="matrix" values="0 0 0 0 0 0 0 0 0 0 0 0 0 0 0 0 0 0 0.25 0"/>
<feBlend mode="normal" in2="BackgroundImageFix" result="effect1_dropShadow_1009_4720"/>
<feBlend mode="normal" in="SourceGraphic" in2="effect1_dropShadow_1009_4720" result="shape"/>
</filter>
<filter id="filter2_d_1009_4720" x="275.47" y="56.126" width="30.9657" height="78.0604" filterUnits="userSpaceOnUse" color-interpolation-filters="sRGB">
<feFlood flood-opacity="0" result="BackgroundImageFix"/>
<feColorMatrix in="SourceAlpha" type="matrix" values="0 0 0 0 0 0 0 0 0 0 0 0 0 0 0 0 0 0 127 0" result="hardAlpha"/>
<feOffset dy="2.58051"/>
<feGaussianBlur stdDeviation="1.29026"/>
<feComposite in2="hardAlpha" operator="out"/>
<feColorMatrix type="matrix" values="0 0 0 0 0 0 0 0 0 0 0 0 0 0 0 0 0 0 0.25 0"/>
<feBlend mode="normal" in2="BackgroundImageFix" result="effect1_dropShadow_1009_4720"/>
<feBlend mode="normal" in="SourceGraphic" in2="effect1_dropShadow_1009_4720" result="shape"/>
</filter>
<filter id="filter3_d_1009_4720" x="301.275" y="56.126" width="30.9657" height="78.0604" filterUnits="userSpaceOnUse" color-interpolation-filters="sRGB">
<feFlood flood-opacity="0" result="BackgroundImageFix"/>
<feColorMatrix in="SourceAlpha" type="matrix" values="0 0 0 0 0 0 0 0 0 0 0 0 0 0 0 0 0 0 127 0" result="hardAlpha"/>
<feOffset dy="2.58051"/>
<feGaussianBlur stdDeviation="1.29026"/>
<feComposite in2="hardAlpha" operator="out"/>
<feColorMatrix type="matrix" values="0 0 0 0 0 0 0 0 0 0 0 0 0 0 0 0 0 0 0.25 0"/>
<feBlend mode="normal" in2="BackgroundImageFix" result="effect1_dropShadow_1009_4720"/>
<feBlend mode="normal" in="SourceGraphic" in2="effect1_dropShadow_1009_4720" result="shape"/>
</filter>
<filter id="filter4_d_1009_4720" x="327.081" y="56.126" width="30.9657" height="78.0604" filterUnits="userSpaceOnUse" color-interpolation-filters="sRGB">
<feFlood flood-opacity="0" result="BackgroundImageFix"/>
<feColorMatrix in="SourceAlpha" type="matrix" values="0 0 0 0 0 0 0 0 0 0 0 0 0 0 0 0 0 0 127 0" result="hardAlpha"/>
<feOffset dy="2.58051"/>
<feGaussianBlur stdDeviation="1.29026"/>
<feComposite in2="hardAlpha" operator="out"/>
<feColorMatrix type="matrix" values="0 0 0 0 0 0 0 0 0 0 0 0 0 0 0 0 0 0 0.25 0"/>
<feBlend mode="normal" in2="BackgroundImageFix" result="effect1_dropShadow_1009_4720"/>
<feBlend mode="normal" in="SourceGraphic" in2="effect1_dropShadow_1009_4720" result="shape"/>
</filter>
<filter id="filter5_d_1009_4720" x="352.885" y="56.126" width="30.9657" height="78.0604" filterUnits="userSpaceOnUse" color-interpolation-filters="sRGB">
<feFlood flood-opacity="0" result="BackgroundImageFix"/>
<feColorMatrix in="SourceAlpha" type="matrix" values="0 0 0 0 0 0 0 0 0 0 0 0 0 0 0 0 0 0 127 0" result="hardAlpha"/>
<feOffset dy="2.58051"/>
<feGaussianBlur stdDeviation="1.29026"/>
<feComposite in2="hardAlpha" operator="out"/>
<feColorMatrix type="matrix" values="0 0 0 0 0 0 0 0 0 0 0 0 0 0 0 0 0 0 0.25 0"/>
<feBlend mode="normal" in2="BackgroundImageFix" result="effect1_dropShadow_1009_4720"/>
<feBlend mode="normal" in="SourceGraphic" in2="effect1_dropShadow_1009_4720" result="shape"/>
</filter>
<filter id="filter6_d_1009_4720" x="378.691" y="56.126" width="30.9657" height="78.0604" filterUnits="userSpaceOnUse" color-interpolation-filters="sRGB">
<feFlood flood-opacity="0" result="BackgroundImageFix"/>
<feColorMatrix in="SourceAlpha" type="matrix" values="0 0 0 0 0 0 0 0 0 0 0 0 0 0 0 0 0 0 127 0" result="hardAlpha"/>
<feOffset dy="2.58051"/>
<feGaussianBlur stdDeviation="1.29026"/>
<feComposite in2="hardAlpha" operator="out"/>
<feColorMatrix type="matrix" values="0 0 0 0 0 0 0 0 0 0 0 0 0 0 0 0 0 0 0.25 0"/>
<feBlend mode="normal" in2="BackgroundImageFix" result="effect1_dropShadow_1009_4720"/>
<feBlend mode="normal" in="SourceGraphic" in2="effect1_dropShadow_1009_4720" result="shape"/>
</filter>
</defs>
</svg>
