<svg width="424" height="215" viewBox="0 0 424 215" fill="none" xmlns="http://www.w3.org/2000/svg">
<rect x="21.9566" y="56.4331" width="38.1415" height="38.1415" fill="#F1F1F1" stroke="black" stroke-width="0.778399"/>
<rect x="60.0992" y="56.4331" width="38.1415" height="38.1415" fill="#F1F1F1" stroke="black" stroke-width="0.778399"/>
<rect x="98.2398" y="56.4331" width="38.1415" height="38.1415" fill="#F1F1F1" stroke="black" stroke-width="0.778399"/>
<rect x="21.9566" y="94.5757" width="38.1415" height="38.1415" fill="#F1F1F1" stroke="black" stroke-width="0.778399"/>
<rect x="60.0992" y="94.5757" width="38.1415" height="38.1415" fill="#F1F1F1" stroke="black" stroke-width="0.778399"/>
<rect x="98.2398" y="94.5757" width="38.1415" height="38.1415" fill="#F1F1F1" stroke="black" stroke-width="0.778399"/>
<rect x="21.9566" y="132.716" width="38.1415" height="38.1415" fill="#F1F1F1" stroke="black" stroke-width="0.778399"/>
<rect x="60.0992" y="132.716" width="38.1415" height="38.1415" fill="#F1F1F1" stroke="black" stroke-width="0.778399"/>
<rect x="98.2398" y="132.716" width="38.1415" height="38.1415" fill="#F1F1F1" stroke="black" stroke-width="0.778399"/>
<rect x="207.995" y="76.6724" width="38.1415" height="38.1415" fill="#F1F1F1" stroke="black" stroke-width="0.778399"/>
<rect x="246.135" y="76.6724" width="38.1415" height="38.1415" fill="#F1F1F1" stroke="black" stroke-width="0.778399"/>
<rect x="207.995" y="114.813" width="38.1415" height="38.1415" fill="#F1F1F1" stroke="black" stroke-width="0.778399"/>
<rect x="246.135" y="114.813" width="38.1415" height="38.1415" fill="#F1F1F1" stroke="black" stroke-width="0.778399"/>
<rect x="385.468" y="75.8941" width="38.1415" height="38.1415" fill="#F1F1F1" stroke="black" stroke-width="0.778399"/>
<rect x="385.468" y="114.036" width="38.1415" height="38.1415" fill="#F1F1F1" stroke="black" stroke-width="0.778399"/>
<rect x="21.9566" y="56.4331" width="76.2831" height="76.2831" stroke="#FF0000" stroke-width="0.778399"/>
<rect x="21.9566" y="56.4331" width="76.2831" height="76.2831" stroke="#FF0000" stroke-width="0.778399"/>
<path d="M137.321 43.3629C137.625 43.0589 137.625 42.5661 137.321 42.2621L132.367 37.3084C132.063 37.0044 131.57 37.0044 131.266 37.3084C130.962 37.6124 130.962 38.1052 131.266 38.4092L135.67 42.8125L131.266 47.2158C130.962 47.5198 130.962 48.0126 131.266 48.3166C131.57 48.6206 132.063 48.6206 132.367 48.3166L137.321 43.3629ZM21.5674 43.5909L79.1689 43.5909L79.1689 42.0341L21.5674 42.0341L21.5674 43.5909ZM79.1689 43.5909L136.77 43.5909L136.77 42.0341L79.1689 42.0341L79.1689 43.5909Z" fill="#FF0000"/>
<path d="M5.44959 171.797C5.75358 172.101 6.24643 172.101 6.55042 171.797L11.5041 166.844C11.8081 166.54 11.8081 166.047 11.5041 165.743C11.2001 165.439 10.7073 165.439 10.4033 165.743L6 170.146L1.59672 165.743C1.29273 165.439 0.79988 165.439 0.495896 165.743C0.191913 166.047 0.191913 166.54 0.495896 166.844L5.44959 171.797ZM5.2216 56.0439L5.22161 171.247L6.7784 171.247L6.7784 56.0439L5.2216 56.0439Z" fill="#FF0000"/>
<line x1="21.6111" y1="131.94" x2="207.648" y2="152.957" stroke="#FF0000" stroke-width="0.778399" stroke-dasharray="3.89 3.89"/>
<line x1="21.6095" y1="56.4353" x2="207.647" y2="76.6737" stroke="#FF0000" stroke-width="0.778399" stroke-dasharray="3.89 3.89"/>
<line x1="97.8943" y1="131.94" x2="283.932" y2="152.957" stroke="#FF0000" stroke-width="0.778399" stroke-dasharray="3.89 3.89"/>
<line x1="97.8943" y1="55.6572" x2="283.932" y2="76.674" stroke="#FF0000" stroke-width="0.778399" stroke-dasharray="3.89 3.89"/>
<rect x="347.328" y="114.036" width="38.1415" height="38.1415" fill="#F1F1F1" stroke="black" stroke-width="0.778399"/>
<line x1="284.664" y1="76.6723" x2="385.077" y2="75.8939" stroke="#0065D0" stroke-width="0.778399"/>
<line x1="284.526" y1="152.204" x2="384.94" y2="113.284" stroke="#0065D0" stroke-width="0.778399"/>
<line x1="207.499" y1="152.97" x2="346.832" y2="113.272" stroke="#0065D0" stroke-width="0.778399"/>
<line x1="207.605" y1="76.6723" x2="346.939" y2="76.6723" stroke="#0065D0" stroke-width="0.778399"/>
<rect x="347.717" y="76.2833" width="37.3631" height="37.3631" fill="#F1F1F1" stroke="#0065D0" stroke-width="1.5568"/>
<path d="M42.2872 69.506V80.8281H40.9162V70.9433H40.8498L38.0857 72.7788V71.3856L40.9162 69.506H42.2872Z" fill="black"/>
<path d="M80.4298 107.649V118.971H79.0588V109.086H78.9924L76.2282 110.921V109.528L79.0588 107.649H80.4298Z" fill="black"/>
<path d="M367.994 101.222C367.346 101.222 366.762 101.093 366.242 100.835C365.722 100.577 365.306 100.223 364.992 99.7737C364.679 99.3241 364.508 98.8118 364.478 98.2368H365.805C365.857 98.7491 366.089 99.173 366.502 99.5084C366.918 99.8401 367.416 100.006 367.994 100.006C368.459 100.006 368.872 99.8972 369.233 99.6798C369.598 99.4623 369.883 99.1638 370.09 98.7842C370.3 98.4009 370.405 97.9678 370.405 97.485C370.405 96.9911 370.296 96.5507 370.079 96.1637C369.865 95.773 369.57 95.4653 369.194 95.2405C368.818 95.0156 368.389 94.9014 367.906 94.8977C367.559 94.894 367.204 94.9474 366.839 95.058C366.474 95.1649 366.174 95.3031 365.938 95.4726L364.655 95.3178L365.341 89.7452H371.223V90.9615H366.491L366.093 94.3006H366.159C366.391 94.1163 366.682 93.9634 367.032 93.8418C367.383 93.7201 367.747 93.6593 368.127 93.6593C368.82 93.6593 369.437 93.8252 369.979 94.1569C370.525 94.4849 370.952 94.9345 371.262 95.5058C371.575 96.0771 371.732 96.7294 371.732 97.4629C371.732 98.1852 371.569 98.8302 371.245 99.3978C370.924 99.9617 370.482 100.408 369.918 100.736C369.354 101.06 368.713 101.222 367.994 101.222Z" fill="black"/>
<path d="M228.325 127.108V138.43H226.954V128.545H226.888L224.124 130.38V128.987L226.954 127.108H228.325Z" fill="black"/>
<path d="M41.9998 119.125C41.1668 119.125 40.4573 118.899 39.8713 118.446C39.2853 117.988 38.8375 117.327 38.5279 116.461C38.2183 115.591 38.0635 114.541 38.0635 113.31C38.0635 112.086 38.2183 111.041 38.5279 110.175C38.8412 109.305 39.2908 108.642 39.8769 108.185C40.4665 107.724 41.1742 107.494 41.9998 107.494C42.8253 107.494 43.5311 107.724 44.1171 108.185C44.7068 108.642 45.1565 109.305 45.4661 110.175C45.7793 111.041 45.936 112.086 45.936 113.31C45.936 114.541 45.7812 115.591 45.4716 116.461C45.162 117.327 44.7142 117.988 44.1282 118.446C43.5422 118.899 42.8327 119.125 41.9998 119.125ZM41.9998 117.909C42.8253 117.909 43.4666 117.511 43.9236 116.715C44.3807 115.919 44.6092 114.784 44.6092 113.31C44.6092 112.329 44.5041 111.494 44.294 110.805C44.0876 110.116 43.7891 109.591 43.3984 109.23C43.0115 108.868 42.5452 108.688 41.9998 108.688C41.1816 108.688 40.5421 109.091 40.0814 109.899C39.6207 110.702 39.3904 111.839 39.3904 113.31C39.3904 114.29 39.4935 115.123 39.6999 115.808C39.9063 116.494 40.203 117.015 40.59 117.373C40.9807 117.73 41.4506 117.909 41.9998 117.909Z" fill="black"/>
<path d="M264.623 101.222C263.79 101.222 263.08 100.996 262.494 100.542C261.908 100.085 261.461 99.4236 261.151 98.5575C260.841 97.6877 260.687 96.6373 260.687 95.4063C260.687 94.1827 260.841 93.1378 261.151 92.2717C261.464 91.4019 261.914 90.7385 262.5 90.2815C263.09 89.8208 263.797 89.5904 264.623 89.5904C265.448 89.5904 266.154 89.8208 266.74 90.2815C267.33 90.7385 267.78 91.4019 268.089 92.2717C268.402 93.1378 268.559 94.1827 268.559 95.4063C268.559 96.6373 268.404 97.6877 268.095 98.5575C267.785 99.4236 267.337 100.085 266.751 100.542C266.165 100.996 265.456 101.222 264.623 101.222ZM264.623 100.006C265.448 100.006 266.09 99.6079 266.547 98.8118C267.004 98.0157 267.232 96.8805 267.232 95.4063C267.232 94.4259 267.127 93.5911 266.917 92.9019C266.711 92.2127 266.412 91.6875 266.021 91.3263C265.635 90.9652 265.168 90.7846 264.623 90.7846C263.805 90.7846 263.165 91.1881 262.704 91.9953C262.244 92.7987 262.013 93.9357 262.013 95.4063C262.013 96.3867 262.117 97.2196 262.323 97.9051C262.529 98.5907 262.826 99.1122 263.213 99.4697C263.604 99.8272 264.074 100.006 264.623 100.006Z" fill="black"/>
<path d="M78.5847 157.266C77.7518 157.266 77.0423 157.039 76.4563 156.586C75.8703 156.129 75.4225 155.468 75.1129 154.601C74.8033 153.732 74.6485 152.681 74.6485 151.45C74.6485 150.227 74.8033 149.182 75.1129 148.316C75.4262 147.446 75.8758 146.782 76.4618 146.325C77.0515 145.865 77.7591 145.634 78.5847 145.634C79.4103 145.634 80.1161 145.865 80.7021 146.325C81.2918 146.782 81.7414 147.446 82.051 148.316C82.3643 149.182 82.5209 150.227 82.5209 151.45C82.5209 152.681 82.3661 153.732 82.0566 154.601C81.747 155.468 81.2992 156.129 80.7132 156.586C80.1271 157.039 79.4177 157.266 78.5847 157.266ZM78.5847 156.05C79.4103 156.05 80.0516 155.652 80.5086 154.856C80.9656 154.06 81.1941 152.924 81.1941 151.45C81.1941 150.47 81.0891 149.635 80.879 148.946C80.6726 148.257 80.3741 147.731 79.9834 147.37C79.5964 147.009 79.1302 146.829 78.5847 146.829C77.7665 146.829 77.1271 147.232 76.6664 148.039C76.2057 148.843 75.9753 149.98 75.9753 151.45C75.9753 152.431 76.0785 153.264 76.2849 153.949C76.4913 154.635 76.788 155.156 77.175 155.514C77.5656 155.871 78.0356 156.05 78.5847 156.05Z" fill="black"/>
<path d="M76.4494 80.8281V79.833L80.1866 75.742C80.6251 75.2629 80.9863 74.8464 81.2701 74.4926C81.5539 74.1351 81.764 73.7997 81.9004 73.4864C82.0404 73.1694 82.1104 72.8377 82.1104 72.4913C82.1104 72.0933 82.0146 71.7487 81.823 71.4575C81.635 71.1663 81.377 70.9415 81.049 70.783C80.721 70.6245 80.3524 70.5453 79.9433 70.5453C79.5084 70.5453 79.1288 70.6356 78.8045 70.8162C78.4838 70.9931 78.235 71.2419 78.0581 71.5625C77.8849 71.8832 77.7983 72.2591 77.7983 72.6903H76.4936C76.4936 72.0269 76.6465 71.4446 76.9524 70.9433C77.2584 70.4421 77.6748 70.0514 78.2019 69.7713C78.7326 69.4912 79.3278 69.3512 79.9875 69.3512C80.6509 69.3512 81.2388 69.4912 81.7511 69.7713C82.2634 70.0514 82.6651 70.4292 82.9563 70.9046C83.2475 71.3801 83.393 71.909 83.393 72.4913C83.393 72.9078 83.3175 73.315 83.1664 73.7131C83.0189 74.1074 82.761 74.5479 82.3924 75.0344C82.0275 75.5172 81.5207 76.1069 80.8721 76.8035L78.329 79.5234V79.6119H83.5921V80.8281H76.4494Z" fill="black"/>
<path d="M76.4494 80.8281V79.833L80.1866 75.742C80.6251 75.2629 80.9863 74.8464 81.2701 74.4926C81.5539 74.1351 81.764 73.7997 81.9004 73.4864C82.0404 73.1694 82.1104 72.8377 82.1104 72.4913C82.1104 72.0933 82.0146 71.7487 81.823 71.4575C81.635 71.1663 81.377 70.9415 81.049 70.783C80.721 70.6245 80.3524 70.5453 79.9433 70.5453C79.5084 70.5453 79.1288 70.6356 78.8045 70.8162C78.4838 70.9931 78.235 71.2419 78.0581 71.5625C77.8849 71.8832 77.7983 72.2591 77.7983 72.6903H76.4936C76.4936 72.0269 76.6465 71.4446 76.9524 70.9433C77.2584 70.4421 77.6748 70.0514 78.2019 69.7713C78.7326 69.4912 79.3278 69.3512 79.9875 69.3512C80.6509 69.3512 81.2388 69.4912 81.7511 69.7713C82.2634 70.0514 82.6651 70.4292 82.9563 70.9046C83.2475 71.3801 83.393 71.909 83.393 72.4913C83.393 72.9078 83.3175 73.315 83.1664 73.7131C83.0189 74.1074 82.761 74.5479 82.3924 75.0344C82.0275 75.5172 81.5207 76.1069 80.8721 76.8035L78.329 79.5234V79.6119H83.5921V80.8281H76.4494Z" fill="black"/>
<path d="M116.86 80.9829C116.13 80.9829 115.48 80.8576 114.908 80.607C114.341 80.3564 113.889 80.0081 113.554 79.5621C113.222 79.1125 113.042 78.591 113.012 77.9976H114.405C114.435 78.3625 114.56 78.6776 114.781 78.9429C115.002 79.2046 115.292 79.4073 115.649 79.5511C116.007 79.6948 116.403 79.7667 116.838 79.7667C117.324 79.7667 117.756 79.6819 118.132 79.5124C118.507 79.3428 118.802 79.107 119.016 78.8047C119.23 78.5025 119.337 78.1524 119.337 77.7543C119.337 77.3379 119.234 76.9711 119.027 76.6542C118.821 76.3335 118.518 76.0829 118.12 75.9023C117.722 75.7217 117.236 75.6314 116.661 75.6314H115.754V74.4152H116.661C117.111 74.4152 117.505 74.3341 117.844 74.1719C118.187 74.0098 118.454 73.7813 118.646 73.4864C118.841 73.1916 118.939 72.8451 118.939 72.4471C118.939 72.0638 118.854 71.7302 118.684 71.4464C118.515 71.1626 118.275 70.9415 117.966 70.783C117.66 70.6245 117.299 70.5453 116.882 70.5453C116.491 70.5453 116.123 70.6172 115.776 70.7609C115.434 70.901 115.154 71.1055 114.936 71.3746C114.719 71.6399 114.601 71.9606 114.582 72.3365H113.255C113.278 71.7431 113.456 71.2235 113.792 70.7775C114.127 70.3279 114.566 69.9777 115.107 69.7271C115.653 69.4765 116.252 69.3512 116.904 69.3512C117.604 69.3512 118.205 69.4931 118.706 69.7769C119.208 70.057 119.593 70.4274 119.862 70.8881C120.131 71.3488 120.265 71.8463 120.265 72.3807C120.265 73.0183 120.098 73.562 119.762 74.0116C119.431 74.4613 118.979 74.7727 118.408 74.9459V75.0344C119.123 75.1523 119.681 75.4564 120.083 75.9465C120.485 76.433 120.686 77.0356 120.686 77.7543C120.686 78.3698 120.518 78.9227 120.183 79.4129C119.851 79.8994 119.398 80.2827 118.823 80.5628C118.248 80.8429 117.593 80.9829 116.86 80.9829Z" fill="black"/>
<path d="M113.034 118.971V117.976L116.772 113.885C117.21 113.405 117.571 112.989 117.855 112.635C118.139 112.278 118.349 111.942 118.485 111.629C118.625 111.312 118.695 110.98 118.695 110.634C118.695 110.236 118.6 109.891 118.408 109.6C118.22 109.309 117.962 109.084 117.634 108.926C117.306 108.767 116.937 108.688 116.528 108.688C116.093 108.688 115.714 108.778 115.389 108.959C115.069 109.136 114.82 109.384 114.643 109.705C114.47 110.026 114.383 110.402 114.383 110.833H113.079C113.079 110.169 113.232 109.587 113.537 109.086C113.843 108.585 114.26 108.194 114.787 107.914C115.318 107.634 115.913 107.494 116.573 107.494C117.236 107.494 117.824 107.634 118.336 107.914C118.848 108.194 119.25 108.572 119.541 109.047C119.832 109.523 119.978 110.052 119.978 110.634C119.978 111.05 119.902 111.458 119.751 111.856C119.604 112.25 119.346 112.69 118.977 113.177C118.612 113.66 118.106 114.249 117.457 114.946L114.914 117.666V117.754H120.177V118.971H113.034Z" fill="black"/>
<path d="M38.3068 157.111V156.116L42.044 152.025C42.4826 151.546 42.8438 151.13 43.1276 150.776C43.4113 150.418 43.6214 150.083 43.7578 149.77C43.8978 149.453 43.9679 149.121 43.9679 148.775C43.9679 148.376 43.872 148.032 43.6804 147.741C43.4924 147.45 43.2344 147.225 42.9064 147.066C42.5784 146.908 42.2098 146.829 41.8007 146.829C41.3658 146.829 40.9862 146.919 40.6619 147.099C40.3412 147.276 40.0925 147.525 39.9156 147.846C39.7423 148.166 39.6557 148.542 39.6557 148.974H38.351C38.351 148.31 38.504 147.728 38.8099 147.227C39.1158 146.725 39.5322 146.335 40.0593 146.055C40.59 145.774 41.1852 145.634 41.845 145.634C42.5084 145.634 43.0962 145.774 43.6085 146.055C44.1208 146.335 44.5225 146.712 44.8137 147.188C45.1049 147.663 45.2505 148.192 45.2505 148.775C45.2505 149.191 45.1749 149.598 45.0238 149.996C44.8764 150.391 44.6184 150.831 44.2498 151.318C43.8849 151.8 43.3782 152.39 42.7295 153.087L40.1864 155.807V155.895H45.4495V157.111H38.3068Z" fill="black"/>
<path d="M222.789 101.067V100.072L226.526 95.9813C226.965 95.5021 227.326 95.0857 227.61 94.7318C227.894 94.3743 228.104 94.0389 228.24 93.7257C228.38 93.4087 228.45 93.077 228.45 92.7306C228.45 92.3325 228.354 91.9879 228.163 91.6967C227.975 91.4056 227.717 91.1808 227.389 91.0223C227.061 90.8638 226.692 90.7846 226.283 90.7846C225.848 90.7846 225.469 90.8749 225.144 91.0555C224.824 91.2324 224.575 91.4811 224.398 91.8018C224.225 92.1224 224.138 92.4984 224.138 92.9296H222.833C222.833 92.2662 222.986 91.6838 223.292 91.1826C223.598 90.6814 224.015 90.2907 224.542 90.0106C225.072 89.7305 225.668 89.5904 226.327 89.5904C226.991 89.5904 227.579 89.7305 228.091 90.0106C228.603 90.2907 229.005 90.6685 229.296 91.1439C229.587 91.6193 229.733 92.1482 229.733 92.7306C229.733 93.147 229.657 93.5543 229.506 93.9523C229.359 94.3467 229.101 94.7871 228.732 95.2736C228.367 95.7564 227.861 96.3461 227.212 97.0427L224.669 99.7627V99.8511H229.932V101.067H222.789Z" fill="black"/>
<path d="M117.638 157.266C116.909 157.266 116.258 157.141 115.687 156.89C115.119 156.64 114.668 156.291 114.332 155.845C114.001 155.396 113.82 154.874 113.791 154.281H115.184C115.213 154.646 115.338 154.961 115.56 155.226C115.781 155.488 116.07 155.691 116.428 155.834C116.785 155.978 117.181 156.05 117.616 156.05C118.103 156.05 118.534 155.965 118.91 155.796C119.286 155.626 119.581 155.39 119.794 155.088C120.008 154.786 120.115 154.436 120.115 154.038C120.115 153.621 120.012 153.254 119.805 152.937C119.599 152.617 119.297 152.366 118.899 152.186C118.501 152.005 118.014 151.915 117.439 151.915H116.533V150.698H117.439C117.889 150.698 118.283 150.617 118.622 150.455C118.965 150.293 119.232 150.064 119.424 149.77C119.619 149.475 119.717 149.128 119.717 148.73C119.717 148.347 119.632 148.013 119.463 147.73C119.293 147.446 119.054 147.225 118.744 147.066C118.438 146.908 118.077 146.829 117.66 146.829C117.27 146.829 116.901 146.9 116.555 147.044C116.212 147.184 115.932 147.389 115.714 147.658C115.497 147.923 115.379 148.244 115.361 148.62H114.034C114.056 148.026 114.235 147.507 114.57 147.061C114.905 146.611 115.344 146.261 115.886 146.01C116.431 145.76 117.03 145.634 117.683 145.634C118.383 145.634 118.984 145.776 119.485 146.06C119.986 146.34 120.371 146.711 120.64 147.171C120.909 147.632 121.044 148.13 121.044 148.664C121.044 149.302 120.876 149.845 120.541 150.295C120.209 150.744 119.758 151.056 119.186 151.229V151.318C119.901 151.436 120.46 151.74 120.861 152.23C121.263 152.716 121.464 153.319 121.464 154.038C121.464 154.653 121.296 155.206 120.961 155.696C120.629 156.183 120.176 156.566 119.601 156.846C119.026 157.126 118.372 157.266 117.638 157.266Z" fill="black"/>
<path d="M264.755 138.584C264.026 138.584 263.375 138.459 262.804 138.209C262.236 137.958 261.785 137.61 261.45 137.164C261.118 136.714 260.937 136.193 260.908 135.599H262.301C262.33 135.964 262.456 136.279 262.677 136.545C262.898 136.806 263.187 137.009 263.545 137.153C263.902 137.296 264.298 137.368 264.733 137.368C265.22 137.368 265.651 137.283 266.027 137.114C266.403 136.944 266.698 136.709 266.912 136.406C267.125 136.104 267.232 135.754 267.232 135.356C267.232 134.939 267.129 134.573 266.923 134.256C266.716 133.935 266.414 133.684 266.016 133.504C265.618 133.323 265.131 133.233 264.556 133.233H263.65V132.017H264.556C265.006 132.017 265.4 131.936 265.74 131.773C266.082 131.611 266.35 131.383 266.541 131.088C266.736 130.793 266.834 130.447 266.834 130.049C266.834 129.665 266.749 129.332 266.58 129.048C266.41 128.764 266.171 128.543 265.861 128.385C265.555 128.226 265.194 128.147 264.778 128.147C264.387 128.147 264.018 128.219 263.672 128.362C263.329 128.503 263.049 128.707 262.832 128.976C262.614 129.241 262.496 129.562 262.478 129.938H261.151C261.173 129.345 261.352 128.825 261.687 128.379C262.023 127.929 262.461 127.579 263.003 127.329C263.548 127.078 264.147 126.953 264.8 126.953C265.5 126.953 266.101 127.095 266.602 127.378C267.103 127.659 267.488 128.029 267.757 128.49C268.026 128.95 268.161 129.448 268.161 129.982C268.161 130.62 267.993 131.164 267.658 131.613C267.326 132.063 266.875 132.374 266.303 132.547V132.636C267.018 132.754 267.577 133.058 267.979 133.548C268.38 134.035 268.581 134.637 268.581 135.356C268.581 135.971 268.413 136.524 268.078 137.014C267.746 137.501 267.293 137.884 266.718 138.164C266.143 138.444 265.489 138.584 264.755 138.584Z" fill="black"/>
<path d="M160.076 102.796H169.136V103.839H160.076V102.796ZM158.581 108.26H171.269V109.303H158.581V108.26ZM163.781 105.769H165.057V108.681H163.781V105.769ZM168.389 102.796H169.665V103.808C169.665 104.82 169.665 105.987 169.292 107.497L168 107.373C168.389 105.863 168.389 104.789 168.389 103.808V102.796ZM160.216 110.487H161.492V112.199H168.342V110.487H169.603V116.107H160.216V110.487ZM161.492 113.211V115.064H168.342V113.211H161.492ZM178.273 105.334H180.935V106.408H178.273V105.334ZM183.208 102.236H184.438V110.455H183.208V102.236ZM180.453 102.516H181.683V110.284H180.453V102.516ZM175.206 111.187H184.438V116.107H175.206V111.187ZM183.193 112.215H176.467V115.064H183.193V112.215ZM175.502 103.014H176.53V104.82C176.53 106.921 175.331 109.132 173.292 110.066L172.591 109.054C174.397 108.229 175.502 106.408 175.502 104.82V103.014ZM175.736 103.014H176.748V104.82C176.748 106.423 177.76 108.027 179.503 108.759L178.803 109.755C176.826 108.883 175.736 106.906 175.736 104.82V103.014Z" fill="black"/>
<path d="M301.776 97.9379H302.819C305.574 97.9379 307.131 97.8601 308.937 97.4864L309.093 98.5295C307.224 98.9187 305.621 98.9965 302.819 98.9965H301.776V97.9379ZM301.776 92.24H308.158V93.2987H303.037V98.3115H301.776V92.24ZM311.288 91.3215H312.58V100.958H311.288V91.3215ZM307.349 94.98H311.646V96.0386H307.349V94.98ZM307.396 99.915H308.501V100.444C308.501 102.997 306.041 104.835 303.177 105.348L302.679 104.321C305.169 103.9 307.396 102.359 307.396 100.444V99.915ZM307.614 99.915H308.719V100.444C308.719 102.406 310.93 103.916 313.452 104.321L312.938 105.348C310.089 104.819 307.614 103.044 307.614 100.444V99.915ZM307.396 99.915H308.501V100.444C308.501 102.997 306.041 104.835 303.177 105.348L302.679 104.321C305.169 103.9 307.396 102.359 307.396 100.444V99.915ZM307.614 99.915H308.719V100.444C308.719 102.406 310.93 103.916 313.452 104.321L312.938 105.348C310.089 104.819 307.614 103.044 307.614 100.444V99.915ZM320.721 94.4351H323.383V95.5093H320.721V94.4351ZM325.656 91.3371H326.886V99.557H325.656V91.3371ZM322.9 91.6173H324.13V99.3857H322.9V91.6173ZM317.654 100.289H326.886V105.208H317.654V100.289ZM325.64 101.316H318.915V104.165H325.64V101.316ZM317.95 92.1155H318.977V93.9214C318.977 96.023 317.778 98.2337 315.739 99.1678L315.038 98.1559C316.844 97.3308 317.95 95.5093 317.95 93.9214V92.1155ZM318.183 92.1155H319.195V93.9214C319.195 95.5249 320.207 97.1284 321.95 97.8601L321.25 98.8564C319.273 97.9846 318.183 96.0075 318.183 93.9214V92.1155Z" fill="black"/>
<path d="M83.9417 202.047C83.9417 200.654 84.1223 199.373 84.4835 198.205C84.8484 197.033 85.368 195.955 86.0425 194.971H87.1924C86.9271 195.335 86.6783 195.785 86.4461 196.32C86.2176 196.85 86.0167 197.434 85.8435 198.072C85.6703 198.706 85.5339 199.362 85.4344 200.04C85.3386 200.718 85.2907 201.387 85.2907 202.047C85.2907 202.924 85.3754 203.814 85.545 204.717C85.7145 205.62 85.943 206.459 86.2305 207.233C86.518 208.007 86.8386 208.637 87.1924 209.123H86.0425C85.368 208.139 84.8484 207.063 84.4835 205.895C84.1223 204.723 83.9417 203.44 83.9417 202.047ZM92.7802 196.386V207.708H91.4092V197.823H91.3428L88.5786 199.659V198.266L91.4092 196.386H92.7802ZM97.9299 205.231L98.0184 202.799L95.9618 204.103L95.4311 203.175L97.5982 202.047L95.4311 200.919L95.9618 199.99L98.0184 201.295L97.9299 198.863H98.9914L98.9029 201.295L100.959 199.99L101.49 200.919L99.3231 202.047L101.49 203.175L100.959 204.103L98.9029 202.799L98.9914 205.231H97.9299ZM103.229 207.708V206.713L106.966 202.622C107.405 202.143 107.766 201.726 108.05 201.372C108.333 201.015 108.543 200.68 108.68 200.366C108.82 200.049 108.89 199.718 108.89 199.371C108.89 198.973 108.794 198.629 108.602 198.337C108.414 198.046 108.157 197.821 107.828 197.663C107.5 197.504 107.132 197.425 106.723 197.425C106.288 197.425 105.908 197.515 105.584 197.696C105.263 197.873 105.015 198.122 104.838 198.442C104.664 198.763 104.578 199.139 104.578 199.57H103.273C103.273 198.907 103.426 198.324 103.732 197.823C104.038 197.322 104.454 196.931 104.981 196.651C105.512 196.371 106.107 196.231 106.767 196.231C107.43 196.231 108.018 196.371 108.531 196.651C109.043 196.931 109.445 197.309 109.736 197.785C110.027 198.26 110.173 198.789 110.173 199.371C110.173 199.788 110.097 200.195 109.946 200.593C109.798 200.987 109.54 201.428 109.172 201.914C108.807 202.397 108.3 202.987 107.652 203.683L105.109 206.403V206.492H110.372V207.708H103.229ZM115.167 202.047C115.167 203.44 114.985 204.723 114.62 205.895C114.259 207.063 113.741 208.139 113.067 209.123H111.917C112.182 208.758 112.429 208.309 112.658 207.774C112.89 207.244 113.092 206.661 113.266 206.027C113.439 205.39 113.573 204.732 113.669 204.054C113.769 203.372 113.818 202.703 113.818 202.047C113.818 201.17 113.734 200.28 113.564 199.377C113.395 198.474 113.166 197.635 112.879 196.861C112.591 196.087 112.271 195.457 111.917 194.971H113.067C113.741 195.955 114.259 197.033 114.62 198.205C114.985 199.373 115.167 200.654 115.167 202.047ZM123.754 206.16L123.666 206.757C123.603 207.177 123.507 207.627 123.378 208.106C123.253 208.585 123.122 209.037 122.986 209.461C122.85 209.884 122.737 210.222 122.649 210.472H121.654C121.701 210.236 121.764 209.925 121.842 209.538C121.919 209.151 121.996 208.718 122.074 208.239C122.155 207.763 122.221 207.277 122.273 206.779L122.339 206.16H123.754ZM130.423 202.047C130.423 200.654 130.604 199.373 130.965 198.205C131.33 197.033 131.849 195.955 132.524 194.971H133.674C133.408 195.335 133.16 195.785 132.927 196.32C132.699 196.85 132.498 197.434 132.325 198.072C132.151 198.706 132.015 199.362 131.916 200.04C131.82 200.718 131.772 201.387 131.772 202.047C131.772 202.924 131.857 203.814 132.026 204.717C132.196 205.62 132.424 206.459 132.712 207.233C132.999 208.007 133.32 208.637 133.674 209.123H132.524C131.849 208.139 131.33 207.063 130.965 205.895C130.604 204.723 130.423 203.44 130.423 202.047ZM135.281 207.708V206.713L139.018 202.622C139.457 202.143 139.818 201.726 140.102 201.372C140.386 201.015 140.596 200.68 140.732 200.366C140.872 200.049 140.942 199.718 140.942 199.371C140.942 198.973 140.846 198.629 140.655 198.337C140.467 198.046 140.209 197.821 139.881 197.663C139.553 197.504 139.184 197.425 138.775 197.425C138.34 197.425 137.96 197.515 137.636 197.696C137.315 197.873 137.067 198.122 136.89 198.442C136.717 198.763 136.63 199.139 136.63 199.57H135.325C135.325 198.907 135.478 198.324 135.784 197.823C136.09 197.322 136.506 196.931 137.034 196.651C137.564 196.371 138.159 196.231 138.819 196.231C139.483 196.231 140.07 196.371 140.583 196.651C141.095 196.931 141.497 197.309 141.788 197.785C142.079 198.26 142.225 198.789 142.225 199.371C142.225 199.788 142.149 200.195 141.998 200.593C141.851 200.987 141.593 201.428 141.224 201.914C140.859 202.397 140.352 202.987 139.704 203.683L137.161 206.403V206.492H142.424V207.708H135.281ZM146.6 205.231L146.689 202.799L144.632 204.103L144.102 203.175L146.269 202.047L144.102 200.919L144.632 199.99L146.689 201.295L146.6 198.863H147.662L147.573 201.295L149.63 199.99L150.161 200.919L147.994 202.047L150.161 203.175L149.63 204.103L147.573 202.799L147.662 205.231H146.6ZM155.592 207.863C154.759 207.863 154.05 207.636 153.464 207.183C152.878 206.726 152.43 206.064 152.12 205.198C151.811 204.328 151.656 203.278 151.656 202.047C151.656 200.823 151.811 199.778 152.12 198.912C152.434 198.043 152.883 197.379 153.469 196.922C154.059 196.461 154.767 196.231 155.592 196.231C156.418 196.231 157.124 196.461 157.71 196.922C158.299 197.379 158.749 198.043 159.059 198.912C159.372 199.778 159.529 200.823 159.529 202.047C159.529 203.278 159.374 204.328 159.064 205.198C158.755 206.064 158.307 206.726 157.721 207.183C157.135 207.636 156.425 207.863 155.592 207.863ZM155.592 206.647C156.418 206.647 157.059 206.249 157.516 205.452C157.973 204.656 158.202 203.521 158.202 202.047C158.202 201.067 158.097 200.232 157.887 199.543C157.68 198.853 157.382 198.328 156.991 197.967C156.604 197.606 156.138 197.425 155.592 197.425C154.774 197.425 154.135 197.829 153.674 198.636C153.213 199.439 152.983 200.576 152.983 202.047C152.983 203.027 153.086 203.86 153.292 204.546C153.499 205.231 153.796 205.753 154.183 206.11C154.573 206.468 155.043 206.647 155.592 206.647ZM164.142 202.047C164.142 203.44 163.96 204.723 163.595 205.895C163.233 207.063 162.716 208.139 162.041 209.123H160.891C161.157 208.758 161.404 208.309 161.632 207.774C161.864 207.244 162.067 206.661 162.24 206.027C162.413 205.39 162.548 204.732 162.644 204.054C162.743 203.372 162.793 202.703 162.793 202.047C162.793 201.17 162.708 200.28 162.539 199.377C162.369 198.474 162.141 197.635 161.853 196.861C161.566 196.087 161.245 195.457 160.891 194.971H162.041C162.716 195.955 163.233 197.033 163.595 198.205C163.96 199.373 164.142 200.654 164.142 202.047ZM172.729 206.16L172.64 206.757C172.578 207.177 172.482 207.627 172.353 208.106C172.228 208.585 172.097 209.037 171.96 209.461C171.824 209.884 171.712 210.222 171.623 210.472H170.628C170.676 210.236 170.739 209.925 170.816 209.538C170.893 209.151 170.971 208.718 171.048 208.239C171.129 207.763 171.196 207.277 171.247 206.779L171.314 206.16H172.729ZM179.397 202.047C179.397 200.654 179.578 199.373 179.939 198.205C180.304 197.033 180.824 195.955 181.498 194.971H182.648C182.383 195.335 182.134 195.785 181.902 196.32C181.673 196.85 181.472 197.434 181.299 198.072C181.126 198.706 180.99 199.362 180.89 200.04C180.794 200.718 180.746 201.387 180.746 202.047C180.746 202.924 180.831 203.814 181.001 204.717C181.17 205.62 181.399 206.459 181.686 207.233C181.974 208.007 182.294 208.637 182.648 209.123H181.498C180.824 208.139 180.304 207.063 179.939 205.895C179.578 204.723 179.397 203.44 179.397 202.047ZM187.948 207.863C187.116 207.863 186.406 207.636 185.82 207.183C185.234 206.726 184.786 206.064 184.477 205.198C184.167 204.328 184.012 203.278 184.012 202.047C184.012 200.823 184.167 199.778 184.477 198.912C184.79 198.043 185.24 197.379 185.826 196.922C186.415 196.461 187.123 196.231 187.948 196.231C188.774 196.231 189.48 196.461 190.066 196.922C190.656 197.379 191.105 198.043 191.415 198.912C191.728 199.778 191.885 200.823 191.885 202.047C191.885 203.278 191.73 204.328 191.42 205.198C191.111 206.064 190.663 206.726 190.077 207.183C189.491 207.636 188.781 207.863 187.948 207.863ZM187.948 206.647C188.774 206.647 189.415 206.249 189.872 205.452C190.329 204.656 190.558 203.521 190.558 202.047C190.558 201.067 190.453 200.232 190.243 199.543C190.036 198.853 189.738 198.328 189.347 197.967C188.96 197.606 188.494 197.425 187.948 197.425C187.13 197.425 186.491 197.829 186.03 198.636C185.569 199.439 185.339 200.576 185.339 202.047C185.339 203.027 185.442 203.86 185.649 204.546C185.855 205.231 186.152 205.753 186.539 206.11C186.929 206.468 187.399 206.647 187.948 206.647ZM195.879 205.231L195.967 202.799L193.911 204.103L193.38 203.175L195.547 202.047L193.38 200.919L193.911 199.99L195.967 201.295L195.879 198.863H196.94L196.852 201.295L198.909 199.99L199.439 200.919L197.272 202.047L199.439 203.175L198.909 204.103L196.852 202.799L196.94 205.231H195.879ZM205.158 196.386V207.708H203.787V197.823H203.721L200.957 199.659V198.266L203.787 196.386H205.158ZM210.927 202.047C210.927 203.44 210.745 204.723 210.38 205.895C210.019 207.063 209.501 208.139 208.826 209.123H207.677C207.942 208.758 208.189 208.309 208.417 207.774C208.65 207.244 208.852 206.661 209.025 206.027C209.199 205.39 209.333 204.732 209.429 204.054C209.529 203.372 209.578 202.703 209.578 202.047C209.578 201.17 209.494 200.28 209.324 199.377C209.154 198.474 208.926 197.635 208.638 196.861C208.351 196.087 208.03 195.457 207.677 194.971H208.826C209.501 195.955 210.019 197.033 210.38 198.205C210.745 199.373 210.927 200.654 210.927 202.047ZM219.514 206.16L219.426 206.757C219.363 207.177 219.267 207.627 219.138 208.106C219.013 208.585 218.882 209.037 218.746 209.461C218.609 209.884 218.497 210.222 218.408 210.472H217.413C217.461 210.236 217.524 209.925 217.601 209.538C217.679 209.151 217.756 208.718 217.834 208.239C217.915 207.763 217.981 207.277 218.033 206.779L218.099 206.16H219.514ZM226.183 202.047C226.183 200.654 226.363 199.373 226.725 198.205C227.089 197.033 227.609 195.955 228.284 194.971H229.433C229.168 195.335 228.919 195.785 228.687 196.32C228.459 196.85 228.258 197.434 228.085 198.072C227.911 198.706 227.775 199.362 227.675 200.04C227.58 200.718 227.532 201.387 227.532 202.047C227.532 202.924 227.616 203.814 227.786 204.717C227.956 205.62 228.184 206.459 228.472 207.233C228.759 208.007 229.08 208.637 229.433 209.123H228.284C227.609 208.139 227.089 207.063 226.725 205.895C226.363 204.723 226.183 203.44 226.183 202.047ZM235.021 196.386V207.708H233.65V197.823H233.584L230.82 199.659V198.266L233.65 196.386H235.021ZM240.171 205.231L240.259 202.799L238.203 204.103L237.672 203.175L239.839 202.047L237.672 200.919L238.203 199.99L240.259 201.295L240.171 198.863H241.232L241.144 201.295L243.201 199.99L243.731 200.919L241.564 202.047L243.731 203.175L243.201 204.103L241.144 202.799L241.232 205.231H240.171ZM249.296 207.863C248.566 207.863 247.915 207.737 247.344 207.487C246.776 207.236 246.325 206.888 245.99 206.442C245.658 205.992 245.477 205.471 245.448 204.877H246.841C246.87 205.242 246.996 205.557 247.217 205.823C247.438 206.085 247.727 206.287 248.085 206.431C248.442 206.575 248.839 206.647 249.273 206.647C249.76 206.647 250.191 206.562 250.567 206.392C250.943 206.223 251.238 205.987 251.452 205.685C251.665 205.382 251.772 205.032 251.772 204.634C251.772 204.218 251.669 203.851 251.463 203.534C251.256 203.213 250.954 202.963 250.556 202.782C250.158 202.602 249.671 202.511 249.097 202.511H248.19V201.295H249.097C249.546 201.295 249.941 201.214 250.28 201.052C250.622 200.89 250.89 200.661 251.081 200.366C251.277 200.071 251.374 199.725 251.374 199.327C251.374 198.944 251.289 198.61 251.12 198.326C250.95 198.043 250.711 197.821 250.401 197.663C250.095 197.504 249.734 197.425 249.318 197.425C248.927 197.425 248.558 197.497 248.212 197.641C247.869 197.781 247.589 197.985 247.372 198.254C247.154 198.52 247.036 198.84 247.018 199.216H245.691C245.713 198.623 245.892 198.103 246.227 197.657C246.563 197.208 247.001 196.858 247.543 196.607C248.089 196.356 248.687 196.231 249.34 196.231C250.04 196.231 250.641 196.373 251.142 196.657C251.643 196.937 252.028 197.307 252.297 197.768C252.567 198.229 252.701 198.726 252.701 199.261C252.701 199.898 252.533 200.442 252.198 200.891C251.866 201.341 251.415 201.653 250.843 201.826V201.914C251.558 202.032 252.117 202.336 252.519 202.826C252.92 203.313 253.121 203.916 253.121 204.634C253.121 205.25 252.953 205.803 252.618 206.293C252.286 206.779 251.833 207.163 251.258 207.443C250.683 207.723 250.029 207.863 249.296 207.863ZM257.895 202.047C257.895 203.44 257.712 204.723 257.348 205.895C256.986 207.063 256.469 208.139 255.794 209.123H254.644C254.91 208.758 255.157 208.309 255.385 207.774C255.617 207.244 255.82 206.661 255.993 206.027C256.166 205.39 256.301 204.732 256.397 204.054C256.496 203.372 256.546 202.703 256.546 202.047C256.546 201.17 256.461 200.28 256.292 199.377C256.122 198.474 255.894 197.635 255.606 196.861C255.319 196.087 254.998 195.457 254.644 194.971H255.794C256.469 195.955 256.986 197.033 257.348 198.205C257.712 199.373 257.895 200.654 257.895 202.047Z" fill="black"/>
<path d="M298.292 207.708V206.713L302.029 202.622C302.468 202.143 302.829 201.726 303.113 201.372C303.397 201.015 303.607 200.68 303.743 200.366C303.883 200.049 303.953 199.718 303.953 199.371C303.953 198.973 303.857 198.629 303.666 198.337C303.478 198.046 303.22 197.821 302.892 197.663C302.564 197.504 302.195 197.425 301.786 197.425C301.351 197.425 300.972 197.515 300.647 197.696C300.327 197.873 300.078 198.122 299.901 198.442C299.728 198.763 299.641 199.139 299.641 199.57H298.336C298.336 198.907 298.489 198.324 298.795 197.823C299.101 197.322 299.518 196.931 300.045 196.651C300.575 196.371 301.171 196.231 301.83 196.231C302.494 196.231 303.082 196.371 303.594 196.651C304.106 196.931 304.508 197.309 304.799 197.785C305.09 198.26 305.236 198.789 305.236 199.371C305.236 199.788 305.16 200.195 305.009 200.593C304.862 200.987 304.604 201.428 304.235 201.914C303.87 202.397 303.364 202.987 302.715 203.683L300.172 206.403V206.492H305.435V207.708H298.292ZM310.761 205.718V198.42H312V205.718H310.761ZM307.732 202.688V201.45H315.029V202.688H307.732ZM321.082 207.863C320.249 207.863 319.539 207.636 318.953 207.183C318.367 206.726 317.919 206.064 317.61 205.198C317.3 204.328 317.145 203.278 317.145 202.047C317.145 200.823 317.3 199.778 317.61 198.912C317.923 198.043 318.373 197.379 318.959 196.922C319.548 196.461 320.256 196.231 321.082 196.231C321.907 196.231 322.613 196.461 323.199 196.922C323.789 197.379 324.238 198.043 324.548 198.912C324.861 199.778 325.018 200.823 325.018 202.047C325.018 203.278 324.863 204.328 324.553 205.198C324.244 206.064 323.796 206.726 323.21 207.183C322.624 207.636 321.914 207.863 321.082 207.863ZM321.082 206.647C321.907 206.647 322.548 206.249 323.005 205.452C323.462 204.656 323.691 203.521 323.691 202.047C323.691 201.067 323.586 200.232 323.376 199.543C323.169 198.853 322.871 198.328 322.48 197.967C322.093 197.606 321.627 197.425 321.082 197.425C320.263 197.425 319.624 197.829 319.163 198.636C318.702 199.439 318.472 200.576 318.472 202.047C318.472 203.027 318.575 203.86 318.782 204.546C318.988 205.231 319.285 205.753 319.672 206.11C320.062 206.468 320.532 206.647 321.082 206.647ZM330.162 205.718V198.42H331.4V205.718H330.162ZM327.132 202.688V201.45H334.43V202.688H327.132ZM340.482 207.863C339.649 207.863 338.94 207.636 338.354 207.183C337.768 206.726 337.32 206.064 337.01 205.198C336.701 204.328 336.546 203.278 336.546 202.047C336.546 200.823 336.701 199.778 337.01 198.912C337.323 198.043 337.773 197.379 338.359 196.922C338.949 196.461 339.656 196.231 340.482 196.231C341.308 196.231 342.013 196.461 342.599 196.922C343.189 197.379 343.639 198.043 343.948 198.912C344.262 199.778 344.418 200.823 344.418 202.047C344.418 203.278 344.263 204.328 343.954 205.198C343.644 206.064 343.196 206.726 342.61 207.183C342.024 207.636 341.315 207.863 340.482 207.863ZM340.482 206.647C341.308 206.647 341.949 206.249 342.406 205.452C342.863 204.656 343.091 203.521 343.091 202.047C343.091 201.067 342.986 200.232 342.776 199.543C342.57 198.853 342.271 198.328 341.881 197.967C341.494 197.606 341.027 197.425 340.482 197.425C339.664 197.425 339.024 197.829 338.564 198.636C338.103 199.439 337.873 200.576 337.873 202.047C337.873 203.027 337.976 203.86 338.182 204.546C338.389 205.231 338.685 205.753 339.072 206.11C339.463 206.468 339.933 206.647 340.482 206.647ZM349.562 205.718V198.42H350.801V205.718H349.562ZM346.533 202.688V201.45H353.83V202.688H346.533ZM359.833 207.863C359.103 207.863 358.453 207.737 357.881 207.487C357.314 207.236 356.862 206.888 356.527 206.442C356.195 205.992 356.014 205.471 355.985 204.877H357.378C357.408 205.242 357.533 205.557 357.754 205.823C357.975 206.085 358.265 206.287 358.622 206.431C358.98 206.575 359.376 206.647 359.811 206.647C360.297 206.647 360.728 206.562 361.104 206.392C361.48 206.223 361.775 205.987 361.989 205.685C362.203 205.382 362.309 205.032 362.309 204.634C362.309 204.218 362.206 203.851 362 203.534C361.793 203.213 361.491 202.963 361.093 202.782C360.695 202.602 360.209 202.511 359.634 202.511H358.727V201.295H359.634C360.083 201.295 360.478 201.214 360.817 201.052C361.16 200.89 361.427 200.661 361.618 200.366C361.814 200.071 361.911 199.725 361.911 199.327C361.911 198.944 361.827 198.61 361.657 198.326C361.488 198.043 361.248 197.821 360.938 197.663C360.633 197.504 360.271 197.425 359.855 197.425C359.464 197.425 359.096 197.497 358.749 197.641C358.406 197.781 358.126 197.985 357.909 198.254C357.691 198.52 357.573 198.84 357.555 199.216H356.228C356.25 198.623 356.429 198.103 356.764 197.657C357.1 197.208 357.538 196.858 358.08 196.607C358.626 196.356 359.225 196.231 359.877 196.231C360.577 196.231 361.178 196.373 361.679 196.657C362.18 196.937 362.566 197.307 362.835 197.768C363.104 198.229 363.238 198.726 363.238 199.261C363.238 199.898 363.071 200.442 362.735 200.891C362.403 201.341 361.952 201.653 361.381 201.826V201.914C362.096 202.032 362.654 202.336 363.056 202.826C363.458 203.313 363.658 203.916 363.658 204.634C363.658 205.25 363.491 205.803 363.155 206.293C362.824 206.779 362.37 207.163 361.795 207.443C361.22 207.723 360.566 207.863 359.833 207.863ZM370.259 201.008V199.813H377.07V201.008H370.259ZM370.259 204.28V203.086H377.07V204.28H370.259ZM387.294 207.863C386.645 207.863 386.061 207.734 385.541 207.476C385.021 207.218 384.605 206.864 384.292 206.414C383.978 205.965 383.807 205.452 383.778 204.877H385.104C385.156 205.39 385.388 205.814 385.801 206.149C386.217 206.481 386.715 206.647 387.294 206.647C387.758 206.647 388.171 206.538 388.532 206.32C388.897 206.103 389.182 205.804 389.389 205.425C389.599 205.041 389.704 204.608 389.704 204.126C389.704 203.632 389.595 203.191 389.378 202.804C389.164 202.414 388.869 202.106 388.493 201.881C388.117 201.656 387.688 201.542 387.205 201.538C386.859 201.535 386.503 201.588 386.138 201.699C385.773 201.806 385.473 201.944 385.237 202.113L383.954 201.958L384.64 196.386H390.522V197.602H385.79L385.392 200.941H385.458C385.69 200.757 385.982 200.604 386.332 200.482C386.682 200.361 387.047 200.3 387.426 200.3C388.119 200.3 388.737 200.466 389.278 200.798C389.824 201.126 390.251 201.575 390.561 202.146C390.874 202.718 391.031 203.37 391.031 204.103C391.031 204.826 390.869 205.471 390.544 206.038C390.224 206.602 389.781 207.048 389.217 207.376C388.654 207.701 388.012 207.863 387.294 207.863Z" fill="black"/>
<path d="M172.576 121.43L172.576 190.707" stroke="#474747" stroke-width="1.5568" stroke-linecap="round"/>
<path d="M317.359 113.646L317.359 187.594" stroke="#474747" stroke-width="1.5568" stroke-linecap="round"/>
<path d="M75.3864 4.14086H76.6941V11.6913H75.3864V4.14086ZM67.618 12.3919H68.8946V14.1044H75.4176V12.3919H76.6941V18.0275H67.618V12.3919ZM68.8946 15.1318V16.9844H75.4176V15.1318H68.8946ZM69.1437 4.81028C71.2765 4.81028 72.8022 6.13356 72.8022 8.04842C72.8022 9.97884 71.2765 11.3021 69.1437 11.3021C67.0109 11.3021 65.4696 9.97884 65.4696 8.04842C65.4696 6.13356 67.0109 4.81028 69.1437 4.81028ZM69.1437 5.88447C67.7426 5.88447 66.7306 6.77184 66.7306 8.04842C66.7306 9.32499 67.7426 10.2124 69.1437 10.2124C70.5448 10.2124 71.5567 9.32499 71.5567 8.04842C71.5567 6.77184 70.5448 5.88447 69.1437 5.88447ZM79.7598 11.1153H80.7717C83.5428 11.1153 84.9128 11.0686 86.5942 10.7728L86.7343 11.8159C84.9907 12.1272 83.5895 12.1739 80.7717 12.1739H79.7598V11.1153ZM79.7287 4.98153H85.8002V8.98249H81.0364V11.7536H79.7598V7.97058H84.5236V6.04015H79.7287V4.98153ZM89.4587 4.15642H90.7508V12.7966H89.4587V4.15642ZM86.7343 6.22696H89.7545V7.28559H86.7343V6.22696ZM86.7343 9.13817H89.7545V10.1968H86.7343V9.13817ZM81.3322 13.5595H90.7508V18.2454H89.4587V14.6181H81.3322V13.5595Z" fill="black"/>
<path d="M241.979 4.14086H243.287V11.4267H241.979V4.14086ZM234.102 12.1117H243.287V15.5055H235.409V17.6227H234.148V14.5403H241.995V13.1391H234.102V12.1117ZM234.148 17.0311H243.801V18.0586H234.148V17.0311ZM232.358 5.0905H239.909V6.11799H232.358V5.0905ZM232.109 10.9596L231.969 9.88544C234.475 9.88544 237.838 9.82316 240.578 9.48067L240.656 10.4303C237.854 10.8507 234.584 10.9441 232.109 10.9596ZM233.744 5.55754H234.989V10.3525H233.744V5.55754ZM237.262 5.55754H238.523V10.3525H237.262V5.55754ZM256.067 4.12529H257.344V18.2299H256.067V4.12529ZM253.14 9.43397H256.254V10.5082H253.14V9.43397ZM246.399 13.7774H247.473C250.12 13.7774 251.786 13.7307 253.763 13.3571L253.887 14.4157C251.864 14.7738 250.151 14.8516 247.473 14.8516H246.399V13.7774ZM246.399 5.41743H252.907V6.49162H247.676V14.1511H246.399V5.41743ZM247.349 9.37169H252.3V10.4147H247.349V9.37169Z" fill="black"/>
<path d="M372.875 11.1464H374.167V13.2793H372.875V11.1464ZM367.177 10.3836H379.88V11.38H367.177V10.3836ZM372.89 4.04745H374.167V5.75992H372.89V4.04745ZM372.828 5.88447H373.964V6.10242C373.964 8.31307 371.333 9.49624 368.22 9.76089L367.846 8.76454C370.617 8.5933 372.828 7.61251 372.828 6.10242V5.88447ZM373.093 5.88447H374.229V6.10242C374.229 7.61251 376.44 8.5933 379.195 8.76454L378.822 9.76089C375.708 9.49624 373.093 8.31307 373.093 6.10242V5.88447ZM368.469 5.37072H378.588V6.35151H368.469V5.37072ZM368.702 12.6565H378.261V15.7546H370.01V17.4515H368.734V14.8361H376.985V13.6373H368.702V12.6565ZM368.734 17.0778H378.682V18.0586H368.734V17.0778ZM381.778 11.1153H382.79C385.561 11.1153 386.931 11.0686 388.613 10.7728L388.753 11.8159C387.009 12.1272 385.608 12.1739 382.79 12.1739H381.778V11.1153ZM381.747 4.98153H387.819V8.98249H383.055V11.7536H381.778V7.97058H386.542V6.04015H381.747V4.98153ZM391.477 4.15642H392.769V12.7966H391.477V4.15642ZM388.753 6.22696H391.773V7.28559H388.753V6.22696ZM388.753 9.13817H391.773V10.1968H388.753V9.13817ZM383.351 13.5595H392.769V18.2454H391.477V14.6181H383.351V13.5595Z" fill="black"/>
</svg>
