<svg width="262" height="263" viewBox="0 0 262 263" fill="none" xmlns="http://www.w3.org/2000/svg">
<g filter="url(#filter0_d_1009_3650)">
<rect x="4" width="156.079" height="156.079" rx="6" fill="#F24822"/>
<rect x="28.0117" y="24.0117" width="156.079" height="156.079" rx="6" fill="#14AE5C"/>
<rect x="52.0244" y="48.0244" width="156.079" height="156.079" rx="6" fill="#0D99FF"/>
<path d="M91.9445 138.935C90.0368 138.927 88.4068 138.424 87.0546 137.426C85.7023 136.428 84.668 134.975 83.9516 133.067C83.2352 131.159 82.877 128.861 82.877 126.173C82.877 123.492 83.2352 121.202 83.9516 119.303C84.676 117.403 85.7144 115.954 87.0666 114.956C88.427 113.958 90.0529 113.459 91.9445 113.459C93.836 113.459 95.458 113.962 96.8102 114.968C98.1625 115.966 99.1968 117.415 99.9132 119.315C100.638 121.206 101 123.492 101 126.173C101 128.869 100.642 131.171 99.9253 133.079C99.2089 134.979 98.1746 136.432 96.8223 137.438C95.47 138.436 93.8441 138.935 91.9445 138.935ZM91.9445 135.711C93.6187 135.711 94.9267 134.894 95.8685 133.26C96.8183 131.626 97.2932 129.264 97.2932 126.173C97.2932 124.12 97.0759 122.386 96.6412 120.969C96.2146 119.544 95.5988 118.466 94.7939 117.733C93.997 116.993 93.0472 116.622 91.9445 116.622C90.2783 116.622 88.9703 117.443 88.0205 119.085C87.0707 120.728 86.5917 123.09 86.5837 126.173C86.5837 128.233 86.797 129.976 87.2236 131.401C87.6583 132.818 88.274 133.892 89.0709 134.625C89.8678 135.349 90.8256 135.711 91.9445 135.711ZM115.884 124.591V127.73H104.921V124.591H115.884ZM119.277 138.524V135.82L127.644 127.151C128.538 126.209 129.274 125.384 129.854 124.676C130.442 123.959 130.88 123.279 131.17 122.635C131.46 121.991 131.605 121.307 131.605 120.583C131.605 119.762 131.411 119.053 131.025 118.458C130.639 117.854 130.112 117.391 129.443 117.069C128.775 116.739 128.023 116.574 127.186 116.574C126.3 116.574 125.527 116.755 124.867 117.117C124.207 117.48 123.7 117.991 123.346 118.651C122.992 119.311 122.815 120.084 122.815 120.969H119.253C119.253 119.464 119.599 118.148 120.291 117.021C120.984 115.894 121.934 115.021 123.141 114.401C124.348 113.773 125.721 113.459 127.258 113.459C128.812 113.459 130.18 113.769 131.363 114.389C132.554 115.001 133.484 115.838 134.152 116.9C134.82 117.955 135.154 119.146 135.154 120.474C135.154 121.392 134.981 122.289 134.635 123.166C134.297 124.044 133.706 125.022 132.86 126.1C132.015 127.171 130.84 128.471 129.335 130L124.421 135.144V135.325H135.553V138.524H119.277ZM147.917 138.862C146.403 138.862 145.043 138.573 143.836 137.993C142.636 137.406 141.679 136.601 140.962 135.578C140.246 134.556 139.863 133.389 139.815 132.077H143.437C143.526 133.139 143.997 134.013 144.85 134.697C145.703 135.381 146.725 135.723 147.917 135.723C148.867 135.723 149.708 135.506 150.44 135.071C151.181 134.629 151.76 134.021 152.179 133.248C152.605 132.475 152.819 131.594 152.819 130.604C152.819 129.598 152.601 128.7 152.167 127.911C151.732 127.123 151.132 126.503 150.368 126.052C149.611 125.601 148.742 125.372 147.76 125.364C147.011 125.364 146.259 125.493 145.502 125.75C144.745 126.008 144.134 126.346 143.667 126.764L140.25 126.257L141.638 113.797H155.234V116.997H144.741L143.957 123.915H144.101C144.584 123.448 145.224 123.058 146.021 122.744C146.826 122.43 147.687 122.273 148.605 122.273C150.11 122.273 151.45 122.631 152.626 123.348C153.809 124.064 154.738 125.042 155.415 126.282C156.099 127.513 156.437 128.93 156.429 130.532C156.437 132.133 156.075 133.562 155.342 134.818C154.618 136.073 153.612 137.063 152.324 137.788C151.044 138.504 149.575 138.862 147.917 138.862ZM168.627 138.862C167.113 138.862 165.753 138.573 164.546 137.993C163.346 137.406 162.389 136.601 161.672 135.578C160.956 134.556 160.573 133.389 160.525 132.077H164.147C164.236 133.139 164.707 134.013 165.56 134.697C166.413 135.381 167.435 135.723 168.627 135.723C169.577 135.723 170.418 135.506 171.15 135.071C171.891 134.629 172.47 134.021 172.889 133.248C173.315 132.475 173.529 131.594 173.529 130.604C173.529 129.598 173.311 128.7 172.877 127.911C172.442 127.123 171.842 126.503 171.078 126.052C170.321 125.601 169.452 125.372 168.47 125.364C167.721 125.364 166.969 125.493 166.212 125.75C165.455 126.008 164.844 126.346 164.377 126.764L160.96 126.257L162.348 113.797H175.944V116.997H165.451L164.667 123.915H164.811C165.294 123.448 165.934 123.058 166.731 122.744C167.536 122.43 168.397 122.273 169.315 122.273C170.82 122.273 172.16 122.631 173.336 123.348C174.519 124.064 175.448 125.042 176.125 126.282C176.809 127.513 177.147 128.93 177.139 130.532C177.147 132.133 176.785 133.562 176.052 134.818C175.328 136.073 174.322 137.063 173.034 137.788C171.754 138.504 170.285 138.862 168.627 138.862Z" fill="white"/>
<rect x="52.0244" y="48.0244" width="156.079" height="156.079" rx="6" fill="#0D99FF"/>
<path d="M91.9445 138.935C90.0368 138.927 88.4068 138.424 87.0546 137.426C85.7023 136.428 84.668 134.975 83.9516 133.067C83.2352 131.159 82.877 128.861 82.877 126.173C82.877 123.492 83.2352 121.202 83.9516 119.303C84.676 117.403 85.7144 115.954 87.0666 114.956C88.427 113.958 90.0529 113.459 91.9445 113.459C93.836 113.459 95.458 113.962 96.8102 114.968C98.1625 115.966 99.1968 117.415 99.9132 119.315C100.638 121.206 101 123.492 101 126.173C101 128.869 100.642 131.171 99.9253 133.079C99.2089 134.979 98.1746 136.432 96.8223 137.438C95.47 138.436 93.8441 138.935 91.9445 138.935ZM91.9445 135.711C93.6187 135.711 94.9267 134.894 95.8685 133.26C96.8183 131.626 97.2932 129.264 97.2932 126.173C97.2932 124.12 97.0759 122.386 96.6412 120.969C96.2146 119.544 95.5988 118.466 94.7939 117.733C93.997 116.993 93.0472 116.622 91.9445 116.622C90.2783 116.622 88.9703 117.443 88.0205 119.085C87.0707 120.728 86.5917 123.09 86.5837 126.173C86.5837 128.233 86.797 129.976 87.2236 131.401C87.6583 132.818 88.274 133.892 89.0709 134.625C89.8678 135.349 90.8256 135.711 91.9445 135.711ZM115.884 124.591V127.73H104.921V124.591H115.884ZM119.277 138.524V135.82L127.644 127.151C128.538 126.209 129.274 125.384 129.854 124.676C130.442 123.959 130.88 123.279 131.17 122.635C131.46 121.991 131.605 121.307 131.605 120.583C131.605 119.762 131.411 119.053 131.025 118.458C130.639 117.854 130.112 117.391 129.443 117.069C128.775 116.739 128.023 116.574 127.186 116.574C126.3 116.574 125.527 116.755 124.867 117.117C124.207 117.48 123.7 117.991 123.346 118.651C122.992 119.311 122.815 120.084 122.815 120.969H119.253C119.253 119.464 119.599 118.148 120.291 117.021C120.984 115.894 121.934 115.021 123.141 114.401C124.348 113.773 125.721 113.459 127.258 113.459C128.812 113.459 130.18 113.769 131.363 114.389C132.554 115.001 133.484 115.838 134.152 116.9C134.82 117.955 135.154 119.146 135.154 120.474C135.154 121.392 134.981 122.289 134.635 123.166C134.297 124.044 133.706 125.022 132.86 126.1C132.015 127.171 130.84 128.471 129.335 130L124.421 135.144V135.325H135.553V138.524H119.277ZM147.917 138.862C146.403 138.862 145.043 138.573 143.836 137.993C142.636 137.406 141.679 136.601 140.962 135.578C140.246 134.556 139.863 133.389 139.815 132.077H143.437C143.526 133.139 143.997 134.013 144.85 134.697C145.703 135.381 146.725 135.723 147.917 135.723C148.867 135.723 149.708 135.506 150.44 135.071C151.181 134.629 151.76 134.021 152.179 133.248C152.605 132.475 152.819 131.594 152.819 130.604C152.819 129.598 152.601 128.7 152.167 127.911C151.732 127.123 151.132 126.503 150.368 126.052C149.611 125.601 148.742 125.372 147.76 125.364C147.011 125.364 146.259 125.493 145.502 125.75C144.745 126.008 144.134 126.346 143.667 126.764L140.25 126.257L141.638 113.797H155.234V116.997H144.741L143.957 123.915H144.101C144.584 123.448 145.224 123.058 146.021 122.744C146.826 122.43 147.687 122.273 148.605 122.273C150.11 122.273 151.45 122.631 152.626 123.348C153.809 124.064 154.738 125.042 155.415 126.282C156.099 127.513 156.437 128.93 156.429 130.532C156.437 132.133 156.075 133.562 155.342 134.818C154.618 136.073 153.612 137.063 152.324 137.788C151.044 138.504 149.575 138.862 147.917 138.862ZM168.627 138.862C167.113 138.862 165.753 138.573 164.546 137.993C163.346 137.406 162.389 136.601 161.672 135.578C160.956 134.556 160.573 133.389 160.525 132.077H164.147C164.236 133.139 164.707 134.013 165.56 134.697C166.413 135.381 167.435 135.723 168.627 135.723C169.577 135.723 170.418 135.506 171.15 135.071C171.891 134.629 172.47 134.021 172.889 133.248C173.315 132.475 173.529 131.594 173.529 130.604C173.529 129.598 173.311 128.7 172.877 127.911C172.442 127.123 171.842 126.503 171.078 126.052C170.321 125.601 169.452 125.372 168.47 125.364C167.721 125.364 166.969 125.493 166.212 125.75C165.455 126.008 164.844 126.346 164.377 126.764L160.96 126.257L162.348 113.797H175.944V116.997H165.451L164.667 123.915H164.811C165.294 123.448 165.934 123.058 166.731 122.744C167.536 122.43 168.397 122.273 169.315 122.273C170.82 122.273 172.16 122.631 173.336 123.348C174.519 124.064 175.448 125.042 176.125 126.282C176.809 127.513 177.147 128.93 177.139 130.532C177.147 132.133 176.785 133.562 176.052 134.818C175.328 136.073 174.322 137.063 173.034 137.788C171.754 138.504 170.285 138.862 168.627 138.862Z" fill="white"/>
<path d="M72.0234 219.235C72.0234 218.13 70.6706 217.349 69.714 217.902L54.3328 226.782C53.3763 227.334 53.3763 228.896 54.3328 229.449L69.714 238.329C70.6706 238.881 72.0234 238.1 72.0234 236.996V219.235ZM111.313 230.115C112.417 230.115 113.313 229.22 113.313 228.115C113.313 227.011 112.417 226.115 111.313 226.115V230.115ZM148.813 226.115C147.708 226.115 146.813 227.011 146.813 228.115C146.813 229.22 147.708 230.115 148.813 230.115V226.115ZM188.102 236.996C188.102 238.1 189.455 238.881 190.412 238.329L205.793 229.449C206.749 228.896 206.749 227.334 205.793 226.782L190.412 217.902C189.455 217.349 188.102 218.13 188.102 219.235V236.996ZM70.0234 230.115H111.313V226.115H70.0234V230.115ZM148.813 230.115H190.102V226.115H148.813V230.115Z" fill="#B3B3B3"/>
<path d="M133.2 219.661V237.115H129.51V223.164H129.407L125.41 225.669V222.396L129.731 219.661H133.2Z" fill="#757575"/>
<path d="M247.561 68.0244C248.666 68.0244 249.447 66.6716 248.894 65.715L240.014 50.3338C239.462 49.3772 237.9 49.3772 237.347 50.3338L228.467 65.715C227.915 66.6716 228.696 68.0244 229.8 68.0244H247.561ZM236.681 99.5637C236.681 100.668 237.576 101.564 238.681 101.564C239.785 101.564 240.681 100.668 240.681 99.5637H236.681ZM240.681 152.564C240.681 151.459 239.785 150.564 238.681 150.564C237.576 150.564 236.681 151.459 236.681 152.564H240.681ZM229.8 184.103C228.696 184.103 227.915 185.456 228.467 186.412L237.347 201.794C237.9 202.75 239.462 202.75 240.014 201.794L248.894 186.412C249.447 185.456 248.666 184.103 247.561 184.103H229.8ZM236.681 66.0244V99.5637H240.681V66.0244H236.681ZM236.681 152.564V186.103H240.681V152.564H236.681Z" fill="#B3B3B3"/>
<path d="M241.818 117.609V135.063H238.128V121.112H238.025L234.028 123.617V120.345L238.349 117.609H241.818Z" fill="#757575"/>
</g>
<defs>
<filter id="filter0_d_1009_3650" x="0" y="0" width="261.431" height="262.615" filterUnits="userSpaceOnUse" color-interpolation-filters="sRGB">
<feFlood flood-opacity="0" result="BackgroundImageFix"/>
<feColorMatrix in="SourceAlpha" type="matrix" values="0 0 0 0 0 0 0 0 0 0 0 0 0 0 0 0 0 0 127 0" result="hardAlpha"/>
<feOffset dy="4"/>
<feGaussianBlur stdDeviation="2"/>
<feComposite in2="hardAlpha" operator="out"/>
<feColorMatrix type="matrix" values="0 0 0 0 0 0 0 0 0 0 0 0 0 0 0 0 0 0 0.25 0"/>
<feBlend mode="normal" in2="BackgroundImageFix" result="effect1_dropShadow_1009_3650"/>
<feBlend mode="normal" in="SourceGraphic" in2="effect1_dropShadow_1009_3650" result="shape"/>
</filter>
</defs>
</svg>
