<svg width="337" height="181" viewBox="0 0 337 181" fill="none" xmlns="http://www.w3.org/2000/svg">
<rect x="299" y="44" width="38" height="100" rx="5" fill="#F0F0F0"/>
<rect x="233" y="44" width="38" height="100" rx="5" fill="#F0F0F0"/>
<rect x="83" width="38" height="181" rx="5" fill="#F0F0F0"/>
<rect x="160" width="38" height="181" rx="5" fill="#F0F0F0"/>
<rect y="44" width="38" height="100" rx="5" fill="#F0F0F0"/>
<line x1="18.3756" y1="69.6361" x2="101.376" y2="31.6361" stroke="#808080" stroke-width="3"/>
<line x1="251.279" y1="70.3155" x2="178.279" y2="30.3155" stroke="#808080" stroke-width="3"/>
<line x1="252.415" y1="70.4415" x2="179.415" y2="91.4415" stroke="#808080" stroke-width="3"/>
<line x1="253.12" y1="69.9974" x2="180.12" y2="151.997" stroke="#808080" stroke-width="3"/>
<line x1="252.586" y1="121.381" x2="179.586" y2="152.381" stroke="#808080" stroke-width="3"/>
<line x1="251.43" y1="121.387" x2="178.43" y2="91.3874" stroke="#808080" stroke-width="3"/>
<path d="M264.293 120.293C263.902 120.683 263.902 121.317 264.293 121.707L270.657 128.071C271.047 128.462 271.681 128.462 272.071 128.071C272.462 127.681 272.462 127.047 272.071 126.657L266.414 121L272.071 115.343C272.462 114.953 272.462 114.319 272.071 113.929C271.681 113.538 271.047 113.538 270.657 113.929L264.293 120.293ZM304.707 121.707C305.098 121.317 305.098 120.683 304.707 120.293L298.343 113.929C297.953 113.538 297.319 113.538 296.929 113.929C296.538 114.319 296.538 114.953 296.929 115.343L302.586 121L296.929 126.657C296.538 127.047 296.538 127.681 296.929 128.071C297.319 128.462 297.953 128.462 298.343 128.071L304.707 121.707ZM265 122H304V120H265V122Z" fill="#808080"/>
<path d="M265.293 68.2929C264.902 68.6834 264.902 69.3166 265.293 69.7071L271.657 76.0711C272.047 76.4616 272.681 76.4616 273.071 76.0711C273.462 75.6805 273.462 75.0474 273.071 74.6569L267.414 69L273.071 63.3431C273.462 62.9526 273.462 62.3195 273.071 61.9289C272.681 61.5384 272.047 61.5384 271.657 61.9289L265.293 68.2929ZM304.707 69.7071C305.098 69.3166 305.098 68.6834 304.707 68.2929L298.343 61.9289C297.953 61.5384 297.319 61.5384 296.929 61.9289C296.538 62.3195 296.538 62.9526 296.929 63.3431L302.586 69L296.929 74.6569C296.538 75.0474 296.538 75.6805 296.929 76.0711C297.319 76.4616 297.953 76.4616 298.343 76.0711L304.707 69.7071ZM266 70H304V68H266V70Z" fill="#808080"/>
<line x1="250.83" y1="120.939" x2="177.83" y2="29.9386" stroke="#808080" stroke-width="3"/>
<line x1="19.3436" y1="69.5399" x2="104.344" y2="89.5399" stroke="#808080" stroke-width="3"/>
<line x1="20.041" y1="69.92" x2="103.041" y2="149.92" stroke="#808080" stroke-width="3"/>
<line x1="17.903" y1="118.977" x2="100.903" y2="29.977" stroke="#808080" stroke-width="3"/>
<line x1="18.5052" y1="118.584" x2="101.505" y2="89.5839" stroke="#808080" stroke-width="3"/>
<line x1="179" y1="30.5" x2="102" y2="30.5" stroke="#808080" stroke-width="3"/>
<line x1="178.059" y1="92.1683" x2="101.059" y2="30.1683" stroke="#808080" stroke-width="3"/>
<line x1="177.732" y1="151.801" x2="100.732" y2="29.8006" stroke="#808080" stroke-width="3"/>
<line x1="179.931" y1="30.1758" x2="102.931" y2="91.1758" stroke="#808080" stroke-width="3"/>
<line x1="178.981" y1="92.4999" x2="101.981" y2="91.4999" stroke="#808080" stroke-width="3"/>
<line x1="178.069" y1="152.176" x2="101.069" y2="91.1758" stroke="#808080" stroke-width="3"/>
<line x1="179" y1="152.5" x2="102" y2="152.5" stroke="#808080" stroke-width="3"/>
<line x1="180.268" y1="29.8006" x2="103.268" y2="151.801" stroke="#808080" stroke-width="3"/>
<line x1="179.922" y1="92.1832" x2="102.922" y2="152.183" stroke="#808080" stroke-width="3"/>
<line x1="19.5248" y1="118.595" x2="102.525" y2="149.595" stroke="#808080" stroke-width="3"/>
<circle cx="18.5" cy="68.5" r="13.5" fill="#5161F1"/>
<circle cx="101.5" cy="30.5" r="13.5" fill="#5161F1"/>
<circle cx="101.5" cy="90.5" r="13.5" fill="#5161F1"/>
<circle cx="101.5" cy="150.5" r="13.5" fill="#5161F1"/>
<circle cx="178.5" cy="30.5" r="13.5" fill="#5161F1"/>
<circle cx="178.5" cy="90.5" r="13.5" fill="#5161F1"/>
<circle cx="178.5" cy="150.5" r="13.5" fill="#5161F1"/>
<circle cx="18.5" cy="119.5" r="13.5" fill="#5161F1"/>
<circle cx="251.5" cy="68.5" r="13.5" fill="#5161F1"/>
<circle cx="251.5" cy="119.5" r="13.5" fill="#5161F1"/>
<circle cx="318.5" cy="68.5" r="13.5" fill="#5161F1"/>
<circle cx="318.5" cy="120.5" r="13.5" fill="#5161F1"/>
</svg>
