<svg width="412" height="152" viewBox="0 0 412 152" fill="none" xmlns="http://www.w3.org/2000/svg">
<path d="M13.6135 0.345448C13.252 -0.0160505 12.6659 -0.0160504 12.3044 0.345448L6.41347 6.23641C6.05197 6.59791 6.05197 7.18402 6.41347 7.54552C6.77497 7.90701 7.36107 7.90701 7.72257 7.54552L12.959 2.3091L18.1954 7.54552C18.5569 7.90701 19.143 7.90701 19.5045 7.54552C19.866 7.18402 19.866 6.59791 19.5045 6.23641L13.6135 0.345448ZM12.0333 1L12.0333 130.595L13.8847 130.595L13.8847 1L12.0333 1Z" fill="#808080"/>
<path d="M183.938 130.323C184.299 129.961 184.299 129.375 183.938 129.013L178.047 123.122C177.685 122.761 177.099 122.761 176.738 123.122C176.376 123.484 176.376 124.07 176.738 124.432L181.974 129.668L176.738 134.904C176.376 135.266 176.376 135.852 176.738 136.213C177.099 136.575 177.685 136.575 178.047 136.213L183.938 130.323ZM183.283 128.742L12.0332 128.742V130.594L183.283 130.594V128.742Z" fill="#808080"/>
<circle cx="82.8489" cy="94.0306" r="6.01689" fill="#5161F1"/>
<circle cx="85.6243" cy="52.3743" r="6.01689" fill="#5161F1"/>
<circle cx="89.3274" cy="32.9349" r="6.01689" fill="#5161F1"/>
<circle cx="73.5911" cy="69.9622" r="6.01689" fill="#5161F1"/>
<circle cx="40.2669" cy="95.8821" r="6.01689" fill="#5161F1"/>
<circle cx="55.0774" cy="114.396" r="6.01689" fill="#5161F1"/>
<circle cx="72.6653" cy="111.618" r="6.01689" fill="#5161F1"/>
<circle cx="52.3001" cy="69.9622" r="6.01689" fill="#5161F1"/>
<circle cx="60.6321" cy="90.3274" r="6.01689" fill="#5161F1"/>
<circle cx="153.199" cy="32.011" r="6.01689" fill="#5161F1"/>
<circle cx="138.388" cy="16.2728" r="6.01689" fill="#5161F1"/>
<circle cx="104.138" cy="47.7474" r="6.01689" fill="#5161F1"/>
<circle cx="131.909" cy="43.1185" r="6.01689" fill="#5161F1"/>
<circle cx="114.322" cy="26.4563" r="6.01689" fill="#5161F1"/>
<circle cx="94.8821" cy="76.4427" r="6.01689" fill="#5161F1"/>
<circle cx="153.199" cy="54.2259" r="6.01689" fill="#5161F1"/>
<circle cx="126.355" cy="63.4837" r="6.01689" fill="#5161F1"/>
<circle cx="114.322" cy="76.4427" r="6.01689" fill="#5161F1"/>
<path d="M167.089 134.101L169.266 137.817L171.444 134.101H173.053L170.118 138.645L173.053 143.189H171.444L169.266 139.663L167.089 143.189H165.48L168.367 138.645L165.48 134.101H167.089Z" fill="#707070"/>
<path d="M0.286315 12.0997H1.78626L4.07251 16.0782H4.16653L6.45278 12.0997H7.95272L4.77762 17.4158V20.8516H3.46142V17.4158L0.286315 12.0997Z" fill="#707070"/>
<line x1="13.2611" y1="127.728" x2="165.607" y2="16.4334" stroke="#07BF29" stroke-width="2.77703" stroke-linecap="round"/>
<path d="M13.6135 0.345448C13.252 -0.0160505 12.6659 -0.0160504 12.3044 0.345448L6.41347 6.23641C6.05197 6.59791 6.05197 7.18402 6.41347 7.54552C6.77497 7.90701 7.36107 7.90701 7.72257 7.54552L12.959 2.3091L18.1954 7.54552C18.5569 7.90701 19.143 7.90701 19.5045 7.54552C19.866 7.18402 19.866 6.59791 19.5045 6.23641L13.6135 0.345448ZM12.0333 1L12.0333 130.595L13.8847 130.595L13.8847 1L12.0333 1Z" fill="#808080"/>
<path d="M183.938 130.323C184.299 129.961 184.299 129.375 183.938 129.013L178.047 123.122C177.685 122.761 177.099 122.761 176.738 123.122C176.376 123.484 176.376 124.07 176.738 124.432L181.974 129.668L176.738 134.904C176.376 135.266 176.376 135.852 176.738 136.213C177.099 136.575 177.685 136.575 178.047 136.213L183.938 130.323ZM183.283 128.742L12.0332 128.742V130.594L183.283 130.594V128.742Z" fill="#808080"/>
<circle cx="82.8489" cy="94.0306" r="6.01689" fill="#5161F1"/>
<circle cx="85.6243" cy="52.3743" r="6.01689" fill="#5161F1"/>
<circle cx="89.3274" cy="32.9349" r="6.01689" fill="#5161F1"/>
<circle cx="73.5911" cy="69.9622" r="6.01689" fill="#5161F1"/>
<circle cx="40.2669" cy="95.8821" r="6.01689" fill="#5161F1"/>
<circle cx="55.0774" cy="114.396" r="6.01689" fill="#5161F1"/>
<circle cx="72.6653" cy="111.618" r="6.01689" fill="#5161F1"/>
<circle cx="52.3001" cy="69.9622" r="6.01689" fill="#5161F1"/>
<circle cx="60.6321" cy="90.3274" r="6.01689" fill="#5161F1"/>
<circle cx="153.199" cy="32.011" r="6.01689" fill="#5161F1"/>
<circle cx="138.388" cy="16.2728" r="6.01689" fill="#5161F1"/>
<circle cx="104.138" cy="47.7474" r="6.01689" fill="#5161F1"/>
<circle cx="131.909" cy="43.1185" r="6.01689" fill="#5161F1"/>
<circle cx="114.322" cy="26.4563" r="6.01689" fill="#5161F1"/>
<circle cx="94.8821" cy="76.4427" r="6.01689" fill="#5161F1"/>
<circle cx="153.199" cy="54.2259" r="6.01689" fill="#5161F1"/>
<circle cx="126.355" cy="63.4837" r="6.01689" fill="#5161F1"/>
<circle cx="114.322" cy="76.4427" r="6.01689" fill="#5161F1"/>
<circle cx="114.322" cy="76.4427" r="6.01689" fill="#5161F1"/>
<path d="M167.089 134.101L169.266 137.817L171.444 134.101H173.053L170.118 138.645L173.053 143.189H171.444L169.266 139.663L167.089 143.189H165.48L168.367 138.645L165.48 134.101H167.089Z" fill="#707070"/>
<path d="M0.286315 12.0997H1.78626L4.07251 16.0782H4.16653L6.45278 12.0997H7.95272L4.77762 17.4158V20.8516H3.46142V17.4158L0.286315 12.0997Z" fill="#707070"/>
<line x1="13.2611" y1="127.728" x2="165.607" y2="16.4334" stroke="#07BF29" stroke-width="2.77703" stroke-linecap="round"/>
<line x1="242.218" y1="128.199" x2="286.199" y2="16.7817" stroke="#07BF10" stroke-width="2.77703" stroke-linecap="round"/>
<line x1="326.207" y1="121.2" x2="286.2" y2="16.7934" stroke="#07BF10" stroke-width="2.77703" stroke-linecap="round"/>
<line x1="399.261" y1="119.088" x2="366.088" y2="12.739" stroke="#07BF10" stroke-width="2.77703" stroke-linecap="round"/>
<line x1="326.179" y1="121.216" x2="366.216" y2="12.8214" stroke="#07BF10" stroke-width="2.77703" stroke-linecap="round"/>
<circle cx="258.726" cy="108.841" r="6.01689" fill="#5161F1"/>
<circle cx="264.281" cy="85.6985" r="6.01689" fill="#5161F1"/>
<circle cx="270.761" cy="61.6321" r="6.01689" fill="#5161F1"/>
<circle cx="277.24" cy="36.638" r="6.01689" fill="#5161F1"/>
<circle cx="6.01689" cy="6.01689" r="6.01689" transform="matrix(1 0 0 -1 292.514 42.6562)" fill="#5161F1"/>
<circle cx="6.01689" cy="6.01689" r="6.01689" transform="matrix(1 0 0 -1 298.068 65.7969)" fill="#5161F1"/>
<circle cx="6.01689" cy="6.01689" r="6.01689" transform="matrix(1 0 0 -1 304.547 89.8652)" fill="#5161F1"/>
<circle cx="6.01689" cy="6.01689" r="6.01689" transform="matrix(1 0 0 -1 311.027 114.857)" fill="#5161F1"/>
<circle cx="338.335" cy="108.841" r="6.01689" fill="#5161F1"/>
<circle cx="343.888" cy="85.6985" r="6.01689" fill="#5161F1"/>
<circle cx="350.368" cy="61.6321" r="6.01689" fill="#5161F1"/>
<circle cx="356.849" cy="36.638" r="6.01689" fill="#5161F1"/>
<circle cx="6.01689" cy="6.01689" r="6.01689" transform="matrix(1 0 0 -1 371.195 42.6562)" fill="#5161F1"/>
<circle cx="6.01689" cy="6.01689" r="6.01689" transform="matrix(1 0 0 -1 376.75 65.7969)" fill="#5161F1"/>
<circle cx="6.01689" cy="6.01689" r="6.01689" transform="matrix(1 0 0 -1 383.23 89.8652)" fill="#5161F1"/>
<circle cx="6.01689" cy="6.01689" r="6.01689" transform="matrix(1 0 0 -1 389.709 114.857)" fill="#5161F1"/>
<path d="M241.33 0.345448C240.969 -0.0160505 240.383 -0.0160504 240.021 0.345448L234.13 6.23641C233.769 6.59791 233.769 7.18402 234.13 7.54552C234.492 7.90701 235.078 7.90701 235.439 7.54552L240.676 2.3091L245.912 7.54552C246.274 7.90701 246.86 7.90701 247.221 7.54552C247.583 7.18402 247.583 6.59791 247.221 6.23641L241.33 0.345448ZM239.75 1L239.75 130.595L241.601 130.595L241.601 1L239.75 1Z" fill="#808080"/>
<path d="M411.655 130.323C412.016 129.961 412.016 129.375 411.655 129.013L405.764 123.122C405.402 122.761 404.816 122.761 404.454 123.122C404.093 123.484 404.093 124.07 404.454 124.432L409.691 129.668L404.454 134.904C404.093 135.266 404.093 135.852 404.454 136.213C404.816 136.575 405.402 136.575 405.764 136.213L411.655 130.323ZM411 128.742L239.75 128.742V130.594L411 130.594V128.742Z" fill="#808080"/>
<path d="M394.806 134.101L396.983 137.817L399.161 134.101H400.77L397.835 138.645L400.77 143.189H399.161L396.983 139.663L394.806 143.189H393.196L396.084 138.645L393.196 134.101H394.806Z" fill="#707070"/>
<path d="M228.003 12.0997H229.503L231.789 16.0782H231.883L234.17 12.0997H235.67L232.494 17.4158V20.8516H231.178V17.4158L228.003 12.0997Z" fill="#707070"/>
<path d="M241.33 0.345448C240.969 -0.0160505 240.383 -0.0160504 240.021 0.345448L234.13 6.23641C233.769 6.59791 233.769 7.18402 234.13 7.54552C234.492 7.90701 235.078 7.90701 235.439 7.54552L240.676 2.3091L245.912 7.54552C246.274 7.90701 246.86 7.90701 247.221 7.54552C247.583 7.18402 247.583 6.59791 247.221 6.23641L241.33 0.345448ZM239.75 1L239.75 130.595L241.601 130.595L241.601 1L239.75 1Z" fill="#808080"/>
<path d="M411.655 130.323C412.016 129.961 412.016 129.375 411.655 129.013L405.764 123.122C405.402 122.761 404.816 122.761 404.454 123.122C404.093 123.484 404.093 124.07 404.454 124.432L409.691 129.668L404.454 134.904C404.093 135.266 404.093 135.852 404.454 136.213C404.816 136.575 405.402 136.575 405.764 136.213L411.655 130.323ZM411 128.742L239.75 128.742V130.594L411 130.594V128.742Z" fill="#808080"/>
<path d="M394.806 134.101L396.983 137.817L399.161 134.101H400.77L397.835 138.645L400.77 143.189H399.161L396.983 139.663L394.806 143.189H393.196L396.084 138.645L393.196 134.101H394.806Z" fill="#707070"/>
<path d="M228.003 12.0997H229.503L231.789 16.0782H231.883L234.17 12.0997H235.67L232.494 17.4158V20.8516H231.178V17.4158L228.003 12.0997Z" fill="#707070"/>
</svg>
