<svg width="412" height="151" viewBox="0 0 412 151" fill="none" xmlns="http://www.w3.org/2000/svg">
<path d="M13.6135 0.345448C13.252 -0.0160505 12.6659 -0.0160504 12.3044 0.345448L6.41347 6.23641C6.05197 6.59791 6.05197 7.18402 6.41347 7.54552C6.77497 7.90701 7.36107 7.90701 7.72257 7.54552L12.959 2.3091L18.1954 7.54552C18.5569 7.90701 19.143 7.90701 19.5045 7.54552C19.866 7.18402 19.866 6.59791 19.5045 6.23641L13.6135 0.345448ZM12.0333 1L12.0333 130.595L13.8847 130.595L13.8847 1L12.0333 1Z" fill="#808080"/>
<path d="M183.939 130.323C184.3 129.962 184.3 129.376 183.939 129.014L178.048 123.123C177.686 122.762 177.1 122.762 176.739 123.123C176.377 123.485 176.377 124.071 176.739 124.433L181.975 129.669L176.739 134.905C176.377 135.267 176.377 135.853 176.739 136.214C177.1 136.576 177.686 136.576 178.048 136.214L183.939 130.323ZM183.284 128.743L12.0342 128.743V130.595L183.284 130.595V128.743Z" fill="#808080"/>
<circle cx="82.8479" cy="94.0306" r="6.01689" fill="#5161F1"/>
<circle cx="85.6253" cy="52.3753" r="6.01689" fill="#5161F1"/>
<circle cx="89.3274" cy="32.9358" r="6.01689" fill="#5161F1"/>
<circle cx="73.5911" cy="69.9632" r="6.01689" fill="#5161F1"/>
<circle cx="40.2669" cy="95.8821" r="6.01689" fill="#5161F1"/>
<circle cx="55.0774" cy="114.395" r="6.01689" fill="#5161F1"/>
<circle cx="72.6653" cy="111.618" r="6.01689" fill="#5161F1"/>
<circle cx="52.3011" cy="69.9632" r="6.01689" fill="#5161F1"/>
<circle cx="60.6321" cy="90.3274" r="6.01689" fill="#5161F1"/>
<circle cx="153.2" cy="32.0101" r="6.01689" fill="#5161F1"/>
<circle cx="138.389" cy="16.2737" r="6.01689" fill="#5161F1"/>
<circle cx="104.139" cy="47.7464" r="6.01689" fill="#5161F1"/>
<circle cx="131.908" cy="43.1185" r="6.01689" fill="#5161F1"/>
<circle cx="114.321" cy="26.4563" r="6.01689" fill="#5161F1"/>
<circle cx="94.8821" cy="76.4427" r="6.01689" fill="#5161F1"/>
<circle cx="153.2" cy="54.2259" r="6.01689" fill="#5161F1"/>
<circle cx="126.355" cy="63.4827" r="6.01689" fill="#5161F1"/>
<circle cx="114.321" cy="76.4427" r="6.01689" fill="#5161F1"/>
<path d="M167.09 134.101L169.267 137.817L171.445 134.101H173.054L170.119 138.645L173.054 143.189H171.445L169.267 139.663L167.09 143.189H165.481L168.368 138.645L165.481 134.101H167.09Z" fill="#707070"/>
<path d="M0.286315 12.0997H1.78626L4.07251 16.0782H4.16653L6.45278 12.0997H7.95272L4.77762 17.4158V20.8516H3.46142V17.4158L0.286315 12.0997Z" fill="#707070"/>
<line x1="13.2611" y1="127.729" x2="165.607" y2="16.4344" stroke="#07BF29" stroke-width="2.77703" stroke-linecap="round"/>
<path d="M13.6135 0.345448C13.252 -0.0160505 12.6659 -0.0160504 12.3044 0.345448L6.41347 6.23641C6.05197 6.59791 6.05197 7.18402 6.41347 7.54552C6.77497 7.90701 7.36107 7.90701 7.72257 7.54552L12.959 2.3091L18.1954 7.54552C18.5569 7.90701 19.143 7.90701 19.5045 7.54552C19.866 7.18402 19.866 6.59791 19.5045 6.23641L13.6135 0.345448ZM12.0333 1L12.0333 130.595L13.8847 130.595L13.8847 1L12.0333 1Z" fill="#808080"/>
<path d="M183.939 130.323C184.3 129.962 184.3 129.376 183.939 129.014L178.048 123.123C177.686 122.762 177.1 122.762 176.739 123.123C176.377 123.485 176.377 124.071 176.739 124.433L181.975 129.669L176.739 134.905C176.377 135.267 176.377 135.853 176.739 136.214C177.1 136.576 177.686 136.576 178.048 136.214L183.939 130.323ZM183.284 128.743L12.0342 128.743V130.595L183.284 130.595V128.743Z" fill="#808080"/>
<circle cx="82.8479" cy="94.0306" r="6.01689" fill="#5161F1"/>
<circle cx="85.6253" cy="52.3753" r="6.01689" fill="#5161F1"/>
<circle cx="89.3274" cy="32.9358" r="6.01689" fill="#5161F1"/>
<circle cx="73.5911" cy="69.9632" r="6.01689" fill="#5161F1"/>
<circle cx="40.2669" cy="95.8821" r="6.01689" fill="#5161F1"/>
<circle cx="55.0774" cy="114.395" r="6.01689" fill="#5161F1"/>
<circle cx="72.6653" cy="111.618" r="6.01689" fill="#5161F1"/>
<circle cx="52.3011" cy="69.9632" r="6.01689" fill="#5161F1"/>
<circle cx="60.6321" cy="90.3274" r="6.01689" fill="#5161F1"/>
<circle cx="153.2" cy="32.0101" r="6.01689" fill="#5161F1"/>
<circle cx="138.389" cy="16.2737" r="6.01689" fill="#5161F1"/>
<circle cx="104.139" cy="47.7464" r="6.01689" fill="#5161F1"/>
<circle cx="131.908" cy="43.1185" r="6.01689" fill="#5161F1"/>
<circle cx="114.321" cy="26.4563" r="6.01689" fill="#5161F1"/>
<circle cx="94.8821" cy="76.4427" r="6.01689" fill="#5161F1"/>
<circle cx="153.2" cy="54.2259" r="6.01689" fill="#5161F1"/>
<circle cx="126.355" cy="63.4827" r="6.01689" fill="#5161F1"/>
<circle cx="114.321" cy="76.4427" r="6.01689" fill="#5161F1"/>
<circle cx="114.321" cy="76.4427" r="6.01689" fill="#5161F1"/>
<path d="M167.09 134.101L169.267 137.817L171.445 134.101H173.054L170.119 138.645L173.054 143.189H171.445L169.267 139.663L167.09 143.189H165.481L168.368 138.645L165.481 134.101H167.09Z" fill="#707070"/>
<path d="M0.286315 12.0997H1.78626L4.07251 16.0782H4.16653L6.45278 12.0997H7.95272L4.77762 17.4158V20.8516H3.46142V17.4158L0.286315 12.0997Z" fill="#707070"/>
<line x1="13.2611" y1="127.729" x2="165.607" y2="16.4344" stroke="#07BF29" stroke-width="2.77703" stroke-linecap="round"/>
<line x1="240.978" y1="130.506" x2="393.323" y2="19.2118" stroke="#BF0707" stroke-width="2.77703" stroke-linecap="round"/>
<circle cx="258.726" cy="108.841" r="6.01689" fill="#5161F1"/>
<circle cx="264.281" cy="85.6995" r="6.01689" fill="#5161F1"/>
<circle cx="270.76" cy="61.6321" r="6.01689" fill="#5161F1"/>
<circle cx="277.24" cy="36.639" r="6.01689" fill="#5161F1"/>
<circle cx="6.01689" cy="6.01689" r="6.01689" transform="matrix(1 0 0 -1 292.514 42.6553)" fill="#5161F1"/>
<circle cx="6.01689" cy="6.01689" r="6.01689" transform="matrix(1 0 0 -1 298.067 65.7969)" fill="#5161F1"/>
<circle cx="6.01689" cy="6.01689" r="6.01689" transform="matrix(1 0 0 -1 304.547 89.8652)" fill="#5161F1"/>
<circle cx="6.01689" cy="6.01689" r="6.01689" transform="matrix(1 0 0 -1 311.027 114.858)" fill="#5161F1"/>
<circle cx="338.334" cy="108.841" r="6.01689" fill="#5161F1"/>
<circle cx="343.889" cy="85.6995" r="6.01689" fill="#5161F1"/>
<circle cx="350.368" cy="61.6321" r="6.01689" fill="#5161F1"/>
<circle cx="356.848" cy="36.639" r="6.01689" fill="#5161F1"/>
<circle cx="6.01689" cy="6.01689" r="6.01689" transform="matrix(1 0 0 -1 371.196 42.6553)" fill="#5161F1"/>
<circle cx="6.01689" cy="6.01689" r="6.01689" transform="matrix(1 0 0 -1 376.75 65.7969)" fill="#5161F1"/>
<circle cx="6.01689" cy="6.01689" r="6.01689" transform="matrix(1 0 0 -1 383.229 89.8652)" fill="#5161F1"/>
<circle cx="6.01689" cy="6.01689" r="6.01689" transform="matrix(1 0 0 -1 389.709 114.858)" fill="#5161F1"/>
<path d="M241.33 0.345448C240.969 -0.0160505 240.383 -0.0160504 240.021 0.345448L234.13 6.23641C233.769 6.59791 233.769 7.18402 234.13 7.54552C234.492 7.90701 235.078 7.90701 235.439 7.54552L240.676 2.3091L245.912 7.54552C246.274 7.90701 246.86 7.90701 247.221 7.54552C247.583 7.18402 247.583 6.59791 247.221 6.23641L241.33 0.345448ZM239.75 1L239.75 130.595L241.601 130.595L241.601 1L239.75 1Z" fill="#808080"/>
<path d="M411.655 130.323C412.016 129.962 412.016 129.376 411.655 129.014L405.764 123.123C405.402 122.762 404.816 122.762 404.454 123.123C404.093 123.485 404.093 124.071 404.454 124.433L409.691 129.669L404.454 134.905C404.093 135.267 404.093 135.853 404.454 136.214C404.816 136.576 405.402 136.576 405.764 136.214L411.655 130.323ZM411 128.743L239.75 128.743V130.595L411 130.595V128.743Z" fill="#808080"/>
<path d="M394.806 134.101L396.983 137.817L399.161 134.101H400.77L397.835 138.645L400.77 143.189H399.161L396.983 139.663L394.806 143.189H393.196L396.084 138.645L393.196 134.101H394.806Z" fill="#707070"/>
<path d="M228.002 12.0997H229.502L231.788 16.0782H231.882L234.169 12.0997H235.669L232.493 17.4158V20.8516H231.177V17.4158L228.002 12.0997Z" fill="#707070"/>
<path d="M241.33 0.345448C240.969 -0.0160505 240.383 -0.0160504 240.021 0.345448L234.13 6.23641C233.769 6.59791 233.769 7.18402 234.13 7.54552C234.492 7.90701 235.078 7.90701 235.439 7.54552L240.676 2.3091L245.912 7.54552C246.274 7.90701 246.86 7.90701 247.221 7.54552C247.583 7.18402 247.583 6.59791 247.221 6.23641L241.33 0.345448ZM239.75 1L239.75 130.595L241.601 130.595L241.601 1L239.75 1Z" fill="#808080"/>
<path d="M411.655 130.323C412.016 129.962 412.016 129.376 411.655 129.014L405.764 123.123C405.402 122.762 404.816 122.762 404.454 123.123C404.093 123.485 404.093 124.071 404.454 124.433L409.691 129.669L404.454 134.905C404.093 135.267 404.093 135.853 404.454 136.214C404.816 136.576 405.402 136.576 405.764 136.214L411.655 130.323ZM411 128.743L239.75 128.743V130.595L411 130.595V128.743Z" fill="#808080"/>
<path d="M394.806 134.101L396.983 137.817L399.161 134.101H400.77L397.835 138.645L400.77 143.189H399.161L396.983 139.663L394.806 143.189H393.196L396.084 138.645L393.196 134.101H394.806Z" fill="#707070"/>
<path d="M228.002 12.0997H229.502L231.788 16.0782H231.882L234.169 12.0997H235.669L232.493 17.4158V20.8516H231.177V17.4158L228.002 12.0997Z" fill="#707070"/>
</svg>
