<svg width="399" height="194" viewBox="0 0 399 194" fill="none" xmlns="http://www.w3.org/2000/svg">
<rect x="220.273" y="105.626" width="178.607" height="88.3748" rx="5.3078" fill="#CACACA"/>
<circle cx="97" cy="97" r="97" fill="#D9D9D9"/>
<circle cx="96.8679" cy="122.079" r="71.9207" fill="#C3C3C3"/>
<circle cx="97.2659" cy="147.955" r="46.0451" fill="#929090"/>
<path d="M82.6543 22.4588H84.3613V30.9301H82.6543V22.4588ZM76.5015 32.688H84.6543V34.0383H76.5015V32.688ZM76.5015 30.0766H78.1958V33.2358H76.5015V30.0766ZM77.941 23.1977C79.7499 23.1977 81.1384 24.4461 81.1384 26.1913C81.1384 27.9237 79.7499 29.1849 77.941 29.1849C76.1321 29.1849 74.7309 27.9237 74.7309 26.1913C74.7309 24.4461 76.1321 23.1977 77.941 23.1977ZM77.941 24.6626C77.062 24.6626 76.3869 25.2231 76.3869 26.1913C76.3869 27.1467 77.062 27.7072 77.941 27.7072C78.8072 27.7072 79.4824 27.1467 79.4824 26.1913C79.4824 25.2231 78.8072 24.6626 77.941 24.6626ZM91.3029 29.7836C93.8507 29.7836 95.4812 30.6243 95.4812 32.0256C95.4812 33.4014 93.8507 34.2421 91.3029 34.2421C88.7552 34.2421 87.1246 33.4014 87.1246 32.0256C87.1246 30.6243 88.7552 29.7836 91.3029 29.7836ZM91.3029 31.0575C89.7106 31.0575 88.8061 31.3887 88.8061 32.0256C88.8061 32.6498 89.7106 32.9683 91.3029 32.9683C92.8953 32.9683 93.7997 32.6498 93.7997 32.0256C93.7997 31.3887 92.8953 31.0575 91.3029 31.0575ZM87.252 22.9684H94.7169V24.3059H87.252V22.9684ZM86.0546 27.7072H96.6787V29.0575H86.0546V27.7072ZM89.9908 25.6563H91.6724V28.0511H89.9908V25.6563ZM93.736 22.9684H95.4175V23.9365C95.4175 24.8665 95.4175 25.8728 95.0991 27.0957L93.4176 26.9174C93.736 25.7072 93.736 24.8537 93.736 23.9365V22.9684ZM100.346 24.3059H101.697V25.6308C101.697 28.3569 100.588 31.0192 98.3719 32.0256L97.4165 30.688C99.391 29.8091 100.346 27.6308 100.346 25.6308V24.3059ZM100.729 24.3059H102.066V25.6308C102.066 27.5416 103.009 29.5798 104.983 30.3951L104.066 31.7326C101.824 30.7645 100.729 28.2549 100.729 25.6308V24.3059ZM97.8879 23.5798H104.499V24.9684H97.8879V23.5798ZM105.595 22.4461H107.302V34.2421H105.595V22.4461ZM110.333 25.376H118.473V26.7263H110.333V25.376ZM110.333 22.6372H112.014V25.9875H110.333V22.6372ZM108.995 27.7327H119.67V29.083H108.995V27.7327ZM114.294 29.8345C116.842 29.8345 118.383 30.6243 118.383 32.0256C118.383 33.4141 116.842 34.2167 114.294 34.2167C111.747 34.2167 110.192 33.4141 110.192 32.0256C110.192 30.6243 111.747 29.8345 114.294 29.8345ZM114.294 31.1339C112.715 31.1339 111.912 31.4141 111.912 32.0256C111.912 32.6243 112.715 32.9173 114.294 32.9173C115.874 32.9173 116.676 32.6243 116.676 32.0256C116.676 31.4141 115.874 31.1339 114.294 31.1339Z" fill="black"/>
<path d="M74.9856 77.352H80.6161V85.25H74.9856V77.352ZM78.9474 78.6895H76.6544V83.9251H78.9474V78.6895ZM82.769 76.3074H84.4505V88.1416H82.769V76.3074ZM80.2977 80.3838H83.4569V81.7468H80.2977V80.3838ZM94.1309 76.3329H95.8379V84.9315H94.1309V76.3329ZM87.9781 86.562H96.1309V87.9123H87.9781V86.562ZM87.9781 84.1035H89.6724V87.2627H87.9781V84.1035ZM88.7934 76.9698H90.1947V78.1163C90.1947 80.422 89.1374 82.5493 86.8444 83.3519L85.9909 82.0016C87.9654 81.3264 88.7934 79.6831 88.7934 78.1163V76.9698ZM89.1374 76.9698H90.5259V78.1163C90.5259 79.6577 91.3284 81.1736 93.2647 81.7978L92.3985 83.1481C90.1692 82.3965 89.1374 80.3965 89.1374 78.1163V76.9698ZM105.684 76.3074H107.378V88.1416H105.684V76.3074ZM103.837 80.5621H106.028V81.9252H103.837V80.5621ZM97.9133 84.0143H98.8815C100.792 84.0143 102.308 83.9761 104.015 83.6831L104.168 85.0589C102.423 85.3519 100.843 85.4156 98.8815 85.4156H97.9133V84.0143ZM97.8879 77.3137H103.2V81.7468H99.5948V84.4347H97.9133V80.4092H101.531V78.664H97.8879V77.3137ZM117.059 76.3201H118.753V83.1481H117.059V76.3201ZM109.657 77.059H111.339V81.9379H109.657V77.059ZM109.657 81.1099H110.677C112.473 81.1099 114.269 80.9952 116.141 80.6131L116.333 81.9761C114.396 82.3837 112.536 82.4984 110.677 82.4984H109.657V81.1099ZM114.766 83.3137C117.237 83.3137 118.804 84.2181 118.804 85.7213C118.804 87.2245 117.237 88.1162 114.766 88.1162C112.294 88.1162 110.727 87.2245 110.727 85.7213C110.727 84.2181 112.294 83.3137 114.766 83.3137ZM114.766 84.664C113.237 84.664 112.422 84.9952 112.422 85.7213C112.422 86.4347 113.237 86.7786 114.766 86.7786C116.294 86.7786 117.11 86.4347 117.11 85.7213C117.11 84.9952 116.294 84.664 114.766 84.664Z" fill="black"/>
<path d="M81.0548 146.294H82.0866C84.6726 146.294 86.0611 146.243 87.5897 145.937L87.7553 147.275C86.1885 147.606 84.749 147.67 82.0866 147.67H81.0548V146.294ZM81.0548 142.32H86.6471V143.657H82.7363V147.186H81.0548V142.32ZM88.4942 141.606H90.2012V147.988H88.4942V141.606ZM82.3541 148.511H84.0229V149.593H88.5197V148.511H90.2012V153.275H82.3541V148.511ZM84.0229 150.906V151.925H88.5197V150.906H84.0229ZM100.047 141.594H101.741V153.428H100.047V141.594ZM98.2001 145.848H100.391V147.211H98.2001V145.848ZM92.2766 149.3H93.2447C95.1555 149.3 96.6714 149.262 98.3784 148.969L98.5313 150.345C96.7861 150.638 95.2065 150.702 93.2447 150.702H92.2766V149.3ZM92.2511 142.6H97.5632V147.033H93.9581V149.721H92.2766V145.695H95.8944V143.95H92.2511V142.6ZM111.422 141.606H113.116V148.434H111.422V141.606ZM104.021 142.345H105.702V147.224H104.021V142.345ZM104.021 146.396H105.04C106.836 146.396 108.632 146.281 110.505 145.899L110.696 147.262C108.759 147.67 106.9 147.785 105.04 147.785H104.021V146.396ZM109.129 148.6C111.6 148.6 113.167 149.504 113.167 151.007C113.167 152.511 111.6 153.402 109.129 153.402C106.658 153.402 105.091 152.511 105.091 151.007C105.091 149.504 106.658 148.6 109.129 148.6ZM109.129 149.95C107.6 149.95 106.785 150.281 106.785 151.007C106.785 151.721 107.6 152.065 109.129 152.065C110.658 152.065 111.473 151.721 111.473 151.007C111.473 150.281 110.658 149.95 109.129 149.95Z" fill="black"/>
<path d="M218.893 50.4945C219.078 49.9384 218.777 49.3372 218.221 49.1518L209.157 46.1305C208.601 45.9451 208 46.2457 207.815 46.8019C207.629 47.3581 207.93 47.9593 208.486 48.1447L216.543 50.8302L213.857 58.8869C213.672 59.4431 213.972 60.0443 214.528 60.2297C215.085 60.4151 215.686 60.1145 215.871 59.5583L218.893 50.4945ZM141.928 89.3245L218.36 51.1083L217.411 49.2094L140.978 87.4255L141.928 89.3245Z" fill="#C3C3C3"/>
<path d="M218.635 148.573C219.05 148.158 219.05 147.486 218.635 147.072L211.88 140.316C211.465 139.901 210.793 139.901 210.378 140.316C209.964 140.73 209.964 141.403 210.378 141.817L216.383 147.822L210.378 153.827C209.964 154.242 209.964 154.914 210.378 155.329C210.793 155.743 211.465 155.743 211.88 155.329L218.635 148.573ZM125.264 148.884H217.885V146.761H125.264V148.884Z" fill="#929090"/>
<rect x="220.273" width="178.607" height="88.3748" rx="5.3078" fill="#D9D9D9"/>
<rect x="276.801" y="24.1504" width="65.5513" height="40.0739" rx="5.3078" fill="#5161F1"/>
<path d="M295.705 49.2626C294.252 49.2626 293.39 48.3398 293.39 47.1599C293.39 45.1329 295.402 44.3463 297.822 44.2706L299.214 44.2252L299.32 43.7412C299.35 43.5748 299.381 43.4084 299.381 43.0604C299.381 42.4251 298.912 41.941 297.868 41.941C297.354 41.941 296.431 42.0015 295.281 42.5612L294.994 41.6234C295.856 41.109 296.99 40.867 297.944 40.867C299.88 40.867 300.666 41.8503 300.666 43.0604C300.666 43.4991 300.621 43.8168 300.545 44.1496L299.471 49.1113H298.503L298.488 47.9617H298.428C297.535 48.8542 296.794 49.2626 295.705 49.2626ZM295.962 48.1886C297.338 48.1886 298.624 46.933 298.897 45.6472L299.002 45.148L297.792 45.1934C296.098 45.2539 294.767 45.7077 294.767 47.054C294.767 47.7196 295.266 48.1886 295.962 48.1886ZM301.035 49.1113L304.544 44.9362L302.79 41.0031H304.136L305.392 43.9983L307.767 41.0031H309.309L305.936 44.9967L307.797 49.1113H306.45L305.074 45.9649L302.578 49.1113H301.035ZM316.466 43.217V44.8199H309.094V43.217H316.466ZM313.644 40.2034V48.0329H311.923V40.2034H313.644ZM320.794 49.2626C319.705 49.2626 319.039 48.6121 318.722 47.8709H318.646L318.147 49.1113H317.148L319.584 37.6146H320.915L320.34 40.3375C320.113 41.3813 319.811 42.4705 319.78 42.5159H319.841C320.567 41.6234 321.384 40.867 322.519 40.867C323.85 40.867 324.742 41.8049 324.742 43.6201C324.742 46.57 323.245 49.2626 320.794 49.2626ZM320.688 48.1583C322.307 48.1583 323.381 45.8741 323.381 43.605C323.381 42.5159 322.942 41.9713 322.095 41.9713C320.749 41.9713 319.145 44.1345 319.145 46.5246C319.145 47.4927 319.629 48.1583 320.688 48.1583Z" fill="white"/>
<path d="M242.566 47.1113L245.645 43.4489L244.106 39.9989H245.287L246.388 42.6262L248.471 39.9989H249.825L246.866 43.502L248.498 47.1113H247.317L246.109 44.3513L243.92 47.1113H242.566Z" fill="#7F7F7F"/>
<path d="M372.197 48.4386C371.772 48.4386 371.533 48.3855 371.281 48.3059V47.3638C371.52 47.4301 371.812 47.4832 372.13 47.4832C372.847 47.4832 373.298 47.032 373.776 46.1828L374.24 45.3601L373.165 38.1415H374.333L374.797 41.6579C374.917 42.5204 374.97 43.7412 374.97 44.2985H375.01C375.182 43.8739 375.74 42.6265 376.045 42.0427L378.115 38.1415H379.362L374.851 46.4482C374.134 47.7751 373.444 48.4386 372.197 48.4386Z" fill="#7F7F7F"/>
<path d="M277.27 44.5238C277.53 44.2647 277.53 43.8446 277.27 43.5855L273.048 39.3632C272.789 39.1041 272.369 39.1041 272.11 39.3632C271.851 39.6223 271.851 40.0424 272.11 40.3015L275.863 44.0547L272.11 47.8079C271.851 48.067 271.851 48.4871 272.11 48.7462C272.369 49.0053 272.789 49.0053 273.048 48.7462L277.27 44.5238ZM253.182 44.7182H276.801V43.3912H253.182V44.7182Z" fill="#8D8D8D"/>
<path d="M260.364 129.26C260.52 129.105 260.52 128.852 260.364 128.697L257.831 126.164C257.675 126.008 257.423 126.008 257.268 126.164C257.112 126.319 257.112 126.571 257.268 126.727L259.52 128.979L257.268 131.23C257.112 131.386 257.112 131.638 257.268 131.793C257.423 131.949 257.675 131.949 257.831 131.793L260.364 129.26ZM245.486 129.377H260.083V128.58H245.486V129.377Z" fill="#8D8D8D"/>
<path d="M260.364 167.477C260.52 167.321 260.52 167.069 260.364 166.914L257.831 164.38C257.675 164.225 257.423 164.225 257.268 164.38C257.112 164.536 257.112 164.788 257.268 164.943L259.52 167.195L257.268 169.447C257.112 169.603 257.112 169.855 257.268 170.01C257.423 170.166 257.675 170.166 257.831 170.01L260.364 167.477ZM245.486 167.593H260.083V166.797H245.486V167.593Z" fill="#8D8D8D"/>
<path d="M366.442 44.5238C366.701 44.2647 366.701 43.8446 366.442 43.5855L362.22 39.3632C361.961 39.1041 361.541 39.1041 361.282 39.3632C361.023 39.6223 361.023 40.0424 361.282 40.3015L365.035 44.0547L361.282 47.8079C361.023 48.067 361.023 48.4871 361.282 48.7462C361.541 49.0053 361.961 49.0053 362.22 48.7462L366.442 44.5238ZM342.354 44.7182H365.973V43.3912H342.354V44.7182Z" fill="#8D8D8D"/>
<path d="M376.577 132.903C376.396 132.903 376.231 132.888 376.082 132.858C375.934 132.831 375.823 132.801 375.75 132.769L376.042 131.776C376.263 131.835 376.46 131.861 376.633 131.853C376.806 131.845 376.959 131.78 377.091 131.658C377.226 131.537 377.345 131.338 377.448 131.063L377.598 130.649L375.32 124.344H376.617L378.193 129.174H378.258L379.835 124.344H381.136L378.57 131.399C378.452 131.723 378.3 131.998 378.116 132.222C377.933 132.449 377.714 132.619 377.46 132.732C377.206 132.846 376.912 132.903 376.577 132.903ZM385.19 122.269V130.568H383.934V123.525H383.885L381.899 124.822V123.622L383.97 122.269H385.19Z" fill="#7F7F7F"/>
<path d="M370.687 128.653C370.946 128.394 370.946 127.974 370.687 127.714L366.465 123.492C366.206 123.233 365.786 123.233 365.527 123.492C365.268 123.751 365.268 124.171 365.527 124.43L369.28 128.184L365.527 131.937C365.268 132.196 365.268 132.616 365.527 132.875C365.786 133.134 366.206 133.134 366.465 132.875L370.687 128.653ZM354.029 128.847H370.218V127.52H354.029V128.847Z" fill="#8D8D8D"/>
<path d="M376.577 172.71C376.396 172.71 376.231 172.695 376.082 172.666C375.934 172.639 375.823 172.609 375.75 172.576L376.042 171.584C376.263 171.643 376.46 171.669 376.633 171.661C376.806 171.653 376.959 171.588 377.091 171.466C377.226 171.345 377.345 171.146 377.448 170.87L377.598 170.457L375.32 164.151H376.617L378.193 168.982H378.258L379.835 164.151H381.136L378.57 171.207C378.452 171.531 378.3 171.805 378.116 172.029C377.933 172.256 377.714 172.427 377.46 172.54C377.206 172.653 376.912 172.71 376.577 172.71ZM382.041 170.376V169.468L384.85 166.559C385.15 166.242 385.397 165.966 385.591 165.728C385.788 165.487 385.936 165.259 386.033 165.043C386.13 164.827 386.179 164.597 386.179 164.354C386.179 164.078 386.114 163.841 385.984 163.641C385.855 163.438 385.678 163.283 385.453 163.175C385.229 163.064 384.977 163.009 384.696 163.009C384.398 163.009 384.139 163.069 383.918 163.191C383.696 163.313 383.526 163.484 383.407 163.706C383.288 163.927 383.229 164.186 383.229 164.484H382.033C382.033 163.978 382.149 163.537 382.382 163.159C382.614 162.78 382.933 162.487 383.338 162.279C383.743 162.068 384.204 161.963 384.72 161.963C385.241 161.963 385.701 162.067 386.098 162.275C386.498 162.48 386.81 162.761 387.034 163.118C387.258 163.472 387.37 163.872 387.37 164.318C387.37 164.626 387.312 164.927 387.196 165.221C387.083 165.516 386.884 165.844 386.6 166.206C386.317 166.565 385.922 167.002 385.417 167.515L383.768 169.241V169.302H387.504V170.376H382.041Z" fill="#7F7F7F"/>
<path d="M232.662 128.06L234.035 130.483L235.421 128.06H236.746L234.805 131.172L236.763 134.284H235.438L234.035 131.958L232.637 134.284H231.308L233.245 131.172L231.332 128.06H232.662ZM240.906 125.985V134.284H239.65V127.241H239.601L237.616 128.538V127.338L239.687 125.985H240.906Z" fill="#7F7F7F"/>
<path d="M232.662 165.746L234.035 168.169L235.421 165.746H236.746L234.805 168.858L236.763 171.971H235.438L234.035 169.645L232.637 171.971H231.308L233.245 168.858L231.332 165.746H232.662ZM237.758 171.971V171.063L240.566 168.153C240.866 167.837 241.113 167.56 241.307 167.323C241.505 167.082 241.652 166.854 241.749 166.638C241.846 166.422 241.895 166.192 241.895 165.949C241.895 165.673 241.83 165.435 241.701 165.235C241.571 165.033 241.394 164.878 241.17 164.769C240.945 164.659 240.693 164.603 240.412 164.603C240.115 164.603 239.855 164.664 239.634 164.786C239.412 164.907 239.242 165.079 239.123 165.3C239.004 165.522 238.945 165.781 238.945 166.078H237.749C237.749 165.573 237.866 165.131 238.098 164.753C238.33 164.375 238.649 164.082 239.054 163.874C239.46 163.663 239.92 163.558 240.436 163.558C240.958 163.558 241.417 163.662 241.814 163.87C242.214 164.075 242.526 164.356 242.75 164.713C242.974 165.067 243.087 165.466 243.087 165.912C243.087 166.22 243.028 166.521 242.912 166.816C242.799 167.11 242.6 167.439 242.317 167.801C242.033 168.16 241.638 168.596 241.133 169.11L239.484 170.836V170.897H243.22V171.971H237.758Z" fill="#7F7F7F"/>
<path d="M370.687 167.929C370.946 167.67 370.946 167.25 370.687 166.991L366.465 162.768C366.206 162.509 365.786 162.509 365.527 162.768C365.268 163.028 365.268 163.448 365.527 163.707L369.28 167.46L365.527 171.213C365.268 171.472 365.268 171.892 365.527 172.151C365.786 172.411 366.206 172.411 366.465 172.151L370.687 167.929ZM354.029 168.123H370.218V166.796H354.029V168.123Z" fill="#8D8D8D"/>
<path d="M297.768 167.46L316.345 127.651" stroke="#6D6D6D" stroke-width="1.32695" stroke-linecap="round"/>
<path d="M297.768 127.653L316.345 167.462" stroke="#6D6D6D" stroke-width="1.32695" stroke-linecap="round"/>
<rect x="260.082" y="116.241" width="37.6854" height="23.0889" rx="5.3078" fill="#5161F1"/>
<rect x="316.344" y="116.241" width="37.6854" height="23.0889" rx="5.3078" fill="#5161F1"/>
<rect x="260.082" y="154.989" width="37.6854" height="23.0889" rx="5.3078" fill="#5161F1"/>
<rect x="316.344" y="154.989" width="37.6854" height="23.0889" rx="5.3078" fill="#5161F1"/>
<path d="M270.726 130.366C269.936 130.366 269.467 129.865 269.467 129.223C269.467 128.12 270.562 127.693 271.878 127.652L272.635 127.627L272.692 127.364C272.709 127.273 272.725 127.183 272.725 126.993C272.725 126.648 272.47 126.385 271.903 126.385C271.623 126.385 271.121 126.417 270.496 126.722L270.34 126.212C270.808 125.932 271.426 125.8 271.944 125.8C272.997 125.8 273.425 126.335 273.425 126.993C273.425 127.232 273.4 127.405 273.359 127.586L272.775 130.284H272.248L272.24 129.659H272.207C271.722 130.144 271.319 130.366 270.726 130.366ZM270.866 129.782C271.615 129.782 272.314 129.099 272.462 128.4L272.52 128.129L271.862 128.153C270.94 128.186 270.216 128.433 270.216 129.165C270.216 129.527 270.488 129.782 270.866 129.782ZM273.625 130.284L275.534 128.014L274.579 125.874H275.312L275.994 127.503L277.286 125.874H278.125L276.291 128.046L277.303 130.284H276.57L275.822 128.573L274.464 130.284H273.625ZM281.997 127.05V127.994H277.988V127.05H281.997ZM280.503 125.44V129.698H279.486V125.44H280.503ZM284.323 130.366C283.731 130.366 283.369 130.013 283.196 129.61H283.155L282.883 130.284H282.34L283.665 124.032H284.389L284.076 125.512C283.953 126.08 283.788 126.672 283.772 126.697H283.805C284.2 126.212 284.644 125.8 285.261 125.8C285.985 125.8 286.47 126.31 286.47 127.298C286.47 128.902 285.656 130.366 284.323 130.366ZM284.265 129.766C285.146 129.766 285.73 128.524 285.73 127.29C285.73 126.697 285.491 126.401 285.031 126.401C284.298 126.401 283.426 127.577 283.426 128.877C283.426 129.404 283.69 129.766 284.265 129.766Z" fill="white"/>
<path d="M270.726 169.113C269.936 169.113 269.467 168.611 269.467 167.969C269.467 166.867 270.562 166.439 271.878 166.398L272.635 166.373L272.692 166.11C272.709 166.019 272.725 165.929 272.725 165.739C272.725 165.394 272.47 165.131 271.903 165.131C271.623 165.131 271.121 165.164 270.496 165.468L270.34 164.958C270.808 164.678 271.426 164.547 271.944 164.547C272.997 164.547 273.425 165.081 273.425 165.739C273.425 165.978 273.4 166.151 273.359 166.332L272.775 169.03H272.248L272.24 168.405H272.207C271.722 168.89 271.319 169.113 270.726 169.113ZM270.866 168.528C271.615 168.528 272.314 167.846 272.462 167.146L272.52 166.875L271.862 166.899C270.94 166.932 270.216 167.179 270.216 167.911C270.216 168.273 270.488 168.528 270.866 168.528ZM273.625 169.03L275.534 166.76L274.579 164.621H275.312L275.994 166.25L277.286 164.621H278.125L276.291 166.793L277.303 169.03H276.57L275.822 167.319L274.464 169.03H273.625ZM281.997 165.796V166.741H277.988V165.796H281.997ZM280.503 164.186V168.444H279.486V164.186H280.503ZM284.323 169.113C283.731 169.113 283.369 168.759 283.196 168.356H283.155L282.883 169.03H282.34L283.665 162.778H284.389L284.076 164.259C283.953 164.826 283.788 165.419 283.772 165.443H283.805C284.2 164.958 284.644 164.547 285.261 164.547C285.985 164.547 286.47 165.057 286.47 166.044C286.47 167.648 285.656 169.113 284.323 169.113ZM284.265 168.512C285.146 168.512 285.73 167.27 285.73 166.036C285.73 165.443 285.491 165.147 285.031 165.147C284.298 165.147 283.426 166.324 283.426 167.623C283.426 168.15 283.69 168.512 284.265 168.512Z" fill="white"/>
<path d="M327.785 130.366C326.995 130.366 326.526 129.865 326.526 129.223C326.526 128.12 327.62 127.693 328.937 127.652L329.693 127.627L329.751 127.364C329.768 127.273 329.784 127.183 329.784 126.993C329.784 126.648 329.529 126.385 328.961 126.385C328.682 126.385 328.18 126.417 327.554 126.722L327.398 126.212C327.867 125.932 328.484 125.8 329.002 125.8C330.055 125.8 330.483 126.335 330.483 126.993C330.483 127.232 330.459 127.405 330.417 127.586L329.833 130.284H329.307L329.299 129.659H329.266C328.78 130.144 328.377 130.366 327.785 130.366ZM327.925 129.782C328.673 129.782 329.373 129.099 329.521 128.4L329.578 128.129L328.92 128.153C327.999 128.186 327.275 128.433 327.275 129.165C327.275 129.527 327.546 129.782 327.925 129.782ZM330.684 130.284L332.592 128.014L331.638 125.874H332.37L333.053 127.503L334.345 125.874H335.184L333.349 128.046L334.361 130.284H333.629L332.88 128.573L331.523 130.284H330.684ZM339.056 127.05V127.994H335.047V127.05H339.056ZM337.561 125.44V129.698H336.545V125.44H337.561ZM341.382 130.366C340.789 130.366 340.427 130.013 340.255 129.61H340.213L339.942 130.284H339.399L340.723 124.032H341.447L341.135 125.512C341.011 126.08 340.847 126.672 340.83 126.697H340.863C341.258 126.212 341.703 125.8 342.32 125.8C343.044 125.8 343.529 126.31 343.529 127.298C343.529 128.902 342.714 130.366 341.382 130.366ZM341.324 129.766C342.204 129.766 342.788 128.524 342.788 127.29C342.788 126.697 342.55 126.401 342.089 126.401C341.357 126.401 340.485 127.577 340.485 128.877C340.485 129.404 340.748 129.766 341.324 129.766Z" fill="white"/>
<path d="M327.785 169.113C326.995 169.113 326.526 168.611 326.526 167.969C326.526 166.867 327.62 166.439 328.937 166.398L329.693 166.373L329.751 166.11C329.768 166.019 329.784 165.929 329.784 165.739C329.784 165.394 329.529 165.131 328.961 165.131C328.682 165.131 328.18 165.164 327.554 165.468L327.398 164.958C327.867 164.678 328.484 164.547 329.002 164.547C330.055 164.547 330.483 165.081 330.483 165.739C330.483 165.978 330.459 166.151 330.417 166.332L329.833 169.03H329.307L329.299 168.405H329.266C328.78 168.89 328.377 169.113 327.785 169.113ZM327.925 168.528C328.673 168.528 329.373 167.846 329.521 167.146L329.578 166.875L328.92 166.899C327.999 166.932 327.275 167.179 327.275 167.911C327.275 168.273 327.546 168.528 327.925 168.528ZM330.684 169.03L332.592 166.76L331.638 164.621H332.37L333.053 166.25L334.345 164.621H335.184L333.349 166.793L334.361 169.03H333.629L332.88 167.319L331.523 169.03H330.684ZM339.056 165.796V166.741H335.047V165.796H339.056ZM337.561 164.186V168.444H336.545V164.186H337.561ZM341.382 169.113C340.789 169.113 340.427 168.759 340.255 168.356H340.213L339.942 169.03H339.399L340.723 162.778H341.447L341.135 164.259C341.011 164.826 340.847 165.419 340.83 165.443H340.863C341.258 164.958 341.703 164.547 342.32 164.547C343.044 164.547 343.529 165.057 343.529 166.044C343.529 167.648 342.714 169.113 341.382 169.113ZM341.324 168.512C342.204 168.512 342.788 167.27 342.788 166.036C342.788 165.443 342.55 165.147 342.089 165.147C341.357 165.147 340.485 166.324 340.485 167.623C340.485 168.15 340.748 168.512 341.324 168.512Z" fill="white"/>
</svg>
