<svg width="409" height="175" viewBox="0 0 409 175" fill="none" xmlns="http://www.w3.org/2000/svg">
<g filter="url(#filter0_d_1009_2378)">
<path d="M208.476 153.354C208.771 153.058 208.771 152.579 208.476 152.283L203.654 147.461C203.359 147.166 202.879 147.166 202.583 147.461C202.287 147.757 202.287 148.237 202.583 148.533L206.869 152.818L202.583 157.104C202.287 157.4 202.287 157.879 202.583 158.175C202.879 158.471 203.359 158.471 203.654 158.175L208.476 153.354ZM35.5156 153.576H207.94V152.061H35.5156V153.576Z" fill="black"/>
<path d="M36.0513 1.67661C35.7555 1.38075 35.2758 1.38075 34.9799 1.67661L30.1587 6.49779C29.8629 6.79364 29.8629 7.2733 30.1587 7.56915C30.4546 7.86501 30.9343 7.86501 31.2301 7.56915L35.5156 3.28366L39.8011 7.56915C40.097 7.86501 40.5766 7.86501 40.8725 7.56915C41.1683 7.2733 41.1683 6.79364 40.8725 6.49779L36.0513 1.67661ZM36.2732 152.818L36.2732 2.2123L34.758 2.2123L34.758 152.818L36.2732 152.818Z" fill="black"/>
<path d="M193.784 166.767C193.407 166.767 193.066 166.698 192.761 166.558C192.456 166.416 192.215 166.211 192.037 165.942C191.861 165.674 191.773 165.344 191.773 164.954C191.773 164.619 191.838 164.342 191.967 164.125C192.096 163.908 192.27 163.737 192.49 163.61C192.709 163.484 192.955 163.388 193.226 163.324C193.497 163.259 193.773 163.21 194.055 163.176C194.411 163.135 194.701 163.101 194.923 163.076C195.145 163.047 195.306 163.002 195.407 162.94C195.508 162.878 195.558 162.777 195.558 162.638V162.611C195.558 162.272 195.462 162.01 195.271 161.824C195.083 161.638 194.801 161.545 194.427 161.545C194.037 161.545 193.73 161.632 193.505 161.805C193.283 161.975 193.129 162.165 193.044 162.374L191.955 162.126C192.084 161.765 192.273 161.473 192.521 161.251C192.771 161.026 193.059 160.864 193.385 160.763C193.71 160.66 194.052 160.608 194.411 160.608C194.649 160.608 194.901 160.636 195.167 160.693C195.435 160.747 195.686 160.848 195.918 160.995C196.153 161.142 196.346 161.353 196.496 161.627C196.645 161.898 196.72 162.25 196.72 162.684V166.636H195.589V165.822H195.543C195.468 165.972 195.355 166.119 195.206 166.264C195.056 166.408 194.863 166.529 194.628 166.624C194.393 166.72 194.112 166.767 193.784 166.767ZM194.036 165.838C194.356 165.838 194.63 165.774 194.857 165.648C195.087 165.521 195.261 165.356 195.38 165.152C195.501 164.945 195.562 164.725 195.562 164.49V163.723C195.521 163.764 195.441 163.803 195.322 163.839C195.206 163.872 195.073 163.902 194.923 163.928C194.773 163.951 194.627 163.973 194.485 163.994C194.343 164.012 194.224 164.027 194.129 164.04C193.904 164.069 193.699 164.116 193.513 164.184C193.329 164.251 193.182 164.348 193.071 164.474C192.962 164.598 192.908 164.763 192.908 164.97C192.908 165.257 193.014 165.474 193.226 165.621C193.438 165.765 193.708 165.838 194.036 165.838Z" fill="black"/>
<path d="M82.9256 158.702V166.636H81.7247V159.903H81.6782L79.7799 161.142V159.996L81.7595 158.702H82.9256Z" fill="black"/>
<path d="M4.87164 40.8239H6.32438L8.85021 46.9913H8.94318L11.469 40.8239H12.9217V48.7578H11.7828V43.0166H11.7092L9.36932 48.7462H8.42407L6.08419 43.0127H6.01059V48.7578H4.87164V40.8239ZM18.7821 42.9081C18.7408 42.5414 18.5703 42.2573 18.2707 42.0558C17.9711 41.8518 17.5941 41.7498 17.1395 41.7498C16.8141 41.7498 16.5326 41.8015 16.295 41.9048C16.0574 42.0055 15.8727 42.145 15.741 42.3232C15.6119 42.4988 15.5473 42.6989 15.5473 42.9236C15.5473 43.1122 15.5912 43.2749 15.679 43.4117C15.7694 43.5486 15.8869 43.6635 16.0316 43.7565C16.1788 43.8469 16.3363 43.9231 16.5042 43.9851C16.6721 44.0445 16.8335 44.0936 16.9884 44.1323L17.7632 44.3337C18.0163 44.3957 18.2759 44.4797 18.5419 44.5855C18.8079 44.6914 19.0545 44.8309 19.2818 45.0039C19.5091 45.177 19.6925 45.3913 19.8319 45.647C19.974 45.9027 20.045 46.2087 20.045 46.5651C20.045 47.0145 19.9288 47.4135 19.6963 47.7622C19.4665 48.1109 19.132 48.3859 18.693 48.5874C18.2565 48.7888 17.7284 48.8895 17.1085 48.8895C16.5145 48.8895 16.0006 48.7953 15.5667 48.6067C15.1328 48.4182 14.7932 48.1509 14.5478 47.8048C14.3025 47.4562 14.1669 47.0429 14.1411 46.5651H15.342C15.3652 46.8518 15.4582 47.0907 15.6209 47.2818C15.7862 47.4704 15.9967 47.6111 16.2524 47.7041C16.5106 47.7945 16.7934 47.8397 17.1008 47.8397C17.4391 47.8397 17.74 47.7867 18.0034 47.6808C18.2694 47.5724 18.4786 47.4226 18.631 47.2315C18.7834 47.0378 18.8596 46.8118 18.8596 46.5535C18.8596 46.3185 18.7924 46.1261 18.6581 45.9763C18.5264 45.8265 18.3469 45.7025 18.1196 45.6044C17.8949 45.5063 17.6405 45.4197 17.3565 45.3448L16.419 45.0892C15.7836 44.9161 15.28 44.6617 14.9081 44.326C14.5388 43.9903 14.3541 43.546 14.3541 42.9933C14.3541 42.5362 14.4781 42.1372 14.726 41.7963C14.974 41.4554 15.3097 41.1907 15.7333 41.0021C16.1568 40.811 16.6346 40.7155 17.1666 40.7155C17.7038 40.7155 18.1777 40.8097 18.5884 40.9983C19.0016 41.1868 19.327 41.4463 19.5646 41.7769C19.8022 42.1049 19.9262 42.482 19.9365 42.9081H18.7821ZM21.2682 48.7578V40.8239H26.2424V41.8544H22.4652V44.2718H25.9828V45.2984H22.4652V47.7273H26.2888V48.7578H21.2682Z" fill="black"/>
<line x1="81.4244" y1="152.818" x2="81.4244" y2="7.66685" stroke="black" stroke-width="0.909091"/>
<mask id="mask0_1009_2378" style="mask-type:luminance" maskUnits="userSpaceOnUse" x="59" y="2" width="136" height="135">
<path d="M194.427 2.21582H59.1543V136.616H194.427V2.21582Z" fill="white"/>
</mask>
<g mask="url(#mask0_1009_2378)">
<path d="M65.3008 8.32324L67.7652 17.9211L70.2296 27.1265L72.4476 35.0757L74.6656 42.7069L76.8836 50.0201L79.1016 57.0154L81.3196 63.6927L83.2911 69.3612L85.2627 74.7784L87.2342 79.9444L89.2058 84.8591L91.1773 89.5226L93.1489 93.9349L94.874 97.5896L96.5991 101.052L98.3242 104.322L100.049 107.399L101.774 110.285L103.499 112.978L104.978 115.133L106.457 117.147L107.935 119.019L109.414 120.75L110.893 122.34L112.371 123.789L113.85 125.096L115.082 126.077L116.315 126.96L117.547 127.745L118.779 128.432L120.011 129.021L121.243 129.512L122.476 129.904L123.708 130.199L124.94 130.395L126.172 130.493H127.404L128.637 130.395L129.869 130.199L131.101 129.904L132.333 129.512L133.566 129.021L134.798 128.432L136.03 127.745L137.262 126.96L138.494 126.077L139.727 125.096L140.959 124.016L142.438 122.591L143.916 121.025L145.395 119.317L146.874 117.468L148.352 115.478L149.831 113.347L151.309 111.074L153.035 108.243L154.76 105.221L156.485 102.006L158.21 98.5984L159.935 94.9987L161.66 91.2067L163.632 86.6374L165.603 81.8168L167.575 76.7451L169.546 71.4221L171.518 65.8478L173.489 60.0223L175.707 53.1684L177.925 45.9965L180.143 38.5066L182.361 30.6987L184.579 22.5729L186.797 14.1291L188.276 8.32324" stroke="#FFAF00" stroke-width="1.51515" stroke-linecap="square"/>
</g>
<path d="M404.534 152.142C404.83 151.846 404.83 151.367 404.534 151.071L399.713 146.25C399.417 145.954 398.937 145.954 398.642 146.25C398.346 146.545 398.346 147.025 398.642 147.321L402.927 151.606L398.642 155.892C398.346 156.188 398.346 156.667 398.642 156.963C398.937 157.259 399.417 157.259 399.713 156.963L404.534 152.142ZM231.574 152.364H403.998V150.849H231.574V152.364Z" fill="black"/>
<path d="M304.838 0.464691C304.543 0.168838 304.063 0.168839 303.767 0.464691L298.946 5.28587C298.65 5.58173 298.65 6.06139 298.946 6.35724C299.242 6.65309 299.721 6.65309 300.017 6.35724L304.303 2.07175L308.588 6.35724C308.884 6.65309 309.364 6.65309 309.66 6.35724C309.955 6.06139 309.955 5.58173 309.66 5.28587L304.838 0.464691ZM305.06 151.606L305.06 1.00038L303.545 1.00038L303.545 151.606L305.06 151.606Z" fill="black"/>
<path d="M387.598 164.515V156.581H388.757V159.529H388.826C388.893 159.405 388.99 159.262 389.117 159.099C389.243 158.936 389.419 158.794 389.644 158.673C389.868 158.549 390.165 158.487 390.535 158.487C391.015 158.487 391.444 158.608 391.821 158.851C392.198 159.094 392.494 159.444 392.708 159.901C392.925 160.358 393.033 160.908 393.033 161.551C393.033 162.194 392.926 162.746 392.712 163.205C392.497 163.662 392.203 164.015 391.829 164.263C391.454 164.508 391.027 164.631 390.546 164.631C390.185 164.631 389.889 164.57 389.659 164.449C389.432 164.327 389.254 164.185 389.125 164.023C388.995 163.86 388.896 163.715 388.826 163.589H388.729V164.515H387.598ZM388.733 161.539C388.733 161.958 388.794 162.325 388.915 162.64C389.037 162.955 389.212 163.201 389.442 163.38C389.672 163.555 389.954 163.643 390.287 163.643C390.633 163.643 390.922 163.551 391.155 163.368C391.387 163.182 391.563 162.93 391.681 162.613C391.803 162.295 391.863 161.937 391.863 161.539C391.863 161.147 391.804 160.794 391.685 160.482C391.569 160.169 391.393 159.923 391.158 159.742C390.926 159.561 390.635 159.471 390.287 159.471C389.951 159.471 389.667 159.557 389.434 159.73C389.205 159.903 389.03 160.145 388.911 160.455C388.793 160.765 388.733 161.126 388.733 161.539Z" fill="black"/>
<path d="M345.955 158.398V166.332H344.754V159.599H344.707L342.809 160.839V159.692L344.789 158.398H345.955Z" fill="black"/>
<path d="M273.659 36.5817H275.111L277.637 42.7491H277.73L280.256 36.5817H281.709V44.5156H280.57V38.7744H280.496L278.156 44.504H277.211L274.871 38.7705H274.798V44.5156H273.659V36.5817ZM287.569 38.6659C287.528 38.2992 287.357 38.0151 287.058 37.8137C286.758 37.6096 286.381 37.5076 285.927 37.5076C285.601 37.5076 285.32 37.5593 285.082 37.6626C284.844 37.7633 284.66 37.9028 284.528 38.081C284.399 38.2566 284.334 38.4567 284.334 38.6814C284.334 38.87 284.378 39.0327 284.466 39.1695C284.557 39.3064 284.674 39.4214 284.819 39.5143C284.966 39.6047 285.123 39.6809 285.291 39.7429C285.459 39.8023 285.621 39.8514 285.776 39.8901L286.55 40.0916C286.803 40.1535 287.063 40.2375 287.329 40.3434C287.595 40.4493 287.842 40.5887 288.069 40.7618C288.296 40.9348 288.48 41.1491 288.619 41.4048C288.761 41.6605 288.832 41.9666 288.832 42.323C288.832 42.7723 288.716 43.1714 288.483 43.52C288.254 43.8687 287.919 44.1437 287.48 44.3452C287.044 44.5466 286.515 44.6473 285.896 44.6473C285.302 44.6473 284.788 44.5531 284.354 44.3645C283.92 44.176 283.58 43.9087 283.335 43.5626C283.09 43.214 282.954 42.8007 282.928 42.323H284.129C284.152 42.6096 284.245 42.8485 284.408 43.0396C284.573 43.2282 284.784 43.3689 285.039 43.4619C285.298 43.5523 285.581 43.5975 285.888 43.5975C286.226 43.5975 286.527 43.5446 286.791 43.4387C287.057 43.3302 287.266 43.1804 287.418 42.9893C287.57 42.7956 287.647 42.5696 287.647 42.3113C287.647 42.0763 287.58 41.8839 287.445 41.7341C287.314 41.5843 287.134 41.4604 286.907 41.3622C286.682 41.2641 286.428 41.1776 286.144 41.1027L285.206 40.847C284.571 40.6739 284.067 40.4196 283.695 40.0838C283.326 39.7481 283.141 39.3038 283.141 38.7512C283.141 38.294 283.265 37.895 283.513 37.5541C283.761 37.2132 284.097 36.9485 284.52 36.7599C284.944 36.5688 285.422 36.4733 285.954 36.4733C286.491 36.4733 286.965 36.5675 287.375 36.7561C287.789 36.9446 288.114 37.2042 288.352 37.5347C288.589 37.8627 288.713 38.2398 288.724 38.6659H287.569ZM290.055 44.5156V36.5817H295.029V37.6122H291.252V40.0296H294.77V41.0562H291.252V43.4851H295.076V44.5156H290.055Z" fill="black"/>
<line x1="344.456" y1="151.606" x2="344.456" y2="6.45494" stroke="black" stroke-width="0.909091"/>
<mask id="mask1_1009_2378" style="mask-type:luminance" maskUnits="userSpaceOnUse" x="236" y="2" width="137" height="135">
<path d="M237.486 135.858V2.9734H371.244V135.858H237.486Z" fill="white" stroke="white" stroke-width="1.51515"/>
</mask>
<g mask="url(#mask1_1009_2378)">
<path d="M242.877 8.32324L245.341 17.9211L247.806 27.1265L250.024 35.0757L252.242 42.7069L254.46 50.0201L256.678 57.0154L258.896 63.6927L260.867 69.3612L262.839 74.7784L264.81 79.9444L266.782 84.8591L268.753 89.5226L270.725 93.9349L272.45 97.5896L274.175 101.052L275.9 104.322L277.625 107.399L279.351 110.285L281.076 112.978L282.554 115.133L284.033 117.147L285.512 119.019L286.99 120.75L288.469 122.34L289.948 123.789L291.426 125.096L292.658 126.077L293.891 126.96L295.123 127.745L296.355 128.432L297.587 129.021L298.82 129.512L300.052 129.904L301.284 130.199L302.516 130.395L303.748 130.493H304.981L306.213 130.395L307.445 130.199L308.677 129.904L309.91 129.512L311.142 129.021L312.374 128.432L313.606 127.745L314.838 126.96L316.071 126.077L317.303 125.096L318.535 124.016L320.014 122.591L321.492 121.025L322.971 119.317L324.45 117.468L325.928 115.478L327.407 113.347L328.886 111.074L330.611 108.243L332.336 105.221L334.061 102.006L335.786 98.5984L337.511 94.9987L339.236 91.2067L341.208 86.6374L343.179 81.8168L345.151 76.7451L347.122 71.4221L349.094 65.8478L351.066 60.0223L353.284 53.1684L355.502 45.9965L357.72 38.5066L359.938 30.6987L362.156 22.5729L364.374 14.1291L365.852 8.32324" stroke="#FF0000" stroke-width="1.51515" stroke-linecap="square"/>
</g>
</g>
<defs>
<filter id="filter0_d_1009_2378" x="0" y="0.243164" width="408.756" height="178.757" filterUnits="userSpaceOnUse" color-interpolation-filters="sRGB">
<feFlood flood-opacity="0" result="BackgroundImageFix"/>
<feColorMatrix in="SourceAlpha" type="matrix" values="0 0 0 0 0 0 0 0 0 0 0 0 0 0 0 0 0 0 127 0" result="hardAlpha"/>
<feOffset dy="4"/>
<feGaussianBlur stdDeviation="2"/>
<feComposite in2="hardAlpha" operator="out"/>
<feColorMatrix type="matrix" values="0 0 0 0 0 0 0 0 0 0 0 0 0 0 0 0 0 0 0.25 0"/>
<feBlend mode="normal" in2="BackgroundImageFix" result="effect1_dropShadow_1009_2378"/>
<feBlend mode="normal" in="SourceGraphic" in2="effect1_dropShadow_1009_2378" result="shape"/>
</filter>
</defs>
</svg>
