<svg width="337" height="198" viewBox="0 0 337 198" fill="none" xmlns="http://www.w3.org/2000/svg">
<rect x="299" y="44" width="38" height="100" rx="5" fill="#F0F0F0"/>
<rect x="233" y="44" width="38" height="100" rx="5" fill="#F0F0F0"/>
<rect x="83" width="38" height="181" rx="5" fill="#F0F0F0"/>
<rect x="160" width="38" height="181" rx="5" fill="#F0F0F0"/>
<rect y="44" width="38" height="100" rx="5" fill="#F0F0F0"/>
<line x1="18.3756" y1="69.6361" x2="101.376" y2="31.6361" stroke="#808080" stroke-width="3"/>
<line x1="251.279" y1="70.3155" x2="178.279" y2="30.3155" stroke="#808080" stroke-width="3"/>
<line x1="252.415" y1="70.4415" x2="179.415" y2="91.4415" stroke="#808080" stroke-width="3"/>
<line x1="253.12" y1="69.9974" x2="180.12" y2="151.997" stroke="#808080" stroke-width="3"/>
<line x1="252.586" y1="121.381" x2="179.586" y2="152.381" stroke="#808080" stroke-width="3"/>
<line x1="251.43" y1="121.387" x2="178.43" y2="91.3874" stroke="#808080" stroke-width="3"/>
<path d="M264.293 120.293C263.902 120.683 263.902 121.317 264.293 121.707L270.657 128.071C271.047 128.462 271.681 128.462 272.071 128.071C272.462 127.681 272.462 127.047 272.071 126.657L266.414 121L272.071 115.343C272.462 114.953 272.462 114.319 272.071 113.929C271.681 113.538 271.047 113.538 270.657 113.929L264.293 120.293ZM304.707 121.707C305.098 121.317 305.098 120.683 304.707 120.293L298.343 113.929C297.953 113.538 297.319 113.538 296.929 113.929C296.538 114.319 296.538 114.953 296.929 115.343L302.586 121L296.929 126.657C296.538 127.047 296.538 127.681 296.929 128.071C297.319 128.462 297.953 128.462 298.343 128.071L304.707 121.707ZM265 122H304V120H265V122Z" fill="#808080"/>
<path d="M271.775 165.974C272.313 166.099 272.85 165.763 272.974 165.225L274.998 156.455C275.122 155.917 274.787 155.38 274.249 155.256C273.71 155.132 273.174 155.467 273.049 156.006L271.25 163.801L263.455 162.002C262.917 161.878 262.38 162.213 262.256 162.751C262.132 163.29 262.467 163.826 263.006 163.951L271.775 165.974ZM251.152 133.53L271.152 165.53L272.848 164.47L252.848 132.47L251.152 133.53Z" fill="#808080"/>
<path d="M294.028 165.233C294.156 165.77 294.696 166.101 295.233 165.972L303.985 163.872C304.522 163.743 304.853 163.203 304.724 162.666C304.595 162.129 304.055 161.798 303.518 161.927L295.739 163.794L293.872 156.015C293.743 155.478 293.203 155.147 292.666 155.276C292.129 155.405 291.798 155.945 291.927 156.482L294.028 165.233ZM313.147 133.477L294.147 164.477L295.853 165.523L314.853 134.523L313.147 133.477Z" fill="#808080"/>
<path d="M265.293 68.2929C264.902 68.6834 264.902 69.3166 265.293 69.7071L271.657 76.0711C272.047 76.4616 272.681 76.4616 273.071 76.0711C273.462 75.6805 273.462 75.0474 273.071 74.6569L267.414 69L273.071 63.3431C273.462 62.9526 273.462 62.3195 273.071 61.9289C272.681 61.5384 272.047 61.5384 271.657 61.9289L265.293 68.2929ZM304.707 69.7071C305.098 69.3166 305.098 68.6834 304.707 68.2929L298.343 61.9289C297.953 61.5384 297.319 61.5384 296.929 61.9289C296.538 62.3195 296.538 62.9526 296.929 63.3431L302.586 69L296.929 74.6569C296.538 75.0474 296.538 75.6805 296.929 76.0711C297.319 76.4616 297.953 76.4616 298.343 76.0711L304.707 69.7071ZM266 70H304V68H266V70Z" fill="#808080"/>
<line x1="250.83" y1="120.939" x2="177.83" y2="29.9386" stroke="#808080" stroke-width="3"/>
<line x1="19.3436" y1="69.5399" x2="104.344" y2="89.5399" stroke="#808080" stroke-width="3"/>
<line x1="20.041" y1="69.92" x2="103.041" y2="149.92" stroke="#808080" stroke-width="3"/>
<line x1="17.903" y1="118.977" x2="100.903" y2="29.977" stroke="#808080" stroke-width="3"/>
<line x1="18.5052" y1="118.584" x2="101.505" y2="89.5839" stroke="#808080" stroke-width="3"/>
<line x1="179" y1="30.5" x2="102" y2="30.5" stroke="#808080" stroke-width="3"/>
<line x1="178.059" y1="92.1683" x2="101.059" y2="30.1683" stroke="#808080" stroke-width="3"/>
<line x1="177.732" y1="151.801" x2="100.732" y2="29.8006" stroke="#808080" stroke-width="3"/>
<line x1="179.931" y1="30.1758" x2="102.931" y2="91.1758" stroke="#808080" stroke-width="3"/>
<line x1="178.981" y1="92.4999" x2="101.981" y2="91.4999" stroke="#808080" stroke-width="3"/>
<line x1="178.069" y1="152.176" x2="101.069" y2="91.1758" stroke="#808080" stroke-width="3"/>
<line x1="179" y1="152.5" x2="102" y2="152.5" stroke="#808080" stroke-width="3"/>
<line x1="180.268" y1="29.8006" x2="103.268" y2="151.801" stroke="#808080" stroke-width="3"/>
<line x1="179.922" y1="92.1832" x2="102.922" y2="152.183" stroke="#808080" stroke-width="3"/>
<line x1="19.5248" y1="118.595" x2="102.525" y2="149.595" stroke="#808080" stroke-width="3"/>
<circle cx="18.5" cy="68.5" r="13.5" fill="#5161F1"/>
<circle cx="101.5" cy="30.5" r="13.5" fill="#5161F1"/>
<circle cx="101.5" cy="90.5" r="13.5" fill="#5161F1"/>
<circle cx="101.5" cy="150.5" r="13.5" fill="#5161F1"/>
<circle cx="178.5" cy="30.5" r="13.5" fill="#5161F1"/>
<circle cx="178.5" cy="90.5" r="13.5" fill="#5161F1"/>
<circle cx="178.5" cy="150.5" r="13.5" fill="#5161F1"/>
<circle cx="18.5" cy="119.5" r="13.5" fill="#5161F1"/>
<circle cx="251.5" cy="68.5" r="13.5" fill="#5161F1"/>
<circle cx="251.5" cy="119.5" r="13.5" fill="#5161F1"/>
<circle cx="318.5" cy="68.5" r="13.5" fill="#5161F1"/>
<circle cx="318.5" cy="120.5" r="13.5" fill="#5161F1"/>
<circle cx="284.5" cy="180.5" r="17.5" fill="#E2E2E2"/>
<path d="M272.987 182.769H277.481V183.511H272.987V182.769ZM272.987 181.635H273.918V183.021H272.987V181.635ZM272.28 180.501H278.146V181.243H272.28V180.501ZM274.737 179.598H275.661V180.788H274.737V179.598ZM274.723 177.323H275.521V177.519C275.521 178.744 274.583 179.731 272.938 179.99L272.581 179.262C274.03 179.059 274.723 178.275 274.723 177.519V177.323ZM274.877 177.323H275.675V177.519C275.675 178.31 276.354 179.066 277.817 179.262L277.46 179.99C275.815 179.717 274.877 178.779 274.877 177.519V177.323ZM283.171 177.141H284.109V180.417H283.171V177.141ZM279.783 180.704H284.109V182.461H280.707V183.112H279.797V181.789H283.185V181.411H279.783V180.704ZM279.797 182.86H284.27V183.581H279.797V182.86ZM280.238 177.288H281.008V177.778C281.008 178.975 280.406 180.06 279.139 180.445L278.691 179.71C279.776 179.381 280.238 178.569 280.238 177.778V177.288ZM280.427 177.288H281.19V177.778C281.19 178.548 281.645 179.304 282.702 179.605L282.254 180.326C281.008 179.962 280.427 178.947 280.427 177.778V177.288ZM289.331 177.141H290.262V181.047H289.331V177.141ZM290.003 178.737H291.123V179.5H290.003V178.737ZM286.048 181.327H290.262V183.553H286.048V181.327ZM289.352 182.062H286.965V182.818H289.352V182.062ZM285.159 177.722H288.974V178.457H285.159V177.722ZM287.07 178.646C288.008 178.646 288.659 179.122 288.659 179.815C288.659 180.515 288.008 180.977 287.07 180.977C286.125 180.977 285.474 180.515 285.474 179.815C285.474 179.122 286.125 178.646 287.07 178.646ZM287.07 179.339C286.65 179.339 286.37 179.5 286.37 179.815C286.37 180.13 286.65 180.298 287.07 180.298C287.483 180.298 287.77 180.13 287.77 179.815C287.77 179.5 287.483 179.339 287.07 179.339ZM286.601 177.099H287.532V178.121H286.601V177.099ZM294.041 177.33H294.86V177.631C294.86 178.877 293.88 179.934 292.179 180.186L291.815 179.437C293.306 179.241 294.041 178.394 294.041 177.631V177.33ZM294.216 177.33H295.028V177.631C295.028 178.387 295.77 179.241 297.254 179.437L296.897 180.186C295.196 179.934 294.216 178.877 294.216 177.631V177.33ZM294.048 181.25H294.972V183.623H294.048V181.25ZM291.605 180.662H297.464V181.418H291.605V180.662Z" fill="#5A5A5A"/>
<path d="M244.744 30.438H245.675V31.376H244.744V30.438ZM242.294 29.892H248.132V30.571H242.294V29.892ZM244.744 27.134H245.668V27.918H244.744V27.134ZM244.688 27.96H245.507V28.086C245.507 29.017 244.562 29.633 242.77 29.731L242.511 29.038C244.093 28.975 244.688 28.534 244.688 28.086V27.96ZM244.905 27.96H245.724V28.086C245.724 28.534 246.319 28.975 247.894 29.038L247.635 29.731C245.85 29.633 244.905 29.017 244.905 28.086V27.96ZM242.84 27.645H247.579V28.324H242.84V27.645ZM242.952 30.963H247.432V32.566H243.876V33.182H242.959V31.943H246.515V31.635H242.952V30.963ZM242.959 32.902H247.6V33.581H242.959V32.902ZM248.964 30.228H249.461C250.665 30.228 251.295 30.207 252.03 30.074L252.121 30.809C251.365 30.949 250.7 30.97 249.461 30.97H248.964V30.228ZM248.957 27.512H251.806V29.556H249.888V30.718H248.964V28.863H250.882V28.247H248.957V27.512ZM253.213 27.148H254.144V31.138H253.213V27.148ZM252.177 28.037H253.381V28.779H252.177V28.037ZM252.177 29.416H253.381V30.158H252.177V29.416ZM249.706 31.432H254.144V33.63H253.213V32.174H249.706V31.432ZM259.331 27.141H260.262V30.655H259.331V27.141ZM260.003 28.485H261.123V29.248H260.003V28.485ZM257.462 27.477H258.477C258.477 29.213 257.434 30.291 255.467 30.732L255.124 29.983C256.755 29.64 257.462 28.877 257.462 27.995V27.477ZM255.432 27.477H258.064V28.219H255.432V27.477ZM255.789 30.984H256.65V31.586H257.287V30.984H258.134V33.532H255.789V30.984ZM256.65 32.272V32.832H257.287V32.272H256.65ZM259.058 30.907H259.772V31.39C259.772 32.321 259.408 33.217 258.505 33.595L258.022 32.902C258.757 32.58 259.058 31.978 259.058 31.39V30.907ZM259.247 30.907H259.947V31.383C259.947 31.999 260.248 32.608 260.983 32.902L260.5 33.595C259.59 33.224 259.247 32.349 259.247 31.383V30.907Z" fill="black"/>
<path d="M311.794 28.709H313.026V29.465H311.794V28.709ZM312.774 27.141H313.705V30.991H312.774V27.141ZM311.507 31.131C312.879 31.131 313.726 31.6 313.726 32.384C313.726 33.175 312.879 33.63 311.507 33.63C310.135 33.63 309.288 33.175 309.288 32.384C309.288 31.6 310.135 31.131 311.507 31.131ZM311.507 31.838C310.667 31.838 310.219 32.013 310.219 32.384C310.219 32.748 310.667 32.923 311.507 32.923C312.354 32.923 312.802 32.748 312.802 32.384C312.802 32.013 312.354 31.838 311.507 31.838ZM309.778 27.792H310.534V28.198C310.534 29.437 309.96 30.571 308.721 30.991L308.245 30.256C309.316 29.892 309.778 29.031 309.778 28.198V27.792ZM309.974 27.792H310.723V28.198C310.723 28.961 311.164 29.752 312.186 30.095L311.731 30.83C310.527 30.431 309.974 29.353 309.974 28.198V27.792ZM308.497 27.533H311.983V28.275H308.497V27.533ZM318.891 27.141H319.822V30.613H318.891V27.141ZM319.563 28.534H320.683V29.29H319.563V28.534ZM314.964 29.717H315.503C316.91 29.717 317.61 29.682 318.387 29.521L318.478 30.256C317.687 30.431 316.945 30.466 315.503 30.466H314.964V29.717ZM314.964 27.526H317.841V28.268H315.888V30.214H314.964V27.526ZM315.587 30.928H316.511V31.516H318.898V30.928H319.822V33.546H315.587V30.928ZM316.511 32.237V32.804H318.898V32.237H316.511ZM325.331 27.141H326.262V30.655H325.331V27.141ZM326.003 28.485H327.123V29.248H326.003V28.485ZM323.462 27.477H324.477C324.477 29.213 323.434 30.291 321.467 30.732L321.124 29.983C322.755 29.64 323.462 28.877 323.462 27.995V27.477ZM321.432 27.477H324.064V28.219H321.432V27.477ZM321.789 30.984H322.65V31.586H323.287V30.984H324.134V33.532H321.789V30.984ZM322.65 32.272V32.832H323.287V32.272H322.65ZM325.058 30.907H325.772V31.39C325.772 32.321 325.408 33.217 324.505 33.595L324.022 32.902C324.757 32.58 325.058 31.978 325.058 31.39V30.907ZM325.247 30.907H325.947V31.383C325.947 31.999 326.248 32.608 326.983 32.902L326.5 33.595C325.59 33.224 325.247 32.349 325.247 31.383V30.907Z" fill="black"/>
</svg>
