<svg width="342" height="342" viewBox="0 0 342 342" fill="none" xmlns="http://www.w3.org/2000/svg">
<path fill-rule="evenodd" clip-rule="evenodd" d="M191.896 53.3044C191.896 47.409 196.672 42.6436 202.557 42.6436C208.442 42.6436 213.218 47.409 213.218 53.3044V95.948C213.218 101.843 208.442 106.609 202.557 106.609C196.672 106.609 191.896 101.843 191.896 95.948V53.3044ZM95.948 127.931H245.2C251.085 127.931 255.861 123.165 255.861 117.27V0H85.2871V117.27C85.2871 123.165 90.0632 127.931 95.948 127.931ZM298.505 0H277.183V127.931C277.183 139.7 267.631 149.252 255.861 149.252H85.2871C73.5175 149.252 63.9653 139.7 63.9653 127.931V0H42.6436C19.0937 0 0 19.0937 0 42.6436V298.505C0 322.055 19.0937 341.148 42.6436 341.148H298.505C322.055 341.148 341.148 322.055 341.148 298.505V42.6436C341.148 19.0937 322.055 0 298.505 0Z" fill="#20D480"/>
</svg>
