<svg width="72" height="78" viewBox="0 0 72 78" fill="none" xmlns="http://www.w3.org/2000/svg">
<path d="M21.5829 9.01172L12 13.817L21.5829 18.6223L31.1935 13.817L21.5829 9.01172Z" fill="#8293B5"/>
<path fill-rule="evenodd" clip-rule="evenodd" d="M35.9894 1.80469L26.3789 6.60996L35.9894 11.4152L50.4053 18.6231L59.9882 13.8179L35.9894 1.80469Z" fill="#8293B5"/>
<path d="M35.9894 16.2227L26.3789 21.0279L35.9894 25.8332L45.6 21.0279L35.9894 16.2227Z" fill="#8293B5"/>
<path fill-rule="evenodd" clip-rule="evenodd" d="M59.9987 30.6094L36 42.6226V57.0384L59.9987 45.0252V30.6094Z" fill="#304674"/>
<path fill-rule="evenodd" clip-rule="evenodd" d="M50.4219 18.6217V30.6072L60.0048 25.8296V13.8164L50.4219 18.6217Z" fill="#304674"/>
<path fill-rule="evenodd" clip-rule="evenodd" d="M36 37.8143L45.6105 33.0366V21.0234L36 25.8287V37.8143Z" fill="#304674"/>
<path d="M26.3828 37.707V52.1228L35.9934 57.0386V42.6228L26.3828 37.707ZM33.5907 52.1228L28.7854 49.7202V42.6228L33.5907 45.0254V52.1228Z" fill="#5B709D"/>
<path d="M12 13.8164V45.0231L21.5829 49.8283V18.6217L12 13.8164ZM19.2079 45.0231L14.375 42.6204V15.0039L19.2079 17.4066V45.0231Z" fill="#5B709D"/>
<path d="M26.3828 21.1367L35.9934 25.8315V37.7066L26.3828 33.0394V21.1367ZM33.5907 33.1499V24.8649L28.7854 22.3795V30.6644L33.5907 33.1499Z" fill="#5B709D"/>
<path d="M11.2059 62.3047C11.2632 62.1745 11.3596 62.0651 11.495 61.9766C11.6356 61.8828 11.7789 61.8359 11.9247 61.8359C12.0653 61.8359 12.2059 61.8828 12.3466 61.9766C12.4924 62.0651 12.5914 62.1745 12.6434 62.3047L16.9403 72.2734C16.9872 72.3776 17.0106 72.4844 17.0106 72.5938C17.0106 72.8073 16.9325 72.9922 16.7763 73.1484C16.6252 73.2995 16.4429 73.375 16.2294 73.375C16.0835 73.375 15.9403 73.3281 15.7997 73.2344C15.6591 73.1406 15.5601 73.0286 15.5028 72.8984L14.1669 69.7969L9.71375 69.7344L8.34656 72.9062C8.29448 73.0365 8.19813 73.1484 8.0575 73.2422C7.91688 73.3411 7.77365 73.3906 7.62781 73.3906C7.41427 73.3906 7.22938 73.3151 7.07313 73.1641C6.92208 73.0078 6.84656 72.8229 6.84656 72.6094C6.84656 72.5 6.87 72.3932 6.91688 72.2891L11.2059 62.3047ZM11.9247 64.5938L10.3856 68.1797L13.4872 68.2188L11.9247 64.5938ZM18.6438 73.2812C18.4302 73.2812 18.2453 73.2057 18.0891 73.0547C17.938 72.8984 17.8625 72.7135 17.8625 72.5L17.8547 62.7266C17.8547 62.5286 17.9276 62.349 18.0734 62.1875C18.2193 62.026 18.3938 61.9453 18.5969 61.9453C18.8365 61.9453 19.0318 62.0208 19.1828 62.1719C19.3391 62.3177 19.4172 62.5026 19.4172 62.7266L19.425 72.5C19.425 72.7135 19.3469 72.8984 19.1906 73.0547C19.0396 73.2057 18.8573 73.2812 18.6438 73.2812ZM25.3475 73.2031C25.134 73.2031 24.9491 73.1276 24.7928 72.9766C24.6418 72.8203 24.5663 72.6354 24.5663 72.4219L24.5428 62.7266C24.5376 62.6797 24.535 62.6328 24.535 62.5859C24.535 62.513 24.5506 62.4427 24.5819 62.375C24.6183 62.3073 24.66 62.237 24.7069 62.1641C24.8319 61.9609 25.0116 61.8594 25.2459 61.8594C25.6209 61.8594 25.8788 62.0052 26.0194 62.2969L30.1991 69.1172L34.0663 62.2891C34.2225 62.0286 34.4334 61.8984 34.6991 61.8984C34.923 61.8984 35.1183 61.9714 35.285 62.1172C35.4517 62.263 35.535 62.4505 35.535 62.6797V72.4531C35.535 72.6667 35.4569 72.8516 35.3006 73.0078C35.1496 73.1589 34.9673 73.2344 34.7538 73.2344C34.5402 73.2344 34.3553 73.1589 34.1991 73.0078C34.048 72.8516 33.9725 72.6667 33.9725 72.4531V65.4688L30.9022 71.0469C30.8449 71.1406 30.7564 71.2318 30.6366 71.3203C30.5168 71.4036 30.3866 71.4453 30.2459 71.4453C29.9439 71.4453 29.7121 71.3203 29.5506 71.0703L26.1053 65.4375L26.1288 72.4141V72.4219C26.1288 72.6354 26.0506 72.8203 25.8944 72.9766C25.7433 73.1276 25.561 73.2031 25.3475 73.2031ZM40.4728 64.6484C41.0718 64.6484 41.6291 64.763 42.1447 64.9922C42.6655 65.2214 43.1213 65.5391 43.5119 65.9453C43.9025 66.3516 44.2072 66.8177 44.4259 67.3438C44.6499 67.8698 44.7619 68.4297 44.7619 69.0234C44.7619 69.6068 44.6499 70.1615 44.4259 70.6875C44.202 71.2083 43.8921 71.6693 43.4963 72.0703C43.1056 72.4661 42.6499 72.7786 42.1291 73.0078C41.6134 73.237 41.0614 73.3516 40.4728 73.3516C39.8895 73.3516 39.3374 73.2396 38.8166 73.0156C38.3009 72.7917 37.8452 72.4818 37.4494 72.0859C37.0588 71.6901 36.7515 71.2318 36.5275 70.7109C36.3035 70.1849 36.1916 69.6224 36.1916 69.0234C36.1916 68.4297 36.3035 67.8698 36.5275 67.3438C36.7515 66.8177 37.0588 66.3542 37.4494 65.9531C37.8452 65.5469 38.3009 65.2292 38.8166 65C39.3322 64.7656 39.8843 64.6484 40.4728 64.6484ZM37.7697 69.0391C37.7697 69.5443 37.8921 70.0052 38.1369 70.4219C38.3869 70.8333 38.7176 71.1615 39.1291 71.4062C39.5405 71.651 39.991 71.7734 40.4806 71.7734C40.9806 71.7734 41.4338 71.6484 41.84 71.3984C42.2515 71.1432 42.577 70.8073 42.8166 70.3906C43.0614 69.974 43.1838 69.5182 43.1838 69.0234C43.1838 68.5182 43.064 68.0547 42.8244 67.6328C42.5848 67.2057 42.2593 66.8646 41.8478 66.6094C41.4416 66.3542 40.9832 66.2266 40.4728 66.2266C39.9572 66.2266 39.4963 66.3568 39.09 66.6172C38.6838 66.8724 38.3608 67.2135 38.1213 67.6406C37.8869 68.0625 37.7697 68.5286 37.7697 69.0391ZM45.2153 69C45.2153 68.4115 45.3247 67.8385 45.5434 67.2812C45.7622 66.724 46.0851 66.2318 46.5122 65.8047C46.8924 65.4349 47.3299 65.1484 47.8247 64.9453C48.3195 64.7422 48.8325 64.6406 49.3638 64.6406C49.9054 64.6406 50.3872 64.7552 50.8091 64.9844C51.2309 65.2135 51.6085 65.5234 51.9419 65.9141V62.625C51.9419 62.4115 52.0174 62.2292 52.1684 62.0781C52.3247 61.9219 52.5096 61.8438 52.7231 61.8438C52.9367 61.8438 53.119 61.9219 53.27 62.0781C53.4263 62.2292 53.5044 62.4115 53.5044 62.625V72.6016C53.5044 72.8151 53.4263 73 53.27 73.1562C53.119 73.3073 52.9367 73.3828 52.7231 73.3828C52.5096 73.3828 52.3481 73.3073 52.2388 73.1562C52.1346 73 52.0669 72.8151 52.0356 72.6016L51.9419 71.9688C51.645 72.3958 51.2518 72.7318 50.7622 72.9766C50.2778 73.2214 49.7934 73.3438 49.3091 73.3438C48.7205 73.3438 48.1763 73.2266 47.6763 72.9922C47.1815 72.7578 46.7492 72.4401 46.3794 72.0391C46.0096 71.6328 45.7231 71.1693 45.52 70.6484C45.3169 70.1276 45.2153 69.5781 45.2153 69ZM49.2934 71.7812C49.632 71.7812 49.9679 71.7057 50.3013 71.5547C50.6346 71.4036 50.9184 71.2005 51.1528 70.9453C51.3872 70.6849 51.5669 70.3802 51.6919 70.0312C51.8221 69.6823 51.8872 69.3255 51.8872 68.9609C51.8872 68.4609 51.7778 68 51.5591 67.5781C51.3403 67.1562 51.0382 66.8177 50.6528 66.5625C50.2726 66.3073 49.8325 66.1797 49.3325 66.1797C48.8429 66.1797 48.4028 66.3151 48.0122 66.5859C47.6268 66.8516 47.3221 67.2005 47.0981 67.6328C46.8794 68.0599 46.77 68.5156 46.77 69C46.77 69.4844 46.8794 69.9401 47.0981 70.3672C47.3169 70.7891 47.6164 71.1302 47.9966 71.3906C48.382 71.651 48.8143 71.7812 49.2934 71.7812ZM58.5203 64.6719C59.213 64.6719 59.8484 64.8438 60.4266 65.1875C61.0047 65.5312 61.4682 65.9948 61.8172 66.5781C62.1714 67.1562 62.3484 67.7995 62.3484 68.5078C62.3484 68.6536 62.3406 68.8021 62.325 68.9531C62.3042 69.1458 62.2156 69.3099 62.0594 69.4453C61.9083 69.5755 61.7365 69.6406 61.5438 69.6406L56.0828 69.6484C56.1714 70.0234 56.338 70.375 56.5828 70.7031C56.8276 71.0312 57.1245 71.2969 57.4734 71.5C57.8276 71.7031 58.213 71.8047 58.6297 71.8047C59.0776 71.8047 59.4787 71.6953 59.8328 71.4766C60.187 71.2578 60.463 71.0052 60.6609 70.7188C60.7234 70.6198 60.8172 70.5365 60.9422 70.4688C61.0724 70.401 61.1948 70.3672 61.3094 70.3672C61.5229 70.3672 61.7052 70.4453 61.8563 70.6016C62.0125 70.7578 62.0906 70.9427 62.0906 71.1562C62.0906 71.3229 62.0438 71.4714 61.95 71.6016C61.6271 72.0755 61.1818 72.487 60.6141 72.8359C60.0516 73.1797 59.3979 73.3516 58.6531 73.3516C58.0542 73.3516 57.4969 73.2344 56.9813 73C56.4708 72.7656 56.0255 72.4453 55.6453 72.0391C55.2651 71.6328 54.9682 71.1667 54.7547 70.6406C54.5464 70.1094 54.4422 69.5495 54.4422 68.9609C54.4422 68.3932 54.5464 67.8542 54.7547 67.3438C54.963 66.8281 55.2521 66.3698 55.6219 65.9688C55.9969 65.5677 56.4318 65.2526 56.9266 65.0234C57.4214 64.7891 57.9526 64.6719 58.5203 64.6719ZM60.7391 68.0781C60.6401 67.5677 60.3849 67.1328 59.9734 66.7734C59.562 66.4141 59.0776 66.2344 58.5203 66.2344C57.9526 66.2344 57.45 66.4193 57.0125 66.7891C56.5802 67.1589 56.2885 67.5911 56.1375 68.0859L60.7391 68.0781ZM63.9816 61.8047C64.2316 61.8047 64.4321 61.888 64.5831 62.0547C64.7342 62.2161 64.8071 62.3932 64.8019 62.5859V72.6484C64.8019 72.8568 64.7185 73.026 64.5519 73.1562C64.3904 73.2812 64.229 73.3438 64.0675 73.3438C63.8435 73.3438 63.6482 73.2708 63.4816 73.125C63.3201 72.9792 63.2394 72.7917 63.2394 72.5625V62.5859C63.2394 62.388 63.3097 62.2083 63.4503 62.0469C63.5961 61.8854 63.7732 61.8047 63.9816 61.8047Z" fill="#304674"/>
</svg>
