<svg width="72" height="75" viewBox="0 0 72 75" fill="none" xmlns="http://www.w3.org/2000/svg">
<path d="M57.6 4H14.4C13.7635 4 13.153 4.25286 12.7029 4.70294C12.2529 5.15303 12 5.76348 12 6.4V49.6C12 50.2365 12.2529 50.847 12.7029 51.2971C13.153 51.7471 13.7635 52 14.4 52H57.6C58.2365 52 58.847 51.7471 59.2971 51.2971C59.7471 50.847 60 50.2365 60 49.6V6.4C60 5.76348 59.7471 5.15303 59.2971 4.70294C58.847 4.25286 58.2365 4 57.6 4ZM55.2 30.3858C55.2 31.2767 54.1229 31.7229 53.4929 31.0929L48.7071 26.3071C48.3166 25.9166 47.6834 25.9166 47.2929 26.3071L36.7071 36.8929C36.3166 37.2834 35.6834 37.2834 35.2929 36.8929L31.9071 33.5071C31.5166 33.1166 30.8834 33.1166 30.4929 33.5071L18.5071 45.4929C17.8771 46.1229 16.8 45.6767 16.8 44.7858V9.8C16.8 9.24771 17.2477 8.8 17.8 8.8H54.2C54.7523 8.8 55.2 9.24772 55.2 9.8V30.3858ZM21.6 19.6C21.6 18.4133 21.9519 17.2533 22.6112 16.2666C23.2705 15.2799 24.2075 14.5108 25.3039 14.0567C26.4003 13.6026 27.6067 13.4838 28.7705 13.7153C29.9344 13.9468 31.0035 14.5182 31.8426 15.3574C32.6818 16.1965 33.2532 17.2656 33.4847 18.4295C33.7162 19.5933 33.5974 20.7997 33.1433 21.8961C32.6892 22.9925 31.9201 23.9295 30.9334 24.5888C29.9467 25.2481 28.7867 25.6 27.6 25.6C26.0087 25.6 24.4826 24.9679 23.3574 23.8426C22.2321 22.7174 21.6 21.1913 21.6 19.6Z" fill="#304674"/>
<path d="M6.97217 63.1235C6.97217 62.5093 7.08008 61.9255 7.2959 61.3721C7.51172 60.8187 7.81608 60.3262 8.20898 59.8945C8.60189 59.4629 9.05843 59.1226 9.57861 58.8735C10.1043 58.6245 10.6743 58.5 11.2886 58.5C11.8973 58.5 12.4479 58.619 12.9404 58.8569C13.4385 59.0894 13.8646 59.3993 14.2188 59.7866C14.5785 60.1685 14.8468 60.5863 15.0239 61.04C15.0627 61.1341 15.082 61.2393 15.082 61.3555C15.082 61.5824 14.999 61.7788 14.833 61.9448C14.6725 62.1053 14.4788 62.1855 14.252 62.1855C14.097 62.1855 13.9448 62.133 13.7954 62.0278C13.646 61.9227 13.5409 61.7954 13.48 61.646C13.325 61.2476 13.0539 60.9017 12.6665 60.6084C12.2847 60.3096 11.8254 60.1602 11.2886 60.1602C10.785 60.1602 10.3312 60.3013 9.92725 60.5835C9.52881 60.8602 9.21338 61.2227 8.98096 61.6709C8.74854 62.1191 8.63232 62.6034 8.63232 63.1235C8.63232 63.6493 8.7513 64.1445 8.98926 64.6094C9.22721 65.0687 9.55371 65.4422 9.96875 65.73C10.3838 66.0122 10.8514 66.1533 11.3716 66.1533C11.8807 66.1533 12.3206 66.026 12.6914 65.7715C13.0622 65.5114 13.3416 65.2098 13.5298 64.8667C13.5962 64.745 13.7013 64.6426 13.8452 64.5596C13.9891 64.471 14.1302 64.4268 14.2686 64.4268C14.4954 64.4268 14.6891 64.5098 14.8496 64.6758C15.0156 64.8363 15.0986 65.0299 15.0986 65.2568C15.0986 65.3952 15.0627 65.5308 14.9907 65.6636C14.6753 66.2446 14.2049 66.7482 13.5796 67.1743C12.9543 67.6004 12.2183 67.8135 11.3716 67.8135C10.7407 67.8135 10.1569 67.689 9.62012 67.4399C9.08887 67.1854 8.62402 66.8395 8.22559 66.4023C7.83268 65.9652 7.52555 65.4671 7.3042 64.9082C7.08285 64.3438 6.97217 63.7489 6.97217 63.1235ZM20.7598 58.4668C21.1693 58.4668 21.5677 58.5498 21.9551 58.7158C22.348 58.8763 22.6966 59.0811 23.001 59.3301C23.3109 59.5736 23.5405 59.8254 23.6899 60.0854L23.7812 59.2886C23.7812 59.0617 23.8477 58.868 23.9805 58.7075C24.1133 58.5415 24.2931 58.4585 24.52 58.4585C24.7469 58.4585 24.9406 58.5415 25.1011 58.7075C25.2671 58.868 25.3501 59.0617 25.3501 59.2886V59.3052L25.3335 66.9917C25.3335 67.2186 25.2505 67.415 25.0845 67.5811C24.924 67.7415 24.7303 67.8218 24.5034 67.8218C24.2765 67.8218 24.0967 67.7415 23.9639 67.5811C23.8311 67.415 23.7646 67.2186 23.7646 66.9917L23.6733 66.3276C23.3856 66.8201 22.965 67.1882 22.4116 67.4316C21.8582 67.6696 21.3021 67.7886 20.7432 67.7886C20.1178 67.7886 19.5312 67.6668 18.9834 67.4233C18.4355 67.1743 17.9541 66.834 17.5391 66.4023C17.124 65.9707 16.7975 65.4754 16.5596 64.9165C16.3271 64.3576 16.2109 63.7682 16.2109 63.1484C16.2109 62.5342 16.3244 61.9476 16.5513 61.3887C16.7837 60.8242 17.1047 60.3234 17.5142 59.8862C17.9292 59.4435 18.4106 59.0977 18.9585 58.8486C19.5119 58.5941 20.1123 58.4668 20.7598 58.4668ZM23.6235 63.1318C23.6235 62.5895 23.4963 62.0915 23.2417 61.6377C22.9927 61.1839 22.6523 60.8187 22.2207 60.542C21.7891 60.2653 21.2965 60.127 20.7432 60.127C20.2008 60.127 19.7111 60.2653 19.2739 60.542C18.8368 60.8187 18.4909 61.1867 18.2363 61.646C17.9818 62.0998 17.8545 62.5923 17.8545 63.1235C17.8545 63.6603 17.9845 64.1584 18.2446 64.6177C18.5047 65.0715 18.8534 65.4367 19.2905 65.7134C19.7332 65.9901 20.2202 66.1284 20.7515 66.1284C21.2827 66.1284 21.7642 65.9901 22.1958 65.7134C22.633 65.4367 22.9788 65.0715 23.2334 64.6177C23.4935 64.1584 23.6235 63.6631 23.6235 63.1318ZM30.4634 58.5C31.0002 58.5 31.4705 58.63 31.8745 58.8901C32.284 59.1502 32.6188 59.4657 32.8789 59.8364C33.1888 59.4767 33.5623 59.1641 33.9995 58.8984C34.4367 58.6273 34.9237 58.4917 35.4604 58.4917C36.1688 58.4917 36.7554 58.6826 37.2202 59.0645C37.6906 59.4408 38.0392 59.936 38.2661 60.5503C38.493 61.1646 38.6064 61.8286 38.6064 62.5425L38.6147 66.9668C38.6147 67.1882 38.5345 67.3791 38.374 67.5396C38.2135 67.7 38.0171 67.7803 37.7847 67.7803C37.5522 67.7803 37.3558 67.7 37.1953 67.5396C37.0348 67.3791 36.9546 67.1882 36.9546 66.9668L36.9463 62.5591C36.9463 62.1385 36.9076 61.7456 36.8301 61.3804C36.7526 61.0096 36.6115 60.7108 36.4067 60.4839C36.202 60.257 35.9059 60.1436 35.5186 60.1436C35.109 60.1436 34.7576 60.257 34.4644 60.4839C34.1766 60.7108 33.9552 61.0096 33.8003 61.3804C33.6509 61.7456 33.5762 62.1413 33.5762 62.5674L33.5845 66.9917C33.5845 67.2131 33.5015 67.404 33.3354 67.5645C33.175 67.7194 32.9813 67.7969 32.7544 67.7969C32.522 67.7969 32.3255 67.7166 32.165 67.5562C32.0046 67.3957 31.9243 67.2048 31.9243 66.9834V62.5757C31.9243 62.0555 31.8358 61.6156 31.6587 61.2559C31.4871 60.8962 31.263 60.625 30.9863 60.4424C30.7152 60.2542 30.4357 60.1602 30.1479 60.1602C29.7384 60.1602 29.3704 60.3511 29.0439 60.7329C28.7174 61.1147 28.5542 61.7096 28.5542 62.5176V66.9917C28.5542 67.2131 28.4712 67.404 28.3052 67.5645C28.1447 67.7194 27.951 67.7969 27.7241 67.7969C27.4972 67.7969 27.3008 67.7166 27.1348 67.5562C26.9743 67.3957 26.894 67.2048 26.894 66.9834V59.3052C26.894 59.0783 26.9355 58.8874 27.0186 58.7324C27.1071 58.5719 27.2676 58.4917 27.5 58.4917C27.6826 58.4917 27.8514 58.5498 28.0063 58.666C28.1613 58.7822 28.2858 58.9759 28.3799 59.2471L28.5376 59.7036C28.7147 59.3384 28.9858 59.0479 29.3511 58.832C29.7218 58.6107 30.0926 58.5 30.4634 58.5ZM44.2427 58.5332C44.9787 58.5332 45.6538 58.7158 46.2681 59.0811C46.8823 59.4463 47.3748 59.9388 47.7456 60.5586C48.1219 61.1729 48.3101 61.8563 48.3101 62.6089C48.3101 62.7638 48.3018 62.9215 48.2852 63.082C48.263 63.2868 48.1689 63.4611 48.0029 63.605C47.8424 63.7433 47.6598 63.8125 47.4551 63.8125L41.6528 63.8208C41.7469 64.2192 41.924 64.5928 42.1841 64.9414C42.4442 65.29 42.7596 65.5723 43.1304 65.7881C43.5067 66.0039 43.9162 66.1118 44.3589 66.1118C44.8348 66.1118 45.2609 65.9956 45.6372 65.7632C46.0135 65.5308 46.3068 65.2624 46.5171 64.958C46.5835 64.8529 46.6831 64.7643 46.8159 64.6924C46.9543 64.6204 47.0843 64.5845 47.2061 64.5845C47.4329 64.5845 47.6266 64.6675 47.7871 64.8335C47.9531 64.9995 48.0361 65.196 48.0361 65.4229C48.0361 65.5999 47.9863 65.7576 47.8867 65.896C47.5436 66.3996 47.0705 66.8368 46.4673 67.2075C45.8696 67.5728 45.1751 67.7554 44.3838 67.7554C43.7474 67.7554 43.1553 67.6309 42.6074 67.3818C42.0651 67.1328 41.592 66.7925 41.188 66.3608C40.784 65.9292 40.4686 65.4339 40.2417 64.875C40.0203 64.3105 39.9097 63.7157 39.9097 63.0903C39.9097 62.4871 40.0203 61.9144 40.2417 61.3721C40.4631 60.8242 40.7702 60.3372 41.1631 59.9111C41.5615 59.485 42.0236 59.1502 42.5493 58.9067C43.075 58.6577 43.6395 58.5332 44.2427 58.5332ZM46.6001 62.1523C46.495 61.61 46.2238 61.1479 45.7866 60.7661C45.3494 60.3843 44.8348 60.1934 44.2427 60.1934C43.6395 60.1934 43.1055 60.3898 42.6406 60.7827C42.1813 61.1756 41.8714 61.6349 41.7109 62.1606L46.6001 62.1523ZM55.1416 59.5542C55.1416 59.9969 54.9285 60.2432 54.5024 60.293C54.3475 60.3096 54.151 60.2598 53.9131 60.1436C53.6751 60.0218 53.4344 59.9609 53.1909 59.9609C52.7095 59.9609 52.3276 60.0854 52.0454 60.3345C51.7632 60.578 51.5612 60.9072 51.4395 61.3223C51.3177 61.7373 51.2568 62.2021 51.2568 62.7168V67C51.2568 67.2435 51.1821 67.4372 51.0327 67.5811C50.8888 67.7249 50.6868 67.7969 50.4268 67.7969C50.1722 67.7969 49.9702 67.7249 49.8208 67.5811C49.6714 67.4372 49.5967 67.2407 49.5967 66.9917V59.3467C49.5967 59.0977 49.6576 58.8929 49.7793 58.7324C49.9066 58.5719 50.0781 58.4917 50.2939 58.4917C50.4212 58.4917 50.5679 58.547 50.7339 58.6577C50.9054 58.7629 51.0244 58.9455 51.0908 59.2056L51.1738 59.8032C51.2458 59.6483 51.3841 59.4684 51.5889 59.2637C51.7936 59.0589 52.0371 58.8818 52.3193 58.7324C52.6016 58.5775 52.8949 58.5 53.1992 58.5C53.7637 58.5 54.2285 58.5664 54.5938 58.6992C54.959 58.8265 55.1416 59.1115 55.1416 59.5542ZM60.1055 58.4668C60.515 58.4668 60.9134 58.5498 61.3008 58.7158C61.6937 58.8763 62.0423 59.0811 62.3467 59.3301C62.6566 59.5736 62.8862 59.8254 63.0356 60.0854L63.127 59.2886C63.127 59.0617 63.1934 58.868 63.3262 58.7075C63.459 58.5415 63.6388 58.4585 63.8657 58.4585C64.0926 58.4585 64.2863 58.5415 64.4468 58.7075C64.6128 58.868 64.6958 59.0617 64.6958 59.2886V59.3052L64.6792 66.9917C64.6792 67.2186 64.5962 67.415 64.4302 67.5811C64.2697 67.7415 64.076 67.8218 63.8491 67.8218C63.6222 67.8218 63.4424 67.7415 63.3096 67.5811C63.1768 67.415 63.1104 67.2186 63.1104 66.9917L63.019 66.3276C62.7313 66.8201 62.3107 67.1882 61.7573 67.4316C61.2039 67.6696 60.6478 67.7886 60.0889 67.7886C59.4635 67.7886 58.877 67.6668 58.3291 67.4233C57.7812 67.1743 57.2998 66.834 56.8848 66.4023C56.4697 65.9707 56.1432 65.4754 55.9053 64.9165C55.6729 64.3576 55.5566 63.7682 55.5566 63.1484C55.5566 62.5342 55.6701 61.9476 55.897 61.3887C56.1294 60.8242 56.4504 60.3234 56.8599 59.8862C57.2749 59.4435 57.7563 59.0977 58.3042 58.8486C58.8576 58.5941 59.458 58.4668 60.1055 58.4668ZM62.9692 63.1318C62.9692 62.5895 62.842 62.0915 62.5874 61.6377C62.3384 61.1839 61.998 60.8187 61.5664 60.542C61.1348 60.2653 60.6423 60.127 60.0889 60.127C59.5465 60.127 59.0568 60.2653 58.6196 60.542C58.1825 60.8187 57.8366 61.1867 57.582 61.646C57.3275 62.0998 57.2002 62.5923 57.2002 63.1235C57.2002 63.6603 57.3302 64.1584 57.5903 64.6177C57.8504 65.0715 58.1991 65.4367 58.6362 65.7134C59.0789 65.9901 59.5659 66.1284 60.0972 66.1284C60.6284 66.1284 61.1099 65.9901 61.5415 65.7134C61.9787 65.4367 62.3245 65.0715 62.5791 64.6177C62.8392 64.1584 62.9692 63.6631 62.9692 63.1318Z" fill="#304674"/>
</svg>
