<svg width="72" height="76" viewBox="0 0 72 76" fill="none" xmlns="http://www.w3.org/2000/svg">
<path d="M43.8047 38.3984H56.4047V49.1984H48.0047L43.8047 38.3984Z" fill="#304674"/>
<path d="M16.7938 21.6L35.9938 18L54.5938 21.6L57.5938 40.8H15.5938L16.7938 21.6Z" fill="#304674"/>
<path d="M30 38.3984H15.6V49.1984H24L30 38.3984Z" fill="#304674"/>
<path d="M48.8256 26.4753C48.8256 27.6547 47.8696 28.6108 46.6902 28.6108C45.5107 28.6108 44.5547 27.6547 44.5547 26.4753C44.5547 25.2959 45.5107 24.3398 46.6902 24.3398C47.8696 24.3398 48.8256 25.2959 48.8256 26.4753Z" fill="#DFE4EE"/>
<path d="M46.6902 37.1538C47.8696 37.1538 48.8256 36.1977 48.8256 35.0183C48.8256 33.8389 47.8696 32.8828 46.6902 32.8828C45.5107 32.8828 44.5547 33.8389 44.5547 35.0183C44.5547 36.1977 45.5107 37.1538 46.6902 37.1538Z" fill="#DFE4EE"/>
<path d="M50.9519 32.8842C52.1313 32.8842 53.0873 31.9282 53.0873 30.7488C53.0873 29.5694 52.1313 28.6133 50.9519 28.6133C49.7725 28.6133 48.8164 29.5694 48.8164 30.7488C48.8164 31.9282 49.7725 32.8842 50.9519 32.8842Z" fill="#DFE4EE"/>
<path d="M27.4507 27.5417C27.4507 26.3623 26.4946 25.4062 25.3152 25.4062C24.1358 25.4062 23.1798 26.3623 23.1798 27.5417V28.6095H22.112C20.9326 28.6095 19.9766 29.5655 19.9766 30.7449C19.9766 31.9243 20.9326 32.8804 22.112 32.8804H23.1798V33.9481C23.1798 35.1275 24.1358 36.0836 25.3152 36.0836C26.4946 36.0836 27.4507 35.1275 27.4507 33.9481V32.8804H28.5184C29.6978 32.8804 30.6539 31.9243 30.6539 30.7449C30.6539 29.5655 29.6978 28.6095 28.5184 28.6095H27.4507V27.5417Z" fill="#DFE4EE"/>
<path d="M44.5444 30.7488C44.5444 31.9282 43.5883 32.8842 42.4089 32.8842C41.2295 32.8842 40.2734 31.9282 40.2734 30.7488C40.2734 29.5694 41.2295 28.6133 42.4089 28.6133C43.5883 28.6133 44.5444 29.5694 44.5444 30.7488Z" fill="#DFE4EE"/>
<path fill-rule="evenodd" clip-rule="evenodd" d="M36 15.7969C32.1304 15.7969 27.3778 16.3482 23.6524 16.8845C18.7947 17.5838 14.8396 21.1718 13.8124 26.0221C13.2375 28.7364 12.6742 31.9457 12.5451 34.6326C12.4525 36.559 12.2493 39.2509 12.034 41.8332C11.81 44.5198 12.7052 47.2874 14.3481 49.2556C16.0245 51.2642 18.6796 52.6181 21.7429 51.761C23.7043 51.2119 25.2716 49.8335 26.4342 48.4751C27.6226 47.0868 28.5684 45.5064 29.242 44.2206C29.7607 43.2306 30.6813 42.6728 31.5484 42.6728H40.4516C41.3186 42.6728 42.2395 43.2306 42.758 44.2206C43.4317 45.5064 44.3775 47.0868 45.5659 48.4751C46.7284 49.8335 48.2957 51.2119 50.2571 51.761C53.3204 52.6181 55.9754 51.2642 57.652 49.2556C59.2948 47.2874 60.19 44.5198 59.966 41.8332C59.7507 39.2509 59.5474 36.559 59.455 34.6326C59.3258 31.9457 58.7624 28.7364 58.1876 26.0221C57.1604 21.1718 53.2053 17.5838 48.3475 16.8845C44.6222 16.3482 39.8697 15.7969 36 15.7969ZM24.2609 21.1118C27.9439 20.5817 32.4483 20.0678 36 20.0678C39.5518 20.0678 44.0561 20.5817 47.7391 21.1118C50.8736 21.563 53.3638 23.858 54.0093 26.907C54.5716 29.5614 55.0766 32.5012 55.1889 34.8376C55.2853 36.8441 55.4941 39.5995 55.7098 42.1881C55.8411 43.7621 55.2923 45.4175 54.373 46.519C53.4872 47.5803 52.4622 47.943 51.4081 47.648C50.6274 47.4294 49.7369 46.7804 48.8105 45.6979C47.9098 44.6458 47.1352 43.3724 46.5411 42.2387C45.4053 40.0701 43.15 38.4019 40.4516 38.4019H31.5484C28.85 38.4019 26.5948 40.0701 25.4588 42.2387C24.8648 43.3724 24.0902 44.6458 23.1896 45.6979C22.2631 46.7804 21.3727 47.4294 20.5918 47.648C19.5379 47.943 18.5127 47.5803 17.627 46.519C16.7077 45.4175 16.1589 43.7621 16.2902 42.1881C16.506 39.5995 16.7147 36.8441 16.8111 34.8376C16.9234 32.5012 17.4285 29.5614 17.9906 26.907C18.6364 23.858 21.1264 21.563 24.2609 21.1118Z" fill="#304674"/>
<path d="M8.62502 63.9243C8.62502 63.3101 8.73293 62.7262 8.94875 62.1729C9.16457 61.6195 9.46893 61.127 9.86184 60.6953C10.2547 60.2637 10.7113 59.9233 11.2315 59.6743C11.7572 59.4253 12.3272 59.3008 12.9414 59.3008C13.5501 59.3008 14.1008 59.4198 14.5933 59.6577C15.0913 59.8901 15.5174 60.2 15.8716 60.5874C16.2313 60.9692 16.4997 61.387 16.6768 61.8408C16.7155 61.9349 16.7349 62.04 16.7349 62.1562C16.7349 62.3831 16.6519 62.5796 16.4859 62.7456C16.3254 62.9061 16.1317 62.9863 15.9048 62.9863C15.7499 62.9863 15.5977 62.9338 15.4483 62.8286C15.2988 62.7235 15.1937 62.5962 15.1328 62.4468C14.9779 62.0483 14.7067 61.7025 14.3194 61.4092C13.9375 61.1104 13.4782 60.9609 12.9414 60.9609C12.4378 60.9609 11.9841 61.1021 11.5801 61.3843C11.1817 61.661 10.8662 62.0234 10.6338 62.4717C10.4014 62.9199 10.2852 63.4041 10.2852 63.9243C10.2852 64.45 10.4042 64.9453 10.6421 65.4102C10.8801 65.8695 11.2066 66.243 11.6216 66.5308C12.0366 66.813 12.5043 66.9541 13.0244 66.9541C13.5335 66.9541 13.9735 66.8268 14.3443 66.5723C14.715 66.3122 14.9945 66.0106 15.1826 65.6675C15.249 65.5457 15.3542 65.4434 15.4981 65.3604C15.6419 65.2718 15.7831 65.2275 15.9214 65.2275C16.1483 65.2275 16.342 65.3105 16.5025 65.4766C16.6685 65.637 16.7515 65.8307 16.7515 66.0576C16.7515 66.196 16.7155 66.3315 16.6436 66.4644C16.3281 67.0454 15.8578 67.549 15.2324 67.9751C14.6071 68.4012 13.8711 68.6143 13.0244 68.6143C12.3936 68.6143 11.8098 68.4897 11.273 68.2407C10.7417 67.9862 10.2769 67.6403 9.87844 67.2031C9.48553 66.766 9.1784 66.2679 8.95705 65.709C8.7357 65.1445 8.62502 64.5496 8.62502 63.9243ZM22.5451 59.3091C23.1815 59.3091 23.7736 59.4308 24.3215 59.6743C24.8748 59.9178 25.3591 60.2554 25.7741 60.687C26.1891 61.1187 26.5129 61.6139 26.7453 62.1729C26.9832 62.7318 27.1022 63.3267 27.1022 63.9575C27.1022 64.5773 26.9832 65.1667 26.7453 65.7256C26.5073 66.279 26.1781 66.7687 25.7575 67.1948C25.3425 67.6154 24.8582 67.9474 24.3049 68.1909C23.757 68.4344 23.1704 68.5562 22.5451 68.5562C21.9253 68.5562 21.3387 68.4372 20.7853 68.1992C20.2375 67.9613 19.7533 67.632 19.3327 67.2114C18.9177 66.7909 18.5912 66.3039 18.3532 65.7505C18.1152 65.1916 17.9963 64.5939 17.9963 63.9575C17.9963 63.3267 18.1152 62.7318 18.3532 62.1729C18.5912 61.6139 18.9177 61.1214 19.3327 60.6953C19.7533 60.2637 20.2375 59.9261 20.7853 59.6826C21.3332 59.4336 21.9198 59.3091 22.5451 59.3091ZM19.673 63.9741C19.673 64.5109 19.8031 65.0007 20.0632 65.4434C20.3288 65.8805 20.6802 66.2292 21.1174 66.4893C21.5545 66.7493 22.0332 66.8794 22.5534 66.8794C23.0846 66.8794 23.5661 66.7466 23.9977 66.481C24.4349 66.2098 24.7808 65.8529 25.0353 65.4102C25.2954 64.9674 25.4255 64.4832 25.4255 63.9575C25.4255 63.4207 25.2982 62.9282 25.0436 62.48C24.7891 62.0262 24.4432 61.6637 24.006 61.3926C23.5744 61.1214 23.0874 60.9858 22.5451 60.9858C21.9972 60.9858 21.5075 61.1242 21.0759 61.4009C20.6442 61.672 20.3011 62.0345 20.0466 62.4883C19.7975 62.9365 19.673 63.4318 19.673 63.9741ZM30.2977 60.6206C30.5965 60.3273 30.9535 60.0368 31.3685 59.749C31.7891 59.4613 32.276 59.3174 32.8294 59.3174C33.5544 59.3174 34.1576 59.5111 34.639 59.8984C35.1204 60.2803 35.4746 60.7257 35.7015 61.2349C35.8786 61.6388 35.9837 62.04 36.0169 62.4385C36.0557 62.8314 36.075 63.2021 36.075 63.5508V67.7427C36.075 67.9696 35.992 68.166 35.826 68.332C35.6655 68.4925 35.4718 68.5728 35.245 68.5728C35.0181 68.5728 34.8216 68.4925 34.6556 68.332C34.4951 68.166 34.4149 67.9696 34.4149 67.7427V63.5508C34.4149 63.2243 34.3983 62.9227 34.3651 62.646C34.3374 62.3693 34.2765 62.1258 34.1825 61.9155C34.0773 61.672 33.9141 61.4562 33.6927 61.2681C33.4714 61.0744 33.1891 60.9775 32.846 60.9775C32.027 60.9775 31.3962 61.2902 30.9535 61.9155C30.5163 62.5409 30.3005 63.3848 30.306 64.4473L30.3143 67.7593C30.3143 67.9862 30.2313 68.1826 30.0653 68.3486C29.9048 68.5091 29.7111 68.5894 29.4842 68.5894C29.2518 68.5894 29.0553 68.5091 28.8949 68.3486C28.7344 68.1826 28.6541 67.9834 28.6541 67.751L28.6375 60.1226C28.6375 59.8957 28.6984 59.702 28.8202 59.5415C28.9474 59.3755 29.1245 59.2925 29.3514 59.2925C29.5783 59.2925 29.7526 59.3755 29.8744 59.5415C29.9961 59.702 30.0902 59.8957 30.1566 60.1226L30.2977 60.6206ZM39.2788 57.8232C39.2788 57.5964 39.359 57.4027 39.5195 57.2422C39.68 57.0762 39.8765 56.9932 40.1089 56.9932C40.3358 56.9932 40.5295 57.0762 40.6899 57.2422C40.856 57.4027 40.939 57.5964 40.939 57.8232V59.4751H42.0513C42.2671 59.4751 42.4525 59.5526 42.6074 59.7075C42.7624 59.8625 42.8398 60.0479 42.8398 60.2637C42.8398 60.4795 42.7624 60.6649 42.6074 60.8198C42.4525 60.9748 42.2671 61.0522 42.0513 61.0522H40.9307L40.9224 66.1904V66.207C40.9224 66.4782 40.9528 66.6663 41.0137 66.7715C41.0745 66.8711 41.1991 66.9209 41.3872 66.9209C41.6252 66.9209 41.8354 66.8573 42.0181 66.73C42.0845 66.6857 42.1647 66.647 42.2588 66.6138C42.3529 66.575 42.4442 66.5557 42.5327 66.5557C42.7596 66.5557 42.9533 66.6359 43.1138 66.7964C43.2798 66.9569 43.3628 67.1506 43.3628 67.3774C43.3628 67.6486 43.2521 67.8672 43.0308 68.0332C42.8205 68.1937 42.5798 68.3265 42.3086 68.4316C42.0374 68.5368 41.7469 68.5894 41.437 68.5894C40.7397 68.5894 40.203 68.3763 39.8267 67.9502C39.4504 67.5186 39.2622 66.9818 39.2622 66.3398V66.2651L39.2705 61.0605H38.1997C37.9839 61.0605 37.7985 60.9831 37.6436 60.8281C37.4886 60.6732 37.4111 60.4878 37.4111 60.272C37.4111 60.0562 37.4886 59.8708 37.6436 59.7158C37.7985 59.5609 37.9839 59.4834 38.1997 59.4834H39.2788V57.8232ZM50.2355 60.355C50.2355 60.7977 50.0225 61.0439 49.5963 61.0938C49.4414 61.1104 49.2449 61.0605 49.007 60.9443C48.769 60.8226 48.5283 60.7617 48.2848 60.7617C47.8034 60.7617 47.4215 60.8862 47.1393 61.1353C46.8571 61.3787 46.6551 61.708 46.5334 62.123C46.4116 62.5381 46.3507 63.0029 46.3507 63.5176V67.8008C46.3507 68.0443 46.276 68.238 46.1266 68.3818C45.9827 68.5257 45.7808 68.5977 45.5207 68.5977C45.2661 68.5977 45.0641 68.5257 44.9147 68.3818C44.7653 68.238 44.6906 68.0415 44.6906 67.7925V60.1475C44.6906 59.8984 44.7515 59.6937 44.8732 59.5332C45.0005 59.3727 45.172 59.2925 45.3879 59.2925C45.5151 59.2925 45.6618 59.3478 45.8278 59.4585C45.9993 59.5636 46.1183 59.7463 46.1847 60.0063L46.2677 60.604C46.3397 60.4491 46.478 60.2692 46.6828 60.0645C46.8875 59.8597 47.131 59.6826 47.4132 59.5332C47.6955 59.3783 47.9888 59.3008 48.2931 59.3008C48.8576 59.3008 49.3224 59.3672 49.6877 59.5C50.0529 59.6273 50.2355 59.9123 50.2355 60.355ZM55.3319 59.3091C55.9682 59.3091 56.5604 59.4308 57.1082 59.6743C57.6616 59.9178 58.1458 60.2554 58.5609 60.687C58.9759 61.1187 59.2996 61.6139 59.5321 62.1729C59.77 62.7318 59.889 63.3267 59.889 63.9575C59.889 64.5773 59.77 65.1667 59.5321 65.7256C59.2941 66.279 58.9648 66.7687 58.5443 67.1948C58.1292 67.6154 57.645 67.9474 57.0916 68.1909C56.5438 68.4344 55.9572 68.5562 55.3319 68.5562C54.7121 68.5562 54.1255 68.4372 53.5721 68.1992C53.0242 67.9613 52.54 67.632 52.1195 67.2114C51.7044 66.7909 51.3779 66.3039 51.14 65.7505C50.902 65.1916 50.783 64.5939 50.783 63.9575C50.783 63.3267 50.902 62.7318 51.14 62.1729C51.3779 61.6139 51.7044 61.1214 52.1195 60.6953C52.54 60.2637 53.0242 59.9261 53.5721 59.6826C54.1199 59.4336 54.7065 59.3091 55.3319 59.3091ZM52.4598 63.9741C52.4598 64.5109 52.5898 65.0007 52.8499 65.4434C53.1155 65.8805 53.4669 66.2292 53.9041 66.4893C54.3413 66.7493 54.82 66.8794 55.3402 66.8794C55.8714 66.8794 56.3529 66.7466 56.7845 66.481C57.2217 66.2098 57.5675 65.8529 57.8221 65.4102C58.0822 64.9674 58.2122 64.4832 58.2122 63.9575C58.2122 63.4207 58.0849 62.9282 57.8304 62.48C57.5758 62.0262 57.23 61.6637 56.7928 61.3926C56.3612 61.1214 55.8742 60.9858 55.3319 60.9858C54.784 60.9858 54.2943 61.1242 53.8626 61.4009C53.431 61.672 53.0879 62.0345 52.8333 62.4883C52.5843 62.9365 52.4598 63.4318 52.4598 63.9741ZM62.2129 56.2876C62.4785 56.2876 62.6915 56.3761 62.852 56.5532C63.0125 56.7248 63.09 56.9129 63.0845 57.1177V67.8091C63.0845 68.0304 62.9959 68.2103 62.8188 68.3486C62.6473 68.4814 62.4757 68.5479 62.3042 68.5479C62.0662 68.5479 61.8587 68.4704 61.6816 68.3154C61.5101 68.1605 61.4243 67.9613 61.4243 67.7178V57.1177C61.4243 56.9074 61.499 56.7165 61.6484 56.5449C61.8034 56.3734 61.9915 56.2876 62.2129 56.2876Z" fill="#304674"/>
</svg>
