<svg width="158" height="49" viewBox="0 0 158 49" fill="none" xmlns="http://www.w3.org/2000/svg">
<ellipse cx="78.7987" cy="27.1731" rx="22.4413" ry="11.2454" transform="rotate(-20.6817 78.7987 27.1731)" fill="#DDDDDD"/>
<path d="M49.8365 13.2969L69.5334 23.0521V33.917L68.9525 43.178L57.8943 38.5335L53.2219 36.0714L49.4901 32.1198L48.6055 23.0521L49.8365 13.2969Z" fill="#BEBEBE"/>
<path d="M89.546 12.9922L80.0054 17.6086L70.2858 23.0552V33.671V43.181L81.344 38.5366L86.1606 35.4589L89.7482 32.1229L90.6328 23.0552L89.546 12.9922Z" fill="#7B7B7B"/>
<path d="M59.6717 6.02482L69.624 1.60156L80.461 6.02482L89.0863 12.4385L82.8938 15.756L69.624 21.9486L58.5658 17.083L50.3828 11.9962L59.6717 6.02482Z" fill="#DEDEDE"/>
<path d="M77.1329 4.50515L81.335 6.71031C85.8558 9.08268 88.1161 10.2689 89.3713 12.4004C90.6264 14.5319 90.6264 17.1843 90.6264 22.4891V22.735C90.6264 28.0397 90.6264 30.6923 89.3713 32.8238C88.1161 34.9553 85.8558 36.1413 81.335 38.5138L77.1329 40.7189C73.4443 42.6546 71.6 43.6225 69.616 43.6225C67.6319 43.6225 65.7876 42.6546 62.099 40.7189L57.8969 38.5138C53.3762 36.1413 51.1158 34.9553 49.8606 32.8238C48.6055 30.6923 48.6055 28.0397 48.6055 22.735V22.4891C48.6055 17.1843 48.6055 14.5319 49.8606 12.4004C51.1158 10.2689 53.3762 9.08268 57.8969 6.71031L62.099 4.50515C65.7876 2.56943 67.6319 1.60156 69.616 1.60156C71.6 1.60156 73.4443 2.56943 77.1329 4.50515Z" stroke="#626262" stroke-width="2.3" stroke-linecap="round"/>
<path d="M88.5259 13.1562L69.6165 22.611M69.6165 22.611L50.707 13.1562M69.6165 22.611V42.5709" stroke="#626262" stroke-width="2.3" stroke-linecap="round"/>
<ellipse cx="111.868" cy="34.3671" rx="14.3224" ry="7.17703" transform="rotate(-20.6817 111.868 34.3671)" fill="#DDDDDD"/>
<path d="M93.1701 25.6797L105.591 31.7491V38.5244V44.5938L98.5338 41.6297L93.1701 37.5363L92.6055 31.7491L93.1701 25.6797Z" fill="#AAAAAA"/>
<path d="M118.865 25.6797L106.444 31.7491V38.5244V44.5938L113.501 41.6297L118.865 37.5363L119.43 31.7491L118.865 25.6797Z" fill="#636363"/>
<path d="M99.6666 20.8777L106.018 18.0547L112.935 20.8777L118.44 24.9711L114.487 27.0883L106.018 31.0405L98.9608 27.9352L93.7383 24.6888L99.6666 20.8777Z" fill="#D7D7D7"/>
<path d="M110.812 19.9078L113.494 21.3152C116.379 22.8293 117.822 23.5863 118.623 24.9467C119.424 26.3071 119.424 27.9999 119.424 31.3855V31.5424C119.424 34.928 119.424 36.6209 118.623 37.9813C117.822 39.3416 116.379 40.0986 113.494 41.6128L110.812 43.0201C108.458 44.2555 107.281 44.8732 106.015 44.8732C104.749 44.8732 103.571 44.2555 101.217 43.0201L98.5354 41.6128C95.6502 40.0986 94.2076 39.3416 93.4065 37.9813C92.6055 36.6209 92.6055 34.928 92.6055 31.5424V31.3855C92.6055 27.9999 92.6055 26.3071 93.4065 24.9467C94.2076 23.5863 95.6502 22.8293 98.5354 21.3152L101.217 19.9078C103.571 18.6724 104.749 18.0547 106.015 18.0547C107.281 18.0547 108.458 18.6724 110.812 19.9078Z" stroke="#505050" stroke-width="2" stroke-linecap="round"/>
<path d="M118.082 25.4297L106.014 31.4639M106.014 31.4639L93.9453 25.4297M106.014 31.4639V44.2027" stroke="#505050" stroke-width="2" stroke-linecap="round"/>
<circle cx="76.1505" cy="45.4339" r="0.625144" transform="rotate(-23.4652 76.1505 45.4339)" fill="black"/>
<circle cx="78.0216" cy="44.6292" r="0.625144" transform="rotate(-23.4652 78.0216 44.6292)" fill="black"/>
<circle cx="79.8849" cy="43.8167" r="0.625144" transform="rotate(-23.4652 79.8849 43.8167)" fill="black"/>
<circle cx="81.7403" cy="43.0042" r="0.625144" transform="rotate(-23.4652 81.7403 43.0042)" fill="black"/>
<circle cx="83.6114" cy="42.1917" r="0.625144" transform="rotate(-23.4652 83.6114 42.1917)" fill="black"/>
<circle cx="85.4747" cy="41.387" r="0.625144" transform="rotate(-23.4652 85.4747 41.387)" fill="black"/>
<circle cx="87.3458" cy="40.5745" r="0.625144" transform="rotate(-23.4652 87.3458 40.5745)" fill="black"/>
<circle cx="89.2013" cy="39.7698" r="0.625144" transform="rotate(-23.4652 89.2013 39.7698)" fill="black"/>
<circle cx="91.0646" cy="38.9651" r="0.625144" transform="rotate(-23.4652 91.0646 38.9651)" fill="black"/>
<circle cx="92.92" cy="38.1605" r="0.625144" transform="rotate(-23.4652 92.92 38.1605)" fill="black"/>
<circle cx="94.7989" cy="37.348" r="0.625144" transform="rotate(-23.4652 94.7989 37.348)" fill="black"/>
<circle cx="96.6622" cy="36.5355" r="0.625144" transform="rotate(-23.4652 96.6622 36.5355)" fill="black"/>
<circle cx="70.506" cy="47.887" r="0.625144" transform="rotate(-23.4652 70.506 47.887)" fill="black"/>
<circle cx="72.3692" cy="47.0745" r="0.625144" transform="rotate(-23.4652 72.3692 47.0745)" fill="black"/>
<circle cx="74.2325" cy="46.2698" r="0.625144" transform="rotate(-23.4652 74.2325 46.2698)" fill="black"/>
<path d="M99.0122 35.0944C99.2863 35.0777 99.4369 35.4076 99.2447 35.6038L96.9803 37.915C96.8329 38.0654 96.5805 38.0211 96.4931 37.8296L95.5279 35.7149C95.4405 35.5234 95.5724 35.3037 95.7826 35.2909L99.0122 35.0944Z" fill="black"/>
<circle cx="35.4871" cy="37.6507" r="0.625144" transform="rotate(-19.7435 35.4871 37.6507)" fill="black"/>
<circle cx="37.405" cy="36.9632" r="0.625144" transform="rotate(-19.7435 37.405 36.9632)" fill="black"/>
<circle cx="39.323" cy="36.2757" r="0.625144" transform="rotate(-19.7435 39.323 36.2757)" fill="black"/>
<circle cx="41.2293" cy="35.596" r="0.625144" transform="rotate(-19.7435 41.2293 35.596)" fill="black"/>
<circle cx="43.1472" cy="34.9085" r="0.625144" transform="rotate(-19.7435 43.1472 34.9085)" fill="black"/>
<circle cx="45.0574" cy="34.221" r="0.625144" transform="rotate(-19.7435 45.0574 34.221)" fill="black"/>
<circle cx="46.9675" cy="33.5335" r="0.625144" transform="rotate(-19.7435 46.9675 33.5335)" fill="black"/>
<circle cx="48.8855" cy="32.846" r="0.625144" transform="rotate(-19.7435 48.8855 32.846)" fill="black"/>
<circle cx="50.784" cy="32.1585" r="0.625144" transform="rotate(-19.7435 50.784 32.1585)" fill="black"/>
<circle cx="52.7097" cy="31.471" r="0.625144" transform="rotate(-19.7435 52.7097 31.471)" fill="black"/>
<circle cx="54.6277" cy="30.7913" r="0.625144" transform="rotate(-19.7435 54.6277 30.7913)" fill="black"/>
<circle cx="56.53" cy="30.1038" r="0.625144" transform="rotate(-19.7435 56.53 30.1038)" fill="black"/>
<circle cx="31.6199" cy="39.0413" r="0.625144" transform="rotate(-19.7435 31.6199 39.0413)" fill="black"/>
<circle cx="33.5222" cy="38.3538" r="0.625144" transform="rotate(-19.7435 33.5222 38.3538)" fill="black"/>
<path d="M58.9626 28.8088C59.2373 28.8099 59.3661 29.1489 59.1616 29.3322L56.7519 31.4915C56.5951 31.632 56.3461 31.5715 56.2713 31.3747L55.4454 29.2018C55.3706 29.005 55.5165 28.7944 55.7271 28.7952L58.9626 28.8088Z" fill="black"/>
</svg>
