<svg width="72" height="76" viewBox="0 0 72 76" fill="none" xmlns="http://www.w3.org/2000/svg">
<path d="M57 27.6016C57 21.3758 53.238 9.60156 39 9.60156H33C18.762 9.60156 15 21.3758 15 27.6016C13.3418 27.6016 12 28.9433 12 30.6016V42.6016C12 44.2598 13.3418 45.6016 15 45.6016H18V48.6016C18 50.2598 19.3418 51.6016 21 51.6016H24C25.6582 51.6016 27 50.2598 27 48.6016V45.6016H45V48.6016C45 50.2598 46.3418 51.6016 48 51.6016H51C52.6582 51.6016 54 50.2598 54 48.6016V45.6016H57C58.6582 45.6016 60 44.2598 60 42.6016V30.6016C60 28.9433 58.6582 27.6016 57 27.6016ZM24 39.6016C22.3418 39.6016 21 38.2598 21 36.6016C21 34.9433 22.3418 33.6016 24 33.6016C25.6582 33.6016 27 34.9433 27 36.6016C27 38.2598 25.6582 39.6016 24 39.6016ZM21 27.6016C21 27.1126 21.138 15.6016 33 15.6016H39C50.5575 15.6016 50.988 26.3858 51 27.6016H21ZM48 39.6016C46.3418 39.6016 45 38.2598 45 36.6016C45 34.9433 46.3418 33.6016 48 33.6016C49.6582 33.6016 51 34.9433 51 36.6016C51 38.2598 49.6582 39.6016 48 39.6016Z" fill="#304674"/>
<path d="M9.89504 57.6611C9.89504 57.8493 9.80926 58.0042 9.63771 58.126C9.46616 58.2422 9.30292 58.3003 9.14797 58.3003C8.93768 58.3003 8.7606 58.2284 8.61672 58.0845C8.47837 57.9351 8.40643 57.7607 8.4009 57.5615L8.3843 57.0884V56.9639C8.3843 56.7757 8.47007 56.6208 8.64162 56.499C8.81317 56.3773 8.97642 56.3164 9.13137 56.3164C9.34165 56.3164 9.51597 56.3911 9.65432 56.5405C9.7982 56.6844 9.8729 56.856 9.87844 57.0552L9.89504 57.5366V57.6611ZM9.10646 59.3213C9.28908 59.3213 9.47723 59.3794 9.67092 59.4956C9.87014 59.6063 9.96975 59.7778 9.96975 60.0103L10.0029 68.1782C10.0029 68.9142 9.89227 69.6032 9.67092 70.2451C9.44956 70.887 9.0954 71.4045 8.60842 71.7974C8.12697 72.1958 7.49335 72.395 6.70754 72.395C6.51939 72.395 6.32847 72.3757 6.13478 72.3369C5.93557 72.3037 5.73911 72.2456 5.54543 72.1626C5.21893 72.0298 5.05568 71.7642 5.05568 71.3657C5.05568 71.1886 5.13316 71.0226 5.28811 70.8677C5.44305 70.7183 5.60907 70.6436 5.78615 70.6436C5.9411 70.6436 6.06561 70.6657 6.15969 70.71C6.35337 70.793 6.54706 70.8345 6.74074 70.8345C7.17238 70.8345 7.50995 70.71 7.75344 70.4609C7.99693 70.2119 8.16848 69.8743 8.26809 69.4482C8.37323 69.0221 8.4258 68.549 8.4258 68.0288L8.3926 59.9854C8.3926 59.8193 8.47284 59.6672 8.63332 59.5288C8.7938 59.3905 8.95152 59.3213 9.10646 59.3213ZM16.3029 59.2715C16.7124 59.2715 17.1109 59.3545 17.4982 59.5205C17.8911 59.681 18.2398 59.8857 18.5441 60.1348C18.854 60.3783 19.0837 60.63 19.2331 60.8901L19.3244 60.0933C19.3244 59.8664 19.3908 59.6727 19.5236 59.5122C19.6564 59.3462 19.8363 59.2632 20.0632 59.2632C20.2901 59.2632 20.4837 59.3462 20.6442 59.5122C20.8102 59.6727 20.8932 59.8664 20.8932 60.0933V60.1099L20.8766 67.7964C20.8766 68.0233 20.7936 68.2197 20.6276 68.3857C20.4671 68.5462 20.2735 68.6265 20.0466 68.6265C19.8197 68.6265 19.6398 68.5462 19.507 68.3857C19.3742 68.2197 19.3078 68.0233 19.3078 67.7964L19.2165 67.1323C18.9287 67.6248 18.5082 67.9928 17.9548 68.2363C17.4014 68.4743 16.8452 68.5933 16.2863 68.5933C15.661 68.5933 15.0744 68.4715 14.5265 68.228C13.9787 67.979 13.4972 67.6387 13.0822 67.207C12.6672 66.7754 12.3407 66.2801 12.1027 65.7212C11.8703 65.1623 11.7541 64.5729 11.7541 63.9531C11.7541 63.3389 11.8675 62.7523 12.0944 62.1934C12.3268 61.6289 12.6478 61.1281 13.0573 60.6909C13.4723 60.2482 13.9538 59.9023 14.5016 59.6533C15.055 59.3988 15.6554 59.2715 16.3029 59.2715ZM19.1667 63.9365C19.1667 63.3942 19.0394 62.8962 18.7848 62.4424C18.5358 61.9886 18.1955 61.6234 17.7638 61.3467C17.3322 61.07 16.8397 60.9316 16.2863 60.9316C15.744 60.9316 15.2542 61.07 14.8171 61.3467C14.3799 61.6234 14.034 61.9914 13.7795 62.4507C13.5249 62.9045 13.3976 63.397 13.3976 63.9282C13.3976 64.465 13.5277 64.9631 13.7878 65.4224C14.0479 65.8761 14.3965 66.2414 14.8337 66.5181C15.2764 66.7948 15.7634 66.9331 16.2946 66.9331C16.8259 66.9331 17.3073 66.7948 17.7389 66.5181C18.1761 66.2414 18.522 65.8761 18.7765 65.4224C19.0366 64.9631 19.1667 64.4678 19.1667 63.9365ZM25.45 57.6611C25.45 57.8493 25.3643 58.0042 25.1927 58.126C25.0212 58.2422 24.8579 58.3003 24.703 58.3003C24.4927 58.3003 24.3156 58.2284 24.1717 58.0845C24.0334 57.9351 23.9614 57.7607 23.9559 57.5615L23.9393 57.0884V56.9639C23.9393 56.7757 24.0251 56.6208 24.1966 56.499C24.3682 56.3773 24.5314 56.3164 24.6864 56.3164C24.8967 56.3164 25.071 56.3911 25.2093 56.5405C25.3532 56.6844 25.4279 56.856 25.4334 57.0552L25.45 57.5366V57.6611ZM24.6615 59.3213C24.8441 59.3213 25.0322 59.3794 25.2259 59.4956C25.4251 59.6063 25.5247 59.7778 25.5247 60.0103L25.5579 68.1782C25.5579 68.9142 25.4473 69.6032 25.2259 70.2451C25.0046 70.887 24.6504 71.4045 24.1634 71.7974C23.682 72.1958 23.0483 72.395 22.2625 72.395C22.0744 72.395 21.8835 72.3757 21.6898 72.3369C21.4906 72.3037 21.2941 72.2456 21.1004 72.1626C20.7739 72.0298 20.6107 71.7642 20.6107 71.3657C20.6107 71.1886 20.6882 71.0226 20.8431 70.8677C20.9981 70.7183 21.1641 70.6436 21.3412 70.6436C21.4961 70.6436 21.6206 70.6657 21.7147 70.71C21.9084 70.793 22.1021 70.8345 22.2957 70.8345C22.7274 70.8345 23.0649 70.71 23.3084 70.4609C23.5519 70.2119 23.7235 69.8743 23.8231 69.4482C23.9282 69.0221 23.9808 68.549 23.9808 68.0288L23.9476 59.9854C23.9476 59.8193 24.0278 59.6672 24.1883 59.5288C24.3488 59.3905 24.5065 59.3213 24.6615 59.3213ZM33.2607 67.2817C32.9619 67.5695 32.605 67.86 32.1899 68.1533C31.7749 68.4411 31.2879 68.585 30.729 68.585C30.0041 68.585 29.4009 68.394 28.9194 68.0122C28.438 67.6248 28.0838 67.1766 27.8569 66.6675C27.6799 66.2635 27.5719 65.8651 27.5332 65.4722C27.5 65.0737 27.4834 64.7002 27.4834 64.3516V60.1597C27.4834 59.9328 27.5636 59.7391 27.7241 59.5786C27.8901 59.4126 28.0866 59.3296 28.3135 59.3296C28.5404 59.3296 28.734 59.4126 28.8945 59.5786C29.0605 59.7391 29.1436 59.9328 29.1436 60.1597V64.3516C29.1436 64.6725 29.1574 64.9741 29.1851 65.2563C29.2183 65.533 29.2819 65.7765 29.376 65.9868C29.4867 66.2303 29.6527 66.4489 29.874 66.6426C30.0954 66.8307 30.3748 66.9248 30.7124 66.9248C31.5314 66.9248 32.1595 66.6121 32.5967 65.9868C33.0394 65.3615 33.258 64.5176 33.2524 63.4551L33.2441 60.1431C33.2441 59.9162 33.3244 59.7225 33.4849 59.562C33.6509 59.396 33.8473 59.313 34.0742 59.313C34.3066 59.313 34.5031 59.396 34.6636 59.562C34.8241 59.7225 34.9043 59.9189 34.9043 60.1514L34.9209 67.7798C34.9209 68.0067 34.8573 68.2031 34.73 68.3691C34.6082 68.5296 34.4339 68.6099 34.207 68.6099C33.9801 68.6099 33.8058 68.5296 33.6841 68.3691C33.5623 68.2031 33.4683 68.0067 33.4019 67.7798L33.2607 67.2817ZM36.5392 63.9282C36.5392 63.314 36.6471 62.7301 36.8629 62.1768C37.0788 61.6234 37.3831 61.1309 37.776 60.6992C38.1689 60.2676 38.6255 59.9272 39.1457 59.6782C39.6714 59.4292 40.2414 59.3047 40.8556 59.3047C41.4643 59.3047 42.015 59.4237 42.5075 59.6616C43.0055 59.894 43.4316 60.2039 43.7858 60.5913C44.1455 60.9731 44.4139 61.391 44.591 61.8447C44.6297 61.9388 44.6491 62.0439 44.6491 62.1602C44.6491 62.387 44.5661 62.5835 44.4001 62.7495C44.2396 62.91 44.0459 62.9902 43.819 62.9902C43.6641 62.9902 43.5119 62.9377 43.3625 62.8325C43.213 62.7274 43.1079 62.6001 43.047 62.4507C42.8921 62.0522 42.6209 61.7064 42.2336 61.4131C41.8517 61.1143 41.3924 60.9648 40.8556 60.9648C40.352 60.9648 39.8983 61.106 39.4943 61.3882C39.0959 61.6649 38.7804 62.0273 38.548 62.4756C38.3156 62.9238 38.1994 63.408 38.1994 63.9282C38.1994 64.4539 38.3184 64.9492 38.5563 65.4141C38.7943 65.8734 39.1208 66.2469 39.5358 66.5347C39.9508 66.8169 40.4185 66.958 40.9386 66.958C41.4477 66.958 41.8877 66.8307 42.2585 66.5762C42.6292 66.3161 42.9087 66.0145 43.0968 65.6714C43.1632 65.5496 43.2684 65.4473 43.4123 65.3643C43.5561 65.2757 43.6973 65.2314 43.8356 65.2314C44.0625 65.2314 44.2562 65.3145 44.4167 65.4805C44.5827 65.641 44.6657 65.8346 44.6657 66.0615C44.6657 66.1999 44.6297 66.3354 44.5578 66.4683C44.2423 67.0493 43.772 67.5529 43.1466 67.979C42.5213 68.4051 41.7853 68.6182 40.9386 68.6182C40.3078 68.6182 39.724 68.4937 39.1872 68.2446C38.6559 67.9901 38.1911 67.6442 37.7926 67.207C37.3997 66.7699 37.0926 66.2718 36.8713 65.7129C36.6499 65.1484 36.5392 64.5535 36.5392 63.9282ZM46.284 57.0967C46.284 56.8753 46.3642 56.6872 46.5247 56.5322C46.6852 56.3717 46.8817 56.2915 47.1141 56.2915C47.341 56.2915 47.5347 56.3717 47.6951 56.5322C47.8612 56.6872 47.9442 56.8753 47.9442 57.0967V60.7158C48.1544 60.2676 48.4616 59.9245 48.8655 59.6865C49.2695 59.443 49.6597 59.3213 50.036 59.3213C50.9048 59.3213 51.6131 59.4984 52.161 59.8525C52.7143 60.2067 53.1211 60.6992 53.3812 61.3301C53.6413 61.9609 53.7713 62.6886 53.7713 63.5132V63.5879L53.763 67.7798V67.7881C53.763 68.0094 53.68 68.2004 53.514 68.3608C53.3535 68.5158 53.1598 68.5933 52.9329 68.5933C52.706 68.5933 52.5096 68.5158 52.3436 68.3608C52.1831 68.2004 52.1029 68.0094 52.1029 67.7881V67.7798L52.1112 63.6294V63.6128C52.1112 62.7606 51.97 62.1104 51.6878 61.6621C51.4056 61.2139 50.855 60.9897 50.036 60.9897C49.3442 60.9897 48.824 61.2305 48.4754 61.7119C48.1323 62.1934 47.9608 62.8132 47.9608 63.5713V67.7964C47.9608 68.0177 47.8778 68.2087 47.7117 68.3691C47.5513 68.5241 47.3576 68.6016 47.1307 68.6016C46.8927 68.6016 46.6907 68.5213 46.5247 68.3608C46.3642 68.1948 46.284 68.0067 46.284 67.7964V57.0967ZM60.0713 59.2715C60.4808 59.2715 60.8792 59.3545 61.2666 59.5205C61.6595 59.681 62.0081 59.8857 62.3125 60.1348C62.6224 60.3783 62.852 60.63 63.0014 60.8901L63.0928 60.0933C63.0928 59.8664 63.1592 59.6727 63.292 59.5122C63.4248 59.3462 63.6046 59.2632 63.8315 59.2632C64.0584 59.2632 64.2521 59.3462 64.4126 59.5122C64.5786 59.6727 64.6616 59.8664 64.6616 60.0933V60.1099L64.645 67.7964C64.645 68.0233 64.562 68.2197 64.396 68.3857C64.2355 68.5462 64.0418 68.6265 63.8149 68.6265C63.588 68.6265 63.4082 68.5462 63.2754 68.3857C63.1426 68.2197 63.0762 68.0233 63.0762 67.7964L62.9848 67.1323C62.6971 67.6248 62.2765 67.9928 61.7231 68.2363C61.1697 68.4743 60.6136 68.5933 60.0547 68.5933C59.4293 68.5933 58.8428 68.4715 58.2949 68.228C57.7471 67.979 57.2656 67.6387 56.8506 67.207C56.4355 66.7754 56.109 66.2801 55.8711 65.7212C55.6387 65.1623 55.5224 64.5729 55.5224 63.9531C55.5224 63.3389 55.6359 62.7523 55.8628 62.1934C56.0952 61.6289 56.4162 61.1281 56.8257 60.6909C57.2407 60.2482 57.7221 59.9023 58.27 59.6533C58.8234 59.3988 59.4238 59.2715 60.0713 59.2715ZM62.935 63.9365C62.935 63.3942 62.8078 62.8962 62.5532 62.4424C62.3042 61.9886 61.9638 61.6234 61.5322 61.3467C61.1006 61.07 60.6081 60.9316 60.0547 60.9316C59.5124 60.9316 59.0226 61.07 58.5854 61.3467C58.1483 61.6234 57.8024 61.9914 57.5478 62.4507C57.2933 62.9045 57.166 63.397 57.166 63.9282C57.166 64.465 57.296 64.9631 57.5561 65.4224C57.8162 65.8761 58.1649 66.2414 58.602 66.5181C59.0447 66.7948 59.5317 66.9331 60.063 66.9331C60.5942 66.9331 61.0757 66.7948 61.5073 66.5181C61.9445 66.2414 62.2903 65.8761 62.5449 65.4224C62.805 64.9631 62.935 64.4678 62.935 63.9365Z" fill="#304674"/>
</svg>
