<svg width="158" height="48" viewBox="0 0 158 48" fill="none" xmlns="http://www.w3.org/2000/svg">
<ellipse cx="78.4322" cy="40.1294" rx="34.9947" ry="7.85595" fill="#494949"/>
<rect x="43.4375" y="8.69531" width="69.9894" height="31.4238" fill="#494949"/>
<ellipse cx="78.4322" cy="8.6997" rx="34.9947" ry="7.85595" fill="#686868"/>
<path d="M85.582 16.3829L92.0096 15.9531L98.0801 46.6083L96.4732 46.8368L94.8663 47.0297L92.0096 47.3582L85.582 16.3829Z" fill="#545454"/>
<path d="M95.5707 15.5578L99.4964 14.9869L105.052 45.1963L104.057 45.482L103.06 45.6891L101.638 45.9819L95.5707 15.5578Z" fill="#545454"/>
<path d="M132.406 26.0848C132.486 26.127 132.555 26.1667 132.615 26.2033C132.555 26.24 132.486 26.2796 132.406 26.3219C131.789 26.6483 130.8 27.0006 129.414 27.3553C126.663 28.0596 122.627 28.706 117.575 29.2531C107.487 30.3454 93.5179 31.0238 78.0668 31.0238C62.6158 31.0238 48.6471 30.3454 38.5589 29.2531C33.5068 28.706 29.4707 28.0596 26.7196 27.3553C25.3341 27.0006 24.3445 26.6483 23.7275 26.3219C23.6477 26.2796 23.5783 26.24 23.5183 26.2033C23.5783 26.1666 23.6477 26.127 23.7275 26.0848C24.3445 25.7583 25.3341 25.4061 26.7196 25.0514C29.4707 24.3471 33.5068 23.7006 38.5589 23.1536C48.6471 22.0612 62.6158 21.3828 78.0668 21.3828C93.5179 21.3828 107.487 22.0612 117.575 23.1536C122.627 23.7006 126.663 24.3471 129.414 25.0514C130.8 25.4061 131.789 25.7583 132.406 26.0848Z" stroke="#B7DDB4" stroke-width="2.5"/>
<path d="M152.874 27.9783C152.874 28.0805 152.79 28.4764 151.875 29.1092C151.008 29.7088 149.649 30.337 147.779 30.9627C144.054 32.2087 138.598 33.3502 131.776 34.3156C118.151 36.2437 99.2866 37.4409 78.4215 37.4409C57.5565 37.4409 38.6921 36.2437 25.0667 34.3156C18.2446 33.3502 12.7886 32.2087 9.06445 30.9627C7.19407 30.337 5.8348 29.7088 4.96774 29.1092C4.05279 28.4764 3.96875 28.0805 3.96875 27.9783C3.96875 27.8761 4.05279 27.4801 4.96774 26.8474C5.8348 26.2478 7.19407 25.6196 9.06445 24.9938C12.7886 23.7479 18.2446 22.6064 25.0667 21.641C38.6921 19.7128 57.5565 18.5156 78.4215 18.5156C99.2866 18.5156 118.151 19.7128 131.776 21.641C138.598 22.6064 144.054 23.7479 147.779 24.9938C149.649 25.6196 151.008 26.2478 151.875 26.8474C152.79 27.4801 152.874 27.8761 152.874 27.9783Z" stroke="#7BC677" stroke-width="2.5"/>
<rect x="43.4219" y="18.7031" width="69.9894" height="4.99924" fill="#494949"/>
<rect x="43.4219" y="16.5547" width="69.9894" height="6.4276" fill="#494949"/>
<path d="M85.5625 16.5547L91.9218 16.2849L94.0631 26.4916L87.9526 27.7735L85.5625 16.5547Z" fill="#545454"/>
<path d="M95.7734 16.3281L99.6322 15.8427L101.68 26.8824L97.9336 27.5935L95.7734 16.3281Z" fill="#545454"/>
</svg>
