<svg width="45" height="50" viewBox="0 0 45 50" fill="none" xmlns="http://www.w3.org/2000/svg">
<path d="M0 10.7619C0 9.57324 0.847466 8.60959 1.89287 8.60959L8.43017 8.60844C9.72905 8.571 10.8749 7.63188 11.3169 6.24256C11.3285 6.20603 11.3419 6.16098 11.3898 5.99749L11.6715 5.03641C11.8439 4.44715 11.994 3.93376 12.2042 3.47489C13.0344 1.66206 14.5704 0.4032 16.3454 0.0809036C16.7947 -0.000682627 17.2705 -0.000338923 17.8167 5.36724e-05H26.3507C26.8969 -0.000338923 27.3727 -0.000682627 27.822 0.0809036C29.597 0.4032 31.133 1.66206 31.9631 3.47489C32.1734 3.93376 32.3236 4.44715 32.4958 5.03641L32.7775 5.99749C32.8254 6.16098 32.8389 6.20603 32.8504 6.24256C33.2926 7.63188 34.6657 8.57215 35.9644 8.60959H42.2742C43.3194 8.60959 44.167 9.57324 44.167 10.7619C44.167 11.9507 43.3194 12.9143 42.2742 12.9143H1.89287C0.847466 12.9143 0 11.9507 0 10.7619Z" fill="#DB4747"/>
<path fill-rule="evenodd" clip-rule="evenodd" d="M21.0978 49.0771H23.0824C29.9104 49.0771 33.3245 49.0771 35.5441 46.9034C37.764 44.7296 37.9909 41.1639 38.4451 34.0322L39.0995 23.7562C39.3461 19.8867 39.4693 17.9521 38.3556 16.726C37.2421 15.5 35.3615 15.5 31.6007 15.5H12.5796C8.81859 15.5 6.93809 15.5 5.82451 16.726C4.71094 17.9521 4.83417 19.8867 5.08062 23.7562L5.73505 34.0322C6.18926 41.1639 6.41635 44.7296 8.63609 46.9034C10.8558 49.0771 14.2698 49.0771 21.0978 49.0771ZM17.787 25.0025C17.6859 23.938 16.784 23.1612 15.7727 23.2677C14.7614 23.3742 14.0235 24.3235 14.1246 25.388L15.3515 38.3024C15.4526 39.3668 16.3545 40.1436 17.3657 40.0372C18.3771 39.9307 19.115 38.9813 19.0139 37.9169L17.787 25.0025ZM28.4075 23.2677C29.4189 23.3742 30.1567 24.3235 30.0556 25.388L28.8288 38.3024C28.7277 39.3668 27.8257 40.1436 26.8145 40.0372C25.8031 39.9307 25.0652 38.9813 25.1663 37.9169L26.3932 25.0025C26.4943 23.938 27.3963 23.1612 28.4075 23.2677Z" fill="#DB4747"/>
</svg>
