<svg width="34" height="34" viewBox="0 0 34 34" fill="none" xmlns="http://www.w3.org/2000/svg">
<g clip-path="url(#clip0_2183_2000)">
<g filter="url(#filter0_f_2183_2000)">
<path d="M26.7629 34.2488C28.1808 33.8208 30.7622 32.6511 31.6899 31.7854C32.7598 30.8792 30.9857 29.7877 30.7224 29.635C30.4591 29.4822 13.5685 21.0632 11.3119 20.0702C9.05526 19.0772 3.28081 22.5762 1.55051 23.5367C0.1401 24.3197 1.13679 24.8735 1.32484 25.0263C1.5129 25.179 14.4266 31.8617 18.3005 33.695C21.2342 35.0833 23.9797 35.089 26.7629 34.2488Z" fill="black" fill-opacity="0.2"/>
</g>
<path fill-rule="evenodd" clip-rule="evenodd" d="M14.4756 25.9377L16.2053 25.1355L16.2058 25.1366C16.2169 25.1312 16.2279 25.126 16.2392 25.121C17.2695 24.6586 18.7394 25.7062 19.5222 27.4608C20.3051 29.2153 20.1045 31.0126 19.0741 31.475C19.0594 31.4816 19.0446 31.4879 19.0297 31.4939L17.3635 32.2676L16.438 30.2391C16.1944 29.9166 15.974 29.5452 15.7911 29.1352C15.6223 28.7571 15.4993 28.377 15.4204 28.0087L14.4756 25.9377Z" fill="white"/>
<path d="M17.3568 32.2702C16.3264 32.7325 14.8571 31.6861 14.0748 29.9329C13.2926 28.1797 13.4937 26.3836 14.524 25.9212C15.5544 25.4588 17.0238 26.5052 17.806 28.2585C18.5883 30.0117 18.3871 31.8078 17.3568 32.2702Z" fill="white"/>
<g filter="url(#filter1_d_2183_2000)">
<path d="M16.9441 31.4788C16.1713 31.8256 15.0693 31.0407 14.4825 29.7257C13.8958 28.4107 14.0467 27.0636 14.8195 26.7168C15.5923 26.37 16.6944 27.1549 17.2811 28.4698C17.8678 29.7848 17.7169 31.132 16.9441 31.4788Z" fill="url(#paint0_linear_2183_2000)"/>
</g>
<g filter="url(#filter2_di_2183_2000)">
<path fill-rule="evenodd" clip-rule="evenodd" d="M15.9325 27.2333C16.1577 27.364 16.3801 27.5604 16.5805 27.8088L16.1331 28.5858C16.0701 28.5117 16.0019 28.4507 15.9325 28.4055V27.2333ZM15.9325 29.8679C16.0351 29.911 16.1365 29.9171 16.2246 29.8775C16.226 29.8769 16.2273 29.8763 16.2287 29.8757L16.8817 31.01C16.8448 31.035 16.8058 31.0568 16.7647 31.0753C16.5149 31.1874 16.2238 31.1572 15.9325 31.0142V29.8679ZM15.8537 30.9727V29.8276C15.7745 29.78 15.6965 29.7117 15.625 29.6265L15.1865 30.3883C15.3927 30.6431 15.622 30.8429 15.8537 30.9727ZM15.8537 28.3613V27.1903C15.5549 27.0377 15.2552 27.003 14.9991 27.118C14.9278 27.15 14.8628 27.1922 14.8044 27.2435L15.4645 28.3901C15.487 28.3704 15.512 28.3541 15.5395 28.3418C15.6339 28.2994 15.7436 28.3095 15.8537 28.3613ZM14.7191 29.6185C14.836 29.8804 14.9774 30.1171 15.1339 30.3216L15.5727 29.5594C15.5196 29.4861 15.4714 29.4031 15.4308 29.3122C15.4245 29.2979 15.4183 29.2836 15.4125 29.2693L14.6575 29.4722C14.6768 29.521 14.6973 29.5697 14.7191 29.6185ZM16.1859 28.6523L16.633 27.8757C16.7882 28.0793 16.9286 28.3145 17.0447 28.5748C17.068 28.6269 17.0898 28.6791 17.1103 28.7313L16.3461 28.9367C16.3419 28.9268 16.3377 28.917 16.3333 28.9072C16.2914 28.8131 16.2412 28.7275 16.1859 28.6523ZM14.629 29.3981C14.4915 29.0275 14.4236 28.6604 14.4219 28.3304L15.3163 28.8483C15.3209 28.9573 15.3433 29.0754 15.3846 29.195L14.629 29.3981ZM16.3748 29.0107C16.4246 29.1506 16.4488 29.2886 16.4487 29.4128L17.3414 29.9297C17.349 29.5858 17.2829 29.1978 17.1385 28.8055L16.3748 29.0107ZM17.3377 30.0187L16.4443 29.5014C16.4297 29.6445 16.3792 29.7624 16.2952 29.8331L16.9451 30.962C17.1792 30.7658 17.3128 30.4275 17.3377 30.0187ZM14.4231 28.2399L15.3168 28.7574C15.3234 28.6357 15.3547 28.5298 15.4092 28.4521L14.746 27.3001C14.5456 27.5137 14.4357 27.8471 14.4231 28.2399Z" fill="white"/>
</g>
<path fill-rule="evenodd" clip-rule="evenodd" d="M14.4756 25.9011L16.2053 25.0989L16.2059 25.1001C16.2167 25.0949 16.2276 25.0898 16.2386 25.0849C17.269 24.6225 18.7389 25.67 19.5217 27.4246C20.3045 29.1792 20.1039 30.9764 19.0736 31.4389C19.058 31.4458 19.0423 31.4524 19.0266 31.4587L17.3635 32.2311L16.4394 30.2056C16.1951 29.8825 15.9739 29.5102 15.7905 29.0991C15.6213 28.7199 15.4981 28.3387 15.4192 27.9694L14.4756 25.9011Z" fill="white"/>
<path d="M14.0628 29.9329C14.8451 31.6861 16.3145 32.7326 17.3448 32.2702C18.3752 31.8078 18.5763 30.0117 17.7941 28.2585C17.0118 26.5053 15.4982 25.3645 14.4679 25.8268C13.4375 26.2892 13.2806 28.1797 14.0628 29.9329Z" fill="white"/>
<g filter="url(#filter3_d_2183_2000)">
<path d="M16.6969 31.4807C15.9505 31.7523 14.9895 30.9052 14.5503 29.5885C14.1112 28.2719 14.3602 26.9843 15.1066 26.7126C15.853 26.4409 16.814 27.2881 17.2532 28.6047C17.6923 29.9214 17.4432 31.209 16.6969 31.4807Z" fill="white"/>
</g>
<g filter="url(#filter4_di_2183_2000)">
<path fill-rule="evenodd" clip-rule="evenodd" d="M14.9307 29.5515C15.2481 30.4178 15.871 30.9839 16.3889 30.8881L16.0797 29.9826C15.8526 29.9799 15.5985 29.7424 15.4497 29.3865L14.9307 29.5515ZM14.8571 29.3261C14.6121 28.4716 14.7564 27.6598 15.1939 27.3883L15.5032 28.2942C15.3349 28.4486 15.2812 28.7934 15.3746 29.1616L14.8571 29.3261ZM16.3665 28.8463C16.2212 28.4701 15.9587 28.2152 15.724 28.2099L15.4145 27.3036C15.9396 27.2108 16.571 27.7956 16.8825 28.6823L16.3665 28.8463ZM16.4355 29.0732L16.9531 28.9086C17.1807 29.7447 17.0358 30.5319 16.6089 30.8016L16.2996 29.8956C16.4593 29.746 16.514 29.4232 16.4355 29.0732Z" fill="white"/>
</g>
<path fill-rule="evenodd" clip-rule="evenodd" d="M2.37109 20.8499L3.66692 20.249L3.66715 20.2495C3.67526 20.2456 3.68343 20.2418 3.69164 20.2381C4.46351 19.8917 5.56466 20.6765 6.1511 21.9909C6.73758 23.3054 6.58729 24.6517 5.81541 24.9981C5.80609 25.0023 5.79674 25.0063 5.78733 25.0101L4.53454 25.5919L3.8422 24.0745C3.65908 23.8323 3.49339 23.5534 3.35593 23.2453C3.22914 22.9611 3.13679 22.6755 3.07771 22.3987L2.37109 20.8499Z" fill="white"/>
<path d="M4.30836 25.681C3.5081 25.9555 2.48345 25.0744 2.01974 23.713C1.55604 22.3516 1.82887 21.0254 2.62913 20.7509C3.42939 20.4764 4.45403 21.3575 4.91774 22.7189C5.38145 24.0803 5.10862 25.4065 4.30836 25.681Z" fill="white"/>
<g filter="url(#filter5_d_2183_2000)">
<path d="M4.22115 25.0007C3.64222 25.2605 2.8166 24.6725 2.37707 23.6874C1.93754 22.7023 2.05055 21.6931 2.62949 21.4333C3.20842 21.1735 4.03404 21.7615 4.47357 22.7466C4.91309 23.7317 4.80008 24.7409 4.22115 25.0007Z" fill="url(#paint1_linear_2183_2000)"/>
</g>
<g filter="url(#filter6_di_2183_2000)">
<path fill-rule="evenodd" clip-rule="evenodd" d="M3.48145 21.8329C3.64318 21.9306 3.80242 22.0732 3.94652 22.2517L3.61157 22.8335C3.57041 22.7853 3.52642 22.7445 3.48145 22.7125V21.8329ZM3.48145 23.8023C3.54538 23.8252 3.6081 23.8285 3.66444 23.8083L4.15554 24.6614C4.13304 24.6756 4.1095 24.6882 4.08495 24.6992C3.90351 24.7807 3.69295 24.7619 3.48145 24.663V23.8023ZM3.40259 24.6225V23.7644C3.34815 23.7316 3.29441 23.6858 3.24458 23.6291L2.91561 24.2005C3.06675 24.3839 3.23386 24.5279 3.40259 24.6225ZM3.40259 22.6659V21.7889C3.17876 21.6745 2.95417 21.6485 2.76222 21.7346C2.70865 21.7587 2.65988 21.7904 2.61601 21.829L3.11053 22.6881C3.12757 22.6731 3.14652 22.6607 3.16734 22.6514C3.23804 22.6196 3.32015 22.6271 3.40259 22.6659ZM2.55246 23.6079C2.63993 23.8039 2.7458 23.981 2.86285 24.1341L3.19173 23.5628C3.15211 23.5081 3.11619 23.4461 3.08593 23.3783C3.08387 23.3737 3.08185 23.3691 3.07987 23.3644L2.51365 23.5166C2.52595 23.547 2.53889 23.5775 2.55246 23.6079ZM3.66376 22.9009L3.99882 22.319C4.1101 22.4676 4.21086 22.6381 4.2947 22.826C4.31208 22.865 4.32846 22.904 4.34376 22.943L3.77155 23.0968C3.76845 23.0895 3.76529 23.0822 3.76203 23.0749C3.73371 23.0114 3.70042 22.953 3.66376 22.9009ZM2.48494 23.4426C2.38511 23.1736 2.33434 22.9072 2.33008 22.666L3.00155 23.0548C3.00699 23.1296 3.0234 23.2095 3.05123 23.2904L2.48494 23.4426ZM3.79953 23.1711C3.83252 23.2696 3.84856 23.3664 3.84846 23.454L4.51692 23.8411C4.52254 23.5888 4.47516 23.3049 4.37171 23.0173L3.79953 23.1711ZM4.51269 23.9298L3.84254 23.5418C3.82889 23.6395 3.79183 23.7198 3.73284 23.7691L4.21967 24.6147C4.39108 24.4713 4.49063 24.2263 4.51269 23.9298ZM2.33071 22.5752L3.00051 22.963C3.00491 22.8815 3.02404 22.8095 3.05717 22.7535L2.5583 21.8869C2.41727 22.0473 2.33987 22.2904 2.33071 22.5752Z" fill="white"/>
</g>
<path fill-rule="evenodd" clip-rule="evenodd" d="M2.37012 20.8228L3.66593 20.2219L3.6661 20.2222C3.67423 20.2183 3.68241 20.2145 3.69068 20.2108C4.46256 19.8644 5.56367 20.6491 6.15015 21.9636C6.73659 23.278 6.58626 24.6244 5.81442 24.9708C5.80655 24.9743 5.79865 24.9777 5.79074 24.981L4.53355 25.5648L3.84097 24.0468C3.65796 23.8047 3.49233 23.5259 3.35495 23.218C3.22824 22.934 3.13591 22.6484 3.07683 22.3719L2.37012 20.8228Z" fill="white"/>
<path d="M1.90981 23.6038C2.25752 24.9993 3.27469 25.9457 4.18171 25.7176C5.08875 25.4896 5.54218 24.1734 5.19448 22.7778C4.84678 21.3823 3.80919 20.3605 2.90215 20.5885C1.99511 20.8166 1.56211 22.2082 1.90981 23.6038Z" fill="white"/>
<g filter="url(#filter7_d_2183_2000)">
<path d="M3.79546 25.1231C3.22218 25.2824 2.5538 24.5937 2.30261 23.5847C2.05141 22.5757 2.31252 21.6286 2.8858 21.4692C3.45909 21.3099 4.12746 21.9986 4.37866 23.0076C4.62985 24.0166 4.36875 24.9637 3.79546 25.1231Z" fill="white"/>
</g>
<g filter="url(#filter8_di_2183_2000)">
<path fill-rule="evenodd" clip-rule="evenodd" d="M2.60794 23.6368C2.79222 24.2373 3.17711 24.6563 3.54092 24.6654L3.35852 23.9544C3.22231 23.9074 3.08947 23.754 3.00757 23.5433L2.60794 23.6368ZM2.54941 23.407C2.42342 22.7897 2.55549 22.2212 2.86017 22.0116L3.04241 22.722C2.94237 22.8457 2.90223 23.0703 2.94436 23.3145L2.54941 23.407ZM3.70362 23.1369C3.61712 22.8474 3.43596 22.6417 3.26103 22.6238L3.08282 21.929C3.48062 21.8896 3.91858 22.3633 4.09965 23.0442L3.70362 23.1369ZM3.74875 23.3698L4.14952 23.276C4.25085 23.8909 4.09571 24.4409 3.77091 24.6116L3.59254 23.9161C3.71072 23.8213 3.77054 23.6111 3.74875 23.3698Z" fill="white"/>
</g>
<g filter="url(#filter9_ii_2183_2000)">
<path d="M1.20282 22.4728C1.21667 22.6523 1.29154 22.8044 1.39437 22.9292C1.49378 23.0499 1.68597 22.9765 1.71141 22.8223C1.73201 22.6974 1.75989 22.5114 1.79846 22.2256C1.94653 21.1283 2.72327 20.7057 3.19502 20.8089C3.73122 20.9262 4.21136 21.3693 4.4997 22.1099C4.73225 22.7072 4.87229 23.0446 5.04491 24.4007C5.04989 24.4398 5.06603 24.4756 5.09862 24.4978C5.79987 24.9757 13.7641 29.0222 13.7375 28.9264C13.6656 28.6673 13.6638 27.4416 13.9218 26.844C14.4285 25.6702 15.2196 25.7821 15.6448 25.8471C16.0955 25.9159 17.1428 26.4657 17.6866 27.5719C18.549 29.3262 18.3346 30.5178 18.549 31.1447C18.6193 31.3505 22.049 32.6493 23.2687 32.9553C26.3185 33.8642 30.6261 30.7677 31.4386 30.168C32.2511 29.5683 32.3172 27.8049 32.1978 25.8471C32.1996 24.7028 31.9546 24.1096 31.7794 23.927C30.9417 23.0538 28.9542 21.6379 27.6828 20.9545C27.6618 20.9432 27.6427 20.9281 27.6266 20.9105C24.5199 17.5221 24.3218 17.0997 23.2523 16.58C21.0786 15.5236 12.2277 11.9297 10.2817 11.9297C9.13177 11.9297 5.08348 13.2371 3.99 14.0706C3.12368 14.7309 2.29351 16.1941 1.85197 17.153C1.84332 17.1718 1.83782 17.1905 1.83515 17.211C1.74845 17.8757 1.58093 19.8379 1.40489 20.0289C1.18143 20.2712 1.1731 22.0873 1.20282 22.4728Z" fill="white"/>
</g>
</g>
<defs>
<filter id="filter0_f_2183_2000" x="0.471316" y="19.5582" width="31.8953" height="15.5994" filterUnits="userSpaceOnUse" color-interpolation-filters="sRGB">
<feFlood flood-opacity="0" result="BackgroundImageFix"/>
<feBlend mode="normal" in="SourceGraphic" in2="BackgroundImageFix" result="shape"/>
<feGaussianBlur stdDeviation="0.16815" result="effect1_foregroundBlur_2183_2000"/>
</filter>
<filter id="filter1_d_2183_2000" x="14.0855" y="26.5953" width="3.59258" height="5.00469" filterUnits="userSpaceOnUse" color-interpolation-filters="sRGB">
<feFlood flood-opacity="0" result="BackgroundImageFix"/>
<feColorMatrix in="SourceAlpha" type="matrix" values="0 0 0 0 0 0 0 0 0 0 0 0 0 0 0 0 0 0 127 0" result="hardAlpha"/>
<feOffset/>
<feGaussianBlur stdDeviation="0.0197276"/>
<feComposite in2="hardAlpha" operator="out"/>
<feColorMatrix type="matrix" values="0 0 0 0 0 0 0 0 0 0 0 0 0 0 0 0 0 0 0.25 0"/>
<feBlend mode="normal" in2="BackgroundImageFix" result="effect1_dropShadow_2183_2000"/>
<feBlend mode="normal" in="SourceGraphic" in2="effect1_dropShadow_2183_2000" result="shape"/>
</filter>
<filter id="filter2_di_2183_2000" x="14.3035" y="27.0419" width="3.06196" height="4.18055" filterUnits="userSpaceOnUse" color-interpolation-filters="sRGB">
<feFlood flood-opacity="0" result="BackgroundImageFix"/>
<feColorMatrix in="SourceAlpha" type="matrix" values="0 0 0 0 0 0 0 0 0 0 0 0 0 0 0 0 0 0 127 0" result="hardAlpha"/>
<feOffset dy="0.0157821"/>
<feGaussianBlur stdDeviation="0.0118365"/>
<feColorMatrix type="matrix" values="0 0 0 0 1 0 0 0 0 1 0 0 0 0 1 0 0 0 0.41 0"/>
<feBlend mode="normal" in2="BackgroundImageFix" result="effect1_dropShadow_2183_2000"/>
<feBlend mode="normal" in="SourceGraphic" in2="effect1_dropShadow_2183_2000" result="shape"/>
<feColorMatrix in="SourceAlpha" type="matrix" values="0 0 0 0 0 0 0 0 0 0 0 0 0 0 0 0 0 0 127 0" result="hardAlpha"/>
<feOffset dx="-0.118365" dy="0.0789103"/>
<feGaussianBlur stdDeviation="0.0591829"/>
<feComposite in2="hardAlpha" operator="arithmetic" k2="-1" k3="1"/>
<feColorMatrix type="matrix" values="0 0 0 0 0 0 0 0 0 0 0 0 0 0 0 0 0 0 0.25 0"/>
<feBlend mode="normal" in2="shape" result="effect2_innerShadow_2183_2000"/>
</filter>
<filter id="filter3_d_2183_2000" x="14.2804" y="26.6095" width="3.24187" height="4.97429" filterUnits="userSpaceOnUse" color-interpolation-filters="sRGB">
<feFlood flood-opacity="0" result="BackgroundImageFix"/>
<feColorMatrix in="SourceAlpha" type="matrix" values="0 0 0 0 0 0 0 0 0 0 0 0 0 0 0 0 0 0 127 0" result="hardAlpha"/>
<feOffset/>
<feGaussianBlur stdDeviation="0.0262872"/>
<feComposite in2="hardAlpha" operator="out"/>
<feColorMatrix type="matrix" values="0 0 0 0 0 0 0 0 0 0 0 0 0 0 0 0 0 0 0.25 0"/>
<feBlend mode="normal" in2="BackgroundImageFix" result="effect1_dropShadow_2183_2000"/>
<feBlend mode="normal" in="SourceGraphic" in2="effect1_dropShadow_2183_2000" result="shape"/>
</filter>
<filter id="filter4_di_2183_2000" x="14.671" y="27.2895" width="2.41192" height="3.6538" filterUnits="userSpaceOnUse" color-interpolation-filters="sRGB">
<feFlood flood-opacity="0" result="BackgroundImageFix"/>
<feColorMatrix in="SourceAlpha" type="matrix" values="0 0 0 0 0 0 0 0 0 0 0 0 0 0 0 0 0 0 127 0" result="hardAlpha"/>
<feOffset dy="0.0179301"/>
<feGaussianBlur stdDeviation="0.0112063"/>
<feColorMatrix type="matrix" values="0 0 0 0 1 0 0 0 0 1 0 0 0 0 1 0 0 0 0.59 0"/>
<feBlend mode="normal" in2="BackgroundImageFix" result="effect1_dropShadow_2183_2000"/>
<feBlend mode="normal" in="SourceGraphic" in2="effect1_dropShadow_2183_2000" result="shape"/>
<feColorMatrix in="SourceAlpha" type="matrix" values="0 0 0 0 0 0 0 0 0 0 0 0 0 0 0 0 0 0 127 0" result="hardAlpha"/>
<feOffset dx="-0.0672379" dy="0.0448252"/>
<feGaussianBlur stdDeviation="0.0336189"/>
<feComposite in2="hardAlpha" operator="arithmetic" k2="-1" k3="1"/>
<feColorMatrix type="matrix" values="0 0 0 0 0 0 0 0 0 0 0 0 0 0 0 0 0 0 0.25 0"/>
<feBlend mode="normal" in2="shape" result="effect2_innerShadow_2183_2000"/>
</filter>
<filter id="filter5_d_2183_2000" x="2.06992" y="21.3326" width="2.71075" height="3.76934" filterUnits="userSpaceOnUse" color-interpolation-filters="sRGB">
<feFlood flood-opacity="0" result="BackgroundImageFix"/>
<feColorMatrix in="SourceAlpha" type="matrix" values="0 0 0 0 0 0 0 0 0 0 0 0 0 0 0 0 0 0 127 0" result="hardAlpha"/>
<feOffset/>
<feGaussianBlur stdDeviation="0.0197276"/>
<feComposite in2="hardAlpha" operator="out"/>
<feColorMatrix type="matrix" values="0 0 0 0 0 0 0 0 0 0 0 0 0 0 0 0 0 0 0.25 0"/>
<feBlend mode="normal" in2="BackgroundImageFix" result="effect1_dropShadow_2183_2000"/>
<feBlend mode="normal" in="SourceGraphic" in2="effect1_dropShadow_2183_2000" result="shape"/>
</filter>
<filter id="filter6_di_2183_2000" x="2.21171" y="21.6757" width="2.32954" height="3.15321" filterUnits="userSpaceOnUse" color-interpolation-filters="sRGB">
<feFlood flood-opacity="0" result="BackgroundImageFix"/>
<feColorMatrix in="SourceAlpha" type="matrix" values="0 0 0 0 0 0 0 0 0 0 0 0 0 0 0 0 0 0 127 0" result="hardAlpha"/>
<feOffset dy="0.0157821"/>
<feGaussianBlur stdDeviation="0.0118365"/>
<feColorMatrix type="matrix" values="0 0 0 0 1 0 0 0 0 1 0 0 0 0 1 0 0 0 0.41 0"/>
<feBlend mode="normal" in2="BackgroundImageFix" result="effect1_dropShadow_2183_2000"/>
<feBlend mode="normal" in="SourceGraphic" in2="effect1_dropShadow_2183_2000" result="shape"/>
<feColorMatrix in="SourceAlpha" type="matrix" values="0 0 0 0 0 0 0 0 0 0 0 0 0 0 0 0 0 0 127 0" result="hardAlpha"/>
<feOffset dx="-0.118365" dy="0.0789103"/>
<feGaussianBlur stdDeviation="0.0591829"/>
<feComposite in2="hardAlpha" operator="arithmetic" k2="-1" k3="1"/>
<feColorMatrix type="matrix" values="0 0 0 0 0 0 0 0 0 0 0 0 0 0 0 0 0 0 0.25 0"/>
<feBlend mode="normal" in2="shape" result="effect2_innerShadow_2183_2000"/>
</filter>
<filter id="filter7_d_2183_2000" x="2.15446" y="21.3937" width="2.37273" height="3.80437" filterUnits="userSpaceOnUse" color-interpolation-filters="sRGB">
<feFlood flood-opacity="0" result="BackgroundImageFix"/>
<feColorMatrix in="SourceAlpha" type="matrix" values="0 0 0 0 0 0 0 0 0 0 0 0 0 0 0 0 0 0 127 0" result="hardAlpha"/>
<feOffset/>
<feGaussianBlur stdDeviation="0.0262872"/>
<feComposite in2="hardAlpha" operator="out"/>
<feColorMatrix type="matrix" values="0 0 0 0 0 0 0 0 0 0 0 0 0 0 0 0 0 0 0.25 0"/>
<feBlend mode="normal" in2="BackgroundImageFix" result="effect1_dropShadow_2183_2000"/>
<feBlend mode="normal" in="SourceGraphic" in2="effect1_dropShadow_2183_2000" result="shape"/>
</filter>
<filter id="filter8_di_2183_2000" x="2.43472" y="21.9223" width="1.76836" height="2.78759" filterUnits="userSpaceOnUse" color-interpolation-filters="sRGB">
<feFlood flood-opacity="0" result="BackgroundImageFix"/>
<feColorMatrix in="SourceAlpha" type="matrix" values="0 0 0 0 0 0 0 0 0 0 0 0 0 0 0 0 0 0 127 0" result="hardAlpha"/>
<feOffset dy="0.0179301"/>
<feGaussianBlur stdDeviation="0.0112063"/>
<feColorMatrix type="matrix" values="0 0 0 0 1 0 0 0 0 1 0 0 0 0 1 0 0 0 0.59 0"/>
<feBlend mode="normal" in2="BackgroundImageFix" result="effect1_dropShadow_2183_2000"/>
<feBlend mode="normal" in="SourceGraphic" in2="effect1_dropShadow_2183_2000" result="shape"/>
<feColorMatrix in="SourceAlpha" type="matrix" values="0 0 0 0 0 0 0 0 0 0 0 0 0 0 0 0 0 0 127 0" result="hardAlpha"/>
<feOffset dx="-0.0672379" dy="0.0448252"/>
<feGaussianBlur stdDeviation="0.0336189"/>
<feComposite in2="hardAlpha" operator="arithmetic" k2="-1" k3="1"/>
<feColorMatrix type="matrix" values="0 0 0 0 0 0 0 0 0 0 0 0 0 0 0 0 0 0 0.25 0"/>
<feBlend mode="normal" in2="shape" result="effect2_innerShadow_2183_2000"/>
</filter>
<filter id="filter9_ii_2183_2000" x="1.19043" y="11.5091" width="31.3692" height="21.612" filterUnits="userSpaceOnUse" color-interpolation-filters="sRGB">
<feFlood flood-opacity="0" result="BackgroundImageFix"/>
<feBlend mode="normal" in="SourceGraphic" in2="BackgroundImageFix" result="shape"/>
<feColorMatrix in="SourceAlpha" type="matrix" values="0 0 0 0 0 0 0 0 0 0 0 0 0 0 0 0 0 0 127 0" result="hardAlpha"/>
<feOffset dx="0.315447" dy="-0.420594"/>
<feGaussianBlur stdDeviation="1.26179"/>
<feComposite in2="hardAlpha" operator="arithmetic" k2="-1" k3="1"/>
<feColorMatrix type="matrix" values="0 0 0 0 0 0 0 0 0 0 0 0 0 0 0 0 0 0 0.07 0"/>
<feBlend mode="normal" in2="shape" result="effect1_innerShadow_2183_2000"/>
<feColorMatrix in="SourceAlpha" type="matrix" values="0 0 0 0 0 0 0 0 0 0 0 0 0 0 0 0 0 0 127 0" result="hardAlpha"/>
<feOffset dy="-0.0525746"/>
<feGaussianBlur stdDeviation="0.105149"/>
<feComposite in2="hardAlpha" operator="arithmetic" k2="-1" k3="1"/>
<feColorMatrix type="matrix" values="0 0 0 0 0 0 0 0 0 0 0 0 0 0 0 0 0 0 0.09 0"/>
<feBlend mode="normal" in2="effect1_innerShadow_2183_2000" result="effect2_innerShadow_2183_2000"/>
</filter>
<linearGradient id="paint0_linear_2183_2000" x1="14.2018" y1="34.2111" x2="12.9397" y2="31.839" gradientUnits="userSpaceOnUse">
<stop stop-color="#3F3F3F"/>
<stop offset="1" stop-color="#5C5C5C"/>
</linearGradient>
<linearGradient id="paint1_linear_2183_2000" x1="2.16676" y1="27.0475" x2="1.22124" y2="25.2706" gradientUnits="userSpaceOnUse">
<stop stop-color="#3F3F3F"/>
<stop offset="1" stop-color="#5C5C5C"/>
</linearGradient>
<clipPath id="clip0_2183_2000">
<rect width="34" height="34" fill="white"/>
</clipPath>
</defs>
</svg>
