<svg width="45" height="43" viewBox="0 0 45 43" fill="none" xmlns="http://www.w3.org/2000/svg">
<path d="M40.7047 14.975C36.6342 14.975 34.97 12.0965 36.994 8.56574C38.1634 6.51927 37.4663 3.91057 35.4198 2.74116L31.5292 0.514771C29.7526 -0.542201 27.4588 0.0874844 26.4018 1.8641L26.1544 2.29138C24.1304 5.82212 20.8021 5.82212 18.7556 2.29138L18.5082 1.8641C17.4963 0.0874844 15.2024 -0.542201 13.4258 0.514771L9.53523 2.74116C7.48876 3.91057 6.7916 6.54176 7.96102 8.58823C10.0075 12.0965 8.34333 14.975 4.27286 14.975C1.93403 14.975 0 16.8866 0 19.2479V23.2059C0 25.5448 1.91154 27.4788 4.27286 27.4788C8.34333 27.4788 10.0075 30.3573 7.96102 33.8881C6.7916 35.9346 7.48876 38.5433 9.53523 39.7127L13.4258 41.9391C15.2024 42.996 17.4963 42.3663 18.5532 40.5897L18.8006 40.1624C20.8246 36.6317 24.1529 36.6317 26.1994 40.1624L26.4468 40.5897C27.5037 42.3663 29.7976 42.996 31.5742 41.9391L35.4648 39.7127C37.5112 38.5433 38.2084 35.9121 37.039 33.8881C34.9925 30.3573 36.6567 27.4788 40.7271 27.4788C43.066 27.4788 45 25.5672 45 23.2059V19.2479C44.9775 16.9091 43.066 14.975 40.7047 14.975ZM22.4888 28.5358C18.4633 28.5358 15.1799 25.2524 15.1799 21.2269C15.1799 17.2014 18.4633 13.9181 22.4888 13.9181C26.5142 13.9181 29.7976 17.2014 29.7976 21.2269C29.7976 25.2524 26.5142 28.5358 22.4888 28.5358Z" fill="#C4C4C4"/>
</svg>
