<svg width="325" height="133" viewBox="0 0 325 133" fill="none" xmlns="http://www.w3.org/2000/svg">
<g clip-path="url(#clip0_2520_2245)">
<g filter="url(#filter0_d_2520_2245)">
<path d="M22.167 41.5634L64.3269 17.8485C65.1199 17.4025 65.5161 17.1796 65.9362 17.0922C66.3086 17.0149 66.6921 17.0149 67.0645 17.0922C67.4845 17.1796 67.8808 17.4025 68.6738 17.8485L110.834 41.5634M22.167 41.5634V88.8454C22.167 89.7897 22.167 90.2613 22.3055 90.683C22.4281 91.056 22.6284 91.3985 22.8933 91.6877C23.1928 92.0153 23.6041 92.2469 24.4268 92.7096L66.5003 116.376M22.167 41.5634L66.5003 63.73M110.834 41.5634V88.8454C110.834 89.7897 110.834 90.2613 110.695 90.683C110.573 91.056 110.372 91.3985 110.107 91.6877C109.808 92.0153 109.397 92.2469 108.574 92.7096L66.5003 116.376M110.834 41.5634L66.5003 63.73M66.5003 116.376V63.73" stroke="#E83DD4" stroke-width="11.0833" stroke-linecap="round" stroke-linejoin="round" shape-rendering="crispEdges"/>
</g>
</g>
<g clip-path="url(#clip1_2520_2245)">
<g filter="url(#filter1_d_2520_2245)">
<path d="M214.167 41.5634L256.327 17.8485C257.12 17.4025 257.516 17.1796 257.936 17.0922C258.309 17.0149 258.692 17.0149 259.064 17.0922C259.485 17.1796 259.881 17.4025 260.674 17.8485L302.834 41.5634M214.167 41.5634V88.8454C214.167 89.7897 214.167 90.2613 214.305 90.683C214.428 91.056 214.628 91.3985 214.893 91.6877C215.193 92.0153 215.604 92.2469 216.427 92.7096L258.5 116.376M214.167 41.5634L258.5 63.73M302.834 41.5634V88.8454C302.834 89.7897 302.834 90.2613 302.695 90.683C302.573 91.056 302.372 91.3985 302.107 91.6877C301.808 92.0153 301.397 92.2469 300.574 92.7096L258.5 116.376M302.834 41.5634L258.5 63.73M258.5 116.376V63.73" stroke="#6FBFE4" stroke-width="11.0833" stroke-linecap="round" stroke-linejoin="round" shape-rendering="crispEdges"/>
</g>
</g>
<defs>
<filter id="filter0_d_2520_2245" x="12.9018" y="11.4922" width="107.196" height="117.866" filterUnits="userSpaceOnUse" color-interpolation-filters="sRGB">
<feFlood flood-opacity="0" result="BackgroundImageFix"/>
<feColorMatrix in="SourceAlpha" type="matrix" values="0 0 0 0 0 0 0 0 0 0 0 0 0 0 0 0 0 0 127 0" result="hardAlpha"/>
<feOffset dy="3.72028"/>
<feGaussianBlur stdDeviation="1.86014"/>
<feComposite in2="hardAlpha" operator="out"/>
<feColorMatrix type="matrix" values="0 0 0 0 0 0 0 0 0 0 0 0 0 0 0 0 0 0 0.25 0"/>
<feBlend mode="normal" in2="BackgroundImageFix" result="effect1_dropShadow_2520_2245"/>
<feBlend mode="normal" in="SourceGraphic" in2="effect1_dropShadow_2520_2245" result="shape"/>
</filter>
<filter id="filter1_d_2520_2245" x="204.902" y="11.4922" width="107.196" height="117.866" filterUnits="userSpaceOnUse" color-interpolation-filters="sRGB">
<feFlood flood-opacity="0" result="BackgroundImageFix"/>
<feColorMatrix in="SourceAlpha" type="matrix" values="0 0 0 0 0 0 0 0 0 0 0 0 0 0 0 0 0 0 127 0" result="hardAlpha"/>
<feOffset dy="3.72028"/>
<feGaussianBlur stdDeviation="1.86014"/>
<feComposite in2="hardAlpha" operator="out"/>
<feColorMatrix type="matrix" values="0 0 0 0 0 0 0 0 0 0 0 0 0 0 0 0 0 0 0.25 0"/>
<feBlend mode="normal" in2="BackgroundImageFix" result="effect1_dropShadow_2520_2245"/>
<feBlend mode="normal" in="SourceGraphic" in2="effect1_dropShadow_2520_2245" result="shape"/>
</filter>
<clipPath id="clip0_2520_2245">
<rect width="133" height="133" fill="white"/>
</clipPath>
<clipPath id="clip1_2520_2245">
<rect width="133" height="133" fill="white" transform="translate(192)"/>
</clipPath>
</defs>
</svg>
