<svg width="333" height="145" viewBox="0 0 333 145" fill="none" xmlns="http://www.w3.org/2000/svg">
<g filter="url(#filter0_d_933_685)">
<path d="M7 24.7898C7 17.4286 7 13.748 8.43261 10.9364C9.6927 8.46321 11.7034 6.45247 14.1766 5.19237C16.9882 3.75977 20.6689 3.75977 28.0301 3.75977H50.8643C54.0791 3.75977 55.6866 3.75977 57.1995 4.12293C58.5401 4.44489 59.8223 4.97596 60.9987 5.69664C62.3249 6.50945 63.4618 7.64606 65.735 9.91935L66.5592 10.744C68.8324 13.0173 69.9693 14.1539 71.2955 14.9667C72.4719 15.6874 73.7541 16.2184 75.0947 16.5404C76.6076 16.9036 78.2151 16.9036 81.43 16.9036H104.264C111.625 16.9036 115.306 16.9036 118.118 18.3362C120.591 19.5963 122.602 21.607 123.862 24.0802C125.294 26.8918 125.294 30.5725 125.294 37.9336V74.7363C125.294 82.0975 125.294 85.7784 123.862 88.5898C122.602 91.0629 120.591 93.0738 118.118 94.3337C115.306 95.7664 111.625 95.7664 104.264 95.7664H28.0301C20.6688 95.7664 16.9882 95.7664 14.1766 94.3337C11.7034 93.0738 9.6927 91.0629 8.43261 88.5898C7 85.7784 7 82.0975 7 74.7363V24.7898Z" stroke="black" stroke-width="5.91471" stroke-linecap="round" stroke-linejoin="round"/>
<path d="M80.3767 9.39453V1.91213H83.0438C83.6259 1.91213 84.1082 2.01808 84.4906 2.22998C84.873 2.44189 85.1592 2.73173 85.3492 3.09952C85.5392 3.46487 85.6341 3.8765 85.6341 4.33441C85.6341 4.79475 85.5379 5.20882 85.3455 5.5766C85.1555 5.94196 84.8681 6.2318 84.4833 6.44614C84.1009 6.65805 83.6198 6.764 83.0401 6.764H81.2061V5.80678H82.9378C83.3056 5.80678 83.604 5.74345 83.833 5.61679C84.0619 5.4877 84.23 5.31233 84.3371 5.09069C84.4443 4.86904 84.4979 4.61695 84.4979 4.33441C84.4979 4.05187 84.4443 3.80099 84.3371 3.58178C84.23 3.36257 84.0607 3.19086 83.8293 3.06664C83.6004 2.94242 83.2983 2.88031 82.9232 2.88031H81.5057V9.39453H80.3767ZM86.8699 9.39453V3.78273H87.9258V4.67419H87.9843C88.0866 4.37216 88.2668 4.13468 88.525 3.96175C88.7856 3.78638 89.0803 3.6987 89.4091 3.6987C89.4773 3.6987 89.5577 3.70113 89.6503 3.706C89.7453 3.71087 89.8196 3.71696 89.8731 3.72427V4.76918C89.8293 4.757 89.7514 4.7436 89.6393 4.72899C89.5273 4.71194 89.4152 4.70341 89.3032 4.70341C89.045 4.70341 88.8148 4.75822 88.6127 4.86782C88.4129 4.97499 88.2546 5.12479 88.1377 5.3172C88.0208 5.50719 87.9623 5.72396 87.9623 5.96753V9.39453H86.8699ZM92.9814 9.50779C92.4553 9.50779 91.9961 9.38722 91.604 9.14609C91.2118 8.90496 90.9074 8.56762 90.6906 8.13407C90.4738 7.70052 90.3654 7.1939 90.3654 6.6142C90.3654 6.03208 90.4738 5.52302 90.6906 5.08703C90.9074 4.65105 91.2118 4.31249 91.604 4.07135C91.9961 3.83022 92.4553 3.70966 92.9814 3.70966C93.5075 3.70966 93.9666 3.83022 94.3587 4.07135C94.7509 4.31249 95.0553 4.65105 95.2721 5.08703C95.4889 5.52302 95.5973 6.03208 95.5973 6.6142C95.5973 7.1939 95.4889 7.70052 95.2721 8.13407C95.0553 8.56762 94.7509 8.90496 94.3587 9.14609C93.9666 9.38722 93.5075 9.50779 92.9814 9.50779ZM92.985 8.59076C93.326 8.59076 93.6086 8.50064 93.8326 8.3204C94.0567 8.14016 94.2223 7.90024 94.3295 7.60065C94.4391 7.30107 94.4939 6.97103 94.4939 6.61055C94.4939 6.25251 94.4391 5.92369 94.3295 5.6241C94.2223 5.32208 94.0567 5.07973 93.8326 4.89705C93.6086 4.71437 93.326 4.62304 92.985 4.62304C92.6416 4.62304 92.3566 4.71437 92.1301 4.89705C91.906 5.07973 91.7392 5.32208 91.6296 5.6241C91.5224 5.92369 91.4688 6.25251 91.4688 6.61055C91.4688 6.97103 91.5224 7.30107 91.6296 7.60065C91.7392 7.90024 91.906 8.14016 92.1301 8.3204C92.3566 8.50064 92.6416 8.59076 92.985 8.59076ZM96.8166 3.78273H97.9091V9.75988C97.9091 10.135 97.8409 10.4516 97.7045 10.7098C97.5705 10.968 97.3708 11.1641 97.1053 11.298C96.8422 11.432 96.5171 11.499 96.1298 11.499C96.0908 11.499 96.0543 11.499 96.0202 11.499C95.9836 11.499 95.9459 11.4977 95.9069 11.4953V10.5564C95.941 10.5564 95.9715 10.5564 95.9983 10.5564C96.0226 10.5564 96.0506 10.5564 96.0823 10.5564C96.3405 10.5564 96.5268 10.4869 96.6413 10.3481C96.7582 10.2117 96.8166 10.0132 96.8166 9.75258V3.78273ZM97.3574 2.91684C97.1674 2.91684 97.0042 2.85351 96.8678 2.72686C96.7338 2.59777 96.6669 2.44432 96.6669 2.26652C96.6669 2.08628 96.7338 1.93283 96.8678 1.80617C97.0042 1.67708 97.1674 1.61254 97.3574 1.61254C97.5474 1.61254 97.7093 1.67708 97.8433 1.80617C97.9797 1.93283 98.0479 2.08628 98.0479 2.26652C98.0479 2.44432 97.9797 2.59777 97.8433 2.72686C97.7093 2.85351 97.5474 2.91684 97.3574 2.91684ZM101.797 9.50779C101.244 9.50779 100.768 9.38966 100.369 9.1534C99.9718 8.9147 99.6649 8.5798 99.4481 8.14868C99.2338 7.71513 99.1266 7.20729 99.1266 6.62516C99.1266 6.05034 99.2338 5.54372 99.4481 5.1053C99.6649 4.66688 99.9669 4.32467 100.354 4.07866C100.744 3.83266 101.199 3.70966 101.721 3.70966C102.037 3.70966 102.344 3.76202 102.641 3.86676C102.938 3.97149 103.205 4.1359 103.441 4.35998C103.678 4.58407 103.864 4.87513 104 5.23317C104.137 5.58878 104.205 6.02112 104.205 6.53017V6.91745H99.744V6.09906H103.134C103.134 5.81165 103.076 5.55712 102.959 5.33547C102.842 5.11139 102.678 4.9348 102.466 4.80571C102.256 4.67662 102.01 4.61208 101.728 4.61208C101.421 4.61208 101.153 4.68758 100.924 4.83859C100.698 4.98717 100.522 5.18202 100.398 5.42316C100.276 5.66185 100.215 5.92125 100.215 6.20136V6.84072C100.215 7.21582 100.281 7.53489 100.413 7.79794C100.547 8.061 100.733 8.26194 100.972 8.40077C101.21 8.53717 101.489 8.60537 101.808 8.60537C102.015 8.60537 102.204 8.57614 102.375 8.51769C102.545 8.45679 102.692 8.36667 102.817 8.24733C102.941 8.12798 103.036 7.98062 103.102 7.80525L104.136 7.99158C104.053 8.29604 103.904 8.56275 103.69 8.7917C103.478 9.01822 103.211 9.19481 102.89 9.32146C102.571 9.44568 102.207 9.50779 101.797 9.50779ZM107.781 9.50779C107.238 9.50779 106.77 9.38479 106.378 9.13878C105.988 8.89035 105.689 8.54813 105.479 8.11215C105.27 7.67616 105.165 7.17685 105.165 6.6142C105.165 6.04425 105.272 5.54129 105.486 5.1053C105.701 4.66688 106.003 4.32467 106.393 4.07866C106.782 3.83266 107.241 3.70966 107.77 3.70966C108.196 3.70966 108.576 3.78882 108.91 3.94714C109.243 4.10302 109.513 4.32223 109.717 4.60477C109.924 4.88731 110.047 5.21734 110.086 5.59487H109.023C108.965 5.33182 108.831 5.1053 108.621 4.91532C108.414 4.72533 108.136 4.63034 107.788 4.63034C107.484 4.63034 107.217 4.71072 106.988 4.87148C106.762 5.02979 106.585 5.25631 106.458 5.55103C106.332 5.84331 106.268 6.18918 106.268 6.58863C106.268 6.99782 106.33 7.351 106.455 7.64815C106.579 7.9453 106.754 8.17547 106.981 8.33866C107.21 8.50185 107.479 8.58345 107.788 8.58345C107.995 8.58345 108.183 8.5457 108.351 8.47019C108.521 8.39225 108.664 8.28143 108.778 8.13772C108.895 7.99402 108.977 7.82108 109.023 7.61892H110.086C110.047 7.98184 109.929 8.30578 109.732 8.59076C109.535 8.87573 109.27 9.09981 108.939 9.263C108.61 9.4262 108.224 9.50779 107.781 9.50779ZM113.874 3.78273V4.65957H110.809V3.78273H113.874ZM111.631 2.43823H112.723V7.74679C112.723 7.9587 112.755 8.11824 112.818 8.22541C112.881 8.33014 112.963 8.40199 113.063 8.44096C113.165 8.4775 113.276 8.49577 113.395 8.49577C113.483 8.49577 113.56 8.48968 113.626 8.4775C113.691 8.46532 113.742 8.45558 113.779 8.44827L113.976 9.35069C113.913 9.37505 113.823 9.3994 113.706 9.42376C113.589 9.45055 113.443 9.46517 113.268 9.4676C112.98 9.47247 112.712 9.42132 112.464 9.31415C112.215 9.20698 112.014 9.04136 111.861 8.81728C111.707 8.59319 111.631 8.31187 111.631 7.97331V2.43823ZM117.907 1.91213V9.39453H116.774V3.04472H116.73L114.94 4.21384V3.1324L116.807 1.91213H117.907Z" fill="black"/>
<path d="M207.707 24.7898C207.707 17.4286 207.707 13.748 209.14 10.9364C210.4 8.46321 212.41 6.45247 214.884 5.19237C217.695 3.75977 221.376 3.75977 228.737 3.75977H251.571C254.786 3.75977 256.394 3.75977 257.906 4.12293C259.247 4.44489 260.529 4.97596 261.706 5.69664C263.032 6.50945 264.169 7.64606 266.442 9.91935L267.266 10.744C269.539 13.0173 270.676 14.1539 272.003 14.9667C273.179 15.6874 274.461 16.2184 275.802 16.5404C277.315 16.9036 278.922 16.9036 282.137 16.9036H304.971C312.332 16.9036 316.013 16.9036 318.825 18.3362C321.298 19.5963 323.309 21.607 324.569 24.0802C326.001 26.8918 326.001 30.5725 326.001 37.9336V74.7363C326.001 82.0975 326.001 85.7784 324.569 88.5898C323.309 91.0629 321.298 93.0738 318.825 94.3337C316.013 95.7664 312.332 95.7664 304.971 95.7664H228.737C221.376 95.7664 217.695 95.7664 214.884 94.3337C212.41 93.0738 210.4 91.0629 209.14 88.5898C207.707 85.7784 207.707 82.0975 207.707 74.7363V24.7898Z" stroke="black" stroke-width="5.91471" stroke-linecap="round" stroke-linejoin="round"/>
<path d="M92.1719 52.6554C91.083 52.6554 90.2003 53.5381 90.2003 54.627C90.2003 55.7158 91.083 56.5985 92.1719 56.5985L92.1719 52.6554ZM204.368 56.0211C205.138 55.2511 205.138 54.0028 204.368 53.2328L191.821 40.6859C191.051 39.9159 189.803 39.9159 189.033 40.6859C188.263 41.4558 188.263 42.7041 189.033 43.4741L200.186 54.627L189.033 65.7798C188.263 66.5498 188.263 67.7981 189.033 68.5681C189.803 69.338 191.051 69.338 191.821 68.5681L204.368 56.0211ZM92.1719 56.5985L202.974 56.5985L202.974 52.6554L92.1719 52.6554L92.1719 56.5985Z" fill="#535353"/>
<path d="M25.5325 34.5176V39.7225C25.5325 40.385 25.5325 40.7163 25.4036 40.9693C25.2902 41.1919 25.1092 41.3729 24.8867 41.4863C24.6336 41.6152 24.3023 41.6152 23.6398 41.6152H19.1447C18.4821 41.6152 18.1509 41.6152 17.8979 41.4863C17.6753 41.3729 17.4943 41.1919 17.3809 40.9693C17.252 40.7163 17.252 40.385 17.252 39.7225V32.8615C17.252 32.1989 17.252 31.8677 17.3809 31.6146C17.4943 31.3921 17.6753 31.2111 17.8979 31.0977C18.1509 30.9687 18.4822 30.9688 19.1447 30.9688H21.9837M25.5325 34.5176L21.9837 30.9688M25.5325 34.5176H22.5752C22.2485 34.5176 21.9837 34.2528 21.9837 33.9261V30.9688" stroke="black" stroke-width="1.14655" stroke-linecap="round" stroke-linejoin="round"/>
<path d="M32.1816 40.1504V34.5386H33.2375V35.43H33.2959C33.3982 35.128 33.5785 34.8905 33.8367 34.7176C34.0973 34.5422 34.392 34.4546 34.7208 34.4546C34.789 34.4546 34.8694 34.457 34.962 34.4619C35.0569 34.4667 35.1312 34.4728 35.1848 34.4801V35.525C35.141 35.5129 35.063 35.4995 34.951 35.4848C34.8389 35.4678 34.7269 35.4593 34.6149 35.4593C34.3567 35.4593 34.1265 35.5141 33.9244 35.6237C33.7246 35.7309 33.5663 35.8806 33.4494 36.0731C33.3325 36.263 33.274 36.4798 33.274 36.7234V40.1504H32.1816ZM38.3478 40.2636C37.7949 40.2636 37.3188 40.1455 36.9193 39.9093C36.5223 39.6706 36.2154 39.3357 35.9986 38.9045C35.7843 38.471 35.6771 37.9632 35.6771 37.381C35.6771 36.8062 35.7843 36.2996 35.9986 35.8612C36.2154 35.4227 36.5174 35.0805 36.9047 34.8345C37.2944 34.5885 37.7499 34.4655 38.2711 34.4655C38.5878 34.4655 38.8947 34.5179 39.1918 34.6226C39.489 34.7274 39.7557 34.8918 39.9919 35.1158C40.2282 35.3399 40.4145 35.631 40.5509 35.989C40.6873 36.3446 40.7555 36.777 40.7555 37.286V37.6733H36.2946V36.8549H39.685C39.685 36.5675 39.6266 36.313 39.5097 36.0913C39.3928 35.8672 39.2283 35.6907 39.0164 35.5616C38.807 35.4325 38.561 35.3679 38.2784 35.3679C37.9715 35.3679 37.7036 35.4434 37.4747 35.5945C37.2481 35.743 37.0728 35.9379 36.9486 36.179C36.8268 36.4177 36.7659 36.6771 36.7659 36.9572V37.5966C36.7659 37.9717 36.8316 38.2907 36.9632 38.5538C37.0971 38.8169 37.2835 39.0178 37.5222 39.1566C37.7609 39.293 38.0397 39.3612 38.3588 39.3612C38.5658 39.3612 38.7546 39.332 38.9251 39.2735C39.0956 39.2127 39.243 39.1225 39.3672 39.0032C39.4914 38.8838 39.5864 38.7365 39.6522 38.5611L40.6861 38.7474C40.6033 39.0519 40.4547 39.3186 40.2404 39.5476C40.0285 39.7741 39.7618 39.9507 39.4403 40.0773C39.1212 40.2015 38.757 40.2636 38.3478 40.2636ZM46.1728 35.9087L45.1827 36.084C45.1413 35.9574 45.0755 35.8368 44.9854 35.7223C44.8977 35.6078 44.7783 35.5141 44.6273 35.441C44.4763 35.3679 44.2876 35.3314 44.061 35.3314C43.7517 35.3314 43.4935 35.4008 43.2865 35.5396C43.0795 35.676 42.9759 35.8526 42.9759 36.0694C42.9759 36.257 43.0454 36.408 43.1842 36.5224C43.323 36.6369 43.5471 36.7307 43.8564 36.8038L44.7479 37.0084C45.2643 37.1277 45.6491 37.3116 45.9024 37.56C46.1557 37.8085 46.2824 38.1312 46.2824 38.5282C46.2824 38.8644 46.185 39.1639 45.9901 39.427C45.7977 39.6876 45.5285 39.8922 45.1827 40.0408C44.8392 40.1894 44.441 40.2636 43.988 40.2636C43.3596 40.2636 42.8469 40.1297 42.4498 39.8618C42.0528 39.5914 41.8093 39.2078 41.7191 38.7109L42.775 38.5501C42.8408 38.8254 42.9759 39.0336 43.1805 39.1749C43.3851 39.3137 43.6518 39.3832 43.9807 39.3832C44.3387 39.3832 44.6249 39.3089 44.8392 39.1603C45.0536 39.0093 45.1607 38.8254 45.1607 38.6086C45.1607 38.4332 45.095 38.2859 44.9635 38.1665C44.8344 38.0472 44.6359 37.9571 44.3679 37.8962L43.418 37.6879C42.8943 37.5686 42.5071 37.3786 42.2562 37.118C42.0078 36.8574 41.8835 36.5273 41.8835 36.1279C41.8835 35.7966 41.9761 35.5068 42.1612 35.2583C42.3463 35.0099 42.6021 34.8163 42.9284 34.6774C43.2548 34.5362 43.6287 34.4655 44.0501 34.4655C44.6566 34.4655 45.134 34.597 45.4823 34.8601C45.8306 35.1207 46.0607 35.4702 46.1728 35.9087ZM48.5759 36.8184V40.1504H47.4835V34.5386H48.532V35.452H48.6014C48.7305 35.1548 48.9327 34.9161 49.2079 34.7359C49.4856 34.5556 49.8351 34.4655 50.2565 34.4655C50.6389 34.4655 50.9738 34.5459 51.2612 34.7066C51.5486 34.865 51.7715 35.1012 51.9298 35.4154C52.0881 35.7296 52.1673 36.1181 52.1673 36.5809V40.1504H51.0749V36.7124C51.0749 36.3057 50.9689 35.9878 50.757 35.7589C50.5451 35.5275 50.2541 35.4118 49.8838 35.4118C49.6305 35.4118 49.4052 35.4666 49.2079 35.5762C49.0131 35.6858 48.8584 35.8465 48.7439 36.0584C48.6319 36.2679 48.5759 36.5212 48.5759 36.8184ZM56.051 40.2636C55.4981 40.2636 55.0219 40.1455 54.6224 39.9093C54.2254 39.6706 53.9185 39.3357 53.7018 38.9045C53.4874 38.471 53.3803 37.9632 53.3803 37.381C53.3803 36.8062 53.4874 36.2996 53.7018 35.8612C53.9185 35.4227 54.2206 35.0805 54.6078 34.8345C54.9975 34.5885 55.453 34.4655 55.9743 34.4655C56.2909 34.4655 56.5978 34.5179 56.8949 34.6226C57.1921 34.7274 57.4588 34.8918 57.6951 35.1158C57.9313 35.3399 58.1176 35.631 58.254 35.989C58.3904 36.3446 58.4586 36.777 58.4586 37.286V37.6733H53.9977V36.8549H57.3882C57.3882 36.5675 57.3297 36.313 57.2128 36.0913C57.0959 35.8672 56.9315 35.6907 56.7196 35.5616C56.5101 35.4325 56.2641 35.3679 55.9816 35.3679C55.6747 35.3679 55.4067 35.4434 55.1778 35.5945C54.9513 35.743 54.7759 35.9379 54.6517 36.179C54.5299 36.4177 54.469 36.6771 54.469 36.9572V37.5966C54.469 37.9717 54.5348 38.2907 54.6663 38.5538C54.8003 38.8169 54.9866 39.0178 55.2253 39.1566C55.464 39.293 55.7429 39.3612 56.0619 39.3612C56.269 39.3612 56.4577 39.332 56.6282 39.2735C56.7987 39.2127 56.9461 39.1225 57.0703 39.0032C57.1945 38.8838 57.2895 38.7365 57.3553 38.5611L58.3892 38.7474C58.3064 39.0519 58.1578 39.3186 57.9435 39.5476C57.7316 39.7741 57.4649 39.9507 57.1434 40.0773C56.8243 40.2015 56.4602 40.2636 56.051 40.2636ZM62.2903 34.5386V35.4154H59.225V34.5386H62.2903ZM60.047 33.1941H61.1394V38.5027C61.1394 38.7146 61.1711 38.8741 61.2344 38.9813C61.2977 39.086 61.3793 39.1579 61.4792 39.1968C61.5815 39.2334 61.6923 39.2516 61.8117 39.2516C61.8993 39.2516 61.9761 39.2455 62.0418 39.2334C62.1076 39.2212 62.1587 39.2114 62.1953 39.2041L62.3926 40.1065C62.3292 40.1309 62.2391 40.1553 62.1222 40.1796C62.0053 40.2064 61.8592 40.221 61.6838 40.2235C61.3964 40.2283 61.1285 40.1772 60.88 40.07C60.6316 39.9628 60.4306 39.7972 60.2772 39.5731C60.1237 39.3491 60.047 39.0677 60.047 38.7292V33.1941ZM67.5066 40.1504V41.0784H62.7534V40.1504H67.5066ZM68.4684 40.1504L71.7346 33.691V33.6362H67.9569V32.668H72.9037V33.669L69.6485 40.1504H68.4684ZM73.6226 40.2198C73.4228 40.2198 73.2511 40.1492 73.1074 40.0079C72.9637 39.8642 72.8919 39.6913 72.8919 39.4891C72.8919 39.2894 72.9637 39.1189 73.1074 38.9776C73.2511 38.8339 73.4228 38.7621 73.6226 38.7621C73.8223 38.7621 73.994 38.8339 74.1377 38.9776C74.2814 39.1189 74.3533 39.2894 74.3533 39.4891C74.3533 39.6231 74.3192 39.7461 74.251 39.8581C74.1852 39.9677 74.0975 40.0554 73.9879 40.1212C73.8783 40.1869 73.7565 40.2198 73.6226 40.2198ZM75.8165 42.2548V34.5386H76.8833V35.4483H76.9747C77.038 35.3314 77.1293 35.1962 77.2487 35.0428C77.368 34.8893 77.5337 34.7554 77.7456 34.6409C77.9575 34.524 78.2376 34.4655 78.5859 34.4655C79.0389 34.4655 79.4432 34.58 79.7988 34.8089C80.1545 35.0379 80.4333 35.3679 80.6355 35.7991C80.8401 36.2302 80.9424 36.749 80.9424 37.3554C80.9424 37.9619 80.8413 38.482 80.6392 38.9155C80.437 39.3466 80.1593 39.6791 79.8062 39.9129C79.453 40.1443 79.0499 40.26 78.5968 40.26C78.2558 40.26 77.977 40.2028 77.7602 40.0883C77.5458 39.9738 77.3778 39.8398 77.256 39.6864C77.1342 39.5329 77.0404 39.3965 76.9747 39.2772H76.9089V42.2548H75.8165ZM76.887 37.3445C76.887 37.7391 76.9442 38.0849 77.0587 38.3821C77.1732 38.6792 77.3388 38.9118 77.5556 39.0799C77.7724 39.2455 78.0378 39.3283 78.3521 39.3283C78.6784 39.3283 78.9512 39.2419 79.1704 39.0689C79.3897 38.8936 79.5553 38.6561 79.6673 38.3565C79.7818 38.0569 79.839 37.7196 79.839 37.3445C79.839 36.9743 79.783 36.6418 79.671 36.3471C79.5614 36.0524 79.3957 35.8198 79.1741 35.6493C78.9549 35.4788 78.6809 35.3935 78.3521 35.3935C78.0354 35.3935 77.7675 35.4751 77.5483 35.6383C77.3315 35.8015 77.1671 36.0292 77.0551 36.3215C76.943 36.6138 76.887 36.9548 76.887 37.3445ZM84.7859 34.5386V35.4154H81.7206V34.5386H84.7859ZM82.5426 33.1941H83.635V38.5027C83.635 38.7146 83.6667 38.8741 83.73 38.9813C83.7934 39.086 83.875 39.1579 83.9748 39.1968C84.0771 39.2334 84.1879 39.2516 84.3073 39.2516C84.395 39.2516 84.4717 39.2455 84.5375 39.2334C84.6032 39.2212 84.6544 39.2114 84.6909 39.2041L84.8882 40.1065C84.8249 40.1309 84.7347 40.1553 84.6178 40.1796C84.5009 40.2064 84.3548 40.221 84.1794 40.2235C83.892 40.2283 83.6241 40.1772 83.3756 40.07C83.1272 39.9628 82.9263 39.7972 82.7728 39.5731C82.6194 39.3491 82.5426 39.0677 82.5426 38.7292V33.1941Z" fill="black"/>
<path d="M25.5325 53.8379V59.0428C25.5325 59.7053 25.5325 60.0366 25.4036 60.2897C25.2902 60.5122 25.1092 60.6932 24.8867 60.8066C24.6336 60.9355 24.3023 60.9355 23.6398 60.9355H19.1447C18.4821 60.9355 18.1509 60.9355 17.8979 60.8066C17.6753 60.6932 17.4943 60.5122 17.3809 60.2897C17.252 60.0366 17.252 59.7053 17.252 59.0428V52.1818C17.252 51.5193 17.252 51.188 17.3809 50.935C17.4943 50.7124 17.6753 50.5314 17.8979 50.418C18.1509 50.2891 18.4822 50.2891 19.1447 50.2891H21.9837M25.5325 53.8379L21.9837 50.2891M25.5325 53.8379H22.5752C22.2485 53.8379 21.9837 53.5731 21.9837 53.2464V50.2891" stroke="black" stroke-width="1.14655" stroke-linecap="round" stroke-linejoin="round"/>
<path d="M32.5762 58.2891V52.6773H33.632V53.5687H33.6905C33.7928 53.2667 33.973 53.0292 34.2312 52.8563C34.4918 52.6809 34.7865 52.5932 35.1153 52.5932C35.1835 52.5932 35.2639 52.5957 35.3565 52.6005C35.4515 52.6054 35.5258 52.6115 35.5793 52.6188V53.6637C35.5355 53.6515 35.4576 53.6381 35.3455 53.6235C35.2335 53.6065 35.1214 53.5979 35.0094 53.5979C34.7512 53.5979 34.521 53.6527 34.3189 53.7624C34.1192 53.8695 33.9608 54.0193 33.8439 54.2117C33.727 54.4017 33.6686 54.6185 33.6686 54.8621V58.2891H32.5762ZM38.7424 58.4023C38.1895 58.4023 37.7133 58.2842 37.3139 58.0479C36.9168 57.8092 36.6099 57.4743 36.3932 57.0432C36.1788 56.6097 36.0717 56.1018 36.0717 55.5197C36.0717 54.9449 36.1788 54.4383 36.3932 53.9998C36.6099 53.5614 36.912 53.2192 37.2992 52.9732C37.6889 52.7272 38.1444 52.6042 38.6657 52.6042C38.9823 52.6042 39.2892 52.6566 39.5863 52.7613C39.8835 52.866 40.1502 53.0304 40.3865 53.2545C40.6227 53.4786 40.8091 53.7697 40.9455 54.1277C41.0818 54.4833 41.15 54.9156 41.15 55.4247V55.812H36.6891V54.9936H40.0796C40.0796 54.7062 40.0211 54.4517 39.9042 54.23C39.7873 54.0059 39.6229 53.8293 39.411 53.7002C39.2015 53.5712 38.9555 53.5066 38.673 53.5066C38.3661 53.5066 38.0981 53.5821 37.8692 53.7331C37.6427 53.8817 37.4673 54.0766 37.3431 54.3177C37.2213 54.5564 37.1604 54.8158 37.1604 55.0959V55.7353C37.1604 56.1103 37.2262 56.4294 37.3577 56.6925C37.4917 56.9555 37.678 57.1565 37.9167 57.2953C38.1554 57.4317 38.4343 57.4999 38.7533 57.4999C38.9604 57.4999 39.1491 57.4707 39.3196 57.4122C39.4901 57.3513 39.6375 57.2612 39.7617 57.1419C39.8859 57.0225 39.9809 56.8752 40.0467 56.6998L41.0806 56.8861C40.9978 57.1906 40.8492 57.4573 40.6349 57.6862C40.423 57.9128 40.1563 58.0893 39.8348 58.216C39.5157 58.3402 39.1516 58.4023 38.7424 58.4023ZM46.5673 54.0473L45.5772 54.2227C45.5358 54.096 45.47 53.9755 45.3799 53.861C45.2922 53.7465 45.1729 53.6527 45.0219 53.5797C44.8709 53.5066 44.6821 53.4701 44.4556 53.4701C44.1462 53.4701 43.8881 53.5395 43.681 53.6783C43.474 53.8147 43.3705 53.9913 43.3705 54.2081C43.3705 54.3956 43.4399 54.5466 43.5787 54.6611C43.7176 54.7756 43.9416 54.8694 44.251 54.9424L45.1424 55.147C45.6588 55.2664 46.0436 55.4503 46.2969 55.6987C46.5503 55.9472 46.6769 56.2699 46.6769 56.6669C46.6769 57.003 46.5795 57.3026 46.3846 57.5657C46.1922 57.8263 45.9231 58.0309 45.5772 58.1795C45.2338 58.328 44.8355 58.4023 44.3825 58.4023C43.7541 58.4023 43.2414 58.2684 42.8444 58.0004C42.4474 57.7301 42.2038 57.3465 42.1137 56.8496L43.1695 56.6888C43.2353 56.9641 43.3705 57.1723 43.5751 57.3136C43.7797 57.4524 44.0464 57.5218 44.3752 57.5218C44.7332 57.5218 45.0194 57.4475 45.2338 57.299C45.4481 57.1479 45.5553 56.9641 45.5553 56.7473C45.5553 56.5719 45.4895 56.4246 45.358 56.3052C45.2289 56.1859 45.0304 56.0957 44.7625 56.0348L43.8126 55.8266C43.2889 55.7072 42.9016 55.5173 42.6507 55.2566C42.4023 54.996 42.2781 54.666 42.2781 54.2665C42.2781 53.9353 42.3706 53.6454 42.5557 53.397C42.7409 53.1486 42.9966 52.9549 43.323 52.8161C43.6494 52.6748 44.0232 52.6042 44.4446 52.6042C45.0511 52.6042 45.5285 52.7357 45.8768 52.9988C46.2251 53.2594 46.4553 53.6089 46.5673 54.0473ZM48.9704 54.9571V58.2891H47.878V52.6773H48.9266V53.5906H48.996C49.1251 53.2935 49.3272 53.0548 49.6025 52.8745C49.8801 52.6943 50.2297 52.6042 50.651 52.6042C51.0334 52.6042 51.3683 52.6846 51.6557 52.8453C51.9432 53.0036 52.166 53.2399 52.3243 53.5541C52.4827 53.8683 52.5618 54.2568 52.5618 54.7196V58.2891H51.4694V54.8511C51.4694 54.4443 51.3635 54.1265 51.1516 53.8975C50.9397 53.6661 50.6486 53.5504 50.2784 53.5504C50.0251 53.5504 49.7998 53.6053 49.6025 53.7149C49.4076 53.8245 49.2529 53.9852 49.1385 54.1971C49.0264 54.4066 48.9704 54.6599 48.9704 54.9571ZM56.4455 58.4023C55.8926 58.4023 55.4164 58.2842 55.017 58.0479C54.62 57.8092 54.3131 57.4743 54.0963 57.0432C53.882 56.6097 53.7748 56.1018 53.7748 55.5197C53.7748 54.9449 53.882 54.4383 54.0963 53.9998C54.3131 53.5614 54.6151 53.2192 55.0024 52.9732C55.3921 52.7272 55.8475 52.6042 56.3688 52.6042C56.6854 52.6042 56.9923 52.6566 57.2895 52.7613C57.5866 52.866 57.8533 53.0304 58.0896 53.2545C58.3258 53.4786 58.5122 53.7697 58.6486 54.1277C58.785 54.4833 58.8532 54.9156 58.8532 55.4247V55.812H54.3922V54.9936H57.7827C57.7827 54.7062 57.7242 54.4517 57.6073 54.23C57.4904 54.0059 57.326 53.8293 57.1141 53.7002C56.9046 53.5712 56.6586 53.5066 56.3761 53.5066C56.0692 53.5066 55.8013 53.5821 55.5723 53.7331C55.3458 53.8817 55.1704 54.0766 55.0462 54.3177C54.9244 54.5564 54.8635 54.8158 54.8635 55.0959V55.7353C54.8635 56.1103 54.9293 56.4294 55.0608 56.6925C55.1948 56.9555 55.3811 57.1565 55.6198 57.2953C55.8585 57.4317 56.1374 57.4999 56.4565 57.4999C56.6635 57.4999 56.8523 57.4707 57.0228 57.4122C57.1933 57.3513 57.3406 57.2612 57.4648 57.1419C57.5891 57.0225 57.684 56.8752 57.7498 56.6998L58.7838 56.8861C58.7009 57.1906 58.5524 57.4573 58.338 57.6862C58.1261 57.9128 57.8594 58.0893 57.5379 58.216C57.2188 58.3402 56.8547 58.4023 56.4455 58.4023ZM62.6848 52.6773V53.5541H59.6195V52.6773H62.6848ZM60.4415 51.3328H61.5339V56.6413C61.5339 56.8532 61.5656 57.0128 61.6289 57.1199C61.6923 57.2247 61.7739 57.2965 61.8737 57.3355C61.976 57.372 62.0868 57.3903 62.2062 57.3903C62.2939 57.3903 62.3706 57.3842 62.4364 57.372C62.5021 57.3599 62.5533 57.3501 62.5898 57.3428L62.7871 58.2452C62.7238 58.2696 62.6337 58.2939 62.5167 58.3183C62.3998 58.3451 62.2537 58.3597 62.0783 58.3621C61.7909 58.367 61.523 58.3159 61.2745 58.2087C61.0261 58.1015 60.8252 57.9359 60.6717 57.7118C60.5183 57.4877 60.4415 57.2064 60.4415 56.8678V51.3328ZM67.9011 58.2891V59.2171H63.1479V58.2891H67.9011ZM70.6668 58.3914C70.1432 58.3914 69.6804 58.3012 69.2785 58.121C68.879 57.9408 68.5661 57.6923 68.3395 57.3757C68.113 57.059 68.001 56.6986 68.0034 56.2942C68.001 55.9776 68.0655 55.6865 68.197 55.4211C68.331 55.1531 68.5125 54.9303 68.7414 54.7525C68.9704 54.5722 69.2261 54.4577 69.5087 54.409V54.3652C69.136 54.2751 68.8376 54.0753 68.6135 53.766C68.3895 53.4567 68.2786 53.1011 68.2811 52.6992C68.2786 52.3168 68.3797 51.9758 68.5843 51.6762C68.7914 51.3742 69.0751 51.1367 69.4356 50.9638C69.7961 50.7908 70.2065 50.7044 70.6668 50.7044C71.1223 50.7044 71.5291 50.792 71.8871 50.9674C72.2476 51.1403 72.5313 51.3778 72.7384 51.6798C72.9454 51.9794 73.0501 52.3192 73.0526 52.6992C73.0501 53.1011 72.9357 53.4567 72.7091 53.766C72.4826 54.0753 72.1879 54.2751 71.825 54.3652V54.409C72.1051 54.4577 72.3572 54.5722 72.5813 54.7525C72.8078 54.9303 72.988 55.1531 73.122 55.4211C73.2584 55.6865 73.3278 55.9776 73.3302 56.2942C73.3278 56.6986 73.2133 57.059 72.9868 57.3757C72.7603 57.6923 72.4461 57.9408 72.0442 58.121C71.6447 58.3012 71.1856 58.3914 70.6668 58.3914ZM70.6668 57.467C70.9762 57.467 71.2441 57.4159 71.4706 57.3136C71.6971 57.2088 71.8725 57.0639 71.9967 56.8788C72.1209 56.6913 72.1843 56.472 72.1867 56.2212C72.1843 55.9606 72.1161 55.7304 71.9821 55.5307C71.8506 55.3309 71.6715 55.1738 71.445 55.0594C71.2185 54.9449 70.9591 54.8876 70.6668 54.8876C70.3721 54.8876 70.1103 54.9449 69.8813 55.0594C69.6524 55.1738 69.4721 55.3309 69.3406 55.5307C69.2091 55.7304 69.1445 55.9606 69.147 56.2212C69.1445 56.472 69.2042 56.6913 69.326 56.8788C69.4502 57.0639 69.6268 57.2088 69.8557 57.3136C70.0847 57.4159 70.3551 57.467 70.6668 57.467ZM70.6668 53.9852C70.9153 53.9852 71.1357 53.9353 71.3281 53.8354C71.5205 53.7356 71.6715 53.5967 71.7811 53.4189C71.8932 53.2411 71.9504 53.0329 71.9529 52.7942C71.9504 52.5603 71.8944 52.3557 71.7848 52.1804C71.6776 52.005 71.5278 51.8698 71.3354 51.7748C71.143 51.6774 70.9201 51.6287 70.6668 51.6287C70.4086 51.6287 70.1821 51.6774 69.9873 51.7748C69.7949 51.8698 69.6451 52.005 69.5379 52.1804C69.4307 52.3557 69.3784 52.5603 69.3808 52.7942C69.3784 53.0329 69.4319 53.2411 69.5415 53.4189C69.6511 53.5967 69.8022 53.7356 69.9946 53.8354C70.1894 53.9353 70.4135 53.9852 70.6668 53.9852ZM75.1524 58.3585C74.9527 58.3585 74.781 58.2878 74.6373 58.1466C74.4936 58.0029 74.4217 57.8299 74.4217 57.6278C74.4217 57.428 74.4936 57.2576 74.6373 57.1163C74.781 56.9726 74.9527 56.9007 75.1524 56.9007C75.3522 56.9007 75.5239 56.9726 75.6676 57.1163C75.8113 57.2576 75.8831 57.428 75.8831 57.6278C75.8831 57.7617 75.849 57.8847 75.7808 57.9968C75.7151 58.1064 75.6274 58.1941 75.5178 58.2598C75.4082 58.3256 75.2864 58.3585 75.1524 58.3585ZM77.3464 60.3935V52.6773H78.4132V53.587H78.5045C78.5679 53.4701 78.6592 53.3349 78.7786 53.1814C78.8979 53.028 79.0635 52.894 79.2754 52.7796C79.4873 52.6626 79.7674 52.6042 80.1157 52.6042C80.5688 52.6042 80.9731 52.7187 81.3287 52.9476C81.6843 53.1766 81.9632 53.5066 82.1654 53.9377C82.37 54.3688 82.4723 54.8876 82.4723 55.4941C82.4723 56.1006 82.3712 56.6206 82.169 57.0542C81.9669 57.4853 81.6892 57.8178 81.336 58.0516C80.9828 58.283 80.5797 58.3987 80.1267 58.3987C79.7857 58.3987 79.5068 58.3414 79.29 58.227C79.0757 58.1125 78.9076 57.9785 78.7859 57.8251C78.6641 57.6716 78.5703 57.5352 78.5045 57.4159H78.4388V60.3935H77.3464ZM78.4169 55.4832C78.4169 55.8777 78.4741 56.2236 78.5886 56.5208C78.703 56.8179 78.8687 57.0505 79.0854 57.2186C79.3022 57.3842 79.5677 57.467 79.8819 57.467C80.2083 57.467 80.4811 57.3806 80.7003 57.2076C80.9195 57.0323 81.0851 56.7948 81.1972 56.4952C81.3117 56.1956 81.3689 55.8583 81.3689 55.4832C81.3689 55.1129 81.3129 54.7805 81.2008 54.4857C81.0912 54.191 80.9256 53.9584 80.704 53.7879C80.4847 53.6174 80.2107 53.5322 79.8819 53.5322C79.5653 53.5322 79.2974 53.6138 79.0781 53.777C78.8614 53.9402 78.697 54.1679 78.5849 54.4602C78.4729 54.7525 78.4169 55.0935 78.4169 55.4832ZM86.3158 52.6773V53.5541H83.2505V52.6773H86.3158ZM84.0725 51.3328H85.1649V56.6413C85.1649 56.8532 85.1966 57.0128 85.2599 57.1199C85.3232 57.2247 85.4048 57.2965 85.5047 57.3355C85.607 57.372 85.7178 57.3903 85.8371 57.3903C85.9248 57.3903 86.0016 57.3842 86.0673 57.372C86.1331 57.3599 86.1842 57.3501 86.2208 57.3428L86.4181 58.2452C86.3547 58.2696 86.2646 58.2939 86.1477 58.3183C86.0308 58.3451 85.8846 58.3597 85.7093 58.3621C85.4219 58.367 85.1539 58.3159 84.9055 58.2087C84.6571 58.1015 84.4561 57.9359 84.3027 57.7118C84.1492 57.4877 84.0725 57.2064 84.0725 56.8678V51.3328Z" fill="black"/>
<path d="M32.1816 76.4277V70.8159H33.2375V71.7074H33.2959C33.3982 71.4054 33.5785 71.1679 33.8367 70.995C34.0973 70.8196 34.392 70.7319 34.7208 70.7319C34.789 70.7319 34.8694 70.7343 34.962 70.7392C35.0569 70.7441 35.1312 70.7502 35.1848 70.7575V71.8024C35.141 71.7902 35.063 71.7768 34.951 71.7622C34.8389 71.7451 34.7269 71.7366 34.6149 71.7366C34.3567 71.7366 34.1265 71.7914 33.9244 71.901C33.7246 72.0082 33.5663 72.158 33.4494 72.3504C33.3325 72.5404 33.274 72.7572 33.274 73.0007V76.4277H32.1816ZM38.3478 76.541C37.7949 76.541 37.3188 76.4229 36.9193 76.1866C36.5223 75.9479 36.2154 75.613 35.9986 75.1819C35.7843 74.7483 35.6771 74.2405 35.6771 73.6584C35.6771 73.0835 35.7843 72.5769 35.9986 72.1385C36.2154 71.7001 36.5174 71.3579 36.9047 71.1119C37.2944 70.8659 37.7499 70.7429 38.2711 70.7429C38.5878 70.7429 38.8947 70.7952 39.1918 70.9C39.489 71.0047 39.7557 71.1691 39.9919 71.3932C40.2282 71.6173 40.4145 71.9083 40.5509 72.2664C40.6873 72.622 40.7555 73.0543 40.7555 73.5634V73.9506H36.2946V73.1323H39.685C39.685 72.8449 39.6266 72.5903 39.5097 72.3687C39.3928 72.1446 39.2283 71.968 39.0164 71.8389C38.807 71.7098 38.561 71.6453 38.2784 71.6453C37.9715 71.6453 37.7036 71.7208 37.4747 71.8718C37.2481 72.0204 37.0728 72.2152 36.9486 72.4564C36.8268 72.6951 36.7659 72.9545 36.7659 73.2346V73.8739C36.7659 74.249 36.8316 74.5681 36.9632 74.8311C37.0971 75.0942 37.2835 75.2951 37.5222 75.434C37.7609 75.5704 38.0397 75.6386 38.3588 75.6386C38.5658 75.6386 38.7546 75.6093 38.9251 75.5509C39.0956 75.49 39.243 75.3999 39.3672 75.2805C39.4914 75.1612 39.5864 75.0138 39.6522 74.8385L40.6861 75.0248C40.6033 75.3292 40.4547 75.5959 40.2404 75.8249C40.0285 76.0514 39.7618 76.228 39.4403 76.3547C39.1212 76.4789 38.757 76.541 38.3478 76.541ZM46.1728 72.186L45.1827 72.3614C45.1413 72.2347 45.0755 72.1141 44.9854 71.9997C44.8977 71.8852 44.7783 71.7914 44.6273 71.7183C44.4763 71.6453 44.2876 71.6087 44.061 71.6087C43.7517 71.6087 43.4935 71.6782 43.2865 71.817C43.0795 71.9534 42.9759 72.13 42.9759 72.3468C42.9759 72.5343 43.0454 72.6853 43.1842 72.7998C43.323 72.9143 43.5471 73.008 43.8564 73.0811L44.7479 73.2857C45.2643 73.4051 45.6491 73.589 45.9024 73.8374C46.1557 74.0858 46.2824 74.4086 46.2824 74.8056C46.2824 75.1417 46.185 75.4413 45.9901 75.7043C45.7977 75.965 45.5285 76.1696 45.1827 76.3181C44.8392 76.4667 44.441 76.541 43.988 76.541C43.3596 76.541 42.8469 76.407 42.4498 76.1391C42.0528 75.8687 41.8093 75.4851 41.7191 74.9882L42.775 74.8275C42.8408 75.1027 42.9759 75.311 43.1805 75.4522C43.3851 75.5911 43.6518 75.6605 43.9807 75.6605C44.3387 75.6605 44.6249 75.5862 44.8392 75.4376C45.0536 75.2866 45.1607 75.1027 45.1607 74.8859C45.1607 74.7106 45.095 74.5632 44.9635 74.4439C44.8344 74.3245 44.6359 74.2344 44.3679 74.1735L43.418 73.9653C42.8943 73.8459 42.5071 73.6559 42.2562 73.3953C42.0078 73.1347 41.8835 72.8047 41.8835 72.4052C41.8835 72.074 41.9761 71.7841 42.1612 71.5357C42.3463 71.2872 42.6021 71.0936 42.9284 70.9548C43.2548 70.8135 43.6287 70.7429 44.0501 70.7429C44.6566 70.7429 45.134 70.8744 45.4823 71.1374C45.8306 71.3981 46.0607 71.7476 46.1728 72.186ZM48.5759 73.0957V76.4277H47.4835V70.8159H48.532V71.7293H48.6014C48.7305 71.4322 48.9327 71.1935 49.2079 71.0132C49.4856 70.833 49.8351 70.7429 50.2565 70.7429C50.6389 70.7429 50.9738 70.8232 51.2612 70.984C51.5486 71.1423 51.7715 71.3786 51.9298 71.6928C52.0881 72.007 52.1673 72.3955 52.1673 72.8582V76.4277H51.0749V72.9898C51.0749 72.583 50.9689 72.2652 50.757 72.0362C50.5451 71.8048 50.2541 71.6891 49.8838 71.6891C49.6305 71.6891 49.4052 71.7439 49.2079 71.8535C49.0131 71.9631 48.8584 72.1239 48.7439 72.3358C48.6319 72.5453 48.5759 72.7986 48.5759 73.0957ZM56.051 76.541C55.4981 76.541 55.0219 76.4229 54.6224 76.1866C54.2254 75.9479 53.9185 75.613 53.7018 75.1819C53.4874 74.7483 53.3803 74.2405 53.3803 73.6584C53.3803 73.0835 53.4874 72.5769 53.7018 72.1385C53.9185 71.7001 54.2206 71.3579 54.6078 71.1119C54.9975 70.8659 55.453 70.7429 55.9743 70.7429C56.2909 70.7429 56.5978 70.7952 56.8949 70.9C57.1921 71.0047 57.4588 71.1691 57.6951 71.3932C57.9313 71.6173 58.1176 71.9083 58.254 72.2664C58.3904 72.622 58.4586 73.0543 58.4586 73.5634V73.9506H53.9977V73.1323H57.3882C57.3882 72.8449 57.3297 72.5903 57.2128 72.3687C57.0959 72.1446 56.9315 71.968 56.7196 71.8389C56.5101 71.7098 56.2641 71.6453 55.9816 71.6453C55.6747 71.6453 55.4067 71.7208 55.1778 71.8718C54.9513 72.0204 54.7759 72.2152 54.6517 72.4564C54.5299 72.6951 54.469 72.9545 54.469 73.2346V73.8739C54.469 74.249 54.5348 74.5681 54.6663 74.8311C54.8003 75.0942 54.9866 75.2951 55.2253 75.434C55.464 75.5704 55.7429 75.6386 56.0619 75.6386C56.269 75.6386 56.4577 75.6093 56.6282 75.5509C56.7987 75.49 56.9461 75.3999 57.0703 75.2805C57.1945 75.1612 57.2895 75.0138 57.3553 74.8385L58.3892 75.0248C58.3064 75.3292 58.1578 75.5959 57.9435 75.8249C57.7316 76.0514 57.4649 76.228 57.1434 76.3547C56.8243 76.4789 56.4602 76.541 56.051 76.541ZM62.2903 70.8159V71.6928H59.225V70.8159H62.2903ZM60.047 69.4714H61.1394V74.78C61.1394 74.9919 61.1711 75.1514 61.2344 75.2586C61.2977 75.3633 61.3793 75.4352 61.4792 75.4742C61.5815 75.5107 61.6923 75.529 61.8117 75.529C61.8993 75.529 61.9761 75.5229 62.0418 75.5107C62.1076 75.4985 62.1587 75.4888 62.1953 75.4815L62.3926 76.3839C62.3292 76.4082 62.2391 76.4326 62.1222 76.457C62.0053 76.4838 61.8592 76.4984 61.6838 76.5008C61.3964 76.5057 61.1285 76.4545 60.88 76.3474C60.6316 76.2402 60.4306 76.0746 60.2772 75.8505C60.1237 75.6264 60.047 75.3451 60.047 75.0065V69.4714ZM67.5066 76.4277V77.3557H62.7534V76.4277H67.5066ZM70.2321 68.843C70.5658 68.8455 70.8946 68.9064 71.2186 69.0257C71.5425 69.1451 71.8348 69.3399 72.0954 69.6103C72.3585 69.8806 72.5679 70.246 72.7238 70.7063C72.8821 71.1642 72.9625 71.7342 72.9649 72.4162C72.9649 73.0714 72.8992 73.6547 72.7676 74.1662C72.6361 74.6753 72.4474 75.1052 72.2014 75.4559C71.9578 75.8066 71.6618 76.0733 71.3135 76.256C70.9652 76.4387 70.5731 76.53 70.1371 76.53C69.6914 76.53 69.2956 76.4423 68.9497 76.267C68.6039 76.0916 68.3225 75.8493 68.1058 75.5399C67.889 75.2282 67.7538 74.8701 67.7002 74.4658H68.8145C68.8876 74.7873 69.0362 75.0479 69.2603 75.2476C69.4868 75.4449 69.7791 75.5436 70.1371 75.5436C70.6851 75.5436 71.1126 75.3049 71.4195 74.8275C71.7264 74.3477 71.8811 73.6779 71.8835 72.8181H71.825C71.6984 73.0275 71.5401 73.2078 71.3501 73.3588C71.1625 73.5098 70.9518 73.6267 70.718 73.7095C70.4842 73.7923 70.2345 73.8337 69.9691 73.8337C69.5379 73.8337 69.1458 73.7278 68.7926 73.5159C68.4394 73.304 68.1581 73.0129 67.9487 72.6427C67.7392 72.2725 67.6345 71.8499 67.6345 71.3749C67.6345 70.9024 67.7416 70.4737 67.956 70.0889C68.1727 69.704 68.4748 69.3996 68.862 69.1755C69.2517 68.949 69.7084 68.8382 70.2321 68.843ZM70.2358 69.7929C69.9508 69.7929 69.6938 69.8636 69.4649 70.0048C69.2383 70.1437 69.0593 70.3324 68.9278 70.5711C68.7963 70.8074 68.7305 71.0705 68.7305 71.3603C68.7305 71.6501 68.7938 71.9132 68.9205 72.1495C69.0496 72.3833 69.225 72.5696 69.4466 72.7085C69.6707 72.8449 69.9264 72.913 70.2138 72.913C70.4282 72.913 70.6279 72.8716 70.813 72.7888C70.9981 72.706 71.1601 72.5915 71.2989 72.4454C71.4378 72.2968 71.5462 72.1288 71.6241 71.9412C71.702 71.7537 71.741 71.5564 71.741 71.3493C71.741 71.0741 71.6752 70.8184 71.5437 70.5821C71.4146 70.3458 71.2368 70.1559 71.0103 70.0122C70.7838 69.866 70.5256 69.7929 70.2358 69.7929ZM74.7479 76.4972C74.5481 76.4972 74.3764 76.4265 74.2327 76.2852C74.089 76.1415 74.0172 75.9686 74.0172 75.7664C74.0172 75.5667 74.089 75.3962 74.2327 75.255C74.3764 75.1112 74.5481 75.0394 74.7479 75.0394C74.9476 75.0394 75.1193 75.1112 75.263 75.255C75.4067 75.3962 75.4786 75.5667 75.4786 75.7664C75.4786 75.9004 75.4445 76.0234 75.3763 76.1355C75.3105 76.2451 75.2228 76.3327 75.1132 76.3985C75.0036 76.4643 74.8818 76.4972 74.7479 76.4972ZM76.9418 78.5322V70.8159H78.0086V71.7257H78.1C78.1633 71.6087 78.2546 71.4736 78.374 71.3201C78.4933 71.1667 78.6589 71.0327 78.8709 70.9182C79.0828 70.8013 79.3629 70.7429 79.7112 70.7429C80.1642 70.7429 80.5685 70.8573 80.9241 71.0863C81.2797 71.3152 81.5586 71.6453 81.7608 72.0764C81.9654 72.5075 82.0677 73.0263 82.0677 73.6328C82.0677 74.2393 81.9666 74.7593 81.7644 75.1928C81.5623 75.624 81.2846 75.9564 80.9314 76.1903C80.5783 76.4216 80.1752 76.5373 79.7221 76.5373C79.3811 76.5373 79.1022 76.4801 78.8855 76.3656C78.6711 76.2511 78.5031 76.1172 78.3813 75.9637C78.2595 75.8103 78.1657 75.6739 78.1 75.5545H78.0342V78.5322H76.9418ZM78.0123 73.6218C78.0123 74.0164 78.0695 74.3623 78.184 74.6594C78.2985 74.9566 78.4641 75.1892 78.6809 75.3573C78.8976 75.5229 79.1631 75.6057 79.4773 75.6057C79.8037 75.6057 80.0765 75.5192 80.2957 75.3463C80.5149 75.1709 80.6806 74.9334 80.7926 74.6339C80.9071 74.3343 80.9643 73.9969 80.9643 73.6218C80.9643 73.2516 80.9083 72.9191 80.7963 72.6244C80.6866 72.3297 80.521 72.0971 80.2994 71.9266C80.0802 71.7561 79.8062 71.6709 79.4773 71.6709C79.1607 71.6709 78.8928 71.7524 78.6736 71.9156C78.4568 72.0788 78.2924 72.3066 78.1803 72.5988C78.0683 72.8911 78.0123 73.2321 78.0123 73.6218ZM85.9112 70.8159V71.6928H82.8459V70.8159H85.9112ZM83.6679 69.4714H84.7603V74.78C84.7603 74.9919 84.792 75.1514 84.8553 75.2586C84.9186 75.3633 85.0002 75.4352 85.1001 75.4742C85.2024 75.5107 85.3132 75.529 85.4326 75.529C85.5203 75.529 85.597 75.5229 85.6627 75.5107C85.7285 75.4985 85.7797 75.4888 85.8162 75.4815L86.0135 76.3839C85.9502 76.4082 85.86 76.4326 85.7431 76.457C85.6262 76.4838 85.4801 76.4984 85.3047 76.5008C85.0173 76.5057 84.7494 76.4545 84.5009 76.3474C84.2525 76.2402 84.0515 76.0746 83.8981 75.8505C83.7446 75.6264 83.6679 75.3451 83.6679 75.0065V69.4714Z" fill="black"/>
<path d="M25.5325 70.793V75.9979C25.5325 76.6604 25.5325 76.9917 25.4036 77.2447C25.2902 77.4673 25.1092 77.6483 24.8867 77.7617C24.6336 77.8906 24.3023 77.8906 23.6398 77.8906H19.1447C18.4821 77.8906 18.1509 77.8906 17.8979 77.7617C17.6753 77.6483 17.4943 77.4673 17.3809 77.2447C17.252 76.9917 17.252 76.6604 17.252 75.9979V69.1368C17.252 68.4743 17.252 68.1431 17.3809 67.89C17.4943 67.6675 17.6753 67.4865 17.8979 67.3731C18.1509 67.2441 18.4822 67.2441 19.1447 67.2441H21.9837M25.5325 70.793L21.9837 67.2441M25.5325 70.793H22.5752C22.2485 70.793 21.9837 70.5282 21.9837 70.2015V67.2441" stroke="black" stroke-width="1.14655" stroke-linecap="round" stroke-linejoin="round"/>
<path d="M231.365 52.6543V57.8592C231.365 58.5217 231.365 58.853 231.236 59.1061C231.122 59.3286 230.941 59.5096 230.719 59.623C230.466 59.7519 230.134 59.7519 229.472 59.7519H224.977C224.314 59.7519 223.983 59.7519 223.73 59.623C223.507 59.5096 223.326 59.3286 223.213 59.1061C223.084 58.853 223.084 58.5217 223.084 57.8592V50.9982C223.084 50.3357 223.084 50.0044 223.213 49.7514C223.326 49.5288 223.507 49.3478 223.73 49.2344C223.983 49.1055 224.314 49.1055 224.977 49.1055H227.816M231.365 52.6543L227.816 49.1055M231.365 52.6543H228.407C228.081 52.6543 227.816 52.3895 227.816 52.0628V49.1055" stroke="black" stroke-width="1.14655" stroke-linecap="round" stroke-linejoin="round"/>
<path d="M240.633 52.6773V53.5541H237.568V52.6773H240.633ZM238.39 51.3328H239.482V56.6413C239.482 56.8532 239.514 57.0128 239.577 57.1199C239.641 57.2247 239.722 57.2965 239.822 57.3355C239.924 57.372 240.035 57.3903 240.155 57.3903C240.242 57.3903 240.319 57.3842 240.385 57.372C240.451 57.3599 240.502 57.3501 240.538 57.3428L240.736 58.2452C240.672 58.2696 240.582 58.2939 240.465 58.3183C240.348 58.3451 240.202 58.3597 240.027 58.3621C239.739 58.367 239.471 58.3159 239.223 58.2087C238.975 58.1015 238.774 57.9359 238.62 57.7118C238.467 57.4877 238.39 57.2064 238.39 56.8678V51.3328ZM244.2 58.4023C243.647 58.4023 243.171 58.2842 242.771 58.0479C242.374 57.8092 242.068 57.4743 241.851 57.0432C241.636 56.6097 241.529 56.1018 241.529 55.5197C241.529 54.9449 241.636 54.4383 241.851 53.9998C242.068 53.5614 242.37 53.2192 242.757 52.9732C243.147 52.7272 243.602 52.6042 244.123 52.6042C244.44 52.6042 244.747 52.6566 245.044 52.7613C245.341 52.866 245.608 53.0304 245.844 53.2545C246.08 53.4786 246.267 53.7697 246.403 54.1277C246.539 54.4833 246.608 54.9156 246.608 55.4247V55.812H242.147V54.9936H245.537C245.537 54.7062 245.479 54.4517 245.362 54.23C245.245 54.0059 245.08 53.8293 244.869 53.7002C244.659 53.5712 244.413 53.5066 244.131 53.5066C243.824 53.5066 243.556 53.5821 243.327 53.7331C243.1 53.8817 242.925 54.0766 242.801 54.3177C242.679 54.5564 242.618 54.8158 242.618 55.0959V55.7353C242.618 56.1103 242.684 56.4294 242.815 56.6925C242.949 56.9555 243.136 57.1565 243.374 57.2953C243.613 57.4317 243.892 57.4999 244.211 57.4999C244.418 57.4999 244.607 57.4707 244.777 57.4122C244.948 57.3513 245.095 57.2612 245.219 57.1419C245.344 57.0225 245.439 56.8752 245.504 56.6998L246.538 56.8861C246.455 57.1906 246.307 57.4573 246.092 57.6862C245.881 57.9128 245.614 58.0893 245.292 58.216C244.973 58.3402 244.609 58.4023 244.2 58.4023ZM252.025 54.0473L251.035 54.2227C250.993 54.096 250.928 53.9755 250.838 53.861C250.75 53.7465 250.63 53.6527 250.479 53.5797C250.328 53.5066 250.14 53.4701 249.913 53.4701C249.604 53.4701 249.346 53.5395 249.139 53.6783C248.932 53.8147 248.828 53.9913 248.828 54.2081C248.828 54.3956 248.897 54.5466 249.036 54.6611C249.175 54.7756 249.399 54.8694 249.709 54.9424L250.6 55.147C251.116 55.2664 251.501 55.4503 251.755 55.6987C252.008 55.9472 252.135 56.2699 252.135 56.6669C252.135 57.003 252.037 57.3026 251.842 57.5657C251.65 57.8263 251.381 58.0309 251.035 58.1795C250.691 58.328 250.293 58.4023 249.84 58.4023C249.212 58.4023 248.699 58.2684 248.302 58.0004C247.905 57.7301 247.661 57.3465 247.571 56.8496L248.627 56.6888C248.693 56.9641 248.828 57.1723 249.033 57.3136C249.237 57.4524 249.504 57.5218 249.833 57.5218C250.191 57.5218 250.477 57.4475 250.691 57.299C250.906 57.1479 251.013 56.9641 251.013 56.7473C251.013 56.5719 250.947 56.4246 250.816 56.3052C250.686 56.1859 250.488 56.0957 250.22 56.0348L249.27 55.8266C248.746 55.7072 248.359 55.5173 248.108 55.2566C247.86 54.996 247.736 54.666 247.736 54.2665C247.736 53.9353 247.828 53.6454 248.013 53.397C248.198 53.1486 248.454 52.9549 248.781 52.8161C249.107 52.6748 249.481 52.6042 249.902 52.6042C250.509 52.6042 250.986 52.7357 251.334 52.9988C251.683 53.2594 251.913 53.6089 252.025 54.0473ZM255.955 52.6773V53.5541H252.89V52.6773H255.955ZM253.712 51.3328H254.804V56.6413C254.804 56.8532 254.836 57.0128 254.899 57.1199C254.963 57.2247 255.044 57.2965 255.144 57.3355C255.246 57.372 255.357 57.3903 255.477 57.3903C255.564 57.3903 255.641 57.3842 255.707 57.372C255.772 57.3599 255.824 57.3501 255.86 57.3428L256.057 58.2452C255.994 58.2696 255.904 58.2939 255.787 58.3183C255.67 58.3451 255.524 58.3597 255.349 58.3621C255.061 58.367 254.793 58.3159 254.545 58.2087C254.296 58.1015 254.096 57.9359 253.942 57.7118C253.789 57.4877 253.712 57.2064 253.712 56.8678V51.3328ZM257.883 58.3585C257.684 58.3585 257.512 58.2878 257.368 58.1466C257.224 58.0029 257.153 57.8299 257.153 57.6278C257.153 57.428 257.224 57.2576 257.368 57.1163C257.512 56.9726 257.684 56.9007 257.883 56.9007C258.083 56.9007 258.255 56.9726 258.398 57.1163C258.542 57.2576 258.614 57.428 258.614 57.6278C258.614 57.7617 258.58 57.8847 258.512 57.9968C258.446 58.1064 258.358 58.1941 258.249 58.2598C258.139 58.3256 258.017 58.3585 257.883 58.3585ZM260.077 58.2891V52.6773H261.17V58.2891H260.077ZM260.629 51.8114C260.439 51.8114 260.276 51.748 260.139 51.6214C260.005 51.4923 259.938 51.3389 259.938 51.161C259.938 50.9808 260.005 50.8274 260.139 50.7007C260.276 50.5716 260.439 50.5071 260.629 50.5071C260.819 50.5071 260.981 50.5716 261.115 50.7007C261.251 50.8274 261.319 50.9808 261.319 51.161C261.319 51.3389 261.251 51.4923 261.115 51.6214C260.981 51.748 260.819 51.8114 260.629 51.8114ZM262.639 60.3935V52.6773H263.706V53.587H263.797C263.861 53.4701 263.952 53.3349 264.071 53.1814C264.191 53.028 264.356 52.894 264.568 52.7796C264.78 52.6626 265.06 52.6042 265.409 52.6042C265.862 52.6042 266.266 52.7187 266.622 52.9476C266.977 53.1766 267.256 53.5066 267.458 53.9377C267.663 54.3688 267.765 54.8876 267.765 55.4941C267.765 56.1006 267.664 56.6206 267.462 57.0542C267.26 57.4853 266.982 57.8178 266.629 58.0516C266.276 58.283 265.873 58.3987 265.42 58.3987C265.079 58.3987 264.8 58.3414 264.583 58.227C264.369 58.1125 264.201 57.9785 264.079 57.8251C263.957 57.6716 263.863 57.5352 263.797 57.4159H263.732V60.3935H262.639ZM263.71 55.4832C263.71 55.8777 263.767 56.2236 263.881 56.5208C263.996 56.8179 264.162 57.0505 264.378 57.2186C264.595 57.3842 264.861 57.467 265.175 57.467C265.501 57.467 265.774 57.3806 265.993 57.2076C266.212 57.0323 266.378 56.7948 266.49 56.4952C266.605 56.1956 266.662 55.8583 266.662 55.4832C266.662 55.1129 266.606 54.7805 266.494 54.4857C266.384 54.191 266.219 53.9584 265.997 53.7879C265.778 53.6174 265.504 53.5322 265.175 53.5322C264.858 53.5322 264.59 53.6138 264.371 53.777C264.154 53.9402 263.99 54.1679 263.878 54.4602C263.766 54.7525 263.71 55.0935 263.71 55.4832ZM269.489 60.3935C269.326 60.3935 269.177 60.3801 269.043 60.3533C268.909 60.3289 268.809 60.3022 268.743 60.2729L269.006 59.3778C269.206 59.4314 269.384 59.4545 269.54 59.4472C269.696 59.4399 269.833 59.3815 269.953 59.2719C270.074 59.1623 270.182 58.9832 270.274 58.7348L270.409 58.3621L268.356 52.6773H269.525L270.946 57.0323H271.005L272.426 52.6773H273.599L271.286 59.038C271.179 59.3303 271.043 59.5775 270.877 59.7797C270.711 59.9843 270.514 60.1377 270.285 60.24C270.056 60.3423 269.791 60.3935 269.489 60.3935ZM275.718 54.9571V58.2891H274.626V52.6773H275.674V53.5906H275.744C275.873 53.2935 276.075 53.0548 276.35 52.8745C276.628 52.6943 276.977 52.6042 277.399 52.6042C277.781 52.6042 278.116 52.6846 278.403 52.8453C278.691 53.0036 278.914 53.2399 279.072 53.5541C279.23 53.8683 279.309 54.2568 279.309 54.7196V58.2891H278.217V54.8511C278.217 54.4443 278.111 54.1265 277.899 53.8975C277.687 53.6661 277.396 53.5504 277.026 53.5504C276.773 53.5504 276.547 53.6053 276.35 53.7149C276.155 53.8245 276.001 53.9852 275.886 54.1971C275.774 54.4066 275.718 54.6599 275.718 54.9571ZM280.862 58.2891V50.8067H281.955V53.587H282.02C282.084 53.4701 282.175 53.3349 282.294 53.1814C282.414 53.028 282.579 52.894 282.791 52.7796C283.003 52.6626 283.283 52.6042 283.631 52.6042C284.085 52.6042 284.489 52.7187 284.844 52.9476C285.2 53.1766 285.479 53.5066 285.681 53.9377C285.886 54.3688 285.988 54.8876 285.988 55.4941C285.988 56.1006 285.887 56.6206 285.685 57.0542C285.483 57.4853 285.205 57.8178 284.852 58.0516C284.499 58.283 284.095 58.3987 283.642 58.3987C283.301 58.3987 283.023 58.3414 282.806 58.227C282.591 58.1125 282.423 57.9785 282.302 57.8251C282.18 57.6716 282.086 57.5352 282.02 57.4159H281.929V58.2891H280.862ZM281.933 55.4832C281.933 55.8777 281.99 56.2236 282.104 56.5208C282.219 56.8179 282.384 57.0505 282.601 57.2186C282.818 57.3842 283.083 57.467 283.398 57.467C283.724 57.467 283.997 57.3806 284.216 57.2076C284.435 57.0323 284.601 56.7948 284.713 56.4952C284.827 56.1956 284.885 55.8583 284.885 55.4832C284.885 55.1129 284.829 54.7805 284.717 54.4857C284.607 54.191 284.441 53.9584 284.22 53.7879C284 53.6174 283.726 53.5322 283.398 53.5322C283.081 53.5322 282.813 53.6138 282.594 53.777C282.377 53.9402 282.213 54.1679 282.101 54.4602C281.989 54.7525 281.933 55.0935 281.933 55.4832Z" fill="black"/>
<path d="M278.717 9V1.51759H281.384C281.966 1.51759 282.448 1.62355 282.83 1.83545C283.213 2.04735 283.499 2.3372 283.689 2.70499C283.879 3.07034 283.974 3.48197 283.974 3.93988C283.974 4.40022 283.878 4.81429 283.685 5.18207C283.495 5.54742 283.208 5.83727 282.823 6.05161C282.441 6.26351 281.96 6.36947 281.38 6.36947H279.546V5.41224H281.278C281.645 5.41224 281.944 5.34892 282.173 5.22226C282.402 5.09317 282.57 4.9178 282.677 4.69616C282.784 4.47451 282.838 4.22242 282.838 3.93988C282.838 3.65734 282.784 3.40646 282.677 3.18725C282.57 2.96804 282.401 2.79633 282.169 2.67211C281.94 2.54789 281.638 2.48578 281.263 2.48578H279.846V9H278.717ZM285.21 9V3.3882H286.266V4.27965H286.324C286.426 3.97763 286.607 3.74015 286.865 3.56722C287.125 3.39185 287.42 3.30416 287.749 3.30416C287.817 3.30416 287.898 3.3066 287.99 3.31147C288.085 3.31634 288.159 3.32243 288.213 3.32974V4.37465C288.169 4.36247 288.091 4.34907 287.979 4.33446C287.867 4.31741 287.755 4.30888 287.643 4.30888C287.385 4.30888 287.155 4.36368 286.953 4.47329C286.753 4.58046 286.594 4.73025 286.478 4.92267C286.361 5.11266 286.302 5.32943 286.302 5.573V9H285.21ZM291.321 9.11326C290.795 9.11326 290.336 8.99269 289.944 8.75156C289.552 8.51043 289.247 8.17309 289.03 7.73954C288.814 7.30599 288.705 6.79936 288.705 6.21967C288.705 5.63754 288.814 5.12849 289.03 4.6925C289.247 4.25651 289.552 3.91796 289.944 3.67682C290.336 3.43569 290.795 3.31513 291.321 3.31513C291.847 3.31513 292.306 3.43569 292.699 3.67682C293.091 3.91796 293.395 4.25651 293.612 4.6925C293.829 5.12849 293.937 5.63754 293.937 6.21967C293.937 6.79936 293.829 7.30599 293.612 7.73954C293.395 8.17309 293.091 8.51043 292.699 8.75156C292.306 8.99269 291.847 9.11326 291.321 9.11326ZM291.325 8.19623C291.666 8.19623 291.948 8.10611 292.172 7.92587C292.397 7.74563 292.562 7.50571 292.669 7.20612C292.779 6.90653 292.834 6.5765 292.834 6.21602C292.834 5.85797 292.779 5.52916 292.669 5.22957C292.562 4.92754 292.397 4.68519 292.172 4.50252C291.948 4.31984 291.666 4.2285 291.325 4.2285C290.981 4.2285 290.696 4.31984 290.47 4.50252C290.246 4.68519 290.079 4.92754 289.969 5.22957C289.862 5.52916 289.809 5.85797 289.809 6.21602C289.809 6.5765 289.862 6.90653 289.969 7.20612C290.079 7.50571 290.246 7.74563 290.47 7.92587C290.696 8.10611 290.981 8.19623 291.325 8.19623ZM295.156 3.3882H296.249V9.36535C296.249 9.74045 296.181 10.0571 296.044 10.3153C295.91 10.5734 295.711 10.7695 295.445 10.9035C295.182 11.0374 294.857 11.1044 294.47 11.1044C294.431 11.1044 294.394 11.1044 294.36 11.1044C294.323 11.1044 294.286 11.1032 294.247 11.1008V10.1618C294.281 10.1618 294.311 10.1618 294.338 10.1618C294.362 10.1618 294.39 10.1618 294.422 10.1618C294.68 10.1618 294.867 10.0924 294.981 9.95357C295.098 9.81717 295.156 9.61866 295.156 9.35804V3.3882ZM295.697 2.52231C295.507 2.52231 295.344 2.45898 295.208 2.33233C295.074 2.20324 295.007 2.04979 295.007 1.87198C295.007 1.69174 295.074 1.5383 295.208 1.41164C295.344 1.28255 295.507 1.21801 295.697 1.21801C295.887 1.21801 296.049 1.28255 296.183 1.41164C296.32 1.5383 296.388 1.69174 296.388 1.87198C296.388 2.04979 296.32 2.20324 296.183 2.33233C296.049 2.45898 295.887 2.52231 295.697 2.52231ZM300.137 9.11326C299.584 9.11326 299.108 8.99513 298.709 8.75887C298.312 8.52017 298.005 8.18527 297.788 7.75415C297.574 7.3206 297.466 6.81276 297.466 6.23063C297.466 5.65581 297.574 5.14919 297.788 4.71077C298.005 4.27235 298.307 3.93013 298.694 3.68413C299.084 3.43813 299.539 3.31513 300.06 3.31513C300.377 3.31513 300.684 3.36749 300.981 3.47223C301.278 3.57696 301.545 3.74137 301.781 3.96545C302.017 4.18953 302.204 4.4806 302.34 4.83864C302.477 5.19425 302.545 5.62658 302.545 6.13564V6.52291H298.084V5.70453H301.474C301.474 5.41712 301.416 5.16259 301.299 4.94094C301.182 4.71686 301.018 4.54027 300.806 4.41118C300.596 4.28209 300.35 4.21754 300.068 4.21754C299.761 4.21754 299.493 4.29305 299.264 4.44406C299.037 4.59264 298.862 4.78749 298.738 5.02863C298.616 5.26732 298.555 5.52672 298.555 5.80682V6.44619C298.555 6.82129 298.621 7.14036 298.752 7.40341C298.886 7.66647 299.073 7.86741 299.311 8.00624C299.55 8.14264 299.829 8.21084 300.148 8.21084C300.355 8.21084 300.544 8.18161 300.714 8.12316C300.885 8.06226 301.032 7.97214 301.156 7.8528C301.281 7.73345 301.376 7.58609 301.441 7.41072L302.475 7.59705C302.393 7.90151 302.244 8.16822 302.03 8.39717C301.818 8.62369 301.551 8.80027 301.23 8.92693C300.91 9.05115 300.546 9.11326 300.137 9.11326ZM306.121 9.11326C305.578 9.11326 305.11 8.99026 304.718 8.74425C304.328 8.49581 304.028 8.1536 303.819 7.71761C303.61 7.28163 303.505 6.78231 303.505 6.21967C303.505 5.64972 303.612 5.14676 303.826 4.71077C304.041 4.27235 304.343 3.93013 304.732 3.68413C305.122 3.43813 305.581 3.31513 306.11 3.31513C306.536 3.31513 306.916 3.39428 307.25 3.5526C307.583 3.70849 307.852 3.9277 308.057 4.21024C308.264 4.49278 308.387 4.82281 308.426 5.20034H307.363C307.304 4.93729 307.17 4.71077 306.961 4.52079C306.754 4.3308 306.476 4.23581 306.128 4.23581C305.824 4.23581 305.557 4.31619 305.328 4.47694C305.101 4.63526 304.925 4.86178 304.798 5.1565C304.671 5.44878 304.608 5.79465 304.608 6.1941C304.608 6.60329 304.67 6.95647 304.794 7.25362C304.919 7.55077 305.094 7.78094 305.321 7.94413C305.55 8.10732 305.819 8.18892 306.128 8.18892C306.335 8.18892 306.523 8.15117 306.691 8.07566C306.861 7.99772 307.004 7.88689 307.118 7.74319C307.235 7.59948 307.317 7.42655 307.363 7.22439H308.426C308.387 7.58731 308.269 7.91125 308.072 8.19623C307.874 8.4812 307.61 8.70528 307.279 8.86847C306.95 9.03166 306.564 9.11326 306.121 9.11326ZM312.214 3.3882V4.26504H309.149V3.3882H312.214ZM309.971 2.0437H311.063V7.35226C311.063 7.56417 311.095 7.7237 311.158 7.83087C311.221 7.93561 311.303 8.00746 311.403 8.04643C311.505 8.08297 311.616 8.10123 311.735 8.10123C311.823 8.10123 311.9 8.09515 311.965 8.08297C312.031 8.07079 312.082 8.06105 312.119 8.05374L312.316 8.95616C312.253 8.98051 312.163 9.00487 312.046 9.02923C311.929 9.05602 311.783 9.07063 311.607 9.07307C311.32 9.07794 311.052 9.02679 310.804 8.91962C310.555 8.81245 310.354 8.64683 310.201 8.42274C310.047 8.19866 309.971 7.91734 309.971 7.57878V2.0437ZM313.408 9V8.18161L315.94 5.55839C316.21 5.27341 316.433 5.02375 316.608 4.80941C316.786 4.59264 316.919 4.38682 317.006 4.19197C317.094 3.99712 317.138 3.79008 317.138 3.57087C317.138 3.32243 317.079 3.10809 316.963 2.92785C316.846 2.74518 316.686 2.60512 316.484 2.5077C316.282 2.40783 316.054 2.3579 315.801 2.3579C315.533 2.3579 315.299 2.41271 315.099 2.52231C314.899 2.63192 314.746 2.78658 314.639 2.98631C314.532 3.18603 314.478 3.41986 314.478 3.68778H313.4C313.4 3.23231 313.505 2.83408 313.715 2.49308C313.924 2.15209 314.211 1.88782 314.577 1.70027C314.942 1.51029 315.357 1.4153 315.823 1.4153C316.293 1.4153 316.707 1.50907 317.065 1.69662C317.425 1.88173 317.707 2.13504 317.909 2.45655C318.111 2.77562 318.212 3.1361 318.212 3.53799C318.212 3.81566 318.16 4.08724 318.055 4.35272C317.953 4.61821 317.774 4.91415 317.518 5.24053C317.262 5.56447 316.906 5.95784 316.451 6.42062L314.964 7.97701V8.03182H318.333V9H313.408Z" fill="black"/>
<path d="M262.318 70.793C262.318 70.2485 261.876 69.8072 261.332 69.8072C260.788 69.8072 260.346 70.2485 260.346 70.793L262.318 70.793ZM260.635 120.385C261.02 120.77 261.644 120.77 262.029 120.385L268.303 114.111C268.688 113.726 268.688 113.102 268.303 112.717C267.918 112.332 267.293 112.332 266.908 112.717L261.332 118.294L255.756 112.717C255.371 112.332 254.746 112.332 254.361 112.717C253.977 113.102 253.977 113.726 254.361 114.111L260.635 120.385ZM260.346 70.793L260.346 119.688L262.318 119.688L262.318 70.793L260.346 70.793Z" fill="#4A4A4A"/>
<path d="M209.948 134.855C209.749 134.855 209.577 134.784 209.433 134.643C209.289 134.499 209.218 134.326 209.218 134.124C209.218 133.924 209.289 133.754 209.433 133.612C209.577 133.469 209.749 133.397 209.948 133.397C210.148 133.397 210.32 133.469 210.463 133.612C210.607 133.754 210.679 133.924 210.679 134.124C210.679 134.258 210.645 134.381 210.577 134.493C210.511 134.602 210.423 134.69 210.314 134.756C210.204 134.822 210.082 134.855 209.948 134.855ZM212.862 134.855C212.662 134.855 212.49 134.784 212.347 134.643C212.203 134.499 212.131 134.326 212.131 134.124C212.131 133.924 212.203 133.754 212.347 133.612C212.49 133.469 212.662 133.397 212.862 133.397C213.062 133.397 213.233 133.469 213.377 133.612C213.521 133.754 213.593 133.924 213.593 134.124C213.593 134.258 213.559 134.381 213.49 134.493C213.425 134.602 213.337 134.69 213.227 134.756C213.118 134.822 212.996 134.855 212.862 134.855ZM217.906 126.952L215.494 135.91H214.519L216.93 126.952H217.906ZM218.921 134.785V127.303H221.588C222.17 127.303 222.653 127.409 223.035 127.621C223.418 127.833 223.704 128.122 223.894 128.49C224.084 128.855 224.179 129.267 224.179 129.725C224.179 130.185 224.082 130.599 223.89 130.967C223.7 131.333 223.413 131.622 223.028 131.837C222.645 132.049 222.164 132.155 221.585 132.155H219.751V131.197H221.482C221.85 131.197 222.149 131.134 222.378 131.007C222.606 130.878 222.775 130.703 222.882 130.481C222.989 130.26 223.042 130.008 223.042 129.725C223.042 129.442 222.989 129.192 222.882 128.972C222.775 128.753 222.605 128.581 222.374 128.457C222.145 128.333 221.843 128.271 221.468 128.271H220.05V134.785H218.921ZM225.414 134.785V129.173H226.47V130.065H226.529C226.631 129.763 226.811 129.525 227.07 129.352C227.33 129.177 227.625 129.089 227.954 129.089C228.022 129.089 228.102 129.092 228.195 129.097C228.29 129.101 228.364 129.108 228.418 129.115V130.16C228.374 130.148 228.296 130.134 228.184 130.12C228.072 130.103 227.96 130.094 227.848 130.094C227.59 130.094 227.359 130.149 227.157 130.258C226.958 130.366 226.799 130.515 226.682 130.708C226.565 130.898 226.507 131.115 226.507 131.358V134.785H225.414ZM231.526 134.898C231 134.898 230.541 134.778 230.149 134.537C229.756 134.296 229.452 133.958 229.235 133.525C229.018 133.091 228.91 132.585 228.91 132.005C228.91 131.423 229.018 130.914 229.235 130.478C229.452 130.042 229.756 129.703 230.149 129.462C230.541 129.221 231 129.1 231.526 129.1C232.052 129.1 232.511 129.221 232.903 129.462C233.295 129.703 233.6 130.042 233.817 130.478C234.033 130.914 234.142 131.423 234.142 132.005C234.142 132.585 234.033 133.091 233.817 133.525C233.6 133.958 233.295 134.296 232.903 134.537C232.511 134.778 232.052 134.898 231.526 134.898ZM231.53 133.981C231.871 133.981 232.153 133.891 232.377 133.711C232.601 133.531 232.767 133.291 232.874 132.991C232.984 132.692 233.038 132.362 233.038 132.001C233.038 131.643 232.984 131.314 232.874 131.015C232.767 130.713 232.601 130.47 232.377 130.288C232.153 130.105 231.871 130.014 231.53 130.014C231.186 130.014 230.901 130.105 230.675 130.288C230.451 130.47 230.284 130.713 230.174 131.015C230.067 131.314 230.013 131.643 230.013 132.001C230.013 132.362 230.067 132.692 230.174 132.991C230.284 133.291 230.451 133.531 230.675 133.711C230.901 133.891 231.186 133.981 231.53 133.981ZM235.361 129.173H236.454V135.151C236.454 135.526 236.385 135.842 236.249 136.1C236.115 136.359 235.915 136.555 235.65 136.689C235.387 136.823 235.062 136.89 234.674 136.89C234.635 136.89 234.599 136.89 234.565 136.89C234.528 136.89 234.49 136.888 234.451 136.886V135.947C234.486 135.947 234.516 135.947 234.543 135.947C234.567 135.947 234.595 135.947 234.627 135.947C234.885 135.947 235.071 135.878 235.186 135.739C235.303 135.602 235.361 135.404 235.361 135.143V129.173ZM235.902 128.307C235.712 128.307 235.549 128.244 235.412 128.117C235.278 127.988 235.211 127.835 235.211 127.657C235.211 127.477 235.278 127.323 235.412 127.197C235.549 127.068 235.712 127.003 235.902 127.003C236.092 127.003 236.254 127.068 236.388 127.197C236.524 127.323 236.592 127.477 236.592 127.657C236.592 127.835 236.524 127.988 236.388 128.117C236.254 128.244 236.092 128.307 235.902 128.307ZM240.342 134.898C239.789 134.898 239.313 134.78 238.913 134.544C238.516 134.305 238.209 133.97 237.993 133.539C237.778 133.106 237.671 132.598 237.671 132.016C237.671 131.441 237.778 130.934 237.993 130.496C238.209 130.058 238.511 129.715 238.899 129.469C239.288 129.223 239.744 129.1 240.265 129.1C240.582 129.1 240.889 129.153 241.186 129.257C241.483 129.362 241.75 129.527 241.986 129.751C242.222 129.975 242.409 130.266 242.545 130.624C242.681 130.979 242.75 131.412 242.75 131.921V132.308H238.289V131.49H241.679C241.679 131.202 241.621 130.948 241.504 130.726C241.387 130.502 241.222 130.325 241.01 130.196C240.801 130.067 240.555 130.003 240.272 130.003C239.966 130.003 239.698 130.078 239.469 130.229C239.242 130.378 239.067 130.573 238.943 130.814C238.821 131.052 238.76 131.312 238.76 131.592V132.231C238.76 132.606 238.826 132.926 238.957 133.189C239.091 133.452 239.277 133.653 239.516 133.791C239.755 133.928 240.034 133.996 240.353 133.996C240.56 133.996 240.749 133.967 240.919 133.908C241.09 133.847 241.237 133.757 241.361 133.638C241.485 133.519 241.58 133.371 241.646 133.196L242.68 133.382C242.597 133.687 242.449 133.953 242.234 134.182C242.022 134.409 241.756 134.585 241.434 134.712C241.115 134.836 240.751 134.898 240.342 134.898ZM246.325 134.898C245.782 134.898 245.315 134.775 244.922 134.529C244.533 134.281 244.233 133.939 244.024 133.503C243.814 133.067 243.709 132.567 243.709 132.005C243.709 131.435 243.817 130.932 244.031 130.496C244.245 130.058 244.547 129.715 244.937 129.469C245.327 129.223 245.786 129.1 246.314 129.1C246.741 129.1 247.121 129.179 247.454 129.338C247.788 129.494 248.057 129.713 248.262 129.995C248.469 130.278 248.592 130.608 248.631 130.985H247.568C247.509 130.722 247.375 130.496 247.166 130.306C246.959 130.116 246.681 130.021 246.333 130.021C246.028 130.021 245.762 130.101 245.533 130.262C245.306 130.42 245.129 130.647 245.003 130.942C244.876 131.234 244.813 131.58 244.813 131.979C244.813 132.388 244.875 132.742 244.999 133.039C245.123 133.336 245.299 133.566 245.525 133.729C245.754 133.892 246.023 133.974 246.333 133.974C246.54 133.974 246.727 133.936 246.895 133.861C247.066 133.783 247.208 133.672 247.323 133.528C247.44 133.385 247.521 133.212 247.568 133.01H248.631C248.592 133.372 248.474 133.696 248.276 133.981C248.079 134.266 247.815 134.49 247.484 134.654C247.155 134.817 246.769 134.898 246.325 134.898ZM252.419 129.173V130.05H249.353V129.173H252.419ZM250.175 127.829H251.268V133.137C251.268 133.349 251.299 133.509 251.363 133.616C251.426 133.721 251.508 133.793 251.607 133.832C251.71 133.868 251.821 133.886 251.94 133.886C252.028 133.886 252.104 133.88 252.17 133.868C252.236 133.856 252.287 133.846 252.324 133.839L252.521 134.741C252.458 134.766 252.367 134.79 252.251 134.814C252.134 134.841 251.987 134.856 251.812 134.858C251.525 134.863 251.257 134.812 251.008 134.705C250.76 134.598 250.559 134.432 250.405 134.208C250.252 133.984 250.175 133.702 250.175 133.364V127.829ZM256.451 127.303V134.785H255.319V128.435H255.275L253.484 129.604V128.523L255.351 127.303H256.451ZM261.34 126.952L258.928 135.91H257.953L260.364 126.952H261.34ZM262.268 134.785V129.173H263.323V130.065H263.382C263.484 129.763 263.664 129.525 263.923 129.352C264.183 129.177 264.478 129.089 264.807 129.089C264.875 129.089 264.955 129.092 265.048 129.097C265.143 129.101 265.217 129.108 265.271 129.115V130.16C265.227 130.148 265.149 130.134 265.037 130.12C264.925 130.103 264.813 130.094 264.701 130.094C264.443 130.094 264.212 130.149 264.01 130.258C263.811 130.366 263.652 130.515 263.535 130.708C263.418 130.898 263.36 131.115 263.36 131.358V134.785H262.268ZM268.434 134.898C267.881 134.898 267.405 134.78 267.005 134.544C266.608 134.305 266.301 133.97 266.085 133.539C265.87 133.106 265.763 132.598 265.763 132.016C265.763 131.441 265.87 130.934 266.085 130.496C266.301 130.058 266.603 129.715 266.991 129.469C267.38 129.223 267.836 129.1 268.357 129.1C268.674 129.1 268.981 129.153 269.278 129.257C269.575 129.362 269.842 129.527 270.078 129.751C270.314 129.975 270.5 130.266 270.637 130.624C270.773 130.979 270.841 131.412 270.841 131.921V132.308H266.38V131.49H269.771C269.771 131.202 269.712 130.948 269.596 130.726C269.479 130.502 269.314 130.325 269.102 130.196C268.893 130.067 268.647 130.003 268.364 130.003C268.057 130.003 267.79 130.078 267.561 130.229C267.334 130.378 267.159 130.573 267.034 130.814C266.913 131.052 266.852 131.312 266.852 131.592V132.231C266.852 132.606 266.918 132.926 267.049 133.189C267.183 133.452 267.369 133.653 267.608 133.791C267.847 133.928 268.126 133.996 268.445 133.996C268.652 133.996 268.841 133.967 269.011 133.908C269.182 133.847 269.329 133.757 269.453 133.638C269.577 133.519 269.672 133.371 269.738 133.196L270.772 133.382C270.689 133.687 270.541 133.953 270.326 134.182C270.114 134.409 269.848 134.585 269.526 134.712C269.207 134.836 268.843 134.898 268.434 134.898ZM276.259 130.543L275.269 130.719C275.227 130.592 275.161 130.472 275.071 130.357C274.984 130.243 274.864 130.149 274.713 130.076C274.562 130.003 274.373 129.966 274.147 129.966C273.838 129.966 273.579 130.036 273.372 130.174C273.165 130.311 273.062 130.487 273.062 130.704C273.062 130.892 273.131 131.043 273.27 131.157C273.409 131.272 273.633 131.365 273.942 131.439L274.834 131.643C275.35 131.762 275.735 131.946 275.988 132.195C276.242 132.443 276.368 132.766 276.368 133.163C276.368 133.499 276.271 133.799 276.076 134.062C275.884 134.322 275.614 134.527 275.269 134.676C274.925 134.824 274.527 134.898 274.074 134.898C273.445 134.898 272.933 134.764 272.536 134.497C272.139 134.226 271.895 133.843 271.805 133.346L272.861 133.185C272.927 133.46 273.062 133.668 273.266 133.81C273.471 133.949 273.738 134.018 274.067 134.018C274.425 134.018 274.711 133.944 274.925 133.795C275.139 133.644 275.247 133.46 275.247 133.243C275.247 133.068 275.181 132.921 275.049 132.801C274.92 132.682 274.722 132.592 274.454 132.531L273.504 132.323C272.98 132.203 272.593 132.013 272.342 131.753C272.094 131.492 271.969 131.162 271.969 130.763C271.969 130.431 272.062 130.142 272.247 129.893C272.432 129.645 272.688 129.451 273.014 129.312C273.341 129.171 273.715 129.1 274.136 129.1C274.742 129.1 275.22 129.232 275.568 129.495C275.916 129.755 276.147 130.105 276.259 130.543ZM278.662 131.453V134.785H277.569V129.173H278.618V130.087H278.687C278.816 129.79 279.019 129.551 279.294 129.371C279.572 129.19 279.921 129.1 280.342 129.1C280.725 129.1 281.06 129.181 281.347 129.341C281.635 129.5 281.857 129.736 282.016 130.05C282.174 130.364 282.253 130.753 282.253 131.216V134.785H281.161V131.347C281.161 130.94 281.055 130.623 280.843 130.394C280.631 130.162 280.34 130.047 279.97 130.047C279.716 130.047 279.491 130.101 279.294 130.211C279.099 130.321 278.944 130.481 278.83 130.693C278.718 130.903 278.662 131.156 278.662 131.453ZM286.137 134.898C285.584 134.898 285.108 134.78 284.708 134.544C284.311 134.305 284.004 133.97 283.788 133.539C283.573 133.106 283.466 132.598 283.466 132.016C283.466 131.441 283.573 130.934 283.788 130.496C284.004 130.058 284.306 129.715 284.694 129.469C285.083 129.223 285.539 129.1 286.06 129.1C286.377 129.1 286.684 129.153 286.981 129.257C287.278 129.362 287.545 129.527 287.781 129.751C288.017 129.975 288.204 130.266 288.34 130.624C288.476 130.979 288.545 131.412 288.545 131.921V132.308H284.084V131.49H287.474C287.474 131.202 287.416 130.948 287.299 130.726C287.182 130.502 287.017 130.325 286.805 130.196C286.596 130.067 286.35 130.003 286.067 130.003C285.761 130.003 285.493 130.078 285.264 130.229C285.037 130.378 284.862 130.573 284.738 130.814C284.616 131.052 284.555 131.312 284.555 131.592V132.231C284.555 132.606 284.621 132.926 284.752 133.189C284.886 133.452 285.072 133.653 285.311 133.791C285.55 133.928 285.829 133.996 286.148 133.996C286.355 133.996 286.544 133.967 286.714 133.908C286.885 133.847 287.032 133.757 287.156 133.638C287.28 133.519 287.375 133.371 287.441 133.196L288.475 133.382C288.392 133.687 288.244 133.953 288.029 134.182C287.818 134.409 287.551 134.585 287.229 134.712C286.91 134.836 286.546 134.898 286.137 134.898ZM292.376 129.173V130.05H289.311V129.173H292.376ZM290.133 127.829H291.225V133.137C291.225 133.349 291.257 133.509 291.32 133.616C291.384 133.721 291.465 133.793 291.565 133.832C291.667 133.868 291.778 133.886 291.898 133.886C291.985 133.886 292.062 133.88 292.128 133.868C292.194 133.856 292.245 133.846 292.281 133.839L292.478 134.741C292.415 134.766 292.325 134.79 292.208 134.814C292.091 134.841 291.945 134.856 291.77 134.858C291.482 134.863 291.214 134.812 290.966 134.705C290.717 134.598 290.517 134.432 290.363 134.208C290.21 133.984 290.133 133.702 290.133 133.364V127.829ZM297.592 134.785V135.713H292.839V134.785H297.592ZM298.554 134.785L301.821 128.326V128.271H298.043V127.303H302.99V128.304L299.734 134.785H298.554ZM303.708 134.855C303.509 134.855 303.337 134.784 303.193 134.643C303.05 134.499 302.978 134.326 302.978 134.124C302.978 133.924 303.05 133.754 303.193 133.612C303.337 133.469 303.509 133.397 303.708 133.397C303.908 133.397 304.08 133.469 304.224 133.612C304.367 133.754 304.439 133.924 304.439 134.124C304.439 134.258 304.405 134.381 304.337 134.493C304.271 134.602 304.183 134.69 304.074 134.756C303.964 134.822 303.842 134.855 303.708 134.855ZM305.902 136.89V129.173H306.969V130.083H307.061C307.124 129.966 307.215 129.831 307.335 129.678C307.454 129.524 307.62 129.39 307.831 129.276C308.043 129.159 308.323 129.1 308.672 129.1C309.125 129.1 309.529 129.215 309.885 129.444C310.24 129.673 310.519 130.003 310.721 130.434C310.926 130.865 311.028 131.384 311.028 131.99C311.028 132.597 310.927 133.117 310.725 133.55C310.523 133.981 310.245 134.314 309.892 134.548C309.539 134.779 309.136 134.895 308.683 134.895C308.342 134.895 308.063 134.838 307.846 134.723C307.632 134.609 307.464 134.475 307.342 134.321C307.22 134.168 307.126 134.031 307.061 133.912H306.995V136.89H305.902ZM306.973 131.979C306.973 132.374 307.03 132.72 307.145 133.017C307.259 133.314 307.425 133.547 307.642 133.715C307.858 133.88 308.124 133.963 308.438 133.963C308.764 133.963 309.037 133.877 309.256 133.704C309.476 133.528 309.641 133.291 309.753 132.991C309.868 132.692 309.925 132.354 309.925 131.979C309.925 131.609 309.869 131.277 309.757 130.982C309.647 130.687 309.482 130.455 309.26 130.284C309.041 130.114 308.767 130.028 308.438 130.028C308.121 130.028 307.853 130.11 307.634 130.273C307.417 130.436 307.253 130.664 307.141 130.956C307.029 131.249 306.973 131.59 306.973 131.979ZM314.872 129.173V130.05H311.807V129.173H314.872ZM312.629 127.829H313.721V133.137C313.721 133.349 313.753 133.509 313.816 133.616C313.879 133.721 313.961 133.793 314.061 133.832C314.163 133.868 314.274 133.886 314.393 133.886C314.481 133.886 314.558 133.88 314.623 133.868C314.689 133.856 314.74 133.846 314.777 133.839L314.974 134.741C314.911 134.766 314.821 134.79 314.704 134.814C314.587 134.841 314.441 134.856 314.265 134.858C313.978 134.863 313.71 134.812 313.462 134.705C313.213 134.598 313.012 134.432 312.859 134.208C312.705 133.984 312.629 133.702 312.629 133.364V127.829Z" fill="black"/>
</g>
<defs>
<filter id="filter0_d_933_685" x="0.0429688" y="0.802734" width="332.916" height="144.086" filterUnits="userSpaceOnUse" color-interpolation-filters="sRGB">
<feFlood flood-opacity="0" result="BackgroundImageFix"/>
<feColorMatrix in="SourceAlpha" type="matrix" values="0 0 0 0 0 0 0 0 0 0 0 0 0 0 0 0 0 0 127 0" result="hardAlpha"/>
<feOffset dy="4"/>
<feGaussianBlur stdDeviation="2"/>
<feComposite in2="hardAlpha" operator="out"/>
<feColorMatrix type="matrix" values="0 0 0 0 0 0 0 0 0 0 0 0 0 0 0 0 0 0 0.25 0"/>
<feBlend mode="normal" in2="BackgroundImageFix" result="effect1_dropShadow_933_685"/>
<feBlend mode="normal" in="SourceGraphic" in2="effect1_dropShadow_933_685" result="shape"/>
</filter>
</defs>
</svg>
