<svg width="159" height="356" viewBox="0 0 159 356" fill="none" xmlns="http://www.w3.org/2000/svg">
<g filter="url(#filter0_d_2188_1633)">
<rect x="4" width="150.185" height="347.662" rx="12.8769" fill="#F9F9F9"/>
<path d="M126.502 141.754C126.854 141.802 127.178 141.555 127.226 141.202L127.999 135.459C128.046 135.107 127.799 134.783 127.446 134.735C127.094 134.688 126.77 134.935 126.722 135.288L126.036 140.392L120.931 139.706C120.578 139.658 120.254 139.905 120.207 140.258C120.159 140.61 120.407 140.934 120.759 140.982L126.502 141.754ZM41.6033 30.7655L126.076 141.507L127.1 140.726L42.6272 29.9845L41.6033 30.7655Z" fill="#BBBBBB"/>
<path d="M126.364 214.861C126.698 214.985 127.068 214.814 127.191 214.481L129.204 209.047C129.328 208.714 129.158 208.343 128.824 208.22C128.491 208.096 128.12 208.266 127.997 208.6L126.208 213.43L121.378 211.641C121.044 211.517 120.674 211.687 120.55 212.021C120.427 212.354 120.597 212.725 120.93 212.848L126.364 214.861ZM41.5302 30.6438L126.003 214.526L127.173 213.988L42.7003 30.1062L41.5302 30.6438Z" fill="#BBBBBB"/>
<path d="M126.419 214.879C126.762 214.972 127.116 214.769 127.209 214.426L128.725 208.833C128.818 208.49 128.616 208.136 128.272 208.043C127.929 207.95 127.576 208.153 127.483 208.496L126.135 213.467L121.163 212.119C120.82 212.026 120.467 212.229 120.374 212.572C120.281 212.916 120.483 213.269 120.827 213.362L126.419 214.879ZM41.5567 67.2656L126.029 214.577L127.146 213.937L42.6738 66.625L41.5567 67.2656Z" fill="#BBBBBB"/>
<path d="M126.502 214.896C126.854 214.943 127.178 214.696 127.226 214.343L127.999 208.601C128.046 208.248 127.799 207.924 127.446 207.877C127.094 207.829 126.77 208.076 126.722 208.429L126.036 213.534L120.931 212.847C120.578 212.799 120.254 213.046 120.207 213.399C120.159 213.751 120.407 214.075 120.759 214.123L126.502 214.896ZM41.6033 103.907L126.076 214.648L127.1 213.867L42.6272 103.126L41.6033 103.907Z" fill="#BBBBBB"/>
<path d="M126.634 214.899C126.989 214.874 127.255 214.566 127.23 214.211L126.814 208.431C126.789 208.077 126.481 207.81 126.126 207.835C125.771 207.861 125.505 208.169 125.53 208.524L125.899 213.661L120.762 214.03C120.407 214.056 120.14 214.364 120.166 214.719C120.191 215.073 120.5 215.34 120.854 215.315L126.634 214.899ZM41.6938 141.603L126.166 214.744L127.009 213.77L42.5367 140.629L41.6938 141.603Z" fill="#BBBBBB"/>
<path d="M126.819 214.858C127.15 214.731 127.316 214.358 127.189 214.027L125.112 208.617C124.984 208.285 124.612 208.119 124.28 208.247C123.948 208.374 123.782 208.747 123.91 209.079L125.756 213.887L120.947 215.733C120.615 215.861 120.45 216.233 120.577 216.565C120.705 216.897 121.077 217.063 121.409 216.935L126.819 214.858ZM41.8534 177.245L126.326 214.846L126.85 213.669L42.3771 176.069L41.8534 177.245Z" fill="#BBBBBB"/>
<path d="M127.037 214.718C127.292 214.47 127.297 214.062 127.049 213.808L123.001 209.66C122.753 209.406 122.345 209.401 122.091 209.649C121.836 209.898 121.831 210.305 122.08 210.56L125.677 214.246L121.991 217.844C121.737 218.092 121.732 218.5 121.98 218.754C122.228 219.009 122.636 219.013 122.89 218.765L127.037 214.718ZM42.1074 213.871L126.58 214.901L126.596 213.613L42.1231 212.583L42.1074 213.871Z" fill="#BBBBBB"/>
<path d="M127.184 214.501C127.318 214.171 127.16 213.796 126.831 213.661L121.465 211.474C121.136 211.339 120.76 211.497 120.626 211.827C120.492 212.156 120.65 212.532 120.979 212.666L125.748 214.611L123.804 219.38C123.67 219.71 123.828 220.085 124.157 220.22C124.486 220.354 124.862 220.196 124.996 219.866L127.184 214.501ZM42.3649 250.391L126.837 214.851L126.338 213.664L41.8655 249.204L42.3649 250.391Z" fill="#BBBBBB"/>
<path d="M127.23 214.308C127.258 213.954 126.993 213.644 126.638 213.616L120.862 213.16C120.507 213.132 120.197 213.396 120.169 213.751C120.141 214.105 120.406 214.415 120.76 214.443L125.895 214.849L125.49 219.983C125.462 220.338 125.727 220.648 126.081 220.676C126.436 220.704 126.746 220.439 126.774 220.085L127.23 214.308ZM42.5333 286.858L127.006 214.747L126.17 213.768L41.6972 285.878L42.5333 286.858Z" fill="#BBBBBB"/>
<path d="M127.227 214.177C127.182 213.824 126.861 213.574 126.508 213.619L120.758 214.339C120.405 214.383 120.155 214.705 120.199 215.058C120.243 215.411 120.565 215.661 120.918 215.617L126.029 214.976L126.67 220.087C126.714 220.44 127.036 220.69 127.388 220.646C127.741 220.602 127.991 220.28 127.947 219.927L127.227 214.177ZM42.6236 323.334L127.096 214.653L126.079 213.862L41.6069 322.543L42.6236 323.334Z" fill="#BBBBBB"/>
<path d="M126.421 177.279C126.765 177.371 127.118 177.167 127.21 176.823L128.709 171.226C128.801 170.882 128.597 170.529 128.254 170.437C127.91 170.345 127.557 170.549 127.465 170.893L126.132 175.868L121.157 174.535C120.814 174.443 120.461 174.647 120.369 174.991C120.277 175.334 120.48 175.687 120.824 175.779L126.421 177.279ZM41.5577 30.697L126.03 176.979L127.145 176.335L42.6728 30.053L41.5577 30.697Z" fill="#BBBBBB"/>
<path d="M126.505 177.295C126.857 177.341 127.18 177.092 127.226 176.74L127.973 170.993C128.019 170.641 127.77 170.318 127.418 170.272C127.065 170.226 126.742 170.475 126.696 170.827L126.032 175.935L120.924 175.271C120.572 175.225 120.249 175.474 120.203 175.827C120.157 176.179 120.406 176.502 120.758 176.548L126.505 177.295ZM41.6051 67.3381L126.078 177.049L127.098 176.264L42.6254 66.5525L41.6051 67.3381Z" fill="#BBBBBB"/>
<path d="M126.636 177.299C126.991 177.272 127.256 176.963 127.23 176.609L126.794 170.83C126.767 170.476 126.458 170.21 126.104 170.237C125.749 170.264 125.483 170.573 125.51 170.927L125.897 176.063L120.761 176.451C120.407 176.477 120.141 176.787 120.168 177.141C120.194 177.496 120.503 177.761 120.858 177.735L126.636 177.299ZM41.6955 104.519L126.168 177.145L127.007 176.169L42.535 103.543L41.6955 104.519Z" fill="#BBBBBB"/>
<path d="M126.831 177.253C127.16 177.118 127.318 176.743 127.184 176.413L124.996 171.048C124.862 170.718 124.486 170.56 124.157 170.695C123.828 170.829 123.67 171.205 123.804 171.534L125.748 176.303L120.979 178.248C120.65 178.382 120.492 178.758 120.626 179.087C120.76 179.417 121.136 179.575 121.465 179.44L126.831 177.253ZM41.8655 141.71L126.338 177.25L126.837 176.063L42.3649 140.523L41.8655 141.71Z" fill="#BBBBBB"/>
<path d="M127.049 177.107C127.297 176.852 127.292 176.444 127.037 176.196L122.89 172.149C122.636 171.901 122.228 171.906 121.98 172.16C121.732 172.415 121.737 172.822 121.991 173.071L125.677 176.668L122.08 180.354C121.831 180.609 121.836 181.016 122.091 181.265C122.345 181.513 122.753 181.508 123.001 181.254L127.049 177.107ZM42.1231 178.331L126.596 177.301L126.58 176.013L42.1074 177.043L42.1231 178.331Z" fill="#BBBBBB"/>
<path d="M127.186 176.894C127.317 176.563 127.155 176.189 126.825 176.058L121.437 173.926C121.106 173.795 120.732 173.957 120.601 174.287C120.47 174.618 120.632 174.992 120.963 175.123L125.752 177.018L123.857 181.808C123.726 182.138 123.888 182.512 124.219 182.643C124.549 182.774 124.923 182.612 125.054 182.282L127.186 176.894ZM42.371 213.818L126.844 177.247L126.332 176.066L41.8594 212.636L42.371 213.818Z" fill="#BBBBBB"/>
<path d="M127.23 176.703C127.255 176.349 126.989 176.04 126.634 176.015L120.854 175.599C120.5 175.574 120.191 175.841 120.166 176.195C120.14 176.55 120.407 176.858 120.762 176.884L125.899 177.253L125.53 182.391C125.505 182.745 125.771 183.053 126.126 183.079C126.481 183.104 126.789 182.838 126.814 182.483L127.23 176.703ZM42.5367 250.285L127.009 177.144L126.166 176.17L41.6938 249.311L42.5367 250.285Z" fill="#BBBBBB"/>
<path d="M127.226 176.574C127.18 176.221 126.857 175.973 126.505 176.018L120.758 176.765C120.406 176.811 120.157 177.134 120.203 177.487C120.249 177.839 120.572 178.088 120.924 178.042L126.032 177.378L126.696 182.486C126.742 182.839 127.065 183.087 127.418 183.042C127.77 182.996 128.019 182.673 127.973 182.32L127.226 176.574ZM42.6254 286.761L127.098 177.05L126.078 176.264L41.6051 285.975L42.6254 286.761Z" fill="#BBBBBB"/>
<path d="M127.21 176.49C127.118 176.147 126.765 175.943 126.421 176.035L120.824 177.534C120.48 177.626 120.277 177.979 120.369 178.323C120.461 178.666 120.814 178.87 121.157 178.778L126.132 177.445L127.465 182.421C127.557 182.764 127.91 182.968 128.254 182.876C128.597 182.784 128.801 182.431 128.709 182.088L127.21 176.49ZM42.6728 323.26L127.145 176.979L126.03 176.335L41.5577 322.617L42.6728 323.26Z" fill="#BBBBBB"/>
<path d="M126.629 141.759C126.984 141.736 127.253 141.429 127.23 141.075L126.855 135.292C126.832 134.937 126.525 134.668 126.171 134.691C125.816 134.714 125.547 135.021 125.57 135.376L125.904 140.516L120.764 140.849C120.409 140.872 120.14 141.179 120.163 141.533C120.186 141.888 120.492 142.157 120.847 142.134L126.629 141.759ZM41.6904 67.4291L126.163 141.6L127.013 140.632L42.54 66.4615L41.6904 67.4291Z" fill="#BBBBBB"/>
<path d="M126.822 141.717C127.153 141.587 127.317 141.214 127.188 140.883L125.083 135.484C124.954 135.153 124.581 134.989 124.249 135.118C123.918 135.247 123.754 135.62 123.883 135.952L125.754 140.751L120.955 142.622C120.624 142.751 120.46 143.124 120.589 143.455C120.718 143.787 121.091 143.95 121.423 143.821L126.822 141.717ZM41.8564 104.621L126.329 141.706L126.847 140.527L42.3741 103.442L41.8564 104.621Z" fill="#BBBBBB"/>
<path d="M127.043 141.571C127.294 141.32 127.294 140.912 127.043 140.661L122.946 136.564C122.694 136.312 122.287 136.312 122.035 136.564C121.784 136.815 121.784 137.223 122.035 137.474L125.677 141.116L122.035 144.758C121.784 145.01 121.784 145.417 122.035 145.669C122.287 145.92 122.694 145.92 122.946 145.669L127.043 141.571ZM42.1152 141.76L126.588 141.76L126.588 140.472L42.1152 140.472L42.1152 141.76Z" fill="#BBBBBB"/>
<path d="M127.184 141.36C127.318 141.03 127.16 140.655 126.831 140.52L121.465 138.333C121.136 138.198 120.76 138.356 120.626 138.686C120.492 139.015 120.65 139.391 120.979 139.525L125.748 141.47L123.804 146.239C123.67 146.568 123.828 146.944 124.157 147.078C124.486 147.213 124.862 147.055 124.996 146.725L127.184 141.36ZM42.3649 177.25L126.837 141.71L126.338 140.523L41.8655 176.063L42.3649 177.25Z" fill="#BBBBBB"/>
<path d="M127.23 141.167C127.258 140.813 126.993 140.503 126.638 140.475L120.862 140.018C120.507 139.99 120.197 140.255 120.169 140.61C120.141 140.964 120.406 141.274 120.76 141.302L125.895 141.708L125.49 146.842C125.462 147.197 125.727 147.507 126.081 147.535C126.436 147.563 126.746 147.298 126.774 146.944L127.23 141.167ZM42.5333 213.717L127.006 141.606L126.17 140.627L41.6972 212.737L42.5333 213.717Z" fill="#BBBBBB"/>
<path d="M127.227 141.037C127.182 140.684 126.861 140.434 126.508 140.478L120.758 141.199C120.405 141.243 120.155 141.565 120.199 141.917C120.243 142.27 120.565 142.52 120.918 142.476L126.029 141.836L126.67 146.946C126.714 147.299 127.036 147.549 127.388 147.505C127.741 147.461 127.991 147.139 127.947 146.786L127.227 141.037ZM42.6236 250.193L127.096 141.512L126.079 140.722L41.6069 249.403L42.6236 250.193Z" fill="#BBBBBB"/>
<path d="M127.21 140.952C127.119 140.608 126.767 140.403 126.423 140.494L120.821 141.976C120.477 142.067 120.273 142.42 120.363 142.763C120.454 143.107 120.807 143.312 121.151 143.221L126.13 141.904L127.447 146.883C127.538 147.227 127.891 147.432 128.235 147.341C128.578 147.25 128.783 146.898 128.692 146.554L127.21 140.952ZM42.6718 286.692L127.144 141.44L126.031 140.793L41.5587 286.044L42.6718 286.692Z" fill="#BBBBBB"/>
<path d="M127.192 140.895C127.07 140.562 126.701 140.39 126.367 140.512L120.924 142.501C120.59 142.623 120.419 142.993 120.541 143.327C120.663 143.661 121.032 143.833 121.366 143.711L126.204 141.942L127.973 146.78C128.095 147.114 128.464 147.286 128.798 147.164C129.132 147.042 129.304 146.672 129.182 146.338L127.192 140.895ZM42.6991 323.21L127.172 141.388L126.004 140.845L41.5313 322.667L42.6991 323.21Z" fill="#BBBBBB"/>
<circle cx="42.052" cy="30.3108" r="11.6536" fill="#BDE3FF"/>
<circle cx="42.052" cy="66.8811" r="11.6536" fill="#BDE3FF"/>
<circle cx="42.052" cy="103.451" r="11.6536" fill="#BDE3FF"/>
<circle cx="42.052" cy="140.022" r="11.6536" fill="#BDE3FF"/>
<circle cx="42.052" cy="176.593" r="11.6536" fill="#BDE3FF"/>
<circle cx="42.052" cy="213.163" r="11.6536" fill="#BDE3FF"/>
<circle cx="126.525" cy="141.052" r="11.6536" fill="#BDE3FF"/>
<circle cx="126.525" cy="177.622" r="11.6536" fill="#BDE3FF"/>
<circle cx="126.525" cy="214.193" r="11.6536" fill="#BDE3FF"/>
<circle cx="42.052" cy="249.733" r="11.6536" fill="#BDE3FF"/>
<circle cx="42.052" cy="322.874" r="11.6536" fill="#BDE3FF"/>
<circle cx="42.052" cy="286.304" r="11.6536" fill="#BDE3FF"/>
<path d="M126.502 141.754C126.854 141.802 127.178 141.555 127.226 141.202L127.999 135.459C128.046 135.107 127.799 134.783 127.446 134.735C127.094 134.688 126.77 134.935 126.722 135.288L126.036 140.392L120.931 139.706C120.578 139.658 120.254 139.905 120.207 140.258C120.159 140.61 120.407 140.934 120.759 140.982L126.502 141.754ZM41.6033 30.7655L126.076 141.507L127.1 140.726L42.6272 29.9845L41.6033 30.7655Z" fill="#BBBBBB"/>
<path d="M126.364 214.861C126.698 214.985 127.068 214.814 127.191 214.481L129.204 209.047C129.328 208.714 129.158 208.343 128.824 208.22C128.491 208.096 128.12 208.266 127.997 208.6L126.208 213.43L121.378 211.641C121.044 211.517 120.674 211.687 120.55 212.021C120.427 212.354 120.597 212.725 120.93 212.848L126.364 214.861ZM41.5302 30.6438L126.003 214.526L127.173 213.988L42.7003 30.1062L41.5302 30.6438Z" fill="#BBBBBB"/>
<path d="M126.419 214.879C126.762 214.972 127.116 214.769 127.209 214.426L128.725 208.833C128.818 208.49 128.616 208.136 128.272 208.043C127.929 207.95 127.576 208.153 127.483 208.496L126.135 213.467L121.163 212.119C120.82 212.026 120.467 212.229 120.374 212.572C120.281 212.916 120.483 213.269 120.827 213.362L126.419 214.879ZM41.5567 67.2656L126.029 214.577L127.146 213.937L42.6738 66.625L41.5567 67.2656Z" fill="#BBBBBB"/>
<path d="M126.502 214.896C126.854 214.943 127.178 214.696 127.226 214.343L127.999 208.601C128.046 208.248 127.799 207.924 127.446 207.877C127.094 207.829 126.77 208.076 126.722 208.429L126.036 213.534L120.931 212.847C120.578 212.799 120.254 213.046 120.207 213.399C120.159 213.751 120.407 214.075 120.759 214.123L126.502 214.896ZM41.6033 103.907L126.076 214.648L127.1 213.867L42.6272 103.126L41.6033 103.907Z" fill="#BBBBBB"/>
<path d="M126.634 214.899C126.989 214.874 127.255 214.566 127.23 214.211L126.814 208.431C126.789 208.077 126.481 207.81 126.126 207.835C125.771 207.861 125.505 208.169 125.53 208.524L125.899 213.661L120.762 214.03C120.407 214.056 120.14 214.364 120.166 214.719C120.191 215.073 120.5 215.34 120.854 215.315L126.634 214.899ZM41.6938 141.603L126.166 214.744L127.009 213.77L42.5367 140.629L41.6938 141.603Z" fill="#BBBBBB"/>
<path d="M126.819 214.858C127.15 214.731 127.316 214.358 127.189 214.027L125.112 208.617C124.984 208.285 124.612 208.119 124.28 208.247C123.948 208.374 123.782 208.747 123.91 209.079L125.756 213.887L120.947 215.733C120.615 215.861 120.45 216.233 120.577 216.565C120.705 216.897 121.077 217.063 121.409 216.935L126.819 214.858ZM41.8534 177.245L126.326 214.846L126.85 213.669L42.3771 176.069L41.8534 177.245Z" fill="#BBBBBB"/>
<path d="M127.037 214.718C127.292 214.47 127.297 214.062 127.049 213.808L123.001 209.66C122.753 209.406 122.345 209.401 122.091 209.649C121.836 209.898 121.831 210.305 122.08 210.56L125.677 214.246L121.991 217.844C121.737 218.092 121.732 218.5 121.98 218.754C122.228 219.009 122.636 219.013 122.89 218.765L127.037 214.718ZM42.1074 213.871L126.58 214.901L126.596 213.613L42.1231 212.583L42.1074 213.871Z" fill="#BBBBBB"/>
<path d="M127.184 214.501C127.318 214.171 127.16 213.796 126.831 213.661L121.465 211.474C121.136 211.339 120.76 211.497 120.626 211.827C120.492 212.156 120.65 212.532 120.979 212.666L125.748 214.611L123.804 219.38C123.67 219.71 123.828 220.085 124.157 220.22C124.486 220.354 124.862 220.196 124.996 219.866L127.184 214.501ZM42.3649 250.391L126.837 214.851L126.338 213.664L41.8655 249.204L42.3649 250.391Z" fill="#BBBBBB"/>
<path d="M127.23 214.308C127.258 213.954 126.993 213.644 126.638 213.616L120.862 213.16C120.507 213.132 120.197 213.396 120.169 213.751C120.141 214.105 120.406 214.415 120.76 214.443L125.895 214.849L125.49 219.983C125.462 220.338 125.727 220.648 126.081 220.676C126.436 220.704 126.746 220.439 126.774 220.085L127.23 214.308ZM42.5333 286.858L127.006 214.747L126.17 213.768L41.6972 285.878L42.5333 286.858Z" fill="#BBBBBB"/>
<path d="M127.227 214.177C127.182 213.824 126.861 213.574 126.508 213.619L120.758 214.339C120.405 214.383 120.155 214.705 120.199 215.058C120.243 215.411 120.565 215.661 120.918 215.617L126.029 214.976L126.67 220.087C126.714 220.44 127.036 220.69 127.388 220.646C127.741 220.602 127.991 220.28 127.947 219.927L127.227 214.177ZM42.6236 323.334L127.096 214.653L126.079 213.862L41.6069 322.543L42.6236 323.334Z" fill="#BBBBBB"/>
<path d="M126.421 177.279C126.765 177.371 127.118 177.167 127.21 176.823L128.709 171.226C128.801 170.882 128.597 170.529 128.254 170.437C127.91 170.345 127.557 170.549 127.465 170.893L126.132 175.868L121.157 174.535C120.814 174.443 120.461 174.647 120.369 174.991C120.277 175.334 120.48 175.687 120.824 175.779L126.421 177.279ZM41.5577 30.697L126.03 176.979L127.145 176.335L42.6728 30.053L41.5577 30.697Z" fill="#BBBBBB"/>
<path d="M126.505 177.295C126.857 177.341 127.18 177.092 127.226 176.74L127.973 170.993C128.019 170.641 127.77 170.318 127.418 170.272C127.065 170.226 126.742 170.475 126.696 170.827L126.032 175.935L120.924 175.271C120.572 175.225 120.249 175.474 120.203 175.827C120.157 176.179 120.406 176.502 120.758 176.548L126.505 177.295ZM41.6051 67.3381L126.078 177.049L127.098 176.264L42.6254 66.5525L41.6051 67.3381Z" fill="#BBBBBB"/>
<path d="M126.636 177.299C126.991 177.272 127.256 176.963 127.23 176.609L126.794 170.83C126.767 170.476 126.458 170.21 126.104 170.237C125.749 170.264 125.483 170.573 125.51 170.927L125.897 176.063L120.761 176.451C120.407 176.477 120.141 176.787 120.168 177.141C120.194 177.496 120.503 177.761 120.858 177.735L126.636 177.299ZM41.6955 104.519L126.168 177.145L127.007 176.169L42.535 103.543L41.6955 104.519Z" fill="#BBBBBB"/>
<path d="M126.831 177.253C127.16 177.118 127.318 176.743 127.184 176.413L124.996 171.048C124.862 170.718 124.486 170.56 124.157 170.695C123.828 170.829 123.67 171.205 123.804 171.534L125.748 176.303L120.979 178.248C120.65 178.382 120.492 178.758 120.626 179.087C120.76 179.417 121.136 179.575 121.465 179.44L126.831 177.253ZM41.8655 141.71L126.338 177.25L126.837 176.063L42.3649 140.523L41.8655 141.71Z" fill="#BBBBBB"/>
<path d="M127.049 177.107C127.297 176.852 127.292 176.444 127.037 176.196L122.89 172.149C122.636 171.901 122.228 171.906 121.98 172.16C121.732 172.415 121.737 172.822 121.991 173.071L125.677 176.668L122.08 180.354C121.831 180.609 121.836 181.016 122.091 181.265C122.345 181.513 122.753 181.508 123.001 181.254L127.049 177.107ZM42.1231 178.331L126.596 177.301L126.58 176.013L42.1074 177.043L42.1231 178.331Z" fill="#BBBBBB"/>
<path d="M127.186 176.894C127.317 176.563 127.155 176.189 126.825 176.058L121.437 173.926C121.106 173.795 120.732 173.957 120.601 174.287C120.47 174.618 120.632 174.992 120.963 175.123L125.752 177.018L123.857 181.808C123.726 182.138 123.888 182.512 124.219 182.643C124.549 182.774 124.923 182.612 125.054 182.282L127.186 176.894ZM42.371 213.818L126.844 177.247L126.332 176.066L41.8594 212.636L42.371 213.818Z" fill="#BBBBBB"/>
<path d="M127.23 176.703C127.255 176.349 126.989 176.04 126.634 176.015L120.854 175.599C120.5 175.574 120.191 175.841 120.166 176.195C120.14 176.55 120.407 176.858 120.762 176.884L125.899 177.253L125.53 182.391C125.505 182.745 125.771 183.053 126.126 183.079C126.481 183.104 126.789 182.838 126.814 182.483L127.23 176.703ZM42.5367 250.285L127.009 177.144L126.166 176.17L41.6938 249.311L42.5367 250.285Z" fill="#BBBBBB"/>
<path d="M127.226 176.574C127.18 176.221 126.857 175.973 126.505 176.018L120.758 176.765C120.406 176.811 120.157 177.134 120.203 177.487C120.249 177.839 120.572 178.088 120.924 178.042L126.032 177.378L126.696 182.486C126.742 182.839 127.065 183.087 127.418 183.042C127.77 182.996 128.019 182.673 127.973 182.32L127.226 176.574ZM42.6254 286.761L127.098 177.05L126.078 176.264L41.6051 285.975L42.6254 286.761Z" fill="#BBBBBB"/>
<path d="M127.21 176.49C127.118 176.147 126.765 175.943 126.421 176.035L120.824 177.534C120.48 177.626 120.277 177.979 120.369 178.323C120.461 178.666 120.814 178.87 121.157 178.778L126.132 177.445L127.465 182.421C127.557 182.764 127.91 182.968 128.254 182.876C128.597 182.784 128.801 182.431 128.709 182.088L127.21 176.49ZM42.6728 323.26L127.145 176.979L126.03 176.335L41.5577 322.617L42.6728 323.26Z" fill="#BBBBBB"/>
<path d="M126.629 141.759C126.984 141.736 127.253 141.429 127.23 141.075L126.855 135.292C126.832 134.937 126.525 134.668 126.171 134.691C125.816 134.714 125.547 135.021 125.57 135.376L125.904 140.516L120.764 140.849C120.409 140.872 120.14 141.179 120.163 141.533C120.186 141.888 120.492 142.157 120.847 142.134L126.629 141.759ZM41.6904 67.4291L126.163 141.6L127.013 140.632L42.54 66.4615L41.6904 67.4291Z" fill="#BBBBBB"/>
<path d="M126.822 141.717C127.153 141.587 127.317 141.214 127.188 140.883L125.083 135.484C124.954 135.153 124.581 134.989 124.249 135.118C123.918 135.247 123.754 135.62 123.883 135.952L125.754 140.751L120.955 142.622C120.624 142.751 120.46 143.124 120.589 143.455C120.718 143.787 121.091 143.95 121.423 143.821L126.822 141.717ZM41.8564 104.621L126.329 141.706L126.847 140.527L42.3741 103.442L41.8564 104.621Z" fill="#BBBBBB"/>
<path d="M127.043 141.571C127.294 141.32 127.294 140.912 127.043 140.661L122.946 136.564C122.694 136.312 122.287 136.312 122.035 136.564C121.784 136.815 121.784 137.223 122.035 137.474L125.677 141.116L122.035 144.758C121.784 145.01 121.784 145.417 122.035 145.669C122.287 145.92 122.694 145.92 122.946 145.669L127.043 141.571ZM42.1152 141.76L126.588 141.76L126.588 140.472L42.1152 140.472L42.1152 141.76Z" fill="#BBBBBB"/>
<path d="M127.184 141.36C127.318 141.03 127.16 140.655 126.831 140.52L121.465 138.333C121.136 138.198 120.76 138.356 120.626 138.686C120.492 139.015 120.65 139.391 120.979 139.525L125.748 141.47L123.804 146.239C123.67 146.568 123.828 146.944 124.157 147.078C124.486 147.213 124.862 147.055 124.996 146.725L127.184 141.36ZM42.3649 177.25L126.837 141.71L126.338 140.523L41.8655 176.063L42.3649 177.25Z" fill="#BBBBBB"/>
<path d="M127.23 141.167C127.258 140.813 126.993 140.503 126.638 140.475L120.862 140.018C120.507 139.99 120.197 140.255 120.169 140.61C120.141 140.964 120.406 141.274 120.76 141.302L125.895 141.708L125.49 146.842C125.462 147.197 125.727 147.507 126.081 147.535C126.436 147.563 126.746 147.298 126.774 146.944L127.23 141.167ZM42.5333 213.717L127.006 141.606L126.17 140.627L41.6972 212.737L42.5333 213.717Z" fill="#BBBBBB"/>
<path d="M127.227 141.037C127.182 140.684 126.861 140.434 126.508 140.478L120.758 141.199C120.405 141.243 120.155 141.565 120.199 141.917C120.243 142.27 120.565 142.52 120.918 142.476L126.029 141.836L126.67 146.946C126.714 147.299 127.036 147.549 127.388 147.505C127.741 147.461 127.991 147.139 127.947 146.786L127.227 141.037ZM42.6236 250.193L127.096 141.512L126.079 140.722L41.6069 249.403L42.6236 250.193Z" fill="#BBBBBB"/>
<path d="M127.21 140.952C127.119 140.608 126.767 140.403 126.423 140.494L120.821 141.976C120.477 142.067 120.273 142.42 120.363 142.763C120.454 143.107 120.807 143.312 121.151 143.221L126.13 141.904L127.447 146.883C127.538 147.227 127.891 147.432 128.235 147.341C128.578 147.25 128.783 146.898 128.692 146.554L127.21 140.952ZM42.6718 286.692L127.144 141.44L126.031 140.793L41.5587 286.044L42.6718 286.692Z" fill="#BBBBBB"/>
<path d="M127.192 140.895C127.07 140.562 126.701 140.39 126.367 140.512L120.924 142.501C120.59 142.623 120.419 142.993 120.541 143.327C120.663 143.661 121.032 143.833 121.366 143.711L126.204 141.942L127.973 146.78C128.095 147.114 128.464 147.286 128.798 147.164C129.132 147.042 129.304 146.672 129.182 146.338L127.192 140.895ZM42.6991 323.21L127.172 141.388L126.004 140.845L41.5313 322.667L42.6991 323.21Z" fill="#BBBBBB"/>
<circle cx="42.052" cy="30.3108" r="11.6536" fill="#4C8DF6"/>
<circle cx="42.052" cy="66.8811" r="11.6536" fill="#4C8DF6"/>
<circle cx="42.052" cy="103.451" r="11.6536" fill="#4C8DF6"/>
<circle cx="42.052" cy="140.022" r="11.6536" fill="#4C8DF6"/>
<circle cx="42.052" cy="176.593" r="11.6536" fill="#4C8DF6"/>
<circle cx="42.052" cy="213.163" r="11.6536" fill="#4C8DF6"/>
<circle cx="126.525" cy="141.052" r="11.6536" fill="#4C8DF6"/>
<circle cx="126.525" cy="177.622" r="11.6536" fill="#4C8DF6"/>
<circle cx="126.525" cy="214.193" r="11.6536" fill="#4C8DF6"/>
<circle cx="42.052" cy="249.733" r="11.6536" fill="#4C8DF6"/>
<circle cx="42.052" cy="322.874" r="11.6536" fill="#4C8DF6"/>
<circle cx="42.052" cy="286.304" r="11.6536" fill="#4C8DF6"/>
</g>
<defs>
<filter id="filter0_d_2188_1633" x="0" y="0" width="158.186" height="355.662" filterUnits="userSpaceOnUse" color-interpolation-filters="sRGB">
<feFlood flood-opacity="0" result="BackgroundImageFix"/>
<feColorMatrix in="SourceAlpha" type="matrix" values="0 0 0 0 0 0 0 0 0 0 0 0 0 0 0 0 0 0 127 0" result="hardAlpha"/>
<feOffset dy="4"/>
<feGaussianBlur stdDeviation="2"/>
<feComposite in2="hardAlpha" operator="out"/>
<feColorMatrix type="matrix" values="0 0 0 0 0 0 0 0 0 0 0 0 0 0 0 0 0 0 0.25 0"/>
<feBlend mode="normal" in2="BackgroundImageFix" result="effect1_dropShadow_2188_1633"/>
<feBlend mode="normal" in="SourceGraphic" in2="effect1_dropShadow_2188_1633" result="shape"/>
</filter>
</defs>
</svg>
