<svg width="347" height="214" viewBox="0 0 347 214" fill="none" xmlns="http://www.w3.org/2000/svg">
<g filter="url(#filter0_d_933_763)">
<rect x="5" width="112.2" height="204" fill="#343434"/>
<path d="M117.199 177.48C107.287 177.48 97.4719 175.528 88.3143 171.734C79.1566 167.941 70.8358 162.381 63.8268 155.372C56.8178 148.363 51.258 140.043 47.4648 130.885C43.6716 121.727 41.7192 111.912 41.7192 102C41.7192 92.0878 43.6716 82.2727 47.4648 73.1151C51.258 63.9574 56.8178 55.6365 63.8268 48.6276C70.8358 41.6186 79.1566 36.0588 88.3143 32.2656C97.4719 28.4723 107.287 26.52 117.199 26.52" stroke="white" stroke-width="2.04"/>
<path d="M117.2 135.355C112.82 135.355 108.483 134.492 104.436 132.816C100.39 131.14 96.7126 128.683 93.6154 125.586C90.5182 122.489 88.0613 118.812 86.3851 114.765C84.7089 110.718 83.8462 106.381 83.8462 102.001C83.8462 97.6208 84.7089 93.2836 86.3851 89.2369C88.0613 85.1902 90.5182 81.5133 93.6154 78.4161C96.7126 75.3189 100.39 72.8621 104.436 71.1859C108.483 69.5097 112.82 68.647 117.2 68.647" stroke="white" stroke-width="2.04"/>
<path d="M7.53971 197.459V196.981H10.8779V197.459H9.47829V201.432H8.93931V197.459H7.53971ZM11.3272 196.981H11.9444L13.1789 199.058H13.231L14.4655 196.981H15.0827L13.4744 199.597V201.432H12.9355V199.597L11.3272 196.981ZM15.7798 201.432V196.981H17.2837C17.6329 196.981 17.9183 197.044 18.14 197.17C18.3631 197.294 18.5283 197.463 18.6355 197.676C18.7427 197.889 18.7963 198.127 18.7963 198.389C18.7963 198.651 18.7427 198.89 18.6355 199.104C18.5297 199.318 18.366 199.489 18.1443 199.617C17.9226 199.743 17.6387 199.806 17.2924 199.806H16.2144V199.328H17.275C17.514 199.328 17.706 199.287 17.8509 199.204C17.9958 199.121 18.1008 199.01 18.166 198.869C18.2327 198.727 18.266 198.567 18.266 198.389C18.266 198.211 18.2327 198.051 18.166 197.911C18.1008 197.77 17.9951 197.66 17.8487 197.581C17.7024 197.499 17.5083 197.459 17.2663 197.459H16.3187V201.432H15.7798ZM19.6645 201.432V196.981H22.3507V197.459H20.2035V198.963H22.2116V199.441H20.2035V200.954H22.3855V201.432H19.6645ZM25.1651 198.967V199.445H23.2179V198.967H25.1651ZM27.5107 201.492C27.1832 201.492 26.9043 201.403 26.6739 201.225C26.4436 201.046 26.2675 200.785 26.1458 200.445C26.0241 200.103 25.9633 199.69 25.9633 199.206C25.9633 198.725 26.0241 198.314 26.1458 197.974C26.269 197.632 26.4457 197.371 26.6761 197.192C26.9079 197.01 27.1861 196.92 27.5107 196.92C27.8352 196.92 28.1127 197.01 28.343 197.192C28.5749 197.371 28.7516 197.632 28.8733 197.974C28.9965 198.314 29.0581 198.725 29.0581 199.206C29.0581 199.69 28.9972 200.103 28.8755 200.445C28.7538 200.785 28.5778 201.046 28.3474 201.225C28.117 201.403 27.8381 201.492 27.5107 201.492ZM27.5107 201.014C27.8352 201.014 28.0873 200.858 28.267 200.545C28.4466 200.232 28.5365 199.786 28.5365 199.206C28.5365 198.821 28.4952 198.493 28.4126 198.222C28.3314 197.951 28.2141 197.744 28.0605 197.602C27.9084 197.46 27.7251 197.389 27.5107 197.389C27.189 197.389 26.9376 197.548 26.7565 197.865C26.5754 198.181 26.4849 198.628 26.4849 199.206C26.4849 199.592 26.5254 199.919 26.6066 200.189C26.6877 200.458 26.8043 200.663 26.9565 200.804C27.1101 200.944 27.2948 201.014 27.5107 201.014Z" fill="#7E7E7E"/>
<rect x="341.6" y="204" width="112.2" height="204" transform="rotate(-180 341.6 204)" fill="#343434"/>
<path d="M229.4 26.52C239.313 26.52 249.128 28.4723 258.285 32.2656C267.443 36.0588 275.764 41.6186 282.773 48.6276C289.782 55.6365 295.342 63.9574 299.135 73.1151C302.928 82.2727 304.88 92.0878 304.88 102C304.88 111.912 302.928 121.727 299.135 130.885C295.342 140.043 289.782 148.363 282.773 155.372C275.764 162.381 267.443 167.941 258.285 171.734C249.128 175.528 239.313 177.48 229.4 177.48" stroke="white" stroke-width="2.04"/>
<path d="M229.399 68.645C233.78 68.645 238.117 69.5078 242.163 71.184C246.21 72.8602 249.887 75.317 252.984 78.4142C256.081 81.5114 258.538 85.1883 260.214 89.235C261.891 93.2817 262.753 97.6189 262.753 101.999C262.753 106.379 261.891 110.716 260.214 114.763C258.538 118.81 256.081 122.487 252.984 125.584C249.887 128.681 246.21 131.138 242.163 132.814C238.117 134.49 233.779 135.353 229.399 135.353" stroke="white" stroke-width="2.04"/>
<path d="M339.06 6.54114V7.01927H335.722V6.54114H337.121V2.56836H337.66V6.54114H339.06ZM335.272 7.01927L334.655 7.01927L333.421 4.9416H333.369L332.134 7.01927H331.517L333.125 4.40262V2.56836H333.664V4.40262L335.272 7.01927ZM330.82 2.56836V7.01927L329.316 7.01927C328.967 7.01927 328.681 6.95624 328.46 6.83019C328.237 6.70559 328.071 6.5368 327.964 6.32381C327.857 6.11083 327.803 5.87322 327.803 5.61097C327.803 5.34873 327.857 5.11039 327.964 4.89596C328.07 4.68153 328.234 4.51056 328.455 4.38306C328.677 4.25701 328.961 4.19398 329.307 4.19398H330.385V4.67211L329.325 4.67211C329.086 4.67211 328.894 4.7134 328.749 4.79599C328.604 4.87857 328.499 4.99013 328.434 5.13067C328.367 5.27266 328.334 5.43276 328.334 5.61097C328.334 5.78918 328.367 5.94856 328.434 6.0891C328.499 6.22964 328.605 6.33975 328.751 6.41944C328.897 6.50058 329.091 6.54114 329.333 6.54114H330.281V2.56836H330.82ZM326.935 2.56836V7.01927H324.249V6.54114H326.396V5.03722H324.388V4.5591H326.396V3.04648H324.214V2.56836H326.935ZM321.434 5.03288V4.55475H323.382V5.03288H321.434ZM319.089 2.50751C319.416 2.50751 319.695 2.59661 319.926 2.77482C320.156 2.95448 320.332 3.21455 320.454 3.55504C320.575 3.89697 320.636 4.30989 320.636 4.79381C320.636 5.27484 320.575 5.68559 320.454 6.02607C320.331 6.368 320.154 6.6288 319.923 6.80846C319.692 6.98957 319.413 7.08012 319.089 7.08012C318.764 7.08012 318.487 6.98957 318.257 6.80846C318.025 6.6288 317.848 6.368 317.726 6.02607C317.603 5.68559 317.542 5.27484 317.542 4.79381C317.542 4.30989 317.602 3.89697 317.724 3.55504C317.846 3.21455 318.022 2.95448 318.252 2.77482C318.483 2.59661 318.762 2.50751 319.089 2.50751ZM319.089 2.98563C318.764 2.98563 318.512 3.14211 318.333 3.45506C318.153 3.76802 318.063 4.21427 318.063 4.79381C318.063 5.17921 318.104 5.50738 318.187 5.77832C318.268 6.04925 318.386 6.25572 318.539 6.39771C318.691 6.53969 318.875 6.61069 319.089 6.61069C319.411 6.61069 319.662 6.45204 319.843 6.13474C320.024 5.81889 320.115 5.37191 320.115 4.79381C320.115 4.40842 320.074 4.08097 319.993 3.81148C319.912 3.542 319.795 3.33698 319.643 3.19644C319.49 3.0559 319.305 2.98563 319.089 2.98563Z" fill="#7E7E7E"/>
<rect x="117.199" width="112.2" height="204" fill="#343434"/>
<rect x="117.199" y="25.5" width="112.2" height="2.04" fill="white"/>
<rect x="117.199" y="67.627" width="112.2" height="2.04" fill="white"/>
<rect x="117.199" y="134.334" width="112.2" height="2.04" fill="white"/>
<rect x="117.199" y="176.461" width="112.2" height="2.04" fill="white"/>
<path d="M162.272 198.582V198.104H165.61V198.582H164.211V202.555H163.672V198.582H162.272ZM166.06 198.104H166.677L167.911 200.181H167.963L169.198 198.104H169.815L168.207 200.72V202.555H167.668V200.72L166.06 198.104ZM170.512 202.555V198.104H172.016C172.365 198.104 172.651 198.167 172.872 198.293C173.096 198.417 173.261 198.586 173.368 198.799C173.475 199.012 173.529 199.25 173.529 199.512C173.529 199.774 173.475 200.013 173.368 200.227C173.262 200.442 173.098 200.612 172.877 200.74C172.655 200.866 172.371 200.929 172.025 200.929H170.947V200.451H172.007C172.246 200.451 172.438 200.41 172.583 200.327C172.728 200.244 172.833 200.133 172.898 199.992C172.965 199.85 172.998 199.69 172.998 199.512C172.998 199.334 172.965 199.174 172.898 199.034C172.833 198.893 172.727 198.783 172.581 198.704C172.435 198.622 172.241 198.582 171.999 198.582H171.051V202.555H170.512ZM174.397 202.555V198.104H177.083V198.582H174.936V200.086H176.944V200.564H174.936V202.077H177.118V202.555H174.397ZM179.898 200.09V200.568H177.95V200.09H179.898ZM181.052 202.555H180.487L182.121 198.104H182.678L184.312 202.555H183.747L182.417 198.808H182.382L181.052 202.555ZM181.261 200.816H183.538V201.294H181.261V200.816Z" fill="#7E7E7E"/>
</g>
<defs>
<filter id="filter0_d_933_763" x="0.0243902" y="0" width="346.551" height="213.951" filterUnits="userSpaceOnUse" color-interpolation-filters="sRGB">
<feFlood flood-opacity="0" result="BackgroundImageFix"/>
<feColorMatrix in="SourceAlpha" type="matrix" values="0 0 0 0 0 0 0 0 0 0 0 0 0 0 0 0 0 0 127 0" result="hardAlpha"/>
<feOffset dy="4.97561"/>
<feGaussianBlur stdDeviation="2.4878"/>
<feComposite in2="hardAlpha" operator="out"/>
<feColorMatrix type="matrix" values="0 0 0 0 0 0 0 0 0 0 0 0 0 0 0 0 0 0 0.25 0"/>
<feBlend mode="normal" in2="BackgroundImageFix" result="effect1_dropShadow_933_763"/>
<feBlend mode="normal" in="SourceGraphic" in2="effect1_dropShadow_933_763" result="shape"/>
</filter>
</defs>
</svg>
