<svg width="353" height="94" viewBox="0 0 353 94" fill="none" xmlns="http://www.w3.org/2000/svg">
<g filter="url(#filter0_d_933_705)">
<path fill-rule="evenodd" clip-rule="evenodd" d="M158.314 40.4033L174.996 15.7198C175.883 14.5267 177.781 15.1537 177.781 16.6404V50.7974C177.781 51.9905 176.482 52.7358 175.453 52.133L158.771 42.6596C157.977 42.1929 157.764 41.142 158.314 40.4033ZM202.968 42.6596L186.29 52.133C185.258 52.7358 183.962 51.9905 183.962 50.7974V16.6404C183.962 15.1537 185.857 14.5267 186.747 15.7198L203.429 40.4033C203.976 41.142 203.763 42.1929 202.968 42.6596ZM183.962 1.62505C182.473 -0.541682 179.27 -0.541682 177.781 1.62505L150.704 40.2735C149.369 42.0662 149.888 44.6192 151.817 45.7505L177.781 60.6617L179.088 61.365C180.201 61.9646 181.539 61.9646 182.652 61.365L183.962 60.6617L209.926 45.7505C211.852 44.6192 212.371 42.0662 211.039 40.2735L183.962 1.62505Z" fill="url(#paint0_linear_933_705)"/>
<path fill-rule="evenodd" clip-rule="evenodd" d="M12.5992 42.6103L29.2808 17.9268C30.1679 16.7337 32.0657 17.3607 32.0657 18.8474V53.0044C32.0657 54.1975 30.7676 54.9428 29.7383 54.3401L13.0567 44.8666C12.2623 44.3999 12.049 43.349 12.5992 42.6103ZM57.2536 44.8666L40.575 54.3401C39.5427 54.9428 38.2476 54.1975 38.2476 53.0044V18.8474C38.2476 17.3607 40.1423 16.7337 41.0325 17.9268L57.7141 42.6103C58.2612 43.349 58.0479 44.3999 57.2536 44.8666ZM38.2476 3.83208C36.7577 1.66535 33.5556 1.66535 32.0657 3.83208L4.98938 42.4805C3.65411 44.2732 4.17338 46.8262 6.10211 47.9575L32.0657 62.8687L33.3732 63.572C34.4859 64.1717 35.8243 64.1717 36.937 63.572L38.2476 62.8687L64.2112 47.9575C66.1368 46.8262 66.6561 44.2732 65.3239 42.4805L38.2476 3.83208Z" fill="black"/>
<path d="M296.779 3.9375V17.773H348.662V3.9375H296.779ZM308.021 13.4485H302.832V8.26021H308.021V13.4485Z" fill="black"/>
<path d="M296.779 35.068H348.662V21.2324H296.779V35.068ZM302.832 25.5551H308.021V30.7434H302.832V25.5551Z" fill="black"/>
<path d="M296.779 52.3609H348.662V38.5254H296.779V52.3609ZM302.832 42.8481H308.021V48.0364H302.832V42.8481Z" fill="black"/>
<path d="M83.7935 16.2223H84.7097V26.2236H83.7935V16.2223ZM79.4442 16.9951C80.9234 16.9951 81.9831 18.3529 81.9831 20.4723C81.9831 22.6029 80.9234 23.9607 79.4442 23.9607C77.976 23.9607 76.9162 22.6029 76.9162 20.4723C76.9162 18.3529 77.976 16.9951 79.4442 16.9951ZM79.4442 17.823C78.4727 17.823 77.7883 18.8607 77.7883 20.4723C77.7883 22.0951 78.4727 23.1548 79.4442 23.1548C80.4266 23.1548 81.1 22.0951 81.1 20.4723C81.1 18.8607 80.4266 17.823 79.4442 17.823ZM86.6959 21.3775H95.7478V22.1282H86.6959V21.3775ZM87.8439 16.4762H94.5777V18.8386H88.7712V20.1633H87.866V18.1652H93.6836V17.1938H87.8439V16.4762ZM87.866 19.81H94.7985V20.5275H87.866V19.81ZM87.9102 23.0334H94.5887V26.0801H87.9102V23.0334ZM93.6946 23.762H88.8043V25.3405H93.6946V23.762ZM104.724 18.0658H107.606V18.8055H104.724V18.0658ZM104.724 20.2184H107.628V20.9581H104.724V20.2184ZM107.252 16.2444H108.169V23.6295H107.252V16.2444ZM101.755 25.2412H108.411V25.9918H101.755V25.2412ZM101.755 22.912H102.671V25.6275H101.755V22.912ZM100.452 16.8957H101.358V18.662H104.062V16.8957H104.956V21.9295H100.452V16.8957ZM101.358 19.3795V21.1788H104.062V19.3795H101.358ZM114.89 18.0658H117.562V18.8165H114.89V18.0658ZM114.802 20.1412H117.496V20.8918H114.802V20.1412ZM117.407 16.2334H118.324V22.2165H117.407V16.2334ZM114.283 16.984H115.266C115.266 19.5561 113.488 21.3555 110.618 22.2165L110.243 21.4769C112.793 20.7373 114.283 19.2691 114.283 17.3814V16.984ZM110.762 16.984H114.913V17.7347H110.762V16.984ZM115.078 22.3269C117.098 22.3269 118.379 23.0444 118.379 24.2477C118.379 25.4509 117.098 26.1684 115.078 26.1684C113.058 26.1684 111.777 25.4509 111.777 24.2477C111.777 23.0444 113.058 22.3269 115.078 22.3269ZM115.078 23.0444C113.621 23.0444 112.683 23.497 112.683 24.2477C112.683 24.9983 113.621 25.4399 115.078 25.4399C116.546 25.4399 117.485 24.9983 117.485 24.2477C117.485 23.497 116.546 23.0444 115.078 23.0444Z" fill="black"/>
<path d="M247.226 16.2223H248.131V26.2236H247.226V16.2223ZM245.073 19.8652H247.491V20.6158H245.073V19.8652ZM242.457 17.6574H243.196V19.1477C243.196 21.3003 241.96 23.4308 240.381 24.2477L239.841 23.5191C241.276 22.8126 242.457 20.9249 242.457 19.1477V17.6574ZM242.644 17.6574H243.373V19.1477C243.373 20.8145 244.532 22.636 245.978 23.3204L245.437 24.0379C243.859 23.2542 242.644 21.2009 242.644 19.1477V17.6574ZM240.205 17.249H245.636V18.0107H240.205V17.249ZM252.535 17.3042H253.285V18.11C253.285 19.9425 252.181 21.4769 250.503 22.084L250.04 21.3555C251.541 20.8256 252.535 19.534 252.535 18.11V17.3042ZM252.7 17.3042H253.451V18.099C253.451 19.4016 254.4 20.5717 255.868 21.0574L255.427 21.7749C253.76 21.223 252.7 19.799 252.7 18.099V17.3042ZM250.316 16.973H255.648V17.7236H250.316V16.973ZM256.906 16.2334H257.822V22.2496H256.906V16.2334ZM257.568 18.7613H259.301V19.534H257.568V18.7613ZM254.643 22.5145C256.674 22.5145 257.922 23.1879 257.922 24.347C257.922 25.5171 256.674 26.1905 254.643 26.1905C252.612 26.1905 251.364 25.5171 251.364 24.347C251.364 23.1879 252.612 22.5145 254.643 22.5145ZM254.643 23.2542C253.164 23.2542 252.259 23.6516 252.259 24.347C252.259 25.0535 253.164 25.473 254.643 25.473C256.122 25.473 257.027 25.0535 257.027 24.347C257.027 23.6516 256.122 23.2542 254.643 23.2542Z" fill="black"/>
<path d="M130.871 31.6888C131.302 31.2577 131.302 30.5587 130.871 30.1276L123.846 23.1025C123.414 22.6714 122.715 22.6714 122.284 23.1025C121.853 23.5336 121.853 24.2325 122.284 24.6636L128.529 30.9082L122.284 37.1528C121.853 37.5839 121.853 38.2828 122.284 38.7139C122.715 39.145 123.414 39.145 123.846 38.7139L130.871 31.6888ZM72.6875 32.0121L130.09 32.0121V29.8043L72.6875 29.8043V32.0121Z" fill="black"/>
<path d="M281.001 31.6888C281.432 31.2577 281.432 30.5587 281.001 30.1276L273.976 23.1025C273.545 22.6714 272.846 22.6714 272.414 23.1025C271.983 23.5336 271.983 24.2325 272.414 24.6636L278.659 30.9082L272.414 37.1528C271.983 37.5839 271.983 38.2828 272.414 38.7139C272.846 39.145 273.545 39.145 273.976 38.7139L281.001 31.6888ZM225.025 32.0121H280.22V29.8043H225.025V32.0121Z" fill="black"/>
<path d="M8.84674 83V76.9787H9.74052V77.8882H9.80324C9.913 77.5903 10.1116 77.3485 10.3991 77.163C10.6866 76.9774 11.0106 76.8847 11.3713 76.8847C11.4392 76.8847 11.5242 76.886 11.6261 76.8886C11.728 76.8912 11.8051 76.8951 11.8574 76.9003V77.8412C11.826 77.8333 11.7541 77.8216 11.6418 77.8059C11.532 77.7876 11.4157 77.7784 11.2929 77.7784C11.0002 77.7784 10.7388 77.8399 10.5089 77.9627C10.2815 78.0829 10.1012 78.2502 9.96788 78.4645C9.83721 78.6761 9.77188 78.9179 9.77188 79.1897V83H8.84674ZM15.2953 83.1254C14.7151 83.1254 14.2146 82.9974 13.7939 82.7413C13.3757 82.4825 13.053 82.1219 12.8256 81.6593C12.6009 81.1941 12.4885 80.6532 12.4885 80.0364C12.4885 79.4197 12.6009 78.8761 12.8256 78.4057C13.053 77.9326 13.3692 77.5641 13.7743 77.3002C14.182 77.0336 14.6576 76.9003 15.2012 76.9003C15.5148 76.9003 15.8245 76.9526 16.1303 77.0571C16.436 77.1617 16.7144 77.3316 16.9652 77.5668C17.2161 77.7994 17.416 78.1077 17.565 78.4919C17.714 78.8761 17.7885 79.3491 17.7885 79.911V80.303H13.1471V79.5033H16.8476C16.8476 79.1635 16.7797 78.8604 16.6438 78.5938C16.5105 78.3273 16.3197 78.1169 16.0715 77.9627C15.8258 77.8085 15.5357 77.7314 15.2012 77.7314C14.8327 77.7314 14.5139 77.8229 14.2447 78.0058C13.9781 78.1861 13.773 78.4213 13.6292 78.7114C13.4855 79.0015 13.4136 79.3125 13.4136 79.6444V80.1775C13.4136 80.6323 13.492 81.0177 13.6488 81.334C13.8083 81.6476 14.0291 81.8867 14.3113 82.0513C14.5936 82.2134 14.9216 82.2944 15.2953 82.2944C15.5383 82.2944 15.7578 82.2604 15.9539 82.1925C16.1525 82.1219 16.3236 82.0174 16.4674 81.8789C16.6111 81.7377 16.7222 81.5626 16.8006 81.3536L17.6944 81.6044C17.6003 81.9076 17.4422 82.1742 17.22 82.4041C16.9979 82.6315 16.7235 82.8092 16.3968 82.9373C16.0701 83.0627 15.703 83.1254 15.2953 83.1254ZM23.4608 78.3273L22.6298 78.5625C22.5775 78.424 22.5004 78.2894 22.3985 78.1587C22.2992 78.0254 22.1633 77.9156 21.9908 77.8294C21.8183 77.7432 21.5975 77.7 21.3283 77.7C20.9598 77.7 20.6527 77.785 20.4071 77.9548C20.164 78.1221 20.0425 78.3351 20.0425 78.5938C20.0425 78.8238 20.1261 79.0054 20.2934 79.1387C20.4606 79.272 20.722 79.3831 21.0774 79.4719L21.9712 79.6914C22.5095 79.8221 22.9107 80.022 23.1747 80.2912C23.4386 80.5578 23.5706 80.9014 23.5706 81.3222C23.5706 81.6672 23.4713 81.9756 23.2727 82.2473C23.0767 82.5191 22.8022 82.7334 22.4494 82.8902C22.0966 83.047 21.6863 83.1254 21.2185 83.1254C20.6044 83.1254 20.0961 82.9922 19.6936 82.7256C19.2912 82.459 19.0363 82.0696 18.9292 81.5574L19.8073 81.3379C19.8909 81.6619 20.049 81.905 20.2816 82.067C20.5168 82.229 20.8239 82.3101 21.2028 82.3101C21.6341 82.3101 21.9764 82.2186 22.2299 82.0357C22.486 81.8501 22.6141 81.628 22.6141 81.3692C22.6141 81.1602 22.5409 80.9851 22.3946 80.844C22.2482 80.7002 22.0235 80.5931 21.7203 80.5225L20.7168 80.2873C20.1653 80.1566 19.7603 79.9541 19.5015 79.6797C19.2454 79.4027 19.1174 79.0564 19.1174 78.6409C19.1174 78.3011 19.2128 78.0006 19.4035 77.7392C19.5969 77.4779 19.8596 77.2728 20.1915 77.1238C20.526 76.9748 20.9049 76.9003 21.3283 76.9003C21.9241 76.9003 22.3919 77.031 22.7317 77.2924C23.074 77.5537 23.3171 77.8987 23.4608 78.3273ZM25.8883 79.3778V83H24.9632V76.9787H25.857V77.9196H25.9354C26.0765 77.6138 26.2908 77.3681 26.5783 77.1826C26.8657 76.9944 27.2368 76.9003 27.6916 76.9003C28.0993 76.9003 28.456 76.984 28.7618 77.1512C29.0675 77.3159 29.3053 77.5668 29.4752 77.9039C29.6451 78.2384 29.73 78.6618 29.73 79.174V83H28.8049V79.2367C28.8049 78.7637 28.682 78.3952 28.4364 78.1313C28.1907 77.8647 27.8536 77.7314 27.425 77.7314C27.1297 77.7314 26.8657 77.7954 26.6331 77.9235C26.4032 78.0515 26.2215 78.2384 26.0883 78.4841C25.955 78.7297 25.8883 79.0276 25.8883 79.3778ZM33.9451 83.1254C33.3649 83.1254 32.8645 82.9974 32.4437 82.7413C32.0256 82.4825 31.7028 82.1219 31.4754 81.6593C31.2507 81.1941 31.1383 80.6532 31.1383 80.0364C31.1383 79.4197 31.2507 78.8761 31.4754 78.4057C31.7028 77.9326 32.019 77.5641 32.4241 77.3002C32.8318 77.0336 33.3074 76.9003 33.851 76.9003C34.1646 76.9003 34.4743 76.9526 34.7801 77.0571C35.0858 77.1617 35.3642 77.3316 35.615 77.5668C35.8659 77.7994 36.0659 78.1077 36.2148 78.4919C36.3638 78.8761 36.4383 79.3491 36.4383 79.911V80.303H31.7969V79.5033H35.4974C35.4974 79.1635 35.4295 78.8604 35.2936 78.5938C35.1603 78.3273 34.9695 78.1169 34.7213 77.9627C34.4756 77.8085 34.1855 77.7314 33.851 77.7314C33.4825 77.7314 33.1637 77.8229 32.8945 78.0058C32.6279 78.1861 32.4228 78.4213 32.2791 78.7114C32.1353 79.0015 32.0634 79.3125 32.0634 79.6444V80.1775C32.0634 80.6323 32.1418 81.0177 32.2987 81.334C32.4581 81.6476 32.6789 81.8867 32.9611 82.0513C33.2434 82.2134 33.5714 82.2944 33.9451 82.2944C34.1881 82.2944 34.4077 82.2604 34.6037 82.1925C34.8023 82.1219 34.9735 82.0174 35.1172 81.8789C35.2609 81.7377 35.372 81.5626 35.4504 81.3536L36.3442 81.6044C36.2501 81.9076 36.092 82.1742 35.8699 82.4041C35.6477 82.6315 35.3733 82.8092 35.0466 82.9373C34.72 83.0627 34.3528 83.1254 33.9451 83.1254ZM40.4642 76.9787V77.7628H37.3438V76.9787H40.4642ZM38.2533 75.5362H39.1784V81.2752C39.1784 81.5365 39.2163 81.7325 39.2921 81.8632C39.3705 81.9912 39.4698 82.0775 39.59 82.1219C39.7128 82.1637 39.8422 82.1846 39.9781 82.1846C40.08 82.1846 40.1637 82.1794 40.229 82.1689C40.2943 82.1559 40.3466 82.1454 40.3858 82.1376L40.574 82.9686C40.5112 82.9922 40.4237 83.0157 40.3113 83.0392C40.1989 83.0653 40.0565 83.0784 39.884 83.0784C39.6227 83.0784 39.3666 83.0222 39.1157 82.9098C38.8674 82.7975 38.661 82.6263 38.4963 82.3963C38.3343 82.1663 38.2533 81.8762 38.2533 81.526V75.5362ZM46.0111 83V83.8624H40.9934V83H46.0111ZM48.8963 83.1098C48.3579 83.1098 47.8823 83.0144 47.4694 82.8236C47.0591 82.6302 46.7389 82.3649 46.509 82.0278C46.279 81.6881 46.1653 81.3013 46.1679 80.8675C46.1653 80.5277 46.2319 80.2141 46.3678 79.9267C46.5037 79.6366 46.6893 79.3948 46.9245 79.2014C47.1623 79.0054 47.4276 78.8813 47.7203 78.829V78.782C47.3361 78.6827 47.0303 78.4671 46.803 78.1352C46.5756 77.8007 46.4632 77.4204 46.4658 76.9944C46.4632 76.5867 46.5665 76.2222 46.7755 75.9007C46.9846 75.5793 47.2721 75.3258 47.6379 75.1402C48.0064 74.9547 48.4259 74.8619 48.8963 74.8619C49.3615 74.8619 49.777 74.9547 50.1429 75.1402C50.5088 75.3258 50.7962 75.5793 51.0053 75.9007C51.217 76.2222 51.3241 76.5867 51.3267 76.9944C51.3241 77.4204 51.2078 77.8007 50.9779 78.1352C50.7505 78.4671 50.4486 78.6827 50.0723 78.782V78.829C50.3624 78.8813 50.6237 79.0054 50.8563 79.2014C51.0889 79.3948 51.2745 79.6366 51.413 79.9267C51.5515 80.2141 51.6221 80.5277 51.6247 80.8675C51.6221 81.3013 51.5045 81.6881 51.2719 82.0278C51.0419 82.3649 50.7217 82.6302 50.3114 82.8236C49.9038 83.0144 49.432 83.1098 48.8963 83.1098ZM48.8963 82.2473C49.2596 82.2473 49.5732 82.1885 49.8371 82.0709C50.1011 81.9533 50.3049 81.7874 50.4486 81.5731C50.5924 81.3588 50.6656 81.1079 50.6682 80.8204C50.6656 80.5173 50.5872 80.2494 50.433 80.0168C50.2788 79.7842 50.0684 79.6013 49.8018 79.468C49.5379 79.3347 49.236 79.2681 48.8963 79.2681C48.5539 79.2681 48.2482 79.3347 47.979 79.468C47.7124 79.6013 47.5021 79.7842 47.3479 80.0168C47.1963 80.2494 47.1218 80.5173 47.1244 80.8204C47.1218 81.1079 47.1911 81.3588 47.3322 81.5731C47.4759 81.7874 47.6811 81.9533 47.9476 82.0709C48.2142 82.1885 48.5304 82.2473 48.8963 82.2473ZM48.8963 78.437C49.1838 78.437 49.4386 78.3795 49.6607 78.2645C49.8855 78.1495 50.0619 77.9888 50.1899 77.7824C50.318 77.5759 50.3833 77.3342 50.3859 77.0571C50.3833 76.7854 50.3193 76.5488 50.1938 76.3476C50.0684 76.1438 49.8946 75.987 49.6725 75.8772C49.4503 75.7648 49.1916 75.7086 48.8963 75.7086C48.5958 75.7086 48.3331 75.7648 48.1084 75.8772C47.8836 75.987 47.7098 76.1438 47.587 76.3476C47.4642 76.5488 47.404 76.7854 47.4067 77.0571C47.404 77.3342 47.4655 77.5759 47.5909 77.7824C47.719 77.9888 47.8954 78.1495 48.1201 78.2645C48.3449 78.3795 48.6036 78.437 48.8963 78.437ZM53.569 83.0627C53.3756 83.0627 53.2097 82.9935 53.0712 82.855C52.9327 82.7164 52.8634 82.5505 52.8634 82.3571C52.8634 82.1637 52.9327 81.9978 53.0712 81.8593C53.2097 81.7207 53.3756 81.6515 53.569 81.6515C53.7624 81.6515 53.9284 81.7207 54.0669 81.8593C54.2054 81.9978 54.2747 82.1637 54.2747 82.3571C54.2747 82.4852 54.242 82.6028 54.1766 82.7099C54.1139 82.8171 54.029 82.9033 53.9218 82.9686C53.8173 83.0314 53.6997 83.0627 53.569 83.0627ZM55.9348 85.258V76.9787H56.8286V77.9352H56.9384C57.0063 77.8307 57.1004 77.6974 57.2206 77.5354C57.3434 77.3708 57.5185 77.2244 57.7459 77.0964C57.9759 76.9657 58.2869 76.9003 58.6789 76.9003C59.1859 76.9003 59.6328 77.0271 60.0195 77.2806C60.4063 77.5341 60.7082 77.8934 60.9251 78.3586C61.142 78.8238 61.2504 79.3726 61.2504 80.0051C61.2504 80.6427 61.142 81.1955 60.9251 81.6633C60.7082 82.1284 60.4076 82.4891 60.0235 82.7452C59.6393 82.9987 59.1963 83.1254 58.6945 83.1254C58.3078 83.1254 57.9981 83.0614 57.7655 82.9334C57.5329 82.8027 57.3539 82.655 57.2284 82.4904C57.103 82.3231 57.0063 82.1846 56.9384 82.0749H56.8599V85.258H55.9348ZM56.8443 79.9894C56.8443 80.4441 56.9109 80.8453 57.0442 81.1928C57.1775 81.5378 57.3722 81.8083 57.6283 82.0043C57.8844 82.1977 58.198 82.2944 58.5691 82.2944C58.9559 82.2944 59.2786 82.1925 59.5374 81.9886C59.7987 81.7822 59.9947 81.5051 60.1254 81.1576C60.2587 80.8074 60.3253 80.418 60.3253 79.9894C60.3253 79.566 60.26 79.1844 60.1293 78.8447C60.0012 78.5024 59.8065 78.2319 59.5452 78.0333C59.2865 77.832 58.9611 77.7314 58.5691 77.7314C58.1928 77.7314 57.8766 77.8268 57.6204 78.0176C57.3643 78.2057 57.1709 78.4697 57.0403 78.8094C56.9096 79.1466 56.8443 79.5399 56.8443 79.9894ZM65.2803 76.9787V77.7628H62.1599V76.9787H65.2803ZM63.0694 75.5362H63.9945V81.2752C63.9945 81.5365 64.0324 81.7325 64.1082 81.8632C64.1866 81.9912 64.2859 82.0775 64.4061 82.1219C64.5289 82.1637 64.6583 82.1846 64.7942 82.1846C64.8961 82.1846 64.9798 82.1794 65.0451 82.1689C65.1104 82.1559 65.1627 82.1454 65.2019 82.1376L65.3901 82.9686C65.3273 82.9922 65.2398 83.0157 65.1274 83.0392C65.015 83.0653 64.8726 83.0784 64.7001 83.0784C64.4388 83.0784 64.1827 83.0222 63.9318 82.9098C63.6835 82.7975 63.4771 82.6263 63.3124 82.3963C63.1504 82.1663 63.0694 81.8762 63.0694 81.526V75.5362Z" fill="black"/>
<path d="M159.687 75.4682H162.568V76.2078H159.687V75.4682ZM159.687 77.6208H162.59V78.3604H159.687V77.6208ZM162.215 73.6468H163.131V81.0318H162.215V73.6468ZM156.717 82.6435H163.374V83.3942H156.717V82.6435ZM156.717 80.3143H157.633V83.0299H156.717V80.3143ZM155.415 74.2981H156.32V76.0643H159.024V74.2981H159.919V79.3318H155.415V74.2981ZM156.32 76.7818V78.5812H159.024V76.7818H156.32ZM169.853 75.4682H172.524V76.2188H169.853V75.4682ZM169.764 77.5435H172.458V78.2942H169.764V77.5435ZM172.37 73.6357H173.286V79.6188H172.37V73.6357ZM169.246 74.3864H170.228C170.228 76.9585 168.451 78.7578 165.581 79.6188L165.205 78.8792C167.755 78.1396 169.246 76.6714 169.246 74.7838V74.3864ZM165.724 74.3864H169.875V75.137H165.724V74.3864ZM170.04 79.7292C172.061 79.7292 173.341 80.4468 173.341 81.65C173.341 82.8533 172.061 83.5708 170.04 83.5708C168.02 83.5708 166.74 82.8533 166.74 81.65C166.74 80.4468 168.02 79.7292 170.04 79.7292ZM170.04 80.4468C168.583 80.4468 167.645 80.8994 167.645 81.65C167.645 82.4007 168.583 82.8422 170.04 82.8422C171.509 82.8422 172.447 82.4007 172.447 81.65C172.447 80.8994 171.509 80.4468 170.04 80.4468ZM176.166 76.8922H180.979V77.6429H176.166V76.8922ZM178.087 77.3448H179.003V79.3429H178.087V77.3448ZM176.166 74.287H180.913V75.0377H177.082V77.2234H176.166V74.287ZM182.48 73.6357H183.397V81.0981H182.48V73.6357ZM176.95 82.6435H183.728V83.3942H176.95V82.6435ZM176.95 80.6123H177.855V82.9636H176.95V80.6123ZM175.404 79.8396L175.283 79.089C177.204 79.089 179.632 79.0448 181.686 78.802L181.741 79.4753C179.632 79.7844 177.27 79.8396 175.404 79.8396ZM195.74 73.6247H196.656V83.626H195.74V73.6247ZM191.391 74.3974C192.87 74.3974 193.93 75.7552 193.93 77.8747C193.93 80.0052 192.87 81.363 191.391 81.363C189.923 81.363 188.863 80.0052 188.863 77.8747C188.863 75.7552 189.923 74.3974 191.391 74.3974ZM191.391 75.2253C190.419 75.2253 189.735 76.263 189.735 77.8747C189.735 79.4974 190.419 80.5572 191.391 80.5572C192.373 80.5572 193.047 79.4974 193.047 77.8747C193.047 76.263 192.373 75.2253 191.391 75.2253ZM198.642 78.7799H207.694V79.5305H198.642V78.7799ZM199.791 73.8786H206.524V76.2409H200.718V77.5656H199.813V75.5675H205.63V74.5961H199.791V73.8786ZM199.813 77.2123H206.745V77.9299H199.813V77.2123ZM199.857 80.4357H206.535V83.4825H199.857V80.4357ZM205.641 81.1643H200.751V82.7429H205.641V81.1643Z" fill="black"/>
<path d="M303.8 73.6357H304.684V83.6149H303.8V73.6357ZM302.123 77.6981H304.043V78.4487H302.123V77.6981ZM301.537 73.8565H302.399V83.1072H301.537V73.8565ZM296.702 74.839H297.619V80.6013H296.702V74.839ZM296.702 80.237H297.343C298.369 80.237 299.517 80.1708 300.82 79.9169L300.919 80.7117C299.561 80.9766 298.413 81.0318 297.343 81.0318H296.702V80.237ZM306.372 79.5416H315.424V80.2922H306.372V79.5416ZM310.412 79.8948H311.317V83.6149H310.412V79.8948ZM307.509 74.0331H308.425V75.402H313.359V74.0331H314.265V78.3494H307.509V74.0331ZM308.425 76.1416V77.6098H313.359V76.1416H308.425ZM326.939 73.6247H327.844V83.626H326.939V73.6247ZM324.787 77.2675H327.204V78.0182H324.787V77.2675ZM322.17 75.0597H322.91V76.55C322.91 78.7026 321.674 80.8331 320.095 81.65L319.554 80.9214C320.989 80.2149 322.17 78.3273 322.17 76.55V75.0597ZM322.358 75.0597H323.087V76.55C323.087 78.2169 324.246 80.0383 325.692 80.7227L325.151 81.4403C323.572 80.6565 322.358 78.6033 322.358 76.55V75.0597ZM319.918 74.6513H325.35V75.413H319.918V74.6513ZM332.248 74.7065H332.999V75.5123C332.999 77.3448 331.895 78.8792 330.217 79.4864L329.753 78.7578C331.255 78.2279 332.248 76.9364 332.248 75.5123V74.7065ZM332.414 74.7065H333.164V75.5013C333.164 76.8039 334.114 77.974 335.582 78.4597L335.14 79.1773C333.473 78.6253 332.414 77.2013 332.414 75.5013V74.7065ZM330.029 74.3753H335.361V75.126H330.029V74.3753ZM336.619 73.6357H337.536V79.652H336.619V73.6357ZM337.282 76.1636H339.015V76.9364H337.282V76.1636ZM334.356 79.9169C336.388 79.9169 337.635 80.5903 337.635 81.7494C337.635 82.9195 336.388 83.5929 334.356 83.5929C332.325 83.5929 331.078 82.9195 331.078 81.7494C331.078 80.5903 332.325 79.9169 334.356 79.9169ZM334.356 80.6565C332.877 80.6565 331.972 81.0539 331.972 81.7494C331.972 82.4559 332.877 82.8753 334.356 82.8753C335.836 82.8753 336.741 82.4559 336.741 81.7494C336.741 81.0539 335.836 80.6565 334.356 80.6565ZM339.952 81.5617H348.993V82.3234H339.952V81.5617ZM343.971 79.1442H344.876V81.8156H343.971V79.1442ZM343.948 74.2981H344.743V75.0708C344.743 77.2013 342.701 78.8461 340.692 79.2656L340.306 78.5039C342.061 78.1838 343.948 76.7156 343.948 75.0708V74.2981ZM344.114 74.2981H344.909V75.0708C344.909 76.7266 346.808 78.1838 348.563 78.5039L348.165 79.2656C346.156 78.8461 344.114 77.2013 344.114 75.0708V74.2981Z" fill="black"/>
</g>
<defs>
<filter id="filter0_d_933_705" x="0.246094" y="0" width="352.748" height="93.2578" filterUnits="userSpaceOnUse" color-interpolation-filters="sRGB">
<feFlood flood-opacity="0" result="BackgroundImageFix"/>
<feColorMatrix in="SourceAlpha" type="matrix" values="0 0 0 0 0 0 0 0 0 0 0 0 0 0 0 0 0 0 127 0" result="hardAlpha"/>
<feOffset dy="4"/>
<feGaussianBlur stdDeviation="2"/>
<feComposite in2="hardAlpha" operator="out"/>
<feColorMatrix type="matrix" values="0 0 0 0 0 0 0 0 0 0 0 0 0 0 0 0 0 0 0.25 0"/>
<feBlend mode="normal" in2="BackgroundImageFix" result="effect1_dropShadow_933_705"/>
<feBlend mode="normal" in="SourceGraphic" in2="effect1_dropShadow_933_705" result="shape"/>
</filter>
<linearGradient id="paint0_linear_933_705" x1="180.87" y1="0" x2="180.87" y2="61.8147" gradientUnits="userSpaceOnUse">
<stop stop-color="#336CFE"/>
<stop offset="1" stop-color="#242424"/>
</linearGradient>
</defs>
</svg>
