<svg width="81" height="81" viewBox="0 0 81 81" fill="none" xmlns="http://www.w3.org/2000/svg">
<path d="M32.5178 17.8474C31.9656 17.84 31.5139 17.393 31.5139 16.8407L31.5138 11.1722C31.5138 10.3182 30.5123 9.8572 29.8635 10.4126L11.8875 25.7993C11.4212 26.1985 11.4212 26.9196 11.8875 27.3187L29.8635 42.7055C30.5123 43.2609 31.5138 42.7998 31.5138 41.9458V37.2852C31.5138 36.7329 31.9703 36.2842 32.5225 36.2951C51.6207 36.6718 63.0109 47.6618 66.8217 52.0698C67.3953 52.7332 68.5416 52.4588 68.6646 51.5905C68.8858 50.0293 69 48.4367 69 46.8193C69 27.1776 53.4456 18.1263 32.5178 17.8474Z" fill="#C3CAD8"/>
<path d="M23.744 53.6484C23.744 53.362 23.8478 53.1185 24.0555 52.918C24.2703 52.7103 24.5246 52.6064 24.8182 52.6064L34.0242 52.6172H34.035C34.3286 52.6172 34.5792 52.7246 34.7869 52.9395C35.0018 53.1471 35.1092 53.3978 35.1092 53.6914C35.1092 53.985 35.0018 54.2393 34.7869 54.4541C34.5792 54.6618 34.3286 54.7656 34.035 54.7656H34.0242L25.8924 54.7549L25.9031 59.1592L33.1434 59.2129C33.4513 59.2129 33.7055 59.3203 33.9061 59.5352C34.1138 59.75 34.2176 60.0257 34.2176 60.3623C34.2176 60.6488 34.1066 60.8923 33.8846 61.0928C33.6626 61.2861 33.4155 61.3828 33.1434 61.3828H33.1326L25.9139 61.3291L25.9246 65.873L34.0242 65.8623H34.035C34.3286 65.8623 34.5792 65.9697 34.7869 66.1846C35.0018 66.3923 35.1092 66.6429 35.1092 66.9365C35.1092 67.2301 35.0018 67.4844 34.7869 67.6992C34.5792 67.9069 34.3286 68.0107 34.035 68.0107H34.0242L24.8504 68.0215C24.5568 68.0215 24.3026 67.9176 24.0877 67.71C23.88 67.4951 23.7762 67.2445 23.7762 66.958L23.744 53.6484ZM46.1629 56.2695C46.4637 56.2695 46.7179 56.377 46.9256 56.5918C47.1404 56.8066 47.2479 57.0609 47.2479 57.3545C47.2479 57.6338 47.1476 57.8809 46.9471 58.0957L43.2088 62.124L47.0008 66.2275C47.2013 66.4424 47.3016 66.6895 47.3016 66.9688C47.3016 67.2624 47.1942 67.5166 46.9793 67.7314C46.7716 67.9391 46.521 68.043 46.2274 68.043C45.8979 68.043 45.6294 67.9248 45.4217 67.6885L41.7479 63.7031L38.0633 67.6777C37.8556 67.9141 37.5906 68.0322 37.2684 68.0322C36.9748 68.0322 36.7205 67.9284 36.5057 67.7207C36.298 67.5059 36.1942 67.2516 36.1942 66.958C36.1942 66.6787 36.2944 66.4316 36.4949 66.2168L40.2869 62.124L36.5486 58.0742C36.3481 57.8594 36.2479 57.6159 36.2479 57.3438C36.2479 57.0501 36.3517 56.7995 36.5594 56.5918C36.7742 56.377 37.0285 56.2695 37.3221 56.2695C37.6444 56.2695 37.9093 56.3877 38.117 56.624L41.7479 60.5449L45.368 56.6348C45.4539 56.5345 45.5721 56.4486 45.7225 56.377C45.88 56.3053 46.0268 56.2695 46.1629 56.2695ZM50.0194 55.1309C49.6899 55.1309 49.4214 55.0306 49.2137 54.8301C49.006 54.6224 48.8986 54.3682 48.8914 54.0674L48.8699 53.251C48.8699 52.9788 48.9917 52.7604 49.2352 52.5957C49.4787 52.4238 49.7114 52.3379 49.9334 52.3379C50.2342 52.3379 50.4848 52.4417 50.6854 52.6494C50.893 52.8571 51.0005 53.1077 51.0076 53.4014L51.0184 54.0459C51.0184 54.3252 50.9253 54.5758 50.7391 54.7979C50.5529 55.0199 50.313 55.1309 50.0194 55.1309ZM48.8592 57.1611C48.8592 56.889 48.9738 56.667 49.2029 56.4951C49.4321 56.3232 49.6541 56.2373 49.869 56.2373C50.1841 56.2373 50.4526 56.3304 50.6746 56.5166C50.8966 56.7028 51.0076 56.9499 51.0076 57.2578V57.2686L51.0291 67.2158C51.0291 67.5023 50.9217 67.7458 50.7069 67.9463C50.4992 68.1468 50.2485 68.2471 49.9549 68.2471C49.6541 68.2471 49.3999 68.1468 49.1922 67.9463C48.9845 67.7386 48.8807 67.4915 48.8807 67.2051L48.8592 57.1611ZM54.7352 54.3145C54.7352 54.0208 54.839 53.7702 55.0467 53.5625C55.2544 53.3477 55.5086 53.2402 55.8094 53.2402C56.103 53.2402 56.3537 53.3477 56.5613 53.5625C56.7762 53.7702 56.8836 54.0208 56.8836 54.3145V56.4521H58.3231C58.6024 56.4521 58.8423 56.5524 59.0428 56.7529C59.2433 56.9535 59.3436 57.1934 59.3436 57.4727C59.3436 57.752 59.2433 57.9919 59.0428 58.1924C58.8423 58.3929 58.6024 58.4932 58.3231 58.4932H56.8729L56.8621 65.1426V65.1641C56.8621 65.515 56.9015 65.7585 56.9803 65.8945C57.0591 66.0234 57.2202 66.0879 57.4637 66.0879C57.7716 66.0879 58.0438 66.0055 58.2801 65.8408C58.366 65.7835 58.4699 65.7334 58.5916 65.6904C58.7134 65.6403 58.8315 65.6152 58.9461 65.6152C59.2397 65.6152 59.4904 65.7191 59.6981 65.9268C59.9129 66.1344 60.0203 66.3851 60.0203 66.6787C60.0203 67.0296 59.8771 67.3125 59.5906 67.5273C59.3185 67.735 59.007 67.9069 58.6561 68.043C58.3052 68.179 57.9292 68.2471 57.5281 68.2471C56.6258 68.2471 55.9311 67.9714 55.4442 67.4199C54.9572 66.8613 54.7137 66.1667 54.7137 65.3359V65.2393L54.7244 58.5039H53.3387C53.0594 58.5039 52.8195 58.4036 52.619 58.2031C52.4184 58.0026 52.3182 57.7627 52.3182 57.4834C52.3182 57.2041 52.4184 56.9642 52.619 56.7637C52.8195 56.5632 53.0594 56.4629 53.3387 56.4629H54.7352V54.3145Z" fill="#C3CAD8"/>
</svg>
