<svg width="425" height="175" viewBox="0 0 425 175" fill="none" xmlns="http://www.w3.org/2000/svg">
<rect x="19.5234" y="3.89404" width="51.2566" height="50.4112" rx="3" fill="white"/>
<rect x="19.5234" y="3.89404" width="51.2566" height="50.4112" rx="3" stroke="white" stroke-width="2"/>
<rect x="19.5234" y="3.89404" width="51.2566" height="50.4112" rx="3" stroke="black" stroke-opacity="0.08" stroke-width="2"/>
<rect x="71.0898" y="3.89404" width="51.2566" height="50.4112" rx="3" fill="white"/>
<rect x="71.0898" y="3.89404" width="51.2566" height="50.4112" rx="3" stroke="white" stroke-width="2"/>
<rect x="71.0898" y="3.89404" width="51.2566" height="50.4112" rx="3" stroke="black" stroke-opacity="0.06" stroke-width="2"/>
<rect x="121.811" y="103.645" width="51.2566" height="50.4112" rx="3" fill="white"/>
<rect x="121.811" y="103.645" width="51.2566" height="50.4112" rx="3" stroke="white" stroke-width="2"/>
<rect x="121.811" y="103.645" width="51.2566" height="50.4112" rx="3" stroke="black" stroke-opacity="0.1" stroke-width="2"/>
<rect x="121.811" y="53.7695" width="51.2566" height="50.4112" rx="3" fill="white"/>
<rect x="121.811" y="53.7695" width="51.2566" height="50.4112" rx="3" stroke="white" stroke-width="2"/>
<rect x="121.811" y="53.7695" width="51.2566" height="50.4112" rx="3" stroke="black" stroke-opacity="0.07" stroke-width="2"/>
<rect x="121.811" y="3.89404" width="51.2566" height="50.4112" rx="3" fill="white"/>
<rect x="121.811" y="3.89404" width="51.2566" height="50.4112" rx="3" stroke="white" stroke-width="2"/>
<rect x="121.811" y="3.89404" width="51.2566" height="50.4112" rx="3" stroke="black" stroke-opacity="0.03" stroke-width="2"/>
<rect x="267.008" y="101.298" width="50.6805" height="50.1258" rx="3" transform="rotate(1.96462 267.008 101.298)" fill="white"/>
<rect x="267.008" y="101.298" width="50.6805" height="50.1258" rx="3" transform="rotate(1.96462 267.008 101.298)" stroke="white" stroke-width="2"/>
<rect x="267.008" y="101.298" width="50.6805" height="50.1258" rx="3" transform="rotate(1.96462 267.008 101.298)" stroke="black" stroke-opacity="0.2" stroke-width="2"/>
<rect x="268.739" y="50.8833" width="50.6805" height="50.1258" rx="3" transform="rotate(1.96462 268.739 50.8833)" fill="white"/>
<rect x="268.739" y="50.8833" width="50.6805" height="50.1258" rx="3" transform="rotate(1.96462 268.739 50.8833)" stroke="white" stroke-width="2"/>
<rect x="268.739" y="50.8833" width="50.6805" height="50.1258" rx="3" transform="rotate(1.96462 268.739 50.8833)" stroke="black" stroke-opacity="0.2" stroke-width="2"/>
<rect x="317.989" y="103.047" width="50.6805" height="50.1258" rx="3" transform="rotate(1.96462 317.989 103.047)" fill="white"/>
<rect x="317.989" y="103.047" width="50.6805" height="50.1258" rx="3" transform="rotate(1.96462 317.989 103.047)" stroke="white" stroke-width="2"/>
<rect x="317.989" y="103.047" width="50.6805" height="50.1258" rx="3" transform="rotate(1.96462 317.989 103.047)" stroke="black" stroke-opacity="0.2" stroke-width="2"/>
<rect x="319.717" y="52.6323" width="50.6805" height="50.1258" rx="3" transform="rotate(1.96462 319.717 52.6323)" fill="white"/>
<rect x="319.717" y="52.6323" width="50.6805" height="50.1258" rx="3" transform="rotate(1.96462 319.717 52.6323)" stroke="white" stroke-width="2"/>
<rect x="319.717" y="52.6323" width="50.6805" height="50.1258" rx="3" transform="rotate(1.96462 319.717 52.6323)" stroke="black" stroke-opacity="0.2" stroke-width="2"/>
<rect x="368.965" y="104.796" width="50.6805" height="50.1258" rx="3" transform="rotate(1.96462 368.965 104.796)" fill="white"/>
<rect x="368.965" y="104.796" width="50.6805" height="50.1258" rx="3" transform="rotate(1.96462 368.965 104.796)" stroke="white" stroke-width="2"/>
<rect x="368.965" y="104.796" width="50.6805" height="50.1258" rx="3" transform="rotate(1.96462 368.965 104.796)" stroke="black" stroke-opacity="0.2" stroke-width="2"/>
<rect x="370.694" y="54.3809" width="50.6805" height="50.1258" rx="3" transform="rotate(1.96462 370.694 54.3809)" fill="white"/>
<rect x="370.694" y="54.3809" width="50.6805" height="50.1258" rx="3" transform="rotate(1.96462 370.694 54.3809)" stroke="white" stroke-width="2"/>
<rect x="370.694" y="54.3809" width="50.6805" height="50.1258" rx="3" transform="rotate(1.96462 370.694 54.3809)" stroke="black" stroke-opacity="0.2" stroke-width="2"/>
<rect x="270.438" y="1.32129" width="50.6808" height="50.126" rx="3" transform="rotate(1.96462 270.438 1.32129)" fill="white"/>
<rect x="270.438" y="1.32129" width="50.6808" height="50.126" rx="3" transform="rotate(1.96462 270.438 1.32129)" stroke="white" stroke-width="2"/>
<rect x="270.438" y="1.32129" width="50.6808" height="50.126" rx="3" transform="rotate(1.96462 270.438 1.32129)" stroke="black" stroke-opacity="0.2" stroke-width="2"/>
<rect x="321.414" y="3.06983" width="50.6808" height="50.126" rx="3" transform="rotate(1.96462 321.414 3.06983)" fill="white"/>
<rect x="321.414" y="3.06983" width="50.6808" height="50.126" rx="3" transform="rotate(1.96462 321.414 3.06983)" stroke="white" stroke-width="2"/>
<rect x="321.414" y="3.06983" width="50.6808" height="50.126" rx="3" transform="rotate(1.96462 321.414 3.06983)" stroke="black" stroke-opacity="0.2" stroke-width="2"/>
<rect x="372.393" y="4.81885" width="50.6808" height="50.126" rx="3" transform="rotate(1.96462 372.393 4.81885)" fill="white"/>
<rect x="372.393" y="4.81885" width="50.6808" height="50.126" rx="3" transform="rotate(1.96462 372.393 4.81885)" stroke="white" stroke-width="2"/>
<rect x="372.393" y="4.81885" width="50.6808" height="50.126" rx="3" transform="rotate(1.96462 372.393 4.81885)" stroke="black" stroke-opacity="0.2" stroke-width="2"/>
<path d="M336.119 55.5777C335.775 65.6065 327.411 73.45 317.45 73.1083C307.488 72.7666 299.682 64.3685 300.026 54.3396C300.37 44.3107 308.733 36.4673 318.695 36.809C328.657 37.1507 336.463 45.5488 336.119 55.5777Z" fill="white" stroke="black" stroke-width="2"/>
<ellipse cx="309.651" cy="55.2337" rx="3.92348" ry="3.94477" transform="rotate(1.96462 309.651 55.2337)" fill="black"/>
<path d="M389.894 57.4224C389.55 67.4513 381.187 75.2947 371.225 74.953C361.264 74.6113 353.458 66.2132 353.802 56.1843C354.146 46.1554 362.509 38.312 372.47 38.6537C382.432 38.9954 390.238 47.3935 389.894 57.4224Z" fill="white" stroke="black" stroke-width="2"/>
<ellipse cx="363.428" cy="57.0779" rx="3.92348" ry="3.94477" transform="rotate(1.96462 363.428 57.0779)" fill="black"/>
<ellipse cx="31.9516" cy="20.2853" rx="31.9516" ry="20.2853" transform="matrix(0.984947 0.172859 -0.171396 0.985202 313.467 83.2559)" fill="#F0A5A5"/>
<ellipse cx="14.574" cy="6.76196" rx="14.574" ry="6.76196" transform="matrix(0.988159 0.153432 -0.152167 0.988355 327.066 113.343)" fill="#FCD4D4"/>
<path d="M245.255 11.3519C245.372 11.6016 245.515 12.6169 245.682 14.398C245.888 16.1306 246.078 18.2825 246.251 20.8535C246.463 23.3761 246.654 26.0988 246.825 29.0215C246.991 31.9009 247.118 34.6313 247.204 37.2126C247.329 39.7455 247.389 41.9127 247.383 43.7144C247.416 45.4676 247.361 46.4844 247.218 46.7649C246.867 47.5093 246.266 47.998 245.415 48.2307C244.559 48.4202 243.91 48.4973 243.466 48.4621C243.331 48.4342 243.145 47.9732 242.907 47.079C242.669 46.1848 242.395 44.9873 242.085 43.4867C241.818 41.9809 241.526 40.2586 241.208 38.3197C240.89 36.3808 240.589 34.3959 240.304 32.3652C240.014 30.2912 239.729 28.2605 239.449 26.2732C239.164 24.2425 238.924 22.4041 238.728 20.7581C238.533 19.1121 238.39 17.7234 238.3 16.5921C238.209 15.4607 238.189 14.7383 238.24 14.4248C238.341 13.7978 238.71 13.205 239.347 12.6462C239.983 12.0875 240.7 11.651 241.497 11.3367C242.29 10.9792 243.037 10.8025 243.741 10.8069C244.482 10.7628 244.987 10.9445 245.255 11.3519ZM249.009 52.4164C249.218 52.699 249.335 53.1245 249.358 53.6927C249.42 54.2125 249.422 54.7833 249.364 55.4052C249.344 55.9786 249.259 56.5597 249.11 57.1485C248.998 57.6888 248.854 58.1451 248.679 58.5174C248.537 58.7978 248.324 59.0427 248.041 59.2519C247.759 59.4612 247.447 59.608 247.105 59.6925C246.769 59.8203 246.449 59.9021 246.146 59.9381C245.843 59.9741 245.605 60.0024 245.432 60.023C245.167 60.0105 244.862 59.849 244.517 59.5385C244.216 59.2228 243.929 58.8396 243.656 58.3888C243.421 57.8896 243.227 57.3636 243.074 56.8107C242.915 56.2146 242.87 55.6489 242.938 55.1137C243.011 54.6218 243.328 54.1449 243.888 53.6831C244.443 53.178 245.055 52.776 245.722 52.4772C246.433 52.1732 247.094 52.0068 247.705 51.9782C248.355 51.9011 248.79 52.0471 249.009 52.4164Z" fill="#D71F1F"/>
<rect x="71.0898" y="53.7695" width="51.2566" height="50.4112" rx="3" fill="white"/>
<rect x="71.0898" y="53.7695" width="51.2566" height="50.4112" rx="3" stroke="white" stroke-width="2"/>
<rect x="71.0898" y="53.7695" width="51.2566" height="50.4112" rx="3" stroke="black" stroke-opacity="0.08" stroke-width="2"/>
<rect x="19.5234" y="53.7695" width="51.2566" height="50.4112" rx="3" fill="white"/>
<rect x="19.5234" y="53.7695" width="51.2566" height="50.4112" rx="3" stroke="white" stroke-width="2"/>
<rect x="19.5234" y="53.7695" width="51.2566" height="50.4112" rx="3" stroke="black" stroke-opacity="0.13" stroke-width="2"/>
<rect x="71.0898" y="103.645" width="51.2566" height="50.4112" rx="3" fill="white"/>
<rect x="71.0898" y="103.645" width="51.2566" height="50.4112" rx="3" stroke="white" stroke-width="2"/>
<rect x="71.0898" y="103.645" width="51.2566" height="50.4112" rx="3" stroke="black" stroke-opacity="0.13" stroke-width="2"/>
<rect x="19.5234" y="103.645" width="51.2566" height="50.4112" rx="3" fill="white"/>
<rect x="19.5234" y="103.645" width="51.2566" height="50.4112" rx="3" stroke="white" stroke-width="2"/>
<rect x="19.5234" y="103.645" width="51.2566" height="50.4112" rx="3" stroke="black" stroke-opacity="0.4" stroke-width="2"/>
<path d="M39.7124 140.397C39.3893 140.383 39.0662 140.368 38.702 140.436L42.6625 137.434C43.2895 136.958 43.6323 135.971 43.107 135.278C42.9068 135.014 42.6327 134.858 42.3175 134.785C42.4974 134.337 42.4863 133.773 42.186 133.377C41.8108 132.882 41.1145 132.786 40.5273 132.972C40.5342 132.707 40.4502 132.459 40.3 132.26C39.8247 131.633 38.9134 131.597 38.2773 131.923C38.2432 131.741 38.1841 131.526 38.034 131.328C37.5087 130.635 36.4654 130.698 35.8383 131.174L29.3366 136.102C27.7854 137.278 27.6864 137.353 27.3697 138.581L27.3286 138.664L26.1075 139.589C25.7445 139.864 24.7874 140.59 25.663 141.745L28.7653 145.838C29.2907 146.531 29.9699 146.535 30.894 145.835L31.9832 145.009C32.8136 145.419 34.4222 145.759 36.0394 144.533C36.8315 143.932 38.5748 143.079 39.6431 143.048C40.8855 143.042 40.9973 142.23 41.0293 141.998C41.0421 141.26 40.4087 140.493 39.7124 140.397ZM39.5729 142.27C38.2645 142.327 36.3641 143.247 35.473 143.923C33.9376 145.087 32.6038 144.456 32.2446 144.257L31.7607 143.619C31.6106 143.421 31.3785 143.389 31.1805 143.539C30.9825 143.689 30.9506 143.921 31.1007 144.119L31.3508 144.449L30.3607 145.2C29.7997 145.625 29.6006 145.568 29.4254 145.337L26.3232 141.245C25.9729 140.783 26.1129 140.625 26.608 140.249L27.5981 139.499L27.8483 139.829C27.9984 140.027 28.2304 140.059 28.4285 139.909C28.6265 139.759 28.6584 139.526 28.5083 139.328L28.133 138.833C28.4178 137.838 28.4178 137.838 29.837 136.762L36.3387 131.834C36.6027 131.633 37.1489 131.531 37.374 131.828C37.5742 132.092 37.3862 132.598 37.0892 132.824L32.7988 136.076C32.6007 136.226 32.5688 136.458 32.7189 136.656C32.869 136.854 33.1011 136.886 33.2991 136.736L37.5896 133.484L38.5797 132.733C38.8437 132.533 39.4149 132.464 39.64 132.761C39.8152 132.992 39.6272 133.498 39.3302 133.723L34.3797 137.476C34.1817 137.626 34.1497 137.858 34.2998 138.056C34.4499 138.254 34.682 138.286 34.88 138.136L39.8306 134.383L40.4907 133.883C40.7547 133.683 41.3008 133.581 41.526 133.878C41.7262 134.142 41.5382 134.648 41.2412 134.873L40.9112 135.123L35.6306 139.126C35.4326 139.276 35.4007 139.508 35.5508 139.706C35.7009 139.904 35.9329 139.936 36.131 139.786L41.4115 135.783C41.7085 135.558 42.2217 135.481 42.4468 135.778C42.647 136.042 42.4591 136.548 42.162 136.773L36.0894 141.377L36.0564 141.402C36.0234 141.427 35.9904 141.452 35.9574 141.477L35.9244 141.502C35.7844 141.66 35.7775 141.925 35.9356 142.065C36.0937 142.205 36.3258 142.237 36.4908 142.112C37.0518 141.687 38.6392 141.107 39.5596 141.293C39.8247 141.3 40.1829 141.704 40.143 141.994C40.1441 142.201 39.838 142.277 39.5729 142.27Z" fill="black"/>
<path d="M50.3931 131.284C50.2695 131.45 50.1792 131.641 50.1553 131.881C49.5162 131.56 48.63 131.572 48.1603 132.204C48.012 132.403 47.9634 132.677 47.9395 132.917C47.3507 132.737 46.6553 132.839 46.2599 133.371C45.9386 133.803 45.9572 134.333 46.1412 134.779C45.8268 134.855 45.5541 135.014 45.3563 135.28C44.8373 135.977 45.1891 136.962 45.8204 137.431L49.808 140.397C49.4433 140.332 49.0871 140.326 48.7974 140.368C48.0773 140.504 47.4509 141.276 47.4951 141.98C47.4959 142.187 47.6483 143.023 48.8907 143.018C49.9593 143.039 51.7103 143.877 52.5079 144.47C54.1361 145.681 55.7416 145.327 56.5682 144.909L57.6648 145.725C57.9971 145.972 58.994 146.714 59.7602 145.684L62.8251 141.563C63.6902 140.4 62.7598 139.708 62.361 139.411L61.1315 138.497L61.1562 138.464C60.7952 137.214 60.6956 137.14 59.1337 135.978L52.5874 131.109C51.956 130.64 50.9121 130.586 50.3931 131.284ZM58.6062 136.618C60.035 137.681 60.035 137.681 60.3289 138.674L59.9582 139.172C59.8099 139.372 59.8439 139.604 60.0433 139.752C60.2427 139.9 60.4744 139.866 60.6227 139.667L60.8699 139.334L61.8668 140.076C62.332 140.422 62.4487 140.612 62.1274 141.044L59.0625 145.165C58.8648 145.43 58.691 145.456 58.126 145.036L57.1623 144.319L57.4095 143.987C57.5578 143.787 57.5238 143.556 57.3244 143.407C57.125 143.259 56.8932 143.293 56.7449 143.492L56.3247 144.057C56.2753 144.124 54.7635 145.115 53.0023 143.805C52.1051 143.138 50.1964 142.234 48.8875 142.19C48.6225 142.199 48.3158 142.126 48.3149 141.919C48.3226 141.77 48.3882 141.612 48.4871 141.479C48.586 141.346 48.7428 141.205 48.8502 141.13C49.7773 140.994 51.3699 141.559 51.9348 141.979C52.101 142.103 52.3327 142.069 52.4896 141.927C52.6464 141.786 52.6702 141.545 52.5289 141.389L52.4956 141.364C52.4624 141.339 52.4292 141.315 52.3959 141.29L52.3627 141.265L46.2816 136.742C45.9825 136.519 45.79 136.015 45.9878 135.749C46.2102 135.45 46.7241 135.523 47.0231 135.745L52.3399 139.7C52.5393 139.848 52.7711 139.814 52.9194 139.615C53.0677 139.415 53.0336 139.183 52.8342 139.035L47.5174 135.08L47.1851 134.833C46.8861 134.611 46.6935 134.106 46.8913 133.841C47.1137 133.541 47.6608 133.639 47.9266 133.836L48.5913 134.331L53.5758 138.038C53.7752 138.187 54.0069 138.152 54.1552 137.953C54.3035 137.754 54.2695 137.522 54.0701 137.374L49.0856 133.666C48.7865 133.444 48.5693 132.972 48.767 132.707C48.9895 132.408 49.5612 132.472 49.8271 132.669L50.824 133.411L55.1439 136.624C55.3433 136.772 55.575 136.738 55.7233 136.539C55.8716 136.339 55.8376 136.108 55.6382 135.959L51.3183 132.746C51.0192 132.524 50.8267 132.019 51.0244 131.753C51.2468 131.454 51.7939 131.552 52.0598 131.749L58.6061 136.618L58.6062 136.618Z" fill="black"/>
<path d="M67.6668 143.825C65.5822 144.655 63.2231 144.541 61.3289 143.573C60.9369 143.347 60.707 142.769 60.9559 142.383C61.2047 141.997 61.8127 141.755 62.2047 141.981C63.7069 142.723 65.4463 142.796 67.0098 142.174C68.5732 141.552 69.787 140.304 70.2825 138.768C70.4116 138.334 70.9868 138.009 71.4656 138.201C71.9116 138.311 72.2284 138.854 72.0124 139.323C71.3877 141.293 69.7514 142.996 67.6668 143.825Z" fill="black"/>
<path d="M21.7176 144.525C23.3728 145.251 25.3518 145.052 27.0291 144.042C27.3789 143.807 27.6289 143.237 27.4602 142.872C27.2915 142.507 26.8087 142.295 26.459 142.53C25.1314 143.306 23.6733 143.442 22.432 142.897C21.1906 142.352 20.304 141.187 20.0454 139.715C19.9814 139.298 19.5344 139.005 19.1156 139.21C18.7326 139.333 18.4137 139.872 18.5467 140.319C18.8692 142.207 20.0625 143.798 21.7176 144.525Z" fill="black"/>
<rect x="18.5254" y="112.789" width="53.2566" height="16.0615" fill="#262626"/>
<circle cx="35.6405" cy="119.807" r="3.40418" fill="white"/>
<rect x="32.2129" y="114.134" width="9.07782" height="4.53891" transform="rotate(14.2013 32.2129 114.134)" fill="#262626"/>
<circle cx="3.40418" cy="3.40418" r="3.40418" transform="matrix(-1 0 0 1 56.8965 116.403)" fill="white"/>
<rect width="9.07782" height="4.53891" transform="matrix(-0.96944 0.245329 0.245329 0.96944 56.9219 114.134)" fill="#262626"/>
<rect x="71.7812" y="112.788" width="49.8752" height="16.0615" fill="#CECECE"/>
<ellipse cx="87.8052" cy="119.807" rx="3.18805" ry="3.40418" fill="white"/>
<rect width="8.53724" height="4.52209" transform="matrix(0.965376 0.260863 -0.230607 0.973047 84.5938 114.133)" fill="#CECECE"/>
<ellipse cx="3.18805" cy="3.40418" rx="3.18805" ry="3.40418" transform="matrix(-1 0 0 1 107.713 116.402)" fill="white"/>
<rect width="8.53724" height="4.52209" transform="matrix(-0.965376 0.260863 0.230607 0.973047 107.734 114.133)" fill="#CECECE"/>
<rect x="71.7812" y="63.7593" width="49.8752" height="16.0615" fill="#EEEEEE"/>
<ellipse cx="87.813" cy="70.7777" rx="3.18805" ry="3.40418" fill="white"/>
<rect width="8.53724" height="4.52209" transform="matrix(0.965376 0.260863 -0.230607 0.973047 84.6016 65.104)" fill="#EEEEEE"/>
<ellipse cx="3.18805" cy="3.40418" rx="3.18805" ry="3.40418" transform="matrix(-1 0 0 1 107.719 67.3735)" fill="white"/>
<rect width="8.53724" height="4.52209" transform="matrix(-0.965376 0.260863 0.230607 0.973047 107.742 65.104)" fill="#EEEEEE"/>
<rect x="71.7812" y="13.8838" width="49.0299" height="16.0615" fill="#F9F8F8"/>
<ellipse cx="87.5383" cy="20.9022" rx="3.13401" ry="3.40418" fill="white"/>
<rect width="8.40247" height="4.51804" transform="matrix(0.964235 0.265048 -0.226902 0.973918 84.3848 15.2285)" fill="#F9F8F8"/>
<ellipse cx="3.13401" cy="3.40418" rx="3.13401" ry="3.40418" transform="matrix(-1 0 0 1 107.109 17.498)" fill="white"/>
<rect width="8.40247" height="4.51804" transform="matrix(-0.964235 0.265048 0.226902 0.973918 107.129 15.2285)" fill="#F9F8F8"/>
<rect x="123.348" y="112.789" width="49.0299" height="16.0615" fill="#ECECEC"/>
<ellipse cx="139.103" cy="119.808" rx="3.13401" ry="3.40418" fill="white"/>
<rect width="8.40247" height="4.51804" transform="matrix(0.964235 0.265048 -0.226902 0.973918 135.949 114.134)" fill="#ECECEC"/>
<ellipse cx="3.13401" cy="3.40418" rx="3.13401" ry="3.40418" transform="matrix(-1 0 0 1 158.674 116.403)" fill="white"/>
<rect width="8.40247" height="4.51804" transform="matrix(-0.964235 0.265048 0.226902 0.973918 158.697 114.134)" fill="#ECECEC"/>
<rect x="123.348" y="63.7588" width="49.0299" height="16.0615" fill="#F9F8F8"/>
<ellipse cx="139.103" cy="70.7772" rx="3.13401" ry="3.40418" fill="white"/>
<rect width="8.40247" height="4.51804" transform="matrix(0.964235 0.265048 -0.226902 0.973918 135.949 65.1035)" fill="#F9F8F8"/>
<ellipse cx="3.13401" cy="3.40418" rx="3.13401" ry="3.40418" transform="matrix(-1 0 0 1 158.674 67.373)" fill="white"/>
<rect width="8.40247" height="4.51804" transform="matrix(-0.964235 0.265048 0.226902 0.973918 158.697 65.1035)" fill="#F9F8F8"/>
<rect x="122.504" y="13.8838" width="49.8752" height="16.0615" fill="#FCFCFC"/>
<ellipse cx="138.532" cy="20.9022" rx="3.18805" ry="3.40418" fill="white"/>
<rect width="8.53724" height="4.52209" transform="matrix(0.965376 0.260863 -0.230607 0.973047 135.322 15.2285)" fill="#FCFCFC"/>
<ellipse cx="3.18805" cy="3.40418" rx="3.18805" ry="3.40418" transform="matrix(-1 0 0 1 158.439 17.498)" fill="white"/>
<rect width="8.53724" height="4.52209" transform="matrix(-0.965376 0.260863 0.230607 0.973047 158.463 15.2285)" fill="#FCFCFC"/>
<rect x="20.2148" y="63.7593" width="49.8752" height="16.0615" fill="#D5D5D5"/>
<ellipse cx="36.2466" cy="70.7777" rx="3.18805" ry="3.40418" fill="white"/>
<rect width="8.53724" height="4.52209" transform="matrix(0.965376 0.260863 -0.230607 0.973047 33.0352 65.104)" fill="#D5D5D5"/>
<ellipse cx="3.18805" cy="3.40418" rx="3.18805" ry="3.40418" transform="matrix(-1 0 0 1 56.1523 67.3735)" fill="white"/>
<rect width="8.53724" height="4.52209" transform="matrix(-0.965376 0.260863 0.230607 0.973047 56.1758 65.104)" fill="#D5D5D5"/>
<rect x="20.2148" y="13.8838" width="49.8752" height="16.0615" fill="#EEEEEE"/>
<ellipse cx="36.2466" cy="20.9022" rx="3.18805" ry="3.40418" fill="white"/>
<rect width="8.53724" height="4.52209" transform="matrix(0.965376 0.260863 -0.230607 0.973047 33.0352 15.2285)" fill="#EEEEEE"/>
<ellipse cx="3.18805" cy="3.40418" rx="3.18805" ry="3.40418" transform="matrix(-1 0 0 1 56.1523 17.498)" fill="white"/>
<rect width="8.53724" height="4.52209" transform="matrix(-0.965376 0.260863 0.230607 0.973047 56.1758 15.2285)" fill="#EEEEEE"/>
<ellipse cx="12.903" cy="118.253" rx="7.37573" ry="2.83682" transform="rotate(20.633 12.903 118.253)" fill="#262626"/>
<ellipse cx="5.2569" cy="2.02188" rx="5.2569" ry="2.02188" transform="matrix(0.935857 -0.352381 -0.352381 -0.935857 10.3906 127.296)" fill="#262626"/>
<path d="M8.24226 14.8671C7.85174 14.4766 7.21857 14.4766 6.82805 14.8671L0.464085 21.2311C0.0735611 21.6216 0.0735611 22.2547 0.464085 22.6453C0.85461 23.0358 1.48777 23.0358 1.8783 22.6453L7.53515 16.9884L13.192 22.6453C13.5825 23.0358 14.2157 23.0358 14.6062 22.6453C14.9967 22.2547 14.9967 21.6216 14.6062 21.2311L8.24226 14.8671ZM8.53516 89.9644L8.53515 15.5742L6.53515 15.5742L6.53516 89.9644L8.53516 89.9644Z" fill="black"/>
<path d="M161.25 167.598C161.64 167.207 161.64 166.574 161.25 166.184L154.886 159.82C154.495 159.429 153.862 159.429 153.471 159.82C153.081 160.21 153.081 160.843 153.471 161.234L159.128 166.891L153.471 172.547C153.081 172.938 153.081 173.571 153.471 173.962C153.862 174.352 154.495 174.352 154.886 173.962L161.25 167.598ZM86.1523 167.891H160.542V165.891H86.1523V167.891Z" fill="black"/>
</svg>
