<svg width="328" height="295" viewBox="0 0 328 295" fill="none" xmlns="http://www.w3.org/2000/svg">
<path d="M60.4468 109.787C62.2199 105.67 62.5728 101.369 61.1517 97.387C59.2889 92.1675 54.6161 88.5114 48.6803 86.6715C51.1391 88.3189 53.0914 90.4571 54.0567 93.162C55.0517 95.9498 54.9948 98.9261 54.0603 101.835L51.7717 98.987L46.9644 102.612C43.4218 100.236 39.5796 99.4309 35.2828 100.172C32.4084 95.3435 28.8121 89.872 27.5576 90.3197C26.3031 90.7674 26.9836 97.2796 27.816 102.837C24.0207 104.984 21.5566 108.04 20.3204 112.121L14.3062 112.358L14.3401 116.011C11.7741 114.349 9.84568 112.081 8.85074 109.294C7.88539 106.589 8.04276 103.698 8.90294 100.866C5.47209 106.05 4.16999 111.839 6.03281 117.059C7.45395 121.041 10.452 124.145 14.4315 126.21L14.4663 130.026L20.7783 130.594C21.8236 135.355 23.4377 140.717 25.5828 146.727C32.9071 148.085 40.2569 147.436 47.0639 144.958C53.9019 142.567 59.9994 138.415 64.8114 132.727C62.6662 126.716 60.5217 121.546 58.316 117.199L62.8437 112.761L60.4518 109.784L60.4468 109.787ZM43.5674 126.92C44.6812 131.867 46.4863 139.395 48.0896 143.887L45.5825 144.782C43.9771 140.284 40.6034 133.306 38.333 128.771C29.5819 131.276 24.8318 129.593 24.8318 129.593C24.8318 129.593 24.3944 127.511 24.1041 125.858L24.1033 125.85C24.081 125.722 24.06 125.598 24.0397 125.476C24.0383 125.466 24.0374 125.457 24.0341 125.448C24.0248 125.398 24.0181 125.35 24.0095 125.302C24.0073 125.29 24.0059 125.28 24.0037 125.268C23.9856 125.157 23.9681 125.049 23.9533 124.948C23.9512 124.936 23.9484 124.922 23.9481 124.909C23.9429 124.871 23.9357 124.833 23.9312 124.797C23.929 124.785 23.9281 124.77 23.9259 124.758C23.9199 124.711 23.9139 124.665 23.9066 124.621C28.9731 124.53 34.0085 123.598 38.8149 121.85C43.6388 120.158 48.127 117.692 52.1065 114.556C52.13 114.593 52.153 114.633 52.1772 114.671C52.1864 114.685 52.1936 114.699 52.2028 114.713C52.2192 114.741 52.2356 114.769 52.2539 114.797C52.2637 114.812 52.2716 114.829 52.2814 114.844C52.3031 114.881 52.3247 114.918 52.3471 114.957C52.3569 114.972 52.3648 114.989 52.374 115.002C52.3943 115.035 52.4134 115.071 52.4343 115.106C52.4462 115.127 52.4573 115.147 52.4692 115.168C52.4849 115.194 52.5013 115.222 52.5152 115.249C52.527 115.271 52.5395 115.294 52.5532 115.314C52.5716 115.348 52.592 115.381 52.6111 115.417C52.6301 115.452 52.6491 115.482 52.6675 115.516C52.6839 115.544 52.7003 115.572 52.7155 115.602C52.7313 115.629 52.7451 115.656 52.7609 115.682C52.774 115.707 52.7891 115.731 52.8023 115.756C52.8187 115.784 52.8332 115.813 52.8503 115.843C52.8635 115.868 52.8792 115.894 52.8924 115.919C52.9181 115.968 52.945 116.013 52.9707 116.061C52.9845 116.088 53.0002 116.115 53.0134 116.14C53.0305 116.17 53.045 116.198 53.0621 116.228C53.0753 116.253 53.0903 116.278 53.1035 116.303C53.1199 116.331 53.1345 116.36 53.1502 116.386C53.1732 116.427 53.1936 116.466 53.2166 116.507C53.2337 116.537 53.2514 116.569 53.2666 116.599C53.2818 116.63 53.3028 116.665 53.3206 116.697C53.3338 116.722 53.3469 116.747 53.3601 116.772C53.3772 116.802 53.3931 116.834 53.4101 116.864C53.4226 116.888 53.4358 116.913 53.4483 116.936C53.4747 116.986 53.5029 117.035 53.5293 117.085C53.5372 117.102 53.5464 117.115 53.5543 117.132C53.5754 117.173 53.5984 117.213 53.6188 117.253C53.6261 117.267 53.6359 117.283 53.6432 117.297C53.6682 117.344 53.6925 117.388 53.715 117.433C53.7196 117.44 53.7223 117.447 53.7268 117.454C54.1858 118.312 54.536 118.99 54.536 118.99C54.536 118.99 52.0725 123.309 43.566 126.916L43.5674 126.92Z" fill="black"/>
<path fill-rule="evenodd" clip-rule="evenodd" d="M257.956 5.45115L262.631 0.776367L277.094 15.2393L272.419 19.9141L276.939 24.4338L271.825 29.5472L268.21 25.9315L262.081 32.0598C262.441 33.6265 262.631 35.2579 262.631 36.9337C262.631 48.9152 252.918 58.6281 240.937 58.6281C228.955 58.6281 219.242 48.9152 219.242 36.9337C219.242 24.9523 228.955 15.2393 240.937 15.2393C242.612 15.2393 244.244 15.4294 245.811 15.789L251.939 9.66066L248.323 6.04492L253.437 0.93151L257.956 5.45115ZM257.052 14.7741L263.096 20.8181L254.138 29.7767L255.033 33.6778C255.272 34.7175 255.4 35.8062 255.4 36.9337H226.474C226.474 28.9461 232.949 22.4708 240.937 22.4708C242.064 22.4708 243.153 22.5985 244.193 22.8371L248.094 23.7327L257.052 14.7741Z" fill="black"/>
<path d="M269.589 118.702C265.013 134.333 274.545 145.359 280.976 150.739C282.721 152.198 283.593 152.928 286.419 153.755L297.781 114.939L270.393 115.953L269.589 118.702Z" fill="black"/>
<path opacity="0.5" d="M292.629 154.15C300.946 153.087 314.919 148.942 319.495 133.31L320.299 130.561L297.781 114.939L286.419 153.755C289.245 154.582 290.373 154.438 292.629 154.15Z" fill="#999999"/>
<path opacity="0.5" d="M293.23 97.9689L291.482 98.0476C282.311 98.461 277.726 98.6676 276.242 99.8525C274.759 101.037 273.462 105.47 270.866 114.336L270.393 115.953L297.781 114.939L302.65 98.3042C300.401 97.6457 298.01 97.7534 293.23 97.9689Z" fill="#999999"/>
<path d="M312.194 104.11L310.765 103.102C306.855 100.342 304.9 98.9627 302.65 98.3042L297.781 114.939L320.299 130.561L320.773 128.944C323.368 120.079 324.665 115.646 324.055 113.848C323.445 112.051 319.695 109.404 312.194 104.11Z" fill="black"/>
<path d="M103.161 28.3027C102.874 28.7485 102.775 29.2903 102.887 29.8088L102.888 29.815L106.303 45.3949C106.366 45.6817 106.491 45.9511 106.67 46.1841C106.849 46.417 107.076 46.6078 107.337 46.7428L131.875 59.45L130.28 61.9231C129.707 62.8151 129.51 63.8981 129.734 64.9347C129.958 65.9713 130.584 66.8768 131.474 67.4527L135.243 69.8832C135.685 70.168 136.178 70.363 136.695 70.4571C137.212 70.5513 137.742 70.5427 138.256 70.4318C138.769 70.321 139.256 70.1101 139.688 69.8112C140.12 69.5123 140.488 69.1312 140.773 68.6897L144.776 62.4837L153.672 68.221C154.564 68.7947 155.647 68.9912 156.683 68.7673C157.72 68.5435 158.626 67.9177 159.201 67.0271L161.555 63.3771C161.84 62.9357 162.035 62.4425 162.129 61.9257C162.223 61.4088 162.214 60.8786 162.103 60.3651C161.993 59.8516 161.782 59.365 161.483 58.933C161.184 58.5011 160.803 58.1322 160.361 57.8475L151.465 52.1105L155.468 45.9042C156.041 45.0122 156.238 43.9292 156.014 42.8926C155.79 41.8561 155.164 40.9506 154.274 40.3747L150.505 37.9441C150.063 37.6594 149.57 37.4644 149.053 37.3702C148.536 37.2761 148.006 37.2847 147.493 37.3955C146.979 37.5063 146.493 37.7172 146.061 38.0161C145.629 38.315 145.26 38.6961 144.975 39.1376L143.38 41.6107L121.682 24.4999C121.451 24.3181 121.184 24.1893 120.898 24.1226C120.612 24.0559 120.315 24.0529 120.027 24.114L104.426 27.4305C104.168 27.4853 103.924 27.5906 103.707 27.7403C103.49 27.89 103.304 28.0811 103.161 28.3027ZM119.942 28.2216L141.202 44.9873L138.712 48.8495L122.565 38.4364C122.119 38.1489 121.578 38.0502 121.059 38.1622C120.54 38.2741 120.088 38.5874 119.8 39.0333C119.513 39.4791 119.414 40.0208 119.526 40.5393C119.638 41.0579 119.951 41.5107 120.397 41.7982L136.544 52.2111L134.053 56.0732L110.01 43.6222L107.227 30.9246L119.942 28.2216Z" fill="black"/>
<path d="M105.646 215.277H243.37V254.055C243.37 263.547 243.367 270.532 242.647 275.884C241.933 281.197 240.534 284.701 237.886 287.349C235.238 289.997 231.734 291.396 226.42 292.111C221.068 292.83 214.083 292.833 204.591 292.833H144.424C134.932 292.833 127.947 292.83 122.595 292.111C117.281 291.396 113.778 289.997 111.13 287.349C108.481 284.701 107.083 281.197 106.368 275.884C105.649 270.532 105.646 263.547 105.646 254.055V215.277Z" fill="#4E62E0" stroke="#4E62E0" stroke-width="2.66667"/>
<path d="M104.31 202.03L83.345 181.065C79.6036 177.324 80.0434 171.136 84.2762 167.962L109.462 149.072L108.662 148.006L109.462 149.072C112.411 146.86 116.434 146.749 119.502 148.794L142.329 164.012L104.31 202.03Z" fill="#4E62E0" stroke="#4E62E0" stroke-width="2.66667"/>
<path d="M265.665 181.065L244.699 202.03L206.681 164.012L229.508 148.794C229.508 148.794 229.508 148.794 229.508 148.794C232.575 146.749 236.598 146.86 239.547 149.072L264.733 167.962C264.733 167.962 264.733 167.962 264.733 167.962C268.966 171.136 269.406 177.324 265.665 181.065Z" fill="#4E62E0" stroke="#4E62E0" stroke-width="2.66667"/>
<path d="M234.671 203.916V213.944H114.336V203.916L144.42 173.833H204.587L234.671 203.916Z" stroke="#4E62E0" stroke-width="20" stroke-linecap="round"/>
<mask id="path-12-outside-1_1150_1541" maskUnits="userSpaceOnUse" x="160.465" y="224" width="31" height="51" fill="black">
<rect fill="white" x="160.465" y="224" width="31" height="51"/>
<path d="M171.108 264.357H175.929V269.179H171.108V264.357ZM175.929 264.357H180.751V269.179H175.929V264.357ZM175.929 269.179H180.751V274H175.929V269.179ZM171.108 269.179H175.929V274H171.108V269.179ZM171.108 254.714H175.929V259.536H171.108V254.714ZM175.929 254.714H180.751V259.536H175.929V254.714ZM175.929 249.893H180.751V254.714H175.929V249.893ZM171.108 249.893H175.929V254.714H171.108V249.893ZM171.108 245.071H175.929V249.893H171.108V245.071ZM175.929 245.071H180.751V249.893H175.929V245.071ZM180.751 245.071H185.572V249.893H180.751V245.071ZM175.929 240.25H180.751V245.071H175.929V240.25ZM180.751 240.25H185.572V245.071H180.751V240.25ZM185.572 240.25H190.393V245.071H185.572V240.25ZM185.572 235.429H190.393V240.25H185.572V235.429ZM180.751 235.429H185.572V240.25H180.751V235.429ZM180.751 230.607H185.572V235.429H180.751V230.607ZM185.572 230.607H190.393V235.429H185.572V230.607ZM180.751 225.786H185.572V230.607H180.751V225.786ZM175.929 225.786H180.751V230.607H175.929V225.786ZM175.929 230.607H180.751V235.429H175.929V230.607ZM171.108 230.607H175.929V235.429H171.108V230.607ZM166.286 230.607H171.108V235.429H166.286V230.607ZM166.286 225.786H171.108V230.607H166.286V225.786ZM171.108 225.786H175.929V230.607H171.108V225.786ZM161.465 230.607H166.286V235.429H161.465V230.607ZM161.465 235.429H166.286V240.25H161.465V235.429ZM166.286 235.429H171.108V240.25H166.286V235.429Z"/>
</mask>
<path d="M171.108 264.357H175.929V269.179H171.108V264.357ZM175.929 264.357H180.751V269.179H175.929V264.357ZM175.929 269.179H180.751V274H175.929V269.179ZM171.108 269.179H175.929V274H171.108V269.179ZM171.108 254.714H175.929V259.536H171.108V254.714ZM175.929 254.714H180.751V259.536H175.929V254.714ZM175.929 249.893H180.751V254.714H175.929V249.893ZM171.108 249.893H175.929V254.714H171.108V249.893ZM171.108 245.071H175.929V249.893H171.108V245.071ZM175.929 245.071H180.751V249.893H175.929V245.071ZM180.751 245.071H185.572V249.893H180.751V245.071ZM175.929 240.25H180.751V245.071H175.929V240.25ZM180.751 240.25H185.572V245.071H180.751V240.25ZM185.572 240.25H190.393V245.071H185.572V240.25ZM185.572 235.429H190.393V240.25H185.572V235.429ZM180.751 235.429H185.572V240.25H180.751V235.429ZM180.751 230.607H185.572V235.429H180.751V230.607ZM185.572 230.607H190.393V235.429H185.572V230.607ZM180.751 225.786H185.572V230.607H180.751V225.786ZM175.929 225.786H180.751V230.607H175.929V225.786ZM175.929 230.607H180.751V235.429H175.929V230.607ZM171.108 230.607H175.929V235.429H171.108V230.607ZM166.286 230.607H171.108V235.429H166.286V230.607ZM166.286 225.786H171.108V230.607H166.286V225.786ZM171.108 225.786H175.929V230.607H171.108V225.786ZM161.465 230.607H166.286V235.429H161.465V230.607ZM161.465 235.429H166.286V240.25H161.465V235.429ZM166.286 235.429H171.108V240.25H166.286V235.429Z" fill="white"/>
<path d="M171.108 264.357V263.357H170.108V264.357H171.108ZM175.929 264.357H176.929V263.357H175.929V264.357ZM175.929 269.179V270.179H176.929V269.179H175.929ZM171.108 269.179H170.108V270.179H171.108V269.179ZM175.929 264.357V263.357H174.929V264.357H175.929ZM180.751 264.357H181.751V263.357H180.751V264.357ZM180.751 269.179V270.179H181.751V269.179H180.751ZM175.929 269.179H174.929V270.179H175.929V269.179ZM175.929 269.179V268.179H174.929V269.179H175.929ZM180.751 269.179H181.751V268.179H180.751V269.179ZM180.751 274V275H181.751V274H180.751ZM175.929 274H174.929V275H175.929V274ZM171.108 269.179V268.179H170.108V269.179H171.108ZM175.929 269.179H176.929V268.179H175.929V269.179ZM175.929 274V275H176.929V274H175.929ZM171.108 274H170.108V275H171.108V274ZM171.108 254.714V253.714H170.108V254.714H171.108ZM175.929 254.714H176.929V253.714H175.929V254.714ZM175.929 259.536V260.536H176.929V259.536H175.929ZM171.108 259.536H170.108V260.536H171.108V259.536ZM175.929 254.714V253.714H174.929V254.714H175.929ZM180.751 254.714H181.751V253.714H180.751V254.714ZM180.751 259.536V260.536H181.751V259.536H180.751ZM175.929 259.536H174.929V260.536H175.929V259.536ZM175.929 249.893V248.893H174.929V249.893H175.929ZM180.751 249.893H181.751V248.893H180.751V249.893ZM180.751 254.714V255.714H181.751V254.714H180.751ZM175.929 254.714H174.929V255.714H175.929V254.714ZM171.108 249.893V248.893H170.108V249.893H171.108ZM175.929 249.893H176.929V248.893H175.929V249.893ZM175.929 254.714V255.714H176.929V254.714H175.929ZM171.108 254.714H170.108V255.714H171.108V254.714ZM171.108 245.071V244.071H170.108V245.071H171.108ZM175.929 245.071H176.929V244.071H175.929V245.071ZM175.929 249.893V250.893H176.929V249.893H175.929ZM171.108 249.893H170.108V250.893H171.108V249.893ZM175.929 245.071V244.071H174.929V245.071H175.929ZM180.751 245.071H181.751V244.071H180.751V245.071ZM180.751 249.893V250.893H181.751V249.893H180.751ZM175.929 249.893H174.929V250.893H175.929V249.893ZM180.751 245.071V244.071H179.751V245.071H180.751ZM185.572 245.071H186.572V244.071H185.572V245.071ZM185.572 249.893V250.893H186.572V249.893H185.572ZM180.751 249.893H179.751V250.893H180.751V249.893ZM175.929 240.25V239.25H174.929V240.25H175.929ZM180.751 240.25H181.751V239.25H180.751V240.25ZM180.751 245.071V246.071H181.751V245.071H180.751ZM175.929 245.071H174.929V246.071H175.929V245.071ZM180.751 240.25V239.25H179.751V240.25H180.751ZM185.572 240.25H186.572V239.25H185.572V240.25ZM185.572 245.071V246.071H186.572V245.071H185.572ZM180.751 245.071H179.751V246.071H180.751V245.071ZM185.572 240.25V239.25H184.572V240.25H185.572ZM190.393 240.25H191.393V239.25H190.393V240.25ZM190.393 245.071V246.071H191.393V245.071H190.393ZM185.572 245.071H184.572V246.071H185.572V245.071ZM185.572 235.429V234.429H184.572V235.429H185.572ZM190.393 235.429H191.393V234.429H190.393V235.429ZM190.393 240.25V241.25H191.393V240.25H190.393ZM185.572 240.25H184.572V241.25H185.572V240.25ZM180.751 235.429V234.429H179.751V235.429H180.751ZM185.572 235.429H186.572V234.429H185.572V235.429ZM185.572 240.25V241.25H186.572V240.25H185.572ZM180.751 240.25H179.751V241.25H180.751V240.25ZM180.751 230.607V229.607H179.751V230.607H180.751ZM185.572 230.607H186.572V229.607H185.572V230.607ZM185.572 235.429V236.429H186.572V235.429H185.572ZM180.751 235.429H179.751V236.429H180.751V235.429ZM185.572 230.607V229.607H184.572V230.607H185.572ZM190.393 230.607H191.393V229.607H190.393V230.607ZM190.393 235.429V236.429H191.393V235.429H190.393ZM185.572 235.429H184.572V236.429H185.572V235.429ZM180.751 225.786V224.786H179.751V225.786H180.751ZM185.572 225.786H186.572V224.786H185.572V225.786ZM185.572 230.607V231.607H186.572V230.607H185.572ZM180.751 230.607H179.751V231.607H180.751V230.607ZM175.929 225.786V224.786H174.929V225.786H175.929ZM180.751 225.786H181.751V224.786H180.751V225.786ZM180.751 230.607V231.607H181.751V230.607H180.751ZM175.929 230.607H174.929V231.607H175.929V230.607ZM175.929 230.607V229.607H174.929V230.607H175.929ZM180.751 230.607H181.751V229.607H180.751V230.607ZM180.751 235.429V236.429H181.751V235.429H180.751ZM175.929 235.429H174.929V236.429H175.929V235.429ZM171.108 230.607V229.607H170.108V230.607H171.108ZM175.929 230.607H176.929V229.607H175.929V230.607ZM175.929 235.429V236.429H176.929V235.429H175.929ZM171.108 235.429H170.108V236.429H171.108V235.429ZM166.286 230.607V229.607H165.286V230.607H166.286ZM171.108 230.607H172.108V229.607H171.108V230.607ZM171.108 235.429V236.429H172.108V235.429H171.108ZM166.286 235.429H165.286V236.429H166.286V235.429ZM166.286 225.786V224.786H165.286V225.786H166.286ZM171.108 225.786H172.108V224.786H171.108V225.786ZM171.108 230.607V231.607H172.108V230.607H171.108ZM166.286 230.607H165.286V231.607H166.286V230.607ZM171.108 225.786V224.786H170.108V225.786H171.108ZM175.929 225.786H176.929V224.786H175.929V225.786ZM175.929 230.607V231.607H176.929V230.607H175.929ZM171.108 230.607H170.108V231.607H171.108V230.607ZM161.465 230.607V229.607H160.465V230.607H161.465ZM166.286 230.607H167.286V229.607H166.286V230.607ZM166.286 235.429V236.429H167.286V235.429H166.286ZM161.465 235.429H160.465V236.429H161.465V235.429ZM161.465 235.429V234.429H160.465V235.429H161.465ZM166.286 235.429H167.286V234.429H166.286V235.429ZM166.286 240.25V241.25H167.286V240.25H166.286ZM161.465 240.25H160.465V241.25H161.465V240.25ZM166.286 235.429V234.429H165.286V235.429H166.286ZM171.108 235.429H172.108V234.429H171.108V235.429ZM171.108 240.25V241.25H172.108V240.25H171.108ZM166.286 240.25H165.286V241.25H166.286V240.25ZM171.108 265.357H175.929V263.357H171.108V265.357ZM174.929 264.357V269.179H176.929V264.357H174.929ZM175.929 268.179H171.108V270.179H175.929V268.179ZM172.108 269.179V264.357H170.108V269.179H172.108ZM175.929 265.357H180.751V263.357H175.929V265.357ZM179.751 264.357V269.179H181.751V264.357H179.751ZM180.751 268.179H175.929V270.179H180.751V268.179ZM176.929 269.179V264.357H174.929V269.179H176.929ZM175.929 270.179H180.751V268.179H175.929V270.179ZM179.751 269.179V274H181.751V269.179H179.751ZM180.751 273H175.929V275H180.751V273ZM176.929 274V269.179H174.929V274H176.929ZM171.108 270.179H175.929V268.179H171.108V270.179ZM174.929 269.179V274H176.929V269.179H174.929ZM175.929 273H171.108V275H175.929V273ZM172.108 274V269.179H170.108V274H172.108ZM171.108 255.714H175.929V253.714H171.108V255.714ZM174.929 254.714V259.536H176.929V254.714H174.929ZM175.929 258.536H171.108V260.536H175.929V258.536ZM172.108 259.536V254.714H170.108V259.536H172.108ZM175.929 255.714H180.751V253.714H175.929V255.714ZM179.751 254.714V259.536H181.751V254.714H179.751ZM180.751 258.536H175.929V260.536H180.751V258.536ZM176.929 259.536V254.714H174.929V259.536H176.929ZM175.929 250.893H180.751V248.893H175.929V250.893ZM179.751 249.893V254.714H181.751V249.893H179.751ZM180.751 253.714H175.929V255.714H180.751V253.714ZM176.929 254.714V249.893H174.929V254.714H176.929ZM171.108 250.893H175.929V248.893H171.108V250.893ZM174.929 249.893V254.714H176.929V249.893H174.929ZM175.929 253.714H171.108V255.714H175.929V253.714ZM172.108 254.714V249.893H170.108V254.714H172.108ZM171.108 246.071H175.929V244.071H171.108V246.071ZM174.929 245.071V249.893H176.929V245.071H174.929ZM175.929 248.893H171.108V250.893H175.929V248.893ZM172.108 249.893V245.071H170.108V249.893H172.108ZM175.929 246.071H180.751V244.071H175.929V246.071ZM179.751 245.071V249.893H181.751V245.071H179.751ZM180.751 248.893H175.929V250.893H180.751V248.893ZM176.929 249.893V245.071H174.929V249.893H176.929ZM180.751 246.071H185.572V244.071H180.751V246.071ZM184.572 245.071V249.893H186.572V245.071H184.572ZM185.572 248.893H180.751V250.893H185.572V248.893ZM181.751 249.893V245.071H179.751V249.893H181.751ZM175.929 241.25H180.751V239.25H175.929V241.25ZM179.751 240.25V245.071H181.751V240.25H179.751ZM180.751 244.071H175.929V246.071H180.751V244.071ZM176.929 245.071V240.25H174.929V245.071H176.929ZM180.751 241.25H185.572V239.25H180.751V241.25ZM184.572 240.25V245.071H186.572V240.25H184.572ZM185.572 244.071H180.751V246.071H185.572V244.071ZM181.751 245.071V240.25H179.751V245.071H181.751ZM185.572 241.25H190.393V239.25H185.572V241.25ZM189.393 240.25V245.071H191.393V240.25H189.393ZM190.393 244.071H185.572V246.071H190.393V244.071ZM186.572 245.071V240.25H184.572V245.071H186.572ZM185.572 236.429H190.393V234.429H185.572V236.429ZM189.393 235.429V240.25H191.393V235.429H189.393ZM190.393 239.25H185.572V241.25H190.393V239.25ZM186.572 240.25V235.429H184.572V240.25H186.572ZM180.751 236.429H185.572V234.429H180.751V236.429ZM184.572 235.429V240.25H186.572V235.429H184.572ZM185.572 239.25H180.751V241.25H185.572V239.25ZM181.751 240.25V235.429H179.751V240.25H181.751ZM180.751 231.607H185.572V229.607H180.751V231.607ZM184.572 230.607V235.429H186.572V230.607H184.572ZM185.572 234.429H180.751V236.429H185.572V234.429ZM181.751 235.429V230.607H179.751V235.429H181.751ZM185.572 231.607H190.393V229.607H185.572V231.607ZM189.393 230.607V235.429H191.393V230.607H189.393ZM190.393 234.429H185.572V236.429H190.393V234.429ZM186.572 235.429V230.607H184.572V235.429H186.572ZM180.751 226.786H185.572V224.786H180.751V226.786ZM184.572 225.786V230.607H186.572V225.786H184.572ZM185.572 229.607H180.751V231.607H185.572V229.607ZM181.751 230.607V225.786H179.751V230.607H181.751ZM175.929 226.786H180.751V224.786H175.929V226.786ZM179.751 225.786V230.607H181.751V225.786H179.751ZM180.751 229.607H175.929V231.607H180.751V229.607ZM176.929 230.607V225.786H174.929V230.607H176.929ZM175.929 231.607H180.751V229.607H175.929V231.607ZM179.751 230.607V235.429H181.751V230.607H179.751ZM180.751 234.429H175.929V236.429H180.751V234.429ZM176.929 235.429V230.607H174.929V235.429H176.929ZM171.108 231.607H175.929V229.607H171.108V231.607ZM174.929 230.607V235.429H176.929V230.607H174.929ZM175.929 234.429H171.108V236.429H175.929V234.429ZM172.108 235.429V230.607H170.108V235.429H172.108ZM166.286 231.607H171.108V229.607H166.286V231.607ZM170.108 230.607V235.429H172.108V230.607H170.108ZM171.108 234.429H166.286V236.429H171.108V234.429ZM167.286 235.429V230.607H165.286V235.429H167.286ZM166.286 226.786H171.108V224.786H166.286V226.786ZM170.108 225.786V230.607H172.108V225.786H170.108ZM171.108 229.607H166.286V231.607H171.108V229.607ZM167.286 230.607V225.786H165.286V230.607H167.286ZM171.108 226.786H175.929V224.786H171.108V226.786ZM174.929 225.786V230.607H176.929V225.786H174.929ZM175.929 229.607H171.108V231.607H175.929V229.607ZM172.108 230.607V225.786H170.108V230.607H172.108ZM161.465 231.607H166.286V229.607H161.465V231.607ZM165.286 230.607V235.429H167.286V230.607H165.286ZM166.286 234.429H161.465V236.429H166.286V234.429ZM162.465 235.429V230.607H160.465V235.429H162.465ZM161.465 236.429H166.286V234.429H161.465V236.429ZM165.286 235.429V240.25H167.286V235.429H165.286ZM166.286 239.25H161.465V241.25H166.286V239.25ZM162.465 240.25V235.429H160.465V240.25H162.465ZM166.286 236.429H171.108V234.429H166.286V236.429ZM170.108 235.429V240.25H172.108V235.429H170.108ZM171.108 239.25H166.286V241.25H171.108V239.25ZM167.286 240.25V235.429H165.286V240.25H167.286Z" fill="#4E62E0" mask="url(#path-12-outside-1_1150_1541)"/>
<path d="M139.61 143.649C140.161 144.514 141.189 145.001 142.251 145.001C142.746 145.001 143.25 144.896 143.714 144.67C145.17 143.964 145.696 142.366 144.885 141.098L114.704 93.8056C113.897 92.5383 112.059 92.0763 110.599 92.7846C109.143 93.4904 108.617 95.0889 109.428 96.3562L139.61 143.649Z" fill="#B6A2E6" stroke="#B29AEA" stroke-width="0.00064"/>
<path d="M160.434 169.245C160.758 170.456 161.999 171.275 163.37 171.275C163.597 171.275 163.828 171.252 164.058 171.205C165.683 170.877 166.691 169.463 166.312 168.049L145.184 89.2275C144.805 87.8166 143.177 86.9385 141.56 87.2672C139.935 87.5958 138.927 89.0093 139.306 90.4234L160.434 169.245Z" fill="#B6A2E6" stroke="#B29AEA" stroke-width="0.00064"/>
<path d="M167.898 135.805C167.961 135.805 168.025 135.802 168.09 135.8C169.754 135.71 171.018 134.463 170.913 133.014L167.895 90.9754C167.791 89.5255 166.38 88.4764 164.695 88.5173C163.031 88.6072 161.766 89.8542 161.871 91.304L164.889 133.342C164.989 134.735 166.317 135.805 167.898 135.805Z" fill="#B6A2E6" stroke="#B29AEA" stroke-width="0.00064"/>
<path d="M175.096 166.002C175.216 166.014 175.335 166.019 175.453 166.019C176.962 166.019 178.265 165.037 178.446 163.7L184.483 119.034C184.678 117.592 183.494 116.287 181.837 116.117C180.191 115.935 178.684 116.976 178.487 118.419L172.451 163.084C172.256 164.526 173.44 165.832 175.096 166.002Z" fill="#B6A2E6" stroke="#B29AEA" stroke-width="0.00064"/>
<path d="M203.082 140.962L181.954 169.863C181.06 171.087 181.474 172.711 182.879 173.491C183.382 173.768 183.943 173.901 184.497 173.901C185.495 173.901 186.471 173.47 187.047 172.685L208.174 143.784C209.068 142.56 208.654 140.936 207.249 140.156C205.843 139.382 203.977 139.741 203.082 140.962Z" fill="#B6A2E6" stroke="#B29AEA" stroke-width="0.00064"/>
<path d="M239.015 99.4763C237.636 98.6607 235.76 98.9734 234.822 100.172L209.167 133.014C208.23 134.214 208.588 135.849 209.965 136.665C210.486 136.973 211.077 137.119 211.66 137.119C212.626 137.119 213.575 136.716 214.16 135.97L239.814 103.128C240.751 101.927 240.394 100.292 239.015 99.4763Z" fill="#B6A2E6" stroke="#B29AEA" stroke-width="0.00064"/>
<path d="M189.403 144.808C189.774 144.939 190.158 145 190.534 145C191.727 145 192.857 144.379 193.334 143.358L222.006 81.6147C222.631 80.2676 221.884 78.7386 220.339 78.1943C218.79 77.6449 217.035 78.3021 216.409 79.6441L187.736 141.388C187.112 142.735 187.859 144.265 189.403 144.808Z" fill="#B6A2E6" stroke="#B29AEA" stroke-width="0.00064"/>
<path d="M235.021 136.728L200.312 172.198C199.232 173.301 199.384 174.962 200.652 175.903C201.22 176.324 201.915 176.529 202.608 176.529C203.461 176.529 204.31 176.216 204.907 175.605L239.616 140.135C240.696 139.032 240.544 137.371 239.276 136.43C238.01 135.489 236.103 135.622 235.021 136.728Z" fill="#B6A2E6" stroke="#B29AEA" stroke-width="0.00064"/>
<path d="M233.997 166.545L209.851 182.31C208.518 183.18 208.248 184.827 209.249 185.987C209.841 186.677 210.748 187.039 211.666 187.039C212.295 187.039 212.93 186.867 213.474 186.513L237.619 170.749C238.953 169.879 239.222 168.232 238.222 167.072C237.224 165.909 235.335 165.676 233.997 166.545Z" fill="#B6A2E6" stroke="#B29AEA" stroke-width="0.00064"/>
<path d="M260.831 152.583C259.805 151.439 257.906 151.228 256.595 152.123L243.013 161.32C241.698 162.21 241.46 163.86 242.483 165.007C243.078 165.671 243.969 166.02 244.867 166.02C245.515 166.02 246.169 165.84 246.718 165.466L260.3 156.27C261.616 155.379 261.854 153.73 260.831 152.583Z" fill="#B6A2E6" stroke="#B29AEA" stroke-width="0.00064"/>
<path d="M125.382 145.503C124.034 146.355 123.735 148 124.717 149.173L148.862 178.074C149.453 178.782 150.373 179.157 151.305 179.157C151.919 179.157 152.542 178.993 153.078 178.654C154.426 177.802 154.725 176.157 153.743 174.985L129.598 146.084C128.616 144.908 126.73 144.649 125.382 145.503Z" fill="#B6A2E6" stroke="#B29AEA" stroke-width="0.00064"/>
<path d="M115.82 141.468C116.416 142.066 117.256 142.374 118.102 142.374C118.802 142.374 119.507 142.163 120.077 141.732C121.337 140.78 121.473 139.123 120.382 138.025L100.764 118.319C99.6734 117.229 97.7667 117.103 96.5066 118.055C95.2465 119.007 95.1109 120.664 96.2017 121.762L115.82 141.468Z" fill="#B6A2E6" stroke="#B29AEA" stroke-width="0.00064"/>
<path d="M141.278 179.857L100.533 147.015C99.3093 146.027 97.4012 146.091 96.2679 147.156C95.136 148.221 95.2093 149.883 96.4328 150.868L137.179 183.711C137.759 184.18 138.494 184.411 139.228 184.411C140.039 184.411 140.847 184.129 141.443 183.569C142.575 182.505 142.501 180.842 141.278 179.857Z" fill="#B6A2E6" stroke="#B29AEA" stroke-width="0.00064"/>
<path d="M131.256 187.214L111.638 180.645C110.085 180.13 108.339 180.799 107.737 182.154C107.139 183.509 107.915 185.03 109.471 185.551L129.089 192.12C129.446 192.238 129.811 192.294 130.173 192.294C131.384 192.294 132.528 191.655 132.99 190.611C133.589 189.256 132.812 187.734 131.256 187.214Z" fill="#B6A2E6" stroke="#B29AEA" stroke-width="0.00064"/>
</svg>
