<svg width="473" height="426" viewBox="0 0 473 426" fill="none" xmlns="http://www.w3.org/2000/svg">
<rect x="44" y="214" width="55.1857" height="55.1857" rx="3" fill="#F3F3F3"/>
<rect x="44" y="214" width="55.1857" height="55.1857" rx="3" stroke="white" stroke-width="2"/>
<rect x="44" y="214" width="55.1857" height="55.1857" rx="3" stroke="#353535" stroke-opacity="0.2" stroke-width="2"/>
<rect x="99.4277" y="214" width="55.1857" height="55.1857" rx="3" fill="#F3F3F3"/>
<rect x="99.4277" y="214" width="55.1857" height="55.1857" rx="3" stroke="white" stroke-width="2"/>
<rect x="99.4277" y="214" width="55.1857" height="55.1857" rx="3" stroke="#353535" stroke-opacity="0.2" stroke-width="2"/>
<rect x="154.854" y="214" width="55.1857" height="55.1857" rx="3" fill="#F3F3F3"/>
<rect x="154.854" y="214" width="55.1857" height="55.1857" rx="3" stroke="white" stroke-width="2"/>
<rect x="154.854" y="214" width="55.1857" height="55.1857" rx="3" stroke="#353535" stroke-opacity="0.2" stroke-width="2"/>
<rect x="44" y="269.425" width="55.1857" height="55.1857" rx="3" fill="#F3F3F3"/>
<rect x="44" y="269.425" width="55.1857" height="55.1857" rx="3" stroke="white" stroke-width="2"/>
<rect x="44" y="269.425" width="55.1857" height="55.1857" rx="3" stroke="#353535" stroke-opacity="0.2" stroke-width="2"/>
<rect x="99.4277" y="269.425" width="55.1857" height="55.1857" rx="3" fill="#F3F3F3"/>
<rect x="99.4277" y="269.425" width="55.1857" height="55.1857" rx="3" stroke="white" stroke-width="2"/>
<rect x="99.4277" y="269.425" width="55.1857" height="55.1857" rx="3" stroke="#353535" stroke-opacity="0.2" stroke-width="2"/>
<rect x="154.854" y="269.425" width="55.1857" height="55.1857" rx="3" fill="#F3F3F3"/>
<rect x="154.854" y="269.425" width="55.1857" height="55.1857" rx="3" stroke="white" stroke-width="2"/>
<rect x="154.854" y="269.425" width="55.1857" height="55.1857" rx="3" stroke="#353535" stroke-opacity="0.2" stroke-width="2"/>
<rect x="44" y="324.852" width="55.1857" height="55.1857" rx="3" fill="#F3F3F3"/>
<rect x="44" y="324.852" width="55.1857" height="55.1857" rx="3" stroke="white" stroke-width="2"/>
<rect x="44" y="324.852" width="55.1857" height="55.1857" rx="3" stroke="#353535" stroke-opacity="0.2" stroke-width="2"/>
<rect x="99.4277" y="324.852" width="55.1857" height="55.1857" rx="3" fill="#F3F3F3"/>
<rect x="99.4277" y="324.852" width="55.1857" height="55.1857" rx="3" stroke="white" stroke-width="2"/>
<rect x="99.4277" y="324.852" width="55.1857" height="55.1857" rx="3" stroke="#353535" stroke-opacity="0.2" stroke-width="2"/>
<rect x="154.854" y="324.852" width="55.1857" height="55.1857" rx="3" fill="#F3F3F3"/>
<rect x="154.854" y="324.852" width="55.1857" height="55.1857" rx="3" stroke="white" stroke-width="2"/>
<rect x="154.854" y="324.852" width="55.1857" height="55.1857" rx="3" stroke="#353535" stroke-opacity="0.2" stroke-width="2"/>
<rect x="29" y="1" width="55.1857" height="55.1857" rx="3" fill="white"/>
<rect x="29" y="1" width="55.1857" height="55.1857" rx="3" stroke="white" stroke-width="2"/>
<rect x="29" y="1" width="55.1857" height="55.1857" rx="3" stroke="#454545" stroke-opacity="0.2" stroke-width="2"/>
<rect x="139.854" y="1" width="55.1857" height="55.1857" rx="3" fill="white"/>
<rect x="139.854" y="1" width="55.1857" height="55.1857" rx="3" stroke="white" stroke-width="2"/>
<rect x="139.854" y="1" width="55.1857" height="55.1857" rx="3" stroke="#454545" stroke-opacity="0.2" stroke-width="2"/>
<rect x="29" y="56.4253" width="55.1857" height="55.1857" rx="3" fill="white"/>
<rect x="29" y="56.4253" width="55.1857" height="55.1857" rx="3" stroke="white" stroke-width="2"/>
<rect x="29" y="56.4253" width="55.1857" height="55.1857" rx="3" stroke="#454545" stroke-opacity="0.2" stroke-width="2"/>
<rect x="84.4277" y="56.4253" width="55.1857" height="55.1857" rx="3" fill="white"/>
<rect x="84.4277" y="56.4253" width="55.1857" height="55.1857" rx="3" stroke="white" stroke-width="2"/>
<rect x="84.4277" y="56.4253" width="55.1857" height="55.1857" rx="3" stroke="#454545" stroke-opacity="0.2" stroke-width="2"/>
<rect x="29" y="111.852" width="55.1857" height="55.1857" rx="3" fill="white"/>
<rect x="29" y="111.852" width="55.1857" height="55.1857" rx="3" stroke="white" stroke-width="2"/>
<rect x="29" y="111.852" width="55.1857" height="55.1857" rx="3" stroke="#454545" stroke-opacity="0.2" stroke-width="2"/>
<rect x="84.4277" y="111.852" width="55.1857" height="55.1857" rx="3" fill="white"/>
<rect x="84.4277" y="111.852" width="55.1857" height="55.1857" rx="3" stroke="white" stroke-width="2"/>
<rect x="84.4277" y="111.852" width="55.1857" height="55.1857" rx="3" stroke="#454545" stroke-opacity="0.2" stroke-width="2"/>
<rect x="139.854" y="111.852" width="55.1857" height="55.1857" rx="3" fill="white"/>
<rect x="139.854" y="111.852" width="55.1857" height="55.1857" rx="3" stroke="white" stroke-width="2"/>
<rect x="139.854" y="111.852" width="55.1857" height="55.1857" rx="3" stroke="#454545" stroke-opacity="0.2" stroke-width="2"/>
<rect x="84.4277" y="1" width="55.1857" height="55.1857" rx="3" fill="white"/>
<rect x="84.4277" y="1" width="55.1857" height="55.1857" rx="3" stroke="white" stroke-width="2"/>
<rect x="84.4277" y="1" width="55.1857" height="55.1857" rx="3" stroke="#454545" stroke-opacity="0.2" stroke-width="2"/>
<rect x="136.854" y="53.4253" width="61.1857" height="61.1857" rx="5" fill="#E0E7FF"/>
<rect x="136.854" y="53.4253" width="61.1857" height="61.1857" rx="5" stroke="white" stroke-width="4"/>
<rect x="136.854" y="53.4253" width="61.1857" height="61.1857" rx="5" stroke="#4774D7" stroke-width="4"/>
<path d="M293.526 146.492V120.427H301.651V123.702H297.769V143.207H301.651V146.492H293.526ZM328.373 122.909V144H323.913V127.142H323.79L318.96 130.169V126.215L324.181 122.909H328.373ZM337.642 141.116L337.528 142.249C337.439 143.156 337.268 144.058 337.013 144.958C336.766 145.864 336.505 146.684 336.231 147.419C335.963 148.154 335.747 148.73 335.582 149.149H332.74C332.843 148.744 332.983 148.178 333.162 147.45C333.34 146.729 333.509 145.919 333.667 145.02C333.824 144.12 333.924 143.204 333.965 142.27L334.017 141.116H337.642ZM372.252 122.909V144H367.793V127.142H367.669L362.839 130.169V126.215L368.061 122.909H372.252ZM381.521 141.116L381.408 142.249C381.319 143.156 381.147 144.058 380.893 144.958C380.646 145.864 380.385 146.684 380.11 147.419C379.843 148.154 379.626 148.73 379.462 149.149H376.619C376.722 148.744 376.863 148.178 377.041 147.45C377.22 146.729 377.388 145.919 377.546 145.02C377.704 144.12 377.804 143.204 377.845 142.27L377.896 141.116H381.521ZM406.956 144V140.787L414.463 133.836C415.102 133.218 415.637 132.662 416.07 132.167C416.509 131.673 416.842 131.189 417.069 130.715C417.295 130.235 417.408 129.716 417.408 129.16C417.408 128.542 417.268 128.01 416.986 127.564C416.705 127.111 416.32 126.764 415.833 126.524C415.345 126.277 414.793 126.153 414.175 126.153C413.529 126.153 412.966 126.283 412.486 126.544C412.005 126.805 411.635 127.179 411.374 127.667C411.113 128.154 410.982 128.734 410.982 129.407H406.75C406.75 128.027 407.062 126.829 407.687 125.813C408.312 124.797 409.187 124.011 410.313 123.455C411.439 122.899 412.736 122.621 414.206 122.621C415.716 122.621 417.031 122.888 418.15 123.424C419.276 123.953 420.151 124.687 420.776 125.628C421.401 126.568 421.713 127.646 421.713 128.862C421.713 129.658 421.555 130.444 421.239 131.22C420.93 131.996 420.378 132.857 419.581 133.805C418.785 134.745 417.663 135.875 416.214 137.193L413.135 140.21V140.354H421.991V144H406.956ZM447.471 120.427V146.492H439.346V143.207H443.228V123.702H439.346V120.427H447.471Z" fill="black"/>
<path d="M370.048 194.691C370.203 194.962 370.328 195.358 370.425 195.88C370.522 196.383 370.57 196.837 370.57 197.243C370.57 197.997 370.406 199.07 370.077 200.462C368.743 202.898 366.771 204.116 364.161 204.116C363.194 204.116 362.208 203.797 361.203 203.159C360.198 202.521 359.502 201.786 359.115 200.955C358.593 199.292 358.332 198.239 358.332 197.794C358.332 197.021 358.496 196.199 358.825 195.329C359.173 194.459 359.608 193.705 360.13 193.067C360.459 192.622 361.048 192.245 361.899 191.936C362.75 191.607 363.523 191.443 364.219 191.443C365.572 191.443 366.723 191.704 367.67 192.226C368.617 192.729 369.41 193.55 370.048 194.691ZM367.525 199.36C367.622 199.109 367.67 198.461 367.67 197.417C367.67 196.856 367.564 196.305 367.351 195.764C367.158 195.223 366.868 194.759 366.481 194.372C366.442 194.333 366.336 194.275 366.162 194.198C365.988 194.101 365.746 194.014 365.437 193.937C365.147 193.84 364.809 193.792 364.422 193.792C363.339 193.792 362.547 194.227 362.044 195.097C361.541 195.967 361.29 196.953 361.29 198.055C361.29 198.248 361.338 198.616 361.435 199.157C361.551 199.698 361.648 200.037 361.725 200.172C361.783 200.307 361.928 200.501 362.16 200.752C362.411 200.984 362.711 201.197 363.059 201.39C363.426 201.564 363.803 201.651 364.19 201.651C365.06 201.651 365.756 201.448 366.278 201.042C366.8 200.617 367.216 200.056 367.525 199.36ZM378.276 202.84C378.276 203.169 378.15 203.459 377.899 203.71C377.647 203.961 377.338 204.087 376.971 204.087C376.391 204.087 375.965 203.981 375.695 203.768C375.424 203.536 375.289 203.12 375.289 202.521C375.289 201.806 375.269 200.868 375.231 199.708C375.192 198.741 375.173 197.929 375.173 197.272C375.173 196.963 375.192 196.557 375.231 196.054C375.269 195.59 375.289 195.242 375.289 195.01C375.231 194.643 375.086 194.343 374.854 194.111C374.622 193.86 374.322 193.734 373.955 193.734C373.781 193.734 373.636 193.657 373.52 193.502C373.404 193.328 373.346 193.154 373.346 192.98C373.346 192.535 373.52 192.197 373.868 191.965C374.235 191.733 374.67 191.617 375.173 191.617C376.217 191.617 376.942 192.236 377.348 193.473C377.85 192.893 378.421 192.429 379.059 192.081C379.716 191.714 380.344 191.53 380.944 191.53C381.659 191.53 382.307 191.723 382.887 192.11C383.486 192.497 383.786 193.019 383.786 193.676C383.786 194.043 383.621 194.42 383.293 194.807C382.983 195.194 382.664 195.387 382.336 195.387C382.162 195.387 382.007 195.348 381.872 195.271C381.756 195.174 381.611 195.039 381.437 194.865C381.243 194.672 381.079 194.536 380.944 194.459C380.808 194.362 380.654 194.314 380.48 194.314C380.17 194.314 379.88 194.362 379.61 194.459C379.339 194.556 379.155 194.672 379.059 194.807C378.749 195.29 378.517 195.725 378.363 196.112C378.227 196.499 378.16 196.914 378.16 197.359C378.16 197.688 378.15 197.949 378.131 198.142L378.102 199.795C378.102 200.046 378.111 200.327 378.131 200.636C378.15 200.945 378.169 201.177 378.189 201.332C378.247 201.854 378.276 202.357 378.276 202.84Z" fill="#818181"/>
<path d="M293.449 270.583V244.518H301.574V247.793H297.692V267.298H301.574V270.583H293.449ZM321.144 253.714V257.195H311.526V253.714H321.144ZM324.537 266V262.787L332.044 255.836C332.683 255.218 333.218 254.662 333.651 254.167C334.09 253.673 334.423 253.189 334.65 252.715C334.876 252.235 334.99 251.716 334.99 251.16C334.99 250.542 334.849 250.01 334.567 249.564C334.286 249.111 333.901 248.764 333.414 248.524C332.926 248.277 332.374 248.153 331.756 248.153C331.111 248.153 330.548 248.283 330.067 248.544C329.586 248.805 329.216 249.179 328.955 249.667C328.694 250.154 328.563 250.734 328.563 251.407H324.331C324.331 250.027 324.643 248.829 325.268 247.813C325.893 246.797 326.768 246.011 327.894 245.455C329.02 244.899 330.318 244.621 331.787 244.621C333.297 244.621 334.612 244.888 335.731 245.424C336.857 245.953 337.732 246.687 338.357 247.628C338.982 248.568 339.294 249.646 339.294 250.862C339.294 251.658 339.136 252.444 338.821 253.22C338.512 253.996 337.959 254.857 337.163 255.805C336.366 256.745 335.244 257.875 333.795 259.193L330.716 262.21V262.354H339.572V266H324.537ZM347.903 263.116L347.789 264.249C347.7 265.156 347.529 266.058 347.275 266.958C347.027 267.864 346.766 268.684 346.492 269.419C346.224 270.154 346.008 270.73 345.843 271.149H343.001C343.104 270.744 343.244 270.178 343.423 269.45C343.601 268.729 343.77 267.919 343.928 267.02C344.085 266.12 344.185 265.204 344.226 264.27L344.278 263.116H347.903ZM368.07 253.714V257.195H358.451V253.714H368.07ZM371.462 266V262.787L378.97 255.836C379.608 255.218 380.144 254.662 380.576 254.167C381.016 253.673 381.349 253.189 381.575 252.715C381.802 252.235 381.915 251.716 381.915 251.16C381.915 250.542 381.774 250.01 381.493 249.564C381.211 249.111 380.827 248.764 380.34 248.524C379.852 248.277 379.299 248.153 378.682 248.153C378.036 248.153 377.473 248.283 376.993 248.544C376.512 248.805 376.141 249.179 375.88 249.667C375.62 250.154 375.489 250.734 375.489 251.407H371.256C371.256 250.027 371.569 248.829 372.194 247.813C372.818 246.797 373.694 246.011 374.82 245.455C375.946 244.899 377.243 244.621 378.712 244.621C380.223 244.621 381.538 244.888 382.657 245.424C383.783 245.953 384.658 246.687 385.283 247.628C385.908 248.568 386.22 249.646 386.22 250.862C386.22 251.658 386.062 252.444 385.746 253.22C385.437 253.996 384.885 254.857 384.088 255.805C383.292 256.745 382.169 257.875 380.721 259.193L377.641 262.21V262.354H386.498V266H371.462ZM394.828 263.116L394.715 264.249C394.626 265.156 394.454 266.058 394.2 266.958C393.953 267.864 393.692 268.684 393.417 269.419C393.15 270.154 392.933 270.73 392.769 271.149H389.926C390.029 270.744 390.17 270.178 390.349 269.45C390.527 268.729 390.695 267.919 390.853 267.02C391.011 266.12 391.111 265.204 391.152 264.27L391.203 263.116H394.828ZM414.996 253.714V257.195H405.377V253.714H414.996ZM428.159 244.909V266H423.699V249.142H423.576L418.746 252.169V248.215L423.967 244.909H428.159ZM447.548 242.427V268.492H439.423V265.207H443.306V245.702H439.423V242.427H447.548Z" fill="black"/>
<rect x="106" y="200" width="13" height="110" rx="1" fill="#E04343"/>
<path d="M111.121 179.625C111.499 178.926 112.501 178.926 112.879 179.625L124.191 200.524C124.552 201.19 124.07 202 123.312 202H100.688C99.9303 202 99.4479 201.19 99.8085 200.524L111.121 179.625Z" fill="#E04343"/>
<g filter="url(#filter0_dd_1216_1903)">
<rect x="12" y="243" width="55.1857" height="55.1857" rx="3" fill="white"/>
<rect x="12" y="243" width="55.1857" height="55.1857" rx="3" stroke="white" stroke-width="2"/>
<rect x="12" y="243" width="55.1857" height="55.1857" rx="3" stroke="#454545" stroke-opacity="0.2" stroke-width="2"/>
<rect x="67.4277" y="243" width="55.1857" height="55.1857" rx="3" fill="white"/>
<rect x="67.4277" y="243" width="55.1857" height="55.1857" rx="3" stroke="white" stroke-width="2"/>
<rect x="67.4277" y="243" width="55.1857" height="55.1857" rx="3" stroke="#454545" stroke-opacity="0.2" stroke-width="2"/>
<rect x="122.854" y="243" width="55.1857" height="55.1857" rx="3" fill="white"/>
<rect x="122.854" y="243" width="55.1857" height="55.1857" rx="3" stroke="white" stroke-width="2"/>
<rect x="122.854" y="243" width="55.1857" height="55.1857" rx="3" stroke="#454545" stroke-opacity="0.2" stroke-width="2"/>
<rect x="12" y="298.425" width="55.1857" height="55.1857" rx="3" fill="white"/>
<rect x="12" y="298.425" width="55.1857" height="55.1857" rx="3" stroke="white" stroke-width="2"/>
<rect x="12" y="298.425" width="55.1857" height="55.1857" rx="3" stroke="#454545" stroke-opacity="0.2" stroke-width="2"/>
<rect x="67.4277" y="298.425" width="55.1857" height="55.1857" rx="3" fill="white"/>
<rect x="67.4277" y="298.425" width="55.1857" height="55.1857" rx="3" stroke="white" stroke-width="2"/>
<rect x="67.4277" y="298.425" width="55.1857" height="55.1857" rx="3" stroke="#454545" stroke-opacity="0.2" stroke-width="2"/>
<rect x="122.854" y="298.425" width="55.1857" height="55.1857" rx="3" fill="white"/>
<rect x="122.854" y="298.425" width="55.1857" height="55.1857" rx="3" stroke="white" stroke-width="2"/>
<rect x="122.854" y="298.425" width="55.1857" height="55.1857" rx="3" stroke="#454545" stroke-opacity="0.2" stroke-width="2"/>
<rect x="12" y="353.852" width="55.1857" height="55.1857" rx="3" fill="white"/>
<rect x="12" y="353.852" width="55.1857" height="55.1857" rx="3" stroke="white" stroke-width="2"/>
<rect x="12" y="353.852" width="55.1857" height="55.1857" rx="3" stroke="#454545" stroke-opacity="0.2" stroke-width="2"/>
<rect x="67.4277" y="353.852" width="55.1857" height="55.1857" rx="3" fill="white"/>
<rect x="67.4277" y="353.852" width="55.1857" height="55.1857" rx="3" stroke="white" stroke-width="2"/>
<rect x="67.4277" y="353.852" width="55.1857" height="55.1857" rx="3" stroke="#454545" stroke-opacity="0.2" stroke-width="2"/>
<rect x="122.854" y="353.852" width="55.1857" height="55.1857" rx="3" fill="white"/>
<rect x="122.854" y="353.852" width="55.1857" height="55.1857" rx="3" stroke="white" stroke-width="2"/>
<rect x="122.854" y="353.852" width="55.1857" height="55.1857" rx="3" stroke="#454545" stroke-opacity="0.2" stroke-width="2"/>
</g>
<defs>
<filter id="filter0_dd_1216_1903" x="0" y="235" width="190.039" height="190.037" filterUnits="userSpaceOnUse" color-interpolation-filters="sRGB">
<feFlood flood-opacity="0" result="BackgroundImageFix"/>
<feColorMatrix in="SourceAlpha" type="matrix" values="0 0 0 0 0 0 0 0 0 0 0 0 0 0 0 0 0 0 127 0" result="hardAlpha"/>
<feOffset dy="1"/>
<feGaussianBlur stdDeviation="1.5"/>
<feColorMatrix type="matrix" values="0 0 0 0 0 0 0 0 0 0 0 0 0 0 0 0 0 0 0.3 0"/>
<feBlend mode="normal" in2="BackgroundImageFix" result="effect1_dropShadow_1216_1903"/>
<feColorMatrix in="SourceAlpha" type="matrix" values="0 0 0 0 0 0 0 0 0 0 0 0 0 0 0 0 0 0 127 0" result="hardAlpha"/>
<feMorphology radius="3" operator="dilate" in="SourceAlpha" result="effect2_dropShadow_1216_1903"/>
<feOffset dy="4"/>
<feGaussianBlur stdDeviation="4"/>
<feColorMatrix type="matrix" values="0 0 0 0 0 0 0 0 0 0 0 0 0 0 0 0 0 0 0.15 0"/>
<feBlend mode="normal" in2="effect1_dropShadow_1216_1903" result="effect2_dropShadow_1216_1903"/>
<feBlend mode="normal" in="SourceGraphic" in2="effect2_dropShadow_1216_1903" result="shape"/>
</filter>
</defs>
</svg>
