<svg width="446" height="166" viewBox="0 0 446 166" fill="none" xmlns="http://www.w3.org/2000/svg">
<rect x="290.225" y="24.4321" width="38.5455" height="38.5455" rx="3" fill="#F1F8FF"/>
<rect x="290.225" y="24.4321" width="38.5455" height="38.5455" rx="3" stroke="white" stroke-width="2"/>
<rect x="290.225" y="24.4321" width="38.5455" height="38.5455" rx="3" stroke="#454545" stroke-opacity="0.42" stroke-width="2"/>
<rect x="328.969" y="24.4321" width="38.5455" height="38.5455" rx="3" fill="#F1F8FF"/>
<rect x="328.969" y="24.4321" width="38.5455" height="38.5455" rx="3" stroke="white" stroke-width="2"/>
<rect x="328.969" y="24.4321" width="38.5455" height="38.5455" rx="3" stroke="#454545" stroke-opacity="0.42" stroke-width="2"/>
<rect x="367.711" y="24.4321" width="38.5455" height="38.5455" rx="3" fill="#F1F8FF"/>
<rect x="367.711" y="24.4321" width="38.5455" height="38.5455" rx="3" stroke="white" stroke-width="2"/>
<rect x="367.711" y="24.4321" width="38.5455" height="38.5455" rx="3" stroke="#454545" stroke-opacity="0.42" stroke-width="2"/>
<rect x="290.225" y="63.1758" width="38.5455" height="38.5455" rx="3" fill="#F1F8FF"/>
<rect x="290.225" y="63.1758" width="38.5455" height="38.5455" rx="3" stroke="white" stroke-width="2"/>
<rect x="290.225" y="63.1758" width="38.5455" height="38.5455" rx="3" stroke="#454545" stroke-opacity="0.42" stroke-width="2"/>
<rect x="328.969" y="63.1758" width="38.5455" height="38.5455" rx="3" fill="#F1F8FF"/>
<rect x="328.969" y="63.1758" width="38.5455" height="38.5455" rx="3" stroke="white" stroke-width="2"/>
<rect x="328.969" y="63.1758" width="38.5455" height="38.5455" rx="3" stroke="#454545" stroke-opacity="0.42" stroke-width="2"/>
<rect x="367.711" y="63.1758" width="38.5455" height="38.5455" rx="3" fill="#F1F8FF"/>
<rect x="367.711" y="63.1758" width="38.5455" height="38.5455" rx="3" stroke="white" stroke-width="2"/>
<rect x="367.711" y="63.1758" width="38.5455" height="38.5455" rx="3" stroke="#454545" stroke-opacity="0.42" stroke-width="2"/>
<rect x="290.225" y="101.919" width="38.5455" height="38.5455" rx="3" fill="#BCE5FF"/>
<rect x="290.225" y="101.919" width="38.5455" height="38.5455" rx="3" stroke="white" stroke-width="2"/>
<rect x="290.225" y="101.919" width="38.5455" height="38.5455" rx="3" stroke="#454545" stroke-opacity="0.42" stroke-width="2"/>
<rect x="328.969" y="101.919" width="38.5455" height="38.5455" rx="3" fill="#BCE5FF"/>
<rect x="328.969" y="101.919" width="38.5455" height="38.5455" rx="3" stroke="white" stroke-width="2"/>
<rect x="328.969" y="101.919" width="38.5455" height="38.5455" rx="3" stroke="#454545" stroke-opacity="0.42" stroke-width="2"/>
<rect x="367.711" y="101.919" width="38.5455" height="38.5455" rx="3" fill="#BCE5FF"/>
<rect x="367.711" y="101.919" width="38.5455" height="38.5455" rx="3" stroke="white" stroke-width="2"/>
<rect x="367.711" y="101.919" width="38.5455" height="38.5455" rx="3" stroke="#454545" stroke-opacity="0.42" stroke-width="2"/>
<rect x="406.455" y="24.4321" width="38.5455" height="38.5455" rx="3" fill="#F1F8FF"/>
<rect x="406.455" y="24.4321" width="38.5455" height="38.5455" rx="3" stroke="white" stroke-width="2"/>
<rect x="406.455" y="24.4321" width="38.5455" height="38.5455" rx="3" stroke="#454545" stroke-opacity="0.42" stroke-width="2"/>
<rect x="406.455" y="63.1758" width="38.5455" height="38.5455" rx="3" fill="#F1F8FF"/>
<rect x="406.455" y="63.1758" width="38.5455" height="38.5455" rx="3" stroke="white" stroke-width="2"/>
<rect x="406.455" y="63.1758" width="38.5455" height="38.5455" rx="3" stroke="#454545" stroke-opacity="0.42" stroke-width="2"/>
<rect x="406.455" y="101.919" width="38.5455" height="38.5455" rx="3" fill="#BCE5FF"/>
<rect x="406.455" y="101.919" width="38.5455" height="38.5455" rx="3" stroke="white" stroke-width="2"/>
<rect x="406.455" y="101.919" width="38.5455" height="38.5455" rx="3" stroke="#454545" stroke-opacity="0.42" stroke-width="2"/>
<path d="M311.977 38.9956V53.541H309.342V41.5595H309.257L305.855 43.7328V41.318L309.47 38.9956H311.977Z" fill="black"/>
<path d="M420.173 50.8422V48.747L426.345 38.9956H428.092V41.9785H427.026L422.872 48.5623V48.676H431.487V50.8422H420.173ZM427.112 53.541V50.2029L427.14 49.2654V38.9956H429.626V53.541H427.112Z" fill="black"/>
<path d="M387.058 53.7399C386.035 53.7399 385.126 53.5647 384.331 53.2143C383.54 52.8639 382.915 52.3762 382.456 51.7512C381.997 51.1262 381.753 50.4042 381.724 49.585H384.395C384.418 49.978 384.549 50.3213 384.785 50.6149C385.022 50.9037 385.337 51.1286 385.73 51.2896C386.123 51.4506 386.563 51.5311 387.051 51.5311C387.572 51.5311 388.033 51.4411 388.436 51.2612C388.838 51.0765 389.153 50.8208 389.381 50.4941C389.608 50.1674 389.719 49.791 389.714 49.3649C389.719 48.9245 389.605 48.5363 389.373 48.2001C389.141 47.8639 388.805 47.6011 388.365 47.4118C387.929 47.2224 387.404 47.1277 386.788 47.1277H385.503V45.0964H386.788C387.295 45.0964 387.738 45.0088 388.116 44.8336C388.5 44.6584 388.801 44.4122 389.018 44.095C389.236 43.773 389.343 43.4013 389.338 42.9799C389.343 42.568 389.25 42.2105 389.061 41.9075C388.876 41.5997 388.613 41.3606 388.273 41.1902C387.936 41.0197 387.541 40.9345 387.086 40.9345C386.641 40.9345 386.229 41.015 385.851 41.176C385.472 41.3369 385.167 41.5666 384.935 41.8649C384.702 42.1584 384.579 42.5088 384.565 42.916H382.03C382.049 42.1016 382.283 41.3867 382.733 40.7711C383.187 40.1509 383.793 39.6679 384.551 39.3223C385.309 38.9719 386.158 38.7967 387.101 38.7967C388.071 38.7967 388.914 38.979 389.629 39.3436C390.349 39.7034 390.905 40.1887 391.298 40.7995C391.691 41.4103 391.888 42.085 391.888 42.8237C391.892 43.6428 391.651 44.3294 391.163 44.8833C390.68 45.4373 390.046 45.7995 389.26 45.97V46.0836C390.283 46.2257 391.066 46.6045 391.611 47.22C392.16 47.8308 392.432 48.5907 392.427 49.4998C392.427 50.3142 392.195 51.0434 391.731 51.6873C391.272 52.3265 390.638 52.8284 389.828 53.193C389.023 53.5576 388.1 53.7399 387.058 53.7399Z" fill="black"/>
<path d="M343.397 53.541V51.6376L348.446 46.6873C348.929 46.1996 349.332 45.7664 349.654 45.3876C349.976 45.0088 350.217 44.6419 350.378 44.2868C350.539 43.9316 350.62 43.5529 350.62 43.1504C350.62 42.6911 350.515 42.2981 350.307 41.9714C350.099 41.64 349.812 41.3843 349.448 41.2044C349.083 41.0244 348.669 40.9345 348.205 40.9345C347.727 40.9345 347.307 41.0339 346.948 41.2328C346.588 41.4269 346.308 41.7039 346.11 42.0637C345.915 42.4236 345.818 42.8521 345.818 43.3493H343.311C343.311 42.426 343.522 41.6234 343.943 40.9416C344.365 40.2598 344.945 39.7318 345.683 39.3578C346.427 38.9837 347.279 38.7967 348.24 38.7967C349.216 38.7967 350.073 38.979 350.811 39.3436C351.55 39.7082 352.123 40.2077 352.53 40.8422C352.942 41.4766 353.148 42.2011 353.148 43.0154C353.148 43.56 353.044 44.095 352.835 44.6206C352.627 45.1461 352.26 45.7285 351.735 46.3677C351.214 47.0069 350.482 47.7811 349.54 48.6902L347.033 51.2399V51.3393H353.368V53.541H343.397Z" fill="black"/>
<path d="M311.977 115.581V130.127H309.342V118.145H309.257L305.855 120.319V117.904L309.47 115.581H311.977Z" fill="black"/>
<path d="M420.173 127.428V125.333L426.345 115.581H428.092V118.564H427.026L422.872 125.148V125.262H431.487V127.428H420.173ZM427.112 130.127V126.789L427.14 125.851V115.581H429.626V130.127H427.112Z" fill="black"/>
<path d="M387.058 130.326C386.035 130.326 385.126 130.151 384.331 129.8C383.54 129.45 382.915 128.962 382.456 128.337C381.997 127.712 381.753 126.99 381.724 126.171H384.395C384.418 126.564 384.549 126.907 384.785 127.201C385.022 127.49 385.337 127.715 385.73 127.876C386.123 128.037 386.563 128.117 387.051 128.117C387.572 128.117 388.033 128.027 388.436 127.847C388.838 127.662 389.153 127.407 389.381 127.08C389.608 126.753 389.719 126.377 389.714 125.951C389.719 125.51 389.605 125.122 389.373 124.786C389.141 124.45 388.805 124.187 388.365 123.998C387.929 123.808 387.404 123.714 386.788 123.714H385.503V121.682H386.788C387.295 121.682 387.738 121.595 388.116 121.42C388.5 121.244 388.801 120.998 389.018 120.681C389.236 120.359 389.343 119.987 389.338 119.566C389.343 119.154 389.25 118.796 389.061 118.493C388.876 118.186 388.613 117.947 388.273 117.776C387.936 117.606 387.541 117.52 387.086 117.52C386.641 117.52 386.229 117.601 385.851 117.762C385.472 117.923 385.167 118.153 384.935 118.451C384.702 118.744 384.579 119.095 384.565 119.502H382.03C382.049 118.688 382.283 117.973 382.733 117.357C383.187 116.737 383.793 116.254 384.551 115.908C385.309 115.558 386.158 115.383 387.101 115.383C388.071 115.383 388.914 115.565 389.629 115.93C390.349 116.289 390.905 116.775 391.298 117.385C391.691 117.996 391.888 118.671 391.888 119.41C391.892 120.229 391.651 120.915 391.163 121.469C390.68 122.023 390.046 122.385 389.26 122.556V122.67C390.283 122.812 391.066 123.19 391.611 123.806C392.16 124.417 392.432 125.177 392.427 126.086C392.427 126.9 392.195 127.629 391.731 128.273C391.272 128.912 390.638 129.414 389.828 129.779C389.023 130.144 388.1 130.326 387.058 130.326Z" fill="black"/>
<path d="M343.397 130.127V128.224L348.446 123.273C348.929 122.786 349.332 122.352 349.654 121.974C349.976 121.595 350.217 121.228 350.378 120.873C350.539 120.518 350.62 120.139 350.62 119.736C350.62 119.277 350.515 118.884 350.307 118.557C350.099 118.226 349.812 117.97 349.448 117.79C349.083 117.61 348.669 117.52 348.205 117.52C347.727 117.52 347.307 117.62 346.948 117.819C346.588 118.013 346.308 118.29 346.11 118.65C345.915 119.01 345.818 119.438 345.818 119.935H343.311C343.311 119.012 343.522 118.209 343.943 117.528C344.365 116.846 344.945 116.318 345.683 115.944C346.427 115.57 347.279 115.383 348.24 115.383C349.216 115.383 350.073 115.565 350.811 115.93C351.55 116.294 352.123 116.794 352.53 117.428C352.942 118.063 353.148 118.787 353.148 119.601C353.148 120.146 353.044 120.681 352.835 121.206C352.627 121.732 352.26 122.314 351.735 122.954C351.214 123.593 350.482 124.367 349.54 125.276L347.033 127.826V127.925H353.368V130.127H343.397Z" fill="black"/>
<path d="M311.977 77.7392V92.2847H309.342V80.3031H309.257L305.855 82.4764V80.0617L309.47 77.7392H311.977Z" fill="black"/>
<path d="M420.173 89.5858V87.4906L426.345 77.7392H428.092V80.7222H427.026L422.872 87.306V87.4196H431.487V89.5858H420.173ZM427.112 92.2847V88.9466L427.14 88.0091V77.7392H429.626V92.2847H427.112Z" fill="black"/>
<path d="M387.058 92.4835C386.035 92.4835 385.126 92.3083 384.331 91.958C383.54 91.6076 382.915 91.1199 382.456 90.4949C381.997 89.8699 381.753 89.1478 381.724 88.3287H384.395C384.418 88.7217 384.549 89.065 384.785 89.3585C385.022 89.6474 385.337 89.8723 385.73 90.0332C386.123 90.1942 386.563 90.2747 387.051 90.2747C387.572 90.2747 388.033 90.1848 388.436 90.0048C388.838 89.8202 389.153 89.5645 389.381 89.2378C389.608 88.9111 389.719 88.5347 389.714 88.1085C389.719 87.6682 389.605 87.2799 389.373 86.9438C389.141 86.6076 388.805 86.3448 388.365 86.1554C387.929 85.966 387.404 85.8713 386.788 85.8713H385.503V83.8401H386.788C387.295 83.8401 387.738 83.7525 388.116 83.5773C388.5 83.4021 388.801 83.1559 389.018 82.8386C389.236 82.5167 389.343 82.145 389.338 81.7236C389.343 81.3117 389.25 80.9542 389.061 80.6511C388.876 80.3434 388.613 80.1043 388.273 79.9338C387.936 79.7634 387.541 79.6781 387.086 79.6781C386.641 79.6781 386.229 79.7586 385.851 79.9196C385.472 80.0806 385.167 80.3102 384.935 80.6085C384.702 80.9021 384.579 81.2525 384.565 81.6597H382.03C382.049 80.8453 382.283 80.1303 382.733 79.5148C383.187 78.8945 383.793 78.4116 384.551 78.0659C385.309 77.7155 386.158 77.5403 387.101 77.5403C388.071 77.5403 388.914 77.7226 389.629 78.0872C390.349 78.4471 390.905 78.9324 391.298 79.5432C391.691 80.154 391.888 80.8287 391.888 81.5673C391.892 82.3865 391.651 83.073 391.163 83.627C390.68 84.181 390.046 84.5432 389.26 84.7136V84.8273C390.283 84.9693 391.066 85.3481 391.611 85.9636C392.16 86.5744 392.432 87.3344 392.427 88.2435C392.427 89.0579 392.195 89.787 391.731 90.431C391.272 91.0702 390.638 91.5721 389.828 91.9367C389.023 92.3012 388.1 92.4835 387.058 92.4835Z" fill="black"/>
<path d="M343.397 92.2847V90.3813L348.446 85.431C348.929 84.9433 349.332 84.51 349.654 84.1313C349.976 83.7525 350.217 83.3855 350.378 83.0304C350.539 82.6753 350.62 82.2965 350.62 81.894C350.62 81.4348 350.515 81.0418 350.307 80.7151C350.099 80.3836 349.812 80.1279 349.448 79.948C349.083 79.7681 348.669 79.6781 348.205 79.6781C347.727 79.6781 347.307 79.7776 346.948 79.9764C346.588 80.1706 346.308 80.4475 346.11 80.8074C345.915 81.1672 345.818 81.5957 345.818 82.0929H343.311C343.311 81.1696 343.522 80.3671 343.943 79.6852C344.365 79.0034 344.945 78.4755 345.683 78.1014C346.427 77.7274 347.279 77.5403 348.24 77.5403C349.216 77.5403 350.073 77.7226 350.811 78.0872C351.55 78.4518 352.123 78.9513 352.53 79.5858C352.942 80.2203 353.148 80.9447 353.148 81.7591C353.148 82.3036 353.044 82.8386 352.835 83.3642C352.627 83.8898 352.26 84.4722 351.735 85.1114C351.214 85.7506 350.482 86.5247 349.54 87.4338L347.033 89.9835V90.083H353.368V92.2847H343.397Z" fill="black"/>
<rect width="13" height="63" rx="2" transform="matrix(-4.37114e-08 -1 -1 4.37114e-08 249 90)" fill="#E04343"/>
<path d="M269.375 84.8794C270.074 84.5013 270.074 83.4987 269.375 83.1206L248.476 71.8085C247.81 71.4479 247 71.9303 247 72.688L247 95.312C247 96.0697 247.81 96.5521 248.476 96.1915L269.375 84.8794Z" fill="#E04343"/>
<path d="M197.573 52.575C197.623 52.4417 197.798 51.9583 198.098 51.125C198.414 50.2917 198.706 49.6583 198.973 49.225C199.406 48.5417 199.789 48.2 200.123 48.2C200.589 48.2 200.948 48.2917 201.198 48.475C201.448 48.6417 201.573 48.8833 201.573 49.2C201.573 49.35 201.506 49.5583 201.373 49.825C201.256 50.0917 201.189 50.25 201.173 50.3C200.506 51.7667 199.906 53.3417 199.373 55.025L198.848 56.975C198.648 57.6083 198.306 58.125 197.823 58.525C197.339 58.9083 196.773 59.1 196.123 59.1C195.539 59.1 194.998 58.8333 194.498 58.3C194.198 57.8333 193.881 57.2417 193.548 56.525C193.231 55.8083 192.956 55.1083 192.723 54.425L191.848 51.8C191.664 51.2833 191.514 50.8417 191.398 50.475C191.298 50.1083 191.248 49.775 191.248 49.475C191.231 49.125 191.331 48.8417 191.548 48.625C191.764 48.4083 192.064 48.3 192.448 48.3C192.881 48.3 193.189 48.3917 193.373 48.575C193.556 48.7417 193.723 49.0083 193.873 49.375C193.939 49.7583 194.123 50.5417 194.423 51.725L194.598 52.425C194.748 52.9917 194.939 53.5667 195.173 54.15C195.406 54.7333 195.639 55.2917 195.873 55.825C195.839 55.7417 195.956 56.0167 196.223 56.65C196.389 56.1667 196.581 55.575 196.798 54.875L197.573 52.575ZM210.845 53.6C210.978 53.6833 211.237 53.8417 211.62 54.075C212.02 54.2917 212.287 54.55 212.42 54.85C212.553 55.15 212.62 55.5667 212.62 56.1C212.62 56.7 212.445 57.2333 212.095 57.7C211.745 58.15 211.295 58.5 210.745 58.75C210.362 58.9167 209.945 59.0167 209.495 59.05C209.062 59.0833 208.537 59.1 207.92 59.1C207.587 59.1 207.153 59.05 206.62 58.95C206.103 58.85 205.745 58.7583 205.545 58.675C205.012 58.375 204.562 58.025 204.195 57.625C203.828 57.225 203.645 56.8167 203.645 56.4C203.645 56.0667 203.753 55.8 203.97 55.6C204.187 55.4 204.47 55.3 204.82 55.3C205.003 55.3 205.178 55.35 205.345 55.45C205.528 55.5333 205.653 55.6333 205.72 55.75C205.903 56.1833 206.212 56.5083 206.645 56.725C207.078 56.9417 207.52 57.05 207.97 57.05C209.553 57.05 210.345 56.7667 210.345 56.2C210.345 56.05 210.303 55.9333 210.22 55.85C210.153 55.75 210.053 55.65 209.92 55.55C209.703 55.4 209.395 55.2417 208.995 55.075C208.612 54.9083 208.27 54.7833 207.97 54.7C207.287 54.55 206.62 54.325 205.97 54.025C205.37 53.725 204.878 53.3333 204.495 52.85C204.112 52.35 203.92 51.7417 203.92 51.025C203.92 50.5917 204.078 50.1667 204.395 49.75C204.728 49.3167 205.112 48.9917 205.545 48.775C205.845 48.6583 206.337 48.5333 207.02 48.4C207.703 48.2667 208.17 48.2 208.42 48.2C208.803 48.2 209.22 48.2417 209.67 48.325C210.12 48.3917 210.462 48.5083 210.695 48.675C211.145 48.9417 211.512 49.225 211.795 49.525C212.078 49.8083 212.22 50.1333 212.22 50.5C212.22 50.6833 212.178 50.8833 212.095 51.1C212.012 51.3 211.912 51.425 211.795 51.475C211.545 51.5917 211.253 51.65 210.92 51.65C210.77 51.65 210.645 51.6083 210.545 51.525C210.462 51.4417 210.345 51.3083 210.195 51.125C210.012 50.8417 209.837 50.675 209.67 50.625C209.47 50.575 209.178 50.5167 208.795 50.45C208.412 50.3667 208.153 50.325 208.02 50.325C207.603 50.325 207.203 50.4083 206.82 50.575C206.453 50.7417 206.27 50.9667 206.27 51.25C206.27 51.5833 206.545 51.8667 207.095 52.1C207.445 52.2667 207.828 52.4083 208.245 52.525C208.678 52.6417 208.945 52.7167 209.045 52.75C209.278 52.8 209.578 52.9167 209.945 53.1C210.328 53.2833 210.628 53.45 210.845 53.6ZM215.528 50.35C215.294 50.3167 215.103 50.2167 214.953 50.05C214.819 49.8833 214.753 49.6833 214.753 49.45C214.753 49.3333 214.778 49.2083 214.828 49.075C214.894 48.9417 214.986 48.825 215.103 48.725C215.319 48.5417 215.611 48.3667 215.978 48.2C216.361 48.05 216.636 47.8667 216.803 47.65C216.969 47.4333 217.053 47.025 217.053 46.425C217.053 46.175 217.036 45.9583 217.003 45.775C216.986 45.5917 216.978 45.45 216.978 45.35C216.978 44.9833 217.111 44.7083 217.378 44.525C217.644 44.3417 217.953 44.25 218.303 44.25C218.736 44.25 219.028 44.3583 219.178 44.575C219.344 44.7917 219.428 45.1917 219.428 45.775C219.428 46.3417 219.403 46.8333 219.353 47.25C219.303 47.65 219.194 48.0083 219.028 48.325C219.261 48.325 219.644 48.3083 220.178 48.275C220.911 48.2417 221.419 48.225 221.703 48.225C221.986 48.225 222.236 48.3 222.453 48.45C222.669 48.5833 222.778 48.775 222.778 49.025C222.778 49.375 222.703 49.6333 222.553 49.8C222.403 49.9667 222.186 50.075 221.903 50.125C221.219 50.3083 220.253 50.4167 219.003 50.45C218.969 51.1 218.953 51.8083 218.953 52.575C218.953 53.8583 219.028 54.8417 219.178 55.525C219.278 56.0583 219.444 56.45 219.678 56.7C219.928 56.9333 220.294 57.05 220.778 57.05C221.028 57.05 221.228 57.0167 221.378 56.95C221.544 56.8833 221.636 56.8417 221.653 56.825C221.853 56.7083 222.036 56.65 222.203 56.65C222.436 56.65 222.603 56.725 222.703 56.875C222.819 57.025 222.878 57.225 222.878 57.475C222.878 57.9417 222.628 58.3333 222.128 58.65C221.628 58.95 220.986 59.1 220.203 59.1C219.319 59.1 218.569 58.8417 217.953 58.325C217.353 57.7917 216.994 57.0917 216.878 56.225C216.711 55.4417 216.628 54.3417 216.628 52.925C216.628 52.3083 216.661 51.4833 216.728 50.45L215.528 50.35ZM236.752 57.8C236.752 58.1667 236.552 58.475 236.152 58.725C235.769 58.975 235.411 59.1 235.077 59.1C234.444 59.1 233.936 59.025 233.552 58.875C233.186 58.7083 232.844 58.4083 232.527 57.975C232.094 58.3583 231.502 58.65 230.752 58.85C230.002 59.0333 229.311 59.125 228.677 59.125C227.644 59.125 226.794 58.85 226.127 58.3C225.461 57.7333 225.127 56.9083 225.127 55.825C225.127 55.3583 225.252 54.9333 225.502 54.55C225.752 54.15 226.094 53.8 226.527 53.5C227.011 53.1833 227.561 52.9417 228.177 52.775C228.794 52.5917 229.436 52.5 230.102 52.5C230.452 52.5 230.869 52.5667 231.352 52.7C231.836 52.8333 232.211 52.975 232.477 53.125V52.725C232.477 51.825 232.261 51.2083 231.827 50.875C231.394 50.525 230.694 50.35 229.727 50.35C229.444 50.35 229.161 50.4083 228.877 50.525C228.611 50.6417 228.302 50.8 227.952 51C227.486 51.25 227.044 51.375 226.627 51.375C226.477 51.375 226.336 51.275 226.202 51.075C226.069 50.8583 226.002 50.6667 226.002 50.5C226.002 50.0167 226.227 49.6 226.677 49.25C227.144 48.9 227.694 48.6417 228.327 48.475C228.961 48.2917 229.527 48.2 230.027 48.2C230.527 48.2 231.102 48.3 231.752 48.5C232.402 48.6833 232.936 48.9417 233.352 49.275C233.852 49.7083 234.236 50.2167 234.502 50.8C234.786 51.3667 234.927 51.9917 234.927 52.675C234.927 52.8917 234.911 53.2167 234.877 53.65C234.844 54.1167 234.827 54.5167 234.827 54.85C234.827 55 234.811 55.225 234.777 55.525C234.744 55.8917 234.727 56.1833 234.727 56.4C234.727 56.6 234.802 56.775 234.952 56.925C235.102 57.0583 235.277 57.125 235.477 57.125L236.177 57.1C236.361 57.1 236.502 57.1667 236.602 57.3C236.702 57.4333 236.752 57.6 236.752 57.8ZM228.702 57.15C229.419 57.15 230.019 57.075 230.502 56.925C230.986 56.775 231.569 56.5 232.252 56.1C232.319 55.8167 232.361 55.4417 232.377 54.975C231.461 54.5417 230.702 54.325 230.102 54.325C229.419 54.325 228.811 54.45 228.277 54.7C227.744 54.95 227.477 55.3917 227.477 56.025C227.477 56.3417 227.611 56.6083 227.877 56.825C228.144 57.0417 228.419 57.15 228.702 57.15ZM247.789 50.65C247.789 51.3833 247.414 51.75 246.664 51.75C246.414 51.75 246.206 51.6917 246.039 51.575C245.873 51.4583 245.689 51.2833 245.489 51.05C244.989 50.5 244.556 50.225 244.189 50.225C243.706 50.225 243.231 50.3667 242.764 50.65C242.314 50.9333 241.948 51.3333 241.664 51.85C241.381 52.3667 241.239 52.9417 241.239 53.575C241.239 54.275 241.373 54.8583 241.639 55.325C241.923 55.7917 242.356 56.1917 242.939 56.525C243.156 56.6417 243.406 56.7333 243.689 56.8C243.989 56.8667 244.248 56.9 244.464 56.9C244.948 56.9 245.556 56.7083 246.289 56.325C246.556 56.1917 246.781 56.0917 246.964 56.025C247.148 55.9583 247.339 55.925 247.539 55.925C247.723 55.925 247.931 56.0083 248.164 56.175C248.398 56.3417 248.514 56.55 248.514 56.8C248.514 57.3 248.281 57.725 247.814 58.075C247.348 58.4083 246.773 58.6667 246.089 58.85C245.423 59.0167 244.781 59.1 244.164 59.1C243.181 59.1 242.264 58.875 241.414 58.425C240.581 57.975 239.914 57.3583 239.414 56.575C238.914 55.775 238.664 54.875 238.664 53.875C238.664 52.8083 238.906 51.8333 239.389 50.95C239.873 50.0667 240.523 49.375 241.339 48.875C242.156 48.375 243.048 48.125 244.014 48.125C244.564 48.125 245.131 48.225 245.714 48.425C246.298 48.625 246.789 48.9167 247.189 49.3C247.589 49.6833 247.789 50.1333 247.789 50.65ZM261.158 56.725C261.441 56.9417 261.633 57.15 261.733 57.35C261.833 57.55 261.883 57.8 261.883 58.1C261.883 58.35 261.75 58.5833 261.483 58.8C261.233 59 261 59.1 260.783 59.1C260.6 59.1 260.383 59.0417 260.133 58.925C259.883 58.8083 259.691 58.675 259.558 58.525C259.375 58.375 259.016 58.0083 258.483 57.425C257.966 56.8417 257.583 56.3833 257.333 56.05C256.733 55.3 256.433 54.925 256.433 54.925L255.558 53.85L253.958 55.15L254.058 57.875C254.058 58.325 253.941 58.6417 253.708 58.825C253.491 59.0083 253.275 59.1 253.058 59.1C252.741 59.1 252.458 59.0417 252.208 58.925C251.975 58.8083 251.833 58.675 251.783 58.525C251.6 57.8583 251.508 56.9833 251.508 55.9C251.508 53.8667 251.541 52.2417 251.608 51.025C251.675 49.5083 251.708 48.075 251.708 46.725C251.708 46.3083 251.658 45.7333 251.558 45C251.541 44.85 251.516 44.6083 251.483 44.275C251.45 43.9417 251.433 43.6417 251.433 43.375C251.433 42.9917 251.558 42.6917 251.808 42.475C252.075 42.2583 252.416 42.15 252.833 42.15C253.166 42.15 253.433 42.2583 253.633 42.475C253.85 42.675 253.958 42.9583 253.958 43.325C253.958 43.875 253.975 44.6 254.008 45.5C254.041 46.4 254.058 47.0583 254.058 47.475C254.058 47.9917 254.041 48.6833 254.008 49.55C253.975 50.0167 253.958 50.3667 253.958 50.6C253.958 51.3333 253.966 51.9417 253.983 52.425C254.583 51.8083 255.383 51.0917 256.383 50.275C257.4 49.4417 258.191 48.8583 258.758 48.525C259.391 48.1417 259.775 47.95 259.908 47.95C260.258 47.95 260.558 48.025 260.808 48.175C261.058 48.325 261.183 48.55 261.183 48.85C261.183 49.15 261.141 49.3833 261.058 49.55C260.975 49.7 260.825 49.8583 260.608 50.025L257.383 52.375C258.1 53.2583 258.841 54.1583 259.608 55.075C260.375 55.975 260.891 56.525 261.158 56.725Z" fill="black"/>
<rect x="1" y="1" width="38.5455" height="38.5455" rx="3" fill="#F1F8FF"/>
<rect x="1" y="1" width="38.5455" height="38.5455" rx="3" stroke="white" stroke-width="2"/>
<rect x="1" y="1" width="38.5455" height="38.5455" rx="3" stroke="#454545" stroke-opacity="0.42" stroke-width="2"/>
<rect x="39.7441" y="1" width="38.5455" height="38.5455" rx="3" fill="#F1F8FF"/>
<rect x="39.7441" y="1" width="38.5455" height="38.5455" rx="3" stroke="white" stroke-width="2"/>
<rect x="39.7441" y="1" width="38.5455" height="38.5455" rx="3" stroke="#454545" stroke-opacity="0.42" stroke-width="2"/>
<rect x="78.4863" y="1" width="38.5455" height="38.5455" rx="3" fill="#F1F8FF"/>
<rect x="78.4863" y="1" width="38.5455" height="38.5455" rx="3" stroke="white" stroke-width="2"/>
<rect x="78.4863" y="1" width="38.5455" height="38.5455" rx="3" stroke="#454545" stroke-opacity="0.42" stroke-width="2"/>
<rect x="1" y="39.7437" width="38.5455" height="38.5455" rx="3" fill="#F1F8FF"/>
<rect x="1" y="39.7437" width="38.5455" height="38.5455" rx="3" stroke="white" stroke-width="2"/>
<rect x="1" y="39.7437" width="38.5455" height="38.5455" rx="3" stroke="#454545" stroke-opacity="0.42" stroke-width="2"/>
<rect x="39.7441" y="39.7437" width="38.5455" height="38.5455" rx="3" fill="#F1F8FF"/>
<rect x="39.7441" y="39.7437" width="38.5455" height="38.5455" rx="3" stroke="white" stroke-width="2"/>
<rect x="39.7441" y="39.7437" width="38.5455" height="38.5455" rx="3" stroke="#454545" stroke-opacity="0.42" stroke-width="2"/>
<rect x="78.4863" y="39.7437" width="38.5455" height="38.5455" rx="3" fill="#F1F8FF"/>
<rect x="78.4863" y="39.7437" width="38.5455" height="38.5455" rx="3" stroke="white" stroke-width="2"/>
<rect x="78.4863" y="39.7437" width="38.5455" height="38.5455" rx="3" stroke="#454545" stroke-opacity="0.42" stroke-width="2"/>
<rect x="1" y="126.24" width="38.5455" height="38.5455" rx="3" fill="#BCE5FF"/>
<rect x="1" y="126.24" width="38.5455" height="38.5455" rx="3" stroke="white" stroke-width="2"/>
<rect x="1" y="126.24" width="38.5455" height="38.5455" rx="3" stroke="#454545" stroke-opacity="0.42" stroke-width="2"/>
<rect x="39.7441" y="126.24" width="38.5455" height="38.5455" rx="3" fill="#BCE5FF"/>
<rect x="39.7441" y="126.24" width="38.5455" height="38.5455" rx="3" stroke="white" stroke-width="2"/>
<rect x="39.7441" y="126.24" width="38.5455" height="38.5455" rx="3" stroke="#454545" stroke-opacity="0.42" stroke-width="2"/>
<rect x="78.4863" y="126.24" width="38.5455" height="38.5455" rx="3" fill="#BCE5FF"/>
<rect x="78.4863" y="126.24" width="38.5455" height="38.5455" rx="3" stroke="white" stroke-width="2"/>
<rect x="78.4863" y="126.24" width="38.5455" height="38.5455" rx="3" stroke="#454545" stroke-opacity="0.42" stroke-width="2"/>
<rect x="117.23" y="1" width="38.5455" height="38.5455" rx="3" fill="#F1F8FF"/>
<rect x="117.23" y="1" width="38.5455" height="38.5455" rx="3" stroke="white" stroke-width="2"/>
<rect x="117.23" y="1" width="38.5455" height="38.5455" rx="3" stroke="#454545" stroke-opacity="0.42" stroke-width="2"/>
<rect x="117.23" y="39.7437" width="38.5455" height="38.5455" rx="3" fill="#F1F8FF"/>
<rect x="117.23" y="39.7437" width="38.5455" height="38.5455" rx="3" stroke="white" stroke-width="2"/>
<rect x="117.23" y="39.7437" width="38.5455" height="38.5455" rx="3" stroke="#454545" stroke-opacity="0.42" stroke-width="2"/>
<rect x="117.23" y="126.24" width="38.5455" height="38.5455" rx="3" fill="#BCE5FF"/>
<rect x="117.23" y="126.24" width="38.5455" height="38.5455" rx="3" stroke="white" stroke-width="2"/>
<rect x="117.23" y="126.24" width="38.5455" height="38.5455" rx="3" stroke="#454545" stroke-opacity="0.42" stroke-width="2"/>
<path d="M22.7521 15.5634V30.1089H20.1172V18.1274H20.032L16.63 20.3006V17.8859L20.245 15.5634H22.7521Z" fill="black"/>
<path d="M130.946 27.41V25.3149L137.118 15.5634H138.865V18.5464H137.8L133.645 25.1302V25.2438H142.26V27.41H130.946ZM137.885 30.1089V26.7708L137.914 25.8333V15.5634H140.399V30.1089H137.885Z" fill="black"/>
<path d="M97.8335 30.3078C96.8107 30.3078 95.9017 30.1326 95.1062 29.7822C94.3155 29.4318 93.6905 28.9441 93.2312 28.3191C92.7719 27.6941 92.5281 26.972 92.4997 26.1529H95.1701C95.1938 26.5459 95.324 26.8892 95.5607 27.1828C95.7975 27.4716 96.1124 27.6965 96.5053 27.8575C96.8983 28.0185 97.3387 28.0989 97.8264 28.0989C98.3472 28.0989 98.8088 28.009 99.2113 27.8291C99.6138 27.6444 99.9286 27.3887 100.156 27.062C100.383 26.7353 100.494 26.3589 100.49 25.9328C100.494 25.4924 100.381 25.1042 100.149 24.768C99.9168 24.4318 99.5806 24.169 99.1403 23.9796C98.7047 23.7902 98.1791 23.6955 97.5636 23.6955H96.2781V21.6643H97.5636C98.0702 21.6643 98.5129 21.5767 98.8917 21.4015C99.2752 21.2263 99.5759 20.9801 99.7937 20.6629C100.012 20.3409 100.118 19.9692 100.113 19.5478C100.118 19.1359 100.026 18.7784 99.8363 18.4754C99.6517 18.1676 99.3889 17.9285 99.048 17.758C98.7118 17.5876 98.3164 17.5024 97.8619 17.5024C97.4168 17.5024 97.0049 17.5828 96.6261 17.7438C96.2473 17.9048 95.9419 18.1345 95.7099 18.4328C95.4779 18.7263 95.3548 19.0767 95.3406 19.4839H92.8051C92.824 18.6695 93.0584 17.9545 93.5082 17.339C93.9627 16.7187 94.5688 16.2358 95.3264 15.8901C96.0839 15.5398 96.9338 15.3646 97.8761 15.3646C98.8467 15.3646 99.6895 15.5469 100.404 15.9114C101.124 16.2713 101.681 16.7566 102.074 17.3674C102.467 17.9782 102.663 18.6529 102.663 19.3916C102.668 20.2107 102.426 20.8972 101.939 21.4512C101.456 22.0052 100.821 22.3674 100.035 22.5379V22.6515C101.058 22.7935 101.842 23.1723 102.386 23.7879C102.935 24.3987 103.208 25.1586 103.203 26.0677C103.203 26.8821 102.971 27.6113 102.507 28.2552C102.047 28.8944 101.413 29.3963 100.603 29.7609C99.7984 30.1255 98.8751 30.3078 97.8335 30.3078Z" fill="black"/>
<path d="M54.1719 30.1089V28.2055L59.2216 23.2552C59.7046 22.7675 60.107 22.3343 60.429 21.9555C60.751 21.5767 60.9924 21.2097 61.1534 20.8546C61.3144 20.4995 61.3949 20.1207 61.3949 19.7183C61.3949 19.259 61.2907 18.866 61.0824 18.5393C60.8741 18.2078 60.5876 17.9522 60.223 17.7722C59.8584 17.5923 59.4441 17.5024 58.9801 17.5024C58.5019 17.5024 58.0829 17.6018 57.723 17.8006C57.3632 17.9948 57.0838 18.2718 56.885 18.6316C56.6908 18.9915 56.5938 19.42 56.5938 19.9171H54.0867C54.0867 18.9938 54.2974 18.1913 54.7188 17.5095C55.1402 16.8276 55.7202 16.2997 56.4588 15.9256C57.2022 15.5516 58.0545 15.3646 59.0156 15.3646C59.991 15.3646 60.848 15.5469 61.5867 15.9114C62.3253 16.276 62.8982 16.7756 63.3054 17.41C63.7173 18.0445 63.9233 18.7689 63.9233 19.5833C63.9233 20.1278 63.8191 20.6629 63.6108 21.1884C63.4025 21.714 63.0355 22.2964 62.51 22.9356C61.9891 23.5748 61.2576 24.3489 60.3154 25.258L57.8083 27.8078V27.9072H64.1435V30.1089H54.1719Z" fill="black"/>
<path d="M22.7521 139.903V154.448H20.1172V142.467H20.032L16.63 144.64V142.225L20.245 139.903H22.7521Z" fill="black"/>
<path d="M130.946 151.749V149.654L137.118 139.903H138.865V142.886H137.8L133.645 149.47V149.583H142.26V151.749H130.946ZM137.885 154.448V151.11L137.914 150.173V139.903H140.399V154.448H137.885Z" fill="black"/>
<path d="M97.8335 154.647C96.8107 154.647 95.9017 154.472 95.1062 154.122C94.3155 153.771 93.6905 153.283 93.2312 152.658C92.7719 152.033 92.5281 151.311 92.4997 150.492H95.1701C95.1938 150.885 95.324 151.229 95.5607 151.522C95.7975 151.811 96.1124 152.036 96.5053 152.197C96.8983 152.358 97.3387 152.438 97.8264 152.438C98.3472 152.438 98.8088 152.348 99.2113 152.168C99.6138 151.984 99.9286 151.728 100.156 151.401C100.383 151.075 100.494 150.698 100.49 150.272C100.494 149.832 100.381 149.444 100.149 149.107C99.9168 148.771 99.5806 148.508 99.1403 148.319C98.7047 148.13 98.1791 148.035 97.5636 148.035H96.2781V146.004H97.5636C98.0702 146.004 98.5129 145.916 98.8917 145.741C99.2752 145.566 99.5759 145.319 99.7937 145.002C100.012 144.68 100.118 144.309 100.113 143.887C100.118 143.475 100.026 143.118 99.8363 142.815C99.6517 142.507 99.3889 142.268 99.048 142.097C98.7118 141.927 98.3164 141.842 97.8619 141.842C97.4168 141.842 97.0049 141.922 96.6261 142.083C96.2473 142.244 95.9419 142.474 95.7099 142.772C95.4779 143.066 95.3548 143.416 95.3406 143.823H92.8051C92.824 143.009 93.0584 142.294 93.5082 141.678C93.9627 141.058 94.5688 140.575 95.3264 140.229C96.0839 139.879 96.9338 139.704 97.8761 139.704C98.8467 139.704 99.6895 139.886 100.404 140.251C101.124 140.611 101.681 141.096 102.074 141.707C102.467 142.318 102.663 142.992 102.663 143.731C102.668 144.55 102.426 145.237 101.939 145.791C101.456 146.345 100.821 146.707 100.035 146.877V146.991C101.058 147.133 101.842 147.512 102.386 148.127C102.935 148.738 103.208 149.498 103.203 150.407C103.203 151.221 102.971 151.951 102.507 152.595C102.047 153.234 101.413 153.736 100.603 154.1C99.7984 154.465 98.8751 154.647 97.8335 154.647Z" fill="black"/>
<path d="M54.1719 154.448V152.545L59.2216 147.595C59.7046 147.107 60.107 146.674 60.429 146.295C60.751 145.916 60.9924 145.549 61.1534 145.194C61.3144 144.839 61.3949 144.46 61.3949 144.058C61.3949 143.598 61.2907 143.205 61.0824 142.879C60.8741 142.547 60.5876 142.292 60.223 142.112C59.8584 141.932 59.4441 141.842 58.9801 141.842C58.5019 141.842 58.0829 141.941 57.723 142.14C57.3632 142.334 57.0838 142.611 56.885 142.971C56.6908 143.331 56.5938 143.759 56.5938 144.256H54.0867C54.0867 143.333 54.2974 142.531 54.7188 141.849C55.1402 141.167 55.7202 140.639 56.4588 140.265C57.2022 139.891 58.0545 139.704 59.0156 139.704C59.991 139.704 60.848 139.886 61.5867 140.251C62.3253 140.615 62.8982 141.115 63.3054 141.749C63.7173 142.384 63.9233 143.108 63.9233 143.923C63.9233 144.467 63.8191 145.002 63.6108 145.528C63.4025 146.053 63.0355 146.636 62.51 147.275C61.9891 147.914 61.2576 148.688 60.3154 149.597L57.8083 152.147V152.247H64.1435V154.448H54.1719Z" fill="black"/>
<path d="M22.7521 54.3071V68.8525H20.1172V56.871H20.032L16.63 59.0443V56.6295L20.245 54.3071H22.7521Z" fill="black"/>
<path d="M130.946 66.1537V64.0585L137.118 54.3071H138.865V57.29H137.8L133.645 63.8738V63.9875H142.26V66.1537H130.946ZM137.885 68.8525V65.5145L137.914 64.577V54.3071H140.399V68.8525H137.885Z" fill="black"/>
<path d="M97.8335 69.0514C96.8107 69.0514 95.9017 68.8762 95.1062 68.5258C94.3155 68.1755 93.6905 67.6878 93.2312 67.0628C92.7719 66.4378 92.5281 65.7157 92.4997 64.8966H95.1701C95.1938 65.2896 95.324 65.6328 95.5607 65.9264C95.7975 66.2152 96.1124 66.4401 96.5053 66.6011C96.8983 66.7621 97.3387 66.8426 97.8264 66.8426C98.3472 66.8426 98.8088 66.7526 99.2113 66.5727C99.6138 66.3881 99.9286 66.1324 100.156 65.8057C100.383 65.479 100.494 65.1025 100.49 64.6764C100.494 64.2361 100.381 63.8478 100.149 63.5116C99.9168 63.1755 99.5806 62.9127 99.1403 62.7233C98.7047 62.5339 98.1791 62.4392 97.5636 62.4392H96.2781V60.4079H97.5636C98.0702 60.4079 98.5129 60.3203 98.8917 60.1452C99.2752 59.97 99.5759 59.7238 99.7937 59.4065C100.012 59.0845 100.118 58.7129 100.113 58.2915C100.118 57.8795 100.026 57.522 99.8363 57.219C99.6517 56.9113 99.3889 56.6721 99.048 56.5017C98.7118 56.3312 98.3164 56.246 97.8619 56.246C97.4168 56.246 97.0049 56.3265 96.6261 56.4875C96.2473 56.6485 95.9419 56.8781 95.7099 57.1764C95.4779 57.47 95.3548 57.8203 95.3406 58.2275H92.8051C92.824 57.4131 93.0584 56.6982 93.5082 56.0827C93.9627 55.4624 94.5688 54.9794 95.3264 54.6338C96.0839 54.2834 96.9338 54.1082 97.8761 54.1082C98.8467 54.1082 99.6895 54.2905 100.404 54.6551C101.124 55.0149 101.681 55.5003 102.074 56.1111C102.467 56.7219 102.663 57.3966 102.663 58.1352C102.668 58.9543 102.426 59.6409 101.939 60.1949C101.456 60.7488 100.821 61.1111 100.035 61.2815V61.3952C101.058 61.5372 101.842 61.916 102.386 62.5315C102.935 63.1423 103.208 63.9023 103.203 64.8113C103.203 65.6257 102.971 66.3549 102.507 66.9988C102.047 67.6381 101.413 68.1399 100.603 68.5045C99.7984 68.8691 98.8751 69.0514 97.8335 69.0514Z" fill="black"/>
<path d="M54.1719 68.8525V66.9491L59.2216 61.9988C59.7046 61.5112 60.107 61.0779 60.429 60.6991C60.751 60.3203 60.9924 59.9534 61.1534 59.5983C61.3144 59.2432 61.3949 58.8644 61.3949 58.4619C61.3949 58.0026 61.2907 57.6096 61.0824 57.2829C60.8741 56.9515 60.5876 56.6958 60.223 56.5159C59.8584 56.336 59.4441 56.246 58.9801 56.246C58.5019 56.246 58.0829 56.3454 57.723 56.5443C57.3632 56.7384 57.0838 57.0154 56.885 57.3753C56.6908 57.7351 56.5938 58.1636 56.5938 58.6608H54.0867C54.0867 57.7375 54.2974 56.9349 54.7188 56.2531C55.1402 55.5713 55.7202 55.0434 56.4588 54.6693C57.2022 54.2952 58.0545 54.1082 59.0156 54.1082C59.991 54.1082 60.848 54.2905 61.5867 54.6551C62.3253 55.0197 62.8982 55.5192 63.3054 56.1537C63.7173 56.7881 63.9233 57.5126 63.9233 58.327C63.9233 58.8715 63.8191 59.4065 63.6108 59.9321C63.4025 60.4577 63.0355 61.04 62.51 61.6792C61.9891 62.3184 61.2576 63.0926 60.3154 64.0017L57.8083 66.5514V66.6508H64.1435V68.8525H54.1719Z" fill="black"/>
<path d="M75.6433 112.047V97.4644H79.3301V112.047H75.6433ZM70.1955 106.599V102.912H84.7779V106.599H70.1955Z" fill="black"/>
</svg>
