<svg width="430" height="222" viewBox="0 0 430 222" fill="none" xmlns="http://www.w3.org/2000/svg">
<rect x="183" y="1" width="48.9982" height="48.9982" rx="3" fill="#FBFBFB"/>
<rect x="183" y="1" width="48.9982" height="48.9982" rx="3" stroke="#E3E3E3" stroke-width="2"/>
<rect x="183" y="1" width="48.9982" height="48.9982" rx="3" stroke="black" stroke-opacity="0.2" stroke-width="2"/>
<rect x="232.43" y="1" width="48.9982" height="48.9982" rx="3" fill="#FBFBFB"/>
<rect x="232.43" y="1" width="48.9982" height="48.9982" rx="3" stroke="#E3E3E3" stroke-width="2"/>
<rect x="232.43" y="1" width="48.9982" height="48.9982" rx="3" stroke="black" stroke-opacity="0.2" stroke-width="2"/>
<rect x="281.859" y="1" width="48.9982" height="48.9982" rx="3" fill="#FBFBFB"/>
<rect x="281.859" y="1" width="48.9982" height="48.9982" rx="3" stroke="#E3E3E3" stroke-width="2"/>
<rect x="281.859" y="1" width="48.9982" height="48.9982" rx="3" stroke="black" stroke-opacity="0.2" stroke-width="2"/>
<rect x="183" y="50.4282" width="48.9982" height="48.9982" rx="3" fill="#FBFBFB"/>
<rect x="183" y="50.4282" width="48.9982" height="48.9982" rx="3" stroke="#E3E3E3" stroke-width="2"/>
<rect x="183" y="50.4282" width="48.9982" height="48.9982" rx="3" stroke="black" stroke-opacity="0.2" stroke-width="2"/>
<rect x="232.43" y="50.4282" width="48.9982" height="48.9982" rx="3" fill="#FBFBFB"/>
<rect x="232.43" y="50.4282" width="48.9982" height="48.9982" rx="3" stroke="#E3E3E3" stroke-width="2"/>
<rect x="232.43" y="50.4282" width="48.9982" height="48.9982" rx="3" stroke="black" stroke-opacity="0.2" stroke-width="2"/>
<rect x="281.859" y="50.4282" width="48.9982" height="48.9982" rx="3" fill="#FBFBFB"/>
<rect x="281.859" y="50.4282" width="48.9982" height="48.9982" rx="3" stroke="#E3E3E3" stroke-width="2"/>
<rect x="281.859" y="50.4282" width="48.9982" height="48.9982" rx="3" stroke="black" stroke-opacity="0.2" stroke-width="2"/>
<path d="M300.629 83.5518V81.1143L306.324 75.8408C306.809 75.3721 307.215 74.9502 307.543 74.5752C307.876 74.2002 308.129 73.833 308.301 73.4736C308.473 73.109 308.559 72.7158 308.559 72.2939C308.559 71.8252 308.452 71.4215 308.238 71.083C308.025 70.7393 307.733 70.4762 307.363 70.2939C306.994 70.1064 306.574 70.0127 306.106 70.0127C305.616 70.0127 305.189 70.1117 304.824 70.3096C304.46 70.5075 304.179 70.7913 303.981 71.1611C303.783 71.5309 303.684 71.971 303.684 72.4814H300.473C300.473 71.4346 300.71 70.5257 301.184 69.7549C301.658 68.984 302.322 68.3877 303.176 67.9658C304.03 67.5439 305.015 67.333 306.129 67.333C307.275 67.333 308.272 67.5361 309.121 67.9424C309.975 68.3434 310.64 68.9007 311.113 69.6143C311.587 70.3278 311.824 71.1455 311.824 72.0674C311.824 72.6715 311.705 73.2679 311.465 73.8564C311.231 74.445 310.811 75.0986 310.207 75.8174C309.603 76.5309 308.751 77.3877 307.653 78.3877L305.317 80.6768V80.7861H312.035V83.5518H300.629Z" fill="black"/>
<rect x="183" y="99.8574" width="48.9982" height="48.9982" rx="3" fill="#FBFBFB"/>
<rect x="183" y="99.8574" width="48.9982" height="48.9982" rx="3" stroke="#E3E3E3" stroke-width="2"/>
<rect x="183" y="99.8574" width="48.9982" height="48.9982" rx="3" stroke="black" stroke-opacity="0.2" stroke-width="2"/>
<rect x="232.43" y="99.8574" width="48.9982" height="48.9982" rx="3" fill="#FBFBFB"/>
<rect x="232.43" y="99.8574" width="48.9982" height="48.9982" rx="3" stroke="#E3E3E3" stroke-width="2"/>
<rect x="232.43" y="99.8574" width="48.9982" height="48.9982" rx="3" stroke="black" stroke-opacity="0.2" stroke-width="2"/>
<rect x="281.859" y="99.8574" width="48.9982" height="48.9982" rx="3" fill="#FBFBFB"/>
<rect x="281.859" y="99.8574" width="48.9982" height="48.9982" rx="3" stroke="#E3E3E3" stroke-width="2"/>
<rect x="281.859" y="99.8574" width="48.9982" height="48.9982" rx="3" stroke="black" stroke-opacity="0.2" stroke-width="2"/>
<rect x="136" y="30" width="49.9488" height="49.9488" rx="3" fill="#E6E6E6"/>
<rect x="136" y="30" width="49.9488" height="49.9488" rx="3" stroke="#9D9D9D" stroke-width="2"/>
<rect x="136" y="30" width="49.9488" height="49.9488" rx="3" stroke="black" stroke-opacity="0.2" stroke-width="2"/>
<rect x="186.352" y="30" width="49.9488" height="49.9488" rx="3" fill="#E6E6E6"/>
<rect x="186.352" y="30" width="49.9488" height="49.9488" rx="3" stroke="#9D9D9D" stroke-width="2"/>
<rect x="186.352" y="30" width="49.9488" height="49.9488" rx="3" stroke="black" stroke-opacity="0.2" stroke-width="2"/>
<rect x="236.701" y="30" width="49.9488" height="49.9488" rx="3" fill="#E6E6E6"/>
<rect x="236.701" y="30" width="49.9488" height="49.9488" rx="3" stroke="#9D9D9D" stroke-width="2"/>
<rect x="236.701" y="30" width="49.9488" height="49.9488" rx="3" stroke="black" stroke-opacity="0.2" stroke-width="2"/>
<rect x="136" y="80.3496" width="49.9488" height="49.9488" rx="3" fill="#E6E6E6"/>
<rect x="136" y="80.3496" width="49.9488" height="49.9488" rx="3" stroke="#9D9D9D" stroke-width="2"/>
<rect x="136" y="80.3496" width="49.9488" height="49.9488" rx="3" stroke="black" stroke-opacity="0.2" stroke-width="2"/>
<rect x="186.352" y="80.3496" width="49.9488" height="49.9488" rx="3" fill="#E6E6E6"/>
<rect x="186.352" y="80.3496" width="49.9488" height="49.9488" rx="3" stroke="#9D9D9D" stroke-width="2"/>
<rect x="186.352" y="80.3496" width="49.9488" height="49.9488" rx="3" stroke="black" stroke-opacity="0.2" stroke-width="2"/>
<rect x="236.701" y="80.3496" width="49.9488" height="49.9488" rx="3" fill="#E6E6E6"/>
<rect x="236.701" y="80.3496" width="49.9488" height="49.9488" rx="3" stroke="#9D9D9D" stroke-width="2"/>
<rect x="236.701" y="80.3496" width="49.9488" height="49.9488" rx="3" stroke="black" stroke-opacity="0.2" stroke-width="2"/>
<path d="M264.459 97.7363V113.736H261.076V100.947H260.982L257.318 103.244V100.244L261.279 97.7363H264.459Z" fill="black"/>
<rect x="136" y="130.7" width="49.9488" height="49.9488" rx="3" fill="#E6E6E6"/>
<rect x="136" y="130.7" width="49.9488" height="49.9488" rx="3" stroke="#9D9D9D" stroke-width="2"/>
<rect x="136" y="130.7" width="49.9488" height="49.9488" rx="3" stroke="black" stroke-opacity="0.2" stroke-width="2"/>
<rect x="186.352" y="130.7" width="49.9488" height="49.9488" rx="3" fill="#E6E6E6"/>
<rect x="186.352" y="130.7" width="49.9488" height="49.9488" rx="3" stroke="#9D9D9D" stroke-width="2"/>
<rect x="186.352" y="130.7" width="49.9488" height="49.9488" rx="3" stroke="black" stroke-opacity="0.2" stroke-width="2"/>
<rect x="236.701" y="130.7" width="49.9488" height="49.9488" rx="3" fill="#E6E6E6"/>
<rect x="236.701" y="130.7" width="49.9488" height="49.9488" rx="3" stroke="#9D9D9D" stroke-width="2"/>
<rect x="236.701" y="130.7" width="49.9488" height="49.9488" rx="3" stroke="black" stroke-opacity="0.2" stroke-width="2"/>
<rect x="84" y="64" width="51.9961" height="51.9961" rx="3" fill="#CECECE"/>
<rect x="84" y="64" width="51.9961" height="51.9961" rx="3" stroke="#151515" stroke-width="2"/>
<rect x="84" y="64" width="51.9961" height="51.9961" rx="3" stroke="black" stroke-opacity="0.2" stroke-width="2"/>
<rect x="136.336" y="64" width="51.9961" height="51.9961" rx="3" fill="#CECECE"/>
<rect x="136.336" y="64" width="51.9961" height="51.9961" rx="3" stroke="#151515" stroke-width="2"/>
<rect x="136.336" y="64" width="51.9961" height="51.9961" rx="3" stroke="black" stroke-opacity="0.2" stroke-width="2"/>
<rect x="188.67" y="64" width="51.9961" height="51.9961" rx="3" fill="#CECECE"/>
<rect x="188.67" y="64" width="51.9961" height="51.9961" rx="3" stroke="#151515" stroke-width="2"/>
<rect x="188.67" y="64" width="51.9961" height="51.9961" rx="3" stroke="black" stroke-opacity="0.2" stroke-width="2"/>
<rect x="84" y="116.335" width="51.9961" height="51.9961" rx="3" fill="#CECECE"/>
<rect x="84" y="116.335" width="51.9961" height="51.9961" rx="3" stroke="#151515" stroke-width="2"/>
<rect x="84" y="116.335" width="51.9961" height="51.9961" rx="3" stroke="black" stroke-opacity="0.2" stroke-width="2"/>
<rect x="136.336" y="116.335" width="51.9961" height="51.9961" rx="3" fill="#CECECE"/>
<rect x="136.336" y="116.335" width="51.9961" height="51.9961" rx="3" stroke="#151515" stroke-width="2"/>
<rect x="136.336" y="116.335" width="51.9961" height="51.9961" rx="3" stroke="black" stroke-opacity="0.2" stroke-width="2"/>
<rect x="188.67" y="116.335" width="51.9961" height="51.9961" rx="3" fill="#CECECE"/>
<rect x="188.67" y="116.335" width="51.9961" height="51.9961" rx="3" stroke="#151515" stroke-width="2"/>
<rect x="188.67" y="116.335" width="51.9961" height="51.9961" rx="3" stroke="black" stroke-opacity="0.2" stroke-width="2"/>
<path d="M215.273 150.639C213.929 150.634 212.773 150.303 211.804 149.647C210.84 148.991 210.098 148.04 209.577 146.795C209.062 145.551 208.807 144.053 208.812 142.303C208.812 140.558 209.07 139.071 209.585 137.842C210.106 136.613 210.848 135.678 211.812 135.038C212.78 134.392 213.934 134.069 215.273 134.069C216.611 134.069 217.762 134.392 218.726 135.038C219.695 135.683 220.439 136.621 220.96 137.85C221.481 139.074 221.739 140.558 221.734 142.303C221.734 144.058 221.473 145.558 220.952 146.803C220.437 148.048 219.697 148.999 218.734 149.655C217.77 150.311 216.616 150.639 215.273 150.639ZM215.273 147.834C216.189 147.834 216.921 147.374 217.468 146.452C218.015 145.53 218.286 144.147 218.28 142.303C218.28 141.09 218.155 140.079 217.905 139.272C217.661 138.465 217.312 137.858 216.859 137.452C216.411 137.045 215.882 136.842 215.273 136.842C214.361 136.842 213.632 137.298 213.085 138.209C212.538 139.121 212.262 140.486 212.257 142.303C212.257 143.532 212.379 144.558 212.624 145.381C212.874 146.199 213.226 146.814 213.679 147.225C214.132 147.631 214.663 147.834 215.273 147.834Z" fill="black"/>
<rect x="84" y="168.669" width="51.9961" height="51.9961" rx="3" fill="#CECECE"/>
<rect x="84" y="168.669" width="51.9961" height="51.9961" rx="3" stroke="#151515" stroke-width="2"/>
<rect x="84" y="168.669" width="51.9961" height="51.9961" rx="3" stroke="black" stroke-opacity="0.2" stroke-width="2"/>
<rect x="136.336" y="168.669" width="51.9961" height="51.9961" rx="3" fill="#CECECE"/>
<rect x="136.336" y="168.669" width="51.9961" height="51.9961" rx="3" stroke="#151515" stroke-width="2"/>
<rect x="136.336" y="168.669" width="51.9961" height="51.9961" rx="3" stroke="black" stroke-opacity="0.2" stroke-width="2"/>
<rect x="188.67" y="168.669" width="51.9961" height="51.9961" rx="3" fill="#CECECE"/>
<rect x="188.67" y="168.669" width="51.9961" height="51.9961" rx="3" stroke="#151515" stroke-width="2"/>
<rect x="188.67" y="168.669" width="51.9961" height="51.9961" rx="3" stroke="black" stroke-opacity="0.2" stroke-width="2"/>
<path d="M360.75 150.025C360.764 149.612 360.439 149.265 360.025 149.25L353.279 149.021C352.865 149.007 352.518 149.331 352.504 149.745C352.49 150.159 352.814 150.506 353.228 150.52L359.225 150.724L359.021 156.721C359.007 157.135 359.331 157.482 359.745 157.496C360.159 157.51 360.506 157.186 360.52 156.772L360.75 150.025ZM284.512 221.548L360.512 150.548L359.488 149.452L283.488 220.452L284.512 221.548Z" fill="black"/>
<path d="M332.783 202.108H334.757C334.757 205.538 332.545 207.708 328.723 208.576L327.981 207.12C331.243 206.448 332.783 204.88 332.783 203.144V202.108ZM328.667 202.108H333.931V203.592H328.667V202.108ZM336.633 201.282H338.495V208.254H336.633V201.282ZM329.815 208.842H338.635V210.298H329.815V208.842ZM329.689 212.58H338.761V214.05H329.689V212.58ZM331.327 209.486H333.147V213.378H331.327V209.486ZM335.289 209.486H337.123V213.378H335.289V209.486ZM349.512 201.268H351.388V214.274H349.512V201.268ZM344.402 202.178C346.362 202.178 347.804 203.97 347.804 206.798C347.804 209.654 346.362 211.446 344.402 211.446C342.442 211.446 341 209.654 341 206.798C341 203.97 342.442 202.178 344.402 202.178ZM344.402 203.872C343.436 203.872 342.778 204.894 342.778 206.798C342.778 208.73 343.436 209.766 344.402 209.766C345.368 209.766 346.012 208.73 346.012 206.798C346.012 204.894 345.368 203.872 344.402 203.872ZM365.645 201.296H367.521V210.606H365.645V201.296ZM358.883 212.538H367.843V214.022H358.883V212.538ZM358.883 209.668H360.745V213.14H358.883V209.668ZM360.465 202.108C362.453 202.108 363.979 203.48 363.979 205.398C363.979 207.302 362.453 208.688 360.465 208.688C358.477 208.688 356.937 207.302 356.937 205.398C356.937 203.48 358.477 202.108 360.465 202.108ZM360.465 203.718C359.499 203.718 358.757 204.334 358.757 205.398C358.757 206.448 359.499 207.064 360.465 207.064C361.417 207.064 362.159 206.448 362.159 205.398C362.159 204.334 361.417 203.718 360.465 203.718ZM371.818 209.766H380.764V214.26H378.888V211.25H371.818V209.766ZM370.166 207.162H371.048C373.176 207.162 374.24 207.148 375.5 206.924L375.668 208.38C374.366 208.618 373.246 208.632 371.048 208.632H370.166V207.162ZM370.166 202.22H375.178V203.69H372V207.68H370.166V202.22ZM378.986 201.282H380.764V209.192H378.986V201.282ZM374.422 204.6H377.138V206.084H374.422V204.6ZM376.396 201.534H378.132V209.108H376.396V201.534ZM387.314 202.024H388.938V202.962C388.938 205.776 386.936 208.268 383.576 208.926L382.778 207.386C385.704 206.882 387.314 204.824 387.314 202.962V202.024ZM387.692 202.024H389.302V202.962C389.302 204.866 390.898 206.882 393.838 207.386L393.04 208.926C389.68 208.268 387.692 205.818 387.692 202.962V202.024ZM382.512 211.152H394.244V212.664H382.512V211.152Z" fill="black"/>
</svg>
