<svg width="424" height="89" viewBox="0 0 424 89" fill="none" xmlns="http://www.w3.org/2000/svg">
<rect x="307" y="10" width="38.5455" height="38.5455" rx="3" fill="#F1F8FF"/>
<rect x="307" y="10" width="38.5455" height="38.5455" rx="3" stroke="white" stroke-width="2"/>
<rect x="307" y="10" width="38.5455" height="38.5455" rx="3" stroke="#454545" stroke-opacity="0.42" stroke-width="2"/>
<rect x="345.744" y="10" width="38.5455" height="38.5455" rx="3" fill="#F1F8FF"/>
<rect x="345.744" y="10" width="38.5455" height="38.5455" rx="3" stroke="white" stroke-width="2"/>
<rect x="345.744" y="10" width="38.5455" height="38.5455" rx="3" stroke="#454545" stroke-opacity="0.42" stroke-width="2"/>
<rect x="307" y="48.7437" width="38.5455" height="38.5455" rx="3" fill="#F1F8FF"/>
<rect x="307" y="48.7437" width="38.5455" height="38.5455" rx="3" stroke="white" stroke-width="2"/>
<rect x="307" y="48.7437" width="38.5455" height="38.5455" rx="3" stroke="#454545" stroke-opacity="0.42" stroke-width="2"/>
<rect x="345.744" y="48.7437" width="38.5455" height="38.5455" rx="3" fill="#F1F8FF"/>
<rect x="345.744" y="48.7437" width="38.5455" height="38.5455" rx="3" stroke="white" stroke-width="2"/>
<rect x="345.744" y="48.7437" width="38.5455" height="38.5455" rx="3" stroke="#454545" stroke-opacity="0.42" stroke-width="2"/>
<rect x="384" y="10" width="38.5455" height="38.5455" rx="3" fill="#BCE5FF"/>
<rect x="384" y="10" width="38.5455" height="38.5455" rx="3" stroke="white" stroke-width="2"/>
<rect x="384" y="10" width="38.5455" height="38.5455" rx="3" stroke="#454545" stroke-opacity="0.42" stroke-width="2"/>
<rect x="384" y="48.7437" width="38.5455" height="38.5455" rx="3" fill="#BCE5FF"/>
<rect x="384" y="48.7437" width="38.5455" height="38.5455" rx="3" stroke="white" stroke-width="2"/>
<rect x="384" y="48.7437" width="38.5455" height="38.5455" rx="3" stroke="#454545" stroke-opacity="0.42" stroke-width="2"/>
<path d="M328.752 24.5634V39.1089H326.117V27.1274H326.032L322.63 29.3006V26.8859L326.245 24.5634H328.752Z" fill="black"/>
<path d="M403.347 39.3078C402.324 39.3078 401.415 39.1326 400.62 38.7822C399.829 38.4318 399.204 37.9441 398.745 37.3191C398.286 36.6941 398.042 35.972 398.013 35.1529H400.684C400.707 35.5459 400.838 35.8892 401.074 36.1828C401.311 36.4716 401.626 36.6965 402.019 36.8575C402.412 37.0185 402.852 37.0989 403.34 37.0989C403.861 37.0989 404.323 37.009 404.725 36.8291C405.127 36.6444 405.442 36.3887 405.67 36.062C405.897 35.7353 406.008 35.3589 406.003 34.9328C406.008 34.4924 405.894 34.1042 405.662 33.768C405.43 33.4318 405.094 33.169 404.654 32.9796C404.218 32.7902 403.693 32.6955 403.077 32.6955H401.792V30.6643H403.077C403.584 30.6643 404.027 30.5767 404.405 30.4015C404.789 30.2263 405.09 29.9801 405.307 29.6629C405.525 29.3409 405.632 28.9692 405.627 28.5478C405.632 28.1359 405.539 27.7784 405.35 27.4754C405.165 27.1676 404.903 26.9285 404.562 26.758C404.225 26.5876 403.83 26.5024 403.376 26.5024C402.93 26.5024 402.519 26.5828 402.14 26.7438C401.761 26.9048 401.456 27.1345 401.224 27.4328C400.992 27.7263 400.868 28.0767 400.854 28.4839H398.319C398.338 27.6695 398.572 26.9545 399.022 26.339C399.476 25.7187 400.082 25.2358 400.84 24.8901C401.598 24.5398 402.448 24.3646 403.39 24.3646C404.36 24.3646 405.203 24.5469 405.918 24.9114C406.638 25.2713 407.194 25.7566 407.587 26.3674C407.98 26.9782 408.177 27.6529 408.177 28.3916C408.181 29.2107 407.94 29.8972 407.452 30.4512C406.969 31.0052 406.335 31.3674 405.549 31.5379V31.6515C406.572 31.7935 407.355 32.1723 407.9 32.7879C408.449 33.3987 408.721 34.1586 408.716 35.0677C408.716 35.8821 408.484 36.6113 408.02 37.2552C407.561 37.8944 406.927 38.3963 406.117 38.7609C405.312 39.1255 404.389 39.3078 403.347 39.3078Z" fill="black"/>
<path d="M360.172 39.1089V37.2055L365.222 32.2552C365.705 31.7675 366.107 31.3343 366.429 30.9555C366.751 30.5767 366.992 30.2097 367.153 29.8546C367.314 29.4995 367.395 29.1207 367.395 28.7183C367.395 28.259 367.291 27.866 367.082 27.5393C366.874 27.2078 366.588 26.9522 366.223 26.7722C365.858 26.5923 365.444 26.5024 364.98 26.5024C364.502 26.5024 364.083 26.6018 363.723 26.8006C363.363 26.9948 363.084 27.2718 362.885 27.6316C362.691 27.9915 362.594 28.42 362.594 28.9171H360.087C360.087 27.9938 360.297 27.1913 360.719 26.5095C361.14 25.8276 361.72 25.2997 362.459 24.9256C363.202 24.5516 364.054 24.3646 365.016 24.3646C365.991 24.3646 366.848 24.5469 367.587 24.9114C368.325 25.276 368.898 25.7756 369.305 26.41C369.717 27.0445 369.923 27.7689 369.923 28.5833C369.923 29.1278 369.819 29.6629 369.611 30.1884C369.402 30.714 369.036 31.2964 368.51 31.9356C367.989 32.5748 367.258 33.3489 366.315 34.258L363.808 36.8078V36.9072H370.143V39.1089H360.172Z" fill="black"/>
<path d="M328.752 63.3071V77.8525H326.117V65.871H326.032L322.63 68.0443V65.6295L326.245 63.3071H328.752Z" fill="black"/>
<path d="M403.347 78.0514C402.324 78.0514 401.415 77.8762 400.62 77.5258C399.829 77.1755 399.204 76.6878 398.745 76.0628C398.286 75.4378 398.042 74.7157 398.013 73.8966H400.684C400.707 74.2896 400.838 74.6328 401.074 74.9264C401.311 75.2152 401.626 75.4401 402.019 75.6011C402.412 75.7621 402.852 75.8426 403.34 75.8426C403.861 75.8426 404.323 75.7526 404.725 75.5727C405.127 75.3881 405.442 75.1324 405.67 74.8057C405.897 74.479 406.008 74.1025 406.003 73.6764C406.008 73.2361 405.894 72.8478 405.662 72.5116C405.43 72.1755 405.094 71.9127 404.654 71.7233C404.218 71.5339 403.693 71.4392 403.077 71.4392H401.792V69.4079H403.077C403.584 69.4079 404.027 69.3203 404.405 69.1452C404.789 68.97 405.09 68.7238 405.307 68.4065C405.525 68.0845 405.632 67.7129 405.627 67.2915C405.632 66.8795 405.539 66.522 405.35 66.219C405.165 65.9113 404.903 65.6721 404.562 65.5017C404.225 65.3312 403.83 65.246 403.376 65.246C402.93 65.246 402.519 65.3265 402.14 65.4875C401.761 65.6485 401.456 65.8781 401.224 66.1764C400.992 66.47 400.868 66.8203 400.854 67.2275H398.319C398.338 66.4131 398.572 65.6982 399.022 65.0827C399.476 64.4624 400.082 63.9794 400.84 63.6338C401.598 63.2834 402.448 63.1082 403.39 63.1082C404.36 63.1082 405.203 63.2905 405.918 63.6551C406.638 64.0149 407.194 64.5003 407.587 65.1111C407.98 65.7219 408.177 66.3966 408.177 67.1352C408.181 67.9543 407.94 68.6409 407.452 69.1949C406.969 69.7488 406.335 70.1111 405.549 70.2815V70.3952C406.572 70.5372 407.355 70.916 407.9 71.5315C408.449 72.1423 408.721 72.9023 408.716 73.8113C408.716 74.6257 408.484 75.3549 408.02 75.9988C407.561 76.6381 406.927 77.1399 406.117 77.5045C405.312 77.8691 404.389 78.0514 403.347 78.0514Z" fill="black"/>
<path d="M360.172 77.8525V75.9491L365.222 70.9988C365.705 70.5112 366.107 70.0779 366.429 69.6991C366.751 69.3203 366.992 68.9534 367.153 68.5983C367.314 68.2432 367.395 67.8644 367.395 67.4619C367.395 67.0026 367.291 66.6096 367.082 66.2829C366.874 65.9515 366.588 65.6958 366.223 65.5159C365.858 65.336 365.444 65.246 364.98 65.246C364.502 65.246 364.083 65.3454 363.723 65.5443C363.363 65.7384 363.084 66.0154 362.885 66.3753C362.691 66.7351 362.594 67.1636 362.594 67.6608H360.087C360.087 66.7375 360.297 65.9349 360.719 65.2531C361.14 64.5713 361.72 64.0434 362.459 63.6693C363.202 63.2952 364.054 63.1082 365.016 63.1082C365.991 63.1082 366.848 63.2905 367.587 63.6551C368.325 64.0197 368.898 64.5192 369.305 65.1537C369.717 65.7881 369.923 66.5126 369.923 67.327C369.923 67.8715 369.819 68.4065 369.611 68.9321C369.402 69.4577 369.036 70.04 368.51 70.6792C367.989 71.3184 367.258 72.0926 366.315 73.0017L363.808 75.5514V75.6508H370.143V77.8525H360.172Z" fill="black"/>
<rect width="13" height="63" rx="2" transform="matrix(-4.37114e-08 -1 -1 4.37114e-08 257 59)" fill="#E04343"/>
<path d="M277.375 53.8794C278.074 53.5013 278.074 52.4987 277.375 52.1206L256.476 40.8085C255.81 40.4479 255 40.9303 255 41.688L255 64.312C255 65.0697 255.81 65.5521 256.476 65.1915L277.375 53.8794Z" fill="#E04343"/>
<path d="M201.858 12.15C201.858 12.5833 201.849 13.0917 201.833 13.675C201.816 14.2417 201.799 14.675 201.783 14.975C201.733 15.825 201.708 16.675 201.708 17.525C201.708 18.1583 201.733 18.8167 201.783 19.5C202.299 18.75 202.858 18.2 203.458 17.85C204.058 17.5 204.783 17.325 205.633 17.325C206.249 17.325 206.824 17.6 207.358 18.15C207.891 18.7 208.233 19.3417 208.383 20.075C208.433 20.725 208.458 21.5167 208.458 22.45C208.458 23.05 208.491 23.8333 208.558 24.8C208.591 25.1667 208.683 25.5083 208.833 25.825C208.999 26.1417 209.233 26.3 209.533 26.3C209.683 26.3 209.799 26.2917 209.883 26.275C209.983 26.2583 210.074 26.25 210.158 26.25C210.391 26.25 210.549 26.3083 210.633 26.425C210.733 26.5417 210.783 26.7083 210.783 26.925C210.783 27.325 210.583 27.625 210.183 27.825C209.783 28.025 209.416 28.125 209.083 28.125C207.883 28.125 207.058 27.625 206.608 26.625C206.358 26.0583 206.199 25.325 206.133 24.425C206.066 23.5083 206.033 22.4417 206.033 21.225C206.033 20.025 205.624 19.425 204.808 19.425C204.358 19.425 203.899 19.6667 203.433 20.15C202.983 20.6167 202.608 21.2417 202.308 22.025C202.008 22.7917 201.858 23.5917 201.858 24.425L201.883 27.025C201.883 27.3917 201.741 27.6667 201.458 27.85C201.174 28.0167 200.908 28.1 200.658 28.1C200.291 28.1 199.958 27.9917 199.658 27.775C199.358 27.5417 199.208 27.2833 199.208 27C199.324 25.75 199.383 23.6583 199.383 20.725C199.383 20.1917 199.341 18.2167 199.258 14.8L199.183 12.5C199.183 12.1333 199.349 11.8167 199.683 11.55C200.016 11.2667 200.391 11.125 200.808 11.125C201.174 11.125 201.441 11.2083 201.608 11.375C201.774 11.5417 201.858 11.8 201.858 12.15ZM219.785 22.6C219.918 22.6833 220.177 22.8417 220.56 23.075C220.96 23.2917 221.227 23.55 221.36 23.85C221.493 24.15 221.56 24.5667 221.56 25.1C221.56 25.7 221.385 26.2333 221.035 26.7C220.685 27.15 220.235 27.5 219.685 27.75C219.302 27.9167 218.885 28.0167 218.435 28.05C218.002 28.0833 217.477 28.1 216.86 28.1C216.527 28.1 216.093 28.05 215.56 27.95C215.043 27.85 214.685 27.7583 214.485 27.675C213.952 27.375 213.502 27.025 213.135 26.625C212.768 26.225 212.585 25.8167 212.585 25.4C212.585 25.0667 212.693 24.8 212.91 24.6C213.127 24.4 213.41 24.3 213.76 24.3C213.943 24.3 214.118 24.35 214.285 24.45C214.468 24.5333 214.593 24.6333 214.66 24.75C214.843 25.1833 215.152 25.5083 215.585 25.725C216.018 25.9417 216.46 26.05 216.91 26.05C218.493 26.05 219.285 25.7667 219.285 25.2C219.285 25.05 219.243 24.9333 219.16 24.85C219.093 24.75 218.993 24.65 218.86 24.55C218.643 24.4 218.335 24.2417 217.935 24.075C217.552 23.9083 217.21 23.7833 216.91 23.7C216.227 23.55 215.56 23.325 214.91 23.025C214.31 22.725 213.818 22.3333 213.435 21.85C213.052 21.35 212.86 20.7417 212.86 20.025C212.86 19.5917 213.018 19.1667 213.335 18.75C213.668 18.3167 214.052 17.9917 214.485 17.775C214.785 17.6583 215.277 17.5333 215.96 17.4C216.643 17.2667 217.11 17.2 217.36 17.2C217.743 17.2 218.16 17.2417 218.61 17.325C219.06 17.3917 219.402 17.5083 219.635 17.675C220.085 17.9417 220.452 18.225 220.735 18.525C221.018 18.8083 221.16 19.1333 221.16 19.5C221.16 19.6833 221.118 19.8833 221.035 20.1C220.952 20.3 220.852 20.425 220.735 20.475C220.485 20.5917 220.193 20.65 219.86 20.65C219.71 20.65 219.585 20.6083 219.485 20.525C219.402 20.4417 219.285 20.3083 219.135 20.125C218.952 19.8417 218.777 19.675 218.61 19.625C218.41 19.575 218.118 19.5167 217.735 19.45C217.352 19.3667 217.093 19.325 216.96 19.325C216.543 19.325 216.143 19.4083 215.76 19.575C215.393 19.7417 215.21 19.9667 215.21 20.25C215.21 20.5833 215.485 20.8667 216.035 21.1C216.385 21.2667 216.768 21.4083 217.185 21.525C217.618 21.6417 217.885 21.7167 217.985 21.75C218.218 21.8 218.518 21.9167 218.885 22.1C219.268 22.2833 219.568 22.45 219.785 22.6ZM224.468 19.35C224.234 19.3167 224.043 19.2167 223.893 19.05C223.759 18.8833 223.693 18.6833 223.693 18.45C223.693 18.3333 223.718 18.2083 223.768 18.075C223.834 17.9417 223.926 17.825 224.043 17.725C224.259 17.5417 224.551 17.3667 224.918 17.2C225.301 17.05 225.576 16.8667 225.743 16.65C225.909 16.4333 225.993 16.025 225.993 15.425C225.993 15.175 225.976 14.9583 225.943 14.775C225.926 14.5917 225.918 14.45 225.918 14.35C225.918 13.9833 226.051 13.7083 226.318 13.525C226.584 13.3417 226.893 13.25 227.243 13.25C227.676 13.25 227.968 13.3583 228.118 13.575C228.284 13.7917 228.368 14.1917 228.368 14.775C228.368 15.3417 228.343 15.8333 228.293 16.25C228.243 16.65 228.134 17.0083 227.968 17.325C228.201 17.325 228.584 17.3083 229.118 17.275C229.851 17.2417 230.359 17.225 230.643 17.225C230.926 17.225 231.176 17.3 231.393 17.45C231.609 17.5833 231.718 17.775 231.718 18.025C231.718 18.375 231.643 18.6333 231.493 18.8C231.343 18.9667 231.126 19.075 230.843 19.125C230.159 19.3083 229.193 19.4167 227.943 19.45C227.909 20.1 227.893 20.8083 227.893 21.575C227.893 22.8583 227.968 23.8417 228.118 24.525C228.218 25.0583 228.384 25.45 228.618 25.7C228.868 25.9333 229.234 26.05 229.718 26.05C229.968 26.05 230.168 26.0167 230.318 25.95C230.484 25.8833 230.576 25.8417 230.593 25.825C230.793 25.7083 230.976 25.65 231.143 25.65C231.376 25.65 231.543 25.725 231.643 25.875C231.759 26.025 231.818 26.225 231.818 26.475C231.818 26.9417 231.568 27.3333 231.068 27.65C230.568 27.95 229.926 28.1 229.143 28.1C228.259 28.1 227.509 27.8417 226.893 27.325C226.293 26.7917 225.934 26.0917 225.818 25.225C225.651 24.4417 225.568 23.3417 225.568 21.925C225.568 21.3083 225.601 20.4833 225.668 19.45L224.468 19.35ZM245.692 26.8C245.692 27.1667 245.492 27.475 245.092 27.725C244.709 27.975 244.351 28.1 244.017 28.1C243.384 28.1 242.876 28.025 242.492 27.875C242.126 27.7083 241.784 27.4083 241.467 26.975C241.034 27.3583 240.442 27.65 239.692 27.85C238.942 28.0333 238.251 28.125 237.617 28.125C236.584 28.125 235.734 27.85 235.067 27.3C234.401 26.7333 234.067 25.9083 234.067 24.825C234.067 24.3583 234.192 23.9333 234.442 23.55C234.692 23.15 235.034 22.8 235.467 22.5C235.951 22.1833 236.501 21.9417 237.117 21.775C237.734 21.5917 238.376 21.5 239.042 21.5C239.392 21.5 239.809 21.5667 240.292 21.7C240.776 21.8333 241.151 21.975 241.417 22.125V21.725C241.417 20.825 241.201 20.2083 240.767 19.875C240.334 19.525 239.634 19.35 238.667 19.35C238.384 19.35 238.101 19.4083 237.817 19.525C237.551 19.6417 237.242 19.8 236.892 20C236.426 20.25 235.984 20.375 235.567 20.375C235.417 20.375 235.276 20.275 235.142 20.075C235.009 19.8583 234.942 19.6667 234.942 19.5C234.942 19.0167 235.167 18.6 235.617 18.25C236.084 17.9 236.634 17.6417 237.267 17.475C237.901 17.2917 238.467 17.2 238.967 17.2C239.467 17.2 240.042 17.3 240.692 17.5C241.342 17.6833 241.876 17.9417 242.292 18.275C242.792 18.7083 243.176 19.2167 243.442 19.8C243.726 20.3667 243.867 20.9917 243.867 21.675C243.867 21.8917 243.851 22.2167 243.817 22.65C243.784 23.1167 243.767 23.5167 243.767 23.85C243.767 24 243.751 24.225 243.717 24.525C243.684 24.8917 243.667 25.1833 243.667 25.4C243.667 25.6 243.742 25.775 243.892 25.925C244.042 26.0583 244.217 26.125 244.417 26.125L245.117 26.1C245.301 26.1 245.442 26.1667 245.542 26.3C245.642 26.4333 245.692 26.6 245.692 26.8ZM237.642 26.15C238.359 26.15 238.959 26.075 239.442 25.925C239.926 25.775 240.509 25.5 241.192 25.1C241.259 24.8167 241.301 24.4417 241.317 23.975C240.401 23.5417 239.642 23.325 239.042 23.325C238.359 23.325 237.751 23.45 237.217 23.7C236.684 23.95 236.417 24.3917 236.417 25.025C236.417 25.3417 236.551 25.6083 236.817 25.825C237.084 26.0417 237.359 26.15 237.642 26.15ZM256.729 19.65C256.729 20.3833 256.354 20.75 255.604 20.75C255.354 20.75 255.146 20.6917 254.979 20.575C254.813 20.4583 254.629 20.2833 254.429 20.05C253.929 19.5 253.496 19.225 253.129 19.225C252.646 19.225 252.171 19.3667 251.704 19.65C251.254 19.9333 250.888 20.3333 250.604 20.85C250.321 21.3667 250.179 21.9417 250.179 22.575C250.179 23.275 250.313 23.8583 250.579 24.325C250.863 24.7917 251.296 25.1917 251.879 25.525C252.096 25.6417 252.346 25.7333 252.629 25.8C252.929 25.8667 253.188 25.9 253.404 25.9C253.888 25.9 254.496 25.7083 255.229 25.325C255.496 25.1917 255.721 25.0917 255.904 25.025C256.088 24.9583 256.279 24.925 256.479 24.925C256.663 24.925 256.871 25.0083 257.104 25.175C257.338 25.3417 257.454 25.55 257.454 25.8C257.454 26.3 257.221 26.725 256.754 27.075C256.288 27.4083 255.713 27.6667 255.029 27.85C254.363 28.0167 253.721 28.1 253.104 28.1C252.121 28.1 251.204 27.875 250.354 27.425C249.521 26.975 248.854 26.3583 248.354 25.575C247.854 24.775 247.604 23.875 247.604 22.875C247.604 21.8083 247.846 20.8333 248.329 19.95C248.813 19.0667 249.463 18.375 250.279 17.875C251.096 17.375 251.988 17.125 252.954 17.125C253.504 17.125 254.071 17.225 254.654 17.425C255.238 17.625 255.729 17.9167 256.129 18.3C256.529 18.6833 256.729 19.1333 256.729 19.65ZM270.098 25.725C270.381 25.9417 270.573 26.15 270.673 26.35C270.773 26.55 270.823 26.8 270.823 27.1C270.823 27.35 270.69 27.5833 270.423 27.8C270.173 28 269.94 28.1 269.723 28.1C269.54 28.1 269.323 28.0417 269.073 27.925C268.823 27.8083 268.631 27.675 268.498 27.525C268.315 27.375 267.956 27.0083 267.423 26.425C266.906 25.8417 266.523 25.3833 266.273 25.05C265.673 24.3 265.373 23.925 265.373 23.925L264.498 22.85L262.898 24.15L262.998 26.875C262.998 27.325 262.881 27.6417 262.648 27.825C262.431 28.0083 262.215 28.1 261.998 28.1C261.681 28.1 261.398 28.0417 261.148 27.925C260.915 27.8083 260.773 27.675 260.723 27.525C260.54 26.8583 260.448 25.9833 260.448 24.9C260.448 22.8667 260.481 21.2417 260.548 20.025C260.615 18.5083 260.648 17.075 260.648 15.725C260.648 15.3083 260.598 14.7333 260.498 14C260.481 13.85 260.456 13.6083 260.423 13.275C260.39 12.9417 260.373 12.6417 260.373 12.375C260.373 11.9917 260.498 11.6917 260.748 11.475C261.015 11.2583 261.356 11.15 261.773 11.15C262.106 11.15 262.373 11.2583 262.573 11.475C262.79 11.675 262.898 11.9583 262.898 12.325C262.898 12.875 262.915 13.6 262.948 14.5C262.981 15.4 262.998 16.0583 262.998 16.475C262.998 16.9917 262.981 17.6833 262.948 18.55C262.915 19.0167 262.898 19.3667 262.898 19.6C262.898 20.3333 262.906 20.9417 262.923 21.425C263.523 20.8083 264.323 20.0917 265.323 19.275C266.34 18.4417 267.131 17.8583 267.698 17.525C268.331 17.1417 268.715 16.95 268.848 16.95C269.198 16.95 269.498 17.025 269.748 17.175C269.998 17.325 270.123 17.55 270.123 17.85C270.123 18.15 270.081 18.3833 269.998 18.55C269.915 18.7 269.765 18.8583 269.548 19.025L266.323 21.375C267.04 22.2583 267.781 23.1583 268.548 24.075C269.315 24.975 269.831 25.525 270.098 25.725Z" fill="black"/>
<rect x="1" y="9" width="38.5455" height="38.5455" rx="3" fill="#F1F8FF"/>
<rect x="1" y="9" width="38.5455" height="38.5455" rx="3" stroke="white" stroke-width="2"/>
<rect x="1" y="9" width="38.5455" height="38.5455" rx="3" stroke="#454545" stroke-opacity="0.42" stroke-width="2"/>
<rect x="39.7441" y="9" width="38.5455" height="38.5455" rx="3" fill="#F1F8FF"/>
<rect x="39.7441" y="9" width="38.5455" height="38.5455" rx="3" stroke="white" stroke-width="2"/>
<rect x="39.7441" y="9" width="38.5455" height="38.5455" rx="3" stroke="#454545" stroke-opacity="0.42" stroke-width="2"/>
<rect x="1" y="47.7437" width="38.5455" height="38.5455" rx="3" fill="#F1F8FF"/>
<rect x="1" y="47.7437" width="38.5455" height="38.5455" rx="3" stroke="white" stroke-width="2"/>
<rect x="1" y="47.7437" width="38.5455" height="38.5455" rx="3" stroke="#454545" stroke-opacity="0.42" stroke-width="2"/>
<rect x="39.7441" y="47.7437" width="38.5455" height="38.5455" rx="3" fill="#F1F8FF"/>
<rect x="39.7441" y="47.7437" width="38.5455" height="38.5455" rx="3" stroke="white" stroke-width="2"/>
<rect x="39.7441" y="47.7437" width="38.5455" height="38.5455" rx="3" stroke="#454545" stroke-opacity="0.42" stroke-width="2"/>
<rect x="118" y="9" width="38.5455" height="38.5455" rx="3" fill="#BCE5FF"/>
<rect x="118" y="9" width="38.5455" height="38.5455" rx="3" stroke="white" stroke-width="2"/>
<rect x="118" y="9" width="38.5455" height="38.5455" rx="3" stroke="#454545" stroke-opacity="0.42" stroke-width="2"/>
<rect x="118" y="47.7437" width="38.5455" height="38.5455" rx="3" fill="#BCE5FF"/>
<rect x="118" y="47.7437" width="38.5455" height="38.5455" rx="3" stroke="white" stroke-width="2"/>
<rect x="118" y="47.7437" width="38.5455" height="38.5455" rx="3" stroke="#454545" stroke-opacity="0.42" stroke-width="2"/>
<path d="M22.7521 23.5634V38.1089H20.1172V26.1274H20.032L16.63 28.3006V25.8859L20.245 23.5634H22.7521Z" fill="black"/>
<path d="M137.345 38.3078C136.322 38.3078 135.413 38.1326 134.618 37.7822C133.827 37.4318 133.202 36.9441 132.743 36.3191C132.284 35.6941 132.04 34.972 132.011 34.1529H134.682C134.706 34.5459 134.836 34.8892 135.072 35.1828C135.309 35.4716 135.624 35.6965 136.017 35.8575C136.41 36.0185 136.85 36.0989 137.338 36.0989C137.859 36.0989 138.321 36.009 138.723 35.8291C139.125 35.6444 139.44 35.3887 139.668 35.062C139.895 34.7353 140.006 34.3589 140.001 33.9328C140.006 33.4924 139.893 33.1042 139.661 32.768C139.429 32.4318 139.092 32.169 138.652 31.9796C138.216 31.7902 137.691 31.6955 137.075 31.6955H135.79V29.6643H137.075C137.582 29.6643 138.025 29.5767 138.403 29.4015C138.787 29.2263 139.088 28.9801 139.305 28.6629C139.523 28.3409 139.63 27.9692 139.625 27.5478C139.63 27.1359 139.537 26.7784 139.348 26.4754C139.163 26.1676 138.901 25.9285 138.56 25.758C138.224 25.5876 137.828 25.5024 137.374 25.5024C136.929 25.5024 136.517 25.5828 136.138 25.7438C135.759 25.9048 135.454 26.1345 135.222 26.4328C134.99 26.7263 134.866 27.0767 134.852 27.4839H132.317C132.336 26.6695 132.57 25.9545 133.02 25.339C133.474 24.7187 134.081 24.2358 134.838 23.8901C135.596 23.5398 136.446 23.3646 137.388 23.3646C138.358 23.3646 139.201 23.5469 139.916 23.9114C140.636 24.2713 141.192 24.7566 141.585 25.3674C141.978 25.9782 142.175 26.6529 142.175 27.3916C142.179 28.2107 141.938 28.8972 141.45 29.4512C140.967 30.0052 140.333 30.3674 139.547 30.5379V30.6515C140.57 30.7935 141.353 31.1723 141.898 31.7879C142.447 32.3987 142.719 33.1586 142.715 34.0677C142.715 34.8821 142.483 35.6113 142.018 36.2552C141.559 36.8944 140.925 37.3963 140.115 37.7609C139.31 38.1255 138.387 38.3078 137.345 38.3078Z" fill="black"/>
<path d="M54.1719 38.1089V36.2055L59.2216 31.2552C59.7046 30.7675 60.107 30.3343 60.429 29.9555C60.751 29.5767 60.9924 29.2097 61.1534 28.8546C61.3144 28.4995 61.3949 28.1207 61.3949 27.7183C61.3949 27.259 61.2907 26.866 61.0824 26.5393C60.8741 26.2078 60.5876 25.9522 60.223 25.7722C59.8584 25.5923 59.4441 25.5024 58.9801 25.5024C58.5019 25.5024 58.0829 25.6018 57.723 25.8006C57.3632 25.9948 57.0838 26.2718 56.885 26.6316C56.6908 26.9915 56.5938 27.42 56.5938 27.9171H54.0867C54.0867 26.9938 54.2974 26.1913 54.7188 25.5095C55.1402 24.8276 55.7202 24.2997 56.4588 23.9256C57.2022 23.5516 58.0545 23.3646 59.0156 23.3646C59.991 23.3646 60.848 23.5469 61.5867 23.9114C62.3253 24.276 62.8982 24.7756 63.3054 25.41C63.7173 26.0445 63.9233 26.7689 63.9233 27.5833C63.9233 28.1278 63.8191 28.6629 63.6108 29.1884C63.4025 29.714 63.0355 30.2964 62.51 30.9356C61.9891 31.5748 61.2576 32.3489 60.3154 33.258L57.8083 35.8078V35.9072H64.1435V38.1089H54.1719Z" fill="black"/>
<path d="M22.7521 62.3071V76.8525H20.1172V64.871H20.032L16.63 67.0443V64.6295L20.245 62.3071H22.7521Z" fill="black"/>
<path d="M137.345 77.0514C136.322 77.0514 135.413 76.8762 134.618 76.5258C133.827 76.1755 133.202 75.6878 132.743 75.0628C132.284 74.4378 132.04 73.7157 132.011 72.8966H134.682C134.706 73.2896 134.836 73.6328 135.072 73.9264C135.309 74.2152 135.624 74.4401 136.017 74.6011C136.41 74.7621 136.85 74.8426 137.338 74.8426C137.859 74.8426 138.321 74.7526 138.723 74.5727C139.125 74.3881 139.44 74.1324 139.668 73.8057C139.895 73.479 140.006 73.1025 140.001 72.6764C140.006 72.2361 139.893 71.8478 139.661 71.5116C139.429 71.1755 139.092 70.9127 138.652 70.7233C138.216 70.5339 137.691 70.4392 137.075 70.4392H135.79V68.4079H137.075C137.582 68.4079 138.025 68.3203 138.403 68.1452C138.787 67.97 139.088 67.7238 139.305 67.4065C139.523 67.0845 139.63 66.7129 139.625 66.2915C139.63 65.8795 139.537 65.522 139.348 65.219C139.163 64.9113 138.901 64.6721 138.56 64.5017C138.224 64.3312 137.828 64.246 137.374 64.246C136.929 64.246 136.517 64.3265 136.138 64.4875C135.759 64.6485 135.454 64.8781 135.222 65.1764C134.99 65.47 134.866 65.8203 134.852 66.2275H132.317C132.336 65.4131 132.57 64.6982 133.02 64.0827C133.474 63.4624 134.081 62.9794 134.838 62.6338C135.596 62.2834 136.446 62.1082 137.388 62.1082C138.358 62.1082 139.201 62.2905 139.916 62.6551C140.636 63.0149 141.192 63.5003 141.585 64.1111C141.978 64.7219 142.175 65.3966 142.175 66.1352C142.179 66.9543 141.938 67.6409 141.45 68.1949C140.967 68.7488 140.333 69.1111 139.547 69.2815V69.3952C140.57 69.5372 141.353 69.916 141.898 70.5315C142.447 71.1423 142.719 71.9023 142.715 72.8113C142.715 73.6257 142.483 74.3549 142.018 74.9988C141.559 75.6381 140.925 76.1399 140.115 76.5045C139.31 76.8691 138.387 77.0514 137.345 77.0514Z" fill="black"/>
<path d="M54.1719 76.8525V74.9491L59.2216 69.9988C59.7046 69.5112 60.107 69.0779 60.429 68.6991C60.751 68.3203 60.9924 67.9534 61.1534 67.5983C61.3144 67.2432 61.3949 66.8644 61.3949 66.4619C61.3949 66.0026 61.2907 65.6096 61.0824 65.2829C60.8741 64.9515 60.5876 64.6958 60.223 64.5159C59.8584 64.336 59.4441 64.246 58.9801 64.246C58.5019 64.246 58.0829 64.3454 57.723 64.5443C57.3632 64.7384 57.0838 65.0154 56.885 65.3753C56.6908 65.7351 56.5938 66.1636 56.5938 66.6608H54.0867C54.0867 65.7375 54.2974 64.9349 54.7188 64.2531C55.1402 63.5713 55.7202 63.0434 56.4588 62.6693C57.2022 62.2952 58.0545 62.1082 59.0156 62.1082C59.991 62.1082 60.848 62.2905 61.5867 62.6551C62.3253 63.0197 62.8982 63.5192 63.3054 64.1537C63.7173 64.7881 63.9233 65.5126 63.9233 66.327C63.9233 66.8715 63.8191 67.4065 63.6108 67.9321C63.4025 68.4577 63.0355 69.04 62.51 69.6792C61.9891 70.3184 61.2576 71.0926 60.3154 72.0017L57.8083 74.5514V74.6508H64.1435V76.8525H54.1719Z" fill="black"/>
<path d="M96.1667 54.8569V40.2745H99.8535V54.8569H96.1667ZM90.7189 49.4091V45.7223H105.301V49.4091H90.7189Z" fill="black"/>
</svg>
