<svg width="431" height="193" viewBox="0 0 431 193" fill="none" xmlns="http://www.w3.org/2000/svg">
<g clip-path="url(#clip0_1208_895)">
<rect width="431" height="193" rx="4" fill="white"/>
<g clip-path="url(#clip1_1208_895)">
<rect width="431" height="41" fill="white" fill-opacity="0.01"/>
<mask id="path-3-inside-1_1208_895" fill="white">
<path d="M0 0H78V41H0V0Z"/>
</mask>
<path d="M0 0H78V41H0V0Z" fill="black" fill-opacity="0.06"/>
<path d="M0 0V-1H-1V0H0ZM0 1H78V-1H0V1ZM1 41V0H-1V41H1Z" fill="#B9B9B9" mask="url(#path-3-inside-1_1208_895)"/>
<rect width="78" height="41" fill="black" fill-opacity="0.13"/>
<path d="M27.9453 21.968H30.1213V27.424H27.9453V21.968ZM33.0653 21.968H35.2413V27.424H33.0653V21.968ZM24.9213 20.848H38.3453V22.56H24.9213V20.848ZM31.5933 13.104C34.7613 13.104 36.9533 14.4 36.9533 16.432C36.9533 18.432 34.7613 19.728 31.5933 19.728C28.4413 19.728 26.2493 18.432 26.2493 16.432C26.2493 14.4 28.4413 13.104 31.5933 13.104ZM31.5933 14.8C29.6573 14.8 28.4253 15.376 28.4253 16.432C28.4253 17.472 29.6573 18.048 31.5933 18.048C33.5453 18.048 34.7613 17.472 34.7613 16.432C34.7613 15.376 33.5453 14.8 31.5933 14.8ZM48.008 15.856H50.728V17.552H48.008V15.856ZM47.976 18.816H50.68V20.512H47.976V18.816ZM39.688 13.936H47.816V15.616H39.688V13.936ZM43.848 16.128C45.88 16.128 47.32 17.248 47.32 18.896C47.32 20.544 45.88 21.664 43.848 21.664C41.816 21.664 40.376 20.544 40.376 18.896C40.376 17.248 41.816 16.128 43.848 16.128ZM43.848 17.712C42.952 17.712 42.36 18.112 42.36 18.896C42.36 19.68 42.952 20.08 43.848 20.08C44.728 20.08 45.352 19.68 45.352 18.896C45.352 18.112 44.728 17.712 43.848 17.712ZM42.792 12.48H44.92V15.104H42.792V12.48ZM49.912 12.608H52.04V22.048H49.912V12.608ZM47.032 22.224C50.152 22.224 52.104 23.2 52.104 24.832C52.104 26.464 50.152 27.424 47.032 27.424C43.896 27.424 41.96 26.464 41.96 24.832C41.96 23.2 43.896 22.224 47.032 22.224ZM47.032 23.856C45.208 23.856 44.2 24.144 44.2 24.832C44.2 25.504 45.208 25.824 47.032 25.824C48.856 25.824 49.848 25.504 49.848 24.832C49.848 24.144 48.856 23.856 47.032 23.856Z" fill="black"/>
<mask id="path-6-inside-2_1208_895" fill="white">
<path d="M78 0H259V41H78V0Z"/>
</mask>
<path d="M78 0H259V41H78V0Z" fill="black" fill-opacity="0.06"/>
<path d="M78 0V-1H77V0H78ZM78 1H259V-1H78V1ZM79 41V0H77V41H79Z" fill="#B9B9B9" mask="url(#path-6-inside-2_1208_895)"/>
<rect width="120" height="41" transform="translate(78)" fill="black" fill-opacity="0.13"/>
<path d="M119.782 12.608H121.814V27.424H119.782V12.608ZM114.15 18.016H117.59V19.728H114.15V18.016ZM116.726 12.864H118.71V26.768H116.726V12.864ZM109.51 22.384H110.534C112.63 22.384 114.022 22.336 115.654 22.016L115.814 23.744C114.166 24.08 112.694 24.144 110.534 24.144H109.51V22.384ZM109.51 14.272H115.158V15.968H111.606V23.12H109.51V14.272ZM133.956 12.592H136.1V27.456H133.956V12.592ZM128.116 13.632C130.356 13.632 132.004 15.68 132.004 18.912C132.004 22.176 130.356 24.224 128.116 24.224C125.876 24.224 124.228 22.176 124.228 18.912C124.228 15.68 125.876 13.632 128.116 13.632ZM128.116 15.568C127.012 15.568 126.26 16.736 126.26 18.912C126.26 21.12 127.012 22.304 128.116 22.304C129.22 22.304 129.956 21.12 129.956 18.912C129.956 16.736 129.22 15.568 128.116 15.568ZM148.835 12.592H150.947V27.456H148.835V12.592ZM146.291 17.808H149.075V19.536H146.291V17.808ZM139.187 22.384H140.371C142.819 22.384 144.643 22.352 146.739 22.016L146.931 23.712C144.787 24.048 142.867 24.112 140.371 24.112H139.187V22.384ZM139.187 13.84H146.051V15.568H141.299V22.928H139.187V13.84ZM140.819 17.968H145.539V19.632H140.819V17.968ZM160.227 21.968H162.403V27.424H160.227V21.968ZM165.347 21.968H167.523V27.424H165.347V21.968ZM157.203 20.848H170.627V22.56H157.203V20.848ZM163.875 13.104C167.043 13.104 169.235 14.4 169.235 16.432C169.235 18.432 167.043 19.728 163.875 19.728C160.723 19.728 158.531 18.432 158.531 16.432C158.531 14.4 160.723 13.104 163.875 13.104ZM163.875 14.8C161.939 14.8 160.707 15.376 160.707 16.432C160.707 17.472 161.939 18.048 163.875 18.048C165.827 18.048 167.043 17.472 167.043 16.432C167.043 15.376 165.827 14.8 163.875 14.8ZM180.289 15.856H183.009V17.552H180.289V15.856ZM180.257 18.816H182.961V20.512H180.257V18.816ZM171.969 13.936H180.097V15.616H171.969V13.936ZM176.129 16.128C178.161 16.128 179.601 17.248 179.601 18.896C179.601 20.544 178.161 21.664 176.129 21.664C174.097 21.664 172.657 20.544 172.657 18.896C172.657 17.248 174.097 16.128 176.129 16.128ZM176.129 17.712C175.233 17.712 174.641 18.112 174.641 18.896C174.641 19.68 175.233 20.08 176.129 20.08C177.009 20.08 177.633 19.68 177.633 18.896C177.633 18.112 177.009 17.712 176.129 17.712ZM175.073 12.48H177.201V15.104H175.073V12.48ZM182.193 12.608H184.321V22.048H182.193V12.608ZM179.313 22.224C182.433 22.224 184.385 23.2 184.385 24.832C184.385 26.464 182.433 27.424 179.313 27.424C176.177 27.424 174.241 26.464 174.241 24.832C174.241 23.2 176.177 22.224 179.313 22.224ZM179.313 23.856C177.489 23.856 176.481 24.144 176.481 24.832C176.481 25.504 177.489 25.824 179.313 25.824C181.137 25.824 182.129 25.504 182.129 24.832C182.129 24.144 181.137 23.856 179.313 23.856Z" fill="black"/>
<mask id="path-9-inside-3_1208_895" fill="white">
<path d="M259 0H431V41H259V0Z"/>
</mask>
<path d="M259 0H431V41H259V0Z" fill="black" fill-opacity="0.2"/>
<path d="M259 0V-1H258V0H259ZM259 1H431V-1H259V1ZM260 41V0H258V41H260Z" fill="#B9B9B9" mask="url(#path-9-inside-3_1208_895)"/>
<path d="M331.594 16.192H334.41V17.92H331.594V16.192ZM333.834 12.608H335.962V21.408H333.834V12.608ZM330.938 21.728C334.074 21.728 336.01 22.8 336.01 24.592C336.01 26.4 334.074 27.44 330.938 27.44C327.802 27.44 325.866 26.4 325.866 24.592C325.866 22.8 327.802 21.728 330.938 21.728ZM330.938 23.344C329.018 23.344 327.994 23.744 327.994 24.592C327.994 25.424 329.018 25.824 330.938 25.824C332.874 25.824 333.898 25.424 333.898 24.592C333.898 23.744 332.874 23.344 330.938 23.344ZM326.986 14.096H328.714V15.024C328.714 17.856 327.402 20.448 324.57 21.408L323.482 19.728C325.93 18.896 326.986 16.928 326.986 15.024V14.096ZM327.434 14.096H329.146V15.024C329.146 16.768 330.154 18.576 332.49 19.36L331.45 21.04C328.698 20.128 327.434 17.664 327.434 15.024V14.096ZM324.058 13.504H332.026V15.2H324.058V13.504ZM339.033 13.344H346.217V19.616H339.033V13.344ZM344.137 15.008H341.113V17.952H344.137V15.008ZM348.457 12.608H350.601V20.08H348.457V12.608ZM340.713 20.72H350.601V24.752H342.825V26.256H340.729V23.232H348.489V22.352H340.713V20.72ZM340.729 25.68H350.969V27.328H340.729V25.68ZM362.535 12.608H364.663V21.536H362.535V12.608ZM364.071 16.256H366.631V18H364.071V16.256ZM355.031 22.176H364.663V27.264H355.031V22.176ZM362.583 23.856H357.127V25.584H362.583V23.856ZM352.999 13.936H361.719V15.616H352.999V13.936ZM357.367 16.048C359.511 16.048 360.999 17.136 360.999 18.72C360.999 20.32 359.511 21.376 357.367 21.376C355.207 21.376 353.719 20.32 353.719 18.72C353.719 17.136 355.207 16.048 357.367 16.048ZM357.367 17.632C356.407 17.632 355.767 18 355.767 18.72C355.767 19.44 356.407 19.824 357.367 19.824C358.311 19.824 358.967 19.44 358.967 18.72C358.967 18 358.311 17.632 357.367 17.632ZM356.295 12.512H358.423V14.848H356.295V12.512Z" fill="black"/>
</g>
<g clip-path="url(#clip2_1208_895)">
<rect width="431" height="38" transform="translate(0 41)" fill="white" fill-opacity="0.01"/>
<mask id="path-12-inside-4_1208_895" fill="white">
<path d="M0 41H78V79H0V41Z"/>
</mask>
<path d="M0 41H78V79H0V41Z" fill="black" fill-opacity="0.06"/>
<path d="M0 41V40H-1V41H0ZM0 42H78V40H0V42ZM1 79V41H-1V79H1Z" fill="#B9B9B9" mask="url(#path-12-inside-4_1208_895)"/>
<path d="M13.0739 65V57.3636H14.2472V65H13.0739ZM13.6705 56.0909C13.4418 56.0909 13.2446 56.013 13.0788 55.8572C12.9164 55.7015 12.8352 55.5142 12.8352 55.2955C12.8352 55.0767 12.9164 54.8894 13.0788 54.7337C13.2446 54.5779 13.4418 54.5 13.6705 54.5C13.8991 54.5 14.0947 54.5779 14.2571 54.7337C14.4228 54.8894 14.5057 55.0767 14.5057 55.2955C14.5057 55.5142 14.4228 55.7015 14.2571 55.8572C14.0947 56.013 13.8991 56.0909 13.6705 56.0909ZM17.5694 60.4062V65H16.3961V57.3636H17.5297V58.5568H17.6291C17.8081 58.169 18.0798 57.8575 18.4444 57.6222C18.809 57.3835 19.2797 57.2642 19.8564 57.2642C20.3734 57.2642 20.8258 57.3703 21.2136 57.5824C21.6014 57.7912 21.903 58.1094 22.1184 58.5369C22.3339 58.9612 22.4416 59.4981 22.4416 60.1477V65H21.2683V60.2273C21.2683 59.6274 21.1125 59.16 20.801 58.8253C20.4894 58.4872 20.0618 58.3182 19.5183 58.3182C19.1438 58.3182 18.809 58.3994 18.514 58.5618C18.2224 58.7242 17.992 58.9612 17.823 59.2727C17.6539 59.5843 17.5694 59.9621 17.5694 60.4062ZM27.9066 57.3636V58.358H23.9492V57.3636H27.9066ZM25.1026 55.5341H26.2759V62.8125C26.2759 63.1439 26.324 63.3925 26.4201 63.5582C26.5195 63.7206 26.6455 63.83 26.7979 63.8864C26.9537 63.9394 27.1178 63.9659 27.2901 63.9659C27.4194 63.9659 27.5255 63.9593 27.6083 63.946C27.6912 63.9295 27.7575 63.9162 27.8072 63.9062L28.0458 64.9602C27.9663 64.9901 27.8552 65.0199 27.7127 65.0497C27.5702 65.0829 27.3896 65.0994 27.1708 65.0994C26.8394 65.0994 26.5146 65.0282 26.1964 64.8857C25.8815 64.7431 25.6197 64.526 25.4109 64.2344C25.2054 63.9427 25.1026 63.5748 25.1026 63.1307V55.5341ZM32.913 65.1392C32.2302 65.1392 31.627 65.0182 31.1033 64.7763C30.583 64.531 30.177 64.1946 29.8853 63.767C29.5936 63.3362 29.4495 62.8456 29.4528 62.2955C29.4495 61.8646 29.534 61.4669 29.7063 61.1023C29.8787 60.7344 30.114 60.4278 30.4123 60.1825C30.7139 59.9339 31.0503 59.7765 31.4215 59.7102V59.6506C30.9343 59.5246 30.5465 59.2512 30.2582 58.8303C29.9698 58.406 29.8273 57.9238 29.8306 57.3835C29.8273 56.8665 29.9582 56.4041 30.2234 55.9964C30.4885 55.5888 30.8531 55.2673 31.3171 55.032C31.7844 54.7966 32.3164 54.679 32.913 54.679C33.503 54.679 34.0299 54.7966 34.494 55.032C34.958 55.2673 35.3226 55.5888 35.5877 55.9964C35.8562 56.4041 35.9921 56.8665 35.9954 57.3835C35.9921 57.9238 35.8446 58.406 35.5529 58.8303C35.2646 59.2512 34.8817 59.5246 34.4045 59.6506V59.7102C34.7724 59.7765 35.1038 59.9339 35.3988 60.1825C35.6938 60.4278 35.9291 60.7344 36.1048 61.1023C36.2804 61.4669 36.3699 61.8646 36.3732 62.2955C36.3699 62.8456 36.2208 63.3362 35.9258 63.767C35.6341 64.1946 35.2281 64.531 34.7077 64.7763C34.1907 65.0182 33.5924 65.1392 32.913 65.1392ZM32.913 64.0455C33.3737 64.0455 33.7714 63.9709 34.1062 63.8217C34.4409 63.6726 34.6995 63.4621 34.8817 63.1903C35.064 62.9186 35.1568 62.6004 35.1602 62.2358C35.1568 61.8513 35.0574 61.5116 34.8619 61.2166C34.6663 60.9216 34.3995 60.6896 34.0614 60.5206C33.7267 60.3516 33.3439 60.267 32.913 60.267C32.4788 60.267 32.091 60.3516 31.7496 60.5206C31.4116 60.6896 31.1448 60.9216 30.9492 61.2166C30.757 61.5116 30.6625 61.8513 30.6658 62.2358C30.6625 62.6004 30.7504 62.9186 30.9293 63.1903C31.1116 63.4621 31.3718 63.6726 31.7099 63.8217C32.0479 63.9709 32.449 64.0455 32.913 64.0455ZM32.913 59.2131C33.2776 59.2131 33.6007 59.1402 33.8825 58.9943C34.1675 58.8485 34.3912 58.6446 34.5536 58.3828C34.716 58.121 34.7989 57.8144 34.8022 57.4631C34.7989 57.1184 34.7177 56.8184 34.5586 56.5632C34.3995 56.3047 34.1791 56.1058 33.8974 55.9666C33.6156 55.8241 33.2875 55.7528 32.913 55.7528C32.5318 55.7528 32.1987 55.8241 31.9137 55.9666C31.6287 56.1058 31.4083 56.3047 31.2525 56.5632C31.0967 56.8184 31.0205 57.1184 31.0238 57.4631C31.0205 57.8144 31.0984 58.121 31.2575 58.3828C31.4199 58.6446 31.6436 58.8485 31.9286 58.9943C32.2137 59.1402 32.5418 59.2131 32.913 59.2131Z" fill="black"/>
<mask id="path-15-inside-5_1208_895" fill="white">
<path d="M78 41H259V79H78V41Z"/>
</mask>
<path d="M78 41H259V79H78V41Z" fill="white" fill-opacity="0.01"/>
<path d="M78 41V40H77V41H78ZM78 42H259V40H78V42ZM79 79V41H77V79H79Z" fill="#B9B9B9" mask="url(#path-15-inside-5_1208_895)"/>
<path d="M97.7955 59.3523V60.4659H91.4318V59.3523H97.7955ZM103.862 54.8182V65H102.629V56.1108H102.569L100.084 57.7614V56.5085L102.629 54.8182H103.862ZM106.79 65V64.1051L110.151 60.4261C110.546 59.9953 110.87 59.6207 111.126 59.3026C111.381 58.9811 111.57 58.6795 111.692 58.3977C111.818 58.1127 111.881 57.8144 111.881 57.5028C111.881 57.1449 111.795 56.835 111.623 56.5732C111.454 56.3113 111.222 56.1091 110.927 55.9666C110.632 55.8241 110.3 55.7528 109.932 55.7528C109.541 55.7528 109.2 55.834 108.908 55.9964C108.62 56.1555 108.396 56.3793 108.237 56.6676C108.081 56.956 108.003 57.294 108.003 57.6818H106.83C106.83 57.0852 106.968 56.5616 107.243 56.1108C107.518 55.66 107.892 55.3087 108.366 55.0568C108.844 54.8049 109.379 54.679 109.972 54.679C110.569 54.679 111.097 54.8049 111.558 55.0568C112.019 55.3087 112.38 55.6484 112.642 56.076C112.904 56.5036 113.035 56.9792 113.035 57.5028C113.035 57.8774 112.967 58.2436 112.831 58.6016C112.698 58.9562 112.466 59.3523 112.135 59.7898C111.807 60.224 111.351 60.7543 110.768 61.3807L108.481 63.8267V63.9062H113.214V65H106.79ZM118.528 65.1392C117.845 65.1392 117.242 65.0182 116.719 64.7763C116.198 64.531 115.792 64.1946 115.501 63.767C115.209 63.3362 115.065 62.8456 115.068 62.2955C115.065 61.8646 115.149 61.4669 115.322 61.1023C115.494 60.7344 115.729 60.4278 116.028 60.1825C116.329 59.9339 116.666 59.7765 117.037 59.7102V59.6506C116.55 59.5246 116.162 59.2512 115.873 58.8303C115.585 58.406 115.443 57.9238 115.446 57.3835C115.443 56.8665 115.573 56.4041 115.839 55.9964C116.104 55.5888 116.468 55.2673 116.932 55.032C117.4 54.7966 117.932 54.679 118.528 54.679C119.118 54.679 119.645 54.7966 120.109 55.032C120.573 55.2673 120.938 55.5888 121.203 55.9964C121.471 56.4041 121.607 56.8665 121.611 57.3835C121.607 57.9238 121.46 58.406 121.168 58.8303C120.88 59.2512 120.497 59.5246 120.02 59.6506V59.7102C120.388 59.7765 120.719 59.9339 121.014 60.1825C121.309 60.4278 121.544 60.7344 121.72 61.1023C121.896 61.4669 121.985 61.8646 121.988 62.2955C121.985 62.8456 121.836 63.3362 121.541 63.767C121.249 64.1946 120.843 64.531 120.323 64.7763C119.806 65.0182 119.208 65.1392 118.528 65.1392ZM118.528 64.0455C118.989 64.0455 119.387 63.9709 119.721 63.8217C120.056 63.6726 120.315 63.4621 120.497 63.1903C120.679 62.9186 120.772 62.6004 120.775 62.2358C120.772 61.8513 120.673 61.5116 120.477 61.2166C120.282 60.9216 120.015 60.6896 119.677 60.5206C119.342 60.3516 118.959 60.267 118.528 60.267C118.094 60.267 117.706 60.3516 117.365 60.5206C117.027 60.6896 116.76 60.9216 116.564 61.2166C116.372 61.5116 116.278 61.8513 116.281 62.2358C116.278 62.6004 116.366 62.9186 116.545 63.1903C116.727 63.4621 116.987 63.6726 117.325 63.8217C117.663 63.9709 118.064 64.0455 118.528 64.0455ZM118.528 59.2131C118.893 59.2131 119.216 59.1402 119.498 58.9943C119.783 58.8485 120.006 58.6446 120.169 58.3828C120.331 58.121 120.414 57.8144 120.417 57.4631C120.414 57.1184 120.333 56.8184 120.174 56.5632C120.015 56.3047 119.794 56.1058 119.513 55.9666C119.231 55.8241 118.903 55.7528 118.528 55.7528C118.147 55.7528 117.814 55.8241 117.529 55.9666C117.244 56.1058 117.023 56.3047 116.868 56.5632C116.712 56.8184 116.636 57.1184 116.639 57.4631C116.636 57.8144 116.714 58.121 116.873 58.3828C117.035 58.6446 117.259 58.8485 117.544 58.9943C117.829 59.1402 118.157 59.2131 118.528 59.2131ZM123.993 60.9233C123.983 60.3731 124.073 59.9306 124.262 59.5959C124.451 59.2611 124.696 59.0175 124.998 58.8651C125.302 58.7126 125.624 58.6364 125.962 58.6364C126.3 58.6364 126.608 58.7109 126.887 58.8601C127.168 59.0059 127.49 59.2363 127.851 59.5511C128.096 59.7633 128.292 59.9124 128.438 59.9986C128.587 60.0848 128.749 60.1278 128.925 60.1278C129.21 60.1278 129.435 60.0251 129.601 59.8196C129.767 59.6108 129.846 59.3092 129.84 58.9148H130.914C130.924 59.465 130.834 59.9074 130.645 60.2422C130.46 60.5769 130.214 60.8205 129.909 60.973C129.605 61.1255 129.283 61.2017 128.945 61.2017C128.607 61.2017 128.299 61.1288 128.02 60.983C127.742 60.8338 127.42 60.6018 127.056 60.2869C126.814 60.0748 126.618 59.9257 126.469 59.8395C126.32 59.7533 126.158 59.7102 125.982 59.7102C125.713 59.7102 125.491 59.8047 125.316 59.9936C125.143 60.1792 125.06 60.4891 125.067 60.9233H123.993ZM136.702 54.8182V65H135.469V56.1108H135.409L132.923 57.7614V56.5085L135.469 54.8182H136.702ZM139.63 65V64.1051L142.991 60.4261C143.385 59.9953 143.71 59.6207 143.965 59.3026C144.221 58.9811 144.41 58.6795 144.532 58.3977C144.658 58.1127 144.721 57.8144 144.721 57.5028C144.721 57.1449 144.635 56.835 144.463 56.5732C144.294 56.3113 144.061 56.1091 143.767 55.9666C143.472 55.8241 143.14 55.7528 142.772 55.7528C142.381 55.7528 142.04 55.834 141.748 55.9964C141.46 56.1555 141.236 56.3793 141.077 56.6676C140.921 56.956 140.843 57.294 140.843 57.6818H139.67C139.67 57.0852 139.807 56.5616 140.083 56.1108C140.358 55.66 140.732 55.3087 141.206 55.0568C141.683 54.8049 142.219 54.679 142.812 54.679C143.409 54.679 143.937 54.8049 144.398 55.0568C144.859 55.3087 145.22 55.6484 145.482 56.076C145.744 56.5036 145.874 56.9792 145.874 57.5028C145.874 57.8774 145.807 58.2436 145.671 58.6016C145.538 58.9562 145.306 59.3523 144.975 59.7898C144.646 60.224 144.191 60.7543 143.607 61.3807L141.32 63.8267V63.9062H146.053V65H139.63ZM148.425 65L152.979 55.9915V55.9119H147.729V54.8182H154.252V55.9716L149.718 65H148.425Z" fill="black"/>
<mask id="path-18-inside-6_1208_895" fill="white">
<path d="M259 41H431V79H259V41Z"/>
</mask>
<path d="M259 41H431V79H259V41Z" fill="white" fill-opacity="0.01"/>
<path d="M259 41V40H258V41H259ZM259 42H431V40H259V42ZM260 79V41H258V79H260Z" fill="#B9B9B9" mask="url(#path-18-inside-6_1208_895)"/>
<path d="M276.449 60.0881V61.1818H271.994V60.0881H276.449Z" fill="black"/>
</g>
<g clip-path="url(#clip3_1208_895)">
<rect width="431" height="38" transform="translate(0 79)" fill="white" fill-opacity="0.01"/>
<mask id="path-21-inside-7_1208_895" fill="white">
<path d="M0 79H78V117H0V79Z"/>
</mask>
<path d="M0 79H78V117H0V79Z" fill="black" fill-opacity="0.06"/>
<path d="M0 79V78H-1V79H0ZM0 80H78V78H0V80ZM1 117V79H-1V117H1Z" fill="#B9B9B9" mask="url(#path-21-inside-7_1208_895)"/>
<path d="M13.0739 103V95.3636H14.2472V103H13.0739ZM13.6705 94.0909C13.4418 94.0909 13.2446 94.013 13.0788 93.8572C12.9164 93.7015 12.8352 93.5142 12.8352 93.2955C12.8352 93.0767 12.9164 92.8894 13.0788 92.7337C13.2446 92.5779 13.4418 92.5 13.6705 92.5C13.8991 92.5 14.0947 92.5779 14.2571 92.7337C14.4228 92.8894 14.5057 93.0767 14.5057 93.2955C14.5057 93.5142 14.4228 93.7015 14.2571 93.8572C14.0947 94.013 13.8991 94.0909 13.6705 94.0909ZM17.5694 98.4062V103H16.3961V95.3636H17.5297V96.5568H17.6291C17.8081 96.169 18.0798 95.8575 18.4444 95.6222C18.809 95.3835 19.2797 95.2642 19.8564 95.2642C20.3734 95.2642 20.8258 95.3703 21.2136 95.5824C21.6014 95.7912 21.903 96.1094 22.1184 96.5369C22.3339 96.9612 22.4416 97.4981 22.4416 98.1477V103H21.2683V98.2273C21.2683 97.6274 21.1125 97.16 20.801 96.8253C20.4894 96.4872 20.0618 96.3182 19.5183 96.3182C19.1438 96.3182 18.809 96.3994 18.514 96.5618C18.2224 96.7242 17.992 96.9612 17.823 97.2727C17.6539 97.5843 17.5694 97.9621 17.5694 98.4062ZM27.9066 95.3636V96.358H23.9492V95.3636H27.9066ZM25.1026 93.5341H26.2759V100.812C26.2759 101.144 26.324 101.393 26.4201 101.558C26.5195 101.721 26.6455 101.83 26.7979 101.886C26.9537 101.939 27.1178 101.966 27.2901 101.966C27.4194 101.966 27.5255 101.959 27.6083 101.946C27.6912 101.929 27.7575 101.916 27.8072 101.906L28.0458 102.96C27.9663 102.99 27.8552 103.02 27.7127 103.05C27.5702 103.083 27.3896 103.099 27.1708 103.099C26.8394 103.099 26.5146 103.028 26.1964 102.886C25.8815 102.743 25.6197 102.526 25.4109 102.234C25.2054 101.943 25.1026 101.575 25.1026 101.131V93.5341ZM33.2312 92.8182V103H31.9982V94.1108H31.9386L29.4528 95.7614V94.5085L31.9982 92.8182H33.2312ZM39.5401 103.139C39.1225 103.133 38.7049 103.053 38.2873 102.901C37.8697 102.748 37.4885 102.491 37.1438 102.13C36.7991 101.765 36.5224 101.273 36.3136 100.653C36.1048 100.03 36.0004 99.2481 36.0004 98.3068C36.0004 97.4053 36.0849 96.6065 36.2539 95.9105C36.4229 95.2112 36.6682 94.6229 36.9897 94.1456C37.3112 93.665 37.699 93.3004 38.1531 93.0518C38.6104 92.8033 39.1258 92.679 39.6992 92.679C40.2693 92.679 40.7764 92.7933 41.2205 93.022C41.668 93.2474 42.0326 93.5623 42.3143 93.9666C42.596 94.371 42.7783 94.8366 42.8612 95.3636H41.6481C41.5354 94.9062 41.3166 94.5268 40.9918 94.2251C40.667 93.9235 40.2362 93.7727 39.6992 93.7727C38.9104 93.7727 38.2889 94.1158 37.8349 94.8018C37.3841 95.4879 37.1571 96.4508 37.1538 97.6903H37.2333C37.4189 97.4086 37.6393 97.1683 37.8945 96.9695C38.1531 96.7673 38.4381 96.6115 38.7496 96.5021C39.0612 96.3928 39.391 96.3381 39.739 96.3381C40.3223 96.3381 40.8559 96.4839 41.3398 96.7756C41.8237 97.0639 42.2115 97.4633 42.5032 97.9737C42.7949 98.4808 42.9407 99.0625 42.9407 99.7188C42.9407 100.348 42.7998 100.925 42.5181 101.449C42.2364 101.969 41.8403 102.384 41.3299 102.692C40.8228 102.997 40.2262 103.146 39.5401 103.139ZM39.5401 102.045C39.9577 102.045 40.3323 101.941 40.6637 101.732C40.9985 101.523 41.262 101.243 41.4542 100.892C41.6497 100.541 41.7475 100.15 41.7475 99.7188C41.7475 99.2978 41.6531 98.915 41.4641 98.5703C41.2785 98.2223 41.0217 97.9455 40.6935 97.7401C40.3687 97.5346 39.9975 97.4318 39.5799 97.4318C39.265 97.4318 38.9717 97.4948 38.6999 97.6207C38.4281 97.7434 38.1895 97.9124 37.984 98.1278C37.7818 98.3433 37.6228 98.5902 37.5067 98.8686C37.3907 99.1437 37.3327 99.4337 37.3327 99.7386C37.3327 100.143 37.4272 100.521 37.6161 100.872C37.8084 101.223 38.0702 101.507 38.4016 101.722C38.7364 101.938 39.1159 102.045 39.5401 102.045Z" fill="black"/>
<mask id="path-24-inside-8_1208_895" fill="white">
<path d="M78 79H259V117H78V79Z"/>
</mask>
<path d="M78 79H259V117H78V79Z" fill="white" fill-opacity="0.01"/>
<path d="M78 79V78H77V79H78ZM78 80H259V78H78V80ZM79 117V79H77V117H79Z" fill="#B9B9B9" mask="url(#path-24-inside-8_1208_895)"/>
<path d="M97.7955 97.3523V98.4659H91.4318V97.3523H97.7955ZM103.559 103.139C102.903 103.139 102.318 103.027 101.804 102.801C101.293 102.576 100.887 102.263 100.586 101.862C100.287 101.457 100.125 100.988 100.099 100.455H101.351C101.378 100.783 101.491 101.066 101.689 101.305C101.888 101.54 102.148 101.722 102.47 101.852C102.791 101.981 103.148 102.045 103.539 102.045C103.976 102.045 104.364 101.969 104.702 101.817C105.04 101.664 105.305 101.452 105.498 101.18C105.69 100.909 105.786 100.594 105.786 100.236C105.786 99.8613 105.693 99.5315 105.508 99.2464C105.322 98.9581 105.05 98.7327 104.692 98.5703C104.334 98.4079 103.897 98.3267 103.38 98.3267H102.564V97.233H103.38C103.784 97.233 104.139 97.16 104.444 97.0142C104.752 96.8684 104.992 96.6629 105.165 96.3977C105.34 96.1326 105.428 95.821 105.428 95.4631C105.428 95.1184 105.352 94.8184 105.199 94.5632C105.047 94.308 104.831 94.1091 104.553 93.9666C104.278 93.8241 103.953 93.7528 103.579 93.7528C103.227 93.7528 102.896 93.8175 102.584 93.9467C102.276 94.0727 102.024 94.2566 101.829 94.4986C101.633 94.7372 101.527 95.0256 101.51 95.3636H100.317C100.337 94.83 100.498 94.3627 100.8 93.9616C101.101 93.5573 101.496 93.2424 101.983 93.017C102.473 92.7917 103.012 92.679 103.599 92.679C104.228 92.679 104.769 92.8066 105.219 93.0618C105.67 93.3137 106.016 93.6468 106.258 94.0611C106.5 94.4754 106.621 94.9228 106.621 95.4034C106.621 95.9768 106.47 96.4657 106.169 96.87C105.871 97.2744 105.465 97.5545 104.951 97.7102V97.7898C105.594 97.8958 106.096 98.1693 106.457 98.6101C106.818 99.0476 106.999 99.5895 106.999 100.236C106.999 100.789 106.848 101.286 106.547 101.727C106.248 102.165 105.841 102.509 105.324 102.761C104.807 103.013 104.218 103.139 103.559 103.139ZM109.032 103V102.105L112.393 98.4261C112.788 97.9953 113.113 97.6207 113.368 97.3026C113.623 96.9811 113.812 96.6795 113.934 96.3977C114.06 96.1127 114.123 95.8144 114.123 95.5028C114.123 95.1449 114.037 94.835 113.865 94.5732C113.696 94.3113 113.464 94.1091 113.169 93.9666C112.874 93.8241 112.542 93.7528 112.175 93.7528C111.783 93.7528 111.442 93.834 111.15 93.9964C110.862 94.1555 110.638 94.3793 110.479 94.6676C110.323 94.956 110.246 95.294 110.246 95.6818H109.072C109.072 95.0852 109.21 94.5616 109.485 94.1108C109.76 93.66 110.135 93.3087 110.608 93.0568C111.086 92.8049 111.621 92.679 112.214 92.679C112.811 92.679 113.34 92.8049 113.8 93.0568C114.261 93.3087 114.622 93.6484 114.884 94.076C115.146 94.5036 115.277 94.9792 115.277 95.5028C115.277 95.8774 115.209 96.2436 115.073 96.6016C114.94 96.9562 114.708 97.3523 114.377 97.7898C114.049 98.224 113.593 98.7543 113.01 99.3807L110.723 101.827V101.906H115.456V103H109.032ZM119.279 101.608L119.199 102.145C119.143 102.523 119.057 102.927 118.941 103.358C118.828 103.789 118.711 104.195 118.588 104.576C118.465 104.957 118.364 105.26 118.285 105.486H117.39C117.433 105.274 117.489 104.994 117.559 104.646C117.628 104.298 117.698 103.908 117.768 103.477C117.84 103.05 117.9 102.612 117.947 102.165L118.006 101.608H119.279ZM121.546 103L126.1 93.9915V93.9119H120.85V92.8182H127.373V93.9716L122.839 103H121.546ZM132.388 103.139C131.97 103.133 131.553 103.053 131.135 102.901C130.717 102.748 130.336 102.491 129.991 102.13C129.647 101.765 129.37 101.273 129.161 100.653C128.952 100.03 128.848 99.2481 128.848 98.3068C128.848 97.4053 128.933 96.6065 129.102 95.9105C129.271 95.2112 129.516 94.6229 129.837 94.1456C130.159 93.665 130.547 93.3004 131.001 93.0518C131.458 92.8033 131.973 92.679 132.547 92.679C133.117 92.679 133.624 92.7933 134.068 93.022C134.516 93.2474 134.88 93.5623 135.162 93.9666C135.444 94.371 135.626 94.8366 135.709 95.3636H134.496C134.383 94.9062 134.164 94.5268 133.839 94.2251C133.515 93.9235 133.084 93.7727 132.547 93.7727C131.758 93.7727 131.137 94.1158 130.683 94.8018C130.232 95.4879 130.005 96.4508 130.001 97.6903H130.081C130.267 97.4086 130.487 97.1683 130.742 96.9695C131.001 96.7673 131.286 96.6115 131.597 96.5021C131.909 96.3928 132.239 96.3381 132.587 96.3381C133.17 96.3381 133.704 96.4839 134.188 96.7756C134.671 97.0639 135.059 97.4633 135.351 97.9737C135.643 98.4808 135.788 99.0625 135.788 99.7188C135.788 100.348 135.647 100.925 135.366 101.449C135.084 101.969 134.688 102.384 134.178 102.692C133.67 102.997 133.074 103.146 132.388 103.139ZM132.388 102.045C132.805 102.045 133.18 101.941 133.511 101.732C133.846 101.523 134.11 101.243 134.302 100.892C134.497 100.541 134.595 100.15 134.595 99.7188C134.595 99.2978 134.501 98.915 134.312 98.5703C134.126 98.2223 133.869 97.9455 133.541 97.7401C133.216 97.5346 132.845 97.4318 132.428 97.4318C132.113 97.4318 131.819 97.4948 131.548 97.6207C131.276 97.7434 131.037 97.9124 130.832 98.1278C130.629 98.3433 130.47 98.5902 130.354 98.8686C130.238 99.1437 130.18 99.4337 130.18 99.7386C130.18 100.143 130.275 100.521 130.464 100.872C130.656 101.223 130.918 101.507 131.249 101.722C131.584 101.938 131.964 102.045 132.388 102.045ZM141.005 103.139C140.322 103.139 139.719 103.018 139.195 102.776C138.675 102.531 138.269 102.195 137.977 101.767C137.685 101.336 137.541 100.846 137.545 100.295C137.541 99.8646 137.626 99.4669 137.798 99.1023C137.97 98.7344 138.206 98.4278 138.504 98.1825C138.806 97.9339 139.142 97.7765 139.513 97.7102V97.6506C139.026 97.5246 138.638 97.2512 138.35 96.8303C138.062 96.406 137.919 95.9238 137.922 95.3835C137.919 94.8665 138.05 94.4041 138.315 93.9964C138.58 93.5888 138.945 93.2673 139.409 93.032C139.876 92.7966 140.408 92.679 141.005 92.679C141.595 92.679 142.122 92.7966 142.586 93.032C143.05 93.2673 143.414 93.5888 143.68 93.9964C143.948 94.4041 144.084 94.8665 144.087 95.3835C144.084 95.9238 143.936 96.406 143.645 96.8303C143.356 97.2512 142.974 97.5246 142.496 97.6506V97.7102C142.864 97.7765 143.196 97.9339 143.491 98.1825C143.786 98.4278 144.021 98.7344 144.197 99.1023C144.372 99.4669 144.462 99.8646 144.465 100.295C144.462 100.846 144.313 101.336 144.018 101.767C143.726 102.195 143.32 102.531 142.8 102.776C142.282 103.018 141.684 103.139 141.005 103.139ZM141.005 102.045C141.465 102.045 141.863 101.971 142.198 101.822C142.533 101.673 142.791 101.462 142.974 101.19C143.156 100.919 143.249 100.6 143.252 100.236C143.249 99.8513 143.149 99.5116 142.954 99.2166C142.758 98.9216 142.491 98.6896 142.153 98.5206C141.818 98.3516 141.436 98.267 141.005 98.267C140.571 98.267 140.183 98.3516 139.841 98.5206C139.503 98.6896 139.237 98.9216 139.041 99.2166C138.849 99.5116 138.754 99.8513 138.758 100.236C138.754 100.6 138.842 100.919 139.021 101.19C139.203 101.462 139.464 101.673 139.802 101.822C140.14 101.971 140.541 102.045 141.005 102.045ZM141.005 97.2131C141.369 97.2131 141.693 97.1402 141.974 96.9943C142.259 96.8485 142.483 96.6446 142.645 96.3828C142.808 96.121 142.891 95.8144 142.894 95.4631C142.891 95.1184 142.809 94.8184 142.65 94.5632C142.491 94.3047 142.271 94.1058 141.989 93.9666C141.707 93.8241 141.379 93.7528 141.005 93.7528C140.624 93.7528 140.291 93.8241 140.006 93.9666C139.72 94.1058 139.5 94.3047 139.344 94.5632C139.189 94.8184 139.112 95.1184 139.116 95.4631C139.112 95.8144 139.19 96.121 139.349 96.3828C139.512 96.6446 139.735 96.8485 140.02 96.9943C140.305 97.1402 140.634 97.2131 141.005 97.2131ZM146.47 98.9233C146.46 98.3731 146.549 97.9306 146.738 97.5959C146.927 97.2611 147.172 97.0175 147.474 96.8651C147.779 96.7126 148.1 96.6364 148.439 96.6364C148.777 96.6364 149.085 96.7109 149.363 96.8601C149.645 97.0059 149.967 97.2363 150.328 97.5511C150.573 97.7633 150.769 97.9124 150.914 97.9986C151.064 98.0848 151.226 98.1278 151.402 98.1278C151.687 98.1278 151.912 98.0251 152.078 97.8196C152.243 97.6108 152.323 97.3092 152.316 96.9148H153.39C153.4 97.465 153.311 97.9074 153.122 98.2422C152.936 98.5769 152.691 98.8205 152.386 98.973C152.081 99.1255 151.76 99.2017 151.422 99.2017C151.083 99.2017 150.775 99.1288 150.497 98.983C150.218 98.8338 149.897 98.6018 149.532 98.2869C149.29 98.0748 149.095 97.9257 148.946 97.8395C148.797 97.7533 148.634 97.7102 148.458 97.7102C148.19 97.7102 147.968 97.8047 147.792 97.9936C147.62 98.1792 147.537 98.4891 147.544 98.9233H146.47ZM158.875 103.139C158.219 103.139 157.634 103.027 157.12 102.801C156.61 102.576 156.204 102.263 155.902 101.862C155.604 101.457 155.441 100.988 155.415 100.455H156.668C156.694 100.783 156.807 101.066 157.006 101.305C157.205 101.54 157.465 101.722 157.786 101.852C158.108 101.981 158.464 102.045 158.855 102.045C159.293 102.045 159.681 101.969 160.019 101.817C160.357 101.664 160.622 101.452 160.814 101.18C161.006 100.909 161.102 100.594 161.102 100.236C161.102 99.8613 161.01 99.5315 160.824 99.2464C160.638 98.9581 160.367 98.7327 160.009 98.5703C159.651 98.4079 159.213 98.3267 158.696 98.3267H157.881V97.233H158.696C159.101 97.233 159.455 97.16 159.76 97.0142C160.068 96.8684 160.309 96.6629 160.481 96.3977C160.657 96.1326 160.744 95.821 160.744 95.4631C160.744 95.1184 160.668 94.8184 160.516 94.5632C160.363 94.308 160.148 94.1091 159.869 93.9666C159.594 93.8241 159.27 93.7528 158.895 93.7528C158.544 93.7528 158.212 93.8175 157.901 93.9467C157.593 94.0727 157.341 94.2566 157.145 94.4986C156.95 94.7372 156.843 95.0256 156.827 95.3636H155.634C155.654 94.83 155.814 94.3627 156.116 93.9616C156.418 93.5573 156.812 93.2424 157.299 93.017C157.79 92.7917 158.328 92.679 158.915 92.679C159.545 92.679 160.085 92.8066 160.536 93.0618C160.986 93.3137 161.333 93.6468 161.575 94.0611C161.817 94.4754 161.938 94.9228 161.938 95.4034C161.938 95.9768 161.787 96.4657 161.485 96.87C161.187 97.2744 160.781 97.5545 160.267 97.7102V97.7898C160.91 97.8958 161.412 98.1693 161.774 98.6101C162.135 99.0476 162.316 99.5895 162.316 100.236C162.316 100.789 162.165 101.286 161.863 101.727C161.565 102.165 161.157 102.509 160.64 102.761C160.123 103.013 159.535 103.139 158.875 103.139ZM164.349 103V102.105L167.71 98.4261C168.104 97.9953 168.429 97.6207 168.684 97.3026C168.939 96.9811 169.128 96.6795 169.251 96.3977C169.377 96.1127 169.44 95.8144 169.44 95.5028C169.44 95.1449 169.354 94.835 169.181 94.5732C169.012 94.3113 168.78 94.1091 168.485 93.9666C168.19 93.8241 167.859 93.7528 167.491 93.7528C167.1 93.7528 166.758 93.834 166.467 93.9964C166.178 94.1555 165.955 94.3793 165.796 94.6676C165.64 94.956 165.562 95.294 165.562 95.6818H164.389C164.389 95.0852 164.526 94.5616 164.801 94.1108C165.076 93.66 165.451 93.3087 165.925 93.0568C166.402 92.8049 166.937 92.679 167.531 92.679C168.127 92.679 168.656 92.8049 169.117 93.0568C169.577 93.3087 169.939 93.6484 170.2 94.076C170.462 94.5036 170.593 94.9792 170.593 95.5028C170.593 95.8774 170.525 96.2436 170.389 96.6016C170.257 96.9562 170.025 97.3523 169.693 97.7898C169.365 98.224 168.91 98.7543 168.326 99.3807L166.039 101.827V101.906H170.772V103H164.349ZM174.595 101.608L174.516 102.145C174.459 102.523 174.373 102.927 174.257 103.358C174.145 103.789 174.027 104.195 173.904 104.576C173.782 104.957 173.681 105.26 173.601 105.486H172.706C172.749 105.274 172.806 104.994 172.875 104.646C172.945 104.298 173.014 103.908 173.084 103.477C173.157 103.05 173.217 102.612 173.263 102.165L173.323 101.608H174.595ZM176.862 103L181.416 93.9915V93.9119H176.166V92.8182H182.689V93.9716L178.155 103H176.862ZM187.704 103.139C187.287 103.133 186.869 103.053 186.451 102.901C186.034 102.748 185.653 102.491 185.308 102.13C184.963 101.765 184.686 101.273 184.478 100.653C184.269 100.03 184.164 99.2481 184.164 98.3068C184.164 97.4053 184.249 96.6065 184.418 95.9105C184.587 95.2112 184.832 94.6229 185.154 94.1456C185.475 93.665 185.863 93.3004 186.317 93.0518C186.775 92.8033 187.29 92.679 187.863 92.679C188.433 92.679 188.94 92.7933 189.385 93.022C189.832 93.2474 190.197 93.5623 190.478 93.9666C190.76 94.371 190.942 94.8366 191.025 95.3636H189.812C189.699 94.9062 189.481 94.5268 189.156 94.2251C188.831 93.9235 188.4 93.7727 187.863 93.7727C187.074 93.7727 186.453 94.1158 185.999 94.8018C185.548 95.4879 185.321 96.4508 185.318 97.6903H185.397C185.583 97.4086 185.803 97.1683 186.059 96.9695C186.317 96.7673 186.602 96.6115 186.914 96.5021C187.225 96.3928 187.555 96.3381 187.903 96.3381C188.486 96.3381 189.02 96.4839 189.504 96.7756C189.988 97.0639 190.376 97.4633 190.667 97.9737C190.959 98.4808 191.105 99.0625 191.105 99.7188C191.105 100.348 190.964 100.925 190.682 101.449C190.4 101.969 190.004 102.384 189.494 102.692C188.987 102.997 188.39 103.146 187.704 103.139ZM187.704 102.045C188.122 102.045 188.496 101.941 188.828 101.732C189.163 101.523 189.426 101.243 189.618 100.892C189.814 100.541 189.912 100.15 189.912 99.7188C189.912 99.2978 189.817 98.915 189.628 98.5703C189.443 98.2223 189.186 97.9455 188.858 97.7401C188.533 97.5346 188.162 97.4318 187.744 97.4318C187.429 97.4318 187.136 97.4948 186.864 97.6207C186.592 97.7434 186.354 97.9124 186.148 98.1278C185.946 98.3433 185.787 98.5902 185.671 98.8686C185.555 99.1437 185.497 99.4337 185.497 99.7386C185.497 100.143 185.591 100.521 185.78 100.872C185.972 101.223 186.234 101.507 186.566 101.722C186.9 101.938 187.28 102.045 187.704 102.045ZM193.378 103L197.932 93.9915V93.9119H192.682V92.8182H199.205V93.9716L194.671 103H193.378Z" fill="black"/>
<mask id="path-27-inside-9_1208_895" fill="white">
<path d="M259 79H431V117H259V79Z"/>
</mask>
<path d="M259 79H431V117H259V79Z" fill="white" fill-opacity="0.01"/>
<path d="M259 79V78H258V79H259ZM259 80H431V78H259V80ZM260 117V79H258V117H260Z" fill="#B9B9B9" mask="url(#path-27-inside-9_1208_895)"/>
<path d="M276.449 98.0881V99.1818H271.994V98.0881H276.449Z" fill="black"/>
</g>
<g clip-path="url(#clip4_1208_895)">
<rect width="431" height="38" transform="translate(0 117)" fill="white" fill-opacity="0.01"/>
<mask id="path-30-inside-10_1208_895" fill="white">
<path d="M0 117H78V155H0V117Z"/>
</mask>
<path d="M0 117H78V155H0V117Z" fill="black" fill-opacity="0.06"/>
<path d="M0 117V116H-1V117H0ZM0 118H78V116H0V118ZM1 155V117H-1V155H1Z" fill="#B9B9B9" mask="url(#path-30-inside-10_1208_895)"/>
<path d="M16.4744 133.364V134.358H12.358V133.364H16.4744ZM13.5909 141V132.31C13.5909 131.872 13.6937 131.508 13.8991 131.216C14.1046 130.924 14.3714 130.705 14.6996 130.56C15.0277 130.414 15.3741 130.341 15.7386 130.341C16.027 130.341 16.2623 130.364 16.4446 130.411C16.6269 130.457 16.7628 130.5 16.8523 130.54L16.5142 131.554C16.4545 131.534 16.3717 131.509 16.2656 131.479C16.1629 131.45 16.027 131.435 15.858 131.435C15.4702 131.435 15.1901 131.532 15.0178 131.728C14.8487 131.924 14.7642 132.21 14.7642 132.588V141H13.5909ZM19.2921 130.818V141H18.1188V130.818H19.2921ZM24.5433 141.159C23.8539 141.159 23.2491 140.995 22.7287 140.667C22.2116 140.339 21.8073 139.88 21.5156 139.29C21.2273 138.7 21.0831 138.01 21.0831 137.222C21.0831 136.426 21.2273 135.732 21.5156 135.138C21.8073 134.545 22.2116 134.085 22.7287 133.756C23.2491 133.428 23.8539 133.264 24.5433 133.264C25.2327 133.264 25.8359 133.428 26.353 133.756C26.8733 134.085 27.2777 134.545 27.5661 135.138C27.8577 135.732 28.0036 136.426 28.0036 137.222C28.0036 138.01 27.8577 138.7 27.5661 139.29C27.2777 139.88 26.8733 140.339 26.353 140.667C25.8359 140.995 25.2327 141.159 24.5433 141.159ZM24.5433 140.105C25.067 140.105 25.4979 139.971 25.8359 139.702C26.174 139.434 26.4242 139.081 26.5866 138.643C26.7491 138.206 26.8303 137.732 26.8303 137.222C26.8303 136.711 26.7491 136.236 26.5866 135.795C26.4242 135.354 26.174 134.998 25.8359 134.726C25.4979 134.454 25.067 134.318 24.5433 134.318C24.0196 134.318 23.5888 134.454 23.2507 134.726C22.9126 134.998 22.6624 135.354 22.5 135.795C22.3376 136.236 22.2564 136.711 22.2564 137.222C22.2564 137.732 22.3376 138.206 22.5 138.643C22.6624 139.081 22.9126 139.434 23.2507 139.702C23.5888 139.971 24.0196 140.105 24.5433 140.105ZM32.0417 141.179C31.5578 141.179 31.1187 141.088 30.7243 140.906C30.3298 140.72 30.0166 140.453 29.7846 140.105C29.5526 139.754 29.4366 139.33 29.4366 138.832C29.4366 138.395 29.5228 138.04 29.6951 137.768C29.8675 137.493 30.0978 137.278 30.3862 137.122C30.6745 136.966 30.9927 136.85 31.3407 136.774C31.6921 136.695 32.045 136.632 32.3997 136.585C32.8637 136.526 33.2399 136.481 33.5282 136.451C33.8199 136.418 34.032 136.363 34.1646 136.287C34.3005 136.211 34.3684 136.078 34.3684 135.889V135.849C34.3684 135.359 34.2342 134.978 33.9657 134.706C33.7006 134.434 33.2979 134.298 32.7576 134.298C32.1975 134.298 31.7583 134.421 31.4402 134.666C31.122 134.911 30.8983 135.173 30.769 135.452L29.6554 135.054C29.8542 134.59 30.1194 134.229 30.4508 133.97C30.7856 133.708 31.1502 133.526 31.5446 133.423C31.9423 133.317 32.3334 133.264 32.7179 133.264C32.9631 133.264 33.2449 133.294 33.563 133.354C33.8845 133.41 34.1944 133.528 34.4927 133.707C34.7943 133.886 35.0446 134.156 35.2434 134.517C35.4423 134.878 35.5417 135.362 35.5417 135.969V141H34.3684V139.966H34.3088C34.2292 140.132 34.0967 140.309 33.911 140.498C33.7254 140.687 33.4785 140.848 33.1703 140.98C32.862 141.113 32.4859 141.179 32.0417 141.179ZM32.2207 140.125C32.6847 140.125 33.0758 140.034 33.394 139.852C33.7155 139.669 33.9574 139.434 34.1199 139.146C34.2856 138.857 34.3684 138.554 34.3684 138.236V137.162C34.3187 137.222 34.2093 137.276 34.0403 137.326C33.8746 137.372 33.6824 137.414 33.4636 137.45C33.2482 137.483 33.0377 137.513 32.8322 137.54C32.63 137.563 32.466 137.583 32.34 137.599C32.0351 137.639 31.7501 137.704 31.4849 137.793C31.2231 137.879 31.0109 138.01 30.8485 138.186C30.6895 138.358 30.6099 138.594 30.6099 138.892C30.6099 139.3 30.7607 139.608 31.0623 139.817C31.3672 140.022 31.7534 140.125 32.2207 140.125ZM41.0043 133.364V134.358H37.0469V133.364H41.0043ZM38.2003 131.534H39.3736V138.812C39.3736 139.144 39.4216 139.393 39.5178 139.558C39.6172 139.721 39.7431 139.83 39.8956 139.886C40.0514 139.939 40.2154 139.966 40.3878 139.966C40.517 139.966 40.6231 139.959 40.706 139.946C40.7888 139.929 40.8551 139.916 40.9048 139.906L41.1435 140.96C41.0639 140.99 40.9529 141.02 40.8104 141.05C40.6679 141.083 40.4872 141.099 40.2685 141.099C39.937 141.099 39.6122 141.028 39.294 140.886C38.9792 140.743 38.7173 140.526 38.5085 140.234C38.303 139.943 38.2003 139.575 38.2003 139.131V131.534ZM46.3288 130.818V141H45.0959V132.111H45.0362L42.5504 133.761V132.509L45.0959 130.818H46.3288ZM52.6378 141.139C52.2202 141.133 51.8026 141.053 51.3849 140.901C50.9673 140.748 50.5862 140.491 50.2415 140.13C49.8968 139.765 49.62 139.273 49.4112 138.653C49.2024 138.03 49.098 137.248 49.098 136.307C49.098 135.405 49.1825 134.607 49.3516 133.911C49.5206 133.211 49.7659 132.623 50.0874 132.146C50.4089 131.665 50.7966 131.3 51.2507 131.052C51.7081 130.803 52.2235 130.679 52.7969 130.679C53.367 130.679 53.8741 130.793 54.3182 131.022C54.7656 131.247 55.1302 131.562 55.4119 131.967C55.6937 132.371 55.8759 132.837 55.9588 133.364H54.7457C54.633 132.906 54.4143 132.527 54.0895 132.225C53.7647 131.924 53.3338 131.773 52.7969 131.773C52.008 131.773 51.3866 132.116 50.9325 132.802C50.4818 133.488 50.2547 134.451 50.2514 135.69H50.331C50.5166 135.409 50.737 135.168 50.9922 134.969C51.2507 134.767 51.5357 134.612 51.8473 134.502C52.1589 134.393 52.4886 134.338 52.8366 134.338C53.42 134.338 53.9536 134.484 54.4375 134.776C54.9214 135.064 55.3092 135.463 55.6009 135.974C55.8925 136.481 56.0384 137.062 56.0384 137.719C56.0384 138.348 55.8975 138.925 55.6158 139.449C55.334 139.969 54.938 140.384 54.4276 140.692C53.9205 140.997 53.3239 141.146 52.6378 141.139ZM52.6378 140.045C53.0554 140.045 53.4299 139.941 53.7614 139.732C54.0961 139.523 54.3596 139.243 54.5518 138.892C54.7474 138.541 54.8452 138.15 54.8452 137.719C54.8452 137.298 54.7507 136.915 54.5618 136.57C54.3762 136.222 54.1193 135.946 53.7912 135.74C53.4664 135.535 53.0952 135.432 52.6776 135.432C52.3627 135.432 52.0694 135.495 51.7976 135.621C51.5258 135.743 51.2872 135.912 51.0817 136.128C50.8795 136.343 50.7204 136.59 50.6044 136.869C50.4884 137.144 50.4304 137.434 50.4304 137.739C50.4304 138.143 50.5249 138.521 50.7138 138.872C50.906 139.223 51.1679 139.507 51.4993 139.722C51.834 139.938 52.2135 140.045 52.6378 140.045Z" fill="black"/>
<mask id="path-33-inside-11_1208_895" fill="white">
<path d="M78 117H259V155H78V117Z"/>
</mask>
<path d="M78 117H259V155H78V117Z" fill="white" fill-opacity="0.01"/>
<path d="M78 117V116H77V117H78ZM78 118H259V116H78V118ZM79 155V117H77V155H79Z" fill="#B9B9B9" mask="url(#path-33-inside-11_1208_895)"/>
<path d="M98.712 130.732H100.596V131.572H98.712V130.732ZM98.712 133.06H100.596V133.888H98.712V133.06ZM98.016 129.088H99.012V135.532H98.016V129.088ZM91.968 136.048H99.012V139.936H98.016V136.852H91.968V136.048ZM93.624 129.724C95.256 129.724 96.456 130.78 96.456 132.304C96.456 133.816 95.256 134.86 93.624 134.86C91.992 134.86 90.792 133.816 90.792 132.304C90.792 130.78 91.992 129.724 93.624 129.724ZM93.624 130.576C92.544 130.576 91.764 131.272 91.764 132.304C91.764 133.324 92.544 134.032 93.624 134.032C94.704 134.032 95.484 133.324 95.484 132.304C95.484 131.272 94.704 130.576 93.624 130.576ZM109.085 134.168V135.105H105.266V134.168H109.085ZM113.735 139.119C113.377 139.114 113.019 139.045 112.661 138.915C112.303 138.784 111.976 138.564 111.681 138.254C111.385 137.942 111.148 137.52 110.969 136.989C110.79 136.455 110.701 135.784 110.701 134.977C110.701 134.205 110.773 133.52 110.918 132.923C111.063 132.324 111.273 131.82 111.549 131.411C111.824 130.999 112.157 130.686 112.546 130.473C112.938 130.26 113.38 130.153 113.871 130.153C114.36 130.153 114.794 130.251 115.175 130.447C115.559 130.641 115.871 130.911 116.113 131.257C116.354 131.604 116.51 132.003 116.581 132.455H115.542C115.445 132.062 115.257 131.737 114.979 131.479C114.701 131.22 114.331 131.091 113.871 131.091C113.195 131.091 112.662 131.385 112.273 131.973C111.887 132.561 111.692 133.386 111.689 134.449H111.757C111.917 134.207 112.105 134.001 112.324 133.831C112.546 133.658 112.79 133.524 113.057 133.43C113.324 133.337 113.607 133.29 113.905 133.29C114.405 133.29 114.863 133.415 115.277 133.665C115.692 133.912 116.025 134.254 116.275 134.692C116.525 135.126 116.65 135.625 116.65 136.188C116.65 136.727 116.529 137.222 116.287 137.67C116.046 138.116 115.706 138.472 115.269 138.736C114.834 138.997 114.323 139.125 113.735 139.119ZM113.735 138.182C114.093 138.182 114.414 138.092 114.698 137.913C114.985 137.734 115.211 137.494 115.375 137.193C115.543 136.892 115.627 136.557 115.627 136.188C115.627 135.827 115.546 135.499 115.384 135.203C115.225 134.905 115.005 134.668 114.723 134.491C114.445 134.315 114.127 134.227 113.769 134.227C113.499 134.227 113.248 134.281 113.015 134.389C112.782 134.494 112.577 134.639 112.401 134.824C112.228 135.009 112.091 135.22 111.992 135.459C111.892 135.695 111.843 135.943 111.843 136.205C111.843 136.551 111.924 136.875 112.086 137.176C112.25 137.477 112.475 137.72 112.759 137.905C113.046 138.089 113.371 138.182 113.735 138.182ZM118.665 139.068C118.455 139.068 118.275 138.993 118.124 138.842C117.973 138.692 117.898 138.511 117.898 138.301C117.898 138.091 117.973 137.911 118.124 137.76C118.275 137.609 118.455 137.534 118.665 137.534C118.875 137.534 119.056 137.609 119.206 137.76C119.357 137.911 119.432 138.091 119.432 138.301C119.432 138.44 119.397 138.568 119.326 138.685C119.257 138.801 119.165 138.895 119.049 138.966C118.935 139.034 118.807 139.068 118.665 139.068ZM123.771 139.119C123.271 139.119 122.821 139.02 122.42 138.821C122.02 138.622 121.699 138.349 121.457 138.003C121.216 137.656 121.084 137.261 121.061 136.818H122.084C122.124 137.213 122.303 137.54 122.621 137.798C122.942 138.054 123.325 138.182 123.771 138.182C124.129 138.182 124.447 138.098 124.726 137.93C125.007 137.763 125.227 137.533 125.386 137.24C125.548 136.945 125.629 136.611 125.629 136.239C125.629 135.858 125.545 135.518 125.378 135.22C125.213 134.919 124.986 134.682 124.696 134.509C124.406 134.335 124.075 134.247 123.703 134.244C123.436 134.241 123.162 134.283 122.881 134.368C122.599 134.45 122.368 134.557 122.186 134.688L121.197 134.568L121.726 130.273H126.26V131.21H122.612L122.305 133.784H122.357C122.536 133.642 122.76 133.524 123.03 133.43C123.3 133.337 123.581 133.29 123.874 133.29C124.408 133.29 124.884 133.418 125.301 133.673C125.722 133.926 126.051 134.273 126.29 134.713C126.531 135.153 126.652 135.656 126.652 136.222C126.652 136.778 126.527 137.276 126.277 137.713C126.03 138.148 125.689 138.491 125.254 138.744C124.82 138.994 124.325 139.119 123.771 139.119ZM131.072 139.119C130.572 139.119 130.122 139.02 129.721 138.821C129.321 138.622 129 138.349 128.758 138.003C128.517 137.656 128.385 137.261 128.362 136.818H129.385C129.424 137.213 129.603 137.54 129.922 137.798C130.243 138.054 130.626 138.182 131.072 138.182C131.43 138.182 131.748 138.098 132.027 137.93C132.308 137.763 132.528 137.533 132.687 137.24C132.849 136.945 132.93 136.611 132.93 136.239C132.93 135.858 132.846 135.518 132.679 135.22C132.514 134.919 132.287 134.682 131.997 134.509C131.707 134.335 131.376 134.247 131.004 134.244C130.737 134.241 130.463 134.283 130.181 134.368C129.9 134.45 129.669 134.557 129.487 134.688L128.498 134.568L129.027 130.273H133.561V131.21H129.913L129.606 133.784H129.657C129.836 133.642 130.061 133.524 130.331 133.43C130.6 133.337 130.882 133.29 131.174 133.29C131.708 133.29 132.184 133.418 132.602 133.673C133.022 133.926 133.352 134.273 133.591 134.713C133.832 135.153 133.953 135.656 133.953 136.222C133.953 136.778 133.828 137.276 133.578 137.713C133.331 138.148 132.99 138.491 132.555 138.744C132.12 138.994 131.626 139.119 131.072 139.119ZM140.776 137.432L135.969 132.625L136.617 131.977L141.424 136.784L140.776 137.432ZM136.617 137.432L135.969 136.784L140.776 131.977L141.424 132.625L136.617 137.432ZM146.624 130.273V139H145.567V131.381H145.516L143.385 132.795V131.722L145.567 130.273H146.624ZM151.98 139.119C151.338 139.119 150.792 138.945 150.34 138.595C149.888 138.243 149.543 137.733 149.304 137.065C149.066 136.395 148.946 135.585 148.946 134.636C148.946 133.693 149.066 132.888 149.304 132.22C149.546 131.55 149.892 131.038 150.344 130.686C150.799 130.331 151.344 130.153 151.98 130.153C152.617 130.153 153.161 130.331 153.613 130.686C154.067 131.038 154.414 131.55 154.652 132.22C154.894 132.888 155.015 133.693 155.015 134.636C155.015 135.585 154.895 136.395 154.657 137.065C154.418 137.733 154.073 138.243 153.621 138.595C153.169 138.945 152.623 139.119 151.98 139.119ZM151.98 138.182C152.617 138.182 153.111 137.875 153.463 137.261C153.816 136.648 153.992 135.773 153.992 134.636C153.992 133.881 153.911 133.237 153.749 132.706C153.59 132.175 153.36 131.77 153.059 131.491C152.76 131.213 152.401 131.074 151.98 131.074C151.35 131.074 150.857 131.385 150.502 132.007C150.147 132.626 149.969 133.503 149.969 134.636C149.969 135.392 150.049 136.034 150.208 136.562C150.367 137.091 150.596 137.493 150.894 137.768C151.195 138.044 151.557 138.182 151.98 138.182ZM158.39 131.023H158.696V131.449H158.39V131.023ZM156.208 134.227L157.963 130.545H159.123L160.878 134.227H159.873L158.492 131.278H158.594L157.23 134.227H156.208ZM161.504 137.21V136.341L165.339 130.273H165.969V131.619H165.543L162.646 136.205V136.273H167.81V137.21H161.504ZM165.612 139V136.946V136.541V130.273H166.617V139H165.612ZM169.493 135.506C169.484 135.034 169.561 134.655 169.723 134.368C169.885 134.081 170.095 133.872 170.353 133.741C170.615 133.611 170.89 133.545 171.18 133.545C171.47 133.545 171.734 133.609 171.973 133.737C172.214 133.862 172.49 134.06 172.799 134.33C173.01 134.511 173.177 134.639 173.302 134.713C173.43 134.787 173.569 134.824 173.72 134.824C173.964 134.824 174.157 134.736 174.299 134.56C174.441 134.381 174.51 134.122 174.504 133.784H175.424C175.433 134.256 175.356 134.635 175.194 134.922C175.035 135.209 174.825 135.418 174.564 135.548C174.302 135.679 174.027 135.744 173.737 135.744C173.447 135.744 173.183 135.682 172.944 135.557C172.706 135.429 172.43 135.23 172.118 134.96C171.91 134.778 171.743 134.651 171.615 134.577C171.487 134.503 171.348 134.466 171.197 134.466C170.967 134.466 170.777 134.547 170.626 134.709C170.478 134.868 170.407 135.134 170.413 135.506H169.493ZM180.215 139.119C179.857 139.114 179.499 139.045 179.141 138.915C178.783 138.784 178.457 138.564 178.161 138.254C177.866 137.942 177.629 137.52 177.45 136.989C177.271 136.455 177.181 135.784 177.181 134.977C177.181 134.205 177.254 133.52 177.398 132.923C177.543 132.324 177.754 131.82 178.029 131.411C178.305 130.999 178.637 130.686 179.026 130.473C179.418 130.26 179.86 130.153 180.352 130.153C180.84 130.153 181.275 130.251 181.656 130.447C182.039 130.641 182.352 130.911 182.593 131.257C182.835 131.604 182.991 132.003 183.062 132.455H182.022C181.925 132.062 181.738 131.737 181.46 131.479C181.181 131.22 180.812 131.091 180.352 131.091C179.675 131.091 179.143 131.385 178.754 131.973C178.367 132.561 178.173 133.386 178.17 134.449H178.238C178.397 134.207 178.586 134.001 178.805 133.831C179.026 133.658 179.271 133.524 179.538 133.43C179.805 133.337 180.087 133.29 180.386 133.29C180.886 133.29 181.343 133.415 181.758 133.665C182.173 133.912 182.505 134.254 182.755 134.692C183.005 135.126 183.13 135.625 183.13 136.188C183.13 136.727 183.009 137.222 182.768 137.67C182.526 138.116 182.187 138.472 181.749 138.736C181.315 138.997 180.803 139.125 180.215 139.119ZM180.215 138.182C180.573 138.182 180.894 138.092 181.178 137.913C181.465 137.734 181.691 137.494 181.856 137.193C182.023 136.892 182.107 136.557 182.107 136.188C182.107 135.827 182.026 135.499 181.864 135.203C181.705 134.905 181.485 134.668 181.204 134.491C180.925 134.315 180.607 134.227 180.249 134.227C179.979 134.227 179.728 134.281 179.495 134.389C179.262 134.494 179.058 134.639 178.881 134.824C178.708 135.009 178.572 135.22 178.472 135.459C178.373 135.695 178.323 135.943 178.323 136.205C178.323 136.551 178.404 136.875 178.566 137.176C178.731 137.477 178.955 137.72 179.239 137.905C179.526 138.089 179.852 138.182 180.215 138.182ZM185.146 139.068C184.935 139.068 184.755 138.993 184.604 138.842C184.454 138.692 184.379 138.511 184.379 138.301C184.379 138.091 184.454 137.911 184.604 137.76C184.755 137.609 184.935 137.534 185.146 137.534C185.356 137.534 185.536 137.609 185.687 137.76C185.837 137.911 185.913 138.091 185.913 138.301C185.913 138.44 185.877 138.568 185.806 138.685C185.738 138.801 185.646 138.895 185.529 138.966C185.415 139.034 185.288 139.068 185.146 139.068ZM190.252 139.119C189.752 139.119 189.301 139.02 188.901 138.821C188.5 138.622 188.179 138.349 187.938 138.003C187.696 137.656 187.564 137.261 187.542 136.818H188.564C188.604 137.213 188.783 137.54 189.101 137.798C189.422 138.054 189.806 138.182 190.252 138.182C190.61 138.182 190.928 138.098 191.206 137.93C191.488 137.763 191.708 137.533 191.867 137.24C192.029 136.945 192.11 136.611 192.11 136.239C192.11 135.858 192.026 135.518 191.858 135.22C191.694 134.919 191.466 134.682 191.176 134.509C190.887 134.335 190.556 134.247 190.184 134.244C189.917 134.241 189.642 134.283 189.361 134.368C189.08 134.45 188.848 134.557 188.667 134.688L187.678 134.568L188.206 130.273H192.74V131.21H189.093L188.786 133.784H188.837C189.016 133.642 189.24 133.524 189.51 133.43C189.78 133.337 190.061 133.29 190.354 133.29C190.888 133.29 191.364 133.418 191.782 133.673C192.202 133.926 192.532 134.273 192.77 134.713C193.012 135.153 193.132 135.656 193.132 136.222C193.132 136.778 193.007 137.276 192.757 137.713C192.51 138.148 192.169 138.491 191.735 138.744C191.3 138.994 190.806 139.119 190.252 139.119ZM197.553 139.119C197.053 139.119 196.602 139.02 196.202 138.821C195.801 138.622 195.48 138.349 195.239 138.003C194.997 137.656 194.865 137.261 194.842 136.818H195.865C195.905 137.213 196.084 137.54 196.402 137.798C196.723 138.054 197.107 138.182 197.553 138.182C197.911 138.182 198.229 138.098 198.507 137.93C198.788 137.763 199.009 137.533 199.168 137.24C199.33 136.945 199.411 136.611 199.411 136.239C199.411 135.858 199.327 135.518 199.159 135.22C198.994 134.919 198.767 134.682 198.477 134.509C198.188 134.335 197.857 134.247 197.484 134.244C197.217 134.241 196.943 134.283 196.662 134.368C196.381 134.45 196.149 134.557 195.967 134.688L194.979 134.568L195.507 130.273H200.041V131.21H196.393L196.087 133.784H196.138C196.317 133.642 196.541 133.524 196.811 133.43C197.081 133.337 197.362 133.29 197.655 133.29C198.189 133.29 198.665 133.418 199.082 133.673C199.503 133.926 199.832 134.273 200.071 134.713C200.312 135.153 200.433 135.656 200.433 136.222C200.433 136.778 200.308 137.276 200.058 137.713C199.811 138.148 199.47 138.491 199.036 138.744C198.601 138.994 198.107 139.119 197.553 139.119ZM207.257 137.432L202.45 132.625L203.098 131.977L207.904 136.784L207.257 137.432ZM203.098 137.432L202.45 136.784L207.257 131.977L207.904 132.625L203.098 137.432ZM213.104 130.273V139H212.048V131.381H211.996L209.866 132.795V131.722L212.048 130.273H213.104ZM218.461 139.119C217.819 139.119 217.272 138.945 216.82 138.595C216.369 138.243 216.023 137.733 215.785 137.065C215.546 136.395 215.427 135.585 215.427 134.636C215.427 133.693 215.546 132.888 215.785 132.22C216.026 131.55 216.373 131.038 216.825 130.686C217.279 130.331 217.825 130.153 218.461 130.153C219.097 130.153 219.641 130.331 220.093 130.686C220.548 131.038 220.894 131.55 221.133 132.22C221.374 132.888 221.495 133.693 221.495 134.636C221.495 135.585 221.376 136.395 221.137 137.065C220.898 137.733 220.553 138.243 220.102 138.595C219.65 138.945 219.103 139.119 218.461 139.119ZM218.461 138.182C219.097 138.182 219.592 137.875 219.944 137.261C220.296 136.648 220.472 135.773 220.472 134.636C220.472 133.881 220.391 133.237 220.229 132.706C220.07 132.175 219.84 131.77 219.539 131.491C219.241 131.213 218.881 131.074 218.461 131.074C217.83 131.074 217.337 131.385 216.982 132.007C216.627 132.626 216.45 133.503 216.45 134.636C216.45 135.392 216.529 136.034 216.688 136.562C216.847 137.091 217.076 137.493 217.374 137.768C217.675 138.044 218.038 138.182 218.461 138.182ZM224.87 131.023H225.177V131.449H224.87V131.023ZM222.688 134.227L224.444 130.545H225.603L227.359 134.227H226.353L224.972 131.278H225.075L223.711 134.227H222.688ZM227.984 137.21V136.341L231.819 130.273H232.45V131.619H232.024L229.126 136.205V136.273H234.291V137.21H227.984ZM232.092 139V136.946V136.541V130.273H233.098V139H232.092Z" fill="black"/>
<mask id="path-36-inside-12_1208_895" fill="white">
<path d="M259 117H431V155H259V117Z"/>
</mask>
<path d="M259 117H431V155H259V117Z" fill="white" fill-opacity="0.01"/>
<path d="M259 117V116H258V117H259ZM259 118H431V116H259V118ZM260 155V117H258V155H260Z" fill="#B9B9B9" mask="url(#path-36-inside-12_1208_895)"/>
<path d="M271.7 139.488H283.166V140.454H271.7V139.488ZM276.796 136.422H277.944V139.81H276.796V136.422ZM276.768 130.276H277.776V131.256C277.776 133.958 275.186 136.044 272.638 136.576L272.148 135.61C274.374 135.204 276.768 133.342 276.768 131.256V130.276ZM276.978 130.276H277.986V131.256C277.986 133.356 280.394 135.204 282.62 135.61L282.116 136.576C279.568 136.044 276.978 133.958 276.978 131.256V130.276ZM289.689 129.884H290.711V130.584C290.711 133.006 288.247 134.742 285.615 135.19L285.153 134.252C287.463 133.902 289.689 132.39 289.689 130.584V129.884ZM289.899 129.884H290.907V130.584C290.907 132.348 293.161 133.902 295.443 134.252L294.981 135.19C292.377 134.742 289.899 132.978 289.899 130.584V129.884ZM289.689 137.276H290.837V142.092H289.689V137.276ZM284.579 136.562H296.017V137.528H284.579V136.562ZM304.206 132.6H307.02V133.566H304.206V132.6ZM306.698 129.436H307.86V136.842H306.698V129.436ZM299.656 137.458H307.86V141.924H299.656V137.458ZM306.726 138.382H300.79V140.986H306.726V138.382ZM300.678 130.64H301.63V131.662C301.63 133.972 300.202 135.946 298.088 136.73L297.486 135.806C299.376 135.134 300.678 133.454 300.678 131.662V130.64ZM300.902 130.64H301.84V131.648C301.84 133.286 303.072 134.868 304.906 135.512L304.318 136.436C302.26 135.694 300.902 133.776 300.902 131.648V130.64ZM297.85 130.248H304.612V131.186H297.85V130.248ZM317.634 130.402C319.496 130.402 320.812 132.124 320.812 134.812C320.812 137.514 319.496 139.236 317.634 139.236C315.772 139.236 314.456 137.514 314.456 134.812C314.456 132.124 315.772 130.402 317.634 130.402ZM317.634 131.452C316.402 131.452 315.562 132.768 315.562 134.812C315.562 136.87 316.402 138.214 317.634 138.214C318.852 138.214 319.706 136.87 319.706 134.812C319.706 132.768 318.852 131.452 317.634 131.452ZM322.828 129.436H324.004V142.092H322.828V129.436ZM323.724 134.49H326.076V135.47H323.724V134.49ZM327.559 138.102H328.399C329.939 138.102 331.339 138.046 333.047 137.752L333.145 138.718C331.395 139.026 329.967 139.068 328.399 139.068H327.559V138.102ZM327.531 130.808H332.277V135.26H328.693V138.466H327.559V134.308H331.143V131.76H327.531V130.808ZM336.771 129.436H337.891V142.092H336.771V129.436ZM334.629 134.434H337.065V135.386H334.629V134.434ZM333.901 129.716H334.993V141.448H333.901V129.716ZM353.434 131.354H355.632V132.334H353.434V131.354ZM353.434 134.07H355.632V135.036H353.434V134.07ZM352.622 129.436H353.784V136.954H352.622V129.436ZM345.566 137.556H353.784V142.092H352.622V138.494H345.566V137.556ZM347.498 130.178C349.402 130.178 350.802 131.41 350.802 133.188C350.802 134.952 349.402 136.17 347.498 136.17C345.594 136.17 344.194 134.952 344.194 133.188C344.194 131.41 345.594 130.178 347.498 130.178ZM347.498 131.172C346.238 131.172 345.328 131.984 345.328 133.188C345.328 134.378 346.238 135.204 347.498 135.204C348.758 135.204 349.668 134.378 349.668 133.188C349.668 131.984 348.758 131.172 347.498 131.172ZM360.901 138.912V137.898L365.376 130.818H366.112V132.389H365.614L362.234 137.739V137.818H368.259V138.912H360.901ZM365.694 141V138.604V138.131V130.818H366.867V141H365.694ZM372.89 131.242H373.814V133.3C373.814 135.932 372.204 138.648 370.23 139.656L369.558 138.732C371.364 137.85 372.89 135.442 372.89 133.3V131.242ZM373.1 131.242H374.024V133.3C374.024 135.302 375.452 137.556 377.286 138.424L376.628 139.348C374.626 138.354 373.1 135.806 373.1 133.3V131.242ZM370.006 130.724H376.824V131.704H370.006V130.724ZM378.322 129.436H379.498V142.092H378.322V129.436ZM379.218 134.546H381.57V135.526H379.218V134.546ZM391.859 129.422H393.021V142.106H391.859V129.422ZM383.375 138.088H384.425C386.539 138.088 388.429 138.004 390.669 137.64L390.795 138.592C388.499 138.97 386.595 139.054 384.425 139.054H383.375V138.088ZM383.347 130.612H389.199V135.134H384.537V138.452H383.375V134.182H388.023V131.564H383.347V130.612Z" fill="black"/>
</g>
<g clip-path="url(#clip5_1208_895)">
<rect width="431" height="38" transform="translate(0 155)" fill="white" fill-opacity="0.01"/>
<mask id="path-39-inside-13_1208_895" fill="white">
<path d="M0 155H78V193H0V155Z"/>
</mask>
<path d="M0 155H78V193H0V155Z" fill="black" fill-opacity="0.06"/>
<path d="M0 155V154H-1V155H0ZM0 156H78V154H0V156ZM1 193V155H-1V193H1Z" fill="#B9B9B9" mask="url(#path-39-inside-13_1208_895)"/>
<path d="M16.4744 171.364V172.358H12.358V171.364H16.4744ZM13.5909 179V170.31C13.5909 169.872 13.6937 169.508 13.8991 169.216C14.1046 168.924 14.3714 168.705 14.6996 168.56C15.0277 168.414 15.3741 168.341 15.7386 168.341C16.027 168.341 16.2623 168.364 16.4446 168.411C16.6269 168.457 16.7628 168.5 16.8523 168.54L16.5142 169.554C16.4545 169.534 16.3717 169.509 16.2656 169.479C16.1629 169.45 16.027 169.435 15.858 169.435C15.4702 169.435 15.1901 169.532 15.0178 169.728C14.8487 169.924 14.7642 170.21 14.7642 170.588V179H13.5909ZM19.2921 168.818V179H18.1188V168.818H19.2921ZM24.5433 179.159C23.8539 179.159 23.2491 178.995 22.7287 178.667C22.2116 178.339 21.8073 177.88 21.5156 177.29C21.2273 176.7 21.0831 176.01 21.0831 175.222C21.0831 174.426 21.2273 173.732 21.5156 173.138C21.8073 172.545 22.2116 172.085 22.7287 171.756C23.2491 171.428 23.8539 171.264 24.5433 171.264C25.2327 171.264 25.8359 171.428 26.353 171.756C26.8733 172.085 27.2777 172.545 27.5661 173.138C27.8577 173.732 28.0036 174.426 28.0036 175.222C28.0036 176.01 27.8577 176.7 27.5661 177.29C27.2777 177.88 26.8733 178.339 26.353 178.667C25.8359 178.995 25.2327 179.159 24.5433 179.159ZM24.5433 178.105C25.067 178.105 25.4979 177.971 25.8359 177.702C26.174 177.434 26.4242 177.081 26.5866 176.643C26.7491 176.206 26.8303 175.732 26.8303 175.222C26.8303 174.711 26.7491 174.236 26.5866 173.795C26.4242 173.354 26.174 172.998 25.8359 172.726C25.4979 172.454 25.067 172.318 24.5433 172.318C24.0196 172.318 23.5888 172.454 23.2507 172.726C22.9126 172.998 22.6624 173.354 22.5 173.795C22.3376 174.236 22.2564 174.711 22.2564 175.222C22.2564 175.732 22.3376 176.206 22.5 176.643C22.6624 177.081 22.9126 177.434 23.2507 177.702C23.5888 177.971 24.0196 178.105 24.5433 178.105ZM32.0417 179.179C31.5578 179.179 31.1187 179.088 30.7243 178.906C30.3298 178.72 30.0166 178.453 29.7846 178.105C29.5526 177.754 29.4366 177.33 29.4366 176.832C29.4366 176.395 29.5228 176.04 29.6951 175.768C29.8675 175.493 30.0978 175.278 30.3862 175.122C30.6745 174.966 30.9927 174.85 31.3407 174.774C31.6921 174.695 32.045 174.632 32.3997 174.585C32.8637 174.526 33.2399 174.481 33.5282 174.451C33.8199 174.418 34.032 174.363 34.1646 174.287C34.3005 174.211 34.3684 174.078 34.3684 173.889V173.849C34.3684 173.359 34.2342 172.978 33.9657 172.706C33.7006 172.434 33.2979 172.298 32.7576 172.298C32.1975 172.298 31.7583 172.421 31.4402 172.666C31.122 172.911 30.8983 173.173 30.769 173.452L29.6554 173.054C29.8542 172.59 30.1194 172.229 30.4508 171.97C30.7856 171.708 31.1502 171.526 31.5446 171.423C31.9423 171.317 32.3334 171.264 32.7179 171.264C32.9631 171.264 33.2449 171.294 33.563 171.354C33.8845 171.41 34.1944 171.528 34.4927 171.707C34.7943 171.886 35.0446 172.156 35.2434 172.517C35.4423 172.878 35.5417 173.362 35.5417 173.969V179H34.3684V177.966H34.3088C34.2292 178.132 34.0967 178.309 33.911 178.498C33.7254 178.687 33.4785 178.848 33.1703 178.98C32.862 179.113 32.4859 179.179 32.0417 179.179ZM32.2207 178.125C32.6847 178.125 33.0758 178.034 33.394 177.852C33.7155 177.669 33.9574 177.434 34.1199 177.146C34.2856 176.857 34.3684 176.554 34.3684 176.236V175.162C34.3187 175.222 34.2093 175.276 34.0403 175.326C33.8746 175.372 33.6824 175.414 33.4636 175.45C33.2482 175.483 33.0377 175.513 32.8322 175.54C32.63 175.563 32.466 175.583 32.34 175.599C32.0351 175.639 31.7501 175.704 31.4849 175.793C31.2231 175.879 31.0109 176.01 30.8485 176.186C30.6895 176.358 30.6099 176.594 30.6099 176.892C30.6099 177.3 30.7607 177.608 31.0623 177.817C31.3672 178.022 31.7534 178.125 32.2207 178.125ZM41.0043 171.364V172.358H37.0469V171.364H41.0043ZM38.2003 169.534H39.3736V176.812C39.3736 177.144 39.4216 177.393 39.5178 177.558C39.6172 177.721 39.7431 177.83 39.8956 177.886C40.0514 177.939 40.2154 177.966 40.3878 177.966C40.517 177.966 40.6231 177.959 40.706 177.946C40.7888 177.929 40.8551 177.916 40.9048 177.906L41.1435 178.96C41.0639 178.99 40.9529 179.02 40.8104 179.05C40.6679 179.083 40.4872 179.099 40.2685 179.099C39.937 179.099 39.6122 179.028 39.294 178.886C38.9792 178.743 38.7173 178.526 38.5085 178.234C38.303 177.943 38.2003 177.575 38.2003 177.131V169.534ZM46.1896 179.139C45.5334 179.139 44.9484 179.027 44.4347 178.801C43.9242 178.576 43.5182 178.263 43.2166 177.862C42.9183 177.457 42.7559 176.988 42.7294 176.455H43.9822C44.0088 176.783 44.1214 177.066 44.3203 177.305C44.5192 177.54 44.7794 177.722 45.1009 177.852C45.4223 177.981 45.7786 178.045 46.1697 178.045C46.6072 178.045 46.995 177.969 47.3331 177.817C47.6712 177.664 47.9363 177.452 48.1286 177.18C48.3208 176.909 48.4169 176.594 48.4169 176.236C48.4169 175.861 48.3241 175.531 48.1385 175.246C47.9529 174.958 47.6811 174.733 47.3232 174.57C46.9652 174.408 46.5277 174.327 46.0107 174.327H45.1953V173.233H46.0107C46.415 173.233 46.7696 173.16 47.0746 173.014C47.3828 172.868 47.6231 172.663 47.7955 172.398C47.9711 172.133 48.0589 171.821 48.0589 171.463C48.0589 171.118 47.9827 170.818 47.8303 170.563C47.6778 170.308 47.4624 170.109 47.1839 169.967C46.9089 169.824 46.584 169.753 46.2095 169.753C45.8582 169.753 45.5268 169.817 45.2152 169.947C44.907 170.073 44.6551 170.257 44.4595 170.499C44.264 170.737 44.1579 171.026 44.1413 171.364H42.9482C42.968 170.83 43.1288 170.363 43.4304 169.962C43.732 169.557 44.1264 169.242 44.6136 169.017C45.1042 168.792 45.6428 168.679 46.2294 168.679C46.8591 168.679 47.3994 168.807 47.8501 169.062C48.3009 169.314 48.6473 169.647 48.8892 170.061C49.1312 170.475 49.2521 170.923 49.2521 171.403C49.2521 171.977 49.1013 172.466 48.7997 172.87C48.5014 173.274 48.0954 173.554 47.5817 173.71V173.79C48.2247 173.896 48.7268 174.169 49.0881 174.61C49.4493 175.048 49.63 175.589 49.63 176.236C49.63 176.789 49.4792 177.286 49.1776 177.727C48.8793 178.165 48.4716 178.509 47.9545 178.761C47.4375 179.013 46.8492 179.139 46.1896 179.139ZM51.6634 179V178.105L55.0241 174.426C55.4186 173.995 55.7434 173.621 55.9986 173.303C56.2538 172.981 56.4427 172.679 56.5653 172.398C56.6913 172.113 56.7543 171.814 56.7543 171.503C56.7543 171.145 56.6681 170.835 56.4957 170.573C56.3267 170.311 56.0947 170.109 55.7997 169.967C55.5047 169.824 55.1733 169.753 54.8054 169.753C54.4143 169.753 54.0729 169.834 53.7812 169.996C53.4929 170.156 53.2692 170.379 53.1101 170.668C52.9543 170.956 52.8764 171.294 52.8764 171.682H51.7031C51.7031 171.085 51.8407 170.562 52.1158 170.111C52.3909 169.66 52.7654 169.309 53.2393 169.057C53.7166 168.805 54.2519 168.679 54.8452 168.679C55.4418 168.679 55.9704 168.805 56.4311 169.057C56.8918 169.309 57.2531 169.648 57.5149 170.076C57.7768 170.504 57.9077 170.979 57.9077 171.503C57.9077 171.877 57.8397 172.244 57.7038 172.602C57.5713 172.956 57.3393 173.352 57.0078 173.79C56.6797 174.224 56.224 174.754 55.6406 175.381L53.3537 177.827V177.906H58.0866V179H51.6634Z" fill="black"/>
<mask id="path-42-inside-14_1208_895" fill="white">
<path d="M78 155H259V193H78V155Z"/>
</mask>
<path d="M78 155H259V193H78V155Z" fill="white" fill-opacity="0.01"/>
<path d="M78 155V154H77V155H78ZM78 156H259V154H78V156ZM79 193V155H77V193H79Z" fill="#B9B9B9" mask="url(#path-42-inside-14_1208_895)"/>
<path d="M98.712 168.732H100.596V169.572H98.712V168.732ZM98.712 171.06H100.596V171.888H98.712V171.06ZM98.016 167.088H99.012V173.532H98.016V167.088ZM91.968 174.048H99.012V177.936H98.016V174.852H91.968V174.048ZM93.624 167.724C95.256 167.724 96.456 168.78 96.456 170.304C96.456 171.816 95.256 172.86 93.624 172.86C91.992 172.86 90.792 171.816 90.792 170.304C90.792 168.78 91.992 167.724 93.624 167.724ZM93.624 168.576C92.544 168.576 91.764 169.272 91.764 170.304C91.764 171.324 92.544 172.032 93.624 172.032C94.704 172.032 95.484 171.324 95.484 170.304C95.484 169.272 94.704 168.576 93.624 168.576ZM109.085 172.168V173.105H105.266V172.168H109.085ZM113.645 177.119C113.083 177.119 112.581 177.023 112.141 176.83C111.703 176.636 111.355 176.368 111.097 176.024C110.841 175.678 110.702 175.276 110.679 174.818H111.753C111.776 175.099 111.873 175.342 112.043 175.547C112.213 175.749 112.436 175.905 112.712 176.016C112.988 176.126 113.293 176.182 113.628 176.182C114.003 176.182 114.336 176.116 114.625 175.986C114.915 175.855 115.142 175.673 115.307 175.44C115.472 175.207 115.554 174.938 115.554 174.631C115.554 174.31 115.475 174.027 115.316 173.783C115.157 173.536 114.924 173.342 114.617 173.203C114.31 173.064 113.935 172.994 113.492 172.994H112.793V172.057H113.492C113.838 172.057 114.142 171.994 114.404 171.869C114.668 171.744 114.874 171.568 115.022 171.341C115.172 171.114 115.248 170.847 115.248 170.54C115.248 170.244 115.182 169.987 115.051 169.768C114.921 169.55 114.736 169.379 114.498 169.257C114.262 169.135 113.983 169.074 113.662 169.074C113.361 169.074 113.077 169.129 112.81 169.24C112.546 169.348 112.33 169.506 112.162 169.713C111.995 169.918 111.904 170.165 111.89 170.455H110.867C110.884 169.997 111.022 169.597 111.28 169.253C111.539 168.906 111.877 168.636 112.294 168.443C112.715 168.25 113.176 168.153 113.679 168.153C114.219 168.153 114.682 168.263 115.069 168.482C115.455 168.697 115.752 168.983 115.959 169.338C116.167 169.693 116.27 170.077 116.27 170.489C116.27 170.98 116.141 171.399 115.882 171.746C115.627 172.092 115.279 172.332 114.838 172.466V172.534C115.39 172.625 115.82 172.859 116.13 173.237C116.439 173.612 116.594 174.077 116.594 174.631C116.594 175.105 116.465 175.531 116.206 175.909C115.951 176.284 115.601 176.58 115.158 176.795C114.715 177.011 114.211 177.119 113.645 177.119ZM118.817 177.068C118.607 177.068 118.427 176.993 118.276 176.842C118.126 176.692 118.05 176.511 118.05 176.301C118.05 176.091 118.126 175.911 118.276 175.76C118.427 175.609 118.607 175.534 118.817 175.534C119.028 175.534 119.208 175.609 119.359 175.76C119.509 175.911 119.585 176.091 119.585 176.301C119.585 176.44 119.549 176.568 119.478 176.685C119.41 176.801 119.317 176.895 119.201 176.966C119.087 177.034 118.96 177.068 118.817 177.068ZM121.168 175.21V174.341L125.003 168.273H125.634V169.619H125.207L122.31 174.205V174.273H127.474V175.21H121.168ZM125.276 177V174.946V174.541V168.273H126.281V177H125.276ZM134.202 175.432L129.395 170.625L130.043 169.977L134.85 174.784L134.202 175.432ZM130.043 175.432L129.395 174.784L134.202 169.977L134.85 170.625L130.043 175.432ZM140.05 168.273V177H138.993V169.381H138.942L136.811 170.795V169.722L138.993 168.273H140.05ZM145.406 177.119C144.764 177.119 144.217 176.945 143.766 176.595C143.314 176.243 142.969 175.733 142.73 175.065C142.491 174.395 142.372 173.585 142.372 172.636C142.372 171.693 142.491 170.888 142.73 170.22C142.972 169.55 143.318 169.038 143.77 168.686C144.224 168.331 144.77 168.153 145.406 168.153C146.043 168.153 146.587 168.331 147.038 168.686C147.493 169.038 147.839 169.55 148.078 170.22C148.32 170.888 148.44 171.693 148.44 172.636C148.44 173.585 148.321 174.395 148.082 175.065C147.844 175.733 147.499 176.243 147.047 176.595C146.595 176.945 146.048 177.119 145.406 177.119ZM145.406 176.182C146.043 176.182 146.537 175.875 146.889 175.261C147.241 174.648 147.418 173.773 147.418 172.636C147.418 171.881 147.337 171.237 147.175 170.706C147.016 170.175 146.786 169.77 146.484 169.491C146.186 169.213 145.827 169.074 145.406 169.074C144.776 169.074 144.283 169.385 143.928 170.007C143.572 170.626 143.395 171.503 143.395 172.636C143.395 173.392 143.474 174.034 143.634 174.562C143.793 175.091 144.021 175.493 144.32 175.768C144.621 176.044 144.983 176.182 145.406 176.182ZM151.815 169.023H152.122V169.449H151.815V169.023ZM149.634 172.227L151.389 168.545H152.548L154.304 172.227H153.298L151.918 169.278H152.02L150.656 172.227H149.634ZM158.634 177.119C158.071 177.119 157.57 177.023 157.129 176.83C156.692 176.636 156.344 176.368 156.085 176.024C155.83 175.678 155.69 175.276 155.668 174.818H156.741C156.764 175.099 156.861 175.342 157.031 175.547C157.202 175.749 157.425 175.905 157.7 176.016C157.976 176.126 158.281 176.182 158.616 176.182C158.991 176.182 159.324 176.116 159.614 175.986C159.903 175.855 160.131 175.673 160.295 175.44C160.46 175.207 160.543 174.938 160.543 174.631C160.543 174.31 160.463 174.027 160.304 173.783C160.145 173.536 159.912 173.342 159.605 173.203C159.298 173.064 158.923 172.994 158.48 172.994H157.781V172.057H158.48C158.827 172.057 159.131 171.994 159.392 171.869C159.656 171.744 159.862 171.568 160.01 171.341C160.161 171.114 160.236 170.847 160.236 170.54C160.236 170.244 160.17 169.987 160.04 169.768C159.909 169.55 159.724 169.379 159.486 169.257C159.25 169.135 158.972 169.074 158.651 169.074C158.349 169.074 158.065 169.129 157.798 169.24C157.534 169.348 157.318 169.506 157.151 169.713C156.983 169.918 156.892 170.165 156.878 170.455H155.855C155.872 169.997 156.01 169.597 156.268 169.253C156.527 168.906 156.865 168.636 157.283 168.443C157.703 168.25 158.165 168.153 158.668 168.153C159.207 168.153 159.67 168.263 160.057 168.482C160.443 168.697 160.74 168.983 160.947 169.338C161.155 169.693 161.259 170.077 161.259 170.489C161.259 170.98 161.129 171.399 160.871 171.746C160.615 172.092 160.267 172.332 159.827 172.466V172.534C160.378 172.625 160.808 172.859 161.118 173.237C161.428 173.612 161.582 174.077 161.582 174.631C161.582 175.105 161.453 175.531 161.195 175.909C160.939 176.284 160.589 176.58 160.146 176.795C159.703 177.011 159.199 177.119 158.634 177.119ZM166.121 177.119C165.536 177.119 165.018 177.016 164.57 176.808C164.124 176.598 163.776 176.31 163.526 175.943C163.276 175.574 163.152 175.153 163.155 174.682C163.152 174.312 163.224 173.972 163.372 173.659C163.52 173.344 163.722 173.081 163.977 172.871C164.236 172.658 164.524 172.523 164.842 172.466V172.415C164.425 172.307 164.092 172.072 163.845 171.712C163.598 171.348 163.476 170.935 163.479 170.472C163.476 170.028 163.588 169.632 163.815 169.283C164.043 168.933 164.355 168.658 164.753 168.456C165.153 168.254 165.609 168.153 166.121 168.153C166.626 168.153 167.078 168.254 167.476 168.456C167.874 168.658 168.186 168.933 168.413 169.283C168.643 169.632 168.76 170.028 168.763 170.472C168.76 170.935 168.634 171.348 168.384 171.712C168.136 172.072 167.808 172.307 167.399 172.415V172.466C167.714 172.523 167.999 172.658 168.251 172.871C168.504 173.081 168.706 173.344 168.857 173.659C169.007 173.972 169.084 174.312 169.087 174.682C169.084 175.153 168.956 175.574 168.703 175.943C168.453 176.31 168.105 176.598 167.659 176.808C167.216 177.016 166.703 177.119 166.121 177.119ZM166.121 176.182C166.516 176.182 166.857 176.118 167.143 175.99C167.43 175.862 167.652 175.682 167.808 175.449C167.964 175.216 168.044 174.943 168.047 174.631C168.044 174.301 167.959 174.01 167.791 173.757C167.624 173.504 167.395 173.305 167.105 173.161C166.818 173.016 166.49 172.943 166.121 172.943C165.749 172.943 165.416 173.016 165.124 173.161C164.834 173.305 164.605 173.504 164.438 173.757C164.273 174.01 164.192 174.301 164.195 174.631C164.192 174.943 164.267 175.216 164.42 175.449C164.577 175.682 164.8 175.862 165.089 175.99C165.379 176.118 165.723 176.182 166.121 176.182ZM166.121 172.04C166.433 172.04 166.71 171.977 166.952 171.852C167.196 171.727 167.388 171.553 167.527 171.328C167.666 171.104 167.737 170.841 167.74 170.54C167.737 170.244 167.668 169.987 167.531 169.768C167.395 169.547 167.206 169.376 166.964 169.257C166.723 169.135 166.442 169.074 166.121 169.074C165.794 169.074 165.509 169.135 165.264 169.257C165.02 169.376 164.831 169.547 164.697 169.768C164.564 169.987 164.499 170.244 164.501 170.54C164.499 170.841 164.565 171.104 164.702 171.328C164.841 171.553 165.033 171.727 165.277 171.852C165.521 171.977 165.803 172.04 166.121 172.04ZM170.805 173.506C170.797 173.034 170.873 172.655 171.035 172.368C171.197 172.081 171.407 171.872 171.666 171.741C171.927 171.611 172.203 171.545 172.493 171.545C172.782 171.545 173.047 171.609 173.285 171.737C173.527 171.862 173.802 172.06 174.112 172.33C174.322 172.511 174.49 172.639 174.615 172.713C174.743 172.787 174.882 172.824 175.032 172.824C175.277 172.824 175.47 172.736 175.612 172.56C175.754 172.381 175.822 172.122 175.816 171.784H176.737C176.745 172.256 176.669 172.635 176.507 172.922C176.348 173.209 176.137 173.418 175.876 173.548C175.615 173.679 175.339 173.744 175.049 173.744C174.76 173.744 174.495 173.682 174.257 173.557C174.018 173.429 173.743 173.23 173.43 172.96C173.223 172.778 173.055 172.651 172.927 172.577C172.799 172.503 172.66 172.466 172.51 172.466C172.279 172.466 172.089 172.547 171.939 172.709C171.791 172.868 171.72 173.134 171.725 173.506H170.805ZM181.438 177.119C180.876 177.119 180.374 177.023 179.934 176.83C179.496 176.636 179.148 176.368 178.89 176.024C178.634 175.678 178.495 175.276 178.472 174.818H179.546C179.569 175.099 179.665 175.342 179.836 175.547C180.006 175.749 180.229 175.905 180.505 176.016C180.781 176.126 181.086 176.182 181.421 176.182C181.796 176.182 182.129 176.116 182.418 175.986C182.708 175.855 182.935 175.673 183.1 175.44C183.265 175.207 183.347 174.938 183.347 174.631C183.347 174.31 183.268 174.027 183.109 173.783C182.95 173.536 182.717 173.342 182.41 173.203C182.103 173.064 181.728 172.994 181.285 172.994H180.586V172.057H181.285C181.631 172.057 181.935 171.994 182.197 171.869C182.461 171.744 182.667 171.568 182.815 171.341C182.965 171.114 183.04 170.847 183.04 170.54C183.04 170.244 182.975 169.987 182.844 169.768C182.714 169.55 182.529 169.379 182.29 169.257C182.055 169.135 181.776 169.074 181.455 169.074C181.154 169.074 180.87 169.129 180.603 169.24C180.339 169.348 180.123 169.506 179.955 169.713C179.788 169.918 179.697 170.165 179.683 170.455H178.66C178.677 169.997 178.815 169.597 179.073 169.253C179.332 168.906 179.67 168.636 180.087 168.443C180.508 168.25 180.969 168.153 181.472 168.153C182.012 168.153 182.475 168.263 182.862 168.482C183.248 168.697 183.545 168.983 183.752 169.338C183.96 169.693 184.063 170.077 184.063 170.489C184.063 170.98 183.934 171.399 183.675 171.746C183.42 172.092 183.072 172.332 182.631 172.466V172.534C183.183 172.625 183.613 172.859 183.923 173.237C184.232 173.612 184.387 174.077 184.387 174.631C184.387 175.105 184.258 175.531 183.999 175.909C183.744 176.284 183.394 176.58 182.951 176.795C182.508 177.011 182.004 177.119 181.438 177.119ZM186.61 177.068C186.4 177.068 186.22 176.993 186.069 176.842C185.919 176.692 185.843 176.511 185.843 176.301C185.843 176.091 185.919 175.911 186.069 175.76C186.22 175.609 186.4 175.534 186.61 175.534C186.821 175.534 187.001 175.609 187.152 175.76C187.302 175.911 187.377 176.091 187.377 176.301C187.377 176.44 187.342 176.568 187.271 176.685C187.203 176.801 187.11 176.895 186.994 176.966C186.88 177.034 186.752 177.068 186.61 177.068ZM188.961 175.21V174.341L192.796 168.273H193.426V169.619H193L190.103 174.205V174.273H195.267V175.21H188.961ZM193.069 177V174.946V174.541V168.273H194.074V177H193.069ZM201.995 175.432L197.188 170.625L197.836 169.977L202.643 174.784L201.995 175.432ZM197.836 175.432L197.188 174.784L201.995 169.977L202.643 170.625L197.836 175.432ZM207.843 168.273V177H206.786V169.381H206.735L204.604 170.795V169.722L206.786 168.273H207.843ZM213.199 177.119C212.557 177.119 212.01 176.945 211.559 176.595C211.107 176.243 210.762 175.733 210.523 175.065C210.284 174.395 210.165 173.585 210.165 172.636C210.165 171.693 210.284 170.888 210.523 170.22C210.765 169.55 211.111 169.038 211.563 168.686C212.017 168.331 212.563 168.153 213.199 168.153C213.836 168.153 214.38 168.331 214.831 168.686C215.286 169.038 215.632 169.55 215.871 170.22C216.113 170.888 216.233 171.693 216.233 172.636C216.233 173.585 216.114 174.395 215.875 175.065C215.637 175.733 215.292 176.243 214.84 176.595C214.388 176.945 213.841 177.119 213.199 177.119ZM213.199 176.182C213.836 176.182 214.33 175.875 214.682 175.261C215.034 174.648 215.211 173.773 215.211 172.636C215.211 171.881 215.13 171.237 214.968 170.706C214.809 170.175 214.578 169.77 214.277 169.491C213.979 169.213 213.62 169.074 213.199 169.074C212.569 169.074 212.076 169.385 211.721 170.007C211.365 170.626 211.188 171.503 211.188 172.636C211.188 173.392 211.267 174.034 211.426 174.562C211.586 175.091 211.814 175.493 212.113 175.768C212.414 176.044 212.776 176.182 213.199 176.182ZM219.608 169.023H219.915V169.449H219.608V169.023ZM217.426 172.227L219.182 168.545H220.341L222.097 172.227H221.091L219.711 169.278H219.813L218.449 172.227H217.426ZM226.426 177.119C225.864 177.119 225.363 177.023 224.922 176.83C224.485 176.636 224.137 176.368 223.878 176.024C223.623 175.678 223.483 175.276 223.461 174.818H224.534C224.557 175.099 224.654 175.342 224.824 175.547C224.995 175.749 225.218 175.905 225.493 176.016C225.769 176.126 226.074 176.182 226.409 176.182C226.784 176.182 227.117 176.116 227.407 175.986C227.696 175.855 227.924 175.673 228.088 175.44C228.253 175.207 228.336 174.938 228.336 174.631C228.336 174.31 228.256 174.027 228.097 173.783C227.938 173.536 227.705 173.342 227.398 173.203C227.091 173.064 226.716 172.994 226.273 172.994H225.574V172.057H226.273C226.62 172.057 226.924 171.994 227.185 171.869C227.449 171.744 227.655 171.568 227.803 171.341C227.953 171.114 228.029 170.847 228.029 170.54C228.029 170.244 227.963 169.987 227.833 169.768C227.702 169.55 227.517 169.379 227.279 169.257C227.043 169.135 226.765 169.074 226.444 169.074C226.142 169.074 225.858 169.129 225.591 169.24C225.327 169.348 225.111 169.506 224.944 169.713C224.776 169.918 224.685 170.165 224.671 170.455H223.648C223.665 169.997 223.803 169.597 224.061 169.253C224.32 168.906 224.658 168.636 225.076 168.443C225.496 168.25 225.958 168.153 226.461 168.153C227 168.153 227.463 168.263 227.85 168.482C228.236 168.697 228.533 168.983 228.74 169.338C228.948 169.693 229.051 170.077 229.051 170.489C229.051 170.98 228.922 171.399 228.664 171.746C228.408 172.092 228.06 172.332 227.62 172.466V172.534C228.171 172.625 228.601 172.859 228.911 173.237C229.221 173.612 229.375 174.077 229.375 174.631C229.375 175.105 229.246 175.531 228.988 175.909C228.732 176.284 228.382 176.58 227.939 176.795C227.496 177.011 226.992 177.119 226.426 177.119ZM233.914 177.119C233.328 177.119 232.811 177.016 232.363 176.808C231.917 176.598 231.569 176.31 231.319 175.943C231.069 175.574 230.945 175.153 230.948 174.682C230.945 174.312 231.017 173.972 231.165 173.659C231.313 173.344 231.515 173.081 231.77 172.871C232.029 172.658 232.317 172.523 232.635 172.466V172.415C232.218 172.307 231.885 172.072 231.638 171.712C231.391 171.348 231.269 170.935 231.272 170.472C231.269 170.028 231.381 169.632 231.608 169.283C231.836 168.933 232.148 168.658 232.546 168.456C232.946 168.254 233.402 168.153 233.914 168.153C234.419 168.153 234.871 168.254 235.269 168.456C235.667 168.658 235.979 168.933 236.206 169.283C236.436 169.632 236.553 170.028 236.556 170.472C236.553 170.935 236.426 171.348 236.176 171.712C235.929 172.072 235.601 172.307 235.192 172.415V172.466C235.507 172.523 235.792 172.658 236.044 172.871C236.297 173.081 236.499 173.344 236.65 173.659C236.8 173.972 236.877 174.312 236.88 174.682C236.877 175.153 236.749 175.574 236.496 175.943C236.246 176.31 235.898 176.598 235.452 176.808C235.009 177.016 234.496 177.119 233.914 177.119ZM233.914 176.182C234.309 176.182 234.65 176.118 234.936 175.99C235.223 175.862 235.445 175.682 235.601 175.449C235.757 175.216 235.837 174.943 235.84 174.631C235.837 174.301 235.752 174.01 235.584 173.757C235.417 173.504 235.188 173.305 234.898 173.161C234.611 173.016 234.283 172.943 233.914 172.943C233.542 172.943 233.209 173.016 232.917 173.161C232.627 173.305 232.398 173.504 232.23 173.757C232.066 174.01 231.985 174.301 231.988 174.631C231.985 174.943 232.06 175.216 232.213 175.449C232.37 175.682 232.593 175.862 232.882 175.99C233.172 176.118 233.516 176.182 233.914 176.182ZM233.914 172.04C234.226 172.04 234.503 171.977 234.745 171.852C234.989 171.727 235.181 171.553 235.32 171.328C235.459 171.104 235.53 170.841 235.533 170.54C235.53 170.244 235.461 169.987 235.324 169.768C235.188 169.547 234.999 169.376 234.757 169.257C234.516 169.135 234.235 169.074 233.914 169.074C233.587 169.074 233.301 169.135 233.057 169.257C232.813 169.376 232.624 169.547 232.49 169.768C232.357 169.987 232.292 170.244 232.294 170.54C232.292 170.841 232.358 171.104 232.495 171.328C232.634 171.553 232.826 171.727 233.07 171.852C233.314 171.977 233.596 172.04 233.914 172.04Z" fill="black"/>
<mask id="path-45-inside-15_1208_895" fill="white">
<path d="M259 155H431V193H259V155Z"/>
</mask>
<path d="M259 155H431V193H259V155Z" fill="white" fill-opacity="0.01"/>
<path d="M259 155V154H258V155H259ZM259 156H431V154H259V156ZM260 193V155H258V193H260Z" fill="#B9B9B9" mask="url(#path-45-inside-15_1208_895)"/>
<path d="M271.7 177.488H283.166V178.454H271.7V177.488ZM276.796 174.422H277.944V177.81H276.796V174.422ZM276.768 168.276H277.776V169.256C277.776 171.958 275.186 174.044 272.638 174.576L272.148 173.61C274.374 173.204 276.768 171.342 276.768 169.256V168.276ZM276.978 168.276H277.986V169.256C277.986 171.356 280.394 173.204 282.62 173.61L282.116 174.576C279.568 174.044 276.978 171.958 276.978 169.256V168.276ZM289.689 167.884H290.711V168.584C290.711 171.006 288.247 172.742 285.615 173.19L285.153 172.252C287.463 171.902 289.689 170.39 289.689 168.584V167.884ZM289.899 167.884H290.907V168.584C290.907 170.348 293.161 171.902 295.443 172.252L294.981 173.19C292.377 172.742 289.899 170.978 289.899 168.584V167.884ZM289.689 175.276H290.837V180.092H289.689V175.276ZM284.579 174.562H296.017V175.528H284.579V174.562ZM304.206 170.6H307.02V171.566H304.206V170.6ZM306.698 167.436H307.86V174.842H306.698V167.436ZM299.656 175.458H307.86V179.924H299.656V175.458ZM306.726 176.382H300.79V178.986H306.726V176.382ZM300.678 168.64H301.63V169.662C301.63 171.972 300.202 173.946 298.088 174.73L297.486 173.806C299.376 173.134 300.678 171.454 300.678 169.662V168.64ZM300.902 168.64H301.84V169.648C301.84 171.286 303.072 172.868 304.906 173.512L304.318 174.436C302.26 173.694 300.902 171.776 300.902 169.648V168.64ZM297.85 168.248H304.612V169.186H297.85V168.248ZM317.634 168.402C319.496 168.402 320.812 170.124 320.812 172.812C320.812 175.514 319.496 177.236 317.634 177.236C315.772 177.236 314.456 175.514 314.456 172.812C314.456 170.124 315.772 168.402 317.634 168.402ZM317.634 169.452C316.402 169.452 315.562 170.768 315.562 172.812C315.562 174.87 316.402 176.214 317.634 176.214C318.852 176.214 319.706 174.87 319.706 172.812C319.706 170.768 318.852 169.452 317.634 169.452ZM322.828 167.436H324.004V180.092H322.828V167.436ZM323.724 172.49H326.076V173.47H323.724V172.49ZM327.559 176.102H328.399C329.939 176.102 331.339 176.046 333.047 175.752L333.145 176.718C331.395 177.026 329.967 177.068 328.399 177.068H327.559V176.102ZM327.531 168.808H332.277V173.26H328.693V176.466H327.559V172.308H331.143V169.76H327.531V168.808ZM336.771 167.436H337.891V180.092H336.771V167.436ZM334.629 172.434H337.065V173.386H334.629V172.434ZM333.901 167.716H334.993V179.448H333.901V167.716ZM353.434 169.354H355.632V170.334H353.434V169.354ZM353.434 172.07H355.632V173.036H353.434V172.07ZM352.622 167.436H353.784V174.954H352.622V167.436ZM345.566 175.556H353.784V180.092H352.622V176.494H345.566V175.556ZM347.498 168.178C349.402 168.178 350.802 169.41 350.802 171.188C350.802 172.952 349.402 174.17 347.498 174.17C345.594 174.17 344.194 172.952 344.194 171.188C344.194 169.41 345.594 168.178 347.498 168.178ZM347.498 169.172C346.238 169.172 345.328 169.984 345.328 171.188C345.328 172.378 346.238 173.204 347.498 173.204C348.758 173.204 349.668 172.378 349.668 171.188C349.668 169.984 348.758 169.172 347.498 169.172ZM361.458 179L366.012 169.991V169.912H360.762V168.818H367.285V169.972L362.751 179H361.458ZM371.906 169.242H372.83V171.3C372.83 173.932 371.22 176.648 369.246 177.656L368.574 176.732C370.38 175.85 371.906 173.442 371.906 171.3V169.242ZM372.116 169.242H373.04V171.3C373.04 173.302 374.468 175.556 376.302 176.424L375.644 177.348C373.642 176.354 372.116 173.806 372.116 171.3V169.242ZM369.022 168.724H375.84V169.704H369.022V168.724ZM377.338 167.436H378.514V180.092H377.338V167.436ZM378.234 172.546H380.586V173.526H378.234V172.546ZM390.875 167.422H392.037V180.106H390.875V167.422ZM382.391 176.088H383.441C385.555 176.088 387.445 176.004 389.685 175.64L389.811 176.592C387.515 176.97 385.611 177.054 383.441 177.054H382.391V176.088ZM382.363 168.612H388.215V173.134H383.553V176.452H382.391V172.182H387.039V169.564H382.363V168.612Z" fill="black"/>
</g>
</g>
<rect x="0.5" y="0.5" width="430" height="192" rx="3.5" stroke="#B9B9B9"/>
<path d="M83 1H259V41H83V1Z" fill="#D1D1D1"/>
<path d="M142.147 18.672H144.275V22.656H142.147V18.672ZM146.803 18.688H148.915V22.672H146.803V18.688ZM138.867 22.08H152.275V23.808H138.867V22.08ZM139.891 11.776H151.171V13.472H139.891V11.776ZM139.955 17.632H151.123V19.312H139.955V17.632ZM141.907 13.184H144.035V17.872H141.907V13.184ZM147.043 13.184H149.155V17.872H147.043V13.184ZM163.842 10.624H165.97V21.904H163.842V10.624ZM161.906 14.288H164.642V15.984H161.906V14.288ZM161.906 17.472H164.642V19.152H161.906V17.472ZM153.618 12.16H161.746V13.824H153.618V12.16ZM157.778 14.352C159.794 14.352 161.25 15.552 161.25 17.264C161.25 18.976 159.794 20.176 157.778 20.176C155.762 20.176 154.306 18.976 154.306 17.264C154.306 15.552 155.762 14.352 157.778 14.352ZM157.778 15.984C156.914 15.984 156.306 16.448 156.306 17.264C156.306 18.096 156.914 18.544 157.778 18.544C158.642 18.544 159.25 18.096 159.25 17.264C159.25 16.448 158.642 15.984 157.778 15.984ZM156.722 10.576H158.85V13.184H156.722V10.576ZM156.162 23.472H166.29V25.168H156.162V23.472ZM156.162 20.976H158.306V24.256H156.162V20.976ZM172.616 11.456H174.728V13.408H177.544V11.456H179.624V18.56H172.616V11.456ZM174.728 15.056V16.88H177.544V15.056H174.728ZM179.144 14.096H182.744V15.824H179.144V14.096ZM182.264 10.608H184.392V19.184H182.264V10.608ZM174.52 19.792H184.392V25.264H174.52V19.792ZM182.312 21.456H176.616V23.584H182.312V21.456ZM191.51 11.2C193.766 11.2 195.398 12.496 195.398 14.368C195.398 16.208 193.766 17.536 191.51 17.536C189.27 17.536 187.638 16.208 187.638 14.368C187.638 12.496 189.27 11.2 191.51 11.2ZM191.51 12.928C190.438 12.928 189.67 13.44 189.67 14.368C189.67 15.28 190.438 15.792 191.51 15.792C192.598 15.792 193.366 15.28 193.366 14.368C193.366 13.44 192.598 12.928 191.51 12.928ZM190.518 19.008H192.646V24.976H190.518V19.008ZM196.998 10.608H199.11V25.424H196.998V10.608ZM187.014 20.128L186.758 18.4C189.35 18.4 193.014 18.368 196.15 17.888L196.294 19.44C193.078 20.08 189.574 20.112 187.014 20.128Z" fill="black"/>
<defs>
<clipPath id="clip0_1208_895">
<rect width="431" height="193" rx="4" fill="white"/>
</clipPath>
<clipPath id="clip1_1208_895">
<rect width="431" height="41" fill="white"/>
</clipPath>
<clipPath id="clip2_1208_895">
<rect width="431" height="38" fill="white" transform="translate(0 41)"/>
</clipPath>
<clipPath id="clip3_1208_895">
<rect width="431" height="38" fill="white" transform="translate(0 79)"/>
</clipPath>
<clipPath id="clip4_1208_895">
<rect width="431" height="38" fill="white" transform="translate(0 117)"/>
</clipPath>
<clipPath id="clip5_1208_895">
<rect width="431" height="38" fill="white" transform="translate(0 155)"/>
</clipPath>
</defs>
</svg>
