<svg width="357" height="472" viewBox="0 0 357 472" fill="none" xmlns="http://www.w3.org/2000/svg">
<rect x="220" y="45.7568" width="44.9945" height="44.2486" rx="3" fill="white"/>
<rect x="220" y="45.7568" width="44.9945" height="44.2486" rx="3" stroke="white" stroke-width="2"/>
<rect x="220" y="45.7568" width="44.9945" height="44.2486" rx="3" stroke="black" stroke-opacity="0.2" stroke-width="2"/>
<rect x="220" y="1" width="44.9945" height="44.2486" rx="3" fill="white"/>
<rect x="220" y="1" width="44.9945" height="44.2486" rx="3" stroke="white" stroke-width="2"/>
<rect x="220" y="1" width="44.9945" height="44.2486" rx="3" stroke="black" stroke-opacity="0.2" stroke-width="2"/>
<rect x="265.502" y="45.7568" width="44.9945" height="44.2486" rx="3" fill="white"/>
<rect x="265.502" y="45.7568" width="44.9945" height="44.2486" rx="3" stroke="white" stroke-width="2"/>
<rect x="265.502" y="45.7568" width="44.9945" height="44.2486" rx="3" stroke="black" stroke-opacity="0.2" stroke-width="2"/>
<rect x="265.502" y="1" width="44.9945" height="44.2486" rx="3" fill="white"/>
<rect x="265.502" y="1" width="44.9945" height="44.2486" rx="3" stroke="white" stroke-width="2"/>
<rect x="265.502" y="1" width="44.9945" height="44.2486" rx="3" stroke="black" stroke-opacity="0.2" stroke-width="2"/>
<rect x="311.006" y="45.7568" width="44.9945" height="44.2486" rx="3" fill="white"/>
<rect x="311.006" y="45.7568" width="44.9945" height="44.2486" rx="3" stroke="white" stroke-width="2"/>
<rect x="311.006" y="45.7568" width="44.9945" height="44.2486" rx="3" stroke="black" stroke-opacity="0.2" stroke-width="2"/>
<rect x="311.006" y="1" width="44.9945" height="44.2486" rx="3" fill="white"/>
<rect x="311.006" y="1" width="44.9945" height="44.2486" rx="3" stroke="white" stroke-width="2"/>
<rect x="311.006" y="1" width="44.9945" height="44.2486" rx="3" stroke="black" stroke-opacity="0.2" stroke-width="2"/>
<path d="M244.464 13.8182V32H242.262V16.1264H242.155L237.716 19.0739V16.8366L242.262 13.8182H244.464Z" fill="black"/>
<path d="M336.464 13.8182V32H334.262V16.1264H334.155L329.716 19.0739V16.8366L334.262 13.8182H336.464Z" fill="black"/>
<path d="M336.464 58.8182V77H334.262V61.1264H334.155L329.716 64.0739V61.8366L334.262 58.8182H336.464Z" fill="black"/>
<path d="M290.464 13.8182V32H288.262V16.1264H288.155L283.716 19.0739V16.8366L288.262 13.8182H290.464Z" fill="black"/>
<path d="M244.464 58.8182V77H242.262V61.1264H242.155L237.716 64.0739V61.8366L242.262 58.8182H244.464Z" fill="black"/>
<path d="M290.464 58.8182V77H288.262V61.1264H288.155L283.716 64.0739V61.8366L288.262 58.8182H290.464Z" fill="black"/>
<rect x="220" y="161.757" width="44.9945" height="44.2486" rx="3" fill="white"/>
<rect x="220" y="161.757" width="44.9945" height="44.2486" rx="3" stroke="white" stroke-width="2"/>
<rect x="220" y="161.757" width="44.9945" height="44.2486" rx="3" stroke="black" stroke-opacity="0.05" stroke-width="2"/>
<rect x="220" y="117" width="44.9945" height="44.2486" rx="3" fill="white"/>
<rect x="220" y="117" width="44.9945" height="44.2486" rx="3" stroke="white" stroke-width="2"/>
<rect x="220" y="117" width="44.9945" height="44.2486" rx="3" stroke="black" stroke-opacity="0.05" stroke-width="2"/>
<rect x="265.502" y="161.757" width="44.9945" height="44.2486" rx="3" fill="white"/>
<rect x="265.502" y="161.757" width="44.9945" height="44.2486" rx="3" stroke="white" stroke-width="2"/>
<rect x="265.502" y="161.757" width="44.9945" height="44.2486" rx="3" stroke="black" stroke-opacity="0.05" stroke-width="2"/>
<rect x="265.502" y="117" width="44.9945" height="44.2486" rx="3" fill="white"/>
<rect x="265.502" y="117" width="44.9945" height="44.2486" rx="3" stroke="white" stroke-width="2"/>
<rect x="265.502" y="117" width="44.9945" height="44.2486" rx="3" stroke="black" stroke-opacity="0.05" stroke-width="2"/>
<rect x="311.006" y="161.757" width="44.9945" height="44.2486" rx="3" fill="white"/>
<rect x="311.006" y="161.757" width="44.9945" height="44.2486" rx="3" stroke="white" stroke-width="2"/>
<rect x="311.006" y="161.757" width="44.9945" height="44.2486" rx="3" stroke="black" stroke-opacity="0.05" stroke-width="2"/>
<rect x="311.006" y="117" width="44.9945" height="44.2486" rx="3" fill="white"/>
<rect x="311.006" y="117" width="44.9945" height="44.2486" rx="3" stroke="white" stroke-width="2"/>
<rect x="311.006" y="117" width="44.9945" height="44.2486" rx="3" stroke="black" stroke-opacity="0.05" stroke-width="2"/>
<path d="M244.464 129.818V148H242.262V132.126H242.155L237.716 135.074V132.837L242.262 129.818H244.464Z" fill="black" fill-opacity="0.1"/>
<path d="M336.464 129.818V148H334.262V132.126H334.155L329.716 135.074V132.837L334.262 129.818H336.464Z" fill="black" fill-opacity="0.1"/>
<path d="M336.464 174.818V193H334.262V177.126H334.155L329.716 180.074V177.837L334.262 174.818H336.464Z" fill="black" fill-opacity="0.1"/>
<path d="M290.464 129.818V148H288.262V132.126H288.155L283.716 135.074V132.837L288.262 129.818H290.464Z" fill="black" fill-opacity="0.1"/>
<path d="M244.464 174.818V193H242.262V177.126H242.155L237.716 180.074V177.837L242.262 174.818H244.464Z" fill="black" fill-opacity="0.1"/>
<path d="M290.464 174.818V193H288.262V177.126H288.155L283.716 180.074V177.837L288.262 174.818H290.464Z" fill="black" fill-opacity="0.1"/>
<path d="M289 96C289 95.4477 288.552 95 288 95C287.448 95 287 95.4477 287 96L289 96ZM287.293 110.707C287.683 111.098 288.317 111.098 288.707 110.707L295.071 104.343C295.462 103.953 295.462 103.319 295.071 102.929C294.681 102.538 294.047 102.538 293.657 102.929L288 108.586L282.343 102.929C281.953 102.538 281.319 102.538 280.929 102.929C280.538 103.319 280.538 103.953 280.929 104.343L287.293 110.707ZM287 96L287 110L289 110L289 96L287 96Z" fill="#657AD0"/>
<rect x="1" y="45.7568" width="44.9945" height="44.2486" rx="3" fill="white"/>
<rect x="1" y="45.7568" width="44.9945" height="44.2486" rx="3" stroke="white" stroke-width="2"/>
<rect x="1" y="45.7568" width="44.9945" height="44.2486" rx="3" stroke="black" stroke-opacity="0.2" stroke-width="2"/>
<rect x="1" y="1" width="44.9945" height="44.2486" rx="3" fill="white"/>
<rect x="1" y="1" width="44.9945" height="44.2486" rx="3" stroke="white" stroke-width="2"/>
<rect x="1" y="1" width="44.9945" height="44.2486" rx="3" stroke="black" stroke-opacity="0.2" stroke-width="2"/>
<rect x="46.502" y="45.7568" width="44.9945" height="44.2486" rx="3" fill="white"/>
<rect x="46.502" y="45.7568" width="44.9945" height="44.2486" rx="3" stroke="white" stroke-width="2"/>
<rect x="46.502" y="45.7568" width="44.9945" height="44.2486" rx="3" stroke="black" stroke-opacity="0.2" stroke-width="2"/>
<rect x="46.502" y="1" width="44.9945" height="44.2486" rx="3" fill="white"/>
<rect x="46.502" y="1" width="44.9945" height="44.2486" rx="3" stroke="white" stroke-width="2"/>
<rect x="46.502" y="1" width="44.9945" height="44.2486" rx="3" stroke="black" stroke-opacity="0.2" stroke-width="2"/>
<rect x="92.0059" y="45.7568" width="44.9945" height="44.2486" rx="3" fill="white"/>
<rect x="92.0059" y="45.7568" width="44.9945" height="44.2486" rx="3" stroke="white" stroke-width="2"/>
<rect x="92.0059" y="45.7568" width="44.9945" height="44.2486" rx="3" stroke="black" stroke-opacity="0.2" stroke-width="2"/>
<rect x="92.0059" y="1" width="44.9945" height="44.2486" rx="3" fill="white"/>
<rect x="92.0059" y="1" width="44.9945" height="44.2486" rx="3" stroke="white" stroke-width="2"/>
<rect x="92.0059" y="1" width="44.9945" height="44.2486" rx="3" stroke="black" stroke-opacity="0.2" stroke-width="2"/>
<path d="M25.4636 13.8182V32H23.2619V16.1264H23.1554L18.7164 19.0739V16.8366L23.2619 13.8182H25.4636Z" fill="black"/>
<path d="M115.067 32.2486C113.895 32.2486 112.85 32.0473 111.933 31.6449C111.021 31.2424 110.296 30.6831 109.758 29.967C109.225 29.2449 108.935 28.4074 108.888 27.4545H111.125C111.172 28.0405 111.373 28.5465 111.729 28.9727C112.084 29.3929 112.548 29.7184 113.122 29.9492C113.696 30.18 114.333 30.2955 115.031 30.2955C115.812 30.2955 116.505 30.1593 117.108 29.8871C117.712 29.6148 118.186 29.236 118.529 28.7507C118.872 28.2654 119.044 27.7031 119.044 27.0639C119.044 26.3951 118.878 25.8062 118.547 25.2972C118.215 24.7823 117.73 24.3799 117.091 24.0898C116.452 23.7998 115.67 23.6548 114.747 23.6548H113.291V21.7017H114.747C115.469 21.7017 116.102 21.5715 116.647 21.3111C117.197 21.0507 117.626 20.6837 117.934 20.2102C118.248 19.7367 118.405 19.1804 118.405 18.5412C118.405 17.9257 118.269 17.39 117.996 16.9343C117.724 16.4786 117.339 16.1235 116.842 15.869C116.351 15.6145 115.771 15.4872 115.102 15.4872C114.475 15.4872 113.883 15.6026 113.327 15.8335C112.776 16.0584 112.326 16.3868 111.977 16.8189C111.628 17.245 111.439 17.7599 111.409 18.3636H109.278C109.314 17.4107 109.601 16.5762 110.139 15.8601C110.678 15.138 111.382 14.5758 112.252 14.1733C113.128 13.7708 114.09 13.5696 115.138 13.5696C116.262 13.5696 117.227 13.7975 118.032 14.2532C118.837 14.703 119.455 15.2978 119.887 16.0376C120.319 16.7775 120.535 17.5765 120.535 18.4347C120.535 19.4586 120.266 20.3316 119.727 21.0536C119.195 21.7757 118.47 22.2758 117.552 22.554V22.696C118.701 22.8854 119.597 23.3737 120.242 24.1609C120.887 24.9421 121.21 25.9098 121.21 27.0639C121.21 28.0523 120.941 28.9401 120.402 29.7273C119.869 30.5085 119.142 31.1241 118.218 31.5739C117.295 32.0237 116.244 32.2486 115.067 32.2486Z" fill="black"/>
<path d="M115.119 77.2486C114.373 77.2367 113.627 77.0947 112.882 76.8224C112.136 76.5502 111.455 76.0915 110.84 75.4464C110.224 74.7953 109.73 73.9164 109.357 72.8097C108.984 71.697 108.798 70.3002 108.798 68.6193C108.798 67.0095 108.949 65.5831 109.25 64.3402C109.552 63.0914 109.99 62.0408 110.564 61.1886C111.139 60.3304 111.831 59.6793 112.642 59.2354C113.459 58.7915 114.379 58.5696 115.403 58.5696C116.421 58.5696 117.326 58.7738 118.119 59.1822C118.918 59.5846 119.569 60.1469 120.073 60.869C120.576 61.591 120.901 62.4226 121.049 63.3636H118.883C118.682 62.5469 118.291 61.8692 117.711 61.3306C117.131 60.792 116.362 60.5227 115.403 60.5227C113.994 60.5227 112.884 61.1353 112.074 62.3604C111.269 63.5856 110.863 65.3049 110.857 67.5185H110.999C111.331 67.0154 111.724 66.5863 112.18 66.2312C112.642 65.8701 113.151 65.592 113.707 65.3967C114.264 65.2013 114.852 65.1037 115.474 65.1037C116.516 65.1037 117.468 65.3641 118.333 65.8849C119.197 66.3999 119.889 67.113 120.41 68.0245C120.931 68.93 121.191 69.9688 121.191 71.1406C121.191 72.2652 120.94 73.295 120.437 74.2301C119.933 75.1593 119.226 75.8991 118.315 76.4496C117.409 76.9941 116.344 77.2604 115.119 77.2486ZM115.119 75.2955C115.864 75.2955 116.533 75.109 117.125 74.7362C117.723 74.3633 118.193 73.8632 118.537 73.2358C118.886 72.6084 119.061 71.91 119.061 71.1406C119.061 70.389 118.892 69.7054 118.554 69.0898C118.223 68.4684 117.764 67.9742 117.178 67.6072C116.598 67.2403 115.936 67.0568 115.19 67.0568C114.628 67.0568 114.104 67.1693 113.618 67.3942C113.133 67.6132 112.707 67.915 112.34 68.2997C111.979 68.6844 111.695 69.1254 111.488 69.6225C111.281 70.1138 111.177 70.6316 111.177 71.1761C111.177 71.8982 111.346 72.5729 111.683 73.2003C112.026 73.8277 112.494 74.3337 113.086 74.7184C113.683 75.1031 114.361 75.2955 115.119 75.2955Z" fill="black"/>
<path d="M63.3137 32V30.402L69.3152 23.8324C70.0195 23.063 70.5995 22.3942 71.0552 21.826C71.5109 21.2519 71.8483 20.7133 72.0673 20.2102C72.2922 19.7012 72.4047 19.1686 72.4047 18.6122C72.4047 17.973 72.2508 17.4196 71.943 16.9521C71.6412 16.4845 71.2269 16.1235 70.7001 15.869C70.1734 15.6145 69.5815 15.4872 68.9245 15.4872C68.2261 15.4872 67.6165 15.6322 67.0957 15.9222C66.5808 16.2063 66.1813 16.6058 65.8972 17.1207C65.619 17.6357 65.4799 18.2393 65.4799 18.9318H63.3848C63.3848 17.8665 63.6304 16.9313 64.1216 16.1264C64.6129 15.3215 65.2817 14.6941 66.128 14.2443C66.9803 13.7945 67.9361 13.5696 68.9956 13.5696C70.0609 13.5696 71.0049 13.7945 71.8276 14.2443C72.6503 14.6941 73.2954 15.3008 73.763 16.0643C74.2305 16.8278 74.4643 17.6771 74.4643 18.6122C74.4643 19.281 74.343 19.935 74.1003 20.5742C73.8636 21.2075 73.4493 21.9148 72.8574 22.696C72.2715 23.4714 71.4577 24.4183 70.416 25.5369L66.3322 29.9048V30.0469H74.7839V32H63.3137Z" fill="black"/>
<path d="M16.4359 73.2713V71.4602L24.426 58.8182H25.7399V61.6236H24.8521L18.8152 71.1761V71.3182H29.5752V73.2713H16.4359ZM24.9942 77V72.7209V71.8775V58.8182H27.0894V77H24.9942Z" fill="black"/>
<path d="M68.9589 77.2486C67.9173 77.2486 66.9792 77.0414 66.1447 76.6271C65.3101 76.2128 64.6414 75.6446 64.1383 74.9226C63.6352 74.2005 63.36 73.3778 63.3126 72.4545H65.4433C65.5262 73.2772 65.899 73.9579 66.5619 74.4964C67.2307 75.0291 68.0297 75.2955 68.9589 75.2955C69.7047 75.2955 70.3676 75.1209 70.9476 74.7717C71.5335 74.4225 71.9922 73.9431 72.3236 73.3335C72.661 72.7179 72.8297 72.0225 72.8297 71.2472C72.8297 70.4541 72.6551 69.7468 72.3059 69.1254C71.9626 68.498 71.4891 68.0038 70.8854 67.6428C70.2817 67.2817 69.5922 67.0982 68.8169 67.0923C68.2605 67.0864 67.6894 67.1722 67.1035 67.3498C66.5175 67.5214 66.0352 67.7434 65.6564 68.0156L63.5967 67.767L64.6976 58.8182H74.1436V60.7713H66.5442L65.905 66.1335H66.0115C66.3844 65.8376 66.8519 65.592 67.4142 65.3967C67.9765 65.2013 68.5624 65.1037 69.172 65.1037C70.2847 65.1037 71.2761 65.37 72.1461 65.9027C73.022 66.4295 73.7086 67.1515 74.2057 68.0689C74.7088 68.9863 74.9604 70.0339 74.9604 71.2116C74.9604 72.3717 74.6999 73.4074 74.1791 74.3189C73.6642 75.2244 72.954 75.9406 72.0484 76.4673C71.1429 76.9882 70.1131 77.2486 68.9589 77.2486Z" fill="black"/>
<rect x="1" y="161.757" width="44.9945" height="44.2486" rx="3" fill="white"/>
<rect x="1" y="161.757" width="44.9945" height="44.2486" rx="3" stroke="white" stroke-width="2"/>
<rect x="1" y="161.757" width="44.9945" height="44.2486" rx="3" stroke="black" stroke-opacity="0.2" stroke-width="2"/>
<rect x="1" y="117" width="44.9945" height="44.2486" rx="3" fill="white"/>
<rect x="1" y="117" width="44.9945" height="44.2486" rx="3" stroke="white" stroke-width="2"/>
<rect x="1" y="117" width="44.9945" height="44.2486" rx="3" stroke="black" stroke-opacity="0.2" stroke-width="2"/>
<rect x="46.502" y="161.757" width="44.9945" height="44.2486" rx="3" fill="white"/>
<rect x="46.502" y="161.757" width="44.9945" height="44.2486" rx="3" stroke="white" stroke-width="2"/>
<rect x="46.502" y="161.757" width="44.9945" height="44.2486" rx="3" stroke="black" stroke-opacity="0.2" stroke-width="2"/>
<rect x="46.502" y="117" width="44.9945" height="44.2486" rx="3" fill="white"/>
<rect x="46.502" y="117" width="44.9945" height="44.2486" rx="3" stroke="white" stroke-width="2"/>
<rect x="46.502" y="117" width="44.9945" height="44.2486" rx="3" stroke="black" stroke-opacity="0.2" stroke-width="2"/>
<rect x="92.0059" y="161.757" width="44.9945" height="44.2486" rx="3" fill="white"/>
<rect x="92.0059" y="161.757" width="44.9945" height="44.2486" rx="3" stroke="white" stroke-width="2"/>
<rect x="92.0059" y="161.757" width="44.9945" height="44.2486" rx="3" stroke="black" stroke-opacity="0.2" stroke-width="2"/>
<rect x="92.0059" y="117" width="44.9945" height="44.2486" rx="3" fill="white"/>
<rect x="92.0059" y="117" width="44.9945" height="44.2486" rx="3" stroke="white" stroke-width="2"/>
<rect x="92.0059" y="117" width="44.9945" height="44.2486" rx="3" stroke="black" stroke-opacity="0.2" stroke-width="2"/>
<path d="M18.3092 148L26.4413 131.913V131.771H17.0663V129.818H28.714V131.878L20.6174 148H18.3092Z" fill="black"/>
<path d="M114.87 129.57C115.616 129.576 116.362 129.718 117.107 129.996C117.853 130.274 118.534 130.736 119.149 131.381C119.765 132.02 120.259 132.893 120.632 134C121.005 135.106 121.191 136.494 121.191 138.163C121.191 139.779 121.037 141.214 120.73 142.469C120.428 143.718 119.99 144.771 119.416 145.63C118.847 146.488 118.155 147.139 117.338 147.583C116.527 148.027 115.61 148.249 114.586 148.249C113.568 148.249 112.66 148.047 111.861 147.645C111.067 147.237 110.416 146.671 109.907 145.949C109.404 145.221 109.082 144.378 108.94 143.419H111.106C111.301 144.254 111.689 144.943 112.269 145.488C112.855 146.026 113.627 146.295 114.586 146.295C115.989 146.295 117.096 145.683 117.906 144.458C118.723 143.233 119.132 141.501 119.132 139.264H118.989C118.658 139.761 118.264 140.19 117.809 140.551C117.353 140.913 116.847 141.191 116.291 141.386C115.734 141.581 115.142 141.679 114.515 141.679C113.473 141.679 112.518 141.422 111.648 140.907C110.783 140.386 110.091 139.673 109.57 138.767C109.055 137.856 108.798 136.814 108.798 135.642C108.798 134.529 109.046 133.511 109.543 132.588C110.047 131.659 110.751 130.919 111.656 130.369C112.568 129.818 113.639 129.552 114.87 129.57ZM114.87 131.523C114.124 131.523 113.453 131.709 112.855 132.082C112.263 132.449 111.793 132.946 111.443 133.574C111.1 134.195 110.928 134.884 110.928 135.642C110.928 136.4 111.094 137.089 111.426 137.711C111.763 138.326 112.222 138.817 112.802 139.184C113.388 139.545 114.053 139.726 114.799 139.726C115.361 139.726 115.885 139.616 116.371 139.397C116.856 139.172 117.279 138.868 117.64 138.483C118.007 138.092 118.294 137.651 118.501 137.16C118.708 136.663 118.812 136.145 118.812 135.607C118.812 134.896 118.64 134.23 118.297 133.609C117.96 132.988 117.492 132.484 116.894 132.1C116.302 131.715 115.628 131.523 114.87 131.523Z" fill="black"/>
<path d="M110.645 174.818V193H108.444V177.126H108.337L103.898 180.074V177.837L108.444 174.818H110.645ZM114.374 193V191.402L120.376 184.832C121.08 184.063 121.66 183.394 122.116 182.826C122.571 182.252 122.909 181.713 123.128 181.21C123.353 180.701 123.465 180.169 123.465 179.612C123.465 178.973 123.311 178.42 123.004 177.952C122.702 177.484 122.287 177.123 121.761 176.869C121.234 176.614 120.642 176.487 119.985 176.487C119.287 176.487 118.677 176.632 118.156 176.922C117.641 177.206 117.242 177.606 116.958 178.121C116.68 178.636 116.54 179.239 116.54 179.932H114.445C114.445 178.866 114.691 177.931 115.182 177.126C115.673 176.321 116.342 175.694 117.189 175.244C118.041 174.795 118.997 174.57 120.056 174.57C121.121 174.57 122.065 174.795 122.888 175.244C123.711 175.694 124.356 176.301 124.824 177.064C125.291 177.828 125.525 178.677 125.525 179.612C125.525 180.281 125.404 180.935 125.161 181.574C124.924 182.208 124.51 182.915 123.918 183.696C123.332 184.471 122.518 185.418 121.477 186.537L117.393 190.905V191.047H125.844V193H114.374Z" fill="black"/>
<path d="M69.0033 148.249C67.7841 148.249 66.7069 148.033 65.7718 147.6C64.8426 147.163 64.1176 146.562 63.5967 145.798C63.0759 145.029 62.8184 144.153 62.8244 143.17C62.8184 142.401 62.9694 141.691 63.2771 141.04C63.5849 140.383 64.0051 139.835 64.5378 139.397C65.0764 138.953 65.6771 138.672 66.34 138.554V138.447C65.4699 138.223 64.7775 137.734 64.2626 136.983C63.7476 136.225 63.4931 135.364 63.4991 134.399C63.4931 133.476 63.7269 132.65 64.2004 131.922C64.6739 131.194 65.3249 130.62 66.1535 130.2C66.9881 129.78 67.938 129.57 69.0033 129.57C70.0568 129.57 70.9979 129.78 71.8265 130.2C72.6551 130.62 73.3061 131.194 73.7796 131.922C74.259 132.65 74.5017 133.476 74.5076 134.399C74.5017 135.364 74.2383 136.225 73.7175 136.983C73.2025 137.734 72.519 138.223 71.6667 138.447V138.554C72.3236 138.672 72.9155 138.953 73.4422 139.397C73.969 139.835 74.3892 140.383 74.7029 141.04C75.0166 141.691 75.1764 142.401 75.1823 143.17C75.1764 144.153 74.9101 145.029 74.3833 145.798C73.8625 146.562 73.1374 147.163 72.2082 147.6C71.2849 148.033 70.2166 148.249 69.0033 148.249ZM69.0033 146.295C69.826 146.295 70.5362 146.162 71.134 145.896C71.7318 145.63 72.1934 145.254 72.519 144.768C72.8445 144.283 73.0102 143.715 73.0161 143.064C73.0102 142.377 72.8326 141.771 72.4834 141.244C72.1342 140.717 71.6578 140.303 71.0541 140.001C70.4563 139.699 69.7727 139.548 69.0033 139.548C68.228 139.548 67.5355 139.699 66.9259 140.001C66.3222 140.303 65.8458 140.717 65.4966 141.244C65.1533 141.771 64.9846 142.377 64.9905 143.064C64.9846 143.715 65.1415 144.283 65.4611 144.768C65.7866 145.254 66.2512 145.63 66.8549 145.896C67.4586 146.162 68.1747 146.295 69.0033 146.295ZM69.0033 137.666C69.6544 137.666 70.2314 137.536 70.7345 137.276C71.2435 137.015 71.643 136.651 71.933 136.184C72.223 135.716 72.371 135.169 72.3769 134.541C72.371 133.926 72.226 133.39 71.9419 132.934C71.6578 132.473 71.2642 132.118 70.7611 131.869C70.2581 131.614 69.6721 131.487 69.0033 131.487C68.3227 131.487 67.7279 131.614 67.2189 131.869C66.7099 132.118 66.3163 132.473 66.0381 132.934C65.76 133.39 65.6238 133.926 65.6297 134.541C65.6238 135.169 65.7629 135.716 66.047 136.184C66.337 136.651 66.7365 137.015 67.2455 137.276C67.7545 137.536 68.3405 137.666 69.0033 137.666Z" fill="black"/>
<path d="M18.2761 174.818V193H16.0744V177.126H15.9679L11.5289 180.074V177.837L16.0744 174.818H18.2761ZM28.1855 193.249C26.848 193.249 25.7086 192.885 24.7676 192.157C23.8265 191.423 23.1074 190.36 22.6103 188.969C22.1131 187.573 21.8645 185.886 21.8645 183.909C21.8645 181.944 22.1131 180.266 22.6103 178.875C23.1133 177.479 23.8354 176.413 24.7765 175.679C25.7234 174.94 26.8598 174.57 28.1855 174.57C29.5113 174.57 30.6447 174.94 31.5858 175.679C32.5327 176.413 33.2548 177.479 33.752 178.875C34.255 180.266 34.5066 181.944 34.5066 183.909C34.5066 185.886 34.258 187.573 33.7608 188.969C33.2637 190.36 32.5446 191.423 31.6035 192.157C30.6625 192.885 29.5231 193.249 28.1855 193.249ZM28.1855 191.295C29.5113 191.295 30.5411 190.656 31.275 189.378C32.0089 188.099 32.3759 186.277 32.3759 183.909C32.3759 182.335 32.2072 180.994 31.8699 179.887C31.5384 178.781 31.059 177.937 30.4316 177.357C29.8102 176.777 29.0615 176.487 28.1855 176.487C26.8716 176.487 25.8448 177.135 25.1049 178.431C24.3651 179.722 23.9952 181.548 23.9952 183.909C23.9952 185.483 24.1609 186.821 24.4924 187.922C24.8238 189.023 25.3002 189.86 25.9217 190.434C26.5491 191.008 27.3037 191.295 28.1855 191.295Z" fill="black"/>
<path d="M65.6531 174.818V193H63.4513V177.126H63.3448L58.9059 180.074V177.837L63.4513 174.818H65.6531ZM77.2741 174.818V193H75.0724V177.126H74.9659L70.527 180.074V177.837L75.0724 174.818H77.2741Z" fill="black"/>
<rect x="113" y="310.757" width="44.9945" height="44.2486" rx="3" fill="white"/>
<rect x="113" y="310.757" width="44.9945" height="44.2486" rx="3" stroke="white" stroke-width="2"/>
<rect x="113" y="310.757" width="44.9945" height="44.2486" rx="3" stroke="black" stroke-opacity="0.2" stroke-width="2"/>
<rect x="113" y="266" width="44.9945" height="44.2486" rx="3" fill="white"/>
<rect x="113" y="266" width="44.9945" height="44.2486" rx="3" stroke="white" stroke-width="2"/>
<rect x="113" y="266" width="44.9945" height="44.2486" rx="3" stroke="black" stroke-opacity="0.2" stroke-width="2"/>
<rect x="158.502" y="310.757" width="44.9945" height="44.2486" rx="3" fill="white"/>
<rect x="158.502" y="310.757" width="44.9945" height="44.2486" rx="3" stroke="white" stroke-width="2"/>
<rect x="158.502" y="310.757" width="44.9945" height="44.2486" rx="3" stroke="black" stroke-opacity="0.2" stroke-width="2"/>
<rect x="158.502" y="266" width="44.9945" height="44.2486" rx="3" fill="white"/>
<rect x="158.502" y="266" width="44.9945" height="44.2486" rx="3" stroke="white" stroke-width="2"/>
<rect x="158.502" y="266" width="44.9945" height="44.2486" rx="3" stroke="black" stroke-opacity="0.2" stroke-width="2"/>
<rect x="204.006" y="310.757" width="44.9945" height="44.2486" rx="3" fill="white"/>
<rect x="204.006" y="310.757" width="44.9945" height="44.2486" rx="3" stroke="white" stroke-width="2"/>
<rect x="204.006" y="310.757" width="44.9945" height="44.2486" rx="3" stroke="black" stroke-opacity="0.2" stroke-width="2"/>
<rect x="204.006" y="266" width="44.9945" height="44.2486" rx="3" fill="white"/>
<rect x="204.006" y="266" width="44.9945" height="44.2486" rx="3" stroke="white" stroke-width="2"/>
<rect x="204.006" y="266" width="44.9945" height="44.2486" rx="3" stroke="black" stroke-opacity="0.2" stroke-width="2"/>
<path d="M129.314 297V295.402L135.315 288.832C136.019 288.063 136.599 287.394 137.055 286.826C137.511 286.252 137.848 285.713 138.067 285.21C138.292 284.701 138.405 284.169 138.405 283.612C138.405 282.973 138.251 282.42 137.943 281.952C137.641 281.484 137.227 281.123 136.7 280.869C136.173 280.614 135.581 280.487 134.925 280.487C134.226 280.487 133.617 280.632 133.096 280.922C132.581 281.206 132.181 281.606 131.897 282.121C131.619 282.636 131.48 283.239 131.48 283.932H129.385C129.385 282.866 129.63 281.931 130.122 281.126C130.613 280.321 131.282 279.694 132.128 279.244C132.98 278.795 133.936 278.57 134.996 278.57C136.061 278.57 137.005 278.795 137.828 279.244C138.65 279.694 139.295 280.301 139.763 281.064C140.231 281.828 140.464 282.677 140.464 283.612C140.464 284.281 140.343 284.935 140.1 285.574C139.864 286.208 139.449 286.915 138.857 287.696C138.271 288.471 137.458 289.418 136.416 290.537L132.332 294.905V295.047H140.784V297H129.314Z" fill="black"/>
<path d="M220.436 293.271V291.46L228.426 278.818H229.74V281.624H228.852L222.815 291.176V291.318H233.575V293.271H220.436ZM228.994 297V292.721V291.877V278.818H231.089V297H228.994Z" fill="black"/>
<path d="M222.309 342L230.441 325.913V325.771H221.066V323.818H232.714V325.878L224.617 342H222.309Z" fill="black"/>
<path d="M181.067 297.249C179.895 297.249 178.85 297.047 177.933 296.645C177.021 296.242 176.296 295.683 175.758 294.967C175.225 294.245 174.935 293.407 174.888 292.455H177.125C177.172 293.04 177.373 293.547 177.729 293.973C178.084 294.393 178.548 294.718 179.122 294.949C179.696 295.18 180.333 295.295 181.031 295.295C181.812 295.295 182.505 295.159 183.108 294.887C183.712 294.615 184.186 294.236 184.529 293.751C184.872 293.265 185.044 292.703 185.044 292.064C185.044 291.395 184.878 290.806 184.547 290.297C184.215 289.782 183.73 289.38 183.091 289.09C182.452 288.8 181.67 288.655 180.747 288.655H179.291V286.702H180.747C181.469 286.702 182.102 286.571 182.647 286.311C183.197 286.051 183.626 285.684 183.934 285.21C184.248 284.737 184.405 284.18 184.405 283.541C184.405 282.926 184.269 282.39 183.996 281.934C183.724 281.479 183.339 281.123 182.842 280.869C182.351 280.614 181.771 280.487 181.102 280.487C180.475 280.487 179.883 280.603 179.327 280.833C178.776 281.058 178.326 281.387 177.977 281.819C177.628 282.245 177.439 282.76 177.409 283.364H175.278C175.314 282.411 175.601 281.576 176.139 280.86C176.678 280.138 177.382 279.576 178.252 279.173C179.128 278.771 180.09 278.57 181.138 278.57C182.262 278.57 183.227 278.797 184.032 279.253C184.837 279.703 185.455 280.298 185.887 281.038C186.319 281.777 186.535 282.576 186.535 283.435C186.535 284.459 186.266 285.332 185.727 286.054C185.195 286.776 184.47 287.276 183.552 287.554V287.696C184.701 287.885 185.597 288.374 186.242 289.161C186.887 289.942 187.21 290.91 187.21 292.064C187.21 293.052 186.941 293.94 186.402 294.727C185.869 295.509 185.142 296.124 184.218 296.574C183.295 297.024 182.244 297.249 181.067 297.249Z" fill="black"/>
<path d="M134.959 342.249C133.917 342.249 132.979 342.041 132.145 341.627C131.31 341.213 130.641 340.645 130.138 339.923C129.635 339.201 129.36 338.378 129.313 337.455H131.443C131.526 338.277 131.899 338.958 132.562 339.496C133.231 340.029 134.03 340.295 134.959 340.295C135.705 340.295 136.368 340.121 136.948 339.772C137.534 339.422 137.992 338.943 138.324 338.333C138.661 337.718 138.83 337.022 138.83 336.247C138.83 335.454 138.655 334.747 138.306 334.125C137.963 333.498 137.489 333.004 136.885 332.643C136.282 332.282 135.592 332.098 134.817 332.092C134.261 332.086 133.689 332.172 133.103 332.35C132.518 332.521 132.035 332.743 131.656 333.016L129.597 332.767L130.698 323.818H140.144V325.771H132.544L131.905 331.134H132.011C132.384 330.838 132.852 330.592 133.414 330.397C133.976 330.201 134.562 330.104 135.172 330.104C136.285 330.104 137.276 330.37 138.146 330.903C139.022 331.429 139.709 332.152 140.206 333.069C140.709 333.986 140.96 335.034 140.96 336.212C140.96 337.372 140.7 338.407 140.179 339.319C139.664 340.224 138.954 340.941 138.048 341.467C137.143 341.988 136.113 342.249 134.959 342.249Z" fill="black"/>
<path d="M181.119 342.249C180.373 342.237 179.627 342.095 178.882 341.822C178.136 341.55 177.455 341.092 176.84 340.446C176.224 339.795 175.73 338.916 175.357 337.81C174.984 336.697 174.798 335.3 174.798 333.619C174.798 332.009 174.949 330.583 175.25 329.34C175.552 328.091 175.99 327.041 176.564 326.189C177.139 325.33 177.831 324.679 178.642 324.235C179.459 323.792 180.379 323.57 181.403 323.57C182.421 323.57 183.326 323.774 184.119 324.182C184.918 324.585 185.569 325.147 186.073 325.869C186.576 326.591 186.901 327.423 187.049 328.364H184.883C184.682 327.547 184.291 326.869 183.711 326.331C183.131 325.792 182.362 325.523 181.403 325.523C179.994 325.523 178.884 326.135 178.074 327.36C177.269 328.586 176.863 330.305 176.857 332.518H176.999C177.331 332.015 177.724 331.586 178.18 331.231C178.642 330.87 179.151 330.592 179.707 330.397C180.264 330.201 180.852 330.104 181.474 330.104C182.516 330.104 183.468 330.364 184.333 330.885C185.197 331.4 185.889 332.113 186.41 333.025C186.931 333.93 187.191 334.969 187.191 336.141C187.191 337.265 186.94 338.295 186.437 339.23C185.933 340.159 185.226 340.899 184.315 341.45C183.409 341.994 182.344 342.26 181.119 342.249ZM181.119 340.295C181.864 340.295 182.533 340.109 183.125 339.736C183.723 339.363 184.193 338.863 184.537 338.236C184.886 337.608 185.061 336.91 185.061 336.141C185.061 335.389 184.892 334.705 184.554 334.09C184.223 333.468 183.764 332.974 183.178 332.607C182.598 332.24 181.936 332.057 181.19 332.057C180.628 332.057 180.104 332.169 179.618 332.394C179.133 332.613 178.707 332.915 178.34 333.3C177.979 333.684 177.695 334.125 177.488 334.623C177.281 335.114 177.177 335.632 177.177 336.176C177.177 336.898 177.346 337.573 177.683 338.2C178.026 338.828 178.494 339.334 179.086 339.718C179.683 340.103 180.361 340.295 181.119 340.295Z" fill="black"/>
<rect x="113" y="426.757" width="44.9945" height="44.2486" rx="3" fill="white"/>
<rect x="113" y="426.757" width="44.9945" height="44.2486" rx="3" stroke="white" stroke-width="2"/>
<rect x="113" y="426.757" width="44.9945" height="44.2486" rx="3" stroke="black" stroke-opacity="0.2" stroke-width="2"/>
<rect x="113" y="382" width="44.9945" height="44.2486" rx="3" fill="white"/>
<rect x="113" y="382" width="44.9945" height="44.2486" rx="3" stroke="white" stroke-width="2"/>
<rect x="113" y="382" width="44.9945" height="44.2486" rx="3" stroke="black" stroke-opacity="0.2" stroke-width="2"/>
<rect x="158.502" y="426.757" width="44.9945" height="44.2486" rx="3" fill="white"/>
<rect x="158.502" y="426.757" width="44.9945" height="44.2486" rx="3" stroke="white" stroke-width="2"/>
<rect x="158.502" y="426.757" width="44.9945" height="44.2486" rx="3" stroke="black" stroke-opacity="0.2" stroke-width="2"/>
<rect x="158.502" y="382" width="44.9945" height="44.2486" rx="3" fill="white"/>
<rect x="158.502" y="382" width="44.9945" height="44.2486" rx="3" stroke="white" stroke-width="2"/>
<rect x="158.502" y="382" width="44.9945" height="44.2486" rx="3" stroke="black" stroke-opacity="0.2" stroke-width="2"/>
<rect x="204.006" y="426.757" width="44.9945" height="44.2486" rx="3" fill="white"/>
<rect x="204.006" y="426.757" width="44.9945" height="44.2486" rx="3" stroke="white" stroke-width="2"/>
<rect x="204.006" y="426.757" width="44.9945" height="44.2486" rx="3" stroke="black" stroke-opacity="0.2" stroke-width="2"/>
<rect x="204.006" y="382" width="44.9945" height="44.2486" rx="3" fill="white"/>
<rect x="204.006" y="382" width="44.9945" height="44.2486" rx="3" stroke="white" stroke-width="2"/>
<rect x="204.006" y="382" width="44.9945" height="44.2486" rx="3" stroke="black" stroke-opacity="0.2" stroke-width="2"/>
<path d="M135.003 413.249C133.784 413.249 132.707 413.033 131.772 412.6C130.843 412.163 130.118 411.562 129.597 410.798C129.076 410.029 128.818 409.153 128.824 408.17C128.818 407.401 128.969 406.691 129.277 406.04C129.585 405.383 130.005 404.835 130.538 404.397C131.076 403.953 131.677 403.672 132.34 403.554V403.447C131.47 403.223 130.777 402.734 130.263 401.983C129.748 401.225 129.493 400.364 129.499 399.399C129.493 398.476 129.727 397.65 130.2 396.922C130.674 396.194 131.325 395.62 132.154 395.2C132.988 394.78 133.938 394.57 135.003 394.57C136.057 394.57 136.998 394.78 137.826 395.2C138.655 395.62 139.306 396.194 139.78 396.922C140.259 397.65 140.502 398.476 140.508 399.399C140.502 400.364 140.238 401.225 139.717 401.983C139.203 402.734 138.519 403.223 137.667 403.447V403.554C138.324 403.672 138.915 403.953 139.442 404.397C139.969 404.835 140.389 405.383 140.703 406.04C141.017 406.691 141.176 407.401 141.182 408.17C141.176 409.153 140.91 410.029 140.383 410.798C139.862 411.562 139.137 412.163 138.208 412.6C137.285 413.033 136.217 413.249 135.003 413.249ZM135.003 411.295C135.826 411.295 136.536 411.162 137.134 410.896C137.732 410.63 138.193 410.254 138.519 409.768C138.844 409.283 139.01 408.715 139.016 408.064C139.01 407.377 138.833 406.771 138.483 406.244C138.134 405.717 137.658 405.303 137.054 405.001C136.456 404.699 135.773 404.548 135.003 404.548C134.228 404.548 133.536 404.699 132.926 405.001C132.322 405.303 131.846 405.717 131.497 406.244C131.153 406.771 130.985 407.377 130.991 408.064C130.985 408.715 131.141 409.283 131.461 409.768C131.787 410.254 132.251 410.63 132.855 410.896C133.459 411.162 134.175 411.295 135.003 411.295ZM135.003 402.666C135.654 402.666 136.231 402.536 136.735 402.276C137.244 402.015 137.643 401.651 137.933 401.184C138.223 400.716 138.371 400.169 138.377 399.541C138.371 398.926 138.226 398.39 137.942 397.934C137.658 397.473 137.264 397.118 136.761 396.869C136.258 396.614 135.672 396.487 135.003 396.487C134.323 396.487 133.728 396.614 133.219 396.869C132.71 397.118 132.316 397.473 132.038 397.934C131.76 398.39 131.624 398.926 131.63 399.541C131.624 400.169 131.763 400.716 132.047 401.184C132.337 401.651 132.737 402.015 133.246 402.276C133.755 402.536 134.34 402.666 135.003 402.666Z" fill="black"/>
<path d="M222.401 394.818V413H220.199V397.126H220.093L215.654 400.074V397.837L220.199 394.818H222.401ZM232.061 413.249C230.723 413.249 229.584 412.885 228.643 412.157C227.702 411.423 226.982 410.36 226.485 408.969C225.988 407.573 225.74 405.886 225.74 403.909C225.74 401.944 225.988 400.266 226.485 398.875C226.988 397.479 227.71 396.413 228.651 395.679C229.598 394.94 230.735 394.57 232.061 394.57C233.386 394.57 234.52 394.94 235.461 395.679C236.408 396.413 237.13 397.479 237.627 398.875C238.13 400.266 238.382 401.944 238.382 403.909C238.382 405.886 238.133 407.573 237.636 408.969C237.139 410.36 236.42 411.423 235.479 412.157C234.537 412.885 233.398 413.249 232.061 413.249ZM232.061 411.295C233.386 411.295 234.416 410.656 235.15 409.378C235.884 408.099 236.251 406.277 236.251 403.909C236.251 402.335 236.082 400.994 235.745 399.887C235.413 398.781 234.934 397.937 234.307 397.357C233.685 396.777 232.936 396.487 232.061 396.487C230.747 396.487 229.72 397.135 228.98 398.431C228.24 399.722 227.87 401.548 227.87 403.909C227.87 405.483 228.036 406.821 228.367 407.922C228.699 409.023 229.175 409.86 229.797 410.434C230.424 411.008 231.179 411.295 232.061 411.295Z" fill="black"/>
<path d="M222.38 439.818V458H220.178V442.126H220.071L215.632 445.074V442.837L220.178 439.818H222.38ZM232.002 458.249C230.83 458.249 229.786 458.047 228.868 457.645C227.957 457.242 227.232 456.683 226.693 455.967C226.161 455.245 225.871 454.407 225.823 453.455H228.06C228.108 454.04 228.309 454.547 228.664 454.973C229.019 455.393 229.484 455.718 230.058 455.949C230.632 456.18 231.268 456.295 231.967 456.295C232.748 456.295 233.44 456.159 234.044 455.887C234.648 455.615 235.121 455.236 235.464 454.751C235.808 454.265 235.979 453.703 235.979 453.064C235.979 452.395 235.814 451.806 235.482 451.297C235.151 450.782 234.665 450.38 234.026 450.09C233.387 449.8 232.606 449.655 231.683 449.655H230.227V447.702H231.683C232.405 447.702 233.038 447.571 233.582 447.311C234.133 447.051 234.562 446.684 234.87 446.21C235.183 445.737 235.34 445.18 235.34 444.541C235.34 443.926 235.204 443.39 234.932 442.934C234.66 442.479 234.275 442.123 233.778 441.869C233.286 441.614 232.706 441.487 232.038 441.487C231.41 441.487 230.818 441.603 230.262 441.833C229.712 442.058 229.262 442.387 228.913 442.819C228.563 443.245 228.374 443.76 228.344 444.364H226.214C226.249 443.411 226.536 442.576 227.075 441.86C227.614 441.138 228.318 440.576 229.188 440.173C230.064 439.771 231.026 439.57 232.073 439.57C233.198 439.57 234.162 439.797 234.967 440.253C235.772 440.703 236.391 441.298 236.823 442.038C237.255 442.777 237.471 443.576 237.471 444.435C237.471 445.459 237.202 446.332 236.663 447.054C236.13 447.776 235.405 448.276 234.488 448.554V448.696C235.636 448.885 236.533 449.374 237.178 450.161C237.823 450.942 238.146 451.91 238.146 453.064C238.146 454.052 237.876 454.94 237.338 455.727C236.805 456.509 236.077 457.124 235.154 457.574C234.23 458.024 233.18 458.249 232.002 458.249Z" fill="black"/>
<path d="M180.87 394.57C181.616 394.576 182.362 394.718 183.107 394.996C183.853 395.274 184.534 395.736 185.149 396.381C185.765 397.02 186.259 397.893 186.632 399C187.005 400.106 187.191 401.494 187.191 403.163C187.191 404.779 187.037 406.214 186.73 407.469C186.428 408.718 185.99 409.771 185.416 410.63C184.847 411.488 184.155 412.139 183.338 412.583C182.527 413.027 181.61 413.249 180.586 413.249C179.568 413.249 178.66 413.047 177.861 412.645C177.067 412.237 176.416 411.671 175.907 410.949C175.404 410.221 175.082 409.378 174.94 408.419H177.106C177.301 409.254 177.689 409.943 178.269 410.488C178.855 411.026 179.627 411.295 180.586 411.295C181.989 411.295 183.096 410.683 183.906 409.458C184.723 408.233 185.132 406.501 185.132 404.264H184.989C184.658 404.761 184.264 405.19 183.809 405.551C183.353 405.913 182.847 406.191 182.291 406.386C181.734 406.581 181.142 406.679 180.515 406.679C179.473 406.679 178.518 406.422 177.648 405.907C176.783 405.386 176.091 404.673 175.57 403.767C175.055 402.856 174.798 401.814 174.798 400.642C174.798 399.529 175.046 398.511 175.543 397.588C176.047 396.659 176.751 395.919 177.656 395.369C178.568 394.818 179.639 394.552 180.87 394.57ZM180.87 396.523C180.124 396.523 179.453 396.709 178.855 397.082C178.263 397.449 177.793 397.946 177.443 398.574C177.1 399.195 176.928 399.884 176.928 400.642C176.928 401.4 177.094 402.089 177.426 402.711C177.763 403.326 178.222 403.817 178.802 404.184C179.388 404.545 180.053 404.726 180.799 404.726C181.361 404.726 181.885 404.616 182.371 404.397C182.856 404.172 183.279 403.868 183.64 403.483C184.007 403.092 184.294 402.651 184.501 402.16C184.708 401.663 184.812 401.145 184.812 400.607C184.812 399.896 184.64 399.23 184.297 398.609C183.96 397.988 183.492 397.484 182.894 397.1C182.302 396.715 181.628 396.523 180.87 396.523Z" fill="black"/>
<path d="M132.278 439.818V458H130.076V442.126H129.97L125.531 445.074V442.837L130.076 439.818H132.278ZM142.649 439.818V458H140.447V442.126H140.341L135.902 445.074V442.837L140.447 439.818H142.649Z" fill="black"/>
<path d="M176.52 439.818V458H174.319V442.126H174.212L169.773 445.074V442.837L174.319 439.818H176.52ZM180.499 458V456.402L186.501 449.832C187.205 449.063 187.785 448.394 188.241 447.826C188.696 447.252 189.034 446.713 189.253 446.21C189.478 445.701 189.59 445.169 189.59 444.612C189.59 443.973 189.436 443.42 189.129 442.952C188.827 442.484 188.412 442.123 187.886 441.869C187.359 441.614 186.767 441.487 186.11 441.487C185.412 441.487 184.802 441.632 184.281 441.922C183.766 442.206 183.367 442.606 183.083 443.121C182.805 443.636 182.665 444.239 182.665 444.932H180.57C180.57 443.866 180.816 442.931 181.307 442.126C181.798 441.321 182.467 440.694 183.314 440.244C184.166 439.795 185.122 439.57 186.181 439.57C187.246 439.57 188.19 439.795 189.013 440.244C189.836 440.694 190.481 441.301 190.949 442.064C191.416 442.828 191.65 443.677 191.65 444.612C191.65 445.281 191.529 445.935 191.286 446.574C191.049 447.208 190.635 447.915 190.043 448.696C189.457 449.471 188.643 450.418 187.602 451.537L183.518 455.905V456.047H191.969V458H180.499Z" fill="black"/>
<rect x="185.916" y="215" width="23.8725" height="10.9416" rx="1" transform="rotate(90 185.916 215)" fill="#DF5C5C"/>
<path d="M181.006 248.127C180.607 248.588 179.893 248.588 179.494 248.127L170.641 237.905C170.08 237.257 170.54 236.25 171.397 236.25L189.103 236.25C189.96 236.25 190.42 237.257 189.859 237.905L181.006 248.127Z" fill="#DF5C5C"/>
<path d="M178.447 112.061V93.7798H181.549V112.061H178.447ZM170.858 104.472V101.369H189.139V104.472H170.858Z" fill="black"/>
</svg>
