<svg width="440" height="214" viewBox="0 0 440 214" fill="none" xmlns="http://www.w3.org/2000/svg">
<rect x="-1" y="1" width="43" height="43" rx="3" transform="matrix(-1 0 0 1 158 21)" fill="#F1F8FF"/>
<rect x="-1" y="1" width="43" height="43" rx="3" transform="matrix(-1 0 0 1 158 21)" stroke="white" stroke-width="2"/>
<rect x="-1" y="1" width="43" height="43" rx="3" transform="matrix(-1 0 0 1 158 21)" stroke="#454545" stroke-opacity="0.42" stroke-width="2"/>
<rect x="-1" y="1" width="43" height="43" rx="3" transform="matrix(-1 0 0 1 115 21)" fill="#F1F8FF"/>
<rect x="-1" y="1" width="43" height="43" rx="3" transform="matrix(-1 0 0 1 115 21)" stroke="white" stroke-width="2"/>
<rect x="-1" y="1" width="43" height="43" rx="3" transform="matrix(-1 0 0 1 115 21)" stroke="#454545" stroke-opacity="0.42" stroke-width="2"/>
<rect x="-1" y="1" width="43" height="43" rx="3" transform="matrix(-1 0 0 1 158 64)" fill="#F1F8FF"/>
<rect x="-1" y="1" width="43" height="43" rx="3" transform="matrix(-1 0 0 1 158 64)" stroke="white" stroke-width="2"/>
<rect x="-1" y="1" width="43" height="43" rx="3" transform="matrix(-1 0 0 1 158 64)" stroke="#454545" stroke-opacity="0.42" stroke-width="2"/>
<rect x="-1" y="1" width="43" height="43" rx="3" transform="matrix(-1 0 0 1 115 64)" fill="#F1F8FF"/>
<rect x="-1" y="1" width="43" height="43" rx="3" transform="matrix(-1 0 0 1 115 64)" stroke="white" stroke-width="2"/>
<rect x="-1" y="1" width="43" height="43" rx="3" transform="matrix(-1 0 0 1 115 64)" stroke="#454545" stroke-opacity="0.42" stroke-width="2"/>
<rect x="-1" y="1" width="43" height="43" rx="3" transform="matrix(-1 0 0 1 158 107)" fill="#BCE5FF"/>
<rect x="-1" y="1" width="43" height="43" rx="3" transform="matrix(-1 0 0 1 158 107)" stroke="white" stroke-width="2"/>
<rect x="-1" y="1" width="43" height="43" rx="3" transform="matrix(-1 0 0 1 158 107)" stroke="#454545" stroke-opacity="0.42" stroke-width="2"/>
<rect x="-1" y="1" width="43" height="43" rx="3" transform="matrix(-1 0 0 1 115 107)" fill="#BCE5FF"/>
<rect x="-1" y="1" width="43" height="43" rx="3" transform="matrix(-1 0 0 1 115 107)" stroke="white" stroke-width="2"/>
<rect x="-1" y="1" width="43" height="43" rx="3" transform="matrix(-1 0 0 1 115 107)" stroke="#454545" stroke-opacity="0.42" stroke-width="2"/>
<rect x="-1" y="1" width="43" height="43" rx="3" transform="matrix(-1 0 0 1 72 21)" fill="#F1F8FF"/>
<rect x="-1" y="1" width="43" height="43" rx="3" transform="matrix(-1 0 0 1 72 21)" stroke="white" stroke-width="2"/>
<rect x="-1" y="1" width="43" height="43" rx="3" transform="matrix(-1 0 0 1 72 21)" stroke="#454545" stroke-opacity="0.42" stroke-width="2"/>
<rect x="-1" y="1" width="43" height="43" rx="3" transform="matrix(-1 0 0 1 72 64)" fill="#F1F8FF"/>
<rect x="-1" y="1" width="43" height="43" rx="3" transform="matrix(-1 0 0 1 72 64)" stroke="white" stroke-width="2"/>
<rect x="-1" y="1" width="43" height="43" rx="3" transform="matrix(-1 0 0 1 72 64)" stroke="#454545" stroke-opacity="0.42" stroke-width="2"/>
<rect x="-1" y="1" width="43" height="43" rx="3" transform="matrix(-1 0 0 1 72 107)" fill="#BCE5FF"/>
<rect x="-1" y="1" width="43" height="43" rx="3" transform="matrix(-1 0 0 1 72 107)" stroke="white" stroke-width="2"/>
<rect x="-1" y="1" width="43" height="43" rx="3" transform="matrix(-1 0 0 1 72 107)" stroke="#454545" stroke-opacity="0.42" stroke-width="2"/>
<path d="M53.8208 37.4545V52H51.1858V40.0185H51.1006L47.6986 42.1918V39.777L51.3137 37.4545H53.8208Z" fill="black"/>
<path d="M137.416 52.1989C136.393 52.1989 135.484 52.0237 134.689 51.6733C133.898 51.3229 133.273 50.8352 132.814 50.2102C132.354 49.5852 132.11 48.8632 132.082 48.044H134.752C134.776 48.437 134.906 48.7803 135.143 49.0739C135.38 49.3627 135.695 49.5876 136.088 49.7486C136.481 49.9096 136.921 49.9901 137.409 49.9901C137.93 49.9901 138.391 49.9001 138.794 49.7202C139.196 49.5355 139.511 49.2798 139.738 48.9531C139.965 48.6264 140.077 48.25 140.072 47.8239C140.077 47.3835 139.963 46.9953 139.731 46.6591C139.499 46.3229 139.163 46.0601 138.723 45.8707C138.287 45.6813 137.761 45.5866 137.146 45.5866H135.86V43.5554H137.146C137.653 43.5554 138.095 43.4678 138.474 43.2926C138.858 43.1174 139.158 42.8712 139.376 42.554C139.594 42.232 139.7 41.8603 139.696 41.4389C139.7 41.027 139.608 40.6695 139.419 40.3665C139.234 40.0587 138.971 39.8196 138.63 39.6491C138.294 39.4787 137.899 39.3935 137.444 39.3935C136.999 39.3935 136.587 39.474 136.208 39.6349C135.83 39.7959 135.524 40.0256 135.292 40.3239C135.06 40.6174 134.937 40.9678 134.923 41.375H132.387C132.406 40.5606 132.641 39.8456 133.09 39.2301C133.545 38.6098 134.151 38.1269 134.909 37.7812C135.666 37.4309 136.516 37.2557 137.458 37.2557C138.429 37.2557 139.272 37.438 139.987 37.8026C140.706 38.1624 141.263 38.6477 141.656 39.2585C142.049 39.8693 142.245 40.544 142.245 41.2827C142.25 42.1018 142.009 42.7884 141.521 43.3423C141.038 43.8963 140.403 44.2585 139.617 44.429V44.5426C140.64 44.6847 141.424 45.0634 141.968 45.679C142.518 46.2898 142.79 47.0497 142.785 47.9588C142.785 48.7732 142.553 49.5024 142.089 50.1463C141.63 50.7855 140.995 51.2874 140.186 51.652C139.381 52.0166 138.457 52.1989 137.416 52.1989Z" fill="black"/>
<path d="M89.4983 52V50.0966L94.5481 45.1463C95.031 44.6586 95.4335 44.2254 95.7554 43.8466C96.0774 43.4678 96.3189 43.1009 96.4799 42.7457C96.6409 42.3906 96.7213 42.0118 96.7213 41.6094C96.7213 41.1501 96.6172 40.7571 96.4088 40.4304C96.2005 40.099 95.9141 39.8433 95.5495 39.6634C95.1849 39.4834 94.7706 39.3935 94.3066 39.3935C93.8284 39.3935 93.4093 39.4929 93.0495 39.6918C92.6896 39.8859 92.4103 40.1629 92.2114 40.5227C92.0173 40.8826 91.9202 41.3111 91.9202 41.8082H89.4131C89.4131 40.8849 89.6238 40.0824 90.0452 39.4006C90.4666 38.7187 91.0466 38.1908 91.7853 37.8168C92.5286 37.4427 93.3809 37.2557 94.3421 37.2557C95.3175 37.2557 96.1745 37.438 96.9131 37.8026C97.6517 38.1671 98.2247 38.6667 98.6319 39.3011C99.0438 39.9356 99.2498 40.66 99.2498 41.4744C99.2498 42.0189 99.1456 42.554 98.9373 43.0795C98.7289 43.6051 98.362 44.1875 97.8364 44.8267C97.3156 45.4659 96.584 46.2401 95.6418 47.1491L93.1347 49.6989V49.7983H99.4699V52H89.4983Z" fill="black"/>
<path d="M53.8208 122.455V137H51.1858V125.018H51.1006L47.6986 127.192V124.777L51.3137 122.455H53.8208Z" fill="black"/>
<path d="M137.416 137.199C136.393 137.199 135.484 137.024 134.689 136.673C133.898 136.323 133.273 135.835 132.814 135.21C132.354 134.585 132.11 133.863 132.082 133.044H134.752C134.776 133.437 134.906 133.78 135.143 134.074C135.38 134.363 135.695 134.588 136.088 134.749C136.481 134.91 136.921 134.99 137.409 134.99C137.93 134.99 138.391 134.9 138.794 134.72C139.196 134.536 139.511 134.28 139.738 133.953C139.965 133.626 140.077 133.25 140.072 132.824C140.077 132.384 139.963 131.995 139.731 131.659C139.499 131.323 139.163 131.06 138.723 130.871C138.287 130.681 137.761 130.587 137.146 130.587H135.86V128.555H137.146C137.653 128.555 138.095 128.468 138.474 128.293C138.858 128.117 139.158 127.871 139.376 127.554C139.594 127.232 139.7 126.86 139.696 126.439C139.7 126.027 139.608 125.67 139.419 125.366C139.234 125.059 138.971 124.82 138.63 124.649C138.294 124.479 137.899 124.393 137.444 124.393C136.999 124.393 136.587 124.474 136.208 124.635C135.83 124.796 135.524 125.026 135.292 125.324C135.06 125.617 134.937 125.968 134.923 126.375H132.387C132.406 125.561 132.641 124.846 133.09 124.23C133.545 123.61 134.151 123.127 134.909 122.781C135.666 122.431 136.516 122.256 137.458 122.256C138.429 122.256 139.272 122.438 139.987 122.803C140.706 123.162 141.263 123.648 141.656 124.259C142.049 124.869 142.245 125.544 142.245 126.283C142.25 127.102 142.009 127.788 141.521 128.342C141.038 128.896 140.403 129.259 139.617 129.429V129.543C140.64 129.685 141.424 130.063 141.968 130.679C142.518 131.29 142.79 132.05 142.785 132.959C142.785 133.773 142.553 134.502 142.089 135.146C141.63 135.786 140.995 136.287 140.186 136.652C139.381 137.017 138.457 137.199 137.416 137.199Z" fill="black"/>
<path d="M89.4983 137V135.097L94.5481 130.146C95.031 129.659 95.4335 129.225 95.7554 128.847C96.0774 128.468 96.3189 128.101 96.4799 127.746C96.6409 127.391 96.7213 127.012 96.7213 126.609C96.7213 126.15 96.6172 125.757 96.4088 125.43C96.2005 125.099 95.9141 124.843 95.5495 124.663C95.1849 124.483 94.7706 124.393 94.3066 124.393C93.8284 124.393 93.4093 124.493 93.0495 124.692C92.6896 124.886 92.4103 125.163 92.2114 125.523C92.0173 125.883 91.9202 126.311 91.9202 126.808H89.4131C89.4131 125.885 89.6238 125.082 90.0452 124.401C90.4666 123.719 91.0466 123.191 91.7853 122.817C92.5286 122.443 93.3809 122.256 94.3421 122.256C95.3175 122.256 96.1745 122.438 96.9131 122.803C97.6517 123.167 98.2247 123.667 98.6319 124.301C99.0438 124.936 99.2498 125.66 99.2498 126.474C99.2498 127.019 99.1456 127.554 98.9373 128.08C98.7289 128.605 98.362 129.187 97.8364 129.827C97.3156 130.466 96.584 131.24 95.6418 132.149L93.1347 134.699V134.798H99.4699V137H89.4983Z" fill="black"/>
<rect x="-1" y="1" width="43" height="43" rx="3" transform="matrix(-1 0 0 1 158 150)" fill="#BCE5FF"/>
<rect x="-1" y="1" width="43" height="43" rx="3" transform="matrix(-1 0 0 1 158 150)" stroke="white" stroke-width="2"/>
<rect x="-1" y="1" width="43" height="43" rx="3" transform="matrix(-1 0 0 1 158 150)" stroke="#454545" stroke-opacity="0.42" stroke-width="2"/>
<rect x="-1" y="1" width="43" height="43" rx="3" transform="matrix(-1 0 0 1 115 150)" fill="#BCE5FF"/>
<rect x="-1" y="1" width="43" height="43" rx="3" transform="matrix(-1 0 0 1 115 150)" stroke="white" stroke-width="2"/>
<rect x="-1" y="1" width="43" height="43" rx="3" transform="matrix(-1 0 0 1 115 150)" stroke="#454545" stroke-opacity="0.42" stroke-width="2"/>
<rect x="-1" y="1" width="43" height="43" rx="3" transform="matrix(-1 0 0 1 72 150)" fill="#BCE5FF"/>
<rect x="-1" y="1" width="43" height="43" rx="3" transform="matrix(-1 0 0 1 72 150)" stroke="white" stroke-width="2"/>
<rect x="-1" y="1" width="43" height="43" rx="3" transform="matrix(-1 0 0 1 72 150)" stroke="#454545" stroke-opacity="0.42" stroke-width="2"/>
<path d="M53.8208 165.455V180H51.1858V168.018H51.1006L47.6986 170.192V167.777L51.3137 165.455H53.8208Z" fill="black"/>
<path d="M137.416 180.199C136.393 180.199 135.484 180.024 134.689 179.673C133.898 179.323 133.273 178.835 132.814 178.21C132.354 177.585 132.11 176.863 132.082 176.044H134.752C134.776 176.437 134.906 176.78 135.143 177.074C135.38 177.363 135.695 177.588 136.088 177.749C136.481 177.91 136.921 177.99 137.409 177.99C137.93 177.99 138.391 177.9 138.794 177.72C139.196 177.536 139.511 177.28 139.738 176.953C139.965 176.626 140.077 176.25 140.072 175.824C140.077 175.384 139.963 174.995 139.731 174.659C139.499 174.323 139.163 174.06 138.723 173.871C138.287 173.681 137.761 173.587 137.146 173.587H135.86V171.555H137.146C137.653 171.555 138.095 171.468 138.474 171.293C138.858 171.117 139.158 170.871 139.376 170.554C139.594 170.232 139.7 169.86 139.696 169.439C139.7 169.027 139.608 168.67 139.419 168.366C139.234 168.059 138.971 167.82 138.63 167.649C138.294 167.479 137.899 167.393 137.444 167.393C136.999 167.393 136.587 167.474 136.208 167.635C135.83 167.796 135.524 168.026 135.292 168.324C135.06 168.617 134.937 168.968 134.923 169.375H132.387C132.406 168.561 132.641 167.846 133.09 167.23C133.545 166.61 134.151 166.127 134.909 165.781C135.666 165.431 136.516 165.256 137.458 165.256C138.429 165.256 139.272 165.438 139.987 165.803C140.706 166.162 141.263 166.648 141.656 167.259C142.049 167.869 142.245 168.544 142.245 169.283C142.25 170.102 142.009 170.788 141.521 171.342C141.038 171.896 140.403 172.259 139.617 172.429V172.543C140.64 172.685 141.424 173.063 141.968 173.679C142.518 174.29 142.79 175.05 142.785 175.959C142.785 176.773 142.553 177.502 142.089 178.146C141.63 178.786 140.995 179.287 140.186 179.652C139.381 180.017 138.457 180.199 137.416 180.199Z" fill="black"/>
<path d="M89.4983 180V178.097L94.5481 173.146C95.031 172.659 95.4335 172.225 95.7554 171.847C96.0774 171.468 96.3189 171.101 96.4799 170.746C96.6409 170.391 96.7213 170.012 96.7213 169.609C96.7213 169.15 96.6172 168.757 96.4088 168.43C96.2005 168.099 95.9141 167.843 95.5495 167.663C95.1849 167.483 94.7706 167.393 94.3066 167.393C93.8284 167.393 93.4093 167.493 93.0495 167.692C92.6896 167.886 92.4103 168.163 92.2114 168.523C92.0173 168.883 91.9202 169.311 91.9202 169.808H89.4131C89.4131 168.885 89.6238 168.082 90.0452 167.401C90.4666 166.719 91.0466 166.191 91.7853 165.817C92.5286 165.443 93.3809 165.256 94.3421 165.256C95.3175 165.256 96.1745 165.438 96.9131 165.803C97.6517 166.167 98.2247 166.667 98.6319 167.301C99.0438 167.936 99.2498 168.66 99.2498 169.474C99.2498 170.019 99.1456 170.554 98.9373 171.08C98.7289 171.605 98.362 172.187 97.8364 172.827C97.3156 173.466 96.584 174.24 95.6418 175.149L93.1347 177.699V177.798H99.4699V180H89.4983Z" fill="black"/>
<path d="M53.8208 80.4545V95H51.1858V83.0185H51.1006L47.6986 85.1918V82.777L51.3137 80.4545H53.8208Z" fill="black"/>
<path d="M137.416 95.1989C136.393 95.1989 135.484 95.0237 134.689 94.6733C133.898 94.3229 133.273 93.8352 132.814 93.2102C132.354 92.5852 132.11 91.8632 132.082 91.044H134.752C134.776 91.437 134.906 91.7803 135.143 92.0739C135.38 92.3627 135.695 92.5876 136.088 92.7486C136.481 92.9096 136.921 92.9901 137.409 92.9901C137.93 92.9901 138.391 92.9001 138.794 92.7202C139.196 92.5355 139.511 92.2798 139.738 91.9531C139.965 91.6264 140.077 91.25 140.072 90.8239C140.077 90.3835 139.963 89.9953 139.731 89.6591C139.499 89.3229 139.163 89.0601 138.723 88.8707C138.287 88.6813 137.761 88.5866 137.146 88.5866H135.86V86.5554H137.146C137.653 86.5554 138.095 86.4678 138.474 86.2926C138.858 86.1174 139.158 85.8712 139.376 85.554C139.594 85.232 139.7 84.8603 139.696 84.4389C139.7 84.027 139.608 83.6695 139.419 83.3665C139.234 83.0587 138.971 82.8196 138.63 82.6491C138.294 82.4787 137.899 82.3935 137.444 82.3935C136.999 82.3935 136.587 82.474 136.208 82.6349C135.83 82.7959 135.524 83.0256 135.292 83.3239C135.06 83.6174 134.937 83.9678 134.923 84.375H132.387C132.406 83.5606 132.641 82.8456 133.09 82.2301C133.545 81.6098 134.151 81.1269 134.909 80.7812C135.666 80.4309 136.516 80.2557 137.458 80.2557C138.429 80.2557 139.272 80.438 139.987 80.8026C140.706 81.1624 141.263 81.6477 141.656 82.2585C142.049 82.8693 142.245 83.544 142.245 84.2827C142.25 85.1018 142.009 85.7884 141.521 86.3423C141.038 86.8963 140.403 87.2585 139.617 87.429V87.5426C140.64 87.6847 141.424 88.0634 141.968 88.679C142.518 89.2898 142.79 90.0497 142.785 90.9588C142.785 91.7732 142.553 92.5024 142.089 93.1463C141.63 93.7855 140.995 94.2874 140.186 94.652C139.381 95.0166 138.457 95.1989 137.416 95.1989Z" fill="black"/>
<path d="M89.4983 95V93.0966L94.5481 88.1463C95.031 87.6586 95.4335 87.2254 95.7554 86.8466C96.0774 86.4678 96.3189 86.1009 96.4799 85.7457C96.6409 85.3906 96.7213 85.0118 96.7213 84.6094C96.7213 84.1501 96.6172 83.7571 96.4088 83.4304C96.2005 83.099 95.9141 82.8433 95.5495 82.6634C95.1849 82.4834 94.7706 82.3935 94.3066 82.3935C93.8284 82.3935 93.4093 82.4929 93.0495 82.6918C92.6896 82.8859 92.4103 83.1629 92.2114 83.5227C92.0173 83.8826 91.9202 84.3111 91.9202 84.8082H89.4131C89.4131 83.8849 89.6238 83.0824 90.0452 82.4006C90.4666 81.7187 91.0466 81.1908 91.7853 80.8168C92.5286 80.4427 93.3809 80.2557 94.3421 80.2557C95.3175 80.2557 96.1745 80.438 96.9131 80.8026C97.6517 81.1671 98.2247 81.6667 98.6319 82.3011C99.0438 82.9356 99.2498 83.66 99.2498 84.4744C99.2498 85.0189 99.1456 85.554 98.9373 86.0795C98.7289 86.6051 98.362 87.1875 97.8364 87.8267C97.3156 88.4659 96.584 89.2401 95.6418 90.1491L93.1347 92.6989V92.7983H99.4699V95H89.4983Z" fill="black"/>
<rect x="-1" y="1" width="43" height="43" rx="3" transform="matrix(-1 0 0 1 438 0)" fill="#F1F8FF"/>
<rect x="-1" y="1" width="43" height="43" rx="3" transform="matrix(-1 0 0 1 438 0)" stroke="white" stroke-width="2"/>
<rect x="-1" y="1" width="43" height="43" rx="3" transform="matrix(-1 0 0 1 438 0)" stroke="#454545" stroke-opacity="0.42" stroke-width="2"/>
<rect x="-1" y="1" width="43" height="43" rx="3" transform="matrix(-1 0 0 1 395 0)" fill="#F1F8FF"/>
<rect x="-1" y="1" width="43" height="43" rx="3" transform="matrix(-1 0 0 1 395 0)" stroke="white" stroke-width="2"/>
<rect x="-1" y="1" width="43" height="43" rx="3" transform="matrix(-1 0 0 1 395 0)" stroke="#454545" stroke-opacity="0.42" stroke-width="2"/>
<rect x="-1" y="1" width="43" height="43" rx="3" transform="matrix(-1 0 0 1 438 43)" fill="#F1F8FF"/>
<rect x="-1" y="1" width="43" height="43" rx="3" transform="matrix(-1 0 0 1 438 43)" stroke="white" stroke-width="2"/>
<rect x="-1" y="1" width="43" height="43" rx="3" transform="matrix(-1 0 0 1 438 43)" stroke="#454545" stroke-opacity="0.42" stroke-width="2"/>
<rect x="-1" y="1" width="43" height="43" rx="3" transform="matrix(-1 0 0 1 395 43)" fill="#F1F8FF"/>
<rect x="-1" y="1" width="43" height="43" rx="3" transform="matrix(-1 0 0 1 395 43)" stroke="white" stroke-width="2"/>
<rect x="-1" y="1" width="43" height="43" rx="3" transform="matrix(-1 0 0 1 395 43)" stroke="#454545" stroke-opacity="0.42" stroke-width="2"/>
<rect x="-1" y="1" width="43" height="43" rx="3" transform="matrix(-1 0 0 1 438 126)" fill="#BCE5FF"/>
<rect x="-1" y="1" width="43" height="43" rx="3" transform="matrix(-1 0 0 1 438 126)" stroke="white" stroke-width="2"/>
<rect x="-1" y="1" width="43" height="43" rx="3" transform="matrix(-1 0 0 1 438 126)" stroke="#454545" stroke-opacity="0.42" stroke-width="2"/>
<rect x="-1" y="1" width="43" height="43" rx="3" transform="matrix(-1 0 0 1 395 126)" fill="#BCE5FF"/>
<rect x="-1" y="1" width="43" height="43" rx="3" transform="matrix(-1 0 0 1 395 126)" stroke="white" stroke-width="2"/>
<rect x="-1" y="1" width="43" height="43" rx="3" transform="matrix(-1 0 0 1 395 126)" stroke="#454545" stroke-opacity="0.42" stroke-width="2"/>
<rect x="-1" y="1" width="43" height="43" rx="3" transform="matrix(-1 0 0 1 352 0)" fill="#F1F8FF"/>
<rect x="-1" y="1" width="43" height="43" rx="3" transform="matrix(-1 0 0 1 352 0)" stroke="white" stroke-width="2"/>
<rect x="-1" y="1" width="43" height="43" rx="3" transform="matrix(-1 0 0 1 352 0)" stroke="#454545" stroke-opacity="0.42" stroke-width="2"/>
<rect x="-1" y="1" width="43" height="43" rx="3" transform="matrix(-1 0 0 1 352 43)" fill="#F1F8FF"/>
<rect x="-1" y="1" width="43" height="43" rx="3" transform="matrix(-1 0 0 1 352 43)" stroke="white" stroke-width="2"/>
<rect x="-1" y="1" width="43" height="43" rx="3" transform="matrix(-1 0 0 1 352 43)" stroke="#454545" stroke-opacity="0.42" stroke-width="2"/>
<rect x="-1" y="1" width="43" height="43" rx="3" transform="matrix(-1 0 0 1 352 126)" fill="#BCE5FF"/>
<rect x="-1" y="1" width="43" height="43" rx="3" transform="matrix(-1 0 0 1 352 126)" stroke="white" stroke-width="2"/>
<rect x="-1" y="1" width="43" height="43" rx="3" transform="matrix(-1 0 0 1 352 126)" stroke="#454545" stroke-opacity="0.42" stroke-width="2"/>
<path d="M333.821 16.4545V31H331.186V19.0185H331.101L327.699 21.1918V18.777L331.314 16.4545H333.821Z" fill="black"/>
<path d="M417.416 31.1989C416.393 31.1989 415.484 31.0237 414.689 30.6733C413.898 30.3229 413.273 29.8352 412.814 29.2102C412.354 28.5852 412.11 27.8632 412.082 27.044H414.752C414.776 27.437 414.906 27.7803 415.143 28.0739C415.38 28.3627 415.695 28.5876 416.088 28.7486C416.481 28.9096 416.921 28.9901 417.409 28.9901C417.93 28.9901 418.391 28.9001 418.794 28.7202C419.196 28.5355 419.511 28.2798 419.738 27.9531C419.965 27.6264 420.077 27.25 420.072 26.8239C420.077 26.3835 419.963 25.9953 419.731 25.6591C419.499 25.3229 419.163 25.0601 418.723 24.8707C418.287 24.6813 417.761 24.5866 417.146 24.5866H415.86V22.5554H417.146C417.653 22.5554 418.095 22.4678 418.474 22.2926C418.858 22.1174 419.158 21.8712 419.376 21.554C419.594 21.232 419.7 20.8603 419.696 20.4389C419.7 20.027 419.608 19.6695 419.419 19.3665C419.234 19.0587 418.971 18.8196 418.63 18.6491C418.294 18.4787 417.899 18.3935 417.444 18.3935C416.999 18.3935 416.587 18.474 416.208 18.6349C415.83 18.7959 415.524 19.0256 415.292 19.3239C415.06 19.6174 414.937 19.9678 414.923 20.375H412.387C412.406 19.5606 412.641 18.8456 413.09 18.2301C413.545 17.6098 414.151 17.1269 414.909 16.7812C415.666 16.4309 416.516 16.2557 417.458 16.2557C418.429 16.2557 419.272 16.438 419.987 16.8026C420.706 17.1624 421.263 17.6477 421.656 18.2585C422.049 18.8693 422.245 19.544 422.245 20.2827C422.25 21.1018 422.009 21.7884 421.521 22.3423C421.038 22.8963 420.403 23.2585 419.617 23.429V23.5426C420.64 23.6847 421.424 24.0634 421.968 24.679C422.518 25.2898 422.79 26.0497 422.785 26.9588C422.785 27.7732 422.553 28.5024 422.089 29.1463C421.63 29.7855 420.995 30.2874 420.186 30.652C419.381 31.0166 418.457 31.1989 417.416 31.1989Z" fill="black"/>
<path d="M369.498 31V29.0966L374.548 24.1463C375.031 23.6586 375.433 23.2254 375.755 22.8466C376.077 22.4678 376.319 22.1009 376.48 21.7457C376.641 21.3906 376.721 21.0118 376.721 20.6094C376.721 20.1501 376.617 19.7571 376.409 19.4304C376.201 19.099 375.914 18.8433 375.549 18.6634C375.185 18.4834 374.771 18.3935 374.307 18.3935C373.828 18.3935 373.409 18.4929 373.049 18.6918C372.69 18.8859 372.41 19.1629 372.211 19.5227C372.017 19.8826 371.92 20.3111 371.92 20.8082H369.413C369.413 19.8849 369.624 19.0824 370.045 18.4006C370.467 17.7187 371.047 17.1908 371.785 16.8168C372.529 16.4427 373.381 16.2557 374.342 16.2557C375.317 16.2557 376.174 16.438 376.913 16.8026C377.652 17.1671 378.225 17.6667 378.632 18.3011C379.044 18.9356 379.25 19.66 379.25 20.4744C379.25 21.0189 379.146 21.554 378.937 22.0795C378.729 22.6051 378.362 23.1875 377.836 23.8267C377.316 24.4659 376.584 25.2401 375.642 26.1491L373.135 28.6989V28.7983H379.47V31H369.498Z" fill="black"/>
<path d="M333.821 141.455V156H331.186V144.018H331.101L327.699 146.192V143.777L331.314 141.455H333.821Z" fill="black"/>
<path d="M417.416 156.199C416.393 156.199 415.484 156.024 414.689 155.673C413.898 155.323 413.273 154.835 412.814 154.21C412.354 153.585 412.11 152.863 412.082 152.044H414.752C414.776 152.437 414.906 152.78 415.143 153.074C415.38 153.363 415.695 153.588 416.088 153.749C416.481 153.91 416.921 153.99 417.409 153.99C417.93 153.99 418.391 153.9 418.794 153.72C419.196 153.536 419.511 153.28 419.738 152.953C419.965 152.626 420.077 152.25 420.072 151.824C420.077 151.384 419.963 150.995 419.731 150.659C419.499 150.323 419.163 150.06 418.723 149.871C418.287 149.681 417.761 149.587 417.146 149.587H415.86V147.555H417.146C417.653 147.555 418.095 147.468 418.474 147.293C418.858 147.117 419.158 146.871 419.376 146.554C419.594 146.232 419.7 145.86 419.696 145.439C419.7 145.027 419.608 144.67 419.419 144.366C419.234 144.059 418.971 143.82 418.63 143.649C418.294 143.479 417.899 143.393 417.444 143.393C416.999 143.393 416.587 143.474 416.208 143.635C415.83 143.796 415.524 144.026 415.292 144.324C415.06 144.617 414.937 144.968 414.923 145.375H412.387C412.406 144.561 412.641 143.846 413.09 143.23C413.545 142.61 414.151 142.127 414.909 141.781C415.666 141.431 416.516 141.256 417.458 141.256C418.429 141.256 419.272 141.438 419.987 141.803C420.706 142.162 421.263 142.648 421.656 143.259C422.049 143.869 422.245 144.544 422.245 145.283C422.25 146.102 422.009 146.788 421.521 147.342C421.038 147.896 420.403 148.259 419.617 148.429V148.543C420.64 148.685 421.424 149.063 421.968 149.679C422.518 150.29 422.79 151.05 422.785 151.959C422.785 152.773 422.553 153.502 422.089 154.146C421.63 154.786 420.995 155.287 420.186 155.652C419.381 156.017 418.457 156.199 417.416 156.199Z" fill="black"/>
<path d="M369.498 156V154.097L374.548 149.146C375.031 148.659 375.433 148.225 375.755 147.847C376.077 147.468 376.319 147.101 376.48 146.746C376.641 146.391 376.721 146.012 376.721 145.609C376.721 145.15 376.617 144.757 376.409 144.43C376.201 144.099 375.914 143.843 375.549 143.663C375.185 143.483 374.771 143.393 374.307 143.393C373.828 143.393 373.409 143.493 373.049 143.692C372.69 143.886 372.41 144.163 372.211 144.523C372.017 144.883 371.92 145.311 371.92 145.808H369.413C369.413 144.885 369.624 144.082 370.045 143.401C370.467 142.719 371.047 142.191 371.785 141.817C372.529 141.443 373.381 141.256 374.342 141.256C375.317 141.256 376.174 141.438 376.913 141.803C377.652 142.167 378.225 142.667 378.632 143.301C379.044 143.936 379.25 144.66 379.25 145.474C379.25 146.019 379.146 146.554 378.937 147.08C378.729 147.605 378.362 148.187 377.836 148.827C377.316 149.466 376.584 150.24 375.642 151.149L373.135 153.699V153.798H379.47V156H369.498Z" fill="black"/>
<rect x="-1" y="1" width="43" height="43" rx="3" transform="matrix(-1 0 0 1 438 169)" fill="#BCE5FF"/>
<rect x="-1" y="1" width="43" height="43" rx="3" transform="matrix(-1 0 0 1 438 169)" stroke="white" stroke-width="2"/>
<rect x="-1" y="1" width="43" height="43" rx="3" transform="matrix(-1 0 0 1 438 169)" stroke="#454545" stroke-opacity="0.42" stroke-width="2"/>
<rect x="-1" y="1" width="43" height="43" rx="3" transform="matrix(-1 0 0 1 395 169)" fill="#BCE5FF"/>
<rect x="-1" y="1" width="43" height="43" rx="3" transform="matrix(-1 0 0 1 395 169)" stroke="white" stroke-width="2"/>
<rect x="-1" y="1" width="43" height="43" rx="3" transform="matrix(-1 0 0 1 395 169)" stroke="#454545" stroke-opacity="0.42" stroke-width="2"/>
<rect x="-1" y="1" width="43" height="43" rx="3" transform="matrix(-1 0 0 1 352 169)" fill="#BCE5FF"/>
<rect x="-1" y="1" width="43" height="43" rx="3" transform="matrix(-1 0 0 1 352 169)" stroke="white" stroke-width="2"/>
<rect x="-1" y="1" width="43" height="43" rx="3" transform="matrix(-1 0 0 1 352 169)" stroke="#454545" stroke-opacity="0.42" stroke-width="2"/>
<path d="M333.821 184.455V199H331.186V187.018H331.101L327.699 189.192V186.777L331.314 184.455H333.821Z" fill="black"/>
<path d="M417.416 199.199C416.393 199.199 415.484 199.024 414.689 198.673C413.898 198.323 413.273 197.835 412.814 197.21C412.354 196.585 412.11 195.863 412.082 195.044H414.752C414.776 195.437 414.906 195.78 415.143 196.074C415.38 196.363 415.695 196.588 416.088 196.749C416.481 196.91 416.921 196.99 417.409 196.99C417.93 196.99 418.391 196.9 418.794 196.72C419.196 196.536 419.511 196.28 419.738 195.953C419.965 195.626 420.077 195.25 420.072 194.824C420.077 194.384 419.963 193.995 419.731 193.659C419.499 193.323 419.163 193.06 418.723 192.871C418.287 192.681 417.761 192.587 417.146 192.587H415.86V190.555H417.146C417.653 190.555 418.095 190.468 418.474 190.293C418.858 190.117 419.158 189.871 419.376 189.554C419.594 189.232 419.7 188.86 419.696 188.439C419.7 188.027 419.608 187.67 419.419 187.366C419.234 187.059 418.971 186.82 418.63 186.649C418.294 186.479 417.899 186.393 417.444 186.393C416.999 186.393 416.587 186.474 416.208 186.635C415.83 186.796 415.524 187.026 415.292 187.324C415.06 187.617 414.937 187.968 414.923 188.375H412.387C412.406 187.561 412.641 186.846 413.09 186.23C413.545 185.61 414.151 185.127 414.909 184.781C415.666 184.431 416.516 184.256 417.458 184.256C418.429 184.256 419.272 184.438 419.987 184.803C420.706 185.162 421.263 185.648 421.656 186.259C422.049 186.869 422.245 187.544 422.245 188.283C422.25 189.102 422.009 189.788 421.521 190.342C421.038 190.896 420.403 191.259 419.617 191.429V191.543C420.64 191.685 421.424 192.063 421.968 192.679C422.518 193.29 422.79 194.05 422.785 194.959C422.785 195.773 422.553 196.502 422.089 197.146C421.63 197.786 420.995 198.287 420.186 198.652C419.381 199.017 418.457 199.199 417.416 199.199Z" fill="black"/>
<path d="M369.498 199V197.097L374.548 192.146C375.031 191.659 375.433 191.225 375.755 190.847C376.077 190.468 376.319 190.101 376.48 189.746C376.641 189.391 376.721 189.012 376.721 188.609C376.721 188.15 376.617 187.757 376.409 187.43C376.201 187.099 375.914 186.843 375.549 186.663C375.185 186.483 374.771 186.393 374.307 186.393C373.828 186.393 373.409 186.493 373.049 186.692C372.69 186.886 372.41 187.163 372.211 187.523C372.017 187.883 371.92 188.311 371.92 188.808H369.413C369.413 187.885 369.624 187.082 370.045 186.401C370.467 185.719 371.047 185.191 371.785 184.817C372.529 184.443 373.381 184.256 374.342 184.256C375.317 184.256 376.174 184.438 376.913 184.803C377.652 185.167 378.225 185.667 378.632 186.301C379.044 186.936 379.25 187.66 379.25 188.474C379.25 189.019 379.146 189.554 378.937 190.08C378.729 190.605 378.362 191.187 377.836 191.827C377.316 192.466 376.584 193.24 375.642 194.149L373.135 196.699V196.798H379.47V199H369.498Z" fill="black"/>
<path d="M333.821 59.4545V74H331.186V62.0185H331.101L327.699 64.1918V61.777L331.314 59.4545H333.821Z" fill="black"/>
<path d="M417.416 74.1989C416.393 74.1989 415.484 74.0237 414.689 73.6733C413.898 73.3229 413.273 72.8352 412.814 72.2102C412.354 71.5852 412.11 70.8632 412.082 70.044H414.752C414.776 70.437 414.906 70.7803 415.143 71.0739C415.38 71.3627 415.695 71.5876 416.088 71.7486C416.481 71.9096 416.921 71.9901 417.409 71.9901C417.93 71.9901 418.391 71.9001 418.794 71.7202C419.196 71.5355 419.511 71.2798 419.738 70.9531C419.965 70.6264 420.077 70.25 420.072 69.8239C420.077 69.3835 419.963 68.9953 419.731 68.6591C419.499 68.3229 419.163 68.0601 418.723 67.8707C418.287 67.6813 417.761 67.5866 417.146 67.5866H415.86V65.5554H417.146C417.653 65.5554 418.095 65.4678 418.474 65.2926C418.858 65.1174 419.158 64.8712 419.376 64.554C419.594 64.232 419.7 63.8603 419.696 63.4389C419.7 63.027 419.608 62.6695 419.419 62.3665C419.234 62.0587 418.971 61.8196 418.63 61.6491C418.294 61.4787 417.899 61.3935 417.444 61.3935C416.999 61.3935 416.587 61.474 416.208 61.6349C415.83 61.7959 415.524 62.0256 415.292 62.3239C415.06 62.6174 414.937 62.9678 414.923 63.375H412.387C412.406 62.5606 412.641 61.8456 413.09 61.2301C413.545 60.6098 414.151 60.1269 414.909 59.7812C415.666 59.4309 416.516 59.2557 417.458 59.2557C418.429 59.2557 419.272 59.438 419.987 59.8026C420.706 60.1624 421.263 60.6477 421.656 61.2585C422.049 61.8693 422.245 62.544 422.245 63.2827C422.25 64.1018 422.009 64.7884 421.521 65.3423C421.038 65.8963 420.403 66.2585 419.617 66.429V66.5426C420.64 66.6847 421.424 67.0634 421.968 67.679C422.518 68.2898 422.79 69.0497 422.785 69.9588C422.785 70.7732 422.553 71.5024 422.089 72.1463C421.63 72.7855 420.995 73.2874 420.186 73.652C419.381 74.0166 418.457 74.1989 417.416 74.1989Z" fill="black"/>
<path d="M369.498 74V72.0966L374.548 67.1463C375.031 66.6586 375.433 66.2254 375.755 65.8466C376.077 65.4678 376.319 65.1009 376.48 64.7457C376.641 64.3906 376.721 64.0118 376.721 63.6094C376.721 63.1501 376.617 62.7571 376.409 62.4304C376.201 62.099 375.914 61.8433 375.549 61.6634C375.185 61.4834 374.771 61.3935 374.307 61.3935C373.828 61.3935 373.409 61.4929 373.049 61.6918C372.69 61.8859 372.41 62.1629 372.211 62.5227C372.017 62.8826 371.92 63.3111 371.92 63.8082H369.413C369.413 62.8849 369.624 62.0824 370.045 61.4006C370.467 60.7187 371.047 60.1908 371.785 59.8168C372.529 59.4427 373.381 59.2557 374.342 59.2557C375.317 59.2557 376.174 59.438 376.913 59.8026C377.652 60.1671 378.225 60.6667 378.632 61.3011C379.044 61.9356 379.25 62.66 379.25 63.4744C379.25 64.0189 379.146 64.554 378.937 65.0795C378.729 65.6051 378.362 66.1875 377.836 66.8267C377.316 67.4659 376.584 68.2401 375.642 69.1491L373.135 71.6989V71.7983H379.47V74H369.498Z" fill="black"/>
<rect width="13" height="63" rx="2" transform="matrix(-4.37114e-08 -1 -1 4.37114e-08 260 114)" fill="#E04343"/>
<path d="M280.375 108.879C281.074 108.501 281.074 107.499 280.375 107.121L259.476 95.8085C258.81 95.4479 258 95.9303 258 96.688L258 119.312C258 120.07 258.81 120.552 259.476 120.191L280.375 108.879Z" fill="#E04343"/>
<path d="M198.509 76.575C198.559 76.4417 198.734 75.9583 199.034 75.125C199.35 74.2917 199.642 73.6583 199.909 73.225C200.342 72.5417 200.725 72.2 201.059 72.2C201.525 72.2 201.884 72.2917 202.134 72.475C202.384 72.6417 202.509 72.8833 202.509 73.2C202.509 73.35 202.442 73.5583 202.309 73.825C202.192 74.0917 202.125 74.25 202.109 74.3C201.442 75.7667 200.842 77.3417 200.309 79.025L199.784 80.975C199.584 81.6083 199.242 82.125 198.759 82.525C198.275 82.9083 197.709 83.1 197.059 83.1C196.475 83.1 195.934 82.8333 195.434 82.3C195.134 81.8333 194.817 81.2417 194.484 80.525C194.167 79.8083 193.892 79.1083 193.659 78.425L192.784 75.8C192.6 75.2833 192.45 74.8417 192.334 74.475C192.234 74.1083 192.184 73.775 192.184 73.475C192.167 73.125 192.267 72.8417 192.484 72.625C192.7 72.4083 193 72.3 193.384 72.3C193.817 72.3 194.125 72.3917 194.309 72.575C194.492 72.7417 194.659 73.0083 194.809 73.375C194.875 73.7583 195.059 74.5417 195.359 75.725L195.534 76.425C195.684 76.9917 195.875 77.5667 196.109 78.15C196.342 78.7333 196.575 79.2917 196.809 79.825C196.775 79.7417 196.892 80.0167 197.159 80.65C197.325 80.1667 197.517 79.575 197.734 78.875L198.509 76.575ZM211.781 77.6C211.914 77.6833 212.173 77.8417 212.556 78.075C212.956 78.2917 213.223 78.55 213.356 78.85C213.489 79.15 213.556 79.5667 213.556 80.1C213.556 80.7 213.381 81.2333 213.031 81.7C212.681 82.15 212.231 82.5 211.681 82.75C211.298 82.9167 210.881 83.0167 210.431 83.05C209.998 83.0833 209.473 83.1 208.856 83.1C208.523 83.1 208.089 83.05 207.556 82.95C207.039 82.85 206.681 82.7583 206.481 82.675C205.948 82.375 205.498 82.025 205.131 81.625C204.764 81.225 204.581 80.8167 204.581 80.4C204.581 80.0667 204.689 79.8 204.906 79.6C205.123 79.4 205.406 79.3 205.756 79.3C205.939 79.3 206.114 79.35 206.281 79.45C206.464 79.5333 206.589 79.6333 206.656 79.75C206.839 80.1833 207.148 80.5083 207.581 80.725C208.014 80.9417 208.456 81.05 208.906 81.05C210.489 81.05 211.281 80.7667 211.281 80.2C211.281 80.05 211.239 79.9333 211.156 79.85C211.089 79.75 210.989 79.65 210.856 79.55C210.639 79.4 210.331 79.2417 209.931 79.075C209.548 78.9083 209.206 78.7833 208.906 78.7C208.223 78.55 207.556 78.325 206.906 78.025C206.306 77.725 205.814 77.3333 205.431 76.85C205.048 76.35 204.856 75.7417 204.856 75.025C204.856 74.5917 205.014 74.1667 205.331 73.75C205.664 73.3167 206.048 72.9917 206.481 72.775C206.781 72.6583 207.273 72.5333 207.956 72.4C208.639 72.2667 209.106 72.2 209.356 72.2C209.739 72.2 210.156 72.2417 210.606 72.325C211.056 72.3917 211.398 72.5083 211.631 72.675C212.081 72.9417 212.448 73.225 212.731 73.525C213.014 73.8083 213.156 74.1333 213.156 74.5C213.156 74.6833 213.114 74.8833 213.031 75.1C212.948 75.3 212.848 75.425 212.731 75.475C212.481 75.5917 212.189 75.65 211.856 75.65C211.706 75.65 211.581 75.6083 211.481 75.525C211.398 75.4417 211.281 75.3083 211.131 75.125C210.948 74.8417 210.773 74.675 210.606 74.625C210.406 74.575 210.114 74.5167 209.731 74.45C209.348 74.3667 209.089 74.325 208.956 74.325C208.539 74.325 208.139 74.4083 207.756 74.575C207.389 74.7417 207.206 74.9667 207.206 75.25C207.206 75.5833 207.481 75.8667 208.031 76.1C208.381 76.2667 208.764 76.4083 209.181 76.525C209.614 76.6417 209.881 76.7167 209.981 76.75C210.214 76.8 210.514 76.9167 210.881 77.1C211.264 77.2833 211.564 77.45 211.781 77.6ZM216.989 74.3C216.839 74.3 216.697 74.3167 216.564 74.35C216.431 74.3667 216.297 74.375 216.164 74.375C215.981 74.375 215.806 74.2917 215.639 74.125C215.489 73.9583 215.414 73.8083 215.414 73.675C215.414 73.2417 215.631 72.9083 216.064 72.675C216.497 72.425 216.939 72.3 217.389 72.3C217.772 72.3 218.164 72.4333 218.564 72.7C218.981 72.95 219.289 73.275 219.489 73.675C219.922 73.1583 220.456 72.7833 221.089 72.55C221.722 72.3167 222.381 72.2 223.064 72.2C223.831 72.2 224.539 72.4417 225.189 72.925C225.856 73.4083 226.381 74.025 226.764 74.775C227.147 75.5083 227.339 76.2417 227.339 76.975C227.339 77.6917 227.264 78.3333 227.114 78.9C226.964 79.45 226.697 80.0083 226.314 80.575C225.881 81.175 225.297 81.6667 224.564 82.05C223.847 82.4333 222.989 82.625 221.989 82.625C221.722 82.625 221.397 82.5583 221.014 82.425C220.631 82.275 220.314 82.1167 220.064 81.95C219.947 83.0833 219.889 84.0667 219.889 84.9C219.889 85.4 219.914 85.875 219.964 86.325C219.997 86.8583 220.014 87.2417 220.014 87.475C220.014 87.8417 219.889 88.1083 219.639 88.275C219.389 88.4583 219.114 88.55 218.814 88.55C218.214 88.55 217.814 88.3833 217.614 88.05C217.431 87.7333 217.339 87.275 217.339 86.675C217.406 85.2417 217.489 83.9167 217.589 82.7C217.689 81.2 217.739 78.8833 217.739 75.75C217.739 75.45 217.681 75.1333 217.564 74.8C217.447 74.4667 217.256 74.3 216.989 74.3ZM220.164 79.475C220.247 79.7917 220.481 80.0583 220.864 80.275C221.264 80.475 221.622 80.575 221.939 80.575C222.889 80.575 223.597 80.3167 224.064 79.8C224.414 79.4333 224.639 79.075 224.739 78.725C224.856 78.375 224.914 77.8167 224.914 77.05C224.914 76.45 224.797 75.95 224.564 75.55C224.331 75.1333 224.047 74.8333 223.714 74.65C223.381 74.45 223.064 74.35 222.764 74.35C222.081 74.35 221.522 74.5583 221.089 74.975C220.672 75.375 220.406 75.925 220.289 76.625C220.206 77.175 220.164 78.125 220.164 79.475ZM232.946 79.125C232.946 79.7583 233.038 80.25 233.221 80.6C233.421 80.9333 233.671 81.1 233.971 81.1C234.138 81.1 234.296 81.0917 234.446 81.075C234.596 81.0417 234.746 81.025 234.896 81.025C235.063 81.025 235.205 81.1083 235.321 81.275C235.455 81.4417 235.521 81.625 235.521 81.825C235.521 82.225 235.33 82.5417 234.946 82.775C234.58 82.9917 234.08 83.1 233.446 83.1C232.996 83.1 232.538 82.9667 232.071 82.7C231.621 82.4167 231.246 81.9833 230.946 81.4C230.646 80.8 230.496 80.0583 230.496 79.175C230.496 77.275 230.53 75.6667 230.596 74.35C230.68 72.7833 230.721 70.8083 230.721 68.425C230.721 67.675 230.763 67.15 230.846 66.85C230.946 66.6167 231.105 66.4417 231.321 66.325C231.555 66.1917 231.796 66.125 232.046 66.125C232.296 66.125 232.513 66.1667 232.696 66.25C232.896 66.3333 233.03 66.4667 233.096 66.65C233.163 66.85 233.205 67.05 233.221 67.25C233.255 67.4333 233.271 67.7 233.271 68.05C233.271 68.7333 233.246 69.3917 233.196 70.025C233.163 70.7917 233.146 71.35 233.146 71.7C233.013 74.6333 232.946 77.1083 232.946 79.125ZM239.001 66.95C239.585 67 240.093 67.1583 240.526 67.425C240.96 67.675 241.176 68.0583 241.176 68.575C241.176 68.9583 240.993 69.2667 240.626 69.5C240.276 69.7167 239.851 69.825 239.351 69.825C238.868 69.825 238.535 69.7 238.351 69.45C238.168 69.2 238.076 68.9417 238.076 68.675C238.076 68.175 238.126 67.7583 238.226 67.425C238.343 67.0917 238.601 66.9333 239.001 66.95ZM241.001 78.025V78.75C241.001 79.4 241.018 80.0167 241.051 80.6C241.101 81.1667 241.16 81.7417 241.226 82.325C241.21 82.4917 241.085 82.6667 240.851 82.85C240.618 83.0167 240.41 83.1 240.226 83.1C239.91 83.1 239.585 83.0417 239.251 82.925C238.935 82.7917 238.743 82.6333 238.676 82.45C238.576 81.9167 238.526 81.4417 238.526 81.025C238.526 79.6583 238.485 78.125 238.401 76.425C238.335 74.925 238.301 73.875 238.301 73.275C238.301 72.975 238.451 72.7167 238.751 72.5C239.051 72.2833 239.368 72.175 239.701 72.175C240.185 72.175 240.518 72.2833 240.701 72.5C240.901 72.7167 241.001 73.0583 241.001 73.525V78.025ZM244.623 74.3C244.39 74.2667 244.198 74.175 244.048 74.025C243.915 73.8583 243.848 73.6583 243.848 73.425C243.848 73.125 243.965 72.875 244.198 72.675C244.248 72.625 244.331 72.5833 244.448 72.55C244.565 72.5 244.656 72.4583 244.723 72.425C245.09 72.3083 245.323 72.2167 245.423 72.15C245.806 71.9167 246.065 71.5333 246.198 71C246.331 70.3667 246.415 69.9333 246.448 69.7C246.481 69.3333 246.598 69.0583 246.798 68.875C247.015 68.675 247.281 68.575 247.598 68.575C248.015 68.575 248.306 68.6833 248.473 68.9C248.64 69.1167 248.723 69.5167 248.723 70.1C248.723 70.8667 248.54 71.5917 248.173 72.275C248.406 72.275 248.79 72.2583 249.323 72.225C250.123 72.1917 250.681 72.175 250.998 72.175C251.281 72.175 251.523 72.25 251.723 72.4C251.94 72.5333 252.048 72.7333 252.048 73C252.048 73.6333 251.756 74.0083 251.173 74.125C250.64 74.275 249.673 74.3667 248.273 74.4C248.156 76.0333 248.098 77.325 248.098 78.275C248.098 78.8583 248.123 79.275 248.173 79.525C248.273 80.0417 248.44 80.425 248.673 80.675C248.923 80.9083 249.29 81.025 249.773 81.025C250.006 81.025 250.356 80.9667 250.823 80.85C251.106 80.7667 251.331 80.725 251.498 80.725C251.715 80.725 251.881 80.8 251.998 80.95C252.115 81.1 252.173 81.3 252.173 81.55C252.173 82 251.881 82.375 251.298 82.675C250.715 82.9583 250.023 83.1 249.223 83.1C248.723 83.1 248.231 82.9833 247.748 82.75C247.265 82.5 246.856 82.2 246.523 81.85C246.456 81.8167 246.356 81.6333 246.223 81.3C246.106 80.9667 245.99 80.6 245.873 80.2C245.823 80 245.798 79.5167 245.798 78.75C245.798 78.0167 245.848 76.75 245.948 74.95L245.973 74.4C245.856 74.4 245.64 74.3917 245.323 74.375C245.006 74.3417 244.773 74.3167 244.623 74.3ZM259.398 66.5C259.782 66.5 260.098 66.5833 260.348 66.75C260.598 66.9167 260.723 67.1333 260.723 67.4C260.723 67.6 260.473 67.9333 259.973 68.4C259.673 68.7 259.523 68.85 259.523 68.85C258.823 69.65 258.223 70.8917 257.723 72.575C257.24 74.2417 256.998 75.9167 256.998 77.6C256.998 79.4667 257.207 80.9917 257.623 82.175C258.257 83.9083 258.815 85.05 259.298 85.6C259.382 85.7 259.49 85.8083 259.623 85.925C259.757 86.0583 259.865 86.1667 259.948 86.25C260.265 86.5333 260.507 86.7833 260.673 87C260.857 87.2167 260.948 87.425 260.948 87.625C260.948 87.8083 260.865 87.9833 260.698 88.15C260.548 88.3333 260.39 88.425 260.223 88.425C259.79 88.425 259.273 88.2417 258.673 87.875C258.073 87.5083 257.64 87.15 257.373 86.8C256.507 85.7333 255.823 84.35 255.323 82.65C254.84 80.95 254.598 79.05 254.598 76.95C254.598 75.95 254.715 74.9 254.948 73.8C255.182 72.7 255.482 71.6833 255.848 70.75C256.032 70.25 256.323 69.6667 256.723 69C257.14 68.3167 257.59 67.7333 258.073 67.25C258.557 66.75 258.998 66.5 259.398 66.5ZM266.578 80.4C267.144 80.4333 267.519 80.45 267.703 80.45C268.269 80.45 268.769 80.4417 269.203 80.425C269.653 80.4083 270.036 80.3917 270.353 80.375C271.169 80.325 271.903 80.3 272.553 80.3C273.186 80.3 273.653 80.4667 273.953 80.8C274.253 81.1333 274.403 81.575 274.403 82.125C274.403 82.3917 274.228 82.6083 273.878 82.775C273.528 82.925 273.169 83 272.803 83C272.486 83 271.828 82.9667 270.828 82.9C269.628 82.8 268.686 82.75 268.003 82.75C267.636 82.75 267.203 82.775 266.703 82.825C266.503 82.8417 266.261 82.8583 265.978 82.875C265.694 82.8917 265.378 82.9 265.028 82.9C264.361 82.9 263.853 82.8083 263.503 82.625C263.153 82.4417 262.978 82.1083 262.978 81.625C262.978 81.2083 263.144 80.7833 263.478 80.35C263.811 79.9167 264.278 79.4 264.878 78.8L265.478 78.2C265.744 77.9167 266.236 77.4333 266.953 76.75C268.136 75.6833 269.053 74.7417 269.703 73.925C270.369 73.1083 270.703 72.3 270.703 71.5C270.703 70.9833 270.453 70.5667 269.953 70.25C269.469 69.9167 268.911 69.75 268.278 69.75C267.311 69.75 266.611 69.9667 266.178 70.4C265.761 70.8167 265.553 71.425 265.553 72.225C265.553 72.425 265.436 72.6083 265.203 72.775C264.986 72.925 264.711 73 264.378 73C263.911 73 263.586 72.8333 263.403 72.5C263.219 72.1667 263.128 71.7583 263.128 71.275C263.128 70.5083 263.361 69.8333 263.828 69.25C264.294 68.65 264.928 68.1833 265.728 67.85C266.544 67.5167 267.444 67.35 268.428 67.35C269.128 67.35 269.853 67.525 270.603 67.875C271.369 68.2083 272.003 68.6667 272.503 69.25C273.019 69.8167 273.278 70.4417 273.278 71.125C273.278 72.1583 273.019 73.1417 272.503 74.075C271.986 75.0083 271.378 75.8417 270.678 76.575C269.994 77.2917 269.103 78.1417 268.003 79.125C267.469 79.575 266.994 80 266.578 80.4ZM277.362 66.5C277.779 66.5 278.22 66.7333 278.687 67.2C279.17 67.65 279.612 68.2 280.012 68.85C280.429 69.4833 280.729 70.0417 280.912 70.525C281.262 71.425 281.554 72.4667 281.787 73.65C282.02 74.8167 282.137 75.9167 282.137 76.95C282.137 79.0667 281.895 80.975 281.412 82.675C280.929 84.3583 280.254 85.7333 279.387 86.8C279.12 87.15 278.687 87.5083 278.087 87.875C277.487 88.2417 276.97 88.425 276.537 88.425C276.354 88.425 276.179 88.3333 276.012 88.15C275.862 87.9833 275.787 87.8083 275.787 87.625C275.787 87.425 275.87 87.2167 276.037 87C276.22 86.8 276.479 86.55 276.812 86.25C277.245 85.8167 277.462 85.6 277.462 85.6C277.945 85.05 278.504 83.9083 279.137 82.175C279.554 80.9917 279.762 79.4667 279.762 77.6C279.762 75.9167 279.512 74.2167 279.012 72.5C278.529 70.7667 277.937 69.5083 277.237 68.725L276.737 68.275C276.254 67.8583 276.012 67.5583 276.012 67.375C276.012 67.0917 276.137 66.875 276.387 66.725C276.637 66.575 276.962 66.5 277.362 66.5Z" fill="black"/>
<path d="M0.923118 70V68.9659L4.12234 65.6513C4.46396 65.2912 4.74556 64.9757 4.96715 64.7049C5.19182 64.431 5.35955 64.1709 5.47035 63.9247C5.58114 63.6785 5.63654 63.4169 5.63654 63.1399C5.63654 62.826 5.56268 62.5552 5.41495 62.3274C5.26722 62.0966 5.06564 61.9196 4.81019 61.7965C4.55475 61.6703 4.26699 61.6072 3.94691 61.6072C3.60837 61.6072 3.31291 61.6765 3.06055 61.815C2.80818 61.9535 2.61429 62.1489 2.47887 62.4013C2.34345 62.6536 2.27575 62.9491 2.27575 63.2876H0.913885C0.913885 62.7121 1.04622 62.2089 1.3109 61.7781C1.57558 61.3472 1.93874 61.0133 2.40039 60.7763C2.86204 60.5362 3.38678 60.4162 3.97461 60.4162C4.5686 60.4162 5.0918 60.5347 5.54421 60.7717C5.9997 61.0056 6.35517 61.3256 6.61062 61.7319C6.86606 62.1351 6.99379 62.5906 6.99379 63.0984C6.99379 63.4492 6.92762 63.7924 6.79528 64.1278C6.66602 64.4633 6.43981 64.8372 6.11666 65.2496C5.7935 65.659 5.34416 66.156 4.76864 66.7408L2.88974 68.7074V68.7766H7.14613V70H0.923118Z" fill="black"/>
<path d="M0.923118 156V154.966L4.12234 151.651C4.46396 151.291 4.74556 150.976 4.96715 150.705C5.19182 150.431 5.35955 150.171 5.47035 149.925C5.58114 149.679 5.63654 149.417 5.63654 149.14C5.63654 148.826 5.56268 148.555 5.41495 148.327C5.26722 148.097 5.06564 147.92 4.81019 147.797C4.55475 147.67 4.26699 147.607 3.94691 147.607C3.60837 147.607 3.31291 147.676 3.06055 147.815C2.80818 147.953 2.61429 148.149 2.47887 148.401C2.34345 148.654 2.27575 148.949 2.27575 149.288H0.913885C0.913885 148.712 1.04622 148.209 1.3109 147.778C1.57558 147.347 1.93874 147.013 2.40039 146.776C2.86204 146.536 3.38678 146.416 3.97461 146.416C4.5686 146.416 5.0918 146.535 5.54421 146.772C5.9997 147.006 6.35517 147.326 6.61062 147.732C6.86606 148.135 6.99379 148.591 6.99379 149.098C6.99379 149.449 6.92762 149.792 6.79528 150.128C6.66602 150.463 6.43981 150.837 6.11666 151.25C5.7935 151.659 5.34416 152.156 4.76864 152.741L2.88974 154.707V154.777H7.14613V156H0.923118Z" fill="black"/>
<path d="M16.75 117.5L20.3301 110L11.6699 110L15.25 117.5L16.75 117.5ZM15.25 185.5L11.6699 193L20.3301 193L16.75 185.5L15.25 185.5ZM15.25 116.75L15.25 186.25L16.75 186.25L16.75 116.75L15.25 116.75Z" fill="black"/>
<path d="M16.75 30.5L20.3301 23L11.6699 23L15.25 30.5L16.75 30.5ZM15.25 98.5L11.6699 106L20.3301 106L16.75 98.5L15.25 98.5ZM15.25 29.75L15.25 99.25L16.75 99.25L16.75 29.75L15.25 29.75Z" fill="black"/>
</svg>
