<svg width="368" height="176" viewBox="0 0 368 176" fill="none" xmlns="http://www.w3.org/2000/svg">
<path d="M291.002 37.5528C290.722 38.4844 290.432 39.416 290.267 40.3942C290.065 41.6105 289.956 42.8682 289.956 44.1363C289.956 56.6873 300.121 66.8523 312.677 66.8523C325.208 66.8523 335.383 56.6873 335.383 44.1363C335.383 41.6261 334.876 39.2608 334.131 36.999L338.742 30.6381L330.482 27.7242L332.096 19.2827L322.009 22.1707L317.361 12.4404L308.739 21.4254L302.062 13.6826L298.926 23.9045L288.212 20.4006L292.244 29.4218L284.449 31.6163L291.002 37.5528Z" fill="black"/>
<path d="M367.995 103.253H334.638L334.596 102.824L340.564 70.2686H323.919C323.919 70.2686 320.813 79.8125 312.263 80.3145C303.713 80.8114 300.473 70.2686 300.473 70.2686H295.504H289.904H286.964L291.441 99.2471L291.162 103.258H264V114.075H270.506V175.718H275.79V114.075H290.427L289.899 121.71H283.875V125.436H291.959V172.887H308.221V125.431H317.258V172.887H333.525V125.431H340.916V121.704H336.061L335.476 114.07H354.59V175.713H359.874V114.07H368V103.248L367.995 103.253ZM302.29 101.167C302.828 100.422 303.17 99.4283 303.17 98.3104C303.17 96.0538 301.793 94.2267 300.095 94.2267C299.997 94.2267 299.919 94.2837 299.826 94.2992L297.901 88.9062H327.221L324.928 94.3044C324.819 94.2889 324.716 94.2164 324.607 94.2216C322.904 94.2371 321.553 96.09 321.585 98.3466C321.595 99.2264 321.869 100.003 322.232 100.665L321.139 103.248H303.045L302.29 101.167Z" fill="black"/>
<path d="M331.149 166.297H313.215V173.057H331.149V166.297Z" fill="black"/>
<path d="M306.908 166.297H288.969V173.057H306.908V166.297Z" fill="black"/>
<rect x="48.5" y="83.5" width="91" height="91" rx="3.5" fill="white"/>
<rect x="48.5" y="83.5" width="91" height="91" rx="3.5" stroke="black" stroke-width="3"/>
<rect x="48.5" y="83.5" width="91" height="91" rx="3.5" stroke="black" stroke-opacity="0.2" stroke-width="3"/>
<path d="M16.395 25.1327C16.4397 25.3276 16.5138 25.8749 16.6175 26.7745C16.8947 28.968 17.2859 31.1662 17.7909 33.369C18.2334 35.2989 18.6001 36.764 18.891 37.7643C19.1819 38.7646 19.5069 39.5109 19.866 40.0031C20.2206 40.4758 20.6416 40.6562 21.129 40.5445C22.0647 40.33 22.604 40.5346 22.7471 41.1584C22.8409 41.5678 22.7167 41.9656 22.3744 42.3519C22.0276 42.7187 21.6105 42.9579 21.1231 43.0697C20.5383 43.2038 19.9612 43.1924 19.3918 43.0357C18.8223 42.879 18.3266 42.5515 17.9046 42.0532C17.6338 42.7514 17.1509 43.3751 16.4561 43.9243C15.7763 44.4495 15.0757 44.7948 14.3544 44.9602C13.2433 45.2149 12.2052 45.2067 11.2402 44.9355C10.2751 44.6643 9.46708 44.1827 8.81597 43.4907C8.16038 42.7793 7.72085 41.9362 7.49737 40.9615C7.28282 40.0257 7.18444 39.1044 7.20221 38.1975C7.23501 37.2666 7.38154 36.4738 7.6418 35.8191C7.9983 34.9577 8.566 34.2119 9.3449 33.5819C10.1388 32.928 10.9647 32.5026 11.8224 32.306C12.3488 32.1853 12.8704 32.1785 13.3875 32.2857C13.9 32.3734 14.3653 32.5232 14.7832 32.7351C14.4837 31.429 14.2863 30.6125 14.1908 30.2856L14.05 29.6715C13.6343 27.8586 13.4474 26.5061 13.4891 25.6143C13.5158 24.7463 13.9385 24.2185 14.7573 24.0308C15.2057 23.928 15.5594 23.9495 15.8185 24.0952C16.0777 24.241 16.2698 24.5868 16.395 25.1327ZM10.3788 40.2392C10.5844 41.136 11.0032 41.7991 11.6352 42.2288C12.2867 42.6539 12.9731 42.7838 13.6944 42.6184C14.7276 42.3815 15.4141 41.8856 15.754 41.1305C16.1133 40.371 16.1768 39.4844 15.9444 38.4707L15.2514 35.5825C14.2989 34.9186 13.4133 34.6805 12.5946 34.8682C12.0292 34.9978 11.5267 35.267 11.0869 35.6756C10.6621 36.0602 10.3683 36.5688 10.2055 37.2011C10.0216 37.9204 10.0794 38.9331 10.3788 40.2392ZM37.4861 38.0868C37.5845 38.5157 37.4332 38.93 37.0324 39.3296C36.6511 39.7249 36.2655 39.9672 35.8756 40.0565C35.1348 40.2264 34.5201 40.275 34.0316 40.2023C33.558 40.1057 33.0779 39.8465 32.5913 39.4245C32.1873 39.9891 31.5734 40.4889 30.7498 40.924C29.9218 41.3396 29.1373 41.6323 28.3966 41.8021C27.1879 42.0792 26.12 41.9855 25.1927 41.521C24.261 41.037 23.6498 40.1614 23.3593 38.8943C23.2342 38.3485 23.2664 37.8179 23.456 37.3024C23.6411 36.7675 23.9469 36.2665 24.3733 35.7994C24.8537 35.2994 25.4322 34.8693 26.1088 34.5089C26.7809 34.1291 27.5069 33.8498 28.2866 33.671C28.696 33.5772 29.2012 33.5434 29.8023 33.5698C30.4034 33.5961 30.88 33.6612 31.2322 33.7652L31.1249 33.2973C30.8835 32.2446 30.4647 31.5814 29.8685 31.3078C29.2678 31.0146 28.4021 30.9976 27.2714 31.2569C26.94 31.3328 26.6243 31.4771 26.3242 31.6895C26.0435 31.8975 25.7254 32.1654 25.3696 32.4932C24.8908 32.9107 24.4077 33.1754 23.9204 33.2871C23.7449 33.3273 23.5524 33.2484 23.3428 33.0502C23.1288 32.8325 22.9994 32.6262 22.9547 32.4313C22.8251 31.8659 22.9765 31.3183 23.409 30.7882C23.861 30.2537 24.435 29.804 25.1311 29.4392C25.8227 29.0549 26.4609 28.7958 27.0457 28.6617C27.6306 28.5276 28.3299 28.4903 29.1438 28.55C29.9533 28.5901 30.6464 28.7492 31.2231 29.0273C31.9241 29.4001 32.5088 29.8919 32.9772 30.5027C33.4606 31.0895 33.7939 31.7825 33.9771 32.5818C34.0352 32.8352 34.1029 33.2198 34.1801 33.7356C34.2663 34.2904 34.354 34.7627 34.4434 35.1526C34.4837 35.328 34.5245 35.5957 34.566 35.9555C34.6253 36.3933 34.684 36.7389 34.7422 36.9924C34.7958 37.2263 34.9304 37.4109 35.1461 37.5461C35.3573 37.6618 35.5799 37.6929 35.8138 37.6392L36.6259 37.4223C36.8403 37.3731 37.0239 37.4131 37.1766 37.5422C37.3293 37.6713 37.4325 37.8529 37.4861 38.0868ZM27.8961 39.4854C28.7344 39.2932 29.4161 39.0445 29.9412 38.7395C30.4663 38.4344 31.0748 37.9563 31.7668 37.3052C31.7688 36.9559 31.717 36.5061 31.6113 35.9558C30.4229 35.6948 29.4778 35.6447 28.7761 35.8057C27.9768 35.9889 27.2988 36.2983 26.742 36.7337C26.1852 37.1691 25.9918 37.7573 26.1616 38.498C26.2465 38.8684 26.474 39.1446 26.844 39.3265C27.214 39.5084 27.5647 39.5614 27.8961 39.4854ZM36.8633 28.9961C36.5814 29.0197 36.3327 28.9638 36.117 28.8286C35.9164 28.6694 35.7847 28.4534 35.7222 28.1805C35.6417 27.8296 35.7111 27.5059 35.9304 27.2094C35.9755 27.1375 36.0618 27.0664 36.1893 26.9961C36.3124 26.9063 36.4084 26.833 36.4774 26.7762C36.875 26.5414 37.1234 26.3716 37.2224 26.2668C37.6082 25.8911 37.8076 25.3734 37.8205 24.7138C37.8066 23.9373 37.7879 23.4081 37.7643 23.1263C37.705 22.6884 37.7677 22.3355 37.9524 22.0674C38.1522 21.7754 38.4373 21.5869 38.8077 21.502C39.295 21.3903 39.6652 21.4388 39.9183 21.6475C40.1713 21.8562 40.3761 22.3017 40.5325 22.984C40.7381 23.8807 40.7181 24.7779 40.4725 25.6755C40.7454 25.6129 41.1893 25.4906 41.8042 25.3086C42.731 25.0551 43.3796 24.8859 43.7499 24.8009C44.0813 24.7249 44.3841 24.7479 44.6583 24.8697C44.9475 24.9675 45.1278 25.1724 45.1993 25.4843C45.3692 26.2251 45.1286 26.7419 44.4776 27.0348C43.894 27.3533 42.7879 27.7197 41.1593 28.1342C41.4609 30.0759 41.7391 31.6023 41.9938 32.7135C42.1503 33.3958 42.2913 33.8765 42.4168 34.1555C42.6723 34.733 42.9701 35.1366 43.31 35.3665C43.665 35.5723 44.1252 35.6105 44.6905 35.4809C44.9634 35.4183 45.3572 35.2562 45.8717 34.9946C46.1808 34.8211 46.4328 34.712 46.6277 34.6673C46.8811 34.6092 47.0962 34.6523 47.2729 34.7964C47.4495 34.9406 47.5714 35.1589 47.6385 35.4513C47.7591 35.9776 47.5186 36.4945 46.9167 37.0018C46.3104 37.4896 45.5394 37.8408 44.6037 38.0554C44.0188 38.1895 43.4125 38.1849 42.7846 38.0416C42.1522 37.8788 41.5941 37.6374 41.1104 37.3174C41.0235 37.2963 40.8573 37.1087 40.612 36.7545C40.3861 36.3959 40.1514 35.9984 39.9076 35.5618C39.7955 35.3413 39.6366 34.7826 39.431 33.8859C39.2344 33.0282 38.9532 31.5332 38.5874 29.401L38.4692 28.751C38.3327 28.7823 38.077 28.8306 37.7022 28.8961C37.3228 28.942 37.0432 28.9753 36.8633 28.9961ZM60.7163 34.3611C60.0535 34.513 59.5243 34.5318 59.1287 34.4173C58.7286 34.2833 58.2591 33.9806 57.7201 33.5091C57.3161 34.0737 56.6385 34.6086 55.6873 35.114C54.7557 35.6148 53.9293 35.948 53.208 36.1133C52.0188 36.386 50.9801 36.2856 50.0919 35.8121C49.2186 35.3147 48.6367 34.4324 48.3462 33.1653C48.221 32.6195 48.2533 32.0888 48.4429 31.5734C48.6475 31.0341 48.9533 30.5331 49.3602 30.0704C49.8211 29.5749 50.3974 29.135 51.089 28.7507C51.8001 28.3619 52.4675 28.096 53.0913 27.953C54.144 27.7117 55.1021 27.5946 55.9655 27.6018L55.9588 27.5726C55.7175 26.5199 55.2889 25.8589 54.6732 25.5897C54.0725 25.2966 53.2068 25.2796 52.0761 25.5388C51.3549 25.7042 50.8048 26.1689 50.426 26.9329C50.2891 27.231 49.9088 27.4516 49.285 27.5946C48.9731 27.6661 48.7101 27.593 48.496 27.3754C48.297 27.1337 48.1662 26.8765 48.1036 26.6036C47.974 26.0382 48.0962 25.4972 48.4702 24.9806C48.8637 24.4595 49.3792 24.0232 50.0168 23.6718C50.6499 23.301 51.2589 23.0485 51.8437 22.9144C52.4091 22.7848 53.1084 22.7475 53.9418 22.8027C54.7753 22.8578 55.4803 23.0245 56.0571 23.3026C56.7581 23.6754 57.3428 24.1671 57.8111 24.7779C58.2945 25.3647 58.6278 26.0578 58.8111 26.857C58.8692 27.1105 58.9368 27.4951 59.0141 28.0109C59.1092 28.6046 59.1992 29.0867 59.2841 29.4571C59.3243 29.6325 59.3562 29.8612 59.3798 30.143C59.4213 30.5029 59.4688 30.7998 59.5225 31.0337C59.5806 31.2871 59.7144 31.5129 59.924 31.7111C60.1336 31.9093 60.3927 32.055 60.7014 32.1484C60.9861 32.2268 61.1853 32.335 61.2991 32.4731C61.4128 32.6111 61.492 32.7776 61.5367 32.9726C61.5814 33.1675 61.5106 33.4403 61.3242 33.7908C61.1528 34.1173 60.9502 34.3074 60.7163 34.3611ZM53.5875 30.1169C52.8272 30.2912 52.1882 30.5916 51.6704 31.0181C51.1526 31.4446 50.9786 32.0282 51.1485 32.769C51.2334 33.1394 51.4316 33.4223 51.7432 33.6176C52.0742 33.8084 52.3957 33.8681 52.7076 33.7966C53.5458 33.6044 54.2275 33.3558 54.7526 33.0507C55.2777 32.7456 55.8862 32.2675 56.5782 31.6164C56.6042 31.2822 56.5621 30.8301 56.452 30.2603C56.4028 30.0459 56.3746 29.878 56.3673 29.7565C55.2743 29.8224 54.3477 29.9426 53.5875 30.1169Z" fill="black"/>
<path fill-rule="evenodd" clip-rule="evenodd" d="M109.081 52.2523C109.862 53.0334 109.862 54.2995 109.081 55.0806L95.7475 68.4139C94.9664 69.195 93.7003 69.195 92.9192 68.4139L79.5858 55.0806C78.8047 54.2995 78.8047 53.0334 79.5858 52.2523C80.3668 51.4712 81.6332 51.4712 82.4142 52.2523L94.3333 64.1712L106.253 52.2523C107.034 51.4712 108.3 51.4712 109.081 52.2523Z" fill="#7A7A7A"/>
<g opacity="0.5">
<path d="M96.3333 40.3333C96.3333 37.7911 95.5872 34.0222 93.2899 30.8314C90.9189 27.5386 86.9852 25 81 25C79.8954 25 79 25.8954 79 27C79 28.1046 79.8954 29 81 29C85.6815 29 88.4144 30.9058 90.0435 33.1686C91.7461 35.5334 92.3333 38.4311 92.3333 40.3333V62.1715L94.3333 64.1715L96.3333 62.1715V40.3333Z" fill="black"/>
<path d="M94.8624 68.9294C94.4504 69.0414 94.0099 69.0198 93.6094 68.8638C93.8344 68.9515 94.0792 68.9998 94.3352 68.9998C94.5176 68.9998 94.6944 68.9752 94.8624 68.9294Z" fill="black"/>
</g>
<path d="M193.668 97.2472V89.6832H223.092V97.2472H193.668ZM193.668 111.395V103.831H223.092V111.395H193.668Z" fill="black"/>
</svg>
