<svg width="437" height="744" viewBox="0 0 437 744" fill="none" xmlns="http://www.w3.org/2000/svg">
<path d="M261 656.5L351 616.23L351 696.77L261 656.5Z" fill="#A6CFFF"/>
<path d="M261 431.5L351 391.23L351 471.77L261 431.5Z" fill="#A6CFFF"/>
<path d="M261 223.5L351 183.23L351 263.77L261 223.5Z" fill="#A6CFFF"/>
<path d="M261 46.5L351 6.22982L351 86.7702L261 46.5Z" fill="#DDEDFF"/>
<rect x="47.5" y="1.5" width="91" height="91" rx="3.5" fill="white"/>
<rect x="47.5" y="1.5" width="91" height="91" rx="3.5" stroke="white" stroke-width="3"/>
<rect x="47.5" y="1.5" width="91" height="91" rx="3.5" stroke="black" stroke-opacity="0.2" stroke-width="3"/>
<path d="M80.8751 59.5114C78.9206 59.5038 77.2388 59.0227 75.8297 58.0682C74.4281 57.1136 73.3486 55.7311 72.591 53.9205C71.841 52.1098 71.4698 49.9318 71.4774 47.3864C71.4774 44.8485 71.8524 42.6856 72.6024 40.8977C73.36 39.1098 74.4395 37.75 75.841 36.8182C77.2501 35.8788 78.9281 35.4091 80.8751 35.4091C82.8221 35.4091 84.4963 35.8788 85.8978 36.8182C87.3069 37.7576 88.3903 39.1212 89.1478 40.9091C89.9054 42.6894 90.2804 44.8485 90.2728 47.3864C90.2728 49.9394 89.8941 52.1212 89.1365 53.9318C88.3865 55.7424 87.3107 57.125 85.9092 58.0795C84.5077 59.0341 82.8297 59.5114 80.8751 59.5114ZM80.8751 55.4318C82.2084 55.4318 83.2728 54.7614 84.0683 53.4205C84.8638 52.0795 85.2577 50.0682 85.2501 47.3864C85.2501 45.6212 85.0683 44.1515 84.7047 42.9773C84.3486 41.803 83.841 40.9205 83.1819 40.3295C82.5304 39.7386 81.7615 39.4432 80.8751 39.4432C79.5494 39.4432 78.4888 40.1061 77.6933 41.4318C76.8978 42.7576 76.4963 44.7424 76.4888 47.3864C76.4888 49.1742 76.6668 50.6667 77.0228 51.8636C77.3865 53.053 77.8978 53.947 78.5569 54.5455C79.216 55.1364 79.9888 55.4318 80.8751 55.4318ZM103.128 59H94.8777V35.7273H103.196C105.537 35.7273 107.552 36.1932 109.241 37.125C110.931 38.0492 112.23 39.3788 113.139 41.1136C114.056 42.8485 114.514 44.9242 114.514 47.3409C114.514 49.7652 114.056 51.8485 113.139 53.5909C112.23 55.3333 110.923 56.6705 109.219 57.6023C107.522 58.5341 105.491 59 103.128 59ZM99.7982 54.7841H102.923C104.378 54.7841 105.601 54.5265 106.594 54.0114C107.594 53.4886 108.344 52.6818 108.844 51.5909C109.351 50.4924 109.605 49.0758 109.605 47.3409C109.605 45.6212 109.351 44.2159 108.844 43.125C108.344 42.0341 107.597 41.2311 106.605 40.7159C105.613 40.2008 104.389 39.9432 102.935 39.9432H99.7982V54.7841Z" fill="black"/>
<rect x="2" y="191" width="61" height="60" rx="3" fill="white"/>
<rect x="2" y="191" width="61" height="60" rx="3" stroke="white" stroke-width="2"/>
<rect x="2" y="191" width="61" height="60" rx="3" stroke="black" stroke-opacity="0.2" stroke-width="2"/>
<rect x="63" y="191" width="61" height="60" rx="3" fill="white"/>
<rect x="63" y="191" width="61" height="60" rx="3" stroke="white" stroke-width="2"/>
<rect x="63" y="191" width="61" height="60" rx="3" stroke="black" stroke-opacity="0.2" stroke-width="2"/>
<rect x="124" y="191" width="61" height="60" rx="3" fill="white"/>
<rect x="124" y="191" width="61" height="60" rx="3" stroke="white" stroke-width="2"/>
<rect x="124" y="191" width="61" height="60" rx="3" stroke="black" stroke-opacity="0.2" stroke-width="2"/>
<path d="M1 267C0.447715 267 0 267.448 0 268C0 268.552 0.447715 269 1 269V267ZM185.707 268.707C186.098 268.317 186.098 267.683 185.707 267.293L179.343 260.929C178.953 260.538 178.319 260.538 177.929 260.929C177.538 261.319 177.538 261.953 177.929 262.343L183.586 268L177.929 273.657C177.538 274.047 177.538 274.681 177.929 275.071C178.319 275.462 178.953 275.462 179.343 275.071L185.707 268.707ZM1 269H185V267H1V269Z" fill="black"/>
<path d="M86.0626 208.727V232H81.1422V213.398H81.0058L75.6763 216.739V212.375L81.4376 208.727H86.0626ZM100.94 232H92.6902V208.727H101.008C103.349 208.727 105.364 209.193 107.054 210.125C108.743 211.049 110.043 212.379 110.952 214.114C111.868 215.848 112.327 217.924 112.327 220.341C112.327 222.765 111.868 224.848 110.952 226.591C110.043 228.333 108.736 229.67 107.031 230.602C105.334 231.534 103.304 232 100.94 232ZM97.6107 227.784H100.736C102.19 227.784 103.414 227.527 104.406 227.011C105.406 226.489 106.156 225.682 106.656 224.591C107.164 223.492 107.417 222.076 107.417 220.341C107.417 218.621 107.164 217.216 106.656 216.125C106.156 215.034 105.41 214.231 104.417 213.716C103.425 213.201 102.202 212.943 100.747 212.943H97.6107V227.784Z" fill="black"/>
<rect x="43" y="424.049" width="57.9016" height="56.9508" rx="3" fill="white"/>
<rect x="43" y="424.049" width="57.9016" height="56.9508" rx="3" stroke="white" stroke-width="2"/>
<rect x="43" y="424.049" width="57.9016" height="56.9508" rx="3" stroke="black" stroke-opacity="0.2" stroke-width="2"/>
<rect x="101" y="424.049" width="57.9016" height="56.9508" rx="3" fill="white"/>
<rect x="101" y="424.049" width="57.9016" height="56.9508" rx="3" stroke="white" stroke-width="2"/>
<rect x="101" y="424.049" width="57.9016" height="56.9508" rx="3" stroke="black" stroke-opacity="0.2" stroke-width="2"/>
<rect x="43" y="367" width="57.9016" height="56.9508" rx="3" fill="white"/>
<rect x="43" y="367" width="57.9016" height="56.9508" rx="3" stroke="white" stroke-width="2"/>
<rect x="43" y="367" width="57.9016" height="56.9508" rx="3" stroke="black" stroke-opacity="0.2" stroke-width="2"/>
<rect x="101" y="367" width="57.9016" height="56.9508" rx="3" fill="white"/>
<rect x="101" y="367" width="57.9016" height="56.9508" rx="3" stroke="white" stroke-width="2"/>
<rect x="101" y="367" width="57.9016" height="56.9508" rx="3" stroke="black" stroke-opacity="0.2" stroke-width="2"/>
<path d="M26 497C25.4477 497 25 497.448 25 498C25 498.552 25.4477 499 26 499L26 497ZM160.707 498.707C161.098 498.317 161.098 497.683 160.707 497.293L154.343 490.929C153.953 490.538 153.319 490.538 152.929 490.929C152.538 491.319 152.538 491.953 152.929 492.343L158.586 498L152.929 503.657C152.538 504.047 152.538 504.681 152.929 505.071C153.319 505.462 153.953 505.462 154.343 505.071L160.707 498.707ZM26 499L160 499L160 497L26 497L26 499Z" fill="black"/>
<path d="M25 498C25 498.552 25.4477 499 26 499C26.5523 499 27 498.552 27 498L25 498ZM26.7071 365.293C26.3166 364.902 25.6834 364.902 25.2929 365.293L18.9289 371.657C18.5384 372.047 18.5384 372.681 18.9289 373.071C19.3195 373.462 19.9526 373.462 20.3432 373.071L26 367.414L31.6569 373.071C32.0474 373.462 32.6805 373.462 33.0711 373.071C33.4616 372.681 33.4616 372.047 33.0711 371.657L26.7071 365.293ZM27 498L27 366L25 366L25 498L27 498Z" fill="black"/>
<path d="M80.1676 437V433.455L88.4517 425.784C89.1563 425.102 89.7472 424.489 90.2244 423.943C90.7093 423.398 91.0767 422.864 91.3267 422.341C91.5767 421.811 91.7017 421.239 91.7017 420.625C91.7017 419.943 91.5464 419.356 91.2358 418.864C90.9252 418.364 90.5009 417.981 89.9631 417.716C89.4252 417.443 88.8153 417.307 88.1335 417.307C87.4214 417.307 86.8002 417.451 86.2699 417.739C85.7396 418.027 85.3305 418.439 85.0426 418.977C84.7547 419.515 84.6108 420.155 84.6108 420.898H79.9403C79.9403 419.375 80.285 418.053 80.9744 416.932C81.6638 415.811 82.6297 414.943 83.8722 414.33C85.1146 413.716 86.5464 413.409 88.1676 413.409C89.8343 413.409 91.285 413.705 92.5199 414.295C93.7623 414.879 94.7282 415.689 95.4176 416.727C96.107 417.765 96.4517 418.955 96.4517 420.295C96.4517 421.174 96.2775 422.042 95.929 422.898C95.5881 423.754 94.9782 424.705 94.0994 425.75C93.2206 426.788 91.982 428.034 90.3835 429.489L86.9858 432.818V432.977H96.7585V437H80.1676ZM108.71 437H100.46V413.727H108.778C111.119 413.727 113.134 414.193 114.824 415.125C116.513 416.049 117.813 417.379 118.722 419.114C119.638 420.848 120.097 422.924 120.097 425.341C120.097 427.765 119.638 429.848 118.722 431.591C117.813 433.333 116.506 434.67 114.801 435.602C113.104 436.534 111.074 437 108.71 437ZM105.381 432.784H108.506C109.96 432.784 111.184 432.527 112.176 432.011C113.176 431.489 113.926 430.682 114.426 429.591C114.934 428.492 115.188 427.076 115.188 425.341C115.188 423.621 114.934 422.216 114.426 421.125C113.926 420.034 113.18 419.231 112.188 418.716C111.195 418.201 109.972 417.943 108.517 417.943H105.381V432.784Z" fill="black"/>
<rect x="56.8477" y="650.3" width="53.9647" height="53.0764" rx="3" fill="#EFEFEF"/>
<rect x="56.8477" y="650.3" width="53.9647" height="53.0764" rx="3" stroke="white" stroke-width="2"/>
<rect x="56.8477" y="650.3" width="53.9647" height="53.0764" rx="3" stroke="black" stroke-opacity="0.2" stroke-width="2"/>
<rect x="111.035" y="650.3" width="53.9647" height="53.0764" rx="3" fill="#EFEFEF"/>
<rect x="111.035" y="650.3" width="53.9647" height="53.0764" rx="3" stroke="white" stroke-width="2"/>
<rect x="111.035" y="650.3" width="53.9647" height="53.0764" rx="3" stroke="black" stroke-opacity="0.2" stroke-width="2"/>
<path d="M70.5813 683.704C69.7887 683.704 69.0813 683.502 68.4592 683.097C67.8413 682.688 67.3555 682.106 67.0018 681.352C66.6523 680.594 66.4776 679.684 66.4776 678.623C66.4776 677.562 66.6545 676.654 67.0082 675.9C67.3661 675.146 67.8562 674.568 68.4783 674.168C69.1005 673.767 69.8058 673.567 70.5941 673.567C71.2035 673.567 71.6935 673.669 72.0643 673.873C72.4393 674.074 72.729 674.308 72.9336 674.577C73.1424 674.845 73.3043 675.082 73.4194 675.286H73.5344V670.422H75.4457V683.513H73.5792V681.985H73.4194C73.3043 682.194 73.1381 682.432 72.9208 682.701C72.7077 682.969 72.4137 683.204 72.0387 683.404C71.6637 683.604 71.1779 683.704 70.5813 683.704ZM71.0032 682.074C71.5529 682.074 72.0174 681.93 72.3967 681.64C72.7802 681.346 73.07 680.939 73.266 680.419C73.4663 679.899 73.5664 679.294 73.5664 678.604C73.5664 677.922 73.4684 677.325 73.2724 676.814C73.0763 676.302 72.7887 675.904 72.4094 675.619C72.0302 675.333 71.5614 675.19 71.0032 675.19C70.4279 675.19 69.9485 675.339 69.565 675.638C69.1815 675.936 68.8917 676.343 68.6957 676.859C68.5039 677.374 68.408 677.956 68.408 678.604C68.408 679.26 68.506 679.85 68.7021 680.374C68.8981 680.898 69.1879 681.314 69.5714 681.621C69.9592 681.923 70.4364 682.074 71.0032 682.074ZM80.6887 683.73C80.0666 683.73 79.5041 683.615 79.0012 683.385C78.4984 683.15 78.0999 682.812 77.8059 682.369C77.5161 681.925 77.3712 681.382 77.3712 680.739C77.3712 680.185 77.4778 679.729 77.6908 679.371C77.9039 679.013 78.1916 678.729 78.5538 678.521C78.916 678.312 79.3208 678.154 79.7683 678.047C80.2157 677.941 80.6717 677.86 81.1362 677.805C81.7242 677.736 82.2015 677.681 82.568 677.638C82.9345 677.592 83.2008 677.517 83.367 677.415C83.5332 677.312 83.6163 677.146 83.6163 676.916V676.871C83.6163 676.313 83.4586 675.881 83.1433 675.574C82.8322 675.267 82.3677 675.114 81.7498 675.114C81.1063 675.114 80.5992 675.256 80.2285 675.542C79.862 675.823 79.6085 676.136 79.4678 676.481L77.6717 676.072C77.8847 675.476 78.1958 674.994 78.6049 674.628C79.0183 674.257 79.4934 673.989 80.0303 673.822C80.5673 673.652 81.1319 673.567 81.7242 673.567C82.1163 673.567 82.5318 673.614 82.9707 673.707C83.4139 673.797 83.8272 673.963 84.2107 674.206C84.5985 674.449 84.916 674.796 85.1631 675.248C85.4103 675.695 85.5339 676.277 85.5339 676.993V683.513H83.6674V682.17H83.5907C83.4671 682.418 83.2818 682.66 83.0346 682.899C82.7874 683.138 82.47 683.336 82.0822 683.494C81.6944 683.651 81.2299 683.73 80.6887 683.73ZM81.1042 682.196C81.6326 682.196 82.0843 682.092 82.4593 681.883C82.8386 681.674 83.1262 681.401 83.3222 681.065C83.5225 680.724 83.6227 680.359 83.6227 679.972V678.706C83.5545 678.774 83.4224 678.838 83.2264 678.898C83.0346 678.953 82.8151 679.002 82.568 679.045C82.3208 679.083 82.0801 679.119 81.8457 679.153C81.6113 679.183 81.4153 679.209 81.2576 679.23C80.8869 679.277 80.5481 679.356 80.2413 679.467C79.9387 679.577 79.6958 679.737 79.5126 679.946C79.3336 680.15 79.2441 680.423 79.2441 680.764C79.2441 681.237 79.4188 681.595 79.7683 681.838C80.1177 682.077 80.563 682.196 81.1042 682.196ZM92.3206 673.695V675.229H86.9577V673.695H92.3206ZM88.3959 671.342H90.3071V680.63C90.3071 681.001 90.3625 681.28 90.4733 681.467C90.5841 681.65 90.7269 681.776 90.9016 681.844C91.0806 681.908 91.2745 681.94 91.4833 681.94C91.6367 681.94 91.7709 681.93 91.886 681.908C92.001 681.887 92.0905 681.87 92.1544 681.857L92.4996 683.436C92.3888 683.479 92.2311 683.521 92.0266 683.564C91.822 683.611 91.5664 683.636 91.2595 683.641C90.7567 683.649 90.2879 683.56 89.8533 683.372C89.4186 683.185 89.0671 682.895 88.7986 682.503C88.5301 682.111 88.3959 681.619 88.3959 681.026V671.342ZM96.95 683.73C96.3279 683.73 95.7654 683.615 95.2625 683.385C94.7597 683.15 94.3613 682.812 94.0672 682.369C93.7774 681.925 93.6326 681.382 93.6326 680.739C93.6326 680.185 93.7391 679.729 93.9522 679.371C94.1652 679.013 94.4529 678.729 94.8151 678.521C95.1773 678.312 95.5821 678.154 96.0296 678.047C96.477 677.941 96.933 677.86 97.3975 677.805C97.9855 677.736 98.4628 677.681 98.8293 677.638C99.1958 677.592 99.4621 677.517 99.6283 677.415C99.7945 677.312 99.8776 677.146 99.8776 676.916V676.871C99.8776 676.313 99.7199 675.881 99.4046 675.574C99.0935 675.267 98.629 675.114 98.0111 675.114C97.3676 675.114 96.8605 675.256 96.4898 675.542C96.1233 675.823 95.8698 676.136 95.7291 676.481L93.933 676.072C94.1461 675.476 94.4571 674.994 94.8662 674.628C95.2796 674.257 95.7547 673.989 96.2916 673.822C96.8286 673.652 97.3932 673.567 97.9855 673.567C98.3776 673.567 98.7931 673.614 99.232 673.707C99.6752 673.797 100.089 673.963 100.472 674.206C100.86 674.449 101.177 674.796 101.424 675.248C101.672 675.695 101.795 676.277 101.795 676.993V683.513H99.9287V682.17H99.852C99.7284 682.418 99.5431 682.66 99.2959 682.899C99.0488 683.138 98.7313 683.336 98.3435 683.494C97.9557 683.651 97.4912 683.73 96.95 683.73ZM97.3655 682.196C97.8939 682.196 98.3456 682.092 98.7206 681.883C99.0999 681.674 99.3875 681.401 99.5836 681.065C99.7838 680.724 99.884 680.359 99.884 679.972V678.706C99.8158 678.774 99.6837 678.838 99.4877 678.898C99.2959 678.953 99.0764 679.002 98.8293 679.045C98.5821 679.083 98.3414 679.119 98.107 679.153C97.8726 679.183 97.6766 679.209 97.5189 679.23C97.1482 679.277 96.8094 679.356 96.5026 679.467C96.2 679.577 95.9571 679.737 95.7739 679.946C95.5949 680.15 95.5054 680.423 95.5054 680.764C95.5054 681.237 95.6801 681.595 96.0296 681.838C96.379 682.077 96.8243 682.196 97.3655 682.196Z" fill="white"/>
<path d="M125.656 683.704C124.863 683.704 124.156 683.502 123.533 683.097C122.915 682.688 122.43 682.106 122.076 681.352C121.727 680.594 121.552 679.684 121.552 678.623C121.552 677.562 121.729 676.654 122.082 675.9C122.44 675.146 122.93 674.568 123.553 674.168C124.175 673.767 124.88 673.567 125.668 673.567C126.278 673.567 126.768 673.669 127.138 673.873C127.513 674.074 127.803 674.308 128.008 674.577C128.217 674.845 128.379 675.082 128.494 675.286H128.609V670.422H130.52V683.513H128.653V681.985H128.494C128.379 682.194 128.212 682.432 127.995 682.701C127.782 682.969 127.488 683.204 127.113 683.404C126.738 683.604 126.252 683.704 125.656 683.704ZM126.077 682.074C126.627 682.074 127.092 681.93 127.471 681.64C127.854 681.346 128.144 680.939 128.34 680.419C128.54 679.899 128.641 679.294 128.641 678.604C128.641 677.922 128.543 677.325 128.347 676.814C128.151 676.302 127.863 675.904 127.484 675.619C127.104 675.333 126.636 675.19 126.077 675.19C125.502 675.19 125.023 675.339 124.639 675.638C124.256 675.936 123.966 676.343 123.77 676.859C123.578 677.374 123.482 677.956 123.482 678.604C123.482 679.26 123.58 679.85 123.776 680.374C123.972 680.898 124.262 681.314 124.646 681.621C125.033 681.923 125.511 682.074 126.077 682.074ZM135.763 683.73C135.141 683.73 134.578 683.615 134.075 683.385C133.573 683.15 133.174 682.812 132.88 682.369C132.59 681.925 132.445 681.382 132.445 680.739C132.445 680.185 132.552 679.729 132.765 679.371C132.978 679.013 133.266 678.729 133.628 678.521C133.99 678.312 134.395 678.154 134.842 678.047C135.29 677.941 135.746 677.86 136.21 677.805C136.798 677.736 137.276 677.681 137.642 677.638C138.009 677.592 138.275 677.517 138.441 677.415C138.607 677.312 138.69 677.146 138.69 676.916V676.871C138.69 676.313 138.533 675.881 138.217 675.574C137.906 675.267 137.442 675.114 136.824 675.114C136.181 675.114 135.673 675.256 135.303 675.542C134.936 675.823 134.683 676.136 134.542 676.481L132.746 676.072C132.959 675.476 133.27 674.994 133.679 674.628C134.092 674.257 134.568 673.989 135.105 673.822C135.641 673.652 136.206 673.567 136.798 673.567C137.19 673.567 137.606 673.614 138.045 673.707C138.488 673.797 138.901 673.963 139.285 674.206C139.673 674.449 139.99 674.796 140.237 675.248C140.485 675.695 140.608 676.277 140.608 676.993V683.513H138.742V682.17H138.665C138.541 682.418 138.356 682.66 138.109 682.899C137.862 683.138 137.544 683.336 137.156 683.494C136.769 683.651 136.304 683.73 135.763 683.73ZM136.178 682.196C136.707 682.196 137.159 682.092 137.534 681.883C137.913 681.674 138.2 681.401 138.396 681.065C138.597 680.724 138.697 680.359 138.697 679.972V678.706C138.629 678.774 138.497 678.838 138.301 678.898C138.109 678.953 137.889 679.002 137.642 679.045C137.395 679.083 137.154 679.119 136.92 679.153C136.686 679.183 136.489 679.209 136.332 679.23C135.961 679.277 135.622 679.356 135.315 679.467C135.013 679.577 134.77 679.737 134.587 679.946C134.408 680.15 134.318 680.423 134.318 680.764C134.318 681.237 134.493 681.595 134.842 681.838C135.192 682.077 135.637 682.196 136.178 682.196ZM147.395 673.695V675.229H142.032V673.695H147.395ZM143.47 671.342H145.381V680.63C145.381 681.001 145.437 681.28 145.548 681.467C145.658 681.65 145.801 681.776 145.976 681.844C146.155 681.908 146.349 681.94 146.557 681.94C146.711 681.94 146.845 681.93 146.96 681.908C147.075 681.887 147.165 681.87 147.229 681.857L147.574 683.436C147.463 683.479 147.305 683.521 147.101 683.564C146.896 683.611 146.641 683.636 146.334 683.641C145.831 683.649 145.362 683.56 144.928 683.372C144.493 683.185 144.141 682.895 143.873 682.503C143.604 682.111 143.47 681.619 143.47 681.026V671.342ZM124.837 710.73C124.215 710.73 123.653 710.615 123.15 710.385C122.647 710.15 122.249 709.812 121.955 709.369C121.665 708.925 121.52 708.382 121.52 707.739C121.52 707.185 121.626 706.729 121.839 706.371C122.053 706.013 122.34 705.729 122.702 705.521C123.065 705.312 123.469 705.154 123.917 705.047C124.364 704.941 124.82 704.86 125.285 704.805C125.873 704.736 126.35 704.681 126.717 704.638C127.083 704.592 127.349 704.517 127.516 704.415C127.682 704.312 127.765 704.146 127.765 703.916V703.871C127.765 703.313 127.607 702.881 127.292 702.574C126.981 702.267 126.516 702.114 125.898 702.114C125.255 702.114 124.748 702.256 124.377 702.542C124.011 702.823 123.757 703.136 123.616 703.481L121.82 703.072C122.033 702.476 122.344 701.994 122.754 701.628C123.167 701.257 123.642 700.989 124.179 700.822C124.716 700.652 125.281 700.567 125.873 700.567C126.265 700.567 126.68 700.614 127.119 700.707C127.563 700.797 127.976 700.963 128.359 701.206C128.747 701.449 129.065 701.796 129.312 702.248C129.559 702.695 129.683 703.277 129.683 703.993V710.513H127.816V709.17H127.739C127.616 709.418 127.43 709.66 127.183 709.899C126.936 710.138 126.619 710.336 126.231 710.494C125.843 710.651 125.379 710.73 124.837 710.73ZM125.253 709.196C125.781 709.196 126.233 709.092 126.608 708.883C126.987 708.674 127.275 708.401 127.471 708.065C127.671 707.724 127.771 707.359 127.771 706.972V705.706C127.703 705.774 127.571 705.838 127.375 705.898C127.183 705.953 126.964 706.002 126.717 706.045C126.469 706.083 126.229 706.119 125.994 706.153C125.76 706.183 125.564 706.209 125.406 706.23C125.036 706.277 124.697 706.356 124.39 706.467C124.087 706.577 123.844 706.737 123.661 706.946C123.482 707.15 123.393 707.423 123.393 707.764C123.393 708.237 123.567 708.595 123.917 708.838C124.266 709.077 124.712 709.196 125.253 709.196Z" fill="white"/>
<rect x="56.8477" y="597" width="53.9647" height="53.0764" rx="3" fill="#EFEFEF"/>
<rect x="56.8477" y="597" width="53.9647" height="53.0764" rx="3" stroke="white" stroke-width="2"/>
<rect x="56.8477" y="597" width="53.9647" height="53.0764" rx="3" stroke="black" stroke-opacity="0.2" stroke-width="2"/>
<rect x="111.035" y="597" width="53.9647" height="53.0764" rx="3" fill="#EFEFEF"/>
<rect x="111.035" y="597" width="53.9647" height="53.0764" rx="3" stroke="white" stroke-width="2"/>
<rect x="111.035" y="597" width="53.9647" height="53.0764" rx="3" stroke="black" stroke-opacity="0.2" stroke-width="2"/>
<path d="M70.5813 630.405C69.7887 630.405 69.0813 630.202 68.4592 629.797C67.8413 629.388 67.3555 628.807 67.0018 628.052C66.6523 627.294 66.4776 626.384 66.4776 625.323C66.4776 624.262 66.6545 623.354 67.0082 622.6C67.3661 621.846 67.8562 621.268 68.4783 620.868C69.1005 620.467 69.8058 620.267 70.5941 620.267C71.2035 620.267 71.6935 620.369 72.0643 620.574C72.4393 620.774 72.729 621.008 72.9336 621.277C73.1424 621.545 73.3043 621.782 73.4194 621.986H73.5344V617.122H75.4457V630.213H73.5792V628.685H73.4194C73.3043 628.894 73.1381 629.133 72.9208 629.401C72.7077 629.67 72.4137 629.904 72.0387 630.104C71.6637 630.305 71.1779 630.405 70.5813 630.405ZM71.0032 628.775C71.5529 628.775 72.0174 628.63 72.3967 628.34C72.7802 628.046 73.07 627.639 73.266 627.119C73.4663 626.599 73.5664 625.994 73.5664 625.304C73.5664 624.622 73.4684 624.025 73.2724 623.514C73.0763 623.003 72.7887 622.604 72.4094 622.319C72.0302 622.033 71.5614 621.89 71.0032 621.89C70.4279 621.89 69.9485 622.04 69.565 622.338C69.1815 622.636 68.8917 623.043 68.6957 623.559C68.5039 624.074 68.408 624.656 68.408 625.304C68.408 625.96 68.506 626.55 68.7021 627.074C68.8981 627.599 69.1879 628.014 69.5714 628.321C69.9592 628.623 70.4364 628.775 71.0032 628.775ZM80.6887 630.43C80.0666 630.43 79.5041 630.315 79.0012 630.085C78.4984 629.851 78.0999 629.512 77.8059 629.069C77.5161 628.626 77.3712 628.082 77.3712 627.439C77.3712 626.885 77.4778 626.429 77.6908 626.071C77.9039 625.713 78.1916 625.43 78.5538 625.221C78.916 625.012 79.3208 624.854 79.7683 624.748C80.2157 624.641 80.6717 624.56 81.1362 624.505C81.7242 624.437 82.2015 624.381 82.568 624.339C82.9345 624.292 83.2008 624.217 83.367 624.115C83.5332 624.013 83.6163 623.846 83.6163 623.616V623.572C83.6163 623.013 83.4586 622.581 83.1433 622.274C82.8322 621.967 82.3677 621.814 81.7498 621.814C81.1063 621.814 80.5992 621.956 80.2285 622.242C79.862 622.523 79.6085 622.836 79.4678 623.182L77.6717 622.773C77.8847 622.176 78.1958 621.694 78.6049 621.328C79.0183 620.957 79.4934 620.689 80.0303 620.523C80.5673 620.352 81.1319 620.267 81.7242 620.267C82.1163 620.267 82.5318 620.314 82.9707 620.407C83.4139 620.497 83.8272 620.663 84.2107 620.906C84.5985 621.149 84.916 621.496 85.1631 621.948C85.4103 622.395 85.5339 622.977 85.5339 623.693V630.213H83.6674V628.871H83.5907C83.4671 629.118 83.2818 629.361 83.0346 629.599C82.7874 629.838 82.47 630.036 82.0822 630.194C81.6944 630.351 81.2299 630.43 80.6887 630.43ZM81.1042 628.896C81.6326 628.896 82.0843 628.792 82.4593 628.583C82.8386 628.374 83.1262 628.101 83.3222 627.765C83.5225 627.424 83.6227 627.059 83.6227 626.672V625.406C83.5545 625.474 83.4224 625.538 83.2264 625.598C83.0346 625.653 82.8151 625.702 82.568 625.745C82.3208 625.783 82.0801 625.819 81.8457 625.854C81.6113 625.883 81.4153 625.909 81.2576 625.93C80.8869 625.977 80.5481 626.056 80.2413 626.167C79.9387 626.278 79.6958 626.437 79.5126 626.646C79.3336 626.851 79.2441 627.123 79.2441 627.464C79.2441 627.937 79.4188 628.295 79.7683 628.538C80.1177 628.777 80.563 628.896 81.1042 628.896ZM92.3206 620.395V621.929H86.9577V620.395H92.3206ZM88.3959 618.042H90.3071V627.33C90.3071 627.701 90.3625 627.98 90.4733 628.167C90.5841 628.351 90.7269 628.476 90.9016 628.545C91.0806 628.608 91.2745 628.64 91.4833 628.64C91.6367 628.64 91.7709 628.63 91.886 628.608C92.001 628.587 92.0905 628.57 92.1544 628.557L92.4996 630.136C92.3888 630.179 92.2311 630.221 92.0266 630.264C91.822 630.311 91.5664 630.336 91.2595 630.341C90.7567 630.349 90.2879 630.26 89.8533 630.072C89.4186 629.885 89.0671 629.595 88.7986 629.203C88.5301 628.811 88.3959 628.319 88.3959 627.726V618.042ZM96.95 630.43C96.3279 630.43 95.7654 630.315 95.2625 630.085C94.7597 629.851 94.3613 629.512 94.0672 629.069C93.7774 628.626 93.6326 628.082 93.6326 627.439C93.6326 626.885 93.7391 626.429 93.9522 626.071C94.1652 625.713 94.4529 625.43 94.8151 625.221C95.1773 625.012 95.5821 624.854 96.0296 624.748C96.477 624.641 96.933 624.56 97.3975 624.505C97.9855 624.437 98.4628 624.381 98.8293 624.339C99.1958 624.292 99.4621 624.217 99.6283 624.115C99.7945 624.013 99.8776 623.846 99.8776 623.616V623.572C99.8776 623.013 99.7199 622.581 99.4046 622.274C99.0935 621.967 98.629 621.814 98.0111 621.814C97.3676 621.814 96.8605 621.956 96.4898 622.242C96.1233 622.523 95.8698 622.836 95.7291 623.182L93.933 622.773C94.1461 622.176 94.4571 621.694 94.8662 621.328C95.2796 620.957 95.7547 620.689 96.2916 620.523C96.8286 620.352 97.3932 620.267 97.9855 620.267C98.3776 620.267 98.7931 620.314 99.232 620.407C99.6752 620.497 100.089 620.663 100.472 620.906C100.86 621.149 101.177 621.496 101.424 621.948C101.672 622.395 101.795 622.977 101.795 623.693V630.213H99.9287V628.871H99.852C99.7284 629.118 99.5431 629.361 99.2959 629.599C99.0488 629.838 98.7313 630.036 98.3435 630.194C97.9557 630.351 97.4912 630.43 96.95 630.43ZM97.3655 628.896C97.8939 628.896 98.3456 628.792 98.7206 628.583C99.0999 628.374 99.3875 628.101 99.5836 627.765C99.7838 627.424 99.884 627.059 99.884 626.672V625.406C99.8158 625.474 99.6837 625.538 99.4877 625.598C99.2959 625.653 99.0764 625.702 98.8293 625.745C98.5821 625.783 98.3414 625.819 98.107 625.854C97.8726 625.883 97.6766 625.909 97.5189 625.93C97.1482 625.977 96.8094 626.056 96.5026 626.167C96.2 626.278 95.9571 626.437 95.7739 626.646C95.5949 626.851 95.5054 627.123 95.5054 627.464C95.5054 627.937 95.6801 628.295 96.0296 628.538C96.379 628.777 96.8243 628.896 97.3655 628.896Z" fill="white"/>
<path d="M125.656 630.405C124.863 630.405 124.156 630.202 123.533 629.797C122.915 629.388 122.43 628.807 122.076 628.052C121.727 627.294 121.552 626.384 121.552 625.323C121.552 624.262 121.729 623.354 122.082 622.6C122.44 621.846 122.93 621.268 123.553 620.868C124.175 620.467 124.88 620.267 125.668 620.267C126.278 620.267 126.768 620.369 127.138 620.574C127.513 620.774 127.803 621.008 128.008 621.277C128.217 621.545 128.379 621.782 128.494 621.986H128.609V617.122H130.52V630.213H128.653V628.685H128.494C128.379 628.894 128.212 629.133 127.995 629.401C127.782 629.67 127.488 629.904 127.113 630.104C126.738 630.305 126.252 630.405 125.656 630.405ZM126.077 628.775C126.627 628.775 127.092 628.63 127.471 628.34C127.854 628.046 128.144 627.639 128.34 627.119C128.54 626.599 128.641 625.994 128.641 625.304C128.641 624.622 128.543 624.025 128.347 623.514C128.151 623.003 127.863 622.604 127.484 622.319C127.104 622.033 126.636 621.89 126.077 621.89C125.502 621.89 125.023 622.04 124.639 622.338C124.256 622.636 123.966 623.043 123.77 623.559C123.578 624.074 123.482 624.656 123.482 625.304C123.482 625.96 123.58 626.55 123.776 627.074C123.972 627.599 124.262 628.014 124.646 628.321C125.033 628.623 125.511 628.775 126.077 628.775ZM135.763 630.43C135.141 630.43 134.578 630.315 134.075 630.085C133.573 629.851 133.174 629.512 132.88 629.069C132.59 628.626 132.445 628.082 132.445 627.439C132.445 626.885 132.552 626.429 132.765 626.071C132.978 625.713 133.266 625.43 133.628 625.221C133.99 625.012 134.395 624.854 134.842 624.748C135.29 624.641 135.746 624.56 136.21 624.505C136.798 624.437 137.276 624.381 137.642 624.339C138.009 624.292 138.275 624.217 138.441 624.115C138.607 624.013 138.69 623.846 138.69 623.616V623.572C138.69 623.013 138.533 622.581 138.217 622.274C137.906 621.967 137.442 621.814 136.824 621.814C136.181 621.814 135.673 621.956 135.303 622.242C134.936 622.523 134.683 622.836 134.542 623.182L132.746 622.773C132.959 622.176 133.27 621.694 133.679 621.328C134.092 620.957 134.568 620.689 135.105 620.523C135.641 620.352 136.206 620.267 136.798 620.267C137.19 620.267 137.606 620.314 138.045 620.407C138.488 620.497 138.901 620.663 139.285 620.906C139.673 621.149 139.99 621.496 140.237 621.948C140.485 622.395 140.608 622.977 140.608 623.693V630.213H138.742V628.871H138.665C138.541 629.118 138.356 629.361 138.109 629.599C137.862 629.838 137.544 630.036 137.156 630.194C136.769 630.351 136.304 630.43 135.763 630.43ZM136.178 628.896C136.707 628.896 137.159 628.792 137.534 628.583C137.913 628.374 138.2 628.101 138.396 627.765C138.597 627.424 138.697 627.059 138.697 626.672V625.406C138.629 625.474 138.497 625.538 138.301 625.598C138.109 625.653 137.889 625.702 137.642 625.745C137.395 625.783 137.154 625.819 136.92 625.854C136.686 625.883 136.489 625.909 136.332 625.93C135.961 625.977 135.622 626.056 135.315 626.167C135.013 626.278 134.77 626.437 134.587 626.646C134.408 626.851 134.318 627.123 134.318 627.464C134.318 627.937 134.493 628.295 134.842 628.538C135.192 628.777 135.637 628.896 136.178 628.896ZM147.395 620.395V621.929H142.032V620.395H147.395ZM143.47 618.042H145.381V627.33C145.381 627.701 145.437 627.98 145.548 628.167C145.658 628.351 145.801 628.476 145.976 628.545C146.155 628.608 146.349 628.64 146.557 628.64C146.711 628.64 146.845 628.63 146.96 628.608C147.075 628.587 147.165 628.57 147.229 628.557L147.574 630.136C147.463 630.179 147.305 630.221 147.101 630.264C146.896 630.311 146.641 630.336 146.334 630.341C145.831 630.349 145.362 630.26 144.928 630.072C144.493 629.885 144.141 629.595 143.873 629.203C143.604 628.811 143.47 628.319 143.47 627.726V618.042ZM124.837 657.43C124.215 657.43 123.653 657.315 123.15 657.085C122.647 656.851 122.249 656.512 121.955 656.069C121.665 655.626 121.52 655.082 121.52 654.439C121.52 653.885 121.626 653.429 121.839 653.071C122.053 652.713 122.34 652.43 122.702 652.221C123.065 652.012 123.469 651.854 123.917 651.748C124.364 651.641 124.82 651.56 125.285 651.505C125.873 651.437 126.35 651.381 126.717 651.339C127.083 651.292 127.349 651.217 127.516 651.115C127.682 651.013 127.765 650.846 127.765 650.616V650.572C127.765 650.013 127.607 649.581 127.292 649.274C126.981 648.967 126.516 648.814 125.898 648.814C125.255 648.814 124.748 648.956 124.377 649.242C124.011 649.523 123.757 649.836 123.616 650.182L121.82 649.773C122.033 649.176 122.344 648.694 122.754 648.328C123.167 647.957 123.642 647.689 124.179 647.523C124.716 647.352 125.281 647.267 125.873 647.267C126.265 647.267 126.68 647.314 127.119 647.407C127.563 647.497 127.976 647.663 128.359 647.906C128.747 648.149 129.065 648.496 129.312 648.948C129.559 649.395 129.683 649.977 129.683 650.693V657.213H127.816V655.871H127.739C127.616 656.118 127.43 656.361 127.183 656.599C126.936 656.838 126.619 657.036 126.231 657.194C125.843 657.351 125.379 657.43 124.837 657.43ZM125.253 655.896C125.781 655.896 126.233 655.792 126.608 655.583C126.987 655.374 127.275 655.101 127.471 654.765C127.671 654.424 127.771 654.059 127.771 653.672V652.406C127.703 652.474 127.571 652.538 127.375 652.598C127.183 652.653 126.964 652.702 126.717 652.745C126.469 652.783 126.229 652.819 125.994 652.854C125.76 652.883 125.564 652.909 125.406 652.93C125.036 652.977 124.697 653.056 124.39 653.167C124.087 653.278 123.844 653.437 123.661 653.646C123.482 653.851 123.393 654.123 123.393 654.464C123.393 654.937 123.567 655.295 123.917 655.538C124.266 655.777 124.712 655.896 125.253 655.896Z" fill="white"/>
<rect x="37" y="665.522" width="57.4444" height="56.5009" rx="3" fill="white"/>
<rect x="37" y="665.522" width="57.4444" height="56.5009" rx="3" stroke="white" stroke-width="2"/>
<rect x="37" y="665.522" width="57.4444" height="56.5009" rx="3" stroke="black" stroke-opacity="0.2" stroke-width="2"/>
<rect x="94.5547" y="665.522" width="57.4444" height="56.5009" rx="3" fill="white"/>
<rect x="94.5547" y="665.522" width="57.4444" height="56.5009" rx="3" stroke="white" stroke-width="2"/>
<rect x="94.5547" y="665.522" width="57.4444" height="56.5009" rx="3" stroke="black" stroke-opacity="0.2" stroke-width="2"/>
<rect x="37" y="608.909" width="57.4444" height="56.5009" rx="3" fill="white"/>
<rect x="37" y="608.909" width="57.4444" height="56.5009" rx="3" stroke="white" stroke-width="2"/>
<rect x="37" y="608.909" width="57.4444" height="56.5009" rx="3" stroke="black" stroke-opacity="0.2" stroke-width="2"/>
<rect x="94.5547" y="608.909" width="57.4444" height="56.5009" rx="3" fill="white"/>
<rect x="94.5547" y="608.909" width="57.4444" height="56.5009" rx="3" stroke="white" stroke-width="2"/>
<rect x="94.5547" y="608.909" width="57.4444" height="56.5009" rx="3" stroke="black" stroke-opacity="0.2" stroke-width="2"/>
<path d="M21 735C20.4477 735 20 735.448 20 736C20 736.552 20.4477 737 21 737L21 735ZM153.707 736.707C154.098 736.317 154.098 735.683 153.707 735.293L147.343 728.929C146.953 728.538 146.319 728.538 145.929 728.929C145.538 729.319 145.538 729.953 145.929 730.343L151.586 736L145.929 741.657C145.538 742.047 145.538 742.681 145.929 743.071C146.319 743.462 146.953 743.462 147.343 743.071L153.707 736.707ZM21 737L153 737L153 735L21 735L21 737Z" fill="black"/>
<path d="M164.294 722.442C163.986 722.832 164.052 723.398 164.442 723.706C164.832 724.014 165.398 723.948 165.706 723.558L164.294 722.442ZM180.894 703.895C180.836 703.401 180.388 703.048 179.895 703.106L171.85 704.053C171.357 704.111 171.004 704.558 171.062 705.052C171.12 705.545 171.567 705.898 172.061 705.84L179.211 704.999L180.053 712.15C180.111 712.643 180.558 712.996 181.052 712.938C181.545 712.88 181.898 712.433 181.84 711.939L180.894 703.895ZM165.706 723.558L180.706 704.558L179.294 703.442L164.294 722.442L165.706 723.558Z" fill="black"/>
<path d="M20 736C20 736.552 20.4477 737 21 737C21.5523 737 22 736.552 22 736L20 736ZM21.7071 609.293C21.3166 608.902 20.6834 608.902 20.2929 609.293L13.9289 615.657C13.5384 616.047 13.5384 616.681 13.9289 617.071C14.3195 617.462 14.9526 617.462 15.3432 617.071L21 611.414L26.6569 617.071C27.0474 617.462 27.6805 617.462 28.0711 617.071C28.4616 616.681 28.4616 616.047 28.0711 615.657L21.7071 609.293ZM22 736L22 610L20 610L20 736L22 736Z" fill="black"/>
<path d="M83.3011 679.318C81.6042 679.318 80.0928 679.027 78.767 678.443C77.4489 677.852 76.4072 677.042 75.642 676.011C74.8845 674.973 74.4943 673.777 74.4716 672.42H79.4261C79.4564 672.989 79.642 673.489 79.983 673.92C80.3314 674.345 80.7936 674.674 81.3693 674.909C81.9451 675.144 82.5928 675.261 83.3125 675.261C84.0625 675.261 84.7254 675.129 85.3011 674.864C85.8769 674.598 86.3277 674.231 86.6534 673.761C86.9792 673.292 87.142 672.75 87.142 672.136C87.142 671.515 86.9678 670.966 86.6193 670.489C86.2784 670.004 85.786 669.625 85.142 669.352C84.5057 669.08 83.7481 668.943 82.8693 668.943H80.6989V665.33H82.8693C83.6117 665.33 84.267 665.201 84.8352 664.943C85.411 664.686 85.858 664.33 86.1761 663.875C86.4943 663.413 86.6534 662.875 86.6534 662.261C86.6534 661.678 86.5133 661.167 86.233 660.727C85.9602 660.28 85.5739 659.932 85.0739 659.682C84.5814 659.432 84.0057 659.307 83.3466 659.307C82.6799 659.307 82.0701 659.428 81.517 659.67C80.964 659.905 80.5208 660.242 80.1875 660.682C79.8542 661.121 79.6761 661.636 79.6534 662.227H74.9375C74.9602 660.886 75.3428 659.705 76.0852 658.682C76.8277 657.659 77.8277 656.86 79.0852 656.284C80.3504 655.701 81.7784 655.409 83.3693 655.409C84.9754 655.409 86.3807 655.701 87.5852 656.284C88.7898 656.867 89.7254 657.655 90.392 658.648C91.0663 659.633 91.3996 660.739 91.392 661.966C91.3996 663.269 90.9943 664.356 90.1761 665.227C89.3655 666.098 88.3087 666.652 87.0057 666.886V667.068C88.7178 667.288 90.0208 667.883 90.9148 668.852C91.8163 669.814 92.2633 671.019 92.2557 672.466C92.2633 673.792 91.8807 674.97 91.108 676C90.3428 677.03 89.286 677.841 87.9375 678.432C86.589 679.023 85.0436 679.318 83.3011 679.318ZM104.179 679H95.929V655.727H104.247C106.588 655.727 108.603 656.193 110.293 657.125C111.982 658.049 113.281 659.379 114.19 661.114C115.107 662.848 115.565 664.924 115.565 667.341C115.565 669.765 115.107 671.848 114.19 673.591C113.281 675.333 111.974 676.67 110.27 677.602C108.573 678.534 106.543 679 104.179 679ZM100.849 674.784H103.974C105.429 674.784 106.652 674.527 107.645 674.011C108.645 673.489 109.395 672.682 109.895 671.591C110.402 670.492 110.656 669.076 110.656 667.341C110.656 665.621 110.402 664.216 109.895 663.125C109.395 662.034 108.649 661.231 107.656 660.716C106.664 660.201 105.44 659.943 103.986 659.943H100.849V674.784Z" fill="black"/>
<circle cx="365.5" cy="46.5" r="42.5" fill="#DDEDFF"/>
<circle cx="365.5" cy="656.5" r="42.5" fill="#A6CFFF"/>
<circle cx="365.5" cy="431.5" r="42.5" fill="#A6CFFF"/>
<circle cx="365.5" cy="223.5" r="42.5" fill="#A6CFFF"/>
<path d="M352.037 57.4315C350.388 57.4251 348.969 57.0192 347.78 56.2138C346.598 55.4084 345.687 54.2418 345.048 52.7141C344.415 51.1864 344.102 49.3487 344.108 47.201C344.108 45.0597 344.425 43.2347 345.057 41.7262C345.697 40.2177 346.607 39.0703 347.79 38.2841C348.979 37.4915 350.395 37.0952 352.037 37.0952C353.68 37.0952 355.093 37.4915 356.275 38.2841C357.464 39.0767 358.378 40.2273 359.018 41.7358C359.657 43.2379 359.973 45.0597 359.967 47.201C359.967 49.3551 359.647 51.196 359.008 52.7237C358.375 54.2514 357.468 55.418 356.285 56.2234C355.102 57.0288 353.687 57.4315 352.037 57.4315ZM352.037 53.9893C353.162 53.9893 354.061 53.4237 354.732 52.2923C355.403 51.1609 355.735 49.4638 355.729 47.201C355.729 45.7116 355.575 44.4716 355.269 43.4808C354.968 42.4901 354.54 41.7454 353.984 41.2468C353.434 40.7482 352.785 40.4989 352.037 40.4989C350.919 40.4989 350.024 41.0582 349.353 42.1768C348.682 43.2955 348.343 44.9702 348.336 47.201C348.336 48.7095 348.487 49.9688 348.787 50.9787C349.094 51.9822 349.525 52.7365 350.081 53.2415C350.638 53.7401 351.29 53.9893 352.037 53.9893ZM382.287 34.698H384.447V59.106H382.287V34.698ZM378.345 44.499H383.016V46.335H378.345V44.499ZM372.027 37.83H374.187C374.187 44.121 372.027 49.953 365.061 53.868L363.738 52.275C369.867 48.846 372.027 43.905 372.027 38.262V37.83ZM364.683 37.83H372.783V39.693H364.683V37.83ZM376.86 35.346H378.993V57.918H376.86V35.346Z" fill="black"/>
<path d="M357.571 213.364V233H353.419V217.304H353.304L348.807 220.123V216.441L353.668 213.364H357.571ZM381.598 210.698H383.758V235.106H381.598V210.698ZM377.656 220.499H382.327V222.335H377.656V220.499ZM371.338 213.83H373.498C373.498 220.121 371.338 225.953 364.372 229.868L363.049 228.275C369.178 224.846 371.338 219.905 371.338 214.262V213.83ZM363.994 213.83H372.094V215.693H363.994V213.83ZM376.171 211.346H378.304V233.918H376.171V211.346Z" fill="black"/>
<path d="M347.129 441V438.009L354.119 431.537C354.713 430.961 355.212 430.444 355.615 429.983C356.024 429.523 356.334 429.072 356.545 428.631C356.756 428.184 356.861 427.701 356.861 427.184C356.861 426.608 356.73 426.113 356.468 425.697C356.206 425.276 355.848 424.953 355.394 424.729C354.94 424.499 354.426 424.384 353.85 424.384C353.25 424.384 352.725 424.505 352.278 424.748C351.831 424.991 351.485 425.339 351.243 425.793C351 426.247 350.878 426.787 350.878 427.414H346.937C346.937 426.129 347.228 425.013 347.81 424.067C348.392 423.121 349.207 422.39 350.255 421.872C351.303 421.354 352.511 421.095 353.879 421.095C355.286 421.095 356.51 421.344 357.551 421.843C358.6 422.335 359.415 423.019 359.996 423.895C360.578 424.771 360.869 425.774 360.869 426.906C360.869 427.647 360.722 428.379 360.428 429.101C360.14 429.824 359.626 430.626 358.884 431.508C358.143 432.384 357.098 433.435 355.749 434.662L352.882 437.472V437.606H361.128V441H347.129ZM383.496 418.698H385.656V443.106H383.496V418.698ZM379.554 428.499H384.225V430.335H379.554V428.499ZM373.236 421.83H375.396C375.396 428.121 373.236 433.953 366.27 437.868L364.947 436.275C371.076 432.846 373.236 427.905 373.236 422.262V421.83ZM365.892 421.83H373.992V423.693H365.892V421.83ZM378.069 419.346H380.202V441.918H378.069V419.346Z" fill="black"/>
<path d="M353.992 667.268C352.56 667.268 351.285 667.022 350.166 666.53C349.054 666.032 348.175 665.348 347.53 664.478C346.89 663.603 346.561 662.593 346.542 661.449H350.722C350.748 661.928 350.905 662.35 351.192 662.714C351.486 663.072 351.876 663.35 352.362 663.548C352.848 663.746 353.394 663.846 354.002 663.846C354.634 663.846 355.194 663.734 355.679 663.51C356.165 663.286 356.546 662.976 356.82 662.58C357.095 662.184 357.233 661.727 357.233 661.209C357.233 660.685 357.086 660.221 356.792 659.819C356.504 659.409 356.089 659.09 355.545 658.86C355.008 658.63 354.369 658.515 353.628 658.515H351.796V655.466H353.628C354.254 655.466 354.807 655.357 355.286 655.14C355.772 654.922 356.149 654.622 356.418 654.238C356.686 653.848 356.82 653.395 356.82 652.877C356.82 652.385 356.702 651.953 356.466 651.582C356.236 651.205 355.91 650.911 355.488 650.7C355.072 650.489 354.586 650.384 354.03 650.384C353.468 650.384 352.953 650.486 352.487 650.691C352.02 650.889 351.646 651.173 351.365 651.544C351.084 651.915 350.933 652.349 350.914 652.848H346.935C346.954 651.717 347.277 650.719 347.903 649.857C348.53 648.994 349.374 648.319 350.435 647.833C351.502 647.341 352.707 647.095 354.049 647.095C355.405 647.095 356.59 647.341 357.607 647.833C358.623 648.326 359.412 648.99 359.975 649.828C360.544 650.659 360.825 651.592 360.819 652.627C360.825 653.727 360.483 654.644 359.793 655.379C359.109 656.114 358.217 656.581 357.118 656.779V656.933C358.562 657.118 359.662 657.62 360.416 658.438C361.177 659.25 361.554 660.266 361.547 661.487C361.554 662.605 361.231 663.599 360.579 664.469C359.933 665.338 359.042 666.022 357.904 666.521C356.766 667.019 355.462 667.268 353.992 667.268ZM383.892 644.698H386.052V669.106H383.892V644.698ZM379.95 654.499H384.621V656.335H379.95V654.499ZM373.632 647.83H375.792C375.792 654.121 373.632 659.953 366.666 663.868L365.343 662.275C371.472 658.846 373.632 653.905 373.632 648.262V647.83ZM366.288 647.83H374.388V649.693H366.288V647.83ZM378.465 645.346H380.598V667.918H378.465V645.346Z" fill="black"/>
</svg>
