<svg width="418" height="195" viewBox="0 0 418 195" fill="none" xmlns="http://www.w3.org/2000/svg">
<rect x="341.734" y="54" width="76" height="113" rx="2" fill="black"/>
<path opacity="0.4" d="M49.3279 100.593L49.3279 100.593L71.8449 88.1115L71.8454 88.1112C74.2302 86.7723 77.3747 86.1 80.5248 86.1C83.6749 86.1 86.8194 86.7723 89.2043 88.1112L89.2048 88.1115L111.722 100.593L111.77 100.505L111.722 100.593C114.417 102.085 116.831 104.774 118.509 107.847L80.5248 129.822L42.5406 107.847C44.219 104.774 46.6328 102.085 49.3279 100.593Z" fill="#5585B3" stroke="#2867A2" stroke-width="0.2"/>
<path opacity="0.6" d="M80.4221 170.233C77.3055 170.219 74.2022 169.546 71.8426 168.222L71.8422 168.222L49.3252 155.74L49.3252 155.74C46.7934 154.338 44.486 151.876 42.8112 149.035C41.1364 146.195 40.1 142.987 40.1 140.099V116.233C40.1 113.586 41.0005 110.686 42.4423 108.022L80.4221 129.995V170.233Z" fill="#5585B3" stroke="#2867A2" stroke-width="0.2"/>
<path d="M111.717 155.74L111.717 155.74L89.1996 168.222L89.1991 168.222C86.8394 169.546 83.7361 170.219 80.6195 170.233V129.995L118.599 108.022C120.041 110.686 120.942 113.586 120.942 116.233V140.099C120.942 142.987 119.905 146.195 118.231 149.035C116.556 151.876 114.248 154.338 111.717 155.74Z" fill="#5585B3" stroke="#2867A2" stroke-width="0.2"/>
<path opacity="0.4" d="M49.3279 57.5928L49.3279 57.5928L71.8449 45.1115L71.8454 45.1112C74.2302 43.7723 77.3747 43.1 80.5248 43.1C83.6749 43.1 86.8194 43.7723 89.2043 45.1112L89.2048 45.1115L111.722 57.5928L111.77 57.5053L111.722 57.5928C114.417 59.0855 116.831 61.774 118.509 64.8467L80.5248 86.8222L42.5406 64.8467C44.219 61.774 46.6328 59.0855 49.3279 57.5928Z" fill="#5585B3" stroke="#2867A2" stroke-width="0.2"/>
<path opacity="0.6" d="M80.4221 127.233C77.3055 127.219 74.2022 126.546 71.8426 125.222L71.8422 125.222L49.3252 112.74L49.3252 112.74C46.7934 111.338 44.486 108.876 42.8112 106.035C41.1364 103.195 40.1 99.9868 40.1 97.0995V73.2333C40.1 70.5859 41.0005 67.6863 42.4423 65.0222L80.4221 86.995V127.233Z" fill="#5585B3" stroke="#2867A2" stroke-width="0.2"/>
<path d="M111.717 112.74L111.717 112.74L89.1996 125.222L89.1991 125.222C86.8394 126.546 83.7361 127.219 80.6195 127.233V86.995L118.599 65.0222C120.041 67.6863 120.942 70.5859 120.942 73.2333V97.0995C120.942 99.9868 119.905 103.195 118.231 106.035C116.556 108.876 114.248 111.338 111.717 112.74Z" fill="#5585B3" stroke="#2867A2" stroke-width="0.2"/>
<path opacity="0.4" d="M49.3279 14.5928L49.3279 14.5928L71.8449 2.11146L71.8454 2.1112C74.2302 0.772321 77.3747 0.1 80.5248 0.1C83.6749 0.1 86.8194 0.772321 89.2043 2.1112L89.2048 2.11146L111.722 14.5928L111.77 14.5053L111.722 14.5928C114.417 16.0855 116.831 18.774 118.509 21.8467L80.5248 43.8222L42.5406 21.8467C44.219 18.774 46.6328 16.0855 49.3279 14.5928Z" fill="#5585B3" stroke="#2867A2" stroke-width="0.2"/>
<path opacity="0.6" d="M80.4221 84.2328C77.3055 84.2187 74.2022 83.5465 71.8426 82.2218L71.8422 82.2215L49.3252 69.7402L49.3252 69.7402C46.7934 68.3383 44.486 65.8757 42.8112 63.0354C41.1364 60.1952 40.1 56.9868 40.1 54.0995V30.2333C40.1 27.5859 41.0005 24.6863 42.4423 22.0222L80.4221 43.995V84.2328Z" fill="#5585B3" stroke="#2867A2" stroke-width="0.2"/>
<path d="M111.717 69.7402L111.717 69.7402L89.1996 82.2215L89.1991 82.2218C86.8394 83.5465 83.7361 84.2187 80.6195 84.2328V43.995L118.599 22.0222C120.041 24.6863 120.942 27.5859 120.942 30.2333V54.0995C120.942 56.9868 119.905 60.1952 118.231 63.0354C116.556 65.8757 114.248 68.3383 111.717 69.7402Z" fill="#5585B3" stroke="#2867A2" stroke-width="0.2"/>
<path opacity="0.4" d="M9.32787 124.593L9.3279 124.593L31.8449 112.111L31.8454 112.111C34.2302 110.772 37.3747 110.1 40.5248 110.1C43.6749 110.1 46.8194 110.772 49.2043 112.111L49.2048 112.111L71.7218 124.593L71.7703 124.505L71.7218 124.593C74.4169 126.085 76.8307 128.774 78.5091 131.847L40.5248 153.822L2.5406 131.847C4.21896 128.774 6.63279 126.085 9.32787 124.593Z" fill="#5585B3" stroke="#2867A2" stroke-width="0.2"/>
<path opacity="0.6" d="M40.4221 194.233C37.3055 194.219 34.2022 193.546 31.8426 192.222L31.8422 192.222L9.3252 179.74L9.32516 179.74C6.79341 178.338 4.48596 175.876 2.81118 173.035C1.1364 170.195 0.1 166.987 0.1 164.099V140.233C0.1 137.586 1.00046 134.686 2.44228 132.022L40.4221 153.995V194.233Z" fill="#5585B3" stroke="#2867A2" stroke-width="0.2"/>
<path d="M71.7166 179.74L71.7166 179.74L49.1996 192.222L49.1991 192.222C46.8394 193.546 43.7361 194.219 40.6195 194.233V153.995L78.5994 132.022C80.0413 134.686 80.9417 137.586 80.9417 140.233V164.099C80.9417 166.987 79.9053 170.195 78.2306 173.035C76.5558 175.876 74.2484 178.338 71.7166 179.74Z" fill="#5585B3" stroke="#2867A2" stroke-width="0.2"/>
<path opacity="0.4" d="M9.32787 81.5928L9.3279 81.5928L31.8449 69.1115L31.8454 69.1112C34.2302 67.7723 37.3747 67.1 40.5248 67.1C43.6749 67.1 46.8194 67.7723 49.2043 69.1112L49.2048 69.1115L71.7218 81.5928L71.7703 81.5053L71.7218 81.5928C74.4169 83.0855 76.8307 85.774 78.5091 88.8467L40.5248 110.822L2.5406 88.8467C4.21896 85.774 6.63279 83.0855 9.32787 81.5928Z" fill="#5585B3" stroke="#2867A2" stroke-width="0.2"/>
<path opacity="0.6" d="M40.4221 151.233C37.3055 151.219 34.2022 150.546 31.8426 149.222L31.8422 149.222L9.3252 136.74L9.32516 136.74C6.79341 135.338 4.48596 132.876 2.81118 130.035C1.1364 127.195 0.1 123.987 0.1 121.099V97.2333C0.1 94.5859 1.00046 91.6863 2.44228 89.0222L40.4221 110.995V151.233Z" fill="#5585B3" stroke="#2867A2" stroke-width="0.2"/>
<path d="M71.7166 136.74L71.7166 136.74L49.1996 149.222L49.1991 149.222C46.8394 150.546 43.7361 151.219 40.6195 151.233V110.995L78.5994 89.0222C80.0413 91.6863 80.9417 94.5859 80.9417 97.2333V121.099C80.9417 123.987 79.9053 127.195 78.2306 130.035C76.5558 132.876 74.2484 135.338 71.7166 136.74Z" fill="#5585B3" stroke="#2867A2" stroke-width="0.2"/>
<path opacity="0.4" d="M9.32787 38.5928L9.3279 38.5928L31.8449 26.1115L31.8454 26.1112C34.2302 24.7723 37.3747 24.1 40.5248 24.1C43.6749 24.1 46.8194 24.7723 49.2043 26.1112L49.2048 26.1115L71.7218 38.5928L71.7703 38.5053L71.7218 38.5928C74.4169 40.0855 76.8307 42.774 78.5091 45.8467L40.5248 67.8222L2.5406 45.8467C4.21896 42.774 6.63279 40.0855 9.32787 38.5928Z" fill="#5585B3" stroke="#2867A2" stroke-width="0.2"/>
<path opacity="0.6" d="M40.4221 108.233C37.3055 108.219 34.2022 107.546 31.8426 106.222L31.8422 106.222L9.3252 93.7402L9.32516 93.7402C6.79341 92.3383 4.48596 89.8757 2.81118 87.0354C1.1364 84.1952 0.1 80.9868 0.1 78.0995V54.2333C0.1 51.5859 1.00046 48.6863 2.44228 46.0222L40.4221 67.995V108.233Z" fill="#5585B3" stroke="#2867A2" stroke-width="0.2"/>
<path d="M71.7166 93.7402L71.7166 93.7402L49.1996 106.222L49.1991 106.222C46.8394 107.546 43.7361 108.219 40.6195 108.233V67.995L78.5994 46.0222C80.0413 48.6863 80.9417 51.5859 80.9417 54.2333V78.0995C80.9417 80.9868 79.9053 84.1952 78.2306 87.0354C76.5558 89.8757 74.2484 92.3383 71.7166 93.7402Z" fill="#5585B3" stroke="#2867A2" stroke-width="0.2"/>
<path d="M246.881 157.176L241.13 171.669" stroke="black" stroke-width="2" stroke-linecap="round"/>
<path d="M261.865 156.717L269.967 172.593" stroke="black" stroke-width="2" stroke-linecap="round"/>
<path d="M235.766 171.915L241.094 172.446" stroke="black" stroke-width="2" stroke-linecap="round"/>
<path d="M270.641 173.088L264.993 175.754" stroke="black" stroke-width="2" stroke-linecap="round"/>
<path d="M163.252 147.736L161.498 163.23" stroke="black" stroke-width="2" stroke-linecap="round"/>
<path d="M177.594 143.368L189.572 156.567" stroke="black" stroke-width="2" stroke-linecap="round"/>
<path d="M156.385 164.872L161.666 163.989" stroke="black" stroke-width="2" stroke-linecap="round"/>
<path d="M190.35 156.869L185.598 160.921" stroke="black" stroke-width="2" stroke-linecap="round"/>
<rect x="241.019" y="118.555" width="36.5532" height="36.5532" rx="3" transform="rotate(5.69827 241.019 118.555)" fill="#A6C1B6" stroke="black" stroke-width="2"/>
<circle cx="249.608" cy="130.247" r="4.28369" transform="rotate(170.698 249.608 130.247)" fill="white"/>
<circle cx="247.588" cy="130.288" r="1.14232" transform="rotate(170.698 247.588 130.288)" fill="black"/>
<circle cx="4.28369" cy="4.28369" r="4.28369" transform="matrix(-0.995059 -0.0992897 -0.0992897 0.995059 269.215 127.898)" fill="white"/>
<circle cx="1.14232" cy="1.14232" r="1.14232" transform="matrix(-0.995059 -0.0992897 -0.0992897 0.995059 263.76 130.797)" fill="black"/>
<ellipse cx="256.166" cy="140.048" rx="4.28369" ry="1.60638" transform="rotate(5.69827 256.166 140.048)" fill="#A73077"/>
<path d="M332.299 153.125L338.36 167.491" stroke="black" stroke-width="2" stroke-linecap="round"/>
<path d="M344.57 154.056L353.747 169.336" stroke="black" stroke-width="2" stroke-linecap="round"/>
<path d="M334.709 171.427L338.881 168.071" stroke="black" stroke-width="2" stroke-linecap="round"/>
<path d="M354.451 169.783L349.001 172.831" stroke="black" stroke-width="2" stroke-linecap="round"/>
<rect x="321.145" y="117.42" width="36.5532" height="36.5532" rx="3" transform="rotate(1.74849 321.145 117.42)" fill="#F7B68E" stroke="black" stroke-width="2"/>
<circle cx="330.518" cy="128.492" r="4.28369" transform="rotate(166.748 330.518 128.492)" fill="white"/>
<circle cx="328.507" cy="128.672" r="1.14232" transform="rotate(166.748 328.507 128.672)" fill="black"/>
<circle cx="4.28369" cy="4.28369" r="4.28369" transform="matrix(-0.999534 -0.0305121 -0.0305121 0.999534 349.918 124.798)" fill="white"/>
<circle cx="1.14232" cy="1.14232" r="1.14232" transform="matrix(-0.999534 -0.0305121 -0.0305121 0.999534 344.676 128.066)" fill="black"/>
<ellipse cx="337.59" cy="142.569" rx="4.28369" ry="6.35881" transform="rotate(1.74849 337.59 142.569)" fill="#A73077"/>
<rect x="-0.94084" y="1.05585" width="36.5532" height="36.5532" rx="3" transform="matrix(-0.998345 0.0575054 0.0575054 0.998345 186.549 108.944)" fill="#642556" stroke="black" stroke-width="2"/>
<ellipse cx="4.1616" cy="4.47656" rx="4.1616" ry="4.47656" transform="matrix(0.960039 0.279865 0.239143 -0.970984 64 156.693)" fill="white"/>
<ellipse cx="1.10976" cy="1.19375" rx="1.10976" ry="1.19375" transform="matrix(0.960039 0.279865 0.239143 -0.970984 69.6523 154.614)" fill="black"/>
<ellipse cx="54.1362" cy="160.5" rx="4.13624" ry="4.5" fill="white"/>
<ellipse cx="56.0659" cy="160.8" rx="1.103" ry="1.2" fill="black"/>
<path d="M65.4272 172.109C63.1568 173.012 60.6625 173.077 58.7223 172.332C58.3227 172.154 58.1201 171.645 58.4116 171.276C58.7032 170.907 59.3654 170.643 59.765 170.822C61.3055 171.389 63.1454 171.331 64.8482 170.654C66.551 169.976 67.9277 168.754 68.563 167.321C68.731 166.917 69.3642 166.581 69.8584 166.722C70.3237 166.79 70.6209 167.261 70.3583 167.703C69.555 169.54 67.6977 171.206 65.4272 172.109Z" fill="black"/>
<path d="M172.91 139.636C170.479 140.603 167.807 140.673 165.73 139.875C165.302 139.684 165.085 139.138 165.397 138.743C165.709 138.348 166.418 138.066 166.846 138.257C168.496 138.864 170.466 138.803 172.29 138.077C174.114 137.352 175.588 136.043 176.268 134.509C176.448 134.076 177.126 133.716 177.656 133.866C178.154 133.939 178.472 134.444 178.191 134.917C177.331 136.884 175.342 138.668 172.91 139.636Z" fill="#F78282"/>
<ellipse cx="4.1616" cy="4.47656" rx="4.1616" ry="4.47656" transform="matrix(0.960039 0.279865 0.239143 -0.970984 103 131.693)" fill="white"/>
<ellipse cx="1.10976" cy="1.19375" rx="1.10976" ry="1.19375" transform="matrix(0.960039 0.279865 0.239143 -0.970984 108.652 129.614)" fill="black"/>
<ellipse cx="93.1362" cy="135.5" rx="4.13624" ry="4.5" fill="white"/>
<ellipse cx="95.0659" cy="135.8" rx="1.103" ry="1.2" fill="black"/>
<path d="M100.365 146.573L108.228 142.513" stroke="black" stroke-width="2" stroke-linecap="round"/>
<circle cx="162.417" cy="122.502" r="4.28369" transform="rotate(161.422 162.417 122.502)" fill="white"/>
<circle cx="160.43" cy="122.869" r="1.14232" transform="rotate(161.422 160.43 122.869)" fill="black"/>
<circle cx="4.28369" cy="4.28369" r="4.28369" transform="matrix(-0.998051 0.0624005 0.0624005 0.998051 181.389 117.023)" fill="white"/>
<circle cx="1.14232" cy="1.14232" r="1.14232" transform="matrix(-0.998051 0.0624005 0.0624005 0.998051 176.473 120.764)" fill="black"/>
<path d="M350.734 37.6308C350.734 36.9695 351.365 36.4903 352.002 36.6672L416.002 54.4319C416.435 54.5521 416.734 54.9462 416.734 55.3955V165.605C416.734 166.054 416.435 166.448 416.002 166.568L352.002 184.333C351.365 184.51 350.734 184.03 350.734 183.369V37.6308Z" fill="#896A47" stroke="#3D2C1B" stroke-width="2"/>
<ellipse cx="362.022" cy="115.319" rx="3.39741" ry="4.28369" fill="#E0E0E0"/>
<rect x="361.77" y="113.458" width="16.0638" height="4.28369" rx="1" transform="rotate(-1.98891 361.77 113.458)" fill="#E0E0E0"/>
</svg>
