<svg width="407" height="194" viewBox="0 0 407 194" fill="none" xmlns="http://www.w3.org/2000/svg">
<rect x="65.8789" y="102.924" width="89.5946" height="73.1749" fill="#997E43"/>
<path d="M136.148 120.561L155.473 104.708V175.816L136.148 193.5V120.561Z" fill="#DAC086"/>
<path d="M66.3166 102.478L43.918 119.879V193.054L66.3166 167.175V102.478Z" fill="#B69C62"/>
<rect x="43.918" y="119.879" width="92.2297" height="73.1749" fill="#D1B26E"/>
<path d="M155.034 103.37L195 94L181.824 108.278L136.148 119.879L155.034 103.37Z" fill="#D1B26E"/>
<path d="M66.7578 102.924L30.7443 95.7847L0.00105286 110.955L43.92 119.879L66.7578 102.924Z" fill="#D1B26E"/>
<path d="M192 2C192 0.895429 191.105 0 190 0H85C83.8954 0 83 0.895431 83 2V75.8571C83 76.9617 83.8954 77.8571 85 77.8571H97.7692C98.8738 77.8571 99.7692 78.7526 99.7692 79.8571V97.495C99.7692 99.2768 101.924 100.169 103.183 98.9092L123.65 78.4429C124.025 78.0679 124.533 77.8571 125.064 77.8571H190C191.105 77.8571 192 76.9617 192 75.8571V2Z" fill="#C2C2C2"/>
<rect x="6" width="401" height="78" rx="9" fill="#C2C2C2"/>
<path d="M22.1165 45.7188V27.7429H27.7202V30.0014H25.0426V43.4531H27.7202V45.7188H22.1165ZM39.5596 29.4545V44H36.4843V32.3736H36.3991L33.0681 34.4616V31.7344L36.669 29.4545H39.5596ZM51.7719 27.7429V45.7188H46.1682V43.4531H48.8458V30.0014H46.1682V27.7429H51.7719Z" fill="black"/>
<path d="M94.1165 45.7188V27.7429H99.7202V30.0014H97.0426V43.4531H99.7202V45.7188H94.1165ZM105.231 44V41.7841L110.409 36.9901C110.849 36.5639 111.219 36.1804 111.517 35.8395C111.82 35.4986 112.05 35.1648 112.206 34.8381C112.362 34.5066 112.44 34.1491 112.44 33.7656C112.44 33.3395 112.343 32.9725 112.149 32.6648C111.955 32.3523 111.69 32.1132 111.354 31.9474C111.017 31.777 110.636 31.6918 110.21 31.6918C109.765 31.6918 109.377 31.7817 109.045 31.9616C108.714 32.1416 108.458 32.3996 108.278 32.7358C108.098 33.072 108.008 33.4721 108.008 33.9361H105.089C105.089 32.9844 105.305 32.1581 105.736 31.4574C106.167 30.7566 106.77 30.2145 107.547 29.831C108.323 29.4474 109.218 29.2557 110.231 29.2557C111.273 29.2557 112.18 29.4403 112.952 29.8097C113.728 30.1742 114.332 30.6809 114.763 31.3295C115.194 31.9782 115.409 32.7216 115.409 33.5597C115.409 34.1089 115.3 34.651 115.082 35.1861C114.869 35.7211 114.488 36.3153 113.939 36.9688C113.39 37.6174 112.615 38.3963 111.616 39.3054L109.493 41.3864V41.4858H115.601V44H105.231ZM119.246 44.1847C118.777 44.1847 118.375 44.0189 118.039 43.6875C117.707 43.3513 117.541 42.9489 117.541 42.4801C117.541 42.0161 117.707 41.6184 118.039 41.2869C118.375 40.9555 118.777 40.7898 119.246 40.7898C119.701 40.7898 120.098 40.9555 120.439 41.2869C120.78 41.6184 120.951 42.0161 120.951 42.4801C120.951 42.7926 120.87 43.0791 120.709 43.3395C120.553 43.5952 120.347 43.8011 120.091 43.9574C119.835 44.1089 119.554 44.1847 119.246 44.1847ZM128.221 44.1989C127.218 44.1989 126.323 44.0142 125.537 43.6449C124.756 43.2756 124.135 42.7666 123.676 42.1179C123.217 41.4692 122.978 40.7259 122.959 39.8878H125.942C125.975 40.4512 126.212 40.9081 126.652 41.2585C127.092 41.6089 127.615 41.7841 128.221 41.7841C128.704 41.7841 129.131 41.6776 129.5 41.4645C129.874 41.2467 130.165 40.946 130.373 40.5625C130.587 40.1742 130.693 39.7292 130.693 39.2273C130.693 38.7159 130.584 38.2661 130.366 37.8778C130.153 37.4896 129.857 37.1866 129.479 36.9688C129.1 36.7509 128.667 36.6397 128.179 36.6349C127.753 36.6349 127.338 36.7225 126.936 36.8977C126.538 37.0729 126.228 37.312 126.006 37.6151L123.271 37.125L123.96 29.4545H132.852V31.9688H126.496L126.119 35.6122H126.204C126.46 35.2524 126.846 34.9541 127.362 34.7173C127.878 34.4806 128.456 34.3622 129.095 34.3622C129.971 34.3622 130.752 34.5682 131.439 34.9801C132.125 35.392 132.667 35.9579 133.065 36.6776C133.463 37.3925 133.659 38.2164 133.655 39.1491C133.659 40.1293 133.432 41.0005 132.973 41.7628C132.518 42.5204 131.882 43.117 131.062 43.5526C130.248 43.9834 129.301 44.1989 128.221 44.1989ZM144.555 27.7429V45.7188H138.951V43.4531H141.629V30.0014H138.951V27.7429H144.555Z" fill="black"/>
<path d="M187.116 47.1605V29.1847H192.72V31.4432H190.043V44.8949H192.72V47.1605H187.116ZM200.206 29.4545V34.9801H198.047V29.4545H200.206ZM203.878 29.4545V34.9801H201.719V29.4545H203.878ZM205.731 33.0909H208.757V44.5398C208.757 45.3826 208.591 46.0644 208.26 46.5852C207.928 47.1061 207.453 47.4872 206.832 47.7287C206.217 47.9702 205.481 48.0909 204.623 48.0909C204.519 48.0909 204.42 48.0885 204.325 48.0838C204.226 48.0838 204.122 48.0814 204.013 48.0767V45.7116C204.093 45.7164 204.164 45.7188 204.226 45.7188C204.283 45.7235 204.344 45.7259 204.41 45.7259C204.898 45.7259 205.239 45.6217 205.433 45.4134C205.632 45.2098 205.731 44.902 205.731 44.4901V33.0909ZM207.237 31.6847C206.792 31.6847 206.409 31.5355 206.087 31.2372C205.765 30.9342 205.604 30.572 205.604 30.1506C205.604 29.7339 205.765 29.3764 206.087 29.0781C206.409 28.7751 206.792 28.6236 207.237 28.6236C207.692 28.6236 208.078 28.7751 208.395 29.0781C208.717 29.3764 208.878 29.7339 208.878 30.1506C208.878 30.572 208.717 30.9342 208.395 31.2372C208.078 31.5355 207.692 31.6847 207.237 31.6847ZM213.911 44.206C213.215 44.206 212.595 44.0852 212.051 43.8438C211.506 43.5975 211.075 43.2353 210.758 42.7571C210.446 42.2741 210.289 41.6728 210.289 40.9531C210.289 40.3471 210.401 39.8381 210.623 39.4261C210.846 39.0142 211.149 38.6828 211.532 38.4318C211.916 38.1809 212.351 37.9915 212.839 37.8636C213.331 37.7358 213.848 37.6458 214.387 37.5938C215.022 37.5275 215.533 37.4659 215.921 37.4091C216.31 37.3475 216.591 37.2576 216.767 37.1392C216.942 37.0208 217.029 36.8456 217.029 36.6136V36.571C217.029 36.1212 216.887 35.7732 216.603 35.527C216.324 35.2808 215.926 35.1577 215.41 35.1577C214.866 35.1577 214.432 35.2784 214.11 35.5199C213.788 35.7566 213.575 36.0549 213.471 36.4148L210.673 36.1875C210.815 35.5246 211.094 34.9517 211.511 34.4688C211.928 33.9811 212.465 33.607 213.123 33.3466C213.786 33.0814 214.553 32.9489 215.424 32.9489C216.03 32.9489 216.61 33.0199 217.164 33.1619C217.723 33.304 218.218 33.5241 218.649 33.8224C219.084 34.1207 219.428 34.5043 219.679 34.973C219.929 35.437 220.055 35.9934 220.055 36.642V44H217.186V42.4872H217.1C216.925 42.8281 216.691 43.1288 216.397 43.3892C216.104 43.6449 215.751 43.8461 215.339 43.9929C214.927 44.1349 214.451 44.206 213.911 44.206ZM214.778 42.1179C215.223 42.1179 215.616 42.0303 215.957 41.8551C216.298 41.6752 216.565 41.4337 216.759 41.1307C216.954 40.8277 217.051 40.4844 217.051 40.1009V38.9432C216.956 39.0047 216.826 39.0616 216.66 39.1136C216.499 39.161 216.317 39.206 216.113 39.2486C215.91 39.2865 215.706 39.322 215.502 39.3551C215.299 39.3835 215.114 39.4096 214.948 39.4332C214.593 39.4853 214.283 39.5682 214.018 39.6818C213.753 39.7955 213.547 39.9493 213.4 40.1435C213.253 40.3329 213.18 40.5696 213.18 40.8537C213.18 41.2656 213.329 41.5805 213.627 41.7983C213.93 42.0114 214.314 42.1179 214.778 42.1179ZM222.022 33.0909H225.048V44.5398C225.048 45.3826 224.882 46.0644 224.551 46.5852C224.219 47.1061 223.743 47.4872 223.123 47.7287C222.508 47.9702 221.771 48.0909 220.914 48.0909C220.81 48.0909 220.711 48.0885 220.616 48.0838C220.517 48.0838 220.412 48.0814 220.303 48.0767V45.7116C220.384 45.7164 220.455 45.7188 220.517 45.7188C220.573 45.7235 220.635 45.7259 220.701 45.7259C221.189 45.7259 221.53 45.6217 221.724 45.4134C221.923 45.2098 222.022 44.902 222.022 44.4901V33.0909ZM223.528 31.6847C223.083 31.6847 222.699 31.5355 222.377 31.2372C222.055 30.9342 221.894 30.572 221.894 30.1506C221.894 29.7339 222.055 29.3764 222.377 29.0781C222.699 28.7751 223.083 28.6236 223.528 28.6236C223.982 28.6236 224.368 28.7751 224.686 29.0781C225.008 29.3764 225.169 29.7339 225.169 30.1506C225.169 30.572 225.008 30.9342 224.686 31.2372C224.368 31.5355 223.982 31.6847 223.528 31.6847ZM234.087 39.3551V33.0909H237.113V44H234.208V42.0185H234.094C233.848 42.6577 233.439 43.1714 232.866 43.5597C232.297 43.9479 231.604 44.142 230.785 44.142C230.055 44.142 229.414 43.9763 228.86 43.6449C228.306 43.3134 227.873 42.8423 227.56 42.2315C227.252 41.6207 227.096 40.8892 227.091 40.0369V33.0909H230.117V39.4972C230.122 40.1411 230.295 40.6501 230.635 41.0241C230.976 41.3982 231.433 41.5852 232.006 41.5852C232.371 41.5852 232.712 41.5024 233.029 41.3366C233.346 41.1662 233.602 40.9152 233.796 40.5838C233.995 40.2524 234.092 39.8428 234.087 39.3551ZM244.082 44.2131C242.964 44.2131 242.003 43.9763 241.198 43.5028C240.398 43.0246 239.783 42.3617 239.352 41.5142C238.926 40.6667 238.713 39.6913 238.713 38.5881C238.713 37.4706 238.928 36.4905 239.359 35.6477C239.794 34.8002 240.412 34.1397 241.213 33.6662C242.013 33.188 242.964 32.9489 244.068 32.9489C245.019 32.9489 245.853 33.1217 246.568 33.4673C247.283 33.813 247.848 34.2983 248.265 34.9233C248.682 35.5483 248.911 36.2822 248.954 37.125H246.099C246.018 36.5805 245.805 36.1425 245.46 35.8111C245.119 35.4749 244.671 35.3068 244.117 35.3068C243.649 35.3068 243.239 35.4347 242.889 35.6903C242.543 35.9413 242.273 36.3082 242.079 36.7912C241.885 37.2741 241.788 37.8589 241.788 38.5455C241.788 39.2415 241.882 39.8333 242.072 40.321C242.266 40.8087 242.538 41.1804 242.889 41.4361C243.239 41.6918 243.649 41.8196 244.117 41.8196C244.463 41.8196 244.773 41.7486 245.048 41.6065C245.327 41.4645 245.557 41.2585 245.737 40.9886C245.921 40.714 246.042 40.3849 246.099 40.0014H248.954C248.907 40.8348 248.679 41.5687 248.272 42.2031C247.87 42.8329 247.313 43.3253 246.603 43.6804C245.893 44.0355 245.052 44.2131 244.082 44.2131ZM253.537 37.6932V44H250.511V29.4545H253.451V35.0156H253.579C253.826 34.3717 254.223 33.8674 254.772 33.5028C255.322 33.1335 256.011 32.9489 256.839 32.9489C257.597 32.9489 258.257 33.1146 258.821 33.446C259.389 33.7727 259.829 34.2438 260.142 34.8594C260.459 35.4702 260.615 36.2017 260.611 37.054V44H257.585V37.5938C257.59 36.9214 257.419 36.3982 257.074 36.0241C256.733 35.6501 256.255 35.4631 255.639 35.4631C255.227 35.4631 254.862 35.5507 254.545 35.7259C254.233 35.901 253.987 36.1567 253.807 36.4929C253.631 36.8243 253.541 37.2244 253.537 37.6932ZM265.722 44.206C265.026 44.206 264.406 44.0852 263.862 43.8438C263.317 43.5975 262.886 43.2353 262.569 42.7571C262.256 42.2741 262.1 41.6728 262.1 40.9531C262.1 40.3471 262.212 39.8381 262.434 39.4261C262.657 39.0142 262.96 38.6828 263.343 38.4318C263.727 38.1809 264.162 37.9915 264.65 37.8636C265.142 37.7358 265.658 37.6458 266.198 37.5938C266.833 37.5275 267.344 37.4659 267.732 37.4091C268.121 37.3475 268.402 37.2576 268.578 37.1392C268.753 37.0208 268.84 36.8456 268.84 36.6136V36.571C268.84 36.1212 268.698 35.7732 268.414 35.527C268.135 35.2808 267.737 35.1577 267.221 35.1577C266.676 35.1577 266.243 35.2784 265.921 35.5199C265.599 35.7566 265.386 36.0549 265.282 36.4148L262.484 36.1875C262.626 35.5246 262.905 34.9517 263.322 34.4688C263.739 33.9811 264.276 33.607 264.934 33.3466C265.597 33.0814 266.364 32.9489 267.235 32.9489C267.841 32.9489 268.421 33.0199 268.975 33.1619C269.534 33.304 270.029 33.5241 270.46 33.8224C270.895 34.1207 271.239 34.5043 271.489 34.973C271.74 35.437 271.866 35.9934 271.866 36.642V44H268.997V42.4872H268.911C268.736 42.8281 268.502 43.1288 268.208 43.3892C267.915 43.6449 267.562 43.8461 267.15 43.9929C266.738 44.1349 266.262 44.206 265.722 44.206ZM266.589 42.1179C267.034 42.1179 267.427 42.0303 267.768 41.8551C268.109 41.6752 268.376 41.4337 268.57 41.1307C268.765 40.8277 268.862 40.4844 268.862 40.1009V38.9432C268.767 39.0047 268.637 39.0616 268.471 39.1136C268.31 39.161 268.128 39.206 267.924 39.2486C267.721 39.2865 267.517 39.322 267.313 39.3551C267.11 39.3835 266.925 39.4096 266.759 39.4332C266.404 39.4853 266.094 39.5682 265.829 39.6818C265.564 39.7955 265.358 39.9493 265.211 40.1435C265.064 40.3329 264.991 40.5696 264.991 40.8537C264.991 41.2656 265.14 41.5805 265.438 41.7983C265.741 42.0114 266.125 42.1179 266.589 42.1179ZM275.779 29.4545V34.9801H273.62V29.4545H275.779ZM279.451 29.4545V34.9801H277.292V29.4545H279.451ZM290.412 29.1847V47.1605H284.808V44.8949H287.485V31.4432H284.808V29.1847H290.412Z" fill="black"/>
<path d="M326.116 45.7188V27.7429H331.72V30.0014H329.043V43.4531H331.72V45.7188H326.116ZM336.763 31.9901V29.4545H348.709V31.9901H344.256V44H341.216V31.9901H336.763ZM349.106 44V33.0909H352.04V34.9943H352.153C352.352 34.3172 352.686 33.8059 353.155 33.4602C353.623 33.1098 354.163 32.9347 354.774 32.9347C354.926 32.9347 355.089 32.9441 355.264 32.9631C355.439 32.982 355.593 33.008 355.726 33.0412V35.7259C355.584 35.6832 355.387 35.6454 355.136 35.6122C354.885 35.5791 354.656 35.5625 354.447 35.5625C354.002 35.5625 353.605 35.6596 353.254 35.8537C352.909 36.0431 352.634 36.3082 352.43 36.6491C352.231 36.9901 352.132 37.383 352.132 37.8281V44H349.106ZM363.906 39.3551V33.0909H366.931V44H364.027V42.0185H363.913C363.667 42.6577 363.257 43.1714 362.684 43.5597C362.116 43.9479 361.422 44.142 360.603 44.142C359.874 44.142 359.232 43.9763 358.679 43.6449C358.125 43.3134 357.691 42.8423 357.379 42.2315C357.071 41.6207 356.915 40.8892 356.91 40.0369V33.0909H359.936V39.4972C359.94 40.1411 360.113 40.6501 360.454 41.0241C360.795 41.3982 361.252 41.5852 361.825 41.5852C362.189 41.5852 362.53 41.5024 362.848 41.3366C363.165 41.1662 363.42 40.9152 363.615 40.5838C363.813 40.2524 363.911 39.8428 363.906 39.3551ZM373.943 44.2131C372.821 44.2131 371.855 43.9858 371.045 43.5312C370.24 43.072 369.62 42.4233 369.185 41.5852C368.749 40.7424 368.531 39.7457 368.531 38.5952C368.531 37.473 368.749 36.4882 369.185 35.6406C369.62 34.7931 370.233 34.1326 371.024 33.6591C371.819 33.1856 372.752 32.9489 373.822 32.9489C374.542 32.9489 375.212 33.0649 375.832 33.2969C376.457 33.5241 377.002 33.8674 377.466 34.3267C377.935 34.786 378.299 35.3636 378.56 36.0597C378.82 36.7509 378.95 37.5606 378.95 38.4886V39.3196H369.738V37.4446H376.102C376.102 37.009 376.007 36.6231 375.818 36.2869C375.629 35.9508 375.366 35.688 375.03 35.4986C374.698 35.3045 374.312 35.2074 373.872 35.2074C373.413 35.2074 373.006 35.3139 372.65 35.527C372.3 35.7353 372.025 36.017 371.827 36.3722C371.628 36.7225 371.526 37.1132 371.521 37.544V39.3267C371.521 39.8665 371.621 40.3329 371.819 40.7259C372.023 41.1188 372.31 41.4219 372.679 41.6349C373.048 41.848 373.486 41.9545 373.993 41.9545C374.329 41.9545 374.637 41.9072 374.916 41.8125C375.195 41.7178 375.435 41.5758 375.633 41.3864C375.832 41.197 375.984 40.965 376.088 40.6903L378.886 40.875C378.744 41.5473 378.453 42.1345 378.013 42.6364C377.577 43.1335 377.014 43.5218 376.322 43.8011C375.636 44.0758 374.843 44.2131 373.943 44.2131ZM389.651 29.1847V47.1605H384.048V44.8949H386.725V31.4432H384.048V29.1847H389.651Z" fill="black"/>
</svg>
