<svg width="441" height="89" viewBox="0 0 441 89" fill="none" xmlns="http://www.w3.org/2000/svg">
<rect width="13" height="63" rx="2" transform="matrix(-4.37114e-08 -1 -1 4.37114e-08 193 59)" fill="#E04343"/>
<path d="M213.375 53.8794C214.074 53.5013 214.074 52.4987 213.375 52.1206L192.476 40.8085C191.81 40.4479 191 40.9303 191 41.688L191 64.312C191 65.0697 191.81 65.5521 192.476 65.1915L213.375 53.8794Z" fill="#E04343"/>
<path d="M141.181 14.975C140.948 14.975 140.723 14.9167 140.506 14.8C140.29 14.6833 140.14 14.5083 140.056 14.275C139.89 13.825 139.706 13.5083 139.506 13.325C139.323 13.125 139.098 13.025 138.831 13.025C138.665 13.025 138.506 13.15 138.356 13.4C138.223 13.65 138.123 14.0417 138.056 14.575C137.94 15.675 137.881 16.5167 137.881 17.1C138.131 17.15 138.481 17.175 138.931 17.175C139.165 17.175 139.465 17.1583 139.831 17.125L140.506 17.1C140.806 17.1 141.04 17.1583 141.206 17.275C141.373 17.3917 141.456 17.5833 141.456 17.85C141.456 18.2333 141.34 18.55 141.106 18.8C140.873 19.05 140.598 19.175 140.281 19.175C139.081 19.175 138.273 19.2333 137.856 19.35C137.856 20.35 137.906 21.7833 138.006 23.65C138.006 23.9333 138.023 24.3417 138.056 24.875L138.156 26.8C138.19 27.2833 138.14 27.625 138.006 27.825C137.89 28.0083 137.631 28.1 137.231 28.1C136.498 28.1 136.023 27.6583 135.806 26.775C135.673 26.1417 135.565 25.2417 135.481 24.075C135.415 22.8917 135.381 21.85 135.381 20.95C135.381 20.4833 135.406 19.9417 135.456 19.325C135.423 19.3083 135.331 19.3 135.181 19.3C135.031 19.3 134.923 19.3083 134.856 19.325C134.356 19.3583 133.99 19.375 133.756 19.375C133.606 19.375 133.456 19.2667 133.306 19.05C133.156 18.8333 133.081 18.5833 133.081 18.3C133.081 18.1333 133.14 17.9833 133.256 17.85C133.373 17.7 133.515 17.5917 133.681 17.525C133.931 17.3917 134.29 17.325 134.756 17.325H135.506C135.506 14.9917 135.765 13.3667 136.281 12.45C136.781 11.5833 137.606 11.15 138.756 11.15C139.29 11.15 139.798 11.2583 140.281 11.475C140.781 11.6917 141.181 11.9917 141.481 12.375C141.798 12.7583 141.956 13.1917 141.956 13.675C141.956 14.1917 141.89 14.5417 141.756 14.725C141.623 14.8917 141.431 14.975 141.181 14.975ZM146.629 24.125C146.629 24.7583 146.721 25.25 146.904 25.6C147.104 25.9333 147.354 26.1 147.654 26.1C147.821 26.1 147.979 26.0917 148.129 26.075C148.279 26.0417 148.429 26.025 148.579 26.025C148.746 26.025 148.887 26.1083 149.004 26.275C149.137 26.4417 149.204 26.625 149.204 26.825C149.204 27.225 149.012 27.5417 148.629 27.775C148.262 27.9917 147.762 28.1 147.129 28.1C146.679 28.1 146.221 27.9667 145.754 27.7C145.304 27.4167 144.929 26.9833 144.629 26.4C144.329 25.8 144.179 25.0583 144.179 24.175C144.179 22.275 144.212 20.6667 144.279 19.35C144.362 17.7833 144.404 15.8083 144.404 13.425C144.404 12.675 144.446 12.15 144.529 11.85C144.629 11.6167 144.787 11.4417 145.004 11.325C145.237 11.1917 145.479 11.125 145.729 11.125C145.979 11.125 146.196 11.1667 146.379 11.25C146.579 11.3333 146.712 11.4667 146.779 11.65C146.846 11.85 146.887 12.05 146.904 12.25C146.937 12.4333 146.954 12.7 146.954 13.05C146.954 13.7333 146.929 14.3917 146.879 15.025C146.846 15.7917 146.829 16.35 146.829 16.7C146.696 19.6333 146.629 22.1083 146.629 24.125ZM162.784 26.8C162.784 27.1667 162.584 27.475 162.184 27.725C161.801 27.975 161.442 28.1 161.109 28.1C160.476 28.1 159.967 28.025 159.584 27.875C159.217 27.7083 158.876 27.4083 158.559 26.975C158.126 27.3583 157.534 27.65 156.784 27.85C156.034 28.0333 155.342 28.125 154.709 28.125C153.676 28.125 152.826 27.85 152.159 27.3C151.492 26.7333 151.159 25.9083 151.159 24.825C151.159 24.3583 151.284 23.9333 151.534 23.55C151.784 23.15 152.126 22.8 152.559 22.5C153.042 22.1833 153.592 21.9417 154.209 21.775C154.826 21.5917 155.467 21.5 156.134 21.5C156.484 21.5 156.901 21.5667 157.384 21.7C157.867 21.8333 158.242 21.975 158.509 22.125V21.725C158.509 20.825 158.292 20.2083 157.859 19.875C157.426 19.525 156.726 19.35 155.759 19.35C155.476 19.35 155.192 19.4083 154.909 19.525C154.642 19.6417 154.334 19.8 153.984 20C153.517 20.25 153.076 20.375 152.659 20.375C152.509 20.375 152.367 20.275 152.234 20.075C152.101 19.8583 152.034 19.6667 152.034 19.5C152.034 19.0167 152.259 18.6 152.709 18.25C153.176 17.9 153.726 17.6417 154.359 17.475C154.992 17.2917 155.559 17.2 156.059 17.2C156.559 17.2 157.134 17.3 157.784 17.5C158.434 17.6833 158.967 17.9417 159.384 18.275C159.884 18.7083 160.267 19.2167 160.534 19.8C160.817 20.3667 160.959 20.9917 160.959 21.675C160.959 21.8917 160.942 22.2167 160.909 22.65C160.876 23.1167 160.859 23.5167 160.859 23.85C160.859 24 160.842 24.225 160.809 24.525C160.776 24.8917 160.759 25.1833 160.759 25.4C160.759 25.6 160.834 25.775 160.984 25.925C161.134 26.0583 161.309 26.125 161.509 26.125L162.209 26.1C162.392 26.1 162.534 26.1667 162.634 26.3C162.734 26.4333 162.784 26.6 162.784 26.8ZM154.734 26.15C155.451 26.15 156.051 26.075 156.534 25.925C157.017 25.775 157.601 25.5 158.284 25.1C158.351 24.8167 158.392 24.4417 158.409 23.975C157.492 23.5417 156.734 23.325 156.134 23.325C155.451 23.325 154.842 23.45 154.309 23.7C153.776 23.95 153.509 24.3917 153.509 25.025C153.509 25.3417 153.642 25.6083 153.909 25.825C154.176 26.0417 154.451 26.15 154.734 26.15ZM177.171 14.775C177.171 15.425 177.113 16.25 176.996 17.25L179.571 17.225C179.854 17.225 180.096 17.3 180.296 17.45C180.513 17.5833 180.621 17.775 180.621 18.025C180.621 18.675 180.329 19.0583 179.746 19.175C179.529 19.225 178.529 19.275 176.746 19.325C176.679 20.2583 176.646 21.0083 176.646 21.575C176.646 22.775 176.721 23.7583 176.871 24.525C176.971 25.0583 177.138 25.45 177.371 25.7C177.621 25.9333 177.988 26.05 178.471 26.05C178.754 26.05 179.046 25.975 179.346 25.825C179.546 25.7083 179.729 25.65 179.896 25.65C180.129 25.65 180.296 25.725 180.396 25.875C180.513 26.025 180.571 26.225 180.571 26.475C180.571 26.9417 180.321 27.3333 179.821 27.65C179.321 27.95 178.679 28.1 177.896 28.1C177.413 28.1 176.921 27.9833 176.421 27.75C175.938 27.5167 175.529 27.225 175.196 26.875C175.146 26.825 175.054 26.6333 174.921 26.3C174.788 25.9667 174.671 25.6083 174.571 25.225C174.404 24.4417 174.321 23.3417 174.321 21.925C174.321 21.1417 174.363 20.275 174.446 19.325L168.446 19.425C168.396 20.075 168.371 20.7917 168.371 21.575C168.371 22.775 168.446 23.7583 168.596 24.525C168.696 25.0583 168.863 25.45 169.096 25.7C169.346 25.9333 169.713 26.05 170.196 26.05C170.479 26.05 170.771 25.975 171.071 25.825C171.271 25.7083 171.454 25.65 171.621 25.65C171.854 25.65 172.021 25.725 172.121 25.875C172.238 26.025 172.296 26.225 172.296 26.475C172.296 26.9417 172.046 27.3333 171.546 27.65C171.046 27.95 170.404 28.1 169.621 28.1C169.138 28.1 168.646 27.9833 168.146 27.75C167.663 27.5167 167.254 27.225 166.921 26.875C166.871 26.825 166.779 26.6333 166.646 26.3C166.513 25.9667 166.396 25.6083 166.296 25.225C166.129 24.4417 166.046 23.3417 166.046 21.925C166.046 21.3083 166.079 20.4833 166.146 19.45L164.946 19.35C164.713 19.3167 164.521 19.2167 164.371 19.05C164.238 18.8833 164.171 18.6833 164.171 18.45C164.171 18.3333 164.196 18.2083 164.246 18.075C164.313 17.9417 164.404 17.825 164.521 17.725C164.738 17.5083 165.321 17.4 166.271 17.4C166.404 16.75 166.471 16.0917 166.471 15.425C166.471 15.175 166.463 14.9583 166.446 14.775C166.429 14.5917 166.421 14.45 166.421 14.35C166.421 13.9833 166.554 13.7083 166.821 13.525C167.104 13.3417 167.421 13.25 167.771 13.25C168.204 13.25 168.496 13.3583 168.646 13.575C168.813 13.7917 168.896 14.1917 168.896 14.775C168.896 15.675 168.821 16.5417 168.671 17.375L169.721 17.35C172.121 17.3 173.771 17.2667 174.671 17.25C174.721 16.65 174.746 16.0417 174.746 15.425C174.746 15.175 174.738 14.9583 174.721 14.775C174.704 14.5917 174.696 14.45 174.696 14.35C174.696 13.9833 174.829 13.7083 175.096 13.525C175.379 13.3417 175.696 13.25 176.046 13.25C176.479 13.25 176.771 13.3583 176.921 13.575C177.088 13.7917 177.171 14.1917 177.171 14.775ZM182.994 22.275C182.994 21.2583 183.219 20.4167 183.669 19.75C184.119 19.0667 184.744 18.425 185.544 17.825C185.777 17.6583 186.169 17.5167 186.719 17.4C187.269 17.2667 187.752 17.2 188.169 17.2C188.669 17.2 189.194 17.3083 189.744 17.525C190.311 17.725 190.769 17.9583 191.119 18.225C191.736 18.675 192.161 19.2 192.394 19.8C192.627 20.3833 192.744 21.0833 192.744 21.9C192.744 22.25 192.544 22.5917 192.144 22.925C191.761 23.2417 191.344 23.4 190.894 23.4L189.944 23.375C189.461 23.375 188.769 23.3917 187.869 23.425L187.344 23.45C186.977 23.4833 186.702 23.5 186.519 23.5C186.252 23.5 185.886 23.4667 185.419 23.4C185.486 24.1833 185.777 24.8 186.294 25.25C186.811 25.6833 187.369 25.9 187.969 25.9C189.019 25.9 189.752 25.6917 190.169 25.275C190.519 25.025 190.752 24.8667 190.869 24.8C190.986 24.7333 191.169 24.7 191.419 24.7C191.686 24.7 191.919 24.825 192.119 25.075C192.319 25.325 192.419 25.575 192.419 25.825C192.419 26.1083 192.244 26.4 191.894 26.7C191.561 26.9833 191.102 27.2833 190.519 27.6C190.202 27.7333 189.769 27.85 189.219 27.95C188.669 28.05 188.211 28.1 187.844 28.1C187.261 28.1 186.611 27.9333 185.894 27.6C185.177 27.25 184.644 26.8667 184.294 26.45C183.944 26.0333 183.636 25.4417 183.369 24.675C183.119 23.9083 182.994 23.1083 182.994 22.275ZM187.969 21.6C189.152 21.6 190.019 21.5583 190.569 21.475C190.536 20.9917 190.386 20.6 190.119 20.3C189.852 19.9833 189.486 19.7167 189.019 19.5C188.869 19.4333 188.736 19.3833 188.619 19.35C188.502 19.3167 188.369 19.3 188.219 19.3C187.452 19.3 186.802 19.5083 186.269 19.925C185.752 20.3417 185.444 20.875 185.344 21.525C186.177 21.575 187.052 21.6 187.969 21.6ZM207.009 26.075C207.093 26.1083 207.226 26.15 207.409 26.2C207.593 26.25 207.726 26.3 207.809 26.35C207.893 26.4 207.934 26.475 207.934 26.575C207.951 26.975 207.801 27.3083 207.484 27.575C207.184 27.825 206.826 27.95 206.409 27.95C205.759 27.95 205.251 27.775 204.884 27.425C204.518 27.075 204.251 26.5417 204.084 25.825C204.018 25.5417 203.984 25.15 203.984 24.65C203.984 24.3667 204.001 23.9083 204.034 23.275C204.068 22.6083 204.084 22.075 204.084 21.675C204.084 20.9583 204.009 20.4167 203.859 20.05C203.709 19.6667 203.351 19.475 202.784 19.475C202.201 19.475 201.676 19.7083 201.209 20.175C200.759 20.6417 200.376 21.3417 200.059 22.275C199.626 23.575 199.384 25.3 199.334 27.45C199.334 27.5667 199.209 27.7083 198.959 27.875C198.726 28.025 198.443 28.1 198.109 28.1C197.493 28.1 197.109 27.775 196.959 27.125L196.934 26.7C196.934 26.55 196.951 26.375 196.984 26.175C197.184 25.0083 197.284 23.9917 197.284 23.125C197.284 22.7417 197.276 22.4417 197.259 22.225L197.234 21.05C197.234 20.65 197.134 20.2667 196.934 19.9C196.734 19.5167 196.501 19.325 196.234 19.325C196.151 19.325 196.034 19.3583 195.884 19.425C195.734 19.475 195.609 19.5 195.509 19.5C195.343 19.5 195.159 19.4167 194.959 19.25C194.776 19.0833 194.684 18.9083 194.684 18.725C194.684 18.375 194.801 18.0917 195.034 17.875C195.284 17.675 195.526 17.5167 195.759 17.4C196.009 17.2833 196.293 17.225 196.609 17.225C196.876 17.225 197.093 17.25 197.259 17.3C197.426 17.35 197.651 17.4583 197.934 17.625C198.101 17.7083 198.293 17.9417 198.509 18.325C198.726 18.7083 198.893 19.25 199.009 19.95C199.343 19.3333 199.901 18.6833 200.684 18C201.268 17.4667 202.109 17.2 203.209 17.2C204.209 17.2 205.001 17.5667 205.584 18.3C206.168 19.0167 206.459 20.0083 206.459 21.275C206.459 21.525 206.443 21.9333 206.409 22.5C206.359 22.95 206.334 23.425 206.334 23.925C206.334 25.0917 206.559 25.8083 207.009 26.075Z" fill="black"/>
<rect x="337.453" y="36.1855" width="34.3268" height="34.3268" rx="3.25" fill="#BCE5FF"/>
<rect x="337.453" y="36.1855" width="34.3268" height="34.3268" rx="3.25" stroke="white" stroke-width="1.5"/>
<rect x="337.453" y="36.1855" width="34.3268" height="34.3268" rx="3.25" stroke="#454545" stroke-opacity="0.42" stroke-width="1.5"/>
<rect x="371.688" y="36.1855" width="34.3268" height="34.3268" rx="3.25" fill="#BCE5FF"/>
<rect x="371.688" y="36.1855" width="34.3268" height="34.3268" rx="3.25" stroke="white" stroke-width="1.5"/>
<rect x="371.688" y="36.1855" width="34.3268" height="34.3268" rx="3.25" stroke="#454545" stroke-opacity="0.42" stroke-width="1.5"/>
<rect x="405.922" y="36.1855" width="34.3268" height="34.3268" rx="3.25" fill="#BCE5FF"/>
<rect x="405.922" y="36.1855" width="34.3268" height="34.3268" rx="3.25" stroke="white" stroke-width="1.5"/>
<rect x="405.922" y="36.1855" width="34.3268" height="34.3268" rx="3.25" stroke="#454545" stroke-opacity="0.42" stroke-width="1.5"/>
<path d="M356.726 47.4411V59.8047H354.486V49.6204H354.413L351.522 51.4677V49.4151L354.595 47.4411H356.726Z" fill="black"/>
<path d="M423.15 59.9737C422.281 59.9737 421.508 59.8248 420.832 59.527C420.16 59.2292 419.628 58.8146 419.238 58.2834C418.848 57.7521 418.64 57.1384 418.616 56.4421H420.886C420.906 56.7762 421.017 57.0679 421.218 57.3175C421.419 57.563 421.687 57.7541 422.021 57.891C422.355 58.0278 422.729 58.0962 423.144 58.0962C423.587 58.0962 423.979 58.0198 424.321 57.8668C424.663 57.7099 424.931 57.4925 425.124 57.2148C425.317 56.9371 425.412 56.6172 425.408 56.255C425.412 55.8807 425.315 55.5507 425.118 55.2649C424.921 54.9792 424.635 54.7558 424.261 54.5948C423.891 54.4338 423.444 54.3533 422.921 54.3533H421.828V52.6268H422.921C423.351 52.6268 423.728 52.5523 424.05 52.4034C424.376 52.2545 424.631 52.0452 424.816 51.7756C425.001 51.5019 425.092 51.186 425.088 50.8278C425.092 50.4776 425.013 50.1738 424.852 49.9162C424.695 49.6546 424.472 49.4513 424.182 49.3065C423.897 49.1616 423.561 49.0891 423.174 49.0891C422.796 49.0891 422.446 49.1576 422.124 49.2944C421.802 49.4312 421.542 49.6264 421.345 49.88C421.148 50.1295 421.043 50.4273 421.031 50.7734H418.876C418.892 50.0812 419.091 49.4735 419.474 48.9503C419.86 48.4231 420.375 48.0125 421.019 47.7188C421.663 47.4209 422.385 47.272 423.186 47.272C424.011 47.272 424.728 47.427 425.335 47.7369C425.947 48.0427 426.42 48.4553 426.754 48.9744C427.088 49.4936 427.255 50.0671 427.255 50.695C427.259 51.3912 427.054 51.9748 426.639 52.4457C426.229 52.9165 425.69 53.2244 425.021 53.3693V53.4659C425.891 53.5866 426.557 53.9086 427.02 54.4318C427.487 54.951 427.718 55.5969 427.714 56.3697C427.714 57.0619 427.517 57.6817 427.122 58.229C426.732 58.7724 426.193 59.199 425.504 59.5089C424.82 59.8188 424.035 59.9737 423.15 59.9737Z" fill="black"/>
<path d="M384.736 59.8047V58.1868L389.028 53.979C389.439 53.5645 389.781 53.1963 390.054 52.8743C390.328 52.5523 390.533 52.2404 390.67 51.9386C390.807 51.6367 390.875 51.3147 390.875 50.9727C390.875 50.5823 390.787 50.2482 390.61 49.9705C390.433 49.6888 390.189 49.4715 389.879 49.3185C389.569 49.1656 389.217 49.0891 388.823 49.0891C388.416 49.0891 388.06 49.1737 387.754 49.3427C387.448 49.5077 387.211 49.7431 387.042 50.049C386.877 50.3549 386.794 50.7191 386.794 51.1417H384.663C384.663 50.3569 384.842 49.6747 385.201 49.0952C385.559 48.5156 386.052 48.0669 386.68 47.7489C387.312 47.431 388.036 47.272 388.853 47.272C389.682 47.272 390.411 47.427 391.038 47.7369C391.666 48.0468 392.153 48.4714 392.499 49.0107C392.849 49.55 393.025 50.1657 393.025 50.858C393.025 51.3208 392.936 51.7756 392.759 52.2223C392.582 52.669 392.27 53.1641 391.823 53.7074C391.38 54.2507 390.759 54.9087 389.958 55.6815L387.827 57.8487V57.9332H393.212V59.8047H384.736Z" fill="black"/>
<rect x="234.75" y="36.1855" width="34.3268" height="34.3268" rx="3.25" fill="#F1F8FF"/>
<rect x="234.75" y="36.1855" width="34.3268" height="34.3268" rx="3.25" stroke="white" stroke-width="1.5"/>
<rect x="234.75" y="36.1855" width="34.3268" height="34.3268" rx="3.25" stroke="#454545" stroke-opacity="0.42" stroke-width="1.5"/>
<rect x="268.984" y="36.1855" width="34.3268" height="34.3268" rx="3.25" fill="#F1F8FF"/>
<rect x="268.984" y="36.1855" width="34.3268" height="34.3268" rx="3.25" stroke="white" stroke-width="1.5"/>
<rect x="268.984" y="36.1855" width="34.3268" height="34.3268" rx="3.25" stroke="#454545" stroke-opacity="0.42" stroke-width="1.5"/>
<rect x="303.219" y="36.1855" width="34.3268" height="34.3268" rx="3.25" fill="#F1F8FF"/>
<rect x="303.219" y="36.1855" width="34.3268" height="34.3268" rx="3.25" stroke="white" stroke-width="1.5"/>
<rect x="303.219" y="36.1855" width="34.3268" height="34.3268" rx="3.25" stroke="#454545" stroke-opacity="0.42" stroke-width="1.5"/>
<path d="M254.022 47.4411V59.8047H251.783V49.6204H251.71L248.819 51.4677V49.4151L251.891 47.4411H254.022Z" fill="black"/>
<path d="M320.447 59.9737C319.578 59.9737 318.805 59.8248 318.129 59.527C317.457 59.2292 316.925 58.8146 316.535 58.2834C316.145 57.7521 315.937 57.1384 315.913 56.4421H318.183C318.203 56.7762 318.314 57.0679 318.515 57.3175C318.716 57.563 318.984 57.7541 319.318 57.891C319.652 58.0278 320.026 58.0962 320.441 58.0962C320.884 58.0962 321.276 58.0198 321.618 57.8668C321.96 57.7099 322.228 57.4925 322.421 57.2148C322.614 56.9371 322.709 56.6172 322.705 56.255C322.709 55.8807 322.612 55.5507 322.415 55.2649C322.218 54.9792 321.932 54.7558 321.558 54.5948C321.187 54.4338 320.741 54.3533 320.218 54.3533H319.125V52.6268H320.218C320.648 52.6268 321.024 52.5523 321.346 52.4034C321.672 52.2545 321.928 52.0452 322.113 51.7756C322.298 51.5019 322.389 51.186 322.385 50.8278C322.389 50.4776 322.31 50.1738 322.149 49.9162C321.992 49.6546 321.769 49.4513 321.479 49.3065C321.193 49.1616 320.857 49.0891 320.471 49.0891C320.093 49.0891 319.743 49.1576 319.421 49.2944C319.099 49.4312 318.839 49.6264 318.642 49.88C318.445 50.1295 318.34 50.4273 318.328 50.7734H316.173C316.189 50.0812 316.388 49.4735 316.77 48.9503C317.157 48.4231 317.672 48.0125 318.316 47.7188C318.96 47.4209 319.682 47.272 320.483 47.272C321.308 47.272 322.025 47.427 322.632 47.7369C323.244 48.0427 323.717 48.4553 324.051 48.9744C324.385 49.4936 324.552 50.0671 324.552 50.695C324.556 51.3912 324.351 51.9748 323.936 52.4457C323.526 52.9165 322.986 53.2244 322.318 53.3693V53.4659C323.188 53.5866 323.854 53.9086 324.317 54.4318C324.783 54.951 325.015 55.5969 325.011 56.3697C325.011 57.0619 324.814 57.6817 324.419 58.229C324.029 58.7724 323.49 59.199 322.801 59.5089C322.117 59.8188 321.332 59.9737 320.447 59.9737Z" fill="black"/>
<path d="M282.033 59.8047V58.1868L286.325 53.979C286.735 53.5645 287.078 53.1963 287.351 52.8743C287.625 52.5523 287.83 52.2404 287.967 51.9386C288.104 51.6367 288.172 51.3147 288.172 50.9727C288.172 50.5823 288.084 50.2482 287.907 49.9705C287.73 49.6888 287.486 49.4715 287.176 49.3185C286.866 49.1656 286.514 49.0891 286.12 49.0891C285.713 49.0891 285.357 49.1737 285.051 49.3427C284.745 49.5077 284.508 49.7431 284.339 50.049C284.174 50.3549 284.091 50.7191 284.091 51.1417H281.96C281.96 50.3569 282.139 49.6747 282.498 49.0952C282.856 48.5156 283.349 48.0669 283.977 47.7489C284.608 47.431 285.333 47.272 286.15 47.272C286.979 47.272 287.707 47.427 288.335 47.7369C288.963 48.0468 289.45 48.4714 289.796 49.0107C290.146 49.55 290.321 50.1657 290.321 50.858C290.321 51.3208 290.233 51.7756 290.056 52.2223C289.879 52.669 289.567 53.1641 289.12 53.7074C288.677 54.2507 288.056 54.9087 287.255 55.6815L285.124 57.8487V57.9332H290.509V59.8047H282.033Z" fill="black"/>
<rect x="0.75" y="18.75" width="34.3268" height="34.3268" rx="3.25" fill="#F1F8FF"/>
<rect x="0.75" y="18.75" width="34.3268" height="34.3268" rx="3.25" stroke="white" stroke-width="1.5"/>
<rect x="0.75" y="18.75" width="34.3268" height="34.3268" rx="3.25" stroke="#454545" stroke-opacity="0.42" stroke-width="1.5"/>
<rect x="34.9844" y="18.75" width="34.3268" height="34.3268" rx="3.25" fill="#F1F8FF"/>
<rect x="34.9844" y="18.75" width="34.3268" height="34.3268" rx="3.25" stroke="white" stroke-width="1.5"/>
<rect x="34.9844" y="18.75" width="34.3268" height="34.3268" rx="3.25" stroke="#454545" stroke-opacity="0.42" stroke-width="1.5"/>
<rect x="69.2188" y="18.75" width="34.3268" height="34.3268" rx="3.25" fill="#F1F8FF"/>
<rect x="69.2188" y="18.75" width="34.3268" height="34.3268" rx="3.25" stroke="white" stroke-width="1.5"/>
<rect x="69.2188" y="18.75" width="34.3268" height="34.3268" rx="3.25" stroke="#454545" stroke-opacity="0.42" stroke-width="1.5"/>
<rect x="0.75" y="52.9844" width="34.3268" height="34.3268" rx="3.25" fill="#BCE5FF"/>
<rect x="0.75" y="52.9844" width="34.3268" height="34.3268" rx="3.25" stroke="white" stroke-width="1.5"/>
<rect x="0.75" y="52.9844" width="34.3268" height="34.3268" rx="3.25" stroke="#454545" stroke-opacity="0.42" stroke-width="1.5"/>
<rect x="34.9844" y="52.9844" width="34.3268" height="34.3268" rx="3.25" fill="#BCE5FF"/>
<rect x="34.9844" y="52.9844" width="34.3268" height="34.3268" rx="3.25" stroke="white" stroke-width="1.5"/>
<rect x="34.9844" y="52.9844" width="34.3268" height="34.3268" rx="3.25" stroke="#454545" stroke-opacity="0.42" stroke-width="1.5"/>
<rect x="69.2188" y="52.9844" width="34.3268" height="34.3268" rx="3.25" fill="#BCE5FF"/>
<rect x="69.2188" y="52.9844" width="34.3268" height="34.3268" rx="3.25" stroke="white" stroke-width="1.5"/>
<rect x="69.2188" y="52.9844" width="34.3268" height="34.3268" rx="3.25" stroke="#454545" stroke-opacity="0.42" stroke-width="1.5"/>
<path d="M20.0224 30.0055V42.3691H17.7827V32.1848H17.7103L14.8186 34.0321V31.9796L17.8914 30.0055H20.0224Z" fill="black"/>
<path d="M86.4469 42.5382C85.5776 42.5382 84.8049 42.3893 84.1287 42.0914C83.4566 41.7936 82.9254 41.3791 82.535 40.8478C82.1446 40.3166 81.9373 39.7028 81.9132 39.0066H84.1831C84.2032 39.3406 84.3139 39.6324 84.5151 39.8819C84.7163 40.1274 84.984 40.3186 85.318 40.4554C85.6521 40.5923 86.0263 40.6607 86.4409 40.6607C86.8836 40.6607 87.276 40.5842 87.6181 40.4313C87.9602 40.2743 88.2278 40.057 88.421 39.7793C88.6142 39.5016 88.7088 39.1816 88.7047 38.8194C88.7088 38.4451 88.6122 38.1151 88.415 37.8294C88.2177 37.5436 87.932 37.3203 87.5577 37.1593C87.1874 36.9983 86.7407 36.9178 86.2175 36.9178H85.1248V35.1912H86.2175C86.6481 35.1912 87.0244 35.1168 87.3464 34.9679C87.6724 34.819 87.928 34.6097 88.1131 34.34C88.2982 34.0663 88.3888 33.7504 88.3848 33.3922C88.3888 33.0421 88.3103 32.7382 88.1493 32.4806C87.9924 32.219 87.769 32.0158 87.4792 31.8709C87.1935 31.726 86.8574 31.6536 86.4711 31.6536C86.0927 31.6536 85.7426 31.722 85.4206 31.8588C85.0987 31.9957 84.8391 32.1909 84.6419 32.4444C84.4447 32.694 84.34 32.9918 84.328 33.3379H82.1728C82.1889 32.6457 82.3881 32.0379 82.7704 31.5147C83.1568 30.9875 83.6719 30.577 84.3159 30.2832C84.9598 29.9854 85.6822 29.8365 86.4831 29.8365C87.3082 29.8365 88.0246 29.9914 88.6323 30.3013C89.244 30.6072 89.7169 31.0197 90.051 31.5389C90.385 32.0581 90.552 32.6316 90.552 33.2594C90.5561 33.9557 90.3508 34.5392 89.9363 35.0101C89.5257 35.481 88.9865 35.7889 88.3184 35.9338V36.0304C89.1877 36.1511 89.8538 36.4731 90.3166 36.9963C90.7834 37.5154 91.0149 38.1614 91.0108 38.9341C91.0108 39.6264 90.8136 40.2462 90.4192 40.7935C90.0288 41.3368 89.4895 41.7634 88.8013 42.0733C88.1171 42.3832 87.3323 42.5382 86.4469 42.5382Z" fill="black"/>
<path d="M48.0327 42.3691V40.7512L52.325 36.5435C52.7355 36.129 53.0776 35.7607 53.3513 35.4387C53.6249 35.1168 53.8302 34.8049 53.967 34.503C54.1039 34.2012 54.1723 33.8792 54.1723 33.5371C54.1723 33.1467 54.0837 32.8127 53.9067 32.535C53.7296 32.2533 53.4861 32.0359 53.1762 31.883C52.8663 31.7301 52.5141 31.6536 52.1197 31.6536C51.7132 31.6536 51.3571 31.7381 51.0512 31.9071C50.7453 32.0721 50.5079 32.3076 50.3388 32.6135C50.1738 32.9193 50.0913 33.2836 50.0913 33.7061H47.9603C47.9603 32.9213 48.1394 32.2392 48.4976 31.6596C48.8558 31.0801 49.3488 30.6313 49.9766 30.3134C50.6085 29.9954 51.3329 29.8365 52.1499 29.8365C52.979 29.8365 53.7074 29.9914 54.3353 30.3013C54.9631 30.6112 55.4501 31.0358 55.7962 31.5751C56.1464 32.1144 56.3214 32.7302 56.3214 33.4224C56.3214 33.8852 56.2329 34.34 56.0558 34.7868C55.8787 35.2335 55.5668 35.7285 55.1201 36.2718C54.6774 36.8152 54.0556 37.4732 53.2547 38.2459L51.1236 40.4132V40.4977H56.5086V42.3691H48.0327Z" fill="black"/>
<path d="M20.0224 64.2404V76.604H17.7827V66.4197H17.7103L14.8186 68.267V66.2144L17.8914 64.2404H20.0224Z" fill="black"/>
<path d="M86.4469 76.773C85.5776 76.773 84.8049 76.6241 84.1287 76.3263C83.4566 76.0285 82.9254 75.6139 82.535 75.0827C82.1446 74.5514 81.9373 73.9377 81.9132 73.2414H84.1831C84.2032 73.5755 84.3139 73.8673 84.5151 74.1168C84.7163 74.3623 84.984 74.5535 85.318 74.6903C85.6521 74.8271 86.0263 74.8956 86.4409 74.8956C86.8836 74.8956 87.276 74.8191 87.6181 74.6661C87.9602 74.5092 88.2278 74.2919 88.421 74.0142C88.6142 73.7365 88.7088 73.4165 88.7047 73.0543C88.7088 72.68 88.6122 72.35 88.415 72.0642C88.2177 71.7785 87.932 71.5551 87.5577 71.3941C87.1874 71.2331 86.7407 71.1527 86.2175 71.1527H85.1248V69.4261H86.2175C86.6481 69.4261 87.0244 69.3516 87.3464 69.2027C87.6724 69.0538 87.928 68.8445 88.1131 68.5749C88.2982 68.3012 88.3888 67.9853 88.3848 67.6271C88.3888 67.2769 88.3103 66.9731 88.1493 66.7155C87.9924 66.4539 87.769 66.2507 87.4792 66.1058C87.1935 65.9609 86.8574 65.8884 86.4711 65.8884C86.0927 65.8884 85.7426 65.9569 85.4206 66.0937C85.0987 66.2305 84.8391 66.4257 84.6419 66.6793C84.4447 66.9288 84.34 67.2266 84.328 67.5728H82.1728C82.1889 66.8805 82.3881 66.2728 82.7704 65.7496C83.1568 65.2224 83.6719 64.8119 84.3159 64.5181C84.9598 64.2202 85.6822 64.0713 86.4831 64.0713C87.3082 64.0713 88.0246 64.2263 88.6323 64.5362C89.244 64.842 89.7169 65.2546 90.051 65.7737C90.385 66.2929 90.552 66.8664 90.552 67.4943C90.5561 68.1905 90.3508 68.7741 89.9363 69.245C89.5257 69.7159 88.9865 70.0237 88.3184 70.1686V70.2652C89.1877 70.386 89.8538 70.7079 90.3166 71.2311C90.7834 71.7503 91.0149 72.3963 91.0108 73.169C91.0108 73.8612 90.8136 74.481 90.4192 75.0284C90.0288 75.5717 89.4895 75.9983 88.8013 76.3082C88.1171 76.6181 87.3323 76.773 86.4469 76.773Z" fill="black"/>
<path d="M48.0327 76.604V74.9861L52.325 70.7784C52.7355 70.3638 53.0776 69.9956 53.3513 69.6736C53.6249 69.3516 53.8302 69.0397 53.967 68.7379C54.1039 68.436 54.1723 68.1141 54.1723 67.772C54.1723 67.3816 54.0837 67.0475 53.9067 66.7698C53.7296 66.4881 53.4861 66.2708 53.1762 66.1179C52.8663 65.9649 52.5141 65.8884 52.1197 65.8884C51.7132 65.8884 51.3571 65.973 51.0512 66.142C50.7453 66.307 50.5079 66.5425 50.3388 66.8483C50.1738 67.1542 50.0913 67.5184 50.0913 67.941H47.9603C47.9603 67.1562 48.1394 66.474 48.4976 65.8945C48.8558 65.3149 49.3488 64.8662 49.9766 64.5483C50.6085 64.2303 51.3329 64.0713 52.1499 64.0713C52.979 64.0713 53.7074 64.2263 54.3353 64.5362C54.9631 64.8461 55.4501 65.2707 55.7962 65.81C56.1464 66.3493 56.3214 66.965 56.3214 67.6573C56.3214 68.1201 56.2329 68.5749 56.0558 69.0216C55.8787 69.4684 55.5668 69.9634 55.1201 70.5067C54.6774 71.05 54.0556 71.7081 53.2547 72.4808L51.1236 74.648V74.7326H56.5086V76.604H48.0327Z" fill="black"/>
</svg>
