<svg width="437" height="226" viewBox="0 0 437 226" fill="none" xmlns="http://www.w3.org/2000/svg">
<rect x="201.824" y="106.432" width="23.8725" height="10.9416" rx="1" fill="#5C86DF"/>
<path d="M234.503 111.089C235.062 111.487 235.062 112.318 234.503 112.717L224.543 119.82C223.881 120.292 222.962 119.819 222.962 119.006L222.962 104.799C222.962 103.986 223.881 103.513 224.543 103.985L234.503 111.089Z" fill="#5C86DF"/>
<rect y="112.368" width="112.368" height="160.369" transform="rotate(-90 0 112.368)" fill="#E9E9E9"/>
<path d="M76.8641 66.7639C76.5694 66.3786 76.3201 65.9593 76.1161 65.5059C75.9121 65.0299 75.6968 64.4633 75.4701 63.8059C75.4248 63.6926 75.2888 63.3526 75.0621 62.7859C74.8581 62.2193 74.6201 61.7319 74.3481 61.3239C72.9201 61.5279 71.7528 61.6299 70.8461 61.6299C70.3474 61.6299 69.7921 61.6186 69.1801 61.5959C68.5908 61.5506 68.1488 61.5279 67.8541 61.5279C66.7208 61.4373 65.8141 61.3919 65.1341 61.3919C64.8621 61.7546 64.6241 62.1399 64.4201 62.5479C64.2388 62.9559 64.0008 63.5679 63.7061 64.3839C63.2981 65.5626 62.9468 66.4013 62.6521 66.8999C62.4481 67.2399 62.0514 67.4099 61.4621 67.4099C60.9634 67.4099 60.4988 67.3079 60.0681 67.1039C59.6601 66.8773 59.4561 66.5713 59.4561 66.1859C59.6374 65.3246 59.9208 64.4179 60.3061 63.4659C60.7141 62.4913 61.2921 61.1993 62.0401 59.5899L63.4001 56.2579C64.1481 54.3539 64.8281 52.7219 65.4401 51.3619C66.0748 50.0019 66.9021 48.3926 67.9221 46.5339C68.0581 46.2619 68.2848 46.0353 68.6021 45.8539C68.9194 45.6499 69.2708 45.5479 69.6561 45.5479C70.0868 45.5479 70.3928 45.5819 70.5741 45.6499C70.7781 45.6953 70.9368 45.7859 71.0501 45.9219C71.1634 46.0353 71.3334 46.2846 71.5601 46.6699C72.3308 47.8713 72.9881 49.1066 73.5321 50.3759C74.0988 51.6453 74.8128 53.4019 75.6741 55.6459L76.3881 57.4479C77.0228 59.0799 77.5668 60.4513 78.0201 61.5619C78.4961 62.6499 79.0174 63.6473 79.5841 64.5539C79.9468 65.1433 80.1281 65.5513 80.1281 65.7779C80.1281 66.3219 79.9581 66.7413 79.6181 67.0359C79.3008 67.3079 78.8814 67.4439 78.3601 67.4439C77.7028 67.4439 77.2041 67.2173 76.8641 66.7639ZM73.3621 58.5359C72.9994 57.7653 72.4781 56.4279 71.7981 54.5239C71.0954 52.4839 70.3928 50.8633 69.6901 49.6619C69.2594 50.7499 68.6248 52.1553 67.7861 53.8779C67.2194 54.9433 66.5734 56.4846 65.8481 58.5019C67.2988 58.6833 68.8628 58.7739 70.5401 58.7739C71.7414 58.7739 72.6821 58.6946 73.3621 58.5359ZM87.1202 49.4579C86.9615 50.0926 86.8595 50.9313 86.8142 51.9739C86.7688 52.8806 86.7008 53.5606 86.6102 54.0139C87.2675 53.7419 87.8908 53.5719 88.4802 53.5039C89.0695 53.4133 89.8175 53.3679 90.7242 53.3679C92.1295 53.3679 93.3535 53.6966 94.3962 54.3539C95.4388 54.9886 96.2322 55.8499 96.7762 56.9379C97.3202 58.0033 97.5922 59.1479 97.5922 60.3719C97.5922 60.8479 97.4335 61.4939 97.1162 62.3099C96.7988 63.1033 96.4702 63.7153 96.1302 64.1459C95.3368 65.1886 94.4188 65.9933 93.3762 66.5599C92.3335 67.1039 91.2002 67.3759 89.9762 67.3759C89.0468 67.3759 88.1968 67.2513 87.4262 67.0019C86.6782 66.7299 85.8735 66.3673 85.0122 65.9139C84.1282 65.4379 83.4822 64.9506 83.0742 64.4519C82.6888 63.9306 82.4962 63.2846 82.4962 62.5139C82.4962 62.1059 82.6662 61.7773 83.0062 61.5279C83.3688 61.2559 83.7088 61.1199 84.0262 61.1199C84.2302 61.1199 84.4115 61.1766 84.5702 61.2899C84.7288 61.4033 84.9895 61.6299 85.3522 61.9699L86.2022 62.7859C86.7462 63.2393 87.2788 63.5793 87.8002 63.8059C88.3442 64.0326 89.0015 64.1459 89.7722 64.1459C90.4748 64.1459 91.0415 64.0553 91.4722 63.8739C92.3335 63.5339 93.0022 63.0919 93.4782 62.5479C93.9768 62.0039 94.2262 61.1313 94.2262 59.9299C94.2262 58.7739 93.8408 57.8786 93.0702 57.2439C92.2995 56.5866 90.9962 56.2579 89.1602 56.2579C88.9108 56.2579 88.5482 56.3259 88.0722 56.4619C87.5962 56.5979 87.1315 56.7453 86.6782 56.9039C85.5902 57.2666 84.9215 57.4479 84.6722 57.4479C84.3548 57.4479 84.0375 57.3119 83.7202 57.0399C83.4028 56.7679 83.2442 56.4053 83.2442 55.9519C83.6522 53.2093 83.8562 50.9313 83.8562 49.1179L83.8222 48.2679C83.7768 47.8599 83.7542 47.5199 83.7542 47.2479C83.7542 46.8399 83.9695 46.5339 84.4002 46.3299C84.8535 46.1033 85.3182 45.9899 85.7942 45.9899C86.2022 45.9899 87.0862 46.0579 88.4462 46.1939L90.0782 46.3299C90.2822 46.3526 90.5882 46.3639 90.9962 46.3639L92.2542 46.3299C92.5035 46.3073 92.8662 46.2959 93.3422 46.2959C94.0222 46.2959 94.5888 46.3979 95.0422 46.6019C95.4955 46.8059 95.7222 47.1346 95.7222 47.5879C95.7222 48.2906 95.6088 48.8006 95.3822 49.1179C95.1555 49.4353 94.8948 49.5939 94.6002 49.5939C94.3282 49.5939 93.8748 49.5486 93.2402 49.4579C92.4015 49.3673 91.4155 49.3219 90.2822 49.3219C89.4888 49.3219 88.4348 49.3673 87.1202 49.4579Z" fill="black"/>
<rect y="224.735" width="112.368" height="160.369" transform="rotate(-90 0 224.735)" fill="#E9E9E9"/>
<path d="M76.8641 179.132C76.5694 178.746 76.3201 178.327 76.1161 177.874C75.9121 177.398 75.6968 176.831 75.4701 176.174C75.4248 176.06 75.2888 175.72 75.0621 175.154C74.8581 174.587 74.6201 174.1 74.3481 173.692C72.9201 173.896 71.7528 173.998 70.8461 173.998C70.3474 173.998 69.7921 173.986 69.1801 173.964C68.5908 173.918 68.1488 173.896 67.8541 173.896C66.7208 173.805 65.8141 173.76 65.1341 173.76C64.8621 174.122 64.6241 174.508 64.4201 174.916C64.2388 175.324 64.0008 175.936 63.7061 176.752C63.2981 177.93 62.9468 178.769 62.6521 179.268C62.4481 179.608 62.0514 179.778 61.4621 179.778C60.9634 179.778 60.4988 179.676 60.0681 179.472C59.6601 179.245 59.4561 178.939 59.4561 178.554C59.6374 177.692 59.9208 176.786 60.3061 175.834C60.7141 174.859 61.2921 173.567 62.0401 171.958L63.4001 168.626C64.1481 166.722 64.8281 165.09 65.4401 163.73C66.0748 162.37 66.9021 160.76 67.9221 158.902C68.0581 158.63 68.2848 158.403 68.6021 158.222C68.9194 158.018 69.2708 157.916 69.6561 157.916C70.0868 157.916 70.3928 157.95 70.5741 158.018C70.7781 158.063 70.9368 158.154 71.0501 158.29C71.1634 158.403 71.3334 158.652 71.5601 159.038C72.3308 160.239 72.9881 161.474 73.5321 162.744C74.0988 164.013 74.8128 165.77 75.6741 168.014L76.3881 169.816C77.0228 171.448 77.5668 172.819 78.0201 173.93C78.4961 175.018 79.0174 176.015 79.5841 176.922C79.9468 177.511 80.1281 177.919 80.1281 178.146C80.1281 178.69 79.9581 179.109 79.6181 179.404C79.3008 179.676 78.8814 179.812 78.3601 179.812C77.7028 179.812 77.2041 179.585 76.8641 179.132ZM73.3621 170.904C72.9994 170.133 72.4781 168.796 71.7981 166.892C71.0954 164.852 70.3928 163.231 69.6901 162.03C69.2594 163.118 68.6248 164.523 67.7861 166.246C67.2194 167.311 66.5734 168.852 65.8481 170.87C67.2988 171.051 68.8628 171.142 70.5401 171.142C71.7414 171.142 72.6821 171.062 73.3621 170.904ZM87.1202 161.826C86.9615 162.46 86.8595 163.299 86.8142 164.342C86.7688 165.248 86.7008 165.928 86.6102 166.382C87.2675 166.11 87.8908 165.94 88.4802 165.872C89.0695 165.781 89.8175 165.736 90.7242 165.736C92.1295 165.736 93.3535 166.064 94.3962 166.722C95.4388 167.356 96.2322 168.218 96.7762 169.306C97.3202 170.371 97.5922 171.516 97.5922 172.74C97.5922 173.216 97.4335 173.862 97.1162 174.678C96.7988 175.471 96.4702 176.083 96.1302 176.514C95.3368 177.556 94.4188 178.361 93.3762 178.928C92.3335 179.472 91.2002 179.744 89.9762 179.744C89.0468 179.744 88.1968 179.619 87.4262 179.37C86.6782 179.098 85.8735 178.735 85.0122 178.282C84.1282 177.806 83.4822 177.318 83.0742 176.82C82.6888 176.298 82.4962 175.652 82.4962 174.882C82.4962 174.474 82.6662 174.145 83.0062 173.896C83.3688 173.624 83.7088 173.488 84.0262 173.488C84.2302 173.488 84.4115 173.544 84.5702 173.658C84.7288 173.771 84.9895 173.998 85.3522 174.338L86.2022 175.154C86.7462 175.607 87.2788 175.947 87.8002 176.174C88.3442 176.4 89.0015 176.514 89.7722 176.514C90.4748 176.514 91.0415 176.423 91.4722 176.242C92.3335 175.902 93.0022 175.46 93.4782 174.916C93.9768 174.372 94.2262 173.499 94.2262 172.298C94.2262 171.142 93.8408 170.246 93.0702 169.612C92.2995 168.954 90.9962 168.626 89.1602 168.626C88.9108 168.626 88.5482 168.694 88.0722 168.83C87.5962 168.966 87.1315 169.113 86.6782 169.272C85.5902 169.634 84.9215 169.816 84.6722 169.816C84.3548 169.816 84.0375 169.68 83.7202 169.408C83.4028 169.136 83.2442 168.773 83.2442 168.32C83.6522 165.577 83.8562 163.299 83.8562 161.486L83.8222 160.636C83.7768 160.228 83.7542 159.888 83.7542 159.616C83.7542 159.208 83.9695 158.902 84.4002 158.698C84.8535 158.471 85.3182 158.358 85.7942 158.358C86.2022 158.358 87.0862 158.426 88.4462 158.562L90.0782 158.698C90.2822 158.72 90.5882 158.732 90.9962 158.732L92.2542 158.698C92.5035 158.675 92.8662 158.664 93.3422 158.664C94.0222 158.664 94.5888 158.766 95.0422 158.97C95.4955 159.174 95.7222 159.502 95.7222 159.956C95.7222 160.658 95.6088 161.168 95.3822 161.486C95.1555 161.803 94.8948 161.962 94.6002 161.962C94.3282 161.962 93.8748 161.916 93.2402 161.826C92.4015 161.735 91.4155 161.69 90.2822 161.69C89.4888 161.69 88.4348 161.735 87.1202 161.826Z" fill="black"/>
<rect x="436.379" width="225.826" height="160.369" transform="rotate(90 436.379 0)" fill="#E9E9E9"/>
<path d="M351.782 122.403C351.487 122.017 351.238 121.598 351.034 121.145C350.83 120.669 350.615 120.102 350.388 119.445C350.343 119.331 350.207 118.991 349.98 118.425C349.776 117.858 349.538 117.371 349.266 116.963C347.838 117.167 346.671 117.269 345.764 117.269C345.265 117.269 344.71 117.257 344.098 117.235C343.509 117.189 343.067 117.167 342.772 117.167C341.639 117.076 340.732 117.031 340.052 117.031C339.78 117.393 339.542 117.779 339.338 118.187C339.157 118.595 338.919 119.207 338.624 120.023C338.216 121.201 337.865 122.04 337.57 122.539C337.366 122.879 336.969 123.049 336.38 123.049C335.881 123.049 335.417 122.947 334.986 122.743C334.578 122.516 334.374 122.21 334.374 121.825C334.555 120.963 334.839 120.057 335.224 119.105C335.632 118.13 336.21 116.838 336.958 115.229L338.318 111.897C339.066 109.993 339.746 108.361 340.358 107.001C340.993 105.641 341.82 104.031 342.84 102.173C342.976 101.901 343.203 101.674 343.52 101.493C343.837 101.289 344.189 101.187 344.574 101.187C345.005 101.187 345.311 101.221 345.492 101.289C345.696 101.334 345.855 101.425 345.968 101.561C346.081 101.674 346.251 101.923 346.478 102.309C347.249 103.51 347.906 104.745 348.45 106.015C349.017 107.284 349.731 109.041 350.592 111.285L351.306 113.087C351.941 114.719 352.485 116.09 352.938 117.201C353.414 118.289 353.935 119.286 354.502 120.193C354.865 120.782 355.046 121.19 355.046 121.417C355.046 121.961 354.876 122.38 354.536 122.675C354.219 122.947 353.799 123.083 353.278 123.083C352.621 123.083 352.122 122.856 351.782 122.403ZM348.28 114.175C347.917 113.404 347.396 112.067 346.716 110.163C346.013 108.123 345.311 106.502 344.608 105.301C344.177 106.389 343.543 107.794 342.704 109.517C342.137 110.582 341.491 112.123 340.766 114.141C342.217 114.322 343.781 114.413 345.458 114.413C346.659 114.413 347.6 114.333 348.28 114.175ZM363.602 102.513C363.602 103.623 363.398 104.915 362.99 106.389C362.605 107.839 362.038 109.63 361.29 111.761L360.508 114.107C360.893 114.175 361.29 114.209 361.698 114.209C362.401 114.209 363.455 114.141 364.86 114.005C366.265 113.869 367.274 113.801 367.886 113.801L367.852 110.061C367.807 107.477 367.784 105.573 367.784 104.349C367.784 102.739 368.317 101.935 369.382 101.935C370.221 101.935 370.753 102.15 370.98 102.581C371.229 103.011 371.354 103.657 371.354 104.519C371.354 105.403 371.286 106.774 371.15 108.633C371.127 108.995 371.093 109.596 371.048 110.435C371.003 111.273 370.98 111.999 370.98 112.611L371.014 113.699L371.694 113.665C372.238 113.619 372.657 113.597 372.952 113.597C373.496 113.597 374.017 113.778 374.516 114.141C375.015 114.481 375.264 114.889 375.264 115.365C375.264 115.931 375.173 116.373 374.992 116.691C374.833 117.008 374.641 117.167 374.414 117.167C374.029 117.167 373.541 117.121 372.952 117.031C372.816 117.031 372.612 117.019 372.34 116.997C372.068 116.951 371.807 116.929 371.558 116.929L370.98 116.963L371.014 121.553C371.014 122.029 370.855 122.391 370.538 122.641C370.221 122.89 369.858 123.015 369.45 123.015C368.951 123.015 368.509 122.856 368.124 122.539C367.739 122.221 367.546 121.825 367.546 121.349C367.546 119.83 367.569 118.64 367.614 117.779C367.637 117.575 367.648 117.325 367.648 117.031C366.968 117.008 365.789 117.087 364.112 117.269C362.525 117.45 361.324 117.541 360.508 117.541C359.465 117.541 358.581 117.393 357.856 117.099C357.153 116.804 356.802 116.339 356.802 115.705C356.802 115.093 356.927 114.345 357.176 113.461C357.425 112.577 357.799 111.387 358.298 109.891C358.525 109.301 358.695 108.814 358.808 108.429C359.216 107.273 359.522 106.298 359.726 105.505C359.93 104.689 360.157 103.703 360.406 102.547C360.497 102.184 360.689 101.912 360.984 101.731C361.279 101.549 361.619 101.459 362.004 101.459C362.412 101.459 362.775 101.561 363.092 101.765C363.432 101.946 363.602 102.195 363.602 102.513Z" fill="black"/>
<line y1="112.118" x2="160.369" y2="112.118" stroke="#A2A2A2" stroke-width="0.5"/>
</svg>
