<svg width="142" height="90" viewBox="0 0 142 90" fill="none" xmlns="http://www.w3.org/2000/svg">
<path d="M15.0344 8.69318V15H12.0089V4.09091H14.8924V6.01562H15.0202C15.2617 5.38116 15.6665 4.87926 16.2347 4.50994C16.8029 4.13589 17.4918 3.94886 18.3015 3.94886C19.0591 3.94886 19.7196 4.11458 20.283 4.44602C20.8465 4.77746 21.2844 5.25095 21.5969 5.86648C21.9094 6.47727 22.0657 7.20644 22.0657 8.05398V15H19.0401V8.59375C19.0449 7.92614 18.8744 7.4053 18.5288 7.03125C18.1831 6.65246 17.7073 6.46307 17.1012 6.46307C16.694 6.46307 16.3342 6.55066 16.0217 6.72585C15.7139 6.90104 15.4724 7.15672 15.2972 7.4929C15.1268 7.82434 15.0392 8.22443 15.0344 8.69318ZM24.0703 19.0909V4.09091H27.0532V5.9233H27.1882C27.3207 5.62973 27.5125 5.33144 27.7635 5.02841C28.0191 4.72064 28.3506 4.46496 28.7578 4.26136C29.1697 4.05303 29.6811 3.94886 30.2919 3.94886C31.0873 3.94886 31.8212 4.1572 32.4936 4.57386C33.1659 4.9858 33.7033 5.60843 34.1058 6.44176C34.5082 7.27036 34.7095 8.30966 34.7095 9.55966C34.7095 10.7765 34.513 11.804 34.12 12.642C33.7317 13.4754 33.2014 14.1075 32.5291 14.5384C31.8615 14.9645 31.1134 15.1776 30.2848 15.1776C29.6976 15.1776 29.1981 15.0805 28.7862 14.8864C28.379 14.6922 28.0452 14.4484 27.7848 14.1548C27.5243 13.8565 27.3255 13.5559 27.1882 13.2528H27.0958V19.0909H24.0703ZM27.0319 9.54545C27.0319 10.1941 27.1219 10.7599 27.3018 11.2429C27.4817 11.7259 27.7421 12.1023 28.0831 12.3722C28.424 12.6373 28.8383 12.7699 29.326 12.7699C29.8184 12.7699 30.235 12.6349 30.576 12.3651C30.9169 12.0904 31.1749 11.7116 31.3501 11.2287C31.53 10.741 31.62 10.1799 31.62 9.54545C31.62 8.91572 31.5324 8.36174 31.3572 7.88352C31.182 7.4053 30.924 7.03125 30.5831 6.76136C30.2421 6.49148 29.8231 6.35653 29.326 6.35653C28.8335 6.35653 28.4169 6.48674 28.076 6.74716C27.7398 7.00758 27.4817 7.37689 27.3018 7.85511C27.1219 8.33333 27.0319 8.89678 27.0319 9.54545ZM38.115 15.1847C37.6462 15.1847 37.2438 15.0189 36.9076 14.6875C36.5762 14.3513 36.4105 13.9489 36.4105 13.4801C36.4105 13.0161 36.5762 12.6184 36.9076 12.2869C37.2438 11.9555 37.6462 11.7898 38.115 11.7898C38.5695 11.7898 38.9673 11.9555 39.3082 12.2869C39.6491 12.6184 39.8195 13.0161 39.8195 13.4801C39.8195 13.7926 39.7391 14.0791 39.5781 14.3395C39.4218 14.5952 39.2158 14.8011 38.9602 14.9574C38.7045 15.1089 38.4228 15.1847 38.115 15.1847ZM44.9491 0.454545V15H41.9236V0.454545H44.9491ZM51.9217 15.2131C50.8185 15.2131 49.8645 14.9787 49.0595 14.5099C48.2593 14.0365 47.6414 13.3783 47.2058 12.5355C46.7702 11.688 46.5524 10.7055 46.5524 9.58807C46.5524 8.46117 46.7702 7.47633 47.2058 6.63352C47.6414 5.78598 48.2593 5.12784 49.0595 4.65909C49.8645 4.18561 50.8185 3.94886 51.9217 3.94886C53.025 3.94886 53.9767 4.18561 54.7769 4.65909C55.5818 5.12784 56.2021 5.78598 56.6377 6.63352C57.0733 7.47633 57.2911 8.46117 57.2911 9.58807C57.2911 10.7055 57.0733 11.688 56.6377 12.5355C56.2021 13.3783 55.5818 14.0365 54.7769 14.5099C53.9767 14.9787 53.025 15.2131 51.9217 15.2131ZM51.936 12.8693C52.4378 12.8693 52.8569 12.7273 53.1931 12.4432C53.5292 12.1544 53.7825 11.7614 53.953 11.2642C54.1282 10.767 54.2158 10.2012 54.2158 9.56676C54.2158 8.93229 54.1282 8.36648 53.953 7.86932C53.7825 7.37216 53.5292 6.97917 53.1931 6.69034C52.8569 6.40151 52.4378 6.2571 51.936 6.2571C51.4293 6.2571 51.0032 6.40151 50.6575 6.69034C50.3166 6.97917 50.0586 7.37216 49.8834 7.86932C49.7129 8.36648 49.6277 8.93229 49.6277 9.56676C49.6277 10.2012 49.7129 10.767 49.8834 11.2642C50.0586 11.7614 50.3166 12.1544 50.6575 12.4432C51.0032 12.7273 51.4293 12.8693 51.936 12.8693ZM63.7932 19.3182C62.8131 19.3182 61.9726 19.1832 61.2719 18.9134C60.5759 18.6482 60.0219 18.286 59.6099 17.8267C59.198 17.3674 58.9305 16.8513 58.8074 16.2784L61.6057 15.902C61.6909 16.1198 61.8259 16.3234 62.0105 16.5128C62.1952 16.7022 62.439 16.8537 62.742 16.9673C63.0498 17.0857 63.4239 17.1449 63.8642 17.1449C64.5223 17.1449 65.0645 16.9839 65.4906 16.6619C65.9215 16.3447 66.1369 15.812 66.1369 15.0639V13.0682H66.0091C65.8765 13.3712 65.6776 13.6577 65.4125 13.9276C65.1473 14.1974 64.8064 14.4176 64.3898 14.5881C63.9731 14.7585 63.4759 14.8438 62.8983 14.8438C62.0792 14.8438 61.3334 14.6544 60.6611 14.2756C59.9935 13.892 59.4608 13.3073 59.0631 12.5213C58.6701 11.7306 58.4736 10.7315 58.4736 9.52415C58.4736 8.28835 58.6748 7.25616 59.0773 6.42756C59.4797 5.59896 60.0148 4.97869 60.6824 4.56676C61.3547 4.15483 62.091 3.94886 62.8912 3.94886C63.502 3.94886 64.0134 4.05303 64.4253 4.26136C64.8372 4.46496 65.1687 4.72064 65.4196 5.02841C65.6753 5.33144 65.8718 5.62973 66.0091 5.9233H66.1227V4.09091H69.127V15.1065C69.127 16.0346 68.8997 16.8111 68.4452 17.4361C67.9906 18.0611 67.3609 18.5298 66.556 18.8423C65.7558 19.1596 64.8348 19.3182 63.7932 19.3182ZM63.8571 12.571C64.3448 12.571 64.7567 12.4503 65.0929 12.2088C65.4338 11.9626 65.6942 11.6122 65.8741 11.1577C66.0588 10.6984 66.1511 10.1491 66.1511 9.50994C66.1511 8.87074 66.0612 8.31676 65.8812 7.84801C65.7013 7.37453 65.4409 7.00758 65.1 6.74716C64.7591 6.48674 64.3448 6.35653 63.8571 6.35653C63.3599 6.35653 62.9409 6.49148 62.6 6.76136C62.2591 7.02651 62.001 7.39583 61.8259 7.86932C61.6507 8.3428 61.5631 8.88968 61.5631 9.50994C61.5631 10.1397 61.6507 10.6842 61.8259 11.1435C62.0058 11.598 62.2638 11.9508 62.6 12.2017C62.9409 12.4479 63.3599 12.571 63.8571 12.571ZM71.8223 9.16903C71.8223 7.40767 72.0566 5.78598 72.5254 4.30398C72.9989 2.82197 73.7209 1.44886 74.6916 0.184659H77.5822C77.2129 0.653409 76.8696 1.22633 76.5524 1.90341C76.2351 2.57576 75.9582 3.31439 75.7214 4.11932C75.4847 4.92424 75.3 5.75758 75.1674 6.61932C75.0349 7.47633 74.9686 8.32623 74.9686 9.16903C74.9686 10.2912 75.0822 11.4252 75.3095 12.571C75.5415 13.7121 75.854 14.7727 76.247 15.7528C76.6447 16.733 77.0898 17.5355 77.5822 18.1605H74.6916C73.7209 16.8963 72.9989 15.5232 72.5254 14.0412C72.0566 12.5592 71.8223 10.9351 71.8223 9.16903ZM82.4952 15.2557C81.8039 15.2557 81.1765 15.1255 80.6131 14.8651C80.0496 14.5999 79.6022 14.2188 79.2707 13.7216C78.9393 13.2197 78.7736 12.6136 78.7736 11.9034C78.7736 11.2784 78.8967 10.7718 79.1429 10.3835C79.3891 9.99053 79.7182 9.68276 80.1301 9.46023C80.542 9.23769 80.9966 9.07197 81.4938 8.96307C81.9956 8.84943 82.4999 8.75947 83.0065 8.69318C83.6694 8.60795 84.2068 8.54403 84.6188 8.50142C85.0354 8.45407 85.3384 8.37595 85.5278 8.26705C85.722 8.15814 85.819 7.96875 85.819 7.69886V7.64205C85.819 6.94129 85.6273 6.39678 85.2438 6.00852C84.865 5.62027 84.2897 5.42614 83.5179 5.42614C82.7177 5.42614 82.0903 5.60133 81.6358 5.9517C81.1813 6.30208 80.8617 6.67614 80.677 7.07386L79.0861 6.50568C79.3702 5.8428 79.749 5.3267 80.2224 4.95739C80.7007 4.58333 81.2215 4.32292 81.7849 4.17614C82.3531 4.02462 82.9118 3.94886 83.4611 3.94886C83.8115 3.94886 84.2139 3.99148 84.6685 4.0767C85.1277 4.1572 85.5705 4.32528 85.9966 4.58097C86.4275 4.83665 86.7849 5.22254 87.069 5.73864C87.3531 6.25473 87.4952 6.94602 87.4952 7.8125V15H85.819V13.5227H85.7338C85.6202 13.7595 85.4308 14.0128 85.1656 14.2827C84.9005 14.5526 84.5477 14.7822 84.1074 14.9716C83.667 15.161 83.1296 15.2557 82.4952 15.2557ZM82.7509 13.75C83.4137 13.75 83.9724 13.6198 84.427 13.3594C84.8863 13.099 85.2319 12.7628 85.4639 12.3509C85.7007 11.9389 85.819 11.5057 85.819 11.0511V9.51705C85.748 9.60227 85.5918 9.6804 85.3503 9.75142C85.1135 9.81771 84.8389 9.87689 84.5264 9.92898C84.2187 9.97633 83.918 10.0189 83.6244 10.0568C83.3356 10.09 83.1012 10.1184 82.9213 10.142C82.4857 10.1989 82.0785 10.2912 81.6997 10.419C81.3257 10.5421 81.0226 10.7292 80.7906 10.9801C80.5634 11.2263 80.4497 11.5625 80.4497 11.9886C80.4497 12.571 80.6652 13.0114 81.096 13.3097C81.5316 13.6032 82.0832 13.75 82.7509 13.75ZM90.1745 15V4.09091H91.7938V5.73864H91.9074C92.1063 5.19886 92.4661 4.76089 92.987 4.42472C93.5078 4.08854 94.0949 3.92045 94.7483 3.92045C94.8714 3.92045 95.0253 3.92282 95.21 3.92756C95.3946 3.93229 95.5343 3.93939 95.629 3.94886V5.65341C95.5722 5.6392 95.442 5.6179 95.2384 5.58949C95.0395 5.55634 94.8288 5.53977 94.6063 5.53977C94.076 5.53977 93.6025 5.65104 93.1858 5.87358C92.7739 6.09138 92.4472 6.39441 92.2057 6.78267C91.969 7.16619 91.8506 7.60417 91.8506 8.09659V15H90.1745ZM97.2359 15V4.09091H98.8552V5.73864H98.9688C99.1677 5.19886 99.5276 4.76089 100.048 4.42472C100.569 4.08854 101.156 3.92045 101.81 3.92045C101.933 3.92045 102.087 3.92282 102.271 3.92756C102.456 3.93229 102.596 3.93939 102.69 3.94886V5.65341C102.634 5.6392 102.503 5.6179 102.3 5.58949C102.101 5.55634 101.89 5.53977 101.668 5.53977C101.137 5.53977 100.664 5.65104 100.247 5.87358C99.8353 6.09138 99.5086 6.39441 99.2671 6.78267C99.0304 7.16619 98.912 7.60417 98.912 8.09659V15H97.2359ZM107.508 15.2557C106.816 15.2557 106.189 15.1255 105.625 14.8651C105.062 14.5999 104.615 14.2188 104.283 13.7216C103.952 13.2197 103.786 12.6136 103.786 11.9034C103.786 11.2784 103.909 10.7718 104.155 10.3835C104.401 9.99053 104.731 9.68276 105.142 9.46023C105.554 9.23769 106.009 9.07197 106.506 8.96307C107.008 8.84943 107.512 8.75947 108.019 8.69318C108.682 8.60795 109.219 8.54403 109.631 8.50142C110.048 8.45407 110.351 8.37595 110.54 8.26705C110.734 8.15814 110.831 7.96875 110.831 7.69886V7.64205C110.831 6.94129 110.64 6.39678 110.256 6.00852C109.877 5.62027 109.302 5.42614 108.53 5.42614C107.73 5.42614 107.103 5.60133 106.648 5.9517C106.194 6.30208 105.874 6.67614 105.689 7.07386L104.098 6.50568C104.383 5.8428 104.761 5.3267 105.235 4.95739C105.713 4.58333 106.234 4.32292 106.797 4.17614C107.365 4.02462 107.924 3.94886 108.473 3.94886C108.824 3.94886 109.226 3.99148 109.681 4.0767C110.14 4.1572 110.583 4.32528 111.009 4.58097C111.44 4.83665 111.797 5.22254 112.081 5.73864C112.365 6.25473 112.508 6.94602 112.508 7.8125V15H110.831V13.5227H110.746C110.633 13.7595 110.443 14.0128 110.178 14.2827C109.913 14.5526 109.56 14.7822 109.12 14.9716C108.679 15.161 108.142 15.2557 107.508 15.2557ZM107.763 13.75C108.426 13.75 108.985 13.6198 109.439 13.3594C109.899 13.099 110.244 12.7628 110.476 12.3509C110.713 11.9389 110.831 11.5057 110.831 11.0511V9.51705C110.76 9.60227 110.604 9.6804 110.363 9.75142C110.126 9.81771 109.851 9.87689 109.539 9.92898C109.231 9.97633 108.93 10.0189 108.637 10.0568C108.348 10.09 108.114 10.1184 107.934 10.142C107.498 10.1989 107.091 10.2912 106.712 10.419C106.338 10.5421 106.035 10.7292 105.803 10.9801C105.576 11.2263 105.462 11.5625 105.462 11.9886C105.462 12.571 105.677 13.0114 106.108 13.3097C106.544 13.6032 107.096 13.75 107.763 13.75ZM115.876 19.0909C115.592 19.0909 115.338 19.0672 115.116 19.0199C114.893 18.9773 114.739 18.9347 114.654 18.892L115.08 17.4148C115.487 17.5189 115.847 17.5568 116.16 17.5284C116.472 17.5 116.749 17.3603 116.991 17.1094C117.237 16.8632 117.462 16.4631 117.666 15.9091L117.978 15.0568L113.944 4.09091H115.762L118.773 12.7841H118.887L121.898 4.09091H123.717L119.086 16.5909C118.878 17.1544 118.62 17.6207 118.312 17.9901C118.004 18.3641 117.647 18.6411 117.239 18.821C116.837 19.0009 116.382 19.0909 115.876 19.0909ZM130.322 9.16903C130.322 10.9351 130.085 12.5592 129.612 14.0412C129.143 15.5232 128.423 16.8963 127.452 18.1605H124.562C124.931 17.6918 125.274 17.1188 125.592 16.4418C125.909 15.7647 126.186 15.026 126.423 14.2259C126.659 13.4209 126.844 12.5876 126.977 11.7259C127.109 10.8641 127.175 10.0118 127.175 9.16903C127.175 8.04687 127.059 6.91525 126.827 5.77415C126.6 4.62831 126.288 3.56771 125.89 2.59233C125.497 1.61222 125.054 0.809659 124.562 0.184659H127.452C128.423 1.44886 129.143 2.82197 129.612 4.30398C130.085 5.78598 130.322 7.40767 130.322 9.16903ZM8.92561 43.6932V50H5.90004V39.0909H8.78357V41.0156H8.91141C9.15288 40.3812 9.55771 39.8793 10.1259 39.5099C10.6941 39.1359 11.383 38.9489 12.1927 38.9489C12.9502 38.9489 13.6107 39.1146 14.1742 39.446C14.7376 39.7775 15.1756 40.2509 15.4881 40.8665C15.8006 41.4773 15.9569 42.2064 15.9569 43.054V50H12.9313V43.5938C12.936 42.9261 12.7656 42.4053 12.4199 42.0312C12.0743 41.6525 11.5984 41.4631 10.9924 41.4631C10.5852 41.4631 10.2253 41.5507 9.91283 41.7259C9.60506 41.901 9.36359 42.1567 9.1884 42.4929C9.01794 42.8243 8.93035 43.2244 8.92561 43.6932ZM17.9614 54.0909V39.0909H20.9444V40.9233H21.0793C21.2119 40.6297 21.4037 40.3314 21.6546 40.0284C21.9103 39.7206 22.2417 39.465 22.6489 39.2614C23.0609 39.053 23.5722 38.9489 24.183 38.9489C24.9785 38.9489 25.7124 39.1572 26.3847 39.5739C27.0571 39.9858 27.5945 40.6084 27.997 41.4418C28.3994 42.2704 28.6007 43.3097 28.6007 44.5597C28.6007 45.7765 28.4042 46.804 28.0112 47.642C27.6229 48.4754 27.0926 49.1075 26.4203 49.5384C25.7526 49.9645 25.0045 50.1776 24.1759 50.1776C23.5888 50.1776 23.0893 50.0805 22.6774 49.8864C22.2702 49.6922 21.9364 49.4484 21.6759 49.1548C21.4155 48.8565 21.2167 48.5559 21.0793 48.2528H20.987V54.0909H17.9614ZM20.9231 44.5455C20.9231 45.1941 21.0131 45.7599 21.193 46.2429C21.3729 46.7259 21.6333 47.1023 21.9742 47.3722C22.3151 47.6373 22.7294 47.7699 23.2171 47.7699C23.7096 47.7699 24.1262 47.6349 24.4671 47.3651C24.808 47.0904 25.0661 46.7116 25.2413 46.2287C25.4212 45.741 25.5112 45.1799 25.5112 44.5455C25.5112 43.9157 25.4236 43.3617 25.2484 42.8835C25.0732 42.4053 24.8151 42.0312 24.4742 41.7614C24.1333 41.4915 23.7143 41.3565 23.2171 41.3565C22.7247 41.3565 22.308 41.4867 21.9671 41.7472C21.631 42.0076 21.3729 42.3769 21.193 42.8551C21.0131 43.3333 20.9231 43.8968 20.9231 44.5455ZM32.0062 50.1847C31.5374 50.1847 31.135 50.0189 30.7988 49.6875C30.4673 49.3513 30.3016 48.9489 30.3016 48.4801C30.3016 48.0161 30.4673 47.6184 30.7988 47.2869C31.135 46.9555 31.5374 46.7898 32.0062 46.7898C32.4607 46.7898 32.8584 46.9555 33.1994 47.2869C33.5403 47.6184 33.7107 48.0161 33.7107 48.4801C33.7107 48.7926 33.6302 49.0791 33.4692 49.3395C33.313 49.5952 33.107 49.8011 32.8513 49.9574C32.5957 50.1089 32.3139 50.1847 32.0062 50.1847ZM38.8403 35.4545V50H35.8147V35.4545H38.8403ZM45.8129 50.2131C44.7097 50.2131 43.7556 49.9787 42.9507 49.5099C42.1505 49.0365 41.5326 48.3783 41.097 47.5355C40.6614 46.688 40.4436 45.7055 40.4436 44.5881C40.4436 43.4612 40.6614 42.4763 41.097 41.6335C41.5326 40.786 42.1505 40.1278 42.9507 39.6591C43.7556 39.1856 44.7097 38.9489 45.8129 38.9489C46.9161 38.9489 47.8678 39.1856 48.668 39.6591C49.473 40.1278 50.0932 40.786 50.5288 41.6335C50.9644 42.4763 51.1822 43.4612 51.1822 44.5881C51.1822 45.7055 50.9644 46.688 50.5288 47.5355C50.0932 48.3783 49.473 49.0365 48.668 49.5099C47.8678 49.9787 46.9161 50.2131 45.8129 50.2131ZM45.8271 47.8693C46.329 47.8693 46.7481 47.7273 47.0842 47.4432C47.4204 47.1544 47.6737 46.7614 47.8442 46.2642C48.0194 45.767 48.107 45.2012 48.107 44.5668C48.107 43.9323 48.0194 43.3665 47.8442 42.8693C47.6737 42.3722 47.4204 41.9792 47.0842 41.6903C46.7481 41.4015 46.329 41.2571 45.8271 41.2571C45.3205 41.2571 44.8944 41.4015 44.5487 41.6903C44.2078 41.9792 43.9498 42.3722 43.7746 42.8693C43.6041 43.3665 43.5189 43.9323 43.5189 44.5668C43.5189 45.2012 43.6041 45.767 43.7746 46.2642C43.9498 46.7614 44.2078 47.1544 44.5487 47.4432C44.8944 47.7273 45.3205 47.8693 45.8271 47.8693ZM57.6844 54.3182C56.7042 54.3182 55.8638 54.1832 55.163 53.9134C54.467 53.6482 53.913 53.286 53.5011 52.8267C53.0892 52.3674 52.8217 51.8513 52.6986 51.2784L55.4969 50.902C55.5821 51.1198 55.717 51.3234 55.9017 51.5128C56.0863 51.7022 56.3302 51.8537 56.6332 51.9673C56.941 52.0857 57.315 52.1449 57.7554 52.1449C58.4135 52.1449 58.9557 51.9839 59.3818 51.6619C59.8127 51.3447 60.0281 50.812 60.0281 50.0639V48.0682H59.9003C59.7677 48.3712 59.5688 48.6577 59.3037 48.9276C59.0385 49.1974 58.6976 49.4176 58.2809 49.5881C57.8643 49.7585 57.3671 49.8438 56.7895 49.8438C55.9703 49.8438 55.2246 49.6544 54.5523 49.2756C53.8846 48.892 53.352 48.3073 52.9542 47.5213C52.5612 46.7306 52.3648 45.7315 52.3648 44.5241C52.3648 43.2884 52.566 42.2562 52.9684 41.4276C53.3709 40.599 53.9059 39.9787 54.5736 39.5668C55.2459 39.1548 55.9822 38.9489 56.7824 38.9489C57.3932 38.9489 57.9045 39.053 58.3165 39.2614C58.7284 39.465 59.0598 39.7206 59.3108 40.0284C59.5665 40.3314 59.763 40.6297 59.9003 40.9233H60.0139V39.0909H63.0182V50.1065C63.0182 51.0346 62.7909 51.8111 62.3363 52.4361C61.8818 53.0611 61.2521 53.5298 60.4471 53.8423C59.6469 54.1596 58.726 54.3182 57.6844 54.3182ZM57.7483 47.571C58.236 47.571 58.6479 47.4503 58.9841 47.2088C59.325 46.9626 59.5854 46.6122 59.7653 46.1577C59.95 45.6984 60.0423 45.1491 60.0423 44.5099C60.0423 43.8707 59.9523 43.3168 59.7724 42.848C59.5925 42.3745 59.3321 42.0076 58.9912 41.7472C58.6503 41.4867 58.236 41.3565 57.7483 41.3565C57.2511 41.3565 56.8321 41.4915 56.4912 41.7614C56.1503 42.0265 55.8922 42.3958 55.717 42.8693C55.5418 43.3428 55.4542 43.8897 55.4542 44.5099C55.4542 45.1397 55.5418 45.6842 55.717 46.1435C55.8969 46.598 56.155 46.9508 56.4912 47.2017C56.8321 47.4479 57.2511 47.571 57.7483 47.571ZM65.0174 50V47.7841L70.195 42.9901C70.6353 42.5639 71.0046 42.1804 71.3029 41.8395C71.606 41.4986 71.8356 41.1648 71.9918 40.8381C72.1481 40.5066 72.2262 40.1491 72.2262 39.7656C72.2262 39.3395 72.1292 38.9725 71.935 38.6648C71.7409 38.3523 71.4758 38.1132 71.1396 37.9474C70.8034 37.777 70.4222 37.6918 69.9961 37.6918C69.551 37.6918 69.1628 37.7817 68.8313 37.9616C68.4999 38.1416 68.2442 38.3996 68.0643 38.7358C67.8844 39.072 67.7944 39.4721 67.7944 39.9361H64.8754C64.8754 38.9844 65.0908 38.1581 65.5217 37.4574C65.9525 36.7566 66.5562 36.2145 67.3328 35.831C68.1093 35.4474 69.0042 35.2557 70.0174 35.2557C71.0591 35.2557 71.9658 35.4403 72.7376 35.8097C73.5141 36.1742 74.1178 36.6809 74.5487 37.3295C74.9795 37.9782 75.195 38.7216 75.195 39.5597C75.195 40.1089 75.0861 40.651 74.8683 41.1861C74.6552 41.7211 74.274 42.3153 73.7248 42.9688C73.1756 43.6174 72.4014 44.3963 71.4024 45.3054L69.2788 47.3864V47.4858H75.3867V50H65.0174ZM77.9311 42.7273C77.9311 40.9659 78.1655 39.3442 78.6342 37.8622C79.1077 36.3802 79.8298 35.0071 80.8004 33.7429H83.691C83.3217 34.2116 82.9784 34.7846 82.6612 35.4616C82.344 36.134 82.067 36.8726 81.8302 37.6776C81.5935 38.4825 81.4088 39.3158 81.2763 40.1776C81.1437 41.0346 81.0774 41.8845 81.0774 42.7273C81.0774 43.8494 81.191 44.9834 81.4183 46.1293C81.6503 47.2704 81.9628 48.331 82.3558 49.3111C82.7535 50.2912 83.1986 51.0938 83.691 51.7188H80.8004C79.8298 50.4545 79.1077 49.0814 78.6342 47.5994C78.1655 46.1174 77.9311 44.4934 77.9311 42.7273ZM88.604 50.2557C87.9127 50.2557 87.2853 50.1255 86.7219 49.8651C86.1584 49.5999 85.711 49.2188 85.3796 48.7216C85.0481 48.2197 84.8824 47.6136 84.8824 46.9034C84.8824 46.2784 85.0055 45.7718 85.2517 45.3835C85.4979 44.9905 85.827 44.6828 86.2389 44.4602C86.6509 44.2377 87.1054 44.072 87.6026 43.9631C88.1045 43.8494 88.6087 43.7595 89.1154 43.6932C89.7782 43.608 90.3156 43.544 90.7276 43.5014C91.1442 43.4541 91.4473 43.3759 91.6367 43.267C91.8308 43.1581 91.9279 42.9687 91.9279 42.6989V42.642C91.9279 41.9413 91.7361 41.3968 91.3526 41.0085C90.9738 40.6203 90.3985 40.4261 89.6267 40.4261C88.8265 40.4261 88.1992 40.6013 87.7446 40.9517C87.2901 41.3021 86.9705 41.6761 86.7858 42.0739L85.1949 41.5057C85.479 40.8428 85.8578 40.3267 86.3313 39.9574C86.8095 39.5833 87.3303 39.3229 87.8938 39.1761C88.462 39.0246 89.0207 38.9489 89.5699 38.9489C89.9203 38.9489 90.3227 38.9915 90.7773 39.0767C91.2366 39.1572 91.6793 39.3253 92.1054 39.581C92.5363 39.8366 92.8938 40.2225 93.1779 40.7386C93.462 41.2547 93.604 41.946 93.604 42.8125V50H91.9279V48.5227H91.8426C91.729 48.7595 91.5396 49.0128 91.2745 49.2827C91.0093 49.5526 90.6566 49.7822 90.2162 49.9716C89.7759 50.161 89.2385 50.2557 88.604 50.2557ZM88.8597 48.75C89.5226 48.75 90.0813 48.6198 90.5358 48.3594C90.9951 48.099 91.3407 47.7628 91.5727 47.3509C91.8095 46.9389 91.9279 46.5057 91.9279 46.0511V44.517C91.8568 44.6023 91.7006 44.6804 91.4591 44.7514C91.2224 44.8177 90.9477 44.8769 90.6352 44.929C90.3275 44.9763 90.0268 45.0189 89.7333 45.0568C89.4444 45.09 89.2101 45.1184 89.0301 45.142C88.5945 45.1989 88.1873 45.2912 87.8085 45.419C87.4345 45.5421 87.1315 45.7292 86.8995 45.9801C86.6722 46.2263 86.5585 46.5625 86.5585 46.9886C86.5585 47.571 86.774 48.0114 87.2049 48.3097C87.6405 48.6032 88.1921 48.75 88.8597 48.75ZM96.2833 50V39.0909H97.9026V40.7386H98.0163C98.2151 40.1989 98.575 39.7609 99.0958 39.4247C99.6166 39.0885 100.204 38.9205 100.857 38.9205C100.98 38.9205 101.134 38.9228 101.319 38.9276C101.503 38.9323 101.643 38.9394 101.738 38.9489V40.6534C101.681 40.6392 101.551 40.6179 101.347 40.5895C101.148 40.5563 100.938 40.5398 100.715 40.5398C100.185 40.5398 99.7113 40.651 99.2947 40.8736C98.8827 41.0914 98.556 41.3944 98.3146 41.7827C98.0778 42.1662 97.9594 42.6042 97.9594 43.0966V50H96.2833ZM103.345 50V39.0909H104.964V40.7386H105.078C105.277 40.1989 105.636 39.7609 106.157 39.4247C106.678 39.0885 107.265 38.9205 107.919 38.9205C108.042 38.9205 108.196 38.9228 108.38 38.9276C108.565 38.9323 108.705 38.9394 108.799 38.9489V40.6534C108.742 40.6392 108.612 40.6179 108.409 40.5895C108.21 40.5563 107.999 40.5398 107.777 40.5398C107.246 40.5398 106.773 40.651 106.356 40.8736C105.944 41.0914 105.617 41.3944 105.376 41.7827C105.139 42.1662 105.021 42.6042 105.021 43.0966V50H103.345ZM113.616 50.2557C112.925 50.2557 112.298 50.1255 111.734 49.8651C111.171 49.5999 110.723 49.2188 110.392 48.7216C110.06 48.2197 109.895 47.6136 109.895 46.9034C109.895 46.2784 110.018 45.7718 110.264 45.3835C110.51 44.9905 110.839 44.6828 111.251 44.4602C111.663 44.2377 112.118 44.072 112.615 43.9631C113.117 43.8494 113.621 43.7595 114.128 43.6932C114.791 43.608 115.328 43.544 115.74 43.5014C116.157 43.4541 116.46 43.3759 116.649 43.267C116.843 43.1581 116.94 42.9687 116.94 42.6989V42.642C116.94 41.9413 116.748 41.3968 116.365 41.0085C115.986 40.6203 115.411 40.4261 114.639 40.4261C113.839 40.4261 113.212 40.6013 112.757 40.9517C112.302 41.3021 111.983 41.6761 111.798 42.0739L110.207 41.5057C110.491 40.8428 110.87 40.3267 111.344 39.9574C111.822 39.5833 112.343 39.3229 112.906 39.1761C113.474 39.0246 114.033 38.9489 114.582 38.9489C114.933 38.9489 115.335 38.9915 115.79 39.0767C116.249 39.1572 116.692 39.3253 117.118 39.581C117.549 39.8366 117.906 40.2225 118.19 40.7386C118.474 41.2547 118.616 41.946 118.616 42.8125V50H116.94V48.5227H116.855C116.741 48.7595 116.552 49.0128 116.287 49.2827C116.022 49.5526 115.669 49.7822 115.229 49.9716C114.788 50.161 114.251 50.2557 113.616 50.2557ZM113.872 48.75C114.535 48.75 115.094 48.6198 115.548 48.3594C116.007 48.099 116.353 47.7628 116.585 47.3509C116.822 46.9389 116.94 46.5057 116.94 46.0511V44.517C116.869 44.6023 116.713 44.6804 116.471 44.7514C116.235 44.8177 115.96 44.8769 115.648 44.929C115.34 44.9763 115.039 45.0189 114.746 45.0568C114.457 45.09 114.222 45.1184 114.042 45.142C113.607 45.1989 113.2 45.2912 112.821 45.419C112.447 45.5421 112.144 45.7292 111.912 45.9801C111.685 46.2263 111.571 46.5625 111.571 46.9886C111.571 47.571 111.786 48.0114 112.217 48.3097C112.653 48.6032 113.204 48.75 113.872 48.75ZM121.985 54.0909C121.7 54.0909 121.447 54.0672 121.225 54.0199C121.002 53.9773 120.848 53.9347 120.763 53.892L121.189 52.4148C121.596 52.5189 121.956 52.5568 122.269 52.5284C122.581 52.5 122.858 52.3603 123.1 52.1094C123.346 51.8632 123.571 51.4631 123.774 50.9091L124.087 50.0568L120.053 39.0909H121.871L124.882 47.7841H124.996L128.007 39.0909H129.825L125.195 51.5909C124.986 52.1544 124.728 52.6207 124.421 52.9901C124.113 53.3641 123.755 53.6411 123.348 53.821C122.946 54.0009 122.491 54.0909 121.985 54.0909ZM136.431 44.169C136.431 45.9351 136.194 47.5592 135.72 49.0412C135.252 50.5232 134.532 51.8963 133.561 53.1605H130.671C131.04 52.6918 131.383 52.1188 131.7 51.4418C132.018 50.7647 132.295 50.026 132.531 49.2259C132.768 48.4209 132.953 47.5876 133.085 46.7259C133.218 45.8641 133.284 45.0118 133.284 44.169C133.284 43.0469 133.168 41.9152 132.936 40.7741C132.709 39.6283 132.396 38.5677 131.999 37.5923C131.606 36.6122 131.163 35.8097 130.671 35.1847H133.561C134.532 36.4489 135.252 37.822 135.72 39.304C136.194 40.786 136.431 42.4077 136.431 44.169ZM3.6371 78.6932V85H0.611531V74.0909H3.49505V76.0156H3.62289C3.86437 75.3812 4.2692 74.8793 4.83738 74.5099C5.40556 74.1359 6.09449 73.9489 6.90414 73.9489C7.66172 73.9489 8.32223 74.1146 8.88568 74.446C9.44913 74.7775 9.8871 75.2509 10.1996 75.8665C10.5121 76.4773 10.6683 77.2064 10.6683 78.054V85H7.64278V78.5938C7.64752 77.9261 7.47706 77.4053 7.13142 77.0312C6.78577 76.6525 6.30992 76.4631 5.70386 76.4631C5.29666 76.4631 4.93681 76.5507 4.62431 76.7259C4.31655 76.901 4.07507 77.1567 3.89988 77.4929C3.72943 77.8243 3.64183 78.2244 3.6371 78.6932ZM12.6729 89.0909V74.0909H15.6559V75.9233H15.7908C15.9234 75.6297 16.1152 75.3314 16.3661 75.0284C16.6218 74.7206 16.9532 74.465 17.3604 74.2614C17.7724 74.053 18.2837 73.9489 18.8945 73.9489C19.69 73.9489 20.4239 74.1572 21.0962 74.5739C21.7686 74.9858 22.306 75.6084 22.7084 76.4418C23.1109 77.2704 23.3121 78.3097 23.3121 79.5597C23.3121 80.7765 23.1156 81.804 22.7226 82.642C22.3344 83.4754 21.8041 84.1075 21.1317 84.5384C20.4641 84.9645 19.716 85.1776 18.8874 85.1776C18.3003 85.1776 17.8008 85.0805 17.3888 84.8864C16.9816 84.6922 16.6478 84.4484 16.3874 84.1548C16.127 83.8565 15.9281 83.5559 15.7908 83.2528H15.6985V89.0909H12.6729ZM15.6346 79.5455C15.6346 80.1941 15.7245 80.7599 15.9045 81.2429C16.0844 81.7259 16.3448 82.1023 16.6857 82.3722C17.0266 82.6373 17.4409 82.7699 17.9286 82.7699C18.421 82.7699 18.8377 82.6349 19.1786 82.3651C19.5195 82.0904 19.7776 81.7116 19.9528 81.2287C20.1327 80.741 20.2226 80.1799 20.2226 79.5455C20.2226 78.9157 20.1351 78.3617 19.9599 77.8835C19.7847 77.4053 19.5266 77.0312 19.1857 76.7614C18.8448 76.4915 18.4258 76.3565 17.9286 76.3565C17.4362 76.3565 17.0195 76.4867 16.6786 76.7472C16.3424 77.0076 16.0844 77.3769 15.9045 77.8551C15.7245 78.3333 15.6346 78.8968 15.6346 79.5455ZM26.7177 85.1847C26.2489 85.1847 25.8464 85.0189 25.5103 84.6875C25.1788 84.3513 25.0131 83.9489 25.0131 83.4801C25.0131 83.0161 25.1788 82.6184 25.5103 82.2869C25.8464 81.9555 26.2489 81.7898 26.7177 81.7898C27.1722 81.7898 27.5699 81.9555 27.9108 82.2869C28.2517 82.6184 28.4222 83.0161 28.4222 83.4801C28.4222 83.7926 28.3417 84.0791 28.1807 84.3395C28.0245 84.5952 27.8185 84.8011 27.5628 84.9574C27.3071 85.1089 27.0254 85.1847 26.7177 85.1847ZM33.5518 70.4545V85H30.5262V70.4545H33.5518ZM40.5244 85.2131C39.4212 85.2131 38.4671 84.9787 37.6622 84.5099C36.862 84.0365 36.2441 83.3783 35.8085 82.5355C35.3729 81.688 35.1551 80.7055 35.1551 79.5881C35.1551 78.4612 35.3729 77.4763 35.8085 76.6335C36.2441 75.786 36.862 75.1278 37.6622 74.6591C38.4671 74.1856 39.4212 73.9489 40.5244 73.9489C41.6276 73.9489 42.5793 74.1856 43.3795 74.6591C44.1844 75.1278 44.8047 75.786 45.2403 76.6335C45.6759 77.4763 45.8937 78.4612 45.8937 79.5881C45.8937 80.7055 45.6759 81.688 45.2403 82.5355C44.8047 83.3783 44.1844 84.0365 43.3795 84.5099C42.5793 84.9787 41.6276 85.2131 40.5244 85.2131ZM40.5386 82.8693C41.0405 82.8693 41.4595 82.7273 41.7957 82.4432C42.1319 82.1544 42.3852 81.7614 42.5557 81.2642C42.7308 80.767 42.8184 80.2012 42.8184 79.5668C42.8184 78.9323 42.7308 78.3665 42.5557 77.8693C42.3852 77.3722 42.1319 76.9792 41.7957 76.6903C41.4595 76.4015 41.0405 76.2571 40.5386 76.2571C40.032 76.2571 39.6058 76.4015 39.2602 76.6903C38.9193 76.9792 38.6612 77.3722 38.4861 77.8693C38.3156 78.3665 38.2304 78.9323 38.2304 79.5668C38.2304 80.2012 38.3156 80.767 38.4861 81.2642C38.6612 81.7614 38.9193 82.1544 39.2602 82.4432C39.6058 82.7273 40.032 82.8693 40.5386 82.8693ZM52.3958 89.3182C51.4157 89.3182 50.5753 89.1832 49.8745 88.9134C49.1785 88.6482 48.6245 88.286 48.2126 87.8267C47.8007 87.3674 47.5332 86.8513 47.41 86.2784L50.2083 85.902C50.2936 86.1198 50.4285 86.3234 50.6132 86.5128C50.7978 86.7022 51.0417 86.8537 51.3447 86.9673C51.6525 87.0857 52.0265 87.1449 52.4669 87.1449C53.125 87.1449 53.6671 86.9839 54.0933 86.6619C54.5242 86.3447 54.7396 85.812 54.7396 85.0639V83.0682H54.6118C54.4792 83.3712 54.2803 83.6577 54.0152 83.9276C53.75 84.1974 53.4091 84.4176 52.9924 84.5881C52.5758 84.7585 52.0786 84.8438 51.501 84.8438C50.6818 84.8438 49.9361 84.6544 49.2637 84.2756C48.5961 83.892 48.0635 83.3073 47.6657 82.5213C47.2727 81.7306 47.0762 80.7315 47.0762 79.5241C47.0762 78.2884 47.2775 77.2562 47.6799 76.4276C48.0824 75.599 48.6174 74.9787 49.285 74.5668C49.9574 74.1548 50.6937 73.9489 51.4939 73.9489C52.1046 73.9489 52.616 74.053 53.0279 74.2614C53.4399 74.465 53.7713 74.7206 54.0223 75.0284C54.2779 75.3314 54.4744 75.6297 54.6118 75.9233H54.7254V74.0909H57.7296V85.1065C57.7296 86.0346 57.5024 86.8111 57.0478 87.4361C56.5933 88.0611 55.9635 88.5298 55.1586 88.8423C54.3584 89.1596 53.4375 89.3182 52.3958 89.3182ZM52.4598 82.571C52.9475 82.571 53.3594 82.4503 53.6956 82.2088C54.0365 81.9626 54.2969 81.6122 54.4768 81.1577C54.6615 80.6984 54.7538 80.1491 54.7538 79.5099C54.7538 78.8707 54.6638 78.3168 54.4839 77.848C54.304 77.3745 54.0436 77.0076 53.7027 76.7472C53.3617 76.4867 52.9475 76.3565 52.4598 76.3565C51.9626 76.3565 51.5436 76.4915 51.2027 76.7614C50.8617 77.0265 50.6037 77.3958 50.4285 77.8693C50.2533 78.3428 50.1657 78.8897 50.1657 79.5099C50.1657 80.1397 50.2533 80.6842 50.4285 81.1435C50.6084 81.598 50.8665 81.9508 51.2027 82.2017C51.5436 82.4479 51.9626 82.571 52.4598 82.571ZM66.057 70.4545V85H62.9817V73.3736H62.8965L59.5656 75.4616V72.7344L63.1664 70.4545H66.057ZM74.8372 85.3196C73.6156 85.3149 72.5645 85.0142 71.6838 84.4176C70.8078 83.821 70.1331 82.9569 69.6596 81.8253C69.1909 80.6937 68.9589 79.3324 68.9636 77.7415C68.9636 76.1553 69.198 74.8035 69.6667 73.6861C70.1402 72.5687 70.8149 71.7187 71.6909 71.1364C72.5716 70.5492 73.6203 70.2557 74.8372 70.2557C76.054 70.2557 77.1004 70.5492 77.9764 71.1364C78.8571 71.7235 79.5342 72.5758 80.0076 73.6932C80.4811 74.8059 80.7155 76.1553 80.7108 77.7415C80.7108 79.3371 80.474 80.7008 80.0005 81.8324C79.5318 82.964 78.8594 83.8281 77.9835 84.4247C77.1075 85.0213 76.0588 85.3196 74.8372 85.3196ZM74.8372 82.7699C75.6705 82.7699 76.3358 82.3509 76.8329 81.5128C77.3301 80.6747 77.5763 79.4176 77.5716 77.7415C77.5716 76.6383 77.4579 75.7197 77.2306 74.9858C77.0081 74.2519 76.6909 73.7003 76.2789 73.331C75.8717 72.9616 75.3912 72.777 74.8372 72.777C74.0086 72.777 73.3457 73.1913 72.8485 74.0199C72.3514 74.8485 72.1004 76.089 72.0957 77.7415C72.0957 78.8589 72.207 79.7917 72.4295 80.5398C72.6568 81.2831 72.9764 81.8419 73.3883 82.2159C73.8002 82.5852 74.2832 82.7699 74.8372 82.7699ZM83.2196 77.7273C83.2196 75.9659 83.454 74.3442 83.9227 72.8622C84.3962 71.3802 85.1183 70.0071 86.0889 68.7429H88.9795C88.6102 69.2116 88.267 69.7846 87.9497 70.4616C87.6325 71.134 87.3555 71.8726 87.1188 72.6776C86.882 73.4825 86.6974 74.3158 86.5648 75.1776C86.4322 76.0346 86.3659 76.8845 86.3659 77.7273C86.3659 78.8494 86.4795 79.9834 86.7068 81.1293C86.9388 82.2704 87.2513 83.331 87.6443 84.3111C88.042 85.2912 88.4871 86.0938 88.9795 86.7188H86.0889C85.1183 85.4545 84.3962 84.0814 83.9227 82.5994C83.454 81.1174 83.2196 79.4934 83.2196 77.7273ZM93.8925 85.2557C93.2012 85.2557 92.5739 85.1255 92.0104 84.8651C91.447 84.5999 90.9995 84.2188 90.6681 83.7216C90.3367 83.2197 90.1709 82.6136 90.1709 81.9034C90.1709 81.2784 90.294 80.7718 90.5403 80.3835C90.7865 79.9905 91.1155 79.6828 91.5275 79.4602C91.9394 79.2377 92.3939 79.072 92.8911 78.9631C93.393 78.8494 93.8973 78.7595 94.4039 78.6932C95.0668 78.608 95.6042 78.544 96.0161 78.5014C96.4328 78.4541 96.7358 78.3759 96.9252 78.267C97.1193 78.1581 97.2164 77.9687 97.2164 77.6989V77.642C97.2164 76.9413 97.0246 76.3968 96.6411 76.0085C96.2623 75.6203 95.687 75.4261 94.9153 75.4261C94.1151 75.4261 93.4877 75.6013 93.0332 75.9517C92.5786 76.3021 92.259 76.6761 92.0743 77.0739L90.4834 76.5057C90.7675 75.8428 91.1463 75.3267 91.6198 74.9574C92.098 74.5833 92.6189 74.3229 93.1823 74.1761C93.7505 74.0246 94.3092 73.9489 94.8584 73.9489C95.2088 73.9489 95.6113 73.9915 96.0658 74.0767C96.5251 74.1572 96.9678 74.3253 97.3939 74.581C97.8248 74.8366 98.1823 75.2225 98.4664 75.7386C98.7505 76.2547 98.8925 76.946 98.8925 77.8125V85H97.2164V83.5227H97.1312C97.0175 83.7595 96.8281 84.0128 96.563 84.2827C96.2978 84.5526 95.9451 84.7822 95.5047 84.9716C95.0644 85.161 94.527 85.2557 93.8925 85.2557ZM94.1482 83.75C94.8111 83.75 95.3698 83.6198 95.8243 83.3594C96.2836 83.099 96.6293 82.7628 96.8613 82.3509C97.098 81.9389 97.2164 81.5057 97.2164 81.0511V79.517C97.1454 79.6023 96.9891 79.6804 96.7476 79.7514C96.5109 79.8177 96.2363 79.8769 95.9238 79.929C95.616 79.9763 95.3153 80.0189 95.0218 80.0568C94.733 80.09 94.4986 80.1184 94.3187 80.142C93.8831 80.1989 93.4759 80.2912 93.0971 80.419C92.723 80.5421 92.42 80.7292 92.188 80.9801C91.9607 81.2263 91.8471 81.5625 91.8471 81.9886C91.8471 82.571 92.0625 83.0114 92.4934 83.3097C92.929 83.6032 93.4806 83.75 94.1482 83.75ZM101.572 85V74.0909H103.191V75.7386H103.305C103.504 75.1989 103.863 74.7609 104.384 74.4247C104.905 74.0885 105.492 73.9205 106.146 73.9205C106.269 73.9205 106.423 73.9228 106.607 73.9276C106.792 73.9323 106.932 73.9394 107.026 73.9489V75.6534C106.97 75.6392 106.839 75.6179 106.636 75.5895C106.437 75.5563 106.226 75.5398 106.004 75.5398C105.473 75.5398 105 75.651 104.583 75.8736C104.171 76.0914 103.845 76.3944 103.603 76.7827C103.366 77.1662 103.248 77.6042 103.248 78.0966V85H101.572ZM108.633 85V74.0909H110.253V75.7386H110.366C110.565 75.1989 110.925 74.7609 111.446 74.4247C111.967 74.0885 112.554 73.9205 113.207 73.9205C113.33 73.9205 113.484 73.9228 113.669 73.9276C113.853 73.9323 113.993 73.9394 114.088 73.9489V75.6534C114.031 75.6392 113.901 75.6179 113.697 75.5895C113.498 75.5563 113.288 75.5398 113.065 75.5398C112.535 75.5398 112.061 75.651 111.645 75.8736C111.233 76.0914 110.906 76.3944 110.664 76.7827C110.428 77.1662 110.309 77.6042 110.309 78.0966V85H108.633ZM118.905 85.2557C118.214 85.2557 117.586 85.1255 117.023 84.8651C116.459 84.5999 116.012 84.2188 115.68 83.7216C115.349 83.2197 115.183 82.6136 115.183 81.9034C115.183 81.2784 115.306 80.7718 115.553 80.3835C115.799 79.9905 116.128 79.6828 116.54 79.4602C116.952 79.2377 117.406 79.072 117.903 78.9631C118.405 78.8494 118.91 78.7595 119.416 78.6932C120.079 78.608 120.617 78.544 121.028 78.5014C121.445 78.4541 121.748 78.3759 121.938 78.267C122.132 78.1581 122.229 77.9687 122.229 77.6989V77.642C122.229 76.9413 122.037 76.3968 121.653 76.0085C121.275 75.6203 120.699 75.4261 119.928 75.4261C119.127 75.4261 118.5 75.6013 118.045 75.9517C117.591 76.3021 117.271 76.6761 117.087 77.0739L115.496 76.5057C115.78 75.8428 116.159 75.3267 116.632 74.9574C117.11 74.5833 117.631 74.3229 118.195 74.1761C118.763 74.0246 119.322 73.9489 119.871 73.9489C120.221 73.9489 120.624 73.9915 121.078 74.0767C121.537 74.1572 121.98 74.3253 122.406 74.581C122.837 74.8366 123.195 75.2225 123.479 75.7386C123.763 76.2547 123.905 76.946 123.905 77.8125V85H122.229V83.5227H122.144C122.03 83.7595 121.84 84.0128 121.575 84.2827C121.31 84.5526 120.957 84.7822 120.517 84.9716C120.077 85.161 119.539 85.2557 118.905 85.2557ZM119.161 83.75C119.823 83.75 120.382 83.6198 120.837 83.3594C121.296 83.099 121.642 82.7628 121.874 82.3509C122.11 81.9389 122.229 81.5057 122.229 81.0511V79.517C122.158 79.6023 122.001 79.6804 121.76 79.7514C121.523 79.8177 121.249 79.8769 120.936 79.929C120.628 79.9763 120.328 80.0189 120.034 80.0568C119.745 80.09 119.511 80.1184 119.331 80.142C118.895 80.1989 118.488 80.2912 118.109 80.419C117.735 80.5421 117.432 80.7292 117.2 80.9801C116.973 81.2263 116.859 81.5625 116.859 81.9886C116.859 82.571 117.075 83.0114 117.506 83.3097C117.941 83.6032 118.493 83.75 119.161 83.75ZM127.273 89.0909C126.989 89.0909 126.736 89.0672 126.513 89.0199C126.291 88.9773 126.137 88.9347 126.051 88.892L126.478 87.4148C126.885 87.5189 127.245 87.5568 127.557 87.5284C127.87 87.5 128.147 87.3603 128.388 87.1094C128.634 86.8632 128.859 86.4631 129.063 85.9091L129.375 85.0568L125.341 74.0909H127.159L130.171 82.7841H130.284L133.296 74.0909H135.114L130.483 86.5909C130.275 87.1544 130.017 87.6207 129.709 87.9901C129.401 88.3641 129.044 88.6411 128.637 88.821C128.234 89.0009 127.78 89.0909 127.273 89.0909ZM141.719 79.169C141.719 80.9351 141.482 82.5592 141.009 84.0412C140.54 85.5232 139.82 86.8963 138.85 88.1605H135.959C136.328 87.6918 136.672 87.1188 136.989 86.4418C137.306 85.7647 137.583 85.026 137.82 84.2259C138.057 83.4209 138.241 82.5876 138.374 81.7259C138.506 80.8641 138.573 80.0118 138.573 79.169C138.573 78.0469 138.457 76.9152 138.225 75.7741C137.997 74.6283 137.685 73.5677 137.287 72.5923C136.894 71.6122 136.452 70.8097 135.959 70.1847H138.85C139.82 71.4489 140.54 72.822 141.009 74.304C141.482 75.786 141.719 77.4077 141.719 79.169Z" fill="black"/>
</svg>
