<svg width="372" height="339" viewBox="0 0 372 339" fill="none" xmlns="http://www.w3.org/2000/svg">
<path d="M173.571 316.268H175.447V329.232H173.571V316.268ZM174.957 321.224H177.239V322.75H174.957V321.224ZM170.169 317.612H171.989C171.989 321.504 170.505 324.836 166.193 327.006L165.157 325.592C168.559 323.828 170.169 321.448 170.169 317.934V317.612ZM165.871 317.612H171.121V319.11H165.871V317.612ZM178.176 326.306H189.908V327.818H178.176V326.306ZM183.09 323.856H184.952V326.922H183.09V323.856ZM179.492 317.122H188.592V321.434H181.368V323.618H179.52V319.978H186.744V318.592H179.492V317.122ZM179.52 322.876H188.886V324.374H179.52V322.876ZM195.968 323.716H197.816V325.62H195.968V323.716ZM191.04 322.666H202.758V324.136H191.04V322.666ZM192.342 325.242H201.344V329.232H199.482V326.712H192.342V325.242ZM195.968 316.296H197.816V318.2H195.968V316.296ZM195.856 318.34H197.494V318.606C197.494 320.58 195.618 321.952 192.09 322.204L191.53 320.818C194.652 320.622 195.856 319.6 195.856 318.606V318.34ZM196.29 318.34H197.928V318.606C197.928 319.6 199.132 320.622 202.254 320.818L201.694 322.204C198.152 321.952 196.29 320.58 196.29 318.606V318.34ZM192.16 317.458H201.638V318.9H192.16V317.458ZM208.091 323.705C208.091 322.452 208.253 321.3 208.578 320.249C208.906 319.195 209.374 318.226 209.98 317.341H211.014C210.776 317.669 210.552 318.073 210.343 318.554C210.138 319.031 209.957 319.557 209.801 320.13C209.646 320.7 209.523 321.29 209.433 321.9C209.347 322.51 209.304 323.111 209.304 323.705C209.304 324.493 209.38 325.294 209.533 326.106C209.685 326.918 209.891 327.672 210.149 328.368C210.408 329.064 210.696 329.631 211.014 330.068H209.98C209.374 329.183 208.906 328.215 208.578 327.165C208.253 326.111 208.091 324.957 208.091 323.705ZM213.73 317.724H221.766V318.676H213.73V317.724ZM212.372 326.362H223.81V327.342H212.372V326.362ZM221.262 317.724H222.396V319.278C222.396 321.14 222.396 322.862 221.864 325.452L220.716 325.34C221.262 322.904 221.262 321.098 221.262 319.278V317.724ZM221.556 321.224V322.092L213.562 322.526L213.394 321.56L221.556 321.224ZM234.463 316.436H235.625V329.092H234.463V316.436ZM230.753 317.794H231.901C231.901 321.462 230.249 324.668 226.021 326.74L225.405 325.802C229.059 324.038 230.753 321.35 230.753 317.99V317.794ZM225.979 317.794H231.257V318.746H225.979V317.794ZM239.359 326.697C239.113 326.697 238.903 326.61 238.727 326.434C238.552 326.258 238.464 326.048 238.464 325.803C238.464 325.557 238.552 325.347 238.727 325.171C238.903 324.996 239.113 324.908 239.359 324.908C239.604 324.908 239.814 324.996 239.99 325.171C240.166 325.347 240.254 325.557 240.254 325.803C240.254 325.965 240.212 326.114 240.129 326.25C240.05 326.386 239.942 326.495 239.806 326.578C239.674 326.658 239.524 326.697 239.359 326.697ZM239.359 321.547C239.113 321.547 238.903 321.459 238.727 321.283C238.552 321.108 238.464 320.897 238.464 320.652C238.464 320.407 238.552 320.196 238.727 320.021C238.903 319.845 239.113 319.757 239.359 319.757C239.604 319.757 239.814 319.845 239.99 320.021C240.166 320.196 240.254 320.407 240.254 320.652C240.254 320.814 240.212 320.964 240.129 321.099C240.05 321.235 239.942 321.345 239.806 321.428C239.674 321.507 239.524 321.547 239.359 321.547ZM246.038 325.912V324.898L250.512 317.818H251.248V319.389H250.751L247.37 324.739V324.818H253.396V325.912H246.038ZM250.831 328V325.604V325.131V317.818H252.004V328H250.831ZM257.785 322.909C257.785 324.162 257.621 325.315 257.292 326.369C256.968 327.42 256.502 328.388 255.895 329.273H254.861C255.1 328.945 255.322 328.54 255.528 328.06C255.736 327.582 255.919 327.059 256.074 326.489C256.23 325.915 256.351 325.324 256.437 324.714C256.527 324.101 256.572 323.499 256.572 322.909C256.572 322.12 256.495 321.32 256.343 320.508C256.19 319.696 255.985 318.942 255.726 318.246C255.468 317.55 255.18 316.983 254.861 316.545H255.895C256.502 317.43 256.968 318.4 257.292 319.454C257.621 320.504 257.785 321.656 257.785 322.909Z" fill="black"/>
<path d="M64.25 304V304.75H65.75V304H64.25ZM65.5303 28.4697C65.2374 28.1768 64.7626 28.1768 64.4697 28.4697L59.6967 33.2426C59.4038 33.5355 59.4038 34.0104 59.6967 34.3033C59.9896 34.5962 60.4645 34.5962 60.7574 34.3033L65 30.0607L69.2426 34.3033C69.5355 34.5962 70.0104 34.5962 70.3033 34.3033C70.5962 34.0104 70.5962 33.5355 70.3033 33.2426L65.5303 28.4697ZM65.75 304L65.75 29H64.25L64.25 304H65.75Z" fill="black"/>
<rect x="87" y="30" width="63" height="63" rx="3" fill="white"/>
<rect x="87" y="30" width="63" height="63" rx="3" stroke="#858585" stroke-width="2"/>
<rect x="87" y="30" width="63" height="63" rx="3" stroke="black" stroke-opacity="0.2" stroke-width="2"/>
<rect x="150" y="30" width="63" height="63" rx="3" fill="white"/>
<rect x="150" y="30" width="63" height="63" rx="3" stroke="#858585" stroke-width="2"/>
<rect x="150" y="30" width="63" height="63" rx="3" stroke="black" stroke-opacity="0.2" stroke-width="2"/>
<rect x="213" y="30" width="63" height="63" rx="3" fill="white"/>
<rect x="213" y="30" width="63" height="63" rx="3" stroke="#858585" stroke-width="2"/>
<rect x="213" y="30" width="63" height="63" rx="3" stroke="black" stroke-opacity="0.2" stroke-width="2"/>
<rect x="276" y="30" width="63" height="63" rx="3" fill="white"/>
<rect x="276" y="30" width="63" height="63" rx="3" stroke="#858585" stroke-width="2"/>
<rect x="276" y="30" width="63" height="63" rx="3" stroke="black" stroke-opacity="0.2" stroke-width="2"/>
<rect x="87" y="93" width="63" height="63" rx="3" fill="white"/>
<rect x="87" y="93" width="63" height="63" rx="3" stroke="#858585" stroke-width="2"/>
<rect x="87" y="93" width="63" height="63" rx="3" stroke="black" stroke-opacity="0.2" stroke-width="2"/>
<rect x="150" y="93" width="63" height="63" rx="3" fill="white"/>
<rect x="150" y="93" width="63" height="63" rx="3" stroke="#858585" stroke-width="2"/>
<rect x="150" y="93" width="63" height="63" rx="3" stroke="black" stroke-opacity="0.2" stroke-width="2"/>
<rect x="213" y="93" width="63" height="63" rx="3" fill="white"/>
<rect x="213" y="93" width="63" height="63" rx="3" stroke="#858585" stroke-width="2"/>
<rect x="213" y="93" width="63" height="63" rx="3" stroke="black" stroke-opacity="0.2" stroke-width="2"/>
<rect x="276" y="93" width="63" height="63" rx="3" fill="white"/>
<rect x="276" y="93" width="63" height="63" rx="3" stroke="#858585" stroke-width="2"/>
<rect x="276" y="93" width="63" height="63" rx="3" stroke="black" stroke-opacity="0.2" stroke-width="2"/>
<rect x="87" y="156" width="63" height="63" rx="3" fill="white"/>
<rect x="87" y="156" width="63" height="63" rx="3" stroke="#858585" stroke-width="2"/>
<rect x="87" y="156" width="63" height="63" rx="3" stroke="black" stroke-opacity="0.2" stroke-width="2"/>
<rect x="150" y="156" width="63" height="63" rx="3" fill="white"/>
<rect x="150" y="156" width="63" height="63" rx="3" stroke="#858585" stroke-width="2"/>
<rect x="150" y="156" width="63" height="63" rx="3" stroke="black" stroke-opacity="0.2" stroke-width="2"/>
<rect x="213" y="156" width="63" height="63" rx="3" fill="white"/>
<rect x="213" y="156" width="63" height="63" rx="3" stroke="#858585" stroke-width="2"/>
<rect x="213" y="156" width="63" height="63" rx="3" stroke="black" stroke-opacity="0.2" stroke-width="2"/>
<rect x="276" y="156" width="63" height="63" rx="3" fill="white"/>
<rect x="276" y="156" width="63" height="63" rx="3" stroke="#858585" stroke-width="2"/>
<rect x="276" y="156" width="63" height="63" rx="3" stroke="black" stroke-opacity="0.2" stroke-width="2"/>
<rect x="87" y="219" width="63" height="63" rx="3" fill="white"/>
<rect x="87" y="219" width="63" height="63" rx="3" stroke="#858585" stroke-width="2"/>
<rect x="87" y="219" width="63" height="63" rx="3" stroke="black" stroke-opacity="0.2" stroke-width="2"/>
<rect x="150" y="219" width="63" height="63" rx="3" fill="white"/>
<rect x="150" y="219" width="63" height="63" rx="3" stroke="#858585" stroke-width="2"/>
<rect x="150" y="219" width="63" height="63" rx="3" stroke="black" stroke-opacity="0.2" stroke-width="2"/>
<rect x="213" y="219" width="63" height="63" rx="3" fill="white"/>
<rect x="213" y="219" width="63" height="63" rx="3" stroke="#858585" stroke-width="2"/>
<rect x="213" y="219" width="63" height="63" rx="3" stroke="black" stroke-opacity="0.2" stroke-width="2"/>
<rect x="276" y="219" width="63" height="63" rx="3" fill="white"/>
<rect x="276" y="219" width="63" height="63" rx="3" stroke="#858585" stroke-width="2"/>
<rect x="276" y="219" width="63" height="63" rx="3" stroke="black" stroke-opacity="0.2" stroke-width="2"/>
<path d="M340.53 304.53C340.823 304.237 340.823 303.763 340.53 303.47L335.757 298.697C335.464 298.404 334.99 298.404 334.697 298.697C334.404 298.99 334.404 299.464 334.697 299.757L338.939 304L334.697 308.243C334.404 308.536 334.404 309.01 334.697 309.303C334.99 309.596 335.464 309.596 335.757 309.303L340.53 304.53ZM65 304.75H340V303.25H65V304.75Z" fill="black"/>
<path d="M16.3516 146.636H18.4936V148.148H16.3516V146.636ZM13.5796 143.402H15.0076V145.586C15.0076 148.526 14.1956 151.396 12.1236 152.67L11.0036 151.27C12.9076 150.094 13.5796 147.784 13.5796 145.586V143.402ZM13.9856 143.402H15.3856V145.502C15.3856 147.616 15.9316 149.772 17.6956 150.92L16.6876 152.376C14.6296 151.102 13.9856 148.302 13.9856 145.502V143.402ZM20.6076 142.282H22.3856V155.246H20.6076V142.282ZM17.9756 142.478H19.7116V154.658H17.9756V142.478ZM24.1345 152.306H35.8665V153.818H24.1345V152.306ZM29.0485 149.856H30.9105V152.922H29.0485V149.856ZM25.4505 143.122H34.5505V147.434H27.3265V149.618H25.4785V145.978H32.7025V144.592H25.4505V143.122ZM25.4785 148.876H34.8445V150.374H25.4785V148.876ZM41.9275 149.716H43.7755V151.62H41.9275V149.716ZM36.9995 148.666H48.7175V150.136H36.9995V148.666ZM38.3015 151.242H47.3035V155.232H45.4415V152.712H38.3015V151.242ZM41.9275 142.296H43.7755V144.2H41.9275V142.296ZM41.8155 144.34H43.4535V144.606C43.4535 146.58 41.5775 147.952 38.0495 148.204L37.4895 146.818C40.6115 146.622 41.8155 145.6 41.8155 144.606V144.34ZM42.2495 144.34H43.8875V144.606C43.8875 145.6 45.0915 146.622 48.2135 146.818L47.6535 148.204C44.1115 147.952 42.2495 146.58 42.2495 144.606V144.34ZM38.1195 143.458H47.5975V144.9H38.1195V143.458ZM5.15261 169.705C5.15261 168.452 5.31502 167.3 5.63983 166.249C5.96795 165.195 6.43528 164.226 7.04181 163.341H8.07591C7.83727 163.669 7.61355 164.073 7.40474 164.554C7.19925 165.031 7.01861 165.557 6.86284 166.13C6.70706 166.7 6.58443 167.29 6.49494 167.9C6.40877 168.51 6.36568 169.111 6.36568 169.705C6.36568 170.493 6.44191 171.294 6.59437 172.106C6.74683 172.918 6.95233 173.672 7.21085 174.368C7.46937 175.064 7.75772 175.631 8.07591 176.068H7.04181C6.43528 175.183 5.96795 174.215 5.63983 173.165C5.31502 172.111 5.15261 170.957 5.15261 169.705ZM10.7914 163.724H18.8274V164.676H10.7914V163.724ZM9.4334 172.362H20.8714V173.342H9.4334V172.362ZM18.3234 163.724H19.4574V165.278C19.4574 167.14 19.4574 168.862 18.9254 171.452L17.7774 171.34C18.3234 168.904 18.3234 167.098 18.3234 165.278V163.724ZM18.6174 167.224V168.092L10.6234 168.526L10.4554 167.56L18.6174 167.224ZM31.5243 162.436H32.6863V175.092H31.5243V162.436ZM27.8143 163.794H28.9623C28.9623 167.462 27.3103 170.668 23.0823 172.74L22.4663 171.802C26.1203 170.038 27.8143 167.35 27.8143 163.99V163.794ZM23.0403 163.794H28.3183V164.746H23.0403V163.794ZM36.4202 172.697C36.1749 172.697 35.9645 172.61 35.7888 172.434C35.6131 172.258 35.5253 172.048 35.5253 171.803C35.5253 171.557 35.6131 171.347 35.7888 171.171C35.9645 170.996 36.1749 170.908 36.4202 170.908C36.6655 170.908 36.8759 170.996 37.0516 171.171C37.2272 171.347 37.3151 171.557 37.3151 171.803C37.3151 171.965 37.2736 172.114 37.1908 172.25C37.1112 172.386 37.0035 172.495 36.8676 172.578C36.7351 172.658 36.5859 172.697 36.4202 172.697ZM36.4202 167.547C36.1749 167.547 35.9645 167.459 35.7888 167.283C35.6131 167.108 35.5253 166.897 35.5253 166.652C35.5253 166.407 35.6131 166.196 35.7888 166.021C35.9645 165.845 36.1749 165.757 36.4202 165.757C36.6655 165.757 36.8759 165.845 37.0516 166.021C37.2272 166.196 37.3151 166.407 37.3151 166.652C37.3151 166.814 37.2736 166.964 37.1908 167.099C37.1112 167.235 37.0035 167.345 36.8676 167.428C36.7351 167.507 36.5859 167.547 36.4202 167.547ZM43.0995 171.912V170.898L47.574 163.818H48.3097V165.389H47.8126L44.4319 170.739V170.818H50.4575V171.912H43.0995ZM47.8921 174V171.604V171.131V163.818H49.0654V174H47.8921ZM54.8461 168.909C54.8461 170.162 54.6821 171.315 54.354 172.369C54.0291 173.42 53.5635 174.388 52.9569 175.273H51.9229C52.1615 174.945 52.3836 174.54 52.589 174.06C52.7979 173.582 52.9801 173.059 53.1359 172.489C53.2917 171.915 53.4127 171.324 53.4988 170.714C53.5883 170.101 53.6331 169.499 53.6331 168.909C53.6331 168.12 53.5568 167.32 53.4044 166.508C53.2519 165.696 53.0464 164.942 52.7879 164.246C52.5294 163.55 52.241 162.983 51.9229 162.545H52.9569C53.5635 163.43 54.0291 164.4 54.354 165.454C54.6821 166.504 54.8461 167.656 54.8461 168.909Z" fill="black"/>
<path d="M89 281L89 33C89 32.1716 89.6716 31.5 90.5 31.5H147.5C148.328 31.5 149 32.1716 149 33V281C149 281.828 148.328 282.5 147.5 282.5H90.5C89.6716 282.5 89 281.828 89 281Z" stroke="#DC4A4A" stroke-width="5"/>
<path d="M90 221H336C336.828 221 337.5 221.672 337.5 222.5V279.5C337.5 280.328 336.828 281 336 281H90C89.1716 281 88.5 280.328 88.5 279.5V222.5C88.5 221.672 89.1716 221 90 221Z" stroke="#3D4CD7" stroke-width="5"/>
<path d="M359.903 245.282H361.667V253.402H359.903V245.282ZM358.321 248.474H360.393V249.986H358.321V248.474ZM357.215 245.534H358.951V252.982H357.215V245.534ZM350.565 246.612H356.851V248.04H350.565V246.612ZM353.729 248.46C355.353 248.46 356.529 249.384 356.529 250.728C356.529 252.072 355.353 252.982 353.729 252.982C352.105 252.982 350.929 252.072 350.929 250.728C350.929 249.384 352.105 248.46 353.729 248.46ZM353.729 249.79C353.043 249.79 352.581 250.126 352.581 250.728C352.581 251.33 353.043 251.666 353.729 251.666C354.401 251.666 354.863 251.33 354.863 250.728C354.863 250.126 354.401 249.79 353.729 249.79ZM352.791 245.408H354.625V247.592H352.791V245.408ZM357.285 253.542C360.057 253.542 361.737 254.382 361.737 255.894C361.737 257.392 360.057 258.246 357.285 258.246C354.499 258.246 352.819 257.392 352.819 255.894C352.819 254.382 354.499 253.542 357.285 253.542ZM357.285 254.928C355.549 254.928 354.681 255.222 354.681 255.894C354.681 256.552 355.549 256.86 357.285 256.86C359.007 256.86 359.875 256.552 359.875 255.894C359.875 255.222 359.007 254.928 357.285 254.928Z" fill="#5161F1"/>
<path d="M118.641 10.584H121.959V12.026H118.641V10.584ZM118.641 13.216H121.959V14.658H118.641V13.216ZM116.205 9.632C118.165 9.632 119.621 10.878 119.621 12.642C119.621 14.378 118.165 15.624 116.205 15.624C114.245 15.624 112.775 14.378 112.775 12.642C112.775 10.878 114.245 9.632 116.205 9.632ZM116.205 11.144C115.239 11.144 114.553 11.69 114.553 12.642C114.553 13.58 115.239 14.126 116.205 14.126C117.171 14.126 117.857 13.58 117.857 12.642C117.857 11.69 117.171 11.144 116.205 11.144ZM121.609 9.282H123.471V15.764H121.609V9.282ZM114.903 16.31H123.471V19.838H116.765V21.42H114.917V18.494H121.623V17.738H114.903V16.31ZM114.917 20.664H123.835V22.106H114.917V20.664Z" fill="#FF0000"/>
</svg>
