<svg width="368" height="138" viewBox="0 0 368 138" fill="none" xmlns="http://www.w3.org/2000/svg">
<path d="M242.54 36.0625V14.4915H249.264V17.2017H246.051V33.3438H249.264V36.0625H242.54ZM268.272 16.5455V34H264.581V20.0483H264.479L260.482 22.554V19.2812L264.803 16.5455H268.272ZM289.361 34V31.3409L295.574 25.5881C296.103 25.0767 296.546 24.6165 296.904 24.2074C297.268 23.7983 297.543 23.3977 297.731 23.0057C297.918 22.608 298.012 22.179 298.012 21.7188C298.012 21.2074 297.895 20.767 297.662 20.3977C297.43 20.0227 297.111 19.7358 296.708 19.5369C296.305 19.3324 295.847 19.2301 295.336 19.2301C294.802 19.2301 294.336 19.3381 293.938 19.554C293.54 19.7699 293.233 20.0795 293.018 20.483C292.802 20.8864 292.694 21.3665 292.694 21.9233H289.191C289.191 20.7812 289.449 19.7898 289.966 18.9489C290.483 18.108 291.208 17.4574 292.14 16.9972C293.072 16.5369 294.145 16.3068 295.361 16.3068C296.611 16.3068 297.699 16.5284 298.626 16.9716C299.557 17.4091 300.282 18.017 300.799 18.7955C301.316 19.5739 301.574 20.4659 301.574 21.4716C301.574 22.1307 301.444 22.7812 301.182 23.4233C300.927 24.0653 300.469 24.7784 299.81 25.5625C299.151 26.3409 298.222 27.2756 297.023 28.3665L294.475 30.8636V30.983H301.805V34H289.361ZM327.872 34.2386C326.599 34.2386 325.465 34.0199 324.471 33.5824C323.482 33.1392 322.701 32.5312 322.127 31.7585C321.559 30.9801 321.266 30.0824 321.249 29.0653H324.965C324.988 29.4915 325.127 29.8665 325.383 30.1903C325.644 30.5085 325.991 30.7557 326.423 30.9318C326.855 31.108 327.34 31.196 327.88 31.196C328.443 31.196 328.94 31.0966 329.372 30.8977C329.803 30.6989 330.141 30.4233 330.386 30.071C330.63 29.7187 330.752 29.3125 330.752 28.8523C330.752 28.3864 330.622 27.9744 330.36 27.6165C330.105 27.2528 329.735 26.9687 329.252 26.7642C328.775 26.5597 328.207 26.4574 327.548 26.4574H325.92V23.7472H327.548C328.105 23.7472 328.596 23.6506 329.022 23.4574C329.454 23.2642 329.789 22.9972 330.028 22.6562C330.266 22.3097 330.386 21.9062 330.386 21.446C330.386 21.0085 330.281 20.625 330.07 20.2955C329.866 19.9602 329.576 19.6989 329.201 19.5114C328.832 19.3239 328.4 19.2301 327.906 19.2301C327.406 19.2301 326.948 19.321 326.534 19.5028C326.119 19.679 325.786 19.9318 325.536 20.2614C325.286 20.5909 325.153 20.9773 325.136 21.4205H321.599C321.616 20.4148 321.903 19.5284 322.46 18.7614C323.016 17.9943 323.766 17.3949 324.71 16.9631C325.659 16.5256 326.73 16.3068 327.923 16.3068C329.127 16.3068 330.181 16.5256 331.085 16.9631C331.988 17.4006 332.69 17.9915 333.19 18.7358C333.695 19.4744 333.945 20.304 333.94 21.2244C333.945 22.2017 333.641 23.017 333.028 23.6705C332.42 24.3239 331.627 24.7386 330.65 24.9148V25.0511C331.934 25.2159 332.911 25.6619 333.582 26.3892C334.258 27.1108 334.593 28.0142 334.588 29.0994C334.593 30.0938 334.306 30.9773 333.727 31.75C333.153 32.5227 332.36 33.1307 331.349 33.5739C330.338 34.017 329.178 34.2386 327.872 34.2386ZM352.547 14.4915V36.0625H345.822V33.3438H349.035V17.2017H345.822V14.4915H352.547ZM242.54 79.0625V57.4915H249.264V60.2017H246.051V76.3438H249.264V79.0625H242.54ZM259.646 73.9318V71.0256L266.932 59.5455H269.438V63.5682H267.955L263.361 70.8381V70.9744H273.717V73.9318H259.646ZM268.023 77V73.0455L268.092 71.7585V59.5455H271.552V77H268.023ZM298.34 77.2386C297.135 77.2386 296.061 77.017 295.118 76.5739C294.181 76.1307 293.436 75.5199 292.885 74.7415C292.334 73.9631 292.047 73.071 292.024 72.0653H295.604C295.644 72.7415 295.928 73.2898 296.456 73.7102C296.985 74.1307 297.612 74.3409 298.34 74.3409C298.919 74.3409 299.431 74.2131 299.874 73.9574C300.323 73.696 300.672 73.3352 300.922 72.875C301.178 72.4091 301.306 71.875 301.306 71.2727C301.306 70.6591 301.175 70.1193 300.914 69.6534C300.658 69.1875 300.303 68.8239 299.848 68.5625C299.394 68.3011 298.874 68.1676 298.289 68.1619C297.777 68.1619 297.28 68.267 296.797 68.4773C296.32 68.6875 295.948 68.9744 295.681 69.3381L292.399 68.75L293.226 59.5455H303.897V62.5625H296.269L295.817 66.9347H295.919C296.226 66.5028 296.689 66.1449 297.309 65.8608C297.928 65.5767 298.621 65.4347 299.388 65.4347C300.439 65.4347 301.377 65.6818 302.201 66.1761C303.024 66.6705 303.675 67.3494 304.152 68.2131C304.63 69.071 304.865 70.0597 304.86 71.179C304.865 72.3551 304.593 73.4006 304.041 74.3153C303.496 75.2244 302.732 75.9403 301.749 76.4631C300.772 76.9801 299.635 77.2386 298.34 77.2386ZM329.922 77.2386C329.024 77.233 328.158 77.0824 327.322 76.7869C326.493 76.4915 325.748 76.0114 325.089 75.3466C324.43 74.6818 323.908 73.8011 323.521 72.7045C323.141 71.608 322.95 70.2614 322.95 68.6648C322.956 67.1989 323.123 65.8892 323.453 64.7358C323.788 63.5767 324.266 62.5937 324.885 61.7869C325.51 60.9801 326.257 60.3665 327.126 59.946C327.996 59.5199 328.97 59.3068 330.05 59.3068C331.214 59.3068 332.243 59.5341 333.135 59.9886C334.027 60.4375 334.743 61.0483 335.283 61.821C335.828 62.5938 336.158 63.4602 336.271 64.4205H332.632C332.49 63.8125 332.192 63.3352 331.737 62.9886C331.283 62.642 330.72 62.4688 330.05 62.4688C328.913 62.4688 328.05 62.9631 327.459 63.9517C326.873 64.9403 326.575 66.2841 326.564 67.983H326.683C326.944 67.4659 327.297 67.0256 327.74 66.6619C328.189 66.2926 328.697 66.0114 329.266 65.8182C329.839 65.6193 330.444 65.5199 331.081 65.5199C332.115 65.5199 333.035 65.7642 333.842 66.2528C334.649 66.7358 335.285 67.4006 335.751 68.2472C336.217 69.0937 336.45 70.0625 336.45 71.1534C336.45 72.3352 336.175 73.3864 335.623 74.3068C335.078 75.2273 334.314 75.9489 333.331 76.4716C332.354 76.9886 331.217 77.2443 329.922 77.2386ZM329.905 74.3409C330.473 74.3409 330.981 74.2045 331.43 73.9318C331.879 73.6591 332.231 73.2898 332.487 72.8239C332.743 72.358 332.871 71.8352 332.871 71.2557C332.871 70.6761 332.743 70.1562 332.487 69.696C332.237 69.2358 331.891 68.8693 331.447 68.5966C331.004 68.3239 330.498 68.1875 329.93 68.1875C329.504 68.1875 329.109 68.267 328.746 68.4261C328.388 68.5852 328.072 68.8068 327.8 69.0909C327.533 69.375 327.322 69.7045 327.169 70.0795C327.016 70.4489 326.939 70.8437 326.939 71.2642C326.939 71.8267 327.067 72.3409 327.322 72.8068C327.584 73.2727 327.936 73.6449 328.379 73.9233C328.828 74.2017 329.337 74.3409 329.905 74.3409ZM353.605 57.4915V79.0625H346.881V76.3438H350.094V60.2017H346.881V57.4915H353.605ZM242.54 122.062V100.491H249.264V103.202H246.051V119.344H249.264V122.062H242.54ZM260.984 120L268.22 105.682V105.562H259.791V102.545H272.038V105.605L264.794 120H260.984ZM297.444 120.239C296.131 120.239 294.964 120.026 293.941 119.599C292.924 119.168 292.126 118.58 291.546 117.835C290.967 117.091 290.677 116.247 290.677 115.304C290.677 114.577 290.842 113.909 291.171 113.301C291.506 112.688 291.961 112.179 292.535 111.776C293.109 111.366 293.751 111.105 294.461 110.991V110.872C293.529 110.685 292.773 110.233 292.194 109.517C291.614 108.795 291.325 107.957 291.325 107.003C291.325 106.099 291.589 105.295 292.117 104.591C292.646 103.881 293.37 103.324 294.291 102.92C295.217 102.511 296.268 102.307 297.444 102.307C298.62 102.307 299.668 102.511 300.589 102.92C301.515 103.33 302.242 103.889 302.771 104.599C303.299 105.304 303.566 106.105 303.572 107.003C303.566 107.963 303.271 108.801 302.685 109.517C302.1 110.233 301.35 110.685 300.435 110.872V110.991C301.134 111.105 301.768 111.366 302.336 111.776C302.91 112.179 303.364 112.688 303.7 113.301C304.041 113.909 304.214 114.577 304.22 115.304C304.214 116.247 303.921 117.091 303.342 117.835C302.762 118.58 301.961 119.168 300.938 119.599C299.921 120.026 298.756 120.239 297.444 120.239ZM297.444 117.528C298.029 117.528 298.541 117.423 298.978 117.213C299.416 116.997 299.756 116.702 300.001 116.327C300.251 115.946 300.376 115.509 300.376 115.014C300.376 114.509 300.248 114.062 299.992 113.676C299.737 113.284 299.39 112.977 298.952 112.756C298.515 112.528 298.012 112.415 297.444 112.415C296.881 112.415 296.379 112.528 295.935 112.756C295.492 112.977 295.143 113.284 294.887 113.676C294.637 114.062 294.512 114.509 294.512 115.014C294.512 115.509 294.634 115.946 294.879 116.327C295.123 116.702 295.467 116.997 295.91 117.213C296.353 117.423 296.864 117.528 297.444 117.528ZM297.444 109.73C297.933 109.73 298.367 109.631 298.748 109.432C299.129 109.233 299.427 108.957 299.643 108.605C299.859 108.253 299.967 107.847 299.967 107.386C299.967 106.932 299.859 106.534 299.643 106.193C299.427 105.847 299.131 105.577 298.756 105.384C298.381 105.185 297.944 105.085 297.444 105.085C296.95 105.085 296.512 105.185 296.131 105.384C295.751 105.577 295.452 105.847 295.237 106.193C295.026 106.534 294.921 106.932 294.921 107.386C294.921 107.847 295.029 108.253 295.245 108.605C295.461 108.957 295.759 109.233 296.14 109.432C296.521 109.631 296.955 109.73 297.444 109.73ZM329.48 102.307C330.378 102.307 331.242 102.457 332.071 102.759C332.907 103.06 333.651 103.54 334.304 104.199C334.963 104.858 335.483 105.733 335.864 106.824C336.25 107.909 336.446 109.241 336.452 110.821C336.452 112.304 336.284 113.628 335.949 114.793C335.62 115.952 335.145 116.938 334.526 117.75C333.907 118.562 333.159 119.182 332.284 119.608C331.409 120.028 330.432 120.239 329.353 120.239C328.188 120.239 327.159 120.014 326.267 119.565C325.375 119.111 324.657 118.494 324.111 117.716C323.571 116.932 323.245 116.051 323.131 115.074H326.77C326.912 115.71 327.211 116.205 327.665 116.557C328.12 116.903 328.682 117.077 329.353 117.077C330.489 117.077 331.353 116.582 331.944 115.594C332.534 114.599 332.833 113.239 332.838 111.511H332.719C332.458 112.023 332.105 112.463 331.662 112.832C331.219 113.196 330.711 113.477 330.137 113.676C329.569 113.875 328.963 113.974 328.321 113.974C327.293 113.974 326.375 113.733 325.569 113.25C324.762 112.767 324.125 112.102 323.659 111.256C323.194 110.409 322.961 109.443 322.961 108.358C322.955 107.188 323.225 106.145 323.77 105.23C324.316 104.315 325.077 103.599 326.054 103.082C327.037 102.56 328.179 102.301 329.48 102.307ZM329.506 105.205C328.932 105.205 328.421 105.341 327.972 105.614C327.529 105.886 327.177 106.253 326.915 106.713C326.659 107.173 326.534 107.687 326.54 108.256C326.54 108.83 326.665 109.347 326.915 109.807C327.171 110.261 327.517 110.625 327.955 110.898C328.398 111.165 328.904 111.298 329.472 111.298C329.898 111.298 330.293 111.219 330.657 111.06C331.02 110.901 331.336 110.682 331.603 110.403C331.875 110.119 332.088 109.793 332.242 109.423C332.395 109.054 332.472 108.662 332.472 108.247C332.466 107.696 332.336 107.19 332.08 106.73C331.824 106.27 331.472 105.901 331.023 105.622C330.574 105.344 330.069 105.205 329.506 105.205ZM353.931 100.491V122.062H347.207V119.344H350.42V103.202H347.207V100.491H353.931Z" fill="black"/>
<path d="M231.751 37.1087V13.7401H239.036V16.6761H235.555V34.1634H239.036V37.1087H231.751Z" fill="black"/>
<path d="M364.885 99.7401V123.109H357.6V120.163H361.081V102.676H357.6V99.7401H364.885Z" fill="black"/>
<rect x="0.75" y="1.75" width="45.123" height="45.123" rx="2.25" fill="white"/>
<rect x="0.75" y="1.75" width="45.123" height="45.123" rx="2.25" stroke="black" stroke-width="1.5"/>
<rect x="0.75" y="1.75" width="45.123" height="45.123" rx="2.25" stroke="black" stroke-opacity="0.2" stroke-width="1.5"/>
<rect x="45.9375" y="1.75" width="45.123" height="45.123" rx="2.25" fill="white"/>
<rect x="45.9375" y="1.75" width="45.123" height="45.123" rx="2.25" stroke="black" stroke-width="1.5"/>
<rect x="45.9375" y="1.75" width="45.123" height="45.123" rx="2.25" stroke="black" stroke-opacity="0.2" stroke-width="1.5"/>
<rect x="91.125" y="1.75" width="45.123" height="45.123" rx="2.25" fill="white"/>
<rect x="91.125" y="1.75" width="45.123" height="45.123" rx="2.25" stroke="black" stroke-width="1.5"/>
<rect x="91.125" y="1.75" width="45.123" height="45.123" rx="2.25" stroke="black" stroke-opacity="0.2" stroke-width="1.5"/>
<path d="M25.8618 16.6479V31.1934H23.6601V18.8496H23.5748L20.0947 21.1223V19.0201L23.724 16.6479H25.8618Z" fill="black"/>
<path d="M63.7645 31.1934V29.6025L68.6863 24.503C69.2119 23.949 69.6451 23.4637 69.986 23.0471C70.3317 22.6257 70.5897 22.2256 70.7602 21.8468C70.9306 21.468 71.0159 21.0655 71.0159 20.6394C71.0159 20.1564 70.9022 19.7398 70.675 19.3894C70.4477 19.0343 70.1376 18.762 69.7446 18.5726C69.3516 18.3785 68.9089 18.2814 68.4164 18.2814C67.8956 18.2814 67.4411 18.388 67.0528 18.601C66.6645 18.8141 66.3663 19.1148 66.1579 19.503C65.9496 19.8913 65.8454 20.3458 65.8454 20.8667H63.7503C63.7503 19.9812 63.9538 19.2071 64.361 18.5442C64.7682 17.8813 65.327 17.3676 66.0372 17.003C66.7474 16.6337 67.5547 16.449 68.4591 16.449C69.3729 16.449 70.1778 16.6313 70.8738 16.9959C71.5746 17.3558 72.1215 17.8482 72.5145 18.4732C72.9074 19.0935 73.1039 19.7942 73.1039 20.5755C73.1039 21.1152 73.0021 21.6432 72.7985 22.1593C72.5997 22.6754 72.2517 23.2507 71.7545 23.8851C71.2574 24.5149 70.5661 25.2795 69.6806 26.1792L66.79 29.2047V29.3113H73.3383V31.1934H63.7645Z" fill="black"/>
<path d="M113.345 31.3922C112.369 31.3922 111.498 31.2241 110.731 30.888C109.969 30.5518 109.365 30.0854 108.92 29.4888C108.48 28.8875 108.243 28.1915 108.21 27.4007H110.44C110.468 27.8316 110.613 28.2057 110.873 28.5229C111.138 28.8354 111.484 29.0769 111.91 29.2473C112.336 29.4178 112.81 29.503 113.331 29.503C113.903 29.503 114.41 29.4036 114.85 29.2047C115.295 29.0059 115.644 28.7289 115.894 28.3738C116.145 28.0139 116.271 27.5996 116.271 27.1309C116.271 26.6432 116.145 26.2147 115.894 25.8453C115.648 25.4713 115.286 25.1777 114.808 24.9647C114.334 24.7516 113.761 24.6451 113.089 24.6451H111.86V22.8553H113.089C113.629 22.8553 114.102 22.7582 114.51 22.5641C114.921 22.37 115.243 22.1001 115.475 21.7544C115.707 21.4041 115.823 20.9945 115.823 20.5257C115.823 20.0759 115.722 19.6853 115.518 19.3539C115.319 19.0177 115.035 18.7549 114.666 18.5655C114.301 18.3761 113.87 18.2814 113.373 18.2814C112.9 18.2814 112.457 18.369 112.045 18.5442C111.638 18.7147 111.306 18.9609 111.051 19.2828C110.795 19.6001 110.658 19.9812 110.639 20.4263H108.515C108.539 19.6403 108.771 18.949 109.211 18.3524C109.656 17.7559 110.243 17.2895 110.973 16.9533C111.702 16.6171 112.511 16.449 113.402 16.449C114.334 16.449 115.139 16.6313 115.816 16.9959C116.498 17.3558 117.024 17.8364 117.393 18.4377C117.767 19.039 117.952 19.6971 117.947 20.4121C117.952 21.2265 117.724 21.9178 117.265 22.486C116.811 23.0542 116.205 23.4353 115.447 23.6294V23.7431C116.413 23.8899 117.161 24.2734 117.691 24.8936C118.226 25.5139 118.492 26.2833 118.487 27.2019C118.492 28.0021 118.269 28.7194 117.819 29.3539C117.374 29.9883 116.766 30.4879 115.994 30.8525C115.222 31.2123 114.339 31.3922 113.345 31.3922Z" fill="black"/>
<rect x="0.75" y="46.9385" width="45.123" height="45.123" rx="2.25" fill="white"/>
<rect x="0.75" y="46.9385" width="45.123" height="45.123" rx="2.25" stroke="black" stroke-width="1.5"/>
<rect x="0.75" y="46.9385" width="45.123" height="45.123" rx="2.25" stroke="black" stroke-opacity="0.2" stroke-width="1.5"/>
<rect x="45.9375" y="46.9385" width="45.123" height="45.123" rx="2.25" fill="white"/>
<rect x="45.9375" y="46.9385" width="45.123" height="45.123" rx="2.25" stroke="black" stroke-width="1.5"/>
<rect x="45.9375" y="46.9385" width="45.123" height="45.123" rx="2.25" stroke="black" stroke-opacity="0.2" stroke-width="1.5"/>
<rect x="91.125" y="46.9385" width="45.123" height="45.123" rx="2.25" fill="white"/>
<rect x="91.125" y="46.9385" width="45.123" height="45.123" rx="2.25" stroke="black" stroke-width="1.5"/>
<rect x="91.125" y="46.9385" width="45.123" height="45.123" rx="2.25" stroke="black" stroke-opacity="0.2" stroke-width="1.5"/>
<path d="M18.2215 74.2587V72.4831L24.507 62.5542H25.9062V65.1678H25.0184L20.5226 72.2843V72.3979H29.1377V74.2587H18.2215ZM25.1178 77.0996V73.7189L25.132 72.9093V62.5542H27.213V77.0996H25.1178Z" fill="black"/>
<path d="M68.4972 77.2985C67.6071 77.2985 66.8069 77.128 66.0967 76.7871C65.3912 76.4415 64.8277 75.968 64.4063 75.3667C63.9849 74.7653 63.76 74.0788 63.7316 73.307H65.8623C65.9144 73.932 66.1914 74.4457 66.6933 74.8482C67.1951 75.2507 67.7965 75.4519 68.4972 75.4519C69.0559 75.4519 69.5507 75.324 69.9816 75.0684C70.4172 74.8079 70.7581 74.4505 71.0043 73.9959C71.2553 73.5414 71.3808 73.0229 71.3808 72.4405C71.3808 71.8487 71.2529 71.3207 70.9972 70.8567C70.7416 70.3927 70.3888 70.0281 69.939 69.763C69.4939 69.4978 68.9826 69.3629 68.4049 69.3581C67.9646 69.3581 67.5219 69.4339 67.0768 69.5854C66.6317 69.7369 66.2719 69.9358 65.9972 70.182L63.9873 69.8837L64.804 62.5542H72.8012V64.4363H66.6293L66.1677 68.5059H66.2529C66.537 68.2312 66.9134 68.0016 67.3822 67.8169C67.8557 67.6323 68.3623 67.54 68.9021 67.54C69.7875 67.54 70.5758 67.7507 71.2671 68.1721C71.9631 68.5935 72.51 69.1687 72.9077 69.8979C73.3102 70.6223 73.5091 71.4557 73.5043 72.3979C73.5091 73.3401 73.296 74.1806 72.8651 74.9192C72.439 75.6578 71.8471 76.2402 71.0896 76.6664C70.3367 77.0878 69.4726 77.2985 68.4972 77.2985Z" fill="black"/>
<path d="M113.447 77.2985C112.798 77.289 112.159 77.1706 111.529 76.9434C110.904 76.7161 110.336 76.3373 109.825 75.807C109.313 75.2767 108.904 74.5641 108.596 73.6692C108.293 72.7743 108.141 71.6569 108.141 70.3169C108.141 69.048 108.267 67.9211 108.518 66.9363C108.774 65.9514 109.14 65.1204 109.619 64.4434C110.097 63.7615 110.675 63.2431 111.352 62.888C112.029 62.5328 112.789 62.3553 113.631 62.3553C114.498 62.3553 115.267 62.5257 115.94 62.8667C116.612 63.2076 117.157 63.6787 117.573 64.28C117.995 64.8813 118.262 65.5655 118.376 66.3326H116.21C116.063 65.7265 115.772 65.2317 115.336 64.8482C114.9 64.4647 114.332 64.2729 113.631 64.2729C112.566 64.2729 111.735 64.7369 111.139 65.6649C110.547 66.593 110.248 67.8832 110.244 69.5357H110.35C110.601 69.1238 110.909 68.7734 111.274 68.4846C111.643 68.191 112.055 67.9661 112.509 67.8098C112.969 67.6489 113.452 67.5684 113.958 67.5684C114.801 67.5684 115.563 67.7743 116.245 68.1863C116.932 68.5935 117.479 69.1569 117.886 69.8766C118.293 70.5963 118.497 71.4202 118.497 72.3482C118.497 73.2762 118.286 74.1167 117.864 74.8695C117.448 75.6223 116.861 76.2189 116.103 76.6593C115.346 77.0949 114.46 77.3079 113.447 77.2985ZM113.44 75.4519C113.998 75.4519 114.498 75.3146 114.938 75.04C115.379 74.7653 115.727 74.396 115.982 73.932C116.238 73.468 116.366 72.9495 116.366 72.3766C116.366 71.8179 116.24 71.3089 115.989 70.8496C115.743 70.3903 115.402 70.0257 114.967 69.7559C114.536 69.486 114.043 69.351 113.489 69.351C113.068 69.351 112.677 69.4315 112.318 69.5925C111.962 69.7535 111.65 69.976 111.38 70.2601C111.11 70.5442 110.897 70.8709 110.741 71.2402C110.589 71.6048 110.514 71.9907 110.514 72.3979C110.514 72.9424 110.639 73.4467 110.89 73.9107C111.146 74.3747 111.494 74.7488 111.934 75.0328C112.379 75.3122 112.881 75.4519 113.44 75.4519Z" fill="black"/>
<rect x="0.75" y="92.127" width="45.123" height="45.123" rx="2.25" fill="white"/>
<rect x="0.75" y="92.127" width="45.123" height="45.123" rx="2.25" stroke="black" stroke-width="1.5"/>
<rect x="0.75" y="92.127" width="45.123" height="45.123" rx="2.25" stroke="black" stroke-opacity="0.2" stroke-width="1.5"/>
<rect x="45.9375" y="92.127" width="45.123" height="45.123" rx="2.25" fill="white"/>
<rect x="45.9375" y="92.127" width="45.123" height="45.123" rx="2.25" stroke="black" stroke-width="1.5"/>
<rect x="45.9375" y="92.127" width="45.123" height="45.123" rx="2.25" stroke="black" stroke-opacity="0.2" stroke-width="1.5"/>
<rect x="91.125" y="92.127" width="45.123" height="45.123" rx="2.25" fill="white"/>
<rect x="91.125" y="92.127" width="45.123" height="45.123" rx="2.25" stroke="black" stroke-width="1.5"/>
<rect x="91.125" y="92.127" width="45.123" height="45.123" rx="2.25" stroke="black" stroke-opacity="0.2" stroke-width="1.5"/>
<path d="M19.0502 123.723L25.3996 111.166V111.059H18.0559V109.177H27.6723V111.123L21.3442 123.723H19.0502Z" fill="black"/>
<path d="M68.4937 123.922C67.4757 123.922 66.5761 123.746 65.7948 123.396C65.0183 123.046 64.4099 122.563 63.9695 121.947C63.5292 121.332 63.3114 120.631 63.3161 119.845C63.3114 119.229 63.4369 118.663 63.6925 118.147C63.953 117.627 64.3057 117.193 64.7508 116.848C65.1959 116.497 65.693 116.275 66.2423 116.18V116.095C65.5178 115.92 64.9378 115.531 64.5022 114.93C64.0666 114.329 63.8512 113.637 63.8559 112.856C63.8512 112.113 64.0477 111.45 64.4454 110.868C64.8478 110.28 65.3995 109.819 66.1002 109.483C66.801 109.146 67.5988 108.978 68.4937 108.978C69.3791 108.978 70.1698 109.149 70.8658 109.49C71.5666 109.826 72.1182 110.288 72.5207 110.875C72.9231 111.457 73.1267 112.118 73.1315 112.856C73.1267 113.637 72.9042 114.329 72.4639 114.93C72.0235 115.531 71.4506 115.92 70.7451 116.095V116.18C71.2896 116.275 71.7797 116.497 72.2153 116.848C72.6556 117.193 73.006 117.627 73.2664 118.147C73.5316 118.663 73.6665 119.229 73.6712 119.845C73.6665 120.631 73.444 121.332 73.0036 121.947C72.5633 122.563 71.9525 123.046 71.1712 123.396C70.3947 123.746 69.5022 123.922 68.4937 123.922ZM68.4937 122.125C69.095 122.125 69.6158 122.025 70.0562 121.826C70.4965 121.623 70.8374 121.341 71.0789 120.981C71.3204 120.617 71.4435 120.19 71.4482 119.703C71.4435 119.196 71.3109 118.749 71.0505 118.36C70.7948 117.972 70.4468 117.667 70.0065 117.444C69.5661 117.222 69.0619 117.11 68.4937 117.11C67.9208 117.11 67.4118 117.222 66.9667 117.444C66.5216 117.667 66.1712 117.972 65.9156 118.36C65.6599 118.749 65.5344 119.196 65.5391 119.703C65.5344 120.19 65.6504 120.617 65.8871 120.981C66.1286 121.341 66.4719 121.623 66.917 121.826C67.3621 122.025 67.8876 122.125 68.4937 122.125ZM68.4937 115.356C68.9766 115.356 69.4051 115.259 69.7792 115.065C70.1532 114.871 70.4468 114.601 70.6599 114.255C70.8777 113.91 70.9889 113.505 70.9937 113.041C70.9889 112.586 70.88 112.189 70.667 111.848C70.4586 111.507 70.1674 111.244 69.7934 111.059C69.4193 110.87 68.9861 110.775 68.4937 110.775C67.9918 110.775 67.5514 110.87 67.1727 111.059C66.7986 111.244 66.5074 111.507 66.2991 111.848C66.0907 112.189 65.9889 112.586 65.9937 113.041C65.9889 113.505 66.0931 113.91 66.3062 114.255C66.5192 114.601 66.8128 114.871 67.1869 115.065C67.5657 115.259 68.0013 115.356 68.4937 115.356Z" fill="black"/>
<path d="M113.205 108.978C113.854 108.983 114.493 109.101 115.123 109.333C115.753 109.565 116.321 109.944 116.828 110.47C117.339 110.995 117.746 111.706 118.049 112.6C118.357 113.491 118.513 114.599 118.518 115.924C118.518 117.198 118.39 118.332 118.134 119.326C117.879 120.316 117.512 121.152 117.033 121.833C116.56 122.515 115.985 123.034 115.308 123.389C114.631 123.744 113.868 123.922 113.021 123.922C112.154 123.922 111.385 123.751 110.712 123.41C110.04 123.069 109.493 122.598 109.072 121.997C108.65 121.391 108.388 120.695 108.283 119.909H110.45C110.592 120.534 110.881 121.04 111.316 121.429C111.756 121.812 112.325 122.004 113.021 122.004C114.086 122.004 114.917 121.54 115.514 120.612C116.11 119.679 116.411 118.377 116.416 116.706H116.302C116.056 117.113 115.748 117.463 115.379 117.757C115.014 118.05 114.605 118.278 114.15 118.439C113.695 118.6 113.21 118.68 112.694 118.68C111.856 118.68 111.094 118.474 110.407 118.062C109.721 117.65 109.174 117.084 108.766 116.365C108.359 115.645 108.156 114.824 108.156 113.9C108.156 112.982 108.364 112.148 108.781 111.4C109.202 110.652 109.789 110.06 110.542 109.625C111.3 109.184 112.187 108.969 113.205 108.978ZM113.212 110.825C112.658 110.825 112.159 110.962 111.714 111.237C111.274 111.507 110.926 111.874 110.67 112.338C110.414 112.797 110.286 113.308 110.286 113.872C110.286 114.435 110.409 114.947 110.656 115.406C110.907 115.86 111.247 116.223 111.678 116.493C112.114 116.758 112.611 116.89 113.17 116.89C113.587 116.89 113.975 116.81 114.335 116.649C114.694 116.488 115.009 116.265 115.279 115.981C115.549 115.692 115.76 115.366 115.911 115.001C116.063 114.636 116.139 114.253 116.139 113.85C116.139 113.315 116.011 112.818 115.755 112.359C115.504 111.9 115.158 111.53 114.718 111.251C114.278 110.967 113.776 110.825 113.212 110.825Z" fill="black"/>
<path d="M203.061 70.0607C203.646 69.4749 203.646 68.5251 203.061 67.9393L193.515 58.3934C192.929 57.8076 191.979 57.8076 191.393 58.3934C190.808 58.9792 190.808 59.9289 191.393 60.5147L199.879 69L191.393 77.4853C190.808 78.0711 190.808 79.0208 191.393 79.6066C191.979 80.1924 192.929 80.1924 193.515 79.6066L203.061 70.0607ZM166 70.5H202V67.5H166V70.5Z" fill="black"/>
</svg>
