<svg width="436" height="832" viewBox="0 0 436 832" fill="none" xmlns="http://www.w3.org/2000/svg">
<path d="M288.396 132.192C287.878 132.192 287.407 132.094 286.985 131.899C286.562 131.7 286.226 131.414 285.978 131.041C285.729 130.665 285.605 130.21 285.605 129.678C285.605 129.209 285.697 128.829 285.882 128.538C286.067 128.243 286.313 128.012 286.622 127.845C286.931 127.678 287.272 127.554 287.645 127.472C288.021 127.387 288.4 127.32 288.78 127.27C289.277 127.206 289.68 127.158 289.989 127.126C290.301 127.091 290.529 127.032 290.671 126.95C290.816 126.869 290.889 126.727 290.889 126.524V126.482C290.889 125.956 290.745 125.548 290.458 125.256C290.173 124.965 289.742 124.82 289.163 124.82C288.563 124.82 288.093 124.951 287.752 125.214C287.411 125.477 287.171 125.757 287.032 126.055L285.839 125.629C286.052 125.132 286.336 124.745 286.692 124.468C287.05 124.187 287.441 123.992 287.863 123.882C288.29 123.768 288.709 123.712 289.121 123.712C289.383 123.712 289.685 123.744 290.026 123.808C290.371 123.868 290.703 123.994 291.022 124.186C291.345 124.377 291.613 124.667 291.827 125.054C292.04 125.441 292.146 125.96 292.146 126.609V132H290.889V130.892H290.825C290.74 131.07 290.598 131.26 290.399 131.462C290.2 131.664 289.936 131.837 289.605 131.979C289.275 132.121 288.872 132.192 288.396 132.192ZM288.588 131.062C289.085 131.062 289.504 130.965 289.845 130.77C290.189 130.574 290.449 130.322 290.623 130.013C290.8 129.704 290.889 129.379 290.889 129.038V127.888C290.836 127.952 290.719 128.01 290.537 128.064C290.36 128.113 290.154 128.158 289.92 128.197C289.689 128.232 289.463 128.264 289.243 128.293C289.026 128.317 288.851 128.339 288.716 128.357C288.389 128.399 288.084 128.468 287.8 128.564C287.519 128.657 287.292 128.797 287.118 128.985C286.947 129.17 286.862 129.422 286.862 129.741C286.862 130.178 287.024 130.509 287.347 130.732C287.673 130.952 288.087 131.062 288.588 131.062ZM295.378 123.818L297.338 127.163L299.299 123.818H300.747L298.105 127.909L300.747 132H299.299L297.338 128.825L295.378 132H293.929L296.529 127.909L293.929 123.818H295.378ZM302.541 132V123.818H303.798V132H302.541ZM303.18 122.455C302.935 122.455 302.724 122.371 302.547 122.204C302.373 122.037 302.286 121.837 302.286 121.602C302.286 121.368 302.373 121.167 302.547 121C302.724 120.833 302.935 120.75 303.18 120.75C303.425 120.75 303.635 120.833 303.809 121C303.987 121.167 304.075 121.368 304.075 121.602C304.075 121.837 303.987 122.037 303.809 122.204C303.635 122.371 303.425 122.455 303.18 122.455ZM311.896 125.651L310.767 125.97C310.696 125.782 310.591 125.599 310.453 125.422C310.318 125.24 310.133 125.091 309.899 124.974C309.664 124.857 309.364 124.798 308.998 124.798C308.498 124.798 308.081 124.914 307.747 125.145C307.416 125.372 307.251 125.661 307.251 126.013C307.251 126.325 307.365 126.572 307.592 126.753C307.82 126.934 308.175 127.085 308.658 127.206L309.872 127.504C310.604 127.682 311.149 127.953 311.507 128.319C311.866 128.681 312.045 129.148 312.045 129.72C312.045 130.189 311.91 130.608 311.641 130.977C311.374 131.347 311.001 131.638 310.522 131.851C310.043 132.064 309.485 132.17 308.849 132.17C308.015 132.17 307.324 131.989 306.777 131.627C306.23 131.265 305.884 130.736 305.739 130.04L306.932 129.741C307.045 130.182 307.26 130.512 307.576 130.732C307.896 130.952 308.313 131.062 308.828 131.062C309.414 131.062 309.879 130.938 310.224 130.69C310.572 130.437 310.746 130.136 310.746 129.784C310.746 129.5 310.646 129.262 310.447 129.07C310.248 128.875 309.943 128.729 309.531 128.634L308.168 128.314C307.418 128.136 306.868 127.861 306.516 127.488C306.168 127.112 305.994 126.641 305.994 126.077C305.994 125.615 306.124 125.207 306.383 124.852C306.646 124.496 307.003 124.218 307.454 124.015C307.908 123.813 308.423 123.712 308.998 123.712C309.808 123.712 310.444 123.889 310.905 124.244C311.371 124.599 311.701 125.068 311.896 125.651ZM317.475 132.149C316.672 132.149 315.988 131.931 315.424 131.494C314.859 131.054 314.428 130.416 314.129 129.582C313.831 128.744 313.682 127.732 313.682 126.545C313.682 125.366 313.831 124.36 314.129 123.525C314.431 122.687 314.865 122.048 315.429 121.608C315.997 121.164 316.679 120.942 317.475 120.942C318.27 120.942 318.95 121.164 319.515 121.608C320.083 122.048 320.516 122.687 320.814 123.525C321.116 124.36 321.267 125.366 321.267 126.545C321.267 127.732 321.118 128.744 320.82 129.582C320.521 130.416 320.09 131.054 319.525 131.494C318.961 131.931 318.277 132.149 317.475 132.149ZM317.475 130.977C318.27 130.977 318.888 130.594 319.328 129.827C319.769 129.06 319.989 127.966 319.989 126.545C319.989 125.601 319.888 124.797 319.685 124.132C319.486 123.468 319.199 122.962 318.822 122.614C318.449 122.266 318 122.092 317.475 122.092C316.686 122.092 316.07 122.481 315.626 123.259C315.182 124.033 314.96 125.129 314.96 126.545C314.96 127.49 315.06 128.293 315.259 128.953C315.458 129.614 315.743 130.116 316.116 130.461C316.493 130.805 316.945 130.977 317.475 130.977Z" fill="black"/>
<path d="M378.597 132.192C378.079 132.192 377.608 132.094 377.186 131.899C376.763 131.7 376.428 131.414 376.179 131.041C375.93 130.665 375.806 130.21 375.806 129.678C375.806 129.209 375.898 128.829 376.083 128.538C376.268 128.243 376.515 128.012 376.824 127.845C377.132 127.678 377.473 127.554 377.846 127.472C378.223 127.387 378.601 127.32 378.981 127.27C379.478 127.206 379.881 127.158 380.19 127.126C380.502 127.091 380.73 127.032 380.872 126.95C381.017 126.869 381.09 126.727 381.09 126.524V126.482C381.09 125.956 380.946 125.548 380.659 125.256C380.375 124.965 379.943 124.82 379.364 124.82C378.764 124.82 378.294 124.951 377.953 125.214C377.612 125.477 377.372 125.757 377.234 126.055L376.04 125.629C376.254 125.132 376.538 124.745 376.893 124.468C377.251 124.187 377.642 123.992 378.065 123.882C378.491 123.768 378.91 123.712 379.322 123.712C379.585 123.712 379.886 123.744 380.227 123.808C380.572 123.868 380.904 123.994 381.223 124.186C381.547 124.377 381.815 124.667 382.028 125.054C382.241 125.441 382.347 125.96 382.347 126.609V132H381.09V130.892H381.026C380.941 131.07 380.799 131.26 380.6 131.462C380.401 131.664 380.137 131.837 379.806 131.979C379.476 132.121 379.073 132.192 378.597 132.192ZM378.789 131.062C379.286 131.062 379.705 130.965 380.046 130.77C380.391 130.574 380.65 130.322 380.824 130.013C381.001 129.704 381.09 129.379 381.09 129.038V127.888C381.037 127.952 380.92 128.01 380.739 128.064C380.561 128.113 380.355 128.158 380.121 128.197C379.89 128.232 379.664 128.264 379.444 128.293C379.228 128.317 379.052 128.339 378.917 128.357C378.59 128.399 378.285 128.468 378.001 128.564C377.72 128.657 377.493 128.797 377.319 128.985C377.148 129.17 377.063 129.422 377.063 129.741C377.063 130.178 377.225 130.509 377.548 130.732C377.875 130.952 378.288 131.062 378.789 131.062ZM385.579 123.818L387.54 127.163L389.5 123.818H390.949L388.307 127.909L390.949 132H389.5L387.54 128.825L385.579 132H384.13L386.73 127.909L384.13 123.818H385.579ZM392.742 132V123.818H393.999V132H392.742ZM393.382 122.455C393.137 122.455 392.925 122.371 392.748 122.204C392.574 122.037 392.487 121.837 392.487 121.602C392.487 121.368 392.574 121.167 392.748 121C392.925 120.833 393.137 120.75 393.382 120.75C393.627 120.75 393.836 120.833 394.01 121C394.188 121.167 394.276 121.368 394.276 121.602C394.276 121.837 394.188 122.037 394.01 122.204C393.836 122.371 393.627 122.455 393.382 122.455ZM402.097 125.651L400.968 125.97C400.897 125.782 400.792 125.599 400.654 125.422C400.519 125.24 400.334 125.091 400.1 124.974C399.866 124.857 399.565 124.798 399.2 124.798C398.699 124.798 398.282 124.914 397.948 125.145C397.618 125.372 397.453 125.661 397.453 126.013C397.453 126.325 397.566 126.572 397.793 126.753C398.021 126.934 398.376 127.085 398.859 127.206L400.073 127.504C400.805 127.682 401.35 127.953 401.709 128.319C402.067 128.681 402.247 129.148 402.247 129.72C402.247 130.189 402.112 130.608 401.842 130.977C401.575 131.347 401.203 131.638 400.723 131.851C400.244 132.064 399.686 132.17 399.051 132.17C398.216 132.17 397.525 131.989 396.978 131.627C396.432 131.265 396.085 130.736 395.94 130.04L397.133 129.741C397.247 130.182 397.461 130.512 397.777 130.732C398.097 130.952 398.514 131.062 399.029 131.062C399.615 131.062 400.08 130.938 400.425 130.69C400.773 130.437 400.947 130.136 400.947 129.784C400.947 129.5 400.847 129.262 400.649 129.07C400.45 128.875 400.144 128.729 399.732 128.634L398.369 128.314C397.619 128.136 397.069 127.861 396.717 127.488C396.369 127.112 396.195 126.641 396.195 126.077C396.195 125.615 396.325 125.207 396.584 124.852C396.847 124.496 397.204 124.218 397.655 124.015C398.109 123.813 398.624 123.712 399.2 123.712C400.009 123.712 400.645 123.889 401.107 124.244C401.572 124.599 401.902 125.068 402.097 125.651ZM407.953 121.091V132H406.632V122.476H406.568L403.904 124.244V122.902L406.632 121.091H407.953Z" fill="black"/>
<path d="M278.396 739.192C277.878 739.192 277.407 739.094 276.985 738.899C276.562 738.7 276.226 738.414 275.978 738.041C275.729 737.665 275.605 737.21 275.605 736.678C275.605 736.209 275.697 735.829 275.882 735.538C276.067 735.243 276.313 735.012 276.622 734.845C276.931 734.678 277.272 734.554 277.645 734.472C278.021 734.387 278.4 734.32 278.78 734.27C279.277 734.206 279.68 734.158 279.989 734.126C280.301 734.091 280.529 734.032 280.671 733.95C280.816 733.869 280.889 733.727 280.889 733.524V733.482C280.889 732.956 280.745 732.548 280.458 732.256C280.173 731.965 279.742 731.82 279.163 731.82C278.563 731.82 278.093 731.951 277.752 732.214C277.411 732.477 277.171 732.757 277.032 733.055L275.839 732.629C276.052 732.132 276.336 731.745 276.692 731.468C277.05 731.187 277.441 730.992 277.863 730.882C278.29 730.768 278.709 730.712 279.121 730.712C279.383 730.712 279.685 730.744 280.026 730.808C280.371 730.868 280.703 730.994 281.022 731.186C281.345 731.377 281.613 731.667 281.827 732.054C282.04 732.441 282.146 732.96 282.146 733.609V739H280.889V737.892H280.825C280.74 738.07 280.598 738.26 280.399 738.462C280.2 738.664 279.936 738.837 279.605 738.979C279.275 739.121 278.872 739.192 278.396 739.192ZM278.588 738.062C279.085 738.062 279.504 737.965 279.845 737.77C280.189 737.574 280.449 737.322 280.623 737.013C280.8 736.704 280.889 736.379 280.889 736.038V734.888C280.836 734.952 280.719 735.01 280.537 735.064C280.36 735.113 280.154 735.158 279.92 735.197C279.689 735.232 279.463 735.264 279.243 735.293C279.026 735.317 278.851 735.339 278.716 735.357C278.389 735.399 278.084 735.468 277.8 735.564C277.519 735.657 277.292 735.797 277.118 735.985C276.947 736.17 276.862 736.422 276.862 736.741C276.862 737.178 277.024 737.509 277.347 737.732C277.673 737.952 278.087 738.062 278.588 738.062ZM285.378 730.818L287.338 734.163L289.299 730.818H290.747L288.105 734.909L290.747 739H289.299L287.338 735.825L285.378 739H283.929L286.529 734.909L283.929 730.818H285.378ZM292.541 739V730.818H293.798V739H292.541ZM293.18 729.455C292.935 729.455 292.724 729.371 292.547 729.204C292.373 729.037 292.286 728.837 292.286 728.602C292.286 728.368 292.373 728.167 292.547 728C292.724 727.833 292.935 727.75 293.18 727.75C293.425 727.75 293.635 727.833 293.809 728C293.987 728.167 294.075 728.368 294.075 728.602C294.075 728.837 293.987 729.037 293.809 729.204C293.635 729.371 293.425 729.455 293.18 729.455ZM301.896 732.651L300.767 732.97C300.696 732.782 300.591 732.599 300.453 732.422C300.318 732.24 300.133 732.091 299.899 731.974C299.664 731.857 299.364 731.798 298.998 731.798C298.498 731.798 298.081 731.914 297.747 732.145C297.416 732.372 297.251 732.661 297.251 733.013C297.251 733.325 297.365 733.572 297.592 733.753C297.82 733.934 298.175 734.085 298.658 734.206L299.872 734.504C300.604 734.682 301.149 734.953 301.507 735.319C301.866 735.681 302.045 736.148 302.045 736.72C302.045 737.189 301.91 737.608 301.641 737.977C301.374 738.347 301.001 738.638 300.522 738.851C300.043 739.064 299.485 739.17 298.849 739.17C298.015 739.17 297.324 738.989 296.777 738.627C296.23 738.265 295.884 737.736 295.739 737.04L296.932 736.741C297.045 737.182 297.26 737.512 297.576 737.732C297.896 737.952 298.313 738.062 298.828 738.062C299.414 738.062 299.879 737.938 300.224 737.69C300.572 737.437 300.746 737.136 300.746 736.784C300.746 736.5 300.646 736.262 300.447 736.07C300.248 735.875 299.943 735.729 299.531 735.634L298.168 735.314C297.418 735.136 296.868 734.861 296.516 734.488C296.168 734.112 295.994 733.641 295.994 733.077C295.994 732.615 296.124 732.207 296.383 731.852C296.646 731.496 297.003 731.218 297.454 731.015C297.908 730.813 298.423 730.712 298.998 730.712C299.808 730.712 300.444 730.889 300.905 731.244C301.371 731.599 301.701 732.068 301.896 732.651ZM307.475 739.149C306.672 739.149 305.988 738.931 305.424 738.494C304.859 738.054 304.428 737.416 304.129 736.582C303.831 735.744 303.682 734.732 303.682 733.545C303.682 732.366 303.831 731.36 304.129 730.525C304.431 729.687 304.865 729.048 305.429 728.608C305.997 728.164 306.679 727.942 307.475 727.942C308.27 727.942 308.95 728.164 309.515 728.608C310.083 729.048 310.516 729.687 310.814 730.525C311.116 731.36 311.267 732.366 311.267 733.545C311.267 734.732 311.118 735.744 310.82 736.582C310.521 737.416 310.09 738.054 309.525 738.494C308.961 738.931 308.277 739.149 307.475 739.149ZM307.475 737.977C308.27 737.977 308.888 737.594 309.328 736.827C309.769 736.06 309.989 734.966 309.989 733.545C309.989 732.601 309.888 731.797 309.685 731.132C309.486 730.468 309.199 729.962 308.822 729.614C308.449 729.266 308 729.092 307.475 729.092C306.686 729.092 306.07 729.481 305.626 730.259C305.182 731.033 304.96 732.129 304.96 733.545C304.96 734.49 305.06 735.293 305.259 735.953C305.458 736.614 305.743 737.116 306.116 737.461C306.493 737.805 306.945 737.977 307.475 737.977Z" fill="black"/>
<path d="M325.597 739.192C325.079 739.192 324.608 739.094 324.186 738.899C323.763 738.7 323.428 738.414 323.179 738.041C322.93 737.665 322.806 737.21 322.806 736.678C322.806 736.209 322.898 735.829 323.083 735.538C323.268 735.243 323.515 735.012 323.824 734.845C324.132 734.678 324.473 734.554 324.846 734.472C325.223 734.387 325.601 734.32 325.981 734.27C326.478 734.206 326.881 734.158 327.19 734.126C327.502 734.091 327.73 734.032 327.872 733.95C328.017 733.869 328.09 733.727 328.09 733.524V733.482C328.09 732.956 327.946 732.548 327.659 732.256C327.375 731.965 326.943 731.82 326.364 731.82C325.764 731.82 325.294 731.951 324.953 732.214C324.612 732.477 324.372 732.757 324.234 733.055L323.04 732.629C323.254 732.132 323.538 731.745 323.893 731.468C324.251 731.187 324.642 730.992 325.065 730.882C325.491 730.768 325.91 730.712 326.322 730.712C326.585 730.712 326.886 730.744 327.227 730.808C327.572 730.868 327.904 730.994 328.223 731.186C328.547 731.377 328.815 731.667 329.028 732.054C329.241 732.441 329.347 732.96 329.347 733.609V739H328.09V737.892H328.026C327.941 738.07 327.799 738.26 327.6 738.462C327.401 738.664 327.137 738.837 326.806 738.979C326.476 739.121 326.073 739.192 325.597 739.192ZM325.789 738.062C326.286 738.062 326.705 737.965 327.046 737.77C327.391 737.574 327.65 737.322 327.824 737.013C328.001 736.704 328.09 736.379 328.09 736.038V734.888C328.037 734.952 327.92 735.01 327.739 735.064C327.561 735.113 327.355 735.158 327.121 735.197C326.89 735.232 326.664 735.264 326.444 735.293C326.228 735.317 326.052 735.339 325.917 735.357C325.59 735.399 325.285 735.468 325.001 735.564C324.72 735.657 324.493 735.797 324.319 735.985C324.148 736.17 324.063 736.422 324.063 736.741C324.063 737.178 324.225 737.509 324.548 737.732C324.875 737.952 325.288 738.062 325.789 738.062ZM332.579 730.818L334.54 734.163L336.5 730.818H337.949L335.307 734.909L337.949 739H336.5L334.54 735.825L332.579 739H331.13L333.73 734.909L331.13 730.818H332.579ZM339.742 739V730.818H340.999V739H339.742ZM340.382 729.455C340.137 729.455 339.925 729.371 339.748 729.204C339.574 729.037 339.487 728.837 339.487 728.602C339.487 728.368 339.574 728.167 339.748 728C339.925 727.833 340.137 727.75 340.382 727.75C340.627 727.75 340.836 727.833 341.01 728C341.188 728.167 341.276 728.368 341.276 728.602C341.276 728.837 341.188 729.037 341.01 729.204C340.836 729.371 340.627 729.455 340.382 729.455ZM349.097 732.651L347.968 732.97C347.897 732.782 347.792 732.599 347.654 732.422C347.519 732.24 347.334 732.091 347.1 731.974C346.866 731.857 346.565 731.798 346.2 731.798C345.699 731.798 345.282 731.914 344.948 732.145C344.618 732.372 344.453 732.661 344.453 733.013C344.453 733.325 344.566 733.572 344.793 733.753C345.021 733.934 345.376 734.085 345.859 734.206L347.073 734.504C347.805 734.682 348.35 734.953 348.709 735.319C349.067 735.681 349.247 736.148 349.247 736.72C349.247 737.189 349.112 737.608 348.842 737.977C348.575 738.347 348.203 738.638 347.723 738.851C347.244 739.064 346.686 739.17 346.051 739.17C345.216 739.17 344.525 738.989 343.978 738.627C343.432 738.265 343.085 737.736 342.94 737.04L344.133 736.741C344.247 737.182 344.461 737.512 344.777 737.732C345.097 737.952 345.514 738.062 346.029 738.062C346.615 738.062 347.08 737.938 347.425 737.69C347.773 737.437 347.947 737.136 347.947 736.784C347.947 736.5 347.847 736.262 347.649 736.07C347.45 735.875 347.144 735.729 346.732 735.634L345.369 735.314C344.619 735.136 344.069 734.861 343.717 734.488C343.369 734.112 343.195 733.641 343.195 733.077C343.195 732.615 343.325 732.207 343.584 731.852C343.847 731.496 344.204 731.218 344.655 731.015C345.109 730.813 345.624 730.712 346.2 730.712C347.009 730.712 347.645 730.889 348.107 731.244C348.572 731.599 348.902 732.068 349.097 732.651ZM354.953 728.091V739H353.632V729.476H353.568L350.904 731.244V729.902L353.632 728.091H354.953Z" fill="black"/>
<path d="M296.396 436.192C295.878 436.192 295.407 436.094 294.985 435.899C294.562 435.7 294.226 435.414 293.978 435.041C293.729 434.665 293.605 434.21 293.605 433.678C293.605 433.209 293.697 432.829 293.882 432.538C294.067 432.243 294.313 432.012 294.622 431.845C294.931 431.678 295.272 431.554 295.645 431.472C296.021 431.387 296.4 431.32 296.78 431.27C297.277 431.206 297.68 431.158 297.989 431.126C298.301 431.091 298.529 431.032 298.671 430.95C298.816 430.869 298.889 430.727 298.889 430.524V430.482C298.889 429.956 298.745 429.548 298.458 429.256C298.173 428.965 297.742 428.82 297.163 428.82C296.563 428.82 296.093 428.951 295.752 429.214C295.411 429.477 295.171 429.757 295.032 430.055L293.839 429.629C294.052 429.132 294.336 428.745 294.692 428.468C295.05 428.187 295.441 427.992 295.863 427.882C296.29 427.768 296.709 427.712 297.121 427.712C297.383 427.712 297.685 427.744 298.026 427.808C298.371 427.868 298.703 427.994 299.022 428.186C299.345 428.377 299.613 428.667 299.827 429.054C300.04 429.441 300.146 429.96 300.146 430.609V436H298.889V434.892H298.825C298.74 435.07 298.598 435.26 298.399 435.462C298.2 435.664 297.936 435.837 297.605 435.979C297.275 436.121 296.872 436.192 296.396 436.192ZM296.588 435.062C297.085 435.062 297.504 434.965 297.845 434.77C298.189 434.574 298.449 434.322 298.623 434.013C298.8 433.704 298.889 433.379 298.889 433.038V431.888C298.836 431.952 298.719 432.01 298.537 432.064C298.36 432.113 298.154 432.158 297.92 432.197C297.689 432.232 297.463 432.264 297.243 432.293C297.026 432.317 296.851 432.339 296.716 432.357C296.389 432.399 296.084 432.468 295.8 432.564C295.519 432.657 295.292 432.797 295.118 432.985C294.947 433.17 294.862 433.422 294.862 433.741C294.862 434.178 295.024 434.509 295.347 434.732C295.673 434.952 296.087 435.062 296.588 435.062ZM303.378 427.818L305.338 431.163L307.299 427.818H308.747L306.105 431.909L308.747 436H307.299L305.338 432.825L303.378 436H301.929L304.529 431.909L301.929 427.818H303.378ZM310.541 436V427.818H311.798V436H310.541ZM311.18 426.455C310.935 426.455 310.724 426.371 310.547 426.204C310.373 426.037 310.286 425.837 310.286 425.602C310.286 425.368 310.373 425.167 310.547 425C310.724 424.833 310.935 424.75 311.18 424.75C311.425 424.75 311.635 424.833 311.809 425C311.987 425.167 312.075 425.368 312.075 425.602C312.075 425.837 311.987 426.037 311.809 426.204C311.635 426.371 311.425 426.455 311.18 426.455ZM319.896 429.651L318.767 429.97C318.696 429.782 318.591 429.599 318.453 429.422C318.318 429.24 318.133 429.091 317.899 428.974C317.664 428.857 317.364 428.798 316.998 428.798C316.498 428.798 316.081 428.914 315.747 429.145C315.416 429.372 315.251 429.661 315.251 430.013C315.251 430.325 315.365 430.572 315.592 430.753C315.82 430.934 316.175 431.085 316.658 431.206L317.872 431.504C318.604 431.682 319.149 431.953 319.507 432.319C319.866 432.681 320.045 433.148 320.045 433.72C320.045 434.189 319.91 434.608 319.641 434.977C319.374 435.347 319.001 435.638 318.522 435.851C318.043 436.064 317.485 436.17 316.849 436.17C316.015 436.17 315.324 435.989 314.777 435.627C314.23 435.265 313.884 434.736 313.739 434.04L314.932 433.741C315.045 434.182 315.26 434.512 315.576 434.732C315.896 434.952 316.313 435.062 316.828 435.062C317.414 435.062 317.879 434.938 318.224 434.69C318.572 434.437 318.746 434.136 318.746 433.784C318.746 433.5 318.646 433.262 318.447 433.07C318.248 432.875 317.943 432.729 317.531 432.634L316.168 432.314C315.418 432.136 314.868 431.861 314.516 431.488C314.168 431.112 313.994 430.641 313.994 430.077C313.994 429.615 314.124 429.207 314.383 428.852C314.646 428.496 315.003 428.218 315.454 428.015C315.908 427.813 316.423 427.712 316.998 427.712C317.808 427.712 318.444 427.889 318.905 428.244C319.371 428.599 319.701 429.068 319.896 429.651ZM325.475 436.149C324.672 436.149 323.988 435.931 323.424 435.494C322.859 435.054 322.428 434.416 322.129 433.582C321.831 432.744 321.682 431.732 321.682 430.545C321.682 429.366 321.831 428.36 322.129 427.525C322.431 426.687 322.865 426.048 323.429 425.608C323.997 425.164 324.679 424.942 325.475 424.942C326.27 424.942 326.95 425.164 327.515 425.608C328.083 426.048 328.516 426.687 328.814 427.525C329.116 428.36 329.267 429.366 329.267 430.545C329.267 431.732 329.118 432.744 328.82 433.582C328.521 434.416 328.09 435.054 327.525 435.494C326.961 435.931 326.277 436.149 325.475 436.149ZM325.475 434.977C326.27 434.977 326.888 434.594 327.328 433.827C327.769 433.06 327.989 431.966 327.989 430.545C327.989 429.601 327.888 428.797 327.685 428.132C327.486 427.468 327.199 426.962 326.822 426.614C326.449 426.266 326 426.092 325.475 426.092C324.686 426.092 324.07 426.481 323.626 427.259C323.182 428.033 322.96 429.129 322.96 430.545C322.96 431.49 323.06 432.293 323.259 432.953C323.458 433.614 323.743 434.116 324.116 434.461C324.493 434.805 324.945 434.977 325.475 434.977Z" fill="black"/>
<path d="M344.597 436.192C344.079 436.192 343.608 436.094 343.186 435.899C342.763 435.7 342.428 435.414 342.179 435.041C341.93 434.665 341.806 434.21 341.806 433.678C341.806 433.209 341.898 432.829 342.083 432.538C342.268 432.243 342.515 432.012 342.824 431.845C343.132 431.678 343.473 431.554 343.846 431.472C344.223 431.387 344.601 431.32 344.981 431.27C345.478 431.206 345.881 431.158 346.19 431.126C346.502 431.091 346.73 431.032 346.872 430.95C347.017 430.869 347.09 430.727 347.09 430.524V430.482C347.09 429.956 346.946 429.548 346.659 429.256C346.375 428.965 345.943 428.82 345.364 428.82C344.764 428.82 344.294 428.951 343.953 429.214C343.612 429.477 343.372 429.757 343.234 430.055L342.04 429.629C342.254 429.132 342.538 428.745 342.893 428.468C343.251 428.187 343.642 427.992 344.065 427.882C344.491 427.768 344.91 427.712 345.322 427.712C345.585 427.712 345.886 427.744 346.227 427.808C346.572 427.868 346.904 427.994 347.223 428.186C347.547 428.377 347.815 428.667 348.028 429.054C348.241 429.441 348.347 429.96 348.347 430.609V436H347.09V434.892H347.026C346.941 435.07 346.799 435.26 346.6 435.462C346.401 435.664 346.137 435.837 345.806 435.979C345.476 436.121 345.073 436.192 344.597 436.192ZM344.789 435.062C345.286 435.062 345.705 434.965 346.046 434.77C346.391 434.574 346.65 434.322 346.824 434.013C347.001 433.704 347.09 433.379 347.09 433.038V431.888C347.037 431.952 346.92 432.01 346.739 432.064C346.561 432.113 346.355 432.158 346.121 432.197C345.89 432.232 345.664 432.264 345.444 432.293C345.228 432.317 345.052 432.339 344.917 432.357C344.59 432.399 344.285 432.468 344.001 432.564C343.72 432.657 343.493 432.797 343.319 432.985C343.148 433.17 343.063 433.422 343.063 433.741C343.063 434.178 343.225 434.509 343.548 434.732C343.875 434.952 344.288 435.062 344.789 435.062ZM351.579 427.818L353.54 431.163L355.5 427.818H356.949L354.307 431.909L356.949 436H355.5L353.54 432.825L351.579 436H350.13L352.73 431.909L350.13 427.818H351.579ZM358.742 436V427.818H359.999V436H358.742ZM359.382 426.455C359.137 426.455 358.925 426.371 358.748 426.204C358.574 426.037 358.487 425.837 358.487 425.602C358.487 425.368 358.574 425.167 358.748 425C358.925 424.833 359.137 424.75 359.382 424.75C359.627 424.75 359.836 424.833 360.01 425C360.188 425.167 360.276 425.368 360.276 425.602C360.276 425.837 360.188 426.037 360.01 426.204C359.836 426.371 359.627 426.455 359.382 426.455ZM368.097 429.651L366.968 429.97C366.897 429.782 366.792 429.599 366.654 429.422C366.519 429.24 366.334 429.091 366.1 428.974C365.866 428.857 365.565 428.798 365.2 428.798C364.699 428.798 364.282 428.914 363.948 429.145C363.618 429.372 363.453 429.661 363.453 430.013C363.453 430.325 363.566 430.572 363.793 430.753C364.021 430.934 364.376 431.085 364.859 431.206L366.073 431.504C366.805 431.682 367.35 431.953 367.709 432.319C368.067 432.681 368.247 433.148 368.247 433.72C368.247 434.189 368.112 434.608 367.842 434.977C367.575 435.347 367.203 435.638 366.723 435.851C366.244 436.064 365.686 436.17 365.051 436.17C364.216 436.17 363.525 435.989 362.978 435.627C362.432 435.265 362.085 434.736 361.94 434.04L363.133 433.741C363.247 434.182 363.461 434.512 363.777 434.732C364.097 434.952 364.514 435.062 365.029 435.062C365.615 435.062 366.08 434.938 366.425 434.69C366.773 434.437 366.947 434.136 366.947 433.784C366.947 433.5 366.847 433.262 366.649 433.07C366.45 432.875 366.144 432.729 365.732 432.634L364.369 432.314C363.619 432.136 363.069 431.861 362.717 431.488C362.369 431.112 362.195 430.641 362.195 430.077C362.195 429.615 362.325 429.207 362.584 428.852C362.847 428.496 363.204 428.218 363.655 428.015C364.109 427.813 364.624 427.712 365.2 427.712C366.009 427.712 366.645 427.889 367.107 428.244C367.572 428.599 367.902 429.068 368.097 429.651ZM373.953 425.091V436H372.632V426.476H372.568L369.904 428.244V426.902L372.632 425.091H373.953Z" fill="black"/>
<path d="M373.308 739.192C372.79 739.192 372.319 739.094 371.897 738.899C371.474 738.7 371.138 738.414 370.89 738.041C370.641 737.665 370.517 737.21 370.517 736.678C370.517 736.209 370.609 735.829 370.794 735.538C370.979 735.243 371.225 735.012 371.534 734.845C371.843 734.678 372.184 734.554 372.557 734.472C372.934 734.387 373.312 734.32 373.692 734.27C374.189 734.206 374.592 734.158 374.901 734.126C375.213 734.091 375.441 734.032 375.583 733.95C375.728 733.869 375.801 733.727 375.801 733.524V733.482C375.801 732.956 375.657 732.548 375.37 732.256C375.086 731.965 374.654 731.82 374.075 731.82C373.475 731.82 373.005 731.951 372.664 732.214C372.323 732.477 372.083 732.757 371.945 733.055L370.751 732.629C370.964 732.132 371.249 731.745 371.604 731.468C371.962 731.187 372.353 730.992 372.776 730.882C373.202 730.768 373.621 730.712 374.033 730.712C374.295 730.712 374.597 730.744 374.938 730.808C375.283 730.868 375.615 730.994 375.934 731.186C376.257 731.377 376.526 731.667 376.739 732.054C376.952 732.441 377.058 732.96 377.058 733.609V739H375.801V737.892H375.737C375.652 738.07 375.51 738.26 375.311 738.462C375.112 738.664 374.848 738.837 374.517 738.979C374.187 739.121 373.784 739.192 373.308 739.192ZM373.5 738.062C373.997 738.062 374.416 737.965 374.757 737.77C375.102 737.574 375.361 737.322 375.535 737.013C375.712 736.704 375.801 736.379 375.801 736.038V734.888C375.748 734.952 375.631 735.01 375.45 735.064C375.272 735.113 375.066 735.158 374.832 735.197C374.601 735.232 374.375 735.264 374.155 735.293C373.939 735.317 373.763 735.339 373.628 735.357C373.301 735.399 372.996 735.468 372.712 735.564C372.431 735.657 372.204 735.797 372.03 735.985C371.859 736.17 371.774 736.422 371.774 736.741C371.774 737.178 371.936 737.509 372.259 737.732C372.586 737.952 372.999 738.062 373.5 738.062ZM380.29 730.818L382.25 734.163L384.211 730.818H385.66L383.017 734.909L385.66 739H384.211L382.25 735.825L380.29 739H378.841L381.441 734.909L378.841 730.818H380.29ZM387.453 739V730.818H388.71V739H387.453ZM388.093 729.455C387.847 729.455 387.636 729.371 387.459 729.204C387.285 729.037 387.198 728.837 387.198 728.602C387.198 728.368 387.285 728.167 387.459 728C387.636 727.833 387.847 727.75 388.093 727.75C388.338 727.75 388.547 727.833 388.721 728C388.899 728.167 388.987 728.368 388.987 728.602C388.987 728.837 388.899 729.037 388.721 729.204C388.547 729.371 388.338 729.455 388.093 729.455ZM396.808 732.651L395.679 732.97C395.608 732.782 395.503 732.599 395.365 732.422C395.23 732.24 395.045 732.091 394.811 731.974C394.576 731.857 394.276 731.798 393.911 731.798C393.41 731.798 392.993 731.914 392.659 732.145C392.329 732.372 392.163 732.661 392.163 733.013C392.163 733.325 392.277 733.572 392.504 733.753C392.732 733.934 393.087 734.085 393.57 734.206L394.784 734.504C395.516 734.682 396.061 734.953 396.419 735.319C396.778 735.681 396.957 736.148 396.957 736.72C396.957 737.189 396.823 737.608 396.553 737.977C396.286 738.347 395.913 738.638 395.434 738.851C394.955 739.064 394.397 739.17 393.761 739.17C392.927 739.17 392.236 738.989 391.689 738.627C391.142 738.265 390.796 737.736 390.651 737.04L391.844 736.741C391.957 737.182 392.172 737.512 392.488 737.732C392.808 737.952 393.225 738.062 393.74 738.062C394.326 738.062 394.791 737.938 395.136 737.69C395.484 737.437 395.658 737.136 395.658 736.784C395.658 736.5 395.558 736.262 395.359 736.07C395.161 735.875 394.855 735.729 394.443 735.634L393.08 735.314C392.33 735.136 391.78 734.861 391.428 734.488C391.08 734.112 390.906 733.641 390.906 733.077C390.906 732.615 391.036 732.207 391.295 731.852C391.558 731.496 391.915 731.218 392.366 731.015C392.82 730.813 393.335 730.712 393.911 730.712C394.72 730.712 395.356 730.889 395.818 731.244C396.283 731.599 396.613 732.068 396.808 732.651ZM402.515 739.149C401.811 739.149 401.185 739.028 400.634 738.787C400.087 738.545 399.652 738.21 399.329 737.78C399.01 737.347 398.836 736.844 398.807 736.273H400.15C400.178 736.624 400.299 736.928 400.512 737.184C400.725 737.436 401.004 737.631 401.348 737.77C401.692 737.908 402.074 737.977 402.493 737.977C402.962 737.977 403.377 737.896 403.74 737.732C404.102 737.569 404.386 737.342 404.592 737.05C404.798 736.759 404.901 736.422 404.901 736.038C404.901 735.637 404.801 735.284 404.603 734.978C404.404 734.669 404.113 734.428 403.729 734.254C403.346 734.08 402.877 733.993 402.323 733.993H401.449V732.821H402.323C402.756 732.821 403.136 732.743 403.463 732.587C403.793 732.43 404.05 732.21 404.235 731.926C404.423 731.642 404.517 731.308 404.517 730.925C404.517 730.555 404.436 730.234 404.272 729.961C404.109 729.687 403.878 729.474 403.58 729.321C403.285 729.169 402.937 729.092 402.536 729.092C402.159 729.092 401.804 729.162 401.471 729.3C401.14 729.435 400.87 729.632 400.661 729.891C400.451 730.147 400.338 730.456 400.32 730.818H399.042C399.063 730.246 399.235 729.746 399.558 729.316C399.881 728.883 400.304 728.545 400.826 728.304C401.352 728.062 401.929 727.942 402.557 727.942C403.232 727.942 403.811 728.078 404.294 728.352C404.777 728.622 405.148 728.979 405.407 729.423C405.666 729.866 405.796 730.346 405.796 730.861C405.796 731.475 405.634 731.999 405.311 732.432C404.991 732.865 404.556 733.165 404.006 733.332V733.418C404.695 733.531 405.233 733.824 405.62 734.297C406.007 734.765 406.201 735.346 406.201 736.038C406.201 736.631 406.039 737.164 405.716 737.636C405.396 738.105 404.96 738.474 404.406 738.744C403.852 739.014 403.221 739.149 402.515 739.149Z" fill="black"/>
<path d="M256.506 717.583V691.518H264.632V694.793H260.749V714.298H264.632V717.583H256.506ZM292.074 713.268C291.395 713.268 290.811 713.027 290.323 712.547C289.843 712.059 289.603 711.476 289.603 710.796C289.603 710.123 289.843 709.547 290.323 709.066C290.811 708.585 291.395 708.345 292.074 708.345C292.733 708.345 293.31 708.585 293.804 709.066C294.299 709.547 294.546 710.123 294.546 710.796C294.546 711.249 294.429 711.665 294.196 712.042C293.969 712.413 293.67 712.712 293.3 712.938C292.929 713.158 292.52 713.268 292.074 713.268ZM292.074 702.187C291.395 702.187 290.811 701.946 290.323 701.466C289.843 700.985 289.603 700.402 289.603 699.715C289.603 699.042 289.843 698.469 290.323 697.995C290.811 697.515 291.395 697.275 292.074 697.275C292.733 697.275 293.31 697.515 293.804 697.995C294.299 698.469 294.546 699.042 294.546 699.715C294.546 700.175 294.429 700.594 294.196 700.972C293.969 701.342 293.67 701.638 293.3 701.857C292.929 702.077 292.52 702.187 292.074 702.187ZM310.788 710.116L310.674 711.249C310.585 712.156 310.413 713.058 310.159 713.958C309.912 714.864 309.651 715.684 309.377 716.419C309.109 717.154 308.893 717.73 308.728 718.149H305.886C305.989 717.744 306.129 717.178 306.308 716.45C306.486 715.729 306.655 714.919 306.813 714.02C306.97 713.12 307.07 712.204 307.111 711.27L307.163 710.116H310.788ZM338.828 713.268C338.148 713.268 337.564 713.027 337.077 712.547C336.596 712.059 336.356 711.476 336.356 710.796C336.356 710.123 336.596 709.547 337.077 709.066C337.564 708.585 338.148 708.345 338.828 708.345C339.487 708.345 340.063 708.585 340.558 709.066C341.052 709.547 341.299 710.123 341.299 710.796C341.299 711.249 341.183 711.665 340.949 712.042C340.723 712.413 340.424 712.712 340.053 712.938C339.682 713.158 339.274 713.268 338.828 713.268ZM338.828 702.187C338.148 702.187 337.564 701.946 337.077 701.466C336.596 700.985 336.356 700.402 336.356 699.715C336.356 699.042 336.596 698.469 337.077 697.995C337.564 697.515 338.148 697.275 338.828 697.275C339.487 697.275 340.063 697.515 340.558 697.995C341.052 698.469 341.299 699.042 341.299 699.715C341.299 700.175 341.183 700.594 340.949 700.972C340.723 701.342 340.424 701.638 340.053 701.857C339.682 702.077 339.274 702.187 338.828 702.187ZM357.541 710.116L357.428 711.249C357.339 712.156 357.167 713.058 356.913 713.958C356.666 714.864 356.405 715.684 356.13 716.419C355.862 717.154 355.646 717.73 355.481 718.149H352.639C352.742 717.744 352.883 717.178 353.061 716.45C353.24 715.729 353.408 714.919 353.566 714.02C353.724 713.12 353.823 712.204 353.865 711.27L353.916 710.116H357.541ZM382.976 713V709.787L390.483 702.836C391.122 702.218 391.657 701.662 392.09 701.167C392.529 700.673 392.862 700.189 393.089 699.715C393.315 699.235 393.428 698.716 393.428 698.16C393.428 697.542 393.288 697.01 393.006 696.564C392.725 696.111 392.34 695.764 391.853 695.524C391.365 695.277 390.813 695.153 390.195 695.153C389.549 695.153 388.986 695.283 388.506 695.544C388.025 695.805 387.654 696.179 387.394 696.667C387.133 697.154 387.002 697.734 387.002 698.407H382.77C382.77 697.027 383.082 695.829 383.707 694.813C384.332 693.797 385.207 693.011 386.333 692.455C387.459 691.899 388.756 691.621 390.226 691.621C391.736 691.621 393.051 691.888 394.17 692.424C395.296 692.953 396.171 693.687 396.796 694.628C397.421 695.568 397.733 696.646 397.733 697.862C397.733 698.658 397.575 699.444 397.259 700.22C396.95 700.996 396.398 701.857 395.601 702.805C394.805 703.745 393.682 704.875 392.234 706.193L389.155 709.21V709.354H398.011V713H382.976ZM423.491 689.427V715.492H415.366V712.207H419.248V692.702H415.366V689.427H423.491Z" fill="black"/>
<g filter="url(#filter0_dd_1213_1557)">
<rect x="70.5938" y="608.373" width="48.0071" height="48.0071" rx="3" fill="#E6E6E6"/>
<rect x="70.5938" y="608.373" width="48.0071" height="48.0071" rx="3" stroke="#E6E6E6" stroke-width="2"/>
<rect x="70.5938" y="608.373" width="48.0071" height="48.0071" rx="3" stroke="#454545" stroke-opacity="0.33" stroke-width="2"/>
<rect x="119.064" y="608.373" width="48.0071" height="48.0071" rx="3" fill="#E6E6E6"/>
<rect x="119.064" y="608.373" width="48.0071" height="48.0071" rx="3" stroke="#E6E6E6" stroke-width="2"/>
<rect x="119.064" y="608.373" width="48.0071" height="48.0071" rx="3" stroke="#454545" stroke-opacity="0.33" stroke-width="2"/>
<rect x="70.5938" y="656.84" width="48.0071" height="48.0071" rx="3" fill="#E6E6E6"/>
<rect x="70.5938" y="656.84" width="48.0071" height="48.0071" rx="3" stroke="#E6E6E6" stroke-width="2"/>
<rect x="70.5938" y="656.84" width="48.0071" height="48.0071" rx="3" stroke="#454545" stroke-opacity="0.33" stroke-width="2"/>
<rect x="119.064" y="656.84" width="48.0071" height="48.0071" rx="3" fill="#E6E6E6"/>
<rect x="119.064" y="656.84" width="48.0071" height="48.0071" rx="3" stroke="#E6E6E6" stroke-width="2"/>
<rect x="119.064" y="656.84" width="48.0071" height="48.0071" rx="3" stroke="#454545" stroke-opacity="0.33" stroke-width="2"/>
<rect x="70.5938" y="705.309" width="48.0071" height="48.0071" rx="3" fill="#E6E6E6"/>
<rect x="70.5938" y="705.309" width="48.0071" height="48.0071" rx="3" stroke="#E6E6E6" stroke-width="2"/>
<rect x="70.5938" y="705.309" width="48.0071" height="48.0071" rx="3" stroke="#454545" stroke-opacity="0.33" stroke-width="2"/>
<rect x="119.064" y="705.309" width="48.0071" height="48.0071" rx="3" fill="#E6E6E6"/>
<rect x="119.064" y="705.309" width="48.0071" height="48.0071" rx="3" stroke="#E6E6E6" stroke-width="2"/>
<rect x="119.064" y="705.309" width="48.0071" height="48.0071" rx="3" stroke="#454545" stroke-opacity="0.33" stroke-width="2"/>
<rect x="164.531" y="601" width="54.0071" height="54.0071" rx="5" fill="#93A1D1"/>
<rect x="164.531" y="601" width="54.0071" height="54.0071" rx="5" stroke="#E6E6E6" stroke-width="4"/>
<rect x="164.531" y="601" width="54.0071" height="54.0071" rx="5" stroke="#345DB4" stroke-width="4"/>
<rect x="164.531" y="653.84" width="54.0071" height="54.0071" rx="5" fill="#93A1D1"/>
<rect x="164.531" y="653.84" width="54.0071" height="54.0071" rx="5" stroke="#E6E6E6" stroke-width="4"/>
<rect x="164.531" y="653.84" width="54.0071" height="54.0071" rx="5" stroke="#345DB4" stroke-width="4"/>
<rect x="164.531" y="707.556" width="54.0071" height="54.0071" rx="5" fill="#93A1D1"/>
<rect x="164.531" y="707.556" width="54.0071" height="54.0071" rx="5" stroke="#E6E6E6" stroke-width="4"/>
<rect x="164.531" y="707.556" width="54.0071" height="54.0071" rx="5" stroke="#345DB4" stroke-width="4"/>
</g>
<g filter="url(#filter1_dd_1213_1557)">
<rect x="46.1074" y="627.611" width="48.0071" height="48.0071" rx="3" fill="#F3F3F3"/>
<rect x="46.1074" y="627.611" width="48.0071" height="48.0071" rx="3" stroke="#F3F3F3" stroke-width="2"/>
<rect x="46.1074" y="627.611" width="48.0071" height="48.0071" rx="3" stroke="#454545" stroke-opacity="0.28" stroke-width="2"/>
<rect x="94.5781" y="627.611" width="48.0071" height="48.0071" rx="3" fill="#F3F3F3"/>
<rect x="94.5781" y="627.611" width="48.0071" height="48.0071" rx="3" stroke="#F3F3F3" stroke-width="2"/>
<rect x="94.5781" y="627.611" width="48.0071" height="48.0071" rx="3" stroke="#454545" stroke-opacity="0.28" stroke-width="2"/>
<rect x="46.1074" y="676.079" width="48.0071" height="48.0071" rx="3" fill="#F3F3F3"/>
<rect x="46.1074" y="676.079" width="48.0071" height="48.0071" rx="3" stroke="#F3F3F3" stroke-width="2"/>
<rect x="46.1074" y="676.079" width="48.0071" height="48.0071" rx="3" stroke="#454545" stroke-opacity="0.28" stroke-width="2"/>
<rect x="94.5781" y="676.079" width="48.0071" height="48.0071" rx="3" fill="#F3F3F3"/>
<rect x="94.5781" y="676.079" width="48.0071" height="48.0071" rx="3" stroke="#F3F3F3" stroke-width="2"/>
<rect x="94.5781" y="676.079" width="48.0071" height="48.0071" rx="3" stroke="#454545" stroke-opacity="0.28" stroke-width="2"/>
<rect x="46.1074" y="724.547" width="48.0071" height="48.0071" rx="3" fill="#F3F3F3"/>
<rect x="46.1074" y="724.547" width="48.0071" height="48.0071" rx="3" stroke="#F3F3F3" stroke-width="2"/>
<rect x="46.1074" y="724.547" width="48.0071" height="48.0071" rx="3" stroke="#454545" stroke-opacity="0.28" stroke-width="2"/>
<rect x="94.5781" y="724.547" width="48.0071" height="48.0071" rx="3" fill="#F3F3F3"/>
<rect x="94.5781" y="724.547" width="48.0071" height="48.0071" rx="3" stroke="#F3F3F3" stroke-width="2"/>
<rect x="94.5781" y="724.547" width="48.0071" height="48.0071" rx="3" stroke="#454545" stroke-opacity="0.28" stroke-width="2"/>
<rect x="140.045" y="620.239" width="54.0071" height="54.0071" rx="5" fill="#B7C3E9"/>
<rect x="140.045" y="620.239" width="54.0071" height="54.0071" rx="5" stroke="#F3F3F3" stroke-width="4"/>
<rect x="140.045" y="620.239" width="54.0071" height="54.0071" rx="5" stroke="#3363CB" stroke-width="4"/>
<rect x="140.045" y="673.079" width="54.0071" height="54.0071" rx="5" fill="#B7C3E9"/>
<rect x="140.045" y="673.079" width="54.0071" height="54.0071" rx="5" stroke="#F3F3F3" stroke-width="4"/>
<rect x="140.045" y="673.079" width="54.0071" height="54.0071" rx="5" stroke="#3363CB" stroke-width="4"/>
<rect x="140.045" y="726.794" width="54.0071" height="54.0071" rx="5" fill="#B7C3E9"/>
<rect x="140.045" y="726.794" width="54.0071" height="54.0071" rx="5" stroke="#F3F3F3" stroke-width="4"/>
<rect x="140.045" y="726.794" width="54.0071" height="54.0071" rx="5" stroke="#3363CB" stroke-width="4"/>
</g>
<g filter="url(#filter2_dd_1213_1557)">
<rect x="19" y="650.347" width="48.0071" height="48.0071" rx="3" fill="white"/>
<rect x="19" y="650.347" width="48.0071" height="48.0071" rx="3" stroke="white" stroke-width="2"/>
<rect x="19" y="650.347" width="48.0071" height="48.0071" rx="3" stroke="#454545" stroke-opacity="0.2" stroke-width="2"/>
<rect x="67.4707" y="650.347" width="48.0071" height="48.0071" rx="3" fill="white"/>
<rect x="67.4707" y="650.347" width="48.0071" height="48.0071" rx="3" stroke="white" stroke-width="2"/>
<rect x="67.4707" y="650.347" width="48.0071" height="48.0071" rx="3" stroke="#454545" stroke-opacity="0.2" stroke-width="2"/>
<rect x="19" y="698.815" width="48.0071" height="48.0071" rx="3" fill="white"/>
<rect x="19" y="698.815" width="48.0071" height="48.0071" rx="3" stroke="white" stroke-width="2"/>
<rect x="19" y="698.815" width="48.0071" height="48.0071" rx="3" stroke="#454545" stroke-opacity="0.2" stroke-width="2"/>
<rect x="67.4707" y="698.815" width="48.0071" height="48.0071" rx="3" fill="white"/>
<rect x="67.4707" y="698.815" width="48.0071" height="48.0071" rx="3" stroke="white" stroke-width="2"/>
<rect x="67.4707" y="698.815" width="48.0071" height="48.0071" rx="3" stroke="#454545" stroke-opacity="0.2" stroke-width="2"/>
<rect x="19" y="747.283" width="48.0071" height="48.0071" rx="3" fill="white"/>
<rect x="19" y="747.283" width="48.0071" height="48.0071" rx="3" stroke="white" stroke-width="2"/>
<rect x="19" y="747.283" width="48.0071" height="48.0071" rx="3" stroke="#454545" stroke-opacity="0.2" stroke-width="2"/>
<rect x="67.4707" y="747.283" width="48.0071" height="48.0071" rx="3" fill="white"/>
<rect x="67.4707" y="747.283" width="48.0071" height="48.0071" rx="3" stroke="white" stroke-width="2"/>
<rect x="67.4707" y="747.283" width="48.0071" height="48.0071" rx="3" stroke="#454545" stroke-opacity="0.2" stroke-width="2"/>
<rect x="112.938" y="642.975" width="54.0071" height="54.0071" rx="5" fill="#E0E7FF"/>
<rect x="112.938" y="642.975" width="54.0071" height="54.0071" rx="5" stroke="white" stroke-width="4"/>
<rect x="112.938" y="642.975" width="54.0071" height="54.0071" rx="5" stroke="#4774D7" stroke-width="4"/>
<rect x="112.938" y="695.815" width="54.0071" height="54.0071" rx="5" fill="#E0E7FF"/>
<rect x="112.938" y="695.815" width="54.0071" height="54.0071" rx="5" stroke="white" stroke-width="4"/>
<rect x="112.938" y="695.815" width="54.0071" height="54.0071" rx="5" stroke="#4774D7" stroke-width="4"/>
<rect x="112.938" y="749.53" width="54.0071" height="54.0071" rx="5" fill="#E0E7FF"/>
<rect x="112.938" y="749.53" width="54.0071" height="54.0071" rx="5" stroke="white" stroke-width="4"/>
<rect x="112.938" y="749.53" width="54.0071" height="54.0071" rx="5" stroke="#4774D7" stroke-width="4"/>
</g>
<path d="M247.825 107.492V81.4272H255.95V84.7021H252.068V104.207H255.95V107.492H247.825ZM281.765 105.463C279.994 105.457 278.47 105.021 277.193 104.156C275.923 103.29 274.944 102.038 274.258 100.397C273.578 98.7558 273.242 96.782 273.248 94.4751C273.248 92.1752 273.588 90.2151 274.268 88.5948C274.955 86.9745 275.933 85.7422 277.203 84.8977C278.48 84.0464 280.001 83.6207 281.765 83.6207C283.53 83.6207 285.047 84.0464 286.317 84.8977C287.594 85.7491 288.576 86.9848 289.262 88.6051C289.949 90.2185 290.289 92.1752 290.282 94.4751C290.282 96.7888 289.939 98.7661 289.252 100.407C288.572 102.048 287.597 103.301 286.327 104.166C285.057 105.031 283.536 105.463 281.765 105.463ZM281.765 101.766C282.973 101.766 283.938 101.159 284.659 99.9435C285.38 98.7283 285.737 96.9055 285.73 94.4751C285.73 92.8755 285.565 91.5436 285.236 90.4794C284.913 89.4152 284.453 88.6154 283.856 88.0799C283.265 87.5444 282.568 87.2766 281.765 87.2766C280.564 87.2766 279.603 87.8774 278.882 89.0788C278.161 90.2803 277.797 92.0791 277.79 94.4751C277.79 96.0954 277.951 97.4479 278.274 98.5327C278.604 99.6106 279.067 100.421 279.664 100.963C280.262 101.499 280.962 101.766 281.765 101.766ZM303.939 102.549C303.259 102.549 302.676 102.309 302.188 101.828C301.708 101.348 301.467 100.764 301.467 100.077C301.467 99.4046 301.708 98.8279 302.188 98.3473C302.676 97.8667 303.259 97.6264 303.939 97.6264C304.598 97.6264 305.175 97.8667 305.669 98.3473C306.163 98.8279 306.41 99.4046 306.41 100.077C306.41 100.531 306.294 100.946 306.06 101.324C305.834 101.694 305.535 101.993 305.164 102.219C304.794 102.439 304.385 102.549 303.939 102.549ZM303.939 92.1992C303.259 92.1992 302.676 91.9589 302.188 91.4783C301.708 90.9978 301.467 90.4142 301.467 89.7276C301.467 89.0548 301.708 88.4815 302.188 88.0078C302.676 87.5272 303.259 87.2869 303.939 87.2869C304.598 87.2869 305.175 87.5272 305.669 88.0078C306.163 88.4815 306.41 89.0548 306.41 89.7276C306.41 90.1876 306.294 90.6064 306.06 90.984C305.834 91.3548 305.535 91.65 305.164 91.8697C304.794 92.0894 304.385 92.1992 303.939 92.1992ZM317.843 105V101.787L325.35 94.8356C325.989 94.2177 326.524 93.6616 326.957 93.1673C327.396 92.6729 327.729 92.1889 327.956 91.7152C328.182 91.2346 328.296 90.7163 328.296 90.1602C328.296 89.5423 328.155 89.0102 327.874 88.5639C327.592 88.1108 327.208 87.7641 326.72 87.5238C326.233 87.2766 325.68 87.1531 325.062 87.1531C324.417 87.1531 323.854 87.2835 323.373 87.5444C322.893 87.8053 322.522 88.1795 322.261 88.6669C322 89.1544 321.87 89.7345 321.87 90.4073H317.637C317.637 89.0273 317.949 87.8293 318.574 86.8132C319.199 85.7971 320.074 85.011 321.2 84.4549C322.326 83.8988 323.624 83.6207 325.093 83.6207C326.603 83.6207 327.918 83.8885 329.037 84.424C330.163 84.9527 331.039 85.6873 331.663 86.6278C332.288 87.5684 332.6 88.6463 332.6 89.8615C332.6 90.6579 332.443 91.444 332.127 92.2198C331.818 92.9956 331.265 93.8572 330.469 94.8047C329.672 95.7453 328.55 96.8746 327.101 98.1928L324.022 101.21V101.354H332.878V105H317.843ZM348.791 102.116L348.678 103.249C348.588 104.156 348.417 105.058 348.163 105.958C347.915 106.864 347.655 107.684 347.38 108.419C347.112 109.154 346.896 109.73 346.731 110.149H343.889C343.992 109.744 344.133 109.178 344.311 108.45C344.49 107.729 344.658 106.919 344.816 106.02C344.974 105.12 345.073 104.204 345.114 103.27L345.166 102.116H348.791ZM376.109 83.9091V105H371.65V88.1417H371.526L366.697 91.1694V87.2148L371.918 83.9091H376.109ZM391.599 102.549C390.92 102.549 390.336 102.309 389.849 101.828C389.368 101.348 389.128 100.764 389.128 100.077C389.128 99.4046 389.368 98.8279 389.849 98.3473C390.336 97.8667 390.92 97.6264 391.599 97.6264C392.258 97.6264 392.835 97.8667 393.329 98.3473C393.824 98.8279 394.071 99.4046 394.071 100.077C394.071 100.531 393.954 100.946 393.721 101.324C393.494 101.694 393.195 101.993 392.825 102.219C392.454 102.439 392.046 102.549 391.599 102.549ZM391.599 92.1992C390.92 92.1992 390.336 91.9589 389.849 91.4783C389.368 90.9978 389.128 90.4142 389.128 89.7276C389.128 89.0548 389.368 88.4815 389.849 88.0078C390.336 87.5272 390.92 87.2869 391.599 87.2869C392.258 87.2869 392.835 87.5272 393.329 88.0078C393.824 88.4815 394.071 89.0548 394.071 89.7276C394.071 90.1876 393.954 90.6064 393.721 90.984C393.494 91.3548 393.195 91.65 392.825 91.8697C392.454 92.0894 392.046 92.1992 391.599 92.1992ZM427.172 83.5178V109.583H419.047V106.298H422.93V86.7926H419.047V83.5178H427.172Z" fill="black"/>
<rect x="121.854" y="315" width="55.1857" height="55.1857" rx="3" fill="white"/>
<rect x="121.854" y="315" width="55.1857" height="55.1857" rx="3" stroke="white" stroke-width="2"/>
<rect x="121.854" y="315" width="55.1857" height="55.1857" rx="3" stroke="#454545" stroke-opacity="0.2" stroke-width="2"/>
<rect x="66.4277" y="370.425" width="55.1857" height="55.1857" rx="3" fill="white"/>
<rect x="66.4277" y="370.425" width="55.1857" height="55.1857" rx="3" stroke="white" stroke-width="2"/>
<rect x="66.4277" y="370.425" width="55.1857" height="55.1857" rx="3" stroke="#454545" stroke-opacity="0.2" stroke-width="2"/>
<rect x="66.4277" y="425.852" width="55.1857" height="55.1857" rx="3" fill="white"/>
<rect x="66.4277" y="425.852" width="55.1857" height="55.1857" rx="3" stroke="white" stroke-width="2"/>
<rect x="66.4277" y="425.852" width="55.1857" height="55.1857" rx="3" stroke="#454545" stroke-opacity="0.2" stroke-width="2"/>
<rect x="121.854" y="425.852" width="55.1857" height="55.1857" rx="3" fill="white"/>
<rect x="121.854" y="425.852" width="55.1857" height="55.1857" rx="3" stroke="white" stroke-width="2"/>
<rect x="121.854" y="425.852" width="55.1857" height="55.1857" rx="3" stroke="#454545" stroke-opacity="0.2" stroke-width="2"/>
<rect x="66.4277" y="315" width="55.1857" height="55.1857" rx="3" fill="white"/>
<rect x="66.4277" y="315" width="55.1857" height="55.1857" rx="3" stroke="white" stroke-width="2"/>
<rect x="66.4277" y="315" width="55.1857" height="55.1857" rx="3" stroke="#454545" stroke-opacity="0.2" stroke-width="2"/>
<rect x="121.854" y="370.425" width="55.1857" height="55.1857" rx="2" fill="white"/>
<rect x="121.854" y="370.425" width="55.1857" height="55.1857" rx="2" stroke="white" stroke-width="2"/>
<rect x="121.854" y="370.425" width="55.1857" height="55.1857" rx="2" stroke="#DFDFDF" stroke-width="2"/>
<rect x="8" y="306" width="61.1857" height="61.1857" rx="5" fill="#E0E7FF"/>
<rect x="8" y="306" width="61.1857" height="61.1857" rx="5" stroke="#4774D7" stroke-width="4"/>
<rect x="8" y="306" width="61.1857" height="61.1857" rx="5" stroke="#454545" stroke-opacity="0.2" stroke-width="4"/>
<rect x="8" y="367.426" width="61.1857" height="61.1857" rx="5" fill="#E0E7FF"/>
<rect x="8" y="367.426" width="61.1857" height="61.1857" rx="5" stroke="#4774D7" stroke-width="4"/>
<rect x="8" y="367.426" width="61.1857" height="61.1857" rx="5" stroke="#454545" stroke-opacity="0.2" stroke-width="4"/>
<rect x="8" y="428.852" width="61.1857" height="61.1857" rx="5" fill="#E0E7FF"/>
<rect x="8" y="428.852" width="61.1857" height="61.1857" rx="5" stroke="#4774D7" stroke-width="4"/>
<rect x="8" y="428.852" width="61.1857" height="61.1857" rx="5" stroke="#454545" stroke-opacity="0.2" stroke-width="4"/>
<path d="M286.42 413.583V387.518H294.546V390.793H290.663V410.298H294.546V413.583H286.42ZM320.828 409.268C320.149 409.268 319.565 409.027 319.078 408.547C318.597 408.059 318.357 407.476 318.357 406.796C318.357 406.123 318.597 405.547 319.078 405.066C319.565 404.585 320.149 404.345 320.828 404.345C321.487 404.345 322.064 404.585 322.558 405.066C323.053 405.547 323.3 406.123 323.3 406.796C323.3 407.249 323.183 407.665 322.95 408.042C322.723 408.413 322.424 408.712 322.054 408.938C321.683 409.158 321.274 409.268 320.828 409.268ZM320.828 398.187C320.149 398.187 319.565 397.946 319.078 397.466C318.597 396.985 318.357 396.402 318.357 395.715C318.357 395.042 318.597 394.469 319.078 393.995C319.565 393.515 320.149 393.275 320.828 393.275C321.487 393.275 322.064 393.515 322.558 393.995C323.053 394.469 323.3 395.042 323.3 395.715C323.3 396.175 323.183 396.594 322.95 396.972C322.723 397.342 322.424 397.638 322.054 397.857C321.683 398.077 321.274 398.187 320.828 398.187ZM338.962 406.116L338.848 407.249C338.759 408.156 338.588 409.058 338.333 409.958C338.086 410.864 337.825 411.684 337.551 412.419C337.283 413.154 337.067 413.73 336.902 414.149H334.06C334.163 413.744 334.303 413.178 334.482 412.45C334.66 411.729 334.829 410.919 334.987 410.02C335.144 409.12 335.244 408.204 335.285 407.27L335.337 406.116H338.962ZM357.502 409.463C355.731 409.457 354.206 409.021 352.929 408.156C351.659 407.29 350.681 406.038 349.994 404.397C349.315 402.756 348.978 400.782 348.985 398.475C348.985 396.175 349.325 394.215 350.005 392.595C350.691 390.975 351.67 389.742 352.94 388.898C354.217 388.046 355.737 387.621 357.502 387.621C359.266 387.621 360.784 388.046 362.054 388.898C363.331 389.749 364.313 390.985 364.999 392.605C365.686 394.219 366.025 396.175 366.019 398.475C366.019 400.789 365.675 402.766 364.989 404.407C364.309 406.048 363.334 407.301 362.064 408.166C360.794 409.031 359.273 409.463 357.502 409.463ZM357.502 405.766C358.71 405.766 359.675 405.159 360.396 403.944C361.117 402.728 361.474 400.906 361.467 398.475C361.467 396.875 361.302 395.544 360.972 394.479C360.65 393.415 360.19 392.615 359.592 392.08C359.002 391.544 358.305 391.277 357.502 391.277C356.3 391.277 355.339 391.877 354.618 393.079C353.897 394.28 353.534 396.079 353.527 398.475C353.527 400.095 353.688 401.448 354.011 402.533C354.34 403.611 354.804 404.421 355.401 404.963C355.998 405.499 356.699 405.766 357.502 405.766ZM390.577 385.427V411.492H382.452V408.207H386.334V388.702H382.452V385.427H390.577Z" fill="black"/>
<rect x="11" y="13" width="55.1857" height="55.1857" rx="3" fill="white"/>
<rect x="11" y="13" width="55.1857" height="55.1857" rx="3" stroke="white" stroke-width="2"/>
<rect x="11" y="13" width="55.1857" height="55.1857" rx="3" stroke="#454545" stroke-opacity="0.2" stroke-width="2"/>
<rect x="11" y="68.4253" width="55.1857" height="55.1857" rx="3" fill="white"/>
<rect x="11" y="68.4253" width="55.1857" height="55.1857" rx="3" stroke="white" stroke-width="2"/>
<rect x="11" y="68.4253" width="55.1857" height="55.1857" rx="3" stroke="#454545" stroke-opacity="0.2" stroke-width="2"/>
<rect x="11" y="123.852" width="55.1857" height="55.1857" rx="3" fill="white"/>
<rect x="11" y="123.852" width="55.1857" height="55.1857" rx="3" stroke="white" stroke-width="2"/>
<rect x="11" y="123.852" width="55.1857" height="55.1857" rx="3" stroke="#454545" stroke-opacity="0.2" stroke-width="2"/>
<rect x="66.4277" y="123.852" width="55.1857" height="55.1857" rx="3" fill="white"/>
<rect x="66.4277" y="123.852" width="55.1857" height="55.1857" rx="3" stroke="white" stroke-width="2"/>
<rect x="66.4277" y="123.852" width="55.1857" height="55.1857" rx="3" stroke="#454545" stroke-opacity="0.2" stroke-width="2"/>
<rect x="121.854" y="123.852" width="55.1857" height="55.1857" rx="3" fill="white"/>
<rect x="121.854" y="123.852" width="55.1857" height="55.1857" rx="3" stroke="white" stroke-width="2"/>
<rect x="121.854" y="123.852" width="55.1857" height="55.1857" rx="3" stroke="#454545" stroke-opacity="0.2" stroke-width="2"/>
<rect x="65.4277" y="2" width="61.1857" height="61.1857" rx="5" fill="#E0E7FF"/>
<rect x="65.4277" y="2" width="61.1857" height="61.1857" rx="5" stroke="white" stroke-width="4"/>
<rect x="65.4277" y="2" width="61.1857" height="61.1857" rx="5" stroke="#4774D7" stroke-width="4"/>
<rect x="126.854" y="2" width="61.1857" height="61.1857" rx="5" fill="#E0E7FF"/>
<rect x="126.854" y="2" width="61.1857" height="61.1857" rx="5" stroke="white" stroke-width="4"/>
<rect x="126.854" y="2" width="61.1857" height="61.1857" rx="5" stroke="#4774D7" stroke-width="4"/>
<rect x="65.4277" y="63.4253" width="61.1857" height="61.1857" rx="5" fill="#E0E7FF"/>
<rect x="65.4277" y="63.4253" width="61.1857" height="61.1857" rx="5" stroke="white" stroke-width="4"/>
<rect x="65.4277" y="63.4253" width="61.1857" height="61.1857" rx="5" stroke="#4774D7" stroke-width="4"/>
<rect x="126.854" y="63.4253" width="61.1857" height="61.1857" rx="5" fill="#E0E7FF"/>
<rect x="126.854" y="63.4253" width="61.1857" height="61.1857" rx="5" stroke="white" stroke-width="4"/>
<rect x="126.854" y="63.4253" width="61.1857" height="61.1857" rx="5" stroke="#4774D7" stroke-width="4"/>
<defs>
<filter id="filter0_dd_1213_1557" x="58.5938" y="592" width="172.945" height="186.563" filterUnits="userSpaceOnUse" color-interpolation-filters="sRGB">
<feFlood flood-opacity="0" result="BackgroundImageFix"/>
<feColorMatrix in="SourceAlpha" type="matrix" values="0 0 0 0 0 0 0 0 0 0 0 0 0 0 0 0 0 0 127 0" result="hardAlpha"/>
<feOffset dy="1"/>
<feGaussianBlur stdDeviation="1.5"/>
<feColorMatrix type="matrix" values="0 0 0 0 0 0 0 0 0 0 0 0 0 0 0 0 0 0 0.3 0"/>
<feBlend mode="normal" in2="BackgroundImageFix" result="effect1_dropShadow_1213_1557"/>
<feColorMatrix in="SourceAlpha" type="matrix" values="0 0 0 0 0 0 0 0 0 0 0 0 0 0 0 0 0 0 127 0" result="hardAlpha"/>
<feMorphology radius="3" operator="dilate" in="SourceAlpha" result="effect2_dropShadow_1213_1557"/>
<feOffset dy="4"/>
<feGaussianBlur stdDeviation="4"/>
<feColorMatrix type="matrix" values="0 0 0 0 0 0 0 0 0 0 0 0 0 0 0 0 0 0 0.15 0"/>
<feBlend mode="normal" in2="effect1_dropShadow_1213_1557" result="effect2_dropShadow_1213_1557"/>
<feBlend mode="normal" in="SourceGraphic" in2="effect2_dropShadow_1213_1557" result="shape"/>
</filter>
<filter id="filter1_dd_1213_1557" x="31.1074" y="610.239" width="178.945" height="192.563" filterUnits="userSpaceOnUse" color-interpolation-filters="sRGB">
<feFlood flood-opacity="0" result="BackgroundImageFix"/>
<feColorMatrix in="SourceAlpha" type="matrix" values="0 0 0 0 0 0 0 0 0 0 0 0 0 0 0 0 0 0 127 0" result="hardAlpha"/>
<feOffset dy="2"/>
<feGaussianBlur stdDeviation="1.5"/>
<feColorMatrix type="matrix" values="0 0 0 0 0 0 0 0 0 0 0 0 0 0 0 0 0 0 0.3 0"/>
<feBlend mode="normal" in2="BackgroundImageFix" result="effect1_dropShadow_1213_1557"/>
<feColorMatrix in="SourceAlpha" type="matrix" values="0 0 0 0 0 0 0 0 0 0 0 0 0 0 0 0 0 0 127 0" result="hardAlpha"/>
<feMorphology radius="4" operator="dilate" in="SourceAlpha" result="effect2_dropShadow_1213_1557"/>
<feOffset dy="6"/>
<feGaussianBlur stdDeviation="5"/>
<feColorMatrix type="matrix" values="0 0 0 0 0 0 0 0 0 0 0 0 0 0 0 0 0 0 0.15 0"/>
<feBlend mode="normal" in2="effect1_dropShadow_1213_1557" result="effect2_dropShadow_1213_1557"/>
<feBlend mode="normal" in="SourceGraphic" in2="effect2_dropShadow_1213_1557" result="shape"/>
</filter>
<filter id="filter2_dd_1213_1557" x="0" y="630.975" width="186.945" height="200.563" filterUnits="userSpaceOnUse" color-interpolation-filters="sRGB">
<feFlood flood-opacity="0" result="BackgroundImageFix"/>
<feColorMatrix in="SourceAlpha" type="matrix" values="0 0 0 0 0 0 0 0 0 0 0 0 0 0 0 0 0 0 127 0" result="hardAlpha"/>
<feOffset dy="4"/>
<feGaussianBlur stdDeviation="2"/>
<feColorMatrix type="matrix" values="0 0 0 0 0 0 0 0 0 0 0 0 0 0 0 0 0 0 0.3 0"/>
<feBlend mode="normal" in2="BackgroundImageFix" result="effect1_dropShadow_1213_1557"/>
<feColorMatrix in="SourceAlpha" type="matrix" values="0 0 0 0 0 0 0 0 0 0 0 0 0 0 0 0 0 0 127 0" result="hardAlpha"/>
<feMorphology radius="6" operator="dilate" in="SourceAlpha" result="effect2_dropShadow_1213_1557"/>
<feOffset dy="8"/>
<feGaussianBlur stdDeviation="6"/>
<feColorMatrix type="matrix" values="0 0 0 0 0 0 0 0 0 0 0 0 0 0 0 0 0 0 0.15 0"/>
<feBlend mode="normal" in2="effect1_dropShadow_1213_1557" result="effect2_dropShadow_1213_1557"/>
<feBlend mode="normal" in="SourceGraphic" in2="effect2_dropShadow_1213_1557" result="shape"/>
</filter>
</defs>
</svg>
