<svg width="468" height="424" viewBox="0 0 468 424" fill="none" xmlns="http://www.w3.org/2000/svg">
<rect opacity="0.5" x="240.883" y="11.5278" width="76.4204" height="30.6111" rx="5" fill="#FF4646"/>
<path d="M334.269 24.8803C335.232 26.0039 335.232 27.6624 334.269 28.786L318.211 47.5122C316.398 49.6263 312.934 48.3442 312.934 45.5593L312.934 8.10711C312.934 5.32221 316.398 4.04018 318.211 6.15425L334.269 24.8803Z" fill="#FA9D9D"/>
<rect x="110.004" y="345.74" width="39.7839" height="39.1206" rx="3" fill="#DEDEDE"/>
<rect x="110.004" y="345.74" width="39.7839" height="39.1206" rx="3" stroke="white" stroke-width="2"/>
<rect x="110.004" y="345.74" width="39.7839" height="39.1206" rx="3" stroke="black" stroke-opacity="0.2" stroke-width="2"/>
<rect x="150.461" y="345.74" width="39.7839" height="39.1206" rx="3" fill="#DEDEDE"/>
<rect x="150.461" y="345.74" width="39.7839" height="39.1206" rx="3" stroke="white" stroke-width="2"/>
<rect x="150.461" y="345.74" width="39.7839" height="39.1206" rx="3" stroke="black" stroke-opacity="0.2" stroke-width="2"/>
<rect x="110.004" y="305.946" width="39.7839" height="39.1206" rx="3" fill="#DEDEDE"/>
<rect x="110.004" y="305.946" width="39.7839" height="39.1206" rx="3" stroke="white" stroke-width="2"/>
<rect x="110.004" y="305.946" width="39.7839" height="39.1206" rx="3" stroke="black" stroke-opacity="0.2" stroke-width="2"/>
<rect x="150.461" y="305.946" width="39.7839" height="39.1206" rx="3" fill="#DEDEDE"/>
<rect x="150.461" y="305.946" width="39.7839" height="39.1206" rx="3" stroke="white" stroke-width="2"/>
<rect x="150.461" y="305.946" width="39.7839" height="39.1206" rx="3" stroke="black" stroke-opacity="0.2" stroke-width="2"/>
<path d="M121.399 72.1278C121.053 72.1278 120.739 72.0627 120.458 71.9325C120.176 71.8 119.952 71.6094 119.787 71.3608C119.621 71.1098 119.538 70.8068 119.538 70.4517C119.538 70.1392 119.6 69.8859 119.723 69.6918C119.846 69.4953 120.01 69.3414 120.216 69.2301C120.422 69.1188 120.649 69.036 120.898 68.9815C121.149 68.9247 121.401 68.8797 121.654 68.8466C121.986 68.804 122.255 68.772 122.461 68.7507C122.669 68.727 122.82 68.688 122.915 68.6335C123.012 68.5791 123.061 68.4844 123.061 68.3494V68.321C123.061 67.9706 122.965 67.6984 122.773 67.5043C122.584 67.3101 122.296 67.2131 121.91 67.2131C121.51 67.2131 121.196 67.3007 120.969 67.4759C120.742 67.651 120.582 67.8381 120.49 68.0369L119.694 67.7528C119.836 67.4214 120.026 67.1634 120.262 66.9787C120.502 66.7917 120.762 66.6615 121.044 66.5881C121.328 66.5123 121.607 66.4744 121.882 66.4744C122.057 66.4744 122.258 66.4957 122.485 66.5384C122.715 66.5786 122.936 66.6626 123.149 66.7905C123.365 66.9183 123.544 67.1113 123.686 67.3693C123.828 67.6274 123.899 67.973 123.899 68.4062V72H123.061V71.2614H123.018C122.961 71.3797 122.867 71.5064 122.734 71.6413C122.601 71.7763 122.425 71.8911 122.205 71.9858C121.985 72.0805 121.716 72.1278 121.399 72.1278ZM121.527 71.375C121.858 71.375 122.137 71.3099 122.365 71.1797C122.594 71.0495 122.767 70.8814 122.883 70.6754C123.002 70.4695 123.061 70.2528 123.061 70.0256V69.2585C123.025 69.3011 122.947 69.3402 122.826 69.3757C122.708 69.4089 122.571 69.4384 122.414 69.4645C122.261 69.4882 122.11 69.5095 121.963 69.5284C121.819 69.545 121.702 69.5592 121.612 69.571C121.394 69.5994 121.19 69.6456 121.001 69.7095C120.814 69.7711 120.662 69.8646 120.546 69.9901C120.433 70.1132 120.376 70.2812 120.376 70.4943C120.376 70.7855 120.484 71.0057 120.699 71.1548C120.917 71.3016 121.193 71.375 121.527 71.375ZM125.863 66.5455L127.17 68.7756L128.477 66.5455H129.443L127.682 69.2727L129.443 72H128.477L127.17 69.8835L125.863 72H124.898L126.63 69.2727L124.898 66.5455H125.863ZM130.449 72V66.5455H131.287V72H130.449ZM130.875 65.6364C130.712 65.6364 130.571 65.5807 130.452 65.4695C130.336 65.3582 130.278 65.2244 130.278 65.0682C130.278 64.9119 130.336 64.7782 130.452 64.6669C130.571 64.5556 130.712 64.5 130.875 64.5C131.038 64.5 131.178 64.5556 131.294 64.6669C131.412 64.7782 131.472 64.9119 131.472 65.0682C131.472 65.2244 131.412 65.3582 131.294 65.4695C131.178 65.5807 131.038 65.6364 130.875 65.6364ZM136.495 67.767L135.743 67.9801C135.695 67.8546 135.625 67.7327 135.533 67.6143C135.443 67.4936 135.32 67.3942 135.164 67.3161C135.008 67.2379 134.808 67.1989 134.564 67.1989C134.23 67.1989 133.952 67.2758 133.729 67.4297C133.509 67.5812 133.399 67.7741 133.399 68.0085C133.399 68.2169 133.475 68.3814 133.626 68.5021C133.778 68.6229 134.014 68.7235 134.336 68.804L135.146 69.0028C135.634 69.1212 135.997 69.3023 136.236 69.5462C136.475 69.7876 136.595 70.099 136.595 70.4801C136.595 70.7926 136.505 71.072 136.325 71.3182C136.147 71.5644 135.899 71.7585 135.579 71.9006C135.26 72.0426 134.888 72.1136 134.464 72.1136C133.908 72.1136 133.447 71.9929 133.083 71.7514C132.718 71.5099 132.487 71.1572 132.39 70.6932L133.186 70.4943C133.262 70.7879 133.405 71.008 133.616 71.1548C133.829 71.3016 134.107 71.375 134.45 71.375C134.841 71.375 135.151 71.2921 135.38 71.1264C135.612 70.9583 135.728 70.7571 135.728 70.5227C135.728 70.3333 135.662 70.1747 135.53 70.0469C135.397 69.9167 135.193 69.8196 134.919 69.7557L134.01 69.5426C133.51 69.4242 133.143 69.2408 132.909 68.9922C132.677 68.7412 132.561 68.4276 132.561 68.0511C132.561 67.7434 132.647 67.4711 132.82 67.2344C132.995 66.9976 133.233 66.8118 133.534 66.6768C133.837 66.5419 134.18 66.4744 134.564 66.4744C135.103 66.4744 135.527 66.5928 135.835 66.8295C136.145 67.0663 136.365 67.3788 136.495 67.767ZM140.024 72.0994C139.489 72.0994 139.034 71.9538 138.657 71.6626C138.281 71.3691 137.993 70.9441 137.794 70.3878C137.595 69.8291 137.496 69.1544 137.496 68.3636C137.496 67.5777 137.595 66.9065 137.794 66.3501C137.996 65.7914 138.284 65.3653 138.661 65.0717C139.04 64.7758 139.494 64.6278 140.024 64.6278C140.555 64.6278 141.008 64.7758 141.384 65.0717C141.763 65.3653 142.052 65.7914 142.251 66.3501C142.452 66.9065 142.553 67.5777 142.553 68.3636C142.553 69.1544 142.453 69.8291 142.255 70.3878C142.056 70.9441 141.768 71.3691 141.392 71.6626C141.015 71.9538 140.559 72.0994 140.024 72.0994ZM140.024 71.3182C140.555 71.3182 140.967 71.0625 141.26 70.5511C141.554 70.0398 141.701 69.3106 141.701 68.3636C141.701 67.7339 141.633 67.1977 141.498 66.755C141.366 66.3123 141.174 65.9749 140.923 65.7429C140.674 65.5109 140.375 65.3949 140.024 65.3949C139.499 65.3949 139.088 65.6541 138.792 66.1726C138.496 66.6887 138.348 67.419 138.348 68.3636C138.348 68.9934 138.415 69.5284 138.547 69.9688C138.68 70.4091 138.87 70.7441 139.119 70.9737C139.37 71.2034 139.672 71.3182 140.024 71.3182ZM146.69 67.696V66.929H151.065V67.696H146.69ZM146.69 69.7983V69.0312H151.065V69.7983H146.69ZM157.816 72.0994C157.348 72.0994 156.93 72.0189 156.563 71.858C156.198 71.697 155.908 71.4732 155.693 71.1868C155.48 70.898 155.364 70.563 155.345 70.1818H156.24C156.259 70.4162 156.339 70.6186 156.481 70.7891C156.623 70.9571 156.809 71.0874 157.039 71.1797C157.268 71.272 157.523 71.3182 157.802 71.3182C158.115 71.3182 158.392 71.2637 158.633 71.1548C158.875 71.0459 159.064 70.8944 159.201 70.7003C159.339 70.5062 159.407 70.2812 159.407 70.0256C159.407 69.758 159.341 69.5225 159.208 69.3189C159.076 69.1129 158.882 68.9519 158.626 68.8359C158.37 68.7199 158.058 68.6619 157.689 68.6619H157.106V67.8807H157.689C157.977 67.8807 158.231 67.8286 158.449 67.7244C158.669 67.6203 158.84 67.4735 158.963 67.2841C159.089 67.0947 159.152 66.8722 159.152 66.6165C159.152 66.3703 159.097 66.156 158.988 65.9737C158.879 65.7914 158.726 65.6494 158.527 65.5476C158.33 65.4458 158.098 65.3949 157.831 65.3949C157.58 65.3949 157.343 65.4411 157.12 65.5334C156.9 65.6233 156.72 65.7547 156.581 65.9276C156.441 66.098 156.365 66.304 156.353 66.5455H155.501C155.515 66.1643 155.63 65.8305 155.846 65.544C156.061 65.2552 156.343 65.0303 156.691 64.8693C157.041 64.7083 157.426 64.6278 157.845 64.6278C158.295 64.6278 158.681 64.719 159.003 64.9013C159.324 65.0812 159.572 65.3191 159.745 65.6151C159.918 65.911 160.004 66.2306 160.004 66.5739C160.004 66.9834 159.896 67.3326 159.681 67.6214C159.468 67.9103 159.178 68.1103 158.811 68.2216V68.2784C159.27 68.3542 159.629 68.5495 159.887 68.8643C160.145 69.1768 160.274 69.5639 160.274 70.0256C160.274 70.4209 160.166 70.776 159.951 71.0909C159.738 71.4034 159.446 71.6496 159.077 71.8295C158.708 72.0095 158.288 72.0994 157.816 72.0994Z" fill="black"/>
<path d="M122.2 244.128C121.854 244.128 121.54 244.063 121.258 243.933C120.977 243.8 120.753 243.609 120.587 243.361C120.422 243.11 120.339 242.807 120.339 242.452C120.339 242.139 120.4 241.886 120.523 241.692C120.647 241.495 120.811 241.341 121.017 241.23C121.223 241.119 121.45 241.036 121.699 240.982C121.95 240.925 122.202 240.88 122.455 240.847C122.787 240.804 123.055 240.772 123.261 240.751C123.47 240.727 123.621 240.688 123.716 240.634C123.813 240.579 123.861 240.484 123.861 240.349V240.321C123.861 239.971 123.766 239.698 123.574 239.504C123.384 239.31 123.097 239.213 122.711 239.213C122.311 239.213 121.997 239.301 121.77 239.476C121.543 239.651 121.383 239.838 121.29 240.037L120.495 239.753C120.637 239.421 120.826 239.163 121.063 238.979C121.302 238.792 121.563 238.661 121.844 238.588C122.129 238.512 122.408 238.474 122.682 238.474C122.858 238.474 123.059 238.496 123.286 238.538C123.516 238.579 123.737 238.663 123.95 238.79C124.166 238.918 124.344 239.111 124.486 239.369C124.629 239.627 124.7 239.973 124.7 240.406V244H123.861V243.261H123.819C123.762 243.38 123.667 243.506 123.535 243.641C123.402 243.776 123.226 243.891 123.006 243.986C122.785 244.08 122.517 244.128 122.2 244.128ZM122.327 243.375C122.659 243.375 122.938 243.31 123.165 243.18C123.395 243.049 123.568 242.881 123.684 242.675C123.802 242.469 123.861 242.253 123.861 242.026V241.259C123.826 241.301 123.748 241.34 123.627 241.376C123.509 241.409 123.371 241.438 123.215 241.464C123.061 241.488 122.911 241.509 122.764 241.528C122.62 241.545 122.503 241.559 122.413 241.571C122.195 241.599 121.991 241.646 121.802 241.71C121.615 241.771 121.463 241.865 121.347 241.99C121.234 242.113 121.177 242.281 121.177 242.494C121.177 242.786 121.285 243.006 121.5 243.155C121.718 243.302 121.994 243.375 122.327 243.375ZM126.664 238.545L127.971 240.776L129.278 238.545H130.244L128.482 241.273L130.244 244H129.278L127.971 241.884L126.664 244H125.698L127.431 241.273L125.698 238.545H126.664ZM131.25 244V238.545H132.088V244H131.25ZM131.676 237.636C131.512 237.636 131.372 237.581 131.253 237.469C131.137 237.358 131.079 237.224 131.079 237.068C131.079 236.912 131.137 236.778 131.253 236.667C131.372 236.556 131.512 236.5 131.676 236.5C131.839 236.5 131.979 236.556 132.095 236.667C132.213 236.778 132.272 236.912 132.272 237.068C132.272 237.224 132.213 237.358 132.095 237.469C131.979 237.581 131.839 237.636 131.676 237.636ZM137.296 239.767L136.543 239.98C136.496 239.855 136.426 239.733 136.334 239.614C136.244 239.494 136.121 239.394 135.965 239.316C135.808 239.238 135.608 239.199 135.364 239.199C135.031 239.199 134.752 239.276 134.53 239.43C134.31 239.581 134.2 239.774 134.2 240.009C134.2 240.217 134.275 240.381 134.427 240.502C134.578 240.623 134.815 240.723 135.137 240.804L135.947 241.003C136.435 241.121 136.798 241.302 137.037 241.546C137.276 241.788 137.396 242.099 137.396 242.48C137.396 242.793 137.306 243.072 137.126 243.318C136.948 243.564 136.7 243.759 136.38 243.901C136.06 244.043 135.689 244.114 135.265 244.114C134.709 244.114 134.248 243.993 133.884 243.751C133.519 243.51 133.288 243.157 133.191 242.693L133.987 242.494C134.062 242.788 134.206 243.008 134.416 243.155C134.629 243.302 134.908 243.375 135.251 243.375C135.641 243.375 135.952 243.292 136.181 243.126C136.413 242.958 136.529 242.757 136.529 242.523C136.529 242.333 136.463 242.175 136.33 242.047C136.198 241.917 135.994 241.82 135.72 241.756L134.81 241.543C134.311 241.424 133.944 241.241 133.71 240.992C133.478 240.741 133.362 240.428 133.362 240.051C133.362 239.743 133.448 239.471 133.621 239.234C133.796 238.998 134.034 238.812 134.335 238.677C134.638 238.542 134.981 238.474 135.364 238.474C135.904 238.474 136.328 238.593 136.636 238.83C136.946 239.066 137.166 239.379 137.296 239.767ZM141.01 236.727V244H140.129V237.651H140.087L138.311 238.83V237.935L140.129 236.727H141.01ZM145.889 239.696V238.929H150.264V239.696H145.889ZM145.889 241.798V241.031H150.264V241.798H145.889ZM157.016 244.099C156.547 244.099 156.129 244.019 155.762 243.858C155.398 243.697 155.108 243.473 154.892 243.187C154.679 242.898 154.563 242.563 154.544 242.182H155.439C155.458 242.416 155.538 242.619 155.68 242.789C155.822 242.957 156.008 243.087 156.238 243.18C156.468 243.272 156.722 243.318 157.001 243.318C157.314 243.318 157.591 243.264 157.832 243.155C158.074 243.046 158.263 242.894 158.401 242.7C158.538 242.506 158.607 242.281 158.607 242.026C158.607 241.758 158.54 241.522 158.408 241.319C158.275 241.113 158.081 240.952 157.825 240.836C157.57 240.72 157.257 240.662 156.888 240.662H156.305V239.881H156.888C157.177 239.881 157.43 239.829 157.648 239.724C157.868 239.62 158.04 239.473 158.163 239.284C158.288 239.095 158.351 238.872 158.351 238.616C158.351 238.37 158.296 238.156 158.188 237.974C158.079 237.791 157.925 237.649 157.726 237.548C157.529 237.446 157.297 237.395 157.03 237.395C156.779 237.395 156.542 237.441 156.32 237.533C156.099 237.623 155.92 237.755 155.78 237.928C155.64 238.098 155.564 238.304 155.553 238.545H154.7C154.715 238.164 154.829 237.83 155.045 237.544C155.26 237.255 155.542 237.03 155.89 236.869C156.24 236.708 156.625 236.628 157.044 236.628C157.494 236.628 157.88 236.719 158.202 236.901C158.524 237.081 158.771 237.319 158.944 237.615C159.117 237.911 159.203 238.231 159.203 238.574C159.203 238.983 159.095 239.333 158.88 239.621C158.667 239.91 158.377 240.11 158.01 240.222V240.278C158.469 240.354 158.828 240.549 159.086 240.864C159.344 241.177 159.473 241.564 159.473 242.026C159.473 242.421 159.365 242.776 159.15 243.091C158.937 243.403 158.646 243.65 158.276 243.83C157.907 244.009 157.487 244.099 157.016 244.099Z" fill="black"/>
<path d="M121.653 421.128C121.307 421.128 120.993 421.063 120.712 420.933C120.43 420.8 120.206 420.609 120.04 420.361C119.875 420.11 119.792 419.807 119.792 419.452C119.792 419.139 119.853 418.886 119.977 418.692C120.1 418.495 120.264 418.341 120.47 418.23C120.676 418.119 120.903 418.036 121.152 417.982C121.403 417.925 121.655 417.88 121.908 417.847C122.24 417.804 122.508 417.772 122.714 417.751C122.923 417.727 123.074 417.688 123.169 417.634C123.266 417.579 123.315 417.484 123.315 417.349V417.321C123.315 416.971 123.219 416.698 123.027 416.504C122.838 416.31 122.55 416.213 122.164 416.213C121.764 416.213 121.45 416.301 121.223 416.476C120.996 416.651 120.836 416.838 120.744 417.037L119.948 416.753C120.09 416.421 120.28 416.163 120.516 415.979C120.755 415.792 121.016 415.661 121.298 415.588C121.582 415.512 121.861 415.474 122.136 415.474C122.311 415.474 122.512 415.496 122.739 415.538C122.969 415.579 123.19 415.663 123.403 415.79C123.619 415.918 123.798 416.111 123.94 416.369C124.082 416.627 124.153 416.973 124.153 417.406V421H123.315V420.261H123.272C123.215 420.38 123.12 420.506 122.988 420.641C122.855 420.776 122.679 420.891 122.459 420.986C122.239 421.08 121.97 421.128 121.653 421.128ZM121.781 420.375C122.112 420.375 122.391 420.31 122.619 420.18C122.848 420.049 123.021 419.881 123.137 419.675C123.255 419.469 123.315 419.253 123.315 419.026V418.259C123.279 418.301 123.201 418.34 123.08 418.376C122.962 418.409 122.825 418.438 122.668 418.464C122.514 418.488 122.364 418.509 122.217 418.528C122.073 418.545 121.956 418.559 121.866 418.571C121.648 418.599 121.444 418.646 121.255 418.71C121.068 418.771 120.916 418.865 120.8 418.99C120.687 419.113 120.63 419.281 120.63 419.494C120.63 419.786 120.738 420.006 120.953 420.155C121.171 420.302 121.447 420.375 121.781 420.375ZM126.117 415.545L127.424 417.776L128.731 415.545H129.697L127.936 418.273L129.697 421H128.731L127.424 418.884L126.117 421H125.151L126.884 418.273L125.151 415.545H126.117ZM130.703 421V415.545H131.541V421H130.703ZM131.129 414.636C130.965 414.636 130.825 414.581 130.706 414.469C130.59 414.358 130.532 414.224 130.532 414.068C130.532 413.912 130.59 413.778 130.706 413.667C130.825 413.556 130.965 413.5 131.129 413.5C131.292 413.5 131.432 413.556 131.548 413.667C131.666 413.778 131.725 413.912 131.725 414.068C131.725 414.224 131.666 414.358 131.548 414.469C131.432 414.581 131.292 414.636 131.129 414.636ZM136.749 416.767L135.997 416.98C135.949 416.855 135.879 416.733 135.787 416.614C135.697 416.494 135.574 416.394 135.418 416.316C135.261 416.238 135.061 416.199 134.818 416.199C134.484 416.199 134.206 416.276 133.983 416.43C133.763 416.581 133.653 416.774 133.653 417.009C133.653 417.217 133.729 417.381 133.88 417.502C134.032 417.623 134.268 417.723 134.59 417.804L135.4 418.003C135.888 418.121 136.251 418.302 136.49 418.546C136.729 418.788 136.849 419.099 136.849 419.48C136.849 419.793 136.759 420.072 136.579 420.318C136.401 420.564 136.153 420.759 135.833 420.901C135.514 421.043 135.142 421.114 134.718 421.114C134.162 421.114 133.701 420.993 133.337 420.751C132.972 420.51 132.741 420.157 132.644 419.693L133.44 419.494C133.515 419.788 133.659 420.008 133.869 420.155C134.082 420.302 134.361 420.375 134.704 420.375C135.095 420.375 135.405 420.292 135.634 420.126C135.866 419.958 135.982 419.757 135.982 419.523C135.982 419.333 135.916 419.175 135.783 419.047C135.651 418.917 135.447 418.82 135.173 418.756L134.264 418.543C133.764 418.424 133.397 418.241 133.163 417.992C132.931 417.741 132.815 417.428 132.815 417.051C132.815 416.743 132.901 416.471 133.074 416.234C133.249 415.998 133.487 415.812 133.788 415.677C134.091 415.542 134.434 415.474 134.818 415.474C135.357 415.474 135.781 415.593 136.089 415.83C136.399 416.066 136.619 416.379 136.749 416.767ZM137.906 421V420.361L140.307 417.733C140.588 417.425 140.82 417.158 141.003 416.93C141.185 416.701 141.32 416.485 141.408 416.284C141.498 416.08 141.543 415.867 141.543 415.645C141.543 415.389 141.481 415.168 141.358 414.981C141.237 414.794 141.071 414.649 140.861 414.548C140.65 414.446 140.413 414.395 140.15 414.395C139.871 414.395 139.627 414.453 139.419 414.569C139.213 414.683 139.053 414.842 138.94 415.048C138.828 415.254 138.773 415.496 138.773 415.773H137.935C137.935 415.347 138.033 414.973 138.229 414.651C138.426 414.329 138.693 414.078 139.032 413.898C139.373 413.718 139.755 413.628 140.179 413.628C140.605 413.628 140.983 413.718 141.312 413.898C141.641 414.078 141.899 414.32 142.086 414.626C142.273 414.931 142.366 415.271 142.366 415.645C142.366 415.912 142.318 416.174 142.221 416.43C142.126 416.683 141.96 416.966 141.724 417.278C141.489 417.589 141.164 417.967 140.747 418.415L139.114 420.162V420.219H142.494V421H137.906ZM146.748 416.696V415.929H151.123V416.696H146.748ZM146.748 418.798V418.031H151.123V418.798H146.748ZM155.418 421V420.361L157.818 417.733C158.1 417.425 158.332 417.158 158.514 416.93C158.697 416.701 158.831 416.485 158.919 416.284C159.009 416.08 159.054 415.867 159.054 415.645C159.054 415.389 158.992 415.168 158.869 414.981C158.749 414.794 158.583 414.649 158.372 414.548C158.161 414.446 157.925 414.395 157.662 414.395C157.383 414.395 157.139 414.453 156.93 414.569C156.724 414.683 156.565 414.842 156.451 415.048C156.34 415.254 156.284 415.496 156.284 415.773H155.446C155.446 415.347 155.544 414.973 155.741 414.651C155.937 414.329 156.205 414.078 156.543 413.898C156.884 413.718 157.267 413.628 157.69 413.628C158.117 413.628 158.494 413.718 158.823 413.898C159.152 414.078 159.41 414.32 159.597 414.626C159.784 414.931 159.878 415.271 159.878 415.645C159.878 415.912 159.829 416.174 159.732 416.43C159.638 416.683 159.472 416.966 159.235 417.278C159.001 417.589 158.675 417.967 158.259 418.415L156.625 420.162V420.219H160.006V421H155.418Z" fill="black"/>
<path d="M202.399 401.128C202.053 401.128 201.739 401.063 201.458 400.933C201.176 400.8 200.952 400.609 200.787 400.361C200.621 400.11 200.538 399.807 200.538 399.452C200.538 399.139 200.6 398.886 200.723 398.692C200.846 398.495 201.01 398.341 201.216 398.23C201.422 398.119 201.649 398.036 201.898 397.982C202.149 397.925 202.401 397.88 202.654 397.847C202.986 397.804 203.255 397.772 203.461 397.751C203.669 397.727 203.82 397.688 203.915 397.634C204.012 397.579 204.061 397.484 204.061 397.349V397.321C204.061 396.971 203.965 396.698 203.773 396.504C203.584 396.31 203.296 396.213 202.91 396.213C202.51 396.213 202.196 396.301 201.969 396.476C201.742 396.651 201.582 396.838 201.49 397.037L200.694 396.753C200.836 396.421 201.026 396.163 201.262 395.979C201.502 395.792 201.762 395.661 202.044 395.588C202.328 395.512 202.607 395.474 202.882 395.474C203.057 395.474 203.258 395.496 203.485 395.538C203.715 395.579 203.936 395.663 204.149 395.79C204.365 395.918 204.544 396.111 204.686 396.369C204.828 396.627 204.899 396.973 204.899 397.406V401H204.061V400.261H204.018C203.961 400.38 203.867 400.506 203.734 400.641C203.601 400.776 203.425 400.891 203.205 400.986C202.985 401.08 202.716 401.128 202.399 401.128ZM202.527 400.375C202.858 400.375 203.137 400.31 203.365 400.18C203.594 400.049 203.767 399.881 203.883 399.675C204.002 399.469 204.061 399.253 204.061 399.026V398.259C204.025 398.301 203.947 398.34 203.826 398.376C203.708 398.409 203.571 398.438 203.414 398.464C203.261 398.488 203.11 398.509 202.963 398.528C202.819 398.545 202.702 398.559 202.612 398.571C202.394 398.599 202.19 398.646 202.001 398.71C201.814 398.771 201.662 398.865 201.546 398.99C201.433 399.113 201.376 399.281 201.376 399.494C201.376 399.786 201.484 400.006 201.699 400.155C201.917 400.302 202.193 400.375 202.527 400.375ZM206.863 395.545L208.17 397.776L209.477 395.545H210.443L208.682 398.273L210.443 401H209.477L208.17 398.884L206.863 401H205.898L207.63 398.273L205.898 395.545H206.863ZM211.449 401V395.545H212.287V401H211.449ZM211.875 394.636C211.712 394.636 211.571 394.581 211.452 394.469C211.336 394.358 211.278 394.224 211.278 394.068C211.278 393.912 211.336 393.778 211.452 393.667C211.571 393.556 211.712 393.5 211.875 393.5C212.038 393.5 212.178 393.556 212.294 393.667C212.412 393.778 212.472 393.912 212.472 394.068C212.472 394.224 212.412 394.358 212.294 394.469C212.178 394.581 212.038 394.636 211.875 394.636ZM217.495 396.767L216.743 396.98C216.695 396.855 216.625 396.733 216.533 396.614C216.443 396.494 216.32 396.394 216.164 396.316C216.008 396.238 215.808 396.199 215.564 396.199C215.23 396.199 214.952 396.276 214.729 396.43C214.509 396.581 214.399 396.774 214.399 397.009C214.399 397.217 214.475 397.381 214.626 397.502C214.778 397.623 215.014 397.723 215.336 397.804L216.146 398.003C216.634 398.121 216.997 398.302 217.236 398.546C217.475 398.788 217.595 399.099 217.595 399.48C217.595 399.793 217.505 400.072 217.325 400.318C217.147 400.564 216.899 400.759 216.579 400.901C216.26 401.043 215.888 401.114 215.464 401.114C214.908 401.114 214.447 400.993 214.083 400.751C213.718 400.51 213.487 400.157 213.39 399.693L214.186 399.494C214.262 399.788 214.405 400.008 214.616 400.155C214.829 400.302 215.107 400.375 215.45 400.375C215.841 400.375 216.151 400.292 216.38 400.126C216.612 399.958 216.728 399.757 216.728 399.523C216.728 399.333 216.662 399.175 216.53 399.047C216.397 398.917 216.193 398.82 215.919 398.756L215.01 398.543C214.51 398.424 214.143 398.241 213.909 397.992C213.677 397.741 213.561 397.428 213.561 397.051C213.561 396.743 213.647 396.471 213.82 396.234C213.995 395.998 214.233 395.812 214.534 395.677C214.837 395.542 215.18 395.474 215.564 395.474C216.103 395.474 216.527 395.593 216.835 395.83C217.145 396.066 217.365 396.379 217.495 396.767ZM221.024 401.099C220.489 401.099 220.034 400.954 219.657 400.663C219.281 400.369 218.993 399.944 218.794 399.388C218.595 398.829 218.496 398.154 218.496 397.364C218.496 396.578 218.595 395.906 218.794 395.35C218.996 394.791 219.284 394.365 219.661 394.072C220.04 393.776 220.494 393.628 221.024 393.628C221.555 393.628 222.008 393.776 222.384 394.072C222.763 394.365 223.052 394.791 223.251 395.35C223.452 395.906 223.553 396.578 223.553 397.364C223.553 398.154 223.453 398.829 223.255 399.388C223.056 399.944 222.768 400.369 222.392 400.663C222.015 400.954 221.559 401.099 221.024 401.099ZM221.024 400.318C221.555 400.318 221.967 400.062 222.26 399.551C222.554 399.04 222.701 398.311 222.701 397.364C222.701 396.734 222.633 396.198 222.498 395.755C222.366 395.312 222.174 394.975 221.923 394.743C221.674 394.511 221.375 394.395 221.024 394.395C220.499 394.395 220.088 394.654 219.792 395.173C219.496 395.689 219.348 396.419 219.348 397.364C219.348 397.993 219.415 398.528 219.547 398.969C219.68 399.409 219.87 399.744 220.119 399.974C220.37 400.203 220.672 400.318 221.024 400.318ZM227.69 396.696V395.929H232.065V396.696H227.69ZM227.69 398.798V398.031H232.065V398.798H227.69ZM238.816 401.099C238.348 401.099 237.93 401.019 237.563 400.858C237.198 400.697 236.908 400.473 236.693 400.187C236.48 399.898 236.364 399.563 236.345 399.182H237.24C237.259 399.416 237.339 399.619 237.481 399.789C237.623 399.957 237.809 400.087 238.039 400.18C238.268 400.272 238.523 400.318 238.802 400.318C239.115 400.318 239.392 400.264 239.633 400.155C239.875 400.046 240.064 399.894 240.201 399.7C240.339 399.506 240.407 399.281 240.407 399.026C240.407 398.758 240.341 398.522 240.208 398.319C240.076 398.113 239.882 397.952 239.626 397.836C239.37 397.72 239.058 397.662 238.689 397.662H238.106V396.881H238.689C238.977 396.881 239.231 396.829 239.449 396.724C239.669 396.62 239.84 396.473 239.963 396.284C240.089 396.095 240.152 395.872 240.152 395.616C240.152 395.37 240.097 395.156 239.988 394.974C239.879 394.791 239.726 394.649 239.527 394.548C239.33 394.446 239.098 394.395 238.831 394.395C238.58 394.395 238.343 394.441 238.12 394.533C237.9 394.623 237.72 394.755 237.581 394.928C237.441 395.098 237.365 395.304 237.353 395.545H236.501C236.515 395.164 236.63 394.83 236.846 394.544C237.061 394.255 237.343 394.03 237.691 393.869C238.041 393.708 238.426 393.628 238.845 393.628C239.295 393.628 239.681 393.719 240.003 393.901C240.324 394.081 240.572 394.319 240.745 394.615C240.918 394.911 241.004 395.231 241.004 395.574C241.004 395.983 240.896 396.333 240.681 396.621C240.468 396.91 240.178 397.11 239.811 397.222V397.278C240.27 397.354 240.629 397.549 240.887 397.864C241.145 398.177 241.274 398.564 241.274 399.026C241.274 399.421 241.166 399.776 240.951 400.091C240.738 400.403 240.446 400.65 240.077 400.83C239.708 401.009 239.288 401.099 238.816 401.099Z" fill="black"/>
<path d="M18.555 181.128C18.2094 181.128 17.8957 181.063 17.614 180.933C17.3322 180.8 17.1085 180.609 16.9428 180.361C16.7771 180.11 16.6942 179.807 16.6942 179.452C16.6942 179.139 16.7558 178.886 16.8789 178.692C17.002 178.495 17.1665 178.341 17.3725 178.23C17.5784 178.119 17.8057 178.036 18.0543 177.982C18.3052 177.925 18.5574 177.88 18.8107 177.847C19.1421 177.804 19.4108 177.772 19.6168 177.751C19.8251 177.727 19.9766 177.688 20.0713 177.634C20.1684 177.579 20.2169 177.484 20.2169 177.349V177.321C20.2169 176.971 20.1211 176.698 19.9293 176.504C19.7399 176.31 19.4523 176.213 19.0664 176.213C18.6663 176.213 18.3526 176.301 18.1253 176.476C17.8981 176.651 17.7382 176.838 17.6459 177.037L16.8505 176.753C16.9925 176.421 17.1819 176.163 17.4186 175.979C17.6578 175.792 17.9182 175.661 18.1999 175.588C18.484 175.512 18.7633 175.474 19.038 175.474C19.2132 175.474 19.4144 175.496 19.6417 175.538C19.8713 175.579 20.0927 175.663 20.3057 175.79C20.5212 175.918 20.6999 176.111 20.8419 176.369C20.984 176.627 21.055 176.973 21.055 177.406V181H20.2169V180.261H20.1743C20.1175 180.38 20.0228 180.506 19.8902 180.641C19.7577 180.776 19.5813 180.891 19.3611 180.986C19.1409 181.08 18.8722 181.128 18.555 181.128ZM18.6829 180.375C19.0143 180.375 19.2936 180.31 19.5209 180.18C19.7506 180.049 19.9234 179.881 20.0394 179.675C20.1578 179.469 20.2169 179.253 20.2169 179.026V178.259C20.1814 178.301 20.1033 178.34 19.9826 178.376C19.8642 178.409 19.7269 178.438 19.5706 178.464C19.4168 178.488 19.2664 178.509 19.1196 178.528C18.9752 178.545 18.858 178.559 18.7681 178.571C18.5503 178.599 18.3467 178.646 18.1573 178.71C17.9703 178.771 17.8187 178.865 17.7027 178.99C17.5891 179.113 17.5323 179.281 17.5323 179.494C17.5323 179.786 17.64 180.006 17.8554 180.155C18.0732 180.302 18.349 180.375 18.6829 180.375ZM23.0197 175.545L24.3265 177.776L25.6333 175.545H26.5992L24.8378 178.273L26.5992 181H25.6333L24.3265 178.884L23.0197 181H22.0538L23.7867 178.273L22.0538 175.545H23.0197ZM27.6051 181V175.545H28.4431V181H27.6051ZM28.0312 174.636C27.8678 174.636 27.727 174.581 27.6086 174.469C27.4926 174.358 27.4346 174.224 27.4346 174.068C27.4346 173.912 27.4926 173.778 27.6086 173.667C27.727 173.556 27.8678 173.5 28.0312 173.5C28.1945 173.5 28.3342 173.556 28.4502 173.667C28.5686 173.778 28.6278 173.912 28.6278 174.068C28.6278 174.224 28.5686 174.358 28.4502 174.469C28.3342 174.581 28.1945 174.636 28.0312 174.636ZM33.6517 176.767L32.8989 176.98C32.8515 176.855 32.7817 176.733 32.6894 176.614C32.5994 176.494 32.4763 176.394 32.3201 176.316C32.1638 176.238 31.9638 176.199 31.7199 176.199C31.3861 176.199 31.1079 176.276 30.8854 176.43C30.6652 176.581 30.5551 176.774 30.5551 177.009C30.5551 177.217 30.6309 177.381 30.7824 177.502C30.9339 177.623 31.1707 177.723 31.4926 177.804L32.3023 178.003C32.79 178.121 33.1534 178.302 33.3925 178.546C33.6316 178.788 33.7512 179.099 33.7512 179.48C33.7512 179.793 33.6612 180.072 33.4813 180.318C33.3037 180.564 33.0551 180.759 32.7355 180.901C32.4159 181.043 32.0443 181.114 31.6205 181.114C31.0641 181.114 30.6037 180.993 30.2391 180.751C29.8745 180.51 29.6437 180.157 29.5466 179.693L30.3421 179.494C30.4178 179.788 30.5611 180.008 30.7718 180.155C30.9848 180.302 31.263 180.375 31.6063 180.375C31.9969 180.375 32.307 180.292 32.5367 180.126C32.7687 179.958 32.8847 179.757 32.8847 179.523C32.8847 179.333 32.8184 179.175 32.6858 179.047C32.5533 178.917 32.3497 178.82 32.075 178.756L31.1659 178.543C30.6664 178.424 30.2995 178.241 30.0651 177.992C29.8331 177.741 29.7171 177.428 29.7171 177.051C29.7171 176.743 29.8035 176.471 29.9763 176.234C30.1515 175.998 30.3894 175.812 30.6901 175.677C30.9931 175.542 31.3364 175.474 31.7199 175.474C32.2597 175.474 32.6835 175.593 32.9912 175.83C33.3014 176.066 33.5215 176.379 33.6517 176.767ZM37.1807 181.099C36.6456 181.099 36.1899 180.954 35.8135 180.663C35.4371 180.369 35.1494 179.944 34.9506 179.388C34.7517 178.829 34.6523 178.154 34.6523 177.364C34.6523 176.578 34.7517 175.906 34.9506 175.35C35.1518 174.791 35.4406 174.365 35.817 174.072C36.1958 173.776 36.6504 173.628 37.1807 173.628C37.711 173.628 38.1643 173.776 38.5407 174.072C38.9195 174.365 39.2084 174.791 39.4072 175.35C39.6085 175.906 39.7091 176.578 39.7091 177.364C39.7091 178.154 39.6096 178.829 39.4108 179.388C39.2119 179.944 38.9243 180.369 38.5479 180.663C38.1714 180.954 37.7157 181.099 37.1807 181.099ZM37.1807 180.318C37.711 180.318 38.1229 180.062 38.4165 179.551C38.71 179.04 38.8568 178.311 38.8568 177.364C38.8568 176.734 38.7893 176.198 38.6544 175.755C38.5218 175.312 38.33 174.975 38.0791 174.743C37.8305 174.511 37.531 174.395 37.1807 174.395C36.6551 174.395 36.2443 174.654 35.9484 175.173C35.6525 175.689 35.5045 176.419 35.5045 177.364C35.5045 177.993 35.5708 178.528 35.7034 178.969C35.836 179.409 36.0265 179.744 36.2751 179.974C36.5261 180.203 36.8279 180.318 37.1807 180.318ZM43.8461 176.696V175.929H48.2211V176.696H43.8461ZM43.8461 178.798V178.031H48.2211V178.798H43.8461ZM52.5153 181V180.361L54.9159 177.733C55.1976 177.425 55.4296 177.158 55.6119 176.93C55.7942 176.701 55.9291 176.485 56.0167 176.284C56.1067 176.08 56.1517 175.867 56.1517 175.645C56.1517 175.389 56.0901 175.168 55.967 174.981C55.8463 174.794 55.6805 174.649 55.4698 174.548C55.2591 174.446 55.0224 174.395 54.7596 174.395C54.4803 174.395 54.2364 174.453 54.0281 174.569C53.8221 174.683 53.6623 174.842 53.5487 175.048C53.4374 175.254 53.3818 175.496 53.3818 175.773H52.5437C52.5437 175.347 52.642 174.973 52.8385 174.651C53.0349 174.329 53.3025 174.078 53.641 173.898C53.9819 173.718 54.3643 173.628 54.788 173.628C55.2142 173.628 55.5918 173.718 55.9208 173.898C56.2499 174.078 56.508 174.32 56.695 174.626C56.882 174.931 56.9755 175.271 56.9755 175.645C56.9755 175.912 56.927 176.174 56.8299 176.43C56.7352 176.683 56.5695 176.966 56.3328 177.278C56.0984 177.589 55.7729 177.967 55.3562 178.415L53.7227 180.162V180.219H57.1034V181H52.5153Z" fill="black"/>
<path d="M39.3558 361.128C39.0101 361.128 38.6965 361.063 38.4147 360.933C38.133 360.8 37.9093 360.609 37.7436 360.361C37.5779 360.11 37.495 359.807 37.495 359.452C37.495 359.139 37.5565 358.886 37.6797 358.692C37.8028 358.495 37.9673 358.341 38.1733 358.23C38.3792 358.119 38.6065 358.036 38.8551 357.982C39.106 357.925 39.3582 357.88 39.6115 357.847C39.9429 357.804 40.2116 357.772 40.4176 357.751C40.6259 357.727 40.7774 357.688 40.8721 357.634C40.9692 357.579 41.0177 357.484 41.0177 357.349V357.321C41.0177 356.971 40.9218 356.698 40.7301 356.504C40.5407 356.31 40.253 356.213 39.8672 356.213C39.4671 356.213 39.1534 356.301 38.9261 356.476C38.6988 356.651 38.539 356.838 38.4467 357.037L37.6512 356.753C37.7933 356.421 37.9827 356.163 38.2194 355.979C38.4585 355.792 38.719 355.661 39.0007 355.588C39.2848 355.512 39.5641 355.474 39.8387 355.474C40.0139 355.474 40.2152 355.496 40.4424 355.538C40.6721 355.579 40.8934 355.663 41.1065 355.79C41.3219 355.918 41.5007 356.111 41.6427 356.369C41.7848 356.627 41.8558 356.973 41.8558 357.406V361H41.0177V360.261H40.9751C40.9183 360.38 40.8236 360.506 40.691 360.641C40.5584 360.776 40.3821 360.891 40.1619 360.986C39.9417 361.08 39.673 361.128 39.3558 361.128ZM39.4836 360.375C39.8151 360.375 40.0944 360.31 40.3217 360.18C40.5513 360.049 40.7242 359.881 40.8402 359.675C40.9585 359.469 41.0177 359.253 41.0177 359.026V358.259C40.9822 358.301 40.9041 358.34 40.7833 358.376C40.665 358.409 40.5277 358.438 40.3714 358.464C40.2175 358.488 40.0672 358.509 39.9204 358.528C39.776 358.545 39.6588 358.559 39.5689 358.571C39.3511 358.599 39.1475 358.646 38.9581 358.71C38.771 358.771 38.6195 358.865 38.5035 358.99C38.3899 359.113 38.3331 359.281 38.3331 359.494C38.3331 359.786 38.4408 360.006 38.6562 360.155C38.874 360.302 39.1498 360.375 39.4836 360.375ZM43.8204 355.545L45.1273 357.776L46.4341 355.545H47.4L45.6386 358.273L47.4 361H46.4341L45.1273 358.884L43.8204 361H42.8545L44.5875 358.273L42.8545 355.545H43.8204ZM48.4058 361V355.545H49.2439V361H48.4058ZM48.832 354.636C48.6686 354.636 48.5278 354.581 48.4094 354.469C48.2934 354.358 48.2354 354.224 48.2354 354.068C48.2354 353.912 48.2934 353.778 48.4094 353.667C48.5278 353.556 48.6686 353.5 48.832 353.5C48.9953 353.5 49.135 353.556 49.251 353.667C49.3694 353.778 49.4286 353.912 49.4286 354.068C49.4286 354.224 49.3694 354.358 49.251 354.469C49.135 354.581 48.9953 354.636 48.832 354.636ZM54.4525 356.767L53.6997 356.98C53.6523 356.855 53.5825 356.733 53.4902 356.614C53.4002 356.494 53.2771 356.394 53.1208 356.316C52.9646 356.238 52.7645 356.199 52.5207 356.199C52.1869 356.199 51.9087 356.276 51.6862 356.43C51.466 356.581 51.3559 356.774 51.3559 357.009C51.3559 357.217 51.4317 357.381 51.5832 357.502C51.7347 357.623 51.9715 357.723 52.2934 357.804L53.1031 358.003C53.5908 358.121 53.9542 358.302 54.1933 358.546C54.4324 358.788 54.552 359.099 54.552 359.48C54.552 359.793 54.462 360.072 54.2821 360.318C54.1045 360.564 53.8559 360.759 53.5363 360.901C53.2167 361.043 52.845 361.114 52.4213 361.114C51.8649 361.114 51.4045 360.993 51.0399 360.751C50.6753 360.51 50.4445 360.157 50.3474 359.693L51.1429 359.494C51.2186 359.788 51.3618 360.008 51.5725 360.155C51.7856 360.302 52.0638 360.375 52.4071 360.375C52.7977 360.375 53.1078 360.292 53.3375 360.126C53.5695 359.958 53.6855 359.757 53.6855 359.523C53.6855 359.333 53.6192 359.175 53.4866 359.047C53.354 358.917 53.1504 358.82 52.8758 358.756L51.9667 358.543C51.4672 358.424 51.1002 358.241 50.8659 357.992C50.6339 357.741 50.5179 357.428 50.5179 357.051C50.5179 356.743 50.6043 356.471 50.7771 356.234C50.9523 355.998 51.1902 355.812 51.4909 355.677C51.7939 355.542 52.1372 355.474 52.5207 355.474C53.0605 355.474 53.4842 355.593 53.792 355.83C54.1021 356.066 54.3223 356.379 54.4525 356.767ZM58.1661 353.727V361H57.2854V354.651H57.2428L55.4672 355.83V354.935L57.2854 353.727H58.1661ZM63.0453 356.696V355.929H67.4203V356.696H63.0453ZM63.0453 358.798V358.031H67.4203V358.798H63.0453ZM71.7145 361V360.361L74.1151 357.733C74.3968 357.425 74.6288 357.158 74.8111 356.93C74.9934 356.701 75.1283 356.485 75.2159 356.284C75.3059 356.08 75.3509 355.867 75.3509 355.645C75.3509 355.389 75.2893 355.168 75.1662 354.981C75.0455 354.794 74.8798 354.649 74.6691 354.548C74.4584 354.446 74.2216 354.395 73.9588 354.395C73.6795 354.395 73.4356 354.453 73.2273 354.569C73.0213 354.683 72.8615 354.842 72.7479 355.048C72.6366 355.254 72.581 355.496 72.581 355.773H71.7429C71.7429 355.347 71.8412 354.973 72.0377 354.651C72.2342 354.329 72.5017 354.078 72.8402 353.898C73.1811 353.718 73.5635 353.628 73.9872 353.628C74.4134 353.628 74.791 353.718 75.1201 353.898C75.4491 354.078 75.7072 354.32 75.8942 354.626C76.0812 354.931 76.1747 355.271 76.1747 355.645C76.1747 355.912 76.1262 356.174 76.0291 356.43C75.9345 356.683 75.7687 356.966 75.532 357.278C75.2976 357.589 74.9721 357.967 74.5554 358.415L72.9219 360.162V360.219H76.3026V361H71.7145Z" fill="black"/>
<path d="M362.131 26.7273C362.131 24.9375 362.363 23.2921 362.827 21.7912C363.295 20.2855 363.963 18.9006 364.83 17.6364H366.307C365.966 18.1051 365.646 18.6828 365.348 19.3693C365.054 20.0511 364.796 20.8016 364.574 21.6207C364.351 22.4351 364.176 23.2779 364.048 24.1491C363.925 25.0204 363.864 25.8797 363.864 26.7273C363.864 27.8542 363.973 28.9976 364.19 30.1577C364.408 31.3177 364.702 32.3949 365.071 33.3892C365.44 34.3835 365.852 35.1932 366.307 35.8182H364.83C363.963 34.554 363.295 33.1714 362.827 31.6705C362.363 30.1648 362.131 28.517 362.131 26.7273ZM378.532 34.1989C377.594 34.1989 376.758 34.0379 376.024 33.7159C375.295 33.3939 374.715 32.9465 374.284 32.3736C373.858 31.7959 373.626 31.1259 373.588 30.3636H375.378C375.416 30.8324 375.577 31.2372 375.861 31.5781C376.145 31.9143 376.517 32.1747 376.976 32.3594C377.435 32.544 377.944 32.6364 378.503 32.6364C379.128 32.6364 379.682 32.5275 380.165 32.3097C380.648 32.0919 381.027 31.7888 381.301 31.4006C381.576 31.0123 381.713 30.5625 381.713 30.0511C381.713 29.5161 381.581 29.045 381.316 28.6378C381.05 28.2259 380.662 27.9039 380.151 27.6719C379.64 27.4399 379.015 27.3239 378.276 27.3239H377.111V25.7614H378.276C378.854 25.7614 379.36 25.6572 379.796 25.4489C380.236 25.2405 380.579 24.947 380.826 24.5682C381.077 24.1894 381.202 23.7443 381.202 23.233C381.202 22.7405 381.093 22.312 380.875 21.9474C380.657 21.5829 380.35 21.2988 379.952 21.0952C379.559 20.8916 379.095 20.7898 378.56 20.7898C378.058 20.7898 377.585 20.8821 377.14 21.0668C376.699 21.2467 376.339 21.5095 376.06 21.8551C375.781 22.196 375.629 22.608 375.605 23.0909H373.901C373.929 22.3286 374.159 21.661 374.59 21.0881C375.021 20.5104 375.584 20.0606 376.28 19.7386C376.981 19.4167 377.75 19.2557 378.588 19.2557C379.488 19.2557 380.26 19.438 380.904 19.8026C381.548 20.1624 382.042 20.6383 382.388 21.2301C382.734 21.822 382.907 22.4612 382.907 23.1477C382.907 23.9669 382.691 24.6652 382.26 25.2429C381.834 25.8205 381.254 26.2206 380.52 26.4432V26.5568C381.439 26.7083 382.156 27.099 382.672 27.7287C383.188 28.3537 383.446 29.1278 383.446 30.0511C383.446 30.8419 383.231 31.5521 382.8 32.1818C382.374 32.8068 381.791 33.2992 381.053 33.6591C380.314 34.0189 379.474 34.1989 378.532 34.1989ZM393.745 32.0114L393.631 32.7784C393.55 33.3182 393.427 33.8958 393.262 34.5114C393.101 35.1269 392.933 35.7069 392.757 36.2514C392.582 36.7959 392.438 37.2292 392.324 37.5511H391.046C391.107 37.2481 391.188 36.848 391.287 36.3509C391.387 35.8537 391.486 35.2973 391.585 34.6818C391.69 34.071 391.775 33.446 391.841 32.8068L391.926 32.0114H393.745ZM410.54 27.8636C410.54 29.6534 410.305 31.3011 409.836 32.8068C409.372 34.3078 408.707 35.6903 407.841 36.9545H406.363C406.704 36.4858 407.022 35.9081 407.315 35.2216C407.613 34.5398 407.874 33.7917 408.096 32.9773C408.319 32.1581 408.492 31.313 408.615 30.4418C408.743 29.5658 408.807 28.7064 408.807 27.8636C408.807 26.7367 408.698 25.5933 408.48 24.4332C408.262 23.2732 407.969 22.196 407.599 21.2017C407.23 20.2074 406.818 19.3977 406.363 18.7727H407.841C408.707 20.0369 409.372 21.4219 409.836 22.9276C410.305 24.4285 410.54 26.0739 410.54 27.8636Z" fill="black"/>
<rect x="68.9414" y="2.07568" width="45.0365" height="44.2899" rx="3" fill="white"/>
<rect x="68.9414" y="2.07568" width="45.0365" height="44.2899" rx="3" stroke="white" stroke-width="2"/>
<rect x="68.9414" y="2.07568" width="45.0365" height="44.2899" rx="3" stroke="black" stroke-opacity="0.2" stroke-width="2"/>
<rect x="114.484" y="2.07568" width="45.0365" height="44.2899" rx="3" fill="white"/>
<rect x="114.484" y="2.07568" width="45.0365" height="44.2899" rx="3" stroke="white" stroke-width="2"/>
<rect x="114.484" y="2.07568" width="45.0365" height="44.2899" rx="3" stroke="black" stroke-opacity="0.2" stroke-width="2"/>
<rect x="160.027" y="2.07568" width="45.0365" height="44.2899" rx="3" fill="white"/>
<rect x="160.027" y="2.07568" width="45.0365" height="44.2899" rx="3" stroke="white" stroke-width="2"/>
<rect x="160.027" y="2.07568" width="45.0365" height="44.2899" rx="3" stroke="black" stroke-opacity="0.2" stroke-width="2"/>
<path d="M78 58L68 53.2265V64.7735L78 60V58ZM195 60L205 64.7735V53.2265L195 58V60ZM77 60H196V58H77V60Z" fill="black"/>
<rect x="74.9141" y="176.072" width="42.7232" height="42.0133" rx="3" fill="white"/>
<rect x="74.9141" y="176.072" width="42.7232" height="42.0133" rx="3" stroke="white" stroke-width="2"/>
<rect x="74.9141" y="176.072" width="42.7232" height="42.0133" rx="3" stroke="black" stroke-opacity="0.2" stroke-width="2"/>
<rect x="74.9141" y="133.479" width="42.7232" height="42.0133" rx="3" fill="white"/>
<rect x="74.9141" y="133.479" width="42.7232" height="42.0133" rx="3" stroke="white" stroke-width="2"/>
<rect x="74.9141" y="133.479" width="42.7232" height="42.0133" rx="3" stroke="black" stroke-opacity="0.2" stroke-width="2"/>
<rect x="118.217" y="176.072" width="42.7232" height="42.0133" rx="3" fill="white"/>
<rect x="118.217" y="176.072" width="42.7232" height="42.0133" rx="3" stroke="white" stroke-width="2"/>
<rect x="118.217" y="176.072" width="42.7232" height="42.0133" rx="3" stroke="black" stroke-opacity="0.2" stroke-width="2"/>
<rect x="118.217" y="133.479" width="42.7232" height="42.0133" rx="3" fill="white"/>
<rect x="118.217" y="133.479" width="42.7232" height="42.0133" rx="3" stroke="white" stroke-width="2"/>
<rect x="118.217" y="133.479" width="42.7232" height="42.0133" rx="3" stroke="black" stroke-opacity="0.2" stroke-width="2"/>
<rect x="161.521" y="176.072" width="42.7232" height="42.0133" rx="3" fill="white"/>
<rect x="161.521" y="176.072" width="42.7232" height="42.0133" rx="3" stroke="white" stroke-width="2"/>
<rect x="161.521" y="176.072" width="42.7232" height="42.0133" rx="3" stroke="black" stroke-opacity="0.2" stroke-width="2"/>
<rect x="161.521" y="133.479" width="42.7232" height="42.0133" rx="3" fill="white"/>
<rect x="161.521" y="133.479" width="42.7232" height="42.0133" rx="3" stroke="white" stroke-width="2"/>
<rect x="161.521" y="133.479" width="42.7232" height="42.0133" rx="3" stroke="black" stroke-opacity="0.2" stroke-width="2"/>
<path d="M84 230L74 225.226L74 236.774L84 232L84 230ZM195 232L205 236.774L205 225.227L195 230L195 232ZM83 232L196 232L196 230L83 230L83 232Z" fill="black"/>
<path d="M61 209L56.2265 219L67.7735 219L63 209L61 209ZM63 142L67.7735 132L56.2265 132L61 142L63 142ZM63 210L63 141L61 141L61 210L63 210Z" fill="black"/>
<rect x="105.41" y="349.473" width="39.7839" height="39.1206" rx="3" fill="#EFEFEF"/>
<rect x="105.41" y="349.473" width="39.7839" height="39.1206" rx="3" stroke="white" stroke-width="2"/>
<rect x="105.41" y="349.473" width="39.7839" height="39.1206" rx="3" stroke="black" stroke-opacity="0.2" stroke-width="2"/>
<rect x="145.867" y="349.473" width="39.7839" height="39.1206" rx="3" fill="#EFEFEF"/>
<rect x="145.867" y="349.473" width="39.7839" height="39.1206" rx="3" stroke="white" stroke-width="2"/>
<rect x="145.867" y="349.473" width="39.7839" height="39.1206" rx="3" stroke="black" stroke-opacity="0.2" stroke-width="2"/>
<path d="M116.667 379.277C115.875 379.277 115.167 379.074 114.545 378.669C113.927 378.26 113.441 377.679 113.088 376.924C112.738 376.166 112.564 375.256 112.564 374.195C112.564 373.134 112.74 372.226 113.094 371.472C113.452 370.718 113.942 370.14 114.564 369.74C115.186 369.339 115.892 369.139 116.68 369.139C117.289 369.139 117.779 369.241 118.15 369.446C118.525 369.646 118.815 369.88 119.02 370.149C119.228 370.417 119.39 370.654 119.505 370.858H119.62V365.994H121.532V379.085H119.665V377.557H119.505C119.39 377.766 119.224 378.005 119.007 378.273C118.794 378.542 118.5 378.776 118.125 378.976C117.75 379.177 117.264 379.277 116.667 379.277ZM117.089 377.647C117.639 377.647 118.103 377.502 118.483 377.212C118.866 376.918 119.156 376.511 119.352 375.991C119.552 375.471 119.652 374.866 119.652 374.176C119.652 373.494 119.554 372.897 119.358 372.386C119.162 371.875 118.875 371.476 118.495 371.191C118.116 370.905 117.647 370.763 117.089 370.763C116.514 370.763 116.034 370.912 115.651 371.21C115.267 371.508 114.978 371.915 114.782 372.431C114.59 372.946 114.494 373.528 114.494 374.176C114.494 374.832 114.592 375.422 114.788 375.946C114.984 376.471 115.274 376.886 115.657 377.193C116.045 377.495 116.522 377.647 117.089 377.647ZM126.775 379.302C126.152 379.302 125.59 379.187 125.087 378.957C124.584 378.723 124.186 378.384 123.892 377.941C123.602 377.498 123.457 376.954 123.457 376.311C123.457 375.757 123.564 375.301 123.777 374.943C123.99 374.585 124.277 374.302 124.64 374.093C125.002 373.884 125.407 373.726 125.854 373.62C126.302 373.513 126.758 373.432 127.222 373.377C127.81 373.309 128.287 373.253 128.654 373.211C129.02 373.164 129.287 373.089 129.453 372.987C129.619 372.885 129.702 372.718 129.702 372.488V372.444C129.702 371.885 129.545 371.453 129.229 371.146C128.918 370.839 128.454 370.686 127.836 370.686C127.192 370.686 126.685 370.829 126.314 371.114C125.948 371.395 125.694 371.709 125.554 372.054L123.758 371.645C123.971 371.048 124.282 370.566 124.691 370.2C125.104 369.829 125.579 369.561 126.116 369.395C126.653 369.224 127.218 369.139 127.81 369.139C128.202 369.139 128.618 369.186 129.057 369.28C129.5 369.369 129.913 369.535 130.297 369.778C130.684 370.021 131.002 370.368 131.249 370.82C131.496 371.267 131.62 371.849 131.62 372.565V379.085H129.753V377.743H129.677C129.553 377.99 129.368 378.233 129.121 378.471C128.873 378.71 128.556 378.908 128.168 379.066C127.78 379.223 127.316 379.302 126.775 379.302ZM127.19 377.768C127.719 377.768 128.17 377.664 128.545 377.455C128.925 377.246 129.212 376.973 129.408 376.637C129.608 376.296 129.709 375.932 129.709 375.544V374.278C129.64 374.346 129.508 374.41 129.312 374.47C129.121 374.525 128.901 374.574 128.654 374.617C128.407 374.655 128.166 374.691 127.932 374.726C127.697 374.755 127.501 374.781 127.344 374.802C126.973 374.849 126.634 374.928 126.327 375.039C126.025 375.15 125.782 375.309 125.599 375.518C125.42 375.723 125.33 375.995 125.33 376.336C125.33 376.809 125.505 377.167 125.854 377.41C126.204 377.649 126.649 377.768 127.19 377.768ZM138.407 369.267V370.801H133.044V369.267H138.407ZM134.482 366.915H136.393V376.202C136.393 376.573 136.448 376.852 136.559 377.04C136.67 377.223 136.813 377.348 136.988 377.417C137.166 377.481 137.36 377.513 137.569 377.513C137.723 377.513 137.857 377.502 137.972 377.481C138.087 377.459 138.176 377.442 138.24 377.429L138.586 379.008C138.475 379.051 138.317 379.093 138.113 379.136C137.908 379.183 137.652 379.209 137.345 379.213C136.843 379.221 136.374 379.132 135.939 378.944C135.505 378.757 135.153 378.467 134.885 378.075C134.616 377.683 134.482 377.191 134.482 376.598V366.915ZM115.849 406.302C115.227 406.302 114.664 406.187 114.162 405.957C113.659 405.723 113.26 405.384 112.966 404.941C112.676 404.498 112.532 403.954 112.532 403.311C112.532 402.757 112.638 402.301 112.851 401.943C113.064 401.585 113.352 401.302 113.714 401.093C114.076 400.884 114.481 400.726 114.929 400.62C115.376 400.513 115.832 400.432 116.297 400.377C116.885 400.309 117.362 400.253 117.728 400.211C118.095 400.164 118.361 400.089 118.527 399.987C118.694 399.885 118.777 399.718 118.777 399.488V399.444C118.777 398.885 118.619 398.453 118.304 398.146C117.993 397.839 117.528 397.686 116.91 397.686C116.267 397.686 115.76 397.829 115.389 398.114C115.022 398.395 114.769 398.709 114.628 399.054L112.832 398.645C113.045 398.048 113.356 397.566 113.765 397.2C114.179 396.829 114.654 396.561 115.191 396.395C115.728 396.224 116.292 396.139 116.885 396.139C117.277 396.139 117.692 396.186 118.131 396.28C118.574 396.369 118.988 396.535 119.371 396.778C119.759 397.021 120.076 397.368 120.324 397.82C120.571 398.267 120.694 398.849 120.694 399.565V406.085H118.828V404.743H118.751C118.627 404.99 118.442 405.233 118.195 405.471C117.948 405.71 117.63 405.908 117.243 406.066C116.855 406.223 116.39 406.302 115.849 406.302ZM116.265 404.768C116.793 404.768 117.245 404.664 117.62 404.455C117.999 404.246 118.287 403.973 118.483 403.637C118.683 403.296 118.783 402.932 118.783 402.544V401.278C118.715 401.346 118.583 401.41 118.387 401.47C118.195 401.525 117.975 401.574 117.728 401.617C117.481 401.655 117.24 401.691 117.006 401.726C116.772 401.755 116.576 401.781 116.418 401.802C116.047 401.849 115.708 401.928 115.402 402.039C115.099 402.15 114.856 402.309 114.673 402.518C114.494 402.723 114.404 402.995 114.404 403.336C114.404 403.809 114.579 404.167 114.929 404.41C115.278 404.649 115.723 404.768 116.265 404.768Z" fill="white"/>
<path d="M157.788 379.277C156.996 379.277 156.288 379.074 155.666 378.669C155.048 378.26 154.563 377.679 154.209 376.924C153.859 376.166 153.685 375.256 153.685 374.195C153.685 373.134 153.862 372.226 154.215 371.472C154.573 370.718 155.063 370.14 155.685 369.74C156.308 369.339 157.013 369.139 157.801 369.139C158.411 369.139 158.901 369.241 159.271 369.446C159.646 369.646 159.936 369.88 160.141 370.149C160.349 370.417 160.511 370.654 160.626 370.858H160.741V365.994H162.653V379.085H160.786V377.557H160.626C160.511 377.766 160.345 378.005 160.128 378.273C159.915 378.542 159.621 378.776 159.246 378.976C158.871 379.177 158.385 379.277 157.788 379.277ZM158.21 377.647C158.76 377.647 159.224 377.502 159.604 377.212C159.987 376.918 160.277 376.511 160.473 375.991C160.673 375.471 160.773 374.866 160.773 374.176C160.773 373.494 160.675 372.897 160.479 372.386C160.283 371.875 159.996 371.476 159.616 371.191C159.237 370.905 158.768 370.763 158.21 370.763C157.635 370.763 157.156 370.912 156.772 371.21C156.388 371.508 156.099 371.915 155.903 372.431C155.711 372.946 155.615 373.528 155.615 374.176C155.615 374.832 155.713 375.422 155.909 375.946C156.105 376.471 156.395 376.886 156.778 377.193C157.166 377.495 157.643 377.647 158.21 377.647ZM167.896 379.302C167.274 379.302 166.711 379.187 166.208 378.957C165.705 378.723 165.307 378.384 165.013 377.941C164.723 377.498 164.578 376.954 164.578 376.311C164.578 375.757 164.685 375.301 164.898 374.943C165.111 374.585 165.399 374.302 165.761 374.093C166.123 373.884 166.528 373.726 166.975 373.62C167.423 373.513 167.879 373.432 168.343 373.377C168.931 373.309 169.409 373.253 169.775 373.211C170.141 373.164 170.408 373.089 170.574 372.987C170.74 372.885 170.823 372.718 170.823 372.488V372.444C170.823 371.885 170.666 371.453 170.35 371.146C170.039 370.839 169.575 370.686 168.957 370.686C168.313 370.686 167.806 370.829 167.436 371.114C167.069 371.395 166.815 371.709 166.675 372.054L164.879 371.645C165.092 371.048 165.403 370.566 165.812 370.2C166.225 369.829 166.7 369.561 167.237 369.395C167.774 369.224 168.339 369.139 168.931 369.139C169.323 369.139 169.739 369.186 170.178 369.28C170.621 369.369 171.034 369.535 171.418 369.778C171.806 370.021 172.123 370.368 172.37 370.82C172.617 371.267 172.741 371.849 172.741 372.565V379.085H170.874V377.743H170.798C170.674 377.99 170.489 378.233 170.242 378.471C169.994 378.71 169.677 378.908 169.289 379.066C168.901 379.223 168.437 379.302 167.896 379.302ZM168.311 377.768C168.84 377.768 169.291 377.664 169.666 377.455C170.046 377.246 170.333 376.973 170.529 376.637C170.73 376.296 170.83 375.932 170.83 375.544V374.278C170.762 374.346 170.629 374.41 170.433 374.47C170.242 374.525 170.022 374.574 169.775 374.617C169.528 374.655 169.287 374.691 169.053 374.726C168.818 374.755 168.622 374.781 168.465 374.802C168.094 374.849 167.755 374.928 167.448 375.039C167.146 375.15 166.903 375.309 166.72 375.518C166.541 375.723 166.451 375.995 166.451 376.336C166.451 376.809 166.626 377.167 166.975 377.41C167.325 377.649 167.77 377.768 168.311 377.768ZM179.528 369.267V370.801H174.165V369.267H179.528ZM175.603 366.915H177.514V376.202C177.514 376.573 177.57 376.852 177.68 377.04C177.791 377.223 177.934 377.348 178.109 377.417C178.288 377.481 178.481 377.513 178.69 377.513C178.844 377.513 178.978 377.502 179.093 377.481C179.208 377.459 179.298 377.442 179.361 377.429L179.707 379.008C179.596 379.051 179.438 379.093 179.234 379.136C179.029 379.183 178.773 379.209 178.467 379.213C177.964 379.221 177.495 379.132 177.06 378.944C176.626 378.757 176.274 378.467 176.006 378.075C175.737 377.683 175.603 377.191 175.603 376.598V366.915ZM156.97 406.302C156.348 406.302 155.786 406.187 155.283 405.957C154.78 405.723 154.381 405.384 154.087 404.941C153.798 404.498 153.653 403.954 153.653 403.311C153.653 402.757 153.759 402.301 153.972 401.943C154.185 401.585 154.473 401.302 154.835 401.093C155.197 400.884 155.602 400.726 156.05 400.62C156.497 400.513 156.953 400.432 157.418 400.377C158.006 400.309 158.483 400.253 158.849 400.211C159.216 400.164 159.482 400.089 159.648 399.987C159.815 399.885 159.898 399.718 159.898 399.488V399.444C159.898 398.885 159.74 398.453 159.425 398.146C159.114 397.839 158.649 397.686 158.031 397.686C157.388 397.686 156.881 397.829 156.51 398.114C156.143 398.395 155.89 398.709 155.749 399.054L153.953 398.645C154.166 398.048 154.477 397.566 154.886 397.2C155.3 396.829 155.775 396.561 156.312 396.395C156.849 396.224 157.413 396.139 158.006 396.139C158.398 396.139 158.813 396.186 159.252 396.28C159.695 396.369 160.109 396.535 160.492 396.778C160.88 397.021 161.197 397.368 161.445 397.82C161.692 398.267 161.815 398.849 161.815 399.565V406.085H159.949V404.743H159.872C159.749 404.99 159.563 405.233 159.316 405.471C159.069 405.71 158.751 405.908 158.364 406.066C157.976 406.223 157.511 406.302 156.97 406.302ZM157.386 404.768C157.914 404.768 158.366 404.664 158.741 404.455C159.12 404.246 159.408 403.973 159.604 403.637C159.804 403.296 159.904 402.932 159.904 402.544V401.278C159.836 401.346 159.704 401.41 159.508 401.47C159.316 401.525 159.097 401.574 158.849 401.617C158.602 401.655 158.362 401.691 158.127 401.726C157.893 401.755 157.697 401.781 157.539 401.802C157.168 401.849 156.83 401.928 156.523 402.039C156.22 402.15 155.977 402.309 155.794 402.518C155.615 402.723 155.526 402.995 155.526 403.336C155.526 403.809 155.7 404.167 156.05 404.41C156.399 404.649 156.844 404.768 157.386 404.768Z" fill="white"/>
<rect x="105.41" y="309.679" width="39.7839" height="39.1206" rx="3" fill="#EFEFEF"/>
<rect x="105.41" y="309.679" width="39.7839" height="39.1206" rx="3" stroke="white" stroke-width="2"/>
<rect x="105.41" y="309.679" width="39.7839" height="39.1206" rx="3" stroke="black" stroke-opacity="0.2" stroke-width="2"/>
<rect x="145.867" y="309.679" width="39.7839" height="39.1206" rx="3" fill="#EFEFEF"/>
<rect x="145.867" y="309.679" width="39.7839" height="39.1206" rx="3" stroke="white" stroke-width="2"/>
<rect x="145.867" y="309.679" width="39.7839" height="39.1206" rx="3" stroke="black" stroke-opacity="0.2" stroke-width="2"/>
<path d="M116.667 339.482C115.875 339.482 115.167 339.28 114.545 338.875C113.927 338.466 113.441 337.884 113.088 337.13C112.738 336.371 112.564 335.462 112.564 334.401C112.564 333.34 112.74 332.432 113.094 331.678C113.452 330.923 113.942 330.346 114.564 329.945C115.186 329.545 115.892 329.345 116.68 329.345C117.289 329.345 117.779 329.447 118.15 329.651C118.525 329.852 118.815 330.086 119.02 330.354C119.228 330.623 119.39 330.859 119.505 331.064H119.62V326.2H121.532V339.291H119.665V337.763H119.505C119.39 337.972 119.224 338.21 119.007 338.479C118.794 338.747 118.5 338.982 118.125 339.182C117.75 339.382 117.264 339.482 116.667 339.482ZM117.089 337.852C117.639 337.852 118.103 337.707 118.483 337.418C118.866 337.124 119.156 336.717 119.352 336.197C119.552 335.677 119.652 335.072 119.652 334.381C119.652 333.7 119.554 333.103 119.358 332.592C119.162 332.08 118.875 331.682 118.495 331.396C118.116 331.111 117.647 330.968 117.089 330.968C116.514 330.968 116.034 331.117 115.651 331.416C115.267 331.714 114.978 332.121 114.782 332.636C114.59 333.152 114.494 333.734 114.494 334.381C114.494 335.038 114.592 335.628 114.788 336.152C114.984 336.676 115.274 337.092 115.657 337.398C116.045 337.701 116.522 337.852 117.089 337.852ZM126.775 339.508C126.152 339.508 125.59 339.393 125.087 339.163C124.584 338.928 124.186 338.59 123.892 338.146C123.602 337.703 123.457 337.16 123.457 336.516C123.457 335.962 123.564 335.506 123.777 335.148C123.99 334.791 124.277 334.507 124.64 334.298C125.002 334.09 125.407 333.932 125.854 333.825C126.302 333.719 126.758 333.638 127.222 333.582C127.81 333.514 128.287 333.459 128.654 333.416C129.02 333.369 129.287 333.295 129.453 333.193C129.619 333.09 129.702 332.924 129.702 332.694V332.649C129.702 332.091 129.545 331.658 129.229 331.352C128.918 331.045 128.454 330.891 127.836 330.891C127.192 330.891 126.685 331.034 126.314 331.32C125.948 331.601 125.694 331.914 125.554 332.259L123.758 331.85C123.971 331.254 124.282 330.772 124.691 330.406C125.104 330.035 125.579 329.766 126.116 329.6C126.653 329.43 127.218 329.345 127.81 329.345C128.202 329.345 128.618 329.391 129.057 329.485C129.5 329.575 129.913 329.741 130.297 329.984C130.684 330.227 131.002 330.574 131.249 331.026C131.496 331.473 131.62 332.055 131.62 332.771V339.291H129.753V337.948H129.677C129.553 338.195 129.368 338.438 129.121 338.677C128.873 338.916 128.556 339.114 128.168 339.271C127.78 339.429 127.316 339.508 126.775 339.508ZM127.19 337.974C127.719 337.974 128.17 337.869 128.545 337.661C128.925 337.452 129.212 337.179 129.408 336.842C129.608 336.501 129.709 336.137 129.709 335.749V334.484C129.64 334.552 129.508 334.616 129.312 334.675C129.121 334.731 128.901 334.78 128.654 334.822C128.407 334.861 128.166 334.897 127.932 334.931C127.697 334.961 127.501 334.987 127.344 335.008C126.973 335.055 126.634 335.134 126.327 335.244C126.025 335.355 125.782 335.515 125.599 335.724C125.42 335.928 125.33 336.201 125.33 336.542C125.33 337.015 125.505 337.373 125.854 337.616C126.204 337.854 126.649 337.974 127.19 337.974ZM138.407 329.472V331.006H133.044V329.472H138.407ZM134.482 327.12H136.393V336.408C136.393 336.778 136.448 337.058 136.559 337.245C136.67 337.428 136.813 337.554 136.988 337.622C137.166 337.686 137.36 337.718 137.569 337.718C137.723 337.718 137.857 337.707 137.972 337.686C138.087 337.665 138.176 337.648 138.24 337.635L138.586 339.214C138.475 339.256 138.317 339.299 138.113 339.342C137.908 339.389 137.652 339.414 137.345 339.418C136.843 339.427 136.374 339.337 135.939 339.15C135.505 338.962 135.153 338.673 134.885 338.281C134.616 337.889 134.482 337.396 134.482 336.804V327.12ZM115.849 366.508C115.227 366.508 114.664 366.393 114.162 366.163C113.659 365.928 113.26 365.59 112.966 365.146C112.676 364.703 112.532 364.16 112.532 363.516C112.532 362.962 112.638 362.506 112.851 362.148C113.064 361.791 113.352 361.507 113.714 361.298C114.076 361.09 114.481 360.932 114.929 360.825C115.376 360.719 115.832 360.638 116.297 360.582C116.885 360.514 117.362 360.459 117.728 360.416C118.095 360.369 118.361 360.295 118.527 360.193C118.694 360.09 118.777 359.924 118.777 359.694V359.649C118.777 359.091 118.619 358.658 118.304 358.352C117.993 358.045 117.528 357.891 116.91 357.891C116.267 357.891 115.76 358.034 115.389 358.32C115.022 358.601 114.769 358.914 114.628 359.259L112.832 358.85C113.045 358.254 113.356 357.772 113.765 357.406C114.179 357.035 114.654 356.766 115.191 356.6C115.728 356.43 116.292 356.345 116.885 356.345C117.277 356.345 117.692 356.391 118.131 356.485C118.574 356.575 118.988 356.741 119.371 356.984C119.759 357.227 120.076 357.574 120.324 358.026C120.571 358.473 120.694 359.055 120.694 359.771V366.291H118.828V364.948H118.751C118.627 365.195 118.442 365.438 118.195 365.677C117.948 365.916 117.63 366.114 117.243 366.271C116.855 366.429 116.39 366.508 115.849 366.508ZM116.265 364.974C116.793 364.974 117.245 364.869 117.62 364.661C117.999 364.452 118.287 364.179 118.483 363.842C118.683 363.501 118.783 363.137 118.783 362.749V361.484C118.715 361.552 118.583 361.616 118.387 361.675C118.195 361.731 117.975 361.78 117.728 361.822C117.481 361.861 117.24 361.897 117.006 361.931C116.772 361.961 116.576 361.987 116.418 362.008C116.047 362.055 115.708 362.134 115.402 362.244C115.099 362.355 114.856 362.515 114.673 362.724C114.494 362.928 114.404 363.201 114.404 363.542C114.404 364.015 114.579 364.373 114.929 364.616C115.278 364.854 115.723 364.974 116.265 364.974Z" fill="white"/>
<path d="M157.788 339.482C156.996 339.482 156.288 339.28 155.666 338.875C155.048 338.466 154.563 337.884 154.209 337.13C153.859 336.371 153.685 335.462 153.685 334.401C153.685 333.34 153.862 332.432 154.215 331.678C154.573 330.923 155.063 330.346 155.685 329.945C156.308 329.545 157.013 329.345 157.801 329.345C158.411 329.345 158.901 329.447 159.271 329.651C159.646 329.852 159.936 330.086 160.141 330.354C160.349 330.623 160.511 330.859 160.626 331.064H160.741V326.2H162.653V339.291H160.786V337.763H160.626C160.511 337.972 160.345 338.21 160.128 338.479C159.915 338.747 159.621 338.982 159.246 339.182C158.871 339.382 158.385 339.482 157.788 339.482ZM158.21 337.852C158.76 337.852 159.224 337.707 159.604 337.418C159.987 337.124 160.277 336.717 160.473 336.197C160.673 335.677 160.773 335.072 160.773 334.381C160.773 333.7 160.675 333.103 160.479 332.592C160.283 332.08 159.996 331.682 159.616 331.396C159.237 331.111 158.768 330.968 158.21 330.968C157.635 330.968 157.156 331.117 156.772 331.416C156.388 331.714 156.099 332.121 155.903 332.636C155.711 333.152 155.615 333.734 155.615 334.381C155.615 335.038 155.713 335.628 155.909 336.152C156.105 336.676 156.395 337.092 156.778 337.398C157.166 337.701 157.643 337.852 158.21 337.852ZM167.896 339.508C167.274 339.508 166.711 339.393 166.208 339.163C165.705 338.928 165.307 338.59 165.013 338.146C164.723 337.703 164.578 337.16 164.578 336.516C164.578 335.962 164.685 335.506 164.898 335.148C165.111 334.791 165.399 334.507 165.761 334.298C166.123 334.09 166.528 333.932 166.975 333.825C167.423 333.719 167.879 333.638 168.343 333.582C168.931 333.514 169.409 333.459 169.775 333.416C170.141 333.369 170.408 333.295 170.574 333.193C170.74 333.09 170.823 332.924 170.823 332.694V332.649C170.823 332.091 170.666 331.658 170.35 331.352C170.039 331.045 169.575 330.891 168.957 330.891C168.313 330.891 167.806 331.034 167.436 331.32C167.069 331.601 166.815 331.914 166.675 332.259L164.879 331.85C165.092 331.254 165.403 330.772 165.812 330.406C166.225 330.035 166.7 329.766 167.237 329.6C167.774 329.43 168.339 329.345 168.931 329.345C169.323 329.345 169.739 329.391 170.178 329.485C170.621 329.575 171.034 329.741 171.418 329.984C171.806 330.227 172.123 330.574 172.37 331.026C172.617 331.473 172.741 332.055 172.741 332.771V339.291H170.874V337.948H170.798C170.674 338.195 170.489 338.438 170.242 338.677C169.994 338.916 169.677 339.114 169.289 339.271C168.901 339.429 168.437 339.508 167.896 339.508ZM168.311 337.974C168.84 337.974 169.291 337.869 169.666 337.661C170.046 337.452 170.333 337.179 170.529 336.842C170.73 336.501 170.83 336.137 170.83 335.749V334.484C170.762 334.552 170.629 334.616 170.433 334.675C170.242 334.731 170.022 334.78 169.775 334.822C169.528 334.861 169.287 334.897 169.053 334.931C168.818 334.961 168.622 334.987 168.465 335.008C168.094 335.055 167.755 335.134 167.448 335.244C167.146 335.355 166.903 335.515 166.72 335.724C166.541 335.928 166.451 336.201 166.451 336.542C166.451 337.015 166.626 337.373 166.975 337.616C167.325 337.854 167.77 337.974 168.311 337.974ZM179.528 329.472V331.006H174.165V329.472H179.528ZM175.603 327.12H177.514V336.408C177.514 336.778 177.57 337.058 177.68 337.245C177.791 337.428 177.934 337.554 178.109 337.622C178.288 337.686 178.481 337.718 178.69 337.718C178.844 337.718 178.978 337.707 179.093 337.686C179.208 337.665 179.298 337.648 179.361 337.635L179.707 339.214C179.596 339.256 179.438 339.299 179.234 339.342C179.029 339.389 178.773 339.414 178.467 339.418C177.964 339.427 177.495 339.337 177.06 339.15C176.626 338.962 176.274 338.673 176.006 338.281C175.737 337.889 175.603 337.396 175.603 336.804V327.12ZM156.97 366.508C156.348 366.508 155.786 366.393 155.283 366.163C154.78 365.928 154.381 365.59 154.087 365.146C153.798 364.703 153.653 364.16 153.653 363.516C153.653 362.962 153.759 362.506 153.972 362.148C154.185 361.791 154.473 361.507 154.835 361.298C155.197 361.09 155.602 360.932 156.05 360.825C156.497 360.719 156.953 360.638 157.418 360.582C158.006 360.514 158.483 360.459 158.849 360.416C159.216 360.369 159.482 360.295 159.648 360.193C159.815 360.09 159.898 359.924 159.898 359.694V359.649C159.898 359.091 159.74 358.658 159.425 358.352C159.114 358.045 158.649 357.891 158.031 357.891C157.388 357.891 156.881 358.034 156.51 358.32C156.143 358.601 155.89 358.914 155.749 359.259L153.953 358.85C154.166 358.254 154.477 357.772 154.886 357.406C155.3 357.035 155.775 356.766 156.312 356.6C156.849 356.43 157.413 356.345 158.006 356.345C158.398 356.345 158.813 356.391 159.252 356.485C159.695 356.575 160.109 356.741 160.492 356.984C160.88 357.227 161.197 357.574 161.445 358.026C161.692 358.473 161.815 359.055 161.815 359.771V366.291H159.949V364.948H159.872C159.749 365.195 159.563 365.438 159.316 365.677C159.069 365.916 158.751 366.114 158.364 366.271C157.976 366.429 157.511 366.508 156.97 366.508ZM157.386 364.974C157.914 364.974 158.366 364.869 158.741 364.661C159.12 364.452 159.408 364.179 159.604 363.842C159.804 363.501 159.904 363.137 159.904 362.749V361.484C159.836 361.552 159.704 361.616 159.508 361.675C159.316 361.731 159.097 361.78 158.849 361.822C158.602 361.861 158.362 361.897 158.127 361.931C157.893 361.961 157.697 361.987 157.539 362.008C157.168 362.055 156.83 362.134 156.523 362.244C156.22 362.355 155.977 362.515 155.794 362.724C155.615 362.928 155.526 363.201 155.526 363.542C155.526 364.015 155.7 364.373 156.05 364.616C156.399 364.854 156.844 364.974 157.386 364.974Z" fill="white"/>
<rect x="95.0742" y="356.358" width="42.3819" height="41.6774" rx="3" fill="white"/>
<rect x="95.0742" y="356.358" width="42.3819" height="41.6774" rx="3" stroke="white" stroke-width="2"/>
<rect x="95.0742" y="356.358" width="42.3819" height="41.6774" rx="3" stroke="black" stroke-opacity="0.2" stroke-width="2"/>
<rect x="138.047" y="356.358" width="42.3819" height="41.6774" rx="3" fill="white"/>
<rect x="138.047" y="356.358" width="42.3819" height="41.6774" rx="3" stroke="white" stroke-width="2"/>
<rect x="138.047" y="356.358" width="42.3819" height="41.6774" rx="3" stroke="black" stroke-opacity="0.2" stroke-width="2"/>
<rect x="95.0742" y="314.09" width="42.3819" height="41.6774" rx="3" fill="white"/>
<rect x="95.0742" y="314.09" width="42.3819" height="41.6774" rx="3" stroke="white" stroke-width="2"/>
<rect x="95.0742" y="314.09" width="42.3819" height="41.6774" rx="3" stroke="black" stroke-opacity="0.2" stroke-width="2"/>
<rect x="138.047" y="314.09" width="42.3819" height="41.6774" rx="3" fill="white"/>
<rect x="138.047" y="314.09" width="42.3819" height="41.6774" rx="3" stroke="white" stroke-width="2"/>
<rect x="138.047" y="314.09" width="42.3819" height="41.6774" rx="3" stroke="black" stroke-opacity="0.2" stroke-width="2"/>
<path d="M104 408L94 403.226L94 414.774L104 410L104 408ZM171 410L181 414.774L181 403.227L171 408L171 410ZM103 410L172 410L172 408L103 408L103 410Z" fill="black"/>
<path d="M195.257 391.397L186.308 395.799L194.465 402.239L196.67 392.513L195.257 391.397ZM196.715 392.455L205.664 388.053L197.508 381.614L195.303 391.34L196.715 392.455ZM196.112 393.219L197.273 391.749L195.86 390.633L194.699 392.104L196.112 393.219Z" fill="black"/>
<path d="M82 389L77.2265 399L88.7735 399L84 389L82 389ZM84 325L88.7735 315L77.2265 315L82 325L84 325ZM84 390L84 324L82 324L82 390L84 390Z" fill="black"/>
<path d="M256.976 33.1847C256.507 33.1847 256.105 33.0189 255.768 32.6875C255.437 32.3513 255.271 31.9489 255.271 31.4801C255.271 31.0161 255.437 30.6184 255.768 30.2869C256.105 29.9555 256.507 29.7898 256.976 29.7898C257.43 29.7898 257.828 29.9555 258.169 30.2869C258.51 30.6184 258.68 31.0161 258.68 31.4801C258.68 31.7926 258.6 32.0791 258.439 32.3395C258.283 32.5952 258.077 32.8011 257.821 32.9574C257.565 33.1089 257.284 33.1847 256.976 33.1847ZM269.861 25.2017L267.091 25.3722C267.044 25.1354 266.942 24.9223 266.786 24.733C266.63 24.5388 266.424 24.3849 266.168 24.2713C265.917 24.1529 265.616 24.0938 265.266 24.0938C264.797 24.0938 264.402 24.1932 264.08 24.392C263.758 24.5862 263.597 24.8466 263.597 25.1733C263.597 25.4337 263.701 25.6539 263.909 25.8338C264.118 26.0137 264.475 26.1581 264.982 26.267L266.956 26.6648C268.017 26.8826 268.808 27.233 269.328 27.7159C269.849 28.1989 270.11 28.8333 270.11 29.6193C270.11 30.3343 269.899 30.9616 269.478 31.5014C269.061 32.0412 268.488 32.4626 267.759 32.7656C267.034 33.0639 266.199 33.2131 265.252 33.2131C263.808 33.2131 262.657 32.9124 261.8 32.3111C260.948 31.705 260.448 30.8812 260.301 29.8395L263.277 29.6832C263.367 30.1236 263.585 30.4598 263.931 30.6918C264.276 30.919 264.719 31.0327 265.259 31.0327C265.789 31.0327 266.215 30.9309 266.537 30.7273C266.864 30.5189 267.03 30.2514 267.034 29.9247C267.03 29.6501 266.914 29.4252 266.686 29.25C266.459 29.0701 266.109 28.9328 265.635 28.8381L263.746 28.4616C262.681 28.2486 261.888 27.8793 261.367 27.3537C260.851 26.8281 260.593 26.1581 260.593 25.3438C260.593 24.643 260.782 24.0393 261.161 23.5327C261.544 23.026 262.082 22.6354 262.773 22.3608C263.469 22.0862 264.283 21.9489 265.216 21.9489C266.594 21.9489 267.678 22.2401 268.469 22.8224C269.265 23.4048 269.729 24.1979 269.861 25.2017ZM274.66 26.6932V33H271.635V18.4545H274.575V24.0156H274.703C274.949 23.3717 275.347 22.8674 275.896 22.5028C276.445 22.1335 277.134 21.9489 277.963 21.9489C278.721 21.9489 279.381 22.1146 279.945 22.446C280.513 22.7727 280.953 23.2438 281.266 23.8594C281.583 24.4702 281.739 25.2017 281.734 26.054V33H278.709V26.5938C278.713 25.9214 278.543 25.3982 278.197 25.0241C277.856 24.6501 277.378 24.4631 276.763 24.4631C276.351 24.4631 275.986 24.5507 275.669 24.7259C275.356 24.901 275.11 25.1567 274.93 25.4929C274.755 25.8243 274.665 26.2244 274.66 26.6932ZM286.846 33.206C286.15 33.206 285.53 33.0852 284.985 32.8438C284.441 32.5975 284.01 32.2353 283.693 31.7571C283.38 31.2741 283.224 30.6728 283.224 29.9531C283.224 29.3471 283.335 28.8381 283.558 28.4261C283.78 28.0142 284.083 27.6828 284.467 27.4318C284.85 27.1809 285.286 26.9915 285.774 26.8636C286.266 26.7358 286.782 26.6458 287.322 26.5938C287.956 26.5275 288.468 26.4659 288.856 26.4091C289.244 26.3475 289.526 26.2576 289.701 26.1392C289.876 26.0208 289.964 25.8456 289.964 25.6136V25.571C289.964 25.1212 289.822 24.7732 289.538 24.527C289.259 24.2808 288.861 24.1577 288.345 24.1577C287.8 24.1577 287.367 24.2784 287.045 24.5199C286.723 24.7566 286.51 25.0549 286.406 25.4148L283.608 25.1875C283.75 24.5246 284.029 23.9517 284.446 23.4688C284.862 22.9811 285.4 22.607 286.058 22.3466C286.721 22.0814 287.488 21.9489 288.359 21.9489C288.965 21.9489 289.545 22.0199 290.099 22.1619C290.658 22.304 291.152 22.5241 291.583 22.8224C292.019 23.1207 292.362 23.5043 292.613 23.973C292.864 24.437 292.99 24.9934 292.99 25.642V33H290.12V31.4872H290.035C289.86 31.8281 289.626 32.1288 289.332 32.3892C289.038 32.6449 288.686 32.8461 288.274 32.9929C287.862 33.1349 287.386 33.206 286.846 33.206ZM287.713 31.1179C288.158 31.1179 288.551 31.0303 288.892 30.8551C289.233 30.6752 289.5 30.4337 289.694 30.1307C289.888 29.8277 289.985 29.4844 289.985 29.1009V27.9432C289.891 28.0047 289.76 28.0616 289.595 28.1136C289.434 28.161 289.251 28.206 289.048 28.2486C288.844 28.2865 288.641 28.322 288.437 28.3551C288.233 28.3835 288.049 28.4096 287.883 28.4332C287.528 28.4853 287.218 28.5682 286.953 28.6818C286.688 28.7955 286.482 28.9493 286.335 29.1435C286.188 29.3329 286.115 29.5696 286.115 29.8537C286.115 30.2656 286.264 30.5805 286.562 30.7983C286.865 31.0114 287.249 31.1179 287.713 31.1179ZM294.957 37.0909V22.0909H297.94V23.9233H298.075C298.207 23.6297 298.399 23.3314 298.65 23.0284C298.906 22.7206 299.237 22.465 299.644 22.2614C300.056 22.053 300.568 21.9489 301.179 21.9489C301.974 21.9489 302.708 22.1572 303.38 22.5739C304.053 22.9858 304.59 23.6084 304.992 24.4418C305.395 25.2704 305.596 26.3097 305.596 27.5597C305.596 28.7765 305.4 29.804 305.007 30.642C304.618 31.4754 304.088 32.1075 303.416 32.5384C302.748 32.9645 302 33.1776 301.171 33.1776C300.584 33.1776 300.085 33.0805 299.673 32.8864C299.266 32.6922 298.932 32.4484 298.671 32.1548C298.411 31.8565 298.212 31.5559 298.075 31.2528H297.982V37.0909H294.957ZM297.919 27.5455C297.919 28.1941 298.009 28.7599 298.188 29.2429C298.368 29.7259 298.629 30.1023 298.97 30.3722C299.311 30.6373 299.725 30.7699 300.213 30.7699C300.705 30.7699 301.122 30.6349 301.463 30.3651C301.804 30.0904 302.062 29.7116 302.237 29.2287C302.417 28.741 302.507 28.1799 302.507 27.5455C302.507 26.9157 302.419 26.3617 302.244 25.8835C302.069 25.4053 301.811 25.0312 301.47 24.7614C301.129 24.4915 300.71 24.3565 300.213 24.3565C299.72 24.3565 299.304 24.4867 298.963 24.7472C298.626 25.0076 298.368 25.3769 298.188 25.8551C298.009 26.3333 297.919 26.8968 297.919 27.5455ZM312.205 33.2131C311.083 33.2131 310.117 32.9858 309.307 32.5312C308.502 32.072 307.882 31.4233 307.446 30.5852C307.011 29.7424 306.793 28.7457 306.793 27.5952C306.793 26.473 307.011 25.4882 307.446 24.6406C307.882 23.7931 308.495 23.1326 309.286 22.6591C310.081 22.1856 311.014 21.9489 312.084 21.9489C312.804 21.9489 313.474 22.0649 314.094 22.2969C314.719 22.5241 315.263 22.8674 315.727 23.3267C316.196 23.786 316.561 24.3636 316.821 25.0597C317.082 25.7509 317.212 26.5606 317.212 27.4886V28.3196H308V26.4446H314.364C314.364 26.009 314.269 25.6231 314.08 25.2869C313.89 24.9508 313.628 24.688 313.291 24.4986C312.96 24.3045 312.574 24.2074 312.134 24.2074C311.674 24.2074 311.267 24.3139 310.912 24.527C310.562 24.7353 310.287 25.017 310.088 25.3722C309.889 25.7225 309.788 26.1132 309.783 26.544V28.3267C309.783 28.8665 309.882 29.3329 310.081 29.7259C310.285 30.1188 310.571 30.4219 310.941 30.6349C311.31 30.848 311.748 30.9545 312.254 30.9545C312.591 30.9545 312.898 30.9072 313.178 30.8125C313.457 30.7178 313.696 30.5758 313.895 30.3864C314.094 30.197 314.245 29.965 314.35 29.6903L317.148 29.875C317.006 30.5473 316.715 31.1345 316.274 31.6364C315.839 32.1335 315.275 32.5218 314.584 32.8011C313.897 33.0758 313.104 33.2131 312.205 33.2131Z" fill="#751515"/>
<rect opacity="0.5" x="240.883" y="337.528" width="76.4204" height="30.6111" rx="5" fill="#FF4646"/>
<path d="M334.269 350.88C335.232 352.004 335.232 353.662 334.269 354.786L318.211 373.512C316.398 375.626 312.934 374.344 312.934 371.559L312.934 334.107C312.934 331.322 316.398 330.04 318.211 332.154L334.269 350.88Z" fill="#FA9D9D"/>
<path d="M256.976 359.185C256.507 359.185 256.105 359.019 255.768 358.688C255.437 358.351 255.271 357.949 255.271 357.48C255.271 357.016 255.437 356.618 255.768 356.287C256.105 355.955 256.507 355.79 256.976 355.79C257.43 355.79 257.828 355.955 258.169 356.287C258.51 356.618 258.68 357.016 258.68 357.48C258.68 357.793 258.6 358.079 258.439 358.339C258.283 358.595 258.077 358.801 257.821 358.957C257.565 359.109 257.284 359.185 256.976 359.185ZM269.861 351.202L267.091 351.372C267.044 351.135 266.942 350.922 266.786 350.733C266.63 350.539 266.424 350.385 266.168 350.271C265.917 350.153 265.616 350.094 265.266 350.094C264.797 350.094 264.402 350.193 264.08 350.392C263.758 350.586 263.597 350.847 263.597 351.173C263.597 351.434 263.701 351.654 263.909 351.834C264.118 352.014 264.475 352.158 264.982 352.267L266.956 352.665C268.017 352.883 268.808 353.233 269.328 353.716C269.849 354.199 270.11 354.833 270.11 355.619C270.11 356.334 269.899 356.962 269.478 357.501C269.061 358.041 268.488 358.463 267.759 358.766C267.034 359.064 266.199 359.213 265.252 359.213C263.808 359.213 262.657 358.912 261.8 358.311C260.948 357.705 260.448 356.881 260.301 355.839L263.277 355.683C263.367 356.124 263.585 356.46 263.931 356.692C264.276 356.919 264.719 357.033 265.259 357.033C265.789 357.033 266.215 356.931 266.537 356.727C266.864 356.519 267.03 356.251 267.034 355.925C267.03 355.65 266.914 355.425 266.686 355.25C266.459 355.07 266.109 354.933 265.635 354.838L263.746 354.462C262.681 354.249 261.888 353.879 261.367 353.354C260.851 352.828 260.593 352.158 260.593 351.344C260.593 350.643 260.782 350.039 261.161 349.533C261.544 349.026 262.082 348.635 262.773 348.361C263.469 348.086 264.283 347.949 265.216 347.949C266.594 347.949 267.678 348.24 268.469 348.822C269.265 349.405 269.729 350.198 269.861 351.202ZM274.66 352.693V359H271.635V344.455H274.575V350.016H274.703C274.949 349.372 275.347 348.867 275.896 348.503C276.445 348.134 277.134 347.949 277.963 347.949C278.721 347.949 279.381 348.115 279.945 348.446C280.513 348.773 280.953 349.244 281.266 349.859C281.583 350.47 281.739 351.202 281.734 352.054V359H278.709V352.594C278.713 351.921 278.543 351.398 278.197 351.024C277.856 350.65 277.378 350.463 276.763 350.463C276.351 350.463 275.986 350.551 275.669 350.726C275.356 350.901 275.11 351.157 274.93 351.493C274.755 351.824 274.665 352.224 274.66 352.693ZM286.846 359.206C286.15 359.206 285.53 359.085 284.985 358.844C284.441 358.598 284.01 358.235 283.693 357.757C283.38 357.274 283.224 356.673 283.224 355.953C283.224 355.347 283.335 354.838 283.558 354.426C283.78 354.014 284.083 353.683 284.467 353.432C284.85 353.181 285.286 352.991 285.774 352.864C286.266 352.736 286.782 352.646 287.322 352.594C287.956 352.527 288.468 352.466 288.856 352.409C289.244 352.348 289.526 352.258 289.701 352.139C289.876 352.021 289.964 351.846 289.964 351.614V351.571C289.964 351.121 289.822 350.773 289.538 350.527C289.259 350.281 288.861 350.158 288.345 350.158C287.8 350.158 287.367 350.278 287.045 350.52C286.723 350.757 286.51 351.055 286.406 351.415L283.608 351.188C283.75 350.525 284.029 349.952 284.446 349.469C284.862 348.981 285.4 348.607 286.058 348.347C286.721 348.081 287.488 347.949 288.359 347.949C288.965 347.949 289.545 348.02 290.099 348.162C290.658 348.304 291.152 348.524 291.583 348.822C292.019 349.121 292.362 349.504 292.613 349.973C292.864 350.437 292.99 350.993 292.99 351.642V359H290.12V357.487H290.035C289.86 357.828 289.626 358.129 289.332 358.389C289.038 358.645 288.686 358.846 288.274 358.993C287.862 359.135 287.386 359.206 286.846 359.206ZM287.713 357.118C288.158 357.118 288.551 357.03 288.892 356.855C289.233 356.675 289.5 356.434 289.694 356.131C289.888 355.828 289.985 355.484 289.985 355.101V353.943C289.891 354.005 289.76 354.062 289.595 354.114C289.434 354.161 289.251 354.206 289.048 354.249C288.844 354.286 288.641 354.322 288.437 354.355C288.233 354.384 288.049 354.41 287.883 354.433C287.528 354.485 287.218 354.568 286.953 354.682C286.688 354.795 286.482 354.949 286.335 355.143C286.188 355.333 286.115 355.57 286.115 355.854C286.115 356.266 286.264 356.58 286.562 356.798C286.865 357.011 287.249 357.118 287.713 357.118ZM294.957 363.091V348.091H297.94V349.923H298.075C298.207 349.63 298.399 349.331 298.65 349.028C298.906 348.721 299.237 348.465 299.644 348.261C300.056 348.053 300.568 347.949 301.179 347.949C301.974 347.949 302.708 348.157 303.38 348.574C304.053 348.986 304.59 349.608 304.992 350.442C305.395 351.27 305.596 352.31 305.596 353.56C305.596 354.777 305.4 355.804 305.007 356.642C304.618 357.475 304.088 358.107 303.416 358.538C302.748 358.964 302 359.178 301.171 359.178C300.584 359.178 300.085 359.08 299.673 358.886C299.266 358.692 298.932 358.448 298.671 358.155C298.411 357.857 298.212 357.556 298.075 357.253H297.982V363.091H294.957ZM297.919 353.545C297.919 354.194 298.009 354.76 298.188 355.243C298.368 355.726 298.629 356.102 298.97 356.372C299.311 356.637 299.725 356.77 300.213 356.77C300.705 356.77 301.122 356.635 301.463 356.365C301.804 356.09 302.062 355.712 302.237 355.229C302.417 354.741 302.507 354.18 302.507 353.545C302.507 352.916 302.419 352.362 302.244 351.884C302.069 351.405 301.811 351.031 301.47 350.761C301.129 350.491 300.71 350.357 300.213 350.357C299.72 350.357 299.304 350.487 298.963 350.747C298.626 351.008 298.368 351.377 298.188 351.855C298.009 352.333 297.919 352.897 297.919 353.545ZM312.205 359.213C311.083 359.213 310.117 358.986 309.307 358.531C308.502 358.072 307.882 357.423 307.446 356.585C307.011 355.742 306.793 354.746 306.793 353.595C306.793 352.473 307.011 351.488 307.446 350.641C307.882 349.793 308.495 349.133 309.286 348.659C310.081 348.186 311.014 347.949 312.084 347.949C312.804 347.949 313.474 348.065 314.094 348.297C314.719 348.524 315.263 348.867 315.727 349.327C316.196 349.786 316.561 350.364 316.821 351.06C317.082 351.751 317.212 352.561 317.212 353.489V354.32H308V352.445H314.364C314.364 352.009 314.269 351.623 314.08 351.287C313.89 350.951 313.628 350.688 313.291 350.499C312.96 350.304 312.574 350.207 312.134 350.207C311.674 350.207 311.267 350.314 310.912 350.527C310.562 350.735 310.287 351.017 310.088 351.372C309.889 351.723 309.788 352.113 309.783 352.544V354.327C309.783 354.866 309.882 355.333 310.081 355.726C310.285 356.119 310.571 356.422 310.941 356.635C311.31 356.848 311.748 356.955 312.254 356.955C312.591 356.955 312.898 356.907 313.178 356.812C313.457 356.718 313.696 356.576 313.895 356.386C314.094 356.197 314.245 355.965 314.35 355.69L317.148 355.875C317.006 356.547 316.715 357.134 316.274 357.636C315.839 358.134 315.275 358.522 314.584 358.801C313.897 359.076 313.104 359.213 312.205 359.213Z" fill="#751515"/>
<rect opacity="0.5" x="240.883" y="158.528" width="76.4204" height="30.6111" rx="5" fill="#FF4646"/>
<path d="M334.269 171.88C335.232 173.004 335.232 174.662 334.269 175.786L318.211 194.512C316.398 196.626 312.934 195.344 312.934 192.559L312.934 155.107C312.934 152.322 316.398 151.04 318.211 153.154L334.269 171.88Z" fill="#FA9D9D"/>
<path d="M256.976 180.185C256.507 180.185 256.105 180.019 255.768 179.688C255.437 179.351 255.271 178.949 255.271 178.48C255.271 178.016 255.437 177.618 255.768 177.287C256.105 176.955 256.507 176.79 256.976 176.79C257.43 176.79 257.828 176.955 258.169 177.287C258.51 177.618 258.68 178.016 258.68 178.48C258.68 178.793 258.6 179.079 258.439 179.339C258.283 179.595 258.077 179.801 257.821 179.957C257.565 180.109 257.284 180.185 256.976 180.185ZM269.861 172.202L267.091 172.372C267.044 172.135 266.942 171.922 266.786 171.733C266.63 171.539 266.424 171.385 266.168 171.271C265.917 171.153 265.616 171.094 265.266 171.094C264.797 171.094 264.402 171.193 264.08 171.392C263.758 171.586 263.597 171.847 263.597 172.173C263.597 172.434 263.701 172.654 263.909 172.834C264.118 173.014 264.475 173.158 264.982 173.267L266.956 173.665C268.017 173.883 268.808 174.233 269.328 174.716C269.849 175.199 270.11 175.833 270.11 176.619C270.11 177.334 269.899 177.962 269.478 178.501C269.061 179.041 268.488 179.463 267.759 179.766C267.034 180.064 266.199 180.213 265.252 180.213C263.808 180.213 262.657 179.912 261.8 179.311C260.948 178.705 260.448 177.881 260.301 176.839L263.277 176.683C263.367 177.124 263.585 177.46 263.931 177.692C264.276 177.919 264.719 178.033 265.259 178.033C265.789 178.033 266.215 177.931 266.537 177.727C266.864 177.519 267.03 177.251 267.034 176.925C267.03 176.65 266.914 176.425 266.686 176.25C266.459 176.07 266.109 175.933 265.635 175.838L263.746 175.462C262.681 175.249 261.888 174.879 261.367 174.354C260.851 173.828 260.593 173.158 260.593 172.344C260.593 171.643 260.782 171.039 261.161 170.533C261.544 170.026 262.082 169.635 262.773 169.361C263.469 169.086 264.283 168.949 265.216 168.949C266.594 168.949 267.678 169.24 268.469 169.822C269.265 170.405 269.729 171.198 269.861 172.202ZM274.66 173.693V180H271.635V165.455H274.575V171.016H274.703C274.949 170.372 275.347 169.867 275.896 169.503C276.445 169.134 277.134 168.949 277.963 168.949C278.721 168.949 279.381 169.115 279.945 169.446C280.513 169.773 280.953 170.244 281.266 170.859C281.583 171.47 281.739 172.202 281.734 173.054V180H278.709V173.594C278.713 172.921 278.543 172.398 278.197 172.024C277.856 171.65 277.378 171.463 276.763 171.463C276.351 171.463 275.986 171.551 275.669 171.726C275.356 171.901 275.11 172.157 274.93 172.493C274.755 172.824 274.665 173.224 274.66 173.693ZM286.846 180.206C286.15 180.206 285.53 180.085 284.985 179.844C284.441 179.598 284.01 179.235 283.693 178.757C283.38 178.274 283.224 177.673 283.224 176.953C283.224 176.347 283.335 175.838 283.558 175.426C283.78 175.014 284.083 174.683 284.467 174.432C284.85 174.181 285.286 173.991 285.774 173.864C286.266 173.736 286.782 173.646 287.322 173.594C287.956 173.527 288.468 173.466 288.856 173.409C289.244 173.348 289.526 173.258 289.701 173.139C289.876 173.021 289.964 172.846 289.964 172.614V172.571C289.964 172.121 289.822 171.773 289.538 171.527C289.259 171.281 288.861 171.158 288.345 171.158C287.8 171.158 287.367 171.278 287.045 171.52C286.723 171.757 286.51 172.055 286.406 172.415L283.608 172.188C283.75 171.525 284.029 170.952 284.446 170.469C284.862 169.981 285.4 169.607 286.058 169.347C286.721 169.081 287.488 168.949 288.359 168.949C288.965 168.949 289.545 169.02 290.099 169.162C290.658 169.304 291.152 169.524 291.583 169.822C292.019 170.121 292.362 170.504 292.613 170.973C292.864 171.437 292.99 171.993 292.99 172.642V180H290.12V178.487H290.035C289.86 178.828 289.626 179.129 289.332 179.389C289.038 179.645 288.686 179.846 288.274 179.993C287.862 180.135 287.386 180.206 286.846 180.206ZM287.713 178.118C288.158 178.118 288.551 178.03 288.892 177.855C289.233 177.675 289.5 177.434 289.694 177.131C289.888 176.828 289.985 176.484 289.985 176.101V174.943C289.891 175.005 289.76 175.062 289.595 175.114C289.434 175.161 289.251 175.206 289.048 175.249C288.844 175.286 288.641 175.322 288.437 175.355C288.233 175.384 288.049 175.41 287.883 175.433C287.528 175.485 287.218 175.568 286.953 175.682C286.688 175.795 286.482 175.949 286.335 176.143C286.188 176.333 286.115 176.57 286.115 176.854C286.115 177.266 286.264 177.58 286.562 177.798C286.865 178.011 287.249 178.118 287.713 178.118ZM294.957 184.091V169.091H297.94V170.923H298.075C298.207 170.63 298.399 170.331 298.65 170.028C298.906 169.721 299.237 169.465 299.644 169.261C300.056 169.053 300.568 168.949 301.179 168.949C301.974 168.949 302.708 169.157 303.38 169.574C304.053 169.986 304.59 170.608 304.992 171.442C305.395 172.27 305.596 173.31 305.596 174.56C305.596 175.777 305.4 176.804 305.007 177.642C304.618 178.475 304.088 179.107 303.416 179.538C302.748 179.964 302 180.178 301.171 180.178C300.584 180.178 300.085 180.08 299.673 179.886C299.266 179.692 298.932 179.448 298.671 179.155C298.411 178.857 298.212 178.556 298.075 178.253H297.982V184.091H294.957ZM297.919 174.545C297.919 175.194 298.009 175.76 298.188 176.243C298.368 176.726 298.629 177.102 298.97 177.372C299.311 177.637 299.725 177.77 300.213 177.77C300.705 177.77 301.122 177.635 301.463 177.365C301.804 177.09 302.062 176.712 302.237 176.229C302.417 175.741 302.507 175.18 302.507 174.545C302.507 173.916 302.419 173.362 302.244 172.884C302.069 172.405 301.811 172.031 301.47 171.761C301.129 171.491 300.71 171.357 300.213 171.357C299.72 171.357 299.304 171.487 298.963 171.747C298.626 172.008 298.368 172.377 298.188 172.855C298.009 173.333 297.919 173.897 297.919 174.545ZM312.205 180.213C311.083 180.213 310.117 179.986 309.307 179.531C308.502 179.072 307.882 178.423 307.446 177.585C307.011 176.742 306.793 175.746 306.793 174.595C306.793 173.473 307.011 172.488 307.446 171.641C307.882 170.793 308.495 170.133 309.286 169.659C310.081 169.186 311.014 168.949 312.084 168.949C312.804 168.949 313.474 169.065 314.094 169.297C314.719 169.524 315.263 169.867 315.727 170.327C316.196 170.786 316.561 171.364 316.821 172.06C317.082 172.751 317.212 173.561 317.212 174.489V175.32H308V173.445H314.364C314.364 173.009 314.269 172.623 314.08 172.287C313.89 171.951 313.628 171.688 313.291 171.499C312.96 171.304 312.574 171.207 312.134 171.207C311.674 171.207 311.267 171.314 310.912 171.527C310.562 171.735 310.287 172.017 310.088 172.372C309.889 172.723 309.788 173.113 309.783 173.544V175.327C309.783 175.866 309.882 176.333 310.081 176.726C310.285 177.119 310.571 177.422 310.941 177.635C311.31 177.848 311.748 177.955 312.254 177.955C312.591 177.955 312.898 177.907 313.178 177.812C313.457 177.718 313.696 177.576 313.895 177.386C314.094 177.197 314.245 176.965 314.35 176.69L317.148 176.875C317.006 177.547 316.715 178.134 316.274 178.636C315.839 179.134 315.275 179.522 314.584 179.801C313.897 180.076 313.104 180.213 312.205 180.213Z" fill="#751515"/>
<path d="M362.131 175.727C362.131 173.937 362.363 172.292 362.827 170.791C363.295 169.286 363.963 167.901 364.83 166.636H366.307C365.966 167.105 365.646 167.683 365.348 168.369C365.054 169.051 364.796 169.802 364.574 170.621C364.351 171.435 364.176 172.278 364.048 173.149C363.925 174.02 363.864 174.88 363.864 175.727C363.864 176.854 363.973 177.998 364.19 179.158C364.408 180.318 364.702 181.395 365.071 182.389C365.44 183.384 365.852 184.193 366.307 184.818H364.83C363.963 183.554 363.295 182.171 362.827 180.67C362.363 179.165 362.131 177.517 362.131 175.727ZM373.617 183V181.722L378.418 176.466C378.981 175.85 379.445 175.315 379.81 174.861C380.175 174.402 380.444 173.971 380.62 173.568C380.8 173.161 380.89 172.735 380.89 172.29C380.89 171.778 380.766 171.336 380.52 170.962C380.279 170.588 379.947 170.299 379.526 170.095C379.104 169.892 378.631 169.79 378.105 169.79C377.547 169.79 377.059 169.906 376.642 170.138C376.23 170.365 375.911 170.685 375.684 171.097C375.461 171.509 375.35 171.991 375.35 172.545H373.674C373.674 171.693 373.87 170.945 374.263 170.301C374.656 169.657 375.191 169.155 375.868 168.795C376.55 168.436 377.315 168.256 378.162 168.256C379.015 168.256 379.77 168.436 380.428 168.795C381.086 169.155 381.602 169.641 381.976 170.251C382.35 170.862 382.537 171.542 382.537 172.29C382.537 172.825 382.44 173.348 382.246 173.859C382.057 174.366 381.725 174.932 381.252 175.557C380.783 176.177 380.132 176.935 379.299 177.83L376.032 181.324V181.438H382.793V183H373.617ZM393.12 181.011L393.006 181.778C392.925 182.318 392.802 182.896 392.637 183.511C392.476 184.127 392.308 184.707 392.132 185.251C391.957 185.796 391.813 186.229 391.699 186.551H390.421C390.482 186.248 390.563 185.848 390.662 185.351C390.762 184.854 390.861 184.297 390.96 183.682C391.065 183.071 391.15 182.446 391.216 181.807L391.301 181.011H393.12ZM411.221 183.199C410.284 183.199 409.448 183.038 408.714 182.716C407.985 182.394 407.405 181.946 406.974 181.374C406.548 180.796 406.316 180.126 406.278 179.364H408.068C408.106 179.832 408.267 180.237 408.551 180.578C408.835 180.914 409.207 181.175 409.666 181.359C410.125 181.544 410.634 181.636 411.193 181.636C411.818 181.636 412.372 181.527 412.855 181.31C413.338 181.092 413.717 180.789 413.991 180.401C414.266 180.012 414.403 179.562 414.403 179.051C414.403 178.516 414.271 178.045 414.005 177.638C413.74 177.226 413.352 176.904 412.841 176.672C412.329 176.44 411.704 176.324 410.966 176.324H409.801V174.761H410.966C411.543 174.761 412.05 174.657 412.486 174.449C412.926 174.241 413.269 173.947 413.515 173.568C413.766 173.189 413.892 172.744 413.892 172.233C413.892 171.741 413.783 171.312 413.565 170.947C413.347 170.583 413.04 170.299 412.642 170.095C412.249 169.892 411.785 169.79 411.25 169.79C410.748 169.79 410.274 169.882 409.829 170.067C409.389 170.247 409.029 170.509 408.75 170.855C408.47 171.196 408.319 171.608 408.295 172.091H406.591C406.619 171.329 406.849 170.661 407.28 170.088C407.711 169.51 408.274 169.061 408.97 168.739C409.671 168.417 410.44 168.256 411.278 168.256C412.178 168.256 412.95 168.438 413.594 168.803C414.237 169.162 414.732 169.638 415.078 170.23C415.424 170.822 415.596 171.461 415.596 172.148C415.596 172.967 415.381 173.665 414.95 174.243C414.524 174.821 413.944 175.221 413.21 175.443V175.557C414.129 175.708 414.846 176.099 415.362 176.729C415.878 177.354 416.136 178.128 416.136 179.051C416.136 179.842 415.921 180.552 415.49 181.182C415.064 181.807 414.481 182.299 413.743 182.659C413.004 183.019 412.164 183.199 411.221 183.199ZM427.514 175.727C427.514 177.517 427.28 179.165 426.811 180.67C426.347 182.171 425.682 183.554 424.815 184.818H423.338C423.679 184.349 423.996 183.772 424.29 183.085C424.588 182.403 424.848 181.655 425.071 180.841C425.293 180.022 425.466 179.177 425.589 178.305C425.717 177.429 425.781 176.57 425.781 175.727C425.781 174.6 425.672 173.457 425.454 172.297C425.236 171.137 424.943 170.06 424.574 169.065C424.204 168.071 423.792 167.261 423.338 166.636H424.815C425.682 167.901 426.347 169.286 426.811 170.791C427.28 172.292 427.514 173.937 427.514 175.727Z" fill="black"/>
<path d="M362.131 354.727C362.131 352.937 362.363 351.292 362.827 349.791C363.295 348.286 363.963 346.901 364.83 345.636H366.307C365.966 346.105 365.646 346.683 365.348 347.369C365.054 348.051 364.796 348.802 364.574 349.621C364.351 350.435 364.176 351.278 364.048 352.149C363.925 353.02 363.864 353.88 363.864 354.727C363.864 355.854 363.973 356.998 364.19 358.158C364.408 359.318 364.702 360.395 365.071 361.389C365.44 362.384 365.852 363.193 366.307 363.818H364.83C363.963 362.554 363.295 361.171 362.827 359.67C362.363 358.165 362.131 356.517 362.131 354.727ZM378.532 362.199C377.594 362.199 376.758 362.038 376.024 361.716C375.295 361.394 374.715 360.946 374.284 360.374C373.858 359.796 373.626 359.126 373.588 358.364H375.378C375.416 358.832 375.577 359.237 375.861 359.578C376.145 359.914 376.517 360.175 376.976 360.359C377.435 360.544 377.944 360.636 378.503 360.636C379.128 360.636 379.682 360.527 380.165 360.31C380.648 360.092 381.027 359.789 381.301 359.401C381.576 359.012 381.713 358.562 381.713 358.051C381.713 357.516 381.581 357.045 381.316 356.638C381.05 356.226 380.662 355.904 380.151 355.672C379.64 355.44 379.015 355.324 378.276 355.324H377.111V353.761H378.276C378.854 353.761 379.36 353.657 379.796 353.449C380.236 353.241 380.579 352.947 380.826 352.568C381.077 352.189 381.202 351.744 381.202 351.233C381.202 350.741 381.093 350.312 380.875 349.947C380.657 349.583 380.35 349.299 379.952 349.095C379.559 348.892 379.095 348.79 378.56 348.79C378.058 348.79 377.585 348.882 377.14 349.067C376.699 349.247 376.339 349.509 376.06 349.855C375.781 350.196 375.629 350.608 375.605 351.091H373.901C373.929 350.329 374.159 349.661 374.59 349.088C375.021 348.51 375.584 348.061 376.28 347.739C376.981 347.417 377.75 347.256 378.588 347.256C379.488 347.256 380.26 347.438 380.904 347.803C381.548 348.162 382.042 348.638 382.388 349.23C382.734 349.822 382.907 350.461 382.907 351.148C382.907 351.967 382.691 352.665 382.26 353.243C381.834 353.821 381.254 354.221 380.52 354.443V354.557C381.439 354.708 382.156 355.099 382.672 355.729C383.188 356.354 383.446 357.128 383.446 358.051C383.446 358.842 383.231 359.552 382.8 360.182C382.374 360.807 381.791 361.299 381.053 361.659C380.314 362.019 379.474 362.199 378.532 362.199ZM393.745 360.011L393.631 360.778C393.55 361.318 393.427 361.896 393.262 362.511C393.101 363.127 392.933 363.707 392.757 364.251C392.582 364.796 392.438 365.229 392.324 365.551H391.046C391.107 365.248 391.188 364.848 391.287 364.351C391.387 363.854 391.486 363.297 391.585 362.682C391.69 362.071 391.775 361.446 391.841 360.807L391.926 360.011H393.745ZM406.932 362V360.722L411.733 355.466C412.296 354.85 412.76 354.315 413.125 353.861C413.489 353.402 413.759 352.971 413.934 352.568C414.114 352.161 414.204 351.735 414.204 351.29C414.204 350.778 414.081 350.336 413.835 349.962C413.594 349.588 413.262 349.299 412.841 349.095C412.419 348.892 411.946 348.79 411.42 348.79C410.862 348.79 410.374 348.906 409.957 349.138C409.545 349.365 409.226 349.685 408.998 350.097C408.776 350.509 408.665 350.991 408.665 351.545H406.988C406.988 350.693 407.185 349.945 407.578 349.301C407.971 348.657 408.506 348.155 409.183 347.795C409.865 347.436 410.63 347.256 411.477 347.256C412.329 347.256 413.085 347.436 413.743 347.795C414.401 348.155 414.917 348.641 415.291 349.251C415.665 349.862 415.852 350.542 415.852 351.29C415.852 351.825 415.755 352.348 415.561 352.859C415.371 353.366 415.04 353.932 414.567 354.557C414.098 355.177 413.447 355.935 412.613 356.83L409.346 360.324V360.438H416.108V362H406.932ZM426.434 360.011L426.321 360.778C426.24 361.318 426.117 361.896 425.951 362.511C425.79 363.127 425.622 363.707 425.447 364.251C425.272 364.796 425.128 365.229 425.014 365.551H423.736C423.797 365.248 423.878 364.848 423.977 364.351C424.076 363.854 424.176 363.297 424.275 362.682C424.379 362.071 424.465 361.446 424.531 360.807L424.616 360.011H426.434ZM439.621 362V360.722L444.423 355.466C444.986 354.85 445.45 354.315 445.815 353.861C446.179 353.402 446.449 352.971 446.624 352.568C446.804 352.161 446.894 351.735 446.894 351.29C446.894 350.778 446.771 350.336 446.525 349.962C446.283 349.588 445.952 349.299 445.531 349.095C445.109 348.892 444.636 348.79 444.11 348.79C443.551 348.79 443.064 348.906 442.647 349.138C442.235 349.365 441.915 349.685 441.688 350.097C441.466 350.509 441.354 350.991 441.354 351.545H439.678C439.678 350.693 439.875 349.945 440.268 349.301C440.661 348.657 441.196 348.155 441.873 347.795C442.555 347.436 443.319 347.256 444.167 347.256C445.019 347.256 445.774 347.436 446.433 347.795C447.091 348.155 447.607 348.641 447.981 349.251C448.355 349.862 448.542 350.542 448.542 351.29C448.542 351.825 448.445 352.348 448.251 352.859C448.061 353.366 447.73 353.932 447.256 354.557C446.788 355.177 446.137 355.935 445.303 356.83L442.036 360.324V360.438H448.798V362H439.621ZM460.204 354.727C460.204 356.517 459.969 358.165 459.501 359.67C459.037 361.171 458.371 362.554 457.505 363.818H456.028C456.369 363.349 456.686 362.772 456.979 362.085C457.278 361.403 457.538 360.655 457.761 359.841C457.983 359.022 458.156 358.177 458.279 357.305C458.407 356.429 458.471 355.57 458.471 354.727C458.471 353.6 458.362 352.457 458.144 351.297C457.926 350.137 457.633 349.06 457.263 348.065C456.894 347.071 456.482 346.261 456.028 345.636H457.505C458.371 346.901 459.037 348.286 459.501 349.791C459.969 351.292 460.204 352.937 460.204 354.727Z" fill="black"/>
</svg>
