<svg width="381" height="183" viewBox="0 0 381 183" fill="none" xmlns="http://www.w3.org/2000/svg">
<circle cx="298" cy="92" r="76.5" transform="rotate(90 298 92)" stroke="#E87A7A" stroke-width="13"/>
<line x1="351.42" y1="40.4497" x2="246.45" y2="145.42" stroke="#E87A7A" stroke-width="13"/>
<rect x="267" y="76" width="66" height="32" fill="white"/>
<rect x="1" y="137.757" width="44.9945" height="44.2486" rx="3" fill="white"/>
<rect x="1" y="137.757" width="44.9945" height="44.2486" rx="3" stroke="white" stroke-width="2"/>
<rect x="1" y="137.757" width="44.9945" height="44.2486" rx="3" stroke="black" stroke-opacity="0.2" stroke-width="2"/>
<rect x="1" y="93" width="44.9945" height="44.2486" rx="3" fill="white"/>
<rect x="1" y="93" width="44.9945" height="44.2486" rx="3" stroke="white" stroke-width="2"/>
<rect x="1" y="93" width="44.9945" height="44.2486" rx="3" stroke="black" stroke-opacity="0.2" stroke-width="2"/>
<rect x="46.502" y="137.757" width="44.9945" height="44.2486" rx="3" fill="white"/>
<rect x="46.502" y="137.757" width="44.9945" height="44.2486" rx="3" stroke="white" stroke-width="2"/>
<rect x="46.502" y="137.757" width="44.9945" height="44.2486" rx="3" stroke="black" stroke-opacity="0.2" stroke-width="2"/>
<rect x="46.502" y="93" width="44.9945" height="44.2486" rx="3" fill="white"/>
<rect x="46.502" y="93" width="44.9945" height="44.2486" rx="3" stroke="white" stroke-width="2"/>
<rect x="46.502" y="93" width="44.9945" height="44.2486" rx="3" stroke="black" stroke-opacity="0.2" stroke-width="2"/>
<rect x="92.0059" y="137.757" width="44.9945" height="44.2486" rx="3" fill="white"/>
<rect x="92.0059" y="137.757" width="44.9945" height="44.2486" rx="3" stroke="white" stroke-width="2"/>
<rect x="92.0059" y="137.757" width="44.9945" height="44.2486" rx="3" stroke="black" stroke-opacity="0.2" stroke-width="2"/>
<rect x="92.0059" y="93" width="44.9945" height="44.2486" rx="3" fill="white"/>
<rect x="92.0059" y="93" width="44.9945" height="44.2486" rx="3" stroke="white" stroke-width="2"/>
<rect x="92.0059" y="93" width="44.9945" height="44.2486" rx="3" stroke="black" stroke-opacity="0.2" stroke-width="2"/>
<rect x="24" y="1" width="44.9947" height="44.2488" rx="3" fill="white"/>
<rect x="24" y="1" width="44.9947" height="44.2488" rx="3" stroke="white" stroke-width="2"/>
<rect x="24" y="1" width="44.9947" height="44.2488" rx="3" stroke="black" stroke-opacity="0.2" stroke-width="2"/>
<rect x="69.502" y="1" width="44.9947" height="44.2488" rx="3" fill="white"/>
<rect x="69.502" y="1" width="44.9947" height="44.2488" rx="3" stroke="white" stroke-width="2"/>
<rect x="69.502" y="1" width="44.9947" height="44.2488" rx="3" stroke="black" stroke-opacity="0.2" stroke-width="2"/>
<path d="M48.4636 13.8182V32H46.2619V16.1264H46.1554L41.7164 19.0739V16.8366L46.2619 13.8182H48.4636Z" fill="black"/>
<path d="M23.0666 124.249C21.8947 124.249 20.8501 124.047 19.9327 123.645C19.0212 123.242 18.2962 122.683 17.7576 121.967C17.225 121.245 16.935 120.407 16.8876 119.455H19.1248C19.1722 120.04 19.3734 120.547 19.7285 120.973C20.0836 121.393 20.5482 121.718 21.1223 121.949C21.6964 122.18 22.3327 122.295 23.0311 122.295C23.8123 122.295 24.5048 122.159 25.1085 121.887C25.7122 121.615 26.1857 121.236 26.5289 120.751C26.8722 120.265 27.0439 119.703 27.0439 119.064C27.0439 118.395 26.8781 117.806 26.5467 117.297C26.2153 116.782 25.7299 116.38 25.0907 116.09C24.4515 115.8 23.6703 115.655 22.747 115.655H21.291V113.702H22.747C23.469 113.702 24.1023 113.571 24.6468 113.311C25.1973 113.051 25.6264 112.684 25.9341 112.21C26.2478 111.737 26.4047 111.18 26.4047 110.541C26.4047 109.926 26.2685 109.39 25.9963 108.934C25.724 108.479 25.3393 108.123 24.8422 107.869C24.3509 107.614 23.7709 107.487 23.1021 107.487C22.4747 107.487 21.8829 107.603 21.3265 107.833C20.7761 108.058 20.3263 108.387 19.9771 108.819C19.6279 109.245 19.4385 109.76 19.4089 110.364H17.2782C17.3137 109.411 17.6008 108.576 18.1394 107.86C18.678 107.138 19.3823 106.576 20.2523 106.173C21.1283 105.771 22.09 105.57 23.1376 105.57C24.2621 105.57 25.2269 105.797 26.0318 106.253C26.8367 106.703 27.4552 107.298 27.8873 108.038C28.3193 108.777 28.5353 109.576 28.5353 110.435C28.5353 111.459 28.266 112.332 27.7275 113.054C27.1948 113.776 26.4698 114.276 25.5524 114.554V114.696C26.7006 114.885 27.5972 115.374 28.2424 116.161C28.8875 116.942 29.21 117.91 29.21 119.064C29.21 120.052 28.9408 120.94 28.4022 121.727C27.8695 122.509 27.1415 123.124 26.2182 123.574C25.2949 124.024 24.2444 124.249 23.0666 124.249Z" fill="black"/>
<path d="M67.8055 75.5085V61.446H70.1919V75.5085H67.8055ZM61.9674 69.6705V67.2841H76.0299V69.6705H61.9674Z" fill="black"/>
<path d="M114.959 124.249C113.917 124.249 112.979 124.041 112.145 123.627C111.31 123.213 110.641 122.645 110.138 121.923C109.635 121.201 109.36 120.378 109.313 119.455H111.443C111.526 120.277 111.899 120.958 112.562 121.496C113.231 122.029 114.03 122.295 114.959 122.295C115.705 122.295 116.368 122.121 116.948 121.772C117.534 121.422 117.992 120.943 118.324 120.333C118.661 119.718 118.83 119.022 118.83 118.247C118.83 117.454 118.655 116.747 118.306 116.125C117.963 115.498 117.489 115.004 116.885 114.643C116.282 114.282 115.592 114.098 114.817 114.092C114.261 114.086 113.689 114.172 113.103 114.35C112.518 114.521 112.035 114.743 111.656 115.016L109.597 114.767L110.698 105.818H120.144V107.771H112.544L111.905 113.134H112.011C112.384 112.838 112.852 112.592 113.414 112.397C113.976 112.201 114.562 112.104 115.172 112.104C116.285 112.104 117.276 112.37 118.146 112.903C119.022 113.429 119.709 114.152 120.206 115.069C120.709 115.986 120.96 117.034 120.96 118.212C120.96 119.372 120.7 120.407 120.179 121.319C119.664 122.224 118.954 122.941 118.048 123.467C117.143 123.988 116.113 124.249 114.959 124.249Z" fill="black"/>
<path d="M115.003 169.249C113.784 169.249 112.707 169.033 111.772 168.6C110.843 168.163 110.118 167.562 109.597 166.798C109.076 166.029 108.818 165.153 108.824 164.17C108.818 163.401 108.969 162.691 109.277 162.04C109.585 161.383 110.005 160.835 110.538 160.397C111.076 159.953 111.677 159.672 112.34 159.554V159.447C111.47 159.223 110.777 158.734 110.263 157.983C109.748 157.225 109.493 156.364 109.499 155.399C109.493 154.476 109.727 153.65 110.2 152.922C110.674 152.194 111.325 151.62 112.154 151.2C112.988 150.78 113.938 150.57 115.003 150.57C116.057 150.57 116.998 150.78 117.826 151.2C118.655 151.62 119.306 152.194 119.78 152.922C120.259 153.65 120.502 154.476 120.508 155.399C120.502 156.364 120.238 157.225 119.717 157.983C119.203 158.734 118.519 159.223 117.667 159.447V159.554C118.324 159.672 118.915 159.953 119.442 160.397C119.969 160.835 120.389 161.383 120.703 162.04C121.017 162.691 121.176 163.401 121.182 164.17C121.176 165.153 120.91 166.029 120.383 166.798C119.862 167.562 119.137 168.163 118.208 168.6C117.285 169.033 116.217 169.249 115.003 169.249ZM115.003 167.295C115.826 167.295 116.536 167.162 117.134 166.896C117.732 166.63 118.193 166.254 118.519 165.768C118.844 165.283 119.01 164.715 119.016 164.064C119.01 163.377 118.833 162.771 118.483 162.244C118.134 161.717 117.658 161.303 117.054 161.001C116.456 160.699 115.773 160.548 115.003 160.548C114.228 160.548 113.536 160.699 112.926 161.001C112.322 161.303 111.846 161.717 111.497 162.244C111.153 162.771 110.985 163.377 110.991 164.064C110.985 164.715 111.141 165.283 111.461 165.768C111.787 166.254 112.251 166.63 112.855 166.896C113.459 167.162 114.175 167.295 115.003 167.295ZM115.003 158.666C115.654 158.666 116.231 158.536 116.735 158.276C117.244 158.015 117.643 157.651 117.933 157.184C118.223 156.716 118.371 156.169 118.377 155.541C118.371 154.926 118.226 154.39 117.942 153.934C117.658 153.473 117.264 153.118 116.761 152.869C116.258 152.614 115.672 152.487 115.003 152.487C114.323 152.487 113.728 152.614 113.219 152.869C112.71 153.118 112.316 153.473 112.038 153.934C111.76 154.39 111.624 154.926 111.63 155.541C111.624 156.169 111.763 156.716 112.047 157.184C112.337 157.651 112.737 158.015 113.246 158.276C113.755 158.536 114.34 158.666 115.003 158.666Z" fill="black"/>
<path d="M86.3137 32V30.402L92.3152 23.8324C93.0195 23.063 93.5995 22.3942 94.0552 21.826C94.5109 21.2519 94.8483 20.7133 95.0673 20.2102C95.2922 19.7012 95.4047 19.1686 95.4047 18.6122C95.4047 17.973 95.2508 17.4196 94.943 16.9521C94.6412 16.4845 94.2269 16.1235 93.7001 15.869C93.1734 15.6145 92.5815 15.4872 91.9245 15.4872C91.2261 15.4872 90.6165 15.6322 90.0957 15.9222C89.5808 16.2063 89.1813 16.6058 88.8972 17.1207C88.619 17.6357 88.4799 18.2393 88.4799 18.9318H86.3848C86.3848 17.8665 86.6304 16.9313 87.1216 16.1264C87.6129 15.3215 88.2817 14.6941 89.128 14.2443C89.9803 13.7945 90.9361 13.5696 91.9956 13.5696C93.0609 13.5696 94.0049 13.7945 94.8276 14.2443C95.6503 14.6941 96.2954 15.3008 96.763 16.0643C97.2305 16.8278 97.4643 17.6771 97.4643 18.6122C97.4643 19.281 97.343 19.935 97.1003 20.5742C96.8636 21.2075 96.4493 21.9148 95.8574 22.696C95.2715 23.4714 94.4577 24.4183 93.416 25.5369L89.3322 29.9048V30.0469H97.7839V32H86.3137Z" fill="black"/>
<path d="M62.4359 120.271V118.46L70.426 105.818H71.7399V108.624H70.8521L64.8152 118.176V118.318H75.5752V120.271H62.4359ZM70.9942 124V119.721V118.877V105.818H73.0894V124H70.9942Z" fill="black"/>
<path d="M23.1187 169.249C22.373 169.237 21.6273 169.095 20.8815 168.822C20.1358 168.55 19.4552 168.092 18.8396 167.446C18.2241 166.795 17.7299 165.916 17.357 164.81C16.9842 163.697 16.7977 162.3 16.7977 160.619C16.7977 159.009 16.9486 157.583 17.2505 156.34C17.5523 155.091 17.9903 154.041 18.5644 153.189C19.1385 152.33 19.831 151.679 20.6418 151.235C21.4586 150.792 22.3789 150.57 23.4028 150.57C24.4208 150.57 25.3264 150.774 26.1195 151.182C26.9185 151.585 27.5695 152.147 28.0726 152.869C28.5757 153.591 28.9012 154.423 29.0491 155.364H26.8829C26.6817 154.547 26.2911 153.869 25.7111 153.331C25.1311 152.792 24.3616 152.523 23.4028 152.523C21.9942 152.523 20.8845 153.135 20.0736 154.36C19.2687 155.586 18.8633 157.305 18.8574 159.518H18.9994C19.3309 159.015 19.7244 158.586 20.1802 158.231C20.6418 157.87 21.1508 157.592 21.7072 157.397C22.2635 157.201 22.8524 157.104 23.4739 157.104C24.5155 157.104 25.4684 157.364 26.3325 157.885C27.1966 158.4 27.8891 159.113 28.4099 160.025C28.9308 160.93 29.1912 161.969 29.1912 163.141C29.1912 164.265 28.9396 165.295 28.4366 166.23C27.9335 167.159 27.2262 167.899 26.3148 168.45C25.4092 168.994 24.3439 169.26 23.1187 169.249ZM23.1187 167.295C23.8645 167.295 24.5333 167.109 25.1251 166.736C25.7229 166.363 26.1934 165.863 26.5367 165.236C26.8859 164.608 27.0605 163.91 27.0605 163.141C27.0605 162.389 26.8918 161.705 26.5545 161.09C26.223 160.468 25.7643 159.974 25.1784 159.607C24.5984 159.24 23.9355 159.057 23.1898 159.057C22.6275 159.057 22.1037 159.169 21.6184 159.394C21.1331 159.613 20.7069 159.915 20.34 160.3C19.9789 160.684 19.6949 161.125 19.4877 161.623C19.2806 162.114 19.177 162.632 19.177 163.176C19.177 163.898 19.3457 164.573 19.683 165.2C20.0263 165.828 20.4939 166.334 21.0857 166.718C21.6835 167.103 22.3612 167.295 23.1187 167.295Z" fill="black"/>
<path d="M64.3092 169L72.4413 152.913V152.771H63.0663V150.818H74.714V152.878L66.6174 169H64.3092Z" fill="black"/>
<rect x="161" y="86.5586" width="21.8824" height="10.0294" rx="1" fill="#5C86DF"/>
<path d="M190.858 90.7594C191.418 91.1581 191.418 91.9889 190.858 92.3877L181.956 98.7371C181.294 99.2092 180.375 98.736 180.375 97.923L180.375 85.2241C180.375 84.411 181.294 83.9378 181.956 84.4099L190.858 90.7594Z" fill="#5C86DF"/>
<path d="M238.18 83.2727L242.223 95.9815H242.378L246.429 83.2727H250.349L244.583 100H240.025L234.251 83.2727H238.18ZM255.402 100.237C254.602 100.237 253.888 100.098 253.262 99.8203C252.636 99.5372 252.141 99.1206 251.776 98.5707C251.416 98.0153 251.237 97.3237 251.237 96.4961C251.237 95.7991 251.365 95.2138 251.621 94.7401C251.876 94.2663 252.225 93.8852 252.666 93.5966C253.107 93.308 253.608 93.0902 254.169 92.9432C254.735 92.7962 255.329 92.6927 255.949 92.6328C256.679 92.5566 257.267 92.4858 257.714 92.4205C258.16 92.3497 258.484 92.2462 258.686 92.1101C258.887 91.974 258.988 91.7725 258.988 91.5057V91.4567C258.988 90.9394 258.824 90.5392 258.498 90.256C258.176 89.9729 257.719 89.8313 257.126 89.8313C256.499 89.8313 256.001 89.9702 255.631 90.2479C255.261 90.5201 255.016 90.8632 254.896 91.277L251.678 91.0156C251.841 90.2533 252.162 89.5945 252.642 89.0391C253.121 88.4782 253.739 88.0481 254.496 87.7486C255.258 87.4437 256.14 87.2912 257.142 87.2912C257.839 87.2912 258.506 87.3729 259.143 87.5362C259.785 87.6996 260.354 87.9528 260.85 88.2958C261.351 88.6388 261.746 89.0799 262.034 89.619C262.323 90.1526 262.467 90.7924 262.467 91.5384V100H259.167V98.2603H259.069C258.868 98.6523 258.598 98.9981 258.261 99.2976C257.923 99.5916 257.518 99.823 257.044 99.9918C256.57 100.155 256.023 100.237 255.402 100.237ZM256.399 97.8356C256.91 97.8356 257.362 97.7348 257.754 97.5334C258.146 97.3265 258.454 97.0488 258.677 96.7003C258.901 96.3518 259.012 95.957 259.012 95.516V94.1847C258.903 94.2554 258.754 94.3208 258.563 94.3807C258.378 94.4351 258.168 94.4869 257.934 94.5359C257.7 94.5794 257.466 94.6203 257.232 94.6584C256.998 94.6911 256.785 94.721 256.595 94.7482C256.186 94.8081 255.83 94.9034 255.525 95.0341C255.22 95.1648 254.983 95.3417 254.814 95.565C254.645 95.7828 254.561 96.055 254.561 96.3817C254.561 96.8555 254.732 97.2176 255.075 97.468C255.424 97.7131 255.865 97.8356 256.399 97.8356ZM269.566 83.2727V100H266.087V83.2727H269.566ZM281.318 94.6584V87.4545H284.798V100H281.457V97.7212H281.326C281.043 98.4563 280.572 99.0471 279.913 99.4936C279.26 99.9401 278.462 100.163 277.52 100.163C276.682 100.163 275.944 99.9728 275.307 99.5916C274.67 99.2105 274.172 98.6687 273.812 97.9663C273.458 97.2638 273.279 96.4226 273.273 95.4425V87.4545H276.753V94.8217C276.758 95.5623 276.957 96.1476 277.349 96.5778C277.741 97.0079 278.266 97.223 278.925 97.223C279.344 97.223 279.736 97.1277 280.101 96.9371C280.466 96.7411 280.76 96.4525 280.983 96.0714C281.212 95.6902 281.324 95.2192 281.318 94.6584ZM294.218 100.245C292.928 100.245 291.817 99.9837 290.886 99.4609C289.96 98.9328 289.247 98.1868 288.746 97.223C288.245 96.2538 287.994 95.1076 287.994 93.7844C287.994 92.494 288.245 91.3614 288.746 90.3867C289.247 89.4121 289.952 88.6525 290.861 88.108C291.776 87.5634 292.849 87.2912 294.079 87.2912C294.907 87.2912 295.677 87.4246 296.391 87.6914C297.109 87.9528 297.736 88.3475 298.269 88.8757C298.808 89.4039 299.228 90.0682 299.527 90.8686C299.827 91.6636 299.976 92.5947 299.976 93.6619V94.6175H289.383V92.4613H296.701C296.701 91.9603 296.592 91.5166 296.374 91.13C296.157 90.7434 295.854 90.4412 295.468 90.2234C295.087 90.0001 294.643 89.8885 294.136 89.8885C293.608 89.8885 293.14 90.011 292.732 90.256C292.329 90.4956 292.013 90.8196 291.784 91.228C291.555 91.6309 291.438 92.0801 291.433 92.5756V94.6257C291.433 95.2464 291.547 95.7828 291.776 96.2347C292.01 96.6867 292.34 97.0352 292.764 97.2802C293.189 97.5252 293.693 97.6477 294.275 97.6477C294.662 97.6477 295.016 97.5933 295.337 97.4844C295.658 97.3755 295.933 97.2121 296.162 96.9943C296.391 96.7765 296.565 96.5097 296.685 96.1939L299.903 96.4062C299.739 97.1795 299.405 97.8546 298.898 98.4318C298.397 99.0036 297.749 99.45 296.954 99.7713C296.165 100.087 295.253 100.245 294.218 100.245ZM303.232 100V83.2727H314.504V86.1886H306.769V90.1744H313.924V93.0902H306.769V97.0842H314.536V100H303.232ZM318.17 100V87.4545H321.543V89.6435H321.674C321.902 88.8648 322.286 88.2768 322.825 87.8793C323.364 87.4763 323.985 87.2749 324.688 87.2749C324.862 87.2749 325.05 87.2857 325.251 87.3075C325.453 87.3293 325.63 87.3593 325.782 87.3974V90.4847C325.619 90.4357 325.393 90.3922 325.104 90.354C324.816 90.3159 324.551 90.2969 324.312 90.2969C323.8 90.2969 323.343 90.4085 322.94 90.6317C322.542 90.8495 322.226 91.1545 321.992 91.5465C321.764 91.9386 321.649 92.3905 321.649 92.9023V100H318.17ZM328.501 100V87.4545H331.874V89.6435H332.005C332.234 88.8648 332.617 88.2768 333.157 87.8793C333.696 87.4763 334.316 87.2749 335.019 87.2749C335.193 87.2749 335.381 87.2857 335.582 87.3075C335.784 87.3293 335.961 87.3593 336.113 87.3974V90.4847C335.95 90.4357 335.724 90.3922 335.435 90.354C335.147 90.3159 334.883 90.2969 334.643 90.2969C334.131 90.2969 333.674 90.4085 333.271 90.6317C332.873 90.8495 332.558 91.1545 332.323 91.5465C332.095 91.9386 331.98 92.3905 331.98 92.9023V100H328.501ZM343.916 100.245C342.648 100.245 341.551 99.9755 340.625 99.4364C339.705 98.8919 338.994 98.1351 338.493 97.1658C337.992 96.1912 337.742 95.0613 337.742 93.7763C337.742 92.4804 337.992 91.3478 338.493 90.3786C338.994 89.4039 339.705 88.647 340.625 88.108C341.551 87.5634 342.648 87.2912 343.916 87.2912C345.185 87.2912 346.28 87.5634 347.2 88.108C348.126 88.647 348.839 89.4039 349.34 90.3786C349.841 91.3478 350.091 92.4804 350.091 93.7763C350.091 95.0613 349.841 96.1912 349.34 97.1658C348.839 98.1351 348.126 98.8919 347.2 99.4364C346.28 99.9755 345.185 100.245 343.916 100.245ZM343.933 97.5497C344.51 97.5497 344.992 97.3864 345.378 97.0597C345.765 96.7275 346.056 96.2756 346.252 95.7038C346.454 95.1321 346.555 94.4814 346.555 93.7518C346.555 93.0221 346.454 92.3714 346.252 91.7997C346.056 91.228 345.765 90.776 345.378 90.4439C344.992 90.1117 344.51 89.9457 343.933 89.9457C343.35 89.9457 342.86 90.1117 342.463 90.4439C342.071 90.776 341.774 91.228 341.572 91.7997C341.376 92.3714 341.278 93.0221 341.278 93.7518C341.278 94.4814 341.376 95.1321 341.572 95.7038C341.774 96.2756 342.071 96.7275 342.463 97.0597C342.86 97.3864 343.35 97.5497 343.933 97.5497ZM353.274 100V87.4545H356.647V89.6435H356.778C357.006 88.8648 357.39 88.2768 357.929 87.8793C358.468 87.4763 359.089 87.2749 359.791 87.2749C359.966 87.2749 360.153 87.2857 360.355 87.3075C360.556 87.3293 360.733 87.3593 360.886 87.3974V90.4847C360.722 90.4357 360.497 90.3922 360.208 90.354C359.919 90.3159 359.655 90.2969 359.416 90.2969C358.904 90.2969 358.446 90.4085 358.043 90.6317C357.646 90.8495 357.33 91.1545 357.096 91.5465C356.867 91.9386 356.753 92.3905 356.753 92.9023V100H353.274Z" fill="black"/>
</svg>
