<svg width="441" height="261" viewBox="0 0 441 261" fill="none" xmlns="http://www.w3.org/2000/svg">
<rect x="290.051" y="59" width="49.9488" height="49.9488" rx="3" fill="white"/>
<rect x="290.051" y="59" width="49.9488" height="49.9488" rx="3" stroke="#9D9D9D" stroke-width="2"/>
<rect x="290.051" y="59" width="49.9488" height="49.9488" rx="3" stroke="black" stroke-opacity="0.2" stroke-width="2"/>
<rect x="189.35" y="59" width="49.9488" height="49.9488" rx="3" fill="white"/>
<rect x="189.35" y="59" width="49.9488" height="49.9488" rx="3" stroke="#9D9D9D" stroke-width="2"/>
<rect x="189.35" y="59" width="49.9488" height="49.9488" rx="3" stroke="black" stroke-opacity="0.2" stroke-width="2"/>
<rect x="239.701" y="59" width="49.9488" height="49.9488" rx="3" fill="white"/>
<rect x="239.701" y="59" width="49.9488" height="49.9488" rx="3" stroke="#9D9D9D" stroke-width="2"/>
<rect x="239.701" y="59" width="49.9488" height="49.9488" rx="3" stroke="black" stroke-opacity="0.2" stroke-width="2"/>
<path d="M216.941 78.2417V92.7871H213.865V81.1607H213.78L210.449 83.2488V80.5215L214.05 78.2417H216.941Z" fill="black"/>
<path d="M259.156 92.5068V90.2909L264.334 85.4969C264.774 85.0708 265.143 84.6872 265.442 84.3463C265.745 84.0054 265.974 83.6716 266.131 83.3449C266.287 83.0135 266.365 82.656 266.365 82.2725C266.365 81.8463 266.268 81.4794 266.074 81.1716C265.88 80.8591 265.615 80.62 265.278 80.4543C264.942 80.2838 264.561 80.1986 264.135 80.1986C263.69 80.1986 263.302 80.2886 262.97 80.4685C262.639 80.6484 262.383 80.9065 262.203 81.2426C262.023 81.5788 261.933 81.9789 261.933 82.4429H259.014C259.014 81.4912 259.23 80.665 259.66 79.9642C260.091 79.2635 260.695 78.7213 261.472 78.3378C262.248 77.9543 263.143 77.7625 264.156 77.7625C265.198 77.7625 266.105 77.9472 266.876 78.3165C267.653 78.6811 268.257 79.1877 268.687 79.8364C269.118 80.4851 269.334 81.2284 269.334 82.0665C269.334 82.6157 269.225 83.1579 269.007 83.6929C268.794 84.228 268.413 84.8222 267.864 85.4756C267.314 86.1243 266.54 86.9031 265.541 87.8122L263.418 89.8932V89.9926H269.526V92.5068H259.156Z" fill="black"/>
<path d="M314.546 92.7057C313.486 92.7057 312.541 92.5234 311.712 92.1588C310.889 91.7895 310.238 91.2829 309.759 90.6389C309.286 89.9903 309.042 89.2422 309.028 88.3946H312.124C312.143 88.7497 312.259 89.0622 312.472 89.3321C312.69 89.5973 312.979 89.8032 313.339 89.95C313.699 90.0968 314.104 90.1702 314.553 90.1702C315.022 90.1702 315.436 90.0873 315.796 89.9216C316.156 89.7559 316.438 89.5262 316.641 89.2327C316.845 88.9391 316.947 88.6006 316.947 88.2171C316.947 87.8288 316.838 87.4855 316.62 87.1872C316.407 86.8842 316.099 86.6475 315.697 86.477C315.299 86.3066 314.826 86.2213 314.276 86.2213H312.92V83.9628H314.276C314.74 83.9628 315.15 83.8823 315.505 83.7213C315.865 83.5603 316.144 83.3378 316.343 83.0537C316.542 82.7649 316.641 82.4287 316.641 82.0452C316.641 81.6806 316.554 81.361 316.379 81.0864C316.208 80.807 315.967 80.5892 315.654 80.433C315.346 80.2767 314.987 80.1986 314.575 80.1986C314.158 80.1986 313.777 80.2744 313.431 80.4259C313.086 80.5726 312.809 80.7834 312.6 81.058C312.392 81.3326 312.281 81.6546 312.266 82.0239H309.319C309.333 81.1858 309.572 80.4472 310.036 79.808C310.5 79.1688 311.125 78.6692 311.911 78.3094C312.702 77.9448 313.595 77.7625 314.589 77.7625C315.593 77.7625 316.471 77.9448 317.224 78.3094C317.977 78.674 318.561 79.1664 318.978 79.7867C319.399 80.4022 319.608 81.0935 319.603 81.8605C319.608 82.6749 319.355 83.3544 318.843 83.8989C318.337 84.4434 317.676 84.789 316.862 84.9358V85.0494C317.932 85.1868 318.746 85.5584 319.305 86.1645C319.868 86.7658 320.148 87.5187 320.143 88.423C320.148 89.2516 319.908 89.9879 319.426 90.6318C318.947 91.2758 318.287 91.7824 317.444 92.1517C316.601 92.521 315.635 92.7057 314.546 92.7057Z" fill="black"/>
<path d="M339.53 37.4697C339.823 37.7626 339.823 38.2374 339.53 38.5303L334.757 43.3033C334.464 43.5962 333.99 43.5962 333.697 43.3033C333.404 43.0104 333.404 42.5355 333.697 42.2426L337.939 38L333.697 33.7574C333.404 33.4645 333.404 32.9896 333.697 32.6967C333.99 32.4038 334.464 32.4038 334.757 32.6967L339.53 37.4697ZM140 38.75C139.586 38.75 139.25 38.4142 139.25 38C139.25 37.5858 139.586 37.25 140 37.25V38.75ZM339 38.75L140 38.75V37.25L339 37.25V38.75Z" fill="black"/>
<path d="M220.842 9.282H222.606V17.402H220.842V9.282ZM219.26 12.474H221.332V13.986H219.26V12.474ZM218.154 9.534H219.89V16.982H218.154V9.534ZM211.504 10.612H217.79V12.04H211.504V10.612ZM214.668 12.46C216.292 12.46 217.468 13.384 217.468 14.728C217.468 16.072 216.292 16.982 214.668 16.982C213.044 16.982 211.868 16.072 211.868 14.728C211.868 13.384 213.044 12.46 214.668 12.46ZM214.668 13.79C213.982 13.79 213.52 14.126 213.52 14.728C213.52 15.33 213.982 15.666 214.668 15.666C215.34 15.666 215.802 15.33 215.802 14.728C215.802 14.126 215.34 13.79 214.668 13.79ZM213.73 9.408H215.564V11.592H213.73V9.408ZM218.224 17.542C220.996 17.542 222.676 18.382 222.676 19.894C222.676 21.392 220.996 22.246 218.224 22.246C215.438 22.246 213.758 21.392 213.758 19.894C213.758 18.382 215.438 17.542 218.224 17.542ZM218.224 18.928C216.488 18.928 215.62 19.222 215.62 19.894C215.62 20.552 216.488 20.86 218.224 20.86C219.946 20.86 220.814 20.552 220.814 19.894C220.814 19.222 219.946 18.928 218.224 18.928ZM236.583 9.296H238.459V18.606H236.583V9.296ZM229.821 20.538H238.781V22.022H229.821V20.538ZM229.821 17.668H231.683V21.14H229.821V17.668ZM231.403 10.108C233.391 10.108 234.917 11.48 234.917 13.398C234.917 15.302 233.391 16.688 231.403 16.688C229.415 16.688 227.875 15.302 227.875 13.398C227.875 11.48 229.415 10.108 231.403 10.108ZM231.403 11.718C230.437 11.718 229.695 12.334 229.695 13.398C229.695 14.448 230.437 15.064 231.403 15.064C232.355 15.064 233.097 14.448 233.097 13.398C233.097 12.334 232.355 11.718 231.403 11.718ZM242.756 17.766H251.702V22.26H249.826V19.25H242.756V17.766ZM241.104 15.162H241.986C244.114 15.162 245.178 15.148 246.438 14.924L246.606 16.38C245.304 16.618 244.184 16.632 241.986 16.632H241.104V15.162ZM241.104 10.22H246.116V11.69H242.938V15.68H241.104V10.22ZM249.924 9.282H251.702V17.192H249.924V9.282ZM245.36 12.6H248.076V14.084H245.36V12.6ZM247.334 9.534H249.07V17.108H247.334V9.534ZM258.253 10.024H259.877V10.962C259.877 13.776 257.875 16.268 254.515 16.926L253.717 15.386C256.643 14.882 258.253 12.824 258.253 10.962V10.024ZM258.631 10.024H260.241V10.962C260.241 12.866 261.837 14.882 264.777 15.386L263.979 16.926C260.619 16.268 258.631 13.818 258.631 10.962V10.024ZM253.451 19.152H265.183V20.664H253.451V19.152Z" fill="black"/>
<rect x="139" y="59" width="49.9488" height="49.9488" rx="3" fill="white"/>
<rect x="139" y="59" width="49.9488" height="49.9488" rx="3" stroke="#9D9D9D" stroke-width="2"/>
<rect x="139" y="59" width="49.9488" height="49.9488" rx="3" stroke="black" stroke-opacity="0.2" stroke-width="2"/>
<path d="M165.172 93.1067C163.95 93.102 162.899 92.8013 162.018 92.2047C161.142 91.6081 160.468 90.744 159.994 89.6124C159.526 88.4808 159.293 87.1195 159.298 85.5286C159.298 83.9424 159.533 82.5906 160.001 81.4732C160.475 80.3558 161.15 79.5059 162.026 78.9235C162.906 78.3364 163.955 78.0428 165.172 78.0428C166.389 78.0428 167.435 78.3364 168.311 78.9235C169.192 79.5106 169.869 80.3629 170.342 81.4803C170.816 82.593 171.05 83.9424 171.045 85.5286C171.045 87.1242 170.809 88.4879 170.335 89.6195C169.866 90.7511 169.194 91.6152 168.318 92.2118C167.442 92.8084 166.393 93.1067 165.172 93.1067ZM165.172 90.557C166.005 90.557 166.67 90.138 167.168 89.2999C167.665 88.4618 167.911 87.2047 167.906 85.5286C167.906 84.4254 167.793 83.5068 167.565 82.7729C167.343 82.039 167.026 81.4874 166.614 81.1181C166.206 80.7488 165.726 80.5641 165.172 80.5641C164.343 80.5641 163.68 80.9784 163.183 81.807C162.686 82.6356 162.435 83.8761 162.43 85.5286C162.43 86.646 162.542 87.5788 162.764 88.3269C162.991 89.0703 163.311 89.629 163.723 90.003C164.135 90.3723 164.618 90.557 165.172 90.557Z" fill="black"/>
<rect x="139" y="109.351" width="49.9488" height="49.9488" rx="3" fill="white"/>
<rect x="139" y="109.351" width="49.9488" height="49.9488" rx="3" stroke="#9D9D9D" stroke-width="2"/>
<rect x="139" y="109.351" width="49.9488" height="49.9488" rx="3" stroke="black" stroke-opacity="0.2" stroke-width="2"/>
<path d="M167.789 129.392V143.938H164.714V132.311H164.628L161.298 134.399V131.672L164.898 129.392H167.789Z" fill="black"/>
<rect x="139" y="159.7" width="49.9488" height="49.9488" rx="3" fill="white"/>
<rect x="139" y="159.7" width="49.9488" height="49.9488" rx="3" stroke="#9D9D9D" stroke-width="2"/>
<rect x="139" y="159.7" width="49.9488" height="49.9488" rx="3" stroke="black" stroke-opacity="0.2" stroke-width="2"/>
<path d="M160.055 195.087V192.871L165.232 188.077C165.673 187.651 166.042 187.267 166.34 186.926C166.643 186.585 166.873 186.252 167.029 185.925C167.185 185.594 167.263 185.236 167.263 184.853C167.263 184.426 167.166 184.059 166.972 183.752C166.778 183.439 166.513 183.2 166.177 183.034C165.841 182.864 165.459 182.779 165.033 182.779C164.588 182.779 164.2 182.869 163.869 183.049C163.537 183.228 163.281 183.487 163.101 183.823C162.922 184.159 162.832 184.559 162.832 185.023H159.913C159.913 184.071 160.128 183.245 160.559 182.544C160.99 181.844 161.593 181.301 162.37 180.918C163.146 180.534 164.041 180.343 165.055 180.343C166.096 180.343 167.003 180.527 167.775 180.897C168.551 181.261 169.155 181.768 169.586 182.416C170.017 183.065 170.232 183.809 170.232 184.647C170.232 185.196 170.123 185.738 169.905 186.273C169.692 186.808 169.311 187.402 168.762 188.056C168.213 188.704 167.439 189.483 166.44 190.392L164.316 192.473V192.573H170.424V195.087H160.055Z" fill="black"/>
<rect x="139" y="210.051" width="49.9488" height="49.9488" rx="3" fill="white"/>
<rect x="139" y="210.051" width="49.9488" height="49.9488" rx="3" stroke="#9D9D9D" stroke-width="2"/>
<rect x="139" y="210.051" width="49.9488" height="49.9488" rx="3" stroke="black" stroke-opacity="0.2" stroke-width="2"/>
<path d="M165.138 247.234C164.077 247.234 163.133 247.052 162.304 246.687C161.48 246.318 160.829 245.811 160.351 245.167C159.878 244.519 159.634 243.77 159.62 242.923H162.716C162.735 243.278 162.851 243.591 163.064 243.86C163.282 244.126 163.571 244.332 163.931 244.478C164.291 244.625 164.695 244.699 165.145 244.699C165.614 244.699 166.028 244.616 166.388 244.45C166.748 244.284 167.03 244.055 167.233 243.761C167.437 243.467 167.539 243.129 167.539 242.745C167.539 242.357 167.43 242.014 167.212 241.716C166.999 241.413 166.691 241.176 166.289 241.005C165.891 240.835 165.417 240.75 164.868 240.75H163.512V238.491H164.868C165.332 238.491 165.742 238.411 166.097 238.25C166.457 238.089 166.736 237.866 166.935 237.582C167.134 237.293 167.233 236.957 167.233 236.574C167.233 236.209 167.146 235.889 166.97 235.615C166.8 235.335 166.559 235.118 166.246 234.961C165.938 234.805 165.578 234.727 165.166 234.727C164.75 234.727 164.369 234.803 164.023 234.954C163.677 235.101 163.4 235.312 163.192 235.586C162.984 235.861 162.872 236.183 162.858 236.552H159.911C159.925 235.714 160.164 234.975 160.628 234.336C161.092 233.697 161.717 233.198 162.503 232.838C163.294 232.473 164.186 232.291 165.181 232.291C166.184 232.291 167.063 232.473 167.816 232.838C168.568 233.202 169.153 233.695 169.57 234.315C169.991 234.931 170.2 235.622 170.195 236.389C170.2 237.203 169.946 237.883 169.435 238.427C168.928 238.972 168.268 239.317 167.453 239.464V239.578C168.523 239.715 169.338 240.087 169.897 240.693C170.46 241.294 170.739 242.047 170.735 242.951C170.739 243.78 170.5 244.516 170.017 245.16C169.539 245.804 168.879 246.311 168.036 246.68C167.193 247.049 166.227 247.234 165.138 247.234Z" fill="black"/>
<path d="M112.47 259.53C112.763 259.823 113.237 259.823 113.53 259.53L118.303 254.757C118.596 254.464 118.596 253.99 118.303 253.697C118.01 253.404 117.536 253.404 117.243 253.697L113 257.939L108.757 253.697C108.464 253.404 107.99 253.404 107.697 253.697C107.404 253.99 107.404 254.464 107.697 254.757L112.47 259.53ZM113.75 60C113.75 59.5858 113.414 59.25 113 59.25C112.586 59.25 112.25 59.5858 112.25 60L113.75 60ZM113.75 259L113.75 60L112.25 60L112.25 259L113.75 259Z" fill="black"/>
<path d="M48.2021 153.584H51.5201V155.026H48.2021V153.584ZM48.2021 156.216H51.5201V157.658H48.2021V156.216ZM45.7661 152.632C47.7261 152.632 49.1821 153.878 49.1821 155.642C49.1821 157.378 47.7261 158.624 45.7661 158.624C43.8061 158.624 42.3361 157.378 42.3361 155.642C42.3361 153.878 43.8061 152.632 45.7661 152.632ZM45.7661 154.144C44.8001 154.144 44.1141 154.69 44.1141 155.642C44.1141 156.58 44.8001 157.126 45.7661 157.126C46.7321 157.126 47.4181 156.58 47.4181 155.642C47.4181 154.69 46.7321 154.144 45.7661 154.144ZM51.1701 152.282H53.0321V158.764H51.1701V152.282ZM44.4641 159.31H53.0321V162.838H46.3261V164.42H44.4781V161.494H51.1841V160.738H44.4641V159.31ZM44.4781 163.664H53.3961V165.106H44.4781V163.664ZM67.2052 152.296H69.0812V161.606H67.2052V152.296ZM60.4432 163.538H69.4032V165.022H60.4432V163.538ZM60.4432 160.668H62.3052V164.14H60.4432V160.668ZM62.0252 153.108C64.0132 153.108 65.5392 154.48 65.5392 156.398C65.5392 158.302 64.0132 159.688 62.0252 159.688C60.0372 159.688 58.4972 158.302 58.4972 156.398C58.4972 154.48 60.0372 153.108 62.0252 153.108ZM62.0252 154.718C61.0592 154.718 60.3172 155.334 60.3172 156.398C60.3172 157.448 61.0592 158.064 62.0252 158.064C62.9772 158.064 63.7192 157.448 63.7192 156.398C63.7192 155.334 62.9772 154.718 62.0252 154.718ZM73.3781 160.766H82.3241V165.26H80.4481V162.25H73.3781V160.766ZM71.7261 158.162H72.6081C74.7361 158.162 75.8001 158.148 77.0601 157.924L77.2281 159.38C75.9261 159.618 74.8061 159.632 72.6081 159.632H71.7261V158.162ZM71.7261 153.22H76.7381V154.69H73.5601V158.68H71.7261V153.22ZM80.5461 152.282H82.3241V160.192H80.5461V152.282ZM75.9821 155.6H78.6981V157.084H75.9821V155.6ZM77.9561 152.534H79.6921V160.108H77.9561V152.534ZM88.875 153.024H90.499V153.962C90.499 156.776 88.497 159.268 85.137 159.926L84.339 158.386C87.265 157.882 88.875 155.824 88.875 153.962V153.024ZM89.253 153.024H90.863V153.962C90.863 155.866 92.459 157.882 95.399 158.386L94.601 159.926C91.241 159.268 89.253 156.818 89.253 153.962V153.024ZM84.073 162.152H95.805V163.664H84.073V162.152Z" fill="black"/>
</svg>
