<svg width="311" height="147" viewBox="0 0 311 147" fill="none" xmlns="http://www.w3.org/2000/svg">
<rect x="1.5" y="68.5" width="77" height="77" rx="2.5" fill="white"/>
<rect x="1.5" y="68.5" width="77" height="77" rx="2.5" stroke="#9D9D9D" stroke-width="3"/>
<rect x="1.5" y="68.5" width="77" height="77" rx="2.5" stroke="black" stroke-opacity="0.2" stroke-width="3"/>
<rect x="78.5" y="68.5" width="77" height="77" rx="2.5" fill="white"/>
<rect x="78.5" y="68.5" width="77" height="77" rx="2.5" stroke="#9D9D9D" stroke-width="3"/>
<rect x="78.5" y="68.5" width="77" height="77" rx="2.5" stroke="black" stroke-opacity="0.2" stroke-width="3"/>
<rect x="155.5" y="68.5" width="77" height="77" rx="2.5" fill="white"/>
<rect x="155.5" y="68.5" width="77" height="77" rx="2.5" stroke="#9D9D9D" stroke-width="3"/>
<rect x="155.5" y="68.5" width="77" height="77" rx="2.5" stroke="black" stroke-opacity="0.2" stroke-width="3"/>
<rect x="232.5" y="68.5" width="77" height="77" rx="2.5" fill="white"/>
<rect x="232.5" y="68.5" width="77" height="77" rx="2.5" stroke="#9D9D9D" stroke-width="3"/>
<rect x="232.5" y="68.5" width="77" height="77" rx="2.5" stroke="black" stroke-opacity="0.2" stroke-width="3"/>
<path d="M33.0941 105.29V108.891H23.1438V105.29H33.0941ZM36.0184 114.165V110.532L45.1271 96.1818H48.2592V101.21H46.4055L40.6633 110.298V110.468H53.6072V114.165H36.0184ZM46.4907 118V113.057L46.576 111.448V96.1818H50.9013V118H46.4907Z" fill="#D34545"/>
<path d="M112.946 105.29V108.891H102.995V105.29H112.946ZM124.118 118.298C122.528 118.298 121.111 118.025 119.868 117.478C118.632 116.924 117.655 116.164 116.938 115.198C116.228 114.225 115.862 113.103 115.841 111.832H120.486C120.514 112.364 120.688 112.833 121.008 113.238C121.334 113.636 121.768 113.945 122.307 114.165C122.847 114.385 123.454 114.495 124.129 114.495C124.832 114.495 125.454 114.371 125.993 114.122C126.533 113.874 126.956 113.529 127.261 113.089C127.567 112.648 127.719 112.141 127.719 111.565C127.719 110.983 127.556 110.468 127.229 110.021C126.91 109.566 126.448 109.211 125.844 108.955C125.248 108.7 124.537 108.572 123.714 108.572H121.679V105.184H123.714C124.41 105.184 125.024 105.063 125.557 104.822C126.096 104.58 126.515 104.246 126.814 103.82C127.112 103.387 127.261 102.883 127.261 102.308C127.261 101.761 127.13 101.281 126.867 100.869C126.611 100.45 126.249 100.124 125.78 99.8892C125.319 99.6548 124.779 99.5376 124.161 99.5376C123.536 99.5376 122.964 99.6513 122.446 99.8786C121.927 100.099 121.512 100.415 121.199 100.827C120.887 101.239 120.72 101.722 120.699 102.276H116.278C116.299 101.018 116.657 99.9105 117.353 98.9517C118.05 97.9929 118.987 97.2436 120.166 96.7038C121.352 96.157 122.691 95.8835 124.182 95.8835C125.688 95.8835 127.005 96.157 128.135 96.7038C129.264 97.2507 130.141 97.9893 130.766 98.9197C131.398 99.843 131.711 100.88 131.704 102.031C131.711 103.252 131.331 104.271 130.564 105.088C129.804 105.905 128.813 106.423 127.591 106.643V106.814C129.197 107.02 130.418 107.577 131.256 108.487C132.101 109.388 132.52 110.518 132.513 111.874C132.52 113.117 132.162 114.222 131.437 115.188C130.72 116.153 129.729 116.913 128.465 117.467C127.201 118.021 125.752 118.298 124.118 118.298Z" fill="#D34545"/>
<path d="M190.12 105.29V108.891H180.169V105.29H190.12ZM192.759 118V114.676L200.525 107.485C201.186 106.846 201.74 106.271 202.187 105.759C202.642 105.248 202.986 104.747 203.221 104.257C203.455 103.76 203.572 103.224 203.572 102.648C203.572 102.009 203.426 101.459 203.135 100.997C202.844 100.528 202.446 100.17 201.942 99.9212C201.438 99.6655 200.866 99.5376 200.227 99.5376C199.559 99.5376 198.977 99.6726 198.48 99.9425C197.983 100.212 197.599 100.599 197.329 101.104C197.059 101.608 196.924 102.208 196.924 102.904H192.546C192.546 101.477 192.869 100.237 193.515 99.1861C194.162 98.1349 195.067 97.3217 196.232 96.7464C197.397 96.1712 198.739 95.8835 200.259 95.8835C201.821 95.8835 203.181 96.1605 204.339 96.7145C205.504 97.2614 206.409 98.0213 207.056 98.9943C207.702 99.9673 208.025 101.082 208.025 102.339C208.025 103.163 207.862 103.977 207.535 104.779C207.216 105.582 206.644 106.473 205.82 107.453C204.996 108.426 203.835 109.594 202.336 110.958L199.151 114.08V114.229H208.313V118H192.759Z" fill="#D34545"/>
<path d="M268.921 105.29V108.891H258.971V105.29H268.921ZM281.668 96.1818V118H277.055V100.56H276.927L271.931 103.692V99.6016L277.332 96.1818H281.668Z" fill="#D34545"/>
<path d="M308 43.75C308.414 43.75 308.75 43.4142 308.75 43C308.75 42.5858 308.414 42.25 308 42.25V43.75ZM2.46967 42.4697C2.17679 42.7626 2.17679 43.2374 2.46967 43.5303L7.24265 48.3033C7.53552 48.5962 8.01041 48.5962 8.30331 48.3033C8.59619 48.0104 8.59619 47.5355 8.30331 47.2426L4.06067 43L8.30331 38.7574C8.59619 38.4645 8.59619 37.9896 8.30331 37.6967C8.01041 37.4038 7.53552 37.4038 7.24265 37.6967L2.46967 42.4697ZM308 42.25L3 42.25V43.75L308 43.75V42.25Z" fill="#D34545"/>
<path d="M112.984 11.018H116.82V12.516H112.984V11.018ZM112.984 13.832H116.82V15.33H112.984V13.832ZM109.26 17.542H118.094V22.246H116.232V19.012H109.26V17.542ZM116.232 9.282H118.094V16.954H116.232V9.282ZM110.828 9.954C112.76 9.954 114.244 11.298 114.244 13.16C114.244 15.036 112.76 16.38 110.828 16.38C108.882 16.38 107.398 15.036 107.398 13.16C107.398 11.298 108.882 9.954 110.828 9.954ZM110.828 11.536C109.876 11.536 109.176 12.138 109.176 13.16C109.176 14.196 109.876 14.798 110.828 14.798C111.766 14.798 112.48 14.196 112.48 13.16C112.48 12.138 111.766 11.536 110.828 11.536ZM126.101 17.206C128.789 17.206 130.483 18.144 130.483 19.726C130.483 21.322 128.789 22.26 126.101 22.26C123.399 22.26 121.705 21.322 121.705 19.726C121.705 18.144 123.399 17.206 126.101 17.206ZM126.101 18.662C124.449 18.662 123.553 18.998 123.553 19.726C123.553 20.468 124.449 20.818 126.101 20.818C127.753 20.818 128.635 20.468 128.635 19.726C128.635 18.998 127.753 18.662 126.101 18.662ZM128.467 9.282H130.329V16.912H128.467V9.282ZM129.811 12.292H132.051V13.832H129.811V12.292ZM120.501 10.108H122.349V11.704H124.883V10.108H126.731V16.198H120.501V10.108ZM122.349 13.146V14.742H124.883V13.146H122.349ZM142.633 11.144H144.873V12.656H142.633V11.144ZM142.633 13.958H144.873V15.47H142.633V13.958ZM141.345 9.282H143.207V17.5H141.345V9.282ZM138.993 17.64C141.667 17.64 143.347 18.494 143.347 19.95C143.347 21.392 141.667 22.246 138.993 22.246C136.319 22.246 134.639 21.392 134.639 19.95C134.639 18.494 136.319 17.64 138.993 17.64ZM138.993 19.04C137.355 19.04 136.487 19.334 136.487 19.95C136.487 20.566 137.355 20.86 138.993 20.86C140.631 20.86 141.499 20.566 141.499 19.95C141.499 19.334 140.631 19.04 138.993 19.04ZM133.001 10.514H140.631V11.956H133.001V10.514ZM136.823 12.39C138.699 12.39 140.001 13.328 140.001 14.714C140.001 16.114 138.699 17.038 136.823 17.038C134.933 17.038 133.631 16.114 133.631 14.714C133.631 13.328 134.933 12.39 136.823 12.39ZM136.823 13.748C135.983 13.748 135.423 14.084 135.423 14.714C135.423 15.344 135.983 15.68 136.823 15.68C137.649 15.68 138.223 15.344 138.223 14.714C138.223 14.084 137.649 13.748 136.823 13.748ZM135.885 9.198H137.747V11.284H135.885V9.198ZM158.403 9.282H160.167V17.402H158.403V9.282ZM156.821 12.474H158.893V13.986H156.821V12.474ZM155.715 9.534H157.451V16.982H155.715V9.534ZM149.065 10.612H155.351V12.04H149.065V10.612ZM152.229 12.46C153.853 12.46 155.029 13.384 155.029 14.728C155.029 16.072 153.853 16.982 152.229 16.982C150.605 16.982 149.429 16.072 149.429 14.728C149.429 13.384 150.605 12.46 152.229 12.46ZM152.229 13.79C151.543 13.79 151.081 14.126 151.081 14.728C151.081 15.33 151.543 15.666 152.229 15.666C152.901 15.666 153.363 15.33 153.363 14.728C153.363 14.126 152.901 13.79 152.229 13.79ZM151.291 9.408H153.125V11.592H151.291V9.408ZM155.785 17.542C158.557 17.542 160.237 18.382 160.237 19.894C160.237 21.392 158.557 22.246 155.785 22.246C152.999 22.246 151.319 21.392 151.319 19.894C151.319 18.382 152.999 17.542 155.785 17.542ZM155.785 18.928C154.049 18.928 153.181 19.222 153.181 19.894C153.181 20.552 154.049 20.86 155.785 20.86C157.507 20.86 158.375 20.552 158.375 19.894C158.375 19.222 157.507 18.928 155.785 18.928ZM174.144 9.296H176.02V18.606H174.144V9.296ZM167.382 20.538H176.342V22.022H167.382V20.538ZM167.382 17.668H169.244V21.14H167.382V17.668ZM168.964 10.108C170.952 10.108 172.478 11.48 172.478 13.398C172.478 15.302 170.952 16.688 168.964 16.688C166.976 16.688 165.436 15.302 165.436 13.398C165.436 11.48 166.976 10.108 168.964 10.108ZM168.964 11.718C167.998 11.718 167.256 12.334 167.256 13.398C167.256 14.448 167.998 15.064 168.964 15.064C169.916 15.064 170.658 14.448 170.658 13.398C170.658 12.334 169.916 11.718 168.964 11.718ZM180.317 17.766H189.263V22.26H187.387V19.25H180.317V17.766ZM178.665 15.162H179.547C181.675 15.162 182.739 15.148 183.999 14.924L184.167 16.38C182.865 16.618 181.745 16.632 179.547 16.632H178.665V15.162ZM178.665 10.22H183.677V11.69H180.499V15.68H178.665V10.22ZM187.485 9.282H189.263V17.192H187.485V9.282ZM182.921 12.6H185.637V14.084H182.921V12.6ZM184.895 9.534H186.631V17.108H184.895V9.534ZM195.814 10.024H197.438V10.962C197.438 13.776 195.436 16.268 192.076 16.926L191.278 15.386C194.204 14.882 195.814 12.824 195.814 10.962V10.024ZM196.192 10.024H197.802V10.962C197.802 12.866 199.398 14.882 202.338 15.386L201.54 16.926C198.18 16.268 196.192 13.818 196.192 10.962V10.024ZM191.012 19.152H202.744V20.664H191.012V19.152Z" fill="black"/>
</svg>
