<svg width="261" height="231" viewBox="0 0 261 231" fill="none" xmlns="http://www.w3.org/2000/svg">
<path d="M21.073 35.4062V10.2401H28.9182V13.402H25.1696V32.2344H28.9182V35.4062H21.073ZM34.77 35.4062V10.2401H42.6152V13.402H38.8666V32.2344H42.6152V35.4062H34.77ZM63.6904 33.2784C62.643 33.2718 61.6321 33.0961 60.6577 32.7514C59.6899 32.4067 58.8215 31.8466 58.0526 31.071C57.2836 30.2955 56.6738 29.268 56.223 27.9886C55.7789 26.7093 55.5568 25.1383 55.5568 23.2756C55.5635 21.5653 55.759 20.0374 56.1435 18.6918C56.5346 17.3395 57.0914 16.1927 57.8139 15.2514C58.5431 14.3101 59.4148 13.5942 60.429 13.1037C61.4432 12.6065 62.58 12.358 63.8395 12.358C65.1984 12.358 66.3982 12.6231 67.4389 13.1534C68.4797 13.6771 69.3149 14.3897 69.9446 15.2912C70.581 16.1927 70.9655 17.2036 71.098 18.3239H66.8523C66.6866 17.6146 66.3386 17.0578 65.8083 16.6534C65.278 16.2491 64.6217 16.0469 63.8395 16.0469C62.5138 16.0469 61.5062 16.6236 60.8168 17.777C60.134 18.9304 59.786 20.4981 59.7728 22.4801H59.912C60.2169 21.8769 60.6279 21.3632 61.1449 20.9389C61.6686 20.508 62.2619 20.1799 62.9247 19.9545C63.5942 19.7225 64.3002 19.6065 65.0426 19.6065C66.2491 19.6065 67.3229 19.8916 68.2642 20.4616C69.2055 21.0251 69.9479 21.8007 70.4915 22.7884C71.0351 23.776 71.3068 24.9062 71.3068 26.179C71.3068 27.5578 70.9853 28.7841 70.3424 29.858C69.706 30.9318 68.8144 31.7737 67.6676 32.3835C66.5275 32.9867 65.2017 33.285 63.6904 33.2784ZM63.6705 29.8977C64.3334 29.8977 64.9266 29.7386 65.4503 29.4205C65.974 29.1023 66.385 28.6714 66.6833 28.1278C66.9816 27.5843 67.1307 26.9744 67.1307 26.2983C67.1307 25.6222 66.9816 25.0156 66.6833 24.4787C66.3916 23.9418 65.9872 23.5142 65.4702 23.196C64.9531 22.8778 64.3632 22.7188 63.7003 22.7188C63.2032 22.7188 62.7424 22.8116 62.3182 22.9972C61.9006 23.1828 61.5327 23.4413 61.2145 23.7727C60.903 24.1042 60.6577 24.4886 60.4787 24.9261C60.2997 25.357 60.2103 25.8177 60.2103 26.3082C60.2103 26.9645 60.3594 27.5644 60.6577 28.108C60.9626 28.6515 61.3736 29.0857 61.8907 29.4105C62.4143 29.7353 63.0076 29.8977 63.6705 29.8977ZM102.9 12.6364V33H98.5943V16.723H98.475L93.8116 19.6463V15.8281L98.8528 12.6364H102.9ZM117.417 33.2784C116.012 33.2784 114.759 33.0199 113.659 32.5028C112.565 31.9858 111.696 31.2732 111.053 30.3651C110.41 29.4569 110.076 28.4162 110.049 27.2429H114.225C114.272 28.0317 114.603 28.6714 115.22 29.1619C115.836 29.6525 116.569 29.8977 117.417 29.8977C118.093 29.8977 118.69 29.7486 119.207 29.4503C119.731 29.1454 120.138 28.7244 120.43 28.1875C120.728 27.6439 120.877 27.0208 120.877 26.3182C120.877 25.6023 120.725 24.9725 120.42 24.429C120.122 23.8854 119.707 23.4612 119.177 23.1562C118.647 22.8513 118.04 22.6955 117.357 22.6889C116.761 22.6889 116.181 22.8116 115.617 23.0568C115.061 23.3021 114.626 23.6368 114.315 24.0611L110.487 23.375L111.451 12.6364H123.9V16.1562H115.001L114.474 21.2571H114.593C114.951 20.7533 115.491 20.3357 116.214 20.0043C116.936 19.6728 117.745 19.5071 118.64 19.5071C119.866 19.5071 120.96 19.7955 121.921 20.3722C122.882 20.9489 123.641 21.741 124.198 22.7486C124.755 23.7495 125.03 24.9029 125.024 26.2088C125.03 27.581 124.712 28.8007 124.069 29.8679C123.433 30.9285 122.541 31.7637 121.394 32.3736C120.254 32.9768 118.928 33.2784 117.417 33.2784ZM147.707 33V29.8977L154.956 23.1861C155.572 22.5895 156.089 22.0526 156.507 21.5753C156.931 21.098 157.253 20.6307 157.472 20.1733C157.69 19.7093 157.8 19.2088 157.8 18.6719C157.8 18.0753 157.664 17.5616 157.392 17.1307C157.12 16.6932 156.749 16.3584 156.278 16.1264C155.808 15.8878 155.274 15.7685 154.678 15.7685C154.054 15.7685 153.511 15.8944 153.047 16.1463C152.583 16.3982 152.225 16.7595 151.973 17.2301C151.721 17.7008 151.595 18.2609 151.595 18.9105H147.508C147.508 17.5781 147.81 16.4214 148.413 15.4403C149.017 14.4593 149.862 13.7003 150.949 13.1634C152.036 12.6264 153.289 12.358 154.707 12.358C156.166 12.358 157.435 12.6165 158.516 13.1335C159.603 13.6439 160.448 14.3532 161.051 15.2614C161.654 16.1695 161.956 17.2102 161.956 18.3835C161.956 19.1525 161.803 19.9115 161.499 20.6605C161.2 21.4096 160.667 22.2415 159.898 23.1562C159.129 24.0644 158.045 25.1548 156.646 26.4276L153.673 29.3409V29.4801H162.224V33H147.707ZM166.838 29.4205V26.0298L175.34 12.6364H178.263V17.3295H176.533L171.174 25.8111V25.9702H183.255V29.4205H166.838ZM176.612 33V28.3864L176.692 26.8849V12.6364H180.729V33H176.612ZM195.204 10.2401V35.4062H187.359V32.2344H191.107V13.402H187.359V10.2401H195.204ZM34.8088 80.4062V55.2401H42.654V58.402H38.9054V77.2344H42.654V80.4062H34.8088ZM54.7204 78.2784C53.2355 78.2784 51.9131 78.0232 50.753 77.5128C49.5996 76.9957 48.6882 76.2865 48.0187 75.3849C47.3558 74.4768 47.0144 73.4295 46.9945 72.2429H51.3297C51.3563 72.7401 51.5187 73.1776 51.817 73.5554C52.1219 73.9266 52.5262 74.215 53.03 74.4205C53.5338 74.6259 54.1006 74.7287 54.7303 74.7287C55.3866 74.7287 55.9666 74.6127 56.4704 74.3807C56.9742 74.1487 57.3686 73.8272 57.6536 73.4162C57.9386 73.0052 58.0812 72.5312 58.0812 71.9943C58.0812 71.4508 57.9287 70.9702 57.6238 70.5526C57.3255 70.1283 56.8946 69.7969 56.3312 69.5582C55.7743 69.3196 55.1115 69.2003 54.3425 69.2003H52.4434V66.0384H54.3425C54.9921 66.0384 55.5655 65.9257 56.0627 65.7003C56.5665 65.4749 56.9576 65.1634 57.236 64.7656C57.5144 64.3613 57.6536 63.8906 57.6536 63.3537C57.6536 62.8433 57.531 62.3958 57.2857 62.0114C57.0471 61.6203 56.709 61.3153 56.2715 61.0966C55.8406 60.8778 55.3368 60.7685 54.7601 60.7685C54.1768 60.7685 53.6432 60.8745 53.1593 61.0866C52.6754 61.2921 52.2876 61.5871 51.9959 61.9716C51.7043 62.3561 51.5485 62.8068 51.5286 63.3239H47.4022C47.4221 62.1506 47.7568 61.1165 48.4064 60.2216C49.0561 59.3267 49.9311 58.6274 51.0314 58.1236C52.1385 57.6132 53.388 57.358 54.78 57.358C56.1853 57.358 57.415 57.6132 58.4689 58.1236C59.5229 58.634 60.3416 59.3234 60.9249 60.1918C61.5149 61.0535 61.8065 62.0213 61.7999 63.0952C61.8065 64.2353 61.4519 65.1866 60.736 65.9489C60.0267 66.7112 59.102 67.1951 57.9618 67.4006V67.5597C59.4599 67.7519 60.6001 68.2723 61.3823 69.1207C62.1711 69.9626 62.5622 71.0166 62.5556 72.2827C62.5622 73.4427 62.2275 74.4735 61.5513 75.375C60.8818 76.2765 59.9571 76.9858 58.7772 77.5028C57.5973 78.0199 56.245 78.2784 54.7204 78.2784ZM75.4174 78.2784C73.9325 78.2784 72.6101 78.0232 71.4501 77.5128C70.2967 76.9957 69.3852 76.2865 68.7157 75.3849C68.0528 74.4768 67.7114 73.4295 67.6915 72.2429H72.0268C72.0533 72.7401 72.2157 73.1776 72.514 73.5554C72.8189 73.9266 73.2233 74.215 73.7271 74.4205C74.2308 74.6259 74.7976 74.7287 75.4273 74.7287C76.0836 74.7287 76.6636 74.6127 77.1674 74.3807C77.6712 74.1487 78.0656 73.8272 78.3506 73.4162C78.6357 73.0052 78.7782 72.5312 78.7782 71.9943C78.7782 71.4508 78.6257 70.9702 78.3208 70.5526C78.0225 70.1283 77.5916 69.7969 77.0282 69.5582C76.4714 69.3196 75.8085 69.2003 75.0396 69.2003H73.1404V66.0384H75.0396C75.6892 66.0384 76.2626 65.9257 76.7597 65.7003C77.2635 65.4749 77.6546 65.1634 77.933 64.7656C78.2114 64.3613 78.3506 63.8906 78.3506 63.3537C78.3506 62.8433 78.228 62.3958 77.9827 62.0114C77.7441 61.6203 77.406 61.3153 76.9685 61.0966C76.5377 60.8778 76.0339 60.7685 75.4572 60.7685C74.8738 60.7685 74.3402 60.8745 73.8563 61.0866C73.3724 61.2921 72.9846 61.5871 72.693 61.9716C72.4013 62.3561 72.2455 62.8068 72.2256 63.3239H68.0992C68.1191 62.1506 68.4539 61.1165 69.1035 60.2216C69.7531 59.3267 70.6281 58.6274 71.7285 58.1236C72.8355 57.6132 74.085 57.358 75.4771 57.358C76.8824 57.358 78.112 57.6132 79.166 58.1236C80.22 58.634 81.0386 59.3234 81.6219 60.1918C82.2119 61.0535 82.5036 62.0213 82.4969 63.0952C82.5036 64.2353 82.1489 65.1866 81.433 65.9489C80.7237 66.7112 79.799 67.1951 78.6589 67.4006V67.5597C80.157 67.7519 81.2971 68.2723 82.0793 69.1207C82.8682 69.9626 83.2593 71.0166 83.2526 72.2827C83.2593 73.4427 82.9245 74.4735 82.2484 75.375C81.5789 76.2765 80.6541 76.9858 79.4742 77.5028C78.2943 78.0199 76.942 78.2784 75.4174 78.2784ZM105.72 74.4205V71.0298L114.222 57.6364H117.145V62.3295H115.415L110.055 70.8111V70.9702H122.136V74.4205H105.72ZM115.494 78V73.3864L115.574 71.8849V57.6364H119.611V78H115.494ZM127.245 78V74.8977L134.494 68.1861C135.11 67.5895 135.627 67.0526 136.045 66.5753C136.469 66.098 136.79 65.6307 137.009 65.1733C137.228 64.7093 137.337 64.2088 137.337 63.6719C137.337 63.0753 137.201 62.5616 136.93 62.1307C136.658 61.6932 136.287 61.3584 135.816 61.1264C135.345 60.8878 134.812 60.7685 134.215 60.7685C133.592 60.7685 133.048 60.8944 132.584 61.1463C132.12 61.3982 131.762 61.7595 131.511 62.2301C131.259 62.7008 131.133 63.2609 131.133 63.9105H127.046C127.046 62.5781 127.348 61.4214 127.951 60.4403C128.554 59.4593 129.399 58.7003 130.486 58.1634C131.574 57.6264 132.826 57.358 134.245 57.358C135.703 57.358 136.973 57.6165 138.053 58.1335C139.14 58.6439 139.985 59.3532 140.589 60.2614C141.192 61.1695 141.494 62.2102 141.494 63.3835C141.494 64.1525 141.341 64.9115 141.036 65.6605C140.738 66.4096 140.204 67.2415 139.435 68.1562C138.666 69.0644 137.583 70.1548 136.184 71.4276L133.211 74.3409V74.4801H141.762V78H127.245ZM172 78.2784C170.595 78.2784 169.342 78.0199 168.242 77.5028C167.148 76.9858 166.279 76.2732 165.636 75.3651C164.993 74.4569 164.659 73.4162 164.632 72.2429H168.808C168.855 73.0317 169.186 73.6714 169.803 74.1619C170.419 74.6525 171.152 74.8977 172 74.8977C172.676 74.8977 173.273 74.7486 173.79 74.4503C174.314 74.1454 174.721 73.7244 175.013 73.1875C175.311 72.6439 175.46 72.0208 175.46 71.3182C175.46 70.6023 175.308 69.9725 175.003 69.429C174.705 68.8854 174.29 68.4612 173.76 68.1562C173.23 67.8513 172.623 67.6955 171.94 67.6889C171.344 67.6889 170.764 67.8116 170.2 68.0568C169.644 68.3021 169.209 68.6368 168.898 69.0611L165.07 68.375L166.034 57.6364H178.483V61.1562H169.584L169.057 66.2571H169.176C169.534 65.7533 170.074 65.3357 170.797 65.0043C171.52 64.6728 172.328 64.5071 173.223 64.5071C174.449 64.5071 175.543 64.7955 176.504 65.3722C177.466 65.9489 178.225 66.741 178.781 67.7486C179.338 68.7495 179.613 69.9029 179.607 71.2088C179.613 72.581 179.295 73.8007 178.652 74.8679C178.016 75.9285 177.124 76.7637 175.977 77.3736C174.837 77.9768 173.511 78.2784 172 78.2784ZM193.709 57.6364V78H189.403V61.723H189.284L184.621 64.6463V60.8281L189.662 57.6364H193.709ZM207.63 55.2401V80.4062H199.784V77.2344H203.533V58.402H199.784V55.2401H207.63ZM30.2151 125.406V100.24H38.0603V103.402H34.3117V122.234H38.0603V125.406H30.2151ZM50.415 123.278C49.3676 123.272 48.3567 123.096 47.3823 122.751C46.4145 122.407 45.5461 121.847 44.7772 121.071C44.0082 120.295 43.3984 119.268 42.9476 117.989C42.5035 116.709 42.2814 115.138 42.2814 113.276C42.2881 111.565 42.4836 110.037 42.8681 108.692C43.2592 107.339 43.816 106.193 44.5385 105.251C45.2677 104.31 46.1394 103.594 47.1536 103.104C48.1678 102.607 49.3046 102.358 50.5641 102.358C51.923 102.358 53.1228 102.623 54.1635 103.153C55.2043 103.677 56.0395 104.39 56.6692 105.291C57.3056 106.193 57.6901 107.204 57.8226 108.324H53.5769C53.4112 107.615 53.0632 107.058 52.5329 106.653C52.0026 106.249 51.3463 106.047 50.5641 106.047C49.2384 106.047 48.2308 106.624 47.5414 107.777C46.8586 108.93 46.5106 110.498 46.4974 112.48H46.6366C46.9415 111.877 47.3525 111.363 47.8695 110.939C48.3932 110.508 48.9865 110.18 49.6493 109.955C50.3189 109.723 51.0248 109.607 51.7672 109.607C52.9737 109.607 54.0475 109.892 54.9888 110.462C55.9301 111.025 56.6725 111.801 57.2161 112.788C57.7597 113.776 58.0314 114.906 58.0314 116.179C58.0314 117.558 57.7099 118.784 57.067 119.858C56.4306 120.932 55.539 121.774 54.3922 122.384C53.2521 122.987 51.9263 123.285 50.415 123.278ZM50.3951 119.898C51.058 119.898 51.6512 119.739 52.1749 119.42C52.6986 119.102 53.1096 118.671 53.4079 118.128C53.7062 117.584 53.8553 116.974 53.8553 116.298C53.8553 115.622 53.7062 115.016 53.4079 114.479C53.1162 113.942 52.7118 113.514 52.1948 113.196C51.6778 112.878 51.0878 112.719 50.4249 112.719C49.9278 112.719 49.4671 112.812 49.0428 112.997C48.6252 113.183 48.2573 113.441 47.9391 113.773C47.6276 114.104 47.3823 114.489 47.2033 114.926C47.0243 115.357 46.9349 115.818 46.9349 116.308C46.9349 116.964 47.084 117.564 47.3823 118.108C47.6872 118.652 48.0982 119.086 48.6153 119.411C49.1389 119.735 49.7322 119.898 50.3951 119.898ZM71.3084 123.447C69.5982 123.441 68.1266 123.02 66.8936 122.185C65.6673 121.349 64.7227 120.14 64.0598 118.555C63.4035 116.971 63.0787 115.065 63.0854 112.838C63.0854 110.617 63.4135 108.725 64.0697 107.161C64.7326 105.596 65.6772 104.406 66.9035 103.591C68.1365 102.769 69.6048 102.358 71.3084 102.358C73.012 102.358 74.4769 102.769 75.7033 103.591C76.9362 104.413 77.8841 105.606 78.547 107.17C79.2099 108.728 79.538 110.617 79.5314 112.838C79.5314 115.072 79.2 116.981 78.5371 118.565C77.8808 120.15 76.9395 121.359 75.7132 122.195C74.4869 123.03 73.0186 123.447 71.3084 123.447ZM71.3084 119.878C72.475 119.878 73.4064 119.291 74.1024 118.118C74.7984 116.945 75.1431 115.185 75.1365 112.838C75.1365 111.294 74.9774 110.008 74.6592 108.98C74.3477 107.953 73.9035 107.18 73.3268 106.663C72.7568 106.146 72.0839 105.888 71.3084 105.888C70.1483 105.888 69.2203 106.468 68.5243 107.628C67.8283 108.788 67.4769 110.525 67.4703 112.838C67.4703 114.402 67.6261 115.708 67.9376 116.756C68.2558 117.796 68.7033 118.579 69.28 119.102C69.8567 119.619 70.5328 119.878 71.3084 119.878ZM110.098 123.278C109.05 123.272 108.039 123.096 107.065 122.751C106.097 122.407 105.229 121.847 104.46 121.071C103.691 120.295 103.081 119.268 102.63 117.989C102.186 116.709 101.964 115.138 101.964 113.276C101.971 111.565 102.166 110.037 102.551 108.692C102.942 107.339 103.499 106.193 104.221 105.251C104.95 104.31 105.822 103.594 106.836 103.104C107.85 102.607 108.987 102.358 110.247 102.358C111.606 102.358 112.805 102.623 113.846 103.153C114.887 103.677 115.722 104.39 116.352 105.291C116.988 106.193 117.373 107.204 117.505 108.324H113.26C113.094 107.615 112.746 107.058 112.216 106.653C111.685 106.249 111.029 106.047 110.247 106.047C108.921 106.047 107.913 106.624 107.224 107.777C106.541 108.93 106.193 110.498 106.18 112.48H106.319C106.624 111.877 107.035 111.363 107.552 110.939C108.076 110.508 108.669 110.18 109.332 109.955C110.002 109.723 110.707 109.607 111.45 109.607C112.656 109.607 113.73 109.892 114.671 110.462C115.613 111.025 116.355 111.801 116.899 112.788C117.442 113.776 117.714 114.906 117.714 116.179C117.714 117.558 117.393 118.784 116.75 119.858C116.113 120.932 115.222 121.774 114.075 122.384C112.935 122.987 111.609 123.285 110.098 123.278ZM110.078 119.898C110.741 119.898 111.334 119.739 111.858 119.42C112.381 119.102 112.792 118.671 113.091 118.128C113.389 117.584 113.538 116.974 113.538 116.298C113.538 115.622 113.389 115.016 113.091 114.479C112.799 113.942 112.394 113.514 111.877 113.196C111.36 112.878 110.77 112.719 110.108 112.719C109.61 112.719 109.15 112.812 108.725 112.997C108.308 113.183 107.94 113.441 107.622 113.773C107.31 114.104 107.065 114.489 106.886 114.926C106.707 115.357 106.618 115.818 106.618 116.308C106.618 116.964 106.767 117.564 107.065 118.108C107.37 118.652 107.781 119.086 108.298 119.411C108.822 119.735 109.415 119.898 110.078 119.898ZM130.375 102.358C131.422 102.358 132.429 102.534 133.397 102.885C134.372 103.236 135.24 103.796 136.002 104.565C136.771 105.334 137.378 106.355 137.822 107.628C138.273 108.894 138.501 110.448 138.508 112.291C138.508 114.021 138.313 115.566 137.921 116.925C137.537 118.277 136.983 119.427 136.261 120.375C135.538 121.323 134.667 122.045 133.646 122.543C132.625 123.033 131.485 123.278 130.225 123.278C128.867 123.278 127.667 123.017 126.626 122.493C125.585 121.963 124.747 121.243 124.11 120.335C123.481 119.42 123.099 118.393 122.967 117.253H127.213C127.378 117.995 127.726 118.572 128.257 118.983C128.787 119.387 129.443 119.589 130.225 119.589C131.551 119.589 132.559 119.013 133.248 117.859C133.938 116.699 134.286 115.112 134.292 113.097H134.153C133.848 113.693 133.437 114.207 132.92 114.638C132.403 115.062 131.81 115.39 131.14 115.622C130.477 115.854 129.771 115.97 129.022 115.97C127.822 115.97 126.752 115.688 125.811 115.125C124.869 114.562 124.127 113.786 123.583 112.798C123.04 111.811 122.768 110.684 122.768 109.418C122.761 108.052 123.076 106.836 123.713 105.768C124.349 104.701 125.237 103.866 126.377 103.263C127.524 102.653 128.857 102.351 130.375 102.358ZM130.404 105.739C129.735 105.739 129.138 105.898 128.615 106.216C128.098 106.534 127.687 106.962 127.382 107.499C127.083 108.036 126.938 108.635 126.944 109.298C126.944 109.968 127.09 110.571 127.382 111.108C127.68 111.638 128.084 112.062 128.595 112.381C129.112 112.692 129.702 112.848 130.365 112.848C130.862 112.848 131.322 112.755 131.747 112.57C132.171 112.384 132.539 112.129 132.85 111.804C133.169 111.473 133.417 111.091 133.596 110.661C133.775 110.23 133.865 109.772 133.865 109.288C133.858 108.645 133.706 108.055 133.407 107.518C133.109 106.982 132.698 106.551 132.174 106.226C131.651 105.901 131.061 105.739 130.404 105.739ZM161.977 123L170.419 106.295V106.156H160.585V102.636H174.874V106.206L166.422 123H161.977ZM187.251 123.278C185.719 123.278 184.357 123.03 183.164 122.533C181.978 122.029 181.046 121.343 180.37 120.474C179.694 119.606 179.356 118.622 179.356 117.521C179.356 116.673 179.548 115.894 179.933 115.185C180.324 114.469 180.854 113.875 181.523 113.405C182.193 112.928 182.942 112.623 183.771 112.49V112.351C182.684 112.132 181.802 111.605 181.126 110.77C180.45 109.928 180.112 108.95 180.112 107.837C180.112 106.783 180.42 105.845 181.036 105.023C181.653 104.194 182.498 103.545 183.572 103.074C184.652 102.597 185.879 102.358 187.251 102.358C188.623 102.358 189.846 102.597 190.92 103.074C192 103.551 192.849 104.204 193.465 105.033C194.082 105.855 194.393 106.789 194.4 107.837C194.393 108.957 194.049 109.935 193.366 110.77C192.683 111.605 191.808 112.132 190.741 112.351V112.49C191.556 112.623 192.295 112.928 192.958 113.405C193.628 113.875 194.158 114.469 194.549 115.185C194.947 115.894 195.149 116.673 195.156 117.521C195.149 118.622 194.808 119.606 194.131 120.474C193.455 121.343 192.521 122.029 191.327 122.533C190.141 123.03 188.782 123.278 187.251 123.278ZM187.251 120.116C187.934 120.116 188.53 119.994 189.041 119.749C189.551 119.497 189.949 119.152 190.234 118.714C190.525 118.27 190.671 117.76 190.671 117.183C190.671 116.593 190.522 116.073 190.224 115.622C189.925 115.165 189.521 114.807 189.011 114.548C188.5 114.283 187.914 114.151 187.251 114.151C186.594 114.151 186.008 114.283 185.491 114.548C184.974 114.807 184.566 115.165 184.268 115.622C183.976 116.073 183.83 116.593 183.83 117.183C183.83 117.76 183.973 118.27 184.258 118.714C184.543 119.152 184.944 119.497 185.461 119.749C185.978 119.994 186.575 120.116 187.251 120.116ZM187.251 111.018C187.821 111.018 188.328 110.902 188.772 110.67C189.216 110.438 189.564 110.117 189.816 109.706C190.068 109.295 190.194 108.821 190.194 108.284C190.194 107.754 190.068 107.29 189.816 106.892C189.564 106.488 189.219 106.173 188.782 105.947C188.344 105.715 187.834 105.599 187.251 105.599C186.674 105.599 186.164 105.715 185.719 105.947C185.275 106.173 184.927 106.488 184.675 106.892C184.43 107.29 184.308 107.754 184.308 108.284C184.308 108.821 184.434 109.295 184.685 109.706C184.937 110.117 185.285 110.438 185.729 110.67C186.174 110.902 186.681 111.018 187.251 111.018ZM207.247 100.24V125.406H199.402V122.234H203.15V103.402H199.402V100.24H207.247ZM220.944 100.24V125.406H213.099V122.234H216.847V103.402H213.099V100.24H220.944Z" fill="black"/>
<path d="M96.4737 218V215.23L102.946 209.238C103.496 208.705 103.958 208.225 104.331 207.799C104.709 207.373 104.996 206.956 105.192 206.548C105.387 206.133 105.485 205.686 105.485 205.207C105.485 204.674 105.363 204.216 105.121 203.831C104.878 203.44 104.547 203.141 104.126 202.934C103.706 202.721 103.23 202.615 102.697 202.615C102.141 202.615 101.655 202.727 101.241 202.952C100.827 203.177 100.507 203.5 100.282 203.92C100.057 204.34 99.945 204.84 99.945 205.42H96.2962C96.2962 204.23 96.5655 203.198 97.104 202.322C97.6426 201.446 98.3973 200.768 99.3679 200.289C100.339 199.809 101.457 199.57 102.724 199.57C104.026 199.57 105.159 199.8 106.124 200.262C107.095 200.718 107.849 201.351 108.388 202.162C108.926 202.973 109.196 203.902 109.196 204.95C109.196 205.636 109.06 206.314 108.787 206.983C108.521 207.651 108.045 208.394 107.358 209.211C106.671 210.022 105.704 210.995 104.455 212.132L101.8 214.733V214.857H109.435V218H96.4737ZM120.111 218.249C118.857 218.249 117.738 218.018 116.756 217.556C115.779 217.094 115.004 216.458 114.43 215.647C113.855 214.837 113.557 213.907 113.533 212.86H117.262C117.303 213.564 117.599 214.135 118.149 214.573C118.7 215.011 119.354 215.23 120.111 215.23C120.715 215.23 121.248 215.097 121.709 214.831C122.177 214.558 122.541 214.183 122.801 213.703C123.068 213.218 123.201 212.661 123.201 212.034C123.201 211.395 123.065 210.833 122.793 210.347C122.526 209.862 122.156 209.483 121.683 209.211C121.209 208.939 120.668 208.8 120.058 208.794C119.525 208.794 119.008 208.903 118.505 209.122C118.007 209.341 117.62 209.64 117.342 210.019L113.924 209.406L114.785 199.818H125.9V202.961H117.954L117.484 207.515H117.59C117.91 207.065 118.392 206.693 119.037 206.397C119.682 206.101 120.404 205.953 121.203 205.953C122.298 205.953 123.275 206.21 124.133 206.725C124.991 207.24 125.669 207.947 126.166 208.847C126.663 209.741 126.909 210.77 126.903 211.936C126.909 213.162 126.625 214.251 126.051 215.203C125.483 216.15 124.686 216.896 123.663 217.441C122.645 217.979 121.461 218.249 120.111 218.249ZM143.303 215.23V202.659H146.482V215.23H143.303ZM138.607 210.534V207.355H151.178V210.534H138.607ZM163.149 218V215.23L169.62 209.238C170.171 208.705 170.633 208.225 171.005 207.799C171.384 207.373 171.671 206.956 171.867 206.548C172.062 206.133 172.16 205.686 172.16 205.207C172.16 204.674 172.038 204.216 171.796 203.831C171.553 203.44 171.221 203.141 170.801 202.934C170.381 202.721 169.905 202.615 169.372 202.615C168.816 202.615 168.33 202.727 167.916 202.952C167.502 203.177 167.182 203.5 166.957 203.92C166.732 204.34 166.62 204.84 166.62 205.42H162.971C162.971 204.23 163.24 203.198 163.779 202.322C164.317 201.446 165.072 200.768 166.043 200.289C167.013 199.809 168.132 199.57 169.399 199.57C170.701 199.57 171.834 199.8 172.799 200.262C173.769 200.718 174.524 201.351 175.063 202.162C175.601 202.973 175.87 203.902 175.87 204.95C175.87 205.636 175.734 206.314 175.462 206.983C175.196 207.651 174.719 208.394 174.033 209.211C173.346 210.022 172.379 210.995 171.13 212.132L168.475 214.733V214.857H176.11V218H163.149ZM187.124 218.249C186.188 218.243 185.286 218.086 184.416 217.778C183.552 217.47 182.776 216.97 182.09 216.278C181.403 215.585 180.859 214.668 180.456 213.526C180.06 212.383 179.862 210.981 179.862 209.317C179.867 207.79 180.042 206.426 180.385 205.225C180.734 204.017 181.232 202.993 181.877 202.153C182.528 201.313 183.306 200.673 184.212 200.235C185.117 199.792 186.132 199.57 187.257 199.57C188.47 199.57 189.541 199.806 190.471 200.28C191.4 200.747 192.145 201.384 192.708 202.189C193.276 202.993 193.619 203.896 193.738 204.896H189.947C189.799 204.263 189.488 203.766 189.015 203.405C188.541 203.044 187.955 202.863 187.257 202.863C186.073 202.863 185.173 203.378 184.558 204.408C183.948 205.438 183.638 206.838 183.626 208.607H183.75C184.022 208.069 184.389 207.61 184.851 207.231C185.318 206.846 185.848 206.554 186.44 206.352C187.038 206.145 187.668 206.042 188.331 206.042C189.408 206.042 190.367 206.296 191.207 206.805C192.048 207.308 192.711 208.001 193.196 208.882C193.681 209.764 193.924 210.773 193.924 211.91C193.924 213.141 193.637 214.236 193.063 215.195C192.495 216.153 191.699 216.905 190.675 217.45C189.657 217.988 188.473 218.254 187.124 218.249ZM187.106 215.23C187.698 215.23 188.227 215.088 188.695 214.804C189.163 214.52 189.529 214.135 189.796 213.65C190.062 213.165 190.195 212.62 190.195 212.016C190.195 211.413 190.062 210.871 189.796 210.392C189.535 209.912 189.174 209.531 188.713 209.246C188.251 208.962 187.724 208.82 187.132 208.82C186.689 208.82 186.277 208.903 185.898 209.069C185.526 209.235 185.197 209.465 184.913 209.761C184.635 210.057 184.416 210.401 184.256 210.791C184.096 211.176 184.016 211.587 184.016 212.025C184.016 212.611 184.15 213.147 184.416 213.632C184.688 214.117 185.055 214.505 185.517 214.795C185.984 215.085 186.514 215.23 187.106 215.23ZM210.369 215.23V202.659H213.547V215.23H210.369ZM205.672 210.534V207.355H218.244V210.534H205.672ZM230.214 218V215.23L236.686 209.238C237.236 208.705 237.698 208.225 238.071 207.799C238.45 207.373 238.737 206.956 238.932 206.548C239.127 206.133 239.225 205.686 239.225 205.207C239.225 204.674 239.104 204.216 238.861 203.831C238.618 203.44 238.287 203.141 237.867 202.934C237.446 202.721 236.97 202.615 236.437 202.615C235.881 202.615 235.396 202.727 234.981 202.952C234.567 203.177 234.247 203.5 234.023 203.92C233.798 204.34 233.685 204.84 233.685 205.42H230.036C230.036 204.23 230.306 203.198 230.844 202.322C231.383 201.446 232.137 200.768 233.108 200.289C234.079 199.809 235.197 199.57 236.464 199.57C237.766 199.57 238.899 199.8 239.864 200.262C240.835 200.718 241.589 201.351 242.128 202.162C242.667 202.973 242.936 203.902 242.936 204.95C242.936 205.636 242.8 206.314 242.528 206.983C242.261 207.651 241.785 208.394 241.098 209.211C240.412 210.022 239.444 210.995 238.195 212.132L235.541 214.733V214.857H243.176V218H230.214ZM247.93 218L255.467 203.085V202.961H246.687V199.818H259.445V203.005L251.899 218H247.93Z" fill="#2A53BA"/>
<circle cx="176" cy="113" r="24.5" stroke="#EC1717" stroke-width="3"/>
<path d="M174.939 173.061C175.525 173.646 176.475 173.646 177.061 173.061L186.607 163.515C187.192 162.929 187.192 161.979 186.607 161.393C186.021 160.808 185.071 160.808 184.485 161.393L176 169.879L167.515 161.393C166.929 160.808 165.979 160.808 165.393 161.393C164.808 161.979 164.808 162.929 165.393 163.515L174.939 173.061ZM174.5 138V172H177.5V138H174.5Z" fill="#EC1717"/>
</svg>
