<svg width="470" height="780" viewBox="0 0 470 780" fill="none" xmlns="http://www.w3.org/2000/svg">
<path d="M214.796 107.185C214.169 107.185 213.611 107.077 213.121 106.859C212.631 106.638 212.243 106.312 211.957 105.881C211.676 105.447 211.536 104.906 211.536 104.258C211.536 103.712 211.636 103.254 211.836 102.884C212.036 102.513 212.309 102.214 212.654 101.989C212.999 101.763 213.391 101.592 213.83 101.477C214.274 101.362 214.738 101.281 215.224 101.234C215.795 101.175 216.255 101.119 216.604 101.068C216.954 101.013 217.207 100.932 217.365 100.825C217.523 100.719 217.602 100.561 217.602 100.352V100.314C217.602 99.9091 217.474 99.5959 217.218 99.3743C216.967 99.1527 216.609 99.0419 216.144 99.0419C215.654 99.0419 215.264 99.1506 214.975 99.3679C214.685 99.581 214.493 99.8494 214.399 100.173L211.881 99.9688C212.009 99.3722 212.26 98.8565 212.635 98.4219C213.01 97.983 213.494 97.6463 214.086 97.4119C214.683 97.1733 215.373 97.054 216.157 97.054C216.703 97.054 217.225 97.1179 217.723 97.2457C218.226 97.3736 218.671 97.5717 219.059 97.8402C219.451 98.1087 219.76 98.4538 219.986 98.8757C220.212 99.2933 220.325 99.794 220.325 100.378V107H217.742V105.638H217.666C217.508 105.945 217.297 106.216 217.033 106.45C216.769 106.68 216.451 106.862 216.08 106.994C215.71 107.121 215.281 107.185 214.796 107.185ZM215.575 105.306C215.976 105.306 216.33 105.227 216.636 105.07C216.943 104.908 217.184 104.69 217.359 104.418C217.533 104.145 217.621 103.836 217.621 103.491V102.449C217.536 102.504 217.418 102.555 217.269 102.602C217.124 102.645 216.96 102.685 216.777 102.724C216.594 102.758 216.411 102.79 216.227 102.82C216.044 102.845 215.878 102.869 215.729 102.89C215.409 102.937 215.13 103.011 214.891 103.114C214.653 103.216 214.467 103.354 214.335 103.529C214.203 103.7 214.137 103.913 214.137 104.168C214.137 104.539 214.271 104.822 214.54 105.018C214.813 105.21 215.158 105.306 215.575 105.306ZM224.713 97.1818L226.515 100.614L228.363 97.1818H231.156L228.312 102.091L231.233 107H228.452L226.515 103.606L224.611 107H221.798L224.713 102.091L221.9 97.1818H224.713ZM232.773 107V97.1818H235.496V107H232.773ZM234.141 95.9162C233.736 95.9162 233.389 95.782 233.099 95.5135C232.814 95.2408 232.671 94.9148 232.671 94.5355C232.671 94.1605 232.814 93.8388 233.099 93.5703C233.389 93.2976 233.736 93.1612 234.141 93.1612C234.546 93.1612 234.891 93.2976 235.177 93.5703C235.466 93.8388 235.611 94.1605 235.611 94.5355C235.611 94.9148 235.466 95.2408 235.177 95.5135C234.891 95.782 234.546 95.9162 234.141 95.9162ZM245.847 99.9815L243.354 100.135C243.311 99.9219 243.219 99.7301 243.079 99.5597C242.938 99.3849 242.753 99.2464 242.523 99.1442C242.297 99.0376 242.026 98.9844 241.711 98.9844C241.289 98.9844 240.933 99.0739 240.643 99.2528C240.354 99.4276 240.209 99.6619 240.209 99.956C240.209 100.19 240.302 100.388 240.49 100.55C240.677 100.712 240.999 100.842 241.455 100.94L243.232 101.298C244.187 101.494 244.898 101.81 245.367 102.244C245.836 102.679 246.07 103.25 246.07 103.957C246.07 104.601 245.881 105.165 245.501 105.651C245.126 106.137 244.611 106.516 243.954 106.789C243.302 107.058 242.55 107.192 241.698 107.192C240.398 107.192 239.363 106.921 238.592 106.38C237.824 105.835 237.375 105.093 237.243 104.156L239.921 104.015C240.002 104.411 240.198 104.714 240.509 104.923C240.82 105.127 241.219 105.229 241.704 105.229C242.182 105.229 242.565 105.138 242.855 104.955C243.149 104.767 243.298 104.526 243.302 104.232C243.298 103.985 243.194 103.783 242.989 103.625C242.785 103.463 242.469 103.339 242.043 103.254L240.343 102.915C239.384 102.724 238.67 102.391 238.202 101.918C237.737 101.445 237.505 100.842 237.505 100.109C237.505 99.4787 237.675 98.9354 238.016 98.4794C238.361 98.0234 238.845 97.6719 239.467 97.4247C240.094 97.1776 240.827 97.054 241.666 97.054C242.906 97.054 243.882 97.3161 244.594 97.8402C245.31 98.3643 245.727 99.0781 245.847 99.9815ZM252.892 107.288C251.793 107.283 250.847 107.013 250.054 106.476C249.266 105.939 248.658 105.161 248.232 104.143C247.81 103.124 247.602 101.899 247.606 100.467C247.606 99.0398 247.817 97.8232 248.239 96.8175C248.665 95.8118 249.272 95.0469 250.06 94.5227C250.853 93.9943 251.797 93.7301 252.892 93.7301C253.987 93.7301 254.929 93.9943 255.717 94.5227C256.51 95.0511 257.119 95.8182 257.546 96.8239C257.972 97.8253 258.183 99.0398 258.178 100.467C258.178 101.903 257.965 103.131 257.539 104.149C257.117 105.168 256.512 105.945 255.724 106.482C254.935 107.019 253.992 107.288 252.892 107.288ZM252.892 104.993C253.642 104.993 254.241 104.616 254.688 103.862C255.136 103.107 255.357 101.976 255.353 100.467C255.353 99.4744 255.251 98.6477 255.046 97.9872C254.846 97.3267 254.56 96.8303 254.19 96.4979C253.823 96.1655 253.391 95.9993 252.892 95.9993C252.146 95.9993 251.55 96.3722 251.102 97.1179C250.655 97.8636 250.429 98.9801 250.425 100.467C250.425 101.473 250.525 102.312 250.725 102.986C250.93 103.655 251.217 104.158 251.588 104.494C251.959 104.827 252.394 104.993 252.892 104.993Z" fill="black"/>
<rect x="83" y="1" width="58.9677" height="58" rx="3" fill="white"/>
<rect x="83" y="1" width="58.9677" height="58" rx="3" stroke="white" stroke-width="2"/>
<rect x="83" y="1" width="58.9677" height="58" rx="3" stroke="black" stroke-opacity="0.2" stroke-width="2"/>
<rect x="142.031" y="1" width="58.9677" height="58" rx="3" fill="white"/>
<rect x="142.031" y="1" width="58.9677" height="58" rx="3" stroke="white" stroke-width="2"/>
<rect x="142.031" y="1" width="58.9677" height="58" rx="3" stroke="black" stroke-opacity="0.2" stroke-width="2"/>
<rect x="201.064" y="1" width="58.9677" height="58" rx="3" fill="white"/>
<rect x="201.064" y="1" width="58.9677" height="58" rx="3" stroke="white" stroke-width="2"/>
<rect x="201.064" y="1" width="58.9677" height="58" rx="3" stroke="black" stroke-opacity="0.2" stroke-width="2"/>
<path d="M82 78.0166C80.8954 78.0166 80 78.912 80 80.0166C80 81.1212 80.8954 82.0166 82 82.0166V78.0166ZM386.347 80.0166L366.347 68.4696V91.5636L386.347 80.0166ZM82 82.0166H368.347V78.0166H82V82.0166Z" fill="#5955BF"/>
<path d="M164.559 19.1818V41H159.946V23.5604H159.818L154.821 26.6925V22.6016L160.223 19.1818H164.559ZM178.506 41H170.772V19.1818H178.57C180.765 19.1818 182.654 19.6186 184.238 20.4922C185.822 21.3587 187.04 22.6051 187.892 24.2315C188.751 25.858 189.181 27.804 189.181 30.0696C189.181 32.3423 188.751 34.2955 187.892 35.929C187.04 37.5625 185.815 38.8161 184.217 39.6896C182.626 40.5632 180.722 41 178.506 41ZM175.385 37.0476H178.315C179.678 37.0476 180.825 36.8061 181.756 36.3232C182.693 35.8331 183.396 35.0767 183.865 34.054C184.341 33.0241 184.579 31.696 184.579 30.0696C184.579 28.4574 184.341 27.1399 183.865 26.1172C183.396 25.0945 182.697 24.3416 181.766 23.8587C180.836 23.3757 179.689 23.1342 178.325 23.1342H175.385V37.0476Z" fill="black"/>
<path d="M211.589 429.072C210.962 429.072 210.404 428.963 209.914 428.746C209.424 428.524 209.036 428.198 208.75 427.768C208.469 427.333 208.329 426.792 208.329 426.144C208.329 425.599 208.429 425.14 208.629 424.77C208.829 424.399 209.102 424.101 209.447 423.875C209.792 423.649 210.184 423.479 210.623 423.364C211.066 423.248 211.531 423.167 212.017 423.121C212.588 423.061 213.048 423.006 213.397 422.954C213.747 422.899 214 422.818 214.158 422.712C214.316 422.605 214.395 422.447 214.395 422.239V422.2C214.395 421.795 214.267 421.482 214.011 421.261C213.76 421.039 213.402 420.928 212.937 420.928C212.447 420.928 212.057 421.037 211.767 421.254C211.478 421.467 211.286 421.736 211.192 422.06L208.674 421.855C208.802 421.258 209.053 420.743 209.428 420.308C209.803 419.869 210.287 419.533 210.879 419.298C211.476 419.06 212.166 418.94 212.95 418.94C213.495 418.94 214.017 419.004 214.516 419.132C215.019 419.26 215.464 419.458 215.852 419.726C216.244 419.995 216.553 420.34 216.779 420.762C217.005 421.18 217.118 421.68 217.118 422.264V428.886H214.535V427.525H214.459C214.301 427.832 214.09 428.102 213.826 428.337C213.562 428.567 213.244 428.748 212.873 428.88C212.503 429.008 212.074 429.072 211.589 429.072ZM212.368 427.192C212.769 427.192 213.123 427.114 213.429 426.956C213.736 426.794 213.977 426.577 214.152 426.304C214.326 426.031 214.414 425.722 214.414 425.377V424.335C214.329 424.39 214.211 424.442 214.062 424.489C213.917 424.531 213.753 424.572 213.57 424.61C213.387 424.644 213.204 424.676 213.02 424.706C212.837 424.731 212.671 424.755 212.522 424.776C212.202 424.823 211.923 424.898 211.684 425C211.446 425.102 211.26 425.241 211.128 425.415C210.996 425.586 210.93 425.799 210.93 426.055C210.93 426.425 211.064 426.709 211.333 426.905C211.606 427.096 211.951 427.192 212.368 427.192ZM221.506 419.068L223.308 422.501L225.156 419.068H227.949L225.104 423.977L228.026 428.886H225.245L223.308 425.492L221.403 428.886H218.591L221.506 423.977L218.693 419.068H221.506ZM229.566 428.886V419.068H232.289V428.886H229.566ZM230.934 417.802C230.529 417.802 230.182 417.668 229.892 417.4C229.607 417.127 229.464 416.801 229.464 416.422C229.464 416.047 229.607 415.725 229.892 415.457C230.182 415.184 230.529 415.047 230.934 415.047C231.339 415.047 231.684 415.184 231.97 415.457C232.259 415.725 232.404 416.047 232.404 416.422C232.404 416.801 232.259 417.127 231.97 417.4C231.684 417.668 231.339 417.802 230.934 417.802ZM242.639 421.868L240.147 422.021C240.104 421.808 240.012 421.616 239.872 421.446C239.731 421.271 239.546 421.133 239.316 421.03C239.09 420.924 238.819 420.871 238.504 420.871C238.082 420.871 237.726 420.96 237.436 421.139C237.147 421.314 237.002 421.548 237.002 421.842C237.002 422.077 237.095 422.275 237.283 422.437C237.47 422.599 237.792 422.729 238.248 422.827L240.025 423.185C240.98 423.381 241.691 423.696 242.16 424.131C242.629 424.565 242.863 425.136 242.863 425.844C242.863 426.487 242.674 427.052 242.294 427.538C241.919 428.023 241.404 428.403 240.747 428.675C240.095 428.944 239.343 429.078 238.491 429.078C237.191 429.078 236.156 428.807 235.384 428.266C234.617 427.721 234.168 426.979 234.036 426.042L236.714 425.901C236.795 426.297 236.991 426.6 237.302 426.809C237.613 427.013 238.012 427.116 238.497 427.116C238.975 427.116 239.358 427.024 239.648 426.841C239.942 426.653 240.091 426.413 240.095 426.118C240.091 425.871 239.987 425.669 239.782 425.511C239.578 425.349 239.262 425.226 238.836 425.14L237.136 424.802C236.177 424.61 235.463 424.278 234.995 423.805C234.53 423.332 234.298 422.729 234.298 421.996C234.298 421.365 234.468 420.822 234.809 420.366C235.154 419.91 235.638 419.558 236.26 419.311C236.887 419.064 237.62 418.94 238.459 418.94C239.699 418.94 240.675 419.202 241.387 419.726C242.103 420.251 242.52 420.964 242.639 421.868ZM250.248 415.795V428.886H247.48V418.422H247.403L244.405 420.302V417.847L247.646 415.795H250.248Z" fill="black"/>
<path d="M77.7955 321.185C77.1691 321.185 76.6109 321.077 76.1208 320.859C75.6308 320.638 75.243 320.312 74.9575 319.881C74.6762 319.447 74.5356 318.906 74.5356 318.258C74.5356 317.712 74.6357 317.254 74.836 316.884C75.0363 316.513 75.309 316.214 75.6542 315.989C75.9994 315.763 76.3914 315.592 76.8303 315.477C77.2735 315.362 77.738 315.281 78.2238 315.234C78.7948 315.175 79.2551 315.119 79.6045 315.068C79.9539 315.013 80.2075 314.932 80.3651 314.825C80.5228 314.719 80.6017 314.561 80.6017 314.352V314.314C80.6017 313.909 80.4738 313.596 80.2181 313.374C79.9667 313.153 79.6088 313.042 79.1443 313.042C78.6542 313.042 78.2643 313.151 77.9745 313.368C77.6847 313.581 77.493 313.849 77.3992 314.173L74.8808 313.969C75.0086 313.372 75.26 312.857 75.635 312.422C76.01 311.983 76.4937 311.646 77.086 311.412C77.6826 311.173 78.373 311.054 79.157 311.054C79.7025 311.054 80.2245 311.118 80.7231 311.246C81.2259 311.374 81.6713 311.572 82.059 311.84C82.4511 312.109 82.76 312.454 82.9859 312.876C83.2117 313.293 83.3247 313.794 83.3247 314.378V321H80.7423V319.638H80.6656C80.5079 319.945 80.297 320.216 80.0328 320.45C79.7686 320.68 79.4511 320.862 79.0803 320.994C78.7096 321.121 78.2813 321.185 77.7955 321.185ZM78.5754 319.306C78.9759 319.306 79.3296 319.227 79.6365 319.07C79.9433 318.908 80.184 318.69 80.3588 318.418C80.5335 318.145 80.6208 317.836 80.6208 317.491V316.449C80.5356 316.504 80.4184 316.555 80.2693 316.602C80.1244 316.645 79.9603 316.685 79.7771 316.724C79.5938 316.758 79.4106 316.79 79.2274 316.82C79.0441 316.845 78.8779 316.869 78.7288 316.89C78.4092 316.937 78.1301 317.011 77.8914 317.114C77.6528 317.216 77.4674 317.354 77.3353 317.529C77.2032 317.7 77.1372 317.913 77.1372 318.168C77.1372 318.539 77.2714 318.822 77.5399 319.018C77.8126 319.21 78.1578 319.306 78.5754 319.306ZM87.7128 311.182L89.5154 314.614L91.3627 311.182H94.156L91.3115 316.091L94.2327 321H91.4521L89.5154 317.606L87.6105 321H84.798L87.7128 316.091L84.9003 311.182H87.7128ZM95.7732 321V311.182H98.4962V321H95.7732ZM97.1411 309.916C96.7362 309.916 96.3889 309.782 96.0992 309.513C95.8137 309.241 95.6709 308.915 95.6709 308.536C95.6709 308.161 95.8137 307.839 96.0992 307.57C96.3889 307.298 96.7362 307.161 97.1411 307.161C97.5459 307.161 97.8911 307.298 98.1766 307.57C98.4664 307.839 98.6112 308.161 98.6112 308.536C98.6112 308.915 98.4664 309.241 98.1766 309.513C97.8911 309.782 97.5459 309.916 97.1411 309.916ZM108.847 313.982L106.354 314.135C106.311 313.922 106.219 313.73 106.079 313.56C105.938 313.385 105.753 313.246 105.523 313.144C105.297 313.038 105.026 312.984 104.711 312.984C104.289 312.984 103.933 313.074 103.643 313.253C103.354 313.428 103.209 313.662 103.209 313.956C103.209 314.19 103.302 314.388 103.49 314.55C103.677 314.712 103.999 314.842 104.455 314.94L106.232 315.298C107.187 315.494 107.898 315.81 108.367 316.244C108.836 316.679 109.07 317.25 109.07 317.957C109.07 318.601 108.881 319.165 108.501 319.651C108.126 320.137 107.611 320.516 106.954 320.789C106.302 321.058 105.55 321.192 104.698 321.192C103.398 321.192 102.363 320.921 101.592 320.38C100.824 319.835 100.375 319.093 100.243 318.156L102.921 318.015C103.002 318.411 103.198 318.714 103.509 318.923C103.82 319.127 104.219 319.229 104.704 319.229C105.182 319.229 105.565 319.138 105.855 318.955C106.149 318.767 106.298 318.526 106.302 318.232C106.298 317.985 106.194 317.783 105.989 317.625C105.785 317.463 105.469 317.339 105.043 317.254L103.343 316.915C102.384 316.724 101.67 316.391 101.202 315.918C100.737 315.445 100.505 314.842 100.505 314.109C100.505 313.479 100.675 312.935 101.016 312.479C101.361 312.023 101.845 311.672 102.467 311.425C103.094 311.178 103.827 311.054 104.666 311.054C105.906 311.054 106.882 311.316 107.594 311.84C108.31 312.364 108.727 313.078 108.847 313.982ZM115.892 321.288C114.793 321.283 113.847 321.013 113.054 320.476C112.266 319.939 111.658 319.161 111.232 318.143C110.81 317.124 110.602 315.899 110.606 314.467C110.606 313.04 110.817 311.823 111.239 310.817C111.665 309.812 112.272 309.047 113.06 308.523C113.853 307.994 114.797 307.73 115.892 307.73C116.987 307.73 117.929 307.994 118.717 308.523C119.51 309.051 120.119 309.818 120.546 310.824C120.972 311.825 121.183 313.04 121.178 314.467C121.178 315.903 120.965 317.131 120.539 318.149C120.117 319.168 119.512 319.945 118.724 320.482C117.935 321.019 116.992 321.288 115.892 321.288ZM115.892 318.993C116.642 318.993 117.241 318.616 117.688 317.862C118.136 317.107 118.357 315.976 118.353 314.467C118.353 313.474 118.251 312.648 118.046 311.987C117.846 311.327 117.56 310.83 117.19 310.498C116.823 310.165 116.391 309.999 115.892 309.999C115.146 309.999 114.55 310.372 114.102 311.118C113.655 311.864 113.429 312.98 113.425 314.467C113.425 315.473 113.525 316.312 113.725 316.986C113.93 317.655 114.217 318.158 114.588 318.494C114.959 318.827 115.394 318.993 115.892 318.993Z" fill="black"/>
<rect x="170.82" y="314.95" width="58.9677" height="57.9999" rx="3" fill="white"/>
<rect x="170.82" y="314.95" width="58.9677" height="57.9999" rx="3" stroke="white" stroke-width="2"/>
<rect x="170.82" y="314.95" width="58.9677" height="57.9999" rx="3" stroke="black" stroke-opacity="0.2" stroke-width="2"/>
<rect x="229.852" y="314.95" width="58.9677" height="57.9999" rx="3" fill="white"/>
<rect x="229.852" y="314.95" width="58.9677" height="57.9999" rx="3" stroke="white" stroke-width="2"/>
<rect x="229.852" y="314.95" width="58.9677" height="57.9999" rx="3" stroke="black" stroke-opacity="0.2" stroke-width="2"/>
<rect x="170.82" y="256.886" width="58.9677" height="57.9999" rx="3" fill="white"/>
<rect x="170.82" y="256.886" width="58.9677" height="57.9999" rx="3" stroke="white" stroke-width="2"/>
<rect x="170.82" y="256.886" width="58.9677" height="57.9999" rx="3" stroke="black" stroke-opacity="0.2" stroke-width="2"/>
<rect x="229.852" y="256.886" width="58.9677" height="57.9999" rx="3" fill="white"/>
<rect x="229.852" y="256.886" width="58.9677" height="57.9999" rx="3" stroke="white" stroke-width="2"/>
<rect x="229.852" y="256.886" width="58.9677" height="57.9999" rx="3" stroke="black" stroke-opacity="0.2" stroke-width="2"/>
<path d="M143.352 396.335C142.247 396.335 141.352 397.231 141.352 398.335C141.352 399.44 142.247 400.335 143.352 400.335L143.352 396.335ZM364.995 398.335L344.995 386.788L344.995 409.882L364.995 398.335ZM143.352 400.335L346.995 400.335L346.995 396.335L143.352 396.335L143.352 400.335Z" fill="#E75F5F"/>
<path d="M141.352 398.335C141.352 399.44 142.247 400.335 143.352 400.335C144.456 400.335 145.352 399.44 145.352 398.335L141.352 398.335ZM143.352 180L131.805 200L154.899 200L143.352 180ZM145.352 398.335L145.352 198L141.352 198L141.352 398.335L145.352 398.335Z" fill="#5955BF"/>
<path d="M210.407 325V321.676L218.173 314.485C218.834 313.846 219.388 313.271 219.835 312.759C220.29 312.248 220.634 311.747 220.869 311.257C221.103 310.76 221.22 310.224 221.22 309.648C221.22 309.009 221.075 308.459 220.784 307.997C220.492 307.528 220.095 307.17 219.59 306.921C219.086 306.665 218.514 306.538 217.875 306.538C217.208 306.538 216.625 306.673 216.128 306.942C215.631 307.212 215.247 307.599 214.977 308.104C214.708 308.608 214.573 309.208 214.573 309.904H210.194C210.194 308.477 210.517 307.237 211.164 306.186C211.81 305.135 212.715 304.322 213.88 303.746C215.045 303.171 216.387 302.884 217.907 302.884C219.47 302.884 220.83 303.161 221.987 303.714C223.152 304.261 224.058 305.021 224.704 305.994C225.35 306.967 225.673 308.082 225.673 309.339C225.673 310.163 225.51 310.977 225.183 311.779C224.864 312.582 224.292 313.473 223.468 314.453C222.644 315.426 221.483 316.594 219.985 317.958L216.799 321.08V321.229H225.961V325H210.407ZM237.166 325H229.431V303.182H237.23C239.424 303.182 241.314 303.619 242.897 304.492C244.481 305.359 245.699 306.605 246.551 308.232C247.411 309.858 247.841 311.804 247.841 314.07C247.841 316.342 247.411 318.295 246.551 319.929C245.699 321.562 244.474 322.816 242.876 323.69C241.285 324.563 239.382 325 237.166 325ZM234.044 321.048H236.974C238.338 321.048 239.485 320.806 240.415 320.323C241.353 319.833 242.056 319.077 242.525 318.054C243 317.024 243.238 315.696 243.238 314.07C243.238 312.457 243 311.14 242.525 310.117C242.056 309.094 241.356 308.342 240.426 307.859C239.495 307.376 238.348 307.134 236.985 307.134H234.044V321.048Z" fill="black"/>
<path d="M379.796 709.481C379.169 709.481 378.611 709.373 378.121 709.155C377.631 708.934 377.243 708.608 376.957 708.177C376.676 707.743 376.536 707.201 376.536 706.554C376.536 706.008 376.636 705.55 376.836 705.179C377.036 704.809 377.309 704.51 377.654 704.285C377.999 704.059 378.391 703.888 378.83 703.773C379.274 703.658 379.738 703.577 380.224 703.53C380.795 703.471 381.255 703.415 381.604 703.364C381.954 703.309 382.207 703.228 382.365 703.121C382.523 703.015 382.602 702.857 382.602 702.648V702.61C382.602 702.205 382.474 701.892 382.218 701.67C381.967 701.449 381.609 701.338 381.144 701.338C380.654 701.338 380.264 701.446 379.975 701.664C379.685 701.877 379.493 702.145 379.399 702.469L376.881 702.265C377.009 701.668 377.26 701.152 377.635 700.718C378.01 700.279 378.494 699.942 379.086 699.708C379.683 699.469 380.373 699.35 381.157 699.35C381.703 699.35 382.225 699.414 382.723 699.542C383.226 699.669 383.671 699.868 384.059 700.136C384.451 700.405 384.76 700.75 384.986 701.172C385.212 701.589 385.325 702.09 385.325 702.674V709.296H382.742V707.934H382.666C382.508 708.241 382.297 708.512 382.033 708.746C381.769 708.976 381.451 709.157 381.08 709.29C380.71 709.417 380.281 709.481 379.796 709.481ZM380.575 707.602C380.976 707.602 381.33 707.523 381.636 707.366C381.943 707.204 382.184 706.986 382.359 706.714C382.533 706.441 382.621 706.132 382.621 705.787V704.745C382.536 704.8 382.418 704.851 382.269 704.898C382.124 704.941 381.96 704.981 381.777 705.02C381.594 705.054 381.411 705.086 381.227 705.116C381.044 705.141 380.878 705.165 380.729 705.186C380.409 705.233 380.13 705.307 379.891 705.41C379.653 705.512 379.467 705.65 379.335 705.825C379.203 705.995 379.137 706.209 379.137 706.464C379.137 706.835 379.271 707.118 379.54 707.314C379.813 707.506 380.158 707.602 380.575 707.602ZM389.713 699.478L391.515 702.91L393.363 699.478H396.156L393.312 704.387L396.233 709.296H393.452L391.515 705.902L389.611 709.296H386.798L389.713 704.387L386.9 699.478H389.713ZM397.773 709.296V699.478H400.496V709.296H397.773ZM399.141 698.212C398.736 698.212 398.389 698.078 398.099 697.809C397.814 697.537 397.671 697.211 397.671 696.831C397.671 696.456 397.814 696.135 398.099 695.866C398.389 695.593 398.736 695.457 399.141 695.457C399.546 695.457 399.891 695.593 400.177 695.866C400.466 696.135 400.611 696.456 400.611 696.831C400.611 697.211 400.466 697.537 400.177 697.809C399.891 698.078 399.546 698.212 399.141 698.212ZM410.847 702.277L408.354 702.431C408.311 702.218 408.219 702.026 408.079 701.856C407.938 701.681 407.753 701.542 407.523 701.44C407.297 701.334 407.026 701.28 406.711 701.28C406.289 701.28 405.933 701.37 405.643 701.549C405.354 701.723 405.209 701.958 405.209 702.252C405.209 702.486 405.302 702.684 405.49 702.846C405.677 703.008 405.999 703.138 406.455 703.236L408.232 703.594C409.187 703.79 409.898 704.106 410.367 704.54C410.836 704.975 411.07 705.546 411.07 706.253C411.07 706.897 410.881 707.461 410.501 707.947C410.126 708.433 409.611 708.812 408.954 709.085C408.302 709.353 407.55 709.488 406.698 709.488C405.398 709.488 404.363 709.217 403.592 708.676C402.824 708.13 402.375 707.389 402.243 706.451L404.921 706.311C405.002 706.707 405.198 707.01 405.509 707.218C405.82 707.423 406.219 707.525 406.704 707.525C407.182 707.525 407.565 707.434 407.855 707.25C408.149 707.063 408.298 706.822 408.302 706.528C408.298 706.281 408.194 706.079 407.989 705.921C407.785 705.759 407.469 705.635 407.043 705.55L405.343 705.211C404.384 705.02 403.67 704.687 403.202 704.214C402.737 703.741 402.505 703.138 402.505 702.405C402.505 701.775 402.675 701.231 403.016 700.775C403.361 700.319 403.845 699.968 404.467 699.721C405.094 699.473 405.827 699.35 406.666 699.35C407.906 699.35 408.882 699.612 409.594 700.136C410.31 700.66 410.727 701.374 410.847 702.277ZM417.892 709.584C416.793 709.579 415.847 709.309 415.054 708.772C414.266 708.235 413.658 707.457 413.232 706.439C412.81 705.42 412.602 704.195 412.606 702.763C412.606 701.336 412.817 700.119 413.239 699.113C413.665 698.108 414.272 697.343 415.06 696.819C415.853 696.29 416.797 696.026 417.892 696.026C418.987 696.026 419.929 696.29 420.717 696.819C421.51 697.347 422.119 698.114 422.546 699.12C422.972 700.121 423.183 701.336 423.178 702.763C423.178 704.199 422.965 705.427 422.539 706.445C422.117 707.464 421.512 708.241 420.724 708.778C419.935 709.315 418.992 709.584 417.892 709.584ZM417.892 707.289C418.642 707.289 419.241 706.912 419.688 706.157C420.136 705.403 420.357 704.272 420.353 702.763C420.353 701.77 420.251 700.944 420.046 700.283C419.846 699.623 419.56 699.126 419.19 698.794C418.823 698.461 418.391 698.295 417.892 698.295C417.146 698.295 416.55 698.668 416.102 699.414C415.655 700.16 415.429 701.276 415.425 702.763C415.425 703.769 415.525 704.608 415.725 705.282C415.93 705.951 416.217 706.454 416.588 706.79C416.959 707.123 417.394 707.289 417.892 707.289Z" fill="black"/>
<path d="M343.744 716.611C343.027 717.451 343.127 718.713 343.968 719.43C344.808 720.147 346.07 720.047 346.787 719.207L343.744 716.611ZM391 664.296L369.235 672.018L386.805 687.006L391 664.296ZM346.787 719.207L380.84 679.288L377.797 676.692L343.744 716.611L346.787 719.207Z" fill="#5955BF"/>
<rect x="194" y="607.845" width="57.2764" height="56.3672" rx="4" fill="#CCCCCC"/>
<rect x="195" y="608.845" width="55.2764" height="54.3672" rx="3" stroke="black" stroke-opacity="0.3" stroke-width="2"/>
<rect x="249.459" y="607.845" width="57.2764" height="56.3672" rx="4" fill="#CCCCCC"/>
<rect x="250.459" y="608.845" width="55.2764" height="54.3672" rx="3" stroke="black" stroke-opacity="0.3" stroke-width="2"/>
<rect x="194" y="553.296" width="57.2764" height="56.3672" rx="4" fill="#CCCCCC"/>
<rect x="195" y="554.296" width="55.2764" height="54.3672" rx="3" stroke="black" stroke-opacity="0.3" stroke-width="2"/>
<rect x="249.459" y="553.296" width="57.2764" height="56.3672" rx="4" fill="#CCCCCC"/>
<rect x="250.459" y="554.296" width="55.2764" height="54.3672" rx="3" stroke="black" stroke-opacity="0.3" stroke-width="2"/>
<rect x="182" y="618.845" width="57.2764" height="56.3672" rx="4" fill="#D8D8D8"/>
<rect x="183" y="619.845" width="55.2764" height="54.3672" rx="3" stroke="black" stroke-opacity="0.3" stroke-width="2"/>
<rect x="237.459" y="618.845" width="57.2764" height="56.3672" rx="4" fill="#D8D8D8"/>
<rect x="238.459" y="619.845" width="55.2764" height="54.3672" rx="3" stroke="black" stroke-opacity="0.3" stroke-width="2"/>
<rect x="182" y="564.296" width="57.2764" height="56.3672" rx="4" fill="#D8D8D8"/>
<rect x="183" y="565.296" width="55.2764" height="54.3672" rx="3" stroke="black" stroke-opacity="0.3" stroke-width="2"/>
<rect x="237.459" y="564.296" width="57.2764" height="56.3672" rx="4" fill="#D8D8D8"/>
<rect x="238.459" y="565.296" width="55.2764" height="54.3672" rx="3" stroke="black" stroke-opacity="0.3" stroke-width="2"/>
<rect x="170" y="629.845" width="57.2764" height="56.3672" rx="4" fill="#E4E3E3"/>
<rect x="171" y="630.845" width="55.2764" height="54.3672" rx="3" stroke="black" stroke-opacity="0.3" stroke-width="2"/>
<rect x="225.459" y="629.845" width="57.2764" height="56.3672" rx="4" fill="#E4E3E3"/>
<rect x="226.459" y="630.845" width="55.2764" height="54.3672" rx="3" stroke="black" stroke-opacity="0.3" stroke-width="2"/>
<rect x="170" y="575.296" width="57.2764" height="56.3672" rx="4" fill="#E4E3E3"/>
<rect x="171" y="576.296" width="55.2764" height="54.3672" rx="3" stroke="black" stroke-opacity="0.3" stroke-width="2"/>
<rect x="225.459" y="575.296" width="57.2764" height="56.3672" rx="4" fill="#E4E3E3"/>
<rect x="226.459" y="576.296" width="55.2764" height="54.3672" rx="3" stroke="black" stroke-opacity="0.3" stroke-width="2"/>
<path d="M178.323 770.481C177.696 770.481 177.138 770.373 176.648 770.155C176.158 769.934 175.77 769.608 175.485 769.177C175.204 768.743 175.063 768.201 175.063 767.554C175.063 767.008 175.163 766.55 175.363 766.179C175.564 765.809 175.836 765.51 176.182 765.285C176.527 765.059 176.919 764.888 177.358 764.773C177.801 764.658 178.265 764.577 178.751 764.53C179.322 764.471 179.782 764.415 180.132 764.364C180.481 764.309 180.735 764.228 180.892 764.121C181.05 764.015 181.129 763.857 181.129 763.648V763.61C181.129 763.205 181.001 762.892 180.745 762.67C180.494 762.449 180.136 762.338 179.672 762.338C179.182 762.338 178.792 762.446 178.502 762.664C178.212 762.877 178.02 763.145 177.927 763.469L175.408 763.265C175.536 762.668 175.787 762.152 176.162 761.718C176.537 761.279 177.021 760.942 177.613 760.708C178.21 760.469 178.9 760.35 179.684 760.35C180.23 760.35 180.752 760.414 181.25 760.542C181.753 760.669 182.199 760.868 182.586 761.136C182.978 761.405 183.287 761.75 183.513 762.172C183.739 762.589 183.852 763.09 183.852 763.674V770.296H181.27V768.934H181.193C181.035 769.241 180.824 769.512 180.56 769.746C180.296 769.976 179.978 770.157 179.608 770.29C179.237 770.417 178.809 770.481 178.323 770.481ZM179.103 768.602C179.503 768.602 179.857 768.523 180.164 768.366C180.471 768.204 180.711 767.986 180.886 767.714C181.061 767.441 181.148 767.132 181.148 766.787V765.745C181.063 765.8 180.946 765.851 180.797 765.898C180.652 765.941 180.488 765.981 180.304 766.02C180.121 766.054 179.938 766.086 179.755 766.116C179.571 766.141 179.405 766.165 179.256 766.186C178.937 766.233 178.657 766.307 178.419 766.41C178.18 766.512 177.995 766.65 177.863 766.825C177.731 766.995 177.665 767.209 177.665 767.464C177.665 767.835 177.799 768.118 178.067 768.314C178.34 768.506 178.685 768.602 179.103 768.602ZM188.24 760.478L190.043 763.91L191.89 760.478H194.683L191.839 765.387L194.76 770.296H191.979L190.043 766.902L188.138 770.296H185.325L188.24 765.387L185.428 760.478H188.24ZM196.301 770.296V760.478H199.024V770.296H196.301ZM197.668 759.212C197.264 759.212 196.916 759.078 196.627 758.809C196.341 758.537 196.198 758.211 196.198 757.831C196.198 757.456 196.341 757.135 196.627 756.866C196.916 756.593 197.264 756.457 197.668 756.457C198.073 756.457 198.418 756.593 198.704 756.866C198.994 757.135 199.139 757.456 199.139 757.831C199.139 758.211 198.994 758.537 198.704 758.809C198.418 759.078 198.073 759.212 197.668 759.212ZM209.374 763.277L206.881 763.431C206.838 763.218 206.747 763.026 206.606 762.856C206.465 762.681 206.28 762.542 206.05 762.44C205.824 762.334 205.554 762.28 205.238 762.28C204.816 762.28 204.46 762.37 204.171 762.549C203.881 762.723 203.736 762.958 203.736 763.252C203.736 763.486 203.83 763.684 204.017 763.846C204.205 764.008 204.527 764.138 204.983 764.236L206.759 764.594C207.714 764.79 208.426 765.106 208.894 765.54C209.363 765.975 209.598 766.546 209.598 767.253C209.598 767.897 209.408 768.461 209.029 768.947C208.654 769.433 208.138 769.812 207.482 770.085C206.83 770.353 206.078 770.488 205.225 770.488C203.926 770.488 202.89 770.217 202.119 769.676C201.352 769.13 200.902 768.389 200.77 767.451L203.448 767.311C203.529 767.707 203.725 768.01 204.036 768.218C204.348 768.423 204.746 768.525 205.232 768.525C205.709 768.525 206.093 768.434 206.382 768.25C206.676 768.063 206.826 767.822 206.83 767.528C206.826 767.281 206.721 767.079 206.517 766.921C206.312 766.759 205.997 766.635 205.571 766.55L203.87 766.211C202.911 766.02 202.198 765.687 201.729 765.214C201.264 764.741 201.032 764.138 201.032 763.405C201.032 762.775 201.203 762.231 201.544 761.775C201.889 761.319 202.372 760.968 202.995 760.721C203.621 760.473 204.354 760.35 205.193 760.35C206.434 760.35 207.409 760.612 208.121 761.136C208.837 761.66 209.255 762.374 209.374 763.277ZM211.287 770.296V768.302L215.946 763.987C216.343 763.603 216.675 763.258 216.944 762.951C217.216 762.645 217.423 762.344 217.564 762.05C217.704 761.752 217.775 761.43 217.775 761.085C217.775 760.701 217.687 760.371 217.513 760.094C217.338 759.813 217.099 759.598 216.797 759.449C216.494 759.295 216.151 759.218 215.767 759.218C215.367 759.218 215.017 759.299 214.719 759.461C214.421 759.623 214.191 759.856 214.029 760.158C213.867 760.461 213.786 760.821 213.786 761.238H211.159C211.159 760.382 211.353 759.638 211.741 759.008C212.128 758.377 212.672 757.889 213.37 757.544C214.069 757.199 214.875 757.026 215.787 757.026C216.724 757.026 217.54 757.192 218.235 757.525C218.934 757.853 219.477 758.309 219.865 758.892C220.253 759.476 220.446 760.145 220.446 760.9C220.446 761.394 220.348 761.882 220.152 762.363C219.961 762.845 219.618 763.38 219.123 763.968C218.629 764.552 217.932 765.253 217.033 766.071L215.122 767.944V768.033H220.619V770.296H211.287Z" fill="black"/>
<path d="M51.5885 663.481C50.9621 663.481 50.4039 663.373 49.9138 663.155C49.4237 662.934 49.036 662.608 48.7504 662.177C48.4692 661.743 48.3286 661.201 48.3286 660.554C48.3286 660.008 48.4287 659.55 48.629 659.179C48.8293 658.809 49.102 658.51 49.4472 658.285C49.7923 658.059 50.1844 657.888 50.6233 657.773C51.0665 657.658 51.531 657.577 52.0168 657.53C52.5878 657.471 53.048 657.415 53.3975 657.364C53.7469 657.309 54.0004 657.228 54.1581 657.121C54.3158 657.015 54.3946 656.857 54.3946 656.648V656.61C54.3946 656.205 54.2668 655.892 54.0111 655.67C53.7597 655.449 53.4017 655.338 52.9372 655.338C52.4472 655.338 52.0573 655.446 51.7675 655.664C51.4777 655.877 51.286 656.145 51.1922 656.469L48.6737 656.265C48.8016 655.668 49.053 655.152 49.428 654.718C49.803 654.279 50.2867 653.942 50.879 653.708C51.4756 653.469 52.1659 653.35 52.95 653.35C53.4955 653.35 54.0175 653.414 54.5161 653.542C55.0189 653.669 55.4642 653.868 55.852 654.136C56.2441 654.405 56.553 654.75 56.7789 655.172C57.0047 655.589 57.1176 656.09 57.1176 656.674V663.296H54.5352V661.934H54.4585C54.3009 662.241 54.0899 662.512 53.8257 662.746C53.5615 662.976 53.2441 663.157 52.8733 663.29C52.5026 663.417 52.0743 663.481 51.5885 663.481ZM52.3683 661.602C52.7689 661.602 53.1226 661.523 53.4294 661.366C53.7362 661.204 53.977 660.986 54.1517 660.714C54.3264 660.441 54.4138 660.132 54.4138 659.787V658.745C54.3286 658.8 54.2114 658.851 54.0622 658.898C53.9173 658.941 53.7533 658.981 53.57 659.02C53.3868 659.054 53.2036 659.086 53.0203 659.116C52.8371 659.141 52.6709 659.165 52.5218 659.186C52.2021 659.233 51.923 659.307 51.6844 659.41C51.4458 659.512 51.2604 659.65 51.1283 659.825C50.9962 659.995 50.9301 660.209 50.9301 660.464C50.9301 660.835 51.0644 661.118 51.3328 661.314C51.6056 661.506 51.9507 661.602 52.3683 661.602ZM61.5058 653.478L63.3083 656.91L65.1556 653.478H67.949L65.1045 658.387L68.0257 663.296H65.2451L63.3083 659.902L61.4035 663.296H58.591L61.5058 658.387L58.6933 653.478H61.5058ZM69.5661 663.296V653.478H72.2892V663.296H69.5661ZM70.934 652.212C70.5292 652.212 70.1819 652.078 69.8921 651.809C69.6066 651.537 69.4639 651.211 69.4639 650.831C69.4639 650.456 69.6066 650.135 69.8921 649.866C70.1819 649.593 70.5292 649.457 70.934 649.457C71.3389 649.457 71.684 649.593 71.9695 649.866C72.2593 650.135 72.4042 650.456 72.4042 650.831C72.4042 651.211 72.2593 651.537 71.9695 651.809C71.684 652.078 71.3389 652.212 70.934 652.212ZM82.6395 656.277L80.1466 656.431C80.104 656.218 80.0123 656.026 79.8717 655.856C79.7311 655.681 79.5457 655.542 79.3156 655.44C79.0898 655.334 78.8192 655.28 78.5038 655.28C78.0819 655.28 77.7261 655.37 77.4363 655.549C77.1466 655.723 77.0017 655.958 77.0017 656.252C77.0017 656.486 77.0954 656.684 77.2829 656.846C77.4704 657.008 77.7922 657.138 78.2481 657.236L80.0251 657.594C80.9797 657.79 81.6913 658.106 82.1601 658.54C82.6288 658.975 82.8632 659.546 82.8632 660.253C82.8632 660.897 82.6736 661.461 82.2943 661.947C81.9193 662.433 81.4037 662.812 80.7474 663.085C80.0954 663.353 79.3433 663.488 78.491 663.488C77.1913 663.488 76.1558 663.217 75.3845 662.676C74.6175 662.13 74.1679 661.389 74.0358 660.451L76.714 660.311C76.795 660.707 76.991 661.01 77.3021 661.218C77.6132 661.423 78.0116 661.525 78.4974 661.525C78.9747 661.525 79.3582 661.434 79.648 661.25C79.942 661.063 80.0912 660.822 80.0954 660.528C80.0912 660.281 79.9868 660.079 79.7822 659.921C79.5777 659.759 79.2623 659.635 78.8362 659.55L77.1359 659.211C76.1771 659.02 75.4633 658.687 74.9946 658.214C74.5301 657.741 74.2979 657.138 74.2979 656.405C74.2979 655.775 74.4683 655.231 74.8092 654.775C75.1544 654.319 75.6381 653.968 76.2602 653.721C76.8866 653.473 77.6196 653.35 78.4591 653.35C79.6991 653.35 80.675 653.612 81.3866 654.136C82.1025 654.66 82.5202 655.374 82.6395 656.277ZM90.2476 650.205V663.296H87.4798V652.832H87.4031L84.4053 654.711V652.257L87.646 650.205H90.2476Z" fill="black"/>
<rect x="157.203" y="640.845" width="57.2764" height="56.3672" rx="4" fill="#EFEFEF"/>
<rect x="158.203" y="641.845" width="55.2764" height="54.3672" rx="3" stroke="black" stroke-opacity="0.2" stroke-width="2"/>
<rect x="212.662" y="640.845" width="57.2764" height="56.3672" rx="4" fill="#EFEFEF"/>
<rect x="213.662" y="641.845" width="55.2764" height="54.3672" rx="3" stroke="black" stroke-opacity="0.2" stroke-width="2"/>
<rect x="157.203" y="586.296" width="57.2764" height="56.3672" rx="4" fill="#EFEFEF"/>
<rect x="158.203" y="587.296" width="55.2764" height="54.3672" rx="3" stroke="black" stroke-opacity="0.2" stroke-width="2"/>
<rect x="212.662" y="586.296" width="57.2764" height="56.3672" rx="4" fill="#EFEFEF"/>
<rect x="213.662" y="587.296" width="55.2764" height="54.3672" rx="3" stroke="black" stroke-opacity="0.2" stroke-width="2"/>
<rect x="137.891" y="657.424" width="58.8377" height="57.872" rx="3" fill="white"/>
<rect x="137.891" y="657.424" width="58.8377" height="57.872" rx="3" stroke="white" stroke-width="2"/>
<rect x="137.891" y="657.424" width="58.8377" height="57.872" rx="3" stroke="black" stroke-opacity="0.2" stroke-width="2"/>
<rect x="196.797" y="657.424" width="58.8377" height="57.872" rx="3" fill="white"/>
<rect x="196.797" y="657.424" width="58.8377" height="57.872" rx="3" stroke="white" stroke-width="2"/>
<rect x="196.797" y="657.424" width="58.8377" height="57.872" rx="3" stroke="black" stroke-opacity="0.2" stroke-width="2"/>
<rect x="137.891" y="599.484" width="58.8377" height="57.872" rx="3" fill="white"/>
<rect x="137.891" y="599.484" width="58.8377" height="57.872" rx="3" stroke="white" stroke-width="2"/>
<rect x="137.891" y="599.484" width="58.8377" height="57.872" rx="3" stroke="black" stroke-opacity="0.2" stroke-width="2"/>
<rect x="196.797" y="599.484" width="58.8377" height="57.872" rx="3" fill="white"/>
<rect x="196.797" y="599.484" width="58.8377" height="57.872" rx="3" stroke="white" stroke-width="2"/>
<rect x="196.797" y="599.484" width="58.8377" height="57.872" rx="3" stroke="black" stroke-opacity="0.2" stroke-width="2"/>
<path d="M112.082 737.411C110.977 737.411 110.082 738.307 110.082 739.411C110.082 740.516 110.977 741.411 112.082 741.411L112.082 737.411ZM330.418 739.411L310.418 727.864L310.418 750.958L330.418 739.411ZM112.082 741.411L312.418 741.411L312.418 737.411L112.082 737.411L112.082 741.411Z" fill="#85D156"/>
<path d="M110.082 739.411C110.082 740.516 110.977 741.411 112.082 741.411C113.187 741.411 114.082 740.516 114.082 739.411L110.082 739.411ZM112.082 531L100.535 551L123.629 551L112.082 531ZM114.082 739.411L114.082 549L110.082 549L110.082 739.411L114.082 739.411Z" fill="#E75F5F"/>
<path d="M185.032 667.298C183.441 667.298 182.025 667.025 180.782 666.478C179.546 665.924 178.569 665.164 177.852 664.198C177.142 663.225 176.776 662.103 176.755 660.832H181.4C181.428 661.364 181.602 661.833 181.922 662.238C182.248 662.636 182.681 662.945 183.221 663.165C183.761 663.385 184.368 663.495 185.043 663.495C185.746 663.495 186.368 663.371 186.907 663.122C187.447 662.874 187.87 662.529 188.175 662.089C188.48 661.648 188.633 661.141 188.633 660.565C188.633 659.983 188.47 659.468 188.143 659.021C187.824 658.566 187.362 658.211 186.758 657.955C186.162 657.7 185.451 657.572 184.627 657.572H182.593V654.184H184.627C185.324 654.184 185.938 654.063 186.471 653.822C187.01 653.58 187.429 653.246 187.728 652.82C188.026 652.387 188.175 651.883 188.175 651.308C188.175 650.761 188.044 650.281 187.781 649.869C187.525 649.45 187.163 649.124 186.694 648.889C186.233 648.655 185.693 648.538 185.075 648.538C184.45 648.538 183.878 648.651 183.36 648.879C182.841 649.099 182.426 649.415 182.113 649.827C181.801 650.239 181.634 650.722 181.613 651.276H177.191C177.213 650.018 177.571 648.911 178.267 647.952C178.963 646.993 179.901 646.244 181.08 645.704C182.266 645.157 183.605 644.884 185.096 644.884C186.602 644.884 187.919 645.157 189.049 645.704C190.178 646.251 191.055 646.989 191.68 647.92C192.312 648.843 192.625 649.88 192.618 651.031C192.625 652.252 192.245 653.271 191.478 654.088C190.718 654.905 189.727 655.423 188.505 655.643V655.814C190.11 656.02 191.332 656.577 192.17 657.487C193.015 658.388 193.434 659.518 193.427 660.874C193.434 662.117 193.076 663.222 192.351 664.188C191.634 665.153 190.643 665.913 189.379 666.467C188.115 667.021 186.666 667.298 185.032 667.298ZM204.605 667H196.871V645.182H204.669C206.864 645.182 208.753 645.619 210.337 646.492C211.921 647.359 213.139 648.605 213.991 650.232C214.85 651.858 215.28 653.804 215.28 656.07C215.28 658.342 214.85 660.295 213.991 661.929C213.139 663.562 211.914 664.816 210.316 665.69C208.725 666.563 206.821 667 204.605 667ZM201.484 663.048H204.414C205.777 663.048 206.924 662.806 207.855 662.323C208.792 661.833 209.495 661.077 209.964 660.054C210.44 659.024 210.678 657.696 210.678 656.07C210.678 654.457 210.44 653.14 209.964 652.117C209.495 651.094 208.796 650.342 207.865 649.859C206.935 649.376 205.788 649.134 204.424 649.134H201.484V663.048Z" fill="black"/>
</svg>
