<svg width="233" height="231" viewBox="0 0 233 231" fill="none" xmlns="http://www.w3.org/2000/svg">
<path d="M6.22143 35.4062V10.2401H14.0666V13.402H10.318V32.2344H14.0666V35.4062H6.22143ZM19.9185 35.4062V10.2401H27.7636V13.402H24.0151V32.2344H27.7636V35.4062H19.9185ZM39.83 33.2784C38.3451 33.2784 37.0227 33.0232 35.8627 32.5128C34.7092 31.9957 33.7978 31.2865 33.1283 30.3849C32.4654 29.4768 32.124 28.4295 32.1041 27.2429H36.4394C36.4659 27.7401 36.6283 28.1776 36.9266 28.5554C37.2315 28.9266 37.6359 29.215 38.1396 29.4205C38.6434 29.6259 39.2102 29.7287 39.8399 29.7287C40.4962 29.7287 41.0762 29.6127 41.58 29.3807C42.0838 29.1487 42.4782 28.8272 42.7632 28.4162C43.0483 28.0052 43.1908 27.5312 43.1908 26.9943C43.1908 26.4508 43.0383 25.9702 42.7334 25.5526C42.4351 25.1283 42.0042 24.7969 41.4408 24.5582C40.884 24.3196 40.2211 24.2003 39.4521 24.2003H37.553V21.0384H39.4521C40.1018 21.0384 40.6752 20.9257 41.1723 20.7003C41.6761 20.4749 42.0672 20.1634 42.3456 19.7656C42.624 19.3613 42.7632 18.8906 42.7632 18.3537C42.7632 17.8433 42.6406 17.3958 42.3953 17.0114C42.1567 16.6203 41.8186 16.3153 41.3811 16.0966C40.9502 15.8778 40.4465 15.7685 39.8698 15.7685C39.2864 15.7685 38.7528 15.8745 38.2689 16.0866C37.785 16.2921 37.3972 16.5871 37.1055 16.9716C36.8139 17.3561 36.6581 17.8068 36.6382 18.3239H32.5118C32.5317 17.1506 32.8664 16.1165 33.5161 15.2216C34.1657 14.3267 35.0407 13.6274 36.1411 13.1236C37.2481 12.6132 38.4976 12.358 39.8896 12.358C41.2949 12.358 42.5246 12.6132 43.5786 13.1236C44.6325 13.634 45.4512 14.3234 46.0345 15.1918C46.6245 16.0535 46.9162 17.0213 46.9095 18.0952C46.9162 19.2353 46.5615 20.1866 45.8456 20.9489C45.1363 21.7112 44.2116 22.1951 43.0715 22.4006V22.5597C44.5696 22.7519 45.7097 23.2723 46.4919 24.1207C47.2807 24.9626 47.6718 26.0166 47.6652 27.2827C47.6718 28.4427 47.3371 29.4735 46.6609 30.375C45.9914 31.2765 45.0667 31.9858 43.8868 32.5028C42.7069 33.0199 41.3546 33.2784 39.83 33.2784ZM60.9844 33.4474C59.2742 33.4408 57.8026 33.0199 56.5696 32.1847C55.3433 31.3494 54.3987 30.1397 53.7358 28.5554C53.0796 26.9711 52.7548 25.0653 52.7614 22.8381C52.7614 20.6174 53.0895 18.7249 53.7458 17.1605C54.4086 15.5961 55.3532 14.4062 56.5796 13.5909C57.8125 12.7689 59.2808 12.358 60.9844 12.358C62.688 12.358 64.153 12.7689 65.3793 13.5909C66.6122 14.4129 67.5602 15.6061 68.223 17.1705C68.8859 18.7282 69.214 20.6174 69.2074 22.8381C69.2074 25.072 68.876 26.9811 68.2131 28.5653C67.5568 30.1496 66.6156 31.3594 65.3892 32.1946C64.1629 33.0298 62.6946 33.4474 60.9844 33.4474ZM60.9844 29.8778C62.1511 29.8778 63.0824 29.2912 63.7784 28.1179C64.4745 26.9446 64.8192 25.1847 64.8125 22.8381C64.8125 21.2936 64.6534 20.0076 64.3353 18.9801C64.0237 17.9527 63.5796 17.1804 63.0029 16.6634C62.4328 16.1463 61.76 15.8878 60.9844 15.8878C59.8244 15.8878 58.8963 16.4678 58.2003 17.6278C57.5043 18.7879 57.153 20.5246 57.1463 22.8381C57.1463 24.4025 57.3021 25.7083 57.6137 26.7557C57.9318 27.7964 58.3793 28.5786 58.956 29.1023C59.5327 29.6193 60.2088 29.8778 60.9844 29.8778ZM99.4853 33.2784C98.0004 33.2784 96.678 33.0232 95.518 32.5128C94.3646 31.9957 93.4531 31.2865 92.7836 30.3849C92.1207 29.4768 91.7793 28.4295 91.7594 27.2429H96.0947C96.1212 27.7401 96.2836 28.1776 96.5819 28.5554C96.8868 28.9266 97.2912 29.215 97.795 29.4205C98.2987 29.6259 98.8655 29.7287 99.4952 29.7287C100.151 29.7287 100.732 29.6127 101.235 29.3807C101.739 29.1487 102.133 28.8272 102.419 28.4162C102.704 28.0052 102.846 27.5312 102.846 26.9943C102.846 26.4508 102.694 25.9702 102.389 25.5526C102.09 25.1283 101.66 24.7969 101.096 24.5582C100.539 24.3196 99.8764 24.2003 99.1075 24.2003H97.2083V21.0384H99.1075C99.7571 21.0384 100.33 20.9257 100.828 20.7003C101.331 20.4749 101.723 20.1634 102.001 19.7656C102.279 19.3613 102.419 18.8906 102.419 18.3537C102.419 17.8433 102.296 17.3958 102.051 17.0114C101.812 16.6203 101.474 16.3153 101.036 16.0966C100.606 15.8778 100.102 15.7685 99.5251 15.7685C98.9417 15.7685 98.4081 15.8745 97.9242 16.0866C97.4403 16.2921 97.0525 16.5871 96.7609 16.9716C96.4692 17.3561 96.3134 17.8068 96.2935 18.3239H92.1671C92.187 17.1506 92.5218 16.1165 93.1714 15.2216C93.821 14.3267 94.696 13.6274 95.7964 13.1236C96.9034 12.6132 98.1529 12.358 99.545 12.358C100.95 12.358 102.18 12.6132 103.234 13.1236C104.288 13.634 105.107 14.3234 105.69 15.1918C106.28 16.0535 106.571 17.0213 106.565 18.0952C106.571 19.2353 106.217 20.1866 105.501 20.9489C104.792 21.7112 103.867 22.1951 102.727 22.4006V22.5597C104.225 22.7519 105.365 23.2723 106.147 24.1207C106.936 24.9626 107.327 26.0166 107.321 27.2827C107.327 28.4427 106.992 29.4735 106.316 30.375C105.647 31.2765 104.722 31.9858 103.542 32.5028C102.362 33.0199 101.01 33.2784 99.4853 33.2784ZM120.182 33.2784C118.697 33.2784 117.375 33.0232 116.215 32.5128C115.062 31.9957 114.15 31.2865 113.481 30.3849C112.818 29.4768 112.476 28.4295 112.456 27.2429H116.792C116.818 27.7401 116.981 28.1776 117.279 28.5554C117.584 28.9266 117.988 29.215 118.492 29.4205C118.996 29.6259 119.563 29.7287 120.192 29.7287C120.849 29.7287 121.429 29.6127 121.932 29.3807C122.436 29.1487 122.831 28.8272 123.116 28.4162C123.401 28.0052 123.543 27.5312 123.543 26.9943C123.543 26.4508 123.391 25.9702 123.086 25.5526C122.787 25.1283 122.357 24.7969 121.793 24.5582C121.236 24.3196 120.573 24.2003 119.804 24.2003H117.905V21.0384H119.804C120.454 21.0384 121.027 20.9257 121.525 20.7003C122.028 20.4749 122.42 20.1634 122.698 19.7656C122.976 19.3613 123.116 18.8906 123.116 18.3537C123.116 17.8433 122.993 17.3958 122.748 17.0114C122.509 16.6203 122.171 16.3153 121.733 16.0966C121.303 15.8778 120.799 15.7685 120.222 15.7685C119.639 15.7685 119.105 15.8745 118.621 16.0866C118.137 16.2921 117.75 16.5871 117.458 16.9716C117.166 17.3561 117.01 17.8068 116.991 18.3239H112.864C112.884 17.1506 113.219 16.1165 113.868 15.2216C114.518 14.3267 115.393 13.6274 116.493 13.1236C117.6 12.6132 118.85 12.358 120.242 12.358C121.647 12.358 122.877 12.6132 123.931 13.1236C124.985 13.634 125.804 14.3234 126.387 15.1918C126.977 16.0535 127.269 17.0213 127.262 18.0952C127.269 19.2353 126.914 20.1866 126.198 20.9489C125.489 21.7112 124.564 22.1951 123.424 22.4006V22.5597C124.922 22.7519 126.062 23.2723 126.844 24.1207C127.633 24.9626 128.024 26.0166 128.018 27.2827C128.024 28.4427 127.689 29.4735 127.013 30.375C126.344 31.2765 125.419 31.9858 124.239 32.5028C123.059 33.0199 121.707 33.2784 120.182 33.2784ZM158.32 33.2784C156.835 33.2784 155.513 33.0232 154.353 32.5128C153.2 31.9957 152.288 31.2865 151.619 30.3849C150.956 29.4768 150.614 28.4295 150.594 27.2429H154.93C154.956 27.7401 155.119 28.1776 155.417 28.5554C155.722 28.9266 156.126 29.215 156.63 29.4205C157.134 29.6259 157.7 29.7287 158.33 29.7287C158.986 29.7287 159.566 29.6127 160.07 29.3807C160.574 29.1487 160.968 28.8272 161.254 28.4162C161.539 28.0052 161.681 27.5312 161.681 26.9943C161.681 26.4508 161.529 25.9702 161.224 25.5526C160.925 25.1283 160.495 24.7969 159.931 24.5582C159.374 24.3196 158.711 24.2003 157.942 24.2003H156.043V21.0384H157.942C158.592 21.0384 159.165 20.9257 159.663 20.7003C160.166 20.4749 160.558 20.1634 160.836 19.7656C161.114 19.3613 161.254 18.8906 161.254 18.3537C161.254 17.8433 161.131 17.3958 160.886 17.0114C160.647 16.6203 160.309 16.3153 159.871 16.0966C159.441 15.8778 158.937 15.7685 158.36 15.7685C157.777 15.7685 157.243 15.8745 156.759 16.0866C156.275 16.2921 155.888 16.5871 155.596 16.9716C155.304 17.3561 155.148 17.8068 155.129 18.3239H151.002C151.022 17.1506 151.357 16.1165 152.006 15.2216C152.656 14.3267 153.531 13.6274 154.631 13.1236C155.738 12.6132 156.988 12.358 158.38 12.358C159.785 12.358 161.015 12.6132 162.069 13.1236C163.123 13.634 163.942 14.3234 164.525 15.1918C165.115 16.0535 165.406 17.0213 165.4 18.0952C165.406 19.2353 165.052 20.1866 164.336 20.9489C163.627 21.7112 162.702 22.1951 161.562 22.4006V22.5597C163.06 22.7519 164.2 23.2723 164.982 24.1207C165.771 24.9626 166.162 26.0166 166.156 27.2827C166.162 28.4427 165.827 29.4735 165.151 30.375C164.482 31.2765 163.557 31.9858 162.377 32.5028C161.197 33.0199 159.845 33.2784 158.32 33.2784ZM179.306 33.2784C178.258 33.2718 177.247 33.0961 176.273 32.7514C175.305 32.4067 174.437 31.8466 173.668 31.071C172.899 30.2955 172.289 29.268 171.838 27.9886C171.394 26.7093 171.172 25.1383 171.172 23.2756C171.179 21.5653 171.374 20.0374 171.759 18.6918C172.15 17.3395 172.707 16.1927 173.429 15.2514C174.158 14.3101 175.03 13.5942 176.044 13.1037C177.059 12.6065 178.195 12.358 179.455 12.358C180.814 12.358 182.014 12.6231 183.054 13.1534C184.095 13.6771 184.93 14.3897 185.56 15.2912C186.196 16.1927 186.581 17.2036 186.713 18.3239H182.468C182.302 17.6146 181.954 17.0578 181.424 16.6534C180.893 16.2491 180.237 16.0469 179.455 16.0469C178.129 16.0469 177.121 16.6236 176.432 17.777C175.749 18.9304 175.401 20.4981 175.388 22.4801H175.527C175.832 21.8769 176.243 21.3632 176.76 20.9389C177.284 20.508 177.877 20.1799 178.54 19.9545C179.21 19.7225 179.916 19.6065 180.658 19.6065C181.864 19.6065 182.938 19.8916 183.88 20.4616C184.821 21.0251 185.563 21.8007 186.107 22.7884C186.65 23.776 186.922 24.9062 186.922 26.179C186.922 27.5578 186.601 28.7841 185.958 29.858C185.321 30.9318 184.43 31.7737 183.283 32.3835C182.143 32.9867 180.817 33.285 179.306 33.2784ZM179.286 29.8977C179.949 29.8977 180.542 29.7386 181.066 29.4205C181.589 29.1023 182 28.6714 182.299 28.1278C182.597 27.5843 182.746 26.9744 182.746 26.2983C182.746 25.6222 182.597 25.0156 182.299 24.4787C182.007 23.9418 181.603 23.5142 181.086 23.196C180.568 22.8778 179.978 22.7188 179.316 22.7188C178.818 22.7188 178.358 22.8116 177.934 22.9972C177.516 23.1828 177.148 23.4413 176.83 23.7727C176.518 24.1042 176.273 24.4886 176.094 24.9261C175.915 25.357 175.826 25.8177 175.826 26.3082C175.826 26.9645 175.975 27.5644 176.273 28.108C176.578 28.6515 176.989 29.0857 177.506 29.4105C178.03 29.7353 178.623 29.8977 179.286 29.8977ZM199.056 10.2401V35.4062H191.21V32.2344H194.959V13.402H191.21V10.2401H199.056ZM17.936 80.4062V55.2401H25.7812V58.402H22.0326V77.2344H25.7812V80.4062H17.936ZM37.8476 78.2784C36.3627 78.2784 35.0403 78.0232 33.8802 77.5128C32.7268 76.9957 31.8154 76.2865 31.1459 75.3849C30.483 74.4768 30.1416 73.4295 30.1217 72.2429H34.4569C34.4834 72.7401 34.6459 73.1776 34.9442 73.5554C35.2491 73.9266 35.6534 74.215 36.1572 74.4205C36.661 74.6259 37.2278 74.7287 37.8575 74.7287C38.5138 74.7287 39.0938 74.6127 39.5976 74.3807C40.1013 74.1487 40.4958 73.8272 40.7808 73.4162C41.0658 73.0052 41.2084 72.5312 41.2084 71.9943C41.2084 71.4508 41.0559 70.9702 40.751 70.5526C40.4527 70.1283 40.0218 69.7969 39.4584 69.5582C38.9015 69.3196 38.2387 69.2003 37.4697 69.2003H35.5706V66.0384H37.4697C38.1193 66.0384 38.6927 65.9257 39.1899 65.7003C39.6937 65.4749 40.0848 65.1634 40.3632 64.7656C40.6416 64.3613 40.7808 63.8906 40.7808 63.3537C40.7808 62.8433 40.6582 62.3958 40.4129 62.0114C40.1743 61.6203 39.8362 61.3153 39.3987 61.0966C38.9678 60.8778 38.464 60.7685 37.8873 60.7685C37.304 60.7685 36.7704 60.8745 36.2865 61.0866C35.8026 61.2921 35.4148 61.5871 35.1231 61.9716C34.8315 62.3561 34.6757 62.8068 34.6558 63.3239H30.5294C30.5493 62.1506 30.884 61.1165 31.5336 60.2216C32.1833 59.3267 33.0583 58.6274 34.1586 58.1236C35.2656 57.6132 36.5152 57.358 37.9072 57.358C39.3125 57.358 40.5422 57.6132 41.5961 58.1236C42.6501 58.634 43.4688 59.3234 44.0521 60.1918C44.6421 61.0535 44.9337 62.0213 44.9271 63.0952C44.9337 64.2353 44.5791 65.1866 43.8632 65.9489C43.1539 66.7112 42.2292 67.1951 41.089 67.4006V67.5597C42.5871 67.7519 43.7273 68.2723 44.5095 69.1207C45.2983 69.9626 45.6894 71.0166 45.6828 72.2827C45.6894 73.4427 45.3547 74.4735 44.6785 75.375C44.009 76.2765 43.0843 76.9858 41.9044 77.5028C40.7245 78.0199 39.3722 78.2784 37.8476 78.2784ZM58.3855 57.358C59.4328 57.358 60.4404 57.5336 61.4082 57.8849C62.3827 58.2363 63.251 58.7964 64.0133 59.5653C64.7823 60.3343 65.3888 61.3551 65.8329 62.6278C66.2837 63.8939 66.5124 65.4484 66.519 67.2912C66.519 69.0213 66.3235 70.5658 65.9324 71.9247C65.5479 73.277 64.9944 74.4271 64.2719 75.375C63.5493 76.3229 62.6776 77.0455 61.6568 77.5426C60.636 78.0331 59.4958 78.2784 58.2364 78.2784C56.8775 78.2784 55.6776 78.0166 54.6369 77.4929C53.5962 76.9626 52.7577 76.2434 52.1213 75.3352C51.4916 74.4205 51.1104 73.393 50.9778 72.2528H55.2236C55.3893 72.9953 55.7373 73.572 56.2676 73.983C56.7979 74.3873 57.4542 74.5895 58.2364 74.5895C59.5621 74.5895 60.5697 74.0128 61.2591 72.8594C61.9485 71.6993 62.2965 70.1117 62.3031 68.0966H62.1639C61.859 68.6932 61.448 69.2069 60.931 69.6378C60.4139 70.062 59.8206 70.3902 59.1511 70.6222C58.4882 70.8542 57.7823 70.9702 57.0332 70.9702C55.8334 70.9702 54.7629 70.6884 53.8216 70.125C52.8803 69.5616 52.1379 68.786 51.5943 67.7983C51.0507 66.8106 50.779 65.6837 50.779 64.4176C50.7723 63.0521 51.0872 61.8357 51.7236 60.7685C52.3599 59.7012 53.2482 58.866 54.3883 58.2628C55.5351 57.6529 56.8675 57.3513 58.3855 57.358ZM58.4153 60.7386C57.7458 60.7386 57.1492 60.8977 56.6256 61.2159C56.1085 61.5341 55.6975 61.9616 55.3926 62.4986C55.0943 63.0355 54.9485 63.6354 54.9551 64.2983C54.9551 64.9678 55.1009 65.571 55.3926 66.108C55.6909 66.6383 56.0953 67.0625 56.6057 67.3807C57.1227 67.6922 57.7127 67.848 58.3756 67.848C58.8727 67.848 59.3334 67.7552 59.7577 67.5696C60.1819 67.384 60.5498 67.1288 60.8614 66.804C61.1795 66.4725 61.4281 66.0914 61.6071 65.6605C61.7861 65.2296 61.8756 64.7723 61.8756 64.2884C61.8689 63.6454 61.7165 63.0554 61.4182 62.5185C61.1199 61.9815 60.7089 61.5507 60.1852 61.2259C59.6615 60.901 59.0716 60.7386 58.4153 60.7386ZM88.8747 74.4205V71.0298L97.3761 57.6364H100.299V62.3295H98.5693L93.2099 70.8111V70.9702H105.291V74.4205H88.8747ZM98.6488 78V73.3864L98.7284 71.8849V57.6364H102.765V78H98.6488ZM110.399 78V74.8977L117.648 68.1861C118.265 67.5895 118.782 67.0526 119.199 66.5753C119.623 66.098 119.945 65.6307 120.164 65.1733C120.382 64.7093 120.492 64.2088 120.492 63.6719C120.492 63.0753 120.356 62.5616 120.084 62.1307C119.812 61.6932 119.441 61.3584 118.971 61.1264C118.5 60.8878 117.966 60.7685 117.37 60.7685C116.747 60.7685 116.203 60.8944 115.739 61.1463C115.275 61.3982 114.917 61.7595 114.665 62.2301C114.413 62.7008 114.287 63.2609 114.287 63.9105H110.201C110.201 62.5781 110.502 61.4214 111.105 60.4403C111.709 59.4593 112.554 58.7003 113.641 58.1634C114.728 57.6264 115.981 57.358 117.399 57.358C118.858 57.358 120.127 57.6165 121.208 58.1335C122.295 58.6439 123.14 59.3532 123.743 60.2614C124.346 61.1695 124.648 62.2102 124.648 63.3835C124.648 64.1525 124.496 64.9115 124.191 65.6605C123.892 66.4096 123.359 67.2415 122.59 68.1562C121.821 69.0644 120.737 70.1548 119.338 71.4276L116.365 74.3409V74.4801H124.917V78H110.399ZM147.409 74.4205V71.0298L155.91 57.6364H158.834V62.3295H157.103L151.744 70.8111V70.9702H163.825V74.4205H147.409ZM157.183 78V73.3864L157.263 71.8849V57.6364H161.3V78H157.183ZM176.371 78.2784C174.966 78.2784 173.713 78.0199 172.613 77.5028C171.519 76.9858 170.651 76.2732 170.008 75.3651C169.365 74.4569 169.03 73.4162 169.003 72.2429H173.179C173.226 73.0317 173.557 73.6714 174.174 74.1619C174.79 74.6525 175.523 74.8977 176.371 74.8977C177.047 74.8977 177.644 74.7486 178.161 74.4503C178.685 74.1454 179.092 73.7244 179.384 73.1875C179.682 72.6439 179.831 72.0208 179.831 71.3182C179.831 70.6023 179.679 69.9725 179.374 69.429C179.076 68.8854 178.661 68.4612 178.131 68.1562C177.601 67.8513 176.994 67.6955 176.312 67.6889C175.715 67.6889 175.135 67.8116 174.571 68.0568C174.015 68.3021 173.58 68.6368 173.269 69.0611L169.441 68.375L170.405 57.6364H182.854V61.1562H173.955L173.428 66.2571H173.547C173.905 65.7533 174.446 65.3357 175.168 65.0043C175.891 64.6728 176.699 64.5071 177.594 64.5071C178.821 64.5071 179.914 64.7955 180.875 65.3722C181.837 65.9489 182.596 66.741 183.152 67.7486C183.709 68.7495 183.984 69.9029 183.978 71.2088C183.984 72.581 183.666 73.8007 183.023 74.8679C182.387 75.9285 181.495 76.7637 180.348 77.3736C179.208 77.9768 177.883 78.2784 176.371 78.2784ZM196.061 55.2401V80.4062H188.216V77.2344H191.965V58.402H188.216V55.2401H196.061ZM17.6079 125.406V100.24H25.4531V103.402H21.7045V122.234H25.4531V125.406H17.6079ZM29.6842 119.42V116.03L38.1856 102.636H41.1089V107.33H39.3788L34.0194 115.811V115.97H46.1004V119.42H29.6842ZM39.4584 123V118.386L39.5379 116.885V102.636H43.5748V123H39.4584ZM58.8056 123.278C57.2744 123.278 55.9121 123.03 54.719 122.533C53.5324 122.029 52.6011 121.343 51.9249 120.474C51.2488 119.606 50.9107 118.622 50.9107 117.521C50.9107 116.673 51.1029 115.894 51.4874 115.185C51.8785 114.469 52.4088 113.875 53.0783 113.405C53.7478 112.928 54.4969 112.623 55.3255 112.49V112.351C54.2384 112.132 53.3567 111.605 52.6806 110.77C52.0045 109.928 51.6664 108.95 51.6664 107.837C51.6664 106.783 51.9746 105.845 52.5911 105.023C53.2076 104.194 54.0528 103.545 55.1266 103.074C56.2071 102.597 57.4334 102.358 58.8056 102.358C60.1778 102.358 61.4008 102.597 62.4746 103.074C63.5551 103.551 64.4036 104.204 65.0201 105.033C65.6366 105.855 65.9481 106.789 65.9547 107.837C65.9481 108.957 65.6034 109.935 64.9207 110.77C64.2379 111.605 63.3629 112.132 62.2957 112.351V112.49C63.111 112.623 63.8501 112.928 64.513 113.405C65.1825 113.875 65.7128 114.469 66.1039 115.185C66.5016 115.894 66.7038 116.673 66.7104 117.521C66.7038 118.622 66.3624 119.606 65.6863 120.474C65.0101 121.343 64.0755 122.029 62.8823 122.533C61.6958 123.03 60.3369 123.278 58.8056 123.278ZM58.8056 120.116C59.4884 120.116 60.085 119.994 60.5954 119.749C61.1058 119.497 61.5035 119.152 61.7886 118.714C62.0802 118.27 62.2261 117.76 62.2261 117.183C62.2261 116.593 62.0769 116.073 61.7786 115.622C61.4803 115.165 61.076 114.807 60.5655 114.548C60.0551 114.283 59.4685 114.151 58.8056 114.151C58.1494 114.151 57.5627 114.283 57.0457 114.548C56.5286 114.807 56.1209 115.165 55.8226 115.622C55.531 116.073 55.3851 116.593 55.3851 117.183C55.3851 117.76 55.5277 118.27 55.8127 118.714C56.0977 119.152 56.4988 119.497 57.0158 119.749C57.5329 119.994 58.1295 120.116 58.8056 120.116ZM58.8056 111.018C59.3757 111.018 59.8828 110.902 60.3269 110.67C60.771 110.438 61.119 110.117 61.3709 109.706C61.6228 109.295 61.7488 108.821 61.7488 108.284C61.7488 107.754 61.6228 107.29 61.3709 106.892C61.119 106.488 60.7744 106.173 60.3369 105.947C59.8994 105.715 59.3889 105.599 58.8056 105.599C58.2289 105.599 57.7185 105.715 57.2744 105.947C56.8302 106.173 56.4822 106.488 56.2303 106.892C55.9851 107.29 55.8624 107.754 55.8624 108.284C55.8624 108.821 55.9884 109.295 56.2403 109.706C56.4922 110.117 56.8402 110.438 57.2843 110.67C57.7284 110.902 58.2355 111.018 58.8056 111.018ZM96.8392 123.278C95.4339 123.278 94.181 123.02 93.0806 122.503C91.9869 121.986 91.1185 121.273 90.4755 120.365C89.8325 119.457 89.4978 118.416 89.4713 117.243H93.6474C93.6938 118.032 94.0252 118.671 94.6417 119.162C95.2582 119.652 95.9907 119.898 96.8392 119.898C97.5153 119.898 98.1119 119.749 98.6289 119.45C99.1526 119.145 99.5603 118.724 99.852 118.188C100.15 117.644 100.299 117.021 100.299 116.318C100.299 115.602 100.147 114.973 99.842 114.429C99.5437 113.885 99.1294 113.461 98.5991 113.156C98.0688 112.851 97.4623 112.696 96.7795 112.689C96.1829 112.689 95.6029 112.812 95.0395 113.057C94.4826 113.302 94.0484 113.637 93.7369 114.061L89.9088 113.375L90.8733 102.636H103.322V106.156H94.423L93.896 111.257H94.0153C94.3733 110.753 94.9135 110.336 95.636 110.004C96.3586 109.673 97.1673 109.507 98.0622 109.507C99.2885 109.507 100.382 109.795 101.343 110.372C102.305 110.949 103.064 111.741 103.62 112.749C104.177 113.75 104.452 114.903 104.446 116.209C104.452 117.581 104.134 118.801 103.491 119.868C102.855 120.929 101.963 121.764 100.816 122.374C99.6763 122.977 98.3505 123.278 96.8392 123.278ZM118.548 102.636V123H114.243V106.723H114.123L109.46 109.646V105.828L114.501 102.636H118.548ZM150.506 123.278C149.101 123.278 147.848 123.02 146.748 122.503C145.654 121.986 144.786 121.273 144.143 120.365C143.5 119.457 143.165 118.416 143.138 117.243H147.314C147.361 118.032 147.692 118.671 148.309 119.162C148.925 119.652 149.658 119.898 150.506 119.898C151.182 119.898 151.779 119.749 152.296 119.45C152.82 119.145 153.227 118.724 153.519 118.188C153.817 117.644 153.966 117.021 153.966 116.318C153.966 115.602 153.814 114.973 153.509 114.429C153.211 113.885 152.796 113.461 152.266 113.156C151.736 112.851 151.129 112.696 150.447 112.689C149.85 112.689 149.27 112.812 148.706 113.057C148.15 113.302 147.715 113.637 147.404 114.061L143.576 113.375L144.54 102.636H156.989V106.156H148.09L147.563 111.257H147.682C148.04 110.753 148.581 110.336 149.303 110.004C150.026 109.673 150.834 109.507 151.729 109.507C152.956 109.507 154.049 109.795 155.01 110.372C155.972 110.949 156.731 111.741 157.287 112.749C157.844 113.75 158.119 114.903 158.113 116.209C158.119 117.581 157.801 118.801 157.158 119.868C156.522 120.929 155.63 121.764 154.483 122.374C153.343 122.977 152.018 123.278 150.506 123.278ZM163.047 119.42V116.03L171.549 102.636H174.472V107.33H172.742L167.383 115.811V115.97H179.464V119.42H163.047ZM172.821 123V118.386L172.901 116.885V102.636H176.938V123H172.821ZM191.413 100.24V125.406H183.568V122.234H187.316V103.402H183.568V100.24H191.413ZM205.11 100.24V125.406H197.265V122.234H201.013V103.402H197.265V100.24H205.11Z" fill="black"/>
<path d="M95.0522 199.57C95.9873 199.57 96.887 199.726 97.7511 200.04C98.6211 200.354 99.3964 200.854 100.077 201.54C100.764 202.227 101.305 203.138 101.702 204.275C102.104 205.405 102.308 206.793 102.314 208.439C102.314 209.983 102.14 211.362 101.79 212.576C101.447 213.783 100.953 214.81 100.308 215.656C99.6628 216.503 98.8845 217.148 97.973 217.592C97.0616 218.03 96.0436 218.249 94.919 218.249C93.7057 218.249 92.6345 218.015 91.7053 217.547C90.776 217.074 90.0273 216.432 89.4592 215.621C88.8969 214.804 88.5566 213.887 88.4382 212.869H92.229C92.377 213.531 92.6877 214.046 93.1612 214.413C93.6347 214.774 94.2206 214.955 94.919 214.955C96.1027 214.955 97.0024 214.44 97.6179 213.41C98.2334 212.374 98.5442 210.957 98.5501 209.158H98.4258C98.1535 209.69 97.7866 210.149 97.3249 210.534C96.8633 210.913 96.3336 211.205 95.7358 211.413C95.1439 211.62 94.5136 211.723 93.8448 211.723C92.7736 211.723 91.8177 211.472 90.9773 210.969C90.1368 210.466 89.474 209.773 88.9886 208.891C88.5033 208.009 88.2607 207.003 88.2607 205.873C88.2547 204.654 88.5359 203.568 89.104 202.615C89.6722 201.662 90.4653 200.916 91.4833 200.377C92.5072 199.833 93.6969 199.564 95.0522 199.57ZM95.0788 202.588C94.4811 202.588 93.9484 202.73 93.4808 203.014C93.0192 203.298 92.6522 203.68 92.38 204.159C92.1136 204.639 91.9834 205.174 91.9893 205.766C91.9893 206.364 92.1196 206.903 92.38 207.382C92.6463 207.856 93.0073 208.234 93.4631 208.518C93.9247 208.797 94.4515 208.936 95.0433 208.936C95.4872 208.936 95.8986 208.853 96.2773 208.687C96.6561 208.521 96.9846 208.294 97.2628 208.004C97.5469 207.708 97.7688 207.367 97.9286 206.983C98.0884 206.598 98.1683 206.19 98.1683 205.757C98.1624 205.183 98.0263 204.657 97.7599 204.177C97.4936 203.698 97.1267 203.313 96.6591 203.023C96.1915 202.733 95.6648 202.588 95.0788 202.588ZM118.697 215.23V202.659H121.875V215.23H118.697ZM114.001 210.534V207.355H126.572V210.534H114.001ZM146.452 199.818V218H142.608V203.467H142.502L138.338 206.077V202.668L142.839 199.818H146.452ZM158.806 218.249C157.439 218.249 156.223 218.027 155.157 217.583C154.098 217.133 153.266 216.52 152.663 215.745C152.059 214.97 151.757 214.091 151.757 213.108C151.757 212.351 151.929 211.655 152.272 211.022C152.621 210.383 153.095 209.853 153.693 209.433C154.29 209.007 154.959 208.734 155.699 208.616V208.492C154.728 208.297 153.941 207.826 153.337 207.08C152.734 206.329 152.432 205.456 152.432 204.461C152.432 203.52 152.707 202.683 153.258 201.949C153.808 201.209 154.563 200.629 155.521 200.209C156.486 199.783 157.581 199.57 158.806 199.57C160.031 199.57 161.123 199.783 162.082 200.209C163.047 200.635 163.804 201.218 164.355 201.958C164.905 202.692 165.183 203.526 165.189 204.461C165.183 205.462 164.876 206.335 164.266 207.08C163.656 207.826 162.875 208.297 161.922 208.492V208.616C162.65 208.734 163.31 209.007 163.902 209.433C164.5 209.853 164.973 210.383 165.323 211.022C165.678 211.655 165.858 212.351 165.864 213.108C165.858 214.091 165.553 214.97 164.95 215.745C164.346 216.52 163.511 217.133 162.446 217.583C161.387 218.027 160.173 218.249 158.806 218.249ZM158.806 215.425C159.416 215.425 159.948 215.316 160.404 215.097C160.86 214.872 161.215 214.564 161.47 214.174C161.73 213.777 161.86 213.321 161.86 212.806C161.86 212.28 161.727 211.815 161.461 211.413C161.194 211.004 160.833 210.685 160.378 210.454C159.922 210.217 159.398 210.099 158.806 210.099C158.22 210.099 157.696 210.217 157.235 210.454C156.773 210.685 156.409 211.004 156.143 211.413C155.882 211.815 155.752 212.28 155.752 212.806C155.752 213.321 155.879 213.777 156.134 214.174C156.388 214.564 156.747 214.872 157.208 215.097C157.67 215.316 158.203 215.425 158.806 215.425ZM158.806 207.302C159.315 207.302 159.768 207.199 160.165 206.991C160.561 206.784 160.872 206.497 161.097 206.13C161.322 205.763 161.434 205.34 161.434 204.861C161.434 204.387 161.322 203.973 161.097 203.618C160.872 203.257 160.564 202.976 160.173 202.775C159.783 202.567 159.327 202.464 158.806 202.464C158.291 202.464 157.836 202.567 157.439 202.775C157.042 202.976 156.732 203.257 156.507 203.618C156.288 203.973 156.178 204.387 156.178 204.861C156.178 205.34 156.291 205.763 156.516 206.13C156.741 206.497 157.051 206.784 157.448 206.991C157.844 207.199 158.297 207.302 158.806 207.302ZM182.271 215.23V202.659H185.449V215.23H182.271ZM177.575 210.534V207.355H190.146V210.534H177.575ZM202.116 218V215.23L208.588 209.238C209.139 208.705 209.6 208.225 209.973 207.799C210.352 207.373 210.639 206.956 210.834 206.548C211.03 206.133 211.127 205.686 211.127 205.207C211.127 204.674 211.006 204.216 210.763 203.831C210.521 203.44 210.189 203.141 209.769 202.934C209.349 202.721 208.872 202.615 208.34 202.615C207.783 202.615 207.298 202.727 206.884 202.952C206.469 203.177 206.15 203.5 205.925 203.92C205.7 204.34 205.588 204.84 205.588 205.42H201.939C201.939 204.23 202.208 203.198 202.747 202.322C203.285 201.446 204.04 200.768 205.01 200.289C205.981 199.809 207.1 199.57 208.366 199.57C209.668 199.57 210.802 199.8 211.767 200.262C212.737 200.718 213.492 201.351 214.03 202.162C214.569 202.973 214.838 203.902 214.838 204.95C214.838 205.636 214.702 206.314 214.43 206.983C214.164 207.651 213.687 208.394 213.001 209.211C212.314 210.022 211.346 210.995 210.097 212.132L207.443 214.733V214.857H215.078V218H202.116ZM219.832 218L227.37 203.085V202.961H218.59V199.818H231.347V203.005L223.801 218H219.832Z" fill="#2A53BA"/>
<circle cx="160" cy="113" r="24.5" stroke="#EC1717" stroke-width="3"/>
<path d="M158.939 173.061C159.525 173.646 160.475 173.646 161.061 173.061L170.607 163.515C171.192 162.929 171.192 161.979 170.607 161.393C170.021 160.808 169.071 160.808 168.485 161.393L160 169.879L151.515 161.393C150.929 160.808 149.979 160.808 149.393 161.393C148.808 161.979 148.808 162.929 149.393 163.515L158.939 173.061ZM158.5 138V172H161.5V138H158.5Z" fill="#EC1717"/>
</svg>
