<svg width="431" height="193" viewBox="0 0 431 193" fill="none" xmlns="http://www.w3.org/2000/svg">
<g clip-path="url(#clip0_1208_894)">
<rect width="431" height="193" rx="4" fill="white"/>
<g clip-path="url(#clip1_1208_894)">
<rect width="431" height="41" fill="white" fill-opacity="0.01"/>
<mask id="path-3-inside-1_1208_894" fill="white">
<path d="M0 0H78V41H0V0Z"/>
</mask>
<path d="M0 0H78V41H0V0Z" fill="black" fill-opacity="0.06"/>
<path d="M0 0V-1H-1V0H0ZM0 1H78V-1H0V1ZM1 41V0H-1V41H1Z" fill="#B9B9B9" mask="url(#path-3-inside-1_1208_894)"/>
<rect width="78" height="41" fill="black" fill-opacity="0.13"/>
<path d="M25.5453 13.456H27.6573V15.408H30.4733V13.456H32.5533V20.56H25.5453V13.456ZM27.6573 17.056V18.88H30.4733V17.056H27.6573ZM32.0733 16.096H35.6733V17.824H32.0733V16.096ZM35.1933 12.608H37.3213V21.184H35.1933V12.608ZM27.4493 21.792H37.3213V27.264H27.4493V21.792ZM35.2413 23.456H29.5453V25.584H35.2413V23.456ZM45.128 14.256H46.968V14.688C46.968 17.296 44.84 19.424 41.08 19.936L40.296 18.272C43.56 17.872 45.128 16.208 45.128 14.688V14.256ZM45.736 14.256H47.576V14.688C47.576 16.208 49.144 17.872 52.408 18.272L51.64 19.936C47.864 19.424 45.736 17.296 45.736 14.688V14.256ZM45.24 22H47.352V27.44H45.24V22ZM39.656 20.784H53.048V22.48H39.656V20.784ZM40.84 13.36H51.832V15.04H40.84V13.36Z" fill="black"/>
<mask id="path-6-inside-2_1208_894" fill="white">
<path d="M78 0H259V41H78V0Z"/>
</mask>
<path d="M78 0H259V41H78V0Z" fill="black" fill-opacity="0.06"/>
<path d="M78 0V-1H77V0H78ZM78 1H259V-1H78V1ZM79 41V0H77V41H79Z" fill="#B9B9B9" mask="url(#path-6-inside-2_1208_894)"/>
<rect width="120" height="41" transform="translate(78)" fill="black" fill-opacity="0.13"/>
<path d="M119.782 12.608H121.814V27.424H119.782V12.608ZM114.15 18.016H117.59V19.728H114.15V18.016ZM116.726 12.864H118.71V26.768H116.726V12.864ZM109.51 22.384H110.534C112.63 22.384 114.022 22.336 115.654 22.016L115.814 23.744C114.166 24.08 112.694 24.144 110.534 24.144H109.51V22.384ZM109.51 14.272H115.158V15.968H111.606V23.12H109.51V14.272ZM133.956 12.592H136.1V27.456H133.956V12.592ZM128.116 13.632C130.356 13.632 132.004 15.68 132.004 18.912C132.004 22.176 130.356 24.224 128.116 24.224C125.876 24.224 124.228 22.176 124.228 18.912C124.228 15.68 125.876 13.632 128.116 13.632ZM128.116 15.568C127.012 15.568 126.26 16.736 126.26 18.912C126.26 21.12 127.012 22.304 128.116 22.304C129.22 22.304 129.956 21.12 129.956 18.912C129.956 16.736 129.22 15.568 128.116 15.568ZM148.835 12.592H150.947V27.456H148.835V12.592ZM146.291 17.808H149.075V19.536H146.291V17.808ZM139.187 22.384H140.371C142.819 22.384 144.643 22.352 146.739 22.016L146.931 23.712C144.787 24.048 142.867 24.112 140.371 24.112H139.187V22.384ZM139.187 13.84H146.051V15.568H141.299V22.928H139.187V13.84ZM140.819 17.968H145.539V19.632H140.819V17.968ZM160.227 21.968H162.403V27.424H160.227V21.968ZM165.347 21.968H167.523V27.424H165.347V21.968ZM157.203 20.848H170.627V22.56H157.203V20.848ZM163.875 13.104C167.043 13.104 169.235 14.4 169.235 16.432C169.235 18.432 167.043 19.728 163.875 19.728C160.723 19.728 158.531 18.432 158.531 16.432C158.531 14.4 160.723 13.104 163.875 13.104ZM163.875 14.8C161.939 14.8 160.707 15.376 160.707 16.432C160.707 17.472 161.939 18.048 163.875 18.048C165.827 18.048 167.043 17.472 167.043 16.432C167.043 15.376 165.827 14.8 163.875 14.8ZM180.289 15.856H183.009V17.552H180.289V15.856ZM180.257 18.816H182.961V20.512H180.257V18.816ZM171.969 13.936H180.097V15.616H171.969V13.936ZM176.129 16.128C178.161 16.128 179.601 17.248 179.601 18.896C179.601 20.544 178.161 21.664 176.129 21.664C174.097 21.664 172.657 20.544 172.657 18.896C172.657 17.248 174.097 16.128 176.129 16.128ZM176.129 17.712C175.233 17.712 174.641 18.112 174.641 18.896C174.641 19.68 175.233 20.08 176.129 20.08C177.009 20.08 177.633 19.68 177.633 18.896C177.633 18.112 177.009 17.712 176.129 17.712ZM175.073 12.48H177.201V15.104H175.073V12.48ZM182.193 12.608H184.321V22.048H182.193V12.608ZM179.313 22.224C182.433 22.224 184.385 23.2 184.385 24.832C184.385 26.464 182.433 27.424 179.313 27.424C176.177 27.424 174.241 26.464 174.241 24.832C174.241 23.2 176.177 22.224 179.313 22.224ZM179.313 23.856C177.489 23.856 176.481 24.144 176.481 24.832C176.481 25.504 177.489 25.824 179.313 25.824C181.137 25.824 182.129 25.504 182.129 24.832C182.129 24.144 181.137 23.856 179.313 23.856Z" fill="black"/>
<mask id="path-9-inside-3_1208_894" fill="white">
<path d="M259 0H431V41H259V0Z"/>
</mask>
<path d="M259 0H431V41H259V0Z" fill="black" fill-opacity="0.2"/>
<path d="M259 0V-1H258V0H259ZM259 1H431V-1H259V1ZM260 41V0H258V41H260Z" fill="#B9B9B9" mask="url(#path-9-inside-3_1208_894)"/>
<path d="M338.489 14.768H342.137V16.464H338.489V14.768ZM341.193 12.608H343.321V20.128H341.193V12.608ZM333.529 20.752H343.321V24.736H335.657V26.592H333.561V23.2H341.209V22.384H333.529V20.752ZM333.561 25.616H343.737V27.264H333.561V25.616ZM334.313 13.088H336.041V14.144C336.041 16.944 334.729 19.36 331.897 20.256L330.809 18.576C333.273 17.84 334.313 16.032 334.313 14.144V13.088ZM334.729 13.088H336.457V14.144C336.457 15.904 337.449 17.616 339.785 18.32L338.697 19.968C335.993 19.088 334.729 16.8 334.729 14.144V13.088ZM352.808 14.752H356.584V16.432H352.808V14.752ZM352.808 17.712H356.648V19.408H352.808V17.712ZM355.912 12.608H358.04V21.28H355.912V12.608ZM346.248 13.68H353.256V20.48H346.248V13.68ZM351.16 15.36H348.344V18.816H351.16V15.36ZM353.016 21.664C356.152 21.664 358.088 22.736 358.088 24.544C358.088 26.368 356.152 27.424 353.016 27.424C349.88 27.424 347.944 26.368 347.944 24.544C347.944 22.736 349.88 21.664 353.016 21.664ZM353.016 23.296C351.096 23.296 350.072 23.696 350.072 24.544C350.072 25.392 351.096 25.808 353.016 25.808C354.952 25.808 355.976 25.392 355.976 24.544C355.976 23.696 354.952 23.296 353.016 23.296Z" fill="black"/>
</g>
<g clip-path="url(#clip2_1208_894)">
<rect width="431" height="38" transform="translate(0 41)" fill="white" fill-opacity="0.01"/>
<mask id="path-12-inside-4_1208_894" fill="white">
<path d="M0 41H78V79H0V41Z"/>
</mask>
<path d="M0 41H78V79H0V41Z" fill="black" fill-opacity="0.06"/>
<path d="M0 41V40H-1V41H0ZM0 42H78V40H0V42ZM1 79V41H-1V79H1Z" fill="#B9B9B9" mask="url(#path-12-inside-4_1208_894)"/>
<path d="M19.448 56.712H22.304V57.678H19.448V56.712ZM21.94 53.436H23.102V60.982H21.94V53.436ZM18.944 61.36C21.548 61.36 23.158 62.242 23.158 63.726C23.158 65.224 21.548 66.078 18.944 66.078C16.326 66.078 14.716 65.224 14.716 63.726C14.716 62.242 16.326 61.36 18.944 61.36ZM18.944 62.27C17.04 62.27 15.878 62.802 15.878 63.726C15.878 64.636 17.04 65.168 18.944 65.168C20.848 65.168 22.01 64.636 22.01 63.726C22.01 62.802 20.848 62.27 18.944 62.27ZM15.92 54.71H16.872V55.732C16.872 58.07 15.444 60.072 13.344 60.856L12.742 59.932C14.618 59.246 15.92 57.552 15.92 55.732V54.71ZM16.144 54.71H17.082V55.732C17.082 57.37 18.314 58.938 20.148 59.582L19.56 60.506C17.502 59.764 16.144 57.86 16.144 55.732V54.71ZM13.092 54.36H19.854V55.312H13.092V54.36ZM30.6889 53.884H31.7109V54.584C31.7109 57.006 29.2469 58.742 26.6149 59.19L26.1529 58.252C28.4629 57.902 30.6889 56.39 30.6889 54.584V53.884ZM30.8989 53.884H31.9069V54.584C31.9069 56.348 34.1609 57.902 36.4429 58.252L35.9809 59.19C33.3769 58.742 30.8989 56.978 30.8989 54.584V53.884ZM30.6889 61.276H31.8369V66.092H30.6889V61.276ZM25.5789 60.562H37.0169V61.528H25.5789V60.562ZM45.5698 56.474H48.1458V57.426H45.5698V56.474ZM45.5558 58.938H48.1318V59.89H45.5558V58.938ZM38.4718 54.822H45.5558V55.76H38.4718V54.822ZM42.0558 56.418C43.7498 56.418 44.9118 57.342 44.9118 58.756C44.9118 60.17 43.7498 61.108 42.0558 61.108C40.3618 61.108 39.1858 60.17 39.1858 58.756C39.1858 57.342 40.3618 56.418 42.0558 56.418ZM42.0558 57.314C40.9918 57.314 40.2778 57.874 40.2778 58.756C40.2778 59.638 40.9918 60.212 42.0558 60.212C43.1058 60.212 43.8338 59.638 43.8338 58.756C43.8338 57.874 43.1058 57.314 42.0558 57.314ZM41.4818 53.324H42.6438V55.48H41.4818V53.324ZM47.6978 53.436H48.8598V61.612H47.6978V53.436ZM44.7158 61.738C47.3338 61.738 48.9298 62.536 48.9298 63.908C48.9298 65.28 47.3338 66.064 44.7158 66.064C42.0838 66.064 40.5018 65.28 40.5018 63.908C40.5018 62.536 42.0838 61.738 44.7158 61.738ZM44.7158 62.662C42.8538 62.662 41.7058 63.096 41.7058 63.908C41.7058 64.706 42.8538 65.168 44.7158 65.168C46.5778 65.168 47.7258 64.706 47.7258 63.908C47.7258 63.096 46.5778 62.662 44.7158 62.662Z" fill="black"/>
<mask id="path-15-inside-5_1208_894" fill="white">
<path d="M78 41H259V79H78V41Z"/>
</mask>
<path d="M78 41H259V79H78V41Z" fill="white" fill-opacity="0.01"/>
<path d="M78 41V40H77V41H78ZM78 42H259V40H78V42ZM79 79V41H77V79H79Z" fill="#B9B9B9" mask="url(#path-15-inside-5_1208_894)"/>
<path d="M91.0739 65V57.3636H92.2472V65H91.0739ZM91.6705 56.0909C91.4418 56.0909 91.2446 56.013 91.0788 55.8572C90.9164 55.7015 90.8352 55.5142 90.8352 55.2955C90.8352 55.0767 90.9164 54.8894 91.0788 54.7337C91.2446 54.5779 91.4418 54.5 91.6705 54.5C91.8991 54.5 92.0947 54.5779 92.2571 54.7337C92.4228 54.8894 92.5057 55.0767 92.5057 55.2955C92.5057 55.5142 92.4228 55.7015 92.2571 55.8572C92.0947 56.013 91.8991 56.0909 91.6705 56.0909ZM95.5694 60.4062V65H94.3961V57.3636H95.5297V58.5568H95.6291C95.8081 58.169 96.0798 57.8575 96.4444 57.6222C96.809 57.3835 97.2797 57.2642 97.8564 57.2642C98.3734 57.2642 98.8258 57.3703 99.2136 57.5824C99.6014 57.7912 99.903 58.1094 100.118 58.5369C100.334 58.9612 100.442 59.4981 100.442 60.1477V65H99.2683V60.2273C99.2683 59.6274 99.1125 59.16 98.801 58.8253C98.4894 58.4872 98.0618 58.3182 97.5183 58.3182C97.1438 58.3182 96.809 58.3994 96.514 58.5618C96.2224 58.7242 95.992 58.9612 95.823 59.2727C95.6539 59.5843 95.5694 59.9621 95.5694 60.4062ZM105.907 57.3636V58.358H101.949V57.3636H105.907ZM103.103 55.5341H104.276V62.8125C104.276 63.1439 104.324 63.3925 104.42 63.5582C104.52 63.7206 104.645 63.83 104.798 63.8864C104.954 63.9394 105.118 63.9659 105.29 63.9659C105.419 63.9659 105.525 63.9593 105.608 63.946C105.691 63.9295 105.757 63.9162 105.807 63.9062L106.046 64.9602C105.966 64.9901 105.855 65.0199 105.713 65.0497C105.57 65.0829 105.39 65.0994 105.171 65.0994C104.839 65.0994 104.515 65.0282 104.196 64.8857C103.882 64.7431 103.62 64.526 103.411 64.2344C103.205 63.9427 103.103 63.5748 103.103 63.1307V55.5341ZM110.913 65.1392C110.23 65.1392 109.627 65.0182 109.103 64.7763C108.583 64.531 108.177 64.1946 107.885 63.767C107.594 63.3362 107.449 62.8456 107.453 62.2955C107.449 61.8646 107.534 61.4669 107.706 61.1023C107.879 60.7344 108.114 60.4278 108.412 60.1825C108.714 59.9339 109.05 59.7765 109.422 59.7102V59.6506C108.934 59.5246 108.547 59.2512 108.258 58.8303C107.97 58.406 107.827 57.9238 107.831 57.3835C107.827 56.8665 107.958 56.4041 108.223 55.9964C108.489 55.5888 108.853 55.2673 109.317 55.032C109.784 54.7966 110.316 54.679 110.913 54.679C111.503 54.679 112.03 54.7966 112.494 55.032C112.958 55.2673 113.323 55.5888 113.588 55.9964C113.856 56.4041 113.992 56.8665 113.995 57.3835C113.992 57.9238 113.845 58.406 113.553 58.8303C113.265 59.2512 112.882 59.5246 112.404 59.6506V59.7102C112.772 59.7765 113.104 59.9339 113.399 60.1825C113.694 60.4278 113.929 60.7344 114.105 61.1023C114.28 61.4669 114.37 61.8646 114.373 62.2955C114.37 62.8456 114.221 63.3362 113.926 63.767C113.634 64.1946 113.228 64.531 112.708 64.7763C112.191 65.0182 111.592 65.1392 110.913 65.1392ZM110.913 64.0455C111.374 64.0455 111.771 63.9709 112.106 63.8217C112.441 63.6726 112.699 63.4621 112.882 63.1903C113.064 62.9186 113.157 62.6004 113.16 62.2358C113.157 61.8513 113.057 61.5116 112.862 61.2166C112.666 60.9216 112.4 60.6896 112.061 60.5206C111.727 60.3516 111.344 60.267 110.913 60.267C110.479 60.267 110.091 60.3516 109.75 60.5206C109.412 60.6896 109.145 60.9216 108.949 61.2166C108.757 61.5116 108.663 61.8513 108.666 62.2358C108.663 62.6004 108.75 62.9186 108.929 63.1903C109.112 63.4621 109.372 63.6726 109.71 63.8217C110.048 63.9709 110.449 64.0455 110.913 64.0455ZM110.913 59.2131C111.278 59.2131 111.601 59.1402 111.882 58.9943C112.167 58.8485 112.391 58.6446 112.554 58.3828C112.716 58.121 112.799 57.8144 112.802 57.4631C112.799 57.1184 112.718 56.8184 112.559 56.5632C112.4 56.3047 112.179 56.1058 111.897 55.9666C111.616 55.8241 111.288 55.7528 110.913 55.7528C110.532 55.7528 110.199 55.8241 109.914 55.9666C109.629 56.1058 109.408 56.3047 109.252 56.5632C109.097 56.8184 109.02 57.1184 109.024 57.4631C109.02 57.8144 109.098 58.121 109.257 58.3828C109.42 58.6446 109.644 58.8485 109.929 58.9943C110.214 59.1402 110.542 59.2131 110.913 59.2131ZM117.734 63.608L117.654 64.1449C117.598 64.5227 117.512 64.9271 117.396 65.358C117.283 65.7888 117.166 66.1948 117.043 66.576C116.92 66.9571 116.819 67.2604 116.74 67.4858H115.845C115.888 67.2737 115.944 66.9936 116.014 66.6456C116.083 66.2976 116.153 65.9081 116.223 65.4773C116.296 65.0497 116.355 64.6122 116.402 64.1648L116.461 63.608H117.734ZM123.845 65V57.3636H125.019V65H123.845ZM124.442 56.0909C124.213 56.0909 124.016 56.013 123.85 55.8572C123.688 55.7015 123.607 55.5142 123.607 55.2955C123.607 55.0767 123.688 54.8894 123.85 54.7337C124.016 54.5779 124.213 54.5 124.442 54.5C124.671 54.5 124.866 54.5779 125.029 54.7337C125.194 54.8894 125.277 55.0767 125.277 55.2955C125.277 55.5142 125.194 55.7015 125.029 55.8572C124.866 56.013 124.671 56.0909 124.442 56.0909ZM128.341 60.4062V65H127.168V57.3636H128.301V58.5568H128.401C128.58 58.169 128.851 57.8575 129.216 57.6222C129.58 57.3835 130.051 57.2642 130.628 57.2642C131.145 57.2642 131.597 57.3703 131.985 57.5824C132.373 57.7912 132.674 58.1094 132.89 58.5369C133.105 58.9612 133.213 59.4981 133.213 60.1477V65H132.04V60.2273C132.04 59.6274 131.884 59.16 131.572 58.8253C131.261 58.4872 130.833 58.3182 130.29 58.3182C129.915 58.3182 129.58 58.3994 129.286 58.5618C128.994 58.7242 128.763 58.9612 128.594 59.2727C128.425 59.5843 128.341 59.9621 128.341 60.4062ZM138.678 57.3636V58.358H134.721V57.3636H138.678ZM135.874 55.5341H137.047V62.8125C137.047 63.1439 137.095 63.3925 137.192 63.5582C137.291 63.7206 137.417 63.83 137.569 63.8864C137.725 63.9394 137.889 63.9659 138.062 63.9659C138.191 63.9659 138.297 63.9593 138.38 63.946C138.463 63.9295 138.529 63.9162 138.579 63.9062L138.817 64.9602C138.738 64.9901 138.627 65.0199 138.484 65.0497C138.342 65.0829 138.161 65.0994 137.942 65.0994C137.611 65.0994 137.286 65.0282 136.968 64.8857C136.653 64.7431 136.391 64.526 136.182 64.2344C135.977 63.9427 135.874 63.5748 135.874 63.1307V55.5341ZM144.003 54.8182V65H142.77V56.1108H142.71L140.224 57.7614V56.5085L142.77 54.8182H144.003ZM150.312 65.1392C149.894 65.1326 149.476 65.053 149.059 64.9006C148.641 64.7481 148.26 64.4912 147.915 64.13C147.571 63.7654 147.294 63.2732 147.085 62.6534C146.876 62.0303 146.772 61.2481 146.772 60.3068C146.772 59.4053 146.856 58.6065 147.025 57.9105C147.194 57.2112 147.44 56.6229 147.761 56.1456C148.083 55.665 148.47 55.3004 148.925 55.0518C149.382 54.8033 149.897 54.679 150.471 54.679C151.041 54.679 151.548 54.7933 151.992 55.022C152.439 55.2474 152.804 55.5623 153.086 55.9666C153.367 56.371 153.55 56.8366 153.633 57.3636H152.42C152.307 56.9062 152.088 56.5268 151.763 56.2251C151.439 55.9235 151.008 55.7727 150.471 55.7727C149.682 55.7727 149.06 56.1158 148.606 56.8018C148.156 57.4879 147.929 58.4508 147.925 59.6903H148.005C148.19 59.4086 148.411 59.1683 148.666 58.9695C148.925 58.7673 149.21 58.6115 149.521 58.5021C149.833 58.3928 150.162 58.3381 150.51 58.3381C151.094 58.3381 151.627 58.4839 152.111 58.7756C152.595 59.0639 152.983 59.4633 153.275 59.9737C153.566 60.4808 153.712 61.0625 153.712 61.7188C153.712 62.3485 153.571 62.9252 153.29 63.4489C153.008 63.9692 152.612 64.3835 152.101 64.6918C151.594 64.9967 150.998 65.1458 150.312 65.1392ZM150.312 64.0455C150.729 64.0455 151.104 63.9411 151.435 63.7322C151.77 63.5234 152.033 63.2434 152.226 62.892C152.421 62.5407 152.519 62.1496 152.519 61.7188C152.519 61.2978 152.425 60.915 152.236 60.5703C152.05 60.2223 151.793 59.9455 151.465 59.7401C151.14 59.5346 150.769 59.4318 150.351 59.4318C150.037 59.4318 149.743 59.4948 149.471 59.6207C149.2 59.7434 148.961 59.9124 148.756 60.1278C148.553 60.3433 148.394 60.5902 148.278 60.8686C148.162 61.1437 148.104 61.4337 148.104 61.7386C148.104 62.143 148.199 62.5208 148.388 62.8722C148.58 63.2235 148.842 63.5069 149.173 63.7223C149.508 63.9377 149.887 64.0455 150.312 64.0455ZM156.959 63.608L156.879 64.1449C156.823 64.5227 156.737 64.9271 156.621 65.358C156.508 65.7888 156.39 66.1948 156.268 66.576C156.145 66.9571 156.044 67.2604 155.964 67.4858H155.069C155.113 67.2737 155.169 66.9936 155.238 66.6456C155.308 66.2976 155.378 65.9081 155.447 65.4773C155.52 65.0497 155.58 64.6122 155.626 64.1648L155.686 63.608H156.959ZM163.07 65V57.3636H164.243V65H163.07ZM163.667 56.0909C163.438 56.0909 163.241 56.013 163.075 55.8572C162.913 55.7015 162.831 55.5142 162.831 55.2955C162.831 55.0767 162.913 54.8894 163.075 54.7337C163.241 54.5779 163.438 54.5 163.667 54.5C163.895 54.5 164.091 54.5779 164.253 54.7337C164.419 54.8894 164.502 55.0767 164.502 55.2955C164.502 55.5142 164.419 55.7015 164.253 55.8572C164.091 56.013 163.895 56.0909 163.667 56.0909ZM167.566 60.4062V65H166.392V57.3636H167.526V58.5568H167.625C167.804 58.169 168.076 57.8575 168.441 57.6222C168.805 57.3835 169.276 57.2642 169.852 57.2642C170.369 57.2642 170.822 57.3703 171.21 57.5824C171.597 57.7912 171.899 58.1094 172.115 58.5369C172.33 58.9612 172.438 59.4981 172.438 60.1477V65H171.264V60.2273C171.264 59.6274 171.109 59.16 170.797 58.8253C170.485 58.4872 170.058 58.3182 169.514 58.3182C169.14 58.3182 168.805 58.3994 168.51 58.5618C168.218 58.7242 167.988 58.9612 167.819 59.2727C167.65 59.5843 167.566 59.9621 167.566 60.4062ZM177.903 57.3636V58.358H173.945V57.3636H177.903ZM175.099 55.5341H176.272V62.8125C176.272 63.1439 176.32 63.3925 176.416 63.5582C176.516 63.7206 176.642 63.83 176.794 63.8864C176.95 63.9394 177.114 63.9659 177.286 63.9659C177.415 63.9659 177.522 63.9593 177.604 63.946C177.687 63.9295 177.754 63.9162 177.803 63.9062L178.042 64.9602C177.962 64.9901 177.851 65.0199 177.709 65.0497C177.566 65.0829 177.386 65.0994 177.167 65.0994C176.835 65.0994 176.511 65.0282 176.192 64.8857C175.878 64.7431 175.616 64.526 175.407 64.2344C175.201 63.9427 175.099 63.5748 175.099 63.1307V55.5341ZM183.088 65.1392C182.432 65.1392 181.847 65.0265 181.333 64.8011C180.823 64.5758 180.417 64.2625 180.115 63.8615C179.817 63.4571 179.654 62.9882 179.628 62.4545H180.881C180.907 62.7827 181.02 63.0661 181.219 63.3047C181.418 63.54 181.678 63.7223 181.999 63.8516C182.321 63.9808 182.677 64.0455 183.068 64.0455C183.506 64.0455 183.893 63.9692 184.232 63.8168C184.57 63.6643 184.835 63.4522 185.027 63.1804C185.219 62.9086 185.315 62.5938 185.315 62.2358C185.315 61.8613 185.223 61.5315 185.037 61.2464C184.851 60.9581 184.58 60.7327 184.222 60.5703C183.864 60.4079 183.426 60.3267 182.909 60.3267H182.094V59.233H182.909C183.313 59.233 183.668 59.16 183.973 59.0142C184.281 58.8684 184.522 58.6629 184.694 58.3977C184.87 58.1326 184.957 57.821 184.957 57.4631C184.957 57.1184 184.881 56.8184 184.729 56.5632C184.576 56.308 184.361 56.1091 184.082 55.9666C183.807 55.8241 183.482 55.7528 183.108 55.7528C182.757 55.7528 182.425 55.8175 182.114 55.9467C181.805 56.0727 181.554 56.2566 181.358 56.4986C181.162 56.7372 181.056 57.0256 181.04 57.3636H179.847C179.866 56.83 180.027 56.3627 180.329 55.9616C180.63 55.5573 181.025 55.2424 181.512 55.017C182.003 54.7917 182.541 54.679 183.128 54.679C183.758 54.679 184.298 54.8066 184.749 55.0618C185.199 55.3137 185.546 55.6468 185.788 56.0611C186.03 56.4754 186.151 56.9228 186.151 57.4034C186.151 57.9768 186 58.4657 185.698 58.87C185.4 59.2744 184.994 59.5545 184.48 59.7102V59.7898C185.123 59.8958 185.625 60.1693 185.987 60.6101C186.348 61.0476 186.528 61.5895 186.528 62.2358C186.528 62.7893 186.378 63.2865 186.076 63.7273C185.778 64.1648 185.37 64.5095 184.853 64.7614C184.336 65.0133 183.748 65.1392 183.088 65.1392ZM188.562 65V64.1051L191.923 60.4261C192.317 59.9953 192.642 59.6207 192.897 59.3026C193.152 58.9811 193.341 58.6795 193.464 58.3977C193.59 58.1127 193.653 57.8144 193.653 57.5028C193.653 57.1449 193.567 56.835 193.394 56.5732C193.225 56.3113 192.993 56.1091 192.698 55.9666C192.403 55.8241 192.072 55.7528 191.704 55.7528C191.313 55.7528 190.971 55.834 190.68 55.9964C190.391 56.1555 190.168 56.3793 190.009 56.6676C189.853 56.956 189.775 57.294 189.775 57.6818H188.602C188.602 57.0852 188.739 56.5616 189.014 56.1108C189.289 55.66 189.664 55.3087 190.138 55.0568C190.615 54.8049 191.15 54.679 191.744 54.679C192.34 54.679 192.869 54.8049 193.33 55.0568C193.79 55.3087 194.152 55.6484 194.413 56.076C194.675 56.5036 194.806 56.9792 194.806 57.5028C194.806 57.8774 194.738 58.2436 194.602 58.6016C194.47 58.9562 194.238 59.3523 193.906 59.7898C193.578 60.224 193.122 60.7543 192.539 61.3807L190.252 63.8267V63.9062H194.985V65H188.562ZM198.808 63.608L198.729 64.1449C198.672 64.5227 198.586 64.9271 198.47 65.358C198.357 65.7888 198.24 66.1948 198.117 66.576C197.995 66.9571 197.893 67.2604 197.814 67.4858H196.919C196.962 67.2737 197.018 66.9936 197.088 66.6456C197.158 66.2976 197.227 65.9081 197.297 65.4773C197.37 65.0497 197.429 64.6122 197.476 64.1648L197.536 63.608H198.808ZM204.92 65V57.3636H206.093V65H204.92ZM205.516 56.0909C205.287 56.0909 205.09 56.013 204.925 55.8572C204.762 55.7015 204.681 55.5142 204.681 55.2955C204.681 55.0767 204.762 54.8894 204.925 54.7337C205.09 54.5779 205.287 54.5 205.516 54.5C205.745 54.5 205.94 54.5779 206.103 54.7337C206.269 54.8894 206.351 55.0767 206.351 55.2955C206.351 55.5142 206.269 55.7015 206.103 55.8572C205.94 56.013 205.745 56.0909 205.516 56.0909ZM209.415 60.4062V65H208.242V57.3636H209.375V58.5568H209.475C209.654 58.169 209.926 57.8575 210.29 57.6222C210.655 57.3835 211.125 57.2642 211.702 57.2642C212.219 57.2642 212.672 57.3703 213.059 57.5824C213.447 57.7912 213.749 58.1094 213.964 58.5369C214.18 58.9612 214.287 59.4981 214.287 60.1477V65H213.114V60.2273C213.114 59.6274 212.958 59.16 212.647 58.8253C212.335 58.4872 211.908 58.3182 211.364 58.3182C210.989 58.3182 210.655 58.3994 210.36 58.5618C210.068 58.7242 209.838 58.9612 209.669 59.2727C209.5 59.5843 209.415 59.9621 209.415 60.4062ZM219.752 57.3636V58.358H215.795V57.3636H219.752ZM216.948 55.5341H218.122V62.8125C218.122 63.1439 218.17 63.3925 218.266 63.5582C218.365 63.7206 218.491 63.83 218.644 63.8864C218.799 63.9394 218.963 63.9659 219.136 63.9659C219.265 63.9659 219.371 63.9593 219.454 63.946C219.537 63.9295 219.603 63.9162 219.653 63.9062L219.892 64.9602C219.812 64.9901 219.701 65.0199 219.558 65.0497C219.416 65.0829 219.235 65.0994 219.017 65.0994C218.685 65.0994 218.36 65.0282 218.042 64.8857C217.727 64.7431 217.465 64.526 217.257 64.2344C217.051 63.9427 216.948 63.5748 216.948 63.1307V55.5341ZM224.878 65.1392C224.46 65.1326 224.043 65.053 223.625 64.9006C223.208 64.7481 222.826 64.4912 222.482 64.13C222.137 63.7654 221.86 63.2732 221.651 62.6534C221.443 62.0303 221.338 61.2481 221.338 60.3068C221.338 59.4053 221.423 58.6065 221.592 57.9105C221.761 57.2112 222.006 56.6229 222.328 56.1456C222.649 55.665 223.037 55.3004 223.491 55.0518C223.948 54.8033 224.464 54.679 225.037 54.679C225.607 54.679 226.114 54.7933 226.558 55.022C227.006 55.2474 227.37 55.5623 227.652 55.9666C227.934 56.371 228.116 56.8366 228.199 57.3636H226.986C226.873 56.9062 226.655 56.5268 226.33 56.2251C226.005 55.9235 225.574 55.7727 225.037 55.7727C224.248 55.7727 223.627 56.1158 223.173 56.8018C222.722 57.4879 222.495 58.4508 222.492 59.6903H222.571C222.757 59.4086 222.977 59.1683 223.232 58.9695C223.491 58.7673 223.776 58.6115 224.088 58.5021C224.399 58.3928 224.729 58.3381 225.077 58.3381C225.66 58.3381 226.194 58.4839 226.678 58.7756C227.162 59.0639 227.549 59.4633 227.841 59.9737C228.133 60.4808 228.279 61.0625 228.279 61.7188C228.279 62.3485 228.138 62.9252 227.856 63.4489C227.574 63.9692 227.178 64.3835 226.668 64.6918C226.161 64.9967 225.564 65.1458 224.878 65.1392ZM224.878 64.0455C225.296 64.0455 225.67 63.9411 226.002 63.7322C226.336 63.5234 226.6 63.2434 226.792 62.892C226.988 62.5407 227.085 62.1496 227.085 61.7188C227.085 61.2978 226.991 60.915 226.802 60.5703C226.616 60.2223 226.36 59.9455 226.031 59.7401C225.707 59.5346 225.335 59.4318 224.918 59.4318C224.603 59.4318 224.31 59.4948 224.038 59.6207C223.766 59.7434 223.527 59.9124 223.322 60.1278C223.12 60.3433 222.961 60.5902 222.845 60.8686C222.729 61.1437 222.671 61.4337 222.671 61.7386C222.671 62.143 222.765 62.5208 222.954 62.8722C223.146 63.2235 223.408 63.5069 223.74 63.7223C224.074 63.9377 224.454 64.0455 224.878 64.0455ZM229.995 62.9119V61.8977L234.469 54.8182H235.205V56.3892H234.708L231.327 61.7386V61.8182H237.353V62.9119H229.995ZM234.788 65V62.6037V62.1314V54.8182H235.961V65H234.788Z" fill="black"/>
<mask id="path-18-inside-6_1208_894" fill="white">
<path d="M259 41H431V79H259V41Z"/>
</mask>
<path d="M259 41H431V79H259V41Z" fill="white" fill-opacity="0.01"/>
<path d="M259 41V40H258V41H259ZM259 42H431V40H259V42ZM260 79V41H258V79H260Z" fill="#B9B9B9" mask="url(#path-18-inside-6_1208_894)"/>
<path d="M271.686 60.926H283.166V61.878H271.686V60.926ZM276.81 61.374H277.958V66.092H276.81V61.374ZM273.128 53.94H274.29V55.676H280.548V53.94H281.696V59.414H273.128V53.94ZM274.29 56.614V58.476H280.548V56.614H274.29ZM285.139 55.284H295.415V56.236H285.139V55.284ZM284.579 63.656H296.045V64.622H284.579V63.656ZM289.717 61.654H290.865V64.034H289.717V61.654ZM290.277 57.09C292.839 57.09 294.421 57.972 294.421 59.498C294.421 61.024 292.839 61.906 290.277 61.906C287.729 61.906 286.147 61.024 286.147 59.498C286.147 57.972 287.729 57.09 290.277 57.09ZM290.277 58C288.443 58 287.309 58.56 287.309 59.498C287.309 60.436 288.443 60.982 290.277 60.982C292.125 60.982 293.245 60.436 293.245 59.498C293.245 58.56 292.125 58 290.277 58ZM289.717 53.646H290.865V55.872H289.717V53.646ZM306.012 53.422H307.188V66.092H306.012V53.422ZM306.866 58.56H309.204V59.526H306.866V58.56ZM302.778 54.794H303.912C303.912 58.392 302.26 61.64 298.172 63.698L297.528 62.802C301.028 61.024 302.778 58.322 302.778 54.976V54.794ZM298.116 54.794H303.38V55.746H298.116V54.794ZM317.424 61.22H318.32V61.906C318.32 63.558 317.284 65.224 315.464 65.924L314.876 65.056C316.472 64.482 317.424 63.124 317.424 61.906V61.22ZM317.676 61.22H318.544V61.906C318.544 63.18 319.3 64.538 320.812 65.154L320.322 66.036C318.502 65.322 317.676 63.586 317.676 61.906V61.22ZM322.1 61.22H322.968V61.906C322.968 63.39 322.128 65.266 320.322 66.036L319.832 65.154C321.33 64.468 322.1 62.998 322.1 61.906V61.22ZM322.338 61.22H323.234V61.906C323.234 63.208 324.172 64.51 325.782 65.056L325.194 65.924C323.346 65.252 322.338 63.656 322.338 61.906V61.22ZM323.472 53.45H324.648V60.674H323.472V53.45ZM317.858 54.178C319.776 54.178 321.148 55.382 321.148 57.132C321.148 58.882 319.776 60.072 317.858 60.072C315.94 60.072 314.554 58.882 314.554 57.132C314.554 55.382 315.94 54.178 317.858 54.178ZM317.858 55.144C316.598 55.144 315.688 55.956 315.688 57.132C315.688 58.308 316.598 59.106 317.858 59.106C319.118 59.106 320.028 58.308 320.028 57.132C320.028 55.956 319.118 55.144 317.858 55.144ZM328.693 57.23H337.289V58.182H328.693V57.23ZM327.139 59.876H338.619V60.828H327.139V59.876ZM328.693 53.898H329.841V57.706H328.693V53.898ZM328.609 64.832H337.359V65.784H328.609V64.832ZM328.609 62.088H329.757V65.084H328.609V62.088ZM349.682 53.716C352.412 53.716 354.134 54.612 354.134 56.11C354.134 57.608 352.412 58.49 349.682 58.49C346.938 58.49 345.23 57.608 345.23 56.11C345.23 54.612 346.938 53.716 349.682 53.716ZM349.682 54.64C347.666 54.64 346.42 55.172 346.42 56.11C346.42 57.034 347.666 57.58 349.682 57.58C351.684 57.58 352.944 57.034 352.944 56.11C352.944 55.172 351.684 54.64 349.682 54.64ZM345.356 61.752H353.994V65.924H345.356V61.752ZM352.86 62.69H346.504V64.986H352.86V62.69ZM343.956 59.582H355.394V60.52H343.956V59.582ZM361.958 53.884H362.98V54.584C362.98 57.006 360.516 58.742 357.884 59.19L357.422 58.252C359.732 57.902 361.958 56.39 361.958 54.584V53.884ZM362.168 53.884H363.176V54.584C363.176 56.348 365.43 57.902 367.712 58.252L367.25 59.19C364.646 58.742 362.168 56.978 362.168 54.584V53.884ZM361.958 61.276H363.106V66.092H361.958V61.276ZM356.848 60.562H368.286V61.528H356.848V60.562ZM379.135 58.476H381.473V59.456H379.135V58.476ZM378.281 53.422H379.457V66.092H378.281V53.422ZM370.217 54.668H371.379V62.508H370.217V54.668ZM370.217 61.906H371.225C373.101 61.906 375.019 61.78 377.105 61.346L377.245 62.312C375.089 62.76 373.143 62.886 371.225 62.886H370.217V61.906ZM396.008 55.326H398.206V56.292H396.008V55.326ZM396.008 58.014H398.206V58.98H396.008V58.014ZM390.072 54.178C391.976 54.178 393.376 55.41 393.376 57.174C393.376 58.924 391.976 60.142 390.072 60.142C388.168 60.142 386.768 58.924 386.768 57.174C386.768 55.41 388.168 54.178 390.072 54.178ZM390.072 55.158C388.812 55.158 387.902 55.984 387.902 57.174C387.902 58.364 388.812 59.176 390.072 59.176C391.332 59.176 392.242 58.364 392.242 57.174C392.242 55.984 391.332 55.158 390.072 55.158ZM395.196 53.436H396.358V60.926H395.196V53.436ZM392.326 61.332C394.902 61.332 396.484 62.214 396.484 63.698C396.484 65.196 394.902 66.064 392.326 66.064C389.75 66.064 388.168 65.196 388.168 63.698C388.168 62.214 389.75 61.332 392.326 61.332ZM392.326 62.27C390.45 62.27 389.302 62.788 389.302 63.698C389.302 64.608 390.45 65.14 392.326 65.14C394.202 65.14 395.35 64.608 395.35 63.698C395.35 62.788 394.202 62.27 392.326 62.27ZM404.533 53.884H405.555V54.584C405.555 57.006 403.091 58.742 400.459 59.19L399.997 58.252C402.307 57.902 404.533 56.39 404.533 54.584V53.884ZM404.743 53.884H405.751V54.584C405.751 56.348 408.005 57.902 410.287 58.252L409.825 59.19C407.221 58.742 404.743 56.978 404.743 54.584V53.884ZM404.533 61.276H405.681V66.092H404.533V61.276ZM399.423 60.562H410.861V61.528H399.423V60.562Z" fill="black"/>
</g>
<g clip-path="url(#clip3_1208_894)">
<rect width="431" height="38" transform="translate(0 79)" fill="white" fill-opacity="0.01"/>
<mask id="path-21-inside-7_1208_894" fill="white">
<path d="M0 79H78V117H0V79Z"/>
</mask>
<path d="M0 79H78V117H0V79Z" fill="black" fill-opacity="0.06"/>
<path d="M0 79V78H-1V79H0ZM0 80H78V78H0V80ZM1 117V79H-1V117H1Z" fill="#B9B9B9" mask="url(#path-21-inside-7_1208_894)"/>
<path d="M21.898 91.436H23.06V97.988H21.898V91.436ZM14.884 98.632H23.074V101.67H16.046V103.406H14.912V100.802H21.926V99.542H14.884V98.632ZM14.912 103.028H23.494V103.952H14.912V103.028ZM15.99 91.8H16.956V92.766C16.956 95.104 15.5 97.092 13.358 97.876L12.784 96.952C14.688 96.28 15.99 94.6 15.99 92.766V91.8ZM16.2 91.8H17.152V92.766C17.152 94.516 18.482 96.098 20.358 96.714L19.784 97.624C17.656 96.896 16.2 95.034 16.2 92.766V91.8ZM30.6889 91.884H31.7109V92.584C31.7109 95.006 29.2469 96.742 26.6149 97.19L26.1529 96.252C28.4629 95.902 30.6889 94.39 30.6889 92.584V91.884ZM30.8989 91.884H31.9069V92.584C31.9069 94.348 34.1609 95.902 36.4429 96.252L35.9809 97.19C33.3769 96.742 30.8989 94.978 30.8989 92.584V91.884ZM30.6889 99.276H31.8369V104.092H30.6889V99.276ZM25.5789 98.562H37.0169V99.528H25.5789V98.562ZM45.5698 94.474H48.1458V95.426H45.5698V94.474ZM45.5558 96.938H48.1318V97.89H45.5558V96.938ZM38.4718 92.822H45.5558V93.76H38.4718V92.822ZM42.0558 94.418C43.7498 94.418 44.9118 95.342 44.9118 96.756C44.9118 98.17 43.7498 99.108 42.0558 99.108C40.3618 99.108 39.1858 98.17 39.1858 96.756C39.1858 95.342 40.3618 94.418 42.0558 94.418ZM42.0558 95.314C40.9918 95.314 40.2778 95.874 40.2778 96.756C40.2778 97.638 40.9918 98.212 42.0558 98.212C43.1058 98.212 43.8338 97.638 43.8338 96.756C43.8338 95.874 43.1058 95.314 42.0558 95.314ZM41.4818 91.324H42.6438V93.48H41.4818V91.324ZM47.6978 91.436H48.8598V99.612H47.6978V91.436ZM44.7158 99.738C47.3338 99.738 48.9298 100.536 48.9298 101.908C48.9298 103.28 47.3338 104.064 44.7158 104.064C42.0838 104.064 40.5018 103.28 40.5018 101.908C40.5018 100.536 42.0838 99.738 44.7158 99.738ZM44.7158 100.662C42.8538 100.662 41.7058 101.096 41.7058 101.908C41.7058 102.706 42.8538 103.168 44.7158 103.168C46.5778 103.168 47.7258 102.706 47.7258 101.908C47.7258 101.096 46.5778 100.662 44.7158 100.662Z" fill="black"/>
<mask id="path-24-inside-8_1208_894" fill="white">
<path d="M78 79H259V117H78V79Z"/>
</mask>
<path d="M78 79H259V117H78V79Z" fill="white" fill-opacity="0.01"/>
<path d="M78 79V78H77V79H78ZM78 80H259V78H78V80ZM79 117V79H77V117H79Z" fill="#B9B9B9" mask="url(#path-24-inside-8_1208_894)"/>
<path d="M94.4744 95.3636V96.358H90.358V95.3636H94.4744ZM91.5909 103V94.3097C91.5909 93.8722 91.6937 93.5076 91.8991 93.2159C92.1046 92.9242 92.3714 92.7055 92.6996 92.5597C93.0277 92.4138 93.3741 92.3409 93.7386 92.3409C94.027 92.3409 94.2623 92.3641 94.4446 92.4105C94.6269 92.4569 94.7628 92.5 94.8523 92.5398L94.5142 93.554C94.4545 93.5341 94.3717 93.5092 94.2656 93.4794C94.1629 93.4496 94.027 93.4347 93.858 93.4347C93.4702 93.4347 93.1901 93.5324 93.0178 93.728C92.8487 93.9235 92.7642 94.2102 92.7642 94.5881V103H91.5909ZM97.2921 92.8182V103H96.1188V92.8182H97.2921ZM102.543 103.159C101.854 103.159 101.249 102.995 100.729 102.667C100.212 102.339 99.8073 101.88 99.5156 101.29C99.2273 100.7 99.0831 100.01 99.0831 99.2216C99.0831 98.4261 99.2273 97.7318 99.5156 97.1385C99.8073 96.5452 100.212 96.0845 100.729 95.7564C101.249 95.4283 101.854 95.2642 102.543 95.2642C103.233 95.2642 103.836 95.4283 104.353 95.7564C104.873 96.0845 105.278 96.5452 105.566 97.1385C105.858 97.7318 106.004 98.4261 106.004 99.2216C106.004 100.01 105.858 100.7 105.566 101.29C105.278 101.88 104.873 102.339 104.353 102.667C103.836 102.995 103.233 103.159 102.543 103.159ZM102.543 102.105C103.067 102.105 103.498 101.971 103.836 101.702C104.174 101.434 104.424 101.081 104.587 100.643C104.749 100.206 104.83 99.732 104.83 99.2216C104.83 98.7112 104.749 98.2356 104.587 97.7947C104.424 97.3539 104.174 96.9976 103.836 96.7259C103.498 96.4541 103.067 96.3182 102.543 96.3182C102.02 96.3182 101.589 96.4541 101.251 96.7259C100.913 96.9976 100.662 97.3539 100.5 97.7947C100.338 98.2356 100.256 98.7112 100.256 99.2216C100.256 99.732 100.338 100.206 100.5 100.643C100.662 101.081 100.913 101.434 101.251 101.702C101.589 101.971 102.02 102.105 102.543 102.105ZM110.042 103.179C109.558 103.179 109.119 103.088 108.724 102.906C108.33 102.72 108.017 102.453 107.785 102.105C107.553 101.754 107.437 101.33 107.437 100.832C107.437 100.395 107.523 100.04 107.695 99.7685C107.867 99.4934 108.098 99.2779 108.386 99.1222C108.675 98.9664 108.993 98.8504 109.341 98.7741C109.692 98.6946 110.045 98.6316 110.4 98.5852C110.864 98.5256 111.24 98.4808 111.528 98.451C111.82 98.4179 112.032 98.3632 112.165 98.2869C112.3 98.2107 112.368 98.0781 112.368 97.8892V97.8494C112.368 97.3589 112.234 96.9777 111.966 96.706C111.701 96.4342 111.298 96.2983 110.758 96.2983C110.198 96.2983 109.758 96.4209 109.44 96.6662C109.122 96.9115 108.898 97.1733 108.769 97.4517L107.655 97.054C107.854 96.59 108.119 96.2287 108.451 95.9702C108.786 95.7083 109.15 95.526 109.545 95.4233C109.942 95.3172 110.333 95.2642 110.718 95.2642C110.963 95.2642 111.245 95.294 111.563 95.3537C111.885 95.41 112.194 95.5277 112.493 95.7067C112.794 95.8857 113.045 96.1558 113.243 96.517C113.442 96.8783 113.542 97.3622 113.542 97.9688V103H112.368V101.966H112.309C112.229 102.132 112.097 102.309 111.911 102.498C111.725 102.687 111.479 102.848 111.17 102.98C110.862 103.113 110.486 103.179 110.042 103.179ZM110.221 102.125C110.685 102.125 111.076 102.034 111.394 101.852C111.715 101.669 111.957 101.434 112.12 101.146C112.286 100.857 112.368 100.554 112.368 100.236V99.1619C112.319 99.2216 112.209 99.2763 112.04 99.326C111.875 99.3724 111.682 99.4138 111.464 99.4503C111.248 99.4834 111.038 99.5133 110.832 99.5398C110.63 99.563 110.466 99.5829 110.34 99.5994C110.035 99.6392 109.75 99.7038 109.485 99.7933C109.223 99.8795 109.011 100.01 108.849 100.186C108.689 100.358 108.61 100.594 108.61 100.892C108.61 101.3 108.761 101.608 109.062 101.817C109.367 102.022 109.753 102.125 110.221 102.125ZM119.004 95.3636V96.358H115.047V95.3636H119.004ZM116.2 93.5341H117.374V100.812C117.374 101.144 117.422 101.393 117.518 101.558C117.617 101.721 117.743 101.83 117.896 101.886C118.051 101.939 118.215 101.966 118.388 101.966C118.517 101.966 118.623 101.959 118.706 101.946C118.789 101.929 118.855 101.916 118.905 101.906L119.143 102.96C119.064 102.99 118.953 103.02 118.81 103.05C118.668 103.083 118.487 103.099 118.268 103.099C117.937 103.099 117.612 103.028 117.294 102.886C116.979 102.743 116.717 102.526 116.509 102.234C116.303 101.943 116.2 101.575 116.2 101.131V93.5341ZM124.329 92.8182V103H123.096V94.1108H123.036L120.55 95.7614V94.5085L123.096 92.8182H124.329ZM130.638 103.139C130.22 103.133 129.803 103.053 129.385 102.901C128.967 102.748 128.586 102.491 128.241 102.13C127.897 101.765 127.62 101.273 127.411 100.653C127.202 100.03 127.098 99.2481 127.098 98.3068C127.098 97.4053 127.183 96.6065 127.352 95.9105C127.521 95.2112 127.766 94.6229 128.087 94.1456C128.409 93.665 128.797 93.3004 129.251 93.0518C129.708 92.8033 130.223 92.679 130.797 92.679C131.367 92.679 131.874 92.7933 132.318 93.022C132.766 93.2474 133.13 93.5623 133.412 93.9666C133.694 94.371 133.876 94.8366 133.959 95.3636H132.746C132.633 94.9062 132.414 94.5268 132.089 94.2251C131.765 93.9235 131.334 93.7727 130.797 93.7727C130.008 93.7727 129.387 94.1158 128.933 94.8018C128.482 95.4879 128.255 96.4508 128.251 97.6903H128.331C128.517 97.4086 128.737 97.1683 128.992 96.9695C129.251 96.7673 129.536 96.6115 129.847 96.5021C130.159 96.3928 130.489 96.3381 130.837 96.3381C131.42 96.3381 131.954 96.4839 132.438 96.7756C132.921 97.0639 133.309 97.4633 133.601 97.9737C133.893 98.4808 134.038 99.0625 134.038 99.7188C134.038 100.348 133.897 100.925 133.616 101.449C133.334 101.969 132.938 102.384 132.428 102.692C131.92 102.997 131.324 103.146 130.638 103.139ZM130.638 102.045C131.055 102.045 131.43 101.941 131.761 101.732C132.096 101.523 132.36 101.243 132.552 100.892C132.747 100.541 132.845 100.15 132.845 99.7188C132.845 99.2978 132.751 98.915 132.562 98.5703C132.376 98.2223 132.119 97.9455 131.791 97.7401C131.466 97.5346 131.095 97.4318 130.678 97.4318C130.363 97.4318 130.069 97.4948 129.798 97.6207C129.526 97.7434 129.287 97.9124 129.082 98.1278C128.879 98.3433 128.72 98.5902 128.604 98.8686C128.488 99.1437 128.43 99.4337 128.43 99.7386C128.43 100.143 128.525 100.521 128.714 100.872C128.906 101.223 129.168 101.507 129.499 101.722C129.834 101.938 130.214 102.045 130.638 102.045ZM137.285 101.608L137.205 102.145C137.149 102.523 137.063 102.927 136.947 103.358C136.834 103.789 136.716 104.195 136.594 104.576C136.471 104.957 136.37 105.26 136.29 105.486H135.396C135.439 105.274 135.495 104.994 135.565 104.646C135.634 104.298 135.704 103.908 135.773 103.477C135.846 103.05 135.906 102.612 135.952 102.165L136.012 101.608H137.285ZM146.797 95.3636V96.358H142.68V95.3636H146.797ZM143.913 103V94.3097C143.913 93.8722 144.016 93.5076 144.221 93.2159C144.427 92.9242 144.694 92.7055 145.022 92.5597C145.35 92.4138 145.696 92.3409 146.061 92.3409C146.349 92.3409 146.585 92.3641 146.767 92.4105C146.949 92.4569 147.085 92.5 147.175 92.5398L146.836 93.554C146.777 93.5341 146.694 93.5092 146.588 93.4794C146.485 93.4496 146.349 93.4347 146.18 93.4347C145.792 93.4347 145.512 93.5324 145.34 93.728C145.171 93.9235 145.086 94.2102 145.086 94.5881V103H143.913ZM149.614 92.8182V103H148.441V92.8182H149.614ZM154.866 103.159C154.176 103.159 153.571 102.995 153.051 102.667C152.534 102.339 152.13 101.88 151.838 101.29C151.55 100.7 151.405 100.01 151.405 99.2216C151.405 98.4261 151.55 97.7318 151.838 97.1385C152.13 96.5452 152.534 96.0845 153.051 95.7564C153.571 95.4283 154.176 95.2642 154.866 95.2642C155.555 95.2642 156.158 95.4283 156.675 95.7564C157.196 96.0845 157.6 96.5452 157.888 97.1385C158.18 97.7318 158.326 98.4261 158.326 99.2216C158.326 100.01 158.18 100.7 157.888 101.29C157.6 101.88 157.196 102.339 156.675 102.667C156.158 102.995 155.555 103.159 154.866 103.159ZM154.866 102.105C155.389 102.105 155.82 101.971 156.158 101.702C156.496 101.434 156.747 101.081 156.909 100.643C157.071 100.206 157.153 99.732 157.153 99.2216C157.153 98.7112 157.071 98.2356 156.909 97.7947C156.747 97.3539 156.496 96.9976 156.158 96.7259C155.82 96.4541 155.389 96.3182 154.866 96.3182C154.342 96.3182 153.911 96.4541 153.573 96.7259C153.235 96.9976 152.985 97.3539 152.822 97.7947C152.66 98.2356 152.579 98.7112 152.579 99.2216C152.579 99.732 152.66 100.206 152.822 100.643C152.985 101.081 153.235 101.434 153.573 101.702C153.911 101.971 154.342 102.105 154.866 102.105ZM162.364 103.179C161.88 103.179 161.441 103.088 161.047 102.906C160.652 102.72 160.339 102.453 160.107 102.105C159.875 101.754 159.759 101.33 159.759 100.832C159.759 100.395 159.845 100.04 160.017 99.7685C160.19 99.4934 160.42 99.2779 160.708 99.1222C160.997 98.9664 161.315 98.8504 161.663 98.7741C162.014 98.6946 162.367 98.6316 162.722 98.5852C163.186 98.5256 163.562 98.4808 163.85 98.451C164.142 98.4179 164.354 98.3632 164.487 98.2869C164.623 98.2107 164.691 98.0781 164.691 97.8892V97.8494C164.691 97.3589 164.556 96.9777 164.288 96.706C164.023 96.4342 163.62 96.2983 163.08 96.2983C162.52 96.2983 162.081 96.4209 161.762 96.6662C161.444 96.9115 161.221 97.1733 161.091 97.4517L159.978 97.054C160.176 96.59 160.442 96.2287 160.773 95.9702C161.108 95.7083 161.472 95.526 161.867 95.4233C162.265 95.3172 162.656 95.2642 163.04 95.2642C163.285 95.2642 163.567 95.294 163.885 95.3537C164.207 95.41 164.517 95.5277 164.815 95.7067C165.117 95.8857 165.367 96.1558 165.566 96.517C165.765 96.8783 165.864 97.3622 165.864 97.9688V103H164.691V101.966H164.631C164.551 102.132 164.419 102.309 164.233 102.498C164.048 102.687 163.801 102.848 163.493 102.98C163.184 103.113 162.808 103.179 162.364 103.179ZM162.543 102.125C163.007 102.125 163.398 102.034 163.716 101.852C164.038 101.669 164.28 101.434 164.442 101.146C164.608 100.857 164.691 100.554 164.691 100.236V99.1619C164.641 99.2216 164.532 99.2763 164.363 99.326C164.197 99.3724 164.005 99.4138 163.786 99.4503C163.57 99.4834 163.36 99.5133 163.154 99.5398C162.952 99.563 162.788 99.5829 162.662 99.5994C162.357 99.6392 162.072 99.7038 161.807 99.7933C161.545 99.8795 161.333 100.01 161.171 100.186C161.012 100.358 160.932 100.594 160.932 100.892C160.932 101.3 161.083 101.608 161.385 101.817C161.69 102.022 162.076 102.125 162.543 102.125ZM171.327 95.3636V96.358H167.369V95.3636H171.327ZM168.523 93.5341H169.696V100.812C169.696 101.144 169.744 101.393 169.84 101.558C169.939 101.721 170.065 101.83 170.218 101.886C170.374 101.939 170.538 101.966 170.71 101.966C170.839 101.966 170.945 101.959 171.028 101.946C171.111 101.929 171.177 101.916 171.227 101.906L171.466 102.96C171.386 102.99 171.275 103.02 171.133 103.05C170.99 103.083 170.809 103.099 170.591 103.099C170.259 103.099 169.934 103.028 169.616 102.886C169.301 102.743 169.04 102.526 168.831 102.234C168.625 101.943 168.523 101.575 168.523 101.131V93.5341ZM176.512 103.139C175.856 103.139 175.271 103.027 174.757 102.801C174.247 102.576 173.84 102.263 173.539 101.862C173.241 101.457 173.078 100.988 173.052 100.455H174.305C174.331 100.783 174.444 101.066 174.643 101.305C174.841 101.54 175.102 101.722 175.423 101.852C175.745 101.981 176.101 102.045 176.492 102.045C176.93 102.045 177.317 101.969 177.655 101.817C177.993 101.664 178.259 101.452 178.451 101.18C178.643 100.909 178.739 100.594 178.739 100.236C178.739 99.8613 178.646 99.5315 178.461 99.2464C178.275 98.9581 178.003 98.7327 177.645 98.5703C177.287 98.4079 176.85 98.3267 176.333 98.3267H175.518V97.233H176.333C176.737 97.233 177.092 97.16 177.397 97.0142C177.705 96.8684 177.945 96.6629 178.118 96.3977C178.293 96.1326 178.381 95.821 178.381 95.4631C178.381 95.1184 178.305 94.8184 178.153 94.5632C178 94.308 177.785 94.1091 177.506 93.9666C177.231 93.8241 176.906 93.7528 176.532 93.7528C176.18 93.7528 175.849 93.8175 175.537 93.9467C175.229 94.0727 174.977 94.2566 174.782 94.4986C174.586 94.7372 174.48 95.0256 174.464 95.3636H173.27C173.29 94.83 173.451 94.3627 173.753 93.9616C174.054 93.5573 174.449 93.2424 174.936 93.017C175.426 92.7917 175.965 92.679 176.552 92.679C177.181 92.679 177.722 92.8066 178.172 93.0618C178.623 93.3137 178.97 93.6468 179.211 94.0611C179.453 94.4754 179.574 94.9228 179.574 95.4034C179.574 95.9768 179.424 96.4657 179.122 96.87C178.824 97.2744 178.418 97.5545 177.904 97.7102V97.7898C178.547 97.8958 179.049 98.1693 179.41 98.6101C179.772 99.0476 179.952 99.5895 179.952 100.236C179.952 100.789 179.801 101.286 179.5 101.727C179.202 102.165 178.794 102.509 178.277 102.761C177.76 103.013 177.171 103.139 176.512 103.139ZM181.986 103V102.105L185.346 98.4261C185.741 97.9953 186.066 97.6207 186.321 97.3026C186.576 96.9811 186.765 96.6795 186.888 96.3977C187.014 96.1127 187.077 95.8144 187.077 95.5028C187.077 95.1449 186.99 94.835 186.818 94.5732C186.649 94.3113 186.417 94.1091 186.122 93.9666C185.827 93.8241 185.496 93.7528 185.128 93.7528C184.737 93.7528 184.395 93.834 184.104 93.9964C183.815 94.1555 183.591 94.3793 183.432 94.6676C183.277 94.956 183.199 95.294 183.199 95.6818H182.025C182.025 95.0852 182.163 94.5616 182.438 94.1108C182.713 93.66 183.088 93.3087 183.562 93.0568C184.039 92.8049 184.574 92.679 185.167 92.679C185.764 92.679 186.293 92.8049 186.753 93.0568C187.214 93.3087 187.575 93.6484 187.837 94.076C188.099 94.5036 188.23 94.9792 188.23 95.5028C188.23 95.8774 188.162 96.2436 188.026 96.6016C187.894 96.9562 187.662 97.3523 187.33 97.7898C187.002 98.224 186.546 98.7543 185.963 99.3807L183.676 101.827V101.906H188.409V103H181.986ZM192.232 101.608L192.153 102.145C192.096 102.523 192.01 102.927 191.894 103.358C191.781 103.789 191.664 104.195 191.541 104.576C191.418 104.957 191.317 105.26 191.238 105.486H190.343C190.386 105.274 190.442 104.994 190.512 104.646C190.581 104.298 190.651 103.908 190.721 103.477C190.794 103.05 190.853 102.612 190.9 102.165L190.959 101.608H192.232ZM201.744 95.3636V96.358H197.627V95.3636H201.744ZM198.86 103V94.3097C198.86 93.8722 198.963 93.5076 199.169 93.2159C199.374 92.9242 199.641 92.7055 199.969 92.5597C200.297 92.4138 200.644 92.3409 201.008 92.3409C201.297 92.3409 201.532 92.3641 201.714 92.4105C201.896 92.4569 202.032 92.5 202.122 92.5398L201.784 93.554C201.724 93.5341 201.641 93.5092 201.535 93.4794C201.432 93.4496 201.297 93.4347 201.127 93.4347C200.74 93.4347 200.46 93.5324 200.287 93.728C200.118 93.9235 200.034 94.2102 200.034 94.5881V103H198.86ZM204.562 92.8182V103H203.388V92.8182H204.562ZM209.813 103.159C209.123 103.159 208.519 102.995 207.998 102.667C207.481 102.339 207.077 101.88 206.785 101.29C206.497 100.7 206.353 100.01 206.353 99.2216C206.353 98.4261 206.497 97.7318 206.785 97.1385C207.077 96.5452 207.481 96.0845 207.998 95.7564C208.519 95.4283 209.123 95.2642 209.813 95.2642C210.502 95.2642 211.105 95.4283 211.623 95.7564C212.143 96.0845 212.547 96.5452 212.836 97.1385C213.127 97.7318 213.273 98.4261 213.273 99.2216C213.273 100.01 213.127 100.7 212.836 101.29C212.547 101.88 212.143 102.339 211.623 102.667C211.105 102.995 210.502 103.159 209.813 103.159ZM209.813 102.105C210.337 102.105 210.767 101.971 211.105 101.702C211.444 101.434 211.694 101.081 211.856 100.643C212.019 100.206 212.1 99.732 212.1 99.2216C212.1 98.7112 212.019 98.2356 211.856 97.7947C211.694 97.3539 211.444 96.9976 211.105 96.7259C210.767 96.4541 210.337 96.3182 209.813 96.3182C209.289 96.3182 208.858 96.4541 208.52 96.7259C208.182 96.9976 207.932 97.3539 207.77 97.7947C207.607 98.2356 207.526 98.7112 207.526 99.2216C207.526 99.732 207.607 100.206 207.77 100.643C207.932 101.081 208.182 101.434 208.52 101.702C208.858 101.971 209.289 102.105 209.813 102.105ZM217.311 103.179C216.827 103.179 216.388 103.088 215.994 102.906C215.599 102.72 215.286 102.453 215.054 102.105C214.822 101.754 214.706 101.33 214.706 100.832C214.706 100.395 214.792 100.04 214.965 99.7685C215.137 99.4934 215.367 99.2779 215.656 99.1222C215.944 98.9664 216.262 98.8504 216.61 98.7741C216.962 98.6946 217.315 98.6316 217.669 98.5852C218.133 98.5256 218.509 98.4808 218.798 98.451C219.089 98.4179 219.302 98.3632 219.434 98.2869C219.57 98.2107 219.638 98.0781 219.638 97.8892V97.8494C219.638 97.3589 219.504 96.9777 219.235 96.706C218.97 96.4342 218.567 96.2983 218.027 96.2983C217.467 96.2983 217.028 96.4209 216.71 96.6662C216.392 96.9115 216.168 97.1733 216.039 97.4517L214.925 97.054C215.124 96.59 215.389 96.2287 215.72 95.9702C216.055 95.7083 216.42 95.526 216.814 95.4233C217.212 95.3172 217.603 95.2642 217.987 95.2642C218.233 95.2642 218.514 95.294 218.833 95.3537C219.154 95.41 219.464 95.5277 219.762 95.7067C220.064 95.8857 220.314 96.1558 220.513 96.517C220.712 96.8783 220.811 97.3622 220.811 97.9688V103H219.638V101.966H219.578C219.499 102.132 219.366 102.309 219.181 102.498C218.995 102.687 218.748 102.848 218.44 102.98C218.132 103.113 217.755 103.179 217.311 103.179ZM217.49 102.125C217.954 102.125 218.345 102.034 218.664 101.852C218.985 101.669 219.227 101.434 219.389 101.146C219.555 100.857 219.638 100.554 219.638 100.236V99.1619C219.588 99.2216 219.479 99.2763 219.31 99.326C219.144 99.3724 218.952 99.4138 218.733 99.4503C218.518 99.4834 218.307 99.5133 218.102 99.5398C217.9 99.563 217.735 99.5829 217.61 99.5994C217.305 99.6392 217.02 99.7038 216.754 99.7933C216.493 99.8795 216.28 100.01 216.118 100.186C215.959 100.358 215.879 100.594 215.879 100.892C215.879 101.3 216.03 101.608 216.332 101.817C216.637 102.022 217.023 102.125 217.49 102.125ZM226.274 95.3636V96.358H222.316V95.3636H226.274ZM223.47 93.5341H224.643V100.812C224.643 101.144 224.691 101.393 224.787 101.558C224.887 101.721 225.013 101.83 225.165 101.886C225.321 101.939 225.485 101.966 225.657 101.966C225.787 101.966 225.893 101.959 225.975 101.946C226.058 101.929 226.125 101.916 226.174 101.906L226.413 102.96C226.333 102.99 226.222 103.02 226.08 103.05C225.937 103.083 225.757 103.099 225.538 103.099C225.207 103.099 224.882 103.028 224.564 102.886C224.249 102.743 223.987 102.526 223.778 102.234C223.573 101.943 223.47 101.575 223.47 101.131V93.5341ZM231.4 103.139C230.982 103.133 230.564 103.053 230.147 102.901C229.729 102.748 229.348 102.491 229.003 102.13C228.658 101.765 228.382 101.273 228.173 100.653C227.964 100.03 227.86 99.2481 227.86 98.3068C227.86 97.4053 227.944 96.6065 228.113 95.9105C228.282 95.2112 228.528 94.6229 228.849 94.1456C229.171 93.665 229.558 93.3004 230.012 93.0518C230.47 92.8033 230.985 92.679 231.559 92.679C232.129 92.679 232.636 92.7933 233.08 93.022C233.527 93.2474 233.892 93.5623 234.174 93.9666C234.455 94.371 234.638 94.8366 234.721 95.3636H233.507C233.395 94.9062 233.176 94.5268 232.851 94.2251C232.526 93.9235 232.096 93.7727 231.559 93.7727C230.77 93.7727 230.148 94.1158 229.694 94.8018C229.243 95.4879 229.016 96.4508 229.013 97.6903H229.093C229.278 97.4086 229.499 97.1683 229.754 96.9695C230.012 96.7673 230.297 96.6115 230.609 96.5021C230.921 96.3928 231.25 96.3381 231.598 96.3381C232.182 96.3381 232.715 96.4839 233.199 96.7756C233.683 97.0639 234.071 97.4633 234.363 97.9737C234.654 98.4808 234.8 99.0625 234.8 99.7188C234.8 100.348 234.659 100.925 234.377 101.449C234.096 101.969 233.7 102.384 233.189 102.692C232.682 102.997 232.086 103.146 231.4 103.139ZM231.4 102.045C231.817 102.045 232.192 101.941 232.523 101.732C232.858 101.523 233.121 101.243 233.314 100.892C233.509 100.541 233.607 100.15 233.607 99.7188C233.607 99.2978 233.512 98.915 233.324 98.5703C233.138 98.2223 232.881 97.9455 232.553 97.7401C232.228 97.5346 231.857 97.4318 231.439 97.4318C231.124 97.4318 230.831 97.4948 230.559 97.6207C230.288 97.7434 230.049 97.9124 229.843 98.1278C229.641 98.3433 229.482 98.5902 229.366 98.8686C229.25 99.1437 229.192 99.4337 229.192 99.7386C229.192 100.143 229.287 100.521 229.475 100.872C229.668 101.223 229.93 101.507 230.261 101.722C230.596 101.938 230.975 102.045 231.4 102.045ZM236.517 100.912V99.8977L240.991 92.8182H241.727V94.3892H241.23L237.849 99.7386V99.8182H243.874V100.912H236.517ZM241.309 103V100.604V100.131V92.8182H242.482V103H241.309Z" fill="black"/>
<mask id="path-27-inside-9_1208_894" fill="white">
<path d="M259 79H431V117H259V79Z"/>
</mask>
<path d="M259 79H431V117H259V79Z" fill="white" fill-opacity="0.01"/>
<path d="M259 79V78H258V79H259ZM259 80H431V78H259V80ZM260 117V79H258V117H260Z" fill="#B9B9B9" mask="url(#path-27-inside-9_1208_894)"/>
<path d="M280.898 91.436H282.06V97.988H280.898V91.436ZM273.884 98.632H282.074V101.67H275.046V103.406H273.912V100.802H280.926V99.542H273.884V98.632ZM273.912 103.028H282.494V103.952H273.912V103.028ZM274.99 91.8H275.956V92.766C275.956 95.104 274.5 97.092 272.358 97.876L271.784 96.952C273.688 96.28 274.99 94.6 274.99 92.766V91.8ZM275.2 91.8H276.152V92.766C276.152 94.516 277.482 96.098 279.358 96.714L278.784 97.624C276.656 96.896 275.2 95.034 275.2 92.766V91.8ZM289.689 91.884H290.711V92.584C290.711 95.006 288.247 96.742 285.615 97.19L285.153 96.252C287.463 95.902 289.689 94.39 289.689 92.584V91.884ZM289.899 91.884H290.907V92.584C290.907 94.348 293.161 95.902 295.443 96.252L294.981 97.19C292.377 96.742 289.899 94.978 289.899 92.584V91.884ZM289.689 99.276H290.837V104.092H289.689V99.276ZM284.579 98.562H296.017V99.528H284.579V98.562Z" fill="black"/>
</g>
<g clip-path="url(#clip4_1208_894)">
<rect width="431" height="38" transform="translate(0 117)" fill="white" fill-opacity="0.01"/>
<mask id="path-30-inside-10_1208_894" fill="white">
<path d="M0 117H78V155H0V117Z"/>
</mask>
<path d="M0 117H78V155H0V117Z" fill="black" fill-opacity="0.06"/>
<path d="M0 117V116H-1V117H0ZM0 118H78V116H0V118ZM1 155V117H-1V155H1Z" fill="#B9B9B9" mask="url(#path-30-inside-10_1208_894)"/>
<path d="M17.824 135.512H18.972V137.444H17.824V135.512ZM14.212 129.632H15.36V130.808H21.478V129.632H22.64V133.804H14.212V129.632ZM15.36 131.704V132.908H21.478V131.704H15.36ZM12.686 134.84H24.124V135.778H12.686V134.84ZM14.072 137.01H22.668V139.824H15.248V141.392H14.1V138.984H21.52V137.892H14.072V137.01ZM14.1 141.056H23.046V141.952H14.1V141.056ZM34.7909 129.422H35.9529V142.106H34.7909V129.422ZM26.3069 138.088H27.3569C29.4709 138.088 31.3609 138.004 33.6009 137.64L33.7269 138.592C31.4309 138.97 29.5269 139.054 27.3569 139.054H26.3069V138.088ZM26.2789 130.612H32.1309V135.134H27.4689V138.452H26.3069V134.182H30.9549V131.564H26.2789V130.612ZM44.7578 132.95H48.2298V133.888H44.7578V132.95ZM47.6978 129.45H48.8598V138.76H47.6978V129.45ZM40.7818 140.86H49.2098V141.812H40.7818V140.86ZM40.7818 137.822H41.9438V141.266H40.7818V137.822ZM41.9018 130.248C43.7638 130.248 45.1638 131.55 45.1638 133.384C45.1638 135.218 43.7638 136.52 41.9018 136.52C40.0398 136.52 38.6398 135.218 38.6398 133.384C38.6398 131.55 40.0398 130.248 41.9018 130.248ZM41.9018 131.27C40.6698 131.27 39.7598 132.138 39.7598 133.384C39.7598 134.63 40.6698 135.498 41.9018 135.498C43.1198 135.498 44.0438 134.63 44.0438 133.384C44.0438 132.138 43.1198 131.27 41.9018 131.27ZM58.4487 132.474H61.0247V133.426H58.4487V132.474ZM58.4347 134.938H61.0107V135.89H58.4347V134.938ZM51.3507 130.822H58.4347V131.76H51.3507V130.822ZM54.9347 132.418C56.6287 132.418 57.7907 133.342 57.7907 134.756C57.7907 136.17 56.6287 137.108 54.9347 137.108C53.2407 137.108 52.0647 136.17 52.0647 134.756C52.0647 133.342 53.2407 132.418 54.9347 132.418ZM54.9347 133.314C53.8707 133.314 53.1567 133.874 53.1567 134.756C53.1567 135.638 53.8707 136.212 54.9347 136.212C55.9847 136.212 56.7127 135.638 56.7127 134.756C56.7127 133.874 55.9847 133.314 54.9347 133.314ZM54.3607 129.324H55.5227V131.48H54.3607V129.324ZM60.5767 129.436H61.7387V137.612H60.5767V129.436ZM57.5947 137.738C60.2127 137.738 61.8087 138.536 61.8087 139.908C61.8087 141.28 60.2127 142.064 57.5947 142.064C54.9627 142.064 53.3807 141.28 53.3807 139.908C53.3807 138.536 54.9627 137.738 57.5947 137.738ZM57.5947 138.662C55.7327 138.662 54.5847 139.096 54.5847 139.908C54.5847 140.706 55.7327 141.168 57.5947 141.168C59.4567 141.168 60.6047 140.706 60.6047 139.908C60.6047 139.096 59.4567 138.662 57.5947 138.662Z" fill="black"/>
<mask id="path-33-inside-11_1208_894" fill="white">
<path d="M78 117H259V155H78V117Z"/>
</mask>
<path d="M78 117H259V155H78V117Z" fill="white" fill-opacity="0.01"/>
<path d="M78 117V116H77V117H78ZM78 118H259V116H78V118ZM79 155V117H77V155H79Z" fill="#B9B9B9" mask="url(#path-33-inside-11_1208_894)"/>
<path d="M91.233 141V130.818H92.4062V134.577H92.5057C92.5919 134.444 92.7112 134.275 92.8636 134.07C93.0194 133.861 93.2415 133.675 93.5298 133.513C93.8215 133.347 94.2159 133.264 94.7131 133.264C95.3561 133.264 95.9228 133.425 96.4134 133.746C96.9039 134.068 97.2867 134.524 97.5618 135.114C97.8369 135.704 97.9744 136.4 97.9744 137.202C97.9744 138.01 97.8369 138.711 97.5618 139.305C97.2867 139.895 96.9055 140.352 96.4183 140.677C95.9311 140.998 95.3693 141.159 94.733 141.159C94.2424 141.159 93.8497 141.078 93.5547 140.915C93.2597 140.75 93.0327 140.562 92.8736 140.354C92.7145 140.142 92.5919 139.966 92.5057 139.827H92.3665V141H91.233ZM92.3864 137.182C92.3864 137.759 92.4709 138.267 92.6399 138.708C92.8089 139.146 93.0559 139.489 93.3807 139.737C93.7055 139.982 94.1032 140.105 94.5739 140.105C95.0644 140.105 95.4737 139.976 95.8018 139.717C96.1333 139.455 96.3819 139.104 96.5476 138.663C96.7166 138.219 96.8011 137.725 96.8011 137.182C96.8011 136.645 96.7183 136.161 96.5526 135.73C96.3902 135.296 96.1432 134.953 95.8118 134.701C95.4837 134.446 95.071 134.318 94.5739 134.318C94.0966 134.318 93.6955 134.439 93.3707 134.681C93.0459 134.92 92.8007 135.254 92.6349 135.685C92.4692 136.113 92.3864 136.612 92.3864 137.182ZM102.871 141.159C102.182 141.159 101.577 140.995 101.057 140.667C100.54 140.339 100.135 139.88 99.8438 139.29C99.5554 138.7 99.4112 138.01 99.4112 137.222C99.4112 136.426 99.5554 135.732 99.8438 135.138C100.135 134.545 100.54 134.085 101.057 133.756C101.577 133.428 102.182 133.264 102.871 133.264C103.561 133.264 104.164 133.428 104.681 133.756C105.201 134.085 105.606 134.545 105.894 135.138C106.186 135.732 106.332 136.426 106.332 137.222C106.332 138.01 106.186 138.7 105.894 139.29C105.606 139.88 105.201 140.339 104.681 140.667C104.164 140.995 103.561 141.159 102.871 141.159ZM102.871 140.105C103.395 140.105 103.826 139.971 104.164 139.702C104.502 139.434 104.752 139.081 104.915 138.643C105.077 138.206 105.158 137.732 105.158 137.222C105.158 136.711 105.077 136.236 104.915 135.795C104.752 135.354 104.502 134.998 104.164 134.726C103.826 134.454 103.395 134.318 102.871 134.318C102.348 134.318 101.917 134.454 101.579 134.726C101.241 134.998 100.991 135.354 100.828 135.795C100.666 136.236 100.585 136.711 100.585 137.222C100.585 137.732 100.666 138.206 100.828 138.643C100.991 139.081 101.241 139.434 101.579 139.702C101.917 139.971 102.348 140.105 102.871 140.105ZM111.225 141.159C110.536 141.159 109.931 140.995 109.41 140.667C108.893 140.339 108.489 139.88 108.197 139.29C107.909 138.7 107.765 138.01 107.765 137.222C107.765 136.426 107.909 135.732 108.197 135.138C108.489 134.545 108.893 134.085 109.41 133.756C109.931 133.428 110.536 133.264 111.225 133.264C111.914 133.264 112.518 133.428 113.035 133.756C113.555 134.085 113.959 134.545 114.248 135.138C114.539 135.732 114.685 136.426 114.685 137.222C114.685 138.01 114.539 138.7 114.248 139.29C113.959 139.88 113.555 140.339 113.035 140.667C112.518 140.995 111.914 141.159 111.225 141.159ZM111.225 140.105C111.749 140.105 112.18 139.971 112.518 139.702C112.856 139.434 113.106 139.081 113.268 138.643C113.431 138.206 113.512 137.732 113.512 137.222C113.512 136.711 113.431 136.236 113.268 135.795C113.106 135.354 112.856 134.998 112.518 134.726C112.18 134.454 111.749 134.318 111.225 134.318C110.701 134.318 110.27 134.454 109.932 134.726C109.594 134.998 109.344 135.354 109.182 135.795C109.019 136.236 108.938 136.711 108.938 137.222C108.938 137.732 109.019 138.206 109.182 138.643C109.344 139.081 109.594 139.434 109.932 139.702C110.27 139.971 110.701 140.105 111.225 140.105ZM117.65 130.818V141H116.476V130.818H117.65ZM125.547 141V142.094H119.183V141H125.547Z" fill="black"/>
<mask id="path-36-inside-12_1208_894" fill="white">
<path d="M259 117H431V155H259V117Z"/>
</mask>
<path d="M259 117H431V155H259V117Z" fill="white" fill-opacity="0.01"/>
<path d="M259 117V116H258V117H259ZM259 118H431V116H259V118ZM260 155V117H258V155H260Z" fill="#B9B9B9" mask="url(#path-36-inside-12_1208_894)"/>
<path d="M274.85 131.508H275.802V132.054C275.802 134.224 274.374 135.988 272.26 136.674L271.7 135.764C273.576 135.19 274.85 133.72 274.85 132.054V131.508ZM275.06 131.508H276.012V132.054C276.012 133.594 277.244 134.98 279.106 135.526L278.56 136.45C276.446 135.792 275.06 134.084 275.06 132.054V131.508ZM272.05 130.92H278.798V131.858H272.05V130.92ZM274.85 129.38H276.012V131.298H274.85V129.38ZM280.352 129.436H281.514V136.926H280.352V129.436ZM281.192 132.628H283.39V133.608H281.192V132.628ZM273.562 137.514H281.514V141.924H273.562V137.514ZM280.38 138.438H274.696V140.986H280.38V138.438ZM285.37 135.909C285.37 134.656 285.533 133.504 285.858 132.454C286.186 131.4 286.653 130.43 287.26 129.545H288.294C288.055 129.874 287.831 130.278 287.623 130.759C287.417 131.236 287.236 131.761 287.081 132.335C286.925 132.905 286.802 133.495 286.713 134.104C286.627 134.714 286.583 135.316 286.583 135.909C286.583 136.698 286.66 137.498 286.812 138.31C286.965 139.122 287.17 139.876 287.429 140.572C287.687 141.268 287.975 141.835 288.294 142.273H287.26C286.653 141.388 286.186 140.42 285.858 139.369C285.533 138.315 285.37 137.162 285.37 135.909ZM289.627 131.912V130.818H297.264V131.912H294.062V141H292.829V131.912H289.627ZM298.214 141V133.364H299.348V134.517H299.428C299.567 134.139 299.819 133.833 300.183 133.597C300.548 133.362 300.959 133.244 301.416 133.244C301.502 133.244 301.61 133.246 301.739 133.249C301.869 133.253 301.966 133.258 302.033 133.264V134.457C301.993 134.447 301.902 134.433 301.759 134.413C301.62 134.389 301.473 134.378 301.317 134.378C300.946 134.378 300.614 134.456 300.322 134.612C300.034 134.764 299.805 134.976 299.636 135.248C299.471 135.516 299.388 135.823 299.388 136.168V141H298.214ZM308.236 137.878V133.364H309.409V141H308.236V139.707H308.156C307.977 140.095 307.699 140.425 307.321 140.697C306.943 140.965 306.466 141.099 305.889 141.099C305.412 141.099 304.988 140.995 304.617 140.786C304.245 140.574 303.954 140.256 303.742 139.832C303.53 139.404 303.423 138.866 303.423 138.216V133.364H304.597V138.136C304.597 138.693 304.753 139.137 305.064 139.469C305.379 139.8 305.78 139.966 306.267 139.966C306.559 139.966 306.856 139.891 307.157 139.742C307.462 139.593 307.717 139.364 307.923 139.056C308.132 138.748 308.236 138.355 308.236 137.878ZM314.76 141.159C314.024 141.159 313.389 140.997 312.856 140.672C312.326 140.344 311.916 139.886 311.628 139.3C311.343 138.71 311.2 138.024 311.2 137.241C311.2 136.459 311.343 135.77 311.628 135.173C311.916 134.573 312.317 134.106 312.831 133.771C313.348 133.433 313.951 133.264 314.641 133.264C315.038 133.264 315.431 133.33 315.819 133.463C316.207 133.596 316.56 133.811 316.878 134.109C317.196 134.404 317.45 134.795 317.638 135.283C317.827 135.77 317.922 136.37 317.922 137.082V137.58H312.036V136.565H316.729C316.729 136.134 316.643 135.75 316.47 135.412C316.301 135.074 316.059 134.807 315.744 134.612C315.433 134.416 315.065 134.318 314.641 134.318C314.173 134.318 313.769 134.434 313.428 134.666C313.089 134.895 312.829 135.193 312.647 135.561C312.465 135.929 312.374 136.323 312.374 136.744V137.42C312.374 137.997 312.473 138.486 312.672 138.887C312.874 139.285 313.154 139.588 313.512 139.797C313.87 140.002 314.286 140.105 314.76 140.105C315.068 140.105 315.347 140.062 315.595 139.976C315.847 139.886 316.064 139.754 316.246 139.578C316.429 139.399 316.57 139.177 316.669 138.912L317.803 139.23C317.683 139.615 317.483 139.953 317.201 140.244C316.919 140.533 316.571 140.758 316.157 140.92C315.743 141.08 315.277 141.159 314.76 141.159ZM322.212 136.705C322.212 137.957 322.048 139.111 321.72 140.165C321.395 141.215 320.93 142.183 320.323 143.068H319.289C319.528 142.74 319.75 142.336 319.955 141.855C320.164 141.378 320.346 140.854 320.502 140.284C320.658 139.711 320.779 139.119 320.865 138.509C320.955 137.896 320.999 137.295 320.999 136.705C320.999 135.916 320.923 135.115 320.771 134.303C320.618 133.491 320.413 132.737 320.154 132.041C319.896 131.345 319.607 130.778 319.289 130.341H320.323C320.93 131.226 321.395 132.195 321.72 133.249C322.048 134.3 322.212 135.452 322.212 136.705ZM326.529 139.608L326.449 140.145C326.393 140.523 326.307 140.927 326.191 141.358C326.078 141.789 325.961 142.195 325.838 142.576C325.715 142.957 325.614 143.26 325.535 143.486H324.64C324.683 143.274 324.739 142.994 324.809 142.646C324.878 142.298 324.948 141.908 325.018 141.477C325.09 141.05 325.15 140.612 325.197 140.165L325.256 139.608H326.529ZM341.506 129.436H342.668V142.092H341.506V129.436ZM338.552 134.504H342.024V135.47H338.552V134.504ZM337.446 130.794H338.594C338.594 134.406 337.096 137.598 332.896 139.698L332.252 138.788C335.934 136.982 337.446 134.294 337.446 130.99V130.794ZM332.798 130.794H338.062V131.746H332.798V130.794ZM348.505 130.696H349.471V131.704C349.471 134.056 348.057 136.044 345.929 136.814L345.327 135.904C347.231 135.232 348.505 133.538 348.505 131.704V130.696ZM348.729 130.696H349.695V131.704C349.695 133.398 351.011 134.924 352.887 135.54L352.299 136.45C350.199 135.736 348.729 133.902 348.729 131.704V130.696ZM345.621 130.402H352.551V131.354H345.621V130.402ZM354.343 129.436H355.519V138.032H354.343V129.436ZM350.815 137.332H351.809V137.64C351.809 140.006 349.583 141.574 347.035 142.05L346.587 141.126C348.841 140.762 350.815 139.432 350.815 137.64V137.332ZM351.025 137.332H352.019V137.64C352.019 139.432 353.979 140.762 356.247 141.126L355.785 142.05C353.237 141.574 351.025 140.006 351.025 137.64V137.332ZM358.816 135.909C358.816 134.656 358.978 133.504 359.303 132.454C359.631 131.4 360.098 130.43 360.705 129.545H361.739C361.5 129.874 361.277 130.278 361.068 130.759C360.862 131.236 360.682 131.761 360.526 132.335C360.37 132.905 360.248 133.495 360.158 134.104C360.072 134.714 360.029 135.316 360.029 135.909C360.029 136.698 360.105 137.498 360.257 138.31C360.41 139.122 360.615 139.876 360.874 140.572C361.132 141.268 361.421 141.835 361.739 142.273H360.705C360.098 141.388 359.631 140.42 359.303 139.369C358.978 138.315 358.816 137.162 358.816 135.909ZM363.629 141V130.818H369.735V131.912H364.862V135.352H369.277V136.446H364.862V141H363.629ZM373.934 141.179C373.45 141.179 373.011 141.088 372.617 140.906C372.222 140.72 371.909 140.453 371.677 140.105C371.445 139.754 371.329 139.33 371.329 138.832C371.329 138.395 371.415 138.04 371.588 137.768C371.76 137.493 371.99 137.278 372.279 137.122C372.567 136.966 372.885 136.85 373.233 136.774C373.585 136.695 373.938 136.632 374.292 136.585C374.756 136.526 375.132 136.481 375.421 136.451C375.712 136.418 375.925 136.363 376.057 136.287C376.193 136.211 376.261 136.078 376.261 135.889V135.849C376.261 135.359 376.127 134.978 375.858 134.706C375.593 134.434 375.19 134.298 374.65 134.298C374.09 134.298 373.651 134.421 373.333 134.666C373.015 134.911 372.791 135.173 372.662 135.452L371.548 135.054C371.747 134.59 372.012 134.229 372.343 133.97C372.678 133.708 373.043 133.526 373.437 133.423C373.835 133.317 374.226 133.264 374.61 133.264C374.856 133.264 375.137 133.294 375.456 133.354C375.777 133.41 376.087 133.528 376.385 133.707C376.687 133.886 376.937 134.156 377.136 134.517C377.335 134.878 377.434 135.362 377.434 135.969V141H376.261V139.966H376.201C376.122 140.132 375.989 140.309 375.804 140.498C375.618 140.687 375.371 140.848 375.063 140.98C374.755 141.113 374.378 141.179 373.934 141.179ZM374.113 140.125C374.577 140.125 374.968 140.034 375.287 139.852C375.608 139.669 375.85 139.434 376.012 139.146C376.178 138.857 376.261 138.554 376.261 138.236V137.162C376.211 137.222 376.102 137.276 375.933 137.326C375.767 137.372 375.575 137.414 375.356 137.45C375.141 137.483 374.93 137.513 374.725 137.54C374.523 137.563 374.359 137.583 374.233 137.599C373.928 137.639 373.643 137.704 373.377 137.793C373.116 137.879 372.904 138.01 372.741 138.186C372.582 138.358 372.502 138.594 372.502 138.892C372.502 139.3 372.653 139.608 372.955 139.817C373.26 140.022 373.646 140.125 374.113 140.125ZM380.749 130.818V141H379.576V130.818H380.749ZM388.307 135.074L387.253 135.372C387.187 135.196 387.089 135.026 386.96 134.86C386.834 134.691 386.662 134.552 386.443 134.442C386.224 134.333 385.944 134.278 385.603 134.278C385.135 134.278 384.746 134.386 384.434 134.602C384.126 134.814 383.972 135.084 383.972 135.412C383.972 135.704 384.078 135.934 384.29 136.103C384.502 136.272 384.834 136.413 385.284 136.526L386.418 136.804C387.101 136.97 387.609 137.223 387.944 137.565C388.279 137.903 388.446 138.339 388.446 138.872C388.446 139.31 388.32 139.701 388.069 140.045C387.82 140.39 387.472 140.662 387.025 140.861C386.577 141.06 386.057 141.159 385.463 141.159C384.685 141.159 384.04 140.99 383.529 140.652C383.019 140.314 382.696 139.82 382.56 139.17L383.674 138.892C383.78 139.303 383.98 139.611 384.275 139.817C384.574 140.022 384.963 140.125 385.444 140.125C385.99 140.125 386.425 140.009 386.746 139.777C387.071 139.542 387.233 139.26 387.233 138.932C387.233 138.667 387.141 138.445 386.955 138.266C386.769 138.083 386.484 137.947 386.1 137.858L384.827 137.56C384.128 137.394 383.614 137.137 383.286 136.789C382.961 136.438 382.799 135.999 382.799 135.472C382.799 135.041 382.92 134.66 383.162 134.328C383.407 133.997 383.74 133.737 384.161 133.548C384.585 133.359 385.066 133.264 385.603 133.264C386.358 133.264 386.952 133.43 387.382 133.761C387.817 134.093 388.125 134.53 388.307 135.074ZM393.414 141.159C392.678 141.159 392.044 140.997 391.51 140.672C390.98 140.344 390.57 139.886 390.282 139.3C389.997 138.71 389.855 138.024 389.855 137.241C389.855 136.459 389.997 135.77 390.282 135.173C390.57 134.573 390.972 134.106 391.485 133.771C392.002 133.433 392.606 133.264 393.295 133.264C393.693 133.264 394.085 133.33 394.473 133.463C394.861 133.596 395.214 133.811 395.532 134.109C395.85 134.404 396.104 134.795 396.293 135.283C396.482 135.77 396.576 136.37 396.576 137.082V137.58H390.69V136.565H395.383C395.383 136.134 395.297 135.75 395.124 135.412C394.955 135.074 394.713 134.807 394.399 134.612C394.087 134.416 393.719 134.318 393.295 134.318C392.828 134.318 392.423 134.434 392.082 134.666C391.744 134.895 391.484 135.193 391.301 135.561C391.119 135.929 391.028 136.323 391.028 136.744V137.42C391.028 137.997 391.127 138.486 391.326 138.887C391.528 139.285 391.808 139.588 392.166 139.797C392.524 140.002 392.94 140.105 393.414 140.105C393.722 140.105 394.001 140.062 394.249 139.976C394.501 139.886 394.718 139.754 394.901 139.578C395.083 139.399 395.224 139.177 395.323 138.912L396.457 139.23C396.338 139.615 396.137 139.953 395.855 140.244C395.574 140.533 395.226 140.758 394.811 140.92C394.397 141.08 393.931 141.159 393.414 141.159ZM400.867 136.705C400.867 137.957 400.703 139.111 400.374 140.165C400.05 141.215 399.584 142.183 398.977 143.068H397.943C398.182 142.74 398.404 142.336 398.61 141.855C398.818 141.378 399.001 140.854 399.156 140.284C399.312 139.711 399.433 139.119 399.519 138.509C399.609 137.896 399.654 137.295 399.654 136.705C399.654 135.916 399.577 135.115 399.425 134.303C399.272 133.491 399.067 132.737 398.808 132.041C398.55 131.345 398.262 130.778 397.943 130.341H398.977C399.584 131.226 400.05 132.195 400.374 133.249C400.703 134.3 400.867 135.452 400.867 136.705Z" fill="black"/>
</g>
<g clip-path="url(#clip5_1208_894)">
<rect width="431" height="38" transform="translate(0 155)" fill="white" fill-opacity="0.01"/>
<mask id="path-39-inside-13_1208_894" fill="white">
<path d="M0 155H78V193H0V155Z"/>
</mask>
<path d="M0 155H78V193H0V155Z" fill="black" fill-opacity="0.06"/>
<path d="M0 155V154H-1V155H0ZM0 156H78V154H0V156ZM1 193V155H-1V193H1Z" fill="#B9B9B9" mask="url(#path-39-inside-13_1208_894)"/>
<path d="M12.686 173.904H24.152V174.856H12.686V173.904ZM17.922 174.492H19.084V177.404H17.922V174.492ZM14.156 168.024H22.668V172.476H14.156V168.024ZM21.52 168.962H15.29V171.538H21.52V168.962ZM14.142 178.86H22.878V179.812H14.142V178.86ZM14.142 176.186H15.29V179.196H14.142V176.186ZM28.7009 169.242H29.6249V171.3C29.6249 173.932 28.0149 176.648 26.0409 177.656L25.3689 176.732C27.1749 175.85 28.7009 173.442 28.7009 171.3V169.242ZM28.9109 169.242H29.8349V171.3C29.8349 173.302 31.2629 175.556 33.0969 176.424L32.4389 177.348C30.4369 176.354 28.9109 173.806 28.9109 171.3V169.242ZM25.8169 168.724H32.6349V169.704H25.8169V168.724ZM34.1329 167.436H35.3089V180.092H34.1329V167.436ZM35.0289 172.546H37.3809V173.526H35.0289V172.546ZM45.5698 170.474H48.1458V171.426H45.5698V170.474ZM45.5558 172.938H48.1318V173.89H45.5558V172.938ZM38.4718 168.822H45.5558V169.76H38.4718V168.822ZM42.0558 170.418C43.7498 170.418 44.9118 171.342 44.9118 172.756C44.9118 174.17 43.7498 175.108 42.0558 175.108C40.3618 175.108 39.1858 174.17 39.1858 172.756C39.1858 171.342 40.3618 170.418 42.0558 170.418ZM42.0558 171.314C40.9918 171.314 40.2778 171.874 40.2778 172.756C40.2778 173.638 40.9918 174.212 42.0558 174.212C43.1058 174.212 43.8338 173.638 43.8338 172.756C43.8338 171.874 43.1058 171.314 42.0558 171.314ZM41.4818 167.324H42.6438V169.48H41.4818V167.324ZM47.6978 167.436H48.8598V175.612H47.6978V167.436ZM44.7158 175.738C47.3338 175.738 48.9298 176.536 48.9298 177.908C48.9298 179.28 47.3338 180.064 44.7158 180.064C42.0838 180.064 40.5018 179.28 40.5018 177.908C40.5018 176.536 42.0838 175.738 44.7158 175.738ZM44.7158 176.662C42.8538 176.662 41.7058 177.096 41.7058 177.908C41.7058 178.706 42.8538 179.168 44.7158 179.168C46.5778 179.168 47.7258 178.706 47.7258 177.908C47.7258 177.096 46.5778 176.662 44.7158 176.662Z" fill="black"/>
<mask id="path-42-inside-14_1208_894" fill="white">
<path d="M78 155H259V193H78V155Z"/>
</mask>
<path d="M78 155H259V193H78V155Z" fill="white" fill-opacity="0.01"/>
<path d="M78 155V154H77V155H78ZM78 156H259V154H78V156ZM79 193V155H77V193H79Z" fill="#B9B9B9" mask="url(#path-42-inside-14_1208_894)"/>
<path d="M96.483 173.074L95.429 173.372C95.3627 173.196 95.2649 173.026 95.1357 172.86C95.0097 172.691 94.8374 172.552 94.6186 172.442C94.3999 172.333 94.1198 172.278 93.7784 172.278C93.3111 172.278 92.9216 172.386 92.6101 172.602C92.3018 172.814 92.1477 173.084 92.1477 173.412C92.1477 173.704 92.2538 173.934 92.4659 174.103C92.678 174.272 93.0095 174.413 93.4602 174.526L94.5938 174.804C95.2765 174.97 95.7853 175.223 96.12 175.565C96.4548 175.903 96.6222 176.339 96.6222 176.872C96.6222 177.31 96.4962 177.701 96.2443 178.045C95.9957 178.39 95.6477 178.662 95.2003 178.861C94.7528 179.06 94.2325 179.159 93.6392 179.159C92.8603 179.159 92.2157 178.99 91.7053 178.652C91.1948 178.314 90.8717 177.82 90.7358 177.17L91.8494 176.892C91.9555 177.303 92.156 177.611 92.451 177.817C92.7493 178.022 93.1387 178.125 93.6193 178.125C94.1662 178.125 94.6004 178.009 94.9219 177.777C95.2467 177.542 95.4091 177.26 95.4091 176.932C95.4091 176.667 95.3163 176.445 95.1307 176.266C94.9451 176.083 94.66 175.947 94.2756 175.858L93.0028 175.56C92.3035 175.394 91.7898 175.137 91.4616 174.789C91.1368 174.438 90.9744 173.999 90.9744 173.472C90.9744 173.041 91.0954 172.66 91.3374 172.328C91.5826 171.997 91.9157 171.737 92.3366 171.548C92.7609 171.359 93.2415 171.264 93.7784 171.264C94.5341 171.264 95.1274 171.43 95.5582 171.761C95.9924 172.093 96.3007 172.53 96.483 173.074ZM101.709 171.364V172.358H97.752V171.364H101.709ZM98.9054 169.534H100.079V176.812C100.079 177.144 100.127 177.393 100.223 177.558C100.322 177.721 100.448 177.83 100.601 177.886C100.756 177.939 100.921 177.966 101.093 177.966C101.222 177.966 101.328 177.959 101.411 177.946C101.494 177.929 101.56 177.916 101.61 177.906L101.849 178.96C101.769 178.99 101.658 179.02 101.515 179.05C101.373 179.083 101.192 179.099 100.974 179.099C100.642 179.099 100.317 179.028 99.9991 178.886C99.6842 178.743 99.4224 178.526 99.2136 178.234C99.0081 177.943 98.9054 177.575 98.9054 177.131V169.534ZM103.474 179V171.364H104.608V172.517H104.687C104.827 172.139 105.078 171.833 105.443 171.597C105.808 171.362 106.219 171.244 106.676 171.244C106.762 171.244 106.87 171.246 106.999 171.249C107.128 171.253 107.226 171.258 107.292 171.264V172.457C107.253 172.447 107.162 172.433 107.019 172.413C106.88 172.389 106.732 172.378 106.577 172.378C106.205 172.378 105.874 172.456 105.582 172.612C105.294 172.764 105.065 172.976 104.896 173.248C104.73 173.516 104.648 173.823 104.648 174.168V179H103.474ZM113.953 179V180.094H107.589V179H113.953Z" fill="black"/>
<mask id="path-45-inside-15_1208_894" fill="white">
<path d="M259 155H431V193H259V155Z"/>
</mask>
<path d="M259 155H431V193H259V155Z" fill="white" fill-opacity="0.01"/>
<path d="M259 155V154H258V155H259ZM259 156H431V154H259V156ZM260 193V155H258V193H260Z" fill="#B9B9B9" mask="url(#path-45-inside-15_1208_894)"/>
<path d="M271.686 173.904H283.152V174.856H271.686V173.904ZM276.922 174.492H278.084V177.404H276.922V174.492ZM273.156 168.024H281.668V172.476H273.156V168.024ZM280.52 168.962H274.29V171.538H280.52V168.962ZM273.142 178.86H281.878V179.812H273.142V178.86ZM273.142 176.186H274.29V179.196H273.142V176.186ZM287.701 169.242H288.625V171.3C288.625 173.932 287.015 176.648 285.041 177.656L284.369 176.732C286.175 175.85 287.701 173.442 287.701 171.3V169.242ZM287.911 169.242H288.835V171.3C288.835 173.302 290.263 175.556 292.097 176.424L291.439 177.348C289.437 176.354 287.911 173.806 287.911 171.3V169.242ZM284.817 168.724H291.635V169.704H284.817V168.724ZM293.133 167.436H294.309V180.092H293.133V167.436ZM294.029 172.546H296.381V173.526H294.029V172.546ZM303.38 168.948H306.978V169.886H303.38V168.948ZM303.38 171.566H306.978V172.49H303.38V171.566ZM300.902 167.856C302.792 167.856 304.164 169.046 304.164 170.754C304.164 172.434 302.792 173.624 300.902 173.624C299.012 173.624 297.64 172.434 297.64 170.754C297.64 169.046 299.012 167.856 300.902 167.856ZM300.902 168.822C299.656 168.822 298.76 169.62 298.76 170.754C298.76 171.874 299.656 172.672 300.902 172.672C302.148 172.672 303.058 171.874 303.058 170.754C303.058 169.62 302.148 168.822 300.902 168.822ZM306.698 167.436H307.86V173.918H306.698V167.436ZM299.712 174.562H307.86V177.614H300.874V179.518H299.74V176.746H306.712V175.486H299.712V174.562ZM299.74 179H308.322V179.924H299.74V179Z" fill="black"/>
</g>
</g>
<rect x="0.5" y="0.5" width="430" height="192" rx="3.5" stroke="#B9B9B9"/>
<path d="M83 1H259V41H83V1Z" fill="#D1D1D1"/>
<path d="M140.344 12.608H142.376V27.424H140.344V12.608ZM134.712 18.016H138.152V19.728H134.712V18.016ZM137.288 12.864H139.272V26.768H137.288V12.864ZM130.072 22.384H131.096C133.192 22.384 134.584 22.336 136.216 22.016L136.376 23.744C134.728 24.08 133.256 24.144 131.096 24.144H130.072V22.384ZM130.072 14.272H135.72V15.968H132.168V23.12H130.072V14.272ZM154.519 12.592H156.663V27.456H154.519V12.592ZM148.679 13.632C150.919 13.632 152.567 15.68 152.567 18.912C152.567 22.176 150.919 24.224 148.679 24.224C146.439 24.224 144.791 22.176 144.791 18.912C144.791 15.68 146.439 13.632 148.679 13.632ZM148.679 15.568C147.575 15.568 146.823 16.736 146.823 18.912C146.823 21.12 147.575 22.304 148.679 22.304C149.783 22.304 150.519 21.12 150.519 18.912C150.519 16.736 149.783 15.568 148.679 15.568ZM169.398 12.592H171.51V27.456H169.398V12.592ZM166.854 17.808H169.638V19.536H166.854V17.808ZM159.75 22.384H160.934C163.382 22.384 165.206 22.352 167.302 22.016L167.494 23.712C165.35 24.048 163.43 24.112 160.934 24.112H159.75V22.384ZM159.75 13.84H166.614V15.568H161.862V22.928H159.75V13.84ZM161.382 17.968H166.102V19.632H161.382V17.968ZM184.227 21.968H186.403V27.424H184.227V21.968ZM189.347 21.968H191.523V27.424H189.347V21.968ZM181.203 20.848H194.627V22.56H181.203V20.848ZM187.875 13.104C191.043 13.104 193.235 14.4 193.235 16.432C193.235 18.432 191.043 19.728 187.875 19.728C184.723 19.728 182.531 18.432 182.531 16.432C182.531 14.4 184.723 13.104 187.875 13.104ZM187.875 14.8C185.939 14.8 184.707 15.376 184.707 16.432C184.707 17.472 185.939 18.048 187.875 18.048C189.827 18.048 191.043 17.472 191.043 16.432C191.043 15.376 189.827 14.8 187.875 14.8ZM204.289 15.856H207.009V17.552H204.289V15.856ZM204.257 18.816H206.961V20.512H204.257V18.816ZM195.969 13.936H204.097V15.616H195.969V13.936ZM200.129 16.128C202.161 16.128 203.601 17.248 203.601 18.896C203.601 20.544 202.161 21.664 200.129 21.664C198.097 21.664 196.657 20.544 196.657 18.896C196.657 17.248 198.097 16.128 200.129 16.128ZM200.129 17.712C199.233 17.712 198.641 18.112 198.641 18.896C198.641 19.68 199.233 20.08 200.129 20.08C201.009 20.08 201.633 19.68 201.633 18.896C201.633 18.112 201.009 17.712 200.129 17.712ZM199.073 12.48H201.201V15.104H199.073V12.48ZM206.193 12.608H208.321V22.048H206.193V12.608ZM203.313 22.224C206.433 22.224 208.385 23.2 208.385 24.832C208.385 26.464 206.433 27.424 203.313 27.424C200.177 27.424 198.241 26.464 198.241 24.832C198.241 23.2 200.177 22.224 203.313 22.224ZM203.313 23.856C201.489 23.856 200.481 24.144 200.481 24.832C200.481 25.504 201.489 25.824 203.313 25.824C205.137 25.824 206.129 25.504 206.129 24.832C206.129 24.144 205.137 23.856 203.313 23.856Z" fill="black"/>
<defs>
<clipPath id="clip0_1208_894">
<rect width="431" height="193" rx="4" fill="white"/>
</clipPath>
<clipPath id="clip1_1208_894">
<rect width="431" height="41" fill="white"/>
</clipPath>
<clipPath id="clip2_1208_894">
<rect width="431" height="38" fill="white" transform="translate(0 41)"/>
</clipPath>
<clipPath id="clip3_1208_894">
<rect width="431" height="38" fill="white" transform="translate(0 79)"/>
</clipPath>
<clipPath id="clip4_1208_894">
<rect width="431" height="38" fill="white" transform="translate(0 117)"/>
</clipPath>
<clipPath id="clip5_1208_894">
<rect width="431" height="38" fill="white" transform="translate(0 155)"/>
</clipPath>
</defs>
</svg>
