<svg width="162" height="91" viewBox="0 0 162 91" fill="none" xmlns="http://www.w3.org/2000/svg">
<path d="M6.66359 9.69318V16H3.63802V5.09091H6.52154V7.01562H6.64938C6.89086 6.38116 7.29569 5.87926 7.86387 5.50994C8.43205 5.13589 9.12097 4.94886 9.93063 4.94886C10.6882 4.94886 11.3487 5.11458 11.9122 5.44602C12.4756 5.77746 12.9136 6.25095 13.2261 6.86648C13.5386 7.47727 13.6948 8.20644 13.6948 9.05398V16H10.6693V9.59375C10.674 8.92614 10.5036 8.4053 10.1579 8.03125C9.81226 7.65246 9.33641 7.46307 8.73035 7.46307C8.32315 7.46307 7.9633 7.55066 7.6508 7.72585C7.34304 7.90104 7.10156 8.15672 6.92637 8.4929C6.75592 8.82434 6.66832 9.22443 6.66359 9.69318ZM15.6994 20.0909V5.09091H18.6824V6.9233H18.8173C18.9499 6.62973 19.1417 6.33144 19.3926 6.02841C19.6483 5.72064 19.9797 5.46496 20.3869 5.26136C20.7989 5.05303 21.3102 4.94886 21.921 4.94886C22.7165 4.94886 23.4504 5.1572 24.1227 5.57386C24.7951 5.9858 25.3325 6.60843 25.7349 7.44176C26.1374 8.27036 26.3386 9.30966 26.3386 10.5597C26.3386 11.7765 26.1421 12.804 25.7491 13.642C25.3609 14.4754 24.8306 15.1075 24.1582 15.5384C23.4906 15.9645 22.7425 16.1776 21.9139 16.1776C21.3268 16.1776 20.8273 16.0805 20.4153 15.8864C20.0081 15.6922 19.6743 15.4484 19.4139 15.1548C19.1535 14.8565 18.9546 14.5559 18.8173 14.2528H18.725V20.0909H15.6994ZM18.6611 10.5455C18.6611 11.1941 18.751 11.7599 18.931 12.2429C19.1109 12.7259 19.3713 13.1023 19.7122 13.3722C20.0531 13.6373 20.4674 13.7699 20.9551 13.7699C21.4475 13.7699 21.8642 13.6349 22.2051 13.3651C22.546 13.0904 22.8041 12.7116 22.9793 12.2287C23.1592 11.741 23.2491 11.1799 23.2491 10.5455C23.2491 9.91572 23.1615 9.36174 22.9864 8.88352C22.8112 8.4053 22.5531 8.03125 22.2122 7.76136C21.8713 7.49148 21.4523 7.35653 20.9551 7.35653C20.4627 7.35653 20.046 7.48674 19.7051 7.74716C19.3689 8.00758 19.1109 8.37689 18.931 8.85511C18.751 9.33333 18.6611 9.89678 18.6611 10.5455ZM29.7441 16.1847C29.2754 16.1847 28.8729 16.0189 28.5368 15.6875C28.2053 15.3513 28.0396 14.9489 28.0396 14.4801C28.0396 14.0161 28.2053 13.6184 28.5368 13.2869C28.8729 12.9555 29.2754 12.7898 29.7441 12.7898C30.1987 12.7898 30.5964 12.9555 30.9373 13.2869C31.2782 13.6184 31.4487 14.0161 31.4487 14.4801C31.4487 14.7926 31.3682 15.0791 31.2072 15.3395C31.051 15.5952 30.845 15.8011 30.5893 15.9574C30.3336 16.1089 30.0519 16.1847 29.7441 16.1847ZM42.6294 8.2017L39.8595 8.37216C39.8122 8.13542 39.7104 7.92235 39.5541 7.73295C39.3979 7.53883 39.1919 7.38494 38.9362 7.27131C38.6853 7.15294 38.3846 7.09375 38.0342 7.09375C37.5655 7.09375 37.1701 7.19318 36.8482 7.39205C36.5262 7.58617 36.3652 7.84659 36.3652 8.1733C36.3652 8.43371 36.4694 8.65388 36.6777 8.83381C36.886 9.01373 37.2435 9.15814 37.7502 9.26705L39.7246 9.66477C40.7852 9.88258 41.5759 10.233 42.0967 10.7159C42.6176 11.1989 42.878 11.8333 42.878 12.6193C42.878 13.3343 42.6673 13.9616 42.2459 14.5014C41.8292 15.0412 41.2563 15.4626 40.5271 15.7656C39.8027 16.0639 38.967 16.2131 38.02 16.2131C36.5759 16.2131 35.4253 15.9124 34.5683 15.3111C33.7161 14.705 33.2165 13.8812 33.0698 12.8395L36.0456 12.6832C36.1356 13.1236 36.3534 13.4598 36.699 13.6918C37.0447 13.919 37.4874 14.0327 38.0271 14.0327C38.5574 14.0327 38.9836 13.9309 39.3055 13.7273C39.6323 13.5189 39.798 13.2514 39.8027 12.9247C39.798 12.6501 39.682 12.4252 39.4547 12.25C39.2274 12.0701 38.877 11.9328 38.4036 11.8381L36.5144 11.4616C35.449 11.2486 34.6559 10.8793 34.1351 10.3537C33.619 9.82812 33.3609 9.15814 33.3609 8.34375C33.3609 7.64299 33.5503 7.0393 33.9291 6.53267C34.3127 6.02604 34.8501 5.63542 35.5413 5.3608C36.2374 5.08617 37.0518 4.94886 37.9845 4.94886C39.3624 4.94886 40.4466 5.24006 41.2374 5.82244C42.0328 6.40483 42.4968 7.19792 42.6294 8.2017ZM44.4032 16V5.09091H47.4287V16H44.4032ZM45.9231 3.68466C45.4732 3.68466 45.0874 3.53551 44.7654 3.23722C44.4482 2.93419 44.2895 2.57197 44.2895 2.15057C44.2895 1.7339 44.4482 1.37642 44.7654 1.07812C45.0874 0.775094 45.4732 0.623579 45.9231 0.623579C46.3729 0.623579 46.7564 0.775094 47.0736 1.07812C47.3956 1.37642 47.5566 1.7339 47.5566 2.15057C47.5566 2.57197 47.3956 2.93419 47.0736 3.23722C46.7564 3.53551 46.3729 3.68466 45.9231 3.68466ZM52.498 9.69318V16H49.4724V5.09091H52.3559V7.01562H52.4838C52.7252 6.38116 53.1301 5.87926 53.6983 5.50994C54.2664 5.13589 54.9554 4.94886 55.765 4.94886C56.5226 4.94886 57.1831 5.11458 57.7465 5.44602C58.31 5.77746 58.748 6.25095 59.0605 6.86648C59.373 7.47727 59.5292 8.20644 59.5292 9.05398V16H56.5037V9.59375C56.5084 8.92614 56.3379 8.4053 55.9923 8.03125C55.6466 7.65246 55.1708 7.46307 54.5647 7.46307C54.1575 7.46307 53.7977 7.55066 53.4852 7.72585C53.1774 7.90104 52.9359 8.15672 52.7608 8.4929C52.5903 8.82434 52.5027 9.22443 52.498 9.69318ZM62.2014 10.169C62.2014 8.40767 62.4358 6.78598 62.9045 5.30398C63.378 3.82197 64.1001 2.44886 65.0707 1.18466H67.9614C67.592 1.65341 67.2488 2.22633 66.9315 2.90341C66.6143 3.57576 66.3373 4.31439 66.1006 5.11932C65.8638 5.92424 65.6792 6.75758 65.5466 7.61932C65.414 8.47633 65.3477 9.32623 65.3477 10.169C65.3477 11.2912 65.4614 12.4252 65.6886 13.571C65.9206 14.7121 66.2331 15.7727 66.6261 16.7528C67.0239 17.733 67.4689 18.5355 67.9614 19.1605H65.0707C64.1001 17.8963 63.378 16.5232 62.9045 15.0412C62.4358 13.5592 62.2014 11.9351 62.2014 10.169ZM72.8743 16.2557C72.183 16.2557 71.5557 16.1255 70.9922 15.8651C70.4288 15.5999 69.9813 15.2188 69.6499 14.7216C69.3185 14.2197 69.1527 13.6136 69.1527 12.9034C69.1527 12.2784 69.2758 11.7718 69.5221 11.3835C69.7683 10.9905 70.0973 10.6828 70.5093 10.4602C70.9212 10.2377 71.3757 10.072 71.8729 9.96307C72.3748 9.84943 72.8791 9.75947 73.3857 9.69318C74.0486 9.60795 74.586 9.54403 74.9979 9.50142C75.4146 9.45407 75.7176 9.37595 75.907 9.26705C76.1011 9.15814 76.1982 8.96875 76.1982 8.69886V8.64205C76.1982 7.94129 76.0064 7.39678 75.6229 7.00852C75.2441 6.62027 74.6688 6.42614 73.8971 6.42614C73.0969 6.42614 72.4695 6.60133 72.0149 6.9517C71.5604 7.30208 71.2408 7.67614 71.0561 8.07386L69.4652 7.50568C69.7493 6.8428 70.1281 6.3267 70.6016 5.95739C71.0798 5.58333 71.6006 5.32292 72.1641 5.17614C72.7323 5.02462 73.291 4.94886 73.8402 4.94886C74.1906 4.94886 74.5931 4.99148 75.0476 5.0767C75.5069 5.1572 75.9496 5.32528 76.3757 5.58097C76.8066 5.83665 77.1641 6.22254 77.4482 6.73864C77.7323 7.25473 77.8743 7.94602 77.8743 8.8125V16H76.1982V14.5227H76.113C75.9993 14.7595 75.8099 15.0128 75.5448 15.2827C75.2796 15.5526 74.9269 15.7822 74.4865 15.9716C74.0462 16.161 73.5088 16.2557 72.8743 16.2557ZM73.13 14.75C73.7929 14.75 74.3516 14.6198 74.8061 14.3594C75.2654 14.099 75.6111 13.7628 75.8431 13.3509C76.0798 12.9389 76.1982 12.5057 76.1982 12.0511V10.517C76.1272 10.6023 75.9709 10.6804 75.7294 10.7514C75.4927 10.8177 75.2181 10.8769 74.9056 10.929C74.5978 10.9763 74.2971 11.0189 74.0036 11.0568C73.7148 11.09 73.4804 11.1184 73.3005 11.142C72.8649 11.1989 72.4577 11.2912 72.0789 11.419C71.7048 11.5421 71.4018 11.7292 71.1698 11.9801C70.9425 12.2263 70.8289 12.5625 70.8289 12.9886C70.8289 13.571 71.0443 14.0114 71.4752 14.3097C71.9108 14.6032 72.4624 14.75 73.13 14.75ZM80.5536 16V5.09091H82.1729V6.73864H82.2866C82.4854 6.19886 82.8453 5.76089 83.3661 5.42472C83.887 5.08854 84.4741 4.92045 85.1275 4.92045C85.2506 4.92045 85.4045 4.92282 85.5891 4.92756C85.7738 4.93229 85.9135 4.93939 86.0082 4.94886V6.65341C85.9513 6.6392 85.8211 6.6179 85.6175 6.58949C85.4187 6.55634 85.208 6.53977 84.9854 6.53977C84.4551 6.53977 83.9817 6.65104 83.565 6.87358C83.1531 7.09138 82.8263 7.39441 82.5849 7.78267C82.3481 8.16619 82.2298 8.60417 82.2298 9.09659V16H80.5536ZM87.615 16V5.09091H89.2344V6.73864H89.348C89.5469 6.19886 89.9067 5.76089 90.4275 5.42472C90.9484 5.08854 91.5355 4.92045 92.1889 4.92045C92.312 4.92045 92.4659 4.92282 92.6506 4.92756C92.8352 4.93229 92.9749 4.93939 93.0696 4.94886V6.65341C93.0128 6.6392 92.8826 6.6179 92.679 6.58949C92.4801 6.55634 92.2694 6.53977 92.0469 6.53977C91.5166 6.53977 91.0431 6.65104 90.6264 6.87358C90.2145 7.09138 89.8878 7.39441 89.6463 7.78267C89.4095 8.16619 89.2912 8.60417 89.2912 9.09659V16H87.615ZM97.8867 16.2557C97.1954 16.2557 96.568 16.1255 96.0046 15.8651C95.4411 15.5999 94.9937 15.2188 94.6622 14.7216C94.3308 14.2197 94.1651 13.6136 94.1651 12.9034C94.1651 12.2784 94.2882 11.7718 94.5344 11.3835C94.7806 10.9905 95.1097 10.6828 95.5216 10.4602C95.9335 10.2377 96.3881 10.072 96.8852 9.96307C97.3871 9.84943 97.8914 9.75947 98.398 9.69318C99.0609 9.60795 99.5983 9.54403 100.01 9.50142C100.427 9.45407 100.73 9.37595 100.919 9.26705C101.113 9.15814 101.211 8.96875 101.211 8.69886V8.64205C101.211 7.94129 101.019 7.39678 100.635 7.00852C100.256 6.62027 99.6812 6.42614 98.9094 6.42614C98.1092 6.42614 97.4818 6.60133 97.0273 6.9517C96.5727 7.30208 96.2531 7.67614 96.0685 8.07386L94.4776 7.50568C94.7617 6.8428 95.1405 6.3267 95.6139 5.95739C96.0922 5.58333 96.613 5.32292 97.1764 5.17614C97.7446 5.02462 98.3033 4.94886 98.8526 4.94886C99.203 4.94886 99.6054 4.99148 100.06 5.0767C100.519 5.1572 100.962 5.32528 101.388 5.58097C101.819 5.83665 102.176 6.22254 102.461 6.73864C102.745 7.25473 102.887 7.94602 102.887 8.8125V16H101.211V14.5227H101.125C101.012 14.7595 100.822 15.0128 100.557 15.2827C100.292 15.5526 99.9392 15.7822 99.4989 15.9716C99.0585 16.161 98.5211 16.2557 97.8867 16.2557ZM98.1423 14.75C98.8052 14.75 99.3639 14.6198 99.8185 14.3594C100.278 14.099 100.623 13.7628 100.855 13.3509C101.092 12.9389 101.211 12.5057 101.211 12.0511V10.517C101.14 10.6023 100.983 10.6804 100.742 10.7514C100.505 10.8177 100.23 10.8769 99.9179 10.929C99.6102 10.9763 99.3095 11.0189 99.0159 11.0568C98.7271 11.09 98.4927 11.1184 98.3128 11.142C97.8772 11.1989 97.47 11.2912 97.0912 11.419C96.7172 11.5421 96.4141 11.7292 96.1821 11.9801C95.9548 12.2263 95.8412 12.5625 95.8412 12.9886C95.8412 13.571 96.0566 14.0114 96.4875 14.3097C96.9231 14.6032 97.4747 14.75 98.1423 14.75ZM106.255 20.0909C105.971 20.0909 105.717 20.0672 105.495 20.0199C105.272 19.9773 105.119 19.9347 105.033 19.892L105.459 18.4148C105.867 18.5189 106.226 18.5568 106.539 18.5284C106.851 18.5 107.128 18.3603 107.37 18.1094C107.616 17.8632 107.841 17.4631 108.045 16.9091L108.357 16.0568L104.323 5.09091H106.141L109.153 13.7841H109.266L112.278 5.09091H114.096L109.465 17.5909C109.257 18.1544 108.999 18.6207 108.691 18.9901C108.383 19.3641 108.026 19.6411 107.619 19.821C107.216 20.0009 106.762 20.0909 106.255 20.0909ZM121.875 16V17.5625H112.784V16H121.875ZM123.927 16V5.09091H125.546V6.73864H125.66C125.859 6.19886 126.219 5.76089 126.74 5.42472C127.26 5.08854 127.848 4.92045 128.501 4.92045C128.624 4.92045 128.778 4.92282 128.963 4.92756C129.147 4.93229 129.287 4.93939 129.382 4.94886V6.65341C129.325 6.6392 129.195 6.6179 128.991 6.58949C128.792 6.55634 128.581 6.53977 128.359 6.53977C127.829 6.53977 127.355 6.65104 126.938 6.87358C126.526 7.09138 126.2 7.39441 125.958 7.78267C125.722 8.16619 125.603 8.60417 125.603 9.09659V16H123.927ZM134.199 16.2557C133.507 16.2557 132.88 16.1255 132.317 15.8651C131.753 15.5999 131.306 15.2188 130.974 14.7216C130.643 14.2197 130.477 13.6136 130.477 12.9034C130.477 12.2784 130.6 11.7718 130.846 11.3835C131.093 10.9905 131.422 10.6828 131.834 10.4602C132.246 10.2377 132.7 10.072 133.197 9.96307C133.699 9.84943 134.203 9.75947 134.71 9.69318C135.373 9.60795 135.91 9.54403 136.322 9.50142C136.739 9.45407 137.042 9.37595 137.231 9.26705C137.425 9.15814 137.523 8.96875 137.523 8.69886V8.64205C137.523 7.94129 137.331 7.39678 136.947 7.00852C136.568 6.62027 135.993 6.42614 135.221 6.42614C134.421 6.42614 133.794 6.60133 133.339 6.9517C132.885 7.30208 132.565 7.67614 132.381 8.07386L130.79 7.50568C131.074 6.8428 131.452 6.3267 131.926 5.95739C132.404 5.58333 132.925 5.32292 133.488 5.17614C134.057 5.02462 134.615 4.94886 135.165 4.94886C135.515 4.94886 135.917 4.99148 136.372 5.0767C136.831 5.1572 137.274 5.32528 137.7 5.58097C138.131 5.83665 138.488 6.22254 138.773 6.73864C139.057 7.25473 139.199 7.94602 139.199 8.8125V16H137.523V14.5227H137.437C137.324 14.7595 137.134 15.0128 136.869 15.2827C136.604 15.5526 136.251 15.7822 135.811 15.9716C135.371 16.161 134.833 16.2557 134.199 16.2557ZM134.454 14.75C135.117 14.75 135.676 14.6198 136.131 14.3594C136.59 14.099 136.935 13.7628 137.167 13.3509C137.404 12.9389 137.523 12.5057 137.523 12.0511V10.517C137.452 10.6023 137.295 10.6804 137.054 10.7514C136.817 10.8177 136.542 10.8769 136.23 10.929C135.922 10.9763 135.622 11.0189 135.328 11.0568C135.039 11.09 134.805 11.1184 134.625 11.142C134.189 11.1989 133.782 11.2912 133.403 11.419C133.029 11.5421 132.726 11.7292 132.494 11.9801C132.267 12.2263 132.153 12.5625 132.153 12.9886C132.153 13.571 132.369 14.0114 132.8 14.3097C133.235 14.6032 133.787 14.75 134.454 14.75ZM145.997 16.2273C145.088 16.2273 144.286 15.9976 143.59 15.5384C142.894 15.0743 142.349 14.4209 141.956 13.5781C141.563 12.7306 141.367 11.7292 141.367 10.5739C141.367 9.42803 141.563 8.43371 141.956 7.59091C142.349 6.74811 142.896 6.09706 143.597 5.63778C144.298 5.1785 145.107 4.94886 146.026 4.94886C146.736 4.94886 147.297 5.06723 147.709 5.30398C148.126 5.53598 148.443 5.80114 148.661 6.09943C148.883 6.39299 149.056 6.63447 149.179 6.82386H149.321V1.45455H150.997V16H149.378V14.3239H149.179C149.056 14.5227 148.881 14.7737 148.654 15.0767C148.426 15.375 148.102 15.6425 147.681 15.8793C147.259 16.1113 146.698 16.2273 145.997 16.2273ZM146.225 14.7216C146.897 14.7216 147.465 14.5464 147.929 14.196C148.393 13.8409 148.746 13.3509 148.987 12.7259C149.229 12.0961 149.35 11.3693 149.35 10.5455C149.35 9.73106 149.231 9.01847 148.995 8.40767C148.758 7.79214 148.407 7.31392 147.943 6.97301C147.479 6.62737 146.906 6.45455 146.225 6.45455C145.514 6.45455 144.923 6.63684 144.449 7.00142C143.98 7.36127 143.628 7.85133 143.391 8.47159C143.159 9.08712 143.043 9.77841 143.043 10.5455C143.043 11.322 143.161 12.0275 143.398 12.6619C143.639 13.2917 143.995 13.7936 144.463 14.1676C144.937 14.5369 145.524 14.7216 146.225 14.7216ZM158.693 10.169C158.693 11.9351 158.456 13.5592 157.982 15.0412C157.514 16.5232 156.794 17.8963 155.823 19.1605H152.933C153.302 18.6918 153.645 18.1188 153.963 17.4418C154.28 16.7647 154.557 16.026 154.793 15.2259C155.03 14.4209 155.215 13.5876 155.347 12.7259C155.48 11.8641 155.546 11.0118 155.546 10.169C155.546 9.04687 155.43 7.91525 155.198 6.77415C154.971 5.62831 154.659 4.56771 154.261 3.59233C153.868 2.61222 153.425 1.80966 152.933 1.18466H155.823C156.794 2.44886 157.514 3.82197 157.982 5.30398C158.456 6.78598 158.693 8.40767 158.693 10.169ZM3.60695 44.6932V51H0.581379V40.0909H3.4649V42.0156H3.59274C3.83422 41.3812 4.23905 40.8793 4.80723 40.5099C5.37541 40.1359 6.06433 39.9489 6.87399 39.9489C7.63157 39.9489 8.29208 40.1146 8.85553 40.446C9.41897 40.7775 9.85695 41.2509 10.1694 41.8665C10.4819 42.4773 10.6382 43.2064 10.6382 44.054V51H7.61263V44.5938C7.61736 43.9261 7.44691 43.4053 7.10127 43.0312C6.75562 42.6525 6.27977 42.4631 5.67371 42.4631C5.26651 42.4631 4.90666 42.5507 4.59416 42.7259C4.2864 42.901 4.04492 43.1567 3.86973 43.4929C3.69928 43.8243 3.61168 44.2244 3.60695 44.6932ZM12.6428 55.0909V40.0909H15.6257V41.9233H15.7607C15.8933 41.6297 16.085 41.3314 16.336 41.0284C16.5916 40.7206 16.9231 40.465 17.3303 40.2614C17.7422 40.053 18.2536 39.9489 18.8644 39.9489C19.6598 39.9489 20.3937 40.1572 21.0661 40.5739C21.7384 40.9858 22.2758 41.6084 22.6783 42.4418C23.0808 43.2704 23.282 44.3097 23.282 45.5597C23.282 46.7765 23.0855 47.804 22.6925 48.642C22.3042 49.4754 21.7739 50.1075 21.1016 50.5384C20.434 50.9645 19.6859 51.1776 18.8573 51.1776C18.2701 51.1776 17.7706 51.0805 17.3587 50.8864C16.9515 50.6922 16.6177 50.4484 16.3573 50.1548C16.0969 49.8565 15.898 49.5559 15.7607 49.2528H15.6683V55.0909H12.6428ZM15.6044 45.5455C15.6044 46.1941 15.6944 46.7599 15.8743 47.2429C16.0542 47.7259 16.3147 48.1023 16.6556 48.3722C16.9965 48.6373 17.4108 48.7699 17.8985 48.7699C18.3909 48.7699 18.8076 48.6349 19.1485 48.3651C19.4894 48.0904 19.7474 47.7116 19.9226 47.2287C20.1025 46.741 20.1925 46.1799 20.1925 45.5455C20.1925 44.9157 20.1049 44.3617 19.9297 43.8835C19.7545 43.4053 19.4965 43.0312 19.1556 42.7614C18.8147 42.4915 18.3956 42.3565 17.8985 42.3565C17.406 42.3565 16.9894 42.4867 16.6485 42.7472C16.3123 43.0076 16.0542 43.3769 15.8743 43.8551C15.6944 44.3333 15.6044 44.8968 15.6044 45.5455ZM26.6875 51.1847C26.2188 51.1847 25.8163 51.0189 25.4801 50.6875C25.1487 50.3513 24.983 49.9489 24.983 49.4801C24.983 49.0161 25.1487 48.6184 25.4801 48.2869C25.8163 47.9555 26.2188 47.7898 26.6875 47.7898C27.1421 47.7898 27.5398 47.9555 27.8807 48.2869C28.2216 48.6184 28.3921 49.0161 28.3921 49.4801C28.3921 49.7926 28.3116 50.0791 28.1506 50.3395C27.9943 50.5952 27.7884 50.8011 27.5327 50.9574C27.277 51.1089 26.9953 51.1847 26.6875 51.1847ZM35.425 51.2131C34.3076 51.2131 33.3464 50.9763 32.5415 50.5028C31.7413 50.0246 31.1258 49.3617 30.6949 48.5142C30.2688 47.6667 30.0557 46.6913 30.0557 45.5881C30.0557 44.4706 30.2712 43.4905 30.702 42.6477C31.1376 41.8002 31.7555 41.1397 32.5557 40.6662C33.3559 40.188 34.3076 39.9489 35.4108 39.9489C36.3625 39.9489 37.1959 40.1217 37.9108 40.4673C38.6258 40.813 39.1916 41.2983 39.6083 41.9233C40.025 42.5483 40.2546 43.2822 40.2972 44.125H37.4421C37.3616 43.5805 37.1485 43.1425 36.8029 42.8111C36.462 42.4749 36.0145 42.3068 35.4606 42.3068C34.9918 42.3068 34.5822 42.4347 34.2319 42.6903C33.8862 42.9413 33.6163 43.3082 33.4222 43.7912C33.2281 44.2741 33.131 44.8589 33.131 45.5455C33.131 46.2415 33.2257 46.8333 33.4151 47.321C33.6092 47.8087 33.8815 48.1804 34.2319 48.4361C34.5822 48.6918 34.9918 48.8196 35.4606 48.8196C35.8062 48.8196 36.1163 48.7486 36.391 48.6065C36.6703 48.4645 36.8999 48.2585 37.0799 47.9886C37.2645 47.714 37.3853 47.3849 37.4421 47.0014H40.2972C40.2499 47.8348 40.0226 48.5687 39.6154 49.2031C39.2129 49.8329 38.6566 50.3253 37.9464 50.6804C37.2361 51.0355 36.3957 51.2131 35.425 51.2131ZM46.7833 51.2131C45.6801 51.2131 44.726 50.9787 43.9211 50.5099C43.1209 50.0365 42.503 49.3783 42.0674 48.5355C41.6318 47.688 41.414 46.7055 41.414 45.5881C41.414 44.4612 41.6318 43.4763 42.0674 42.6335C42.503 41.786 43.1209 41.1278 43.9211 40.6591C44.726 40.1856 45.6801 39.9489 46.7833 39.9489C47.8865 39.9489 48.8382 40.1856 49.6384 40.6591C50.4434 41.1278 51.0636 41.786 51.4992 42.6335C51.9348 43.4763 52.1526 44.4612 52.1526 45.5881C52.1526 46.7055 51.9348 47.688 51.4992 48.5355C51.0636 49.3783 50.4434 50.0365 49.6384 50.5099C48.8382 50.9787 47.8865 51.2131 46.7833 51.2131ZM46.7975 48.8693C47.2994 48.8693 47.7185 48.7273 48.0546 48.4432C48.3908 48.1544 48.6441 47.7614 48.8146 47.2642C48.9898 46.767 49.0774 46.2012 49.0774 45.5668C49.0774 44.9323 48.9898 44.3665 48.8146 43.8693C48.6441 43.3722 48.3908 42.9792 48.0546 42.6903C47.7185 42.4015 47.2994 42.2571 46.7975 42.2571C46.2909 42.2571 45.8648 42.4015 45.5191 42.6903C45.1782 42.9792 44.9202 43.3722 44.745 43.8693C44.5745 44.3665 44.4893 44.9323 44.4893 45.5668C44.4893 46.2012 44.5745 46.767 44.745 47.2642C44.9202 47.7614 45.1782 48.1544 45.5191 48.4432C45.8648 48.7273 46.2909 48.8693 46.7975 48.8693ZM62.8167 43.2017L60.0468 43.3722C59.9994 43.1354 59.8976 42.9223 59.7414 42.733C59.5851 42.5388 59.3792 42.3849 59.1235 42.2713C58.8726 42.1529 58.5719 42.0938 58.2215 42.0938C57.7528 42.0938 57.3574 42.1932 57.0354 42.392C56.7135 42.5862 56.5525 42.8466 56.5525 43.1733C56.5525 43.4337 56.6566 43.6539 56.865 43.8338C57.0733 44.0137 57.4308 44.1581 57.9374 44.267L59.9119 44.6648C60.9725 44.8826 61.7632 45.233 62.284 45.7159C62.8048 46.1989 63.0653 46.8333 63.0653 47.6193C63.0653 48.3343 62.8546 48.9616 62.4332 49.5014C62.0165 50.0412 61.4436 50.4626 60.7144 50.7656C59.99 51.0639 59.1543 51.2131 58.2073 51.2131C56.7632 51.2131 55.6126 50.9124 54.7556 50.3111C53.9033 49.705 53.4038 48.8812 53.257 47.8395L56.2329 47.6832C56.3228 48.1236 56.5406 48.4598 56.8863 48.6918C57.2319 48.919 57.6746 49.0327 58.2144 49.0327C58.7447 49.0327 59.1709 48.9309 59.4928 48.7273C59.8195 48.5189 59.9852 48.2514 59.99 47.9247C59.9852 47.6501 59.8692 47.4252 59.642 47.25C59.4147 47.0701 59.0643 46.9328 58.5908 46.8381L56.7016 46.4616C55.6363 46.2486 54.8432 45.8793 54.3224 45.3537C53.8063 44.8281 53.5482 44.1581 53.5482 43.3438C53.5482 42.643 53.7376 42.0393 54.1164 41.5327C54.4999 41.026 55.0373 40.6354 55.7286 40.3608C56.4246 40.0862 57.239 39.9489 58.1718 39.9489C59.5496 39.9489 60.6339 40.2401 61.4246 40.8224C62.2201 41.4048 62.6841 42.1979 62.8167 43.2017ZM65.2581 45.169C65.2581 43.4077 65.4924 41.786 65.9612 40.304C66.4347 38.822 67.1567 37.4489 68.1274 36.1847H71.018C70.6487 36.6534 70.3054 37.2263 69.9882 37.9034C69.6709 38.5758 69.3939 39.3144 69.1572 40.1193C68.9205 40.9242 68.7358 41.7576 68.6032 42.6193C68.4707 43.4763 68.4044 44.3262 68.4044 45.169C68.4044 46.2912 68.518 47.4252 68.7453 48.571C68.9773 49.7121 69.2898 50.7727 69.6828 51.7528C70.0805 52.733 70.5256 53.5355 71.018 54.1605H68.1274C67.1567 52.8963 66.4347 51.5232 65.9612 50.0412C65.4924 48.5592 65.2581 46.9351 65.2581 45.169ZM75.931 51.2557C75.2397 51.2557 74.6123 51.1255 74.0489 50.8651C73.4854 50.5999 73.038 50.2188 72.7065 49.7216C72.3751 49.2197 72.2094 48.6136 72.2094 47.9034C72.2094 47.2784 72.3325 46.7718 72.5787 46.3835C72.8249 45.9905 73.154 45.6828 73.5659 45.4602C73.9778 45.2377 74.4324 45.072 74.9295 44.9631C75.4314 44.8494 75.9357 44.7595 76.4423 44.6932C77.1052 44.608 77.6426 44.544 78.0545 44.5014C78.4712 44.4541 78.7742 44.3759 78.9636 44.267C79.1578 44.1581 79.2548 43.9687 79.2548 43.6989V43.642C79.2548 42.9413 79.0631 42.3968 78.6795 42.0085C78.3008 41.6203 77.7255 41.4261 76.9537 41.4261C76.1535 41.4261 75.5261 41.6013 75.0716 41.9517C74.617 42.3021 74.2974 42.6761 74.1128 43.0739L72.5219 42.5057C72.806 41.8428 73.1848 41.3267 73.6582 40.9574C74.1365 40.5833 74.6573 40.3229 75.2207 40.1761C75.7889 40.0246 76.3476 39.9489 76.8969 39.9489C77.2473 39.9489 77.6497 39.9915 78.1043 40.0767C78.5635 40.1572 79.0062 40.3253 79.4324 40.581C79.8633 40.8366 80.2207 41.2225 80.5048 41.7386C80.7889 42.2547 80.931 42.946 80.931 43.8125V51H79.2548V49.5227H79.1696C79.056 49.7595 78.8666 50.0128 78.6014 50.2827C78.3363 50.5526 77.9835 50.7822 77.5432 50.9716C77.1028 51.161 76.5654 51.2557 75.931 51.2557ZM76.1866 49.75C76.8495 49.75 77.4082 49.6198 77.8628 49.3594C78.3221 49.099 78.6677 48.7628 78.8997 48.3509C79.1365 47.9389 79.2548 47.5057 79.2548 47.0511V45.517C79.1838 45.6023 79.0276 45.6804 78.7861 45.7514C78.5493 45.8177 78.2747 45.8769 77.9622 45.929C77.6544 45.9763 77.3538 46.0189 77.0602 46.0568C76.7714 46.09 76.537 46.1184 76.3571 46.142C75.9215 46.1989 75.5143 46.2912 75.1355 46.419C74.7615 46.5421 74.4584 46.7292 74.2264 46.9801C73.9991 47.2263 73.8855 47.5625 73.8855 47.9886C73.8855 48.571 74.1009 49.0114 74.5318 49.3097C74.9674 49.6032 75.519 49.75 76.1866 49.75ZM83.6103 51V40.0909H85.2296V41.7386H85.3432C85.5421 41.1989 85.9019 40.7609 86.4228 40.4247C86.9436 40.0885 87.5307 39.9205 88.1841 39.9205C88.3072 39.9205 88.4611 39.9228 88.6458 39.9276C88.8304 39.9323 88.9701 39.9394 89.0648 39.9489V41.6534C89.008 41.6392 88.8778 41.6179 88.6742 41.5895C88.4753 41.5563 88.2646 41.5398 88.0421 41.5398C87.5118 41.5398 87.0383 41.651 86.6216 41.8736C86.2097 42.0914 85.883 42.3944 85.6415 42.7827C85.4048 43.1662 85.2864 43.6042 85.2864 44.0966V51H83.6103ZM90.6717 51V40.0909H92.291V41.7386H92.4046C92.6035 41.1989 92.9633 40.7609 93.4842 40.4247C94.005 40.0885 94.5921 39.9205 95.2455 39.9205C95.3686 39.9205 95.5225 39.9228 95.7072 39.9276C95.8919 39.9323 96.0315 39.9394 96.1262 39.9489V41.6534C96.0694 41.6392 95.9392 41.6179 95.7356 41.5895C95.5367 41.5563 95.326 41.5398 95.1035 41.5398C94.5732 41.5398 94.0997 41.651 93.683 41.8736C93.2711 42.0914 92.9444 42.3944 92.7029 42.7827C92.4662 43.1662 92.3478 43.6042 92.3478 44.0966V51H90.6717ZM100.943 51.2557C100.252 51.2557 99.6247 51.1255 99.0612 50.8651C98.4978 50.5999 98.0503 50.2188 97.7189 49.7216C97.3874 49.2197 97.2217 48.6136 97.2217 47.9034C97.2217 47.2784 97.3448 46.7718 97.591 46.3835C97.8372 45.9905 98.1663 45.6828 98.5783 45.4602C98.9902 45.2377 99.4447 45.072 99.9419 44.9631C100.444 44.8494 100.948 44.7595 101.455 44.6932C102.118 44.608 102.655 44.544 103.067 44.5014C103.484 44.4541 103.787 44.3759 103.976 44.267C104.17 44.1581 104.267 43.9687 104.267 43.6989V43.642C104.267 42.9413 104.075 42.3968 103.692 42.0085C103.313 41.6203 102.738 41.4261 101.966 41.4261C101.166 41.4261 100.538 41.6013 100.084 41.9517C99.6294 42.3021 99.3098 42.6761 99.1251 43.0739L97.5342 42.5057C97.8183 41.8428 98.1971 41.3267 98.6706 40.9574C99.1488 40.5833 99.6696 40.3229 100.233 40.1761C100.801 40.0246 101.36 39.9489 101.909 39.9489C102.26 39.9489 102.662 39.9915 103.117 40.0767C103.576 40.1572 104.019 40.3253 104.445 40.581C104.876 40.8366 105.233 41.2225 105.517 41.7386C105.801 42.2547 105.943 42.946 105.943 43.8125V51H104.267V49.5227H104.182C104.068 49.7595 103.879 50.0128 103.614 50.2827C103.349 50.5526 102.996 50.7822 102.556 50.9716C102.115 51.161 101.578 51.2557 100.943 51.2557ZM101.199 49.75C101.862 49.75 102.421 49.6198 102.875 49.3594C103.334 49.099 103.68 48.7628 103.912 48.3509C104.149 47.9389 104.267 47.5057 104.267 47.0511V45.517C104.196 45.6023 104.04 45.6804 103.798 45.7514C103.562 45.8177 103.287 45.8769 102.975 45.929C102.667 45.9763 102.366 46.0189 102.073 46.0568C101.784 46.09 101.549 46.1184 101.369 46.142C100.934 46.1989 100.527 46.2912 100.148 46.419C99.7738 46.5421 99.4708 46.7292 99.2388 46.9801C99.0115 47.2263 98.8979 47.5625 98.8979 47.9886C98.8979 48.571 99.1133 49.0114 99.5442 49.3097C99.9798 49.6032 100.531 49.75 101.199 49.75ZM109.312 55.0909C109.027 55.0909 108.774 55.0672 108.552 55.0199C108.329 54.9773 108.175 54.9347 108.09 54.892L108.516 53.4148C108.923 53.5189 109.283 53.5568 109.596 53.5284C109.908 53.5 110.185 53.3603 110.427 53.1094C110.673 52.8632 110.898 52.4631 111.101 51.9091L111.414 51.0568L107.38 40.0909H109.198L112.209 48.7841H112.323L115.334 40.0909H117.152L112.522 52.5909C112.313 53.1544 112.055 53.6207 111.748 53.9901C111.44 54.3641 111.082 54.6411 110.675 54.821C110.273 55.0009 109.818 55.0909 109.312 55.0909ZM124.931 51V52.5625H115.84V51H124.931ZM126.984 51V40.0909H128.603V41.7386H128.717C128.916 41.1989 129.275 40.7609 129.796 40.4247C130.317 40.0885 130.904 39.9205 131.558 39.9205C131.681 39.9205 131.835 39.9228 132.019 39.9276C132.204 39.9323 132.344 39.9394 132.438 39.9489V41.6534C132.381 41.6392 132.251 41.6179 132.048 41.5895C131.849 41.5563 131.638 41.5398 131.416 41.5398C130.885 41.5398 130.412 41.651 129.995 41.8736C129.583 42.0914 129.256 42.3944 129.015 42.7827C128.778 43.1662 128.66 43.6042 128.66 44.0966V51H126.984ZM137.255 51.2557C136.564 51.2557 135.937 51.1255 135.373 50.8651C134.81 50.5999 134.362 50.2188 134.031 49.7216C133.699 49.2197 133.534 48.6136 133.534 47.9034C133.534 47.2784 133.657 46.7718 133.903 46.3835C134.149 45.9905 134.478 45.6828 134.89 45.4602C135.302 45.2377 135.757 45.072 136.254 44.9631C136.756 44.8494 137.26 44.7595 137.767 44.6932C138.43 44.608 138.967 44.544 139.379 44.5014C139.796 44.4541 140.099 44.3759 140.288 44.267C140.482 44.1581 140.579 43.9687 140.579 43.6989V43.642C140.579 42.9413 140.387 42.3968 140.004 42.0085C139.625 41.6203 139.05 41.4261 138.278 41.4261C137.478 41.4261 136.851 41.6013 136.396 41.9517C135.941 42.3021 135.622 42.6761 135.437 43.0739L133.846 42.5057C134.13 41.8428 134.509 41.3267 134.983 40.9574C135.461 40.5833 135.982 40.3229 136.545 40.1761C137.113 40.0246 137.672 39.9489 138.221 39.9489C138.572 39.9489 138.974 39.9915 139.429 40.0767C139.888 40.1572 140.331 40.3253 140.757 40.581C141.188 40.8366 141.545 41.2225 141.829 41.7386C142.113 42.2547 142.255 42.946 142.255 43.8125V51H140.579V49.5227H140.494C140.38 49.7595 140.191 50.0128 139.926 50.2827C139.661 50.5526 139.308 50.7822 138.868 50.9716C138.427 51.161 137.89 51.2557 137.255 51.2557ZM137.511 49.75C138.174 49.75 138.733 49.6198 139.187 49.3594C139.646 49.099 139.992 48.7628 140.224 48.3509C140.461 47.9389 140.579 47.5057 140.579 47.0511V45.517C140.508 45.6023 140.352 45.6804 140.11 45.7514C139.874 45.8177 139.599 45.8769 139.287 45.929C138.979 45.9763 138.678 46.0189 138.385 46.0568C138.096 46.09 137.861 46.1184 137.681 46.142C137.246 46.1989 136.839 46.2912 136.46 46.419C136.086 46.5421 135.783 46.7292 135.551 46.9801C135.324 47.2263 135.21 47.5625 135.21 47.9886C135.21 48.571 135.425 49.0114 135.856 49.3097C136.292 49.6032 136.843 49.75 137.511 49.75ZM149.054 51.2273C148.145 51.2273 147.342 50.9976 146.646 50.5384C145.95 50.0743 145.406 49.4209 145.013 48.5781C144.62 47.7306 144.423 46.7292 144.423 45.5739C144.423 44.428 144.62 43.4337 145.013 42.5909C145.406 41.7481 145.953 41.0971 146.653 40.6378C147.354 40.1785 148.164 39.9489 149.082 39.9489C149.793 39.9489 150.354 40.0672 150.766 40.304C151.182 40.536 151.5 40.8011 151.717 41.0994C151.94 41.393 152.113 41.6345 152.236 41.8239H152.378V36.4545H154.054V51H152.435V49.3239H152.236C152.113 49.5227 151.938 49.7737 151.71 50.0767C151.483 50.375 151.159 50.6425 150.737 50.8793C150.316 51.1113 149.755 51.2273 149.054 51.2273ZM149.281 49.7216C149.954 49.7216 150.522 49.5464 150.986 49.196C151.45 48.8409 151.803 48.3509 152.044 47.7259C152.286 47.0961 152.406 46.3693 152.406 45.5455C152.406 44.7311 152.288 44.0185 152.051 43.4077C151.814 42.7921 151.464 42.3139 151 41.973C150.536 41.6274 149.963 41.4545 149.281 41.4545C148.571 41.4545 147.979 41.6368 147.506 42.0014C147.037 42.3613 146.684 42.8513 146.447 43.4716C146.215 44.0871 146.099 44.7784 146.099 45.5455C146.099 46.322 146.218 47.0275 146.455 47.6619C146.696 48.2917 147.051 48.7936 147.52 49.1676C147.993 49.5369 148.58 49.7216 149.281 49.7216ZM161.749 45.169C161.749 46.9351 161.513 48.5592 161.039 50.0412C160.57 51.5232 159.851 52.8963 158.88 54.1605H155.989C156.359 53.6918 156.702 53.1188 157.019 52.4418C157.336 51.7647 157.613 51.026 157.85 50.2259C158.087 49.4209 158.272 48.5876 158.404 47.7259C158.537 46.8641 158.603 46.0118 158.603 45.169C158.603 44.0469 158.487 42.9152 158.255 41.7741C158.028 40.6283 157.715 39.5677 157.317 38.5923C156.924 37.6122 156.482 36.8097 155.989 36.1847H158.88C159.851 37.4489 160.57 38.822 161.039 40.304C161.513 41.786 161.749 43.4077 161.749 45.169ZM5.31593 79.6932V86H2.29036V75.0909H5.17389V77.0156H5.30173C5.5432 76.3812 5.94803 75.8793 6.51622 75.5099C7.0844 75.1359 7.77332 74.9489 8.58298 74.9489C9.34055 74.9489 10.0011 75.1146 10.5645 75.446C11.128 75.7775 11.5659 76.2509 11.8784 76.8665C12.1909 77.4773 12.3472 78.2064 12.3472 79.054V86H9.32161V79.5938C9.32635 78.9261 9.15589 78.4053 8.81025 78.0312C8.46461 77.6525 7.98875 77.4631 7.38269 77.4631C6.9755 77.4631 6.61565 77.5507 6.30315 77.7259C5.99538 77.901 5.75391 78.1567 5.57872 78.4929C5.40826 78.8243 5.32067 79.2244 5.31593 79.6932ZM14.3518 90.0909V75.0909H17.3347V76.9233H17.4697C17.6022 76.6297 17.794 76.3314 18.0449 76.0284C18.3006 75.7206 18.6321 75.465 19.0393 75.2614C19.4512 75.053 19.9626 74.9489 20.5734 74.9489C21.3688 74.9489 22.1027 75.1572 22.7751 75.5739C23.4474 75.9858 23.9848 76.6084 24.3873 77.4418C24.7897 78.2704 24.991 79.3097 24.991 80.5597C24.991 81.7765 24.7945 82.804 24.4015 83.642C24.0132 84.4754 23.4829 85.1075 22.8106 85.5384C22.143 85.9645 21.3949 86.1776 20.5663 86.1776C19.9791 86.1776 19.4796 86.0805 19.0677 85.8864C18.6605 85.6922 18.3267 85.4484 18.0663 85.1548C17.8058 84.8565 17.607 84.5559 17.4697 84.2528H17.3773V90.0909H14.3518ZM17.3134 80.5455C17.3134 81.1941 17.4034 81.7599 17.5833 82.2429C17.7632 82.7259 18.0236 83.1023 18.3645 83.3722C18.7055 83.6373 19.1198 83.7699 19.6074 83.7699C20.0999 83.7699 20.5165 83.6349 20.8574 83.3651C21.1984 83.0904 21.4564 82.7116 21.6316 82.2287C21.8115 81.741 21.9015 81.1799 21.9015 80.5455C21.9015 79.9157 21.8139 79.3617 21.6387 78.8835C21.4635 78.4053 21.2055 78.0312 20.8645 77.7614C20.5236 77.4915 20.1046 77.3565 19.6074 77.3565C19.115 77.3565 18.6984 77.4867 18.3574 77.7472C18.0213 78.0076 17.7632 78.3769 17.5833 78.8551C17.4034 79.3333 17.3134 79.8968 17.3134 80.5455ZM28.3965 86.1847C27.9277 86.1847 27.5253 86.0189 27.1891 85.6875C26.8577 85.3513 26.6919 84.9489 26.6919 84.4801C26.6919 84.0161 26.8577 83.6184 27.1891 83.2869C27.5253 82.9555 27.9277 82.7898 28.3965 82.7898C28.851 82.7898 29.2488 82.9555 29.5897 83.2869C29.9306 83.6184 30.101 84.0161 30.101 84.4801C30.101 84.7926 30.0205 85.0791 29.8596 85.3395C29.7033 85.5952 29.4973 85.8011 29.2417 85.9574C28.986 86.1089 28.7043 86.1847 28.3965 86.1847ZM38.0076 75.0909V77.3636H31.438V75.0909H38.0076ZM32.9295 72.4773H35.9551V82.6477C35.9551 82.9271 35.9977 83.1449 36.0829 83.3011C36.1681 83.4527 36.2865 83.5592 36.438 83.6207C36.5943 83.6823 36.7742 83.7131 36.9778 83.7131C37.1198 83.7131 37.2619 83.7012 37.4039 83.6776C37.546 83.6491 37.6549 83.6278 37.7306 83.6136L38.2065 85.8651C38.055 85.9124 37.8419 85.9669 37.5673 86.0284C37.2926 86.0947 36.9588 86.1349 36.5658 86.1491C35.8367 86.1776 35.1975 86.0805 34.6482 85.858C34.1037 85.6354 33.68 85.2898 33.3769 84.821C33.0739 84.3523 32.9247 83.7604 32.9295 83.0455V72.4773ZM42.7093 86.206C42.0133 86.206 41.393 86.0852 40.8485 85.8438C40.304 85.5975 39.8731 85.2353 39.5559 84.7571C39.2434 84.2741 39.0871 83.6728 39.0871 82.9531C39.0871 82.3471 39.1984 81.8381 39.4209 81.4261C39.6435 81.0142 39.9465 80.6828 40.33 80.4318C40.7135 80.1809 41.1491 79.9915 41.6368 79.8636C42.1293 79.7358 42.6454 79.6458 43.1851 79.5938C43.8196 79.5275 44.331 79.4659 44.7192 79.4091C45.1075 79.3475 45.3892 79.2576 45.5644 79.1392C45.7396 79.0208 45.8272 78.8456 45.8272 78.6136V78.571C45.8272 78.1212 45.6851 77.7732 45.401 77.527C45.1217 77.2808 44.724 77.1577 44.2079 77.1577C43.6634 77.1577 43.2301 77.2784 42.9081 77.5199C42.5862 77.7566 42.3731 78.0549 42.2689 78.4148L39.4706 78.1875C39.6127 77.5246 39.892 76.9517 40.3087 76.4688C40.7254 75.9811 41.2628 75.607 41.9209 75.3466C42.5838 75.0814 43.3509 74.9489 44.2221 74.9489C44.8281 74.9489 45.4081 75.0199 45.9621 75.1619C46.5208 75.304 47.0156 75.5241 47.4465 75.8224C47.8821 76.1207 48.2254 76.5043 48.4763 76.973C48.7273 77.437 48.8527 77.9934 48.8527 78.642V86H45.9834V84.4872H45.8982C45.723 84.8281 45.4886 85.1288 45.1951 85.3892C44.9015 85.6449 44.5488 85.8461 44.1368 85.9929C43.7249 86.1349 43.2491 86.206 42.7093 86.206ZM43.5758 84.1179C44.0208 84.1179 44.4138 84.0303 44.7547 83.8551C45.0956 83.6752 45.3632 83.4337 45.5573 83.1307C45.7514 82.8277 45.8485 82.4844 45.8485 82.1009V80.9432C45.7538 81.0047 45.6236 81.0616 45.4579 81.1136C45.2969 81.161 45.1146 81.206 44.911 81.2486C44.7074 81.2865 44.5038 81.322 44.3002 81.3551C44.0966 81.3835 43.9119 81.4096 43.7462 81.4332C43.3911 81.4853 43.081 81.5682 42.8158 81.6818C42.5507 81.7955 42.3447 81.9493 42.1979 82.1435C42.0511 82.3329 41.9777 82.5696 41.9777 82.8537C41.9777 83.2656 42.1269 83.5805 42.4252 83.7983C42.7282 84.0114 43.1117 84.1179 43.5758 84.1179ZM53.8456 79.6932V86H50.8201V75.0909H53.7036V77.0156H53.8314C54.0729 76.3812 54.4777 75.8793 55.0459 75.5099C55.6141 75.1359 56.303 74.9489 57.1127 74.9489C57.8702 74.9489 58.5308 75.1146 59.0942 75.446C59.6577 75.7775 60.0956 76.2509 60.4081 76.8665C60.7206 77.4773 60.8769 78.2064 60.8769 79.054V86H57.8513V79.5938C57.856 78.9261 57.6856 78.4053 57.3399 78.0312C56.9943 77.6525 56.5184 77.4631 55.9124 77.4631C55.5052 77.4631 55.1453 77.5507 54.8328 77.7259C54.5251 77.901 54.2836 78.1567 54.1084 78.4929C53.938 78.8243 53.8504 79.2244 53.8456 79.6932ZM63.5491 80.169C63.5491 78.4077 63.7834 76.786 64.2522 75.304C64.7257 73.822 65.4477 72.4489 66.4184 71.1847H69.309C68.9397 71.6534 68.5964 72.2263 68.2792 72.9034C67.962 73.5758 67.685 74.3144 67.4482 75.1193C67.2115 75.9242 67.0268 76.7576 66.8942 77.6193C66.7617 78.4763 66.6954 79.3262 66.6954 80.169C66.6954 81.2912 66.809 82.4252 67.0363 83.571C67.2683 84.7121 67.5808 85.7727 67.9738 86.7528C68.3715 87.733 68.8166 88.5355 69.309 89.1605H66.4184C65.4477 87.8963 64.7257 86.5232 64.2522 85.0412C63.7834 83.5592 63.5491 81.9351 63.5491 80.169ZM74.222 86.2557C73.5307 86.2557 72.9033 86.1255 72.3399 85.8651C71.7764 85.5999 71.329 85.2188 70.9975 84.7216C70.6661 84.2197 70.5004 83.6136 70.5004 82.9034C70.5004 82.2784 70.6235 81.7718 70.8697 81.3835C71.1159 80.9905 71.445 80.6828 71.8569 80.4602C72.2689 80.2377 72.7234 80.072 73.2206 79.9631C73.7225 79.8494 74.2267 79.7595 74.7333 79.6932C75.3962 79.608 75.9336 79.544 76.3456 79.5014C76.7622 79.4541 77.0653 79.3759 77.2546 79.267C77.4488 79.1581 77.5458 78.9687 77.5458 78.6989V78.642C77.5458 77.9413 77.3541 77.3968 76.9706 77.0085C76.5918 76.6203 76.0165 76.4261 75.2447 76.4261C74.4445 76.4261 73.8171 76.6013 73.3626 76.9517C72.9081 77.3021 72.5885 77.6761 72.4038 78.0739L70.8129 77.5057C71.097 76.8428 71.4758 76.3267 71.9493 75.9574C72.4275 75.5833 72.9483 75.3229 73.5118 75.1761C74.0799 75.0246 74.6386 74.9489 75.1879 74.9489C75.5383 74.9489 75.9407 74.9915 76.3953 75.0767C76.8546 75.1572 77.2973 75.3253 77.7234 75.581C78.1543 75.8366 78.5118 76.2225 78.7958 76.7386C79.0799 77.2547 79.222 77.946 79.222 78.8125V86H77.5458V84.5227H77.4606C77.347 84.7595 77.1576 85.0128 76.8924 85.2827C76.6273 85.5526 76.2745 85.7822 75.8342 85.9716C75.3939 86.161 74.8564 86.2557 74.222 86.2557ZM74.4777 84.75C75.1405 84.75 75.6993 84.6198 76.1538 84.3594C76.6131 84.099 76.9587 83.7628 77.1907 83.3509C77.4275 82.9389 77.5458 82.5057 77.5458 82.0511V80.517C77.4748 80.6023 77.3186 80.6804 77.0771 80.7514C76.8404 80.8177 76.5657 80.8769 76.2532 80.929C75.9455 80.9763 75.6448 81.0189 75.3512 81.0568C75.0624 81.09 74.828 81.1184 74.6481 81.142C74.2125 81.1989 73.8053 81.2912 73.4265 81.419C73.0525 81.5421 72.7494 81.7292 72.5174 81.9801C72.2902 82.2263 72.1765 82.5625 72.1765 82.9886C72.1765 83.571 72.392 84.0114 72.8228 84.3097C73.2584 84.6032 73.81 84.75 74.4777 84.75ZM81.9013 86V75.0909H83.5206V76.7386H83.6342C83.8331 76.1989 84.1929 75.7609 84.7138 75.4247C85.2346 75.0885 85.8217 74.9205 86.4751 74.9205C86.5982 74.9205 86.7521 74.9228 86.9368 74.9276C87.1214 74.9323 87.2611 74.9394 87.3558 74.9489V76.6534C87.299 76.6392 87.1688 76.6179 86.9652 76.5895C86.7663 76.5563 86.5556 76.5398 86.3331 76.5398C85.8028 76.5398 85.3293 76.651 84.9126 76.8736C84.5007 77.0914 84.174 77.3944 83.9325 77.7827C83.6958 78.1662 83.5774 78.6042 83.5774 79.0966V86H81.9013ZM88.9627 86V75.0909H90.582V76.7386H90.6956C90.8945 76.1989 91.2544 75.7609 91.7752 75.4247C92.296 75.0885 92.8831 74.9205 93.5366 74.9205C93.6597 74.9205 93.8135 74.9228 93.9982 74.9276C94.1829 74.9323 94.3225 74.9394 94.4172 74.9489V76.6534C94.3604 76.6392 94.2302 76.6179 94.0266 76.5895C93.8278 76.5563 93.6171 76.5398 93.3945 76.5398C92.8642 76.5398 92.3907 76.651 91.9741 76.8736C91.5621 77.0914 91.2354 77.3944 90.9939 77.7827C90.7572 78.1662 90.6388 78.6042 90.6388 79.0966V86H88.9627ZM99.2343 86.2557C98.543 86.2557 97.9157 86.1255 97.3522 85.8651C96.7888 85.5999 96.3413 85.2188 96.0099 84.7216C95.6785 84.2197 95.5127 83.6136 95.5127 82.9034C95.5127 82.2784 95.6358 81.7718 95.8821 81.3835C96.1283 80.9905 96.4573 80.6828 96.8693 80.4602C97.2812 80.2377 97.7357 80.072 98.2329 79.9631C98.7348 79.8494 99.2391 79.7595 99.7457 79.6932C100.409 79.608 100.946 79.544 101.358 79.5014C101.775 79.4541 102.078 79.3759 102.267 79.267C102.461 79.1581 102.558 78.9687 102.558 78.6989V78.642C102.558 77.9413 102.366 77.3968 101.983 77.0085C101.604 76.6203 101.029 76.4261 100.257 76.4261C99.4569 76.4261 98.8295 76.6013 98.3749 76.9517C97.9204 77.3021 97.6008 77.6761 97.4161 78.0739L95.8252 77.5057C96.1093 76.8428 96.4881 76.3267 96.9616 75.9574C97.4398 75.5833 97.9606 75.3229 98.5241 75.1761C99.0923 75.0246 99.651 74.9489 100.2 74.9489C100.551 74.9489 100.953 74.9915 101.408 75.0767C101.867 75.1572 102.31 75.3253 102.736 75.581C103.167 75.8366 103.524 76.2225 103.808 76.7386C104.092 77.2547 104.234 77.946 104.234 78.8125V86H102.558V84.5227H102.473C102.359 84.7595 102.17 85.0128 101.905 85.2827C101.64 85.5526 101.287 85.7822 100.847 85.9716C100.406 86.161 99.8688 86.2557 99.2343 86.2557ZM99.49 84.75C100.153 84.75 100.712 84.6198 101.166 84.3594C101.625 84.099 101.971 83.7628 102.203 83.3509C102.44 82.9389 102.558 82.5057 102.558 82.0511V80.517C102.487 80.6023 102.331 80.6804 102.089 80.7514C101.853 80.8177 101.578 80.8769 101.266 80.929C100.958 80.9763 100.657 81.0189 100.364 81.0568C100.075 81.09 99.8404 81.1184 99.6605 81.142C99.2249 81.1989 98.8177 81.2912 98.4389 81.419C98.0648 81.5421 97.7618 81.7292 97.5298 81.9801C97.3025 82.2263 97.1889 82.5625 97.1889 82.9886C97.1889 83.571 97.4043 84.0114 97.8352 84.3097C98.2708 84.6032 98.8224 84.75 99.49 84.75ZM107.603 90.0909C107.318 90.0909 107.065 90.0672 106.843 90.0199C106.62 89.9773 106.466 89.9347 106.381 89.892L106.807 88.4148C107.214 88.5189 107.574 88.5568 107.887 88.5284C108.199 88.5 108.476 88.3603 108.718 88.1094C108.964 87.8632 109.189 87.4631 109.392 86.9091L109.705 86.0568L105.671 75.0909H107.489L110.5 83.7841H110.614L113.625 75.0909H115.443L110.813 87.5909C110.604 88.1544 110.346 88.6207 110.039 88.9901C109.731 89.3641 109.373 89.6411 108.966 89.821C108.564 90.0009 108.109 90.0909 107.603 90.0909ZM123.222 86V87.5625H114.131V86H123.222ZM125.275 86V75.0909H126.894V76.7386H127.008C127.207 76.1989 127.566 75.7609 128.087 75.4247C128.608 75.0885 129.195 74.9205 129.849 74.9205C129.972 74.9205 130.126 74.9228 130.31 74.9276C130.495 74.9323 130.635 74.9394 130.729 74.9489V76.6534C130.672 76.6392 130.542 76.6179 130.339 76.5895C130.14 76.5563 129.929 76.5398 129.707 76.5398C129.176 76.5398 128.703 76.651 128.286 76.8736C127.874 77.0914 127.547 77.3944 127.306 77.7827C127.069 78.1662 126.951 78.6042 126.951 79.0966V86H125.275ZM135.546 86.2557C134.855 86.2557 134.228 86.1255 133.664 85.8651C133.101 85.5999 132.653 85.2188 132.322 84.7216C131.99 84.2197 131.825 83.6136 131.825 82.9034C131.825 82.2784 131.948 81.7718 132.194 81.3835C132.44 80.9905 132.769 80.6828 133.181 80.4602C133.593 80.2377 134.048 80.072 134.545 79.9631C135.047 79.8494 135.551 79.7595 136.058 79.6932C136.721 79.608 137.258 79.544 137.67 79.5014C138.087 79.4541 138.39 79.3759 138.579 79.267C138.773 79.1581 138.87 78.9687 138.87 78.6989V78.642C138.87 77.9413 138.678 77.3968 138.295 77.0085C137.916 76.6203 137.341 76.4261 136.569 76.4261C135.769 76.4261 135.142 76.6013 134.687 76.9517C134.232 77.3021 133.913 77.6761 133.728 78.0739L132.137 77.5057C132.421 76.8428 132.8 76.3267 133.274 75.9574C133.752 75.5833 134.273 75.3229 134.836 75.1761C135.404 75.0246 135.963 74.9489 136.512 74.9489C136.863 74.9489 137.265 74.9915 137.72 75.0767C138.179 75.1572 138.622 75.3253 139.048 75.581C139.479 75.8366 139.836 76.2225 140.12 76.7386C140.404 77.2547 140.546 77.946 140.546 78.8125V86H138.87V84.5227H138.785C138.671 84.7595 138.482 85.0128 138.217 85.2827C137.952 85.5526 137.599 85.7822 137.159 85.9716C136.718 86.161 136.181 86.2557 135.546 86.2557ZM135.802 84.75C136.465 84.75 137.024 84.6198 137.478 84.3594C137.937 84.099 138.283 83.7628 138.515 83.3509C138.752 82.9389 138.87 82.5057 138.87 82.0511V80.517C138.799 80.6023 138.643 80.6804 138.401 80.7514C138.165 80.8177 137.89 80.8769 137.578 80.929C137.27 80.9763 136.969 81.0189 136.676 81.0568C136.387 81.09 136.152 81.1184 135.972 81.142C135.537 81.1989 135.13 81.2912 134.751 81.419C134.377 81.5421 134.074 81.7292 133.842 81.9801C133.615 82.2263 133.501 82.5625 133.501 82.9886C133.501 83.571 133.716 84.0114 134.147 84.3097C134.583 84.6032 135.134 84.75 135.802 84.75ZM147.345 86.2273C146.436 86.2273 145.633 85.9976 144.937 85.5384C144.241 85.0743 143.697 84.4209 143.304 83.5781C142.911 82.7306 142.714 81.7292 142.714 80.5739C142.714 79.428 142.911 78.4337 143.304 77.5909C143.697 76.7481 144.244 76.0971 144.944 75.6378C145.645 75.1785 146.455 74.9489 147.373 74.9489C148.084 74.9489 148.645 75.0672 149.057 75.304C149.473 75.536 149.791 75.8011 150.008 76.0994C150.231 76.393 150.404 76.6345 150.527 76.8239H150.669V71.4545H152.345V86H150.726V84.3239H150.527C150.404 84.5227 150.229 84.7737 150.001 85.0767C149.774 85.375 149.45 85.6425 149.028 85.8793C148.607 86.1113 148.046 86.2273 147.345 86.2273ZM147.572 84.7216C148.245 84.7216 148.813 84.5464 149.277 84.196C149.741 83.8409 150.094 83.3509 150.335 82.7259C150.577 82.0961 150.697 81.3693 150.697 80.5455C150.697 79.7311 150.579 79.0185 150.342 78.4077C150.105 77.7921 149.755 77.3139 149.291 76.973C148.827 76.6274 148.254 76.4545 147.572 76.4545C146.862 76.4545 146.27 76.6368 145.797 77.0014C145.328 77.3613 144.975 77.8513 144.738 78.4716C144.506 79.0871 144.39 79.7784 144.39 80.5455C144.39 81.322 144.509 82.0275 144.746 82.6619C144.987 83.2917 145.342 83.7936 145.811 84.1676C146.284 84.5369 146.872 84.7216 147.572 84.7216ZM160.04 80.169C160.04 81.9351 159.804 83.5592 159.33 85.0412C158.861 86.5232 158.142 87.8963 157.171 89.1605H154.28C154.65 88.6918 154.993 88.1188 155.31 87.4418C155.627 86.7647 155.904 86.026 156.141 85.2259C156.378 84.4209 156.563 83.5876 156.695 82.7259C156.828 81.8641 156.894 81.0118 156.894 80.169C156.894 79.0469 156.778 77.9152 156.546 76.7741C156.319 75.6283 156.006 74.5677 155.608 73.5923C155.215 72.6122 154.773 71.8097 154.28 71.1847H157.171C158.142 72.4489 158.861 73.822 159.33 75.304C159.804 76.786 160.04 78.4077 160.04 80.169Z" fill="black"/>
</svg>
