<svg width="449" height="427" viewBox="0 0 449 427" fill="none" xmlns="http://www.w3.org/2000/svg">
<rect x="1.5" y="281.494" width="63" height="63" rx="2.5" fill="white"/>
<rect x="1.5" y="281.494" width="63" height="63" rx="2.5" stroke="#9D9D9D" stroke-width="3"/>
<rect x="1.5" y="281.494" width="63" height="63" rx="2.5" stroke="black" stroke-opacity="0.2" stroke-width="3"/>
<rect x="128.5" y="281.494" width="63" height="63" rx="2.5" fill="white"/>
<rect x="128.5" y="281.494" width="63" height="63" rx="2.5" stroke="#9D9D9D" stroke-width="3"/>
<rect x="128.5" y="281.494" width="63" height="63" rx="2.5" stroke="black" stroke-opacity="0.2" stroke-width="3"/>
<rect x="255.5" y="281.494" width="64" height="63" rx="2.5" fill="white"/>
<rect x="255.5" y="281.494" width="64" height="63" rx="2.5" stroke="#9D9D9D" stroke-width="3"/>
<rect x="255.5" y="281.494" width="64" height="63" rx="2.5" stroke="black" stroke-opacity="0.2" stroke-width="3"/>
<rect x="384.5" y="281.494" width="63" height="63" rx="2.5" fill="white"/>
<rect x="384.5" y="281.494" width="63" height="63" rx="2.5" stroke="#9D9D9D" stroke-width="3"/>
<rect x="384.5" y="281.494" width="63" height="63" rx="2.5" stroke="black" stroke-opacity="0.2" stroke-width="3"/>
<path d="M162.577 140.492V114.427H170.703V117.702H166.82V137.207H170.703V140.492H162.577ZM188.248 138V134.787L195.755 127.836C196.394 127.218 196.929 126.662 197.362 126.167C197.801 125.673 198.134 125.189 198.361 124.715C198.587 124.235 198.701 123.716 198.701 123.16C198.701 122.542 198.56 122.01 198.278 121.564C197.997 121.111 197.612 120.764 197.125 120.524C196.638 120.277 196.085 120.153 195.467 120.153C194.822 120.153 194.259 120.283 193.778 120.544C193.297 120.805 192.927 121.179 192.666 121.667C192.405 122.154 192.274 122.734 192.274 123.407H188.042C188.042 122.027 188.354 120.829 188.979 119.813C189.604 118.797 190.479 118.011 191.605 117.455C192.731 116.899 194.029 116.621 195.498 116.621C197.008 116.621 198.323 116.888 199.442 117.424C200.568 117.953 201.443 118.687 202.068 119.628C202.693 120.568 203.005 121.646 203.005 122.862C203.005 123.658 202.847 124.444 202.532 125.22C202.223 125.996 201.67 126.857 200.874 127.805C200.077 128.745 198.955 129.875 197.506 131.193L194.427 134.21V134.354H203.283V138H188.248ZM224.284 135.549C223.604 135.549 223.02 135.309 222.533 134.828C222.052 134.348 221.812 133.764 221.812 133.077C221.812 132.405 222.052 131.828 222.533 131.347C223.02 130.867 223.604 130.626 224.284 130.626C224.943 130.626 225.52 130.867 226.014 131.347C226.508 131.828 226.755 132.405 226.755 133.077C226.755 133.531 226.639 133.946 226.405 134.324C226.179 134.694 225.88 134.993 225.509 135.219C225.138 135.439 224.73 135.549 224.284 135.549ZM224.284 125.199C223.604 125.199 223.02 124.959 222.533 124.478C222.052 123.998 221.812 123.414 221.812 122.728C221.812 122.055 222.052 121.482 222.533 121.008C223.02 120.527 223.604 120.287 224.284 120.287C224.943 120.287 225.52 120.527 226.014 121.008C226.508 121.482 226.755 122.055 226.755 122.728C226.755 123.188 226.639 123.606 226.405 123.984C226.179 124.355 225.88 124.65 225.509 124.87C225.138 125.089 224.73 125.199 224.284 125.199ZM253.183 138.288C251.727 138.288 250.43 138.021 249.29 137.485C248.157 136.95 247.258 136.212 246.592 135.271C245.926 134.33 245.579 133.252 245.552 132.037H249.877C249.925 132.854 250.268 133.517 250.907 134.025C251.545 134.533 252.304 134.787 253.183 134.787C253.883 134.787 254.501 134.632 255.037 134.324C255.579 134.008 256.001 133.572 256.303 133.016C256.612 132.453 256.767 131.807 256.767 131.08C256.767 130.338 256.609 129.686 256.293 129.123C255.984 128.56 255.555 128.121 255.006 127.805C254.456 127.489 253.828 127.328 253.121 127.321C252.503 127.321 251.902 127.448 251.319 127.702C250.742 127.956 250.293 128.302 249.97 128.742L246.005 128.031L247.004 116.909H259.897V120.555H250.68L250.135 125.838H250.258C250.629 125.316 251.188 124.883 251.937 124.54C252.685 124.197 253.523 124.025 254.45 124.025C255.72 124.025 256.853 124.324 257.848 124.921C258.844 125.518 259.63 126.339 260.206 127.382C260.783 128.419 261.068 129.614 261.061 130.966C261.068 132.387 260.738 133.651 260.072 134.756C259.413 135.855 258.49 136.72 257.302 137.351C256.121 137.976 254.748 138.288 253.183 138.288ZM286.42 114.427V140.492H278.295V137.207H282.177V117.702H278.295V114.427H286.42Z" fill="black"/>
<path d="M135.774 418.492V392.427H143.899V395.702H140.017V415.207H143.899V418.492H135.774ZM170.62 394.909V416H166.161V399.142H166.037L161.207 402.169V398.215L166.429 394.909H170.62ZM193.402 413.549C192.722 413.549 192.139 413.309 191.651 412.828C191.171 412.348 190.931 411.764 190.931 411.077C190.931 410.405 191.171 409.828 191.651 409.347C192.139 408.867 192.722 408.626 193.402 408.626C194.061 408.626 194.638 408.867 195.132 409.347C195.627 409.828 195.874 410.405 195.874 411.077C195.874 411.531 195.757 411.946 195.524 412.324C195.297 412.694 194.998 412.993 194.628 413.219C194.257 413.439 193.848 413.549 193.402 413.549ZM193.402 403.199C192.722 403.199 192.139 402.959 191.651 402.478C191.171 401.998 190.931 401.414 190.931 400.728C190.931 400.055 191.171 399.482 191.651 399.008C192.139 398.527 192.722 398.287 193.402 398.287C194.061 398.287 194.638 398.527 195.132 399.008C195.627 399.482 195.874 400.055 195.874 400.728C195.874 401.188 195.757 401.606 195.524 401.984C195.297 402.355 194.998 402.65 194.628 402.87C194.257 403.089 193.848 403.199 193.402 403.199ZM222.693 416.288C221.608 416.281 220.561 416.1 219.552 415.743C218.549 415.386 217.65 414.805 216.854 414.002C216.057 413.199 215.425 412.135 214.959 410.81C214.499 409.485 214.269 407.857 214.269 405.928C214.276 404.157 214.478 402.574 214.876 401.181C215.281 399.78 215.858 398.592 216.606 397.618C217.362 396.643 218.264 395.901 219.315 395.393C220.365 394.878 221.543 394.621 222.847 394.621C224.255 394.621 225.497 394.895 226.575 395.445C227.653 395.987 228.518 396.725 229.17 397.659C229.829 398.592 230.228 399.639 230.365 400.8H225.968C225.796 400.065 225.435 399.488 224.886 399.07C224.337 398.651 223.657 398.441 222.847 398.441C221.474 398.441 220.43 399.039 219.716 400.233C219.009 401.428 218.649 403.052 218.635 405.104H218.779C219.095 404.48 219.521 403.948 220.056 403.508C220.599 403.062 221.213 402.722 221.9 402.489C222.593 402.248 223.324 402.128 224.093 402.128C225.343 402.128 226.455 402.423 227.43 403.014C228.405 403.597 229.174 404.401 229.737 405.424C230.3 406.447 230.581 407.617 230.581 408.935C230.581 410.363 230.248 411.634 229.582 412.746C228.923 413.858 228 414.73 226.812 415.362C225.631 415.986 224.258 416.295 222.693 416.288ZM222.672 412.787C223.359 412.787 223.973 412.622 224.515 412.293C225.058 411.963 225.483 411.517 225.792 410.954C226.101 410.391 226.256 409.759 226.256 409.059C226.256 408.359 226.101 407.73 225.792 407.174C225.49 406.618 225.072 406.175 224.536 405.846C224.001 405.516 223.39 405.352 222.703 405.352C222.188 405.352 221.711 405.448 221.271 405.64C220.839 405.832 220.458 406.1 220.128 406.443C219.806 406.786 219.552 407.185 219.366 407.638C219.181 408.084 219.088 408.561 219.088 409.069C219.088 409.749 219.243 410.37 219.552 410.933C219.867 411.496 220.293 411.946 220.829 412.282C221.371 412.619 221.985 412.787 222.672 412.787ZM251.512 413.549C250.832 413.549 250.249 413.309 249.761 412.828C249.281 412.348 249.04 411.764 249.04 411.077C249.04 410.405 249.281 409.828 249.761 409.347C250.249 408.867 250.832 408.626 251.512 408.626C252.171 408.626 252.748 408.867 253.242 409.347C253.736 409.828 253.984 410.405 253.984 411.077C253.984 411.531 253.867 411.946 253.633 412.324C253.407 412.694 253.108 412.993 252.738 413.219C252.367 413.439 251.958 413.549 251.512 413.549ZM251.512 403.199C250.832 403.199 250.249 402.959 249.761 402.478C249.281 401.998 249.04 401.414 249.04 400.728C249.04 400.055 249.281 399.482 249.761 399.008C250.249 398.527 250.832 398.287 251.512 398.287C252.171 398.287 252.748 398.527 253.242 399.008C253.736 399.482 253.984 400.055 253.984 400.728C253.984 401.188 253.867 401.606 253.633 401.984C253.407 402.355 253.108 402.65 252.738 402.87C252.367 403.089 251.958 403.199 251.512 403.199ZM272.708 416V412.787L280.216 405.836C280.854 405.218 281.39 404.662 281.822 404.167C282.261 403.673 282.594 403.189 282.821 402.715C283.048 402.235 283.161 401.716 283.161 401.16C283.161 400.542 283.02 400.01 282.739 399.564C282.457 399.111 282.073 398.764 281.585 398.524C281.098 398.277 280.545 398.153 279.927 398.153C279.282 398.153 278.719 398.283 278.238 398.544C277.758 398.805 277.387 399.179 277.126 399.667C276.865 400.154 276.735 400.734 276.735 401.407H272.502C272.502 400.027 272.814 398.829 273.439 397.813C274.064 396.797 274.939 396.011 276.065 395.455C277.191 394.899 278.489 394.621 279.958 394.621C281.468 394.621 282.783 394.888 283.902 395.424C285.028 395.953 285.904 396.687 286.528 397.628C287.153 398.568 287.466 399.646 287.466 400.862C287.466 401.658 287.308 402.444 286.992 403.22C286.683 403.996 286.13 404.857 285.334 405.805C284.537 406.745 283.415 407.875 281.966 409.193L278.887 412.21V412.354H287.744V416H272.708ZM313.224 392.427V418.492H305.098V415.207H308.981V395.702H305.098V392.427H313.224Z" fill="black"/>
<rect x="1.5" y="5.5" width="63.1987" height="63.1987" rx="2.5" fill="white"/>
<rect x="1.5" y="5.5" width="63.1987" height="63.1987" rx="2.5" stroke="#9D9D9D" stroke-width="3"/>
<rect x="1.5" y="5.5" width="63.1987" height="63.1987" rx="2.5" stroke="black" stroke-opacity="0.2" stroke-width="3"/>
<rect x="64.8203" y="5.5" width="63.1987" height="63.1987" rx="2.5" fill="white"/>
<rect x="64.8203" y="5.5" width="63.1987" height="63.1987" rx="2.5" stroke="#9D9D9D" stroke-width="3"/>
<rect x="64.8203" y="5.5" width="63.1987" height="63.1987" rx="2.5" stroke="black" stroke-opacity="0.2" stroke-width="3"/>
<rect x="320.021" y="5.5" width="64.1581" height="63.1987" rx="2.5" fill="white"/>
<rect x="320.021" y="5.5" width="64.1581" height="63.1987" rx="2.5" stroke="#9D9D9D" stroke-width="3"/>
<rect x="320.021" y="5.5" width="64.1581" height="63.1987" rx="2.5" stroke="black" stroke-opacity="0.2" stroke-width="3"/>
<rect x="384.301" y="5.5" width="63.1987" height="63.1987" rx="2.5" fill="white"/>
<rect x="384.301" y="5.5" width="63.1987" height="63.1987" rx="2.5" stroke="#9D9D9D" stroke-width="3"/>
<rect x="384.301" y="5.5" width="63.1987" height="63.1987" rx="2.5" stroke="black" stroke-opacity="0.2" stroke-width="3"/>
<rect x="117.926" y="2" width="70.1987" height="70.1987" rx="5" fill="#E0E7FF"/>
<rect x="117.926" y="2" width="70.1987" height="70.1987" rx="5" stroke="#9D9D9D" stroke-width="4"/>
<rect x="117.926" y="2" width="70.1987" height="70.1987" rx="5" stroke="#4774D7" stroke-width="4"/>
<rect x="187.961" y="2" width="71.1581" height="70.1987" rx="5" fill="#E0E7FF"/>
<rect x="187.961" y="2" width="71.1581" height="70.1987" rx="5" stroke="#9D9D9D" stroke-width="4"/>
<rect x="187.961" y="2" width="71.1581" height="70.1987" rx="5" stroke="#4774D7" stroke-width="4"/>
<rect x="258.957" y="2" width="71.1581" height="70.1987" rx="5" fill="#E0E7FF"/>
<rect x="258.957" y="2" width="71.1581" height="70.1987" rx="5" stroke="#9D9D9D" stroke-width="4"/>
<rect x="258.957" y="2" width="71.1581" height="70.1987" rx="5" stroke="#4774D7" stroke-width="4"/>
<rect x="61" y="277.994" width="71" height="70" rx="5" fill="#E0E7FF"/>
<rect x="61" y="277.994" width="71" height="70" rx="5" stroke="#9D9D9D" stroke-width="4"/>
<rect x="61" y="277.994" width="71" height="70" rx="5" stroke="#4774D7" stroke-width="4"/>
<rect x="188" y="277.994" width="71" height="70" rx="5" fill="#E0E7FF"/>
<rect x="188" y="277.994" width="71" height="70" rx="5" stroke="#9D9D9D" stroke-width="4"/>
<rect x="188" y="277.994" width="71" height="70" rx="5" stroke="#4774D7" stroke-width="4"/>
<rect x="317" y="277.994" width="71" height="70" rx="5" fill="#E0E7FF"/>
<rect x="317" y="277.994" width="71" height="70" rx="5" stroke="#9D9D9D" stroke-width="4"/>
<rect x="317" y="277.994" width="71" height="70" rx="5" stroke="#4774D7" stroke-width="4"/>
</svg>
