<svg width="368" height="537" viewBox="0 0 368 537" fill="none" xmlns="http://www.w3.org/2000/svg">
<rect width="13" height="63" rx="2" transform="matrix(1 0 0 -1 178 284)" fill="#E04343"/>
<path d="M183.121 304.375C183.499 305.074 184.501 305.074 184.879 304.375L196.191 283.476C196.552 282.81 196.07 282 195.312 282H172.688C171.93 282 171.448 282.81 171.809 283.476L183.121 304.375Z" fill="#E04343"/>
<path d="M228.082 263C228.082 263.283 227.973 263.533 227.757 263.75C227.54 263.967 227.273 264.075 226.957 264.075C226.457 264.075 226.09 263.983 225.857 263.8C225.623 263.6 225.507 263.242 225.507 262.725C225.507 262.108 225.49 261.3 225.457 260.3C225.423 259.467 225.407 258.767 225.407 258.2C225.407 257.933 225.423 257.583 225.457 257.15C225.49 256.75 225.507 256.45 225.507 256.25C225.457 255.933 225.332 255.675 225.132 255.475C224.932 255.258 224.673 255.15 224.357 255.15C224.207 255.15 224.082 255.083 223.982 254.95C223.882 254.8 223.832 254.65 223.832 254.5C223.832 254.117 223.982 253.825 224.282 253.625C224.598 253.425 224.973 253.325 225.407 253.325C226.307 253.325 226.932 253.858 227.282 254.925C227.715 254.425 228.207 254.025 228.757 253.725C229.323 253.408 229.865 253.25 230.382 253.25C230.998 253.25 231.557 253.417 232.057 253.75C232.573 254.083 232.832 254.533 232.832 255.1C232.832 255.417 232.69 255.742 232.407 256.075C232.14 256.408 231.865 256.575 231.582 256.575C231.432 256.575 231.298 256.542 231.182 256.475C231.082 256.392 230.957 256.275 230.807 256.125C230.64 255.958 230.498 255.842 230.382 255.775C230.265 255.692 230.132 255.65 229.982 255.65C229.715 255.65 229.465 255.692 229.232 255.775C228.998 255.858 228.84 255.958 228.757 256.075C228.49 256.492 228.29 256.867 228.157 257.2C228.04 257.533 227.982 257.892 227.982 258.275C227.982 258.558 227.973 258.783 227.957 258.95L227.932 260.375C227.932 260.592 227.94 260.833 227.957 261.1C227.973 261.367 227.99 261.567 228.007 261.7C228.057 262.15 228.082 262.583 228.082 263ZM234.618 258.7C234.618 258.067 234.735 257.433 234.968 256.8C235.201 256.15 235.51 255.558 235.893 255.025C236.276 254.492 236.885 254.058 237.718 253.725C238.551 253.375 239.293 253.2 239.943 253.2C240.61 253.2 241.285 253.292 241.968 253.475C242.668 253.658 243.151 253.942 243.418 254.325C244.035 255.192 244.343 256.042 244.343 256.875C244.343 257.325 244.243 257.708 244.043 258.025C243.86 258.342 243.593 258.683 243.243 259.05C242.96 259.35 242.51 259.55 241.893 259.65C241.293 259.75 240.693 259.8 240.093 259.8C239.71 259.8 239.243 259.767 238.693 259.7C238.143 259.617 237.61 259.517 237.093 259.4C237.126 259.733 237.21 260.058 237.343 260.375C237.476 260.692 237.635 260.933 237.818 261.1C238.151 261.417 238.493 261.617 238.843 261.7C239.21 261.783 239.676 261.825 240.243 261.825C240.843 261.825 241.401 261.725 241.918 261.525C242.335 261.375 242.676 261.3 242.943 261.3C243.26 261.3 243.501 261.4 243.668 261.6C243.835 261.783 243.918 262.025 243.918 262.325C243.918 262.742 243.676 263.083 243.193 263.35C242.71 263.617 242.151 263.817 241.518 263.95C240.901 264.067 240.401 264.125 240.018 264.125C239.235 264.125 238.476 263.983 237.743 263.7C237.01 263.417 236.401 263.017 235.918 262.5C235.518 262.033 235.201 261.475 234.968 260.825C234.735 260.158 234.618 259.45 234.618 258.7ZM240.068 255.325C239.701 255.325 239.335 255.4 238.968 255.55C238.601 255.683 238.301 255.875 238.068 256.125C237.768 256.442 237.56 256.7 237.443 256.9C237.343 257.083 237.276 257.342 237.243 257.675C237.66 257.808 238.526 257.875 239.843 257.875C240.56 257.875 241.11 257.767 241.493 257.55C241.893 257.333 242.093 257.05 242.093 256.7C242.093 256.35 241.876 256.033 241.443 255.75C241.01 255.467 240.551 255.325 240.068 255.325ZM254.232 258.6C254.366 258.683 254.624 258.842 255.007 259.075C255.407 259.292 255.674 259.55 255.807 259.85C255.941 260.15 256.007 260.567 256.007 261.1C256.007 261.7 255.832 262.233 255.482 262.7C255.132 263.15 254.682 263.5 254.132 263.75C253.749 263.917 253.332 264.017 252.882 264.05C252.449 264.083 251.924 264.1 251.307 264.1C250.974 264.1 250.541 264.05 250.007 263.95C249.491 263.85 249.132 263.758 248.932 263.675C248.399 263.375 247.949 263.025 247.582 262.625C247.216 262.225 247.032 261.817 247.032 261.4C247.032 261.067 247.141 260.8 247.357 260.6C247.574 260.4 247.857 260.3 248.207 260.3C248.391 260.3 248.566 260.35 248.732 260.45C248.916 260.533 249.041 260.633 249.107 260.75C249.291 261.183 249.599 261.508 250.032 261.725C250.466 261.942 250.907 262.05 251.357 262.05C252.941 262.05 253.732 261.767 253.732 261.2C253.732 261.05 253.691 260.933 253.607 260.85C253.541 260.75 253.441 260.65 253.307 260.55C253.091 260.4 252.782 260.242 252.382 260.075C251.999 259.908 251.657 259.783 251.357 259.7C250.674 259.55 250.007 259.325 249.357 259.025C248.757 258.725 248.266 258.333 247.882 257.85C247.499 257.35 247.307 256.742 247.307 256.025C247.307 255.592 247.466 255.167 247.782 254.75C248.116 254.317 248.499 253.992 248.932 253.775C249.232 253.658 249.724 253.533 250.407 253.4C251.091 253.267 251.557 253.2 251.807 253.2C252.191 253.2 252.607 253.242 253.057 253.325C253.507 253.392 253.849 253.508 254.082 253.675C254.532 253.942 254.899 254.225 255.182 254.525C255.466 254.808 255.607 255.133 255.607 255.5C255.607 255.683 255.566 255.883 255.482 256.1C255.399 256.3 255.299 256.425 255.182 256.475C254.932 256.592 254.641 256.65 254.307 256.65C254.157 256.65 254.032 256.608 253.932 256.525C253.849 256.442 253.732 256.308 253.582 256.125C253.399 255.842 253.224 255.675 253.057 255.625C252.857 255.575 252.566 255.517 252.182 255.45C251.799 255.367 251.541 255.325 251.407 255.325C250.991 255.325 250.591 255.408 250.207 255.575C249.841 255.742 249.657 255.967 249.657 256.25C249.657 256.583 249.932 256.867 250.482 257.1C250.832 257.267 251.216 257.408 251.632 257.525C252.066 257.642 252.332 257.717 252.432 257.75C252.666 257.8 252.966 257.917 253.332 258.1C253.716 258.283 254.016 258.45 254.232 258.6ZM261.89 248.15C261.89 248.583 261.882 249.092 261.865 249.675C261.848 250.242 261.832 250.675 261.815 250.975C261.765 251.825 261.74 252.675 261.74 253.525C261.74 254.642 261.765 255.542 261.815 256.225C262.198 255.275 262.74 254.558 263.44 254.075C264.14 253.575 264.94 253.325 265.84 253.325C266.457 253.325 267.032 253.6 267.565 254.15C268.098 254.7 268.44 255.342 268.59 256.075C268.607 256.158 268.615 256.283 268.615 256.45C268.615 256.65 268.598 256.967 268.565 257.4C268.515 257.75 268.49 258.1 268.49 258.45C268.49 259.35 268.523 260.05 268.59 260.55C268.657 261.033 268.798 261.433 269.015 261.75C269.232 262.05 269.573 262.292 270.04 262.475C270.223 262.542 270.348 262.633 270.415 262.75C270.498 262.85 270.54 263.008 270.54 263.225C270.54 263.525 270.382 263.75 270.065 263.9C269.765 264.05 269.473 264.125 269.19 264.125C268.607 264.125 268.082 263.967 267.615 263.65C267.148 263.333 266.798 262.917 266.565 262.4C266.398 262.05 266.29 261.633 266.24 261.15C266.19 260.667 266.165 260.1 266.165 259.45L266.19 257.275C266.19 256.092 265.807 255.5 265.04 255.5C264.49 255.5 263.957 255.95 263.44 256.85C262.923 257.75 262.507 258.808 262.19 260.025C261.873 261.242 261.715 262.242 261.715 263.025C261.715 263.392 261.598 263.667 261.365 263.85C261.148 264.017 260.923 264.1 260.69 264.1C260.323 264.1 259.99 263.992 259.69 263.775C259.39 263.542 259.24 263.283 259.24 263C259.357 261.75 259.415 259.658 259.415 256.725C259.415 256.192 259.373 254.217 259.29 250.8L259.215 248.5C259.215 248.133 259.382 247.817 259.715 247.55C260.048 247.267 260.423 247.125 260.84 247.125C261.207 247.125 261.473 247.208 261.64 247.375C261.807 247.542 261.89 247.8 261.89 248.15ZM282.171 264.1C281.604 264.1 281.171 264.017 280.871 263.85C280.571 263.667 280.246 263.333 279.896 262.85C279.462 263.233 278.812 263.542 277.946 263.775C277.096 264.008 276.362 264.125 275.746 264.125C274.729 264.125 273.904 263.85 273.271 263.3C272.654 262.733 272.346 261.908 272.346 260.825C272.346 260.358 272.471 259.933 272.721 259.55C272.987 259.15 273.329 258.8 273.746 258.5C274.212 258.183 274.762 257.933 275.396 257.75C276.046 257.567 276.637 257.475 277.171 257.475C278.071 257.475 278.871 257.558 279.571 257.725V257.7C279.571 256.8 279.346 256.183 278.896 255.85C278.462 255.5 277.762 255.325 276.796 255.325C276.179 255.325 275.646 255.6 275.196 256.15C275.029 256.367 274.679 256.475 274.146 256.475C273.879 256.475 273.679 256.367 273.546 256.15C273.429 255.917 273.371 255.683 273.371 255.45C273.371 254.967 273.571 254.55 273.971 254.2C274.387 253.85 274.887 253.592 275.471 253.425C276.054 253.242 276.596 253.15 277.096 253.15C277.579 253.15 278.154 253.25 278.821 253.45C279.487 253.65 280.029 253.917 280.446 254.25C280.946 254.683 281.329 255.192 281.596 255.775C281.879 256.342 282.021 256.967 282.021 257.65C282.021 257.867 282.004 258.192 281.971 258.625C281.937 259.125 281.921 259.533 281.921 259.85C281.921 260 281.904 260.192 281.871 260.425C281.837 260.725 281.821 260.975 281.821 261.175C281.821 261.392 281.887 261.6 282.021 261.8C282.154 262 282.337 262.167 282.571 262.3C282.787 262.417 282.929 262.542 282.996 262.675C283.062 262.808 283.096 262.958 283.096 263.125C283.096 263.292 282.987 263.5 282.771 263.75C282.571 263.983 282.371 264.1 282.171 264.1ZM277.171 259.325C276.521 259.325 275.946 259.45 275.446 259.7C274.946 259.95 274.696 260.392 274.696 261.025C274.696 261.342 274.804 261.608 275.021 261.825C275.254 262.042 275.504 262.15 275.771 262.15C276.487 262.15 277.087 262.075 277.571 261.925C278.054 261.775 278.637 261.5 279.321 261.1C279.404 260.833 279.454 260.458 279.471 259.975C279.471 259.792 279.479 259.65 279.496 259.55C278.596 259.4 277.821 259.325 277.171 259.325ZM286.05 255.3C285.9 255.3 285.759 255.317 285.625 255.35C285.492 255.367 285.359 255.375 285.225 255.375C285.042 255.375 284.867 255.292 284.7 255.125C284.55 254.958 284.475 254.808 284.475 254.675C284.475 254.242 284.692 253.908 285.125 253.675C285.559 253.425 286 253.3 286.45 253.3C286.834 253.3 287.225 253.433 287.625 253.7C288.042 253.95 288.35 254.275 288.55 254.675C288.984 254.158 289.517 253.783 290.15 253.55C290.784 253.317 291.442 253.2 292.125 253.2C292.892 253.2 293.6 253.442 294.25 253.925C294.917 254.408 295.442 255.025 295.825 255.775C296.209 256.508 296.4 257.242 296.4 257.975C296.4 258.692 296.325 259.333 296.175 259.9C296.025 260.45 295.759 261.008 295.375 261.575C294.942 262.175 294.359 262.667 293.625 263.05C292.909 263.433 292.05 263.625 291.05 263.625C290.784 263.625 290.459 263.558 290.075 263.425C289.692 263.275 289.375 263.117 289.125 262.95C289.009 264.083 288.95 265.067 288.95 265.9C288.95 266.4 288.975 266.875 289.025 267.325C289.059 267.858 289.075 268.242 289.075 268.475C289.075 268.842 288.95 269.108 288.7 269.275C288.45 269.458 288.175 269.55 287.875 269.55C287.275 269.55 286.875 269.383 286.675 269.05C286.492 268.733 286.4 268.275 286.4 267.675C286.467 266.242 286.55 264.917 286.65 263.7C286.75 262.2 286.8 259.883 286.8 256.75C286.8 256.45 286.742 256.133 286.625 255.8C286.509 255.467 286.317 255.3 286.05 255.3ZM289.225 260.475C289.309 260.792 289.542 261.058 289.925 261.275C290.325 261.475 290.684 261.575 291 261.575C291.95 261.575 292.659 261.317 293.125 260.8C293.475 260.433 293.7 260.075 293.8 259.725C293.917 259.375 293.975 258.817 293.975 258.05C293.975 257.45 293.859 256.95 293.625 256.55C293.392 256.133 293.109 255.833 292.775 255.65C292.442 255.45 292.125 255.35 291.825 255.35C291.142 255.35 290.584 255.558 290.15 255.975C289.734 256.375 289.467 256.925 289.35 257.625C289.267 258.175 289.225 259.125 289.225 260.475ZM299.008 258.35C299.008 257.75 299.116 257.192 299.333 256.675C299.549 256.142 299.866 255.592 300.283 255.025C300.699 254.458 301.274 254.017 302.008 253.7C302.741 253.367 303.541 253.2 304.408 253.2C305.074 253.2 305.716 253.342 306.333 253.625C306.966 253.892 307.533 254.225 308.033 254.625C308.099 254.742 308.216 254.958 308.383 255.275C308.549 255.575 308.666 255.85 308.733 256.1C308.816 256.35 308.858 256.608 308.858 256.875C308.858 257.992 308.449 258.742 307.633 259.125C306.816 259.492 305.783 259.675 304.533 259.675C303.283 259.675 302.266 259.592 301.483 259.425C301.516 259.742 301.599 260.058 301.733 260.375C301.866 260.692 302.024 260.933 302.208 261.1C302.541 261.417 302.866 261.625 303.183 261.725C303.516 261.808 303.958 261.85 304.508 261.85C305.341 261.85 305.991 261.692 306.458 261.375C306.891 261.092 307.224 260.95 307.458 260.95C307.774 260.95 308.016 261.05 308.183 261.25C308.349 261.433 308.433 261.675 308.433 261.975C308.433 262.608 308.024 263.125 307.208 263.525C306.408 263.925 305.499 264.125 304.483 264.125C303.683 264.125 302.891 263.983 302.108 263.7C301.324 263.417 300.699 263.017 300.233 262.5C299.916 261.967 299.633 261.317 299.383 260.55C299.133 259.783 299.008 259.05 299.008 258.35ZM304.508 255.25C304.141 255.25 303.758 255.317 303.358 255.45C302.974 255.567 302.674 255.75 302.458 256C302.191 256.283 301.991 256.542 301.858 256.775C301.741 257.008 301.666 257.3 301.633 257.65C301.816 257.65 301.991 257.658 302.158 257.675C302.324 257.692 302.483 257.708 302.633 257.725C303.366 257.792 303.916 257.825 304.283 257.825C305.016 257.825 305.574 257.717 305.958 257.5C306.358 257.283 306.558 256.992 306.558 256.625C306.558 256.275 306.333 255.958 305.883 255.675C305.449 255.392 304.991 255.25 304.508 255.25Z" fill="black"/>
<path d="M243.623 88.4545C243.623 85.9006 243.962 83.5491 244.642 81.4002C245.329 79.2513 246.376 77.2603 247.783 75.4272H251.974C251.439 76.1069 250.941 76.9376 250.481 77.9194C250.021 78.8943 249.62 79.9653 249.276 81.1325C248.933 82.2996 248.665 83.5079 248.473 84.7575C248.281 86.0001 248.185 87.2325 248.185 88.4545C248.185 90.0817 248.349 91.726 248.679 93.3874C249.015 95.042 249.469 96.5799 250.038 98.0011C250.615 99.4222 251.26 100.586 251.974 101.492H247.783C246.376 99.6591 245.329 97.6681 244.642 95.5192C243.962 93.3703 243.623 91.0154 243.623 88.4545ZM269.324 95.2926V91.7809L278.129 77.9091H281.157V82.7699H279.365L273.814 91.5543V91.7191H286.327V95.2926H269.324ZM279.447 99V94.2216L279.53 92.6665V77.9091H283.711V99H279.447ZM301.979 96.1165L301.866 97.2493C301.776 98.1555 301.605 99.0584 301.351 99.9577C301.103 100.864 300.843 101.684 300.568 102.419C300.3 103.154 300.084 103.73 299.919 104.149H297.077C297.18 103.744 297.321 103.178 297.499 102.45C297.678 101.729 297.846 100.919 298.004 100.02C298.162 99.1201 298.261 98.2036 298.302 97.2699L298.354 96.1165H301.979ZM319.802 95.2926V91.7809L328.607 77.9091H331.635V82.7699H329.843L324.292 91.5543V91.7191H336.805V95.2926H319.802ZM329.925 99V94.2216L330.008 92.6665V77.9091H334.189V99H329.925ZM362.375 88.4545C362.375 91.0154 362.032 93.3703 361.345 95.5192C360.665 97.6681 359.622 99.6591 358.214 101.492H354.023C354.559 100.812 355.056 99.9818 355.516 99C355.976 98.0182 356.378 96.9472 356.721 95.7869C357.064 94.6198 357.332 93.4115 357.524 92.1619C357.717 90.9124 357.813 89.6766 357.813 88.4545C357.813 86.8274 357.645 85.1866 357.308 83.532C356.979 81.8705 356.525 80.3326 355.949 78.9183C355.379 77.4972 354.737 76.3335 354.023 75.4272H358.214C359.622 77.2603 360.665 79.2513 361.345 81.4002C362.032 83.5491 362.375 85.9006 362.375 88.4545Z" fill="black"/>
<path d="M29.5571 515.455C29.5571 512.901 29.8969 510.549 30.5766 508.4C31.2632 506.251 32.3101 504.26 33.7176 502.427H37.909C37.3735 503.107 36.8757 503.938 36.4157 504.919C35.9557 505.894 35.5541 506.965 35.2108 508.132C34.8676 509.3 34.5998 510.508 34.4076 511.757C34.2153 513 34.1192 514.232 34.1192 515.455C34.1192 517.082 34.284 518.726 34.6135 520.387C34.9499 522.042 35.4031 523.58 35.9729 525.001C36.5496 526.422 37.195 527.586 37.909 528.492H33.7176C32.3101 526.659 31.2632 524.668 30.5766 522.519C29.8969 520.37 29.5571 518.015 29.5571 515.455ZM63.4458 526.288C61.8598 526.288 60.449 526.031 59.2132 525.516C57.9842 524.994 57.0196 524.284 56.3194 523.384C55.6191 522.485 55.2689 521.465 55.2689 520.326C55.2689 519.447 55.468 518.64 55.8662 517.906C56.2713 517.164 56.8205 516.55 57.514 516.062C58.2074 515.568 58.9832 515.252 59.8414 515.115V514.971C58.7154 514.744 57.8023 514.198 57.102 513.333C56.4017 512.461 56.0516 511.449 56.0516 510.295C56.0516 509.203 56.3708 508.232 57.0093 507.381C57.6478 506.522 58.5232 505.85 59.6354 505.362C60.7545 504.868 62.0246 504.621 63.4458 504.621C64.8669 504.621 66.1336 504.868 67.2458 505.362C68.3649 505.857 69.2437 506.533 69.8822 507.391C70.5207 508.242 70.8434 509.21 70.8502 510.295C70.8434 511.455 70.4864 512.468 69.7792 513.333C69.0721 514.198 68.1658 514.744 67.0605 514.971V515.115C67.9049 515.252 68.6704 515.568 69.357 516.062C70.0504 516.55 70.5997 517.164 71.0047 517.906C71.4167 518.64 71.6261 519.447 71.6329 520.326C71.6261 521.465 71.2725 522.485 70.5722 523.384C69.8719 524.284 68.9039 524.994 67.6681 525.516C66.4391 526.031 65.0317 526.288 63.4458 526.288ZM63.4458 523.013C64.1529 523.013 64.7708 522.886 65.2995 522.632C65.8281 522.372 66.24 522.015 66.5353 521.561C66.8373 521.101 66.9884 520.573 66.9884 519.975C66.9884 519.364 66.8339 518.826 66.525 518.359C66.216 517.885 65.7972 517.514 65.2686 517.246C64.7399 516.972 64.1323 516.835 63.4458 516.835C62.7661 516.835 62.1585 516.972 61.623 517.246C61.0875 517.514 60.6652 517.885 60.3563 518.359C60.0542 518.826 59.9032 519.364 59.9032 519.975C59.9032 520.573 60.0508 521.101 60.346 521.561C60.6412 522.015 61.0566 522.372 61.5921 522.632C62.1276 522.886 62.7455 523.013 63.4458 523.013ZM63.4458 513.591C64.0362 513.591 64.5614 513.47 65.0214 513.23C65.4814 512.99 65.8418 512.657 66.1027 512.231C66.3636 511.806 66.4941 511.315 66.4941 510.759C66.4941 510.209 66.3636 509.729 66.1027 509.317C65.8418 508.898 65.4848 508.572 65.0317 508.338C64.5786 508.098 64.0499 507.978 63.4458 507.978C62.8485 507.978 62.3198 508.098 61.8598 508.338C61.3998 508.572 61.0394 508.898 60.7785 509.317C60.5245 509.729 60.3975 510.209 60.3975 510.759C60.3975 511.315 60.5279 511.806 60.7888 512.231C61.0497 512.657 61.4101 512.99 61.8701 513.23C62.3301 513.47 62.8553 513.591 63.4458 513.591ZM87.4319 523.116L87.3187 524.249C87.2294 525.156 87.0578 526.058 86.8038 526.958C86.5566 527.864 86.2957 528.684 86.0211 529.419C85.7533 530.154 85.5371 530.73 85.3723 531.149H82.53C82.6329 530.744 82.7737 530.178 82.9522 529.45C83.1307 528.729 83.2989 527.919 83.4568 527.02C83.6147 526.12 83.7143 525.204 83.7555 524.27L83.8069 523.116H87.4319ZM105.575 526V522.787L113.082 515.836C113.721 515.218 114.256 514.662 114.689 514.167C115.128 513.673 115.461 513.189 115.687 512.715C115.914 512.235 116.027 511.716 116.027 511.16C116.027 510.542 115.887 510.01 115.605 509.564C115.324 509.111 114.939 508.764 114.452 508.524C113.964 508.277 113.412 508.153 112.794 508.153C112.148 508.153 111.585 508.283 111.105 508.544C110.624 508.805 110.253 509.179 109.993 509.667C109.732 510.154 109.601 510.734 109.601 511.407H105.369C105.369 510.027 105.681 508.829 106.306 507.813C106.93 506.797 107.806 506.011 108.932 505.455C110.058 504.899 111.355 504.621 112.825 504.621C114.335 504.621 115.65 504.888 116.769 505.424C117.895 505.953 118.77 506.687 119.395 507.628C120.02 508.568 120.332 509.646 120.332 510.862C120.332 511.658 120.174 512.444 119.858 513.22C119.549 513.996 118.997 514.857 118.2 515.805C117.404 516.745 116.281 517.875 114.833 519.193L111.754 522.21V522.354H120.61V526H105.575ZM146.44 515.455C146.44 518.015 146.097 520.37 145.411 522.519C144.731 524.668 143.687 526.659 142.28 528.492H138.088C138.624 527.812 139.122 526.982 139.582 526C140.042 525.018 140.443 523.947 140.787 522.787C141.13 521.62 141.398 520.411 141.59 519.162C141.782 517.912 141.878 516.677 141.878 515.455C141.878 513.827 141.71 512.187 141.374 510.532C141.044 508.871 140.591 507.333 140.014 505.918C139.444 504.497 138.802 503.333 138.088 502.427H142.28C143.687 504.26 144.731 506.251 145.411 508.4C146.097 510.549 146.44 512.901 146.44 515.455Z" fill="black"/>
<rect x="1" y="1" width="43" height="43" rx="3" fill="#F1F8FF"/>
<rect x="1" y="1" width="43" height="43" rx="3" stroke="white" stroke-width="2"/>
<rect x="1" y="1" width="43" height="43" rx="3" stroke="#454545" stroke-opacity="0.42" stroke-width="2"/>
<rect x="44" y="1" width="43" height="43" rx="3" fill="#F1F8FF"/>
<rect x="44" y="1" width="43" height="43" rx="3" stroke="white" stroke-width="2"/>
<rect x="44" y="1" width="43" height="43" rx="3" stroke="#454545" stroke-opacity="0.42" stroke-width="2"/>
<rect x="87" y="1" width="43" height="43" rx="3" fill="#F1F8FF"/>
<rect x="87" y="1" width="43" height="43" rx="3" stroke="white" stroke-width="2"/>
<rect x="87" y="1" width="43" height="43" rx="3" stroke="#454545" stroke-opacity="0.42" stroke-width="2"/>
<rect x="1" y="44" width="43" height="43" rx="3" fill="#F1F8FF"/>
<rect x="1" y="44" width="43" height="43" rx="3" stroke="white" stroke-width="2"/>
<rect x="1" y="44" width="43" height="43" rx="3" stroke="#454545" stroke-opacity="0.42" stroke-width="2"/>
<rect x="44" y="44" width="43" height="43" rx="3" fill="#F1F8FF"/>
<rect x="44" y="44" width="43" height="43" rx="3" stroke="white" stroke-width="2"/>
<rect x="44" y="44" width="43" height="43" rx="3" stroke="#454545" stroke-opacity="0.42" stroke-width="2"/>
<rect x="87" y="44" width="43" height="43" rx="3" fill="#F1F8FF"/>
<rect x="87" y="44" width="43" height="43" rx="3" stroke="white" stroke-width="2"/>
<rect x="87" y="44" width="43" height="43" rx="3" stroke="#454545" stroke-opacity="0.42" stroke-width="2"/>
<rect x="1" y="87" width="43" height="43" rx="3" fill="#BCE5FF"/>
<rect x="1" y="87" width="43" height="43" rx="3" stroke="white" stroke-width="2"/>
<rect x="1" y="87" width="43" height="43" rx="3" stroke="#454545" stroke-opacity="0.42" stroke-width="2"/>
<rect x="44" y="87" width="43" height="43" rx="3" fill="#BCE5FF"/>
<rect x="44" y="87" width="43" height="43" rx="3" stroke="white" stroke-width="2"/>
<rect x="44" y="87" width="43" height="43" rx="3" stroke="#454545" stroke-opacity="0.42" stroke-width="2"/>
<rect x="87" y="87" width="43" height="43" rx="3" fill="#BCE5FF"/>
<rect x="87" y="87" width="43" height="43" rx="3" stroke="white" stroke-width="2"/>
<rect x="87" y="87" width="43" height="43" rx="3" stroke="#454545" stroke-opacity="0.42" stroke-width="2"/>
<rect x="130" y="1" width="43" height="43" rx="3" fill="#F1F8FF"/>
<rect x="130" y="1" width="43" height="43" rx="3" stroke="white" stroke-width="2"/>
<rect x="130" y="1" width="43" height="43" rx="3" stroke="#454545" stroke-opacity="0.42" stroke-width="2"/>
<rect x="130" y="44" width="43" height="43" rx="3" fill="#F1F8FF"/>
<rect x="130" y="44" width="43" height="43" rx="3" stroke="white" stroke-width="2"/>
<rect x="130" y="44" width="43" height="43" rx="3" stroke="#454545" stroke-opacity="0.42" stroke-width="2"/>
<rect x="130" y="87" width="43" height="43" rx="3" fill="#BCE5FF"/>
<rect x="130" y="87" width="43" height="43" rx="3" stroke="white" stroke-width="2"/>
<rect x="130" y="87" width="43" height="43" rx="3" stroke="#454545" stroke-opacity="0.42" stroke-width="2"/>
<rect x="1" y="130" width="43" height="43" rx="3" fill="#BCE5FF"/>
<rect x="1" y="130" width="43" height="43" rx="3" stroke="white" stroke-width="2"/>
<rect x="1" y="130" width="43" height="43" rx="3" stroke="#454545" stroke-opacity="0.42" stroke-width="2"/>
<rect x="44" y="130" width="43" height="43" rx="3" fill="#BCE5FF"/>
<rect x="44" y="130" width="43" height="43" rx="3" stroke="white" stroke-width="2"/>
<rect x="44" y="130" width="43" height="43" rx="3" stroke="#454545" stroke-opacity="0.42" stroke-width="2"/>
<rect x="87" y="130" width="43" height="43" rx="3" fill="#BCE5FF"/>
<rect x="87" y="130" width="43" height="43" rx="3" stroke="white" stroke-width="2"/>
<rect x="87" y="130" width="43" height="43" rx="3" stroke="#454545" stroke-opacity="0.42" stroke-width="2"/>
<rect x="130" y="130" width="43" height="43" rx="3" fill="#BCE5FF"/>
<rect x="130" y="130" width="43" height="43" rx="3" stroke="white" stroke-width="2"/>
<rect x="130" y="130" width="43" height="43" rx="3" stroke="#454545" stroke-opacity="0.42" stroke-width="2"/>
<path d="M24.9868 16.4545V31H22.3519V19.0185H22.2666L18.8646 21.1918V18.777L22.4797 16.4545H24.9868Z" fill="black"/>
<path d="M145.952 28.3011V26.206L152.124 16.4545H153.871V19.4375H152.806L148.651 26.0213V26.1349H157.266V28.3011H145.952ZM152.891 31V27.6619L152.92 26.7244V16.4545H155.405V31H152.891Z" fill="black"/>
<path d="M108.582 31.1989C107.559 31.1989 106.65 31.0237 105.855 30.6733C105.064 30.3229 104.439 29.8352 103.98 29.2102C103.52 28.5852 103.276 27.8632 103.248 27.044H105.918C105.942 27.437 106.072 27.7803 106.309 28.0739C106.546 28.3627 106.861 28.5876 107.254 28.7486C107.647 28.9096 108.087 28.9901 108.575 28.9901C109.096 28.9901 109.557 28.9001 109.96 28.7202C110.362 28.5355 110.677 28.2798 110.904 27.9531C111.132 27.6264 111.243 27.25 111.238 26.8239C111.243 26.3835 111.129 25.9953 110.897 25.6591C110.665 25.3229 110.329 25.0601 109.889 24.8707C109.453 24.6813 108.927 24.5866 108.312 24.5866H107.026V22.5554H108.312C108.819 22.5554 109.261 22.4678 109.64 22.2926C110.024 22.1174 110.324 21.8712 110.542 21.554C110.76 21.232 110.866 20.8603 110.862 20.4389C110.866 20.027 110.774 19.6695 110.585 19.3665C110.4 19.0587 110.137 18.8196 109.796 18.6491C109.46 18.4787 109.065 18.3935 108.61 18.3935C108.165 18.3935 107.753 18.474 107.374 18.6349C106.996 18.7959 106.69 19.0256 106.458 19.3239C106.226 19.6174 106.103 19.9678 106.089 20.375H103.553C103.572 19.5606 103.807 18.8456 104.257 18.2301C104.711 17.6098 105.317 17.1269 106.075 16.7812C106.832 16.4309 107.682 16.2557 108.624 16.2557C109.595 16.2557 110.438 16.438 111.153 16.8026C111.873 17.1624 112.429 17.6477 112.822 18.2585C113.215 18.8693 113.411 19.544 113.411 20.2827C113.416 21.1018 113.175 21.7884 112.687 22.3423C112.204 22.8963 111.569 23.2585 110.783 23.429V23.5426C111.806 23.6847 112.59 24.0634 113.134 24.679C113.684 25.2898 113.956 26.0497 113.951 26.9588C113.951 27.7732 113.719 28.5024 113.255 29.1463C112.796 29.7855 112.161 30.2874 111.352 30.652C110.547 31.0166 109.623 31.1989 108.582 31.1989Z" fill="black"/>
<path d="M60.6644 31V29.0966L65.7141 24.1463C66.197 23.6586 66.5995 23.2254 66.9215 22.8466C67.2434 22.4678 67.4849 22.1009 67.6459 21.7457C67.8069 21.3906 67.8874 21.0118 67.8874 20.6094C67.8874 20.1501 67.7832 19.7571 67.5749 19.4304C67.3665 19.099 67.0801 18.8433 66.7155 18.6634C66.3509 18.4834 65.9366 18.3935 65.4726 18.3935C64.9944 18.3935 64.5753 18.4929 64.2155 18.6918C63.8556 18.8859 63.5763 19.1629 63.3774 19.5227C63.1833 19.8826 63.0862 20.3111 63.0862 20.8082H60.5791C60.5791 19.8849 60.7898 19.0824 61.2112 18.4006C61.6326 17.7187 62.2126 17.1908 62.9513 16.8168C63.6947 16.4427 64.5469 16.2557 65.5081 16.2557C66.4835 16.2557 67.3405 16.438 68.0791 16.8026C68.8178 17.1671 69.3907 17.6667 69.7979 18.3011C70.2098 18.9356 70.4158 19.66 70.4158 20.4744C70.4158 21.0189 70.3116 21.554 70.1033 22.0795C69.8949 22.6051 69.528 23.1875 69.0024 23.8267C68.4816 24.4659 67.7501 25.2401 66.8078 26.1491L64.3007 28.6989V28.7983H70.6359V31H60.6644Z" fill="black"/>
<path d="M24.9868 144.455V159H22.3519V147.018H22.2666L18.8646 149.192V146.777L22.4797 144.455H24.9868Z" fill="black"/>
<path d="M145.952 156.301V154.206L152.124 144.455H153.871V147.438H152.806L148.651 154.021V154.135H157.266V156.301H145.952ZM152.891 159V155.662L152.92 154.724V144.455H155.405V159H152.891Z" fill="black"/>
<path d="M108.582 159.199C107.559 159.199 106.65 159.024 105.855 158.673C105.064 158.323 104.439 157.835 103.98 157.21C103.52 156.585 103.276 155.863 103.248 155.044H105.918C105.942 155.437 106.072 155.78 106.309 156.074C106.546 156.363 106.861 156.588 107.254 156.749C107.647 156.91 108.087 156.99 108.575 156.99C109.096 156.99 109.557 156.9 109.96 156.72C110.362 156.536 110.677 156.28 110.904 155.953C111.132 155.626 111.243 155.25 111.238 154.824C111.243 154.384 111.129 153.995 110.897 153.659C110.665 153.323 110.329 153.06 109.889 152.871C109.453 152.681 108.927 152.587 108.312 152.587H107.026V150.555H108.312C108.819 150.555 109.261 150.468 109.64 150.293C110.024 150.117 110.324 149.871 110.542 149.554C110.76 149.232 110.866 148.86 110.862 148.439C110.866 148.027 110.774 147.67 110.585 147.366C110.4 147.059 110.137 146.82 109.796 146.649C109.46 146.479 109.065 146.393 108.61 146.393C108.165 146.393 107.753 146.474 107.374 146.635C106.996 146.796 106.69 147.026 106.458 147.324C106.226 147.617 106.103 147.968 106.089 148.375H103.553C103.572 147.561 103.807 146.846 104.257 146.23C104.711 145.61 105.317 145.127 106.075 144.781C106.832 144.431 107.682 144.256 108.624 144.256C109.595 144.256 110.438 144.438 111.153 144.803C111.873 145.162 112.429 145.648 112.822 146.259C113.215 146.869 113.411 147.544 113.411 148.283C113.416 149.102 113.175 149.788 112.687 150.342C112.204 150.896 111.569 151.259 110.783 151.429V151.543C111.806 151.685 112.59 152.063 113.134 152.679C113.684 153.29 113.956 154.05 113.951 154.959C113.951 155.773 113.719 156.502 113.255 157.146C112.796 157.786 112.161 158.287 111.352 158.652C110.547 159.017 109.623 159.199 108.582 159.199Z" fill="black"/>
<path d="M60.6644 159V157.097L65.7141 152.146C66.197 151.659 66.5995 151.225 66.9215 150.847C67.2434 150.468 67.4849 150.101 67.6459 149.746C67.8069 149.391 67.8874 149.012 67.8874 148.609C67.8874 148.15 67.7832 147.757 67.5749 147.43C67.3665 147.099 67.0801 146.843 66.7155 146.663C66.3509 146.483 65.9366 146.393 65.4726 146.393C64.9944 146.393 64.5753 146.493 64.2155 146.692C63.8556 146.886 63.5763 147.163 63.3774 147.523C63.1833 147.883 63.0862 148.311 63.0862 148.808H60.5791C60.5791 147.885 60.7898 147.082 61.2112 146.401C61.6326 145.719 62.2126 145.191 62.9513 144.817C63.6947 144.443 64.5469 144.256 65.5081 144.256C66.4835 144.256 67.3405 144.438 68.0791 144.803C68.8178 145.167 69.3907 145.667 69.7979 146.301C70.2098 146.936 70.4158 147.66 70.4158 148.474C70.4158 149.019 70.3116 149.554 70.1033 150.08C69.8949 150.605 69.528 151.187 69.0024 151.827C68.4816 152.466 67.7501 153.24 66.8078 154.149L64.3007 156.699V156.798H70.6359V159H60.6644Z" fill="black"/>
<path d="M24.9868 101.455V116H22.3519V104.018H22.2666L18.8646 106.192V103.777L22.4797 101.455H24.9868Z" fill="black"/>
<path d="M145.952 113.301V111.206L152.124 101.455H153.871V104.438H152.806L148.651 111.021V111.135H157.266V113.301H145.952ZM152.891 116V112.662L152.92 111.724V101.455H155.405V116H152.891Z" fill="black"/>
<path d="M108.582 116.199C107.559 116.199 106.65 116.024 105.855 115.673C105.064 115.323 104.439 114.835 103.98 114.21C103.52 113.585 103.276 112.863 103.248 112.044H105.918C105.942 112.437 106.072 112.78 106.309 113.074C106.546 113.363 106.861 113.588 107.254 113.749C107.647 113.91 108.087 113.99 108.575 113.99C109.096 113.99 109.557 113.9 109.96 113.72C110.362 113.536 110.677 113.28 110.904 112.953C111.132 112.626 111.243 112.25 111.238 111.824C111.243 111.384 111.129 110.995 110.897 110.659C110.665 110.323 110.329 110.06 109.889 109.871C109.453 109.681 108.927 109.587 108.312 109.587H107.026V107.555H108.312C108.819 107.555 109.261 107.468 109.64 107.293C110.024 107.117 110.324 106.871 110.542 106.554C110.76 106.232 110.866 105.86 110.862 105.439C110.866 105.027 110.774 104.67 110.585 104.366C110.4 104.059 110.137 103.82 109.796 103.649C109.46 103.479 109.065 103.393 108.61 103.393C108.165 103.393 107.753 103.474 107.374 103.635C106.996 103.796 106.69 104.026 106.458 104.324C106.226 104.617 106.103 104.968 106.089 105.375H103.553C103.572 104.561 103.807 103.846 104.257 103.23C104.711 102.61 105.317 102.127 106.075 101.781C106.832 101.431 107.682 101.256 108.624 101.256C109.595 101.256 110.438 101.438 111.153 101.803C111.873 102.162 112.429 102.648 112.822 103.259C113.215 103.869 113.411 104.544 113.411 105.283C113.416 106.102 113.175 106.788 112.687 107.342C112.204 107.896 111.569 108.259 110.783 108.429V108.543C111.806 108.685 112.59 109.063 113.134 109.679C113.684 110.29 113.956 111.05 113.951 111.959C113.951 112.773 113.719 113.502 113.255 114.146C112.796 114.786 112.161 115.287 111.352 115.652C110.547 116.017 109.623 116.199 108.582 116.199Z" fill="black"/>
<path d="M60.6644 116V114.097L65.7141 109.146C66.197 108.659 66.5995 108.225 66.9215 107.847C67.2434 107.468 67.4849 107.101 67.6459 106.746C67.8069 106.391 67.8874 106.012 67.8874 105.609C67.8874 105.15 67.7832 104.757 67.5749 104.43C67.3665 104.099 67.0801 103.843 66.7155 103.663C66.3509 103.483 65.9366 103.393 65.4726 103.393C64.9944 103.393 64.5753 103.493 64.2155 103.692C63.8556 103.886 63.5763 104.163 63.3774 104.523C63.1833 104.883 63.0862 105.311 63.0862 105.808H60.5791C60.5791 104.885 60.7898 104.082 61.2112 103.401C61.6326 102.719 62.2126 102.191 62.9513 101.817C63.6947 101.443 64.5469 101.256 65.5081 101.256C66.4835 101.256 67.3405 101.438 68.0791 101.803C68.8178 102.167 69.3907 102.667 69.7979 103.301C70.2098 103.936 70.4158 104.66 70.4158 105.474C70.4158 106.019 70.3116 106.554 70.1033 107.08C69.8949 107.605 69.528 108.187 69.0024 108.827C68.4816 109.466 67.7501 110.24 66.8078 111.149L64.3007 113.699V113.798H70.6359V116H60.6644Z" fill="black"/>
<path d="M24.9868 59.4545V74H22.3519V62.0185H22.2666L18.8646 64.1918V61.777L22.4797 59.4545H24.9868Z" fill="black"/>
<path d="M145.952 71.3011V69.206L152.124 59.4545H153.871V62.4375H152.806L148.651 69.0213V69.1349H157.266V71.3011H145.952ZM152.891 74V70.6619L152.92 69.7244V59.4545H155.405V74H152.891Z" fill="black"/>
<path d="M108.582 74.1989C107.559 74.1989 106.65 74.0237 105.855 73.6733C105.064 73.3229 104.439 72.8352 103.98 72.2102C103.52 71.5852 103.276 70.8632 103.248 70.044H105.918C105.942 70.437 106.072 70.7803 106.309 71.0739C106.546 71.3627 106.861 71.5876 107.254 71.7486C107.647 71.9096 108.087 71.9901 108.575 71.9901C109.096 71.9901 109.557 71.9001 109.96 71.7202C110.362 71.5355 110.677 71.2798 110.904 70.9531C111.132 70.6264 111.243 70.25 111.238 69.8239C111.243 69.3835 111.129 68.9953 110.897 68.6591C110.665 68.3229 110.329 68.0601 109.889 67.8707C109.453 67.6813 108.927 67.5866 108.312 67.5866H107.026V65.5554H108.312C108.819 65.5554 109.261 65.4678 109.64 65.2926C110.024 65.1174 110.324 64.8712 110.542 64.554C110.76 64.232 110.866 63.8603 110.862 63.4389C110.866 63.027 110.774 62.6695 110.585 62.3665C110.4 62.0587 110.137 61.8196 109.796 61.6491C109.46 61.4787 109.065 61.3935 108.61 61.3935C108.165 61.3935 107.753 61.474 107.374 61.6349C106.996 61.7959 106.69 62.0256 106.458 62.3239C106.226 62.6174 106.103 62.9678 106.089 63.375H103.553C103.572 62.5606 103.807 61.8456 104.257 61.2301C104.711 60.6098 105.317 60.1269 106.075 59.7812C106.832 59.4309 107.682 59.2557 108.624 59.2557C109.595 59.2557 110.438 59.438 111.153 59.8026C111.873 60.1624 112.429 60.6477 112.822 61.2585C113.215 61.8693 113.411 62.544 113.411 63.2827C113.416 64.1018 113.175 64.7884 112.687 65.3423C112.204 65.8963 111.569 66.2585 110.783 66.429V66.5426C111.806 66.6847 112.59 67.0634 113.134 67.679C113.684 68.2898 113.956 69.0497 113.951 69.9588C113.951 70.7732 113.719 71.5024 113.255 72.1463C112.796 72.7855 112.161 73.2874 111.352 73.652C110.547 74.0166 109.623 74.1989 108.582 74.1989Z" fill="black"/>
<path d="M60.6644 74V72.0966L65.7141 67.1463C66.197 66.6586 66.5995 66.2254 66.9215 65.8466C67.2434 65.4678 67.4849 65.1009 67.6459 64.7457C67.8069 64.3906 67.8874 64.0118 67.8874 63.6094C67.8874 63.1501 67.7832 62.7571 67.5749 62.4304C67.3665 62.099 67.0801 61.8433 66.7155 61.6634C66.3509 61.4834 65.9366 61.3935 65.4726 61.3935C64.9944 61.3935 64.5753 61.4929 64.2155 61.6918C63.8556 61.8859 63.5763 62.1629 63.3774 62.5227C63.1833 62.8826 63.0862 63.3111 63.0862 63.8082H60.5791C60.5791 62.8849 60.7898 62.0824 61.2112 61.4006C61.6326 60.7187 62.2126 60.1908 62.9513 59.8168C63.6947 59.4427 64.5469 59.2557 65.5081 59.2557C66.4835 59.2557 67.3405 59.438 68.0791 59.8026C68.8178 60.1671 69.3907 60.6667 69.7979 61.3011C70.2098 61.9356 70.4158 62.66 70.4158 63.4744C70.4158 64.0189 70.3116 64.554 70.1033 65.0795C69.8949 65.6051 69.528 66.1875 69.0024 66.8267C68.4816 67.4659 67.7501 68.2401 66.8078 69.1491L64.3007 71.6989V71.7983H70.6359V74H60.6644Z" fill="black"/>
<rect x="12" y="359" width="43" height="43" rx="3" fill="#F1F8FF"/>
<rect x="12" y="359" width="43" height="43" rx="3" stroke="white" stroke-width="2"/>
<rect x="12" y="359" width="43" height="43" rx="3" stroke="#454545" stroke-opacity="0.42" stroke-width="2"/>
<rect x="55" y="359" width="43" height="43" rx="3" fill="#F1F8FF"/>
<rect x="55" y="359" width="43" height="43" rx="3" stroke="white" stroke-width="2"/>
<rect x="55" y="359" width="43" height="43" rx="3" stroke="#454545" stroke-opacity="0.42" stroke-width="2"/>
<rect x="98" y="359" width="43" height="43" rx="3" fill="#F1F8FF"/>
<rect x="98" y="359" width="43" height="43" rx="3" stroke="white" stroke-width="2"/>
<rect x="98" y="359" width="43" height="43" rx="3" stroke="#454545" stroke-opacity="0.42" stroke-width="2"/>
<rect x="12" y="402" width="43" height="43" rx="3" fill="#F1F8FF"/>
<rect x="12" y="402" width="43" height="43" rx="3" stroke="white" stroke-width="2"/>
<rect x="12" y="402" width="43" height="43" rx="3" stroke="#454545" stroke-opacity="0.42" stroke-width="2"/>
<rect x="55" y="402" width="43" height="43" rx="3" fill="#F1F8FF"/>
<rect x="55" y="402" width="43" height="43" rx="3" stroke="white" stroke-width="2"/>
<rect x="55" y="402" width="43" height="43" rx="3" stroke="#454545" stroke-opacity="0.42" stroke-width="2"/>
<rect x="98" y="402" width="43" height="43" rx="3" fill="#F1F8FF"/>
<rect x="98" y="402" width="43" height="43" rx="3" stroke="white" stroke-width="2"/>
<rect x="98" y="402" width="43" height="43" rx="3" stroke="#454545" stroke-opacity="0.42" stroke-width="2"/>
<rect x="141" y="359" width="43" height="43" rx="3" fill="#F1F8FF"/>
<rect x="141" y="359" width="43" height="43" rx="3" stroke="white" stroke-width="2"/>
<rect x="141" y="359" width="43" height="43" rx="3" stroke="#454545" stroke-opacity="0.42" stroke-width="2"/>
<rect x="141" y="402" width="43" height="43" rx="3" fill="#F1F8FF"/>
<rect x="141" y="402" width="43" height="43" rx="3" stroke="white" stroke-width="2"/>
<rect x="141" y="402" width="43" height="43" rx="3" stroke="#454545" stroke-opacity="0.42" stroke-width="2"/>
<path d="M35.9868 373.455V388H33.3519V376.018H33.2666L29.8646 378.192V375.777L33.4797 373.455H35.9868Z" fill="black"/>
<path d="M156.952 385.301V383.206L163.124 373.455H164.871V376.438H163.806L159.651 383.021V383.135H168.266V385.301H156.952ZM163.891 388V384.662L163.92 383.724V373.455H166.405V388H163.891Z" fill="black"/>
<path d="M119.582 388.199C118.559 388.199 117.65 388.024 116.855 387.673C116.064 387.323 115.439 386.835 114.98 386.21C114.52 385.585 114.276 384.863 114.248 384.044H116.918C116.942 384.437 117.072 384.78 117.309 385.074C117.546 385.363 117.861 385.588 118.254 385.749C118.647 385.91 119.087 385.99 119.575 385.99C120.096 385.99 120.557 385.9 120.96 385.72C121.362 385.536 121.677 385.28 121.904 384.953C122.132 384.626 122.243 384.25 122.238 383.824C122.243 383.384 122.129 382.995 121.897 382.659C121.665 382.323 121.329 382.06 120.889 381.871C120.453 381.681 119.927 381.587 119.312 381.587H118.026V379.555H119.312C119.819 379.555 120.261 379.468 120.64 379.293C121.024 379.117 121.324 378.871 121.542 378.554C121.76 378.232 121.866 377.86 121.862 377.439C121.866 377.027 121.774 376.67 121.585 376.366C121.4 376.059 121.137 375.82 120.796 375.649C120.46 375.479 120.065 375.393 119.61 375.393C119.165 375.393 118.753 375.474 118.374 375.635C117.996 375.796 117.69 376.026 117.458 376.324C117.226 376.617 117.103 376.968 117.089 377.375H114.553C114.572 376.561 114.807 375.846 115.257 375.23C115.711 374.61 116.317 374.127 117.075 373.781C117.832 373.431 118.682 373.256 119.624 373.256C120.595 373.256 121.438 373.438 122.153 373.803C122.873 374.162 123.429 374.648 123.822 375.259C124.215 375.869 124.411 376.544 124.411 377.283C124.416 378.102 124.175 378.788 123.687 379.342C123.204 379.896 122.569 380.259 121.783 380.429V380.543C122.806 380.685 123.59 381.063 124.134 381.679C124.684 382.29 124.956 383.05 124.951 383.959C124.951 384.773 124.719 385.502 124.255 386.146C123.796 386.786 123.161 387.287 122.352 387.652C121.547 388.017 120.623 388.199 119.582 388.199Z" fill="black"/>
<path d="M71.6644 388V386.097L76.7141 381.146C77.197 380.659 77.5995 380.225 77.9215 379.847C78.2434 379.468 78.4849 379.101 78.6459 378.746C78.8069 378.391 78.8874 378.012 78.8874 377.609C78.8874 377.15 78.7832 376.757 78.5749 376.43C78.3665 376.099 78.0801 375.843 77.7155 375.663C77.3509 375.483 76.9366 375.393 76.4726 375.393C75.9944 375.393 75.5753 375.493 75.2155 375.692C74.8556 375.886 74.5763 376.163 74.3774 376.523C74.1833 376.883 74.0862 377.311 74.0862 377.808H71.5791C71.5791 376.885 71.7898 376.082 72.2112 375.401C72.6326 374.719 73.2126 374.191 73.9513 373.817C74.6947 373.443 75.5469 373.256 76.5081 373.256C77.4835 373.256 78.3405 373.438 79.0791 373.803C79.8178 374.167 80.3907 374.667 80.7979 375.301C81.2098 375.936 81.4158 376.66 81.4158 377.474C81.4158 378.019 81.3116 378.554 81.1033 379.08C80.8949 379.605 80.528 380.187 80.0024 380.827C79.4816 381.466 78.7501 382.24 77.8078 383.149L75.3007 385.699V385.798H81.6359V388H71.6644Z" fill="black"/>
<path d="M35.9868 416.455V431H33.3519V419.018H33.2666L29.8646 421.192V418.777L33.4797 416.455H35.9868Z" fill="black"/>
<path d="M156.952 428.301V426.206L163.124 416.455H164.871V419.438H163.806L159.651 426.021V426.135H168.266V428.301H156.952ZM163.891 431V427.662L163.92 426.724V416.455H166.405V431H163.891Z" fill="black"/>
<path d="M119.582 431.199C118.559 431.199 117.65 431.024 116.855 430.673C116.064 430.323 115.439 429.835 114.98 429.21C114.52 428.585 114.276 427.863 114.248 427.044H116.918C116.942 427.437 117.072 427.78 117.309 428.074C117.546 428.363 117.861 428.588 118.254 428.749C118.647 428.91 119.087 428.99 119.575 428.99C120.096 428.99 120.557 428.9 120.96 428.72C121.362 428.536 121.677 428.28 121.904 427.953C122.132 427.626 122.243 427.25 122.238 426.824C122.243 426.384 122.129 425.995 121.897 425.659C121.665 425.323 121.329 425.06 120.889 424.871C120.453 424.681 119.927 424.587 119.312 424.587H118.026V422.555H119.312C119.819 422.555 120.261 422.468 120.64 422.293C121.024 422.117 121.324 421.871 121.542 421.554C121.76 421.232 121.866 420.86 121.862 420.439C121.866 420.027 121.774 419.67 121.585 419.366C121.4 419.059 121.137 418.82 120.796 418.649C120.46 418.479 120.065 418.393 119.61 418.393C119.165 418.393 118.753 418.474 118.374 418.635C117.996 418.796 117.69 419.026 117.458 419.324C117.226 419.617 117.103 419.968 117.089 420.375H114.553C114.572 419.561 114.807 418.846 115.257 418.23C115.711 417.61 116.317 417.127 117.075 416.781C117.832 416.431 118.682 416.256 119.624 416.256C120.595 416.256 121.438 416.438 122.153 416.803C122.873 417.162 123.429 417.648 123.822 418.259C124.215 418.869 124.411 419.544 124.411 420.283C124.416 421.102 124.175 421.788 123.687 422.342C123.204 422.896 122.569 423.259 121.783 423.429V423.543C122.806 423.685 123.59 424.063 124.134 424.679C124.684 425.29 124.956 426.05 124.951 426.959C124.951 427.773 124.719 428.502 124.255 429.146C123.796 429.786 123.161 430.287 122.352 430.652C121.547 431.017 120.623 431.199 119.582 431.199Z" fill="black"/>
<path d="M71.6644 431V429.097L76.7141 424.146C77.197 423.659 77.5995 423.225 77.9215 422.847C78.2434 422.468 78.4849 422.101 78.6459 421.746C78.8069 421.391 78.8874 421.012 78.8874 420.609C78.8874 420.15 78.7832 419.757 78.5749 419.43C78.3665 419.099 78.0801 418.843 77.7155 418.663C77.3509 418.483 76.9366 418.393 76.4726 418.393C75.9944 418.393 75.5753 418.493 75.2155 418.692C74.8556 418.886 74.5763 419.163 74.3774 419.523C74.1833 419.883 74.0862 420.311 74.0862 420.808H71.5791C71.5791 419.885 71.7898 419.082 72.2112 418.401C72.6326 417.719 73.2126 417.191 73.9513 416.817C74.6947 416.443 75.5469 416.256 76.5081 416.256C77.4835 416.256 78.3405 416.438 79.0791 416.803C79.8178 417.167 80.3907 417.667 80.7979 418.301C81.2098 418.936 81.4158 419.66 81.4158 420.474C81.4158 421.019 81.3116 421.554 81.1033 422.08C80.8949 422.605 80.528 423.187 80.0024 423.827C79.4816 424.466 78.7501 425.24 77.8078 426.149L75.3007 428.699V428.798H81.6359V431H71.6644Z" fill="black"/>
<rect x="184" y="359" width="43" height="43" rx="3" fill="#BCE5FF"/>
<rect x="184" y="359" width="43" height="43" rx="3" stroke="white" stroke-width="2"/>
<rect x="184" y="359" width="43" height="43" rx="3" stroke="#454545" stroke-opacity="0.42" stroke-width="2"/>
<rect x="227" y="359" width="43" height="43" rx="3" fill="#BCE5FF"/>
<rect x="227" y="359" width="43" height="43" rx="3" stroke="white" stroke-width="2"/>
<rect x="227" y="359" width="43" height="43" rx="3" stroke="#454545" stroke-opacity="0.42" stroke-width="2"/>
<rect x="270" y="359" width="43" height="43" rx="3" fill="#BCE5FF"/>
<rect x="270" y="359" width="43" height="43" rx="3" stroke="white" stroke-width="2"/>
<rect x="270" y="359" width="43" height="43" rx="3" stroke="#454545" stroke-opacity="0.42" stroke-width="2"/>
<rect x="184" y="402" width="43" height="43" rx="3" fill="#BCE5FF"/>
<rect x="184" y="402" width="43" height="43" rx="3" stroke="white" stroke-width="2"/>
<rect x="184" y="402" width="43" height="43" rx="3" stroke="#454545" stroke-opacity="0.42" stroke-width="2"/>
<rect x="227" y="402" width="43" height="43" rx="3" fill="#BCE5FF"/>
<rect x="227" y="402" width="43" height="43" rx="3" stroke="white" stroke-width="2"/>
<rect x="227" y="402" width="43" height="43" rx="3" stroke="#454545" stroke-opacity="0.42" stroke-width="2"/>
<rect x="270" y="402" width="43" height="43" rx="3" fill="#BCE5FF"/>
<rect x="270" y="402" width="43" height="43" rx="3" stroke="white" stroke-width="2"/>
<rect x="270" y="402" width="43" height="43" rx="3" stroke="#454545" stroke-opacity="0.42" stroke-width="2"/>
<rect x="313" y="359" width="43" height="43" rx="3" fill="#BCE5FF"/>
<rect x="313" y="359" width="43" height="43" rx="3" stroke="white" stroke-width="2"/>
<rect x="313" y="359" width="43" height="43" rx="3" stroke="#454545" stroke-opacity="0.42" stroke-width="2"/>
<rect x="313" y="402" width="43" height="43" rx="3" fill="#BCE5FF"/>
<rect x="313" y="402" width="43" height="43" rx="3" stroke="white" stroke-width="2"/>
<rect x="313" y="402" width="43" height="43" rx="3" stroke="#454545" stroke-opacity="0.42" stroke-width="2"/>
<path d="M207.987 373.455V388H205.352V376.018H205.267L201.865 378.192V375.777L205.48 373.455H207.987Z" fill="black"/>
<path d="M328.952 385.301V383.206L335.124 373.455H336.871V376.438H335.806L331.651 383.021V383.135H340.266V385.301H328.952ZM335.891 388V384.662L335.92 383.724V373.455H338.405V388H335.891Z" fill="black"/>
<path d="M291.582 388.199C290.559 388.199 289.65 388.024 288.855 387.673C288.064 387.323 287.439 386.835 286.98 386.21C286.52 385.585 286.276 384.863 286.248 384.044H288.918C288.942 384.437 289.072 384.78 289.309 385.074C289.546 385.363 289.861 385.588 290.254 385.749C290.647 385.91 291.087 385.99 291.575 385.99C292.096 385.99 292.557 385.9 292.96 385.72C293.362 385.536 293.677 385.28 293.904 384.953C294.132 384.626 294.243 384.25 294.238 383.824C294.243 383.384 294.129 382.995 293.897 382.659C293.665 382.323 293.329 382.06 292.889 381.871C292.453 381.681 291.927 381.587 291.312 381.587H290.026V379.555H291.312C291.819 379.555 292.261 379.468 292.64 379.293C293.024 379.117 293.324 378.871 293.542 378.554C293.76 378.232 293.866 377.86 293.862 377.439C293.866 377.027 293.774 376.67 293.585 376.366C293.4 376.059 293.137 375.82 292.796 375.649C292.46 375.479 292.065 375.393 291.61 375.393C291.165 375.393 290.753 375.474 290.374 375.635C289.996 375.796 289.69 376.026 289.458 376.324C289.226 376.617 289.103 376.968 289.089 377.375H286.553C286.572 376.561 286.807 375.846 287.257 375.23C287.711 374.61 288.317 374.127 289.075 373.781C289.832 373.431 290.682 373.256 291.624 373.256C292.595 373.256 293.438 373.438 294.153 373.803C294.873 374.162 295.429 374.648 295.822 375.259C296.215 375.869 296.411 376.544 296.411 377.283C296.416 378.102 296.175 378.788 295.687 379.342C295.204 379.896 294.569 380.259 293.783 380.429V380.543C294.806 380.685 295.59 381.063 296.134 381.679C296.684 382.29 296.956 383.05 296.951 383.959C296.951 384.773 296.719 385.502 296.255 386.146C295.796 386.786 295.161 387.287 294.352 387.652C293.547 388.017 292.623 388.199 291.582 388.199Z" fill="black"/>
<path d="M243.664 388V386.097L248.714 381.146C249.197 380.659 249.599 380.225 249.921 379.847C250.243 379.468 250.485 379.101 250.646 378.746C250.807 378.391 250.887 378.012 250.887 377.609C250.887 377.15 250.783 376.757 250.575 376.43C250.367 376.099 250.08 375.843 249.715 375.663C249.351 375.483 248.937 375.393 248.473 375.393C247.994 375.393 247.575 375.493 247.215 375.692C246.856 375.886 246.576 376.163 246.377 376.523C246.183 376.883 246.086 377.311 246.086 377.808H243.579C243.579 376.885 243.79 376.082 244.211 375.401C244.633 374.719 245.213 374.191 245.951 373.817C246.695 373.443 247.547 373.256 248.508 373.256C249.483 373.256 250.34 373.438 251.079 373.803C251.818 374.167 252.391 374.667 252.798 375.301C253.21 375.936 253.416 376.66 253.416 377.474C253.416 378.019 253.312 378.554 253.103 379.08C252.895 379.605 252.528 380.187 252.002 380.827C251.482 381.466 250.75 382.24 249.808 383.149L247.301 385.699V385.798H253.636V388H243.664Z" fill="black"/>
<path d="M207.987 416.455V431H205.352V419.018H205.267L201.865 421.192V418.777L205.48 416.455H207.987Z" fill="black"/>
<path d="M328.952 428.301V426.206L335.124 416.455H336.871V419.438H335.806L331.651 426.021V426.135H340.266V428.301H328.952ZM335.891 431V427.662L335.92 426.724V416.455H338.405V431H335.891Z" fill="black"/>
<path d="M291.582 431.199C290.559 431.199 289.65 431.024 288.855 430.673C288.064 430.323 287.439 429.835 286.98 429.21C286.52 428.585 286.276 427.863 286.248 427.044H288.918C288.942 427.437 289.072 427.78 289.309 428.074C289.546 428.363 289.861 428.588 290.254 428.749C290.647 428.91 291.087 428.99 291.575 428.99C292.096 428.99 292.557 428.9 292.96 428.72C293.362 428.536 293.677 428.28 293.904 427.953C294.132 427.626 294.243 427.25 294.238 426.824C294.243 426.384 294.129 425.995 293.897 425.659C293.665 425.323 293.329 425.06 292.889 424.871C292.453 424.681 291.927 424.587 291.312 424.587H290.026V422.555H291.312C291.819 422.555 292.261 422.468 292.64 422.293C293.024 422.117 293.324 421.871 293.542 421.554C293.76 421.232 293.866 420.86 293.862 420.439C293.866 420.027 293.774 419.67 293.585 419.366C293.4 419.059 293.137 418.82 292.796 418.649C292.46 418.479 292.065 418.393 291.61 418.393C291.165 418.393 290.753 418.474 290.374 418.635C289.996 418.796 289.69 419.026 289.458 419.324C289.226 419.617 289.103 419.968 289.089 420.375H286.553C286.572 419.561 286.807 418.846 287.257 418.23C287.711 417.61 288.317 417.127 289.075 416.781C289.832 416.431 290.682 416.256 291.624 416.256C292.595 416.256 293.438 416.438 294.153 416.803C294.873 417.162 295.429 417.648 295.822 418.259C296.215 418.869 296.411 419.544 296.411 420.283C296.416 421.102 296.175 421.788 295.687 422.342C295.204 422.896 294.569 423.259 293.783 423.429V423.543C294.806 423.685 295.59 424.063 296.134 424.679C296.684 425.29 296.956 426.05 296.951 426.959C296.951 427.773 296.719 428.502 296.255 429.146C295.796 429.786 295.161 430.287 294.352 430.652C293.547 431.017 292.623 431.199 291.582 431.199Z" fill="black"/>
<path d="M243.664 431V429.097L248.714 424.146C249.197 423.659 249.599 423.225 249.921 422.847C250.243 422.468 250.485 422.101 250.646 421.746C250.807 421.391 250.887 421.012 250.887 420.609C250.887 420.15 250.783 419.757 250.575 419.43C250.367 419.099 250.08 418.843 249.715 418.663C249.351 418.483 248.937 418.393 248.473 418.393C247.994 418.393 247.575 418.493 247.215 418.692C246.856 418.886 246.576 419.163 246.377 419.523C246.183 419.883 246.086 420.311 246.086 420.808H243.579C243.579 419.885 243.79 419.082 244.211 418.401C244.633 417.719 245.213 417.191 245.951 416.817C246.695 416.443 247.547 416.256 248.508 416.256C249.483 416.256 250.34 416.438 251.079 416.803C251.818 417.167 252.391 417.667 252.798 418.301C253.21 418.936 253.416 419.66 253.416 420.474C253.416 421.019 253.312 421.554 253.103 422.08C252.895 422.605 252.528 423.187 252.002 423.827C251.482 424.466 250.75 425.24 249.808 426.149L247.301 428.699V428.798H253.636V431H243.664Z" fill="black"/>
<path d="M183.548 513.691C183.703 513.962 183.828 514.358 183.925 514.88C184.022 515.383 184.07 515.837 184.07 516.243C184.07 516.997 183.906 518.07 183.577 519.462C182.243 521.898 180.271 523.116 177.661 523.116C176.694 523.116 175.708 522.797 174.703 522.159C173.698 521.521 173.002 520.786 172.615 519.955C172.093 518.292 171.832 517.239 171.832 516.794C171.832 516.021 171.996 515.199 172.325 514.329C172.673 513.459 173.108 512.705 173.63 512.067C173.959 511.622 174.548 511.245 175.399 510.936C176.25 510.607 177.023 510.443 177.719 510.443C179.072 510.443 180.223 510.704 181.17 511.226C182.117 511.729 182.91 512.55 183.548 513.691ZM181.025 518.36C181.122 518.109 181.17 517.461 181.17 516.417C181.17 515.856 181.064 515.305 180.851 514.764C180.658 514.223 180.368 513.759 179.981 513.372C179.942 513.333 179.836 513.275 179.662 513.198C179.488 513.101 179.246 513.014 178.937 512.937C178.647 512.84 178.309 512.792 177.922 512.792C176.839 512.792 176.047 513.227 175.544 514.097C175.041 514.967 174.79 515.953 174.79 517.055C174.79 517.248 174.838 517.616 174.935 518.157C175.051 518.698 175.148 519.037 175.225 519.172C175.283 519.307 175.428 519.501 175.66 519.752C175.911 519.984 176.211 520.197 176.559 520.39C176.926 520.564 177.303 520.651 177.69 520.651C178.56 520.651 179.256 520.448 179.778 520.042C180.3 519.617 180.716 519.056 181.025 518.36ZM191.776 521.84C191.776 522.169 191.65 522.459 191.399 522.71C191.147 522.961 190.838 523.087 190.471 523.087C189.891 523.087 189.465 522.981 189.195 522.768C188.924 522.536 188.789 522.12 188.789 521.521C188.789 520.806 188.769 519.868 188.731 518.708C188.692 517.741 188.673 516.929 188.673 516.272C188.673 515.963 188.692 515.557 188.731 515.054C188.769 514.59 188.789 514.242 188.789 514.01C188.731 513.643 188.586 513.343 188.354 513.111C188.122 512.86 187.822 512.734 187.455 512.734C187.281 512.734 187.136 512.657 187.02 512.502C186.904 512.328 186.846 512.154 186.846 511.98C186.846 511.535 187.02 511.197 187.368 510.965C187.735 510.733 188.17 510.617 188.673 510.617C189.717 510.617 190.442 511.236 190.848 512.473C191.35 511.893 191.921 511.429 192.559 511.081C193.216 510.714 193.844 510.53 194.444 510.53C195.159 510.53 195.807 510.723 196.387 511.11C196.986 511.497 197.286 512.019 197.286 512.676C197.286 513.043 197.121 513.42 196.793 513.807C196.483 514.194 196.164 514.387 195.836 514.387C195.662 514.387 195.507 514.348 195.372 514.271C195.256 514.174 195.111 514.039 194.937 513.865C194.743 513.672 194.579 513.536 194.444 513.459C194.308 513.362 194.154 513.314 193.98 513.314C193.67 513.314 193.38 513.362 193.11 513.459C192.839 513.556 192.655 513.672 192.559 513.807C192.249 514.29 192.017 514.725 191.863 515.112C191.727 515.499 191.66 515.914 191.66 516.359C191.66 516.688 191.65 516.949 191.631 517.142L191.602 518.795C191.602 519.046 191.611 519.327 191.631 519.636C191.65 519.945 191.669 520.177 191.689 520.332C191.747 520.854 191.776 521.357 191.776 521.84Z" fill="#666666"/>
<path d="M219.989 515.455C219.989 512.901 220.329 510.549 221.009 508.4C221.695 506.251 222.742 504.26 224.15 502.427H228.341C227.806 503.107 227.308 503.938 226.848 504.919C226.388 505.894 225.986 506.965 225.643 508.132C225.3 509.3 225.032 510.508 224.84 511.757C224.648 513 224.551 514.232 224.551 515.455C224.551 517.082 224.716 518.726 225.046 520.387C225.382 522.042 225.835 523.58 226.405 525.001C226.982 526.422 227.627 527.586 228.341 528.492H224.15C222.742 526.659 221.695 524.668 221.009 522.519C220.329 520.37 219.989 518.015 219.989 515.455ZM252.138 526.288C250.552 526.288 249.141 526.031 247.905 525.516C246.676 524.994 245.712 524.284 245.012 523.384C244.311 522.485 243.961 521.465 243.961 520.326C243.961 519.447 244.16 518.64 244.558 517.906C244.963 517.164 245.513 516.55 246.206 516.062C246.9 515.568 247.675 515.252 248.534 515.115V514.971C247.408 514.744 246.494 514.198 245.794 513.333C245.094 512.461 244.744 511.449 244.744 510.295C244.744 509.203 245.063 508.232 245.702 507.381C246.34 506.522 247.215 505.85 248.328 505.362C249.447 504.868 250.717 504.621 252.138 504.621C253.559 504.621 254.826 504.868 255.938 505.362C257.057 505.857 257.936 506.533 258.574 507.391C259.213 508.242 259.536 509.21 259.542 510.295C259.536 511.455 259.179 512.468 258.471 513.333C257.764 514.198 256.858 514.744 255.753 514.971V515.115C256.597 515.252 257.363 515.568 258.049 516.062C258.743 516.55 259.292 517.164 259.697 517.906C260.109 518.64 260.318 519.447 260.325 520.326C260.318 521.465 259.965 522.485 259.264 523.384C258.564 524.284 257.596 524.994 256.36 525.516C255.131 526.031 253.724 526.288 252.138 526.288ZM252.138 523.013C252.845 523.013 253.463 522.886 253.992 522.632C254.52 522.372 254.932 522.015 255.227 521.561C255.53 521.101 255.681 520.573 255.681 519.975C255.681 519.364 255.526 518.826 255.217 518.359C254.908 517.885 254.489 517.514 253.961 517.246C253.432 516.972 252.825 516.835 252.138 516.835C251.458 516.835 250.851 516.972 250.315 517.246C249.78 517.514 249.357 517.885 249.048 518.359C248.746 518.826 248.595 519.364 248.595 519.975C248.595 520.573 248.743 521.101 249.038 521.561C249.333 522.015 249.749 522.372 250.284 522.632C250.82 522.886 251.438 523.013 252.138 523.013ZM252.138 513.591C252.728 513.591 253.254 513.47 253.714 513.23C254.174 512.99 254.534 512.657 254.795 512.231C255.056 511.806 255.186 511.315 255.186 510.759C255.186 510.209 255.056 509.729 254.795 509.317C254.534 508.898 254.177 508.572 253.724 508.338C253.271 508.098 252.742 507.978 252.138 507.978C251.541 507.978 251.012 508.098 250.552 508.338C250.092 508.572 249.732 508.898 249.471 509.317C249.217 509.729 249.09 510.209 249.09 510.759C249.09 511.315 249.22 511.806 249.481 512.231C249.742 512.657 250.102 512.99 250.562 513.23C251.022 513.47 251.548 513.591 252.138 513.591ZM274.964 523.116L274.851 524.249C274.762 525.156 274.59 526.058 274.336 526.958C274.089 527.864 273.828 528.684 273.553 529.419C273.286 530.154 273.069 530.73 272.904 531.149H270.062C270.165 530.744 270.306 530.178 270.484 529.45C270.663 528.729 270.831 527.919 270.989 527.02C271.147 526.12 271.246 525.204 271.288 524.27L271.339 523.116H274.964ZM301.263 513.714V517.195H291.645V513.714H301.263ZM314.136 504.909V526H309.677V509.142H309.554L304.724 512.169V508.215L309.945 504.909H314.136ZM340.008 515.455C340.008 518.015 339.665 520.37 338.978 522.519C338.299 524.668 337.255 526.659 335.848 528.492H331.656C332.192 527.812 332.69 526.982 333.15 526C333.609 525.018 334.011 523.947 334.354 522.787C334.698 521.62 334.965 520.411 335.158 519.162C335.35 517.912 335.446 516.677 335.446 515.455C335.446 513.827 335.278 512.187 334.941 510.532C334.612 508.871 334.159 507.333 333.582 505.918C333.012 504.497 332.37 503.333 331.656 502.427H335.848C337.255 504.26 338.299 506.251 338.978 508.4C339.665 510.549 340.008 512.901 340.008 515.455Z" fill="black"/>
</svg>
