<svg width="245" height="229" viewBox="0 0 245 229" fill="none" xmlns="http://www.w3.org/2000/svg">
<path d="M10.0096 35.4062V10.2401H17.8548V13.402H14.1062V32.2344H17.8548V35.4062H10.0096ZM23.7067 35.4062V10.2401H31.5518V13.402H27.8033V32.2344H31.5518V35.4062H23.7067ZM44.9506 12.6364V33H40.6452V16.723H40.5259L35.8625 19.6463V15.8281L40.9037 12.6364H44.9506ZM52.0304 33V29.8977L59.279 23.1861C59.8955 22.5895 60.4125 22.0526 60.8301 21.5753C61.2544 21.098 61.5759 20.6307 61.7946 20.1733C62.0134 19.7093 62.1227 19.2088 62.1227 18.6719C62.1227 18.0753 61.9869 17.5616 61.7151 17.1307C61.4433 16.6932 61.0721 16.3584 60.6014 16.1264C60.1308 15.8878 59.5972 15.7685 59.0006 15.7685C58.3775 15.7685 57.8339 15.8944 57.3699 16.1463C56.9059 16.3982 56.5479 16.7595 56.296 17.2301C56.0441 17.7008 55.9182 18.2609 55.9182 18.9105H51.8315C51.8315 17.5781 52.1332 16.4214 52.7364 15.4403C53.3396 14.4593 54.1848 13.7003 55.2719 13.1634C56.359 12.6264 57.6119 12.358 59.0304 12.358C60.4887 12.358 61.7582 12.6165 62.8387 13.1335C63.9258 13.6439 64.7709 14.3532 65.3742 15.2614C65.9774 16.1695 66.279 17.2102 66.279 18.3835C66.279 19.1525 66.1265 19.9115 65.8216 20.6605C65.5233 21.4096 64.9897 22.2415 64.2208 23.1562C63.4518 24.0644 62.368 25.1548 60.9693 26.4276L57.9963 29.3409V29.4801H66.5475V33H52.0304ZM98.2074 12.6364V33H93.902V16.723H93.7827L89.1194 19.6463V15.8281L94.1606 12.6364H98.2074ZM112.725 33.2784C111.319 33.2784 110.067 33.0199 108.966 32.5028C107.873 31.9858 107.004 31.2732 106.361 30.3651C105.718 29.4569 105.383 28.4162 105.357 27.2429H109.533C109.579 28.0317 109.911 28.6714 110.527 29.1619C111.144 29.6525 111.876 29.8977 112.725 29.8977C113.401 29.8977 113.998 29.7486 114.515 29.4503C115.038 29.1454 115.446 28.7244 115.738 28.1875C116.036 27.6439 116.185 27.0208 116.185 26.3182C116.185 25.6023 116.033 24.9725 115.728 24.429C115.429 23.8854 115.015 23.4612 114.485 23.1562C113.954 22.8513 113.348 22.6955 112.665 22.6889C112.069 22.6889 111.489 22.8116 110.925 23.0568C110.368 23.3021 109.934 23.6368 109.623 24.0611L105.794 23.375L106.759 12.6364H119.208V16.1562H110.309L109.782 21.2571H109.901C110.259 20.7533 110.799 20.3357 111.522 20.0043C112.244 19.6728 113.053 19.5071 113.948 19.5071C115.174 19.5071 116.268 19.7955 117.229 20.3722C118.19 20.9489 118.949 21.741 119.506 22.7486C120.063 23.7495 120.338 24.9029 120.331 26.2088C120.338 27.581 120.02 28.8007 119.377 29.8679C118.74 30.9285 117.849 31.7637 116.702 32.3736C115.562 32.9768 114.236 33.2784 112.725 33.2784ZM151.874 12.6364V33H147.569V16.723H147.45L142.786 19.6463V15.8281L147.828 12.6364H151.874ZM166.551 33.2784C165.02 33.2784 163.657 33.0298 162.464 32.5327C161.278 32.0289 160.346 31.3428 159.67 30.4744C158.994 29.6061 158.656 28.6217 158.656 27.5213C158.656 26.6728 158.848 25.8939 159.233 25.1847C159.624 24.4688 160.154 23.8755 160.824 23.4048C161.493 22.9276 162.242 22.6226 163.071 22.4901V22.3509C161.984 22.1321 161.102 21.6051 160.426 20.7699C159.75 19.928 159.412 18.9503 159.412 17.8366C159.412 16.7827 159.72 15.8447 160.336 15.0227C160.953 14.1941 161.798 13.5445 162.872 13.0739C163.952 12.5966 165.179 12.358 166.551 12.358C167.923 12.358 169.146 12.5966 170.22 13.0739C171.3 13.5511 172.149 14.2041 172.765 15.0327C173.382 15.8546 173.693 16.7893 173.7 17.8366C173.693 18.9569 173.349 19.9347 172.666 20.7699C171.983 21.6051 171.108 22.1321 170.041 22.3509V22.4901C170.856 22.6226 171.595 22.9276 172.258 23.4048C172.928 23.8755 173.458 24.4688 173.849 25.1847C174.247 25.8939 174.449 26.6728 174.456 27.5213C174.449 28.6217 174.108 29.6061 173.432 30.4744C172.755 31.3428 171.821 32.0289 170.628 32.5327C169.441 33.0298 168.082 33.2784 166.551 33.2784ZM166.551 30.1165C167.234 30.1165 167.83 29.9938 168.341 29.7486C168.851 29.4967 169.249 29.152 169.534 28.7145C169.826 28.2704 169.971 27.7599 169.971 27.1832C169.971 26.5933 169.822 26.0729 169.524 25.6222C169.226 25.1648 168.821 24.8068 168.311 24.5483C167.8 24.2831 167.214 24.1506 166.551 24.1506C165.895 24.1506 165.308 24.2831 164.791 24.5483C164.274 24.8068 163.866 25.1648 163.568 25.6222C163.276 26.0729 163.13 26.5933 163.13 27.1832C163.13 27.7599 163.273 28.2704 163.558 28.7145C163.843 29.152 164.244 29.4967 164.761 29.7486C165.278 29.9938 165.875 30.1165 166.551 30.1165ZM166.551 21.0185C167.121 21.0185 167.628 20.9025 168.072 20.6705C168.516 20.4384 168.864 20.117 169.116 19.706C169.368 19.295 169.494 18.821 169.494 18.2841C169.494 17.7538 169.368 17.2898 169.116 16.892C168.864 16.4877 168.52 16.1728 168.082 15.9474C167.645 15.7154 167.134 15.5994 166.551 15.5994C165.974 15.5994 165.464 15.7154 165.02 15.9474C164.576 16.1728 164.228 16.4877 163.976 16.892C163.73 17.2898 163.608 17.7538 163.608 18.2841C163.608 18.821 163.734 19.295 163.986 19.706C164.237 20.117 164.585 20.4384 165.03 20.6705C165.474 20.9025 165.981 21.0185 166.551 21.0185ZM186.547 10.2401V35.4062H178.702V32.2344H182.45V13.402H178.702V10.2401H186.547ZM22.2963 80.4062V55.2401H30.1414V58.402H26.3929V77.2344H30.1414V80.4062H22.2963ZM42.2078 78.2784C40.7229 78.2784 39.4005 78.0232 38.2405 77.5128C37.0871 76.9957 36.1756 76.2865 35.5061 75.3849C34.8432 74.4768 34.5018 73.4295 34.4819 72.2429H38.8172C38.8437 72.7401 39.0061 73.1776 39.3044 73.5554C39.6093 73.9266 40.0137 74.215 40.5175 74.4205C41.0212 74.6259 41.588 74.7287 42.2177 74.7287C42.874 74.7287 43.454 74.6127 43.9578 74.3807C44.4616 74.1487 44.856 73.8272 45.141 73.4162C45.4261 73.0052 45.5686 72.5312 45.5686 71.9943C45.5686 71.4508 45.4161 70.9702 45.1112 70.5526C44.8129 70.1283 44.382 69.7969 43.8186 69.5582C43.2618 69.3196 42.5989 69.2003 41.83 69.2003H39.9308V66.0384H41.83C42.4796 66.0384 43.053 65.9257 43.5501 65.7003C44.0539 65.4749 44.445 65.1634 44.7234 64.7656C45.0018 64.3613 45.141 63.8906 45.141 63.3537C45.141 62.8433 45.0184 62.3958 44.7731 62.0114C44.5345 61.6203 44.1964 61.3153 43.7589 61.0966C43.3281 60.8778 42.8243 60.7685 42.2476 60.7685C41.6642 60.7685 41.1306 60.8745 40.6467 61.0866C40.1628 61.2921 39.775 61.5871 39.4834 61.9716C39.1917 62.3561 39.0359 62.8068 39.016 63.3239H34.8896C34.9095 62.1506 35.2443 61.1165 35.8939 60.2216C36.5435 59.3267 37.4185 58.6274 38.5189 58.1236C39.6259 57.6132 40.8754 57.358 42.2675 57.358C43.6728 57.358 44.9024 57.6132 45.9564 58.1236C47.0103 58.634 47.829 59.3234 48.4123 60.1918C49.0023 61.0535 49.294 62.0213 49.2873 63.0952C49.294 64.2353 48.9393 65.1866 48.2234 65.9489C47.5141 66.7112 46.5894 67.1951 45.4493 67.4006V67.5597C46.9474 67.7519 48.0875 68.2723 48.8697 69.1207C49.6586 69.9626 50.0496 71.0166 50.043 72.2827C50.0496 73.4427 49.7149 74.4735 49.0388 75.375C48.3693 76.2765 47.4445 76.9858 46.2646 77.5028C45.0847 78.0199 43.7324 78.2784 42.2078 78.2784ZM62.7457 57.358C63.7931 57.358 64.8007 57.5336 65.7685 57.8849C66.7429 58.2363 67.6113 58.7964 68.3736 59.5653C69.1425 60.3343 69.749 61.3551 70.1932 62.6278C70.6439 63.8939 70.8726 65.4484 70.8793 67.2912C70.8793 69.0213 70.6837 70.5658 70.2926 71.9247C69.9081 73.277 69.3546 74.4271 68.6321 75.375C67.9096 76.3229 67.0379 77.0455 66.017 77.5426C64.9962 78.0331 63.8561 78.2784 62.5966 78.2784C61.2377 78.2784 60.0379 78.0166 58.9972 77.4929C57.9564 76.9626 57.1179 76.2434 56.4815 75.3352C55.8518 74.4205 55.4706 73.393 55.3381 72.2528H59.5838C59.7495 72.9953 60.0975 73.572 60.6278 73.983C61.1581 74.3873 61.8144 74.5895 62.5966 74.5895C63.9223 74.5895 64.9299 74.0128 65.6193 72.8594C66.3087 71.6993 66.6567 70.1117 66.6633 68.0966H66.5241C66.2192 68.6932 65.8082 69.2069 65.2912 69.6378C64.7741 70.062 64.1809 70.3902 63.5114 70.6222C62.8485 70.8542 62.1425 70.9702 61.3935 70.9702C60.1936 70.9702 59.1231 70.6884 58.1818 70.125C57.2405 69.5616 56.4981 68.786 55.9545 67.7983C55.411 66.8106 55.1392 65.6837 55.1392 64.4176C55.1326 63.0521 55.4474 61.8357 56.0838 60.7685C56.7202 59.7012 57.6084 58.866 58.7486 58.2628C59.8954 57.6529 61.2277 57.3513 62.7457 57.358ZM62.7756 60.7386C62.1061 60.7386 61.5095 60.8977 60.9858 61.2159C60.4687 61.5341 60.0578 61.9616 59.7528 62.4986C59.4545 63.0355 59.3087 63.6354 59.3153 64.2983C59.3153 64.9678 59.4612 65.571 59.7528 66.108C60.0511 66.6383 60.4555 67.0625 60.9659 67.3807C61.4829 67.6922 62.0729 67.848 62.7358 67.848C63.2329 67.848 63.6936 67.7552 64.1179 67.5696C64.5421 67.384 64.91 67.1288 65.2216 66.804C65.5398 66.4725 65.7883 66.0914 65.9673 65.6605C66.1463 65.2296 66.2358 64.7723 66.2358 64.2884C66.2292 63.6454 66.0767 63.0554 65.7784 62.5185C65.4801 61.9815 65.0691 61.5507 64.5454 61.2259C64.0218 60.901 63.4318 60.7386 62.7756 60.7386ZM93.2349 74.4205V71.0298L101.736 57.6364H104.66V62.3295H102.93L97.5701 70.8111V70.9702H109.651V74.4205H93.2349ZM103.009 78V73.3864L103.089 71.8849V57.6364H107.126V78H103.009ZM114.76 78V74.8977L122.008 68.1861C122.625 67.5895 123.142 67.0526 123.559 66.5753C123.984 66.098 124.305 65.6307 124.524 65.1733C124.743 64.7093 124.852 64.2088 124.852 63.6719C124.852 63.0753 124.716 62.5616 124.444 62.1307C124.173 61.6932 123.801 61.3584 123.331 61.1264C122.86 60.8878 122.326 60.7685 121.73 60.7685C121.107 60.7685 120.563 60.8944 120.099 61.1463C119.635 61.3982 119.277 61.7595 119.025 62.2301C118.773 62.7008 118.647 63.2609 118.647 63.9105H114.561C114.561 62.5781 114.862 61.4214 115.466 60.4403C116.069 59.4593 116.914 58.7003 118.001 58.1634C119.088 57.6264 120.341 57.358 121.76 57.358C123.218 57.358 124.487 57.6165 125.568 58.1335C126.655 58.6439 127.5 59.3532 128.103 60.2614C128.707 61.1695 129.008 62.2102 129.008 63.3835C129.008 64.1525 128.856 64.9115 128.551 65.6605C128.253 66.4096 127.719 67.2415 126.95 68.1562C126.181 69.0644 125.097 70.1548 123.699 71.4276L120.726 74.3409V74.4801H129.277V78H114.76ZM151.769 74.4205V71.0298L160.271 57.6364H163.194V62.3295H161.464L156.104 70.8111V70.9702H168.185V74.4205H151.769ZM161.543 78V73.3864L161.623 71.8849V57.6364H165.66V78H161.543ZM180.731 78.2784C179.326 78.2784 178.073 78.0199 176.973 77.5028C175.879 76.9858 175.011 76.2732 174.368 75.3651C173.725 74.4569 173.39 73.4162 173.364 72.2429H177.54C177.586 73.0317 177.918 73.6714 178.534 74.1619C179.15 74.6525 179.883 74.8977 180.731 74.8977C181.408 74.8977 182.004 74.7486 182.521 74.4503C183.045 74.1454 183.453 73.7244 183.744 73.1875C184.043 72.6439 184.192 72.0208 184.192 71.3182C184.192 70.6023 184.039 69.9725 183.734 69.429C183.436 68.8854 183.022 68.4612 182.491 68.1562C181.961 67.8513 181.355 67.6955 180.672 67.6889C180.075 67.6889 179.495 67.8116 178.932 68.0568C178.375 68.3021 177.941 68.6368 177.629 69.0611L173.801 68.375L174.766 57.6364H187.214V61.1562H178.315L177.788 66.2571H177.908C178.266 65.7533 178.806 65.3357 179.528 65.0043C180.251 64.6728 181.06 64.5071 181.954 64.5071C183.181 64.5071 184.275 64.7955 185.236 65.3722C186.197 65.9489 186.956 66.741 187.513 67.7486C188.07 68.7495 188.345 69.9029 188.338 71.2088C188.345 72.581 188.026 73.8007 187.383 74.8679C186.747 75.9285 185.855 76.7637 184.709 77.3736C183.569 77.9768 182.243 78.2784 180.731 78.2784ZM200.422 55.2401V80.4062H192.577V77.2344H196.325V58.402H192.577V55.2401H200.422ZM20.9838 125.406V100.24H28.8289V103.402H25.0804V122.234H28.8289V125.406H20.9838ZM41.1836 123.278C40.1363 123.272 39.1254 123.096 38.151 122.751C37.1832 122.407 36.3148 121.847 35.5459 121.071C34.7769 120.295 34.1671 119.268 33.7163 117.989C33.2722 116.709 33.0501 115.138 33.0501 113.276C33.0567 111.565 33.2523 110.037 33.6368 108.692C34.0279 107.339 34.5847 106.193 35.3072 105.251C36.0364 104.31 36.9081 103.594 37.9223 103.104C38.9365 102.607 40.0733 102.358 41.3328 102.358C42.6917 102.358 43.8915 102.623 44.9322 103.153C45.9729 103.677 46.8082 104.39 47.4379 105.291C48.0743 106.193 48.4587 107.204 48.5913 108.324H44.3456C44.1799 107.615 43.8318 107.058 43.3015 106.653C42.7712 106.249 42.115 106.047 41.3328 106.047C40.007 106.047 38.9995 106.624 38.3101 107.777C37.6273 108.93 37.2793 110.498 37.266 112.48H37.4052C37.7102 111.877 38.1211 111.363 38.6382 110.939C39.1619 110.508 39.7551 110.18 40.418 109.955C41.0875 109.723 41.7935 109.607 42.5359 109.607C43.7424 109.607 44.8162 109.892 45.7575 110.462C46.6988 111.025 47.4412 111.801 47.9848 112.788C48.5283 113.776 48.8001 114.906 48.8001 116.179C48.8001 117.558 48.4786 118.784 47.8356 119.858C47.1993 120.932 46.3077 121.774 45.1609 122.384C44.0208 122.987 42.695 123.285 41.1836 123.278ZM41.1638 119.898C41.8266 119.898 42.4199 119.739 42.9436 119.42C43.4673 119.102 43.8782 118.671 44.1765 118.128C44.4748 117.584 44.624 116.974 44.624 116.298C44.624 115.622 44.4748 115.016 44.1765 114.479C43.8849 113.942 43.4805 113.514 42.9635 113.196C42.4464 112.878 41.8565 112.719 41.1936 112.719C40.6964 112.719 40.2357 112.812 39.8115 112.997C39.3939 113.183 39.026 113.441 38.7078 113.773C38.3962 114.104 38.151 114.489 37.972 114.926C37.793 115.357 37.7035 115.818 37.7035 116.308C37.7035 116.964 37.8527 117.564 38.151 118.108C38.4559 118.652 38.8669 119.086 39.3839 119.411C39.9076 119.735 40.5009 119.898 41.1638 119.898ZM61.908 123.278C60.8607 123.272 59.8498 123.096 58.8753 122.751C57.9075 122.407 57.0392 121.847 56.2702 121.071C55.5013 120.295 54.8914 119.268 54.4407 117.989C53.9966 116.709 53.7745 115.138 53.7745 113.276C53.7811 111.565 53.9767 110.037 54.3611 108.692C54.7522 107.339 55.3091 106.193 56.0316 105.251C56.7608 104.31 57.6324 103.594 58.6467 103.104C59.6609 102.607 60.7977 102.358 62.0572 102.358C63.4161 102.358 64.6159 102.623 65.6566 103.153C66.6973 103.677 67.5325 104.39 68.1623 105.291C68.7986 106.193 69.1831 107.204 69.3157 108.324H65.0699C64.9042 107.615 64.5562 107.058 64.0259 106.653C63.4956 106.249 62.8394 106.047 62.0572 106.047C60.7314 106.047 59.7238 106.624 59.0344 107.777C58.3517 108.93 58.0037 110.498 57.9904 112.48H58.1296C58.4345 111.877 58.8455 111.363 59.3626 110.939C59.8862 110.508 60.4795 110.18 61.1424 109.955C61.8119 109.723 62.5179 109.607 63.2603 109.607C64.4667 109.607 65.5406 109.892 66.4819 110.462C67.4232 111.025 68.1656 111.801 68.7092 112.788C69.2527 113.776 69.5245 114.906 69.5245 116.179C69.5245 117.558 69.203 118.784 68.56 119.858C67.9236 120.932 67.0321 121.774 65.8853 122.384C64.7451 122.987 63.4194 123.285 61.908 123.278ZM61.8881 119.898C62.551 119.898 63.1443 119.739 63.668 119.42C64.1916 119.102 64.6026 118.671 64.9009 118.128C65.1992 117.584 65.3484 116.974 65.3484 116.298C65.3484 115.622 65.1992 115.016 64.9009 114.479C64.6092 113.942 64.2049 113.514 63.6878 113.196C63.1708 112.878 62.5808 112.719 61.918 112.719C61.4208 112.719 60.9601 112.812 60.5359 112.997C60.1182 113.183 59.7503 113.441 59.4322 113.773C59.1206 114.104 58.8753 114.489 58.6964 114.926C58.5174 115.357 58.4279 115.818 58.4279 116.308C58.4279 116.964 58.5771 117.564 58.8753 118.108C59.1803 118.652 59.5913 119.086 60.1083 119.411C60.632 119.735 61.2253 119.898 61.8881 119.898ZM100.073 123.278C99.026 123.272 98.0151 123.096 97.0407 122.751C96.0729 122.407 95.2045 121.847 94.4355 121.071C93.6666 120.295 93.0568 119.268 92.606 117.989C92.1619 116.709 91.9398 115.138 91.9398 113.276C91.9464 111.565 92.142 110.037 92.5265 108.692C92.9176 107.339 93.4744 106.193 94.1969 105.251C94.9261 104.31 95.7978 103.594 96.812 103.104C97.8262 102.607 98.963 102.358 100.222 102.358C101.581 102.358 102.781 102.623 103.822 103.153C104.863 103.677 105.698 104.39 106.328 105.291C106.964 106.193 107.348 107.204 107.481 108.324H103.235C103.07 107.615 102.722 107.058 102.191 106.653C101.661 106.249 101.005 106.047 100.222 106.047C98.8967 106.047 97.8891 106.624 97.1998 107.777C96.517 108.93 96.169 110.498 96.1557 112.48H96.2949C96.5998 111.877 97.0108 111.363 97.5279 110.939C98.0516 110.508 98.6448 110.18 99.3077 109.955C99.9772 109.723 100.683 109.607 101.426 109.607C102.632 109.607 103.706 109.892 104.647 110.462C105.588 111.025 106.331 111.801 106.874 112.788C107.418 113.776 107.69 114.906 107.69 116.179C107.69 117.558 107.368 118.784 106.725 119.858C106.089 120.932 105.197 121.774 104.051 122.384C102.91 122.987 101.585 123.285 100.073 123.278ZM100.053 119.898C100.716 119.898 101.31 119.739 101.833 119.42C102.357 119.102 102.768 118.671 103.066 118.128C103.365 117.584 103.514 116.974 103.514 116.298C103.514 115.622 103.365 115.016 103.066 114.479C102.775 113.942 102.37 113.514 101.853 113.196C101.336 112.878 100.746 112.719 100.083 112.719C99.5861 112.719 99.1254 112.812 98.7012 112.997C98.2836 113.183 97.9157 113.441 97.5975 113.773C97.2859 114.104 97.0407 114.489 96.8617 114.926C96.6827 115.357 96.5932 115.818 96.5932 116.308C96.5932 116.964 96.7424 117.564 97.0407 118.108C97.3456 118.652 97.7566 119.086 98.2736 119.411C98.7973 119.735 99.3906 119.898 100.053 119.898ZM120.35 102.358C121.398 102.358 122.405 102.534 123.373 102.885C124.347 103.236 125.216 103.796 125.978 104.565C126.747 105.334 127.354 106.355 127.798 107.628C128.248 108.894 128.477 110.448 128.484 112.291C128.484 114.021 128.288 115.566 127.897 116.925C127.513 118.277 126.959 119.427 126.237 120.375C125.514 121.323 124.642 122.045 123.622 122.543C122.601 123.033 121.461 123.278 120.201 123.278C118.842 123.278 117.642 123.017 116.602 122.493C115.561 121.963 114.722 121.243 114.086 120.335C113.456 119.42 113.075 118.393 112.943 117.253H117.188C117.354 117.995 117.702 118.572 118.232 118.983C118.763 119.387 119.419 119.589 120.201 119.589C121.527 119.589 122.534 119.013 123.224 117.859C123.913 116.699 124.261 115.112 124.268 113.097H124.129C123.824 113.693 123.413 114.207 122.896 114.638C122.379 115.062 121.785 115.39 121.116 115.622C120.453 115.854 119.747 115.97 118.998 115.97C117.798 115.97 116.728 115.688 115.786 115.125C114.845 114.562 114.103 113.786 113.559 112.798C113.016 111.811 112.744 110.684 112.744 109.418C112.737 108.052 113.052 106.836 113.688 105.768C114.325 104.701 115.213 103.866 116.353 103.263C117.5 102.653 118.832 102.351 120.35 102.358ZM120.38 105.739C119.711 105.739 119.114 105.898 118.59 106.216C118.073 106.534 117.662 106.962 117.357 107.499C117.059 108.036 116.913 108.635 116.92 109.298C116.92 109.968 117.066 110.571 117.357 111.108C117.656 111.638 118.06 112.062 118.57 112.381C119.087 112.692 119.677 112.848 120.34 112.848C120.837 112.848 121.298 112.755 121.722 112.57C122.147 112.384 122.515 112.129 122.826 111.804C123.144 111.473 123.393 111.091 123.572 110.661C123.751 110.23 123.84 109.772 123.84 109.288C123.834 108.645 123.681 108.055 123.383 107.518C123.085 106.982 122.674 106.551 122.15 106.226C121.626 105.901 121.036 105.739 120.38 105.739ZM151.953 123L160.395 106.295V106.156H150.561V102.636H164.849V106.206L156.398 123H151.953ZM170.04 123V119.898L177.289 113.186C177.905 112.589 178.422 112.053 178.84 111.575C179.264 111.098 179.585 110.631 179.804 110.173C180.023 109.709 180.132 109.209 180.132 108.672C180.132 108.075 179.996 107.562 179.725 107.131C179.453 106.693 179.082 106.358 178.611 106.126C178.14 105.888 177.607 105.768 177.01 105.768C176.387 105.768 175.844 105.894 175.38 106.146C174.916 106.398 174.558 106.759 174.306 107.23C174.054 107.701 173.928 108.261 173.928 108.911H169.841C169.841 107.578 170.143 106.421 170.746 105.44C171.349 104.459 172.194 103.7 173.282 103.163C174.369 102.626 175.621 102.358 177.04 102.358C178.498 102.358 179.768 102.616 180.848 103.134C181.935 103.644 182.781 104.353 183.384 105.261C183.987 106.17 184.289 107.21 184.289 108.384C184.289 109.152 184.136 109.911 183.831 110.661C183.533 111.41 182.999 112.241 182.23 113.156C181.461 114.064 180.378 115.155 178.979 116.428L176.006 119.341V119.48H184.557V123H170.04ZM196.758 100.24V125.406H188.912V122.234H192.661V103.402H188.912V100.24H196.758ZM210.455 100.24V125.406H202.61V122.234H206.358V103.402H202.61V100.24H210.455Z" fill="black"/>
<path d="M84.4737 216V213.23L90.9457 207.238C91.4961 206.705 91.9577 206.225 92.3306 205.799C92.7094 205.373 92.9964 204.956 93.1918 204.548C93.3871 204.133 93.4847 203.686 93.4847 203.207C93.4847 202.674 93.3634 202.216 93.1207 201.831C92.8781 201.44 92.5466 201.141 92.1264 200.934C91.7062 200.721 91.2298 200.615 90.6971 200.615C90.1407 200.615 89.6554 200.727 89.2411 200.952C88.8268 201.177 88.5072 201.5 88.2823 201.92C88.0574 202.34 87.945 202.84 87.945 203.42H84.2962C84.2962 202.23 84.5655 201.198 85.104 200.322C85.6426 199.446 86.3973 198.768 87.3679 198.289C88.3385 197.809 89.4571 197.57 90.7237 197.57C92.0258 197.57 93.1592 197.8 94.1239 198.262C95.0946 198.718 95.8492 199.351 96.3878 200.162C96.9264 200.973 97.1957 201.902 97.1957 202.95C97.1957 203.636 97.0595 204.314 96.7873 204.983C96.521 205.651 96.0445 206.394 95.358 207.211C94.6714 208.022 93.7037 208.995 92.4549 210.132L89.8004 212.733V212.857H97.4354V216H84.4737ZM109.381 197.818V216H105.537V201.467H105.43L101.267 204.077V200.668L105.768 197.818H109.381ZM127.422 213.23V200.659H130.6V213.23H127.422ZM122.725 208.534V205.355H135.296V208.534H122.725ZM147.267 216V213.23L153.739 207.238C154.289 206.705 154.751 206.225 155.124 205.799C155.502 205.373 155.789 204.956 155.985 204.548C156.18 204.133 156.278 203.686 156.278 203.207C156.278 202.674 156.156 202.216 155.914 201.831C155.671 201.44 155.34 201.141 154.919 200.934C154.499 200.721 154.023 200.615 153.49 200.615C152.934 200.615 152.448 200.727 152.034 200.952C151.62 201.177 151.3 201.5 151.075 201.92C150.85 202.34 150.738 202.84 150.738 203.42H147.089C147.089 202.23 147.358 201.198 147.897 200.322C148.436 199.446 149.19 198.768 150.161 198.289C151.132 197.809 152.25 197.57 153.517 197.57C154.819 197.57 155.952 197.8 156.917 198.262C157.888 198.718 158.642 199.351 159.181 200.162C159.719 200.973 159.989 201.902 159.989 202.95C159.989 203.636 159.853 204.314 159.58 204.983C159.314 205.651 158.837 206.394 158.151 207.211C157.464 208.022 156.497 208.995 155.248 210.132L152.593 212.733V212.857H160.228V216H147.267ZM163.598 212.804V209.777L171.188 197.818H173.799V202.009H172.254L167.469 209.581V209.723H178.255V212.804H163.598ZM172.325 216V211.881L172.396 210.54V197.818H176V216H172.325ZM194.536 213.23V200.659H197.714V213.23H194.536ZM189.839 208.534V205.355H202.411V208.534H189.839ZM214.381 216V213.23L220.853 207.238C221.403 206.705 221.865 206.225 222.238 205.799C222.617 205.373 222.904 204.956 223.099 204.548C223.294 204.133 223.392 203.686 223.392 203.207C223.392 202.674 223.271 202.216 223.028 201.831C222.785 201.44 222.454 201.141 222.034 200.934C221.613 200.721 221.137 200.615 220.604 200.615C220.048 200.615 219.563 200.727 219.148 200.952C218.734 201.177 218.414 201.5 218.19 201.92C217.965 202.34 217.852 202.84 217.852 203.42H214.203C214.203 202.23 214.473 201.198 215.011 200.322C215.55 199.446 216.304 198.768 217.275 198.289C218.246 197.809 219.364 197.57 220.631 197.57C221.933 197.57 223.066 197.8 224.031 198.262C225.002 198.718 225.756 199.351 226.295 200.162C226.834 200.973 227.103 201.902 227.103 202.95C227.103 203.636 226.967 204.314 226.695 204.983C226.428 205.651 225.952 206.394 225.265 207.211C224.579 208.022 223.611 208.995 222.362 210.132L219.708 212.733V212.857H227.343V216H214.381ZM232.097 216L239.634 201.085V200.961H230.854V197.818H243.612V201.005L236.066 216H232.097Z" fill="#2A53BA"/>
<circle cx="164" cy="111" r="24.5" stroke="#EC1717" stroke-width="3"/>
<path d="M162.939 171.061C163.525 171.646 164.475 171.646 165.061 171.061L174.607 161.515C175.192 160.929 175.192 159.979 174.607 159.393C174.021 158.808 173.071 158.808 172.485 159.393L164 167.879L155.515 159.393C154.929 158.808 153.979 158.808 153.393 159.393C152.808 159.979 152.808 160.929 153.393 161.515L162.939 171.061ZM162.5 136V170H165.5V136H162.5Z" fill="#EC1717"/>
</svg>
