<svg width="440" height="214" viewBox="0 0 440 214" fill="none" xmlns="http://www.w3.org/2000/svg">
<rect x="-1" y="1" width="43" height="43" rx="3" transform="matrix(-1 0 0 1 158 21)" fill="#F1F8FF"/>
<rect x="-1" y="1" width="43" height="43" rx="3" transform="matrix(-1 0 0 1 158 21)" stroke="white" stroke-width="2"/>
<rect x="-1" y="1" width="43" height="43" rx="3" transform="matrix(-1 0 0 1 158 21)" stroke="#454545" stroke-opacity="0.42" stroke-width="2"/>
<rect x="-1" y="1" width="43" height="43" rx="3" transform="matrix(-1 0 0 1 115 21)" fill="#F1F8FF"/>
<rect x="-1" y="1" width="43" height="43" rx="3" transform="matrix(-1 0 0 1 115 21)" stroke="white" stroke-width="2"/>
<rect x="-1" y="1" width="43" height="43" rx="3" transform="matrix(-1 0 0 1 115 21)" stroke="#454545" stroke-opacity="0.42" stroke-width="2"/>
<rect x="-1" y="1" width="43" height="43" rx="3" transform="matrix(-1 0 0 1 158 64)" fill="#F1F8FF"/>
<rect x="-1" y="1" width="43" height="43" rx="3" transform="matrix(-1 0 0 1 158 64)" stroke="white" stroke-width="2"/>
<rect x="-1" y="1" width="43" height="43" rx="3" transform="matrix(-1 0 0 1 158 64)" stroke="#454545" stroke-opacity="0.42" stroke-width="2"/>
<rect x="-1" y="1" width="43" height="43" rx="3" transform="matrix(-1 0 0 1 115 64)" fill="#F1F8FF"/>
<rect x="-1" y="1" width="43" height="43" rx="3" transform="matrix(-1 0 0 1 115 64)" stroke="white" stroke-width="2"/>
<rect x="-1" y="1" width="43" height="43" rx="3" transform="matrix(-1 0 0 1 115 64)" stroke="#454545" stroke-opacity="0.42" stroke-width="2"/>
<rect x="-1" y="1" width="43" height="43" rx="3" transform="matrix(-1 0 0 1 158 107)" fill="#BCE5FF"/>
<rect x="-1" y="1" width="43" height="43" rx="3" transform="matrix(-1 0 0 1 158 107)" stroke="white" stroke-width="2"/>
<rect x="-1" y="1" width="43" height="43" rx="3" transform="matrix(-1 0 0 1 158 107)" stroke="#454545" stroke-opacity="0.42" stroke-width="2"/>
<rect x="-1" y="1" width="43" height="43" rx="3" transform="matrix(-1 0 0 1 115 107)" fill="#BCE5FF"/>
<rect x="-1" y="1" width="43" height="43" rx="3" transform="matrix(-1 0 0 1 115 107)" stroke="white" stroke-width="2"/>
<rect x="-1" y="1" width="43" height="43" rx="3" transform="matrix(-1 0 0 1 115 107)" stroke="#454545" stroke-opacity="0.42" stroke-width="2"/>
<rect x="-1" y="1" width="43" height="43" rx="3" transform="matrix(-1 0 0 1 72 21)" fill="#F1F8FF"/>
<rect x="-1" y="1" width="43" height="43" rx="3" transform="matrix(-1 0 0 1 72 21)" stroke="white" stroke-width="2"/>
<rect x="-1" y="1" width="43" height="43" rx="3" transform="matrix(-1 0 0 1 72 21)" stroke="#454545" stroke-opacity="0.42" stroke-width="2"/>
<rect x="-1" y="1" width="43" height="43" rx="3" transform="matrix(-1 0 0 1 72 64)" fill="#F1F8FF"/>
<rect x="-1" y="1" width="43" height="43" rx="3" transform="matrix(-1 0 0 1 72 64)" stroke="white" stroke-width="2"/>
<rect x="-1" y="1" width="43" height="43" rx="3" transform="matrix(-1 0 0 1 72 64)" stroke="#454545" stroke-opacity="0.42" stroke-width="2"/>
<rect x="-1" y="1" width="43" height="43" rx="3" transform="matrix(-1 0 0 1 72 107)" fill="#BCE5FF"/>
<rect x="-1" y="1" width="43" height="43" rx="3" transform="matrix(-1 0 0 1 72 107)" stroke="white" stroke-width="2"/>
<rect x="-1" y="1" width="43" height="43" rx="3" transform="matrix(-1 0 0 1 72 107)" stroke="#454545" stroke-opacity="0.42" stroke-width="2"/>
<path d="M53.8208 37.4545V52H51.1858V40.0185H51.1006L47.6986 42.1918V39.777L51.3137 37.4545H53.8208Z" fill="black"/>
<path d="M137.416 52.1989C136.393 52.1989 135.484 52.0237 134.689 51.6733C133.898 51.3229 133.273 50.8352 132.814 50.2102C132.354 49.5852 132.11 48.8632 132.082 48.044H134.752C134.776 48.437 134.906 48.7803 135.143 49.0739C135.38 49.3627 135.695 49.5876 136.088 49.7486C136.481 49.9096 136.921 49.9901 137.409 49.9901C137.93 49.9901 138.391 49.9001 138.794 49.7202C139.196 49.5355 139.511 49.2798 139.738 48.9531C139.965 48.6264 140.077 48.25 140.072 47.8239C140.077 47.3835 139.963 46.9953 139.731 46.6591C139.499 46.3229 139.163 46.0601 138.723 45.8707C138.287 45.6813 137.761 45.5866 137.146 45.5866H135.86V43.5554H137.146C137.653 43.5554 138.095 43.4678 138.474 43.2926C138.858 43.1174 139.158 42.8712 139.376 42.554C139.594 42.232 139.7 41.8603 139.696 41.4389C139.7 41.027 139.608 40.6695 139.419 40.3665C139.234 40.0587 138.971 39.8196 138.63 39.6491C138.294 39.4787 137.899 39.3935 137.444 39.3935C136.999 39.3935 136.587 39.474 136.208 39.6349C135.83 39.7959 135.524 40.0256 135.292 40.3239C135.06 40.6174 134.937 40.9678 134.923 41.375H132.387C132.406 40.5606 132.641 39.8456 133.09 39.2301C133.545 38.6098 134.151 38.1269 134.909 37.7812C135.666 37.4309 136.516 37.2557 137.458 37.2557C138.429 37.2557 139.272 37.438 139.987 37.8026C140.706 38.1624 141.263 38.6477 141.656 39.2585C142.049 39.8693 142.245 40.544 142.245 41.2827C142.25 42.1018 142.009 42.7884 141.521 43.3423C141.038 43.8963 140.403 44.2585 139.617 44.429V44.5426C140.64 44.6847 141.424 45.0634 141.968 45.679C142.518 46.2898 142.79 47.0497 142.785 47.9588C142.785 48.7732 142.553 49.5024 142.089 50.1463C141.63 50.7855 140.995 51.2874 140.186 51.652C139.381 52.0166 138.457 52.1989 137.416 52.1989Z" fill="black"/>
<path d="M89.4983 52V50.0966L94.5481 45.1463C95.031 44.6586 95.4335 44.2254 95.7554 43.8466C96.0774 43.4678 96.3189 43.1009 96.4799 42.7457C96.6409 42.3906 96.7213 42.0118 96.7213 41.6094C96.7213 41.1501 96.6172 40.7571 96.4088 40.4304C96.2005 40.099 95.9141 39.8433 95.5495 39.6634C95.1849 39.4834 94.7706 39.3935 94.3066 39.3935C93.8284 39.3935 93.4093 39.4929 93.0495 39.6918C92.6896 39.8859 92.4103 40.1629 92.2114 40.5227C92.0173 40.8826 91.9202 41.3111 91.9202 41.8082H89.4131C89.4131 40.8849 89.6238 40.0824 90.0452 39.4006C90.4666 38.7187 91.0466 38.1908 91.7853 37.8168C92.5286 37.4427 93.3809 37.2557 94.3421 37.2557C95.3175 37.2557 96.1745 37.438 96.9131 37.8026C97.6517 38.1671 98.2247 38.6667 98.6319 39.3011C99.0438 39.9356 99.2498 40.66 99.2498 41.4744C99.2498 42.0189 99.1456 42.554 98.9373 43.0795C98.7289 43.6051 98.362 44.1875 97.8364 44.8267C97.3156 45.4659 96.584 46.2401 95.6418 47.1491L93.1347 49.6989V49.7983H99.4699V52H89.4983Z" fill="black"/>
<path d="M53.8208 122.455V137H51.1858V125.018H51.1006L47.6986 127.192V124.777L51.3137 122.455H53.8208Z" fill="black"/>
<path d="M137.416 137.199C136.393 137.199 135.484 137.024 134.689 136.673C133.898 136.323 133.273 135.835 132.814 135.21C132.354 134.585 132.11 133.863 132.082 133.044H134.752C134.776 133.437 134.906 133.78 135.143 134.074C135.38 134.363 135.695 134.588 136.088 134.749C136.481 134.91 136.921 134.99 137.409 134.99C137.93 134.99 138.391 134.9 138.794 134.72C139.196 134.536 139.511 134.28 139.738 133.953C139.965 133.626 140.077 133.25 140.072 132.824C140.077 132.384 139.963 131.995 139.731 131.659C139.499 131.323 139.163 131.06 138.723 130.871C138.287 130.681 137.761 130.587 137.146 130.587H135.86V128.555H137.146C137.653 128.555 138.095 128.468 138.474 128.293C138.858 128.117 139.158 127.871 139.376 127.554C139.594 127.232 139.7 126.86 139.696 126.439C139.7 126.027 139.608 125.67 139.419 125.366C139.234 125.059 138.971 124.82 138.63 124.649C138.294 124.479 137.899 124.393 137.444 124.393C136.999 124.393 136.587 124.474 136.208 124.635C135.83 124.796 135.524 125.026 135.292 125.324C135.06 125.617 134.937 125.968 134.923 126.375H132.387C132.406 125.561 132.641 124.846 133.09 124.23C133.545 123.61 134.151 123.127 134.909 122.781C135.666 122.431 136.516 122.256 137.458 122.256C138.429 122.256 139.272 122.438 139.987 122.803C140.706 123.162 141.263 123.648 141.656 124.259C142.049 124.869 142.245 125.544 142.245 126.283C142.25 127.102 142.009 127.788 141.521 128.342C141.038 128.896 140.403 129.259 139.617 129.429V129.543C140.64 129.685 141.424 130.063 141.968 130.679C142.518 131.29 142.79 132.05 142.785 132.959C142.785 133.773 142.553 134.502 142.089 135.146C141.63 135.786 140.995 136.287 140.186 136.652C139.381 137.017 138.457 137.199 137.416 137.199Z" fill="black"/>
<path d="M89.4983 137V135.097L94.5481 130.146C95.031 129.659 95.4335 129.225 95.7554 128.847C96.0774 128.468 96.3189 128.101 96.4799 127.746C96.6409 127.391 96.7213 127.012 96.7213 126.609C96.7213 126.15 96.6172 125.757 96.4088 125.43C96.2005 125.099 95.9141 124.843 95.5495 124.663C95.1849 124.483 94.7706 124.393 94.3066 124.393C93.8284 124.393 93.4093 124.493 93.0495 124.692C92.6896 124.886 92.4103 125.163 92.2114 125.523C92.0173 125.883 91.9202 126.311 91.9202 126.808H89.4131C89.4131 125.885 89.6238 125.082 90.0452 124.401C90.4666 123.719 91.0466 123.191 91.7853 122.817C92.5286 122.443 93.3809 122.256 94.3421 122.256C95.3175 122.256 96.1745 122.438 96.9131 122.803C97.6517 123.167 98.2247 123.667 98.6319 124.301C99.0438 124.936 99.2498 125.66 99.2498 126.474C99.2498 127.019 99.1456 127.554 98.9373 128.08C98.7289 128.605 98.362 129.187 97.8364 129.827C97.3156 130.466 96.584 131.24 95.6418 132.149L93.1347 134.699V134.798H99.4699V137H89.4983Z" fill="black"/>
<rect x="-1" y="1" width="43" height="43" rx="3" transform="matrix(-1 0 0 1 158 150)" fill="#89D2FF"/>
<rect x="-1" y="1" width="43" height="43" rx="3" transform="matrix(-1 0 0 1 158 150)" stroke="white" stroke-width="2"/>
<rect x="-1" y="1" width="43" height="43" rx="3" transform="matrix(-1 0 0 1 158 150)" stroke="#454545" stroke-opacity="0.65" stroke-width="2"/>
<rect x="-1" y="1" width="43" height="43" rx="3" transform="matrix(-1 0 0 1 115 150)" fill="#89D2FF"/>
<rect x="-1" y="1" width="43" height="43" rx="3" transform="matrix(-1 0 0 1 115 150)" stroke="white" stroke-width="2"/>
<rect x="-1" y="1" width="43" height="43" rx="3" transform="matrix(-1 0 0 1 115 150)" stroke="#454545" stroke-opacity="0.65" stroke-width="2"/>
<rect x="-1" y="1" width="43" height="43" rx="3" transform="matrix(-1 0 0 1 72 150)" fill="#89D2FF"/>
<rect x="-1" y="1" width="43" height="43" rx="3" transform="matrix(-1 0 0 1 72 150)" stroke="white" stroke-width="2"/>
<rect x="-1" y="1" width="43" height="43" rx="3" transform="matrix(-1 0 0 1 72 150)" stroke="#454545" stroke-opacity="0.65" stroke-width="2"/>
<path d="M53.8208 165.455V180H51.1858V168.018H51.1006L47.6986 170.192V167.777L51.3137 165.455H53.8208Z" fill="black"/>
<path d="M137.416 180.199C136.393 180.199 135.484 180.024 134.689 179.673C133.898 179.323 133.273 178.835 132.814 178.21C132.354 177.585 132.11 176.863 132.082 176.044H134.752C134.776 176.437 134.906 176.78 135.143 177.074C135.38 177.363 135.695 177.588 136.088 177.749C136.481 177.91 136.921 177.99 137.409 177.99C137.93 177.99 138.391 177.9 138.794 177.72C139.196 177.536 139.511 177.28 139.738 176.953C139.965 176.626 140.077 176.25 140.072 175.824C140.077 175.384 139.963 174.995 139.731 174.659C139.499 174.323 139.163 174.06 138.723 173.871C138.287 173.681 137.761 173.587 137.146 173.587H135.86V171.555H137.146C137.653 171.555 138.095 171.468 138.474 171.293C138.858 171.117 139.158 170.871 139.376 170.554C139.594 170.232 139.7 169.86 139.696 169.439C139.7 169.027 139.608 168.67 139.419 168.366C139.234 168.059 138.971 167.82 138.63 167.649C138.294 167.479 137.899 167.393 137.444 167.393C136.999 167.393 136.587 167.474 136.208 167.635C135.83 167.796 135.524 168.026 135.292 168.324C135.06 168.617 134.937 168.968 134.923 169.375H132.387C132.406 168.561 132.641 167.846 133.09 167.23C133.545 166.61 134.151 166.127 134.909 165.781C135.666 165.431 136.516 165.256 137.458 165.256C138.429 165.256 139.272 165.438 139.987 165.803C140.706 166.162 141.263 166.648 141.656 167.259C142.049 167.869 142.245 168.544 142.245 169.283C142.25 170.102 142.009 170.788 141.521 171.342C141.038 171.896 140.403 172.259 139.617 172.429V172.543C140.64 172.685 141.424 173.063 141.968 173.679C142.518 174.29 142.79 175.05 142.785 175.959C142.785 176.773 142.553 177.502 142.089 178.146C141.63 178.786 140.995 179.287 140.186 179.652C139.381 180.017 138.457 180.199 137.416 180.199Z" fill="black"/>
<path d="M89.4983 180V178.097L94.5481 173.146C95.031 172.659 95.4335 172.225 95.7554 171.847C96.0774 171.468 96.3189 171.101 96.4799 170.746C96.6409 170.391 96.7213 170.012 96.7213 169.609C96.7213 169.15 96.6172 168.757 96.4088 168.43C96.2005 168.099 95.9141 167.843 95.5495 167.663C95.1849 167.483 94.7706 167.393 94.3066 167.393C93.8284 167.393 93.4093 167.493 93.0495 167.692C92.6896 167.886 92.4103 168.163 92.2114 168.523C92.0173 168.883 91.9202 169.311 91.9202 169.808H89.4131C89.4131 168.885 89.6238 168.082 90.0452 167.401C90.4666 166.719 91.0466 166.191 91.7853 165.817C92.5286 165.443 93.3809 165.256 94.3421 165.256C95.3175 165.256 96.1745 165.438 96.9131 165.803C97.6517 166.167 98.2247 166.667 98.6319 167.301C99.0438 167.936 99.2498 168.66 99.2498 169.474C99.2498 170.019 99.1456 170.554 98.9373 171.08C98.7289 171.605 98.362 172.187 97.8364 172.827C97.3156 173.466 96.584 174.24 95.6418 175.149L93.1347 177.699V177.798H99.4699V180H89.4983Z" fill="black"/>
<path d="M53.8208 80.4545V95H51.1858V83.0185H51.1006L47.6986 85.1918V82.777L51.3137 80.4545H53.8208Z" fill="black"/>
<path d="M137.416 95.1989C136.393 95.1989 135.484 95.0237 134.689 94.6733C133.898 94.3229 133.273 93.8352 132.814 93.2102C132.354 92.5852 132.11 91.8632 132.082 91.044H134.752C134.776 91.437 134.906 91.7803 135.143 92.0739C135.38 92.3627 135.695 92.5876 136.088 92.7486C136.481 92.9096 136.921 92.9901 137.409 92.9901C137.93 92.9901 138.391 92.9001 138.794 92.7202C139.196 92.5355 139.511 92.2798 139.738 91.9531C139.965 91.6264 140.077 91.25 140.072 90.8239C140.077 90.3835 139.963 89.9953 139.731 89.6591C139.499 89.3229 139.163 89.0601 138.723 88.8707C138.287 88.6813 137.761 88.5866 137.146 88.5866H135.86V86.5554H137.146C137.653 86.5554 138.095 86.4678 138.474 86.2926C138.858 86.1174 139.158 85.8712 139.376 85.554C139.594 85.232 139.7 84.8603 139.696 84.4389C139.7 84.027 139.608 83.6695 139.419 83.3665C139.234 83.0587 138.971 82.8196 138.63 82.6491C138.294 82.4787 137.899 82.3935 137.444 82.3935C136.999 82.3935 136.587 82.474 136.208 82.6349C135.83 82.7959 135.524 83.0256 135.292 83.3239C135.06 83.6174 134.937 83.9678 134.923 84.375H132.387C132.406 83.5606 132.641 82.8456 133.09 82.2301C133.545 81.6098 134.151 81.1269 134.909 80.7812C135.666 80.4309 136.516 80.2557 137.458 80.2557C138.429 80.2557 139.272 80.438 139.987 80.8026C140.706 81.1624 141.263 81.6477 141.656 82.2585C142.049 82.8693 142.245 83.544 142.245 84.2827C142.25 85.1018 142.009 85.7884 141.521 86.3423C141.038 86.8963 140.403 87.2585 139.617 87.429V87.5426C140.64 87.6847 141.424 88.0634 141.968 88.679C142.518 89.2898 142.79 90.0497 142.785 90.9588C142.785 91.7732 142.553 92.5024 142.089 93.1463C141.63 93.7855 140.995 94.2874 140.186 94.652C139.381 95.0166 138.457 95.1989 137.416 95.1989Z" fill="black"/>
<path d="M89.4983 95V93.0966L94.5481 88.1463C95.031 87.6586 95.4335 87.2254 95.7554 86.8466C96.0774 86.4678 96.3189 86.1009 96.4799 85.7457C96.6409 85.3906 96.7213 85.0118 96.7213 84.6094C96.7213 84.1501 96.6172 83.7571 96.4088 83.4304C96.2005 83.099 95.9141 82.8433 95.5495 82.6634C95.1849 82.4834 94.7706 82.3935 94.3066 82.3935C93.8284 82.3935 93.4093 82.4929 93.0495 82.6918C92.6896 82.8859 92.4103 83.1629 92.2114 83.5227C92.0173 83.8826 91.9202 84.3111 91.9202 84.8082H89.4131C89.4131 83.8849 89.6238 83.0824 90.0452 82.4006C90.4666 81.7187 91.0466 81.1908 91.7853 80.8168C92.5286 80.4427 93.3809 80.2557 94.3421 80.2557C95.3175 80.2557 96.1745 80.438 96.9131 80.8026C97.6517 81.1671 98.2247 81.6667 98.6319 82.3011C99.0438 82.9356 99.2498 83.66 99.2498 84.4744C99.2498 85.0189 99.1456 85.554 98.9373 86.0795C98.7289 86.6051 98.362 87.1875 97.8364 87.8267C97.3156 88.4659 96.584 89.2401 95.6418 90.1491L93.1347 92.6989V92.7983H99.4699V95H89.4983Z" fill="black"/>
<rect x="-1" y="1" width="43" height="43" rx="3" transform="matrix(-1 0 0 1 438 0)" fill="#F1F8FF"/>
<rect x="-1" y="1" width="43" height="43" rx="3" transform="matrix(-1 0 0 1 438 0)" stroke="white" stroke-width="2"/>
<rect x="-1" y="1" width="43" height="43" rx="3" transform="matrix(-1 0 0 1 438 0)" stroke="#454545" stroke-opacity="0.42" stroke-width="2"/>
<rect x="-1" y="1" width="43" height="43" rx="3" transform="matrix(-1 0 0 1 395 0)" fill="#F1F8FF"/>
<rect x="-1" y="1" width="43" height="43" rx="3" transform="matrix(-1 0 0 1 395 0)" stroke="white" stroke-width="2"/>
<rect x="-1" y="1" width="43" height="43" rx="3" transform="matrix(-1 0 0 1 395 0)" stroke="#454545" stroke-opacity="0.42" stroke-width="2"/>
<rect x="-1" y="1" width="43" height="43" rx="3" transform="matrix(-1 0 0 1 438 43)" fill="#F1F8FF"/>
<rect x="-1" y="1" width="43" height="43" rx="3" transform="matrix(-1 0 0 1 438 43)" stroke="white" stroke-width="2"/>
<rect x="-1" y="1" width="43" height="43" rx="3" transform="matrix(-1 0 0 1 438 43)" stroke="#454545" stroke-opacity="0.42" stroke-width="2"/>
<rect x="-1" y="1" width="43" height="43" rx="3" transform="matrix(-1 0 0 1 395 43)" fill="#F1F8FF"/>
<rect x="-1" y="1" width="43" height="43" rx="3" transform="matrix(-1 0 0 1 395 43)" stroke="white" stroke-width="2"/>
<rect x="-1" y="1" width="43" height="43" rx="3" transform="matrix(-1 0 0 1 395 43)" stroke="#454545" stroke-opacity="0.42" stroke-width="2"/>
<rect x="-1" y="1" width="43" height="43" rx="3" transform="matrix(-1 0 0 1 438 107)" fill="#BCE5FF"/>
<rect x="-1" y="1" width="43" height="43" rx="3" transform="matrix(-1 0 0 1 438 107)" stroke="white" stroke-width="2"/>
<rect x="-1" y="1" width="43" height="43" rx="3" transform="matrix(-1 0 0 1 438 107)" stroke="#454545" stroke-opacity="0.42" stroke-width="2"/>
<rect x="-1" y="1" width="43" height="43" rx="3" transform="matrix(-1 0 0 1 395 107)" fill="#BCE5FF"/>
<rect x="-1" y="1" width="43" height="43" rx="3" transform="matrix(-1 0 0 1 395 107)" stroke="white" stroke-width="2"/>
<rect x="-1" y="1" width="43" height="43" rx="3" transform="matrix(-1 0 0 1 395 107)" stroke="#454545" stroke-opacity="0.42" stroke-width="2"/>
<rect x="-1" y="1" width="43" height="43" rx="3" transform="matrix(-1 0 0 1 352 0)" fill="#F1F8FF"/>
<rect x="-1" y="1" width="43" height="43" rx="3" transform="matrix(-1 0 0 1 352 0)" stroke="white" stroke-width="2"/>
<rect x="-1" y="1" width="43" height="43" rx="3" transform="matrix(-1 0 0 1 352 0)" stroke="#454545" stroke-opacity="0.42" stroke-width="2"/>
<rect x="-1" y="1" width="43" height="43" rx="3" transform="matrix(-1 0 0 1 352 43)" fill="#F1F8FF"/>
<rect x="-1" y="1" width="43" height="43" rx="3" transform="matrix(-1 0 0 1 352 43)" stroke="white" stroke-width="2"/>
<rect x="-1" y="1" width="43" height="43" rx="3" transform="matrix(-1 0 0 1 352 43)" stroke="#454545" stroke-opacity="0.42" stroke-width="2"/>
<rect x="-1" y="1" width="43" height="43" rx="3" transform="matrix(-1 0 0 1 352 107)" fill="#BCE5FF"/>
<rect x="-1" y="1" width="43" height="43" rx="3" transform="matrix(-1 0 0 1 352 107)" stroke="white" stroke-width="2"/>
<rect x="-1" y="1" width="43" height="43" rx="3" transform="matrix(-1 0 0 1 352 107)" stroke="#454545" stroke-opacity="0.42" stroke-width="2"/>
<path d="M333.821 16.4545V31H331.186V19.0185H331.101L327.699 21.1918V18.777L331.314 16.4545H333.821Z" fill="black"/>
<path d="M417.416 31.1989C416.393 31.1989 415.484 31.0237 414.689 30.6733C413.898 30.3229 413.273 29.8352 412.814 29.2102C412.354 28.5852 412.11 27.8632 412.082 27.044H414.752C414.776 27.437 414.906 27.7803 415.143 28.0739C415.38 28.3627 415.695 28.5876 416.088 28.7486C416.481 28.9096 416.921 28.9901 417.409 28.9901C417.93 28.9901 418.391 28.9001 418.794 28.7202C419.196 28.5355 419.511 28.2798 419.738 27.9531C419.965 27.6264 420.077 27.25 420.072 26.8239C420.077 26.3835 419.963 25.9953 419.731 25.6591C419.499 25.3229 419.163 25.0601 418.723 24.8707C418.287 24.6813 417.761 24.5866 417.146 24.5866H415.86V22.5554H417.146C417.653 22.5554 418.095 22.4678 418.474 22.2926C418.858 22.1174 419.158 21.8712 419.376 21.554C419.594 21.232 419.7 20.8603 419.696 20.4389C419.7 20.027 419.608 19.6695 419.419 19.3665C419.234 19.0587 418.971 18.8196 418.63 18.6491C418.294 18.4787 417.899 18.3935 417.444 18.3935C416.999 18.3935 416.587 18.474 416.208 18.6349C415.83 18.7959 415.524 19.0256 415.292 19.3239C415.06 19.6174 414.937 19.9678 414.923 20.375H412.387C412.406 19.5606 412.641 18.8456 413.09 18.2301C413.545 17.6098 414.151 17.1269 414.909 16.7812C415.666 16.4309 416.516 16.2557 417.458 16.2557C418.429 16.2557 419.272 16.438 419.987 16.8026C420.706 17.1624 421.263 17.6477 421.656 18.2585C422.049 18.8693 422.245 19.544 422.245 20.2827C422.25 21.1018 422.009 21.7884 421.521 22.3423C421.038 22.8963 420.403 23.2585 419.617 23.429V23.5426C420.64 23.6847 421.424 24.0634 421.968 24.679C422.518 25.2898 422.79 26.0497 422.785 26.9588C422.785 27.7732 422.553 28.5024 422.089 29.1463C421.63 29.7855 420.995 30.2874 420.186 30.652C419.381 31.0166 418.457 31.1989 417.416 31.1989Z" fill="black"/>
<path d="M369.498 31V29.0966L374.548 24.1463C375.031 23.6586 375.433 23.2254 375.755 22.8466C376.077 22.4678 376.319 22.1009 376.48 21.7457C376.641 21.3906 376.721 21.0118 376.721 20.6094C376.721 20.1501 376.617 19.7571 376.409 19.4304C376.201 19.099 375.914 18.8433 375.549 18.6634C375.185 18.4834 374.771 18.3935 374.307 18.3935C373.828 18.3935 373.409 18.4929 373.049 18.6918C372.69 18.8859 372.41 19.1629 372.211 19.5227C372.017 19.8826 371.92 20.3111 371.92 20.8082H369.413C369.413 19.8849 369.624 19.0824 370.045 18.4006C370.467 17.7187 371.047 17.1908 371.785 16.8168C372.529 16.4427 373.381 16.2557 374.342 16.2557C375.317 16.2557 376.174 16.438 376.913 16.8026C377.652 17.1671 378.225 17.6667 378.632 18.3011C379.044 18.9356 379.25 19.66 379.25 20.4744C379.25 21.0189 379.146 21.554 378.937 22.0795C378.729 22.6051 378.362 23.1875 377.836 23.8267C377.316 24.4659 376.584 25.2401 375.642 26.1491L373.135 28.6989V28.7983H379.47V31H369.498Z" fill="black"/>
<path d="M333.821 122.455V137H331.186V125.018H331.101L327.699 127.192V124.777L331.314 122.455H333.821Z" fill="black"/>
<path d="M417.416 137.199C416.393 137.199 415.484 137.024 414.689 136.673C413.898 136.323 413.273 135.835 412.814 135.21C412.354 134.585 412.11 133.863 412.082 133.044H414.752C414.776 133.437 414.906 133.78 415.143 134.074C415.38 134.363 415.695 134.588 416.088 134.749C416.481 134.91 416.921 134.99 417.409 134.99C417.93 134.99 418.391 134.9 418.794 134.72C419.196 134.536 419.511 134.28 419.738 133.953C419.965 133.626 420.077 133.25 420.072 132.824C420.077 132.384 419.963 131.995 419.731 131.659C419.499 131.323 419.163 131.06 418.723 130.871C418.287 130.681 417.761 130.587 417.146 130.587H415.86V128.555H417.146C417.653 128.555 418.095 128.468 418.474 128.293C418.858 128.117 419.158 127.871 419.376 127.554C419.594 127.232 419.7 126.86 419.696 126.439C419.7 126.027 419.608 125.67 419.419 125.366C419.234 125.059 418.971 124.82 418.63 124.649C418.294 124.479 417.899 124.393 417.444 124.393C416.999 124.393 416.587 124.474 416.208 124.635C415.83 124.796 415.524 125.026 415.292 125.324C415.06 125.617 414.937 125.968 414.923 126.375H412.387C412.406 125.561 412.641 124.846 413.09 124.23C413.545 123.61 414.151 123.127 414.909 122.781C415.666 122.431 416.516 122.256 417.458 122.256C418.429 122.256 419.272 122.438 419.987 122.803C420.706 123.162 421.263 123.648 421.656 124.259C422.049 124.869 422.245 125.544 422.245 126.283C422.25 127.102 422.009 127.788 421.521 128.342C421.038 128.896 420.403 129.259 419.617 129.429V129.543C420.64 129.685 421.424 130.063 421.968 130.679C422.518 131.29 422.79 132.05 422.785 132.959C422.785 133.773 422.553 134.502 422.089 135.146C421.63 135.786 420.995 136.287 420.186 136.652C419.381 137.017 418.457 137.199 417.416 137.199Z" fill="black"/>
<path d="M369.498 137V135.097L374.548 130.146C375.031 129.659 375.433 129.225 375.755 128.847C376.077 128.468 376.319 128.101 376.48 127.746C376.641 127.391 376.721 127.012 376.721 126.609C376.721 126.15 376.617 125.757 376.409 125.43C376.201 125.099 375.914 124.843 375.549 124.663C375.185 124.483 374.771 124.393 374.307 124.393C373.828 124.393 373.409 124.493 373.049 124.692C372.69 124.886 372.41 125.163 372.211 125.523C372.017 125.883 371.92 126.311 371.92 126.808H369.413C369.413 125.885 369.624 125.082 370.045 124.401C370.467 123.719 371.047 123.191 371.785 122.817C372.529 122.443 373.381 122.256 374.342 122.256C375.317 122.256 376.174 122.438 376.913 122.803C377.652 123.167 378.225 123.667 378.632 124.301C379.044 124.936 379.25 125.66 379.25 126.474C379.25 127.019 379.146 127.554 378.937 128.08C378.729 128.605 378.362 129.187 377.836 129.827C377.316 130.466 376.584 131.24 375.642 132.149L373.135 134.699V134.798H379.47V137H369.498Z" fill="black"/>
<rect x="-1" y="1" width="43" height="43" rx="3" transform="matrix(-1 0 0 1 438 169)" fill="#89D2FF"/>
<rect x="-1" y="1" width="43" height="43" rx="3" transform="matrix(-1 0 0 1 438 169)" stroke="white" stroke-width="2"/>
<rect x="-1" y="1" width="43" height="43" rx="3" transform="matrix(-1 0 0 1 438 169)" stroke="#454545" stroke-opacity="0.65" stroke-width="2"/>
<rect x="-1" y="1" width="43" height="43" rx="3" transform="matrix(-1 0 0 1 395 169)" fill="#89D2FF"/>
<rect x="-1" y="1" width="43" height="43" rx="3" transform="matrix(-1 0 0 1 395 169)" stroke="white" stroke-width="2"/>
<rect x="-1" y="1" width="43" height="43" rx="3" transform="matrix(-1 0 0 1 395 169)" stroke="#454545" stroke-opacity="0.65" stroke-width="2"/>
<rect x="-1" y="1" width="43" height="43" rx="3" transform="matrix(-1 0 0 1 352 169)" fill="#89D2FF"/>
<rect x="-1" y="1" width="43" height="43" rx="3" transform="matrix(-1 0 0 1 352 169)" stroke="white" stroke-width="2"/>
<rect x="-1" y="1" width="43" height="43" rx="3" transform="matrix(-1 0 0 1 352 169)" stroke="#454545" stroke-opacity="0.65" stroke-width="2"/>
<path d="M333.821 184.455V199H331.186V187.018H331.101L327.699 189.192V186.777L331.314 184.455H333.821Z" fill="black"/>
<path d="M417.416 199.199C416.393 199.199 415.484 199.024 414.689 198.673C413.898 198.323 413.273 197.835 412.814 197.21C412.354 196.585 412.11 195.863 412.082 195.044H414.752C414.776 195.437 414.906 195.78 415.143 196.074C415.38 196.363 415.695 196.588 416.088 196.749C416.481 196.91 416.921 196.99 417.409 196.99C417.93 196.99 418.391 196.9 418.794 196.72C419.196 196.536 419.511 196.28 419.738 195.953C419.965 195.626 420.077 195.25 420.072 194.824C420.077 194.384 419.963 193.995 419.731 193.659C419.499 193.323 419.163 193.06 418.723 192.871C418.287 192.681 417.761 192.587 417.146 192.587H415.86V190.555H417.146C417.653 190.555 418.095 190.468 418.474 190.293C418.858 190.117 419.158 189.871 419.376 189.554C419.594 189.232 419.7 188.86 419.696 188.439C419.7 188.027 419.608 187.67 419.419 187.366C419.234 187.059 418.971 186.82 418.63 186.649C418.294 186.479 417.899 186.393 417.444 186.393C416.999 186.393 416.587 186.474 416.208 186.635C415.83 186.796 415.524 187.026 415.292 187.324C415.06 187.617 414.937 187.968 414.923 188.375H412.387C412.406 187.561 412.641 186.846 413.09 186.23C413.545 185.61 414.151 185.127 414.909 184.781C415.666 184.431 416.516 184.256 417.458 184.256C418.429 184.256 419.272 184.438 419.987 184.803C420.706 185.162 421.263 185.648 421.656 186.259C422.049 186.869 422.245 187.544 422.245 188.283C422.25 189.102 422.009 189.788 421.521 190.342C421.038 190.896 420.403 191.259 419.617 191.429V191.543C420.64 191.685 421.424 192.063 421.968 192.679C422.518 193.29 422.79 194.05 422.785 194.959C422.785 195.773 422.553 196.502 422.089 197.146C421.63 197.786 420.995 198.287 420.186 198.652C419.381 199.017 418.457 199.199 417.416 199.199Z" fill="black"/>
<path d="M369.498 199V197.097L374.548 192.146C375.031 191.659 375.433 191.225 375.755 190.847C376.077 190.468 376.319 190.101 376.48 189.746C376.641 189.391 376.721 189.012 376.721 188.609C376.721 188.15 376.617 187.757 376.409 187.43C376.201 187.099 375.914 186.843 375.549 186.663C375.185 186.483 374.771 186.393 374.307 186.393C373.828 186.393 373.409 186.493 373.049 186.692C372.69 186.886 372.41 187.163 372.211 187.523C372.017 187.883 371.92 188.311 371.92 188.808H369.413C369.413 187.885 369.624 187.082 370.045 186.401C370.467 185.719 371.047 185.191 371.785 184.817C372.529 184.443 373.381 184.256 374.342 184.256C375.317 184.256 376.174 184.438 376.913 184.803C377.652 185.167 378.225 185.667 378.632 186.301C379.044 186.936 379.25 187.66 379.25 188.474C379.25 189.019 379.146 189.554 378.937 190.08C378.729 190.605 378.362 191.187 377.836 191.827C377.316 192.466 376.584 193.24 375.642 194.149L373.135 196.699V196.798H379.47V199H369.498Z" fill="black"/>
<path d="M333.821 59.4545V74H331.186V62.0185H331.101L327.699 64.1918V61.777L331.314 59.4545H333.821Z" fill="black"/>
<path d="M417.416 74.1989C416.393 74.1989 415.484 74.0237 414.689 73.6733C413.898 73.3229 413.273 72.8352 412.814 72.2102C412.354 71.5852 412.11 70.8632 412.082 70.044H414.752C414.776 70.437 414.906 70.7803 415.143 71.0739C415.38 71.3627 415.695 71.5876 416.088 71.7486C416.481 71.9096 416.921 71.9901 417.409 71.9901C417.93 71.9901 418.391 71.9001 418.794 71.7202C419.196 71.5355 419.511 71.2798 419.738 70.9531C419.965 70.6264 420.077 70.25 420.072 69.8239C420.077 69.3835 419.963 68.9953 419.731 68.6591C419.499 68.3229 419.163 68.0601 418.723 67.8707C418.287 67.6813 417.761 67.5866 417.146 67.5866H415.86V65.5554H417.146C417.653 65.5554 418.095 65.4678 418.474 65.2926C418.858 65.1174 419.158 64.8712 419.376 64.554C419.594 64.232 419.7 63.8603 419.696 63.4389C419.7 63.027 419.608 62.6695 419.419 62.3665C419.234 62.0587 418.971 61.8196 418.63 61.6491C418.294 61.4787 417.899 61.3935 417.444 61.3935C416.999 61.3935 416.587 61.474 416.208 61.6349C415.83 61.7959 415.524 62.0256 415.292 62.3239C415.06 62.6174 414.937 62.9678 414.923 63.375H412.387C412.406 62.5606 412.641 61.8456 413.09 61.2301C413.545 60.6098 414.151 60.1269 414.909 59.7812C415.666 59.4309 416.516 59.2557 417.458 59.2557C418.429 59.2557 419.272 59.438 419.987 59.8026C420.706 60.1624 421.263 60.6477 421.656 61.2585C422.049 61.8693 422.245 62.544 422.245 63.2827C422.25 64.1018 422.009 64.7884 421.521 65.3423C421.038 65.8963 420.403 66.2585 419.617 66.429V66.5426C420.64 66.6847 421.424 67.0634 421.968 67.679C422.518 68.2898 422.79 69.0497 422.785 69.9588C422.785 70.7732 422.553 71.5024 422.089 72.1463C421.63 72.7855 420.995 73.2874 420.186 73.652C419.381 74.0166 418.457 74.1989 417.416 74.1989Z" fill="black"/>
<path d="M369.498 74V72.0966L374.548 67.1463C375.031 66.6586 375.433 66.2254 375.755 65.8466C376.077 65.4678 376.319 65.1009 376.48 64.7457C376.641 64.3906 376.721 64.0118 376.721 63.6094C376.721 63.1501 376.617 62.7571 376.409 62.4304C376.201 62.099 375.914 61.8433 375.549 61.6634C375.185 61.4834 374.771 61.3935 374.307 61.3935C373.828 61.3935 373.409 61.4929 373.049 61.6918C372.69 61.8859 372.41 62.1629 372.211 62.5227C372.017 62.8826 371.92 63.3111 371.92 63.8082H369.413C369.413 62.8849 369.624 62.0824 370.045 61.4006C370.467 60.7187 371.047 60.1908 371.785 59.8168C372.529 59.4427 373.381 59.2557 374.342 59.2557C375.317 59.2557 376.174 59.438 376.913 59.8026C377.652 60.1671 378.225 60.6667 378.632 61.3011C379.044 61.9356 379.25 62.66 379.25 63.4744C379.25 64.0189 379.146 64.554 378.937 65.0795C378.729 65.6051 378.362 66.1875 377.836 66.8267C377.316 67.4659 376.584 68.2401 375.642 69.1491L373.135 71.6989V71.7983H379.47V74H369.498Z" fill="black"/>
<rect width="13" height="63" rx="2" transform="matrix(-4.37114e-08 -1 -1 4.37114e-08 260 114)" fill="#E04343"/>
<path d="M280.375 108.879C281.074 108.501 281.074 107.499 280.375 107.121L259.476 95.8085C258.81 95.4479 258 95.9303 258 96.688L258 119.312C258 120.07 258.81 120.552 259.476 120.191L280.375 108.879Z" fill="#E04343"/>
<path d="M204.593 76.728C204.209 77.3787 203.617 77.9813 202.817 78.536C202.017 79.08 201.083 79.5067 200.017 79.816L199.153 78.52C199.697 78.3813 200.23 78.184 200.753 77.928C201.275 77.672 201.761 77.368 202.209 77.016C202.635 76.664 202.982 76.28 203.249 75.864C203.526 75.4373 203.665 74.968 203.665 74.456V73.016H205.521V74.456C205.521 74.968 205.654 75.4373 205.921 75.864C206.187 76.28 206.534 76.664 206.961 77.016C207.387 77.368 207.867 77.672 208.401 77.928C208.945 78.184 209.489 78.3813 210.033 78.52L209.185 79.816C208.651 79.656 208.15 79.4693 207.681 79.256C207.211 79.032 206.779 78.7867 206.385 78.52C205.99 78.2533 205.638 77.9707 205.329 77.672C205.03 77.3627 204.785 77.048 204.593 76.728ZM203.681 86.984V82.392H197.825V80.952H211.265V82.392H205.425V86.984H203.681ZM220.896 80.68C220.16 80.36 219.504 79.976 218.928 79.528C218.362 79.0693 217.904 78.5627 217.552 78.008C217.189 78.6267 216.73 79.1707 216.176 79.64C215.632 80.1093 214.96 80.5467 214.16 80.952L213.168 79.736C213.626 79.4907 214.064 79.2347 214.48 78.968C214.896 78.6907 215.264 78.376 215.584 78.024C215.893 77.672 216.144 77.2667 216.336 76.808C216.528 76.3493 216.624 75.8107 216.624 75.192V74.856H213.728V73.384H221.344V74.856H218.448V75.16C218.448 75.736 218.533 76.2427 218.704 76.68C218.885 77.1067 219.136 77.4853 219.456 77.816C219.765 78.1573 220.122 78.456 220.528 78.712C220.933 78.968 221.376 79.2027 221.856 79.416L220.896 80.68ZM216.656 81.624H225.104V87.144H223.376V83.096H216.656V81.624ZM223.376 72.648H225.104V80.936H223.376V72.648ZM233.203 83.64C234.259 84.0773 235.235 84.296 236.131 84.296C236.845 84.296 237.421 84.136 237.859 83.816C238.36 83.464 238.611 82.9467 238.611 82.264C238.611 80.984 237.715 80.344 235.923 80.344H234.739V78.744H235.219C236.211 78.744 236.957 78.648 237.459 78.456C238.195 78.1573 238.563 77.592 238.563 76.76C238.563 76.5467 238.504 76.3493 238.387 76.168C238.28 75.9867 238.131 75.832 237.939 75.704C237.747 75.576 237.517 75.4747 237.251 75.4C236.995 75.3253 236.717 75.288 236.419 75.288C235.629 75.288 234.739 75.5173 233.747 75.976L233.587 74.248C234.579 73.8747 235.555 73.688 236.515 73.688C237.571 73.688 238.424 73.9013 239.075 74.328C239.885 74.8507 240.291 75.64 240.291 76.696C240.291 77.9547 239.677 78.888 238.451 79.496C239.699 79.9653 240.323 80.92 240.323 82.36C240.323 83.4587 239.901 84.3333 239.059 84.984C238.28 85.5707 237.283 85.864 236.067 85.864C234.829 85.864 233.811 85.6987 233.011 85.368L233.203 83.64ZM252.186 77.416V76.104H246.698V77.416H252.186ZM254.202 87.112H244.858V83.048H246.586V85.64H254.202V87.112ZM248.89 84.264V81.624H242.714V80.184H256.154V81.624H250.634V84.264H248.89ZM244.97 78.872V73.016H246.698V74.632H252.186V73.016H253.898V78.872H244.97ZM258.169 76.024V74.616H266.489V76.024H258.169ZM259.865 74.056V72.616H264.777V74.056H259.865ZM261.401 87.64V84.072H267.881V83.336H261.385V81.912H269.577V85.448H263.081V86.2H269.929V87.64H261.401ZM271.833 78.216H269.577V81.368H267.849V72.648H269.577V76.744H271.833V78.216ZM263.785 78.792C263.785 78.472 263.641 78.216 263.353 78.024C263.075 77.8213 262.734 77.72 262.329 77.72C261.923 77.72 261.577 77.8213 261.289 78.024C261.011 78.216 260.873 78.472 260.873 78.792C260.873 79.112 261.011 79.3733 261.289 79.576C261.577 79.7787 261.923 79.88 262.329 79.88C262.734 79.88 263.075 79.7787 263.353 79.576C263.641 79.3733 263.785 79.112 263.785 78.792ZM265.385 78.792C265.385 79.1333 265.31 79.4533 265.161 79.752C265.011 80.04 264.798 80.296 264.521 80.52C264.254 80.7333 263.934 80.904 263.561 81.032C263.187 81.1493 262.777 81.208 262.329 81.208C261.881 81.208 261.47 81.1493 261.097 81.032C260.723 80.904 260.398 80.7333 260.121 80.52C259.854 80.296 259.646 80.04 259.497 79.752C259.347 79.4533 259.273 79.1333 259.273 78.792C259.273 78.4507 259.347 78.136 259.497 77.848C259.646 77.56 259.854 77.3093 260.121 77.096C260.398 76.8827 260.723 76.7173 261.097 76.6C261.47 76.472 261.881 76.408 262.329 76.408C262.777 76.408 263.187 76.472 263.561 76.6C263.934 76.7173 264.254 76.8827 264.521 77.096C264.798 77.3093 265.011 77.56 265.161 77.848C265.31 78.136 265.385 78.4507 265.385 78.792Z" fill="black"/>
<path d="M0.923118 70V68.9659L4.12234 65.6513C4.46396 65.2912 4.74556 64.9757 4.96715 64.7049C5.19182 64.431 5.35955 64.1709 5.47035 63.9247C5.58114 63.6785 5.63654 63.4169 5.63654 63.1399C5.63654 62.826 5.56268 62.5552 5.41495 62.3274C5.26722 62.0966 5.06564 61.9196 4.81019 61.7965C4.55475 61.6703 4.26699 61.6072 3.94691 61.6072C3.60837 61.6072 3.31291 61.6765 3.06055 61.815C2.80818 61.9535 2.61429 62.1489 2.47887 62.4013C2.34345 62.6536 2.27575 62.9491 2.27575 63.2876H0.913885C0.913885 62.7121 1.04622 62.2089 1.3109 61.7781C1.57558 61.3472 1.93874 61.0133 2.40039 60.7763C2.86204 60.5362 3.38678 60.4162 3.97461 60.4162C4.5686 60.4162 5.0918 60.5347 5.54421 60.7717C5.9997 61.0056 6.35517 61.3256 6.61062 61.7319C6.86606 62.1351 6.99379 62.5906 6.99379 63.0984C6.99379 63.4492 6.92762 63.7924 6.79528 64.1278C6.66602 64.4633 6.43981 64.8372 6.11666 65.2496C5.7935 65.659 5.34416 66.156 4.76864 66.7408L2.88974 68.7074V68.7766H7.14613V70H0.923118Z" fill="black"/>
<path d="M5.92418 125.545V135H4.49308V126.977H4.43768L2.1756 128.454V127.087L4.53462 125.545H5.92418Z" fill="black"/>
<path d="M5.92418 166.545V176H4.49308V167.977H4.43768L2.1756 169.454V168.087L4.53462 166.545H5.92418Z" fill="black"/>
<path d="M16.75 159.5L20.3301 152L11.6699 152L15.25 159.5L16.75 159.5ZM15.25 185.5L11.6699 193L20.3301 193L16.75 185.5L15.25 185.5ZM15.25 158.75L15.25 186.25L16.75 186.25L16.75 158.75L15.25 158.75Z" fill="black"/>
<path d="M16.75 116.5L20.3301 109L11.6699 109L15.25 116.5L16.75 116.5ZM15.25 141.5L11.6699 149L20.3301 149L16.75 141.5L15.25 141.5ZM15.25 115.75L15.25 142.25L16.75 142.25L16.75 115.75L15.25 115.75Z" fill="black"/>
<path d="M16.75 30.5L20.3301 23L11.6699 23L15.25 30.5L16.75 30.5ZM15.25 98.5L11.6699 106L20.3301 106L16.75 98.5L15.25 98.5ZM15.25 29.75L15.25 99.25L16.75 99.25L16.75 29.75L15.25 29.75Z" fill="black"/>
</svg>
