<svg width="361" height="225" viewBox="0 0 361 225" fill="none" xmlns="http://www.w3.org/2000/svg">
<rect x="224" y="45.7568" width="44.9945" height="44.2486" rx="3" fill="white"/>
<rect x="224" y="45.7568" width="44.9945" height="44.2486" rx="3" stroke="white" stroke-width="2"/>
<rect x="224" y="45.7568" width="44.9945" height="44.2486" rx="3" stroke="black" stroke-opacity="0.05" stroke-width="2"/>
<rect x="269.502" y="45.7568" width="44.9945" height="44.2486" rx="3" fill="white"/>
<rect x="269.502" y="45.7568" width="44.9945" height="44.2486" rx="3" stroke="white" stroke-width="2"/>
<rect x="269.502" y="45.7568" width="44.9945" height="44.2486" rx="3" stroke="black" stroke-opacity="0.05" stroke-width="2"/>
<path d="M248.464 58.8182V77H246.262V61.1264H246.155L241.716 64.0739V61.8366L246.262 58.8182H248.464Z" fill="black" fill-opacity="0.1"/>
<path d="M286.314 77V75.402L292.315 68.8324C293.019 68.063 293.599 67.3942 294.055 66.826C294.511 66.2519 294.848 65.7133 295.067 65.2102C295.292 64.7012 295.405 64.1686 295.405 63.6122C295.405 62.973 295.251 62.4196 294.943 61.9521C294.641 61.4845 294.227 61.1235 293.7 60.869C293.173 60.6145 292.581 60.4872 291.925 60.4872C291.226 60.4872 290.617 60.6322 290.096 60.9222C289.581 61.2063 289.181 61.6058 288.897 62.1207C288.619 62.6357 288.48 63.2393 288.48 63.9318H286.385C286.385 62.8665 286.63 61.9313 287.122 61.1264C287.613 60.3215 288.282 59.6941 289.128 59.2443C289.98 58.7945 290.936 58.5696 291.996 58.5696C293.061 58.5696 294.005 58.7945 294.828 59.2443C295.65 59.6941 296.295 60.3008 296.763 61.0643C297.231 61.8278 297.464 62.6771 297.464 63.6122C297.464 64.281 297.343 64.935 297.1 65.5742C296.864 66.2075 296.449 66.9148 295.857 67.696C295.271 68.4714 294.458 69.4183 293.416 70.5369L289.332 74.9048V75.0469H297.784V77H286.314Z" fill="black" fill-opacity="0.1"/>
<path d="M214 45C214 44.4477 213.552 44 213 44C212.448 44 212 44.4477 212 45L214 45ZM212.293 87.7071C212.683 88.0976 213.317 88.0976 213.707 87.7071L220.071 81.3431C220.462 80.9526 220.462 80.3195 220.071 79.9289C219.681 79.5384 219.047 79.5384 218.657 79.9289L213 85.5858L207.343 79.9289C206.953 79.5384 206.319 79.5384 205.929 79.9289C205.538 80.3195 205.538 80.9526 205.929 81.3431L212.293 87.7071ZM212 45L212 87L214 87L214 45L212 45Z" fill="#657AD0"/>
<rect x="1" y="45.7568" width="44.9945" height="44.2486" rx="3" fill="white"/>
<rect x="1" y="45.7568" width="44.9945" height="44.2486" rx="3" stroke="white" stroke-width="2"/>
<rect x="1" y="45.7568" width="44.9945" height="44.2486" rx="3" stroke="black" stroke-opacity="0.2" stroke-width="2"/>
<rect x="1" y="1" width="44.9945" height="44.2486" rx="3" fill="white"/>
<rect x="1" y="1" width="44.9945" height="44.2486" rx="3" stroke="white" stroke-width="2"/>
<rect x="1" y="1" width="44.9945" height="44.2486" rx="3" stroke="black" stroke-opacity="0.2" stroke-width="2"/>
<rect x="46.502" y="45.7568" width="44.9945" height="44.2486" rx="3" fill="white"/>
<rect x="46.502" y="45.7568" width="44.9945" height="44.2486" rx="3" stroke="white" stroke-width="2"/>
<rect x="46.502" y="45.7568" width="44.9945" height="44.2486" rx="3" stroke="black" stroke-opacity="0.2" stroke-width="2"/>
<rect x="46.502" y="1" width="44.9945" height="44.2486" rx="3" fill="white"/>
<rect x="46.502" y="1" width="44.9945" height="44.2486" rx="3" stroke="white" stroke-width="2"/>
<rect x="46.502" y="1" width="44.9945" height="44.2486" rx="3" stroke="black" stroke-opacity="0.2" stroke-width="2"/>
<rect x="92.0059" y="45.7568" width="44.9945" height="44.2486" rx="3" fill="white"/>
<rect x="92.0059" y="45.7568" width="44.9945" height="44.2486" rx="3" stroke="white" stroke-width="2"/>
<rect x="92.0059" y="45.7568" width="44.9945" height="44.2486" rx="3" stroke="black" stroke-opacity="0.2" stroke-width="2"/>
<rect x="92.0059" y="1" width="44.9945" height="44.2486" rx="3" fill="white"/>
<rect x="92.0059" y="1" width="44.9945" height="44.2486" rx="3" stroke="white" stroke-width="2"/>
<rect x="92.0059" y="1" width="44.9945" height="44.2486" rx="3" stroke="black" stroke-opacity="0.2" stroke-width="2"/>
<path d="M25.4636 13.8182V32H23.2619V16.1264H23.1554L18.7164 19.0739V16.8366L23.2619 13.8182H25.4636Z" fill="black"/>
<path d="M115.067 32.2486C113.895 32.2486 112.85 32.0473 111.933 31.6449C111.021 31.2424 110.296 30.6831 109.758 29.967C109.225 29.2449 108.935 28.4074 108.888 27.4545H111.125C111.172 28.0405 111.373 28.5465 111.729 28.9727C112.084 29.3929 112.548 29.7184 113.122 29.9492C113.696 30.18 114.333 30.2955 115.031 30.2955C115.812 30.2955 116.505 30.1593 117.108 29.8871C117.712 29.6148 118.186 29.236 118.529 28.7507C118.872 28.2654 119.044 27.7031 119.044 27.0639C119.044 26.3951 118.878 25.8062 118.547 25.2972C118.215 24.7823 117.73 24.3799 117.091 24.0898C116.452 23.7998 115.67 23.6548 114.747 23.6548H113.291V21.7017H114.747C115.469 21.7017 116.102 21.5715 116.647 21.3111C117.197 21.0507 117.626 20.6837 117.934 20.2102C118.248 19.7367 118.405 19.1804 118.405 18.5412C118.405 17.9257 118.269 17.39 117.996 16.9343C117.724 16.4786 117.339 16.1235 116.842 15.869C116.351 15.6145 115.771 15.4872 115.102 15.4872C114.475 15.4872 113.883 15.6026 113.327 15.8335C112.776 16.0584 112.326 16.3868 111.977 16.8189C111.628 17.245 111.439 17.7599 111.409 18.3636H109.278C109.314 17.4107 109.601 16.5762 110.139 15.8601C110.678 15.138 111.382 14.5758 112.252 14.1733C113.128 13.7708 114.09 13.5696 115.138 13.5696C116.262 13.5696 117.227 13.7975 118.032 14.2532C118.837 14.703 119.455 15.2978 119.887 16.0376C120.319 16.7775 120.535 17.5765 120.535 18.4347C120.535 19.4586 120.266 20.3316 119.727 21.0536C119.195 21.7757 118.47 22.2758 117.552 22.554V22.696C118.701 22.8854 119.597 23.3737 120.242 24.1609C120.887 24.9421 121.21 25.9098 121.21 27.0639C121.21 28.0523 120.941 28.9401 120.402 29.7273C119.869 30.5085 119.142 31.1241 118.218 31.5739C117.295 32.0237 116.244 32.2486 115.067 32.2486Z" fill="black"/>
<path d="M115.119 77.2486C114.373 77.2367 113.627 77.0947 112.882 76.8224C112.136 76.5502 111.455 76.0915 110.84 75.4464C110.224 74.7953 109.73 73.9164 109.357 72.8097C108.984 71.697 108.798 70.3002 108.798 68.6193C108.798 67.0095 108.949 65.5831 109.25 64.3402C109.552 63.0914 109.99 62.0408 110.564 61.1886C111.139 60.3304 111.831 59.6793 112.642 59.2354C113.459 58.7915 114.379 58.5696 115.403 58.5696C116.421 58.5696 117.326 58.7738 118.119 59.1822C118.918 59.5846 119.569 60.1469 120.073 60.869C120.576 61.591 120.901 62.4226 121.049 63.3636H118.883C118.682 62.5469 118.291 61.8692 117.711 61.3306C117.131 60.792 116.362 60.5227 115.403 60.5227C113.994 60.5227 112.884 61.1353 112.074 62.3604C111.269 63.5856 110.863 65.3049 110.857 67.5185H110.999C111.331 67.0154 111.724 66.5863 112.18 66.2312C112.642 65.8701 113.151 65.592 113.707 65.3967C114.264 65.2013 114.852 65.1037 115.474 65.1037C116.516 65.1037 117.468 65.3641 118.333 65.8849C119.197 66.3999 119.889 67.113 120.41 68.0245C120.931 68.93 121.191 69.9688 121.191 71.1406C121.191 72.2652 120.94 73.295 120.437 74.2301C119.933 75.1593 119.226 75.8991 118.315 76.4496C117.409 76.9941 116.344 77.2604 115.119 77.2486ZM115.119 75.2955C115.864 75.2955 116.533 75.109 117.125 74.7362C117.723 74.3633 118.193 73.8632 118.537 73.2358C118.886 72.6084 119.061 71.91 119.061 71.1406C119.061 70.389 118.892 69.7054 118.554 69.0898C118.223 68.4684 117.764 67.9742 117.178 67.6072C116.598 67.2403 115.936 67.0568 115.19 67.0568C114.628 67.0568 114.104 67.1693 113.618 67.3942C113.133 67.6132 112.707 67.915 112.34 68.2997C111.979 68.6844 111.695 69.1254 111.488 69.6225C111.281 70.1138 111.177 70.6316 111.177 71.1761C111.177 71.8982 111.346 72.5729 111.683 73.2003C112.026 73.8277 112.494 74.3337 113.086 74.7184C113.683 75.1031 114.361 75.2955 115.119 75.2955Z" fill="black"/>
<path d="M63.3137 32V30.402L69.3152 23.8324C70.0195 23.063 70.5995 22.3942 71.0552 21.826C71.5109 21.2519 71.8483 20.7133 72.0673 20.2102C72.2922 19.7012 72.4047 19.1686 72.4047 18.6122C72.4047 17.973 72.2508 17.4196 71.943 16.9521C71.6412 16.4845 71.2269 16.1235 70.7001 15.869C70.1734 15.6145 69.5815 15.4872 68.9245 15.4872C68.2261 15.4872 67.6165 15.6322 67.0957 15.9222C66.5808 16.2063 66.1813 16.6058 65.8972 17.1207C65.619 17.6357 65.4799 18.2393 65.4799 18.9318H63.3848C63.3848 17.8665 63.6304 16.9313 64.1216 16.1264C64.6129 15.3215 65.2817 14.6941 66.128 14.2443C66.9803 13.7945 67.9361 13.5696 68.9956 13.5696C70.0609 13.5696 71.0049 13.7945 71.8276 14.2443C72.6503 14.6941 73.2954 15.3008 73.763 16.0643C74.2305 16.8278 74.4643 17.6771 74.4643 18.6122C74.4643 19.281 74.343 19.935 74.1003 20.5742C73.8636 21.2075 73.4493 21.9148 72.8574 22.696C72.2715 23.4714 71.4577 24.4183 70.416 25.5369L66.3322 29.9048V30.0469H74.7839V32H63.3137Z" fill="black"/>
<path d="M16.4359 73.2713V71.4602L24.426 58.8182H25.7399V61.6236H24.8521L18.8152 71.1761V71.3182H29.5752V73.2713H16.4359ZM24.9942 77V72.7209V71.8775V58.8182H27.0894V77H24.9942Z" fill="black"/>
<path d="M68.9589 77.2486C67.9173 77.2486 66.9792 77.0414 66.1447 76.6271C65.3101 76.2128 64.6414 75.6446 64.1383 74.9226C63.6352 74.2005 63.36 73.3778 63.3126 72.4545H65.4433C65.5262 73.2772 65.899 73.9579 66.5619 74.4964C67.2307 75.0291 68.0297 75.2955 68.9589 75.2955C69.7047 75.2955 70.3676 75.1209 70.9476 74.7717C71.5335 74.4225 71.9922 73.9431 72.3236 73.3335C72.661 72.7179 72.8297 72.0225 72.8297 71.2472C72.8297 70.4541 72.6551 69.7468 72.3059 69.1254C71.9626 68.498 71.4891 68.0038 70.8854 67.6428C70.2817 67.2817 69.5922 67.0982 68.8169 67.0923C68.2605 67.0864 67.6894 67.1722 67.1035 67.3498C66.5175 67.5214 66.0352 67.7434 65.6564 68.0156L63.5967 67.767L64.6976 58.8182H74.1436V60.7713H66.5442L65.905 66.1335H66.0115C66.3844 65.8376 66.8519 65.592 67.4142 65.3967C67.9765 65.2013 68.5624 65.1037 69.172 65.1037C70.2847 65.1037 71.2761 65.37 72.1461 65.9027C73.022 66.4295 73.7086 67.1515 74.2057 68.0689C74.7088 68.9863 74.9604 70.0339 74.9604 71.2116C74.9604 72.3717 74.6999 73.4074 74.1791 74.3189C73.6642 75.2244 72.954 75.9406 72.0484 76.4673C71.1429 76.9882 70.1131 77.2486 68.9589 77.2486Z" fill="black"/>
<path d="M178.447 54.0611V35.7798H181.549V54.0611H178.447ZM170.858 46.4716V43.3693H189.139V46.4716H170.858Z" fill="black"/>
<rect x="224" y="1" width="44.9945" height="44.2486" rx="3" fill="white"/>
<rect x="224" y="1" width="44.9945" height="44.2486" rx="3" stroke="white" stroke-width="2"/>
<rect x="224" y="1" width="44.9945" height="44.2486" rx="3" stroke="black" stroke-opacity="0.2" stroke-width="2"/>
<rect x="315" y="45.7568" width="44.9945" height="44.2486" rx="3" stroke="white" stroke-width="2"/>
<rect x="315" y="45.7568" width="44.9945" height="44.2486" rx="3" stroke="#D54242" stroke-width="2"/>
<rect x="269.502" y="1" width="44.9945" height="44.2486" rx="3" fill="white"/>
<rect x="269.502" y="1" width="44.9945" height="44.2486" rx="3" stroke="white" stroke-width="2"/>
<rect x="269.502" y="1" width="44.9945" height="44.2486" rx="3" stroke="black" stroke-opacity="0.2" stroke-width="2"/>
<rect x="315" y="1" width="44.9945" height="44.2486" rx="3" stroke="white" stroke-width="2"/>
<rect x="315" y="1" width="44.9945" height="44.2486" rx="3" stroke="#D54242" stroke-width="2"/>
<path d="M248.464 13.8182V32H246.262V16.1264H246.155L241.716 19.0739V16.8366L246.262 13.8182H248.464Z" fill="black"/>
<path d="M286.314 32V30.402L292.315 23.8324C293.019 23.063 293.599 22.3942 294.055 21.826C294.511 21.2519 294.848 20.7133 295.067 20.2102C295.292 19.7012 295.405 19.1686 295.405 18.6122C295.405 17.973 295.251 17.4196 294.943 16.9521C294.641 16.4845 294.227 16.1235 293.7 15.869C293.173 15.6145 292.581 15.4872 291.925 15.4872C291.226 15.4872 290.617 15.6322 290.096 15.9222C289.581 16.2063 289.181 16.6058 288.897 17.1207C288.619 17.6357 288.48 18.2393 288.48 18.9318H286.385C286.385 17.8665 286.63 16.9313 287.122 16.1264C287.613 15.3215 288.282 14.6941 289.128 14.2443C289.98 13.7945 290.936 13.5696 291.996 13.5696C293.061 13.5696 294.005 13.7945 294.828 14.2443C295.65 14.6941 296.295 15.3008 296.763 16.0643C297.231 16.8278 297.464 17.6771 297.464 18.6122C297.464 19.281 297.343 19.935 297.1 20.5742C296.864 21.2075 296.449 21.9148 295.857 22.696C295.271 23.4714 294.458 24.4183 293.416 25.5369L289.332 29.9048V30.0469H297.784V32H286.314Z" fill="black"/>
<rect x="185.916" y="133" width="23.8725" height="10.9416" rx="1" transform="rotate(90 185.916 133)" fill="#DF5C5C"/>
<path d="M181.006 166.127C180.607 166.588 179.893 166.588 179.494 166.127L170.641 155.905C170.08 155.257 170.54 154.25 171.397 154.25L189.103 154.25C189.96 154.25 190.42 155.257 189.859 155.905L181.006 166.127Z" fill="#DF5C5C"/>
<path d="M117.146 199.818L121.541 213.632H121.71L126.113 199.818H130.374L124.107 218H119.153L112.876 199.818H117.146ZM135.616 218.257C134.746 218.257 133.971 218.107 133.29 217.805C132.61 217.497 132.071 217.044 131.675 216.446C131.284 215.843 131.089 215.091 131.089 214.191C131.089 213.434 131.228 212.798 131.506 212.283C131.784 211.768 132.163 211.353 132.642 211.04C133.122 210.726 133.666 210.489 134.276 210.33C134.891 210.17 135.537 210.057 136.211 209.992C137.004 209.909 137.644 209.832 138.129 209.761C138.614 209.684 138.966 209.572 139.185 209.424C139.404 209.276 139.514 209.057 139.514 208.767V208.714C139.514 208.152 139.336 207.717 138.981 207.409C138.632 207.101 138.135 206.947 137.49 206.947C136.809 206.947 136.268 207.098 135.865 207.4C135.463 207.696 135.196 208.069 135.066 208.518L131.568 208.234C131.746 207.406 132.095 206.69 132.616 206.086C133.137 205.476 133.808 205.009 134.631 204.683C135.46 204.352 136.418 204.186 137.507 204.186C138.265 204.186 138.99 204.275 139.683 204.452C140.381 204.63 140.999 204.905 141.538 205.278C142.083 205.651 142.512 206.13 142.825 206.716C143.139 207.296 143.296 207.992 143.296 208.803V218H139.709V216.109H139.603C139.384 216.535 139.091 216.911 138.724 217.237C138.357 217.556 137.916 217.808 137.401 217.991C136.886 218.169 136.291 218.257 135.616 218.257ZM136.7 215.647C137.256 215.647 137.747 215.538 138.173 215.319C138.599 215.094 138.934 214.792 139.176 214.413C139.419 214.035 139.54 213.605 139.54 213.126V211.679C139.422 211.756 139.259 211.827 139.052 211.892C138.851 211.951 138.623 212.007 138.369 212.061C138.114 212.108 137.86 212.152 137.605 212.194C137.351 212.229 137.12 212.262 136.913 212.292C136.469 212.357 136.081 212.46 135.75 212.602C135.418 212.744 135.161 212.937 134.977 213.179C134.794 213.416 134.702 213.712 134.702 214.067C134.702 214.582 134.888 214.976 135.261 215.248C135.64 215.514 136.12 215.647 136.7 215.647ZM150.762 199.818V218H146.98V199.818H150.762ZM163.286 212.194V204.364H167.068V218H163.437V215.523H163.295C162.987 216.322 162.475 216.964 161.759 217.45C161.049 217.935 160.182 218.178 159.158 218.178C158.246 218.178 157.445 217.97 156.752 217.556C156.06 217.142 155.518 216.553 155.127 215.789C154.743 215.026 154.547 214.112 154.541 213.046V204.364H158.323V212.371C158.329 213.176 158.545 213.813 158.972 214.28C159.398 214.748 159.969 214.982 160.685 214.982C161.141 214.982 161.567 214.878 161.963 214.671C162.36 214.458 162.679 214.144 162.922 213.73C163.171 213.315 163.292 212.804 163.286 212.194ZM177.058 218.266C175.655 218.266 174.448 217.982 173.436 217.414C172.429 216.84 171.654 216.029 171.11 214.982C170.565 213.928 170.293 212.682 170.293 211.244C170.293 209.841 170.565 208.61 171.11 207.551C171.654 206.491 172.421 205.666 173.409 205.074C174.403 204.482 175.569 204.186 176.907 204.186C177.806 204.186 178.644 204.331 179.419 204.621C180.2 204.905 180.881 205.334 181.461 205.908C182.047 206.482 182.503 207.205 182.828 208.075C183.154 208.939 183.317 209.951 183.317 211.111V212.15H171.802V209.806H179.757C179.757 209.261 179.638 208.779 179.401 208.359C179.165 207.938 178.836 207.61 178.416 207.373C178.002 207.131 177.519 207.009 176.969 207.009C176.395 207.009 175.886 207.142 175.442 207.409C175.004 207.669 174.661 208.021 174.412 208.465C174.164 208.903 174.036 209.391 174.03 209.93V212.158C174.03 212.833 174.155 213.416 174.403 213.907C174.658 214.399 175.016 214.777 175.477 215.044C175.939 215.31 176.487 215.443 177.12 215.443C177.54 215.443 177.925 215.384 178.274 215.266C178.623 215.147 178.922 214.97 179.171 214.733C179.419 214.496 179.609 214.206 179.739 213.863L183.237 214.094C183.059 214.934 182.695 215.668 182.145 216.295C181.6 216.917 180.896 217.402 180.032 217.751C179.174 218.095 178.182 218.266 177.058 218.266ZM186.606 218V199.818H198.857V202.988H190.45V207.32H198.227V210.489H190.45V214.831H198.893V218H186.606ZM202.592 218V204.364H206.259V206.743H206.401C206.649 205.897 207.067 205.257 207.653 204.825C208.239 204.387 208.913 204.168 209.677 204.168C209.866 204.168 210.07 204.18 210.289 204.204C210.508 204.228 210.701 204.26 210.866 204.301V207.657C210.689 207.604 210.443 207.557 210.13 207.515C209.816 207.474 209.529 207.453 209.268 207.453C208.712 207.453 208.215 207.574 207.777 207.817C207.345 208.054 207.002 208.385 206.747 208.811C206.498 209.238 206.374 209.729 206.374 210.285V218H202.592ZM213.572 218V204.364H217.238V206.743H217.38C217.629 205.897 218.046 205.257 218.632 204.825C219.218 204.387 219.893 204.168 220.656 204.168C220.846 204.168 221.05 204.18 221.269 204.204C221.488 204.228 221.68 204.26 221.846 204.301V207.657C221.668 207.604 221.423 207.557 221.109 207.515C220.795 207.474 220.508 207.453 220.248 207.453C219.692 207.453 219.194 207.574 218.756 207.817C218.324 208.054 217.981 208.385 217.727 208.811C217.478 209.238 217.354 209.729 217.354 210.285V218H213.572ZM230.078 218.266C228.699 218.266 227.506 217.973 226.5 217.387C225.5 216.796 224.727 215.973 224.183 214.919C223.638 213.86 223.366 212.632 223.366 211.235C223.366 209.826 223.638 208.595 224.183 207.542C224.727 206.482 225.5 205.66 226.5 205.074C227.506 204.482 228.699 204.186 230.078 204.186C231.457 204.186 232.646 204.482 233.647 205.074C234.653 205.66 235.428 206.482 235.973 207.542C236.517 208.595 236.789 209.826 236.789 211.235C236.789 212.632 236.517 213.86 235.973 214.919C235.428 215.973 234.653 216.796 233.647 217.387C232.646 217.973 231.457 218.266 230.078 218.266ZM230.095 215.337C230.723 215.337 231.247 215.159 231.667 214.804C232.087 214.443 232.404 213.952 232.617 213.33C232.836 212.709 232.945 212.002 232.945 211.208C232.945 210.415 232.836 209.708 232.617 209.087C232.404 208.465 232.087 207.974 231.667 207.613C231.247 207.252 230.723 207.071 230.095 207.071C229.462 207.071 228.929 207.252 228.497 207.613C228.071 207.974 227.749 208.465 227.53 209.087C227.317 209.708 227.21 210.415 227.21 211.208C227.21 212.002 227.317 212.709 227.53 213.33C227.749 213.952 228.071 214.443 228.497 214.804C228.929 215.159 229.462 215.337 230.095 215.337ZM239.998 218V204.364H243.665V206.743H243.807C244.056 205.897 244.473 205.257 245.059 204.825C245.645 204.387 246.32 204.168 247.083 204.168C247.272 204.168 247.477 204.18 247.696 204.204C247.915 204.228 248.107 204.26 248.273 204.301V207.657C248.095 207.604 247.849 207.557 247.536 207.515C247.222 207.474 246.935 207.453 246.675 207.453C246.118 207.453 245.621 207.574 245.183 207.817C244.751 208.054 244.408 208.385 244.153 208.811C243.905 209.238 243.78 209.729 243.78 210.285V218H239.998Z" fill="#C62121"/>
</svg>
