<svg width="427" height="149" viewBox="0 0 427 149" fill="none" xmlns="http://www.w3.org/2000/svg">
<path d="M69 76.5684C69 97.1777 58.132 116.928 40.3479 129.809C36.3959 132.385 29.4799 132.385 26.5158 128.95C23.5518 125.516 23.5518 119.505 27.5039 116.928C41.3359 106.624 49.2399 92.0254 49.2399 76.5684C49.2399 61.1114 41.3359 46.5131 27.5039 37.0671C23.5518 34.491 22.5638 28.4799 26.5158 25.045C29.4799 21.6101 36.3959 20.7514 40.3479 24.1863C58.132 36.2084 69 55.959 69 76.5684Z" fill="black" fill-opacity="0.04"/>
<path d="M43.8975 135.254L44.0313 135.167L44.1607 135.073C63.4369 121.112 75.5 99.4923 75.5 76.5684C75.5 53.7865 63.5711 32.1727 44.274 18.9955C40.7305 16.0982 36.3062 15.2487 32.5252 15.5616C28.8266 15.8678 24.7641 17.3688 21.9149 20.4407C14.7051 27.0891 16.969 37.8962 23.8844 42.4665C36.0401 50.7881 42.7399 63.4243 42.7399 76.5684C42.7399 89.6492 36.0885 102.372 23.7527 111.617C19.8398 114.27 18.1348 118.453 17.9261 122.262C17.7172 126.074 18.9369 130.117 21.5947 133.197C24.6763 136.768 29.1808 137.979 32.7926 138.128C36.4891 138.281 40.5973 137.406 43.8975 135.254Z" stroke="black" stroke-opacity="0.04" stroke-width="13"/>
<path d="M297.352 38.5244L355.648 2.47561" stroke="#C7E0B3" stroke-width="3" stroke-linecap="round"/>
<path d="M297.453 71.9775L338.116 65.4532" stroke="#C7E0B3" stroke-width="3" stroke-linecap="round"/>
<path d="M308.001 54.9998L327.002 47.4998" stroke="#C7E0B3" stroke-width="3" stroke-linecap="round"/>
<path d="M324.002 110.719L343.225 117.63" stroke="#C7E0B3" stroke-width="3" stroke-linecap="round"/>
<path d="M290 85L358 101" stroke="#C7E0B3" stroke-width="3" stroke-linecap="round"/>
<path d="M295.875 108.605L338.122 136.394" stroke="#C7E0B3" stroke-width="3" stroke-linecap="round"/>
<path fill-rule="evenodd" clip-rule="evenodd" d="M172.359 93.3925C173.471 90.3559 176.704 88.6565 179.836 89.4615L182.774 90.2163C185.906 91.0214 187.919 94.0692 187.429 97.2657C187.313 98.0244 188.089 98.6061 188.784 98.2836C191.718 96.9233 195.205 98.0074 196.851 100.791L198.394 103.402C200.04 106.186 199.308 109.764 196.701 111.679C196.083 112.133 196.219 113.093 196.94 113.357C199.977 114.47 201.676 117.702 200.871 120.835L200.116 123.772C199.311 126.904 196.264 128.917 193.068 128.428C192.31 128.312 191.727 129.086 192.05 129.783C193.41 132.716 192.327 136.204 189.542 137.85L186.931 139.393C184.147 141.039 180.569 140.307 178.655 137.7C178.201 137.082 177.241 137.218 176.977 137.939C175.864 140.976 172.631 142.676 169.498 141.871L166.562 141.116C163.429 140.311 161.416 137.264 161.906 134.067C162.022 133.308 161.246 132.725 160.55 133.048C157.615 134.409 154.127 133.325 152.481 130.54L150.939 127.931C149.293 125.146 150.025 121.568 152.631 119.653C153.25 119.199 153.113 118.239 152.393 117.975C149.356 116.862 147.657 113.629 148.462 110.497L149.216 107.56C150.022 104.427 153.07 102.415 156.267 102.904C157.026 103.02 157.608 102.244 157.285 101.548C155.925 98.6142 157.009 95.1264 159.793 93.4806L162.403 91.9377C165.188 90.2919 168.766 91.0241 170.681 93.6305C171.135 94.2493 172.095 94.1122 172.359 93.3925ZM178.509 94.6269C178.03 94.5039 177.536 94.7635 177.366 95.2274C175.638 99.9436 169.355 100.835 166.382 96.7878C166.09 96.3893 165.543 96.2776 165.117 96.529L162.507 98.0719C162.082 98.3234 161.916 98.8564 162.124 99.3048C164.237 103.862 160.424 108.936 155.46 108.176C154.971 108.101 154.505 108.409 154.382 108.888L153.627 111.824C153.504 112.303 153.764 112.797 154.228 112.967C158.944 114.695 159.836 120.979 155.789 123.952C155.39 124.244 155.278 124.791 155.53 125.217L157.072 127.827C157.324 128.252 157.857 128.418 158.306 128.21C162.862 126.097 167.937 129.908 167.178 134.873C167.103 135.362 167.41 135.828 167.889 135.951L170.826 136.706C171.304 136.829 171.798 136.569 171.969 136.104C173.696 131.389 179.98 130.495 182.953 134.543C183.246 134.941 183.792 135.053 184.218 134.802L186.828 133.259C187.254 133.007 187.419 132.474 187.212 132.026C185.099 127.471 188.91 122.396 193.874 123.156C194.363 123.231 194.828 122.923 194.951 122.445L195.706 119.507C195.829 119.029 195.569 118.535 195.105 118.365C190.39 116.637 189.496 110.354 193.544 107.381C193.942 107.088 194.054 106.542 193.803 106.116L192.259 103.505C192.008 103.08 191.475 102.914 191.027 103.122C186.471 105.235 181.398 101.422 182.157 96.4589C182.232 95.9703 181.924 95.5047 181.446 95.3818L178.509 94.6269Z" fill="#606060"/>
<path fill-rule="evenodd" clip-rule="evenodd" d="M175.996 110.5C173.143 109.767 170.236 111.485 169.503 114.338C168.769 117.191 170.488 120.098 173.341 120.831C176.194 121.564 179.1 119.846 179.834 116.993C180.567 114.14 178.849 111.233 175.996 110.5ZM164.337 113.011C165.804 107.305 171.618 103.868 177.323 105.335C183.029 106.801 186.465 112.615 184.999 118.321C183.533 124.026 177.719 127.463 172.013 125.997C166.308 124.53 162.871 118.716 164.337 113.011Z" fill="#606060"/>
<path d="M234.613 2.44992L234.627 2.58017C234.809 4.31803 237.241 4.57403 237.784 2.91341L237.825 2.78541C238.428 0.937172 241.188 1.52529 240.98 3.45741L240.968 3.57329C240.782 5.31115 243.107 6.06815 243.985 4.55641L244.049 4.44716C245.026 2.76442 247.601 3.91529 246.994 5.7624L246.965 5.85065C246.418 7.5124 248.535 8.73727 249.71 7.43965L249.783 7.36015C251.089 5.9169 253.369 7.57752 252.388 9.25801L252.355 9.31539C251.473 10.8271 253.288 12.4658 254.708 11.4395L254.776 11.392C256.355 10.251 258.238 12.3488 256.929 13.7897L256.902 13.8185C255.724 15.114 257.159 17.0946 258.761 16.384L258.812 16.3619C260.594 15.5729 262.001 18.016 260.419 19.1536L260.406 19.1625C258.982 20.1865 259.975 22.4221 261.691 22.058L261.719 22.0525C263.628 21.6475 264.496 24.33 262.712 25.1156L262.71 25.1167C261.103 25.8239 261.611 28.2163 263.366 28.2152H263.375C265.326 28.2129 265.62 31.0157 263.71 31.4163C261.992 31.7772 261.992 34.2234 263.71 34.5832C265.621 34.9837 265.326 37.7864 263.375 37.7843H263.366C261.61 37.7832 261.103 40.1754 262.71 40.8828L262.712 40.8839C264.496 41.6695 263.628 44.352 261.719 43.947L261.691 43.9415C259.975 43.5774 258.982 45.813 260.406 46.837L260.419 46.8459C262.001 47.9835 260.594 50.4266 258.812 49.6376L258.761 49.6155C257.159 48.9049 255.724 50.8856 256.902 52.181L256.929 52.2097C258.238 53.6508 256.355 55.7485 254.776 54.6075L254.708 54.56C253.288 53.5337 251.473 55.1723 252.355 56.6841L252.388 56.7415C253.369 58.4219 251.089 60.0827 249.783 58.6393L249.71 58.5598C248.535 57.2622 246.418 58.4869 246.965 60.1488L246.994 60.2371C247.601 62.0853 245.026 63.2352 244.049 61.5524L243.985 61.4432C243.107 59.9314 240.782 60.6884 240.968 62.4263L240.98 62.5422C241.188 64.4743 238.428 65.0635 237.825 63.2142L237.784 63.0873C237.241 61.4256 234.809 61.6816 234.627 63.4194L234.613 63.5497C234.41 65.4829 231.589 65.4829 231.387 63.5497L231.373 63.4194C231.19 61.6816 228.758 61.4256 228.217 63.0873L228.175 63.2142C227.572 65.0635 224.813 64.4743 225.019 62.5422L225.032 62.4263C225.218 60.6884 222.893 59.9314 222.015 61.4432L221.951 61.5524C220.975 63.2352 218.398 62.0854 219.006 60.2371L219.035 60.1488C219.581 58.4871 217.465 57.2622 216.291 58.5598L216.218 58.6393C214.911 60.0826 212.632 58.4219 213.612 56.7415L213.646 56.6841C214.527 55.1723 212.711 53.5337 211.292 54.56L211.225 54.6075C209.646 55.7485 207.761 53.6507 209.072 52.2097L209.099 52.181C210.277 50.8855 208.841 48.9049 207.238 49.6155L207.189 49.6376C205.406 50.4266 204 47.9835 205.582 46.8459L205.595 46.837C207.019 45.813 206.026 43.5774 204.309 43.9415L204.281 43.947C202.373 44.352 201.505 41.6695 203.289 40.8839L203.291 40.8828C204.897 40.1754 204.389 37.7832 202.635 37.7843H202.625C200.674 37.7865 200.38 34.9838 202.289 34.5832C204.007 34.2234 204.007 31.777 202.289 31.4163C200.38 31.0158 200.674 28.2131 202.625 28.2152H202.635C204.389 28.2163 204.897 25.8241 203.291 25.1167L203.289 25.1156C201.505 24.33 202.373 21.6475 204.281 22.0525L204.309 22.058C206.026 22.4221 207.019 20.1865 205.595 19.1625L205.582 19.1536C204 18.016 205.406 15.5729 207.189 16.3619L207.238 16.384C208.841 17.0946 210.277 15.1139 209.099 13.8185L209.072 13.7897C207.761 12.3489 209.646 10.2513 211.225 11.3921L211.292 11.4396C212.711 12.4659 214.527 10.8273 213.646 9.31551L213.611 9.25814C212.632 7.57765 214.911 5.9169 216.218 7.36027L216.291 7.43977C217.465 8.73739 219.581 7.51265 219.035 5.85078L219.006 5.76253C218.398 3.91541 220.975 2.76441 221.951 4.44728L222.015 4.55653C222.892 6.06828 225.217 5.31128 225.032 3.57341L225.019 3.45754C224.812 1.52542 227.572 0.937297 228.175 2.78554L228.217 2.91354C228.758 4.57428 231.19 4.31828 231.372 2.58029L231.387 2.45004C231.589 0.516674 234.41 0.516674 234.613 2.44992Z" fill="#AAAAAA"/>
<path d="M247.346 33.0001C247.346 40.9228 240.924 47.3449 233.001 47.3449C225.078 47.3449 218.656 40.9228 218.656 33.0001C218.656 25.0774 225.078 18.6553 233.001 18.6553C240.924 18.6553 247.346 25.0774 247.346 33.0001Z" fill="#EBEBEB"/>
<path d="M236.312 33.0008C236.312 34.8292 234.83 36.3112 233.002 36.3112C231.173 36.3112 229.691 34.8293 229.691 33.0008C229.691 31.1724 231.173 29.6904 233.002 29.6904C234.83 29.6904 236.312 31.1724 236.312 33.0008Z" fill="#AAAAAA"/>
<path d="M234.105 24.1728C234.105 24.782 233.611 25.2763 233.002 25.2763C232.393 25.2763 231.898 24.782 231.898 24.1728C231.898 23.5637 232.393 23.0693 233.002 23.0693C233.611 23.0693 234.105 23.5638 234.105 24.1728Z" fill="#AAAAAA"/>
<path d="M234.105 41.8281C234.105 42.4372 233.611 42.9316 233.002 42.9316C232.393 42.9316 231.898 42.4372 231.898 41.8281C231.898 41.219 232.393 40.7246 233.002 40.7246C233.611 40.7246 234.105 41.219 234.105 41.8281Z" fill="#AAAAAA"/>
<path d="M241.83 34.1035C241.221 34.1035 240.727 33.6091 240.727 33C240.727 32.3909 241.221 31.8965 241.83 31.8965C242.439 31.8965 242.934 32.3909 242.934 33C242.933 33.6091 242.439 34.1035 241.83 34.1035Z" fill="#AAAAAA"/>
<path d="M224.174 34.1035C223.565 34.1035 223.07 33.6091 223.07 33C223.07 32.3909 223.565 31.8965 224.174 31.8965C224.783 31.8965 225.277 32.3909 225.277 33C225.277 33.6091 224.783 34.1035 224.174 34.1035Z" fill="#AAAAAA"/>
<path d="M240.024 27.5391C239.593 27.9706 238.895 27.9706 238.464 27.5391C238.033 27.1076 238.033 26.4093 238.464 25.9789C238.895 25.5474 239.593 25.5474 240.024 25.9789C240.456 26.4093 240.456 27.1078 240.024 27.5391Z" fill="#AAAAAA"/>
<path d="M227.54 40.0225C227.109 40.454 226.41 40.454 225.98 40.0225C225.548 39.591 225.548 38.8927 225.98 38.4623C226.41 38.0308 227.109 38.0308 227.54 38.4623C227.972 38.8925 227.972 39.591 227.54 40.0225Z" fill="#AAAAAA"/>
<path d="M238.464 40.0225C238.033 39.591 238.033 38.8927 238.464 38.4623C238.896 38.0308 239.594 38.0308 240.024 38.4623C240.456 38.8927 240.456 39.5912 240.024 40.0225C239.594 40.4539 238.896 40.4539 238.464 40.0225Z" fill="#AAAAAA"/>
<path d="M225.98 27.5391C225.548 27.1076 225.548 26.4093 225.98 25.9789C226.411 25.5474 227.11 25.5474 227.54 25.9789C227.972 26.4093 227.972 27.1078 227.54 27.5391C227.11 27.9706 226.411 27.9706 225.98 27.5391Z" fill="#AAAAAA"/>
<path d="M270 46.5372C270 45.7948 270.275 45.0788 270.773 44.5276L286.773 26.7938C288.613 24.7538 292 26.0558 292 28.8035V118.315C292 121.047 288.645 122.357 286.793 120.347L270.793 102.975C270.283 102.421 270 101.696 270 100.943V46.5372Z" fill="#234E38"/>
<path d="M136 46.7613C136 46.0238 135.728 45.3121 135.237 44.7622L119.237 26.8596C117.401 24.8057 114 26.1041 114 28.8587V119.261C114 122 117.37 123.306 119.216 121.283L135.216 103.745C135.72 103.193 136 102.472 136 101.723V46.7613Z" fill="#234E38"/>
<rect x="133" y="32" width="140" height="84" rx="3" fill="#3A7457" stroke="#234E38" stroke-width="4"/>
<path d="M149.882 81.1176H150.765V82H149.882V81.1176ZM150.765 81.1176H151.647V82H150.765V81.1176ZM151.647 81.1176H152.529V82H151.647V81.1176ZM152.529 81.1176H153.412V82H152.529V81.1176ZM152.529 80.2353H153.412V81.1176H152.529V80.2353ZM152.529 79.3529H153.412V80.2353H152.529V79.3529ZM152.529 78.4706H153.412V79.3529H152.529V78.4706ZM152.529 77.5882H153.412V78.4706H152.529V77.5882ZM151.647 77.5882H152.529V78.4706H151.647V77.5882ZM150.765 77.5882H151.647V78.4706H150.765V77.5882ZM150.765 78.4706H151.647V79.3529H150.765V78.4706ZM150.765 79.3529H151.647V80.2353H150.765V79.3529ZM149.882 79.3529H150.765V80.2353H149.882V79.3529ZM149.882 80.2353H150.765V81.1176H149.882V80.2353ZM150.765 80.2353H151.647V81.1176H150.765V80.2353ZM151.647 80.2353H152.529V81.1176H151.647V80.2353ZM151.647 79.3529H152.529V80.2353H151.647V79.3529ZM151.647 78.4706H152.529V79.3529H151.647V78.4706ZM149.882 78.4706H150.765V79.3529H149.882V78.4706ZM149.882 77.5882H150.765V78.4706H149.882V77.5882ZM149.882 76.7059H150.765V77.5882H149.882V76.7059ZM149.882 75.8235H150.765V76.7059H149.882V75.8235ZM149.882 74.9412H150.765V75.8235H149.882V74.9412ZM149.882 74.0588H150.765V74.9412H149.882V74.0588ZM149.882 73.1765H150.765V74.0588H149.882V73.1765ZM149.882 72.2941H150.765V73.1765H149.882V72.2941ZM149.882 71.4118H150.765V72.2941H149.882V71.4118ZM149.882 70.5294H150.765V71.4118H149.882V70.5294ZM149.882 69.6471H150.765V70.5294H149.882V69.6471ZM150.765 69.6471H151.647V70.5294H150.765V69.6471ZM151.647 69.6471H152.529V70.5294H151.647V69.6471ZM151.647 70.5294H152.529V71.4118H151.647V70.5294ZM152.529 70.5294H153.412V71.4118H152.529V70.5294ZM152.529 71.4118H153.412V72.2941H152.529V71.4118ZM152.529 72.2941H153.412V73.1765H152.529V72.2941ZM152.529 73.1765H153.412V74.0588H152.529V73.1765ZM152.529 74.9412H153.412V75.8235H152.529V74.9412ZM152.529 75.8235H153.412V76.7059H152.529V75.8235ZM152.529 76.7059H153.412V77.5882H152.529V76.7059ZM151.647 76.7059H152.529V77.5882H151.647V76.7059ZM151.647 75.8235H152.529V76.7059H151.647V75.8235ZM151.647 74.9412H152.529V75.8235H151.647V74.9412ZM151.647 74.0588H152.529V74.9412H151.647V74.0588ZM151.647 73.1765H152.529V74.0588H151.647V73.1765ZM151.647 72.2941H152.529V73.1765H151.647V72.2941ZM151.647 71.4118H152.529V72.2941H151.647V71.4118ZM150.765 71.4118H151.647V72.2941H150.765V71.4118ZM150.765 70.5294H151.647V71.4118H150.765V70.5294ZM150.765 72.2941H151.647V73.1765H150.765V72.2941ZM150.765 73.1765H151.647V74.0588H150.765V73.1765ZM150.765 74.9412H151.647V75.8235H150.765V74.9412ZM150.765 75.8235H151.647V76.7059H150.765V75.8235ZM150.765 76.7059H151.647V77.5882H150.765V76.7059ZM150.765 74.0588H151.647V74.9412H150.765V74.0588ZM152.529 74.0588H153.412V74.9412H152.529V74.0588ZM153.412 74.0588H154.294V74.9412H153.412V74.0588ZM155.176 74.0588H156.059V74.9412H155.176V74.0588ZM156.059 74.0588H156.941V74.9412H156.059V74.0588ZM156.941 74.0588H157.824V74.9412H156.941V74.0588ZM157.824 74.0588H158.706V74.9412H157.824V74.0588ZM158.706 74.0588H159.588V74.9412H158.706V74.0588ZM159.588 74.0588H160.471V74.9412H159.588V74.0588ZM159.588 74.9412H160.471V75.8235H159.588V74.9412ZM159.588 75.8235H160.471V76.7059H159.588V75.8235ZM159.588 76.7059H160.471V77.5882H159.588V76.7059ZM158.706 76.7059H159.588V77.5882H158.706V76.7059ZM157.824 76.7059H158.706V77.5882H157.824V76.7059ZM156.941 76.7059H157.824V77.5882H156.941V76.7059ZM156.059 76.7059H156.941V77.5882H156.059V76.7059ZM155.176 75.8235H156.059V76.7059H155.176V75.8235ZM154.294 75.8235H155.176V76.7059H154.294V75.8235ZM153.412 75.8235H154.294V76.7059H153.412V75.8235ZM153.412 74.9412H154.294V75.8235H153.412V74.9412ZM154.294 74.0588H155.176V74.9412H154.294V74.0588ZM154.294 74.9412H155.176V75.8235H154.294V74.9412ZM153.412 76.7059H154.294V77.5882H153.412V76.7059ZM154.294 76.7059H155.176V77.5882H154.294V76.7059ZM155.176 76.7059H156.059V77.5882H155.176V76.7059ZM156.941 75.8235H157.824V76.7059H156.941V75.8235ZM156.941 74.9412H157.824V75.8235H156.941V74.9412ZM156.059 74.9412H156.941V75.8235H156.059V74.9412ZM155.176 74.9412H156.059V75.8235H155.176V74.9412ZM156.059 75.8235H156.941V76.7059H156.059V75.8235ZM157.824 74.9412H158.706V75.8235H157.824V74.9412ZM158.706 74.9412H159.588V75.8235H158.706V74.9412ZM158.706 75.8235H159.588V76.7059H158.706V75.8235ZM157.824 75.8235H158.706V76.7059H157.824V75.8235ZM158.706 77.5882H159.588V78.4706H158.706V77.5882ZM158.706 78.4706H159.588V79.3529H158.706V78.4706ZM158.706 79.3529H159.588V80.2353H158.706V79.3529ZM158.706 80.2353H159.588V81.1176H158.706V80.2353ZM159.588 80.2353H160.471V81.1176H159.588V80.2353ZM159.588 81.1176H160.471V82H159.588V81.1176ZM160.471 81.1176H161.353V82H160.471V81.1176ZM158.706 81.1176H159.588V82H158.706V81.1176ZM160.471 75.8235H161.353V76.7059H160.471V75.8235ZM160.471 74.9412H161.353V75.8235H160.471V74.9412ZM160.471 74.0588H161.353V74.9412H160.471V74.0588ZM160.471 73.1765H161.353V74.0588H160.471V73.1765ZM160.471 69.6471H161.353V70.5294H160.471V69.6471ZM160.471 70.5294H161.353V71.4118H160.471V70.5294ZM159.588 70.5294H160.471V71.4118H159.588V70.5294ZM159.588 71.4118H160.471V72.2941H159.588V71.4118ZM159.588 72.2941H160.471V73.1765H159.588V72.2941ZM159.588 73.1765H160.471V74.0588H159.588V73.1765ZM160.471 72.2941H161.353V73.1765H160.471V72.2941ZM160.471 71.4118H161.353V72.2941H160.471V71.4118ZM158.706 70.5294H159.588V71.4118H158.706V70.5294ZM158.706 71.4118H159.588V72.2941H158.706V71.4118ZM158.706 72.2941H159.588V73.1765H158.706V72.2941ZM158.706 73.1765H159.588V74.0588H158.706V73.1765ZM159.588 77.5882H160.471V78.4706H159.588V77.5882ZM159.588 78.4706H160.471V79.3529H159.588V78.4706ZM159.588 79.3529H160.471V80.2353H159.588V79.3529ZM160.471 79.3529H161.353V80.2353H160.471V79.3529ZM160.471 78.4706H161.353V79.3529H160.471V78.4706ZM160.471 77.5882H161.353V78.4706H160.471V77.5882ZM160.471 76.7059H161.353V77.5882H160.471V76.7059ZM160.471 80.2353H161.353V81.1176H160.471V80.2353ZM150.765 68.7647H151.647V69.6471H150.765V68.7647ZM151.647 68.7647H152.529V69.6471H151.647V68.7647ZM152.529 68.7647H153.412V69.6471H152.529V68.7647ZM153.412 68.7647H154.294V69.6471H153.412V68.7647ZM154.294 68.7647H155.176V69.6471H154.294V68.7647ZM156.059 68.7647H156.941V69.6471H156.059V68.7647ZM156.941 68.7647H157.824V69.6471H156.941V68.7647ZM157.824 68.7647H158.706V69.6471H157.824V68.7647ZM158.706 68.7647H159.588V69.6471H158.706V68.7647ZM159.588 68.7647H160.471V69.6471H159.588V68.7647ZM159.588 69.6471H160.471V70.5294H159.588V69.6471ZM158.706 69.6471H159.588V70.5294H158.706V69.6471ZM157.824 69.6471H158.706V70.5294H157.824V69.6471ZM156.941 69.6471H157.824V70.5294H156.941V69.6471ZM152.529 69.6471H153.412V70.5294H152.529V69.6471ZM153.412 69.6471H154.294V70.5294H153.412V69.6471ZM151.647 67.8824H152.529V68.7647H151.647V67.8824ZM152.529 67.8824H153.412V68.7647H152.529V67.8824ZM154.294 67.8824H155.176V68.7647H154.294V67.8824ZM155.176 67.8824H156.059V68.7647H155.176V67.8824ZM156.059 67.8824H156.941V68.7647H156.059V67.8824ZM156.941 67.8824H157.824V68.7647H156.941V67.8824ZM157.824 67.8824H158.706V68.7647H157.824V67.8824ZM158.706 67.8824H159.588V68.7647H158.706V67.8824ZM159.588 67.8824H160.471V68.7647H159.588V67.8824ZM158.706 67H159.588V67.8824H158.706V67ZM157.824 67H158.706V67.8824H157.824V67ZM156.941 67H157.824V67.8824H156.941V67ZM156.059 67H156.941V67.8824H156.059V67ZM155.176 67H156.059V67.8824H155.176V67ZM153.412 67.8824H154.294V68.7647H153.412V67.8824ZM152.529 67H153.412V67.8824H152.529V67ZM153.412 67H154.294V67.8824H153.412V67ZM154.294 67H155.176V67.8824H154.294V67ZM154.294 66.1176H155.176V67H154.294V66.1176ZM153.412 66.1176H154.294V67H153.412V66.1176ZM155.176 66.1176H156.059V67H155.176V66.1176ZM156.059 66.1176H156.941V67H156.059V66.1176ZM156.941 66.1176H157.824V67H156.941V66.1176ZM157.824 66.1176H158.706V67H157.824V66.1176ZM154.294 65.2353H155.176V66.1176H154.294V65.2353ZM155.176 65.2353H156.059V66.1176H155.176V65.2353ZM156.059 65.2353H156.941V66.1176H156.059V65.2353ZM156.941 65.2353H157.824V66.1176H156.941V65.2353ZM155.176 64.3529H156.059V65.2353H155.176V64.3529ZM156.059 64.3529H156.941V65.2353H156.059V64.3529ZM160.471 68.7647H161.353V69.6471H160.471V68.7647ZM149.882 68.7647H150.765V69.6471H149.882V68.7647ZM150.765 67.8824H151.647V68.7647H150.765V67.8824ZM151.647 67H152.529V67.8824H151.647V67ZM152.529 66.1176H153.412V67H152.529V66.1176ZM153.412 65.2353H154.294V66.1176H153.412V65.2353ZM154.294 64.3529H155.176V65.2353H154.294V64.3529ZM157.824 70.5294H158.706V71.4118H157.824V70.5294ZM157.824 71.4118H158.706V72.2941H157.824V71.4118ZM157.824 72.2941H158.706V73.1765H157.824V72.2941ZM157.824 73.1765H158.706V74.0588H157.824V73.1765ZM157.824 77.5882H158.706V78.4706H157.824V77.5882ZM157.824 78.4706H158.706V79.3529H157.824V78.4706ZM157.824 79.3529H158.706V80.2353H157.824V79.3529ZM157.824 80.2353H158.706V81.1176H157.824V80.2353ZM157.824 81.1176H158.706V82H157.824V81.1176ZM164.003 64.3529H164.886V65.2353H164.003V64.3529ZM164.003 65.2353H164.886V66.1176H164.003V65.2353ZM164.003 66.1176H164.886V67H164.003V66.1176ZM164.003 67H164.886V67.8824H164.003V67ZM164.886 67.8824H165.768V68.7647H164.886V67.8824ZM164.886 68.7647H165.768V69.6471H164.886V68.7647ZM164.886 69.6471H165.768V70.5294H164.886V69.6471ZM164.886 70.5294H165.768V71.4118H164.886V70.5294ZM164.886 71.4118H165.768V72.2941H164.886V71.4118ZM164.886 72.2941H165.768V73.1765H164.886V72.2941ZM164.886 73.1765H165.768V74.0588H164.886V73.1765ZM164.003 73.1765H164.886V74.0588H164.003V73.1765ZM164.003 72.2941H164.886V73.1765H164.003V72.2941ZM164.003 71.4118H164.886V72.2941H164.003V71.4118ZM164.003 70.5294H164.886V71.4118H164.003V70.5294ZM164.003 69.6471H164.886V70.5294H164.003V69.6471ZM164.003 68.7647H164.886V69.6471H164.003V68.7647ZM164.003 67.8824H164.886V68.7647H164.003V67.8824ZM164.003 78.4706H164.886V79.3529H164.003V78.4706ZM164.003 77.5882H164.886V78.4706H164.003V77.5882ZM164.003 76.7059H164.886V77.5882H164.003V76.7059ZM164.003 75.8235H164.886V76.7059H164.003V75.8235ZM164.886 74.9412H165.768V75.8235H164.886V74.9412ZM164.886 74.0588H165.768V74.9412H164.886V74.0588ZM164.003 74.0588H164.886V74.9412H164.003V74.0588ZM164.003 74.9412H164.886V75.8235H164.003V74.9412ZM164.003 79.3529H164.886V80.2353H164.003V79.3529ZM164.003 80.2353H164.886V81.1176H164.003V80.2353ZM164.003 81.1176H164.886V82H164.003V81.1176ZM164.886 64.3529H165.768V65.2353H164.886V64.3529ZM165.768 64.3529H166.651V65.2353H165.768V64.3529ZM166.651 64.3529H167.533V65.2353H166.651V64.3529ZM166.651 65.2353H167.533V66.1176H166.651V65.2353ZM166.651 66.1176H167.533V67H166.651V66.1176ZM166.651 67H167.533V67.8824H166.651V67ZM166.651 67.8824H167.533V68.7647H166.651V67.8824ZM166.651 69.6471H167.533V70.5294H166.651V69.6471ZM166.651 70.5294H167.533V71.4118H166.651V70.5294ZM166.651 71.4118H167.533V72.2941H166.651V71.4118ZM166.651 72.2941H167.533V73.1765H166.651V72.2941ZM166.651 73.1765H167.533V74.0588H166.651V73.1765ZM166.651 74.0588H167.533V74.9412H166.651V74.0588ZM166.651 74.9412H167.533V75.8235H166.651V74.9412ZM166.651 75.8235H167.533V76.7059H166.651V75.8235ZM166.651 76.7059H167.533V77.5882H166.651V76.7059ZM166.651 68.7647H167.533V69.6471H166.651V68.7647ZM166.651 77.5882H167.533V78.4706H166.651V77.5882ZM166.651 78.4706H167.533V79.3529H166.651V78.4706ZM166.651 79.3529H167.533V80.2353H166.651V79.3529ZM166.651 80.2353H167.533V81.1176H166.651V80.2353ZM166.651 81.1176H167.533V82H166.651V81.1176ZM165.768 81.1176H166.651V82H165.768V81.1176ZM164.886 81.1176H165.768V82H164.886V81.1176ZM164.886 80.2353H165.768V81.1176H164.886V80.2353ZM165.768 80.2353H166.651V81.1176H165.768V80.2353ZM165.768 79.3529H166.651V80.2353H165.768V79.3529ZM164.886 78.4706H165.768V79.3529H164.886V78.4706ZM164.886 77.5882H165.768V78.4706H164.886V77.5882ZM164.886 76.7059H165.768V77.5882H164.886V76.7059ZM165.768 76.7059H166.651V77.5882H165.768V76.7059ZM165.768 77.5882H166.651V78.4706H165.768V77.5882ZM165.768 78.4706H166.651V79.3529H165.768V78.4706ZM164.886 79.3529H165.768V80.2353H164.886V79.3529ZM165.768 75.8235H166.651V76.7059H165.768V75.8235ZM165.768 74.9412H166.651V75.8235H165.768V74.9412ZM165.768 74.0588H166.651V74.9412H165.768V74.0588ZM164.886 75.8235H165.768V76.7059H164.886V75.8235ZM165.768 73.1765H166.651V74.0588H165.768V73.1765ZM165.768 72.2941H166.651V73.1765H165.768V72.2941ZM165.768 71.4118H166.651V72.2941H165.768V71.4118ZM165.768 70.5294H166.651V71.4118H165.768V70.5294ZM165.768 69.6471H166.651V70.5294H165.768V69.6471ZM165.768 68.7647H166.651V69.6471H165.768V68.7647ZM165.768 67.8824H166.651V68.7647H165.768V67.8824ZM165.768 67H166.651V67.8824H165.768V67ZM165.768 66.1176H166.651V67H165.768V66.1176ZM165.768 65.2353H166.651V66.1176H165.768V65.2353ZM164.886 65.2353H165.768V66.1176H164.886V65.2353ZM164.886 66.1176H165.768V67H164.886V66.1176ZM164.886 67H165.768V67.8824H164.886V67ZM180.773 68.7647H181.656V69.6471H180.773V68.7647ZM179.891 68.7647H180.773V69.6471H179.891V68.7647ZM179.009 68.7647H179.891V69.6471H179.009V68.7647ZM178.126 68.7647H179.009V69.6471H178.126V68.7647ZM177.244 69.6471H178.126V70.5294H177.244V69.6471ZM177.244 70.5294H178.126V71.4118H177.244V70.5294ZM178.126 70.5294H179.009V71.4118H178.126V70.5294ZM179.009 70.5294H179.891V71.4118H179.009V70.5294ZM179.009 69.6471H179.891V70.5294H179.009V69.6471ZM178.126 69.6471H179.009V70.5294H178.126V69.6471ZM176.362 69.6471H177.244V70.5294H176.362V69.6471ZM176.362 68.7647H177.244V69.6471H176.362V68.7647ZM175.479 68.7647H176.362V69.6471H175.479V68.7647ZM174.597 68.7647H175.479V69.6471H174.597V68.7647ZM173.714 68.7647H174.597V69.6471H173.714V68.7647ZM172.832 68.7647H173.714V69.6471H172.832V68.7647ZM172.832 69.6471H173.714V70.5294H172.832V69.6471ZM172.832 70.5294H173.714V71.4118H172.832V70.5294ZM173.714 70.5294H174.597V71.4118H173.714V70.5294ZM174.597 70.5294H175.479V71.4118H174.597V70.5294ZM175.479 70.5294H176.362V71.4118H175.479V70.5294ZM176.362 70.5294H177.244V71.4118H176.362V70.5294ZM179.891 69.6471H180.773V70.5294H179.891V69.6471ZM180.773 69.6471H181.656V70.5294H180.773V69.6471ZM180.773 70.5294H181.656V71.4118H180.773V70.5294ZM179.891 70.5294H180.773V71.4118H179.891V70.5294ZM175.479 69.6471H176.362V70.5294H175.479V69.6471ZM174.597 69.6471H175.479V70.5294H174.597V69.6471ZM173.714 69.6471H174.597V70.5294H173.714V69.6471ZM171.95 69.6471H172.832V70.5294H171.95V69.6471ZM171.95 70.5294H172.832V71.4118H171.95V70.5294ZM171.067 70.5294H171.95V71.4118H171.067V70.5294ZM171.067 69.6471H171.95V70.5294H171.067V69.6471ZM173.714 71.4118H174.597V72.2941H173.714V71.4118ZM172.832 71.4118H173.714V72.2941H172.832V71.4118ZM171.95 71.4118H172.832V72.2941H171.95V71.4118ZM171.067 71.4118H171.95V72.2941H171.067V71.4118ZM170.185 71.4118H171.067V72.2941H170.185V71.4118ZM170.185 72.2941H171.067V73.1765H170.185V72.2941ZM170.185 73.1765H171.067V74.0588H170.185V73.1765ZM170.185 74.0588H171.067V74.9412H170.185V74.0588ZM171.067 74.0588H171.95V74.9412H171.067V74.0588ZM171.067 74.9412H171.95V75.8235H171.067V74.9412ZM171.95 74.9412H172.832V75.8235H171.95V74.9412ZM171.95 74.0588H172.832V74.9412H171.95V74.0588ZM172.832 74.0588H173.714V74.9412H172.832V74.0588ZM172.832 73.1765H173.714V74.0588H172.832V73.1765ZM172.832 72.2941H173.714V73.1765H172.832V72.2941ZM171.95 72.2941H172.832V73.1765H171.95V72.2941ZM171.067 72.2941H171.95V73.1765H171.067V72.2941ZM171.067 73.1765H171.95V74.0588H171.067V73.1765ZM171.95 73.1765H172.832V74.0588H171.95V73.1765ZM178.126 71.4118H179.009V72.2941H178.126V71.4118ZM179.009 71.4118H179.891V72.2941H179.009V71.4118ZM179.891 71.4118H180.773V72.2941H179.891V71.4118ZM179.891 72.2941H180.773V73.1765H179.891V72.2941ZM180.773 72.2941H181.656V73.1765H180.773V72.2941ZM180.773 71.4118H181.656V72.2941H180.773V71.4118ZM180.773 73.1765H181.656V74.0588H180.773V73.1765ZM179.891 73.1765H180.773V74.0588H179.891V73.1765ZM179.009 73.1765H179.891V74.0588H179.009V73.1765ZM179.009 72.2941H179.891V73.1765H179.009V72.2941ZM178.126 72.2941H179.009V73.1765H178.126V72.2941ZM178.126 73.1765H179.009V74.0588H178.126V73.1765ZM178.126 74.0588H179.009V74.9412H178.126V74.0588ZM179.009 74.0588H179.891V74.9412H179.009V74.0588ZM179.891 74.0588H180.773V74.9412H179.891V74.0588ZM180.773 74.0588H181.656V74.9412H180.773V74.0588ZM179.891 74.9412H180.773V75.8235H179.891V74.9412ZM179.009 74.9412H179.891V75.8235H179.009V74.9412ZM178.126 74.9412H179.009V75.8235H178.126V74.9412ZM178.126 75.8235H179.009V76.7059H178.126V75.8235ZM179.009 75.8235H179.891V76.7059H179.009V75.8235ZM179.891 75.8235H180.773V76.7059H179.891V75.8235ZM180.773 74.9412H181.656V75.8235H180.773V74.9412ZM180.773 75.8235H181.656V76.7059H180.773V75.8235ZM180.773 76.7059H181.656V77.5882H180.773V76.7059ZM180.773 77.5882H181.656V78.4706H180.773V77.5882ZM180.773 78.4706H181.656V79.3529H180.773V78.4706ZM180.773 79.3529H181.656V80.2353H180.773V79.3529ZM179.891 79.3529H180.773V80.2353H179.891V79.3529ZM179.891 80.2353H180.773V81.1176H179.891V80.2353ZM179.009 80.2353H179.891V81.1176H179.009V80.2353ZM178.126 79.3529H179.009V80.2353H178.126V79.3529ZM178.126 78.4706H179.009V79.3529H178.126V78.4706ZM178.126 77.5882H179.009V78.4706H178.126V77.5882ZM178.126 76.7059H179.009V77.5882H178.126V76.7059ZM179.009 76.7059H179.891V77.5882H179.009V76.7059ZM179.891 76.7059H180.773V77.5882H179.891V76.7059ZM179.891 77.5882H180.773V78.4706H179.891V77.5882ZM179.891 78.4706H180.773V79.3529H179.891V78.4706ZM179.009 79.3529H179.891V80.2353H179.009V79.3529ZM179.009 78.4706H179.891V79.3529H179.009V78.4706ZM179.009 77.5882H179.891V78.4706H179.009V77.5882ZM177.244 78.4706H178.126V79.3529H177.244V78.4706ZM177.244 79.3529H178.126V80.2353H177.244V79.3529ZM176.362 79.3529H177.244V80.2353H176.362V79.3529ZM176.362 80.2353H177.244V81.1176H176.362V80.2353ZM175.479 80.2353H176.362V81.1176H175.479V80.2353ZM174.597 80.2353H175.479V81.1176H174.597V80.2353ZM173.714 80.2353H174.597V81.1176H173.714V80.2353ZM172.832 80.2353H173.714V81.1176H172.832V80.2353ZM172.832 79.3529H173.714V80.2353H172.832V79.3529ZM173.714 79.3529H174.597V80.2353H173.714V79.3529ZM174.597 78.4706H175.479V79.3529H174.597V78.4706ZM175.479 78.4706H176.362V79.3529H175.479V78.4706ZM176.362 78.4706H177.244V79.3529H176.362V78.4706ZM174.597 79.3529H175.479V80.2353H174.597V79.3529ZM175.479 79.3529H176.362V80.2353H175.479V79.3529ZM178.126 80.2353H179.009V81.1176H178.126V80.2353ZM172.832 78.4706H173.714V79.3529H172.832V78.4706ZM172.832 77.5882H173.714V78.4706H172.832V77.5882ZM173.714 77.5882H174.597V78.4706H173.714V77.5882ZM173.714 78.4706H174.597V79.3529H173.714V78.4706ZM171.95 78.4706H172.832V79.3529H171.95V78.4706ZM171.95 79.3529H172.832V80.2353H171.95V79.3529ZM171.067 79.3529H171.95V80.2353H171.067V79.3529ZM171.067 78.4706H171.95V79.3529H171.067V78.4706ZM171.067 77.5882H171.95V78.4706H171.067V77.5882ZM171.067 76.7059H171.95V77.5882H171.067V76.7059ZM170.185 76.7059H171.067V77.5882H170.185V76.7059ZM170.185 77.5882H171.067V78.4706H170.185V77.5882ZM170.185 75.8235H171.067V76.7059H170.185V75.8235ZM170.185 74.9412H171.067V75.8235H170.185V74.9412ZM172.832 74.9412H173.714V75.8235H172.832V74.9412ZM172.832 75.8235H173.714V76.7059H172.832V75.8235ZM172.832 76.7059H173.714V77.5882H172.832V76.7059ZM171.95 77.5882H172.832V78.4706H171.95V77.5882ZM171.95 76.7059H172.832V77.5882H171.95V76.7059ZM171.95 75.8235H172.832V76.7059H171.95V75.8235ZM171.067 75.8235H171.95V76.7059H171.067V75.8235ZM180.773 80.2353H181.656V81.1176H180.773V80.2353ZM180.773 81.1176H181.656V82H180.773V81.1176ZM180.773 82H181.656V82.8824H180.773V82ZM180.773 82.8824H181.656V83.7647H180.773V82.8824ZM179.891 82.8824H180.773V83.7647H179.891V82.8824ZM179.009 82.8824H179.891V83.7647H179.009V82.8824ZM179.009 82H179.891V82.8824H179.009V82ZM179.009 81.1176H179.891V82H179.009V81.1176ZM179.891 81.1176H180.773V82H179.891V81.1176ZM179.891 82H180.773V82.8824H179.891V82ZM178.126 81.1176H179.009V82H178.126V81.1176ZM178.126 82H179.009V82.8824H178.126V82ZM178.126 82.8824H179.009V83.7647H178.126V82.8824ZM178.126 83.7647H179.009V84.6471H178.126V83.7647ZM177.244 82.8824H178.126V83.7647H177.244V82.8824ZM177.244 83.7647H178.126V84.6471H177.244V83.7647ZM179.009 83.7647H179.891V84.6471H179.009V83.7647ZM179.891 83.7647H180.773V84.6471H179.891V83.7647ZM179.891 84.6471H180.773V85.5294H179.891V84.6471ZM179.009 84.6471H179.891V85.5294H179.009V84.6471ZM178.126 84.6471H179.009V85.5294H178.126V84.6471ZM170.185 82H171.067V82.8824H170.185V82ZM171.067 82H171.95V82.8824H171.067V82ZM171.95 82H172.832V82.8824H171.95V82ZM172.832 82H173.714V82.8824H172.832V82ZM172.832 82.8824H173.714V83.7647H172.832V82.8824ZM171.95 82.8824H172.832V83.7647H171.95V82.8824ZM171.067 82.8824H171.95V83.7647H171.067V82.8824ZM170.185 82.8824H171.067V83.7647H170.185V82.8824ZM172.832 83.7647H173.714V84.6471H172.832V83.7647ZM173.714 83.7647H174.597V84.6471H173.714V83.7647ZM171.95 83.7647H172.832V84.6471H171.95V83.7647ZM173.714 82.8824H174.597V83.7647H173.714V82.8824ZM171.067 83.7647H171.95V84.6471H171.067V83.7647ZM171.067 84.6471H171.95V85.5294H171.067V84.6471ZM171.95 84.6471H172.832V85.5294H171.95V84.6471ZM172.832 84.6471H173.714V85.5294H172.832V84.6471ZM173.714 84.6471H174.597V85.5294H173.714V84.6471ZM174.597 84.6471H175.479V85.5294H174.597V84.6471ZM175.479 84.6471H176.362V85.5294H175.479V84.6471ZM176.362 84.6471H177.244V85.5294H176.362V84.6471ZM177.244 84.6471H178.126V85.5294H177.244V84.6471ZM176.362 83.7647H177.244V84.6471H176.362V83.7647ZM175.479 83.7647H176.362V84.6471H175.479V83.7647ZM174.597 83.7647H175.479V84.6471H174.597V83.7647ZM173.714 85.5294H174.597V86.4118H173.714V85.5294ZM172.832 85.5294H173.714V86.4118H172.832V85.5294ZM174.597 85.5294H175.479V86.4118H174.597V85.5294ZM175.479 85.5294H176.362V86.4118H175.479V85.5294ZM176.362 85.5294H177.244V86.4118H176.362V85.5294ZM177.244 85.5294H178.126V86.4118H177.244V85.5294ZM178.126 85.5294H179.009V86.4118H178.126V85.5294ZM177.244 68.7647H178.126V69.6471H177.244V68.7647ZM177.244 77.5882H178.126V78.4706H177.244V77.5882ZM187.836 68.7647H188.718V69.6471H187.836V68.7647ZM188.718 68.7647H189.6V69.6471H188.718V68.7647ZM186.953 68.7647H187.836V69.6471H186.953V68.7647ZM189.6 68.7647H190.483V69.6471H189.6V68.7647ZM190.483 68.7647H191.365V69.6471H190.483V68.7647ZM191.365 68.7647H192.247V69.6471H191.365V68.7647ZM192.247 68.7647H193.13V69.6471H192.247V68.7647ZM193.13 69.6471H194.012V70.5294H193.13V69.6471ZM192.247 69.6471H193.13V70.5294H192.247V69.6471ZM192.247 70.5294H193.13V71.4118H192.247V70.5294ZM194.012 69.6471H194.894V70.5294H194.012V69.6471ZM194.012 70.5294H194.894V71.4118H194.012V70.5294ZM193.13 70.5294H194.012V71.4118H193.13V70.5294ZM192.247 71.4118H193.13V72.2941H192.247V71.4118ZM191.365 71.4118H192.247V72.2941H191.365V71.4118ZM193.13 71.4118H194.012V72.2941H193.13V71.4118ZM194.012 71.4118H194.894V72.2941H194.012V71.4118ZM194.894 71.4118H195.777V72.2941H194.894V71.4118ZM194.894 72.2941H195.777V73.1765H194.894V72.2941ZM194.894 73.1765H195.777V74.0588H194.894V73.1765ZM194.894 74.0588H195.777V74.9412H194.894V74.0588ZM194.894 74.9412H195.777V75.8235H194.894V74.9412ZM194.894 75.8235H195.777V76.7059H194.894V75.8235ZM194.894 76.7059H195.777V77.5882H194.894V76.7059ZM194.894 77.5882H195.777V78.4706H194.894V77.5882ZM194.894 78.4706H195.777V79.3529H194.894V78.4706ZM194.012 78.4706H194.894V79.3529H194.012V78.4706ZM194.012 79.3529H194.894V80.2353H194.012V79.3529ZM194.012 80.2353H194.894V81.1176H194.012V80.2353ZM193.13 80.2353H194.012V81.1176H193.13V80.2353ZM192.247 80.2353H193.13V81.1176H192.247V80.2353ZM191.365 79.3529H192.247V80.2353H191.365V79.3529ZM191.365 78.4706H192.247V79.3529H191.365V78.4706ZM192.247 78.4706H193.13V79.3529H192.247V78.4706ZM192.247 79.3529H193.13V80.2353H192.247V79.3529ZM193.13 79.3529H194.012V80.2353H193.13V79.3529ZM193.13 78.4706H194.012V79.3529H193.13V78.4706ZM193.13 77.5882H194.012V78.4706H193.13V77.5882ZM192.247 77.5882H193.13V78.4706H192.247V77.5882ZM192.247 76.7059H193.13V77.5882H192.247V76.7059ZM192.247 75.8235H193.13V76.7059H192.247V75.8235ZM192.247 74.9412H193.13V75.8235H192.247V74.9412ZM192.247 74.0588H193.13V74.9412H192.247V74.0588ZM192.247 73.1765H193.13V74.0588H192.247V73.1765ZM192.247 72.2941H193.13V73.1765H192.247V72.2941ZM193.13 72.2941H194.012V73.1765H193.13V72.2941ZM193.13 73.1765H194.012V74.0588H193.13V73.1765ZM193.13 74.0588H194.012V74.9412H193.13V74.0588ZM193.13 74.9412H194.012V75.8235H193.13V74.9412ZM193.13 75.8235H194.012V76.7059H193.13V75.8235ZM193.13 76.7059H194.012V77.5882H193.13V76.7059ZM194.012 77.5882H194.894V78.4706H194.012V77.5882ZM194.012 76.7059H194.894V77.5882H194.012V76.7059ZM194.012 75.8235H194.894V76.7059H194.012V75.8235ZM194.012 74.9412H194.894V75.8235H194.012V74.9412ZM194.012 74.0588H194.894V74.9412H194.012V74.0588ZM194.012 73.1765H194.894V74.0588H194.012V73.1765ZM194.012 72.2941H194.894V73.1765H194.012V72.2941ZM191.365 80.2353H192.247V81.1176H191.365V80.2353ZM191.365 81.1176H192.247V82H191.365V81.1176ZM192.247 81.1176H193.13V82H192.247V81.1176ZM190.483 81.1176H191.365V82H190.483V81.1176ZM189.6 81.1176H190.483V82H189.6V81.1176ZM188.718 81.1176H189.6V82H188.718V81.1176ZM187.836 81.1176H188.718V82H187.836V81.1176ZM186.953 81.1176H187.836V82H186.953V81.1176ZM186.953 80.2353H187.836V81.1176H186.953V80.2353ZM186.071 80.2353H186.953V81.1176H186.071V80.2353ZM185.189 80.2353H186.071V81.1176H185.189V80.2353ZM185.189 79.3529H186.071V80.2353H185.189V79.3529ZM184.306 78.4706H185.189V79.3529H184.306V78.4706ZM185.189 78.4706H186.071V79.3529H185.189V78.4706ZM184.306 77.5882H185.189V78.4706H184.306V77.5882ZM184.306 76.7059H185.189V77.5882H184.306V76.7059ZM184.306 75.8235H185.189V76.7059H184.306V75.8235ZM184.306 74.9412H185.189V75.8235H184.306V74.9412ZM184.306 74.0588H185.189V74.9412H184.306V74.0588ZM184.306 73.1765H185.189V74.0588H184.306V73.1765ZM185.189 73.1765H186.071V74.0588H185.189V73.1765ZM185.189 72.2941H186.071V73.1765H185.189V72.2941ZM184.306 72.2941H185.189V73.1765H184.306V72.2941ZM184.306 71.4118H185.189V72.2941H184.306V71.4118ZM185.189 71.4118H186.071V72.2941H185.189V71.4118ZM185.189 70.5294H186.071V71.4118H185.189V70.5294ZM185.189 69.6471H186.071V70.5294H185.189V69.6471ZM186.071 69.6471H186.953V70.5294H186.071V69.6471ZM186.953 69.6471H187.836V70.5294H186.953V69.6471ZM187.836 69.6471H188.718V70.5294H187.836V69.6471ZM187.836 70.5294H188.718V71.4118H187.836V70.5294ZM187.836 71.4118H188.718V72.2941H187.836V71.4118ZM186.953 71.4118H187.836V72.2941H186.953V71.4118ZM186.071 71.4118H186.953V72.2941H186.071V71.4118ZM186.953 72.2941H187.836V73.1765H186.953V72.2941ZM186.953 73.1765H187.836V74.0588H186.953V73.1765ZM186.953 74.0588H187.836V74.9412H186.953V74.0588ZM186.953 74.9412H187.836V75.8235H186.953V74.9412ZM186.953 75.8235H187.836V76.7059H186.953V75.8235ZM186.953 76.7059H187.836V77.5882H186.953V76.7059ZM186.953 77.5882H187.836V78.4706H186.953V77.5882ZM186.953 78.4706H187.836V79.3529H186.953V78.4706ZM187.836 78.4706H188.718V79.3529H187.836V78.4706ZM187.836 79.3529H188.718V80.2353H187.836V79.3529ZM188.718 79.3529H189.6V80.2353H188.718V79.3529ZM189.6 79.3529H190.483V80.2353H189.6V79.3529ZM190.483 79.3529H191.365V80.2353H190.483V79.3529ZM190.483 80.2353H191.365V81.1176H190.483V80.2353ZM189.6 80.2353H190.483V81.1176H189.6V80.2353ZM188.718 80.2353H189.6V81.1176H188.718V80.2353ZM187.836 80.2353H188.718V81.1176H187.836V80.2353ZM186.953 79.3529H187.836V80.2353H186.953V79.3529ZM186.071 79.3529H186.953V80.2353H186.071V79.3529ZM186.071 78.4706H186.953V79.3529H186.071V78.4706ZM186.071 77.5882H186.953V78.4706H186.071V77.5882ZM186.071 76.7059H186.953V77.5882H186.071V76.7059ZM185.189 76.7059H186.071V77.5882H185.189V76.7059ZM185.189 77.5882H186.071V78.4706H185.189V77.5882ZM185.189 75.8235H186.071V76.7059H185.189V75.8235ZM185.189 74.9412H186.071V75.8235H185.189V74.9412ZM185.189 74.0588H186.071V74.9412H185.189V74.0588ZM186.071 74.0588H186.953V74.9412H186.071V74.0588ZM186.071 74.9412H186.953V75.8235H186.071V74.9412ZM186.071 75.8235H186.953V76.7059H186.071V75.8235ZM186.071 73.1765H186.953V74.0588H186.071V73.1765ZM186.071 72.2941H186.953V73.1765H186.071V72.2941ZM186.071 70.5294H186.953V71.4118H186.071V70.5294ZM186.953 70.5294H187.836V71.4118H186.953V70.5294ZM188.718 69.6471H189.6V70.5294H188.718V69.6471ZM189.6 69.6471H190.483V70.5294H189.6V69.6471ZM190.483 69.6471H191.365V70.5294H190.483V69.6471ZM191.365 69.6471H192.247V70.5294H191.365V69.6471ZM191.365 70.5294H192.247V71.4118H191.365V70.5294ZM190.483 70.5294H191.365V71.4118H190.483V70.5294ZM189.6 70.5294H190.483V71.4118H189.6V70.5294ZM188.718 70.5294H189.6V71.4118H188.718V70.5294ZM198.427 68.7647H199.31V69.6471H198.427V68.7647ZM199.31 68.7647H200.192V69.6471H199.31V68.7647ZM200.192 68.7647H201.074V69.6471H200.192V68.7647ZM198.427 70.5294H199.31V71.4118H198.427V70.5294ZM198.427 69.6471H199.31V70.5294H198.427V69.6471ZM200.192 81.1176H201.074V82H200.192V81.1176ZM199.31 81.1176H200.192V82H199.31V81.1176ZM198.427 80.2353H199.31V81.1176H198.427V80.2353ZM198.427 79.3529H199.31V80.2353H198.427V79.3529ZM198.427 81.1176H199.31V82H198.427V81.1176ZM202.839 68.7647H203.721V69.6471H202.839V68.7647ZM201.074 68.7647H201.957V69.6471H201.074V68.7647ZM203.721 68.7647H204.604V69.6471H203.721V68.7647ZM204.604 68.7647H205.486V69.6471H204.604V68.7647ZM205.486 68.7647H206.368V69.6471H205.486V68.7647ZM206.368 69.6471H207.251V70.5294H206.368V69.6471ZM206.368 70.5294H207.251V71.4118H206.368V70.5294ZM207.251 70.5294H208.133V71.4118H207.251V70.5294ZM206.368 71.4118H207.251V72.2941H206.368V71.4118ZM205.486 71.4118H206.368V72.2941H205.486V71.4118ZM201.074 81.1176H201.957V82H201.074V81.1176ZM201.074 80.2353H201.957V81.1176H201.074V80.2353ZM200.192 80.2353H201.074V81.1176H200.192V80.2353ZM199.31 80.2353H200.192V81.1176H199.31V80.2353ZM199.31 73.1765H200.192V74.0588H199.31V73.1765ZM199.31 72.2941H200.192V73.1765H199.31V72.2941ZM198.427 71.4118H199.31V72.2941H198.427V71.4118ZM199.31 70.5294H200.192V71.4118H199.31V70.5294ZM200.192 69.6471H201.074V70.5294H200.192V69.6471ZM201.074 69.6471H201.957V70.5294H201.074V69.6471ZM201.957 69.6471H202.839V70.5294H201.957V69.6471ZM201.957 70.5294H202.839V71.4118H201.957V70.5294ZM201.957 71.4118H202.839V72.2941H201.957V71.4118ZM201.074 71.4118H201.957V72.2941H201.074V71.4118ZM200.192 71.4118H201.074V72.2941H200.192V71.4118ZM201.074 72.2941H201.957V73.1765H201.074V72.2941ZM201.074 73.1765H201.957V74.0588H201.074V73.1765ZM201.074 74.0588H201.957V74.9412H201.074V74.0588ZM201.074 79.3529H201.957V80.2353H201.074V79.3529ZM200.192 79.3529H201.074V80.2353H200.192V79.3529ZM200.192 73.1765H201.074V74.0588H200.192V73.1765ZM200.192 72.2941H201.074V73.1765H200.192V72.2941ZM200.192 70.5294H201.074V71.4118H200.192V70.5294ZM201.074 70.5294H201.957V71.4118H201.074V70.5294ZM202.839 69.6471H203.721V70.5294H202.839V69.6471ZM203.721 69.6471H204.604V70.5294H203.721V69.6471ZM204.604 69.6471H205.486V70.5294H204.604V69.6471ZM205.486 69.6471H206.368V70.5294H205.486V69.6471ZM205.486 70.5294H206.368V71.4118H205.486V70.5294ZM204.604 70.5294H205.486V71.4118H204.604V70.5294ZM203.721 70.5294H204.604V71.4118H203.721V70.5294ZM202.839 70.5294H203.721V71.4118H202.839V70.5294ZM199.31 69.6471H200.192V70.5294H199.31V69.6471ZM199.31 79.3529H200.192V80.2353H199.31V79.3529ZM199.31 71.4118H200.192V72.2941H199.31V71.4118ZM198.427 72.2941H199.31V73.1765H198.427V72.2941ZM198.427 73.1765H199.31V74.0588H198.427V73.1765ZM198.427 78.4706H199.31V79.3529H198.427V78.4706ZM199.31 78.4706H200.192V79.3529H199.31V78.4706ZM200.192 78.4706H201.074V79.3529H200.192V78.4706ZM201.074 78.4706H201.957V79.3529H201.074V78.4706ZM200.192 74.0588H201.074V74.9412H200.192V74.0588ZM199.31 74.0588H200.192V74.9412H199.31V74.0588ZM198.427 74.0588H199.31V74.9412H198.427V74.0588ZM198.427 74.9412H199.31V75.8235H198.427V74.9412ZM198.427 75.8235H199.31V76.7059H198.427V75.8235ZM198.427 76.7059H199.31V77.5882H198.427V76.7059ZM199.31 76.7059H200.192V77.5882H199.31V76.7059ZM199.31 77.5882H200.192V78.4706H199.31V77.5882ZM200.192 77.5882H201.074V78.4706H200.192V77.5882ZM198.427 77.5882H199.31V78.4706H198.427V77.5882ZM201.074 77.5882H201.957V78.4706H201.074V77.5882ZM201.074 76.7059H201.957V77.5882H201.074V76.7059ZM201.074 75.8235H201.957V76.7059H201.074V75.8235ZM201.074 74.9412H201.957V75.8235H201.074V74.9412ZM200.192 74.9412H201.074V75.8235H200.192V74.9412ZM199.31 74.9412H200.192V75.8235H199.31V74.9412ZM199.31 75.8235H200.192V76.7059H199.31V75.8235ZM200.192 76.7059H201.074V77.5882H200.192V76.7059ZM200.192 75.8235H201.074V76.7059H200.192V75.8235ZM204.604 71.4118H205.486V72.2941H204.604V71.4118ZM205.486 72.2941H206.368V73.1765H205.486V72.2941ZM209.886 69.6471H210.768V70.5294H209.886V69.6471ZM209.886 70.5294H210.768V71.4118H209.886V70.5294ZM209.886 71.4118H210.768V72.2941H209.886V71.4118ZM209.886 72.2941H210.768V73.1765H209.886V72.2941ZM209.886 73.1765H210.768V74.0588H209.886V73.1765ZM209.003 73.1765H209.886V74.0588H209.003V73.1765ZM209.003 72.2941H209.886V73.1765H209.003V72.2941ZM209.003 71.4118H209.886V72.2941H209.003V71.4118ZM209.003 70.5294H209.886V71.4118H209.003V70.5294ZM209.003 69.6471H209.886V70.5294H209.003V69.6471ZM209.003 78.4706H209.886V79.3529H209.003V78.4706ZM209.003 77.5882H209.886V78.4706H209.003V77.5882ZM209.003 76.7059H209.886V77.5882H209.003V76.7059ZM209.003 75.8235H209.886V76.7059H209.003V75.8235ZM209.886 74.9412H210.768V75.8235H209.886V74.9412ZM209.886 74.0588H210.768V74.9412H209.886V74.0588ZM209.003 74.0588H209.886V74.9412H209.003V74.0588ZM209.003 74.9412H209.886V75.8235H209.003V74.9412ZM209.003 79.3529H209.886V80.2353H209.003V79.3529ZM209.003 80.2353H209.886V81.1176H209.003V80.2353ZM209.003 81.1176H209.886V82H209.003V81.1176ZM211.651 69.6471H212.533V70.5294H211.651V69.6471ZM211.651 70.5294H212.533V71.4118H211.651V70.5294ZM211.651 71.4118H212.533V72.2941H211.651V71.4118ZM211.651 72.2941H212.533V73.1765H211.651V72.2941ZM211.651 73.1765H212.533V74.0588H211.651V73.1765ZM211.651 74.0588H212.533V74.9412H211.651V74.0588ZM211.651 74.9412H212.533V75.8235H211.651V74.9412ZM211.651 75.8235H212.533V76.7059H211.651V75.8235ZM211.651 76.7059H212.533V77.5882H211.651V76.7059ZM211.651 77.5882H212.533V78.4706H211.651V77.5882ZM211.651 78.4706H212.533V79.3529H211.651V78.4706ZM211.651 79.3529H212.533V80.2353H211.651V79.3529ZM211.651 80.2353H212.533V81.1176H211.651V80.2353ZM211.651 81.1176H212.533V82H211.651V81.1176ZM210.768 81.1176H211.651V82H210.768V81.1176ZM209.886 81.1176H210.768V82H209.886V81.1176ZM209.886 80.2353H210.768V81.1176H209.886V80.2353ZM210.768 80.2353H211.651V81.1176H210.768V80.2353ZM210.768 79.3529H211.651V80.2353H210.768V79.3529ZM209.886 78.4706H210.768V79.3529H209.886V78.4706ZM209.886 77.5882H210.768V78.4706H209.886V77.5882ZM209.886 76.7059H210.768V77.5882H209.886V76.7059ZM210.768 76.7059H211.651V77.5882H210.768V76.7059ZM210.768 77.5882H211.651V78.4706H210.768V77.5882ZM210.768 78.4706H211.651V79.3529H210.768V78.4706ZM209.886 79.3529H210.768V80.2353H209.886V79.3529ZM210.768 75.8235H211.651V76.7059H210.768V75.8235ZM210.768 74.9412H211.651V75.8235H210.768V74.9412ZM210.768 74.0588H211.651V74.9412H210.768V74.0588ZM209.886 75.8235H210.768V76.7059H209.886V75.8235ZM210.768 73.1765H211.651V74.0588H210.768V73.1765ZM210.768 72.2941H211.651V73.1765H210.768V72.2941ZM210.768 71.4118H211.651V72.2941H210.768V71.4118ZM210.768 70.5294H211.651V71.4118H210.768V70.5294ZM210.768 69.6471H211.651V70.5294H210.768V69.6471ZM211.651 64.3529H212.533V65.2353H211.651V64.3529ZM210.768 65.2353H211.651V66.1176H210.768V65.2353ZM210.768 63.4706H211.651V64.3529H210.768V63.4706ZM209.886 64.3529H210.768V65.2353H209.886V64.3529ZM210.768 64.3529H211.651V65.2353H210.768V64.3529ZM209.886 63.4706H210.768V64.3529H209.886V63.4706ZM209.886 65.2353H210.768V66.1176H209.886V65.2353ZM211.651 65.2353H212.533V66.1176H211.651V65.2353ZM209.003 64.3529H209.886V65.2353H209.003V64.3529ZM209.003 65.2353H209.886V66.1176H209.003V65.2353ZM209.886 66.1176H210.768V67H209.886V66.1176ZM210.768 66.1176H211.651V67H210.768V66.1176ZM209.003 63.4706H209.886V64.3529H209.003V63.4706ZM211.651 63.4706H212.533V64.3529H211.651V63.4706ZM211.651 66.1176H212.533V67H211.651V66.1176ZM209.003 66.1176H209.886V67H209.003V66.1176ZM215.185 69.6471H216.067V70.5294H215.185V69.6471ZM216.067 69.6471H216.95V70.5294H216.067V69.6471ZM216.95 69.6471H217.832V70.5294H216.95V69.6471ZM217.832 69.6471H218.714V70.5294H217.832V69.6471ZM218.714 69.6471H219.597V70.5294H218.714V69.6471ZM219.597 69.6471H220.479V70.5294H219.597V69.6471ZM220.479 69.6471H221.362V70.5294H220.479V69.6471ZM221.362 69.6471H222.244V70.5294H221.362V69.6471ZM222.244 69.6471H223.126V70.5294H222.244V69.6471ZM222.244 70.5294H223.126V71.4118H222.244V70.5294ZM222.244 71.4118H223.126V72.2941H222.244V71.4118ZM221.362 71.4118H222.244V72.2941H221.362V71.4118ZM220.479 71.4118H221.362V72.2941H220.479V71.4118ZM219.597 71.4118H220.479V72.2941H219.597V71.4118ZM218.714 71.4118H219.597V72.2941H218.714V71.4118ZM217.832 71.4118H218.714V72.2941H217.832V71.4118ZM216.95 71.4118H217.832V72.2941H216.95V71.4118ZM216.067 71.4118H216.95V72.2941H216.067V71.4118ZM216.067 70.5294H216.95V71.4118H216.067V70.5294ZM215.185 70.5294H216.067V71.4118H215.185V70.5294ZM215.185 71.4118H216.067V72.2941H215.185V71.4118ZM216.95 70.5294H217.832V71.4118H216.95V70.5294ZM217.832 70.5294H218.714V71.4118H217.832V70.5294ZM218.714 70.5294H219.597V71.4118H218.714V70.5294ZM219.597 70.5294H220.479V71.4118H219.597V70.5294ZM220.479 70.5294H221.362V71.4118H220.479V70.5294ZM221.362 70.5294H222.244V71.4118H221.362V70.5294ZM216.95 68.7647H217.832V69.6471H216.95V68.7647ZM217.832 68.7647H218.714V69.6471H217.832V68.7647ZM218.714 68.7647H219.597V69.6471H218.714V68.7647ZM219.597 68.7647H220.479V69.6471H219.597V68.7647ZM218.714 67.8824H219.597V68.7647H218.714V67.8824ZM217.832 67.8824H218.714V68.7647H217.832V67.8824ZM219.597 67.8824H220.479V68.7647H219.597V67.8824ZM219.597 66.1176H220.479V67H219.597V66.1176ZM219.597 67H220.479V67.8824H219.597V67ZM218.714 67H219.597V67.8824H218.714V67ZM219.597 65.2353H220.479V66.1176H219.597V65.2353ZM218.714 66.1176H219.597V67H218.714V66.1176ZM217.832 67H218.714V67.8824H217.832V67ZM216.95 67.8824H217.832V68.7647H216.95V67.8824ZM216.95 72.2941H217.832V73.1765H216.95V72.2941ZM216.95 73.1765H217.832V74.0588H216.95V73.1765ZM216.95 74.0588H217.832V74.9412H216.95V74.0588ZM216.95 74.9412H217.832V75.8235H216.95V74.9412ZM217.832 74.9412H218.714V75.8235H217.832V74.9412ZM217.832 75.8235H218.714V76.7059H217.832V75.8235ZM218.714 74.9412H219.597V75.8235H218.714V74.9412ZM218.714 74.0588H219.597V74.9412H218.714V74.0588ZM219.597 74.0588H220.479V74.9412H219.597V74.0588ZM219.597 73.1765H220.479V74.0588H219.597V73.1765ZM218.714 72.2941H219.597V73.1765H218.714V72.2941ZM217.832 72.2941H218.714V73.1765H217.832V72.2941ZM217.832 73.1765H218.714V74.0588H217.832V73.1765ZM217.832 74.0588H218.714V74.9412H217.832V74.0588ZM218.714 73.1765H219.597V74.0588H218.714V73.1765ZM219.597 72.2941H220.479V73.1765H219.597V72.2941ZM219.597 74.9412H220.479V75.8235H219.597V74.9412ZM219.597 75.8235H220.479V76.7059H219.597V75.8235ZM218.714 75.8235H219.597V76.7059H218.714V75.8235ZM218.714 76.7059H219.597V77.5882H218.714V76.7059ZM217.832 76.7059H218.714V77.5882H217.832V76.7059ZM216.95 75.8235H217.832V76.7059H216.95V75.8235ZM216.95 76.7059H217.832V77.5882H216.95V76.7059ZM219.597 76.7059H220.479V77.5882H219.597V76.7059ZM216.95 77.5882H217.832V78.4706H216.95V77.5882ZM217.832 77.5882H218.714V78.4706H217.832V77.5882ZM217.832 78.4706H218.714V79.3529H217.832V78.4706ZM218.714 78.4706H219.597V79.3529H218.714V78.4706ZM219.597 78.4706H220.479V79.3529H219.597V78.4706ZM219.597 77.5882H220.479V78.4706H219.597V77.5882ZM218.714 77.5882H219.597V78.4706H218.714V77.5882ZM216.95 78.4706H217.832V79.3529H216.95V78.4706ZM219.597 79.3529H220.479V80.2353H219.597V79.3529ZM220.479 79.3529H221.362V80.2353H220.479V79.3529ZM220.479 78.4706H221.362V79.3529H220.479V78.4706ZM218.714 79.3529H219.597V80.2353H218.714V79.3529ZM217.832 79.3529H218.714V80.2353H217.832V79.3529ZM217.832 80.2353H218.714V81.1176H217.832V80.2353ZM218.714 80.2353H219.597V81.1176H218.714V80.2353ZM219.597 80.2353H220.479V81.1176H219.597V80.2353ZM220.479 80.2353H221.362V81.1176H220.479V80.2353ZM221.362 80.2353H222.244V81.1176H221.362V80.2353ZM221.362 79.3529H222.244V80.2353H221.362V79.3529ZM222.244 79.3529H223.126V80.2353H222.244V79.3529ZM222.244 80.2353H223.126V81.1176H222.244V80.2353ZM221.362 81.1176H222.244V82H221.362V81.1176ZM220.479 81.1176H221.362V82H220.479V81.1176ZM219.597 81.1176H220.479V82H219.597V81.1176ZM222.244 81.1176H223.126V82H222.244V81.1176ZM225.761 64.3529H226.644V65.2353H225.761V64.3529ZM226.644 64.3529H227.526V65.2353H226.644V64.3529ZM227.526 64.3529H228.408V65.2353H227.526V64.3529ZM228.408 64.3529H229.291V65.2353H228.408V64.3529ZM228.408 65.2353H229.291V66.1176H228.408V65.2353ZM228.408 66.1176H229.291V67H228.408V66.1176ZM227.526 66.1176H228.408V67H227.526V66.1176ZM226.644 66.1176H227.526V67H226.644V66.1176ZM226.644 65.2353H227.526V66.1176H226.644V65.2353ZM225.761 65.2353H226.644V66.1176H225.761V65.2353ZM227.526 65.2353H228.408V66.1176H227.526V65.2353ZM225.761 66.1176H226.644V67H225.761V66.1176ZM225.761 67H226.644V67.8824H225.761V67ZM225.761 67.8824H226.644V68.7647H225.761V67.8824ZM226.644 67.8824H227.526V68.7647H226.644V67.8824ZM227.526 67.8824H228.408V68.7647H227.526V67.8824ZM228.408 67.8824H229.291V68.7647H228.408V67.8824ZM228.408 67H229.291V67.8824H228.408V67ZM227.526 67H228.408V67.8824H227.526V67ZM226.644 67H227.526V67.8824H226.644V67ZM225.761 68.7647H226.644V69.6471H225.761V68.7647ZM226.644 68.7647H227.526V69.6471H226.644V68.7647ZM227.526 68.7647H228.408V69.6471H227.526V68.7647ZM225.761 70.5294H226.644V71.4118H225.761V70.5294ZM225.761 69.6471H226.644V70.5294H225.761V69.6471ZM227.526 81.1176H228.408V82H227.526V81.1176ZM226.644 81.1176H227.526V82H226.644V81.1176ZM225.761 80.2353H226.644V81.1176H225.761V80.2353ZM225.761 79.3529H226.644V80.2353H225.761V79.3529ZM225.761 81.1176H226.644V82H225.761V81.1176ZM230.173 68.7647H231.055V69.6471H230.173V68.7647ZM228.408 68.7647H229.291V69.6471H228.408V68.7647ZM231.055 68.7647H231.938V69.6471H231.055V68.7647ZM231.938 68.7647H232.82V69.6471H231.938V68.7647ZM232.82 68.7647H233.702V69.6471H232.82V68.7647ZM233.702 68.7647H234.585V69.6471H233.702V68.7647ZM234.585 69.6471H235.467V70.5294H234.585V69.6471ZM233.702 69.6471H234.585V70.5294H233.702V69.6471ZM233.702 70.5294H234.585V71.4118H233.702V70.5294ZM235.467 69.6471H236.349V70.5294H235.467V69.6471ZM235.467 70.5294H236.349V71.4118H235.467V70.5294ZM234.585 70.5294H235.467V71.4118H234.585V70.5294ZM233.702 71.4118H234.585V72.2941H233.702V71.4118ZM232.82 71.4118H233.702V72.2941H232.82V71.4118ZM234.585 71.4118H235.467V72.2941H234.585V71.4118ZM235.467 71.4118H236.349V72.2941H235.467V71.4118ZM236.349 71.4118H237.232V72.2941H236.349V71.4118ZM236.349 72.2941H237.232V73.1765H236.349V72.2941ZM236.349 73.1765H237.232V74.0588H236.349V73.1765ZM236.349 74.0588H237.232V74.9412H236.349V74.0588ZM236.349 74.9412H237.232V75.8235H236.349V74.9412ZM236.349 75.8235H237.232V76.7059H236.349V75.8235ZM236.349 76.7059H237.232V77.5882H236.349V76.7059ZM236.349 77.5882H237.232V78.4706H236.349V77.5882ZM236.349 78.4706H237.232V79.3529H236.349V78.4706ZM235.467 78.4706H236.349V79.3529H235.467V78.4706ZM235.467 79.3529H236.349V80.2353H235.467V79.3529ZM235.467 80.2353H236.349V81.1176H235.467V80.2353ZM234.585 80.2353H235.467V81.1176H234.585V80.2353ZM233.702 80.2353H234.585V81.1176H233.702V80.2353ZM233.702 78.4706H234.585V79.3529H233.702V78.4706ZM233.702 79.3529H234.585V80.2353H233.702V79.3529ZM234.585 79.3529H235.467V80.2353H234.585V79.3529ZM234.585 78.4706H235.467V79.3529H234.585V78.4706ZM234.585 77.5882H235.467V78.4706H234.585V77.5882ZM233.702 77.5882H234.585V78.4706H233.702V77.5882ZM233.702 76.7059H234.585V77.5882H233.702V76.7059ZM233.702 75.8235H234.585V76.7059H233.702V75.8235ZM233.702 74.9412H234.585V75.8235H233.702V74.9412ZM233.702 74.0588H234.585V74.9412H233.702V74.0588ZM233.702 73.1765H234.585V74.0588H233.702V73.1765ZM233.702 72.2941H234.585V73.1765H233.702V72.2941ZM234.585 72.2941H235.467V73.1765H234.585V72.2941ZM234.585 73.1765H235.467V74.0588H234.585V73.1765ZM234.585 74.0588H235.467V74.9412H234.585V74.0588ZM234.585 74.9412H235.467V75.8235H234.585V74.9412ZM234.585 75.8235H235.467V76.7059H234.585V75.8235ZM234.585 76.7059H235.467V77.5882H234.585V76.7059ZM235.467 77.5882H236.349V78.4706H235.467V77.5882ZM235.467 76.7059H236.349V77.5882H235.467V76.7059ZM235.467 75.8235H236.349V76.7059H235.467V75.8235ZM235.467 74.9412H236.349V75.8235H235.467V74.9412ZM235.467 74.0588H236.349V74.9412H235.467V74.0588ZM235.467 73.1765H236.349V74.0588H235.467V73.1765ZM235.467 72.2941H236.349V73.1765H235.467V72.2941ZM233.702 81.1176H234.585V82H233.702V81.1176ZM228.408 81.1176H229.291V82H228.408V81.1176ZM228.408 80.2353H229.291V81.1176H228.408V80.2353ZM227.526 80.2353H228.408V81.1176H227.526V80.2353ZM226.644 80.2353H227.526V81.1176H226.644V80.2353ZM226.644 73.1765H227.526V74.0588H226.644V73.1765ZM226.644 72.2941H227.526V73.1765H226.644V72.2941ZM225.761 71.4118H226.644V72.2941H225.761V71.4118ZM226.644 70.5294H227.526V71.4118H226.644V70.5294ZM227.526 69.6471H228.408V70.5294H227.526V69.6471ZM228.408 69.6471H229.291V70.5294H228.408V69.6471ZM229.291 69.6471H230.173V70.5294H229.291V69.6471ZM229.291 70.5294H230.173V71.4118H229.291V70.5294ZM229.291 71.4118H230.173V72.2941H229.291V71.4118ZM228.408 71.4118H229.291V72.2941H228.408V71.4118ZM227.526 71.4118H228.408V72.2941H227.526V71.4118ZM228.408 72.2941H229.291V73.1765H228.408V72.2941ZM228.408 73.1765H229.291V74.0588H228.408V73.1765ZM228.408 74.0588H229.291V74.9412H228.408V74.0588ZM228.408 79.3529H229.291V80.2353H228.408V79.3529ZM227.526 79.3529H228.408V80.2353H227.526V79.3529ZM227.526 73.1765H228.408V74.0588H227.526V73.1765ZM227.526 72.2941H228.408V73.1765H227.526V72.2941ZM227.526 70.5294H228.408V71.4118H227.526V70.5294ZM228.408 70.5294H229.291V71.4118H228.408V70.5294ZM230.173 69.6471H231.055V70.5294H230.173V69.6471ZM231.055 69.6471H231.938V70.5294H231.055V69.6471ZM231.938 69.6471H232.82V70.5294H231.938V69.6471ZM232.82 69.6471H233.702V70.5294H232.82V69.6471ZM232.82 70.5294H233.702V71.4118H232.82V70.5294ZM231.938 70.5294H232.82V71.4118H231.938V70.5294ZM231.055 70.5294H231.938V71.4118H231.055V70.5294ZM230.173 70.5294H231.055V71.4118H230.173V70.5294ZM226.644 69.6471H227.526V70.5294H226.644V69.6471ZM226.644 79.3529H227.526V80.2353H226.644V79.3529ZM226.644 71.4118H227.526V72.2941H226.644V71.4118ZM225.761 72.2941H226.644V73.1765H225.761V72.2941ZM225.761 73.1765H226.644V74.0588H225.761V73.1765ZM225.761 78.4706H226.644V79.3529H225.761V78.4706ZM226.644 78.4706H227.526V79.3529H226.644V78.4706ZM227.526 78.4706H228.408V79.3529H227.526V78.4706ZM228.408 78.4706H229.291V79.3529H228.408V78.4706ZM227.526 74.0588H228.408V74.9412H227.526V74.0588ZM226.644 74.0588H227.526V74.9412H226.644V74.0588ZM225.761 74.0588H226.644V74.9412H225.761V74.0588ZM225.761 74.9412H226.644V75.8235H225.761V74.9412ZM225.761 75.8235H226.644V76.7059H225.761V75.8235ZM225.761 76.7059H226.644V77.5882H225.761V76.7059ZM226.644 76.7059H227.526V77.5882H226.644V76.7059ZM226.644 77.5882H227.526V78.4706H226.644V77.5882ZM227.526 77.5882H228.408V78.4706H227.526V77.5882ZM225.761 77.5882H226.644V78.4706H225.761V77.5882ZM228.408 77.5882H229.291V78.4706H228.408V77.5882ZM228.408 76.7059H229.291V77.5882H228.408V76.7059ZM228.408 75.8235H229.291V76.7059H228.408V75.8235ZM228.408 74.9412H229.291V75.8235H228.408V74.9412ZM227.526 74.9412H228.408V75.8235H227.526V74.9412ZM226.644 74.9412H227.526V75.8235H226.644V74.9412ZM226.644 75.8235H227.526V76.7059H226.644V75.8235ZM227.526 76.7059H228.408V77.5882H227.526V76.7059ZM227.526 75.8235H228.408V76.7059H227.526V75.8235ZM234.585 81.1176H235.467V82H234.585V81.1176ZM235.467 81.1176H236.349V82H235.467V81.1176ZM236.349 81.1176H237.232V82H236.349V81.1176ZM236.349 80.2353H237.232V81.1176H236.349V80.2353ZM236.349 79.3529H237.232V80.2353H236.349V79.3529ZM239.882 68.7647H240.765V69.6471H239.882V68.7647ZM240.765 68.7647H241.647V69.6471H240.765V68.7647ZM241.647 68.7647H242.529V69.6471H241.647V68.7647ZM239.882 70.5294H240.765V71.4118H239.882V70.5294ZM239.882 69.6471H240.765V70.5294H239.882V69.6471ZM241.647 81.1176H242.529V82H241.647V81.1176ZM240.765 81.1176H241.647V82H240.765V81.1176ZM239.882 80.2353H240.765V81.1176H239.882V80.2353ZM239.882 79.3529H240.765V80.2353H239.882V79.3529ZM239.882 81.1176H240.765V82H239.882V81.1176ZM244.294 68.7647H245.176V69.6471H244.294V68.7647ZM242.529 68.7647H243.412V69.6471H242.529V68.7647ZM246.059 68.7647H246.941V69.6471H246.059V68.7647ZM246.941 69.6471H247.824V70.5294H246.941V69.6471ZM246.059 69.6471H246.941V70.5294H246.059V69.6471ZM246.059 70.5294H246.941V71.4118H246.059V70.5294ZM247.824 70.5294H248.706V71.4118H247.824V70.5294ZM246.941 70.5294H247.824V71.4118H246.941V70.5294ZM246.059 71.4118H246.941V72.2941H246.059V71.4118ZM245.176 71.4118H246.059V72.2941H245.176V71.4118ZM246.941 71.4118H247.824V72.2941H246.941V71.4118ZM247.824 71.4118H248.706V72.2941H247.824V71.4118ZM248.706 72.2941H249.588V73.1765H248.706V72.2941ZM248.706 73.1765H249.588V74.0588H248.706V73.1765ZM248.706 74.0588H249.588V74.9412H248.706V74.0588ZM248.706 74.9412H249.588V75.8235H248.706V74.9412ZM248.706 75.8235H249.588V76.7059H248.706V75.8235ZM248.706 76.7059H249.588V77.5882H248.706V76.7059ZM248.706 77.5882H249.588V78.4706H248.706V77.5882ZM248.706 78.4706H249.588V79.3529H248.706V78.4706ZM247.824 78.4706H248.706V79.3529H247.824V78.4706ZM247.824 79.3529H248.706V80.2353H247.824V79.3529ZM247.824 80.2353H248.706V81.1176H247.824V80.2353ZM246.941 80.2353H247.824V81.1176H246.941V80.2353ZM246.059 80.2353H246.941V81.1176H246.059V80.2353ZM246.059 78.4706H246.941V79.3529H246.059V78.4706ZM246.059 79.3529H246.941V80.2353H246.059V79.3529ZM246.941 79.3529H247.824V80.2353H246.941V79.3529ZM246.941 78.4706H247.824V79.3529H246.941V78.4706ZM246.941 77.5882H247.824V78.4706H246.941V77.5882ZM246.059 77.5882H246.941V78.4706H246.059V77.5882ZM246.059 76.7059H246.941V77.5882H246.059V76.7059ZM246.059 75.8235H246.941V76.7059H246.059V75.8235ZM246.059 74.9412H246.941V75.8235H246.059V74.9412ZM246.059 74.0588H246.941V74.9412H246.059V74.0588ZM246.059 73.1765H246.941V74.0588H246.059V73.1765ZM246.059 72.2941H246.941V73.1765H246.059V72.2941ZM246.941 72.2941H247.824V73.1765H246.941V72.2941ZM246.941 73.1765H247.824V74.0588H246.941V73.1765ZM246.941 74.0588H247.824V74.9412H246.941V74.0588ZM246.941 74.9412H247.824V75.8235H246.941V74.9412ZM246.941 75.8235H247.824V76.7059H246.941V75.8235ZM246.941 76.7059H247.824V77.5882H246.941V76.7059ZM247.824 77.5882H248.706V78.4706H247.824V77.5882ZM247.824 76.7059H248.706V77.5882H247.824V76.7059ZM247.824 75.8235H248.706V76.7059H247.824V75.8235ZM247.824 74.9412H248.706V75.8235H247.824V74.9412ZM247.824 74.0588H248.706V74.9412H247.824V74.0588ZM247.824 73.1765H248.706V74.0588H247.824V73.1765ZM247.824 72.2941H248.706V73.1765H247.824V72.2941ZM246.059 81.1176H246.941V82H246.059V81.1176ZM242.529 81.1176H243.412V82H242.529V81.1176ZM242.529 80.2353H243.412V81.1176H242.529V80.2353ZM241.647 80.2353H242.529V81.1176H241.647V80.2353ZM240.765 80.2353H241.647V81.1176H240.765V80.2353ZM240.765 73.1765H241.647V74.0588H240.765V73.1765ZM240.765 72.2941H241.647V73.1765H240.765V72.2941ZM239.882 71.4118H240.765V72.2941H239.882V71.4118ZM240.765 70.5294H241.647V71.4118H240.765V70.5294ZM241.647 69.6471H242.529V70.5294H241.647V69.6471ZM242.529 69.6471H243.412V70.5294H242.529V69.6471ZM243.412 69.6471H244.294V70.5294H243.412V69.6471ZM243.412 70.5294H244.294V71.4118H243.412V70.5294ZM243.412 71.4118H244.294V72.2941H243.412V71.4118ZM242.529 71.4118H243.412V72.2941H242.529V71.4118ZM241.647 71.4118H242.529V72.2941H241.647V71.4118ZM242.529 72.2941H243.412V73.1765H242.529V72.2941ZM242.529 73.1765H243.412V74.0588H242.529V73.1765ZM242.529 74.0588H243.412V74.9412H242.529V74.0588ZM242.529 79.3529H243.412V80.2353H242.529V79.3529ZM241.647 79.3529H242.529V80.2353H241.647V79.3529ZM241.647 73.1765H242.529V74.0588H241.647V73.1765ZM241.647 72.2941H242.529V73.1765H241.647V72.2941ZM241.647 70.5294H242.529V71.4118H241.647V70.5294ZM242.529 70.5294H243.412V71.4118H242.529V70.5294ZM244.294 69.6471H245.176V70.5294H244.294V69.6471ZM245.176 69.6471H246.059V70.5294H245.176V69.6471ZM245.176 70.5294H246.059V71.4118H245.176V70.5294ZM244.294 70.5294H245.176V71.4118H244.294V70.5294ZM240.765 69.6471H241.647V70.5294H240.765V69.6471ZM240.765 79.3529H241.647V80.2353H240.765V79.3529ZM240.765 71.4118H241.647V72.2941H240.765V71.4118ZM239.882 72.2941H240.765V73.1765H239.882V72.2941ZM239.882 73.1765H240.765V74.0588H239.882V73.1765ZM239.882 78.4706H240.765V79.3529H239.882V78.4706ZM240.765 78.4706H241.647V79.3529H240.765V78.4706ZM241.647 78.4706H242.529V79.3529H241.647V78.4706ZM242.529 78.4706H243.412V79.3529H242.529V78.4706ZM241.647 74.0588H242.529V74.9412H241.647V74.0588ZM240.765 74.0588H241.647V74.9412H240.765V74.0588ZM239.882 74.0588H240.765V74.9412H239.882V74.0588ZM239.882 74.9412H240.765V75.8235H239.882V74.9412ZM239.882 75.8235H240.765V76.7059H239.882V75.8235ZM239.882 76.7059H240.765V77.5882H239.882V76.7059ZM240.765 76.7059H241.647V77.5882H240.765V76.7059ZM240.765 77.5882H241.647V78.4706H240.765V77.5882ZM241.647 77.5882H242.529V78.4706H241.647V77.5882ZM239.882 77.5882H240.765V78.4706H239.882V77.5882ZM242.529 77.5882H243.412V78.4706H242.529V77.5882ZM242.529 76.7059H243.412V77.5882H242.529V76.7059ZM242.529 75.8235H243.412V76.7059H242.529V75.8235ZM242.529 74.9412H243.412V75.8235H242.529V74.9412ZM241.647 74.9412H242.529V75.8235H241.647V74.9412ZM240.765 74.9412H241.647V75.8235H240.765V74.9412ZM240.765 75.8235H241.647V76.7059H240.765V75.8235ZM241.647 76.7059H242.529V77.5882H241.647V76.7059ZM241.647 75.8235H242.529V76.7059H241.647V75.8235ZM246.941 81.1176H247.824V82H246.941V81.1176ZM247.824 81.1176H248.706V82H247.824V81.1176ZM248.706 81.1176H249.588V82H248.706V81.1176ZM248.706 80.2353H249.588V81.1176H248.706V80.2353ZM248.706 79.3529H249.588V80.2353H248.706V79.3529ZM249.588 68.7647H250.471V69.6471H249.588V68.7647ZM250.471 68.7647H251.353V69.6471H250.471V68.7647ZM251.353 68.7647H252.235V69.6471H251.353V68.7647ZM252.235 68.7647H253.118V69.6471H252.235V68.7647ZM253.118 69.6471H254V70.5294H253.118V69.6471ZM252.235 69.6471H253.118V70.5294H252.235V69.6471ZM252.235 70.5294H253.118V71.4118H252.235V70.5294ZM254 69.6471H254.882V70.5294H254V69.6471ZM254 70.5294H254.882V71.4118H254V70.5294ZM253.118 70.5294H254V71.4118H253.118V70.5294ZM252.235 71.4118H253.118V72.2941H252.235V71.4118ZM251.353 71.4118H252.235V72.2941H251.353V71.4118ZM253.118 71.4118H254V72.2941H253.118V71.4118ZM254 71.4118H254.882V72.2941H254V71.4118ZM254.882 71.4118H255.765V72.2941H254.882V71.4118ZM254.882 72.2941H255.765V73.1765H254.882V72.2941ZM254.882 73.1765H255.765V74.0588H254.882V73.1765ZM254.882 74.0588H255.765V74.9412H254.882V74.0588ZM254.882 74.9412H255.765V75.8235H254.882V74.9412ZM254.882 75.8235H255.765V76.7059H254.882V75.8235ZM254.882 76.7059H255.765V77.5882H254.882V76.7059ZM254.882 77.5882H255.765V78.4706H254.882V77.5882ZM254.882 78.4706H255.765V79.3529H254.882V78.4706ZM254 78.4706H254.882V79.3529H254V78.4706ZM254 79.3529H254.882V80.2353H254V79.3529ZM254 80.2353H254.882V81.1176H254V80.2353ZM253.118 80.2353H254V81.1176H253.118V80.2353ZM252.235 80.2353H253.118V81.1176H252.235V80.2353ZM252.235 78.4706H253.118V79.3529H252.235V78.4706ZM252.235 79.3529H253.118V80.2353H252.235V79.3529ZM253.118 79.3529H254V80.2353H253.118V79.3529ZM253.118 78.4706H254V79.3529H253.118V78.4706ZM253.118 77.5882H254V78.4706H253.118V77.5882ZM252.235 77.5882H253.118V78.4706H252.235V77.5882ZM252.235 76.7059H253.118V77.5882H252.235V76.7059ZM252.235 75.8235H253.118V76.7059H252.235V75.8235ZM252.235 74.9412H253.118V75.8235H252.235V74.9412ZM252.235 74.0588H253.118V74.9412H252.235V74.0588ZM252.235 73.1765H253.118V74.0588H252.235V73.1765ZM252.235 72.2941H253.118V73.1765H252.235V72.2941ZM253.118 72.2941H254V73.1765H253.118V72.2941ZM253.118 73.1765H254V74.0588H253.118V73.1765ZM253.118 74.0588H254V74.9412H253.118V74.0588ZM253.118 74.9412H254V75.8235H253.118V74.9412ZM253.118 75.8235H254V76.7059H253.118V75.8235ZM253.118 76.7059H254V77.5882H253.118V76.7059ZM254 77.5882H254.882V78.4706H254V77.5882ZM254 76.7059H254.882V77.5882H254V76.7059ZM254 75.8235H254.882V76.7059H254V75.8235ZM254 74.9412H254.882V75.8235H254V74.9412ZM254 74.0588H254.882V74.9412H254V74.0588ZM254 73.1765H254.882V74.0588H254V73.1765ZM254 72.2941H254.882V73.1765H254V72.2941ZM252.235 81.1176H253.118V82H252.235V81.1176ZM248.706 69.6471H249.588V70.5294H248.706V69.6471ZM248.706 70.5294H249.588V71.4118H248.706V70.5294ZM248.706 71.4118H249.588V72.2941H248.706V71.4118ZM249.588 69.6471H250.471V70.5294H249.588V69.6471ZM250.471 69.6471H251.353V70.5294H250.471V69.6471ZM251.353 69.6471H252.235V70.5294H251.353V69.6471ZM251.353 70.5294H252.235V71.4118H251.353V70.5294ZM250.471 70.5294H251.353V71.4118H250.471V70.5294ZM249.588 70.5294H250.471V71.4118H249.588V70.5294ZM253.118 81.1176H254V82H253.118V81.1176ZM254 81.1176H254.882V82H254V81.1176ZM254.882 81.1176H255.765V82H254.882V81.1176ZM254.882 80.2353H255.765V81.1176H254.882V80.2353ZM254.882 79.3529H255.765V80.2353H254.882V79.3529ZM245.176 68.7647H246.059V69.6471H245.176V68.7647ZM249.588 71.4118H250.471V72.2941H249.588V71.4118Z" fill="white"/>
<path d="M387.411 35.367C389.144 38.1413 390.563 40.3212 391.67 41.9067C392.242 42.7268 392.806 43.4916 393.362 44.2011C393.528 44.2068 393.769 44.1 394.083 43.8806L394.541 43.5311C394.713 43.3702 394.881 43.2326 395.045 43.1181C395.4 42.8701 395.717 42.7409 395.994 42.7304C396.285 42.7103 396.554 42.878 396.802 43.2334C397.04 43.5751 397.124 43.9131 397.052 44.2476C396.995 44.5724 396.658 44.9495 396.043 45.3786C395.524 45.7411 394.866 46.1388 394.071 46.5718C393.884 46.6821 393.703 46.7876 393.53 46.8884C393.356 46.9892 393.201 47.0873 393.065 47.1826C392.322 47.7209 391.781 48.1392 391.441 48.4377C391.1 48.7362 390.698 49.0476 390.233 49.3719C389.809 49.6676 389.373 49.4942 388.925 48.8518C388.496 48.2367 388.678 47.6526 389.47 47.0994C389.593 47.0136 389.801 46.889 390.093 46.7256C390.354 46.6044 390.615 46.4533 390.874 46.2721C391.025 46.1672 391.143 46.0745 391.229 45.9941C390.604 45.0688 389.722 43.7027 388.583 41.896C387.234 39.7885 386.217 38.2428 385.53 37.2587C385.471 37.32 385.299 37.5826 385.013 38.0464C384.603 38.7995 384.248 39.2809 383.948 39.4908C383.784 39.6052 383.576 39.6281 383.325 39.5595C383.064 39.4772 382.853 39.3198 382.691 39.0875C382.529 38.8551 382.515 38.5294 382.649 38.1105C382.784 37.6915 383.048 37.0802 383.443 36.2766C383.674 35.8509 383.877 35.4143 384.053 34.9667C384.097 34.8548 384.175 34.7191 384.287 34.5595C384.413 34.3904 384.517 34.2772 384.599 34.22C384.954 33.972 385.328 33.8231 385.72 33.7731C386.116 33.7 386.395 33.7796 386.557 34.0119L387.411 35.367ZM400.457 39.1282C400.941 38.8313 401.258 38.6303 401.408 38.5254C401.873 38.2012 402.278 37.9082 402.624 37.6466C402.984 37.3754 403.289 37.1424 403.539 36.9475C404.18 36.4392 404.767 35.999 405.3 35.6271C405.819 35.2646 406.297 35.1343 406.734 35.236C407.171 35.3377 407.547 35.614 407.862 36.0651C408.014 36.2838 407.995 36.5616 407.803 36.8986C407.602 37.2219 407.351 37.4884 407.05 37.6982C406.79 37.8794 406.231 38.2288 405.373 38.7464C404.332 39.3511 403.531 39.8489 402.971 40.24C402.67 40.4498 402.329 40.7183 401.947 41.0454C401.793 41.1735 401.604 41.3254 401.381 41.5013C401.159 41.6771 400.904 41.8651 400.617 42.0654C400.07 42.4469 399.601 42.6626 399.209 42.7125C398.817 42.7625 398.482 42.5892 398.206 42.1929C397.967 41.8512 397.861 41.4072 397.886 40.8611C397.912 40.315 397.999 39.6243 398.147 38.7889L398.296 37.9535C398.353 37.5685 398.479 36.8908 398.676 35.9203C399.036 34.3684 399.249 33.0716 399.315 32.0299C399.394 30.9787 399.205 30.125 398.747 29.4689C398.451 29.0452 398.008 28.8466 397.417 28.873C396.83 28.8762 396.276 29.059 395.757 29.4215C394.964 29.9746 394.514 30.5529 394.407 31.1562C394.304 31.7363 394.481 32.3544 394.939 33.0105C395.053 33.1745 395.062 33.3916 394.966 33.6619C394.874 33.9088 394.692 34.1277 394.418 34.3185C394.036 34.5855 393.674 34.6348 393.333 34.4664C392.992 34.2979 392.683 34.0155 392.406 33.6191C391.968 32.9904 391.773 32.3033 391.822 31.5579C391.861 30.7988 392.113 30.0536 392.579 29.3225C393.058 28.5818 393.7 27.9301 394.507 27.3674C395.081 26.9668 395.775 26.6955 396.591 26.5533C397.41 26.388 398.192 26.4014 398.936 26.5937C399.684 26.7628 400.253 27.1275 400.644 27.6879C401.236 28.5353 401.586 29.4896 401.697 30.5506C401.807 31.6117 401.785 32.6432 401.631 33.6452C401.48 34.6239 401.236 35.8313 400.896 37.2671C400.716 37.9414 400.57 38.5617 400.457 39.1282Z" fill="black"/>
<path d="M371.727 78.239C372.828 78.9059 373.639 79.7575 374.161 80.7939C374.682 81.8302 374.77 82.8563 374.424 83.8723C374.216 84.4819 373.868 85.0274 373.38 85.509C372.599 86.2796 371.665 86.7388 370.578 86.8867C369.505 87.0394 368.366 86.9106 367.162 86.5C366.407 86.2427 365.779 85.8748 365.278 85.3963C364.782 84.9032 364.325 84.3182 363.908 83.6414C363.759 83.364 363.662 83.007 363.617 82.5703C363.586 82.1385 363.612 81.7993 363.696 81.5525C363.805 81.2332 363.979 81.0089 364.217 80.8796C364.475 80.7407 364.757 80.7232 365.061 80.8271C365.366 80.931 365.581 81.0852 365.706 81.2897C365.83 81.4942 365.962 81.7981 366.1 82.2015C366.228 82.5854 366.354 82.9039 366.479 83.1569C366.608 83.3953 366.81 83.6343 367.085 83.8738C367.36 84.1132 367.736 84.3146 368.215 84.4778C369.188 84.8092 370.031 84.8295 370.746 84.5385C371.461 84.2475 371.967 83.6666 372.263 82.7958C372.377 82.462 372.31 82.0664 372.061 81.6089C371.816 81.1369 371.559 80.7739 371.29 80.52C371.136 80.3541 370.822 80.1337 370.348 79.859C369.726 79.4523 369.267 79.1098 368.973 78.8315C368.699 78.5435 368.624 78.2181 368.747 77.8553C368.831 77.6086 369.022 77.4062 369.319 77.2482C369.621 77.0757 370.051 76.8822 370.61 76.6677C371.169 76.4533 371.597 76.2671 371.894 76.1091C372.196 75.9365 372.389 75.7269 372.473 75.4802C372.222 75.3136 371.82 75.1364 371.269 74.9484C371.022 74.8643 370.647 74.7527 370.144 74.6135C369.699 74.4941 369.36 74.3949 369.128 74.3157C368.605 74.1376 368.185 73.8972 367.867 73.5944C367.563 73.2966 367.459 73.0098 367.553 72.7341C367.656 72.4293 367.767 72.1997 367.885 72.0453C368.007 71.8764 368.155 71.7974 368.33 71.8083C368.446 71.7994 368.635 71.8394 368.896 71.9285C369.607 72.1709 370.217 72.4029 370.725 72.6245C371.295 72.8514 371.733 73.0168 372.038 73.1207L373.852 73.7148C375.332 74.2193 375.951 74.8272 375.709 75.5384C375.526 76.0753 375.042 76.5909 374.258 77.0851C373.494 77.5697 372.65 77.9543 371.727 78.239ZM383.59 82.2824C384.691 82.9493 385.502 83.8009 386.024 84.8372C386.545 85.8736 386.633 86.8997 386.287 87.9156C386.079 88.5252 385.731 89.0708 385.243 89.5524C384.462 90.323 383.528 90.7822 382.441 90.93C381.368 91.0828 380.229 90.9539 379.025 90.5433C378.27 90.2861 377.642 89.9182 377.141 89.4396C376.645 88.9465 376.188 88.3616 375.771 87.6848C375.622 87.4074 375.525 87.0503 375.48 86.6136C375.449 86.1819 375.475 85.8426 375.56 85.5959C375.668 85.2766 375.842 85.0523 376.08 84.923C376.338 84.7841 376.62 84.7666 376.925 84.8705C377.229 84.9744 377.444 85.1285 377.569 85.333C377.693 85.5375 377.825 85.8415 377.963 86.2449C378.091 86.6288 378.217 86.9473 378.342 87.2002C378.471 87.4387 378.673 87.6777 378.948 87.9171C379.223 88.1566 379.599 88.3579 380.078 88.5212C381.051 88.8526 381.894 88.8728 382.609 88.5818C383.324 88.2909 383.83 87.71 384.127 86.8392C384.24 86.5054 384.173 86.1097 383.924 85.6522C383.679 85.1802 383.422 84.8173 383.153 84.5633C382.999 84.3974 382.685 84.1771 382.212 83.9024C381.589 83.4957 381.13 83.1532 380.837 82.8748C380.562 82.5869 380.487 82.2615 380.61 81.8987C380.694 81.6519 380.885 81.4496 381.182 81.2915C381.484 81.119 381.914 80.9255 382.473 80.7111C383.032 80.4967 383.46 80.3104 383.757 80.1524C384.059 79.9799 384.252 79.7703 384.336 79.5235C384.085 79.357 383.684 79.1797 383.132 78.9917C382.885 78.9076 382.51 78.796 382.007 78.6569C381.562 78.5375 381.223 78.4382 380.991 78.3591C380.468 78.181 380.048 77.9406 379.73 77.6378C379.426 77.34 379.322 77.0532 379.416 76.7774C379.52 76.4726 379.63 76.243 379.748 76.0887C379.87 75.9198 380.018 75.8408 380.193 75.8517C380.309 75.8427 380.498 75.8828 380.759 75.9718C381.471 76.2142 382.08 76.4462 382.588 76.6679C383.158 76.8948 383.596 77.0601 383.901 77.164L385.715 77.7581C387.195 78.2627 387.814 78.8705 387.572 79.5817C387.389 80.1187 386.906 80.6343 386.122 81.1284C385.357 81.613 384.513 81.9977 383.59 82.2824Z" fill="black"/>
<path d="M409.644 95.4045C409.588 98.4132 409.588 100.806 409.646 102.584C409.676 103.504 409.727 104.377 409.8 105.203C409.925 105.291 410.164 105.329 410.517 105.318L411.045 105.277C411.258 105.24 411.457 105.218 411.641 105.212C412.039 105.199 412.348 105.258 412.567 105.389C412.801 105.52 412.925 105.784 412.938 106.183C412.95 106.566 412.845 106.868 412.622 107.09C412.414 107.312 411.966 107.434 411.276 107.456C410.694 107.475 409.987 107.452 409.157 107.386C408.957 107.378 408.765 107.368 408.581 107.359C408.396 107.35 408.227 107.347 408.074 107.352C407.232 107.395 406.604 107.446 406.192 107.505C405.78 107.565 405.313 107.603 404.792 107.62C404.317 107.635 404.068 107.282 404.044 106.562C404.022 105.872 404.455 105.513 405.344 105.485C405.482 105.48 405.705 105.488 406.012 105.509C406.274 105.547 406.551 105.561 406.842 105.551C407.011 105.546 407.148 105.534 407.255 105.515C407.237 104.488 407.243 102.992 407.271 101.027C407.289 98.7253 407.28 97.0227 407.244 95.9193C407.168 95.9371 406.904 96.053 406.45 96.2671C405.757 96.6423 405.241 96.8354 404.904 96.8463C404.72 96.8522 404.549 96.7657 404.39 96.5868C404.23 96.3925 404.146 96.1651 404.137 95.9046C404.129 95.644 404.282 95.386 404.596 95.1304C404.91 94.8748 405.42 94.5361 406.128 94.1144C406.52 93.9023 406.896 93.6677 407.255 93.4106C407.345 93.3463 407.474 93.2808 407.64 93.2141C407.822 93.1468 407.959 93.1117 408.051 93.1087C408.45 93.0959 408.812 93.1685 409.14 93.3267C409.482 93.4691 409.657 93.6705 409.666 93.931L409.644 95.4045ZM418.258 104.975C418.773 104.79 419.261 104.467 419.722 104.008C420.198 103.547 420.588 103.036 420.892 102.474C421.211 101.896 421.393 101.346 421.437 100.823C421.018 101.143 420.588 101.372 420.148 101.509C419.707 101.646 419.196 101.723 418.613 101.742C417.832 101.767 417.184 101.658 416.67 101.414C416.155 101.154 415.606 100.781 415.023 100.293C414.928 100.204 414.806 100.009 414.659 99.7069C414.51 99.3895 414.375 99.0026 414.253 98.5463C414.13 98.0747 414.061 97.5937 414.045 97.1033C414.031 96.6589 414.154 96.187 414.414 95.6877C414.674 95.1883 415.004 94.7404 415.406 94.3439C415.822 93.9316 416.219 93.635 416.597 93.454C416.944 93.2894 417.346 93.146 417.802 93.0239C418.274 92.8859 418.67 92.8117 418.992 92.8013C420.08 92.7662 421 92.9896 421.752 93.4716C422.519 93.9531 423.093 94.6096 423.472 95.4411C423.852 96.2726 424.059 97.2017 424.092 98.2285C424.149 99.9909 423.81 101.613 423.075 103.094C422.34 104.56 421.388 105.71 420.218 106.546C420.023 106.69 419.684 106.855 419.199 107.039C418.729 107.208 418.294 107.298 417.896 107.311C417.589 107.321 417.317 107.192 417.078 106.924C416.839 106.655 416.714 106.345 416.703 105.992C416.695 105.747 416.773 105.576 416.939 105.478C417.104 105.366 417.377 105.249 417.756 105.13L418.258 104.975ZM419.055 94.7553C418.81 94.7633 418.52 94.8263 418.187 94.9445C417.868 95.0468 417.596 95.1707 417.37 95.316C417.115 95.4777 416.869 95.7234 416.635 96.0531C416.415 96.3671 416.307 96.6083 416.313 96.7769C416.378 98.7845 417.222 99.7621 418.847 99.7096C419.215 99.6978 419.618 99.608 420.058 99.4404C420.512 99.257 420.888 99.0147 421.185 98.7136C421.482 98.4125 421.625 98.0781 421.613 97.7103C421.58 96.6988 421.341 95.9471 420.896 95.4553C420.465 94.9629 419.852 94.7296 419.055 94.7553Z" fill="black"/>
<path d="M368.528 112.226C368.738 113.015 368.837 113.972 368.826 115.096C368.826 116.2 368.762 117.579 368.633 119.235L368.52 121.049C368.807 121.025 369.095 120.974 369.385 120.897C369.884 120.764 370.621 120.517 371.593 120.155C372.566 119.792 373.27 119.554 373.705 119.438L372.974 116.787C372.454 114.959 372.078 113.61 371.847 112.741C371.543 111.597 371.769 110.925 372.526 110.723C373.122 110.565 373.542 110.617 373.784 110.88C374.043 111.139 374.253 111.575 374.416 112.187C374.583 112.815 374.794 113.802 375.048 115.149C375.101 115.411 375.19 115.844 375.316 116.449C375.442 117.053 375.563 117.573 375.679 118.008L375.909 118.774L376.386 118.622C376.764 118.487 377.057 118.392 377.267 118.336C377.653 118.233 378.058 118.263 378.481 118.427C378.899 118.574 379.154 118.817 379.244 119.155C379.351 119.558 379.37 119.889 379.301 120.149C379.248 120.405 379.141 120.554 378.98 120.597C378.706 120.669 378.351 120.729 377.915 120.776C377.819 120.802 377.672 120.832 377.474 120.868C377.272 120.887 377.083 120.92 376.906 120.967L376.501 121.1L377.393 124.356C377.483 124.694 377.438 124.982 377.26 125.219C377.082 125.456 376.847 125.613 376.557 125.69C376.203 125.784 375.859 125.755 375.525 125.602C375.191 125.45 374.98 125.204 374.89 124.866C374.603 123.787 374.394 122.937 374.264 122.316C374.241 122.167 374.202 121.988 374.146 121.778C373.659 121.891 372.836 122.17 371.679 122.615C370.585 123.044 369.749 123.335 369.169 123.49C368.428 123.687 367.772 123.749 367.201 123.677C366.646 123.6 366.309 123.336 366.189 122.885C366.073 122.45 366.02 121.895 366.03 121.22C366.041 120.545 366.082 119.628 366.153 118.471C366.203 118.009 366.232 117.631 366.239 117.336C366.311 116.437 366.344 115.687 366.339 115.084C366.33 114.466 366.305 113.723 366.264 112.854C366.26 112.579 366.345 112.349 366.52 112.165C366.695 111.98 366.92 111.852 367.194 111.779C367.484 111.702 367.761 111.706 368.025 111.791C368.3 111.855 368.468 112.001 368.528 112.226Z" fill="black"/>
<path d="M346.776 41.7767C348.059 41.6789 349.215 41.9 350.241 42.4398C351.268 42.9796 351.936 43.7635 352.245 44.7913C352.431 45.4081 352.465 46.0542 352.348 46.7299C352.161 47.811 351.668 48.7277 350.869 49.4802C350.086 50.2282 349.084 50.7855 347.865 51.1519C347.102 51.3815 346.377 51.4473 345.691 51.3494C345.001 51.2367 344.289 51.0264 343.556 50.7185C343.274 50.5791 342.988 50.345 342.697 50.0162C342.42 49.683 342.245 49.3916 342.169 49.142C342.072 48.8189 342.083 48.5355 342.202 48.2916C342.331 48.0286 342.55 47.8508 342.858 47.7581C343.166 47.6653 343.431 47.6659 343.651 47.7598C343.872 47.8536 344.155 48.0245 344.502 48.2725C344.83 48.5103 345.118 48.6959 345.366 48.8293C345.61 48.9482 345.913 49.0251 346.276 49.0601C346.639 49.0951 347.062 49.0398 347.547 48.8941C348.531 48.5982 349.229 48.1242 349.641 47.4718C350.053 46.8195 350.127 46.0528 349.862 45.1717C349.76 44.834 349.475 44.5515 349.007 44.3241C348.534 44.0821 348.114 43.9362 347.746 43.8865C347.525 43.8411 347.141 43.8443 346.596 43.8961C345.853 43.9274 345.281 43.9152 344.88 43.8597C344.49 43.785 344.239 43.5642 344.129 43.1971C344.054 42.9474 344.091 42.672 344.24 42.3709C344.386 42.055 344.623 41.6473 344.953 41.1477C345.284 40.6482 345.523 40.2478 345.673 39.9467C345.818 39.6308 345.853 39.3481 345.778 39.0984C345.477 39.1089 345.048 39.198 344.49 39.3658C344.24 39.4409 343.87 39.5681 343.38 39.7476C342.948 39.9095 342.615 40.0257 342.38 40.0963C341.851 40.2553 341.369 40.304 340.935 40.2426C340.515 40.1768 340.263 40.0044 340.179 39.7254C340.086 39.417 340.042 39.1659 340.048 38.9721C340.05 38.7635 340.124 38.6129 340.273 38.5203C340.362 38.4453 340.539 38.3681 340.803 38.2887C341.523 38.0723 342.154 37.9067 342.695 37.7918C343.292 37.6445 343.744 37.5246 344.052 37.4318L345.874 36.8601C347.372 36.4098 348.229 36.5443 348.445 37.2639C348.608 37.8072 348.515 38.5078 348.164 39.3657C347.824 40.2045 347.361 41.0082 346.776 41.7767ZM361.524 33.4031C362.234 34.0063 362.882 34.7483 363.467 35.6291C364.047 36.4953 364.488 37.4276 364.788 38.4261C365.146 39.6155 365.28 40.808 365.191 42.0035C365.117 43.1947 364.778 44.2494 364.173 45.1677C363.583 46.0815 362.716 46.7107 361.57 47.0551C360.499 47.3774 359.433 47.4016 358.374 47.1276C357.31 46.8389 356.441 46.3959 355.765 45.7986C355.264 45.3569 354.823 44.8247 354.444 44.2023C354.06 43.5651 353.765 42.9014 353.557 42.2113C353.195 41.0072 353.092 39.7575 353.247 38.462C353.416 37.1621 353.845 36.0324 354.533 35.073C355.195 34.1855 356.077 33.5762 357.178 33.245C358.397 32.8786 359.845 32.9312 361.524 33.4031ZM356.078 36.6978C356.013 36.9578 355.94 37.1958 355.861 37.4117C355.683 37.9934 355.572 38.4752 355.527 38.8571C355.477 39.2243 355.495 39.7633 355.581 40.4741C355.615 40.8001 355.694 41.1687 355.817 41.5798C356.131 42.6224 356.608 43.4636 357.249 44.1036C357.9 44.7244 358.632 45.0566 359.446 45.1001C359.838 45.1263 360.254 45.0732 360.695 44.9407C361.796 44.6096 362.48 43.8756 362.746 42.7387C363.023 41.5826 362.945 40.2851 362.513 38.8461C362.111 37.5099 361.532 36.491 360.777 35.7894C360.017 35.0732 359.116 34.8718 358.073 35.1853C357.648 35.3133 357.3 35.4898 357.032 35.7147C356.778 35.9351 356.46 36.2628 356.078 36.6978Z" fill="black"/>
<path d="M0 69.6786H1.23214V70.9107H0V69.6786ZM1.23214 69.6786H2.46429V70.9107H1.23214V69.6786ZM1.23214 70.9107H2.46429V72.1429H1.23214V70.9107ZM1.23214 72.1429H2.46429V73.375H1.23214V72.1429ZM1.23214 73.375H2.46429V74.6071H1.23214V73.375ZM0 73.375H1.23214V74.6071H0V73.375ZM0 72.1429H1.23214V73.375H0V72.1429ZM0 70.9107H1.23214V72.1429H0V70.9107ZM0 74.6071H1.23214V75.8393H0V74.6071ZM0 75.8393H1.23214V77.0714H0V75.8393ZM0 77.0714H1.23214V78.3036H0V77.0714ZM1.23214 75.8393H2.46429V77.0714H1.23214V75.8393ZM1.23214 74.6071H2.46429V75.8393H1.23214V74.6071ZM1.23214 77.0714H2.46429V78.3036H1.23214V77.0714ZM1.23214 78.3036H2.46429V79.5357H1.23214V78.3036ZM0 79.5357H1.23214V80.7679H0V79.5357ZM0 78.3036H1.23214V79.5357H0V78.3036ZM0 80.7679H1.23214V82H0V80.7679ZM1.23214 80.7679H2.46429V82H1.23214V80.7679ZM1.23214 79.5357H2.46429V80.7679H1.23214V79.5357ZM2.46429 69.6786H3.69643V70.9107H2.46429V69.6786ZM3.69643 69.6786H4.92857V70.9107H3.69643V69.6786ZM4.92857 69.6786H6.16071V70.9107H4.92857V69.6786ZM6.16071 69.6786H7.39286V70.9107H6.16071V69.6786ZM4.92857 70.9107H6.16071V72.1429H4.92857V70.9107ZM3.69643 70.9107H4.92857V72.1429H3.69643V70.9107ZM2.46429 70.9107H3.69643V72.1429H2.46429V70.9107ZM2.46429 75.8393H3.69643V77.0714H2.46429V75.8393ZM3.69643 74.6071H4.92857V75.8393H3.69643V74.6071ZM2.46429 74.6071H3.69643V75.8393H2.46429V74.6071ZM3.69643 75.8393H4.92857V77.0714H3.69643V75.8393ZM6.16071 70.9107H7.39286V72.1429H6.16071V70.9107ZM4.92857 74.6071H6.16071V75.8393H4.92857V74.6071ZM4.92857 75.8393H6.16071V77.0714H4.92857V75.8393ZM8.625 69.6786H11.0893V72.1429H8.625V69.6786ZM8.625 73.375H11.0893V82H8.625V73.375ZM12.3311 79.5357H13.5632V80.7679H12.3311V79.5357ZM12.3311 78.3036H13.5632V79.5357H12.3311V78.3036ZM13.5632 78.3036H14.7953V79.5357H13.5632V78.3036ZM13.5632 79.5357H14.7953V80.7679H13.5632V79.5357ZM13.5632 77.0714H14.7953V78.3036H13.5632V77.0714ZM14.7953 77.0714H16.0275V78.3036H14.7953V77.0714ZM17.2596 77.0714H18.4918V78.3036H17.2596V77.0714ZM18.4918 77.0714H19.7239V78.3036H18.4918V77.0714ZM18.4918 79.5357H19.7239V80.7679H18.4918V79.5357ZM19.7239 79.5357H20.9561V80.7679H19.7239V79.5357ZM19.7239 78.3036H20.9561V79.5357H19.7239V78.3036ZM14.7953 75.8393H16.0275V77.0714H14.7953V75.8393ZM16.0275 75.8393H17.2596V77.0714H16.0275V75.8393ZM17.2596 75.8393H18.4918V77.0714H17.2596V75.8393ZM17.2596 74.6071H18.4918V75.8393H17.2596V74.6071ZM18.4918 74.6071H19.7239V75.8393H18.4918V74.6071ZM18.4918 73.375H19.7239V74.6071H18.4918V73.375ZM18.4918 72.1429H19.7239V73.375H18.4918V72.1429ZM19.7239 72.1429H20.9561V73.375H19.7239V72.1429ZM19.7239 73.375H20.9561V74.6071H19.7239V73.375ZM14.7953 74.6071H16.0275V75.8393H14.7953V74.6071ZM13.5632 74.6071H14.7953V75.8393H13.5632V74.6071ZM13.5632 73.375H14.7953V74.6071H13.5632V73.375ZM13.5632 72.1429H14.7953V73.375H13.5632V72.1429ZM12.3311 72.1429H13.5632V73.375H12.3311V72.1429ZM12.3311 73.375H13.5632V74.6071H12.3311V73.375ZM14.7953 78.3036H16.0275V79.5357H14.7953V78.3036ZM17.2596 78.3036H18.4918V79.5357H17.2596V78.3036ZM18.4918 78.3036H19.7239V79.5357H18.4918V78.3036ZM14.7953 73.375H16.0275V74.6071H14.7953V73.375ZM17.2596 73.375H18.4918V74.6071H17.2596V73.375ZM16.0275 74.6071H17.2596V75.8393H16.0275V74.6071ZM16.0275 77.0714H17.2596V78.3036H16.0275V77.0714ZM12.3311 80.7679H13.5632V82H12.3311V80.7679ZM13.5632 80.7679H14.7953V82H13.5632V80.7679ZM18.4918 80.7679H19.7239V82H18.4918V80.7679ZM19.7239 80.7679H20.9561V82H19.7239V80.7679Z" fill="#D22E2E"/>
<path d="M59.3 51C70.1674 65.181 75.5999 75.2706 75.5999 81.2713C75.5999 85.5943 73.8826 89.7403 70.8258 92.7971C67.7689 95.854 63.623 97.5713 59.3 97.5713C54.9769 97.5713 50.831 95.854 47.7741 92.7971C44.7173 89.7403 43 85.5943 43 81.2713C43 75.2706 48.4325 65.181 59.3 51Z" fill="#53422A"/>
<path d="M52 70L52 89" stroke="#C49F6C" stroke-width="2" stroke-linecap="round"/>
<path d="M66 70L66 89" stroke="#C49F6C" stroke-width="2" stroke-linecap="round"/>
<path d="M59 63L59 91" stroke="#C49F6C" stroke-width="2" stroke-linecap="round"/>
<path d="M36.2852 15C43.1424 23.9481 46.5703 30.3146 46.5703 34.101C46.5703 36.8288 45.4867 39.4449 43.5579 41.3737C41.629 43.3025 39.0129 44.3862 36.2852 44.3862C33.5574 44.3862 30.9413 43.3025 29.0125 41.3737C27.0836 39.4449 26 36.8288 26 34.101C26 30.3146 29.4279 23.9481 36.2852 15Z" fill="#D7D7D7"/>
<path d="M31.6797 26.9893L31.6797 38.9781" stroke="#B8B8B8" stroke-width="1.5" stroke-linecap="round"/>
<path d="M40.5117 26.9893L40.5117 38.9781" stroke="#B8B8B8" stroke-width="1.5" stroke-linecap="round"/>
<path d="M36.0977 22.5723L36.0977 40.2401" stroke="#B8B8B8" stroke-width="1.5" stroke-linecap="round"/>
<path d="M36.2852 107C43.1424 115.948 46.5703 122.315 46.5703 126.101C46.5703 128.829 45.4867 131.445 43.5579 133.374C41.629 135.303 39.0129 136.386 36.2852 136.386C33.5574 136.386 30.9413 135.303 29.0125 133.374C27.0836 131.445 26 128.829 26 126.101C26 122.315 29.4279 115.948 36.2852 107Z" fill="#BEBEBE"/>
<path d="M31.6797 118.989L31.6797 130.978" stroke="#CFCFCF" stroke-width="1.5" stroke-linecap="round"/>
<path d="M40.5117 118.989L40.5117 130.978" stroke="#CFCFCF" stroke-width="1.5" stroke-linecap="round"/>
<path d="M36.0977 114.572L36.0977 132.24" stroke="#CFCFCF" stroke-width="1.5" stroke-linecap="round"/>
<path d="M29.15 90.3V62.1H36.5V64.5H31.85V87.9H36.5V90.3H29.15Z" fill="#D22E2E"/>
<path d="M88.85 90.3V62.1H81.5V64.5H86.15V87.9H81.5V90.3H88.85Z" fill="#D22E2E"/>
</svg>
