<svg width="401" height="136" viewBox="0 0 401 136" fill="none" xmlns="http://www.w3.org/2000/svg">
<rect x="1" y="49.7139" width="61" height="60" rx="3" fill="white"/>
<rect x="1" y="49.7139" width="61" height="60" rx="3" stroke="black" stroke-width="2"/>
<rect x="1" y="49.7139" width="61" height="60" rx="3" stroke="black" stroke-opacity="0.2" stroke-width="2"/>
<rect x="62" y="49.7139" width="61" height="60" rx="3" fill="white"/>
<rect x="62" y="49.7139" width="61" height="60" rx="3" stroke="black" stroke-width="2"/>
<rect x="62" y="49.7139" width="61" height="60" rx="3" stroke="black" stroke-opacity="0.2" stroke-width="2"/>
<rect x="123" y="49.7139" width="61" height="60" rx="3" fill="white"/>
<rect x="123" y="49.7139" width="61" height="60" rx="3" stroke="black" stroke-width="2"/>
<rect x="123" y="49.7139" width="61" height="60" rx="3" stroke="black" stroke-opacity="0.2" stroke-width="2"/>
<rect x="189.119" y="43.6189" width="61" height="60" rx="3" transform="rotate(2.09486 189.119 43.6189)" fill="white"/>
<rect x="189.119" y="43.6189" width="61" height="60" rx="3" transform="rotate(2.09486 189.119 43.6189)" stroke="black" stroke-width="2"/>
<rect x="189.119" y="43.6189" width="61" height="60" rx="3" transform="rotate(2.09486 189.119 43.6189)" stroke="black" stroke-opacity="0.2" stroke-width="2"/>
<rect x="262.609" y="22.8309" width="61" height="60" rx="3" transform="rotate(7.17376 262.609 22.8309)" fill="white"/>
<rect x="262.609" y="22.8309" width="61" height="60" rx="3" transform="rotate(7.17376 262.609 22.8309)" stroke="black" stroke-width="2"/>
<rect x="262.609" y="22.8309" width="61" height="60" rx="3" transform="rotate(7.17376 262.609 22.8309)" stroke="black" stroke-opacity="0.2" stroke-width="2"/>
<path d="M22.7155 74.1939C22.7155 74.3272 22.6821 74.6939 22.6155 75.2939C22.4688 76.7605 22.3955 78.2472 22.3955 79.7539C22.3955 81.0739 22.4155 82.0805 22.4555 82.7739C22.4955 83.4672 22.5955 84.0005 22.7555 84.3739C22.9155 84.7339 23.1621 84.9139 23.4955 84.9139C24.1355 84.9139 24.4555 85.1272 24.4555 85.5539C24.4555 85.8339 24.3155 86.0739 24.0355 86.2739C23.7555 86.4605 23.4488 86.5539 23.1155 86.5539C22.7155 86.5539 22.3421 86.4605 21.9955 86.2739C21.6488 86.0872 21.3755 85.8005 21.1755 85.4139C20.8955 85.8272 20.4888 86.1605 19.9555 86.4139C19.4355 86.6539 18.9288 86.7739 18.4355 86.7739C17.6755 86.7739 17.0021 86.6139 16.4155 86.2939C15.8288 85.9739 15.3755 85.5405 15.0555 84.9939C14.7355 84.4339 14.5755 83.8205 14.5755 83.1539C14.5755 82.5139 14.6488 81.9005 14.7955 81.3139C14.9555 80.7139 15.1688 80.2205 15.4355 79.8339C15.7955 79.3272 16.2755 78.9272 16.8755 78.6339C17.4888 78.3272 18.0888 78.1739 18.6755 78.1739C19.0355 78.1739 19.3755 78.2472 19.6955 78.3939C20.0155 78.5272 20.2955 78.6939 20.5355 78.8939C20.5355 78.0005 20.5288 77.4405 20.5155 77.2139V76.7939C20.5155 75.5539 20.5955 74.6472 20.7555 74.0739C20.9021 73.5139 21.2555 73.2339 21.8155 73.2339C22.1221 73.2339 22.3488 73.3005 22.4955 73.4339C22.6421 73.5672 22.7155 73.8205 22.7155 74.1939ZM16.5555 83.1139C16.5555 83.7272 16.7288 84.2205 17.0755 84.5939C17.4355 84.9672 17.8621 85.1539 18.3555 85.1539C19.0621 85.1539 19.5821 84.9339 19.9155 84.4939C20.2621 84.0539 20.4355 83.4872 20.4355 82.7939L20.4155 80.8139C19.8955 80.2405 19.3555 79.9539 18.7955 79.9539C18.4088 79.9539 18.0421 80.0539 17.6955 80.2539C17.3621 80.4405 17.0955 80.7272 16.8955 81.1139C16.6688 81.5539 16.5555 82.2205 16.5555 83.1139ZM34.4906 85.7539C34.4906 86.0472 34.3306 86.2939 34.0106 86.4939C33.704 86.6939 33.4173 86.7939 33.1506 86.7939C32.644 86.7939 32.2373 86.7339 31.9306 86.6139C31.6373 86.4805 31.364 86.2405 31.1106 85.8939C30.764 86.2005 30.2906 86.4339 29.6906 86.5939C29.0906 86.7405 28.5373 86.8139 28.0306 86.8139C27.204 86.8139 26.524 86.5939 25.9906 86.1539C25.4573 85.7005 25.1906 85.0405 25.1906 84.1739C25.1906 83.8005 25.2906 83.4605 25.4906 83.1539C25.6906 82.8339 25.964 82.5539 26.3106 82.3139C26.6973 82.0605 27.1373 81.8672 27.6306 81.7339C28.124 81.5872 28.6373 81.5139 29.1706 81.5139C29.4506 81.5139 29.784 81.5672 30.1706 81.6739C30.5573 81.7805 30.8573 81.8939 31.0706 82.0139V81.6939C31.0706 80.9739 30.8973 80.4805 30.5506 80.2139C30.204 79.9339 29.644 79.7939 28.8706 79.7939C28.644 79.7939 28.4173 79.8405 28.1906 79.9339C27.9773 80.0272 27.7306 80.1539 27.4506 80.3139C27.0773 80.5139 26.724 80.6139 26.3906 80.6139C26.2706 80.6139 26.1573 80.5339 26.0506 80.3739C25.944 80.2005 25.8906 80.0472 25.8906 79.9139C25.8906 79.5272 26.0706 79.1939 26.4306 78.9139C26.804 78.6339 27.244 78.4272 27.7506 78.2939C28.2573 78.1472 28.7106 78.0739 29.1106 78.0739C29.5106 78.0739 29.9706 78.1539 30.4906 78.3139C31.0106 78.4605 31.4373 78.6672 31.7706 78.9339C32.1706 79.2805 32.4773 79.6872 32.6906 80.1539C32.9173 80.6072 33.0306 81.1072 33.0306 81.6539C33.0306 81.8272 33.0173 82.0872 32.9906 82.4339C32.964 82.8072 32.9506 83.1272 32.9506 83.3939C32.9506 83.5139 32.9373 83.6939 32.9106 83.9339C32.884 84.2272 32.8706 84.4605 32.8706 84.6339C32.8706 84.7939 32.9306 84.9339 33.0506 85.0539C33.1706 85.1605 33.3106 85.2139 33.4706 85.2139L34.0306 85.1939C34.1773 85.1939 34.2906 85.2472 34.3706 85.3539C34.4506 85.4605 34.4906 85.5939 34.4906 85.7539ZM28.0506 85.2339C28.624 85.2339 29.104 85.1739 29.4906 85.0539C29.8773 84.9339 30.344 84.7139 30.8906 84.3939C30.944 84.1672 30.9773 83.8672 30.9906 83.4939C30.2573 83.1472 29.6506 82.9739 29.1706 82.9739C28.624 82.9739 28.1373 83.0739 27.7106 83.2739C27.284 83.4739 27.0706 83.8272 27.0706 84.3339C27.0706 84.5872 27.1773 84.8005 27.3906 84.9739C27.604 85.1472 27.824 85.2339 28.0506 85.2339ZM35.4403 79.7539C35.2536 79.7272 35.1003 79.6539 34.9803 79.5339C34.8736 79.4005 34.8203 79.2405 34.8203 79.0539C34.8203 78.8139 34.9136 78.6139 35.1003 78.4539C35.1403 78.4139 35.207 78.3805 35.3003 78.3539C35.3936 78.3139 35.467 78.2805 35.5203 78.2539C35.8136 78.1605 36.0003 78.0872 36.0803 78.0339C36.387 77.8472 36.5936 77.5405 36.7003 77.1139C36.807 76.6072 36.8736 76.2605 36.9003 76.0739C36.927 75.7805 37.0203 75.5605 37.1803 75.4139C37.3536 75.2539 37.567 75.1739 37.8203 75.1739C38.1536 75.1739 38.387 75.2605 38.5203 75.4339C38.6536 75.6072 38.7203 75.9272 38.7203 76.3939C38.7203 77.0072 38.5736 77.5872 38.2803 78.1339C38.467 78.1339 38.7736 78.1205 39.2003 78.0939C39.8403 78.0672 40.287 78.0539 40.5403 78.0539C40.767 78.0539 40.9603 78.1139 41.1203 78.2339C41.2936 78.3405 41.3803 78.5005 41.3803 78.7139C41.3803 79.2205 41.147 79.5205 40.6803 79.6139C40.2536 79.7339 39.4803 79.8072 38.3603 79.8339C38.267 81.1405 38.2203 82.1739 38.2203 82.9339C38.2203 83.4005 38.2403 83.7339 38.2803 83.9339C38.3603 84.3472 38.4936 84.6539 38.6803 84.8539C38.8803 85.0405 39.1736 85.1339 39.5603 85.1339C39.747 85.1339 40.027 85.0872 40.4003 84.9939C40.627 84.9272 40.807 84.8939 40.9403 84.8939C41.1136 84.8939 41.247 84.9539 41.3403 85.0739C41.4336 85.1939 41.4803 85.3539 41.4803 85.5539C41.4803 85.9139 41.247 86.2139 40.7803 86.4539C40.3136 86.6805 39.7603 86.7939 39.1203 86.7939C38.7203 86.7939 38.327 86.7005 37.9403 86.5139C37.5536 86.3139 37.227 86.0739 36.9603 85.7939C36.907 85.7672 36.827 85.6205 36.7203 85.3539C36.627 85.0872 36.5336 84.7939 36.4403 84.4739C36.4003 84.3139 36.3803 83.9272 36.3803 83.3139C36.3803 82.7272 36.4203 81.7139 36.5003 80.2739L36.5203 79.8339C36.427 79.8339 36.2536 79.8272 36.0003 79.8139C35.747 79.7872 35.5603 79.7672 35.4403 79.7539ZM50.1408 86.7939C49.6874 86.7939 49.3408 86.7272 49.1008 86.5939C48.8608 86.4472 48.6008 86.1805 48.3208 85.7939C47.9741 86.1005 47.4541 86.3472 46.7608 86.5339C46.0808 86.7205 45.4941 86.8139 45.0008 86.8139C44.1874 86.8139 43.5274 86.5939 43.0208 86.1539C42.5274 85.7005 42.2808 85.0405 42.2808 84.1739C42.2808 83.8005 42.3808 83.4605 42.5808 83.1539C42.7941 82.8339 43.0674 82.5539 43.4008 82.3139C43.7741 82.0605 44.2141 81.8605 44.7208 81.7139C45.2408 81.5672 45.7141 81.4939 46.1408 81.4939C46.8608 81.4939 47.5008 81.5605 48.0608 81.6939V81.6739C48.0608 80.9539 47.8808 80.4605 47.5208 80.1939C47.1741 79.9139 46.6141 79.7739 45.8408 79.7739C45.3474 79.7739 44.9208 79.9939 44.5608 80.4339C44.4274 80.6072 44.1474 80.6939 43.7208 80.6939C43.5074 80.6939 43.3474 80.6072 43.2408 80.4339C43.1474 80.2472 43.1008 80.0605 43.1008 79.8739C43.1008 79.4872 43.2608 79.1539 43.5808 78.8739C43.9141 78.5939 44.3141 78.3872 44.7808 78.2539C45.2474 78.1072 45.6808 78.0339 46.0808 78.0339C46.4674 78.0339 46.9274 78.1139 47.4608 78.2739C47.9941 78.4339 48.4274 78.6472 48.7608 78.9139C49.1608 79.2605 49.4674 79.6672 49.6808 80.1339C49.9074 80.5872 50.0208 81.0872 50.0208 81.6339C50.0208 81.8072 50.0074 82.0672 49.9808 82.4139C49.9541 82.8139 49.9408 83.1405 49.9408 83.3939C49.9408 83.5139 49.9274 83.6672 49.9008 83.8539C49.8741 84.0939 49.8608 84.2939 49.8608 84.4539C49.8608 84.6272 49.9141 84.7939 50.0208 84.9539C50.1274 85.1139 50.2741 85.2472 50.4608 85.3539C50.6341 85.4472 50.7474 85.5472 50.8008 85.6539C50.8541 85.7605 50.8808 85.8805 50.8808 86.0139C50.8808 86.1472 50.7941 86.3139 50.6208 86.5139C50.4608 86.7005 50.3008 86.7939 50.1408 86.7939ZM46.1408 82.9739C45.6208 82.9739 45.1608 83.0739 44.7608 83.2739C44.3608 83.4739 44.1608 83.8272 44.1608 84.3339C44.1608 84.5872 44.2474 84.8005 44.4208 84.9739C44.6074 85.1472 44.8074 85.2339 45.0208 85.2339C45.5941 85.2339 46.0741 85.1739 46.4608 85.0539C46.8474 84.9339 47.3141 84.7139 47.8608 84.3939C47.9274 84.1805 47.9674 83.8805 47.9808 83.4939C47.9808 83.3472 47.9874 83.2339 48.0008 83.1539C47.2808 83.0339 46.6608 82.9739 46.1408 82.9739Z" fill="black"/>
<path d="M84.2155 74.1939C84.2155 74.3272 84.1821 74.6939 84.1155 75.2939C83.9688 76.7605 83.8955 78.2472 83.8955 79.7539C83.8955 81.0739 83.9155 82.0805 83.9555 82.7739C83.9955 83.4672 84.0955 84.0005 84.2555 84.3739C84.4155 84.7339 84.6621 84.9139 84.9955 84.9139C85.6355 84.9139 85.9555 85.1272 85.9555 85.5539C85.9555 85.8339 85.8155 86.0739 85.5355 86.2739C85.2555 86.4605 84.9488 86.5539 84.6155 86.5539C84.2155 86.5539 83.8421 86.4605 83.4955 86.2739C83.1488 86.0872 82.8755 85.8005 82.6755 85.4139C82.3955 85.8272 81.9888 86.1605 81.4555 86.4139C80.9355 86.6539 80.4288 86.7739 79.9355 86.7739C79.1755 86.7739 78.5021 86.6139 77.9155 86.2939C77.3288 85.9739 76.8755 85.5405 76.5555 84.9939C76.2355 84.4339 76.0755 83.8205 76.0755 83.1539C76.0755 82.5139 76.1488 81.9005 76.2955 81.3139C76.4555 80.7139 76.6688 80.2205 76.9355 79.8339C77.2955 79.3272 77.7755 78.9272 78.3755 78.6339C78.9888 78.3272 79.5888 78.1739 80.1755 78.1739C80.5355 78.1739 80.8755 78.2472 81.1955 78.3939C81.5155 78.5272 81.7955 78.6939 82.0355 78.8939C82.0355 78.0005 82.0288 77.4405 82.0155 77.2139V76.7939C82.0155 75.5539 82.0955 74.6472 82.2555 74.0739C82.4021 73.5139 82.7555 73.2339 83.3155 73.2339C83.6221 73.2339 83.8488 73.3005 83.9955 73.4339C84.1421 73.5672 84.2155 73.8205 84.2155 74.1939ZM78.0555 83.1139C78.0555 83.7272 78.2288 84.2205 78.5755 84.5939C78.9355 84.9672 79.3621 85.1539 79.8555 85.1539C80.5621 85.1539 81.0821 84.9339 81.4155 84.4939C81.7621 84.0539 81.9355 83.4872 81.9355 82.7939L81.9155 80.8139C81.3955 80.2405 80.8555 79.9539 80.2955 79.9539C79.9088 79.9539 79.5421 80.0539 79.1955 80.2539C78.8621 80.4405 78.5955 80.7272 78.3955 81.1139C78.1688 81.5539 78.0555 82.2205 78.0555 83.1139ZM95.9906 85.7539C95.9906 86.0472 95.8306 86.2939 95.5106 86.4939C95.204 86.6939 94.9173 86.7939 94.6506 86.7939C94.144 86.7939 93.7373 86.7339 93.4306 86.6139C93.1373 86.4805 92.864 86.2405 92.6106 85.8939C92.264 86.2005 91.7906 86.4339 91.1906 86.5939C90.5906 86.7405 90.0373 86.8139 89.5306 86.8139C88.704 86.8139 88.024 86.5939 87.4906 86.1539C86.9573 85.7005 86.6906 85.0405 86.6906 84.1739C86.6906 83.8005 86.7906 83.4605 86.9906 83.1539C87.1906 82.8339 87.464 82.5539 87.8106 82.3139C88.1973 82.0605 88.6373 81.8672 89.1306 81.7339C89.624 81.5872 90.1373 81.5139 90.6706 81.5139C90.9506 81.5139 91.284 81.5672 91.6706 81.6739C92.0573 81.7805 92.3573 81.8939 92.5706 82.0139V81.6939C92.5706 80.9739 92.3973 80.4805 92.0506 80.2139C91.704 79.9339 91.144 79.7939 90.3706 79.7939C90.144 79.7939 89.9173 79.8405 89.6906 79.9339C89.4773 80.0272 89.2306 80.1539 88.9506 80.3139C88.5773 80.5139 88.224 80.6139 87.8906 80.6139C87.7706 80.6139 87.6573 80.5339 87.5506 80.3739C87.444 80.2005 87.3906 80.0472 87.3906 79.9139C87.3906 79.5272 87.5706 79.1939 87.9306 78.9139C88.304 78.6339 88.744 78.4272 89.2506 78.2939C89.7573 78.1472 90.2106 78.0739 90.6106 78.0739C91.0106 78.0739 91.4706 78.1539 91.9906 78.3139C92.5106 78.4605 92.9373 78.6672 93.2706 78.9339C93.6706 79.2805 93.9773 79.6872 94.1906 80.1539C94.4173 80.6072 94.5306 81.1072 94.5306 81.6539C94.5306 81.8272 94.5173 82.0872 94.4906 82.4339C94.464 82.8072 94.4506 83.1272 94.4506 83.3939C94.4506 83.5139 94.4373 83.6939 94.4106 83.9339C94.384 84.2272 94.3706 84.4605 94.3706 84.6339C94.3706 84.7939 94.4306 84.9339 94.5506 85.0539C94.6706 85.1605 94.8106 85.2139 94.9706 85.2139L95.5306 85.1939C95.6773 85.1939 95.7906 85.2472 95.8706 85.3539C95.9506 85.4605 95.9906 85.5939 95.9906 85.7539ZM89.5506 85.2339C90.124 85.2339 90.604 85.1739 90.9906 85.0539C91.3773 84.9339 91.844 84.7139 92.3906 84.3939C92.444 84.1672 92.4773 83.8672 92.4906 83.4939C91.7573 83.1472 91.1506 82.9739 90.6706 82.9739C90.124 82.9739 89.6373 83.0739 89.2106 83.2739C88.784 83.4739 88.5706 83.8272 88.5706 84.3339C88.5706 84.5872 88.6773 84.8005 88.8906 84.9739C89.104 85.1472 89.324 85.2339 89.5506 85.2339ZM96.9403 79.7539C96.7536 79.7272 96.6003 79.6539 96.4803 79.5339C96.3736 79.4005 96.3203 79.2405 96.3203 79.0539C96.3203 78.8139 96.4136 78.6139 96.6003 78.4539C96.6403 78.4139 96.707 78.3805 96.8003 78.3539C96.8936 78.3139 96.967 78.2805 97.0203 78.2539C97.3136 78.1605 97.5003 78.0872 97.5803 78.0339C97.887 77.8472 98.0936 77.5405 98.2003 77.1139C98.307 76.6072 98.3736 76.2605 98.4003 76.0739C98.427 75.7805 98.5203 75.5605 98.6803 75.4139C98.8536 75.2539 99.067 75.1739 99.3203 75.1739C99.6536 75.1739 99.887 75.2605 100.02 75.4339C100.154 75.6072 100.22 75.9272 100.22 76.3939C100.22 77.0072 100.074 77.5872 99.7803 78.1339C99.967 78.1339 100.274 78.1205 100.7 78.0939C101.34 78.0672 101.787 78.0539 102.04 78.0539C102.267 78.0539 102.46 78.1139 102.62 78.2339C102.794 78.3405 102.88 78.5005 102.88 78.7139C102.88 79.2205 102.647 79.5205 102.18 79.6139C101.754 79.7339 100.98 79.8072 99.8603 79.8339C99.767 81.1405 99.7203 82.1739 99.7203 82.9339C99.7203 83.4005 99.7403 83.7339 99.7803 83.9339C99.8603 84.3472 99.9936 84.6539 100.18 84.8539C100.38 85.0405 100.674 85.1339 101.06 85.1339C101.247 85.1339 101.527 85.0872 101.9 84.9939C102.127 84.9272 102.307 84.8939 102.44 84.8939C102.614 84.8939 102.747 84.9539 102.84 85.0739C102.934 85.1939 102.98 85.3539 102.98 85.5539C102.98 85.9139 102.747 86.2139 102.28 86.4539C101.814 86.6805 101.26 86.7939 100.62 86.7939C100.22 86.7939 99.827 86.7005 99.4403 86.5139C99.0536 86.3139 98.727 86.0739 98.4603 85.7939C98.407 85.7672 98.327 85.6205 98.2203 85.3539C98.127 85.0872 98.0336 84.7939 97.9403 84.4739C97.9003 84.3139 97.8803 83.9272 97.8803 83.3139C97.8803 82.7272 97.9203 81.7139 98.0003 80.2739L98.0203 79.8339C97.927 79.8339 97.7536 79.8272 97.5003 79.8139C97.247 79.7872 97.0603 79.7672 96.9403 79.7539ZM111.641 86.7939C111.187 86.7939 110.841 86.7272 110.601 86.5939C110.361 86.4472 110.101 86.1805 109.821 85.7939C109.474 86.1005 108.954 86.3472 108.261 86.5339C107.581 86.7205 106.994 86.8139 106.501 86.8139C105.687 86.8139 105.027 86.5939 104.521 86.1539C104.027 85.7005 103.781 85.0405 103.781 84.1739C103.781 83.8005 103.881 83.4605 104.081 83.1539C104.294 82.8339 104.567 82.5539 104.901 82.3139C105.274 82.0605 105.714 81.8605 106.221 81.7139C106.741 81.5672 107.214 81.4939 107.641 81.4939C108.361 81.4939 109.001 81.5605 109.561 81.6939V81.6739C109.561 80.9539 109.381 80.4605 109.021 80.1939C108.674 79.9139 108.114 79.7739 107.341 79.7739C106.847 79.7739 106.421 79.9939 106.061 80.4339C105.927 80.6072 105.647 80.6939 105.221 80.6939C105.007 80.6939 104.847 80.6072 104.741 80.4339C104.647 80.2472 104.601 80.0605 104.601 79.8739C104.601 79.4872 104.761 79.1539 105.081 78.8739C105.414 78.5939 105.814 78.3872 106.281 78.2539C106.747 78.1072 107.181 78.0339 107.581 78.0339C107.967 78.0339 108.427 78.1139 108.961 78.2739C109.494 78.4339 109.927 78.6472 110.261 78.9139C110.661 79.2605 110.967 79.6672 111.181 80.1339C111.407 80.5872 111.521 81.0872 111.521 81.6339C111.521 81.8072 111.507 82.0672 111.481 82.4139C111.454 82.8139 111.441 83.1405 111.441 83.3939C111.441 83.5139 111.427 83.6672 111.401 83.8539C111.374 84.0939 111.361 84.2939 111.361 84.4539C111.361 84.6272 111.414 84.7939 111.521 84.9539C111.627 85.1139 111.774 85.2472 111.961 85.3539C112.134 85.4472 112.247 85.5472 112.301 85.6539C112.354 85.7605 112.381 85.8805 112.381 86.0139C112.381 86.1472 112.294 86.3139 112.121 86.5139C111.961 86.7005 111.801 86.7939 111.641 86.7939ZM107.641 82.9739C107.121 82.9739 106.661 83.0739 106.261 83.2739C105.861 83.4739 105.661 83.8272 105.661 84.3339C105.661 84.5872 105.747 84.8005 105.921 84.9739C106.107 85.1472 106.307 85.2339 106.521 85.2339C107.094 85.2339 107.574 85.1739 107.961 85.0539C108.347 84.9339 108.814 84.7139 109.361 84.3939C109.427 84.1805 109.467 83.8805 109.481 83.4939C109.481 83.3472 109.487 83.2339 109.501 83.1539C108.781 83.0339 108.161 82.9739 107.641 82.9739Z" fill="black"/>
<path d="M145.215 74.1939C145.215 74.3272 145.182 74.6939 145.115 75.2939C144.969 76.7605 144.895 78.2472 144.895 79.7539C144.895 81.0739 144.915 82.0805 144.955 82.7739C144.995 83.4672 145.095 84.0005 145.255 84.3739C145.415 84.7339 145.662 84.9139 145.995 84.9139C146.635 84.9139 146.955 85.1272 146.955 85.5539C146.955 85.8339 146.815 86.0739 146.535 86.2739C146.255 86.4605 145.949 86.5539 145.615 86.5539C145.215 86.5539 144.842 86.4605 144.495 86.2739C144.149 86.0872 143.875 85.8005 143.675 85.4139C143.395 85.8272 142.989 86.1605 142.455 86.4139C141.935 86.6539 141.429 86.7739 140.935 86.7739C140.175 86.7739 139.502 86.6139 138.915 86.2939C138.329 85.9739 137.875 85.5405 137.555 84.9939C137.235 84.4339 137.075 83.8205 137.075 83.1539C137.075 82.5139 137.149 81.9005 137.295 81.3139C137.455 80.7139 137.669 80.2205 137.935 79.8339C138.295 79.3272 138.775 78.9272 139.375 78.6339C139.989 78.3272 140.589 78.1739 141.175 78.1739C141.535 78.1739 141.875 78.2472 142.195 78.3939C142.515 78.5272 142.795 78.6939 143.035 78.8939C143.035 78.0005 143.029 77.4405 143.015 77.2139V76.7939C143.015 75.5539 143.095 74.6472 143.255 74.0739C143.402 73.5139 143.755 73.2339 144.315 73.2339C144.622 73.2339 144.849 73.3005 144.995 73.4339C145.142 73.5672 145.215 73.8205 145.215 74.1939ZM139.055 83.1139C139.055 83.7272 139.229 84.2205 139.575 84.5939C139.935 84.9672 140.362 85.1539 140.855 85.1539C141.562 85.1539 142.082 84.9339 142.415 84.4939C142.762 84.0539 142.935 83.4872 142.935 82.7939L142.915 80.8139C142.395 80.2405 141.855 79.9539 141.295 79.9539C140.909 79.9539 140.542 80.0539 140.195 80.2539C139.862 80.4405 139.595 80.7272 139.395 81.1139C139.169 81.5539 139.055 82.2205 139.055 83.1139ZM156.991 85.7539C156.991 86.0472 156.831 86.2939 156.511 86.4939C156.204 86.6939 155.917 86.7939 155.651 86.7939C155.144 86.7939 154.737 86.7339 154.431 86.6139C154.137 86.4805 153.864 86.2405 153.611 85.8939C153.264 86.2005 152.791 86.4339 152.191 86.5939C151.591 86.7405 151.037 86.8139 150.531 86.8139C149.704 86.8139 149.024 86.5939 148.491 86.1539C147.957 85.7005 147.691 85.0405 147.691 84.1739C147.691 83.8005 147.791 83.4605 147.991 83.1539C148.191 82.8339 148.464 82.5539 148.811 82.3139C149.197 82.0605 149.637 81.8672 150.131 81.7339C150.624 81.5872 151.137 81.5139 151.671 81.5139C151.951 81.5139 152.284 81.5672 152.671 81.6739C153.057 81.7805 153.357 81.8939 153.571 82.0139V81.6939C153.571 80.9739 153.397 80.4805 153.051 80.2139C152.704 79.9339 152.144 79.7939 151.371 79.7939C151.144 79.7939 150.917 79.8405 150.691 79.9339C150.477 80.0272 150.231 80.1539 149.951 80.3139C149.577 80.5139 149.224 80.6139 148.891 80.6139C148.771 80.6139 148.657 80.5339 148.551 80.3739C148.444 80.2005 148.391 80.0472 148.391 79.9139C148.391 79.5272 148.571 79.1939 148.931 78.9139C149.304 78.6339 149.744 78.4272 150.251 78.2939C150.757 78.1472 151.211 78.0739 151.611 78.0739C152.011 78.0739 152.471 78.1539 152.991 78.3139C153.511 78.4605 153.937 78.6672 154.271 78.9339C154.671 79.2805 154.977 79.6872 155.191 80.1539C155.417 80.6072 155.531 81.1072 155.531 81.6539C155.531 81.8272 155.517 82.0872 155.491 82.4339C155.464 82.8072 155.451 83.1272 155.451 83.3939C155.451 83.5139 155.437 83.6939 155.411 83.9339C155.384 84.2272 155.371 84.4605 155.371 84.6339C155.371 84.7939 155.431 84.9339 155.551 85.0539C155.671 85.1605 155.811 85.2139 155.971 85.2139L156.531 85.1939C156.677 85.1939 156.791 85.2472 156.871 85.3539C156.951 85.4605 156.991 85.5939 156.991 85.7539ZM150.551 85.2339C151.124 85.2339 151.604 85.1739 151.991 85.0539C152.377 84.9339 152.844 84.7139 153.391 84.3939C153.444 84.1672 153.477 83.8672 153.491 83.4939C152.757 83.1472 152.151 82.9739 151.671 82.9739C151.124 82.9739 150.637 83.0739 150.211 83.2739C149.784 83.4739 149.571 83.8272 149.571 84.3339C149.571 84.5872 149.677 84.8005 149.891 84.9739C150.104 85.1472 150.324 85.2339 150.551 85.2339ZM157.94 79.7539C157.754 79.7272 157.6 79.6539 157.48 79.5339C157.374 79.4005 157.32 79.2405 157.32 79.0539C157.32 78.8139 157.414 78.6139 157.6 78.4539C157.64 78.4139 157.707 78.3805 157.8 78.3539C157.894 78.3139 157.967 78.2805 158.02 78.2539C158.314 78.1605 158.5 78.0872 158.58 78.0339C158.887 77.8472 159.094 77.5405 159.2 77.1139C159.307 76.6072 159.374 76.2605 159.4 76.0739C159.427 75.7805 159.52 75.5605 159.68 75.4139C159.854 75.2539 160.067 75.1739 160.32 75.1739C160.654 75.1739 160.887 75.2605 161.02 75.4339C161.154 75.6072 161.22 75.9272 161.22 76.3939C161.22 77.0072 161.074 77.5872 160.78 78.1339C160.967 78.1339 161.274 78.1205 161.7 78.0939C162.34 78.0672 162.787 78.0539 163.04 78.0539C163.267 78.0539 163.46 78.1139 163.62 78.2339C163.794 78.3405 163.88 78.5005 163.88 78.7139C163.88 79.2205 163.647 79.5205 163.18 79.6139C162.754 79.7339 161.98 79.8072 160.86 79.8339C160.767 81.1405 160.72 82.1739 160.72 82.9339C160.72 83.4005 160.74 83.7339 160.78 83.9339C160.86 84.3472 160.994 84.6539 161.18 84.8539C161.38 85.0405 161.674 85.1339 162.06 85.1339C162.247 85.1339 162.527 85.0872 162.9 84.9939C163.127 84.9272 163.307 84.8939 163.44 84.8939C163.614 84.8939 163.747 84.9539 163.84 85.0739C163.934 85.1939 163.98 85.3539 163.98 85.5539C163.98 85.9139 163.747 86.2139 163.28 86.4539C162.814 86.6805 162.26 86.7939 161.62 86.7939C161.22 86.7939 160.827 86.7005 160.44 86.5139C160.054 86.3139 159.727 86.0739 159.46 85.7939C159.407 85.7672 159.327 85.6205 159.22 85.3539C159.127 85.0872 159.034 84.7939 158.94 84.4739C158.9 84.3139 158.88 83.9272 158.88 83.3139C158.88 82.7272 158.92 81.7139 159 80.2739L159.02 79.8339C158.927 79.8339 158.754 79.8272 158.5 79.8139C158.247 79.7872 158.06 79.7672 157.94 79.7539ZM172.641 86.7939C172.187 86.7939 171.841 86.7272 171.601 86.5939C171.361 86.4472 171.101 86.1805 170.821 85.7939C170.474 86.1005 169.954 86.3472 169.261 86.5339C168.581 86.7205 167.994 86.8139 167.501 86.8139C166.687 86.8139 166.027 86.5939 165.521 86.1539C165.027 85.7005 164.781 85.0405 164.781 84.1739C164.781 83.8005 164.881 83.4605 165.081 83.1539C165.294 82.8339 165.567 82.5539 165.901 82.3139C166.274 82.0605 166.714 81.8605 167.221 81.7139C167.741 81.5672 168.214 81.4939 168.641 81.4939C169.361 81.4939 170.001 81.5605 170.561 81.6939V81.6739C170.561 80.9539 170.381 80.4605 170.021 80.1939C169.674 79.9139 169.114 79.7739 168.341 79.7739C167.847 79.7739 167.421 79.9939 167.061 80.4339C166.927 80.6072 166.647 80.6939 166.221 80.6939C166.007 80.6939 165.847 80.6072 165.741 80.4339C165.647 80.2472 165.601 80.0605 165.601 79.8739C165.601 79.4872 165.761 79.1539 166.081 78.8739C166.414 78.5939 166.814 78.3872 167.281 78.2539C167.747 78.1072 168.181 78.0339 168.581 78.0339C168.967 78.0339 169.427 78.1139 169.961 78.2739C170.494 78.4339 170.927 78.6472 171.261 78.9139C171.661 79.2605 171.967 79.6672 172.181 80.1339C172.407 80.5872 172.521 81.0872 172.521 81.6339C172.521 81.8072 172.507 82.0672 172.481 82.4139C172.454 82.8139 172.441 83.1405 172.441 83.3939C172.441 83.5139 172.427 83.6672 172.401 83.8539C172.374 84.0939 172.361 84.2939 172.361 84.4539C172.361 84.6272 172.414 84.7939 172.521 84.9539C172.627 85.1139 172.774 85.2472 172.961 85.3539C173.134 85.4472 173.247 85.5472 173.301 85.6539C173.354 85.7605 173.381 85.8805 173.381 86.0139C173.381 86.1472 173.294 86.3139 173.121 86.5139C172.961 86.7005 172.801 86.7939 172.641 86.7939ZM168.641 82.9739C168.121 82.9739 167.661 83.0739 167.261 83.2739C166.861 83.4739 166.661 83.8272 166.661 84.3339C166.661 84.5872 166.747 84.8005 166.921 84.9739C167.107 85.1472 167.307 85.2339 167.521 85.2339C168.094 85.2339 168.574 85.1739 168.961 85.0539C169.347 84.9339 169.814 84.7139 170.361 84.3939C170.427 84.1805 170.467 83.8805 170.481 83.4939C170.481 83.3472 170.487 83.2339 170.501 83.1539C169.781 83.0339 169.161 82.9739 168.641 82.9739Z" fill="black"/>
<path d="M210.424 68.8949C210.419 69.0281 210.372 69.3933 210.284 69.9905C210.084 71.4508 209.956 72.9338 209.901 74.4395C209.853 75.7586 209.836 76.7653 209.85 77.4596C209.865 78.154 209.946 78.6906 210.092 79.0695C210.239 79.4351 210.478 79.624 210.812 79.6362C211.451 79.6596 211.763 79.8845 211.748 80.3109C211.737 80.5907 211.589 80.8254 211.301 81.015C211.015 81.1913 210.705 81.2734 210.372 81.2612C209.972 81.2466 209.602 81.1397 209.263 80.9405C208.923 80.7413 208.661 80.4448 208.475 80.0511C208.18 80.4539 207.761 80.7721 207.219 81.0058C206.691 81.2266 206.18 81.328 205.687 81.31C204.927 81.2822 204.26 81.0977 203.686 80.7565C203.111 80.4153 202.674 79.9656 202.374 79.4076C202.075 78.8363 201.937 78.2175 201.962 77.5513C201.985 76.9118 202.081 76.3015 202.249 75.7206C202.431 75.1268 202.662 74.6416 202.943 74.265C203.321 73.7718 203.815 73.3896 204.426 73.1184C205.05 72.8344 205.655 72.7031 206.241 72.7245C206.601 72.7377 206.938 72.8234 207.252 72.9817C207.567 73.1266 207.841 73.3034 208.074 73.512C208.106 72.6193 208.12 72.0594 208.115 71.8324L208.13 71.4127C208.176 70.1735 208.289 69.2704 208.47 68.7033C208.637 68.149 209 67.8821 209.56 67.9026C209.866 67.9138 210.09 67.9887 210.232 68.1273C210.374 68.2659 210.438 68.5218 210.424 68.8949ZM203.942 77.5837C203.92 78.1967 204.075 78.696 204.408 79.0817C204.754 79.468 205.173 79.6701 205.666 79.6882C206.372 79.714 206.9 79.5132 207.249 79.0856C207.612 78.6586 207.806 78.0986 207.831 77.4058L207.883 75.4264C207.385 74.8344 206.856 74.5282 206.296 74.5077C205.91 74.4936 205.54 74.5801 205.186 74.7673C204.846 74.9417 204.569 75.2184 204.355 75.5975C204.112 76.0289 203.975 76.691 203.942 77.5837ZM221.769 80.8776C221.758 81.1707 221.589 81.4114 221.262 81.5995C220.948 81.7882 220.658 81.8776 220.392 81.8679C219.885 81.8494 219.481 81.7745 219.179 81.6434C218.891 81.4994 218.626 81.2496 218.386 80.8939C218.028 81.1877 217.547 81.4036 216.941 81.5415C216.336 81.6662 215.781 81.7192 215.274 81.7007C214.448 81.6705 213.777 81.4258 213.26 80.9666C212.743 80.4941 212.501 79.8248 212.533 78.9587C212.546 78.5856 212.659 78.2495 212.87 77.9503C213.081 77.6378 213.365 77.368 213.72 77.1409C214.116 76.9018 214.562 76.7247 215.06 76.6095C215.559 76.481 216.074 76.4264 216.607 76.4459C216.887 76.4562 217.218 76.5217 217.601 76.6424C217.983 76.7631 218.279 76.8873 218.488 77.0151L218.499 76.6953C218.526 75.9757 218.37 75.4764 218.034 75.1972C217.698 74.9048 217.143 74.7444 216.37 74.7161C216.144 74.7078 215.916 74.7462 215.686 74.8312C215.469 74.9166 215.218 75.0342 214.932 75.1839C214.552 75.3701 214.195 75.4571 213.862 75.4449C213.742 75.4405 213.632 75.3564 213.531 75.1926C213.431 75.0155 213.383 74.8604 213.388 74.7271C213.402 74.3407 213.594 74.0142 213.964 73.7475C214.347 73.4813 214.795 73.2909 215.306 73.1762C215.818 73.0481 216.273 72.9914 216.673 73.006C217.073 73.0207 217.529 73.1174 218.043 73.2963C218.558 73.4619 218.976 73.684 219.3 73.9627C219.687 74.3238 219.978 74.7414 220.175 75.2155C220.385 75.6768 220.479 76.1806 220.46 76.7269C220.453 76.9002 220.43 77.1595 220.391 77.505C220.351 77.8771 220.326 78.1964 220.316 78.4629C220.312 78.5828 220.292 78.7622 220.256 79.001C220.219 79.2932 220.197 79.5259 220.191 79.6991C220.185 79.859 220.24 80.0011 220.355 80.1254C220.471 80.2364 220.609 80.2948 220.769 80.3006L221.329 80.3011C221.476 80.3065 221.587 80.3639 221.663 80.4734C221.739 80.583 221.775 80.7177 221.769 80.8776ZM215.352 80.1225C215.925 80.1435 216.407 80.1011 216.798 79.9953C217.188 79.8895 217.663 79.6867 218.221 79.3869C218.282 79.1623 218.327 78.8637 218.354 78.4911C217.633 78.1179 217.034 77.9225 216.554 77.905C216.008 77.885 215.518 77.9671 215.084 78.1514C214.65 78.3357 214.424 78.681 214.406 79.1873C214.396 79.4405 214.495 79.6575 214.702 79.8386C214.909 80.0196 215.125 80.1142 215.352 80.1225ZM222.937 74.9163C222.751 74.8828 222.601 74.8039 222.485 74.6796C222.384 74.5425 222.336 74.3806 222.343 74.1941C222.352 73.9543 222.452 73.7578 222.645 73.6047C222.686 73.5662 222.754 73.5353 222.848 73.5121C222.943 73.4755 223.018 73.4449 223.072 73.4202C223.368 73.3377 223.558 73.2712 223.639 73.2208C223.953 73.0455 224.171 72.7466 224.293 72.3241C224.418 71.8217 224.497 71.4777 224.531 71.2921C224.568 71 224.669 70.7835 224.835 70.6428C225.014 70.4892 225.23 70.4171 225.483 70.4264C225.816 70.4385 226.046 70.5337 226.173 70.7118C226.3 70.8899 226.355 71.2121 226.338 71.6784C226.315 72.2914 226.147 72.8656 225.834 73.4012C226.021 73.408 226.328 73.4059 226.755 73.3948C227.396 73.3916 227.843 73.3946 228.096 73.4039C228.322 73.4121 228.513 73.4792 228.669 73.6049C228.838 73.7179 228.919 73.8809 228.911 74.0941C228.893 74.6004 228.648 74.8917 228.179 74.9679C227.748 75.0723 226.972 75.1173 225.852 75.103C225.711 76.4054 225.627 77.4363 225.599 78.1958C225.582 78.6621 225.59 78.996 225.622 79.1973C225.687 79.6133 225.809 79.9246 225.988 80.1313C226.181 80.3252 226.471 80.4292 226.858 80.4433C227.044 80.4501 227.326 80.4137 227.702 80.3341C227.931 80.2758 228.112 80.249 228.245 80.2539C228.419 80.2602 228.55 80.3251 228.639 80.4484C228.728 80.5717 228.768 80.7333 228.761 80.9332C228.748 81.293 228.504 81.5842 228.029 81.807C227.554 82.0165 226.997 82.1095 226.357 82.0861C225.958 82.0715 225.568 81.9638 225.188 81.7632C224.809 81.5492 224.491 81.2974 224.235 81.0078C224.183 80.9792 224.108 80.8297 224.011 80.5593C223.928 80.2894 223.845 79.9929 223.764 79.6697C223.73 79.5083 223.724 79.1212 223.746 78.5083C223.768 77.922 223.845 76.9108 223.977 75.4747L224.013 75.0357C223.92 75.0323 223.747 75.0193 223.494 74.9967C223.242 74.9608 223.056 74.934 222.937 74.9163ZM237.37 82.4889C236.917 82.4724 236.573 82.3931 236.338 82.2511C236.104 82.0957 235.854 81.8197 235.588 81.4231C235.23 81.7169 234.702 81.9444 234.002 82.1056C233.316 82.2673 232.726 82.3391 232.233 82.321C231.42 82.2913 230.769 82.0473 230.278 81.5891C229.802 81.118 229.58 80.4495 229.611 79.5834C229.625 79.2103 229.737 78.8742 229.948 78.575C230.173 78.263 230.457 77.9932 230.799 77.7656C231.181 77.5261 231.628 77.3423 232.14 77.2142C232.665 77.0867 233.14 77.0307 233.567 77.0463C234.286 77.0726 234.923 77.1626 235.478 77.3163L235.479 77.2963C235.505 76.5768 235.343 76.0772 234.993 75.7976C234.657 75.5051 234.103 75.3447 233.33 75.3165C232.837 75.2984 232.402 75.5027 232.027 75.9292C231.887 76.0976 231.604 76.1739 231.178 76.1583C230.964 76.1506 230.808 76.0581 230.707 75.881C230.621 75.691 230.581 75.5028 230.588 75.3162C230.602 74.9298 230.774 74.6026 231.104 74.3344C231.448 74.0668 231.855 73.8749 232.326 73.7587C232.798 73.6292 233.234 73.5718 233.633 73.5864C234.02 73.6005 234.476 73.6973 235.004 73.8767C235.531 74.0561 235.956 74.2851 236.279 74.5638C236.666 74.9248 236.958 75.3424 237.154 75.8166C237.364 76.2779 237.459 76.7817 237.439 77.328C237.433 77.5012 237.41 77.7606 237.371 78.106C237.329 78.5048 237.304 78.8307 237.295 79.0839C237.29 79.2038 237.271 79.3566 237.238 79.5421C237.203 79.781 237.182 79.9804 237.176 80.1403C237.17 80.3135 237.217 80.482 237.318 80.6458C237.418 80.8096 237.56 80.9482 237.743 81.0616C237.913 81.1612 238.022 81.2653 238.072 81.3738C238.121 81.4824 238.143 81.6033 238.138 81.7365C238.133 81.8698 238.041 82.0332 237.86 82.2267C237.694 82.4074 237.53 82.4948 237.37 82.4889ZM233.513 78.5253C232.993 78.5063 232.53 78.5894 232.123 78.7746C231.716 78.9599 231.503 79.3057 231.484 79.812C231.475 80.0652 231.554 80.2815 231.721 80.4611C231.901 80.6411 232.098 80.735 232.311 80.7428C232.884 80.7638 233.366 80.7214 233.756 80.6156C234.147 80.5098 234.622 80.307 235.18 80.0072C235.254 79.7965 235.305 79.4981 235.332 79.1122C235.338 78.9656 235.349 78.8526 235.365 78.7732C234.65 78.6269 234.032 78.5443 233.513 78.5253Z" fill="black"/>
<path d="M281.592 49.8933C281.576 50.0256 281.497 50.3852 281.356 50.9722C281.027 52.4091 280.769 53.8749 280.58 55.3698C280.416 56.6795 280.31 57.6807 280.263 58.3736C280.216 59.0665 280.249 59.6082 280.361 59.9986C280.474 60.3757 280.697 60.5851 281.027 60.6268C281.662 60.7067 281.953 60.9583 281.9 61.3816C281.865 61.6595 281.696 61.8801 281.393 62.0436C281.092 62.1938 280.776 62.2481 280.446 62.2065C280.049 62.1565 279.69 62.0173 279.369 61.7888C279.049 61.5603 278.813 61.2418 278.663 60.8331C278.334 61.2083 277.889 61.4882 277.328 61.673C276.782 61.8461 276.264 61.9019 275.775 61.8403C275.021 61.7454 274.373 61.5026 273.831 61.1118C273.288 60.7211 272.893 60.2345 272.644 59.6522C272.396 59.0566 272.314 58.4281 272.397 57.7666C272.477 57.1316 272.626 56.5323 272.845 55.9685C273.079 55.3932 273.352 54.9304 273.665 54.58C274.085 54.1223 274.612 53.7853 275.244 53.5692C275.89 53.3416 276.505 53.2644 277.087 53.3376C277.444 53.3826 277.772 53.4978 278.071 53.6833C278.372 53.8555 278.629 54.0558 278.842 54.2843C278.954 53.3979 279.017 52.8415 279.032 52.6149L279.085 52.1982C279.24 50.9679 279.432 50.0783 279.663 49.5295C279.878 48.9922 280.264 48.7585 280.819 48.8284C281.123 48.8667 281.34 48.9612 281.469 49.1118C281.598 49.2624 281.639 49.5229 281.592 49.8933ZM274.367 57.9742C274.29 58.5827 274.4 59.0938 274.698 59.5076C275.008 59.9229 275.408 60.1614 275.898 60.223C276.599 60.3113 277.142 60.1579 277.528 59.763C277.927 59.3697 278.17 58.8291 278.256 58.1412L278.484 56.1742C278.039 55.5405 277.539 55.1886 276.984 55.1187C276.6 55.0704 276.224 55.1238 275.855 55.279C275.501 55.4225 275.2 55.6737 274.954 56.0323C274.674 56.4406 274.478 57.0879 274.367 57.9742ZM291.832 62.8333C291.795 63.1243 291.605 63.349 291.263 63.5075C290.934 63.6677 290.637 63.7311 290.372 63.6978C289.87 63.6345 289.474 63.5242 289.184 63.3668C288.91 63.1979 288.669 62.9257 288.461 62.5501C288.078 62.811 287.58 62.9834 286.964 63.0673C286.351 63.1379 285.793 63.1415 285.29 63.0782C284.47 62.975 283.822 62.6718 283.348 62.1687C282.876 61.6523 282.694 60.9641 282.802 60.1043C282.848 59.7338 282.99 59.409 283.227 59.1297C283.465 58.8372 283.771 58.5935 284.145 58.3987C284.561 58.1956 285.021 58.0587 285.527 57.9881C286.035 57.9041 286.554 57.8955 287.083 57.9621C287.361 57.9971 287.685 58.0916 288.055 58.2457C288.425 58.3998 288.709 58.5497 288.905 58.6954L288.945 58.378C289.035 57.6636 288.925 57.1525 288.614 56.8446C288.305 56.5235 287.767 56.3147 287 56.2181C286.775 56.1898 286.544 56.2078 286.308 56.2721C286.084 56.338 285.824 56.4329 285.526 56.5567C285.131 56.7085 284.768 56.7636 284.437 56.722C284.318 56.707 284.215 56.6135 284.13 56.4414C284.045 56.2561 284.012 56.0973 284.028 55.965C284.077 55.5814 284.297 55.2731 284.689 55.0403C285.094 54.8091 285.557 54.659 286.076 54.59C286.597 54.5077 287.056 54.4916 287.453 54.5415C287.85 54.5915 288.296 54.7283 288.792 54.952C289.29 55.1624 289.687 55.4208 289.985 55.727C290.338 56.1209 290.592 56.5627 290.745 57.0523C290.913 57.5304 290.963 58.0406 290.895 58.583C290.873 58.755 290.828 59.0113 290.758 59.3519C290.685 59.719 290.632 60.0348 290.598 60.2994C290.583 60.4185 290.548 60.5954 290.491 60.8302C290.428 61.1179 290.386 61.3477 290.364 61.5197C290.344 61.6785 290.386 61.8249 290.49 61.9589C290.596 62.0797 290.728 62.1501 290.887 62.1701L291.445 62.2202C291.591 62.2385 291.696 62.3056 291.763 62.4214C291.829 62.5372 291.852 62.6745 291.832 62.8333ZM285.507 61.5131C286.076 61.5847 286.56 61.5851 286.958 61.5143C287.357 61.4436 287.847 61.2836 288.43 61.0343C288.511 60.8161 288.581 60.5226 288.641 60.1539C287.957 59.7183 287.377 59.4706 286.9 59.4107C286.358 59.3424 285.863 59.3808 285.414 59.526C284.966 59.6711 284.71 59.9951 284.647 60.4978C284.615 60.7491 284.695 60.9741 284.885 61.1727C285.075 61.3713 285.282 61.4848 285.507 61.5131ZM293.523 56.9988C293.341 56.9491 293.198 56.8571 293.094 56.7231C293.005 56.5775 292.972 56.4121 292.995 56.2269C293.025 55.9888 293.143 55.802 293.348 55.6665C293.393 55.6318 293.463 55.6071 293.559 55.5923C293.657 55.5643 293.734 55.5404 293.79 55.5206C294.093 55.4646 294.287 55.4151 294.373 55.3722C294.701 55.2253 294.944 54.9468 295.103 54.5368C295.272 54.0475 295.382 53.7118 295.431 53.53C295.494 53.2422 295.614 53.0356 295.792 52.9101C295.983 52.773 296.205 52.7202 296.456 52.7519C296.787 52.7935 297.008 52.9086 297.119 53.0973C297.229 53.2859 297.255 53.6117 297.197 54.0747C297.12 54.6833 296.903 55.2404 296.543 55.7462C296.728 55.7695 297.034 55.7945 297.461 55.8214C298.099 55.8748 298.544 55.9174 298.796 55.949C299.02 55.9773 299.205 56.061 299.349 56.2C299.507 56.3275 299.573 56.4971 299.547 56.7087C299.483 57.2114 299.214 57.48 298.74 57.5143C298.301 57.5801 297.525 57.5562 296.41 57.4428C296.155 58.7276 295.979 59.747 295.884 60.5011C295.826 60.9641 295.804 61.2973 295.819 61.5008C295.847 61.9208 295.941 62.2418 296.101 62.4635C296.276 62.6737 296.555 62.8029 296.939 62.8512C297.124 62.8745 297.408 62.8632 297.79 62.8172C298.023 62.7794 298.206 62.7688 298.338 62.7854C298.51 62.8071 298.635 62.8832 298.713 63.014C298.79 63.1447 298.817 63.3093 298.792 63.5077C298.747 63.8649 298.478 64.1334 297.985 64.3132C297.493 64.4798 296.93 64.5232 296.295 64.4433C295.898 64.3933 295.52 64.2516 295.159 64.0181C294.801 63.7714 294.507 63.4925 294.277 63.1814C294.227 63.1482 294.166 62.9927 294.094 62.7148C294.035 62.4386 293.979 62.1359 293.926 61.8068C293.906 61.643 293.935 61.2569 294.011 60.6483C294.085 60.0663 294.251 59.0659 294.51 57.6471L294.585 57.2131C294.492 57.2014 294.321 57.1731 294.071 57.1283C293.823 57.0702 293.641 57.027 293.523 56.9988ZM307.229 65.8195C306.78 65.7629 306.444 65.6534 306.223 65.4912C306.003 65.3157 305.778 65.0186 305.549 64.6C305.166 64.861 304.62 65.0408 303.908 65.1394C303.21 65.2397 302.617 65.2591 302.127 65.1975C301.32 65.0959 300.693 64.7952 300.245 64.2954C299.812 63.784 299.65 63.0983 299.758 62.2385C299.805 61.868 299.946 61.5432 300.183 61.2639C300.435 60.973 300.741 60.7294 301.102 60.5329C301.504 60.3281 301.965 60.1847 302.486 60.1024C303.02 60.0218 303.499 60.0082 303.923 60.0615C304.637 60.1514 305.264 60.2974 305.803 60.4997L305.805 60.4798C305.895 59.7655 305.778 59.2535 305.454 58.944C305.145 58.6229 304.607 58.414 303.84 58.3175C303.35 58.2559 302.899 58.4209 302.487 58.8125C302.333 58.9678 302.045 59.0188 301.621 58.9655C301.41 58.9389 301.262 58.8329 301.178 58.6476C301.108 58.4508 301.085 58.2597 301.109 58.0745C301.157 57.6909 301.357 57.3801 301.71 57.1423C302.075 56.9061 302.498 56.751 302.978 56.677C303.459 56.5897 303.898 56.5711 304.295 56.6211C304.679 56.6693 305.125 56.8062 305.634 57.0315C306.144 57.2569 306.547 57.5226 306.844 57.8288C307.198 58.2227 307.451 58.6645 307.605 59.1542C307.773 59.6323 307.823 60.1425 307.755 60.6849C307.733 60.8569 307.687 61.1132 307.618 61.4538C307.541 61.8473 307.487 62.1698 307.456 62.4211C307.441 62.5402 307.408 62.6907 307.358 62.8725C307.302 63.1073 307.264 63.3041 307.244 63.4628C307.222 63.6348 307.254 63.8068 307.34 63.9789C307.426 64.151 307.555 64.3016 307.727 64.4307C307.887 64.545 307.987 64.6583 308.027 64.7708C308.066 64.8833 308.078 65.0057 308.061 65.138C308.044 65.2703 307.938 65.4248 307.741 65.6016C307.559 65.7668 307.388 65.8395 307.229 65.8195ZM303.738 61.5299C303.222 61.4649 302.753 61.5067 302.331 61.6552C301.909 61.8037 301.667 62.1293 301.603 62.632C301.572 62.8833 301.631 63.1058 301.781 63.2994C301.945 63.4947 302.133 63.6057 302.344 63.6323C302.913 63.7039 303.397 63.7043 303.796 63.6336C304.194 63.5628 304.685 63.4028 305.267 63.1536C305.36 62.9502 305.437 62.6576 305.498 62.2756C305.517 62.1301 305.538 62.0185 305.561 61.9407C304.861 61.7318 304.254 61.5948 303.738 61.5299Z" fill="black"/>
<rect x="338.105" y="1.0763" width="61" height="60" rx="3" transform="rotate(4.55746 338.105 1.0763)" fill="white"/>
<rect x="338.105" y="1.0763" width="61" height="60" rx="3" transform="rotate(4.55746 338.105 1.0763)" stroke="black" stroke-width="2"/>
<rect x="338.105" y="1.0763" width="61" height="60" rx="3" transform="rotate(4.55746 338.105 1.0763)" stroke="black" stroke-opacity="0.2" stroke-width="2"/>
<path d="M358.302 27.2435C358.291 27.3764 358.229 27.7393 358.115 28.3321C357.852 29.7825 357.661 31.2586 357.541 32.7605C357.436 34.0764 357.376 35.0814 357.361 35.7757C357.346 36.4701 357.403 37.0097 357.533 37.3945C357.664 37.7661 357.895 37.9651 358.227 37.9916C358.865 38.0425 359.167 38.2806 359.134 38.7059C359.111 38.985 358.953 39.2131 358.658 39.3902C358.364 39.5541 358.051 39.6227 357.718 39.5962C357.32 39.5645 356.955 39.4418 356.624 39.2281C356.293 39.0145 356.044 38.707 355.875 38.3057C355.563 38.6955 355.131 38.9954 354.579 39.2056C354.042 39.4035 353.527 39.4829 353.036 39.4437C352.278 39.3833 351.62 39.1703 351.06 38.8047C350.501 38.4391 350.083 37.9711 349.808 37.4007C349.533 36.8171 349.423 36.193 349.476 35.5284C349.526 34.8904 349.648 34.2849 349.841 33.7117C350.048 33.1263 350.3 32.6515 350.597 32.2872C350.996 31.8108 351.506 31.4502 352.127 31.2055C352.763 30.9485 353.373 30.8433 353.958 30.8899C354.317 30.9185 354.65 31.0187 354.958 31.1903C355.266 31.3486 355.532 31.537 355.755 31.7555C355.826 30.8649 355.864 30.3062 355.869 30.0792L355.902 29.6605C356.001 28.4244 356.152 27.527 356.357 26.9682C356.548 26.4216 356.923 26.1706 357.481 26.2151C357.787 26.2394 358.007 26.3239 358.143 26.4685C358.278 26.613 358.331 26.8714 358.302 27.2435ZM351.452 35.6459C351.404 36.2573 351.537 36.7628 351.853 37.1625C352.182 37.5633 352.593 37.7832 353.085 37.8224C353.789 37.8786 354.325 37.7006 354.692 37.2885C355.073 36.8774 355.291 36.3263 355.346 35.6352L355.483 33.6599C355.01 33.047 354.495 32.7183 353.936 32.6738C353.551 32.6431 353.178 32.7137 352.816 32.8855C352.469 33.0451 352.18 33.3097 351.95 33.6792C351.689 34.0998 351.523 34.7554 351.452 35.6459ZM369.121 39.7026C369.098 39.995 368.919 40.2282 368.584 40.4021C368.262 40.5771 367.969 40.6541 367.703 40.6329C367.198 40.5926 366.797 40.5005 366.501 40.3565C366.219 40.2003 365.966 39.9393 365.741 39.5736C365.371 39.8518 364.88 40.0467 364.27 40.1586C363.66 40.2571 363.102 40.2862 362.597 40.246C361.773 40.1803 361.113 39.9069 360.616 39.426C360.121 38.9317 359.907 38.2526 359.976 37.3887C360.006 37.0165 360.132 36.6855 360.356 36.3957C360.581 36.0926 360.876 35.8352 361.24 35.6235C361.646 35.4017 362.1 35.244 362.602 35.1502C363.106 35.0432 363.623 35.0109 364.155 35.0533C364.434 35.0756 364.762 35.1552 365.139 35.2923C365.516 35.4293 365.806 35.5661 366.009 35.7027L366.035 35.3837C366.092 34.666 365.958 34.1604 365.634 33.8671C365.31 33.5604 364.763 33.3764 363.992 33.3149C363.767 33.2969 363.537 33.3254 363.303 33.4004C363.083 33.4765 362.827 33.5832 362.536 33.7204C362.148 33.8901 361.787 33.9617 361.455 33.9353C361.336 33.9257 361.229 33.837 361.135 33.669C361.043 33.4877 361.002 33.3307 361.012 33.1977C361.043 32.8123 361.249 32.4943 361.63 32.2438C362.025 31.9944 362.48 31.8233 362.995 31.7307C363.512 31.6247 363.97 31.5876 364.368 31.6194C364.767 31.6512 365.219 31.7675 365.725 31.9683C366.232 32.1558 366.641 32.3958 366.952 32.6881C367.323 33.0654 367.596 33.4952 367.772 33.9773C367.962 34.4472 368.035 34.9546 367.992 35.4996C367.978 35.6724 367.944 35.9305 367.89 36.2739C367.833 36.644 367.795 36.9619 367.774 37.2277C367.764 37.3473 367.736 37.5257 367.691 37.7628C367.641 38.0531 367.609 38.2847 367.595 38.4574C367.583 38.6169 367.631 38.7613 367.741 38.8904C367.852 39.0063 367.988 39.0706 368.147 39.0833L368.707 39.1078C368.853 39.1195 368.962 39.1817 369.033 39.2944C369.105 39.407 369.134 39.5431 369.121 39.7026ZM362.743 38.6726C363.314 38.7181 363.798 38.6964 364.193 38.6075C364.588 38.5186 365.07 38.3364 365.641 38.0609C365.712 37.8392 365.769 37.5428 365.812 37.1717C365.108 36.7678 364.517 36.5468 364.039 36.5087C363.494 36.4653 363.001 36.5263 362.56 36.6917C362.118 36.8572 361.878 37.1925 361.837 37.6975C361.817 37.9501 361.907 38.1712 362.106 38.3609C362.304 38.5507 362.517 38.6545 362.743 38.6726ZM370.545 33.7971C370.361 33.7556 370.214 33.6704 370.103 33.5412C370.008 33.3998 369.967 33.2361 369.982 33.05C370.001 32.8108 370.11 32.6188 370.309 32.4742C370.352 32.4375 370.421 32.4095 370.516 32.3904C370.612 32.3579 370.688 32.3305 370.743 32.3082C371.043 32.2384 371.235 32.1802 371.319 32.1333C371.64 31.9716 371.87 31.6824 372.01 31.2655C372.157 30.7689 372.251 30.4287 372.292 30.2447C372.342 29.9544 372.453 29.7425 372.624 29.609C372.809 29.4633 373.028 29.4005 373.281 29.4207C373.613 29.4471 373.839 29.5521 373.958 29.7354C374.077 29.9188 374.118 30.2431 374.081 30.7083C374.032 31.3197 373.84 31.8862 373.504 32.4078C373.69 32.4227 373.997 32.4338 374.425 32.4411C375.065 32.4653 375.511 32.4875 375.764 32.5077C375.989 32.5257 376.177 32.6009 376.327 32.7332C376.492 32.8533 376.565 33.0197 376.548 33.2323C376.508 33.7374 376.252 34.0179 375.779 34.0739C375.344 34.1596 374.568 34.1712 373.449 34.1088C373.252 35.4039 373.123 36.4303 373.063 37.1879C373.026 37.6531 373.019 37.987 373.043 38.1895C373.09 38.6079 373.199 38.9242 373.369 39.1384C373.554 39.3403 373.839 39.4567 374.224 39.4874C374.41 39.5022 374.693 39.478 375.073 39.4146C375.304 39.3662 375.486 39.3472 375.619 39.3578C375.792 39.3716 375.92 39.442 376.003 39.569C376.087 39.6961 376.12 39.8593 376.105 40.0587C376.076 40.4175 375.82 40.698 375.335 40.9002C374.852 41.0891 374.292 41.1581 373.654 41.1072C373.255 41.0754 372.87 40.9511 372.5 40.7343C372.13 40.5042 371.823 40.239 371.58 39.9387C371.529 39.9079 371.461 39.7554 371.376 39.4811C371.304 39.2078 371.234 38.908 371.166 38.5816C371.139 38.4189 371.15 38.0319 371.199 37.4205C371.245 36.8357 371.366 35.8287 371.56 34.3996L371.615 33.9626C371.522 33.9552 371.349 33.9348 371.098 33.9014C370.848 33.8547 370.663 33.8199 370.545 33.7971ZM384.639 41.9829C384.187 41.9469 383.847 41.8529 383.618 41.7009C383.391 41.5356 383.153 41.2491 382.904 40.8414C382.534 41.1196 381.996 41.3241 381.291 41.4551C380.598 41.5872 380.006 41.6336 379.514 41.5944C378.703 41.5298 378.063 41.258 377.593 40.7792C377.137 40.2881 376.943 39.6105 377.012 38.7466C377.042 38.3745 377.169 38.0435 377.392 37.7537C377.63 37.4516 377.925 37.1942 378.276 36.9815C378.669 36.7586 379.123 36.5942 379.64 36.4883C380.17 36.3834 380.648 36.3479 381.073 36.3818C381.791 36.439 382.423 36.5563 382.971 36.7337L382.973 36.7138C383.03 35.9961 382.89 35.49 382.552 35.1956C382.229 34.8889 381.681 34.7049 380.911 34.6434C380.419 34.6042 379.976 34.7896 379.582 35.1996C379.435 35.3618 379.149 35.4259 378.724 35.392C378.511 35.3751 378.359 35.276 378.266 35.0947C378.188 34.9012 378.156 34.7114 378.171 34.5254C378.202 34.1399 378.388 33.8204 378.729 33.5667C379.084 33.314 379.499 33.1398 379.975 33.044C380.452 32.9349 380.889 32.8962 381.288 32.928C381.673 32.9587 382.126 33.075 382.645 33.2769C383.164 33.4787 383.579 33.7258 383.89 34.0181C384.261 34.3955 384.534 34.8252 384.71 35.3074C384.9 35.7773 384.973 36.2847 384.93 36.8297C384.916 37.0024 384.882 37.2606 384.828 37.604C384.769 38.0006 384.73 38.3252 384.71 38.5777C384.7 38.6974 384.675 38.8491 384.634 39.0331C384.588 39.2702 384.559 39.4685 384.546 39.628C384.532 39.8008 384.572 39.9712 384.666 40.1392C384.759 40.3071 384.895 40.4517 385.073 40.5729C385.238 40.6797 385.343 40.7884 385.388 40.8989C385.432 41.0095 385.449 41.1312 385.439 41.2641C385.428 41.3971 385.329 41.5563 385.14 41.7419C384.966 41.9153 384.799 41.9956 384.639 41.9829ZM380.955 37.8571C380.437 37.8158 379.97 37.8789 379.556 38.0465C379.141 38.2141 378.914 38.5504 378.874 39.0555C378.853 39.308 378.923 39.5276 379.082 39.7141C379.254 39.9017 379.447 40.004 379.659 40.021C380.231 40.0665 380.714 40.0449 381.109 39.956C381.504 39.8671 381.987 39.6849 382.557 39.4093C382.64 39.2019 382.704 38.9061 382.748 38.5217C382.76 38.3755 382.776 38.263 382.795 38.1843C382.087 38.0075 381.474 37.8984 380.955 37.8571Z" fill="black"/>
<path d="M400.53 130.244C400.823 129.951 400.823 129.476 400.53 129.184L395.757 124.411C395.464 124.118 394.99 124.118 394.697 124.411C394.404 124.703 394.404 125.178 394.697 125.471L398.939 129.714L394.697 133.957C394.404 134.249 394.404 134.724 394.697 135.017C394.99 135.31 395.464 135.31 395.757 135.017L400.53 130.244ZM0 130.464H400V128.964H0V130.464Z" fill="black"/>
</svg>
