<svg width="383" height="101" viewBox="0 0 383 101" fill="none" xmlns="http://www.w3.org/2000/svg">
<path d="M100.502 18.7188V0.742898H106.105V3.00142H103.428V16.4531H106.105V18.7188H100.502ZM117.32 17.3196C116.098 17.3149 115.047 17.0142 114.166 16.4176C113.29 15.821 112.616 14.9569 112.142 13.8253C111.673 12.6937 111.441 11.3324 111.446 9.74148C111.446 8.1553 111.68 6.8035 112.149 5.68608C112.623 4.56865 113.297 3.71875 114.173 3.13636C115.054 2.54924 116.103 2.25568 117.32 2.25568C118.537 2.25568 119.583 2.54924 120.459 3.13636C121.34 3.72348 122.017 4.57576 122.49 5.69318C122.964 6.80587 123.198 8.1553 123.193 9.74148C123.193 11.3371 122.957 12.7008 122.483 13.8324C122.014 14.964 121.342 15.8281 120.466 16.4247C119.59 17.0213 118.541 17.3196 117.32 17.3196ZM117.32 14.7699C118.153 14.7699 118.818 14.3509 119.315 13.5128C119.813 12.6747 120.059 11.4176 120.054 9.74148C120.054 8.63826 119.94 7.7197 119.713 6.9858C119.491 6.25189 119.173 5.70028 118.761 5.33097C118.354 4.96165 117.874 4.77699 117.32 4.77699C116.491 4.77699 115.828 5.19129 115.331 6.01989C114.834 6.84848 114.583 8.08901 114.578 9.74148C114.578 10.8589 114.689 11.7917 114.912 12.5398C115.139 13.2831 115.459 13.8419 115.871 14.2159C116.283 14.5852 116.766 14.7699 117.32 14.7699ZM135.583 2.45455V17H132.508V5.37358H132.423L129.092 7.46165V4.73438L132.692 2.45455H135.583ZM142.909 17V14.7841L148.087 9.99006C148.527 9.56392 148.896 9.1804 149.195 8.83949C149.498 8.49858 149.727 8.16477 149.883 7.83807C150.04 7.50663 150.118 7.14915 150.118 6.76562C150.118 6.33949 150.021 5.97254 149.827 5.66477C149.633 5.35227 149.367 5.11316 149.031 4.94744C148.695 4.77699 148.314 4.69176 147.888 4.69176C147.443 4.69176 147.054 4.78172 146.723 4.96165C146.392 5.14157 146.136 5.39962 145.956 5.7358C145.776 6.07197 145.686 6.47206 145.686 6.93608H142.767C142.767 5.98437 142.982 5.15814 143.413 4.45739C143.844 3.75663 144.448 3.21449 145.224 2.83097C146.001 2.44744 146.896 2.25568 147.909 2.25568C148.951 2.25568 149.857 2.44034 150.629 2.80966C151.406 3.17424 152.009 3.68087 152.44 4.32955C152.871 4.97822 153.087 5.72159 153.087 6.55966C153.087 7.1089 152.978 7.65104 152.76 8.18608C152.547 8.72112 152.166 9.31534 151.616 9.96875C151.067 10.6174 150.293 11.3963 149.294 12.3054L147.17 14.3864V14.4858H153.278V17H142.909ZM164.752 17.1989C163.691 17.1989 162.747 17.0166 161.918 16.652C161.094 16.2827 160.443 15.776 159.965 15.1321C159.492 14.4834 159.248 13.7353 159.234 12.8878H162.33C162.349 13.2429 162.465 13.5554 162.678 13.8253C162.896 14.0904 163.185 14.2964 163.545 14.4432C163.905 14.59 164.309 14.6634 164.759 14.6634C165.228 14.6634 165.642 14.5805 166.002 14.4148C166.362 14.2491 166.644 14.0194 166.847 13.7259C167.051 13.4323 167.153 13.0937 167.153 12.7102C167.153 12.322 167.044 11.9787 166.826 11.6804C166.613 11.3774 166.305 11.1406 165.903 10.9702C165.505 10.7997 165.031 10.7145 164.482 10.7145H163.126V8.45597H164.482C164.946 8.45597 165.356 8.37547 165.711 8.21449C166.071 8.0535 166.35 7.83097 166.549 7.54688C166.748 7.25805 166.847 6.92188 166.847 6.53835C166.847 6.17377 166.76 5.85417 166.584 5.57955C166.414 5.30019 166.172 5.08239 165.86 4.92614C165.552 4.76989 165.192 4.69176 164.78 4.69176C164.364 4.69176 163.983 4.76752 163.637 4.91903C163.291 5.06581 163.014 5.27651 162.806 5.55114C162.598 5.82576 162.486 6.14773 162.472 6.51705H159.525C159.539 5.67898 159.778 4.94034 160.242 4.30114C160.706 3.66193 161.331 3.1624 162.117 2.80256C162.908 2.43797 163.8 2.25568 164.795 2.25568C165.798 2.25568 166.677 2.43797 167.43 2.80256C168.182 3.16714 168.767 3.65956 169.184 4.27983C169.605 4.89536 169.814 5.58665 169.809 6.35369C169.814 7.16809 169.56 7.84754 169.049 8.39205C168.542 8.93655 167.882 9.2822 167.067 9.42898V9.54261C168.137 9.67992 168.952 10.0516 169.511 10.6577C170.074 11.259 170.353 12.0118 170.349 12.9162C170.353 13.7448 170.114 14.4811 169.631 15.125C169.153 15.7689 168.493 16.2756 167.65 16.6449C166.807 17.0142 165.841 17.1989 164.752 17.1989ZM176.208 14.4432V12.0213L182.28 2.45455H184.368V5.80682H183.133L179.305 11.8651V11.9787H187.934V14.4432H176.208ZM183.189 17V13.7045L183.246 12.6321V2.45455H186.13V17H183.189ZM199.164 17.1989C198.16 17.1989 197.266 17.0142 196.48 16.6449C195.698 16.2756 195.078 15.7666 194.619 15.1179C194.159 14.4692 193.92 13.7259 193.901 12.8878H196.884C196.918 13.4512 197.154 13.9081 197.595 14.2585C198.035 14.6089 198.558 14.7841 199.164 14.7841C199.647 14.7841 200.073 14.6776 200.443 14.4645C200.817 14.2467 201.108 13.946 201.316 13.5625C201.529 13.1742 201.636 12.7292 201.636 12.2273C201.636 11.7159 201.527 11.2661 201.309 10.8778C201.096 10.4896 200.8 10.1866 200.421 9.96875C200.043 9.75095 199.609 9.63968 199.122 9.63494C198.695 9.63494 198.281 9.72254 197.879 9.89773C197.481 10.0729 197.171 10.312 196.948 10.6151L194.214 10.125L194.903 2.45455H203.795V4.96875H197.438L197.062 8.61222H197.147C197.403 8.25237 197.789 7.95407 198.305 7.71733C198.821 7.48059 199.399 7.36222 200.038 7.36222C200.914 7.36222 201.695 7.56818 202.382 7.98011C203.068 8.39205 203.61 8.95786 204.008 9.67756C204.406 10.3925 204.602 11.2164 204.597 12.1491C204.602 13.1293 204.375 14.0005 203.916 14.7628C203.461 15.5204 202.824 16.117 202.005 16.5526C201.191 16.9834 200.244 17.1989 199.164 17.1989ZM216.194 17.1989C215.446 17.1941 214.723 17.0687 214.027 16.8224C213.336 16.5762 212.716 16.1761 212.167 15.6222C211.617 15.0682 211.182 14.3343 210.86 13.4205C210.543 12.5066 210.384 11.3845 210.384 10.054C210.389 8.83239 210.528 7.741 210.803 6.77983C211.082 5.81392 211.48 4.99479 211.996 4.32244C212.517 3.65009 213.14 3.13873 213.864 2.78835C214.589 2.43324 215.401 2.25568 216.3 2.25568C217.271 2.25568 218.128 2.44508 218.871 2.82386C219.615 3.19792 220.211 3.70691 220.661 4.35085C221.116 4.99479 221.39 5.71686 221.485 6.51705H218.452C218.334 6.01042 218.085 5.61269 217.706 5.32386C217.328 5.03504 216.859 4.89062 216.3 4.89062C215.353 4.89062 214.633 5.30256 214.141 6.12642C213.653 6.95028 213.405 8.07008 213.395 9.4858H213.495C213.713 9.05492 214.006 8.68797 214.375 8.38494C214.75 8.07718 215.173 7.8428 215.647 7.68182C216.125 7.5161 216.629 7.43324 217.16 7.43324C218.021 7.43324 218.788 7.63684 219.461 8.04403C220.133 8.4465 220.663 9.00047 221.052 9.70597C221.44 10.4115 221.634 11.2187 221.634 12.1278C221.634 13.1127 221.404 13.9886 220.945 14.7557C220.491 15.5227 219.854 16.1241 219.035 16.5597C218.22 16.9905 217.273 17.2036 216.194 17.1989ZM216.179 14.7841C216.653 14.7841 217.077 14.6705 217.451 14.4432C217.825 14.2159 218.118 13.9081 218.331 13.5199C218.544 13.1316 218.651 12.696 218.651 12.2131C218.651 11.7301 218.544 11.2969 218.331 10.9134C218.123 10.5298 217.834 10.2244 217.465 9.99716C217.096 9.76989 216.674 9.65625 216.201 9.65625C215.846 9.65625 215.517 9.72254 215.214 9.85511C214.915 9.98769 214.652 10.1723 214.425 10.4091C214.203 10.6458 214.027 10.9205 213.9 11.233C213.772 11.5407 213.708 11.8698 213.708 12.2202C213.708 12.6889 213.814 13.1174 214.027 13.5057C214.245 13.8939 214.539 14.2041 214.908 14.4361C215.282 14.6681 215.706 14.7841 216.179 14.7841ZM228.259 17L234.288 5.06818V4.96875H227.264V2.45455H237.47V5.00426L231.433 17H228.259ZM248.873 17.1989C247.779 17.1989 246.806 17.0213 245.954 16.6662C245.106 16.3063 244.441 15.8163 243.958 15.196C243.475 14.5758 243.234 13.8726 243.234 13.0866C243.234 12.4806 243.371 11.9242 243.646 11.4176C243.925 10.9062 244.304 10.4825 244.782 10.1463C245.26 9.8054 245.795 9.58759 246.387 9.4929V9.39347C245.611 9.23722 244.981 8.8608 244.498 8.2642C244.015 7.66288 243.773 6.96449 243.773 6.16903C243.773 5.41619 243.994 4.74621 244.434 4.15909C244.874 3.56723 245.478 3.10322 246.245 2.76705C247.017 2.42614 247.893 2.25568 248.873 2.25568C249.853 2.25568 250.727 2.42614 251.494 2.76705C252.265 3.10795 252.871 3.57434 253.312 4.16619C253.752 4.75331 253.975 5.42093 253.979 6.16903C253.975 6.96922 253.728 7.66761 253.241 8.2642C252.753 8.8608 252.128 9.23722 251.366 9.39347V9.4929C251.948 9.58759 252.476 9.8054 252.95 10.1463C253.428 10.4825 253.807 10.9062 254.086 11.4176C254.37 11.9242 254.514 12.4806 254.519 13.0866C254.514 13.8726 254.271 14.5758 253.788 15.196C253.305 15.8163 252.637 16.3063 251.785 16.6662C250.937 17.0213 249.967 17.1989 248.873 17.1989ZM248.873 14.9403C249.361 14.9403 249.787 14.8527 250.151 14.6776C250.516 14.4976 250.8 14.2514 251.004 13.9389C251.212 13.6217 251.316 13.2571 251.316 12.8452C251.316 12.4238 251.209 12.0521 250.996 11.7301C250.783 11.4034 250.495 11.1477 250.13 10.9631C249.765 10.7737 249.346 10.679 248.873 10.679C248.404 10.679 247.985 10.7737 247.616 10.9631C247.246 11.1477 246.955 11.4034 246.742 11.7301C246.534 12.0521 246.43 12.4238 246.43 12.8452C246.43 13.2571 246.531 13.6217 246.735 13.9389C246.939 14.2514 247.225 14.4976 247.594 14.6776C247.964 14.8527 248.39 14.9403 248.873 14.9403ZM248.873 8.44176C249.28 8.44176 249.642 8.3589 249.959 8.19318C250.277 8.02746 250.525 7.79782 250.705 7.50426C250.885 7.2107 250.975 6.87216 250.975 6.48864C250.975 6.10985 250.885 5.77841 250.705 5.49432C250.525 5.20549 250.279 4.98059 249.967 4.8196C249.654 4.65388 249.29 4.57102 248.873 4.57102C248.461 4.57102 248.096 4.65388 247.779 4.8196C247.462 4.98059 247.213 5.20549 247.033 5.49432C246.858 5.77841 246.771 6.10985 246.771 6.48864C246.771 6.87216 246.861 7.2107 247.04 7.50426C247.22 7.79782 247.469 8.02746 247.786 8.19318C248.103 8.3589 248.466 8.44176 248.873 8.44176ZM265.801 2.25568C266.549 2.25568 267.269 2.38115 267.96 2.6321C268.656 2.88305 269.276 3.28314 269.821 3.83239C270.37 4.38163 270.803 5.1108 271.121 6.01989C271.443 6.92424 271.606 8.03456 271.611 9.35085C271.611 10.5866 271.471 11.6899 271.192 12.6605C270.917 13.6264 270.522 14.4479 270.006 15.125C269.489 15.8021 268.867 16.3182 268.138 16.6733C267.409 17.0237 266.594 17.1989 265.695 17.1989C264.724 17.1989 263.867 17.0118 263.123 16.6378C262.38 16.259 261.781 15.7453 261.327 15.0966C260.877 14.4432 260.605 13.7093 260.51 12.8949H263.543C263.661 13.4252 263.909 13.8371 264.288 14.1307C264.667 14.4195 265.136 14.5639 265.695 14.5639C266.641 14.5639 267.361 14.152 267.854 13.3281C268.346 12.4995 268.595 11.3655 268.599 9.92614H268.5C268.282 10.3523 267.989 10.7192 267.619 11.027C267.25 11.33 266.826 11.5644 266.348 11.7301C265.874 11.8958 265.37 11.9787 264.835 11.9787C263.978 11.9787 263.213 11.7775 262.541 11.375C261.869 10.9725 261.338 10.4186 260.95 9.71307C260.562 9.00758 260.368 8.20265 260.368 7.2983C260.363 6.32292 260.588 5.45407 261.043 4.69176C261.497 3.92945 262.132 3.33286 262.946 2.90199C263.765 2.46638 264.717 2.25095 265.801 2.25568ZM265.822 4.67045C265.344 4.67045 264.918 4.78409 264.544 5.01136C264.175 5.23864 263.881 5.54403 263.663 5.92756C263.45 6.31108 263.346 6.73958 263.351 7.21307C263.351 7.69129 263.455 8.12216 263.663 8.50568C263.876 8.88447 264.165 9.1875 264.53 9.41477C264.899 9.63731 265.32 9.74858 265.794 9.74858C266.149 9.74858 266.478 9.68229 266.781 9.54972C267.084 9.41714 267.347 9.23485 267.57 9.00284C267.797 8.7661 267.974 8.49384 268.102 8.18608C268.23 7.87831 268.294 7.55161 268.294 7.20597C268.289 6.74669 268.18 6.32528 267.967 5.94176C267.754 5.55824 267.461 5.25047 267.087 5.01847C266.713 4.78646 266.291 4.67045 265.822 4.67045ZM282.497 0.742898V18.7188H276.893V16.4531H279.571V3.00142H276.893V0.742898H282.497ZM0.860465 60.1605V42.1847H6.46416V44.4432H3.7866V57.8949H6.46416V60.1605H0.860465ZM13.9499 42.4545V47.9801H11.7908V42.4545H13.9499ZM17.6218 42.4545V47.9801H15.4627V42.4545H17.6218ZM19.4754 46.0909H22.501V57.5398C22.501 58.3826 22.3353 59.0644 22.0038 59.5852C21.6724 60.1061 21.1966 60.4872 20.5763 60.7287C19.9608 60.9702 19.2245 61.0909 18.3675 61.0909C18.2633 61.0909 18.1639 61.0885 18.0692 61.0838C17.9698 61.0838 17.8656 61.0814 17.7567 61.0767V58.7116C17.8372 58.7164 17.9082 58.7188 17.9698 58.7188C18.0266 58.7235 18.0881 58.7259 18.1544 58.7259C18.6421 58.7259 18.983 58.6217 19.1771 58.4134C19.376 58.2098 19.4754 57.902 19.4754 57.4901V46.0909ZM20.9811 44.6847C20.536 44.6847 20.1525 44.5355 19.8306 44.2372C19.5086 43.9342 19.3476 43.572 19.3476 43.1506C19.3476 42.7339 19.5086 42.3764 19.8306 42.0781C20.1525 41.7751 20.536 41.6236 20.9811 41.6236C21.4357 41.6236 21.8216 41.7751 22.1388 42.0781C22.4608 42.3764 22.6217 42.7339 22.6217 43.1506C22.6217 43.572 22.4608 43.9342 22.1388 44.2372C21.8216 44.5355 21.4357 44.6847 20.9811 44.6847ZM27.6555 57.206C26.9594 57.206 26.3392 57.0852 25.7947 56.8438C25.2501 56.5975 24.8193 56.2353 24.502 55.7571C24.1895 55.2741 24.0333 54.6728 24.0333 53.9531C24.0333 53.3471 24.1446 52.8381 24.3671 52.4261C24.5896 52.0142 24.8927 51.6828 25.2762 51.4318C25.6597 51.1809 26.0953 50.9915 26.583 50.8636C27.0754 50.7358 27.5915 50.6458 28.1313 50.5938C28.7658 50.5275 29.2771 50.4659 29.6654 50.4091C30.0537 50.3475 30.3354 50.2576 30.5106 50.1392C30.6858 50.0208 30.7733 49.8456 30.7733 49.6136V49.571C30.7733 49.1212 30.6313 48.7732 30.3472 48.527C30.0679 48.2808 29.6701 48.1577 29.154 48.1577C28.6095 48.1577 28.1763 48.2784 27.8543 48.5199C27.5323 48.7566 27.3193 49.0549 27.2151 49.4148L24.4168 49.1875C24.5589 48.5246 24.8382 47.9517 25.2549 47.4688C25.6715 46.9811 26.209 46.607 26.8671 46.3466C27.53 46.0814 28.297 45.9489 29.1682 45.9489C29.7743 45.9489 30.3543 46.0199 30.9083 46.1619C31.467 46.304 31.9618 46.5241 32.3927 46.8224C32.8283 47.1207 33.1715 47.5043 33.4225 47.973C33.6734 48.437 33.7989 48.9934 33.7989 49.642V57H30.9296V55.4872H30.8444C30.6692 55.8281 30.4348 56.1288 30.1412 56.3892C29.8477 56.6449 29.4949 56.8461 29.083 56.9929C28.6711 57.1349 28.1952 57.206 27.6555 57.206ZM28.5219 55.1179C28.967 55.1179 29.36 55.0303 29.7009 54.8551C30.0418 54.6752 30.3093 54.4337 30.5035 54.1307C30.6976 53.8277 30.7947 53.4844 30.7947 53.1009V51.9432C30.7 52.0047 30.5698 52.0616 30.404 52.1136C30.243 52.161 30.0608 52.206 29.8572 52.2486C29.6536 52.2865 29.45 52.322 29.2464 52.3551C29.0428 52.3835 28.8581 52.4096 28.6924 52.4332C28.3373 52.4853 28.0271 52.5682 27.762 52.6818C27.4968 52.7955 27.2909 52.9493 27.1441 53.1435C26.9973 53.3329 26.9239 53.5696 26.9239 53.8537C26.9239 54.2656 27.0731 54.5805 27.3714 54.7983C27.6744 55.0114 28.0579 55.1179 28.5219 55.1179ZM35.7662 46.0909H38.7918V57.5398C38.7918 58.3826 38.6261 59.0644 38.2946 59.5852C37.9632 60.1061 37.4873 60.4872 36.8671 60.7287C36.2515 60.9702 35.5153 61.0909 34.6583 61.0909C34.5541 61.0909 34.4547 61.0885 34.36 61.0838C34.2605 61.0838 34.1564 61.0814 34.0475 61.0767V58.7116C34.128 58.7164 34.199 58.7188 34.2605 58.7188C34.3174 58.7235 34.3789 58.7259 34.4452 58.7259C34.9329 58.7259 35.2738 58.6217 35.4679 58.4134C35.6668 58.2098 35.7662 57.902 35.7662 57.4901V46.0909ZM37.2719 44.6847C36.8268 44.6847 36.4433 44.5355 36.1213 44.2372C35.7994 43.9342 35.6384 43.572 35.6384 43.1506C35.6384 42.7339 35.7994 42.3764 36.1213 42.0781C36.4433 41.7751 36.8268 41.6236 37.2719 41.6236C37.7264 41.6236 38.1123 41.7751 38.4296 42.0781C38.7515 42.3764 38.9125 42.7339 38.9125 43.1506C38.9125 43.572 38.7515 43.9342 38.4296 44.2372C38.1123 44.5355 37.7264 44.6847 37.2719 44.6847ZM47.8312 52.3551V46.0909H50.8567V57H47.9519V55.0185H47.8383C47.5921 55.6577 47.1825 56.1714 46.6096 56.5597C46.0414 56.9479 45.3477 57.142 44.5286 57.142C43.7995 57.142 43.1579 56.9763 42.6039 56.6449C42.0499 56.3134 41.6167 55.8423 41.3042 55.2315C40.9964 54.6207 40.8402 53.8892 40.8354 53.0369V46.0909H43.861V52.4972C43.8657 53.1411 44.0386 53.6501 44.3795 54.0241C44.7204 54.3982 45.1773 54.5852 45.7502 54.5852C46.1148 54.5852 46.4557 54.5024 46.7729 54.3366C47.0902 54.1662 47.3459 53.9152 47.54 53.5838C47.7388 53.2524 47.8359 52.8428 47.8312 52.3551ZM57.8258 57.2131C56.7084 57.2131 55.7472 56.9763 54.9423 56.5028C54.1421 56.0246 53.5266 55.3617 53.0957 54.5142C52.6696 53.6667 52.4565 52.6913 52.4565 51.5881C52.4565 50.4706 52.6719 49.4905 53.1028 48.6477C53.5384 47.8002 54.1563 47.1397 54.9565 46.6662C55.7567 46.188 56.7084 45.9489 57.8116 45.9489C58.7633 45.9489 59.5967 46.1217 60.3116 46.4673C61.0266 46.813 61.5924 47.2983 62.0091 47.9233C62.4257 48.5483 62.6554 49.2822 62.698 50.125H59.8429C59.7624 49.5805 59.5493 49.1425 59.2037 48.8111C58.8628 48.4749 58.4153 48.3068 57.8613 48.3068C57.3926 48.3068 56.983 48.4347 56.6326 48.6903C56.287 48.9413 56.0171 49.3082 55.823 49.7912C55.6289 50.2741 55.5318 50.8589 55.5318 51.5455C55.5318 52.2415 55.6265 52.8333 55.8159 53.321C56.01 53.8087 56.2823 54.1804 56.6326 54.4361C56.983 54.6918 57.3926 54.8196 57.8613 54.8196C58.207 54.8196 58.5171 54.7486 58.7917 54.6065C59.0711 54.4645 59.3007 54.2585 59.4807 53.9886C59.6653 53.714 59.786 53.3849 59.8429 53.0014H62.698C62.6506 53.8348 62.4234 54.5687 62.0162 55.2031C61.6137 55.8329 61.0574 56.3253 60.3471 56.6804C59.6369 57.0355 58.7965 57.2131 57.8258 57.2131ZM67.2807 50.6932V57H64.2551V42.4545H67.1955V48.0156H67.3233C67.5695 47.3717 67.9672 46.8674 68.5165 46.5028C69.0657 46.1335 69.7547 45.9489 70.5832 45.9489C71.3408 45.9489 72.0013 46.1146 72.5648 46.446C73.133 46.7727 73.5733 47.2438 73.8858 47.8594C74.203 48.4702 74.3593 49.2017 74.3546 50.054V57H71.329V50.5938C71.3337 49.9214 71.1633 49.3982 70.8176 49.0241C70.4767 48.6501 69.9985 48.4631 69.383 48.4631C68.971 48.4631 68.6064 48.5507 68.2892 48.7259C67.9767 48.901 67.7305 49.1567 67.5506 49.4929C67.3754 49.8243 67.2854 50.2244 67.2807 50.6932ZM79.4664 57.206C78.7704 57.206 78.1501 57.0852 77.6056 56.8438C77.0611 56.5975 76.6302 56.2353 76.313 55.7571C76.0005 55.2741 75.8442 54.6728 75.8442 53.9531C75.8442 53.3471 75.9555 52.8381 76.178 52.4261C76.4006 52.0142 76.7036 51.6828 77.0871 51.4318C77.4707 51.1809 77.9063 50.9915 78.3939 50.8636C78.8864 50.7358 79.4025 50.6458 79.9422 50.5938C80.5767 50.5275 81.0881 50.4659 81.4763 50.4091C81.8646 50.3475 82.1463 50.2576 82.3215 50.1392C82.4967 50.0208 82.5843 49.8456 82.5843 49.6136V49.571C82.5843 49.1212 82.4422 48.7732 82.1582 48.527C81.8788 48.2808 81.4811 48.1577 80.965 48.1577C80.4205 48.1577 79.9872 48.2784 79.6653 48.5199C79.3433 48.7566 79.1302 49.0549 79.026 49.4148L76.2278 49.1875C76.3698 48.5246 76.6492 47.9517 77.0658 47.4688C77.4825 46.9811 78.0199 46.607 78.678 46.3466C79.3409 46.0814 80.108 45.9489 80.9792 45.9489C81.5852 45.9489 82.1653 46.0199 82.7192 46.1619C83.2779 46.304 83.7727 46.5241 84.2036 46.8224C84.6392 47.1207 84.9825 47.5043 85.2334 47.973C85.4844 48.437 85.6099 48.9934 85.6099 49.642V57H82.7405V55.4872H82.6553C82.4801 55.8281 82.2457 56.1288 81.9522 56.3892C81.6586 56.6449 81.3059 56.8461 80.8939 56.9929C80.482 57.1349 80.0062 57.206 79.4664 57.206ZM80.3329 55.1179C80.7779 55.1179 81.1709 55.0303 81.5118 54.8551C81.8528 54.6752 82.1203 54.4337 82.3144 54.1307C82.5085 53.8277 82.6056 53.4844 82.6056 53.1009V51.9432C82.5109 52.0047 82.3807 52.0616 82.215 52.1136C82.054 52.161 81.8717 52.206 81.6681 52.2486C81.4645 52.2865 81.2609 52.322 81.0573 52.3551C80.8537 52.3835 80.669 52.4096 80.5033 52.4332C80.1482 52.4853 79.8381 52.5682 79.5729 52.6818C79.3078 52.7955 79.1018 52.9493 78.955 53.1435C78.8082 53.3329 78.7349 53.5696 78.7349 53.8537C78.7349 54.2656 78.884 54.5805 79.1823 54.7983C79.4853 55.0114 79.8689 55.1179 80.3329 55.1179ZM89.5232 42.4545V47.9801H87.3641V42.4545H89.5232ZM93.1951 42.4545V47.9801H91.036V42.4545H93.1951ZM105.493 42.4545V47.9801H103.333V42.4545H105.493ZM109.164 42.4545V47.9801H107.005V42.4545H109.164ZM111.075 57V42.4545H116.814C117.917 42.4545 118.857 42.6652 119.633 43.0866C120.41 43.5033 121.002 44.0833 121.409 44.8267C121.821 45.5653 122.027 46.4176 122.027 47.3835C122.027 48.3494 121.818 49.2017 121.402 49.9403C120.985 50.679 120.381 51.2543 119.591 51.6662C118.805 52.0781 117.853 52.2841 116.735 52.2841H113.078V49.8196H116.238C116.83 49.8196 117.318 49.7178 117.701 49.5142C118.09 49.3059 118.378 49.0194 118.568 48.6548C118.762 48.2855 118.859 47.8617 118.859 47.3835C118.859 46.9006 118.762 46.4792 118.568 46.1193C118.378 45.7547 118.09 45.473 117.701 45.2741C117.313 45.0705 116.821 44.9688 116.224 44.9688H114.15V57H111.075ZM125.455 61.0909C125.072 61.0909 124.712 61.0601 124.376 60.9986C124.044 60.9418 123.77 60.8684 123.552 60.7784L124.234 58.5199C124.589 58.6288 124.908 58.688 125.192 58.6974C125.481 58.7069 125.73 58.6406 125.938 58.4986C126.151 58.3565 126.324 58.1151 126.457 57.7741L126.634 57.3125L122.721 46.0909H125.903L128.161 54.1023H128.275L130.555 46.0909H133.758L129.518 58.179C129.314 58.7661 129.037 59.2775 128.687 59.7131C128.341 60.1534 127.903 60.492 127.373 60.7287C126.843 60.9702 126.203 61.0909 125.455 61.0909ZM140.729 46.0909V48.3636H134.159V46.0909H140.729ZM135.65 43.4773H138.676V53.6477C138.676 53.9271 138.719 54.1449 138.804 54.3011C138.889 54.4527 139.007 54.5592 139.159 54.6207C139.315 54.6823 139.495 54.7131 139.699 54.7131C139.841 54.7131 139.983 54.7012 140.125 54.6776C140.267 54.6491 140.376 54.6278 140.452 54.6136L140.927 56.8651C140.776 56.9124 140.563 56.9669 140.288 57.0284C140.014 57.0947 139.68 57.1349 139.287 57.1491C138.558 57.1776 137.918 57.0805 137.369 56.858C136.825 56.6354 136.401 56.2898 136.098 55.821C135.795 55.3523 135.646 54.7604 135.65 54.0455V43.4773ZM145.579 50.6932V57H142.554V42.4545H145.494V48.0156H145.622C145.868 47.3717 146.266 46.8674 146.815 46.5028C147.364 46.1335 148.053 45.9489 148.882 45.9489C149.64 45.9489 150.3 46.1146 150.864 46.446C151.432 46.7727 151.872 47.2438 152.185 47.8594C152.502 48.4702 152.658 49.2017 152.653 50.054V57H149.628V50.5938C149.632 49.9214 149.462 49.3982 149.116 49.0241C148.775 48.6501 148.297 48.4631 147.682 48.4631C147.27 48.4631 146.905 48.5507 146.588 48.7259C146.275 48.901 146.029 49.1567 145.849 49.4929C145.674 49.8243 145.584 50.2244 145.579 50.6932ZM159.583 57.2131C158.48 57.2131 157.526 56.9787 156.721 56.5099C155.921 56.0365 155.303 55.3783 154.867 54.5355C154.432 53.688 154.214 52.7055 154.214 51.5881C154.214 50.4612 154.432 49.4763 154.867 48.6335C155.303 47.786 155.921 47.1278 156.721 46.6591C157.526 46.1856 158.48 45.9489 159.583 45.9489C160.687 45.9489 161.638 46.1856 162.438 46.6591C163.243 47.1278 163.864 47.786 164.299 48.6335C164.735 49.4763 164.953 50.4612 164.953 51.5881C164.953 52.7055 164.735 53.688 164.299 54.5355C163.864 55.3783 163.243 56.0365 162.438 56.5099C161.638 56.9787 160.687 57.2131 159.583 57.2131ZM159.598 54.8693C160.099 54.8693 160.518 54.7273 160.855 54.4432C161.191 54.1544 161.444 53.7614 161.615 53.2642C161.79 52.767 161.877 52.2012 161.877 51.5668C161.877 50.9323 161.79 50.3665 161.615 49.8693C161.444 49.3722 161.191 48.9792 160.855 48.6903C160.518 48.4015 160.099 48.2571 159.598 48.2571C159.091 48.2571 158.665 48.4015 158.319 48.6903C157.978 48.9792 157.72 49.3722 157.545 49.8693C157.375 50.3665 157.289 50.9323 157.289 51.5668C157.289 52.2012 157.375 52.767 157.545 53.2642C157.72 53.7614 157.978 54.1544 158.319 54.4432C158.665 54.7273 159.091 54.8693 159.598 54.8693ZM169.566 50.6932V57H166.54V46.0909H169.423V48.0156H169.551C169.793 47.3812 170.198 46.8793 170.766 46.5099C171.334 46.1359 172.023 45.9489 172.833 45.9489C173.59 45.9489 174.251 46.1146 174.814 46.446C175.378 46.7775 175.816 47.2509 176.128 47.8665C176.441 48.4773 176.597 49.2064 176.597 50.054V57H173.571V50.5938C173.576 49.9261 173.405 49.4053 173.06 49.0312C172.714 48.6525 172.238 48.4631 171.632 48.4631C171.225 48.4631 170.865 48.5507 170.553 48.7259C170.245 48.901 170.004 49.1567 169.828 49.4929C169.658 49.8243 169.57 50.2244 169.566 50.6932ZM180.547 42.4545V47.9801H178.388V42.4545H180.547ZM184.219 42.4545V47.9801H182.06V42.4545H184.219ZM192.268 42.4545V47.9801H190.109V42.4545H192.268ZM195.94 42.4545V47.9801H193.781V42.4545H195.94ZM210.016 42.4545V57H207.36L201.032 47.8452H200.926V57H197.85V42.4545H200.549L206.827 51.6023H206.955V42.4545H210.016ZM219.116 52.3551V46.0909H222.142V57H219.237V55.0185H219.123C218.877 55.6577 218.468 56.1714 217.895 56.5597C217.326 56.9479 216.633 57.142 215.814 57.142C215.084 57.142 214.443 56.9763 213.889 56.6449C213.335 56.3134 212.902 55.8423 212.589 55.2315C212.281 54.6207 212.125 53.8892 212.12 53.0369V46.0909H215.146V52.4972C215.151 53.1411 215.324 53.6501 215.664 54.0241C216.005 54.3982 216.462 54.5852 217.035 54.5852C217.4 54.5852 217.741 54.5024 218.058 54.3366C218.375 54.1662 218.631 53.9152 218.825 53.5838C219.024 53.2524 219.121 52.8428 219.116 52.3551ZM224.182 57V46.0909H227.065V48.0156H227.193C227.42 47.3764 227.799 46.8722 228.33 46.5028C228.86 46.1335 229.494 45.9489 230.233 45.9489C230.981 45.9489 231.618 46.1359 232.143 46.5099C232.669 46.8793 233.019 47.3812 233.195 48.0156H233.308C233.531 47.3906 233.933 46.8911 234.516 46.517C235.103 46.1383 235.796 45.9489 236.597 45.9489C237.615 45.9489 238.441 46.2732 239.075 46.9219C239.715 47.5658 240.034 48.4796 240.034 49.6634V57H237.016V50.2599C237.016 49.6539 236.855 49.1993 236.533 48.8963C236.211 48.5933 235.808 48.4418 235.325 48.4418C234.776 48.4418 234.348 48.617 234.04 48.9673C233.732 49.313 233.578 49.7699 233.578 50.3381V57H230.645V50.196C230.645 49.661 230.491 49.2348 230.183 48.9176C229.88 48.6004 229.48 48.4418 228.983 48.4418C228.647 48.4418 228.344 48.527 228.074 48.6974C227.809 48.8632 227.598 49.0975 227.442 49.4006C227.286 49.6989 227.207 50.0492 227.207 50.4517V57H224.182ZM242.101 57V42.4545H247.839C248.943 42.4545 249.883 42.6652 250.659 43.0866C251.436 43.5033 252.027 44.0833 252.435 44.8267C252.847 45.5653 253.053 46.4176 253.053 47.3835C253.053 48.3494 252.844 49.2017 252.428 49.9403C252.011 50.679 251.407 51.2543 250.616 51.6662C249.83 52.0781 248.879 52.2841 247.761 52.2841H244.104V49.8196H247.264C247.856 49.8196 248.344 49.7178 248.727 49.5142C249.116 49.3059 249.404 49.0194 249.594 48.6548C249.788 48.2855 249.885 47.8617 249.885 47.3835C249.885 46.9006 249.788 46.4792 249.594 46.1193C249.404 45.7547 249.116 45.473 248.727 45.2741C248.339 45.0705 247.847 44.9688 247.25 44.9688H245.176V57H242.101ZM256.481 61.0909C256.098 61.0909 255.738 61.0601 255.402 60.9986C255.07 60.9418 254.796 60.8684 254.578 60.7784L255.26 58.5199C255.615 58.6288 255.934 58.688 256.218 58.6974C256.507 58.7069 256.756 58.6406 256.964 58.4986C257.177 58.3565 257.35 58.1151 257.483 57.7741L257.66 57.3125L253.747 46.0909H256.929L259.187 54.1023H259.301L261.581 46.0909H264.784L260.544 58.179C260.34 58.7661 260.063 59.2775 259.713 59.7131C259.367 60.1534 258.929 60.492 258.399 60.7287C257.868 60.9702 257.229 61.0909 256.481 61.0909ZM267.898 42.4545V47.9801H265.739V42.4545H267.898ZM271.57 42.4545V47.9801H269.411V42.4545H271.57ZM279.618 42.4545V47.9801H277.459V42.4545H279.618ZM283.29 42.4545V47.9801H281.131V42.4545H283.29ZM298.567 49.7273C298.567 51.3134 298.267 52.6629 297.665 53.7756C297.069 54.8883 296.254 55.7382 295.222 56.3253C294.195 56.9077 293.039 57.1989 291.756 57.1989C290.464 57.1989 289.304 56.9053 288.276 56.3182C287.249 55.7311 286.437 54.8812 285.84 53.7685C285.243 52.6558 284.945 51.3087 284.945 49.7273C284.945 48.1411 285.243 46.7917 285.84 45.679C286.437 44.5663 287.249 43.7187 288.276 43.1364C289.304 42.5492 290.464 42.2557 291.756 42.2557C293.039 42.2557 294.195 42.5492 295.222 43.1364C296.254 43.7187 297.069 44.5663 297.665 45.679C298.267 46.7917 298.567 48.1411 298.567 49.7273ZM295.449 49.7273C295.449 48.6998 295.296 47.8333 294.988 47.1278C294.685 46.4223 294.256 45.8873 293.702 45.5227C293.148 45.1581 292.5 44.9759 291.756 44.9759C291.013 44.9759 290.364 45.1581 289.81 45.5227C289.256 45.8873 288.825 46.4223 288.518 47.1278C288.215 47.8333 288.063 48.6998 288.063 49.7273C288.063 50.7547 288.215 51.6212 288.518 52.3267C288.825 53.0322 289.256 53.5672 289.81 53.9318C290.364 54.2964 291.013 54.4787 291.756 54.4787C292.5 54.4787 293.148 54.2964 293.702 53.9318C294.256 53.5672 294.685 53.0322 294.988 52.3267C295.296 51.6212 295.449 50.7547 295.449 49.7273ZM300.409 61.0909V46.0909H303.392V47.9233H303.526C303.659 47.6297 303.851 47.3314 304.102 47.0284C304.357 46.7206 304.689 46.465 305.096 46.2614C305.508 46.053 306.019 45.9489 306.63 45.9489C307.426 45.9489 308.16 46.1572 308.832 46.5739C309.504 46.9858 310.042 47.6084 310.444 48.4418C310.847 49.2704 311.048 50.3097 311.048 51.5597C311.048 52.7765 310.851 53.804 310.458 54.642C310.07 55.4754 309.54 56.1075 308.867 56.5384C308.2 56.9645 307.452 57.1776 306.623 57.1776C306.036 57.1776 305.536 57.0805 305.124 56.8864C304.717 56.6922 304.383 56.4484 304.123 56.1548C303.863 55.8565 303.664 55.5559 303.526 55.2528H303.434V61.0909H300.409ZM303.37 51.5455C303.37 52.1941 303.46 52.7599 303.64 53.2429C303.82 53.7259 304.08 54.1023 304.421 54.3722C304.762 54.6373 305.177 54.7699 305.664 54.7699C306.157 54.7699 306.573 54.6349 306.914 54.3651C307.255 54.0904 307.513 53.7116 307.688 53.2287C307.868 52.741 307.958 52.1799 307.958 51.5455C307.958 50.9157 307.871 50.3617 307.695 49.8835C307.52 49.4053 307.262 49.0312 306.921 48.7614C306.58 48.4915 306.161 48.3565 305.664 48.3565C305.172 48.3565 304.755 48.4867 304.414 48.7472C304.078 49.0076 303.82 49.3769 303.64 49.8551C303.46 50.3333 303.37 50.8968 303.37 51.5455ZM317.656 57.2131C316.534 57.2131 315.568 56.9858 314.759 56.5312C313.954 56.072 313.333 55.4233 312.898 54.5852C312.462 53.7424 312.244 52.7457 312.244 51.5952C312.244 50.473 312.462 49.4882 312.898 48.6406C313.333 47.7931 313.947 47.1326 314.737 46.6591C315.533 46.1856 316.466 45.9489 317.536 45.9489C318.255 45.9489 318.925 46.0649 319.546 46.2969C320.171 46.5241 320.715 46.8674 321.179 47.3267C321.648 47.786 322.012 48.3636 322.273 49.0597C322.533 49.7509 322.663 50.5606 322.663 51.4886V52.3196H313.452V50.4446H319.815C319.815 50.009 319.721 49.6231 319.531 49.2869C319.342 48.9508 319.079 48.688 318.743 48.4986C318.412 48.3045 318.026 48.2074 317.585 48.2074C317.126 48.2074 316.719 48.3139 316.364 48.527C316.013 48.7353 315.739 49.017 315.54 49.3722C315.341 49.7225 315.239 50.1132 315.235 50.544V52.3267C315.235 52.8665 315.334 53.3329 315.533 53.7259C315.736 54.1188 316.023 54.4219 316.392 54.6349C316.762 54.848 317.199 54.9545 317.706 54.9545C318.042 54.9545 318.35 54.9072 318.629 54.8125C318.909 54.7178 319.148 54.5758 319.347 54.3864C319.546 54.197 319.697 53.965 319.801 53.6903L322.6 53.875C322.458 54.5473 322.166 55.1345 321.726 55.6364C321.29 56.1335 320.727 56.5218 320.036 56.8011C319.349 57.0758 318.556 57.2131 317.656 57.2131ZM327.283 50.6932V57H324.258V46.0909H327.141V48.0156H327.269C327.511 47.3812 327.916 46.8793 328.484 46.5099C329.052 46.1359 329.741 45.9489 330.551 45.9489C331.308 45.9489 331.969 46.1146 332.532 46.446C333.096 46.7775 333.533 47.2509 333.846 47.8665C334.158 48.4773 334.315 49.2064 334.315 50.054V57H331.289V50.5938C331.294 49.9261 331.123 49.4053 330.778 49.0312C330.432 48.6525 329.956 48.4631 329.35 48.4631C328.943 48.4631 328.583 48.5507 328.271 48.7259C327.963 48.901 327.721 49.1567 327.546 49.4929C327.376 49.8243 327.288 50.2244 327.283 50.6932ZM349.21 47.5469H346.099C346.042 47.1444 345.926 46.7869 345.751 46.4744C345.576 46.1572 345.351 45.8873 345.076 45.6648C344.802 45.4422 344.485 45.2718 344.125 45.1534C343.77 45.035 343.384 44.9759 342.967 44.9759C342.214 44.9759 341.558 45.1629 341 45.5369C340.441 45.9062 340.008 46.446 339.7 47.1562C339.392 47.8617 339.238 48.7187 339.238 49.7273C339.238 50.7642 339.392 51.6354 339.7 52.3409C340.013 53.0464 340.448 53.5791 341.007 53.9389C341.566 54.2988 342.212 54.4787 342.946 54.4787C343.358 54.4787 343.739 54.4242 344.089 54.3153C344.444 54.2064 344.759 54.0478 345.034 53.8395C345.308 53.6264 345.536 53.3684 345.716 53.0653C345.9 52.7623 346.028 52.4167 346.099 52.0284L349.21 52.0426C349.129 52.7102 348.928 53.3542 348.606 53.9744C348.289 54.59 347.861 55.1416 347.321 55.6293C346.786 56.1122 346.147 56.4957 345.403 56.7798C344.665 57.0592 343.829 57.1989 342.896 57.1989C341.599 57.1989 340.439 56.9053 339.416 56.3182C338.398 55.7311 337.593 54.8812 337.001 53.7685C336.414 52.6558 336.12 51.3087 336.12 49.7273C336.12 48.1411 336.419 46.7917 337.015 45.679C337.612 44.5663 338.422 43.7187 339.444 43.1364C340.467 42.5492 341.618 42.2557 342.896 42.2557C343.739 42.2557 344.52 42.3741 345.24 42.6108C345.964 42.8475 346.606 43.1932 347.165 43.6477C347.723 44.0975 348.178 44.6491 348.528 45.3026C348.883 45.956 349.111 46.7041 349.21 47.5469ZM353.663 42.4545L357.179 53.5057H357.314L360.836 42.4545H364.245L359.231 57H355.268L350.247 42.4545H353.663ZM367.505 42.4545V47.9801H365.346V42.4545H367.505ZM371.177 42.4545V47.9801H369.018V42.4545H371.177ZM382.138 42.1847V60.1605H376.534V57.8949H379.212V44.4432H376.534V42.1847H382.138ZM81.8191 98.7188V80.7429H87.4227V83.0014H84.7452V96.4531H87.4227V98.7188H81.8191ZM92.4653 84.9901V82.4545H104.411V84.9901H99.9582V97H96.9184V84.9901H92.4653ZM104.809 97V86.0909H107.742V87.9943H107.856C108.055 87.3172 108.389 86.8059 108.857 86.4602C109.326 86.1098 109.866 85.9347 110.477 85.9347C110.628 85.9347 110.792 85.9441 110.967 85.9631C111.142 85.982 111.296 86.008 111.428 86.0412V88.7259C111.286 88.6832 111.09 88.6454 110.839 88.6122C110.588 88.5791 110.358 88.5625 110.15 88.5625C109.705 88.5625 109.307 88.6596 108.957 88.8537C108.611 89.0431 108.336 89.3082 108.133 89.6491C107.934 89.9901 107.835 90.383 107.835 90.8281V97H104.809ZM119.608 92.3551V86.0909H122.634V97H119.729V95.0185H119.615C119.369 95.6577 118.96 96.1714 118.387 96.5597C117.819 96.9479 117.125 97.142 116.306 97.142C115.577 97.142 114.935 96.9763 114.381 96.6449C113.827 96.3134 113.394 95.8423 113.081 95.2315C112.774 94.6207 112.617 93.8892 112.613 93.0369V86.0909H115.638V92.4972C115.643 93.1411 115.816 93.6501 116.157 94.0241C116.498 94.3982 116.954 94.5852 117.527 94.5852C117.892 94.5852 118.233 94.5024 118.55 94.3366C118.867 94.1662 119.123 93.9152 119.317 93.5838C119.516 93.2524 119.613 92.8428 119.608 92.3551ZM129.646 97.2131C128.523 97.2131 127.558 96.9858 126.748 96.5312C125.943 96.072 125.323 95.4233 124.887 94.5852C124.451 93.7424 124.234 92.7457 124.234 91.5952C124.234 90.473 124.451 89.4882 124.887 88.6406C125.323 87.7931 125.936 87.1326 126.727 86.6591C127.522 86.1856 128.455 85.9489 129.525 85.9489C130.245 85.9489 130.915 86.0649 131.535 86.2969C132.16 86.5241 132.704 86.8674 133.168 87.3267C133.637 87.786 134.002 88.3636 134.262 89.0597C134.523 89.7509 134.653 90.5606 134.653 91.4886V92.3196H125.441V90.4446H131.805C131.805 90.009 131.71 89.6231 131.521 89.2869C131.331 88.9508 131.068 88.688 130.732 88.4986C130.401 88.3045 130.015 88.2074 129.575 88.2074C129.115 88.2074 128.708 88.3139 128.353 88.527C128.003 88.7353 127.728 89.017 127.529 89.3722C127.33 89.7225 127.228 90.1132 127.224 90.544V92.3267C127.224 92.8665 127.323 93.3329 127.522 93.7259C127.726 94.1188 128.012 94.4219 128.381 94.6349C128.751 94.848 129.189 94.9545 129.695 94.9545C130.032 94.9545 130.339 94.9072 130.619 94.8125C130.898 94.7178 131.137 94.5758 131.336 94.3864C131.535 94.197 131.686 93.965 131.791 93.6903L134.589 93.875C134.447 94.5473 134.156 95.1345 133.715 95.6364C133.28 96.1335 132.716 96.5218 132.025 96.8011C131.338 97.0758 130.545 97.2131 129.646 97.2131ZM140.553 97V82.4545H150.184V84.9901H143.628V88.456H149.544V90.9915H143.628V97H140.553ZM154.789 97.206C154.093 97.206 153.473 97.0852 152.929 96.8438C152.384 96.5975 151.953 96.2353 151.636 95.7571C151.323 95.2741 151.167 94.6728 151.167 93.9531C151.167 93.3471 151.278 92.8381 151.501 92.4261C151.724 92.0142 152.027 91.6828 152.41 91.4318C152.794 91.1809 153.229 90.9915 153.717 90.8636C154.209 90.7358 154.725 90.6458 155.265 90.5938C155.9 90.5275 156.411 90.4659 156.799 90.4091C157.188 90.3475 157.469 90.2576 157.644 90.1392C157.82 90.0208 157.907 89.8456 157.907 89.6136V89.571C157.907 89.1212 157.765 88.7732 157.481 88.527C157.202 88.2808 156.804 88.1577 156.288 88.1577C155.743 88.1577 155.31 88.2784 154.988 88.5199C154.666 88.7566 154.453 89.0549 154.349 89.4148L151.551 89.1875C151.693 88.5246 151.972 87.9517 152.389 87.4688C152.805 86.9811 153.343 86.607 154.001 86.3466C154.664 86.0814 155.431 85.9489 156.302 85.9489C156.908 85.9489 157.488 86.0199 158.042 86.1619C158.601 86.304 159.096 86.5241 159.527 86.8224C159.962 87.1207 160.305 87.5043 160.556 87.973C160.807 88.437 160.933 88.9934 160.933 89.642V97H158.063V95.4872H157.978C157.803 95.8281 157.569 96.1288 157.275 96.3892C156.982 96.6449 156.629 96.8461 156.217 96.9929C155.805 97.1349 155.329 97.206 154.789 97.206ZM155.656 95.1179C156.101 95.1179 156.494 95.0303 156.835 94.8551C157.176 94.6752 157.443 94.4337 157.637 94.1307C157.831 93.8277 157.929 93.4844 157.929 93.1009V91.9432C157.834 92.0047 157.704 92.0616 157.538 92.1136C157.377 92.161 157.195 92.206 156.991 92.2486C156.787 92.2865 156.584 92.322 156.38 92.3551C156.177 92.3835 155.992 92.4096 155.826 92.4332C155.471 92.4853 155.161 92.5682 154.896 92.6818C154.631 92.7955 154.425 92.9493 154.278 93.1435C154.131 93.3329 154.058 93.5696 154.058 93.8537C154.058 94.2656 154.207 94.5805 154.505 94.7983C154.808 95.0114 155.192 95.1179 155.656 95.1179ZM165.926 82.4545V97H162.9V82.4545H165.926ZM177.046 89.2017L174.276 89.3722C174.229 89.1354 174.127 88.9223 173.971 88.733C173.815 88.5388 173.609 88.3849 173.353 88.2713C173.102 88.1529 172.801 88.0938 172.451 88.0938C171.982 88.0938 171.587 88.1932 171.265 88.392C170.943 88.5862 170.782 88.8466 170.782 89.1733C170.782 89.4337 170.886 89.6539 171.094 89.8338C171.303 90.0137 171.66 90.1581 172.167 90.267L174.141 90.6648C175.202 90.8826 175.993 91.233 176.513 91.7159C177.034 92.1989 177.295 92.8333 177.295 93.6193C177.295 94.3343 177.084 94.9616 176.663 95.5014C176.246 96.0412 175.673 96.4626 174.944 96.7656C174.219 97.0639 173.384 97.2131 172.437 97.2131C170.993 97.2131 169.842 96.9124 168.985 96.3111C168.133 95.705 167.633 94.8812 167.486 93.8395L170.462 93.6832C170.552 94.1236 170.77 94.4598 171.116 94.6918C171.461 94.919 171.904 95.0327 172.444 95.0327C172.974 95.0327 173.4 94.9309 173.722 94.7273C174.049 94.5189 174.215 94.2514 174.219 93.9247C174.215 93.6501 174.099 93.4252 173.871 93.25C173.644 93.0701 173.294 92.9328 172.82 92.8381L170.931 92.4616C169.866 92.2486 169.073 91.8793 168.552 91.3537C168.036 90.8281 167.778 90.1581 167.778 89.3438C167.778 88.643 167.967 88.0393 168.346 87.5327C168.729 87.026 169.267 86.6354 169.958 86.3608C170.654 86.0862 171.468 85.9489 172.401 85.9489C173.779 85.9489 174.863 86.2401 175.654 86.8224C176.449 87.4048 176.913 88.1979 177.046 89.2017ZM183.791 97.2131C182.669 97.2131 181.703 96.9858 180.894 96.5312C180.089 96.072 179.468 95.4233 179.033 94.5852C178.597 93.7424 178.379 92.7457 178.379 91.5952C178.379 90.473 178.597 89.4882 179.033 88.6406C179.468 87.7931 180.082 87.1326 180.872 86.6591C181.668 86.1856 182.601 85.9489 183.671 85.9489C184.39 85.9489 185.06 86.0649 185.681 86.2969C186.306 86.5241 186.85 86.8674 187.314 87.3267C187.783 87.786 188.147 88.3636 188.408 89.0597C188.668 89.7509 188.799 90.5606 188.799 91.4886V92.3196H179.587V90.4446H185.95C185.95 90.009 185.856 89.6231 185.666 89.2869C185.477 88.9508 185.214 88.688 184.878 88.4986C184.547 88.3045 184.161 88.2074 183.72 88.2074C183.261 88.2074 182.854 88.3139 182.499 88.527C182.148 88.7353 181.874 89.017 181.675 89.3722C181.476 89.7225 181.374 90.1132 181.37 90.544V92.3267C181.37 92.8665 181.469 93.3329 181.668 93.7259C181.871 94.1188 182.158 94.4219 182.527 94.6349C182.897 94.848 183.334 94.9545 183.841 94.9545C184.177 94.9545 184.485 94.9072 184.764 94.8125C185.044 94.7178 185.283 94.5758 185.482 94.3864C185.681 94.197 185.832 93.965 185.936 93.6903L188.735 93.875C188.593 94.5473 188.301 95.1345 187.861 95.6364C187.425 96.1335 186.862 96.5218 186.171 96.8011C185.484 97.0758 184.691 97.2131 183.791 97.2131ZM194.145 84.9901V82.4545H206.091V84.9901H201.638V97H198.598V84.9901H194.145ZM206.488 97V86.0909H209.422V87.9943H209.535C209.734 87.3172 210.068 86.8059 210.537 86.4602C211.005 86.1098 211.545 85.9347 212.156 85.9347C212.308 85.9347 212.471 85.9441 212.646 85.9631C212.821 85.982 212.975 86.008 213.108 86.0412V88.7259C212.966 88.6832 212.769 88.6454 212.518 88.6122C212.267 88.5791 212.038 88.5625 211.829 88.5625C211.384 88.5625 210.986 88.6596 210.636 88.8537C210.29 89.0431 210.016 89.3082 209.812 89.6491C209.613 89.9901 209.514 90.383 209.514 90.8281V97H206.488ZM221.288 92.3551V86.0909H224.313V97H221.408V95.0185H221.295C221.049 95.6577 220.639 96.1714 220.066 96.5597C219.498 96.9479 218.804 97.142 217.985 97.142C217.256 97.142 216.614 96.9763 216.06 96.6449C215.506 96.3134 215.073 95.8423 214.761 95.2315C214.453 94.6207 214.297 93.8892 214.292 93.0369V86.0909H217.318V92.4972C217.322 93.1411 217.495 93.6501 217.836 94.0241C218.177 94.3982 218.634 94.5852 219.207 94.5852C219.571 94.5852 219.912 94.5024 220.229 94.3366C220.547 94.1662 220.802 93.9152 220.997 93.5838C221.195 93.2524 221.292 92.8428 221.288 92.3551ZM231.325 97.2131C230.203 97.2131 229.237 96.9858 228.427 96.5312C227.622 96.072 227.002 95.4233 226.566 94.5852C226.131 93.7424 225.913 92.7457 225.913 91.5952C225.913 90.473 226.131 89.4882 226.566 88.6406C227.002 87.7931 227.615 87.1326 228.406 86.6591C229.201 86.1856 230.134 85.9489 231.204 85.9489C231.924 85.9489 232.594 86.0649 233.214 86.2969C233.839 86.5241 234.384 86.8674 234.848 87.3267C235.316 87.786 235.681 88.3636 235.941 89.0597C236.202 89.7509 236.332 90.5606 236.332 91.4886V92.3196H227.12V90.4446H233.484C233.484 90.009 233.389 89.6231 233.2 89.2869C233.011 88.9508 232.748 88.688 232.412 88.4986C232.08 88.3045 231.694 88.2074 231.254 88.2074C230.795 88.2074 230.387 88.3139 230.032 88.527C229.682 88.7353 229.407 89.017 229.209 89.3722C229.01 89.7225 228.908 90.1132 228.903 90.544V92.3267C228.903 92.8665 229.003 93.3329 229.201 93.7259C229.405 94.1188 229.691 94.4219 230.061 94.6349C230.43 94.848 230.868 94.9545 231.375 94.9545C231.711 94.9545 232.019 94.9072 232.298 94.8125C232.577 94.7178 232.816 94.5758 233.015 94.3864C233.214 94.197 233.366 93.965 233.47 93.6903L236.268 93.875C236.126 94.5473 235.835 95.1345 235.395 95.6364C234.959 96.1335 234.396 96.5218 233.704 96.8011C233.018 97.0758 232.225 97.2131 231.325 97.2131ZM242.232 97V82.4545H251.863V84.9901H245.308V88.456H251.224V90.9915H245.308V97H242.232ZM256.469 97.206C255.773 97.206 255.152 97.0852 254.608 96.8438C254.063 96.5975 253.633 96.2353 253.315 95.7571C253.003 95.2741 252.847 94.6728 252.847 93.9531C252.847 93.3471 252.958 92.8381 253.18 92.4261C253.403 92.0142 253.706 91.6828 254.089 91.4318C254.473 91.1809 254.909 90.9915 255.396 90.8636C255.889 90.7358 256.405 90.6458 256.945 90.5938C257.579 90.5275 258.09 90.4659 258.479 90.4091C258.867 90.3475 259.149 90.2576 259.324 90.1392C259.499 90.0208 259.587 89.8456 259.587 89.6136V89.571C259.587 89.1212 259.445 88.7732 259.16 88.527C258.881 88.2808 258.483 88.1577 257.967 88.1577C257.423 88.1577 256.99 88.2784 256.668 88.5199C256.346 88.7566 256.133 89.0549 256.028 89.4148L253.23 89.1875C253.372 88.5246 253.651 87.9517 254.068 87.4688C254.485 86.9811 255.022 86.607 255.68 86.3466C256.343 86.0814 257.11 85.9489 257.982 85.9489C258.588 85.9489 259.168 86.0199 259.722 86.1619C260.28 86.304 260.775 86.5241 261.206 86.8224C261.642 87.1207 261.985 87.5043 262.236 87.973C262.487 88.437 262.612 88.9934 262.612 89.642V97H259.743V95.4872H259.658C259.482 95.8281 259.248 96.1288 258.955 96.3892C258.661 96.6449 258.308 96.8461 257.896 96.9929C257.484 97.1349 257.008 97.206 256.469 97.206ZM257.335 95.1179C257.78 95.1179 258.173 95.0303 258.514 94.8551C258.855 94.6752 259.123 94.4337 259.317 94.1307C259.511 93.8277 259.608 93.4844 259.608 93.1009V91.9432C259.513 92.0047 259.383 92.0616 259.217 92.1136C259.056 92.161 258.874 92.206 258.67 92.2486C258.467 92.2865 258.263 92.322 258.06 92.3551C257.856 92.3835 257.671 92.4096 257.506 92.4332C257.151 92.4853 256.84 92.5682 256.575 92.6818C256.31 92.7955 256.104 92.9493 255.957 93.1435C255.811 93.3329 255.737 93.5696 255.737 93.8537C255.737 94.2656 255.886 94.5805 256.185 94.7983C256.488 95.0114 256.871 95.1179 257.335 95.1179ZM267.605 82.4545V97H264.579V82.4545H267.605ZM278.725 89.2017L275.956 89.3722C275.908 89.1354 275.806 88.9223 275.65 88.733C275.494 88.5388 275.288 88.3849 275.032 88.2713C274.781 88.1529 274.481 88.0938 274.13 88.0938C273.662 88.0938 273.266 88.1932 272.944 88.392C272.622 88.5862 272.461 88.8466 272.461 89.1733C272.461 89.4337 272.565 89.6539 272.774 89.8338C272.982 90.0137 273.34 90.1581 273.846 90.267L275.821 90.6648C276.881 90.8826 277.672 91.233 278.193 91.7159C278.714 92.1989 278.974 92.8333 278.974 93.6193C278.974 94.3343 278.763 94.9616 278.342 95.5014C277.925 96.0412 277.352 96.4626 276.623 96.7656C275.899 97.0639 275.063 97.2131 274.116 97.2131C272.672 97.2131 271.521 96.9124 270.664 96.3111C269.812 95.705 269.313 94.8812 269.166 93.8395L272.142 93.6832C272.232 94.1236 272.449 94.4598 272.795 94.6918C273.141 94.919 273.583 95.0327 274.123 95.0327C274.653 95.0327 275.08 94.9309 275.402 94.7273C275.728 94.5189 275.894 94.2514 275.899 93.9247C275.894 93.6501 275.778 93.4252 275.551 93.25C275.323 93.0701 274.973 92.9328 274.5 92.8381L272.61 92.4616C271.545 92.2486 270.752 91.8793 270.231 91.3537C269.715 90.8281 269.457 90.1581 269.457 89.3438C269.457 88.643 269.646 88.0393 270.025 87.5327C270.409 87.026 270.946 86.6354 271.637 86.3608C272.333 86.0862 273.148 85.9489 274.081 85.9489C275.458 85.9489 276.543 86.2401 277.333 86.8224C278.129 87.4048 278.593 88.1979 278.725 89.2017ZM285.471 97.2131C284.349 97.2131 283.383 96.9858 282.573 96.5312C281.768 96.072 281.148 95.4233 280.712 94.5852C280.277 93.7424 280.059 92.7457 280.059 91.5952C280.059 90.473 280.277 89.4882 280.712 88.6406C281.148 87.7931 281.761 87.1326 282.552 86.6591C283.347 86.1856 284.28 85.9489 285.35 85.9489C286.07 85.9489 286.74 86.0649 287.36 86.2969C287.985 86.5241 288.529 86.8674 288.994 87.3267C289.462 87.786 289.827 88.3636 290.087 89.0597C290.348 89.7509 290.478 90.5606 290.478 91.4886V92.3196H281.266V90.4446H287.63C287.63 90.009 287.535 89.6231 287.346 89.2869C287.156 88.9508 286.894 88.688 286.557 88.4986C286.226 88.3045 285.84 88.2074 285.4 88.2074C284.94 88.2074 284.533 88.3139 284.178 88.527C283.828 88.7353 283.553 89.017 283.354 89.3722C283.155 89.7225 283.054 90.1132 283.049 90.544V92.3267C283.049 92.8665 283.148 93.3329 283.347 93.7259C283.551 94.1188 283.837 94.4219 284.207 94.6349C284.576 94.848 285.014 94.9545 285.521 94.9545C285.857 94.9545 286.164 94.9072 286.444 94.8125C286.723 94.7178 286.962 94.5758 287.161 94.3864C287.36 94.197 287.512 93.965 287.616 93.6903L290.414 93.875C290.272 94.5473 289.981 95.1345 289.54 95.6364C289.105 96.1335 288.541 96.5218 287.85 96.8011C287.163 97.0758 286.37 97.2131 285.471 97.2131ZM301.179 82.1847V100.161H295.575V97.8949H298.253V84.4432H295.575V82.1847H301.179Z" fill="black"/>
</svg>
