<svg width="458" height="110" viewBox="0 0 458 110" fill="none" xmlns="http://www.w3.org/2000/svg">
<rect width="13" height="63" rx="2" transform="matrix(-4.37114e-08 -1 -1 4.37114e-08 240 56)" fill="#E04343"/>
<path d="M260.375 50.8794C261.074 50.5013 261.074 49.4987 260.375 49.1206L239.476 37.8085C238.81 37.4479 238 37.9303 238 38.688L238 61.312C238 62.0697 238.81 62.5521 239.476 62.1915L260.375 50.8794Z" fill="#E04343"/>
<path d="M185.593 20.728C185.209 21.3787 184.617 21.9813 183.817 22.536C183.017 23.08 182.083 23.5067 181.017 23.816L180.153 22.52C180.697 22.3813 181.23 22.184 181.753 21.928C182.275 21.672 182.761 21.368 183.209 21.016C183.635 20.664 183.982 20.28 184.249 19.864C184.526 19.4373 184.665 18.968 184.665 18.456V17.016H186.521V18.456C186.521 18.968 186.654 19.4373 186.921 19.864C187.187 20.28 187.534 20.664 187.961 21.016C188.387 21.368 188.867 21.672 189.401 21.928C189.945 22.184 190.489 22.3813 191.033 22.52L190.185 23.816C189.651 23.656 189.15 23.4693 188.681 23.256C188.211 23.032 187.779 22.7867 187.385 22.52C186.99 22.2533 186.638 21.9707 186.329 21.672C186.03 21.3627 185.785 21.048 185.593 20.728ZM184.681 30.984V26.392H178.825V24.952H192.265V26.392H186.425V30.984H184.681ZM198.392 22.92C198.509 22.9093 198.626 22.904 198.744 22.904C198.872 22.904 198.994 22.8987 199.112 22.888L199.144 18.808H197.544L197.56 22.968C197.698 22.9573 197.837 22.952 197.976 22.952C198.114 22.9413 198.253 22.9307 198.392 22.92ZM202.008 26.584C201.72 26.584 201.448 26.632 201.192 26.728C200.936 26.8133 200.712 26.936 200.52 27.096C200.328 27.256 200.173 27.448 200.056 27.672C199.938 27.8853 199.88 28.12 199.88 28.376C199.88 28.6533 199.938 28.8987 200.056 29.112C200.173 29.336 200.328 29.5227 200.52 29.672C200.712 29.832 200.936 29.9547 201.192 30.04C201.448 30.1253 201.72 30.168 202.008 30.168C202.296 30.168 202.568 30.1253 202.824 30.04C203.08 29.9547 203.304 29.832 203.496 29.672C203.688 29.5227 203.842 29.336 203.96 29.112C204.077 28.8987 204.136 28.6533 204.136 28.376C204.136 28.12 204.077 27.8853 203.96 27.672C203.842 27.448 203.688 27.256 203.496 27.096C203.304 26.936 203.08 26.8133 202.824 26.728C202.568 26.632 202.296 26.584 202.008 26.584ZM204.376 20.376H201.736V19.032H204.376V16.648H206.104V25.096H204.376V22.328H201.736V20.984H204.376V20.376ZM202.008 25.096C202.498 25.096 202.973 25.1707 203.432 25.32C203.901 25.4693 204.317 25.6827 204.68 25.96C205.042 26.2373 205.33 26.584 205.544 27C205.768 27.4053 205.88 27.864 205.88 28.376C205.88 28.888 205.768 29.3467 205.544 29.752C205.33 30.168 205.042 30.5147 204.68 30.792C204.317 31.0693 203.901 31.2827 203.432 31.432C202.973 31.5813 202.498 31.656 202.008 31.656C201.517 31.656 201.037 31.5813 200.568 31.432C200.109 31.2827 199.698 31.0693 199.336 30.792C198.973 30.5147 198.68 30.168 198.456 29.752C198.242 29.3467 198.136 28.888 198.136 28.376C198.136 27.864 198.242 27.4053 198.456 27C198.68 26.584 198.973 26.2373 199.336 25.96C199.698 25.6827 200.109 25.4693 200.568 25.32C201.037 25.1707 201.517 25.096 202.008 25.096ZM194.616 18.808V17.32H201.976V18.808H200.696L200.664 22.776C201.037 22.744 201.394 22.7067 201.736 22.664C202.088 22.6213 202.418 22.5733 202.728 22.52L202.904 23.992C202.349 24.0773 201.746 24.152 201.096 24.216C200.456 24.2693 199.757 24.3173 199 24.36C198.253 24.4027 197.49 24.44 196.712 24.472C195.944 24.4933 195.16 24.5093 194.36 24.52L194.2 23.032C194.445 23.0427 194.717 23.048 195.016 23.048C195.314 23.0373 195.634 23.0267 195.976 23.016L195.944 18.808H194.616ZM214.203 27.64C215.259 28.0773 216.235 28.296 217.131 28.296C217.845 28.296 218.421 28.136 218.859 27.816C219.36 27.464 219.611 26.9467 219.611 26.264C219.611 24.984 218.715 24.344 216.923 24.344H215.739V22.744H216.219C217.211 22.744 217.957 22.648 218.459 22.456C219.195 22.1573 219.563 21.592 219.563 20.76C219.563 20.5467 219.504 20.3493 219.387 20.168C219.28 19.9867 219.131 19.832 218.939 19.704C218.747 19.576 218.517 19.4747 218.251 19.4C217.995 19.3253 217.717 19.288 217.419 19.288C216.629 19.288 215.739 19.5173 214.747 19.976L214.587 18.248C215.579 17.8747 216.555 17.688 217.515 17.688C218.571 17.688 219.424 17.9013 220.075 18.328C220.885 18.8507 221.291 19.64 221.291 20.696C221.291 21.9547 220.677 22.888 219.451 23.496C220.699 23.9653 221.323 24.92 221.323 26.36C221.323 27.4587 220.901 28.3333 220.059 28.984C219.28 29.5707 218.283 29.864 217.067 29.864C215.829 29.864 214.811 29.6987 214.011 29.368L214.203 27.64ZM233.186 21.416V20.104H227.698V21.416H233.186ZM235.202 31.112H225.858V27.048H227.586V29.64H235.202V31.112ZM229.89 28.264V25.624H223.714V24.184H237.154V25.624H231.634V28.264H229.89ZM225.97 22.872V17.016H227.698V18.632H233.186V17.016H234.898V22.872H225.97ZM239.169 20.024V18.616H247.489V20.024H239.169ZM240.865 18.056V16.616H245.777V18.056H240.865ZM242.401 31.64V28.072H248.881V27.336H242.385V25.912H250.577V29.448H244.081V30.2H250.929V31.64H242.401ZM252.833 22.216H250.577V25.368H248.849V16.648H250.577V20.744H252.833V22.216ZM244.785 22.792C244.785 22.472 244.641 22.216 244.353 22.024C244.075 21.8213 243.734 21.72 243.329 21.72C242.923 21.72 242.577 21.8213 242.289 22.024C242.011 22.216 241.873 22.472 241.873 22.792C241.873 23.112 242.011 23.3733 242.289 23.576C242.577 23.7787 242.923 23.88 243.329 23.88C243.734 23.88 244.075 23.7787 244.353 23.576C244.641 23.3733 244.785 23.112 244.785 22.792ZM246.385 22.792C246.385 23.1333 246.31 23.4533 246.161 23.752C246.011 24.04 245.798 24.296 245.521 24.52C245.254 24.7333 244.934 24.904 244.561 25.032C244.187 25.1493 243.777 25.208 243.329 25.208C242.881 25.208 242.47 25.1493 242.097 25.032C241.723 24.904 241.398 24.7333 241.121 24.52C240.854 24.296 240.646 24.04 240.497 23.752C240.347 23.4533 240.273 23.1333 240.273 22.792C240.273 22.4507 240.347 22.136 240.497 21.848C240.646 21.56 240.854 21.3093 241.121 21.096C241.398 20.8827 241.723 20.7173 242.097 20.6C242.47 20.472 242.881 20.408 243.329 20.408C243.777 20.408 244.187 20.472 244.561 20.6C244.934 20.7173 245.254 20.8827 245.521 21.096C245.798 21.3093 246.011 21.56 246.161 21.848C246.31 22.136 246.385 22.4507 246.385 22.792Z" fill="black"/>
<rect x="418" y="8" width="38.5455" height="38.5455" rx="3" fill="#89D2FF"/>
<rect x="418" y="8" width="38.5455" height="38.5455" rx="3" stroke="white" stroke-width="2"/>
<rect x="418" y="8" width="38.5455" height="38.5455" rx="3" stroke="#454545" stroke-opacity="0.61" stroke-width="2"/>
<rect x="418" y="46.7437" width="38.5455" height="38.5455" rx="3" fill="#89D2FF"/>
<rect x="418" y="46.7437" width="38.5455" height="38.5455" rx="3" stroke="white" stroke-width="2"/>
<rect x="418" y="46.7437" width="38.5455" height="38.5455" rx="3" stroke="#454545" stroke-opacity="0.61" stroke-width="2"/>
<path d="M431.718 34.41V32.3149L437.89 22.5634H439.637V25.5464H438.571L434.417 32.1302V32.2438H443.032V34.41H431.718ZM438.657 37.1089V33.7708L438.685 32.8333V22.5634H441.171V37.1089H438.657Z" fill="black"/>
<path d="M431.718 73.1537V71.0585L437.89 61.3071H439.637V64.29H438.571L434.417 70.8738V70.9875H443.032V73.1537H431.718ZM438.657 75.8525V72.5145L438.685 71.577V61.3071H441.171V75.8525H438.657Z" fill="black"/>
<rect x="369" y="8" width="38.5455" height="38.5455" rx="3" fill="#BCE5FF"/>
<rect x="369" y="8" width="38.5455" height="38.5455" rx="3" stroke="white" stroke-width="2"/>
<rect x="369" y="8" width="38.5455" height="38.5455" rx="3" stroke="#454545" stroke-opacity="0.42" stroke-width="2"/>
<rect x="369" y="46.7437" width="38.5455" height="38.5455" rx="3" fill="#BCE5FF"/>
<rect x="369" y="46.7437" width="38.5455" height="38.5455" rx="3" stroke="white" stroke-width="2"/>
<rect x="369" y="46.7437" width="38.5455" height="38.5455" rx="3" stroke="#454545" stroke-opacity="0.42" stroke-width="2"/>
<path d="M388.345 37.3078C387.322 37.3078 386.413 37.1326 385.618 36.7822C384.827 36.4318 384.202 35.9441 383.743 35.3191C383.284 34.6941 383.04 33.972 383.011 33.1529H385.682C385.706 33.5459 385.836 33.8892 386.072 34.1828C386.309 34.4716 386.624 34.6965 387.017 34.8575C387.41 35.0185 387.85 35.0989 388.338 35.0989C388.859 35.0989 389.321 35.009 389.723 34.8291C390.125 34.6444 390.44 34.3887 390.668 34.062C390.895 33.7353 391.006 33.3589 391.001 32.9328C391.006 32.4924 390.893 32.1042 390.661 31.768C390.429 31.4318 390.092 31.169 389.652 30.9796C389.216 30.7902 388.691 30.6955 388.075 30.6955H386.79V28.6643H388.075C388.582 28.6643 389.025 28.5767 389.403 28.4015C389.787 28.2263 390.088 27.9801 390.305 27.6629C390.523 27.3409 390.63 26.9692 390.625 26.5478C390.63 26.1359 390.537 25.7784 390.348 25.4754C390.163 25.1676 389.901 24.9285 389.56 24.758C389.224 24.5876 388.828 24.5024 388.374 24.5024C387.929 24.5024 387.517 24.5828 387.138 24.7438C386.759 24.9048 386.454 25.1345 386.222 25.4328C385.99 25.7263 385.866 26.0767 385.852 26.4839H383.317C383.336 25.6695 383.57 24.9545 384.02 24.339C384.474 23.7187 385.081 23.2358 385.838 22.8901C386.596 22.5398 387.446 22.3646 388.388 22.3646C389.358 22.3646 390.201 22.5469 390.916 22.9114C391.636 23.2713 392.192 23.7566 392.585 24.3674C392.978 24.9782 393.175 25.6529 393.175 26.3916C393.179 27.2107 392.938 27.8972 392.45 28.4512C391.967 29.0052 391.333 29.3674 390.547 29.5379V29.6515C391.57 29.7935 392.353 30.1723 392.898 30.7879C393.447 31.3987 393.719 32.1586 393.715 33.0677C393.715 33.8821 393.483 34.6113 393.018 35.2552C392.559 35.8944 391.925 36.3963 391.115 36.7609C390.31 37.1255 389.387 37.3078 388.345 37.3078Z" fill="black"/>
<path d="M388.345 76.0514C387.322 76.0514 386.413 75.8762 385.618 75.5258C384.827 75.1755 384.202 74.6878 383.743 74.0628C383.284 73.4378 383.04 72.7157 383.011 71.8966H385.682C385.706 72.2896 385.836 72.6328 386.072 72.9264C386.309 73.2152 386.624 73.4401 387.017 73.6011C387.41 73.7621 387.85 73.8426 388.338 73.8426C388.859 73.8426 389.321 73.7526 389.723 73.5727C390.125 73.3881 390.44 73.1324 390.668 72.8057C390.895 72.479 391.006 72.1025 391.001 71.6764C391.006 71.2361 390.893 70.8478 390.661 70.5116C390.429 70.1755 390.092 69.9127 389.652 69.7233C389.216 69.5339 388.691 69.4392 388.075 69.4392H386.79V67.4079H388.075C388.582 67.4079 389.025 67.3203 389.403 67.1452C389.787 66.97 390.088 66.7238 390.305 66.4065C390.523 66.0845 390.63 65.7129 390.625 65.2915C390.63 64.8795 390.537 64.522 390.348 64.219C390.163 63.9113 389.901 63.6721 389.56 63.5017C389.224 63.3312 388.828 63.246 388.374 63.246C387.929 63.246 387.517 63.3265 387.138 63.4875C386.759 63.6485 386.454 63.8781 386.222 64.1764C385.99 64.47 385.866 64.8203 385.852 65.2275H383.317C383.336 64.4131 383.57 63.6982 384.02 63.0827C384.474 62.4624 385.081 61.9794 385.838 61.6338C386.596 61.2834 387.446 61.1082 388.388 61.1082C389.358 61.1082 390.201 61.2905 390.916 61.6551C391.636 62.0149 392.192 62.5003 392.585 63.1111C392.978 63.7219 393.175 64.3966 393.175 65.1352C393.179 65.9543 392.938 66.6409 392.45 67.1949C391.967 67.7488 391.333 68.1111 390.547 68.2815V68.3952C391.57 68.5372 392.353 68.916 392.898 69.5315C393.447 70.1423 393.719 70.9023 393.715 71.8113C393.715 72.6257 393.483 73.3549 393.018 73.9988C392.559 74.6381 391.925 75.1399 391.115 75.5045C390.31 75.8691 389.387 76.0514 388.345 76.0514Z" fill="black"/>
<rect x="282" y="8" width="38.5455" height="38.5455" rx="3" fill="#F1F8FF"/>
<rect x="282" y="8" width="38.5455" height="38.5455" rx="3" stroke="white" stroke-width="2"/>
<rect x="282" y="8" width="38.5455" height="38.5455" rx="3" stroke="#454545" stroke-opacity="0.42" stroke-width="2"/>
<rect x="320.744" y="8" width="38.5455" height="38.5455" rx="3" fill="#F1F8FF"/>
<rect x="320.744" y="8" width="38.5455" height="38.5455" rx="3" stroke="white" stroke-width="2"/>
<rect x="320.744" y="8" width="38.5455" height="38.5455" rx="3" stroke="#454545" stroke-opacity="0.42" stroke-width="2"/>
<rect x="282" y="46.7437" width="38.5455" height="38.5455" rx="3" fill="#F1F8FF"/>
<rect x="282" y="46.7437" width="38.5455" height="38.5455" rx="3" stroke="white" stroke-width="2"/>
<rect x="282" y="46.7437" width="38.5455" height="38.5455" rx="3" stroke="#454545" stroke-opacity="0.42" stroke-width="2"/>
<rect x="320.744" y="46.7437" width="38.5455" height="38.5455" rx="3" fill="#F1F8FF"/>
<rect x="320.744" y="46.7437" width="38.5455" height="38.5455" rx="3" stroke="white" stroke-width="2"/>
<rect x="320.744" y="46.7437" width="38.5455" height="38.5455" rx="3" stroke="#454545" stroke-opacity="0.42" stroke-width="2"/>
<path d="M303.752 22.5634V37.1089H301.117V25.1274H301.032L297.63 27.3006V24.8859L301.245 22.5634H303.752Z" fill="black"/>
<path d="M335.172 37.1089V35.2055L340.222 30.2552C340.705 29.7675 341.107 29.3343 341.429 28.9555C341.751 28.5767 341.992 28.2097 342.153 27.8546C342.314 27.4995 342.395 27.1207 342.395 26.7183C342.395 26.259 342.291 25.866 342.082 25.5393C341.874 25.2078 341.588 24.9522 341.223 24.7722C340.858 24.5923 340.444 24.5024 339.98 24.5024C339.502 24.5024 339.083 24.6018 338.723 24.8006C338.363 24.9948 338.084 25.2718 337.885 25.6316C337.691 25.9915 337.594 26.42 337.594 26.9171H335.087C335.087 25.9938 335.297 25.1913 335.719 24.5095C336.14 23.8276 336.72 23.2997 337.459 22.9256C338.202 22.5516 339.054 22.3646 340.016 22.3646C340.991 22.3646 341.848 22.5469 342.587 22.9114C343.325 23.276 343.898 23.7756 344.305 24.41C344.717 25.0445 344.923 25.7689 344.923 26.5833C344.923 27.1278 344.819 27.6629 344.611 28.1884C344.402 28.714 344.036 29.2964 343.51 29.9356C342.989 30.5748 342.258 31.3489 341.315 32.258L338.808 34.8078V34.9072H345.143V37.1089H335.172Z" fill="black"/>
<path d="M303.752 61.3071V75.8525H301.117V63.871H301.032L297.63 66.0443V63.6295L301.245 61.3071H303.752Z" fill="black"/>
<path d="M335.172 75.8525V73.9491L340.222 68.9988C340.705 68.5112 341.107 68.0779 341.429 67.6991C341.751 67.3203 341.992 66.9534 342.153 66.5983C342.314 66.2432 342.395 65.8644 342.395 65.4619C342.395 65.0026 342.291 64.6096 342.082 64.2829C341.874 63.9515 341.588 63.6958 341.223 63.5159C340.858 63.336 340.444 63.246 339.98 63.246C339.502 63.246 339.083 63.3454 338.723 63.5443C338.363 63.7384 338.084 64.0154 337.885 64.3753C337.691 64.7351 337.594 65.1636 337.594 65.6608H335.087C335.087 64.7375 335.297 63.9349 335.719 63.2531C336.14 62.5713 336.72 62.0434 337.459 61.6693C338.202 61.2952 339.054 61.1082 340.016 61.1082C340.991 61.1082 341.848 61.2905 342.587 61.6551C343.325 62.0197 343.898 62.5192 344.305 63.1537C344.717 63.7881 344.923 64.5126 344.923 65.327C344.923 65.8715 344.819 66.4065 344.611 66.9321C344.402 67.4577 344.036 68.04 343.51 68.6792C342.989 69.3184 342.258 70.0926 341.315 71.0017L338.808 73.5514V73.6508H345.143V75.8525H335.172Z" fill="black"/>
<rect x="1" y="1" width="38.5455" height="38.5455" rx="3" fill="#F1F8FF"/>
<rect x="1" y="1" width="38.5455" height="38.5455" rx="3" stroke="white" stroke-width="2"/>
<rect x="1" y="1" width="38.5455" height="38.5455" rx="3" stroke="#454545" stroke-opacity="0.42" stroke-width="2"/>
<rect x="39.7441" y="1" width="38.5455" height="38.5455" rx="3" fill="#F1F8FF"/>
<rect x="39.7441" y="1" width="38.5455" height="38.5455" rx="3" stroke="white" stroke-width="2"/>
<rect x="39.7441" y="1" width="38.5455" height="38.5455" rx="3" stroke="#454545" stroke-opacity="0.42" stroke-width="2"/>
<rect x="78.4863" y="1" width="38.5455" height="38.5455" rx="3" fill="#BCE5FF"/>
<rect x="78.4863" y="1" width="38.5455" height="38.5455" rx="3" stroke="white" stroke-width="2"/>
<rect x="78.4863" y="1" width="38.5455" height="38.5455" rx="3" stroke="#454545" stroke-opacity="0.61" stroke-width="2"/>
<rect x="1" y="39.7437" width="38.5455" height="38.5455" rx="3" fill="#F1F8FF"/>
<rect x="1" y="39.7437" width="38.5455" height="38.5455" rx="3" stroke="white" stroke-width="2"/>
<rect x="1" y="39.7437" width="38.5455" height="38.5455" rx="3" stroke="#454545" stroke-opacity="0.42" stroke-width="2"/>
<rect x="39.7441" y="39.7437" width="38.5455" height="38.5455" rx="3" fill="#F1F8FF"/>
<rect x="39.7441" y="39.7437" width="38.5455" height="38.5455" rx="3" stroke="white" stroke-width="2"/>
<rect x="39.7441" y="39.7437" width="38.5455" height="38.5455" rx="3" stroke="#454545" stroke-opacity="0.42" stroke-width="2"/>
<rect x="78.4863" y="39.7437" width="38.5455" height="38.5455" rx="3" fill="#BCE5FF"/>
<rect x="78.4863" y="39.7437" width="38.5455" height="38.5455" rx="3" stroke="white" stroke-width="2"/>
<rect x="78.4863" y="39.7437" width="38.5455" height="38.5455" rx="3" stroke="#454545" stroke-opacity="0.61" stroke-width="2"/>
<path d="M22.7521 15.5634V30.1089H20.1172V18.1274H20.032L16.63 20.3006V17.8859L20.245 15.5634H22.7521Z" fill="black"/>
<path d="M97.8335 30.3078C96.8107 30.3078 95.9017 30.1326 95.1062 29.7822C94.3155 29.4318 93.6905 28.9441 93.2312 28.3191C92.7719 27.6941 92.5281 26.972 92.4997 26.1529H95.1701C95.1938 26.5459 95.324 26.8892 95.5607 27.1828C95.7975 27.4716 96.1124 27.6965 96.5053 27.8575C96.8983 28.0185 97.3387 28.0989 97.8264 28.0989C98.3472 28.0989 98.8088 28.009 99.2113 27.8291C99.6138 27.6444 99.9286 27.3887 100.156 27.062C100.383 26.7353 100.494 26.3589 100.49 25.9328C100.494 25.4924 100.381 25.1042 100.149 24.768C99.9168 24.4318 99.5806 24.169 99.1403 23.9796C98.7047 23.7902 98.1791 23.6955 97.5636 23.6955H96.2781V21.6643H97.5636C98.0702 21.6643 98.5129 21.5767 98.8917 21.4015C99.2752 21.2263 99.5759 20.9801 99.7937 20.6629C100.012 20.3409 100.118 19.9692 100.113 19.5478C100.118 19.1359 100.026 18.7784 99.8363 18.4754C99.6517 18.1676 99.3889 17.9285 99.048 17.758C98.7118 17.5876 98.3164 17.5024 97.8619 17.5024C97.4168 17.5024 97.0049 17.5828 96.6261 17.7438C96.2473 17.9048 95.9419 18.1345 95.7099 18.4328C95.4779 18.7263 95.3548 19.0767 95.3406 19.4839H92.8051C92.824 18.6695 93.0584 17.9545 93.5082 17.339C93.9627 16.7187 94.5688 16.2358 95.3264 15.8901C96.0839 15.5398 96.9338 15.3646 97.8761 15.3646C98.8467 15.3646 99.6895 15.5469 100.404 15.9114C101.124 16.2713 101.681 16.7566 102.074 17.3674C102.467 17.9782 102.663 18.6529 102.663 19.3916C102.668 20.2107 102.426 20.8972 101.939 21.4512C101.456 22.0052 100.821 22.3674 100.035 22.5379V22.6515C101.058 22.7935 101.842 23.1723 102.386 23.7879C102.935 24.3987 103.208 25.1586 103.203 26.0677C103.203 26.8821 102.971 27.6113 102.507 28.2552C102.047 28.8944 101.413 29.3963 100.603 29.7609C99.7984 30.1255 98.8751 30.3078 97.8335 30.3078Z" fill="black"/>
<path d="M54.1719 30.1089V28.2055L59.2216 23.2552C59.7046 22.7675 60.107 22.3343 60.429 21.9555C60.751 21.5767 60.9924 21.2097 61.1534 20.8546C61.3144 20.4995 61.3949 20.1207 61.3949 19.7183C61.3949 19.259 61.2907 18.866 61.0824 18.5393C60.8741 18.2078 60.5876 17.9522 60.223 17.7722C59.8584 17.5923 59.4441 17.5024 58.9801 17.5024C58.5019 17.5024 58.0829 17.6018 57.723 17.8006C57.3632 17.9948 57.0838 18.2718 56.885 18.6316C56.6908 18.9915 56.5938 19.42 56.5938 19.9171H54.0867C54.0867 18.9938 54.2974 18.1913 54.7188 17.5095C55.1402 16.8276 55.7202 16.2997 56.4588 15.9256C57.2022 15.5516 58.0545 15.3646 59.0156 15.3646C59.991 15.3646 60.848 15.5469 61.5867 15.9114C62.3253 16.276 62.8982 16.7756 63.3054 17.41C63.7173 18.0445 63.9233 18.7689 63.9233 19.5833C63.9233 20.1278 63.8191 20.6629 63.6108 21.1884C63.4025 21.714 63.0355 22.2964 62.51 22.9356C61.9891 23.5748 61.2576 24.3489 60.3154 25.258L57.8083 27.8078V27.9072H64.1435V30.1089H54.1719Z" fill="black"/>
<path d="M22.7521 54.3071V68.8525H20.1172V56.871H20.032L16.63 59.0443V56.6295L20.245 54.3071H22.7521Z" fill="black"/>
<path d="M97.8335 69.0514C96.8107 69.0514 95.9017 68.8762 95.1062 68.5258C94.3155 68.1755 93.6905 67.6878 93.2312 67.0628C92.7719 66.4378 92.5281 65.7157 92.4997 64.8966H95.1701C95.1938 65.2896 95.324 65.6328 95.5607 65.9264C95.7975 66.2152 96.1124 66.4401 96.5053 66.6011C96.8983 66.7621 97.3387 66.8426 97.8264 66.8426C98.3472 66.8426 98.8088 66.7526 99.2113 66.5727C99.6138 66.3881 99.9286 66.1324 100.156 65.8057C100.383 65.479 100.494 65.1025 100.49 64.6764C100.494 64.2361 100.381 63.8478 100.149 63.5116C99.9168 63.1755 99.5806 62.9127 99.1403 62.7233C98.7047 62.5339 98.1791 62.4392 97.5636 62.4392H96.2781V60.4079H97.5636C98.0702 60.4079 98.5129 60.3203 98.8917 60.1452C99.2752 59.97 99.5759 59.7238 99.7937 59.4065C100.012 59.0845 100.118 58.7129 100.113 58.2915C100.118 57.8795 100.026 57.522 99.8363 57.219C99.6517 56.9113 99.3889 56.6721 99.048 56.5017C98.7118 56.3312 98.3164 56.246 97.8619 56.246C97.4168 56.246 97.0049 56.3265 96.6261 56.4875C96.2473 56.6485 95.9419 56.8781 95.7099 57.1764C95.4779 57.47 95.3548 57.8203 95.3406 58.2275H92.8051C92.824 57.4131 93.0584 56.6982 93.5082 56.0827C93.9627 55.4624 94.5688 54.9794 95.3264 54.6338C96.0839 54.2834 96.9338 54.1082 97.8761 54.1082C98.8467 54.1082 99.6895 54.2905 100.404 54.6551C101.124 55.0149 101.681 55.5003 102.074 56.1111C102.467 56.7219 102.663 57.3966 102.663 58.1352C102.668 58.9543 102.426 59.6409 101.939 60.1949C101.456 60.7488 100.821 61.1111 100.035 61.2815V61.3952C101.058 61.5372 101.842 61.916 102.386 62.5315C102.935 63.1423 103.208 63.9023 103.203 64.8113C103.203 65.6257 102.971 66.3549 102.507 66.9988C102.047 67.6381 101.413 68.1399 100.603 68.5045C99.7984 68.8691 98.8751 69.0514 97.8335 69.0514Z" fill="black"/>
<path d="M54.1719 68.8525V66.9491L59.2216 61.9988C59.7046 61.5112 60.107 61.0779 60.429 60.6991C60.751 60.3203 60.9924 59.9534 61.1534 59.5983C61.3144 59.2432 61.3949 58.8644 61.3949 58.4619C61.3949 58.0026 61.2907 57.6096 61.0824 57.2829C60.8741 56.9515 60.5876 56.6958 60.223 56.5159C59.8584 56.336 59.4441 56.246 58.9801 56.246C58.5019 56.246 58.0829 56.3454 57.723 56.5443C57.3632 56.7384 57.0838 57.0154 56.885 57.3753C56.6908 57.7351 56.5938 58.1636 56.5938 58.6608H54.0867C54.0867 57.7375 54.2974 56.9349 54.7188 56.2531C55.1402 55.5713 55.7202 55.0434 56.4588 54.6693C57.2022 54.2952 58.0545 54.1082 59.0156 54.1082C59.991 54.1082 60.848 54.2905 61.5867 54.6551C62.3253 55.0197 62.8982 55.5192 63.3054 56.1537C63.7173 56.7881 63.9233 57.5126 63.9233 58.327C63.9233 58.8715 63.8191 59.4065 63.6108 59.9321C63.4025 60.4577 63.0355 61.04 62.51 61.6792C61.9891 62.3184 61.2576 63.0926 60.3154 64.0017L57.8083 66.5514V66.6508H64.1435V68.8525H54.1719Z" fill="black"/>
<path d="M99.9242 95.5455V105H98.4931V96.9766H98.4377L96.1756 98.4538V97.0874L98.5346 95.5455H99.9242Z" fill="black"/>
<path d="M87.5 87.25L80 83.6699L80 92.3301L87.5 88.75L87.5 87.25ZM108.5 88.75L116 92.3301L116 83.6699L108.5 87.25L108.5 88.75ZM86.75 88.75L109.25 88.75L109.25 87.25L86.75 87.25L86.75 88.75Z" fill="black"/>
<rect x="118" y="1" width="38.5455" height="38.5455" rx="3" fill="#89D2FF"/>
<rect x="118" y="1" width="38.5455" height="38.5455" rx="3" stroke="white" stroke-width="2"/>
<rect x="118" y="1" width="38.5455" height="38.5455" rx="3" stroke="#454545" stroke-opacity="0.61" stroke-width="2"/>
<rect x="118" y="39.7437" width="38.5455" height="38.5455" rx="3" fill="#89D2FF"/>
<rect x="118" y="39.7437" width="38.5455" height="38.5455" rx="3" stroke="white" stroke-width="2"/>
<rect x="118" y="39.7437" width="38.5455" height="38.5455" rx="3" stroke="#454545" stroke-opacity="0.61" stroke-width="2"/>
<path d="M131.718 27.41V25.3149L137.89 15.5634H139.637V18.5464H138.571L134.417 25.1302V25.2438H143.032V27.41H131.718ZM138.657 30.1089V26.7708L138.685 25.8333V15.5634H141.171V30.1089H138.657Z" fill="black"/>
<path d="M131.718 66.1537V64.0585L137.89 54.3071H139.637V57.29H138.571L134.417 63.8738V63.9875H143.032V66.1537H131.718ZM138.657 68.8525V65.5145L138.685 64.577V54.3071H141.171V68.8525H138.657Z" fill="black"/>
<path d="M139.438 95.5455V105H138.007V96.9766H137.951L135.689 98.4538V97.0874L138.048 95.5455H139.438Z" fill="black"/>
<path d="M127.014 87.25L119.514 83.6699L119.514 92.3301L127.014 88.75L127.014 87.25ZM148.014 88.75L155.514 92.3301L155.514 83.6699L148.014 87.25L148.014 88.75ZM126.264 88.75L148.764 88.75L148.764 87.25L126.264 87.25L126.264 88.75Z" fill="black"/>
<path d="M35.4231 105V103.966L38.6223 100.651C38.964 100.291 39.2456 99.9757 39.4672 99.7049C39.6918 99.431 39.8596 99.1709 39.9703 98.9247C40.0811 98.6785 40.1365 98.4169 40.1365 98.1399C40.1365 97.826 40.0627 97.5552 39.915 97.3274C39.7672 97.0966 39.5656 96.9196 39.3102 96.7965C39.0547 96.6703 38.767 96.6072 38.4469 96.6072C38.1084 96.6072 37.8129 96.6765 37.5605 96.815C37.3082 96.9535 37.1143 97.1489 36.9789 97.4013C36.8435 97.6536 36.7757 97.9491 36.7757 98.2876H35.4139C35.4139 97.7121 35.5462 97.2089 35.8109 96.7781C36.0756 96.3472 36.4387 96.0133 36.9004 95.7763C37.362 95.5362 37.8868 95.4162 38.4746 95.4162C39.0686 95.4162 39.5918 95.5347 40.0442 95.7717C40.4997 96.0056 40.8552 96.3256 41.1106 96.7319C41.3661 97.1351 41.4938 97.5906 41.4938 98.0984C41.4938 98.4492 41.4276 98.7924 41.2953 99.1278C41.166 99.4633 40.9398 99.8372 40.6167 100.25C40.2935 100.659 39.8442 101.156 39.2686 101.741L37.3897 103.707V103.777H41.6461V105H35.4231Z" fill="black"/>
<path d="M7.5 87.25L0 83.6699L0 92.3301L7.5 88.75L7.5 87.25ZM69.5 88.75L77 92.3301L77 83.6699L69.5 87.25L69.5 88.75ZM6.75 88.75L70.25 88.75L70.25 87.25L6.75 87.25L6.75 88.75Z" fill="black"/>
</svg>
