<svg width="324" height="169" viewBox="0 0 324 169" fill="none" xmlns="http://www.w3.org/2000/svg">
<g filter="url(#filter0_dd_1258_1211)">
<rect x="206.75" y="10.75" width="32.2431" height="32.2431" rx="3.25" fill="#FBFBFB"/>
<rect x="206.75" y="10.75" width="32.2431" height="32.2431" rx="3.25" stroke="#E3E3E3" stroke-width="1.5"/>
<rect x="206.75" y="10.75" width="32.2431" height="32.2431" rx="3.25" stroke="black" stroke-opacity="0.2" stroke-width="1.5"/>
<rect x="239.455" y="10.75" width="32.2431" height="32.2431" rx="3.25" fill="#FBFBFB"/>
<rect x="239.455" y="10.75" width="32.2431" height="32.2431" rx="3.25" stroke="#E3E3E3" stroke-width="1.5"/>
<rect x="239.455" y="10.75" width="32.2431" height="32.2431" rx="3.25" stroke="black" stroke-opacity="0.2" stroke-width="1.5"/>
<rect x="272.16" y="10.75" width="32.2431" height="32.2431" rx="3.25" fill="#FBFBFB"/>
<rect x="272.16" y="10.75" width="32.2431" height="32.2431" rx="3.25" stroke="#E3E3E3" stroke-width="1.5"/>
<rect x="272.16" y="10.75" width="32.2431" height="32.2431" rx="3.25" stroke="black" stroke-opacity="0.2" stroke-width="1.5"/>
<rect x="206.75" y="43.4541" width="32.2431" height="32.2431" rx="3.25" fill="#FBFBFB"/>
<rect x="206.75" y="43.4541" width="32.2431" height="32.2431" rx="3.25" stroke="#E3E3E3" stroke-width="1.5"/>
<rect x="206.75" y="43.4541" width="32.2431" height="32.2431" rx="3.25" stroke="black" stroke-opacity="0.2" stroke-width="1.5"/>
<rect x="239.455" y="43.4541" width="32.2431" height="32.2431" rx="3.25" fill="#FBFBFB"/>
<rect x="239.455" y="43.4541" width="32.2431" height="32.2431" rx="3.25" stroke="#E3E3E3" stroke-width="1.5"/>
<rect x="239.455" y="43.4541" width="32.2431" height="32.2431" rx="3.25" stroke="black" stroke-opacity="0.2" stroke-width="1.5"/>
<rect x="272.16" y="43.4541" width="32.2431" height="32.2431" rx="3.25" fill="#FBFBFB"/>
<rect x="272.16" y="43.4541" width="32.2431" height="32.2431" rx="3.25" stroke="#E3E3E3" stroke-width="1.5"/>
<rect x="272.16" y="43.4541" width="32.2431" height="32.2431" rx="3.25" stroke="black" stroke-opacity="0.2" stroke-width="1.5"/>
<rect x="206.75" y="76.1592" width="32.2431" height="32.2431" rx="3.25" fill="#FBFBFB"/>
<rect x="206.75" y="76.1592" width="32.2431" height="32.2431" rx="3.25" stroke="#E3E3E3" stroke-width="1.5"/>
<rect x="206.75" y="76.1592" width="32.2431" height="32.2431" rx="3.25" stroke="black" stroke-opacity="0.2" stroke-width="1.5"/>
<rect x="239.455" y="76.1592" width="32.2431" height="32.2431" rx="3.25" fill="#FBFBFB"/>
<rect x="239.455" y="76.1592" width="32.2431" height="32.2431" rx="3.25" stroke="#E3E3E3" stroke-width="1.5"/>
<rect x="239.455" y="76.1592" width="32.2431" height="32.2431" rx="3.25" stroke="black" stroke-opacity="0.2" stroke-width="1.5"/>
<rect x="272.16" y="76.1592" width="32.2431" height="32.2431" rx="3.25" fill="#FBFBFB"/>
<rect x="272.16" y="76.1592" width="32.2431" height="32.2431" rx="3.25" stroke="#E3E3E3" stroke-width="1.5"/>
<rect x="272.16" y="76.1592" width="32.2431" height="32.2431" rx="3.25" stroke="black" stroke-opacity="0.2" stroke-width="1.5"/>
</g>
<path d="M220.532 22.5455V32H218.533V24.4428H218.478L216.312 25.8001V24.0273L218.653 22.5455H220.532ZM225.953 22.4162C226.439 22.4162 226.907 22.4978 227.356 22.6609C227.809 22.824 228.212 23.084 228.566 23.4411C228.923 23.7981 229.204 24.272 229.411 24.8629C229.62 25.4508 229.726 26.1725 229.729 27.0281C229.729 27.8313 229.638 28.5484 229.457 29.1793C229.278 29.8072 229.021 30.3411 228.686 30.7812C228.35 31.2214 227.946 31.5568 227.472 31.7876C226.998 32.0154 226.468 32.1293 225.884 32.1293C225.253 32.1293 224.696 32.0077 224.212 31.7646C223.729 31.5183 223.34 31.1844 223.044 30.7628C222.752 30.3381 222.575 29.861 222.514 29.3317H224.485C224.562 29.6764 224.723 29.9441 224.969 30.1349C225.216 30.3227 225.52 30.4165 225.884 30.4165C226.499 30.4165 226.967 30.1488 227.287 29.6133C227.607 29.0747 227.769 28.3376 227.772 27.402H227.707C227.565 27.679 227.375 27.9175 227.135 28.1175C226.895 28.3145 226.619 28.4669 226.308 28.5746C226.001 28.6823 225.673 28.7362 225.325 28.7362C224.768 28.7362 224.271 28.6054 223.834 28.3438C223.397 28.0821 223.052 27.7221 222.8 27.2635C222.547 26.8049 222.421 26.2817 222.421 25.6939C222.418 25.0599 222.564 24.4951 222.86 23.9996C223.155 23.5041 223.568 23.1164 224.097 22.8363C224.629 22.5531 225.248 22.4131 225.953 22.4162ZM225.967 23.9858C225.656 23.9858 225.379 24.0597 225.136 24.2074C224.896 24.3551 224.705 24.5536 224.563 24.8029C224.425 25.0522 224.357 25.3307 224.36 25.6385C224.36 25.9493 224.428 26.2294 224.563 26.4787C224.702 26.7249 224.889 26.9219 225.126 27.0696C225.367 27.2143 225.64 27.2866 225.948 27.2866C226.179 27.2866 226.393 27.2435 226.59 27.1573C226.787 27.0711 226.958 26.9527 227.102 26.8018C227.25 26.648 227.365 26.471 227.449 26.271C227.532 26.0709 227.573 25.8585 227.573 25.6339C227.57 25.3353 227.499 25.0614 227.361 24.8121C227.222 24.5629 227.032 24.3628 226.788 24.212C226.545 24.0612 226.271 23.9858 225.967 23.9858Z" fill="#646464"/>
<path d="M280.492 65V63.5597L283.857 60.4435C284.144 60.1665 284.384 59.9173 284.577 59.6957C284.774 59.4741 284.924 59.2571 285.025 59.0447C285.127 58.8293 285.178 58.5969 285.178 58.3477C285.178 58.0707 285.115 57.8321 284.988 57.6321C284.862 57.429 284.69 57.2736 284.471 57.1658C284.253 57.055 284.005 56.9996 283.728 56.9996C283.439 56.9996 283.186 57.0581 282.971 57.1751C282.755 57.292 282.589 57.4598 282.472 57.6783C282.355 57.8968 282.297 58.1568 282.297 58.4585H280.4C280.4 57.8398 280.54 57.3028 280.82 56.8473C281.1 56.3918 281.492 56.0394 281.997 55.7901C282.502 55.5408 283.083 55.4162 283.742 55.4162C284.419 55.4162 285.008 55.5362 285.51 55.7763C286.015 56.0133 286.407 56.3426 286.687 56.7642C286.967 57.1858 287.107 57.669 287.107 58.2138C287.107 58.5708 287.037 58.9232 286.895 59.271C286.756 59.6187 286.509 60.005 286.152 60.4297C285.795 60.8513 285.291 61.3576 284.642 61.9485L283.262 63.3011V63.3658H287.232V65H280.492ZM288.087 63.3381V61.7638L292.034 55.5455H293.391V57.7244H292.588L290.1 61.6623V61.7362H295.709V63.3381H288.087ZM292.625 65V62.858L292.662 62.1609V55.5455H294.536V65H292.625Z" fill="#646464"/>
<path d="M248.511 65V63.5597L251.876 60.4435C252.163 60.1665 252.403 59.9173 252.597 59.6957C252.793 59.4741 252.943 59.2571 253.044 59.0447C253.146 58.8293 253.197 58.5969 253.197 58.3477C253.197 58.0707 253.134 57.8321 253.007 57.6321C252.881 57.429 252.709 57.2736 252.49 57.1658C252.272 57.055 252.024 56.9996 251.747 56.9996C251.458 56.9996 251.205 57.0581 250.99 57.1751C250.775 57.292 250.608 57.4598 250.491 57.6783C250.374 57.8968 250.316 58.1568 250.316 58.4585H248.419C248.419 57.8398 248.559 57.3028 248.839 56.8473C249.119 56.3918 249.511 56.0394 250.016 55.7901C250.521 55.5408 251.102 55.4162 251.761 55.4162C252.438 55.4162 253.027 55.5362 253.529 55.7763C254.034 56.0133 254.426 56.3426 254.706 56.7642C254.986 57.1858 255.126 57.669 255.126 58.2138C255.126 58.5708 255.056 58.9232 254.914 59.271C254.775 59.6187 254.528 60.005 254.171 60.4297C253.814 60.8513 253.311 61.3576 252.661 61.9485L251.281 63.3011V63.3658H255.251V65H248.511ZM259.947 65.1293C259.258 65.1293 258.644 65.0108 258.105 64.7738C257.57 64.5337 257.146 64.2044 256.836 63.7859C256.528 63.3642 256.369 62.878 256.36 62.3271H258.373C258.385 62.5579 258.461 62.761 258.599 62.9364C258.741 63.1088 258.928 63.2427 259.162 63.3381C259.396 63.4335 259.659 63.4812 259.952 63.4812C260.256 63.4812 260.526 63.4273 260.76 63.3196C260.993 63.2119 261.177 63.0626 261.309 62.8718C261.441 62.681 261.507 62.4609 261.507 62.2116C261.507 61.9593 261.437 61.7362 261.295 61.5423C261.157 61.3453 260.957 61.1914 260.695 61.0806C260.436 60.9698 260.129 60.9144 259.772 60.9144H258.89V59.4464H259.772C260.073 59.4464 260.339 59.3941 260.57 59.2894C260.804 59.1848 260.986 59.0401 261.115 58.8555C261.244 58.6677 261.309 58.4492 261.309 58.1999C261.309 57.9629 261.252 57.7552 261.138 57.5767C261.027 57.3951 260.87 57.2536 260.667 57.152C260.467 57.0504 260.233 56.9996 259.966 56.9996C259.695 56.9996 259.447 57.0489 259.222 57.1474C258.998 57.2428 258.818 57.3797 258.682 57.5582C258.547 57.7367 258.474 57.946 258.465 58.1861H256.549C256.559 57.6413 256.714 57.1612 257.016 56.7457C257.317 56.3303 257.723 56.0056 258.234 55.7717C258.748 55.5347 259.328 55.4162 259.975 55.4162C260.627 55.4162 261.198 55.5347 261.687 55.7717C262.177 56.0086 262.557 56.3287 262.828 56.7319C263.102 57.132 263.237 57.5813 263.234 58.0799C263.237 58.6093 263.072 59.0509 262.74 59.4048C262.411 59.7588 261.981 59.9834 261.452 60.0788V60.1527C262.148 60.242 262.677 60.4835 263.04 60.8775C263.406 61.2683 263.588 61.7577 263.585 62.3455C263.588 62.8841 263.433 63.3627 263.119 63.7812C262.808 64.1998 262.378 64.5291 261.831 64.7692C261.283 65.0092 260.655 65.1293 259.947 65.1293Z" fill="#646464"/>
<path d="M215.701 65V63.5597L219.067 60.4435C219.353 60.1665 219.593 59.9173 219.787 59.6957C219.984 59.4741 220.133 59.2571 220.235 59.0447C220.336 58.8293 220.387 58.5969 220.387 58.3477C220.387 58.0707 220.324 57.8321 220.198 57.6321C220.072 57.429 219.899 57.2736 219.681 57.1658C219.462 57.055 219.214 56.9996 218.938 56.9996C218.648 56.9996 218.396 57.0581 218.18 57.1751C217.965 57.292 217.799 57.4598 217.682 57.6783C217.565 57.8968 217.506 58.1568 217.506 58.4585H215.609C215.609 57.8398 215.749 57.3028 216.029 56.8473C216.309 56.3918 216.702 56.0394 217.206 55.7901C217.711 55.5408 218.293 55.4162 218.951 55.4162C219.628 55.4162 220.218 55.5362 220.719 55.7763C221.224 56.0133 221.617 56.3426 221.897 56.7642C222.177 57.1858 222.317 57.669 222.317 58.2138C222.317 58.5708 222.246 58.9232 222.104 59.271C221.966 59.6187 221.718 60.005 221.361 60.4297C221.004 60.8513 220.501 61.3576 219.852 61.9485L218.471 63.3011V63.3658H222.441V65H215.701ZM223.643 65V63.5597L227.008 60.4435C227.294 60.1665 227.535 59.9173 227.728 59.6957C227.925 59.4741 228.075 59.2571 228.176 59.0447C228.278 58.8293 228.329 58.5969 228.329 58.3477C228.329 58.0707 228.265 57.8321 228.139 57.6321C228.013 57.429 227.841 57.2736 227.622 57.1658C227.404 57.055 227.156 56.9996 226.879 56.9996C226.59 56.9996 226.337 57.0581 226.122 57.1751C225.906 57.292 225.74 57.4598 225.623 57.6783C225.506 57.8968 225.448 58.1568 225.448 58.4585H223.551C223.551 57.8398 223.691 57.3028 223.971 56.8473C224.251 56.3918 224.643 56.0394 225.148 55.7901C225.653 55.5408 226.234 55.4162 226.893 55.4162C227.57 55.4162 228.159 55.5362 228.661 55.7763C229.166 56.0133 229.558 56.3426 229.838 56.7642C230.118 57.1858 230.258 57.669 230.258 58.2138C230.258 58.5708 230.187 58.9232 230.046 59.271C229.907 59.6187 229.66 60.005 229.303 60.4297C228.946 60.8513 228.442 61.3576 227.793 61.9485L226.413 63.3011V63.3658H230.383V65H223.643Z" fill="#646464"/>
<path d="M280.93 97V95.5597L284.295 92.4435C284.582 92.1665 284.822 91.9173 285.015 91.6957C285.212 91.4741 285.362 91.2571 285.463 91.0447C285.565 90.8293 285.616 90.5969 285.616 90.3477C285.616 90.0707 285.553 89.8321 285.426 89.6321C285.3 89.429 285.128 89.2736 284.909 89.1658C284.691 89.055 284.443 88.9996 284.166 88.9996C283.877 88.9996 283.624 89.0581 283.409 89.1751C283.193 89.292 283.027 89.4598 282.91 89.6783C282.793 89.8968 282.735 90.1568 282.735 90.4585H280.838C280.838 89.8398 280.978 89.3028 281.258 88.8473C281.538 88.3918 281.93 88.0394 282.435 87.7901C282.94 87.5408 283.521 87.4162 284.18 87.4162C284.857 87.4162 285.446 87.5362 285.948 87.7763C286.453 88.0133 286.845 88.3426 287.125 88.7642C287.405 89.1858 287.545 89.669 287.545 90.2138C287.545 90.5708 287.475 90.9232 287.333 91.271C287.194 91.6187 286.947 92.005 286.59 92.4297C286.233 92.8513 285.729 93.3576 285.08 93.9485L283.7 95.3011V95.3658H287.67V97H280.93ZM289.245 97L293.165 89.2443V89.1797H288.599V87.5455H295.233V89.2028L291.309 97H289.245Z" fill="#646464"/>
<path d="M248.505 97V95.5597L251.87 92.4435C252.156 92.1665 252.396 91.9173 252.59 91.6957C252.787 91.4741 252.936 91.2571 253.038 91.0447C253.14 90.8293 253.19 90.5969 253.19 90.3477C253.19 90.0707 253.127 89.8321 253.001 89.6321C252.875 89.429 252.702 89.2736 252.484 89.1658C252.265 89.055 252.018 88.9996 251.741 88.9996C251.451 88.9996 251.199 89.0581 250.984 89.1751C250.768 89.292 250.602 89.4598 250.485 89.6783C250.368 89.8968 250.31 90.1568 250.31 90.4585H248.412C248.412 89.8398 248.552 89.3028 248.832 88.8473C249.112 88.3918 249.505 88.0394 250.01 87.7901C250.514 87.5408 251.096 87.4162 251.755 87.4162C252.432 87.4162 253.021 87.5362 253.523 87.7763C254.027 88.0133 254.42 88.3426 254.7 88.7642C254.98 89.1858 255.12 89.669 255.12 90.2138C255.12 90.5708 255.049 90.9232 254.908 91.271C254.769 91.6187 254.521 92.005 254.164 92.4297C253.807 92.8513 253.304 93.3576 252.655 93.9485L251.274 95.3011V95.3658H255.245V97H248.505ZM260.075 97.1293C259.588 97.1262 259.119 97.0446 258.667 96.8846C258.217 96.7246 257.814 96.4645 257.457 96.1044C257.1 95.7443 256.817 95.2673 256.608 94.6733C256.401 94.0793 256.298 93.3499 256.298 92.4851C256.301 91.6911 256.392 90.9817 256.571 90.3569C256.752 89.729 257.011 89.1966 257.346 88.7596C257.685 88.3226 258.09 87.9902 258.56 87.7624C259.031 87.5316 259.559 87.4162 260.144 87.4162C260.775 87.4162 261.332 87.5393 261.815 87.7855C262.298 88.0286 262.686 88.3595 262.978 88.7781C263.274 89.1966 263.452 89.666 263.514 90.1861H261.543C261.466 89.8568 261.304 89.5982 261.058 89.4105C260.812 89.2228 260.507 89.1289 260.144 89.1289C259.528 89.1289 259.061 89.3967 258.74 89.9322C258.423 90.4677 258.262 91.1955 258.256 92.1158H258.32C258.462 91.8357 258.653 91.5972 258.893 91.4002C259.136 91.2002 259.411 91.0478 259.719 90.9432C260.03 90.8355 260.358 90.7816 260.702 90.7816C261.263 90.7816 261.761 90.9139 262.198 91.1786C262.635 91.4402 262.98 91.8003 263.232 92.2589C263.485 92.7174 263.611 93.2422 263.611 93.8331C263.611 94.4732 263.462 95.0426 263.163 95.5412C262.868 96.0398 262.454 96.4306 261.921 96.7138C261.392 96.9938 260.776 97.1323 260.075 97.1293ZM260.065 95.5597C260.373 95.5597 260.649 95.4858 260.892 95.3381C261.135 95.1903 261.326 94.9903 261.464 94.7379C261.603 94.4856 261.672 94.2024 261.672 93.8885C261.672 93.5746 261.603 93.293 261.464 93.0437C261.329 92.7944 261.141 92.5959 260.901 92.4482C260.661 92.3004 260.387 92.2266 260.079 92.2266C259.848 92.2266 259.635 92.2696 259.438 92.3558C259.244 92.442 259.073 92.562 258.925 92.7159C258.78 92.8698 258.667 93.0483 258.583 93.2514C258.5 93.4515 258.459 93.6654 258.459 93.8931C258.459 94.1978 258.528 94.4763 258.667 94.7287C258.808 94.9811 258.999 95.1826 259.239 95.3335C259.482 95.4843 259.758 95.5597 260.065 95.5597Z" fill="#646464"/>
<path d="M215.606 97V95.5597L218.972 92.4435C219.258 92.1665 219.498 91.9173 219.692 91.6957C219.889 91.4741 220.038 91.2571 220.14 91.0447C220.241 90.8293 220.292 90.5969 220.292 90.3477C220.292 90.0707 220.229 89.8321 220.103 89.6321C219.976 89.429 219.804 89.2736 219.586 89.1658C219.367 89.055 219.119 88.9996 218.842 88.9996C218.553 88.9996 218.301 89.0581 218.085 89.1751C217.87 89.292 217.704 89.4598 217.587 89.6783C217.47 89.8968 217.411 90.1568 217.411 90.4585H215.514C215.514 89.8398 215.654 89.3028 215.934 88.8473C216.214 88.3918 216.606 88.0394 217.111 87.7901C217.616 87.5408 218.198 87.4162 218.856 87.4162C219.533 87.4162 220.123 87.5362 220.624 87.7763C221.129 88.0133 221.521 88.3426 221.801 88.7642C222.082 89.1858 222.222 89.669 222.222 90.2138C222.222 90.5708 222.151 90.9232 222.009 91.271C221.871 91.6187 221.623 92.005 221.266 92.4297C220.909 92.8513 220.406 93.3576 219.756 93.9485L218.376 95.3011V95.3658H222.346V97H215.606ZM227.001 97.1293C226.348 97.1293 225.767 97.0092 225.256 96.7692C224.748 96.5291 224.345 96.1983 224.046 95.7766C223.748 95.355 223.592 94.8718 223.58 94.3271H225.519C225.54 94.6933 225.694 94.9903 225.981 95.218C226.267 95.4458 226.607 95.5597 227.001 95.5597C227.315 95.5597 227.592 95.4904 227.832 95.3519C228.075 95.2103 228.264 95.0149 228.4 94.7656C228.538 94.5133 228.607 94.224 228.607 93.8977C228.607 93.5653 228.536 93.273 228.395 93.0206C228.256 92.7682 228.064 92.5713 227.818 92.4297C227.572 92.2881 227.29 92.2158 226.973 92.2127C226.696 92.2127 226.427 92.2696 226.165 92.3835C225.907 92.4974 225.705 92.6528 225.56 92.8498L223.783 92.5312L224.231 87.5455H230.011V89.1797H225.879L225.634 91.5479H225.69C225.856 91.314 226.107 91.1201 226.442 90.9663C226.778 90.8124 227.153 90.7354 227.569 90.7354C228.138 90.7354 228.646 90.8693 229.092 91.1371C229.538 91.4048 229.891 91.7726 230.149 92.2404C230.408 92.7051 230.535 93.2406 230.532 93.8469C230.535 94.484 230.388 95.0503 230.089 95.5458C229.794 96.0382 229.38 96.426 228.847 96.7092C228.318 96.9892 227.702 97.1293 227.001 97.1293Z" fill="#646464"/>
<path d="M281.615 32V30.5597L284.981 27.4435C285.267 27.1665 285.507 26.9173 285.701 26.6957C285.898 26.4741 286.047 26.2571 286.149 26.0447C286.25 25.8293 286.301 25.5969 286.301 25.3477C286.301 25.0707 286.238 24.8321 286.112 24.6321C285.986 24.429 285.813 24.2736 285.595 24.1658C285.376 24.055 285.129 23.9996 284.852 23.9996C284.562 23.9996 284.31 24.0581 284.094 24.1751C283.879 24.292 283.713 24.4598 283.596 24.6783C283.479 24.8968 283.42 25.1568 283.42 25.4585H281.523C281.523 24.8398 281.663 24.3028 281.943 23.8473C282.223 23.3918 282.616 23.0394 283.12 22.7901C283.625 22.5408 284.207 22.4162 284.865 22.4162C285.543 22.4162 286.132 22.5362 286.634 22.7763C287.138 23.0133 287.531 23.3426 287.811 23.7642C288.091 24.1858 288.231 24.669 288.231 25.2138C288.231 25.5708 288.16 25.9232 288.018 26.271C287.88 26.6187 287.632 27.005 287.275 27.4297C286.918 27.8513 286.415 28.3576 285.766 28.9485L284.385 30.3011V30.3658H288.355V32H281.615ZM293.67 22.5455V32H291.671V24.4428H291.616L289.451 25.8001V24.0273L291.791 22.5455H293.67Z" fill="#646464"/>
<path d="M248.32 32V30.5597L251.686 27.4435C251.972 27.1665 252.212 26.9173 252.406 26.6957C252.603 26.4741 252.752 26.2571 252.854 26.0447C252.955 25.8293 253.006 25.5969 253.006 25.3477C253.006 25.0707 252.943 24.8321 252.817 24.6321C252.691 24.429 252.518 24.2736 252.3 24.1658C252.081 24.055 251.834 23.9996 251.557 23.9996C251.267 23.9996 251.015 24.0581 250.8 24.1751C250.584 24.292 250.418 24.4598 250.301 24.6783C250.184 24.8968 250.126 25.1568 250.126 25.4585H248.228C248.228 24.8398 248.368 24.3028 248.648 23.8473C248.928 23.3918 249.321 23.0394 249.825 22.7901C250.33 22.5408 250.912 22.4162 251.57 22.4162C252.248 22.4162 252.837 22.5362 253.339 22.7763C253.843 23.0133 254.236 23.3426 254.516 23.7642C254.796 24.1858 254.936 24.669 254.936 25.2138C254.936 25.5708 254.865 25.9232 254.724 26.271C254.585 26.6187 254.337 27.005 253.98 27.4297C253.623 27.8513 253.12 28.3576 252.471 28.9485L251.09 30.3011V30.3658H255.061V32H248.32ZM259.969 32.2077C259.175 32.2047 258.492 32.0092 257.919 31.6214C257.35 31.2337 256.911 30.672 256.604 29.9364C256.299 29.2009 256.148 28.3161 256.151 27.282C256.151 26.2509 256.304 25.3723 256.608 24.646C256.916 23.9196 257.355 23.3672 257.924 22.9886C258.496 22.607 259.178 22.4162 259.969 22.4162C260.76 22.4162 261.44 22.607 262.009 22.9886C262.582 23.3703 263.022 23.9242 263.33 24.6506C263.638 25.3738 263.79 26.2509 263.787 27.282C263.787 28.3191 263.633 29.2055 263.325 29.9411C263.02 30.6766 262.583 31.2383 262.014 31.6261C261.445 32.0138 260.763 32.2077 259.969 32.2077ZM259.969 30.5504C260.511 30.5504 260.943 30.2781 261.266 29.7333C261.589 29.1886 261.749 28.3714 261.746 27.282C261.746 26.5649 261.672 25.9678 261.525 25.4908C261.38 25.0137 261.174 24.6552 260.906 24.4151C260.641 24.1751 260.329 24.055 259.969 24.055C259.43 24.055 259 24.3243 258.676 24.8629C258.353 25.4015 258.19 26.2079 258.187 27.282C258.187 28.0083 258.259 28.6146 258.404 29.1009C258.552 29.584 258.759 29.9472 259.027 30.1903C259.295 30.4304 259.609 30.5504 259.969 30.5504Z" fill="#646464"/>
<g filter="url(#filter1_dd_1258_1211)">
<rect x="114.75" y="24.75" width="32.8721" height="32.8721" rx="3.25" fill="#E6E6E6"/>
<rect x="114.75" y="24.75" width="32.8721" height="32.8721" rx="3.25" stroke="#9D9D9D" stroke-width="1.5"/>
<rect x="114.75" y="24.75" width="32.8721" height="32.8721" rx="3.25" stroke="black" stroke-opacity="0.2" stroke-width="1.5"/>
<rect x="148.064" y="24.75" width="32.8721" height="32.8721" rx="3.25" fill="#E6E6E6"/>
<rect x="148.064" y="24.75" width="32.8721" height="32.8721" rx="3.25" stroke="#9D9D9D" stroke-width="1.5"/>
<rect x="148.064" y="24.75" width="32.8721" height="32.8721" rx="3.25" stroke="black" stroke-opacity="0.2" stroke-width="1.5"/>
<rect x="181.379" y="24.75" width="32.8721" height="32.8721" rx="3.25" fill="#E6E6E6"/>
<rect x="181.379" y="24.75" width="32.8721" height="32.8721" rx="3.25" stroke="#9D9D9D" stroke-width="1.5"/>
<rect x="181.379" y="24.75" width="32.8721" height="32.8721" rx="3.25" stroke="black" stroke-opacity="0.2" stroke-width="1.5"/>
<rect x="114.75" y="58.064" width="32.8721" height="32.8721" rx="3.25" fill="#E6E6E6"/>
<rect x="114.75" y="58.064" width="32.8721" height="32.8721" rx="3.25" stroke="#9D9D9D" stroke-width="1.5"/>
<rect x="114.75" y="58.064" width="32.8721" height="32.8721" rx="3.25" stroke="black" stroke-opacity="0.2" stroke-width="1.5"/>
<rect x="148.064" y="58.064" width="32.8721" height="32.8721" rx="3.25" fill="#E6E6E6"/>
<rect x="148.064" y="58.064" width="32.8721" height="32.8721" rx="3.25" stroke="#9D9D9D" stroke-width="1.5"/>
<rect x="148.064" y="58.064" width="32.8721" height="32.8721" rx="3.25" stroke="black" stroke-opacity="0.2" stroke-width="1.5"/>
<rect x="181.379" y="58.064" width="32.8721" height="32.8721" rx="3.25" fill="#E6E6E6"/>
<rect x="181.379" y="58.064" width="32.8721" height="32.8721" rx="3.25" stroke="#9D9D9D" stroke-width="1.5"/>
<rect x="181.379" y="58.064" width="32.8721" height="32.8721" rx="3.25" stroke="black" stroke-opacity="0.2" stroke-width="1.5"/>
<rect x="114.75" y="91.3784" width="32.8721" height="32.8721" rx="3.25" fill="#E6E6E6"/>
<rect x="114.75" y="91.3784" width="32.8721" height="32.8721" rx="3.25" stroke="#9D9D9D" stroke-width="1.5"/>
<rect x="114.75" y="91.3784" width="32.8721" height="32.8721" rx="3.25" stroke="black" stroke-opacity="0.2" stroke-width="1.5"/>
<rect x="148.064" y="91.3784" width="32.8721" height="32.8721" rx="3.25" fill="#E6E6E6"/>
<rect x="148.064" y="91.3784" width="32.8721" height="32.8721" rx="3.25" stroke="#9D9D9D" stroke-width="1.5"/>
<rect x="148.064" y="91.3784" width="32.8721" height="32.8721" rx="3.25" stroke="black" stroke-opacity="0.2" stroke-width="1.5"/>
<rect x="181.379" y="91.3784" width="32.8721" height="32.8721" rx="3.25" fill="#E6E6E6"/>
<rect x="181.379" y="91.3784" width="32.8721" height="32.8721" rx="3.25" stroke="#9D9D9D" stroke-width="1.5"/>
<rect x="181.379" y="91.3784" width="32.8721" height="32.8721" rx="3.25" stroke="black" stroke-opacity="0.2" stroke-width="1.5"/>
</g>
<path d="M128.246 36.1818V46H126.17V38.1522H126.112L123.864 39.5616V37.7207L126.295 36.1818H128.246ZM134.172 46.2157C133.348 46.2125 132.638 46.0096 132.044 45.6069C131.453 45.2042 130.997 44.6209 130.678 43.8571C130.361 43.0932 130.205 42.1744 130.208 41.1005C130.208 40.0298 130.366 39.1174 130.682 38.3631C131.002 37.6088 131.457 37.0352 132.049 36.642C132.643 36.2457 133.351 36.0476 134.172 36.0476C134.994 36.0476 135.7 36.2457 136.291 36.642C136.886 37.0384 137.343 37.6136 137.662 38.3679C137.982 39.119 138.14 40.0298 138.137 41.1005C138.137 42.1776 137.977 43.098 137.658 43.8619C137.341 44.6257 136.887 45.209 136.296 45.6117C135.705 46.0144 134.997 46.2157 134.172 46.2157ZM134.172 44.4947C134.735 44.4947 135.184 44.2118 135.52 43.6461C135.855 43.0804 136.021 42.2319 136.018 41.1005C136.018 40.3558 135.941 39.7358 135.788 39.2404C135.638 38.745 135.424 38.3727 135.146 38.1234C134.871 37.8741 134.546 37.7495 134.172 37.7495C133.613 37.7495 133.166 38.0291 132.83 38.5884C132.495 39.1477 132.325 39.9851 132.322 41.1005C132.322 41.8548 132.397 42.4844 132.547 42.9893C132.701 43.4911 132.916 43.8683 133.194 44.1207C133.473 44.37 133.799 44.4947 134.172 44.4947Z" fill="#3E3E3E"/>
<path d="M195.641 36.1818V46H193.566V38.1522H193.508L191.26 39.5616V37.7207L193.69 36.1818H195.641ZM197.718 46V44.5043L201.213 41.2683C201.51 40.9806 201.76 40.7218 201.961 40.4917C202.166 40.2615 202.321 40.0362 202.426 39.8157C202.532 39.592 202.584 39.3507 202.584 39.0918C202.584 38.8042 202.519 38.5565 202.388 38.3487C202.257 38.1378 202.078 37.9764 201.851 37.8645C201.624 37.7495 201.367 37.6919 201.079 37.6919C200.779 37.6919 200.516 37.7527 200.293 37.8741C200.069 37.9956 199.896 38.1697 199.775 38.3967C199.654 38.6236 199.593 38.8936 199.593 39.2069H197.622C197.622 38.5645 197.768 38.0067 198.059 37.5337C198.35 37.0607 198.757 36.6948 199.281 36.4359C199.805 36.177 200.409 36.0476 201.093 36.0476C201.796 36.0476 202.409 36.1722 202.929 36.4215C203.454 36.6676 203.861 37.0096 204.152 37.4474C204.443 37.8853 204.588 38.3871 204.588 38.9528C204.588 39.3235 204.515 39.6895 204.368 40.0506C204.224 40.4118 203.967 40.8129 203.596 41.2539C203.225 41.6918 202.703 42.2175 202.028 42.8311L200.595 44.2358V44.3029H204.718V46H197.718Z" fill="#3E3E3E"/>
<path d="M163.591 36.1818V46H161.515V38.1522H161.457L159.209 39.5616V37.7207L161.639 36.1818H163.591ZM169.939 36.1818V46H167.863V38.1522H167.806L165.557 39.5616V37.7207L167.988 36.1818H169.939Z" fill="#3E3E3E"/>
<path d="M128.437 103.182V113H126.361V105.152H126.304L124.055 106.562V104.721L126.486 103.182H128.437ZM134.282 113.134C133.777 113.131 133.29 113.046 132.82 112.88C132.353 112.714 131.935 112.444 131.564 112.07C131.193 111.696 130.899 111.201 130.682 110.584C130.468 109.967 130.361 109.21 130.361 108.311C130.364 107.487 130.458 106.75 130.643 106.101C130.832 105.449 131.1 104.896 131.449 104.443C131.8 103.989 132.221 103.644 132.71 103.407C133.199 103.167 133.747 103.048 134.354 103.048C135.009 103.048 135.588 103.175 136.089 103.431C136.591 103.684 136.994 104.027 137.298 104.462C137.604 104.896 137.79 105.384 137.854 105.924H135.807C135.727 105.582 135.559 105.314 135.303 105.119C135.048 104.924 134.731 104.826 134.354 104.826C133.715 104.826 133.229 105.104 132.897 105.66C132.567 106.216 132.4 106.972 132.393 107.928H132.46C132.607 107.637 132.806 107.389 133.055 107.185C133.307 106.977 133.593 106.819 133.913 106.71C134.236 106.598 134.576 106.542 134.934 106.542C135.516 106.542 136.034 106.68 136.487 106.955C136.941 107.226 137.299 107.6 137.561 108.077C137.823 108.553 137.954 109.098 137.954 109.711C137.954 110.376 137.799 110.967 137.489 111.485C137.182 112.003 136.753 112.409 136.2 112.703C135.65 112.994 135.011 113.137 134.282 113.134ZM134.273 111.504C134.592 111.504 134.878 111.428 135.131 111.274C135.383 111.121 135.581 110.913 135.725 110.651C135.869 110.389 135.941 110.095 135.941 109.769C135.941 109.443 135.869 109.15 135.725 108.892C135.584 108.633 135.39 108.426 135.14 108.273C134.891 108.12 134.607 108.043 134.287 108.043C134.047 108.043 133.825 108.088 133.621 108.177C133.419 108.267 133.242 108.391 133.088 108.551C132.938 108.711 132.82 108.896 132.734 109.107C132.647 109.315 132.604 109.537 132.604 109.774C132.604 110.09 132.676 110.379 132.82 110.641C132.967 110.903 133.165 111.113 133.414 111.269C133.667 111.426 133.953 111.504 134.273 111.504Z" fill="#3E3E3E"/>
<path d="M195.43 103.182V113H193.355V105.152H193.297L191.049 106.562V104.721L193.479 103.182H195.43ZM201.17 113.134C200.432 113.134 199.775 113.014 199.2 112.775C198.628 112.532 198.179 112.201 197.853 111.782C197.527 111.364 197.364 110.889 197.364 110.358C197.364 109.949 197.456 109.574 197.642 109.232C197.83 108.887 198.086 108.601 198.409 108.374C198.731 108.144 199.093 107.997 199.492 107.933V107.866C198.968 107.76 198.543 107.506 198.217 107.103C197.891 106.697 197.728 106.226 197.728 105.689C197.728 105.181 197.877 104.729 198.174 104.332C198.471 103.933 198.878 103.62 199.396 103.393C199.917 103.163 200.508 103.048 201.17 103.048C201.832 103.048 202.421 103.163 202.939 103.393C203.46 103.623 203.869 103.938 204.166 104.337C204.464 104.733 204.614 105.184 204.617 105.689C204.614 106.229 204.448 106.701 204.118 107.103C203.789 107.506 203.367 107.76 202.853 107.866V107.933C203.246 107.997 203.602 108.144 203.922 108.374C204.245 108.601 204.5 108.887 204.689 109.232C204.881 109.574 204.978 109.949 204.981 110.358C204.978 110.889 204.814 111.364 204.488 111.782C204.162 112.201 203.711 112.532 203.136 112.775C202.564 113.014 201.908 113.134 201.17 113.134ZM201.17 111.61C201.499 111.61 201.787 111.551 202.033 111.432C202.279 111.311 202.471 111.145 202.608 110.934C202.749 110.72 202.819 110.474 202.819 110.195C202.819 109.911 202.747 109.66 202.603 109.443C202.46 109.222 202.265 109.05 202.019 108.925C201.772 108.797 201.49 108.733 201.17 108.733C200.854 108.733 200.571 108.797 200.322 108.925C200.072 109.05 199.876 109.222 199.732 109.443C199.591 109.66 199.521 109.911 199.521 110.195C199.521 110.474 199.59 110.72 199.727 110.934C199.864 111.145 200.058 111.311 200.307 111.432C200.556 111.551 200.844 111.61 201.17 111.61ZM201.17 107.223C201.445 107.223 201.689 107.167 201.904 107.055C202.118 106.944 202.285 106.789 202.407 106.59C202.528 106.392 202.589 106.164 202.589 105.905C202.589 105.649 202.528 105.425 202.407 105.234C202.285 105.039 202.119 104.887 201.908 104.778C201.697 104.666 201.451 104.61 201.17 104.61C200.892 104.61 200.646 104.666 200.432 104.778C200.218 104.887 200.05 105.039 199.928 105.234C199.81 105.425 199.751 105.649 199.751 105.905C199.751 106.164 199.812 106.392 199.933 106.59C200.055 106.789 200.222 106.944 200.437 107.055C200.651 107.167 200.895 107.223 201.17 107.223Z" fill="#3E3E3E"/>
<path d="M162.879 103.182V113H160.803V105.152H160.745L158.497 106.562V104.721L160.927 103.182H162.879ZM165.344 113L169.414 104.946V104.879H164.673V103.182H171.562V104.903L167.487 113H165.344Z" fill="#3E3E3E"/>
<path d="M128.444 70.1818V80H126.368V72.1522H126.31L124.062 73.5616V71.7207L126.492 70.1818H128.444ZM134.15 80.1342C133.434 80.1342 132.796 80.0112 132.237 79.7651C131.681 79.5158 131.241 79.1738 130.918 78.7392C130.599 78.3013 130.434 77.7963 130.425 77.2243H132.515C132.528 77.464 132.606 77.6749 132.75 77.8571C132.897 78.036 133.092 78.1751 133.335 78.2741C133.578 78.3732 133.851 78.4228 134.154 78.4228C134.471 78.4228 134.751 78.3668 134.993 78.255C135.236 78.1431 135.426 77.9881 135.564 77.79C135.701 77.5918 135.77 77.3633 135.77 77.1044C135.77 76.8423 135.697 76.6106 135.55 76.4093C135.406 76.2047 135.198 76.0449 134.926 75.9299C134.658 75.8148 134.338 75.7573 133.967 75.7573H133.052V74.2328H133.967C134.281 74.2328 134.557 74.1784 134.797 74.0698C135.04 73.9611 135.228 73.8109 135.363 73.6191C135.497 73.4242 135.564 73.1973 135.564 72.9384C135.564 72.6923 135.505 72.4766 135.387 72.2912C135.271 72.1026 135.108 71.9556 134.898 71.8501C134.69 71.7447 134.447 71.6919 134.169 71.6919C133.888 71.6919 133.63 71.7431 133.397 71.8453C133.164 71.9444 132.977 72.0866 132.836 72.272C132.695 72.4574 132.62 72.6747 132.611 72.924H130.621C130.631 72.3583 130.792 71.8597 131.105 71.4283C131.419 70.9968 131.841 70.6596 132.371 70.4167C132.905 70.1706 133.507 70.0476 134.178 70.0476C134.856 70.0476 135.449 70.1706 135.957 70.4167C136.465 70.6628 136.86 70.9952 137.141 71.4139C137.426 71.8294 137.566 72.296 137.563 72.8137C137.566 73.3635 137.395 73.8221 137.05 74.1896C136.708 74.5572 136.262 74.7905 135.713 74.8896V74.9663C136.435 75.0589 136.985 75.3098 137.362 75.7189C137.742 76.1248 137.931 76.633 137.927 77.2434C137.931 77.8027 137.769 78.2997 137.443 78.7344C137.12 79.169 136.675 79.511 136.106 79.7603C135.537 80.0096 134.885 80.1342 134.15 80.1342Z" fill="#3E3E3E"/>
<path d="M195.542 70.1818V80H193.467V72.1522H193.409L191.161 73.5616V71.7207L193.591 70.1818H195.542ZM201.205 80.1342C200.528 80.1342 199.924 80.0096 199.393 79.7603C198.866 79.511 198.447 79.1674 198.137 78.7296C197.827 78.2917 197.666 77.79 197.653 77.2243H199.667C199.689 77.6046 199.849 77.913 200.146 78.1495C200.443 78.386 200.796 78.5043 201.205 78.5043C201.531 78.5043 201.819 78.4324 202.068 78.2885C202.321 78.1415 202.517 77.9386 202.658 77.6797C202.802 77.4176 202.874 77.1172 202.874 76.7784C202.874 76.4332 202.8 76.1296 202.653 75.8675C202.509 75.6055 202.31 75.4009 202.054 75.2539C201.798 75.1069 201.506 75.0318 201.177 75.0286C200.889 75.0286 200.609 75.0877 200.338 75.206C200.069 75.3242 199.86 75.4856 199.71 75.6902L197.864 75.3594L198.329 70.1818H204.331V71.8789H200.04L199.786 74.3382H199.844C200.016 74.0953 200.277 73.894 200.625 73.7342C200.974 73.5744 201.364 73.4945 201.795 73.4945C202.386 73.4945 202.914 73.6335 203.377 73.9116C203.841 74.1896 204.206 74.5716 204.475 75.0574C204.743 75.54 204.876 76.0961 204.873 76.7257C204.876 77.3873 204.723 77.9753 204.413 78.4899C204.106 79.0012 203.676 79.4039 203.123 79.698C202.573 79.9888 201.934 80.1342 201.205 80.1342Z" fill="#3E3E3E"/>
<path d="M162.318 70.1818V80H160.243V72.1522H160.185L157.937 73.5616V71.7207L160.367 70.1818H162.318ZM164.247 78.2741V76.6394L168.346 70.1818H169.755V72.4446H168.921L166.337 76.5339V76.6106H172.162V78.2741H164.247ZM168.959 80V77.7756L168.998 77.0517V70.1818H170.944V80H168.959Z" fill="#3E3E3E"/>
<g filter="url(#filter2_dd_1258_1211)">
<rect x="18.75" y="38.75" width="34.2266" height="34.2266" rx="3.25" fill="#CECECE"/>
<rect x="18.75" y="38.75" width="34.2266" height="34.2266" rx="3.25" stroke="#151515" stroke-width="1.5"/>
<rect x="18.75" y="38.75" width="34.2266" height="34.2266" rx="3.25" stroke="black" stroke-opacity="0.2" stroke-width="1.5"/>
<rect x="53.3789" y="38.75" width="34.2266" height="34.2266" rx="3.25" fill="#CECECE"/>
<rect x="53.3789" y="38.75" width="34.2266" height="34.2266" rx="3.25" stroke="#151515" stroke-width="1.5"/>
<rect x="53.3789" y="38.75" width="34.2266" height="34.2266" rx="3.25" stroke="black" stroke-opacity="0.2" stroke-width="1.5"/>
<rect x="88.0059" y="38.75" width="34.2266" height="34.2266" rx="3.25" fill="#CECECE"/>
<rect x="88.0059" y="38.75" width="34.2266" height="34.2266" rx="3.25" stroke="#151515" stroke-width="1.5"/>
<rect x="88.0059" y="38.75" width="34.2266" height="34.2266" rx="3.25" stroke="black" stroke-opacity="0.2" stroke-width="1.5"/>
<rect x="18.75" y="73.3774" width="34.2266" height="34.2266" rx="3.25" fill="#CECECE"/>
<rect x="18.75" y="73.3774" width="34.2266" height="34.2266" rx="3.25" stroke="#151515" stroke-width="1.5"/>
<rect x="18.75" y="73.3774" width="34.2266" height="34.2266" rx="3.25" stroke="black" stroke-opacity="0.2" stroke-width="1.5"/>
<rect x="53.3789" y="73.3774" width="34.2266" height="34.2266" rx="3.25" fill="#CECECE"/>
<rect x="53.3789" y="73.3774" width="34.2266" height="34.2266" rx="3.25" stroke="#151515" stroke-width="1.5"/>
<rect x="53.3789" y="73.3774" width="34.2266" height="34.2266" rx="3.25" stroke="black" stroke-opacity="0.2" stroke-width="1.5"/>
<rect x="88.0059" y="73.3774" width="34.2266" height="34.2266" rx="3.25" fill="#CECECE"/>
<rect x="88.0059" y="73.3774" width="34.2266" height="34.2266" rx="3.25" stroke="#151515" stroke-width="1.5"/>
<rect x="88.0059" y="73.3774" width="34.2266" height="34.2266" rx="3.25" stroke="black" stroke-opacity="0.2" stroke-width="1.5"/>
<path d="M37.9223 50.8182V61H35.7696V52.8615H35.7099L33.3782 54.3232V52.4141L35.8988 50.8182H37.9223Z" fill="black"/>
<path d="M67.5082 61V59.4489L71.1325 56.093C71.4407 55.7947 71.6992 55.5263 71.9081 55.2876C72.1202 55.049 72.2809 54.8153 72.3903 54.5866C72.4997 54.3546 72.5544 54.1044 72.5544 53.8359C72.5544 53.5376 72.4864 53.2808 72.3505 53.0653C72.2146 52.8466 72.029 52.6792 71.7937 52.5632C71.5584 52.4439 71.2916 52.3842 70.9933 52.3842C70.6817 52.3842 70.4099 52.4472 70.1779 52.5732C69.9459 52.6991 69.767 52.8797 69.641 53.1151C69.5151 53.3504 69.4521 53.6304 69.4521 53.9553H67.4088C67.4088 53.2891 67.5596 52.7107 67.8612 52.2202C68.1628 51.7296 68.5854 51.3501 69.1289 51.0817C69.6725 50.8132 70.2989 50.679 71.0082 50.679C71.7374 50.679 72.3721 50.8082 72.9123 51.0668C73.4559 51.322 73.8785 51.6766 74.1801 52.1307C74.4817 52.5848 74.6325 53.1051 74.6325 53.6918C74.6325 54.0762 74.5563 54.4557 74.4038 54.8303C74.2546 55.2048 73.9878 55.6207 73.6034 56.0781C73.2189 56.5322 72.677 57.0774 71.9777 57.7138L70.4911 59.1705V59.2401H74.7667V61H67.5082Z" fill="black"/>
<rect x="18.75" y="108.005" width="34.2266" height="34.2266" rx="3.25" fill="#CECECE"/>
<rect x="18.75" y="108.005" width="34.2266" height="34.2266" rx="3.25" stroke="#151515" stroke-width="1.5"/>
<rect x="18.75" y="108.005" width="34.2266" height="34.2266" rx="3.25" stroke="black" stroke-opacity="0.2" stroke-width="1.5"/>
<path d="M32.0191 95.2102V93.5149L36.2698 86.8182H37.7315V89.1648H36.8664L34.1867 93.4055V93.4851H40.2272V95.2102H32.0191ZM36.9062 97V94.6932L36.946 93.9425V86.8182H38.9644V97H36.9062Z" fill="black"/>
<rect x="53.3789" y="108.005" width="34.2266" height="34.2266" rx="3.25" fill="#CECECE"/>
<rect x="53.3789" y="108.005" width="34.2266" height="34.2266" rx="3.25" stroke="#151515" stroke-width="1.5"/>
<rect x="53.3789" y="108.005" width="34.2266" height="34.2266" rx="3.25" stroke="black" stroke-opacity="0.2" stroke-width="1.5"/>
<path d="M105.204 97.1392C104.68 97.1359 104.175 97.0481 103.688 96.8757C103.204 96.7034 102.77 96.4233 102.385 96.0355C102.001 95.6477 101.696 95.134 101.47 94.4943C101.248 93.8546 101.137 93.0691 101.137 92.1378C101.141 91.2827 101.238 90.5187 101.431 89.8459C101.626 89.1697 101.904 88.5964 102.266 88.1257C102.63 87.6551 103.066 87.2971 103.573 87.0518C104.08 86.8033 104.649 86.679 105.279 86.679C105.958 86.679 106.558 86.8116 107.078 87.0767C107.599 87.3385 108.016 87.6948 108.331 88.1456C108.649 88.5964 108.841 89.1018 108.908 89.6619H106.785C106.702 89.3073 106.528 89.0289 106.263 88.8267C105.998 88.6245 105.67 88.5234 105.279 88.5234C104.616 88.5234 104.112 88.8118 103.767 89.3885C103.426 89.9652 103.252 90.7491 103.245 91.7401H103.315C103.467 91.4384 103.673 91.1816 103.931 90.9695C104.193 90.754 104.49 90.59 104.821 90.4773C105.156 90.3613 105.509 90.3033 105.88 90.3033C106.483 90.3033 107.02 90.4458 107.491 90.7308C107.962 91.0125 108.333 91.4003 108.605 91.8942C108.876 92.388 109.012 92.9531 109.012 93.5895C109.012 94.2789 108.851 94.892 108.53 95.429C108.212 95.9659 107.766 96.3868 107.193 96.6918C106.623 96.9934 105.96 97.1425 105.204 97.1392ZM105.194 95.4489C105.525 95.4489 105.822 95.3693 106.084 95.2102C106.346 95.0511 106.551 94.8357 106.7 94.5639C106.85 94.2921 106.924 93.9872 106.924 93.6491C106.924 93.3111 106.85 93.0078 106.7 92.7393C106.555 92.4709 106.352 92.2571 106.094 92.098C105.835 91.9389 105.54 91.8594 105.209 91.8594C104.96 91.8594 104.73 91.9058 104.518 91.9986C104.309 92.0914 104.125 92.2206 103.966 92.3864C103.81 92.5521 103.688 92.7443 103.598 92.9631C103.509 93.1785 103.464 93.4089 103.464 93.6541C103.464 93.9822 103.538 94.2822 103.688 94.554C103.84 94.8258 104.046 95.0429 104.304 95.2053C104.566 95.3677 104.863 95.4489 105.194 95.4489Z" fill="black"/>
<path d="M71.1244 97.1392C70.4218 97.1392 69.7953 97.0099 69.2451 96.7514C68.6983 96.4929 68.2641 96.1366 67.9426 95.6825C67.6211 95.2285 67.4537 94.7081 67.4405 94.1214H69.5285C69.5517 94.5159 69.7174 94.8357 70.0257 95.081C70.3339 95.3262 70.7002 95.4489 71.1244 95.4489C71.4625 95.4489 71.7608 95.3743 72.0193 95.2251C72.2811 95.0727 72.485 94.8622 72.6308 94.5938C72.7799 94.322 72.8545 94.0104 72.8545 93.6591C72.8545 93.3011 72.7783 92.9863 72.6258 92.7145C72.4767 92.4427 72.2695 92.2306 72.0044 92.0781C71.7392 91.9257 71.436 91.8478 71.0946 91.8445C70.7963 91.8445 70.5063 91.9058 70.2245 92.0284C69.9461 92.151 69.729 92.3184 69.5733 92.5305L67.6592 92.1875L68.1414 86.8182H74.3659V88.5781H69.9163L69.6528 91.1286H69.7125C69.8914 90.8767 70.1616 90.6679 70.5228 90.5021C70.8841 90.3364 71.2885 90.2536 71.7359 90.2536C72.3491 90.2536 72.8959 90.3977 73.3765 90.6861C73.8571 90.9744 74.2366 91.3705 74.515 91.8743C74.7934 92.3748 74.931 92.9515 74.9277 93.6044C74.931 94.2905 74.7719 94.9003 74.4504 95.4339C74.1322 95.9643 73.6864 96.3819 73.113 96.6868C72.543 96.9884 71.8801 97.1392 71.1244 97.1392Z" fill="black"/>
<path d="M105.067 61.1392C104.324 61.1392 103.663 61.0116 103.083 60.7564C102.506 60.4979 102.051 60.1432 101.716 59.6925C101.384 59.2384 101.214 58.7147 101.204 58.1214H103.371C103.385 58.37 103.466 58.5888 103.615 58.7777C103.767 58.9633 103.97 59.1075 104.221 59.2102C104.473 59.313 104.757 59.3643 105.072 59.3643C105.4 59.3643 105.69 59.3063 105.942 59.1903C106.194 59.0743 106.391 58.9136 106.533 58.7081C106.676 58.5026 106.747 58.2656 106.747 57.9972C106.747 57.7254 106.671 57.4851 106.518 57.2763C106.369 57.0642 106.154 56.8984 105.872 56.7791C105.594 56.6598 105.262 56.6001 104.878 56.6001H103.928V55.0192H104.878C105.202 55.0192 105.489 54.9628 105.738 54.8501C105.99 54.7375 106.185 54.5817 106.324 54.3828C106.464 54.1806 106.533 53.9453 106.533 53.6768C106.533 53.4216 106.472 53.1979 106.349 53.0057C106.23 52.8101 106.061 52.6577 105.842 52.5483C105.627 52.4389 105.375 52.3842 105.086 52.3842C104.795 52.3842 104.528 52.4373 104.286 52.5433C104.044 52.6461 103.85 52.7936 103.704 52.9858C103.559 53.178 103.481 53.4034 103.471 53.6619H101.408C101.417 53.0753 101.585 52.5582 101.91 52.1108C102.234 51.6634 102.672 51.3137 103.222 51.0618C103.776 50.8066 104.4 50.679 105.096 50.679C105.799 50.679 106.414 50.8066 106.941 51.0618C107.468 51.317 107.877 51.6617 108.169 52.0959C108.464 52.5268 108.61 53.0107 108.606 53.5476C108.61 54.1177 108.432 54.5933 108.074 54.9744C107.72 55.3556 107.257 55.5975 106.687 55.7003V55.7798C107.436 55.8759 108.006 56.1361 108.398 56.5604C108.792 56.9813 108.988 57.5083 108.984 58.1413C108.988 58.7214 108.82 59.2367 108.482 59.6875C108.147 60.1383 107.685 60.4929 107.095 60.7514C106.505 61.0099 105.829 61.1392 105.067 61.1392Z" fill="black"/>
<rect x="88.0059" y="108.005" width="34.2266" height="34.2266" rx="3.25" fill="#CECECE"/>
<rect x="88.0059" y="108.005" width="34.2266" height="34.2266" rx="3.25" stroke="#151515" stroke-width="1.5"/>
<rect x="88.0059" y="108.005" width="34.2266" height="34.2266" rx="3.25" stroke="black" stroke-opacity="0.2" stroke-width="1.5"/>
<path d="M33.157 132L37.3779 123.648V123.578H32.461V121.818H39.6051V123.603L35.3793 132H33.157Z" fill="black"/>
<path d="M104.98 121.679C105.504 121.679 106.008 121.767 106.492 121.942C106.979 122.118 107.413 122.398 107.794 122.783C108.179 123.167 108.482 123.678 108.704 124.314C108.929 124.947 109.044 125.724 109.047 126.646C109.047 127.511 108.949 128.283 108.754 128.962C108.561 129.638 108.285 130.214 107.923 130.688C107.562 131.161 107.126 131.523 106.616 131.771C106.105 132.017 105.535 132.139 104.906 132.139C104.226 132.139 103.626 132.008 103.106 131.746C102.586 131.481 102.166 131.122 101.848 130.668C101.533 130.21 101.343 129.696 101.276 129.126H103.399C103.482 129.498 103.656 129.786 103.921 129.991C104.186 130.194 104.515 130.295 104.906 130.295C105.569 130.295 106.072 130.006 106.417 129.43C106.762 128.85 106.936 128.056 106.939 127.048H106.869C106.717 127.347 106.511 127.603 106.253 127.819C105.994 128.031 105.698 128.195 105.363 128.311C105.032 128.427 104.679 128.485 104.304 128.485C103.704 128.485 103.169 128.344 102.698 128.062C102.228 127.781 101.856 127.393 101.585 126.899C101.313 126.405 101.177 125.842 101.177 125.209C101.174 124.526 101.331 123.918 101.649 123.384C101.967 122.851 102.412 122.433 102.982 122.131C103.555 121.826 104.221 121.676 104.98 121.679ZM104.995 123.369C104.66 123.369 104.362 123.449 104.1 123.608C103.842 123.767 103.636 123.981 103.484 124.249C103.335 124.518 103.262 124.818 103.265 125.149C103.265 125.484 103.338 125.786 103.484 126.054C103.633 126.319 103.835 126.531 104.09 126.69C104.349 126.846 104.644 126.924 104.975 126.924C105.224 126.924 105.454 126.878 105.666 126.785C105.878 126.692 106.062 126.564 106.218 126.402C106.377 126.236 106.502 126.046 106.591 125.83C106.681 125.615 106.725 125.386 106.725 125.144C106.722 124.823 106.646 124.528 106.497 124.259C106.347 123.991 106.142 123.775 105.88 123.613C105.618 123.451 105.323 123.369 104.995 123.369Z" fill="black"/>
<path d="M71.0877 132.139C70.3221 132.139 69.641 132.015 69.0444 131.766C68.4511 131.514 67.9855 131.171 67.6474 130.737C67.3093 130.303 67.1403 129.811 67.1403 129.261C67.1403 128.836 67.2364 128.447 67.4286 128.092C67.6242 127.734 67.8893 127.438 68.2241 127.202C68.5589 126.964 68.9334 126.811 69.3477 126.745V126.675C68.8041 126.566 68.3633 126.303 68.0252 125.885C67.6872 125.464 67.5181 124.975 67.5181 124.418C67.5181 123.891 67.6723 123.422 67.9805 123.011C68.2887 122.597 68.7113 122.272 69.2482 122.037C69.7885 121.798 70.4017 121.679 71.0877 121.679C71.7738 121.679 72.3853 121.798 72.9223 122.037C73.4625 122.276 73.8867 122.602 74.195 123.016C74.5032 123.427 74.659 123.895 74.6623 124.418C74.659 124.978 74.4866 125.467 74.1453 125.885C73.8039 126.303 73.3664 126.566 72.8328 126.675V126.745C73.2404 126.811 73.61 126.964 73.9414 127.202C74.2762 127.438 74.5413 127.734 74.7369 128.092C74.9357 128.447 75.0368 128.836 75.0402 129.261C75.0368 129.811 74.8661 130.303 74.5281 130.737C74.19 131.171 73.7227 131.514 73.1261 131.766C72.5328 132.015 71.8534 132.139 71.0877 132.139ZM71.0877 130.558C71.4291 130.558 71.7274 130.497 71.9826 130.374C72.2378 130.248 72.4367 130.076 72.5792 129.857C72.725 129.635 72.798 129.38 72.798 129.092C72.798 128.797 72.7234 128.536 72.5742 128.311C72.4251 128.082 72.2229 127.903 71.9677 127.774C71.7125 127.642 71.4192 127.575 71.0877 127.575C70.7596 127.575 70.4663 127.642 70.2078 127.774C69.9492 127.903 69.7454 128.082 69.5963 128.311C69.4504 128.536 69.3775 128.797 69.3775 129.092C69.3775 129.38 69.4488 129.635 69.5913 129.857C69.7338 130.076 69.9343 130.248 70.1929 130.374C70.4514 130.497 70.7497 130.558 71.0877 130.558ZM71.0877 126.009C71.3728 126.009 71.6263 125.951 71.8484 125.835C72.0705 125.719 72.2445 125.558 72.3704 125.353C72.4964 125.147 72.5593 124.911 72.5593 124.642C72.5593 124.377 72.4964 124.145 72.3704 123.946C72.2445 123.744 72.0721 123.586 71.8534 123.474C71.6346 123.358 71.3794 123.3 71.0877 123.3C70.7994 123.3 70.5442 123.358 70.3221 123.474C70.1 123.586 69.926 123.744 69.8001 123.946C69.6775 124.145 69.6161 124.377 69.6161 124.642C69.6161 124.911 69.6791 125.147 69.8051 125.353C69.931 125.558 70.105 125.719 70.3271 125.835C70.5491 125.951 70.8027 126.009 71.0877 126.009Z" fill="black"/>
</g>
<defs>
<filter id="filter0_dd_1258_1211" x="188" y="0" width="135.152" height="135.152" filterUnits="userSpaceOnUse" color-interpolation-filters="sRGB">
<feFlood flood-opacity="0" result="BackgroundImageFix"/>
<feColorMatrix in="SourceAlpha" type="matrix" values="0 0 0 0 0 0 0 0 0 0 0 0 0 0 0 0 0 0 127 0" result="hardAlpha"/>
<feOffset dy="4"/>
<feGaussianBlur stdDeviation="2"/>
<feColorMatrix type="matrix" values="0 0 0 0 0 0 0 0 0 0 0 0 0 0 0 0 0 0 0.3 0"/>
<feBlend mode="normal" in2="BackgroundImageFix" result="effect1_dropShadow_1258_1211"/>
<feColorMatrix in="SourceAlpha" type="matrix" values="0 0 0 0 0 0 0 0 0 0 0 0 0 0 0 0 0 0 127 0" result="hardAlpha"/>
<feMorphology radius="6" operator="dilate" in="SourceAlpha" result="effect2_dropShadow_1258_1211"/>
<feOffset dy="8"/>
<feGaussianBlur stdDeviation="6"/>
<feColorMatrix type="matrix" values="0 0 0 0 0 0 0 0 0 0 0 0 0 0 0 0 0 0 0.15 0"/>
<feBlend mode="normal" in2="effect1_dropShadow_1258_1211" result="effect2_dropShadow_1258_1211"/>
<feBlend mode="normal" in="SourceGraphic" in2="effect2_dropShadow_1258_1211" result="shape"/>
</filter>
<filter id="filter1_dd_1258_1211" x="96" y="14" width="137" height="137" filterUnits="userSpaceOnUse" color-interpolation-filters="sRGB">
<feFlood flood-opacity="0" result="BackgroundImageFix"/>
<feColorMatrix in="SourceAlpha" type="matrix" values="0 0 0 0 0 0 0 0 0 0 0 0 0 0 0 0 0 0 127 0" result="hardAlpha"/>
<feOffset dy="4"/>
<feGaussianBlur stdDeviation="2"/>
<feColorMatrix type="matrix" values="0 0 0 0 0 0 0 0 0 0 0 0 0 0 0 0 0 0 0.3 0"/>
<feBlend mode="normal" in2="BackgroundImageFix" result="effect1_dropShadow_1258_1211"/>
<feColorMatrix in="SourceAlpha" type="matrix" values="0 0 0 0 0 0 0 0 0 0 0 0 0 0 0 0 0 0 127 0" result="hardAlpha"/>
<feMorphology radius="6" operator="dilate" in="SourceAlpha" result="effect2_dropShadow_1258_1211"/>
<feOffset dy="8"/>
<feGaussianBlur stdDeviation="6"/>
<feColorMatrix type="matrix" values="0 0 0 0 0 0 0 0 0 0 0 0 0 0 0 0 0 0 0.15 0"/>
<feBlend mode="normal" in2="effect1_dropShadow_1258_1211" result="effect2_dropShadow_1258_1211"/>
<feBlend mode="normal" in="SourceGraphic" in2="effect2_dropShadow_1258_1211" result="shape"/>
</filter>
<filter id="filter2_dd_1258_1211" x="0" y="28" width="140.982" height="140.981" filterUnits="userSpaceOnUse" color-interpolation-filters="sRGB">
<feFlood flood-opacity="0" result="BackgroundImageFix"/>
<feColorMatrix in="SourceAlpha" type="matrix" values="0 0 0 0 0 0 0 0 0 0 0 0 0 0 0 0 0 0 127 0" result="hardAlpha"/>
<feOffset dy="4"/>
<feGaussianBlur stdDeviation="2"/>
<feColorMatrix type="matrix" values="0 0 0 0 0 0 0 0 0 0 0 0 0 0 0 0 0 0 0.3 0"/>
<feBlend mode="normal" in2="BackgroundImageFix" result="effect1_dropShadow_1258_1211"/>
<feColorMatrix in="SourceAlpha" type="matrix" values="0 0 0 0 0 0 0 0 0 0 0 0 0 0 0 0 0 0 127 0" result="hardAlpha"/>
<feMorphology radius="6" operator="dilate" in="SourceAlpha" result="effect2_dropShadow_1258_1211"/>
<feOffset dy="8"/>
<feGaussianBlur stdDeviation="6"/>
<feColorMatrix type="matrix" values="0 0 0 0 0 0 0 0 0 0 0 0 0 0 0 0 0 0 0.15 0"/>
<feBlend mode="normal" in2="effect1_dropShadow_1258_1211" result="effect2_dropShadow_1258_1211"/>
<feBlend mode="normal" in="SourceGraphic" in2="effect2_dropShadow_1258_1211" result="shape"/>
</filter>
</defs>
</svg>
