<svg width="381" height="166" viewBox="0 0 381 166" fill="none" xmlns="http://www.w3.org/2000/svg">
<rect x="1" y="15" width="44.9947" height="44.2488" rx="3" fill="white"/>
<rect x="1" y="15" width="44.9947" height="44.2488" rx="3" stroke="white" stroke-width="2"/>
<rect x="1" y="15" width="44.9947" height="44.2488" rx="3" stroke="black" stroke-opacity="0.2" stroke-width="2"/>
<rect x="46.502" y="15" width="44.9947" height="44.2488" rx="3" fill="white"/>
<rect x="46.502" y="15" width="44.9947" height="44.2488" rx="3" stroke="white" stroke-width="2"/>
<rect x="46.502" y="15" width="44.9947" height="44.2488" rx="3" stroke="black" stroke-opacity="0.2" stroke-width="2"/>
<rect x="92.0059" y="15" width="44.9947" height="44.2488" rx="3" fill="white"/>
<rect x="92.0059" y="15" width="44.9947" height="44.2488" rx="3" stroke="white" stroke-width="2"/>
<rect x="92.0059" y="15" width="44.9947" height="44.2488" rx="3" stroke="black" stroke-opacity="0.2" stroke-width="2"/>
<rect x="1" y="107" width="44.9947" height="44.2488" rx="3" fill="white"/>
<rect x="1" y="107" width="44.9947" height="44.2488" rx="3" stroke="white" stroke-width="2"/>
<rect x="1" y="107" width="44.9947" height="44.2488" rx="3" stroke="black" stroke-opacity="0.2" stroke-width="2"/>
<rect x="46.502" y="107" width="44.9947" height="44.2488" rx="3" fill="white"/>
<rect x="46.502" y="107" width="44.9947" height="44.2488" rx="3" stroke="white" stroke-width="2"/>
<rect x="46.502" y="107" width="44.9947" height="44.2488" rx="3" stroke="black" stroke-opacity="0.2" stroke-width="2"/>
<rect x="92.0059" y="107" width="44.9947" height="44.2488" rx="3" fill="white"/>
<rect x="92.0059" y="107" width="44.9947" height="44.2488" rx="3" stroke="white" stroke-width="2"/>
<rect x="92.0059" y="107" width="44.9947" height="44.2488" rx="3" stroke="black" stroke-opacity="0.2" stroke-width="2"/>
<rect x="1" y="107" width="44.9947" height="44.2488" rx="3" fill="white"/>
<rect x="1" y="107" width="44.9947" height="44.2488" rx="3" stroke="white" stroke-width="2"/>
<rect x="1" y="107" width="44.9947" height="44.2488" rx="3" stroke="black" stroke-opacity="0.2" stroke-width="2"/>
<rect x="46.502" y="107" width="44.9947" height="44.2488" rx="3" fill="white"/>
<rect x="46.502" y="107" width="44.9947" height="44.2488" rx="3" stroke="white" stroke-width="2"/>
<rect x="46.502" y="107" width="44.9947" height="44.2488" rx="3" stroke="black" stroke-opacity="0.2" stroke-width="2"/>
<rect x="92.0059" y="107" width="44.9947" height="44.2488" rx="3" fill="white"/>
<rect x="92.0059" y="107" width="44.9947" height="44.2488" rx="3" stroke="white" stroke-width="2"/>
<rect x="92.0059" y="107" width="44.9947" height="44.2488" rx="3" stroke="black" stroke-opacity="0.2" stroke-width="2"/>
<path d="M25.4636 27.8182V46H23.2619V30.1264H23.1554L18.7164 33.0739V30.8366L23.2619 27.8182H25.4636Z" fill="black"/>
<path d="M11.21 121V126.5H9.49121V121H11.21ZM15.21 121V126.5H13.4912V121H15.21ZM32.4795 121V126.5H30.7607V121H32.4795ZM36.4795 121V126.5H34.7607V121H36.4795Z" fill="black" fill-opacity="0.5"/>
<path d="M22.0205 137.281C21.2601 137.281 20.57 137.138 19.9502 136.852C19.3304 136.56 18.8382 136.141 18.4736 135.594C18.109 135.042 17.9268 134.375 17.9268 133.594C17.9268 132.906 18.0622 132.349 18.333 131.922C18.6038 131.49 18.9658 131.151 19.4189 130.906C19.8721 130.661 20.3721 130.479 20.9189 130.359C21.471 130.234 22.0257 130.135 22.583 130.063C23.3122 129.969 23.9033 129.898 24.3564 129.852C24.8148 129.799 25.1481 129.714 25.3564 129.594C25.57 129.474 25.6768 129.266 25.6768 128.969V128.906C25.6768 128.135 25.4658 127.536 25.0439 127.109C24.6273 126.682 23.9945 126.469 23.1455 126.469C22.2653 126.469 21.5752 126.661 21.0752 127.047C20.5752 127.432 20.2236 127.844 20.0205 128.281L18.2705 127.656C18.583 126.927 18.9997 126.359 19.5205 125.953C20.0465 125.542 20.6195 125.255 21.2393 125.094C21.8643 124.927 22.4788 124.844 23.083 124.844C23.4684 124.844 23.9111 124.891 24.4111 124.984C24.9163 125.073 25.4033 125.258 25.8721 125.539C26.346 125.82 26.7393 126.245 27.0518 126.812C27.3643 127.38 27.5205 128.141 27.5205 129.094V137H25.6768V135.375H25.583C25.458 135.635 25.2497 135.914 24.958 136.211C24.6663 136.508 24.2783 136.76 23.7939 136.969C23.3096 137.177 22.7184 137.281 22.0205 137.281ZM22.3018 135.625C23.0309 135.625 23.6455 135.482 24.1455 135.195C24.6507 134.909 25.0309 134.539 25.2861 134.086C25.5465 133.633 25.6768 133.156 25.6768 132.656V130.969C25.5986 131.062 25.4268 131.148 25.1611 131.227C24.9007 131.299 24.5986 131.365 24.2549 131.422C23.9163 131.474 23.5856 131.521 23.2627 131.562C22.945 131.599 22.6872 131.63 22.4893 131.656C22.0101 131.719 21.5622 131.82 21.1455 131.961C20.734 132.096 20.4007 132.302 20.1455 132.578C19.8955 132.849 19.7705 133.219 19.7705 133.687C19.7705 134.328 20.0075 134.812 20.4814 135.141C20.9606 135.464 21.5674 135.625 22.3018 135.625Z" fill="black"/>
<path d="M67.8055 89.5085V75.446H70.1919V89.5085H67.8055ZM61.9674 83.6705V81.2841H76.0299V83.6705H61.9674Z" fill="black"/>
<path d="M115.067 46.2486C113.895 46.2486 112.85 46.0473 111.933 45.6449C111.021 45.2424 110.296 44.6831 109.758 43.967C109.225 43.2449 108.935 42.4074 108.888 41.4545H111.125C111.172 42.0405 111.373 42.5465 111.729 42.9727C112.084 43.3929 112.548 43.7184 113.122 43.9492C113.696 44.18 114.333 44.2955 115.031 44.2955C115.812 44.2955 116.505 44.1593 117.108 43.8871C117.712 43.6148 118.186 43.236 118.529 42.7507C118.872 42.2654 119.044 41.7031 119.044 41.0639C119.044 40.3951 118.878 39.8062 118.547 39.2972C118.215 38.7823 117.73 38.3799 117.091 38.0898C116.452 37.7998 115.67 37.6548 114.747 37.6548H113.291V35.7017H114.747C115.469 35.7017 116.102 35.5715 116.647 35.3111C117.197 35.0507 117.626 34.6837 117.934 34.2102C118.248 33.7367 118.405 33.1804 118.405 32.5412C118.405 31.9257 118.269 31.39 117.996 30.9343C117.724 30.4786 117.339 30.1235 116.842 29.869C116.351 29.6145 115.771 29.4872 115.102 29.4872C114.475 29.4872 113.883 29.6026 113.327 29.8335C112.776 30.0584 112.326 30.3868 111.977 30.8189C111.628 31.245 111.439 31.7599 111.409 32.3636H109.278C109.314 31.4107 109.601 30.5762 110.139 29.8601C110.678 29.138 111.382 28.5758 112.252 28.1733C113.128 27.7708 114.09 27.5696 115.138 27.5696C116.262 27.5696 117.227 27.7975 118.032 28.2532C118.837 28.703 119.455 29.2978 119.887 30.0376C120.319 30.7775 120.535 31.5765 120.535 32.4347C120.535 33.4586 120.266 34.3316 119.727 35.0536C119.195 35.7757 118.47 36.2758 117.552 36.554V36.696C118.701 36.8854 119.597 37.3737 120.242 38.1609C120.887 38.9421 121.21 39.9098 121.21 41.0639C121.21 42.0523 120.941 42.9401 120.402 43.7273C119.869 44.5085 119.142 45.1241 118.218 45.5739C117.295 46.0237 116.244 46.2486 115.067 46.2486Z" fill="black"/>
<path d="M103.264 121V126.5H101.545V121H103.264ZM107.264 121V126.5H105.545V121H107.264ZM124.426 121V126.5H122.707V121H124.426ZM128.426 121V126.5H126.707V121H128.426Z" fill="black" fill-opacity="0.5"/>
<path d="M115.418 137.25C114.293 137.25 113.324 136.984 112.512 136.453C111.699 135.922 111.074 135.19 110.637 134.258C110.199 133.326 109.98 132.26 109.98 131.062C109.98 129.844 110.204 128.768 110.652 127.836C111.105 126.898 111.736 126.167 112.543 125.641C113.355 125.109 114.303 124.844 115.387 124.844C116.23 124.844 116.991 125 117.668 125.312C118.345 125.625 118.9 126.062 119.332 126.625C119.764 127.187 120.033 127.844 120.137 128.594H118.293C118.152 128.047 117.84 127.562 117.355 127.141C116.876 126.714 116.23 126.5 115.418 126.5C114.699 126.5 114.069 126.687 113.527 127.062C112.991 127.432 112.572 127.956 112.27 128.633C111.973 129.305 111.824 130.094 111.824 131C111.824 131.927 111.97 132.734 112.262 133.422C112.559 134.109 112.975 134.643 113.512 135.023C114.053 135.404 114.689 135.594 115.418 135.594C115.897 135.594 116.332 135.51 116.723 135.344C117.113 135.177 117.444 134.938 117.715 134.625C117.986 134.312 118.178 133.937 118.293 133.5H120.137C120.033 134.208 119.775 134.846 119.363 135.414C118.957 135.977 118.418 136.424 117.746 136.758C117.079 137.086 116.303 137.25 115.418 137.25Z" fill="black"/>
<path d="M63.3137 46V44.402L69.3152 37.8324C70.0195 37.063 70.5995 36.3942 71.0552 35.826C71.5109 35.2519 71.8483 34.7133 72.0673 34.2102C72.2922 33.7012 72.4047 33.1686 72.4047 32.6122C72.4047 31.973 72.2508 31.4196 71.943 30.9521C71.6412 30.4845 71.2269 30.1235 70.7001 29.869C70.1734 29.6145 69.5815 29.4872 68.9245 29.4872C68.2261 29.4872 67.6165 29.6322 67.0957 29.9222C66.5808 30.2063 66.1813 30.6058 65.8972 31.1207C65.619 31.6357 65.4799 32.2393 65.4799 32.9318H63.3848C63.3848 31.8665 63.6304 30.9313 64.1216 30.1264C64.6129 29.3215 65.2817 28.6941 66.128 28.2443C66.9803 27.7945 67.9361 27.5696 68.9956 27.5696C70.0609 27.5696 71.0049 27.7945 71.8276 28.2443C72.6503 28.6941 73.2954 29.3008 73.763 30.0643C74.2305 30.8278 74.4643 31.6771 74.4643 32.6122C74.4643 33.281 74.343 33.935 74.1003 34.5742C73.8636 35.2075 73.4493 35.9148 72.8574 36.696C72.2715 37.4714 71.4577 38.4183 70.416 39.5369L66.3322 43.9048V44.0469H74.7839V46H63.3137Z" fill="black"/>
<path d="M57.0762 121V126.5H55.3574V121H57.0762ZM61.0762 121V126.5H59.3574V121H61.0762ZM79.6133 121V126.5H77.8945V121H79.6133ZM83.6133 121V126.5H81.8945V121H83.6133Z" fill="black" fill-opacity="0.5"/>
<path d="M64.6055 137V121H66.4492V126.906H66.6055C66.7409 126.698 66.9284 126.432 67.168 126.109C67.4128 125.781 67.7617 125.49 68.2148 125.234C68.6732 124.974 69.293 124.844 70.0742 124.844C71.0846 124.844 71.9753 125.096 72.7461 125.602C73.5169 126.107 74.1185 126.823 74.5508 127.75C74.9831 128.677 75.1992 129.771 75.1992 131.031C75.1992 132.302 74.9831 133.404 74.5508 134.336C74.1185 135.263 73.5195 135.982 72.7539 136.492C71.9883 136.997 71.1055 137.25 70.1055 137.25C69.3346 137.25 68.7174 137.122 68.2539 136.867C67.7904 136.607 67.4336 136.312 67.1836 135.984C66.9336 135.651 66.7409 135.375 66.6055 135.156H66.3867V137H64.6055ZM66.418 131C66.418 131.906 66.5508 132.706 66.8164 133.398C67.082 134.086 67.4701 134.625 67.9805 135.016C68.4909 135.401 69.1159 135.594 69.8555 135.594C70.6263 135.594 71.2695 135.391 71.7852 134.984C72.306 134.573 72.6966 134.021 72.957 133.328C73.2227 132.63 73.3555 131.854 73.3555 131C73.3555 130.156 73.2253 129.396 72.9648 128.719C72.7096 128.036 72.3216 127.497 71.8008 127.102C71.2852 126.701 70.6367 126.5 69.8555 126.5C69.1055 126.5 68.4753 126.69 67.9648 127.07C67.4544 127.445 67.069 127.971 66.8086 128.648C66.5482 129.32 66.418 130.104 66.418 131Z" fill="black"/>
<rect x="161" y="77.5586" width="21.8824" height="10.0294" rx="1" fill="#5C86DF"/>
<path d="M190.858 81.7594C191.418 82.1581 191.418 82.9889 190.858 83.3877L181.956 89.7371C181.294 90.2092 180.375 89.736 180.375 88.923L180.375 76.2241C180.375 75.411 181.294 74.9378 181.956 75.4099L190.858 81.7594Z" fill="#5C86DF"/>
<circle cx="298" cy="83" r="76.5" transform="rotate(90 298 83)" stroke="#E87A7A" stroke-width="13"/>
<line x1="351.42" y1="31.4497" x2="246.45" y2="136.42" stroke="#E87A7A" stroke-width="13"/>
<rect x="267" y="67" width="66" height="32" fill="white"/>
<path d="M238.866 76.1886V73.2727H252.604V76.1886H247.483V90H243.987V76.1886H238.866ZM256.432 94.7045C255.991 94.7045 255.577 94.6692 255.19 94.5984C254.809 94.533 254.493 94.4486 254.243 94.3452L255.027 91.7479C255.435 91.8731 255.803 91.9412 256.13 91.9521C256.462 91.9629 256.748 91.8867 256.987 91.7234C257.232 91.56 257.431 91.2823 257.583 90.8903L257.788 90.3594L253.287 77.4545H256.946L259.544 86.6676H259.674L262.296 77.4545H265.98L261.104 91.3558C260.87 92.031 260.551 92.6191 260.148 93.12C259.751 93.6264 259.247 94.0157 258.637 94.288C258.027 94.5657 257.292 94.7045 256.432 94.7045ZM268.68 94.7045V77.4545H272.111V79.5618H272.266C272.418 79.2242 272.639 78.8812 272.927 78.5327C273.222 78.1787 273.603 77.8847 274.071 77.6506C274.545 77.411 275.133 77.2912 275.835 77.2912C276.75 77.2912 277.594 77.5308 278.367 78.0099C279.14 78.4837 279.758 79.1997 280.221 80.158C280.684 81.1109 280.915 82.3061 280.915 83.7436C280.915 85.143 280.689 86.3246 280.238 87.2884C279.791 88.2467 279.181 88.9736 278.408 89.4691C277.64 89.9592 276.78 90.2042 275.827 90.2042C275.152 90.2042 274.577 90.0926 274.104 89.8693C273.635 89.6461 273.251 89.3656 272.952 89.0281C272.653 88.685 272.424 88.3393 272.266 87.9908H272.16V94.7045H268.68ZM272.086 83.7273C272.086 84.4732 272.19 85.1239 272.397 85.6793C272.604 86.2347 272.903 86.6676 273.295 86.978C273.687 87.2829 274.164 87.4354 274.724 87.4354C275.291 87.4354 275.77 87.2802 276.162 86.9698C276.554 86.654 276.851 86.2184 277.052 85.663C277.259 85.1022 277.363 84.4569 277.363 83.7273C277.363 83.0031 277.262 82.366 277.06 81.8161C276.859 81.2661 276.562 80.8359 276.17 80.5256C275.778 80.2152 275.296 80.06 274.724 80.06C274.158 80.06 273.679 80.2098 273.287 80.5092C272.9 80.8087 272.604 81.2334 272.397 81.7834C272.19 82.3333 272.086 82.9813 272.086 83.7273ZM289.872 90.245C288.582 90.245 287.471 89.9837 286.54 89.4609C285.614 88.9328 284.901 88.1868 284.4 87.223C283.899 86.2538 283.649 85.1076 283.649 83.7844C283.649 82.494 283.899 81.3614 284.4 80.3867C284.901 79.4121 285.606 78.6525 286.515 78.108C287.43 77.5634 288.503 77.2912 289.733 77.2912C290.561 77.2912 291.332 77.4246 292.045 77.6914C292.764 77.9528 293.39 78.3475 293.923 78.8757C294.463 79.4039 294.882 80.0682 295.181 80.8686C295.481 81.6636 295.631 82.5947 295.631 83.6619V84.6175H285.037V82.4613H292.355C292.355 81.9603 292.246 81.5166 292.029 81.13C291.811 80.7434 291.509 80.4412 291.122 80.2234C290.741 80.0001 290.297 79.8885 289.791 79.8885C289.262 79.8885 288.794 80.011 288.386 80.256C287.983 80.4956 287.667 80.8196 287.438 81.228C287.21 81.6309 287.093 82.0801 287.087 82.5756V84.6257C287.087 85.2464 287.202 85.7828 287.43 86.2347C287.664 86.6867 287.994 87.0352 288.419 87.2802C288.843 87.5252 289.347 87.6477 289.93 87.6477C290.316 87.6477 290.67 87.5933 290.991 87.4844C291.313 87.3755 291.588 87.2121 291.816 86.9943C292.045 86.7765 292.219 86.5097 292.339 86.1939L295.557 86.4062C295.394 87.1795 295.059 87.8546 294.552 88.4318C294.051 89.0036 293.403 89.45 292.608 89.7713C291.819 90.0871 290.907 90.245 289.872 90.245ZM298.886 90V73.2727H310.158V76.1886H302.423V80.1744H309.578V83.0902H302.423V87.0842H310.19V90H298.886ZM313.824 90V77.4545H317.197V79.6435H317.328C317.557 78.8648 317.941 78.2768 318.48 77.8793C319.019 77.4763 319.639 77.2749 320.342 77.2749C320.516 77.2749 320.704 77.2857 320.905 77.3075C321.107 77.3293 321.284 77.3593 321.436 77.3974V80.4847C321.273 80.4357 321.047 80.3922 320.758 80.354C320.47 80.3159 320.206 80.2969 319.966 80.2969C319.454 80.2969 318.997 80.4085 318.594 80.6317C318.197 80.8495 317.881 81.1545 317.647 81.5465C317.418 81.9386 317.304 82.3905 317.304 82.9023V90H313.824ZM324.155 90V77.4545H327.528V79.6435H327.659C327.888 78.8648 328.272 78.2768 328.811 77.8793C329.35 77.4763 329.971 77.2749 330.673 77.2749C330.847 77.2749 331.035 77.2857 331.237 77.3075C331.438 77.3293 331.615 77.3593 331.767 77.3974V80.4847C331.604 80.4357 331.378 80.3922 331.09 80.354C330.801 80.3159 330.537 80.2969 330.297 80.2969C329.785 80.2969 329.328 80.4085 328.925 80.6317C328.528 80.8495 328.212 81.1545 327.978 81.5465C327.749 81.9386 327.635 82.3905 327.635 82.9023V90H324.155ZM339.571 90.245C338.302 90.245 337.205 89.9755 336.279 89.4364C335.359 88.8919 334.648 88.1351 334.147 87.1658C333.646 86.1912 333.396 85.0613 333.396 83.7763C333.396 82.4804 333.646 81.3478 334.147 80.3786C334.648 79.4039 335.359 78.647 336.279 78.108C337.205 77.5634 338.302 77.2912 339.571 77.2912C340.839 77.2912 341.934 77.5634 342.854 78.108C343.78 78.647 344.493 79.4039 344.994 80.3786C345.495 81.3478 345.745 82.4804 345.745 83.7763C345.745 85.0613 345.495 86.1912 344.994 87.1658C344.493 88.1351 343.78 88.8919 342.854 89.4364C341.934 89.9755 340.839 90.245 339.571 90.245ZM339.587 87.5497C340.164 87.5497 340.646 87.3864 341.033 87.0597C341.419 86.7275 341.711 86.2756 341.907 85.7038C342.108 85.1321 342.209 84.4814 342.209 83.7518C342.209 83.0221 342.108 82.3714 341.907 81.7997C341.711 81.228 341.419 80.776 341.033 80.4439C340.646 80.1117 340.164 79.9457 339.587 79.9457C339.004 79.9457 338.514 80.1117 338.117 80.4439C337.725 80.776 337.428 81.228 337.227 81.7997C337.031 82.3714 336.933 83.0221 336.933 83.7518C336.933 84.4814 337.031 85.1321 337.227 85.7038C337.428 86.2756 337.725 86.7275 338.117 87.0597C338.514 87.3864 339.004 87.5497 339.587 87.5497ZM348.928 90V77.4545H352.301V79.6435H352.432C352.66 78.8648 353.044 78.2768 353.583 77.8793C354.122 77.4763 354.743 77.2749 355.446 77.2749C355.62 77.2749 355.808 77.2857 356.009 77.3075C356.211 77.3293 356.388 77.3593 356.54 77.3974V80.4847C356.377 80.4357 356.151 80.3922 355.862 80.354C355.574 80.3159 355.309 80.2969 355.07 80.2969C354.558 80.2969 354.101 80.4085 353.698 80.6317C353.3 80.8495 352.984 81.1545 352.75 81.5465C352.522 81.9386 352.407 82.3905 352.407 82.9023V90H348.928Z" fill="black"/>
</svg>
