<svg width="442" height="149" viewBox="0 0 442 149" fill="none" xmlns="http://www.w3.org/2000/svg">
<path fill-rule="evenodd" clip-rule="evenodd" d="M301.683 0.0696272L270.758 8.83395L281.454 22.8102L306.141 15.8114C307.11 15.5355 307.68 14.5164 307.404 13.5469L303.947 1.33279C303.671 0.363304 302.652 -0.206359 301.683 0.0696272ZM293.679 22.6899L287.929 24.0415V42.3733H293.679V22.6899ZM276.26 21.7133L269.622 11.8132L264 13.4054L270.702 23.2878L276.26 21.7133ZM283.719 10.8048L280.839 11.6221L281.762 14.8809L284.642 14.0635L283.719 10.8048Z" fill="black"/>
<path d="M302 112V112C302 112.002 302 112.021 301.978 112.066C301.953 112.116 301.901 112.195 301.796 112.3C301.58 112.515 301.208 112.772 300.64 113.046C299.509 113.591 297.807 114.11 295.624 114.556C291.274 115.444 285.219 116 278.5 116C271.781 116 265.726 115.444 261.376 114.556C259.193 114.11 257.491 113.591 256.36 113.046C255.792 112.772 255.42 112.515 255.204 112.3C255.099 112.195 255.047 112.116 255.022 112.066C255 112.021 255 112.002 255 112L255 112L255 112C255 111.998 255 111.979 255.022 111.934C255.047 111.884 255.099 111.805 255.204 111.7C255.42 111.485 255.792 111.228 256.36 110.954C257.491 110.409 259.193 109.89 261.376 109.444C265.726 108.556 271.781 108 278.5 108C285.219 108 291.274 108.556 295.624 109.444C297.807 109.89 299.509 110.409 300.64 110.954C301.208 111.228 301.58 111.485 301.796 111.7C301.901 111.805 301.953 111.884 301.978 111.934C302.001 111.98 302 111.999 302 112Z" stroke="#806363" stroke-width="2"/>
<path d="M344 113.5C344 113.973 343.747 114.567 342.965 115.28C342.185 115.991 340.978 116.724 339.331 117.451C336.044 118.901 331.225 120.23 325.193 121.356C313.145 123.604 296.459 125 278 125C259.541 125 242.855 123.604 230.807 121.356C224.775 120.23 219.956 118.901 216.669 117.451C215.022 116.724 213.815 115.991 213.035 115.28C212.253 114.567 212 113.973 212 113.5C212 113.027 212.253 112.433 213.035 111.72C213.815 111.009 215.022 110.276 216.669 109.549C219.956 108.099 224.775 106.77 230.807 105.644C242.855 103.397 259.541 102 278 102C296.459 102 313.145 103.397 325.193 105.644C331.225 106.77 336.044 108.099 339.331 109.549C340.978 110.276 342.185 111.009 342.965 111.72C343.747 112.433 344 113.027 344 113.5Z" stroke="#8F7979" stroke-width="2"/>
<path d="M380 116.5C380 117.635 379.451 118.846 378.185 120.131C376.915 121.42 374.992 122.711 372.426 123.971C367.298 126.49 359.813 128.785 350.482 130.724C331.837 134.597 306.034 137 277.5 137C248.966 137 223.163 134.597 204.518 130.724C195.187 128.785 187.702 126.49 182.574 123.971C180.008 122.711 178.085 121.42 176.815 120.131C175.549 118.846 175 117.635 175 116.5C175 115.365 175.549 114.154 176.815 112.869C178.085 111.58 180.008 110.289 182.574 109.029C187.702 106.51 195.187 104.215 204.518 102.276C223.163 98.4032 248.966 96 277.5 96C306.034 96 331.837 98.4032 350.482 102.276C359.813 104.215 367.298 106.51 372.426 109.029C374.992 110.289 376.915 111.58 378.185 112.869C379.451 114.154 380 115.365 380 116.5Z" stroke="#B79696" stroke-width="2"/>
<path d="M441 119.5C441 121.132 440.084 122.869 438.008 124.694C435.937 126.515 432.824 128.318 428.721 130.062C420.523 133.549 408.599 136.711 393.788 139.375C364.185 144.701 323.247 148 278 148C232.753 148 191.815 144.701 162.212 139.375C147.401 136.711 135.477 133.549 127.279 130.062C123.176 128.318 120.063 126.515 117.992 124.694C115.916 122.869 115 121.132 115 119.5C115 117.868 115.916 116.131 117.992 114.306C120.063 112.485 123.176 110.682 127.279 108.938C135.477 105.451 147.401 102.289 162.212 99.6246C191.815 94.2995 232.753 91 278 91C323.247 91 364.185 94.2995 393.788 99.6246C408.599 102.289 420.523 105.451 428.721 108.938C432.824 110.682 435.937 112.485 438.008 114.306C440.084 116.131 441 117.868 441 119.5Z" stroke="#E1AAAA" stroke-width="2"/>
<path d="M230.66 71.3179C216.164 71.3179 203.234 77.0978 194.818 86.1015L230.66 71.3179Z" fill="#AEBCC3"/>
<path d="M357 103.027C355.054 106.481 351.232 108.818 346.822 108.818H205.663C199.216 108.818 194 103.844 194 97.7072V94.5755H200.586C201.333 94.591 202.056 94.3104 202.598 93.7949C203.139 93.2795 203.455 92.5709 203.476 91.8237V78.9053C211.531 73.7211 220.908 70.9633 230.487 70.9608H230.199L240.101 70.9147C249.75 50.19 268.436 33 293.03 33C317.588 33 338.187 49.1423 343.794 70.9032H346.822C353.2 70.9032 356.919 75.8311 356.919 81.9104" fill="#E8447A"/>
<path d="M357 97.5346H354.525C353.599 97.556 352.679 97.3949 351.815 97.0604C350.952 96.7259 350.164 96.2247 349.494 95.5853C348.825 94.9459 348.288 94.1808 347.915 93.3339C347.541 92.487 347.338 91.5748 347.317 90.6494V87.4831C347.317 83.6835 350.541 80.6094 354.525 80.6094H356.931" fill="#F5BB1D"/>
<path d="M339.855 103.026C339.855 107.646 337.929 112.077 334.5 115.344C331.071 118.611 326.421 120.447 321.572 120.447C316.722 120.447 312.072 118.611 308.643 115.344C305.214 112.077 303.288 107.646 303.288 103.026C303.288 98.4061 305.214 93.9752 308.643 90.7082C312.072 87.4413 316.722 85.606 321.572 85.606C326.421 85.606 331.071 87.4413 334.5 90.7082C337.929 93.9752 339.855 98.4061 339.855 103.026Z" fill="#455963"/>
<path d="M329.262 103.027C329.262 104.972 328.451 106.837 327.009 108.213C325.567 109.588 323.61 110.361 321.571 110.361C319.531 110.361 317.574 109.588 316.132 108.213C314.69 106.837 313.879 104.972 313.879 103.027C313.879 101.081 314.69 99.216 316.132 97.8405C317.574 96.4651 319.531 95.6924 321.571 95.6924C323.61 95.6924 325.567 96.4651 327.009 97.8405C328.451 99.216 329.262 101.081 329.262 103.027Z" fill="#AEBCC3"/>
<path d="M251.336 103.026C251.336 107.646 249.411 112.077 245.984 115.344C242.557 118.611 237.91 120.447 233.064 120.447C228.218 120.447 223.57 118.611 220.143 115.344C216.716 112.077 214.791 107.646 214.791 103.026C214.791 98.4061 216.716 93.9752 220.143 90.7082C223.57 87.4413 228.218 85.606 233.064 85.606C237.91 85.606 242.557 87.4413 245.984 90.7082C249.411 93.9752 251.336 98.4061 251.336 103.026Z" fill="#455963"/>
<path d="M240.746 103.027C240.746 104.972 239.936 106.837 238.493 108.213C237.051 109.588 235.095 110.361 233.055 110.361C231.015 110.361 229.059 109.588 227.616 108.213C226.174 106.837 225.364 104.972 225.364 103.027C225.364 101.081 226.174 99.216 227.616 97.8405C229.059 96.4651 231.015 95.6924 233.055 95.6924C235.095 95.6924 237.051 96.4651 238.493 97.8405C239.936 99.216 240.746 101.081 240.746 103.027Z" fill="#AEBCC3"/>
<path d="M194.803 86.1359V86.1014C197.39 83.3594 200.301 80.9429 203.473 78.9053V91.8237C203.473 93.3435 202.172 94.5755 200.583 94.5755H193.997V86.9649L194.803 86.1359Z" fill="#F5BB1D"/>
<path d="M295.678 40.1733C314.549 41.3132 330.093 53.9898 334.652 70.9035H295.678V40.1733ZM288.459 70.9035H249.485C256.9 55.2794 270.555 42.1882 288.459 40.3115V70.9035Z" fill="#631536"/>
<line x1="207.965" y1="20.2112" x2="246.196" y2="17.5014" stroke="#FFDB49"/>
<line x1="229.415" y1="50.5983" x2="253.224" y2="31.6201" stroke="#FFDB49"/>
<line x1="226.859" y1="32.5203" x2="243.859" y2="27.5203" stroke="#FFDB49"/>
<g filter="url(#filter0_dd_1110_860)">
<path d="M39 79C42.887 79 46.3726 81.3939 47.768 85.0219L62.9523 124.5H65.25C66.2165 124.5 67 125.284 67 126.25C67 127.216 66.2165 128 65.25 128H12.75C11.7835 128 11 127.216 11 126.25C11 125.284 11.7835 124.5 12.75 124.5H15.046L30.232 85.0219C31.5775 81.5235 34.8667 79.1726 38.5851 79.0091L39 79ZM54.4893 112.25H23.509L18.7962 124.5H59.202L54.4893 112.25ZM50.4502 101.75H27.548L24.8547 108.75H53.1435L50.4502 101.75ZM39 82.5C36.5612 82.5 34.3742 84.002 33.4987 86.2783L28.8938 98.25H49.1045L44.5013 86.2783C43.7114 84.2245 41.8538 82.801 39.7069 82.5424L39.3466 82.5101L39 82.5Z" fill="#DE1600"/>
<path d="M87 70C90.1929 70 93.0561 71.9542 94.2023 74.9158L106.675 107.143H108.562C109.356 107.143 110 107.782 110 108.571C110 109.36 109.356 110 108.562 110H65.4375C64.6436 110 64 109.36 64 108.571C64 107.782 64.6436 107.143 65.4375 107.143H67.3235L79.7977 74.9158C80.903 72.06 83.6048 70.1409 86.6592 70.0074L87 70ZM99.7233 97.1429H74.2752L70.4041 107.143H103.595L99.7233 97.1429ZM96.4056 88.5714H77.593L75.3807 94.2857H98.6179L96.4056 88.5714ZM87 72.8571C84.9967 72.8571 83.2002 74.0833 82.4811 75.9415L78.6984 85.7143H95.3001L91.5189 75.9415C90.8701 74.2649 89.3442 73.1029 87.5807 72.8917L87.2847 72.8654L87 72.8571Z" fill="#DE1600"/>
</g>
<defs>
<filter id="filter0_dd_1110_860" x="0" y="63" width="121" height="80" filterUnits="userSpaceOnUse" color-interpolation-filters="sRGB">
<feFlood flood-opacity="0" result="BackgroundImageFix"/>
<feColorMatrix in="SourceAlpha" type="matrix" values="0 0 0 0 0 0 0 0 0 0 0 0 0 0 0 0 0 0 127 0" result="hardAlpha"/>
<feOffset dy="1"/>
<feGaussianBlur stdDeviation="1.5"/>
<feColorMatrix type="matrix" values="0 0 0 0 0 0 0 0 0 0 0 0 0 0 0 0 0 0 0.3 0"/>
<feBlend mode="normal" in2="BackgroundImageFix" result="effect1_dropShadow_1110_860"/>
<feColorMatrix in="SourceAlpha" type="matrix" values="0 0 0 0 0 0 0 0 0 0 0 0 0 0 0 0 0 0 127 0" result="hardAlpha"/>
<feMorphology radius="3" operator="dilate" in="SourceAlpha" result="effect2_dropShadow_1110_860"/>
<feOffset dy="4"/>
<feGaussianBlur stdDeviation="4"/>
<feColorMatrix type="matrix" values="0 0 0 0 0 0 0 0 0 0 0 0 0 0 0 0 0 0 0.15 0"/>
<feBlend mode="normal" in2="effect1_dropShadow_1110_860" result="effect2_dropShadow_1110_860"/>
<feBlend mode="normal" in="SourceGraphic" in2="effect2_dropShadow_1110_860" result="shape"/>
</filter>
</defs>
</svg>
