<svg width="361" height="302" viewBox="0 0 361 302" fill="none" xmlns="http://www.w3.org/2000/svg">
<rect x="224" y="64.7568" width="44.9945" height="44.2486" rx="3" fill="white"/>
<rect x="224" y="64.7568" width="44.9945" height="44.2486" rx="3" stroke="white" stroke-width="2"/>
<rect x="224" y="64.7568" width="44.9945" height="44.2486" rx="3" stroke="black" stroke-opacity="0.05" stroke-width="2"/>
<rect x="269.502" y="64.7568" width="44.9945" height="44.2486" rx="3" fill="white"/>
<rect x="269.502" y="64.7568" width="44.9945" height="44.2486" rx="3" stroke="white" stroke-width="2"/>
<rect x="269.502" y="64.7568" width="44.9945" height="44.2486" rx="3" stroke="black" stroke-opacity="0.05" stroke-width="2"/>
<rect x="269.502" y="20" width="44.9945" height="44.2486" rx="3" fill="white"/>
<rect x="269.502" y="20" width="44.9945" height="44.2486" rx="3" stroke="white" stroke-width="2"/>
<rect x="269.502" y="20" width="44.9945" height="44.2486" rx="3" stroke="black" stroke-opacity="0.05" stroke-width="2"/>
<rect x="315.006" y="64.7568" width="44.9945" height="44.2486" rx="3" fill="white"/>
<rect x="315.006" y="64.7568" width="44.9945" height="44.2486" rx="3" stroke="white" stroke-width="2"/>
<rect x="315.006" y="64.7568" width="44.9945" height="44.2486" rx="3" stroke="black" stroke-opacity="0.05" stroke-width="2"/>
<rect x="315.006" y="20" width="44.9945" height="44.2486" rx="3" fill="white"/>
<rect x="315.006" y="20" width="44.9945" height="44.2486" rx="3" stroke="white" stroke-width="2"/>
<rect x="315.006" y="20" width="44.9945" height="44.2486" rx="3" stroke="black" stroke-opacity="0.05" stroke-width="2"/>
<path d="M340.464 32.8182V51H338.262V35.1264H338.155L333.716 38.0739V35.8366L338.262 32.8182H340.464Z" fill="black" fill-opacity="0.1"/>
<path d="M340.464 77.8182V96H338.262V80.1264H338.155L333.716 83.0739V80.8366L338.262 77.8182H340.464Z" fill="black" fill-opacity="0.1"/>
<path d="M294.464 32.8182V51H292.262V35.1264H292.155L287.716 38.0739V35.8366L292.262 32.8182H294.464Z" fill="black" fill-opacity="0.1"/>
<path d="M248.464 77.8182V96H246.262V80.1264H246.155L241.716 83.0739V80.8366L246.262 77.8182H248.464Z" fill="black" fill-opacity="0.1"/>
<path d="M294.464 77.8182V96H292.262V80.1264H292.155L287.716 83.0739V80.8366L292.262 77.8182H294.464Z" fill="black" fill-opacity="0.1"/>
<rect x="224" y="20" width="44.9945" height="44.2486" rx="3" fill="white"/>
<rect x="224" y="20" width="44.9945" height="44.2486" rx="3" stroke="white" stroke-width="2"/>
<rect x="224" y="20" width="44.9945" height="44.2486" rx="3" stroke="black" stroke-opacity="0.2" stroke-width="2"/>
<path d="M248.464 32.8182V51H246.262V35.1264H246.155L241.716 38.0739V35.8366L246.262 32.8182H248.464Z" fill="black"/>
<path d="M269 7C268.448 7 268 7.44772 268 8C268 8.55228 268.448 9 269 9V7ZM359.707 8.70711C360.098 8.31658 360.098 7.68342 359.707 7.29289L353.343 0.928932C352.953 0.538408 352.319 0.538408 351.929 0.928932C351.538 1.31946 351.538 1.95262 351.929 2.34315L357.586 8L351.929 13.6569C351.538 14.0474 351.538 14.6805 351.929 15.0711C352.319 15.4616 352.953 15.4616 353.343 15.0711L359.707 8.70711ZM269 9H359V7H269V9Z" fill="#657AD0"/>
<path d="M214 65C214 64.4477 213.552 64 213 64C212.448 64 212 64.4477 212 65L214 65ZM212.293 107.707C212.683 108.098 213.317 108.098 213.707 107.707L220.071 101.343C220.462 100.953 220.462 100.319 220.071 99.9289C219.681 99.5384 219.047 99.5384 218.657 99.9289L213 105.586L207.343 99.9289C206.953 99.5384 206.319 99.5384 205.929 99.9289C205.538 100.319 205.538 100.953 205.929 101.343L212.293 107.707ZM212 65L212 107L214 107L214 65L212 65Z" fill="#657AD0"/>
<rect x="1" y="64.7568" width="44.9945" height="44.2486" rx="3" fill="white"/>
<rect x="1" y="64.7568" width="44.9945" height="44.2486" rx="3" stroke="white" stroke-width="2"/>
<rect x="1" y="64.7568" width="44.9945" height="44.2486" rx="3" stroke="black" stroke-opacity="0.2" stroke-width="2"/>
<rect x="1" y="20" width="44.9945" height="44.2486" rx="3" fill="white"/>
<rect x="1" y="20" width="44.9945" height="44.2486" rx="3" stroke="white" stroke-width="2"/>
<rect x="1" y="20" width="44.9945" height="44.2486" rx="3" stroke="black" stroke-opacity="0.2" stroke-width="2"/>
<rect x="46.502" y="64.7568" width="44.9945" height="44.2486" rx="3" fill="white"/>
<rect x="46.502" y="64.7568" width="44.9945" height="44.2486" rx="3" stroke="white" stroke-width="2"/>
<rect x="46.502" y="64.7568" width="44.9945" height="44.2486" rx="3" stroke="black" stroke-opacity="0.2" stroke-width="2"/>
<rect x="46.502" y="20" width="44.9945" height="44.2486" rx="3" fill="white"/>
<rect x="46.502" y="20" width="44.9945" height="44.2486" rx="3" stroke="white" stroke-width="2"/>
<rect x="46.502" y="20" width="44.9945" height="44.2486" rx="3" stroke="black" stroke-opacity="0.2" stroke-width="2"/>
<rect x="92.0059" y="64.7568" width="44.9945" height="44.2486" rx="3" fill="white"/>
<rect x="92.0059" y="64.7568" width="44.9945" height="44.2486" rx="3" stroke="white" stroke-width="2"/>
<rect x="92.0059" y="64.7568" width="44.9945" height="44.2486" rx="3" stroke="black" stroke-opacity="0.2" stroke-width="2"/>
<rect x="92.0059" y="20" width="44.9945" height="44.2486" rx="3" fill="white"/>
<rect x="92.0059" y="20" width="44.9945" height="44.2486" rx="3" stroke="white" stroke-width="2"/>
<rect x="92.0059" y="20" width="44.9945" height="44.2486" rx="3" stroke="black" stroke-opacity="0.2" stroke-width="2"/>
<path d="M25.4636 32.8182V51H23.2619V35.1264H23.1554L18.7164 38.0739V35.8366L23.2619 32.8182H25.4636Z" fill="black"/>
<path d="M115.067 51.2486C113.895 51.2486 112.85 51.0473 111.933 50.6449C111.021 50.2424 110.296 49.6831 109.758 48.967C109.225 48.2449 108.935 47.4074 108.888 46.4545H111.125C111.172 47.0405 111.373 47.5465 111.729 47.9727C112.084 48.3929 112.548 48.7184 113.122 48.9492C113.696 49.18 114.333 49.2955 115.031 49.2955C115.812 49.2955 116.505 49.1593 117.108 48.8871C117.712 48.6148 118.186 48.236 118.529 47.7507C118.872 47.2654 119.044 46.7031 119.044 46.0639C119.044 45.3951 118.878 44.8062 118.547 44.2972C118.215 43.7823 117.73 43.3799 117.091 43.0898C116.452 42.7998 115.67 42.6548 114.747 42.6548H113.291V40.7017H114.747C115.469 40.7017 116.102 40.5715 116.647 40.3111C117.197 40.0507 117.626 39.6837 117.934 39.2102C118.248 38.7367 118.405 38.1804 118.405 37.5412C118.405 36.9257 118.269 36.39 117.996 35.9343C117.724 35.4786 117.339 35.1235 116.842 34.869C116.351 34.6145 115.771 34.4872 115.102 34.4872C114.475 34.4872 113.883 34.6026 113.327 34.8335C112.776 35.0584 112.326 35.3868 111.977 35.8189C111.628 36.245 111.439 36.7599 111.409 37.3636H109.278C109.314 36.4107 109.601 35.5762 110.139 34.8601C110.678 34.138 111.382 33.5758 112.252 33.1733C113.128 32.7708 114.09 32.5696 115.138 32.5696C116.262 32.5696 117.227 32.7975 118.032 33.2532C118.837 33.703 119.455 34.2978 119.887 35.0376C120.319 35.7775 120.535 36.5765 120.535 37.4347C120.535 38.4586 120.266 39.3316 119.727 40.0536C119.195 40.7757 118.47 41.2758 117.552 41.554V41.696C118.701 41.8854 119.597 42.3737 120.242 43.1609C120.887 43.9421 121.21 44.9098 121.21 46.0639C121.21 47.0523 120.941 47.9401 120.402 48.7273C119.869 49.5085 119.142 50.1241 118.218 50.5739C117.295 51.0237 116.244 51.2486 115.067 51.2486Z" fill="black"/>
<path d="M115.119 96.2486C114.373 96.2367 113.627 96.0947 112.882 95.8224C112.136 95.5502 111.455 95.0915 110.84 94.4464C110.224 93.7953 109.73 92.9164 109.357 91.8097C108.984 90.697 108.798 89.3002 108.798 87.6193C108.798 86.0095 108.949 84.5831 109.25 83.3402C109.552 82.0914 109.99 81.0408 110.564 80.1886C111.139 79.3304 111.831 78.6793 112.642 78.2354C113.459 77.7915 114.379 77.5696 115.403 77.5696C116.421 77.5696 117.326 77.7738 118.119 78.1822C118.918 78.5846 119.569 79.1469 120.073 79.869C120.576 80.591 120.901 81.4226 121.049 82.3636H118.883C118.682 81.5469 118.291 80.8692 117.711 80.3306C117.131 79.792 116.362 79.5227 115.403 79.5227C113.994 79.5227 112.884 80.1353 112.074 81.3604C111.269 82.5856 110.863 84.3049 110.857 86.5185H110.999C111.331 86.0154 111.724 85.5863 112.18 85.2312C112.642 84.8701 113.151 84.592 113.707 84.3967C114.264 84.2013 114.852 84.1037 115.474 84.1037C116.516 84.1037 117.468 84.3641 118.333 84.8849C119.197 85.3999 119.889 86.113 120.41 87.0245C120.931 87.93 121.191 88.9688 121.191 90.1406C121.191 91.2652 120.94 92.295 120.437 93.2301C119.933 94.1593 119.226 94.8991 118.315 95.4496C117.409 95.9941 116.344 96.2604 115.119 96.2486ZM115.119 94.2955C115.864 94.2955 116.533 94.109 117.125 93.7362C117.723 93.3633 118.193 92.8632 118.537 92.2358C118.886 91.6084 119.061 90.91 119.061 90.1406C119.061 89.389 118.892 88.7054 118.554 88.0898C118.223 87.4684 117.764 86.9742 117.178 86.6072C116.598 86.2403 115.936 86.0568 115.19 86.0568C114.628 86.0568 114.104 86.1693 113.618 86.3942C113.133 86.6132 112.707 86.915 112.34 87.2997C111.979 87.6844 111.695 88.1254 111.488 88.6225C111.281 89.1138 111.177 89.6316 111.177 90.1761C111.177 90.8982 111.346 91.5729 111.683 92.2003C112.026 92.8277 112.494 93.3337 113.086 93.7184C113.683 94.1031 114.361 94.2955 115.119 94.2955Z" fill="black"/>
<path d="M63.3137 51V49.402L69.3152 42.8324C70.0195 42.063 70.5995 41.3942 71.0552 40.826C71.5109 40.2519 71.8483 39.7133 72.0673 39.2102C72.2922 38.7012 72.4047 38.1686 72.4047 37.6122C72.4047 36.973 72.2508 36.4196 71.943 35.9521C71.6412 35.4845 71.2269 35.1235 70.7001 34.869C70.1734 34.6145 69.5815 34.4872 68.9245 34.4872C68.2261 34.4872 67.6165 34.6322 67.0957 34.9222C66.5808 35.2063 66.1813 35.6058 65.8972 36.1207C65.619 36.6357 65.4799 37.2393 65.4799 37.9318H63.3848C63.3848 36.8665 63.6304 35.9313 64.1216 35.1264C64.6129 34.3215 65.2817 33.6941 66.128 33.2443C66.9803 32.7945 67.9361 32.5696 68.9956 32.5696C70.0609 32.5696 71.0049 32.7945 71.8276 33.2443C72.6503 33.6941 73.2954 34.3008 73.763 35.0643C74.2305 35.8278 74.4643 36.6771 74.4643 37.6122C74.4643 38.281 74.343 38.935 74.1003 39.5742C73.8636 40.2075 73.4493 40.9148 72.8574 41.696C72.2715 42.4714 71.4577 43.4183 70.416 44.5369L66.3322 48.9048V49.0469H74.7839V51H63.3137Z" fill="black"/>
<path d="M16.4359 92.2713V90.4602L24.426 77.8182H25.7399V80.6236H24.8521L18.8152 90.1761V90.3182H29.5752V92.2713H16.4359ZM24.9942 96V91.7209V90.8775V77.8182H27.0894V96H24.9942Z" fill="black"/>
<path d="M68.9589 96.2486C67.9173 96.2486 66.9792 96.0414 66.1447 95.6271C65.3101 95.2128 64.6414 94.6446 64.1383 93.9226C63.6352 93.2005 63.36 92.3778 63.3126 91.4545H65.4433C65.5262 92.2772 65.899 92.9579 66.5619 93.4964C67.2307 94.0291 68.0297 94.2955 68.9589 94.2955C69.7047 94.2955 70.3676 94.1209 70.9476 93.7717C71.5335 93.4225 71.9922 92.9431 72.3236 92.3335C72.661 91.7179 72.8297 91.0225 72.8297 90.2472C72.8297 89.4541 72.6551 88.7468 72.3059 88.1254C71.9626 87.498 71.4891 87.0038 70.8854 86.6428C70.2817 86.2817 69.5922 86.0982 68.8169 86.0923C68.2605 86.0864 67.6894 86.1722 67.1035 86.3498C66.5175 86.5214 66.0352 86.7434 65.6564 87.0156L63.5967 86.767L64.6976 77.8182H74.1436V79.7713H66.5442L65.905 85.1335H66.0115C66.3844 84.8376 66.8519 84.592 67.4142 84.3967C67.9765 84.2013 68.5624 84.1037 69.172 84.1037C70.2847 84.1037 71.2761 84.37 72.1461 84.9027C73.022 85.4295 73.7086 86.1515 74.2057 87.0689C74.7088 87.9863 74.9604 89.0339 74.9604 90.2116C74.9604 91.3717 74.6999 92.4074 74.1791 93.3189C73.6642 94.2244 72.954 94.9406 72.0484 95.4673C71.1429 95.9882 70.1131 96.2486 68.9589 96.2486Z" fill="black"/>
<rect x="112" y="256.757" width="44.9945" height="44.2486" rx="3" fill="white"/>
<rect x="112" y="256.757" width="44.9945" height="44.2486" rx="3" stroke="white" stroke-width="2"/>
<rect x="112" y="256.757" width="44.9945" height="44.2486" rx="3" stroke="black" stroke-opacity="0.2" stroke-width="2"/>
<rect x="112" y="212" width="44.9945" height="44.2486" rx="3" fill="white"/>
<rect x="112" y="212" width="44.9945" height="44.2486" rx="3" stroke="white" stroke-width="2"/>
<rect x="112" y="212" width="44.9945" height="44.2486" rx="3" stroke="black" stroke-opacity="0.2" stroke-width="2"/>
<rect x="157.502" y="256.757" width="44.9945" height="44.2486" rx="3" fill="white"/>
<rect x="157.502" y="256.757" width="44.9945" height="44.2486" rx="3" stroke="white" stroke-width="2"/>
<rect x="157.502" y="256.757" width="44.9945" height="44.2486" rx="3" stroke="black" stroke-opacity="0.2" stroke-width="2"/>
<rect x="157.502" y="212" width="44.9945" height="44.2486" rx="3" fill="white"/>
<rect x="157.502" y="212" width="44.9945" height="44.2486" rx="3" stroke="white" stroke-width="2"/>
<rect x="157.502" y="212" width="44.9945" height="44.2486" rx="3" stroke="black" stroke-opacity="0.2" stroke-width="2"/>
<rect x="203.006" y="256.757" width="44.9945" height="44.2486" rx="3" fill="white"/>
<rect x="203.006" y="256.757" width="44.9945" height="44.2486" rx="3" stroke="white" stroke-width="2"/>
<rect x="203.006" y="256.757" width="44.9945" height="44.2486" rx="3" stroke="black" stroke-opacity="0.2" stroke-width="2"/>
<rect x="203.006" y="212" width="44.9945" height="44.2486" rx="3" fill="white"/>
<rect x="203.006" y="212" width="44.9945" height="44.2486" rx="3" stroke="white" stroke-width="2"/>
<rect x="203.006" y="212" width="44.9945" height="44.2486" rx="3" stroke="black" stroke-opacity="0.2" stroke-width="2"/>
<path d="M128.314 243V241.402L134.315 234.832C135.019 234.063 135.599 233.394 136.055 232.826C136.511 232.252 136.848 231.713 137.067 231.21C137.292 230.701 137.405 230.169 137.405 229.612C137.405 228.973 137.251 228.42 136.943 227.952C136.641 227.484 136.227 227.123 135.7 226.869C135.173 226.614 134.581 226.487 133.925 226.487C133.226 226.487 132.617 226.632 132.096 226.922C131.581 227.206 131.181 227.606 130.897 228.121C130.619 228.636 130.48 229.239 130.48 229.932H128.385C128.385 228.866 128.63 227.931 129.122 227.126C129.613 226.321 130.282 225.694 131.128 225.244C131.98 224.795 132.936 224.57 133.996 224.57C135.061 224.57 136.005 224.795 136.828 225.244C137.65 225.694 138.295 226.301 138.763 227.064C139.231 227.828 139.464 228.677 139.464 229.612C139.464 230.281 139.343 230.935 139.1 231.574C138.864 232.208 138.449 232.915 137.857 233.696C137.271 234.471 136.458 235.418 135.416 236.537L131.332 240.905V241.047H139.784V243H128.314Z" fill="black"/>
<path d="M219.436 239.271V237.46L227.426 224.818H228.74V227.624H227.852L221.815 237.176V237.318H232.575V239.271H219.436ZM227.994 243V238.721V237.877V224.818H230.089V243H227.994Z" fill="black"/>
<path d="M221.309 288L229.441 271.913V271.771H220.066V269.818H231.714V271.878L223.617 288H221.309Z" fill="black"/>
<path d="M180.067 243.249C178.895 243.249 177.85 243.047 176.933 242.645C176.021 242.242 175.296 241.683 174.758 240.967C174.225 240.245 173.935 239.407 173.888 238.455H176.125C176.172 239.04 176.373 239.547 176.729 239.973C177.084 240.393 177.548 240.718 178.122 240.949C178.696 241.18 179.333 241.295 180.031 241.295C180.812 241.295 181.505 241.159 182.108 240.887C182.712 240.615 183.186 240.236 183.529 239.751C183.872 239.265 184.044 238.703 184.044 238.064C184.044 237.395 183.878 236.806 183.547 236.297C183.215 235.782 182.73 235.38 182.091 235.09C181.452 234.8 180.67 234.655 179.747 234.655H178.291V232.702H179.747C180.469 232.702 181.102 232.571 181.647 232.311C182.197 232.051 182.626 231.684 182.934 231.21C183.248 230.737 183.405 230.18 183.405 229.541C183.405 228.926 183.269 228.39 182.996 227.934C182.724 227.479 182.339 227.123 181.842 226.869C181.351 226.614 180.771 226.487 180.102 226.487C179.475 226.487 178.883 226.603 178.327 226.833C177.776 227.058 177.326 227.387 176.977 227.819C176.628 228.245 176.439 228.76 176.409 229.364H174.278C174.314 228.411 174.601 227.576 175.139 226.86C175.678 226.138 176.382 225.576 177.252 225.173C178.128 224.771 179.09 224.57 180.138 224.57C181.262 224.57 182.227 224.797 183.032 225.253C183.837 225.703 184.455 226.298 184.887 227.038C185.319 227.777 185.535 228.576 185.535 229.435C185.535 230.459 185.266 231.332 184.727 232.054C184.195 232.776 183.47 233.276 182.552 233.554V233.696C183.701 233.885 184.597 234.374 185.242 235.161C185.887 235.942 186.21 236.91 186.21 238.064C186.21 239.052 185.941 239.94 185.402 240.727C184.869 241.509 184.142 242.124 183.218 242.574C182.295 243.024 181.244 243.249 180.067 243.249Z" fill="black"/>
<path d="M133.959 288.249C132.917 288.249 131.979 288.041 131.145 287.627C130.31 287.213 129.641 286.645 129.138 285.923C128.635 285.201 128.36 284.378 128.313 283.455H130.443C130.526 284.277 130.899 284.958 131.562 285.496C132.231 286.029 133.03 286.295 133.959 286.295C134.705 286.295 135.368 286.121 135.948 285.772C136.534 285.422 136.992 284.943 137.324 284.333C137.661 283.718 137.83 283.022 137.83 282.247C137.83 281.454 137.655 280.747 137.306 280.125C136.963 279.498 136.489 279.004 135.885 278.643C135.282 278.282 134.592 278.098 133.817 278.092C133.261 278.086 132.689 278.172 132.103 278.35C131.518 278.521 131.035 278.743 130.656 279.016L128.597 278.767L129.698 269.818H139.144V271.771H131.544L130.905 277.134H131.011C131.384 276.838 131.852 276.592 132.414 276.397C132.976 276.201 133.562 276.104 134.172 276.104C135.285 276.104 136.276 276.37 137.146 276.903C138.022 277.429 138.709 278.152 139.206 279.069C139.709 279.986 139.96 281.034 139.96 282.212C139.96 283.372 139.7 284.407 139.179 285.319C138.664 286.224 137.954 286.941 137.048 287.467C136.143 287.988 135.113 288.249 133.959 288.249Z" fill="black"/>
<path d="M180.119 288.249C179.373 288.237 178.627 288.095 177.882 287.822C177.136 287.55 176.455 287.092 175.84 286.446C175.224 285.795 174.73 284.916 174.357 283.81C173.984 282.697 173.798 281.3 173.798 279.619C173.798 278.009 173.949 276.583 174.25 275.34C174.552 274.091 174.99 273.041 175.564 272.189C176.139 271.33 176.831 270.679 177.642 270.235C178.459 269.792 179.379 269.57 180.403 269.57C181.421 269.57 182.326 269.774 183.119 270.182C183.918 270.585 184.569 271.147 185.073 271.869C185.576 272.591 185.901 273.423 186.049 274.364H183.883C183.682 273.547 183.291 272.869 182.711 272.331C182.131 271.792 181.362 271.523 180.403 271.523C178.994 271.523 177.884 272.135 177.074 273.36C176.269 274.586 175.863 276.305 175.857 278.518H175.999C176.331 278.015 176.724 277.586 177.18 277.231C177.642 276.87 178.151 276.592 178.707 276.397C179.264 276.201 179.852 276.104 180.474 276.104C181.516 276.104 182.468 276.364 183.333 276.885C184.197 277.4 184.889 278.113 185.41 279.025C185.931 279.93 186.191 280.969 186.191 282.141C186.191 283.265 185.94 284.295 185.437 285.23C184.933 286.159 184.226 286.899 183.315 287.45C182.409 287.994 181.344 288.26 180.119 288.249ZM180.119 286.295C180.864 286.295 181.533 286.109 182.125 285.736C182.723 285.363 183.193 284.863 183.537 284.236C183.886 283.608 184.061 282.91 184.061 282.141C184.061 281.389 183.892 280.705 183.554 280.09C183.223 279.468 182.764 278.974 182.178 278.607C181.598 278.24 180.936 278.057 180.19 278.057C179.628 278.057 179.104 278.169 178.618 278.394C178.133 278.613 177.707 278.915 177.34 279.3C176.979 279.684 176.695 280.125 176.488 280.623C176.281 281.114 176.177 281.632 176.177 282.176C176.177 282.898 176.346 283.573 176.683 284.2C177.026 284.828 177.494 285.334 178.086 285.718C178.683 286.103 179.361 286.295 180.119 286.295Z" fill="black"/>
<rect x="185.916" y="148" width="23.8725" height="10.9416" rx="1" transform="rotate(90 185.916 148)" fill="#DF5C5C"/>
<path d="M181.006 181.127C180.607 181.588 179.893 181.588 179.494 181.127L170.641 170.905C170.08 170.257 170.54 169.25 171.397 169.25L189.103 169.25C189.96 169.25 190.42 170.257 189.859 170.905L181.006 181.127Z" fill="#DF5C5C"/>
<path d="M178.447 74.0611V55.7798H181.549V74.0611H178.447ZM170.858 66.4716V63.3693H189.139V66.4716H170.858Z" fill="black"/>
</svg>
