<svg width="20" height="22" viewBox="0 0 20 22" fill="none" xmlns="http://www.w3.org/2000/svg">
<path d="M14.9649 14.554L14.9695 19.2821L10.7739 21.3758V16.6498L14.9649 14.554ZM20.0002 12.0271V16.7717L16.4218 18.5576L16.4192 13.8346L20.0002 12.0271ZM14.9587 8.22548L14.9633 12.904L10.7739 14.9858V10.3057L14.9587 8.22548ZM20.0002 5.71915V10.3682L16.4182 12.1892L16.4151 7.50142L20.0002 5.71915ZM10.1361 5.16914L13.8808 7.05934L9.9956 9.01048L6.32158 7.16521L10.1361 5.16914ZM4.92717 2.5399L8.49893 4.34282L4.67566 6.33838L1.00732 4.4962L4.92717 2.5399ZM15.1374 2.56727L18.9844 4.4962L15.5438 6.22424L11.7913 4.33146L15.1374 2.56727ZM10.0183 0L13.4816 1.7363L10.1609 3.50927L6.5922 1.70945L10.0183 0Z" fill="white"/>
<path d="M9.29247 10.3057L6.46646 8.88492V15.026C6.46646 15.026 3.01038 7.6723 2.69018 7.01176C2.64887 6.92654 2.47895 6.83307 2.43557 6.81034C1.81583 6.48498 0 5.56519 0 5.56519V16.4147L2.51201 17.7575V12.0864C2.51201 12.0864 5.93142 18.6572 5.96602 18.729C6.00062 18.8007 6.34406 19.4933 6.71074 19.7365C7.1993 20.0598 9.29298 21.3189 9.29298 21.3189L9.29247 10.3057Z" fill="white"/>
</svg>
