<svg width="408" height="123" viewBox="0 0 408 123" fill="none" xmlns="http://www.w3.org/2000/svg">
<rect x="252.225" y="12" width="38.5455" height="38.5455" rx="3" fill="#F1F8FF"/>
<rect x="252.225" y="12" width="38.5455" height="38.5455" rx="3" stroke="white" stroke-width="2"/>
<rect x="252.225" y="12" width="38.5455" height="38.5455" rx="3" stroke="#454545" stroke-opacity="0.42" stroke-width="2"/>
<rect x="310" y="12" width="38.5455" height="38.5455" rx="3" fill="#BCE5FF"/>
<rect x="310" y="12" width="38.5455" height="38.5455" rx="3" stroke="white" stroke-width="2"/>
<rect x="310" y="12" width="38.5455" height="38.5455" rx="3" stroke="#454545" stroke-opacity="0.42" stroke-width="2"/>
<rect x="368" y="12" width="38.5455" height="38.5455" rx="3" fill="#89D2FF"/>
<rect x="368" y="12" width="38.5455" height="38.5455" rx="3" stroke="white" stroke-width="2"/>
<rect x="368" y="12" width="38.5455" height="38.5455" rx="3" stroke="#454545" stroke-opacity="0.61" stroke-width="2"/>
<rect x="252.225" y="50.7437" width="38.5455" height="38.5455" rx="3" fill="#F1F8FF"/>
<rect x="252.225" y="50.7437" width="38.5455" height="38.5455" rx="3" stroke="white" stroke-width="2"/>
<rect x="252.225" y="50.7437" width="38.5455" height="38.5455" rx="3" stroke="#454545" stroke-opacity="0.42" stroke-width="2"/>
<rect x="310" y="50.7437" width="38.5455" height="38.5455" rx="3" fill="#BCE5FF"/>
<rect x="310" y="50.7437" width="38.5455" height="38.5455" rx="3" stroke="white" stroke-width="2"/>
<rect x="310" y="50.7437" width="38.5455" height="38.5455" rx="3" stroke="#454545" stroke-opacity="0.42" stroke-width="2"/>
<rect x="368" y="50.7437" width="38.5455" height="38.5455" rx="3" fill="#89D2FF"/>
<rect x="368" y="50.7437" width="38.5455" height="38.5455" rx="3" stroke="white" stroke-width="2"/>
<rect x="368" y="50.7437" width="38.5455" height="38.5455" rx="3" stroke="#454545" stroke-opacity="0.61" stroke-width="2"/>
<path d="M273.977 26.5634V41.1089H271.342V29.1274H271.257L267.855 31.3006V28.8859L271.47 26.5634H273.977Z" fill="black"/>
<path d="M387.347 41.3078C386.324 41.3078 385.415 41.1326 384.62 40.7822C383.829 40.4318 383.204 39.9441 382.745 39.3191C382.286 38.6941 382.042 37.972 382.013 37.1529H384.684C384.707 37.5459 384.838 37.8892 385.074 38.1828C385.311 38.4716 385.626 38.6965 386.019 38.8575C386.412 39.0185 386.852 39.0989 387.34 39.0989C387.861 39.0989 388.323 39.009 388.725 38.8291C389.127 38.6444 389.442 38.3887 389.67 38.062C389.897 37.7353 390.008 37.3589 390.003 36.9328C390.008 36.4924 389.894 36.1042 389.662 35.768C389.43 35.4318 389.094 35.169 388.654 34.9796C388.218 34.7902 387.693 34.6955 387.077 34.6955H385.792V32.6643H387.077C387.584 32.6643 388.027 32.5767 388.405 32.4015C388.789 32.2263 389.09 31.9801 389.307 31.6629C389.525 31.3409 389.632 30.9692 389.627 30.5478C389.632 30.1359 389.539 29.7784 389.35 29.4754C389.165 29.1676 388.903 28.9285 388.562 28.758C388.225 28.5876 387.83 28.5024 387.376 28.5024C386.93 28.5024 386.519 28.5828 386.14 28.7438C385.761 28.9048 385.456 29.1345 385.224 29.4328C384.992 29.7263 384.868 30.0767 384.854 30.4839H382.319C382.338 29.6695 382.572 28.9545 383.022 28.339C383.476 27.7187 384.082 27.2358 384.84 26.8901C385.598 26.5398 386.448 26.3646 387.39 26.3646C388.36 26.3646 389.203 26.5469 389.918 26.9114C390.638 27.2713 391.194 27.7566 391.587 28.3674C391.98 28.9782 392.177 29.6529 392.177 30.3916C392.181 31.2107 391.94 31.8972 391.452 32.4512C390.969 33.0052 390.335 33.3674 389.549 33.5379V33.6515C390.572 33.7935 391.355 34.1723 391.9 34.7879C392.449 35.3987 392.721 36.1586 392.716 37.0677C392.716 37.8821 392.484 38.6113 392.02 39.2552C391.561 39.8944 390.927 40.3963 390.117 40.7609C389.312 41.1255 388.389 41.3078 387.347 41.3078Z" fill="black"/>
<path d="M324.428 41.1089V39.2055L329.477 34.2552C329.96 33.7675 330.363 33.3343 330.685 32.9555C331.007 32.5767 331.248 32.2097 331.409 31.8546C331.57 31.4995 331.651 31.1207 331.651 30.7183C331.651 30.259 331.547 29.866 331.338 29.5393C331.13 29.2078 330.843 28.9522 330.479 28.7722C330.114 28.5923 329.7 28.5024 329.236 28.5024C328.758 28.5024 328.339 28.6018 327.979 28.8006C327.619 28.9948 327.34 29.2718 327.141 29.6316C326.947 29.9915 326.85 30.42 326.85 30.9171H324.343C324.343 29.9938 324.553 29.1913 324.975 28.5095C325.396 27.8276 325.976 27.2997 326.715 26.9256C327.458 26.5516 328.31 26.3646 329.272 26.3646C330.247 26.3646 331.104 26.5469 331.843 26.9114C332.581 27.276 333.154 27.7756 333.561 28.41C333.973 29.0445 334.179 29.7689 334.179 30.5833C334.179 31.1278 334.075 31.6629 333.867 32.1884C333.658 32.714 333.291 33.2964 332.766 33.9356C332.245 34.5748 331.513 35.3489 330.571 36.258L328.064 38.8078V38.9072H334.399V41.1089H324.428Z" fill="black"/>
<path d="M273.977 65.3071V79.8525H271.342V67.871H271.257L267.855 70.0443V67.6295L271.47 65.3071H273.977Z" fill="black"/>
<path d="M387.347 80.0514C386.324 80.0514 385.415 79.8762 384.62 79.5258C383.829 79.1755 383.204 78.6878 382.745 78.0628C382.286 77.4378 382.042 76.7157 382.013 75.8966H384.684C384.707 76.2896 384.838 76.6328 385.074 76.9264C385.311 77.2152 385.626 77.4401 386.019 77.6011C386.412 77.7621 386.852 77.8426 387.34 77.8426C387.861 77.8426 388.323 77.7526 388.725 77.5727C389.127 77.3881 389.442 77.1324 389.67 76.8057C389.897 76.479 390.008 76.1025 390.003 75.6764C390.008 75.2361 389.894 74.8478 389.662 74.5116C389.43 74.1755 389.094 73.9127 388.654 73.7233C388.218 73.5339 387.693 73.4392 387.077 73.4392H385.792V71.4079H387.077C387.584 71.4079 388.027 71.3203 388.405 71.1452C388.789 70.97 389.09 70.7238 389.307 70.4065C389.525 70.0845 389.632 69.7129 389.627 69.2915C389.632 68.8795 389.539 68.522 389.35 68.219C389.165 67.9113 388.903 67.6721 388.562 67.5017C388.225 67.3312 387.83 67.246 387.376 67.246C386.93 67.246 386.519 67.3265 386.14 67.4875C385.761 67.6485 385.456 67.8781 385.224 68.1764C384.992 68.47 384.868 68.8203 384.854 69.2275H382.319C382.338 68.4131 382.572 67.6982 383.022 67.0827C383.476 66.4624 384.082 65.9794 384.84 65.6338C385.598 65.2834 386.448 65.1082 387.39 65.1082C388.36 65.1082 389.203 65.2905 389.918 65.6551C390.638 66.0149 391.194 66.5003 391.587 67.1111C391.98 67.7219 392.177 68.3966 392.177 69.1352C392.181 69.9543 391.94 70.6409 391.452 71.1949C390.969 71.7488 390.335 72.1111 389.549 72.2815V72.3952C390.572 72.5372 391.355 72.916 391.9 73.5315C392.449 74.1423 392.721 74.9023 392.716 75.8113C392.716 76.6257 392.484 77.3549 392.02 77.9988C391.561 78.6381 390.927 79.1399 390.117 79.5045C389.312 79.8691 388.389 80.0514 387.347 80.0514Z" fill="black"/>
<path d="M324.428 79.8525V77.9491L329.477 72.9988C329.96 72.5112 330.363 72.0779 330.685 71.6991C331.007 71.3203 331.248 70.9534 331.409 70.5983C331.57 70.2432 331.651 69.8644 331.651 69.4619C331.651 69.0026 331.547 68.6096 331.338 68.2829C331.13 67.9515 330.843 67.6958 330.479 67.5159C330.114 67.336 329.7 67.246 329.236 67.246C328.758 67.246 328.339 67.3454 327.979 67.5443C327.619 67.7384 327.34 68.0154 327.141 68.3753C326.947 68.7351 326.85 69.1636 326.85 69.6608H324.343C324.343 68.7375 324.553 67.9349 324.975 67.2531C325.396 66.5713 325.976 66.0434 326.715 65.6693C327.458 65.2952 328.31 65.1082 329.272 65.1082C330.247 65.1082 331.104 65.2905 331.843 65.6551C332.581 66.0197 333.154 66.5192 333.561 67.1537C333.973 67.7881 334.179 68.5126 334.179 69.327C334.179 69.8715 334.075 70.4065 333.867 70.9321C333.658 71.4577 333.291 72.04 332.766 72.6792C332.245 73.3184 331.513 74.0926 330.571 75.0017L328.064 77.5514V77.6508H334.399V79.8525H324.428Z" fill="black"/>
<rect width="13" height="63" rx="2" transform="matrix(-4.37114e-08 -1 -1 4.37114e-08 211 59)" fill="#E04343"/>
<path d="M231.375 53.8794C232.074 53.5013 232.074 52.4987 231.375 52.1206L210.476 40.8085C209.81 40.4479 209 40.9303 209 41.688L209 64.312C209 65.0697 209.81 65.5521 210.476 65.1915L231.375 53.8794Z" fill="#E04343"/>
<path d="M145.562 12.15C145.562 12.5833 145.554 13.0917 145.537 13.675C145.52 14.2417 145.504 14.675 145.487 14.975C145.437 15.825 145.412 16.675 145.412 17.525C145.412 18.1583 145.437 18.8167 145.487 19.5C146.004 18.75 146.562 18.2 147.162 17.85C147.762 17.5 148.487 17.325 149.337 17.325C149.954 17.325 150.529 17.6 151.062 18.15C151.595 18.7 151.937 19.3417 152.087 20.075C152.137 20.725 152.162 21.5167 152.162 22.45C152.162 23.05 152.195 23.8333 152.262 24.8C152.295 25.1667 152.387 25.5083 152.537 25.825C152.704 26.1417 152.937 26.3 153.237 26.3C153.387 26.3 153.504 26.2917 153.587 26.275C153.687 26.2583 153.779 26.25 153.862 26.25C154.095 26.25 154.254 26.3083 154.337 26.425C154.437 26.5417 154.487 26.7083 154.487 26.925C154.487 27.325 154.287 27.625 153.887 27.825C153.487 28.025 153.12 28.125 152.787 28.125C151.587 28.125 150.762 27.625 150.312 26.625C150.062 26.0583 149.904 25.325 149.837 24.425C149.77 23.5083 149.737 22.4417 149.737 21.225C149.737 20.025 149.329 19.425 148.512 19.425C148.062 19.425 147.604 19.6667 147.137 20.15C146.687 20.6167 146.312 21.2417 146.012 22.025C145.712 22.7917 145.562 23.5917 145.562 24.425L145.587 27.025C145.587 27.3917 145.445 27.6667 145.162 27.85C144.879 28.0167 144.612 28.1 144.362 28.1C143.995 28.1 143.662 27.9917 143.362 27.775C143.062 27.5417 142.912 27.2833 142.912 27C143.029 25.75 143.087 23.6583 143.087 20.725C143.087 20.1917 143.045 18.2167 142.962 14.8L142.887 12.5C142.887 12.1333 143.054 11.8167 143.387 11.55C143.72 11.2667 144.095 11.125 144.512 11.125C144.879 11.125 145.145 11.2083 145.312 11.375C145.479 11.5417 145.562 11.8 145.562 12.15ZM163.489 22.6C163.622 22.6833 163.881 22.8417 164.264 23.075C164.664 23.2917 164.931 23.55 165.064 23.85C165.197 24.15 165.264 24.5667 165.264 25.1C165.264 25.7 165.089 26.2333 164.739 26.7C164.389 27.15 163.939 27.5 163.389 27.75C163.006 27.9167 162.589 28.0167 162.139 28.05C161.706 28.0833 161.181 28.1 160.564 28.1C160.231 28.1 159.797 28.05 159.264 27.95C158.747 27.85 158.389 27.7583 158.189 27.675C157.656 27.375 157.206 27.025 156.839 26.625C156.472 26.225 156.289 25.8167 156.289 25.4C156.289 25.0667 156.397 24.8 156.614 24.6C156.831 24.4 157.114 24.3 157.464 24.3C157.647 24.3 157.822 24.35 157.989 24.45C158.172 24.5333 158.297 24.6333 158.364 24.75C158.547 25.1833 158.856 25.5083 159.289 25.725C159.722 25.9417 160.164 26.05 160.614 26.05C162.197 26.05 162.989 25.7667 162.989 25.2C162.989 25.05 162.947 24.9333 162.864 24.85C162.797 24.75 162.697 24.65 162.564 24.55C162.347 24.4 162.039 24.2417 161.639 24.075C161.256 23.9083 160.914 23.7833 160.614 23.7C159.931 23.55 159.264 23.325 158.614 23.025C158.014 22.725 157.522 22.3333 157.139 21.85C156.756 21.35 156.564 20.7417 156.564 20.025C156.564 19.5917 156.722 19.1667 157.039 18.75C157.372 18.3167 157.756 17.9917 158.189 17.775C158.489 17.6583 158.981 17.5333 159.664 17.4C160.347 17.2667 160.814 17.2 161.064 17.2C161.447 17.2 161.864 17.2417 162.314 17.325C162.764 17.3917 163.106 17.5083 163.339 17.675C163.789 17.9417 164.156 18.225 164.439 18.525C164.722 18.8083 164.864 19.1333 164.864 19.5C164.864 19.6833 164.822 19.8833 164.739 20.1C164.656 20.3 164.556 20.425 164.439 20.475C164.189 20.5917 163.897 20.65 163.564 20.65C163.414 20.65 163.289 20.6083 163.189 20.525C163.106 20.4417 162.989 20.3083 162.839 20.125C162.656 19.8417 162.481 19.675 162.314 19.625C162.114 19.575 161.822 19.5167 161.439 19.45C161.056 19.3667 160.797 19.325 160.664 19.325C160.247 19.325 159.847 19.4083 159.464 19.575C159.097 19.7417 158.914 19.9667 158.914 20.25C158.914 20.5833 159.189 20.8667 159.739 21.1C160.089 21.2667 160.472 21.4083 160.889 21.525C161.322 21.6417 161.589 21.7167 161.689 21.75C161.922 21.8 162.222 21.9167 162.589 22.1C162.972 22.2833 163.272 22.45 163.489 22.6ZM168.697 19.3C168.547 19.3 168.405 19.3167 168.272 19.35C168.139 19.3667 168.005 19.375 167.872 19.375C167.689 19.375 167.514 19.2917 167.347 19.125C167.197 18.9583 167.122 18.8083 167.122 18.675C167.122 18.2417 167.339 17.9083 167.772 17.675C168.205 17.425 168.647 17.3 169.097 17.3C169.48 17.3 169.872 17.4333 170.272 17.7C170.689 17.95 170.997 18.275 171.197 18.675C171.63 18.1583 172.164 17.7833 172.797 17.55C173.43 17.3167 174.089 17.2 174.772 17.2C175.539 17.2 176.247 17.4417 176.897 17.925C177.564 18.4083 178.089 19.025 178.472 19.775C178.855 20.5083 179.047 21.2417 179.047 21.975C179.047 22.6917 178.972 23.3333 178.822 23.9C178.672 24.45 178.405 25.0083 178.022 25.575C177.589 26.175 177.005 26.6667 176.272 27.05C175.555 27.4333 174.697 27.625 173.697 27.625C173.43 27.625 173.105 27.5583 172.722 27.425C172.339 27.275 172.022 27.1167 171.772 26.95C171.655 28.0833 171.597 29.0667 171.597 29.9C171.597 30.4 171.622 30.875 171.672 31.325C171.705 31.8583 171.722 32.2417 171.722 32.475C171.722 32.8417 171.597 33.1083 171.347 33.275C171.097 33.4583 170.822 33.55 170.522 33.55C169.922 33.55 169.522 33.3833 169.322 33.05C169.139 32.7333 169.047 32.275 169.047 31.675C169.114 30.2417 169.197 28.9167 169.297 27.7C169.397 26.2 169.447 23.8833 169.447 20.75C169.447 20.45 169.389 20.1333 169.272 19.8C169.155 19.4667 168.964 19.3 168.697 19.3ZM171.872 24.475C171.955 24.7917 172.189 25.0583 172.572 25.275C172.972 25.475 173.33 25.575 173.647 25.575C174.597 25.575 175.305 25.3167 175.772 24.8C176.122 24.4333 176.347 24.075 176.447 23.725C176.564 23.375 176.622 22.8167 176.622 22.05C176.622 21.45 176.505 20.95 176.272 20.55C176.039 20.1333 175.755 19.8333 175.422 19.65C175.089 19.45 174.772 19.35 174.472 19.35C173.789 19.35 173.23 19.5583 172.797 19.975C172.38 20.375 172.114 20.925 171.997 21.625C171.914 22.175 171.872 23.125 171.872 24.475ZM184.654 24.125C184.654 24.7583 184.746 25.25 184.929 25.6C185.129 25.9333 185.379 26.1 185.679 26.1C185.846 26.1 186.004 26.0917 186.154 26.075C186.304 26.0417 186.454 26.025 186.604 26.025C186.771 26.025 186.913 26.1083 187.029 26.275C187.163 26.4417 187.229 26.625 187.229 26.825C187.229 27.225 187.038 27.5417 186.654 27.775C186.288 27.9917 185.788 28.1 185.154 28.1C184.704 28.1 184.246 27.9667 183.779 27.7C183.329 27.4167 182.954 26.9833 182.654 26.4C182.354 25.8 182.204 25.0583 182.204 24.175C182.204 22.275 182.238 20.6667 182.304 19.35C182.388 17.7833 182.429 15.8083 182.429 13.425C182.429 12.675 182.471 12.15 182.554 11.85C182.654 11.6167 182.813 11.4417 183.029 11.325C183.263 11.1917 183.504 11.125 183.754 11.125C184.004 11.125 184.221 11.1667 184.404 11.25C184.604 11.3333 184.738 11.4667 184.804 11.65C184.871 11.85 184.913 12.05 184.929 12.25C184.963 12.4333 184.979 12.7 184.979 13.05C184.979 13.7333 184.954 14.3917 184.904 15.025C184.871 15.7917 184.854 16.35 184.854 16.7C184.721 19.6333 184.654 22.1083 184.654 24.125ZM190.709 11.95C191.293 12 191.801 12.1583 192.234 12.425C192.668 12.675 192.884 13.0583 192.884 13.575C192.884 13.9583 192.701 14.2667 192.334 14.5C191.984 14.7167 191.559 14.825 191.059 14.825C190.576 14.825 190.243 14.7 190.059 14.45C189.876 14.2 189.784 13.9417 189.784 13.675C189.784 13.175 189.834 12.7583 189.934 12.425C190.051 12.0917 190.309 11.9333 190.709 11.95ZM192.709 23.025V23.75C192.709 24.4 192.726 25.0167 192.759 25.6C192.809 26.1667 192.868 26.7417 192.934 27.325C192.918 27.4917 192.793 27.6667 192.559 27.85C192.326 28.0167 192.118 28.1 191.934 28.1C191.618 28.1 191.293 28.0417 190.959 27.925C190.643 27.7917 190.451 27.6333 190.384 27.45C190.284 26.9167 190.234 26.4417 190.234 26.025C190.234 24.6583 190.193 23.125 190.109 21.425C190.043 19.925 190.009 18.875 190.009 18.275C190.009 17.975 190.159 17.7167 190.459 17.5C190.759 17.2833 191.076 17.175 191.409 17.175C191.893 17.175 192.226 17.2833 192.409 17.5C192.609 17.7167 192.709 18.0583 192.709 18.525V23.025ZM196.331 19.3C196.098 19.2667 195.906 19.175 195.756 19.025C195.623 18.8583 195.556 18.6583 195.556 18.425C195.556 18.125 195.673 17.875 195.906 17.675C195.956 17.625 196.039 17.5833 196.156 17.55C196.273 17.5 196.364 17.4583 196.431 17.425C196.798 17.3083 197.031 17.2167 197.131 17.15C197.514 16.9167 197.773 16.5333 197.906 16C198.039 15.3667 198.123 14.9333 198.156 14.7C198.189 14.3333 198.306 14.0583 198.506 13.875C198.723 13.675 198.989 13.575 199.306 13.575C199.723 13.575 200.014 13.6833 200.181 13.9C200.348 14.1167 200.431 14.5167 200.431 15.1C200.431 15.8667 200.248 16.5917 199.881 17.275C200.114 17.275 200.498 17.2583 201.031 17.225C201.831 17.1917 202.389 17.175 202.706 17.175C202.989 17.175 203.231 17.25 203.431 17.4C203.648 17.5333 203.756 17.7333 203.756 18C203.756 18.6333 203.464 19.0083 202.881 19.125C202.348 19.275 201.381 19.3667 199.981 19.4C199.864 21.0333 199.806 22.325 199.806 23.275C199.806 23.8583 199.831 24.275 199.881 24.525C199.981 25.0417 200.148 25.425 200.381 25.675C200.631 25.9083 200.998 26.025 201.481 26.025C201.714 26.025 202.064 25.9667 202.531 25.85C202.814 25.7667 203.039 25.725 203.206 25.725C203.423 25.725 203.589 25.8 203.706 25.95C203.823 26.1 203.881 26.3 203.881 26.55C203.881 27 203.589 27.375 203.006 27.675C202.423 27.9583 201.731 28.1 200.931 28.1C200.431 28.1 199.939 27.9833 199.456 27.75C198.973 27.5 198.564 27.2 198.231 26.85C198.164 26.8167 198.064 26.6333 197.931 26.3C197.814 25.9667 197.698 25.6 197.581 25.2C197.531 25 197.506 24.5167 197.506 23.75C197.506 23.0167 197.556 21.75 197.656 19.95L197.681 19.4C197.564 19.4 197.348 19.3917 197.031 19.375C196.714 19.3417 196.481 19.3167 196.331 19.3ZM211.106 11.5C211.49 11.5 211.806 11.5833 212.056 11.75C212.306 11.9167 212.431 12.1333 212.431 12.4C212.431 12.6 212.181 12.9333 211.681 13.4C211.381 13.7 211.231 13.85 211.231 13.85C210.531 14.65 209.931 15.8917 209.431 17.575C208.948 19.2417 208.706 20.9167 208.706 22.6C208.706 24.4667 208.915 25.9917 209.331 27.175C209.965 28.9083 210.523 30.05 211.006 30.6C211.09 30.7 211.198 30.8083 211.331 30.925C211.465 31.0583 211.573 31.1667 211.656 31.25C211.973 31.5333 212.215 31.7833 212.381 32C212.565 32.2167 212.656 32.425 212.656 32.625C212.656 32.8083 212.573 32.9833 212.406 33.15C212.256 33.3333 212.098 33.425 211.931 33.425C211.498 33.425 210.981 33.2417 210.381 32.875C209.781 32.5083 209.348 32.15 209.081 31.8C208.215 30.7333 207.531 29.35 207.031 27.65C206.548 25.95 206.306 24.05 206.306 21.95C206.306 20.95 206.423 19.9 206.656 18.8C206.89 17.7 207.19 16.6833 207.556 15.75C207.74 15.25 208.031 14.6667 208.431 14C208.848 13.3167 209.298 12.7333 209.781 12.25C210.265 11.75 210.706 11.5 211.106 11.5ZM221.386 18C222.752 18.3 223.886 18.8917 224.786 19.775C225.686 20.6583 226.136 21.6833 226.136 22.85C226.136 23.55 225.969 24.2333 225.636 24.9C225.102 25.9667 224.302 26.7667 223.236 27.3C222.186 27.8333 220.969 28.1 219.586 28.1C218.719 28.1 217.944 27.9417 217.261 27.625C216.577 27.2917 215.902 26.85 215.236 26.3C214.986 26.0667 214.761 25.7333 214.561 25.3C214.377 24.8667 214.286 24.5083 214.286 24.225C214.286 23.8583 214.386 23.5667 214.586 23.35C214.802 23.1167 215.086 23 215.436 23C215.786 23 216.061 23.0833 216.261 23.25C216.461 23.4167 216.702 23.6833 216.986 24.05C217.252 24.4 217.494 24.6833 217.711 24.9C217.927 25.1 218.219 25.275 218.586 25.425C218.952 25.575 219.411 25.65 219.961 25.65C221.077 25.65 221.952 25.375 222.586 24.825C223.219 24.275 223.536 23.5 223.536 22.5C223.536 22.1167 223.327 21.7333 222.911 21.35C222.494 20.95 222.102 20.6667 221.736 20.5C221.519 20.3833 221.119 20.2667 220.536 20.15C219.752 19.95 219.161 19.7583 218.761 19.575C218.377 19.375 218.186 19.0667 218.186 18.65C218.186 18.3667 218.311 18.0917 218.561 17.825C218.811 17.5417 219.186 17.1917 219.686 16.775C220.186 16.3583 220.561 16.0167 220.811 15.75C221.061 15.4667 221.186 15.1833 221.186 14.9C220.869 14.8167 220.394 14.775 219.761 14.775C219.477 14.775 219.052 14.7917 218.486 14.825C217.986 14.8583 217.602 14.875 217.336 14.875C216.736 14.875 216.219 14.775 215.786 14.575C215.369 14.375 215.161 14.1167 215.161 13.8C215.161 13.45 215.194 13.175 215.261 12.975C215.327 12.7583 215.452 12.625 215.636 12.575C215.752 12.525 215.961 12.5 216.261 12.5C217.077 12.5 217.786 12.525 218.386 12.575C219.052 12.6083 219.561 12.625 219.911 12.625L221.986 12.6C223.686 12.6 224.536 13.0083 224.536 13.825C224.536 14.4417 224.219 15.1417 223.586 15.925C222.969 16.6917 222.236 17.3833 221.386 18ZM229.534 11.5C229.95 11.5 230.392 11.7333 230.859 12.2C231.342 12.65 231.784 13.2 232.184 13.85C232.6 14.4833 232.9 15.0417 233.084 15.525C233.434 16.425 233.725 17.4667 233.959 18.65C234.192 19.8167 234.309 20.9167 234.309 21.95C234.309 24.0667 234.067 25.975 233.584 27.675C233.1 29.3583 232.425 30.7333 231.559 31.8C231.292 32.15 230.859 32.5083 230.259 32.875C229.659 33.2417 229.142 33.425 228.709 33.425C228.525 33.425 228.35 33.3333 228.184 33.15C228.034 32.9833 227.959 32.8083 227.959 32.625C227.959 32.425 228.042 32.2167 228.209 32C228.392 31.8 228.65 31.55 228.984 31.25C229.417 30.8167 229.634 30.6 229.634 30.6C230.117 30.05 230.675 28.9083 231.309 27.175C231.725 25.9917 231.934 24.4667 231.934 22.6C231.934 20.9167 231.684 19.2167 231.184 17.5C230.7 15.7667 230.109 14.5083 229.409 13.725L228.909 13.275C228.425 12.8583 228.184 12.5583 228.184 12.375C228.184 12.0917 228.309 11.875 228.559 11.725C228.809 11.575 229.134 11.5 229.534 11.5Z" fill="black"/>
<rect x="1" y="14" width="38.5455" height="38.5455" rx="3" fill="#F1F8FF"/>
<rect x="1" y="14" width="38.5455" height="38.5455" rx="3" stroke="white" stroke-width="2"/>
<rect x="1" y="14" width="38.5455" height="38.5455" rx="3" stroke="#454545" stroke-opacity="0.42" stroke-width="2"/>
<rect x="39.7441" y="14" width="38.5455" height="38.5455" rx="3" fill="#BCE5FF"/>
<rect x="39.7441" y="14" width="38.5455" height="38.5455" rx="3" stroke="white" stroke-width="2"/>
<rect x="39.7441" y="14" width="38.5455" height="38.5455" rx="3" stroke="#454545" stroke-opacity="0.42" stroke-width="2"/>
<rect x="78.4863" y="14" width="38.5455" height="38.5455" rx="3" fill="#89D2FF"/>
<rect x="78.4863" y="14" width="38.5455" height="38.5455" rx="3" stroke="white" stroke-width="2"/>
<rect x="78.4863" y="14" width="38.5455" height="38.5455" rx="3" stroke="#454545" stroke-opacity="0.61" stroke-width="2"/>
<rect x="1" y="52.7437" width="38.5455" height="38.5455" rx="3" fill="#F1F8FF"/>
<rect x="1" y="52.7437" width="38.5455" height="38.5455" rx="3" stroke="white" stroke-width="2"/>
<rect x="1" y="52.7437" width="38.5455" height="38.5455" rx="3" stroke="#454545" stroke-opacity="0.42" stroke-width="2"/>
<rect x="39.7441" y="52.7437" width="38.5455" height="38.5455" rx="3" fill="#BCE5FF"/>
<rect x="39.7441" y="52.7437" width="38.5455" height="38.5455" rx="3" stroke="white" stroke-width="2"/>
<rect x="39.7441" y="52.7437" width="38.5455" height="38.5455" rx="3" stroke="#454545" stroke-opacity="0.42" stroke-width="2"/>
<rect x="78.4863" y="52.7437" width="38.5455" height="38.5455" rx="3" fill="#89D2FF"/>
<rect x="78.4863" y="52.7437" width="38.5455" height="38.5455" rx="3" stroke="white" stroke-width="2"/>
<rect x="78.4863" y="52.7437" width="38.5455" height="38.5455" rx="3" stroke="#454545" stroke-opacity="0.61" stroke-width="2"/>
<path d="M22.7521 28.5634V43.1089H20.1172V31.1274H20.032L16.63 33.3006V30.8859L20.245 28.5634H22.7521Z" fill="black"/>
<path d="M97.8335 43.3078C96.8107 43.3078 95.9017 43.1326 95.1062 42.7822C94.3155 42.4318 93.6905 41.9441 93.2312 41.3191C92.7719 40.6941 92.5281 39.972 92.4997 39.1529H95.1701C95.1938 39.5459 95.324 39.8892 95.5607 40.1828C95.7975 40.4716 96.1124 40.6965 96.5053 40.8575C96.8983 41.0185 97.3387 41.0989 97.8264 41.0989C98.3472 41.0989 98.8088 41.009 99.2113 40.8291C99.6138 40.6444 99.9286 40.3887 100.156 40.062C100.383 39.7353 100.494 39.3589 100.49 38.9328C100.494 38.4924 100.381 38.1042 100.149 37.768C99.9168 37.4318 99.5806 37.169 99.1403 36.9796C98.7047 36.7902 98.1791 36.6955 97.5636 36.6955H96.2781V34.6643H97.5636C98.0702 34.6643 98.5129 34.5767 98.8917 34.4015C99.2752 34.2263 99.5759 33.9801 99.7937 33.6629C100.012 33.3409 100.118 32.9692 100.113 32.5478C100.118 32.1359 100.026 31.7784 99.8363 31.4754C99.6517 31.1676 99.3889 30.9285 99.048 30.758C98.7118 30.5876 98.3164 30.5024 97.8619 30.5024C97.4168 30.5024 97.0049 30.5828 96.6261 30.7438C96.2473 30.9048 95.9419 31.1345 95.7099 31.4328C95.4779 31.7263 95.3548 32.0767 95.3406 32.4839H92.8051C92.824 31.6695 93.0584 30.9545 93.5082 30.339C93.9627 29.7187 94.5688 29.2358 95.3264 28.8901C96.0839 28.5398 96.9338 28.3646 97.8761 28.3646C98.8467 28.3646 99.6895 28.5469 100.404 28.9114C101.124 29.2713 101.681 29.7566 102.074 30.3674C102.467 30.9782 102.663 31.6529 102.663 32.3916C102.668 33.2107 102.426 33.8972 101.939 34.4512C101.456 35.0052 100.821 35.3674 100.035 35.5379V35.6515C101.058 35.7935 101.842 36.1723 102.386 36.7879C102.935 37.3987 103.208 38.1586 103.203 39.0677C103.203 39.8821 102.971 40.6113 102.507 41.2552C102.047 41.8944 101.413 42.3963 100.603 42.7609C99.7984 43.1255 98.8751 43.3078 97.8335 43.3078Z" fill="black"/>
<path d="M54.1719 43.1089V41.2055L59.2216 36.2552C59.7046 35.7675 60.107 35.3343 60.429 34.9555C60.751 34.5767 60.9924 34.2097 61.1534 33.8546C61.3144 33.4995 61.3949 33.1207 61.3949 32.7183C61.3949 32.259 61.2907 31.866 61.0824 31.5393C60.8741 31.2078 60.5876 30.9522 60.223 30.7722C59.8584 30.5923 59.4441 30.5024 58.9801 30.5024C58.5019 30.5024 58.0829 30.6018 57.723 30.8006C57.3632 30.9948 57.0838 31.2718 56.885 31.6316C56.6908 31.9915 56.5938 32.42 56.5938 32.9171H54.0867C54.0867 31.9938 54.2974 31.1913 54.7188 30.5095C55.1402 29.8276 55.7202 29.2997 56.4588 28.9256C57.2022 28.5516 58.0545 28.3646 59.0156 28.3646C59.991 28.3646 60.848 28.5469 61.5867 28.9114C62.3253 29.276 62.8982 29.7756 63.3054 30.41C63.7173 31.0445 63.9233 31.7689 63.9233 32.5833C63.9233 33.1278 63.8191 33.6629 63.6108 34.1884C63.4025 34.714 63.0355 35.2964 62.51 35.9356C61.9891 36.5748 61.2576 37.3489 60.3154 38.258L57.8083 40.8078V40.9072H64.1435V43.1089H54.1719Z" fill="black"/>
<path d="M22.7521 67.3071V81.8525H20.1172V69.871H20.032L16.63 72.0443V69.6295L20.245 67.3071H22.7521Z" fill="black"/>
<path d="M97.8335 82.0514C96.8107 82.0514 95.9017 81.8762 95.1062 81.5258C94.3155 81.1755 93.6905 80.6878 93.2312 80.0628C92.7719 79.4378 92.5281 78.7157 92.4997 77.8966H95.1701C95.1938 78.2896 95.324 78.6328 95.5607 78.9264C95.7975 79.2152 96.1124 79.4401 96.5053 79.6011C96.8983 79.7621 97.3387 79.8426 97.8264 79.8426C98.3472 79.8426 98.8088 79.7526 99.2113 79.5727C99.6138 79.3881 99.9286 79.1324 100.156 78.8057C100.383 78.479 100.494 78.1025 100.49 77.6764C100.494 77.2361 100.381 76.8478 100.149 76.5116C99.9168 76.1755 99.5806 75.9127 99.1403 75.7233C98.7047 75.5339 98.1791 75.4392 97.5636 75.4392H96.2781V73.4079H97.5636C98.0702 73.4079 98.5129 73.3203 98.8917 73.1452C99.2752 72.97 99.5759 72.7238 99.7937 72.4065C100.012 72.0845 100.118 71.7129 100.113 71.2915C100.118 70.8795 100.026 70.522 99.8363 70.219C99.6517 69.9113 99.3889 69.6721 99.048 69.5017C98.7118 69.3312 98.3164 69.246 97.8619 69.246C97.4168 69.246 97.0049 69.3265 96.6261 69.4875C96.2473 69.6485 95.9419 69.8781 95.7099 70.1764C95.4779 70.47 95.3548 70.8203 95.3406 71.2275H92.8051C92.824 70.4131 93.0584 69.6982 93.5082 69.0827C93.9627 68.4624 94.5688 67.9794 95.3264 67.6338C96.0839 67.2834 96.9338 67.1082 97.8761 67.1082C98.8467 67.1082 99.6895 67.2905 100.404 67.6551C101.124 68.0149 101.681 68.5003 102.074 69.1111C102.467 69.7219 102.663 70.3966 102.663 71.1352C102.668 71.9543 102.426 72.6409 101.939 73.1949C101.456 73.7488 100.821 74.1111 100.035 74.2815V74.3952C101.058 74.5372 101.842 74.916 102.386 75.5315C102.935 76.1423 103.208 76.9023 103.203 77.8113C103.203 78.6257 102.971 79.3549 102.507 79.9988C102.047 80.6381 101.413 81.1399 100.603 81.5045C99.7984 81.8691 98.8751 82.0514 97.8335 82.0514Z" fill="black"/>
<path d="M54.1719 81.8525V79.9491L59.2216 74.9988C59.7046 74.5112 60.107 74.0779 60.429 73.6991C60.751 73.3203 60.9924 72.9534 61.1534 72.5983C61.3144 72.2432 61.3949 71.8644 61.3949 71.4619C61.3949 71.0026 61.2907 70.6096 61.0824 70.2829C60.8741 69.9515 60.5876 69.6958 60.223 69.5159C59.8584 69.336 59.4441 69.246 58.9801 69.246C58.5019 69.246 58.0829 69.3454 57.723 69.5443C57.3632 69.7384 57.0838 70.0154 56.885 70.3753C56.6908 70.7351 56.5938 71.1636 56.5938 71.6608H54.0867C54.0867 70.7375 54.2974 69.9349 54.7188 69.2531C55.1402 68.5713 55.7202 68.0434 56.4588 67.6693C57.2022 67.2952 58.0545 67.1082 59.0156 67.1082C59.991 67.1082 60.848 67.2905 61.5867 67.6551C62.3253 68.0197 62.8982 68.5192 63.3054 69.1537C63.7173 69.7881 63.9233 70.5126 63.9233 71.327C63.9233 71.8715 63.8191 72.4065 63.6108 72.9321C63.4025 73.4577 63.0355 74.04 62.51 74.6792C61.9891 75.3184 61.2576 76.0926 60.3154 77.0017L57.8083 79.5514V79.6508H64.1435V81.8525H54.1719Z" fill="black"/>
<path d="M21.9242 108.545L21.9242 118H20.4931L20.4931 109.977H20.4377L18.1756 111.454V110.087L20.5346 108.545H21.9242Z" fill="black"/>
<path d="M9.5 100.25L2 96.6699L2 105.33L9.5 101.75L9.5 100.25ZM30.5 101.75L38 105.33L38 96.6699L30.5 100.25L30.5 101.75ZM8.75 101.75L31.25 101.75L31.25 100.25L8.75 100.25L8.75 101.75Z" fill="black"/>
<path d="M99.9242 108.545V118H98.4931V109.977H98.4377L96.1756 111.454V110.087L98.5346 108.545H99.9242Z" fill="black"/>
<path d="M87.5 100.25L80 96.6699L80 105.33L87.5 101.75L87.5 100.25ZM108.5 101.75L116 105.33L116 96.6699L108.5 100.25L108.5 101.75ZM86.75 101.75L109.25 101.75L109.25 100.25L86.75 100.25L86.75 101.75Z" fill="black"/>
<path d="M60.9242 108.545V118H59.4931V109.977H59.4377L57.1756 111.454V110.087L59.5346 108.545H60.9242Z" fill="black"/>
<path d="M48.5 100.25L41 96.6699L41 105.33L48.5 101.75L48.5 100.25ZM69.5 101.75L77 105.33L77 96.6699L69.5 100.25L69.5 101.75ZM47.75 101.75L70.25 101.75L70.25 100.25L47.75 100.25L47.75 101.75Z" fill="black"/>
</svg>
