<svg width="440" height="369" viewBox="0 0 440 369" fill="none" xmlns="http://www.w3.org/2000/svg">
<rect width="13" height="63" rx="2" transform="matrix(-4.37114e-08 -1 -1 4.37114e-08 245 317)" fill="#E04343"/>
<path d="M265.375 311.879C266.074 311.501 266.074 310.499 265.375 310.121L244.476 298.809C243.81 298.448 243 298.93 243 299.688L243 322.312C243 323.07 243.81 323.552 244.476 323.191L265.375 311.879Z" fill="#E04343"/>
<path d="M190.593 281.728C190.209 282.379 189.617 282.981 188.817 283.536C188.017 284.08 187.083 284.507 186.017 284.816L185.153 283.52C185.697 283.381 186.23 283.184 186.753 282.928C187.275 282.672 187.761 282.368 188.209 282.016C188.635 281.664 188.982 281.28 189.249 280.864C189.526 280.437 189.665 279.968 189.665 279.456V278.016H191.521V279.456C191.521 279.968 191.654 280.437 191.921 280.864C192.187 281.28 192.534 281.664 192.961 282.016C193.387 282.368 193.867 282.672 194.401 282.928C194.945 283.184 195.489 283.381 196.033 283.52L195.185 284.816C194.651 284.656 194.15 284.469 193.681 284.256C193.211 284.032 192.779 283.787 192.385 283.52C191.99 283.253 191.638 282.971 191.329 282.672C191.03 282.363 190.785 282.048 190.593 281.728ZM189.681 291.984V287.392H183.825V285.952H197.265V287.392H191.425V291.984H189.681ZM203.392 283.92C203.509 283.909 203.626 283.904 203.744 283.904C203.872 283.904 203.994 283.899 204.112 283.888L204.144 279.808H202.544L202.56 283.968C202.698 283.957 202.837 283.952 202.976 283.952C203.114 283.941 203.253 283.931 203.392 283.92ZM207.008 287.584C206.72 287.584 206.448 287.632 206.192 287.728C205.936 287.813 205.712 287.936 205.52 288.096C205.328 288.256 205.173 288.448 205.056 288.672C204.938 288.885 204.88 289.12 204.88 289.376C204.88 289.653 204.938 289.899 205.056 290.112C205.173 290.336 205.328 290.523 205.52 290.672C205.712 290.832 205.936 290.955 206.192 291.04C206.448 291.125 206.72 291.168 207.008 291.168C207.296 291.168 207.568 291.125 207.824 291.04C208.08 290.955 208.304 290.832 208.496 290.672C208.688 290.523 208.842 290.336 208.96 290.112C209.077 289.899 209.136 289.653 209.136 289.376C209.136 289.12 209.077 288.885 208.96 288.672C208.842 288.448 208.688 288.256 208.496 288.096C208.304 287.936 208.08 287.813 207.824 287.728C207.568 287.632 207.296 287.584 207.008 287.584ZM209.376 281.376H206.736V280.032H209.376V277.648H211.104V286.096H209.376V283.328H206.736V281.984H209.376V281.376ZM207.008 286.096C207.498 286.096 207.973 286.171 208.432 286.32C208.901 286.469 209.317 286.683 209.68 286.96C210.042 287.237 210.33 287.584 210.544 288C210.768 288.405 210.88 288.864 210.88 289.376C210.88 289.888 210.768 290.347 210.544 290.752C210.33 291.168 210.042 291.515 209.68 291.792C209.317 292.069 208.901 292.283 208.432 292.432C207.973 292.581 207.498 292.656 207.008 292.656C206.517 292.656 206.037 292.581 205.568 292.432C205.109 292.283 204.698 292.069 204.336 291.792C203.973 291.515 203.68 291.168 203.456 290.752C203.242 290.347 203.136 289.888 203.136 289.376C203.136 288.864 203.242 288.405 203.456 288C203.68 287.584 203.973 287.237 204.336 286.96C204.698 286.683 205.109 286.469 205.568 286.32C206.037 286.171 206.517 286.096 207.008 286.096ZM199.616 279.808V278.32H206.976V279.808H205.696L205.664 283.776C206.037 283.744 206.394 283.707 206.736 283.664C207.088 283.621 207.418 283.573 207.728 283.52L207.904 284.992C207.349 285.077 206.746 285.152 206.096 285.216C205.456 285.269 204.757 285.317 204 285.36C203.253 285.403 202.49 285.44 201.712 285.472C200.944 285.493 200.16 285.509 199.36 285.52L199.2 284.032C199.445 284.043 199.717 284.048 200.016 284.048C200.314 284.037 200.634 284.027 200.976 284.016L200.944 279.808H199.616ZM226.227 290.752H219.043L219.059 289.328L221.683 286.368C223.379 284.437 224.227 282.949 224.227 281.904C224.227 281.413 224.067 281.019 223.747 280.72C223.437 280.421 223.043 280.272 222.563 280.272C221.731 280.272 220.781 280.576 219.715 281.184L219.411 279.536C220.52 278.971 221.544 278.688 222.483 278.688C223.517 278.688 224.339 278.944 224.947 279.456C225.629 280.011 225.971 280.832 225.971 281.92C225.971 283.136 224.984 284.907 223.011 287.232L221.363 289.168H226.227V290.752ZM238.186 282.416V281.104H232.698V282.416H238.186ZM240.202 292.112H230.858V288.048H232.586V290.64H240.202V292.112ZM234.89 289.264V286.624H228.714V285.184H242.154V286.624H236.634V289.264H234.89ZM230.97 283.872V278.016H232.698V279.632H238.186V278.016H239.898V283.872H230.97ZM244.169 281.024V279.616H252.489V281.024H244.169ZM245.865 279.056V277.616H250.777V279.056H245.865ZM247.401 292.64V289.072H253.881V288.336H247.385V286.912H255.577V290.448H249.081V291.2H255.929V292.64H247.401ZM257.833 283.216H255.577V286.368H253.849V277.648H255.577V281.744H257.833V283.216ZM249.785 283.792C249.785 283.472 249.641 283.216 249.353 283.024C249.075 282.821 248.734 282.72 248.329 282.72C247.923 282.72 247.577 282.821 247.289 283.024C247.011 283.216 246.873 283.472 246.873 283.792C246.873 284.112 247.011 284.373 247.289 284.576C247.577 284.779 247.923 284.88 248.329 284.88C248.734 284.88 249.075 284.779 249.353 284.576C249.641 284.373 249.785 284.112 249.785 283.792ZM251.385 283.792C251.385 284.133 251.31 284.453 251.161 284.752C251.011 285.04 250.798 285.296 250.521 285.52C250.254 285.733 249.934 285.904 249.561 286.032C249.187 286.149 248.777 286.208 248.329 286.208C247.881 286.208 247.47 286.149 247.097 286.032C246.723 285.904 246.398 285.733 246.121 285.52C245.854 285.296 245.646 285.04 245.497 284.752C245.347 284.453 245.273 284.133 245.273 283.792C245.273 283.451 245.347 283.136 245.497 282.848C245.646 282.56 245.854 282.309 246.121 282.096C246.398 281.883 246.723 281.717 247.097 281.6C247.47 281.472 247.881 281.408 248.329 281.408C248.777 281.408 249.187 281.472 249.561 281.6C249.934 281.717 250.254 281.883 250.521 282.096C250.798 282.309 251.011 282.56 251.161 282.848C251.31 283.136 251.385 283.451 251.385 283.792Z" fill="black"/>
<rect x="395" y="268" width="38.5455" height="38.5455" rx="3" fill="#BCE5FF"/>
<rect x="395" y="268" width="38.5455" height="38.5455" rx="3" stroke="white" stroke-width="2"/>
<rect x="395" y="268" width="38.5455" height="38.5455" rx="3" stroke="#454545" stroke-opacity="0.42" stroke-width="2"/>
<rect x="395" y="306.744" width="38.5455" height="38.5455" rx="3" fill="#BCE5FF"/>
<rect x="395" y="306.744" width="38.5455" height="38.5455" rx="3" stroke="white" stroke-width="2"/>
<rect x="395" y="306.744" width="38.5455" height="38.5455" rx="3" stroke="#454545" stroke-opacity="0.42" stroke-width="2"/>
<path d="M413.841 297.308C412.819 297.308 411.909 297.133 411.114 296.782C410.323 296.432 409.698 295.944 409.239 295.319C408.78 294.694 408.536 293.972 408.507 293.153H411.178C411.202 293.546 411.332 293.889 411.569 294.183C411.805 294.472 412.12 294.696 412.513 294.857C412.906 295.018 413.346 295.099 413.834 295.099C414.355 295.099 414.817 295.009 415.219 294.829C415.622 294.644 415.936 294.389 416.164 294.062C416.391 293.735 416.502 293.359 416.498 292.933C416.502 292.492 416.389 292.104 416.157 291.768C415.925 291.432 415.588 291.169 415.148 290.98C414.712 290.79 414.187 290.696 413.571 290.696H412.286V288.664H413.571C414.078 288.664 414.521 288.577 414.9 288.401C415.283 288.226 415.584 287.98 415.802 287.663C416.019 287.341 416.126 286.969 416.121 286.548C416.126 286.136 416.034 285.778 415.844 285.475C415.659 285.168 415.397 284.928 415.056 284.758C414.72 284.588 414.324 284.502 413.87 284.502C413.425 284.502 413.013 284.583 412.634 284.744C412.255 284.905 411.95 285.134 411.718 285.433C411.486 285.726 411.363 286.077 411.348 286.484H408.813C408.832 285.669 409.066 284.955 409.516 284.339C409.971 283.719 410.577 283.236 411.334 282.89C412.092 282.54 412.942 282.365 413.884 282.365C414.855 282.365 415.697 282.547 416.412 282.911C417.132 283.271 417.688 283.757 418.081 284.367C418.474 284.978 418.671 285.653 418.671 286.392C418.676 287.211 418.434 287.897 417.946 288.451C417.463 289.005 416.829 289.367 416.043 289.538V289.651C417.066 289.794 417.849 290.172 418.394 290.788C418.943 291.399 419.215 292.159 419.211 293.068C419.211 293.882 418.979 294.611 418.515 295.255C418.055 295.894 417.421 296.396 416.611 296.761C415.806 297.125 414.883 297.308 413.841 297.308Z" fill="black"/>
<path d="M413.841 336.051C412.819 336.051 411.909 335.876 411.114 335.526C410.323 335.175 409.698 334.688 409.239 334.063C408.78 333.438 408.536 332.716 408.507 331.897H411.178C411.202 332.29 411.332 332.633 411.569 332.926C411.805 333.215 412.12 333.44 412.513 333.601C412.906 333.762 413.346 333.843 413.834 333.843C414.355 333.843 414.817 333.753 415.219 333.573C415.622 333.388 415.936 333.132 416.164 332.806C416.391 332.479 416.502 332.103 416.498 331.676C416.502 331.236 416.389 330.848 416.157 330.512C415.925 330.175 415.588 329.913 415.148 329.723C414.712 329.534 414.187 329.439 413.571 329.439H412.286V327.408H413.571C414.078 327.408 414.521 327.32 414.9 327.145C415.283 326.97 415.584 326.724 415.802 326.407C416.019 326.085 416.126 325.713 416.121 325.291C416.126 324.88 416.034 324.522 415.844 324.219C415.659 323.911 415.397 323.672 415.056 323.502C414.72 323.331 414.324 323.246 413.87 323.246C413.425 323.246 413.013 323.326 412.634 323.487C412.255 323.648 411.95 323.878 411.718 324.176C411.486 324.47 411.363 324.82 411.348 325.228H408.813C408.832 324.413 409.066 323.698 409.516 323.083C409.971 322.462 410.577 321.979 411.334 321.634C412.092 321.283 412.942 321.108 413.884 321.108C414.855 321.108 415.697 321.291 416.412 321.655C417.132 322.015 417.688 322.5 418.081 323.111C418.474 323.722 418.671 324.397 418.671 325.135C418.676 325.954 418.434 326.641 417.946 327.195C417.463 327.749 416.829 328.111 416.043 328.282V328.395C417.066 328.537 417.849 328.916 418.394 329.532C418.943 330.142 419.215 330.902 419.211 331.811C419.211 332.626 418.979 333.355 418.515 333.999C418.055 334.638 417.421 335.14 416.611 335.505C415.806 335.869 414.883 336.051 413.841 336.051Z" fill="black"/>
<rect x="297" y="268" width="38.5455" height="38.5455" rx="3" fill="#F1F8FF"/>
<rect x="297" y="268" width="38.5455" height="38.5455" rx="3" stroke="white" stroke-width="2"/>
<rect x="297" y="268" width="38.5455" height="38.5455" rx="3" stroke="#454545" stroke-opacity="0.42" stroke-width="2"/>
<rect x="335.744" y="268" width="38.5455" height="38.5455" rx="3" fill="#F1F8FF"/>
<rect x="335.744" y="268" width="38.5455" height="38.5455" rx="3" stroke="white" stroke-width="2"/>
<rect x="335.744" y="268" width="38.5455" height="38.5455" rx="3" stroke="#454545" stroke-opacity="0.42" stroke-width="2"/>
<rect x="297" y="306.744" width="38.5455" height="38.5455" rx="3" fill="#F1F8FF"/>
<rect x="297" y="306.744" width="38.5455" height="38.5455" rx="3" stroke="white" stroke-width="2"/>
<rect x="297" y="306.744" width="38.5455" height="38.5455" rx="3" stroke="#454545" stroke-opacity="0.42" stroke-width="2"/>
<rect x="335.744" y="306.744" width="38.5455" height="38.5455" rx="3" fill="#F1F8FF"/>
<rect x="335.744" y="306.744" width="38.5455" height="38.5455" rx="3" stroke="white" stroke-width="2"/>
<rect x="335.744" y="306.744" width="38.5455" height="38.5455" rx="3" stroke="#454545" stroke-opacity="0.42" stroke-width="2"/>
<path d="M318.752 282.563V297.109H316.117V285.127H316.032L312.63 287.301V284.886L316.245 282.563H318.752Z" fill="black"/>
<path d="M350.172 297.109V295.205L355.222 290.255C355.705 289.768 356.107 289.334 356.429 288.955C356.751 288.577 356.992 288.21 357.153 287.855C357.314 287.5 357.395 287.121 357.395 286.718C357.395 286.259 357.291 285.866 357.082 285.539C356.874 285.208 356.588 284.952 356.223 284.772C355.858 284.592 355.444 284.502 354.98 284.502C354.502 284.502 354.083 284.602 353.723 284.801C353.363 284.995 353.084 285.272 352.885 285.632C352.691 285.991 352.594 286.42 352.594 286.917H350.087C350.087 285.994 350.297 285.191 350.719 284.509C351.14 283.828 351.72 283.3 352.459 282.926C353.202 282.552 354.054 282.365 355.016 282.365C355.991 282.365 356.848 282.547 357.587 282.911C358.325 283.276 358.898 283.776 359.305 284.41C359.717 285.044 359.923 285.769 359.923 286.583C359.923 287.128 359.819 287.663 359.611 288.188C359.402 288.714 359.036 289.296 358.51 289.936C357.989 290.575 357.258 291.349 356.315 292.258L353.808 294.808V294.907H360.143V297.109H350.172Z" fill="black"/>
<path d="M318.752 321.307V335.853H316.117V323.871H316.032L312.63 326.044V323.63L316.245 321.307H318.752Z" fill="black"/>
<path d="M350.172 335.853V333.949L355.222 328.999C355.705 328.511 356.107 328.078 356.429 327.699C356.751 327.32 356.992 326.953 357.153 326.598C357.314 326.243 357.395 325.864 357.395 325.462C357.395 325.003 357.291 324.61 357.082 324.283C356.874 323.951 356.588 323.696 356.223 323.516C355.858 323.336 355.444 323.246 354.98 323.246C354.502 323.246 354.083 323.345 353.723 323.544C353.363 323.738 353.084 324.015 352.885 324.375C352.691 324.735 352.594 325.164 352.594 325.661H350.087C350.087 324.737 350.297 323.935 350.719 323.253C351.14 322.571 351.72 322.043 352.459 321.669C353.202 321.295 354.054 321.108 355.016 321.108C355.991 321.108 356.848 321.291 357.587 321.655C358.325 322.02 358.898 322.519 359.305 323.154C359.717 323.788 359.923 324.513 359.923 325.327C359.923 325.871 359.819 326.407 359.611 326.932C359.402 327.458 359.036 328.04 358.51 328.679C357.989 329.318 357.258 330.093 356.315 331.002L353.808 333.551V333.651H360.143V335.853H350.172Z" fill="black"/>
<rect x="28" y="260" width="38.5455" height="38.5455" rx="3" fill="#F1F8FF"/>
<rect x="28" y="260" width="38.5455" height="38.5455" rx="3" stroke="white" stroke-width="2"/>
<rect x="28" y="260" width="38.5455" height="38.5455" rx="3" stroke="#454545" stroke-opacity="0.42" stroke-width="2"/>
<rect x="66.7441" y="260" width="38.5455" height="38.5455" rx="3" fill="#F1F8FF"/>
<rect x="66.7441" y="260" width="38.5455" height="38.5455" rx="3" stroke="white" stroke-width="2"/>
<rect x="66.7441" y="260" width="38.5455" height="38.5455" rx="3" stroke="#454545" stroke-opacity="0.42" stroke-width="2"/>
<rect x="105.486" y="260" width="38.5455" height="38.5455" rx="3" fill="#BCE5FF"/>
<rect x="105.486" y="260" width="38.5455" height="38.5455" rx="3" stroke="white" stroke-width="2"/>
<rect x="105.486" y="260" width="38.5455" height="38.5455" rx="3" stroke="#454545" stroke-opacity="0.61" stroke-width="2"/>
<rect x="28" y="298.744" width="38.5455" height="38.5455" rx="3" fill="#F1F8FF"/>
<rect x="28" y="298.744" width="38.5455" height="38.5455" rx="3" stroke="white" stroke-width="2"/>
<rect x="28" y="298.744" width="38.5455" height="38.5455" rx="3" stroke="#454545" stroke-opacity="0.42" stroke-width="2"/>
<rect x="66.7441" y="298.744" width="38.5455" height="38.5455" rx="3" fill="#F1F8FF"/>
<rect x="66.7441" y="298.744" width="38.5455" height="38.5455" rx="3" stroke="white" stroke-width="2"/>
<rect x="66.7441" y="298.744" width="38.5455" height="38.5455" rx="3" stroke="#454545" stroke-opacity="0.42" stroke-width="2"/>
<rect x="105.486" y="298.744" width="38.5455" height="38.5455" rx="3" fill="#BCE5FF"/>
<rect x="105.486" y="298.744" width="38.5455" height="38.5455" rx="3" stroke="white" stroke-width="2"/>
<rect x="105.486" y="298.744" width="38.5455" height="38.5455" rx="3" stroke="#454545" stroke-opacity="0.61" stroke-width="2"/>
<path d="M49.7521 274.563V289.109H47.1172V277.127H47.032L43.63 279.301V276.886L47.245 274.563H49.7521Z" fill="black"/>
<path d="M124.833 289.308C123.811 289.308 122.902 289.133 122.106 288.782C121.315 288.432 120.69 287.944 120.231 287.319C119.772 286.694 119.528 285.972 119.5 285.153H122.17C122.194 285.546 122.324 285.889 122.561 286.183C122.797 286.472 123.112 286.696 123.505 286.857C123.898 287.018 124.339 287.099 124.826 287.099C125.347 287.099 125.809 287.009 126.211 286.829C126.614 286.644 126.929 286.389 127.156 286.062C127.383 285.735 127.494 285.359 127.49 284.933C127.494 284.492 127.381 284.104 127.149 283.768C126.917 283.432 126.581 283.169 126.14 282.98C125.705 282.79 125.179 282.696 124.564 282.696H123.278V280.664H124.564C125.07 280.664 125.513 280.577 125.892 280.401C126.275 280.226 126.576 279.98 126.794 279.663C127.012 279.341 127.118 278.969 127.113 278.548C127.118 278.136 127.026 277.778 126.836 277.475C126.652 277.168 126.389 276.928 126.048 276.758C125.712 276.588 125.316 276.502 124.862 276.502C124.417 276.502 124.005 276.583 123.626 276.744C123.247 276.905 122.942 277.134 122.71 277.433C122.478 277.726 122.355 278.077 122.341 278.484H119.805C119.824 277.669 120.058 276.955 120.508 276.339C120.963 275.719 121.569 275.236 122.326 274.89C123.084 274.54 123.934 274.365 124.876 274.365C125.847 274.365 126.69 274.547 127.404 274.911C128.124 275.271 128.681 275.757 129.074 276.367C129.467 276.978 129.663 277.653 129.663 278.392C129.668 279.211 129.426 279.897 128.939 280.451C128.456 281.005 127.821 281.367 127.035 281.538V281.651C128.058 281.794 128.842 282.172 129.386 282.788C129.935 283.399 130.208 284.159 130.203 285.068C130.203 285.882 129.971 286.611 129.507 287.255C129.047 287.894 128.413 288.396 127.603 288.761C126.798 289.125 125.875 289.308 124.833 289.308Z" fill="black"/>
<path d="M81.1719 289.109V287.205L86.2216 282.255C86.7046 281.768 87.107 281.334 87.429 280.955C87.751 280.577 87.9924 280.21 88.1534 279.855C88.3144 279.5 88.3949 279.121 88.3949 278.718C88.3949 278.259 88.2907 277.866 88.0824 277.539C87.8741 277.208 87.5876 276.952 87.223 276.772C86.8584 276.592 86.4441 276.502 85.9801 276.502C85.5019 276.502 85.0829 276.602 84.723 276.801C84.3632 276.995 84.0838 277.272 83.885 277.632C83.6908 277.991 83.5938 278.42 83.5938 278.917H81.0867C81.0867 277.994 81.2974 277.191 81.7188 276.509C82.1402 275.828 82.7202 275.3 83.4588 274.926C84.2022 274.552 85.0545 274.365 86.0156 274.365C86.991 274.365 87.848 274.547 88.5867 274.911C89.3253 275.276 89.8982 275.776 90.3054 276.41C90.7173 277.044 90.9233 277.769 90.9233 278.583C90.9233 279.128 90.8191 279.663 90.6108 280.188C90.4025 280.714 90.0355 281.296 89.51 281.936C88.9891 282.575 88.2576 283.349 87.3154 284.258L84.8083 286.808V286.907H91.1435V289.109H81.1719Z" fill="black"/>
<path d="M49.7521 313.307V327.853H47.1172V315.871H47.032L43.63 318.044V315.63L47.245 313.307H49.7521Z" fill="black"/>
<path d="M124.833 328.051C123.811 328.051 122.902 327.876 122.106 327.526C121.315 327.175 120.69 326.688 120.231 326.063C119.772 325.438 119.528 324.716 119.5 323.897H122.17C122.194 324.29 122.324 324.633 122.561 324.926C122.797 325.215 123.112 325.44 123.505 325.601C123.898 325.762 124.339 325.843 124.826 325.843C125.347 325.843 125.809 325.753 126.211 325.573C126.614 325.388 126.929 325.132 127.156 324.806C127.383 324.479 127.494 324.103 127.49 323.676C127.494 323.236 127.381 322.848 127.149 322.512C126.917 322.175 126.581 321.913 126.14 321.723C125.705 321.534 125.179 321.439 124.564 321.439H123.278V319.408H124.564C125.07 319.408 125.513 319.32 125.892 319.145C126.275 318.97 126.576 318.724 126.794 318.407C127.012 318.085 127.118 317.713 127.113 317.291C127.118 316.88 127.026 316.522 126.836 316.219C126.652 315.911 126.389 315.672 126.048 315.502C125.712 315.331 125.316 315.246 124.862 315.246C124.417 315.246 124.005 315.326 123.626 315.487C123.247 315.648 122.942 315.878 122.71 316.176C122.478 316.47 122.355 316.82 122.341 317.228H119.805C119.824 316.413 120.058 315.698 120.508 315.083C120.963 314.462 121.569 313.979 122.326 313.634C123.084 313.283 123.934 313.108 124.876 313.108C125.847 313.108 126.69 313.291 127.404 313.655C128.124 314.015 128.681 314.5 129.074 315.111C129.467 315.722 129.663 316.397 129.663 317.135C129.668 317.954 129.426 318.641 128.939 319.195C128.456 319.749 127.821 320.111 127.035 320.282V320.395C128.058 320.537 128.842 320.916 129.386 321.532C129.935 322.142 130.208 322.902 130.203 323.811C130.203 324.626 129.971 325.355 129.507 325.999C129.047 326.638 128.413 327.14 127.603 327.505C126.798 327.869 125.875 328.051 124.833 328.051Z" fill="black"/>
<path d="M81.1719 327.853V325.949L86.2216 320.999C86.7046 320.511 87.107 320.078 87.429 319.699C87.751 319.32 87.9924 318.953 88.1534 318.598C88.3144 318.243 88.3949 317.864 88.3949 317.462C88.3949 317.003 88.2907 316.61 88.0824 316.283C87.8741 315.951 87.5876 315.696 87.223 315.516C86.8584 315.336 86.4441 315.246 85.9801 315.246C85.5019 315.246 85.0829 315.345 84.723 315.544C84.3632 315.738 84.0838 316.015 83.885 316.375C83.6908 316.735 83.5938 317.164 83.5938 317.661H81.0867C81.0867 316.737 81.2974 315.935 81.7188 315.253C82.1402 314.571 82.7202 314.043 83.4588 313.669C84.2022 313.295 85.0545 313.108 86.0156 313.108C86.991 313.108 87.848 313.291 88.5867 313.655C89.3253 314.02 89.8982 314.519 90.3054 315.154C90.7173 315.788 90.9233 316.513 90.9233 317.327C90.9233 317.871 90.8191 318.407 90.6108 318.932C90.4025 319.458 90.0355 320.04 89.51 320.679C88.9891 321.318 88.2576 322.093 87.3154 323.002L84.8083 325.551V325.651H91.1435V327.853H81.1719Z" fill="black"/>
<path d="M126.924 354.545V364H125.493V355.977H125.438L123.176 357.454V356.087L125.535 354.545H126.924Z" fill="black"/>
<path d="M114.5 346.25L107 342.67L107 351.33L114.5 347.75L114.5 346.25ZM135.5 347.75L143 351.33L143 342.67L135.5 346.25L135.5 347.75ZM113.75 347.75L136.25 347.75L136.25 346.25L113.75 346.25L113.75 347.75Z" fill="black"/>
<path d="M62.4231 364V362.966L65.6223 359.651C65.964 359.291 66.2456 358.976 66.4672 358.705C66.6918 358.431 66.8596 358.171 66.9703 357.925C67.0811 357.679 67.1365 357.417 67.1365 357.14C67.1365 356.826 67.0627 356.555 66.915 356.327C66.7672 356.097 66.5656 355.92 66.3102 355.797C66.0547 355.67 65.767 355.607 65.4469 355.607C65.1084 355.607 64.8129 355.676 64.5605 355.815C64.3082 355.953 64.1143 356.149 63.9789 356.401C63.8435 356.654 63.7757 356.949 63.7757 357.288H62.4139C62.4139 356.712 62.5462 356.209 62.8109 355.778C63.0756 355.347 63.4387 355.013 63.9004 354.776C64.362 354.536 64.8868 354.416 65.4746 354.416C66.0686 354.416 66.5918 354.535 67.0442 354.772C67.4997 355.006 67.8552 355.326 68.1106 355.732C68.3661 356.135 68.4938 356.591 68.4938 357.098C68.4938 357.449 68.4276 357.792 68.2953 358.128C68.166 358.463 67.9398 358.837 67.6167 359.25C67.2935 359.659 66.8442 360.156 66.2686 360.741L64.3897 362.707V362.777H68.6461V364H62.4231Z" fill="black"/>
<path d="M34.5 346.25L27 342.67L27 351.33L34.5 347.75L34.5 346.25ZM96.5 347.75L104 351.33L104 342.67L96.5 346.25L96.5 347.75ZM33.75 347.75L97.25 347.75L97.25 346.25L33.75 346.25L33.75 347.75Z" fill="black"/>
<rect x="-1" y="1" width="43" height="43" rx="3" transform="matrix(-1 0 0 1 158 21)" fill="#F1F8FF"/>
<rect x="-1" y="1" width="43" height="43" rx="3" transform="matrix(-1 0 0 1 158 21)" stroke="white" stroke-width="2"/>
<rect x="-1" y="1" width="43" height="43" rx="3" transform="matrix(-1 0 0 1 158 21)" stroke="#454545" stroke-opacity="0.42" stroke-width="2"/>
<rect x="-1" y="1" width="43" height="43" rx="3" transform="matrix(-1 0 0 1 115 21)" fill="#F1F8FF"/>
<rect x="-1" y="1" width="43" height="43" rx="3" transform="matrix(-1 0 0 1 115 21)" stroke="white" stroke-width="2"/>
<rect x="-1" y="1" width="43" height="43" rx="3" transform="matrix(-1 0 0 1 115 21)" stroke="#454545" stroke-opacity="0.42" stroke-width="2"/>
<rect x="-1" y="1" width="43" height="43" rx="3" transform="matrix(-1 0 0 1 158 64)" fill="#F1F8FF"/>
<rect x="-1" y="1" width="43" height="43" rx="3" transform="matrix(-1 0 0 1 158 64)" stroke="white" stroke-width="2"/>
<rect x="-1" y="1" width="43" height="43" rx="3" transform="matrix(-1 0 0 1 158 64)" stroke="#454545" stroke-opacity="0.42" stroke-width="2"/>
<rect x="-1" y="1" width="43" height="43" rx="3" transform="matrix(-1 0 0 1 115 64)" fill="#F1F8FF"/>
<rect x="-1" y="1" width="43" height="43" rx="3" transform="matrix(-1 0 0 1 115 64)" stroke="white" stroke-width="2"/>
<rect x="-1" y="1" width="43" height="43" rx="3" transform="matrix(-1 0 0 1 115 64)" stroke="#454545" stroke-opacity="0.42" stroke-width="2"/>
<rect x="-1" y="1" width="43" height="43" rx="3" transform="matrix(-1 0 0 1 158 107)" fill="#BCE5FF"/>
<rect x="-1" y="1" width="43" height="43" rx="3" transform="matrix(-1 0 0 1 158 107)" stroke="white" stroke-width="2"/>
<rect x="-1" y="1" width="43" height="43" rx="3" transform="matrix(-1 0 0 1 158 107)" stroke="#454545" stroke-opacity="0.42" stroke-width="2"/>
<rect x="-1" y="1" width="43" height="43" rx="3" transform="matrix(-1 0 0 1 115 107)" fill="#BCE5FF"/>
<rect x="-1" y="1" width="43" height="43" rx="3" transform="matrix(-1 0 0 1 115 107)" stroke="white" stroke-width="2"/>
<rect x="-1" y="1" width="43" height="43" rx="3" transform="matrix(-1 0 0 1 115 107)" stroke="#454545" stroke-opacity="0.42" stroke-width="2"/>
<rect x="-1" y="1" width="43" height="43" rx="3" transform="matrix(-1 0 0 1 72 21)" fill="#F1F8FF"/>
<rect x="-1" y="1" width="43" height="43" rx="3" transform="matrix(-1 0 0 1 72 21)" stroke="white" stroke-width="2"/>
<rect x="-1" y="1" width="43" height="43" rx="3" transform="matrix(-1 0 0 1 72 21)" stroke="#454545" stroke-opacity="0.42" stroke-width="2"/>
<rect x="-1" y="1" width="43" height="43" rx="3" transform="matrix(-1 0 0 1 72 64)" fill="#F1F8FF"/>
<rect x="-1" y="1" width="43" height="43" rx="3" transform="matrix(-1 0 0 1 72 64)" stroke="white" stroke-width="2"/>
<rect x="-1" y="1" width="43" height="43" rx="3" transform="matrix(-1 0 0 1 72 64)" stroke="#454545" stroke-opacity="0.42" stroke-width="2"/>
<rect x="-1" y="1" width="43" height="43" rx="3" transform="matrix(-1 0 0 1 72 107)" fill="#BCE5FF"/>
<rect x="-1" y="1" width="43" height="43" rx="3" transform="matrix(-1 0 0 1 72 107)" stroke="white" stroke-width="2"/>
<rect x="-1" y="1" width="43" height="43" rx="3" transform="matrix(-1 0 0 1 72 107)" stroke="#454545" stroke-opacity="0.42" stroke-width="2"/>
<path d="M53.8208 37.4545V52H51.1858V40.0185H51.1006L47.6986 42.1918V39.777L51.3137 37.4545H53.8208Z" fill="black"/>
<path d="M137.416 52.1989C136.393 52.1989 135.484 52.0237 134.689 51.6733C133.898 51.3229 133.273 50.8352 132.814 50.2102C132.354 49.5852 132.11 48.8632 132.082 48.044H134.752C134.776 48.437 134.906 48.7803 135.143 49.0739C135.38 49.3627 135.695 49.5876 136.088 49.7486C136.481 49.9096 136.921 49.9901 137.409 49.9901C137.93 49.9901 138.391 49.9001 138.794 49.7202C139.196 49.5355 139.511 49.2798 139.738 48.9531C139.965 48.6264 140.077 48.25 140.072 47.8239C140.077 47.3835 139.963 46.9953 139.731 46.6591C139.499 46.3229 139.163 46.0601 138.723 45.8707C138.287 45.6813 137.761 45.5866 137.146 45.5866H135.86V43.5554H137.146C137.653 43.5554 138.095 43.4678 138.474 43.2926C138.858 43.1174 139.158 42.8712 139.376 42.554C139.594 42.232 139.7 41.8603 139.696 41.4389C139.7 41.027 139.608 40.6695 139.419 40.3665C139.234 40.0587 138.971 39.8196 138.63 39.6491C138.294 39.4787 137.899 39.3935 137.444 39.3935C136.999 39.3935 136.587 39.474 136.208 39.6349C135.83 39.7959 135.524 40.0256 135.292 40.3239C135.06 40.6174 134.937 40.9678 134.923 41.375H132.387C132.406 40.5606 132.641 39.8456 133.09 39.2301C133.545 38.6098 134.151 38.1269 134.909 37.7812C135.666 37.4309 136.516 37.2557 137.458 37.2557C138.429 37.2557 139.272 37.438 139.987 37.8026C140.706 38.1624 141.263 38.6477 141.656 39.2585C142.049 39.8693 142.245 40.544 142.245 41.2827C142.25 42.1018 142.009 42.7884 141.521 43.3423C141.038 43.8963 140.403 44.2585 139.617 44.429V44.5426C140.64 44.6847 141.424 45.0634 141.968 45.679C142.518 46.2898 142.79 47.0497 142.785 47.9588C142.785 48.7732 142.553 49.5024 142.089 50.1463C141.63 50.7855 140.995 51.2874 140.186 51.652C139.381 52.0166 138.457 52.1989 137.416 52.1989Z" fill="black"/>
<path d="M89.4983 52V50.0966L94.5481 45.1463C95.031 44.6586 95.4335 44.2254 95.7554 43.8466C96.0774 43.4678 96.3189 43.1009 96.4799 42.7457C96.6409 42.3906 96.7213 42.0118 96.7213 41.6094C96.7213 41.1501 96.6172 40.7571 96.4088 40.4304C96.2005 40.099 95.9141 39.8433 95.5495 39.6634C95.1849 39.4834 94.7706 39.3935 94.3066 39.3935C93.8284 39.3935 93.4093 39.4929 93.0495 39.6918C92.6896 39.8859 92.4103 40.1629 92.2114 40.5227C92.0173 40.8826 91.9202 41.3111 91.9202 41.8082H89.4131C89.4131 40.8849 89.6238 40.0824 90.0452 39.4006C90.4666 38.7187 91.0466 38.1908 91.7853 37.8168C92.5286 37.4427 93.3809 37.2557 94.3421 37.2557C95.3175 37.2557 96.1745 37.438 96.9131 37.8026C97.6517 38.1671 98.2247 38.6667 98.6319 39.3011C99.0438 39.9356 99.2498 40.66 99.2498 41.4744C99.2498 42.0189 99.1456 42.554 98.9373 43.0795C98.7289 43.6051 98.362 44.1875 97.8364 44.8267C97.3156 45.4659 96.584 46.2401 95.6418 47.1491L93.1347 49.6989V49.7983H99.4699V52H89.4983Z" fill="black"/>
<path d="M53.8208 122.455V137H51.1858V125.018H51.1006L47.6986 127.192V124.777L51.3137 122.455H53.8208Z" fill="black"/>
<path d="M137.416 137.199C136.393 137.199 135.484 137.024 134.689 136.673C133.898 136.323 133.273 135.835 132.814 135.21C132.354 134.585 132.11 133.863 132.082 133.044H134.752C134.776 133.437 134.906 133.78 135.143 134.074C135.38 134.363 135.695 134.588 136.088 134.749C136.481 134.91 136.921 134.99 137.409 134.99C137.93 134.99 138.391 134.9 138.794 134.72C139.196 134.536 139.511 134.28 139.738 133.953C139.965 133.626 140.077 133.25 140.072 132.824C140.077 132.384 139.963 131.995 139.731 131.659C139.499 131.323 139.163 131.06 138.723 130.871C138.287 130.681 137.761 130.587 137.146 130.587H135.86V128.555H137.146C137.653 128.555 138.095 128.468 138.474 128.293C138.858 128.117 139.158 127.871 139.376 127.554C139.594 127.232 139.7 126.86 139.696 126.439C139.7 126.027 139.608 125.67 139.419 125.366C139.234 125.059 138.971 124.82 138.63 124.649C138.294 124.479 137.899 124.393 137.444 124.393C136.999 124.393 136.587 124.474 136.208 124.635C135.83 124.796 135.524 125.026 135.292 125.324C135.06 125.617 134.937 125.968 134.923 126.375H132.387C132.406 125.561 132.641 124.846 133.09 124.23C133.545 123.61 134.151 123.127 134.909 122.781C135.666 122.431 136.516 122.256 137.458 122.256C138.429 122.256 139.272 122.438 139.987 122.803C140.706 123.162 141.263 123.648 141.656 124.259C142.049 124.869 142.245 125.544 142.245 126.283C142.25 127.102 142.009 127.788 141.521 128.342C141.038 128.896 140.403 129.259 139.617 129.429V129.543C140.64 129.685 141.424 130.063 141.968 130.679C142.518 131.29 142.79 132.05 142.785 132.959C142.785 133.773 142.553 134.502 142.089 135.146C141.63 135.786 140.995 136.287 140.186 136.652C139.381 137.017 138.457 137.199 137.416 137.199Z" fill="black"/>
<path d="M89.4983 137V135.097L94.5481 130.146C95.031 129.659 95.4335 129.225 95.7554 128.847C96.0774 128.468 96.3189 128.101 96.4799 127.746C96.6409 127.391 96.7213 127.012 96.7213 126.609C96.7213 126.15 96.6172 125.757 96.4088 125.43C96.2005 125.099 95.9141 124.843 95.5495 124.663C95.1849 124.483 94.7706 124.393 94.3066 124.393C93.8284 124.393 93.4093 124.493 93.0495 124.692C92.6896 124.886 92.4103 125.163 92.2114 125.523C92.0173 125.883 91.9202 126.311 91.9202 126.808H89.4131C89.4131 125.885 89.6238 125.082 90.0452 124.401C90.4666 123.719 91.0466 123.191 91.7853 122.817C92.5286 122.443 93.3809 122.256 94.3421 122.256C95.3175 122.256 96.1745 122.438 96.9131 122.803C97.6517 123.167 98.2247 123.667 98.6319 124.301C99.0438 124.936 99.2498 125.66 99.2498 126.474C99.2498 127.019 99.1456 127.554 98.9373 128.08C98.7289 128.605 98.362 129.187 97.8364 129.827C97.3156 130.466 96.584 131.24 95.6418 132.149L93.1347 134.699V134.798H99.4699V137H89.4983Z" fill="black"/>
<rect x="-1" y="1" width="43" height="43" rx="3" transform="matrix(-1 0 0 1 158 150)" fill="#89D2FF"/>
<rect x="-1" y="1" width="43" height="43" rx="3" transform="matrix(-1 0 0 1 158 150)" stroke="white" stroke-width="2"/>
<rect x="-1" y="1" width="43" height="43" rx="3" transform="matrix(-1 0 0 1 158 150)" stroke="#454545" stroke-opacity="0.65" stroke-width="2"/>
<rect x="-1" y="1" width="43" height="43" rx="3" transform="matrix(-1 0 0 1 115 150)" fill="#89D2FF"/>
<rect x="-1" y="1" width="43" height="43" rx="3" transform="matrix(-1 0 0 1 115 150)" stroke="white" stroke-width="2"/>
<rect x="-1" y="1" width="43" height="43" rx="3" transform="matrix(-1 0 0 1 115 150)" stroke="#454545" stroke-opacity="0.65" stroke-width="2"/>
<rect x="-1" y="1" width="43" height="43" rx="3" transform="matrix(-1 0 0 1 72 150)" fill="#89D2FF"/>
<rect x="-1" y="1" width="43" height="43" rx="3" transform="matrix(-1 0 0 1 72 150)" stroke="white" stroke-width="2"/>
<rect x="-1" y="1" width="43" height="43" rx="3" transform="matrix(-1 0 0 1 72 150)" stroke="#454545" stroke-opacity="0.65" stroke-width="2"/>
<path d="M53.8208 165.455V180H51.1858V168.018H51.1006L47.6986 170.192V167.777L51.3137 165.455H53.8208Z" fill="black"/>
<path d="M137.416 180.199C136.393 180.199 135.484 180.024 134.689 179.673C133.898 179.323 133.273 178.835 132.814 178.21C132.354 177.585 132.11 176.863 132.082 176.044H134.752C134.776 176.437 134.906 176.78 135.143 177.074C135.38 177.363 135.695 177.588 136.088 177.749C136.481 177.91 136.921 177.99 137.409 177.99C137.93 177.99 138.391 177.9 138.794 177.72C139.196 177.536 139.511 177.28 139.738 176.953C139.965 176.626 140.077 176.25 140.072 175.824C140.077 175.384 139.963 174.995 139.731 174.659C139.499 174.323 139.163 174.06 138.723 173.871C138.287 173.681 137.761 173.587 137.146 173.587H135.86V171.555H137.146C137.653 171.555 138.095 171.468 138.474 171.293C138.858 171.117 139.158 170.871 139.376 170.554C139.594 170.232 139.7 169.86 139.696 169.439C139.7 169.027 139.608 168.67 139.419 168.366C139.234 168.059 138.971 167.82 138.63 167.649C138.294 167.479 137.899 167.393 137.444 167.393C136.999 167.393 136.587 167.474 136.208 167.635C135.83 167.796 135.524 168.026 135.292 168.324C135.06 168.617 134.937 168.968 134.923 169.375H132.387C132.406 168.561 132.641 167.846 133.09 167.23C133.545 166.61 134.151 166.127 134.909 165.781C135.666 165.431 136.516 165.256 137.458 165.256C138.429 165.256 139.272 165.438 139.987 165.803C140.706 166.162 141.263 166.648 141.656 167.259C142.049 167.869 142.245 168.544 142.245 169.283C142.25 170.102 142.009 170.788 141.521 171.342C141.038 171.896 140.403 172.259 139.617 172.429V172.543C140.64 172.685 141.424 173.063 141.968 173.679C142.518 174.29 142.79 175.05 142.785 175.959C142.785 176.773 142.553 177.502 142.089 178.146C141.63 178.786 140.995 179.287 140.186 179.652C139.381 180.017 138.457 180.199 137.416 180.199Z" fill="black"/>
<path d="M89.4983 180V178.097L94.5481 173.146C95.031 172.659 95.4335 172.225 95.7554 171.847C96.0774 171.468 96.3189 171.101 96.4799 170.746C96.6409 170.391 96.7213 170.012 96.7213 169.609C96.7213 169.15 96.6172 168.757 96.4088 168.43C96.2005 168.099 95.9141 167.843 95.5495 167.663C95.1849 167.483 94.7706 167.393 94.3066 167.393C93.8284 167.393 93.4093 167.493 93.0495 167.692C92.6896 167.886 92.4103 168.163 92.2114 168.523C92.0173 168.883 91.9202 169.311 91.9202 169.808H89.4131C89.4131 168.885 89.6238 168.082 90.0452 167.401C90.4666 166.719 91.0466 166.191 91.7853 165.817C92.5286 165.443 93.3809 165.256 94.3421 165.256C95.3175 165.256 96.1745 165.438 96.9131 165.803C97.6517 166.167 98.2247 166.667 98.6319 167.301C99.0438 167.936 99.2498 168.66 99.2498 169.474C99.2498 170.019 99.1456 170.554 98.9373 171.08C98.7289 171.605 98.362 172.187 97.8364 172.827C97.3156 173.466 96.584 174.24 95.6418 175.149L93.1347 177.699V177.798H99.4699V180H89.4983Z" fill="black"/>
<path d="M53.8208 80.4545V95H51.1858V83.0185H51.1006L47.6986 85.1918V82.777L51.3137 80.4545H53.8208Z" fill="black"/>
<path d="M137.416 95.1989C136.393 95.1989 135.484 95.0237 134.689 94.6733C133.898 94.3229 133.273 93.8352 132.814 93.2102C132.354 92.5852 132.11 91.8632 132.082 91.044H134.752C134.776 91.437 134.906 91.7803 135.143 92.0739C135.38 92.3627 135.695 92.5876 136.088 92.7486C136.481 92.9096 136.921 92.9901 137.409 92.9901C137.93 92.9901 138.391 92.9001 138.794 92.7202C139.196 92.5355 139.511 92.2798 139.738 91.9531C139.965 91.6264 140.077 91.25 140.072 90.8239C140.077 90.3835 139.963 89.9953 139.731 89.6591C139.499 89.3229 139.163 89.0601 138.723 88.8707C138.287 88.6813 137.761 88.5866 137.146 88.5866H135.86V86.5554H137.146C137.653 86.5554 138.095 86.4678 138.474 86.2926C138.858 86.1174 139.158 85.8712 139.376 85.554C139.594 85.232 139.7 84.8603 139.696 84.4389C139.7 84.027 139.608 83.6695 139.419 83.3665C139.234 83.0587 138.971 82.8196 138.63 82.6491C138.294 82.4787 137.899 82.3935 137.444 82.3935C136.999 82.3935 136.587 82.474 136.208 82.6349C135.83 82.7959 135.524 83.0256 135.292 83.3239C135.06 83.6174 134.937 83.9678 134.923 84.375H132.387C132.406 83.5606 132.641 82.8456 133.09 82.2301C133.545 81.6098 134.151 81.1269 134.909 80.7812C135.666 80.4309 136.516 80.2557 137.458 80.2557C138.429 80.2557 139.272 80.438 139.987 80.8026C140.706 81.1624 141.263 81.6477 141.656 82.2585C142.049 82.8693 142.245 83.544 142.245 84.2827C142.25 85.1018 142.009 85.7884 141.521 86.3423C141.038 86.8963 140.403 87.2585 139.617 87.429V87.5426C140.64 87.6847 141.424 88.0634 141.968 88.679C142.518 89.2898 142.79 90.0497 142.785 90.9588C142.785 91.7732 142.553 92.5024 142.089 93.1463C141.63 93.7855 140.995 94.2874 140.186 94.652C139.381 95.0166 138.457 95.1989 137.416 95.1989Z" fill="black"/>
<path d="M89.4983 95V93.0966L94.5481 88.1463C95.031 87.6586 95.4335 87.2254 95.7554 86.8466C96.0774 86.4678 96.3189 86.1009 96.4799 85.7457C96.6409 85.3906 96.7213 85.0118 96.7213 84.6094C96.7213 84.1501 96.6172 83.7571 96.4088 83.4304C96.2005 83.099 95.9141 82.8433 95.5495 82.6634C95.1849 82.4834 94.7706 82.3935 94.3066 82.3935C93.8284 82.3935 93.4093 82.4929 93.0495 82.6918C92.6896 82.8859 92.4103 83.1629 92.2114 83.5227C92.0173 83.8826 91.9202 84.3111 91.9202 84.8082H89.4131C89.4131 83.8849 89.6238 83.0824 90.0452 82.4006C90.4666 81.7187 91.0466 81.1908 91.7853 80.8168C92.5286 80.4427 93.3809 80.2557 94.3421 80.2557C95.3175 80.2557 96.1745 80.438 96.9131 80.8026C97.6517 81.1671 98.2247 81.6667 98.6319 82.3011C99.0438 82.9356 99.2498 83.66 99.2498 84.4744C99.2498 85.0189 99.1456 85.554 98.9373 86.0795C98.7289 86.6051 98.362 87.1875 97.8364 87.8267C97.3156 88.4659 96.584 89.2401 95.6418 90.1491L93.1347 92.6989V92.7983H99.4699V95H89.4983Z" fill="black"/>
<rect x="-1" y="1" width="43" height="43" rx="3" transform="matrix(-1 0 0 1 438 0)" fill="#F1F8FF"/>
<rect x="-1" y="1" width="43" height="43" rx="3" transform="matrix(-1 0 0 1 438 0)" stroke="white" stroke-width="2"/>
<rect x="-1" y="1" width="43" height="43" rx="3" transform="matrix(-1 0 0 1 438 0)" stroke="#454545" stroke-opacity="0.42" stroke-width="2"/>
<rect x="-1" y="1" width="43" height="43" rx="3" transform="matrix(-1 0 0 1 395 0)" fill="#F1F8FF"/>
<rect x="-1" y="1" width="43" height="43" rx="3" transform="matrix(-1 0 0 1 395 0)" stroke="white" stroke-width="2"/>
<rect x="-1" y="1" width="43" height="43" rx="3" transform="matrix(-1 0 0 1 395 0)" stroke="#454545" stroke-opacity="0.42" stroke-width="2"/>
<rect x="-1" y="1" width="43" height="43" rx="3" transform="matrix(-1 0 0 1 438 43)" fill="#F1F8FF"/>
<rect x="-1" y="1" width="43" height="43" rx="3" transform="matrix(-1 0 0 1 438 43)" stroke="white" stroke-width="2"/>
<rect x="-1" y="1" width="43" height="43" rx="3" transform="matrix(-1 0 0 1 438 43)" stroke="#454545" stroke-opacity="0.42" stroke-width="2"/>
<rect x="-1" y="1" width="43" height="43" rx="3" transform="matrix(-1 0 0 1 395 43)" fill="#F1F8FF"/>
<rect x="-1" y="1" width="43" height="43" rx="3" transform="matrix(-1 0 0 1 395 43)" stroke="white" stroke-width="2"/>
<rect x="-1" y="1" width="43" height="43" rx="3" transform="matrix(-1 0 0 1 395 43)" stroke="#454545" stroke-opacity="0.42" stroke-width="2"/>
<rect x="-1" y="1" width="43" height="43" rx="3" transform="matrix(-1 0 0 1 438 107)" fill="#BCE5FF"/>
<rect x="-1" y="1" width="43" height="43" rx="3" transform="matrix(-1 0 0 1 438 107)" stroke="white" stroke-width="2"/>
<rect x="-1" y="1" width="43" height="43" rx="3" transform="matrix(-1 0 0 1 438 107)" stroke="#454545" stroke-opacity="0.42" stroke-width="2"/>
<rect x="-1" y="1" width="43" height="43" rx="3" transform="matrix(-1 0 0 1 395 107)" fill="#BCE5FF"/>
<rect x="-1" y="1" width="43" height="43" rx="3" transform="matrix(-1 0 0 1 395 107)" stroke="white" stroke-width="2"/>
<rect x="-1" y="1" width="43" height="43" rx="3" transform="matrix(-1 0 0 1 395 107)" stroke="#454545" stroke-opacity="0.42" stroke-width="2"/>
<rect x="-1" y="1" width="43" height="43" rx="3" transform="matrix(-1 0 0 1 352 0)" fill="#F1F8FF"/>
<rect x="-1" y="1" width="43" height="43" rx="3" transform="matrix(-1 0 0 1 352 0)" stroke="white" stroke-width="2"/>
<rect x="-1" y="1" width="43" height="43" rx="3" transform="matrix(-1 0 0 1 352 0)" stroke="#454545" stroke-opacity="0.42" stroke-width="2"/>
<rect x="-1" y="1" width="43" height="43" rx="3" transform="matrix(-1 0 0 1 352 43)" fill="#F1F8FF"/>
<rect x="-1" y="1" width="43" height="43" rx="3" transform="matrix(-1 0 0 1 352 43)" stroke="white" stroke-width="2"/>
<rect x="-1" y="1" width="43" height="43" rx="3" transform="matrix(-1 0 0 1 352 43)" stroke="#454545" stroke-opacity="0.42" stroke-width="2"/>
<rect x="-1" y="1" width="43" height="43" rx="3" transform="matrix(-1 0 0 1 352 107)" fill="#BCE5FF"/>
<rect x="-1" y="1" width="43" height="43" rx="3" transform="matrix(-1 0 0 1 352 107)" stroke="white" stroke-width="2"/>
<rect x="-1" y="1" width="43" height="43" rx="3" transform="matrix(-1 0 0 1 352 107)" stroke="#454545" stroke-opacity="0.42" stroke-width="2"/>
<path d="M333.821 16.4545V31H331.186V19.0185H331.101L327.699 21.1918V18.777L331.314 16.4545H333.821Z" fill="black"/>
<path d="M417.416 31.1989C416.393 31.1989 415.484 31.0237 414.689 30.6733C413.898 30.3229 413.273 29.8352 412.814 29.2102C412.354 28.5852 412.11 27.8632 412.082 27.044H414.752C414.776 27.437 414.906 27.7803 415.143 28.0739C415.38 28.3627 415.695 28.5876 416.088 28.7486C416.481 28.9096 416.921 28.9901 417.409 28.9901C417.93 28.9901 418.391 28.9001 418.794 28.7202C419.196 28.5355 419.511 28.2798 419.738 27.9531C419.965 27.6264 420.077 27.25 420.072 26.8239C420.077 26.3835 419.963 25.9953 419.731 25.6591C419.499 25.3229 419.163 25.0601 418.723 24.8707C418.287 24.6813 417.761 24.5866 417.146 24.5866H415.86V22.5554H417.146C417.653 22.5554 418.095 22.4678 418.474 22.2926C418.858 22.1174 419.158 21.8712 419.376 21.554C419.594 21.232 419.7 20.8603 419.696 20.4389C419.7 20.027 419.608 19.6695 419.419 19.3665C419.234 19.0587 418.971 18.8196 418.63 18.6491C418.294 18.4787 417.899 18.3935 417.444 18.3935C416.999 18.3935 416.587 18.474 416.208 18.6349C415.83 18.7959 415.524 19.0256 415.292 19.3239C415.06 19.6174 414.937 19.9678 414.923 20.375H412.387C412.406 19.5606 412.641 18.8456 413.09 18.2301C413.545 17.6098 414.151 17.1269 414.909 16.7812C415.666 16.4309 416.516 16.2557 417.458 16.2557C418.429 16.2557 419.272 16.438 419.987 16.8026C420.706 17.1624 421.263 17.6477 421.656 18.2585C422.049 18.8693 422.245 19.544 422.245 20.2827C422.25 21.1018 422.009 21.7884 421.521 22.3423C421.038 22.8963 420.403 23.2585 419.617 23.429V23.5426C420.64 23.6847 421.424 24.0634 421.968 24.679C422.518 25.2898 422.79 26.0497 422.785 26.9588C422.785 27.7732 422.553 28.5024 422.089 29.1463C421.63 29.7855 420.995 30.2874 420.186 30.652C419.381 31.0166 418.457 31.1989 417.416 31.1989Z" fill="black"/>
<path d="M369.498 31V29.0966L374.548 24.1463C375.031 23.6586 375.433 23.2254 375.755 22.8466C376.077 22.4678 376.319 22.1009 376.48 21.7457C376.641 21.3906 376.721 21.0118 376.721 20.6094C376.721 20.1501 376.617 19.7571 376.409 19.4304C376.201 19.099 375.914 18.8433 375.549 18.6634C375.185 18.4834 374.771 18.3935 374.307 18.3935C373.828 18.3935 373.409 18.4929 373.049 18.6918C372.69 18.8859 372.41 19.1629 372.211 19.5227C372.017 19.8826 371.92 20.3111 371.92 20.8082H369.413C369.413 19.8849 369.624 19.0824 370.045 18.4006C370.467 17.7187 371.047 17.1908 371.785 16.8168C372.529 16.4427 373.381 16.2557 374.342 16.2557C375.317 16.2557 376.174 16.438 376.913 16.8026C377.652 17.1671 378.225 17.6667 378.632 18.3011C379.044 18.9356 379.25 19.66 379.25 20.4744C379.25 21.0189 379.146 21.554 378.937 22.0795C378.729 22.6051 378.362 23.1875 377.836 23.8267C377.316 24.4659 376.584 25.2401 375.642 26.1491L373.135 28.6989V28.7983H379.47V31H369.498Z" fill="black"/>
<path d="M333.821 122.455V137H331.186V125.018H331.101L327.699 127.192V124.777L331.314 122.455H333.821Z" fill="black"/>
<path d="M417.416 137.199C416.393 137.199 415.484 137.024 414.689 136.673C413.898 136.323 413.273 135.835 412.814 135.21C412.354 134.585 412.11 133.863 412.082 133.044H414.752C414.776 133.437 414.906 133.78 415.143 134.074C415.38 134.363 415.695 134.588 416.088 134.749C416.481 134.91 416.921 134.99 417.409 134.99C417.93 134.99 418.391 134.9 418.794 134.72C419.196 134.536 419.511 134.28 419.738 133.953C419.965 133.626 420.077 133.25 420.072 132.824C420.077 132.384 419.963 131.995 419.731 131.659C419.499 131.323 419.163 131.06 418.723 130.871C418.287 130.681 417.761 130.587 417.146 130.587H415.86V128.555H417.146C417.653 128.555 418.095 128.468 418.474 128.293C418.858 128.117 419.158 127.871 419.376 127.554C419.594 127.232 419.7 126.86 419.696 126.439C419.7 126.027 419.608 125.67 419.419 125.366C419.234 125.059 418.971 124.82 418.63 124.649C418.294 124.479 417.899 124.393 417.444 124.393C416.999 124.393 416.587 124.474 416.208 124.635C415.83 124.796 415.524 125.026 415.292 125.324C415.06 125.617 414.937 125.968 414.923 126.375H412.387C412.406 125.561 412.641 124.846 413.09 124.23C413.545 123.61 414.151 123.127 414.909 122.781C415.666 122.431 416.516 122.256 417.458 122.256C418.429 122.256 419.272 122.438 419.987 122.803C420.706 123.162 421.263 123.648 421.656 124.259C422.049 124.869 422.245 125.544 422.245 126.283C422.25 127.102 422.009 127.788 421.521 128.342C421.038 128.896 420.403 129.259 419.617 129.429V129.543C420.64 129.685 421.424 130.063 421.968 130.679C422.518 131.29 422.79 132.05 422.785 132.959C422.785 133.773 422.553 134.502 422.089 135.146C421.63 135.786 420.995 136.287 420.186 136.652C419.381 137.017 418.457 137.199 417.416 137.199Z" fill="black"/>
<path d="M369.498 137V135.097L374.548 130.146C375.031 129.659 375.433 129.225 375.755 128.847C376.077 128.468 376.319 128.101 376.48 127.746C376.641 127.391 376.721 127.012 376.721 126.609C376.721 126.15 376.617 125.757 376.409 125.43C376.201 125.099 375.914 124.843 375.549 124.663C375.185 124.483 374.771 124.393 374.307 124.393C373.828 124.393 373.409 124.493 373.049 124.692C372.69 124.886 372.41 125.163 372.211 125.523C372.017 125.883 371.92 126.311 371.92 126.808H369.413C369.413 125.885 369.624 125.082 370.045 124.401C370.467 123.719 371.047 123.191 371.785 122.817C372.529 122.443 373.381 122.256 374.342 122.256C375.317 122.256 376.174 122.438 376.913 122.803C377.652 123.167 378.225 123.667 378.632 124.301C379.044 124.936 379.25 125.66 379.25 126.474C379.25 127.019 379.146 127.554 378.937 128.08C378.729 128.605 378.362 129.187 377.836 129.827C377.316 130.466 376.584 131.24 375.642 132.149L373.135 134.699V134.798H379.47V137H369.498Z" fill="black"/>
<rect x="-1" y="1" width="43" height="43" rx="3" transform="matrix(-1 0 0 1 438 169)" fill="#89D2FF"/>
<rect x="-1" y="1" width="43" height="43" rx="3" transform="matrix(-1 0 0 1 438 169)" stroke="white" stroke-width="2"/>
<rect x="-1" y="1" width="43" height="43" rx="3" transform="matrix(-1 0 0 1 438 169)" stroke="#454545" stroke-opacity="0.65" stroke-width="2"/>
<rect x="-1" y="1" width="43" height="43" rx="3" transform="matrix(-1 0 0 1 395 169)" fill="#89D2FF"/>
<rect x="-1" y="1" width="43" height="43" rx="3" transform="matrix(-1 0 0 1 395 169)" stroke="white" stroke-width="2"/>
<rect x="-1" y="1" width="43" height="43" rx="3" transform="matrix(-1 0 0 1 395 169)" stroke="#454545" stroke-opacity="0.65" stroke-width="2"/>
<rect x="-1" y="1" width="43" height="43" rx="3" transform="matrix(-1 0 0 1 352 169)" fill="#89D2FF"/>
<rect x="-1" y="1" width="43" height="43" rx="3" transform="matrix(-1 0 0 1 352 169)" stroke="white" stroke-width="2"/>
<rect x="-1" y="1" width="43" height="43" rx="3" transform="matrix(-1 0 0 1 352 169)" stroke="#454545" stroke-opacity="0.65" stroke-width="2"/>
<path d="M333.821 184.455V199H331.186V187.018H331.101L327.699 189.192V186.777L331.314 184.455H333.821Z" fill="black"/>
<path d="M417.416 199.199C416.393 199.199 415.484 199.024 414.689 198.673C413.898 198.323 413.273 197.835 412.814 197.21C412.354 196.585 412.11 195.863 412.082 195.044H414.752C414.776 195.437 414.906 195.78 415.143 196.074C415.38 196.363 415.695 196.588 416.088 196.749C416.481 196.91 416.921 196.99 417.409 196.99C417.93 196.99 418.391 196.9 418.794 196.72C419.196 196.536 419.511 196.28 419.738 195.953C419.965 195.626 420.077 195.25 420.072 194.824C420.077 194.384 419.963 193.995 419.731 193.659C419.499 193.323 419.163 193.06 418.723 192.871C418.287 192.681 417.761 192.587 417.146 192.587H415.86V190.555H417.146C417.653 190.555 418.095 190.468 418.474 190.293C418.858 190.117 419.158 189.871 419.376 189.554C419.594 189.232 419.7 188.86 419.696 188.439C419.7 188.027 419.608 187.67 419.419 187.366C419.234 187.059 418.971 186.82 418.63 186.649C418.294 186.479 417.899 186.393 417.444 186.393C416.999 186.393 416.587 186.474 416.208 186.635C415.83 186.796 415.524 187.026 415.292 187.324C415.06 187.617 414.937 187.968 414.923 188.375H412.387C412.406 187.561 412.641 186.846 413.09 186.23C413.545 185.61 414.151 185.127 414.909 184.781C415.666 184.431 416.516 184.256 417.458 184.256C418.429 184.256 419.272 184.438 419.987 184.803C420.706 185.162 421.263 185.648 421.656 186.259C422.049 186.869 422.245 187.544 422.245 188.283C422.25 189.102 422.009 189.788 421.521 190.342C421.038 190.896 420.403 191.259 419.617 191.429V191.543C420.64 191.685 421.424 192.063 421.968 192.679C422.518 193.29 422.79 194.05 422.785 194.959C422.785 195.773 422.553 196.502 422.089 197.146C421.63 197.786 420.995 198.287 420.186 198.652C419.381 199.017 418.457 199.199 417.416 199.199Z" fill="black"/>
<path d="M369.498 199V197.097L374.548 192.146C375.031 191.659 375.433 191.225 375.755 190.847C376.077 190.468 376.319 190.101 376.48 189.746C376.641 189.391 376.721 189.012 376.721 188.609C376.721 188.15 376.617 187.757 376.409 187.43C376.201 187.099 375.914 186.843 375.549 186.663C375.185 186.483 374.771 186.393 374.307 186.393C373.828 186.393 373.409 186.493 373.049 186.692C372.69 186.886 372.41 187.163 372.211 187.523C372.017 187.883 371.92 188.311 371.92 188.808H369.413C369.413 187.885 369.624 187.082 370.045 186.401C370.467 185.719 371.047 185.191 371.785 184.817C372.529 184.443 373.381 184.256 374.342 184.256C375.317 184.256 376.174 184.438 376.913 184.803C377.652 185.167 378.225 185.667 378.632 186.301C379.044 186.936 379.25 187.66 379.25 188.474C379.25 189.019 379.146 189.554 378.937 190.08C378.729 190.605 378.362 191.187 377.836 191.827C377.316 192.466 376.584 193.24 375.642 194.149L373.135 196.699V196.798H379.47V199H369.498Z" fill="black"/>
<path d="M333.821 59.4545V74H331.186V62.0185H331.101L327.699 64.1918V61.777L331.314 59.4545H333.821Z" fill="black"/>
<path d="M417.416 74.1989C416.393 74.1989 415.484 74.0237 414.689 73.6733C413.898 73.3229 413.273 72.8352 412.814 72.2102C412.354 71.5852 412.11 70.8632 412.082 70.044H414.752C414.776 70.437 414.906 70.7803 415.143 71.0739C415.38 71.3627 415.695 71.5876 416.088 71.7486C416.481 71.9096 416.921 71.9901 417.409 71.9901C417.93 71.9901 418.391 71.9001 418.794 71.7202C419.196 71.5355 419.511 71.2798 419.738 70.9531C419.965 70.6264 420.077 70.25 420.072 69.8239C420.077 69.3835 419.963 68.9953 419.731 68.6591C419.499 68.3229 419.163 68.0601 418.723 67.8707C418.287 67.6813 417.761 67.5866 417.146 67.5866H415.86V65.5554H417.146C417.653 65.5554 418.095 65.4678 418.474 65.2926C418.858 65.1174 419.158 64.8712 419.376 64.554C419.594 64.232 419.7 63.8603 419.696 63.4389C419.7 63.027 419.608 62.6695 419.419 62.3665C419.234 62.0587 418.971 61.8196 418.63 61.6491C418.294 61.4787 417.899 61.3935 417.444 61.3935C416.999 61.3935 416.587 61.474 416.208 61.6349C415.83 61.7959 415.524 62.0256 415.292 62.3239C415.06 62.6174 414.937 62.9678 414.923 63.375H412.387C412.406 62.5606 412.641 61.8456 413.09 61.2301C413.545 60.6098 414.151 60.1269 414.909 59.7812C415.666 59.4309 416.516 59.2557 417.458 59.2557C418.429 59.2557 419.272 59.438 419.987 59.8026C420.706 60.1624 421.263 60.6477 421.656 61.2585C422.049 61.8693 422.245 62.544 422.245 63.2827C422.25 64.1018 422.009 64.7884 421.521 65.3423C421.038 65.8963 420.403 66.2585 419.617 66.429V66.5426C420.64 66.6847 421.424 67.0634 421.968 67.679C422.518 68.2898 422.79 69.0497 422.785 69.9588C422.785 70.7732 422.553 71.5024 422.089 72.1463C421.63 72.7855 420.995 73.2874 420.186 73.652C419.381 74.0166 418.457 74.1989 417.416 74.1989Z" fill="black"/>
<path d="M369.498 74V72.0966L374.548 67.1463C375.031 66.6586 375.433 66.2254 375.755 65.8466C376.077 65.4678 376.319 65.1009 376.48 64.7457C376.641 64.3906 376.721 64.0118 376.721 63.6094C376.721 63.1501 376.617 62.7571 376.409 62.4304C376.201 62.099 375.914 61.8433 375.549 61.6634C375.185 61.4834 374.771 61.3935 374.307 61.3935C373.828 61.3935 373.409 61.4929 373.049 61.6918C372.69 61.8859 372.41 62.1629 372.211 62.5227C372.017 62.8826 371.92 63.3111 371.92 63.8082H369.413C369.413 62.8849 369.624 62.0824 370.045 61.4006C370.467 60.7187 371.047 60.1908 371.785 59.8168C372.529 59.4427 373.381 59.2557 374.342 59.2557C375.317 59.2557 376.174 59.438 376.913 59.8026C377.652 60.1671 378.225 60.6667 378.632 61.3011C379.044 61.9356 379.25 62.66 379.25 63.4744C379.25 64.0189 379.146 64.554 378.937 65.0795C378.729 65.6051 378.362 66.1875 377.836 66.8267C377.316 67.4659 376.584 68.2401 375.642 69.1491L373.135 71.6989V71.7983H379.47V74H369.498Z" fill="black"/>
<rect width="13" height="63" rx="2" transform="matrix(-4.37114e-08 -1 -1 4.37114e-08 260 114)" fill="#E04343"/>
<path d="M280.375 108.879C281.074 108.501 281.074 107.499 280.375 107.121L259.476 95.8085C258.81 95.4479 258 95.9303 258 96.688L258 119.312C258 120.07 258.81 120.552 259.476 120.191L280.375 108.879Z" fill="#E04343"/>
<path d="M204.593 76.728C204.209 77.3787 203.617 77.9813 202.817 78.536C202.017 79.08 201.083 79.5067 200.017 79.816L199.153 78.52C199.697 78.3813 200.23 78.184 200.753 77.928C201.275 77.672 201.761 77.368 202.209 77.016C202.635 76.664 202.982 76.28 203.249 75.864C203.526 75.4373 203.665 74.968 203.665 74.456V73.016H205.521V74.456C205.521 74.968 205.654 75.4373 205.921 75.864C206.187 76.28 206.534 76.664 206.961 77.016C207.387 77.368 207.867 77.672 208.401 77.928C208.945 78.184 209.489 78.3813 210.033 78.52L209.185 79.816C208.651 79.656 208.15 79.4693 207.681 79.256C207.211 79.032 206.779 78.7867 206.385 78.52C205.99 78.2533 205.638 77.9707 205.329 77.672C205.03 77.3627 204.785 77.048 204.593 76.728ZM203.681 86.984V82.392H197.825V80.952H211.265V82.392H205.425V86.984H203.681ZM220.896 80.68C220.16 80.36 219.504 79.976 218.928 79.528C218.362 79.0693 217.904 78.5627 217.552 78.008C217.189 78.6267 216.73 79.1707 216.176 79.64C215.632 80.1093 214.96 80.5467 214.16 80.952L213.168 79.736C213.626 79.4907 214.064 79.2347 214.48 78.968C214.896 78.6907 215.264 78.376 215.584 78.024C215.893 77.672 216.144 77.2667 216.336 76.808C216.528 76.3493 216.624 75.8107 216.624 75.192V74.856H213.728V73.384H221.344V74.856H218.448V75.16C218.448 75.736 218.533 76.2427 218.704 76.68C218.885 77.1067 219.136 77.4853 219.456 77.816C219.765 78.1573 220.122 78.456 220.528 78.712C220.933 78.968 221.376 79.2027 221.856 79.416L220.896 80.68ZM216.656 81.624H225.104V87.144H223.376V83.096H216.656V81.624ZM223.376 72.648H225.104V80.936H223.376V72.648ZM233.203 83.64C234.259 84.0773 235.235 84.296 236.131 84.296C236.845 84.296 237.421 84.136 237.859 83.816C238.36 83.464 238.611 82.9467 238.611 82.264C238.611 80.984 237.715 80.344 235.923 80.344H234.739V78.744H235.219C236.211 78.744 236.957 78.648 237.459 78.456C238.195 78.1573 238.563 77.592 238.563 76.76C238.563 76.5467 238.504 76.3493 238.387 76.168C238.28 75.9867 238.131 75.832 237.939 75.704C237.747 75.576 237.517 75.4747 237.251 75.4C236.995 75.3253 236.717 75.288 236.419 75.288C235.629 75.288 234.739 75.5173 233.747 75.976L233.587 74.248C234.579 73.8747 235.555 73.688 236.515 73.688C237.571 73.688 238.424 73.9013 239.075 74.328C239.885 74.8507 240.291 75.64 240.291 76.696C240.291 77.9547 239.677 78.888 238.451 79.496C239.699 79.9653 240.323 80.92 240.323 82.36C240.323 83.4587 239.901 84.3333 239.059 84.984C238.28 85.5707 237.283 85.864 236.067 85.864C234.829 85.864 233.811 85.6987 233.011 85.368L233.203 83.64ZM252.186 77.416V76.104H246.698V77.416H252.186ZM254.202 87.112H244.858V83.048H246.586V85.64H254.202V87.112ZM248.89 84.264V81.624H242.714V80.184H256.154V81.624H250.634V84.264H248.89ZM244.97 78.872V73.016H246.698V74.632H252.186V73.016H253.898V78.872H244.97ZM258.169 76.024V74.616H266.489V76.024H258.169ZM259.865 74.056V72.616H264.777V74.056H259.865ZM261.401 87.64V84.072H267.881V83.336H261.385V81.912H269.577V85.448H263.081V86.2H269.929V87.64H261.401ZM271.833 78.216H269.577V81.368H267.849V72.648H269.577V76.744H271.833V78.216ZM263.785 78.792C263.785 78.472 263.641 78.216 263.353 78.024C263.075 77.8213 262.734 77.72 262.329 77.72C261.923 77.72 261.577 77.8213 261.289 78.024C261.011 78.216 260.873 78.472 260.873 78.792C260.873 79.112 261.011 79.3733 261.289 79.576C261.577 79.7787 261.923 79.88 262.329 79.88C262.734 79.88 263.075 79.7787 263.353 79.576C263.641 79.3733 263.785 79.112 263.785 78.792ZM265.385 78.792C265.385 79.1333 265.31 79.4533 265.161 79.752C265.011 80.04 264.798 80.296 264.521 80.52C264.254 80.7333 263.934 80.904 263.561 81.032C263.187 81.1493 262.777 81.208 262.329 81.208C261.881 81.208 261.47 81.1493 261.097 81.032C260.723 80.904 260.398 80.7333 260.121 80.52C259.854 80.296 259.646 80.04 259.497 79.752C259.347 79.4533 259.273 79.1333 259.273 78.792C259.273 78.4507 259.347 78.136 259.497 77.848C259.646 77.56 259.854 77.3093 260.121 77.096C260.398 76.8827 260.723 76.7173 261.097 76.6C261.47 76.472 261.881 76.408 262.329 76.408C262.777 76.408 263.187 76.472 263.561 76.6C263.934 76.7173 264.254 76.8827 264.521 77.096C264.798 77.3093 265.011 77.56 265.161 77.848C265.31 78.136 265.385 78.4507 265.385 78.792Z" fill="black"/>
<path d="M0.923118 70V68.9659L4.12234 65.6513C4.46396 65.2912 4.74556 64.9757 4.96715 64.7049C5.19182 64.431 5.35955 64.1709 5.47035 63.9247C5.58114 63.6785 5.63654 63.4169 5.63654 63.1399C5.63654 62.826 5.56268 62.5552 5.41495 62.3274C5.26722 62.0966 5.06564 61.9196 4.81019 61.7965C4.55475 61.6703 4.26699 61.6072 3.94691 61.6072C3.60837 61.6072 3.31291 61.6765 3.06055 61.815C2.80818 61.9535 2.61429 62.1489 2.47887 62.4013C2.34345 62.6536 2.27575 62.9491 2.27575 63.2876H0.913885C0.913885 62.7121 1.04622 62.2089 1.3109 61.7781C1.57558 61.3472 1.93874 61.0133 2.40039 60.7763C2.86204 60.5362 3.38678 60.4162 3.97461 60.4162C4.5686 60.4162 5.0918 60.5347 5.54421 60.7717C5.9997 61.0056 6.35517 61.3256 6.61062 61.7319C6.86606 62.1351 6.99379 62.5906 6.99379 63.0984C6.99379 63.4492 6.92762 63.7924 6.79528 64.1278C6.66602 64.4633 6.43981 64.8372 6.11666 65.2496C5.7935 65.659 5.34416 66.156 4.76864 66.7408L2.88974 68.7074V68.7766H7.14613V70H0.923118Z" fill="black"/>
<path d="M5.92418 125.545V135H4.49308V126.977H4.43768L2.1756 128.454V127.087L4.53462 125.545H5.92418Z" fill="black"/>
<path d="M5.92418 166.545V176H4.49308V167.977H4.43768L2.1756 169.454V168.087L4.53462 166.545H5.92418Z" fill="black"/>
<path d="M16.75 159.5L20.3301 152L11.6699 152L15.25 159.5L16.75 159.5ZM15.25 185.5L11.6699 193L20.3301 193L16.75 185.5L15.25 185.5ZM15.25 158.75L15.25 186.25L16.75 186.25L16.75 158.75L15.25 158.75Z" fill="black"/>
<path d="M16.75 116.5L20.3301 109L11.6699 109L15.25 116.5L16.75 116.5ZM15.25 141.5L11.6699 149L20.3301 149L16.75 141.5L15.25 141.5ZM15.25 115.75L15.25 142.25L16.75 142.25L16.75 115.75L15.25 115.75Z" fill="black"/>
<path d="M16.75 30.5L20.3301 23L11.6699 23L15.25 30.5L16.75 30.5ZM15.25 98.5L11.6699 106L20.3301 106L16.75 98.5L15.25 98.5ZM15.25 29.75L15.25 99.25L16.75 99.25L16.75 29.75L15.25 29.75Z" fill="black"/>
</svg>
