<svg width="398" height="141" viewBox="0 0 398 141" fill="none" xmlns="http://www.w3.org/2000/svg">
<rect y="35" width="59" height="17" rx="2.16109" fill="#484848"/>
<rect x="55" y="35" width="37" height="8" fill="#484848"/>
<path d="M92 35H96.8389C98.0324 35 99 35.9676 99 37.1611V106H92V35Z" fill="#484848"/>
<path d="M92 109.839C92 111.032 92.9676 112 94.1611 112H112.839C114.032 112 115 111.032 115 109.839V108.161C115 106.968 114.032 106 112.839 106H92V109.839Z" fill="#484848"/>
<circle cx="10" cy="44" r="5" fill="#FF0000"/>
<circle cx="30" cy="44" r="5" fill="#F6EBA2"/>
<circle cx="50" cy="44" r="5" fill="#C7F4D3"/>
<rect x="144" y="73.5" width="59" height="17" rx="2.16109" transform="rotate(-30 144 73.5)" fill="#484848"/>
<rect x="191.632" y="46" width="37" height="8" transform="rotate(-30 191.632 46)" fill="#484848"/>
<path d="M223.675 27.5L227.865 25.0805C228.899 24.4838 230.221 24.8379 230.818 25.8716L265.237 85.4878L259.175 88.9878L223.675 27.5Z" fill="#484848"/>
<path d="M261.094 92.3123C261.691 93.3459 263.013 93.7001 264.046 93.1033L280.222 83.7644C281.255 83.1676 281.61 81.8459 281.013 80.8123L280.174 79.3592C279.577 78.3256 278.255 77.9715 277.222 78.5682L259.175 88.9877L261.094 92.3123Z" fill="#484848"/>
<circle cx="157.16" cy="76.2942" r="5" transform="rotate(-30 157.16 76.2942)" fill="#FF0000"/>
<circle cx="174.481" cy="66.2942" r="5" transform="rotate(-30 174.481 66.2942)" fill="#F6EBA2"/>
<circle cx="191.801" cy="56.2942" r="5" transform="rotate(-30 191.801 56.2942)" fill="#C7F4D3"/>
<rect x="321" y="115" width="59" height="17" rx="2.16109" transform="rotate(-90 321 115)" fill="#484848"/>
<rect x="321" y="60" width="37" height="8" transform="rotate(-90 321 60)" fill="#484848"/>
<path d="M321 23V18.1611C321 16.9676 321.968 16 323.161 16L392 16V23L321 23Z" fill="#484848"/>
<path d="M395.839 23C397.032 23 398 22.0324 398 20.8389V2.16109C398 0.967552 397.032 0 395.839 0H394.161C392.968 0 392 0.967551 392 2.16109V23H395.839Z" fill="#484848"/>
<circle cx="330" cy="105" r="5" transform="rotate(-90 330 105)" fill="#FF0000"/>
<circle cx="330" cy="85" r="5" transform="rotate(-90 330 85)" fill="#F6EBA2"/>
<circle cx="330" cy="65" r="5" transform="rotate(-90 330 65)" fill="#C7F4D3"/>
</svg>
