<svg width="4365" height="725" viewBox="0 0 4365 725" fill="none" xmlns="http://www.w3.org/2000/svg">
<path d="M31 569C39.6667 575 55 582.333 77 591C99 599 125 603 155 603C181 603 202.333 598.667 219 590C235.667 580.667 248.333 567 257 549C266.333 531 272.333 507.667 275 479C278.333 450.333 280 416 280 376V3.99996H418V365C418 418.333 415 467 409 511C403 555 391.333 593 374 625C356.667 657 330.333 681.667 295 699C260.333 716.333 214 725 156 725C124 725 95.3333 721.333 70 714C44.6667 706.667 21.3333 695.667 2.16067e-07 681L31 569ZM714.633 3.99996H854.633L1115.63 714H973.633L907.633 537H659.633L594.633 714H452.633L714.633 3.99996ZM882.633 440L784.633 147L682.633 440H882.633ZM1138.51 569C1147.17 575 1162.51 582.333 1184.51 591C1206.51 599 1232.51 603 1262.51 603C1288.51 603 1309.84 598.667 1326.51 590C1343.17 580.667 1355.84 567 1364.51 549C1373.84 531 1379.84 507.667 1382.51 479C1385.84 450.333 1387.51 416 1387.51 376V3.99996H1525.51V365C1525.51 418.333 1522.51 467 1516.51 511C1510.51 555 1498.84 593 1481.51 625C1464.17 657 1437.84 681.667 1402.51 699C1367.84 716.333 1321.51 725 1263.51 725C1231.51 725 1202.84 721.333 1177.51 714C1152.17 706.667 1128.84 695.667 1107.51 681L1138.51 569ZM1947.72 719C1891.05 719 1842.72 709.667 1802.72 691C1763.39 671.667 1731.39 645.333 1706.72 612C1682.72 578.667 1665.05 541 1653.72 499C1642.39 456.333 1636.72 412 1636.72 366V3.99996H1774.72V366C1774.72 395.333 1777.39 424 1782.72 452C1788.72 479.333 1798.39 504 1811.72 526C1825.05 548 1842.72 565.333 1864.72 578C1886.72 590.667 1914.05 597 1946.72 597C1980.05 597 2007.72 590.667 2029.72 578C2052.39 564.667 2070.05 547 2082.72 525C2096.05 503 2105.72 478.333 2111.72 451C2117.72 423 2120.72 394.667 2120.72 366V3.99996H2257.72V366C2257.72 414.667 2251.72 460.333 2239.72 503C2228.39 545.667 2210.05 583.333 2184.72 616C2160.05 648 2128.05 673.333 2088.72 692C2049.39 710 2002.39 719 1947.72 719ZM2334.72 354C2334.72 310.667 2342.39 268.333 2357.72 227C2373.72 185 2396.72 147 2426.72 113C2456.72 78.3333 2493.39 51 2536.72 31C2580.05 10.3333 2629.39 -4.62532e-05 2684.72 -4.62532e-05C2750.05 -4.62532e-05 2806.39 14.3333 2853.72 43C2901.72 71.6667 2937.39 109 2960.72 155L2854.72 228C2842.72 201.333 2827.05 180.333 2807.72 165C2788.39 149 2767.72 138 2745.72 132C2723.72 125.333 2702.05 122 2680.72 122C2646.05 122 2615.72 129 2589.72 143C2564.39 157 2543.05 175.333 2525.72 198C2508.39 220.667 2495.39 246 2486.72 274C2478.72 302 2474.72 330 2474.72 358C2474.72 389.333 2479.72 419.667 2489.72 449C2499.72 477.667 2513.72 503.333 2531.72 526C2550.39 548 2572.39 565.667 2597.72 579C2623.72 591.667 2652.05 598 2682.72 598C2704.72 598 2727.05 594.333 2749.72 587C2772.39 579.667 2793.39 568 2812.72 552C2832.05 536 2847.05 515.333 2857.72 490L2970.72 555C2956.72 590.333 2933.72 620.333 2901.72 645C2870.39 669.667 2835.05 688.333 2795.72 701C2756.39 713.667 2717.39 720 2678.72 720C2628.05 720 2581.72 709.667 2539.72 689C2497.72 667.667 2461.39 639.667 2430.72 605C2400.72 569.667 2377.05 530.333 2359.72 487C2343.05 443 2334.72 398.667 2334.72 354ZM3641.27 3.99996V714H3504.27V411H3182.27V714H3044.27V3.99996H3182.27V291H3504.27V3.99996H3641.27ZM3963.38 3.99996H4103.38L4364.38 714H4222.38L4156.38 537H3908.38L3843.38 714H3701.38L3963.38 3.99996ZM4131.38 440L4033.38 147L3931.38 440H4131.38Z" fill="white"/>
</svg>
