<svg width="399" height="160" viewBox="0 0 399 160" fill="none" xmlns="http://www.w3.org/2000/svg">
<g filter="url(#filter0_d_2089_2290)">
<mask id="mask0_2089_2290" style="mask-type:alpha" maskUnits="userSpaceOnUse" x="218" y="19" width="178" height="133">
<path d="M395.002 19.001C395.002 63.0573 395.002 107.114 395.002 151.17H218.776C218.776 107.114 218.776 63.0573 218.776 19.001H395.002Z" fill="#2DCC9F"/>
</mask>
<g mask="url(#mask0_2089_2290)">
<path d="M395 19.8252C395 63.8815 395 107.938 395 151.994H218.774C218.774 107.938 218.774 63.8815 218.774 19.8252H395Z" fill="#2DCC9F"/>
<path d="M395 19.8252C395 63.8815 395 107.938 395 151.994H218.774C218.774 107.938 218.774 63.8815 218.774 19.8252H395Z" fill="#2DCC9F"/>
<path d="M321.295 33.6438C317.745 32.8946 314.044 33.4449 310.865 35.1944C307.687 36.944 305.242 39.7766 303.976 43.1767C302.709 46.577 302.706 50.3187 303.966 53.721C305.226 57.1235 307.666 59.9604 310.841 61.7158C314.016 63.4712 317.717 64.0282 321.268 63.2853C324.819 62.5427 327.986 60.5497 330.192 57.669C332.398 54.7882 333.496 51.2114 333.287 47.5892C333.078 43.967 331.575 40.5401 329.053 37.9323C326.949 35.7651 324.249 34.2722 321.295 33.6438Z" fill="white"/>
<path d="M279.159 113.214C266.658 95.8303 254.153 78.4487 241.643 61.0693C223.093 86.8698 204.548 112.663 186.008 138.45C211.014 138.45 236.026 138.45 261.041 138.45C267.081 130.043 273.125 121.638 279.173 113.235" fill="white"/>
<path d="M306.322 84.9902C293.504 102.806 280.691 120.623 267.883 138.443C293.509 138.443 319.137 138.443 344.768 138.443C331.959 120.623 319.144 102.806 306.322 84.9902Z" fill="white"/>
</g>
<mask id="mask1_2089_2290" style="mask-type:alpha" maskUnits="userSpaceOnUse" x="4" y="19" width="177" height="133">
<path d="M180.225 19.001H4V151.17H180.225V19.001Z" fill="#D9D9D9"/>
</mask>
<g mask="url(#mask1_2089_2290)">
<path d="M180.225 19.001C180.225 63.0573 180.225 107.114 180.225 151.17H4C4 107.114 4 63.0573 4 19.001H180.225Z" fill="#2DCC9F"/>
<path d="M183.475 33.7385C179.925 32.9893 176.224 33.5396 173.046 35.2892C169.867 37.0387 167.422 39.8713 166.156 43.2715C164.89 46.6715 164.887 50.4133 166.147 53.8158C167.407 57.2183 169.846 60.0553 173.022 61.8106C176.197 63.566 179.897 64.1228 183.448 63.3801C187 62.6375 190.167 60.6445 192.373 57.7638C194.578 54.883 195.677 51.3062 195.468 47.684C195.259 44.0617 193.756 40.6349 191.233 38.0271C189.13 35.8598 186.43 34.367 183.475 33.7385Z" fill="white"/>
<path d="M141.339 113.309C128.838 95.9251 116.332 78.5435 103.822 61.1641C85.2727 86.9646 66.7278 112.758 48.1875 138.545C73.1942 138.545 98.2052 138.545 123.221 138.545C129.26 130.138 135.304 121.732 141.353 113.33" fill="white"/>
<path d="M168.502 85.085C155.684 102.9 142.871 120.718 130.062 138.538C155.689 138.538 181.317 138.538 206.948 138.538C194.139 120.718 181.324 102.9 168.502 85.085Z" fill="white"/>
</g>
<path d="M10.1231 11.5028V12.6523H5.90046V11.5028H10.1231ZM6.30482 4.24179V12.6523H4.85492V4.24179H6.30482ZM16.7487 11.5028V12.6523H12.2835V11.5028H16.7487ZM12.6936 4.24179V12.6523H11.2437V4.24179H12.6936ZM16.1653 7.75389V8.88608H12.2835V7.75389H16.1653ZM16.7198 4.24179V5.39708H12.2835V4.24179H16.7198ZM19.3828 4.24179V12.6523H17.9329V4.24179H19.3828ZM22.814 7.9214V9.07092H19.0131V7.9214H22.814ZM23.2935 4.24179V5.39708H19.0131V4.24179H23.2935ZM28.0244 4.24179V12.6523H26.586V4.24179H28.0244ZM30.6642 4.24179V5.39708H23.9693V4.24179H30.6642Z" fill="#545454"/>
<path d="M219.629 4.24179H222.604C223.243 4.24179 223.788 4.33806 224.239 4.53061C224.69 4.72316 225.034 5.00813 225.273 5.38553C225.516 5.75908 225.637 6.22119 225.637 6.77188C225.637 7.19164 225.56 7.56134 225.406 7.88097C225.252 8.2006 225.034 8.47017 224.753 8.68968C224.472 8.90533 224.137 9.07285 223.748 9.19223L223.309 9.40596H220.634L220.623 8.25644H222.627C222.974 8.25644 223.263 8.19483 223.494 8.07159C223.725 7.94836 223.898 7.78084 224.014 7.56904C224.133 7.35338 224.193 7.11077 224.193 6.8412C224.193 6.54853 224.135 6.29436 224.019 6.07871C223.908 5.8592 223.734 5.69168 223.5 5.57615C223.265 5.45677 222.966 5.39708 222.604 5.39708H221.079V12.6523H219.629V4.24179ZM224.43 12.6523L222.454 8.87452L223.973 8.86875L225.978 12.5772V12.6523H224.43ZM228.629 4.24179V12.6523H227.179V4.24179H228.629ZM236.889 8.35464V11.5664C236.77 11.7243 236.583 11.8976 236.329 12.0862C236.079 12.2711 235.746 12.4309 235.33 12.5657C234.914 12.7005 234.396 12.7679 233.776 12.7679C233.248 12.7679 232.765 12.6793 232.326 12.5022C231.887 12.3212 231.508 12.0574 231.188 11.7108C230.872 11.3642 230.628 10.9425 230.454 10.4457C230.281 9.9451 230.195 9.37515 230.195 8.73589V8.15246C230.195 7.51705 230.273 6.95096 230.431 6.45418C230.593 5.95355 230.824 5.52994 231.125 5.18335C231.425 4.83676 231.787 4.5749 232.211 4.39775C232.638 4.21675 233.121 4.12626 233.66 4.12626C234.35 4.12626 234.92 4.24179 235.37 4.47284C235.825 4.70005 236.175 5.01583 236.422 5.42019C236.668 5.82454 236.824 6.28666 236.889 6.80654H235.468C235.422 6.51387 235.332 6.252 235.197 6.02094C235.066 5.78988 234.877 5.60889 234.631 5.47795C234.388 5.34317 234.072 5.27578 233.684 5.27578C233.348 5.27578 233.054 5.33932 232.8 5.4664C232.546 5.59348 232.334 5.78026 232.164 6.02672C231.999 6.27318 231.874 6.57356 231.789 6.92785C231.704 7.28214 231.662 7.68649 231.662 8.14091V8.73589C231.662 9.19801 231.71 9.60814 231.806 9.96628C231.906 10.3244 232.049 10.6267 232.234 10.8732C232.422 11.1197 232.651 11.3064 232.921 11.4335C233.191 11.5567 233.495 11.6184 233.834 11.6184C234.165 11.6184 234.436 11.5914 234.648 11.5375C234.86 11.4797 235.028 11.4123 235.151 11.3353C235.278 11.2544 235.376 11.1774 235.445 11.1042V9.43484H233.695V8.35464H236.889ZM244.052 7.75389V8.90341H239.587V7.75389H244.052ZM239.945 4.24179V12.6523H238.495V4.24179H239.945ZM245.167 4.24179V12.6523H243.723V4.24179H245.167ZM250.181 4.24179V12.6523H248.743V4.24179H250.181ZM252.821 4.24179V5.39708H246.126V4.24179H252.821Z" fill="#545454"/>
<path d="M219.629 4.24179H222.604C223.243 4.24179 223.788 4.33806 224.239 4.53061C224.69 4.72316 225.034 5.00813 225.273 5.38553C225.516 5.75908 225.637 6.22119 225.637 6.77188C225.637 7.19164 225.56 7.56134 225.406 7.88097C225.252 8.2006 225.034 8.47017 224.753 8.68968C224.472 8.90533 224.137 9.07285 223.748 9.19223L223.309 9.40596H220.634L220.623 8.25644H222.627C222.974 8.25644 223.263 8.19483 223.494 8.07159C223.725 7.94836 223.898 7.78084 224.014 7.56904C224.133 7.35338 224.193 7.11077 224.193 6.8412C224.193 6.54853 224.135 6.29436 224.019 6.07871C223.908 5.8592 223.734 5.69168 223.5 5.57615C223.265 5.45677 222.966 5.39708 222.604 5.39708H221.079V12.6523H219.629V4.24179ZM224.43 12.6523L222.454 8.87452L223.973 8.86875L225.978 12.5772V12.6523H224.43ZM228.629 4.24179V12.6523H227.179V4.24179H228.629ZM236.889 8.35464V11.5664C236.77 11.7243 236.583 11.8976 236.329 12.0862C236.079 12.2711 235.746 12.4309 235.33 12.5657C234.914 12.7005 234.396 12.7679 233.776 12.7679C233.248 12.7679 232.765 12.6793 232.326 12.5022C231.887 12.3212 231.508 12.0574 231.188 11.7108C230.872 11.3642 230.628 10.9425 230.454 10.4457C230.281 9.9451 230.195 9.37515 230.195 8.73589V8.15246C230.195 7.51705 230.273 6.95096 230.431 6.45418C230.593 5.95355 230.824 5.52994 231.125 5.18335C231.425 4.83676 231.787 4.5749 232.211 4.39775C232.638 4.21675 233.121 4.12626 233.66 4.12626C234.35 4.12626 234.92 4.24179 235.37 4.47284C235.825 4.70005 236.175 5.01583 236.422 5.42019C236.668 5.82454 236.824 6.28666 236.889 6.80654H235.468C235.422 6.51387 235.332 6.252 235.197 6.02094C235.066 5.78988 234.877 5.60889 234.631 5.47795C234.388 5.34317 234.072 5.27578 233.684 5.27578C233.348 5.27578 233.054 5.33932 232.8 5.4664C232.546 5.59348 232.334 5.78026 232.164 6.02672C231.999 6.27318 231.874 6.57356 231.789 6.92785C231.704 7.28214 231.662 7.68649 231.662 8.14091V8.73589C231.662 9.19801 231.71 9.60814 231.806 9.96628C231.906 10.3244 232.049 10.6267 232.234 10.8732C232.422 11.1197 232.651 11.3064 232.921 11.4335C233.191 11.5567 233.495 11.6184 233.834 11.6184C234.165 11.6184 234.436 11.5914 234.648 11.5375C234.86 11.4797 235.028 11.4123 235.151 11.3353C235.278 11.2544 235.376 11.1774 235.445 11.1042V9.43484H233.695V8.35464H236.889ZM244.052 7.75389V8.90341H239.587V7.75389H244.052ZM239.945 4.24179V12.6523H238.495V4.24179H239.945ZM245.167 4.24179V12.6523H243.723V4.24179H245.167ZM250.181 4.24179V12.6523H248.743V4.24179H250.181ZM252.821 4.24179V5.39708H246.126V4.24179H252.821Z" fill="#545454"/>
<path fill-rule="evenodd" clip-rule="evenodd" d="M42.8197 11.0242C44.1947 11.0242 45.3094 9.90956 45.3094 8.53456C45.3094 7.15957 44.1947 6.04492 42.8197 6.04492C41.4447 6.04492 40.3301 7.15957 40.3301 8.53456C40.3301 9.90956 41.4447 11.0242 42.8197 11.0242ZM42.8197 9.59757C42.2327 9.59757 41.7567 9.12162 41.7567 8.53456C41.7567 7.94751 42.2327 7.47156 42.8197 7.47156C43.4068 7.47156 43.8827 7.94751 43.8827 8.53456C43.8827 9.12162 43.4068 9.59757 42.8197 9.59757Z" fill="#545454"/>
<path fill-rule="evenodd" clip-rule="evenodd" d="M42.8249 3.55664C39.4026 3.55664 37.0751 5.41253 35.8463 6.74323C34.8989 7.76926 34.8989 9.30259 35.8463 10.3286C37.0751 11.6594 39.4026 13.5152 42.8249 13.5152C46.2472 13.5152 48.5748 11.6594 49.8035 10.3286C50.7509 9.30259 50.7509 7.76926 49.8035 6.74323C48.5748 5.41253 46.2472 3.55664 42.8249 3.55664ZM36.8915 7.70837C37.9796 6.53 39.9561 4.97929 42.8249 4.97929C45.6938 4.97929 47.6703 6.53 48.7583 7.70837C49.2025 8.18937 49.2025 8.88248 48.7583 9.36348C47.6703 10.5419 45.6938 12.0926 42.8249 12.0926C39.9561 12.0926 37.9796 10.5419 36.8915 9.36348C36.4473 8.88248 36.4473 8.18937 36.8915 7.70837Z" fill="#545454"/>
<path fill-rule="evenodd" clip-rule="evenodd" d="M265.029 11.0242C266.404 11.0242 267.518 9.90956 267.518 8.53456C267.518 7.15957 266.404 6.04492 265.029 6.04492C263.654 6.04492 262.539 7.15957 262.539 8.53456C262.539 9.90956 263.654 11.0242 265.029 11.0242ZM265.029 9.59757C264.442 9.59757 263.966 9.12162 263.966 8.53456C263.966 7.94751 264.442 7.47156 265.029 7.47156C265.616 7.47156 266.092 7.94751 266.092 8.53456C266.092 9.12162 265.616 9.59757 265.029 9.59757Z" fill="#545454"/>
<path fill-rule="evenodd" clip-rule="evenodd" d="M265.033 3.55664C261.611 3.55664 259.283 5.41253 258.054 6.74323C257.107 7.76926 257.107 9.30259 258.054 10.3286C259.283 11.6594 261.611 13.5152 265.033 13.5152C268.455 13.5152 270.783 11.6594 272.012 10.3286C272.959 9.30259 272.959 7.76926 272.012 6.74323C270.783 5.41253 268.455 3.55664 265.033 3.55664ZM259.1 7.70837C260.188 6.53 262.164 4.97929 265.033 4.97929C267.902 4.97929 269.878 6.53 270.966 7.70837C271.41 8.18937 271.41 8.88248 270.966 9.36348C269.878 10.5419 267.902 12.0926 265.033 12.0926C262.164 12.0926 260.188 10.5419 259.1 9.36348C258.655 8.88248 258.655 8.18937 259.1 7.70837Z" fill="#545454"/>
<path fill-rule="evenodd" clip-rule="evenodd" d="M265.033 3.55664C261.611 3.55664 259.283 5.41253 258.054 6.74323C257.107 7.76926 257.107 9.30259 258.054 10.3286C259.283 11.6594 261.611 13.5152 265.033 13.5152C268.455 13.5152 270.783 11.6594 272.012 10.3286C272.959 9.30259 272.959 7.76926 272.012 6.74323C270.783 5.41253 268.455 3.55664 265.033 3.55664ZM259.1 7.70837C260.188 6.53 262.164 4.97929 265.033 4.97929C267.902 4.97929 269.878 6.53 270.966 7.70837C271.41 8.18937 271.41 8.88248 270.966 9.36348C269.878 10.5419 267.902 12.0926 265.033 12.0926C262.164 12.0926 260.188 10.5419 259.1 9.36348C258.655 8.88248 258.655 8.18937 259.1 7.70837Z" fill="#545454"/>
<path fill-rule="evenodd" clip-rule="evenodd" d="M265.029 11.0242C266.404 11.0242 267.518 9.90956 267.518 8.53456C267.518 7.15957 266.404 6.04492 265.029 6.04492C263.654 6.04492 262.539 7.15957 262.539 8.53456C262.539 9.90956 263.654 11.0242 265.029 11.0242ZM265.029 9.59757C264.442 9.59757 263.966 9.12162 263.966 8.53456C263.966 7.94751 264.442 7.47156 265.029 7.47156C265.616 7.47156 266.092 7.94751 266.092 8.53456C266.092 9.12162 265.616 9.59757 265.029 9.59757Z" fill="#545454"/>
<line x1="103.678" y1="61.4035" x2="241.629" y2="61.4035" stroke="#FF0000" stroke-width="2.20282"/>
<line x1="167.009" y1="85.6339" x2="304.96" y2="85.6339" stroke="#F2FF00" stroke-width="2.20282"/>
<line x1="132.589" y1="136.85" x2="270.54" y2="136.85" stroke="#00EEFF" stroke-width="2.20282"/>
<circle cx="103.678" cy="61.4035" r="5.50704" fill="#FF0000"/>
<circle cx="241.629" cy="61.4035" r="5.50704" fill="#FF0000"/>
<circle cx="306.887" cy="85.0832" r="5.50704" fill="#F2FF00"/>
<circle cx="168.11" cy="85.0832" r="5.50704" fill="#F2FF00"/>
<circle cx="129.835" cy="136.85" r="5.50704" fill="#00EEFF"/>
<circle cx="270.541" cy="136.85" r="5.50704" fill="#00EEFF"/>
</g>
<defs>
<filter id="filter0_d_2089_2290" x="0" y="0" width="399" height="159.17" filterUnits="userSpaceOnUse" color-interpolation-filters="sRGB">
<feFlood flood-opacity="0" result="BackgroundImageFix"/>
<feColorMatrix in="SourceAlpha" type="matrix" values="0 0 0 0 0 0 0 0 0 0 0 0 0 0 0 0 0 0 127 0" result="hardAlpha"/>
<feOffset dy="4"/>
<feGaussianBlur stdDeviation="2"/>
<feComposite in2="hardAlpha" operator="out"/>
<feColorMatrix type="matrix" values="0 0 0 0 0 0 0 0 0 0 0 0 0 0 0 0 0 0 0.25 0"/>
<feBlend mode="normal" in2="BackgroundImageFix" result="effect1_dropShadow_2089_2290"/>
<feBlend mode="normal" in="SourceGraphic" in2="effect1_dropShadow_2089_2290" result="shape"/>
</filter>
</defs>
</svg>
