<svg width="362" height="307" viewBox="0 0 362 307" fill="none" xmlns="http://www.w3.org/2000/svg">
<g filter="url(#filter0_d_2089_2441)">
<mask id="mask0_2089_2441" style="mask-type:alpha" maskUnits="userSpaceOnUse" x="4" y="34" width="354" height="265">
<path d="M357.166 34.2031C357.166 122.469 357.166 210.734 357.166 299H4.10352C4.10352 210.734 4.10352 122.469 4.10352 34.2031H357.166Z" fill="#2DCC9F"/>
</mask>
<g mask="url(#mask0_2089_2441)">
<path d="M357.165 35.8574C357.165 124.123 357.165 212.389 357.165 300.654H4.10254C4.10254 212.389 4.10254 124.123 4.10254 35.8574H357.165Z" fill="#2DCC9F"/>
<path d="M357.165 35.8574C357.165 124.123 357.165 212.389 357.165 300.654H4.10254C4.10254 212.389 4.10254 124.123 4.10254 35.8574H357.165Z" fill="#2DCC9F"/>
<path d="M209.5 63.5425C202.387 62.0416 194.972 63.1441 188.604 66.6493C182.236 70.1545 177.338 75.8295 174.801 82.6416C172.264 89.4539 172.258 96.9504 174.782 103.767C177.306 110.584 182.194 116.267 188.556 119.784C194.918 123.301 202.331 124.417 209.446 122.929C216.561 121.441 222.906 117.448 227.325 111.676C231.744 105.905 233.945 98.7389 233.526 91.4818C233.107 84.2248 230.096 77.3593 225.043 72.1346C220.829 67.7925 215.418 64.8017 209.5 63.5425Z" fill="white"/>
<path d="M125.082 222.959C100.036 188.131 74.9817 153.307 49.9181 118.488C12.7546 170.179 -24.3998 221.856 -61.5449 273.519C-11.4449 273.519 38.6642 273.519 88.7826 273.519C100.882 256.675 112.991 239.835 125.109 223" fill="white"/>
<path d="M179.503 166.413C153.823 202.106 128.153 237.803 102.491 273.504C153.833 273.504 205.178 273.504 256.529 273.504C230.867 237.803 205.192 202.106 179.503 166.413Z" fill="white"/>
</g>
<mask id="mask1_2089_2441" style="mask-type:alpha" maskUnits="userSpaceOnUse" x="4" y="34" width="354" height="265">
<path d="M357.166 34.2031H4.10352V299H357.166V34.2031Z" fill="#D9D9D9"/>
</mask>
<g mask="url(#mask1_2089_2441)">
<path d="M357.166 34.2031C357.166 122.469 357.166 210.734 357.166 299H4.10352C4.10352 210.734 4.10352 122.469 4.10352 34.2031H357.166Z" fill="#2DCC9F" fill-opacity="0.5"/>
<path d="M363.675 63.731C356.563 62.2301 349.148 63.3326 342.78 66.8378C336.412 70.343 331.514 76.018 328.977 82.8301C326.44 89.642 326.433 97.1385 328.958 103.955C331.482 110.772 336.37 116.456 342.732 119.973C349.093 123.49 356.507 124.605 363.621 123.117C370.737 121.629 377.081 117.637 381.501 111.865C385.92 106.094 388.121 98.9275 387.701 91.6704C387.283 84.4133 384.272 77.5478 379.218 72.3231C375.004 67.981 369.594 64.9902 363.675 63.731Z" fill="white" fill-opacity="0.5"/>
<path d="M279.258 223.146C254.212 188.319 229.157 153.495 204.094 118.676C166.93 170.366 129.776 222.043 92.6309 273.706C142.731 273.706 192.84 273.706 242.958 273.706C255.058 256.862 267.167 240.023 279.285 223.188" fill="white" fill-opacity="0.5"/>
<path d="M333.679 166.602C307.999 202.294 282.329 237.991 256.667 273.693C308.008 273.693 359.354 273.693 410.704 273.693C385.043 237.991 359.368 202.294 333.679 166.602Z" fill="white" fill-opacity="0.5"/>
</g>
<path d="M15.2674 23.0065V25.3096H6.80753V23.0065H15.2674ZM7.61764 8.45924V25.3096H4.71281V8.45924H7.61764ZM28.5417 23.0065V25.3096H19.5957V23.0065H28.5417ZM20.4174 8.45924V25.3096H17.5126V8.45924H20.4174ZM27.3728 15.4956V17.764H19.5957V15.4956H27.3728ZM28.4838 8.45924V10.7738H19.5957V8.45924H28.4838ZM33.819 8.45924V25.3096H30.9141V8.45924H33.819ZM40.6933 15.8313V18.1343H33.0783V15.8313H40.6933ZM41.6539 8.45924V10.7738H33.0783V8.45924H41.6539ZM51.1322 8.45924V25.3096H48.2505V8.45924H51.1322ZM56.4211 8.45924V10.7738H43.008V8.45924H56.4211Z" fill="#545454"/>
<path fill-rule="evenodd" clip-rule="evenodd" d="M80.776 22.0891C83.5308 22.0891 85.764 19.856 85.764 17.1012C85.764 14.3464 83.5308 12.1133 80.776 12.1133C78.0213 12.1133 75.7881 14.3464 75.7881 17.1012C75.7881 19.856 78.0213 22.0891 80.776 22.0891ZM80.776 19.2309C79.5999 19.2309 78.6463 18.2774 78.6463 17.1012C78.6463 15.9251 79.5999 14.9715 80.776 14.9715C81.9522 14.9715 82.9057 15.9251 82.9057 17.1012C82.9057 18.2774 81.9522 19.2309 80.776 19.2309Z" fill="#545454"/>
<path fill-rule="evenodd" clip-rule="evenodd" d="M80.784 7.12598C73.9274 7.12598 69.2643 10.8442 66.8025 13.5102C64.9044 15.5658 64.9044 18.6378 66.8025 20.6934C69.2643 23.3596 73.9274 27.0777 80.784 27.0777C87.6405 27.0777 92.3037 23.3596 94.7654 20.6934C96.6635 18.6378 96.6635 15.5658 94.7654 13.5102C92.3037 10.8442 87.6405 7.12598 80.784 7.12598ZM68.8966 15.4439C71.0765 13.083 75.0363 9.97622 80.784 9.97622C86.5316 9.97622 90.4915 13.083 92.6713 15.4439C93.5612 16.4075 93.5612 17.7962 92.6713 18.7598C90.4915 21.1207 86.5316 24.2275 80.784 24.2275C75.0363 24.2275 71.0765 21.1207 68.8966 18.7598C68.0067 17.7962 68.0067 16.4075 68.8966 15.4439Z" fill="#545454"/>
<path d="M134.353 8.45924H140.314C141.594 8.45924 142.686 8.65213 143.589 9.03789C144.491 9.42366 145.182 9.9946 145.66 10.7507C146.146 11.4991 146.389 12.4249 146.389 13.5282C146.389 14.3692 146.235 15.1099 145.926 15.7503C145.618 16.3906 145.182 16.9307 144.619 17.3705C144.055 17.8025 143.384 18.1382 142.605 18.3773L141.725 18.8055H136.367L136.344 16.5025H140.36C141.054 16.5025 141.633 16.3791 142.096 16.1322C142.559 15.8853 142.906 15.5497 143.137 15.1253C143.377 14.6932 143.496 14.2072 143.496 13.6671C143.496 13.0807 143.38 12.5715 143.149 12.1395C142.925 11.6997 142.578 11.3641 142.107 11.1326C141.637 10.8934 141.039 10.7738 140.314 10.7738H137.258V25.3096H134.353V8.45924ZM143.971 25.3096L140.013 17.7408L143.056 17.7292L147.072 25.1591V25.3096H143.971ZM152.384 8.45924V25.3096H149.479V8.45924H152.384ZM168.934 16.6992V23.1338C168.694 23.4502 168.32 23.7974 167.811 24.1754C167.31 24.5458 166.642 24.8659 165.809 25.136C164.976 25.406 163.938 25.541 162.696 25.541C161.639 25.541 160.67 25.3636 159.791 25.0087C158.911 24.6461 158.151 24.1175 157.511 23.4232C156.878 22.7288 156.388 21.884 156.041 20.8887C155.694 19.8857 155.52 18.7438 155.52 17.4631V16.2942C155.52 15.0211 155.679 13.887 155.995 12.8917C156.319 11.8887 156.782 11.04 157.384 10.3456C157.986 9.65126 158.711 9.12662 159.559 8.77171C160.416 8.40909 161.384 8.22778 162.464 8.22778C163.845 8.22778 164.987 8.45924 165.89 8.92216C166.8 9.37737 167.502 10.01 167.996 10.8201C168.49 11.6303 168.802 12.5561 168.934 13.5977H166.087C165.994 13.0113 165.813 12.4867 165.543 12.0237C165.28 11.5608 164.902 11.1982 164.409 10.9359C163.923 10.6658 163.29 10.5308 162.511 10.5308C161.839 10.5308 161.249 10.6581 160.74 10.9127C160.231 11.1673 159.806 11.5415 159.467 12.0353C159.135 12.5291 158.884 13.1309 158.715 13.8407C158.545 14.5505 158.46 15.3606 158.46 16.271V17.4631C158.46 18.3889 158.556 19.2106 158.749 19.9281C158.95 20.6456 159.235 21.2513 159.606 21.7451C159.984 22.2389 160.443 22.6131 160.983 22.8677C161.523 23.1146 162.133 23.238 162.812 23.238C163.475 23.238 164.019 23.184 164.443 23.076C164.868 22.9602 165.203 22.8252 165.45 22.6709C165.705 22.5089 165.902 22.3546 166.04 22.208V18.8634H162.534V16.6992H168.934ZM183.284 15.4956V17.7987H174.338V15.4956H183.284ZM175.056 8.45924V25.3096H172.151V8.45924H175.056ZM185.518 8.45924V25.3096H182.625V8.45924H185.518ZM195.563 8.45924V25.3096H192.681V8.45924H195.563ZM200.852 8.45924V10.7738H187.439V8.45924H200.852Z" fill="#545454"/>
<path fill-rule="evenodd" clip-rule="evenodd" d="M225.311 22.0891C228.066 22.0891 230.299 19.856 230.299 17.1012C230.299 14.3464 228.066 12.1133 225.311 12.1133C222.556 12.1133 220.323 14.3464 220.323 17.1012C220.323 19.856 222.556 22.0891 225.311 22.0891ZM225.311 19.2309C224.135 19.2309 223.181 18.2774 223.181 17.1012C223.181 15.9251 224.135 14.9715 225.311 14.9715C226.487 14.9715 227.441 15.9251 227.441 17.1012C227.441 18.2774 226.487 19.2309 225.311 19.2309Z" fill="#545454"/>
<path fill-rule="evenodd" clip-rule="evenodd" d="M225.319 7.12598C218.463 7.12598 213.799 10.8442 211.338 13.5102C209.44 15.5658 209.44 18.6378 211.338 20.6934C213.799 23.3596 218.463 27.0777 225.319 27.0777C232.176 27.0777 236.839 23.3596 239.301 20.6934C241.199 18.6378 241.199 15.5658 239.301 13.5102C236.839 10.8442 232.176 7.12598 225.319 7.12598ZM213.432 15.4439C215.612 13.083 219.571 9.97622 225.319 9.97622C231.067 9.97622 235.027 13.083 237.206 15.4439C238.096 16.4075 238.096 17.7962 237.206 18.7598C235.027 21.1207 231.067 24.2275 225.319 24.2275C219.571 24.2275 215.612 21.1207 213.432 18.7598C212.542 17.7962 212.542 16.4075 213.432 15.4439Z" fill="#545454"/>
<path fill-rule="evenodd" clip-rule="evenodd" d="M225.319 7.12598C218.463 7.12598 213.799 10.8442 211.338 13.5102C209.44 15.5658 209.44 18.6378 211.338 20.6934C213.799 23.3596 218.463 27.0777 225.319 27.0777C232.176 27.0777 236.839 23.3596 239.301 20.6934C241.199 18.6378 241.199 15.5658 239.301 13.5102C236.839 10.8442 232.176 7.12598 225.319 7.12598ZM213.432 15.4439C215.612 13.083 219.571 9.97622 225.319 9.97622C231.067 9.97622 235.027 13.083 237.206 15.4439C238.096 16.4075 238.096 17.7962 237.206 18.7598C235.027 21.1207 231.067 24.2275 225.319 24.2275C219.571 24.2275 215.612 21.1207 213.432 18.7598C212.542 17.7962 212.542 16.4075 213.432 15.4439Z" fill="#545454"/>
<path fill-rule="evenodd" clip-rule="evenodd" d="M225.311 22.0891C228.066 22.0891 230.299 19.856 230.299 17.1012C230.299 14.3464 228.066 12.1133 225.311 12.1133C222.556 12.1133 220.323 14.3464 220.323 17.1012C220.323 19.856 222.556 22.0891 225.311 22.0891ZM225.311 19.2309C224.135 19.2309 223.181 18.2774 223.181 17.1012C223.181 15.9251 224.135 14.9715 225.311 14.9715C226.487 14.9715 227.441 15.9251 227.441 17.1012C227.441 18.2774 226.487 19.2309 225.311 19.2309Z" fill="#545454"/>
<path d="M333.444 167.981C334.206 167.981 334.823 167.363 334.823 166.602C334.823 165.84 334.206 165.222 333.444 165.222V167.981ZM179.659 165.626C179.121 166.165 179.121 167.038 179.659 167.577L188.436 176.354C188.975 176.892 189.848 176.892 190.386 176.354C190.925 175.815 190.925 174.942 190.386 174.403L182.585 166.602L190.386 158.8C190.925 158.261 190.925 157.388 190.386 156.849C189.848 156.311 188.975 156.311 188.436 156.849L179.659 165.626ZM333.444 165.222L180.634 165.222V167.981L333.444 167.981V165.222Z" fill="#545454"/>
<path d="M257.315 275.003C258.077 275.003 258.695 274.386 258.695 273.624C258.695 272.862 258.077 272.245 257.315 272.245L257.315 275.003ZM102.979 272.649C102.44 273.187 102.44 274.061 102.979 274.599L111.755 283.376C112.294 283.915 113.167 283.915 113.706 283.376C114.244 282.837 114.244 281.964 113.706 281.426L105.904 273.624L113.706 265.822C114.244 265.284 114.244 264.411 113.706 263.872C113.167 263.333 112.294 263.333 111.755 263.872L102.979 272.649ZM257.315 272.245L103.954 272.245L103.954 275.003L257.315 275.003L257.315 272.245Z" fill="#545454"/>
<path d="M204.356 121.089C205.118 121.089 205.736 120.472 205.736 119.71C205.736 118.948 205.118 118.331 204.356 118.331V121.089ZM49.468 118.735C48.9294 119.273 48.9294 120.147 49.468 120.685L58.2448 129.462C58.7834 130.001 59.6566 130.001 60.1952 129.462C60.7338 128.923 60.7338 128.05 60.1952 127.512L52.3936 119.71L60.1952 111.908C60.7338 111.37 60.7338 110.496 60.1952 109.958C59.6566 109.419 58.7834 109.419 58.2448 109.958L49.468 118.735ZM204.356 118.331L50.4432 118.331V121.089L204.356 121.089V118.331Z" fill="#545454"/>
<path d="M121.233 16.0743V18.5856H109.683V16.0743H121.233ZM116.812 11.3525V23.6199H114.115V11.3525H116.812Z" fill="#545454"/>
<path d="M111.199 102.945V104.714H102.209V103.194L106.575 98.4319C107.054 97.8915 107.431 97.4248 107.708 97.0318C107.984 96.6388 108.177 96.2857 108.288 95.9726C108.405 95.6532 108.463 95.3431 108.463 95.0422C108.463 94.6185 108.383 94.247 108.223 93.9277C108.07 93.6022 107.843 93.3474 107.542 93.1632C107.241 92.9728 106.875 92.8776 106.446 92.8776C105.948 92.8776 105.531 92.9851 105.193 93.2C104.855 93.415 104.6 93.7128 104.428 94.0935C104.256 94.4681 104.17 94.8979 104.17 95.3831H101.951C101.951 94.6032 102.129 93.8909 102.485 93.2461C102.841 92.5952 103.357 92.0793 104.032 91.6986C104.708 91.3118 105.521 91.1183 106.473 91.1183C107.37 91.1183 108.131 91.2688 108.758 91.5697C109.384 91.8706 109.86 92.2973 110.185 92.85C110.517 93.4027 110.683 94.0567 110.683 94.812C110.683 95.2295 110.615 95.644 110.48 96.0555C110.345 96.4669 110.152 96.8783 109.9 97.2897C109.654 97.695 109.362 98.1034 109.025 98.5148C108.687 98.9201 108.315 99.3315 107.91 99.7491L105.009 102.945H111.199ZM121.672 96.8845V99.0767C121.672 100.127 121.567 101.023 121.358 101.766C121.156 102.503 120.861 103.102 120.474 103.562C120.087 104.023 119.624 104.361 119.083 104.576C118.549 104.791 117.95 104.898 117.287 104.898C116.759 104.898 116.268 104.831 115.813 104.695C115.365 104.56 114.96 104.348 114.597 104.06C114.235 103.771 113.925 103.4 113.667 102.945C113.415 102.485 113.219 101.935 113.078 101.297C112.942 100.658 112.875 99.918 112.875 99.0767V96.8845C112.875 95.8283 112.979 94.9379 113.188 94.2132C113.397 93.4825 113.695 92.8899 114.082 92.4355C114.468 91.975 114.929 91.6403 115.463 91.4315C116.004 91.2227 116.605 91.1183 117.269 91.1183C117.803 91.1183 118.294 91.1859 118.742 91.321C119.197 91.4499 119.602 91.6556 119.958 91.9381C120.321 92.2206 120.628 92.589 120.879 93.0434C121.137 93.4917 121.334 94.0352 121.469 94.6738C121.604 95.3063 121.672 96.0432 121.672 96.8845ZM119.452 99.3899V96.5529C119.452 96.0186 119.421 95.5489 119.36 95.1436C119.298 94.7321 119.206 94.3852 119.083 94.1027C118.967 93.8141 118.819 93.5808 118.641 93.4027C118.463 93.2185 118.26 93.0864 118.033 93.0066C117.806 92.9206 117.551 92.8776 117.269 92.8776C116.925 92.8776 116.618 92.9452 116.348 93.0803C116.077 93.2092 115.85 93.418 115.666 93.7066C115.482 93.9953 115.34 94.376 115.242 94.8488C115.15 95.3155 115.104 95.8835 115.104 96.5529V99.3899C115.104 99.9303 115.135 100.406 115.196 100.818C115.258 101.229 115.35 101.582 115.472 101.877C115.595 102.165 115.743 102.405 115.915 102.595C116.093 102.78 116.295 102.915 116.523 103.001C116.756 103.087 117.011 103.13 117.287 103.13C117.637 103.13 117.947 103.062 118.217 102.927C118.488 102.792 118.715 102.577 118.899 102.282C119.083 101.981 119.221 101.591 119.313 101.112C119.406 100.633 119.452 100.059 119.452 99.3899ZM132.393 96.8845V99.0767C132.393 100.127 132.289 101.023 132.08 101.766C131.877 102.503 131.583 103.102 131.196 103.562C130.809 104.023 130.345 104.361 129.805 104.576C129.271 104.791 128.672 104.898 128.009 104.898C127.481 104.898 126.989 104.831 126.535 104.695C126.087 104.56 125.681 104.348 125.319 104.06C124.957 103.771 124.647 103.4 124.389 102.945C124.137 102.485 123.941 101.935 123.799 101.297C123.664 100.658 123.597 99.918 123.597 99.0767V96.8845C123.597 95.8283 123.701 94.9379 123.91 94.2132C124.119 93.4825 124.416 92.8899 124.803 92.4355C125.19 91.975 125.651 91.6403 126.185 91.4315C126.725 91.2227 127.327 91.1183 127.99 91.1183C128.525 91.1183 129.016 91.1859 129.464 91.321C129.918 91.4499 130.324 91.6556 130.68 91.9381C131.042 92.2206 131.349 92.589 131.601 93.0434C131.859 93.4917 132.055 94.0352 132.191 94.6738C132.326 95.3063 132.393 96.0432 132.393 96.8845ZM130.173 99.3899V96.5529C130.173 96.0186 130.143 95.5489 130.081 95.1436C130.02 94.7321 129.928 94.3852 129.805 94.1027C129.688 93.8141 129.541 93.5808 129.363 93.4027C129.185 93.2185 128.982 93.0864 128.755 93.0066C128.528 92.9206 128.273 92.8776 127.99 92.8776C127.646 92.8776 127.339 92.9452 127.069 93.0803C126.799 93.2092 126.572 93.418 126.388 93.7066C126.203 93.9953 126.062 94.376 125.964 94.8488C125.872 95.3155 125.826 95.8835 125.826 96.5529V99.3899C125.826 99.9303 125.856 100.406 125.918 100.818C125.979 101.229 126.071 101.582 126.194 101.877C126.317 102.165 126.464 102.405 126.636 102.595C126.814 102.78 127.017 102.915 127.244 103.001C127.478 103.087 127.732 103.13 128.009 103.13C128.359 103.13 128.669 103.062 128.939 102.927C129.209 102.792 129.436 102.577 129.621 102.282C129.805 101.981 129.943 101.591 130.035 101.112C130.127 100.633 130.173 100.059 130.173 99.3899ZM136.732 96.6634V108.546H134.512V94.7475H136.557L136.732 96.6634ZM143.225 99.6386V99.832C143.225 100.557 143.139 101.229 142.968 101.849C142.802 102.463 142.553 103.001 142.221 103.461C141.896 103.916 141.494 104.269 141.015 104.52C140.536 104.772 139.983 104.898 139.357 104.898C138.737 104.898 138.193 104.784 137.726 104.557C137.266 104.324 136.876 103.995 136.557 103.572C136.237 103.148 135.979 102.651 135.783 102.08C135.593 101.502 135.457 100.87 135.378 100.182V99.4359C135.457 98.7052 135.593 98.042 135.783 97.4463C135.979 96.8507 136.237 96.3379 136.557 95.9081C136.876 95.4782 137.266 95.1466 137.726 94.9133C138.187 94.6799 138.724 94.5633 139.338 94.5633C139.965 94.5633 140.52 94.6861 141.006 94.9317C141.491 95.1712 141.899 95.5151 142.231 95.9634C142.562 96.4055 142.811 96.9397 142.977 97.5661C143.143 98.1863 143.225 98.8771 143.225 99.6386ZM141.006 99.832V99.6386C141.006 99.178 140.963 98.7512 140.877 98.3582C140.791 97.9591 140.656 97.6091 140.471 97.3082C140.287 97.0073 140.051 96.7739 139.762 96.6081C139.48 96.4362 139.139 96.3502 138.74 96.3502C138.347 96.3502 138.009 96.4178 137.726 96.5529C137.444 96.6818 137.208 96.863 137.017 97.0963C136.827 97.3297 136.679 97.6029 136.575 97.9161C136.471 98.2231 136.397 98.5578 136.354 98.9201V100.707C136.428 101.149 136.554 101.554 136.732 101.923C136.91 102.291 137.161 102.586 137.487 102.807C137.819 103.022 138.242 103.13 138.758 103.13C139.157 103.13 139.498 103.044 139.78 102.872C140.063 102.7 140.293 102.463 140.471 102.162C140.656 101.855 140.791 101.502 140.877 101.103C140.963 100.704 141.006 100.28 141.006 99.832ZM146.661 94.7475L148.559 98.0543L150.493 94.7475H152.934L149.913 99.6386L153.054 104.714H150.613L148.586 101.269L146.56 104.714H144.11L147.241 99.6386L144.229 94.7475H146.661Z" fill="#676767"/>
<path d="M245.804 153.698V155.467H236.814V153.947L241.18 149.185C241.659 148.644 242.037 148.178 242.313 147.785C242.589 147.392 242.783 147.039 242.893 146.725C243.01 146.406 243.068 146.096 243.068 145.795C243.068 145.371 242.988 145 242.829 144.681C242.675 144.355 242.448 144.1 242.147 143.916C241.846 143.726 241.481 143.631 241.051 143.631C240.554 143.631 240.136 143.738 239.798 143.953C239.461 144.168 239.206 144.466 239.034 144.846C238.862 145.221 238.776 145.651 238.776 146.136H236.556C236.556 145.356 236.734 144.644 237.09 143.999C237.446 143.348 237.962 142.832 238.638 142.452C239.313 142.065 240.127 141.871 241.079 141.871C241.975 141.871 242.737 142.022 243.363 142.323C243.989 142.623 244.465 143.05 244.791 143.603C245.122 144.156 245.288 144.81 245.288 145.565C245.288 145.982 245.221 146.397 245.086 146.808C244.95 147.22 244.757 147.631 244.505 148.043C244.26 148.448 243.968 148.856 243.63 149.268C243.292 149.673 242.921 150.084 242.516 150.502L239.614 153.698H245.804ZM256.277 147.637V149.83C256.277 150.88 256.173 151.776 255.964 152.519C255.761 153.256 255.466 153.855 255.08 154.315C254.693 154.776 254.229 155.114 253.689 155.329C253.154 155.544 252.556 155.651 251.893 155.651C251.364 155.651 250.873 155.583 250.419 155.448C249.97 155.313 249.565 155.101 249.203 154.813C248.841 154.524 248.53 154.153 248.273 153.698C248.021 153.238 247.824 152.688 247.683 152.049C247.548 151.411 247.48 150.671 247.48 149.83V147.637C247.48 146.581 247.585 145.691 247.794 144.966C248.002 144.235 248.3 143.643 248.687 143.188C249.074 142.728 249.534 142.393 250.069 142.184C250.609 141.976 251.211 141.871 251.874 141.871C252.408 141.871 252.9 141.939 253.348 142.074C253.802 142.203 254.208 142.409 254.564 142.691C254.926 142.974 255.233 143.342 255.485 143.796C255.743 144.245 255.939 144.788 256.074 145.427C256.209 146.059 256.277 146.796 256.277 147.637ZM254.057 150.143V147.306C254.057 146.772 254.026 146.302 253.965 145.896C253.904 145.485 253.811 145.138 253.689 144.856C253.572 144.567 253.425 144.334 253.247 144.156C253.068 143.971 252.866 143.839 252.639 143.76C252.411 143.674 252.157 143.631 251.874 143.631C251.53 143.631 251.223 143.698 250.953 143.833C250.683 143.962 250.456 144.171 250.271 144.46C250.087 144.748 249.946 145.129 249.848 145.602C249.756 146.068 249.709 146.636 249.709 147.306V150.143C249.709 150.683 249.74 151.159 249.802 151.571C249.863 151.982 249.955 152.335 250.078 152.63C250.201 152.918 250.348 153.158 250.52 153.348C250.698 153.532 250.901 153.668 251.128 153.754C251.361 153.84 251.616 153.882 251.893 153.882C252.243 153.882 252.553 153.815 252.823 153.68C253.093 153.545 253.32 153.33 253.504 153.035C253.689 152.734 253.827 152.344 253.919 151.865C254.011 151.386 254.057 150.812 254.057 150.143ZM266.999 147.637V149.83C266.999 150.88 266.894 151.776 266.685 152.519C266.483 153.256 266.188 153.855 265.801 154.315C265.414 154.776 264.951 155.114 264.41 155.329C263.876 155.544 263.277 155.651 262.614 155.651C262.086 155.651 261.595 155.583 261.14 155.448C260.692 155.313 260.287 155.101 259.925 154.813C259.562 154.524 259.252 154.153 258.994 153.698C258.742 153.238 258.546 152.688 258.405 152.049C258.27 151.411 258.202 150.671 258.202 149.83V147.637C258.202 146.581 258.306 145.691 258.515 144.966C258.724 144.235 259.022 143.643 259.409 143.188C259.796 142.728 260.256 142.393 260.79 142.184C261.331 141.976 261.933 141.871 262.596 141.871C263.13 141.871 263.621 141.939 264.07 142.074C264.524 142.203 264.929 142.409 265.285 142.691C265.648 142.974 265.955 143.342 266.207 143.796C266.464 144.245 266.661 144.788 266.796 145.427C266.931 146.059 266.999 146.796 266.999 147.637ZM264.779 150.143V147.306C264.779 146.772 264.748 146.302 264.687 145.896C264.625 145.485 264.533 145.138 264.41 144.856C264.294 144.567 264.146 144.334 263.968 144.156C263.79 143.971 263.588 143.839 263.36 143.76C263.133 143.674 262.878 143.631 262.596 143.631C262.252 143.631 261.945 143.698 261.675 143.833C261.404 143.962 261.177 144.171 260.993 144.46C260.809 144.748 260.668 145.129 260.569 145.602C260.477 146.068 260.431 146.636 260.431 147.306V150.143C260.431 150.683 260.462 151.159 260.523 151.571C260.585 151.982 260.677 152.335 260.8 152.63C260.922 152.918 261.07 153.158 261.242 153.348C261.42 153.532 261.622 153.668 261.85 153.754C262.083 153.84 262.338 153.882 262.614 153.882C262.964 153.882 263.274 153.815 263.545 153.68C263.815 153.545 264.042 153.33 264.226 153.035C264.41 152.734 264.549 152.344 264.641 151.865C264.733 151.386 264.779 150.812 264.779 150.143ZM271.337 147.416V159.299H269.117V145.5H271.162L271.337 147.416ZM277.831 150.391V150.585C277.831 151.31 277.745 151.982 277.573 152.602C277.407 153.216 277.158 153.754 276.827 154.214C276.501 154.669 276.099 155.022 275.62 155.273C275.141 155.525 274.589 155.651 273.962 155.651C273.342 155.651 272.799 155.537 272.332 155.31C271.871 155.077 271.481 154.748 271.162 154.325C270.843 153.901 270.585 153.404 270.388 152.832C270.198 152.255 270.063 151.623 269.983 150.935V150.189C270.063 149.458 270.198 148.795 270.388 148.199C270.585 147.604 270.843 147.091 271.162 146.661C271.481 146.231 271.871 145.9 272.332 145.666C272.792 145.433 273.33 145.316 273.944 145.316C274.57 145.316 275.126 145.439 275.611 145.685C276.096 145.924 276.504 146.268 276.836 146.716C277.168 147.158 277.416 147.693 277.582 148.319C277.748 148.939 277.831 149.63 277.831 150.391ZM275.611 150.585V150.391C275.611 149.931 275.568 149.504 275.482 149.111C275.396 148.712 275.261 148.362 275.077 148.061C274.893 147.76 274.656 147.527 274.368 147.361C274.085 147.189 273.744 147.103 273.345 147.103C272.952 147.103 272.614 147.171 272.332 147.306C272.049 147.435 271.813 147.616 271.623 147.849C271.432 148.083 271.285 148.356 271.18 148.669C271.076 148.976 271.002 149.311 270.959 149.673V151.46C271.033 151.902 271.159 152.307 271.337 152.676C271.515 153.044 271.767 153.339 272.092 153.56C272.424 153.775 272.848 153.882 273.364 153.882C273.763 153.882 274.103 153.797 274.386 153.625C274.668 153.453 274.899 153.216 275.077 152.915C275.261 152.608 275.396 152.255 275.482 151.856C275.568 151.457 275.611 151.033 275.611 150.585ZM281.267 145.5L283.164 148.807L285.098 145.5H287.539L284.518 150.391L287.659 155.467H285.218L283.192 152.022L281.165 155.467H278.715L281.847 150.391L278.835 145.5H281.267Z" fill="#676767"/>
<path d="M164.158 259.617V261.386H155.168V259.866L159.535 255.104C160.014 254.563 160.391 254.097 160.667 253.704C160.944 253.311 161.137 252.958 161.248 252.644C161.364 252.325 161.423 252.015 161.423 251.714C161.423 251.29 161.343 250.919 161.183 250.6C161.03 250.274 160.803 250.019 160.502 249.835C160.201 249.645 159.835 249.55 159.406 249.55C158.908 249.55 158.491 249.657 158.153 249.872C157.815 250.087 157.56 250.385 157.388 250.765C157.216 251.14 157.13 251.57 157.13 252.055H154.911C154.911 251.275 155.089 250.563 155.445 249.918C155.801 249.267 156.317 248.751 156.992 248.371C157.668 247.984 158.481 247.79 159.433 247.79C160.33 247.79 161.091 247.941 161.718 248.242C162.344 248.542 162.82 248.969 163.145 249.522C163.477 250.075 163.643 250.729 163.643 251.484C163.643 251.901 163.575 252.316 163.44 252.727C163.305 253.139 163.112 253.55 162.86 253.962C162.614 254.367 162.322 254.775 161.985 255.187C161.647 255.592 161.275 256.003 160.87 256.421L157.969 259.617H164.158ZM174.631 253.556V255.749C174.631 256.799 174.527 257.695 174.318 258.438C174.116 259.175 173.821 259.774 173.434 260.234C173.047 260.695 172.584 261.033 172.043 261.248C171.509 261.463 170.91 261.57 170.247 261.57C169.719 261.57 169.228 261.502 168.773 261.367C168.325 261.232 167.92 261.02 167.557 260.732C167.195 260.443 166.885 260.072 166.627 259.617C166.375 259.157 166.179 258.607 166.038 257.968C165.902 257.33 165.835 256.59 165.835 255.749V253.556C165.835 252.5 165.939 251.61 166.148 250.885C166.357 250.154 166.655 249.562 167.042 249.107C167.428 248.647 167.889 248.312 168.423 248.103C168.964 247.895 169.565 247.79 170.229 247.79C170.763 247.79 171.254 247.858 171.702 247.993C172.157 248.122 172.562 248.328 172.918 248.61C173.281 248.892 173.588 249.261 173.839 249.715C174.097 250.164 174.294 250.707 174.429 251.346C174.564 251.978 174.631 252.715 174.631 253.556ZM172.412 256.062V253.225C172.412 252.69 172.381 252.221 172.32 251.815C172.258 251.404 172.166 251.057 172.043 250.775C171.926 250.486 171.779 250.253 171.601 250.075C171.423 249.89 171.22 249.758 170.993 249.678C170.766 249.593 170.511 249.55 170.229 249.55C169.885 249.55 169.578 249.617 169.307 249.752C169.037 249.881 168.81 250.09 168.626 250.379C168.442 250.667 168.3 251.048 168.202 251.521C168.11 251.987 168.064 252.555 168.064 253.225V256.062C168.064 256.602 168.095 257.078 168.156 257.489C168.218 257.901 168.31 258.254 168.432 258.549C168.555 258.837 168.703 259.077 168.875 259.267C169.053 259.451 169.255 259.587 169.482 259.672C169.716 259.758 169.971 259.801 170.247 259.801C170.597 259.801 170.907 259.734 171.177 259.599C171.448 259.464 171.675 259.249 171.859 258.954C172.043 258.653 172.181 258.263 172.273 257.784C172.366 257.305 172.412 256.731 172.412 256.062ZM185.353 253.556V255.749C185.353 256.799 185.249 257.695 185.04 258.438C184.837 259.175 184.543 259.774 184.156 260.234C183.769 260.695 183.305 261.033 182.765 261.248C182.231 261.463 181.632 261.57 180.969 261.57C180.441 261.57 179.949 261.502 179.495 261.367C179.047 261.232 178.641 261.02 178.279 260.732C177.917 260.443 177.607 260.072 177.349 259.617C177.097 259.157 176.9 258.607 176.759 257.968C176.624 257.33 176.557 256.59 176.557 255.749V253.556C176.557 252.5 176.661 251.61 176.87 250.885C177.079 250.154 177.376 249.562 177.763 249.107C178.15 248.647 178.611 248.312 179.145 248.103C179.685 247.895 180.287 247.79 180.95 247.79C181.485 247.79 181.976 247.858 182.424 247.993C182.878 248.122 183.284 248.328 183.64 248.61C184.002 248.892 184.309 249.261 184.561 249.715C184.819 250.164 185.015 250.707 185.151 251.346C185.286 251.978 185.353 252.715 185.353 253.556ZM183.133 256.062V253.225C183.133 252.69 183.103 252.221 183.041 251.815C182.98 251.404 182.888 251.057 182.765 250.775C182.648 250.486 182.501 250.253 182.323 250.075C182.145 249.89 181.942 249.758 181.715 249.678C181.488 249.593 181.233 249.55 180.95 249.55C180.606 249.55 180.299 249.617 180.029 249.752C179.759 249.881 179.532 250.09 179.348 250.379C179.163 250.667 179.022 251.048 178.924 251.521C178.832 251.987 178.786 252.555 178.786 253.225V256.062C178.786 256.602 178.816 257.078 178.878 257.489C178.939 257.901 179.031 258.254 179.154 258.549C179.277 258.837 179.424 259.077 179.596 259.267C179.774 259.451 179.977 259.587 180.204 259.672C180.438 259.758 180.692 259.801 180.969 259.801C181.319 259.801 181.629 259.734 181.899 259.599C182.169 259.464 182.396 259.249 182.581 258.954C182.765 258.653 182.903 258.263 182.995 257.784C183.087 257.305 183.133 256.731 183.133 256.062ZM189.692 253.335V265.218H187.472V251.419H189.517L189.692 253.335ZM196.185 256.31V256.504C196.185 257.228 196.099 257.901 195.927 258.521C195.762 259.135 195.513 259.672 195.181 260.133C194.856 260.587 194.454 260.941 193.975 261.192C193.496 261.444 192.943 261.57 192.317 261.57C191.697 261.57 191.153 261.456 190.686 261.229C190.226 260.996 189.836 260.667 189.517 260.244C189.197 259.82 188.939 259.322 188.743 258.751C188.552 258.174 188.417 257.542 188.338 256.854V256.108C188.417 255.377 188.552 254.714 188.743 254.118C188.939 253.523 189.197 253.01 189.517 252.58C189.836 252.15 190.226 251.819 190.686 251.585C191.147 251.352 191.684 251.235 192.298 251.235C192.925 251.235 193.48 251.358 193.966 251.604C194.451 251.843 194.859 252.187 195.191 252.635C195.522 253.077 195.771 253.612 195.937 254.238C196.102 254.858 196.185 255.549 196.185 256.31ZM193.966 256.504V256.31C193.966 255.85 193.923 255.423 193.837 255.03C193.751 254.631 193.615 254.281 193.431 253.98C193.247 253.679 193.011 253.446 192.722 253.28C192.44 253.108 192.099 253.022 191.7 253.022C191.307 253.022 190.969 253.09 190.686 253.225C190.404 253.354 190.167 253.535 189.977 253.768C189.787 254.002 189.639 254.275 189.535 254.588C189.431 254.895 189.357 255.23 189.314 255.592V257.379C189.388 257.821 189.513 258.226 189.692 258.595C189.87 258.963 190.121 259.258 190.447 259.479C190.778 259.694 191.202 259.801 191.718 259.801C192.117 259.801 192.458 259.715 192.74 259.544C193.023 259.372 193.253 259.135 193.431 258.834C193.615 258.527 193.751 258.174 193.837 257.775C193.923 257.376 193.966 256.952 193.966 256.504ZM199.621 251.419L201.519 254.726L203.453 251.419H205.894L202.873 256.31L206.014 261.386H203.573L201.546 257.941L199.52 261.386H197.07L200.201 256.31L197.189 251.419H199.621Z" fill="#676767"/>
</g>
<defs>
<filter id="filter0_d_2089_2441" x="-1" y="0" width="362.166" height="307" filterUnits="userSpaceOnUse" color-interpolation-filters="sRGB">
<feFlood flood-opacity="0" result="BackgroundImageFix"/>
<feColorMatrix in="SourceAlpha" type="matrix" values="0 0 0 0 0 0 0 0 0 0 0 0 0 0 0 0 0 0 127 0" result="hardAlpha"/>
<feOffset dy="4"/>
<feGaussianBlur stdDeviation="2"/>
<feComposite in2="hardAlpha" operator="out"/>
<feColorMatrix type="matrix" values="0 0 0 0 0 0 0 0 0 0 0 0 0 0 0 0 0 0 0.25 0"/>
<feBlend mode="normal" in2="BackgroundImageFix" result="effect1_dropShadow_2089_2441"/>
<feBlend mode="normal" in="SourceGraphic" in2="effect1_dropShadow_2089_2441" result="shape"/>
</filter>
</defs>
</svg>
