<svg width="265" height="237" viewBox="0 0 265 237" fill="none" xmlns="http://www.w3.org/2000/svg">
<rect x="44" y="1" width="220" height="204" rx="5" fill="#767676"/>
<mask id="path-2-inside-1_2090_2627" fill="white">
<rect x="44" y="73" width="96" height="60" rx="2"/>
</mask>
<rect x="44" y="73" width="96" height="60" rx="2" stroke="#00FF2F" stroke-width="6" mask="url(#path-2-inside-1_2090_2627)"/>
<mask id="path-3-inside-2_2090_2627" fill="white">
<rect x="170" y="73" width="94" height="60" rx="2"/>
</mask>
<rect x="170" y="73" width="94" height="60" rx="2" stroke="#00DDFF" stroke-width="6" mask="url(#path-3-inside-2_2090_2627)"/>
<path d="M182 225L264 225" stroke="black" stroke-width="2" stroke-linecap="round"/>
<path d="M44 225L124 225" stroke="black" stroke-width="2" stroke-linecap="round"/>
<path d="M16 91L16 1" stroke="black" stroke-width="2" stroke-linecap="round"/>
<path d="M16 205L16 115" stroke="black" stroke-width="2" stroke-linecap="round"/>
<path d="M137.77 229V228.125L140.477 225.32C140.766 225.016 141.004 224.749 141.191 224.52C141.382 224.288 141.523 224.068 141.617 223.859C141.711 223.651 141.758 223.43 141.758 223.195C141.758 222.93 141.695 222.701 141.57 222.508C141.445 222.313 141.275 222.163 141.059 222.059C140.842 221.952 140.599 221.898 140.328 221.898C140.042 221.898 139.792 221.957 139.578 222.074C139.365 222.191 139.201 222.357 139.086 222.57C138.971 222.784 138.914 223.034 138.914 223.32H137.762C137.762 222.833 137.874 222.408 138.098 222.043C138.322 221.678 138.629 221.396 139.02 221.195C139.41 220.992 139.854 220.891 140.352 220.891C140.854 220.891 141.297 220.991 141.68 221.191C142.065 221.389 142.366 221.66 142.582 222.004C142.798 222.345 142.906 222.73 142.906 223.16C142.906 223.457 142.85 223.747 142.738 224.031C142.629 224.315 142.438 224.632 142.164 224.98C141.891 225.327 141.51 225.747 141.023 226.242L139.434 227.906V227.965H143.035V229H137.77ZM144.516 229V228.125L147.223 225.32C147.512 225.016 147.75 224.749 147.938 224.52C148.128 224.288 148.27 224.068 148.363 223.859C148.457 223.651 148.504 223.43 148.504 223.195C148.504 222.93 148.441 222.701 148.316 222.508C148.191 222.313 148.021 222.163 147.805 222.059C147.589 221.952 147.345 221.898 147.074 221.898C146.788 221.898 146.538 221.957 146.324 222.074C146.111 222.191 145.947 222.357 145.832 222.57C145.717 222.784 145.66 223.034 145.66 223.32H144.508C144.508 222.833 144.62 222.408 144.844 222.043C145.068 221.678 145.375 221.396 145.766 221.195C146.156 220.992 146.6 220.891 147.098 220.891C147.6 220.891 148.043 220.991 148.426 221.191C148.811 221.389 149.112 221.66 149.328 222.004C149.544 222.345 149.652 222.73 149.652 223.16C149.652 223.457 149.596 223.747 149.484 224.031C149.375 224.315 149.184 224.632 148.91 224.98C148.637 225.327 148.257 225.747 147.77 226.242L146.18 227.906V227.965H149.781V229H144.516ZM154.047 229.133C153.43 229.13 152.902 228.967 152.465 228.645C152.027 228.322 151.693 227.852 151.461 227.234C151.229 226.617 151.113 225.874 151.113 225.004C151.113 224.137 151.229 223.396 151.461 222.781C151.695 222.167 152.031 221.698 152.469 221.375C152.909 221.052 153.435 220.891 154.047 220.891C154.659 220.891 155.184 221.053 155.621 221.379C156.059 221.702 156.393 222.171 156.625 222.785C156.859 223.397 156.977 224.137 156.977 225.004C156.977 225.876 156.861 226.621 156.629 227.238C156.397 227.853 156.063 228.323 155.625 228.648C155.188 228.971 154.661 229.133 154.047 229.133ZM154.047 228.09C154.589 228.09 155.012 227.826 155.316 227.297C155.624 226.768 155.777 226.004 155.777 225.004C155.777 224.34 155.707 223.779 155.566 223.32C155.428 222.859 155.229 222.51 154.969 222.273C154.711 222.034 154.404 221.914 154.047 221.914C153.508 221.914 153.085 222.18 152.777 222.711C152.47 223.242 152.315 224.007 152.312 225.004C152.312 225.671 152.382 226.234 152.52 226.695C152.66 227.154 152.859 227.501 153.117 227.738C153.375 227.973 153.685 228.09 154.047 228.09ZM158.378 231.25V223H159.519V223.973H159.616C159.684 223.848 159.782 223.703 159.909 223.539C160.037 223.375 160.214 223.232 160.44 223.109C160.667 222.984 160.966 222.922 161.339 222.922C161.823 222.922 162.256 223.044 162.636 223.289C163.016 223.534 163.314 223.887 163.53 224.348C163.749 224.809 163.858 225.363 163.858 226.012C163.858 226.66 163.75 227.216 163.534 227.68C163.318 228.141 163.021 228.496 162.644 228.746C162.266 228.993 161.835 229.117 161.351 229.117C160.986 229.117 160.688 229.056 160.456 228.934C160.227 228.811 160.047 228.668 159.917 228.504C159.787 228.34 159.687 228.194 159.616 228.066H159.546V231.25H158.378ZM159.522 226C159.522 226.422 159.584 226.792 159.706 227.109C159.828 227.427 160.006 227.676 160.237 227.855C160.469 228.033 160.753 228.121 161.089 228.121C161.438 228.121 161.729 228.029 161.964 227.844C162.198 227.656 162.375 227.402 162.495 227.082C162.618 226.762 162.679 226.401 162.679 226C162.679 225.604 162.619 225.249 162.499 224.934C162.382 224.618 162.205 224.37 161.968 224.188C161.733 224.005 161.44 223.914 161.089 223.914C160.75 223.914 160.464 224.001 160.229 224.176C159.998 224.35 159.822 224.594 159.702 224.906C159.582 225.219 159.522 225.583 159.522 226ZM165.853 223L167.177 225.336L168.513 223H169.79L167.919 226L169.806 229H168.528L167.177 226.758L165.829 229H164.548L166.415 226L164.571 223H165.853Z" fill="black"/>
<path d="M79.8047 140V148H78.5938V141.211H78.5469L76.6328 142.461V141.305L78.6289 140H79.8047ZM84.7539 148.133C84.1367 148.13 83.6094 147.967 83.1719 147.645C82.7344 147.322 82.3997 146.852 82.168 146.234C81.9362 145.617 81.8203 144.874 81.8203 144.004C81.8203 143.137 81.9362 142.396 82.168 141.781C82.4023 141.167 82.7383 140.698 83.1758 140.375C83.6159 140.052 84.1419 139.891 84.7539 139.891C85.3659 139.891 85.8906 140.053 86.3281 140.379C86.7656 140.702 87.1003 141.171 87.332 141.785C87.5664 142.397 87.6836 143.137 87.6836 144.004C87.6836 144.876 87.5677 145.621 87.3359 146.238C87.1042 146.853 86.7695 147.323 86.332 147.648C85.8945 147.971 85.3685 148.133 84.7539 148.133ZM84.7539 147.09C85.2956 147.09 85.7188 146.826 86.0234 146.297C86.3307 145.768 86.4844 145.004 86.4844 144.004C86.4844 143.34 86.4141 142.779 86.2734 142.32C86.1354 141.859 85.9362 141.51 85.6758 141.273C85.418 141.034 85.1107 140.914 84.7539 140.914C84.2148 140.914 83.7917 141.18 83.4844 141.711C83.1771 142.242 83.0221 143.007 83.0195 144.004C83.0195 144.671 83.0885 145.234 83.2266 145.695C83.3672 146.154 83.5664 146.501 83.8242 146.738C84.082 146.973 84.3919 147.09 84.7539 147.09ZM91.8545 148.133C91.2373 148.13 90.71 147.967 90.2725 147.645C89.835 147.322 89.5003 146.852 89.2686 146.234C89.0368 145.617 88.9209 144.874 88.9209 144.004C88.9209 143.137 89.0368 142.396 89.2686 141.781C89.5029 141.167 89.8389 140.698 90.2764 140.375C90.7165 140.052 91.2425 139.891 91.8545 139.891C92.4665 139.891 92.9912 140.053 93.4287 140.379C93.8662 140.702 94.2008 141.171 94.4326 141.785C94.667 142.397 94.7842 143.137 94.7842 144.004C94.7842 144.876 94.6683 145.621 94.4365 146.238C94.2048 146.853 93.8701 147.323 93.4326 147.648C92.9951 147.971 92.4691 148.133 91.8545 148.133ZM91.8545 147.09C92.3962 147.09 92.8193 146.826 93.124 146.297C93.4313 145.768 93.585 145.004 93.585 144.004C93.585 143.34 93.5146 142.779 93.374 142.32C93.236 141.859 93.0368 141.51 92.7764 141.273C92.5186 141.034 92.2113 140.914 91.8545 140.914C91.3154 140.914 90.8923 141.18 90.585 141.711C90.2777 142.242 90.1227 143.007 90.1201 144.004C90.1201 144.671 90.1891 145.234 90.3271 145.695C90.4678 146.154 90.667 146.501 90.9248 146.738C91.1826 146.973 91.4925 147.09 91.8545 147.09ZM96.1855 150.25V142H97.3262V142.973H97.4238C97.4915 142.848 97.5892 142.703 97.7168 142.539C97.8444 142.375 98.0215 142.232 98.248 142.109C98.4746 141.984 98.7741 141.922 99.1465 141.922C99.6309 141.922 100.063 142.044 100.443 142.289C100.824 142.534 101.122 142.887 101.338 143.348C101.557 143.809 101.666 144.363 101.666 145.012C101.666 145.66 101.558 146.216 101.342 146.68C101.126 147.141 100.829 147.496 100.451 147.746C100.074 147.993 99.6426 148.117 99.1582 148.117C98.7936 148.117 98.4954 148.056 98.2637 147.934C98.0345 147.811 97.8548 147.668 97.7246 147.504C97.5944 147.34 97.4941 147.194 97.4238 147.066H97.3535V150.25H96.1855ZM97.3301 145C97.3301 145.422 97.3913 145.792 97.5137 146.109C97.6361 146.427 97.8132 146.676 98.0449 146.855C98.2767 147.033 98.5605 147.121 98.8965 147.121C99.2454 147.121 99.5371 147.029 99.7715 146.844C100.006 146.656 100.183 146.402 100.303 146.082C100.425 145.762 100.486 145.401 100.486 145C100.486 144.604 100.426 144.249 100.307 143.934C100.189 143.618 100.012 143.37 99.7754 143.188C99.541 143.005 99.248 142.914 98.8965 142.914C98.5579 142.914 98.2715 143.001 98.0371 143.176C97.8053 143.35 97.6296 143.594 97.5098 143.906C97.39 144.219 97.3301 144.583 97.3301 145ZM103.66 142L104.984 144.336L106.32 142H107.598L105.727 145L107.613 148H106.336L104.984 145.758L103.637 148H102.355L104.223 145L102.379 142H103.66Z" fill="#00FF2F"/>
<path d="M203.805 140V148H202.594V141.211H202.547L200.633 142.461V141.305L202.629 140H203.805ZM208.754 148.133C208.137 148.13 207.609 147.967 207.172 147.645C206.734 147.322 206.4 146.852 206.168 146.234C205.936 145.617 205.82 144.874 205.82 144.004C205.82 143.137 205.936 142.396 206.168 141.781C206.402 141.167 206.738 140.698 207.176 140.375C207.616 140.052 208.142 139.891 208.754 139.891C209.366 139.891 209.891 140.053 210.328 140.379C210.766 140.702 211.1 141.171 211.332 141.785C211.566 142.397 211.684 143.137 211.684 144.004C211.684 144.876 211.568 145.621 211.336 146.238C211.104 146.853 210.77 147.323 210.332 147.648C209.895 147.971 209.368 148.133 208.754 148.133ZM208.754 147.09C209.296 147.09 209.719 146.826 210.023 146.297C210.331 145.768 210.484 145.004 210.484 144.004C210.484 143.34 210.414 142.779 210.273 142.32C210.135 141.859 209.936 141.51 209.676 141.273C209.418 141.034 209.111 140.914 208.754 140.914C208.215 140.914 207.792 141.18 207.484 141.711C207.177 142.242 207.022 143.007 207.02 144.004C207.02 144.671 207.089 145.234 207.227 145.695C207.367 146.154 207.566 146.501 207.824 146.738C208.082 146.973 208.392 147.09 208.754 147.09ZM215.854 148.133C215.237 148.13 214.71 147.967 214.272 147.645C213.835 147.322 213.5 146.852 213.269 146.234C213.037 145.617 212.921 144.874 212.921 144.004C212.921 143.137 213.037 142.396 213.269 141.781C213.503 141.167 213.839 140.698 214.276 140.375C214.716 140.052 215.243 139.891 215.854 139.891C216.466 139.891 216.991 140.053 217.429 140.379C217.866 140.702 218.201 141.171 218.433 141.785C218.667 142.397 218.784 143.137 218.784 144.004C218.784 144.876 218.668 145.621 218.437 146.238C218.205 146.853 217.87 147.323 217.433 147.648C216.995 147.971 216.469 148.133 215.854 148.133ZM215.854 147.09C216.396 147.09 216.819 146.826 217.124 146.297C217.431 145.768 217.585 145.004 217.585 144.004C217.585 143.34 217.515 142.779 217.374 142.32C217.236 141.859 217.037 141.51 216.776 141.273C216.519 141.034 216.211 140.914 215.854 140.914C215.315 140.914 214.892 141.18 214.585 141.711C214.278 142.242 214.123 143.007 214.12 144.004C214.12 144.671 214.189 145.234 214.327 145.695C214.468 146.154 214.667 146.501 214.925 146.738C215.183 146.973 215.493 147.09 215.854 147.09ZM220.186 150.25V142H221.326V142.973H221.424C221.492 142.848 221.589 142.703 221.717 142.539C221.844 142.375 222.021 142.232 222.248 142.109C222.475 141.984 222.774 141.922 223.146 141.922C223.631 141.922 224.063 142.044 224.443 142.289C224.824 142.534 225.122 142.887 225.338 143.348C225.557 143.809 225.666 144.363 225.666 145.012C225.666 145.66 225.558 146.216 225.342 146.68C225.126 147.141 224.829 147.496 224.451 147.746C224.074 147.993 223.643 148.117 223.158 148.117C222.794 148.117 222.495 148.056 222.264 147.934C222.035 147.811 221.855 147.668 221.725 147.504C221.594 147.34 221.494 147.194 221.424 147.066H221.354V150.25H220.186ZM221.33 145C221.33 145.422 221.391 145.792 221.514 146.109C221.636 146.427 221.813 146.676 222.045 146.855C222.277 147.033 222.561 147.121 222.896 147.121C223.245 147.121 223.537 147.029 223.771 146.844C224.006 146.656 224.183 146.402 224.303 146.082C224.425 145.762 224.486 145.401 224.486 145C224.486 144.604 224.426 144.249 224.307 143.934C224.189 143.618 224.012 143.37 223.775 143.188C223.541 143.005 223.248 142.914 222.896 142.914C222.558 142.914 222.271 143.001 222.037 143.176C221.805 143.35 221.63 143.594 221.51 143.906C221.39 144.219 221.33 144.583 221.33 145ZM227.66 142L228.984 144.336L230.32 142H231.598L229.727 145L231.613 148H230.336L228.984 145.758L227.637 148H226.355L228.223 145L226.379 142H227.66Z" fill="#00DDFF"/>
<path d="M107.563 107.109C107.206 107.104 106.854 107.039 106.508 106.914C106.164 106.789 105.852 106.581 105.57 106.289C105.289 105.997 105.064 105.605 104.895 105.113C104.728 104.621 104.645 104.007 104.645 103.27C104.645 102.572 104.714 101.952 104.852 101.41C104.992 100.868 105.194 100.411 105.457 100.039C105.72 99.6641 106.038 99.3789 106.41 99.1836C106.783 98.9883 107.201 98.8906 107.664 98.8906C108.141 98.8906 108.564 98.9844 108.934 99.1719C109.303 99.3594 109.603 99.6185 109.832 99.9492C110.064 100.28 110.211 100.656 110.273 101.078H109.082C109.001 100.745 108.841 100.473 108.602 100.262C108.362 100.051 108.049 99.9453 107.664 99.9453C107.078 99.9453 106.621 100.201 106.293 100.711C105.967 101.221 105.803 101.931 105.801 102.84H105.859C105.997 102.613 106.167 102.421 106.367 102.262C106.57 102.1 106.797 101.977 107.047 101.891C107.299 101.802 107.565 101.758 107.844 101.758C108.307 101.758 108.727 101.871 109.102 102.098C109.479 102.322 109.78 102.632 110.004 103.027C110.228 103.423 110.34 103.876 110.34 104.387C110.34 104.897 110.224 105.359 109.992 105.773C109.763 106.187 109.44 106.516 109.023 106.758C108.607 106.997 108.12 107.115 107.563 107.109ZM107.559 106.094C107.866 106.094 108.141 106.018 108.383 105.867C108.625 105.716 108.816 105.513 108.957 105.258C109.098 105.003 109.168 104.717 109.168 104.402C109.168 104.095 109.099 103.815 108.961 103.562C108.826 103.31 108.638 103.109 108.398 102.961C108.161 102.812 107.891 102.738 107.586 102.738C107.354 102.738 107.139 102.783 106.941 102.871C106.746 102.96 106.574 103.082 106.426 103.238C106.277 103.395 106.16 103.574 106.074 103.777C105.991 103.978 105.949 104.19 105.949 104.414C105.949 104.714 106.018 104.991 106.156 105.246C106.297 105.501 106.488 105.707 106.73 105.863C106.975 106.017 107.251 106.094 107.559 106.094ZM114.548 107.133C113.931 107.13 113.403 106.967 112.966 106.645C112.528 106.322 112.194 105.852 111.962 105.234C111.73 104.617 111.614 103.874 111.614 103.004C111.614 102.137 111.73 101.396 111.962 100.781C112.196 100.167 112.532 99.6979 112.97 99.375C113.41 99.0521 113.936 98.8906 114.548 98.8906C115.16 98.8906 115.685 99.0534 116.122 99.3789C116.56 99.7018 116.894 100.171 117.126 100.785C117.36 101.397 117.478 102.137 117.478 103.004C117.478 103.876 117.362 104.621 117.13 105.238C116.898 105.853 116.563 106.323 116.126 106.648C115.688 106.971 115.162 107.133 114.548 107.133ZM114.548 106.09C115.09 106.09 115.513 105.826 115.817 105.297C116.125 104.768 116.278 104.004 116.278 103.004C116.278 102.34 116.208 101.779 116.067 101.32C115.929 100.859 115.73 100.51 115.47 100.273C115.212 100.034 114.905 99.9141 114.548 99.9141C114.009 99.9141 113.586 100.18 113.278 100.711C112.971 101.242 112.816 102.007 112.813 103.004C112.813 103.671 112.882 104.234 113.021 104.695C113.161 105.154 113.36 105.501 113.618 105.738C113.876 105.973 114.186 106.09 114.548 106.09ZM118.879 109.25V101H120.02V101.973H120.117C120.185 101.848 120.283 101.703 120.41 101.539C120.538 101.375 120.715 101.232 120.941 101.109C121.168 100.984 121.467 100.922 121.84 100.922C122.324 100.922 122.757 101.044 123.137 101.289C123.517 101.534 123.815 101.887 124.031 102.348C124.25 102.809 124.359 103.363 124.359 104.012C124.359 104.66 124.251 105.216 124.035 105.68C123.819 106.141 123.522 106.496 123.145 106.746C122.767 106.993 122.336 107.117 121.852 107.117C121.487 107.117 121.189 107.056 120.957 106.934C120.728 106.811 120.548 106.668 120.418 106.504C120.288 106.34 120.188 106.194 120.117 106.066H120.047V109.25H118.879ZM120.023 104C120.023 104.422 120.085 104.792 120.207 105.109C120.329 105.427 120.507 105.676 120.738 105.855C120.97 106.033 121.254 106.121 121.59 106.121C121.939 106.121 122.23 106.029 122.465 105.844C122.699 105.656 122.876 105.402 122.996 105.082C123.118 104.762 123.18 104.401 123.18 104C123.18 103.604 123.12 103.249 123 102.934C122.883 102.618 122.706 102.37 122.469 102.188C122.234 102.005 121.941 101.914 121.59 101.914C121.251 101.914 120.965 102.001 120.73 102.176C120.499 102.35 120.323 102.594 120.203 102.906C120.083 103.219 120.023 103.583 120.023 104ZM126.354 101L127.678 103.336L129.014 101H130.291L128.42 104L130.307 107H129.029L127.678 104.758L126.33 107H125.049L126.916 104L125.072 101H126.354Z" fill="#00FF2F"/>
<path d="M181.563 107.109C181.206 107.104 180.854 107.039 180.508 106.914C180.164 106.789 179.852 106.581 179.57 106.289C179.289 105.997 179.064 105.605 178.895 105.113C178.728 104.621 178.645 104.007 178.645 103.27C178.645 102.572 178.714 101.952 178.852 101.41C178.992 100.868 179.194 100.411 179.457 100.039C179.72 99.6641 180.038 99.3789 180.41 99.1836C180.783 98.9883 181.201 98.8906 181.664 98.8906C182.141 98.8906 182.564 98.9844 182.934 99.1719C183.303 99.3594 183.603 99.6185 183.832 99.9492C184.064 100.28 184.211 100.656 184.273 101.078H183.082C183.001 100.745 182.841 100.473 182.602 100.262C182.362 100.051 182.049 99.9453 181.664 99.9453C181.078 99.9453 180.621 100.201 180.293 100.711C179.967 101.221 179.803 101.931 179.801 102.84H179.859C179.997 102.613 180.167 102.421 180.367 102.262C180.57 102.1 180.797 101.977 181.047 101.891C181.299 101.802 181.565 101.758 181.844 101.758C182.307 101.758 182.727 101.871 183.102 102.098C183.479 102.322 183.78 102.632 184.004 103.027C184.228 103.423 184.34 103.876 184.34 104.387C184.34 104.897 184.224 105.359 183.992 105.773C183.763 106.187 183.44 106.516 183.023 106.758C182.607 106.997 182.12 107.115 181.563 107.109ZM181.559 106.094C181.866 106.094 182.141 106.018 182.383 105.867C182.625 105.716 182.816 105.513 182.957 105.258C183.098 105.003 183.168 104.717 183.168 104.402C183.168 104.095 183.099 103.815 182.961 103.562C182.826 103.31 182.638 103.109 182.398 102.961C182.161 102.812 181.891 102.738 181.586 102.738C181.354 102.738 181.139 102.783 180.941 102.871C180.746 102.96 180.574 103.082 180.426 103.238C180.277 103.395 180.16 103.574 180.074 103.777C179.991 103.978 179.949 104.19 179.949 104.414C179.949 104.714 180.018 104.991 180.156 105.246C180.297 105.501 180.488 105.707 180.73 105.863C180.975 106.017 181.251 106.094 181.559 106.094ZM188.548 107.133C187.931 107.13 187.403 106.967 186.966 106.645C186.528 106.322 186.194 105.852 185.962 105.234C185.73 104.617 185.614 103.874 185.614 103.004C185.614 102.137 185.73 101.396 185.962 100.781C186.196 100.167 186.532 99.6979 186.97 99.375C187.41 99.0521 187.936 98.8906 188.548 98.8906C189.16 98.8906 189.685 99.0534 190.122 99.3789C190.56 99.7018 190.894 100.171 191.126 100.785C191.36 101.397 191.478 102.137 191.478 103.004C191.478 103.876 191.362 104.621 191.13 105.238C190.898 105.853 190.563 106.323 190.126 106.648C189.688 106.971 189.162 107.133 188.548 107.133ZM188.548 106.09C189.09 106.09 189.513 105.826 189.817 105.297C190.125 104.768 190.278 104.004 190.278 103.004C190.278 102.34 190.208 101.779 190.067 101.32C189.929 100.859 189.73 100.51 189.47 100.273C189.212 100.034 188.905 99.9141 188.548 99.9141C188.009 99.9141 187.586 100.18 187.278 100.711C186.971 101.242 186.816 102.007 186.813 103.004C186.813 103.671 186.882 104.234 187.021 104.695C187.161 105.154 187.36 105.501 187.618 105.738C187.876 105.973 188.186 106.09 188.548 106.09ZM192.879 109.25V101H194.02V101.973H194.117C194.185 101.848 194.283 101.703 194.41 101.539C194.538 101.375 194.715 101.232 194.941 101.109C195.168 100.984 195.467 100.922 195.84 100.922C196.324 100.922 196.757 101.044 197.137 101.289C197.517 101.534 197.815 101.887 198.031 102.348C198.25 102.809 198.359 103.363 198.359 104.012C198.359 104.66 198.251 105.216 198.035 105.68C197.819 106.141 197.522 106.496 197.145 106.746C196.767 106.993 196.336 107.117 195.852 107.117C195.487 107.117 195.189 107.056 194.957 106.934C194.728 106.811 194.548 106.668 194.418 106.504C194.288 106.34 194.188 106.194 194.117 106.066H194.047V109.25H192.879ZM194.023 104C194.023 104.422 194.085 104.792 194.207 105.109C194.329 105.427 194.507 105.676 194.738 105.855C194.97 106.033 195.254 106.121 195.59 106.121C195.939 106.121 196.23 106.029 196.465 105.844C196.699 105.656 196.876 105.402 196.996 105.082C197.118 104.762 197.18 104.401 197.18 104C197.18 103.604 197.12 103.249 197 102.934C196.883 102.618 196.706 102.37 196.469 102.188C196.234 102.005 195.941 101.914 195.59 101.914C195.251 101.914 194.965 102.001 194.73 102.176C194.499 102.35 194.323 102.594 194.203 102.906C194.083 103.219 194.023 103.583 194.023 104ZM200.354 101L201.678 103.336L203.014 101H204.291L202.42 104L204.307 107H203.029L201.678 104.758L200.33 107H199.049L200.916 104L199.072 101H200.354Z" fill="#00DDFF"/>
<path d="M0.769531 107V106.125L3.47656 103.32C3.76563 103.016 4.00391 102.749 4.19141 102.52C4.38151 102.288 4.52344 102.068 4.61719 101.859C4.71094 101.651 4.75781 101.43 4.75781 101.195C4.75781 100.93 4.69531 100.701 4.57031 100.508C4.44531 100.313 4.27474 100.163 4.05859 100.059C3.84245 99.9518 3.59896 99.8984 3.32812 99.8984C3.04167 99.8984 2.79167 99.957 2.57812 100.074C2.36458 100.191 2.20052 100.357 2.08594 100.57C1.97135 100.784 1.91406 101.034 1.91406 101.32H0.761719C0.761719 100.833 0.873698 100.408 1.09766 100.043C1.32161 99.6784 1.62891 99.3958 2.01953 99.1953C2.41016 98.9922 2.85417 98.8906 3.35156 98.8906C3.85417 98.8906 4.29688 98.9909 4.67969 99.1914C5.0651 99.3893 5.36589 99.6602 5.58203 100.004C5.79818 100.345 5.90625 100.73 5.90625 101.16C5.90625 101.457 5.85026 101.747 5.73828 102.031C5.62891 102.315 5.4375 102.632 5.16406 102.98C4.89063 103.327 4.51042 103.747 4.02344 104.242L2.43359 105.906V105.965H6.03516V107H0.769531ZM10.3008 107.133C9.68359 107.13 9.15625 106.967 8.71875 106.645C8.28125 106.322 7.94661 105.852 7.71484 105.234C7.48307 104.617 7.36719 103.874 7.36719 103.004C7.36719 102.137 7.48307 101.396 7.71484 100.781C7.94922 100.167 8.28516 99.6979 8.72266 99.375C9.16276 99.0521 9.6888 98.8906 10.3008 98.8906C10.9128 98.8906 11.4375 99.0534 11.875 99.3789C12.3125 99.7018 12.6471 100.171 12.8789 100.785C13.1133 101.397 13.2305 102.137 13.2305 103.004C13.2305 103.876 13.1146 104.621 12.8828 105.238C12.651 105.853 12.3164 106.323 11.8789 106.648C11.4414 106.971 10.9154 107.133 10.3008 107.133ZM10.3008 106.09C10.8424 106.09 11.2656 105.826 11.5703 105.297C11.8776 104.768 12.0312 104.004 12.0312 103.004C12.0312 102.34 11.9609 101.779 11.8203 101.32C11.6823 100.859 11.4831 100.51 11.2227 100.273C10.9648 100.034 10.6576 99.9141 10.3008 99.9141C9.76172 99.9141 9.33854 100.18 9.03125 100.711C8.72396 101.242 8.56901 102.007 8.56641 103.004C8.56641 103.671 8.63542 104.234 8.77344 104.695C8.91406 105.154 9.11328 105.501 9.37109 105.738C9.62891 105.973 9.9388 106.09 10.3008 106.09ZM14.4482 105.438V104.461L17.9053 99H18.6748V100.437H18.1865L15.7139 104.352V104.414H20.4521V105.438H14.4482ZM18.2412 107V105.141L18.249 104.695V99H19.3936V107H18.2412ZM21.8291 109.25V101H22.9697V101.973H23.0674C23.1351 101.848 23.2327 101.703 23.3604 101.539C23.488 101.375 23.665 101.232 23.8916 101.109C24.1182 100.984 24.4176 100.922 24.79 100.922C25.2744 100.922 25.7067 101.044 26.0869 101.289C26.4671 101.534 26.7653 101.887 26.9814 102.348C27.2002 102.809 27.3096 103.363 27.3096 104.012C27.3096 104.66 27.2015 105.216 26.9854 105.68C26.7692 106.141 26.4723 106.496 26.0947 106.746C25.7171 106.993 25.2861 107.117 24.8018 107.117C24.4372 107.117 24.139 107.056 23.9072 106.934C23.6781 106.811 23.4984 106.668 23.3682 106.504C23.238 106.34 23.1377 106.194 23.0674 106.066H22.9971V109.25H21.8291ZM22.9736 104C22.9736 104.422 23.0348 104.792 23.1572 105.109C23.2796 105.427 23.4567 105.676 23.6885 105.855C23.9202 106.033 24.2041 106.121 24.54 106.121C24.889 106.121 25.1807 106.029 25.415 105.844C25.6494 105.656 25.8265 105.402 25.9463 105.082C26.0687 104.762 26.1299 104.401 26.1299 104C26.1299 103.604 26.07 103.249 25.9502 102.934C25.833 102.618 25.6559 102.37 25.4189 102.188C25.1846 102.005 24.8916 101.914 24.54 101.914C24.2015 101.914 23.915 102.001 23.6807 102.176C23.4489 102.35 23.2731 102.594 23.1533 102.906C23.0335 103.219 22.9736 103.583 22.9736 104ZM29.3037 101L30.6279 103.336L31.9639 101H33.2412L31.3701 104L33.2568 107H31.9795L30.6279 104.758L29.2803 107H27.999L29.8662 104L28.0225 101H29.3037Z" fill="black"/>
</svg>
