<svg width="399" height="159" viewBox="0 0 399 159" fill="none" xmlns="http://www.w3.org/2000/svg">
<g filter="url(#filter0_d_2089_2221)">
<mask id="mask0_2089_2221" style="mask-type:alpha" maskUnits="userSpaceOnUse" x="218" y="18" width="177" height="133">
<path d="M394.565 18.9775C394.565 62.9848 394.565 106.992 394.565 150.999H218.536C218.536 106.992 218.536 62.9848 218.536 18.9775H394.565Z" fill="#2DCC9F"/>
</mask>
<g mask="url(#mask0_2089_2221)">
<path d="M394.565 19.8037C394.565 63.811 394.565 107.818 394.565 151.826H218.536C218.536 107.818 218.536 63.811 218.536 19.8037H394.565Z" fill="#2DCC9F"/>
<path d="M394.565 19.8037C394.565 63.811 394.565 107.818 394.565 151.826H218.536C218.536 107.818 218.536 63.811 218.536 19.8037H394.565Z" fill="#2DCC9F"/>
<path d="M320.942 33.6073C317.396 32.8589 313.699 33.4086 310.524 35.1562C307.349 36.9038 304.907 39.7333 303.643 43.1296C302.378 46.5261 302.374 50.2637 303.633 53.6621C304.892 57.0609 307.328 59.8947 310.5 61.6481C313.672 63.4015 317.368 63.9579 320.915 63.2158C324.463 62.474 327.626 60.4833 329.83 57.6057C332.033 54.7282 333.13 51.1554 332.921 47.5371C332.712 43.919 331.211 40.496 328.692 37.8911C326.591 35.7262 323.893 34.235 320.942 33.6073Z" fill="white"/>
<path d="M278.854 113.088C266.367 95.7233 253.875 78.361 241.379 61.001C222.85 86.7727 204.325 112.538 185.806 138.296C210.784 138.296 235.768 138.296 260.756 138.296C266.788 129.898 272.825 121.502 278.867 113.108" fill="white"/>
<path d="M305.986 84.8955C293.183 102.691 280.384 120.489 267.59 138.289C293.188 138.289 318.787 138.289 344.389 138.289C331.595 120.489 318.794 102.691 305.986 84.8955Z" fill="white"/>
</g>
<mask id="mask1_2089_2221" style="mask-type:alpha" maskUnits="userSpaceOnUse" x="4" y="18" width="177" height="133">
<path d="M180.029 18.9775H4V150.999H180.029V18.9775Z" fill="#D9D9D9"/>
</mask>
<g mask="url(#mask1_2089_2221)">
<path d="M180.029 18.9775C180.029 62.9848 180.029 106.992 180.029 150.999H4C4 106.992 4 62.9848 4 18.9775H180.029Z" fill="#2DCC9F"/>
<path d="M183.274 33.6991C179.728 32.9507 176.031 33.5004 172.856 35.248C169.681 36.9956 167.239 39.8251 165.975 43.2214C164.71 46.6177 164.706 50.3553 165.965 53.754C167.224 57.1527 169.66 59.9865 172.832 61.7399C176.004 63.4934 179.7 64.0495 183.247 63.3077C186.795 62.5659 189.958 60.5751 192.162 57.6976C194.365 54.8201 195.462 51.2472 195.253 47.629C195.044 44.0108 193.543 40.5878 191.024 37.9829C188.923 35.818 186.225 34.3268 183.274 33.6991Z" fill="white"/>
<path d="M141.186 113.18C128.699 95.816 116.207 78.4538 103.711 61.0938C85.1817 86.8655 66.6573 112.63 48.1377 138.388C73.1165 138.388 98.0997 138.388 123.088 138.388C129.12 129.99 135.157 121.595 141.199 113.201" fill="white"/>
<path d="M168.319 84.9883C155.516 102.784 142.717 120.581 129.923 138.381C155.521 138.381 181.12 138.381 206.722 138.381C193.928 120.581 181.127 102.784 168.319 84.9883Z" fill="white"/>
</g>
<path d="M10.1163 11.5022V12.6504H5.89835V11.5022H10.1163ZM6.30225 4.2492V12.6504H4.85397V4.2492H6.30225ZM16.7345 11.5022V12.6504H12.2743V11.5022H16.7345ZM12.6839 4.2492V12.6504H11.2356V4.2492H12.6839ZM16.1517 7.75739V8.88832H12.2743V7.75739H16.1517ZM16.7057 4.2492V5.40321H12.2743V4.2492H16.7057ZM19.3656 4.2492V12.6504H17.9174V4.2492H19.3656ZM22.7931 7.92472V9.07296H18.9964V7.92472H22.7931ZM23.272 4.2492V5.40321H18.9964V4.2492H23.272ZM27.9976 4.2492V12.6504H26.5609V4.2492H27.9976ZM30.6346 4.2492V5.40321H23.9471V4.2492H30.6346Z" fill="#545454"/>
<path d="M219.389 4.2492H222.361C222.999 4.2492 223.544 4.34536 223.994 4.5377C224.444 4.73003 224.788 5.01469 225.026 5.39167C225.269 5.7648 225.39 6.2264 225.39 6.77648C225.39 7.19577 225.313 7.56505 225.159 7.88433C225.005 8.2036 224.788 8.47287 224.507 8.69214C224.226 8.90755 223.892 9.07488 223.503 9.19413L223.065 9.40762H220.393L220.382 8.25938H222.384C222.73 8.25938 223.018 8.19783 223.249 8.07474C223.48 7.95165 223.653 7.78431 223.769 7.57275C223.888 7.35733 223.947 7.11499 223.947 6.84572C223.947 6.55337 223.89 6.29949 223.774 6.08407C223.663 5.86481 223.49 5.69748 223.255 5.58208C223.02 5.46283 222.722 5.40321 222.361 5.40321H220.837V12.6504H219.389V4.2492ZM224.184 12.6504L222.211 8.87678L223.728 8.87101L225.73 12.5754V12.6504H224.184ZM228.379 4.2492V12.6504H226.931V4.2492H228.379ZM236.63 8.35747V11.5656C236.511 11.7233 236.324 11.8964 236.07 12.0849C235.82 12.2696 235.488 12.4292 235.072 12.5638C234.657 12.6985 234.139 12.7658 233.52 12.7658C232.993 12.7658 232.51 12.6773 232.072 12.5004C231.633 12.3196 231.254 12.0561 230.935 11.7099C230.62 11.3637 230.375 10.9425 230.202 10.4462C230.029 9.94616 229.943 9.37685 229.943 8.7383V8.15552C229.943 7.52082 230.021 6.95535 230.179 6.45913C230.341 5.95905 230.571 5.53592 230.872 5.18971C231.172 4.84351 231.533 4.58194 231.956 4.40499C232.383 4.22419 232.866 4.1338 233.405 4.1338C234.093 4.1338 234.662 4.2492 235.113 4.48C235.566 4.70695 235.916 5.02238 236.163 5.42629C236.409 5.83019 236.565 6.29179 236.63 6.8111H235.211C235.164 6.51875 235.074 6.25717 234.939 6.02637C234.809 5.79557 234.62 5.61478 234.374 5.48399C234.132 5.34935 233.816 5.28204 233.428 5.28204C233.093 5.28204 232.799 5.34551 232.545 5.47245C232.291 5.59939 232.079 5.78595 231.91 6.03214C231.745 6.27833 231.62 6.57837 231.535 6.93227C231.45 7.28617 231.408 7.69007 231.408 8.14398V8.7383C231.408 9.1999 231.456 9.60957 231.552 9.96732C231.652 10.3251 231.795 10.627 231.979 10.8732C232.168 11.1194 232.397 11.306 232.666 11.4329C232.935 11.556 233.239 11.6176 233.578 11.6176C233.908 11.6176 234.18 11.5906 234.391 11.5368C234.603 11.4791 234.77 11.4118 234.893 11.3348C235.02 11.254 235.118 11.1771 235.188 11.104V9.43647H233.439V8.35747H236.63ZM243.785 7.75739V8.90563H239.325V7.75739H243.785ZM239.682 4.2492V12.6504H238.234V4.2492H239.682ZM244.899 4.2492V12.6504H243.456V4.2492H244.899ZM249.907 4.2492V12.6504H248.47V4.2492H249.907ZM252.544 4.2492V5.40321H245.856V4.2492H252.544Z" fill="#545454"/>
<path d="M219.389 4.2492H222.361C222.999 4.2492 223.544 4.34536 223.994 4.5377C224.444 4.73003 224.788 5.01469 225.026 5.39167C225.269 5.7648 225.39 6.2264 225.39 6.77648C225.39 7.19577 225.313 7.56505 225.159 7.88433C225.005 8.2036 224.788 8.47287 224.507 8.69214C224.226 8.90755 223.892 9.07488 223.503 9.19413L223.065 9.40762H220.393L220.382 8.25938H222.384C222.73 8.25938 223.018 8.19783 223.249 8.07474C223.48 7.95165 223.653 7.78431 223.769 7.57275C223.888 7.35733 223.947 7.11499 223.947 6.84572C223.947 6.55337 223.89 6.29949 223.774 6.08407C223.663 5.86481 223.49 5.69748 223.255 5.58208C223.02 5.46283 222.722 5.40321 222.361 5.40321H220.837V12.6504H219.389V4.2492ZM224.184 12.6504L222.211 8.87678L223.728 8.87101L225.73 12.5754V12.6504H224.184ZM228.379 4.2492V12.6504H226.931V4.2492H228.379ZM236.63 8.35747V11.5656C236.511 11.7233 236.324 11.8964 236.07 12.0849C235.82 12.2696 235.488 12.4292 235.072 12.5638C234.657 12.6985 234.139 12.7658 233.52 12.7658C232.993 12.7658 232.51 12.6773 232.072 12.5004C231.633 12.3196 231.254 12.0561 230.935 11.7099C230.62 11.3637 230.375 10.9425 230.202 10.4462C230.029 9.94616 229.943 9.37685 229.943 8.7383V8.15552C229.943 7.52082 230.021 6.95535 230.179 6.45913C230.341 5.95905 230.571 5.53592 230.872 5.18971C231.172 4.84351 231.533 4.58194 231.956 4.40499C232.383 4.22419 232.866 4.1338 233.405 4.1338C234.093 4.1338 234.662 4.2492 235.113 4.48C235.566 4.70695 235.916 5.02238 236.163 5.42629C236.409 5.83019 236.565 6.29179 236.63 6.8111H235.211C235.164 6.51875 235.074 6.25717 234.939 6.02637C234.809 5.79557 234.62 5.61478 234.374 5.48399C234.132 5.34935 233.816 5.28204 233.428 5.28204C233.093 5.28204 232.799 5.34551 232.545 5.47245C232.291 5.59939 232.079 5.78595 231.91 6.03214C231.745 6.27833 231.62 6.57837 231.535 6.93227C231.45 7.28617 231.408 7.69007 231.408 8.14398V8.7383C231.408 9.1999 231.456 9.60957 231.552 9.96732C231.652 10.3251 231.795 10.627 231.979 10.8732C232.168 11.1194 232.397 11.306 232.666 11.4329C232.935 11.556 233.239 11.6176 233.578 11.6176C233.908 11.6176 234.18 11.5906 234.391 11.5368C234.603 11.4791 234.77 11.4118 234.893 11.3348C235.02 11.254 235.118 11.1771 235.188 11.104V9.43647H233.439V8.35747H236.63ZM243.785 7.75739V8.90563H239.325V7.75739H243.785ZM239.682 4.2492V12.6504H238.234V4.2492H239.682ZM244.899 4.2492V12.6504H243.456V4.2492H244.899ZM249.907 4.2492V12.6504H248.47V4.2492H249.907ZM252.544 4.2492V5.40321H245.856V4.2492H252.544Z" fill="#545454"/>
<path fill-rule="evenodd" clip-rule="evenodd" d="M42.7769 11.0128C44.1504 11.0128 45.2638 9.8994 45.2638 8.52593C45.2638 7.15247 44.1504 6.03906 42.7769 6.03906C41.4035 6.03906 40.29 7.15247 40.29 8.52593C40.29 9.8994 41.4035 11.0128 42.7769 11.0128ZM42.7769 9.58776C42.1905 9.58776 41.7151 9.11234 41.7151 8.52593C41.7151 7.93953 42.1905 7.46411 42.7769 7.46411C43.3633 7.46411 43.8387 7.93953 43.8387 8.52593C43.8387 9.11234 43.3633 9.58776 42.7769 9.58776Z" fill="#545454"/>
<path fill-rule="evenodd" clip-rule="evenodd" d="M42.7812 3.55273C39.3627 3.55273 37.0377 5.40655 35.8104 6.73577C34.864 7.76066 34.864 9.29229 35.8104 10.3172C37.0377 11.6464 39.3627 13.5002 42.7812 13.5002C46.1997 13.5002 48.5247 11.6464 49.752 10.3172C50.6984 9.29229 50.6984 7.76066 49.752 6.73577C48.5247 5.40655 46.1997 3.55273 42.7812 3.55273ZM36.8544 7.69984C37.9413 6.52278 39.9155 4.9738 42.7812 4.9738C45.6469 4.9738 47.6211 6.52278 48.708 7.69984C49.1516 8.1803 49.1516 8.87265 48.708 9.35311C47.6211 10.5302 45.6469 12.0791 42.7812 12.0791C39.9155 12.0791 37.9413 10.5302 36.8544 9.35311C36.4107 8.87265 36.4107 8.1803 36.8544 7.69984Z" fill="#545454"/>
<path fill-rule="evenodd" clip-rule="evenodd" d="M264.739 11.0128C266.112 11.0128 267.226 9.8994 267.226 8.52593C267.226 7.15247 266.112 6.03906 264.739 6.03906C263.365 6.03906 262.252 7.15247 262.252 8.52593C262.252 9.8994 263.365 11.0128 264.739 11.0128ZM264.739 9.58776C264.152 9.58776 263.677 9.11234 263.677 8.52593C263.677 7.93953 264.152 7.46411 264.739 7.46411C265.325 7.46411 265.801 7.93953 265.801 8.52593C265.801 9.11234 265.325 9.58776 264.739 9.58776Z" fill="#545454"/>
<path fill-rule="evenodd" clip-rule="evenodd" d="M264.743 3.55273C261.325 3.55273 259 5.40655 257.772 6.73577C256.826 7.76066 256.826 9.29229 257.772 10.3172C259 11.6464 261.325 13.5002 264.743 13.5002C268.162 13.5002 270.487 11.6464 271.714 10.3172C272.66 9.29229 272.66 7.76066 271.714 6.73577C270.487 5.40655 268.162 3.55273 264.743 3.55273ZM258.816 7.69984C259.903 6.52278 261.877 4.9738 264.743 4.9738C267.609 4.9738 269.583 6.52278 270.67 7.69984C271.114 8.1803 271.114 8.87265 270.67 9.35311C269.583 10.5302 267.609 12.0791 264.743 12.0791C261.877 12.0791 259.903 10.5302 258.816 9.35311C258.373 8.87265 258.373 8.1803 258.816 7.69984Z" fill="#545454"/>
<path fill-rule="evenodd" clip-rule="evenodd" d="M264.743 3.55273C261.325 3.55273 259 5.40655 257.772 6.73577C256.826 7.76066 256.826 9.29229 257.772 10.3172C259 11.6464 261.325 13.5002 264.743 13.5002C268.162 13.5002 270.487 11.6464 271.714 10.3172C272.66 9.29229 272.66 7.76066 271.714 6.73577C270.487 5.40655 268.162 3.55273 264.743 3.55273ZM258.816 7.69984C259.903 6.52278 261.877 4.9738 264.743 4.9738C267.609 4.9738 269.583 6.52278 270.67 7.69984C271.114 8.1803 271.114 8.87265 270.67 9.35311C269.583 10.5302 267.609 12.0791 264.743 12.0791C261.877 12.0791 259.903 10.5302 258.816 9.35311C258.373 8.87265 258.373 8.1803 258.816 7.69984Z" fill="#545454"/>
<path fill-rule="evenodd" clip-rule="evenodd" d="M264.739 11.0128C266.112 11.0128 267.226 9.8994 267.226 8.52593C267.226 7.15247 266.112 6.03906 264.739 6.03906C263.365 6.03906 262.252 7.15247 262.252 8.52593C262.252 9.8994 263.365 11.0128 264.739 11.0128ZM264.739 9.58776C264.152 9.58776 263.677 9.11234 263.677 8.52593C263.677 7.93953 264.152 7.46411 264.739 7.46411C265.325 7.46411 265.801 7.93953 265.801 8.52593C265.801 9.11234 265.325 9.58776 264.739 9.58776Z" fill="#545454"/>
</g>
<defs>
<filter id="filter0_d_2089_2221" x="0" y="0" width="398.565" height="158.999" filterUnits="userSpaceOnUse" color-interpolation-filters="sRGB">
<feFlood flood-opacity="0" result="BackgroundImageFix"/>
<feColorMatrix in="SourceAlpha" type="matrix" values="0 0 0 0 0 0 0 0 0 0 0 0 0 0 0 0 0 0 127 0" result="hardAlpha"/>
<feOffset dy="4"/>
<feGaussianBlur stdDeviation="2"/>
<feComposite in2="hardAlpha" operator="out"/>
<feColorMatrix type="matrix" values="0 0 0 0 0 0 0 0 0 0 0 0 0 0 0 0 0 0 0.25 0"/>
<feBlend mode="normal" in2="BackgroundImageFix" result="effect1_dropShadow_2089_2221"/>
<feBlend mode="normal" in="SourceGraphic" in2="effect1_dropShadow_2089_2221" result="shape"/>
</filter>
</defs>
</svg>
