<svg width="395" height="134" viewBox="0 0 395 134" fill="none" xmlns="http://www.w3.org/2000/svg">
<path d="M0.690722 3.4536C0.690722 1.92771 1.92771 0.690722 3.45361 0.690722H33.8454V33.8454H0.690722V3.4536Z" fill="white" stroke="#757575" stroke-width="1.38144"/>
<rect x="33.845" y="0.690722" width="33.1546" height="33.1546" fill="white" stroke="#757575" stroke-width="1.38144"/>
<rect x="67.0003" y="0.690722" width="33.1546" height="33.1546" fill="white" stroke="#757575" stroke-width="1.38144"/>
<path d="M100.155 0.690722H130.546C132.072 0.690722 133.309 1.92771 133.309 3.45361V33.8454H100.155V0.690722Z" fill="white" stroke="#757575" stroke-width="1.38144"/>
<rect x="0.690722" y="33.845" width="33.1546" height="33.1546" fill="white" stroke="#757575" stroke-width="1.38144"/>
<rect x="33.845" y="33.845" width="33.1546" height="33.1546" fill="white" stroke="#757575" stroke-width="1.38144"/>
<rect x="67.0003" y="33.845" width="33.1546" height="33.1546" fill="white" stroke="#757575" stroke-width="1.38144"/>
<rect x="100.155" y="33.845" width="33.1546" height="33.1546" fill="white" stroke="#757575" stroke-width="1.38144"/>
<rect x="0.690722" y="67.0003" width="33.1546" height="33.1546" fill="white" stroke="#757575" stroke-width="1.38144"/>
<rect x="33.845" y="67.0003" width="33.1546" height="33.1546" fill="white" stroke="#757575" stroke-width="1.38144"/>
<rect x="67.0003" y="67.0003" width="33.1546" height="33.1546" fill="white" stroke="#757575" stroke-width="1.38144"/>
<rect x="100.155" y="67.0003" width="33.1546" height="33.1546" fill="white" stroke="#757575" stroke-width="1.38144"/>
<path d="M0.690722 100.155H33.8454V133.309H3.4536C1.92771 133.309 0.690722 132.072 0.690722 130.546V100.155Z" fill="white" stroke="#757575" stroke-width="1.38144"/>
<rect x="33.845" y="100.155" width="33.1546" height="33.1546" fill="white" stroke="#757575" stroke-width="1.38144"/>
<rect x="67.0003" y="100.155" width="33.1546" height="33.1546" fill="white" stroke="#757575" stroke-width="1.38144"/>
<path d="M100.155 100.155H133.309V130.546C133.309 132.072 132.072 133.309 130.546 133.309H100.155V100.155Z" fill="white" stroke="#757575" stroke-width="1.38144"/>
<path d="M20.3076 16.1689V17.8438C20.3076 18.6094 20.2301 19.2633 20.0752 19.8057C19.9202 20.348 19.6969 20.7923 19.4053 21.1387C19.1136 21.4805 18.765 21.7334 18.3594 21.8975C17.9538 22.057 17.5026 22.1367 17.0059 22.1367C16.6094 22.1367 16.2402 22.0866 15.8984 21.9863C15.5566 21.8815 15.249 21.722 14.9756 21.5078C14.7067 21.2891 14.4743 21.0111 14.2783 20.6738C14.0869 20.3366 13.9388 19.9333 13.834 19.4639C13.7337 18.9945 13.6836 18.4544 13.6836 17.8438V16.1689C13.6836 15.4033 13.7611 14.7516 13.916 14.2139C14.0755 13.6761 14.3011 13.2363 14.5928 12.8945C14.8844 12.5527 15.2331 12.3044 15.6387 12.1494C16.0443 11.9899 16.4954 11.9102 16.9922 11.9102C17.3932 11.9102 17.7624 11.9603 18.0996 12.0605C18.4414 12.1608 18.7467 12.318 19.0156 12.5322C19.2891 12.7419 19.5215 13.0153 19.7129 13.3525C19.9043 13.6852 20.0501 14.0863 20.1504 14.5557C20.2552 15.0205 20.3076 15.5583 20.3076 16.1689ZM18.5029 18.0898V15.916C18.5029 15.5332 18.4801 15.2005 18.4346 14.918C18.3936 14.6309 18.332 14.387 18.25 14.1865C18.168 13.986 18.0654 13.8242 17.9424 13.7012C17.8193 13.5736 17.6781 13.4801 17.5186 13.4209C17.359 13.3617 17.1836 13.332 16.9922 13.332C16.7552 13.332 16.5433 13.3799 16.3564 13.4756C16.1696 13.5667 16.0124 13.7126 15.8848 13.9131C15.7572 14.1136 15.6592 14.3802 15.5908 14.7129C15.527 15.041 15.4951 15.4421 15.4951 15.916V18.0898C15.4951 18.4727 15.5156 18.8076 15.5566 19.0947C15.6022 19.3818 15.666 19.6279 15.748 19.833C15.8346 20.0381 15.9372 20.2067 16.0557 20.3389C16.1787 20.4665 16.32 20.5622 16.4795 20.626C16.639 20.6852 16.8145 20.7148 17.0059 20.7148C17.2474 20.7148 17.4593 20.667 17.6416 20.5713C17.8285 20.4756 17.9857 20.3252 18.1133 20.1201C18.2409 19.9105 18.3366 19.6393 18.4004 19.3066C18.4688 18.9694 18.5029 18.5638 18.5029 18.0898Z" fill="#757575"/>
<path d="M80.7422 11.9648H80.9883V13.4209H80.8721C80.3206 13.4209 79.8353 13.5052 79.416 13.6738C79.0013 13.8424 78.6549 14.0794 78.377 14.3848C78.1035 14.6855 77.8962 15.0433 77.7549 15.458C77.6136 15.8682 77.543 16.3171 77.543 16.8047V18.418C77.543 18.7962 77.5817 19.1289 77.6592 19.416C77.7412 19.6986 77.8529 19.9378 77.9941 20.1338C78.14 20.3252 78.3086 20.4688 78.5 20.5645C78.696 20.6602 78.9102 20.708 79.1426 20.708C79.375 20.708 79.5846 20.6602 79.7715 20.5645C79.9583 20.4688 80.1178 20.3343 80.25 20.1611C80.3867 19.9834 80.4893 19.776 80.5576 19.5391C80.6305 19.3021 80.667 19.0423 80.667 18.7598C80.667 18.4818 80.6328 18.2243 80.5645 17.9873C80.4961 17.7503 80.3958 17.543 80.2637 17.3652C80.1315 17.1829 79.9674 17.0439 79.7715 16.9482C79.5801 16.848 79.3613 16.7979 79.1152 16.7979C78.7962 16.7979 78.5114 16.873 78.2607 17.0234C78.0101 17.1693 77.8118 17.3607 77.666 17.5977C77.5202 17.8346 77.4404 18.0853 77.4268 18.3496L76.8184 18.0488C76.8411 17.6615 76.9232 17.306 77.0645 16.9824C77.2103 16.6589 77.404 16.3763 77.6455 16.1348C77.8916 15.8932 78.181 15.7064 78.5137 15.5742C78.8509 15.4421 79.2246 15.376 79.6348 15.376C80.1087 15.376 80.5234 15.4671 80.8789 15.6494C81.2344 15.8271 81.5283 16.071 81.7607 16.3809C81.9977 16.6908 82.1755 17.0485 82.2939 17.4541C82.4124 17.8551 82.4717 18.279 82.4717 18.7256C82.4717 19.2041 82.3942 19.6507 82.2393 20.0654C82.0889 20.4801 81.8701 20.8424 81.583 21.1523C81.2959 21.4622 80.9495 21.7038 80.5439 21.877C80.1383 22.0501 79.6826 22.1367 79.1768 22.1367C78.6436 22.1367 78.165 22.0365 77.7412 21.8359C77.3219 21.6354 76.9619 21.3574 76.6611 21.002C76.3604 20.6465 76.1302 20.2318 75.9707 19.7578C75.8112 19.2839 75.7314 18.7712 75.7314 18.2197V17.4951C75.7314 16.7158 75.8385 15.9912 76.0527 15.3213C76.2669 14.6514 76.5837 14.0658 77.0029 13.5645C77.4268 13.0586 77.9508 12.6667 78.5752 12.3887C79.1995 12.1061 79.9219 11.9648 80.7422 11.9648ZM90.907 18.3701V19.792H83.7361L83.6609 18.6982L87.8786 12.0469H89.321L87.7624 14.6924L85.4997 18.3701H90.907ZM89.7243 12.0469V22H87.9128V12.0469H89.7243Z" fill="#757575"/>
<path d="M44.6934 16.2236H45.7119C46.0719 16.2236 46.3682 16.1621 46.6006 16.0391C46.8376 15.9115 47.013 15.7383 47.127 15.5195C47.2454 15.2962 47.3047 15.0387 47.3047 14.7471C47.3047 14.46 47.2523 14.2116 47.1475 14.002C47.0426 13.7878 46.8831 13.6237 46.6689 13.5098C46.4593 13.3913 46.1904 13.332 45.8623 13.332C45.598 13.332 45.3542 13.3844 45.1309 13.4893C44.9121 13.5941 44.7367 13.7445 44.6045 13.9404C44.4769 14.1318 44.4131 14.362 44.4131 14.6309H42.6016C42.6016 14.0931 42.7428 13.6214 43.0254 13.2158C43.3125 12.8057 43.6999 12.4844 44.1875 12.252C44.6751 12.0195 45.2197 11.9033 45.8213 11.9033C46.4775 11.9033 47.0518 12.0127 47.5439 12.2314C48.0407 12.4456 48.4258 12.7624 48.6992 13.1816C48.9772 13.6009 49.1162 14.1204 49.1162 14.7402C49.1162 15.0365 49.0456 15.3327 48.9043 15.6289C48.7676 15.9206 48.5648 16.1849 48.2959 16.4219C48.0316 16.6543 47.7057 16.8434 47.3184 16.9893C46.9355 17.1305 46.4958 17.2012 45.999 17.2012H44.6934V16.2236ZM44.6934 17.6182V16.6543H45.999C46.5596 16.6543 47.0449 16.7204 47.4551 16.8525C47.8698 16.9801 48.2116 17.1624 48.4805 17.3994C48.7493 17.6318 48.9476 17.903 49.0752 18.2129C49.2074 18.5228 49.2734 18.8555 49.2734 19.2109C49.2734 19.6758 49.1868 20.0905 49.0137 20.4551C48.8405 20.8151 48.5967 21.1204 48.2822 21.3711C47.9723 21.6217 47.6077 21.8132 47.1885 21.9453C46.7692 22.0729 46.3158 22.1367 45.8281 22.1367C45.4043 22.1367 44.9919 22.0798 44.5908 21.9658C44.1943 21.8473 43.8366 21.6719 43.5176 21.4395C43.1986 21.2025 42.9456 20.9062 42.7588 20.5508C42.5719 20.1908 42.4785 19.7738 42.4785 19.2998H44.29C44.29 19.5732 44.3561 19.8171 44.4883 20.0312C44.625 20.2454 44.8118 20.4141 45.0488 20.5371C45.2904 20.6556 45.5615 20.7148 45.8623 20.7148C46.195 20.7148 46.4798 20.6556 46.7168 20.5371C46.9583 20.4141 47.1429 20.2409 47.2705 20.0176C47.3981 19.7897 47.4619 19.5186 47.4619 19.2041C47.4619 18.8304 47.3913 18.5273 47.25 18.2949C47.1087 18.0625 46.9059 17.8916 46.6416 17.7822C46.3818 17.6729 46.0719 17.6182 45.7119 17.6182H44.6934ZM57.7361 20.5781V22H50.9958V20.7832L54.2292 17.29C54.5665 16.9072 54.8331 16.5745 55.029 16.292C55.225 16.0094 55.364 15.7542 55.446 15.5264C55.5326 15.2939 55.5759 15.0729 55.5759 14.8633C55.5759 14.5579 55.5212 14.2913 55.4118 14.0635C55.3025 13.8311 55.143 13.651 54.9333 13.5234C54.7282 13.3958 54.4753 13.332 54.1745 13.332C53.8418 13.332 53.557 13.4095 53.32 13.5645C53.0876 13.7148 52.9099 13.9245 52.7868 14.1934C52.6683 14.4622 52.6091 14.7699 52.6091 15.1162H50.7976C50.7976 14.5283 50.9343 13.9928 51.2077 13.5098C51.4812 13.0221 51.8731 12.6325 52.3835 12.3408C52.8939 12.0492 53.5001 11.9033 54.2019 11.9033C54.8855 11.9033 55.4642 12.0173 55.9382 12.2451C56.4122 12.4684 56.7722 12.7874 57.0183 13.2021C57.2644 13.6169 57.3874 14.1113 57.3874 14.6855C57.3874 15.0046 57.335 15.319 57.2302 15.6289C57.1254 15.9388 56.9773 16.2464 56.7859 16.5518C56.599 16.8525 56.3757 17.1579 56.1159 17.4678C55.8562 17.7777 55.5668 18.0944 55.2478 18.418L53.3064 20.5781H57.7361Z" fill="#757575"/>
<path d="M110.078 20.5986H110.208C110.796 20.5986 111.293 20.5234 111.698 20.373C112.108 20.2227 112.439 20.0107 112.689 19.7373C112.945 19.4593 113.129 19.1289 113.243 18.7461C113.362 18.3587 113.421 17.9303 113.421 17.4609V15.6562C113.421 15.2734 113.382 14.9385 113.305 14.6514C113.227 14.3597 113.118 14.1159 112.977 13.9199C112.84 13.724 112.678 13.5781 112.491 13.4824C112.304 13.3822 112.104 13.332 111.89 13.332C111.653 13.332 111.443 13.3867 111.261 13.4961C111.078 13.6055 110.924 13.7559 110.796 13.9473C110.673 14.1341 110.577 14.3506 110.509 14.5967C110.445 14.8428 110.413 15.1025 110.413 15.376C110.413 15.6403 110.443 15.8932 110.502 16.1348C110.566 16.3763 110.659 16.5905 110.782 16.7773C110.91 16.9642 111.069 17.1123 111.261 17.2217C111.452 17.3265 111.675 17.3789 111.931 17.3789C112.172 17.3789 112.391 17.3333 112.587 17.2422C112.787 17.1465 112.961 17.0212 113.106 16.8662C113.252 16.7067 113.364 16.5312 113.441 16.3398C113.523 16.1439 113.569 15.9456 113.578 15.7451L114.214 16.0186C114.214 16.3512 114.143 16.6794 114.002 17.0029C113.865 17.3265 113.672 17.6204 113.421 17.8848C113.175 18.1445 112.888 18.3542 112.56 18.5137C112.231 18.6686 111.878 18.7461 111.5 18.7461C111.031 18.7461 110.616 18.6595 110.256 18.4863C109.896 18.3132 109.593 18.0739 109.347 17.7686C109.105 17.4587 108.923 17.1032 108.8 16.7021C108.677 16.2965 108.615 15.8636 108.615 15.4033C108.615 14.9248 108.69 14.4759 108.841 14.0566C108.991 13.6328 109.208 13.2614 109.49 12.9424C109.777 12.6188 110.124 12.3659 110.529 12.1836C110.935 11.9967 111.391 11.9033 111.896 11.9033C112.421 11.9033 112.888 12.0059 113.298 12.2109C113.708 12.416 114.057 12.7008 114.344 13.0654C114.631 13.4255 114.85 13.8516 115 14.3438C115.155 14.8359 115.232 15.3737 115.232 15.957V16.5928C115.232 17.208 115.171 17.7913 115.048 18.3428C114.925 18.8942 114.736 19.3978 114.48 19.8535C114.225 20.3092 113.899 20.7035 113.503 21.0361C113.111 21.3688 112.642 21.6263 112.095 21.8086C111.552 21.9863 110.933 22.0752 110.235 22.0752H110.078V20.5986ZM122.02 11.9648H122.266V13.4209H122.15C121.599 13.4209 121.113 13.5052 120.694 13.6738C120.279 13.8424 119.933 14.0794 119.655 14.3848C119.382 14.6855 119.174 15.0433 119.033 15.458C118.892 15.8682 118.821 16.3171 118.821 16.8047V18.418C118.821 18.7962 118.86 19.1289 118.937 19.416C119.019 19.6986 119.131 19.9378 119.272 20.1338C119.418 20.3252 119.587 20.4688 119.778 20.5645C119.974 20.6602 120.188 20.708 120.421 20.708C120.653 20.708 120.863 20.6602 121.05 20.5645C121.236 20.4688 121.396 20.3343 121.528 20.1611C121.665 19.9834 121.767 19.776 121.836 19.5391C121.909 19.3021 121.945 19.0423 121.945 18.7598C121.945 18.4818 121.911 18.2243 121.842 17.9873C121.774 17.7503 121.674 17.543 121.542 17.3652C121.41 17.1829 121.245 17.0439 121.05 16.9482C120.858 16.848 120.639 16.7979 120.393 16.7979C120.074 16.7979 119.789 16.873 119.539 17.0234C119.288 17.1693 119.09 17.3607 118.944 17.5977C118.798 17.8346 118.718 18.0853 118.705 18.3496L118.096 18.0488C118.119 17.6615 118.201 17.306 118.342 16.9824C118.488 16.6589 118.682 16.3763 118.924 16.1348C119.17 15.8932 119.459 15.7064 119.792 15.5742C120.129 15.4421 120.503 15.376 120.913 15.376C121.387 15.376 121.801 15.4671 122.157 15.6494C122.512 15.8271 122.806 16.071 123.039 16.3809C123.276 16.6908 123.454 17.0485 123.572 17.4541C123.69 17.8551 123.75 18.279 123.75 18.7256C123.75 19.2041 123.672 19.6507 123.517 20.0654C123.367 20.4801 123.148 20.8424 122.861 21.1523C122.574 21.4622 122.228 21.7038 121.822 21.877C121.416 22.0501 120.961 22.1367 120.455 22.1367C119.922 22.1367 119.443 22.0365 119.019 21.8359C118.6 21.6354 118.24 21.3574 117.939 21.002C117.638 20.6465 117.408 20.2318 117.249 19.7578C117.089 19.2839 117.009 18.7712 117.009 18.2197V17.4951C117.009 16.7158 117.117 15.9912 117.331 15.3213C117.545 14.6514 117.862 14.0658 118.281 13.5645C118.705 13.0586 119.229 12.6667 119.853 12.3887C120.478 12.1061 121.2 11.9648 122.02 11.9648Z" fill="#757575"/>
<path d="M9.36621 45.0195V55H7.55469V47.1318L5.15527 47.9248V46.4619L9.16113 45.0195H9.36621ZM19.7361 53.5781V55H12.9958V53.7832L16.2292 50.29C16.5665 49.9072 16.8331 49.5745 17.029 49.292C17.225 49.0094 17.364 48.7542 17.446 48.5264C17.5326 48.2939 17.5759 48.0729 17.5759 47.8633C17.5759 47.5579 17.5212 47.2913 17.4118 47.0635C17.3025 46.8311 17.143 46.651 16.9333 46.5234C16.7282 46.3958 16.4753 46.332 16.1745 46.332C15.8418 46.332 15.557 46.4095 15.32 46.5645C15.0876 46.7148 14.9099 46.9245 14.7868 47.1934C14.6683 47.4622 14.6091 47.7699 14.6091 48.1162H12.7976C12.7976 47.5283 12.9343 46.9928 13.2077 46.5098C13.4812 46.0221 13.8731 45.6325 14.3835 45.3408C14.8939 45.0492 15.5001 44.9033 16.2019 44.9033C16.8855 44.9033 17.4642 45.0173 17.9382 45.2451C18.4122 45.4684 18.7722 45.7874 19.0183 46.2021C19.2644 46.6169 19.3874 47.1113 19.3874 47.6855C19.3874 48.0046 19.335 48.319 19.2302 48.6289C19.1254 48.9388 18.9773 49.2464 18.7859 49.5518C18.599 49.8525 18.3757 50.1579 18.1159 50.4678C17.8562 50.7777 17.5668 51.0944 17.2478 51.418L15.3064 53.5781H19.7361ZM27.8774 52.2793C27.8774 52.8991 27.7315 53.4232 27.4399 53.8516C27.1528 54.2754 26.7586 54.5967 26.2573 54.8154C25.7605 55.0296 25.1954 55.1367 24.562 55.1367C23.933 55.1367 23.3657 55.0296 22.8598 54.8154C22.3585 54.5967 21.9597 54.2754 21.6635 53.8516C21.3718 53.4232 21.226 52.8991 21.226 52.2793C21.226 51.8646 21.308 51.4886 21.4721 51.1514C21.6407 50.8141 21.8732 50.5247 22.1694 50.2832C22.4656 50.0371 22.8165 49.8503 23.2221 49.7227C23.6277 49.5905 24.0698 49.5244 24.5483 49.5244C25.1863 49.5244 25.756 49.6406 26.2573 49.873C26.7631 50.1009 27.1596 50.4222 27.4467 50.8369C27.7338 51.2471 27.8774 51.7279 27.8774 52.2793ZM26.059 52.1699C26.059 51.8509 25.9952 51.5752 25.8676 51.3428C25.7446 51.1058 25.5691 50.9235 25.3412 50.7959C25.1134 50.6683 24.8491 50.6045 24.5483 50.6045C24.2429 50.6045 23.9763 50.6683 23.7485 50.7959C23.5252 50.9235 23.3497 51.1058 23.2221 51.3428C23.0991 51.5752 23.0375 51.8509 23.0375 52.1699C23.0375 52.4935 23.0991 52.7715 23.2221 53.0039C23.3497 53.2318 23.5274 53.4072 23.7553 53.5303C23.9832 53.6533 24.2521 53.7148 24.562 53.7148C24.8718 53.7148 25.1384 53.6533 25.3618 53.5303C25.5851 53.4072 25.756 53.2318 25.8745 53.0039C25.9975 52.7715 26.059 52.4935 26.059 52.1699ZM27.6586 47.6719C27.6586 48.1732 27.5265 48.6198 27.2621 49.0117C26.9978 49.3991 26.631 49.7021 26.1616 49.9209C25.6967 50.1396 25.1635 50.249 24.562 50.249C23.9604 50.249 23.4226 50.1396 22.9487 49.9209C22.4793 49.7021 22.1101 49.3991 21.8412 49.0117C21.5769 48.6198 21.4448 48.1732 21.4448 47.6719C21.4448 47.0794 21.5792 46.5781 21.8481 46.168C22.117 45.7533 22.4838 45.4388 22.9487 45.2246C23.4181 45.0104 23.9513 44.9033 24.5483 44.9033C25.1544 44.9033 25.6922 45.0104 26.1616 45.2246C26.631 45.4388 26.9978 45.7533 27.2621 46.168C27.5265 46.5781 27.6586 47.0794 27.6586 47.6719ZM25.8539 47.7471C25.8539 47.4645 25.8015 47.2184 25.6967 47.0088C25.5919 46.7946 25.4415 46.6283 25.2455 46.5098C25.0541 46.3913 24.8217 46.332 24.5483 46.332C24.284 46.332 24.0561 46.389 23.8647 46.5029C23.6733 46.6169 23.5252 46.7809 23.4204 46.9951C23.3155 47.2048 23.2631 47.4554 23.2631 47.7471C23.2631 48.0342 23.3155 48.2848 23.4204 48.499C23.5252 48.7132 23.6733 48.8818 23.8647 49.0049C24.0607 49.1234 24.2931 49.1826 24.562 49.1826C24.8308 49.1826 25.061 49.1234 25.2524 49.0049C25.4438 48.8818 25.5919 48.7132 25.6967 48.499C25.8015 48.2848 25.8539 48.0342 25.8539 47.7471Z" fill="#757575"/>
<path d="M76.3662 45.0195V55H74.5547V47.1318L72.1553 47.9248V46.4619L76.1611 45.0195H76.3662ZM81.3562 53.5986H81.4861C82.0739 53.5986 82.5707 53.5234 82.9763 53.373C83.3864 53.2227 83.7168 53.0107 83.9675 52.7373C84.2227 52.4593 84.4073 52.1289 84.5212 51.7461C84.6397 51.3587 84.6989 50.9303 84.6989 50.4609V48.6562C84.6989 48.2734 84.6602 47.9385 84.5827 47.6514C84.5053 47.3597 84.3959 47.1159 84.2546 46.9199C84.1179 46.724 83.9561 46.5781 83.7693 46.4824C83.5824 46.3822 83.3819 46.332 83.1677 46.332C82.9307 46.332 82.7211 46.3867 82.5388 46.4961C82.3565 46.6055 82.2015 46.7559 82.0739 46.9473C81.9509 47.1341 81.8552 47.3506 81.7868 47.5967C81.723 47.8428 81.6911 48.1025 81.6911 48.376C81.6911 48.6403 81.7208 48.8932 81.78 49.1348C81.8438 49.3763 81.9372 49.5905 82.0603 49.7773C82.1879 49.9642 82.3474 50.1123 82.5388 50.2217C82.7302 50.3265 82.9535 50.3789 83.2087 50.3789C83.4502 50.3789 83.669 50.3333 83.865 50.2422C84.0655 50.1465 84.2387 50.0212 84.3845 49.8662C84.5303 49.7067 84.642 49.5312 84.7195 49.3398C84.8015 49.1439 84.8471 48.9456 84.8562 48.7451L85.4919 49.0186C85.4919 49.3512 85.4213 49.6794 85.28 50.0029C85.1433 50.3265 84.9496 50.6204 84.6989 50.8848C84.4529 51.1445 84.1657 51.3542 83.8376 51.5137C83.5095 51.6686 83.1563 51.7461 82.778 51.7461C82.3086 51.7461 81.8939 51.6595 81.5339 51.4863C81.1739 51.3132 80.8708 51.0739 80.6247 50.7686C80.3832 50.4587 80.2009 50.1032 80.0779 49.7021C79.9548 49.2965 79.8933 48.8636 79.8933 48.4033C79.8933 47.9248 79.9685 47.4759 80.1189 47.0566C80.2693 46.6328 80.4857 46.2614 80.7683 45.9424C81.0554 45.6188 81.4017 45.3659 81.8073 45.1836C82.2129 44.9967 82.6687 44.9033 83.1745 44.9033C83.6986 44.9033 84.1657 45.0059 84.5759 45.2109C84.9861 45.416 85.3347 45.7008 85.6218 46.0654C85.9089 46.4255 86.1277 46.8516 86.278 47.3438C86.433 47.8359 86.5105 48.3737 86.5105 48.957V49.5928C86.5105 50.208 86.4489 50.7913 86.3259 51.3428C86.2029 51.8942 86.0137 52.3978 85.7585 52.8535C85.5033 53.3092 85.1775 53.7035 84.781 54.0361C84.389 54.3688 83.9196 54.6263 83.3728 54.8086C82.8305 54.9863 82.2107 55.0752 81.5134 55.0752H81.3562V53.5986ZM95.0141 53.5781V55H88.2739V53.7832L91.5073 50.29C91.8445 49.9072 92.1111 49.5745 92.3071 49.292C92.503 49.0094 92.642 48.7542 92.7241 48.5264C92.8107 48.2939 92.8539 48.0729 92.8539 47.8633C92.8539 47.5579 92.7993 47.2913 92.6899 47.0635C92.5805 46.8311 92.421 46.651 92.2114 46.5234C92.0063 46.3958 91.7534 46.332 91.4526 46.332C91.1199 46.332 90.8351 46.4095 90.5981 46.5645C90.3657 46.7148 90.1879 46.9245 90.0649 47.1934C89.9464 47.4622 89.8871 47.7699 89.8871 48.1162H88.0756C88.0756 47.5283 88.2123 46.9928 88.4858 46.5098C88.7592 46.0221 89.1511 45.6325 89.6616 45.3408C90.172 45.0492 90.7781 44.9033 91.4799 44.9033C92.1635 44.9033 92.7423 45.0173 93.2162 45.2451C93.6902 45.4684 94.0502 45.7874 94.2963 46.2021C94.5424 46.6169 94.6655 47.1113 94.6655 47.6855C94.6655 48.0046 94.6131 48.319 94.5082 48.6289C94.4034 48.9388 94.2553 49.2464 94.0639 49.5518C93.8771 49.8525 93.6537 50.1579 93.394 50.4678C93.1342 50.7777 92.8448 51.0944 92.5258 51.418L90.5844 53.5781H95.0141Z" fill="#757575"/>
<path d="M42.3662 45.0195V55H40.5547V47.1318L38.1553 47.9248V46.4619L42.1611 45.0195H42.3662ZM51.0202 44.9648H51.2663V46.4209H51.1501C50.5987 46.4209 50.1133 46.5052 49.6941 46.6738C49.2793 46.8424 48.933 47.0794 48.655 47.3848C48.3816 47.6855 48.1742 48.0433 48.0329 48.458C47.8917 48.8682 47.821 49.3171 47.821 49.8047V51.418C47.821 51.7962 47.8598 52.1289 47.9372 52.416C48.0193 52.6986 48.1309 52.9378 48.2722 53.1338C48.418 53.3252 48.5866 53.4688 48.778 53.5645C48.974 53.6602 49.1882 53.708 49.4206 53.708C49.653 53.708 49.8627 53.6602 50.0495 53.5645C50.2364 53.4688 50.3959 53.3343 50.528 53.1611C50.6648 52.9834 50.7673 52.776 50.8357 52.5391C50.9086 52.3021 50.945 52.0423 50.945 51.7598C50.945 51.4818 50.9109 51.2243 50.8425 50.9873C50.7741 50.7503 50.6739 50.543 50.5417 50.3652C50.4096 50.1829 50.2455 50.0439 50.0495 49.9482C49.8581 49.848 49.6394 49.7979 49.3933 49.7979C49.0743 49.7979 48.7894 49.873 48.5388 50.0234C48.2881 50.1693 48.0899 50.3607 47.9441 50.5977C47.7982 50.8346 47.7185 51.0853 47.7048 51.3496L47.0964 51.0488C47.1192 50.6615 47.2012 50.306 47.3425 49.9824C47.4883 49.6589 47.682 49.3763 47.9236 49.1348C48.1696 48.8932 48.459 48.7064 48.7917 48.5742C49.129 48.4421 49.5027 48.376 49.9128 48.376C50.3868 48.376 50.8015 48.4671 51.157 48.6494C51.5124 48.8271 51.8064 49.071 52.0388 49.3809C52.2758 49.6908 52.4535 50.0485 52.572 50.4541C52.6905 50.8551 52.7497 51.279 52.7497 51.7256C52.7497 52.2041 52.6723 52.6507 52.5173 53.0654C52.3669 53.4801 52.1482 53.8424 51.8611 54.1523C51.5739 54.4622 51.2276 54.7038 50.822 54.877C50.4164 55.0501 49.9607 55.1367 49.4548 55.1367C48.9216 55.1367 48.4431 55.0365 48.0193 54.8359C47.6 54.6354 47.24 54.3574 46.9392 54.002C46.6384 53.6465 46.4083 53.2318 46.2487 52.7578C46.0892 52.2839 46.0095 51.7712 46.0095 51.2197V50.4951C46.0095 49.7158 46.1166 48.9912 46.3308 48.3213C46.545 47.6514 46.8617 47.0658 47.281 46.5645C47.7048 46.0586 48.2289 45.6667 48.8532 45.3887C49.4776 45.1061 50.1999 44.9648 51.0202 44.9648ZM60.8637 49.1689V50.8438C60.8637 51.6094 60.7862 52.2633 60.6313 52.8057C60.4763 53.348 60.253 53.7923 59.9614 54.1387C59.6697 54.4805 59.3211 54.7334 58.9155 54.8975C58.5099 55.057 58.0587 55.1367 57.562 55.1367C57.1655 55.1367 56.7963 55.0866 56.4545 54.9863C56.1127 54.8815 55.8051 54.722 55.5317 54.5078C55.2628 54.2891 55.0304 54.0111 54.8344 53.6738C54.643 53.3366 54.4949 52.9333 54.3901 52.4639C54.2898 51.9945 54.2397 51.4544 54.2397 50.8438V49.1689C54.2397 48.4033 54.3172 47.7516 54.4721 47.2139C54.6316 46.6761 54.8572 46.2363 55.1489 45.8945C55.4405 45.5527 55.7892 45.3044 56.1948 45.1494C56.6004 44.9899 57.0515 44.9102 57.5483 44.9102C57.9493 44.9102 58.3185 44.9603 58.6557 45.0605C58.9975 45.1608 59.3028 45.318 59.5717 45.5322C59.8452 45.7419 60.0776 46.0153 60.269 46.3525C60.4604 46.6852 60.6062 47.0863 60.7065 47.5557C60.8113 48.0205 60.8637 48.5583 60.8637 49.1689ZM59.059 51.0898V48.916C59.059 48.5332 59.0362 48.2005 58.9907 47.918C58.9496 47.6309 58.8881 47.387 58.8061 47.1865C58.7241 46.986 58.6215 46.8242 58.4985 46.7012C58.3754 46.5736 58.2342 46.4801 58.0746 46.4209C57.9151 46.3617 57.7397 46.332 57.5483 46.332C57.3113 46.332 57.0994 46.3799 56.9125 46.4756C56.7257 46.5667 56.5685 46.7126 56.4409 46.9131C56.3133 47.1136 56.2153 47.3802 56.1469 47.7129C56.0831 48.041 56.0512 48.4421 56.0512 48.916V51.0898C56.0512 51.4727 56.0717 51.8076 56.1127 52.0947C56.1583 52.3818 56.2221 52.6279 56.3041 52.833C56.3907 53.0381 56.4933 53.2067 56.6118 53.3389C56.7348 53.4665 56.8761 53.5622 57.0356 53.626C57.1951 53.6852 57.3705 53.7148 57.562 53.7148C57.8035 53.7148 58.0154 53.667 58.1977 53.5713C58.3845 53.4756 58.5418 53.3252 58.6694 53.1201C58.797 52.9105 58.8927 52.6393 58.9565 52.3066C59.0248 51.9694 59.059 51.5638 59.059 51.0898Z" fill="#757575"/>
<path d="M112.458 53.5781V55H105.718V53.7832L108.951 50.29C109.288 49.9072 109.555 49.5745 109.751 49.292C109.947 49.0094 110.086 48.7542 110.168 48.5264C110.255 48.2939 110.298 48.0729 110.298 47.8633C110.298 47.5579 110.243 47.2913 110.134 47.0635C110.024 46.8311 109.865 46.651 109.655 46.5234C109.45 46.3958 109.197 46.332 108.896 46.332C108.564 46.332 108.279 46.4095 108.042 46.5645C107.81 46.7148 107.632 46.9245 107.509 47.1934C107.39 47.4622 107.331 47.7699 107.331 48.1162H105.52C105.52 47.5283 105.656 46.9928 105.93 46.5098C106.203 46.0221 106.595 45.6325 107.105 45.3408C107.616 45.0492 108.222 44.9033 108.924 44.9033C109.607 44.9033 110.186 45.0173 110.66 45.2451C111.134 45.4684 111.494 45.7874 111.74 46.2021C111.986 46.6169 112.109 47.1113 112.109 47.6855C112.109 48.0046 112.057 48.319 111.952 48.6289C111.847 48.9388 111.699 49.2464 111.508 49.5518C111.321 49.8525 111.098 50.1579 110.838 50.4678C110.578 50.7777 110.289 51.0944 109.97 51.418L108.028 53.5781H112.458ZM120.736 53.5781V55H113.996V53.7832L117.229 50.29C117.566 49.9072 117.833 49.5745 118.029 49.292C118.225 49.0094 118.364 48.7542 118.446 48.5264C118.533 48.2939 118.576 48.0729 118.576 47.8633C118.576 47.5579 118.521 47.2913 118.412 47.0635C118.302 46.8311 118.143 46.651 117.933 46.5234C117.728 46.3958 117.475 46.332 117.175 46.332C116.842 46.332 116.557 46.4095 116.32 46.5645C116.088 46.7148 115.91 46.9245 115.787 47.1934C115.668 47.4622 115.609 47.7699 115.609 48.1162H113.798C113.798 47.5283 113.934 46.9928 114.208 46.5098C114.481 46.0221 114.873 45.6325 115.384 45.3408C115.894 45.0492 116.5 44.9033 117.202 44.9033C117.885 44.9033 118.464 45.0173 118.938 45.2451C119.412 45.4684 119.772 45.7874 120.018 46.2021C120.264 46.6169 120.387 47.1113 120.387 47.6855C120.387 48.0046 120.335 48.319 120.23 48.6289C120.125 48.9388 119.977 49.2464 119.786 49.5518C119.599 49.8525 119.376 50.1579 119.116 50.4678C118.856 50.7777 118.567 51.0944 118.248 51.418L116.306 53.5781H120.736ZM129.185 51.3701V52.792H122.014L121.939 51.6982L126.157 45.0469H127.599L126.04 47.6924L123.778 51.3701H129.185ZM128.002 45.0469V55H126.191V45.0469H128.002Z" fill="#757575"/>
<path d="M10.4092 84.0234V85.4521H6.66992V84.0234H10.4092ZM16.7868 79.0195V89H14.9753V81.1318L12.5759 81.9248V80.4619L16.5818 79.0195H16.7868ZM25.4409 78.9648H25.687V80.4209H25.5707C25.0193 80.4209 24.534 80.5052 24.1147 80.6738C23.7 80.8424 23.3536 81.0794 23.0756 81.3848C22.8022 81.6855 22.5948 82.0433 22.4536 82.458C22.3123 82.8682 22.2416 83.3171 22.2416 83.8047V85.418C22.2416 85.7962 22.2804 86.1289 22.3579 86.416C22.4399 86.6986 22.5515 86.9378 22.6928 87.1338C22.8386 87.3252 23.0073 87.4688 23.1987 87.5645C23.3946 87.6602 23.6088 87.708 23.8413 87.708C24.0737 87.708 24.2833 87.6602 24.4702 87.5645C24.657 87.4688 24.8165 87.3343 24.9487 87.1611C25.0854 86.9834 25.1879 86.776 25.2563 86.5391C25.3292 86.3021 25.3657 86.0423 25.3657 85.7598C25.3657 85.4818 25.3315 85.2243 25.2631 84.9873C25.1948 84.7503 25.0945 84.543 24.9623 84.3652C24.8302 84.1829 24.6661 84.0439 24.4702 83.9482C24.2788 83.848 24.06 83.7979 23.8139 83.7979C23.4949 83.7979 23.2101 83.873 22.9594 84.0234C22.7088 84.1693 22.5105 84.3607 22.3647 84.5977C22.2189 84.8346 22.1391 85.0853 22.1254 85.3496L21.517 85.0488C21.5398 84.6615 21.6218 84.306 21.7631 83.9824C21.909 83.6589 22.1026 83.3763 22.3442 83.1348C22.5903 82.8932 22.8797 82.7064 23.2123 82.5742C23.5496 82.4421 23.9233 82.376 24.3334 82.376C24.8074 82.376 25.2221 82.4671 25.5776 82.6494C25.933 82.8271 26.227 83.071 26.4594 83.3809C26.6964 83.6908 26.8741 84.0485 26.9926 84.4541C27.1111 84.8551 27.1704 85.279 27.1704 85.7256C27.1704 86.2041 27.0929 86.6507 26.9379 87.0654C26.7875 87.4801 26.5688 87.8424 26.2817 88.1523C25.9946 88.4622 25.6482 88.7038 25.2426 88.877C24.837 89.0501 24.3813 89.1367 23.8754 89.1367C23.3422 89.1367 22.8637 89.0365 22.4399 88.8359C22.0206 88.6354 21.6606 88.3574 21.3598 88.002C21.059 87.6465 20.8289 87.2318 20.6694 86.7578C20.5099 86.2839 20.4301 85.7712 20.4301 85.2197V84.4951C20.4301 83.7158 20.5372 82.9912 20.7514 82.3213C20.9656 81.6514 21.2823 81.0658 21.7016 80.5645C22.1254 80.0586 22.6495 79.6667 23.2739 79.3887C23.8982 79.1061 24.6205 78.9648 25.4409 78.9648Z" fill="#757575"/>
<path d="M82.6289 85.3701V86.792H75.458L75.3828 85.6982L79.6006 79.0469H81.043L79.4844 81.6924L77.2217 85.3701H82.6289ZM81.4463 79.0469V89H79.6348V79.0469H81.4463ZM90.5993 86.2793C90.5993 86.8991 90.4535 87.4232 90.1618 87.8516C89.8747 88.2754 89.4805 88.5967 88.9792 88.8154C88.4825 89.0296 87.9174 89.1367 87.2839 89.1367C86.655 89.1367 86.0876 89.0296 85.5818 88.8154C85.0805 88.5967 84.6817 88.2754 84.3855 87.8516C84.0938 87.4232 83.948 86.8991 83.948 86.2793C83.948 85.8646 84.03 85.4886 84.1941 85.1514C84.3627 84.8141 84.5951 84.5247 84.8913 84.2832C85.1876 84.0371 85.5385 83.8503 85.9441 83.7227C86.3497 83.5905 86.7917 83.5244 87.2702 83.5244C87.9083 83.5244 88.4779 83.6406 88.9792 83.873C89.4851 84.1009 89.8816 84.4222 90.1687 84.8369C90.4558 85.2471 90.5993 85.7279 90.5993 86.2793ZM88.781 86.1699C88.781 85.8509 88.7172 85.5752 88.5896 85.3428C88.4665 85.1058 88.2911 84.9235 88.0632 84.7959C87.8353 84.6683 87.571 84.6045 87.2702 84.6045C86.9649 84.6045 86.6983 84.6683 86.4704 84.7959C86.2471 84.9235 86.0717 85.1058 85.9441 85.3428C85.821 85.5752 85.7595 85.8509 85.7595 86.1699C85.7595 86.4935 85.821 86.7715 85.9441 87.0039C86.0717 87.2318 86.2494 87.4072 86.4773 87.5303C86.7051 87.6533 86.974 87.7148 87.2839 87.7148C87.5938 87.7148 87.8604 87.6533 88.0837 87.5303C88.307 87.4072 88.4779 87.2318 88.5964 87.0039C88.7195 86.7715 88.781 86.4935 88.781 86.1699ZM90.3806 81.6719C90.3806 82.1732 90.2484 82.6198 89.9841 83.0117C89.7198 83.3991 89.3529 83.7021 88.8835 83.9209C88.4187 84.1396 87.8855 84.249 87.2839 84.249C86.6823 84.249 86.1446 84.1396 85.6706 83.9209C85.2012 83.7021 84.8321 83.3991 84.5632 83.0117C84.2989 82.6198 84.1667 82.1732 84.1667 81.6719C84.1667 81.0794 84.3012 80.5781 84.57 80.168C84.8389 79.7533 85.2058 79.4388 85.6706 79.2246C86.14 79.0104 86.6732 78.9033 87.2702 78.9033C87.8764 78.9033 88.4141 79.0104 88.8835 79.2246C89.3529 79.4388 89.7198 79.7533 89.9841 80.168C90.2484 80.5781 90.3806 81.0794 90.3806 81.6719ZM88.5759 81.7471C88.5759 81.4645 88.5235 81.2184 88.4187 81.0088C88.3139 80.7946 88.1635 80.6283 87.9675 80.5098C87.7761 80.3913 87.5437 80.332 87.2702 80.332C87.0059 80.332 86.778 80.389 86.5866 80.5029C86.3952 80.6169 86.2471 80.7809 86.1423 80.9951C86.0375 81.2048 85.9851 81.4554 85.9851 81.7471C85.9851 82.0342 86.0375 82.2848 86.1423 82.499C86.2471 82.7132 86.3952 82.8818 86.5866 83.0049C86.7826 83.1234 87.015 83.1826 87.2839 83.1826C87.5528 83.1826 87.7829 83.1234 87.9743 83.0049C88.1657 82.8818 88.3139 82.7132 88.4187 82.499C88.5235 82.2848 88.5759 82.0342 88.5759 81.7471Z" fill="#757575"/>
<path d="M55.3076 83.1689V84.8438C55.3076 85.6094 55.2301 86.2633 55.0752 86.8057C54.9202 87.348 54.6969 87.7923 54.4053 88.1387C54.1136 88.4805 53.765 88.7334 53.3594 88.8975C52.9538 89.057 52.5026 89.1367 52.0059 89.1367C51.6094 89.1367 51.2402 89.0866 50.8984 88.9863C50.5566 88.8815 50.249 88.722 49.9756 88.5078C49.7067 88.2891 49.4743 88.0111 49.2783 87.6738C49.0869 87.3366 48.9388 86.9333 48.834 86.4639C48.7337 85.9945 48.6836 85.4544 48.6836 84.8438V83.1689C48.6836 82.4033 48.7611 81.7516 48.916 81.2139C49.0755 80.6761 49.3011 80.2363 49.5928 79.8945C49.8844 79.5527 50.2331 79.3044 50.6387 79.1494C51.0443 78.9899 51.4954 78.9102 51.9922 78.9102C52.3932 78.9102 52.7624 78.9603 53.0996 79.0605C53.4414 79.1608 53.7467 79.318 54.0156 79.5322C54.2891 79.7419 54.5215 80.0153 54.7129 80.3525C54.9043 80.6852 55.0501 81.0863 55.1504 81.5557C55.2552 82.0205 55.3076 82.5583 55.3076 83.1689ZM53.5029 85.0898V82.916C53.5029 82.5332 53.4801 82.2005 53.4346 81.918C53.3936 81.6309 53.332 81.387 53.25 81.1865C53.168 80.986 53.0654 80.8242 52.9424 80.7012C52.8193 80.5736 52.6781 80.4801 52.5186 80.4209C52.359 80.3617 52.1836 80.332 51.9922 80.332C51.7552 80.332 51.5433 80.3799 51.3564 80.4756C51.1696 80.5667 51.0124 80.7126 50.8848 80.9131C50.7572 81.1136 50.6592 81.3802 50.5908 81.7129C50.527 82.041 50.4951 82.4421 50.4951 82.916V85.0898C50.4951 85.4727 50.5156 85.8076 50.5566 86.0947C50.6022 86.3818 50.666 86.6279 50.748 86.833C50.8346 87.0381 50.9372 87.2067 51.0557 87.3389C51.1787 87.4665 51.32 87.5622 51.4795 87.626C51.639 87.6852 51.8145 87.7148 52.0059 87.7148C52.2474 87.7148 52.4593 87.667 52.6416 87.5713C52.8285 87.4756 52.9857 87.3252 53.1133 87.1201C53.2409 86.9105 53.3366 86.6393 53.4004 86.3066C53.4688 85.9694 53.5029 85.5638 53.5029 85.0898Z" fill="#757575"/>
<path d="M109.366 79.0195V89H107.555V81.1318L105.155 81.9248V80.4619L109.161 79.0195H109.366ZM119.736 87.5781V89H112.996V87.7832L116.229 84.29C116.566 83.9072 116.833 83.5745 117.029 83.292C117.225 83.0094 117.364 82.7542 117.446 82.5264C117.533 82.2939 117.576 82.0729 117.576 81.8633C117.576 81.5579 117.521 81.2913 117.412 81.0635C117.302 80.8311 117.143 80.651 116.933 80.5234C116.728 80.3958 116.475 80.332 116.175 80.332C115.842 80.332 115.557 80.4095 115.32 80.5645C115.088 80.7148 114.91 80.9245 114.787 81.1934C114.668 81.4622 114.609 81.7699 114.609 82.1162H112.798C112.798 81.5283 112.934 80.9928 113.208 80.5098C113.481 80.0221 113.873 79.6325 114.384 79.3408C114.894 79.0492 115.5 78.9033 116.202 78.9033C116.885 78.9033 117.464 79.0173 117.938 79.2451C118.412 79.4684 118.772 79.7874 119.018 80.2021C119.264 80.6169 119.387 81.1113 119.387 81.6855C119.387 82.0046 119.335 82.319 119.23 82.6289C119.125 82.9388 118.977 83.2464 118.786 83.5518C118.599 83.8525 118.376 84.1579 118.116 84.4678C117.856 84.7777 117.567 85.0944 117.248 85.418L115.306 87.5781H119.736ZM127.877 86.2793C127.877 86.8991 127.732 87.4232 127.44 87.8516C127.153 88.2754 126.759 88.5967 126.257 88.8154C125.761 89.0296 125.195 89.1367 124.562 89.1367C123.933 89.1367 123.366 89.0296 122.86 88.8154C122.359 88.5967 121.96 88.2754 121.664 87.8516C121.372 87.4232 121.226 86.8991 121.226 86.2793C121.226 85.8646 121.308 85.4886 121.472 85.1514C121.641 84.8141 121.873 84.5247 122.169 84.2832C122.466 84.0371 122.817 83.8503 123.222 83.7227C123.628 83.5905 124.07 83.5244 124.548 83.5244C125.186 83.5244 125.756 83.6406 126.257 83.873C126.763 84.1009 127.16 84.4222 127.447 84.8369C127.734 85.2471 127.877 85.7279 127.877 86.2793ZM126.059 86.1699C126.059 85.8509 125.995 85.5752 125.868 85.3428C125.745 85.1058 125.569 84.9235 125.341 84.7959C125.113 84.6683 124.849 84.6045 124.548 84.6045C124.243 84.6045 123.976 84.6683 123.748 84.7959C123.525 84.9235 123.35 85.1058 123.222 85.3428C123.099 85.5752 123.038 85.8509 123.038 86.1699C123.038 86.4935 123.099 86.7715 123.222 87.0039C123.35 87.2318 123.527 87.4072 123.755 87.5303C123.983 87.6533 124.252 87.7148 124.562 87.7148C124.872 87.7148 125.138 87.6533 125.362 87.5303C125.585 87.4072 125.756 87.2318 125.874 87.0039C125.997 86.7715 126.059 86.4935 126.059 86.1699ZM127.659 81.6719C127.659 82.1732 127.526 82.6198 127.262 83.0117C126.998 83.3991 126.631 83.7021 126.162 83.9209C125.697 84.1396 125.164 84.249 124.562 84.249C123.96 84.249 123.423 84.1396 122.949 83.9209C122.479 83.7021 122.11 83.3991 121.841 83.0117C121.577 82.6198 121.445 82.1732 121.445 81.6719C121.445 81.0794 121.579 80.5781 121.848 80.168C122.117 79.7533 122.484 79.4388 122.949 79.2246C123.418 79.0104 123.951 78.9033 124.548 78.9033C125.154 78.9033 125.692 79.0104 126.162 79.2246C126.631 79.4388 126.998 79.7533 127.262 80.168C127.526 80.5781 127.659 81.0794 127.659 81.6719ZM125.854 81.7471C125.854 81.4645 125.802 81.2184 125.697 81.0088C125.592 80.7946 125.442 80.6283 125.246 80.5098C125.054 80.3913 124.822 80.332 124.548 80.332C124.284 80.332 124.056 80.389 123.865 80.5029C123.673 80.6169 123.525 80.7809 123.42 80.9951C123.316 81.2048 123.263 81.4554 123.263 81.7471C123.263 82.0342 123.316 82.2848 123.42 82.499C123.525 82.7132 123.673 82.8818 123.865 83.0049C124.061 83.1234 124.293 83.1826 124.562 83.1826C124.831 83.1826 125.061 83.1234 125.252 83.0049C125.444 82.8818 125.592 82.7132 125.697 82.499C125.802 82.2848 125.854 82.0342 125.854 81.7471Z" fill="#757575"/>
<path d="M14.7422 111.965H14.9883V113.421H14.8721C14.3206 113.421 13.8353 113.505 13.416 113.674C13.0013 113.842 12.6549 114.079 12.377 114.385C12.1035 114.686 11.8962 115.043 11.7549 115.458C11.6136 115.868 11.543 116.317 11.543 116.805V118.418C11.543 118.796 11.5817 119.129 11.6592 119.416C11.7412 119.699 11.8529 119.938 11.9941 120.134C12.14 120.325 12.3086 120.469 12.5 120.564C12.696 120.66 12.9102 120.708 13.1426 120.708C13.375 120.708 13.5846 120.66 13.7715 120.564C13.9583 120.469 14.1178 120.334 14.25 120.161C14.3867 119.983 14.4893 119.776 14.5576 119.539C14.6305 119.302 14.667 119.042 14.667 118.76C14.667 118.482 14.6328 118.224 14.5645 117.987C14.4961 117.75 14.3958 117.543 14.2637 117.365C14.1315 117.183 13.9674 117.044 13.7715 116.948C13.5801 116.848 13.3613 116.798 13.1152 116.798C12.7962 116.798 12.5114 116.873 12.2607 117.023C12.0101 117.169 11.8118 117.361 11.666 117.598C11.5202 117.835 11.4404 118.085 11.4268 118.35L10.8184 118.049C10.8411 117.661 10.9232 117.306 11.0645 116.982C11.2103 116.659 11.404 116.376 11.6455 116.135C11.8916 115.893 12.181 115.706 12.5137 115.574C12.8509 115.442 13.2246 115.376 13.6348 115.376C14.1087 115.376 14.5234 115.467 14.8789 115.649C15.2344 115.827 15.5283 116.071 15.7607 116.381C15.9977 116.691 16.1755 117.049 16.2939 117.454C16.4124 117.855 16.4717 118.279 16.4717 118.726C16.4717 119.204 16.3942 119.651 16.2393 120.065C16.0889 120.48 15.8701 120.842 15.583 121.152C15.2959 121.462 14.9495 121.704 14.5439 121.877C14.1383 122.05 13.6826 122.137 13.1768 122.137C12.6436 122.137 12.165 122.036 11.7412 121.836C11.3219 121.635 10.9619 121.357 10.6611 121.002C10.3604 120.646 10.1302 120.232 9.9707 119.758C9.8112 119.284 9.73145 118.771 9.73145 118.22V117.495C9.73145 116.716 9.83854 115.991 10.0527 115.321C10.2669 114.651 10.5837 114.066 11.0029 113.564C11.4268 113.059 11.9508 112.667 12.5752 112.389C13.1995 112.106 13.9219 111.965 14.7422 111.965ZM24.907 118.37V119.792H17.7361L17.6609 118.698L21.8786 112.047H23.321L21.7624 114.692L19.4997 118.37H24.907ZM23.7243 112.047V122H21.9128V112.047H23.7243Z" fill="#757575"/>
<path d="M78.458 120.578V122H71.7178V120.783L74.9512 117.29C75.2884 116.907 75.555 116.575 75.751 116.292C75.9469 116.009 76.0859 115.754 76.168 115.526C76.2546 115.294 76.2979 115.073 76.2979 114.863C76.2979 114.558 76.2432 114.291 76.1338 114.063C76.0244 113.831 75.8649 113.651 75.6553 113.523C75.4502 113.396 75.1973 113.332 74.8965 113.332C74.5638 113.332 74.279 113.41 74.042 113.564C73.8096 113.715 73.6318 113.924 73.5088 114.193C73.3903 114.462 73.3311 114.77 73.3311 115.116H71.5195C71.5195 114.528 71.6562 113.993 71.9297 113.51C72.2031 113.022 72.5951 112.632 73.1055 112.341C73.6159 112.049 74.222 111.903 74.9238 111.903C75.6074 111.903 76.1862 112.017 76.6602 112.245C77.1341 112.468 77.4941 112.787 77.7402 113.202C77.9863 113.617 78.1094 114.111 78.1094 114.686C78.1094 115.005 78.057 115.319 77.9521 115.629C77.8473 115.939 77.6992 116.246 77.5078 116.552C77.321 116.853 77.0977 117.158 76.8379 117.468C76.5781 117.778 76.2887 118.094 75.9697 118.418L74.0283 120.578H78.458ZM86.7361 120.578V122H79.9958V120.783L83.2292 117.29C83.5665 116.907 83.8331 116.575 84.029 116.292C84.225 116.009 84.364 115.754 84.446 115.526C84.5326 115.294 84.5759 115.073 84.5759 114.863C84.5759 114.558 84.5212 114.291 84.4118 114.063C84.3025 113.831 84.143 113.651 83.9333 113.523C83.7282 113.396 83.4753 113.332 83.1745 113.332C82.8418 113.332 82.557 113.41 82.32 113.564C82.0876 113.715 81.9099 113.924 81.7868 114.193C81.6683 114.462 81.6091 114.77 81.6091 115.116H79.7976C79.7976 114.528 79.9343 113.993 80.2077 113.51C80.4812 113.022 80.8731 112.632 81.3835 112.341C81.8939 112.049 82.5001 111.903 83.2019 111.903C83.8855 111.903 84.4642 112.017 84.9382 112.245C85.4122 112.468 85.7722 112.787 86.0183 113.202C86.2644 113.617 86.3874 114.111 86.3874 114.686C86.3874 115.005 86.335 115.319 86.2302 115.629C86.1254 115.939 85.9773 116.246 85.7859 116.552C85.599 116.853 85.3757 117.158 85.1159 117.468C84.8562 117.778 84.5668 118.094 84.2478 118.418L82.3064 120.578H86.7361ZM90.0649 117.42L88.6225 117.071L89.1762 112.047H94.6518V113.544H90.6733L90.4135 115.868C90.5548 115.782 90.7599 115.695 91.0287 115.608C91.3022 115.517 91.6098 115.472 91.9516 115.472C92.4256 115.472 92.8494 115.549 93.2231 115.704C93.5968 115.854 93.9135 116.073 94.1733 116.36C94.4376 116.647 94.6358 116.998 94.768 117.413C94.9047 117.823 94.9731 118.288 94.9731 118.808C94.9731 119.263 94.9047 119.692 94.768 120.093C94.6358 120.489 94.433 120.842 94.1596 121.152C93.8862 121.458 93.5421 121.699 93.1274 121.877C92.7127 122.05 92.225 122.137 91.6645 122.137C91.2407 122.137 90.8328 122.075 90.4409 121.952C90.0535 121.825 89.7049 121.64 89.395 121.398C89.0851 121.152 88.8367 120.852 88.6498 120.496C88.4676 120.141 88.3673 119.733 88.3491 119.272H90.1332C90.1651 119.578 90.2472 119.838 90.3793 120.052C90.5115 120.266 90.6847 120.43 90.8989 120.544C91.1176 120.658 91.3705 120.715 91.6577 120.715C91.9174 120.715 92.1407 120.667 92.3276 120.571C92.519 120.471 92.6762 120.332 92.7993 120.154C92.9223 119.977 93.0134 119.767 93.0727 119.525C93.1319 119.284 93.1616 119.02 93.1616 118.732C93.1616 118.454 93.1274 118.201 93.059 117.974C92.9907 117.741 92.8858 117.541 92.7446 117.372C92.6033 117.203 92.4256 117.074 92.2114 116.982C92.0017 116.891 91.7556 116.846 91.4731 116.846C91.0948 116.846 90.8032 116.903 90.5981 117.017C90.3976 117.131 90.2198 117.265 90.0649 117.42Z" fill="#757575"/>
<path d="M43.3662 112.02V122H41.5547V114.132L39.1553 114.925V113.462L43.1611 112.02H43.3662ZM48.3562 120.599H48.4861C49.0739 120.599 49.5707 120.523 49.9763 120.373C50.3864 120.223 50.7168 120.011 50.9675 119.737C51.2227 119.459 51.4073 119.129 51.5212 118.746C51.6397 118.359 51.6989 117.93 51.6989 117.461V115.656C51.6989 115.273 51.6602 114.938 51.5827 114.651C51.5053 114.36 51.3959 114.116 51.2546 113.92C51.1179 113.724 50.9561 113.578 50.7693 113.482C50.5824 113.382 50.3819 113.332 50.1677 113.332C49.9307 113.332 49.7211 113.387 49.5388 113.496C49.3565 113.605 49.2015 113.756 49.0739 113.947C48.9509 114.134 48.8552 114.351 48.7868 114.597C48.723 114.843 48.6911 115.103 48.6911 115.376C48.6911 115.64 48.7208 115.893 48.78 116.135C48.8438 116.376 48.9372 116.59 49.0603 116.777C49.1879 116.964 49.3474 117.112 49.5388 117.222C49.7302 117.326 49.9535 117.379 50.2087 117.379C50.4502 117.379 50.669 117.333 50.865 117.242C51.0655 117.146 51.2387 117.021 51.3845 116.866C51.5303 116.707 51.642 116.531 51.7195 116.34C51.8015 116.144 51.8471 115.946 51.8562 115.745L52.4919 116.019C52.4919 116.351 52.4213 116.679 52.28 117.003C52.1433 117.326 51.9496 117.62 51.6989 117.885C51.4529 118.145 51.1657 118.354 50.8376 118.514C50.5095 118.669 50.1563 118.746 49.778 118.746C49.3086 118.746 48.8939 118.66 48.5339 118.486C48.1739 118.313 47.8708 118.074 47.6247 117.769C47.3832 117.459 47.2009 117.103 47.0779 116.702C46.9548 116.297 46.8933 115.864 46.8933 115.403C46.8933 114.925 46.9685 114.476 47.1189 114.057C47.2693 113.633 47.4857 113.261 47.7683 112.942C48.0554 112.619 48.4017 112.366 48.8073 112.184C49.2129 111.997 49.6687 111.903 50.1745 111.903C50.6986 111.903 51.1657 112.006 51.5759 112.211C51.9861 112.416 52.3347 112.701 52.6218 113.065C52.9089 113.425 53.1277 113.852 53.278 114.344C53.433 114.836 53.5105 115.374 53.5105 115.957V116.593C53.5105 117.208 53.4489 117.791 53.3259 118.343C53.2029 118.894 53.0137 119.398 52.7585 119.854C52.5033 120.309 52.1775 120.703 51.781 121.036C51.389 121.369 50.9196 121.626 50.3728 121.809C49.8305 121.986 49.2107 122.075 48.5134 122.075H48.3562V120.599ZM62.0141 120.578V122H55.2739V120.783L58.5073 117.29C58.8445 116.907 59.1111 116.575 59.3071 116.292C59.503 116.009 59.642 115.754 59.7241 115.526C59.8107 115.294 59.8539 115.073 59.8539 114.863C59.8539 114.558 59.7993 114.291 59.6899 114.063C59.5805 113.831 59.421 113.651 59.2114 113.523C59.0063 113.396 58.7534 113.332 58.4526 113.332C58.1199 113.332 57.8351 113.41 57.5981 113.564C57.3657 113.715 57.1879 113.924 57.0649 114.193C56.9464 114.462 56.8871 114.77 56.8871 115.116H55.0756C55.0756 114.528 55.2123 113.993 55.4858 113.51C55.7592 113.022 56.1511 112.632 56.6616 112.341C57.172 112.049 57.7781 111.903 58.4799 111.903C59.1635 111.903 59.7423 112.017 60.2162 112.245C60.6902 112.468 61.0502 112.787 61.2963 113.202C61.5424 113.617 61.6655 114.111 61.6655 114.686C61.6655 115.005 61.6131 115.319 61.5082 115.629C61.4034 115.939 61.2553 116.246 61.0639 116.552C60.8771 116.853 60.6537 117.158 60.394 117.468C60.1342 117.778 59.8448 118.094 59.5258 118.418L57.5844 120.578H62.0141Z" fill="#757575"/>
<path d="M109.409 117.023V118.452H105.67V117.023H109.409ZM113.114 116.224H114.133C114.493 116.224 114.789 116.162 115.021 116.039C115.258 115.911 115.434 115.738 115.548 115.52C115.666 115.296 115.725 115.039 115.725 114.747C115.725 114.46 115.673 114.212 115.568 114.002C115.463 113.788 115.304 113.624 115.09 113.51C114.88 113.391 114.611 113.332 114.283 113.332C114.019 113.332 113.775 113.384 113.551 113.489C113.333 113.594 113.157 113.744 113.025 113.94C112.898 114.132 112.834 114.362 112.834 114.631H111.022C111.022 114.093 111.163 113.621 111.446 113.216C111.733 112.806 112.12 112.484 112.608 112.252C113.096 112.02 113.64 111.903 114.242 111.903C114.898 111.903 115.472 112.013 115.965 112.231C116.461 112.446 116.846 112.762 117.12 113.182C117.398 113.601 117.537 114.12 117.537 114.74C117.537 115.036 117.466 115.333 117.325 115.629C117.188 115.921 116.985 116.185 116.717 116.422C116.452 116.654 116.126 116.843 115.739 116.989C115.356 117.131 114.916 117.201 114.42 117.201H113.114V116.224ZM113.114 117.618V116.654H114.42C114.98 116.654 115.466 116.72 115.876 116.853C116.29 116.98 116.632 117.162 116.901 117.399C117.17 117.632 117.368 117.903 117.496 118.213C117.628 118.523 117.694 118.855 117.694 119.211C117.694 119.676 117.607 120.09 117.434 120.455C117.261 120.815 117.017 121.12 116.703 121.371C116.393 121.622 116.028 121.813 115.609 121.945C115.19 122.073 114.736 122.137 114.249 122.137C113.825 122.137 113.412 122.08 113.011 121.966C112.615 121.847 112.257 121.672 111.938 121.439C111.619 121.202 111.366 120.906 111.179 120.551C110.993 120.191 110.899 119.774 110.899 119.3H112.711C112.711 119.573 112.777 119.817 112.909 120.031C113.046 120.245 113.232 120.414 113.469 120.537C113.711 120.656 113.982 120.715 114.283 120.715C114.616 120.715 114.9 120.656 115.137 120.537C115.379 120.414 115.564 120.241 115.691 120.018C115.819 119.79 115.883 119.519 115.883 119.204C115.883 118.83 115.812 118.527 115.671 118.295C115.529 118.062 115.327 117.892 115.062 117.782C114.802 117.673 114.493 117.618 114.133 117.618H113.114ZM126.157 120.578V122H119.416V120.783L122.65 117.29C122.987 116.907 123.254 116.575 123.45 116.292C123.646 116.009 123.785 115.754 123.867 115.526C123.953 115.294 123.997 115.073 123.997 114.863C123.997 114.558 123.942 114.291 123.832 114.063C123.723 113.831 123.564 113.651 123.354 113.523C123.149 113.396 122.896 113.332 122.595 113.332C122.262 113.332 121.978 113.41 121.741 113.564C121.508 113.715 121.331 113.924 121.207 114.193C121.089 114.462 121.03 114.77 121.03 115.116H119.218C119.218 114.528 119.355 113.993 119.628 113.51C119.902 113.022 120.294 112.632 120.804 112.341C121.315 112.049 121.921 111.903 122.623 111.903C123.306 111.903 123.885 112.017 124.359 112.245C124.833 112.468 125.193 112.787 125.439 113.202C125.685 113.617 125.808 114.111 125.808 114.686C125.808 115.005 125.756 115.319 125.651 115.629C125.546 115.939 125.398 116.246 125.206 116.552C125.02 116.853 124.796 117.158 124.537 117.468C124.277 117.778 123.987 118.094 123.668 118.418L121.727 120.578H126.157Z" fill="#757575"/>
<path d="M261.691 3.4536C261.691 1.92771 262.928 0.690722 264.454 0.690722H294.845V33.8454H261.691V3.4536Z" fill="white" stroke="#757575" stroke-width="1.38144"/>
<rect x="294.845" y="0.690722" width="33.1546" height="33.1546" fill="white" stroke="#757575" stroke-width="1.38144"/>
<rect x="328" y="0.690722" width="33.1546" height="33.1546" fill="white" stroke="#757575" stroke-width="1.38144"/>
<path d="M361.155 0.690722H391.546C393.072 0.690722 394.309 1.92771 394.309 3.45361V33.8454H361.155V0.690722Z" fill="white" stroke="#757575" stroke-width="1.38144"/>
<rect x="261.691" y="33.845" width="33.1546" height="33.1546" fill="white" stroke="#757575" stroke-width="1.38144"/>
<rect x="294.845" y="33.845" width="33.1546" height="33.1546" fill="white" stroke="#757575" stroke-width="1.38144"/>
<rect x="328" y="33.845" width="33.1546" height="33.1546" fill="white" stroke="#757575" stroke-width="1.38144"/>
<rect x="361.155" y="33.845" width="33.1546" height="33.1546" fill="white" stroke="#757575" stroke-width="1.38144"/>
<rect x="261.691" y="67.0003" width="33.1546" height="33.1546" fill="white" stroke="#757575" stroke-width="1.38144"/>
<rect x="294.845" y="67.0003" width="33.1546" height="33.1546" fill="white" stroke="#757575" stroke-width="1.38144"/>
<rect x="328" y="67.0003" width="33.1546" height="33.1546" fill="white" stroke="#757575" stroke-width="1.38144"/>
<rect x="361.155" y="67.0003" width="33.1546" height="33.1546" fill="white" stroke="#757575" stroke-width="1.38144"/>
<path d="M261.691 100.155H294.845V133.309H264.454C262.928 133.309 261.691 132.072 261.691 130.546V100.155Z" fill="white" stroke="#757575" stroke-width="1.38144"/>
<rect x="294.845" y="100.155" width="33.1546" height="33.1546" fill="white" stroke="#757575" stroke-width="1.38144"/>
<rect x="328" y="100.155" width="33.1546" height="33.1546" fill="white" stroke="#757575" stroke-width="1.38144"/>
<path d="M361.155 100.155H394.309V130.546C394.309 132.072 393.072 133.309 391.546 133.309H361.155V100.155Z" fill="white" stroke="#757575" stroke-width="1.38144"/>
<path d="M277.458 20.5781V22H270.718V20.7832L273.951 17.29C274.288 16.9072 274.555 16.5745 274.751 16.292C274.947 16.0094 275.086 15.7542 275.168 15.5264C275.255 15.2939 275.298 15.0729 275.298 14.8633C275.298 14.5579 275.243 14.2913 275.134 14.0635C275.024 13.8311 274.865 13.651 274.655 13.5234C274.45 13.3958 274.197 13.332 273.896 13.332C273.564 13.332 273.279 13.4095 273.042 13.5645C272.81 13.7148 272.632 13.9245 272.509 14.1934C272.39 14.4622 272.331 14.7699 272.331 15.1162H270.52C270.52 14.5283 270.656 13.9928 270.93 13.5098C271.203 13.0221 271.595 12.6325 272.105 12.3408C272.616 12.0492 273.222 11.9033 273.924 11.9033C274.607 11.9033 275.186 12.0173 275.66 12.2451C276.134 12.4684 276.494 12.7874 276.74 13.2021C276.986 13.6169 277.109 14.1113 277.109 14.6855C277.109 15.0046 277.057 15.319 276.952 15.6289C276.847 15.9388 276.699 16.2464 276.508 16.5518C276.321 16.8525 276.098 17.1579 275.838 17.4678C275.578 17.7777 275.289 18.0944 274.97 18.418L273.028 20.5781H277.458ZM285.599 19.2793C285.599 19.8991 285.454 20.4232 285.162 20.8516C284.875 21.2754 284.481 21.5967 283.979 21.8154C283.482 22.0296 282.917 22.1367 282.284 22.1367C281.655 22.1367 281.088 22.0296 280.582 21.8154C280.08 21.5967 279.682 21.2754 279.385 20.8516C279.094 20.4232 278.948 19.8991 278.948 19.2793C278.948 18.8646 279.03 18.4886 279.194 18.1514C279.363 17.8141 279.595 17.5247 279.891 17.2832C280.188 17.0371 280.538 16.8503 280.944 16.7227C281.35 16.5905 281.792 16.5244 282.27 16.5244C282.908 16.5244 283.478 16.6406 283.979 16.873C284.485 17.1009 284.882 17.4222 285.169 17.8369C285.456 18.2471 285.599 18.7279 285.599 19.2793ZM283.781 19.1699C283.781 18.8509 283.717 18.5752 283.59 18.3428C283.467 18.1058 283.291 17.9235 283.063 17.7959C282.835 17.6683 282.571 17.6045 282.27 17.6045C281.965 17.6045 281.698 17.6683 281.47 17.7959C281.247 17.9235 281.072 18.1058 280.944 18.3428C280.821 18.5752 280.759 18.8509 280.759 19.1699C280.759 19.4935 280.821 19.7715 280.944 20.0039C281.072 20.2318 281.249 20.4072 281.477 20.5303C281.705 20.6533 281.974 20.7148 282.284 20.7148C282.594 20.7148 282.86 20.6533 283.084 20.5303C283.307 20.4072 283.478 20.2318 283.596 20.0039C283.719 19.7715 283.781 19.4935 283.781 19.1699ZM285.381 14.6719C285.381 15.1732 285.248 15.6198 284.984 16.0117C284.72 16.3991 284.353 16.7021 283.884 16.9209C283.419 17.1396 282.885 17.249 282.284 17.249C281.682 17.249 281.145 17.1396 280.671 16.9209C280.201 16.7021 279.832 16.3991 279.563 16.0117C279.299 15.6198 279.167 15.1732 279.167 14.6719C279.167 14.0794 279.301 13.5781 279.57 13.168C279.839 12.7533 280.206 12.4388 280.671 12.2246C281.14 12.0104 281.673 11.9033 282.27 11.9033C282.876 11.9033 283.414 12.0104 283.884 12.2246C284.353 12.4388 284.72 12.7533 284.984 13.168C285.248 13.5781 285.381 14.0794 285.381 14.6719ZM283.576 14.7471C283.576 14.4645 283.523 14.2184 283.419 14.0088C283.314 13.7946 283.163 13.6283 282.967 13.5098C282.776 13.3913 282.544 13.332 282.27 13.332C282.006 13.332 281.778 13.389 281.587 13.5029C281.395 13.6169 281.247 13.7809 281.142 13.9951C281.037 14.2048 280.985 14.4554 280.985 14.7471C280.985 15.0342 281.037 15.2848 281.142 15.499C281.247 15.7132 281.395 15.8818 281.587 16.0049C281.783 16.1234 282.015 16.1826 282.284 16.1826C282.553 16.1826 282.783 16.1234 282.974 16.0049C283.166 15.8818 283.314 15.7132 283.419 15.499C283.523 15.2848 283.576 15.0342 283.576 14.7471Z" fill="#757575"/>
<path d="M343.321 19.2793C343.321 19.8991 343.175 20.4232 342.884 20.8516C342.597 21.2754 342.202 21.5967 341.701 21.8154C341.204 22.0296 340.639 22.1367 340.006 22.1367C339.377 22.1367 338.81 22.0296 338.304 21.8154C337.802 21.5967 337.404 21.2754 337.107 20.8516C336.816 20.4232 336.67 19.8991 336.67 19.2793C336.67 18.8646 336.752 18.4886 336.916 18.1514C337.085 17.8141 337.317 17.5247 337.613 17.2832C337.91 17.0371 338.26 16.8503 338.666 16.7227C339.072 16.5905 339.514 16.5244 339.992 16.5244C340.63 16.5244 341.2 16.6406 341.701 16.873C342.207 17.1009 342.604 17.4222 342.891 17.8369C343.178 18.2471 343.321 18.7279 343.321 19.2793ZM341.503 19.1699C341.503 18.8509 341.439 18.5752 341.312 18.3428C341.188 18.1058 341.013 17.9235 340.785 17.7959C340.557 17.6683 340.293 17.6045 339.992 17.6045C339.687 17.6045 339.42 17.6683 339.192 17.7959C338.969 17.9235 338.794 18.1058 338.666 18.3428C338.543 18.5752 338.481 18.8509 338.481 19.1699C338.481 19.4935 338.543 19.7715 338.666 20.0039C338.794 20.2318 338.971 20.4072 339.199 20.5303C339.427 20.6533 339.696 20.7148 340.006 20.7148C340.316 20.7148 340.582 20.6533 340.806 20.5303C341.029 20.4072 341.2 20.2318 341.318 20.0039C341.441 19.7715 341.503 19.4935 341.503 19.1699ZM343.103 14.6719C343.103 15.1732 342.97 15.6198 342.706 16.0117C342.442 16.3991 342.075 16.7021 341.605 16.9209C341.141 17.1396 340.607 17.249 340.006 17.249C339.404 17.249 338.867 17.1396 338.393 16.9209C337.923 16.7021 337.554 16.3991 337.285 16.0117C337.021 15.6198 336.889 15.1732 336.889 14.6719C336.889 14.0794 337.023 13.5781 337.292 13.168C337.561 12.7533 337.928 12.4388 338.393 12.2246C338.862 12.0104 339.395 11.9033 339.992 11.9033C340.598 11.9033 341.136 12.0104 341.605 12.2246C342.075 12.4388 342.442 12.7533 342.706 13.168C342.97 13.5781 343.103 14.0794 343.103 14.6719ZM341.298 14.7471C341.298 14.4645 341.245 14.2184 341.141 14.0088C341.036 13.7946 340.885 13.6283 340.689 13.5098C340.498 13.3913 340.266 13.332 339.992 13.332C339.728 13.332 339.5 13.389 339.309 13.5029C339.117 13.6169 338.969 13.7809 338.864 13.9951C338.759 14.2048 338.707 14.4554 338.707 14.7471C338.707 15.0342 338.759 15.2848 338.864 15.499C338.969 15.7132 339.117 15.8818 339.309 16.0049C339.505 16.1234 339.737 16.1826 340.006 16.1826C340.275 16.1826 340.505 16.1234 340.696 16.0049C340.888 15.8818 341.036 15.7132 341.141 15.499C341.245 15.2848 341.298 15.0342 341.298 14.7471ZM346.787 17.4199L345.344 17.0713L345.898 12.0469H351.374V13.5439H347.395L347.135 15.8682C347.277 15.7816 347.482 15.695 347.751 15.6084C348.024 15.5173 348.332 15.4717 348.674 15.4717C349.148 15.4717 349.571 15.5492 349.945 15.7041C350.319 15.8545 350.635 16.0732 350.895 16.3604C351.16 16.6475 351.358 16.9984 351.49 17.4131C351.627 17.8232 351.695 18.2881 351.695 18.8076C351.695 19.2633 351.627 19.6917 351.49 20.0928C351.358 20.4893 351.155 20.8424 350.882 21.1523C350.608 21.4577 350.264 21.6992 349.849 21.877C349.435 22.0501 348.947 22.1367 348.386 22.1367C347.963 22.1367 347.555 22.0752 347.163 21.9521C346.775 21.8245 346.427 21.64 346.117 21.3984C345.807 21.1523 345.559 20.8516 345.372 20.4961C345.19 20.1406 345.089 19.7327 345.071 19.2725H346.855C346.887 19.5778 346.969 19.8376 347.101 20.0518C347.233 20.266 347.407 20.43 347.621 20.5439C347.84 20.6579 348.092 20.7148 348.38 20.7148C348.639 20.7148 348.863 20.667 349.05 20.5713C349.241 20.471 349.398 20.332 349.521 20.1543C349.644 19.9766 349.735 19.7669 349.795 19.5254C349.854 19.2839 349.884 19.0195 349.884 18.7324C349.884 18.4544 349.849 18.2015 349.781 17.9736C349.713 17.7412 349.608 17.5407 349.467 17.3721C349.325 17.2035 349.148 17.0736 348.933 16.9824C348.724 16.8913 348.478 16.8457 348.195 16.8457C347.817 16.8457 347.525 16.9027 347.32 17.0166C347.12 17.1305 346.942 17.265 346.787 17.4199Z" fill="#757575"/>
<path d="M305.509 17.4199L304.066 17.0713L304.62 12.0469H310.096V13.5439H306.117L305.857 15.8682C305.999 15.7816 306.204 15.695 306.473 15.6084C306.746 15.5173 307.054 15.4717 307.396 15.4717C307.869 15.4717 308.293 15.5492 308.667 15.7041C309.041 15.8545 309.357 16.0732 309.617 16.3604C309.882 16.6475 310.08 16.9984 310.212 17.4131C310.349 17.8232 310.417 18.2881 310.417 18.8076C310.417 19.2633 310.349 19.6917 310.212 20.0928C310.08 20.4893 309.877 20.8424 309.604 21.1523C309.33 21.4577 308.986 21.6992 308.571 21.877C308.157 22.0501 307.669 22.1367 307.108 22.1367C306.685 22.1367 306.277 22.0752 305.885 21.9521C305.497 21.8245 305.149 21.64 304.839 21.3984C304.529 21.1523 304.281 20.8516 304.094 20.4961C303.911 20.1406 303.811 19.7327 303.793 19.2725H305.577C305.609 19.5778 305.691 19.8376 305.823 20.0518C305.955 20.266 306.129 20.43 306.343 20.5439C306.562 20.6579 306.814 20.7148 307.102 20.7148C307.361 20.7148 307.585 20.667 307.771 20.5713C307.963 20.471 308.12 20.332 308.243 20.1543C308.366 19.9766 308.457 19.7669 308.517 19.5254C308.576 19.2839 308.605 19.0195 308.605 18.7324C308.605 18.4544 308.571 18.2015 308.503 17.9736C308.435 17.7412 308.33 17.5407 308.188 17.3721C308.047 17.2035 307.869 17.0736 307.655 16.9824C307.446 16.8913 307.2 16.8457 306.917 16.8457C306.539 16.8457 306.247 16.9027 306.042 17.0166C305.841 17.1305 305.664 17.265 305.509 17.4199ZM318.681 12.0469V13.0312L314.771 22H312.864L316.774 13.4688H311.716V12.0469H318.681Z" fill="#757575"/>
<path d="M370.366 12.0195V22H368.555V14.1318L366.155 14.9248V13.4619L370.161 12.0195H370.366ZM378.644 12.0195V22H376.833V14.1318L374.433 14.9248V13.4619L378.439 12.0195H378.644ZM389.185 18.3701V19.792H382.014L381.939 18.6982L386.157 12.0469H387.599L386.04 14.6924L383.778 18.3701H389.185ZM388.002 12.0469V22H386.191V12.0469H388.002Z" fill="#757575"/>
<path d="M270.366 46.0195V56H268.555V48.1318L266.155 48.9248V47.4619L270.161 46.0195H270.366ZM280.907 52.3701V53.792H273.736L273.661 52.6982L277.879 46.0469H279.321L277.762 48.6924L275.5 52.3701H280.907ZM279.724 46.0469V56H277.913V46.0469H279.724ZM289.014 54.5781V56H282.274V54.7832L285.507 51.29C285.845 50.9072 286.111 50.5745 286.307 50.292C286.503 50.0094 286.642 49.7542 286.724 49.5264C286.811 49.2939 286.854 49.0729 286.854 48.8633C286.854 48.5579 286.799 48.2913 286.69 48.0635C286.581 47.8311 286.421 47.651 286.211 47.5234C286.006 47.3958 285.753 47.332 285.453 47.332C285.12 47.332 284.835 47.4095 284.598 47.5645C284.366 47.7148 284.188 47.9245 284.065 48.1934C283.946 48.4622 283.887 48.7699 283.887 49.1162H282.076C282.076 48.5283 282.212 47.9928 282.486 47.5098C282.759 47.0221 283.151 46.6325 283.662 46.3408C284.172 46.0492 284.778 45.9033 285.48 45.9033C286.164 45.9033 286.742 46.0173 287.216 46.2451C287.69 46.4684 288.05 46.7874 288.296 47.2021C288.542 47.6169 288.665 48.1113 288.665 48.6855C288.665 49.0046 288.613 49.319 288.508 49.6289C288.403 49.9388 288.255 50.2464 288.064 50.5518C287.877 50.8525 287.654 51.1579 287.394 51.4678C287.134 51.7777 286.845 52.0944 286.526 52.418L284.584 54.5781H289.014Z" fill="#757575"/>
<path d="M337.366 46.0195V56H335.555V48.1318L333.155 48.9248V47.4619L337.161 46.0195H337.366ZM342.356 54.5986H342.486C343.074 54.5986 343.571 54.5234 343.976 54.373C344.386 54.2227 344.717 54.0107 344.967 53.7373C345.223 53.4593 345.407 53.1289 345.521 52.7461C345.64 52.3587 345.699 51.9303 345.699 51.4609V49.6562C345.699 49.2734 345.66 48.9385 345.583 48.6514C345.505 48.3597 345.396 48.1159 345.255 47.9199C345.118 47.724 344.956 47.5781 344.769 47.4824C344.582 47.3822 344.382 47.332 344.168 47.332C343.931 47.332 343.721 47.3867 343.539 47.4961C343.356 47.6055 343.202 47.7559 343.074 47.9473C342.951 48.1341 342.855 48.3506 342.787 48.5967C342.723 48.8428 342.691 49.1025 342.691 49.376C342.691 49.6403 342.721 49.8932 342.78 50.1348C342.844 50.3763 342.937 50.5905 343.06 50.7773C343.188 50.9642 343.347 51.1123 343.539 51.2217C343.73 51.3265 343.954 51.3789 344.209 51.3789C344.45 51.3789 344.669 51.3333 344.865 51.2422C345.065 51.1465 345.239 51.0212 345.384 50.8662C345.53 50.7067 345.642 50.5312 345.719 50.3398C345.801 50.1439 345.847 49.9456 345.856 49.7451L346.492 50.0186C346.492 50.3512 346.421 50.6794 346.28 51.0029C346.143 51.3265 345.95 51.6204 345.699 51.8848C345.453 52.1445 345.166 52.3542 344.838 52.5137C344.509 52.6686 344.156 52.7461 343.778 52.7461C343.309 52.7461 342.894 52.6595 342.534 52.4863C342.174 52.3132 341.871 52.0739 341.625 51.7686C341.383 51.4587 341.201 51.1032 341.078 50.7021C340.955 50.2965 340.893 49.8636 340.893 49.4033C340.893 48.9248 340.968 48.4759 341.119 48.0566C341.269 47.6328 341.486 47.2614 341.768 46.9424C342.055 46.6188 342.402 46.3659 342.807 46.1836C343.213 45.9967 343.669 45.9033 344.175 45.9033C344.699 45.9033 345.166 46.0059 345.576 46.2109C345.986 46.416 346.335 46.7008 346.622 47.0654C346.909 47.4255 347.128 47.8516 347.278 48.3438C347.433 48.8359 347.51 49.3737 347.51 49.957V50.5928C347.51 51.208 347.449 51.7913 347.326 52.3428C347.203 52.8942 347.014 53.3978 346.759 53.8535C346.503 54.3092 346.177 54.7035 345.781 55.0361C345.389 55.3688 344.92 55.6263 344.373 55.8086C343.83 55.9863 343.211 56.0752 342.513 56.0752H342.356V54.5986ZM350.634 54.5986H350.764C351.352 54.5986 351.849 54.5234 352.254 54.373C352.664 54.2227 352.995 54.0107 353.246 53.7373C353.501 53.4593 353.685 53.1289 353.799 52.7461C353.918 52.3587 353.977 51.9303 353.977 51.4609V49.6562C353.977 49.2734 353.938 48.9385 353.861 48.6514C353.783 48.3597 353.674 48.1159 353.533 47.9199C353.396 47.724 353.234 47.5781 353.047 47.4824C352.86 47.3822 352.66 47.332 352.446 47.332C352.209 47.332 351.999 47.3867 351.817 47.4961C351.635 47.6055 351.48 47.7559 351.352 47.9473C351.229 48.1341 351.133 48.3506 351.065 48.5967C351.001 48.8428 350.969 49.1025 350.969 49.376C350.969 49.6403 350.999 49.8932 351.058 50.1348C351.122 50.3763 351.215 50.5905 351.338 50.7773C351.466 50.9642 351.625 51.1123 351.817 51.2217C352.008 51.3265 352.232 51.3789 352.487 51.3789C352.728 51.3789 352.947 51.3333 353.143 51.2422C353.344 51.1465 353.517 51.0212 353.663 50.8662C353.808 50.7067 353.92 50.5312 353.997 50.3398C354.08 50.1439 354.125 49.9456 354.134 49.7451L354.77 50.0186C354.77 50.3512 354.699 50.6794 354.558 51.0029C354.421 51.3265 354.228 51.6204 353.977 51.8848C353.731 52.1445 353.444 52.3542 353.116 52.5137C352.788 52.6686 352.434 52.7461 352.056 52.7461C351.587 52.7461 351.172 52.6595 350.812 52.4863C350.452 52.3132 350.149 52.0739 349.903 51.7686C349.661 51.4587 349.479 51.1032 349.356 50.7021C349.233 50.2965 349.171 49.8636 349.171 49.4033C349.171 48.9248 349.247 48.4759 349.397 48.0566C349.547 47.6328 349.764 47.2614 350.046 46.9424C350.333 46.6188 350.68 46.3659 351.085 46.1836C351.491 45.9967 351.947 45.9033 352.453 45.9033C352.977 45.9033 353.444 46.0059 353.854 46.2109C354.264 46.416 354.613 46.7008 354.9 47.0654C355.187 47.4255 355.406 47.8516 355.556 48.3438C355.711 48.8359 355.789 49.3737 355.789 49.957V50.5928C355.789 51.208 355.727 51.7913 355.604 52.3428C355.481 52.8942 355.292 53.3978 355.037 53.8535C354.781 54.3092 354.456 54.7035 354.059 55.0361C353.667 55.3688 353.198 55.6263 352.651 55.8086C352.109 55.9863 351.489 56.0752 350.791 56.0752H350.634V54.5986Z" fill="#757575"/>
<path d="M304.366 46.0195V56H302.555V48.1318L300.155 48.9248V47.4619L304.161 46.0195H304.366ZM314.681 46.0469V47.0312L310.771 56H308.864L312.774 47.4688H307.716V46.0469H314.681ZM320.922 46.0195V56H319.111V48.1318L316.711 48.9248V47.4619L320.717 46.0195H320.922Z" fill="#757575"/>
<path d="M373.458 54.5781V56H366.718V54.7832L369.951 51.29C370.288 50.9072 370.555 50.5745 370.751 50.292C370.947 50.0094 371.086 49.7542 371.168 49.5264C371.255 49.2939 371.298 49.0729 371.298 48.8633C371.298 48.5579 371.243 48.2913 371.134 48.0635C371.024 47.8311 370.865 47.651 370.655 47.5234C370.45 47.3958 370.197 47.332 369.896 47.332C369.564 47.332 369.279 47.4095 369.042 47.5645C368.81 47.7148 368.632 47.9245 368.509 48.1934C368.39 48.4622 368.331 48.7699 368.331 49.1162H366.52C366.52 48.5283 366.656 47.9928 366.93 47.5098C367.203 47.0221 367.595 46.6325 368.105 46.3408C368.616 46.0492 369.222 45.9033 369.924 45.9033C370.607 45.9033 371.186 46.0173 371.66 46.2451C372.134 46.4684 372.494 46.7874 372.74 47.2021C372.986 47.6169 373.109 48.1113 373.109 48.6855C373.109 49.0046 373.057 49.319 372.952 49.6289C372.847 49.9388 372.699 50.2464 372.508 50.5518C372.321 50.8525 372.098 51.1579 371.838 51.4678C371.578 51.7777 371.289 52.0944 370.97 52.418L369.028 54.5781H373.458ZM381.736 54.5781V56H374.996V54.7832L378.229 51.29C378.566 50.9072 378.833 50.5745 379.029 50.292C379.225 50.0094 379.364 49.7542 379.446 49.5264C379.533 49.2939 379.576 49.0729 379.576 48.8633C379.576 48.5579 379.521 48.2913 379.412 48.0635C379.302 47.8311 379.143 47.651 378.933 47.5234C378.728 47.3958 378.475 47.332 378.175 47.332C377.842 47.332 377.557 47.4095 377.32 47.5645C377.088 47.7148 376.91 47.9245 376.787 48.1934C376.668 48.4622 376.609 48.7699 376.609 49.1162H374.798C374.798 48.5283 374.934 47.9928 375.208 47.5098C375.481 47.0221 375.873 46.6325 376.384 46.3408C376.894 46.0492 377.5 45.9033 378.202 45.9033C378.885 45.9033 379.464 46.0173 379.938 46.2451C380.412 46.4684 380.772 46.7874 381.018 47.2021C381.264 47.6169 381.387 48.1113 381.387 48.6855C381.387 49.0046 381.335 49.319 381.23 49.6289C381.125 49.9388 380.977 50.2464 380.786 50.5518C380.599 50.8525 380.376 51.1579 380.116 51.4678C379.856 51.7777 379.567 52.0944 379.248 52.418L377.306 54.5781H381.736ZM389.959 46.0469V47.0312L386.049 56H384.142L388.052 47.4688H382.994V46.0469H389.959Z" fill="#757575"/>
<path d="M275.366 79.0195V89H273.555V81.1318L271.155 81.9248V80.4619L275.161 79.0195H275.366ZM285.907 85.3701V86.792H278.736L278.661 85.6982L282.879 79.0469H284.321L282.762 81.6924L280.5 85.3701H285.907ZM284.724 79.0469V89H282.913V79.0469H284.724Z" fill="#757575"/>
<path d="M344.403 79.0469V80.0312L340.493 89H338.586L342.496 80.4688H337.438V79.0469H344.403ZM350.644 79.0195V89H348.833V81.1318L346.433 81.9248V80.4619L350.439 79.0195H350.644Z" fill="#757575"/>
<path d="M310.458 87.5781V89H303.718V87.7832L306.951 84.29C307.288 83.9072 307.555 83.5745 307.751 83.292C307.947 83.0094 308.086 82.7542 308.168 82.5264C308.255 82.2939 308.298 82.0729 308.298 81.8633C308.298 81.5579 308.243 81.2913 308.134 81.0635C308.024 80.8311 307.865 80.651 307.655 80.5234C307.45 80.3958 307.197 80.332 306.896 80.332C306.564 80.332 306.279 80.4095 306.042 80.5645C305.81 80.7148 305.632 80.9245 305.509 81.1934C305.39 81.4622 305.331 81.7699 305.331 82.1162H303.52C303.52 81.5283 303.656 80.9928 303.93 80.5098C304.203 80.0221 304.595 79.6325 305.105 79.3408C305.616 79.0492 306.222 78.9033 306.924 78.9033C307.607 78.9033 308.186 79.0173 308.66 79.2451C309.134 79.4684 309.494 79.7874 309.74 80.2021C309.986 80.6169 310.109 81.1113 310.109 81.6855C310.109 82.0046 310.057 82.319 309.952 82.6289C309.847 82.9388 309.699 83.2464 309.508 83.5518C309.321 83.8525 309.098 84.1579 308.838 84.4678C308.578 84.7777 308.289 85.0944 307.97 85.418L306.028 87.5781H310.458ZM318.599 86.2793C318.599 86.8991 318.454 87.4232 318.162 87.8516C317.875 88.2754 317.481 88.5967 316.979 88.8154C316.482 89.0296 315.917 89.1367 315.284 89.1367C314.655 89.1367 314.088 89.0296 313.582 88.8154C313.08 88.5967 312.682 88.2754 312.385 87.8516C312.094 87.4232 311.948 86.8991 311.948 86.2793C311.948 85.8646 312.03 85.4886 312.194 85.1514C312.363 84.8141 312.595 84.5247 312.891 84.2832C313.188 84.0371 313.538 83.8503 313.944 83.7227C314.35 83.5905 314.792 83.5244 315.27 83.5244C315.908 83.5244 316.478 83.6406 316.979 83.873C317.485 84.1009 317.882 84.4222 318.169 84.8369C318.456 85.2471 318.599 85.7279 318.599 86.2793ZM316.781 86.1699C316.781 85.8509 316.717 85.5752 316.59 85.3428C316.467 85.1058 316.291 84.9235 316.063 84.7959C315.835 84.6683 315.571 84.6045 315.27 84.6045C314.965 84.6045 314.698 84.6683 314.47 84.7959C314.247 84.9235 314.072 85.1058 313.944 85.3428C313.821 85.5752 313.759 85.8509 313.759 86.1699C313.759 86.4935 313.821 86.7715 313.944 87.0039C314.072 87.2318 314.249 87.4072 314.477 87.5303C314.705 87.6533 314.974 87.7148 315.284 87.7148C315.594 87.7148 315.86 87.6533 316.084 87.5303C316.307 87.4072 316.478 87.2318 316.596 87.0039C316.719 86.7715 316.781 86.4935 316.781 86.1699ZM318.381 81.6719C318.381 82.1732 318.248 82.6198 317.984 83.0117C317.72 83.3991 317.353 83.7021 316.884 83.9209C316.419 84.1396 315.885 84.249 315.284 84.249C314.682 84.249 314.145 84.1396 313.671 83.9209C313.201 83.7021 312.832 83.3991 312.563 83.0117C312.299 82.6198 312.167 82.1732 312.167 81.6719C312.167 81.0794 312.301 80.5781 312.57 80.168C312.839 79.7533 313.206 79.4388 313.671 79.2246C314.14 79.0104 314.673 78.9033 315.27 78.9033C315.876 78.9033 316.414 79.0104 316.884 79.2246C317.353 79.4388 317.72 79.7533 317.984 80.168C318.248 80.5781 318.381 81.0794 318.381 81.6719ZM316.576 81.7471C316.576 81.4645 316.523 81.2184 316.419 81.0088C316.314 80.7946 316.163 80.6283 315.967 80.5098C315.776 80.3913 315.544 80.332 315.27 80.332C315.006 80.332 314.778 80.389 314.587 80.5029C314.395 80.6169 314.247 80.7809 314.142 80.9951C314.037 81.2048 313.985 81.4554 313.985 81.7471C313.985 82.0342 314.037 82.2848 314.142 82.499C314.247 82.7132 314.395 82.8818 314.587 83.0049C314.783 83.1234 315.015 83.1826 315.284 83.1826C315.553 83.1826 315.783 83.1234 315.974 83.0049C316.166 82.8818 316.314 82.7132 316.419 82.499C316.523 82.2848 316.576 82.0342 316.576 81.7471Z" fill="#757575"/>
<path d="M370.366 79.0195V89H368.555V81.1318L366.155 81.9248V80.4619L370.161 79.0195H370.366ZM380.907 85.3701V86.792H373.736L373.661 85.6982L377.879 79.0469H379.321L377.762 81.6924L375.5 85.3701H380.907ZM379.724 79.0469V89H377.913V79.0469H379.724ZM389.014 87.5781V89H382.274V87.7832L385.507 84.29C385.845 83.9072 386.111 83.5745 386.307 83.292C386.503 83.0094 386.642 82.7542 386.724 82.5264C386.811 82.2939 386.854 82.0729 386.854 81.8633C386.854 81.5579 386.799 81.2913 386.69 81.0635C386.581 80.8311 386.421 80.651 386.211 80.5234C386.006 80.3958 385.753 80.332 385.453 80.332C385.12 80.332 384.835 80.4095 384.598 80.5645C384.366 80.7148 384.188 80.9245 384.065 81.1934C383.946 81.4622 383.887 81.7699 383.887 82.1162H382.076C382.076 81.5283 382.212 80.9928 382.486 80.5098C382.759 80.0221 383.151 79.6325 383.662 79.3408C384.172 79.0492 384.778 78.9033 385.48 78.9033C386.164 78.9033 386.742 79.0173 387.216 79.2451C387.69 79.4684 388.05 79.7874 388.296 80.2021C388.542 80.6169 388.665 81.1113 388.665 81.6855C388.665 82.0046 388.613 82.319 388.508 82.6289C388.403 82.9388 388.255 83.2464 388.064 83.5518C387.877 83.8525 387.654 84.1579 387.394 84.4678C387.134 84.7777 386.845 85.0944 386.526 85.418L384.584 87.5781H389.014Z" fill="#757575"/>
<path d="M276.321 119.279C276.321 119.899 276.175 120.423 275.884 120.852C275.597 121.275 275.202 121.597 274.701 121.815C274.204 122.03 273.639 122.137 273.006 122.137C272.377 122.137 271.81 122.03 271.304 121.815C270.802 121.597 270.404 121.275 270.107 120.852C269.816 120.423 269.67 119.899 269.67 119.279C269.67 118.865 269.752 118.489 269.916 118.151C270.085 117.814 270.317 117.525 270.613 117.283C270.91 117.037 271.26 116.85 271.666 116.723C272.072 116.59 272.514 116.524 272.992 116.524C273.63 116.524 274.2 116.641 274.701 116.873C275.207 117.101 275.604 117.422 275.891 117.837C276.178 118.247 276.321 118.728 276.321 119.279ZM274.503 119.17C274.503 118.851 274.439 118.575 274.312 118.343C274.188 118.106 274.013 117.924 273.785 117.796C273.557 117.668 273.293 117.604 272.992 117.604C272.687 117.604 272.42 117.668 272.192 117.796C271.969 117.924 271.794 118.106 271.666 118.343C271.543 118.575 271.481 118.851 271.481 119.17C271.481 119.493 271.543 119.771 271.666 120.004C271.794 120.232 271.971 120.407 272.199 120.53C272.427 120.653 272.696 120.715 273.006 120.715C273.316 120.715 273.582 120.653 273.806 120.53C274.029 120.407 274.2 120.232 274.318 120.004C274.441 119.771 274.503 119.493 274.503 119.17ZM276.103 114.672C276.103 115.173 275.97 115.62 275.706 116.012C275.442 116.399 275.075 116.702 274.605 116.921C274.141 117.14 273.607 117.249 273.006 117.249C272.404 117.249 271.867 117.14 271.393 116.921C270.923 116.702 270.554 116.399 270.285 116.012C270.021 115.62 269.889 115.173 269.889 114.672C269.889 114.079 270.023 113.578 270.292 113.168C270.561 112.753 270.928 112.439 271.393 112.225C271.862 112.01 272.395 111.903 272.992 111.903C273.598 111.903 274.136 112.01 274.605 112.225C275.075 112.439 275.442 112.753 275.706 113.168C275.97 113.578 276.103 114.079 276.103 114.672ZM274.298 114.747C274.298 114.465 274.245 114.218 274.141 114.009C274.036 113.795 273.885 113.628 273.689 113.51C273.498 113.391 273.266 113.332 272.992 113.332C272.728 113.332 272.5 113.389 272.309 113.503C272.117 113.617 271.969 113.781 271.864 113.995C271.759 114.205 271.707 114.455 271.707 114.747C271.707 115.034 271.759 115.285 271.864 115.499C271.969 115.713 272.117 115.882 272.309 116.005C272.505 116.123 272.737 116.183 273.006 116.183C273.275 116.183 273.505 116.123 273.696 116.005C273.888 115.882 274.036 115.713 274.141 115.499C274.245 115.285 274.298 115.034 274.298 114.747ZM279.787 117.42L278.344 117.071L278.898 112.047H284.374V113.544H280.395L280.135 115.868C280.277 115.782 280.482 115.695 280.751 115.608C281.024 115.517 281.332 115.472 281.674 115.472C282.148 115.472 282.571 115.549 282.945 115.704C283.319 115.854 283.635 116.073 283.895 116.36C284.16 116.647 284.358 116.998 284.49 117.413C284.627 117.823 284.695 118.288 284.695 118.808C284.695 119.263 284.627 119.692 284.49 120.093C284.358 120.489 284.155 120.842 283.882 121.152C283.608 121.458 283.264 121.699 282.849 121.877C282.435 122.05 281.947 122.137 281.386 122.137C280.963 122.137 280.555 122.075 280.163 121.952C279.775 121.825 279.427 121.64 279.117 121.398C278.807 121.152 278.559 120.852 278.372 120.496C278.19 120.141 278.089 119.733 278.071 119.272H279.855C279.887 119.578 279.969 119.838 280.101 120.052C280.233 120.266 280.407 120.43 280.621 120.544C280.84 120.658 281.092 120.715 281.38 120.715C281.639 120.715 281.863 120.667 282.05 120.571C282.241 120.471 282.398 120.332 282.521 120.154C282.644 119.977 282.735 119.767 282.795 119.525C282.854 119.284 282.884 119.02 282.884 118.732C282.884 118.454 282.849 118.201 282.781 117.974C282.713 117.741 282.608 117.541 282.467 117.372C282.325 117.203 282.148 117.074 281.933 116.982C281.724 116.891 281.478 116.846 281.195 116.846C280.817 116.846 280.525 116.903 280.32 117.017C280.12 117.131 279.942 117.265 279.787 117.42Z" fill="#757575"/>
<path d="M339.458 120.578V122H332.718V120.783L335.951 117.29C336.288 116.907 336.555 116.575 336.751 116.292C336.947 116.009 337.086 115.754 337.168 115.526C337.255 115.294 337.298 115.073 337.298 114.863C337.298 114.558 337.243 114.291 337.134 114.063C337.024 113.831 336.865 113.651 336.655 113.523C336.45 113.396 336.197 113.332 335.896 113.332C335.564 113.332 335.279 113.41 335.042 113.564C334.81 113.715 334.632 113.924 334.509 114.193C334.39 114.462 334.331 114.77 334.331 115.116H332.52C332.52 114.528 332.656 113.993 332.93 113.51C333.203 113.022 333.595 112.632 334.105 112.341C334.616 112.049 335.222 111.903 335.924 111.903C336.607 111.903 337.186 112.017 337.66 112.245C338.134 112.468 338.494 112.787 338.74 113.202C338.986 113.617 339.109 114.111 339.109 114.686C339.109 115.005 339.057 115.319 338.952 115.629C338.847 115.939 338.699 116.246 338.508 116.552C338.321 116.853 338.098 117.158 337.838 117.468C337.578 117.778 337.289 118.094 336.97 118.418L335.028 120.578H339.458ZM347.736 120.578V122H340.996V120.783L344.229 117.29C344.566 116.907 344.833 116.575 345.029 116.292C345.225 116.009 345.364 115.754 345.446 115.526C345.533 115.294 345.576 115.073 345.576 114.863C345.576 114.558 345.521 114.291 345.412 114.063C345.302 113.831 345.143 113.651 344.933 113.523C344.728 113.396 344.475 113.332 344.175 113.332C343.842 113.332 343.557 113.41 343.32 113.564C343.088 113.715 342.91 113.924 342.787 114.193C342.668 114.462 342.609 114.77 342.609 115.116H340.798C340.798 114.528 340.934 113.993 341.208 113.51C341.481 113.022 341.873 112.632 342.384 112.341C342.894 112.049 343.5 111.903 344.202 111.903C344.885 111.903 345.464 112.017 345.938 112.245C346.412 112.468 346.772 112.787 347.018 113.202C347.264 113.617 347.387 114.111 347.387 114.686C347.387 115.005 347.335 115.319 347.23 115.629C347.125 115.939 346.977 116.246 346.786 116.552C346.599 116.853 346.376 117.158 346.116 117.468C345.856 117.778 345.567 118.094 345.248 118.418L343.306 120.578H347.736ZM351.065 117.42L349.622 117.071L350.176 112.047H355.652V113.544H351.673L351.414 115.868C351.555 115.782 351.76 115.695 352.029 115.608C352.302 115.517 352.61 115.472 352.952 115.472C353.426 115.472 353.849 115.549 354.223 115.704C354.597 115.854 354.914 116.073 355.173 116.36C355.438 116.647 355.636 116.998 355.768 117.413C355.905 117.823 355.973 118.288 355.973 118.808C355.973 119.263 355.905 119.692 355.768 120.093C355.636 120.489 355.433 120.842 355.16 121.152C354.886 121.458 354.542 121.699 354.127 121.877C353.713 122.05 353.225 122.137 352.664 122.137C352.241 122.137 351.833 122.075 351.441 121.952C351.053 121.825 350.705 121.64 350.395 121.398C350.085 121.152 349.837 120.852 349.65 120.496C349.468 120.141 349.367 119.733 349.349 119.272H351.133C351.165 119.578 351.247 119.838 351.379 120.052C351.511 120.266 351.685 120.43 351.899 120.544C352.118 120.658 352.371 120.715 352.658 120.715C352.917 120.715 353.141 120.667 353.328 120.571C353.519 120.471 353.676 120.332 353.799 120.154C353.922 119.977 354.013 119.767 354.073 119.525C354.132 119.284 354.162 119.02 354.162 118.732C354.162 118.454 354.127 118.201 354.059 117.974C353.991 117.741 353.886 117.541 353.745 117.372C353.603 117.203 353.426 117.074 353.211 116.982C353.002 116.891 352.756 116.846 352.473 116.846C352.095 116.846 351.803 116.903 351.598 117.017C351.398 117.131 351.22 117.265 351.065 117.42Z" fill="#757575"/>
<path d="M303.366 112.02V122H301.555V114.132L299.155 114.925V113.462L303.161 112.02H303.366ZM308.356 120.599H308.486C309.074 120.599 309.571 120.523 309.976 120.373C310.386 120.223 310.717 120.011 310.967 119.737C311.223 119.459 311.407 119.129 311.521 118.746C311.64 118.359 311.699 117.93 311.699 117.461V115.656C311.699 115.273 311.66 114.938 311.583 114.651C311.505 114.36 311.396 114.116 311.255 113.92C311.118 113.724 310.956 113.578 310.769 113.482C310.582 113.382 310.382 113.332 310.168 113.332C309.931 113.332 309.721 113.387 309.539 113.496C309.356 113.605 309.202 113.756 309.074 113.947C308.951 114.134 308.855 114.351 308.787 114.597C308.723 114.843 308.691 115.103 308.691 115.376C308.691 115.64 308.721 115.893 308.78 116.135C308.844 116.376 308.937 116.59 309.06 116.777C309.188 116.964 309.347 117.112 309.539 117.222C309.73 117.326 309.954 117.379 310.209 117.379C310.45 117.379 310.669 117.333 310.865 117.242C311.065 117.146 311.239 117.021 311.384 116.866C311.53 116.707 311.642 116.531 311.719 116.34C311.801 116.144 311.847 115.946 311.856 115.745L312.492 116.019C312.492 116.351 312.421 116.679 312.28 117.003C312.143 117.326 311.95 117.62 311.699 117.885C311.453 118.145 311.166 118.354 310.838 118.514C310.509 118.669 310.156 118.746 309.778 118.746C309.309 118.746 308.894 118.66 308.534 118.486C308.174 118.313 307.871 118.074 307.625 117.769C307.383 117.459 307.201 117.103 307.078 116.702C306.955 116.297 306.893 115.864 306.893 115.403C306.893 114.925 306.968 114.476 307.119 114.057C307.269 113.633 307.486 113.261 307.768 112.942C308.055 112.619 308.402 112.366 308.807 112.184C309.213 111.997 309.669 111.903 310.175 111.903C310.699 111.903 311.166 112.006 311.576 112.211C311.986 112.416 312.335 112.701 312.622 113.065C312.909 113.425 313.128 113.852 313.278 114.344C313.433 114.836 313.51 115.374 313.51 115.957V116.593C313.51 117.208 313.449 117.791 313.326 118.343C313.203 118.894 313.014 119.398 312.759 119.854C312.503 120.309 312.177 120.703 311.781 121.036C311.389 121.369 310.92 121.626 310.373 121.809C309.83 121.986 309.211 122.075 308.513 122.075H308.356V120.599ZM316.634 120.599H316.764C317.352 120.599 317.849 120.523 318.254 120.373C318.664 120.223 318.995 120.011 319.246 119.737C319.501 119.459 319.685 119.129 319.799 118.746C319.918 118.359 319.977 117.93 319.977 117.461V115.656C319.977 115.273 319.938 114.938 319.861 114.651C319.783 114.36 319.674 114.116 319.533 113.92C319.396 113.724 319.234 113.578 319.047 113.482C318.86 113.382 318.66 113.332 318.446 113.332C318.209 113.332 317.999 113.387 317.817 113.496C317.635 113.605 317.48 113.756 317.352 113.947C317.229 114.134 317.133 114.351 317.065 114.597C317.001 114.843 316.969 115.103 316.969 115.376C316.969 115.64 316.999 115.893 317.058 116.135C317.122 116.376 317.215 116.59 317.338 116.777C317.466 116.964 317.625 117.112 317.817 117.222C318.008 117.326 318.232 117.379 318.487 117.379C318.728 117.379 318.947 117.333 319.143 117.242C319.344 117.146 319.517 117.021 319.663 116.866C319.808 116.707 319.92 116.531 319.997 116.34C320.08 116.144 320.125 115.946 320.134 115.745L320.77 116.019C320.77 116.351 320.699 116.679 320.558 117.003C320.421 117.326 320.228 117.62 319.977 117.885C319.731 118.145 319.444 118.354 319.116 118.514C318.788 118.669 318.434 118.746 318.056 118.746C317.587 118.746 317.172 118.66 316.812 118.486C316.452 118.313 316.149 118.074 315.903 117.769C315.661 117.459 315.479 117.103 315.356 116.702C315.233 116.297 315.171 115.864 315.171 115.403C315.171 114.925 315.247 114.476 315.397 114.057C315.547 113.633 315.764 113.261 316.046 112.942C316.333 112.619 316.68 112.366 317.085 112.184C317.491 111.997 317.947 111.903 318.453 111.903C318.977 111.903 319.444 112.006 319.854 112.211C320.264 112.416 320.613 112.701 320.9 113.065C321.187 113.425 321.406 113.852 321.556 114.344C321.711 114.836 321.789 115.374 321.789 115.957V116.593C321.789 117.208 321.727 117.791 321.604 118.343C321.481 118.894 321.292 119.398 321.037 119.854C320.781 120.309 320.456 120.703 320.059 121.036C319.667 121.369 319.198 121.626 318.651 121.809C318.109 121.986 317.489 122.075 316.791 122.075H316.634V120.599Z" fill="#757575"/>
<path d="M381.308 116.169V117.844C381.308 118.609 381.23 119.263 381.075 119.806C380.92 120.348 380.697 120.792 380.405 121.139C380.114 121.48 379.765 121.733 379.359 121.897C378.954 122.057 378.503 122.137 378.006 122.137C377.609 122.137 377.24 122.087 376.898 121.986C376.557 121.882 376.249 121.722 375.976 121.508C375.707 121.289 375.474 121.011 375.278 120.674C375.087 120.337 374.939 119.933 374.834 119.464C374.734 118.994 374.684 118.454 374.684 117.844V116.169C374.684 115.403 374.761 114.752 374.916 114.214C375.076 113.676 375.301 113.236 375.593 112.895C375.884 112.553 376.233 112.304 376.639 112.149C377.044 111.99 377.495 111.91 377.992 111.91C378.393 111.91 378.762 111.96 379.1 112.061C379.441 112.161 379.747 112.318 380.016 112.532C380.289 112.742 380.521 113.015 380.713 113.353C380.904 113.685 381.05 114.086 381.15 114.556C381.255 115.021 381.308 115.558 381.308 116.169ZM379.503 118.09V115.916C379.503 115.533 379.48 115.201 379.435 114.918C379.394 114.631 379.332 114.387 379.25 114.187C379.168 113.986 379.065 113.824 378.942 113.701C378.819 113.574 378.678 113.48 378.519 113.421C378.359 113.362 378.184 113.332 377.992 113.332C377.755 113.332 377.543 113.38 377.356 113.476C377.17 113.567 377.012 113.713 376.885 113.913C376.757 114.114 376.659 114.38 376.591 114.713C376.527 115.041 376.495 115.442 376.495 115.916V118.09C376.495 118.473 376.516 118.808 376.557 119.095C376.602 119.382 376.666 119.628 376.748 119.833C376.835 120.038 376.937 120.207 377.056 120.339C377.179 120.466 377.32 120.562 377.479 120.626C377.639 120.685 377.814 120.715 378.006 120.715C378.247 120.715 378.459 120.667 378.642 120.571C378.828 120.476 378.986 120.325 379.113 120.12C379.241 119.91 379.337 119.639 379.4 119.307C379.469 118.969 379.503 118.564 379.503 118.09Z" fill="#757575"/>
<path d="M162 63.5C161.172 63.5 160.5 64.1716 160.5 65C160.5 65.8284 161.172 66.5 162 66.5V63.5ZM240.061 66.0607C240.646 65.4749 240.646 64.5251 240.061 63.9393L230.515 54.3934C229.929 53.8076 228.979 53.8076 228.393 54.3934C227.808 54.9792 227.808 55.9289 228.393 56.5147L236.879 65L228.393 73.4853C227.808 74.0711 227.808 75.0208 228.393 75.6066C228.979 76.1924 229.929 76.1924 230.515 75.6066L240.061 66.0607ZM162 66.5H239V63.5H162V66.5Z" fill="#757575"/>
<path d="M183.308 49.1689V50.8438C183.308 51.6094 183.23 52.2633 183.075 52.8057C182.92 53.348 182.697 53.7923 182.405 54.1387C182.114 54.4805 181.765 54.7334 181.359 54.8975C180.954 55.057 180.503 55.1367 180.006 55.1367C179.609 55.1367 179.24 55.0866 178.898 54.9863C178.557 54.8815 178.249 54.722 177.976 54.5078C177.707 54.2891 177.474 54.0111 177.278 53.6738C177.087 53.3366 176.939 52.9333 176.834 52.4639C176.734 51.9945 176.684 51.4544 176.684 50.8438V49.1689C176.684 48.4033 176.761 47.7516 176.916 47.2139C177.076 46.6761 177.301 46.2363 177.593 45.8945C177.884 45.5527 178.233 45.3044 178.639 45.1494C179.044 44.9899 179.495 44.9102 179.992 44.9102C180.393 44.9102 180.762 44.9603 181.1 45.0605C181.441 45.1608 181.747 45.318 182.016 45.5322C182.289 45.7419 182.521 46.0153 182.713 46.3525C182.904 46.6852 183.05 47.0863 183.15 47.5557C183.255 48.0205 183.308 48.5583 183.308 49.1689ZM181.503 51.0898V48.916C181.503 48.5332 181.48 48.2005 181.435 47.918C181.394 47.6309 181.332 47.387 181.25 47.1865C181.168 46.986 181.065 46.8242 180.942 46.7012C180.819 46.5736 180.678 46.4801 180.519 46.4209C180.359 46.3617 180.184 46.332 179.992 46.332C179.755 46.332 179.543 46.3799 179.356 46.4756C179.17 46.5667 179.012 46.7126 178.885 46.9131C178.757 47.1136 178.659 47.3802 178.591 47.7129C178.527 48.041 178.495 48.4421 178.495 48.916V51.0898C178.495 51.4727 178.516 51.8076 178.557 52.0947C178.602 52.3818 178.666 52.6279 178.748 52.833C178.835 53.0381 178.937 53.2067 179.056 53.3389C179.179 53.4665 179.32 53.5622 179.479 53.626C179.639 53.6852 179.814 53.7148 180.006 53.7148C180.247 53.7148 180.459 53.667 180.642 53.5713C180.828 53.4756 180.986 53.3252 181.113 53.1201C181.241 52.9105 181.337 52.6393 181.4 52.3066C181.469 51.9694 181.503 51.5638 181.503 51.0898ZM188.687 50.0234V51.4521H184.948V50.0234H188.687ZM197.157 53.5781V55H190.416V53.7832L193.65 50.29C193.987 49.9072 194.254 49.5745 194.45 49.292C194.646 49.0094 194.785 48.7542 194.867 48.5264C194.953 48.2939 194.997 48.0729 194.997 47.8633C194.997 47.5579 194.942 47.2913 194.832 47.0635C194.723 46.8311 194.564 46.651 194.354 46.5234C194.149 46.3958 193.896 46.332 193.595 46.332C193.262 46.332 192.978 46.4095 192.741 46.5645C192.508 46.7148 192.331 46.9245 192.207 47.1934C192.089 47.4622 192.03 47.7699 192.03 48.1162H190.218C190.218 47.5283 190.355 46.9928 190.628 46.5098C190.902 46.0221 191.294 45.6325 191.804 45.3408C192.315 45.0492 192.921 44.9033 193.623 44.9033C194.306 44.9033 194.885 45.0173 195.359 45.2451C195.833 45.4684 196.193 45.7874 196.439 46.2021C196.685 46.6169 196.808 47.1113 196.808 47.6855C196.808 48.0046 196.756 48.319 196.651 48.6289C196.546 48.9388 196.398 49.2464 196.206 49.5518C196.02 49.8525 195.796 50.1579 195.537 50.4678C195.277 50.7777 194.987 51.0944 194.668 51.418L192.727 53.5781H197.157ZM200.486 50.4199L199.043 50.0713L199.597 45.0469H205.072V46.5439H201.094L200.834 48.8682C200.975 48.7816 201.18 48.695 201.449 48.6084C201.723 48.5173 202.03 48.4717 202.372 48.4717C202.846 48.4717 203.27 48.5492 203.644 48.7041C204.017 48.8545 204.334 49.0732 204.594 49.3604C204.858 49.6475 205.056 49.9984 205.189 50.4131C205.325 50.8232 205.394 51.2881 205.394 51.8076C205.394 52.2633 205.325 52.6917 205.189 53.0928C205.056 53.4893 204.854 53.8424 204.58 54.1523C204.307 54.4577 203.963 54.6992 203.548 54.877C203.133 55.0501 202.646 55.1367 202.085 55.1367C201.661 55.1367 201.253 55.0752 200.861 54.9521C200.474 54.8245 200.125 54.64 199.816 54.3984C199.506 54.1523 199.257 53.8516 199.07 53.4961C198.888 53.1406 198.788 52.7327 198.77 52.2725H200.554C200.586 52.5778 200.668 52.8376 200.8 53.0518C200.932 53.266 201.105 53.43 201.319 53.5439C201.538 53.6579 201.791 53.7148 202.078 53.7148C202.338 53.7148 202.561 53.667 202.748 53.5713C202.94 53.471 203.097 53.332 203.22 53.1543C203.343 52.9766 203.434 52.7669 203.493 52.5254C203.553 52.2839 203.582 52.0195 203.582 51.7324C203.582 51.4544 203.548 51.2015 203.48 50.9736C203.411 50.7412 203.306 50.5407 203.165 50.3721C203.024 50.2035 202.846 50.0736 202.632 49.9824C202.422 49.8913 202.176 49.8457 201.894 49.8457C201.515 49.8457 201.224 49.9027 201.019 50.0166C200.818 50.1305 200.64 50.265 200.486 50.4199ZM208.764 50.4199L207.321 50.0713L207.875 45.0469H213.35V46.5439H209.372L209.112 48.8682C209.253 48.7816 209.459 48.695 209.727 48.6084C210.001 48.5173 210.308 48.4717 210.65 48.4717C211.124 48.4717 211.548 48.5492 211.922 48.7041C212.295 48.8545 212.612 49.0732 212.872 49.3604C213.136 49.6475 213.335 49.9984 213.467 50.4131C213.603 50.8232 213.672 51.2881 213.672 51.8076C213.672 52.2633 213.603 52.6917 213.467 53.0928C213.335 53.4893 213.132 53.8424 212.858 54.1523C212.585 54.4577 212.241 54.6992 211.826 54.877C211.411 55.0501 210.924 55.1367 210.363 55.1367C209.939 55.1367 209.531 55.0752 209.14 54.9521C208.752 54.8245 208.404 54.64 208.094 54.3984C207.784 54.1523 207.535 53.8516 207.349 53.4961C207.166 53.1406 207.066 52.7327 207.048 52.2725H208.832C208.864 52.5778 208.946 52.8376 209.078 53.0518C209.21 53.266 209.383 53.43 209.598 53.5439C209.816 53.6579 210.069 53.7148 210.356 53.7148C210.616 53.7148 210.839 53.667 211.026 53.5713C211.218 53.471 211.375 53.332 211.498 53.1543C211.621 52.9766 211.712 52.7669 211.771 52.5254C211.831 52.2839 211.86 52.0195 211.86 51.7324C211.86 51.4544 211.826 51.2015 211.758 50.9736C211.689 50.7412 211.585 50.5407 211.443 50.3721C211.302 50.2035 211.124 50.0736 210.91 49.9824C210.7 49.8913 210.454 49.8457 210.172 49.8457C209.794 49.8457 209.502 49.9027 209.297 50.0166C209.096 50.1305 208.919 50.265 208.764 50.4199Z" fill="#757575"/>
</svg>
