<svg width="47" height="52" viewBox="0 0 47 52" fill="none" xmlns="http://www.w3.org/2000/svg">
<path d="M43.1593 21.5938C44.1725 25.8789 43.7682 30.3771 42.007 34.4129C40.2458 38.4487 37.2229 41.8042 33.3921 43.9755C29.5614 46.1468 25.1296 47.0167 20.7623 46.4546C16.395 45.8925 12.328 43.9288 9.17188 40.8582" stroke="white" stroke-width="5" stroke-linecap="round"/>
<path d="M3.45851 30.6252C3.15308 29.2037 2.99939 27.7538 3.00004 26.2999C2.992 22.3056 4.1604 18.3972 6.35946 15.0627C8.55853 11.7281 11.6909 9.11495 15.3656 7.54928C19.0404 5.9836 23.0949 5.53474 27.0231 6.25871C30.9513 6.98267 34.5794 8.8474 37.4546 11.6202" stroke="white" stroke-width="5" stroke-linecap="round"/>
<path d="M28.3125 12.5154L37.7328 11.8234L36.9975 3" stroke="white" stroke-width="5" stroke-linecap="round"/>
<path d="M18.0835 39.7812L8.67188 40.4733L9.40716 49.2967" stroke="white" stroke-width="5" stroke-linecap="round"/>
</svg>
