<svg width="390" height="173" viewBox="0 0 390 173" fill="none" xmlns="http://www.w3.org/2000/svg">
<rect x="49" y="69.1689" width="251.056" height="33.0337" rx="5" fill="#F9C6C6"/>
<path d="M338.902 83.1377C340.79 84.3115 340.79 87.0593 338.902 88.2331L299.272 112.874C297.274 114.116 294.688 112.679 294.688 110.326L294.688 61.0448C294.688 58.6917 297.274 57.2546 299.272 58.4972L338.902 83.1377Z" fill="#F9C6C6"/>
<path fill-rule="evenodd" clip-rule="evenodd" d="M149.157 118.191C150.27 115.155 153.502 113.455 156.635 114.26L159.572 115.015C162.704 115.82 164.717 118.868 164.228 122.065C164.112 122.823 164.887 123.405 165.582 123.082C168.516 121.722 172.003 122.806 173.649 125.59L175.192 128.201C176.838 130.985 176.106 134.563 173.5 136.478C172.882 136.932 173.018 137.892 173.738 138.156C176.775 139.268 178.475 142.501 177.67 145.634L176.915 148.571C176.11 151.703 173.063 153.716 169.866 153.227C169.108 153.111 168.526 153.885 168.848 154.581C170.209 157.515 169.125 161.003 166.341 162.649L163.73 164.192C160.946 165.838 157.368 165.106 155.453 162.499C154.999 161.881 154.039 162.017 153.775 162.738C152.662 165.775 149.429 167.475 146.297 166.67L143.36 165.915C140.227 165.11 138.215 162.063 138.704 158.865C138.82 158.107 138.045 157.524 137.348 157.847C134.414 159.208 130.926 158.124 129.28 155.339L127.737 152.729C126.091 149.945 126.823 146.367 129.43 144.452C130.048 143.998 129.912 143.037 129.191 142.774C126.155 141.661 124.455 138.428 125.26 135.296L126.015 132.359C126.82 129.226 129.868 127.214 133.065 127.703C133.824 127.819 134.406 127.043 134.084 126.347C132.723 123.413 133.807 119.925 136.592 118.279L139.202 116.737C141.986 115.091 145.564 115.823 147.479 118.429C147.933 119.048 148.893 118.911 149.157 118.191ZM155.307 119.426C154.828 119.303 154.335 119.562 154.165 120.026C152.437 124.742 146.153 125.634 143.181 121.587C142.888 121.188 142.341 121.076 141.916 121.328L139.305 122.871C138.88 123.122 138.714 123.655 138.922 124.104C141.035 128.661 137.222 133.735 132.258 132.975C131.769 132.9 131.303 133.208 131.18 133.687L130.426 136.623C130.303 137.102 130.562 137.596 131.026 137.766C135.742 139.494 136.634 145.778 132.587 148.751C132.188 149.043 132.077 149.59 132.328 150.016L133.871 152.625C134.122 153.051 134.656 153.217 135.104 153.009C139.66 150.896 144.736 154.707 143.976 159.672C143.901 160.161 144.209 160.627 144.688 160.75L147.624 161.504C148.102 161.627 148.597 161.368 148.767 160.903C150.495 156.188 156.778 155.294 159.751 159.342C160.044 159.74 160.591 159.852 161.016 159.601L163.627 158.057C164.052 157.806 164.218 157.273 164.01 156.825C161.897 152.269 165.708 147.195 170.673 147.955C171.161 148.029 171.626 147.722 171.749 147.244L172.504 144.306C172.627 143.827 172.368 143.334 171.904 143.164C167.188 141.436 166.295 135.153 170.343 132.179C170.741 131.887 170.853 131.34 170.601 130.915L169.058 128.304C168.806 127.879 168.274 127.713 167.826 127.921C163.269 130.034 158.196 126.221 158.956 121.258C159.03 120.769 158.723 120.304 158.244 120.181L155.307 119.426Z" fill="#606060"/>
<path fill-rule="evenodd" clip-rule="evenodd" d="M152.793 135.299C149.94 134.566 147.033 136.284 146.3 139.137C145.566 141.99 147.285 144.897 150.138 145.63C152.99 146.363 155.897 144.645 156.631 141.792C157.364 138.939 155.645 136.032 152.793 135.299ZM141.134 137.809C142.6 132.104 148.414 128.667 154.12 130.134C159.826 131.6 163.262 137.414 161.796 143.119C160.33 148.825 154.516 152.262 148.81 150.795C143.104 149.329 139.668 143.515 141.134 137.809Z" fill="#606060"/>
<path d="M224.613 1.44992L224.627 1.58017C224.809 3.31803 227.241 3.57403 227.784 1.91341L227.825 1.78541C228.428 -0.0628279 231.188 0.525295 230.98 2.45741L230.968 2.57329C230.782 4.31115 233.107 5.06815 233.985 3.55641L234.049 3.44716C235.026 1.76442 237.601 2.91529 236.994 4.7624L236.965 4.85065C236.418 6.5124 238.535 7.73727 239.71 6.43965L239.783 6.36015C241.089 4.9169 243.369 6.57752 242.388 8.25801L242.355 8.31539C241.473 9.82713 243.288 11.4658 244.708 10.4395L244.776 10.392C246.355 9.25101 248.238 11.3488 246.929 12.7897L246.902 12.8185C245.724 14.114 247.159 16.0946 248.761 15.384L248.812 15.3619C250.594 14.5729 252.001 17.016 250.419 18.1536L250.406 18.1625C248.982 19.1865 249.975 21.4221 251.691 21.058L251.719 21.0525C253.628 20.6475 254.496 23.33 252.712 24.1156L252.71 24.1167C251.103 24.8239 251.611 27.2163 253.366 27.2152H253.375C255.326 27.2129 255.62 30.0157 253.71 30.4163C251.992 30.7772 251.992 33.2234 253.71 33.5832C255.621 33.9837 255.326 36.7864 253.375 36.7843H253.366C251.61 36.7832 251.103 39.1754 252.71 39.8828L252.712 39.8839C254.496 40.6695 253.628 43.352 251.719 42.947L251.691 42.9415C249.975 42.5774 248.982 44.813 250.406 45.837L250.419 45.8459C252.001 46.9835 250.594 49.4266 248.812 48.6376L248.761 48.6155C247.159 47.9049 245.724 49.8856 246.902 51.181L246.929 51.2097C248.238 52.6508 246.355 54.7485 244.776 53.6075L244.708 53.56C243.288 52.5337 241.473 54.1723 242.355 55.6841L242.388 55.7415C243.369 57.4219 241.089 59.0827 239.783 57.6393L239.71 57.5598C238.535 56.2622 236.418 57.4869 236.965 59.1488L236.994 59.2371C237.601 61.0853 235.026 62.2352 234.049 60.5524L233.985 60.4432C233.107 58.9314 230.782 59.6884 230.968 61.4263L230.98 61.5422C231.188 63.4743 228.428 64.0635 227.825 62.2142L227.784 62.0873C227.241 60.4256 224.809 60.6816 224.627 62.4194L224.613 62.5497C224.41 64.4829 221.589 64.4829 221.387 62.5497L221.373 62.4194C221.19 60.6816 218.758 60.4256 218.217 62.0873L218.175 62.2142C217.572 64.0635 214.813 63.4743 215.019 61.5422L215.032 61.4263C215.218 59.6884 212.893 58.9314 212.015 60.4432L211.951 60.5524C210.975 62.2352 208.398 61.0854 209.006 59.2371L209.035 59.1488C209.581 57.4871 207.465 56.2622 206.291 57.5598L206.218 57.6393C204.911 59.0826 202.632 57.4219 203.612 55.7415L203.646 55.6841C204.527 54.1723 202.711 52.5337 201.292 53.56L201.225 53.6075C199.646 54.7485 197.761 52.6507 199.072 51.2097L199.099 51.181C200.277 49.8855 198.841 47.9049 197.238 48.6155L197.189 48.6376C195.406 49.4266 194 46.9835 195.582 45.8459L195.595 45.837C197.019 44.813 196.026 42.5774 194.309 42.9415L194.281 42.947C192.373 43.352 191.505 40.6695 193.289 39.8839L193.291 39.8828C194.897 39.1754 194.389 36.7832 192.635 36.7843H192.625C190.674 36.7865 190.38 33.9838 192.289 33.5832C194.007 33.2234 194.007 30.777 192.289 30.4163C190.38 30.0158 190.674 27.2131 192.625 27.2152H192.635C194.389 27.2163 194.897 24.8241 193.291 24.1167L193.289 24.1156C191.505 23.33 192.373 20.6475 194.281 21.0525L194.309 21.058C196.026 21.4221 197.019 19.1865 195.595 18.1625L195.582 18.1536C194 17.016 195.406 14.5729 197.189 15.3619L197.238 15.384C198.841 16.0946 200.277 14.1139 199.099 12.8185L199.072 12.7897C197.761 11.3489 199.646 9.25126 201.225 10.3921L201.292 10.4396C202.711 11.4659 204.527 9.82726 203.646 8.31551L203.611 8.25814C202.632 6.57765 204.911 4.9169 206.218 6.36027L206.291 6.43977C207.465 7.73739 209.581 6.51265 209.035 4.85078L209.006 4.76253C208.398 2.91541 210.975 1.76441 211.951 3.44728L212.015 3.55653C212.892 5.06828 215.217 4.31128 215.032 2.57341L215.019 2.45754C214.812 0.52542 217.572 -0.0627029 218.175 1.78554L218.217 1.91354C218.758 3.57428 221.19 3.31828 221.372 1.58029L221.387 1.45004C221.589 -0.483326 224.41 -0.483326 224.613 1.44992Z" fill="#AAAAAA"/>
<path d="M237.345 32.0001C237.345 39.9228 230.923 46.3449 223 46.3449C215.077 46.3449 208.655 39.9228 208.655 32.0001C208.655 24.0774 215.077 17.6553 223 17.6553C230.923 17.6553 237.345 24.0774 237.345 32.0001Z" fill="#EBEBEB"/>
<path d="M226.31 32.0008C226.31 33.8292 224.828 35.3112 223 35.3112C221.171 35.3112 219.689 33.8293 219.689 32.0008C219.689 30.1724 221.171 28.6904 223 28.6904C224.828 28.6904 226.31 30.1724 226.31 32.0008Z" fill="#AAAAAA"/>
<path d="M224.103 23.1728C224.103 23.782 223.609 24.2763 223 24.2763C222.391 24.2763 221.896 23.782 221.896 23.1728C221.896 22.5637 222.391 22.0693 223 22.0693C223.609 22.0693 224.103 22.5638 224.103 23.1728Z" fill="#AAAAAA"/>
<path d="M224.103 40.8281C224.103 41.4372 223.609 41.9316 223 41.9316C222.391 41.9316 221.896 41.4372 221.896 40.8281C221.896 40.219 222.391 39.7246 223 39.7246C223.609 39.7246 224.103 40.219 224.103 40.8281Z" fill="#AAAAAA"/>
<path d="M231.828 33.1035C231.218 33.1035 230.724 32.6091 230.724 32C230.724 31.3909 231.218 30.8965 231.828 30.8965C232.437 30.8965 232.931 31.3909 232.931 32C232.931 32.6091 232.437 33.1035 231.828 33.1035Z" fill="#AAAAAA"/>
<path d="M214.172 33.1035C213.563 33.1035 213.069 32.6091 213.069 32C213.069 31.3909 213.563 30.8965 214.172 30.8965C214.781 30.8965 215.276 31.3909 215.276 32C215.276 32.6091 214.781 33.1035 214.172 33.1035Z" fill="#AAAAAA"/>
<path d="M230.022 26.5391C229.591 26.9706 228.892 26.9706 228.462 26.5391C228.03 26.1076 228.03 25.4093 228.462 24.9789C228.892 24.5474 229.591 24.5474 230.022 24.9789C230.453 25.4093 230.453 26.1078 230.022 26.5391Z" fill="#AAAAAA"/>
<path d="M217.538 39.0225C217.107 39.454 216.408 39.454 215.978 39.0225C215.546 38.591 215.546 37.8927 215.978 37.4623C216.408 37.0308 217.107 37.0308 217.538 37.4623C217.97 37.8925 217.97 38.591 217.538 39.0225Z" fill="#AAAAAA"/>
<path d="M228.462 39.0225C228.03 38.591 228.03 37.8927 228.462 37.4623C228.893 37.0308 229.592 37.0308 230.022 37.4623C230.454 37.8927 230.454 38.5912 230.022 39.0225C229.592 39.4539 228.893 39.4539 228.462 39.0225Z" fill="#AAAAAA"/>
<path d="M215.977 26.5391C215.546 26.1076 215.546 25.4093 215.977 24.9789C216.409 24.5474 217.107 24.5474 217.538 24.9789C217.969 25.4093 217.969 26.1078 217.538 26.5391C217.107 26.9706 216.409 26.9706 215.977 26.5391Z" fill="#AAAAAA"/>
<g filter="url(#filter0_dd_1245_2159)">
<rect x="107" y="27" width="154" height="118" rx="10" fill="#E0E9FA"/>
<rect x="111" y="31" width="146" height="110" rx="6" stroke="#305DB3" stroke-width="8"/>
</g>
<path d="M164.163 123.901C170.283 123.901 173.532 118.435 174.488 115.206C174.503 115.155 174.517 115.103 174.53 115.049C176.757 105.828 180.303 91.2135 182.931 80.5828H192.331C194.098 80.5828 195.532 79.1501 195.532 77.3821C195.532 75.6141 194.098 74.1814 192.331 74.1814H184.521C185.362 70.832 185.978 68.4465 186.22 67.6324L186.489 66.721C187.481 63.3348 189.805 55.403 193.398 55.403C196.73 55.403 197.227 60.5346 197.25 60.7827C197.392 62.5396 198.924 63.8667 200.685 63.7148C202.448 63.5803 203.767 62.0398 203.631 60.2781C203.332 56.3768 200.806 49 193.397 49C185.009 49 181.86 59.752 180.346 64.9204L180.089 65.7924C179.781 66.8151 178.975 69.9664 177.922 74.1814H166.724C164.956 74.1814 163.523 75.6141 163.523 77.3821C163.523 79.1501 164.956 80.5828 166.724 80.5828H176.337C173.05 93.9122 168.803 111.494 168.336 113.43C168.162 113.937 166.849 117.499 164.165 117.499C160.065 117.499 158.29 111.745 158.276 111.702C157.784 110.005 156.014 109.022 154.311 109.517C152.614 110.01 151.635 111.785 152.127 113.483C153.247 117.351 157.041 123.901 164.163 123.901Z" fill="#072D74"/>
<path d="M211.631 115.646C213.517 115.646 215.102 114.306 215.102 112.173C215.102 111.183 214.706 110.289 213.862 109.296L207.216 101.658L213.665 94.118C214.26 93.3738 214.706 92.5801 214.706 91.5385C214.706 89.6517 213.167 88.2637 211.183 88.2637C209.844 88.2637 208.804 89.1067 207.909 90.1999L202.9 96.7453L197.99 90.1988C196.996 88.96 195.956 88.2637 194.468 88.2637C192.582 88.2637 190.996 89.6044 190.996 91.7371C190.996 92.7278 191.393 93.6218 192.235 94.6125L198.436 101.756L191.639 109.791C190.994 110.536 190.599 111.329 190.599 112.371C190.599 114.257 192.136 115.645 194.119 115.645C195.459 115.645 196.5 114.802 197.393 113.709L202.749 106.667L208.106 113.709C209.101 114.951 210.143 115.646 211.631 115.646Z" fill="#072D74"/>
<path d="M27.94 93.36C27.94 94.1667 27.5 94.845 26.62 95.395C25.7767 95.945 24.9883 96.22 24.255 96.22C22.8617 96.22 21.7433 96.055 20.9 95.725C20.0933 95.3583 19.3417 94.6983 18.645 93.745C17.6917 94.5883 16.39 95.23 14.74 95.67C13.09 96.0733 11.5683 96.275 10.175 96.275C7.90167 96.275 6.03167 95.67 4.565 94.46C3.09833 93.2133 2.365 91.3983 2.365 89.015C2.365 87.9883 2.64 87.0533 3.19 86.21C3.74 85.33 4.49167 84.56 5.445 83.9C6.50833 83.2033 7.71833 82.6717 9.075 82.305C10.4317 81.9017 11.8433 81.7 13.31 81.7C14.08 81.7 14.9967 81.8467 16.06 82.14C17.1233 82.4333 17.9483 82.745 18.535 83.075V82.195C18.535 80.215 18.0583 78.8583 17.105 78.125C16.1517 77.355 14.6117 76.97 12.485 76.97C11.8617 76.97 11.2383 77.0983 10.615 77.355C10.0283 77.6117 9.35 77.96 8.58 78.4C7.55333 78.95 6.58167 79.225 5.665 79.225C5.335 79.225 5.02333 79.005 4.73 78.565C4.43667 78.0883 4.29 77.6667 4.29 77.3C4.29 76.2367 4.785 75.32 5.775 74.55C6.80167 73.78 8.01167 73.2117 9.405 72.845C10.7983 72.4417 12.045 72.24 13.145 72.24C14.245 72.24 15.51 72.46 16.94 72.9C18.37 73.3033 19.5433 73.8717 20.46 74.605C21.56 75.5583 22.4033 76.6767 22.99 77.96C23.6133 79.2067 23.925 80.5817 23.925 82.085C23.925 82.5617 23.8883 83.2767 23.815 84.23C23.7417 85.2567 23.705 86.1367 23.705 86.87C23.705 87.2 23.6683 87.695 23.595 88.355C23.5217 89.1617 23.485 89.8033 23.485 90.28C23.485 90.72 23.65 91.105 23.98 91.435C24.31 91.7283 24.695 91.875 25.135 91.875L26.675 91.82C27.0783 91.82 27.39 91.9667 27.61 92.26C27.83 92.5533 27.94 92.92 27.94 93.36ZM10.23 91.93C11.8067 91.93 13.1267 91.765 14.19 91.435C15.2533 91.105 16.5367 90.5 18.04 89.62C18.1867 88.9967 18.2783 88.1717 18.315 87.145C16.2983 86.1917 14.63 85.715 13.31 85.715C11.8067 85.715 10.4683 85.99 9.295 86.54C8.12167 87.09 7.535 88.0617 7.535 89.455C7.535 90.1517 7.82833 90.7383 8.415 91.215C9.00167 91.6917 9.60667 91.93 10.23 91.93Z" fill="black"/>
<path d="M383.04 99.175C382.563 98.5517 382.16 97.8733 381.83 97.14C381.5 96.37 381.152 95.4533 380.785 94.39C380.712 94.2067 380.492 93.6567 380.125 92.74C379.795 91.8233 379.41 91.035 378.97 90.375C376.66 90.705 374.772 90.87 373.305 90.87C372.498 90.87 371.6 90.8517 370.61 90.815C369.657 90.7417 368.942 90.705 368.465 90.705C366.632 90.5583 365.165 90.485 364.065 90.485C363.625 91.0717 363.24 91.695 362.91 92.355C362.617 93.015 362.232 94.005 361.755 95.325C361.095 97.2317 360.527 98.5883 360.05 99.395C359.72 99.945 359.078 100.22 358.125 100.22C357.318 100.22 356.567 100.055 355.87 99.725C355.21 99.3583 354.88 98.8633 354.88 98.24C355.173 96.8467 355.632 95.38 356.255 93.84C356.915 92.2633 357.85 90.1733 359.06 87.57L361.26 82.18C362.47 79.1 363.57 76.46 364.56 74.26C365.587 72.06 366.925 69.4567 368.575 66.45C368.795 66.01 369.162 65.6433 369.675 65.35C370.188 65.02 370.757 64.855 371.38 64.855C372.077 64.855 372.572 64.91 372.865 65.02C373.195 65.0933 373.452 65.24 373.635 65.46C373.818 65.6433 374.093 66.0467 374.46 66.67C375.707 68.6133 376.77 70.6117 377.65 72.665C378.567 74.7183 379.722 77.56 381.115 81.19L382.27 84.105C383.297 86.745 384.177 88.9633 384.91 90.76C385.68 92.52 386.523 94.1333 387.44 95.6C388.027 96.5533 388.32 97.2133 388.32 97.58C388.32 98.46 388.045 99.1383 387.495 99.615C386.982 100.055 386.303 100.275 385.46 100.275C384.397 100.275 383.59 99.9083 383.04 99.175ZM377.375 85.865C376.788 84.6183 375.945 82.455 374.845 79.375C373.708 76.075 372.572 73.4533 371.435 71.51C370.738 73.27 369.712 75.5433 368.355 78.33C367.438 80.0533 366.393 82.5467 365.22 85.81C367.567 86.1033 370.097 86.25 372.81 86.25C374.753 86.25 376.275 86.1217 377.375 85.865Z" fill="black"/>
<defs>
<filter id="filter0_dd_1245_2159" x="93" y="19" width="182" height="146" filterUnits="userSpaceOnUse" color-interpolation-filters="sRGB">
<feFlood flood-opacity="0" result="BackgroundImageFix"/>
<feColorMatrix in="SourceAlpha" type="matrix" values="0 0 0 0 0 0 0 0 0 0 0 0 0 0 0 0 0 0 127 0" result="hardAlpha"/>
<feOffset dy="2"/>
<feGaussianBlur stdDeviation="1.5"/>
<feColorMatrix type="matrix" values="0 0 0 0 0 0 0 0 0 0 0 0 0 0 0 0 0 0 0.3 0"/>
<feBlend mode="normal" in2="BackgroundImageFix" result="effect1_dropShadow_1245_2159"/>
<feColorMatrix in="SourceAlpha" type="matrix" values="0 0 0 0 0 0 0 0 0 0 0 0 0 0 0 0 0 0 127 0" result="hardAlpha"/>
<feMorphology radius="4" operator="dilate" in="SourceAlpha" result="effect2_dropShadow_1245_2159"/>
<feOffset dy="6"/>
<feGaussianBlur stdDeviation="5"/>
<feColorMatrix type="matrix" values="0 0 0 0 0 0 0 0 0 0 0 0 0 0 0 0 0 0 0.15 0"/>
<feBlend mode="normal" in2="effect1_dropShadow_1245_2159" result="effect2_dropShadow_1245_2159"/>
<feBlend mode="normal" in="SourceGraphic" in2="effect2_dropShadow_1245_2159" result="shape"/>
</filter>
</defs>
</svg>
