<svg width="302" height="189" viewBox="0 0 302 189" fill="none" xmlns="http://www.w3.org/2000/svg">
<path d="M128.157 84.5282C123.562 82.2941 117.733 84.4562 115.144 89.3577C112.556 94.2583 114.181 100.051 118.773 102.294C165.603 125.11 221.171 117.162 263.853 86.417C268.332 83.1939 269.707 77.0784 266.917 72.7608C264.133 68.434 258.242 67.5473 253.767 70.7732C216.766 97.3975 168.677 104.291 128.157 84.5282Z" fill="black"/>
<mask id="mask0_1385_1220" style="mask-type:luminance" maskUnits="userSpaceOnUse" x="222" y="37" width="80" height="80">
<path d="M295.798 37.0001L222 42.4639L227.464 116.262L301.262 110.798L295.798 37.0001Z" fill="white"/>
</mask>
<g mask="url(#mask0_1385_1220)">
<path d="M267.573 62.9294C269.836 69.069 277.262 68.5192 277.262 68.5192L291.099 67.4948C296.058 67.1277 296.053 71.7657 296.053 71.7657L290.372 104.65C289.578 109.274 284.948 109.689 284.948 109.689L271.111 110.714C264.192 111.226 261.544 106.784 254.626 107.296L247.707 107.809L244.975 70.9096C254.2 70.2267 253.517 61.0019 253.517 61.0019L252.493 47.1648C252.305 44.6279 254.227 42.3987 256.764 42.2109C261.376 41.8694 266.33 46.1403 266.671 50.7527L267.573 62.9294Z" fill="#EFD4B2"/>
<path d="M247.707 107.806L248.049 112.419L229.599 113.785L226.526 72.2734L244.975 70.9075L247.707 107.806Z" fill="#668077"/>
<path d="M267.354 59.9757C268.037 69.2005 277.262 68.5175 277.262 68.5175L291.099 67.493C296.048 67.1266 296.053 71.7639 296.053 71.7639L290.372 104.648C289.571 109.28 284.948 109.687 284.948 109.687L271.115 110.712C264.197 111.224 261.544 106.782 254.626 107.295M245.488 77.8265L248.049 112.419L229.599 113.785L226.526 72.2739L244.975 70.9079C254.2 70.2249 253.517 61.0002 253.517 61.0002L252.493 47.1631C252.304 44.617 254.218 42.3977 256.764 42.2092C261.376 41.8677 266.33 46.1386 266.671 50.751L268.379 73.8129C268.379 73.8129 269.066 83.0373 259.842 83.7202" stroke="black" stroke-width="6" stroke-linecap="round" stroke-linejoin="round"/>
</g>
<path d="M7.02514 2.92773H128.209C130.551 2.92773 132.307 4.83038 132.307 7.02573V181.337C132.307 183.679 130.404 185.435 128.209 185.435H7.02514C4.68342 185.435 2.92714 183.532 2.92714 181.337V7.02573C2.92714 4.83038 4.82978 2.92773 7.02514 2.92773Z" fill="#7D8792"/>
<path d="M128.355 188.508H7.02514C3.0735 188.508 -1.8409e-07 185.288 0 181.483V7.02514C0 3.21986 3.21985 0 7.02514 0H128.209C132.16 0 135.234 3.21986 135.234 7.02514V181.336C135.38 185.288 132.16 188.508 128.355 188.508ZM7.02514 5.85428C6.43971 5.85428 5.85428 6.43971 5.85428 7.02514V181.336C5.85428 182.068 6.43971 182.507 7.02514 182.507H128.209C128.941 182.507 129.38 181.922 129.38 181.336V7.02514C129.38 6.29335 128.794 5.85428 128.209 5.85428H7.02514Z" fill="black"/>
<path d="M20.1973 20.4893H114.598V56.3467H20.1973V20.4893Z" fill="#BFEBFF"/>
<path d="M117.525 59.2752H17.2701V17.5635H117.525V59.2752ZM23.1244 53.421H111.67V23.4178H23.1244V53.421Z" fill="black"/>
<path d="M24.2953 73.9092H58.6892C61.0309 73.9092 62.7872 75.8118 62.7872 78.0072V110.498C62.7872 112.84 60.8846 114.596 58.6892 114.596H24.2953C21.9536 114.596 20.1973 112.694 20.1973 110.498V78.0072C20.1973 75.8118 21.9536 73.9092 24.2953 73.9092Z" fill="#BEC9D4"/>
<path d="M58.6892 117.525H24.2953C20.3436 117.525 17.2701 114.305 17.2701 110.5V78.0085C17.2701 74.0569 20.49 70.9834 24.2953 70.9834H58.6892C62.6408 70.9834 65.7143 74.2033 65.7143 78.0085V110.5C65.7143 114.451 62.6408 117.525 58.6892 117.525ZM24.2953 76.8377C23.5635 76.8377 23.1244 77.4231 23.1244 78.0085V110.5C23.1244 111.232 23.7099 111.671 24.2953 111.671H58.6892C59.421 111.671 59.8601 111.085 59.8601 110.5V78.0085C59.8601 77.2768 59.2746 76.8377 58.6892 76.8377H24.2953Z" fill="black"/>
<path d="M76.8375 73.9092H111.231C113.573 73.9092 115.329 75.8118 115.329 78.0072V110.498C115.329 112.84 113.427 114.596 111.231 114.596H76.8375C74.4957 114.596 72.7395 112.694 72.7395 110.498V78.0072C72.7395 75.8118 74.4957 73.9092 76.8375 73.9092Z" fill="#BEC9D4"/>
<path d="M111.231 117.525H76.8375C72.8858 117.525 69.8123 114.305 69.8123 110.5V78.0085C69.8123 74.0569 73.0322 70.9834 76.8375 70.9834H111.231C115.183 70.9834 118.257 74.2033 118.257 78.0085V110.5C118.257 114.451 115.183 117.525 111.231 117.525ZM76.8375 76.8377C76.1057 76.8377 75.6666 77.4231 75.6666 78.0085V110.5C75.6666 111.232 76.252 111.671 76.8375 111.671H111.231C111.963 111.671 112.402 111.085 112.402 110.5V78.0085C112.402 77.2768 111.817 76.8377 111.231 76.8377H76.8375Z" fill="black"/>
<path d="M76.8375 126.306H111.231C113.573 126.306 115.329 128.208 115.329 130.404V162.895C115.329 165.237 113.427 166.993 111.231 166.993H76.8375C74.4957 166.993 72.7395 165.09 72.7395 162.895V130.404C72.7395 128.208 74.4957 126.306 76.8375 126.306Z" fill="#BEC9D4"/>
<path d="M111.231 169.922H76.8375C72.8858 169.922 69.8123 166.703 69.8123 162.897V130.406C69.8123 126.454 73.0322 123.381 76.8375 123.381H111.231C115.183 123.381 118.257 126.601 118.257 130.406V162.897C118.257 166.849 115.183 169.922 111.231 169.922ZM76.8375 129.235C76.1057 129.235 75.6666 129.821 75.6666 130.406V162.897C75.6666 163.629 76.252 164.068 76.8375 164.068H111.231C111.963 164.068 112.402 163.483 112.402 162.897V130.406C112.402 129.674 111.817 129.235 111.231 129.235H76.8375Z" fill="black"/>
<path d="M24.2953 126.306H58.6892C61.0309 126.306 62.7872 128.208 62.7872 130.404V162.895C62.7872 165.237 60.8846 166.993 58.6892 166.993H24.2953C21.9536 166.993 20.1973 165.09 20.1973 162.895V130.404C20.1973 128.208 21.9536 126.306 24.2953 126.306Z" fill="#BEC9D4"/>
<path d="M58.6892 169.922H24.2953C20.3436 169.922 17.2701 166.702 17.2701 162.896V130.405C17.2701 126.453 20.49 123.38 24.2953 123.38H58.6892C62.6408 123.38 65.7143 126.6 65.7143 130.405V162.896C65.7143 166.848 62.6408 169.922 58.6892 169.922ZM24.2953 129.234C23.5635 129.234 23.1244 129.82 23.1244 130.405V162.896C23.1244 163.628 23.7099 164.067 24.2953 164.067H58.6892C59.421 164.067 59.8601 163.482 59.8601 162.896V130.405C59.8601 129.673 59.2746 129.234 58.6892 129.234H24.2953ZM41.4191 106.549C39.8091 106.549 38.4919 105.232 38.4919 103.622V84.8881C38.4919 83.2782 39.8091 81.9609 41.4191 81.9609C43.029 81.9609 44.3462 83.2782 44.3462 84.8881V103.622C44.3462 105.232 43.029 106.549 41.4191 106.549Z" fill="black"/>
<path d="M50.4932 97.1805H32.6376C31.0277 97.1805 29.7105 95.8632 29.7105 94.2533C29.7105 92.6434 31.0277 91.3262 32.6376 91.3262H50.6396C52.2495 91.3262 53.5667 92.6434 53.5667 94.2533C53.5667 95.8632 52.1031 97.1805 50.4932 97.1805Z" fill="black"/>
<path d="M47.5661 156.016C46.8343 156.016 46.1025 155.723 45.5171 155.138L32.784 142.405C31.6132 141.234 31.6132 139.478 32.784 138.307C33.9549 137.136 35.7112 137.136 36.882 138.307L49.6151 151.04C50.7859 152.211 50.7859 153.967 49.6151 155.138C49.176 155.723 48.2979 156.016 47.5661 156.016Z" fill="black"/>
<path d="M34.833 156.016C34.1012 156.016 33.3694 155.723 32.784 155.138C31.6132 153.967 31.6132 152.211 32.784 151.04L45.5171 138.307C46.6879 137.136 48.4442 137.136 49.6151 138.307C50.7859 139.478 50.7859 141.234 49.6151 142.405L36.882 155.138C36.2966 155.723 35.5648 156.016 34.833 156.016Z" fill="black"/>
<path d="M104.06 97.1805H84.009C82.399 97.1805 81.0818 95.8632 81.0818 94.2533C81.0818 92.6434 82.399 91.3262 84.009 91.3262H104.206C105.816 91.3262 107.133 92.6434 107.133 94.2533C107.133 95.8632 105.67 97.1805 104.06 97.1805Z" fill="black"/>
<path d="M104.06 144.6H84.009C82.399 144.6 81.0818 143.283 81.0818 141.673C81.0818 140.063 82.399 138.746 84.009 138.746H104.206C105.816 138.746 107.133 140.063 107.133 141.673C107.133 143.283 105.67 144.6 104.06 144.6Z" fill="black"/>
<path d="M104.06 156.016H84.009C82.399 156.016 81.0818 154.699 81.0818 153.089C81.0818 151.479 82.399 150.162 84.009 150.162H104.206C105.816 150.162 107.133 151.479 107.133 153.089C107.133 154.699 105.67 156.016 104.06 156.016Z" fill="black"/>
<path d="M33 34.375H34.6607V36.0357H33V34.375ZM33 32.7143H34.6607V34.375H33V32.7143ZM34.6607 32.7143H36.3214V34.375H34.6607V32.7143ZM34.6607 34.375H36.3214V36.0357H34.6607V34.375ZM34.6607 36.0357H36.3214V37.6964H34.6607V36.0357ZM34.6607 37.6964H36.3214V39.3571H34.6607V37.6964ZM34.6607 39.3571H36.3214V41.0179H34.6607V39.3571ZM33 39.3571H34.6607V41.0179H33V39.3571ZM33 37.6964H34.6607V39.3571H33V37.6964ZM33 36.0357H34.6607V37.6964H33V36.0357ZM33 41.0179H34.6607V42.6786H33V41.0179ZM34.6607 41.0179H36.3214V42.6786H34.6607V41.0179ZM34.6607 42.6786H36.3214V44.3393H34.6607V42.6786ZM34.6607 44.3393H36.3214V46H34.6607V44.3393ZM33 44.3393H34.6607V46H33V44.3393ZM33 42.6786H34.6607V44.3393H33V42.6786ZM39.6429 44.3393H41.3036V46H39.6429V44.3393ZM41.3036 44.3393H42.9643V46H41.3036V44.3393ZM41.3036 42.6786H42.9643V44.3393H41.3036V42.6786ZM41.3036 41.0179H42.9643V42.6786H41.3036V41.0179ZM41.3036 39.3571H42.9643V41.0179H41.3036V39.3571ZM41.3036 37.6964H42.9643V39.3571H41.3036V37.6964ZM41.3036 36.0357H42.9643V37.6964H41.3036V36.0357ZM41.3036 34.375H42.9643V36.0357H41.3036V34.375ZM39.6429 37.6964H41.3036V39.3571H39.6429V37.6964ZM39.6429 39.3571H41.3036V41.0179H39.6429V39.3571ZM39.6429 41.0179H41.3036V42.6786H39.6429V41.0179ZM39.6429 42.6786H41.3036V44.3393H39.6429V42.6786ZM39.6429 36.0357H41.3036V37.6964H39.6429V36.0357ZM36.3214 34.375H37.9821V36.0357H36.3214V34.375ZM37.9821 34.375H39.6429V36.0357H37.9821V34.375ZM39.6429 32.7143H41.3036V34.375H39.6429V32.7143ZM39.6429 34.375H41.3036V36.0357H39.6429V34.375ZM37.9821 32.7143H39.6429V34.375H37.9821V32.7143ZM46.2857 44.3393H47.9464V46H46.2857V44.3393ZM47.9464 44.3393H49.6071V46H47.9464V44.3393ZM47.9464 42.6786H49.6071V44.3393H47.9464V42.6786ZM47.9464 41.0179H49.6071V42.6786H47.9464V41.0179ZM47.9464 39.3571H49.6071V41.0179H47.9464V39.3571ZM47.9464 37.6964H49.6071V39.3571H47.9464V37.6964ZM47.9464 36.0357H49.6071V37.6964H47.9464V36.0357ZM47.9464 34.375H49.6071V36.0357H47.9464V34.375ZM46.2857 37.6964H47.9464V39.3571H46.2857V37.6964ZM46.2857 39.3571H47.9464V41.0179H46.2857V39.3571ZM46.2857 41.0179H47.9464V42.6786H46.2857V41.0179ZM46.2857 42.6786H47.9464V44.3393H46.2857V42.6786ZM46.2857 36.0357H47.9464V37.6964H46.2857V36.0357ZM42.9643 34.375H44.625V36.0357H42.9643V34.375ZM44.625 34.375H46.2857V36.0357H44.625V34.375ZM46.2857 32.7143H47.9464V34.375H46.2857V32.7143ZM46.2857 34.375H47.9464V36.0357H46.2857V34.375ZM44.625 32.7143H46.2857V34.375H44.625V32.7143ZM65.5592 46H63.8985V44.3393H65.5592V46ZM65.5592 44.3393H63.8985V42.6786H65.5592V44.3393ZM63.8985 44.3393H62.2377V42.6786H63.8985V44.3393ZM62.2377 46H60.577V44.3393H62.2377V46ZM60.577 46H58.9163V44.3393H60.577V46ZM58.9163 46H57.2556V44.3393H58.9163V46ZM58.9163 44.3393H57.2556V42.6786H58.9163V44.3393ZM60.577 44.3393H58.9163V42.6786H60.577V44.3393ZM57.2556 44.3393H55.5949V42.6786H57.2556V44.3393ZM57.2556 42.6786H55.5949V41.0179H57.2556V42.6786ZM57.2556 36.0357H55.5949V34.375H57.2556V36.0357ZM58.9163 36.0357H57.2556V34.375H58.9163V36.0357ZM58.9163 42.6786H57.2556V41.0179H58.9163V42.6786ZM60.577 36.0357H58.9163V34.375H60.577V36.0357ZM58.9163 34.375H57.2556V32.7143H58.9163V34.375ZM60.577 34.375H58.9163V32.7143H60.577V34.375ZM62.2377 34.375H60.577V32.7143H62.2377V34.375ZM63.8985 34.375H62.2377V32.7143H63.8985V34.375ZM65.5592 34.375H63.8985V32.7143H65.5592V34.375ZM65.5592 36.0357H63.8985V34.375H65.5592V36.0357ZM63.8985 36.0357H62.2377V34.375H63.8985V36.0357ZM65.5592 37.6964H63.8985V36.0357H65.5592V37.6964ZM67.2199 36.0357H65.5592V34.375H67.2199V36.0357ZM67.2199 37.6964H65.5592V36.0357H67.2199V37.6964ZM67.2199 39.3571H65.5592V37.6964H67.2199V39.3571ZM67.2199 41.0179H65.5592V39.3571H67.2199V41.0179ZM67.2199 42.6786H65.5592V41.0179H67.2199V42.6786ZM67.2199 44.3393H65.5592V42.6786H67.2199V44.3393ZM65.5592 42.6786H63.8985V41.0179H65.5592V42.6786ZM65.5592 41.0179H63.8985V39.3571H65.5592V41.0179ZM65.5592 39.3571H63.8985V37.6964H65.5592V39.3571ZM62.2377 36.0357H60.577V34.375H62.2377V36.0357ZM62.2377 44.3393H60.577V42.6786H62.2377V44.3393ZM65.5592 44.3393H67.2199V46H65.5592V44.3393ZM62.2377 37.6964H63.8985V39.3571H62.2377V37.6964ZM60.577 37.6964H62.2377V39.3571H60.577V37.6964ZM58.9163 37.6964H60.577V39.3571H58.9163V37.6964ZM57.2556 37.6964H58.9163V39.3571H57.2556V37.6964ZM55.5949 39.3571H57.2556V41.0179H55.5949V39.3571ZM57.2556 39.3571H58.9163V41.0179H57.2556V39.3571ZM62.2377 39.3571H63.8985V41.0179H62.2377V39.3571ZM60.577 39.3571H62.2377V41.0179H60.577V39.3571ZM58.9163 39.3571H60.577V41.0179H58.9163V39.3571ZM79.8678 42.6786H81.5285V44.3393H79.8678V42.6786ZM79.8678 44.3393H81.5285V46H79.8678V44.3393ZM78.2071 44.3393H79.8678V46H78.2071V44.3393ZM78.2071 42.6786H79.8678V44.3393H78.2071V42.6786ZM76.5464 44.3393H78.2071V46H76.5464V44.3393ZM76.5464 42.6786H78.2071V44.3393H76.5464V42.6786ZM74.8856 42.6786H76.5464V44.3393H74.8856V42.6786ZM74.8856 41.0179H76.5464V42.6786H74.8856V41.0179ZM74.8856 39.3571H76.5464V41.0179H74.8856V39.3571ZM74.8856 37.6964H76.5464V39.3571H74.8856V37.6964ZM74.8856 36.0357H76.5464V37.6964H74.8856V36.0357ZM74.8856 34.375H76.5464V36.0357H74.8856V34.375ZM76.5464 39.3571H78.2071V41.0179H76.5464V39.3571ZM76.5464 41.0179H78.2071V42.6786H76.5464V41.0179ZM76.5464 37.6964H78.2071V39.3571H76.5464V37.6964ZM76.5464 36.0357H78.2071V37.6964H76.5464V36.0357ZM76.5464 29.3929H78.2071V31.0536H76.5464V29.3929ZM76.5464 31.0536H78.2071V32.7143H76.5464V31.0536ZM76.5464 32.7143H78.2071V34.375H76.5464V32.7143ZM76.5464 34.375H78.2071V36.0357H76.5464V34.375ZM74.8856 32.7143H76.5464V34.375H74.8856V32.7143ZM73.2249 34.375H74.8856V36.0357H73.2249V34.375ZM78.2071 34.375H79.8678V36.0357H78.2071V34.375ZM79.8678 34.375H81.5285V36.0357H79.8678V34.375ZM74.8856 31.0536H76.5464V32.7143H74.8856V31.0536ZM73.2249 36.0357H74.8856V37.6964H73.2249V36.0357ZM78.2071 36.0357H79.8678V37.6964H78.2071V36.0357ZM79.8678 36.0357H81.5285V37.6964H79.8678V36.0357ZM87.5249 34.375H89.1856V36.0357H87.5249V34.375ZM87.5249 32.7143H89.1856V34.375H87.5249V32.7143ZM89.1856 32.7143H90.8463V34.375H89.1856V32.7143ZM89.1856 34.375H90.8463V36.0357H89.1856V34.375ZM89.1856 36.0357H90.8463V37.6964H89.1856V36.0357ZM89.1856 37.6964H90.8463V39.3571H89.1856V37.6964ZM89.1856 39.3571H90.8463V41.0179H89.1856V39.3571ZM87.5249 39.3571H89.1856V41.0179H87.5249V39.3571ZM87.5249 37.6964H89.1856V39.3571H87.5249V37.6964ZM87.5249 36.0357H89.1856V37.6964H87.5249V36.0357ZM87.5249 41.0179H89.1856V42.6786H87.5249V41.0179ZM89.1856 41.0179H90.8463V42.6786H89.1856V41.0179ZM89.1856 42.6786H90.8463V44.3393H89.1856V42.6786ZM89.1856 44.3393H90.8463V46H89.1856V44.3393ZM87.5249 44.3393H89.1856V46H87.5249V44.3393ZM87.5249 42.6786H89.1856V44.3393H87.5249V42.6786ZM95.8285 44.3393H97.4892V46H95.8285V44.3393ZM97.4892 44.3393H99.1499V46H97.4892V44.3393ZM97.4892 42.6786H99.1499V44.3393H97.4892V42.6786ZM97.4892 41.0179H99.1499V42.6786H97.4892V41.0179ZM97.4892 39.3571H99.1499V41.0179H97.4892V39.3571ZM97.4892 37.6964H99.1499V39.3571H97.4892V37.6964ZM97.4892 36.0357H99.1499V37.6964H97.4892V36.0357ZM97.4892 34.375H99.1499V36.0357H97.4892V34.375ZM95.8285 37.6964H97.4892V39.3571H95.8285V37.6964ZM95.8285 39.3571H97.4892V41.0179H95.8285V39.3571ZM95.8285 41.0179H97.4892V42.6786H95.8285V41.0179ZM95.8285 42.6786H97.4892V44.3393H95.8285V42.6786ZM95.8285 36.0357H97.4892V37.6964H95.8285V36.0357ZM90.8463 34.375H92.507V36.0357H90.8463V34.375ZM92.507 34.375H94.1677V36.0357H92.507V34.375ZM94.1677 34.375H95.8285V36.0357H94.1677V34.375ZM94.1677 32.7143H95.8285V34.375H94.1677V32.7143ZM95.8285 32.7143H97.4892V34.375H95.8285V32.7143ZM95.8285 34.375H97.4892V36.0357H95.8285V34.375ZM92.507 32.7143H94.1677V34.375H92.507V32.7143ZM87.5249 29.3929H89.1856V31.0536H87.5249V29.3929ZM89.1856 29.3929H90.8463V31.0536H89.1856V29.3929ZM89.1856 31.0536H90.8463V32.7143H89.1856V31.0536ZM87.5249 31.0536H89.1856V32.7143H87.5249V31.0536Z" fill="black"/>
</svg>
