<svg width="390" height="102" viewBox="0 0 390 102" fill="none" xmlns="http://www.w3.org/2000/svg">
<path d="M15.63 51.57C15.63 52.51 15.41 53.32 14.97 54C14.55 54.66 13.85 55.27 12.87 55.83C12.21 56.23 11.44 56.53 10.56 56.73C9.68 56.93 8.79 57.03 7.89 57.03C6.97 57.03 5.83 56.73 4.47 56.13C3.49 55.65 2.71 55.08 2.13 54.42C1.57 53.76 1.29 53.04 1.29 52.26C1.29 51.72 1.41 51.33 1.65 51.09C1.89 50.83 2.28 50.7 2.82 50.7C3.1 50.7 3.39 50.82 3.69 51.06C3.99 51.28 4.17 51.5 4.23 51.72C4.51 52.54 5 53.17 5.7 53.61C6.4 54.03 7.27 54.24 8.31 54.24C9.51 54.24 10.51 54.02 11.31 53.58C12.13 53.14 12.54 52.55 12.54 51.81C12.54 51.09 12.1 50.45 11.22 49.89C10.34 49.33 9.44 48.94 8.52 48.72C7.2 48.36 6.03 47.93 5.01 47.43C3.95 46.91 3.16 46.27 2.64 45.51C2.12 44.75 1.86 43.95 1.86 43.11C1.86 42.33 2.13 41.54 2.67 40.74C3.21 39.92 3.85 39.33 4.59 38.97C4.99 38.77 5.67 38.56 6.63 38.34C7.61 38.1 8.32 37.98 8.76 37.98C9.34 37.98 9.98 38.05 10.68 38.19C11.38 38.33 11.95 38.53 12.39 38.79C13.27 39.29 13.92 39.74 14.34 40.14C14.76 40.54 14.97 41.04 14.97 41.64C14.97 42 14.83 42.32 14.55 42.6C14.29 42.88 13.83 43.02 13.17 43.02C13.01 43.02 12.85 42.95 12.69 42.81C12.53 42.67 12.33 42.46 12.09 42.18C11.77 41.76 11.46 41.48 11.16 41.34C10.86 41.24 10.42 41.13 9.84 41.01C9.28 40.89 8.78 40.83 8.34 40.83C7.86 40.83 7.36 40.93 6.84 41.13C6.32 41.33 5.88 41.62 5.52 42C5.18 42.36 5.01 42.78 5.01 43.26C5.01 43.66 5.19 44.01 5.55 44.31C5.93 44.59 6.38 44.82 6.9 45C7.5 45.24 8.15 45.45 8.85 45.63C9.77 45.91 10.52 46.17 11.1 46.41C11.7 46.63 12.28 46.91 12.84 47.25C13.82 47.83 14.53 48.43 14.97 49.05C15.41 49.65 15.63 50.49 15.63 51.57ZM19.3957 50.64C19.3957 49.88 19.5357 49.12 19.8157 48.36C20.0957 47.58 20.4657 46.87 20.9257 46.23C21.3857 45.59 22.1157 45.07 23.1157 44.67C24.1157 44.25 25.0057 44.04 25.7857 44.04C26.5857 44.04 27.3957 44.15 28.2157 44.37C29.0557 44.59 29.6357 44.93 29.9557 45.39C30.6957 46.43 31.0657 47.45 31.0657 48.45C31.0657 48.99 30.9457 49.45 30.7057 49.83C30.4857 50.21 30.1657 50.62 29.7457 51.06C29.4057 51.42 28.8657 51.66 28.1257 51.78C27.4057 51.9 26.6857 51.96 25.9657 51.96C25.5057 51.96 24.9457 51.92 24.2857 51.84C23.6257 51.74 22.9857 51.62 22.3657 51.48C22.4057 51.88 22.5057 52.27 22.6657 52.65C22.8257 53.03 23.0157 53.32 23.2357 53.52C23.6357 53.9 24.0457 54.14 24.4657 54.24C24.9057 54.34 25.4657 54.39 26.1457 54.39C26.8657 54.39 27.5357 54.27 28.1557 54.03C28.6557 53.85 29.0657 53.76 29.3857 53.76C29.7657 53.76 30.0557 53.88 30.2557 54.12C30.4557 54.34 30.5557 54.63 30.5557 54.99C30.5557 55.49 30.2657 55.9 29.6857 56.22C29.1057 56.54 28.4357 56.78 27.6757 56.94C26.9357 57.08 26.3357 57.15 25.8757 57.15C24.9357 57.15 24.0257 56.98 23.1457 56.64C22.2657 56.3 21.5357 55.82 20.9557 55.2C20.4757 54.64 20.0957 53.97 19.8157 53.19C19.5357 52.39 19.3957 51.54 19.3957 50.64ZM25.9357 46.59C25.4957 46.59 25.0557 46.68 24.6157 46.86C24.1757 47.02 23.8157 47.25 23.5357 47.55C23.1757 47.93 22.9257 48.24 22.7857 48.48C22.6657 48.7 22.5857 49.01 22.5457 49.41C23.0457 49.57 24.0857 49.65 25.6657 49.65C26.5257 49.65 27.1857 49.52 27.6457 49.26C28.1257 49 28.3657 48.66 28.3657 48.24C28.3657 47.82 28.1057 47.44 27.5857 47.1C27.0657 46.76 26.5157 46.59 25.9357 46.59ZM46.0826 43.95C46.3826 43.95 46.6726 44.04 46.9526 44.22C47.2526 44.38 47.4026 44.65 47.4026 45.03C47.4026 45.29 47.2826 45.88 47.0426 46.8C46.8626 47.52 46.7626 47.97 46.7426 48.15C46.5026 49.99 46.3826 52.6 46.3826 55.98C46.3826 57 46.4126 57.84 46.4726 58.5C46.5326 59.18 46.6126 60 46.7126 60.96C46.7926 61.64 46.8326 62.04 46.8326 62.16C46.8326 62.58 46.6926 62.94 46.4126 63.24C46.1326 63.56 45.8126 63.72 45.4526 63.72C44.9726 63.72 44.6226 63.62 44.4026 63.42C44.2026 63.22 44.0626 62.93 43.9826 62.55C43.8826 61.85 43.7826 60.97 43.6826 59.91C43.6026 58.87 43.5626 57.95 43.5626 57.15C43.5626 56.69 43.5726 56.25 43.5926 55.83C43.6126 55.41 43.6226 55.13 43.6226 54.99C43.2426 55.45 42.6926 55.81 41.9726 56.07C41.2726 56.31 40.6126 56.43 39.9926 56.43C39.2126 56.43 38.5526 56.33 38.0126 56.13C37.4926 55.91 36.9426 55.51 36.3626 54.93C35.8626 54.43 35.4526 53.86 35.1326 53.22C34.8326 52.58 34.6826 51.91 34.6826 51.21C34.6826 50.27 34.7826 49.36 34.9826 48.48C35.1826 47.6 35.5026 46.86 35.9426 46.26C36.5826 45.52 37.3626 44.97 38.2826 44.61C39.2026 44.23 40.1426 44.04 41.1026 44.04C41.6226 44.04 42.1726 44.16 42.7526 44.4C43.3326 44.64 43.8526 44.95 44.3126 45.33C44.4926 44.87 44.7426 44.53 45.0626 44.31C45.3826 44.07 45.7226 43.95 46.0826 43.95ZM40.4426 54C41.0226 54 41.6026 53.81 42.1826 53.43C42.7826 53.05 43.1726 52.56 43.3526 51.96C43.4926 51.06 43.5826 49.72 43.6226 47.94C43.3026 47.52 42.9026 47.21 42.4226 47.01C41.9426 46.79 41.5226 46.68 41.1626 46.68C40.7026 46.68 40.2026 46.77 39.6626 46.95C39.1426 47.13 38.7526 47.39 38.4926 47.73C37.9326 48.59 37.6526 49.62 37.6526 50.82C37.6526 51.34 37.7026 51.78 37.8026 52.14C37.9026 52.5 38.1026 52.8 38.4026 53.04C38.7826 53.34 39.1226 53.58 39.4226 53.76C39.7426 53.92 40.0826 54 40.4426 54ZM52.9741 43.98C54.2941 43.98 54.9541 44.85 54.9541 46.59C54.9541 46.81 54.9341 47.3 54.8941 48.06C54.8541 48.94 54.8341 49.63 54.8341 50.13C54.8341 51.53 55.0241 52.66 55.4041 53.52C55.5441 53.8 55.7941 54.02 56.1541 54.18C56.5341 54.34 56.8541 54.42 57.1141 54.42C57.5141 54.42 57.8441 54.37 58.1041 54.27C58.3641 54.17 58.6041 54.02 58.8241 53.82C59.0641 53.62 59.2941 53.4 59.5141 53.16C59.8941 52.74 60.1341 52.26 60.2341 51.72C60.3541 51.16 60.4241 50.42 60.4441 49.5C60.4441 48.92 60.4741 48.36 60.5341 47.82C60.6541 46.94 60.7141 46.12 60.7141 45.36C60.7141 44.94 60.8241 44.59 61.0441 44.31C61.2841 44.01 61.6241 43.86 62.0641 43.86C62.2841 43.86 62.5441 43.94 62.8441 44.1C63.1641 44.24 63.3741 44.4 63.4741 44.58C63.6141 44.82 63.6841 45.15 63.6841 45.57C63.6841 45.83 63.6541 46.07 63.5941 46.29C63.4941 46.59 63.4441 46.97 63.4441 47.43C63.4441 47.67 63.4641 48.07 63.5041 48.63C63.5641 49.05 63.5941 49.48 63.5941 49.92C63.5941 51.26 63.6941 52.25 63.8941 52.89C64.1141 53.57 64.4141 54.17 64.7941 54.69C65.1941 55.11 65.4641 55.42 65.6041 55.62C65.7441 55.8 65.8141 55.96 65.8141 56.1C65.8141 56.34 65.6941 56.57 65.4541 56.79C65.2141 57.01 64.9641 57.12 64.7041 57.12C63.9641 57.12 63.3141 56.87 62.7541 56.37C62.2141 55.85 61.8141 55.19 61.5541 54.39C61.3341 54.65 61.0441 54.97 60.6841 55.35C60.3241 55.73 59.9841 56.04 59.6641 56.28C58.8841 56.84 57.8841 57.12 56.6641 57.12C56.1641 57.12 55.6141 56.97 55.0141 56.67C54.4341 56.37 53.9041 55.98 53.4241 55.5C52.9441 55 52.6141 54.47 52.4341 53.91C52.4141 53.87 52.3541 53.71 52.2541 53.43C52.1741 53.15 52.1341 52.73 52.1341 52.17L52.1041 47.37C52.1041 47.09 52.0341 46.65 51.8941 46.05C51.7741 45.65 51.7141 45.35 51.7141 45.15C51.7141 44.81 51.8241 44.53 52.0441 44.31C52.2841 44.09 52.5941 43.98 52.9741 43.98ZM69.0211 50.22C69.0211 49.5 69.1511 48.83 69.4111 48.21C69.6711 47.57 70.0511 46.91 70.5511 46.23C71.0511 45.55 71.7411 45.02 72.6211 44.64C73.5011 44.24 74.4611 44.04 75.5011 44.04C76.3011 44.04 77.0711 44.21 77.8111 44.55C78.5711 44.87 79.2511 45.27 79.8511 45.75C79.9311 45.89 80.0711 46.15 80.2711 46.53C80.4711 46.89 80.6111 47.22 80.6911 47.52C80.7911 47.82 80.8411 48.13 80.8411 48.45C80.8411 49.79 80.3511 50.69 79.3711 51.15C78.3911 51.59 77.1511 51.81 75.6511 51.81C74.1511 51.81 72.9311 51.71 71.9911 51.51C72.0311 51.89 72.1311 52.27 72.2911 52.65C72.4511 53.03 72.6411 53.32 72.8611 53.52C73.2611 53.9 73.6511 54.15 74.0311 54.27C74.4311 54.37 74.9611 54.42 75.6211 54.42C76.6211 54.42 77.4011 54.23 77.9611 53.85C78.4811 53.51 78.8811 53.34 79.1611 53.34C79.5411 53.34 79.8311 53.46 80.0311 53.7C80.2311 53.92 80.3311 54.21 80.3311 54.57C80.3311 55.33 79.8411 55.95 78.8611 56.43C77.9011 56.91 76.8111 57.15 75.5911 57.15C74.6311 57.15 73.6811 56.98 72.7411 56.64C71.8011 56.3 71.0511 55.82 70.4911 55.2C70.1111 54.56 69.7711 53.78 69.4711 52.86C69.1711 51.94 69.0211 51.06 69.0211 50.22ZM75.6211 46.5C75.1811 46.5 74.7211 46.58 74.2411 46.74C73.7811 46.88 73.4211 47.1 73.1611 47.4C72.8411 47.74 72.6011 48.05 72.4411 48.33C72.3011 48.61 72.2111 48.96 72.1711 49.38C72.3911 49.38 72.6011 49.39 72.8011 49.41C73.0011 49.43 73.1911 49.45 73.3711 49.47C74.2511 49.55 74.9111 49.59 75.3511 49.59C76.2311 49.59 76.9011 49.46 77.3611 49.2C77.8411 48.94 78.0811 48.59 78.0811 48.15C78.0811 47.73 77.8111 47.35 77.2711 47.01C76.7511 46.67 76.2011 46.5 75.6211 46.5ZM84.6938 46.44C84.5338 46.32 84.4038 46.2 84.3038 46.08C84.2038 45.94 84.1538 45.7 84.1538 45.36C84.1538 44.98 84.2838 44.69 84.5438 44.49C84.8238 44.27 85.1438 44.16 85.5038 44.16C86.2038 44.16 86.8038 44.34 87.3037 44.7C87.8238 45.06 88.2038 45.56 88.4438 46.2C88.8838 45.38 89.4438 44.82 90.1238 44.52C90.8038 44.2 91.7438 44.04 92.9438 44.04C93.4238 44.04 93.9138 44.19 94.4138 44.49C94.9338 44.77 95.4038 45.12 95.8238 45.54C96.1638 45.98 96.4538 46.53 96.6938 47.19C96.9338 47.83 97.0538 48.41 97.0538 48.93C97.0538 49.23 97.0338 49.72 96.9938 50.4C96.9538 51.12 96.9338 51.69 96.9338 52.11C96.9338 53.51 97.2038 54.37 97.7438 54.69C97.8238 54.73 97.9738 54.78 98.1938 54.84C98.4138 54.9 98.5738 54.96 98.6738 55.02C98.7938 55.08 98.8538 55.17 98.8538 55.29C98.8738 55.77 98.6938 56.17 98.3138 56.49C97.9538 56.79 97.5138 56.94 96.9938 56.94C96.2138 56.94 95.6038 56.73 95.1638 56.31C94.7238 55.89 94.4138 55.25 94.2338 54.39C94.1338 54.07 94.0838 53.6 94.0838 52.98C94.0838 52.64 94.1038 52.09 94.1438 51.33C94.2038 50.73 94.2338 50.09 94.2338 49.41C94.2338 48.71 94.0338 48.1 93.6338 47.58C93.2338 47.04 92.6838 46.77 91.9838 46.77C91.5638 46.77 91.1238 46.9 90.6638 47.16C90.2038 47.4 89.8838 47.7 89.7038 48.06C89.4038 48.68 89.2038 49.31 89.1038 49.95C88.8638 51.19 88.7438 52.38 88.7438 53.52C88.7438 53.8 88.7638 54.34 88.8038 55.14C88.8038 55.2 88.8038 55.35 88.8038 55.59C88.8038 55.81 88.7738 56.02 88.7138 56.22C88.6738 56.42 88.5938 56.6 88.4738 56.76C88.3938 56.84 88.2438 56.92 88.0238 57C87.8038 57.08 87.6138 57.12 87.4538 57.12C87.1738 57.12 86.8238 57 86.4038 56.76C85.9838 56.52 85.7338 56.25 85.6538 55.95L85.6238 55.53C85.6238 55.37 85.6438 55.13 85.6838 54.81C85.9238 53.41 86.0438 52.19 86.0438 51.15C86.0438 50.69 86.0338 50.34 86.0138 50.1L85.9838 48.72C85.9838 48.3 85.8638 47.9 85.6238 47.52C85.3838 47.12 85.0738 46.76 84.6938 46.44ZM112.9 46.98C112.9 47.4 112.81 47.72 112.63 47.94C112.47 48.16 112.2 48.27 111.82 48.27C111.54 48.27 111.3 48.2 111.1 48.06C110.92 47.92 110.68 47.68 110.38 47.34C110.14 47.08 109.86 46.87 109.54 46.71C109.24 46.55 108.97 46.47 108.73 46.47C107.51 46.47 106.63 46.73 106.09 47.25C105.75 47.61 105.47 48.09 105.25 48.69C105.03 49.27 104.92 49.87 104.92 50.49C104.92 51.39 105.05 52.11 105.31 52.65C105.57 53.19 106.03 53.65 106.69 54.03C106.93 54.17 107.27 54.29 107.71 54.39C108.15 54.47 108.51 54.51 108.79 54.51C109.17 54.51 109.57 54.41 109.99 54.21C110.41 53.99 110.77 53.71 111.07 53.37C111.45 52.93 111.91 52.71 112.45 52.71C112.67 52.71 112.92 52.82 113.2 53.04C113.5 53.26 113.65 53.52 113.65 53.82C113.65 54.42 113.36 54.98 112.78 55.5C112.22 56 111.53 56.4 110.71 56.7C109.89 56.98 109.13 57.12 108.43 57.12C107.25 57.12 106.15 56.85 105.13 56.31C104.13 55.77 103.33 55.03 102.73 54.09C102.13 53.13 101.83 52.05 101.83 50.85C101.83 49.81 102.02 48.8 102.4 47.82C102.8 46.84 103.33 46.04 103.99 45.42C104.53 44.92 105.2 44.55 106 44.31C106.8 44.07 107.64 43.95 108.52 43.95C109.14 43.95 109.78 44.07 110.44 44.31C111.1 44.55 111.63 44.87 112.03 45.27C112.61 45.85 112.9 46.42 112.9 46.98ZM117.152 50.64C117.152 49.88 117.292 49.12 117.572 48.36C117.852 47.58 118.222 46.87 118.682 46.23C119.142 45.59 119.872 45.07 120.872 44.67C121.872 44.25 122.762 44.04 123.542 44.04C124.342 44.04 125.152 44.15 125.972 44.37C126.812 44.59 127.392 44.93 127.712 45.39C128.452 46.43 128.822 47.45 128.822 48.45C128.822 48.99 128.702 49.45 128.462 49.83C128.242 50.21 127.922 50.62 127.502 51.06C127.162 51.42 126.622 51.66 125.882 51.78C125.162 51.9 124.442 51.96 123.722 51.96C123.262 51.96 122.702 51.92 122.042 51.84C121.382 51.74 120.742 51.62 120.122 51.48C120.162 51.88 120.262 52.27 120.422 52.65C120.582 53.03 120.772 53.32 120.992 53.52C121.392 53.9 121.802 54.14 122.222 54.24C122.662 54.34 123.222 54.39 123.902 54.39C124.622 54.39 125.292 54.27 125.912 54.03C126.412 53.85 126.822 53.76 127.142 53.76C127.522 53.76 127.812 53.88 128.012 54.12C128.212 54.34 128.312 54.63 128.312 54.99C128.312 55.49 128.022 55.9 127.442 56.22C126.862 56.54 126.192 56.78 125.432 56.94C124.692 57.08 124.092 57.15 123.632 57.15C122.692 57.15 121.782 56.98 120.902 56.64C120.022 56.3 119.292 55.82 118.712 55.2C118.232 54.64 117.852 53.97 117.572 53.19C117.292 52.39 117.152 51.54 117.152 50.64ZM123.692 46.59C123.252 46.59 122.812 46.68 122.372 46.86C121.932 47.02 121.572 47.25 121.292 47.55C120.932 47.93 120.682 48.24 120.542 48.48C120.422 48.7 120.342 49.01 120.302 49.41C120.802 49.57 121.842 49.65 123.422 49.65C124.282 49.65 124.942 49.52 125.402 49.26C125.882 49 126.122 48.66 126.122 48.24C126.122 47.82 125.862 47.44 125.342 47.1C124.822 46.76 124.272 46.59 123.692 46.59Z" fill="black"/>
<path d="M239.869 50.865C239.878 47.0627 236.553 43.7357 232.745 43.7399L222.092 43.7391C218.78 43.7399 216.012 46.0224 215.217 49.0899L204.091 49.0899C203.259 46.087 200.43 43.7348 197.237 43.7391L186.584 43.7383C183.27 43.7392 180.504 46.0216 179.71 49.09L168.584 49.09C167.749 46.0845 164.923 43.7392 161.729 43.7392L151.077 43.7392C149.174 43.7383 147.384 44.479 146.037 45.8264C144.691 47.1722 143.949 48.9627 143.951 50.865C143.949 52.7665 144.69 54.5552 146.038 55.9027C147.385 57.2502 149.174 57.9918 151.075 57.9893L161.729 57.9901C165.042 57.9892 167.808 55.7067 168.603 52.6384L179.706 52.6384C180.02 53.8594 180.629 54.988 181.544 55.9036C182.889 57.2485 184.679 57.9893 186.583 57.9893L197.234 57.9876C199.137 57.9884 200.926 57.2477 202.272 55.9019C203.187 54.9872 203.796 53.8587 204.11 52.6385L215.214 52.6385C215.528 53.8587 216.137 54.9872 217.053 55.9028C218.398 57.2477 220.187 57.9894 222.091 57.9894L232.741 57.9877C234.647 57.9909 236.437 57.2502 237.782 55.9044C239.13 54.5569 239.871 52.7664 239.869 50.865ZM161.729 54.3914L151.076 54.3906C149.195 54.3932 147.549 52.7471 147.551 50.8659C147.55 49.9224 147.918 49.0365 148.582 48.372C149.249 47.7059 150.134 47.3386 151.077 47.3385L161.728 47.3368C162.671 47.3385 163.557 47.7051 164.223 48.3711C164.432 48.5799 164.556 48.8412 164.703 49.0882L163.503 49.0882C162.522 49.0882 161.728 49.8824 161.728 50.8633C161.728 51.8443 162.522 52.6384 163.503 52.6385L164.705 52.6385C164.089 53.6677 163.013 54.3914 161.729 54.3914ZM197.236 54.3889L186.585 54.3905C185.348 54.3889 184.272 53.6523 183.64 52.64L184.809 52.64C185.79 52.64 186.584 51.8458 186.585 50.8648C186.585 49.884 185.79 49.0898 184.809 49.0897L183.608 49.0897C184.225 48.0621 185.301 47.3374 186.584 47.3375L197.237 47.3383C198.178 47.3374 199.063 47.7048 199.729 48.3709C199.939 48.5806 200.063 48.8419 200.211 49.0888L199.013 49.0888C198.032 49.0888 197.238 49.883 197.238 50.8639C197.238 51.8448 198.032 52.639 199.013 52.6391L200.212 52.6399C200.062 52.8859 199.939 53.1473 199.729 53.3569C199.064 54.0224 198.179 54.3898 197.236 54.3889ZM232.744 54.3906L222.093 54.3923C220.857 54.3899 219.778 53.654 219.146 52.6402L220.317 52.6402C221.298 52.6402 222.092 51.846 222.092 50.865C222.092 49.8841 221.298 49.09 220.317 49.0899L219.115 49.0899C219.732 48.0623 220.808 47.3394 222.091 47.3394L232.744 47.3402C233.685 47.3393 234.571 47.7059 235.237 48.372C235.903 49.0382 236.27 49.9239 236.269 50.865C236.271 51.8069 235.903 52.6919 235.236 53.3588C234.572 54.0232 233.686 54.3914 232.744 54.3906Z" fill="#888888"/>
<path d="M384.984 79.3287H375.565C378.401 78.1041 380.386 75.2839 380.386 71.999H382.404C386.164 71.999 389.212 68.951 389.212 65.1909V49.6708C389.212 46.4372 386.956 43.732 383.934 43.0377V33.3998C383.934 30.8981 381.905 28.8702 379.404 28.8702C376.903 28.8702 374.874 30.8983 374.874 33.3998V42.8633H371.278V23.0591H375.924C378.425 23.0591 380.453 21.031 380.453 18.5296C380.453 16.0281 378.425 14 375.924 14H366.749H338.274C335.772 14 333.636 16.0281 333.636 18.5296V56.7125H320.762V49.6714C320.762 46.3645 318.403 43.6091 315.277 42.9933V18.5301C315.277 16.0284 313.249 14.0005 310.748 14.0005H259.549C257.047 14.0005 255.019 16.0287 255.019 18.5301V43.1033C252.127 43.8878 250 46.5301 250 49.6708V65.1909C250 68.633 252.555 71.477 255.872 71.9331C255.861 72.1042 255.853 72.2764 255.853 72.4508C255.853 75.3809 257.433 77.9404 259.786 79.3287H254.53C252.028 79.3287 250 81.3568 250 83.8583C250 86.36 252.028 88.3878 254.53 88.3878H384.984C387.485 88.3878 389.514 86.3597 389.514 83.8583C389.514 81.3568 387.486 79.3287 384.984 79.3287ZM362.218 23.0586V42.8627H342.803V23.0586H362.218ZM264.078 23.0586H280.851V42.8627H264.078V23.0586ZM267.883 79.3287C270.236 77.9404 271.816 75.3809 271.816 72.4508C271.816 72.2993 271.811 72.1486 271.802 71.999H297.981C297.981 75.2839 299.966 78.1044 302.801 79.3287H267.883ZM306.218 42.8627H289.91V23.0586H306.218V42.8627ZM309.123 79.3287C311.959 78.1041 313.944 75.2839 313.944 71.999H313.953C317.517 71.999 320.44 69.2594 320.734 65.7713H333.553C333.839 69.1537 336.596 71.8317 340.013 71.9909C340.013 71.9936 340.013 71.9963 340.013 71.999C340.013 75.2839 341.997 78.1044 344.833 79.3287H309.123ZM351.155 79.3287C353.991 78.1041 355.976 75.2839 355.976 71.999H364.423C364.423 75.2839 366.408 78.1041 369.244 79.3287H351.155Z" fill="black"/>
</svg>
