<svg width="248" height="144" viewBox="0 0 248 144" fill="none" xmlns="http://www.w3.org/2000/svg">
<path d="M124.224 100.954C117.344 100.954 111.747 95.3575 111.747 88.4776C111.747 81.5978 117.345 76 124.224 76C131.104 76 136.701 81.5972 136.701 88.4774C136.701 95.3575 131.104 100.954 124.224 100.954ZM120.566 138.35C120.67 134.309 124.079 131.148 128.128 131.148H139.996V128.134C139.996 127.491 140.517 126.969 141.16 126.969C141.803 126.969 142.324 127.491 142.324 128.134V133.489H128.128C125.364 133.489 123.038 135.624 122.903 138.46C122.76 141.476 125.367 143.95 128.386 143.95H149.104C151.104 143.95 152.726 142.329 152.726 140.328V119.551C152.493 111.298 145.693 104.673 137.615 104.673H126.677C127.652 106.702 127.71 109.14 126.64 111.304L112.016 142.092C111.669 142.792 111.225 143.418 110.707 143.963H122.779C122.735 143.918 120.47 142.079 120.566 138.35ZM102.913 143.417C103.658 143.789 104.448 143.962 105.228 143.962C107.155 143.962 109.006 142.895 109.92 141.052L124.536 110.275C125.765 107.798 124.882 104.765 122.402 103.387C121.633 102.961 120.804 102.765 119.983 102.765C117.975 102.765 115.997 103.943 115.049 105.867L109.897 116.246C109.734 116.709 109.297 117.043 108.778 117.043C108.12 117.043 107.587 116.51 107.587 115.853C107.587 115.585 107.679 115.34 107.828 115.141L112.948 104.827C112.953 104.817 112.958 104.808 112.963 104.799C105.625 105.731 100 111.948 100 119.551C100 119.551 100 132.915 100 138.1C100 140.132 100.868 142.405 102.913 143.417Z" fill="black"/>
<path d="M173.562 76.0514C172.924 75.1903 172.188 74.414 171.267 73.8483C170.742 73.5277 170.139 73.424 169.558 73.5057C169.4 73.4711 169.24 73.4491 169.07 73.4271C168.555 73.3705 168.04 73.3297 167.527 73.3297C166.82 73.3297 166.116 73.402 165.415 73.5937C163.457 74.1343 161.735 75.4323 160.867 77.2992C160.267 78.6066 159.912 80.002 160.019 81.4446C160.085 82.3058 160.295 83.0098 160.723 83.7546C160.952 84.1443 161.263 84.5121 161.54 84.8546C161.92 85.3418 162.423 85.7818 162.929 86.1181C164.435 87.1175 166.377 87.5324 168.146 87.3344C168.58 87.2872 168.995 87.2275 169.41 87.1175C169.856 87.0044 170.331 86.7278 170.72 86.4858C171.182 86.2029 171.61 85.8164 172.009 85.4518C172.509 84.9898 172.949 84.4461 173.32 83.8741C173.7 83.3021 173.951 82.6358 174.2 81.9978C174.363 81.5766 174.514 81.1366 174.589 80.6903C174.746 79.8103 174.74 79.2509 174.608 78.374C174.476 77.5223 174.064 76.7397 173.562 76.0514ZM169.363 79.958C169.284 80.332 169.177 80.6966 169.048 81.0549C168.976 81.2026 168.898 81.344 168.81 81.4855C168.612 81.7023 168.401 81.9003 168.184 82.0952C168.071 82.1706 167.955 82.2429 167.835 82.3089C167.826 82.312 167.813 82.3152 167.804 82.3152C167.508 82.3372 167.213 82.3435 166.914 82.3278C166.635 82.2649 166.364 82.1958 166.097 82.1046C165.99 82.0449 165.887 81.982 165.786 81.916C165.667 81.8029 165.557 81.6866 165.447 81.564C165.349 81.4163 165.255 81.2686 165.167 81.1146C165.157 80.8758 165.161 80.64 165.173 80.4012C165.242 80.0649 165.33 79.738 165.44 79.4143C165.513 79.2729 165.591 79.1346 165.673 78.9995C165.805 78.8612 165.943 78.7323 166.085 78.6034C166.264 78.4903 166.443 78.3866 166.632 78.2923C166.87 78.2074 167.109 78.1383 167.354 78.0817C167.556 78.0723 167.76 78.0786 167.961 78.088C168.124 78.2609 168.313 78.4117 168.524 78.5374C168.539 78.5469 168.555 78.5563 168.571 78.5657C168.722 78.704 168.86 78.8486 168.998 78.9995C169.108 79.1597 169.212 79.32 169.303 79.4897C169.325 79.5683 169.347 79.6469 169.369 79.7255C169.369 79.8009 169.366 79.8795 169.363 79.958ZM185.982 62.2479C185.074 61.459 184.068 60.931 182.943 60.5319C182.475 60.3684 181.984 60.3936 181.535 60.5507C181.142 60.2239 180.649 60.0165 180.118 60.0165C180.086 60.0165 180.055 60.0164 180.023 60.0196C178.917 60.0667 177.965 60.4879 176.978 60.9467C176.154 61.3333 175.444 61.8488 174.787 62.4805C174.168 63.0839 173.716 63.8539 173.367 64.6365C173.115 65.2211 172.88 65.7931 172.754 66.4185C172.663 66.8805 172.603 67.3582 172.543 67.8265C172.502 68.1691 172.471 68.5054 172.496 68.8511C172.543 69.574 172.766 70.212 173.068 70.8562C173.58 71.9531 174.542 72.764 175.523 73.4208C176.371 73.9803 177.346 74.3166 178.314 74.5994C179.228 74.8697 180.18 75.0928 181.136 75.008C182.49 74.8886 183.886 74.4423 185.011 73.6848C186.425 72.7325 187.425 71.048 187.899 69.4294C188.091 68.7725 188.145 68.0402 188.22 67.3645C188.286 66.7674 188.28 66.1954 188.154 65.6013C187.871 64.3411 186.944 63.0839 185.982 62.2479ZM177.39 68.6751C177.383 68.672 177.38 68.6657 177.374 68.6625C177.38 68.6688 177.39 68.6751 177.39 68.6751ZM177.399 68.6814C177.437 68.7097 177.474 68.7379 177.509 68.7662C177.471 68.7379 177.434 68.7097 177.399 68.6814ZM183.216 67.3708C183.163 67.6914 183.097 68.0119 182.996 68.3199C182.814 68.6877 182.61 69.0365 182.387 69.3791C182.34 69.4294 182.292 69.4797 182.242 69.5268C182.035 69.6525 181.818 69.7657 181.598 69.8694C181.39 69.9417 181.183 70.0014 180.966 70.0485C180.831 70.0548 180.696 70.058 180.558 70.0517C179.938 69.9165 179.319 69.7468 178.719 69.53C178.395 69.3602 178.09 69.1748 177.795 68.9705C177.71 68.8888 177.628 68.8039 177.55 68.7191C177.493 68.6311 177.44 68.5399 177.39 68.4457C177.386 68.1911 177.405 67.9397 177.43 67.6851C177.506 67.2985 177.606 66.9277 177.738 66.5631C177.861 66.3274 177.987 66.1011 178.128 65.8779C178.257 65.7428 178.389 65.6139 178.527 65.4913C178.684 65.3939 178.842 65.3059 179.008 65.2273C179.36 65.0859 179.712 64.9571 180.077 64.8565C180.287 64.8439 180.492 64.8062 180.686 64.7465C180.891 64.9131 181.123 65.0419 181.378 65.1582C181.372 65.1551 181.365 65.1519 181.359 65.1488C181.717 65.3185 182.05 65.5071 182.374 65.7271C182.607 65.9313 182.82 66.1482 183.022 66.3808C183.097 66.4971 183.166 66.6165 183.235 66.7391C183.242 66.9496 183.235 67.1602 183.216 67.3708ZM247.771 51.0467C247.639 51.9015 247.363 52.7124 247.067 53.5201C246.832 54.1644 246.561 54.837 246.194 55.4216C245.477 56.5656 244.628 57.653 243.689 58.6304C241.806 60.5916 239.439 62.273 236.809 63.0776C235.492 63.4799 234.166 63.7879 232.783 63.8853C232.154 63.923 231.519 63.9136 230.888 63.9325C230.473 64.5768 230.083 65.2336 229.618 65.8434C228.829 66.8836 228.018 67.9145 227.157 68.9014C226.164 70.0391 225.143 71.1705 223.848 71.9783C222.908 72.5628 221.971 73.1757 221 73.7226C219.856 74.3731 218.593 74.7628 217.292 74.9577C216.016 75.1431 214.74 75.3191 213.445 75.2657C212.181 75.2123 210.93 75.096 209.736 74.6654C209.092 74.4297 208.435 74.1908 207.835 73.8703C207.511 73.6974 207.187 73.5308 206.854 73.38C206.527 73.248 206.197 73.1128 205.892 72.9431C205.622 72.7797 205.352 72.6194 205.075 72.4685C204.444 72.126 203.799 71.8054 203.186 71.4408C202.646 71.1171 202.127 70.7337 201.59 70.3848C201.313 70.5702 201.024 70.7368 200.713 70.8751C199.877 71.2554 199.016 71.5854 198.133 71.8368C196.002 72.4434 193.758 73.1537 191.514 72.8551C191.08 72.8551 190.684 72.7483 190.31 72.5314C189.955 72.3208 189.666 72.038 189.455 71.6765C189.135 71.1297 189.047 70.4602 189.213 69.8474C189.568 68.5588 190.879 67.8925 192.145 68.1817C192.271 68.2131 192.397 68.2414 192.523 68.2665C192.903 68.2822 193.28 68.2571 193.66 68.2257C195.103 67.9711 196.523 67.5342 197.884 66.9937C198.239 66.8365 198.585 66.6637 198.909 66.4499C199.066 66.3085 199.217 66.1576 199.368 66.0068C200.119 65.2493 201.241 64.8408 202.287 65.1991C203.255 65.5416 204.057 66.2394 204.924 66.7642C205.93 67.3771 206.996 67.8611 208.023 68.4205C208.765 68.8134 209.532 69.1999 210.302 69.5425C210.99 69.8065 211.691 70.0391 212.414 70.1805C213.624 70.2811 214.84 70.2622 216.047 70.124C216.839 70.0045 217.618 69.8537 218.37 69.5834C218.923 69.3162 219.448 69.0114 219.972 68.6908C220.592 68.3105 221.233 67.9742 221.833 67.5782C223.125 66.4468 224.231 65.0733 225.3 63.7219C225.721 63.1405 226.117 62.5465 226.488 61.9305C227.119 60.865 227.679 59.5702 229.015 59.2464C229.574 59.1144 230.146 59.1333 230.718 59.149C230.929 59.1553 231.145 59.1616 231.362 59.1553C232.007 59.149 232.651 59.1302 233.292 59.0767C234.276 58.8944 235.222 58.6116 236.165 58.2784C237.142 57.8196 238.05 57.2633 238.924 56.6253C239.829 55.8396 240.634 55.0004 241.385 54.0733C241.793 53.4887 242.161 52.901 242.472 52.263C242.752 51.4772 242.991 50.6978 243.139 49.8775C243.217 48.8215 243.217 47.7624 243.139 46.7063C242.903 45.3203 242.466 43.9878 241.944 42.6803C241.592 41.8977 241.218 41.1152 240.725 40.408C240.244 39.7072 239.757 39.0063 239.26 38.3149C239.141 38.1766 239.018 38.0446 238.883 37.922C238.638 37.746 238.387 37.5731 238.145 37.394C237.887 37.196 237.56 36.9854 237.337 36.7246C236.68 35.9608 236.369 35.0023 236.62 33.9997C236.825 33.2171 237.356 32.5131 237.733 31.8028C238.123 31.0705 238.493 30.3288 238.842 29.5714C239.219 28.6254 239.527 27.6793 239.719 26.6831C239.854 25.077 239.703 23.4365 239.518 21.8367C239.433 21.3339 239.32 20.8499 239.15 20.369C239.009 20.0987 238.852 19.8441 238.679 19.5959C238.283 19.137 237.859 18.7159 237.4 18.323C236.391 17.6001 235.307 17.0407 234.172 16.541C232.67 15.9438 231.127 15.5698 229.543 15.3027C228.062 15.1424 226.576 15.1707 225.095 15.331C224.709 15.4001 224.351 15.4944 223.983 15.6264C223.266 15.9658 222.553 16.2896 221.729 16.0444C220.796 15.7678 220.136 15.0575 219.856 14.1304C219.702 13.6055 219.586 13.0964 219.4 12.5872C218.882 11.4401 218.304 10.3495 217.571 9.32493C216.87 8.49206 216.113 7.74092 215.274 7.0432C214.633 6.58434 213.963 6.21976 213.253 5.88976C212.455 5.61004 211.641 5.39947 210.83 5.17004C210.104 4.96889 209.4 4.77718 208.668 4.65146C207.241 4.53203 205.836 4.51318 204.409 4.63261C203.831 4.72375 203.259 4.83061 202.69 4.95947C202.08 5.09461 201.489 5.33347 200.914 5.5629C200.32 5.83004 199.732 6.10976 199.163 6.42719C198.551 6.77605 197.975 7.17205 197.403 7.57434C196.366 8.40092 195.379 9.26835 194.503 10.2615C194.264 10.6041 194.044 10.9561 193.843 11.3301C193.572 11.8424 193.396 12.4018 193.098 12.9078C192.862 13.2944 192.611 13.6527 192.334 14.0078C191.859 14.605 191.143 14.9633 190.379 14.9821C189.901 14.9947 189.512 14.847 189.113 14.6678C188.651 14.5107 188.163 14.4258 187.689 14.3253C187.202 14.2278 186.711 14.1367 186.221 14.055C184.653 13.901 183.084 13.9072 181.532 14.0518C180.715 14.187 179.923 14.3787 179.14 14.6615C178.496 14.9821 177.88 15.3278 177.286 15.7333C176.827 16.1198 176.425 16.541 176.032 16.9904C175.485 17.7698 175.023 18.5713 174.621 19.4356C174.156 20.7179 173.841 22.0222 173.628 23.3705C173.514 24.4328 173.483 25.473 173.562 26.5448C173.678 27.2582 173.848 27.9402 174.102 28.6222C174.413 29.2728 174.746 29.9139 175.105 30.5362C175.485 31.2057 175.953 31.7462 176.202 32.4911C176.544 33.5251 176.261 34.6817 175.485 35.4517C175.161 35.7754 174.8 35.9577 174.401 36.1494C173.703 36.492 172.996 36.8534 172.326 37.2589C171.836 37.6863 171.387 38.1483 170.956 38.6386C170.645 39.0817 170.372 39.5406 170.13 40.0277C169.991 40.4489 169.913 40.8794 169.84 41.3163C169.712 42.7275 169.803 44.1135 169.972 45.5121C170.243 47.2029 170.617 48.8372 171.201 50.4495C171.409 50.9209 171.638 51.3767 171.924 51.8072C172.502 52.4704 173.156 53.0204 173.844 53.5673C174.366 53.9381 174.897 54.2556 175.482 54.5321C175.708 54.6233 175.934 54.7144 176.164 54.8056C176.814 55.0507 177.33 55.3587 177.691 55.9779C178.04 56.5687 178.138 57.2884 177.949 57.9516C177.776 58.5896 177.349 59.149 176.777 59.479C176.242 59.7933 175.403 59.9787 174.803 59.7367C173.722 59.3093 172.675 58.8693 171.729 58.1779C171.006 57.6593 170.346 57.0653 169.69 56.4681C169.281 56.0941 168.888 55.7107 168.539 55.2833C168.19 54.8496 167.798 54.4221 167.521 53.9413C167.244 53.4604 167.028 52.9607 166.817 52.4484C165.934 50.3112 165.481 48.0609 165.154 45.7792C164.975 44.5283 164.84 43.2649 164.865 41.9952C164.884 41.244 164.997 40.4897 165.107 39.7512C165.286 38.5537 165.777 37.3563 166.496 36.3757C167.037 35.6403 167.603 34.9488 168.247 34.3045C168.778 33.7734 169.378 33.2077 170.029 32.8431C170.211 32.7394 170.4 32.6357 170.585 32.532C170.186 31.7494 169.765 30.9857 169.438 30.1654C169.064 29.2571 168.885 28.3299 168.759 27.3556C168.652 26.4819 168.583 25.6239 168.621 24.7439C168.678 23.3862 168.888 21.9844 169.209 20.6644C169.532 19.2941 170.004 18.0119 170.576 16.7233C171.116 15.5133 171.937 14.4133 172.82 13.4358C173.907 12.2289 175.262 11.2829 176.748 10.6261C177.965 10.0918 179.175 9.71779 180.492 9.53864C181.852 9.35321 183.194 9.27464 184.558 9.33436C185.894 9.38778 187.208 9.57007 188.519 9.8215C188.795 9.87493 189.075 9.92836 189.351 9.98179C189.37 9.94407 189.386 9.9095 189.402 9.87179C189.521 9.6015 189.637 9.31236 189.782 9.04835C190.052 8.55492 190.354 8.10235 190.697 7.65291C191.511 6.60005 192.491 5.73261 193.478 4.84946C194.424 4.00717 195.471 3.21202 196.577 2.59288C197.721 1.95487 198.912 1.4363 200.135 0.961721C202.011 0.242002 204.044 0 206.062 0C206.672 0 207.282 0.0220003 207.882 0.0597149C209.211 0.138287 210.525 0.361431 211.807 0.716577C213.03 1.05286 214.227 1.38915 215.4 1.88887C215.912 2.10573 216.446 2.32259 216.911 2.63373C217.502 3.02031 218.062 3.44145 218.602 3.89089C219.476 4.62003 220.233 5.43718 220.944 6.3329C221.754 7.35748 222.392 8.45121 222.977 9.6235C223.191 10.0478 223.404 10.4689 223.603 10.9027C223.964 10.8429 224.325 10.7989 224.687 10.7738C225.212 10.7392 225.733 10.7078 226.258 10.7078C227.415 10.6952 228.562 10.7267 229.719 10.8587C231.073 11.0095 232.415 11.2735 233.726 11.6538C234.298 11.8172 234.876 12.0089 235.423 12.2384C236.108 12.5212 236.812 12.779 237.463 13.1278C238.911 13.8915 240.31 14.7904 241.457 15.9753C242.425 16.9684 243.214 18.0747 243.654 19.4041C243.896 20.1396 244.003 20.8719 244.1 21.6356C244.232 22.7419 244.298 23.8576 244.352 24.9702C244.418 26.2871 244.305 27.6071 243.956 28.8831C243.594 30.1999 243.035 31.4697 242.45 32.6985C242.208 33.2077 241.935 33.7043 241.671 34.2008C241.944 34.3957 242.211 34.6031 242.422 34.8608C242.837 35.3668 243.224 35.8854 243.594 36.426C244.022 37.0388 244.462 37.6486 244.858 38.2866C245.766 39.7354 246.436 41.332 247.017 42.9443C247.479 44.214 247.825 45.4775 247.944 46.8258C248.064 48.2275 247.985 49.6481 247.771 51.0467ZM191.407 29.2225C191.407 27.9654 192.491 26.7899 193.783 26.8465C195.775 26.9251 197.768 27.0508 199.757 26.9659C200.6 26.9282 201.436 26.8528 202.278 26.8213C203.127 26.7899 203.975 26.8025 204.824 26.8088C206.49 26.8088 208.158 26.7113 209.83 26.6705C210.745 26.6453 211.678 26.5982 212.606 26.5982C212.967 26.5982 213.325 26.6045 213.68 26.6233C214.498 26.6642 215.233 27.0319 215.66 27.7611C215.968 28.2922 216.053 28.9334 215.89 29.5305C215.733 30.1025 215.349 30.6022 214.837 30.8977C214.322 31.2025 213.809 31.2371 213.25 31.1617C212.719 31.1302 212.178 31.1648 211.653 31.1711C210.943 31.1774 210.239 31.2245 209.535 31.2622C208.68 31.3031 207.825 31.3817 206.97 31.3942C206.163 31.4005 205.364 31.3942 204.557 31.4005C202.891 31.4194 201.222 31.4257 199.556 31.5042C197.63 31.5954 195.706 31.6425 193.78 31.608C192.488 31.5765 191.407 30.5362 191.407 29.2225ZM190.769 37.8277C190.769 36.558 191.875 35.3417 193.195 35.4077C195.156 35.4988 197.114 35.6497 199.075 35.6246C200.898 35.5994 202.718 35.546 204.541 35.5397C206.292 35.5334 208.042 35.5083 209.79 35.4674C210.673 35.4486 211.559 35.4014 212.442 35.3888C213.152 35.3763 213.863 35.3888 214.567 35.3103C214.614 35.304 214.661 35.3008 214.711 35.3008C215.261 35.3008 215.868 35.6308 216.232 36.0017C216.672 36.4417 216.924 37.042 216.924 37.6674C216.924 38.2866 216.672 38.8963 216.232 39.3332C215.836 39.7292 215.142 40.0969 214.567 40.0246C213.825 39.9272 213.074 39.9837 212.329 39.9932C211.487 40.012 210.638 40.0246 209.79 40.0183C208.045 39.9994 206.292 40.0309 204.541 40.0529C202.718 40.078 200.898 40.232 199.075 40.2289C197.114 40.2289 195.156 40.3074 193.195 40.2477C191.875 40.21 190.769 39.1823 190.769 37.8277ZM214.604 44.588C215.902 44.588 216.968 45.8798 216.968 47.1212C216.968 48.5229 215.811 49.6135 214.441 49.6481C213.79 49.6607 213.14 49.7141 212.496 49.7801C211.826 49.8461 211.172 49.8461 210.497 49.8398C208.812 49.8147 207.115 49.8272 205.437 49.7267C203.127 49.5884 200.813 49.6135 198.497 49.6355C196.891 49.6481 195.279 49.6669 193.67 49.6229C192.315 49.5852 191.184 48.5167 191.184 47.1369C191.184 45.8201 192.315 44.5975 193.67 44.6509C195.807 44.7358 197.938 44.8426 200.072 44.8929C201.913 44.9306 203.73 44.8992 205.572 44.7955C207.238 44.7043 208.925 44.7106 210.597 44.6918C211.873 44.6729 213.162 44.6918 214.438 44.588C214.498 44.5912 214.551 44.588 214.604 44.588Z" fill="#111918"/>
<path d="M74.4384 92.0514C75.0764 91.1903 75.8119 90.414 76.7327 89.8483C77.2576 89.5277 77.861 89.424 78.4425 89.5057C78.5996 89.4711 78.7599 89.4491 78.9296 89.4271C79.445 89.3705 79.9605 89.3297 80.4728 89.3297C81.1799 89.3297 81.8839 89.402 82.5848 89.5937C84.5428 90.1343 86.2651 91.4323 87.1325 93.2992C87.7328 94.6066 88.088 96.002 87.9811 97.4446C87.9151 98.3058 87.7045 99.0098 87.2771 99.7546C87.0477 100.144 86.7365 100.512 86.46 100.855C86.0797 101.342 85.5768 101.782 85.0708 102.118C83.5654 103.118 81.6231 103.532 79.8536 103.334C79.4199 103.287 79.005 103.228 78.5902 103.118C78.1439 103.004 77.6693 102.728 77.2796 102.486C76.8176 102.203 76.3902 101.816 75.991 101.452C75.4913 100.99 75.0513 100.446 74.6804 99.8741C74.3002 99.3021 74.0487 98.6358 73.8004 97.9978C73.637 97.5766 73.4861 97.1366 73.4107 96.6903C73.2536 95.8103 73.2599 95.2509 73.3919 94.374C73.5239 93.5223 73.9356 92.7397 74.4384 92.0514ZM78.6373 95.958C78.7159 96.332 78.8228 96.6966 78.9516 97.0549C79.0239 97.2026 79.1025 97.344 79.1905 97.4855C79.3885 97.7023 79.5991 97.9003 79.8159 98.0952C79.9291 98.1706 80.0453 98.2429 80.1648 98.3089C80.1742 98.312 80.1868 98.3152 80.1962 98.3152C80.4916 98.3372 80.7871 98.3435 81.0856 98.3278C81.3654 98.2649 81.6356 98.1958 81.9028 98.1046C82.0096 98.0449 82.1134 97.982 82.2139 97.916C82.3334 97.8029 82.4434 97.6866 82.5534 97.564C82.6508 97.4163 82.7451 97.2686 82.8331 97.1146C82.8425 96.8758 82.8394 96.64 82.8268 96.4012C82.7576 96.0649 82.6696 95.738 82.5596 95.4143C82.4874 95.2729 82.4088 95.1346 82.3271 94.9995C82.1951 94.8612 82.0568 94.7323 81.9154 94.6034C81.7362 94.4903 81.5571 94.3866 81.3685 94.2923C81.1296 94.2074 80.8908 94.1383 80.6456 94.0817C80.4445 94.0723 80.2402 94.0786 80.0391 94.088C79.8756 94.2609 79.6871 94.4117 79.4765 94.5374C79.4608 94.5469 79.445 94.5563 79.4293 94.5657C79.2785 94.704 79.1402 94.8486 79.0019 94.9995C78.8919 95.1597 78.7882 95.32 78.697 95.4897C78.675 95.5683 78.653 95.6469 78.631 95.7255C78.631 95.8009 78.6342 95.8795 78.6373 95.958ZM62.0178 78.2479C62.9261 77.459 63.9318 76.931 65.0569 76.5319C65.5252 76.3684 66.0155 76.3936 66.465 76.5507C66.8578 76.2239 67.3512 76.0165 67.8824 76.0165C67.9138 76.0165 67.9453 76.0164 67.9767 76.0196C69.083 76.0667 70.0353 76.4879 71.0221 76.9467C71.8456 77.3333 72.5559 77.8488 73.2127 78.4805C73.8319 79.0839 74.2844 79.8539 74.6333 80.6365C74.8847 81.2211 75.1204 81.7931 75.2462 82.4185C75.3373 82.8805 75.397 83.3582 75.4567 83.8265C75.4976 84.1691 75.529 84.5054 75.5039 84.8511C75.4567 85.574 75.2336 86.212 74.9319 86.8562C74.4196 87.9531 73.4579 88.764 72.4773 89.4208C71.6287 89.9803 70.6544 90.3166 69.6864 90.5994C68.7718 90.8697 67.8195 91.0928 66.8641 91.008C65.5095 90.8886 64.1141 90.4423 62.9889 89.6848C61.5746 88.7325 60.5752 87.048 60.1006 85.4294C59.9089 84.7725 59.8555 84.0402 59.78 83.3645C59.714 82.7674 59.7203 82.1954 59.846 81.6013C60.1289 80.3411 61.0561 79.0839 62.0178 78.2479ZM70.6104 84.6751C70.6167 84.672 70.6198 84.6657 70.6261 84.6625C70.6198 84.6688 70.6104 84.6751 70.6104 84.6751ZM70.601 84.6814C70.5633 84.7097 70.5256 84.7379 70.491 84.7662C70.5287 84.7379 70.5664 84.7097 70.601 84.6814ZM64.7835 83.3708C64.8369 83.6914 64.9029 84.0119 65.0035 84.3199C65.1858 84.6877 65.3901 85.0365 65.6132 85.3791C65.6604 85.4294 65.7075 85.4797 65.7578 85.5268C65.9652 85.6525 66.1821 85.7657 66.4021 85.8694C66.6095 85.9417 66.817 86.0014 67.0338 86.0485C67.169 86.0548 67.3041 86.058 67.4424 86.0517C68.0615 85.9165 68.6807 85.7468 69.281 85.53C69.6047 85.3602 69.9096 85.1748 70.205 84.9705C70.2898 84.8888 70.3716 84.8039 70.4501 84.7191C70.5067 84.6311 70.5601 84.5399 70.6104 84.4457C70.6136 84.1911 70.5947 83.9397 70.5696 83.6851C70.4941 83.2985 70.3936 82.9277 70.2616 82.5631C70.139 82.3274 70.0133 82.1011 69.8718 81.8779C69.743 81.7428 69.611 81.6139 69.4727 81.4913C69.3155 81.3939 69.1584 81.3059 68.9918 81.2273C68.6398 81.0859 68.2878 80.9571 67.9233 80.8565C67.7127 80.8439 67.5084 80.8062 67.3135 80.7465C67.1092 80.9131 66.8767 81.0419 66.6221 81.1582C66.6284 81.1551 66.6347 81.1519 66.641 81.1488C66.2827 81.3185 65.9495 81.5071 65.6258 81.7271C65.3932 81.9313 65.1795 82.1482 64.9784 82.3808C64.9029 82.4971 64.8338 82.6165 64.7647 82.7391C64.7584 82.9496 64.7647 83.1602 64.7835 83.3708ZM0.228745 67.0467C0.360748 67.9015 0.637321 68.7124 0.932755 69.5201C1.16847 70.1644 1.43876 70.837 1.80647 71.4216C2.52306 72.5656 3.37163 73.653 4.31135 74.6304C6.19393 76.5916 8.56052 78.273 11.1911 79.0776C12.508 79.4799 13.8343 79.7879 15.2171 79.8853C15.8457 79.923 16.4806 79.9136 17.1123 79.9325C17.5272 80.5768 17.9169 81.2336 18.382 81.8434C19.1709 82.8836 19.9818 83.9145 20.8429 84.9014C21.8361 86.0391 22.8575 87.1705 24.1524 87.9783C25.0921 88.5628 26.0287 89.1757 26.9998 89.7226C28.1438 90.3731 29.4072 90.7628 30.7084 90.9577C31.9844 91.1431 33.2604 91.3191 34.5553 91.2657C35.8187 91.2123 37.0696 91.096 38.2639 90.6654C38.9082 90.4297 39.565 90.1908 40.1653 89.8703C40.489 89.6974 40.8128 89.5308 41.1459 89.38C41.4728 89.248 41.8028 89.1128 42.1076 88.9431C42.3779 88.7797 42.6482 88.6194 42.9248 88.4685C43.5565 88.126 44.2008 87.8054 44.8136 87.4408C45.3542 87.1171 45.8728 86.7337 46.4102 86.3848C46.6868 86.5702 46.9759 86.7368 47.2871 86.8751C48.1231 87.2554 48.9843 87.5854 49.8674 87.8368C51.9983 88.4434 54.2423 89.1537 56.4863 88.8551C56.92 88.8551 57.316 88.7483 57.69 88.5314C58.0452 88.3208 58.3343 88.038 58.5449 87.6765C58.8655 87.1297 58.9535 86.4602 58.7869 85.8474C58.4318 84.5588 57.1212 83.8925 55.8546 84.1817C55.7289 84.2131 55.6032 84.2414 55.4774 84.2665C55.0972 84.2822 54.72 84.2571 54.3397 84.2257C52.8971 83.9711 51.4766 83.5342 50.1157 82.9937C49.7605 82.8365 49.4148 82.6637 49.0911 82.4499C48.934 82.3085 48.7831 82.1576 48.6322 82.0068C47.8811 81.2493 46.7591 80.8408 45.7125 81.1991C44.7445 81.5416 43.9431 82.2394 43.0756 82.7642C42.0699 83.3771 41.0045 83.8611 39.9768 84.4205C39.235 84.8134 38.4682 85.1999 37.6982 85.5425C37.0099 85.8065 36.309 86.0391 35.5862 86.1805C34.3761 86.2811 33.1598 86.2622 31.953 86.124C31.161 86.0045 30.3815 85.8537 29.6304 85.5834C29.0772 85.3162 28.5524 85.0114 28.0275 84.6908C27.4084 84.3105 26.7672 83.9742 26.1669 83.5782C24.8752 82.4468 23.7689 81.0733 22.7003 79.7219C22.2792 79.1405 21.8832 78.5465 21.5123 77.9305C20.8806 76.865 20.3212 75.5702 18.9855 75.2464C18.426 75.1144 17.854 75.1333 17.282 75.149C17.0714 75.1553 16.8546 75.1616 16.6377 75.1553C15.9934 75.149 15.3491 75.1302 14.708 75.0767C13.7243 74.8944 12.7783 74.6116 11.8354 74.2784C10.858 73.8196 9.94968 73.2633 9.07596 72.6253C8.17081 71.8396 7.36623 71.0004 6.61508 70.0733C6.2065 69.4887 5.83879 68.901 5.52765 68.263C5.24793 67.4772 5.00907 66.6978 4.86136 65.8775C4.78278 64.8215 4.78278 63.7624 4.86136 62.7063C5.09707 61.3203 5.53393 59.9878 6.05565 58.6803C6.40765 57.8977 6.78165 57.1152 7.27509 56.408C7.75595 55.7072 8.2431 55.0063 8.73967 54.3149C8.8591 54.1766 8.98167 54.0446 9.11681 53.922C9.36195 53.746 9.61339 53.5731 9.85539 53.394C10.1131 53.196 10.44 52.9854 10.6631 52.7246C11.32 51.9608 11.6311 51.0023 11.3797 49.9997C11.1754 49.2171 10.6443 48.5131 10.2671 47.8028C9.87739 47.0705 9.50653 46.3288 9.15767 45.5714C8.78053 44.6254 8.47253 43.6793 8.28081 42.6831C8.14567 41.077 8.29652 39.4365 8.48195 37.8367C8.56681 37.3339 8.67995 36.8499 8.84967 36.369C8.9911 36.0987 9.14824 35.8441 9.3211 35.5959C9.7171 35.137 10.1414 34.7159 10.6003 34.323C11.6091 33.6001 12.6934 33.0407 13.828 32.541C15.3303 31.9438 16.8734 31.5698 18.4575 31.3027C19.9378 31.1424 21.4243 31.1707 22.9046 31.331C23.2912 31.4001 23.6495 31.4944 24.0172 31.6264C24.7338 31.9658 25.4472 32.2896 26.2707 32.0444C27.2041 31.7678 27.8641 31.0575 28.1438 30.1304C28.2978 29.6055 28.4141 29.0964 28.5995 28.5872C29.1181 27.4401 29.6964 26.3495 30.4287 25.3249C31.1295 24.4921 31.887 23.7409 32.7261 23.0432C33.3673 22.5843 34.0367 22.2198 34.747 21.8898C35.5453 21.61 36.3593 21.3995 37.1702 21.17C37.8962 20.9689 38.6002 20.7772 39.3325 20.6515C40.7593 20.532 42.1642 20.5132 43.5911 20.6326C44.1694 20.7237 44.7414 20.8306 45.3102 20.9595C45.9199 21.0946 46.5108 21.3335 47.086 21.5629C47.68 21.83 48.2677 22.1098 48.8365 22.4272C49.4494 22.7761 50.0245 23.1721 50.5965 23.5743C51.6337 24.4009 52.6206 25.2684 53.4974 26.2615C53.7363 26.6041 53.9563 26.9561 54.1574 27.3301C54.4277 27.8424 54.6037 28.4018 54.9023 28.9078C55.138 29.2944 55.3894 29.6527 55.666 30.0078C56.1406 30.605 56.8572 30.9633 57.6209 30.9821C58.0986 30.9947 58.4883 30.847 58.8875 30.6678C59.3495 30.5107 59.8366 30.4258 60.3112 30.3253C60.7983 30.2278 61.2886 30.1367 61.7789 30.055C63.3472 29.901 64.9155 29.9072 66.4681 30.0518C67.2852 30.187 68.0773 30.3787 68.8598 30.6615C69.5041 30.9821 70.1201 31.3278 70.7141 31.7333C71.173 32.1198 71.5753 32.541 71.9681 32.9904C72.515 33.7698 72.977 34.5713 73.3793 35.4356C73.8444 36.7179 74.1587 38.0222 74.3724 39.3705C74.4856 40.4328 74.517 41.473 74.4384 42.5448C74.3222 43.2582 74.1524 43.9402 73.8979 44.6222C73.5867 45.2728 73.2536 45.9139 72.8953 46.5362C72.515 47.2057 72.0467 47.7462 71.7984 48.4911C71.4558 49.5251 71.7387 50.6817 72.515 51.4517C72.8387 51.7754 73.2001 51.9577 73.5993 52.1494C74.297 52.492 75.0042 52.8534 75.6736 53.2589C76.1639 53.6863 76.6133 54.1483 77.0439 54.6386C77.355 55.0817 77.6285 55.5406 77.8705 56.0277C78.0088 56.4489 78.0873 56.8794 78.1596 57.3163C78.2885 58.7275 78.1973 60.1135 78.0276 61.5121C77.7573 63.2029 77.3833 64.8372 76.7987 66.4495C76.5913 66.9209 76.3619 67.3767 76.0759 67.8072C75.4976 68.4704 74.8439 69.0204 74.1556 69.5673C73.6339 69.9381 73.1027 70.2556 72.5181 70.5321C72.2919 70.6233 72.0656 70.7144 71.8361 70.8056C71.1856 71.0507 70.6701 71.3587 70.3087 71.9779C69.9598 72.5687 69.8624 73.2884 70.051 73.9516C70.2238 74.5896 70.6513 75.149 71.2233 75.479C71.7576 75.7933 72.5967 75.9787 73.197 75.7367C74.2782 75.3093 75.3247 74.8693 76.2707 74.1779C76.9936 73.6593 77.6536 73.0653 78.3105 72.4681C78.719 72.0941 79.1119 71.7107 79.4608 71.2833C79.8096 70.8496 80.2025 70.4221 80.4791 69.9413C80.7556 69.4604 80.9725 68.9607 81.1831 68.4484C82.0662 66.3112 82.5188 64.0609 82.8456 61.7792C83.0248 60.5283 83.1599 59.2649 83.1348 57.9952C83.1159 57.244 83.0028 56.4897 82.8928 55.7512C82.7136 54.5537 82.2234 53.3563 81.5036 52.3757C80.9631 51.6403 80.3973 50.9488 79.7531 50.3045C79.2219 49.7734 78.6216 49.2077 77.971 48.8431C77.7888 48.7394 77.6002 48.6357 77.4147 48.532C77.8139 47.7494 78.235 46.9857 78.5619 46.1654C78.9359 45.2571 79.115 44.3299 79.2408 43.3556C79.3476 42.4819 79.4168 41.6239 79.379 40.7439C79.3225 39.3862 79.1119 37.9844 78.7913 36.6644C78.4676 35.2941 77.9962 34.0119 77.4242 32.7233C76.8836 31.5133 76.0633 30.4133 75.1802 29.4358C74.0927 28.2289 72.7381 27.2829 71.2516 26.6261C70.0353 26.0918 68.8253 25.7178 67.5084 25.5386C66.1475 25.3532 64.8055 25.2746 63.4415 25.3344C62.1058 25.3878 60.7921 25.5701 59.4815 25.8215C59.2049 25.8749 58.9252 25.9284 58.6486 25.9818C58.6298 25.9441 58.614 25.9095 58.5983 25.8718C58.4789 25.6015 58.3626 25.3124 58.218 25.0484C57.9477 24.5549 57.646 24.1023 57.3035 23.6529C56.4895 22.6 55.5089 21.7326 54.522 20.8495C53.576 20.0072 52.5294 19.212 51.4231 18.5929C50.2791 17.9549 49.088 17.4363 47.8654 16.9617C45.9891 16.242 43.9556 16 41.9379 16C41.3282 16 40.7185 16.022 40.1182 16.0597C38.7887 16.1383 37.475 16.3614 36.1927 16.7166C34.9701 17.0529 33.7727 17.3892 32.6004 17.8889C32.0881 18.1057 31.5538 18.3226 31.0887 18.6337C30.4978 19.0203 29.9384 19.4415 29.3978 19.8909C28.5241 20.62 27.7667 21.4372 27.0564 22.3329C26.2455 23.3575 25.6075 24.4512 25.0229 25.6235C24.8092 26.0478 24.5955 26.4689 24.3975 26.9027C24.0361 26.8429 23.6746 26.7989 23.3132 26.7738C22.7883 26.7392 22.2666 26.7078 21.7418 26.7078C20.5852 26.6952 19.438 26.7267 18.2814 26.8587C16.9269 27.0095 15.5849 27.2735 14.2743 27.6538C13.7023 27.8172 13.124 28.0089 12.5771 28.2384C11.892 28.5212 11.188 28.779 10.5374 29.1278C9.08853 29.8915 7.68995 30.7904 6.5428 31.9753C5.57479 32.9684 4.78592 34.0747 4.34592 35.4041C4.10392 36.1396 3.99706 36.8719 3.89963 37.6356C3.76763 38.7419 3.70163 39.8576 3.6482 40.9702C3.5822 42.2871 3.69535 43.6071 4.0442 44.8831C4.40564 46.1999 4.96507 47.4697 5.54964 48.6985C5.79165 49.2077 6.06508 49.7043 6.32908 50.2008C6.05565 50.3957 5.78851 50.6031 5.57793 50.8608C5.16307 51.3668 4.7765 51.8854 4.40564 52.426C3.9782 53.0388 3.5382 53.6486 3.1422 54.2866C2.2339 55.7354 1.56447 57.332 0.98304 58.9443C0.521034 60.214 0.175316 61.4775 0.0558853 62.8258C-0.0635376 64.2275 0.0150299 65.6481 0.228745 67.0467ZM56.5932 45.2225C56.5932 43.9654 55.5089 42.7899 54.2171 42.8465C52.2246 42.9251 50.232 43.0508 48.2425 42.9659C47.4002 42.9282 46.5642 42.8528 45.7219 42.8213C44.8734 42.7899 44.0248 42.8025 43.1762 42.8088C41.5105 42.8088 39.8416 42.7113 38.1696 42.6705C37.255 42.6453 36.3216 42.5982 35.3944 42.5982C35.033 42.5982 34.6747 42.6045 34.3196 42.6233C33.5024 42.6642 32.767 43.0319 32.3396 43.7611C32.0316 44.2922 31.9467 44.9334 32.1101 45.5305C32.2673 46.1025 32.6507 46.6022 33.163 46.8977C33.6784 47.2025 34.1907 47.2371 34.7501 47.1617C35.2813 47.1302 35.8219 47.1648 36.3467 47.1711C37.057 47.1774 37.761 47.2245 38.465 47.2622C39.3199 47.3031 40.1748 47.3817 41.0296 47.3942C41.8373 47.4005 42.6356 47.3942 43.4434 47.4005C45.1091 47.4194 46.778 47.4257 48.4437 47.5042C50.3703 47.5954 52.2937 47.6425 54.2203 47.608C55.512 47.5765 56.5932 46.5362 56.5932 45.2225ZM57.2312 53.8277C57.2312 52.558 56.1249 51.3417 54.8049 51.4077C52.8437 51.4988 50.8857 51.6497 48.9245 51.6246C47.1017 51.5994 45.2819 51.546 43.4591 51.5397C41.7085 51.5334 39.9579 51.5083 38.2105 51.4674C37.3273 51.4486 36.441 51.4014 35.5579 51.3888C34.8476 51.3763 34.1373 51.3888 33.4333 51.3103C33.3861 51.304 33.339 51.3008 33.2887 51.3008C32.7387 51.3008 32.1321 51.6308 31.7676 52.0017C31.3275 52.4417 31.0761 53.042 31.0761 53.6674C31.0761 54.2866 31.3275 54.8963 31.7676 55.3332C32.1636 55.7292 32.8581 56.0969 33.4333 56.0246C34.175 55.9272 34.9261 55.9837 35.671 55.9932C36.5133 56.012 37.3619 56.0246 38.2105 56.0183C39.9548 55.9994 41.7085 56.0309 43.4591 56.0529C45.2819 56.078 47.1017 56.232 48.9245 56.2289C50.8857 56.2289 52.8437 56.3074 54.8049 56.2477C56.1249 56.21 57.2312 55.1823 57.2312 53.8277ZM33.3956 60.588C32.0976 60.588 31.0321 61.8798 31.0321 63.1212C31.0321 64.5229 32.1887 65.6135 33.559 65.6481C34.2096 65.6607 34.8601 65.7141 35.5044 65.7801C36.1739 65.8461 36.8276 65.8461 37.5033 65.8398C39.1879 65.8147 40.885 65.8272 42.5633 65.7267C44.8734 65.5884 47.1865 65.6135 49.5028 65.6355C51.1088 65.6481 52.7211 65.6669 54.3303 65.6229C55.6849 65.5852 56.8163 64.5167 56.8163 63.1369C56.8163 61.8201 55.6849 60.5975 54.3303 60.6509C52.1931 60.7358 50.0623 60.8426 47.9282 60.8929C46.0865 60.9306 44.2699 60.8992 42.4282 60.7955C40.7625 60.7043 39.0747 60.7106 37.4027 60.6918C36.1267 60.6729 34.8382 60.6918 33.5621 60.588C33.5024 60.5912 33.449 60.588 33.3956 60.588Z" fill="#111918"/>
<path d="M227 29.5906V47.4093L214.409 60H196.591L184 47.4093V29.5906L196.591 17H214.409L227 29.5906Z" fill="#E32400"/>
<path d="M213.208 19.9004H197.793L186.901 30.792V46.2073L197.793 57.0988H213.208L224.1 46.2072V30.7919L213.208 19.9004ZM222.919 45.7169L212.718 55.9178H198.283L188.082 45.7169V31.2824L198.283 21.0815H212.718L222.919 31.2824V45.7169Z" fill="white"/>
<path d="M196.583 40.7517C196.562 40.4685 196.507 40.213 196.424 39.9712C196.313 39.6397 196.127 39.3635 195.865 39.1355C195.664 38.9353 195.416 38.7833 195.132 38.666C194.849 38.5554 194.49 38.4657 194.048 38.4104L192.915 38.2377C192.708 38.2101 192.543 38.1687 192.404 38.1065C192.266 38.0443 192.149 37.9753 192.045 37.8855C191.949 37.7888 191.88 37.6852 191.838 37.5747C191.804 37.4573 191.783 37.3399 191.783 37.2224C191.783 37.1051 191.797 36.9877 191.838 36.8841C191.887 36.6975 191.99 36.5387 192.135 36.3938C192.37 36.1658 192.736 36.0484 193.233 36.0484C193.551 36.0484 193.876 36.083 194.228 36.1589C194.573 36.2349 194.891 36.4075 195.188 36.6838L196.362 35.5512C196.238 35.4338 196.113 35.3301 195.982 35.2334C195.678 35.0055 195.353 34.8328 195.015 34.7154C194.525 34.5566 193.952 34.4736 193.288 34.4736C192.77 34.4736 192.308 34.5428 191.9 34.6808C191.493 34.8189 191.147 35.0123 190.857 35.2611C190.574 35.5096 190.36 35.7997 190.208 36.145C190.098 36.3936 190.029 36.663 190.001 36.9462C189.987 37.0567 189.98 37.1672 189.98 37.2846C189.98 38.0787 190.208 38.6866 190.657 39.1079C190.871 39.3081 191.127 39.4739 191.424 39.5983C191.714 39.7227 192.073 39.8192 192.501 39.8815L193.634 40.0473C193.876 40.0819 194.055 40.1233 194.173 40.1646C194.29 40.213 194.394 40.2751 194.49 40.3649C194.615 40.4754 194.697 40.6136 194.732 40.7793C194.773 40.8829 194.787 41.0003 194.787 41.1316C194.787 41.5045 194.642 41.7877 194.359 41.988C194.076 42.1882 193.648 42.2918 193.088 42.2918C192.653 42.2918 192.239 42.2365 191.845 42.1192C191.458 42.0086 191.106 41.8014 190.809 41.5114L189.974 42.3195L189.607 42.6786C190.07 43.1412 190.581 43.459 191.148 43.6385C191.714 43.8181 192.356 43.9079 193.075 43.9079C193.572 43.9079 194.041 43.8457 194.47 43.7145C194.905 43.5901 195.278 43.4106 195.595 43.1689C195.906 42.934 196.155 42.6371 196.334 42.2917C196.514 41.9395 196.604 41.5458 196.604 41.09C196.603 40.9727 196.597 40.8622 196.583 40.7517Z" fill="#B51A00"/>
<path d="M197.64 34.5498V36.1659H200.126V43.8252H201.984V36.1659H204.463V34.5498H197.64Z" fill="#B51A00"/>
<path d="M212.668 38.8455C212.668 38.5348 212.662 38.2515 212.655 37.9891C212.641 37.6369 212.606 37.3054 212.544 37.0084C212.482 36.7044 212.385 36.4282 212.254 36.1795C212.123 35.924 211.943 35.6823 211.701 35.4474C211.384 35.1367 211.018 34.895 210.603 34.7223C210.196 34.5566 209.719 34.4736 209.167 34.4736C208.614 34.4736 208.131 34.5566 207.716 34.7223C207.302 34.895 206.936 35.1367 206.611 35.4474C206.377 35.6823 206.19 35.924 206.059 36.1795C205.928 36.4282 205.838 36.7044 205.783 37.0084C205.72 37.3053 205.686 37.6369 205.672 37.9891C205.665 38.2515 205.658 38.5348 205.658 38.8455C205.651 38.956 205.651 39.0735 205.651 39.1909C205.651 39.6328 205.658 40.0335 205.672 40.3857C205.686 40.7448 205.72 41.0694 205.783 41.3733C205.838 41.6703 205.928 41.9466 206.059 42.2021C206.19 42.4507 206.376 42.6924 206.611 42.9272C206.936 43.245 207.302 43.4798 207.716 43.6525C208.131 43.8251 208.614 43.908 209.167 43.908C209.719 43.908 210.196 43.8251 210.603 43.6525C211.018 43.4798 211.384 43.245 211.701 42.9272C211.943 42.6924 212.123 42.4507 212.254 42.2021C212.385 41.9466 212.482 41.6703 212.544 41.3733C212.606 41.0694 212.641 40.7448 212.654 40.3857C212.668 40.0335 212.675 39.6328 212.675 39.1909C212.675 39.0734 212.675 38.956 212.668 38.8455ZM207.516 38.8455C207.516 38.5486 207.523 38.2999 207.53 38.0857C207.544 37.7957 207.565 37.554 207.599 37.3675C207.641 37.1741 207.682 37.0221 207.744 36.9047C207.799 36.7874 207.875 36.6769 207.965 36.5801C208.103 36.4351 208.276 36.3177 208.476 36.221C208.677 36.1312 208.905 36.0898 209.167 36.0898C209.423 36.0898 209.65 36.1312 209.851 36.221C210.051 36.3177 210.217 36.4352 210.355 36.5801C210.445 36.6768 210.514 36.7873 210.576 36.9047C210.631 37.0221 210.68 37.1741 210.714 37.3675C210.749 37.554 210.776 37.7957 210.79 38.0857C210.804 38.2999 210.811 38.5485 210.811 38.8455C210.818 38.956 210.818 39.0735 210.818 39.1909C210.818 39.6328 210.811 39.9989 210.79 40.289C210.776 40.579 210.749 40.8208 210.714 41.0073C210.679 41.1937 210.631 41.3457 210.576 41.4631C210.514 41.5805 210.445 41.6841 210.355 41.7809C210.217 41.9328 210.051 42.0501 209.851 42.1469C209.65 42.2435 209.422 42.292 209.167 42.292C208.904 42.292 208.677 42.2436 208.476 42.1469C208.276 42.0502 208.103 41.9328 207.965 41.7809C207.875 41.6842 207.799 41.5806 207.744 41.4631C207.682 41.3457 207.641 41.1937 207.599 41.0073C207.565 40.8208 207.544 40.579 207.53 40.289C207.516 39.9989 207.509 39.6328 207.509 39.1909C207.509 39.0734 207.509 38.956 207.516 38.8455Z" fill="#B51A00"/>
<path d="M221.369 37.0983C221.342 36.829 221.279 36.5734 221.176 36.3317C221.038 35.9795 220.831 35.6686 220.561 35.4063C220.299 35.1369 219.967 34.9297 219.574 34.7777C219.187 34.6257 218.745 34.5498 218.254 34.5498H214.573V43.8252H216.424V40.3373H218.254C218.745 40.3373 219.187 40.2615 219.574 40.1095C219.967 39.9576 220.299 39.7505 220.561 39.4809C220.831 39.2186 221.038 38.9078 221.176 38.5555C221.321 38.2033 221.39 37.8304 221.39 37.4436C221.39 37.3262 221.383 37.2088 221.369 37.0983ZM216.424 36.1659H218.158C218.586 36.1659 218.924 36.2833 219.166 36.5181C219.332 36.677 219.449 36.8703 219.498 37.0983C219.525 37.2088 219.539 37.3194 219.539 37.4437C219.539 37.8235 219.415 38.1343 219.166 38.3623C218.924 38.5901 218.586 38.7076 218.158 38.7076H216.424L216.424 36.1659Z" fill="#B51A00"/>
<path d="M196.423 39.2808C196.313 38.9493 196.126 38.673 195.864 38.4451C195.663 38.2517 195.415 38.0929 195.132 37.9824C194.848 37.865 194.489 37.7821 194.047 37.72L192.915 37.5473C192.707 37.5197 192.542 37.4783 192.404 37.416C192.265 37.3608 192.148 37.2848 192.045 37.1951C191.948 37.0984 191.879 36.9948 191.837 36.8842C191.803 36.7738 191.782 36.6563 191.782 36.532C191.782 36.2143 191.899 35.9382 192.134 35.7033C192.369 35.4754 192.735 35.3579 193.232 35.3579C193.55 35.3579 193.875 35.3994 194.227 35.4684C194.572 35.5444 194.89 35.717 195.187 36.0002L195.981 35.2336L196.361 34.8675C195.954 34.4738 195.498 34.1976 195.014 34.0319C194.524 33.8661 193.951 33.7832 193.288 33.7832C192.77 33.7832 192.307 33.8523 191.899 33.9904C191.492 34.1285 191.147 34.3219 190.856 34.5706C190.573 34.8191 190.359 35.1161 190.207 35.4545C190.055 35.7998 189.979 36.1796 189.979 36.601C189.979 36.7183 189.986 36.8358 190 36.9463C190.055 37.5678 190.276 38.0583 190.656 38.4243C190.87 38.6246 191.126 38.7834 191.423 38.9078C191.713 39.039 192.072 39.1287 192.5 39.191L193.633 39.3636C193.875 39.3982 194.054 39.4327 194.172 39.481C194.289 39.5224 194.393 39.5846 194.489 39.6744C194.69 39.8678 194.786 40.1234 194.786 40.4411C194.786 40.5654 194.773 40.6758 194.731 40.7795C194.676 40.9936 194.552 41.1663 194.358 41.3044C194.075 41.5046 193.647 41.6013 193.087 41.6013C192.652 41.6013 192.238 41.546 191.844 41.4355C191.457 41.3181 191.105 41.1178 190.808 40.8208L189.606 41.995C189.724 42.1124 189.848 42.216 189.973 42.3196C190.332 42.6096 190.725 42.8169 191.147 42.9481C191.713 43.1276 192.355 43.2174 193.074 43.2174C193.571 43.2174 194.04 43.1553 194.469 43.0311C194.904 42.8998 195.277 42.7202 195.594 42.4785C195.905 42.2436 196.154 41.9467 196.333 41.6014C196.465 41.3458 196.548 41.0626 196.582 40.7519C196.596 40.6414 196.603 40.524 196.603 40.3997C196.603 39.9852 196.541 39.6123 196.423 39.2808Z" fill="white"/>
<path d="M197.639 33.8594V35.4755H200.125V43.1417H201.983V35.4755H204.462V33.8594H197.639Z" fill="white"/>
<path d="M212.654 37.2988C212.64 36.9466 212.605 36.6151 212.543 36.318C212.481 36.021 212.384 35.7448 212.253 35.4892C212.122 35.2407 211.942 34.9919 211.7 34.7571C211.383 34.4463 211.017 34.2046 210.602 34.0389C210.195 33.8662 209.718 33.7832 209.166 33.7832C208.613 33.7832 208.13 33.8662 207.715 34.0389C207.301 34.2046 206.935 34.4463 206.61 34.7571C206.376 34.9919 206.189 35.2406 206.058 35.4892C205.927 35.7448 205.837 36.021 205.782 36.318C205.719 36.6151 205.685 36.9466 205.671 37.2988C205.657 37.6579 205.65 38.0585 205.65 38.5005C205.65 38.6178 205.65 38.7353 205.657 38.8459C205.657 39.1566 205.664 39.4398 205.671 39.7023C205.685 40.0545 205.72 40.386 205.782 40.6829C205.837 40.98 205.927 41.2562 206.058 41.5118C206.189 41.7604 206.376 42.0091 206.61 42.2438C206.935 42.5546 207.301 42.7963 207.715 42.9621C208.13 43.1348 208.613 43.2177 209.166 43.2177C209.718 43.2177 210.195 43.1348 210.602 42.9621C211.017 42.7963 211.383 42.5546 211.7 42.2438C211.942 42.009 212.122 41.7604 212.253 41.5118C212.384 41.2562 212.481 40.98 212.543 40.6829C212.605 40.3861 212.64 40.0545 212.654 39.7023C212.66 39.4398 212.667 39.1566 212.667 38.8459C212.674 38.7353 212.674 38.6179 212.674 38.5005C212.674 38.0585 212.667 37.6579 212.654 37.2988ZM210.809 38.8459C210.809 39.1359 210.803 39.3846 210.789 39.5987C210.775 39.8957 210.747 40.1305 210.713 40.317C210.678 40.5035 210.63 40.6555 210.575 40.7729C210.513 40.8902 210.443 41.0008 210.354 41.0906C210.216 41.2425 210.05 41.3668 209.849 41.4567C209.649 41.5533 209.421 41.6017 209.166 41.6017C208.903 41.6017 208.675 41.5534 208.475 41.4567C208.275 41.3668 208.102 41.2425 207.964 41.0906C207.874 41.0008 207.798 40.8903 207.743 40.7729C207.681 40.6555 207.639 40.5035 207.598 40.317C207.563 40.1306 207.543 39.8958 207.529 39.5987C207.522 39.3846 207.515 39.1359 207.515 38.8459C207.508 38.7353 207.508 38.6179 207.508 38.5005C207.508 38.0585 207.515 37.6924 207.529 37.4023C207.543 37.1054 207.563 36.8706 207.598 36.6772C207.639 36.4838 207.681 36.3319 207.743 36.2145C207.798 36.0971 207.874 35.9866 207.964 35.8968C208.102 35.7448 208.275 35.6274 208.475 35.5376C208.675 35.4479 208.903 35.3996 209.166 35.3996C209.421 35.3996 209.649 35.4479 209.849 35.5376C210.05 35.6274 210.216 35.7448 210.354 35.8968C210.443 35.9865 210.512 36.0971 210.575 36.2145C210.63 36.3319 210.678 36.4838 210.713 36.6772C210.747 36.8706 210.775 37.1055 210.789 37.4023C210.809 37.6924 210.816 38.0585 210.816 38.5005C210.816 38.6178 210.816 38.7353 210.809 38.8459Z" fill="white"/>
<path d="M221.175 35.6412C221.037 35.289 220.83 34.9781 220.56 34.7158C220.298 34.4464 219.966 34.2392 219.573 34.0872C219.186 33.9352 218.744 33.8594 218.253 33.8594H214.572V43.1417H216.423V39.6469H218.253C218.744 39.6469 219.186 39.571 219.573 39.4191C219.966 39.2671 220.298 39.0599 220.56 38.7905C220.83 38.5282 221.037 38.2173 221.175 37.8651C221.279 37.6234 221.341 37.3678 221.368 37.0985C221.382 36.988 221.389 36.8706 221.389 36.7531C221.389 36.3663 221.32 35.9934 221.175 35.6412ZM219.497 37.0985C219.448 37.3264 219.331 37.5197 219.165 37.6718C218.923 37.9065 218.585 38.0171 218.157 38.0171H216.423V35.4755H218.157C218.585 35.4755 218.923 35.5929 219.165 35.8277C219.414 36.0625 219.538 36.3733 219.538 36.7531C219.538 36.8774 219.524 36.9948 219.497 37.0985Z" fill="white"/>
<path opacity="0.1" d="M196.591 17L184 29.5906V47.4093L196.591 60H205.5V17H196.591Z" fill="white"/>
<rect x="27" y="42" width="36" height="25" fill="white"/>
<path d="M18.0338 50.0472C17.9298 50.0472 17.9036 49.9951 17.9557 49.917L18.5023 49.2142C18.5377 49.173 18.5816 49.1399 18.631 49.1175C18.6805 49.095 18.7342 49.0835 18.7885 49.084H28.0797C28.1838 49.084 28.2099 49.1621 28.1578 49.2402L27.7155 49.9168C27.6529 50.0013 27.5592 50.0575 27.4552 50.073L18.0338 50.0472Z" fill="#0061FF"/>
<path d="M14.1041 52.4409C14.0001 52.4409 13.9739 52.3888 14.026 52.3107L14.5726 51.6079C14.608 51.5667 14.6519 51.5337 14.7013 51.5112C14.7508 51.4887 14.8045 51.4773 14.8588 51.4777H26.7267C26.7469 51.4749 26.7674 51.4773 26.7864 51.4846C26.8054 51.4919 26.8222 51.504 26.8353 51.5196C26.8483 51.5352 26.8571 51.5539 26.8609 51.5739C26.8647 51.5939 26.8633 51.6146 26.8569 51.6339L26.6486 52.2591C26.6328 52.3077 26.601 52.3495 26.5584 52.3779C26.5159 52.4062 26.465 52.4194 26.414 52.4153L14.1041 52.4409Z" fill="#0061FF"/>
<path d="M20.401 54.8351C20.2969 54.8351 20.2708 54.757 20.3229 54.6789L20.6872 54.0282C20.7158 53.9841 20.7541 53.9471 20.7992 53.92C20.8443 53.893 20.895 53.8766 20.9474 53.8721H26.1527C26.2568 53.8721 26.3089 53.9502 26.3089 54.0542L26.2568 54.6789C26.2536 54.7262 26.2334 54.7707 26.1999 54.8042C26.1664 54.8377 26.1219 54.8579 26.0746 54.861L20.401 54.8351Z" fill="#0061FF"/>
<path d="M47.4186 49.5783C45.779 49.9947 44.6598 50.3071 43.0463 50.7235C42.6559 50.8276 42.6299 50.8537 42.2923 50.4633C41.9019 50.0209 41.6157 49.7345 41.0691 49.4746C39.4294 48.6678 37.8419 48.9021 36.3584 49.8651C34.5888 51.0102 33.6774 52.7018 33.7038 54.8099C33.7298 56.8919 35.1617 58.6097 37.2174 58.896C38.987 59.1306 40.4705 58.5056 41.6411 57.1783C41.8757 56.8921 42.0835 56.5798 42.3439 56.2153H37.3206C36.774 56.2153 36.644 55.877 36.8261 55.4346C37.1644 54.6278 37.7891 53.2745 38.1534 52.5979C38.2093 52.4725 38.3008 52.3663 38.4164 52.2923C38.532 52.2183 38.6668 52.1798 38.8041 52.1815H48.2774C48.2253 52.8843 48.2253 53.5869 48.1213 54.2896C47.8516 56.1428 47.1174 57.8976 45.9871 59.3907C44.1132 61.8626 41.6668 63.398 38.5698 63.8144C36.0193 64.1528 33.6509 63.6583 31.5689 62.0967C30.6435 61.4194 29.871 60.5549 29.3016 59.5595C28.7321 58.5641 28.3785 57.46 28.2636 56.319C27.9253 53.4823 28.7581 50.9318 30.4755 48.6934C32.3236 46.2731 34.7701 44.7377 37.7625 44.1911C40.2089 43.7487 42.5512 44.0349 44.6593 45.4663C46.0075 46.3628 47.0585 47.6403 47.6784 49.136C47.835 49.3702 47.7308 49.5004 47.4186 49.5783Z" fill="#0061FF"/>
<path d="M56.0331 63.9702C53.6647 63.9181 51.5046 63.2415 49.6823 61.6799C48.1666 60.4025 47.1675 58.6171 46.8716 56.657C46.4024 53.716 47.2099 51.1135 48.9797 48.7973C50.8796 46.2989 53.1699 44.9975 56.2668 44.4509C58.9214 43.9818 61.42 44.2427 63.6842 45.7782C65.7402 47.1836 67.0154 49.0835 67.3539 51.5819C67.7962 55.0954 66.7813 57.9581 64.361 60.4046C62.6641 62.1216 60.486 63.2832 58.1148 63.7358C57.4125 63.8662 56.7099 63.8922 56.0331 63.9702ZM62.2272 53.456C62.2177 53.1684 62.1916 52.8817 62.1491 52.5972C61.6799 50.0207 59.3124 48.5632 56.8399 49.1358C54.4196 49.6824 52.858 51.2178 52.2855 53.6642C52.0489 54.6347 52.1587 55.6573 52.5958 56.5554C53.033 57.4535 53.7701 58.1707 54.6798 58.5831C56.1112 59.2078 57.5427 59.1298 58.9221 58.427C60.978 57.3597 62.0971 55.6941 62.2272 53.456Z" fill="#0061FF"/>
</svg>
