<svg width="423" height="166" viewBox="0 0 423 166" fill="none" xmlns="http://www.w3.org/2000/svg">
<path d="M5.52273 14.1918C4.51705 14.1918 3.65199 13.9787 2.92756 13.5526C2.20739 13.1222 1.65341 12.5256 1.26562 11.7628C0.882102 11 0.690341 10.1222 0.690341 9.12926C0.690341 8.12358 0.884233 7.24148 1.27202 6.48295C1.66406 5.72017 2.22017 5.12571 2.94034 4.69957C3.66051 4.26918 4.51705 4.05398 5.50994 4.05398C6.36648 4.05398 7.11648 4.20952 7.75994 4.5206C8.40341 4.83168 8.91264 5.26847 9.28764 5.83097C9.66264 6.39347 9.86932 7.05398 9.90767 7.8125H7.33807C7.26563 7.32244 7.07386 6.92827 6.76278 6.62997C6.45597 6.32741 6.05327 6.17614 5.55469 6.17614C5.13281 6.17614 4.7642 6.29119 4.44886 6.52131C4.13778 6.74716 3.89489 7.07741 3.72017 7.51207C3.54545 7.94673 3.4581 8.47301 3.4581 9.09091C3.4581 9.71733 3.54332 10.25 3.71378 10.6889C3.88849 11.1278 4.13352 11.4624 4.44886 11.6925C4.7642 11.9226 5.13281 12.0376 5.55469 12.0376C5.86577 12.0376 6.14489 11.9737 6.39205 11.8459C6.64347 11.718 6.85014 11.5327 7.01207 11.2898C7.17827 11.0426 7.28693 10.7464 7.33807 10.4013H9.90767C9.86506 11.1513 9.66051 11.8118 9.29403 12.3828C8.93182 12.9496 8.43111 13.3928 7.7919 13.7124C7.1527 14.032 6.39631 14.1918 5.52273 14.1918ZM14.1941 0.909091V14H11.4711V0.909091H14.1941ZM18.9951 14.1854C18.3687 14.1854 17.8105 14.0767 17.3204 13.8594C16.8303 13.6378 16.4426 13.3118 16.157 12.8814C15.8758 12.4467 15.7352 11.9055 15.7352 11.2578C15.7352 10.7124 15.8353 10.2543 16.0356 9.88352C16.2359 9.51278 16.5086 9.21449 16.8538 8.98864C17.1989 8.76278 17.591 8.59233 18.0299 8.47727C18.4731 8.36222 18.9376 8.28125 19.4234 8.23438C19.9944 8.17472 20.4546 8.11932 20.8041 8.06818C21.1535 8.01278 21.407 7.93182 21.5647 7.82528C21.7224 7.71875 21.8012 7.56108 21.8012 7.35227V7.31392C21.8012 6.90909 21.6734 6.59588 21.4177 6.37429C21.1663 6.1527 20.8083 6.0419 20.3438 6.0419C19.8538 6.0419 19.4639 6.15057 19.1741 6.3679C18.8843 6.58097 18.6926 6.84943 18.5988 7.1733L16.0803 6.96875C16.2082 6.37216 16.4596 5.85653 16.8346 5.42188C17.2096 4.98295 17.6933 4.64631 18.2856 4.41193C18.8822 4.1733 19.5725 4.05398 20.3566 4.05398C20.9021 4.05398 21.4241 4.1179 21.9227 4.24574C22.4255 4.37358 22.8708 4.57173 23.2586 4.8402C23.6507 5.10866 23.9596 5.45384 24.1855 5.87571C24.4113 6.29332 24.5242 6.79403 24.5242 7.37784V14H21.9418V12.6385H21.8651C21.7075 12.9453 21.4965 13.2159 21.2323 13.4503C20.9681 13.6804 20.6507 13.8615 20.2799 13.9936C19.9092 14.1214 19.4809 14.1854 18.9951 14.1854ZM19.7749 12.3061C20.1755 12.3061 20.5292 12.2273 20.836 12.0696C21.1428 11.9077 21.3836 11.6903 21.5583 11.4176C21.733 11.1449 21.8204 10.8359 21.8204 10.4908V9.44886C21.7352 9.50426 21.618 9.5554 21.4688 9.60227C21.3239 9.64489 21.1599 9.68537 20.9766 9.72372C20.7934 9.75781 20.6102 9.78977 20.4269 9.8196C20.2437 9.84517 20.0775 9.86861 19.9284 9.88991C19.6088 9.93679 19.3296 10.0114 19.091 10.1136C18.8524 10.2159 18.667 10.3544 18.5349 10.5291C18.4028 10.6996 18.3367 10.9126 18.3367 11.1683C18.3367 11.5391 18.471 11.8224 18.7394 12.0185C19.0122 12.2102 19.3573 12.3061 19.7749 12.3061ZM34.6258 6.98153L32.1329 7.13494C32.0903 6.92187 31.9987 6.73011 31.8581 6.55966C31.7175 6.38494 31.5321 6.24645 31.302 6.14418C31.0761 6.03764 30.8055 5.98438 30.4902 5.98438C30.0683 5.98438 29.7125 6.07386 29.4227 6.25284C29.1329 6.42756 28.9881 6.66193 28.9881 6.95597C28.9881 7.19034 29.0818 7.38849 29.2693 7.55043C29.4568 7.71236 29.7785 7.84233 30.2345 7.94034L32.0115 8.2983C32.966 8.49432 33.6777 8.80966 34.1464 9.24432C34.6152 9.67898 34.8496 10.25 34.8496 10.9574C34.8496 11.6009 34.6599 12.1655 34.2807 12.6513C33.9057 13.1371 33.39 13.5163 32.7338 13.7891C32.0818 14.0575 31.3297 14.1918 30.4774 14.1918C29.1777 14.1918 28.1422 13.9212 27.3709 13.38C26.6038 12.8345 26.1542 12.093 26.0221 11.1555L28.7004 11.0149C28.7814 11.4112 28.9774 11.7138 29.2885 11.9226C29.5996 12.1271 29.998 12.2294 30.4838 12.2294C30.9611 12.2294 31.3446 12.1378 31.6344 11.9545C31.9284 11.767 32.0775 11.5263 32.0818 11.2322C32.0775 10.9851 31.9731 10.7827 31.7686 10.625C31.564 10.4631 31.2487 10.3395 30.8226 10.2543L29.1223 9.91548C28.1635 9.72372 27.4497 9.39134 26.981 8.91832C26.5165 8.44531 26.2842 7.84233 26.2842 7.10938C26.2842 6.47869 26.4547 5.93537 26.7956 5.4794C27.1408 5.02344 27.6244 4.67188 28.2466 4.42472C28.873 4.17756 29.606 4.05398 30.4454 4.05398C31.6855 4.05398 32.6613 4.31605 33.373 4.8402C34.0889 5.36435 34.5065 6.07812 34.6258 6.98153ZM44.5533 6.98153L42.0604 7.13494C42.0177 6.92187 41.9261 6.73011 41.7855 6.55966C41.6449 6.38494 41.4595 6.24645 41.2294 6.14418C41.0035 6.03764 40.7329 5.98438 40.4176 5.98438C39.9957 5.98438 39.6399 6.07386 39.3501 6.25284C39.0604 6.42756 38.9155 6.66193 38.9155 6.95597C38.9155 7.19034 39.0092 7.38849 39.1967 7.55043C39.3842 7.71236 39.706 7.84233 40.1619 7.94034L41.9389 8.2983C42.8935 8.49432 43.6051 8.80966 44.0739 9.24432C44.5426 9.67898 44.777 10.25 44.777 10.9574C44.777 11.6009 44.5874 12.1655 44.2081 12.6513C43.8331 13.1371 43.3175 13.5163 42.6612 13.7891C42.0092 14.0575 41.2571 14.1918 40.4048 14.1918C39.1051 14.1918 38.0696 13.9212 37.2983 13.38C36.5312 12.8345 36.0817 12.093 35.9496 11.1555L38.6278 11.0149C38.7088 11.4112 38.9048 11.7138 39.2159 11.9226C39.527 12.1271 39.9254 12.2294 40.4112 12.2294C40.8885 12.2294 41.272 12.1378 41.5618 11.9545C41.8558 11.767 42.005 11.5263 42.0092 11.2322C42.005 10.9851 41.9006 10.7827 41.696 10.625C41.4915 10.4631 41.1761 10.3395 40.75 10.2543L39.0497 9.91548C38.0909 9.72372 37.3771 9.39134 36.9084 8.91832C36.4439 8.44531 36.2116 7.84233 36.2116 7.10938C36.2116 6.47869 36.3821 5.93537 36.723 5.4794C37.0682 5.02344 37.5518 4.67188 38.174 4.42472C38.8004 4.17756 39.5334 4.05398 40.3729 4.05398C41.6129 4.05398 42.5888 4.31605 43.3004 4.8402C44.0163 5.36435 44.4339 6.07812 44.5533 6.98153ZM51.6927 14V0.909091H56.116C57.143 0.909091 57.9825 1.09446 58.6345 1.4652C59.2907 1.83168 59.7765 2.32812 60.0919 2.95455C60.4072 3.58097 60.5649 4.27983 60.5649 5.05114C60.5649 5.82244 60.4072 6.52344 60.0919 7.15412C59.7808 7.7848 59.2993 8.28764 58.6473 8.66264C57.9953 9.03338 57.1601 9.21875 56.1416 9.21875H52.9711V7.8125H56.0905C56.7936 7.8125 57.3582 7.69105 57.7843 7.44815C58.2105 7.20526 58.5194 6.87713 58.7112 6.46378C58.9072 6.04616 59.0052 5.57528 59.0052 5.05114C59.0052 4.52699 58.9072 4.05824 58.7112 3.64489C58.5194 3.23153 58.2084 2.90767 57.778 2.6733C57.3476 2.43466 56.7765 2.31534 56.0649 2.31534H53.278V14H51.6927ZM66.745 14.2045C65.799 14.2045 64.9829 13.9957 64.2968 13.5781C63.615 13.1562 63.0887 12.5682 62.718 11.8139C62.3515 11.0554 62.1683 10.1733 62.1683 9.16761C62.1683 8.16193 62.3515 7.27557 62.718 6.50852C63.0887 5.73722 63.6043 5.13636 64.2649 4.70597C64.9296 4.27131 65.7052 4.05398 66.5916 4.05398C67.1029 4.05398 67.6079 4.1392 68.1065 4.30966C68.6051 4.48011 69.0589 4.7571 69.468 5.14062C69.8771 5.51989 70.2031 6.02273 70.446 6.64915C70.6889 7.27557 70.8103 8.04687 70.8103 8.96307V9.60227H63.2421V8.2983H69.2762C69.2762 7.74432 69.1654 7.25 68.9438 6.81534C68.7265 6.38068 68.4154 6.03764 68.0106 5.78622C67.61 5.5348 67.137 5.40909 66.5916 5.40909C65.9907 5.40909 65.4708 5.55824 65.0319 5.85653C64.5972 6.15057 64.2627 6.53409 64.0284 7.0071C63.794 7.48011 63.6768 7.98722 63.6768 8.52841V9.39773C63.6768 10.1392 63.8046 10.7678 64.0603 11.2834C64.3203 11.7947 64.6803 12.1847 65.1406 12.4531C65.6008 12.7173 66.1356 12.8494 66.745 12.8494C67.1413 12.8494 67.4992 12.794 67.8188 12.6832C68.1427 12.5682 68.4218 12.3977 68.6562 12.1719C68.8906 11.9418 69.0717 11.6562 69.1995 11.3153L70.6569 11.7244C70.5035 12.2188 70.2457 12.6534 69.8835 13.0284C69.5213 13.3991 69.0738 13.6889 68.5411 13.8977C68.0085 14.1023 67.4097 14.2045 66.745 14.2045ZM74.4336 8.09375V14H72.9251V4.18182H74.3824V5.71591H74.5103C74.7404 5.21733 75.0898 4.81676 75.5586 4.5142C76.0273 4.20739 76.6324 4.05398 77.3739 4.05398C78.0387 4.05398 78.6204 4.19034 79.1189 4.46307C79.6175 4.73153 80.0053 5.14062 80.2823 5.69034C80.5593 6.2358 80.6978 6.92614 80.6978 7.76136V14H79.1893V7.86364C79.1893 7.09233 78.989 6.49148 78.5884 6.06108C78.1878 5.62642 77.6381 5.40909 76.9393 5.40909C76.4577 5.40909 76.0273 5.51349 75.6481 5.7223C75.2731 5.93111 74.9769 6.2358 74.7596 6.63636C74.5422 7.03693 74.4336 7.52273 74.4336 8.09375ZM87.263 14.2045C86.3425 14.2045 85.5499 13.9872 84.8851 13.5526C84.2204 13.1179 83.709 12.5192 83.3511 11.7564C82.9931 10.9936 82.8141 10.1222 82.8141 9.14205C82.8141 8.14489 82.9974 7.26491 83.3638 6.50213C83.7346 5.73509 84.2502 5.13636 84.9107 4.70597C85.5755 4.27131 86.3511 4.05398 87.2374 4.05398C87.9278 4.05398 88.5499 4.18182 89.1039 4.4375C89.6579 4.69318 90.1117 5.05114 90.4654 5.51136C90.8191 5.97159 91.0386 6.50852 91.1238 7.12216H89.6153C89.5002 6.67472 89.2445 6.27841 88.8482 5.93324C88.4562 5.58381 87.9278 5.40909 87.263 5.40909C86.6749 5.40909 86.1593 5.5625 85.7161 5.86932C85.2772 6.17187 84.9342 6.60014 84.687 7.15412C84.4441 7.70383 84.3226 8.34943 84.3226 9.09091C84.3226 9.84943 84.442 10.5099 84.6806 11.0724C84.9235 11.6349 85.2644 12.0717 85.7033 12.3828C86.1465 12.6939 86.6664 12.8494 87.263 12.8494C87.655 12.8494 88.0109 12.7812 88.3305 12.6449C88.6501 12.5085 88.9207 12.3125 89.1422 12.0568C89.3638 11.8011 89.5215 11.4943 89.6153 11.1364H91.1238C91.0386 11.7159 90.8276 12.2379 90.491 12.7024C90.1586 13.1626 89.7175 13.5291 89.1678 13.8018C88.6224 14.0703 87.9874 14.2045 87.263 14.2045ZM93.149 14V4.18182H94.6576V14H93.149ZM93.9161 2.54545C93.622 2.54545 93.3685 2.44531 93.1554 2.24503C92.9466 2.04474 92.8422 1.80398 92.8422 1.52273C92.8422 1.24148 92.9466 1.00071 93.1554 0.800426C93.3685 0.600142 93.622 0.5 93.9161 0.5C94.2101 0.5 94.4615 0.600142 94.6703 0.800426C94.8834 1.00071 94.9899 1.24148 94.9899 1.52273C94.9899 1.80398 94.8834 2.04474 94.6703 2.24503C94.4615 2.44531 94.2101 2.54545 93.9161 2.54545ZM98.749 0.909091V14H97.2405V0.909091H98.749ZM102.431 14.1023C102.116 14.1023 101.846 13.9893 101.62 13.7635C101.394 13.5376 101.281 13.267 101.281 12.9517C101.281 12.6364 101.394 12.3658 101.62 12.1399C101.846 11.9141 102.116 11.8011 102.431 11.8011C102.747 11.8011 103.017 11.9141 103.243 12.1399C103.469 12.3658 103.582 12.6364 103.582 12.9517C103.582 13.1605 103.529 13.3523 103.422 13.527C103.32 13.7017 103.181 13.8423 103.007 13.9489C102.836 14.0511 102.645 14.1023 102.431 14.1023ZM102.431 6.81534C102.116 6.81534 101.846 6.70241 101.62 6.47656C101.394 6.25071 101.281 5.98011 101.281 5.66477C101.281 5.34943 101.394 5.07884 101.62 4.85298C101.846 4.62713 102.116 4.5142 102.431 4.5142C102.747 4.5142 103.017 4.62713 103.243 4.85298C103.469 5.07884 103.582 5.34943 103.582 5.66477C103.582 5.87358 103.529 6.06534 103.422 6.24006C103.32 6.41477 103.181 6.5554 103.007 6.66193C102.836 6.7642 102.645 6.81534 102.431 6.81534ZM32.1842 30.9091V44H30.6757V30.9091H32.1842ZM38.8836 44.2045C37.9376 44.2045 37.1216 43.9957 36.4355 43.5781C35.7537 43.1562 35.2274 42.5682 34.8567 41.8139C34.4902 41.0554 34.3069 40.1733 34.3069 39.1676C34.3069 38.1619 34.4902 37.2756 34.8567 36.5085C35.2274 35.7372 35.743 35.1364 36.4035 34.706C37.0683 34.2713 37.8439 34.054 38.7302 34.054C39.2416 34.054 39.7466 34.1392 40.2452 34.3097C40.7437 34.4801 41.1976 34.7571 41.6067 35.1406C42.0157 35.5199 42.3417 36.0227 42.5846 36.6491C42.8275 37.2756 42.949 38.0469 42.949 38.9631V39.6023H35.3808V38.2983H41.4149C41.4149 37.7443 41.3041 37.25 41.0825 36.8153C40.8652 36.3807 40.5541 36.0376 40.1493 35.7862C39.7487 35.5348 39.2757 35.4091 38.7302 35.4091C38.1294 35.4091 37.6095 35.5582 37.1706 35.8565C36.7359 36.1506 36.4014 36.5341 36.167 37.0071C35.9327 37.4801 35.8155 37.9872 35.8155 38.5284V39.3977C35.8155 40.1392 35.9433 40.7678 36.199 41.2834C36.4589 41.7947 36.819 42.1847 37.2792 42.4531C37.7395 42.7173 38.2743 42.8494 38.8836 42.8494C39.28 42.8494 39.6379 42.794 39.9575 42.6832C40.2814 42.5682 40.5605 42.3977 40.7949 42.1719C41.0292 41.9418 41.2103 41.6562 41.3382 41.3153L42.7956 41.7244C42.6422 42.2188 42.3844 42.6534 42.0221 43.0284C41.6599 43.3991 41.2125 43.6889 40.6798 43.8977C40.1471 44.1023 39.5484 44.2045 38.8836 44.2045ZM46.5723 38.0938V44H45.0637V34.1818H46.5211V35.7159H46.649C46.8791 35.2173 47.2285 34.8168 47.6973 34.5142C48.166 34.2074 48.7711 34.054 49.5126 34.054C50.1774 34.054 50.759 34.1903 51.2576 34.4631C51.7562 34.7315 52.144 35.1406 52.421 35.6903C52.698 36.2358 52.8365 36.9261 52.8365 37.7614V44H51.3279V37.8636C51.3279 37.0923 51.1277 36.4915 50.7271 36.0611C50.3265 35.6264 49.7768 35.4091 49.0779 35.4091C48.5964 35.4091 48.166 35.5135 47.7867 35.7223C47.4117 35.9311 47.1156 36.2358 46.8982 36.6364C46.6809 37.0369 46.5723 37.5227 46.5723 38.0938ZM59.3761 47.8864C58.6474 47.8864 58.021 47.7926 57.4968 47.6051C56.9727 47.4219 56.5359 47.179 56.1865 46.8764C55.8413 46.5781 55.5664 46.2585 55.3619 45.9176L56.5636 45.0739C56.7 45.2528 56.8725 45.4574 57.0814 45.6875C57.2902 45.9219 57.5757 46.1243 57.9379 46.2947C58.3044 46.4695 58.7838 46.5568 59.3761 46.5568C60.1687 46.5568 60.8228 46.3651 61.3385 45.9815C61.8541 45.598 62.1119 44.9972 62.1119 44.179V42.1847H61.984C61.8733 42.3636 61.7156 42.5852 61.511 42.8494C61.3108 43.1094 61.021 43.3416 60.6417 43.5462C60.2667 43.7464 59.7596 43.8466 59.1204 43.8466C58.3278 43.8466 57.6162 43.6591 56.9855 43.2841C56.359 42.9091 55.8626 42.3636 55.4961 41.6477C55.1339 40.9318 54.9528 40.0625 54.9528 39.0398C54.9528 38.0341 55.1296 37.1584 55.4833 36.4126C55.837 35.6626 56.3292 35.0831 56.9599 34.674C57.5906 34.2607 58.3193 34.054 59.146 34.054C59.7852 34.054 60.2923 34.1605 60.6673 34.3736C61.0465 34.5824 61.3363 34.821 61.5366 35.0895C61.7412 35.3537 61.8988 35.571 62.0096 35.7415H62.163V34.1818H63.6204V44.2812C63.6204 45.125 63.4287 45.8111 63.0451 46.3395C62.6659 46.8722 62.1545 47.2621 61.511 47.5092C60.8718 47.7607 60.1602 47.8864 59.3761 47.8864ZM59.325 42.4915C59.9301 42.4915 60.4414 42.353 60.859 42.076C61.2767 41.799 61.5941 41.4006 61.8115 40.8807C62.0288 40.3608 62.1375 39.7386 62.1375 39.0142C62.1375 38.3068 62.0309 37.6825 61.8179 37.1413C61.6048 36.6001 61.2894 36.1761 60.8718 35.8693C60.4542 35.5625 59.9386 35.4091 59.325 35.4091C58.6858 35.4091 58.1531 35.571 57.7269 35.8949C57.3051 36.2187 56.9876 36.6534 56.7745 37.1989C56.5657 37.7443 56.4613 38.3494 56.4613 39.0142C56.4613 39.696 56.5679 40.299 56.7809 40.8232C56.9983 41.343 57.3179 41.7521 57.7397 42.0504C58.1659 42.3445 58.6943 42.4915 59.325 42.4915ZM70.4717 34.1818V35.4602H65.3836V34.1818H70.4717ZM66.8665 31.8295H68.3751V41.1875C68.3751 41.6136 68.4369 41.9332 68.5604 42.1463C68.6883 42.3551 68.8502 42.4957 69.0462 42.5682C69.2465 42.6364 69.4575 42.6705 69.679 42.6705C69.8452 42.6705 69.9816 42.6619 70.0881 42.6449C70.1947 42.6236 70.2799 42.6065 70.3438 42.5938L70.6506 43.9489C70.5484 43.9872 70.4056 44.0256 70.2224 44.0639C70.0391 44.1065 69.8069 44.1278 69.5256 44.1278C69.0995 44.1278 68.6819 44.0362 68.2728 43.853C67.868 43.6697 67.5313 43.3906 67.2629 43.0156C66.9986 42.6406 66.8665 42.1676 66.8665 41.5966V31.8295ZM74.2803 38.0938V44H72.7718V30.9091H74.2803V35.7159H74.4081C74.6382 35.2088 74.9834 34.8061 75.4436 34.5078C75.9081 34.2053 76.526 34.054 77.2973 34.054C77.9664 34.054 78.5523 34.1882 79.0552 34.4567C79.558 34.7209 79.9479 35.1278 80.2249 35.6776C80.5061 36.223 80.6468 36.9176 80.6468 37.7614V44H79.1382V37.8636C79.1382 37.0838 78.9358 36.4808 78.531 36.0547C78.1304 35.6243 77.5743 35.4091 76.8627 35.4091C76.3684 35.4091 75.9252 35.5135 75.5331 35.7223C75.1454 35.9311 74.8385 36.2358 74.6127 36.6364C74.3911 37.0369 74.2803 37.5227 74.2803 38.0938ZM88.7227 36.2528V34.8722H96.5977V36.2528H88.7227ZM88.7227 40.0369V38.6562H96.5977V40.0369H88.7227ZM109.253 30.9091V44H107.668V32.571H107.592L104.396 34.6932V33.0824L107.668 30.9091H109.253ZM116.929 44.179C116.179 44.179 115.504 44.0298 114.903 43.7315C114.302 43.4332 113.821 43.0241 113.458 42.5043C113.096 41.9844 112.898 41.392 112.864 40.7273H114.398C114.458 41.3196 114.726 41.8097 115.203 42.1974C115.685 42.581 116.26 42.7727 116.929 42.7727C117.466 42.7727 117.944 42.647 118.361 42.3956C118.783 42.1442 119.113 41.799 119.352 41.3601C119.595 40.9169 119.716 40.4162 119.716 39.858C119.716 39.2869 119.591 38.7777 119.339 38.3303C119.092 37.8786 118.751 37.5227 118.316 37.2628C117.882 37.0028 117.385 36.8707 116.827 36.8665C116.426 36.8622 116.015 36.924 115.593 37.0518C115.171 37.1754 114.824 37.3352 114.551 37.5312L113.069 37.3523L113.861 30.9091H120.662V32.3153H115.191L114.73 36.1761H114.807C115.076 35.9631 115.412 35.7862 115.817 35.6456C116.222 35.505 116.644 35.4347 117.083 35.4347C117.884 35.4347 118.598 35.6264 119.224 36.0099C119.855 36.3892 120.349 36.9091 120.707 37.5696C121.069 38.2301 121.25 38.9844 121.25 39.8324C121.25 40.6676 121.063 41.4134 120.688 42.0696C120.317 42.7216 119.806 43.2372 119.154 43.6165C118.502 43.9915 117.76 44.179 116.929 44.179ZM34.3831 74.2045C33.5649 74.2045 32.8426 73.9979 32.2162 73.5845C31.5897 73.1669 31.0997 72.5788 30.746 71.8203C30.3923 71.0575 30.2155 70.1562 30.2155 69.1165C30.2155 68.0852 30.3923 67.1903 30.746 66.4318C31.0997 65.6733 31.5919 65.0874 32.2226 64.674C32.8532 64.2607 33.5819 64.054 34.4086 64.054C35.0478 64.054 35.5528 64.1605 35.9236 64.3736C36.2986 64.5824 36.5841 64.821 36.7801 65.0895C36.9804 65.3537 37.1359 65.571 37.2467 65.7415H37.3745V60.9091H38.8831V74H37.4257V72.4915H37.2467C37.1359 72.6705 36.9782 72.8963 36.7737 73.169C36.5691 73.4375 36.2772 73.6783 35.898 73.8913C35.5187 74.1001 35.0138 74.2045 34.3831 74.2045ZM34.5876 72.8494C35.1927 72.8494 35.7041 72.6918 36.1217 72.3764C36.5393 72.0568 36.8568 71.6158 37.0741 71.0533C37.2914 70.4865 37.4001 69.8324 37.4001 69.0909C37.4001 68.358 37.2936 67.7166 37.0805 67.1669C36.8674 66.6129 36.5521 66.1825 36.1345 65.8757C35.7169 65.5646 35.2013 65.4091 34.5876 65.4091C33.9484 65.4091 33.4157 65.5732 32.9896 65.9013C32.5677 66.2251 32.2503 66.6662 32.0372 67.2244C31.8284 67.7784 31.724 68.4006 31.724 69.0909C31.724 69.7898 31.8305 70.4247 32.0436 70.9957C32.2609 71.5625 32.5805 72.0142 33.0024 72.3509C33.4285 72.6832 33.9569 72.8494 34.5876 72.8494ZM41.6754 74V64.1818H43.1839V74H41.6754ZM42.4424 62.5455C42.1484 62.5455 41.8948 62.4453 41.6818 62.245C41.473 62.0447 41.3686 61.804 41.3686 61.5227C41.3686 61.2415 41.473 61.0007 41.6818 60.8004C41.8948 60.6001 42.1484 60.5 42.4424 60.5C42.7365 60.5 42.9879 60.6001 43.1967 60.8004C43.4097 61.0007 43.5163 61.2415 43.5163 61.5227C43.5163 61.804 43.4097 62.0447 43.1967 62.245C42.9879 62.4453 42.7365 62.5455 42.4424 62.5455ZM48.6561 74.2301C48.0339 74.2301 47.4693 74.1129 46.9622 73.8786C46.4551 73.6399 46.0524 73.2969 45.7541 72.8494C45.4558 72.3977 45.3066 71.8523 45.3066 71.2131C45.3066 70.6506 45.4174 70.1946 45.639 69.8452C45.8606 69.4915 46.1568 69.2145 46.5275 69.0142C46.8982 68.8139 47.3073 68.6648 47.7548 68.5668C48.2065 68.4645 48.6603 68.3835 49.1163 68.3239C49.7129 68.2472 50.1965 68.1896 50.5673 68.1513C50.9423 68.1087 51.215 68.0384 51.3855 67.9403C51.5602 67.8423 51.6475 67.6719 51.6475 67.429V67.3778C51.6475 66.7472 51.475 66.2571 51.1298 65.9077C50.7889 65.5582 50.2711 65.3835 49.5765 65.3835C48.8563 65.3835 48.2917 65.5412 47.8826 65.8565C47.4735 66.1719 47.1859 66.5085 47.0197 66.8665L45.5879 66.3551C45.8436 65.7585 46.1845 65.294 46.6106 64.9616C47.041 64.625 47.5098 64.3906 48.0169 64.2585C48.5282 64.1222 49.0311 64.054 49.5254 64.054C49.8407 64.054 50.2029 64.0923 50.612 64.169C51.0254 64.2415 51.4238 64.3928 51.8073 64.6229C52.1951 64.853 52.5169 65.2003 52.7725 65.6648C53.0282 66.1293 53.1561 66.7514 53.1561 67.5312V74H51.6475V72.6705H51.5708C51.4686 72.8835 51.2981 73.1115 51.0595 73.3544C50.8208 73.5973 50.5034 73.804 50.1071 73.9744C49.7107 74.1449 49.2271 74.2301 48.6561 74.2301ZM48.8862 72.875C49.4828 72.875 49.9856 72.7578 50.3947 72.5234C50.808 72.2891 51.1191 71.9865 51.3279 71.6158C51.541 71.245 51.6475 70.8551 51.6475 70.446V69.0653C51.5836 69.142 51.443 69.2124 51.2257 69.2763C51.0126 69.3359 50.7654 69.3892 50.4842 69.4361C50.2072 69.4787 49.9366 69.517 49.6724 69.5511C49.4125 69.581 49.2015 69.6065 49.0396 69.6278C48.6475 69.679 48.2811 69.7621 47.9402 69.8771C47.6035 69.9879 47.3308 70.1562 47.122 70.3821C46.9174 70.6037 46.8152 70.9062 46.8152 71.2898C46.8152 71.8139 47.009 72.2102 47.3968 72.4787C47.7889 72.7429 48.2853 72.875 48.8862 72.875ZM55.7294 74V64.1818H57.1868V65.7159H57.3147C57.5192 65.1918 57.8495 64.7848 58.3054 64.495C58.7614 64.201 59.309 64.054 59.9482 64.054C60.5959 64.054 61.135 64.201 61.5654 64.495C62 64.7848 62.3388 65.1918 62.5817 65.7159H62.684C62.9354 65.2088 63.3125 64.8061 63.8154 64.5078C64.3182 64.2053 64.9212 64.054 65.6243 64.054C66.5022 64.054 67.2202 64.3288 67.7784 64.8786C68.3367 65.424 68.6158 66.2741 68.6158 67.429V74H67.1073V67.429C67.1073 66.7045 66.9091 66.1868 66.5128 65.8757C66.1165 65.5646 65.6499 65.4091 65.113 65.4091C64.4226 65.4091 63.8878 65.6179 63.5086 66.0355C63.1293 66.4489 62.9397 66.973 62.9397 67.608V74H61.4056V67.2756C61.4056 66.7173 61.2245 66.2678 60.8622 65.9268C60.5 65.5817 60.0334 65.4091 59.4624 65.4091C59.0703 65.4091 58.7039 65.5135 58.363 65.7223C58.0263 65.9311 57.7536 66.2209 57.5448 66.5916C57.3402 66.9581 57.238 67.3821 57.238 67.8636V74H55.7294ZM75.3104 74.2045C74.3644 74.2045 73.5484 73.9957 72.8623 73.5781C72.1805 73.1562 71.6542 72.5682 71.2834 71.8139C70.917 71.0554 70.7337 70.1733 70.7337 69.1676C70.7337 68.1619 70.917 67.2756 71.2834 66.5085C71.6542 65.7372 72.1698 65.1364 72.8303 64.706C73.4951 64.2713 74.2707 64.054 75.157 64.054C75.6684 64.054 76.1734 64.1392 76.6719 64.3097C77.1705 64.4801 77.6244 64.7571 78.0334 65.1406C78.4425 65.5199 78.7685 66.0227 79.0114 66.6491C79.2543 67.2756 79.3758 68.0469 79.3758 68.9631V69.6023H71.8076V68.2983H77.8417C77.8417 67.7443 77.7309 67.25 77.5093 66.8153C77.292 66.3807 76.9809 66.0376 76.5761 65.7862C76.1755 65.5348 75.7025 65.4091 75.157 65.4091C74.5562 65.4091 74.0363 65.5582 73.5974 65.8565C73.1627 66.1506 72.8282 66.5341 72.5938 67.0071C72.3594 67.4801 72.2423 67.9872 72.2423 68.5284V69.3977C72.2423 70.1392 72.3701 70.7678 72.6258 71.2834C72.8857 71.7947 73.2458 72.1847 73.706 72.4531C74.1663 72.7173 74.7011 72.8494 75.3104 72.8494C75.7067 72.8494 76.0647 72.794 76.3843 72.6832C76.7082 72.5682 76.9873 72.3977 77.2217 72.1719C77.456 71.9418 77.6371 71.6562 77.765 71.3153L79.2224 71.7244C79.069 72.2188 78.8111 72.6534 78.4489 73.0284C78.0867 73.3991 77.6393 73.6889 77.1066 73.8977C76.5739 74.1023 75.9752 74.2045 75.3104 74.2045ZM85.7604 64.1818V65.4602H80.6723V64.1818H85.7604ZM82.1553 61.8295H83.6638V71.1875C83.6638 71.6136 83.7256 71.9332 83.8492 72.1463C83.977 72.3551 84.139 72.4957 84.335 72.5682C84.5353 72.6364 84.7462 72.6705 84.9678 72.6705C85.134 72.6705 85.2704 72.6619 85.3769 72.6449C85.4834 72.6236 85.5686 72.6065 85.6326 72.5938L85.9394 73.9489C85.8371 73.9872 85.6944 74.0256 85.5111 74.0639C85.3279 74.1065 85.0956 74.1278 84.8144 74.1278C84.3882 74.1278 83.9706 74.0362 83.5615 73.853C83.1567 73.6697 82.8201 73.3906 82.5516 73.0156C82.2874 72.6406 82.1553 72.1676 82.1553 71.5966V61.8295ZM91.8606 74.2045C90.9146 74.2045 90.0985 73.9957 89.4124 73.5781C88.7306 73.1562 88.2043 72.5682 87.8336 71.8139C87.4671 71.0554 87.2839 70.1733 87.2839 69.1676C87.2839 68.1619 87.4671 67.2756 87.8336 66.5085C88.2043 65.7372 88.72 65.1364 89.3805 64.706C90.0453 64.2713 90.8208 64.054 91.7072 64.054C92.2185 64.054 92.7235 64.1392 93.2221 64.3097C93.7207 64.4801 94.1745 64.7571 94.5836 65.1406C94.9927 65.5199 95.3187 66.0227 95.5616 66.6491C95.8045 67.2756 95.9259 68.0469 95.9259 68.9631V69.6023H88.3578V68.2983H94.3918C94.3918 67.7443 94.281 67.25 94.0595 66.8153C93.8421 66.3807 93.531 66.0376 93.1262 65.7862C92.7257 65.5348 92.2526 65.4091 91.7072 65.4091C91.1063 65.4091 90.5864 65.5582 90.1475 65.8565C89.7129 66.1506 89.3783 66.5341 89.144 67.0071C88.9096 67.4801 88.7924 67.9872 88.7924 68.5284V69.3977C88.7924 70.1392 88.9203 70.7678 89.1759 71.2834C89.4359 71.7947 89.796 72.1847 90.2562 72.4531C90.7164 72.7173 91.2512 72.8494 91.8606 72.8494C92.2569 72.8494 92.6149 72.794 92.9345 72.6832C93.2583 72.5682 93.5374 72.3977 93.7718 72.1719C94.0062 71.9418 94.1873 71.6562 94.3151 71.3153L95.7725 71.7244C95.6191 72.2188 95.3613 72.6534 94.9991 73.0284C94.6369 73.3991 94.1894 73.6889 93.6568 73.8977C93.1241 74.1023 92.5254 74.2045 91.8606 74.2045ZM98.0407 74V64.1818H99.4981V65.6648H99.6003C99.7793 65.179 100.103 64.7848 100.572 64.4822C101.041 64.1797 101.569 64.0284 102.157 64.0284C102.268 64.0284 102.406 64.0305 102.573 64.0348C102.739 64.0391 102.865 64.0455 102.95 64.054V65.5881C102.899 65.5753 102.781 65.5561 102.598 65.5305C102.419 65.5007 102.23 65.4858 102.029 65.4858C101.552 65.4858 101.126 65.5859 100.751 65.7862C100.38 65.9822 100.086 66.255 99.8688 66.6044C99.6557 66.9496 99.5492 67.3437 99.5492 67.7869V74H98.0407ZM110.054 66.2528V64.8722H117.929V66.2528H110.054ZM110.054 70.0369V68.6562H117.929V70.0369H110.054ZM130.253 74.179C129.289 74.179 128.469 73.9169 127.792 73.3928C127.114 72.8643 126.596 72.0994 126.238 71.098C125.88 70.0923 125.701 68.8778 125.701 67.4545C125.701 66.0398 125.88 64.8317 126.238 63.8303C126.601 62.8246 127.12 62.0575 127.798 61.5291C128.48 60.9964 129.298 60.7301 130.253 60.7301C131.207 60.7301 132.023 60.9964 132.701 61.5291C133.382 62.0575 133.902 62.8246 134.26 63.8303C134.623 64.8317 134.804 66.0398 134.804 67.4545C134.804 68.8778 134.625 70.0923 134.267 71.098C133.909 72.0994 133.391 72.8643 132.713 73.3928C132.036 73.9169 131.216 74.179 130.253 74.179ZM130.253 72.7727C131.207 72.7727 131.949 72.3125 132.477 71.392C133.005 70.4716 133.27 69.1591 133.27 67.4545C133.27 66.321 133.148 65.3558 132.905 64.5589C132.667 63.7621 132.321 63.1548 131.87 62.7372C131.422 62.3196 130.883 62.1108 130.253 62.1108C129.306 62.1108 128.567 62.5774 128.034 63.5107C127.502 64.4396 127.235 65.7543 127.235 67.4545C127.235 68.5881 127.355 69.5511 127.593 70.3438C127.832 71.1364 128.175 71.7393 128.623 72.1527C129.074 72.5661 129.618 72.7727 130.253 72.7727ZM137.721 74.1023C137.405 74.1023 137.135 73.9893 136.909 73.7635C136.683 73.5376 136.57 73.267 136.57 72.9517C136.57 72.6364 136.683 72.3658 136.909 72.1399C137.135 71.9141 137.405 71.8011 137.721 71.8011C138.036 71.8011 138.307 71.9141 138.532 72.1399C138.758 72.3658 138.871 72.6364 138.871 72.9517C138.871 73.1605 138.818 73.3523 138.711 73.527C138.609 73.7017 138.471 73.8423 138.296 73.9489C138.125 74.0511 137.934 74.1023 137.721 74.1023ZM145.2 74.179C144.45 74.179 143.774 74.0298 143.174 73.7315C142.573 73.4332 142.091 73.0241 141.729 72.5043C141.367 71.9844 141.169 71.392 141.135 70.7273H142.669C142.728 71.3196 142.997 71.8097 143.474 72.1974C143.956 72.581 144.531 72.7727 145.2 72.7727C145.737 72.7727 146.214 72.647 146.632 72.3956C147.054 72.1442 147.384 71.799 147.622 71.3601C147.865 70.9169 147.987 70.4162 147.987 69.858C147.987 69.2869 147.861 68.7777 147.61 68.3303C147.362 67.8786 147.022 67.5227 146.587 67.2628C146.152 67.0028 145.656 66.8707 145.098 66.8665C144.697 66.8622 144.286 66.924 143.864 67.0518C143.442 67.1754 143.095 67.3352 142.822 67.5312L141.339 67.3523L142.132 60.9091H148.933V62.3153H143.461L143.001 66.1761H143.078C143.346 65.9631 143.683 65.7862 144.088 65.6456C144.492 65.505 144.914 65.4347 145.353 65.4347C146.154 65.4347 146.868 65.6264 147.495 66.0099C148.125 66.3892 148.62 66.9091 148.978 67.5696C149.34 68.2301 149.521 68.9844 149.521 69.8324C149.521 70.6676 149.333 71.4134 148.958 72.0696C148.588 72.7216 148.076 73.2372 147.424 73.6165C146.772 73.9915 146.031 74.179 145.2 74.179ZM1.38068 137.682V124.182H2.83807V125.741H3.01705C3.12784 125.571 3.28125 125.354 3.47727 125.089C3.67756 124.821 3.96307 124.582 4.33381 124.374C4.70881 124.161 5.21591 124.054 5.85511 124.054C6.68182 124.054 7.41051 124.261 8.04119 124.674C8.67188 125.087 9.16406 125.673 9.51776 126.432C9.87145 127.19 10.0483 128.085 10.0483 129.116C10.0483 130.156 9.87145 131.058 9.51776 131.82C9.16406 132.579 8.67401 133.167 8.04759 133.585C7.42117 133.998 6.69886 134.205 5.88068 134.205C5.25 134.205 4.74503 134.1 4.36577 133.891C3.98651 133.678 3.6946 133.437 3.49006 133.169C3.28551 132.896 3.12784 132.67 3.01705 132.491H2.8892V137.682H1.38068ZM2.86364 129.091C2.86364 129.832 2.9723 130.487 3.18963 131.053C3.40696 131.616 3.72443 132.057 4.14205 132.376C4.55966 132.692 5.07102 132.849 5.67614 132.849C6.30682 132.849 6.8331 132.683 7.25497 132.351C7.68111 132.014 8.00071 131.562 8.21378 130.996C8.43111 130.425 8.53977 129.79 8.53977 129.091C8.53977 128.401 8.43324 127.778 8.22017 127.224C8.01136 126.666 7.69389 126.225 7.26776 125.901C6.84588 125.573 6.31534 125.409 5.67614 125.409C5.0625 125.409 4.54688 125.565 4.12926 125.876C3.71165 126.183 3.39631 126.613 3.18324 127.167C2.97017 127.717 2.86364 128.358 2.86364 129.091ZM11.4494 134V124.182H12.9068V125.665H13.0091C13.1881 125.179 13.5119 124.785 13.9807 124.482C14.4494 124.18 14.9778 124.028 15.5659 124.028C15.6767 124.028 15.8152 124.031 15.9814 124.035C16.1476 124.039 16.2733 124.045 16.3585 124.054V125.588C16.3074 125.575 16.1902 125.556 16.007 125.531C15.828 125.501 15.6384 125.486 15.4381 125.486C14.9608 125.486 14.5347 125.586 14.1597 125.786C13.7889 125.982 13.4949 126.255 13.2776 126.604C13.0645 126.95 12.958 127.344 12.958 127.787V134H11.4494ZM17.2467 134V124.182H18.7552V134H17.2467ZM18.0137 122.545C17.7197 122.545 17.4662 122.445 17.2531 122.245C17.0443 122.045 16.9399 121.804 16.9399 121.523C16.9399 121.241 17.0443 121.001 17.2531 120.8C17.4662 120.6 17.7197 120.5 18.0137 120.5C18.3078 120.5 18.5592 120.6 18.768 120.8C18.9811 121.001 19.0876 121.241 19.0876 121.523C19.0876 121.804 18.9811 122.045 18.768 122.245C18.5592 122.445 18.3078 122.545 18.0137 122.545ZM22.1267 128.094V134H20.6182V124.182H22.0756V125.716H22.2034C22.4335 125.217 22.783 124.817 23.2517 124.514C23.7205 124.207 24.3256 124.054 25.067 124.054C25.7318 124.054 26.3135 124.19 26.8121 124.463C27.3107 124.732 27.6984 125.141 27.9754 125.69C28.2524 126.236 28.3909 126.926 28.3909 127.761V134H26.8824V127.864C26.8824 127.092 26.6821 126.491 26.2815 126.061C25.881 125.626 25.3312 125.409 24.6324 125.409C24.1509 125.409 23.7205 125.513 23.3412 125.722C22.9662 125.931 22.67 126.236 22.4527 126.636C22.2354 127.037 22.1267 127.523 22.1267 128.094ZM34.5174 124.182V125.46H29.4293V124.182H34.5174ZM30.9123 121.83H32.4208V131.188C32.4208 131.614 32.4826 131.933 32.6061 132.146C32.734 132.355 32.8959 132.496 33.0919 132.568C33.2922 132.636 33.5032 132.67 33.7248 132.67C33.8909 132.67 34.0273 132.662 34.1338 132.645C34.2404 132.624 34.3256 132.607 34.3895 132.594L34.6963 133.949C34.5941 133.987 34.4513 134.026 34.2681 134.064C34.0848 134.107 33.8526 134.128 33.5713 134.128C33.1452 134.128 32.7276 134.036 32.3185 133.853C31.9137 133.67 31.577 133.391 31.3086 133.016C31.0444 132.641 30.9123 132.168 30.9123 131.597V121.83ZM36.4235 128.477C36.4235 126.866 36.6323 125.386 37.0499 124.035C37.4718 122.68 38.0726 121.433 38.8525 120.295H40.182C39.8752 120.717 39.5875 121.237 39.3191 121.855C39.0549 122.469 38.8226 123.144 38.6223 123.881C38.4221 124.614 38.2644 125.373 38.1493 126.157C38.0385 126.941 37.9831 127.714 37.9831 128.477C37.9831 129.491 38.0811 130.521 38.2772 131.565C38.4732 132.609 38.7374 133.578 39.0698 134.473C39.4022 135.368 39.7729 136.097 40.182 136.659H38.8525C38.0726 135.521 37.4718 134.277 37.0499 132.926C36.6323 131.571 36.4235 130.088 36.4235 128.477ZM42.812 120.909V125.409H41.4058V120.909H42.812ZM46.0847 120.909V125.409H44.6785V120.909H46.0847ZM54.9111 121.67H59.8071V122.894H54.9111V121.67ZM54.9111 125.576H59.8071V126.8H54.9111V125.576ZM59.2671 119.15H60.7611V131.174H59.2671V119.15ZM50.3751 133.82H61.2111V135.044H50.3751V133.82ZM50.3751 129.932H51.8691V134.36H50.3751V129.932ZM51.8151 120.176C54.2091 120.176 56.0091 121.85 56.0091 124.244C56.0091 126.638 54.2091 128.312 51.8151 128.312C49.4211 128.312 47.6211 126.638 47.6211 124.244C47.6211 121.85 49.4211 120.176 51.8151 120.176ZM51.8151 121.49C50.2311 121.49 49.0611 122.642 49.0611 124.244C49.0611 125.864 50.2311 127.016 51.8151 127.016C53.3991 127.016 54.5871 125.864 54.5871 124.244C54.5871 122.642 53.3991 121.49 51.8151 121.49ZM74.8897 119.132H76.4017V127.556H74.8897V119.132ZM65.7817 128.348H76.4017V132.272H67.2937V134.72H65.8357V131.156H74.9077V129.536H65.7817V128.348ZM65.8357 134.036H76.9957V135.224H65.8357V134.036ZM63.7657 120.23H72.4957V121.418H63.7657V120.23ZM63.4777 127.016L63.3157 125.774C66.2137 125.774 70.1017 125.702 73.2697 125.306L73.3597 126.404C70.1197 126.89 66.3397 126.998 63.4777 127.016ZM65.3677 120.77H66.8077V126.314H65.3677V120.77ZM69.4357 120.77H70.8937V126.314H69.4357V120.77ZM86.9348 127.952H88.4288V132.596H86.9348V127.952ZM91.9568 127.952H93.4328V132.596H91.9568V127.952ZM82.8668 132.2H97.6088V133.442H82.8668V132.2ZM84.1448 120.626H96.2228V121.85H84.1448V120.626ZM84.1808 127.142H96.2048V128.348H84.1808V127.142ZM86.6828 121.616H88.1768V127.394H86.6828V121.616ZM92.2268 121.616H93.7028V127.394H92.2268V121.616ZM104.897 120.662H106.229V121.148C106.229 123.902 103.295 125.828 99.9654 126.332L99.4074 125.126C102.287 124.748 104.897 123.128 104.897 121.148V120.662ZM105.527 120.662H106.841V121.148C106.841 123.128 109.469 124.748 112.349 125.126L111.773 126.332C108.461 125.828 105.527 123.902 105.527 121.148V120.662ZM99.8574 119.942H111.899V121.148H99.8574V119.942ZM98.5074 127.502H113.249V128.726H98.5074V127.502ZM105.239 128.258H106.733V132.002H105.239V128.258ZM100.379 133.82H111.611V135.044H100.379V133.82ZM100.379 130.436H101.855V134.288H100.379V130.436ZM120.2 120.176H130.37V121.4H120.2V120.176ZM118.346 127.268H133.052V128.492H118.346V127.268ZM122.126 128.024H123.62V135.404H122.126V128.024ZM129.56 120.176H131.036V121.382C131.036 122.912 131.036 124.874 130.478 127.664L129.002 127.52C129.56 124.82 129.56 122.876 129.56 121.382V120.176ZM127.688 128.024H129.182V135.404H127.688V128.024ZM140.935 120.23H142.501C142.501 124.37 139.567 127.322 134.833 128.618L134.239 127.448C138.415 126.296 140.935 123.902 140.935 120.878V120.23ZM135.067 120.23H141.853V121.436H135.067V120.23ZM136.525 129.572H147.379V135.368H145.885V130.778H136.525V129.572ZM145.885 119.132H147.379V128.834H145.885V119.132ZM141.835 122.03H146.191V123.254H141.835V122.03ZM141.673 125.486H146.083V126.71H141.673V125.486ZM151.244 134.102C150.928 134.102 150.658 133.989 150.432 133.763C150.206 133.538 150.093 133.267 150.093 132.952C150.093 132.636 150.206 132.366 150.432 132.14C150.658 131.914 150.928 131.801 151.244 131.801C151.559 131.801 151.83 131.914 152.056 132.14C152.281 132.366 152.394 132.636 152.394 132.952C152.394 133.161 152.341 133.352 152.235 133.527C152.132 133.702 151.994 133.842 151.819 133.949C151.649 134.051 151.457 134.102 151.244 134.102ZM151.244 126.815C150.928 126.815 150.658 126.702 150.432 126.477C150.206 126.251 150.093 125.98 150.093 125.665C150.093 125.349 150.206 125.079 150.432 124.853C150.658 124.627 150.928 124.514 151.244 124.514C151.559 124.514 151.83 124.627 152.056 124.853C152.281 125.079 152.394 125.349 152.394 125.665C152.394 125.874 152.341 126.065 152.235 126.24C152.132 126.415 151.994 126.555 151.819 126.662C151.649 126.764 151.457 126.815 151.244 126.815ZM155.505 120.909V125.409H154.099V120.909H155.505ZM158.778 120.909V125.409H157.372V120.909H158.778ZM161.335 132.21L161.232 132.901C161.16 133.386 161.049 133.906 160.9 134.46C160.755 135.014 160.604 135.536 160.446 136.026C160.288 136.516 160.158 136.906 160.056 137.196H158.906C158.961 136.923 159.033 136.563 159.123 136.116C159.212 135.668 159.302 135.168 159.391 134.614C159.485 134.064 159.562 133.501 159.622 132.926L159.698 132.21H161.335ZM167.597 134V120.909H172.02C173.047 120.909 173.886 121.094 174.538 121.465C175.195 121.832 175.68 122.328 175.996 122.955C176.311 123.581 176.469 124.28 176.469 125.051C176.469 125.822 176.311 126.523 175.996 127.154C175.685 127.785 175.203 128.288 174.551 128.663C173.899 129.033 173.064 129.219 172.045 129.219H168.875V127.812H171.994C172.697 127.812 173.262 127.691 173.688 127.448C174.114 127.205 174.423 126.877 174.615 126.464C174.811 126.046 174.909 125.575 174.909 125.051C174.909 124.527 174.811 124.058 174.615 123.645C174.423 123.232 174.112 122.908 173.682 122.673C173.251 122.435 172.68 122.315 171.969 122.315H169.182V134H167.597ZM181.929 134.205C180.983 134.205 180.167 133.996 179.481 133.578C178.799 133.156 178.273 132.568 177.902 131.814C177.535 131.055 177.352 130.173 177.352 129.168C177.352 128.162 177.535 127.276 177.902 126.509C178.273 125.737 178.788 125.136 179.449 124.706C180.113 124.271 180.889 124.054 181.775 124.054C182.287 124.054 182.792 124.139 183.29 124.31C183.789 124.48 184.243 124.757 184.652 125.141C185.061 125.52 185.387 126.023 185.63 126.649C185.873 127.276 185.994 128.047 185.994 128.963V129.602H178.426V128.298H184.46C184.46 127.744 184.349 127.25 184.128 126.815C183.91 126.381 183.599 126.038 183.194 125.786C182.794 125.535 182.321 125.409 181.775 125.409C181.175 125.409 180.655 125.558 180.216 125.857C179.781 126.151 179.447 126.534 179.212 127.007C178.978 127.48 178.861 127.987 178.861 128.528V129.398C178.861 130.139 178.988 130.768 179.244 131.283C179.504 131.795 179.864 132.185 180.324 132.453C180.785 132.717 181.319 132.849 181.929 132.849C182.325 132.849 182.683 132.794 183.003 132.683C183.327 132.568 183.606 132.398 183.84 132.172C184.074 131.942 184.256 131.656 184.383 131.315L185.841 131.724C185.687 132.219 185.43 132.653 185.067 133.028C184.705 133.399 184.258 133.689 183.725 133.898C183.192 134.102 182.594 134.205 181.929 134.205ZM188.897 128.094V134H187.389V124.182H188.846V125.716H188.974C189.204 125.217 189.554 124.817 190.022 124.514C190.491 124.207 191.096 124.054 191.838 124.054C192.503 124.054 193.084 124.19 193.583 124.463C194.081 124.732 194.469 125.141 194.746 125.69C195.023 126.236 195.162 126.926 195.162 127.761V134H193.653V127.864C193.653 127.092 193.453 126.491 193.052 126.061C192.652 125.626 192.102 125.409 191.403 125.409C190.922 125.409 190.491 125.513 190.112 125.722C189.737 125.931 189.441 126.236 189.223 126.636C189.006 127.037 188.897 127.523 188.897 128.094ZM201.007 134.205C200.086 134.205 199.294 133.987 198.629 133.553C197.964 133.118 197.453 132.519 197.095 131.756C196.737 130.994 196.558 130.122 196.558 129.142C196.558 128.145 196.741 127.265 197.108 126.502C197.478 125.735 197.994 125.136 198.655 124.706C199.319 124.271 200.095 124.054 200.981 124.054C201.672 124.054 202.294 124.182 202.848 124.438C203.402 124.693 203.856 125.051 204.209 125.511C204.563 125.972 204.782 126.509 204.868 127.122H203.359C203.244 126.675 202.988 126.278 202.592 125.933C202.2 125.584 201.672 125.409 201.007 125.409C200.419 125.409 199.903 125.562 199.46 125.869C199.021 126.172 198.678 126.6 198.431 127.154C198.188 127.704 198.066 128.349 198.066 129.091C198.066 129.849 198.186 130.51 198.424 131.072C198.667 131.635 199.008 132.072 199.447 132.383C199.89 132.694 200.41 132.849 201.007 132.849C201.399 132.849 201.755 132.781 202.074 132.645C202.394 132.509 202.664 132.312 202.886 132.057C203.108 131.801 203.265 131.494 203.359 131.136H204.868C204.782 131.716 204.571 132.238 204.235 132.702C203.902 133.163 203.461 133.529 202.912 133.802C202.366 134.07 201.731 134.205 201.007 134.205ZM206.173 134V124.182H207.681V134H206.173ZM206.94 122.545C206.646 122.545 206.392 122.445 206.179 122.245C205.97 122.045 205.866 121.804 205.866 121.523C205.866 121.241 205.97 121.001 206.179 120.8C206.392 120.6 206.646 120.5 206.94 120.5C207.234 120.5 207.485 120.6 207.694 120.8C207.907 121.001 208.014 121.241 208.014 121.523C208.014 121.804 207.907 122.045 207.694 122.245C207.485 122.445 207.234 122.545 206.94 122.545ZM211.053 120.909V134H209.544V120.909H211.053ZM214.015 134.102C213.7 134.102 213.429 133.989 213.203 133.763C212.978 133.538 212.865 133.267 212.865 132.952C212.865 132.636 212.978 132.366 213.203 132.14C213.429 131.914 213.7 131.801 214.015 131.801C214.331 131.801 214.601 131.914 214.827 132.14C215.053 132.366 215.166 132.636 215.166 132.952C215.166 133.161 215.113 133.352 215.006 133.527C214.904 133.702 214.765 133.842 214.591 133.949C214.42 134.051 214.228 134.102 214.015 134.102ZM218.481 120.909V134H216.973V120.909H218.481ZM224.461 134.205C223.515 134.205 222.699 133.996 222.013 133.578C221.331 133.156 220.805 132.568 220.434 131.814C220.067 131.055 219.884 130.173 219.884 129.168C219.884 128.162 220.067 127.276 220.434 126.509C220.805 125.737 221.32 125.136 221.981 124.706C222.645 124.271 223.421 124.054 224.307 124.054C224.819 124.054 225.324 124.139 225.822 124.31C226.321 124.48 226.775 124.757 227.184 125.141C227.593 125.52 227.919 126.023 228.162 126.649C228.405 127.276 228.526 128.047 228.526 128.963V129.602H220.958V128.298H226.992C226.992 127.744 226.881 127.25 226.66 126.815C226.442 126.381 226.131 126.038 225.726 125.786C225.326 125.535 224.853 125.409 224.307 125.409C223.707 125.409 223.187 125.558 222.748 125.857C222.313 126.151 221.979 126.534 221.744 127.007C221.51 127.48 221.393 127.987 221.393 128.528V129.398C221.393 130.139 221.52 130.768 221.776 131.283C222.036 131.795 222.396 132.185 222.856 132.453C223.317 132.717 223.851 132.849 224.461 132.849C224.857 132.849 225.215 132.794 225.535 132.683C225.859 132.568 226.138 132.398 226.372 132.172C226.606 131.942 226.788 131.656 226.915 131.315L228.373 131.724C228.219 132.219 227.962 132.653 227.599 133.028C227.237 133.399 226.79 133.689 226.257 133.898C225.724 134.102 225.126 134.205 224.461 134.205ZM231.429 128.094V134H229.921V124.182H231.378V125.716H231.506C231.736 125.217 232.086 124.817 232.554 124.514C233.023 124.207 233.628 124.054 234.37 124.054C235.035 124.054 235.616 124.19 236.115 124.463C236.613 124.732 237.001 125.141 237.278 125.69C237.555 126.236 237.694 126.926 237.694 127.761V134H236.185V127.864C236.185 127.092 235.985 126.491 235.584 126.061C235.184 125.626 234.634 125.409 233.935 125.409C233.454 125.409 233.023 125.513 232.644 125.722C232.269 125.931 231.973 126.236 231.755 126.636C231.538 127.037 231.429 127.523 231.429 128.094ZM243.513 137.886C242.785 137.886 242.158 137.793 241.634 137.605C241.11 137.422 240.673 137.179 240.324 136.876C239.978 136.578 239.704 136.259 239.499 135.918L240.701 135.074C240.837 135.253 241.01 135.457 241.219 135.688C241.427 135.922 241.713 136.124 242.075 136.295C242.442 136.469 242.921 136.557 243.513 136.557C244.306 136.557 244.96 136.365 245.476 135.982C245.991 135.598 246.249 134.997 246.249 134.179V132.185H246.121C246.01 132.364 245.853 132.585 245.648 132.849C245.448 133.109 245.158 133.342 244.779 133.546C244.404 133.746 243.897 133.847 243.258 133.847C242.465 133.847 241.753 133.659 241.123 133.284C240.496 132.909 240 132.364 239.633 131.648C239.271 130.932 239.09 130.062 239.09 129.04C239.09 128.034 239.267 127.158 239.621 126.413C239.974 125.663 240.466 125.083 241.097 124.674C241.728 124.261 242.456 124.054 243.283 124.054C243.922 124.054 244.429 124.161 244.804 124.374C245.184 124.582 245.474 124.821 245.674 125.089C245.878 125.354 246.036 125.571 246.147 125.741H246.3V124.182H247.758V134.281C247.758 135.125 247.566 135.811 247.182 136.339C246.803 136.872 246.292 137.262 245.648 137.509C245.009 137.761 244.297 137.886 243.513 137.886ZM243.462 132.491C244.067 132.491 244.579 132.353 244.996 132.076C245.414 131.799 245.731 131.401 245.949 130.881C246.166 130.361 246.275 129.739 246.275 129.014C246.275 128.307 246.168 127.683 245.955 127.141C245.742 126.6 245.427 126.176 245.009 125.869C244.591 125.562 244.076 125.409 243.462 125.409C242.823 125.409 242.29 125.571 241.864 125.895C241.442 126.219 241.125 126.653 240.912 127.199C240.703 127.744 240.599 128.349 240.599 129.014C240.599 129.696 240.705 130.299 240.918 130.823C241.135 131.343 241.455 131.752 241.877 132.05C242.303 132.344 242.831 132.491 243.462 132.491ZM253.889 124.182V125.46H248.801V124.182H253.889ZM250.284 121.83H251.792V131.188C251.792 131.614 251.854 131.933 251.978 132.146C252.105 132.355 252.267 132.496 252.463 132.568C252.664 132.636 252.875 132.67 253.096 132.67C253.262 132.67 253.399 132.662 253.505 132.645C253.612 132.624 253.697 132.607 253.761 132.594L254.068 133.949C253.966 133.987 253.823 134.026 253.64 134.064C253.456 134.107 253.224 134.128 252.943 134.128C252.517 134.128 252.099 134.036 251.69 133.853C251.285 133.67 250.949 133.391 250.68 133.016C250.416 132.641 250.284 132.168 250.284 131.597V121.83ZM256.977 128.094V134H255.469V120.909H256.977V125.716H257.105C257.335 125.209 257.681 124.806 258.141 124.508C258.605 124.205 259.223 124.054 259.995 124.054C260.664 124.054 261.25 124.188 261.752 124.457C262.255 124.721 262.645 125.128 262.922 125.678C263.203 126.223 263.344 126.918 263.344 127.761V134H261.835V127.864C261.835 127.084 261.633 126.481 261.228 126.055C260.828 125.624 260.272 125.409 259.56 125.409C259.066 125.409 258.622 125.513 258.23 125.722C257.843 125.931 257.536 126.236 257.31 126.636C257.088 127.037 256.977 127.523 256.977 128.094ZM267.454 132.21L267.351 132.901C267.279 133.386 267.168 133.906 267.019 134.46C266.874 135.014 266.723 135.536 266.565 136.026C266.408 136.516 266.278 136.906 266.175 137.196H265.025C265.08 136.923 265.153 136.563 265.242 136.116C265.332 135.668 265.421 135.168 265.511 134.614C265.604 134.064 265.681 133.501 265.741 132.926L265.817 132.21H267.454ZM274.815 120.909V125.409H273.409V120.909H274.815ZM278.088 120.909V125.409H276.682V120.909H278.088ZM282.377 128.273L282.479 125.46L280.101 126.969L279.487 125.895L281.993 124.591L279.487 123.287L280.101 122.213L282.479 123.722L282.377 120.909H283.604L283.502 123.722L285.879 122.213L286.493 123.287L283.987 124.591L286.493 125.895L285.879 126.969L283.502 125.46L283.604 128.273H282.377ZM289.275 120.909V125.409H287.869V120.909H289.275ZM292.548 120.909V125.409H291.141V120.909H292.548ZM295.104 132.21L295.002 132.901C294.929 133.386 294.819 133.906 294.669 134.46C294.525 135.014 294.373 135.536 294.216 136.026C294.058 136.516 293.928 136.906 293.826 137.196H292.675C292.731 136.923 292.803 136.563 292.892 136.116C292.982 135.668 293.071 135.168 293.161 134.614C293.255 134.064 293.331 133.501 293.391 132.926L293.468 132.21H295.104ZM301.366 134V120.909H305.789C306.816 120.909 307.656 121.094 308.308 121.465C308.964 121.832 309.45 122.328 309.765 122.955C310.081 123.581 310.238 124.28 310.238 125.051C310.238 125.822 310.081 126.523 309.765 127.154C309.454 127.785 308.973 128.288 308.321 128.663C307.669 129.033 306.833 129.219 305.815 129.219H302.644V127.812H305.764C306.467 127.812 307.032 127.691 307.458 127.448C307.884 127.205 308.193 126.877 308.385 126.464C308.581 126.046 308.679 125.575 308.679 125.051C308.679 124.527 308.581 124.058 308.385 123.645C308.193 123.232 307.882 122.908 307.451 122.673C307.021 122.435 306.45 122.315 305.738 122.315H302.951V134H301.366ZM315.698 134.205C314.752 134.205 313.936 133.996 313.25 133.578C312.568 133.156 312.042 132.568 311.671 131.814C311.305 131.055 311.122 130.173 311.122 129.168C311.122 128.162 311.305 127.276 311.671 126.509C312.042 125.737 312.558 125.136 313.218 124.706C313.883 124.271 314.659 124.054 315.545 124.054C316.056 124.054 316.561 124.139 317.06 124.31C317.558 124.48 318.012 124.757 318.421 125.141C318.83 125.52 319.156 126.023 319.399 126.649C319.642 127.276 319.764 128.047 319.764 128.963V129.602H312.195V128.298H318.23C318.23 127.744 318.119 127.25 317.897 126.815C317.68 126.381 317.369 126.038 316.964 125.786C316.563 125.535 316.09 125.409 315.545 125.409C314.944 125.409 314.424 125.558 313.985 125.857C313.551 126.151 313.216 126.534 312.982 127.007C312.747 127.48 312.63 127.987 312.63 128.528V129.398C312.63 130.139 312.758 130.768 313.014 131.283C313.274 131.795 313.634 132.185 314.094 132.453C314.554 132.717 315.089 132.849 315.698 132.849C316.095 132.849 316.453 132.794 316.772 132.683C317.096 132.568 317.375 132.398 317.61 132.172C317.844 131.942 318.025 131.656 318.153 131.315L319.61 131.724C319.457 132.219 319.199 132.653 318.837 133.028C318.475 133.399 318.027 133.689 317.494 133.898C316.962 134.102 316.363 134.205 315.698 134.205ZM322.667 128.094V134H321.158V124.182H322.616V125.716H322.744C322.974 125.217 323.323 124.817 323.792 124.514C324.261 124.207 324.866 124.054 325.607 124.054C326.272 124.054 326.854 124.19 327.352 124.463C327.851 124.732 328.239 125.141 328.516 125.69C328.793 126.236 328.931 126.926 328.931 127.761V134H327.423V127.864C327.423 127.092 327.222 126.491 326.822 126.061C326.421 125.626 325.871 125.409 325.173 125.409C324.691 125.409 324.261 125.513 323.881 125.722C323.506 125.931 323.21 126.236 322.993 126.636C322.776 127.037 322.667 127.523 322.667 128.094ZM334.776 134.205C333.856 134.205 333.063 133.987 332.399 133.553C331.734 133.118 331.222 132.519 330.864 131.756C330.506 130.994 330.327 130.122 330.327 129.142C330.327 128.145 330.511 127.265 330.877 126.502C331.248 125.735 331.764 125.136 332.424 124.706C333.089 124.271 333.864 124.054 334.751 124.054C335.441 124.054 336.063 124.182 336.617 124.438C337.171 124.693 337.625 125.051 337.979 125.511C338.332 125.972 338.552 126.509 338.637 127.122H337.129C337.014 126.675 336.758 126.278 336.362 125.933C335.97 125.584 335.441 125.409 334.776 125.409C334.188 125.409 333.673 125.562 333.229 125.869C332.791 126.172 332.448 126.6 332.2 127.154C331.957 127.704 331.836 128.349 331.836 129.091C331.836 129.849 331.955 130.51 332.194 131.072C332.437 131.635 332.778 132.072 333.217 132.383C333.66 132.694 334.18 132.849 334.776 132.849C335.168 132.849 335.524 132.781 335.844 132.645C336.163 132.509 336.434 132.312 336.656 132.057C336.877 131.801 337.035 131.494 337.129 131.136H338.637C338.552 131.716 338.341 132.238 338.004 132.702C337.672 133.163 337.231 133.529 336.681 133.802C336.136 134.07 335.501 134.205 334.776 134.205ZM339.942 134V124.182H341.451V134H339.942ZM340.709 122.545C340.415 122.545 340.162 122.445 339.949 122.245C339.74 122.045 339.636 121.804 339.636 121.523C339.636 121.241 339.74 121.001 339.949 120.8C340.162 120.6 340.415 120.5 340.709 120.5C341.003 120.5 341.255 120.6 341.464 120.8C341.677 121.001 341.783 121.241 341.783 121.523C341.783 121.804 341.677 122.045 341.464 122.245C341.255 122.445 341.003 122.545 340.709 122.545ZM344.822 120.909V134H343.314V120.909H344.822ZM347.785 134.102C347.469 134.102 347.199 133.989 346.973 133.763C346.747 133.538 346.634 133.267 346.634 132.952C346.634 132.636 346.747 132.366 346.973 132.14C347.199 131.914 347.469 131.801 347.785 131.801C348.1 131.801 348.371 131.914 348.597 132.14C348.822 132.366 348.935 132.636 348.935 132.952C348.935 133.161 348.882 133.352 348.776 133.527C348.673 133.702 348.535 133.842 348.36 133.949C348.19 134.051 347.998 134.102 347.785 134.102ZM354.45 134.205C353.632 134.205 352.909 133.998 352.283 133.585C351.656 133.167 351.166 132.579 350.813 131.82C350.459 131.058 350.282 130.156 350.282 129.116C350.282 128.085 350.459 127.19 350.813 126.432C351.166 125.673 351.659 125.087 352.289 124.674C352.92 124.261 353.649 124.054 354.475 124.054C355.115 124.054 355.62 124.161 355.99 124.374C356.365 124.582 356.651 124.821 356.847 125.089C357.047 125.354 357.203 125.571 357.313 125.741H357.441V120.909H358.95V134H357.492V132.491H357.313C357.203 132.67 357.045 132.896 356.84 133.169C356.636 133.437 356.344 133.678 355.965 133.891C355.585 134.1 355.08 134.205 354.45 134.205ZM354.654 132.849C355.259 132.849 355.771 132.692 356.188 132.376C356.606 132.057 356.924 131.616 357.141 131.053C357.358 130.487 357.467 129.832 357.467 129.091C357.467 128.358 357.36 127.717 357.147 127.167C356.934 126.613 356.619 126.183 356.201 125.876C355.784 125.565 355.268 125.409 354.654 125.409C354.015 125.409 353.482 125.573 353.056 125.901C352.634 126.225 352.317 126.666 352.104 127.224C351.895 127.778 351.791 128.401 351.791 129.091C351.791 129.79 351.897 130.425 352.11 130.996C352.328 131.562 352.647 132.014 353.069 132.351C353.495 132.683 354.024 132.849 354.654 132.849ZM361.022 134V124.182H362.531V134H361.022ZM361.789 122.545C361.495 122.545 361.242 122.445 361.028 122.245C360.82 122.045 360.715 121.804 360.715 121.523C360.715 121.241 360.82 121.001 361.028 120.8C361.242 120.6 361.495 120.5 361.789 120.5C362.083 120.5 362.335 120.6 362.543 120.8C362.756 121.001 362.863 121.241 362.863 121.523C362.863 121.804 362.756 122.045 362.543 122.245C362.335 122.445 362.083 122.545 361.789 122.545ZM367.283 134.23C366.661 134.23 366.096 134.113 365.589 133.879C365.082 133.64 364.679 133.297 364.381 132.849C364.082 132.398 363.933 131.852 363.933 131.213C363.933 130.651 364.044 130.195 364.266 129.845C364.487 129.491 364.783 129.214 365.154 129.014C365.525 128.814 365.934 128.665 366.381 128.567C366.833 128.464 367.287 128.384 367.743 128.324C368.34 128.247 368.823 128.19 369.194 128.151C369.569 128.109 369.842 128.038 370.012 127.94C370.187 127.842 370.274 127.672 370.274 127.429V127.378C370.274 126.747 370.102 126.257 369.756 125.908C369.416 125.558 368.898 125.384 368.203 125.384C367.483 125.384 366.918 125.541 366.509 125.857C366.1 126.172 365.813 126.509 365.646 126.866L364.215 126.355C364.47 125.759 364.811 125.294 365.237 124.962C365.668 124.625 366.136 124.391 366.644 124.259C367.155 124.122 367.658 124.054 368.152 124.054C368.467 124.054 368.83 124.092 369.239 124.169C369.652 124.241 370.051 124.393 370.434 124.623C370.822 124.853 371.144 125.2 371.399 125.665C371.655 126.129 371.783 126.751 371.783 127.531V134H370.274V132.67H370.198C370.095 132.884 369.925 133.112 369.686 133.354C369.448 133.597 369.13 133.804 368.734 133.974C368.337 134.145 367.854 134.23 367.283 134.23ZM367.513 132.875C368.109 132.875 368.612 132.758 369.021 132.523C369.435 132.289 369.746 131.987 369.955 131.616C370.168 131.245 370.274 130.855 370.274 130.446V129.065C370.21 129.142 370.07 129.212 369.852 129.276C369.639 129.336 369.392 129.389 369.111 129.436C368.834 129.479 368.563 129.517 368.299 129.551C368.039 129.581 367.828 129.607 367.666 129.628C367.274 129.679 366.908 129.762 366.567 129.877C366.23 129.988 365.957 130.156 365.749 130.382C365.544 130.604 365.442 130.906 365.442 131.29C365.442 131.814 365.636 132.21 366.024 132.479C366.416 132.743 366.912 132.875 367.513 132.875ZM373.636 134V124.182H375.094V125.716H375.221C375.426 125.192 375.756 124.785 376.212 124.495C376.668 124.201 377.216 124.054 377.855 124.054C378.503 124.054 379.042 124.201 379.472 124.495C379.907 124.785 380.246 125.192 380.488 125.716H380.591C380.842 125.209 381.219 124.806 381.722 124.508C382.225 124.205 382.828 124.054 383.531 124.054C384.409 124.054 385.127 124.329 385.685 124.879C386.243 125.424 386.523 126.274 386.523 127.429V134H385.014V127.429C385.014 126.705 384.816 126.187 384.42 125.876C384.023 125.565 383.557 125.409 383.02 125.409C382.329 125.409 381.795 125.618 381.415 126.036C381.036 126.449 380.846 126.973 380.846 127.608V134H379.312V127.276C379.312 126.717 379.131 126.268 378.769 125.927C378.407 125.582 377.94 125.409 377.369 125.409C376.977 125.409 376.611 125.513 376.27 125.722C375.933 125.931 375.66 126.221 375.451 126.592C375.247 126.958 375.145 127.382 375.145 127.864V134H373.636ZM392.497 134.205C391.551 134.205 390.735 133.996 390.049 133.578C389.367 133.156 388.841 132.568 388.47 131.814C388.104 131.055 387.92 130.173 387.92 129.168C387.92 128.162 388.104 127.276 388.47 126.509C388.841 125.737 389.357 125.136 390.017 124.706C390.682 124.271 391.457 124.054 392.344 124.054C392.855 124.054 393.36 124.139 393.859 124.31C394.357 124.48 394.811 124.757 395.22 125.141C395.629 125.52 395.955 126.023 396.198 126.649C396.441 127.276 396.562 128.047 396.562 128.963V129.602H388.994V128.298H395.028C395.028 127.744 394.918 127.25 394.696 126.815C394.479 126.381 394.168 126.038 393.763 125.786C393.362 125.535 392.889 125.409 392.344 125.409C391.743 125.409 391.223 125.558 390.784 125.857C390.349 126.151 390.015 126.534 389.781 127.007C389.546 127.48 389.429 127.987 389.429 128.528V129.398C389.429 130.139 389.557 130.768 389.812 131.283C390.072 131.795 390.433 132.185 390.893 132.453C391.353 132.717 391.888 132.849 392.497 132.849C392.893 132.849 393.251 132.794 393.571 132.683C393.895 132.568 394.174 132.398 394.408 132.172C394.643 131.942 394.824 131.656 394.952 131.315L396.409 131.724C396.256 132.219 395.998 132.653 395.636 133.028C395.273 133.399 394.826 133.689 394.293 133.898C393.761 134.102 393.162 134.205 392.497 134.205ZM402.227 124.182V125.46H397.139V124.182H402.227ZM398.622 121.83H400.131V131.188C400.131 131.614 400.192 131.933 400.316 132.146C400.444 132.355 400.606 132.496 400.802 132.568C401.002 132.636 401.213 132.67 401.435 132.67C401.601 132.67 401.737 132.662 401.844 132.645C401.95 132.624 402.035 132.607 402.099 132.594L402.406 133.949C402.304 133.987 402.161 134.026 401.978 134.064C401.795 134.107 401.562 134.128 401.281 134.128C400.855 134.128 400.437 134.036 400.028 133.853C399.623 133.67 399.287 133.391 399.018 133.016C398.754 132.641 398.622 132.168 398.622 131.597V121.83ZM407.607 134.205C406.661 134.205 405.845 133.996 405.159 133.578C404.477 133.156 403.951 132.568 403.58 131.814C403.214 131.055 403.031 130.173 403.031 129.168C403.031 128.162 403.214 127.276 403.58 126.509C403.951 125.737 404.467 125.136 405.127 124.706C405.792 124.271 406.568 124.054 407.454 124.054C407.965 124.054 408.47 124.139 408.969 124.31C409.467 124.48 409.921 124.757 410.33 125.141C410.739 125.52 411.065 126.023 411.308 126.649C411.551 127.276 411.673 128.047 411.673 128.963V129.602H404.104V128.298H410.139C410.139 127.744 410.028 127.25 409.806 126.815C409.589 126.381 409.278 126.038 408.873 125.786C408.472 125.535 407.999 125.409 407.454 125.409C406.853 125.409 406.333 125.558 405.894 125.857C405.46 126.151 405.125 126.534 404.891 127.007C404.656 127.48 404.539 127.987 404.539 128.528V129.398C404.539 130.139 404.667 130.768 404.923 131.283C405.183 131.795 405.543 132.185 406.003 132.453C406.463 132.717 406.998 132.849 407.607 132.849C408.004 132.849 408.362 132.794 408.681 132.683C409.005 132.568 409.284 132.398 409.519 132.172C409.753 131.942 409.934 131.656 410.062 131.315L411.519 131.724C411.366 132.219 411.108 132.653 410.746 133.028C410.384 133.399 409.936 133.689 409.403 133.898C408.871 134.102 408.272 134.205 407.607 134.205ZM413.067 134V124.182H414.525V125.665H414.627C414.806 125.179 415.13 124.785 415.599 124.482C416.067 124.18 416.596 124.028 417.184 124.028C417.295 124.028 417.433 124.031 417.599 124.035C417.766 124.039 417.891 124.045 417.976 124.054V125.588C417.925 125.575 417.808 125.556 417.625 125.531C417.446 125.501 417.256 125.486 417.056 125.486C416.579 125.486 416.153 125.586 415.778 125.786C415.407 125.982 415.113 126.255 414.896 126.604C414.682 126.95 414.576 127.344 414.576 127.787V134H413.067ZM422.086 128.477C422.086 130.088 421.875 131.571 421.453 132.926C421.036 134.277 420.437 135.521 419.657 136.659H418.328C418.635 136.237 418.92 135.717 419.184 135.099C419.453 134.486 419.687 133.812 419.887 133.08C420.088 132.342 420.243 131.582 420.354 130.798C420.469 130.009 420.527 129.236 420.527 128.477C420.527 127.463 420.429 126.434 420.233 125.39C420.037 124.346 419.772 123.376 419.44 122.482C419.108 121.587 418.737 120.858 418.328 120.295H419.657C420.437 121.433 421.036 122.68 421.453 124.035C421.875 125.386 422.086 126.866 422.086 128.477ZM6.2642 164L8.41193 150.909H9.69034L7.54261 164H6.2642ZM0.306818 160.369L0.511364 159.091H10.2784L10.0739 160.369H0.306818ZM1.66193 164L3.80966 150.909H5.08807L2.94034 164H1.66193ZM1.07386 155.818L1.27841 154.54H11.0455L10.8409 155.818H1.07386ZM22.106 157.232H23.6V159.698H22.106V157.232ZM15.518 156.35H30.206V157.502H15.518V156.35ZM22.124 149.024H23.6V151.004H22.124V149.024ZM22.052 151.148H23.366V151.4C23.366 153.956 20.324 155.324 16.724 155.63L16.292 154.478C19.496 154.28 22.052 153.146 22.052 151.4V151.148ZM22.358 151.148H23.672V151.4C23.672 153.146 26.228 154.28 29.414 154.478L28.982 155.63C25.382 155.324 22.358 153.956 22.358 151.4V151.148ZM17.012 150.554H28.712V151.688H17.012V150.554ZM17.282 158.978H28.334V162.56H18.794V164.522H17.318V161.498H26.858V160.112H17.282V158.978ZM17.318 164.09H28.82V165.224H17.318V164.09ZM31.8426 157.196H33.0126C36.2166 157.196 37.8006 157.142 39.7446 156.8L39.9066 158.006C37.8906 158.366 36.2706 158.42 33.0126 158.42H31.8426V157.196ZM31.8066 150.104H38.8266V154.73H33.3186V157.934H31.8426V153.56H37.3506V151.328H31.8066V150.104ZM43.0566 149.15H44.5506V159.14H43.0566V149.15ZM39.9066 151.544H43.3986V152.768H39.9066V151.544ZM39.9066 154.91H43.3986V156.134H39.9066V154.91ZM33.6606 160.022H44.5506V165.44H43.0566V161.246H33.6606V160.022ZM48.4153 164.102C48.0999 164.102 47.8293 163.989 47.6035 163.763C47.3776 163.538 47.2647 163.267 47.2647 162.952C47.2647 162.636 47.3776 162.366 47.6035 162.14C47.8293 161.914 48.0999 161.801 48.4153 161.801C48.7306 161.801 49.0012 161.914 49.2271 162.14C49.4529 162.366 49.5658 162.636 49.5658 162.952C49.5658 163.161 49.5126 163.352 49.406 163.527C49.3038 163.702 49.1653 163.842 48.9906 163.949C48.8201 164.051 48.6283 164.102 48.4153 164.102ZM48.4153 156.815C48.0999 156.815 47.8293 156.702 47.6035 156.477C47.3776 156.251 47.2647 155.98 47.2647 155.665C47.2647 155.349 47.3776 155.079 47.6035 154.853C47.8293 154.627 48.0999 154.514 48.4153 154.514C48.7306 154.514 49.0012 154.627 49.2271 154.853C49.4529 155.079 49.5658 155.349 49.5658 155.665C49.5658 155.874 49.5126 156.065 49.406 156.24C49.3038 156.415 49.1653 156.555 48.9906 156.662C48.8201 156.764 48.6283 156.815 48.4153 156.815ZM62.5787 151.67H67.4747V152.894H62.5787V151.67ZM62.5787 155.576H67.4747V156.8H62.5787V155.576ZM66.9347 149.15H68.4287V161.174H66.9347V149.15ZM58.0427 163.82H68.8787V165.044H58.0427V163.82ZM58.0427 159.932H59.5367V164.36H58.0427V159.932ZM59.4827 150.176C61.8767 150.176 63.6767 151.85 63.6767 154.244C63.6767 156.638 61.8767 158.312 59.4827 158.312C57.0887 158.312 55.2887 156.638 55.2887 154.244C55.2887 151.85 57.0887 150.176 59.4827 150.176ZM59.4827 151.49C57.8987 151.49 56.7287 152.642 56.7287 154.244C56.7287 155.864 57.8987 157.016 59.4827 157.016C61.0667 157.016 62.2547 155.864 62.2547 154.244C62.2547 152.642 61.0667 151.49 59.4827 151.49ZM82.5573 149.132H84.0693V157.556H82.5573V149.132ZM73.4493 158.348H84.0693V162.272H74.9613V164.72H73.5033V161.156H82.5753V159.536H73.4493V158.348ZM73.5033 164.036H84.6633V165.224H73.5033V164.036ZM71.4333 150.23H80.1633V151.418H71.4333V150.23ZM71.1453 157.016L70.9833 155.774C73.8813 155.774 77.7693 155.702 80.9373 155.306L81.0273 156.404C77.7873 156.89 74.0073 156.998 71.1453 157.016ZM73.0353 150.77H74.4753V156.314H73.0353V150.77ZM77.1033 150.77H78.5613V156.314H77.1033V150.77ZM94.6024 157.952H96.0964V162.596H94.6024V157.952ZM99.6244 157.952H101.1V162.596H99.6244V157.952ZM90.5344 162.2H105.276V163.442H90.5344V162.2ZM91.8124 150.626H103.89V151.85H91.8124V150.626ZM91.8484 157.142H103.872V158.348H91.8484V157.142ZM94.3504 151.616H95.8444V157.394H94.3504V151.616ZM99.8944 151.616H101.37V157.394H99.8944V151.616ZM112.565 150.662H113.897V151.148C113.897 153.902 110.963 155.828 107.633 156.332L107.075 155.126C109.955 154.748 112.565 153.128 112.565 151.148V150.662ZM113.195 150.662H114.509V151.148C114.509 153.128 117.137 154.748 120.017 155.126L119.441 156.332C116.129 155.828 113.195 153.902 113.195 151.148V150.662ZM107.525 149.942H119.567V151.148H107.525V149.942ZM106.175 157.502H120.917V158.726H106.175V157.502ZM112.907 158.258H114.401V162.002H112.907V158.258ZM108.047 163.82H119.279V165.044H108.047V163.82ZM108.047 160.436H109.523V164.288H108.047V160.436ZM127.868 150.176H138.038V151.4H127.868V150.176ZM126.014 157.268H140.72V158.492H126.014V157.268ZM129.794 158.024H131.288V165.404H129.794V158.024ZM137.228 150.176H138.704V151.382C138.704 152.912 138.704 154.874 138.146 157.664L136.67 157.52C137.228 154.82 137.228 152.876 137.228 151.382V150.176ZM135.356 158.024H136.85V165.404H135.356V158.024ZM148.603 150.23H150.169C150.169 154.37 147.235 157.322 142.501 158.618L141.907 157.448C146.083 156.296 148.603 153.902 148.603 150.878V150.23ZM142.735 150.23H149.521V151.436H142.735V150.23ZM144.193 159.572H155.047V165.368H153.553V160.778H144.193V159.572ZM153.553 149.132H155.047V158.834H153.553V149.132ZM149.503 152.03H153.859V153.254H149.503V152.03ZM149.341 155.486H153.751V156.71H149.341V155.486ZM158.911 162.325C158.596 162.325 158.325 162.212 158.1 161.987C157.874 161.761 157.761 161.49 157.761 161.175C157.761 160.859 157.874 160.589 158.1 160.363C158.325 160.137 158.596 160.024 158.911 160.024C159.227 160.024 159.497 160.137 159.723 160.363C159.949 160.589 160.062 160.859 160.062 161.175C160.062 161.384 160.009 161.575 159.902 161.75C159.8 161.925 159.661 162.065 159.487 162.172C159.316 162.274 159.124 162.325 158.911 162.325ZM158.911 155.703C158.596 155.703 158.325 155.59 158.1 155.364C157.874 155.138 157.761 154.868 157.761 154.553C157.761 154.237 157.874 153.967 158.1 153.741C158.325 153.515 158.596 153.402 158.911 153.402C159.227 153.402 159.497 153.515 159.723 153.741C159.949 153.967 160.062 154.237 160.062 154.553C160.062 154.761 160.009 154.953 159.902 155.128C159.8 155.303 159.661 155.443 159.487 155.55C159.316 155.652 159.124 155.703 158.911 155.703ZM170.608 150.909V164H169.023V152.571H168.946L165.75 154.693V153.082L169.023 150.909H170.608ZM177.564 164.179C176.814 164.179 176.139 164.03 175.538 163.732C174.937 163.433 174.455 163.024 174.093 162.504C173.731 161.984 173.533 161.392 173.499 160.727H175.033C175.092 161.32 175.361 161.81 175.838 162.197C176.32 162.581 176.895 162.773 177.564 162.773C178.101 162.773 178.578 162.647 178.996 162.396C179.418 162.144 179.748 161.799 179.987 161.36C180.229 160.917 180.351 160.416 180.351 159.858C180.351 159.287 180.225 158.778 179.974 158.33C179.727 157.879 179.386 157.523 178.951 157.263C178.516 157.003 178.02 156.871 177.462 156.866C177.061 156.862 176.65 156.924 176.228 157.052C175.806 157.175 175.459 157.335 175.186 157.531L173.703 157.352L174.496 150.909H181.297V152.315H175.825L175.365 156.176H175.442C175.71 155.963 176.047 155.786 176.452 155.646C176.857 155.505 177.278 155.435 177.717 155.435C178.519 155.435 179.232 155.626 179.859 156.01C180.489 156.389 180.984 156.909 181.342 157.57C181.704 158.23 181.885 158.984 181.885 159.832C181.885 160.668 181.698 161.413 181.323 162.07C180.952 162.722 180.44 163.237 179.788 163.616C179.136 163.991 178.395 164.179 177.564 164.179ZM190.218 161.136L190.32 158.324L187.942 159.832L187.329 158.759L189.834 157.455L187.329 156.151L187.942 155.077L190.32 156.585L190.218 153.773H191.445L191.343 156.585L193.721 155.077L194.334 156.151L191.829 157.455L194.334 158.759L193.721 159.832L191.343 158.324L191.445 161.136H190.218ZM204.219 164.179C203.256 164.179 202.436 163.917 201.758 163.393C201.081 162.864 200.563 162.099 200.205 161.098C199.847 160.092 199.668 158.878 199.668 157.455C199.668 156.04 199.847 154.832 200.205 153.83C200.567 152.825 201.087 152.058 201.765 151.529C202.446 150.996 203.265 150.73 204.219 150.73C205.174 150.73 205.99 150.996 206.667 151.529C207.349 152.058 207.869 152.825 208.227 153.83C208.589 154.832 208.77 156.04 208.77 157.455C208.77 158.878 208.591 160.092 208.233 161.098C207.875 162.099 207.358 162.864 206.68 163.393C206.003 163.917 205.182 164.179 204.219 164.179ZM204.219 162.773C205.174 162.773 205.915 162.312 206.444 161.392C206.972 160.472 207.236 159.159 207.236 157.455C207.236 156.321 207.115 155.356 206.872 154.559C206.633 153.762 206.288 153.155 205.836 152.737C205.389 152.32 204.85 152.111 204.219 152.111C203.273 152.111 202.534 152.577 202.001 153.511C201.468 154.44 201.202 155.754 201.202 157.455C201.202 158.588 201.321 159.551 201.56 160.344C201.799 161.136 202.142 161.739 202.589 162.153C203.041 162.566 203.584 162.773 204.219 162.773ZM210.967 164.102C210.652 164.102 210.381 163.989 210.155 163.763C209.93 163.538 209.817 163.267 209.817 162.952C209.817 162.636 209.93 162.366 210.155 162.14C210.381 161.914 210.652 161.801 210.967 161.801C211.283 161.801 211.553 161.914 211.779 162.14C212.005 162.366 212.118 162.636 212.118 162.952C212.118 163.161 212.065 163.352 211.958 163.527C211.856 163.702 211.717 163.842 211.543 163.949C211.372 164.051 211.18 164.102 210.967 164.102ZM217.726 164.179C216.976 164.179 216.301 164.03 215.7 163.732C215.099 163.433 214.618 163.024 214.256 162.504C213.893 161.984 213.695 161.392 213.661 160.727H215.195C215.255 161.32 215.523 161.81 216.001 162.197C216.482 162.581 217.057 162.773 217.726 162.773C218.263 162.773 218.741 162.647 219.158 162.396C219.58 162.144 219.91 161.799 220.149 161.36C220.392 160.917 220.513 160.416 220.513 159.858C220.513 159.287 220.388 158.778 220.136 158.33C219.889 157.879 219.548 157.523 219.114 157.263C218.679 157.003 218.182 156.871 217.624 156.866C217.224 156.862 216.812 156.924 216.391 157.052C215.969 157.175 215.621 157.335 215.349 157.531L213.866 157.352L214.658 150.909H221.459V152.315H215.988L215.528 156.176H215.604C215.873 155.963 216.209 155.786 216.614 155.646C217.019 155.505 217.441 155.435 217.88 155.435C218.681 155.435 219.395 155.626 220.021 156.01C220.652 156.389 221.146 156.909 221.504 157.57C221.866 158.23 222.048 158.984 222.048 159.832C222.048 160.668 221.86 161.413 221.485 162.07C221.114 162.722 220.603 163.237 219.951 163.616C219.299 163.991 218.557 164.179 217.726 164.179Z" fill="black"/>
</svg>
