<svg width="121" height="77" viewBox="0 0 121 77" fill="none" xmlns="http://www.w3.org/2000/svg">
<path d="M5.07937 15.1918C4.07369 15.1918 3.20863 14.9787 2.4842 14.5526C1.76403 14.1222 1.21005 13.5256 0.822266 12.7628C0.438743 12 0.246982 11.1222 0.246982 10.1293C0.246982 9.12358 0.440874 8.24148 0.828658 7.48295C1.2207 6.72017 1.77681 6.12571 2.49698 5.69957C3.21715 5.26918 4.07369 5.05398 5.06658 5.05398C5.92312 5.05398 6.67312 5.20952 7.31658 5.5206C7.96005 5.83168 8.46928 6.26847 8.84428 6.83097C9.21928 7.39347 9.42596 8.05398 9.46431 8.8125H6.89471C6.82227 8.32244 6.6305 7.92827 6.31943 7.62997C6.01261 7.32741 5.60991 7.17614 5.11133 7.17614C4.68945 7.17614 4.32085 7.29119 4.0055 7.52131C3.69442 7.74716 3.45153 8.07741 3.27681 8.51207C3.1021 8.94673 3.01474 9.47301 3.01474 10.0909C3.01474 10.7173 3.09996 11.25 3.27042 11.6889C3.44514 12.1278 3.69016 12.4624 4.0055 12.6925C4.32085 12.9226 4.68945 13.0376 5.11133 13.0376C5.42241 13.0376 5.70153 12.9737 5.94869 12.8459C6.20011 12.718 6.40678 12.5327 6.56871 12.2898C6.73491 12.0426 6.84357 11.7464 6.89471 11.4013H9.46431C9.4217 12.1513 9.21715 12.8118 8.85068 13.3828C8.48846 13.9496 7.98775 14.3928 7.34854 14.7124C6.70934 15.032 5.95295 15.1918 5.07937 15.1918ZM13.9308 1.90909V15H11.2077V1.90909H13.9308ZM18.9118 15.1854C18.2853 15.1854 17.7271 15.0767 17.237 14.8594C16.747 14.6378 16.3592 14.3118 16.0737 13.8814C15.7924 13.4467 15.6518 12.9055 15.6518 12.2578C15.6518 11.7124 15.752 11.2543 15.9522 10.8835C16.1525 10.5128 16.4252 10.2145 16.7704 9.98864C17.1156 9.76278 17.5076 9.59233 17.9466 9.47727C18.3897 9.36222 18.8542 9.28125 19.34 9.23438C19.911 9.17472 20.3713 9.11932 20.7207 9.06818C21.0701 9.01278 21.3237 8.93182 21.4814 8.82528C21.639 8.71875 21.7179 8.56108 21.7179 8.35227V8.31392C21.7179 7.90909 21.59 7.59588 21.3343 7.37429C21.0829 7.1527 20.725 7.0419 20.2605 7.0419C19.7704 7.0419 19.3805 7.15057 19.0907 7.3679C18.801 7.58097 18.6092 7.84943 18.5154 8.1733L15.997 7.96875C16.1248 7.37216 16.3762 6.85653 16.7512 6.42188C17.1262 5.98295 17.6099 5.64631 18.2022 5.41193C18.7988 5.1733 19.4892 5.05398 20.2733 5.05398C20.8187 5.05398 21.3407 5.1179 21.8393 5.24574C22.3422 5.37358 22.7875 5.57173 23.1752 5.8402C23.5673 6.10866 23.8762 6.45384 24.1021 6.87571C24.3279 7.29332 24.4409 7.79403 24.4409 8.37784V15H21.8585V13.6385H21.7818C21.6241 13.9453 21.4132 14.2159 21.149 14.4503C20.8848 14.6804 20.5673 14.8615 20.1966 14.9936C19.8258 15.1214 19.3975 15.1854 18.9118 15.1854ZM19.6916 13.3061C20.0922 13.3061 20.4458 13.2273 20.7527 13.0696C21.0595 12.9077 21.3002 12.6903 21.475 12.4176C21.6497 12.1449 21.737 11.8359 21.737 11.4908V10.4489C21.6518 10.5043 21.5346 10.5554 21.3855 10.6023C21.2406 10.6449 21.0765 10.6854 20.8933 10.7237C20.71 10.7578 20.5268 10.7898 20.3436 10.8196C20.1603 10.8452 19.9941 10.8686 19.845 10.8899C19.5254 10.9368 19.2463 11.0114 19.0076 11.1136C18.769 11.2159 18.5836 11.3544 18.4515 11.5291C18.3194 11.6996 18.2534 11.9126 18.2534 12.1683C18.2534 12.5391 18.3876 12.8224 18.6561 13.0185C18.9288 13.2102 19.274 13.3061 19.6916 13.3061ZM34.7225 7.98153L32.2296 8.13494C32.187 7.92187 32.0953 7.73011 31.9547 7.55966C31.8141 7.38494 31.6287 7.24645 31.3986 7.14418C31.1728 7.03764 30.9022 6.98438 30.5868 6.98438C30.165 6.98438 29.8091 7.07386 29.5194 7.25284C29.2296 7.42756 29.0847 7.66193 29.0847 7.95597C29.0847 8.19034 29.1784 8.38849 29.3659 8.55043C29.5534 8.71236 29.8752 8.84233 30.3311 8.94034L32.1081 9.2983C33.0627 9.49432 33.7743 9.80966 34.2431 10.2443C34.7118 10.679 34.9462 11.25 34.9462 11.9574C34.9462 12.6009 34.7566 13.1655 34.3773 13.6513C34.0023 14.1371 33.4867 14.5163 32.8304 14.7891C32.1784 15.0575 31.4263 15.1918 30.574 15.1918C29.2743 15.1918 28.2388 14.9212 27.4675 14.38C26.7005 13.8345 26.2509 13.093 26.1188 12.1555L28.7971 12.0149C28.878 12.4112 29.074 12.7138 29.3851 12.9226C29.6962 13.1271 30.0946 13.2294 30.5804 13.2294C31.0577 13.2294 31.4412 13.1378 31.731 12.9545C32.025 12.767 32.1742 12.5263 32.1784 12.2322C32.1742 11.9851 32.0698 11.7827 31.8652 11.625C31.6607 11.4631 31.3453 11.3395 30.9192 11.2543L29.2189 10.9155C28.2601 10.7237 27.5463 10.3913 27.0776 9.91832C26.6131 9.44531 26.3809 8.84233 26.3809 8.10938C26.3809 7.47869 26.5513 6.93537 26.8922 6.4794C27.2374 6.02344 27.7211 5.67188 28.3432 5.42472C28.9696 5.17756 29.7026 5.05398 30.5421 5.05398C31.7821 5.05398 32.758 5.31605 33.4696 5.8402C34.1855 6.36435 34.6032 7.07812 34.7225 7.98153ZM44.8299 7.98153L42.337 8.13494C42.2944 7.92187 42.2028 7.73011 42.0621 7.55966C41.9215 7.38494 41.7362 7.24645 41.506 7.14418C41.2802 7.03764 41.0096 6.98438 40.6942 6.98438C40.2724 6.98438 39.9165 7.07386 39.6268 7.25284C39.337 7.42756 39.1921 7.66193 39.1921 7.95597C39.1921 8.19034 39.2859 8.38849 39.4734 8.55043C39.6609 8.71236 39.9826 8.84233 40.4386 8.94034L42.2156 9.2983C43.1701 9.49432 43.8817 9.80966 44.3505 10.2443C44.8192 10.679 45.0536 11.25 45.0536 11.9574C45.0536 12.6009 44.864 13.1655 44.4847 13.6513C44.1097 14.1371 43.5941 14.5163 42.9379 14.7891C42.2859 15.0575 41.5337 15.1918 40.6815 15.1918C39.3817 15.1918 38.3462 14.9212 37.5749 14.38C36.8079 13.8345 36.3583 13.093 36.2262 12.1555L38.9045 12.0149C38.9854 12.4112 39.1815 12.7138 39.4925 12.9226C39.8036 13.1271 40.2021 13.2294 40.6879 13.2294C41.1651 13.2294 41.5487 13.1378 41.8384 12.9545C42.1325 12.767 42.2816 12.5263 42.2859 12.2322C42.2816 11.9851 42.1772 11.7827 41.9727 11.625C41.7681 11.4631 41.4528 11.3395 41.0266 11.2543L39.3263 10.9155C38.3675 10.7237 37.6538 10.3913 37.185 9.91832C36.7205 9.44531 36.4883 8.84233 36.4883 8.10938C36.4883 7.47869 36.6587 6.93537 36.9996 6.4794C37.3448 6.02344 37.8285 5.67188 38.4506 5.42472C39.0771 5.17756 39.81 5.05398 40.6495 5.05398C41.8896 5.05398 42.8654 5.31605 43.5771 5.8402C44.293 6.36435 44.7106 7.07812 44.8299 7.98153ZM52.6197 0.887999H63.0957V2.094H52.6197V0.887999ZM62.1237 0.887999H63.5817V2.148C63.5817 3.498 63.5817 5.1 63.1137 7.242L61.6377 7.08C62.1237 4.974 62.1237 3.48 62.1237 2.148V0.887999ZM62.5377 3.642V4.704L52.4037 5.154L52.2057 3.966L62.5377 3.642ZM50.7477 6.792H65.4357V7.98H50.7477V6.792ZM52.4577 9.528H63.7077V13.326H53.9697V15.522H52.4937V12.21H62.2317V10.68H52.4577V9.528ZM52.4937 15.018H64.2657V16.188H52.4937V15.018ZM67.8283 11.274H68.9083C70.8883 11.274 72.6883 11.202 74.8843 10.824L75.0103 12.066C72.7603 12.462 70.9243 12.516 68.9083 12.516H67.8283V11.274ZM67.7923 1.896H73.8943V7.62H69.2863V11.742H67.8283V6.396H72.4363V3.12H67.7923V1.896ZM79.6723 0.131999H81.1123V16.404H79.6723V0.131999ZM76.9183 6.558H80.0503V7.782H76.9183V6.558ZM75.9823 0.491999H77.3863V15.576H75.9823V0.491999ZM90.3808 1.248H91.6768V2.49C91.6768 6.036 88.3828 8.79 85.1248 9.528L84.4588 8.286C87.3208 7.746 90.3808 5.262 90.3808 2.49V1.248ZM90.6508 1.248H91.9468V2.49C91.9468 5.28 95.0248 7.746 97.8688 8.286L97.2028 9.528C93.9628 8.79 90.6508 6.054 90.6508 2.49V1.248ZM83.8648 12.984H98.6068V14.208H83.8648V12.984ZM108.181 2.76H112.879V3.984H108.181V2.76ZM108.181 6H112.915V7.206H108.181V6ZM112.303 0.131999H113.797V9.762H112.303V0.131999ZM101.161 1.356H108.595V8.592H101.161V1.356ZM107.119 2.562H102.619V7.404H107.119V2.562ZM108.451 10.23C111.799 10.23 113.869 11.364 113.869 13.308C113.869 15.252 111.799 16.368 108.451 16.368C105.085 16.368 103.015 15.252 103.015 13.308C103.015 11.364 105.085 10.23 108.451 10.23ZM108.451 11.418C106.003 11.418 104.509 12.12 104.509 13.308C104.509 14.496 106.003 15.198 108.451 15.198C110.899 15.198 112.393 14.496 112.393 13.308C112.393 12.12 110.899 11.418 108.451 11.418ZM118.76 15.1662C118.338 15.1662 117.976 15.017 117.674 14.7188C117.375 14.4162 117.226 14.054 117.226 13.6321C117.226 13.2145 117.375 12.8565 117.674 12.5582C117.976 12.2599 118.338 12.1108 118.76 12.1108C119.169 12.1108 119.527 12.2599 119.834 12.5582C120.141 12.8565 120.294 13.2145 120.294 13.6321C120.294 13.9134 120.222 14.1712 120.077 14.4055C119.936 14.6357 119.751 14.821 119.521 14.9616C119.291 15.098 119.037 15.1662 118.76 15.1662ZM118.76 8.28835C118.338 8.28835 117.976 8.1392 117.674 7.84091C117.375 7.54261 117.226 7.1804 117.226 6.75426C117.226 6.33665 117.375 5.98082 117.674 5.68679C117.976 5.38849 118.338 5.23935 118.76 5.23935C119.169 5.23935 119.527 5.38849 119.834 5.68679C120.141 5.98082 120.294 6.33665 120.294 6.75426C120.294 7.03977 120.222 7.29972 120.077 7.53409C119.936 7.7642 119.751 7.94744 119.521 8.08381C119.291 8.22017 119.037 8.28835 118.76 8.28835ZM46.0076 33.12H50.7056V34.326H46.0076V33.12ZM46.0076 36.63H50.7416V37.836H46.0076V36.63ZM50.1296 30.15H51.6236V42.192H50.1296V30.15ZM41.1656 44.82H52.0196V46.044H41.1656V44.82ZM41.1656 41.022H42.6596V45.45H41.1656V41.022ZM39.0416 31.212H40.5176V34.092H44.9276V31.212H46.3856V39.42H39.0416V31.212ZM40.5176 35.262V38.196H44.9276V35.262H40.5176ZM61.3782 30.708H62.6922V31.608C62.6922 34.722 59.5242 36.954 56.1402 37.53L55.5462 36.324C58.5162 35.874 61.3782 33.93 61.3782 31.608V30.708ZM61.6482 30.708H62.9442V31.608C62.9442 33.876 65.8422 35.874 68.7762 36.324L68.1822 37.53C64.8342 36.954 61.6482 34.686 61.6482 31.608V30.708ZM61.3782 40.212H62.8542V46.404H61.3782V40.212ZM54.8082 39.294H69.5142V40.536H54.8082V39.294ZM85.1053 34.344H88.7773V35.586H85.1053V34.344ZM88.3093 30.132H89.8033V39.834H88.3093V30.132ZM84.4573 40.32C87.8053 40.32 89.8753 41.454 89.8753 43.362C89.8753 45.288 87.8053 46.386 84.4573 46.386C81.0913 46.386 79.0213 45.288 79.0213 43.362C79.0213 41.454 81.0913 40.32 84.4573 40.32ZM84.4573 41.49C82.0093 41.49 80.5153 42.174 80.5153 43.362C80.5153 44.532 82.0093 45.216 84.4573 45.216C86.9053 45.216 88.3993 44.532 88.3993 43.362C88.3993 42.174 86.9053 41.49 84.4573 41.49ZM80.5693 31.77H81.7933V33.084C81.7933 36.09 79.9573 38.664 77.2573 39.672L76.4833 38.484C78.8953 37.602 80.5693 35.424 80.5693 33.084V31.77ZM80.8573 31.77H82.0633V33.084C82.0633 35.19 83.6473 37.206 86.0053 38.034L85.2493 39.222C82.6033 38.268 80.8573 35.82 80.8573 33.084V31.77ZM76.9333 31.32H85.6273V32.544H76.9333V31.32ZM98.2619 31.302C100.8 31.302 102.618 32.868 102.618 35.136C102.618 37.422 100.8 38.988 98.2619 38.988C95.7239 38.988 93.8879 37.422 93.8879 35.136C93.8879 32.868 95.7239 31.302 98.2619 31.302ZM98.2619 32.598C96.5699 32.598 95.3459 33.624 95.3459 35.136C95.3459 36.648 96.5699 37.692 98.2619 37.692C99.9359 37.692 101.16 36.648 101.16 35.136C101.16 33.624 99.9359 32.598 98.2619 32.598ZM104.742 30.114H106.236V46.422H104.742V30.114ZM93.2759 42.858L93.0599 41.616C96.0299 41.616 100.134 41.598 103.68 41.04L103.806 42.138C100.152 42.84 96.1739 42.858 93.2759 42.858ZM49.3736 60.132H50.8676V69.924H49.3736V60.132ZM50.4536 64.452H53.2796V65.694H50.4536V64.452ZM40.6436 70.842H50.8676V76.188H40.6436V70.842ZM49.4096 72.048H42.1016V74.982H49.4096V72.048ZM38.2856 61.842H47.8976V63.066H38.2856V61.842ZM43.0916 63.858C45.4136 63.858 46.9796 65.01 46.9796 66.774C46.9796 68.538 45.4136 69.654 43.0916 69.654C40.7516 69.654 39.1856 68.538 39.1856 66.774C39.1856 65.01 40.7516 63.858 43.0916 63.858ZM43.0916 65.01C41.5976 65.01 40.6076 65.694 40.6076 66.774C40.6076 67.836 41.5976 68.52 43.0916 68.52C44.5496 68.52 45.5576 67.836 45.5576 66.774C45.5576 65.694 44.5496 65.01 43.0916 65.01ZM42.3356 59.988H43.8296V62.472H42.3356V59.988ZM61.3782 60.708H62.6922V61.608C62.6922 64.722 59.5242 66.954 56.1402 67.53L55.5462 66.324C58.5162 65.874 61.3782 63.93 61.3782 61.608V60.708ZM61.6482 60.708H62.9442V61.608C62.9442 63.876 65.8422 65.874 68.7762 66.324L68.1822 67.53C64.8342 66.954 61.6482 64.686 61.6482 61.608V60.708ZM61.3782 70.212H62.8542V76.404H61.3782V70.212ZM54.8082 69.294H69.5142V70.536H54.8082V69.294ZM85.1053 64.344H88.7773V65.586H85.1053V64.344ZM88.3093 60.132H89.8033V69.834H88.3093V60.132ZM84.4573 70.32C87.8053 70.32 89.8753 71.454 89.8753 73.362C89.8753 75.288 87.8053 76.386 84.4573 76.386C81.0913 76.386 79.0213 75.288 79.0213 73.362C79.0213 71.454 81.0913 70.32 84.4573 70.32ZM84.4573 71.49C82.0093 71.49 80.5153 72.174 80.5153 73.362C80.5153 74.532 82.0093 75.216 84.4573 75.216C86.9053 75.216 88.3993 74.532 88.3993 73.362C88.3993 72.174 86.9053 71.49 84.4573 71.49ZM80.5693 61.77H81.7933V63.084C81.7933 66.09 79.9573 68.664 77.2573 69.672L76.4833 68.484C78.8953 67.602 80.5693 65.424 80.5693 63.084V61.77ZM80.8573 61.77H82.0633V63.084C82.0633 65.19 83.6473 67.206 86.0053 68.034L85.2493 69.222C82.6033 68.268 80.8573 65.82 80.8573 63.084V61.77ZM76.9333 61.32H85.6273V62.544H76.9333V61.32ZM98.2619 61.302C100.8 61.302 102.618 62.868 102.618 65.136C102.618 67.422 100.8 68.988 98.2619 68.988C95.7239 68.988 93.8879 67.422 93.8879 65.136C93.8879 62.868 95.7239 61.302 98.2619 61.302ZM98.2619 62.598C96.5699 62.598 95.3459 63.624 95.3459 65.136C95.3459 66.648 96.5699 67.692 98.2619 67.692C99.9359 67.692 101.16 66.648 101.16 65.136C101.16 63.624 99.9359 62.598 98.2619 62.598ZM104.742 60.114H106.236V76.422H104.742V60.114ZM93.2759 72.858L93.0599 71.616C96.0299 71.616 100.134 71.598 103.68 71.04L103.806 72.138C100.152 72.84 96.1739 72.858 93.2759 72.858Z" fill="black"/>
</svg>
