<svg width="387" height="49" viewBox="0 0 387 49" fill="none" xmlns="http://www.w3.org/2000/svg">
<path d="M4.70455 15.1598C3.95881 15.1598 3.28338 14.968 2.67827 14.5845C2.07741 14.1967 1.60014 13.6278 1.24645 12.8778C0.897017 12.1236 0.722301 11.1989 0.722301 10.1037C0.722301 8.97869 0.903409 8.04332 1.26562 7.29759C1.62784 6.54759 2.10938 5.98722 2.71023 5.61648C3.31534 5.24148 3.97798 5.05398 4.69815 5.05398C5.24787 5.05398 5.70597 5.14773 6.07244 5.33523C6.44318 5.51847 6.74148 5.74858 6.96733 6.02557C7.19744 6.2983 7.37216 6.56676 7.49148 6.83097H7.57457V1.90909H10.2912V15H7.60653V13.4276H7.49148C7.36364 13.7003 7.18253 13.9709 6.94815 14.2393C6.71804 14.5036 6.41761 14.723 6.04688 14.8977C5.6804 15.0724 5.23295 15.1598 4.70455 15.1598ZM5.56747 12.9929C6.00639 12.9929 6.37713 12.8736 6.67969 12.6349C6.98651 12.392 7.22088 12.0533 7.38281 11.6186C7.54901 11.1839 7.6321 10.6747 7.6321 10.0909C7.6321 9.5071 7.55114 9 7.3892 8.5696C7.22727 8.1392 6.9929 7.80682 6.68608 7.57244C6.37926 7.33807 6.00639 7.22088 5.56747 7.22088C5.12003 7.22088 4.7429 7.34233 4.43608 7.58523C4.12926 7.82812 3.89702 8.16477 3.73935 8.59517C3.58168 9.02557 3.50284 9.52415 3.50284 10.0909C3.50284 10.6619 3.58168 11.1669 3.73935 11.6058C3.90128 12.0405 4.13352 12.3814 4.43608 12.6286C4.7429 12.8714 5.12003 12.9929 5.56747 12.9929ZM17.0044 15.1918C15.9945 15.1918 15.1252 14.9872 14.3965 14.5781C13.6721 14.1648 13.1138 13.581 12.7218 12.8267C12.3297 12.0682 12.1337 11.1712 12.1337 10.1357C12.1337 9.12571 12.3297 8.23935 12.7218 7.47656C13.1138 6.71378 13.6657 6.11932 14.3773 5.69318C15.0932 5.26705 15.9327 5.05398 16.8958 5.05398C17.5435 5.05398 18.1465 5.15838 18.7047 5.36719C19.2672 5.57173 19.7573 5.88068 20.1749 6.29403C20.5968 6.70739 20.9249 7.22727 21.1593 7.85369C21.3936 8.47585 21.5108 9.20455 21.5108 10.0398V10.7876H13.2203V9.10014H18.9476C18.9476 8.7081 18.8624 8.3608 18.6919 8.05824C18.5215 7.75568 18.285 7.51918 17.9824 7.34872C17.6841 7.17401 17.3368 7.08665 16.9405 7.08665C16.5272 7.08665 16.1607 7.18253 15.8411 7.37429C15.5257 7.56179 15.2786 7.81534 15.0996 8.13494C14.9206 8.45028 14.829 8.80185 14.8248 9.18963V10.794C14.8248 11.2798 14.9142 11.6996 15.0932 12.0533C15.2765 12.407 15.5343 12.6797 15.8667 12.8714C16.199 13.0632 16.5932 13.1591 17.0492 13.1591C17.3517 13.1591 17.6287 13.1165 17.8801 13.0312C18.1316 12.946 18.3468 12.8182 18.5257 12.6477C18.7047 12.4773 18.8411 12.2685 18.9348 12.0213L21.4533 12.1875C21.3255 12.7926 21.0634 13.321 20.6671 13.7727C20.275 14.2202 19.7679 14.5696 19.1458 14.821C18.5279 15.0682 17.8141 15.1918 17.0044 15.1918ZM28.5676 5.18182V7.22727H22.508V5.18182H28.5676ZM23.8951 15V4.4723C23.8951 3.76065 24.0336 3.17045 24.3105 2.7017C24.5918 2.23295 24.9753 1.88139 25.4611 1.64702C25.9469 1.41264 26.4988 1.29545 27.1167 1.29545C27.5343 1.29545 27.9157 1.32741 28.2608 1.39134C28.6103 1.45526 28.8702 1.51278 29.0407 1.56392L28.5549 3.60938C28.4483 3.57528 28.3162 3.54332 28.1586 3.51349C28.0051 3.48366 27.8475 3.46875 27.6855 3.46875C27.285 3.46875 27.0059 3.5625 26.8482 3.75C26.6905 3.93324 26.6117 4.19105 26.6117 4.52344V15H23.8951ZM37.5804 15.2301C36.9583 15.2301 36.3936 15.1129 35.8865 14.8786C35.3794 14.6399 34.9767 14.2969 34.6784 13.8494C34.3801 13.3977 34.231 12.8523 34.231 12.2131C34.231 11.6506 34.3418 11.1946 34.5634 10.8452C34.785 10.4915 35.0811 10.2145 35.4519 10.0142C35.8226 9.81392 36.2317 9.66477 36.6792 9.56676C37.1309 9.46449 37.5847 9.38352 38.0407 9.32386C38.6373 9.24716 39.1209 9.18963 39.4917 9.15128C39.8667 9.10866 40.1394 9.03835 40.3098 8.94034C40.4846 8.84233 40.5719 8.67187 40.5719 8.42898V8.37784C40.5719 7.74716 40.3993 7.2571 40.0542 6.90767C39.7132 6.55824 39.1955 6.38352 38.5009 6.38352C37.7807 6.38352 37.2161 6.54119 36.807 6.85653C36.3979 7.17187 36.1103 7.50852 35.9441 7.86648L34.5123 7.35511C34.7679 6.75852 35.1088 6.29403 35.535 5.96165C35.9654 5.625 36.4341 5.39062 36.9412 5.25852C37.4526 5.12216 37.9554 5.05398 38.4498 5.05398C38.7651 5.05398 39.1273 5.09233 39.5364 5.16903C39.9498 5.24148 40.3482 5.39276 40.7317 5.62287C41.1195 5.85298 41.4412 6.20028 41.6969 6.66477C41.9526 7.12926 42.0804 7.75142 42.0804 8.53125V15H40.5719V13.6705H40.4952C40.3929 13.8835 40.2225 14.1115 39.9838 14.3544C39.7452 14.5973 39.4277 14.804 39.0314 14.9744C38.6351 15.1449 38.1515 15.2301 37.5804 15.2301ZM37.8105 13.875C38.4071 13.875 38.91 13.7578 39.3191 13.5234C39.7324 13.2891 40.0435 12.9865 40.2523 12.6158C40.4654 12.245 40.5719 11.8551 40.5719 11.446V10.0653C40.508 10.142 40.3674 10.2124 40.15 10.2763C39.937 10.3359 39.6898 10.3892 39.4086 10.4361C39.1316 10.4787 38.861 10.517 38.5968 10.5511C38.3368 10.581 38.1259 10.6065 37.964 10.6278C37.5719 10.679 37.2054 10.7621 36.8645 10.8771C36.5279 10.9879 36.2551 11.1562 36.0463 11.3821C35.8418 11.6037 35.7395 11.9062 35.7395 12.2898C35.7395 12.8139 35.9334 13.2102 36.3212 13.4787C36.7132 13.7429 37.2097 13.875 37.8105 13.875ZM48.5412 15.2045C47.723 15.2045 47.0007 14.9979 46.3743 14.5845C45.7479 14.1669 45.2578 13.5788 44.9041 12.8203C44.5504 12.0575 44.3736 11.1562 44.3736 10.1165C44.3736 9.08523 44.5504 8.19034 44.9041 7.43182C45.2578 6.6733 45.75 6.08736 46.3807 5.67401C47.0114 5.26065 47.7401 5.05398 48.5668 5.05398C49.206 5.05398 49.7109 5.16051 50.0817 5.37358C50.4567 5.58239 50.7422 5.82102 50.9382 6.08949C51.1385 6.35369 51.294 6.57102 51.4048 6.74148H51.5327V1.90909H53.0412V15H51.5838V13.4915H51.4048C51.294 13.6705 51.1364 13.8963 50.9318 14.169C50.7273 14.4375 50.4354 14.6783 50.0561 14.8913C49.6768 15.1001 49.1719 15.2045 48.5412 15.2045ZM48.7457 13.8494C49.3509 13.8494 49.8622 13.6918 50.2798 13.3764C50.6974 13.0568 51.0149 12.6158 51.2322 12.0533C51.4496 11.4865 51.5582 10.8324 51.5582 10.0909C51.5582 9.35795 51.4517 8.71662 51.2386 8.1669C51.0256 7.61293 50.7102 7.18253 50.2926 6.87571C49.875 6.56463 49.3594 6.40909 48.7457 6.40909C48.1065 6.40909 47.5739 6.57315 47.1477 6.90128C46.7259 7.22514 46.4084 7.66619 46.1953 8.22443C45.9865 8.77841 45.8821 9.40057 45.8821 10.0909C45.8821 10.7898 45.9886 11.4247 46.2017 11.9957C46.419 12.5625 46.7386 13.0142 47.1605 13.3509C47.5866 13.6832 48.1151 13.8494 48.7457 13.8494ZM59.7209 15.2045C58.9027 15.2045 58.1804 14.9979 57.554 14.5845C56.9276 14.1669 56.4375 13.5788 56.0838 12.8203C55.7301 12.0575 55.5533 11.1562 55.5533 10.1165C55.5533 9.08523 55.7301 8.19034 56.0838 7.43182C56.4375 6.6733 56.9297 6.08736 57.5604 5.67401C58.1911 5.26065 58.9197 5.05398 59.7464 5.05398C60.3857 5.05398 60.8906 5.16051 61.2614 5.37358C61.6364 5.58239 61.9219 5.82102 62.1179 6.08949C62.3182 6.35369 62.4737 6.57102 62.5845 6.74148H62.7124V1.90909H64.2209V15H62.7635V13.4915H62.5845C62.4737 13.6705 62.3161 13.8963 62.1115 14.169C61.907 14.4375 61.6151 14.6783 61.2358 14.8913C60.8565 15.1001 60.3516 15.2045 59.7209 15.2045ZM59.9254 13.8494C60.5305 13.8494 61.0419 13.6918 61.4595 13.3764C61.8771 13.0568 62.1946 12.6158 62.4119 12.0533C62.6293 11.4865 62.7379 10.8324 62.7379 10.0909C62.7379 9.35795 62.6314 8.71662 62.4183 8.1669C62.2053 7.61293 61.8899 7.18253 61.4723 6.87571C61.0547 6.56463 60.5391 6.40909 59.9254 6.40909C59.2862 6.40909 58.7536 6.57315 58.3274 6.90128C57.9055 7.22514 57.5881 7.66619 57.375 8.22443C57.1662 8.77841 57.0618 9.40057 57.0618 10.0909C57.0618 10.7898 57.1683 11.4247 57.3814 11.9957C57.5987 12.5625 57.9183 13.0142 58.3402 13.3509C58.7663 13.6832 59.2947 13.8494 59.9254 13.8494ZM74.584 15V16.4062H66.4022V15H74.584ZM78.2818 9.09375V15H76.7733V5.18182H78.2306V6.71591H78.3585C78.5886 6.21733 78.938 5.81676 79.4068 5.5142C79.8755 5.20739 80.4806 5.05398 81.2221 5.05398C81.8869 5.05398 82.4686 5.19034 82.9672 5.46307C83.4657 5.73153 83.8535 6.14062 84.1305 6.69034C84.4075 7.2358 84.546 7.92614 84.546 8.76136V15H83.0375V8.86364C83.0375 8.09233 82.8372 7.49148 82.4366 7.06108C82.036 6.62642 81.4863 6.40909 80.7875 6.40909C80.3059 6.40909 79.8755 6.51349 79.4963 6.7223C79.1213 6.93111 78.8251 7.2358 78.6078 7.63636C78.3904 8.03693 78.2818 8.52273 78.2818 9.09375ZM93.4901 10.9858V5.18182H94.9986V15H93.4901V13.3381H93.3878C93.1577 13.8366 92.7997 14.2607 92.3139 14.6101C91.8281 14.9553 91.2145 15.1278 90.473 15.1278C89.8594 15.1278 89.3139 14.9936 88.8366 14.7251C88.3594 14.4524 87.9844 14.0433 87.7116 13.4979C87.4389 12.9482 87.3026 12.2557 87.3026 11.4205V5.18182H88.8111V11.3182C88.8111 12.0341 89.0114 12.6051 89.4119 13.0312C89.8168 13.4574 90.3324 13.6705 90.9588 13.6705C91.3338 13.6705 91.7152 13.5746 92.103 13.3828C92.495 13.1911 92.8232 12.897 93.0874 12.5007C93.3558 12.1044 93.4901 11.5994 93.4901 10.9858ZM97.7615 15V5.18182H99.2189V6.71591H99.3468C99.5513 6.19176 99.8816 5.7848 100.338 5.49503C100.794 5.20099 101.341 5.05398 101.98 5.05398C102.628 5.05398 103.167 5.20099 103.597 5.49503C104.032 5.7848 104.371 6.19176 104.614 6.71591H104.716C104.968 6.20881 105.345 5.80611 105.847 5.50781C106.35 5.20526 106.953 5.05398 107.656 5.05398C108.534 5.05398 109.252 5.32884 109.811 5.87855C110.369 6.42401 110.648 7.27415 110.648 8.42898V15H109.139V8.42898C109.139 7.70455 108.941 7.18679 108.545 6.87571C108.149 6.56463 107.682 6.40909 107.145 6.40909C106.455 6.40909 105.92 6.6179 105.541 7.03551C105.161 7.44886 104.972 7.97301 104.972 8.60795V15H103.438V8.27557C103.438 7.71733 103.257 7.26776 102.894 6.92685C102.532 6.58168 102.066 6.40909 101.494 6.40909C101.102 6.40909 100.736 6.51349 100.395 6.7223C100.058 6.93111 99.7857 7.22088 99.5769 7.59162C99.3723 7.9581 99.2701 8.3821 99.2701 8.86364V15H97.7615ZM113.611 15V1.90909H115.119V6.74148H115.247C115.358 6.57102 115.511 6.35369 115.707 6.08949C115.907 5.82102 116.193 5.58239 116.564 5.37358C116.939 5.16051 117.446 5.05398 118.085 5.05398C118.912 5.05398 119.64 5.26065 120.271 5.67401C120.902 6.08736 121.394 6.6733 121.748 7.43182C122.101 8.19034 122.278 9.08523 122.278 10.1165C122.278 11.1562 122.101 12.0575 121.748 12.8203C121.394 13.5788 120.904 14.1669 120.278 14.5845C119.651 14.9979 118.929 15.2045 118.111 15.2045C117.48 15.2045 116.975 15.1001 116.596 14.8913C116.216 14.6783 115.925 14.4375 115.72 14.169C115.515 13.8963 115.358 13.6705 115.247 13.4915H115.068V15H113.611ZM115.094 10.0909C115.094 10.8324 115.202 11.4865 115.42 12.0533C115.637 12.6158 115.954 13.0568 116.372 13.3764C116.79 13.6918 117.301 13.8494 117.906 13.8494C118.537 13.8494 119.063 13.6832 119.485 13.3509C119.911 13.0142 120.231 12.5625 120.444 11.9957C120.661 11.4247 120.77 10.7898 120.77 10.0909C120.77 9.40057 120.663 8.77841 120.45 8.22443C120.241 7.66619 119.924 7.22514 119.498 6.90128C119.076 6.57315 118.545 6.40909 117.906 6.40909C117.292 6.40909 116.777 6.56463 116.359 6.87571C115.942 7.18253 115.626 7.61293 115.413 8.1669C115.2 8.71662 115.094 9.35795 115.094 10.0909ZM128.702 15.2045C127.756 15.2045 126.94 14.9957 126.254 14.5781C125.572 14.1562 125.046 13.5682 124.675 12.8139C124.309 12.0554 124.126 11.1733 124.126 10.1676C124.126 9.16193 124.309 8.27557 124.675 7.50852C125.046 6.73722 125.562 6.13636 126.222 5.70597C126.887 5.27131 127.662 5.05398 128.549 5.05398C129.06 5.05398 129.565 5.1392 130.064 5.30966C130.562 5.48011 131.016 5.7571 131.425 6.14062C131.834 6.51989 132.16 7.02273 132.403 7.64915C132.646 8.27557 132.768 9.04687 132.768 9.96307V10.6023H125.199V9.2983H131.233C131.233 8.74432 131.123 8.25 130.901 7.81534C130.684 7.38068 130.373 7.03764 129.968 6.78622C129.567 6.5348 129.094 6.40909 128.549 6.40909C127.948 6.40909 127.428 6.55824 126.989 6.85653C126.555 7.15057 126.22 7.53409 125.986 8.0071C125.751 8.48011 125.634 8.98722 125.634 9.52841V10.3977C125.634 11.1392 125.762 11.7678 126.018 12.2834C126.278 12.7947 126.638 13.1847 127.098 13.4531C127.558 13.7173 128.093 13.8494 128.702 13.8494C129.099 13.8494 129.456 13.794 129.776 13.6832C130.1 13.5682 130.379 13.3977 130.613 13.1719C130.848 12.9418 131.029 12.6562 131.157 12.3153L132.614 12.7244C132.461 13.2188 132.203 13.6534 131.841 14.0284C131.479 14.3991 131.031 14.6889 130.498 14.8977C129.966 15.1023 129.367 15.2045 128.702 15.2045ZM135.062 15V5.18182H136.52V6.66477H136.622C136.801 6.17898 137.125 5.7848 137.594 5.48224C138.062 5.17969 138.591 5.02841 139.179 5.02841C139.29 5.02841 139.428 5.03054 139.594 5.0348C139.76 5.03906 139.886 5.04545 139.971 5.05398V6.58807C139.92 6.57528 139.803 6.55611 139.62 6.53054C139.441 6.50071 139.251 6.4858 139.051 6.4858C138.574 6.4858 138.148 6.58594 137.773 6.78622C137.402 6.98224 137.108 7.25497 136.89 7.6044C136.677 7.94957 136.571 8.34375 136.571 8.78693V15H135.062ZM148.714 7.38068L147.359 7.7642C147.274 7.53835 147.148 7.31889 146.982 7.10582C146.82 6.88849 146.598 6.70952 146.317 6.56889C146.036 6.42827 145.676 6.35795 145.237 6.35795C144.636 6.35795 144.135 6.49645 143.735 6.77344C143.338 7.04616 143.14 7.39347 143.14 7.81534C143.14 8.19034 143.277 8.48651 143.549 8.70384C143.822 8.92116 144.248 9.10227 144.828 9.24716L146.285 9.60511C147.163 9.81818 147.817 10.1442 148.248 10.5831C148.678 11.0178 148.893 11.5781 148.893 12.2642C148.893 12.8267 148.731 13.3295 148.407 13.7727C148.088 14.2159 147.64 14.5653 147.065 14.821C146.49 15.0767 145.821 15.2045 145.058 15.2045C144.056 15.2045 143.228 14.9872 142.571 14.5526C141.915 14.1179 141.5 13.483 141.325 12.6477L142.757 12.2898C142.893 12.8182 143.151 13.2145 143.53 13.4787C143.914 13.7429 144.414 13.875 145.032 13.875C145.735 13.875 146.294 13.7259 146.707 13.4276C147.125 13.125 147.333 12.7628 147.333 12.3409C147.333 12 147.214 11.7145 146.975 11.4844C146.737 11.25 146.37 11.0753 145.876 10.9602L144.24 10.5767C143.341 10.3636 142.68 10.0334 142.258 9.58594C141.841 9.13423 141.632 8.5696 141.632 7.89205C141.632 7.33807 141.787 6.84801 142.098 6.42188C142.414 5.99574 142.842 5.66122 143.383 5.41832C143.929 5.17543 144.547 5.05398 145.237 5.05398C146.208 5.05398 146.971 5.26705 147.525 5.69318C148.083 6.11932 148.48 6.68182 148.714 7.38068ZM151.701 9.47727C151.701 7.86648 151.91 6.38565 152.327 5.0348C152.749 3.67969 153.35 2.43324 154.13 1.29545H155.459C155.153 1.71733 154.865 2.23722 154.596 2.85511C154.332 3.46875 154.1 4.14418 153.9 4.88139C153.699 5.61435 153.542 6.37287 153.427 7.15696C153.316 7.94105 153.26 8.71449 153.26 9.47727C153.26 10.4915 153.358 11.5206 153.555 12.5646C153.751 13.6087 154.015 14.5781 154.347 15.473C154.68 16.3679 155.05 17.0966 155.459 17.6591H154.13C153.35 16.5213 152.749 15.277 152.327 13.9261C151.91 12.571 151.701 11.0881 151.701 9.47727ZM159.194 9.09375V15H157.685V5.18182H159.143V6.71591H159.271C159.501 6.21733 159.85 5.81676 160.319 5.5142C160.788 5.20739 161.393 5.05398 162.134 5.05398C162.799 5.05398 163.381 5.19034 163.879 5.46307C164.378 5.73153 164.766 6.14062 165.043 6.69034C165.32 7.2358 165.458 7.92614 165.458 8.76136V15H163.95V8.86364C163.95 8.09233 163.749 7.49148 163.349 7.06108C162.948 6.62642 162.398 6.40909 161.7 6.40909C161.218 6.40909 160.788 6.51349 160.408 6.7223C160.033 6.93111 159.737 7.2358 159.52 7.63636C159.303 8.03693 159.194 8.52273 159.194 9.09375ZM174.402 10.9858V5.18182H175.911V15H174.402V13.3381H174.3C174.07 13.8366 173.712 14.2607 173.226 14.6101C172.74 14.9553 172.127 15.1278 171.385 15.1278C170.771 15.1278 170.226 14.9936 169.749 14.7251C169.271 14.4524 168.896 14.0433 168.624 13.4979C168.351 12.9482 168.215 12.2557 168.215 11.4205V5.18182H169.723V11.3182C169.723 12.0341 169.923 12.6051 170.324 13.0312C170.729 13.4574 171.244 13.6705 171.871 13.6705C172.246 13.6705 172.627 13.5746 173.015 13.3828C173.407 13.1911 173.735 12.897 173.999 12.5007C174.268 12.1044 174.402 11.5994 174.402 10.9858ZM178.674 15V5.18182H180.131V6.71591H180.259C180.463 6.19176 180.794 5.7848 181.25 5.49503C181.706 5.20099 182.253 5.05398 182.892 5.05398C183.54 5.05398 184.079 5.20099 184.51 5.49503C184.944 5.7848 185.283 6.19176 185.526 6.71591H185.628C185.88 6.20881 186.257 5.80611 186.76 5.50781C187.262 5.20526 187.865 5.05398 188.569 5.05398C189.446 5.05398 190.164 5.32884 190.723 5.87855C191.281 6.42401 191.56 7.27415 191.56 8.42898V15H190.051V8.42898C190.051 7.70455 189.853 7.18679 189.457 6.87571C189.061 6.56463 188.594 6.40909 188.057 6.40909C187.367 6.40909 186.832 6.6179 186.453 7.03551C186.074 7.44886 185.884 7.97301 185.884 8.60795V15H184.35V8.27557C184.35 7.71733 184.169 7.26776 183.806 6.92685C183.444 6.58168 182.978 6.40909 182.407 6.40909C182.015 6.40909 181.648 6.51349 181.307 6.7223C180.971 6.93111 180.698 7.22088 180.489 7.59162C180.284 7.9581 180.182 8.3821 180.182 8.86364V15H178.674ZM198.174 1.90909V15H196.589V3.57102H196.512L193.316 5.69318V4.08239L196.589 1.90909H198.174ZM203.441 13.2102L203.339 13.9006C203.267 14.3864 203.156 14.9062 203.007 15.4602C202.862 16.0142 202.71 16.5362 202.553 17.0263C202.395 17.5163 202.265 17.9063 202.163 18.196H201.012C201.068 17.9233 201.14 17.5632 201.23 17.1158C201.319 16.6683 201.409 16.1676 201.498 15.6136C201.592 15.0639 201.669 14.5014 201.728 13.9261L201.805 13.2102H203.441ZM212.807 9.09375V15H211.299V5.18182H212.756V6.71591H212.884C213.114 6.21733 213.463 5.81676 213.932 5.5142C214.401 5.20739 215.006 5.05398 215.748 5.05398C216.412 5.05398 216.994 5.19034 217.493 5.46307C217.991 5.73153 218.379 6.14062 218.656 6.69034C218.933 7.2358 219.071 7.92614 219.071 8.76136V15H217.563V8.86364C217.563 8.09233 217.363 7.49148 216.962 7.06108C216.561 6.62642 216.012 6.40909 215.313 6.40909C214.831 6.40909 214.401 6.51349 214.022 6.7223C213.647 6.93111 213.35 7.2358 213.133 7.63636C212.916 8.03693 212.807 8.52273 212.807 9.09375ZM228.015 10.9858V5.18182H229.524V15H228.015V13.3381H227.913C227.683 13.8366 227.325 14.2607 226.839 14.6101C226.354 14.9553 225.74 15.1278 224.998 15.1278C224.385 15.1278 223.839 14.9936 223.362 14.7251C222.885 14.4524 222.51 14.0433 222.237 13.4979C221.964 12.9482 221.828 12.2557 221.828 11.4205V5.18182H223.336V11.3182C223.336 12.0341 223.537 12.6051 223.937 13.0312C224.342 13.4574 224.858 13.6705 225.484 13.6705C225.859 13.6705 226.241 13.5746 226.628 13.3828C227.02 13.1911 227.349 12.897 227.613 12.5007C227.881 12.1044 228.015 11.5994 228.015 10.9858ZM232.287 15V5.18182H233.744V6.71591H233.872C234.077 6.19176 234.407 5.7848 234.863 5.49503C235.319 5.20099 235.866 5.05398 236.506 5.05398C237.153 5.05398 237.692 5.20099 238.123 5.49503C238.558 5.7848 238.896 6.19176 239.139 6.71591H239.241C239.493 6.20881 239.87 5.80611 240.373 5.50781C240.876 5.20526 241.479 5.05398 242.182 5.05398C243.06 5.05398 243.778 5.32884 244.336 5.87855C244.894 6.42401 245.173 7.27415 245.173 8.42898V15H243.665V8.42898C243.665 7.70455 243.467 7.18679 243.07 6.87571C242.674 6.56463 242.207 6.40909 241.67 6.40909C240.98 6.40909 240.445 6.6179 240.066 7.03551C239.687 7.44886 239.497 7.97301 239.497 8.60795V15H237.963V8.27557C237.963 7.71733 237.782 7.26776 237.42 6.92685C237.058 6.58168 236.591 6.40909 236.02 6.40909C235.628 6.40909 235.261 6.51349 234.92 6.7223C234.584 6.93111 234.311 7.22088 234.102 7.59162C233.898 7.9581 233.795 8.3821 233.795 8.86364V15H232.287ZM247.906 15V13.8494L252.227 9.11932C252.734 8.56534 253.152 8.08381 253.48 7.67472C253.808 7.26136 254.051 6.87358 254.208 6.51136C254.37 6.14489 254.451 5.76136 254.451 5.3608C254.451 4.90057 254.341 4.50213 254.119 4.16548C253.902 3.82883 253.603 3.56889 253.224 3.38565C252.845 3.20241 252.419 3.1108 251.946 3.1108C251.443 3.1108 251.004 3.2152 250.629 3.42401C250.258 3.62855 249.971 3.91619 249.766 4.28693C249.566 4.65767 249.466 5.09233 249.466 5.59091H247.957C247.957 4.82386 248.134 4.15057 248.488 3.57102C248.841 2.99148 249.323 2.53977 249.932 2.21591C250.546 1.89204 251.234 1.73011 251.997 1.73011C252.764 1.73011 253.444 1.89204 254.036 2.21591C254.628 2.53977 255.093 2.97656 255.429 3.52628C255.766 4.07599 255.934 4.6875 255.934 5.3608C255.934 5.84233 255.847 6.31321 255.672 6.77344C255.502 7.2294 255.203 7.73864 254.777 8.30114C254.355 8.85937 253.77 9.54119 253.02 10.3466L250.079 13.4915V13.5938H256.164V15H247.906ZM262.051 8.45455C262.051 10.0653 261.841 11.5483 261.419 12.9034C261.001 14.2543 260.402 15.4986 259.623 16.6364H258.293C258.6 16.2145 258.885 15.6946 259.15 15.0767C259.418 14.4631 259.652 13.7898 259.853 13.0568C260.053 12.3196 260.208 11.5589 260.319 10.7749C260.434 9.98651 260.492 9.21307 260.492 8.45455C260.492 7.44034 260.394 6.41122 260.198 5.36719C260.002 4.32315 259.738 3.35369 259.405 2.45881C259.073 1.56392 258.702 0.835227 258.293 0.272726H259.623C260.402 1.41051 261.001 2.65696 261.419 4.01207C261.841 5.36293 262.051 6.84375 262.051 8.45455ZM266.451 13.3253C266.135 13.3253 265.865 13.2124 265.639 12.9865C265.413 12.7607 265.3 12.4901 265.3 12.1747C265.3 11.8594 265.413 11.5888 265.639 11.3629C265.865 11.1371 266.135 11.0241 266.451 11.0241C266.766 11.0241 267.037 11.1371 267.263 11.3629C267.488 11.5888 267.601 11.8594 267.601 12.1747C267.601 12.3835 267.548 12.5753 267.442 12.75C267.339 12.9247 267.201 13.0653 267.026 13.1719C266.856 13.2741 266.664 13.3253 266.451 13.3253ZM266.451 6.70312C266.135 6.70312 265.865 6.5902 265.639 6.36435C265.413 6.13849 265.3 5.8679 265.3 5.55256C265.3 5.23722 265.413 4.96662 265.639 4.74077C265.865 4.51491 266.135 4.40199 266.451 4.40199C266.766 4.40199 267.037 4.51491 267.263 4.74077C267.488 4.96662 267.601 5.23722 267.601 5.55256C267.601 5.76136 267.548 5.95312 267.442 6.12784C267.339 6.30256 267.201 6.44318 267.026 6.54972C266.856 6.65199 266.664 6.70312 266.451 6.70312ZM34.7088 48.6818V35.1818H36.1662V36.7415H36.3452C36.456 36.571 36.6094 36.3537 36.8054 36.0895C37.0057 35.821 37.2912 35.5824 37.6619 35.3736C38.0369 35.1605 38.544 35.054 39.1832 35.054C40.0099 35.054 40.7386 35.2607 41.3693 35.674C42 36.0874 42.4922 36.6733 42.8459 37.4318C43.1996 38.1903 43.3764 39.0852 43.3764 40.1165C43.3764 41.1562 43.1996 42.0575 42.8459 42.8203C42.4922 43.5788 42.0021 44.1669 41.3757 44.5845C40.7493 44.9979 40.027 45.2045 39.2088 45.2045C38.5781 45.2045 38.0732 45.1001 37.6939 44.8913C37.3146 44.6783 37.0227 44.4375 36.8182 44.169C36.6136 43.8963 36.456 43.6705 36.3452 43.4915H36.2173V48.6818H34.7088ZM36.1918 40.0909C36.1918 40.8324 36.3004 41.4865 36.5178 42.0533C36.7351 42.6158 37.0526 43.0568 37.4702 43.3764C37.8878 43.6918 38.3991 43.8494 39.0043 43.8494C39.6349 43.8494 40.1612 43.6832 40.5831 43.3509C41.0092 43.0142 41.3288 42.5625 41.5419 41.9957C41.7592 41.4247 41.8679 40.7898 41.8679 40.0909C41.8679 39.4006 41.7614 38.7784 41.5483 38.2244C41.3395 37.6662 41.022 37.2251 40.5959 36.9013C40.174 36.5732 39.6435 36.4091 39.0043 36.4091C38.3906 36.4091 37.875 36.5646 37.4574 36.8757C37.0398 37.1825 36.7244 37.6129 36.5114 38.1669C36.2983 38.7166 36.1918 39.358 36.1918 40.0909ZM45.6776 45V35.1818H47.1349V36.6648H47.2372C47.4162 36.179 47.7401 35.7848 48.2088 35.4822C48.6776 35.1797 49.206 35.0284 49.794 35.0284C49.9048 35.0284 50.0433 35.0305 50.2095 35.0348C50.3757 35.0391 50.5014 35.0455 50.5866 35.054V36.5881C50.5355 36.5753 50.4183 36.5561 50.2351 36.5305C50.0561 36.5007 49.8665 36.4858 49.6662 36.4858C49.1889 36.4858 48.7628 36.5859 48.3878 36.7862C48.017 36.9822 47.723 37.255 47.5057 37.6044C47.2926 37.9496 47.1861 38.3437 47.1861 38.7869V45H45.6776ZM52.3748 45V35.1818H53.8833V45H52.3748ZM53.1419 33.5455C52.8478 33.5455 52.5943 33.4453 52.3812 33.245C52.1724 33.0447 52.068 32.804 52.068 32.5227C52.068 32.2415 52.1724 32.0007 52.3812 31.8004C52.5943 31.6001 52.8478 31.5 53.1419 31.5C53.4359 31.5 53.6873 31.6001 53.8961 31.8004C54.1092 32.0007 54.2157 32.2415 54.2157 32.5227C54.2157 32.804 54.1092 33.0447 53.8961 33.245C53.6873 33.4453 53.4359 33.5455 53.1419 33.5455ZM58.1548 39.0938V45H56.6463V35.1818H58.1037V36.7159H58.2315C58.4616 36.2173 58.8111 35.8168 59.2798 35.5142C59.7486 35.2074 60.3537 35.054 61.0952 35.054C61.7599 35.054 62.3416 35.1903 62.8402 35.4631C63.3388 35.7315 63.7266 36.1406 64.0036 36.6903C64.2805 37.2358 64.419 37.9261 64.419 38.7614V45H62.9105V38.8636C62.9105 38.0923 62.7102 37.4915 62.3097 37.0611C61.9091 36.6264 61.3594 36.4091 60.6605 36.4091C60.179 36.4091 59.7486 36.5135 59.3693 36.7223C58.9943 36.9311 58.6982 37.2358 58.4808 37.6364C58.2635 38.0369 58.1548 38.5227 58.1548 39.0938ZM71.4455 35.1818V36.4602H66.3574V35.1818H71.4455ZM67.8404 32.8295H69.3489V42.1875C69.3489 42.6136 69.4107 42.9332 69.5343 43.1463C69.6621 43.3551 69.824 43.4957 70.0201 43.5682C70.2203 43.6364 70.4313 43.6705 70.6529 43.6705C70.8191 43.6705 70.9554 43.6619 71.062 43.6449C71.1685 43.6236 71.2537 43.6065 71.3176 43.5938L71.6245 44.9489C71.5222 44.9872 71.3794 45.0256 71.1962 45.0639C71.013 45.1065 70.7807 45.1278 70.4995 45.1278C70.0733 45.1278 69.6557 45.0362 69.2466 44.853C68.8418 44.6697 68.5051 44.3906 68.2367 44.0156C67.9725 43.6406 67.8404 43.1676 67.8404 42.5966V32.8295ZM74.2516 39.4773C74.2516 37.8665 74.4604 36.3857 74.878 35.0348C75.2999 33.6797 75.9007 32.4332 76.6806 31.2955H78.0101C77.7033 31.7173 77.4157 32.2372 77.1472 32.8551C76.883 33.4687 76.6507 34.1442 76.4505 34.8814C76.2502 35.6143 76.0925 36.3729 75.9775 37.157C75.8667 37.9411 75.8113 38.7145 75.8113 39.4773C75.8113 40.4915 75.9093 41.5206 76.1053 42.5646C76.3013 43.6087 76.5655 44.5781 76.8979 45.473C77.2303 46.3679 77.601 47.0966 78.0101 47.6591H76.6806C75.9007 46.5213 75.2999 45.277 74.878 43.9261C74.4604 42.571 74.2516 41.0881 74.2516 39.4773ZM81.5401 31.9091V36.4091H80.1339V31.9091H81.5401ZM84.8129 31.9091V36.4091H83.4066V31.9091H84.8129ZM98.1392 30.132H99.6332V39.582H98.1392V30.132ZM98.9852 34.272H102.045V35.532H98.9852V34.272ZM89.4092 40.302H90.8672V42.03H98.1572V40.302H99.6332V46.188H89.4092V40.302ZM90.8672 43.182V44.982H98.1572V43.182H90.8672ZM87.0512 31.788H96.6632V33.012H87.0512V31.788ZM91.8572 33.75C94.1792 33.75 95.7452 34.884 95.7452 36.612C95.7452 38.34 94.1792 39.474 91.8572 39.474C89.5172 39.474 87.9512 38.34 87.9512 36.612C87.9512 34.884 89.5172 33.75 91.8572 33.75ZM91.8572 34.884C90.3632 34.884 89.3732 35.568 89.3732 36.612C89.3732 37.656 90.3632 38.34 91.8572 38.34C93.3152 38.34 94.3232 37.656 94.3232 36.612C94.3232 35.568 93.3152 34.884 91.8572 34.884ZM91.1012 29.97H92.5952V32.454H91.1012V29.97ZM107.57 31.122H108.794V33.12C108.794 36.306 107.03 38.844 104.294 39.906L103.502 38.718C105.986 37.836 107.57 35.64 107.57 33.12V31.122ZM107.822 31.122H109.046V33.174C109.046 35.388 110.666 37.476 113.042 38.322L112.304 39.492C109.622 38.52 107.822 36.036 107.822 33.174V31.122ZM114.698 30.114H116.192V42.138H114.698V30.114ZM115.724 35.118H118.604V36.36H115.724V35.118ZM106.094 44.82H116.912V46.044H106.094V44.82ZM106.094 41.004H107.588V45.414H106.094V41.004ZM137.075 30.132H138.569V38.43H137.075V30.132ZM131.927 30.924H133.547C133.547 35.028 130.721 37.656 125.969 38.808L125.447 37.584C129.659 36.612 131.927 34.47 131.927 31.662V30.924ZM126.293 30.924H132.611V32.148H126.293V30.924ZM132.971 32.472H137.327V33.66H132.971V32.472ZM132.827 35.586H137.237V36.756H132.827V35.586ZM128.093 39.186H138.569V43.182H129.623V45.774H128.147V42.03H137.093V40.392H128.093V39.186ZM128.147 45.054H139.109V46.242H128.147V45.054ZM142.474 31.914H149.836V33.12H142.474V31.914ZM145.012 36.558H146.488V42.066H145.012V36.558ZM149.224 31.914H150.682V32.778C150.682 34.11 150.682 36.234 150.214 39.258L148.738 39.114C149.224 36.18 149.224 34.092 149.224 32.778V31.914ZM152.734 30.132H154.21V46.404H152.734V30.132ZM153.814 36.936H156.82V38.196H153.814V36.936ZM141.754 42.858L141.574 41.598C144.526 41.598 148.45 41.544 151.744 41.13L151.816 42.228C148.45 42.768 144.634 42.84 141.754 42.858ZM160.292 35.01H171.344V36.234H160.292V35.01ZM158.294 38.412H173.054V39.636H158.294V38.412ZM160.292 30.726H161.768V35.622H160.292V30.726ZM160.184 44.784H171.434V46.008H160.184V44.784ZM160.184 41.256H161.66V45.108H160.184V41.256ZM176.655 31.9091V36.4091H175.249V31.9091H176.655ZM179.928 31.9091V36.4091H178.522V31.9091H179.928ZM183.385 43.2102L183.282 43.9006C183.21 44.3864 183.099 44.9062 182.95 45.4602C182.805 46.0142 182.654 46.5362 182.496 47.0263C182.338 47.5163 182.208 47.9063 182.106 48.196H180.956C181.011 47.9233 181.083 47.5632 181.173 47.1158C181.262 46.6683 181.352 46.1676 181.441 45.6136C181.535 45.0639 181.612 44.5014 181.672 43.9261L181.748 43.2102H183.385ZM192.751 39.0938V45H191.242V35.1818H192.699V36.7159H192.827C193.057 36.2173 193.407 35.8168 193.876 35.5142C194.344 35.2074 194.949 35.054 195.691 35.054C196.356 35.054 196.937 35.1903 197.436 35.4631C197.934 35.7315 198.322 36.1406 198.599 36.6903C198.876 37.2358 199.015 37.9261 199.015 38.7614V45H197.506V38.8636C197.506 38.0923 197.306 37.4915 196.905 37.0611C196.505 36.6264 195.955 36.4091 195.256 36.4091C194.775 36.4091 194.344 36.5135 193.965 36.7223C193.59 36.9311 193.294 37.2358 193.077 37.6364C192.859 38.0369 192.751 38.5227 192.751 39.0938ZM207.959 40.9858V35.1818H209.467V45H207.959V43.3381H207.857C207.626 43.8366 207.268 44.2607 206.783 44.6101C206.297 44.9553 205.683 45.1278 204.942 45.1278C204.328 45.1278 203.783 44.9936 203.305 44.7251C202.828 44.4524 202.453 44.0433 202.18 43.4979C201.908 42.9482 201.771 42.2557 201.771 41.4205V35.1818H203.28V41.3182C203.28 42.0341 203.48 42.6051 203.881 43.0312C204.286 43.4574 204.801 43.6705 205.428 43.6705C205.803 43.6705 206.184 43.5746 206.572 43.3828C206.964 43.1911 207.292 42.897 207.556 42.5007C207.825 42.1044 207.959 41.5994 207.959 40.9858ZM212.23 45V35.1818H213.688V36.7159H213.816C214.02 36.1918 214.35 35.7848 214.806 35.495C215.262 35.201 215.81 35.054 216.449 35.054C217.097 35.054 217.636 35.201 218.066 35.495C218.501 35.7848 218.84 36.1918 219.083 36.7159H219.185C219.436 36.2088 219.813 35.8061 220.316 35.5078C220.819 35.2053 221.422 35.054 222.125 35.054C223.003 35.054 223.721 35.3288 224.279 35.8786C224.838 36.424 225.117 37.2741 225.117 38.429V45H223.608V38.429C223.608 37.7045 223.41 37.1868 223.014 36.8757C222.617 36.5646 222.151 36.4091 221.614 36.4091C220.923 36.4091 220.389 36.6179 220.009 37.0355C219.63 37.4489 219.441 37.973 219.441 38.608V45H217.906V38.2756C217.906 37.7173 217.725 37.2678 217.363 36.9268C217.001 36.5817 216.534 36.4091 215.963 36.4091C215.571 36.4091 215.205 36.5135 214.864 36.7223C214.527 36.9311 214.254 37.2209 214.046 37.5916C213.841 37.9581 213.739 38.3821 213.739 38.8636V45H212.23ZM231.731 31.9091V45H230.146V33.571H230.069L226.873 35.6932V34.0824L230.146 31.9091H231.731ZM244.419 42.6989V34.2614H245.851V42.6989H244.419ZM240.916 39.196V37.7642H249.354V39.196H240.916ZM259.02 39.0938V45H257.512V35.1818H258.969V36.7159H259.097C259.327 36.2173 259.676 35.8168 260.145 35.5142C260.614 35.2074 261.219 35.054 261.96 35.054C262.625 35.054 263.207 35.1903 263.705 35.4631C264.204 35.7315 264.592 36.1406 264.869 36.6903C265.146 37.2358 265.284 37.9261 265.284 38.7614V45H263.776V38.8636C263.776 38.0923 263.575 37.4915 263.175 37.0611C262.774 36.6264 262.225 36.4091 261.526 36.4091C261.044 36.4091 260.614 36.5135 260.235 36.7223C259.86 36.9311 259.563 37.2358 259.346 37.6364C259.129 38.0369 259.02 38.5227 259.02 39.0938ZM274.228 40.9858V35.1818H275.737V45H274.228V43.3381H274.126C273.896 43.8366 273.538 44.2607 273.052 44.6101C272.566 44.9553 271.953 45.1278 271.211 45.1278C270.598 45.1278 270.052 44.9936 269.575 44.7251C269.098 44.4524 268.723 44.0433 268.45 43.4979C268.177 42.9482 268.041 42.2557 268.041 41.4205V35.1818H269.549V41.3182C269.549 42.0341 269.75 42.6051 270.15 43.0312C270.555 43.4574 271.071 43.6705 271.697 43.6705C272.072 43.6705 272.453 43.5746 272.841 43.3828C273.233 43.1911 273.561 42.897 273.826 42.5007C274.094 42.1044 274.228 41.5994 274.228 40.9858ZM278.5 45V35.1818H279.957V36.7159H280.085C280.29 36.1918 280.62 35.7848 281.076 35.495C281.532 35.201 282.079 35.054 282.719 35.054C283.366 35.054 283.905 35.201 284.336 35.495C284.77 35.7848 285.109 36.1918 285.352 36.7159H285.454C285.706 36.2088 286.083 35.8061 286.586 35.5078C287.089 35.2053 287.692 35.054 288.395 35.054C289.273 35.054 289.991 35.3288 290.549 35.8786C291.107 36.424 291.386 37.2741 291.386 38.429V45H289.878V38.429C289.878 37.7045 289.68 37.1868 289.283 36.8757C288.887 36.5646 288.42 36.4091 287.883 36.4091C287.193 36.4091 286.658 36.6179 286.279 37.0355C285.9 37.4489 285.71 37.973 285.71 38.608V45H284.176V38.2756C284.176 37.7173 283.995 37.2678 283.633 36.9268C283.27 36.5817 282.804 36.4091 282.233 36.4091C281.841 36.4091 281.474 36.5135 281.133 36.7223C280.797 36.9311 280.524 37.2209 280.315 37.5916C280.111 37.9581 280.008 38.3821 280.008 38.8636V45H278.5ZM294.119 45V43.8494L298.44 39.1193C298.947 38.5653 299.365 38.0838 299.693 37.6747C300.021 37.2614 300.264 36.8736 300.421 36.5114C300.583 36.1449 300.664 35.7614 300.664 35.3608C300.664 34.9006 300.553 34.5021 300.332 34.1655C300.115 33.8288 299.816 33.5689 299.437 33.3857C299.058 33.2024 298.632 33.1108 298.159 33.1108C297.656 33.1108 297.217 33.2152 296.842 33.424C296.471 33.6286 296.183 33.9162 295.979 34.2869C295.779 34.6577 295.678 35.0923 295.678 35.5909H294.17C294.17 34.8239 294.347 34.1506 294.7 33.571C295.054 32.9915 295.536 32.5398 296.145 32.2159C296.759 31.892 297.447 31.7301 298.21 31.7301C298.977 31.7301 299.656 31.892 300.249 32.2159C300.841 32.5398 301.306 32.9766 301.642 33.5263C301.979 34.076 302.147 34.6875 302.147 35.3608C302.147 35.8423 302.06 36.3132 301.885 36.7734C301.715 37.2294 301.416 37.7386 300.99 38.3011C300.568 38.8594 299.982 39.5412 299.232 40.3466L296.292 43.4915V43.5938H302.377V45H294.119ZM307.293 43.2102L307.191 43.9006C307.118 44.3864 307.007 44.9062 306.858 45.4602C306.713 46.0142 306.562 46.5362 306.404 47.0263C306.247 47.5163 306.117 47.9063 306.014 48.196H304.864C304.919 47.9233 304.992 47.5632 305.081 47.1158C305.171 46.6683 305.26 46.1676 305.35 45.6136C305.443 45.0639 305.52 44.5014 305.58 43.9261L305.656 43.2102H307.293ZM316.454 31.9091V36.4091H315.048V31.9091H316.454ZM319.727 31.9091V36.4091H318.321V31.9091H319.727ZM333.755 30.132H335.267V38.862H333.755V30.132ZM324.773 39.672H326.249V41.652H333.791V39.672H335.267V46.188H324.773V39.672ZM326.249 42.84V44.982H333.791V42.84H326.249ZM326.537 30.906C329.003 30.906 330.767 32.436 330.767 34.65C330.767 36.882 329.003 38.412 326.537 38.412C324.071 38.412 322.289 36.882 322.289 34.65C322.289 32.436 324.071 30.906 326.537 30.906ZM326.537 32.148C324.917 32.148 323.747 33.174 323.747 34.65C323.747 36.126 324.917 37.152 326.537 37.152C328.157 37.152 329.327 36.126 329.327 34.65C329.327 33.174 328.157 32.148 326.537 32.148ZM350.314 30.132H351.808V46.404H350.314V30.132ZM339.514 31.716H340.99V41.796H339.514V31.716ZM339.514 40.914H340.846C343.312 40.914 345.886 40.734 348.64 40.158L348.82 41.436C345.994 42.012 343.42 42.21 340.846 42.21H339.514V40.914ZM366.044 30.114H367.556V46.422H366.044V30.114ZM367.196 36.54H370.22V37.8H367.196V36.54ZM355.73 41.112H357.008C360.014 41.112 362.12 41.004 364.55 40.554L364.712 41.814C362.21 42.282 360.068 42.372 357.008 42.372H355.73V41.112ZM355.73 31.698H363.29V32.922H357.206V41.67H355.73V31.698ZM373.185 45.1023C372.87 45.1023 372.599 44.9893 372.373 44.7635C372.148 44.5376 372.035 44.267 372.035 43.9517C372.035 43.6364 372.148 43.3658 372.373 43.1399C372.599 42.9141 372.87 42.8011 373.185 42.8011C373.501 42.8011 373.771 42.9141 373.997 43.1399C374.223 43.3658 374.336 43.6364 374.336 43.9517C374.336 44.1605 374.282 44.3523 374.176 44.527C374.074 44.7017 373.935 44.8423 373.76 44.9489C373.59 45.0511 373.398 45.1023 373.185 45.1023ZM376.87 31.9091V36.4091H375.464V31.9091H376.87ZM380.143 31.9091V36.4091H378.737V31.9091H380.143ZM386.048 39.4773C386.048 41.0881 385.837 42.571 385.415 43.9261C384.997 45.277 384.398 46.5213 383.619 47.6591H382.289C382.596 47.2372 382.881 46.7173 383.146 46.0994C383.414 45.4858 383.648 44.8125 383.849 44.0795C384.049 43.3423 384.205 42.5817 384.315 41.7976C384.43 41.0092 384.488 40.2358 384.488 39.4773C384.488 38.4631 384.39 37.4339 384.194 36.3899C383.998 35.3459 383.734 34.3764 383.401 33.4815C383.069 32.5866 382.698 31.858 382.289 31.2955H383.619C384.398 32.4332 384.997 33.6797 385.415 35.0348C385.837 36.3857 386.048 37.8665 386.048 39.4773Z" fill="black"/>
</svg>
