<svg width="384" height="182" viewBox="0 0 384 182" fill="none" xmlns="http://www.w3.org/2000/svg">
<path d="M112.979 103.937L128.704 108.713L127.124 113.924L111.399 109.142L112.979 103.937ZM109.222 116.291L124.947 121.072L126.527 115.867L110.802 111.085L109.222 116.291ZM124.353 123.074L108.623 118.292L107.043 123.491L122.773 128.279L124.353 123.074ZM120.051 80.6347L135.775 85.4167L137.355 80.2055L121.631 75.4236L120.051 80.6347ZM117.88 87.7833L133.604 92.5652L135.185 87.3482L119.46 82.5663L117.88 87.7833ZM115.689 94.9895L131.413 99.7714L132.993 94.572L117.268 89.7901L115.689 94.9895ZM113.53 102.127L129.249 106.908L130.828 101.703L115.11 96.9215L113.53 102.127ZM97.8352 138.387L103.805 140.062L105.628 133.561L116.445 136.587L114.615 143.099L120.584 144.78L124.123 132.161L101.374 125.773L97.8352 138.387ZM272.325 110.231L256.255 113.758L257.42 119.066L273.478 115.538L272.325 110.231ZM273.926 117.522L257.874 121.05L259.033 126.358L275.091 122.83L273.926 117.522ZM260.632 133.714L276.684 130.191L275.525 124.878L259.473 128.394L260.632 133.714ZM265.935 81.1296L249.883 84.6517L251.041 89.9709L267.093 86.4488L265.935 81.1296ZM267.524 88.4207L251.478 91.943L252.642 97.2625L268.689 93.7401L267.524 88.4207ZM269.141 95.7596L253.089 99.2876L254.248 104.589L270.301 101.061L269.141 95.7596ZM270.737 103.051L254.684 106.585L255.843 111.904L271.895 108.37L270.737 103.051ZM264.651 70.2394C264.274 64.6701 259.476 60.4481 253.911 60.8138C249.695 61.0864 246.262 63.9184 244.99 67.6843C242.707 64.1878 239.085 61.8617 234.928 61.6977L204.19 60.4848L194.719 60.111L194.269 60.0933L184.804 59.7198L154.055 58.5064C149.903 58.3426 146.109 60.3819 143.557 63.6876C142.598 59.8278 139.393 56.7339 135.212 56.1299C129.694 55.321 124.571 59.1515 123.763 64.6799C122.96 70.2026 126.781 75.3284 132.305 76.1316C135.259 76.5584 138.085 75.6573 140.213 73.886L138.064 128.339C137.737 136.625 143.388 143.573 150.687 143.861L164.561 144.408L164.306 150.86L163.715 165.832L155.698 165.515C152.644 165.395 150.07 167.775 149.95 170.82C149.83 173.876 152.202 176.457 155.261 176.578L163.279 176.894L171.302 177.211L177.713 177.464L178.741 151.418L190.659 151.888L191.108 151.906L203.02 152.376L201.993 178.422L208.404 178.675L216.421 178.991L224.439 179.308C227.492 179.428 230.066 177.042 230.187 173.986C230.307 170.941 227.929 168.366 224.875 168.245L216.852 167.929L217.443 152.963L217.697 146.511L231.571 147.059C238.87 147.347 245.056 140.866 245.383 132.579L247.532 78.1208C249.52 80.0546 252.265 81.1755 255.232 80.9824C260.808 80.6171 265.016 75.8082 264.651 70.2394ZM282.156 132.906L258.962 137.481L261.502 150.341L267.591 149.135L266.268 142.499L277.289 140.335L278.612 146.972L284.69 145.76L282.156 132.906ZM194.523 53.8114L155.05 52.2538L155.738 34.8276C156.398 18.0909 168.635 4.98339 183.082 5.55344L196.413 6.06779L196.442 6.06894L196.822 6.08392L196.857 6.0853L210.175 6.62257C224.622 7.19262 235.788 21.2237 235.128 37.9603L234.44 55.3924L194.967 53.8348L194.932 53.8334L194.552 53.8184L194.552 53.8126L194.523 53.8114ZM181.436 33.6292L195.298 34.1763L195.747 34.194L209.61 34.741C214.994 34.9534 219.54 30.7549 219.752 25.361C219.965 19.9672 215.77 15.4237 210.38 15.211L196.518 14.664L196.069 14.6463L182.206 14.0993C176.823 13.8868 172.276 18.0854 172.064 23.4792C171.851 28.8731 176.046 33.4166 181.436 33.6292ZM186.925 50.1462L194.656 50.4512L195.105 50.469L202.836 50.7741C205.89 50.8946 208.452 48.514 208.573 45.4577C208.693 42.4014 206.327 39.8264 203.273 39.7059L195.542 39.4008L195.092 39.3831L187.361 39.078C184.307 38.9575 181.74 41.3378 181.619 44.3941C181.498 47.4504 183.871 50.0257 186.925 50.1462ZM185.403 18.457C182.349 18.3365 179.775 20.7166 179.655 23.7729C179.534 26.8292 181.912 29.4047 184.966 29.5252C188.02 29.6457 190.594 27.2656 190.714 24.2093C190.835 21.153 188.457 18.5776 185.403 18.457ZM206.414 30.3715C209.462 30.4918 212.041 28.112 212.162 25.0557C212.282 21.9993 209.898 19.4236 206.85 19.3034C203.802 19.1831 201.229 21.5632 201.108 24.6195C200.987 27.6758 203.36 30.251 206.414 30.3715Z" fill="#262937"/>
<rect x="101.573" y="74.6748" width="37" height="73" transform="rotate(8.46269 101.573 74.6748)" fill="white"/>
<path d="M120.323 73.1196L98.4621 83.0025L75.0455 89.0589L50.0123 94.3106L26.399 95.351" stroke="#262937" stroke-width="14"/>
<rect x="248.103" y="82.3916" width="37" height="73" transform="rotate(-6.4591 248.103 82.3916)" fill="white"/>
<path d="M266.938 78.9053L287.953 90.48L310.819 98.3627L335.361 105.571L358.819 108.469" stroke="#262937" stroke-width="14"/>
<g filter="url(#filter0_dd_1258_1400)">
<rect x="6.46094" y="76.6328" width="374" height="47" rx="6" transform="rotate(2.25974 6.46094 76.6328)" fill="white"/>
<rect x="7.90063" y="78.1908" width="371" height="44" rx="4.5" transform="rotate(2.25974 7.90063 78.1908)" stroke="#818181" stroke-width="3"/>
</g>
<path d="M36.7863 99.3169L37.668 99.3516L37.6332 100.233L36.7515 100.199L36.7863 99.3169ZM37.668 99.3516L38.5497 99.3864L38.5149 100.268L37.6332 100.233L37.668 99.3516ZM38.5497 99.3864L39.4313 99.4212L39.3965 100.303L38.5149 100.268L38.5497 99.3864ZM38.5149 100.268L39.3965 100.303L39.3618 101.185L38.4801 101.15L38.5149 100.268ZM38.4801 101.15L39.3618 101.185L39.327 102.066L38.4453 102.031L38.4801 101.15ZM38.4453 102.031L39.327 102.066L39.2922 102.948L38.4105 102.913L38.4453 102.031ZM37.5636 101.997L38.4453 102.031L38.4105 102.913L37.5288 102.878L37.5636 101.997ZM36.682 101.962L37.5636 101.997L37.5288 102.878L36.6472 102.844L36.682 101.962ZM35.8003 101.927L36.682 101.962L36.6472 102.844L35.7655 102.809L35.8003 101.927ZM35.8351 101.045L36.7168 101.08L36.682 101.962L35.8003 101.927L35.8351 101.045ZM35.8699 100.164L36.7515 100.199L36.7168 101.08L35.8351 101.045L35.8699 100.164ZM35.9047 99.2821L36.7863 99.3169L36.7515 100.199L35.8699 100.164L35.9047 99.2821ZM36.7515 100.199L37.6332 100.233L37.5984 101.115L36.7168 101.08L36.7515 100.199ZM37.6332 100.233L38.5149 100.268L38.4801 101.15L37.5984 101.115L37.6332 100.233ZM36.7168 101.08L37.5984 101.115L37.5636 101.997L36.682 101.962L36.7168 101.08ZM37.5984 101.115L38.4801 101.15L38.4453 102.031L37.5636 101.997L37.5984 101.115ZM43.5627 99.5842L44.4444 99.619L44.4096 100.501L43.5279 100.466L43.5627 99.5842ZM44.4444 99.619L45.326 99.6538L45.2912 100.535L44.4096 100.501L44.4444 99.619ZM45.326 99.6538L46.2077 99.6886L46.1729 100.57L45.2912 100.535L45.326 99.6538ZM45.2912 100.535L46.1729 100.57L46.1381 101.452L45.2565 101.417L45.2912 100.535ZM45.2565 101.417L46.1381 101.452L46.1033 102.334L45.2217 102.299L45.2565 101.417ZM45.2217 102.299L46.1033 102.334L46.0685 103.215L45.1869 103.18L45.2217 102.299ZM44.34 102.264L45.2217 102.299L45.1869 103.18L44.3052 103.146L44.34 102.264ZM43.4583 102.229L44.34 102.264L44.3052 103.146L43.4235 103.111L43.4583 102.229ZM42.5767 102.194L43.4583 102.229L43.4235 103.111L42.5419 103.076L42.5767 102.194ZM42.6115 101.313L43.4931 101.348L43.4583 102.229L42.5767 102.194L42.6115 101.313ZM42.6462 100.431L43.5279 100.466L43.4931 101.348L42.6115 101.313L42.6462 100.431ZM42.681 99.5495L43.5627 99.5842L43.5279 100.466L42.6462 100.431L42.681 99.5495ZM43.5279 100.466L44.4096 100.501L44.3748 101.382L43.4931 101.348L43.5279 100.466ZM44.4096 100.501L45.2912 100.535L45.2565 101.417L44.3748 101.382L44.4096 100.501ZM43.4931 101.348L44.3748 101.382L44.34 102.264L43.4583 102.229L43.4931 101.348ZM44.3748 101.382L45.2565 101.417L45.2217 102.299L44.34 102.264L44.3748 101.382ZM50.3391 99.8516L51.2207 99.8864L51.1859 100.768L50.3043 100.733L50.3391 99.8516ZM51.2207 99.8864L52.1024 99.9212L52.0676 100.803L51.1859 100.768L51.2207 99.8864ZM52.1024 99.9212L52.9841 99.956L52.9493 100.838L52.0676 100.803L52.1024 99.9212ZM52.0676 100.803L52.9493 100.838L52.9145 101.719L52.0328 101.685L52.0676 100.803ZM52.0328 101.685L52.9145 101.719L52.8797 102.601L51.998 102.566L52.0328 101.685ZM51.998 102.566L52.8797 102.601L52.8449 103.483L51.9632 103.448L51.998 102.566ZM51.1164 102.531L51.998 102.566L51.9632 103.448L51.0816 103.413L51.1164 102.531ZM50.2347 102.497L51.1164 102.531L51.0816 103.413L50.1999 103.378L50.2347 102.497ZM49.353 102.462L50.2347 102.497L50.1999 103.378L49.3182 103.344L49.353 102.462ZM49.3878 101.58L50.2695 101.615L50.2347 102.497L49.353 102.462L49.3878 101.58ZM49.4226 100.699L50.3043 100.733L50.2695 101.615L49.3878 101.58L49.4226 100.699ZM49.4574 99.8169L50.3391 99.8516L50.3043 100.733L49.4226 100.699L49.4574 99.8169ZM50.3043 100.733L51.1859 100.768L51.1512 101.65L50.2695 101.615L50.3043 100.733ZM51.1859 100.768L52.0676 100.803L52.0328 101.685L51.1512 101.65L51.1859 100.768ZM50.2695 101.615L51.1512 101.65L51.1164 102.531L50.2347 102.497L50.2695 101.615ZM51.1512 101.65L52.0328 101.685L51.998 102.566L51.1164 102.531L51.1512 101.65ZM77.4445 100.921L78.3262 100.956L78.2914 101.838L77.4097 101.803L77.4445 100.921ZM78.3262 100.956L79.2079 100.991L79.1731 101.872L78.2914 101.838L78.3262 100.956ZM79.2079 100.991L80.0895 101.026L80.0547 101.907L79.1731 101.872L79.2079 100.991ZM79.1731 101.872L80.0547 101.907L80.02 102.789L79.1383 102.754L79.1731 101.872ZM79.1383 102.754L80.02 102.789L79.9852 103.671L79.1035 103.636L79.1383 102.754ZM79.1035 103.636L79.9852 103.671L79.9504 104.552L79.0687 104.517L79.1035 103.636ZM78.2218 103.601L79.1035 103.636L79.0687 104.517L78.187 104.483L78.2218 103.601ZM77.3402 103.566L78.2218 103.601L78.187 104.483L77.3054 104.448L77.3402 103.566ZM76.4585 103.531L77.3402 103.566L77.3054 104.448L76.4237 104.413L76.4585 103.531ZM76.4933 102.65L77.375 102.685L77.3402 103.566L76.4585 103.531L76.4933 102.65ZM76.5281 101.768L77.4097 101.803L77.375 102.685L76.4933 102.65L76.5281 101.768ZM76.5629 100.886L77.4445 100.921L77.4097 101.803L76.5281 101.768L76.5629 100.886ZM77.4097 101.803L78.2914 101.838L78.2566 102.719L77.375 102.685L77.4097 101.803ZM78.2914 101.838L79.1731 101.872L79.1383 102.754L78.2566 102.719L78.2914 101.838ZM77.375 102.685L78.2566 102.719L78.2218 103.601L77.3402 103.566L77.375 102.685ZM78.2566 102.719L79.1383 102.754L79.1035 103.636L78.2218 103.601L78.2566 102.719ZM84.2209 101.189L85.1026 101.223L85.0678 102.105L84.1861 102.07L84.2209 101.189ZM85.1026 101.223L85.9842 101.258L85.9495 102.14L85.0678 102.105L85.1026 101.223ZM85.9842 101.258L86.8659 101.293L86.8311 102.175L85.9495 102.14L85.9842 101.258ZM85.9495 102.14L86.8311 102.175L86.7963 103.056L85.9147 103.022L85.9495 102.14ZM85.9147 103.022L86.7963 103.056L86.7615 103.938L85.8799 103.903L85.9147 103.022ZM85.8799 103.903L86.7615 103.938L86.7267 104.82L85.8451 104.785L85.8799 103.903ZM84.9982 103.868L85.8799 103.903L85.8451 104.785L84.9634 104.75L84.9982 103.868ZM84.1165 103.834L84.9982 103.868L84.9634 104.75L84.0817 104.715L84.1165 103.834ZM83.2349 103.799L84.1165 103.834L84.0817 104.715L83.2001 104.681L83.2349 103.799ZM83.2697 102.917L84.1513 102.952L84.1165 103.834L83.2349 103.799L83.2697 102.917ZM83.3045 102.036L84.1861 102.07L84.1513 102.952L83.2697 102.917L83.3045 102.036ZM83.3392 101.154L84.2209 101.189L84.1861 102.07L83.3045 102.036L83.3392 101.154ZM84.1861 102.07L85.0678 102.105L85.033 102.987L84.1513 102.952L84.1861 102.07ZM85.0678 102.105L85.9495 102.14L85.9147 103.022L85.033 102.987L85.0678 102.105ZM84.1513 102.952L85.033 102.987L84.9982 103.868L84.1165 103.834L84.1513 102.952ZM85.033 102.987L85.9147 103.022L85.8799 103.903L84.9982 103.868L85.033 102.987ZM90.9973 101.456L91.8789 101.491L91.8441 102.372L90.9625 102.338L90.9973 101.456ZM91.8789 101.491L92.7606 101.526L92.7258 102.407L91.8441 102.372L91.8789 101.491ZM92.7606 101.526L93.6423 101.56L93.6075 102.442L92.7258 102.407L92.7606 101.526ZM92.7258 102.407L93.6075 102.442L93.5727 103.324L92.691 103.289L92.7258 102.407ZM92.691 103.289L93.5727 103.324L93.5379 104.205L92.6562 104.171L92.691 103.289ZM92.6562 104.171L93.5379 104.205L93.5031 105.087L92.6214 105.052L92.6562 104.171ZM91.7746 104.136L92.6562 104.171L92.6214 105.052L91.7398 105.017L91.7746 104.136ZM90.8929 104.101L91.7746 104.136L91.7398 105.017L90.8581 104.983L90.8929 104.101ZM90.0112 104.066L90.8929 104.101L90.8581 104.983L89.9764 104.948L90.0112 104.066ZM90.046 103.185L90.9277 103.219L90.8929 104.101L90.0112 104.066L90.046 103.185ZM90.0808 102.303L90.9625 102.338L90.9277 103.219L90.046 103.185L90.0808 102.303ZM90.1156 101.421L90.9973 101.456L90.9625 102.338L90.0808 102.303L90.1156 101.421ZM90.9625 102.338L91.8441 102.372L91.8094 103.254L90.9277 103.219L90.9625 102.338ZM91.8441 102.372L92.7258 102.407L92.691 103.289L91.8094 103.254L91.8441 102.372ZM90.9277 103.219L91.8094 103.254L91.7746 104.136L90.8929 104.101L90.9277 103.219ZM91.8094 103.254L92.691 103.289L92.6562 104.171L91.7746 104.136L91.8094 103.254ZM104.55 101.991L105.432 102.026L105.397 102.907L104.515 102.872L104.55 101.991ZM105.432 102.026L106.313 102.06L106.279 102.942L105.397 102.907L105.432 102.026ZM106.313 102.06L107.195 102.095L107.16 102.977L106.279 102.942L106.313 102.06ZM106.279 102.942L107.16 102.977L107.125 103.859L106.244 103.824L106.279 102.942ZM106.244 103.824L107.125 103.859L107.091 104.74L106.209 104.705L106.244 103.824ZM106.209 104.705L107.091 104.74L107.056 105.622L106.174 105.587L106.209 104.705ZM105.327 104.671L106.209 104.705L106.174 105.587L105.293 105.552L105.327 104.671ZM104.446 104.636L105.327 104.671L105.293 105.552L104.411 105.517L104.446 104.636ZM103.564 104.601L104.446 104.636L104.411 105.517L103.529 105.483L103.564 104.601ZM103.599 103.719L104.48 103.754L104.446 104.636L103.564 104.601L103.599 103.719ZM103.634 102.838L104.515 102.872L104.48 103.754L103.599 103.719L103.634 102.838ZM103.668 101.956L104.55 101.991L104.515 102.872L103.634 102.838L103.668 101.956ZM104.515 102.872L105.397 102.907L105.362 103.789L104.48 103.754L104.515 102.872ZM105.397 102.907L106.279 102.942L106.244 103.824L105.362 103.789L105.397 102.907ZM104.48 103.754L105.362 103.789L105.327 104.671L104.446 104.636L104.48 103.754ZM105.362 103.789L106.244 103.824L106.209 104.705L105.327 104.671L105.362 103.789ZM111.326 102.258L112.208 102.293L112.173 103.175L111.292 103.14L111.326 102.258ZM112.208 102.293L113.09 102.328L113.055 103.209L112.173 103.175L112.208 102.293ZM113.09 102.328L113.971 102.363L113.937 103.244L113.055 103.209L113.09 102.328ZM113.055 103.209L113.937 103.244L113.902 104.126L113.02 104.091L113.055 103.209ZM113.02 104.091L113.902 104.126L113.867 105.008L112.985 104.973L113.02 104.091ZM112.985 104.973L113.867 105.008L113.832 105.889L112.951 105.854L112.985 104.973ZM112.104 104.938L112.985 104.973L112.951 105.854L112.069 105.82L112.104 104.938ZM111.222 104.903L112.104 104.938L112.069 105.82L111.187 105.785L111.222 104.903ZM110.34 104.868L111.222 104.903L111.187 105.785L110.306 105.75L110.34 104.868ZM110.375 103.987L111.257 104.022L111.222 104.903L110.34 104.868L110.375 103.987ZM110.41 103.105L111.292 103.14L111.257 104.022L110.375 103.987L110.41 103.105ZM110.445 102.223L111.326 102.258L111.292 103.14L110.41 103.105L110.445 102.223ZM111.292 103.14L112.173 103.175L112.138 104.056L111.257 104.022L111.292 103.14ZM112.173 103.175L113.055 103.209L113.02 104.091L112.138 104.056L112.173 103.175ZM111.257 104.022L112.138 104.056L112.104 104.938L111.222 104.903L111.257 104.022ZM112.138 104.056L113.02 104.091L112.985 104.973L112.104 104.938L112.138 104.056ZM118.103 102.526L118.984 102.56L118.95 103.442L118.068 103.407L118.103 102.526ZM118.984 102.56L119.866 102.595L119.831 103.477L118.95 103.442L118.984 102.56ZM119.866 102.595L120.748 102.63L120.713 103.512L119.831 103.477L119.866 102.595ZM119.831 103.477L120.713 103.512L120.678 104.393L119.796 104.359L119.831 103.477ZM119.796 104.359L120.678 104.393L120.643 105.275L119.762 105.24L119.796 104.359ZM119.762 105.24L120.643 105.275L120.609 106.157L119.727 106.122L119.762 105.24ZM118.88 105.205L119.762 105.24L119.727 106.122L118.845 106.087L118.88 105.205ZM117.998 105.171L118.88 105.205L118.845 106.087L117.964 106.052L117.998 105.171ZM117.117 105.136L117.998 105.171L117.964 106.052L117.082 106.017L117.117 105.136ZM117.151 104.254L118.033 104.289L117.998 105.171L117.117 105.136L117.151 104.254ZM117.186 103.372L118.068 103.407L118.033 104.289L117.151 104.254L117.186 103.372ZM117.221 102.491L118.103 102.526L118.068 103.407L117.186 103.372L117.221 102.491ZM118.068 103.407L118.95 103.442L118.915 104.324L118.033 104.289L118.068 103.407ZM118.95 103.442L119.831 103.477L119.796 104.359L118.915 104.324L118.95 103.442ZM118.033 104.289L118.915 104.324L118.88 105.205L117.998 105.171L118.033 104.289ZM118.915 104.324L119.796 104.359L119.762 105.24L118.88 105.205L118.915 104.324ZM131.655 103.06L132.537 103.095L132.502 103.977L131.621 103.942L131.655 103.06ZM132.537 103.095L133.419 103.13L133.384 104.012L132.502 103.977L132.537 103.095ZM133.419 103.13L134.3 103.165L134.266 104.046L133.384 104.012L133.419 103.13ZM133.384 104.012L134.266 104.046L134.231 104.928L133.349 104.893L133.384 104.012ZM133.349 104.893L134.231 104.928L134.196 105.81L133.314 105.775L133.349 104.893ZM133.314 105.775L134.196 105.81L134.161 106.691L133.28 106.657L133.314 105.775ZM132.433 105.74L133.314 105.775L133.28 106.657L132.398 106.622L132.433 105.74ZM131.551 105.705L132.433 105.74L132.398 106.622L131.516 106.587L131.551 105.705ZM130.669 105.671L131.551 105.705L131.516 106.587L130.635 106.552L130.669 105.671ZM130.704 104.789L131.586 104.824L131.551 105.705L130.669 105.671L130.704 104.789ZM130.739 103.907L131.621 103.942L131.586 104.824L130.704 104.789L130.739 103.907ZM130.774 103.026L131.655 103.06L131.621 103.942L130.739 103.907L130.774 103.026ZM131.621 103.942L132.502 103.977L132.468 104.859L131.586 104.824L131.621 103.942ZM132.502 103.977L133.384 104.012L133.349 104.893L132.468 104.859L132.502 103.977ZM131.586 104.824L132.468 104.859L132.433 105.74L131.551 105.705L131.586 104.824ZM132.468 104.859L133.349 104.893L133.314 105.775L132.433 105.74L132.468 104.859ZM145.208 103.595L146.09 103.63L146.055 104.512L145.173 104.477L145.208 103.595ZM146.09 103.63L146.972 103.665L146.937 104.546L146.055 104.512L146.09 103.63ZM146.972 103.665L147.853 103.7L147.818 104.581L146.937 104.546L146.972 103.665ZM146.937 104.546L147.818 104.581L147.784 105.463L146.902 105.428L146.937 104.546ZM146.902 105.428L147.784 105.463L147.749 106.345L146.867 106.31L146.902 105.428ZM146.867 106.31L147.749 106.345L147.714 107.226L146.832 107.191L146.867 106.31ZM145.986 106.275L146.867 106.31L146.832 107.191L145.951 107.157L145.986 106.275ZM145.104 106.24L145.986 106.275L145.951 107.157L145.069 107.122L145.104 106.24ZM144.222 106.205L145.104 106.24L145.069 107.122L144.187 107.087L144.222 106.205ZM144.257 105.324L145.139 105.359L145.104 106.24L144.222 106.205L144.257 105.324ZM144.292 104.442L145.173 104.477L145.139 105.359L144.257 105.324L144.292 104.442ZM144.327 103.56L145.208 103.595L145.173 104.477L144.292 104.442L144.327 103.56ZM145.173 104.477L146.055 104.512L146.02 105.393L145.139 105.359L145.173 104.477ZM146.055 104.512L146.937 104.546L146.902 105.428L146.02 105.393L146.055 104.512ZM145.139 105.359L146.02 105.393L145.986 106.275L145.104 106.24L145.139 105.359ZM146.02 105.393L146.902 105.428L146.867 106.31L145.986 106.275L146.02 105.393ZM151.985 103.863L152.866 103.897L152.831 104.779L151.95 104.744L151.985 103.863ZM152.866 103.897L153.748 103.932L153.713 104.814L152.831 104.779L152.866 103.897ZM153.748 103.932L154.63 103.967L154.595 104.849L153.713 104.814L153.748 103.932ZM153.713 104.814L154.595 104.849L154.56 105.73L153.678 105.696L153.713 104.814ZM153.678 105.696L154.56 105.73L154.525 106.612L153.644 106.577L153.678 105.696ZM153.644 106.577L154.525 106.612L154.49 107.494L153.609 107.459L153.644 106.577ZM152.762 106.542L153.644 106.577L153.609 107.459L152.727 107.424L152.762 106.542ZM151.88 106.508L152.762 106.542L152.727 107.424L151.845 107.389L151.88 106.508ZM150.999 106.473L151.88 106.508L151.845 107.389L150.964 107.354L150.999 106.473ZM151.033 105.591L151.915 105.626L151.88 106.508L150.999 106.473L151.033 105.591ZM151.068 104.709L151.95 104.744L151.915 105.626L151.033 105.591L151.068 104.709ZM151.103 103.828L151.985 103.863L151.95 104.744L151.068 104.709L151.103 103.828ZM151.95 104.744L152.831 104.779L152.797 105.661L151.915 105.626L151.95 104.744ZM152.831 104.779L153.713 104.814L153.678 105.696L152.797 105.661L152.831 104.779ZM151.915 105.626L152.797 105.661L152.762 106.542L151.88 106.508L151.915 105.626ZM152.797 105.661L153.678 105.696L153.644 106.577L152.762 106.542L152.797 105.661ZM158.761 104.13L159.643 104.165L159.608 105.046L158.726 105.012L158.761 104.13ZM159.643 104.165L160.524 104.2L160.489 105.081L159.608 105.046L159.643 104.165ZM160.524 104.2L161.406 104.234L161.371 105.116L160.489 105.081L160.524 104.2ZM160.489 105.081L161.371 105.116L161.336 105.998L160.455 105.963L160.489 105.081ZM160.455 105.963L161.336 105.998L161.302 106.879L160.42 106.845L160.455 105.963ZM160.42 106.845L161.302 106.879L161.267 107.761L160.385 107.726L160.42 106.845ZM159.538 106.81L160.42 106.845L160.385 107.726L159.503 107.691L159.538 106.81ZM158.657 106.775L159.538 106.81L159.503 107.691L158.622 107.657L158.657 106.775ZM157.775 106.74L158.657 106.775L158.622 107.657L157.74 107.622L157.775 106.74ZM157.81 105.859L158.691 105.893L158.657 106.775L157.775 106.74L157.81 105.859ZM157.844 104.977L158.726 105.012L158.691 105.893L157.81 105.859L157.844 104.977ZM157.879 104.095L158.761 104.13L158.726 105.012L157.844 104.977L157.879 104.095ZM158.726 105.012L159.608 105.046L159.573 105.928L158.691 105.893L158.726 105.012ZM159.608 105.046L160.489 105.081L160.455 105.963L159.573 105.928L159.608 105.046ZM158.691 105.893L159.573 105.928L159.538 106.81L158.657 106.775L158.691 105.893ZM159.573 105.928L160.455 105.963L160.42 106.845L159.538 106.81L159.573 105.928ZM165.537 104.397L166.419 104.432L166.384 105.314L165.503 105.279L165.537 104.397ZM166.419 104.432L167.301 104.467L167.266 105.349L166.384 105.314L166.419 104.432ZM167.301 104.467L168.182 104.502L168.148 105.383L167.266 105.349L167.301 104.467ZM167.266 105.349L168.148 105.383L168.113 106.265L167.231 106.23L167.266 105.349ZM167.231 106.23L168.113 106.265L168.078 107.147L167.196 107.112L167.231 106.23ZM167.196 107.112L168.078 107.147L168.043 108.028L167.161 107.994L167.196 107.112ZM166.315 107.077L167.196 107.112L167.161 107.994L166.28 107.959L166.315 107.077ZM165.433 107.042L166.315 107.077L166.28 107.959L165.398 107.924L165.433 107.042ZM164.551 107.008L165.433 107.042L165.398 107.924L164.516 107.889L164.551 107.008ZM164.586 106.126L165.468 106.161L165.433 107.042L164.551 107.008L164.586 106.126ZM164.621 105.244L165.503 105.279L165.468 106.161L164.586 106.126L164.621 105.244ZM164.656 104.363L165.537 104.397L165.503 105.279L164.621 105.244L164.656 104.363ZM165.503 105.279L166.384 105.314L166.349 106.196L165.468 106.161L165.503 105.279ZM166.384 105.314L167.266 105.349L167.231 106.23L166.349 106.196L166.384 105.314ZM165.468 106.161L166.349 106.196L166.315 107.077L165.433 107.042L165.468 106.161ZM166.349 106.196L167.231 106.23L167.196 107.112L166.315 107.077L166.349 106.196ZM179.09 104.932L179.972 104.967L179.937 105.849L179.055 105.814L179.09 104.932ZM179.972 104.967L180.853 105.002L180.819 105.883L179.937 105.849L179.972 104.967ZM180.853 105.002L181.735 105.037L181.7 105.918L180.819 105.883L180.853 105.002ZM180.819 105.883L181.7 105.918L181.665 106.8L180.784 106.765L180.819 105.883ZM180.784 106.765L181.665 106.8L181.631 107.682L180.749 107.647L180.784 106.765ZM180.749 107.647L181.631 107.682L181.596 108.563L180.714 108.528L180.749 107.647ZM179.867 107.612L180.749 107.647L180.714 108.528L179.833 108.494L179.867 107.612ZM178.986 107.577L179.867 107.612L179.833 108.494L178.951 108.459L178.986 107.577ZM178.104 107.542L178.986 107.577L178.951 108.459L178.069 108.424L178.104 107.542ZM178.139 106.661L179.02 106.696L178.986 107.577L178.104 107.542L178.139 106.661ZM178.174 105.779L179.055 105.814L179.02 106.696L178.139 106.661L178.174 105.779ZM178.208 104.897L179.09 104.932L179.055 105.814L178.174 105.779L178.208 104.897ZM179.055 105.814L179.937 105.849L179.902 106.73L179.02 106.696L179.055 105.814ZM179.937 105.849L180.819 105.883L180.784 106.765L179.902 106.73L179.937 105.849ZM179.02 106.696L179.902 106.73L179.867 107.612L178.986 107.577L179.02 106.696ZM179.902 106.73L180.784 106.765L180.749 107.647L179.867 107.612L179.902 106.73ZM185.866 105.2L186.748 105.234L186.713 106.116L185.832 106.081L185.866 105.2ZM186.748 105.234L187.63 105.269L187.595 106.151L186.713 106.116L186.748 105.234ZM187.63 105.269L188.511 105.304L188.477 106.186L187.595 106.151L187.63 105.269ZM187.595 106.151L188.477 106.186L188.442 107.067L187.56 107.033L187.595 106.151ZM187.56 107.033L188.442 107.067L188.407 107.949L187.525 107.914L187.56 107.033ZM187.525 107.914L188.407 107.949L188.372 108.831L187.491 108.796L187.525 107.914ZM186.644 107.879L187.525 107.914L187.491 108.796L186.609 108.761L186.644 107.879ZM185.762 107.845L186.644 107.879L186.609 108.761L185.727 108.726L185.762 107.845ZM184.88 107.81L185.762 107.845L185.727 108.726L184.846 108.691L184.88 107.81ZM184.915 106.928L185.797 106.963L185.762 107.845L184.88 107.81L184.915 106.928ZM184.95 106.046L185.832 106.081L185.797 106.963L184.915 106.928L184.95 106.046ZM184.985 105.165L185.866 105.2L185.832 106.081L184.95 106.046L184.985 105.165ZM185.832 106.081L186.713 106.116L186.678 106.998L185.797 106.963L185.832 106.081ZM186.713 106.116L187.595 106.151L187.56 107.033L186.678 106.998L186.713 106.116ZM185.797 106.963L186.678 106.998L186.644 107.879L185.762 107.845L185.797 106.963ZM186.678 106.998L187.56 107.033L187.525 107.914L186.644 107.879L186.678 106.998ZM192.643 105.467L193.524 105.502L193.49 106.383L192.608 106.349L192.643 105.467ZM193.524 105.502L194.406 105.537L194.371 106.418L193.49 106.383L193.524 105.502ZM194.406 105.537L195.288 105.571L195.253 106.453L194.371 106.418L194.406 105.537ZM194.371 106.418L195.253 106.453L195.218 107.335L194.337 107.3L194.371 106.418ZM194.337 107.3L195.218 107.335L195.183 108.216L194.302 108.182L194.337 107.3ZM194.302 108.182L195.183 108.216L195.149 109.098L194.267 109.063L194.302 108.182ZM193.42 108.147L194.302 108.182L194.267 109.063L193.385 109.028L193.42 108.147ZM192.538 108.112L193.42 108.147L193.385 109.028L192.504 108.994L192.538 108.112ZM191.657 108.077L192.538 108.112L192.504 108.994L191.622 108.959L191.657 108.077ZM191.692 107.196L192.573 107.23L192.538 108.112L191.657 108.077L191.692 107.196ZM191.726 106.314L192.608 106.349L192.573 107.23L191.692 107.196L191.726 106.314ZM191.761 105.432L192.643 105.467L192.608 106.349L191.726 106.314L191.761 105.432ZM192.608 106.349L193.49 106.383L193.455 107.265L192.573 107.23L192.608 106.349ZM193.49 106.383L194.371 106.418L194.337 107.3L193.455 107.265L193.49 106.383ZM192.573 107.23L193.455 107.265L193.42 108.147L192.538 108.112L192.573 107.23ZM193.455 107.265L194.337 107.3L194.302 108.182L193.42 108.147L193.455 107.265ZM206.196 106.002L207.077 106.037L207.042 106.918L206.161 106.883L206.196 106.002ZM207.077 106.037L207.959 106.071L207.924 106.953L207.042 106.918L207.077 106.037ZM207.959 106.071L208.841 106.106L208.806 106.988L207.924 106.953L207.959 106.071ZM207.924 106.953L208.806 106.988L208.771 107.869L207.889 107.835L207.924 106.953ZM207.889 107.835L208.771 107.869L208.736 108.751L207.854 108.716L207.889 107.835ZM207.854 108.716L208.736 108.751L208.701 109.633L207.82 109.598L207.854 108.716ZM206.973 108.682L207.854 108.716L207.82 109.598L206.938 109.563L206.973 108.682ZM206.091 108.647L206.973 108.682L206.938 109.563L206.056 109.528L206.091 108.647ZM205.209 108.612L206.091 108.647L206.056 109.528L205.175 109.494L205.209 108.612ZM205.244 107.73L206.126 107.765L206.091 108.647L205.209 108.612L205.244 107.73ZM205.279 106.849L206.161 106.883L206.126 107.765L205.244 107.73L205.279 106.849ZM205.314 105.967L206.196 106.002L206.161 106.883L205.279 106.849L205.314 105.967ZM206.161 106.883L207.042 106.918L207.008 107.8L206.126 107.765L206.161 106.883ZM207.042 106.918L207.924 106.953L207.889 107.835L207.008 107.8L207.042 106.918ZM206.126 107.765L207.008 107.8L206.973 108.682L206.091 108.647L206.126 107.765ZM207.008 107.8L207.889 107.835L207.854 108.716L206.973 108.682L207.008 107.8ZM212.972 106.269L213.854 106.304L213.819 107.186L212.937 107.151L212.972 106.269ZM213.854 106.304L214.735 106.339L214.7 107.22L213.819 107.186L213.854 106.304ZM214.735 106.339L215.617 106.374L215.582 107.255L214.7 107.22L214.735 106.339ZM214.7 107.22L215.582 107.255L215.547 108.137L214.666 108.102L214.7 107.22ZM214.666 108.102L215.547 108.137L215.513 109.019L214.631 108.984L214.666 108.102ZM214.631 108.984L215.513 109.019L215.478 109.9L214.596 109.865L214.631 108.984ZM213.749 108.949L214.631 108.984L214.596 109.865L213.714 109.831L213.749 108.949ZM212.868 108.914L213.749 108.949L213.714 109.831L212.833 109.796L212.868 108.914ZM211.986 108.879L212.868 108.914L212.833 109.796L211.951 109.761L211.986 108.879ZM212.021 107.998L212.902 108.033L212.868 108.914L211.986 108.879L212.021 107.998ZM212.055 107.116L212.937 107.151L212.902 108.033L212.021 107.998L212.055 107.116ZM212.09 106.234L212.972 106.269L212.937 107.151L212.055 107.116L212.09 106.234ZM212.937 107.151L213.819 107.186L213.784 108.067L212.902 108.033L212.937 107.151ZM213.819 107.186L214.7 107.22L214.666 108.102L213.784 108.067L213.819 107.186ZM212.902 108.033L213.784 108.067L213.749 108.949L212.868 108.914L212.902 108.033ZM213.784 108.067L214.666 108.102L214.631 108.984L213.749 108.949L213.784 108.067ZM219.748 106.537L220.63 106.571L220.595 107.453L219.713 107.418L219.748 106.537ZM220.63 106.571L221.512 106.606L221.477 107.488L220.595 107.453L220.63 106.571ZM221.512 106.606L222.393 106.641L222.358 107.523L221.477 107.488L221.512 106.606ZM221.477 107.488L222.358 107.523L222.324 108.404L221.442 108.369L221.477 107.488ZM221.442 108.369L222.324 108.404L222.289 109.286L221.407 109.251L221.442 108.369ZM221.407 109.251L222.289 109.286L222.254 110.168L221.372 110.133L221.407 109.251ZM220.526 109.216L221.407 109.251L221.372 110.133L220.491 110.098L220.526 109.216ZM219.644 109.182L220.526 109.216L220.491 110.098L219.609 110.063L219.644 109.182ZM218.762 109.147L219.644 109.182L219.609 110.063L218.727 110.028L218.762 109.147ZM218.797 108.265L219.679 108.3L219.644 109.182L218.762 109.147L218.797 108.265ZM218.832 107.383L219.713 107.418L219.679 108.3L218.797 108.265L218.832 107.383ZM218.867 106.502L219.748 106.537L219.713 107.418L218.832 107.383L218.867 106.502ZM219.713 107.418L220.595 107.453L220.56 108.335L219.679 108.3L219.713 107.418ZM220.595 107.453L221.477 107.488L221.442 108.369L220.56 108.335L220.595 107.453ZM219.679 108.3L220.56 108.335L220.526 109.216L219.644 109.182L219.679 108.3ZM220.56 108.335L221.442 108.369L221.407 109.251L220.526 109.216L220.56 108.335ZM233.301 107.071L234.183 107.106L234.148 107.988L233.266 107.953L233.301 107.071ZM234.183 107.106L235.064 107.141L235.03 108.023L234.148 107.988L234.183 107.106ZM235.064 107.141L235.946 107.176L235.911 108.057L235.03 108.023L235.064 107.141ZM235.03 108.023L235.911 108.057L235.876 108.939L234.995 108.904L235.03 108.023ZM234.995 108.904L235.876 108.939L235.842 109.821L234.96 109.786L234.995 108.904ZM234.96 109.786L235.842 109.821L235.807 110.702L234.925 110.668L234.96 109.786ZM234.078 109.751L234.96 109.786L234.925 110.668L234.043 110.633L234.078 109.751ZM233.197 109.716L234.078 109.751L234.043 110.633L233.162 110.598L233.197 109.716ZM232.315 109.682L233.197 109.716L233.162 110.598L232.28 110.563L232.315 109.682ZM232.35 108.8L233.231 108.835L233.197 109.716L232.315 109.682L232.35 108.8ZM232.385 107.918L233.266 107.953L233.231 108.835L232.35 108.8L232.385 107.918ZM232.419 107.037L233.301 107.071L233.266 107.953L232.385 107.918L232.419 107.037ZM233.266 107.953L234.148 107.988L234.113 108.87L233.231 108.835L233.266 107.953ZM234.148 107.988L235.03 108.023L234.995 108.904L234.113 108.87L234.148 107.988ZM233.231 108.835L234.113 108.87L234.078 109.751L233.197 109.716L233.231 108.835ZM234.113 108.87L234.995 108.904L234.96 109.786L234.078 109.751L234.113 108.87ZM246.854 107.606L247.735 107.641L247.701 108.523L246.819 108.488L246.854 107.606ZM247.735 107.641L248.617 107.676L248.582 108.557L247.701 108.523L247.735 107.641ZM248.617 107.676L249.499 107.711L249.464 108.592L248.582 108.557L248.617 107.676ZM248.582 108.557L249.464 108.592L249.429 109.474L248.547 109.439L248.582 108.557ZM248.547 109.439L249.429 109.474L249.394 110.356L248.513 110.321L248.547 109.439ZM248.513 110.321L249.394 110.356L249.36 111.237L248.478 111.202L248.513 110.321ZM247.631 110.286L248.513 110.321L248.478 111.202L247.596 111.168L247.631 110.286ZM246.749 110.251L247.631 110.286L247.596 111.168L246.715 111.133L246.749 110.251ZM245.868 110.216L246.749 110.251L246.715 111.133L245.833 111.098L245.868 110.216ZM245.902 109.335L246.784 109.37L246.749 110.251L245.868 110.216L245.902 109.335ZM245.937 108.453L246.819 108.488L246.784 109.37L245.902 109.335L245.937 108.453ZM245.972 107.571L246.854 107.606L246.819 108.488L245.937 108.453L245.972 107.571ZM246.819 108.488L247.701 108.523L247.666 109.404L246.784 109.37L246.819 108.488ZM247.701 108.523L248.582 108.557L248.547 109.439L247.666 109.404L247.701 108.523ZM246.784 109.37L247.666 109.404L247.631 110.286L246.749 110.251L246.784 109.37ZM247.666 109.404L248.547 109.439L248.513 110.321L247.631 110.286L247.666 109.404ZM260.406 108.141L261.288 108.176L261.253 109.057L260.372 109.023L260.406 108.141ZM261.288 108.176L262.17 108.211L262.135 109.092L261.253 109.057L261.288 108.176ZM262.17 108.211L263.051 108.245L263.017 109.127L262.135 109.092L262.17 108.211ZM262.135 109.092L263.017 109.127L262.982 110.009L262.1 109.974L262.135 109.092ZM262.1 109.974L262.982 110.009L262.947 110.89L262.065 110.856L262.1 109.974ZM262.065 110.856L262.947 110.89L262.912 111.772L262.031 111.737L262.065 110.856ZM261.184 110.821L262.065 110.856L262.031 111.737L261.149 111.702L261.184 110.821ZM260.302 110.786L261.184 110.821L261.149 111.702L260.267 111.668L260.302 110.786ZM259.42 110.751L260.302 110.786L260.267 111.668L259.386 111.633L259.42 110.751ZM259.455 109.87L260.337 109.904L260.302 110.786L259.42 110.751L259.455 109.87ZM259.49 108.988L260.372 109.023L260.337 109.904L259.455 109.87L259.49 108.988ZM259.525 108.106L260.406 108.141L260.372 109.023L259.49 108.988L259.525 108.106ZM260.372 109.023L261.253 109.057L261.219 109.939L260.337 109.904L260.372 109.023ZM261.253 109.057L262.135 109.092L262.1 109.974L261.219 109.939L261.253 109.057ZM260.337 109.904L261.219 109.939L261.184 110.821L260.302 110.786L260.337 109.904ZM261.219 109.939L262.1 109.974L262.065 110.856L261.184 110.821L261.219 109.939ZM267.183 108.408L268.064 108.443L268.03 109.325L267.148 109.29L267.183 108.408ZM268.064 108.443L268.946 108.478L268.911 109.36L268.03 109.325L268.064 108.443ZM268.946 108.478L269.828 108.513L269.793 109.394L268.911 109.36L268.946 108.478ZM268.911 109.36L269.793 109.394L269.758 110.276L268.877 110.241L268.911 109.36ZM268.877 110.241L269.758 110.276L269.723 111.158L268.842 111.123L268.877 110.241ZM268.842 111.123L269.723 111.158L269.689 112.039L268.807 112.005L268.842 111.123ZM267.96 111.088L268.842 111.123L268.807 112.005L267.925 111.97L267.96 111.088ZM267.078 111.053L267.96 111.088L267.925 111.97L267.044 111.935L267.078 111.053ZM266.197 111.019L267.078 111.053L267.044 111.935L266.162 111.9L266.197 111.019ZM266.232 110.137L267.113 110.172L267.078 111.053L266.197 111.019L266.232 110.137ZM266.266 109.255L267.148 109.29L267.113 110.172L266.232 110.137L266.266 109.255ZM266.301 108.374L267.183 108.408L267.148 109.29L266.266 109.255L266.301 108.374ZM267.148 109.29L268.03 109.325L267.995 110.206L267.113 110.172L267.148 109.29ZM268.03 109.325L268.911 109.36L268.877 110.241L267.995 110.206L268.03 109.325ZM267.113 110.172L267.995 110.206L267.96 111.088L267.078 111.053L267.113 110.172ZM267.995 110.206L268.877 110.241L268.842 111.123L267.96 111.088L267.995 110.206ZM280.736 108.943L281.617 108.978L281.582 109.86L280.701 109.825L280.736 108.943ZM281.617 108.978L282.499 109.013L282.464 109.894L281.582 109.86L281.617 108.978ZM282.499 109.013L283.381 109.048L283.346 109.929L282.464 109.894L282.499 109.013ZM282.464 109.894L283.346 109.929L283.311 110.811L282.429 110.776L282.464 109.894ZM282.429 110.776L283.311 110.811L283.276 111.693L282.395 111.658L282.429 110.776ZM282.395 111.658L283.276 111.693L283.241 112.574L282.36 112.539L282.395 111.658ZM281.513 111.623L282.395 111.658L282.36 112.539L281.478 112.505L281.513 111.623ZM280.631 111.588L281.513 111.623L281.478 112.505L280.596 112.47L280.631 111.588ZM279.75 111.553L280.631 111.588L280.596 112.47L279.715 112.435L279.75 111.553ZM279.784 110.672L280.666 110.706L280.631 111.588L279.75 111.553L279.784 110.672ZM279.819 109.79L280.701 109.825L280.666 110.706L279.784 110.672L279.819 109.79ZM279.854 108.908L280.736 108.943L280.701 109.825L279.819 109.79L279.854 108.908ZM280.701 109.825L281.582 109.86L281.548 110.741L280.666 110.706L280.701 109.825ZM281.582 109.86L282.464 109.894L282.429 110.776L281.548 110.741L281.582 109.86ZM280.666 110.706L281.548 110.741L281.513 111.623L280.631 111.588L280.666 110.706ZM281.548 110.741L282.429 110.776L282.395 111.658L281.513 111.623L281.548 110.741ZM287.512 109.211L288.394 109.245L288.359 110.127L287.477 110.092L287.512 109.211ZM288.394 109.245L289.275 109.28L289.24 110.162L288.359 110.127L288.394 109.245ZM289.275 109.28L290.157 109.315L290.122 110.197L289.24 110.162L289.275 109.28ZM289.24 110.162L290.122 110.197L290.087 111.078L289.206 111.043L289.24 110.162ZM289.206 111.043L290.087 111.078L290.053 111.96L289.171 111.925L289.206 111.043ZM289.171 111.925L290.053 111.96L290.018 112.842L289.136 112.807L289.171 111.925ZM288.289 111.89L289.171 111.925L289.136 112.807L288.254 112.772L288.289 111.89ZM287.408 111.856L288.289 111.89L288.254 112.772L287.373 112.737L287.408 111.856ZM286.526 111.821L287.408 111.856L287.373 112.737L286.491 112.702L286.526 111.821ZM286.561 110.939L287.442 110.974L287.408 111.856L286.526 111.821L286.561 110.939ZM286.595 110.057L287.477 110.092L287.442 110.974L286.561 110.939L286.595 110.057ZM286.63 109.176L287.512 109.211L287.477 110.092L286.595 110.057L286.63 109.176ZM287.477 110.092L288.359 110.127L288.324 111.009L287.442 110.974L287.477 110.092ZM288.359 110.127L289.24 110.162L289.206 111.043L288.324 111.009L288.359 110.127ZM287.442 110.974L288.324 111.009L288.289 111.89L287.408 111.856L287.442 110.974ZM288.324 111.009L289.206 111.043L289.171 111.925L288.289 111.89L288.324 111.009ZM294.288 109.478L295.17 109.513L295.135 110.394L294.253 110.36L294.288 109.478ZM295.17 109.513L296.052 109.548L296.017 110.429L295.135 110.394L295.17 109.513ZM296.052 109.548L296.933 109.582L296.898 110.464L296.017 110.429L296.052 109.548ZM296.017 110.429L296.898 110.464L296.864 111.346L295.982 111.311L296.017 110.429ZM295.982 111.311L296.864 111.346L296.829 112.227L295.947 112.193L295.982 111.311ZM295.947 112.193L296.829 112.227L296.794 113.109L295.912 113.074L295.947 112.193ZM295.066 112.158L295.947 112.193L295.912 113.074L295.031 113.039L295.066 112.158ZM294.184 112.123L295.066 112.158L295.031 113.039L294.149 113.005L294.184 112.123ZM293.302 112.088L294.184 112.123L294.149 113.005L293.267 112.97L293.302 112.088ZM293.337 111.206L294.219 111.241L294.184 112.123L293.302 112.088L293.337 111.206ZM293.372 110.325L294.253 110.36L294.219 111.241L293.337 111.206L293.372 110.325ZM293.407 109.443L294.288 109.478L294.253 110.36L293.372 110.325L293.407 109.443ZM294.253 110.36L295.135 110.394L295.1 111.276L294.219 111.241L294.253 110.36ZM295.135 110.394L296.017 110.429L295.982 111.311L295.1 111.276L295.135 110.394ZM294.219 111.241L295.1 111.276L295.066 112.158L294.184 112.123L294.219 111.241ZM295.1 111.276L295.982 111.311L295.947 112.193L295.066 112.158L295.1 111.276ZM307.841 110.013L308.723 110.048L308.688 110.929L307.806 110.894L307.841 110.013ZM308.723 110.048L309.604 110.082L309.57 110.964L308.688 110.929L308.723 110.048ZM309.604 110.082L310.486 110.117L310.451 110.999L309.57 110.964L309.604 110.082ZM309.57 110.964L310.451 110.999L310.416 111.88L309.535 111.846L309.57 110.964ZM309.535 111.846L310.416 111.88L310.382 112.762L309.5 112.727L309.535 111.846ZM309.5 112.727L310.382 112.762L310.347 113.644L309.465 113.609L309.5 112.727ZM308.618 112.693L309.5 112.727L309.465 113.609L308.584 113.574L308.618 112.693ZM307.737 112.658L308.618 112.693L308.584 113.574L307.702 113.539L307.737 112.658ZM306.855 112.623L307.737 112.658L307.702 113.539L306.82 113.505L306.855 112.623ZM306.89 111.741L307.771 111.776L307.737 112.658L306.855 112.623L306.89 111.741ZM306.925 110.86L307.806 110.894L307.771 111.776L306.89 111.741L306.925 110.86ZM306.959 109.978L307.841 110.013L307.806 110.894L306.925 110.86L306.959 109.978ZM307.806 110.894L308.688 110.929L308.653 111.811L307.771 111.776L307.806 110.894ZM308.688 110.929L309.57 110.964L309.535 111.846L308.653 111.811L308.688 110.929ZM307.771 111.776L308.653 111.811L308.618 112.693L307.737 112.658L307.771 111.776ZM308.653 111.811L309.535 111.846L309.5 112.727L308.618 112.693L308.653 111.811ZM314.617 110.28L315.499 110.315L315.464 111.197L314.583 111.162L314.617 110.28ZM315.499 110.315L316.381 110.35L316.346 111.231L315.464 111.197L315.499 110.315ZM316.381 110.35L317.262 110.385L317.228 111.266L316.346 111.231L316.381 110.35ZM316.346 111.231L317.228 111.266L317.193 112.148L316.311 112.113L316.346 111.231ZM316.311 112.113L317.193 112.148L317.158 113.03L316.276 112.995L316.311 112.113ZM316.276 112.995L317.158 113.03L317.123 113.911L316.242 113.876L316.276 112.995ZM315.395 112.96L316.276 112.995L316.242 113.876L315.36 113.842L315.395 112.96ZM314.513 112.925L315.395 112.96L315.36 113.842L314.478 113.807L314.513 112.925ZM313.631 112.89L314.513 112.925L314.478 113.807L313.597 113.772L313.631 112.89ZM313.666 112.009L314.548 112.043L314.513 112.925L313.631 112.89L313.666 112.009ZM313.701 111.127L314.583 111.162L314.548 112.043L313.666 112.009L313.701 111.127ZM313.736 110.245L314.617 110.28L314.583 111.162L313.701 111.127L313.736 110.245ZM314.583 111.162L315.464 111.197L315.429 112.078L314.548 112.043L314.583 111.162ZM315.464 111.197L316.346 111.231L316.311 112.113L315.429 112.078L315.464 111.197ZM314.548 112.043L315.429 112.078L315.395 112.96L314.513 112.925L314.548 112.043ZM315.429 112.078L316.311 112.113L316.276 112.995L315.395 112.96L315.429 112.078ZM328.17 110.815L329.052 110.85L329.017 111.731L328.135 111.697L328.17 110.815ZM329.052 110.85L329.933 110.885L329.899 111.766L329.017 111.731L329.052 110.85ZM329.933 110.885L330.815 110.919L330.78 111.801L329.899 111.766L329.933 110.885ZM329.899 111.766L330.78 111.801L330.746 112.683L329.864 112.648L329.899 111.766ZM329.864 112.648L330.746 112.683L330.711 113.564L329.829 113.53L329.864 112.648ZM329.829 113.53L330.711 113.564L330.676 114.446L329.794 114.411L329.829 113.53ZM328.947 113.495L329.829 113.53L329.794 114.411L328.913 114.376L328.947 113.495ZM328.066 113.46L328.947 113.495L328.913 114.376L328.031 114.342L328.066 113.46ZM327.184 113.425L328.066 113.46L328.031 114.342L327.149 114.307L327.184 113.425ZM327.219 112.543L328.101 112.578L328.066 113.46L327.184 113.425L327.219 112.543ZM327.254 111.662L328.135 111.697L328.101 112.578L327.219 112.543L327.254 111.662ZM327.288 110.78L328.17 110.815L328.135 111.697L327.254 111.662L327.288 110.78ZM328.135 111.697L329.017 111.731L328.982 112.613L328.101 112.578L328.135 111.697ZM329.017 111.731L329.899 111.766L329.864 112.648L328.982 112.613L329.017 111.731ZM328.101 112.578L328.982 112.613L328.947 113.495L328.066 113.46L328.101 112.578ZM328.982 112.613L329.864 112.648L329.829 113.53L328.947 113.495L328.982 112.613ZM341.723 111.35L342.605 111.385L342.57 112.266L341.688 112.231L341.723 111.35ZM342.605 111.385L343.486 111.419L343.451 112.301L342.57 112.266L342.605 111.385ZM343.486 111.419L344.368 111.454L344.333 112.336L343.451 112.301L343.486 111.419ZM343.451 112.301L344.333 112.336L344.298 113.217L343.417 113.183L343.451 112.301ZM343.417 113.183L344.298 113.217L344.263 114.099L343.382 114.064L343.417 113.183ZM343.382 114.064L344.263 114.099L344.229 114.981L343.347 114.946L343.382 114.064ZM342.5 114.03L343.382 114.064L343.347 114.946L342.465 114.911L342.5 114.03ZM341.618 113.995L342.5 114.03L342.465 114.911L341.584 114.876L341.618 113.995ZM340.737 113.96L341.618 113.995L341.584 114.876L340.702 114.842L340.737 113.96ZM340.772 113.078L341.653 113.113L341.618 113.995L340.737 113.96L340.772 113.078ZM340.806 112.197L341.688 112.231L341.653 113.113L340.772 113.078L340.806 112.197ZM340.841 111.315L341.723 111.35L341.688 112.231L340.806 112.197L340.841 111.315ZM341.688 112.231L342.57 112.266L342.535 113.148L341.653 113.113L341.688 112.231ZM342.57 112.266L343.451 112.301L343.417 113.183L342.535 113.148L342.57 112.266ZM341.653 113.113L342.535 113.148L342.5 114.03L341.618 113.995L341.653 113.113ZM342.535 113.148L343.417 113.183L343.382 114.064L342.5 114.03L342.535 113.148ZM348.499 111.617L349.381 111.652L349.346 112.534L348.464 112.499L348.499 111.617ZM349.381 111.652L350.263 111.687L350.228 112.568L349.346 112.534L349.381 111.652ZM350.263 111.687L351.144 111.722L351.109 112.603L350.228 112.568L350.263 111.687ZM350.228 112.568L351.109 112.603L351.075 113.485L350.193 113.45L350.228 112.568ZM350.193 113.45L351.075 113.485L351.04 114.367L350.158 114.332L350.193 113.45ZM350.158 114.332L351.04 114.367L351.005 115.248L350.123 115.213L350.158 114.332ZM349.276 114.297L350.158 114.332L350.123 115.213L349.242 115.179L349.276 114.297ZM348.395 114.262L349.276 114.297L349.242 115.179L348.36 115.144L348.395 114.262ZM347.513 114.227L348.395 114.262L348.36 115.144L347.478 115.109L347.513 114.227ZM347.548 113.346L348.43 113.38L348.395 114.262L347.513 114.227L347.548 113.346ZM347.583 112.464L348.464 112.499L348.43 113.38L347.548 113.346L347.583 112.464ZM347.618 111.582L348.499 111.617L348.464 112.499L347.583 112.464L347.618 111.582ZM348.464 112.499L349.346 112.534L349.311 113.415L348.43 113.38L348.464 112.499ZM349.346 112.534L350.228 112.568L350.193 113.45L349.311 113.415L349.346 112.534ZM348.43 113.38L349.311 113.415L349.276 114.297L348.395 114.262L348.43 113.38ZM349.311 113.415L350.193 113.45L350.158 114.332L349.276 114.297L349.311 113.415Z" fill="#697CD8"/>
<path d="M8 20.9157H9.33929V22.255H8V20.9157ZM9.33929 20.9157H10.6786V22.255H9.33929V20.9157ZM10.6786 20.9157H12.0179V22.255H10.6786V20.9157ZM12.0179 20.9157H13.3571V22.255H12.0179V20.9157ZM13.3571 20.9157H14.6964V22.255H13.3571V20.9157ZM14.6964 20.9157H16.0357V22.255H14.6964V20.9157ZM14.6964 22.255H16.0357V23.5943H14.6964V22.255ZM13.3571 22.255H14.6964V23.5943H13.3571V22.255ZM12.0179 22.255H13.3571V23.5943H12.0179V22.255ZM10.6786 22.255H12.0179V23.5943H10.6786V22.255ZM9.33929 22.255H10.6786V23.5943H9.33929V22.255ZM8 22.255H9.33929V23.5943H8V22.255ZM16.0357 22.255H17.375V23.5943H16.0357V22.255ZM14.6964 23.5943H16.0357V24.9336H14.6964V23.5943ZM16.0357 23.5943H17.375V24.9336H16.0357V23.5943ZM16.0357 24.9336H17.375V26.2729H16.0357V24.9336ZM16.0357 26.2729H17.375V27.6122H16.0357V26.2729ZM14.6964 26.2729H16.0357V27.6122H14.6964V26.2729ZM14.6964 24.9336H16.0357V26.2729H14.6964V24.9336ZM14.6964 27.6122H16.0357V28.9515H14.6964V27.6122ZM14.6964 28.9515H16.0357V30.2907H14.6964V28.9515ZM13.3571 28.9515H14.6964V30.2907H13.3571V28.9515ZM13.3571 27.6122H14.6964V28.9515H13.3571V27.6122ZM12.0179 27.6122H13.3571V28.9515H12.0179V27.6122ZM12.0179 28.9515H13.3571V30.2907H12.0179V28.9515ZM10.6786 28.9515H12.0179V30.2907H10.6786V28.9515ZM10.6786 27.6122H12.0179V28.9515H10.6786V27.6122ZM9.33929 27.6122H10.6786V28.9515H9.33929V27.6122ZM8 27.6122H9.33929V28.9515H8V27.6122ZM8 28.9515H9.33929V30.2907H8V28.9515ZM9.33929 28.9515H10.6786V30.2907H9.33929V28.9515ZM8 23.5943H9.33929V24.9336H8V23.5943ZM9.33929 23.5943H10.6786V24.9336H9.33929V23.5943ZM9.33929 24.9336H10.6786V26.2729H9.33929V24.9336ZM9.33929 26.2729H10.6786V27.6122H9.33929V26.2729ZM8 24.9336H9.33929V26.2729H8V24.9336ZM8 26.2729H9.33929V27.6122H8V26.2729ZM8 30.2907H9.33929V31.63H8V30.2907ZM9.33929 30.2907H10.6786V31.63H9.33929V30.2907ZM9.33929 31.63H10.6786V32.9693H9.33929V31.63ZM9.33929 32.9693H10.6786V34.3086H9.33929V32.9693ZM8 32.9693H9.33929V34.3086H8V32.9693ZM8 31.63H9.33929V32.9693H8V31.63ZM16.0357 27.6122H17.375V28.9515H16.0357V27.6122ZM20.7178 24.9336H22.0571V26.2729H20.7178V24.9336ZM20.7178 23.5943H22.0571V24.9336H20.7178V23.5943ZM22.0571 23.5943H23.3963V24.9336H22.0571V23.5943ZM22.0571 24.9336H23.3963V26.2729H22.0571V24.9336ZM22.0571 26.2729H23.3963V27.6122H22.0571V26.2729ZM22.0571 27.6122H23.3963V28.9515H22.0571V27.6122ZM22.0571 28.9515H23.3963V30.2907H22.0571V28.9515ZM20.7178 28.9515H22.0571V30.2907H20.7178V28.9515ZM20.7178 27.6122H22.0571V28.9515H20.7178V27.6122ZM20.7178 26.2729H22.0571V27.6122H20.7178V26.2729ZM20.7178 30.2907H22.0571V31.63H20.7178V30.2907ZM22.0571 30.2907H23.3963V31.63H22.0571V30.2907ZM22.0571 31.63H23.3963V32.9693H22.0571V31.63ZM22.0571 32.9693H23.3963V34.3086H22.0571V32.9693ZM20.7178 32.9693H22.0571V34.3086H20.7178V32.9693ZM20.7178 31.63H22.0571V32.9693H20.7178V31.63ZM23.3963 24.9336H24.7356V26.2729H23.3963V24.9336ZM24.7356 24.9336H26.0749V26.2729H24.7356V24.9336ZM26.0749 24.9336H27.4142V26.2729H26.0749V24.9336ZM26.0749 23.5943H27.4142V24.9336H26.0749V23.5943ZM24.7356 23.5943H26.0749V24.9336H24.7356V23.5943ZM23.3963 26.2729H24.7356V27.6122H23.3963V26.2729ZM27.4142 24.9336H28.7535V26.2729H27.4142V24.9336ZM26.0749 26.2729H27.4142V27.6122H26.0749V26.2729ZM34.7713 23.5943H36.1106V24.9336H34.7713V23.5943ZM33.4321 23.5943H34.7713V24.9336H33.4321V23.5943ZM33.4321 24.9336H34.7713V26.2729H33.4321V24.9336ZM34.7713 24.9336H36.1106V26.2729H34.7713V24.9336ZM36.1106 23.5943H37.4499V24.9336H36.1106V23.5943ZM37.4499 23.5943H38.7892V24.9336H37.4499V23.5943ZM38.7892 23.5943H40.1285V24.9336H38.7892V23.5943ZM38.7892 24.9336H40.1285V26.2729H38.7892V24.9336ZM37.4499 24.9336H38.7892V26.2729H37.4499V24.9336ZM38.7892 27.6122H40.1285V28.9515H38.7892V27.6122ZM40.1285 24.9336H41.4678V26.2729H40.1285V24.9336ZM40.1285 26.2729H41.4678V27.6122H40.1285V26.2729ZM40.1285 27.6122H41.4678V28.9515H40.1285V27.6122ZM40.1285 28.9515H41.4678V30.2907H40.1285V28.9515ZM40.1285 30.2907H41.4678V31.63H40.1285V30.2907ZM40.1285 31.63H41.4678V32.9693H40.1285V31.63ZM38.7892 31.63H40.1285V32.9693H38.7892V31.63ZM38.7892 30.2907H40.1285V31.63H38.7892V30.2907ZM38.7892 28.9515H40.1285V30.2907H38.7892V28.9515ZM38.7892 26.2729H40.1285V27.6122H38.7892V26.2729ZM37.4499 31.63H38.7892V32.9693H37.4499V31.63ZM38.7892 32.9693H40.1285V34.3086H38.7892V32.9693ZM37.4499 32.9693H38.7892V34.3086H37.4499V32.9693ZM36.1106 32.9693H37.4499V34.3086H36.1106V32.9693ZM34.7713 32.9693H36.1106V34.3086H34.7713V32.9693ZM33.4321 32.9693H34.7713V34.3086H33.4321V32.9693ZM33.4321 31.63H34.7713V32.9693H33.4321V31.63ZM34.7713 31.63H36.1106V32.9693H34.7713V31.63ZM33.4321 30.2907H34.7713V31.63H33.4321V30.2907ZM32.0928 31.63H33.4321V32.9693H32.0928V31.63ZM32.0928 30.2907H33.4321V31.63H32.0928V30.2907ZM32.0928 28.9515H33.4321V30.2907H32.0928V28.9515ZM32.0928 27.6122H33.4321V28.9515H32.0928V27.6122ZM32.0928 26.2729H33.4321V27.6122H32.0928V26.2729ZM32.0928 24.9336H33.4321V26.2729H32.0928V24.9336ZM33.4321 26.2729H34.7713V27.6122H33.4321V26.2729ZM33.4321 27.6122H34.7713V28.9515H33.4321V27.6122ZM33.4321 28.9515H34.7713V30.2907H33.4321V28.9515ZM36.1106 31.63H37.4499V32.9693H36.1106V31.63ZM36.1106 24.9336H37.4499V26.2729H36.1106V24.9336ZM47.4891 23.5943H48.8284V24.9336H47.4891V23.5943ZM46.1498 23.5943H47.4891V24.9336H46.1498V23.5943ZM46.1498 24.9336H47.4891V26.2729H46.1498V24.9336ZM47.4891 24.9336H48.8284V26.2729H47.4891V24.9336ZM48.8284 23.5943H50.1677V24.9336H48.8284V23.5943ZM50.1677 23.5943H51.507V24.9336H50.1677V23.5943ZM51.507 23.5943H52.8463V24.9336H51.507V23.5943ZM51.507 24.9336H52.8463V26.2729H51.507V24.9336ZM50.1677 24.9336H51.507V26.2729H50.1677V24.9336ZM52.8463 24.9336H54.1855V26.2729H52.8463V24.9336ZM52.8463 26.2729H54.1855V27.6122H52.8463V26.2729ZM52.8463 30.2907H54.1855V31.63H52.8463V30.2907ZM52.8463 31.63H54.1855V32.9693H52.8463V31.63ZM51.507 31.63H52.8463V32.9693H51.507V31.63ZM51.507 30.2907H52.8463V31.63H51.507V30.2907ZM51.507 26.2729H52.8463V27.6122H51.507V26.2729ZM50.1677 31.63H51.507V32.9693H50.1677V31.63ZM51.507 32.9693H52.8463V34.3086H51.507V32.9693ZM50.1677 32.9693H51.507V34.3086H50.1677V32.9693ZM48.8284 32.9693H50.1677V34.3086H48.8284V32.9693ZM47.4891 32.9693H48.8284V34.3086H47.4891V32.9693ZM46.1498 32.9693H47.4891V34.3086H46.1498V32.9693ZM46.1498 31.63H47.4891V32.9693H46.1498V31.63ZM47.4891 31.63H48.8284V32.9693H47.4891V31.63ZM46.1498 30.2907H47.4891V31.63H46.1498V30.2907ZM44.8105 31.63H46.1498V32.9693H44.8105V31.63ZM44.8105 30.2907H46.1498V31.63H44.8105V30.2907ZM44.8105 28.9515H46.1498V30.2907H44.8105V28.9515ZM44.8105 27.6122H46.1498V28.9515H44.8105V27.6122ZM44.8105 26.2729H46.1498V27.6122H44.8105V26.2729ZM44.8105 24.9336H46.1498V26.2729H44.8105V24.9336ZM46.1498 26.2729H47.4891V27.6122H46.1498V26.2729ZM46.1498 27.6122H47.4891V28.9515H46.1498V27.6122ZM46.1498 28.9515H47.4891V30.2907H46.1498V28.9515ZM48.8284 31.63H50.1677V32.9693H48.8284V31.63ZM48.8284 24.9336H50.1677V26.2729H48.8284V24.9336ZM60.2069 23.5943H61.5462V24.9336H60.2069V23.5943ZM58.8676 23.5943H60.2069V24.9336H58.8676V23.5943ZM58.8676 24.9336H60.2069V26.2729H58.8676V24.9336ZM60.2069 24.9336H61.5462V26.2729H60.2069V24.9336ZM61.5462 23.5943H62.8855V24.9336H61.5462V23.5943ZM62.8855 23.5943H64.2247V24.9336H62.8855V23.5943ZM64.2247 23.5943H65.564V24.9336H64.2247V23.5943ZM64.2247 24.9336H65.564V26.2729H64.2247V24.9336ZM62.8855 24.9336H64.2247V26.2729H62.8855V24.9336ZM65.564 24.9336H66.9033V26.2729H65.564V24.9336ZM65.564 26.2729H66.9033V27.6122H65.564V26.2729ZM65.564 31.63H66.9033V32.9693H65.564V31.63ZM64.2247 31.63H65.564V32.9693H64.2247V31.63ZM64.2247 26.2729H65.564V27.6122H64.2247V26.2729ZM62.8855 31.63H64.2247V32.9693H62.8855V31.63ZM64.2247 32.9693H65.564V34.3086H64.2247V32.9693ZM62.8855 32.9693H64.2247V34.3086H62.8855V32.9693ZM61.5462 32.9693H62.8855V34.3086H61.5462V32.9693ZM60.2069 32.9693H61.5462V34.3086H60.2069V32.9693ZM58.8676 32.9693H60.2069V34.3086H58.8676V32.9693ZM58.8676 31.63H60.2069V32.9693H58.8676V31.63ZM60.2069 31.63H61.5462V32.9693H60.2069V31.63ZM58.8676 30.2907H60.2069V31.63H58.8676V30.2907ZM57.5283 31.63H58.8676V32.9693H57.5283V31.63ZM57.5283 30.2907H58.8676V31.63H57.5283V30.2907ZM57.5283 28.9515H58.8676V30.2907H57.5283V28.9515ZM57.5283 27.6122H58.8676V28.9515H57.5283V27.6122ZM57.5283 26.2729H58.8676V27.6122H57.5283V26.2729ZM57.5283 24.9336H58.8676V26.2729H57.5283V24.9336ZM58.8676 26.2729H60.2069V27.6122H58.8676V26.2729ZM58.8676 27.6122H60.2069V28.9515H58.8676V27.6122ZM58.8676 28.9515H60.2069V30.2907H58.8676V28.9515ZM61.5462 31.63H62.8855V32.9693H61.5462V31.63ZM61.5462 24.9336H62.8855V26.2729H61.5462V24.9336ZM64.2247 27.6122H65.564V28.9515H64.2247V27.6122ZM65.564 27.6122H66.9033V28.9515H65.564V27.6122ZM60.2069 28.9515H61.5462V30.2907H60.2069V28.9515ZM61.5462 28.9515H62.8855V30.2907H61.5462V28.9515ZM62.8855 28.9515H64.2247V30.2907H62.8855V28.9515ZM64.2247 28.9515H65.564V30.2907H64.2247V28.9515ZM65.564 28.9515H66.9033V30.2907H65.564V28.9515ZM62.8855 27.6122H64.2247V28.9515H62.8855V27.6122ZM61.5462 27.6122H62.8855V28.9515H61.5462V27.6122ZM60.2069 27.6122H61.5462V28.9515H60.2069V27.6122ZM70.2461 24.9336H71.5854V26.2729H70.2461V24.9336ZM71.5854 26.2729H72.9247V27.6122H71.5854V26.2729ZM70.2461 26.2729H71.5854V27.6122H70.2461V26.2729ZM70.2461 27.6122H71.5854V28.9515H70.2461V27.6122ZM71.5854 27.6122H72.9247V28.9515H71.5854V27.6122ZM71.5854 28.9515H72.9247V30.2907H71.5854V28.9515ZM72.9247 28.9515H74.264V30.2907H72.9247V28.9515ZM74.264 28.9515H75.6032V30.2907H74.264V28.9515ZM75.6032 27.6122H76.9425V28.9515H75.6032V27.6122ZM74.264 27.6122H75.6032V28.9515H74.264V27.6122ZM72.9247 27.6122H74.264V28.9515H72.9247V27.6122ZM75.6032 28.9515H76.9425V30.2907H75.6032V28.9515ZM76.9425 28.9515H78.2818V30.2907H76.9425V28.9515ZM76.9425 30.2907H78.2818V31.63H76.9425V30.2907ZM75.6032 30.2907H76.9425V31.63H75.6032V30.2907ZM75.6032 31.63H76.9425V32.9693H75.6032V31.63ZM76.9425 31.63H78.2818V32.9693H76.9425V31.63ZM75.6032 32.9693H76.9425V34.3086H75.6032V32.9693ZM74.264 31.63H75.6032V32.9693H74.264V31.63ZM72.9247 31.63H74.264V32.9693H72.9247V31.63ZM71.5854 31.63H72.9247V32.9693H71.5854V31.63ZM70.2461 31.63H71.5854V32.9693H70.2461V31.63ZM71.5854 32.9693H72.9247V34.3086H71.5854V32.9693ZM72.9247 32.9693H74.264V34.3086H72.9247V32.9693ZM74.264 32.9693H75.6032V34.3086H74.264V32.9693ZM76.9425 24.9336H78.2818V26.2729H76.9425V24.9336ZM75.6032 24.9336H76.9425V26.2729H75.6032V24.9336ZM75.6032 23.5943H76.9425V24.9336H75.6032V23.5943ZM74.264 23.5943H75.6032V24.9336H74.264V23.5943ZM72.9247 23.5943H74.264V24.9336H72.9247V23.5943ZM71.5854 23.5943H72.9247V24.9336H71.5854V23.5943ZM71.5854 24.9336H72.9247V26.2729H71.5854V24.9336ZM72.9247 24.9336H74.264V26.2729H72.9247V24.9336ZM74.264 24.9336H75.6032V26.2729H74.264V24.9336ZM81.6211 24.9336H82.9604V26.2729H81.6211V24.9336ZM82.9604 26.2729H84.2997V27.6122H82.9604V26.2729ZM81.6211 26.2729H82.9604V27.6122H81.6211V26.2729ZM81.6211 27.6122H82.9604V28.9515H81.6211V27.6122ZM82.9604 27.6122H84.2997V28.9515H82.9604V27.6122ZM82.9604 28.9515H84.2997V30.2907H82.9604V28.9515ZM84.2997 28.9515H85.639V30.2907H84.2997V28.9515ZM85.639 28.9515H86.9782V30.2907H85.639V28.9515ZM86.9782 27.6122H88.3175V28.9515H86.9782V27.6122ZM85.639 27.6122H86.9782V28.9515H85.639V27.6122ZM84.2997 27.6122H85.639V28.9515H84.2997V27.6122ZM86.9782 28.9515H88.3175V30.2907H86.9782V28.9515ZM88.3175 28.9515H89.6568V30.2907H88.3175V28.9515ZM88.3175 30.2907H89.6568V31.63H88.3175V30.2907ZM86.9782 30.2907H88.3175V31.63H86.9782V30.2907ZM86.9782 31.63H88.3175V32.9693H86.9782V31.63ZM88.3175 31.63H89.6568V32.9693H88.3175V31.63ZM86.9782 32.9693H88.3175V34.3086H86.9782V32.9693ZM85.639 31.63H86.9782V32.9693H85.639V31.63ZM84.2997 31.63H85.639V32.9693H84.2997V31.63ZM82.9604 31.63H84.2997V32.9693H82.9604V31.63ZM81.6211 31.63H82.9604V32.9693H81.6211V31.63ZM82.9604 32.9693H84.2997V34.3086H82.9604V32.9693ZM84.2997 32.9693H85.639V34.3086H84.2997V32.9693ZM85.639 32.9693H86.9782V34.3086H85.639V32.9693ZM88.3175 24.9336H89.6568V26.2729H88.3175V24.9336ZM86.9782 24.9336H88.3175V26.2729H86.9782V24.9336ZM86.9782 23.5943H88.3175V24.9336H86.9782V23.5943ZM85.639 23.5943H86.9782V24.9336H85.639V23.5943ZM84.2997 23.5943H85.639V24.9336H84.2997V23.5943ZM82.9604 23.5943H84.2997V24.9336H82.9604V23.5943ZM82.9604 24.9336H84.2997V26.2729H82.9604V24.9336ZM84.2997 24.9336H85.639V26.2729H84.2997V24.9336ZM85.639 24.9336H86.9782V26.2729H85.639V24.9336ZM92.9961 20.9157H95.6747V23.5943H92.9961V20.9157ZM92.9961 24.9336H95.6747V34.3086H92.9961V24.9336ZM99.0244 24.9336H100.364V26.2729H99.0244V24.9336ZM99.0244 23.5943H100.364V24.9336H99.0244V23.5943ZM100.364 23.5943H101.703V24.9336H100.364V23.5943ZM100.364 24.9336H101.703V26.2729H100.364V24.9336ZM100.364 26.2729H101.703V27.6122H100.364V26.2729ZM100.364 27.6122H101.703V28.9515H100.364V27.6122ZM100.364 28.9515H101.703V30.2907H100.364V28.9515ZM99.0244 28.9515H100.364V30.2907H99.0244V28.9515ZM99.0244 27.6122H100.364V28.9515H99.0244V27.6122ZM99.0244 26.2729H100.364V27.6122H99.0244V26.2729ZM99.0244 30.2907H100.364V31.63H99.0244V30.2907ZM100.364 30.2907H101.703V31.63H100.364V30.2907ZM100.364 31.63H101.703V32.9693H100.364V31.63ZM100.364 32.9693H101.703V34.3086H100.364V32.9693ZM99.0244 32.9693H100.364V34.3086H99.0244V32.9693ZM99.0244 31.63H100.364V32.9693H99.0244V31.63ZM105.721 32.9693H107.06V34.3086H105.721V32.9693ZM107.06 32.9693H108.399V34.3086H107.06V32.9693ZM107.06 31.63H108.399V32.9693H107.06V31.63ZM107.06 30.2907H108.399V31.63H107.06V30.2907ZM107.06 28.9515H108.399V30.2907H107.06V28.9515ZM107.06 27.6122H108.399V28.9515H107.06V27.6122ZM107.06 26.2729H108.399V27.6122H107.06V26.2729ZM107.06 24.9336H108.399V26.2729H107.06V24.9336ZM105.721 27.6122H107.06V28.9515H105.721V27.6122ZM105.721 28.9515H107.06V30.2907H105.721V28.9515ZM105.721 30.2907H107.06V31.63H105.721V30.2907ZM105.721 31.63H107.06V32.9693H105.721V31.63ZM105.721 26.2729H107.06V27.6122H105.721V26.2729ZM101.703 24.9336H103.042V26.2729H101.703V24.9336ZM103.042 24.9336H104.382V26.2729H103.042V24.9336ZM104.382 24.9336H105.721V26.2729H104.382V24.9336ZM104.382 23.5943H105.721V24.9336H104.382V23.5943ZM105.721 23.5943H107.06V24.9336H105.721V23.5943ZM105.721 24.9336H107.06V26.2729H105.721V24.9336ZM103.042 23.5943H104.382V24.9336H103.042V23.5943ZM119.778 23.5943H121.117V24.9336H119.778V23.5943ZM118.439 23.5943H119.778V24.9336H118.439V23.5943ZM117.099 23.5943H118.439V24.9336H117.099V23.5943ZM115.76 23.5943H117.099V24.9336H115.76V23.5943ZM114.421 23.5943H115.76V24.9336H114.421V23.5943ZM114.421 24.9336H115.76V26.2729H114.421V24.9336ZM115.76 24.9336H117.099V26.2729H115.76V24.9336ZM117.099 24.9336H118.439V26.2729H117.099V24.9336ZM118.439 24.9336H119.778V26.2729H118.439V24.9336ZM119.778 24.9336H121.117V26.2729H119.778V24.9336ZM113.081 23.5943H114.421V24.9336H113.081V23.5943ZM113.081 24.9336H114.421V26.2729H113.081V24.9336ZM113.081 26.2729H114.421V27.6122H113.081V26.2729ZM111.742 26.2729H113.081V27.6122H111.742V26.2729ZM111.742 24.9336H113.081V26.2729H111.742V24.9336ZM111.742 27.6122H113.081V28.9515H111.742V27.6122ZM111.742 28.9515H113.081V30.2907H111.742V28.9515ZM113.081 30.2907H114.421V31.63H113.081V30.2907ZM113.081 28.9515H114.421V30.2907H113.081V28.9515ZM113.081 27.6122H114.421V28.9515H113.081V27.6122ZM111.742 30.2907H113.081V31.63H111.742V30.2907ZM113.081 31.63H114.421V32.9693H113.081V31.63ZM114.421 31.63H115.76V32.9693H114.421V31.63ZM115.76 31.63H117.099V32.9693H115.76V31.63ZM118.439 31.63H119.778V32.9693H118.439V31.63ZM119.778 31.63H121.117V32.9693H119.778V31.63ZM119.778 30.2907H121.117V31.63H119.778V30.2907ZM118.439 30.2907H119.778V31.63H118.439V30.2907ZM117.099 30.2907H118.439V31.63H117.099V30.2907ZM115.76 30.2907H117.099V31.63H115.76V30.2907ZM114.421 30.2907H115.76V31.63H114.421V30.2907ZM118.439 28.9515H119.778V30.2907H118.439V28.9515ZM118.439 27.6122H119.778V28.9515H118.439V27.6122ZM118.439 26.2729H119.778V27.6122H118.439V26.2729ZM119.778 26.2729H121.117V27.6122H119.778V26.2729ZM119.778 27.6122H121.117V28.9515H119.778V27.6122ZM119.778 28.9515H121.117V30.2907H119.778V28.9515ZM118.439 32.9693H119.778V34.3086H118.439V32.9693ZM118.439 34.3086H119.778V35.6479H118.439V34.3086ZM119.778 34.3086H121.117V35.6479H119.778V34.3086ZM119.778 32.9693H121.117V34.3086H119.778V32.9693ZM111.742 34.3086H113.081V35.6479H111.742V34.3086ZM113.081 34.3086H114.421V35.6479H113.081V34.3086ZM113.081 35.6479H114.421V36.9872H113.081V35.6479ZM114.421 35.6479H115.76V36.9872H114.421V35.6479ZM114.421 34.3086H115.76V35.6479H114.421V34.3086ZM115.76 34.3086H117.099V35.6479H115.76V34.3086ZM117.099 34.3086H118.439V35.6479H117.099V34.3086ZM118.439 35.6479H119.778V36.9872H118.439V35.6479ZM117.099 35.6479H118.439V36.9872H117.099V35.6479ZM115.76 35.6479H117.099V36.9872H115.76V35.6479ZM124.46 31.63H125.799V32.9693H124.46V31.63ZM125.799 31.63H127.139V32.9693H125.799V31.63ZM125.799 32.9693H127.139V34.3086H125.799V32.9693ZM124.46 32.9693H125.799V34.3086H124.46V32.9693ZM130.488 31.63H131.828V32.9693H130.488V31.63ZM131.828 31.63H133.167V32.9693H131.828V31.63ZM131.828 32.9693H133.167V34.3086H131.828V32.9693ZM130.488 32.9693H131.828V34.3086H130.488V32.9693ZM136.517 31.63H137.856V32.9693H136.517V31.63ZM137.856 31.63H139.195V32.9693H137.856V31.63ZM137.856 32.9693H139.195V34.3086H137.856V32.9693ZM136.517 32.9693H137.856V34.3086H136.517V32.9693Z" fill="#959595"/>
<rect x="371.664" y="104.054" width="12" height="7" transform="rotate(2.25974 371.664 104.054)" fill="#262937"/>
<rect x="371.111" y="118.043" width="12" height="7" transform="rotate(2.25974 371.111 118.043)" fill="#262937"/>
<rect x="379.657" y="104.37" width="4" height="21" transform="rotate(2.25974 379.657 104.37)" fill="#262937"/>
<rect width="12" height="7" transform="matrix(-0.999222 -0.0394296 -0.0394296 0.999222 13.9419 89.938)" fill="#262937"/>
<rect width="12" height="7" transform="matrix(-0.999222 -0.0394296 -0.0394296 0.999222 13.3896 103.927)" fill="#262937"/>
<rect width="4" height="21" transform="matrix(-0.999222 -0.0394296 -0.0394296 0.999222 5.94824 89.6226)" fill="#262937"/>
<path d="M243.763 10.5084C243.298 10.1547 242.634 10.2445 242.28 10.7103C241.925 11.1758 242.015 11.8404 242.48 12.1946C244.149 13.4649 245.093 15.5777 244.759 17.7881C244.672 18.3659 245.069 18.9053 245.648 18.9926C246.227 19.0799 246.766 18.6814 246.852 18.1026C247.305 15.0993 246.024 12.2265 243.763 10.5084Z" fill="#9B9B9B"/>
<path d="M252.011 17.384C252.066 17.9659 252.583 18.3935 253.165 18.3385C253.747 18.2836 254.175 17.7669 254.12 17.1847C253.559 11.2514 249.762 6.38744 244.643 4.1826C244.106 3.95108 243.483 4.19852 243.252 4.73585C243.02 5.27319 243.268 5.89636 243.805 6.12739C248.24 8.04044 251.527 12.2488 252.011 17.384Z" fill="#9B9B9B"/>
<path d="M129.689 147.526C130.241 147.718 130.845 147.426 131.037 146.874C131.23 146.321 130.937 145.717 130.385 145.525C128.405 144.836 126.851 143.12 126.482 140.915C126.386 140.339 125.841 139.95 125.263 140.047C124.686 140.143 124.298 140.689 124.395 141.266C124.897 144.262 127.006 146.595 129.689 147.526Z" fill="#9B9B9B"/>
<path d="M119.714 143.551C119.481 143.015 118.857 142.769 118.32 143.002C117.784 143.235 117.538 143.858 117.771 144.395C120.146 149.861 125.266 153.306 130.816 153.812C131.399 153.866 131.914 153.437 131.967 152.855C132.021 152.272 131.592 151.756 131.01 151.703C126.2 151.262 121.768 148.282 119.714 143.551Z" fill="#9B9B9B"/>
<rect x="178.777" y="16.1162" width="34" height="15" transform="rotate(1.28655 178.777 16.1162)" fill="white"/>
<path d="M180.438 22.951L181.525 22.9981L181.478 24.0854L180.391 24.0382L180.438 22.951ZM181.525 22.9981L182.613 23.0453L182.565 24.1325L181.478 24.0854L181.525 22.9981ZM182.613 23.0453L183.7 23.0924L183.653 24.1797L182.565 24.1325L182.613 23.0453ZM182.565 24.1325L183.653 24.1797L183.606 25.2669L182.518 25.2197L182.565 24.1325ZM182.518 25.2197L183.606 25.2669L183.558 26.3541L182.471 26.3069L182.518 25.2197ZM182.471 26.3069L183.558 26.3541L183.511 27.4413L182.424 27.3941L182.471 26.3069ZM181.384 26.2598L182.471 26.3069L182.424 27.3941L181.337 27.347L181.384 26.2598ZM180.297 26.2126L181.384 26.2598L181.337 27.347L180.25 27.2999L180.297 26.2126ZM179.21 26.1655L180.297 26.2126L180.25 27.2999L179.162 27.2527L179.21 26.1655ZM179.257 25.0783L180.344 25.1254L180.297 26.2126L179.21 26.1655L179.257 25.0783ZM179.304 23.9911L180.391 24.0382L180.344 25.1254L179.257 25.0783L179.304 23.9911ZM179.351 22.9039L180.438 22.951L180.391 24.0382L179.304 23.9911L179.351 22.9039ZM180.391 24.0382L181.478 24.0854L181.431 25.1726L180.344 25.1254L180.391 24.0382ZM181.478 24.0854L182.565 24.1325L182.518 25.2197L181.431 25.1726L181.478 24.0854ZM180.344 25.1254L181.431 25.1726L181.384 26.2598L180.297 26.2126L180.344 25.1254ZM181.431 25.1726L182.518 25.2197L182.471 26.3069L181.384 26.2598L181.431 25.1726ZM186.207 23.2012L187.294 23.2483L187.247 24.3355L186.16 24.2884L186.207 23.2012ZM187.294 23.2483L188.381 23.2955L188.334 24.3827L187.247 24.3355L187.294 23.2483ZM188.381 23.2955L189.468 23.3426L189.421 24.4298L188.334 24.3827L188.381 23.2955ZM188.334 24.3827L189.421 24.4298L189.374 25.517L188.287 25.4699L188.334 24.3827ZM188.287 25.4699L189.374 25.517L189.327 26.6042L188.24 26.5571L188.287 25.4699ZM188.24 26.5571L189.327 26.6042L189.28 27.6915L188.193 27.6443L188.24 26.5571ZM187.153 26.5099L188.24 26.5571L188.193 27.6443L187.105 27.5972L187.153 26.5099ZM186.065 26.4628L187.153 26.5099L187.105 27.5972L186.018 27.55L186.065 26.4628ZM184.978 26.4157L186.065 26.4628L186.018 27.55L184.931 27.5029L184.978 26.4157ZM185.025 25.3284L186.113 25.3756L186.065 26.4628L184.978 26.4157L185.025 25.3284ZM185.072 24.2412L186.16 24.2884L186.113 25.3756L185.025 25.3284L185.072 24.2412ZM185.12 23.154L186.207 23.2012L186.16 24.2884L185.072 24.2412L185.12 23.154ZM186.16 24.2884L187.247 24.3355L187.2 25.4227L186.113 25.3756L186.16 24.2884ZM187.247 24.3355L188.334 24.3827L188.287 25.4699L187.2 25.4227L187.247 24.3355ZM186.113 25.3756L187.2 25.4227L187.153 26.5099L186.065 26.4628L186.113 25.3756ZM187.2 25.4227L188.287 25.4699L188.24 26.5571L187.153 26.5099L187.2 25.4227ZM197.744 23.7015L198.831 23.7486L198.784 24.8358L197.697 24.7887L197.744 23.7015ZM198.831 23.7486L199.918 23.7958L199.871 24.883L198.784 24.8358L198.831 23.7486ZM199.918 23.7958L201.006 23.8429L200.958 24.9301L199.871 24.883L199.918 23.7958ZM199.871 24.883L200.958 24.9301L200.911 26.0173L199.824 25.9702L199.871 24.883ZM199.824 25.9702L200.911 26.0173L200.864 27.1046L199.777 27.0574L199.824 25.9702ZM199.777 27.0574L200.864 27.1046L200.817 28.1918L199.73 28.1446L199.777 27.0574ZM198.69 27.0103L199.777 27.0574L199.73 28.1446L198.643 28.0975L198.69 27.0103ZM197.603 26.9631L198.69 27.0103L198.643 28.0975L197.555 28.0503L197.603 26.9631ZM196.515 26.916L197.603 26.9631L197.555 28.0503L196.468 28.0032L196.515 26.916ZM196.562 25.8288L197.65 25.8759L197.603 26.9631L196.515 26.916L196.562 25.8288ZM196.61 24.7415L197.697 24.7887L197.65 25.8759L196.562 25.8288L196.61 24.7415ZM196.657 23.6543L197.744 23.7015L197.697 24.7887L196.61 24.7415L196.657 23.6543ZM197.697 24.7887L198.784 24.8358L198.737 25.9231L197.65 25.8759L197.697 24.7887ZM198.784 24.8358L199.871 24.883L199.824 25.9702L198.737 25.9231L198.784 24.8358ZM197.65 25.8759L198.737 25.9231L198.69 27.0103L197.603 26.9631L197.65 25.8759ZM198.737 25.9231L199.824 25.9702L199.777 27.0574L198.69 27.0103L198.737 25.9231ZM209.281 24.2018L210.368 24.2489L210.321 25.3362L209.234 25.289L209.281 24.2018ZM210.368 24.2489L211.456 24.2961L211.408 25.3833L210.321 25.3362L210.368 24.2489ZM211.456 24.2961L212.543 24.3432L212.496 25.4305L211.408 25.3833L211.456 24.2961ZM211.408 25.3833L212.496 25.4305L212.449 26.5177L211.361 26.4705L211.408 25.3833ZM211.361 26.4705L212.449 26.5177L212.401 27.6049L211.314 27.5577L211.361 26.4705ZM211.314 27.5577L212.401 27.6049L212.354 28.6921L211.267 28.6449L211.314 27.5577ZM210.227 27.5106L211.314 27.5577L211.267 28.6449L210.18 28.5978L210.227 27.5106ZM209.14 27.4634L210.227 27.5106L210.18 28.5978L209.093 28.5506L209.14 27.4634ZM208.053 27.4163L209.14 27.4634L209.093 28.5506L208.005 28.5035L208.053 27.4163ZM208.1 26.3291L209.187 26.3762L209.14 27.4634L208.053 27.4163L208.1 26.3291ZM208.147 25.2419L209.234 25.289L209.187 26.3762L208.1 26.3291L208.147 25.2419ZM208.194 24.1546L209.281 24.2018L209.234 25.289L208.147 25.2419L208.194 24.1546ZM209.234 25.289L210.321 25.3362L210.274 26.4234L209.187 26.3762L209.234 25.289ZM210.321 25.3362L211.408 25.3833L211.361 26.4705L210.274 26.4234L210.321 25.3362ZM209.187 26.3762L210.274 26.4234L210.227 27.5106L209.14 27.4634L209.187 26.3762ZM210.274 26.4234L211.361 26.4705L211.314 27.5577L210.227 27.5106L210.274 26.4234Z" fill="#D86969"/>
<defs>
<filter id="filter0_dd_1258_1400" x="0.839355" y="73.8647" width="383.099" height="69.2466" filterUnits="userSpaceOnUse" color-interpolation-filters="sRGB">
<feFlood flood-opacity="0" result="BackgroundImageFix"/>
<feColorMatrix in="SourceAlpha" type="matrix" values="0 0 0 0 0 0 0 0 0 0 0 0 0 0 0 0 0 0 127 0" result="hardAlpha"/>
<feOffset dy="1"/>
<feGaussianBlur stdDeviation="1"/>
<feColorMatrix type="matrix" values="0 0 0 0 0 0 0 0 0 0 0 0 0 0 0 0 0 0 0.3 0"/>
<feBlend mode="normal" in2="BackgroundImageFix" result="effect1_dropShadow_1258_1400"/>
<feColorMatrix in="SourceAlpha" type="matrix" values="0 0 0 0 0 0 0 0 0 0 0 0 0 0 0 0 0 0 127 0" result="hardAlpha"/>
<feMorphology radius="1" operator="dilate" in="SourceAlpha" result="effect2_dropShadow_1258_1400"/>
<feOffset dy="1"/>
<feGaussianBlur stdDeviation="1.5"/>
<feColorMatrix type="matrix" values="0 0 0 0 0 0 0 0 0 0 0 0 0 0 0 0 0 0 0.15 0"/>
<feBlend mode="normal" in2="effect1_dropShadow_1258_1400" result="effect2_dropShadow_1258_1400"/>
<feBlend mode="normal" in="SourceGraphic" in2="effect2_dropShadow_1258_1400" result="shape"/>
</filter>
</defs>
</svg>
