<svg width="355" height="99" viewBox="0 0 355 99" fill="none" xmlns="http://www.w3.org/2000/svg">
<path d="M112.762 42.802C113.205 42.84 113.592 42.9603 113.921 43.163C114.25 43.353 114.415 43.6443 114.415 44.037C114.415 44.3283 114.276 44.5627 113.997 44.74C113.731 44.9047 113.408 44.987 113.028 44.987C112.661 44.987 112.407 44.892 112.268 44.702C112.129 44.512 112.059 44.3157 112.059 44.113C112.059 43.733 112.097 43.4163 112.173 43.163C112.262 42.9097 112.458 42.7893 112.762 42.802ZM114.282 51.219V51.77C114.282 52.264 114.295 52.7327 114.32 53.176C114.358 53.6067 114.402 54.0437 114.453 54.487C114.44 54.6137 114.345 54.7467 114.168 54.886C113.991 55.0127 113.832 55.076 113.693 55.076C113.452 55.076 113.205 55.0317 112.952 54.943C112.711 54.8417 112.566 54.7213 112.515 54.582C112.439 54.1767 112.401 53.8157 112.401 53.499C112.401 52.4603 112.369 51.295 112.306 50.003C112.255 48.863 112.23 48.065 112.23 47.609C112.23 47.381 112.344 47.1847 112.572 47.02C112.8 46.8553 113.041 46.773 113.294 46.773C113.661 46.773 113.915 46.8553 114.054 47.02C114.206 47.1847 114.282 47.4443 114.282 47.799V51.219ZM122.981 45.101C122.804 45.101 122.633 45.0567 122.468 44.968C122.304 44.8793 122.19 44.7463 122.126 44.569C122 44.227 121.86 43.9863 121.708 43.847C121.569 43.695 121.398 43.619 121.195 43.619C121.069 43.619 120.948 43.714 120.834 43.904C120.733 44.094 120.657 44.3917 120.606 44.797C120.518 45.633 120.473 46.2727 120.473 46.716C120.663 46.754 120.929 46.773 121.271 46.773C121.449 46.773 121.677 46.7603 121.955 46.735L122.468 46.716C122.696 46.716 122.874 46.7603 123 46.849C123.127 46.9377 123.19 47.0833 123.19 47.286C123.19 47.5773 123.102 47.818 122.924 48.008C122.747 48.198 122.538 48.293 122.297 48.293C121.385 48.293 120.771 48.3373 120.454 48.426C120.454 49.186 120.492 50.2753 120.568 51.694C120.568 51.9093 120.581 52.2197 120.606 52.625L120.682 54.088C120.708 54.4553 120.67 54.715 120.568 54.867C120.48 55.0063 120.283 55.076 119.979 55.076C119.422 55.076 119.061 54.7403 118.896 54.069C118.795 53.5877 118.713 52.9037 118.649 52.017C118.599 51.1177 118.573 50.326 118.573 49.642C118.573 49.2873 118.592 48.8757 118.63 48.407C118.605 48.3943 118.535 48.388 118.421 48.388C118.307 48.388 118.225 48.3943 118.174 48.407C117.794 48.4323 117.516 48.445 117.338 48.445C117.224 48.445 117.11 48.3627 116.996 48.198C116.882 48.0333 116.825 47.8433 116.825 47.628C116.825 47.5013 116.87 47.3873 116.958 47.286C117.047 47.172 117.155 47.0897 117.281 47.039C117.471 46.9377 117.744 46.887 118.098 46.887H118.668C118.668 45.1137 118.865 43.8787 119.257 43.182C119.637 42.5233 120.264 42.194 121.138 42.194C121.544 42.194 121.93 42.2763 122.297 42.441C122.677 42.6057 122.981 42.8337 123.209 43.125C123.45 43.4163 123.57 43.7457 123.57 44.113C123.57 44.5057 123.52 44.7717 123.418 44.911C123.317 45.0377 123.171 45.101 122.981 45.101ZM138.267 54.905C138.001 54.905 137.748 54.829 137.507 54.677C137.279 54.5123 137.076 54.3413 136.899 54.164C136.722 53.974 136.601 53.8473 136.538 53.784C136.272 54.164 135.886 54.4743 135.379 54.715C134.872 54.9557 134.385 55.076 133.916 55.076C133.194 55.076 132.554 54.924 131.997 54.62C131.44 54.316 131.009 53.9043 130.705 53.385C130.401 52.853 130.249 52.264 130.249 51.618C130.249 51.01 130.319 50.4273 130.458 49.87C130.61 49.3 130.813 48.825 131.066 48.445C131.408 47.9637 131.864 47.5837 132.434 47.305C133.017 47.0263 133.593 46.887 134.163 46.887C134.505 46.887 134.828 46.9503 135.132 47.077C135.436 47.2037 135.702 47.362 135.93 47.552C135.93 46.716 135.924 46.1903 135.911 45.975V45.557C135.911 44.3663 135.987 43.4987 136.139 42.954C136.278 42.422 136.62 42.156 137.165 42.156C137.456 42.156 137.672 42.2193 137.811 42.346C137.95 42.4727 138.02 42.7133 138.02 43.068C138.02 43.1947 137.988 43.543 137.925 44.113C137.786 45.5317 137.716 46.9503 137.716 48.369C137.716 49.5597 137.735 50.4463 137.773 51.029C137.824 51.599 137.919 52.055 138.058 52.397C138.21 52.739 138.444 53.043 138.761 53.309C138.951 53.461 139.084 53.5877 139.16 53.689C139.249 53.7903 139.293 53.9233 139.293 54.088C139.293 54.2907 139.192 54.4807 138.989 54.658C138.786 54.8227 138.546 54.905 138.267 54.905ZM133.859 53.537C134.53 53.537 135.024 53.328 135.341 52.91C135.67 52.4793 135.835 51.9347 135.835 51.276L135.816 50.212C135.803 50.0093 135.797 49.737 135.797 49.395C135.328 48.8377 134.822 48.559 134.277 48.559C133.91 48.559 133.561 48.654 133.232 48.844C132.915 49.034 132.656 49.3127 132.453 49.68C132.238 50.098 132.13 50.7313 132.13 51.58C132.13 52.1627 132.301 52.6377 132.643 53.005C132.985 53.3597 133.39 53.537 133.859 53.537ZM142.298 42.802C142.741 42.84 143.128 42.9603 143.457 43.163C143.786 43.353 143.951 43.6443 143.951 44.037C143.951 44.3283 143.812 44.5627 143.533 44.74C143.267 44.9047 142.944 44.987 142.564 44.987C142.197 44.987 141.943 44.892 141.804 44.702C141.665 44.512 141.595 44.3157 141.595 44.113C141.595 43.733 141.633 43.4163 141.709 43.163C141.798 42.9097 141.994 42.7893 142.298 42.802ZM143.818 51.219V51.77C143.818 52.264 143.831 52.7327 143.856 53.176C143.894 53.6067 143.938 54.0437 143.989 54.487C143.989 54.639 143.9 54.7783 143.723 54.905C143.546 55.019 143.381 55.076 143.229 55.076C142.988 55.076 142.741 55.0317 142.488 54.943C142.247 54.8417 142.102 54.7213 142.051 54.582C141.975 54.1767 141.937 53.8157 141.937 53.499C141.937 52.4603 141.905 51.295 141.842 50.003C141.791 48.863 141.766 48.065 141.766 47.609C141.766 47.381 141.88 47.1847 142.108 47.02C142.336 46.8553 142.577 46.773 142.83 46.773C143.197 46.773 143.451 46.8553 143.59 47.02C143.742 47.1847 143.818 47.4443 143.818 47.799V51.219ZM152.346 50.649C152.853 50.9403 153.208 51.2317 153.41 51.523C153.613 51.8017 153.714 52.169 153.714 52.625C153.714 53.081 153.581 53.4863 153.315 53.841C153.049 54.183 152.707 54.449 152.289 54.639C151.985 54.7783 151.605 54.886 151.149 54.962C150.706 55.038 150.358 55.076 150.104 55.076C149.661 55.076 149.18 54.9937 148.66 54.829C148.141 54.6643 147.698 54.43 147.33 54.126C146.976 53.822 146.798 53.4673 146.798 53.062C146.798 52.8087 146.881 52.6123 147.045 52.473C147.21 52.321 147.425 52.245 147.691 52.245C147.907 52.245 148.135 52.397 148.375 52.701C148.616 52.967 148.895 53.1697 149.211 53.309C149.541 53.4483 149.864 53.518 150.18 53.518C151.384 53.518 151.985 53.2457 151.985 52.701C151.985 52.587 151.947 52.4793 151.871 52.378C151.795 52.264 151.726 52.188 151.662 52.15C151.548 52.0613 151.39 51.9853 151.187 51.922C150.985 51.8587 150.782 51.808 150.579 51.77C150.377 51.7193 150.225 51.6813 150.123 51.656C150.022 51.6307 149.807 51.5863 149.477 51.523C149.161 51.4597 148.857 51.352 148.565 51.2C148.084 50.972 147.691 50.6933 147.387 50.364C147.096 50.0347 146.95 49.6103 146.95 49.091C146.95 48.7997 147.02 48.5083 147.159 48.217C147.311 47.913 147.514 47.685 147.767 47.533C148.147 47.2923 148.565 47.1087 149.021 46.982C149.477 46.8553 149.902 46.792 150.294 46.792C150.611 46.792 150.966 46.8237 151.358 46.887C151.764 46.9503 152.055 47.039 152.232 47.153C152.562 47.3303 152.802 47.514 152.954 47.704C153.106 47.894 153.182 48.1347 153.182 48.426C153.182 48.5653 153.151 48.7047 153.087 48.844C153.024 48.9707 152.948 49.0593 152.859 49.11C152.657 49.186 152.479 49.224 152.327 49.224C152.213 49.224 152.118 49.205 152.042 49.167C151.966 49.1163 151.897 49.0657 151.833 49.015C151.783 48.9643 151.751 48.9327 151.738 48.92C151.574 48.7427 151.39 48.6033 151.187 48.502C150.985 48.4007 150.687 48.35 150.294 48.35C150.041 48.35 149.794 48.388 149.553 48.464C149.325 48.5273 149.148 48.6097 149.021 48.711C148.92 48.787 148.85 48.8567 148.812 48.92C148.774 48.9707 148.755 49.0403 148.755 49.129C148.755 49.4837 149.11 49.7433 149.819 49.908C150.541 50.0727 150.921 50.1613 150.959 50.174C151.035 50.1993 151.244 50.2627 151.586 50.364C151.941 50.4653 152.194 50.5603 152.346 50.649ZM156.264 48.426C156.087 48.4007 155.941 48.3247 155.827 48.198C155.726 48.0713 155.675 47.9193 155.675 47.742C155.675 47.6533 155.694 47.5583 155.732 47.457C155.783 47.3557 155.853 47.267 155.941 47.191C156.106 47.0263 156.549 46.944 157.271 46.944C157.373 46.45 157.423 45.9497 157.423 45.443C157.423 45.253 157.417 45.0883 157.404 44.949C157.392 44.8097 157.385 44.702 157.385 44.626C157.385 44.3473 157.487 44.1383 157.689 43.999C157.905 43.8597 158.145 43.79 158.411 43.79C158.741 43.79 158.962 43.8723 159.076 44.037C159.203 44.2017 159.266 44.5057 159.266 44.949C159.266 45.6077 159.209 46.2537 159.095 46.887C159.298 46.887 159.577 46.8743 159.931 46.849C160.413 46.8237 160.761 46.811 160.976 46.811C161.192 46.811 161.375 46.868 161.527 46.982C161.692 47.0833 161.774 47.229 161.774 47.419C161.774 47.913 161.553 48.2043 161.109 48.293C160.641 48.407 159.912 48.4767 158.924 48.502C158.886 48.996 158.867 49.5343 158.867 50.117C158.867 51.029 158.924 51.7763 159.038 52.359C159.114 52.7643 159.241 53.062 159.418 53.252C159.608 53.4293 159.887 53.518 160.254 53.518C160.47 53.518 160.691 53.461 160.919 53.347C161.071 53.2583 161.211 53.214 161.337 53.214C161.515 53.214 161.641 53.271 161.717 53.385C161.806 53.499 161.85 53.651 161.85 53.841C161.85 54.1957 161.66 54.4933 161.28 54.734C160.9 54.962 160.413 55.076 159.817 55.076C159.45 55.076 159.076 54.9873 158.696 54.81C158.329 54.6327 158.019 54.411 157.765 54.145C157.727 54.107 157.658 53.9613 157.556 53.708C157.455 53.4547 157.366 53.1823 157.29 52.891C157.164 52.2957 157.1 51.4597 157.1 50.383C157.1 49.9143 157.126 49.2873 157.176 48.502L156.264 48.426ZM172.794 54.088C172.794 54.3667 172.642 54.601 172.338 54.791C172.034 54.981 171.755 55.076 171.502 55.076C171.033 55.076 170.653 55.019 170.362 54.905C170.083 54.7783 169.817 54.5503 169.564 54.221C169.247 54.5123 168.804 54.734 168.234 54.886C167.664 55.0253 167.138 55.095 166.657 55.095C165.871 55.095 165.219 54.886 164.7 54.468C164.193 54.0373 163.94 53.4103 163.94 52.587C163.94 52.2323 164.047 51.8777 164.263 51.523C164.478 51.1557 164.744 50.8643 165.061 50.649C165.403 50.421 165.789 50.269 166.22 50.193C166.65 50.1043 167.151 50.06 167.721 50.06C167.987 50.06 168.303 50.1107 168.671 50.212C169.038 50.3133 169.329 50.421 169.545 50.535V50.231C169.545 49.547 169.374 49.0783 169.032 48.825C168.702 48.559 168.17 48.426 167.436 48.426C167.208 48.426 166.999 48.464 166.809 48.54C166.631 48.6033 166.422 48.6983 166.182 48.825C165.954 48.9517 165.738 49.015 165.536 49.015C165.358 49.015 165.187 48.9453 165.023 48.806C164.858 48.654 164.776 48.4957 164.776 48.331C164.776 47.799 165.105 47.4127 165.764 47.172C166.435 46.9187 167.119 46.792 167.816 46.792C168.17 46.792 168.576 46.868 169.032 47.02C169.488 47.1593 169.874 47.3557 170.191 47.609C170.571 47.9257 170.862 48.3057 171.065 48.749C171.28 49.1923 171.388 49.6737 171.388 50.193C171.388 50.3577 171.375 50.6047 171.35 50.934C171.324 51.2887 171.312 51.5927 171.312 51.846L171.293 52.359C171.267 52.6377 171.255 52.8593 171.255 53.024C171.255 53.176 171.305 53.309 171.407 53.423C171.521 53.5243 171.654 53.575 171.806 53.575L172.338 53.556C172.477 53.556 172.585 53.613 172.661 53.727C172.749 53.8283 172.794 53.9487 172.794 54.088ZM166.657 53.594C167.201 53.594 167.657 53.537 168.025 53.423C168.392 53.309 168.835 53.1 169.355 52.796C169.405 52.5807 169.437 52.2957 169.45 51.941C168.753 51.6117 168.177 51.447 167.721 51.447C167.29 51.447 166.942 51.466 166.676 51.504C166.41 51.5293 166.169 51.637 165.954 51.827C165.738 52.017 165.631 52.321 165.631 52.739C165.631 52.9797 165.745 53.1823 165.973 53.347C166.213 53.5117 166.441 53.594 166.657 53.594ZM180.689 49.243C180.499 49.243 180.335 49.1987 180.195 49.11C180.069 49.0087 179.936 48.8757 179.796 48.711C179.657 48.5463 179.505 48.4387 179.34 48.388C179.188 48.3373 179.011 48.312 178.808 48.312C178.441 48.312 178.08 48.426 177.725 48.654C177.383 48.8693 177.098 49.1733 176.87 49.566C176.655 49.9587 176.547 50.3957 176.547 50.877C176.547 51.409 176.649 51.8523 176.851 52.207C177.067 52.5617 177.402 52.872 177.858 53.138C178.023 53.2267 178.213 53.2963 178.428 53.347C178.656 53.3977 178.853 53.423 179.017 53.423C179.41 53.423 179.917 53.252 180.537 52.91C180.588 52.8847 180.683 52.8403 180.822 52.777C180.974 52.701 181.088 52.663 181.164 52.663C181.304 52.663 181.462 52.7327 181.639 52.872C181.817 52.9987 181.905 53.157 181.905 53.347C181.905 53.727 181.741 54.05 181.411 54.316C181.095 54.582 180.696 54.7783 180.214 54.905C179.733 55.0317 179.258 55.095 178.789 55.095C178.042 55.095 177.345 54.924 176.699 54.582C176.053 54.24 175.54 53.765 175.16 53.157C174.78 52.549 174.59 51.865 174.59 51.105C174.59 50.2817 174.774 49.5407 175.141 48.882C175.509 48.2107 176.003 47.685 176.623 47.305C177.257 46.9123 177.941 46.716 178.675 46.716C179.385 46.716 180.037 46.8553 180.632 47.134C181.24 47.4127 181.544 47.837 181.544 48.407C181.544 48.9643 181.259 49.243 180.689 49.243ZM184.035 50.972C184.035 50.4907 184.123 50.0093 184.301 49.528C184.478 49.034 184.712 48.5843 185.004 48.179C185.295 47.7737 185.757 47.4443 186.391 47.191C187.024 46.925 187.588 46.792 188.082 46.792C188.588 46.792 189.101 46.8617 189.621 47.001C190.153 47.1403 190.52 47.3557 190.723 47.647C191.191 48.3057 191.426 48.9517 191.426 49.585C191.426 49.927 191.35 50.2183 191.198 50.459C191.058 50.6997 190.856 50.9593 190.59 51.238C190.374 51.466 190.032 51.618 189.564 51.694C189.108 51.77 188.652 51.808 188.196 51.808C187.904 51.808 187.55 51.7827 187.132 51.732C186.714 51.6687 186.308 51.5927 185.916 51.504C185.941 51.7573 186.004 52.0043 186.106 52.245C186.207 52.4857 186.327 52.6693 186.467 52.796C186.72 53.0367 186.98 53.1887 187.246 53.252C187.524 53.3153 187.879 53.347 188.31 53.347C188.766 53.347 189.19 53.271 189.583 53.119C189.899 53.005 190.159 52.948 190.362 52.948C190.602 52.948 190.786 53.024 190.913 53.176C191.039 53.3153 191.103 53.499 191.103 53.727C191.103 54.0437 190.919 54.3033 190.552 54.506C190.184 54.7087 189.76 54.8607 189.279 54.962C188.81 55.0507 188.43 55.095 188.139 55.095C187.543 55.095 186.967 54.9873 186.41 54.772C185.852 54.5567 185.39 54.2527 185.023 53.86C184.719 53.5053 184.478 53.081 184.301 52.587C184.123 52.0803 184.035 51.542 184.035 50.972ZM188.177 48.407C187.898 48.407 187.619 48.464 187.341 48.578C187.062 48.6793 186.834 48.825 186.657 49.015C186.429 49.2557 186.27 49.452 186.182 49.604C186.106 49.7433 186.055 49.9397 186.03 50.193C186.346 50.2943 187.005 50.345 188.006 50.345C188.55 50.345 188.968 50.2627 189.26 50.098C189.564 49.9333 189.716 49.718 189.716 49.452C189.716 49.186 189.551 48.9453 189.222 48.73C188.892 48.5147 188.544 48.407 188.177 48.407ZM218.067 53.024C218.497 53.0493 218.782 53.062 218.922 53.062C219.352 53.062 219.732 53.0557 220.062 53.043C220.404 53.0303 220.695 53.0177 220.936 53.005C221.556 52.967 222.114 52.948 222.608 52.948C223.089 52.948 223.444 53.0747 223.672 53.328C223.9 53.5813 224.014 53.917 224.014 54.335C224.014 54.5377 223.881 54.7023 223.615 54.829C223.349 54.943 223.076 55 222.798 55C222.557 55 222.057 54.9747 221.297 54.924C220.385 54.848 219.669 54.81 219.15 54.81C218.871 54.81 218.542 54.829 218.162 54.867C218.01 54.8797 217.826 54.8923 217.611 54.905C217.395 54.9177 217.155 54.924 216.889 54.924C216.382 54.924 215.996 54.8543 215.73 54.715C215.464 54.5757 215.331 54.3223 215.331 53.955C215.331 53.6383 215.457 53.3153 215.711 52.986C215.964 52.6567 216.319 52.264 216.775 51.808L217.231 51.352C217.433 51.1367 217.807 50.7693 218.352 50.25C219.251 49.4393 219.948 48.7237 220.442 48.103C220.948 47.4823 221.202 46.868 221.202 46.26C221.202 45.8673 221.012 45.5507 220.632 45.31C220.264 45.0567 219.84 44.93 219.359 44.93C218.624 44.93 218.092 45.0947 217.763 45.424C217.446 45.7407 217.288 46.203 217.288 46.811C217.288 46.963 217.199 47.1023 217.022 47.229C216.857 47.343 216.648 47.4 216.395 47.4C216.04 47.4 215.793 47.2733 215.654 47.02C215.514 46.7667 215.445 46.4563 215.445 46.089C215.445 45.5063 215.622 44.9933 215.977 44.55C216.331 44.094 216.813 43.7393 217.421 43.486C218.041 43.2327 218.725 43.106 219.473 43.106C220.005 43.106 220.556 43.239 221.126 43.505C221.708 43.7583 222.19 44.1067 222.57 44.55C222.962 44.9807 223.159 45.4557 223.159 45.975C223.159 46.7603 222.962 47.5077 222.57 48.217C222.177 48.9263 221.715 49.5597 221.183 50.117C220.663 50.6617 219.986 51.3077 219.15 52.055C218.744 52.397 218.383 52.72 218.067 53.024ZM234.49 44.284C234.908 44.93 235.243 45.671 235.497 46.507C235.75 47.3303 235.877 48.1727 235.877 49.034C235.877 50.06 235.699 51.0353 235.345 51.96C235.003 52.8847 234.483 53.6383 233.787 54.221C233.103 54.8037 232.267 55.095 231.279 55.095C230.354 55.095 229.505 54.8607 228.733 54.392C227.96 53.9107 227.377 53.3533 226.985 52.72C226.693 52.2513 226.472 51.7257 226.32 51.143C226.168 50.5477 226.092 49.9523 226.092 49.357C226.092 48.3183 226.307 47.305 226.738 46.317C227.181 45.329 227.789 44.5373 228.562 43.942C229.296 43.3973 230.139 43.125 231.089 43.125C232.14 43.125 233.274 43.5113 234.49 44.284ZM229.398 45.595C229.284 45.785 229.17 45.956 229.056 46.108C228.777 46.526 228.574 46.8807 228.448 47.172C228.321 47.4507 228.207 47.8813 228.106 48.464C228.055 48.73 228.03 49.0403 228.03 49.395C228.03 50.2943 228.207 51.0733 228.562 51.732C228.929 52.378 229.429 52.815 230.063 53.043C230.367 53.157 230.709 53.214 231.089 53.214C232.039 53.214 232.754 52.796 233.236 51.96C233.73 51.1113 233.977 50.0663 233.977 48.825C233.977 47.6723 233.761 46.7287 233.331 45.994C232.9 45.2467 232.235 44.873 231.336 44.873C230.968 44.873 230.652 44.93 230.386 45.044C230.132 45.158 229.803 45.3417 229.398 45.595ZM241.315 53.955C241.315 54.2717 241.188 54.5693 240.935 54.848C240.681 55.114 240.403 55.247 240.099 55.247C239.744 55.247 239.421 55.152 239.13 54.962C238.838 54.7593 238.693 54.506 238.693 54.202C238.693 53.7207 238.781 53.366 238.959 53.138C239.149 52.91 239.427 52.796 239.795 52.796C240.225 52.796 240.586 52.9037 240.878 53.119C241.169 53.3217 241.315 53.6003 241.315 53.955ZM246.75 53.955C246.75 54.2717 246.624 54.5693 246.37 54.848C246.117 55.114 245.838 55.247 245.534 55.247C245.18 55.247 244.857 55.152 244.565 54.962C244.274 54.7593 244.128 54.506 244.128 54.202C244.128 53.7207 244.217 53.366 244.394 53.138C244.584 52.91 244.863 52.796 245.23 52.796C245.661 52.796 246.022 52.9037 246.313 53.119C246.605 53.3217 246.75 53.6003 246.75 53.955ZM252.186 53.955C252.186 54.2717 252.06 54.5693 251.806 54.848C251.553 55.114 251.274 55.247 250.97 55.247C250.616 55.247 250.293 55.152 250.001 54.962C249.71 54.7593 249.564 54.506 249.564 54.202C249.564 53.7207 249.653 53.366 249.83 53.138C250.02 52.91 250.299 52.796 250.666 52.796C251.097 52.796 251.458 52.9037 251.749 53.119C252.041 53.3217 252.186 53.6003 252.186 53.955Z" fill="black"/>
<path d="M197.91 50.622C197.91 50.2113 198.057 49.8887 198.35 49.654C198.658 49.4193 199.098 49.192 199.67 48.972L203.872 46.992C204.679 46.6253 205.075 46.442 205.06 46.442L205.764 46.09C206.087 45.914 206.358 45.782 206.578 45.694C206.813 45.606 207.062 45.562 207.326 45.562C207.605 45.562 207.818 45.6647 207.964 45.87C208.111 46.0753 208.184 46.3173 208.184 46.596C208.184 46.8893 208.104 47.1093 207.942 47.256C207.796 47.4027 207.598 47.542 207.348 47.674C207.114 47.806 206.93 47.9087 206.798 47.982L203.63 49.324L200.726 50.534C201.504 50.8273 202.288 51.0987 203.08 51.348C203.872 51.5827 204.833 51.8613 205.962 52.184C206.798 52.4187 207.348 52.58 207.612 52.668C207.891 52.756 208.096 52.91 208.228 53.13C208.36 53.3353 208.426 53.548 208.426 53.768C208.426 54.0613 208.324 54.318 208.118 54.538C207.928 54.758 207.7 54.868 207.436 54.868C207.231 54.868 206.93 54.78 206.534 54.604C206.124 54.4573 205.845 54.362 205.698 54.318C204.598 53.9953 203.11 53.46 201.232 52.712C200.924 52.5947 200.616 52.4847 200.308 52.382C200.015 52.2647 199.758 52.1693 199.538 52.096C199.098 51.9493 198.717 51.744 198.394 51.48C198.072 51.216 197.91 50.93 197.91 50.622Z" fill="#FF0000"/>
<path d="M49.9941 59.3545H50.4233" stroke="black" stroke-width="4.8" stroke-linecap="round" stroke-linejoin="round"/>
<path d="M71.666 87.2507H75.9577C77.0959 87.2507 78.1875 86.7985 78.9924 85.9937C79.7972 85.1888 80.2493 84.0972 80.2493 82.959V69.1398C80.2779 68.1595 79.9698 67.1989 79.3764 66.418C78.7829 65.6372 77.9399 65.0831 76.9877 64.8481L71.666 63.6465" stroke="black" stroke-width="4.8" stroke-linecap="round" stroke-linejoin="round"/>
<path d="M33.0418 44.3341H22.8276C22.0278 44.3285 21.2423 44.5466 20.5598 44.9637C19.8774 45.3807 19.325 45.9802 18.9651 46.6945L11.5834 61.5008L5.36052 64.5908C4.64624 64.9507 4.04674 65.503 3.62967 66.1855C3.21259 66.868 2.99454 67.6534 3.0001 68.4533V82.9591C3.0001 84.0973 3.45226 85.1889 4.2571 85.9938C5.06195 86.7986 6.15355 87.2507 7.29177 87.2507H11.5834" stroke="black" stroke-width="4.8" stroke-linecap="round" stroke-linejoin="round"/>
<path d="M28.7487 87.2503H54.4987M28.7487 87.2503C28.7487 85.5527 28.2453 83.8932 27.3021 82.4817C26.359 81.0702 25.0185 79.97 23.4501 79.3204C21.8817 78.6707 20.1558 78.5007 18.4908 78.8319C16.8258 79.1631 15.2964 79.9806 14.096 81.181C12.8956 82.3814 12.0782 83.9108 11.747 85.5758C11.4158 87.2408 11.5858 88.9666 12.2354 90.535C12.8851 92.1034 13.9852 93.444 15.3967 94.3871C16.8082 95.3303 18.4677 95.8337 20.1654 95.8337C22.4418 95.8337 24.625 94.9293 26.2347 93.3197C27.8444 91.71 28.7487 89.5268 28.7487 87.2503ZM50.207 27.167V40.042M71.6654 87.2503C71.6654 85.5527 71.162 83.8932 70.2188 82.4817C69.2757 81.0702 67.9351 79.97 66.3667 79.3204C64.7983 78.6707 63.0725 78.5007 61.4075 78.8319C59.7425 79.1631 58.2131 79.9806 57.0127 81.181C55.8123 82.3814 54.9948 83.9108 54.6636 85.5758C54.3324 87.2408 54.5024 88.9666 55.1521 90.535C55.8017 92.1034 56.9019 93.444 58.3134 94.3871C59.7249 95.3303 61.3844 95.8337 63.082 95.8337C65.3585 95.8337 67.5417 94.9293 69.1514 93.3197C70.7611 91.71 71.6654 89.5268 71.6654 87.2503Z" stroke="black" stroke-width="4.8" stroke-linecap="round" stroke-linejoin="round"/>
<path d="M49.1742 51.3877C49.2232 51.7104 49.3842 52.0208 49.6579 52.3186C49.9294 52.6158 50.2523 52.765 50.6246 52.765C51.4927 52.765 51.9757 52.3054 52.0745 51.3877L54.9754 29.0983C55.0252 28.7031 55.0501 28.1447 55.0501 27.4253C55.0501 26.3092 54.6666 25.2934 53.8974 24.375C53.1289 23.4581 52.0378 23 50.6246 23C49.1602 23 48.0581 23.4706 47.3146 24.4117C46.571 25.3301 46.1992 26.3342 46.1992 27.4253C46.1992 28.0951 46.2226 28.6527 46.2723 29.0984L49.1742 51.3877Z" fill="#FF2600" stroke="black" stroke-width="0.00064"/>
<path d="M53.8238 57.2614C52.9807 56.4184 51.9138 55.9961 50.6249 55.9961C49.361 55.9961 48.2941 56.4316 47.4262 57.2988C46.5582 58.1668 46.125 59.2199 46.125 60.4596C46.125 61.6496 46.5582 62.7034 47.4262 63.6211C48.2941 64.514 49.3611 64.9596 50.6249 64.9596C51.8889 64.9596 52.9543 64.5264 53.8238 63.6577C54.6904 62.7912 55.125 61.7242 55.125 60.4596C55.125 59.1949 54.6904 58.1294 53.8238 57.2614Z" fill="#FF2600" stroke="black" stroke-width="0.00064"/>
<path d="M314.747 60.3779H292.416V74.8732H314.747V60.3779Z" fill="black"/>
<path d="M328.167 40.2529H305.836V54.7482H328.167V40.2529Z" fill="black"/>
<path d="M314.747 20.125H292.416V34.6203H314.747V20.125Z" fill="black"/>
<path d="M341.583 60.3779H319.252V74.8732H341.583V60.3779Z" fill="black"/>
<path d="M301.331 80.5039H279V94.9992H301.331V80.5039Z" fill="black"/>
<path d="M341.583 20.125H319.252V34.6203H341.583V20.125Z" fill="black"/>
<path d="M354.999 0H332.668V14.4953H354.999V0Z" fill="black"/>
<path d="M328.167 0H305.836V14.4953H328.167V0Z" fill="black"/>
<path d="M355.001 60.3779H346.088V74.8732H355.001V60.3779Z" fill="black"/>
<path d="M355.001 20.125H346.088V34.6203H355.001V20.125Z" fill="black"/>
<path d="M328.167 80.5039H305.836V94.9992H328.167V80.5039Z" fill="black"/>
<path d="M354.999 80.5039H332.668V94.9992H354.999V80.5039Z" fill="black"/>
<path d="M301.331 0H279V14.4953H301.331V0Z" fill="black"/>
<path d="M354.999 40.2529H332.668V54.7482H354.999V40.2529Z" fill="black"/>
<path d="M287.913 60.3779H279V74.8732H287.913V60.3779Z" fill="black"/>
<path d="M301.331 40.2529H279V54.7482H301.331V40.2529Z" fill="black"/>
<path d="M287.913 20.125H279V34.6203H287.913V20.125Z" fill="black"/>
<path d="M113.939 80.9393C113.354 81.5251 113.354 82.4749 113.939 83.0607L123.485 92.6066C124.071 93.1924 125.021 93.1924 125.607 92.6066C126.192 92.0208 126.192 91.0711 125.607 90.4853L117.121 82L125.607 73.5147C126.192 72.9289 126.192 71.9792 125.607 71.3934C125.021 70.8076 124.071 70.8076 123.485 71.3934L113.939 80.9393ZM247.061 83.0607C247.646 82.4749 247.646 81.5251 247.061 80.9393L237.515 71.3934C236.929 70.8076 235.979 70.8076 235.393 71.3934C234.808 71.9792 234.808 72.9289 235.393 73.5147L243.879 82L235.393 90.4853C234.808 91.0711 234.808 92.0208 235.393 92.6066C235.979 93.1924 236.929 93.1924 237.515 92.6066L247.061 83.0607ZM115 83.5H246V80.5H115V83.5Z" fill="black" fill-opacity="0.5"/>
</svg>
