<svg width="309" height="106" viewBox="0 0 309 106" fill="none" xmlns="http://www.w3.org/2000/svg">
<path d="M75.455 46.222C75.551 46.39 75.629 46.636 75.689 46.96C75.749 47.272 75.779 47.554 75.779 47.806C75.779 48.274 75.677 48.94 75.473 49.804C74.645 51.316 73.421 52.072 71.801 52.072C71.201 52.072 70.589 51.874 69.965 51.478C69.341 51.082 68.909 50.626 68.669 50.11C68.345 49.078 68.183 48.424 68.183 48.148C68.183 47.668 68.285 47.158 68.489 46.618C68.705 46.078 68.975 45.61 69.299 45.214C69.503 44.938 69.869 44.704 70.397 44.512C70.925 44.308 71.405 44.206 71.837 44.206C72.677 44.206 73.391 44.368 73.979 44.692C74.567 45.004 75.059 45.514 75.455 46.222ZM73.889 49.12C73.949 48.964 73.979 48.562 73.979 47.914C73.979 47.566 73.913 47.224 73.781 46.888C73.661 46.552 73.481 46.264 73.241 46.024C73.217 46 73.151 45.964 73.043 45.916C72.935 45.856 72.785 45.802 72.593 45.754C72.413 45.694 72.203 45.664 71.963 45.664C71.291 45.664 70.799 45.934 70.487 46.474C70.175 47.014 70.019 47.626 70.019 48.31C70.019 48.43 70.049 48.658 70.109 48.994C70.181 49.33 70.241 49.54 70.289 49.624C70.325 49.708 70.415 49.828 70.559 49.984C70.715 50.128 70.901 50.26 71.117 50.38C71.345 50.488 71.579 50.542 71.819 50.542C72.359 50.542 72.791 50.416 73.115 50.164C73.439 49.9 73.697 49.552 73.889 49.12ZM85.746 50.614C85.806 50.638 85.902 50.668 86.034 50.704C86.166 50.74 86.262 50.776 86.322 50.812C86.382 50.848 86.412 50.902 86.412 50.974C86.424 51.262 86.316 51.502 86.088 51.694C85.872 51.874 85.614 51.964 85.314 51.964C84.846 51.964 84.48 51.838 84.216 51.586C83.952 51.334 83.76 50.95 83.64 50.434C83.592 50.23 83.568 49.948 83.568 49.588C83.568 49.384 83.58 49.054 83.604 48.598C83.628 48.118 83.64 47.734 83.64 47.446C83.64 47.026 83.52 46.66 83.28 46.348C83.052 46.024 82.728 45.862 82.308 45.862C82.056 45.862 81.792 45.94 81.516 46.096C81.24 46.24 81.048 46.42 80.94 46.636C80.76 46.984 80.634 47.362 80.562 47.77C80.43 48.49 80.364 49.24 80.364 50.02C80.364 50.392 80.37 50.68 80.382 50.884C80.382 50.932 80.382 51.028 80.382 51.172C80.394 51.304 80.382 51.43 80.346 51.55C80.322 51.658 80.274 51.76 80.202 51.856C80.142 51.916 80.046 51.964 79.914 52C79.794 52.048 79.68 52.072 79.572 52.072C79.404 52.072 79.194 52 78.942 51.856C78.69 51.712 78.546 51.55 78.51 51.37L78.492 51.064C78.492 50.956 78.504 50.83 78.528 50.686C78.672 49.846 78.744 49.114 78.744 48.49C78.744 48.214 78.738 47.998 78.726 47.842L78.708 46.996C78.708 46.708 78.636 46.432 78.492 46.168C78.348 45.892 78.18 45.754 77.988 45.754C77.928 45.754 77.844 45.778 77.736 45.826C77.628 45.862 77.538 45.88 77.466 45.88C77.346 45.88 77.214 45.82 77.07 45.7C76.938 45.58 76.872 45.454 76.872 45.322C76.872 45.07 76.956 44.866 77.124 44.71C77.304 44.566 77.478 44.452 77.646 44.368C77.826 44.284 78.03 44.242 78.258 44.242C78.45 44.242 78.606 44.26 78.726 44.296C78.846 44.332 79.008 44.41 79.212 44.53C79.32 44.59 79.446 44.722 79.59 44.926C79.734 45.13 79.854 45.418 79.95 45.79C80.262 45.214 80.646 44.812 81.102 44.584C81.57 44.344 82.164 44.224 82.884 44.224C83.16 44.224 83.454 44.314 83.766 44.494C84.09 44.674 84.366 44.884 84.594 45.124C84.81 45.388 84.99 45.718 85.134 46.114C85.278 46.498 85.35 46.846 85.35 47.158C85.35 47.338 85.338 47.632 85.314 48.04C85.278 48.364 85.26 48.706 85.26 49.066C85.26 49.906 85.422 50.422 85.746 50.614ZM100.075 47.716C100.147 47.452 100.225 47.092 100.309 46.636C100.429 46.096 100.525 45.688 100.597 45.412C100.669 45.136 100.765 44.902 100.885 44.71C101.017 44.494 101.131 44.35 101.227 44.278C101.335 44.206 101.449 44.17 101.569 44.17C102.193 44.17 102.505 44.41 102.505 44.89C102.505 45.13 102.409 45.58 102.217 46.24C101.581 48.16 101.125 49.648 100.849 50.704C100.729 51.148 100.549 51.49 100.309 51.73C100.069 51.958 99.7447 52.072 99.3367 52.072C99.1327 52.072 98.9227 51.976 98.7067 51.784C98.5027 51.58 98.3347 51.334 98.2027 51.046L98.0047 50.56C97.6687 49.708 97.4167 49.054 97.2487 48.598C97.0927 48.13 96.9907 47.71 96.9427 47.338L96.7807 47.914C96.4927 48.946 96.1927 49.906 95.8807 50.794C95.7247 51.25 95.5327 51.58 95.3047 51.784C95.0767 51.976 94.7827 52.072 94.4227 52.072C94.2067 52.072 94.0147 52.024 93.8467 51.928C93.6907 51.832 93.5407 51.67 93.3967 51.442C93.2047 51.13 93.0187 50.71 92.8387 50.182C92.6707 49.654 92.4247 48.832 92.1007 47.716C91.9447 47.236 91.8007 46.732 91.6687 46.204C91.5367 45.664 91.4707 45.286 91.4707 45.07C91.4707 44.818 91.5367 44.62 91.6687 44.476C91.8007 44.332 91.9927 44.26 92.2447 44.26C92.5687 44.26 92.7967 44.326 92.9287 44.458C93.0607 44.578 93.1807 44.764 93.2887 45.016C93.3487 45.448 93.4807 46.06 93.6847 46.852L94.0807 48.544C94.1047 48.676 94.1767 48.952 94.2967 49.372L94.4407 49.894C94.7047 49.33 94.9267 48.79 95.1067 48.274C95.2867 47.758 95.4847 47.122 95.7007 46.366C95.7127 46.318 95.8327 45.904 96.0607 45.124C96.2167 44.872 96.3547 44.686 96.4747 44.566C96.5947 44.434 96.7147 44.368 96.8347 44.368C97.0747 44.368 97.2787 44.446 97.4467 44.602C97.6267 44.746 97.7587 44.926 97.8427 45.142C97.9867 45.61 98.1127 46.036 98.2207 46.42C98.2687 46.576 98.3767 46.954 98.5447 47.554C98.7247 48.142 98.8867 48.64 99.0307 49.048C99.1747 49.456 99.2947 49.744 99.3907 49.912L100.075 47.716ZM103.831 47.878C103.831 47.146 103.993 46.54 104.317 46.06C104.641 45.568 105.091 45.106 105.667 44.674C105.835 44.554 106.117 44.452 106.513 44.368C106.909 44.272 107.257 44.224 107.557 44.224C107.917 44.224 108.295 44.302 108.691 44.458C109.099 44.602 109.429 44.77 109.681 44.962C110.125 45.286 110.431 45.664 110.599 46.096C110.767 46.516 110.851 47.02 110.851 47.608C110.851 47.86 110.707 48.106 110.419 48.346C110.143 48.574 109.843 48.688 109.519 48.688L108.835 48.67C108.487 48.67 107.989 48.682 107.341 48.706L106.963 48.724C106.699 48.748 106.501 48.76 106.369 48.76C106.177 48.76 105.913 48.736 105.577 48.688C105.625 49.252 105.835 49.696 106.207 50.02C106.579 50.332 106.981 50.488 107.413 50.488C108.169 50.488 108.697 50.338 108.997 50.038C109.249 49.858 109.417 49.744 109.501 49.696C109.585 49.648 109.717 49.624 109.897 49.624C110.089 49.624 110.257 49.714 110.401 49.894C110.545 50.074 110.617 50.254 110.617 50.434C110.617 50.638 110.491 50.848 110.239 51.064C109.999 51.268 109.669 51.484 109.249 51.712C109.021 51.808 108.709 51.892 108.313 51.964C107.917 52.036 107.587 52.072 107.323 52.072C106.903 52.072 106.435 51.952 105.919 51.712C105.403 51.46 105.019 51.184 104.767 50.884C104.515 50.584 104.293 50.158 104.101 49.606C103.921 49.054 103.831 48.478 103.831 47.878ZM107.413 47.392C108.265 47.392 108.889 47.362 109.285 47.302C109.261 46.954 109.153 46.672 108.961 46.456C108.769 46.228 108.505 46.036 108.169 45.88C108.061 45.832 107.965 45.796 107.881 45.772C107.797 45.748 107.701 45.736 107.593 45.736C107.041 45.736 106.573 45.886 106.189 46.186C105.817 46.486 105.595 46.87 105.523 47.338C106.123 47.374 106.753 47.392 107.413 47.392ZM112.41 47.932C112.41 47.5 112.488 47.098 112.644 46.726C112.8 46.342 113.028 45.946 113.328 45.538C113.628 45.13 114.042 44.812 114.57 44.584C115.098 44.344 115.674 44.224 116.298 44.224C116.778 44.224 117.24 44.326 117.684 44.53C118.14 44.722 118.548 44.962 118.908 45.25C118.956 45.334 119.04 45.49 119.16 45.718C119.28 45.934 119.364 46.132 119.412 46.312C119.472 46.492 119.502 46.678 119.502 46.87C119.502 47.674 119.208 48.214 118.62 48.49C118.032 48.754 117.288 48.886 116.388 48.886C115.488 48.886 114.756 48.826 114.192 48.706C114.216 48.934 114.276 49.162 114.372 49.39C114.468 49.618 114.582 49.792 114.714 49.912C114.954 50.14 115.188 50.29 115.416 50.362C115.656 50.422 115.974 50.452 116.37 50.452C116.97 50.452 117.438 50.338 117.774 50.11C118.086 49.906 118.326 49.804 118.494 49.804C118.722 49.804 118.896 49.876 119.016 50.02C119.136 50.152 119.196 50.326 119.196 50.542C119.196 50.998 118.902 51.37 118.314 51.658C117.738 51.946 117.084 52.09 116.352 52.09C115.776 52.09 115.206 51.988 114.642 51.784C114.078 51.58 113.628 51.292 113.292 50.92C113.064 50.536 112.86 50.068 112.68 49.516C112.5 48.964 112.41 48.436 112.41 47.932ZM116.37 45.7C116.106 45.7 115.83 45.748 115.542 45.844C115.266 45.928 115.05 46.06 114.894 46.24C114.702 46.444 114.558 46.63 114.462 46.798C114.378 46.966 114.324 47.176 114.3 47.428C114.432 47.428 114.558 47.434 114.678 47.446C114.798 47.458 114.912 47.47 115.02 47.482C115.548 47.53 115.944 47.554 116.208 47.554C116.736 47.554 117.138 47.476 117.414 47.32C117.702 47.164 117.846 46.954 117.846 46.69C117.846 46.438 117.684 46.21 117.36 46.006C117.048 45.802 116.718 45.7 116.37 45.7ZM122.623 52.072C122.383 52.072 122.179 52.03 122.011 51.946C121.843 51.862 121.741 51.772 121.705 51.676C121.573 51.196 121.507 50.566 121.507 49.786C121.507 48.346 121.531 47.176 121.579 46.276C121.627 45.208 121.651 44.182 121.651 43.198C121.651 42.91 121.615 42.49 121.543 41.938C121.531 41.842 121.513 41.668 121.489 41.416C121.465 41.164 121.453 40.93 121.453 40.714C121.453 40.45 121.543 40.24 121.723 40.084C121.915 39.928 122.161 39.85 122.461 39.85C122.701 39.85 122.893 39.928 123.037 40.084C123.193 40.228 123.271 40.426 123.271 40.678C123.271 41.062 123.283 41.602 123.307 42.298C123.331 42.946 123.343 43.432 123.343 43.756C123.343 44.116 123.331 44.596 123.307 45.196C123.283 45.556 123.271 45.82 123.271 45.988C123.271 46.516 123.277 46.954 123.289 47.302C123.733 46.858 124.315 46.336 125.035 45.736C125.755 45.136 126.313 44.716 126.709 44.476C127.129 44.224 127.405 44.098 127.537 44.098C127.789 44.098 128.005 44.152 128.185 44.26C128.365 44.368 128.455 44.524 128.455 44.728C128.455 44.932 128.425 45.094 128.365 45.214C128.305 45.334 128.197 45.454 128.041 45.574L126.007 47.068C126.211 47.152 126.403 47.338 126.583 47.626C126.775 47.914 127.003 48.304 127.267 48.796C127.567 49.36 127.813 49.78 128.005 50.056C128.209 50.332 128.413 50.47 128.617 50.47L129.067 50.452C129.151 50.452 129.223 50.5 129.283 50.596C129.355 50.692 129.391 50.83 129.391 51.01C129.391 51.286 129.253 51.508 128.977 51.676C128.713 51.844 128.413 51.928 128.077 51.928C127.609 51.928 127.195 51.748 126.835 51.388C126.475 51.016 126.133 50.518 125.809 49.894L125.413 49.102C125.245 48.766 125.113 48.526 125.017 48.382C124.933 48.238 124.831 48.142 124.711 48.094L123.271 49.246L123.343 51.208C123.343 51.52 123.259 51.742 123.091 51.874C122.935 52.006 122.779 52.072 122.623 52.072ZM137.718 40.732C137.718 40.852 137.688 41.182 137.628 41.722C137.496 43.042 137.43 44.38 137.43 45.736C137.43 46.924 137.448 47.83 137.484 48.454C137.52 49.078 137.61 49.558 137.754 49.894C137.898 50.218 138.12 50.38 138.42 50.38C138.996 50.38 139.284 50.572 139.284 50.956C139.284 51.208 139.158 51.424 138.906 51.604C138.654 51.772 138.378 51.856 138.078 51.856C137.718 51.856 137.382 51.772 137.07 51.604C136.758 51.436 136.512 51.178 136.332 50.83C136.08 51.202 135.714 51.502 135.234 51.73C134.766 51.946 134.31 52.054 133.866 52.054C133.182 52.054 132.576 51.91 132.048 51.622C131.52 51.334 131.112 50.944 130.824 50.452C130.536 49.948 130.392 49.396 130.392 48.796C130.392 48.22 130.458 47.668 130.59 47.14C130.734 46.6 130.926 46.156 131.166 45.808C131.49 45.352 131.922 44.992 132.462 44.728C133.014 44.452 133.554 44.314 134.082 44.314C134.406 44.314 134.712 44.38 135 44.512C135.288 44.632 135.54 44.782 135.756 44.962C135.756 44.158 135.75 43.654 135.738 43.45V43.072C135.738 41.956 135.81 41.14 135.954 40.624C136.086 40.12 136.404 39.868 136.908 39.868C137.184 39.868 137.388 39.928 137.52 40.048C137.652 40.168 137.718 40.396 137.718 40.732ZM132.174 48.76C132.174 49.312 132.33 49.756 132.642 50.092C132.966 50.428 133.35 50.596 133.794 50.596C134.43 50.596 134.898 50.398 135.198 50.002C135.51 49.606 135.666 49.096 135.666 48.472L135.648 46.69C135.18 46.174 134.694 45.916 134.19 45.916C133.842 45.916 133.512 46.006 133.2 46.186C132.9 46.354 132.66 46.612 132.48 46.96C132.276 47.356 132.174 47.956 132.174 48.76ZM148.658 51.136C148.658 51.4 148.514 51.622 148.226 51.802C147.95 51.982 147.692 52.072 147.452 52.072C146.996 52.072 146.63 52.018 146.354 51.91C146.09 51.79 145.844 51.574 145.616 51.262C145.304 51.538 144.878 51.748 144.338 51.892C143.798 52.024 143.3 52.09 142.844 52.09C142.1 52.09 141.488 51.892 141.008 51.496C140.528 51.088 140.288 50.494 140.288 49.714C140.288 49.378 140.378 49.072 140.558 48.796C140.738 48.508 140.984 48.256 141.296 48.04C141.644 47.812 142.04 47.638 142.484 47.518C142.928 47.386 143.39 47.32 143.87 47.32C144.122 47.32 144.422 47.368 144.77 47.464C145.118 47.56 145.388 47.662 145.58 47.77V47.482C145.58 46.834 145.424 46.39 145.112 46.15C144.8 45.898 144.296 45.772 143.6 45.772C143.396 45.772 143.192 45.814 142.988 45.898C142.796 45.982 142.574 46.096 142.322 46.24C141.986 46.42 141.668 46.51 141.368 46.51C141.26 46.51 141.158 46.438 141.062 46.294C140.966 46.138 140.918 46 140.918 45.88C140.918 45.532 141.08 45.232 141.404 44.98C141.74 44.728 142.136 44.542 142.592 44.422C143.048 44.29 143.456 44.224 143.816 44.224C144.176 44.224 144.59 44.296 145.058 44.44C145.526 44.572 145.91 44.758 146.21 44.998C146.57 45.31 146.846 45.676 147.038 46.096C147.242 46.504 147.344 46.954 147.344 47.446C147.344 47.602 147.332 47.836 147.308 48.148C147.284 48.484 147.272 48.772 147.272 49.012C147.272 49.12 147.26 49.282 147.236 49.498C147.212 49.762 147.2 49.972 147.2 50.128C147.2 50.272 147.254 50.398 147.362 50.506C147.47 50.602 147.596 50.65 147.74 50.65L148.244 50.632C148.376 50.632 148.478 50.68 148.55 50.776C148.622 50.872 148.658 50.992 148.658 51.136ZM142.862 50.668C143.378 50.668 143.81 50.614 144.158 50.506C144.506 50.398 144.926 50.2 145.418 49.912C145.466 49.708 145.496 49.438 145.508 49.102C144.848 48.79 144.302 48.634 143.87 48.634C143.378 48.634 142.94 48.724 142.556 48.904C142.172 49.084 141.98 49.402 141.98 49.858C141.98 50.086 142.076 50.278 142.268 50.434C142.46 50.59 142.658 50.668 142.862 50.668ZM151.816 55.672C151.156 55.672 150.676 55.552 150.376 55.312C150.088 55.084 149.944 54.832 149.944 54.556C149.944 54.136 150.142 53.926 150.538 53.926C150.658 53.926 150.814 53.962 151.006 54.034C151.198 54.118 151.378 54.16 151.546 54.16C151.81 54.16 152.026 53.986 152.194 53.638C152.362 53.29 152.53 52.726 152.698 51.946C152.326 51.514 151.87 50.83 151.33 49.894C150.802 48.958 150.346 48.04 149.962 47.14C149.578 46.228 149.386 45.58 149.386 45.196C149.386 44.896 149.488 44.674 149.692 44.53C149.908 44.386 150.154 44.314 150.43 44.314C150.646 44.314 150.814 44.356 150.934 44.44C151.054 44.512 151.138 44.65 151.186 44.854C151.474 45.874 151.78 46.768 152.104 47.536C152.44 48.304 152.866 49.138 153.382 50.038C153.586 49.57 153.856 48.772 154.192 47.644C154.564 46.384 154.876 45.49 155.128 44.962C155.236 44.746 155.368 44.572 155.524 44.44C155.692 44.308 155.878 44.242 156.082 44.242C156.286 44.242 156.502 44.32 156.73 44.476C156.97 44.62 157.09 44.794 157.09 44.998C157.09 45.118 157.048 45.262 156.964 45.43C156.496 46.51 156.082 47.53 155.722 48.49C155.374 49.438 155.038 50.482 154.714 51.622C154.522 52.258 154.318 52.864 154.102 53.44C153.898 54.016 153.754 54.37 153.67 54.502C153.43 54.838 153.16 55.114 152.86 55.33C152.56 55.558 152.212 55.672 151.816 55.672ZM160.794 51.01C160.794 51.31 160.674 51.592 160.434 51.856C160.194 52.108 159.93 52.234 159.642 52.234C159.306 52.234 159 52.144 158.724 51.964C158.448 51.772 158.31 51.532 158.31 51.244C158.31 50.788 158.394 50.452 158.562 50.236C158.742 50.02 159.006 49.912 159.354 49.912C159.762 49.912 160.104 50.014 160.38 50.218C160.656 50.41 160.794 50.674 160.794 51.01ZM165.224 51.01C165.224 51.31 165.104 51.592 164.864 51.856C164.624 52.108 164.36 52.234 164.072 52.234C163.736 52.234 163.43 52.144 163.154 51.964C162.878 51.772 162.74 51.532 162.74 51.244C162.74 50.788 162.824 50.452 162.992 50.236C163.172 50.02 163.436 49.912 163.784 49.912C164.192 49.912 164.534 50.014 164.81 50.218C165.086 50.41 165.224 50.674 165.224 51.01ZM169.653 51.01C169.653 51.31 169.533 51.592 169.293 51.856C169.053 52.108 168.789 52.234 168.501 52.234C168.165 52.234 167.859 52.144 167.583 51.964C167.307 51.772 167.169 51.532 167.169 51.244C167.169 50.788 167.253 50.452 167.421 50.236C167.601 50.02 167.865 49.912 168.213 49.912C168.621 49.912 168.963 50.014 169.239 50.218C169.515 50.41 169.653 50.674 169.653 51.01Z" fill="black"/>
<path d="M305.608 41.0986H192.392C190.518 41.0986 189 42.6171 189 44.4902V101.926C189 103.799 190.518 105.317 192.392 105.317H305.608C307.482 105.317 309 103.799 309 101.926V44.4902C309 42.6171 307.482 41.0986 305.608 41.0986Z" fill="#FFB636"/>
<path d="M292.378 66.5751H288.23C287.78 66.5751 287.349 66.3965 287.031 66.0785C286.713 65.7604 286.534 65.3291 286.534 64.8793V53.8501C286.534 53.4003 286.713 52.969 287.031 52.651C287.349 52.333 287.78 52.1543 288.23 52.1543H292.378C292.827 52.1543 293.259 52.333 293.577 52.651C293.895 52.969 294.073 53.4003 294.073 53.8501V64.8793C294.073 65.3291 293.895 65.7604 293.577 66.0785C293.259 66.3965 292.827 66.5751 292.378 66.5751ZM304.942 64.8793V53.8501C304.942 53.4003 304.763 52.969 304.445 52.651C304.127 52.333 303.696 52.1543 303.246 52.1543H299.098C298.648 52.1543 298.217 52.333 297.899 52.651C297.581 52.969 297.402 53.4003 297.402 53.8501V64.8793C297.402 65.3291 297.581 65.7604 297.899 66.0785C298.217 66.3965 298.648 66.5751 299.098 66.5751H303.246C303.696 66.5751 304.127 66.3965 304.445 66.0785C304.763 65.7604 304.942 65.3291 304.942 64.8793ZM201.276 64.8793V53.8501C201.276 53.4003 201.097 52.969 200.779 52.651C200.461 52.333 200.03 52.1543 199.58 52.1543H195.432C194.982 52.1543 194.551 52.333 194.233 52.651C193.915 52.969 193.736 53.4003 193.736 53.8501V64.8793C193.736 65.3291 193.915 65.7604 194.233 66.0785C194.551 66.3965 194.982 66.5751 195.432 66.5751H199.58C199.803 66.5751 200.023 66.5313 200.229 66.4461C200.435 66.3608 200.622 66.2359 200.779 66.0785C200.937 65.921 201.061 65.734 201.147 65.5283C201.232 65.3226 201.276 65.102 201.276 64.8793ZM212.144 64.8793V53.8501C212.144 53.4003 211.966 52.969 211.647 52.651C211.329 52.333 210.898 52.1543 210.448 52.1543H206.301C205.851 52.1543 205.42 52.333 205.102 52.651C204.784 52.969 204.605 53.4003 204.605 53.8501V64.8793C204.605 65.3291 204.784 65.7604 205.102 66.0785C205.42 66.3965 205.851 66.5751 206.301 66.5751H210.449C210.898 66.5751 211.33 66.3964 211.648 66.0784C211.966 65.7603 212.144 65.3291 212.144 64.8793ZM201.276 77.998V74.3138C201.276 74.0911 201.232 73.8706 201.147 73.6649C201.061 73.4591 200.937 73.2722 200.779 73.1147C200.622 72.9573 200.435 72.8323 200.229 72.7471C200.023 72.6619 199.803 72.618 199.58 72.618H195.432C194.982 72.618 194.551 72.7967 194.233 73.1147C193.915 73.4328 193.736 73.8641 193.736 74.3138V77.998C193.736 78.4477 193.915 78.879 194.233 79.1971C194.551 79.5151 194.982 79.6937 195.432 79.6937H199.58C199.803 79.6937 200.023 79.6499 200.229 79.5647C200.435 79.4794 200.622 79.3545 200.779 79.1971C200.937 79.0396 201.061 78.8526 201.147 78.6469C201.232 78.4412 201.276 78.2206 201.276 77.998ZM212.144 77.998V74.3138C212.144 73.8641 211.966 73.4328 211.647 73.1147C211.329 72.7967 210.898 72.618 210.448 72.618H206.301C205.851 72.618 205.42 72.7967 205.102 73.1147C204.784 73.4328 204.605 73.8641 204.605 74.3138V77.998C204.605 78.4477 204.784 78.879 205.102 79.1971C205.42 79.5151 205.851 79.6937 206.301 79.6937H210.449C210.898 79.6937 211.33 79.515 211.648 79.197C211.966 78.879 212.144 78.4477 212.144 77.998ZM201.276 90.7246V87.0405C201.276 86.8178 201.232 86.5973 201.147 86.3916C201.061 86.1858 200.937 85.9989 200.779 85.8414C200.622 85.684 200.435 85.559 200.229 85.4738C200.023 85.3886 199.803 85.3447 199.58 85.3447H195.432C194.982 85.3447 194.551 85.5234 194.233 85.8414C193.915 86.1594 193.736 86.5908 193.736 87.0405V90.7246C193.736 91.1744 193.915 91.6057 194.233 91.9238C194.551 92.2418 194.982 92.4204 195.432 92.4204H199.58C199.803 92.4204 200.023 92.3766 200.229 92.2914C200.435 92.2061 200.622 92.0812 200.779 91.9238C200.937 91.7663 201.061 91.5793 201.147 91.3736C201.232 91.1679 201.276 90.9473 201.276 90.7246ZM212.144 90.7246V87.0405C212.144 86.5908 211.966 86.1594 211.647 85.8414C211.329 85.5234 210.898 85.3447 210.448 85.3447H206.301C205.851 85.3447 205.42 85.5234 205.102 85.8414C204.784 86.1594 204.605 86.5908 204.605 87.0405V90.7246C204.605 91.1744 204.784 91.6057 205.102 91.9238C205.42 92.2418 205.851 92.4204 206.301 92.4204H210.449C210.898 92.4204 211.33 92.2417 211.648 91.9237C211.966 91.6057 212.144 91.1744 212.144 90.7246ZM294.073 77.998V74.3138C294.073 73.8641 293.895 73.4328 293.577 73.1147C293.259 72.7967 292.827 72.618 292.378 72.618H288.23C287.78 72.618 287.349 72.7967 287.031 73.1147C286.713 73.4328 286.534 73.8641 286.534 74.3138V77.998C286.534 78.4477 286.713 78.879 287.031 79.1971C287.349 79.5151 287.78 79.6937 288.23 79.6937H292.378C292.827 79.6937 293.259 79.5151 293.577 79.1971C293.895 78.879 294.073 78.4477 294.073 77.998ZM304.942 77.998V74.3138C304.942 73.8641 304.763 73.4328 304.445 73.1147C304.127 72.7967 303.696 72.618 303.246 72.618H299.098C298.648 72.618 298.217 72.7967 297.899 73.1147C297.581 73.4328 297.402 73.8641 297.402 74.3138V77.998C297.402 78.4477 297.581 78.879 297.899 79.1971C298.217 79.5151 298.648 79.6937 299.098 79.6937H303.246C303.696 79.6937 304.127 79.5151 304.445 79.1971C304.763 78.879 304.942 78.4477 304.942 77.998ZM294.073 90.7246V87.0405C294.073 86.5908 293.895 86.1594 293.577 85.8414C293.259 85.5234 292.827 85.3447 292.378 85.3447H288.23C287.78 85.3447 287.349 85.5234 287.031 85.8414C286.713 86.1594 286.534 86.5908 286.534 87.0405V90.7246C286.534 91.1744 286.713 91.6057 287.031 91.9238C287.349 92.2418 287.78 92.4204 288.23 92.4204H292.378C292.827 92.4204 293.259 92.2418 293.577 91.9238C293.895 91.6057 294.073 91.1744 294.073 90.7246ZM304.942 90.7246V87.0405C304.942 86.5908 304.763 86.1594 304.445 85.8414C304.127 85.5234 303.696 85.3447 303.246 85.3447H299.098C298.648 85.3447 298.217 85.5234 297.899 85.8414C297.581 86.1594 297.402 86.5908 297.402 87.0405V90.7246C297.402 91.1744 297.581 91.6057 297.899 91.9238C298.217 92.2418 298.648 92.4204 299.098 92.4204H303.246C303.696 92.4204 304.127 92.2418 304.445 91.9238C304.763 91.6057 304.942 91.1744 304.942 90.7246Z" fill="#D38E3C"/>
<path d="M279.995 1.75H219.628C218.653 1.75 217.862 2.88901 217.862 4.29393V102.774C217.862 104.179 218.653 105.318 219.628 105.318H279.995C280.97 105.318 281.761 104.179 281.761 102.774V4.29416C281.761 2.88901 280.97 1.75 279.995 1.75Z" fill="#FFE1AB"/>
<path d="M229.764 59.3526H224.584C224.135 59.3526 223.703 59.1739 223.385 58.8559C223.067 58.5379 222.889 58.1065 222.889 57.6568V44.6538C222.889 44.2041 223.067 43.7727 223.385 43.4547C223.703 43.1367 224.135 42.958 224.584 42.958H229.764C230.214 42.958 230.645 43.1367 230.963 43.4547C231.281 43.7727 231.46 44.2041 231.46 44.6538V57.6568C231.46 58.1065 231.281 58.5379 230.963 58.8559C230.645 59.1739 230.214 59.3526 229.764 59.3526ZM243.816 57.6568V44.6538C243.816 44.2041 243.637 43.7727 243.319 43.4547C243.001 43.1367 242.57 42.958 242.12 42.958H236.94C236.49 42.958 236.059 43.1367 235.741 43.4547C235.423 43.7727 235.244 44.2041 235.244 44.6538V57.6568C235.244 58.1065 235.423 58.5379 235.741 58.8559C236.059 59.1739 236.49 59.3526 236.94 59.3526H242.12C242.57 59.3526 243.001 59.1739 243.319 58.8559C243.637 58.5379 243.816 58.1065 243.816 57.6568ZM264.076 57.6568V44.6538C264.076 44.2041 263.898 43.7727 263.58 43.4547C263.261 43.1367 262.83 42.958 262.38 42.958H257.201C256.751 42.958 256.32 43.1367 256.002 43.4547C255.684 43.7727 255.505 44.2041 255.505 44.6538V57.6568C255.505 58.1065 255.684 58.5379 256.002 58.8559C256.32 59.1739 256.751 59.3526 257.201 59.3526H262.38C262.83 59.3526 263.261 59.1739 263.58 58.8559C263.898 58.5379 264.076 58.1065 264.076 57.6568ZM276.432 57.6568V44.6538C276.432 44.2041 276.254 43.7727 275.935 43.4547C275.617 43.1367 275.186 42.958 274.736 42.958H269.557C269.107 42.958 268.676 43.1367 268.358 43.4547C268.04 43.7727 267.861 44.2041 267.861 44.6538V57.6568C267.861 58.1065 268.04 58.5379 268.358 58.8559C268.676 59.1739 269.107 59.3526 269.557 59.3526H274.736C275.186 59.3526 275.617 59.1739 275.935 58.8559C276.254 58.5379 276.432 58.1065 276.432 57.6568ZM231.46 71.5032V67.819C231.46 67.3693 231.281 66.938 230.963 66.6199C230.645 66.3019 230.214 66.1233 229.764 66.1233H224.584C224.135 66.1233 223.703 66.3019 223.385 66.6199C223.067 66.938 222.889 67.3693 222.889 67.819V71.5032C222.889 71.9529 223.067 72.3842 223.385 72.7023C223.703 73.0203 224.135 73.199 224.584 73.199H229.764C230.214 73.199 230.645 73.0203 230.963 72.7023C231.281 72.3842 231.46 71.9529 231.46 71.5032ZM243.816 71.5032V67.819C243.816 67.3693 243.637 66.938 243.319 66.6199C243.001 66.3019 242.57 66.1233 242.12 66.1233H236.94C236.49 66.1233 236.059 66.3019 235.741 66.6199C235.423 66.938 235.244 67.3693 235.244 67.819V71.5032C235.244 71.9529 235.423 72.3842 235.741 72.7023C236.059 73.0203 236.49 73.199 236.94 73.199H242.12C242.57 73.199 243.001 73.0203 243.319 72.7023C243.637 72.3842 243.816 71.9529 243.816 71.5032ZM264.076 71.5032V67.819C264.076 67.3693 263.898 66.938 263.58 66.6199C263.261 66.3019 262.83 66.1233 262.38 66.1233H257.201C256.751 66.1233 256.32 66.3019 256.002 66.6199C255.684 66.938 255.505 67.3693 255.505 67.819V71.5032C255.505 71.9529 255.684 72.3842 256.002 72.7023C256.32 73.0203 256.751 73.199 257.201 73.199H262.38C262.83 73.199 263.261 73.0203 263.58 72.7023C263.898 72.3842 264.076 71.9529 264.076 71.5032ZM276.432 71.5032V67.819C276.432 67.3693 276.254 66.938 275.935 66.6199C275.617 66.3019 275.186 66.1233 274.736 66.1233H269.557C269.107 66.1233 268.676 66.3019 268.358 66.6199C268.04 66.938 267.861 67.3693 267.861 67.819V71.5032C267.861 71.9529 268.04 72.3842 268.358 72.7023C268.676 73.0203 269.107 73.199 269.557 73.199H274.736C275.186 73.199 275.617 73.0203 275.935 72.7023C276.254 72.3842 276.432 71.9529 276.432 71.5032ZM231.46 85.1536V81.4695C231.46 81.0197 231.281 80.5884 230.963 80.2704C230.645 79.9524 230.214 79.7737 229.764 79.7737H224.584C224.135 79.7737 223.703 79.9524 223.385 80.2704C223.067 80.5884 222.889 81.0197 222.889 81.4695V85.1536C222.889 85.6033 223.067 86.0347 223.385 86.3527C223.703 86.6707 224.135 86.8494 224.584 86.8494H229.764C230.214 86.8494 230.645 86.6707 230.963 86.3527C231.281 86.0347 231.46 85.6033 231.46 85.1536ZM276.432 85.1536V81.4695C276.432 81.0197 276.254 80.5884 275.935 80.2704C275.617 79.9524 275.186 79.7737 274.736 79.7737H269.557C269.107 79.7737 268.676 79.9524 268.358 80.2704C268.04 80.5884 267.861 81.0197 267.861 81.4695V85.1536C267.861 85.6033 268.04 86.0347 268.358 86.3527C268.676 86.6707 269.107 86.8494 269.557 86.8494H274.736C275.186 86.8494 275.617 86.6707 275.935 86.3527C276.254 86.0347 276.432 85.6033 276.432 85.1536ZM231.46 97.5265V93.8424C231.46 93.3927 231.281 92.9613 230.963 92.6433C230.645 92.3253 230.214 92.1466 229.764 92.1466H224.584C224.135 92.1466 223.703 92.3253 223.385 92.6433C223.067 92.9613 222.889 93.3927 222.889 93.8424V97.5265C222.889 97.9763 223.067 98.4076 223.385 98.7256C223.703 99.0437 224.135 99.2223 224.584 99.2223H229.764C230.214 99.2223 230.645 99.0437 230.963 98.7256C231.281 98.4076 231.46 97.9763 231.46 97.5265ZM276.432 97.5265V93.8424C276.432 93.3927 276.254 92.9613 275.935 92.6433C275.617 92.3253 275.186 92.1466 274.736 92.1466H269.557C269.107 92.1466 268.676 92.3253 268.358 92.6433C268.04 92.9613 267.861 93.3927 267.861 93.8424V97.5265C267.861 97.9763 268.04 98.4076 268.358 98.7256C268.676 99.0437 269.107 99.2223 269.557 99.2223H274.736C275.186 99.2223 275.617 99.0437 275.935 98.7256C276.254 98.4076 276.432 97.9763 276.432 97.5265Z" fill="#E2A042"/>
<path d="M237.521 80.2363H262.102V105.318H237.521V80.2363Z" fill="#2B3B47"/>
<path d="M249.811 37.4711C257.274 37.4711 263.324 31.4212 263.324 23.9582C263.324 16.4952 257.274 10.4453 249.811 10.4453C242.348 10.4453 236.298 16.4952 236.298 23.9582C236.298 31.4212 242.348 37.4711 249.811 37.4711Z" fill="#FF473E"/>
<path d="M249.811 34.3721C255.562 34.3721 260.225 29.7098 260.225 23.9585C260.225 18.2072 255.562 13.5449 249.811 13.5449C244.06 13.5449 239.397 18.2072 239.397 23.9585C239.397 29.7098 244.06 34.3721 249.811 34.3721Z" fill="#F4F3EF"/>
<path d="M264.013 78.8683V81.6044C264.013 82.0542 263.835 82.4855 263.517 82.8035C263.199 83.1215 262.767 83.3002 262.318 83.3002H250.561V105.274H249.062V83.3002H237.306C236.856 83.3002 236.424 83.1215 236.106 82.8035C235.788 82.4855 235.61 82.0542 235.61 81.6044V78.8683C235.61 78.4185 235.788 77.9872 236.106 77.6692C236.424 77.3512 236.856 77.1725 237.306 77.1725H262.318C262.767 77.1725 263.199 77.3512 263.517 77.6692C263.835 77.9872 264.013 78.4185 264.013 78.8683ZM283.363 4.70324V1.69579C283.363 1.24604 283.185 0.814709 282.867 0.496686C282.549 0.178663 282.117 0 281.667 0H217.956C217.506 0 217.074 0.178663 216.756 0.496686C216.438 0.814709 216.26 1.24604 216.26 1.69579V4.70324C216.26 5.15299 216.438 5.58432 216.756 5.90234C217.074 6.22037 217.506 6.39903 217.956 6.39903H281.667C282.117 6.39903 282.549 6.22037 282.867 5.90234C283.185 5.58432 283.363 5.15299 283.363 4.70324ZM258.018 24.9536C258.018 24.6523 257.898 24.3634 257.685 24.1504C257.472 23.9373 257.183 23.8177 256.882 23.8177H250.766V17.2288C250.766 16.9275 250.646 16.6386 250.433 16.4256C250.22 16.2125 249.931 16.0928 249.63 16.0928C249.328 16.0928 249.039 16.2125 248.826 16.4256C248.613 16.6386 248.494 16.9275 248.494 17.2288V24.9536C248.494 25.2549 248.613 25.5438 248.826 25.7568C249.039 25.9699 249.328 26.0896 249.63 26.0896H256.882C257.183 26.0896 257.472 25.9699 257.685 25.7568C257.898 25.5438 258.018 25.2549 258.018 24.9536Z" fill="#597B91"/>
<path d="M30.1971 28.8764C35.8957 28.8764 40.5183 24.2506 40.5183 18.5521C40.5183 16.2658 39.7521 14.1734 38.4979 12.4625L39.6833 7.524L34.138 8.5311L31.8642 5L25.8153 9.03465L21.5304 7.27067L20.5233 12.3093L16.2354 14.8333L20.0323 20.1816C20.8236 25.1045 25.049 28.8764 30.1971 28.8764Z" fill="black"/>
<path d="M36.659 85.1679L33.9786 66.8993L20.3984 66.7617L26.5755 85.1679L22.6034 102.304H22.1218V105H37.247V102.304H34.1444L36.659 85.1679Z" fill="black"/>
<path d="M33.9787 65.7355V60.5436L23.2634 51.4422L23.1821 51.4297V34.4279L31.1982 34.5561L31.1669 44.5364L33.9755 47.3669V30.2587H18.9942L16.7704 31.0469V30.2556C16.7704 30.2556 16.27 30.2399 15.4724 30.2712V28.6011C15.4724 28.035 15.0127 27.5752 14.4466 27.5752C13.8805 27.5752 13.4207 28.035 13.4207 28.6011V30.4495C10.8998 30.7716 4.49129 31.6005 2.85866 33.7366C0.00312629 37.4773 0 64.325 0 64.325L16.7704 62.3514V60.4936L18.9973 61.7728V65.7355H33.9787ZM16.7704 55.8428V35.4381L18.9973 34.8376V57.122L16.7704 55.8428Z" fill="black"/>
<path d="M30.1223 45.3312L29.9784 35.7543L24.5332 35.7168V50.3667L38.1979 62.4393L42.3107 57.1005L30.1223 45.3312Z" fill="black"/>
</svg>
