<svg width="210" height="41" viewBox="0 0 210 41" fill="none" xmlns="http://www.w3.org/2000/svg">
<path d="M6.36648 5.18182V7.22727H0.306818V5.18182H6.36648ZM1.69389 15V4.4723C1.69389 3.76065 1.83239 3.17045 2.10938 2.7017C2.39062 2.23295 2.77415 1.88139 3.25994 1.64702C3.74574 1.41264 4.29759 1.29545 4.91548 1.29545C5.3331 1.29545 5.71449 1.32741 6.05966 1.39134C6.40909 1.45526 6.66903 1.51278 6.83949 1.56392L6.35369 3.60938C6.24716 3.57528 6.11506 3.54332 5.95739 3.51349C5.80398 3.48366 5.64631 3.46875 5.48438 3.46875C5.08381 3.46875 4.80469 3.5625 4.64702 3.75C4.48935 3.93324 4.41051 4.19105 4.41051 4.52344V15H1.69389ZM12.1145 15.1918C11.1216 15.1918 10.263 14.9808 9.53853 14.5589C8.81836 14.1328 8.26225 13.5405 7.87021 12.782C7.47816 12.0192 7.28214 11.1349 7.28214 10.1293C7.28214 9.11506 7.47816 8.22869 7.87021 7.47017C8.26225 6.70739 8.81836 6.11506 9.53853 5.69318C10.263 5.26705 11.1216 5.05398 12.1145 5.05398C13.1074 5.05398 13.964 5.26705 14.6841 5.69318C15.4086 6.11506 15.9668 6.70739 16.3588 7.47017C16.7509 8.22869 16.9469 9.11506 16.9469 10.1293C16.9469 11.1349 16.7509 12.0192 16.3588 12.782C15.9668 13.5405 15.4086 14.1328 14.6841 14.5589C13.964 14.9808 13.1074 15.1918 12.1145 15.1918ZM12.1273 13.0824C12.579 13.0824 12.9561 12.9545 13.2587 12.6989C13.5613 12.4389 13.7892 12.0852 13.9426 11.6378C14.1003 11.1903 14.1792 10.6811 14.1792 10.1101C14.1792 9.53906 14.1003 9.02983 13.9426 8.58239C13.7892 8.13494 13.5613 7.78125 13.2587 7.52131C12.9561 7.26136 12.579 7.13139 12.1273 7.13139C11.6713 7.13139 11.2878 7.26136 10.9767 7.52131C10.6699 7.78125 10.4377 8.13494 10.28 8.58239C10.1266 9.02983 10.0499 9.53906 10.0499 10.1101C10.0499 10.6811 10.1266 11.1903 10.28 11.6378C10.4377 12.0852 10.6699 12.4389 10.9767 12.6989C11.2878 12.9545 11.6713 13.0824 12.1273 13.0824ZM18.7175 15V5.18182H21.3574V6.89489H21.4597C21.6387 6.28551 21.9391 5.82528 22.361 5.5142C22.7828 5.19886 23.2686 5.04119 23.8184 5.04119C23.9547 5.04119 24.1017 5.04972 24.2594 5.06676C24.4171 5.08381 24.5556 5.10724 24.6749 5.13707V7.55327C24.5471 7.51491 24.3702 7.48082 24.1444 7.45099C23.9185 7.42116 23.7118 7.40625 23.5243 7.40625C23.1238 7.40625 22.7658 7.49361 22.4505 7.66832C22.1394 7.83878 21.8922 8.07741 21.709 8.38423C21.53 8.69105 21.4405 9.04474 21.4405 9.44531V15H18.7175ZM41.1861 0.149999H42.6801V12.084H41.1861V0.149999ZM42.2121 5.064H45.0921V6.306H42.2121V5.064ZM32.5461 14.82H43.4181V16.044H32.5461V14.82ZM32.5461 10.932H34.0401V15.108H32.5461V10.932ZM30.7281 1.302H32.2041V4.02H36.7941V1.302H38.2521V9.366H30.7281V1.302ZM32.2041 5.19V8.16H36.7941V5.19H32.2041ZM46.6027 8.52H61.3087V9.744H46.6027V8.52ZM53.2267 6.09H54.7027V8.898H53.2267V6.09ZM48.2407 11.328H59.4907V16.404H57.9967V12.552H48.2407V11.328ZM48.5647 0.509999H50.0407V2.346H57.9067V0.509999H59.4007V6.594H48.5647V0.509999ZM50.0407 3.516V5.406H57.9067V3.516H50.0407ZM63.1613 8.448H77.9033V9.672H63.1613V8.448ZM69.8933 9.204H71.3873V12.948H69.8933V9.204ZM65.0513 0.887999H75.9953V6.612H65.0513V0.887999ZM74.5193 2.094H66.5093V5.406H74.5193V2.094ZM65.0333 14.82H76.2653V16.044H65.0333V14.82ZM65.0333 11.382H66.5093V15.252H65.0333V11.382ZM92.5584 3.12H97.2564V4.326H92.5584V3.12ZM92.5584 6.63H97.2924V7.836H92.5584V6.63ZM96.6804 0.149999H98.1744V12.192H96.6804V0.149999ZM87.7164 14.82H98.5704V16.044H87.7164V14.82ZM87.7164 11.022H89.2104V15.45H87.7164V11.022ZM85.5924 1.212H87.0684V4.092H91.4784V1.212H92.9364V9.42H85.5924V1.212ZM87.0684 5.262V8.196H91.4784V5.262H87.0684ZM107.929 0.707999H109.243V1.608C109.243 4.722 106.075 6.954 102.691 7.53L102.097 6.324C105.067 5.874 107.929 3.93 107.929 1.608V0.707999ZM108.199 0.707999H109.495V1.608C109.495 3.876 112.393 5.874 115.327 6.324L114.733 7.53C111.385 6.954 108.199 4.686 108.199 1.608V0.707999ZM107.929 10.212H109.405V16.404H107.929V10.212ZM101.359 9.294H116.065V10.536H101.359V9.294ZM122.27 15V5.18182H124.993V15H122.27ZM123.638 3.91619C123.233 3.91619 122.886 3.78196 122.596 3.51349C122.311 3.24077 122.168 2.91477 122.168 2.53551C122.168 2.16051 122.311 1.83878 122.596 1.57031C122.886 1.29758 123.233 1.16122 123.638 1.16122C124.043 1.16122 124.388 1.29758 124.674 1.57031C124.963 1.83878 125.108 2.16051 125.108 2.53551C125.108 2.91477 124.963 3.24077 124.674 3.51349C124.388 3.78196 124.043 3.91619 123.638 3.91619ZM129.898 9.32386V15H127.175V5.18182H129.77V6.91406H129.885C130.102 6.34304 130.466 5.89133 130.978 5.55895C131.489 5.2223 132.109 5.05398 132.838 5.05398C133.52 5.05398 134.114 5.20312 134.621 5.50142C135.128 5.79972 135.523 6.22585 135.804 6.77983C136.085 7.32955 136.226 7.9858 136.226 8.74858V15H133.503V9.23438C133.507 8.63352 133.354 8.16477 133.042 7.82812C132.731 7.48722 132.303 7.31676 131.758 7.31676C131.391 7.31676 131.067 7.3956 130.786 7.55327C130.509 7.71094 130.292 7.94105 130.134 8.24361C129.981 8.5419 129.902 8.90199 129.898 9.32386ZM142.832 15V5.18182H144.34V15H142.832ZM143.599 3.54545C143.305 3.54545 143.051 3.44531 142.838 3.24503C142.629 3.04474 142.525 2.80398 142.525 2.52273C142.525 2.24148 142.629 2.00071 142.838 1.80043C143.051 1.60014 143.305 1.5 143.599 1.5C143.893 1.5 144.144 1.60014 144.353 1.80043C144.566 2.00071 144.673 2.24148 144.673 2.52273C144.673 2.80398 144.566 3.04474 144.353 3.24503C144.144 3.44531 143.893 3.54545 143.599 3.54545ZM151.373 5.18182V6.46023H146.285V5.18182H151.373ZM147.768 2.82955H149.277V12.1875C149.277 12.6136 149.338 12.9332 149.462 13.1463C149.59 13.3551 149.752 13.4957 149.948 13.5682C150.148 13.6364 150.359 13.6705 150.581 13.6705C150.747 13.6705 150.883 13.6619 150.99 13.6449C151.096 13.6236 151.181 13.6065 151.245 13.5938L151.552 14.9489C151.45 14.9872 151.307 15.0256 151.124 15.0639C150.941 15.1065 150.708 15.1278 150.427 15.1278C150.001 15.1278 149.583 15.0362 149.174 14.853C148.77 14.6697 148.433 14.3906 148.164 14.0156C147.9 13.6406 147.768 13.1676 147.768 12.5966V2.82955ZM157.653 15.2045C156.707 15.2045 155.891 14.9957 155.205 14.5781C154.523 14.1562 153.997 13.5682 153.626 12.8139C153.26 12.0554 153.077 11.1733 153.077 10.1676C153.077 9.16193 153.26 8.27557 153.626 7.50852C153.997 6.73722 154.513 6.13636 155.173 5.70597C155.838 5.27131 156.614 5.05398 157.5 5.05398C158.011 5.05398 158.516 5.1392 159.015 5.30966C159.513 5.48011 159.967 5.7571 160.376 6.14062C160.786 6.51989 161.112 7.02273 161.354 7.64915C161.597 8.27557 161.719 9.04687 161.719 9.96307V10.6023H154.151V9.2983H160.185C160.185 8.74432 160.074 8.25 159.852 7.81534C159.635 7.38068 159.324 7.03764 158.919 6.78622C158.518 6.5348 158.045 6.40909 157.5 6.40909C156.899 6.40909 156.379 6.55824 155.94 6.85653C155.506 7.15057 155.171 7.53409 154.937 8.0071C154.702 8.48011 154.585 8.98722 154.585 9.52841V10.3977C154.585 11.1392 154.713 11.7678 154.969 12.2834C155.229 12.7947 155.589 13.1847 156.049 13.4531C156.509 13.7173 157.044 13.8494 157.653 13.8494C158.05 13.8494 158.408 13.794 158.727 13.6832C159.051 13.5682 159.33 13.3977 159.565 13.1719C159.799 12.9418 159.98 12.6562 160.108 12.3153L161.565 12.7244C161.412 13.2188 161.154 13.6534 160.792 14.0284C160.43 14.3991 159.982 14.6889 159.45 14.8977C158.917 15.1023 158.318 15.2045 157.653 15.2045ZM164.013 15V5.18182H165.471V6.66477H165.573C165.752 6.17898 166.076 5.7848 166.545 5.48224C167.013 5.17969 167.542 5.02841 168.13 5.02841C168.241 5.02841 168.379 5.03054 168.545 5.0348C168.712 5.03906 168.837 5.04545 168.923 5.05398V6.58807C168.871 6.57528 168.754 6.55611 168.571 6.53054C168.392 6.50071 168.202 6.4858 168.002 6.4858C167.525 6.4858 167.099 6.58594 166.724 6.78622C166.353 6.98224 166.059 7.25497 165.842 7.6044C165.629 7.94957 165.522 8.34375 165.522 8.78693V15H164.013ZM173.6 15.2301C172.978 15.2301 172.413 15.1129 171.906 14.8786C171.399 14.6399 170.996 14.2969 170.698 13.8494C170.4 13.3977 170.251 12.8523 170.251 12.2131C170.251 11.6506 170.361 11.1946 170.583 10.8452C170.805 10.4915 171.101 10.2145 171.471 10.0142C171.842 9.81392 172.251 9.66477 172.699 9.56676C173.15 9.46449 173.604 9.38352 174.06 9.32386C174.657 9.24716 175.14 9.18963 175.511 9.15128C175.886 9.10866 176.159 9.03835 176.329 8.94034C176.504 8.84233 176.591 8.67187 176.591 8.42898V8.37784C176.591 7.74716 176.419 7.2571 176.074 6.90767C175.733 6.55824 175.215 6.38352 174.52 6.38352C173.8 6.38352 173.236 6.54119 172.827 6.85653C172.417 7.17187 172.13 7.50852 171.964 7.86648L170.532 7.35511C170.787 6.75852 171.128 6.29403 171.555 5.96165C171.985 5.625 172.454 5.39062 172.961 5.25852C173.472 5.12216 173.975 5.05398 174.469 5.05398C174.785 5.05398 175.147 5.09233 175.556 5.16903C175.969 5.24148 176.368 5.39276 176.751 5.62287C177.139 5.85298 177.461 6.20028 177.716 6.66477C177.972 7.12926 178.1 7.75142 178.1 8.53125V15H176.591V13.6705H176.515C176.412 13.8835 176.242 14.1115 176.003 14.3544C175.765 14.5973 175.447 14.804 175.051 14.9744C174.655 15.1449 174.171 15.2301 173.6 15.2301ZM173.83 13.875C174.427 13.875 174.93 13.7578 175.339 13.5234C175.752 13.2891 176.063 12.9865 176.272 12.6158C176.485 12.245 176.591 11.8551 176.591 11.446V10.0653C176.528 10.142 176.387 10.2124 176.17 10.2763C175.956 10.3359 175.709 10.3892 175.428 10.4361C175.151 10.4787 174.881 10.517 174.616 10.5511C174.356 10.581 174.145 10.6065 173.983 10.6278C173.591 10.679 173.225 10.7621 172.884 10.8771C172.547 10.9879 172.275 11.1562 172.066 11.3821C171.861 11.6037 171.759 11.9062 171.759 12.2898C171.759 12.8139 171.953 13.2102 172.341 13.4787C172.733 13.7429 173.229 13.875 173.83 13.875ZM181.058 15V1.90909H182.566V6.74148H182.694C182.805 6.57102 182.958 6.35369 183.154 6.08949C183.355 5.82102 183.64 5.58239 184.011 5.37358C184.386 5.16051 184.893 5.05398 185.532 5.05398C186.359 5.05398 187.088 5.26065 187.718 5.67401C188.349 6.08736 188.841 6.6733 189.195 7.43182C189.549 8.19034 189.725 9.08523 189.725 10.1165C189.725 11.1562 189.549 12.0575 189.195 12.8203C188.841 13.5788 188.351 14.1669 187.725 14.5845C187.098 14.9979 186.376 15.2045 185.558 15.2045C184.927 15.2045 184.422 15.1001 184.043 14.8913C183.664 14.6783 183.372 14.4375 183.167 14.169C182.963 13.8963 182.805 13.6705 182.694 13.4915H182.515V15H181.058ZM182.541 10.0909C182.541 10.8324 182.65 11.4865 182.867 12.0533C183.084 12.6158 183.402 13.0568 183.819 13.3764C184.237 13.6918 184.748 13.8494 185.353 13.8494C185.984 13.8494 186.51 13.6832 186.932 13.3509C187.358 13.0142 187.678 12.5625 187.891 11.9957C188.108 11.4247 188.217 10.7898 188.217 10.0909C188.217 9.40057 188.11 8.77841 187.897 8.22443C187.689 7.66619 187.371 7.22514 186.945 6.90128C186.523 6.57315 185.993 6.40909 185.353 6.40909C184.74 6.40909 184.224 6.56463 183.806 6.87571C183.389 7.18253 183.074 7.61293 182.86 8.1669C182.647 8.71662 182.541 9.35795 182.541 10.0909ZM193.542 1.90909V15H192.033V1.90909H193.542ZM200.421 15.2045C199.475 15.2045 198.659 14.9957 197.973 14.5781C197.291 14.1562 196.765 13.5682 196.394 12.8139C196.028 12.0554 195.844 11.1733 195.844 10.1676C195.844 9.16193 196.028 8.27557 196.394 7.50852C196.765 6.73722 197.28 6.13636 197.941 5.70597C198.606 5.27131 199.381 5.05398 200.268 5.05398C200.779 5.05398 201.284 5.1392 201.782 5.30966C202.281 5.48011 202.735 5.7571 203.144 6.14062C203.553 6.51989 203.879 7.02273 204.122 7.64915C204.365 8.27557 204.486 9.04687 204.486 9.96307V10.6023H196.918V9.2983H202.952C202.952 8.74432 202.841 8.25 202.62 7.81534C202.403 7.38068 202.091 7.03764 201.687 6.78622C201.286 6.5348 200.813 6.40909 200.268 6.40909C199.667 6.40909 199.147 6.55824 198.708 6.85653C198.273 7.15057 197.939 7.53409 197.704 8.0071C197.47 8.48011 197.353 8.98722 197.353 9.52841V10.3977C197.353 11.1392 197.481 11.7678 197.736 12.2834C197.996 12.7947 198.356 13.1847 198.817 13.4531C199.277 13.7173 199.812 13.8494 200.421 13.8494C200.817 13.8494 201.175 13.794 201.495 13.6832C201.819 13.5682 202.098 13.3977 202.332 13.1719C202.567 12.9418 202.748 12.6562 202.876 12.3153L204.333 12.7244C204.18 13.2188 203.922 13.6534 203.559 14.0284C203.197 14.3991 202.75 14.6889 202.217 14.8977C201.684 15.1023 201.086 15.2045 200.421 15.2045ZM208.079 15.1662C207.657 15.1662 207.295 15.017 206.992 14.7188C206.694 14.4162 206.545 14.054 206.545 13.6321C206.545 13.2145 206.694 12.8565 206.992 12.5582C207.295 12.2599 207.657 12.1108 208.079 12.1108C208.488 12.1108 208.846 12.2599 209.153 12.5582C209.459 12.8565 209.613 13.2145 209.613 13.6321C209.613 13.9134 209.54 14.1712 209.395 14.4055C209.255 14.6357 209.069 14.821 208.839 14.9616C208.609 15.098 208.356 15.1662 208.079 15.1662ZM208.079 8.28835C207.657 8.28835 207.295 8.1392 206.992 7.84091C206.694 7.54261 206.545 7.1804 206.545 6.75426C206.545 6.33665 206.694 5.98082 206.992 5.68679C207.295 5.38849 207.657 5.23935 208.079 5.23935C208.488 5.23935 208.846 5.38849 209.153 5.68679C209.459 5.98082 209.613 6.33665 209.613 6.75426C209.613 7.03977 209.54 7.29972 209.395 7.53409C209.255 7.7642 209.069 7.94744 208.839 8.08381C208.609 8.22017 208.356 8.28835 208.079 8.28835ZM38.0385 24.132H39.5325V32.556H38.0385V24.132ZM29.0205 33.384H39.5505V37.29H30.5145V39.522H29.0565V36.174H38.0745V34.554H29.0205V33.384ZM29.0565 39.036H40.0905V40.224H29.0565V39.036ZM30.4425 24.6H31.6845V25.842C31.6845 28.848 29.8125 31.404 27.0585 32.412L26.3205 31.224C28.7685 30.36 30.4425 28.2 30.4425 25.842V24.6ZM30.7125 24.6H31.9365V25.842C31.9365 28.092 33.6465 30.126 36.0585 30.918L35.3205 32.088C32.5845 31.152 30.7125 28.758 30.7125 25.842V24.6ZM55.0471 24.132H56.4691V34.428H55.0471V24.132ZM52.4011 28.542H55.4791V29.784H52.4011V28.542ZM51.5731 24.456H52.9771V33.852H51.5731V24.456ZM42.6811 26.076H50.9251V27.264H42.6811V26.076ZM46.8211 28.092C48.8551 28.092 50.2771 29.208 50.2771 30.882C50.2771 32.574 48.8551 33.672 46.8211 33.672C44.7691 33.672 43.3471 32.574 43.3471 30.882C43.3471 29.208 44.7691 28.092 46.8211 28.092ZM46.8211 29.208C45.5431 29.208 44.6791 29.874 44.6791 30.882C44.6791 31.908 45.5431 32.556 46.8211 32.556C48.0811 32.556 48.9451 31.908 48.9451 30.882C48.9451 29.874 48.0811 29.208 46.8211 29.208ZM46.0831 24.258H47.5411V26.742H46.0831V24.258ZM51.1411 34.716C54.5251 34.716 56.5591 35.724 56.5591 37.542C56.5591 39.342 54.5251 40.368 51.1411 40.368C47.7211 40.368 45.7051 39.342 45.7051 37.542C45.7051 35.724 47.7211 34.716 51.1411 34.716ZM51.1411 35.868C48.6391 35.868 47.1811 36.462 47.1811 37.542C47.1811 38.622 48.6391 39.234 51.1411 39.234C53.6071 39.234 55.0831 38.622 55.0831 37.542C55.0831 36.462 53.6071 35.868 51.1411 35.868ZM66.1382 25.716H76.4702V26.94H66.1382V25.716ZM64.3742 36.966H79.0802V38.19H64.3742V36.966ZM75.8582 25.716H77.3162V27.264C77.3162 29.244 77.3162 31.476 76.6502 34.806L75.1562 34.626C75.8582 31.476 75.8582 29.19 75.8582 27.264V25.716ZM76.1822 29.622V30.756L65.9222 31.332L65.6882 30.036L76.1822 29.622ZM70.0982 32.754H71.5922V37.416H70.0982V32.754ZM82.8048 31.926H93.9828V33.15H82.8048V31.926ZM80.9508 36.966H95.6928V38.208H80.9508V36.966ZM82.8048 25.626H93.8208V26.868H84.2988V32.466H82.8048V25.626Z" fill="black"/>
</svg>
