<svg width="408" height="66" viewBox="0 0 408 66" fill="none" xmlns="http://www.w3.org/2000/svg">
<path d="M85.6807 6.15224L85.682 13.3355L82.8752 13.336L82.8738 6.15278L85.6807 6.15224ZM90.4541 6.15134L90.4555 13.3346L87.6486 13.3351L87.6473 6.15187L90.4541 6.15134ZM124.333 16.8551L124.335 25.054L120.401 25.0547L120.398 6.14564L124.22 6.14491L124.222 13.3743L124.388 13.3743C124.708 12.5371 125.225 11.8815 125.939 11.4074C126.653 10.9271 127.548 10.6869 128.625 10.6867C129.61 10.6865 130.469 10.9018 131.201 11.3325C131.94 11.7571 132.513 12.3694 132.919 13.1695C133.332 13.9635 133.535 14.9144 133.529 16.0224L133.531 25.0522L129.597 25.053L129.596 16.7249C129.602 15.8508 129.38 15.1707 128.931 14.6845C128.487 14.1983 127.866 13.9553 127.066 13.9555C126.53 13.9556 126.056 14.0695 125.644 14.2973C125.238 14.5252 124.918 14.8576 124.684 15.2947C124.456 15.7256 124.339 16.2457 124.333 16.8551ZM170.129 25.3223C168.67 25.3225 167.415 25.0273 166.362 24.4366C165.315 23.8397 164.509 22.9966 163.942 21.9072C163.376 20.8117 163.093 19.5161 163.092 18.0203C163.092 16.5615 163.375 15.2812 163.941 14.1793C164.507 13.0774 165.304 12.2185 166.332 11.6028C167.366 10.9871 168.578 10.6791 169.969 10.6788C170.905 10.6786 171.776 10.8293 172.582 11.1307C173.395 11.426 174.103 11.8722 174.706 12.4691C175.316 13.0661 175.79 13.8169 176.129 14.7217C176.467 15.6203 176.637 16.6728 176.637 17.8793L176.637 18.9595L164.662 18.9618L164.662 16.5243L172.934 16.5227C172.934 15.9564 172.811 15.4548 172.565 15.0178C172.318 14.5808 171.977 14.2393 171.54 13.9932C171.109 13.7409 170.607 13.6148 170.035 13.6149C169.438 13.615 168.908 13.7536 168.447 14.0307C167.991 14.3016 167.634 14.6679 167.376 15.1296C167.117 15.5851 166.985 16.093 166.979 16.6531L166.98 18.9706C166.98 19.6723 167.109 20.2786 167.368 20.7894C167.632 21.3002 168.005 21.6941 168.485 21.971C168.965 22.2479 169.535 22.3863 170.193 22.3862C170.63 22.3861 171.03 22.3245 171.394 22.2013C171.757 22.0781 172.067 21.8934 172.326 21.6471C172.584 21.4009 172.781 21.0992 172.917 20.7422L176.554 20.9815C176.37 21.8556 175.992 22.619 175.419 23.2715C174.853 23.918 174.121 24.4228 173.222 24.7862C172.33 25.1433 171.299 25.322 170.129 25.3223ZM210.175 6.12856L210.178 25.0376L206.245 25.0384L206.242 6.12931L210.175 6.12856ZM244.299 6.12207L244.302 25.0312L240.369 25.0319L240.366 6.12281L244.299 6.12207ZM280.901 25.3012C279.467 25.3015 278.226 24.997 277.18 24.3878C276.139 23.7725 275.336 22.9171 274.769 21.8215C274.203 20.7198 273.92 19.4427 273.919 17.99C273.919 16.525 274.202 15.2447 274.768 14.1489C275.334 13.047 276.137 12.1913 277.177 11.5817C278.224 10.966 279.464 10.658 280.898 10.6577C282.332 10.6574 283.57 10.965 284.61 11.5803C285.656 12.1895 286.463 13.0449 287.029 14.1466C287.596 15.2421 287.879 16.5224 287.88 17.9874C287.88 19.44 287.597 20.7173 287.031 21.8192C286.465 22.9149 285.659 23.7707 284.612 24.3864C283.572 24.996 282.335 25.3009 280.901 25.3012ZM280.919 22.2543C281.571 22.2542 282.116 22.0694 282.553 21.7C282.99 21.3245 283.319 20.8135 283.54 20.1672C283.768 19.5208 283.882 18.7852 283.882 17.9604C283.882 17.1356 283.768 16.4001 283.54 15.7538C283.318 15.1075 282.989 14.5967 282.551 14.2213C282.114 13.8459 281.57 13.6583 280.917 13.6584C280.258 13.6585 279.705 13.8464 279.255 14.222C278.812 14.5975 278.477 15.1085 278.249 15.7548C278.028 16.4012 277.917 17.1367 277.917 17.9616C277.917 18.7864 278.028 19.5219 278.25 20.1682C278.478 20.8144 278.813 21.3253 279.257 21.7006C279.706 22.0699 280.26 22.2544 280.919 22.2543ZM320.005 6.10766L320.006 13.2909L317.199 13.2914L317.198 6.1082L320.005 6.10766ZM324.778 6.10675L324.779 13.29L321.973 13.2905L321.971 6.10729L324.778 6.10675Z" fill="black"/>
<path d="M112.891 57.8514V39.6696H117.096V41.0616H114.482V56.4593H117.096V57.8514H112.891ZM128.029 56.2321C126.959 56.2321 126.048 55.9409 125.295 55.3585C124.542 54.7714 123.967 53.9215 123.569 52.8088C123.171 51.6913 122.972 50.3419 122.972 48.7605C122.972 47.1885 123.171 45.8462 123.569 44.7335C123.972 43.6161 124.549 42.7638 125.302 42.1767C126.06 41.5848 126.969 41.2889 128.029 41.2889C129.09 41.2889 129.997 41.5848 130.749 42.1767C131.507 42.7638 132.085 43.6161 132.482 44.7335C132.885 45.8462 133.086 47.1885 133.086 48.7605C133.086 50.3419 132.887 51.6913 132.49 52.8088C132.092 53.9215 131.517 54.7714 130.764 55.3585C130.011 55.9409 129.099 56.2321 128.029 56.2321ZM128.029 54.6696C129.09 54.6696 129.914 54.1582 130.501 53.1355C131.088 52.1127 131.382 50.6544 131.382 48.7605C131.382 47.501 131.247 46.4286 130.977 45.5431C130.712 44.6577 130.328 43.983 129.826 43.519C129.329 43.055 128.73 42.823 128.029 42.823C126.978 42.823 126.157 43.3414 125.565 44.3784C124.973 45.4106 124.677 46.8713 124.677 48.7605C124.677 50.0199 124.81 51.09 125.075 51.9707C125.34 52.8514 125.721 53.5214 126.218 53.9806C126.72 54.4399 127.324 54.6696 128.029 54.6696ZM143.166 39.6696V57.8514H138.961V56.4593H141.575V41.0616H138.961V39.6696H143.166ZM151.883 57.8514V39.6696H156.088V41.0616H153.474V56.4593H156.088V57.8514H151.883ZM167.391 41.4877V56.0332H165.629V43.3343H165.544L161.993 45.6923V43.9025L165.629 41.4877H167.391ZM178.955 39.6696V57.8514H174.75V56.4593H177.364V41.0616H174.75V39.6696H178.955ZM187.672 57.8514V39.6696H191.877V41.0616H189.263V56.4593H191.877V57.8514H187.672ZM198.066 56.0332V54.7548L202.867 49.4991C203.431 48.8836 203.895 48.3485 204.259 47.894C204.624 47.4347 204.894 47.0038 205.069 46.6014C205.249 46.1942 205.339 45.7681 205.339 45.323C205.339 44.8116 205.216 44.3689 204.97 43.9949C204.728 43.6208 204.397 43.332 203.975 43.1284C203.554 42.9248 203.08 42.823 202.555 42.823C201.996 42.823 201.508 42.939 201.092 43.171C200.68 43.3983 200.36 43.7179 200.133 44.1298C199.91 44.5417 199.799 45.0247 199.799 45.5787H198.123C198.123 44.7264 198.32 43.9783 198.713 43.3343C199.106 42.6904 199.641 42.1885 200.318 41.8287C200.999 41.4688 201.764 41.2889 202.612 41.2889C203.464 41.2889 204.219 41.4688 204.877 41.8287C205.535 42.1885 206.052 42.6738 206.426 43.2846C206.8 43.8954 206.987 44.5749 206.987 45.323C206.987 45.858 206.89 46.3812 206.695 46.8926C206.506 47.3992 206.175 47.965 205.701 48.59C205.232 49.2103 204.581 49.9679 203.748 50.8627L200.481 54.3571V54.4707H207.242V56.0332H198.066ZM217.556 39.6696V57.8514H213.352V56.4593H215.965V41.0616H213.352V39.6696H217.556ZM226.274 57.8514V39.6696H230.479V41.0616H227.865V56.4593H230.479V57.8514H226.274ZM241.583 56.2321C240.645 56.2321 239.809 56.0711 239.075 55.7491C238.346 55.4271 237.766 54.9797 237.335 54.4068C236.909 53.8291 236.677 53.1592 236.639 52.3968H238.429C238.467 52.8656 238.628 53.2704 238.912 53.6113C239.196 53.9475 239.568 54.2079 240.027 54.3926C240.486 54.5772 240.995 54.6696 241.554 54.6696C242.179 54.6696 242.733 54.5607 243.216 54.3429C243.699 54.1251 244.078 53.822 244.352 53.4338C244.627 53.0455 244.764 52.5957 244.764 52.0843C244.764 51.5493 244.632 51.0782 244.367 50.671C244.102 50.2591 243.713 49.9371 243.202 49.7051C242.691 49.4731 242.066 49.3571 241.327 49.3571H240.162V47.7946H241.327C241.905 47.7946 242.411 47.6904 242.847 47.4821C243.287 47.2737 243.63 46.9802 243.877 46.6014C244.128 46.2226 244.253 45.7775 244.253 45.2662C244.253 44.7737 244.144 44.3452 243.926 43.9806C243.709 43.6161 243.401 43.332 243.003 43.1284C242.61 42.9248 242.146 42.823 241.611 42.823C241.109 42.823 240.636 42.9153 240.191 43.1C239.75 43.2799 239.39 43.5427 239.111 43.8883C238.832 44.2292 238.68 44.6412 238.656 45.1241H236.952C236.98 44.3618 237.21 43.6942 237.641 43.1213C238.072 42.5436 238.635 42.0938 239.331 41.7718C240.032 41.4499 240.801 41.2889 241.639 41.2889C242.539 41.2889 243.311 41.4712 243.955 41.8358C244.599 42.1956 245.093 42.6715 245.439 43.2633C245.785 43.8552 245.958 44.4944 245.958 45.1809C245.958 46.0001 245.742 46.6984 245.311 47.2761C244.885 47.8538 244.305 48.2538 243.571 48.4764V48.59C244.49 48.7415 245.207 49.1322 245.723 49.7619C246.239 50.3869 246.497 51.161 246.497 52.0843C246.497 52.8751 246.282 53.5853 245.851 54.215C245.425 54.84 244.843 55.3324 244.104 55.6923C243.365 56.0521 242.525 56.2321 241.583 56.2321ZM256.783 39.6696V57.8514H252.578V56.4593H255.192V41.0616H252.578V39.6696H256.783ZM265.501 57.8514V39.6696H269.705V41.0616H267.091V56.4593H269.705V57.8514H265.501ZM275.553 53.0502V51.6014L281.945 41.4877H282.997V43.7321H282.286L277.457 51.3741V51.4877H286.065V53.0502H275.553ZM282.4 56.0332V52.6099V51.9352V41.4877H284.076V56.0332H282.4ZM296.107 39.6696V57.8514H291.903V56.4593H294.516V41.0616H291.903V39.6696H296.107Z" fill="black"/>
</svg>
