<svg width="20" height="20" viewBox="0 0 20 20" fill="none" xmlns="http://www.w3.org/2000/svg">
<path fill-rule="evenodd" clip-rule="evenodd" d="M12.744 18.458C12.262 18.458 11.872 18.0661 11.872 17.5815C11.872 17.097 12.262 16.7061 12.744 16.7061C13.226 16.7061 13.616 17.097 13.616 17.5815C13.616 18.0661 13.226 18.458 12.744 18.458ZM10.072 20C15.15 20 14.833 17.7866 14.833 17.7866L14.827 15.4937H9.98199V14.8052H16.751C16.751 14.8052 20 15.1761 20 10.0264C20 4.87659 17.165 5.05811 17.165 5.05811H15.472V7.44873C15.472 7.44873 15.563 10.2983 12.682 10.2983H7.87601C7.87601 10.2983 5.17599 10.2555 5.17599 12.9224V17.3311C5.17599 17.3311 4.76599 20 10.072 20ZM7.25699 1.54199C7.73899 1.54199 8.12799 1.93394 8.12799 2.41846C8.12799 2.90298 7.73899 3.29395 7.25699 3.29395C6.77499 3.29395 6.38501 2.90298 6.38501 2.41846C6.38501 1.93394 6.77499 1.54199 7.25699 1.54199ZM9.92801 0C4.85101 0 5.168 2.21338 5.168 2.21338L5.17401 4.50635H10.019V5.19482H3.24899C3.24899 5.19482 0 4.82386 0 9.97363C0 15.1234 2.836 14.9419 2.836 14.9419H4.52802V12.5513C4.52802 12.5513 4.437 9.70166 7.319 9.70166H12.124C12.124 9.70166 14.824 9.74451 14.824 7.07764V2.66895C14.824 2.66895 15.234 0 9.92801 0Z" fill="white"/>
</svg>
