<svg width="77" height="137" viewBox="0 0 77 137" fill="none" xmlns="http://www.w3.org/2000/svg">
<path d="M1.08665 15V5.18182H3.80966V15H1.08665ZM2.45455 3.91619C2.04972 3.91619 1.70241 3.78196 1.41264 3.51349C1.12713 3.24077 0.984375 2.91477 0.984375 2.53551C0.984375 2.16051 1.12713 1.83878 1.41264 1.57031C1.70241 1.29758 2.04972 1.16122 2.45455 1.16122C2.85938 1.16122 3.20455 1.29758 3.49006 1.57031C3.77983 1.83878 3.92472 2.16051 3.92472 2.53551C3.92472 2.91477 3.77983 3.24077 3.49006 3.51349C3.20455 3.78196 2.85938 3.91619 2.45455 3.91619ZM11.2708 5.18182V7.22727H5.21112V5.18182H11.2708ZM6.59819 15V4.4723C6.59819 3.76065 6.73668 3.17045 7.01367 2.7017C7.29492 2.23295 7.67844 1.88139 8.16424 1.64702C8.65004 1.41264 9.20188 1.29545 9.81978 1.29545C10.2374 1.29545 10.6188 1.32741 10.964 1.39134C11.3134 1.45526 11.5733 1.51278 11.7438 1.56392L11.258 3.60938C11.1515 3.57528 11.0194 3.54332 10.8617 3.51349C10.7083 3.48366 10.5506 3.46875 10.3887 3.46875C9.9881 3.46875 9.70898 3.5625 9.55131 3.75C9.39364 3.93324 9.31481 4.19105 9.31481 4.52344V15H6.59819ZM16.9137 13.074H31.6557V14.316H16.9137V13.074ZM23.5377 9.132H25.0137V13.488H23.5377V9.132ZM23.5017 2.184H24.7617V3.192C24.7617 6.522 21.4317 9.042 18.2277 9.708L17.6157 8.52C20.4237 8.052 23.5017 5.766 23.5017 3.192V2.184ZM23.7717 2.184H25.0317V3.192C25.0317 5.766 28.1277 7.998 30.9717 8.466L30.3777 9.654C27.1197 9.006 23.7717 6.522 23.7717 3.192V2.184ZM18.1197 1.608H30.4137V2.832H18.1197V1.608ZM45.3523 0.131999H46.8463V12.156H45.3523V0.131999ZM41.8423 5.154H45.6403V6.396H41.8423V5.154ZM40.3303 1.392H41.8963C41.8963 5.586 38.9443 8.772 34.3543 10.302L33.7063 9.096C37.6843 7.764 40.3303 5.208 40.3303 1.986V1.392ZM34.5163 1.392H41.3023V2.616H34.5163V1.392ZM36.5683 14.82H47.2603V16.044H36.5683V14.82ZM36.5683 10.95H38.0623V15.432H36.5683V10.95ZM54.2609 0.905999H55.5029V2.49C55.5029 5.568 53.6669 8.214 50.9129 9.258L50.1569 8.07C52.6229 7.17 54.2609 4.92 54.2609 2.49V0.905999ZM54.5309 0.905999H55.7549V2.49C55.7549 4.83 57.4289 6.936 59.8409 7.782L59.0849 8.952C56.3669 7.962 54.5309 5.478 54.5309 2.49V0.905999ZM52.4969 10.752H63.3689V16.404H61.8569V11.976H52.4969V10.752ZM61.8569 0.131999H63.3689V9.924H61.8569V0.131999ZM68.3677 15.1662C67.9458 15.1662 67.5836 15.017 67.2811 14.7188C66.9828 14.4162 66.8336 14.054 66.8336 13.6321C66.8336 13.2145 66.9828 12.8565 67.2811 12.5582C67.5836 12.2599 67.9458 12.1108 68.3677 12.1108C68.7768 12.1108 69.1348 12.2599 69.4416 12.5582C69.7484 12.8565 69.9018 13.2145 69.9018 13.6321C69.9018 13.9134 69.8294 14.1712 69.6845 14.4055C69.5439 14.6357 69.3585 14.821 69.1284 14.9616C68.8983 15.098 68.6447 15.1662 68.3677 15.1662ZM68.3677 8.28835C67.9458 8.28835 67.5836 8.1392 67.2811 7.84091C66.9828 7.54261 66.8336 7.1804 66.8336 6.75426C66.8336 6.33665 66.9828 5.98082 67.2811 5.68679C67.5836 5.38849 67.9458 5.23935 68.3677 5.23935C68.7768 5.23935 69.1348 5.38849 69.4416 5.68679C69.7484 5.98082 69.9018 6.33665 69.9018 6.75426C69.9018 7.03977 69.8294 7.29972 69.6845 7.53409C69.5439 7.7642 69.3585 7.94744 69.1284 8.08381C68.8983 8.22017 68.6447 8.28835 68.3677 8.28835ZM46.1081 24.132H47.6021V32.43H46.1081V24.132ZM40.9601 24.924H42.5801C42.5801 29.028 39.7541 31.656 35.0021 32.808L34.4801 31.584C38.6921 30.612 40.9601 28.47 40.9601 25.662V24.924ZM35.3261 24.924H41.6441V26.148H35.3261V24.924ZM42.0041 26.472H46.3601V27.66H42.0041V26.472ZM41.8601 29.586H46.2701V30.756H41.8601V29.586ZM37.1261 33.186H47.6021V37.182H38.6561V39.774H37.1801V36.03H46.1261V34.392H37.1261V33.186ZM37.1801 39.054H48.1421V40.242H37.1801V39.054ZM51.5067 25.914H58.8687V27.12H51.5067V25.914ZM54.0447 30.558H55.5207V36.066H54.0447V30.558ZM58.2567 25.914H59.7147V26.778C59.7147 28.11 59.7147 30.234 59.2467 33.258L57.7707 33.114C58.2567 30.18 58.2567 28.092 58.2567 26.778V25.914ZM61.7667 24.132H63.2427V40.404H61.7667V24.132ZM62.8467 30.936H65.8527V32.196H62.8467V30.936ZM50.7867 36.858L50.6067 35.598C53.5587 35.598 57.4827 35.544 60.7767 35.13L60.8487 36.228C57.4827 36.768 53.6667 36.84 50.7867 36.858ZM72.4027 25.9091V39H70.8175V27.571H70.7408L67.5447 29.6932V28.0824L70.8175 25.9091H72.4027ZM5.56108 63.1918C4.55114 63.1918 3.68182 62.9872 2.95312 62.5781C2.22869 62.1648 1.67045 61.581 1.27841 60.8267C0.886364 60.0682 0.690341 59.1712 0.690341 58.1357C0.690341 57.1257 0.886364 56.2393 1.27841 55.4766C1.67045 54.7138 2.2223 54.1193 2.93395 53.6932C3.64986 53.267 4.48935 53.054 5.45241 53.054C6.10014 53.054 6.70313 53.1584 7.26136 53.3672C7.82386 53.5717 8.31392 53.8807 8.73153 54.294C9.15341 54.7074 9.48153 55.2273 9.71591 55.8537C9.95028 56.4759 10.0675 57.2045 10.0675 58.0398V58.7876H1.77699V57.1001H7.50426C7.50426 56.7081 7.41903 56.3608 7.24858 56.0582C7.07813 55.7557 6.84162 55.5192 6.53906 55.3487C6.24077 55.174 5.89347 55.0866 5.49716 55.0866C5.08381 55.0866 4.71733 55.1825 4.39773 55.3743C4.08239 55.5618 3.83523 55.8153 3.65625 56.1349C3.47727 56.4503 3.38565 56.8018 3.38139 57.1896V58.794C3.38139 59.2798 3.47088 59.6996 3.64986 60.0533C3.8331 60.407 4.09091 60.6797 4.4233 60.8714C4.75568 61.0632 5.14986 61.1591 5.60582 61.1591C5.90838 61.1591 6.18537 61.1165 6.43679 61.0312C6.68821 60.946 6.90341 60.8182 7.08239 60.6477C7.26136 60.4773 7.39773 60.2685 7.49148 60.0213L10.0099 60.1875C9.8821 60.7926 9.62003 61.321 9.22372 61.7727C8.83168 62.2202 8.32457 62.5696 7.70241 62.821C7.08452 63.0682 6.37074 63.1918 5.56108 63.1918ZM14.5675 49.9091V63H11.8445V49.9091H14.5675ZM16.7488 63V53.1818H19.4718V63H16.7488ZM18.1167 51.9162C17.7118 51.9162 17.3645 51.782 17.0748 51.5135C16.7892 51.2408 16.6465 50.9148 16.6465 50.5355C16.6465 50.1605 16.7892 49.8388 17.0748 49.5703C17.3645 49.2976 17.7118 49.1612 18.1167 49.1612C18.5215 49.1612 18.8667 49.2976 19.1522 49.5703C19.4419 49.8388 19.5868 50.1605 19.5868 50.5355C19.5868 50.9148 19.4419 51.2408 19.1522 51.5135C18.8667 51.782 18.5215 51.9162 18.1167 51.9162ZM26.9329 53.1818V55.2273H20.8732V53.1818H26.9329ZM22.2603 63V52.4723C22.2603 51.7607 22.3988 51.1705 22.6758 50.7017C22.957 50.233 23.3406 49.8814 23.8263 49.647C24.3121 49.4126 24.864 49.2955 25.4819 49.2955C25.8995 49.2955 26.2809 49.3274 26.6261 49.3913C26.9755 49.4553 27.2354 49.5128 27.4059 49.5639L26.9201 51.6094C26.8136 51.5753 26.6815 51.5433 26.5238 51.5135C26.3704 51.4837 26.2127 51.4688 26.0508 51.4688C25.6502 51.4688 25.3711 51.5625 25.2134 51.75C25.0558 51.9332 24.9769 52.1911 24.9769 52.5234V63H22.2603ZM30.188 63.1662C29.7662 63.1662 29.4039 63.017 29.1014 62.7188C28.8031 62.4162 28.6539 62.054 28.6539 61.6321C28.6539 61.2145 28.8031 60.8565 29.1014 60.5582C29.4039 60.2599 29.7662 60.1108 30.188 60.1108C30.5971 60.1108 30.9551 60.2599 31.2619 60.5582C31.5687 60.8565 31.7221 61.2145 31.7221 61.6321C31.7221 61.9134 31.6497 62.1712 31.5048 62.4055C31.3642 62.6357 31.1788 62.821 30.9487 62.9616C30.7186 63.098 30.465 63.1662 30.188 63.1662ZM30.188 56.2884C29.7662 56.2884 29.4039 56.1392 29.1014 55.8409C28.8031 55.5426 28.6539 55.1804 28.6539 54.7543C28.6539 54.3366 28.8031 53.9808 29.1014 53.6868C29.4039 53.3885 29.7662 53.2393 30.188 53.2393C30.5971 53.2393 30.9551 53.3885 31.2619 53.6868C31.5687 53.9808 31.7221 54.3366 31.7221 54.7543C31.7221 55.0398 31.6497 55.2997 31.5048 55.5341C31.3642 55.7642 31.1788 55.9474 30.9487 56.0838C30.7186 56.2202 30.465 56.2884 30.188 56.2884ZM46.1081 72.132H47.6021V80.43H46.1081V72.132ZM40.9601 72.924H42.5801C42.5801 77.028 39.7541 79.656 35.0021 80.808L34.4801 79.584C38.6921 78.612 40.9601 76.47 40.9601 73.662V72.924ZM35.3261 72.924H41.6441V74.148H35.3261V72.924ZM42.0041 74.472H46.3601V75.66H42.0041V74.472ZM41.8601 77.586H46.2701V78.756H41.8601V77.586ZM37.1261 81.186H47.6021V85.182H38.6561V87.774H37.1801V84.03H46.1261V82.392H37.1261V81.186ZM37.1801 87.054H48.1421V88.242H37.1801V87.054ZM51.5067 73.914H58.8687V75.12H51.5067V73.914ZM54.0447 78.558H55.5207V84.066H54.0447V78.558ZM58.2567 73.914H59.7147V74.778C59.7147 76.11 59.7147 78.234 59.2467 81.258L57.7707 81.114C58.2567 78.18 58.2567 76.092 58.2567 74.778V73.914ZM61.7667 72.132H63.2427V88.404H61.7667V72.132ZM62.8467 78.936H65.8527V80.196H62.8467V78.936ZM50.7867 84.858L50.6067 83.598C53.5587 83.598 57.4827 83.544 60.7767 83.13L60.8487 84.228C57.4827 84.768 53.6667 84.84 50.7867 84.858ZM67.8004 87V85.8494L72.1214 81.1193C72.6286 80.5653 73.0462 80.0838 73.3743 79.6747C73.7024 79.2614 73.9453 78.8736 74.103 78.5114C74.2649 78.1449 74.3459 77.7614 74.3459 77.3608C74.3459 76.9006 74.2351 76.5021 74.0135 76.1655C73.7962 75.8288 73.4979 75.5689 73.1186 75.3857C72.7393 75.2024 72.3132 75.1108 71.8402 75.1108C71.3374 75.1108 70.8984 75.2152 70.5234 75.424C70.1527 75.6286 69.8651 75.9162 69.6605 76.2869C69.4602 76.6577 69.3601 77.0923 69.3601 77.5909H67.8516C67.8516 76.8239 68.0284 76.1506 68.3821 75.571C68.7358 74.9915 69.2173 74.5398 69.8267 74.2159C70.4403 73.892 71.1286 73.7301 71.8913 73.7301C72.6584 73.7301 73.3381 73.892 73.9304 74.2159C74.5227 74.5398 74.9872 74.9766 75.3239 75.5263C75.6605 76.076 75.8288 76.6875 75.8288 77.3608C75.8288 77.8423 75.7415 78.3132 75.5668 78.7734C75.3963 79.2294 75.098 79.7386 74.6719 80.3011C74.25 80.8594 73.6641 81.5412 72.9141 82.3466L69.9737 85.4915V85.5938H76.0589V87H67.8004ZM5.56108 111.192C4.55114 111.192 3.68182 110.987 2.95312 110.578C2.22869 110.165 1.67045 109.581 1.27841 108.827C0.886364 108.068 0.690341 107.171 0.690341 106.136C0.690341 105.126 0.886364 104.239 1.27841 103.477C1.67045 102.714 2.2223 102.119 2.93395 101.693C3.64986 101.267 4.48935 101.054 5.45241 101.054C6.10014 101.054 6.70313 101.158 7.26136 101.367C7.82386 101.572 8.31392 101.881 8.73153 102.294C9.15341 102.707 9.48153 103.227 9.71591 103.854C9.95028 104.476 10.0675 105.205 10.0675 106.04V106.788H1.77699V105.1H7.50426C7.50426 104.708 7.41903 104.361 7.24858 104.058C7.07813 103.756 6.84162 103.519 6.53906 103.349C6.24077 103.174 5.89347 103.087 5.49716 103.087C5.08381 103.087 4.71733 103.183 4.39773 103.374C4.08239 103.562 3.83523 103.815 3.65625 104.135C3.47727 104.45 3.38565 104.802 3.38139 105.19V106.794C3.38139 107.28 3.47088 107.7 3.64986 108.053C3.8331 108.407 4.09091 108.68 4.4233 108.871C4.75568 109.063 5.14986 109.159 5.60582 109.159C5.90838 109.159 6.18537 109.116 6.43679 109.031C6.68821 108.946 6.90341 108.818 7.08239 108.648C7.26136 108.477 7.39773 108.268 7.49148 108.021L10.0099 108.188C9.8821 108.793 9.62003 109.321 9.22372 109.773C8.83168 110.22 8.32457 110.57 7.70241 110.821C7.08452 111.068 6.37074 111.192 5.56108 111.192ZM14.5675 97.9091V111H11.8445V97.9091H14.5675ZM24.9178 103.982L22.4249 104.135C22.3823 103.922 22.2907 103.73 22.15 103.56C22.0094 103.385 21.824 103.246 21.5939 103.144C21.3681 103.038 21.0975 102.984 20.7821 102.984C20.3603 102.984 20.0044 103.074 19.7147 103.253C19.4249 103.428 19.28 103.662 19.28 103.956C19.28 104.19 19.3738 104.388 19.5613 104.55C19.7488 104.712 20.0705 104.842 20.5265 104.94L22.3034 105.298C23.258 105.494 23.9696 105.81 24.4384 106.244C24.9071 106.679 25.1415 107.25 25.1415 107.957C25.1415 108.601 24.9519 109.165 24.5726 109.651C24.1976 110.137 23.682 110.516 23.0257 110.789C22.3738 111.058 21.6216 111.192 20.7694 111.192C19.4696 111.192 18.4341 110.921 17.6628 110.38C16.8958 109.835 16.4462 109.093 16.3141 108.156L18.9924 108.015C19.0733 108.411 19.2694 108.714 19.5804 108.923C19.8915 109.127 20.29 109.229 20.7757 109.229C21.253 109.229 21.6365 109.138 21.9263 108.955C22.2203 108.767 22.3695 108.526 22.3738 108.232C22.3695 107.985 22.2651 107.783 22.0605 107.625C21.856 107.463 21.5407 107.339 21.1145 107.254L19.4142 106.915C18.4554 106.724 17.7417 106.391 17.2729 105.918C16.8084 105.445 16.5762 104.842 16.5762 104.109C16.5762 103.479 16.7466 102.935 17.0875 102.479C17.4327 102.023 17.9164 101.672 18.5385 101.425C19.165 101.178 19.8979 101.054 20.7374 101.054C21.9775 101.054 22.9533 101.316 23.665 101.84C24.3809 102.364 24.7985 103.078 24.9178 103.982ZM31.3306 111.192C30.3207 111.192 29.4513 110.987 28.7227 110.578C27.9982 110.165 27.44 109.581 27.0479 108.827C26.6559 108.068 26.4599 107.171 26.4599 106.136C26.4599 105.126 26.6559 104.239 27.0479 103.477C27.44 102.714 27.9918 102.119 28.7035 101.693C29.4194 101.267 30.2589 101.054 31.2219 101.054C31.8697 101.054 32.4727 101.158 33.0309 101.367C33.5934 101.572 34.0835 101.881 34.5011 102.294C34.9229 102.707 35.2511 103.227 35.4854 103.854C35.7198 104.476 35.837 105.205 35.837 106.04V106.788H27.5465V105.1H33.2738C33.2738 104.708 33.1886 104.361 33.0181 104.058C32.8477 103.756 32.6112 103.519 32.3086 103.349C32.0103 103.174 31.663 103.087 31.2667 103.087C30.8533 103.087 30.4869 103.183 30.1673 103.374C29.8519 103.562 29.6048 103.815 29.4258 104.135C29.2468 104.45 29.1552 104.802 29.1509 105.19V106.794C29.1509 107.28 29.2404 107.7 29.4194 108.053C29.6026 108.407 29.8604 108.68 30.1928 108.871C30.5252 109.063 30.9194 109.159 31.3754 109.159C31.6779 109.159 31.9549 109.116 32.2063 109.031C32.4577 108.946 32.6729 108.818 32.8519 108.648C33.0309 108.477 33.1673 108.268 33.261 108.021L35.7795 108.188C35.6516 108.793 35.3896 109.321 34.9933 109.773C34.6012 110.22 34.0941 110.57 33.4719 110.821C32.854 111.068 32.1403 111.192 31.3306 111.192ZM39.2056 111.166C38.7837 111.166 38.4215 111.017 38.119 110.719C37.8207 110.416 37.6715 110.054 37.6715 109.632C37.6715 109.214 37.8207 108.857 38.119 108.558C38.4215 108.26 38.7837 108.111 39.2056 108.111C39.6147 108.111 39.9727 108.26 40.2795 108.558C40.5863 108.857 40.7397 109.214 40.7397 109.632C40.7397 109.913 40.6673 110.171 40.5224 110.406C40.3817 110.636 40.1964 110.821 39.9663 110.962C39.7362 111.098 39.4826 111.166 39.2056 111.166ZM39.2056 104.288C38.7837 104.288 38.4215 104.139 38.119 103.841C37.8207 103.543 37.6715 103.18 37.6715 102.754C37.6715 102.337 37.8207 101.981 38.119 101.687C38.4215 101.388 38.7837 101.239 39.2056 101.239C39.6147 101.239 39.9727 101.388 40.2795 101.687C40.5863 101.981 40.7397 102.337 40.7397 102.754C40.7397 103.04 40.6673 103.3 40.5224 103.534C40.3817 103.764 40.1964 103.947 39.9663 104.084C39.7362 104.22 39.4826 104.288 39.2056 104.288ZM46.1081 120.132H47.6021V128.43H46.1081V120.132ZM40.9601 120.924H42.5801C42.5801 125.028 39.7541 127.656 35.0021 128.808L34.4801 127.584C38.6921 126.612 40.9601 124.47 40.9601 121.662V120.924ZM35.3261 120.924H41.6441V122.148H35.3261V120.924ZM42.0041 122.472H46.3601V123.66H42.0041V122.472ZM41.8601 125.586H46.2701V126.756H41.8601V125.586ZM37.1261 129.186H47.6021V133.182H38.6561V135.774H37.1801V132.03H46.1261V130.392H37.1261V129.186ZM37.1801 135.054H48.1421V136.242H37.1801V135.054ZM51.5067 121.914H58.8687V123.12H51.5067V121.914ZM54.0447 126.558H55.5207V132.066H54.0447V126.558ZM58.2567 121.914H59.7147V122.778C59.7147 124.11 59.7147 126.234 59.2467 129.258L57.7707 129.114C58.2567 126.18 58.2567 124.092 58.2567 122.778V121.914ZM61.7667 120.132H63.2427V136.404H61.7667V120.132ZM62.8467 126.936H65.8527V128.196H62.8467V126.936ZM50.7867 132.858L50.6067 131.598C53.5587 131.598 57.4827 131.544 60.7767 131.13L60.8487 132.228C57.4827 132.768 53.6667 132.84 50.7867 132.858ZM72.2237 135.179C71.38 135.179 70.6278 135.034 69.9673 134.744C69.3111 134.455 68.7891 134.052 68.4013 133.536C68.0178 133.016 67.8089 132.413 67.7749 131.727H69.3857C69.4197 132.149 69.5646 132.513 69.8203 132.82C70.076 133.123 70.4105 133.357 70.8239 133.523C71.2372 133.69 71.6953 133.773 72.1982 133.773C72.7607 133.773 73.2592 133.675 73.6939 133.479C74.1286 133.283 74.4695 133.01 74.7166 132.661C74.9638 132.311 75.0874 131.906 75.0874 131.446C75.0874 130.964 74.968 130.54 74.7294 130.174C74.4908 129.803 74.1413 129.513 73.6811 129.305C73.2209 129.096 72.6584 128.991 71.9936 128.991H70.9453V127.585H71.9936C72.5135 127.585 72.9695 127.491 73.3615 127.304C73.7578 127.116 74.0668 126.852 74.2884 126.511C74.5142 126.17 74.6271 125.77 74.6271 125.31C74.6271 124.866 74.5291 124.481 74.3331 124.153C74.1371 123.825 73.8601 123.569 73.5021 123.386C73.1484 123.202 72.7308 123.111 72.2493 123.111C71.7976 123.111 71.3714 123.194 70.9709 123.36C70.5746 123.522 70.2507 123.759 69.9993 124.07C69.7479 124.376 69.6115 124.747 69.5902 125.182H68.0561C68.0817 124.496 68.2884 123.895 68.6761 123.379C69.0639 122.859 69.571 122.455 70.1974 122.165C70.8281 121.875 71.5206 121.73 72.2749 121.73C73.0845 121.73 73.7791 121.894 74.3587 122.222C74.9382 122.546 75.3835 122.974 75.6946 123.507C76.0057 124.04 76.1612 124.615 76.1612 125.233C76.1612 125.97 75.9673 126.599 75.5795 127.119C75.196 127.638 74.674 127.999 74.0135 128.199V128.301C74.8402 128.437 75.4858 128.789 75.9503 129.356C76.4148 129.918 76.647 130.615 76.647 131.446C76.647 132.158 76.4531 132.797 76.0653 133.364C75.6818 133.926 75.1577 134.369 74.4929 134.693C73.8281 135.017 73.0717 135.179 72.2237 135.179Z" fill="black"/>
</svg>
