<svg width="352" height="76" viewBox="0 0 352 76" fill="none" xmlns="http://www.w3.org/2000/svg">
<path d="M9.65838 17.7713C8.29901 17.7713 7.08878 17.5859 6.0277 17.2152C4.96662 16.8487 4.0696 16.3097 3.33665 15.598C2.60369 14.8906 2.04545 14.0256 1.66193 13.0028C1.27841 11.9801 1.08665 10.8168 1.08665 9.51278C1.08665 8.22585 1.27841 7.05824 1.66193 6.00994C2.04972 4.96165 2.61435 4.0625 3.35582 3.3125C4.0973 2.55824 5.00284 1.97869 6.07244 1.57386C7.14631 1.16903 8.36932 0.966619 9.74148 0.966619C11.0114 0.966619 12.1449 1.15199 13.142 1.52273C14.1435 1.89347 14.9915 2.42188 15.6861 3.10795C16.3849 3.78977 16.9155 4.60156 17.2777 5.54332C17.6442 6.48082 17.8253 7.51847 17.821 8.65625C17.8253 9.44034 17.7571 10.1605 17.6165 10.8168C17.4759 11.473 17.2543 12.0462 16.9517 12.5362C16.6534 13.022 16.2614 13.4077 15.7756 13.6932C15.2898 13.9744 14.7017 14.1342 14.0114 14.1726C13.517 14.2109 13.1165 14.1747 12.8097 14.0639C12.5028 13.9531 12.2685 13.7891 12.1065 13.5717C11.9489 13.3501 11.8466 13.0923 11.7997 12.7983H11.723C11.6207 13.054 11.4205 13.2862 11.1222 13.495C10.8239 13.6996 10.4595 13.8594 10.0291 13.9744C9.60298 14.0852 9.14915 14.1257 8.66761 14.0959C8.16477 14.0661 7.6875 13.9489 7.2358 13.7443C6.78835 13.5398 6.38992 13.2436 6.04048 12.8558C5.69531 12.468 5.42259 11.9886 5.2223 11.4176C5.02628 10.8466 4.92614 10.1861 4.92188 9.43608C4.92614 8.6946 5.03054 8.04901 5.23509 7.49929C5.44389 6.94957 5.71875 6.48722 6.05966 6.11222C6.40483 5.73722 6.78835 5.44318 7.21023 5.23011C7.6321 5.01704 8.05611 4.88068 8.48224 4.82102C8.96378 4.74858 9.41974 4.74858 9.85014 4.82102C10.2805 4.89347 10.6428 5.01065 10.9368 5.17259C11.2351 5.33452 11.4205 5.50923 11.4929 5.69673H11.5824V4.98082H13.5831V11.2195C13.5874 11.5135 13.6534 11.7415 13.7812 11.9034C13.9091 12.0653 14.0817 12.1463 14.299 12.1463C14.593 12.1463 14.8381 12.0163 15.0341 11.7564C15.2344 11.4964 15.3835 11.098 15.4815 10.5611C15.5838 10.0241 15.6349 9.3402 15.6349 8.50923C15.6349 7.7081 15.5284 7.00497 15.3153 6.39986C15.1065 5.79048 14.8125 5.27273 14.4332 4.84659C14.0582 4.41619 13.6214 4.06676 13.1229 3.7983C12.6243 3.52983 12.0831 3.33381 11.4993 3.21023C10.9197 3.08665 10.3232 3.02486 9.70952 3.02486C8.64844 3.02486 7.72159 3.18679 6.92898 3.51065C6.13636 3.83026 5.47585 4.27983 4.94744 4.85938C4.41903 5.43892 4.02273 6.11861 3.75852 6.89844C3.49858 7.67401 3.36648 8.51989 3.36222 9.43608C3.36648 10.446 3.5071 11.3409 3.78409 12.1207C4.06534 12.8963 4.47869 13.5483 5.02415 14.0767C5.5696 14.6051 6.2429 15.0057 7.04403 15.2784C7.84517 15.5511 8.76562 15.6875 9.8054 15.6875C10.2955 15.6875 10.7749 15.6513 11.2436 15.5788C11.7124 15.5107 12.1364 15.4254 12.5156 15.3232C12.8949 15.2251 13.1996 15.1293 13.4297 15.0355L14.0625 16.8892C13.794 17.0426 13.4297 17.1854 12.9695 17.3175C12.5135 17.4538 11.9979 17.5625 11.4226 17.6435C10.8516 17.7287 10.2635 17.7713 9.65838 17.7713ZM9.36435 11.9929C9.88423 11.9929 10.2976 11.8928 10.6044 11.6925C10.9155 11.4922 11.1371 11.196 11.2692 10.804C11.4055 10.4077 11.4695 9.91974 11.4609 9.3402C11.4567 8.82883 11.3906 8.39631 11.2628 8.04261C11.1392 7.68466 10.924 7.41406 10.6172 7.23082C10.3146 7.04332 9.89276 6.94957 9.35156 6.94957C8.87855 6.94957 8.47585 7.04972 8.14347 7.25C7.81534 7.45028 7.56392 7.73153 7.3892 8.09375C7.21875 8.4517 7.13139 8.87358 7.12713 9.35938C7.13139 9.81108 7.20384 10.2393 7.34446 10.6442C7.48509 11.0447 7.71733 11.3707 8.04119 11.6222C8.36506 11.8693 8.80611 11.9929 9.36435 11.9929ZM23.8876 14.1918C22.882 14.1918 22.0169 13.9787 21.2925 13.5526C20.5723 13.1222 20.0183 12.5256 19.6305 11.7628C19.247 11 19.0553 10.1222 19.0553 9.12926C19.0553 8.12358 19.2492 7.24148 19.6369 6.48295C20.029 5.72017 20.5851 5.12571 21.3053 4.69957C22.0254 4.26918 22.882 4.05398 23.8749 4.05398C24.7314 4.05398 25.4814 4.20952 26.1249 4.5206C26.7683 4.83168 27.2776 5.26847 27.6526 5.83097C28.0276 6.39347 28.2342 7.05398 28.2726 7.8125H25.703C25.6305 7.32244 25.4388 6.92827 25.1277 6.62997C24.8209 6.32741 24.4182 6.17614 23.9196 6.17614C23.4977 6.17614 23.1291 6.29119 22.8138 6.52131C22.5027 6.74716 22.2598 7.07741 22.0851 7.51207C21.9104 7.94673 21.823 8.47301 21.823 9.09091C21.823 9.71733 21.9082 10.25 22.0787 10.6889C22.2534 11.1278 22.4984 11.4624 22.8138 11.6925C23.1291 11.9226 23.4977 12.0376 23.9196 12.0376C24.2307 12.0376 24.5098 11.9737 24.757 11.8459C25.0084 11.718 25.2151 11.5327 25.377 11.2898C25.5432 11.0426 25.6519 10.7464 25.703 10.4013H28.2726C28.23 11.1513 28.0254 11.8118 27.659 12.3828C27.2967 12.9496 26.796 13.3928 26.1568 13.7124C25.5176 14.032 24.7612 14.1918 23.8876 14.1918ZM32.559 0.909091V14H29.836V0.909091H32.559ZM37.36 14.1854C36.7336 14.1854 36.1754 14.0767 35.6853 13.8594C35.1953 13.6378 34.8075 13.3118 34.522 12.8814C34.2407 12.4467 34.1001 11.9055 34.1001 11.2578C34.1001 10.7124 34.2002 10.2543 34.4005 9.88352C34.6008 9.51278 34.8735 9.21449 35.2187 8.98864C35.5639 8.76278 35.9559 8.59233 36.3948 8.47727C36.838 8.36222 37.3025 8.28125 37.7883 8.23438C38.3593 8.17472 38.8196 8.11932 39.169 8.06818C39.5184 8.01278 39.772 7.93182 39.9296 7.82528C40.0873 7.71875 40.1661 7.56108 40.1661 7.35227V7.31392C40.1661 6.90909 40.0383 6.59588 39.7826 6.37429C39.5312 6.1527 39.1732 6.0419 38.7088 6.0419C38.2187 6.0419 37.8288 6.15057 37.539 6.3679C37.2492 6.58097 37.0575 6.84943 36.9637 7.1733L34.4453 6.96875C34.5731 6.37216 34.8245 5.85653 35.1995 5.42188C35.5745 4.98295 36.0582 4.64631 36.6505 4.41193C37.2471 4.1733 37.9374 4.05398 38.7215 4.05398C39.267 4.05398 39.789 4.1179 40.2876 4.24574C40.7904 4.37358 41.2357 4.57173 41.6235 4.8402C42.0156 5.10866 42.3245 5.45384 42.5504 5.87571C42.7762 6.29332 42.8892 6.79403 42.8892 7.37784V14H40.3068V12.6385H40.2301C40.0724 12.9453 39.8615 13.2159 39.5973 13.4503C39.333 13.6804 39.0156 13.8615 38.6448 13.9936C38.2741 14.1214 37.8458 14.1854 37.36 14.1854ZM38.1399 12.3061C38.5404 12.3061 38.8941 12.2273 39.2009 12.0696C39.5078 11.9077 39.7485 11.6903 39.9232 11.4176C40.098 11.1449 40.1853 10.8359 40.1853 10.4908V9.44886C40.1001 9.50426 39.9829 9.5554 39.8338 9.60227C39.6889 9.64489 39.5248 9.68537 39.3416 9.72372C39.1583 9.75781 38.9751 9.78977 38.7919 9.8196C38.6086 9.84517 38.4424 9.86861 38.2933 9.88991C37.9737 9.93679 37.6946 10.0114 37.4559 10.1136C37.2173 10.2159 37.0319 10.3544 36.8998 10.5291C36.7677 10.6996 36.7017 10.9126 36.7017 11.1683C36.7017 11.5391 36.8359 11.8224 37.1044 12.0185C37.3771 12.2102 37.7223 12.3061 38.1399 12.3061ZM52.9908 6.98153L50.4979 7.13494C50.4552 6.92187 50.3636 6.73011 50.223 6.55966C50.0824 6.38494 49.897 6.24645 49.6669 6.14418C49.441 6.03764 49.1704 5.98438 48.8551 5.98438C48.4332 5.98438 48.0774 6.07386 47.7876 6.25284C47.4979 6.42756 47.353 6.66193 47.353 6.95597C47.353 7.19034 47.4467 7.38849 47.6342 7.55043C47.8217 7.71236 48.1435 7.84233 48.5994 7.94034L50.3764 8.2983C51.331 8.49432 52.0426 8.80966 52.5114 9.24432C52.9801 9.67898 53.2145 10.25 53.2145 10.9574C53.2145 11.6009 53.0249 12.1655 52.6456 12.6513C52.2706 13.1371 51.755 13.5163 51.0987 13.7891C50.4467 14.0575 49.6946 14.1918 48.8423 14.1918C47.5426 14.1918 46.5071 13.9212 45.7358 13.38C44.9687 12.8345 44.5192 12.093 44.3871 11.1555L47.0653 11.0149C47.1463 11.4112 47.3423 11.7138 47.6534 11.9226C47.9645 12.1271 48.3629 12.2294 48.8487 12.2294C49.326 12.2294 49.7095 12.1378 49.9993 11.9545C50.2933 11.767 50.4425 11.5263 50.4467 11.2322C50.4425 10.9851 50.3381 10.7827 50.1335 10.625C49.929 10.4631 49.6136 10.3395 49.1875 10.2543L47.4872 9.91548C46.5284 9.72372 45.8146 9.39134 45.3459 8.91832C44.8814 8.44531 44.6491 7.84233 44.6491 7.10938C44.6491 6.47869 44.8196 5.93537 45.1605 5.4794C45.5057 5.02344 45.9893 4.67188 46.6115 4.42472C47.2379 4.17756 47.9709 4.05398 48.8104 4.05398C50.0504 4.05398 51.0263 4.31605 51.7379 4.8402C52.4538 5.36435 52.8714 6.07812 52.9908 6.98153ZM62.9182 6.98153L60.4253 7.13494C60.3827 6.92187 60.291 6.73011 60.1504 6.55966C60.0098 6.38494 59.8244 6.24645 59.5943 6.14418C59.3685 6.03764 59.0979 5.98438 58.7825 5.98438C58.3607 5.98438 58.0048 6.07386 57.7151 6.25284C57.4253 6.42756 57.2804 6.66193 57.2804 6.95597C57.2804 7.19034 57.3741 7.38849 57.5616 7.55043C57.7491 7.71236 58.0709 7.84233 58.5268 7.94034L60.3038 8.2983C61.2584 8.49432 61.97 8.80966 62.4388 9.24432C62.9075 9.67898 63.1419 10.25 63.1419 10.9574C63.1419 11.6009 62.9523 12.1655 62.573 12.6513C62.198 13.1371 61.6824 13.5163 61.0261 13.7891C60.3741 14.0575 59.622 14.1918 58.7697 14.1918C57.47 14.1918 56.4345 13.9212 55.6632 13.38C54.8962 12.8345 54.4466 12.093 54.3145 11.1555L56.9928 11.0149C57.0737 11.4112 57.2697 11.7138 57.5808 11.9226C57.8919 12.1271 58.2903 12.2294 58.7761 12.2294C59.2534 12.2294 59.6369 12.1378 59.9267 11.9545C60.2207 11.767 60.3699 11.5263 60.3741 11.2322C60.3699 10.9851 60.2655 10.7827 60.0609 10.625C59.8564 10.4631 59.541 10.3395 59.1149 10.2543L57.4146 9.91548C56.4558 9.72372 55.742 9.39134 55.2733 8.91832C54.8088 8.44531 54.5766 7.84233 54.5766 7.10938C54.5766 6.47869 54.747 5.93537 55.0879 5.4794C55.4331 5.02344 55.9168 4.67188 56.5389 4.42472C57.1653 4.17756 57.8983 4.05398 58.7378 4.05398C59.9778 4.05398 60.9537 4.31605 61.6653 4.8402C62.3812 5.36435 62.7989 6.07812 62.9182 6.98153ZM64.6766 14V4.18182H67.2717V5.91406H67.3868C67.5913 5.33878 67.9322 4.88494 68.4095 4.55256C68.8868 4.22017 69.4578 4.05398 70.1226 4.05398C70.7959 4.05398 71.369 4.2223 71.8421 4.55895C72.3151 4.89133 72.6304 5.34304 72.7881 5.91406H72.8903C73.0906 5.35156 73.4528 4.90199 73.977 4.56534C74.5054 4.22443 75.1297 4.05398 75.8499 4.05398C76.7661 4.05398 77.5097 4.34588 78.0807 4.92969C78.656 5.50923 78.9436 6.33168 78.9436 7.39702V14H76.227V7.93395C76.227 7.38849 76.0821 6.9794 75.7923 6.70668C75.5026 6.43395 75.1403 6.29759 74.7057 6.29759C74.2114 6.29759 73.8257 6.45526 73.5487 6.7706C73.2717 7.08168 73.1332 7.4929 73.1332 8.00426V14H70.4933V7.87642C70.4933 7.39489 70.3548 7.01136 70.0778 6.72585C69.8051 6.44034 69.445 6.29759 68.9976 6.29759C68.695 6.29759 68.4223 6.37429 68.1794 6.5277C67.9408 6.67685 67.7511 6.88778 67.6105 7.16051C67.4699 7.42898 67.3996 7.74432 67.3996 8.10653V14H64.6766ZM85.389 14.1918C84.379 14.1918 83.5097 13.9872 82.781 13.5781C82.0566 13.1648 81.4983 12.581 81.1063 11.8267C80.7143 11.0682 80.5182 10.1712 80.5182 9.13565C80.5182 8.12571 80.7143 7.23935 81.1063 6.47656C81.4983 5.71378 82.0502 5.11932 82.7618 4.69318C83.4777 4.26705 84.3172 4.05398 85.2803 4.05398C85.928 4.05398 86.531 4.15838 87.0893 4.36719C87.6518 4.57173 88.1418 4.88068 88.5594 5.29403C88.9813 5.70739 89.3094 6.22727 89.5438 6.85369C89.7782 7.47585 89.8954 8.20455 89.8954 9.03977V9.78764H81.6049V8.10014H87.3322C87.3322 7.7081 87.2469 7.3608 87.0765 7.05824C86.906 6.75568 86.6695 6.51918 86.367 6.34872C86.0687 6.17401 85.7214 6.08665 85.325 6.08665C84.9117 6.08665 84.5452 6.18253 84.2256 6.37429C83.9103 6.56179 83.6631 6.81534 83.4841 7.13494C83.3052 7.45028 83.2135 7.80185 83.2093 8.18963V9.79403C83.2093 10.2798 83.2988 10.6996 83.4777 11.0533C83.661 11.407 83.9188 11.6797 84.2512 11.8714C84.5836 12.0632 84.9777 12.1591 85.4337 12.1591C85.7363 12.1591 86.0133 12.1165 86.2647 12.0312C86.5161 11.946 86.7313 11.8182 86.9103 11.6477C87.0893 11.4773 87.2256 11.2685 87.3194 11.0213L89.8378 11.1875C89.71 11.7926 89.4479 12.321 89.0516 12.7727C88.6596 13.2202 88.1525 13.5696 87.5303 13.821C86.9124 14.0682 86.1986 14.1918 85.389 14.1918ZM96.7146 4.18182V6.22727H90.802V4.18182H96.7146ZM92.1443 1.82955H94.8673V10.983C94.8673 11.2344 94.9057 11.4304 94.9824 11.571C95.0591 11.7074 95.1656 11.8033 95.302 11.8587C95.4426 11.9141 95.6046 11.9418 95.7878 11.9418C95.9156 11.9418 96.0435 11.9311 96.1713 11.9098C96.2992 11.8842 96.3972 11.8651 96.4654 11.8523L96.8936 13.8786C96.7573 13.9212 96.5655 13.9702 96.3183 14.0256C96.0712 14.0852 95.7708 14.1214 95.4171 14.1342C94.7608 14.1598 94.1855 14.0724 93.6912 13.8722C93.2012 13.6719 92.8198 13.3608 92.547 12.9389C92.2743 12.517 92.1401 11.9844 92.1443 11.3409V1.82955ZM101.242 8.32386V14H98.5194V0.909091H101.166V5.91406H101.281C101.502 5.33452 101.86 4.88068 102.355 4.55256C102.849 4.22017 103.469 4.05398 104.215 4.05398C104.897 4.05398 105.491 4.20312 105.998 4.50142C106.509 4.79545 106.906 5.21946 107.187 5.77344C107.473 6.32315 107.613 6.98153 107.609 7.74858V14H104.886V8.23438C104.89 7.62926 104.737 7.15838 104.426 6.82173C104.119 6.48509 103.688 6.31676 103.134 6.31676C102.764 6.31676 102.436 6.3956 102.15 6.55327C101.869 6.71094 101.647 6.94105 101.485 7.24361C101.328 7.5419 101.247 7.90199 101.242 8.32386ZM114.008 14.1918C113.015 14.1918 112.156 13.9808 111.432 13.5589C110.712 13.1328 110.156 12.5405 109.764 11.782C109.372 11.0192 109.175 10.1349 109.175 9.12926C109.175 8.11506 109.372 7.22869 109.764 6.47017C110.156 5.70739 110.712 5.11506 111.432 4.69318C112.156 4.26705 113.015 4.05398 114.008 4.05398C115.001 4.05398 115.857 4.26705 116.577 4.69318C117.302 5.11506 117.86 5.70739 118.252 6.47017C118.644 7.22869 118.84 8.11506 118.84 9.12926C118.84 10.1349 118.644 11.0192 118.252 11.782C117.86 12.5405 117.302 13.1328 116.577 13.5589C115.857 13.9808 115.001 14.1918 114.008 14.1918ZM114.021 12.0824C114.472 12.0824 114.85 11.9545 115.152 11.6989C115.455 11.4389 115.683 11.0852 115.836 10.6378C115.994 10.1903 116.073 9.68111 116.073 9.11009C116.073 8.53906 115.994 8.02983 115.836 7.58239C115.683 7.13494 115.455 6.78125 115.152 6.52131C114.85 6.26136 114.472 6.13139 114.021 6.13139C113.565 6.13139 113.181 6.26136 112.87 6.52131C112.563 6.78125 112.331 7.13494 112.173 7.58239C112.02 8.02983 111.943 8.53906 111.943 9.11009C111.943 9.68111 112.02 10.1903 112.173 10.6378C112.331 11.0852 112.563 11.4389 112.87 11.6989C113.181 11.9545 113.565 12.0824 114.021 12.0824ZM124.049 14.1598C123.303 14.1598 122.628 13.968 122.022 13.5845C121.422 13.1967 120.944 12.6278 120.591 11.8778C120.241 11.1236 120.067 10.1989 120.067 9.10369C120.067 7.97869 120.248 7.04332 120.61 6.29759C120.972 5.54759 121.454 4.98722 122.054 4.61648C122.66 4.24148 123.322 4.05398 124.042 4.05398C124.592 4.05398 125.05 4.14773 125.417 4.33523C125.787 4.51847 126.086 4.74858 126.312 5.02557C126.542 5.2983 126.716 5.56676 126.836 5.83097H126.919V0.909091H129.635V14H126.951V12.4276H126.836C126.708 12.7003 126.527 12.9709 126.292 13.2393C126.062 13.5036 125.762 13.723 125.391 13.8977C125.025 14.0724 124.577 14.1598 124.049 14.1598ZM124.912 11.9929C125.351 11.9929 125.721 11.8736 126.024 11.6349C126.331 11.392 126.565 11.0533 126.727 10.6186C126.893 10.1839 126.976 9.67472 126.976 9.09091C126.976 8.5071 126.895 8 126.733 7.5696C126.571 7.1392 126.337 6.80682 126.03 6.57244C125.723 6.33807 125.351 6.22088 124.912 6.22088C124.464 6.22088 124.087 6.34233 123.78 6.58523C123.473 6.82812 123.241 7.16477 123.084 7.59517C122.926 8.02557 122.847 8.52415 122.847 9.09091C122.847 9.66193 122.926 10.1669 123.084 10.6058C123.245 11.0405 123.478 11.3814 123.78 11.6286C124.087 11.8714 124.464 11.9929 124.912 11.9929ZM4.70455 44.1598C3.95881 44.1598 3.28338 43.968 2.67827 43.5845C2.07741 43.1967 1.60014 42.6278 1.24645 41.8778C0.897017 41.1236 0.722301 40.1989 0.722301 39.1037C0.722301 37.9787 0.903409 37.0433 1.26562 36.2976C1.62784 35.5476 2.10938 34.9872 2.71023 34.6165C3.31534 34.2415 3.97798 34.054 4.69815 34.054C5.24787 34.054 5.70597 34.1477 6.07244 34.3352C6.44318 34.5185 6.74148 34.7486 6.96733 35.0256C7.19744 35.2983 7.37216 35.5668 7.49148 35.831H7.57457V30.9091H10.2912V44H7.60653V42.4276H7.49148C7.36364 42.7003 7.18253 42.9709 6.94815 43.2393C6.71804 43.5036 6.41761 43.723 6.04688 43.8977C5.6804 44.0724 5.23295 44.1598 4.70455 44.1598ZM5.56747 41.9929C6.00639 41.9929 6.37713 41.8736 6.67969 41.6349C6.98651 41.392 7.22088 41.0533 7.38281 40.6186C7.54901 40.1839 7.6321 39.6747 7.6321 39.0909C7.6321 38.5071 7.55114 38 7.3892 37.5696C7.22727 37.1392 6.9929 36.8068 6.68608 36.5724C6.37926 36.3381 6.00639 36.2209 5.56747 36.2209C5.12003 36.2209 4.7429 36.3423 4.43608 36.5852C4.12926 36.8281 3.89702 37.1648 3.73935 37.5952C3.58168 38.0256 3.50284 38.5241 3.50284 39.0909C3.50284 39.6619 3.58168 40.1669 3.73935 40.6058C3.90128 41.0405 4.13352 41.3814 4.43608 41.6286C4.7429 41.8714 5.12003 41.9929 5.56747 41.9929ZM16.8244 44.1918C15.8145 44.1918 14.9452 43.9872 14.2165 43.5781C13.4921 43.1648 12.9338 42.581 12.5418 41.8267C12.1497 41.0682 11.9537 40.1712 11.9537 39.1357C11.9537 38.1257 12.1497 37.2393 12.5418 36.4766C12.9338 35.7138 13.4857 35.1193 14.1973 34.6932C14.9132 34.267 15.7527 34.054 16.7158 34.054C17.3635 34.054 17.9665 34.1584 18.5247 34.3672C19.0872 34.5717 19.5773 34.8807 19.9949 35.294C20.4168 35.7074 20.7449 36.2273 20.9793 36.8537C21.2136 37.4759 21.3308 38.2045 21.3308 39.0398V39.7876H13.0403V38.1001H18.7676C18.7676 37.7081 18.6824 37.3608 18.5119 37.0582C18.3415 36.7557 18.105 36.5192 17.8024 36.3487C17.5041 36.174 17.1568 36.0866 16.7605 36.0866C16.3472 36.0866 15.9807 36.1825 15.6611 36.3743C15.3457 36.5618 15.0986 36.8153 14.9196 37.1349C14.7406 37.4503 14.649 37.8018 14.6448 38.1896V39.794C14.6448 40.2798 14.7342 40.6996 14.9132 41.0533C15.0965 41.407 15.3543 41.6797 15.6867 41.8714C16.019 42.0632 16.4132 42.1591 16.8692 42.1591C17.1717 42.1591 17.4487 42.1165 17.7001 42.0312C17.9516 41.946 18.1668 41.8182 18.3457 41.6477C18.5247 41.4773 18.6611 41.2685 18.7548 41.0213L21.2733 41.1875C21.1455 41.7926 20.8834 42.321 20.4871 42.7727C20.095 43.2202 19.5879 43.5696 18.9658 43.821C18.3479 44.0682 17.6341 44.1918 16.8244 44.1918ZM28.2076 34.1818V36.2273H22.148V34.1818H28.2076ZM23.5351 44V33.4723C23.5351 32.7607 23.6736 32.1705 23.9505 31.7017C24.2318 31.233 24.6153 30.8814 25.1011 30.647C25.5869 30.4126 26.1388 30.2955 26.7567 30.2955C27.1743 30.2955 27.5557 30.3274 27.9008 30.3913C28.2503 30.4553 28.5102 30.5128 28.6807 30.5639L28.1949 32.6094C28.0883 32.5753 27.9562 32.5433 27.7986 32.5135C27.6451 32.4837 27.4875 32.4688 27.3255 32.4688C26.925 32.4688 26.6459 32.5625 26.4882 32.75C26.3305 32.9332 26.2517 33.1911 26.2517 33.5234V44H23.5351ZM34.0665 31.004H40.2765V41.048H34.0665V31.004ZM38.8725 32.192H35.4705V39.86H38.8725V32.192ZM45.8745 29.132H47.3145V45.404H45.8745V29.132ZM39.5205 35.252H43.2645V36.494H39.5205V35.252ZM42.6525 29.474H44.0745V44.594H42.6525V29.474ZM49.8691 42.056H64.6111V43.298H49.8691V42.056ZM56.4211 38.114H57.8971V42.47H56.4211V38.114ZM56.3851 30.212H57.6811V31.472C57.6811 34.946 54.3511 37.628 51.0751 38.312L50.4451 37.07C53.3071 36.548 56.3851 34.154 56.3851 31.472V30.212ZM56.6551 30.212H57.9511V31.472C57.9511 34.172 61.0471 36.548 63.9091 37.07L63.2611 38.312C59.9851 37.628 56.6551 34.946 56.6551 31.472V30.212ZM68.1017 36.926H79.2797V38.15H68.1017V36.926ZM66.2477 41.966H80.9897V43.208H66.2477V41.966ZM68.1017 30.626H79.1177V31.868H69.5957V37.466H68.1017V30.626ZM90.3843 31.76H95.0823V32.984H90.3843V31.76ZM90.3843 35H95.1183V36.206H90.3843V35ZM94.5063 29.132H96.0003V38.762H94.5063V29.132ZM83.3643 30.356H90.7983V37.592H83.3643V30.356ZM89.3223 31.562H84.8223V36.404H89.3223V31.562ZM90.6543 39.23C94.0023 39.23 96.0723 40.364 96.0723 42.308C96.0723 44.252 94.0023 45.368 90.6543 45.368C87.2883 45.368 85.2183 44.252 85.2183 42.308C85.2183 40.364 87.2883 39.23 90.6543 39.23ZM90.6543 40.418C88.2063 40.418 86.7123 41.12 86.7123 42.308C86.7123 43.496 88.2063 44.198 90.6543 44.198C93.1023 44.198 94.5963 43.496 94.5963 42.308C94.5963 41.12 93.1023 40.418 90.6543 40.418ZM99.7924 38.7521C99.7924 37.1669 100.003 35.7074 100.425 34.3736C100.851 33.0398 101.501 31.804 102.375 30.6662H104.976C104.644 31.0881 104.335 31.6037 104.05 32.2131C103.764 32.8182 103.515 33.483 103.302 34.2074C103.089 34.9318 102.922 35.6818 102.803 36.4574C102.684 37.2287 102.624 37.9936 102.624 38.7521C102.624 39.7621 102.726 40.7827 102.931 41.8139C103.14 42.8409 103.421 43.7955 103.775 44.6776C104.133 45.5597 104.533 46.282 104.976 46.8445H102.375C101.501 45.7067 100.851 44.4709 100.425 43.1371C100.003 41.8033 99.7924 40.3416 99.7924 38.7521ZM110.725 44.1918C109.719 44.1918 108.854 43.9787 108.13 43.5526C107.41 43.1222 106.856 42.5256 106.468 41.7628C106.084 41 105.893 40.1222 105.893 39.1293C105.893 38.1236 106.086 37.2415 106.474 36.483C106.866 35.7202 107.422 35.1257 108.143 34.6996C108.863 34.2692 109.719 34.054 110.712 34.054C111.569 34.054 112.319 34.2095 112.962 34.5206C113.606 34.8317 114.115 35.2685 114.49 35.831C114.865 36.3935 115.072 37.054 115.11 37.8125H112.54C112.468 37.3224 112.276 36.9283 111.965 36.63C111.658 36.3274 111.256 36.1761 110.757 36.1761C110.335 36.1761 109.966 36.2912 109.651 36.5213C109.34 36.7472 109.097 37.0774 108.922 37.5121C108.748 37.9467 108.66 38.473 108.66 39.0909C108.66 39.7173 108.746 40.25 108.916 40.6889C109.091 41.1278 109.336 41.4624 109.651 41.6925C109.966 41.9226 110.335 42.0376 110.757 42.0376C111.068 42.0376 111.347 41.9737 111.594 41.8459C111.846 41.718 112.052 41.5327 112.214 41.2898C112.381 41.0426 112.489 40.7464 112.54 40.4013H115.11C115.067 41.1513 114.863 41.8118 114.496 42.3828C114.134 42.9496 113.633 43.3928 112.994 43.7124C112.355 44.032 111.599 44.1918 110.725 44.1918ZM119.396 30.9091V44H116.673V30.9091H119.396ZM129.567 36.9815L127.074 37.1349C127.031 36.9219 126.94 36.7301 126.799 36.5597C126.658 36.3849 126.473 36.2464 126.243 36.1442C126.017 36.0376 125.746 35.9844 125.431 35.9844C125.009 35.9844 124.653 36.0739 124.364 36.2528C124.074 36.4276 123.929 36.6619 123.929 36.956C123.929 37.1903 124.023 37.3885 124.21 37.5504C124.398 37.7124 124.719 37.8423 125.175 37.9403L126.952 38.2983C127.907 38.4943 128.619 38.8097 129.087 39.2443C129.556 39.679 129.79 40.25 129.79 40.9574C129.79 41.6009 129.601 42.1655 129.222 42.6513C128.847 43.1371 128.331 43.5163 127.675 43.7891C127.023 44.0575 126.271 44.1918 125.418 44.1918C124.119 44.1918 123.083 43.9212 122.312 43.38C121.545 42.8345 121.095 42.093 120.963 41.1555L123.641 41.0149C123.722 41.4112 123.918 41.7138 124.229 41.9226C124.54 42.1271 124.939 42.2294 125.425 42.2294C125.902 42.2294 126.285 42.1378 126.575 41.9545C126.869 41.767 127.018 41.5263 127.023 41.2322C127.018 40.9851 126.914 40.7827 126.709 40.625C126.505 40.4631 126.19 40.3395 125.763 40.2543L124.063 39.9155C123.104 39.7237 122.391 39.3913 121.922 38.9183C121.457 38.4453 121.225 37.8423 121.225 37.1094C121.225 36.4787 121.396 35.9354 121.736 35.4794C122.082 35.0234 122.565 34.6719 123.187 34.4247C123.814 34.1776 124.547 34.054 125.386 34.054C126.626 34.054 127.602 34.3161 128.314 34.8402C129.03 35.3643 129.447 36.0781 129.567 36.9815ZM134.285 42.2102L134.214 42.9134C134.159 43.4759 134.052 44.0362 133.895 44.5945C133.741 45.157 133.579 45.6662 133.409 46.1222C133.243 46.5781 133.108 46.9361 133.006 47.196H131.242C131.306 46.9446 131.393 46.593 131.504 46.1413C131.615 45.6939 131.719 45.1911 131.817 44.6328C131.915 44.0746 131.977 43.5057 132.003 42.9261L132.035 42.2102H134.285ZM140.259 47.6818V34.1818H141.717V35.7415H141.895C142.006 35.571 142.16 35.3537 142.356 35.0895C142.556 34.821 142.842 34.5824 143.212 34.3736C143.587 34.1605 144.094 34.054 144.734 34.054C145.56 34.054 146.289 34.2607 146.92 34.674C147.55 35.0874 148.042 35.6733 148.396 36.4318C148.75 37.1903 148.927 38.0852 148.927 39.1165C148.927 40.1562 148.75 41.0575 148.396 41.8203C148.042 42.5788 147.552 43.1669 146.926 43.5845C146.3 43.9979 145.577 44.2045 144.759 44.2045C144.128 44.2045 143.623 44.1001 143.244 43.8913C142.865 43.6783 142.573 43.4375 142.368 43.169C142.164 42.8963 142.006 42.6705 141.895 42.4915H141.768V47.6818H140.259ZM141.742 39.0909C141.742 39.8324 141.851 40.4865 142.068 41.0533C142.285 41.6158 142.603 42.0568 143.02 42.3764C143.438 42.6918 143.949 42.8494 144.555 42.8494C145.185 42.8494 145.712 42.6832 146.133 42.3509C146.56 42.0142 146.879 41.5625 147.092 40.9957C147.31 40.4247 147.418 39.7898 147.418 39.0909C147.418 38.4006 147.312 37.7784 147.099 37.2244C146.89 36.6662 146.572 36.2251 146.146 35.9013C145.724 35.5732 145.194 35.4091 144.555 35.4091C143.941 35.4091 143.425 35.5646 143.008 35.8757C142.59 36.1825 142.275 36.6129 142.062 37.1669C141.849 37.7166 141.742 38.358 141.742 39.0909ZM153.937 44.2301C153.315 44.2301 152.75 44.1129 152.243 43.8786C151.736 43.6399 151.333 43.2969 151.035 42.8494C150.737 42.3977 150.588 41.8523 150.588 41.2131C150.588 40.6506 150.698 40.1946 150.92 39.8452C151.142 39.4915 151.438 39.2145 151.809 39.0142C152.179 38.8139 152.588 38.6648 153.036 38.5668C153.488 38.4645 153.941 38.3835 154.397 38.3239C154.994 38.2472 155.478 38.1896 155.848 38.1513C156.223 38.1087 156.496 38.0384 156.666 37.9403C156.841 37.8423 156.929 37.6719 156.929 37.429V37.3778C156.929 36.7472 156.756 36.2571 156.411 35.9077C156.07 35.5582 155.552 35.3835 154.858 35.3835C154.137 35.3835 153.573 35.5412 153.164 35.8565C152.755 36.1719 152.467 36.5085 152.301 36.8665L150.869 36.3551C151.125 35.7585 151.465 35.294 151.892 34.9616C152.322 34.625 152.791 34.3906 153.298 34.2585C153.809 34.1222 154.312 34.054 154.806 34.054C155.122 34.054 155.484 34.0923 155.893 34.169C156.306 34.2415 156.705 34.3928 157.088 34.6229C157.476 34.853 157.798 35.2003 158.054 35.6648C158.309 36.1293 158.437 36.7514 158.437 37.5312V44H156.929V42.6705H156.852C156.75 42.8835 156.579 43.1115 156.34 43.3544C156.102 43.5973 155.784 43.804 155.388 43.9744C154.992 44.1449 154.508 44.2301 153.937 44.2301ZM154.167 42.875C154.764 42.875 155.267 42.7578 155.676 42.5234C156.089 42.2891 156.4 41.9865 156.609 41.6158C156.822 41.245 156.929 40.8551 156.929 40.446V39.0653C156.865 39.142 156.724 39.2124 156.507 39.2763C156.294 39.3359 156.046 39.3892 155.765 39.4361C155.488 39.4787 155.218 39.517 154.953 39.5511C154.693 39.581 154.483 39.6065 154.321 39.6278C153.929 39.679 153.562 39.7621 153.221 39.8771C152.885 39.9879 152.612 40.1562 152.403 40.3821C152.198 40.6037 152.096 40.9062 152.096 41.2898C152.096 41.8139 152.29 42.2102 152.678 42.4787C153.07 42.7429 153.566 42.875 154.167 42.875ZM161.01 44V34.1818H162.468V35.6648H162.57C162.749 35.179 163.073 34.7848 163.542 34.4822C164.01 34.1797 164.539 34.0284 165.127 34.0284C165.238 34.0284 165.376 34.0305 165.542 34.0348C165.709 34.0391 165.834 34.0455 165.92 34.054V35.5881C165.868 35.5753 165.751 35.5561 165.568 35.5305C165.389 35.5007 165.199 35.4858 164.999 35.4858C164.522 35.4858 164.096 35.5859 163.721 35.7862C163.35 35.9822 163.056 36.255 162.839 36.6044C162.625 36.9496 162.519 37.3437 162.519 37.7869V44H161.01ZM170.417 44.2301C169.795 44.2301 169.23 44.1129 168.723 43.8786C168.216 43.6399 167.813 43.2969 167.515 42.8494C167.217 42.3977 167.067 41.8523 167.067 41.2131C167.067 40.6506 167.178 40.1946 167.4 39.8452C167.621 39.4915 167.918 39.2145 168.288 39.0142C168.659 38.8139 169.068 38.6648 169.516 38.5668C169.967 38.4645 170.421 38.3835 170.877 38.3239C171.474 38.2472 171.957 38.1896 172.328 38.1513C172.703 38.1087 172.976 38.0384 173.146 37.9403C173.321 37.8423 173.408 37.6719 173.408 37.429V37.3778C173.408 36.7472 173.236 36.2571 172.891 35.9077C172.55 35.5582 172.032 35.3835 171.337 35.3835C170.617 35.3835 170.053 35.5412 169.643 35.8565C169.234 36.1719 168.947 36.5085 168.781 36.8665L167.349 36.3551C167.604 35.7585 167.945 35.294 168.371 34.9616C168.802 34.625 169.271 34.3906 169.778 34.2585C170.289 34.1222 170.792 34.054 171.286 34.054C171.602 34.054 171.964 34.0923 172.373 34.169C172.786 34.2415 173.185 34.3928 173.568 34.6229C173.956 34.853 174.278 35.2003 174.533 35.6648C174.789 36.1293 174.917 36.7514 174.917 37.5312V44H173.408V42.6705H173.332C173.229 42.8835 173.059 43.1115 172.82 43.3544C172.582 43.5973 172.264 43.804 171.868 43.9744C171.472 44.1449 170.988 44.2301 170.417 44.2301ZM170.647 42.875C171.244 42.875 171.746 42.7578 172.156 42.5234C172.569 42.2891 172.88 41.9865 173.089 41.6158C173.302 41.245 173.408 40.8551 173.408 40.446V39.0653C173.344 39.142 173.204 39.2124 172.987 39.2763C172.773 39.3359 172.526 39.3892 172.245 39.4361C171.968 39.4787 171.697 39.517 171.433 39.5511C171.173 39.581 170.962 39.6065 170.8 39.6278C170.408 39.679 170.042 39.7621 169.701 39.8771C169.364 39.9879 169.092 40.1562 168.883 40.3821C168.678 40.6037 168.576 40.9062 168.576 41.2898C168.576 41.8139 168.77 42.2102 169.158 42.4787C169.55 42.7429 170.046 42.875 170.647 42.875ZM184.266 44V45.4062H176.084V44H184.266ZM188.074 30.9091V44H186.489V32.571H186.413L183.217 34.6932V33.0824L186.489 30.9091H188.074ZM193.162 42.2102L193.059 42.9006C192.987 43.3864 192.876 43.9062 192.727 44.4602C192.582 45.0142 192.431 45.5362 192.273 46.0263C192.115 46.5163 191.985 46.9063 191.883 47.196H190.733C190.788 46.9233 190.86 46.5632 190.95 46.1158C191.039 45.6683 191.129 45.1676 191.218 44.6136C191.312 44.0639 191.389 43.5014 191.448 42.9261L191.525 42.2102H193.162ZM200.659 47.6818V34.1818H202.116V35.7415H202.295C202.406 35.571 202.56 35.3537 202.756 35.0895C202.956 34.821 203.241 34.5824 203.612 34.3736C203.987 34.1605 204.494 34.054 205.133 34.054C205.96 34.054 206.689 34.2607 207.319 34.674C207.95 35.0874 208.442 35.6733 208.796 36.4318C209.15 37.1903 209.327 38.0852 209.327 39.1165C209.327 40.1562 209.15 41.0575 208.796 41.8203C208.442 42.5788 207.952 43.1669 207.326 43.5845C206.699 43.9979 205.977 44.2045 205.159 44.2045C204.528 44.2045 204.023 44.1001 203.644 43.8913C203.265 43.6783 202.973 43.4375 202.768 43.169C202.564 42.8963 202.406 42.6705 202.295 42.4915H202.167V47.6818H200.659ZM202.142 39.0909C202.142 39.8324 202.251 40.4865 202.468 41.0533C202.685 41.6158 203.003 42.0568 203.42 42.3764C203.838 42.6918 204.349 42.8494 204.954 42.8494C205.585 42.8494 206.111 42.6832 206.533 42.3509C206.959 42.0142 207.279 41.5625 207.492 40.9957C207.709 40.4247 207.818 39.7898 207.818 39.0909C207.818 38.4006 207.712 37.7784 207.498 37.2244C207.29 36.6662 206.972 36.2251 206.546 35.9013C206.124 35.5732 205.594 35.4091 204.954 35.4091C204.341 35.4091 203.825 35.5646 203.408 35.8757C202.99 36.1825 202.675 36.6129 202.462 37.1669C202.248 37.7166 202.142 38.358 202.142 39.0909ZM214.337 44.2301C213.715 44.2301 213.15 44.1129 212.643 43.8786C212.136 43.6399 211.733 43.2969 211.435 42.8494C211.137 42.3977 210.987 41.8523 210.987 41.2131C210.987 40.6506 211.098 40.1946 211.32 39.8452C211.541 39.4915 211.838 39.2145 212.208 39.0142C212.579 38.8139 212.988 38.6648 213.436 38.5668C213.887 38.4645 214.341 38.3835 214.797 38.3239C215.394 38.2472 215.877 38.1896 216.248 38.1513C216.623 38.1087 216.896 38.0384 217.066 37.9403C217.241 37.8423 217.328 37.6719 217.328 37.429V37.3778C217.328 36.7472 217.156 36.2571 216.811 35.9077C216.47 35.5582 215.952 35.3835 215.257 35.3835C214.537 35.3835 213.973 35.5412 213.563 35.8565C213.154 36.1719 212.867 36.5085 212.701 36.8665L211.269 36.3551C211.524 35.7585 211.865 35.294 212.291 34.9616C212.722 34.625 213.191 34.3906 213.698 34.2585C214.209 34.1222 214.712 34.054 215.206 34.054C215.522 34.054 215.884 34.0923 216.293 34.169C216.706 34.2415 217.105 34.3928 217.488 34.6229C217.876 34.853 218.198 35.2003 218.453 35.6648C218.709 36.1293 218.837 36.7514 218.837 37.5312V44H217.328V42.6705H217.252C217.149 42.8835 216.979 43.1115 216.74 43.3544C216.502 43.5973 216.184 43.804 215.788 43.9744C215.392 44.1449 214.908 44.2301 214.337 44.2301ZM214.567 42.875C215.164 42.875 215.666 42.7578 216.076 42.5234C216.489 42.2891 216.8 41.9865 217.009 41.6158C217.222 41.245 217.328 40.8551 217.328 40.446V39.0653C217.264 39.142 217.124 39.2124 216.907 39.2763C216.693 39.3359 216.446 39.3892 216.165 39.4361C215.888 39.4787 215.617 39.517 215.353 39.5511C215.093 39.581 214.882 39.6065 214.72 39.6278C214.328 39.679 213.962 39.7621 213.621 39.8771C213.284 39.9879 213.012 40.1562 212.803 40.3821C212.598 40.6037 212.496 40.9062 212.496 41.2898C212.496 41.8139 212.69 42.2102 213.078 42.4787C213.47 42.7429 213.966 42.875 214.567 42.875ZM221.41 44V34.1818H222.868V35.6648H222.97C223.149 35.179 223.473 34.7848 223.942 34.4822C224.41 34.1797 224.939 34.0284 225.527 34.0284C225.638 34.0284 225.776 34.0305 225.942 34.0348C226.108 34.0391 226.234 34.0455 226.319 34.054V35.5881C226.268 35.5753 226.151 35.5561 225.968 35.5305C225.789 35.5007 225.599 35.4858 225.399 35.4858C224.922 35.4858 224.496 35.5859 224.121 35.7862C223.75 35.9822 223.456 36.255 223.238 36.6044C223.025 36.9496 222.919 37.3437 222.919 37.7869V44H221.41ZM230.817 44.2301C230.195 44.2301 229.63 44.1129 229.123 43.8786C228.616 43.6399 228.213 43.2969 227.915 42.8494C227.616 42.3977 227.467 41.8523 227.467 41.2131C227.467 40.6506 227.578 40.1946 227.8 39.8452C228.021 39.4915 228.317 39.2145 228.688 39.0142C229.059 38.8139 229.468 38.6648 229.915 38.5668C230.367 38.4645 230.821 38.3835 231.277 38.3239C231.874 38.2472 232.357 38.1896 232.728 38.1513C233.103 38.1087 233.376 38.0384 233.546 37.9403C233.721 37.8423 233.808 37.6719 233.808 37.429V37.3778C233.808 36.7472 233.636 36.2571 233.29 35.9077C232.95 35.5582 232.432 35.3835 231.737 35.3835C231.017 35.3835 230.452 35.5412 230.043 35.8565C229.634 36.1719 229.347 36.5085 229.18 36.8665L227.749 36.3551C228.004 35.7585 228.345 35.294 228.771 34.9616C229.202 34.625 229.67 34.3906 230.178 34.2585C230.689 34.1222 231.192 34.054 231.686 34.054C232.001 34.054 232.364 34.0923 232.773 34.169C233.186 34.2415 233.585 34.3928 233.968 34.6229C234.356 34.853 234.678 35.2003 234.933 35.6648C235.189 36.1293 235.317 36.7514 235.317 37.5312V44H233.808V42.6705H233.732C233.629 42.8835 233.459 43.1115 233.22 43.3544C232.982 43.5973 232.664 43.804 232.268 43.9744C231.871 44.1449 231.388 44.2301 230.817 44.2301ZM231.047 42.875C231.643 42.875 232.146 42.7578 232.555 42.5234C232.969 42.2891 233.28 41.9865 233.489 41.6158C233.702 41.245 233.808 40.8551 233.808 40.446V39.0653C233.744 39.142 233.604 39.2124 233.386 39.2763C233.173 39.3359 232.926 39.3892 232.645 39.4361C232.368 39.4787 232.097 39.517 231.833 39.5511C231.573 39.581 231.362 39.6065 231.2 39.6278C230.808 39.679 230.442 39.7621 230.101 39.8771C229.764 39.9879 229.491 40.1562 229.283 40.3821C229.078 40.6037 228.976 40.9062 228.976 41.2898C228.976 41.8139 229.17 42.2102 229.558 42.4787C229.95 42.7429 230.446 42.875 231.047 42.875ZM244.666 44V45.4062H236.484V44H244.666ZM245.823 44V42.8494L250.144 38.1193C250.651 37.5653 251.069 37.0838 251.397 36.6747C251.725 36.2614 251.968 35.8736 252.126 35.5114C252.288 35.1449 252.369 34.7614 252.369 34.3608C252.369 33.9006 252.258 33.5021 252.036 33.1655C251.819 32.8288 251.521 32.5689 251.141 32.3857C250.762 32.2024 250.336 32.1108 249.863 32.1108C249.36 32.1108 248.921 32.2152 248.546 32.424C248.176 32.6286 247.888 32.9162 247.683 33.2869C247.483 33.6577 247.383 34.0923 247.383 34.5909H245.874C245.874 33.8239 246.051 33.1506 246.405 32.571C246.759 31.9915 247.24 31.5398 247.85 31.2159C248.463 30.892 249.151 30.7301 249.914 30.7301C250.681 30.7301 251.361 30.892 251.953 31.2159C252.546 31.5398 253.01 31.9766 253.347 32.5263C253.683 33.076 253.852 33.6875 253.852 34.3608C253.852 34.8423 253.764 35.3132 253.59 35.7734C253.419 36.2294 253.121 36.7386 252.695 37.3011C252.273 37.8594 251.687 38.5412 250.937 39.3466L247.997 42.4915V42.5938H254.082V44H245.823ZM258.817 42.2102L258.715 42.9006C258.643 43.3864 258.532 43.9062 258.383 44.4602C258.238 45.0142 258.086 45.5362 257.929 46.0263C257.771 46.5163 257.641 46.9063 257.539 47.196H256.388C256.444 46.9233 256.516 46.5632 256.606 46.1158C256.695 45.6683 256.785 45.1676 256.874 44.6136C256.968 44.0639 257.045 43.5014 257.104 42.9261L257.181 42.2102H258.817ZM267.414 44.1023C267.099 44.1023 266.828 43.9893 266.602 43.7635C266.376 43.5376 266.264 43.267 266.264 42.9517C266.264 42.6364 266.376 42.3658 266.602 42.1399C266.828 41.9141 267.099 41.8011 267.414 41.8011C267.729 41.8011 268 41.9141 268.226 42.1399C268.452 42.3658 268.565 42.6364 268.565 42.9517C268.565 43.1605 268.511 43.3523 268.405 43.527C268.303 43.7017 268.164 43.8423 267.989 43.9489C267.819 44.0511 267.627 44.1023 267.414 44.1023ZM272.191 44.1023C271.876 44.1023 271.605 43.9893 271.379 43.7635C271.154 43.5376 271.041 43.267 271.041 42.9517C271.041 42.6364 271.154 42.3658 271.379 42.1399C271.605 41.9141 271.876 41.8011 272.191 41.8011C272.506 41.8011 272.777 41.9141 273.003 42.1399C273.229 42.3658 273.342 42.6364 273.342 42.9517C273.342 43.1605 273.288 43.3523 273.182 43.527C273.08 43.7017 272.941 43.8423 272.766 43.9489C272.596 44.0511 272.404 44.1023 272.191 44.1023ZM276.968 44.1023C276.653 44.1023 276.382 43.9893 276.156 43.7635C275.931 43.5376 275.818 43.267 275.818 42.9517C275.818 42.6364 275.931 42.3658 276.156 42.1399C276.382 41.9141 276.653 41.8011 276.968 41.8011C277.283 41.8011 277.554 41.9141 277.78 42.1399C278.006 42.3658 278.119 42.6364 278.119 42.9517C278.119 43.1605 278.065 43.3523 277.959 43.527C277.857 43.7017 277.718 43.8423 277.543 43.9489C277.373 44.0511 277.181 44.1023 276.968 44.1023ZM282.896 42.2102L282.793 42.9006C282.721 43.3864 282.61 43.9062 282.461 44.4602C282.316 45.0142 282.165 45.5362 282.007 46.0263C281.85 46.5163 281.72 46.9063 281.617 47.196H280.467C280.522 46.9233 280.595 46.5632 280.684 46.1158C280.774 45.6683 280.863 45.1676 280.953 44.6136C281.046 44.0639 281.123 43.5014 281.183 42.9261L281.259 42.2102H282.896ZM290.393 47.6818V34.1818H291.851V35.7415H292.03C292.14 35.571 292.294 35.3537 292.49 35.0895C292.69 34.821 292.976 34.5824 293.346 34.3736C293.721 34.1605 294.228 34.054 294.868 34.054C295.694 34.054 296.423 34.2607 297.054 34.674C297.684 35.0874 298.177 35.6733 298.53 36.4318C298.884 37.1903 299.061 38.0852 299.061 39.1165C299.061 40.1562 298.884 41.0575 298.53 41.8203C298.177 42.5788 297.687 43.1669 297.06 43.5845C296.434 43.9979 295.711 44.2045 294.893 44.2045C294.263 44.2045 293.758 44.1001 293.378 43.8913C292.999 43.6783 292.707 43.4375 292.503 43.169C292.298 42.8963 292.14 42.6705 292.03 42.4915H291.902V47.6818H290.393ZM291.876 39.0909C291.876 39.8324 291.985 40.4865 292.202 41.0533C292.419 41.6158 292.737 42.0568 293.155 42.3764C293.572 42.6918 294.084 42.8494 294.689 42.8494C295.319 42.8494 295.846 42.6832 296.267 42.3509C296.694 42.0142 297.013 41.5625 297.226 40.9957C297.444 40.4247 297.552 39.7898 297.552 39.0909C297.552 38.4006 297.446 37.7784 297.233 37.2244C297.024 36.6662 296.706 36.2251 296.28 35.9013C295.858 35.5732 295.328 35.4091 294.689 35.4091C294.075 35.4091 293.559 35.5646 293.142 35.8757C292.724 36.1825 292.409 36.6129 292.196 37.1669C291.983 37.7166 291.876 38.358 291.876 39.0909ZM304.071 44.2301C303.449 44.2301 302.884 44.1129 302.377 43.8786C301.87 43.6399 301.467 43.2969 301.169 42.8494C300.871 42.3977 300.722 41.8523 300.722 41.2131C300.722 40.6506 300.832 40.1946 301.054 39.8452C301.276 39.4915 301.572 39.2145 301.943 39.0142C302.313 38.8139 302.722 38.6648 303.17 38.5668C303.622 38.4645 304.075 38.3835 304.531 38.3239C305.128 38.2472 305.612 38.1896 305.982 38.1513C306.357 38.1087 306.63 38.0384 306.801 37.9403C306.975 37.8423 307.063 37.6719 307.063 37.429V37.3778C307.063 36.7472 306.89 36.2571 306.545 35.9077C306.204 35.5582 305.686 35.3835 304.992 35.3835C304.271 35.3835 303.707 35.5412 303.298 35.8565C302.889 36.1719 302.601 36.5085 302.435 36.8665L301.003 36.3551C301.259 35.7585 301.6 35.294 302.026 34.9616C302.456 34.625 302.925 34.3906 303.432 34.2585C303.943 34.1222 304.446 34.054 304.94 34.054C305.256 34.054 305.618 34.0923 306.027 34.169C306.44 34.2415 306.839 34.3928 307.222 34.6229C307.61 34.853 307.932 35.2003 308.188 35.6648C308.443 36.1293 308.571 36.7514 308.571 37.5312V44H307.063V42.6705H306.986C306.884 42.8835 306.713 43.1115 306.475 43.3544C306.236 43.5973 305.918 43.804 305.522 43.9744C305.126 44.1449 304.642 44.2301 304.071 44.2301ZM304.301 42.875C304.898 42.875 305.401 42.7578 305.81 42.5234C306.223 42.2891 306.534 41.9865 306.743 41.6158C306.956 41.245 307.063 40.8551 307.063 40.446V39.0653C306.999 39.142 306.858 39.2124 306.641 39.2763C306.428 39.3359 306.181 39.3892 305.899 39.4361C305.622 39.4787 305.352 39.517 305.087 39.5511C304.828 39.581 304.617 39.6065 304.455 39.6278C304.063 39.679 303.696 39.7621 303.355 39.8771C303.019 39.9879 302.746 40.1562 302.537 40.3821C302.332 40.6037 302.23 40.9062 302.23 41.2898C302.23 41.8139 302.424 42.2102 302.812 42.4787C303.204 42.7429 303.7 42.875 304.301 42.875ZM311.145 44V34.1818H312.602V35.6648H312.704C312.883 35.179 313.207 34.7848 313.676 34.4822C314.145 34.1797 314.673 34.0284 315.261 34.0284C315.372 34.0284 315.51 34.0305 315.676 34.0348C315.843 34.0391 315.968 34.0455 316.054 34.054V35.5881C316.002 35.5753 315.885 35.5561 315.702 35.5305C315.523 35.5007 315.333 35.4858 315.133 35.4858C314.656 35.4858 314.23 35.5859 313.855 35.7862C313.484 35.9822 313.19 36.255 312.973 36.6044C312.76 36.9496 312.653 37.3437 312.653 37.7869V44H311.145ZM320.551 44.2301C319.929 44.2301 319.364 44.1129 318.857 43.8786C318.35 43.6399 317.947 43.2969 317.649 42.8494C317.351 42.3977 317.202 41.8523 317.202 41.2131C317.202 40.6506 317.312 40.1946 317.534 39.8452C317.756 39.4915 318.052 39.2145 318.422 39.0142C318.793 38.8139 319.202 38.6648 319.65 38.5668C320.101 38.4645 320.555 38.3835 321.011 38.3239C321.608 38.2472 322.091 38.1896 322.462 38.1513C322.837 38.1087 323.11 38.0384 323.28 37.9403C323.455 37.8423 323.542 37.6719 323.542 37.429V37.3778C323.542 36.7472 323.37 36.2571 323.025 35.9077C322.684 35.5582 322.166 35.3835 321.471 35.3835C320.751 35.3835 320.187 35.5412 319.778 35.8565C319.368 36.1719 319.081 36.5085 318.915 36.8665L317.483 36.3551C317.738 35.7585 318.079 35.294 318.506 34.9616C318.936 34.625 319.405 34.3906 319.912 34.2585C320.423 34.1222 320.926 34.054 321.42 34.054C321.736 34.054 322.098 34.0923 322.507 34.169C322.92 34.2415 323.319 34.3928 323.702 34.6229C324.09 34.853 324.412 35.2003 324.667 35.6648C324.923 36.1293 325.051 36.7514 325.051 37.5312V44H323.542V42.6705H323.466C323.363 42.8835 323.193 43.1115 322.954 43.3544C322.716 43.5973 322.398 43.804 322.002 43.9744C321.606 44.1449 321.122 44.2301 320.551 44.2301ZM320.781 42.875C321.378 42.875 321.881 42.7578 322.29 42.5234C322.703 42.2891 323.014 41.9865 323.223 41.6158C323.436 41.245 323.542 40.8551 323.542 40.446V39.0653C323.479 39.142 323.338 39.2124 323.121 39.2763C322.908 39.3359 322.66 39.3892 322.379 39.4361C322.102 39.4787 321.832 39.517 321.567 39.5511C321.307 39.581 321.096 39.6065 320.935 39.6278C320.542 39.679 320.176 39.7621 319.835 39.8771C319.498 39.9879 319.226 40.1562 319.017 40.3821C318.812 40.6037 318.71 40.9062 318.71 41.2898C318.71 41.8139 318.904 42.2102 319.292 42.4787C319.684 42.7429 320.18 42.875 320.781 42.875ZM334.4 44V45.4062H326.218V44H334.4ZM337.918 38.0938V44H336.409V34.1818H337.867V35.7159H337.994C338.225 35.2173 338.574 34.8168 339.043 34.5142C339.511 34.2074 340.117 34.054 340.858 34.054C341.523 34.054 342.104 34.1903 342.603 34.4631C343.102 34.7315 343.489 35.1406 343.766 35.6903C344.043 36.2358 344.182 36.9261 344.182 37.7614V44H342.673V37.8636C342.673 37.0923 342.473 36.4915 342.073 36.0611C341.672 35.6264 341.122 35.4091 340.423 35.4091C339.942 35.4091 339.511 35.5135 339.132 35.7223C338.757 35.9311 338.461 36.2358 338.244 36.6364C338.026 37.0369 337.918 37.5227 337.918 38.0938ZM351.054 38.7521C351.054 40.3416 350.841 41.8033 350.415 43.1371C349.993 44.4709 349.345 45.7067 348.472 46.8445H345.87C346.202 46.4226 346.511 45.907 346.797 45.2976C347.082 44.6882 347.332 44.0234 347.545 43.3033C347.758 42.5788 347.924 41.8288 348.043 41.0533C348.163 40.2777 348.222 39.5107 348.222 38.7521C348.222 37.7422 348.118 36.7237 347.909 35.6967C347.705 34.6655 347.423 33.7109 347.065 32.8331C346.712 31.951 346.313 31.2287 345.87 30.6662H348.472C349.345 31.804 349.993 33.0398 350.415 34.3736C350.841 35.7074 351.054 37.1669 351.054 38.7521ZM30.771 61.004H36.981V71.048H30.771V61.004ZM35.577 62.192H32.175V69.86H35.577V62.192ZM42.579 59.132H44.019V75.404H42.579V59.132ZM36.225 65.252H39.969V66.494H36.225V65.252ZM39.357 59.474H40.779V74.594H39.357V59.474ZM46.5736 72.056H61.3156V73.298H46.5736V72.056ZM53.1256 68.114H54.6016V72.47H53.1256V68.114ZM53.0896 60.212H54.3856V61.472C54.3856 64.946 51.0556 67.628 47.7796 68.312L47.1496 67.07C50.0116 66.548 53.0896 64.154 53.0896 61.472V60.212ZM53.3596 60.212H54.6556V61.472C54.6556 64.172 57.7516 66.548 60.6136 67.07L59.9656 68.312C56.6896 67.628 53.3596 64.946 53.3596 61.472V60.212ZM64.8062 66.926H75.9842V68.15H64.8062V66.926ZM62.9522 71.966H77.6942V73.208H62.9522V71.966ZM64.8062 60.626H75.8222V61.868H66.3002V67.466H64.8062V60.626ZM86.1573 59.78H87.6333V61.814H95.4993V59.78H96.9933V66.278H86.1573V59.78ZM87.6333 63.002V65.072H95.4993V63.002H87.6333ZM84.1953 68.006H98.9013V69.23H84.1953V68.006ZM90.8193 65.576H92.2953V68.546H90.8193V65.576ZM86.1033 73.82H97.2813V75.044H86.1033V73.82ZM86.1033 70.544H87.5973V74.234H86.1033V70.544ZM100.574 67.448H115.316V68.672H100.574V67.448ZM107.306 68.204H108.8V71.948H107.306V68.204ZM102.464 59.888H113.408V65.612H102.464V59.888ZM111.932 61.094H103.922V64.406H111.932V61.094ZM102.446 73.82H113.678V75.044H102.446V73.82ZM102.446 70.382H103.922V74.252H102.446V70.382Z" fill="black"/>
</svg>
