<svg width="403" height="161" viewBox="0 0 403 161" fill="none" xmlns="http://www.w3.org/2000/svg">
<rect x="219.177" y="7.11621" width="31.0889" height="31.0889" rx="1" transform="rotate(90 219.177 7.11621)" fill="white" stroke="#163575" stroke-width="2"/>
<rect x="219.177" y="42.9111" width="31.0889" height="31.0889" rx="1" transform="rotate(90 219.177 42.9111)" fill="white" stroke="#163575" stroke-width="2"/>
<path d="M208.696 61.9064L208.7 66.2522L204.844 68.1766V63.8327L208.696 61.9064ZM213.324 59.5838V63.9447L210.035 65.5862L210.033 61.2452L213.324 59.5838ZM208.69 56.0896L208.695 60.3898L204.844 62.3033V58.0017L208.69 56.0896ZM213.324 53.786V58.0591L210.032 59.7328L210.029 55.4241L213.324 53.786ZM204.258 53.2804L207.7 55.0178L204.129 56.8111L200.752 55.1151L204.258 53.2804ZM199.47 50.8638L202.753 52.5209L199.239 54.3551L195.867 52.6619L199.47 50.8638ZM208.855 50.889L212.391 52.6619L209.228 54.2502L205.779 52.5105L208.855 50.889ZM204.15 48.5293L207.333 50.1252L204.281 51.7548L201.001 50.1005L204.15 48.5293Z" fill="#4DABCF" fill-opacity="0.5"/>
<path d="M203.483 58.0012L200.885 56.6953V62.3398C200.885 62.3398 197.709 55.5808 197.414 54.9736C197.376 54.8953 197.22 54.8094 197.18 54.7885C196.611 54.4895 194.942 53.644 194.942 53.644V63.6163L197.251 64.8504V59.6379C197.251 59.6379 200.393 65.6773 200.425 65.7433C200.457 65.8093 200.773 66.4459 201.11 66.6694C201.559 66.9666 203.483 68.1239 203.483 68.1239L203.483 58.0012Z" fill="#4D77CF" fill-opacity="0.5"/>
<circle cx="196.045" cy="18.0135" r="1.32358" fill="black" stroke="#163575" stroke-width="2.5"/>
<circle cx="211.486" cy="18.0135" r="1.32358" fill="black" stroke="#163575" stroke-width="2.5"/>
<mask id="path-7-inside-1_1391_1390" fill="white">
<rect x="198.618" y="27.9404" width="10.2943" height="5.88246" rx="2"/>
</mask>
<rect x="198.618" y="27.9404" width="10.2943" height="5.88246" rx="2" fill="#EAB3B3" stroke="#163575" stroke-width="5" mask="url(#path-7-inside-1_1391_1390)"/>
<line x1="219.207" y1="47.2793" x2="231.707" y2="47.2793" stroke="#163575" stroke-width="2.5"/>
<line x1="175.824" y1="47.2793" x2="188.324" y2="47.2793" stroke="#163575" stroke-width="2.5"/>
<mask id="path-10-inside-2_1391_1390" fill="white">
<path d="M237.14 44.5661C236.575 44.0005 235.854 43.6153 235.07 43.4593C234.285 43.3032 233.472 43.3833 232.733 43.6894C231.994 43.9955 231.362 44.5139 230.918 45.1789C230.474 45.844 230.236 46.6259 230.236 47.4258C230.236 48.2256 230.474 49.0076 230.918 49.6726C231.362 50.3377 231.994 50.856 232.733 51.1621C233.472 51.4682 234.285 51.5483 235.07 51.3923C235.854 51.2362 236.575 50.851 237.14 50.2855L234.281 47.4258L237.14 44.5661Z"/>
</mask>
<path d="M237.14 44.5661C236.575 44.0005 235.854 43.6153 235.07 43.4593C234.285 43.3032 233.472 43.3833 232.733 43.6894C231.994 43.9955 231.362 44.5139 230.918 45.1789C230.474 45.844 230.236 46.6259 230.236 47.4258C230.236 48.2256 230.474 49.0076 230.918 49.6726C231.362 50.3377 231.994 50.856 232.733 51.1621C233.472 51.4682 234.285 51.5483 235.07 51.3923C235.854 51.2362 236.575 50.851 237.14 50.2855L234.281 47.4258L237.14 44.5661Z" fill="black" stroke="#163575" stroke-width="5" mask="url(#path-10-inside-2_1391_1390)"/>
<mask id="path-11-inside-3_1391_1390" fill="white">
<path d="M169.86 44.5661C170.425 44.0005 171.146 43.6153 171.93 43.4593C172.715 43.3032 173.528 43.3833 174.267 43.6894C175.006 43.9955 175.638 44.5139 176.082 45.1789C176.526 45.844 176.764 46.6259 176.764 47.4258C176.764 48.2256 176.526 49.0076 176.082 49.6726C175.638 50.3377 175.006 50.856 174.267 51.1621C173.528 51.4682 172.715 51.5483 171.93 51.3923C171.146 51.2362 170.425 50.851 169.86 50.2855L172.719 47.4258L169.86 44.5661Z"/>
</mask>
<path d="M169.86 44.5661C170.425 44.0005 171.146 43.6153 171.93 43.4593C172.715 43.3032 173.528 43.3833 174.267 43.6894C175.006 43.9955 175.638 44.5139 176.082 45.1789C176.526 45.844 176.764 46.6259 176.764 47.4258C176.764 48.2256 176.526 49.0076 176.082 49.6726C175.638 50.3377 175.006 50.856 174.267 51.1621C173.528 51.4682 172.715 51.5483 171.93 51.3923C171.146 51.2362 170.425 50.851 169.86 50.2855L172.719 47.4258L169.86 44.5661Z" fill="black" stroke="#163575" stroke-width="5" mask="url(#path-11-inside-3_1391_1390)"/>
<path d="M400.139 111.173C401.615 112.373 401.615 114.627 400.139 115.827L358.393 149.789C356.433 151.384 353.5 149.989 353.5 147.462L353.5 79.5378C353.5 77.0108 356.433 75.6159 358.393 77.2107L400.139 111.173Z" fill="#EBE9E9"/>
<rect y="89" width="358" height="50" rx="5" fill="#EBE9E9"/>
<path d="M236 83.7528V152C236 155.314 233.314 158 230 158H120C116.686 158 114 155.314 114 152V69C114 65.6863 116.686 63 120 63H158.253C159.877 63 161.431 63.6582 162.562 64.8243L171.555 74.1042C173.816 76.4364 176.925 77.7528 180.172 77.7528H230C233.314 77.7528 236 80.4391 236 83.7528Z" fill="#C6E3EE" stroke="#163575" stroke-width="6"/>
<path d="M126.194 124V104.4H130.45L140.726 118.4L139.802 118.26C139.709 117.644 139.634 117.056 139.578 116.496C139.522 115.936 139.466 115.385 139.41 114.844C139.373 114.303 139.335 113.752 139.298 113.192C139.279 112.632 139.261 112.025 139.242 111.372C139.242 110.719 139.242 110.009 139.242 109.244V104.4H143.862V124H139.55L128.826 109.552L130.254 109.748C130.347 110.644 130.422 111.409 130.478 112.044C130.553 112.66 130.609 113.211 130.646 113.696C130.702 114.181 130.739 114.62 130.758 115.012C130.777 115.404 130.786 115.796 130.786 116.188C130.805 116.561 130.814 116.981 130.814 117.448V124H126.194ZM153.092 124.308C151.991 124.308 151.048 124.075 150.264 123.608C149.499 123.123 148.901 122.432 148.472 121.536C148.061 120.64 147.856 119.567 147.856 118.316V109.132H152.364V117.7C152.364 118.297 152.457 118.811 152.644 119.24C152.831 119.669 153.111 120.005 153.484 120.248C153.857 120.472 154.305 120.584 154.828 120.584C155.22 120.584 155.575 120.519 155.892 120.388C156.228 120.257 156.508 120.08 156.732 119.856C156.975 119.613 157.161 119.343 157.292 119.044C157.423 118.727 157.488 118.381 157.488 118.008V109.132H161.996V124H157.768L157.572 120.948L158.412 120.612C158.188 121.321 157.815 121.956 157.292 122.516C156.769 123.057 156.144 123.496 155.416 123.832C154.688 124.149 153.913 124.308 153.092 124.308ZM165.681 124V109.132H169.937L170.077 111.82L169.489 111.848C169.713 111.363 169.993 110.933 170.329 110.56C170.683 110.187 171.075 109.879 171.505 109.636C171.953 109.375 172.41 109.179 172.877 109.048C173.362 108.917 173.847 108.852 174.333 108.852C175.061 108.852 175.723 108.964 176.321 109.188C176.918 109.412 177.441 109.776 177.889 110.28C178.337 110.765 178.691 111.428 178.953 112.268L178.253 112.212L178.477 111.764C178.719 111.316 179.027 110.915 179.401 110.56C179.793 110.187 180.222 109.879 180.689 109.636C181.155 109.375 181.641 109.179 182.145 109.048C182.649 108.917 183.134 108.852 183.601 108.852C184.777 108.852 185.757 109.085 186.541 109.552C187.325 110 187.913 110.681 188.305 111.596C188.715 112.511 188.921 113.621 188.921 114.928V124H184.413V115.292C184.413 114.695 184.329 114.2 184.161 113.808C183.993 113.416 183.741 113.127 183.405 112.94C183.087 112.735 182.686 112.632 182.201 112.632C181.809 112.632 181.445 112.697 181.109 112.828C180.791 112.959 180.511 113.136 180.269 113.36C180.045 113.584 179.867 113.845 179.737 114.144C179.606 114.443 179.541 114.779 179.541 115.152V124H175.033V115.264C175.033 114.704 174.949 114.228 174.781 113.836C174.613 113.444 174.361 113.145 174.025 112.94C173.689 112.735 173.297 112.632 172.849 112.632C172.457 112.632 172.093 112.697 171.757 112.828C171.439 112.959 171.159 113.136 170.917 113.36C170.693 113.584 170.515 113.845 170.385 114.144C170.254 114.443 170.189 114.769 170.189 115.124V124H165.681ZM192.838 124V104.4H201.294C202.526 104.4 203.618 104.68 204.57 105.24C205.541 105.8 206.306 106.565 206.866 107.536C207.445 108.507 207.734 109.599 207.734 110.812C207.734 112.081 207.445 113.22 206.866 114.228C206.306 115.217 205.541 116.001 204.57 116.58C203.618 117.159 202.526 117.448 201.294 117.448H197.598V124H192.838ZM197.514 113.276H200.622C201.033 113.276 201.406 113.173 201.742 112.968C202.078 112.763 202.349 112.483 202.554 112.128C202.76 111.773 202.862 111.363 202.862 110.896C202.862 110.411 202.76 110 202.554 109.664C202.349 109.328 202.078 109.067 201.742 108.88C201.406 108.693 201.033 108.6 200.622 108.6H197.514V113.276ZM212.771 130.44L216.159 122.46L216.215 124.756L209.047 109.132H214.115L217.251 116.608C217.419 116.981 217.577 117.383 217.727 117.812C217.876 118.241 217.988 118.652 218.063 119.044L217.447 119.408C217.559 119.128 217.68 118.783 217.811 118.372C217.96 117.943 218.119 117.485 218.287 117L221.031 109.132H226.127L219.799 124L217.223 130.44H212.771Z" fill="#2953AA"/>
<path d="M335.013 122V107.132H339.269L339.409 110.156L338.513 110.492C338.718 109.82 339.082 109.213 339.605 108.672C340.146 108.112 340.79 107.664 341.537 107.328C342.283 106.992 343.067 106.824 343.889 106.824C345.009 106.824 345.951 107.057 346.717 107.524C347.482 107.972 348.061 108.653 348.453 109.568C348.845 110.464 349.041 111.565 349.041 112.872V122H344.533V113.236C344.533 112.639 344.449 112.144 344.281 111.752C344.113 111.36 343.851 111.071 343.497 110.884C343.161 110.679 342.741 110.585 342.237 110.604C341.845 110.604 341.481 110.669 341.145 110.8C340.809 110.912 340.519 111.089 340.277 111.332C340.034 111.556 339.838 111.817 339.689 112.116C339.558 112.415 339.493 112.741 339.493 113.096V122H337.281C336.758 122 336.31 122 335.937 122C335.563 122 335.255 122 335.013 122ZM352.506 128.16V107.132H356.762L356.93 110.464L356.09 110.212C356.221 109.596 356.538 109.036 357.042 108.532C357.546 108.028 358.181 107.627 358.946 107.328C359.73 107.011 360.552 106.852 361.41 106.852C362.68 106.852 363.809 107.188 364.798 107.86C365.788 108.513 366.562 109.419 367.122 110.576C367.701 111.715 367.99 113.04 367.99 114.552C367.99 116.045 367.701 117.371 367.122 118.528C366.562 119.685 365.778 120.6 364.77 121.272C363.781 121.925 362.642 122.252 361.354 122.252C360.514 122.252 359.712 122.093 358.946 121.776C358.181 121.459 357.537 121.029 357.014 120.488C356.492 119.947 356.146 119.359 355.978 118.724L357.014 118.332V128.16H352.506ZM360.262 118.472C360.934 118.472 361.522 118.313 362.026 117.996C362.53 117.66 362.922 117.203 363.202 116.624C363.482 116.045 363.622 115.355 363.622 114.552C363.622 113.768 363.482 113.087 363.202 112.508C362.922 111.911 362.53 111.453 362.026 111.136C361.541 110.8 360.953 110.632 360.262 110.632C359.572 110.632 358.974 110.791 358.47 111.108C357.966 111.425 357.574 111.883 357.294 112.48C357.014 113.077 356.874 113.768 356.874 114.552C356.874 115.355 357.014 116.045 357.294 116.624C357.574 117.203 357.966 117.66 358.47 117.996C358.974 118.313 359.572 118.472 360.262 118.472Z" fill="#2953AA"/>
<path d="M19.5294 110.294H20.2941V111.059H19.5294V110.294ZM19.5294 111.059H20.2941V111.824H19.5294V111.059ZM19.5294 111.824H20.2941V112.588H19.5294V111.824ZM19.5294 112.588H20.2941V113.353H19.5294V112.588ZM19.5294 113.353H20.2941V114.118H19.5294V113.353ZM18.7647 113.353H19.5294V114.118H18.7647V113.353ZM18.7647 112.588H19.5294V113.353H18.7647V112.588ZM18.7647 111.824H19.5294V112.588H18.7647V111.824ZM18.7647 111.059H19.5294V111.824H18.7647V111.059ZM18.7647 110.294H19.5294V111.059H18.7647V110.294ZM18.7647 117.941H19.5294V118.706H18.7647V117.941ZM18.7647 117.176H19.5294V117.941H18.7647V117.176ZM18.7647 116.412H19.5294V117.176H18.7647V116.412ZM18.7647 115.647H19.5294V116.412H18.7647V115.647ZM19.5294 114.882H20.2941V115.647H19.5294V114.882ZM19.5294 114.118H20.2941V114.882H19.5294V114.118ZM18.7647 114.118H19.5294V114.882H18.7647V114.118ZM18.7647 114.882H19.5294V115.647H18.7647V114.882ZM18.7647 118.706H19.5294V119.471H18.7647V118.706ZM18.7647 119.471H19.5294V120.235H18.7647V119.471ZM18.7647 120.235H19.5294V121H18.7647V120.235ZM21.0588 110.294H21.8235V111.059H21.0588V110.294ZM21.0588 111.059H21.8235V111.824H21.0588V111.059ZM21.0588 111.824H21.8235V112.588H21.0588V111.824ZM21.0588 112.588H21.8235V113.353H21.0588V112.588ZM21.0588 113.353H21.8235V114.118H21.0588V113.353ZM21.0588 114.118H21.8235V114.882H21.0588V114.118ZM21.0588 114.882H21.8235V115.647H21.0588V114.882ZM21.0588 115.647H21.8235V116.412H21.0588V115.647ZM21.0588 116.412H21.8235V117.176H21.0588V116.412ZM21.0588 117.176H21.8235V117.941H21.0588V117.176ZM21.0588 117.941H21.8235V118.706H21.0588V117.941ZM21.0588 118.706H21.8235V119.471H21.0588V118.706ZM21.0588 119.471H21.8235V120.235H21.0588V119.471ZM21.0588 120.235H21.8235V121H21.0588V120.235ZM20.2941 120.235H21.0588V121H20.2941V120.235ZM19.5294 120.235H20.2941V121H19.5294V120.235ZM19.5294 119.471H20.2941V120.235H19.5294V119.471ZM20.2941 119.471H21.0588V120.235H20.2941V119.471ZM20.2941 118.706H21.0588V119.471H20.2941V118.706ZM19.5294 117.941H20.2941V118.706H19.5294V117.941ZM19.5294 117.176H20.2941V117.941H19.5294V117.176ZM19.5294 116.412H20.2941V117.176H19.5294V116.412ZM20.2941 116.412H21.0588V117.176H20.2941V116.412ZM20.2941 117.176H21.0588V117.941H20.2941V117.176ZM20.2941 117.941H21.0588V118.706H20.2941V117.941ZM19.5294 118.706H20.2941V119.471H19.5294V118.706ZM20.2941 115.647H21.0588V116.412H20.2941V115.647ZM20.2941 114.882H21.0588V115.647H20.2941V114.882ZM20.2941 114.118H21.0588V114.882H20.2941V114.118ZM19.5294 115.647H20.2941V116.412H19.5294V115.647ZM20.2941 113.353H21.0588V114.118H20.2941V113.353ZM20.2941 112.588H21.0588V113.353H20.2941V112.588ZM20.2941 111.824H21.0588V112.588H20.2941V111.824ZM20.2941 111.059H21.0588V111.824H20.2941V111.059ZM20.2941 110.294H21.0588V111.059H20.2941V110.294ZM21.0588 105.706H21.8235V106.471H21.0588V105.706ZM20.2941 106.471H21.0588V107.235H20.2941V106.471ZM20.2941 104.941H21.0588V105.706H20.2941V104.941ZM19.5294 105.706H20.2941V106.471H19.5294V105.706ZM20.2941 105.706H21.0588V106.471H20.2941V105.706ZM19.5294 104.941H20.2941V105.706H19.5294V104.941ZM19.5294 106.471H20.2941V107.235H19.5294V106.471ZM21.0588 106.471H21.8235V107.235H21.0588V106.471ZM18.7647 105.706H19.5294V106.471H18.7647V105.706ZM18.7647 106.471H19.5294V107.235H18.7647V106.471ZM19.5294 107.235H20.2941V108H19.5294V107.235ZM20.2941 107.235H21.0588V108H20.2941V107.235ZM18.7647 104.941H19.5294V105.706H18.7647V104.941ZM21.0588 104.941H21.8235V105.706H21.0588V104.941ZM21.0588 107.235H21.8235V108H21.0588V107.235ZM18.7647 107.235H19.5294V108H18.7647V107.235ZM24.1221 109.529H24.8868V110.294H24.1221V109.529ZM24.8868 109.529H25.6515V110.294H24.8868V109.529ZM25.6515 109.529H26.4162V110.294H25.6515V109.529ZM24.1221 111.059H24.8868V111.824H24.1221V111.059ZM24.1221 110.294H24.8868V111.059H24.1221V110.294ZM25.6515 120.235H26.4162V121H25.6515V120.235ZM24.8868 120.235H25.6515V121H24.8868V120.235ZM24.1221 119.471H24.8868V120.235H24.1221V119.471ZM24.1221 118.706H24.8868V119.471H24.1221V118.706ZM24.1221 120.235H24.8868V121H24.1221V120.235ZM27.9457 109.529H28.7104V110.294H27.9457V109.529ZM26.4162 109.529H27.181V110.294H26.4162V109.529ZM29.4751 109.529H30.2398V110.294H29.4751V109.529ZM30.2398 110.294H31.0045V111.059H30.2398V110.294ZM29.4751 110.294H30.2398V111.059H29.4751V110.294ZM29.4751 111.059H30.2398V111.824H29.4751V111.059ZM31.0045 111.059H31.7692V111.824H31.0045V111.059ZM30.2398 111.059H31.0045V111.824H30.2398V111.059ZM29.4751 111.824H30.2398V112.588H29.4751V111.824ZM28.7104 111.824H29.4751V112.588H28.7104V111.824ZM30.2398 111.824H31.0045V112.588H30.2398V111.824ZM31.0045 111.824H31.7692V112.588H31.0045V111.824ZM31.7692 112.588H32.5339V113.353H31.7692V112.588ZM31.7692 113.353H32.5339V114.118H31.7692V113.353ZM31.7692 114.118H32.5339V114.882H31.7692V114.118ZM31.7692 114.882H32.5339V115.647H31.7692V114.882ZM31.7692 115.647H32.5339V116.412H31.7692V115.647ZM31.7692 116.412H32.5339V117.176H31.7692V116.412ZM31.7692 117.176H32.5339V117.941H31.7692V117.176ZM31.7692 117.941H32.5339V118.706H31.7692V117.941ZM31.0045 117.941H31.7692V118.706H31.0045V117.941ZM31.0045 118.706H31.7692V119.471H31.0045V118.706ZM31.0045 119.471H31.7692V120.235H31.0045V119.471ZM30.2398 119.471H31.0045V120.235H30.2398V119.471ZM29.4751 119.471H30.2398V120.235H29.4751V119.471ZM29.4751 117.941H30.2398V118.706H29.4751V117.941ZM29.4751 118.706H30.2398V119.471H29.4751V118.706ZM30.2398 118.706H31.0045V119.471H30.2398V118.706ZM30.2398 117.941H31.0045V118.706H30.2398V117.941ZM30.2398 117.176H31.0045V117.941H30.2398V117.176ZM29.4751 117.176H30.2398V117.941H29.4751V117.176ZM29.4751 116.412H30.2398V117.176H29.4751V116.412ZM29.4751 115.647H30.2398V116.412H29.4751V115.647ZM29.4751 114.882H30.2398V115.647H29.4751V114.882ZM29.4751 114.118H30.2398V114.882H29.4751V114.118ZM29.4751 113.353H30.2398V114.118H29.4751V113.353ZM29.4751 112.588H30.2398V113.353H29.4751V112.588ZM30.2398 112.588H31.0045V113.353H30.2398V112.588ZM30.2398 113.353H31.0045V114.118H30.2398V113.353ZM30.2398 114.118H31.0045V114.882H30.2398V114.118ZM30.2398 114.882H31.0045V115.647H30.2398V114.882ZM30.2398 115.647H31.0045V116.412H30.2398V115.647ZM30.2398 116.412H31.0045V117.176H30.2398V116.412ZM31.0045 117.176H31.7692V117.941H31.0045V117.176ZM31.0045 116.412H31.7692V117.176H31.0045V116.412ZM31.0045 115.647H31.7692V116.412H31.0045V115.647ZM31.0045 114.882H31.7692V115.647H31.0045V114.882ZM31.0045 114.118H31.7692V114.882H31.0045V114.118ZM31.0045 113.353H31.7692V114.118H31.0045V113.353ZM31.0045 112.588H31.7692V113.353H31.0045V112.588ZM29.4751 120.235H30.2398V121H29.4751V120.235ZM26.4162 120.235H27.181V121H26.4162V120.235ZM26.4162 119.471H27.181V120.235H26.4162V119.471ZM25.6515 119.471H26.4162V120.235H25.6515V119.471ZM24.8868 119.471H25.6515V120.235H24.8868V119.471ZM24.8868 113.353H25.6515V114.118H24.8868V113.353ZM24.8868 112.588H25.6515V113.353H24.8868V112.588ZM24.1221 111.824H24.8868V112.588H24.1221V111.824ZM24.8868 111.059H25.6515V111.824H24.8868V111.059ZM25.6515 110.294H26.4162V111.059H25.6515V110.294ZM26.4162 110.294H27.181V111.059H26.4162V110.294ZM27.181 110.294H27.9457V111.059H27.181V110.294ZM27.181 111.059H27.9457V111.824H27.181V111.059ZM27.181 111.824H27.9457V112.588H27.181V111.824ZM26.4162 111.824H27.181V112.588H26.4162V111.824ZM25.6515 111.824H26.4162V112.588H25.6515V111.824ZM26.4162 112.588H27.181V113.353H26.4162V112.588ZM26.4162 113.353H27.181V114.118H26.4162V113.353ZM26.4162 114.118H27.181V114.882H26.4162V114.118ZM26.4162 118.706H27.181V119.471H26.4162V118.706ZM25.6515 118.706H26.4162V119.471H25.6515V118.706ZM25.6515 113.353H26.4162V114.118H25.6515V113.353ZM25.6515 112.588H26.4162V113.353H25.6515V112.588ZM25.6515 111.059H26.4162V111.824H25.6515V111.059ZM26.4162 111.059H27.181V111.824H26.4162V111.059ZM27.9457 110.294H28.7104V111.059H27.9457V110.294ZM28.7104 110.294H29.4751V111.059H28.7104V110.294ZM28.7104 111.059H29.4751V111.824H28.7104V111.059ZM27.9457 111.059H28.7104V111.824H27.9457V111.059ZM24.8868 110.294H25.6515V111.059H24.8868V110.294ZM24.8868 118.706H25.6515V119.471H24.8868V118.706ZM24.8868 111.824H25.6515V112.588H24.8868V111.824ZM24.1221 112.588H24.8868V113.353H24.1221V112.588ZM24.1221 113.353H24.8868V114.118H24.1221V113.353ZM24.1221 117.941H24.8868V118.706H24.1221V117.941ZM24.8868 117.941H25.6515V118.706H24.8868V117.941ZM25.6515 117.941H26.4162V118.706H25.6515V117.941ZM26.4162 117.941H27.181V118.706H26.4162V117.941ZM25.6515 114.118H26.4162V114.882H25.6515V114.118ZM24.8868 114.118H25.6515V114.882H24.8868V114.118ZM24.1221 114.118H24.8868V114.882H24.1221V114.118ZM24.1221 114.882H24.8868V115.647H24.1221V114.882ZM24.1221 115.647H24.8868V116.412H24.1221V115.647ZM24.1221 116.412H24.8868V117.176H24.1221V116.412ZM24.8868 116.412H25.6515V117.176H24.8868V116.412ZM24.8868 117.176H25.6515V117.941H24.8868V117.176ZM25.6515 117.176H26.4162V117.941H25.6515V117.176ZM24.1221 117.176H24.8868V117.941H24.1221V117.176ZM26.4162 117.176H27.181V117.941H26.4162V117.176ZM26.4162 116.412H27.181V117.176H26.4162V116.412ZM26.4162 115.647H27.181V116.412H26.4162V115.647ZM26.4162 114.882H27.181V115.647H26.4162V114.882ZM25.6515 114.882H26.4162V115.647H25.6515V114.882ZM24.8868 114.882H25.6515V115.647H24.8868V114.882ZM24.8868 115.647H25.6515V116.412H24.8868V115.647ZM25.6515 116.412H26.4162V117.176H25.6515V116.412ZM25.6515 115.647H26.4162V116.412H25.6515V115.647ZM30.2398 120.235H31.0045V121H30.2398V120.235ZM31.0045 120.235H31.7692V121H31.0045V120.235ZM31.7692 120.235H32.5339V121H31.7692V120.235ZM31.7692 119.471H32.5339V120.235H31.7692V119.471ZM31.7692 118.706H32.5339V119.471H31.7692V118.706ZM32.5339 109.529H33.2986V110.294H32.5339V109.529ZM33.2986 109.529H34.0633V110.294H33.2986V109.529ZM34.0633 109.529H34.828V110.294H34.0633V109.529ZM34.828 109.529H35.5927V110.294H34.828V109.529ZM35.5927 110.294H36.3574V111.059H35.5927V110.294ZM34.828 110.294H35.5927V111.059H34.828V110.294ZM34.828 111.059H35.5927V111.824H34.828V111.059ZM36.3574 110.294H37.1221V111.059H36.3574V110.294ZM36.3574 111.059H37.1221V111.824H36.3574V111.059ZM35.5927 111.059H36.3574V111.824H35.5927V111.059ZM34.828 111.824H35.5927V112.588H34.828V111.824ZM34.0633 111.824H34.828V112.588H34.0633V111.824ZM35.5927 111.824H36.3574V112.588H35.5927V111.824ZM36.3574 111.824H37.1221V112.588H36.3574V111.824ZM37.1221 111.824H37.8868V112.588H37.1221V111.824ZM37.1221 112.588H37.8868V113.353H37.1221V112.588ZM37.1221 113.353H37.8868V114.118H37.1221V113.353ZM37.1221 114.118H37.8868V114.882H37.1221V114.118ZM37.1221 114.882H37.8868V115.647H37.1221V114.882ZM37.1221 115.647H37.8868V116.412H37.1221V115.647ZM37.1221 116.412H37.8868V117.176H37.1221V116.412ZM37.1221 117.176H37.8868V117.941H37.1221V117.176ZM37.1221 117.941H37.8868V118.706H37.1221V117.941ZM36.3574 117.941H37.1221V118.706H36.3574V117.941ZM36.3574 118.706H37.1221V119.471H36.3574V118.706ZM36.3574 119.471H37.1221V120.235H36.3574V119.471ZM35.5927 119.471H36.3574V120.235H35.5927V119.471ZM34.828 119.471H35.5927V120.235H34.828V119.471ZM34.828 117.941H35.5927V118.706H34.828V117.941ZM34.828 118.706H35.5927V119.471H34.828V118.706ZM35.5927 118.706H36.3574V119.471H35.5927V118.706ZM35.5927 117.941H36.3574V118.706H35.5927V117.941ZM35.5927 117.176H36.3574V117.941H35.5927V117.176ZM34.828 117.176H35.5927V117.941H34.828V117.176ZM34.828 116.412H35.5927V117.176H34.828V116.412ZM34.828 115.647H35.5927V116.412H34.828V115.647ZM34.828 114.882H35.5927V115.647H34.828V114.882ZM34.828 114.118H35.5927V114.882H34.828V114.118ZM34.828 113.353H35.5927V114.118H34.828V113.353ZM34.828 112.588H35.5927V113.353H34.828V112.588ZM35.5927 112.588H36.3574V113.353H35.5927V112.588ZM35.5927 113.353H36.3574V114.118H35.5927V113.353ZM35.5927 114.118H36.3574V114.882H35.5927V114.118ZM35.5927 114.882H36.3574V115.647H35.5927V114.882ZM35.5927 115.647H36.3574V116.412H35.5927V115.647ZM35.5927 116.412H36.3574V117.176H35.5927V116.412ZM36.3574 117.176H37.1221V117.941H36.3574V117.176ZM36.3574 116.412H37.1221V117.176H36.3574V116.412ZM36.3574 115.647H37.1221V116.412H36.3574V115.647ZM36.3574 114.882H37.1221V115.647H36.3574V114.882ZM36.3574 114.118H37.1221V114.882H36.3574V114.118ZM36.3574 113.353H37.1221V114.118H36.3574V113.353ZM36.3574 112.588H37.1221V113.353H36.3574V112.588ZM34.828 120.235H35.5927V121H34.828V120.235ZM31.7692 110.294H32.5339V111.059H31.7692V110.294ZM31.7692 111.059H32.5339V111.824H31.7692V111.059ZM31.7692 111.824H32.5339V112.588H31.7692V111.824ZM32.5339 110.294H33.2986V111.059H32.5339V110.294ZM33.2986 110.294H34.0633V111.059H33.2986V110.294ZM34.0633 110.294H34.828V111.059H34.0633V110.294ZM34.0633 111.059H34.828V111.824H34.0633V111.059ZM33.2986 111.059H34.0633V111.824H33.2986V111.059ZM32.5339 111.059H33.2986V111.824H32.5339V111.059ZM35.5927 120.235H36.3574V121H35.5927V120.235ZM36.3574 120.235H37.1221V121H36.3574V120.235ZM37.1221 120.235H37.8868V121H37.1221V120.235ZM37.1221 119.471H37.8868V120.235H37.1221V119.471ZM37.1221 118.706H37.8868V119.471H37.1221V118.706ZM28.7104 109.529H29.4751V110.294H28.7104V109.529ZM32.5339 111.824H33.2986V112.588H32.5339V111.824ZM40.169 109.529H40.9337V110.294H40.169V109.529ZM40.9337 109.529H41.6984V110.294H40.9337V109.529ZM41.6984 109.529H42.4631V110.294H41.6984V109.529ZM40.169 111.059H40.9337V111.824H40.169V111.059ZM40.169 110.294H40.9337V111.059H40.169V110.294ZM41.6984 120.235H42.4631V121H41.6984V120.235ZM40.9337 120.235H41.6984V121H40.9337V120.235ZM40.169 119.471H40.9337V120.235H40.169V119.471ZM40.169 118.706H40.9337V119.471H40.169V118.706ZM40.169 120.235H40.9337V121H40.169V120.235ZM43.9925 109.529H44.7572V110.294H43.9925V109.529ZM42.4631 109.529H43.2278V110.294H42.4631V109.529ZM44.7572 109.529H45.5219V110.294H44.7572V109.529ZM45.5219 109.529H46.2866V110.294H45.5219V109.529ZM46.2866 109.529H47.0514V110.294H46.2866V109.529ZM47.0514 109.529H47.8161V110.294H47.0514V109.529ZM47.8161 110.294H48.5808V111.059H47.8161V110.294ZM47.0514 110.294H47.8161V111.059H47.0514V110.294ZM47.0514 111.059H47.8161V111.824H47.0514V111.059ZM48.5808 110.294H49.3455V111.059H48.5808V110.294ZM48.5808 111.059H49.3455V111.824H48.5808V111.059ZM47.8161 111.059H48.5808V111.824H47.8161V111.059ZM47.0514 111.824H47.8161V112.588H47.0514V111.824ZM46.2866 111.824H47.0514V112.588H46.2866V111.824ZM47.8161 111.824H48.5808V112.588H47.8161V111.824ZM48.5808 111.824H49.3455V112.588H48.5808V111.824ZM49.3455 111.824H50.1102V112.588H49.3455V111.824ZM49.3455 112.588H50.1102V113.353H49.3455V112.588ZM49.3455 113.353H50.1102V114.118H49.3455V113.353ZM49.3455 114.118H50.1102V114.882H49.3455V114.118ZM49.3455 114.882H50.1102V115.647H49.3455V114.882ZM49.3455 115.647H50.1102V116.412H49.3455V115.647ZM49.3455 116.412H50.1102V117.176H49.3455V116.412ZM49.3455 117.176H50.1102V117.941H49.3455V117.176ZM49.3455 117.941H50.1102V118.706H49.3455V117.941ZM48.5808 117.941H49.3455V118.706H48.5808V117.941ZM48.5808 118.706H49.3455V119.471H48.5808V118.706ZM48.5808 119.471H49.3455V120.235H48.5808V119.471ZM47.8161 119.471H48.5808V120.235H47.8161V119.471ZM47.0514 119.471H47.8161V120.235H47.0514V119.471ZM46.2866 118.706H47.0514V119.471H46.2866V118.706ZM46.2866 117.941H47.0514V118.706H46.2866V117.941ZM47.0514 117.941H47.8161V118.706H47.0514V117.941ZM47.0514 118.706H47.8161V119.471H47.0514V118.706ZM47.8161 118.706H48.5808V119.471H47.8161V118.706ZM47.8161 117.941H48.5808V118.706H47.8161V117.941ZM47.8161 117.176H48.5808V117.941H47.8161V117.176ZM47.0514 117.176H47.8161V117.941H47.0514V117.176ZM47.0514 116.412H47.8161V117.176H47.0514V116.412ZM47.0514 115.647H47.8161V116.412H47.0514V115.647ZM47.0514 114.882H47.8161V115.647H47.0514V114.882ZM47.0514 114.118H47.8161V114.882H47.0514V114.118ZM47.0514 113.353H47.8161V114.118H47.0514V113.353ZM47.0514 112.588H47.8161V113.353H47.0514V112.588ZM47.8161 112.588H48.5808V113.353H47.8161V112.588ZM47.8161 113.353H48.5808V114.118H47.8161V113.353ZM47.8161 114.118H48.5808V114.882H47.8161V114.118ZM47.8161 114.882H48.5808V115.647H47.8161V114.882ZM47.8161 115.647H48.5808V116.412H47.8161V115.647ZM47.8161 116.412H48.5808V117.176H47.8161V116.412ZM48.5808 117.176H49.3455V117.941H48.5808V117.176ZM48.5808 116.412H49.3455V117.176H48.5808V116.412ZM48.5808 115.647H49.3455V116.412H48.5808V115.647ZM48.5808 114.882H49.3455V115.647H48.5808V114.882ZM48.5808 114.118H49.3455V114.882H48.5808V114.118ZM48.5808 113.353H49.3455V114.118H48.5808V113.353ZM48.5808 112.588H49.3455V113.353H48.5808V112.588ZM46.2866 119.471H47.0514V120.235H46.2866V119.471ZM46.2866 120.235H47.0514V121H46.2866V120.235ZM47.0514 120.235H47.8161V121H47.0514V120.235ZM45.5219 120.235H46.2866V121H45.5219V120.235ZM44.7572 120.235H45.5219V121H44.7572V120.235ZM43.9925 120.235H44.7572V121H43.9925V120.235ZM43.2278 120.235H43.9925V121H43.2278V120.235ZM42.4631 120.235H43.2278V121H42.4631V120.235ZM42.4631 119.471H43.2278V120.235H42.4631V119.471ZM41.6984 119.471H42.4631V120.235H41.6984V119.471ZM40.9337 119.471H41.6984V120.235H40.9337V119.471ZM40.9337 113.353H41.6984V114.118H40.9337V113.353ZM40.9337 112.588H41.6984V113.353H40.9337V112.588ZM40.169 111.824H40.9337V112.588H40.169V111.824ZM40.9337 111.059H41.6984V111.824H40.9337V111.059ZM41.6984 110.294H42.4631V111.059H41.6984V110.294ZM42.4631 110.294H43.2278V111.059H42.4631V110.294ZM43.2278 110.294H43.9925V111.059H43.2278V110.294ZM43.2278 111.059H43.9925V111.824H43.2278V111.059ZM43.2278 111.824H43.9925V112.588H43.2278V111.824ZM42.4631 111.824H43.2278V112.588H42.4631V111.824ZM41.6984 111.824H42.4631V112.588H41.6984V111.824ZM42.4631 112.588H43.2278V113.353H42.4631V112.588ZM42.4631 113.353H43.2278V114.118H42.4631V113.353ZM42.4631 114.118H43.2278V114.882H42.4631V114.118ZM43.2278 118.706H43.9925V119.471H43.2278V118.706ZM43.9925 118.706H44.7572V119.471H43.9925V118.706ZM44.7572 118.706H45.5219V119.471H44.7572V118.706ZM45.5219 118.706H46.2866V119.471H45.5219V118.706ZM45.5219 119.471H46.2866V120.235H45.5219V119.471ZM44.7572 119.471H45.5219V120.235H44.7572V119.471ZM43.9925 119.471H44.7572V120.235H43.9925V119.471ZM43.2278 119.471H43.9925V120.235H43.2278V119.471ZM42.4631 118.706H43.2278V119.471H42.4631V118.706ZM41.6984 118.706H42.4631V119.471H41.6984V118.706ZM41.6984 113.353H42.4631V114.118H41.6984V113.353ZM41.6984 112.588H42.4631V113.353H41.6984V112.588ZM41.6984 111.059H42.4631V111.824H41.6984V111.059ZM42.4631 111.059H43.2278V111.824H42.4631V111.059ZM43.9925 110.294H44.7572V111.059H43.9925V110.294ZM44.7572 110.294H45.5219V111.059H44.7572V110.294ZM45.5219 110.294H46.2866V111.059H45.5219V110.294ZM46.2866 110.294H47.0514V111.059H46.2866V110.294ZM46.2866 111.059H47.0514V111.824H46.2866V111.059ZM45.5219 111.059H46.2866V111.824H45.5219V111.059ZM44.7572 111.059H45.5219V111.824H44.7572V111.059ZM43.9925 111.059H44.7572V111.824H43.9925V111.059ZM40.9337 110.294H41.6984V111.059H40.9337V110.294ZM40.9337 118.706H41.6984V119.471H40.9337V118.706ZM40.9337 111.824H41.6984V112.588H40.9337V111.824ZM40.169 112.588H40.9337V113.353H40.169V112.588ZM40.169 113.353H40.9337V114.118H40.169V113.353ZM40.169 117.941H40.9337V118.706H40.169V117.941ZM40.9337 117.941H41.6984V118.706H40.9337V117.941ZM41.6984 117.941H42.4631V118.706H41.6984V117.941ZM42.4631 117.941H43.2278V118.706H42.4631V117.941ZM41.6984 114.118H42.4631V114.882H41.6984V114.118ZM40.9337 114.118H41.6984V114.882H40.9337V114.118ZM40.169 114.118H40.9337V114.882H40.169V114.118ZM40.169 114.882H40.9337V115.647H40.169V114.882ZM40.169 115.647H40.9337V116.412H40.169V115.647ZM40.169 116.412H40.9337V117.176H40.169V116.412ZM40.9337 116.412H41.6984V117.176H40.9337V116.412ZM40.9337 117.176H41.6984V117.941H40.9337V117.176ZM41.6984 117.176H42.4631V117.941H41.6984V117.176ZM40.169 117.176H40.9337V117.941H40.169V117.176ZM42.4631 117.176H43.2278V117.941H42.4631V117.176ZM42.4631 116.412H43.2278V117.176H42.4631V116.412ZM42.4631 115.647H43.2278V116.412H42.4631V115.647ZM42.4631 114.882H43.2278V115.647H42.4631V114.882ZM41.6984 114.882H42.4631V115.647H41.6984V114.882ZM40.9337 114.882H41.6984V115.647H40.9337V114.882ZM40.9337 115.647H41.6984V116.412H40.9337V115.647ZM41.6984 116.412H42.4631V117.176H41.6984V116.412ZM41.6984 115.647H42.4631V116.412H41.6984V115.647ZM40.169 121H40.9337V121.765H40.169V121ZM40.9337 121H41.6984V121.765H40.9337V121ZM41.6984 121H42.4631V121.765H41.6984V121ZM42.4631 121H43.2278V121.765H42.4631V121ZM42.4631 121.765H43.2278V122.529H42.4631V121.765ZM42.4631 122.529H43.2278V123.294H42.4631V122.529ZM41.6984 122.529H42.4631V123.294H41.6984V122.529ZM40.9337 122.529H41.6984V123.294H40.9337V122.529ZM40.9337 121.765H41.6984V122.529H40.9337V121.765ZM40.169 121.765H40.9337V122.529H40.169V121.765ZM41.6984 121.765H42.4631V122.529H41.6984V121.765ZM40.169 122.529H40.9337V123.294H40.169V122.529ZM40.169 123.294H40.9337V124.059H40.169V123.294ZM40.9337 123.294H41.6984V124.059H40.9337V123.294ZM41.6984 123.294H42.4631V124.059H41.6984V123.294ZM42.4631 123.294H43.2278V124.059H42.4631V123.294ZM42.4631 124.059H43.2278V124.824H42.4631V124.059ZM41.6984 124.059H42.4631V124.824H41.6984V124.059ZM40.9337 124.059H41.6984V124.824H40.9337V124.059ZM40.169 124.059H40.9337V124.824H40.169V124.059ZM55.4661 109.529H56.2308V110.294H55.4661V109.529ZM56.2308 109.529H56.9955V110.294H56.2308V109.529ZM54.7014 109.529H55.4661V110.294H54.7014V109.529ZM56.9955 109.529H57.7602V110.294H56.9955V109.529ZM57.7602 109.529H58.5249V110.294H57.7602V109.529ZM58.5249 109.529H59.2896V110.294H58.5249V109.529ZM59.2896 109.529H60.0543V110.294H59.2896V109.529ZM60.0543 110.294H60.819V111.059H60.0543V110.294ZM59.2896 110.294H60.0543V111.059H59.2896V110.294ZM59.2896 111.059H60.0543V111.824H59.2896V111.059ZM60.819 110.294H61.5838V111.059H60.819V110.294ZM60.819 111.059H61.5838V111.824H60.819V111.059ZM60.0543 111.059H60.819V111.824H60.0543V111.059ZM59.2896 111.824H60.0543V112.588H59.2896V111.824ZM58.5249 111.824H59.2896V112.588H58.5249V111.824ZM60.0543 111.824H60.819V112.588H60.0543V111.824ZM60.819 111.824H61.5838V112.588H60.819V111.824ZM61.5838 111.824H62.3485V112.588H61.5838V111.824ZM61.5838 112.588H62.3485V113.353H61.5838V112.588ZM61.5838 113.353H62.3485V114.118H61.5838V113.353ZM61.5838 114.118H62.3485V114.882H61.5838V114.118ZM61.5838 114.882H62.3485V115.647H61.5838V114.882ZM61.5838 115.647H62.3485V116.412H61.5838V115.647ZM61.5838 116.412H62.3485V117.176H61.5838V116.412ZM61.5838 117.176H62.3485V117.941H61.5838V117.176ZM61.5838 117.941H62.3485V118.706H61.5838V117.941ZM60.819 117.941H61.5838V118.706H60.819V117.941ZM60.819 118.706H61.5838V119.471H60.819V118.706ZM60.819 119.471H61.5838V120.235H60.819V119.471ZM60.0543 119.471H60.819V120.235H60.0543V119.471ZM59.2896 119.471H60.0543V120.235H59.2896V119.471ZM58.5249 118.706H59.2896V119.471H58.5249V118.706ZM58.5249 117.941H59.2896V118.706H58.5249V117.941ZM59.2896 117.941H60.0543V118.706H59.2896V117.941ZM59.2896 118.706H60.0543V119.471H59.2896V118.706ZM60.0543 118.706H60.819V119.471H60.0543V118.706ZM60.0543 117.941H60.819V118.706H60.0543V117.941ZM60.0543 117.176H60.819V117.941H60.0543V117.176ZM59.2896 117.176H60.0543V117.941H59.2896V117.176ZM59.2896 116.412H60.0543V117.176H59.2896V116.412ZM59.2896 115.647H60.0543V116.412H59.2896V115.647ZM59.2896 114.882H60.0543V115.647H59.2896V114.882ZM59.2896 114.118H60.0543V114.882H59.2896V114.118ZM59.2896 113.353H60.0543V114.118H59.2896V113.353ZM59.2896 112.588H60.0543V113.353H59.2896V112.588ZM60.0543 112.588H60.819V113.353H60.0543V112.588ZM60.0543 113.353H60.819V114.118H60.0543V113.353ZM60.0543 114.118H60.819V114.882H60.0543V114.118ZM60.0543 114.882H60.819V115.647H60.0543V114.882ZM60.0543 115.647H60.819V116.412H60.0543V115.647ZM60.0543 116.412H60.819V117.176H60.0543V116.412ZM60.819 117.176H61.5838V117.941H60.819V117.176ZM60.819 116.412H61.5838V117.176H60.819V116.412ZM60.819 115.647H61.5838V116.412H60.819V115.647ZM60.819 114.882H61.5838V115.647H60.819V114.882ZM60.819 114.118H61.5838V114.882H60.819V114.118ZM60.819 113.353H61.5838V114.118H60.819V113.353ZM60.819 112.588H61.5838V113.353H60.819V112.588ZM58.5249 119.471H59.2896V120.235H58.5249V119.471ZM58.5249 120.235H59.2896V121H58.5249V120.235ZM59.2896 120.235H60.0543V121H59.2896V120.235ZM57.7602 120.235H58.5249V121H57.7602V120.235ZM56.9955 120.235H57.7602V121H56.9955V120.235ZM56.2308 120.235H56.9955V121H56.2308V120.235ZM55.4661 120.235H56.2308V121H55.4661V120.235ZM54.7014 120.235H55.4661V121H54.7014V120.235ZM54.7014 119.471H55.4661V120.235H54.7014V119.471ZM53.9367 119.471H54.7014V120.235H53.9367V119.471ZM53.172 119.471H53.9367V120.235H53.172V119.471ZM53.172 118.706H53.9367V119.471H53.172V118.706ZM52.4073 117.941H53.172V118.706H52.4073V117.941ZM53.172 117.941H53.9367V118.706H53.172V117.941ZM52.4073 117.176H53.172V117.941H52.4073V117.176ZM52.4073 116.412H53.172V117.176H52.4073V116.412ZM52.4073 115.647H53.172V116.412H52.4073V115.647ZM52.4073 114.882H53.172V115.647H52.4073V114.882ZM52.4073 114.118H53.172V114.882H52.4073V114.118ZM52.4073 113.353H53.172V114.118H52.4073V113.353ZM53.172 113.353H53.9367V114.118H53.172V113.353ZM53.172 112.588H53.9367V113.353H53.172V112.588ZM52.4073 112.588H53.172V113.353H52.4073V112.588ZM52.4073 111.824H53.172V112.588H52.4073V111.824ZM53.172 111.824H53.9367V112.588H53.172V111.824ZM53.172 111.059H53.9367V111.824H53.172V111.059ZM53.172 110.294H53.9367V111.059H53.172V110.294ZM53.9367 110.294H54.7014V111.059H53.9367V110.294ZM54.7014 110.294H55.4661V111.059H54.7014V110.294ZM55.4661 110.294H56.2308V111.059H55.4661V110.294ZM55.4661 111.059H56.2308V111.824H55.4661V111.059ZM55.4661 111.824H56.2308V112.588H55.4661V111.824ZM54.7014 111.824H55.4661V112.588H54.7014V111.824ZM53.9367 111.824H54.7014V112.588H53.9367V111.824ZM54.7014 112.588H55.4661V113.353H54.7014V112.588ZM54.7014 113.353H55.4661V114.118H54.7014V113.353ZM54.7014 114.118H55.4661V114.882H54.7014V114.118ZM54.7014 114.882H55.4661V115.647H54.7014V114.882ZM54.7014 115.647H55.4661V116.412H54.7014V115.647ZM54.7014 116.412H55.4661V117.176H54.7014V116.412ZM54.7014 117.176H55.4661V117.941H54.7014V117.176ZM54.7014 117.941H55.4661V118.706H54.7014V117.941ZM55.4661 117.941H56.2308V118.706H55.4661V117.941ZM55.4661 118.706H56.2308V119.471H55.4661V118.706ZM56.2308 118.706H56.9955V119.471H56.2308V118.706ZM56.9955 118.706H57.7602V119.471H56.9955V118.706ZM57.7602 118.706H58.5249V119.471H57.7602V118.706ZM57.7602 119.471H58.5249V120.235H57.7602V119.471ZM56.9955 119.471H57.7602V120.235H56.9955V119.471ZM56.2308 119.471H56.9955V120.235H56.2308V119.471ZM55.4661 119.471H56.2308V120.235H55.4661V119.471ZM54.7014 118.706H55.4661V119.471H54.7014V118.706ZM53.9367 118.706H54.7014V119.471H53.9367V118.706ZM53.9367 117.941H54.7014V118.706H53.9367V117.941ZM53.9367 117.176H54.7014V117.941H53.9367V117.176ZM53.9367 116.412H54.7014V117.176H53.9367V116.412ZM53.172 116.412H53.9367V117.176H53.172V116.412ZM53.172 117.176H53.9367V117.941H53.172V117.176ZM53.172 115.647H53.9367V116.412H53.172V115.647ZM53.172 114.882H53.9367V115.647H53.172V114.882ZM53.172 114.118H53.9367V114.882H53.172V114.118ZM53.9367 114.118H54.7014V114.882H53.9367V114.118ZM53.9367 114.882H54.7014V115.647H53.9367V114.882ZM53.9367 115.647H54.7014V116.412H53.9367V115.647ZM53.9367 113.353H54.7014V114.118H53.9367V113.353ZM53.9367 112.588H54.7014V113.353H53.9367V112.588ZM53.9367 111.059H54.7014V111.824H53.9367V111.059ZM54.7014 111.059H55.4661V111.824H54.7014V111.059ZM56.2308 110.294H56.9955V111.059H56.2308V110.294ZM56.9955 110.294H57.7602V111.059H56.9955V110.294ZM57.7602 110.294H58.5249V111.059H57.7602V110.294ZM58.5249 110.294H59.2896V111.059H58.5249V110.294ZM58.5249 111.059H59.2896V111.824H58.5249V111.059ZM57.7602 111.059H58.5249V111.824H57.7602V111.059ZM56.9955 111.059H57.7602V111.824H56.9955V111.059ZM56.2308 111.059H56.9955V111.824H56.2308V111.059ZM64.6456 109.529H65.4103V110.294H64.6456V109.529ZM65.4103 109.529H66.175V110.294H65.4103V109.529ZM66.175 109.529H66.9397V110.294H66.175V109.529ZM64.6456 111.059H65.4103V111.824H64.6456V111.059ZM64.6456 110.294H65.4103V111.059H64.6456V110.294ZM66.175 120.235H66.9397V121H66.175V120.235ZM65.4103 120.235H66.175V121H65.4103V120.235ZM64.6456 119.471H65.4103V120.235H64.6456V119.471ZM64.6456 118.706H65.4103V119.471H64.6456V118.706ZM64.6456 120.235H65.4103V121H64.6456V120.235ZM68.4691 109.529H69.2338V110.294H68.4691V109.529ZM66.9397 109.529H67.7044V110.294H66.9397V109.529ZM69.2338 109.529H69.9985V110.294H69.2338V109.529ZM69.9985 109.529H70.7632V110.294H69.9985V109.529ZM70.7632 109.529H71.5279V110.294H70.7632V109.529ZM71.5279 110.294H72.2926V111.059H71.5279V110.294ZM71.5279 111.059H72.2926V111.824H71.5279V111.059ZM72.2926 111.059H73.0573V111.824H72.2926V111.059ZM71.5279 111.824H72.2926V112.588H71.5279V111.824ZM70.7632 111.824H71.5279V112.588H70.7632V111.824ZM66.9397 120.235H67.7044V121H66.9397V120.235ZM66.9397 119.471H67.7044V120.235H66.9397V119.471ZM66.175 119.471H66.9397V120.235H66.175V119.471ZM65.4103 119.471H66.175V120.235H65.4103V119.471ZM65.4103 113.353H66.175V114.118H65.4103V113.353ZM65.4103 112.588H66.175V113.353H65.4103V112.588ZM64.6456 111.824H65.4103V112.588H64.6456V111.824ZM65.4103 111.059H66.175V111.824H65.4103V111.059ZM66.175 110.294H66.9397V111.059H66.175V110.294ZM66.9397 110.294H67.7044V111.059H66.9397V110.294ZM67.7044 110.294H68.4691V111.059H67.7044V110.294ZM67.7044 111.059H68.4691V111.824H67.7044V111.059ZM67.7044 111.824H68.4691V112.588H67.7044V111.824ZM66.9397 111.824H67.7044V112.588H66.9397V111.824ZM66.175 111.824H66.9397V112.588H66.175V111.824ZM66.9397 112.588H67.7044V113.353H66.9397V112.588ZM66.9397 113.353H67.7044V114.118H66.9397V113.353ZM66.9397 114.118H67.7044V114.882H66.9397V114.118ZM66.9397 118.706H67.7044V119.471H66.9397V118.706ZM66.175 118.706H66.9397V119.471H66.175V118.706ZM66.175 113.353H66.9397V114.118H66.175V113.353ZM66.175 112.588H66.9397V113.353H66.175V112.588ZM66.175 111.059H66.9397V111.824H66.175V111.059ZM66.9397 111.059H67.7044V111.824H66.9397V111.059ZM68.4691 110.294H69.2338V111.059H68.4691V110.294ZM69.2338 110.294H69.9985V111.059H69.2338V110.294ZM69.9985 110.294H70.7632V111.059H69.9985V110.294ZM70.7632 110.294H71.5279V111.059H70.7632V110.294ZM70.7632 111.059H71.5279V111.824H70.7632V111.059ZM69.9985 111.059H70.7632V111.824H69.9985V111.059ZM69.2338 111.059H69.9985V111.824H69.2338V111.059ZM68.4691 111.059H69.2338V111.824H68.4691V111.059ZM65.4103 110.294H66.175V111.059H65.4103V110.294ZM65.4103 118.706H66.175V119.471H65.4103V118.706ZM65.4103 111.824H66.175V112.588H65.4103V111.824ZM64.6456 112.588H65.4103V113.353H64.6456V112.588ZM64.6456 113.353H65.4103V114.118H64.6456V113.353ZM64.6456 117.941H65.4103V118.706H64.6456V117.941ZM65.4103 117.941H66.175V118.706H65.4103V117.941ZM66.175 117.941H66.9397V118.706H66.175V117.941ZM66.9397 117.941H67.7044V118.706H66.9397V117.941ZM66.175 114.118H66.9397V114.882H66.175V114.118ZM65.4103 114.118H66.175V114.882H65.4103V114.118ZM64.6456 114.118H65.4103V114.882H64.6456V114.118ZM64.6456 114.882H65.4103V115.647H64.6456V114.882ZM64.6456 115.647H65.4103V116.412H64.6456V115.647ZM64.6456 116.412H65.4103V117.176H64.6456V116.412ZM65.4103 116.412H66.175V117.176H65.4103V116.412ZM65.4103 117.176H66.175V117.941H65.4103V117.176ZM66.175 117.176H66.9397V117.941H66.175V117.176ZM64.6456 117.176H65.4103V117.941H64.6456V117.176ZM66.9397 117.176H67.7044V117.941H66.9397V117.176ZM66.9397 116.412H67.7044V117.176H66.9397V116.412ZM66.9397 115.647H67.7044V116.412H66.9397V115.647ZM66.9397 114.882H67.7044V115.647H66.9397V114.882ZM66.175 114.882H66.9397V115.647H66.175V114.882ZM65.4103 114.882H66.175V115.647H65.4103V114.882ZM65.4103 115.647H66.175V116.412H65.4103V115.647ZM66.175 116.412H66.9397V117.176H66.175V116.412ZM66.175 115.647H66.9397V116.412H66.175V115.647ZM69.9985 111.824H70.7632V112.588H69.9985V111.824ZM70.7632 112.588H71.5279V113.353H70.7632V112.588ZM73.8116 110.294H74.5763V111.059H73.8116V110.294ZM74.5763 110.294H75.341V111.059H74.5763V110.294ZM75.341 110.294H76.1057V111.059H75.341V110.294ZM76.1057 110.294H76.8704V111.059H76.1057V110.294ZM76.8704 110.294H77.6351V111.059H76.8704V110.294ZM77.6351 110.294H78.3998V111.059H77.6351V110.294ZM78.3998 110.294H79.1645V111.059H78.3998V110.294ZM79.1645 110.294H79.9292V111.059H79.1645V110.294ZM79.9292 110.294H80.6939V111.059H79.9292V110.294ZM79.9292 111.059H80.6939V111.824H79.9292V111.059ZM79.9292 111.824H80.6939V112.588H79.9292V111.824ZM79.1645 111.824H79.9292V112.588H79.1645V111.824ZM78.3998 111.824H79.1645V112.588H78.3998V111.824ZM77.6351 111.824H78.3998V112.588H77.6351V111.824ZM76.8704 111.824H77.6351V112.588H76.8704V111.824ZM76.1057 111.824H76.8704V112.588H76.1057V111.824ZM75.341 111.824H76.1057V112.588H75.341V111.824ZM74.5763 111.824H75.341V112.588H74.5763V111.824ZM74.5763 111.059H75.341V111.824H74.5763V111.059ZM73.8116 111.059H74.5763V111.824H73.8116V111.059ZM73.8116 111.824H74.5763V112.588H73.8116V111.824ZM75.341 111.059H76.1057V111.824H75.341V111.059ZM76.1057 111.059H76.8704V111.824H76.1057V111.059ZM76.8704 111.059H77.6351V111.824H76.8704V111.059ZM77.6351 111.059H78.3998V111.824H77.6351V111.059ZM78.3998 111.059H79.1645V111.824H78.3998V111.059ZM79.1645 111.059H79.9292V111.824H79.1645V111.059ZM75.341 109.529H76.1057V110.294H75.341V109.529ZM76.1057 109.529H76.8704V110.294H76.1057V109.529ZM76.8704 109.529H77.6351V110.294H76.8704V109.529ZM77.6351 109.529H78.3998V110.294H77.6351V109.529ZM76.8704 108.765H77.6351V109.529H76.8704V108.765ZM76.1057 108.765H76.8704V109.529H76.1057V108.765ZM77.6351 108.765H78.3998V109.529H77.6351V108.765ZM77.6351 107.235H78.3998V108H77.6351V107.235ZM77.6351 108H78.3998V108.765H77.6351V108ZM76.8704 108H77.6351V108.765H76.8704V108ZM77.6351 106.471H78.3998V107.235H77.6351V106.471ZM76.8704 107.235H77.6351V108H76.8704V107.235ZM76.1057 108H76.8704V108.765H76.1057V108ZM75.341 108.765H76.1057V109.529H75.341V108.765ZM75.341 112.588H76.1057V113.353H75.341V112.588ZM75.341 113.353H76.1057V114.118H75.341V113.353ZM75.341 114.118H76.1057V114.882H75.341V114.118ZM75.341 114.882H76.1057V115.647H75.341V114.882ZM76.1057 114.882H76.8704V115.647H76.1057V114.882ZM76.1057 115.647H76.8704V116.412H76.1057V115.647ZM76.8704 114.882H77.6351V115.647H76.8704V114.882ZM76.8704 114.118H77.6351V114.882H76.8704V114.118ZM77.6351 114.118H78.3998V114.882H77.6351V114.118ZM77.6351 113.353H78.3998V114.118H77.6351V113.353ZM76.8704 112.588H77.6351V113.353H76.8704V112.588ZM76.1057 112.588H76.8704V113.353H76.1057V112.588ZM76.1057 113.353H76.8704V114.118H76.1057V113.353ZM76.1057 114.118H76.8704V114.882H76.1057V114.118ZM76.8704 113.353H77.6351V114.118H76.8704V113.353ZM77.6351 112.588H78.3998V113.353H77.6351V112.588ZM77.6351 114.882H78.3998V115.647H77.6351V114.882ZM77.6351 115.647H78.3998V116.412H77.6351V115.647ZM76.8704 115.647H77.6351V116.412H76.8704V115.647ZM76.8704 116.412H77.6351V117.176H76.8704V116.412ZM76.1057 116.412H76.8704V117.176H76.1057V116.412ZM75.341 115.647H76.1057V116.412H75.341V115.647ZM75.341 116.412H76.1057V117.176H75.341V116.412ZM77.6351 116.412H78.3998V117.176H77.6351V116.412ZM75.341 117.176H76.1057V117.941H75.341V117.176ZM76.1057 117.176H76.8704V117.941H76.1057V117.176ZM76.1057 117.941H76.8704V118.706H76.1057V117.941ZM76.8704 117.941H77.6351V118.706H76.8704V117.941ZM77.6351 117.941H78.3998V118.706H77.6351V117.941ZM77.6351 117.176H78.3998V117.941H77.6351V117.176ZM76.8704 117.176H77.6351V117.941H76.8704V117.176ZM75.341 117.941H76.1057V118.706H75.341V117.941ZM77.6351 118.706H78.3998V119.471H77.6351V118.706ZM78.3998 118.706H79.1645V119.471H78.3998V118.706ZM78.3998 117.941H79.1645V118.706H78.3998V117.941ZM76.8704 118.706H77.6351V119.471H76.8704V118.706ZM76.1057 118.706H76.8704V119.471H76.1057V118.706ZM76.1057 119.471H76.8704V120.235H76.1057V119.471ZM76.8704 119.471H77.6351V120.235H76.8704V119.471ZM77.6351 119.471H78.3998V120.235H77.6351V119.471ZM78.3998 119.471H79.1645V120.235H78.3998V119.471ZM79.1645 119.471H79.9292V120.235H79.1645V119.471ZM79.1645 118.706H79.9292V119.471H79.1645V118.706ZM79.9292 118.706H80.6939V119.471H79.9292V118.706ZM79.9292 119.471H80.6939V120.235H79.9292V119.471ZM79.1645 120.235H79.9292V121H79.1645V120.235ZM78.3998 120.235H79.1645V121H78.3998V120.235ZM77.6351 120.235H78.3998V121H77.6351V120.235ZM79.9292 120.235H80.6939V121H79.9292V120.235Z" fill="black"/>
<path d="M273.882 121H273.118V120.235H273.882V121ZM275.412 121H274.647V120.235H275.412V121ZM273.118 121H272.353V120.235H273.118V121ZM272.353 121H271.588V120.235H272.353V121ZM271.588 121H270.824V120.235H271.588V121ZM270.824 121H270.059V120.235H270.824V121ZM270.059 120.235H269.294V119.471H270.059V120.235ZM270.824 120.235H270.059V119.471H270.824V120.235ZM270.824 119.471H270.059V118.706H270.824V119.471ZM269.294 120.235H268.529V119.471H269.294V120.235ZM269.294 119.471H268.529V118.706H269.294V119.471ZM270.059 119.471H269.294V118.706H270.059V119.471ZM270.824 118.706H270.059V117.941H270.824V118.706ZM271.588 118.706H270.824V117.941H271.588V118.706ZM270.059 118.706H269.294V117.941H270.059V118.706ZM269.294 118.706H268.529V117.941H269.294V118.706ZM268.529 118.706H267.765V117.941H268.529V118.706ZM268.529 117.941H267.765V117.176H268.529V117.941ZM268.529 113.353H267.765V112.588H268.529V113.353ZM268.529 112.588H267.765V111.824H268.529V112.588ZM269.294 112.588H268.529V111.824H269.294V112.588ZM269.294 111.824H268.529V111.059H269.294V111.824ZM269.294 111.059H268.529V110.294H269.294V111.059ZM270.059 111.059H269.294V110.294H270.059V111.059ZM270.824 111.059H270.059V110.294H270.824V111.059ZM271.588 111.824H270.824V111.059H271.588V111.824ZM271.588 112.588H270.824V111.824H271.588V112.588ZM270.824 112.588H270.059V111.824H270.824V112.588ZM270.824 111.824H270.059V111.059H270.824V111.824ZM270.059 111.824H269.294V111.059H270.059V111.824ZM270.059 112.588H269.294V111.824H270.059V112.588ZM270.059 113.353H269.294V112.588H270.059V113.353ZM270.824 113.353H270.059V112.588H270.824V113.353ZM270.824 117.941H270.059V117.176H270.824V117.941ZM270.059 117.941H269.294V117.176H270.059V117.941ZM269.294 113.353H268.529V112.588H269.294V113.353ZM269.294 117.941H268.529V117.176H269.294V117.941ZM271.588 111.059H270.824V110.294H271.588V111.059ZM271.588 110.294H270.824V109.529H271.588V110.294ZM270.824 110.294H270.059V109.529H270.824V110.294ZM272.353 110.294H271.588V109.529H272.353V110.294ZM273.118 110.294H272.353V109.529H273.118V110.294ZM273.882 110.294H273.118V109.529H273.882V110.294ZM274.647 110.294H273.882V109.529H274.647V110.294ZM275.412 110.294H274.647V109.529H275.412V110.294ZM275.412 111.059H274.647V110.294H275.412V111.059ZM276.176 111.059H275.412V110.294H276.176V111.059ZM276.941 111.059H276.176V110.294H276.941V111.059ZM276.941 111.824H276.176V111.059H276.941V111.824ZM277.706 112.588H276.941V111.824H277.706V112.588ZM276.941 112.588H276.176V111.824H276.941V112.588ZM277.706 113.353H276.941V112.588H277.706V113.353ZM277.706 114.118H276.941V113.353H277.706V114.118ZM277.706 114.882H276.941V114.118H277.706V114.882ZM277.706 115.647H276.941V114.882H277.706V115.647ZM277.706 116.412H276.941V115.647H277.706V116.412ZM277.706 117.176H276.941V116.412H277.706V117.176ZM276.941 117.176H276.176V116.412H276.941V117.176ZM276.941 117.941H276.176V117.176H276.941V117.941ZM277.706 117.941H276.941V117.176H277.706V117.941ZM277.706 118.706H276.941V117.941H277.706V118.706ZM276.941 118.706H276.176V117.941H276.941V118.706ZM276.941 119.471H276.176V118.706H276.941V119.471ZM276.941 120.235H276.176V119.471H276.941V120.235ZM276.176 120.235H275.412V119.471H276.176V120.235ZM275.412 120.235H274.647V119.471H275.412V120.235ZM274.647 120.235H273.882V119.471H274.647V120.235ZM274.647 119.471H273.882V118.706H274.647V119.471ZM275.412 118.706H274.647V117.941H275.412V118.706ZM276.176 118.706H275.412V117.941H276.176V118.706ZM275.412 117.941H274.647V117.176H275.412V117.941ZM275.412 117.176H274.647V116.412H275.412V117.176ZM275.412 116.412H274.647V115.647H275.412V116.412ZM275.412 115.647H274.647V114.882H275.412V115.647ZM275.412 114.882H274.647V114.118H275.412V114.882ZM275.412 114.118H274.647V113.353H275.412V114.118ZM275.412 113.353H274.647V112.588H275.412V113.353ZM275.412 112.588H274.647V111.824H275.412V112.588ZM274.647 112.588H273.882V111.824H274.647V112.588ZM274.647 111.824H273.882V111.059H274.647V111.824ZM273.882 111.824H273.118V111.059H273.882V111.824ZM273.118 111.824H272.353V111.059H273.118V111.824ZM272.353 111.824H271.588V111.059H272.353V111.824ZM272.353 111.059H271.588V110.294H272.353V111.059ZM273.118 111.059H272.353V110.294H273.118V111.059ZM273.882 111.059H273.118V110.294H273.882V111.059ZM274.647 111.059H273.882V110.294H274.647V111.059ZM275.412 111.824H274.647V111.059H275.412V111.824ZM276.176 111.824H275.412V111.059H276.176V111.824ZM276.176 112.588H275.412V111.824H276.176V112.588ZM276.176 113.353H275.412V112.588H276.176V113.353ZM276.176 114.118H275.412V113.353H276.176V114.118ZM276.941 114.118H276.176V113.353H276.941V114.118ZM276.941 113.353H276.176V112.588H276.941V113.353ZM276.941 114.882H276.176V114.118H276.941V114.882ZM276.941 115.647H276.176V114.882H276.941V115.647ZM276.941 116.412H276.176V115.647H276.941V116.412ZM276.176 116.412H275.412V115.647H276.176V116.412ZM276.176 115.647H275.412V114.882H276.176V115.647ZM276.176 114.882H275.412V114.118H276.176V114.882ZM276.176 117.176H275.412V116.412H276.176V117.176ZM276.176 117.941H275.412V117.176H276.176V117.941ZM276.176 119.471H275.412V118.706H276.176V119.471ZM275.412 119.471H274.647V118.706H275.412V119.471ZM273.882 120.235H273.118V119.471H273.882V120.235ZM273.118 120.235H272.353V119.471H273.118V120.235ZM272.353 120.235H271.588V119.471H272.353V120.235ZM271.588 120.235H270.824V119.471H271.588V120.235ZM271.588 119.471H270.824V118.706H271.588V119.471ZM272.353 119.471H271.588V118.706H272.353V119.471ZM273.118 119.471H272.353V118.706H273.118V119.471ZM273.882 119.471H273.118V118.706H273.882V119.471ZM269.294 117.176H268.529V116.412H269.294V117.176ZM270.059 117.176H269.294V116.412H270.059V117.176ZM270.824 117.176H270.059V116.412H270.824V117.176ZM269.294 116.412H268.529V115.647H269.294V116.412ZM270.059 116.412H269.294V115.647H270.059V116.412ZM270.824 116.412H270.059V115.647H270.824V116.412ZM271.588 116.412H270.824V115.647H271.588V116.412ZM272.353 116.412H271.588V115.647H272.353V116.412ZM273.118 116.412H272.353V115.647H273.118V116.412ZM273.882 116.412H273.118V115.647H273.882V116.412ZM274.647 116.412H273.882V115.647H274.647V116.412ZM274.647 115.647H273.882V114.882H274.647V115.647ZM273.882 115.647H273.118V114.882H273.882V115.647ZM273.118 115.647H272.353V114.882H273.118V115.647ZM272.353 115.647H271.588V114.882H272.353V115.647ZM271.588 115.647H270.824V114.882H271.588V115.647ZM270.824 115.647H270.059V114.882H270.824V115.647ZM276.941 118.706H277.706V119.471H276.941V118.706ZM276.941 119.471H277.706V120.235H276.941V119.471ZM276.941 120.235H277.706V121H276.941V120.235ZM276.176 120.235H276.941V121H276.176V120.235ZM275.412 120.235H276.176V121H275.412V120.235ZM270.824 116.412H271.588V117.176H270.824V116.412ZM288.415 111.824H289.179V112.588H288.415V111.824ZM287.65 111.824H288.415V112.588H287.65V111.824ZM286.885 111.824H287.65V112.588H286.885V111.824ZM286.885 111.059H287.65V111.824H286.885V111.059ZM286.121 111.059H286.885V111.824H286.121V111.059ZM287.65 111.059H288.415V111.824H287.65V111.059ZM288.415 111.059H289.179V111.824H288.415V111.059ZM287.65 110.294H288.415V111.059H287.65V110.294ZM286.885 110.294H287.65V111.059H286.885V110.294ZM286.121 110.294H286.885V111.059H286.121V110.294ZM286.121 109.529H286.885V110.294H286.121V109.529ZM286.885 109.529H287.65V110.294H286.885V109.529ZM285.356 109.529H286.121V110.294H285.356V109.529ZM284.591 109.529H285.356V110.294H284.591V109.529ZM283.827 109.529H284.591V110.294H283.827V109.529ZM283.062 110.294H283.827V111.059H283.062V110.294ZM282.297 110.294H283.062V111.059H282.297V110.294ZM282.297 109.529H283.062V110.294H282.297V109.529ZM283.062 109.529H283.827V110.294H283.062V109.529ZM283.827 110.294H284.591V111.059H283.827V110.294ZM283.827 111.059H284.591V111.824H283.827V111.059ZM284.591 111.059H285.356V111.824H284.591V111.059ZM285.356 111.059H286.121V111.824H285.356V111.059ZM285.356 110.294H286.121V111.059H285.356V110.294ZM284.591 110.294H285.356V111.059H284.591V110.294ZM283.062 111.059H283.827V111.824H283.062V111.059ZM282.297 111.059H283.062V111.824H282.297V111.059ZM281.532 111.059H282.297V111.824H281.532V111.059ZM280.768 111.059H281.532V111.824H280.768V111.059ZM280.768 110.294H281.532V111.059H280.768V110.294ZM281.532 110.294H282.297V111.059H281.532V110.294ZM282.297 111.824H283.062V112.588H282.297V111.824ZM283.062 111.824H283.827V112.588H283.062V111.824ZM281.532 111.824H282.297V112.588H281.532V111.824ZM280.768 111.824H281.532V112.588H280.768V111.824ZM280.003 111.824H280.768V112.588H280.003V111.824ZM280.768 112.588H281.532V113.353H280.768V112.588ZM280.003 112.588H280.768V113.353H280.003V112.588ZM280.003 113.353H280.768V114.118H280.003V113.353ZM280.768 113.353H281.532V114.118H280.768V113.353ZM281.532 112.588H282.297V113.353H281.532V112.588ZM282.297 112.588H283.062V113.353H282.297V112.588ZM282.297 113.353H283.062V114.118H282.297V113.353ZM283.062 113.353H283.827V114.118H283.062V113.353ZM281.532 113.353H282.297V114.118H281.532V113.353ZM281.532 114.118H282.297V114.882H281.532V114.118ZM280.768 114.118H281.532V114.882H280.768V114.118ZM281.532 114.882H282.297V115.647H281.532V114.882ZM280.768 114.882H281.532V115.647H280.768V114.882ZM282.297 114.118H283.062V114.882H282.297V114.118ZM283.062 114.118H283.827V114.882H283.062V114.118ZM283.062 114.882H283.827V115.647H283.062V114.882ZM283.062 115.647H283.827V116.412H283.062V115.647ZM282.297 115.647H283.062V116.412H282.297V115.647ZM282.297 114.882H283.062V115.647H282.297V114.882ZM283.827 114.882H284.591V115.647H283.827V114.882ZM284.591 114.882H285.356V115.647H284.591V114.882ZM284.591 114.118H285.356V114.882H284.591V114.118ZM285.356 114.118H286.121V114.882H285.356V114.118ZM286.121 114.118H286.885V114.882H286.121V114.118ZM286.885 114.118H287.65V114.882H286.885V114.118ZM283.827 114.118H284.591V114.882H283.827V114.118ZM283.827 115.647H284.591V116.412H283.827V115.647ZM284.591 115.647H285.356V116.412H284.591V115.647ZM285.356 115.647H286.121V116.412H285.356V115.647ZM286.121 115.647H286.885V116.412H286.121V115.647ZM286.885 115.647H287.65V116.412H286.885V115.647ZM286.885 114.882H287.65V115.647H286.885V114.882ZM286.121 114.882H286.885V115.647H286.121V114.882ZM285.356 114.882H286.121V115.647H285.356V114.882ZM288.415 114.882H289.179V115.647H288.415V114.882ZM287.65 114.882H288.415V115.647H287.65V114.882ZM287.65 115.647H288.415V116.412H287.65V115.647ZM288.415 115.647H289.179V116.412H288.415V115.647ZM286.885 116.412H287.65V117.176H286.885V116.412ZM286.121 116.412H286.885V117.176H286.121V116.412ZM287.65 116.412H288.415V117.176H287.65V116.412ZM288.415 116.412H289.179V117.176H288.415V116.412ZM289.179 116.412H289.944V117.176H289.179V116.412ZM289.179 117.176H289.944V117.941H289.179V117.176ZM289.179 117.941H289.944V118.706H289.179V117.941ZM288.415 117.941H289.179V118.706H288.415V117.941ZM288.415 117.176H289.179V117.941H288.415V117.176ZM287.65 117.176H288.415V117.941H287.65V117.176ZM287.65 117.941H288.415V118.706H287.65V117.941ZM286.885 117.176H287.65V117.941H286.885V117.176ZM286.885 117.941H287.65V118.706H286.885V117.941ZM286.121 117.941H286.885V118.706H286.121V117.941ZM286.121 118.706H286.885V119.471H286.121V118.706ZM286.885 118.706H287.65V119.471H286.885V118.706ZM286.885 119.471H287.65V120.235H286.885V119.471ZM287.65 119.471H288.415V120.235H287.65V119.471ZM287.65 118.706H288.415V119.471H287.65V118.706ZM288.415 118.706H289.179V119.471H288.415V118.706ZM288.415 119.471H289.179V120.235H288.415V119.471ZM286.885 120.235H287.65V121H286.885V120.235ZM286.121 120.235H286.885V121H286.121V120.235ZM286.121 119.471H286.885V120.235H286.121V119.471ZM285.356 119.471H286.121V120.235H285.356V119.471ZM284.591 119.471H285.356V120.235H284.591V119.471ZM283.827 119.471H284.591V120.235H283.827V119.471ZM283.827 118.706H284.591V119.471H283.827V118.706ZM284.591 118.706H285.356V119.471H284.591V118.706ZM285.356 118.706H286.121V119.471H285.356V118.706ZM285.356 120.235H286.121V121H285.356V120.235ZM284.591 120.235H285.356V121H284.591V120.235ZM283.827 120.235H284.591V121H283.827V120.235ZM283.062 120.235H283.827V121H283.062V120.235ZM282.297 120.235H283.062V121H282.297V120.235ZM282.297 119.471H283.062V120.235H282.297V119.471ZM283.062 119.471H283.827V120.235H283.062V119.471ZM283.062 118.706H283.827V119.471H283.062V118.706ZM282.297 118.706H283.062V119.471H282.297V118.706ZM281.532 119.471H282.297V120.235H281.532V119.471ZM280.768 119.471H281.532V120.235H280.768V119.471ZM280.768 118.706H281.532V119.471H280.768V118.706ZM281.532 118.706H282.297V119.471H281.532V118.706ZM282.297 117.941H283.062V118.706H282.297V117.941ZM283.062 117.941H283.827V118.706H283.062V117.941ZM282.297 117.176H283.062V117.941H282.297V117.176ZM281.532 117.176H282.297V117.941H281.532V117.176ZM280.768 117.176H281.532V117.941H280.768V117.176ZM280.003 117.176H280.768V117.941H280.003V117.176ZM280.003 117.941H280.768V118.706H280.003V117.941ZM280.768 117.941H281.532V118.706H280.768V117.941ZM281.532 117.941H282.297V118.706H281.532V117.941ZM289.179 111.824H289.944V112.588H289.179V111.824ZM288.415 110.294H289.179V111.059H288.415V110.294ZM289.179 112.588H289.944V113.353H289.179V112.588ZM288.415 112.588H289.179V113.353H288.415V112.588ZM287.65 112.588H288.415V113.353H287.65V112.588ZM286.885 112.588H287.65V113.353H286.885V112.588ZM286.121 111.824H286.885V112.588H286.121V111.824Z" fill="black"/>
<path d="M208.696 61.9064L208.7 66.2522L204.844 68.1766V63.8327L208.696 61.9064ZM213.324 59.5838V63.9447L210.035 65.5862L210.033 61.2452L213.324 59.5838ZM208.69 56.0896L208.695 60.3898L204.844 62.3033V58.0017L208.69 56.0896ZM213.324 53.786V58.0591L210.032 59.7328L210.029 55.4241L213.324 53.786ZM204.258 53.2804L207.7 55.0178L204.129 56.8111L200.752 55.1151L204.258 53.2804ZM199.47 50.8638L202.753 52.5209L199.239 54.3551L195.867 52.6619L199.47 50.8638ZM208.855 50.889L212.391 52.6619L209.228 54.2502L205.779 52.5105L208.855 50.889ZM204.15 48.5293L207.333 50.1252L204.281 51.7548L201.001 50.1005L204.15 48.5293Z" fill="#4DABCF" fill-opacity="0.5"/>
<path d="M203.483 58.0012L200.885 56.6953V62.3398C200.885 62.3398 197.709 55.5808 197.414 54.9736C197.376 54.8953 197.22 54.8094 197.18 54.7885C196.611 54.4895 194.942 53.644 194.942 53.644V63.6163L197.251 64.8504V59.6379C197.251 59.6379 200.393 65.6773 200.425 65.7433C200.457 65.8093 200.773 66.4459 201.11 66.6694C201.559 66.9666 203.483 68.1239 203.483 68.1239L203.483 58.0012Z" fill="#4D77CF" fill-opacity="0.5"/>
<path d="M251.964 13.2857H252.929V14.25H251.964V13.2857ZM251 13.2857H251.964V14.25H251V13.2857ZM251 14.25H251.964V15.2143H251V14.25ZM251.964 14.25H252.929V15.2143H251.964V14.25ZM251 12.3214H251.964V13.2857H251V12.3214ZM251.964 11.3571H252.929V12.3214H251.964V11.3571ZM254.857 13.2857H255.821V14.25H254.857V13.2857ZM253.893 13.2857H254.857V14.25H253.893V13.2857ZM253.893 14.25H254.857V15.2143H253.893V14.25ZM254.857 14.25H255.821V15.2143H254.857V14.25ZM253.893 12.3214H254.857V13.2857H253.893V12.3214ZM254.857 11.3571H255.821V12.3214H254.857V11.3571ZM257.323 20.0357H258.287V21H257.323V20.0357ZM258.287 20.0357H259.252V21H258.287V20.0357ZM258.287 19.0714H259.252V20.0357H258.287V19.0714ZM258.287 18.1071H259.252V19.0714H258.287V18.1071ZM258.287 17.1429H259.252V18.1071H258.287V17.1429ZM258.287 16.1786H259.252V17.1429H258.287V16.1786ZM258.287 15.2143H259.252V16.1786H258.287V15.2143ZM257.323 15.2143H258.287V16.1786H257.323V15.2143ZM257.323 16.1786H258.287V17.1429H257.323V16.1786ZM257.323 17.1429H258.287V18.1071H257.323V17.1429ZM257.323 18.1071H258.287V19.0714H257.323V18.1071ZM257.323 19.0714H258.287V20.0357H257.323V19.0714ZM257.323 14.25H258.287V15.2143H257.323V14.25ZM258.287 14.25H259.252V15.2143H258.287V14.25ZM258.287 13.2857H259.252V14.25H258.287V13.2857ZM258.287 12.3214H259.252V13.2857H258.287V12.3214ZM258.287 11.3571H259.252V12.3214H258.287V11.3571ZM257.323 11.3571H258.287V12.3214H257.323V11.3571ZM257.323 12.3214H258.287V13.2857H257.323V12.3214ZM257.323 13.2857H258.287V14.25H257.323V13.2857ZM270.939 21H269.975V20.0357H270.939V21ZM270.939 20.0357H269.975V19.0714H270.939V20.0357ZM269.975 20.0357H269.01V19.0714H269.975V20.0357ZM269.01 21H268.046V20.0357H269.01V21ZM268.046 21H267.082V20.0357H268.046V21ZM267.082 21H266.117V20.0357H267.082V21ZM267.082 20.0357H266.117V19.0714H267.082V20.0357ZM268.046 20.0357H267.082V19.0714H268.046V20.0357ZM266.117 20.0357H265.153V19.0714H266.117V20.0357ZM266.117 19.0714H265.153V18.1071H266.117V19.0714ZM266.117 15.2143H265.153V14.25H266.117V15.2143ZM267.082 15.2143H266.117V14.25H267.082V15.2143ZM267.082 19.0714H266.117V18.1071H267.082V19.0714ZM268.046 15.2143H267.082V14.25H268.046V15.2143ZM267.082 14.25H266.117V13.2857H267.082V14.25ZM268.046 14.25H267.082V13.2857H268.046V14.25ZM269.01 14.25H268.046V13.2857H269.01V14.25ZM269.975 14.25H269.01V13.2857H269.975V14.25ZM270.939 14.25H269.975V13.2857H270.939V14.25ZM270.939 15.2143H269.975V14.25H270.939V15.2143ZM269.975 15.2143H269.01V14.25H269.975V15.2143ZM270.939 16.1786H269.975V15.2143H270.939V16.1786ZM271.903 15.2143H270.939V14.25H271.903V15.2143ZM271.903 16.1786H270.939V15.2143H271.903V16.1786ZM271.903 17.1429H270.939V16.1786H271.903V17.1429ZM271.903 18.1071H270.939V17.1429H271.903V18.1071ZM271.903 19.0714H270.939V18.1071H271.903V19.0714ZM271.903 20.0357H270.939V19.0714H271.903V20.0357ZM270.939 19.0714H269.975V18.1071H270.939V19.0714ZM270.939 18.1071H269.975V17.1429H270.939V18.1071ZM270.939 17.1429H269.975V16.1786H270.939V17.1429ZM269.01 15.2143H268.046V14.25H269.01V15.2143ZM269.01 20.0357H268.046V19.0714H269.01V20.0357ZM270.939 20.0357H271.903V21H270.939V20.0357ZM269.01 16.1786H269.975V17.1429H269.01V16.1786ZM268.046 16.1786H269.01V17.1429H268.046V16.1786ZM267.082 16.1786H268.046V17.1429H267.082V16.1786ZM266.117 16.1786H267.082V17.1429H266.117V16.1786ZM265.153 17.1429H266.117V18.1071H265.153V17.1429ZM266.117 17.1429H267.082V18.1071H266.117V17.1429ZM269.01 17.1429H269.975V18.1071H269.01V17.1429ZM268.046 17.1429H269.01V18.1071H268.046V17.1429ZM267.082 17.1429H268.046V18.1071H267.082V17.1429ZM273.41 14.25H274.374V15.2143H273.41V14.25ZM273.41 13.2857H274.374V14.25H273.41V13.2857ZM274.374 13.2857H275.339V14.25H274.374V13.2857ZM274.374 14.25H275.339V15.2143H274.374V14.25ZM274.374 15.2143H275.339V16.1786H274.374V15.2143ZM274.374 16.1786H275.339V17.1429H274.374V16.1786ZM274.374 17.1429H275.339V18.1071H274.374V17.1429ZM273.41 17.1429H274.374V18.1071H273.41V17.1429ZM273.41 16.1786H274.374V17.1429H273.41V16.1786ZM273.41 15.2143H274.374V16.1786H273.41V15.2143ZM273.41 18.1071H274.374V19.0714H273.41V18.1071ZM274.374 18.1071H275.339V19.0714H274.374V18.1071ZM274.374 19.0714H275.339V20.0357H274.374V19.0714ZM274.374 20.0357H275.339V21H274.374V20.0357ZM273.41 20.0357H274.374V21H273.41V20.0357ZM273.41 19.0714H274.374V20.0357H273.41V19.0714ZM277.267 20.0357H278.231V21H277.267V20.0357ZM278.231 20.0357H279.196V21H278.231V20.0357ZM278.231 19.0714H279.196V20.0357H278.231V19.0714ZM278.231 18.1071H279.196V19.0714H278.231V18.1071ZM278.231 17.1429H279.196V18.1071H278.231V17.1429ZM278.231 16.1786H279.196V17.1429H278.231V16.1786ZM278.231 15.2143H279.196V16.1786H278.231V15.2143ZM278.231 14.25H279.196V15.2143H278.231V14.25ZM277.267 16.1786H278.231V17.1429H277.267V16.1786ZM277.267 17.1429H278.231V18.1071H277.267V17.1429ZM277.267 18.1071H278.231V19.0714H277.267V18.1071ZM277.267 19.0714H278.231V20.0357H277.267V19.0714ZM277.267 15.2143H278.231V16.1786H277.267V15.2143ZM275.339 14.25H276.303V15.2143H275.339V14.25ZM276.303 14.25H277.267V15.2143H276.303V14.25ZM277.267 13.2857H278.231V14.25H277.267V13.2857ZM277.267 14.25H278.231V15.2143H277.267V14.25ZM276.303 13.2857H277.267V14.25H276.303V13.2857ZM281.124 20.0357H282.089V21H281.124V20.0357ZM282.089 20.0357H283.053V21H282.089V20.0357ZM282.089 19.0714H283.053V20.0357H282.089V19.0714ZM282.089 18.1071H283.053V19.0714H282.089V18.1071ZM282.089 17.1429H283.053V18.1071H282.089V17.1429ZM282.089 16.1786H283.053V17.1429H282.089V16.1786ZM282.089 15.2143H283.053V16.1786H282.089V15.2143ZM282.089 14.25H283.053V15.2143H282.089V14.25ZM281.124 16.1786H282.089V17.1429H281.124V16.1786ZM281.124 17.1429H282.089V18.1071H281.124V17.1429ZM281.124 18.1071H282.089V19.0714H281.124V18.1071ZM281.124 19.0714H282.089V20.0357H281.124V19.0714ZM281.124 15.2143H282.089V16.1786H281.124V15.2143ZM279.196 14.25H280.16V15.2143H279.196V14.25ZM280.16 14.25H281.124V15.2143H280.16V14.25ZM281.124 13.2857H282.089V14.25H281.124V13.2857ZM281.124 14.25H282.089V15.2143H281.124V14.25ZM280.16 13.2857H281.124V14.25H280.16V13.2857ZM288.939 14.25H289.904V15.2143H288.939V14.25ZM288.939 13.2857H289.904V14.25H288.939V13.2857ZM289.904 13.2857H290.868V14.25H289.904V13.2857ZM289.904 14.25H290.868V15.2143H289.904V14.25ZM289.904 15.2143H290.868V16.1786H289.904V15.2143ZM289.904 16.1786H290.868V17.1429H289.904V16.1786ZM289.904 17.1429H290.868V18.1071H289.904V17.1429ZM288.939 17.1429H289.904V18.1071H288.939V17.1429ZM288.939 16.1786H289.904V17.1429H288.939V16.1786ZM288.939 15.2143H289.904V16.1786H288.939V15.2143ZM288.939 18.1071H289.904V19.0714H288.939V18.1071ZM289.904 18.1071H290.868V19.0714H289.904V18.1071ZM289.904 19.0714H290.868V20.0357H289.904V19.0714ZM289.904 20.0357H290.868V21H289.904V20.0357ZM288.939 20.0357H289.904V21H288.939V20.0357ZM288.939 19.0714H289.904V20.0357H288.939V19.0714ZM293.761 20.0357H294.725V21H293.761V20.0357ZM294.725 20.0357H295.689V21H294.725V20.0357ZM294.725 19.0714H295.689V20.0357H294.725V19.0714ZM294.725 18.1071H295.689V19.0714H294.725V18.1071ZM294.725 17.1429H295.689V18.1071H294.725V17.1429ZM294.725 16.1786H295.689V17.1429H294.725V16.1786ZM294.725 15.2143H295.689V16.1786H294.725V15.2143ZM294.725 14.25H295.689V15.2143H294.725V14.25ZM293.761 16.1786H294.725V17.1429H293.761V16.1786ZM293.761 17.1429H294.725V18.1071H293.761V17.1429ZM293.761 18.1071H294.725V19.0714H293.761V18.1071ZM293.761 19.0714H294.725V20.0357H293.761V19.0714ZM293.761 15.2143H294.725V16.1786H293.761V15.2143ZM290.868 14.25H291.832V15.2143H290.868V14.25ZM291.832 14.25H292.796V15.2143H291.832V14.25ZM292.796 14.25H293.761V15.2143H292.796V14.25ZM292.796 13.2857H293.761V14.25H292.796V13.2857ZM293.761 13.2857H294.725V14.25H293.761V13.2857ZM293.761 14.25H294.725V15.2143H293.761V14.25ZM291.832 13.2857H292.796V14.25H291.832V13.2857ZM299.125 13.2857H300.089V14.25H299.125V13.2857ZM298.16 13.2857H299.125V14.25H298.16V13.2857ZM298.16 14.25H299.125V15.2143H298.16V14.25ZM299.125 14.25H300.089V15.2143H299.125V14.25ZM300.089 13.2857H301.053V14.25H300.089V13.2857ZM301.053 13.2857H302.017V14.25H301.053V13.2857ZM302.017 13.2857H302.982V14.25H302.017V13.2857ZM302.017 14.25H302.982V15.2143H302.017V14.25ZM301.053 14.25H302.017V15.2143H301.053V14.25ZM302.017 16.1786H302.982V17.1429H302.017V16.1786ZM302.982 14.25H303.946V15.2143H302.982V14.25ZM302.982 15.2143H303.946V16.1786H302.982V15.2143ZM302.982 16.1786H303.946V17.1429H302.982V16.1786ZM302.982 17.1429H303.946V18.1071H302.982V17.1429ZM302.982 18.1071H303.946V19.0714H302.982V18.1071ZM302.982 19.0714H303.946V20.0357H302.982V19.0714ZM302.017 19.0714H302.982V20.0357H302.017V19.0714ZM302.017 18.1071H302.982V19.0714H302.017V18.1071ZM302.017 17.1429H302.982V18.1071H302.017V17.1429ZM302.017 15.2143H302.982V16.1786H302.017V15.2143ZM301.053 19.0714H302.017V20.0357H301.053V19.0714ZM302.017 20.0357H302.982V21H302.017V20.0357ZM301.053 20.0357H302.017V21H301.053V20.0357ZM300.089 20.0357H301.053V21H300.089V20.0357ZM299.125 20.0357H300.089V21H299.125V20.0357ZM298.16 20.0357H299.125V21H298.16V20.0357ZM298.16 19.0714H299.125V20.0357H298.16V19.0714ZM299.125 19.0714H300.089V20.0357H299.125V19.0714ZM298.16 18.1071H299.125V19.0714H298.16V18.1071ZM297.196 19.0714H298.16V20.0357H297.196V19.0714ZM297.196 18.1071H298.16V19.0714H297.196V18.1071ZM297.196 17.1429H298.16V18.1071H297.196V17.1429ZM297.196 16.1786H298.16V17.1429H297.196V16.1786ZM297.196 15.2143H298.16V16.1786H297.196V15.2143ZM297.196 14.25H298.16V15.2143H297.196V14.25ZM298.16 15.2143H299.125V16.1786H298.16V15.2143ZM298.16 16.1786H299.125V17.1429H298.16V16.1786ZM298.16 17.1429H299.125V18.1071H298.16V17.1429ZM300.089 19.0714H301.053V20.0357H300.089V19.0714ZM300.089 14.25H301.053V15.2143H300.089V14.25ZM305.453 13.2857H306.417V14.25H305.453V13.2857ZM305.453 14.25H306.417V15.2143H305.453V14.25ZM305.453 15.2143H306.417V16.1786H305.453V15.2143ZM305.453 16.1786H306.417V17.1429H305.453V16.1786ZM305.453 17.1429H306.417V18.1071H305.453V17.1429ZM305.453 18.1071H306.417V19.0714H305.453V18.1071ZM306.417 18.1071H307.381V19.0714H306.417V18.1071ZM306.417 19.0714H307.381V20.0357H306.417V19.0714ZM307.381 19.0714H308.346V20.0357H307.381V19.0714ZM307.381 20.0357H308.346V21H307.381V20.0357ZM308.346 19.0714H309.31V20.0357H308.346V19.0714ZM309.31 18.1071H310.274V19.0714H309.31V18.1071ZM310.274 15.2143H311.239V16.1786H310.274V15.2143ZM309.31 13.2857H310.274V14.25H309.31V13.2857ZM310.274 13.2857H311.239V14.25H310.274V13.2857ZM310.274 14.25H311.239V15.2143H310.274V14.25ZM310.274 16.1786H311.239V17.1429H310.274V16.1786ZM310.274 17.1429H311.239V18.1071H310.274V17.1429ZM309.31 17.1429H310.274V18.1071H309.31V17.1429ZM309.31 16.1786H310.274V17.1429H309.31V16.1786ZM309.31 15.2143H310.274V16.1786H309.31V15.2143ZM309.31 14.25H310.274V15.2143H309.31V14.25ZM310.274 18.1071H311.239V19.0714H310.274V18.1071ZM312.203 19.0714H313.167V20.0357H312.203V19.0714ZM312.203 20.0357H313.167V21H312.203V20.0357ZM313.167 19.0714H314.131V20.0357H313.167V19.0714ZM313.167 18.1071H314.131V19.0714H313.167V18.1071ZM314.131 18.1071H315.096V19.0714H314.131V18.1071ZM314.131 17.1429H315.096V18.1071H314.131V17.1429ZM314.131 16.1786H315.096V17.1429H314.131V16.1786ZM314.131 15.2143H315.096V16.1786H314.131V15.2143ZM314.131 14.25H315.096V15.2143H314.131V14.25ZM314.131 13.2857H315.096V14.25H314.131V13.2857ZM306.417 14.25H307.381V15.2143H306.417V14.25ZM306.417 15.2143H307.381V16.1786H306.417V15.2143ZM306.417 16.1786H307.381V17.1429H306.417V16.1786ZM306.417 17.1429H307.381V18.1071H306.417V17.1429ZM306.417 13.2857H307.381V14.25H306.417V13.2857ZM313.167 13.2857H314.131V14.25H313.167V13.2857ZM313.167 14.25H314.131V15.2143H313.167V14.25ZM313.167 15.2143H314.131V16.1786H313.167V15.2143ZM313.167 16.1786H314.131V17.1429H313.167V16.1786ZM313.167 17.1429H314.131V18.1071H313.167V17.1429ZM308.346 20.0357H309.31V21H308.346V20.0357ZM309.31 19.0714H310.274V20.0357H309.31V19.0714ZM310.274 19.0714H311.239V20.0357H310.274V19.0714ZM311.239 19.0714H312.203V20.0357H311.239V19.0714ZM311.239 20.0357H312.203V21H311.239V20.0357ZM307.381 18.1071H308.346V19.0714H307.381V18.1071ZM312.203 18.1071H313.167V19.0714H312.203V18.1071Z" fill="#85899E"/>
<path d="M320.982 14.25H321.946V15.2143H320.982V14.25ZM320.982 13.2857H321.946V14.25H320.982V13.2857ZM321.946 13.2857H322.911V14.25H321.946V13.2857ZM321.946 14.25H322.911V15.2143H321.946V14.25ZM321.946 15.2143H322.911V16.1786H321.946V15.2143ZM321.946 16.1786H322.911V17.1429H321.946V16.1786ZM321.946 17.1429H322.911V18.1071H321.946V17.1429ZM320.982 17.1429H321.946V18.1071H320.982V17.1429ZM320.982 16.1786H321.946V17.1429H320.982V16.1786ZM320.982 15.2143H321.946V16.1786H320.982V15.2143ZM320.982 18.1071H321.946V19.0714H320.982V18.1071ZM321.946 18.1071H322.911V19.0714H321.946V18.1071ZM321.946 19.0714H322.911V20.0357H321.946V19.0714ZM321.946 20.0357H322.911V21H321.946V20.0357ZM320.982 20.0357H321.946V21H320.982V20.0357ZM320.982 19.0714H321.946V20.0357H320.982V19.0714ZM325.803 20.0357H326.768V21H325.803V20.0357ZM326.768 20.0357H327.732V21H326.768V20.0357ZM326.768 19.0714H327.732V20.0357H326.768V19.0714ZM326.768 18.1071H327.732V19.0714H326.768V18.1071ZM326.768 17.1429H327.732V18.1071H326.768V17.1429ZM326.768 16.1786H327.732V17.1429H326.768V16.1786ZM326.768 15.2143H327.732V16.1786H326.768V15.2143ZM326.768 14.25H327.732V15.2143H326.768V14.25ZM325.803 16.1786H326.768V17.1429H325.803V16.1786ZM325.803 17.1429H326.768V18.1071H325.803V17.1429ZM325.803 18.1071H326.768V19.0714H325.803V18.1071ZM325.803 19.0714H326.768V20.0357H325.803V19.0714ZM325.803 15.2143H326.768V16.1786H325.803V15.2143ZM322.911 14.25H323.875V15.2143H322.911V14.25ZM323.875 14.25H324.839V15.2143H323.875V14.25ZM324.839 14.25H325.803V15.2143H324.839V14.25ZM324.839 13.2857H325.803V14.25H324.839V13.2857ZM325.803 13.2857H326.768V14.25H325.803V13.2857ZM325.803 14.25H326.768V15.2143H325.803V14.25ZM323.875 13.2857H324.839V14.25H323.875V13.2857ZM329.239 14.25H330.203V15.2143H329.239V14.25ZM329.239 13.2857H330.203V14.25H329.239V13.2857ZM330.203 13.2857H331.167V14.25H330.203V13.2857ZM330.203 14.25H331.167V15.2143H330.203V14.25ZM330.203 15.2143H331.167V16.1786H330.203V15.2143ZM330.203 16.1786H331.167V17.1429H330.203V16.1786ZM330.203 17.1429H331.167V18.1071H330.203V17.1429ZM329.239 17.1429H330.203V18.1071H329.239V17.1429ZM329.239 16.1786H330.203V17.1429H329.239V16.1786ZM329.239 15.2143H330.203V16.1786H329.239V15.2143ZM329.239 18.1071H330.203V19.0714H329.239V18.1071ZM330.203 18.1071H331.167V19.0714H330.203V18.1071ZM330.203 19.0714H331.167V20.0357H330.203V19.0714ZM330.203 20.0357H331.167V21H330.203V20.0357ZM329.239 20.0357H330.203V21H329.239V20.0357ZM329.239 19.0714H330.203V20.0357H329.239V19.0714ZM334.06 20.0357H335.025V21H334.06V20.0357ZM335.025 19.0714H335.989V20.0357H335.025V19.0714ZM335.025 18.1071H335.989V19.0714H335.025V18.1071ZM335.025 17.1429H335.989V18.1071H335.025V17.1429ZM335.025 16.1786H335.989V17.1429H335.025V16.1786ZM335.025 15.2143H335.989V16.1786H335.025V15.2143ZM335.025 14.25H335.989V15.2143H335.025V14.25ZM334.06 16.1786H335.025V17.1429H334.06V16.1786ZM334.06 17.1429H335.025V18.1071H334.06V17.1429ZM334.06 18.1071H335.025V19.0714H334.06V18.1071ZM334.06 19.0714H335.025V20.0357H334.06V19.0714ZM334.06 15.2143H335.025V16.1786H334.06V15.2143ZM331.167 14.25H332.132V15.2143H331.167V14.25ZM332.132 14.25H333.096V15.2143H332.132V14.25ZM333.096 14.25H334.06V15.2143H333.096V14.25ZM333.096 13.2857H334.06V14.25H333.096V13.2857ZM334.06 13.2857H335.025V14.25H334.06V13.2857ZM334.06 14.25H335.025V15.2143H334.06V14.25ZM332.132 13.2857H333.096V14.25H332.132V13.2857ZM331.167 20.0357H332.132V21H331.167V20.0357ZM332.132 20.0357H333.096V21H332.132V20.0357ZM333.096 20.0357H334.06V21H333.096V20.0357ZM333.096 19.0714H334.06V20.0357H333.096V19.0714ZM332.132 19.0714H333.096V20.0357H332.132V19.0714ZM331.167 19.0714H332.132V20.0357H331.167V19.0714ZM329.239 21H330.203V21.9643H329.239V21ZM330.203 21H331.167V21.9643H330.203V21ZM330.203 21.9643H331.167V22.9286H330.203V21.9643ZM329.239 21.9643H330.203V22.9286H329.239V21.9643Z" fill="#163575"/>
<path d="M337.496 19.0714H338.46V20.0357H337.496V19.0714ZM338.46 19.0714H339.424V20.0357H338.46V19.0714ZM338.46 20.0357H339.424V21H338.46V20.0357ZM337.496 20.0357H338.46V21H337.496V20.0357ZM341.9 11.3571H342.865V12.3214H341.9V11.3571ZM340.936 11.3571H341.9V12.3214H340.936V11.3571ZM341.9 12.3214H342.865V13.2857H341.9V12.3214ZM340.936 12.3214H341.9V13.2857H340.936V12.3214ZM341.9 13.2857H342.865V14.25H341.9V13.2857ZM340.936 14.25H341.9V15.2143H340.936V14.25ZM343.829 11.3571H344.793V12.3214H343.829V11.3571ZM344.793 11.3571H345.757V12.3214H344.793V11.3571ZM343.829 12.3214H344.793V13.2857H343.829V12.3214ZM344.793 12.3214H345.757V13.2857H344.793V12.3214ZM344.793 13.2857H345.757V14.25H344.793V13.2857ZM343.829 14.25H344.793V15.2143H343.829V14.25Z" fill="#85899E"/>
</svg>
