<svg width="435" height="181" viewBox="0 0 435 181" fill="none" xmlns="http://www.w3.org/2000/svg">
<rect x="3" y="3" width="174" height="110" fill="#E3E3E3"/>
<rect x="275.927" y="53.4692" width="47.7457" height="67.0827" transform="rotate(16.8183 275.927 53.4692)" fill="#66461A"/>
<ellipse cx="278.5" cy="126" rx="22.5" ry="8" transform="rotate(16.9378 278.5 126)" fill="#66461A"/>
<ellipse cx="299.5" cy="56.6529" rx="24.2862" ry="11.2148" transform="rotate(16.9378 299.5 56.6529)" fill="#9A6A28"/>
<rect x="86" y="114" width="9" height="63" fill="#A58162"/>
<rect x="86" y="114" width="9" height="63" fill="#A58162"/>
<rect x="124.593" y="116.262" width="9" height="63" transform="rotate(-10.0102 124.593 116.262)" fill="#A58162"/>
<rect x="124.593" y="116.262" width="9" height="63" transform="rotate(-10.0102 124.593 116.262)" fill="#A58162"/>
<rect width="9" height="63" transform="matrix(-0.984777 -0.173823 -0.173823 0.984777 56.814 116.262)" fill="#A58162"/>
<rect width="9" height="63" transform="matrix(-0.984777 -0.173823 -0.173823 0.984777 56.814 116.262)" fill="#A58162"/>
<path d="M181 0H0V116.774H43.2123L31.5349 181H49.1473L60.8248 116.774H81.7419V181H99.2581V116.774H120.175L131.853 181H149.465L137.788 116.774H181V0ZM44.2749 175.161H38.5326L49.1473 116.774H54.8897L44.2749 175.161ZM93.4194 175.161H87.5807V116.774H93.4194V175.161ZM142.47 175.161H136.728L126.113 116.774H131.856L142.47 175.161ZM175.161 110.935H5.83871V5.83871H175.161V110.935Z" fill="black" stroke="black" stroke-width="0.00064"/>
<path d="M14.5965 105.096H96.3385V58.3864H102.177V49.0299L92.4236 26.2735H43.7901V17.5155H49.6288V11.6768H17.5159V17.5155H23.3546V26.2735H18.5114L8.75781 49.0299V58.3864H14.5965V105.096ZM64.2256 99.2574H46.7094V72.9832H64.2256V99.2574ZM90.4997 99.2574H70.0643V67.1445H40.8707V99.2574H20.4352V58.3864H90.4997V99.2574ZM29.1933 17.5155H37.9514V26.2735H29.1933V17.5155ZM14.5965 50.2268L22.3591 32.1122H88.5759L96.3385 50.2268V52.5477H14.5965V50.2268Z" fill="black" stroke="black" stroke-width="0.00064"/>
<path d="M169.323 11.6768H108.016V46.709H169.323V11.6768ZM163.484 40.8703H113.855V17.5155H163.484V40.8703Z" fill="black" stroke="black" stroke-width="0.00064"/>
<path d="M169.323 52.5483H108.016V58.387H169.323V52.5483Z" fill="black" stroke="black" stroke-width="0.00064"/>
<path d="M169.323 64.2251H108.016V70.0638H169.323V64.2251Z" fill="black" stroke="black" stroke-width="0.00064"/>
<path d="M169.323 75.9033H108.016V81.742H169.323V75.9033Z" fill="black" stroke="black" stroke-width="0.00064"/>
<path d="M169.323 87.5801H108.016V93.4188H169.323V87.5801Z" fill="black" stroke="black" stroke-width="0.00064"/>
<path d="M169.322 99.2583H163.484V105.097H169.322V99.2583Z" fill="black" stroke="black" stroke-width="0.00064"/>
<path d="M157.645 99.2583H108.016V105.097H157.645V99.2583Z" fill="black" stroke="black" stroke-width="0.00064"/>
<path d="M358.9 44.9452L417.694 38.5343C418.993 38.3926 420.296 38.7729 421.315 39.5916C422.334 40.4102 422.986 41.6002 423.128 42.8996L432.21 126.192L363.616 133.671L354.534 50.379C354.393 49.0796 354.773 47.7771 355.592 46.7581C356.41 45.739 357.6 45.0869 358.9 44.9452Z" fill="#D6E7FB"/>
<path d="M388.297 41.7398L397.913 129.931M427.402 82.0958L358.808 89.5753M423.128 42.8996C422.986 41.6002 422.334 40.4102 421.315 39.5916C420.296 38.7729 418.993 38.3926 417.694 38.5343L358.9 44.9452C357.6 45.0869 356.41 45.739 355.592 46.7581C354.773 47.7771 354.393 49.0796 354.534 50.379L363.616 133.671L432.21 126.192L423.128 42.8996Z" stroke="black" stroke-width="5.5" stroke-linecap="round" stroke-linejoin="round"/>
<path d="M305.474 131.688C306.862 130.268 307.883 128.57 308.393 126.701C308.408 126.652 308.421 126.602 308.433 126.552L308.529 126.051L308.553 125.98L326.487 65.2401C326.576 64.9888 326.694 64.7569 326.765 64.4957C326.808 64.3362 326.818 64.1769 326.854 64.0173L326.901 63.8449L326.886 63.8448C327.91 58.9375 325.472 54.0046 321.424 50.0522C317.197 45.9248 311.063 42.5391 303.838 40.5676C296.614 38.5961 289.611 38.3924 283.874 39.8003C278.424 41.1375 273.853 44.1152 272.208 48.7964L272.098 48.7645L253.726 110.97L253.836 111.002L253.645 111.504C253.615 111.581 253.588 111.659 253.565 111.739C252.17 116.859 254.679 122.055 258.907 126.182C263.135 130.309 269.268 133.696 276.492 135.667C287.97 138.799 299.41 137.885 305.474 131.688ZM301.41 127.713C297.95 131.25 288.146 132.95 277.993 130.179C271.593 128.433 266.23 125.388 262.881 122.119C259.536 118.854 258.398 115.695 259.061 113.248L259.053 113.24L259.228 112.785C259.393 112.41 259.475 112.003 259.469 111.593L274.491 60.7376C275.293 61.8726 276.225 62.963 277.271 63.9843C281.498 68.1116 287.64 71.4895 294.864 73.461C302.088 75.4326 309.091 75.6362 314.829 74.2284C316.029 73.9339 317.152 73.5118 318.248 73.059L303.186 124.048L303.178 124.071C303.105 124.254 303.052 124.443 303.018 124.636L302.898 125.224C302.656 126.094 302.192 126.914 301.41 127.713ZM320.414 64.7725C319.19 66.4601 316.873 67.8679 313.465 68.7041C308.921 69.8191 302.765 69.7202 296.365 67.9736C289.965 66.227 284.593 63.1741 281.246 59.9054C277.898 56.6368 276.757 53.4821 277.425 51.0339C278.093 48.5857 280.678 46.4394 285.222 45.3244C289.766 44.2095 295.945 44.3163 302.345 46.0629C308.745 47.8095 314.101 50.8467 317.449 54.1153C320.686 57.276 321.832 60.3235 321.302 62.7358L321.135 63.2923C320.962 63.7966 320.754 64.3038 320.414 64.7725Z" fill="#222222"/>
<path d="M308.479 88.1421L300.479 115.142" stroke="black" stroke-linecap="round"/>
<path d="M306 81L298 108" stroke="black" stroke-linecap="round"/>
<path d="M271 90L265 110" stroke="black" stroke-linecap="round"/>
<circle cx="208" cy="82" r="2" fill="#919191"/>
<circle cx="230" cy="82" r="2" fill="#919191"/>
<circle cx="219" cy="82" r="2" fill="#919191"/>
</svg>
