<svg width="77" height="89" viewBox="0 0 77 89" fill="none" xmlns="http://www.w3.org/2000/svg">
<path d="M1.08665 15V5.18182H3.80966V15H1.08665ZM2.45455 3.91619C2.04972 3.91619 1.70241 3.78196 1.41264 3.51349C1.12713 3.24077 0.984375 2.91477 0.984375 2.53551C0.984375 2.16051 1.12713 1.83878 1.41264 1.57031C1.70241 1.29758 2.04972 1.16122 2.45455 1.16122C2.85938 1.16122 3.20455 1.29758 3.49006 1.57031C3.77983 1.83878 3.92472 2.16051 3.92472 2.53551C3.92472 2.91477 3.77983 3.24077 3.49006 3.51349C3.20455 3.78196 2.85938 3.91619 2.45455 3.91619ZM11.2708 5.18182V7.22727H5.21112V5.18182H11.2708ZM6.59819 15V4.4723C6.59819 3.76065 6.73668 3.17045 7.01367 2.7017C7.29492 2.23295 7.67844 1.88139 8.16424 1.64702C8.65004 1.41264 9.20188 1.29545 9.81978 1.29545C10.2374 1.29545 10.6188 1.32741 10.964 1.39134C11.3134 1.45526 11.5733 1.51278 11.7438 1.56392L11.258 3.60938C11.1515 3.57528 11.0194 3.54332 10.8617 3.51349C10.7083 3.48366 10.5506 3.46875 10.3887 3.46875C9.9881 3.46875 9.70898 3.5625 9.55131 3.75C9.39364 3.93324 9.31481 4.19105 9.31481 4.52344V15H6.59819ZM16.9137 13.074H31.6557V14.316H16.9137V13.074ZM23.5377 9.132H25.0137V13.488H23.5377V9.132ZM23.5017 2.184H24.7617V3.192C24.7617 6.522 21.4317 9.042 18.2277 9.708L17.6157 8.52C20.4237 8.052 23.5017 5.766 23.5017 3.192V2.184ZM23.7717 2.184H25.0317V3.192C25.0317 5.766 28.1277 7.998 30.9717 8.466L30.3777 9.654C27.1197 9.006 23.7717 6.522 23.7717 3.192V2.184ZM18.1197 1.608H30.4137V2.832H18.1197V1.608ZM45.3523 0.131999H46.8463V12.156H45.3523V0.131999ZM41.8423 5.154H45.6403V6.396H41.8423V5.154ZM40.3303 1.392H41.8963C41.8963 5.586 38.9443 8.772 34.3543 10.302L33.7063 9.096C37.6843 7.764 40.3303 5.208 40.3303 1.986V1.392ZM34.5163 1.392H41.3023V2.616H34.5163V1.392ZM36.5683 14.82H47.2603V16.044H36.5683V14.82ZM36.5683 10.95H38.0623V15.432H36.5683V10.95ZM54.2609 0.905999H55.5029V2.49C55.5029 5.568 53.6669 8.214 50.9129 9.258L50.1569 8.07C52.6229 7.17 54.2609 4.92 54.2609 2.49V0.905999ZM54.5309 0.905999H55.7549V2.49C55.7549 4.83 57.4289 6.936 59.8409 7.782L59.0849 8.952C56.3669 7.962 54.5309 5.478 54.5309 2.49V0.905999ZM52.4969 10.752H63.3689V16.404H61.8569V11.976H52.4969V10.752ZM61.8569 0.131999H63.3689V9.924H61.8569V0.131999ZM68.3677 15.1662C67.9458 15.1662 67.5836 15.017 67.2811 14.7188C66.9828 14.4162 66.8336 14.054 66.8336 13.6321C66.8336 13.2145 66.9828 12.8565 67.2811 12.5582C67.5836 12.2599 67.9458 12.1108 68.3677 12.1108C68.7768 12.1108 69.1348 12.2599 69.4416 12.5582C69.7484 12.8565 69.9018 13.2145 69.9018 13.6321C69.9018 13.9134 69.8294 14.1712 69.6845 14.4055C69.5439 14.6357 69.3585 14.821 69.1284 14.9616C68.8983 15.098 68.6447 15.1662 68.3677 15.1662ZM68.3677 8.28835C67.9458 8.28835 67.5836 8.1392 67.2811 7.84091C66.9828 7.54261 66.8336 7.1804 66.8336 6.75426C66.8336 6.33665 66.9828 5.98082 67.2811 5.68679C67.5836 5.38849 67.9458 5.23935 68.3677 5.23935C68.7768 5.23935 69.1348 5.38849 69.4416 5.68679C69.7484 5.98082 69.9018 6.33665 69.9018 6.75426C69.9018 7.03977 69.8294 7.29972 69.6845 7.53409C69.5439 7.7642 69.3585 7.94744 69.1284 8.08381C68.8983 8.22017 68.6447 8.28835 68.3677 8.28835ZM46.1081 24.132H47.6021V32.43H46.1081V24.132ZM40.9601 24.924H42.5801C42.5801 29.028 39.7541 31.656 35.0021 32.808L34.4801 31.584C38.6921 30.612 40.9601 28.47 40.9601 25.662V24.924ZM35.3261 24.924H41.6441V26.148H35.3261V24.924ZM42.0041 26.472H46.3601V27.66H42.0041V26.472ZM41.8601 29.586H46.2701V30.756H41.8601V29.586ZM37.1261 33.186H47.6021V37.182H38.6561V39.774H37.1801V36.03H46.1261V34.392H37.1261V33.186ZM37.1801 39.054H48.1421V40.242H37.1801V39.054ZM51.5067 25.914H58.8687V27.12H51.5067V25.914ZM54.0447 30.558H55.5207V36.066H54.0447V30.558ZM58.2567 25.914H59.7147V26.778C59.7147 28.11 59.7147 30.234 59.2467 33.258L57.7707 33.114C58.2567 30.18 58.2567 28.092 58.2567 26.778V25.914ZM61.7667 24.132H63.2427V40.404H61.7667V24.132ZM62.8467 30.936H65.8527V32.196H62.8467V30.936ZM50.7867 36.858L50.6067 35.598C53.5587 35.598 57.4827 35.544 60.7767 35.13L60.8487 36.228C57.4827 36.768 53.6667 36.84 50.7867 36.858ZM72.4027 25.9091V39H70.8175V27.571H70.7408L67.5447 29.6932V28.0824L70.8175 25.9091H72.4027ZM5.56108 63.1918C4.55114 63.1918 3.68182 62.9872 2.95312 62.5781C2.22869 62.1648 1.67045 61.581 1.27841 60.8267C0.886364 60.0682 0.690341 59.1712 0.690341 58.1357C0.690341 57.1257 0.886364 56.2393 1.27841 55.4766C1.67045 54.7138 2.2223 54.1193 2.93395 53.6932C3.64986 53.267 4.48935 53.054 5.45241 53.054C6.10014 53.054 6.70313 53.1584 7.26136 53.3672C7.82386 53.5717 8.31392 53.8807 8.73153 54.294C9.15341 54.7074 9.48153 55.2273 9.71591 55.8537C9.95028 56.4759 10.0675 57.2045 10.0675 58.0398V58.7876H1.77699V57.1001H7.50426C7.50426 56.7081 7.41903 56.3608 7.24858 56.0582C7.07813 55.7557 6.84162 55.5192 6.53906 55.3487C6.24077 55.174 5.89347 55.0866 5.49716 55.0866C5.08381 55.0866 4.71733 55.1825 4.39773 55.3743C4.08239 55.5618 3.83523 55.8153 3.65625 56.1349C3.47727 56.4503 3.38565 56.8018 3.38139 57.1896V58.794C3.38139 59.2798 3.47088 59.6996 3.64986 60.0533C3.8331 60.407 4.09091 60.6797 4.4233 60.8714C4.75568 61.0632 5.14986 61.1591 5.60582 61.1591C5.90838 61.1591 6.18537 61.1165 6.43679 61.0312C6.68821 60.946 6.90341 60.8182 7.08239 60.6477C7.26136 60.4773 7.39773 60.2685 7.49148 60.0213L10.0099 60.1875C9.8821 60.7926 9.62003 61.321 9.22372 61.7727C8.83168 62.2202 8.32457 62.5696 7.70241 62.821C7.08452 63.0682 6.37074 63.1918 5.56108 63.1918ZM14.5675 49.9091V63H11.8445V49.9091H14.5675ZM24.9178 55.9815L22.4249 56.1349C22.3823 55.9219 22.2907 55.7301 22.15 55.5597C22.0094 55.3849 21.824 55.2464 21.5939 55.1442C21.3681 55.0376 21.0975 54.9844 20.7821 54.9844C20.3603 54.9844 20.0044 55.0739 19.7147 55.2528C19.4249 55.4276 19.28 55.6619 19.28 55.956C19.28 56.1903 19.3738 56.3885 19.5613 56.5504C19.7488 56.7124 20.0705 56.8423 20.5265 56.9403L22.3034 57.2983C23.258 57.4943 23.9696 57.8097 24.4384 58.2443C24.9071 58.679 25.1415 59.25 25.1415 59.9574C25.1415 60.6009 24.9519 61.1655 24.5726 61.6513C24.1976 62.1371 23.682 62.5163 23.0257 62.7891C22.3738 63.0575 21.6216 63.1918 20.7694 63.1918C19.4696 63.1918 18.4341 62.9212 17.6628 62.38C16.8958 61.8345 16.4462 61.093 16.3141 60.1555L18.9924 60.0149C19.0733 60.4112 19.2694 60.7138 19.5804 60.9226C19.8915 61.1271 20.29 61.2294 20.7757 61.2294C21.253 61.2294 21.6365 61.1378 21.9263 60.9545C22.2203 60.767 22.3695 60.5263 22.3738 60.2322C22.3695 59.9851 22.2651 59.7827 22.0605 59.625C21.856 59.4631 21.5407 59.3395 21.1145 59.2543L19.4142 58.9155C18.4554 58.7237 17.7417 58.3913 17.2729 57.9183C16.8084 57.4453 16.5762 56.8423 16.5762 56.1094C16.5762 55.4787 16.7466 54.9354 17.0875 54.4794C17.4327 54.0234 17.9164 53.6719 18.5385 53.4247C19.165 53.1776 19.8979 53.054 20.7374 53.054C21.9775 53.054 22.9533 53.3161 23.665 53.8402C24.3809 54.3643 24.7985 55.0781 24.9178 55.9815ZM31.3306 63.1918C30.3207 63.1918 29.4513 62.9872 28.7227 62.5781C27.9982 62.1648 27.44 61.581 27.0479 60.8267C26.6559 60.0682 26.4599 59.1712 26.4599 58.1357C26.4599 57.1257 26.6559 56.2393 27.0479 55.4766C27.44 54.7138 27.9918 54.1193 28.7035 53.6932C29.4194 53.267 30.2589 53.054 31.2219 53.054C31.8697 53.054 32.4727 53.1584 33.0309 53.3672C33.5934 53.5717 34.0835 53.8807 34.5011 54.294C34.9229 54.7074 35.2511 55.2273 35.4854 55.8537C35.7198 56.4759 35.837 57.2045 35.837 58.0398V58.7876H27.5465V57.1001H33.2738C33.2738 56.7081 33.1886 56.3608 33.0181 56.0582C32.8477 55.7557 32.6112 55.5192 32.3086 55.3487C32.0103 55.174 31.663 55.0866 31.2667 55.0866C30.8533 55.0866 30.4869 55.1825 30.1673 55.3743C29.8519 55.5618 29.6048 55.8153 29.4258 56.1349C29.2468 56.4503 29.1552 56.8018 29.1509 57.1896V58.794C29.1509 59.2798 29.2404 59.6996 29.4194 60.0533C29.6026 60.407 29.8604 60.6797 30.1928 60.8714C30.5252 61.0632 30.9194 61.1591 31.3754 61.1591C31.6779 61.1591 31.9549 61.1165 32.2063 61.0312C32.4577 60.946 32.6729 60.8182 32.8519 60.6477C33.0309 60.4773 33.1673 60.2685 33.261 60.0213L35.7795 60.1875C35.6516 60.7926 35.3896 61.321 34.9933 61.7727C34.6012 62.2202 34.0941 62.5696 33.4719 62.821C32.854 63.0682 32.1403 63.1918 31.3306 63.1918ZM39.2056 63.1662C38.7837 63.1662 38.4215 63.017 38.119 62.7188C37.8207 62.4162 37.6715 62.054 37.6715 61.6321C37.6715 61.2145 37.8207 60.8565 38.119 60.5582C38.4215 60.2599 38.7837 60.1108 39.2056 60.1108C39.6147 60.1108 39.9727 60.2599 40.2795 60.5582C40.5863 60.8565 40.7397 61.2145 40.7397 61.6321C40.7397 61.9134 40.6673 62.1712 40.5224 62.4055C40.3817 62.6357 40.1964 62.821 39.9663 62.9616C39.7362 63.098 39.4826 63.1662 39.2056 63.1662ZM39.2056 56.2884C38.7837 56.2884 38.4215 56.1392 38.119 55.8409C37.8207 55.5426 37.6715 55.1804 37.6715 54.7543C37.6715 54.3366 37.8207 53.9808 38.119 53.6868C38.4215 53.3885 38.7837 53.2393 39.2056 53.2393C39.6147 53.2393 39.9727 53.3885 40.2795 53.6868C40.5863 53.9808 40.7397 54.3366 40.7397 54.7543C40.7397 55.0398 40.6673 55.2997 40.5224 55.5341C40.3817 55.7642 40.1964 55.9474 39.9663 56.0838C39.7362 56.2202 39.4826 56.2884 39.2056 56.2884ZM46.1081 72.132H47.6021V80.43H46.1081V72.132ZM40.9601 72.924H42.5801C42.5801 77.028 39.7541 79.656 35.0021 80.808L34.4801 79.584C38.6921 78.612 40.9601 76.47 40.9601 73.662V72.924ZM35.3261 72.924H41.6441V74.148H35.3261V72.924ZM42.0041 74.472H46.3601V75.66H42.0041V74.472ZM41.8601 77.586H46.2701V78.756H41.8601V77.586ZM37.1261 81.186H47.6021V85.182H38.6561V87.774H37.1801V84.03H46.1261V82.392H37.1261V81.186ZM37.1801 87.054H48.1421V88.242H37.1801V87.054ZM51.5067 73.914H58.8687V75.12H51.5067V73.914ZM54.0447 78.558H55.5207V84.066H54.0447V78.558ZM58.2567 73.914H59.7147V74.778C59.7147 76.11 59.7147 78.234 59.2467 81.258L57.7707 81.114C58.2567 78.18 58.2567 76.092 58.2567 74.778V73.914ZM61.7667 72.132H63.2427V88.404H61.7667V72.132ZM62.8467 78.936H65.8527V80.196H62.8467V78.936ZM50.7867 84.858L50.6067 83.598C53.5587 83.598 57.4827 83.544 60.7767 83.13L60.8487 84.228C57.4827 84.768 53.6667 84.84 50.7867 84.858ZM67.8004 87V85.8494L72.1214 81.1193C72.6286 80.5653 73.0462 80.0838 73.3743 79.6747C73.7024 79.2614 73.9453 78.8736 74.103 78.5114C74.2649 78.1449 74.3459 77.7614 74.3459 77.3608C74.3459 76.9006 74.2351 76.5021 74.0135 76.1655C73.7962 75.8288 73.4979 75.5689 73.1186 75.3857C72.7393 75.2024 72.3132 75.1108 71.8402 75.1108C71.3374 75.1108 70.8984 75.2152 70.5234 75.424C70.1527 75.6286 69.8651 75.9162 69.6605 76.2869C69.4602 76.6577 69.3601 77.0923 69.3601 77.5909H67.8516C67.8516 76.8239 68.0284 76.1506 68.3821 75.571C68.7358 74.9915 69.2173 74.5398 69.8267 74.2159C70.4403 73.892 71.1286 73.7301 71.8913 73.7301C72.6584 73.7301 73.3381 73.892 73.9304 74.2159C74.5227 74.5398 74.9872 74.9766 75.3239 75.5263C75.6605 76.076 75.8288 76.6875 75.8288 77.3608C75.8288 77.8423 75.7415 78.3132 75.5668 78.7734C75.3963 79.2294 75.098 79.7386 74.6719 80.3011C74.25 80.8594 73.6641 81.5412 72.9141 82.3466L69.9737 85.4915V85.5938H76.0589V87H67.8004Z" fill="black"/>
</svg>
