<svg width="335" height="136" viewBox="0 0 335 136" fill="none" xmlns="http://www.w3.org/2000/svg">
<path d="M4.70455 14.1598C3.95881 14.1598 3.28338 13.968 2.67827 13.5845C2.07741 13.1967 1.60014 12.6278 1.24645 11.8778C0.897017 11.1236 0.722301 10.1989 0.722301 9.10369C0.722301 7.97869 0.903409 7.04332 1.26562 6.29759C1.62784 5.54759 2.10938 4.98722 2.71023 4.61648C3.31534 4.24148 3.97798 4.05398 4.69815 4.05398C5.24787 4.05398 5.70597 4.14773 6.07244 4.33523C6.44318 4.51847 6.74148 4.74858 6.96733 5.02557C7.19744 5.2983 7.37216 5.56676 7.49148 5.83097H7.57457V0.909091H10.2912V14H7.60653V12.4276H7.49148C7.36364 12.7003 7.18253 12.9709 6.94815 13.2393C6.71804 13.5036 6.41761 13.723 6.04688 13.8977C5.6804 14.0724 5.23295 14.1598 4.70455 14.1598ZM5.56747 11.9929C6.00639 11.9929 6.37713 11.8736 6.67969 11.6349C6.98651 11.392 7.22088 11.0533 7.38281 10.6186C7.54901 10.1839 7.6321 9.67472 7.6321 9.09091C7.6321 8.5071 7.55114 8 7.3892 7.5696C7.22727 7.1392 6.9929 6.80682 6.68608 6.57244C6.37926 6.33807 6.00639 6.22088 5.56747 6.22088C5.12003 6.22088 4.7429 6.34233 4.43608 6.58523C4.12926 6.82812 3.89702 7.16477 3.73935 7.59517C3.58168 8.02557 3.50284 8.52415 3.50284 9.09091C3.50284 9.66193 3.58168 10.1669 3.73935 10.6058C3.90128 11.0405 4.13352 11.3814 4.43608 11.6286C4.7429 11.8714 5.12003 11.9929 5.56747 11.9929ZM16.8244 14.1918C15.8145 14.1918 14.9452 13.9872 14.2165 13.5781C13.4921 13.1648 12.9338 12.581 12.5418 11.8267C12.1497 11.0682 11.9537 10.1712 11.9537 9.13565C11.9537 8.12571 12.1497 7.23935 12.5418 6.47656C12.9338 5.71378 13.4857 5.11932 14.1973 4.69318C14.9132 4.26705 15.7527 4.05398 16.7158 4.05398C17.3635 4.05398 17.9665 4.15838 18.5247 4.36719C19.0872 4.57173 19.5773 4.88068 19.9949 5.29403C20.4168 5.70739 20.7449 6.22727 20.9793 6.85369C21.2136 7.47585 21.3308 8.20455 21.3308 9.03977V9.78764H13.0403V8.10014H18.7676C18.7676 7.7081 18.6824 7.3608 18.5119 7.05824C18.3415 6.75568 18.105 6.51918 17.8024 6.34872C17.5041 6.17401 17.1568 6.08665 16.7605 6.08665C16.3472 6.08665 15.9807 6.18253 15.6611 6.37429C15.3457 6.56179 15.0986 6.81534 14.9196 7.13494C14.7406 7.45028 14.649 7.80185 14.6448 8.18963V9.79403C14.6448 10.2798 14.7342 10.6996 14.9132 11.0533C15.0965 11.407 15.3543 11.6797 15.6867 11.8714C16.019 12.0632 16.4132 12.1591 16.8692 12.1591C17.1717 12.1591 17.4487 12.1165 17.7001 12.0312C17.9516 11.946 18.1668 11.8182 18.3457 11.6477C18.5247 11.4773 18.6611 11.2685 18.7548 11.0213L21.2733 11.1875C21.1455 11.7926 20.8834 12.321 20.4871 12.7727C20.095 13.2202 19.5879 13.5696 18.9658 13.821C18.3479 14.0682 17.6341 14.1918 16.8244 14.1918ZM28.2076 4.18182V6.22727H22.148V4.18182H28.2076ZM23.5351 14V3.4723C23.5351 2.76065 23.6736 2.17045 23.9505 1.7017C24.2318 1.23295 24.6153 0.881391 25.1011 0.647016C25.5869 0.412641 26.1388 0.295454 26.7567 0.295454C27.1743 0.295454 27.5557 0.327414 27.9008 0.391335C28.2503 0.455255 28.5102 0.512784 28.6807 0.56392L28.1949 2.60938C28.0883 2.57528 27.9562 2.54332 27.7986 2.51349C27.6451 2.48366 27.4875 2.46875 27.3255 2.46875C26.925 2.46875 26.6459 2.5625 26.4882 2.75C26.3305 2.93324 26.2517 3.19105 26.2517 3.52344V14H23.5351ZM41.1751 14V16.0646H32.5778V14H41.1751ZM49.5732 14V16.0646H40.9759V14H49.5732ZM51.0887 14V4.18182H53.8117V14H51.0887ZM52.4566 2.91619C52.0517 2.91619 51.7044 2.78196 51.4147 2.51349C51.1292 2.24077 50.9864 1.91477 50.9864 1.53551C50.9864 1.16051 51.1292 0.838778 51.4147 0.570312C51.7044 0.297585 52.0517 0.161221 52.4566 0.161221C52.8614 0.161221 53.2066 0.297585 53.4921 0.570312C53.7819 0.838778 53.9267 1.16051 53.9267 1.53551C53.9267 1.91477 53.7819 2.24077 53.4921 2.51349C53.2066 2.78196 52.8614 2.91619 52.4566 2.91619ZM58.536 8.32386V14H55.813V4.18182H58.4081V5.91406H58.5232C58.7405 5.34304 59.1049 4.89133 59.6162 4.55895C60.1276 4.2223 60.7476 4.05398 61.4763 4.05398C62.1581 4.05398 62.7526 4.20312 63.2597 4.50142C63.7668 4.79972 64.161 5.22585 64.4422 5.77983C64.7235 6.32955 64.8641 6.9858 64.8641 7.74858V14H62.1411V8.23438C62.1454 7.63352 61.992 7.16477 61.6809 6.82812C61.3698 6.48722 60.9415 6.31676 60.3961 6.31676C60.0296 6.31676 59.7057 6.3956 59.4245 6.55327C59.1475 6.71094 58.9302 6.94105 58.7725 7.24361C58.6191 7.5419 58.5403 7.90199 58.536 8.32386ZM66.8302 14V4.18182H69.5533V14H66.8302ZM68.1981 2.91619C67.7933 2.91619 67.446 2.78196 67.1562 2.51349C66.8707 2.24077 66.728 1.91477 66.728 1.53551C66.728 1.16051 66.8707 0.838778 67.1562 0.570312C67.446 0.297585 67.7933 0.161221 68.1981 0.161221C68.603 0.161221 68.9481 0.297585 69.2336 0.570312C69.5234 0.838778 69.6683 1.16051 69.6683 1.53551C69.6683 1.91477 69.5234 2.24077 69.2336 2.51349C68.9481 2.78196 68.603 2.91619 68.1981 2.91619ZM76.7768 4.18182V6.22727H70.8642V4.18182H76.7768ZM72.2065 1.82955H74.9295V10.983C74.9295 11.2344 74.9679 11.4304 75.0446 11.571C75.1213 11.7074 75.2278 11.8033 75.3642 11.8587C75.5048 11.9141 75.6668 11.9418 75.85 11.9418C75.9778 11.9418 76.1057 11.9311 76.2335 11.9098C76.3614 11.8842 76.4594 11.8651 76.5275 11.8523L76.9558 13.8786C76.8195 13.9212 76.6277 13.9702 76.3805 14.0256C76.1334 14.0852 75.8329 14.1214 75.4793 14.1342C74.823 14.1598 74.2477 14.0724 73.7534 13.8722C73.2633 13.6719 72.882 13.3608 72.6092 12.9389C72.3365 12.517 72.2023 11.9844 72.2065 11.3409V1.82955ZM85.8685 14V16.0646H77.2712V14H85.8685ZM94.2666 14V16.0646H85.6693V14H94.2666ZM95.7677 8.75213C95.7677 7.1669 95.9787 5.70739 96.4005 4.37358C96.8267 3.03977 97.4765 1.80398 98.3501 0.666193H100.952C100.619 1.08807 100.31 1.60369 100.025 2.21307C99.7393 2.81818 99.49 3.48295 99.277 4.20739C99.0639 4.93182 98.8977 5.68182 98.7784 6.45739C98.6591 7.22869 98.5994 7.99361 98.5994 8.75213C98.5994 9.76207 98.7017 10.7827 98.9062 11.8139C99.115 12.8409 99.3963 13.7955 99.75 14.6776C100.108 15.5597 100.508 16.282 100.952 16.8445H98.3501C97.4765 15.7067 96.8267 14.4709 96.4005 13.1371C95.9787 11.8033 95.7677 10.3416 95.7677 8.75213ZM110.521 6.98153L108.028 7.13494C107.986 6.92187 107.894 6.73011 107.753 6.55966C107.613 6.38494 107.427 6.24645 107.197 6.14418C106.971 6.03764 106.701 5.98438 106.386 5.98438C105.964 5.98438 105.608 6.07386 105.318 6.25284C105.028 6.42756 104.883 6.66193 104.883 6.95597C104.883 7.19034 104.977 7.38849 105.165 7.55043C105.352 7.71236 105.674 7.84233 106.13 7.94034L107.907 8.2983C108.861 8.49432 109.573 8.80966 110.042 9.24432C110.511 9.67898 110.745 10.25 110.745 10.9574C110.745 11.6009 110.555 12.1655 110.176 12.6513C109.801 13.1371 109.285 13.5163 108.629 13.7891C107.977 14.0575 107.225 14.1918 106.373 14.1918C105.073 14.1918 104.037 13.9212 103.266 13.38C102.499 12.8345 102.05 12.093 101.917 11.1555L104.596 11.0149C104.677 11.4112 104.873 11.7138 105.184 11.9226C105.495 12.1271 105.893 12.2294 106.379 12.2294C106.856 12.2294 107.24 12.1378 107.53 11.9545C107.824 11.767 107.973 11.5263 107.977 11.2322C107.973 10.9851 107.868 10.7827 107.664 10.625C107.459 10.4631 107.144 10.3395 106.718 10.2543L105.018 9.91548C104.059 9.72372 103.345 9.39134 102.876 8.91832C102.412 8.44531 102.18 7.84233 102.18 7.10938C102.18 6.47869 102.35 5.93537 102.691 5.4794C103.036 5.02344 103.52 4.67188 104.142 4.42472C104.768 4.17756 105.501 4.05398 106.341 4.05398C107.581 4.05398 108.557 4.31605 109.268 4.8402C109.984 5.36435 110.402 6.07812 110.521 6.98153ZM116.754 14.1918C115.744 14.1918 114.875 13.9872 114.146 13.5781C113.422 13.1648 112.863 12.581 112.471 11.8267C112.079 11.0682 111.883 10.1712 111.883 9.13565C111.883 8.12571 112.079 7.23935 112.471 6.47656C112.863 5.71378 113.415 5.11932 114.127 4.69318C114.843 4.26705 115.682 4.05398 116.645 4.05398C117.293 4.05398 117.896 4.15838 118.454 4.36719C119.017 4.57173 119.507 4.88068 119.924 5.29403C120.346 5.70739 120.674 6.22727 120.909 6.85369C121.143 7.47585 121.26 8.20455 121.26 9.03977V9.78764H112.97V8.10014H118.697C118.697 7.7081 118.612 7.3608 118.441 7.05824C118.271 6.75568 118.035 6.51918 117.732 6.34872C117.434 6.17401 117.086 6.08665 116.69 6.08665C116.277 6.08665 115.91 6.18253 115.591 6.37429C115.275 6.56179 115.028 6.81534 114.849 7.13494C114.67 7.45028 114.579 7.80185 114.574 8.18963V9.79403C114.574 10.2798 114.664 10.6996 114.843 11.0533C115.026 11.407 115.284 11.6797 115.616 11.8714C115.949 12.0632 116.343 12.1591 116.799 12.1591C117.101 12.1591 117.378 12.1165 117.63 12.0312C117.881 11.946 118.096 11.8182 118.275 11.6477C118.454 11.4773 118.591 11.2685 118.684 11.0213L121.203 11.1875C121.075 11.7926 120.813 12.321 120.417 12.7727C120.025 13.2202 119.517 13.5696 118.895 13.821C118.277 14.0682 117.564 14.1918 116.754 14.1918ZM125.58 0.909091V14H122.857V0.909091H125.58ZM132.861 4.18182V6.22727H126.802V4.18182H132.861ZM128.189 14V3.4723C128.189 2.76065 128.327 2.17045 128.604 1.7017C128.886 1.23295 129.269 0.881391 129.755 0.647016C130.241 0.412641 130.793 0.295454 131.41 0.295454C131.828 0.295454 132.209 0.327414 132.555 0.391335C132.904 0.455255 133.164 0.512784 133.334 0.56392L132.849 2.60938C132.742 2.57528 132.61 2.54332 132.452 2.51349C132.299 2.48366 132.141 2.46875 131.979 2.46875C131.579 2.46875 131.3 2.5625 131.142 2.75C130.984 2.93324 130.906 3.19105 130.906 3.52344V14H128.189ZM136.285 12.2102L136.215 12.9134C136.159 13.4759 136.053 14.0362 135.895 14.5945C135.742 15.157 135.58 15.6662 135.409 16.1222C135.243 16.5781 135.109 16.9361 135.007 17.196H133.242C133.306 16.9446 133.394 16.593 133.504 16.1413C133.615 15.6939 133.72 15.1911 133.818 14.6328C133.916 14.0746 133.977 13.5057 134.003 12.9261L134.035 12.2102H136.285ZM143.771 14V4.18182H145.28V14H143.771ZM144.538 2.54545C144.244 2.54545 143.991 2.44531 143.778 2.24503C143.569 2.04474 143.464 1.80398 143.464 1.52273C143.464 1.24148 143.569 1.00071 143.778 0.800426C143.991 0.600142 144.244 0.5 144.538 0.5C144.832 0.5 145.084 0.600142 145.293 0.800426C145.506 1.00071 145.612 1.24148 145.612 1.52273C145.612 1.80398 145.506 2.04474 145.293 2.24503C145.084 2.44531 144.832 2.54545 144.538 2.54545ZM149.371 8.09375V14H147.863V4.18182H149.32V5.71591H149.448C149.678 5.21733 150.027 4.81676 150.496 4.5142C150.965 4.20739 151.57 4.05398 152.312 4.05398C152.976 4.05398 153.558 4.19034 154.057 4.46307C154.555 4.73153 154.943 5.14062 155.22 5.69034C155.497 6.2358 155.635 6.92614 155.635 7.76136V14H154.127V7.86364C154.127 7.09233 153.927 6.49148 153.526 6.06108C153.125 5.62642 152.576 5.40909 151.877 5.40909C151.395 5.40909 150.965 5.51349 150.586 5.7223C150.211 5.93111 149.915 6.2358 149.697 6.63636C149.48 7.03693 149.371 7.52273 149.371 8.09375ZM165.167 6.38068L163.811 6.7642C163.726 6.53835 163.601 6.31889 163.434 6.10582C163.272 5.88849 163.051 5.70952 162.77 5.56889C162.488 5.42827 162.128 5.35795 161.689 5.35795C161.088 5.35795 160.588 5.49645 160.187 5.77344C159.791 6.04616 159.593 6.39347 159.593 6.81534C159.593 7.19034 159.729 7.48651 160.002 7.70384C160.275 7.92116 160.701 8.10227 161.28 8.24716L162.738 8.60511C163.615 8.81818 164.27 9.14418 164.7 9.5831C165.13 10.0178 165.346 10.5781 165.346 11.2642C165.346 11.8267 165.184 12.3295 164.86 12.7727C164.54 13.2159 164.093 13.5653 163.517 13.821C162.942 14.0767 162.273 14.2045 161.51 14.2045C160.509 14.2045 159.68 13.9872 159.024 13.5526C158.368 13.1179 157.952 12.483 157.777 11.6477L159.209 11.2898C159.346 11.8182 159.603 12.2145 159.983 12.4787C160.366 12.7429 160.867 12.875 161.485 12.875C162.188 12.875 162.746 12.7259 163.159 12.4276C163.577 12.125 163.786 11.7628 163.786 11.3409C163.786 11 163.667 10.7145 163.428 10.4844C163.189 10.25 162.823 10.0753 162.328 9.96023L160.692 9.5767C159.793 9.36364 159.132 9.03338 158.711 8.58594C158.293 8.13423 158.084 7.5696 158.084 6.89205C158.084 6.33807 158.24 5.84801 158.551 5.42188C158.866 4.99574 159.294 4.66122 159.836 4.41832C160.381 4.17543 160.999 4.05398 161.689 4.05398C162.661 4.05398 163.424 4.26705 163.978 4.69318C164.536 5.11932 164.932 5.68182 165.167 6.38068ZM171.706 4.18182V5.46023H166.618V4.18182H171.706ZM168.101 1.82955H169.61V11.1875C169.61 11.6136 169.671 11.9332 169.795 12.1463C169.923 12.3551 170.085 12.4957 170.281 12.5682C170.481 12.6364 170.692 12.6705 170.914 12.6705C171.08 12.6705 171.216 12.6619 171.323 12.6449C171.429 12.6236 171.514 12.6065 171.578 12.5938L171.885 13.9489C171.783 13.9872 171.64 14.0256 171.457 14.0639C171.274 14.1065 171.041 14.1278 170.76 14.1278C170.334 14.1278 169.916 14.0362 169.507 13.853C169.102 13.6697 168.766 13.3906 168.497 13.0156C168.233 12.6406 168.101 12.1676 168.101 11.5966V1.82955ZM180.571 14V15.4062H172.389V14H180.571ZM184.38 0.909091V14H182.794V2.57102H182.718L179.522 4.69318V3.08239L182.794 0.909091H184.38ZM190.656 12.2102L190.585 12.9134C190.53 13.4759 190.423 14.0362 190.266 14.5945C190.112 15.157 189.95 15.6662 189.78 16.1222C189.614 16.5781 189.479 16.9361 189.377 17.196H187.613C187.677 16.9446 187.764 16.593 187.875 16.1413C187.986 15.6939 188.09 15.1911 188.188 14.6328C188.286 14.0746 188.348 13.5057 188.374 12.9261L188.406 12.2102H190.656ZM196.63 14V4.18182H198.139V14H196.63ZM197.397 2.54545C197.103 2.54545 196.85 2.44531 196.636 2.24503C196.428 2.04474 196.323 1.80398 196.323 1.52273C196.323 1.24148 196.428 1.00071 196.636 0.800426C196.85 0.600142 197.103 0.5 197.397 0.5C197.691 0.5 197.943 0.600142 198.151 0.800426C198.364 1.00071 198.471 1.24148 198.471 1.52273C198.471 1.80398 198.364 2.04474 198.151 2.24503C197.943 2.44531 197.691 2.54545 197.397 2.54545ZM202.23 8.09375V14H200.722V4.18182H202.179V5.71591H202.307C202.537 5.21733 202.886 4.81676 203.355 4.5142C203.824 4.20739 204.429 4.05398 205.17 4.05398C205.835 4.05398 206.417 4.19034 206.915 4.46307C207.414 4.73153 207.802 5.14062 208.079 5.69034C208.356 6.2358 208.494 6.92614 208.494 7.76136V14H206.986V7.86364C206.986 7.09233 206.785 6.49148 206.385 6.06108C205.984 5.62642 205.435 5.40909 204.736 5.40909C204.254 5.40909 203.824 5.51349 203.445 5.7223C203.07 5.93111 202.773 6.2358 202.556 6.63636C202.339 7.03693 202.23 7.52273 202.23 8.09375ZM218.025 6.38068L216.67 6.7642C216.585 6.53835 216.459 6.31889 216.293 6.10582C216.131 5.88849 215.91 5.70952 215.628 5.56889C215.347 5.42827 214.987 5.35795 214.548 5.35795C213.947 5.35795 213.447 5.49645 213.046 5.77344C212.65 6.04616 212.452 6.39347 212.452 6.81534C212.452 7.19034 212.588 7.48651 212.861 7.70384C213.133 7.92116 213.559 8.10227 214.139 8.24716L215.596 8.60511C216.474 8.81818 217.128 9.14418 217.559 9.5831C217.989 10.0178 218.204 10.5781 218.204 11.2642C218.204 11.8267 218.042 12.3295 217.719 12.7727C217.399 13.2159 216.952 13.5653 216.376 13.821C215.801 14.0767 215.132 14.2045 214.369 14.2045C213.368 14.2045 212.539 13.9872 211.883 13.5526C211.226 13.1179 210.811 12.483 210.636 11.6477L212.068 11.2898C212.204 11.8182 212.462 12.2145 212.841 12.4787C213.225 12.7429 213.726 12.875 214.344 12.875C215.047 12.875 215.605 12.7259 216.018 12.4276C216.436 12.125 216.645 11.7628 216.645 11.3409C216.645 11 216.525 10.7145 216.287 10.4844C216.048 10.25 215.682 10.0753 215.187 9.96023L213.551 9.5767C212.652 9.36364 211.991 9.03338 211.569 8.58594C211.152 8.13423 210.943 7.5696 210.943 6.89205C210.943 6.33807 211.099 5.84801 211.41 5.42188C211.725 4.99574 212.153 4.66122 212.694 4.41832C213.24 4.17543 213.858 4.05398 214.548 4.05398C215.52 4.05398 216.282 4.26705 216.836 4.69318C217.395 5.11932 217.791 5.68182 218.025 6.38068ZM224.565 4.18182V5.46023H219.477V4.18182H224.565ZM220.96 1.82955H222.468V11.1875C222.468 11.6136 222.53 11.9332 222.654 12.1463C222.782 12.3551 222.944 12.4957 223.14 12.5682C223.34 12.6364 223.551 12.6705 223.772 12.6705C223.939 12.6705 224.075 12.6619 224.182 12.6449C224.288 12.6236 224.373 12.6065 224.437 12.5938L224.744 13.9489C224.642 13.9872 224.499 14.0256 224.316 14.0639C224.132 14.1065 223.9 14.1278 223.619 14.1278C223.193 14.1278 222.775 14.0362 222.366 13.853C221.961 13.6697 221.625 13.3906 221.356 13.0156C221.092 12.6406 220.96 12.1676 220.96 11.5966V1.82955ZM233.43 14V15.4062H225.248V14H233.43ZM234.587 14V12.8494L238.908 8.11932C239.415 7.56534 239.833 7.08381 240.161 6.67472C240.489 6.26136 240.732 5.87358 240.89 5.51136C241.052 5.14489 241.133 4.76136 241.133 4.3608C241.133 3.90057 241.022 3.50213 240.8 3.16548C240.583 2.82883 240.285 2.56889 239.905 2.38565C239.526 2.20241 239.1 2.1108 238.627 2.1108C238.124 2.1108 237.685 2.2152 237.31 2.42401C236.94 2.62855 236.652 2.91619 236.447 3.28693C236.247 3.65767 236.147 4.09233 236.147 4.59091H234.638C234.638 3.82386 234.815 3.15057 235.169 2.57102C235.523 1.99148 236.004 1.53977 236.614 1.21591C237.227 0.892045 237.915 0.730113 238.678 0.730113C239.445 0.730113 240.125 0.892045 240.717 1.21591C241.31 1.53977 241.774 1.97656 242.111 2.52628C242.447 3.07599 242.616 3.6875 242.616 4.3608C242.616 4.84233 242.528 5.31321 242.354 5.77344C242.183 6.2294 241.885 6.73864 241.459 7.30114C241.037 7.85937 240.451 8.54119 239.701 9.34659L236.761 12.4915V12.5938H242.846V14H234.587ZM247.997 12.2102L247.926 12.9134C247.871 13.4759 247.765 14.0362 247.607 14.5945C247.453 15.157 247.292 15.6662 247.121 16.1222C246.955 16.5781 246.821 16.9361 246.718 17.196H244.954C245.018 16.9446 245.105 16.593 245.216 16.1413C245.327 15.6939 245.431 15.1911 245.529 14.6328C245.627 14.0746 245.689 13.5057 245.715 12.9261L245.747 12.2102H247.997ZM256.781 14.1662C256.359 14.1662 255.997 14.017 255.694 13.7188C255.396 13.4162 255.247 13.054 255.247 12.6321C255.247 12.2145 255.396 11.8565 255.694 11.5582C255.997 11.2599 256.359 11.1108 256.781 11.1108C257.19 11.1108 257.548 11.2599 257.854 11.5582C258.161 11.8565 258.315 12.2145 258.315 12.6321C258.315 12.9134 258.242 13.1712 258.097 13.4055C257.957 13.6357 257.771 13.821 257.541 13.9616C257.311 14.098 257.058 14.1662 256.781 14.1662ZM261.962 14.1662C261.54 14.1662 261.178 14.017 260.875 13.7188C260.577 13.4162 260.428 13.054 260.428 12.6321C260.428 12.2145 260.577 11.8565 260.875 11.5582C261.178 11.2599 261.54 11.1108 261.962 11.1108C262.371 11.1108 262.729 11.2599 263.036 11.5582C263.343 11.8565 263.496 12.2145 263.496 12.6321C263.496 12.9134 263.424 13.1712 263.279 13.4055C263.138 13.6357 262.953 13.821 262.723 13.9616C262.492 14.098 262.239 14.1662 261.962 14.1662ZM267.143 14.1662C266.721 14.1662 266.359 14.017 266.057 13.7188C265.758 13.4162 265.609 13.054 265.609 12.6321C265.609 12.2145 265.758 11.8565 266.057 11.5582C266.359 11.2599 266.721 11.1108 267.143 11.1108C267.552 11.1108 267.91 11.2599 268.217 11.5582C268.524 11.8565 268.677 12.2145 268.677 12.6321C268.677 12.9134 268.605 13.1712 268.46 13.4055C268.319 13.6357 268.134 13.821 267.904 13.9616C267.674 14.098 267.42 14.1662 267.143 14.1662ZM273.692 12.2102L273.622 12.9134C273.567 13.4759 273.46 14.0362 273.303 14.5945C273.149 15.157 272.987 15.6662 272.817 16.1222C272.651 16.5781 272.516 16.9361 272.414 17.196H270.65C270.714 16.9446 270.801 16.593 270.912 16.1413C271.023 15.6939 271.127 15.1911 271.225 14.6328C271.323 14.0746 271.385 13.5057 271.411 12.9261L271.442 12.2102H273.692ZM281.179 14V4.18182H282.687V14H281.179ZM281.946 2.54545C281.652 2.54545 281.398 2.44531 281.185 2.24503C280.976 2.04474 280.872 1.80398 280.872 1.52273C280.872 1.24148 280.976 1.00071 281.185 0.800426C281.398 0.600142 281.652 0.5 281.946 0.5C282.24 0.5 282.491 0.600142 282.7 0.800426C282.913 1.00071 283.02 1.24148 283.02 1.52273C283.02 1.80398 282.913 2.04474 282.7 2.24503C282.491 2.44531 282.24 2.54545 281.946 2.54545ZM286.779 8.09375V14H285.27V4.18182H286.728V5.71591H286.855C287.086 5.21733 287.435 4.81676 287.904 4.5142C288.372 4.20739 288.978 4.05398 289.719 4.05398C290.384 4.05398 290.966 4.19034 291.464 4.46307C291.963 4.73153 292.35 5.14062 292.627 5.69034C292.904 6.2358 293.043 6.92614 293.043 7.76136V14H291.534V7.86364C291.534 7.09233 291.334 6.49148 290.934 6.06108C290.533 5.62642 289.983 5.40909 289.284 5.40909C288.803 5.40909 288.372 5.51349 287.993 5.7223C287.618 5.93111 287.322 6.2358 287.105 6.63636C286.887 7.03693 286.779 7.52273 286.779 8.09375ZM302.574 6.38068L301.219 6.7642C301.134 6.53835 301.008 6.31889 300.842 6.10582C300.68 5.88849 300.458 5.70952 300.177 5.56889C299.896 5.42827 299.536 5.35795 299.097 5.35795C298.496 5.35795 297.995 5.49645 297.595 5.77344C297.198 6.04616 297 6.39347 297 6.81534C297 7.19034 297.137 7.48651 297.409 7.70384C297.682 7.92116 298.108 8.10227 298.688 8.24716L300.145 8.60511C301.023 8.81818 301.677 9.14418 302.107 9.5831C302.538 10.0178 302.753 10.5781 302.753 11.2642C302.753 11.8267 302.591 12.3295 302.267 12.7727C301.948 13.2159 301.5 13.5653 300.925 13.821C300.35 14.0767 299.681 14.2045 298.918 14.2045C297.916 14.2045 297.088 13.9872 296.431 13.5526C295.775 13.1179 295.36 12.483 295.185 11.6477L296.617 11.2898C296.753 11.8182 297.011 12.2145 297.39 12.4787C297.774 12.7429 298.274 12.875 298.892 12.875C299.595 12.875 300.154 12.7259 300.567 12.4276C300.985 12.125 301.193 11.7628 301.193 11.3409C301.193 11 301.074 10.7145 300.835 10.4844C300.597 10.25 300.23 10.0753 299.736 9.96023L298.1 9.5767C297.2 9.36364 296.54 9.03338 296.118 8.58594C295.7 8.13423 295.492 7.5696 295.492 6.89205C295.492 6.33807 295.647 5.84801 295.958 5.42188C296.274 4.99574 296.702 4.66122 297.243 4.41832C297.789 4.17543 298.406 4.05398 299.097 4.05398C300.068 4.05398 300.831 4.26705 301.385 4.69318C301.943 5.11932 302.34 5.68182 302.574 6.38068ZM309.114 4.18182V5.46023H304.026V4.18182H309.114ZM305.509 1.82955H307.017V11.1875C307.017 11.6136 307.079 11.9332 307.202 12.1463C307.33 12.3551 307.492 12.4957 307.688 12.5682C307.889 12.6364 308.099 12.6705 308.321 12.6705C308.487 12.6705 308.624 12.6619 308.73 12.6449C308.837 12.6236 308.922 12.6065 308.986 12.5938L309.293 13.9489C309.19 13.9872 309.048 14.0256 308.864 14.0639C308.681 14.1065 308.449 14.1278 308.168 14.1278C307.742 14.1278 307.324 14.0362 306.915 13.853C306.51 13.6697 306.173 13.3906 305.905 13.0156C305.641 12.6406 305.509 12.1676 305.509 11.5966V1.82955ZM317.978 14V15.4062H309.797V14H317.978ZM321.496 8.09375V14H319.988V4.18182H321.445V5.71591H321.573C321.803 5.21733 322.152 4.81676 322.621 4.5142C323.09 4.20739 323.695 4.05398 324.437 4.05398C325.101 4.05398 325.683 4.19034 326.182 4.46307C326.68 4.73153 327.068 5.14062 327.345 5.69034C327.622 6.2358 327.76 6.92614 327.76 7.76136V14H326.252V7.86364C326.252 7.09233 326.052 6.49148 325.651 6.06108C325.25 5.62642 324.701 5.40909 324.002 5.40909C323.52 5.40909 323.09 5.51349 322.711 5.7223C322.336 5.93111 322.04 6.2358 321.822 6.63636C321.605 7.03693 321.496 7.52273 321.496 8.09375ZM334.632 8.75213C334.632 10.3416 334.419 11.8033 333.993 13.1371C333.571 14.4709 332.924 15.7067 332.05 16.8445H329.449C329.781 16.4226 330.09 15.907 330.375 15.2976C330.661 14.6882 330.91 14.0234 331.123 13.3033C331.336 12.5788 331.502 11.8288 331.622 11.0533C331.741 10.2777 331.801 9.51065 331.801 8.75213C331.801 7.74219 331.696 6.72372 331.488 5.69673C331.283 4.66548 331.002 3.71094 330.644 2.8331C330.29 1.95099 329.892 1.22869 329.449 0.666193H332.05C332.924 1.80398 333.571 3.03977 333.993 4.37358C334.419 5.70739 334.632 7.1669 334.632 8.75213ZM33.1718 36.9815L30.6789 37.1349C30.6363 36.9219 30.5446 36.7301 30.404 36.5597C30.2634 36.3849 30.078 36.2464 29.8479 36.1442C29.6221 36.0376 29.3515 35.9844 29.0361 35.9844C28.6142 35.9844 28.2584 36.0739 27.9687 36.2528C27.6789 36.4276 27.534 36.6619 27.534 36.956C27.534 37.1903 27.6277 37.3885 27.8152 37.5504C28.0027 37.7124 28.3245 37.8423 28.7804 37.9403L30.5574 38.2983C31.512 38.4943 32.2236 38.8097 32.6924 39.2443C33.1611 39.679 33.3955 40.25 33.3955 40.9574C33.3955 41.6009 33.2059 42.1655 32.8266 42.6513C32.4516 43.1371 31.936 43.5163 31.2797 43.7891C30.6277 44.0575 29.8756 44.1918 29.0233 44.1918C27.7236 44.1918 26.6881 43.9212 25.9168 43.38C25.1498 42.8345 24.7002 42.093 24.5681 41.1555L27.2463 41.0149C27.3273 41.4112 27.5233 41.7138 27.8344 41.9226C28.1455 42.1271 28.5439 42.2294 29.0297 42.2294C29.507 42.2294 29.8905 42.1378 30.1803 41.9545C30.4743 41.767 30.6235 41.5263 30.6277 41.2322C30.6235 40.9851 30.5191 40.7827 30.3145 40.625C30.11 40.4631 29.7946 40.3395 29.3685 40.2543L27.6682 39.9155C26.7094 39.7237 25.9956 39.3913 25.5269 38.9183C25.0624 38.4453 24.8302 37.8423 24.8302 37.1094C24.8302 36.4787 25.0006 35.9354 25.3415 35.4794C25.6867 35.0234 26.1704 34.6719 26.7925 34.4247C27.4189 34.1776 28.1519 34.054 28.9914 34.054C30.2314 34.054 31.2073 34.3161 31.9189 34.8402C32.6348 35.3643 33.0525 36.0781 33.1718 36.9815ZM39.4046 44.1918C38.3947 44.1918 37.5253 43.9872 36.7966 43.5781C36.0722 43.1648 35.514 42.581 35.1219 41.8267C34.7299 41.0682 34.5339 40.1712 34.5339 39.1357C34.5339 38.1257 34.7299 37.2393 35.1219 36.4766C35.514 35.7138 36.0658 35.1193 36.7775 34.6932C37.4934 34.267 38.3329 34.054 39.2959 34.054C39.9437 34.054 40.5466 34.1584 41.1049 34.3672C41.6674 34.5717 42.1574 34.8807 42.5751 35.294C42.9969 35.7074 43.3251 36.2273 43.5594 36.8537C43.7938 37.4759 43.911 38.2045 43.911 39.0398V39.7876H35.6205V38.1001H41.3478C41.3478 37.7081 41.2626 37.3608 41.0921 37.0582C40.9216 36.7557 40.6851 36.5192 40.3826 36.3487C40.0843 36.174 39.737 36.0866 39.3407 36.0866C38.9273 36.0866 38.5608 36.1825 38.2412 36.3743C37.9259 36.5618 37.6787 36.8153 37.4998 37.1349C37.3208 37.4503 37.2292 37.8018 37.2249 38.1896V39.794C37.2249 40.2798 37.3144 40.6996 37.4934 41.0533C37.6766 41.407 37.9344 41.6797 38.2668 41.8714C38.5992 42.0632 38.9934 42.1591 39.4493 42.1591C39.7519 42.1591 40.0289 42.1165 40.2803 42.0312C40.5317 41.946 40.7469 41.8182 40.9259 41.6477C41.1049 41.4773 41.2412 41.2685 41.335 41.0213L43.8535 41.1875C43.7256 41.7926 43.4635 42.321 43.0672 42.7727C42.6752 43.2202 42.1681 43.5696 41.5459 43.821C40.928 44.0682 40.2143 44.1918 39.4046 44.1918ZM48.231 30.9091V44H45.508V30.9091H48.231ZM55.5121 34.1818V36.2273H49.4524V34.1818H55.5121ZM50.8395 44V33.4723C50.8395 32.7607 50.978 32.1705 51.255 31.7017C51.5363 31.233 51.9198 30.8814 52.4056 30.647C52.8914 30.4126 53.4432 30.2955 54.0611 30.2955C54.4787 30.2955 54.8601 30.3274 55.2053 30.3913C55.5547 30.4553 55.8147 30.5128 55.9851 30.5639L55.4993 32.6094C55.3928 32.5753 55.2607 32.5433 55.103 32.5135C54.9496 32.4837 54.7919 32.4688 54.63 32.4688C54.2294 32.4688 53.9503 32.5625 53.7926 32.75C53.635 32.9332 53.5561 33.1911 53.5561 33.5234V44H50.8395ZM57.5677 44.1662C57.1458 44.1662 56.7836 44.017 56.4811 43.7188C56.1828 43.4162 56.0336 43.054 56.0336 42.6321C56.0336 42.2145 56.1828 41.8565 56.4811 41.5582C56.7836 41.2599 57.1458 41.1108 57.5677 41.1108C57.9768 41.1108 58.3348 41.2599 58.6416 41.5582C58.9484 41.8565 59.1018 42.2145 59.1018 42.6321C59.1018 42.9134 59.0294 43.1712 58.8845 43.4055C58.7439 43.6357 58.5585 43.821 58.3284 43.9616C58.0983 44.098 57.8447 44.1662 57.5677 44.1662ZM61.4515 44V34.1818H62.96V44H61.4515ZM62.2185 32.5455C61.9245 32.5455 61.6709 32.4453 61.4579 32.245C61.249 32.0447 61.1446 31.804 61.1446 31.5227C61.1446 31.2415 61.249 31.0007 61.4579 30.8004C61.6709 30.6001 61.9245 30.5 62.2185 30.5C62.5125 30.5 62.764 30.6001 62.9728 30.8004C63.1858 31.0007 63.2924 31.2415 63.2924 31.5227C63.2924 31.804 63.1858 32.0447 62.9728 32.245C62.764 32.4453 62.5125 32.5455 62.2185 32.5455ZM67.0515 38.0938V44H65.5429V34.1818H67.0003V35.7159H67.1282C67.3583 35.2173 67.7077 34.8168 68.1765 34.5142C68.6452 34.2074 69.2503 34.054 69.9918 34.054C70.6566 34.054 71.2383 34.1903 71.7368 34.4631C72.2354 34.7315 72.6232 35.1406 72.9002 35.6903C73.1772 36.2358 73.3157 36.9261 73.3157 37.7614V44H71.8071V37.8636C71.8071 37.0923 71.6069 36.4915 71.2063 36.0611C70.8057 35.6264 70.256 35.4091 69.5571 35.4091C69.0756 35.4091 68.6452 35.5135 68.266 35.7223C67.891 35.9311 67.5948 36.2358 67.3775 36.6364C67.1601 37.0369 67.0515 37.5227 67.0515 38.0938ZM82.8468 36.3807L81.4917 36.7642C81.4065 36.5384 81.2807 36.3189 81.1145 36.1058C80.9526 35.8885 80.731 35.7095 80.4498 35.5689C80.1685 35.4283 79.8084 35.358 79.3695 35.358C78.7687 35.358 78.268 35.4964 77.8674 35.7734C77.4711 36.0462 77.2729 36.3935 77.2729 36.8153C77.2729 37.1903 77.4093 37.4865 77.682 37.7038C77.9547 37.9212 78.3809 38.1023 78.9604 38.2472L80.4178 38.6051C81.2957 38.8182 81.9498 39.1442 82.3802 39.5831C82.8106 40.0178 83.0258 40.5781 83.0258 41.2642C83.0258 41.8267 82.8638 42.3295 82.54 42.7727C82.2204 43.2159 81.7729 43.5653 81.1976 43.821C80.6224 44.0767 79.9533 44.2045 79.1905 44.2045C78.1891 44.2045 77.3603 43.9872 76.704 43.5526C76.0478 43.1179 75.6323 42.483 75.4576 41.6477L76.8894 41.2898C77.0258 41.8182 77.2836 42.2145 77.6628 42.4787C78.0464 42.7429 78.5471 42.875 79.165 42.875C79.8681 42.875 80.4263 42.7259 80.8397 42.4276C81.2573 42.125 81.4661 41.7628 81.4661 41.3409C81.4661 41 81.3468 40.7145 81.1082 40.4844C80.8695 40.25 80.503 40.0753 80.0087 39.9602L78.3724 39.5767C77.4732 39.3636 76.8127 39.0334 76.3908 38.5859C75.9732 38.1342 75.7644 37.5696 75.7644 36.892C75.7644 36.3381 75.9199 35.848 76.231 35.4219C76.5464 34.9957 76.9746 34.6612 77.5158 34.4183C78.0613 34.1754 78.6792 34.054 79.3695 34.054C80.3411 34.054 81.1039 34.267 81.6579 34.6932C82.2161 35.1193 82.6124 35.6818 82.8468 36.3807ZM89.3864 34.1818V35.4602H84.2984V34.1818H89.3864ZM85.7813 31.8295H87.2898V41.1875C87.2898 41.6136 87.3516 41.9332 87.4752 42.1463C87.6031 42.3551 87.765 42.4957 87.961 42.5682C88.1613 42.6364 88.3722 42.6705 88.5938 42.6705C88.76 42.6705 88.8964 42.6619 89.0029 42.6449C89.1094 42.6236 89.1947 42.6065 89.2586 42.5938L89.5654 43.9489C89.4631 43.9872 89.3204 44.0256 89.1371 44.0639C88.9539 44.1065 88.7217 44.1278 88.4404 44.1278C88.0143 44.1278 87.5967 44.0362 87.1876 43.853C86.7827 43.6697 86.4461 43.3906 86.1776 43.0156C85.9134 42.6406 85.7813 42.1676 85.7813 41.5966V31.8295ZM98.2512 44V45.4062H90.0694V44H98.2512ZM102.06 30.9091V44H100.475V32.571H100.398L97.2019 34.6932V33.0824L100.475 30.9091H102.06ZM110.872 37.7741V35.505H119.7V37.7741H110.872ZM110.872 42.0185V39.7493H119.7V42.0185H110.872ZM126.593 44V34.1818H128.102V44H126.593ZM127.36 32.5455C127.066 32.5455 126.813 32.4453 126.6 32.245C126.391 32.0447 126.286 31.804 126.286 31.5227C126.286 31.2415 126.391 31.0007 126.6 30.8004C126.813 30.6001 127.066 30.5 127.36 30.5C127.654 30.5 127.906 30.6001 128.114 30.8004C128.328 31.0007 128.434 31.2415 128.434 31.5227C128.434 31.804 128.328 32.0447 128.114 32.245C127.906 32.4453 127.654 32.5455 127.36 32.5455ZM132.193 38.0938V44H130.685V34.1818H132.142V35.7159H132.27C132.5 35.2173 132.849 34.8168 133.318 34.5142C133.787 34.2074 134.392 34.054 135.134 34.054C135.798 34.054 136.38 34.1903 136.879 34.4631C137.377 34.7315 137.765 35.1406 138.042 35.6903C138.319 36.2358 138.457 36.9261 138.457 37.7614V44H136.949V37.8636C136.949 37.0923 136.749 36.4915 136.348 36.0611C135.947 35.6264 135.398 35.4091 134.699 35.4091C134.217 35.4091 133.787 35.5135 133.408 35.7223C133.033 35.9311 132.737 36.2358 132.519 36.6364C132.302 37.0369 132.193 37.5227 132.193 38.0938ZM147.989 36.3807L146.633 36.7642C146.548 36.5384 146.422 36.3189 146.256 36.1058C146.094 35.8885 145.873 35.7095 145.591 35.5689C145.31 35.4283 144.95 35.358 144.511 35.358C143.91 35.358 143.41 35.4964 143.009 35.7734C142.613 36.0462 142.415 36.3935 142.415 36.8153C142.415 37.1903 142.551 37.4865 142.824 37.7038C143.096 37.9212 143.523 38.1023 144.102 38.2472L145.56 38.6051C146.437 38.8182 147.091 39.1442 147.522 39.5831C147.952 40.0178 148.167 40.5781 148.167 41.2642C148.167 41.8267 148.006 42.3295 147.682 42.7727C147.362 43.2159 146.915 43.5653 146.339 43.821C145.764 44.0767 145.095 44.2045 144.332 44.2045C143.331 44.2045 142.502 43.9872 141.846 43.5526C141.189 43.1179 140.774 42.483 140.599 41.6477L142.031 41.2898C142.167 41.8182 142.425 42.2145 142.805 42.4787C143.188 42.7429 143.689 42.875 144.307 42.875C145.01 42.875 145.568 42.7259 145.981 42.4276C146.399 42.125 146.608 41.7628 146.608 41.3409C146.608 41 146.489 40.7145 146.25 40.4844C146.011 40.25 145.645 40.0753 145.15 39.9602L143.514 39.5767C142.615 39.3636 141.954 39.0334 141.533 38.5859C141.115 38.1342 140.906 37.5696 140.906 36.892C140.906 36.3381 141.062 35.848 141.373 35.4219C141.688 34.9957 142.116 34.6612 142.658 34.4183C143.203 34.1754 143.821 34.054 144.511 34.054C145.483 34.054 146.246 34.267 146.8 34.6932C147.358 35.1193 147.754 35.6818 147.989 36.3807ZM154.528 34.1818V35.4602H149.44V34.1818H154.528ZM150.923 31.8295H152.432V41.1875C152.432 41.6136 152.493 41.9332 152.617 42.1463C152.745 42.3551 152.907 42.4957 153.103 42.5682C153.303 42.6364 153.514 42.6705 153.736 42.6705C153.902 42.6705 154.038 42.6619 154.145 42.6449C154.251 42.6236 154.336 42.6065 154.4 42.5938L154.707 43.9489C154.605 43.9872 154.462 44.0256 154.279 44.0639C154.096 44.1065 153.863 44.1278 153.582 44.1278C153.156 44.1278 152.738 44.0362 152.329 43.853C151.924 43.6697 151.588 43.3906 151.319 43.0156C151.055 42.6406 150.923 42.1676 150.923 41.5966V31.8295ZM163.393 44V45.4062H155.211V44H163.393ZM167.202 30.9091V44H165.616V32.571H165.54L162.344 34.6932V33.0824L165.616 30.9091H167.202ZM33.1718 66.9815L30.6789 67.1349C30.6363 66.9219 30.5446 66.7301 30.404 66.5597C30.2634 66.3849 30.078 66.2464 29.8479 66.1442C29.6221 66.0376 29.3515 65.9844 29.0361 65.9844C28.6142 65.9844 28.2584 66.0739 27.9687 66.2528C27.6789 66.4276 27.534 66.6619 27.534 66.956C27.534 67.1903 27.6277 67.3885 27.8152 67.5504C28.0027 67.7124 28.3245 67.8423 28.7804 67.9403L30.5574 68.2983C31.512 68.4943 32.2236 68.8097 32.6924 69.2443C33.1611 69.679 33.3955 70.25 33.3955 70.9574C33.3955 71.6009 33.2059 72.1655 32.8266 72.6513C32.4516 73.1371 31.936 73.5163 31.2797 73.7891C30.6277 74.0575 29.8756 74.1918 29.0233 74.1918C27.7236 74.1918 26.6881 73.9212 25.9168 73.38C25.1498 72.8345 24.7002 72.093 24.5681 71.1555L27.2463 71.0149C27.3273 71.4112 27.5233 71.7138 27.8344 71.9226C28.1455 72.1271 28.5439 72.2294 29.0297 72.2294C29.507 72.2294 29.8905 72.1378 30.1803 71.9545C30.4743 71.767 30.6235 71.5263 30.6277 71.2322C30.6235 70.9851 30.5191 70.7827 30.3145 70.625C30.11 70.4631 29.7946 70.3395 29.3685 70.2543L27.6682 69.9155C26.7094 69.7237 25.9956 69.3913 25.5269 68.9183C25.0624 68.4453 24.8302 67.8423 24.8302 67.1094C24.8302 66.4787 25.0006 65.9354 25.3415 65.4794C25.6867 65.0234 26.1704 64.6719 26.7925 64.4247C27.4189 64.1776 28.1519 64.054 28.9914 64.054C30.2314 64.054 31.2073 64.3161 31.9189 64.8402C32.6348 65.3643 33.0525 66.0781 33.1718 66.9815ZM39.4046 74.1918C38.3947 74.1918 37.5253 73.9872 36.7966 73.5781C36.0722 73.1648 35.514 72.581 35.1219 71.8267C34.7299 71.0682 34.5339 70.1712 34.5339 69.1357C34.5339 68.1257 34.7299 67.2393 35.1219 66.4766C35.514 65.7138 36.0658 65.1193 36.7775 64.6932C37.4934 64.267 38.3329 64.054 39.2959 64.054C39.9437 64.054 40.5466 64.1584 41.1049 64.3672C41.6674 64.5717 42.1574 64.8807 42.5751 65.294C42.9969 65.7074 43.3251 66.2273 43.5594 66.8537C43.7938 67.4759 43.911 68.2045 43.911 69.0398V69.7876H35.6205V68.1001H41.3478C41.3478 67.7081 41.2626 67.3608 41.0921 67.0582C40.9216 66.7557 40.6851 66.5192 40.3826 66.3487C40.0843 66.174 39.737 66.0866 39.3407 66.0866C38.9273 66.0866 38.5608 66.1825 38.2412 66.3743C37.9259 66.5618 37.6787 66.8153 37.4998 67.1349C37.3208 67.4503 37.2292 67.8018 37.2249 68.1896V69.794C37.2249 70.2798 37.3144 70.6996 37.4934 71.0533C37.6766 71.407 37.9344 71.6797 38.2668 71.8714C38.5992 72.0632 38.9934 72.1591 39.4493 72.1591C39.7519 72.1591 40.0289 72.1165 40.2803 72.0312C40.5317 71.946 40.7469 71.8182 40.9259 71.6477C41.1049 71.4773 41.2412 71.2685 41.335 71.0213L43.8535 71.1875C43.7256 71.7926 43.4635 72.321 43.0672 72.7727C42.6752 73.2202 42.1681 73.5696 41.5459 73.821C40.928 74.0682 40.2143 74.1918 39.4046 74.1918ZM48.231 60.9091V74H45.508V60.9091H48.231ZM55.5121 64.1818V66.2273H49.4524V64.1818H55.5121ZM50.8395 74V63.4723C50.8395 62.7607 50.978 62.1705 51.255 61.7017C51.5363 61.233 51.9198 60.8814 52.4056 60.647C52.8914 60.4126 53.4432 60.2955 54.0611 60.2955C54.4787 60.2955 54.8601 60.3274 55.2053 60.3913C55.5547 60.4553 55.8147 60.5128 55.9851 60.5639L55.4993 62.6094C55.3928 62.5753 55.2607 62.5433 55.103 62.5135C54.9496 62.4837 54.7919 62.4688 54.63 62.4688C54.2294 62.4688 53.9503 62.5625 53.7926 62.75C53.635 62.9332 53.5561 63.1911 53.5561 63.5234V74H50.8395ZM57.5677 74.1662C57.1458 74.1662 56.7836 74.017 56.4811 73.7188C56.1828 73.4162 56.0336 73.054 56.0336 72.6321C56.0336 72.2145 56.1828 71.8565 56.4811 71.5582C56.7836 71.2599 57.1458 71.1108 57.5677 71.1108C57.9768 71.1108 58.3348 71.2599 58.6416 71.5582C58.9484 71.8565 59.1018 72.2145 59.1018 72.6321C59.1018 72.9134 59.0294 73.1712 58.8845 73.4055C58.7439 73.6357 58.5585 73.821 58.3284 73.9616C58.0983 74.098 57.8447 74.1662 57.5677 74.1662ZM61.4515 74V64.1818H62.96V74H61.4515ZM62.2185 62.5455C61.9245 62.5455 61.6709 62.4453 61.4579 62.245C61.249 62.0447 61.1446 61.804 61.1446 61.5227C61.1446 61.2415 61.249 61.0007 61.4579 60.8004C61.6709 60.6001 61.9245 60.5 62.2185 60.5C62.5125 60.5 62.764 60.6001 62.9728 60.8004C63.1858 61.0007 63.2924 61.2415 63.2924 61.5227C63.2924 61.804 63.1858 62.0447 62.9728 62.245C62.764 62.4453 62.5125 62.5455 62.2185 62.5455ZM67.0515 68.0938V74H65.5429V64.1818H67.0003V65.7159H67.1282C67.3583 65.2173 67.7077 64.8168 68.1765 64.5142C68.6452 64.2074 69.2503 64.054 69.9918 64.054C70.6566 64.054 71.2383 64.1903 71.7368 64.4631C72.2354 64.7315 72.6232 65.1406 72.9002 65.6903C73.1772 66.2358 73.3157 66.9261 73.3157 67.7614V74H71.8071V67.8636C71.8071 67.0923 71.6069 66.4915 71.2063 66.0611C70.8057 65.6264 70.256 65.4091 69.5571 65.4091C69.0756 65.4091 68.6452 65.5135 68.266 65.7223C67.891 65.9311 67.5948 66.2358 67.3775 66.6364C67.1601 67.0369 67.0515 67.5227 67.0515 68.0938ZM82.8468 66.3807L81.4917 66.7642C81.4065 66.5384 81.2807 66.3189 81.1145 66.1058C80.9526 65.8885 80.731 65.7095 80.4498 65.5689C80.1685 65.4283 79.8084 65.358 79.3695 65.358C78.7687 65.358 78.268 65.4964 77.8674 65.7734C77.4711 66.0462 77.2729 66.3935 77.2729 66.8153C77.2729 67.1903 77.4093 67.4865 77.682 67.7038C77.9547 67.9212 78.3809 68.1023 78.9604 68.2472L80.4178 68.6051C81.2957 68.8182 81.9498 69.1442 82.3802 69.5831C82.8106 70.0178 83.0258 70.5781 83.0258 71.2642C83.0258 71.8267 82.8638 72.3295 82.54 72.7727C82.2204 73.2159 81.7729 73.5653 81.1976 73.821C80.6224 74.0767 79.9533 74.2045 79.1905 74.2045C78.1891 74.2045 77.3603 73.9872 76.704 73.5526C76.0478 73.1179 75.6323 72.483 75.4576 71.6477L76.8894 71.2898C77.0258 71.8182 77.2836 72.2145 77.6628 72.4787C78.0464 72.7429 78.5471 72.875 79.165 72.875C79.8681 72.875 80.4263 72.7259 80.8397 72.4276C81.2573 72.125 81.4661 71.7628 81.4661 71.3409C81.4661 71 81.3468 70.7145 81.1082 70.4844C80.8695 70.25 80.503 70.0753 80.0087 69.9602L78.3724 69.5767C77.4732 69.3636 76.8127 69.0334 76.3908 68.5859C75.9732 68.1342 75.7644 67.5696 75.7644 66.892C75.7644 66.3381 75.9199 65.848 76.231 65.4219C76.5464 64.9957 76.9746 64.6612 77.5158 64.4183C78.0613 64.1754 78.6792 64.054 79.3695 64.054C80.3411 64.054 81.1039 64.267 81.6579 64.6932C82.2161 65.1193 82.6124 65.6818 82.8468 66.3807ZM89.3864 64.1818V65.4602H84.2984V64.1818H89.3864ZM85.7813 61.8295H87.2898V71.1875C87.2898 71.6136 87.3516 71.9332 87.4752 72.1463C87.6031 72.3551 87.765 72.4957 87.961 72.5682C88.1613 72.6364 88.3722 72.6705 88.5938 72.6705C88.76 72.6705 88.8964 72.6619 89.0029 72.6449C89.1094 72.6236 89.1947 72.6065 89.2586 72.5938L89.5654 73.9489C89.4631 73.9872 89.3204 74.0256 89.1371 74.0639C88.9539 74.1065 88.7217 74.1278 88.4404 74.1278C88.0143 74.1278 87.5967 74.0362 87.1876 73.853C86.7827 73.6697 86.4461 73.3906 86.1776 73.0156C85.9134 72.6406 85.7813 72.1676 85.7813 71.5966V61.8295ZM98.2512 74V75.4062H90.0694V74H98.2512ZM99.4087 74V72.8494L103.73 68.1193C104.237 67.5653 104.654 67.0838 104.983 66.6747C105.311 66.2614 105.554 65.8736 105.711 65.5114C105.873 65.1449 105.954 64.7614 105.954 64.3608C105.954 63.9006 105.843 63.5021 105.622 63.1655C105.404 62.8288 105.106 62.5689 104.727 62.3857C104.348 62.2024 103.921 62.1108 103.448 62.1108C102.946 62.1108 102.507 62.2152 102.132 62.424C101.761 62.6286 101.473 62.9162 101.269 63.2869C101.069 63.6577 100.968 64.0923 100.968 64.5909H99.4598C99.4598 63.8239 99.6367 63.1506 99.9904 62.571C100.344 61.9915 100.826 61.5398 101.435 61.2159C102.049 60.892 102.737 60.7301 103.5 60.7301C104.267 60.7301 104.946 60.892 105.539 61.2159C106.131 61.5398 106.596 61.9766 106.932 62.5263C107.269 63.076 107.437 63.6875 107.437 64.3608C107.437 64.8423 107.35 65.3132 107.175 65.7734C107.005 66.2294 106.706 66.7386 106.28 67.3011C105.858 67.8594 105.272 68.5412 104.522 69.3466L101.582 72.4915V72.5938H107.667V74H99.4087ZM115.355 67.7741V65.505H124.182V67.7741H115.355ZM115.355 72.0185V69.7493H124.182V72.0185H115.355ZM131.076 74V64.1818H132.584V74H131.076ZM131.843 62.5455C131.549 62.5455 131.295 62.4453 131.082 62.245C130.873 62.0447 130.769 61.804 130.769 61.5227C130.769 61.2415 130.873 61.0007 131.082 60.8004C131.295 60.6001 131.549 60.5 131.843 60.5C132.137 60.5 132.388 60.6001 132.597 60.8004C132.81 61.0007 132.917 61.2415 132.917 61.5227C132.917 61.804 132.81 62.0447 132.597 62.245C132.388 62.4453 132.137 62.5455 131.843 62.5455ZM136.676 68.0938V74H135.167V64.1818H136.624V65.7159H136.752C136.982 65.2173 137.332 64.8168 137.801 64.5142C138.269 64.2074 138.874 64.054 139.616 64.054C140.281 64.054 140.862 64.1903 141.361 64.4631C141.86 64.7315 142.247 65.1406 142.524 65.6903C142.801 66.2358 142.94 66.9261 142.94 67.7614V74H141.431V67.8636C141.431 67.0923 141.231 66.4915 140.83 66.0611C140.43 65.6264 139.88 65.4091 139.181 65.4091C138.7 65.4091 138.269 65.5135 137.89 65.7223C137.515 65.9311 137.219 66.2358 137.002 66.6364C136.784 67.0369 136.676 67.5227 136.676 68.0938ZM152.471 66.3807L151.116 66.7642C151.031 66.5384 150.905 66.3189 150.739 66.1058C150.577 65.8885 150.355 65.7095 150.074 65.5689C149.793 65.4283 149.433 65.358 148.994 65.358C148.393 65.358 147.892 65.4964 147.492 65.7734C147.095 66.0462 146.897 66.3935 146.897 66.8153C146.897 67.1903 147.033 67.4865 147.306 67.7038C147.579 67.9212 148.005 68.1023 148.585 68.2472L150.042 68.6051C150.92 68.8182 151.574 69.1442 152.004 69.5831C152.435 70.0178 152.65 70.5781 152.65 71.2642C152.65 71.8267 152.488 72.3295 152.164 72.7727C151.845 73.2159 151.397 73.5653 150.822 73.821C150.246 74.0767 149.577 74.2045 148.815 74.2045C147.813 74.2045 146.984 73.9872 146.328 73.5526C145.672 73.1179 145.256 72.483 145.082 71.6477L146.514 71.2898C146.65 71.8182 146.908 72.2145 147.287 72.4787C147.67 72.7429 148.171 72.875 148.789 72.875C149.492 72.875 150.05 72.7259 150.464 72.4276C150.881 72.125 151.09 71.7628 151.09 71.3409C151.09 71 150.971 70.7145 150.732 70.4844C150.494 70.25 150.127 70.0753 149.633 69.9602L147.996 69.5767C147.097 69.3636 146.437 69.0334 146.015 68.5859C145.597 68.1342 145.389 67.5696 145.389 66.892C145.389 66.3381 145.544 65.848 145.855 65.4219C146.17 64.9957 146.599 64.6612 147.14 64.4183C147.685 64.1754 148.303 64.054 148.994 64.054C149.965 64.054 150.728 64.267 151.282 64.6932C151.84 65.1193 152.237 65.6818 152.471 66.3807ZM159.011 64.1818V65.4602H153.923V64.1818H159.011ZM155.405 61.8295H156.914V71.1875C156.914 71.6136 156.976 71.9332 157.099 72.1463C157.227 72.3551 157.389 72.4957 157.585 72.5682C157.785 72.6364 157.996 72.6705 158.218 72.6705C158.384 72.6705 158.521 72.6619 158.627 72.6449C158.734 72.6236 158.819 72.6065 158.883 72.5938L159.19 73.9489C159.087 73.9872 158.945 74.0256 158.761 74.0639C158.578 74.1065 158.346 74.1278 158.065 74.1278C157.638 74.1278 157.221 74.0362 156.812 73.853C156.407 73.6697 156.07 73.3906 155.802 73.0156C155.538 72.6406 155.405 72.1676 155.405 71.5966V61.8295ZM167.875 74V75.4062H159.693V74H167.875ZM169.033 74V72.8494L173.354 68.1193C173.861 67.5653 174.279 67.0838 174.607 66.6747C174.935 66.2614 175.178 65.8736 175.335 65.5114C175.497 65.1449 175.578 64.7614 175.578 64.3608C175.578 63.9006 175.468 63.5021 175.246 63.1655C175.029 62.8288 174.73 62.5689 174.351 62.3857C173.972 62.2024 173.546 62.1108 173.073 62.1108C172.57 62.1108 172.131 62.2152 171.756 62.424C171.385 62.6286 171.097 62.9162 170.893 63.2869C170.693 63.6577 170.593 64.0923 170.593 64.5909H169.084C169.084 63.8239 169.261 63.1506 169.615 62.571C169.968 61.9915 170.45 61.5398 171.059 61.2159C171.673 60.892 172.361 60.7301 173.124 60.7301C173.891 60.7301 174.57 60.892 175.163 61.2159C175.755 61.5398 176.22 61.9766 176.556 62.5263C176.893 63.076 177.061 63.6875 177.061 64.3608C177.061 64.8423 176.974 65.3132 176.799 65.7734C176.629 66.2294 176.33 66.7386 175.904 67.3011C175.482 67.8594 174.896 68.5412 174.146 69.3466L171.206 72.4915V72.5938H177.291V74H169.033ZM98.3426 99.8004C97.9208 99.8004 97.5586 99.6513 97.256 99.353C96.9577 99.0504 96.8086 98.6882 96.8086 98.2663C96.8086 97.8487 96.9577 97.4908 97.256 97.1925C97.5586 96.8942 97.9208 96.745 98.3426 96.745C98.7517 96.745 99.1097 96.8942 99.4165 97.1925C99.7233 97.4908 99.8767 97.8487 99.8767 98.2663C99.8767 98.5476 99.8043 98.8054 99.6594 99.0398C99.5188 99.2699 99.3334 99.4553 99.1033 99.5959C98.8732 99.7322 98.6196 99.8004 98.3426 99.8004ZM103.524 99.8004C103.102 99.8004 102.74 99.6513 102.437 99.353C102.139 99.0504 101.99 98.6882 101.99 98.2663C101.99 97.8487 102.139 97.4908 102.437 97.1925C102.74 96.8942 103.102 96.745 103.524 96.745C103.933 96.745 104.291 96.8942 104.598 97.1925C104.905 97.4908 105.058 97.8487 105.058 98.2663C105.058 98.5476 104.986 98.8054 104.841 99.0398C104.7 99.2699 104.515 99.4553 104.285 99.5959C104.055 99.7322 103.801 99.8004 103.524 99.8004ZM108.705 99.8004C108.283 99.8004 107.921 99.6513 107.619 99.353C107.32 99.0504 107.171 98.6882 107.171 98.2663C107.171 97.8487 107.32 97.4908 107.619 97.1925C107.921 96.8942 108.283 96.745 108.705 96.745C109.114 96.745 109.472 96.8942 109.779 97.1925C110.086 97.4908 110.239 97.8487 110.239 98.2663C110.239 98.5476 110.167 98.8054 110.022 99.0398C109.881 99.2699 109.696 99.4553 109.466 99.5959C109.236 99.7322 108.982 99.8004 108.705 99.8004ZM33.1718 126.982L30.6789 127.135C30.6363 126.922 30.5446 126.73 30.404 126.56C30.2634 126.385 30.078 126.246 29.8479 126.144C29.6221 126.038 29.3515 125.984 29.0361 125.984C28.6142 125.984 28.2584 126.074 27.9687 126.253C27.6789 126.428 27.534 126.662 27.534 126.956C27.534 127.19 27.6277 127.388 27.8152 127.55C28.0027 127.712 28.3245 127.842 28.7804 127.94L30.5574 128.298C31.512 128.494 32.2236 128.81 32.6924 129.244C33.1611 129.679 33.3955 130.25 33.3955 130.957C33.3955 131.601 33.2059 132.165 32.8266 132.651C32.4516 133.137 31.936 133.516 31.2797 133.789C30.6277 134.058 29.8756 134.192 29.0233 134.192C27.7236 134.192 26.6881 133.921 25.9168 133.38C25.1498 132.835 24.7002 132.093 24.5681 131.156L27.2463 131.015C27.3273 131.411 27.5233 131.714 27.8344 131.923C28.1455 132.127 28.5439 132.229 29.0297 132.229C29.507 132.229 29.8905 132.138 30.1803 131.955C30.4743 131.767 30.6235 131.526 30.6277 131.232C30.6235 130.985 30.5191 130.783 30.3145 130.625C30.11 130.463 29.7946 130.339 29.3685 130.254L27.6682 129.915C26.7094 129.724 25.9956 129.391 25.5269 128.918C25.0624 128.445 24.8302 127.842 24.8302 127.109C24.8302 126.479 25.0006 125.935 25.3415 125.479C25.6867 125.023 26.1704 124.672 26.7925 124.425C27.4189 124.178 28.1519 124.054 28.9914 124.054C30.2314 124.054 31.2073 124.316 31.9189 124.84C32.6348 125.364 33.0525 126.078 33.1718 126.982ZM39.4046 134.192C38.3947 134.192 37.5253 133.987 36.7966 133.578C36.0722 133.165 35.514 132.581 35.1219 131.827C34.7299 131.068 34.5339 130.171 34.5339 129.136C34.5339 128.126 34.7299 127.239 35.1219 126.477C35.514 125.714 36.0658 125.119 36.7775 124.693C37.4934 124.267 38.3329 124.054 39.2959 124.054C39.9437 124.054 40.5466 124.158 41.1049 124.367C41.6674 124.572 42.1574 124.881 42.5751 125.294C42.9969 125.707 43.3251 126.227 43.5594 126.854C43.7938 127.476 43.911 128.205 43.911 129.04V129.788H35.6205V128.1H41.3478C41.3478 127.708 41.2626 127.361 41.0921 127.058C40.9216 126.756 40.6851 126.519 40.3826 126.349C40.0843 126.174 39.737 126.087 39.3407 126.087C38.9273 126.087 38.5608 126.183 38.2412 126.374C37.9259 126.562 37.6787 126.815 37.4998 127.135C37.3208 127.45 37.2292 127.802 37.2249 128.19V129.794C37.2249 130.28 37.3144 130.7 37.4934 131.053C37.6766 131.407 37.9344 131.68 38.2668 131.871C38.5992 132.063 38.9934 132.159 39.4493 132.159C39.7519 132.159 40.0289 132.116 40.2803 132.031C40.5317 131.946 40.7469 131.818 40.9259 131.648C41.1049 131.477 41.2412 131.268 41.335 131.021L43.8535 131.188C43.7256 131.793 43.4635 132.321 43.0672 132.773C42.6752 133.22 42.1681 133.57 41.5459 133.821C40.928 134.068 40.2143 134.192 39.4046 134.192ZM48.231 120.909V134H45.508V120.909H48.231ZM55.5121 124.182V126.227H49.4524V124.182H55.5121ZM50.8395 134V123.472C50.8395 122.761 50.978 122.17 51.255 121.702C51.5363 121.233 51.9198 120.881 52.4056 120.647C52.8914 120.413 53.4432 120.295 54.0611 120.295C54.4787 120.295 54.8601 120.327 55.2053 120.391C55.5547 120.455 55.8147 120.513 55.9851 120.564L55.4993 122.609C55.3928 122.575 55.2607 122.543 55.103 122.513C54.9496 122.484 54.7919 122.469 54.63 122.469C54.2294 122.469 53.9503 122.562 53.7926 122.75C53.635 122.933 53.5561 123.191 53.5561 123.523V134H50.8395ZM57.5677 134.166C57.1458 134.166 56.7836 134.017 56.4811 133.719C56.1828 133.416 56.0336 133.054 56.0336 132.632C56.0336 132.214 56.1828 131.857 56.4811 131.558C56.7836 131.26 57.1458 131.111 57.5677 131.111C57.9768 131.111 58.3348 131.26 58.6416 131.558C58.9484 131.857 59.1018 132.214 59.1018 132.632C59.1018 132.913 59.0294 133.171 58.8845 133.406C58.7439 133.636 58.5585 133.821 58.3284 133.962C58.0983 134.098 57.8447 134.166 57.5677 134.166ZM61.4515 134V124.182H62.96V134H61.4515ZM62.2185 122.545C61.9245 122.545 61.6709 122.445 61.4579 122.245C61.249 122.045 61.1446 121.804 61.1446 121.523C61.1446 121.241 61.249 121.001 61.4579 120.8C61.6709 120.6 61.9245 120.5 62.2185 120.5C62.5125 120.5 62.764 120.6 62.9728 120.8C63.1858 121.001 63.2924 121.241 63.2924 121.523C63.2924 121.804 63.1858 122.045 62.9728 122.245C62.764 122.445 62.5125 122.545 62.2185 122.545ZM67.0515 128.094V134H65.5429V124.182H67.0003V125.716H67.1282C67.3583 125.217 67.7077 124.817 68.1765 124.514C68.6452 124.207 69.2503 124.054 69.9918 124.054C70.6566 124.054 71.2383 124.19 71.7368 124.463C72.2354 124.732 72.6232 125.141 72.9002 125.69C73.1772 126.236 73.3157 126.926 73.3157 127.761V134H71.8071V127.864C71.8071 127.092 71.6069 126.491 71.2063 126.061C70.8057 125.626 70.256 125.409 69.5571 125.409C69.0756 125.409 68.6452 125.513 68.266 125.722C67.891 125.931 67.5948 126.236 67.3775 126.636C67.1601 127.037 67.0515 127.523 67.0515 128.094ZM82.8468 126.381L81.4917 126.764C81.4065 126.538 81.2807 126.319 81.1145 126.106C80.9526 125.888 80.731 125.71 80.4498 125.569C80.1685 125.428 79.8084 125.358 79.3695 125.358C78.7687 125.358 78.268 125.496 77.8674 125.773C77.4711 126.046 77.2729 126.393 77.2729 126.815C77.2729 127.19 77.4093 127.487 77.682 127.704C77.9547 127.921 78.3809 128.102 78.9604 128.247L80.4178 128.605C81.2957 128.818 81.9498 129.144 82.3802 129.583C82.8106 130.018 83.0258 130.578 83.0258 131.264C83.0258 131.827 82.8638 132.33 82.54 132.773C82.2204 133.216 81.7729 133.565 81.1976 133.821C80.6224 134.077 79.9533 134.205 79.1905 134.205C78.1891 134.205 77.3603 133.987 76.704 133.553C76.0478 133.118 75.6323 132.483 75.4576 131.648L76.8894 131.29C77.0258 131.818 77.2836 132.214 77.6628 132.479C78.0464 132.743 78.5471 132.875 79.165 132.875C79.8681 132.875 80.4263 132.726 80.8397 132.428C81.2573 132.125 81.4661 131.763 81.4661 131.341C81.4661 131 81.3468 130.714 81.1082 130.484C80.8695 130.25 80.503 130.075 80.0087 129.96L78.3724 129.577C77.4732 129.364 76.8127 129.033 76.3908 128.586C75.9732 128.134 75.7644 127.57 75.7644 126.892C75.7644 126.338 75.9199 125.848 76.231 125.422C76.5464 124.996 76.9746 124.661 77.5158 124.418C78.0613 124.175 78.6792 124.054 79.3695 124.054C80.3411 124.054 81.1039 124.267 81.6579 124.693C82.2161 125.119 82.6124 125.682 82.8468 126.381ZM89.3864 124.182V125.46H84.2984V124.182H89.3864ZM85.7813 121.83H87.2898V131.188C87.2898 131.614 87.3516 131.933 87.4752 132.146C87.6031 132.355 87.765 132.496 87.961 132.568C88.1613 132.636 88.3722 132.67 88.5938 132.67C88.76 132.67 88.8964 132.662 89.0029 132.645C89.1094 132.624 89.1947 132.607 89.2586 132.594L89.5654 133.949C89.4631 133.987 89.3204 134.026 89.1371 134.064C88.9539 134.107 88.7217 134.128 88.4404 134.128C88.0143 134.128 87.5967 134.036 87.1876 133.853C86.7827 133.67 86.4461 133.391 86.1776 133.016C85.9134 132.641 85.7813 132.168 85.7813 131.597V121.83ZM98.2512 134V135.406H90.0694V134H98.2512ZM101.769 128.094V134H100.26V124.182H101.718V125.716H101.846C102.076 125.217 102.425 124.817 102.894 124.514C103.363 124.207 103.968 124.054 104.709 124.054C105.374 124.054 105.956 124.19 106.454 124.463C106.953 124.732 107.341 125.141 107.618 125.69C107.895 126.236 108.033 126.926 108.033 127.761V134H106.525V127.864C106.525 127.092 106.324 126.491 105.924 126.061C105.523 125.626 104.974 125.409 104.275 125.409C103.793 125.409 103.363 125.513 102.983 125.722C102.608 125.931 102.312 126.236 102.095 126.636C101.878 127.037 101.769 127.523 101.769 128.094ZM115.812 127.774V125.505H124.639V127.774H115.812ZM115.812 132.018V129.749H124.639V132.018H115.812ZM131.533 134V124.182H133.041V134H131.533ZM132.3 122.545C132.006 122.545 131.752 122.445 131.539 122.245C131.33 122.045 131.226 121.804 131.226 121.523C131.226 121.241 131.33 121.001 131.539 120.8C131.752 120.6 132.006 120.5 132.3 120.5C132.594 120.5 132.845 120.6 133.054 120.8C133.267 121.001 133.374 121.241 133.374 121.523C133.374 121.804 133.267 122.045 133.054 122.245C132.845 122.445 132.594 122.545 132.3 122.545ZM137.133 128.094V134H135.624V124.182H137.082V125.716H137.209C137.439 125.217 137.789 124.817 138.258 124.514C138.726 124.207 139.332 124.054 140.073 124.054C140.738 124.054 141.319 124.19 141.818 124.463C142.317 124.732 142.704 125.141 142.981 125.69C143.258 126.236 143.397 126.926 143.397 127.761V134H141.888V127.864C141.888 127.092 141.688 126.491 141.287 126.061C140.887 125.626 140.337 125.409 139.638 125.409C139.157 125.409 138.726 125.513 138.347 125.722C137.972 125.931 137.676 126.236 137.459 126.636C137.241 127.037 137.133 127.523 137.133 128.094ZM152.928 126.381L151.573 126.764C151.488 126.538 151.362 126.319 151.196 126.106C151.034 125.888 150.812 125.71 150.531 125.569C150.25 125.428 149.89 125.358 149.451 125.358C148.85 125.358 148.349 125.496 147.949 125.773C147.552 126.046 147.354 126.393 147.354 126.815C147.354 127.19 147.49 127.487 147.763 127.704C148.036 127.921 148.462 128.102 149.042 128.247L150.499 128.605C151.377 128.818 152.031 129.144 152.461 129.583C152.892 130.018 153.107 130.578 153.107 131.264C153.107 131.827 152.945 132.33 152.621 132.773C152.302 133.216 151.854 133.565 151.279 133.821C150.704 134.077 150.034 134.205 149.272 134.205C148.27 134.205 147.441 133.987 146.785 133.553C146.129 133.118 145.713 132.483 145.539 131.648L146.971 131.29C147.107 131.818 147.365 132.214 147.744 132.479C148.128 132.743 148.628 132.875 149.246 132.875C149.949 132.875 150.508 132.726 150.921 132.428C151.338 132.125 151.547 131.763 151.547 131.341C151.547 131 151.428 130.714 151.189 130.484C150.951 130.25 150.584 130.075 150.09 129.96L148.454 129.577C147.554 129.364 146.894 129.033 146.472 128.586C146.054 128.134 145.846 127.57 145.846 126.892C145.846 126.338 146.001 125.848 146.312 125.422C146.628 124.996 147.056 124.661 147.597 124.418C148.142 124.175 148.76 124.054 149.451 124.054C150.422 124.054 151.185 124.267 151.739 124.693C152.297 125.119 152.694 125.682 152.928 126.381ZM159.468 124.182V125.46H154.38V124.182H159.468ZM155.862 121.83H157.371V131.188C157.371 131.614 157.433 131.933 157.556 132.146C157.684 132.355 157.846 132.496 158.042 132.568C158.242 132.636 158.453 132.67 158.675 132.67C158.841 132.67 158.978 132.662 159.084 132.645C159.191 132.624 159.276 132.607 159.34 132.594L159.647 133.949C159.544 133.987 159.402 134.026 159.218 134.064C159.035 134.107 158.803 134.128 158.522 134.128C158.095 134.128 157.678 134.036 157.269 133.853C156.864 133.67 156.527 133.391 156.259 133.016C155.995 132.641 155.862 132.168 155.862 131.597V121.83ZM168.332 134V135.406H160.151V134H168.332ZM171.85 128.094V134H170.342V124.182H171.799V125.716H171.927C172.157 125.217 172.506 124.817 172.975 124.514C173.444 124.207 174.049 124.054 174.79 124.054C175.455 124.054 176.037 124.19 176.536 124.463C177.034 124.732 177.422 125.141 177.699 125.69C177.976 126.236 178.114 126.926 178.114 127.761V134H176.606V127.864C176.606 127.092 176.406 126.491 176.005 126.061C175.604 125.626 175.055 125.409 174.356 125.409C173.874 125.409 173.444 125.513 173.065 125.722C172.69 125.931 172.393 126.236 172.176 126.636C171.959 127.037 171.85 127.523 171.85 128.094Z" fill="black"/>
</svg>
