<svg width="377" height="135" viewBox="0 0 377 135" fill="none" xmlns="http://www.w3.org/2000/svg">
<path fill-rule="evenodd" clip-rule="evenodd" d="M67.5 9.4186C35.4226 9.4186 9.4186 35.4226 9.4186 67.5C9.4186 99.5773 35.4226 125.581 67.5 125.581C99.5773 125.581 125.581 99.5773 125.581 67.5C125.581 35.4226 99.5773 9.4186 67.5 9.4186ZM0 67.5C0 30.2208 30.2208 0 67.5 0C104.779 0 135 30.2208 135 67.5C135 104.779 104.779 135 67.5 135C30.2208 135 0 104.779 0 67.5ZM45.8585 95.1122C51.9643 90.5863 59.4314 87.907 67.5 87.907C75.5686 87.907 83.0357 90.5863 89.1414 95.1122C91.2311 96.6606 91.6694 99.6099 90.1204 101.7C88.5719 103.789 85.6227 104.228 83.533 102.678C78.9593 99.2891 73.4394 97.3256 67.5 97.3256C61.5606 97.3256 56.0407 99.2891 51.4671 102.678C49.3777 104.228 46.4283 103.789 44.8795 101.7C43.3307 99.6099 43.769 96.6606 45.8585 95.1122Z" fill="black"/>
<path d="M92.6162 58.0807C92.6162 63.2823 89.8051 67.4993 86.3372 67.4993C82.8692 67.4993 80.0581 63.2823 80.0581 58.0807C80.0581 52.8789 82.8692 48.6621 86.3372 48.6621C89.8051 48.6621 92.6162 52.8789 92.6162 58.0807Z" fill="black"/>
<path d="M54.9419 58.0807C54.9419 63.2823 52.1307 67.4993 48.6629 67.4993C45.1951 67.4993 42.3838 63.2823 42.3838 58.0807C42.3838 52.8789 45.1951 48.6621 48.6629 48.6621C52.1307 48.6621 54.9419 52.8789 54.9419 58.0807Z" fill="black"/>
<path fill-rule="evenodd" clip-rule="evenodd" d="M372.482 82.3431C369.358 79.219 364.292 79.219 361.168 82.3431L332.704 110.807C331.628 111.883 330.882 113.243 330.551 114.729L329.131 121.122C328.284 124.932 331.683 128.332 335.494 127.485L341.887 126.064C343.373 125.734 344.733 124.987 345.809 123.912L374.273 95.4477C377.397 92.3235 377.397 87.2582 374.273 84.134L372.482 82.3431ZM364.939 86.1144C365.981 85.073 367.669 85.073 368.71 86.1144L370.501 87.9053C371.543 88.9466 371.543 90.6351 370.501 91.6765L365.377 96.8007L359.815 91.2386L364.939 86.1144ZM356.044 95.0098L336.475 114.578C336.117 114.937 335.868 115.39 335.758 115.885L334.337 122.279L340.73 120.858C341.225 120.748 341.679 120.499 342.037 120.14L361.606 100.572L356.044 95.0098Z" fill="#0F0F0F"/>
<path d="M195 7H313" stroke="black" stroke-width="4" stroke-linecap="round"/>
<path d="M195 27H313" stroke="black" stroke-width="4" stroke-linecap="round"/>
<path d="M195 47H226" stroke="black" stroke-width="4" stroke-linecap="round"/>
<path d="M278 47L313 47" stroke="black" stroke-width="4" stroke-linecap="round"/>
<path d="M195 67H313" stroke="black" stroke-width="4" stroke-linecap="round"/>
<path d="M195 87H313" stroke="black" stroke-width="4" stroke-linecap="round"/>
<path d="M195 107H240" stroke="black" stroke-width="4" stroke-linecap="round"/>
<path d="M298 107L313 107" stroke="black" stroke-width="4" stroke-linecap="round"/>
<path d="M195 127H313" stroke="black" stroke-width="4" stroke-linecap="round"/>
<path d="M248.9 106.76C248.9 106.253 248.993 105.747 249.18 105.24C249.367 104.72 249.613 104.247 249.92 103.82C250.227 103.393 250.713 103.047 251.38 102.78C252.047 102.5 252.64 102.36 253.16 102.36C253.693 102.36 254.233 102.433 254.78 102.58C255.34 102.727 255.727 102.953 255.94 103.26C256.433 103.953 256.68 104.633 256.68 105.3C256.68 105.66 256.6 105.967 256.44 106.22C256.293 106.473 256.08 106.747 255.8 107.04C255.573 107.28 255.213 107.44 254.72 107.52C254.24 107.6 253.76 107.64 253.28 107.64C252.973 107.64 252.6 107.613 252.16 107.56C251.72 107.493 251.293 107.413 250.88 107.32C250.907 107.587 250.973 107.847 251.08 108.1C251.187 108.353 251.313 108.547 251.46 108.68C251.727 108.933 252 109.093 252.28 109.16C252.573 109.227 252.947 109.26 253.4 109.26C253.88 109.26 254.327 109.18 254.74 109.02C255.073 108.9 255.347 108.84 255.56 108.84C255.813 108.84 256.007 108.92 256.14 109.08C256.273 109.227 256.34 109.42 256.34 109.66C256.34 109.993 256.147 110.267 255.76 110.48C255.373 110.693 254.927 110.853 254.42 110.96C253.927 111.053 253.527 111.1 253.22 111.1C252.593 111.1 251.987 110.987 251.4 110.76C250.813 110.533 250.327 110.213 249.94 109.8C249.62 109.427 249.367 108.98 249.18 108.46C248.993 107.927 248.9 107.36 248.9 106.76ZM253.26 104.06C252.967 104.06 252.673 104.12 252.38 104.24C252.087 104.347 251.847 104.5 251.66 104.7C251.42 104.953 251.253 105.16 251.16 105.32C251.08 105.467 251.027 105.673 251 105.94C251.333 106.047 252.027 106.1 253.08 106.1C253.653 106.1 254.093 106.013 254.4 105.84C254.72 105.667 254.88 105.44 254.88 105.16C254.88 104.88 254.707 104.627 254.36 104.4C254.013 104.173 253.647 104.06 253.26 104.06ZM261.551 110.2C261.551 110.427 261.465 110.627 261.291 110.8C261.118 110.973 260.905 111.06 260.651 111.06C260.251 111.06 259.958 110.987 259.771 110.84C259.585 110.68 259.491 110.393 259.491 109.98C259.491 109.487 259.478 108.84 259.451 108.04C259.425 107.373 259.411 106.813 259.411 106.36C259.411 106.147 259.425 105.867 259.451 105.52C259.478 105.2 259.491 104.96 259.491 104.8C259.451 104.547 259.351 104.34 259.191 104.18C259.031 104.007 258.825 103.92 258.571 103.92C258.451 103.92 258.351 103.867 258.271 103.76C258.191 103.64 258.151 103.52 258.151 103.4C258.151 103.093 258.271 102.86 258.511 102.7C258.765 102.54 259.065 102.46 259.411 102.46C260.131 102.46 260.631 102.887 260.911 103.74C261.258 103.34 261.651 103.02 262.091 102.78C262.545 102.527 262.978 102.4 263.391 102.4C263.885 102.4 264.331 102.533 264.731 102.8C265.145 103.067 265.351 103.427 265.351 103.88C265.351 104.133 265.238 104.393 265.011 104.66C264.798 104.927 264.578 105.06 264.351 105.06C264.231 105.06 264.125 105.033 264.031 104.98C263.951 104.913 263.851 104.82 263.731 104.7C263.598 104.567 263.485 104.473 263.391 104.42C263.298 104.353 263.191 104.32 263.071 104.32C262.858 104.32 262.658 104.353 262.471 104.42C262.285 104.487 262.158 104.567 262.091 104.66C261.878 104.993 261.718 105.293 261.611 105.56C261.518 105.827 261.471 106.113 261.471 106.42C261.471 106.647 261.465 106.827 261.451 106.96L261.431 108.1C261.431 108.273 261.438 108.467 261.451 108.68C261.465 108.893 261.478 109.053 261.491 109.16C261.531 109.52 261.551 109.867 261.551 110.2ZM266.62 103.98C266.274 103.74 266.1 103.487 266.1 103.22C266.1 103.033 266.18 102.86 266.34 102.7C266.5 102.54 266.74 102.46 267.06 102.46C267.434 102.46 267.767 102.56 268.06 102.76C268.367 102.947 268.58 103.22 268.7 103.58C269.007 103.22 269.354 102.933 269.74 102.72C270.14 102.507 270.547 102.4 270.96 102.4C271.454 102.4 271.9 102.533 272.3 102.8C272.7 103.067 272.9 103.427 272.9 103.88C272.9 104.133 272.787 104.393 272.56 104.66C272.347 104.927 272.127 105.06 271.9 105.06C271.78 105.06 271.674 105.033 271.58 104.98C271.5 104.913 271.4 104.82 271.28 104.7C271.147 104.567 271.034 104.473 270.94 104.42C270.847 104.353 270.74 104.32 270.62 104.32C270.407 104.32 270.207 104.353 270.02 104.42C269.834 104.487 269.707 104.567 269.64 104.66C269.427 104.993 269.267 105.293 269.16 105.56C269.067 105.827 269.02 106.113 269.02 106.42C269.02 106.647 269.014 106.827 269 106.96L268.98 108.1C268.98 108.273 268.987 108.467 269 108.68C269.014 108.893 269.027 109.053 269.04 109.16C269.08 109.52 269.1 109.867 269.1 110.2C269.1 110.427 269.014 110.627 268.84 110.8C268.667 110.973 268.454 111.06 268.2 111.06C267.8 111.06 267.507 110.987 267.32 110.84C267.134 110.68 267.04 110.393 267.04 109.98L267.02 108.7C267.007 108.447 267 108.087 267 107.62L267.02 106.3C267.047 105.66 267.06 105.14 267.06 104.74C267.06 104.593 267.027 104.46 266.96 104.34C266.907 104.22 266.794 104.1 266.62 103.98ZM281.96 104.58C282.066 104.767 282.153 105.04 282.22 105.4C282.286 105.747 282.32 106.06 282.32 106.34C282.32 106.7 282.28 107.1 282.2 107.54C282.12 107.98 282.046 108.32 281.98 108.56C281.06 110.24 279.7 111.08 277.9 111.08C277.233 111.08 276.553 110.86 275.86 110.42C275.166 109.98 274.686 109.473 274.42 108.9C274.06 107.767 273.88 107.04 273.88 106.72C273.88 106.187 273.993 105.62 274.22 105.02C274.46 104.42 274.76 103.9 275.12 103.46C275.36 103.153 275.773 102.893 276.36 102.68C276.946 102.453 277.48 102.34 277.96 102.34C278.893 102.34 279.68 102.52 280.32 102.88C280.973 103.227 281.52 103.793 281.96 104.58ZM280.22 107.8C280.286 107.667 280.32 107.22 280.32 106.46C280.32 106.073 280.246 105.693 280.1 105.32C279.966 104.947 279.766 104.627 279.5 104.36C279.473 104.333 279.4 104.293 279.28 104.24C279.16 104.173 278.993 104.113 278.78 104.06C278.58 103.993 278.346 103.96 278.08 103.96C277.333 103.96 276.786 104.26 276.44 104.86C276.093 105.46 275.92 106.14 275.92 106.9C275.92 107.02 275.96 107.267 276.04 107.64C276.12 108.013 276.18 108.253 276.22 108.36C276.326 108.547 276.54 108.767 276.86 109.02C277.193 109.26 277.553 109.38 277.94 109.38C278.54 109.38 279.013 109.24 279.36 108.96C279.72 108.667 280.006 108.28 280.22 107.8ZM287.016 110.2C286.989 110.427 286.896 110.627 286.736 110.8C286.576 110.973 286.369 111.06 286.116 111.06C285.716 111.06 285.422 110.987 285.236 110.84C285.049 110.68 284.956 110.393 284.956 109.98C284.956 109.42 284.989 108.807 285.056 108.14C285.109 107.367 285.136 106.773 285.136 106.36C285.136 106.147 285.122 105.88 285.096 105.56C285.069 105.267 285.056 105.047 285.056 104.9C285.016 104.673 284.922 104.493 284.776 104.36C284.642 104.227 284.429 104.113 284.136 104.02C284.016 103.967 283.916 103.88 283.836 103.76C283.756 103.627 283.716 103.507 283.716 103.4C283.716 103.093 283.836 102.86 284.076 102.7C284.316 102.54 284.609 102.46 284.956 102.46C285.342 102.46 285.676 102.593 285.956 102.86C286.236 103.127 286.449 103.46 286.596 103.86C286.902 103.42 287.276 103.067 287.716 102.8C288.169 102.533 288.609 102.4 289.036 102.4C289.582 102.4 290.042 102.493 290.416 102.68C290.802 102.853 290.996 103.16 290.996 103.6C290.996 103.853 290.882 104.12 290.656 104.4C290.442 104.667 290.222 104.8 289.996 104.8C289.822 104.8 289.616 104.72 289.376 104.56C289.282 104.493 289.176 104.44 289.056 104.4C288.949 104.347 288.836 104.32 288.716 104.32C288.502 104.32 288.302 104.353 288.116 104.42C287.929 104.487 287.802 104.567 287.736 104.66C287.522 104.993 287.362 105.293 287.256 105.56C287.162 105.827 287.116 106.113 287.116 106.42C287.116 106.647 287.109 106.827 287.096 106.96L287.076 108.1L287.096 108.86C287.096 109.42 287.069 109.867 287.016 110.2Z" fill="#D91E1E"/>
<path d="M241.16 44.32C241.16 44.9067 240.86 45.2 240.26 45.2C240.06 45.2 239.893 45.1533 239.76 45.06C239.627 44.9667 239.48 44.8267 239.32 44.64C238.92 44.2 238.573 43.98 238.28 43.98C237.893 43.98 237.513 44.0933 237.14 44.32C236.78 44.5467 236.487 44.8667 236.26 45.28C236.033 45.6933 235.92 46.1533 235.92 46.66C235.92 47.22 236.027 47.6867 236.24 48.06C236.467 48.4333 236.813 48.7533 237.28 49.02C237.453 49.1133 237.653 49.1867 237.88 49.24C238.12 49.2933 238.327 49.32 238.5 49.32C238.887 49.32 239.373 49.1667 239.96 48.86C240.173 48.7533 240.353 48.6733 240.5 48.62C240.647 48.5667 240.8 48.54 240.96 48.54C241.107 48.54 241.273 48.6067 241.46 48.74C241.647 48.8733 241.74 49.04 241.74 49.24C241.74 49.64 241.553 49.98 241.18 50.26C240.807 50.5267 240.347 50.7333 239.8 50.88C239.267 51.0133 238.753 51.08 238.26 51.08C237.473 51.08 236.74 50.9 236.06 50.54C235.393 50.18 234.86 49.6867 234.46 49.06C234.06 48.42 233.86 47.7 233.86 46.9C233.86 46.0467 234.053 45.2667 234.44 44.56C234.827 43.8533 235.347 43.3 236 42.9C236.653 42.5 237.367 42.3 238.14 42.3C238.58 42.3 239.033 42.38 239.5 42.54C239.967 42.7 240.36 42.9333 240.68 43.24C241 43.5467 241.16 43.9067 241.16 44.32ZM251.355 44.58C251.462 44.7667 251.548 45.04 251.615 45.4C251.682 45.7467 251.715 46.06 251.715 46.34C251.715 46.86 251.602 47.6 251.375 48.56C250.455 50.24 249.095 51.08 247.295 51.08C246.628 51.08 245.948 50.86 245.255 50.42C244.562 49.98 244.082 49.4733 243.815 48.9C243.455 47.7533 243.275 47.0267 243.275 46.72C243.275 46.1867 243.388 45.62 243.615 45.02C243.855 44.42 244.155 43.9 244.515 43.46C244.742 43.1533 245.148 42.8933 245.735 42.68C246.322 42.4533 246.855 42.34 247.335 42.34C248.268 42.34 249.062 42.52 249.715 42.88C250.368 43.2267 250.915 43.7933 251.355 44.58ZM249.615 47.8C249.682 47.6267 249.715 47.18 249.715 46.46C249.715 46.0733 249.642 45.6933 249.495 45.32C249.362 44.9467 249.162 44.6267 248.895 44.36C248.868 44.3333 248.795 44.2933 248.675 44.24C248.555 44.1733 248.388 44.1133 248.175 44.06C247.975 43.9933 247.742 43.96 247.475 43.96C246.728 43.96 246.182 44.26 245.835 44.86C245.488 45.46 245.315 46.14 245.315 46.9C245.315 47.0333 245.348 47.2867 245.415 47.66C245.495 48.0333 245.562 48.2667 245.615 48.36C245.655 48.4533 245.755 48.5867 245.915 48.76C246.088 48.92 246.295 49.0667 246.535 49.2C246.788 49.32 247.048 49.38 247.315 49.38C247.915 49.38 248.395 49.24 248.755 48.96C249.115 48.6667 249.402 48.28 249.615 47.8ZM261.949 50.9C261.669 50.9 261.403 50.82 261.149 50.66C260.909 50.4867 260.696 50.3067 260.509 50.12C260.323 49.92 260.196 49.7867 260.129 49.72C259.849 50.12 259.443 50.4467 258.909 50.7C258.376 50.9533 257.863 51.08 257.369 51.08C256.609 51.08 255.936 50.92 255.349 50.6C254.763 50.28 254.309 49.8467 253.989 49.3C253.669 48.74 253.509 48.12 253.509 47.44C253.509 46.8 253.583 46.1867 253.729 45.6C253.889 45 254.103 44.5 254.369 44.1C254.729 43.5933 255.209 43.1933 255.809 42.9C256.423 42.6067 257.029 42.46 257.629 42.46C257.989 42.46 258.329 42.5267 258.649 42.66C258.969 42.7933 259.249 42.96 259.489 43.16C259.489 42.28 259.483 41.7267 259.469 41.5V41.06C259.469 39.8067 259.549 38.8933 259.709 38.32C259.856 37.76 260.216 37.48 260.789 37.48C261.096 37.48 261.323 37.5467 261.469 37.68C261.616 37.8133 261.689 38.0667 261.689 38.44C261.689 38.5733 261.656 38.94 261.589 39.54C261.443 41.0333 261.369 42.5267 261.369 44.02C261.369 45.2733 261.389 46.2067 261.429 46.82C261.483 47.42 261.583 47.9 261.729 48.26C261.889 48.62 262.136 48.94 262.469 49.22C262.669 49.38 262.809 49.5133 262.889 49.62C262.983 49.7267 263.029 49.8667 263.029 50.04C263.029 50.2533 262.923 50.4533 262.709 50.64C262.496 50.8133 262.243 50.9 261.949 50.9ZM257.309 49.46C258.016 49.46 258.536 49.24 258.869 48.8C259.216 48.3467 259.389 47.7733 259.389 47.08L259.369 45.96C259.356 45.7467 259.349 45.46 259.349 45.1C258.856 44.5133 258.323 44.22 257.749 44.22C257.363 44.22 256.996 44.32 256.649 44.52C256.316 44.72 256.043 45.0133 255.829 45.4C255.603 45.84 255.489 46.5067 255.489 47.4C255.489 48.0133 255.669 48.5133 256.029 48.9C256.389 49.2733 256.816 49.46 257.309 49.46ZM264.173 46.42C264.173 45.6067 264.353 44.9333 264.713 44.4C265.073 43.8533 265.573 43.34 266.213 42.86C266.399 42.7267 266.713 42.6133 267.153 42.52C267.593 42.4133 267.979 42.36 268.312 42.36C268.713 42.36 269.133 42.4467 269.573 42.62C270.026 42.78 270.393 42.9667 270.673 43.18C271.166 43.54 271.506 43.96 271.693 44.44C271.879 44.9067 271.973 45.4667 271.973 46.12C271.973 46.4 271.813 46.6733 271.493 46.94C271.186 47.1933 270.853 47.32 270.493 47.32L269.733 47.3C269.346 47.3 268.793 47.3133 268.073 47.34L267.653 47.36C267.359 47.3867 267.139 47.4 266.993 47.4C266.779 47.4 266.486 47.3733 266.113 47.32C266.166 47.9467 266.399 48.44 266.813 48.8C267.226 49.1467 267.673 49.32 268.153 49.32C268.993 49.32 269.579 49.1533 269.913 48.82C270.193 48.62 270.379 48.4933 270.473 48.44C270.566 48.3867 270.713 48.36 270.913 48.36C271.126 48.36 271.313 48.46 271.473 48.66C271.633 48.86 271.713 49.06 271.713 49.26C271.713 49.4867 271.573 49.72 271.293 49.96C271.026 50.1867 270.659 50.4267 270.193 50.68C269.939 50.7867 269.593 50.88 269.153 50.96C268.713 51.04 268.346 51.08 268.053 51.08C267.586 51.08 267.066 50.9467 266.493 50.68C265.919 50.4 265.493 50.0933 265.213 49.76C264.933 49.4267 264.686 48.9533 264.473 48.34C264.273 47.7267 264.173 47.0867 264.173 46.42ZM268.153 45.88C269.099 45.88 269.793 45.8467 270.233 45.78C270.206 45.3933 270.086 45.08 269.873 44.84C269.659 44.5867 269.366 44.3733 268.993 44.2C268.873 44.1467 268.766 44.1067 268.673 44.08C268.579 44.0533 268.473 44.04 268.353 44.04C267.739 44.04 267.219 44.2067 266.793 44.54C266.379 44.8733 266.133 45.3 266.053 45.82C266.719 45.86 267.419 45.88 268.153 45.88Z" fill="#1E49D9"/>
</svg>
