<svg width="334" height="81" viewBox="0 0 334 81" fill="none" xmlns="http://www.w3.org/2000/svg">
<path d="M269.295 31.425C269.295 30.7083 269.82 30.35 270.87 30.35C271.32 30.35 272.178 30.3667 273.445 30.4C274.845 30.4667 275.903 30.5 276.62 30.5C277.203 30.5 277.911 30.4667 278.745 30.4C279.311 30.3667 279.67 30.35 279.82 30.35C280.736 30.3833 281.511 30.55 282.145 30.85C282.328 30.9333 282.478 31.0333 282.595 31.15C282.711 31.2667 282.77 31.4583 282.77 31.725C282.77 32.0917 282.653 32.4083 282.42 32.675C282.186 32.925 281.903 33.05 281.57 33.05C281.203 33.05 280.67 33 279.97 32.9C279.353 32.7833 278.811 32.725 278.345 32.725C277.895 32.725 277.553 32.7333 277.32 32.75C277.27 33.3 277.245 34.6167 277.245 36.7C277.245 39.1833 277.32 41.7 277.47 44.25L277.52 44.975C277.52 45.6583 277.128 46 276.345 46C275.728 46 275.311 45.8583 275.095 45.575C274.878 45.275 274.77 44.825 274.77 44.225C274.77 43.0417 274.736 41.5667 274.67 39.8C274.603 38.3333 274.57 37.2917 274.57 36.675C274.57 36.2583 274.62 34.9833 274.72 32.85L271.795 32.875C270.861 32.875 270.211 32.7917 269.845 32.625C269.478 32.4417 269.295 32.0417 269.295 31.425ZM285.069 51.1C284.435 51.1 283.902 50.9917 283.469 50.775C283.052 50.575 282.735 50.325 282.519 50.025C282.319 49.7417 282.219 49.4917 282.219 49.275C282.219 48.9917 282.319 48.7667 282.519 48.6C282.719 48.45 282.96 48.375 283.244 48.375C283.41 48.375 283.569 48.425 283.719 48.525C283.869 48.625 283.952 48.6833 283.969 48.7C284.085 48.7833 284.202 48.85 284.319 48.9C284.435 48.9667 284.56 49 284.694 49C285.06 49 285.36 48.7583 285.594 48.275C285.827 47.7917 286.06 47.0083 286.294 45.925C285.544 44.825 284.919 43.725 284.419 42.625L283.844 41.3C283.76 41.1 283.527 40.5833 283.144 39.75C282.777 38.9 282.41 38.15 282.044 37.5C281.81 37.0333 281.694 36.7167 281.694 36.55C281.694 36.1333 281.835 35.825 282.119 35.625C282.419 35.425 282.76 35.325 283.144 35.325C283.41 35.325 283.61 35.3833 283.744 35.5C283.894 35.6 284.06 35.7917 284.244 36.075C284.727 36.875 285.252 38.075 285.819 39.675C286.152 40.5917 286.419 41.2917 286.619 41.775C286.819 42.2417 287.06 42.7167 287.344 43.2C287.627 42.55 287.985 41.4417 288.419 39.875C288.685 38.975 288.902 38.2583 289.069 37.725C289.252 37.175 289.452 36.675 289.669 36.225C289.819 35.925 290.002 35.6833 290.219 35.5C290.452 35.3167 290.71 35.225 290.994 35.225C291.277 35.225 291.577 35.3333 291.894 35.55C292.227 35.75 292.394 35.9917 292.394 36.275C292.394 36.4417 292.335 36.6417 292.219 36.875C291.569 38.375 290.994 39.7917 290.494 41.125C290.01 42.4417 289.544 43.8917 289.094 45.475C288.827 46.3583 288.544 47.2 288.244 48C287.96 48.8 287.76 49.2917 287.644 49.475C287.31 49.9417 286.935 50.325 286.519 50.625C286.102 50.9417 285.619 51.1 285.069 51.1ZM294.287 37.475C294.121 37.2417 294.004 37.0417 293.937 36.875C293.871 36.7083 293.837 36.5 293.837 36.25C293.837 35.9833 293.946 35.7583 294.162 35.575C294.396 35.3917 294.687 35.3 295.037 35.3C295.387 35.3 295.737 35.4333 296.087 35.7C296.437 35.95 296.721 36.275 296.937 36.675C297.287 36.175 297.762 35.8167 298.362 35.6C298.962 35.3833 299.612 35.275 300.312 35.275C301.079 35.275 301.787 35.5083 302.437 35.975C303.104 36.4417 303.629 37.0417 304.012 37.775C304.396 38.5083 304.587 39.2417 304.587 39.975C304.587 40.6917 304.512 41.3333 304.362 41.9C304.212 42.45 303.946 43.0083 303.562 43.575C303.129 44.175 302.546 44.6667 301.812 45.05C301.096 45.4333 300.237 45.625 299.237 45.625C298.971 45.625 298.646 45.5583 298.262 45.425C297.879 45.275 297.562 45.1167 297.312 44.95C297.196 46.0833 297.137 47.0667 297.137 47.9C297.137 48.4 297.162 48.875 297.212 49.325C297.246 49.8583 297.262 50.2417 297.262 50.475C297.262 50.8417 297.137 51.1083 296.887 51.275C296.637 51.4583 296.362 51.55 296.062 51.55C295.462 51.55 295.062 51.3833 294.862 51.05C294.679 50.7333 294.587 50.275 294.587 49.675C294.654 48.2417 294.737 46.9167 294.837 45.7C294.954 43.95 295.012 41.8 295.012 39.25C295.012 39.05 294.929 38.7583 294.762 38.375C294.612 37.9917 294.454 37.6917 294.287 37.475ZM297.412 42.475C297.496 42.7917 297.729 43.0583 298.112 43.275C298.512 43.475 298.871 43.575 299.187 43.575C300.137 43.575 300.846 43.3167 301.312 42.8C301.662 42.4333 301.887 42.075 301.987 41.725C302.104 41.375 302.162 40.8167 302.162 40.05C302.162 39.45 302.046 38.95 301.812 38.55C301.579 38.1333 301.296 37.8333 300.962 37.65C300.629 37.45 300.312 37.35 300.012 37.35C299.329 37.35 298.771 37.5583 298.337 37.975C297.921 38.375 297.654 38.925 297.537 39.625C297.454 40.175 297.412 41.125 297.412 42.475ZM307.191 40.7C307.191 40.0667 307.308 39.4333 307.541 38.8C307.775 38.15 308.083 37.5583 308.466 37.025C308.85 36.4917 309.458 36.0583 310.291 35.725C311.125 35.375 311.866 35.2 312.516 35.2C313.183 35.2 313.858 35.2917 314.541 35.475C315.241 35.6583 315.725 35.9417 315.991 36.325C316.608 37.1917 316.916 38.0417 316.916 38.875C316.916 39.325 316.816 39.7083 316.616 40.025C316.433 40.3417 316.166 40.6833 315.816 41.05C315.533 41.35 315.083 41.55 314.466 41.65C313.866 41.75 313.266 41.8 312.666 41.8C312.283 41.8 311.816 41.7667 311.266 41.7C310.716 41.6167 310.183 41.5167 309.666 41.4C309.7 41.7333 309.783 42.0583 309.916 42.375C310.05 42.6917 310.208 42.9333 310.391 43.1C310.725 43.4167 311.066 43.6167 311.416 43.7C311.783 43.7833 312.25 43.825 312.816 43.825C313.416 43.825 313.975 43.725 314.491 43.525C314.908 43.375 315.25 43.3 315.516 43.3C315.833 43.3 316.075 43.4 316.241 43.6C316.408 43.7833 316.491 44.025 316.491 44.325C316.491 44.7417 316.25 45.0833 315.766 45.35C315.283 45.6167 314.725 45.8167 314.091 45.95C313.475 46.0667 312.975 46.125 312.591 46.125C311.808 46.125 311.05 45.9833 310.316 45.7C309.583 45.4167 308.975 45.0167 308.491 44.5C308.091 44.0333 307.775 43.475 307.541 42.825C307.308 42.1583 307.191 41.45 307.191 40.7ZM312.641 37.325C312.275 37.325 311.908 37.4 311.541 37.55C311.175 37.6833 310.875 37.875 310.641 38.125C310.341 38.4417 310.133 38.7 310.016 38.9C309.916 39.0833 309.85 39.3417 309.816 39.675C310.233 39.8083 311.1 39.875 312.416 39.875C313.133 39.875 313.683 39.7667 314.066 39.55C314.466 39.3333 314.666 39.05 314.666 38.7C314.666 38.35 314.45 38.0333 314.016 37.75C313.583 37.4667 313.125 37.325 312.641 37.325Z" fill="black"/>
<path d="M204 31C204 33.208 202.208 35 200 35H184C186.208 35 188 36.792 188 39C188 41.208 186.208 43 184 43H182C184.208 43 186 44.792 186 47C186 49.208 184.208 51 182 51H180C182.208 51 184 52.792 184 55C184 57.208 182.208 59 180 59H160C158.9 59 157.364 58.364 156.586 57.586L150 53V29L161.502 21.876C162.21 21.31 163.092 21 164 21H174C176.208 21 178 22.792 178 25C178 25.732 177.788 26.41 177.446 27H200C202.208 27 204 28.792 204 31ZM144 31V51C144 52.104 144.894 53 146 53H148V29H146C144.894 29 144 29.896 144 31Z" fill="#111918"/>
<path fill-rule="evenodd" clip-rule="evenodd" d="M50.976 73.832C49.048 73.832 47.488 72.2643 47.488 70.3262C47.488 68.3881 49.048 66.8242 50.976 66.8242C52.904 66.8242 54.464 68.3881 54.464 70.3262C54.464 72.2643 52.904 73.832 50.976 73.832ZM40.288 80C60.6 80 59.332 71.1465 59.332 71.1465L59.308 61.9746H39.928V59.2207H67.004C67.004 59.2207 80 60.7045 80 40.1055C80 19.5063 68.66 20.2324 68.66 20.2324H61.8879V29.7949C61.8879 29.7949 62.252 41.1934 50.728 41.1934H31.504C31.504 41.1934 20.704 41.022 20.704 51.6895V69.3242C20.704 69.3242 19.064 80 40.288 80ZM29.028 6.16797C30.956 6.16797 32.512 7.73575 32.512 9.67383C32.512 11.6119 30.956 13.1758 29.028 13.1758C27.1 13.1758 25.54 11.6119 25.54 9.67383C25.54 7.73575 27.1 6.16797 29.028 6.16797ZM39.712 0C19.404 0 20.672 8.85352 20.672 8.85352L20.696 18.0254H40.076V20.7793H12.996C12.996 20.7793 0 19.2955 0 39.8945C0 60.4937 11.344 59.7676 11.344 59.7676H18.1121V50.2051C18.1121 50.2051 17.748 38.8066 29.276 38.8066H48.496C48.496 38.8066 59.296 38.978 59.296 28.3105V10.6758C59.296 10.6758 60.936 0 39.712 0Z" fill="black"/>
<path d="M328.717 0H258.283C256.882 0.00160204 255.539 0.558675 254.549 1.54901C253.559 2.53934 253.002 3.88206 253 5.28261V75.7174C253.002 77.1179 253.559 78.4606 254.549 79.451C255.539 80.4413 256.882 80.9984 258.283 81H306.128C306.822 81.0019 307.51 80.8661 308.151 80.6005C308.792 80.335 309.374 79.9448 309.864 79.4528L332.453 56.8637C332.945 56.3743 333.335 55.7921 333.601 55.151C333.866 54.5098 334.002 53.8223 334 53.1283V5.28261C333.998 3.88206 333.441 2.53934 332.451 1.54901C331.461 0.558675 330.118 0.00160204 328.717 0ZM309.348 74.9878V56.3444H327.991L309.348 74.9878ZM330.478 52.8226H307.587C307.356 52.8226 307.127 52.8682 306.913 52.9567C306.699 53.0452 306.505 53.1749 306.342 53.3384C306.178 53.5019 306.049 53.696 305.96 53.9096C305.872 54.1233 305.826 54.3523 305.826 54.5835V77.4782H258.283C257.816 77.4777 257.368 77.292 257.038 76.9619C256.708 76.6318 256.522 76.1842 256.522 75.7174V5.28261C256.522 4.81576 256.708 4.36819 257.038 4.03807C257.368 3.70796 257.816 3.52227 258.283 3.52174H328.717C329.184 3.52227 329.632 3.70796 329.962 4.03807C330.292 4.36819 330.478 4.81576 330.478 5.28261V52.8226Z" fill="black"/>
</svg>
