<svg width="314" height="182" viewBox="0 0 314 182" fill="none" xmlns="http://www.w3.org/2000/svg">
<circle cx="115.5" cy="112.5" r="60.5" fill="#E9E8F3"/>
<path d="M196.052 133.462C195.541 134.201 195.71 135.192 196.429 135.675C197.148 136.158 198.146 135.952 198.658 135.214C203.871 127.69 204.334 118.38 200.663 110.96C200.278 110.182 199.322 109.887 198.528 110.303C197.733 110.718 197.401 111.686 197.786 112.464C200.964 118.896 200.566 126.953 196.052 133.462Z" fill="#DFDFDF"/>
<path d="M206.623 129.794C206.239 130.348 206.366 131.092 206.906 131.455C207.445 131.817 208.194 131.662 208.579 131.109C212.492 125.461 212.839 118.473 210.083 112.904C209.795 112.32 209.077 112.098 208.481 112.411C207.884 112.722 207.635 113.449 207.924 114.033C210.31 118.86 210.011 124.908 206.623 129.794Z" fill="#DFDFDF"/>
<path d="M28.3918 110.154C28.7053 109.557 28.4896 108.834 27.91 108.539C27.3306 108.245 26.6057 108.489 26.2911 109.085C23.0907 115.165 23.592 122.143 27.0017 127.338C27.3591 127.883 28.098 128.016 28.6518 127.634C29.2067 127.253 29.3658 126.501 29.0081 125.956C26.0557 121.453 25.62 115.414 28.3918 110.154Z" fill="#DFDFDF"/>
<path d="M20.0112 104.519C20.6195 103.435 20.3568 102.203 19.4242 101.768C18.4918 101.334 17.2411 101.86 16.631 102.944C10.4223 113.993 10.3052 126.103 15.316 134.7C15.8411 135.602 17.0635 135.733 18.0458 134.99C19.0298 134.248 19.4003 132.915 18.8744 132.013C14.5364 124.56 14.6346 114.08 20.0112 104.519Z" fill="#DFDFDF"/>
<path d="M179.107 109.245C181.001 144.528 153.934 174.666 118.651 176.561C83.3677 178.455 53.2292 151.388 51.3349 116.105C49.4405 80.8215 76.5076 50.6831 111.791 48.7887C147.074 46.8944 177.213 73.9615 179.107 109.245ZM62.9902 115.479C64.5389 144.325 89.1789 166.454 118.025 164.906C146.871 163.357 169.001 138.717 167.452 109.871C165.903 81.0243 141.263 58.8953 112.417 60.444C83.5704 61.9928 61.4414 86.6328 62.9902 115.479Z" fill="#364781"/>
<path d="M113.038 72.0212C109.831 72.1934 107.37 74.9332 107.542 78.1408L109.559 115.698C109.559 115.698 109.64 117.212 110.437 118.312C110.981 119.251 111.794 120.049 112.834 120.578L140.497 134.628C143.361 136.083 146.862 134.94 148.316 132.076C149.771 129.212 148.629 125.711 145.765 124.257L120.992 111.674L119.158 77.5172C118.986 74.3096 116.246 71.849 113.038 72.0212Z" fill="#A2A2A2"/>
<mask id="path-8-inside-1_1385_1215" fill="white">
<path d="M82.9203 49.2936C84.2347 48.2848 84.4907 46.3928 83.3853 45.1585C81.3627 42.9003 79.0986 40.8963 76.6642 39.2147C73.4292 36.9799 69.9568 35.3583 66.4456 34.4425C62.9343 33.5267 59.4528 33.3346 56.1998 33.8771C52.9469 34.4196 49.9862 35.6862 47.4869 37.6044C44.9875 39.5227 42.9984 42.0552 41.6332 45.0572C40.2679 48.0591 39.5532 51.4719 39.5299 55.1006C39.5065 58.7293 40.175 62.5028 41.4972 66.2058C42.4921 68.9922 43.8425 71.6975 45.5009 74.2353C46.4072 75.6222 48.3011 75.8642 49.6155 74.8554L66.2679 62.0745L82.9203 49.2936Z"/>
</mask>
<path d="M82.9203 49.2936C84.2347 48.2848 84.4907 46.3928 83.3853 45.1585C81.3627 42.9003 79.0986 40.8963 76.6642 39.2147C73.4292 36.9799 69.9568 35.3583 66.4456 34.4425C62.9343 33.5267 59.4528 33.3346 56.1998 33.8771C52.9469 34.4196 49.9862 35.6862 47.4869 37.6044C44.9875 39.5227 42.9984 42.0552 41.6332 45.0572C40.2679 48.0591 39.5532 51.4719 39.5299 55.1006C39.5065 58.7293 40.175 62.5028 41.4972 66.2058C42.4921 68.9922 43.8425 71.6975 45.5009 74.2353C46.4072 75.6222 48.3011 75.8642 49.6155 74.8554L66.2679 62.0745L82.9203 49.2936Z" stroke="#405AAD" stroke-width="20" mask="url(#path-8-inside-1_1385_1215)"/>
<mask id="path-9-inside-2_1385_1215" fill="white">
<path d="M140.749 46.1889C139.335 45.3267 138.877 43.4729 139.844 42.1274C141.613 39.6656 143.65 37.4307 145.89 35.4981C148.868 32.9298 152.146 30.9458 155.539 29.6593C158.932 28.3727 162.373 27.8089 165.666 28.0001C168.958 28.1912 172.037 29.1334 174.728 30.7731C177.418 32.4127 179.667 34.7176 181.346 37.5562C183.024 40.3948 184.1 43.7114 184.512 47.3167C184.924 50.922 184.663 54.7455 183.745 58.5687C183.054 61.4456 182.001 64.28 180.624 66.9807C179.872 68.4567 178.014 68.9001 176.6 68.0378L158.674 57.1134L140.749 46.1889Z"/>
</mask>
<path d="M140.749 46.1889C139.335 45.3267 138.877 43.4729 139.844 42.1274C141.613 39.6656 143.65 37.4307 145.89 35.4981C148.868 32.9298 152.146 30.9458 155.539 29.6593C158.932 28.3727 162.373 27.8089 165.666 28.0001C168.958 28.1912 172.037 29.1334 174.728 30.7731C177.418 32.4127 179.667 34.7176 181.346 37.5562C183.024 40.3948 184.1 43.7114 184.512 47.3167C184.924 50.922 184.663 54.7455 183.745 58.5687C183.054 61.4456 182.001 64.28 180.624 66.9807C179.872 68.4567 178.014 68.9001 176.6 68.0378L158.674 57.1134L140.749 46.1889Z" stroke="#405AAD" stroke-width="20" mask="url(#path-9-inside-2_1385_1215)"/>
<path d="M230.054 5.41734C227.681 5.8163 225.894 7.79462 225.738 10.1954C225.703 10.7364 225.795 11.2838 225.927 11.8471C226.027 12.272 226.166 12.7725 226.336 13.3604L226.574 14.1844C226.577 14.1931 226.579 14.2018 226.582 14.2105L230.825 28.8177C228.867 27.8205 226.54 27.5374 224.264 28.1988C219.513 29.5787 216.781 34.5484 218.161 39.2989C219.541 44.0495 224.51 46.7818 229.261 45.4018C234.011 44.0218 236.744 39.0522 235.364 34.3016L230.74 18.3854C230.959 18.4314 231.195 18.4744 231.453 18.5214L237.068 19.5486C237.935 19.7072 238.641 19.8363 239.21 19.9098C239.784 19.9839 240.338 20.0194 240.872 19.9294C243.245 19.5305 245.031 17.5521 245.187 15.1514C245.222 14.6103 245.131 14.063 244.999 13.4997C244.868 12.9411 244.668 12.252 244.422 11.4052L244.378 11.2552C244.196 10.6254 244.053 10.1327 243.828 9.69183C243.249 8.55694 242.272 7.67498 241.084 7.21417C240.623 7.03519 240.118 6.94309 239.473 6.82537L233.858 5.79824C232.991 5.63954 232.285 5.51039 231.716 5.43694C231.142 5.36285 230.588 5.32743 230.054 5.41734Z" fill="#E17F7C"/>
<path fill-rule="evenodd" clip-rule="evenodd" d="M308.65 26.2028C308.58 26.52 308.492 26.8666 308.38 27.2283C307.948 28.6298 307.071 30.5842 305.235 31.6791C304.002 32.4144 302.512 32.6968 301.076 32.4295C299.633 32.161 298.357 31.3554 297.567 30.1547C296.777 28.9539 296.573 27.5087 296.949 26.1561C297.323 24.8094 298.24 23.6559 299.473 22.9206C301.309 21.8257 303.539 21.927 305.051 22.1687C305.457 22.2334 305.836 22.3123 306.177 22.394L307.51 16.5815L291.026 15.4681L288.878 24.8303L288.869 24.8669C288.799 25.1841 288.71 25.5306 288.599 25.8923C288.167 27.2938 287.289 29.2482 285.453 30.3431C284.221 31.0784 282.73 31.3608 281.294 31.0936C279.852 30.8251 278.576 30.0194 277.786 28.8187C276.996 27.6179 276.792 26.1727 277.167 24.8201C277.541 23.4734 278.459 22.3199 279.692 21.5846C281.527 20.4897 283.757 20.591 285.27 20.8327C285.676 20.8974 286.055 20.9763 286.395 21.058L289 9.7083C289.683 6.73305 292.513 4.70977 295.693 4.92452L307.503 5.72214C310.517 5.92572 312.672 8.67882 312.025 11.4996L308.659 26.1663C308.656 26.1786 308.653 26.1907 308.65 26.2028ZM308.844 10.7697C309.06 9.82945 308.342 8.91175 307.337 8.8439L295.527 8.04626C293.937 7.9389 292.522 8.95053 292.18 10.4382L291.734 12.383L308.218 13.4963L308.844 10.7697ZM284.797 23.9195C283.506 23.7134 282.267 23.7632 281.447 24.2525C280.868 24.5976 280.47 25.122 280.314 25.6815C280.161 26.235 280.256 26.7683 280.529 27.1829C280.801 27.5974 281.264 27.9118 281.854 28.0216C282.45 28.1325 283.12 28.0204 283.698 27.6752C284.519 27.186 285.106 26.1467 285.475 24.9505C285.567 24.6519 285.639 24.3635 285.696 24.1011C285.423 24.0349 285.119 23.9711 284.797 23.9195ZM301.228 25.5885C302.048 25.0992 303.287 25.0493 304.578 25.2555C304.901 25.307 305.204 25.3709 305.477 25.4371C305.421 25.6995 305.348 25.9879 305.257 26.2865C304.888 27.4827 304.3 28.5219 303.48 29.0112C302.901 29.3564 302.232 29.4685 301.635 29.3575C301.045 29.2477 300.583 28.9334 300.31 28.5189C300.037 28.1043 299.942 27.571 300.096 27.0175C300.251 26.458 300.649 25.9336 301.228 25.5885Z" fill="#E2ACAA"/>
</svg>
