<svg width="413" height="172" viewBox="0 0 413 172" fill="none" xmlns="http://www.w3.org/2000/svg">
<path d="M239.512 101.083L255.413 105.235L254.04 110.505L238.139 106.346L239.512 101.083ZM236.245 113.575L252.146 117.733L253.519 112.47L237.619 108.311L236.245 113.575ZM251.632 119.757L235.725 115.598L234.352 120.856L250.259 125.02L251.632 119.757ZM245.66 77.5199L261.56 81.6781L262.934 76.4087L247.033 72.2505L245.66 77.5199ZM243.772 84.7485L259.673 88.9066L261.046 83.6314L245.145 79.4732L243.772 84.7485ZM241.867 92.0355L257.768 96.1937L259.141 90.936L243.24 86.7778L241.867 92.0355ZM239.991 99.2524L255.886 103.411L257.259 98.147L241.364 93.9888L239.991 99.2524ZM225.738 136.103L231.769 137.542L233.335 130.974L244.263 133.57L242.691 140.15L248.722 141.594L251.76 128.845L228.777 123.359L225.738 136.103ZM398.982 101.089L383.064 105.247L384.437 110.505L400.344 106.346L398.982 101.089ZM400.87 108.311L384.969 112.47L386.336 117.727L402.243 113.569L400.87 108.311ZM388.224 125.014L404.125 120.862L402.757 115.598L386.856 119.745L388.224 125.014ZM391.45 72.2622L375.549 76.4146L376.916 81.6839L392.817 77.5316L391.45 72.2622ZM393.325 79.4849L377.43 83.6373L378.804 88.9066L394.699 84.7543L393.325 79.4849ZM395.23 86.7544L379.33 90.9126L380.697 96.1644L396.598 92.0063L395.23 86.7544ZM397.112 93.9771L381.211 98.1412L382.579 103.411L398.48 99.2465L397.112 93.9771ZM389.737 61.4311C389.141 55.881 384.18 51.8515 378.634 52.4363C374.432 52.8749 371.113 55.8401 369.991 59.6532C367.572 56.2494 363.861 54.068 359.7 54.068H328.939H319.46H319.01H309.538H278.764C274.61 54.068 270.899 56.2553 268.479 59.659C267.369 55.8401 264.044 52.8749 259.842 52.4363C254.297 51.8456 249.33 55.8751 248.739 61.4311C248.155 66.9812 252.175 71.9523 257.727 72.5371C260.696 72.8471 263.483 71.8353 265.54 69.9814V124.476C265.54 132.769 271.46 139.489 278.764 139.489H292.649V145.946V160.929H284.626C281.569 160.929 279.092 163.409 279.092 166.456C279.092 169.514 281.564 172 284.626 172H292.649H300.679H307.095V145.934H319.022H319.472H331.393V172H337.81H345.833H353.857C356.913 172 359.391 169.514 359.391 166.456C359.391 163.409 356.913 160.929 353.857 160.929H345.827V145.951V139.495H359.712C367.017 139.495 372.942 132.775 372.942 124.482V69.9814C375.005 71.8353 377.793 72.8471 380.75 72.5371C386.307 71.9523 390.322 66.9812 389.737 61.4311ZM409.7 123.359L386.704 128.845L389.749 141.594L395.786 140.15L394.202 133.57L405.13 130.974L406.713 137.553L412.738 136.103L409.7 123.359ZM319.016 47.781H279.512V30.3412C279.512 13.5916 291.223 0.0116966 305.681 0.0116966L319.022 0H319.051H319.431H319.466L332.796 0.0116966C347.253 0.0116966 358.964 13.5916 358.964 30.3412V47.7869H319.46H319.425H319.045V47.781H319.016ZM305.143 28.1306H319.016H319.466H333.339C338.727 28.1306 343.104 23.756 343.104 18.358C343.104 12.9599 338.733 8.58538 333.339 8.58538H319.466H319.016H305.143C299.755 8.58538 295.378 12.9599 295.378 18.358C295.378 23.756 299.749 28.1306 305.143 28.1306ZM311.279 44.4182H319.016H319.466H327.203C330.26 44.4182 332.726 41.9385 332.726 38.8798C332.726 35.8211 330.26 33.3414 327.203 33.3414H319.466H319.016H311.279C308.223 33.3414 305.751 35.8211 305.751 38.8798C305.751 41.9385 308.223 44.4182 311.279 44.4182ZM308.509 12.8137C305.453 12.8137 302.975 15.2934 302.975 18.3521C302.975 21.4108 305.453 23.8905 308.509 23.8905C311.565 23.8905 314.043 21.4108 314.043 18.3521C314.043 15.2934 311.565 12.8137 308.509 12.8137ZM329.973 23.8905C333.024 23.8905 335.507 21.4108 335.507 18.3521C335.507 15.2934 333.024 12.8137 329.973 12.8137C326.923 12.8137 324.445 15.2934 324.445 18.3521C324.445 21.4108 326.917 23.8905 329.973 23.8905Z" fill="#262937"/>
<rect x="275.238" y="79.5" width="88" height="44" rx="4.5" fill="white" stroke="#818181" stroke-width="3"/>
<path d="M290.621 96.7647H291.503V97.6471H290.621V96.7647ZM291.503 96.7647H292.385V97.6471H291.503V96.7647ZM292.385 96.7647H293.268V97.6471H292.385V96.7647ZM290.621 98.5294H291.503V99.4118H290.621V98.5294ZM290.621 97.6471H291.503V98.5294H290.621V97.6471ZM292.385 109.118H293.268V110H292.385V109.118ZM291.503 109.118H292.385V110H291.503V109.118ZM290.621 108.235H291.503V109.118H290.621V108.235ZM290.621 107.353H291.503V108.235H290.621V107.353ZM290.621 109.118H291.503V110H290.621V109.118ZM295.032 96.7647H295.915V97.6471H295.032V96.7647ZM293.268 96.7647H294.15V97.6471H293.268V96.7647ZM295.915 96.7647H296.797V97.6471H295.915V96.7647ZM296.797 96.7647H297.679V97.6471H296.797V96.7647ZM297.679 96.7647H298.562V97.6471H297.679V96.7647ZM298.562 96.7647H299.444V97.6471H298.562V96.7647ZM299.444 97.6471H300.327V98.5294H299.444V97.6471ZM298.562 97.6471H299.444V98.5294H298.562V97.6471ZM298.562 98.5294H299.444V99.4118H298.562V98.5294ZM300.327 97.6471H301.209V98.5294H300.327V97.6471ZM300.327 98.5294H301.209V99.4118H300.327V98.5294ZM299.444 98.5294H300.327V99.4118H299.444V98.5294ZM298.562 99.4118H299.444V100.294H298.562V99.4118ZM297.679 99.4118H298.562V100.294H297.679V99.4118ZM299.444 99.4118H300.327V100.294H299.444V99.4118ZM300.327 99.4118H301.209V100.294H300.327V99.4118ZM301.209 99.4118H302.091V100.294H301.209V99.4118ZM301.209 100.294H302.091V101.176H301.209V100.294ZM301.209 101.176H302.091V102.059H301.209V101.176ZM301.209 102.059H302.091V102.941H301.209V102.059ZM301.209 102.941H302.091V103.824H301.209V102.941ZM301.209 103.824H302.091V104.706H301.209V103.824ZM301.209 104.706H302.091V105.588H301.209V104.706ZM301.209 105.588H302.091V106.471H301.209V105.588ZM301.209 106.471H302.091V107.353H301.209V106.471ZM300.327 106.471H301.209V107.353H300.327V106.471ZM300.327 107.353H301.209V108.235H300.327V107.353ZM300.327 108.235H301.209V109.118H300.327V108.235ZM299.444 108.235H300.327V109.118H299.444V108.235ZM298.562 108.235H299.444V109.118H298.562V108.235ZM297.679 107.353H298.562V108.235H297.679V107.353ZM297.679 106.471H298.562V107.353H297.679V106.471ZM298.562 106.471H299.444V107.353H298.562V106.471ZM298.562 107.353H299.444V108.235H298.562V107.353ZM299.444 107.353H300.327V108.235H299.444V107.353ZM299.444 106.471H300.327V107.353H299.444V106.471ZM299.444 105.588H300.327V106.471H299.444V105.588ZM298.562 105.588H299.444V106.471H298.562V105.588ZM298.562 104.706H299.444V105.588H298.562V104.706ZM298.562 103.824H299.444V104.706H298.562V103.824ZM298.562 102.941H299.444V103.824H298.562V102.941ZM298.562 102.059H299.444V102.941H298.562V102.059ZM298.562 101.176H299.444V102.059H298.562V101.176ZM298.562 100.294H299.444V101.176H298.562V100.294ZM299.444 100.294H300.327V101.176H299.444V100.294ZM299.444 101.176H300.327V102.059H299.444V101.176ZM299.444 102.059H300.327V102.941H299.444V102.059ZM299.444 102.941H300.327V103.824H299.444V102.941ZM299.444 103.824H300.327V104.706H299.444V103.824ZM299.444 104.706H300.327V105.588H299.444V104.706ZM300.327 105.588H301.209V106.471H300.327V105.588ZM300.327 104.706H301.209V105.588H300.327V104.706ZM300.327 103.824H301.209V104.706H300.327V103.824ZM300.327 102.941H301.209V103.824H300.327V102.941ZM300.327 102.059H301.209V102.941H300.327V102.059ZM300.327 101.176H301.209V102.059H300.327V101.176ZM300.327 100.294H301.209V101.176H300.327V100.294ZM297.679 108.235H298.562V109.118H297.679V108.235ZM297.679 109.118H298.562V110H297.679V109.118ZM298.562 109.118H299.444V110H298.562V109.118ZM296.797 109.118H297.679V110H296.797V109.118ZM295.915 109.118H296.797V110H295.915V109.118ZM295.032 109.118H295.915V110H295.032V109.118ZM294.15 109.118H295.032V110H294.15V109.118ZM293.268 109.118H294.15V110H293.268V109.118ZM293.268 108.235H294.15V109.118H293.268V108.235ZM292.385 108.235H293.268V109.118H292.385V108.235ZM291.503 108.235H292.385V109.118H291.503V108.235ZM291.503 101.176H292.385V102.059H291.503V101.176ZM291.503 100.294H292.385V101.176H291.503V100.294ZM290.621 99.4118H291.503V100.294H290.621V99.4118ZM291.503 98.5294H292.385V99.4118H291.503V98.5294ZM292.385 97.6471H293.268V98.5294H292.385V97.6471ZM293.268 97.6471H294.15V98.5294H293.268V97.6471ZM294.15 97.6471H295.032V98.5294H294.15V97.6471ZM294.15 98.5294H295.032V99.4118H294.15V98.5294ZM294.15 99.4118H295.032V100.294H294.15V99.4118ZM293.268 99.4118H294.15V100.294H293.268V99.4118ZM292.385 99.4118H293.268V100.294H292.385V99.4118ZM293.268 100.294H294.15V101.176H293.268V100.294ZM293.268 101.176H294.15V102.059H293.268V101.176ZM293.268 102.059H294.15V102.941H293.268V102.059ZM294.15 107.353H295.032V108.235H294.15V107.353ZM295.032 107.353H295.915V108.235H295.032V107.353ZM295.915 107.353H296.797V108.235H295.915V107.353ZM296.797 107.353H297.679V108.235H296.797V107.353ZM296.797 108.235H297.679V109.118H296.797V108.235ZM295.915 108.235H296.797V109.118H295.915V108.235ZM295.032 108.235H295.915V109.118H295.032V108.235ZM294.15 108.235H295.032V109.118H294.15V108.235ZM293.268 107.353H294.15V108.235H293.268V107.353ZM292.385 107.353H293.268V108.235H292.385V107.353ZM292.385 101.176H293.268V102.059H292.385V101.176ZM292.385 100.294H293.268V101.176H292.385V100.294ZM292.385 98.5294H293.268V99.4118H292.385V98.5294ZM293.268 98.5294H294.15V99.4118H293.268V98.5294ZM295.032 97.6471H295.915V98.5294H295.032V97.6471ZM295.915 97.6471H296.797V98.5294H295.915V97.6471ZM296.797 97.6471H297.679V98.5294H296.797V97.6471ZM297.679 97.6471H298.562V98.5294H297.679V97.6471ZM297.679 98.5294H298.562V99.4118H297.679V98.5294ZM296.797 98.5294H297.679V99.4118H296.797V98.5294ZM295.915 98.5294H296.797V99.4118H295.915V98.5294ZM295.032 98.5294H295.915V99.4118H295.032V98.5294ZM291.503 97.6471H292.385V98.5294H291.503V97.6471ZM291.503 107.353H292.385V108.235H291.503V107.353ZM291.503 99.4118H292.385V100.294H291.503V99.4118ZM290.621 100.294H291.503V101.176H290.621V100.294ZM290.621 101.176H291.503V102.059H290.621V101.176ZM290.621 106.471H291.503V107.353H290.621V106.471ZM291.503 106.471H292.385V107.353H291.503V106.471ZM292.385 106.471H293.268V107.353H292.385V106.471ZM293.268 106.471H294.15V107.353H293.268V106.471ZM292.385 102.059H293.268V102.941H292.385V102.059ZM291.503 102.059H292.385V102.941H291.503V102.059ZM290.621 102.059H291.503V102.941H290.621V102.059ZM290.621 102.941H291.503V103.824H290.621V102.941ZM290.621 103.824H291.503V104.706H290.621V103.824ZM290.621 104.706H291.503V105.588H290.621V104.706ZM291.503 104.706H292.385V105.588H291.503V104.706ZM291.503 105.588H292.385V106.471H291.503V105.588ZM292.385 105.588H293.268V106.471H292.385V105.588ZM290.621 105.588H291.503V106.471H290.621V105.588ZM293.268 105.588H294.15V106.471H293.268V105.588ZM293.268 104.706H294.15V105.588H293.268V104.706ZM293.268 103.824H294.15V104.706H293.268V103.824ZM293.268 102.941H294.15V103.824H293.268V102.941ZM292.385 102.941H293.268V103.824H292.385V102.941ZM291.503 102.941H292.385V103.824H291.503V102.941ZM291.503 103.824H292.385V104.706H291.503V103.824ZM292.385 104.706H293.268V105.588H292.385V104.706ZM292.385 103.824H293.268V104.706H292.385V103.824ZM290.621 110H291.503V110.882H290.621V110ZM291.503 110H292.385V110.882H291.503V110ZM292.385 110H293.268V110.882H292.385V110ZM293.268 110H294.15V110.882H293.268V110ZM293.268 110.882H294.15V111.765H293.268V110.882ZM293.268 111.765H294.15V112.647H293.268V111.765ZM292.385 111.765H293.268V112.647H292.385V111.765ZM291.503 111.765H292.385V112.647H291.503V111.765ZM291.503 110.882H292.385V111.765H291.503V110.882ZM290.621 110.882H291.503V111.765H290.621V110.882ZM292.385 110.882H293.268V111.765H292.385V110.882ZM290.621 111.765H291.503V112.647H290.621V111.765ZM290.621 112.647H291.503V113.529H290.621V112.647ZM291.503 112.647H292.385V113.529H291.503V112.647ZM292.385 112.647H293.268V113.529H292.385V112.647ZM293.268 112.647H294.15V113.529H293.268V112.647ZM293.268 113.529H294.15V114.412H293.268V113.529ZM292.385 113.529H293.268V114.412H292.385V113.529ZM291.503 113.529H292.385V114.412H291.503V113.529ZM290.621 113.529H291.503V114.412H290.621V113.529ZM305.342 96.7647H306.224V97.6471H305.342V96.7647ZM306.224 96.7647H307.106V97.6471H306.224V96.7647ZM307.106 96.7647H307.989V97.6471H307.106V96.7647ZM305.342 98.5294H306.224V99.4118H305.342V98.5294ZM305.342 97.6471H306.224V98.5294H305.342V97.6471ZM307.106 109.118H307.989V110H307.106V109.118ZM306.224 109.118H307.106V110H306.224V109.118ZM305.342 108.235H306.224V109.118H305.342V108.235ZM305.342 107.353H306.224V108.235H305.342V107.353ZM305.342 109.118H306.224V110H305.342V109.118ZM309.753 96.7647H310.636V97.6471H309.753V96.7647ZM307.989 96.7647H308.871V97.6471H307.989V96.7647ZM310.636 96.7647H311.518V97.6471H310.636V96.7647ZM311.518 96.7647H312.401V97.6471H311.518V96.7647ZM312.401 96.7647H313.283V97.6471H312.401V96.7647ZM313.283 97.6471H314.165V98.5294H313.283V97.6471ZM313.283 98.5294H314.165V99.4118H313.283V98.5294ZM314.165 98.5294H315.048V99.4118H314.165V98.5294ZM313.283 99.4118H314.165V100.294H313.283V99.4118ZM312.401 99.4118H313.283V100.294H312.401V99.4118ZM307.989 109.118H308.871V110H307.989V109.118ZM307.989 108.235H308.871V109.118H307.989V108.235ZM307.106 108.235H307.989V109.118H307.106V108.235ZM306.224 108.235H307.106V109.118H306.224V108.235ZM306.224 101.176H307.106V102.059H306.224V101.176ZM306.224 100.294H307.106V101.176H306.224V100.294ZM305.342 99.4118H306.224V100.294H305.342V99.4118ZM306.224 98.5294H307.106V99.4118H306.224V98.5294ZM307.106 97.6471H307.989V98.5294H307.106V97.6471ZM307.989 97.6471H308.871V98.5294H307.989V97.6471ZM308.871 97.6471H309.753V98.5294H308.871V97.6471ZM308.871 98.5294H309.753V99.4118H308.871V98.5294ZM308.871 99.4118H309.753V100.294H308.871V99.4118ZM307.989 99.4118H308.871V100.294H307.989V99.4118ZM307.106 99.4118H307.989V100.294H307.106V99.4118ZM307.989 100.294H308.871V101.176H307.989V100.294ZM307.989 101.176H308.871V102.059H307.989V101.176ZM307.989 102.059H308.871V102.941H307.989V102.059ZM307.989 107.353H308.871V108.235H307.989V107.353ZM307.106 107.353H307.989V108.235H307.106V107.353ZM307.106 101.176H307.989V102.059H307.106V101.176ZM307.106 100.294H307.989V101.176H307.106V100.294ZM307.106 98.5294H307.989V99.4118H307.106V98.5294ZM307.989 98.5294H308.871V99.4118H307.989V98.5294ZM309.753 97.6471H310.636V98.5294H309.753V97.6471ZM310.636 97.6471H311.518V98.5294H310.636V97.6471ZM311.518 97.6471H312.401V98.5294H311.518V97.6471ZM312.401 97.6471H313.283V98.5294H312.401V97.6471ZM312.401 98.5294H313.283V99.4118H312.401V98.5294ZM311.518 98.5294H312.401V99.4118H311.518V98.5294ZM310.636 98.5294H311.518V99.4118H310.636V98.5294ZM309.753 98.5294H310.636V99.4118H309.753V98.5294ZM306.224 97.6471H307.106V98.5294H306.224V97.6471ZM306.224 107.353H307.106V108.235H306.224V107.353ZM306.224 99.4118H307.106V100.294H306.224V99.4118ZM305.342 100.294H306.224V101.176H305.342V100.294ZM305.342 101.176H306.224V102.059H305.342V101.176ZM305.342 106.471H306.224V107.353H305.342V106.471ZM306.224 106.471H307.106V107.353H306.224V106.471ZM307.106 106.471H307.989V107.353H307.106V106.471ZM307.989 106.471H308.871V107.353H307.989V106.471ZM307.106 102.059H307.989V102.941H307.106V102.059ZM306.224 102.059H307.106V102.941H306.224V102.059ZM305.342 102.059H306.224V102.941H305.342V102.059ZM305.342 102.941H306.224V103.824H305.342V102.941ZM305.342 103.824H306.224V104.706H305.342V103.824ZM305.342 104.706H306.224V105.588H305.342V104.706ZM306.224 104.706H307.106V105.588H306.224V104.706ZM306.224 105.588H307.106V106.471H306.224V105.588ZM307.106 105.588H307.989V106.471H307.106V105.588ZM305.342 105.588H306.224V106.471H305.342V105.588ZM307.989 105.588H308.871V106.471H307.989V105.588ZM307.989 104.706H308.871V105.588H307.989V104.706ZM307.989 103.824H308.871V104.706H307.989V103.824ZM307.989 102.941H308.871V103.824H307.989V102.941ZM307.106 102.941H307.989V103.824H307.106V102.941ZM306.224 102.941H307.106V103.824H306.224V102.941ZM306.224 103.824H307.106V104.706H306.224V103.824ZM307.106 104.706H307.989V105.588H307.106V104.706ZM307.106 103.824H307.989V104.706H307.106V103.824ZM311.518 99.4118H312.401V100.294H311.518V99.4118ZM312.401 100.294H313.283V101.176H312.401V100.294ZM317.4 97.6471H318.283V98.5294H317.4V97.6471ZM317.4 98.5294H318.283V99.4118H317.4V98.5294ZM317.4 99.4118H318.283V100.294H317.4V99.4118ZM317.4 100.294H318.283V101.176H317.4V100.294ZM317.4 101.176H318.283V102.059H317.4V101.176ZM316.518 101.176H317.4V102.059H316.518V101.176ZM316.518 100.294H317.4V101.176H316.518V100.294ZM316.518 99.4118H317.4V100.294H316.518V99.4118ZM316.518 98.5294H317.4V99.4118H316.518V98.5294ZM316.518 97.6471H317.4V98.5294H316.518V97.6471ZM316.518 106.471H317.4V107.353H316.518V106.471ZM316.518 105.588H317.4V106.471H316.518V105.588ZM316.518 104.706H317.4V105.588H316.518V104.706ZM316.518 103.824H317.4V104.706H316.518V103.824ZM317.4 102.941H318.283V103.824H317.4V102.941ZM317.4 102.059H318.283V102.941H317.4V102.059ZM316.518 102.059H317.4V102.941H316.518V102.059ZM316.518 102.941H317.4V103.824H316.518V102.941ZM316.518 107.353H317.4V108.235H316.518V107.353ZM316.518 108.235H317.4V109.118H316.518V108.235ZM316.518 109.118H317.4V110H316.518V109.118ZM319.165 97.6471H320.047V98.5294H319.165V97.6471ZM319.165 98.5294H320.047V99.4118H319.165V98.5294ZM319.165 99.4118H320.047V100.294H319.165V99.4118ZM319.165 100.294H320.047V101.176H319.165V100.294ZM319.165 101.176H320.047V102.059H319.165V101.176ZM319.165 102.059H320.047V102.941H319.165V102.059ZM319.165 102.941H320.047V103.824H319.165V102.941ZM319.165 103.824H320.047V104.706H319.165V103.824ZM319.165 104.706H320.047V105.588H319.165V104.706ZM319.165 105.588H320.047V106.471H319.165V105.588ZM319.165 106.471H320.047V107.353H319.165V106.471ZM319.165 107.353H320.047V108.235H319.165V107.353ZM319.165 108.235H320.047V109.118H319.165V108.235ZM319.165 109.118H320.047V110H319.165V109.118ZM318.283 109.118H319.165V110H318.283V109.118ZM317.4 109.118H318.283V110H317.4V109.118ZM317.4 108.235H318.283V109.118H317.4V108.235ZM318.283 108.235H319.165V109.118H318.283V108.235ZM318.283 107.353H319.165V108.235H318.283V107.353ZM317.4 106.471H318.283V107.353H317.4V106.471ZM317.4 105.588H318.283V106.471H317.4V105.588ZM317.4 104.706H318.283V105.588H317.4V104.706ZM318.283 104.706H319.165V105.588H318.283V104.706ZM318.283 105.588H319.165V106.471H318.283V105.588ZM318.283 106.471H319.165V107.353H318.283V106.471ZM317.4 107.353H318.283V108.235H317.4V107.353ZM318.283 103.824H319.165V104.706H318.283V103.824ZM318.283 102.941H319.165V103.824H318.283V102.941ZM318.283 102.059H319.165V102.941H318.283V102.059ZM317.4 103.824H318.283V104.706H317.4V103.824ZM318.283 101.176H319.165V102.059H318.283V101.176ZM318.283 100.294H319.165V101.176H318.283V100.294ZM318.283 99.4118H319.165V100.294H318.283V99.4118ZM318.283 98.5294H319.165V99.4118H318.283V98.5294ZM318.283 97.6471H319.165V98.5294H318.283V97.6471ZM319.165 92.3529H320.047V93.2353H319.165V92.3529ZM318.283 93.2353H319.165V94.1176H318.283V93.2353ZM318.283 91.4706H319.165V92.3529H318.283V91.4706ZM317.4 92.3529H318.283V93.2353H317.4V92.3529ZM318.283 92.3529H319.165V93.2353H318.283V92.3529ZM317.4 91.4706H318.283V92.3529H317.4V91.4706ZM317.4 93.2353H318.283V94.1176H317.4V93.2353ZM319.165 93.2353H320.047V94.1176H319.165V93.2353ZM316.518 92.3529H317.4V93.2353H316.518V92.3529ZM316.518 93.2353H317.4V94.1176H316.518V93.2353ZM317.4 94.1176H318.283V95H317.4V94.1176ZM318.283 94.1176H319.165V95H318.283V94.1176ZM316.518 91.4706H317.4V92.3529H316.518V91.4706ZM319.165 91.4706H320.047V92.3529H319.165V91.4706ZM319.165 94.1176H320.047V95H319.165V94.1176ZM316.518 94.1176H317.4V95H316.518V94.1176ZM323.3 96.7647H324.182V97.6471H323.3V96.7647ZM324.182 96.7647H325.064V97.6471H324.182V96.7647ZM325.064 96.7647H325.947V97.6471H325.064V96.7647ZM323.3 98.5294H324.182V99.4118H323.3V98.5294ZM323.3 97.6471H324.182V98.5294H323.3V97.6471ZM325.064 109.118H325.947V110H325.064V109.118ZM324.182 109.118H325.064V110H324.182V109.118ZM323.3 108.235H324.182V109.118H323.3V108.235ZM323.3 107.353H324.182V108.235H323.3V107.353ZM323.3 109.118H324.182V110H323.3V109.118ZM327.711 96.7647H328.594V97.6471H327.711V96.7647ZM325.947 96.7647H326.829V97.6471H325.947V96.7647ZM328.594 96.7647H329.476V97.6471H328.594V96.7647ZM329.476 96.7647H330.358V97.6471H329.476V96.7647ZM330.358 96.7647H331.241V97.6471H330.358V96.7647ZM331.241 96.7647H332.123V97.6471H331.241V96.7647ZM332.123 97.6471H333.005V98.5294H332.123V97.6471ZM331.241 97.6471H332.123V98.5294H331.241V97.6471ZM331.241 98.5294H332.123V99.4118H331.241V98.5294ZM333.005 97.6471H333.888V98.5294H333.005V97.6471ZM333.005 98.5294H333.888V99.4118H333.005V98.5294ZM332.123 98.5294H333.005V99.4118H332.123V98.5294ZM331.241 99.4118H332.123V100.294H331.241V99.4118ZM330.358 99.4118H331.241V100.294H330.358V99.4118ZM332.123 99.4118H333.005V100.294H332.123V99.4118ZM333.005 99.4118H333.888V100.294H333.005V99.4118ZM333.888 99.4118H334.77V100.294H333.888V99.4118ZM333.888 100.294H334.77V101.176H333.888V100.294ZM333.888 101.176H334.77V102.059H333.888V101.176ZM333.888 102.059H334.77V102.941H333.888V102.059ZM333.888 102.941H334.77V103.824H333.888V102.941ZM333.888 103.824H334.77V104.706H333.888V103.824ZM333.888 104.706H334.77V105.588H333.888V104.706ZM333.888 105.588H334.77V106.471H333.888V105.588ZM333.888 106.471H334.77V107.353H333.888V106.471ZM333.005 106.471H333.888V107.353H333.005V106.471ZM333.005 107.353H333.888V108.235H333.005V107.353ZM333.005 108.235H333.888V109.118H333.005V108.235ZM332.123 108.235H333.005V109.118H332.123V108.235ZM331.241 108.235H332.123V109.118H331.241V108.235ZM331.241 106.471H332.123V107.353H331.241V106.471ZM331.241 107.353H332.123V108.235H331.241V107.353ZM332.123 107.353H333.005V108.235H332.123V107.353ZM332.123 106.471H333.005V107.353H332.123V106.471ZM332.123 105.588H333.005V106.471H332.123V105.588ZM331.241 105.588H332.123V106.471H331.241V105.588ZM331.241 104.706H332.123V105.588H331.241V104.706ZM331.241 103.824H332.123V104.706H331.241V103.824ZM331.241 102.941H332.123V103.824H331.241V102.941ZM331.241 102.059H332.123V102.941H331.241V102.059ZM331.241 101.176H332.123V102.059H331.241V101.176ZM331.241 100.294H332.123V101.176H331.241V100.294ZM332.123 100.294H333.005V101.176H332.123V100.294ZM332.123 101.176H333.005V102.059H332.123V101.176ZM332.123 102.059H333.005V102.941H332.123V102.059ZM332.123 102.941H333.005V103.824H332.123V102.941ZM332.123 103.824H333.005V104.706H332.123V103.824ZM332.123 104.706H333.005V105.588H332.123V104.706ZM333.005 105.588H333.888V106.471H333.005V105.588ZM333.005 104.706H333.888V105.588H333.005V104.706ZM333.005 103.824H333.888V104.706H333.005V103.824ZM333.005 102.941H333.888V103.824H333.005V102.941ZM333.005 102.059H333.888V102.941H333.005V102.059ZM333.005 101.176H333.888V102.059H333.005V101.176ZM333.005 100.294H333.888V101.176H333.005V100.294ZM331.241 109.118H332.123V110H331.241V109.118ZM325.947 109.118H326.829V110H325.947V109.118ZM325.947 108.235H326.829V109.118H325.947V108.235ZM325.064 108.235H325.947V109.118H325.064V108.235ZM324.182 108.235H325.064V109.118H324.182V108.235ZM324.182 101.176H325.064V102.059H324.182V101.176ZM324.182 100.294H325.064V101.176H324.182V100.294ZM323.3 99.4118H324.182V100.294H323.3V99.4118ZM324.182 98.5294H325.064V99.4118H324.182V98.5294ZM325.064 97.6471H325.947V98.5294H325.064V97.6471ZM325.947 97.6471H326.829V98.5294H325.947V97.6471ZM326.829 97.6471H327.711V98.5294H326.829V97.6471ZM326.829 98.5294H327.711V99.4118H326.829V98.5294ZM326.829 99.4118H327.711V100.294H326.829V99.4118ZM325.947 99.4118H326.829V100.294H325.947V99.4118ZM325.064 99.4118H325.947V100.294H325.064V99.4118ZM325.947 100.294H326.829V101.176H325.947V100.294ZM325.947 101.176H326.829V102.059H325.947V101.176ZM325.947 102.059H326.829V102.941H325.947V102.059ZM325.947 107.353H326.829V108.235H325.947V107.353ZM325.064 107.353H325.947V108.235H325.064V107.353ZM325.064 101.176H325.947V102.059H325.064V101.176ZM325.064 100.294H325.947V101.176H325.064V100.294ZM325.064 98.5294H325.947V99.4118H325.064V98.5294ZM325.947 98.5294H326.829V99.4118H325.947V98.5294ZM327.711 97.6471H328.594V98.5294H327.711V97.6471ZM328.594 97.6471H329.476V98.5294H328.594V97.6471ZM329.476 97.6471H330.358V98.5294H329.476V97.6471ZM330.358 97.6471H331.241V98.5294H330.358V97.6471ZM330.358 98.5294H331.241V99.4118H330.358V98.5294ZM329.476 98.5294H330.358V99.4118H329.476V98.5294ZM328.594 98.5294H329.476V99.4118H328.594V98.5294ZM327.711 98.5294H328.594V99.4118H327.711V98.5294ZM324.182 97.6471H325.064V98.5294H324.182V97.6471ZM324.182 107.353H325.064V108.235H324.182V107.353ZM324.182 99.4118H325.064V100.294H324.182V99.4118ZM323.3 100.294H324.182V101.176H323.3V100.294ZM323.3 101.176H324.182V102.059H323.3V101.176ZM323.3 106.471H324.182V107.353H323.3V106.471ZM324.182 106.471H325.064V107.353H324.182V106.471ZM325.064 106.471H325.947V107.353H325.064V106.471ZM325.947 106.471H326.829V107.353H325.947V106.471ZM325.064 102.059H325.947V102.941H325.064V102.059ZM324.182 102.059H325.064V102.941H324.182V102.059ZM323.3 102.059H324.182V102.941H323.3V102.059ZM323.3 102.941H324.182V103.824H323.3V102.941ZM323.3 103.824H324.182V104.706H323.3V103.824ZM323.3 104.706H324.182V105.588H323.3V104.706ZM324.182 104.706H325.064V105.588H324.182V104.706ZM324.182 105.588H325.064V106.471H324.182V105.588ZM325.064 105.588H325.947V106.471H325.064V105.588ZM323.3 105.588H324.182V106.471H323.3V105.588ZM325.947 105.588H326.829V106.471H325.947V105.588ZM325.947 104.706H326.829V105.588H325.947V104.706ZM325.947 103.824H326.829V104.706H325.947V103.824ZM325.947 102.941H326.829V103.824H325.947V102.941ZM325.064 102.941H325.947V103.824H325.064V102.941ZM324.182 102.941H325.064V103.824H324.182V102.941ZM324.182 103.824H325.064V104.706H324.182V103.824ZM325.064 104.706H325.947V105.588H325.064V104.706ZM325.064 103.824H325.947V104.706H325.064V103.824ZM332.123 109.118H333.005V110H332.123V109.118ZM333.005 109.118H333.888V110H333.005V109.118ZM333.888 109.118H334.77V110H333.888V109.118ZM333.888 108.235H334.77V109.118H333.888V108.235ZM333.888 107.353H334.77V108.235H333.888V107.353ZM338.021 97.6471H338.903V98.5294H338.021V97.6471ZM338.903 97.6471H339.785V98.5294H338.903V97.6471ZM339.785 97.6471H340.668V98.5294H339.785V97.6471ZM340.668 97.6471H341.55V98.5294H340.668V97.6471ZM341.55 97.6471H342.432V98.5294H341.55V97.6471ZM342.432 97.6471H343.315V98.5294H342.432V97.6471ZM343.315 97.6471H344.197V98.5294H343.315V97.6471ZM344.197 97.6471H345.079V98.5294H344.197V97.6471ZM345.079 97.6471H345.962V98.5294H345.079V97.6471ZM345.079 98.5294H345.962V99.4118H345.079V98.5294ZM345.079 99.4118H345.962V100.294H345.079V99.4118ZM344.197 99.4118H345.079V100.294H344.197V99.4118ZM343.315 99.4118H344.197V100.294H343.315V99.4118ZM342.432 99.4118H343.315V100.294H342.432V99.4118ZM341.55 99.4118H342.432V100.294H341.55V99.4118ZM340.668 99.4118H341.55V100.294H340.668V99.4118ZM339.785 99.4118H340.668V100.294H339.785V99.4118ZM338.903 99.4118H339.785V100.294H338.903V99.4118ZM338.903 98.5294H339.785V99.4118H338.903V98.5294ZM338.021 98.5294H338.903V99.4118H338.021V98.5294ZM338.021 99.4118H338.903V100.294H338.021V99.4118ZM339.785 98.5294H340.668V99.4118H339.785V98.5294ZM340.668 98.5294H341.55V99.4118H340.668V98.5294ZM341.55 98.5294H342.432V99.4118H341.55V98.5294ZM342.432 98.5294H343.315V99.4118H342.432V98.5294ZM343.315 98.5294H344.197V99.4118H343.315V98.5294ZM344.197 98.5294H345.079V99.4118H344.197V98.5294ZM339.785 96.7647H340.668V97.6471H339.785V96.7647ZM340.668 96.7647H341.55V97.6471H340.668V96.7647ZM341.55 96.7647H342.432V97.6471H341.55V96.7647ZM342.432 96.7647H343.315V97.6471H342.432V96.7647ZM341.55 95.8824H342.432V96.7647H341.55V95.8824ZM340.668 95.8824H341.55V96.7647H340.668V95.8824ZM342.432 95.8824H343.315V96.7647H342.432V95.8824ZM342.432 94.1176H343.315V95H342.432V94.1176ZM342.432 95H343.315V95.8824H342.432V95ZM341.55 95H342.432V95.8824H341.55V95ZM342.432 93.2353H343.315V94.1176H342.432V93.2353ZM341.55 94.1176H342.432V95H341.55V94.1176ZM340.668 95H341.55V95.8824H340.668V95ZM339.785 95.8824H340.668V96.7647H339.785V95.8824ZM339.785 100.294H340.668V101.176H339.785V100.294ZM339.785 101.176H340.668V102.059H339.785V101.176ZM339.785 102.059H340.668V102.941H339.785V102.059ZM339.785 102.941H340.668V103.824H339.785V102.941ZM340.668 102.941H341.55V103.824H340.668V102.941ZM340.668 103.824H341.55V104.706H340.668V103.824ZM341.55 102.941H342.432V103.824H341.55V102.941ZM341.55 102.059H342.432V102.941H341.55V102.059ZM342.432 102.059H343.315V102.941H342.432V102.059ZM342.432 101.176H343.315V102.059H342.432V101.176ZM341.55 100.294H342.432V101.176H341.55V100.294ZM340.668 100.294H341.55V101.176H340.668V100.294ZM340.668 101.176H341.55V102.059H340.668V101.176ZM340.668 102.059H341.55V102.941H340.668V102.059ZM341.55 101.176H342.432V102.059H341.55V101.176ZM342.432 100.294H343.315V101.176H342.432V100.294ZM342.432 102.941H343.315V103.824H342.432V102.941ZM342.432 103.824H343.315V104.706H342.432V103.824ZM341.55 103.824H342.432V104.706H341.55V103.824ZM341.55 104.706H342.432V105.588H341.55V104.706ZM340.668 104.706H341.55V105.588H340.668V104.706ZM339.785 103.824H340.668V104.706H339.785V103.824ZM339.785 104.706H340.668V105.588H339.785V104.706ZM342.432 104.706H343.315V105.588H342.432V104.706ZM339.785 105.588H340.668V106.471H339.785V105.588ZM340.668 105.588H341.55V106.471H340.668V105.588ZM340.668 106.471H341.55V107.353H340.668V106.471ZM341.55 106.471H342.432V107.353H341.55V106.471ZM342.432 106.471H343.315V107.353H342.432V106.471ZM342.432 105.588H343.315V106.471H342.432V105.588ZM341.55 105.588H342.432V106.471H341.55V105.588ZM339.785 106.471H340.668V107.353H339.785V106.471ZM342.432 107.353H343.315V108.235H342.432V107.353ZM343.315 107.353H344.197V108.235H343.315V107.353ZM343.315 106.471H344.197V107.353H343.315V106.471ZM341.55 107.353H342.432V108.235H341.55V107.353ZM340.668 107.353H341.55V108.235H340.668V107.353ZM340.668 108.235H341.55V109.118H340.668V108.235ZM341.55 108.235H342.432V109.118H341.55V108.235ZM342.432 108.235H343.315V109.118H342.432V108.235ZM343.315 108.235H344.197V109.118H343.315V108.235ZM344.197 108.235H345.079V109.118H344.197V108.235ZM344.197 107.353H345.079V108.235H344.197V107.353ZM345.079 107.353H345.962V108.235H345.079V107.353ZM345.079 108.235H345.962V109.118H345.079V108.235ZM344.197 109.118H345.079V110H344.197V109.118ZM343.315 109.118H344.197V110H343.315V109.118ZM342.432 109.118H343.315V110H342.432V109.118ZM345.079 109.118H345.962V110H345.079V109.118Z" fill="#4F5A8E"/>
<path d="M3.14102 31.1782C3.30209 31.1691 3.42048 31.1844 3.49619 31.2242C3.67771 31.3167 3.83935 31.4471 3.98109 31.6154C4.122 31.769 4.20117 31.9995 4.21859 32.307C4.21585 32.7773 4.05106 33.1098 3.72422 33.3046C3.43965 33.4676 3.04843 33.5632 2.55057 33.5914C2.21377 33.6105 1.93582 33.5014 1.71671 33.2641C1.49761 33.0268 1.37727 32.7177 1.3557 32.337C1.33082 31.8977 1.42666 31.3855 1.64325 30.8003C1.87364 30.1996 2.1046 29.7385 2.33611 29.4169C2.49856 29.1726 2.69968 28.9629 2.93949 28.7878C3.1793 28.6126 3.38706 28.52 3.56278 28.5101C3.89958 28.491 4.10748 28.5306 4.18651 28.629C4.28017 28.7265 4.3353 28.9217 4.35189 29.2146C4.35604 29.2878 4.28905 29.4017 4.15091 29.5565C4.02659 29.6957 3.95061 29.7808 3.92298 29.8118C3.70031 30.0301 3.56217 30.1848 3.50858 30.276C3.27955 30.6415 3.12774 30.9439 3.05316 31.1832L3.14102 31.1782ZM6.94092 30.9629C7.11664 30.953 7.24235 30.9679 7.31806 31.0077C7.50041 31.1149 7.65473 31.2457 7.781 31.4001C7.92191 31.5537 8.00108 31.7843 8.0185 32.0918C8.01576 32.562 7.85829 32.8941 7.54609 33.0881C7.26152 33.2511 6.87031 33.3467 6.37244 33.3749C6.03564 33.394 5.75769 33.2849 5.53859 33.0476C5.31948 32.8103 5.19914 32.5012 5.17757 32.1205C5.15269 31.6812 5.24854 31.169 5.46512 30.5838C5.69551 29.9831 5.92647 29.522 6.15798 29.2004C6.33507 28.9553 6.5362 28.7456 6.76136 28.5712C6.98653 28.3969 7.18697 28.3048 7.36269 28.2948C7.71413 28.2749 7.92936 28.3141 8.00838 28.4125C8.10205 28.51 8.15717 28.7052 8.17377 28.998C8.1804 29.1152 8.0232 29.3224 7.70217 29.6197C7.64692 29.6816 7.57785 29.759 7.49497 29.8518C7.41126 29.93 7.34909 29.9996 7.30848 30.0607C7.10626 30.3806 6.96177 30.6826 6.87503 30.9667L6.94092 30.9629ZM13.8536 29.9984C13.8627 30.9381 13.8918 31.8399 13.9407 32.7038C13.9913 33.597 14.1241 34.9043 14.3392 36.6255C14.3687 36.8883 14.4283 37.4211 14.5179 38.224C14.6066 39.0122 14.6696 39.7358 14.7069 40.3948C14.8525 40.3718 15.0051 40.3412 15.1645 40.3028C15.3385 40.2635 15.4695 40.2414 15.5574 40.2364C15.8795 40.2182 16.1403 40.2842 16.3398 40.4345C16.5393 40.5848 16.6486 40.8283 16.6677 41.1651C16.6801 41.3848 16.6018 41.5581 16.4327 41.6852C16.2636 41.8123 15.9611 41.9176 15.5251 42.0011C15.1029 42.0691 14.4819 42.1263 13.6618 42.1727C12.754 42.2242 12.0714 42.2335 11.6141 42.2006C11.1569 42.1677 10.8358 42.0757 10.651 41.9246C10.4653 41.7589 10.3629 41.5076 10.3439 41.1708C10.3298 40.9219 10.4007 40.7489 10.5568 40.6519C10.7129 40.5549 10.9374 40.4981 11.2303 40.4816L11.6928 40.4774L12.4201 40.4803L12.1635 37.8946C11.996 36.4939 11.879 35.2078 11.8127 34.0363C11.777 33.4066 11.75 32.5414 11.7317 31.4407L11.7072 30.2302C11.211 30.2877 10.8238 30.3243 10.5456 30.34C10.2234 30.3583 10.0005 30.3122 9.87669 30.2017C9.76755 30.0903 9.70261 29.8516 9.68188 29.4855C9.65865 29.0755 9.92194 28.7962 10.4717 28.6475C11.0362 28.498 11.8968 28.3905 13.0536 28.325C13.9469 28.2744 14.6148 28.2659 15.0574 28.2996C15.5147 28.3324 15.7491 28.4514 15.7607 28.6564C15.7889 29.1543 15.6978 29.4899 15.4872 29.6635C15.2905 29.8215 14.892 29.9175 14.2916 29.9515L13.8536 29.9984ZM33.6484 39.9828C33.6667 40.3049 33.5063 40.5858 33.1673 40.8254C32.8429 41.0641 32.5343 41.1917 32.2415 41.2083C31.685 41.2399 31.2347 41.1993 30.8904 41.0865C30.56 40.9584 30.2449 40.7118 29.9451 40.3468C29.5834 40.7052 29.0781 40.9909 28.4291 41.2039C27.7793 41.4024 27.1762 41.5173 26.6197 41.5488C25.7118 41.6003 24.9514 41.401 24.3383 40.9509C23.7243 40.4862 23.3904 39.778 23.3365 38.8262C23.3132 38.4162 23.4019 38.0365 23.6025 37.6873C23.8022 37.3234 24.085 36.9989 24.4508 36.7138C24.8597 36.4115 25.3309 36.1718 25.8644 35.9947C26.397 35.8029 26.9562 35.6904 27.542 35.6572C27.8495 35.6398 28.2189 35.6777 28.6502 35.7707C29.0815 35.8638 29.418 35.9696 29.6597 36.0882L29.6398 35.7367C29.595 34.946 29.374 34.415 28.9767 34.1437C28.5785 33.8577 27.9548 33.7388 27.1055 33.7869C26.8566 33.801 26.6105 33.8664 26.3674 33.983C26.1389 34.0988 25.8759 34.2532 25.5783 34.4464C25.1808 34.6892 24.799 34.8211 24.4329 34.8418C24.3011 34.8493 24.1716 34.7684 24.0445 34.5994C23.9166 34.4156 23.8485 34.2506 23.8402 34.1041C23.8161 33.6795 23.9931 33.3022 24.371 32.9723C24.7636 32.6416 25.234 32.3872 25.7821 32.2093C26.3295 32.0167 26.8228 31.9079 27.2621 31.883C27.7014 31.8581 28.2115 31.9174 28.7926 32.0608C29.3728 32.1895 29.8542 32.3899 30.2369 32.662C30.6977 33.0179 31.0598 33.4454 31.3232 33.9446C31.6003 34.4284 31.7559 34.9705 31.7899 35.5708C31.8007 35.7612 31.8022 36.0476 31.7945 36.43C31.7884 36.8416 31.7937 37.1939 31.8103 37.4868C31.8178 37.6185 31.8143 37.8171 31.8 38.0823C31.7889 38.4061 31.7888 38.6632 31.7996 38.8536C31.8095 39.0293 31.8841 39.1793 32.0234 39.3036C32.1618 39.4133 32.3189 39.4632 32.4946 39.4532L33.1084 39.3964C33.2694 39.3873 33.3972 39.4388 33.4917 39.551C33.5862 39.6631 33.6384 39.8071 33.6484 39.9828ZM26.5434 39.8124C27.173 39.7767 27.6965 39.6809 28.1137 39.5251C28.5308 39.3693 29.0297 39.0986 29.6101 38.7132C29.6546 38.4609 29.6725 38.1294 29.664 37.7185C28.837 37.3834 28.16 37.2308 27.6328 37.2607C27.0324 37.2947 26.5042 37.4348 26.048 37.681C25.5919 37.9272 25.3796 38.3285 25.4111 38.8849C25.4269 39.1632 25.5573 39.3908 25.8024 39.5679C26.0475 39.745 26.2945 39.8265 26.5434 39.8124ZM48.9847 39.4004C48.7418 39.0029 48.577 38.5568 48.4902 38.0623C48.4026 37.5531 48.3335 36.8519 48.2829 35.9586C48.2348 35.1093 48.0757 34.3765 47.8058 33.7601C47.5358 33.1437 47.0347 32.8563 46.3026 32.8977C46.0244 32.9135 45.7511 33.0171 45.4829 33.2086C45.2284 33.3846 45.0423 33.6008 44.9246 33.8572C44.742 34.2642 44.6274 34.704 44.5807 35.1768C44.5332 35.6349 44.5265 36.1641 44.5605 36.7645C44.5821 37.1452 44.626 37.532 44.6923 37.9249C44.699 38.042 44.7171 38.2319 44.7467 38.4947C44.79 38.742 44.8175 38.9681 44.8292 39.1731C44.8789 40.0517 44.5963 40.5084 43.9813 40.5433C43.1759 40.5889 42.7272 40.1883 42.6352 39.3415C42.6012 38.7411 42.5902 38.4185 42.6024 38.3738L42.5489 37.4293C42.519 36.9021 42.468 36.3909 42.3959 35.8955C42.3238 35.4001 42.2513 35.0296 42.1787 34.784C42.0195 34.3082 41.8226 33.9448 41.5881 33.6937C41.3681 33.4417 41.0312 33.3286 40.5772 33.3543C39.9329 33.3908 39.4289 33.6985 39.065 34.2773C38.8117 34.7323 38.6589 35.2772 38.6067 35.9118C38.5645 36.7222 38.5347 37.3629 38.5173 37.834C38.5137 38.2896 38.529 38.8175 38.563 39.4179C38.587 39.8426 38.5333 40.1908 38.4018 40.4627C38.285 40.7337 38.0362 40.8801 37.6554 40.9016C37.3772 40.9174 37.0802 40.8608 36.7644 40.7317C36.4624 40.5873 36.304 40.3832 36.289 40.1197C36.2733 39.8414 36.2868 39.5616 36.3296 39.28C36.4141 38.4379 36.3954 36.9406 36.2734 34.788C36.2535 34.4366 36.1466 34.1047 35.9526 33.7926C35.7725 33.4649 35.5653 33.3077 35.331 33.321C35.2724 33.3243 35.1642 33.3598 35.0065 33.4275C34.8634 33.4944 34.7552 33.5299 34.682 33.534C34.4916 33.5448 34.3109 33.4669 34.1399 33.3003C33.9835 33.1329 33.902 32.9906 33.8953 32.8734C33.8746 32.5074 34.0329 32.1899 34.3702 31.9211C34.7214 31.6367 35.0946 31.4834 35.49 31.461C36.0318 31.4303 36.5026 31.5726 36.9024 31.8878C37.3022 32.203 37.6216 32.655 37.8606 33.2438C38.1643 32.639 38.5916 32.1447 39.1428 31.7609C39.6932 31.3624 40.3198 31.1433 41.0227 31.1035C41.4619 31.0786 41.8167 31.1173 42.0869 31.2195C42.3709 31.3062 42.6066 31.4471 42.794 31.6422C42.9805 31.8226 43.224 32.1026 43.5246 32.4822C43.8642 31.9929 44.312 31.6002 44.8682 31.3043C45.439 31.0075 46.0319 30.8417 46.6469 30.8069C47.379 30.7654 48.055 31.0283 48.6747 31.5955C49.2936 32.148 49.7276 32.8065 49.9765 33.571C50.1014 33.9606 50.1958 34.7191 50.2597 35.8466L50.4197 37.1156C50.5361 37.8729 50.8112 38.3201 51.2449 38.4571C51.7511 38.5753 52.0087 38.715 52.0179 38.876C52.0378 39.2275 51.9644 39.4887 51.7978 39.6597C51.671 39.7551 51.4934 39.8606 51.2649 39.9764C51.0364 40.0922 50.8563 40.1538 50.7245 40.1613C49.9338 40.206 49.3538 39.9524 48.9847 39.4004ZM57.9045 32.1523C57.7464 31.9556 57.6339 31.7857 57.5671 31.6426C57.5002 31.4995 57.4606 31.3181 57.4481 31.0985C57.4348 30.8642 57.5188 30.6611 57.7001 30.4892C57.8959 30.3165 58.1476 30.2215 58.4551 30.2041C58.7626 30.1866 59.0768 30.2864 59.3976 30.5032C59.7175 30.7055 59.9826 30.9769 60.1929 31.3176C60.4755 30.8608 60.875 30.5224 61.3914 30.3022C61.9078 30.0819 62.4734 29.9544 63.0885 29.9196C63.7621 29.8814 64.396 30.0511 64.9903 30.4288C65.5993 30.8056 66.0904 31.3067 66.4637 31.9319C66.837 32.5571 67.0419 33.1919 67.0784 33.8362C67.114 34.4658 67.0801 35.0333 66.9765 35.5386C66.8721 36.0293 66.6656 36.5332 66.357 37.0501C66.0061 37.5988 65.5181 38.0598 64.8929 38.4331C64.2823 38.8056 63.5377 39.0167 62.6591 39.0665C62.4248 39.0798 62.136 39.0374 61.7925 38.9393C61.4483 38.8266 61.1622 38.7032 60.9342 38.5692C60.8881 39.5708 60.8858 40.4376 60.9273 41.1698C60.9522 41.6091 60.9978 42.0252 61.0641 42.4181C61.12 42.885 61.1537 43.2209 61.1653 43.4259C61.1836 43.7481 61.087 43.9886 60.8757 44.1475C60.6651 44.321 60.4281 44.4152 60.1645 44.4302C59.6373 44.46 59.2776 44.3335 59.0853 44.0506C58.9085 43.7815 58.8051 43.3834 58.7753 42.8562C58.7625 41.5936 58.7698 40.4253 58.7971 39.3514C58.8125 37.808 58.7567 35.9162 58.6298 33.6758C58.6198 33.5 58.5321 33.2479 58.3666 32.9194C58.2157 32.5901 58.0617 32.3344 57.9045 32.1523ZM60.8989 36.3898C60.9879 36.6638 61.2062 36.8865 61.5537 37.0578C61.9151 37.2136 62.2349 37.2836 62.5132 37.2679C63.3478 37.2206 63.9573 36.9583 64.3416 36.4812C64.6309 36.1416 64.8107 35.8156 64.8811 35.5031C64.9662 35.1898 64.9897 34.6963 64.9515 34.0227C64.9217 33.4956 64.7943 33.0621 64.5694 32.7223C64.3436 32.3678 64.0797 32.1183 63.7778 31.9739C63.4749 31.8147 63.1917 31.7426 62.9282 31.7576C62.3278 31.7916 61.8476 32.0024 61.4876 32.3901C61.1415 32.7622 60.9345 33.2587 60.8669 33.8795C60.821 34.3669 60.8317 35.2037 60.8989 36.3898ZM72.4059 37.9634C72.3908 38.214 72.3007 38.4395 72.1358 38.6398C71.9708 38.8401 71.7493 38.9482 71.471 38.9639C71.0317 38.9888 70.705 38.9265 70.4909 38.7771C70.2759 38.6129 70.1556 38.3039 70.1299 37.85C70.095 37.235 70.0935 36.5593 70.1252 35.823C70.1357 34.9704 70.1281 34.3171 70.1024 33.8632C70.0891 33.6289 70.0578 33.3368 70.0086 32.9871C69.9611 32.6666 69.9328 32.4258 69.9237 32.2647C69.8656 32.0183 69.7519 31.8264 69.5826 31.6891C69.4278 31.5509 69.1865 31.4398 68.8585 31.3555C68.7234 31.3044 68.6082 31.2154 68.5129 31.0886C68.4167 30.9472 68.3653 30.8179 68.3587 30.7007C68.3396 30.3639 68.4569 30.1002 68.7105 29.9096C68.9641 29.7189 69.2813 29.6128 69.662 29.5912C70.0867 29.5672 70.4611 29.6929 70.7852 29.9683C71.1092 30.2438 71.3643 30.5966 71.5502 31.0267C71.8597 30.5244 72.2477 30.1132 72.7143 29.7929C73.1956 29.4718 73.6705 29.298 74.1391 29.2715C74.7395 29.2375 75.2505 29.3114 75.6721 29.4931C76.1075 29.6594 76.3389 29.9842 76.3663 30.4674C76.3821 30.7457 76.2742 31.0456 76.0427 31.3672C75.825 31.6733 75.5917 31.8334 75.3427 31.8475C75.1524 31.8583 74.9204 31.7833 74.6469 31.6225C74.5402 31.5551 74.4198 31.5032 74.2855 31.4667C74.165 31.4148 74.0389 31.3926 73.9071 31.4C73.6728 31.4133 73.4553 31.4623 73.2544 31.5472C73.0535 31.632 72.9194 31.7277 72.852 31.8344C72.6385 32.2137 72.4814 32.5532 72.3808 32.8527C72.2949 33.1513 72.2615 33.4691 72.2806 33.8059C72.2947 34.0548 72.2986 34.2529 72.2922 34.4002L72.3412 35.6534L72.4104 36.4868C72.4453 37.1018 72.4438 37.594 72.4059 37.9634ZM78.4541 24.3556C78.9691 24.3705 79.4236 24.4843 79.8176 24.697C80.2108 24.8951 80.4202 25.2211 80.4459 25.675C80.465 26.0118 80.3193 26.2918 80.0087 26.5151C79.712 26.7229 79.344 26.8392 78.9047 26.8641C78.4801 26.8882 78.181 26.7949 78.0075 26.5844C77.8339 26.3739 77.7405 26.1515 77.7273 25.9172C77.7024 25.4779 77.7256 25.1093 77.7968 24.8115C77.8828 24.5128 78.1018 24.3608 78.4541 24.3556ZM80.7625 33.9864L80.7986 34.6234C80.831 35.1945 80.8763 35.7355 80.9346 36.2463C81.0068 36.7417 81.0866 37.244 81.1742 37.7532C81.1842 37.9289 81.0908 38.0958 80.8941 38.2538C80.6966 38.3972 80.5099 38.4739 80.3342 38.4838C80.056 38.4996 79.7675 38.4645 79.4689 38.3786C79.184 38.2772 79.0077 38.1477 78.94 37.9899C78.8256 37.5263 78.7581 37.1115 78.7373 36.7454C78.6693 35.5446 78.5564 34.1995 78.3986 32.7101C78.2653 31.3955 78.1838 30.4747 78.1539 29.9475C78.139 29.6839 78.2579 29.4495 78.5107 29.2442C78.7635 29.0389 79.0363 28.928 79.3292 28.9114C79.7538 28.8873 80.0521 28.9659 80.224 29.1471C80.4105 29.3275 80.5153 29.6228 80.5386 30.0328L80.7625 33.9864ZM93.6728 35.9434C93.7477 35.9685 93.8669 35.9985 94.0304 36.0333C94.194 36.0681 94.3136 36.1054 94.3893 36.1451C94.465 36.1849 94.5054 36.2487 94.5104 36.3366C94.5449 36.6872 94.4297 36.9875 94.1648 37.2376C93.9136 37.4722 93.605 37.5998 93.239 37.6206C92.6679 37.6529 92.2125 37.5245 91.873 37.2352C91.5334 36.946 91.2726 36.4907 91.0905 35.8693C91.0178 35.6237 90.969 35.2812 90.9441 34.8419C90.93 34.593 90.9218 34.1895 90.9196 33.6314C90.9157 33.044 90.9038 32.5746 90.8839 32.2231C90.8549 31.7106 90.6831 31.2723 90.3687 30.9082C90.0681 30.5286 89.6615 30.3533 89.149 30.3823C88.8415 30.3997 88.5247 30.5132 88.1987 30.7226C87.8719 30.9174 87.65 31.1503 87.5332 31.4214C87.3376 31.8585 87.21 32.3284 87.1503 32.8313C87.039 33.719 87.0103 34.6388 87.0643 35.5906C87.09 36.0445 87.1172 36.3955 87.1459 36.6436C87.1493 36.7022 87.1559 36.8193 87.1659 36.9951C87.1896 37.1553 87.1837 37.3099 87.1481 37.4588C87.1262 37.5923 87.0747 37.72 86.9935 37.8422C86.9244 37.9195 86.8106 37.9847 86.652 38.0378C86.5089 38.1047 86.3714 38.1418 86.2397 38.1493C86.0346 38.1609 85.7734 38.0876 85.456 37.9293C85.1385 37.771 84.9516 37.5832 84.8952 37.3661L84.8521 36.9939C84.8446 36.8621 84.8506 36.7076 84.8699 36.5302C84.9875 35.4952 85.0248 34.597 84.9817 33.8355C84.9626 33.4988 84.9403 33.2356 84.9149 33.0461L84.8344 32.015C84.8145 31.6635 84.7076 31.3317 84.5136 31.0195C84.3188 30.6927 84.1043 30.5359 83.87 30.5492C83.7968 30.5533 83.6959 30.5884 83.5675 30.6544C83.4382 30.7058 83.3296 30.734 83.2417 30.739C83.0953 30.7473 82.9301 30.6832 82.7461 30.5467C82.5767 30.4094 82.4874 30.2602 82.4783 30.0992C82.4609 29.7916 82.5493 29.5369 82.7435 29.3349C82.9532 29.1468 83.1577 28.9956 83.3569 28.8815C83.5707 28.7666 83.8167 28.7012 84.0949 28.6855C84.3292 28.6722 84.5208 28.6834 84.6698 28.719C84.8187 28.7546 85.0218 28.8386 85.279 28.9709C85.4149 29.0367 85.5778 29.1891 85.7676 29.428C85.9574 29.667 86.1238 30.0102 86.2666 30.4575C86.6076 29.733 87.0483 29.2159 87.589 28.9062C88.1435 28.581 88.8601 28.3935 89.7387 28.3437C90.0754 28.3246 90.4404 28.4141 90.8336 28.6122C91.2414 28.8095 91.5927 29.0466 91.8875 29.3237C92.1693 29.6309 92.4118 30.0212 92.6149 30.4945C92.8172 30.9531 92.9291 31.3728 92.9506 31.7535C92.9631 31.9731 92.9688 32.3327 92.9677 32.8323C92.9462 33.2301 92.9478 33.6487 92.9727 34.088C93.0308 35.113 93.2641 35.7315 93.6728 35.9434ZM95.7392 29.8547C95.5325 29.8371 95.3595 29.7661 95.2203 29.6417C95.0949 29.5019 95.0263 29.3295 95.0147 29.1245C94.9998 28.861 95.0898 28.6355 95.2849 28.4482C95.3263 28.4018 95.3975 28.361 95.4983 28.3259C95.5983 28.2762 95.6768 28.235 95.7337 28.2024C96.0501 28.0816 96.2505 27.9895 96.335 27.9259C96.6602 27.7019 96.8681 27.3522 96.9587 26.877C97.0443 26.3139 97.096 25.929 97.1136 25.7224C97.1247 25.3986 97.2135 25.1511 97.3801 24.9801C97.5605 24.7936 97.7898 24.6925 98.068 24.6767C98.4341 24.656 98.6958 24.7366 98.853 24.9187C99.0102 25.1008 99.1033 25.4481 99.1324 25.9606C99.1705 26.6342 99.0455 27.2803 98.7574 27.8989C98.9624 27.8873 99.2984 27.8536 99.7653 27.7977C100.466 27.7286 100.956 27.6862 101.234 27.6704C101.483 27.6563 101.699 27.7102 101.883 27.832C102.08 27.9384 102.185 28.1087 102.198 28.343C102.23 28.8994 101.992 29.2434 101.485 29.375C101.024 29.5333 100.179 29.662 98.951 29.7609C98.9298 31.2018 98.9428 32.3395 98.9901 33.1742C99.0192 33.6867 99.0619 34.0515 99.1182 34.2687C99.2318 34.7176 99.3973 35.0461 99.6148 35.2542C99.846 35.4467 100.174 35.531 100.599 35.5069C100.804 35.4953 101.108 35.4266 101.512 35.3009C101.757 35.2136 101.953 35.1658 102.099 35.1575C102.29 35.1467 102.44 35.2043 102.55 35.3303C102.66 35.4563 102.721 35.6291 102.733 35.8487C102.756 36.2441 102.518 36.5881 102.021 36.8807C101.522 37.1587 100.922 37.3176 100.219 37.3574C99.7794 37.3823 99.3416 37.3042 98.9053 37.1233C98.4683 36.9277 98.0946 36.6844 97.7843 36.3935C97.724 36.3676 97.6271 36.2115 97.4933 35.9252C97.3742 35.6382 97.2535 35.3218 97.1311 34.9762C97.0772 34.803 97.0312 34.3796 96.993 33.706C96.9565 33.0617 96.9374 31.9463 96.9357 30.3599L96.9302 29.8754C96.8277 29.8812 96.637 29.8847 96.3579 29.8858C96.078 29.8723 95.8718 29.8619 95.7392 29.8547ZM104.665 22.8707C105.18 22.8856 105.627 22.9998 106.006 23.2134C106.4 23.4115 106.609 23.7375 106.635 24.1914C106.654 24.5282 106.515 24.8078 106.22 25.0302C105.923 25.238 105.548 25.3548 105.094 25.3805C104.669 25.4045 104.37 25.3113 104.196 25.1008C104.023 24.8903 103.929 24.6679 103.916 24.4336C103.892 24.0089 103.923 23.6472 104.009 23.3486C104.094 23.0353 104.313 22.876 104.665 22.8707ZM104.74 31.9671L104.703 31.3301C104.662 30.5979 104.588 29.9337 104.48 29.3375C104.387 28.7258 104.329 28.3472 104.306 28.2016C104.311 28.0396 104.413 27.8797 104.609 27.7216C104.806 27.5636 104.985 27.48 105.146 27.4709C105.424 27.4551 105.706 27.4979 105.991 27.5993C106.289 27.6852 106.48 27.8066 106.562 27.9636C106.666 28.5012 106.726 28.9165 106.743 29.2093C106.779 29.8536 106.868 30.9063 107.01 32.3673L107.08 33.2227L107.172 34.0548C107.199 34.2883 107.23 34.5657 107.263 34.887C107.296 35.2083 107.324 35.574 107.347 35.984C107.363 36.2622 107.237 36.5044 106.969 36.7105C106.717 36.9158 106.444 37.0268 106.151 37.0434C105.726 37.0674 105.421 36.9892 105.234 36.8088C105.062 36.6276 104.965 36.332 104.942 35.922L104.74 31.9671ZM119.885 34.4584C119.96 34.4836 120.079 34.5135 120.242 34.5483C120.406 34.5832 120.526 34.6204 120.601 34.6602C120.677 34.7 120.717 34.7638 120.722 34.8517C120.757 35.2023 120.642 35.5026 120.377 35.7527C120.126 35.9873 119.817 36.1149 119.451 36.1357C118.88 36.168 118.424 36.0396 118.085 35.7503C117.745 35.461 117.484 35.0057 117.302 34.3844C117.23 34.1388 117.181 33.7963 117.156 33.357C117.142 33.1081 117.134 32.7046 117.131 32.1465C117.128 31.5591 117.116 31.0897 117.096 30.7382C117.06 30.1086 116.967 29.6364 116.817 29.3217C116.666 28.9924 116.342 28.8418 115.844 28.87C115.332 28.8991 114.882 29.1302 114.495 29.5634C114.123 29.9958 113.821 30.6299 113.589 31.4657C113.273 32.6294 113.147 34.157 113.21 36.0485C113.216 36.151 113.113 36.2817 112.902 36.4406C112.704 36.584 112.459 36.664 112.166 36.6806C111.624 36.7113 111.271 36.4448 111.107 35.8812L111.064 35.509C111.056 35.3772 111.062 35.2226 111.082 35.0453C111.199 34.0103 111.237 33.1121 111.194 32.3506C111.174 32.0138 111.152 31.7507 111.127 31.5611L111.046 30.53C111.026 30.1786 110.919 29.8468 110.726 29.5346C110.531 29.2078 110.316 29.051 110.082 29.0642C110.009 29.0684 109.908 29.1035 109.779 29.1695C109.65 29.2209 109.541 29.2491 109.454 29.2541C109.307 29.2624 109.142 29.1983 108.958 29.0618C108.789 28.9245 108.699 28.7753 108.69 28.6142C108.673 28.3067 108.761 28.052 108.955 27.85C109.165 27.6619 109.37 27.5107 109.569 27.3966C109.783 27.2817 110.029 27.2163 110.307 27.2005C110.541 27.1873 110.733 27.1984 110.882 27.2341C111.031 27.2697 111.234 27.3537 111.491 27.486C111.641 27.5509 111.821 27.7464 112.031 28.0724C112.24 28.3984 112.414 28.866 112.551 29.4752C112.813 28.9169 113.271 28.318 113.926 27.6786C114.412 27.181 115.138 26.9048 116.104 26.8501C116.983 26.8003 117.697 27.083 118.246 27.6983C118.794 28.2989 119.099 29.1557 119.163 30.2686C119.175 30.4882 119.181 30.8478 119.18 31.3473C119.158 31.7452 119.16 32.1638 119.185 32.6031C119.243 33.6281 119.476 34.2465 119.885 34.4584ZM130.354 35.518C130.765 35.7738 131.046 36.0664 131.197 36.3957C131.362 36.7242 131.462 37.1887 131.496 37.789C131.513 38.0819 131.441 38.3797 131.282 38.6826C131.138 38.9845 130.981 39.2064 130.813 39.3481C129.465 40.1884 128.096 40.6479 126.705 40.7267C126.016 40.7657 125.418 40.7115 124.91 40.564C124.403 40.4164 123.921 40.2087 123.465 39.9407C123.16 39.7377 122.901 39.4438 122.688 39.0593C122.491 38.6885 122.381 38.3127 122.36 37.932C122.33 37.4049 122.465 36.9345 122.764 36.5209C123.079 36.1064 123.509 35.7956 124.056 35.5883C123.941 35.3745 123.875 35.1211 123.858 34.8283C123.843 34.5501 124.024 34.1211 124.402 33.5414C123.686 33.347 123.106 32.9612 122.662 32.384C122.233 31.806 121.995 31.1144 121.95 30.309C121.921 29.8111 122.014 29.3652 122.226 28.9712C122.438 28.5626 122.764 28.0887 123.204 27.5497C123.506 27.18 123.901 26.9005 124.39 26.7112C124.879 26.5219 125.497 26.4061 126.243 26.3638C126.771 26.334 127.429 26.4142 128.218 26.6045C129.104 25.908 129.899 25.5398 130.602 25.4999C130.777 25.49 130.977 25.5227 131.202 25.5981C131.441 25.6727 131.622 25.7506 131.744 25.8319C131.841 25.988 131.9 26.2564 131.922 26.6371C131.93 26.7835 131.873 26.9337 131.749 27.0876C131.64 27.226 131.489 27.3006 131.299 27.3114L130.771 27.3193C130.505 27.3049 130.3 27.3019 130.153 27.3102C129.992 27.3193 129.751 27.3477 129.431 27.3952C129.759 27.7439 130.015 28.1186 130.2 28.5195C130.399 28.9196 130.517 29.4491 130.554 30.108C130.582 30.6059 130.429 31.1361 130.093 31.6986C129.758 32.2612 129.35 32.7103 128.87 33.046C128.131 33.4991 127.257 33.7616 126.248 33.8335C126.137 33.9573 126.041 34.0729 125.959 34.1804C125.891 34.2724 125.858 34.3477 125.862 34.4063C125.871 34.5674 126.017 34.684 126.3 34.7561C126.583 34.8281 127.012 34.87 127.585 34.8816C128.026 34.886 128.515 34.9538 129.051 35.085C129.601 35.2007 130.035 35.3451 130.354 35.518ZM126.278 32.025C126.951 31.9868 127.483 31.7731 127.872 31.3838C128.261 30.9944 128.437 30.463 128.399 29.7894C128.37 29.2769 128.163 28.8699 127.779 28.5685C127.394 28.2671 126.917 28.1326 126.345 28.1649C125.979 28.1857 125.588 28.274 125.171 28.4298C124.767 28.5702 124.485 28.7771 124.324 29.0507C124.243 29.1728 124.168 29.4047 124.099 29.7465C124.03 30.0736 124 30.3251 124.01 30.5008C124.024 30.7497 124.141 31.0002 124.361 31.2521C124.595 31.4886 124.885 31.6852 125.232 31.8418C125.592 31.983 125.941 32.044 126.278 32.025ZM127.931 36.7129C127.122 36.6853 126.547 36.6445 126.206 36.5903C125.88 36.55 125.613 36.4917 125.403 36.4155C124.678 36.8531 124.329 37.3063 124.356 37.7749C124.381 38.2142 124.626 38.5308 125.093 38.7247C125.56 38.9333 126.086 39.021 126.672 38.9878C126.936 38.9729 127.293 38.9232 127.743 38.839C128.194 38.7547 128.569 38.6306 128.868 38.4667C129.067 38.3526 129.215 38.2414 129.312 38.1331C129.41 38.0394 129.451 37.8681 129.437 37.6192C129.42 37.3117 129.245 37.0865 128.914 36.9437C128.583 36.8009 128.255 36.724 127.931 36.7129ZM138.172 27.539C137.788 27.2523 137.585 26.9039 137.562 26.4939C137.55 26.2889 137.642 26.1 137.838 25.9273C138.033 25.74 138.277 25.638 138.57 25.6215C139.097 25.5916 139.537 25.7062 139.889 25.9654C140.242 26.2245 140.558 26.6106 140.836 27.1237C141.112 26.5352 141.476 26.0958 141.93 25.8057C142.397 25.5001 142.997 25.3266 143.729 25.2851C144.168 25.2602 144.523 25.2989 144.793 25.4011C145.077 25.4878 145.313 25.6287 145.5 25.8238C145.687 26.0042 145.923 26.2846 146.209 26.6651C146.563 26.1749 147.018 25.7819 147.575 25.4859C148.145 25.1892 148.738 25.0234 149.353 24.9885C150.071 24.9479 150.739 25.2112 151.359 25.7783C151.994 26.3447 152.435 27.0028 152.683 27.7526C152.774 28.0706 152.869 28.8292 152.966 30.0283L153.126 31.2972C153.243 32.0692 153.518 32.5163 153.951 32.6387C154.16 32.6857 154.332 32.7493 154.469 32.8297C154.62 32.8947 154.697 32.9711 154.702 33.0589C154.752 33.4087 154.686 33.6695 154.504 33.8414C154.377 33.9367 154.2 34.0422 153.971 34.158C153.743 34.2738 153.563 34.3354 153.431 34.3429C152.64 34.3877 152.06 34.1341 151.691 33.5821C151.45 33.2138 151.286 32.7897 151.2 32.3098C151.114 31.8152 151.046 31.1433 150.998 30.294C150.947 29.3861 150.793 28.6163 150.537 27.9844C150.28 27.3379 149.763 27.0366 148.987 27.0806C148.709 27.0964 148.436 27.2 148.167 27.3915C147.913 27.5675 147.734 27.7833 147.631 28.0388C147.449 28.4458 147.334 28.8857 147.287 29.3584C147.24 29.8165 147.233 30.3457 147.267 30.9461C147.289 31.3268 147.332 31.7136 147.399 32.1065C147.405 32.2236 147.424 32.4136 147.453 32.6763C147.497 32.9236 147.524 33.1497 147.536 33.3547C147.556 33.7208 147.501 34.0398 147.369 34.3117C147.252 34.5681 147.025 34.7058 146.688 34.7249C145.882 34.7705 145.434 34.3699 145.342 33.5231C145.308 32.9227 145.297 32.6002 145.309 32.5554L145.255 31.6109C145.225 31.0838 145.174 30.5725 145.102 30.0771C145.03 29.5817 144.958 29.2112 144.885 28.9656C144.726 28.4899 144.529 28.1264 144.295 27.8753C144.06 27.6241 143.716 27.5114 143.262 27.5372C142.954 27.5546 142.673 27.644 142.418 27.8053C142.162 27.9667 141.947 28.1846 141.771 28.4589C141.518 28.914 141.365 29.4588 141.313 30.0935C141.271 30.9038 141.241 31.5445 141.224 32.0156C141.22 32.4712 141.235 32.9992 141.269 33.5995C141.293 34.0242 141.24 34.3725 141.108 34.6443C140.991 34.9154 140.743 35.0617 140.362 35.0832C140.084 35.099 139.787 35.0424 139.471 34.9134C139.169 34.7689 139.01 34.5649 138.995 34.3013C138.98 34.0231 138.993 33.7432 139.036 33.4616C139.121 32.6195 139.106 31.1954 138.992 29.1893C138.974 28.8671 138.883 28.5564 138.719 28.2572C138.569 27.9425 138.387 27.7032 138.172 27.539ZM166.231 32.4719C166.249 32.7941 166.089 33.0749 165.75 33.3145C165.425 33.5532 165.117 33.6809 164.824 33.6975C164.267 33.729 163.817 33.6884 163.473 33.5757C163.142 33.4475 162.827 33.2009 162.527 32.836C162.166 33.1943 161.66 33.48 161.011 33.6931C160.362 33.8915 159.759 34.0065 159.202 34.038C158.294 34.0894 157.534 33.8901 156.921 33.4401C156.307 32.9754 155.973 32.2671 155.919 31.3153C155.896 30.9053 155.984 30.5257 156.185 30.1764C156.385 29.8126 156.667 29.4881 157.033 29.2029C157.442 28.9006 157.913 28.6609 158.447 28.4838C158.979 28.292 159.539 28.1796 160.124 28.1464C160.432 28.129 160.801 28.1668 161.233 28.2599C161.664 28.353 162 28.4588 162.242 28.5773L162.222 28.2259C162.177 27.4351 161.956 26.9041 161.559 26.6328C161.161 26.3469 160.537 26.228 159.688 26.2761C159.439 26.2902 159.193 26.3555 158.95 26.4721C158.721 26.5879 158.458 26.7424 158.161 26.9355C157.763 27.1784 157.381 27.3102 157.015 27.3309C156.883 27.3384 156.754 27.2576 156.627 27.0885C156.499 26.9048 156.431 26.7397 156.423 26.5933C156.398 26.1686 156.575 25.7913 156.953 25.4614C157.346 25.1307 157.816 24.8764 158.364 24.6984C158.912 24.5058 159.405 24.3971 159.844 24.3722C160.284 24.3473 160.794 24.4065 161.375 24.5499C161.955 24.6786 162.437 24.879 162.819 25.1512C163.28 25.507 163.642 25.9345 163.906 26.4338C164.183 26.9175 164.338 27.4596 164.372 28.06C164.383 28.2503 164.385 28.5367 164.377 28.9191C164.371 29.3308 164.376 29.683 164.393 29.9759C164.4 30.1077 164.397 30.3062 164.382 30.5714C164.371 30.8952 164.371 31.1523 164.382 31.3427C164.392 31.5184 164.466 31.6684 164.606 31.7928C164.744 31.9024 164.901 31.9523 165.077 31.9423L165.691 31.8855C165.852 31.8764 165.98 31.9279 166.074 32.0401C166.169 32.1523 166.221 32.2962 166.231 32.4719ZM159.126 32.3015C159.755 32.2658 160.279 32.1701 160.696 32.0142C161.113 31.8584 161.612 31.5877 162.192 31.2023C162.237 30.95 162.255 30.6185 162.246 30.2077C161.419 29.8726 160.742 29.7199 160.215 29.7498C159.615 29.7838 159.087 29.9239 158.63 30.1701C158.174 30.4163 157.962 30.8176 157.993 31.3741C158.009 31.6523 158.14 31.8799 158.385 32.057C158.63 32.2341 158.877 32.3156 159.126 32.3015ZM175.221 25.6606C175.238 25.9681 175.185 26.2061 175.063 26.3746C174.955 26.5423 174.762 26.6341 174.483 26.6498C174.278 26.6615 174.1 26.6202 173.947 26.526C173.81 26.4309 173.624 26.2652 173.39 26.0287C173.204 25.8483 172.99 25.7061 172.749 25.6022C172.523 25.4975 172.322 25.4502 172.146 25.4601C171.253 25.5107 170.62 25.7376 170.246 26.1407C170.012 26.4184 169.827 26.7814 169.69 27.2299C169.553 27.6636 169.498 28.1075 169.523 28.5614C169.561 29.2204 169.686 29.7421 169.899 30.1267C170.111 30.5113 170.467 30.829 170.966 31.0799C171.148 31.1724 171.402 31.2462 171.728 31.3011C172.053 31.3415 172.319 31.3558 172.524 31.3442C172.802 31.3284 173.091 31.2386 173.39 31.0748C173.688 30.8963 173.94 30.6763 174.146 30.415C174.406 30.0771 174.733 29.8969 175.129 29.8745C175.29 29.8654 175.477 29.9355 175.692 30.085C175.92 30.2336 176.041 30.4178 176.053 30.6374C176.078 31.0767 175.889 31.4988 175.486 31.9035C175.097 32.2928 174.608 32.6143 174.02 32.868C173.432 33.107 172.881 33.241 172.368 33.2701C171.504 33.319 170.688 33.1669 169.919 32.8139C169.164 32.46 168.548 31.9514 168.069 31.288C167.59 30.6101 167.326 29.8318 167.276 28.9532C167.233 28.1917 167.33 27.4444 167.568 26.7111C167.82 25.977 168.175 25.3693 168.632 24.888C169.007 24.4995 169.482 24.2008 170.058 23.9919C170.634 23.783 171.244 23.6603 171.888 23.6238C172.342 23.5981 172.816 23.6594 173.309 23.8077C173.802 23.9561 174.203 24.1684 174.513 24.4447C174.961 24.8452 175.197 25.2506 175.221 25.6606ZM179.916 18.784C179.937 19.1647 179.955 19.6118 179.97 20.1251C179.983 20.6238 179.99 21.0053 179.99 21.2698C179.989 22.019 180.009 22.7671 180.051 23.5139C180.083 24.0703 180.138 24.6475 180.216 25.2454C180.632 24.5607 181.095 24.0497 181.605 23.7123C182.115 23.375 182.743 23.1851 183.49 23.1428C184.032 23.1121 184.551 23.3251 185.047 23.7818C185.542 24.2385 185.875 24.7852 186.043 25.4221C186.119 25.9907 186.181 26.685 186.227 27.505C186.257 28.0321 186.325 28.7187 186.432 29.5647C186.479 29.8852 186.577 30.1808 186.724 30.4516C186.887 30.7215 187.1 30.849 187.363 30.8341C187.495 30.8266 187.597 30.8135 187.669 30.7947C187.756 30.7751 187.837 30.7632 187.91 30.759C188.115 30.7474 188.257 30.7908 188.336 30.8891C188.429 30.9867 188.482 31.1306 188.492 31.321C188.512 31.6724 188.352 31.9459 188.01 32.1416C187.669 32.3372 187.351 32.4433 187.059 32.4599C186.004 32.5196 185.255 32.1214 184.809 31.2652C184.562 30.7798 184.386 30.1433 184.283 29.3559C184.178 28.5539 184.096 27.6184 184.035 26.5494C183.976 25.4951 183.587 24.9883 182.87 25.0289C182.474 25.0513 182.084 25.2865 181.698 25.7343C181.325 26.1667 181.027 26.7345 180.802 27.4377C180.577 28.1262 180.485 28.8365 180.527 29.5687L180.678 31.8518C180.696 32.174 180.585 32.4226 180.346 32.5978C180.105 32.7583 179.875 32.8448 179.655 32.8573C179.333 32.8755 179.035 32.7969 178.76 32.6215C178.485 32.4314 178.341 32.2119 178.326 31.963C178.367 30.8589 178.314 29.0183 178.168 26.4411C178.141 25.9725 178.006 24.2394 177.763 21.2417L177.583 19.2246C177.565 18.9025 177.695 18.616 177.975 18.3651C178.254 18.0996 178.576 17.9564 178.942 17.9357C179.264 17.9175 179.503 17.9774 179.657 18.1155C179.812 18.2537 179.898 18.4765 179.916 18.784ZM190.187 18.0258C190.702 18.0407 191.157 18.1545 191.551 18.3673C191.944 18.5653 192.153 18.8914 192.179 19.3453C192.198 19.6821 192.052 19.9621 191.742 20.1854C191.445 20.3931 191.077 20.5095 190.638 20.5344C190.213 20.5584 189.914 20.4652 189.74 20.2547C189.567 20.0441 189.474 19.8217 189.46 19.5874C189.435 19.1481 189.459 18.7796 189.53 18.4817C189.616 18.1831 189.835 18.0311 190.187 18.0258ZM192.495 27.6567L192.532 28.2937C192.564 28.8648 192.609 29.4057 192.668 29.9166C192.74 30.412 192.82 30.9142 192.907 31.4234C192.917 31.5992 192.824 31.766 192.627 31.9241C192.43 32.0675 192.243 32.1442 192.067 32.1541C191.789 32.1699 191.501 32.1348 191.202 32.0489C190.917 31.9475 190.741 31.8179 190.673 31.6602C190.559 31.1966 190.491 30.7817 190.47 30.4156C190.402 29.2149 190.289 27.8698 190.132 26.3804C189.998 25.0658 189.917 24.1449 189.887 23.6178C189.872 23.3542 189.991 23.1198 190.244 22.9145C190.496 22.7092 190.769 22.5982 191.062 22.5816C191.487 22.5576 191.785 22.6362 191.957 22.8174C192.143 22.9978 192.248 23.293 192.272 23.703L192.495 27.6567ZM194.872 24.1507C194.75 24.0694 194.65 23.987 194.571 23.9033C194.492 23.8049 194.446 23.6313 194.432 23.3823C194.416 23.1041 194.499 22.8864 194.681 22.7292C194.877 22.5565 195.107 22.4627 195.37 22.4477C195.883 22.4187 196.33 22.5256 196.711 22.7685C197.106 23.0105 197.405 23.3608 197.608 23.8194C197.896 23.2008 198.282 22.7676 198.768 22.5197C199.252 22.2572 199.934 22.1011 200.813 22.0513C201.164 22.0314 201.529 22.1209 201.908 22.3198C202.3 22.5032 202.659 22.74 202.984 23.0301C203.251 23.3381 203.486 23.7288 203.689 24.2021C203.891 24.6607 204.003 25.0804 204.025 25.4611C204.037 25.6807 204.043 26.0403 204.042 26.5398C204.042 27.0687 204.051 27.4868 204.069 27.7943C204.127 28.8194 204.36 29.4378 204.769 29.6497C204.829 29.6757 204.941 29.7061 205.104 29.7409C205.268 29.7757 205.388 29.813 205.463 29.8527C205.554 29.8917 205.601 29.9551 205.606 30.043C205.641 30.3936 205.526 30.6939 205.261 30.9439C205.01 31.1785 204.694 31.3066 204.313 31.3282C203.742 31.3605 203.287 31.2321 202.947 30.9428C202.607 30.6536 202.354 30.1978 202.186 29.5756C202.1 29.3455 202.044 29.0035 202.018 28.5495C202.004 28.3006 201.996 27.8971 201.994 27.339C202.013 26.8972 202.008 26.4274 201.98 25.9295C201.951 25.417 201.779 24.9787 201.465 24.6145C201.149 24.2357 200.736 24.0609 200.223 24.0899C199.916 24.1073 199.599 24.2208 199.273 24.4302C198.946 24.625 198.724 24.8579 198.607 25.129C198.413 25.5953 198.293 26.0649 198.246 26.5376C198.122 27.4555 198.084 28.3317 198.131 29.1664C198.142 29.3714 198.179 29.7659 198.242 30.35C198.244 30.3939 198.251 30.5037 198.261 30.6795C198.27 30.8405 198.256 30.9955 198.221 31.1444C198.2 31.2925 198.149 31.4276 198.068 31.5498C198.012 31.6117 197.906 31.6765 197.748 31.7442C197.59 31.8118 197.453 31.849 197.336 31.8557C197.131 31.8673 196.869 31.7939 196.552 31.6356C196.234 31.4773 196.04 31.29 195.969 31.0737L195.93 30.7674C195.923 30.6503 195.928 30.4737 195.944 30.2378C196.062 29.2028 196.099 28.3046 196.056 27.5431C196.037 27.2063 196.015 26.9505 195.99 26.7756L195.911 25.7665C195.894 25.459 195.789 25.1711 195.598 24.9028C195.405 24.6199 195.163 24.3692 194.872 24.1507ZM206.74 26.2548C206.711 25.7276 206.778 25.2317 206.943 24.7669C207.106 24.2876 207.357 23.7886 207.695 23.27C208.033 22.7514 208.516 22.3347 209.145 22.02C209.772 21.6906 210.467 21.5044 211.228 21.4612C211.814 21.4281 212.385 21.5206 212.941 21.7388C213.511 21.9416 214.025 22.2063 214.484 22.5328C214.549 22.632 214.662 22.8165 214.824 23.0865C214.985 23.3417 215.102 23.5776 215.173 23.7939C215.258 24.0094 215.308 24.2343 215.321 24.4686C215.377 25.4497 215.055 26.1289 214.357 26.5064C213.658 26.8692 212.759 27.0817 211.661 27.1439C210.562 27.2061 209.665 27.1835 208.968 27.0761C209.013 27.3526 209.102 27.6267 209.235 27.8983C209.368 28.1699 209.519 28.3743 209.689 28.5116C209.997 28.7732 210.293 28.9401 210.576 29.0122C210.873 29.0688 211.264 29.0835 211.747 29.0561C212.479 29.0146 213.042 28.8431 213.436 28.5417C213.803 28.2712 214.089 28.1301 214.294 28.1185C214.572 28.1028 214.789 28.1786 214.946 28.346C215.101 28.4988 215.187 28.707 215.202 28.9705C215.233 29.527 214.9 30.0012 214.202 30.3933C213.519 30.7846 212.731 31.0055 211.838 31.0561C211.135 31.0959 210.433 31.0109 209.73 30.8009C209.028 30.591 208.459 30.2706 208.023 29.8399C207.718 29.3871 207.437 28.8301 207.179 28.169C206.922 27.5078 206.775 26.8698 206.74 26.2548ZM211.418 23.2574C211.096 23.2756 210.763 23.3533 210.418 23.4903C210.087 23.6119 209.832 23.7879 209.655 24.0183C209.434 24.2806 209.271 24.5175 209.166 24.7291C209.075 24.9399 209.024 25.1999 209.012 25.5091C209.173 25.5 209.327 25.4986 209.474 25.5049C209.622 25.5113 209.762 25.518 209.894 25.5252C210.542 25.5473 211.027 25.5492 211.349 25.5309C211.993 25.4944 212.478 25.3715 212.804 25.162C213.145 24.9518 213.306 24.6856 213.288 24.3634C213.27 24.0559 213.057 23.7889 212.648 23.5623C212.253 23.335 211.843 23.2333 211.418 23.2574ZM220.778 29.2275C220.799 29.5936 220.672 29.946 220.397 30.2848C220.122 30.6089 219.809 30.7809 219.457 30.8008C219.047 30.824 218.668 30.7353 218.318 30.5348C217.968 30.3196 217.783 30.0362 217.763 29.6848C217.732 29.1283 217.811 28.7125 218.001 28.4373C218.206 28.1613 218.521 28.0113 218.945 27.9872C219.443 27.959 219.867 28.0598 220.218 28.2897C220.568 28.5049 220.755 28.8175 220.778 29.2275ZM223.19 18.4699C223.029 18.479 222.91 18.4564 222.833 18.402C222.636 18.2956 222.467 18.1656 222.326 18.012C222.2 17.8576 222.128 17.6266 222.111 17.3191C222.113 17.0986 222.154 16.9054 222.232 16.7393C222.31 16.5586 222.428 16.4271 222.585 16.3447C222.883 16.1662 223.274 16.0633 223.757 16.0359C224.108 16.016 224.387 16.1325 224.592 16.3853C224.811 16.6226 224.931 16.9243 224.952 17.2904C224.977 17.7297 224.874 18.2496 224.644 18.8503C224.427 19.4355 224.203 19.8962 223.973 20.2325C223.795 20.4629 223.593 20.6653 223.368 20.8396C223.143 21.014 222.942 21.1061 222.767 21.1161C222.415 21.136 222.193 21.0972 222.099 20.9997C222.019 20.8867 221.971 20.691 221.956 20.4128C221.949 20.2957 222.092 20.1039 222.386 19.8376C222.622 19.6038 222.767 19.4414 222.821 19.3502C223.024 19.0449 223.169 18.7502 223.256 18.4662L223.19 18.4699ZM227.012 18.2534C226.836 18.2634 226.71 18.2411 226.633 18.1867C226.452 18.0942 226.29 17.9711 226.15 17.8175C226.023 17.663 225.951 17.4247 225.933 17.1026C225.921 16.8976 225.954 16.7047 226.032 16.524C226.125 16.3425 226.25 16.2106 226.406 16.1282C226.676 15.9514 227.066 15.8485 227.579 15.8194C227.916 15.8003 228.194 15.9168 228.414 16.1688C228.633 16.4061 228.753 16.7078 228.774 17.0739C228.799 17.5132 228.696 18.0331 228.465 18.6338C228.249 19.219 228.025 19.6797 227.795 20.0159C227.617 20.2464 227.408 20.4492 227.168 20.6244C226.943 20.7987 226.742 20.8909 226.567 20.9008C226.23 20.9199 226.015 20.8807 225.921 20.7831C225.841 20.6701 225.793 20.4745 225.778 20.1963C225.771 20.0792 225.914 19.8874 226.208 19.6211C226.444 19.3873 226.589 19.2249 226.643 19.1337C226.87 18.7389 227.015 18.4442 227.078 18.2497L227.012 18.2534Z" fill="#4F5A8E"/>
</svg>
