<svg width="351" height="266" viewBox="0 0 351 266" fill="none" xmlns="http://www.w3.org/2000/svg">
<rect width="11" height="55" rx="2" transform="matrix(-0.876683 -0.481068 -0.481068 0.876683 131.551 206.292)" fill="#515CA3"/>
<rect x="71.4489" y="40.292" width="11" height="55" rx="2" transform="rotate(-28.7552 71.4489 40.292)" fill="#BE7C99"/>
<rect x="6.5" y="6.5" width="173" height="253" stroke="#2B1D10" stroke-width="13"/>
<line x1="13" y1="89.5" x2="173" y2="89.5" stroke="#2B1D10" stroke-width="5"/>
<line x1="13" y1="172.5" x2="173" y2="172.5" stroke="#2B1D10" stroke-width="5"/>
<rect x="25" y="32" width="11" height="55" rx="2" fill="#BE7C99"/>
<rect x="139" y="32" width="11" height="55" rx="2" fill="#BE7C99"/>
<rect x="61" y="32" width="11" height="55" rx="2" fill="#BE7C99"/>
<rect x="43" y="32" width="11" height="55" rx="2" fill="#BE7C99"/>
<rect x="25" y="115" width="11" height="55" rx="2" fill="#69A1AB"/>
<rect x="61" y="115" width="11" height="55" rx="2" fill="#69A1AB"/>
<rect x="43" y="115" width="11" height="55" rx="2" fill="#69A1AB"/>
<rect x="98" y="115" width="11" height="55" rx="2" fill="#69A1AB"/>
<rect x="150" y="115" width="11" height="55" rx="2" fill="#69A1AB"/>
<rect x="116" y="115" width="11" height="55" rx="2" fill="#69A1AB"/>
<rect width="11" height="55" rx="2" transform="matrix(-1 0 0 1 46 198)" fill="#515CA3"/>
<rect width="11" height="55" rx="2" transform="matrix(-1 0 0 1 64 198)" fill="#515CA3"/>
<rect width="11" height="55" rx="2" transform="matrix(-1 0 0 1 142 198)" fill="#515CA3"/>
<rect width="11" height="55" rx="2" transform="matrix(-1 0 0 1 160 198)" fill="#515CA3"/>
<rect x="256" y="21" width="95" height="56" rx="7" fill="#FDEBF3"/>
<path d="M227.967 51.3512C226.451 50.1502 226.451 47.8498 227.967 46.6488L258.387 22.5429C260.353 20.9846 263.25 22.3851 263.25 24.8942L263.25 73.1058C263.25 75.6149 260.353 77.0154 258.387 75.4571L227.967 51.3512Z" fill="#FDEBF3"/>
<circle cx="251" cy="49" r="4" fill="white"/>
<rect x="256" y="104" width="95" height="56" rx="7" fill="#DBF1F4"/>
<path d="M227.967 134.351C226.451 133.15 226.451 130.85 227.967 129.649L258.387 105.543C260.353 103.985 263.25 105.385 263.25 107.894L263.25 156.106C263.25 158.615 260.353 160.015 258.387 158.457L227.967 134.351Z" fill="#DBF1F4"/>
<circle cx="251" cy="132" r="4" fill="white"/>
<rect x="256" y="187" width="95" height="56" rx="7" fill="#D7DAEE"/>
<path d="M227.967 217.351C226.451 216.15 226.451 213.85 227.967 212.649L258.387 188.543C260.353 186.985 263.25 188.385 263.25 190.894L263.25 239.106C263.25 241.615 260.353 243.015 258.387 241.457L227.967 217.351Z" fill="#D7DAEE"/>
<circle cx="251" cy="215" r="4" fill="white"/>
<path d="M294.784 55.09C294.524 54.6047 294.359 54.0673 294.29 53.478C294.221 52.8713 294.186 52.0393 294.186 50.982C294.186 49.9767 294.047 49.1013 293.77 48.356C293.493 47.6107 292.921 47.238 292.054 47.238C291.725 47.238 291.395 47.342 291.066 47.55C290.754 47.7407 290.52 47.9833 290.364 48.278C290.121 48.746 289.957 49.2573 289.87 49.812C289.783 50.3493 289.74 50.9733 289.74 51.684C289.74 52.1347 289.766 52.594 289.818 53.062C289.818 53.2007 289.827 53.426 289.844 53.738C289.879 54.0327 289.896 54.3013 289.896 54.544C289.896 55.584 289.532 56.104 288.804 56.104C287.851 56.104 287.348 55.6013 287.296 54.596C287.296 53.8853 287.305 53.504 287.322 53.452V52.334C287.322 51.71 287.296 51.1033 287.244 50.514C287.192 49.9247 287.131 49.4827 287.062 49.188C286.906 48.616 286.698 48.174 286.438 47.862C286.195 47.55 285.805 47.394 285.268 47.394C284.505 47.394 283.89 47.7233 283.422 48.382C283.093 48.902 282.876 49.5347 282.772 50.28C282.668 51.2333 282.59 51.9873 282.538 52.542C282.503 53.0793 282.486 53.7033 282.486 54.414C282.486 54.9167 282.399 55.324 282.226 55.636C282.07 55.948 281.767 56.104 281.316 56.104C280.987 56.104 280.64 56.0173 280.276 55.844C279.929 55.6533 279.756 55.402 279.756 55.09C279.756 54.7607 279.791 54.4313 279.86 54.102C280.016 53.114 280.094 51.346 280.094 48.798C280.094 48.382 279.99 47.9833 279.782 47.602C279.591 47.2033 279.357 47.004 279.08 47.004C279.011 47.004 278.881 47.0387 278.69 47.108C278.517 47.1773 278.387 47.212 278.3 47.212C278.075 47.212 277.867 47.108 277.676 46.9C277.503 46.692 277.416 46.5187 277.416 46.38C277.416 45.9467 277.624 45.5827 278.04 45.288C278.473 44.976 278.924 44.82 279.392 44.82C280.033 44.82 280.579 45.0193 281.03 45.418C281.481 45.8167 281.827 46.3713 282.07 47.082C282.469 46.3887 283.006 45.834 283.682 45.418C284.358 44.9847 285.112 44.768 285.944 44.768C286.464 44.768 286.88 44.8373 287.192 44.976C287.521 45.0973 287.79 45.2793 287.998 45.522C288.206 45.7473 288.475 46.094 288.804 46.562C289.237 46.0073 289.792 45.574 290.468 45.262C291.161 44.95 291.872 44.794 292.6 44.794C293.467 44.794 294.247 45.1493 294.94 45.86C295.633 46.5533 296.101 47.3593 296.344 48.278C296.465 48.746 296.526 49.6473 296.526 50.982L296.63 52.49C296.717 53.3913 297.011 53.9373 297.514 54.128C298.103 54.3013 298.398 54.4833 298.398 54.674C298.398 55.09 298.294 55.3933 298.086 55.584C297.93 55.688 297.713 55.8007 297.436 55.922C297.159 56.0433 296.942 56.104 296.786 56.104C295.85 56.104 295.183 55.766 294.784 55.09ZM311.289 54.752C311.289 55.1333 311.081 55.454 310.665 55.714C310.267 55.974 309.894 56.104 309.547 56.104C308.889 56.104 308.36 56.026 307.961 55.87C307.58 55.6967 307.225 55.3847 306.895 54.934C306.445 55.3327 305.829 55.636 305.049 55.844C304.269 56.0347 303.55 56.13 302.891 56.13C301.817 56.13 300.933 55.844 300.239 55.272C299.546 54.6827 299.199 53.8247 299.199 52.698C299.199 52.2127 299.329 51.7707 299.589 51.372C299.849 50.956 300.205 50.592 300.655 50.28C301.158 49.9507 301.73 49.6993 302.371 49.526C303.013 49.3353 303.68 49.24 304.373 49.24C304.737 49.24 305.171 49.3093 305.673 49.448C306.176 49.5867 306.566 49.734 306.843 49.89V49.474C306.843 48.538 306.618 47.8967 306.167 47.55C305.717 47.186 304.989 47.004 303.983 47.004C303.689 47.004 303.394 47.0647 303.099 47.186C302.822 47.3073 302.501 47.472 302.137 47.68C301.652 47.94 301.193 48.07 300.759 48.07C300.603 48.07 300.456 47.966 300.317 47.758C300.179 47.5327 300.109 47.3333 300.109 47.16C300.109 46.6573 300.343 46.224 300.811 45.86C301.297 45.496 301.869 45.2273 302.527 45.054C303.186 44.8633 303.775 44.768 304.295 44.768C304.815 44.768 305.413 44.872 306.089 45.08C306.765 45.2707 307.32 45.5393 307.753 45.886C308.273 46.3367 308.672 46.8653 308.949 47.472C309.244 48.0613 309.391 48.7113 309.391 49.422C309.391 49.6473 309.374 49.9853 309.339 50.436C309.305 50.9213 309.287 51.3373 309.287 51.684C309.287 51.84 309.27 52.074 309.235 52.386C309.201 52.7673 309.183 53.0707 309.183 53.296C309.183 53.504 309.261 53.686 309.417 53.842C309.573 53.9807 309.755 54.05 309.963 54.05L310.691 54.024C310.882 54.024 311.029 54.0933 311.133 54.232C311.237 54.3707 311.289 54.544 311.289 54.752ZM302.917 54.076C303.663 54.076 304.287 53.998 304.789 53.842C305.292 53.686 305.899 53.4 306.609 52.984C306.679 52.6893 306.722 52.2993 306.739 51.814C305.786 51.3633 304.997 51.138 304.373 51.138C303.663 51.138 303.03 51.268 302.475 51.528C301.921 51.788 301.643 52.2473 301.643 52.906C301.643 53.2353 301.782 53.5127 302.059 53.738C302.337 53.9633 302.623 54.076 302.917 54.076ZM312.238 46.952C311.995 46.9173 311.796 46.822 311.64 46.666C311.501 46.4927 311.432 46.2847 311.432 46.042C311.432 45.73 311.553 45.47 311.796 45.262C311.848 45.21 311.935 45.1667 312.056 45.132C312.177 45.08 312.273 45.0367 312.342 45.002C312.723 44.8807 312.966 44.7853 313.07 44.716C313.469 44.4733 313.737 44.0747 313.876 43.52C314.015 42.8613 314.101 42.4107 314.136 42.168C314.171 41.7867 314.292 41.5007 314.5 41.31C314.725 41.102 315.003 40.998 315.332 40.998C315.765 40.998 316.069 41.1107 316.242 41.336C316.415 41.5613 316.502 41.9773 316.502 42.584C316.502 43.3813 316.311 44.1353 315.93 44.846C316.173 44.846 316.571 44.8287 317.126 44.794C317.958 44.7593 318.539 44.742 318.868 44.742C319.163 44.742 319.414 44.82 319.622 44.976C319.847 45.1147 319.96 45.3227 319.96 45.6C319.96 46.2587 319.657 46.6487 319.05 46.77C318.495 46.926 317.49 47.0213 316.034 47.056C315.913 48.7547 315.852 50.098 315.852 51.086C315.852 51.6927 315.878 52.126 315.93 52.386C316.034 52.9233 316.207 53.322 316.45 53.582C316.71 53.8247 317.091 53.946 317.594 53.946C317.837 53.946 318.201 53.8853 318.686 53.764C318.981 53.6773 319.215 53.634 319.388 53.634C319.613 53.634 319.787 53.712 319.908 53.868C320.029 54.024 320.09 54.232 320.09 54.492C320.09 54.96 319.787 55.35 319.18 55.662C318.573 55.9567 317.854 56.104 317.022 56.104C316.502 56.104 315.991 55.9827 315.488 55.74C314.985 55.48 314.561 55.168 314.214 54.804C314.145 54.7693 314.041 54.5787 313.902 54.232C313.781 53.8853 313.659 53.504 313.538 53.088C313.486 52.88 313.46 52.3773 313.46 51.58C313.46 50.8173 313.512 49.5 313.616 47.628L313.642 47.056C313.521 47.056 313.295 47.0473 312.966 47.03C312.637 46.9953 312.394 46.9693 312.238 46.952ZM324.329 39.516C324.329 39.9667 324.32 40.4953 324.303 41.102C324.285 41.6913 324.268 42.142 324.251 42.454C324.199 43.338 324.173 44.222 324.173 45.106C324.173 46.2673 324.199 47.2033 324.251 47.914C324.649 46.926 325.213 46.1807 325.941 45.678C326.669 45.158 327.501 44.898 328.437 44.898C329.078 44.898 329.676 45.184 330.231 45.756C330.785 46.328 331.141 46.9953 331.297 47.758C331.314 47.8447 331.323 47.9747 331.323 48.148C331.323 48.356 331.305 48.6853 331.271 49.136C331.219 49.5 331.193 49.864 331.193 50.228C331.193 51.164 331.227 51.892 331.297 52.412C331.366 52.9147 331.513 53.3307 331.739 53.66C331.964 53.972 332.319 54.2233 332.805 54.414C332.995 54.4833 333.125 54.5787 333.195 54.7C333.281 54.804 333.325 54.9687 333.325 55.194C333.325 55.506 333.16 55.74 332.831 55.896C332.519 56.052 332.215 56.13 331.921 56.13C331.314 56.13 330.768 55.9653 330.283 55.636C329.797 55.3067 329.433 54.8733 329.191 54.336C329.017 53.972 328.905 53.5387 328.853 53.036C328.801 52.5333 328.775 51.944 328.775 51.268L328.801 49.006C328.801 47.7753 328.402 47.16 327.605 47.16C327.033 47.16 326.478 47.628 325.941 48.564C325.403 49.5 324.97 50.6007 324.641 51.866C324.311 53.1313 324.147 54.1713 324.147 54.986C324.147 55.3673 324.025 55.6533 323.783 55.844C323.557 56.0173 323.323 56.104 323.081 56.104C322.699 56.104 322.353 55.9913 322.041 55.766C321.729 55.5233 321.573 55.2547 321.573 54.96C321.694 53.66 321.755 51.4847 321.755 48.434C321.755 47.8793 321.711 45.8253 321.625 42.272L321.547 39.88C321.547 39.4987 321.72 39.1693 322.067 38.892C322.413 38.5973 322.803 38.45 323.237 38.45C323.618 38.45 323.895 38.5367 324.069 38.71C324.242 38.8833 324.329 39.152 324.329 39.516Z" fill="#730F3A"/>
<path d="M275.704 123.308C276.311 123.36 276.839 123.525 277.29 123.802C277.741 124.062 277.966 124.461 277.966 124.998C277.966 125.397 277.775 125.717 277.394 125.96C277.03 126.185 276.588 126.298 276.068 126.298C275.565 126.298 275.219 126.168 275.028 125.908C274.837 125.648 274.742 125.379 274.742 125.102C274.742 124.582 274.794 124.149 274.898 123.802C275.019 123.455 275.288 123.291 275.704 123.308ZM277.784 134.826V135.58C277.784 136.256 277.801 136.897 277.836 137.504C277.888 138.093 277.949 138.691 278.018 139.298C278.001 139.471 277.871 139.653 277.628 139.844C277.385 140.017 277.169 140.104 276.978 140.104C276.649 140.104 276.311 140.043 275.964 139.922C275.635 139.783 275.435 139.619 275.366 139.428C275.262 138.873 275.21 138.379 275.21 137.946C275.21 136.525 275.167 134.93 275.08 133.162C275.011 131.602 274.976 130.51 274.976 129.886C274.976 129.574 275.132 129.305 275.444 129.08C275.756 128.855 276.085 128.742 276.432 128.742C276.935 128.742 277.281 128.855 277.472 129.08C277.68 129.305 277.784 129.661 277.784 130.146V134.826ZM296.656 139.09C296.396 138.605 296.232 138.067 296.162 137.478C296.093 136.871 296.058 136.039 296.058 134.982C296.058 133.977 295.92 133.101 295.642 132.356C295.365 131.611 294.793 131.238 293.926 131.238C293.597 131.238 293.268 131.342 292.938 131.55C292.626 131.741 292.392 131.983 292.236 132.278C291.994 132.746 291.829 133.257 291.742 133.812C291.656 134.349 291.612 134.973 291.612 135.684C291.612 136.135 291.638 136.594 291.69 137.062C291.69 137.201 291.699 137.426 291.716 137.738C291.751 138.033 291.768 138.301 291.768 138.544C291.768 139.584 291.404 140.104 290.676 140.104C289.723 140.104 289.22 139.601 289.168 138.596C289.168 137.885 289.177 137.504 289.194 137.452V136.334C289.194 135.71 289.168 135.103 289.116 134.514C289.064 133.925 289.004 133.483 288.934 133.188C288.778 132.616 288.57 132.174 288.31 131.862C288.068 131.55 287.678 131.394 287.14 131.394C286.378 131.394 285.762 131.723 285.294 132.382C284.965 132.902 284.748 133.535 284.644 134.28C284.54 135.233 284.462 135.987 284.41 136.542C284.376 137.079 284.358 137.703 284.358 138.414C284.358 138.917 284.272 139.324 284.098 139.636C283.942 139.948 283.639 140.104 283.188 140.104C282.859 140.104 282.512 140.017 282.148 139.844C281.802 139.653 281.628 139.402 281.628 139.09C281.628 138.761 281.663 138.431 281.732 138.102C281.888 137.114 281.966 135.346 281.966 132.798C281.966 132.382 281.862 131.983 281.654 131.602C281.464 131.203 281.23 131.004 280.952 131.004C280.883 131.004 280.753 131.039 280.562 131.108C280.389 131.177 280.259 131.212 280.172 131.212C279.947 131.212 279.739 131.108 279.548 130.9C279.375 130.692 279.288 130.519 279.288 130.38C279.288 129.947 279.496 129.583 279.912 129.288C280.346 128.976 280.796 128.82 281.264 128.82C281.906 128.82 282.452 129.019 282.902 129.418C283.353 129.817 283.7 130.371 283.942 131.082C284.341 130.389 284.878 129.834 285.554 129.418C286.23 128.985 286.984 128.768 287.816 128.768C288.336 128.768 288.752 128.837 289.064 128.976C289.394 129.097 289.662 129.279 289.87 129.522C290.078 129.747 290.347 130.094 290.676 130.562C291.11 130.007 291.664 129.574 292.34 129.262C293.034 128.95 293.744 128.794 294.472 128.794C295.339 128.794 296.119 129.149 296.812 129.86C297.506 130.553 297.974 131.359 298.216 132.278C298.338 132.746 298.398 133.647 298.398 134.982L298.502 136.49C298.589 137.391 298.884 137.937 299.386 138.128C299.976 138.301 300.27 138.483 300.27 138.674C300.27 139.09 300.166 139.393 299.958 139.584C299.802 139.688 299.586 139.801 299.308 139.922C299.031 140.043 298.814 140.104 298.658 140.104C297.722 140.104 297.055 139.766 296.656 139.09ZM311.212 140.104C310.622 140.104 310.172 140.017 309.86 139.844C309.548 139.653 309.21 139.307 308.846 138.804C308.395 139.203 307.719 139.523 306.818 139.766C305.934 140.009 305.171 140.13 304.53 140.13C303.472 140.13 302.614 139.844 301.956 139.272C301.314 138.683 300.994 137.825 300.994 136.698C300.994 136.213 301.124 135.771 301.384 135.372C301.661 134.956 302.016 134.592 302.45 134.28C302.935 133.951 303.507 133.691 304.166 133.5C304.842 133.309 305.457 133.214 306.012 133.214C306.948 133.214 307.78 133.301 308.508 133.474V133.448C308.508 132.512 308.274 131.871 307.806 131.524C307.355 131.16 306.627 130.978 305.622 130.978C304.98 130.978 304.426 131.264 303.958 131.836C303.784 132.061 303.42 132.174 302.866 132.174C302.588 132.174 302.38 132.061 302.242 131.836C302.12 131.593 302.06 131.351 302.06 131.108C302.06 130.605 302.268 130.172 302.684 129.808C303.117 129.444 303.637 129.175 304.244 129.002C304.85 128.811 305.414 128.716 305.934 128.716C306.436 128.716 307.034 128.82 307.728 129.028C308.421 129.236 308.984 129.513 309.418 129.86C309.938 130.311 310.336 130.839 310.614 131.446C310.908 132.035 311.056 132.685 311.056 133.396C311.056 133.621 311.038 133.959 311.004 134.41C310.969 134.93 310.952 135.355 310.952 135.684C310.952 135.84 310.934 136.039 310.9 136.282C310.865 136.594 310.848 136.854 310.848 137.062C310.848 137.287 310.917 137.504 311.056 137.712C311.194 137.92 311.385 138.093 311.628 138.232C311.853 138.353 312 138.483 312.07 138.622C312.139 138.761 312.174 138.917 312.174 139.09C312.174 139.263 312.061 139.48 311.836 139.74C311.628 139.983 311.42 140.104 311.212 140.104ZM306.012 135.138C305.336 135.138 304.738 135.268 304.218 135.528C303.698 135.788 303.438 136.247 303.438 136.906C303.438 137.235 303.55 137.513 303.776 137.738C304.018 137.963 304.278 138.076 304.556 138.076C305.301 138.076 305.925 137.998 306.428 137.842C306.93 137.686 307.537 137.4 308.248 136.984C308.334 136.707 308.386 136.317 308.404 135.814C308.404 135.623 308.412 135.476 308.43 135.372C307.494 135.216 306.688 135.138 306.012 135.138ZM323.333 133.474C323.333 134.271 323.133 134.947 322.735 135.502C322.336 136.039 321.807 136.516 321.149 136.932C320.247 137.417 319.199 137.669 318.003 137.686C317.933 137.894 317.899 138.111 317.899 138.336C317.899 138.544 318.011 138.7 318.237 138.804C318.479 138.891 318.904 138.96 319.511 139.012C320.013 139.047 320.577 139.159 321.201 139.35C321.842 139.523 322.345 139.723 322.709 139.948C323.159 140.277 323.471 140.633 323.645 141.014C323.835 141.395 323.931 141.872 323.931 142.444C323.931 143.189 323.584 143.813 322.891 144.316C322.215 144.836 321.417 145.217 320.499 145.46C319.58 145.703 318.774 145.824 318.081 145.824C317.249 145.824 316.538 145.72 315.949 145.512C315.377 145.321 314.831 145.053 314.311 144.706C313.947 144.446 313.661 144.117 313.453 143.718C313.245 143.319 313.141 142.903 313.141 142.47C313.141 142.037 313.279 141.621 313.557 141.222C313.851 140.823 314.207 140.477 314.623 140.182C315.039 139.905 315.429 139.714 315.793 139.61C315.654 139.437 315.55 139.289 315.481 139.168C315.429 139.029 315.403 138.873 315.403 138.7C315.403 138.111 315.55 137.617 315.845 137.218C315.013 136.941 314.354 136.447 313.869 135.736C313.401 135.025 313.167 134.193 313.167 133.24C313.167 132.616 313.314 132.053 313.609 131.55C313.903 131.03 314.311 130.536 314.831 130.068C315.715 129.271 316.937 128.872 318.497 128.872C318.705 128.872 318.991 128.907 319.355 128.976C319.719 129.045 320.074 129.141 320.421 129.262C320.975 129.019 321.625 128.768 322.371 128.508C323.116 128.248 323.619 128.118 323.879 128.118C324.277 128.118 324.572 128.187 324.763 128.326C324.971 128.447 325.075 128.725 325.075 129.158C325.075 129.557 324.841 129.843 324.373 130.016C323.922 130.189 323.237 130.354 322.319 130.51C322.995 131.325 323.333 132.313 323.333 133.474ZM317.925 135.554C318.93 135.554 319.658 135.346 320.109 134.93C320.577 134.514 320.811 133.89 320.811 133.058C320.811 131.689 320.005 131.004 318.393 131.004C317.769 131.004 317.275 131.073 316.911 131.212C316.564 131.351 316.278 131.585 316.053 131.914C315.741 132.33 315.585 132.893 315.585 133.604C315.585 134.159 315.81 134.627 316.261 135.008C316.729 135.372 317.283 135.554 317.925 135.554ZM315.585 142.652C315.585 142.947 315.853 143.198 316.391 143.406C316.945 143.631 317.535 143.744 318.159 143.744C318.852 143.744 319.563 143.614 320.291 143.354C321.036 143.111 321.409 142.782 321.409 142.366C321.409 141.759 320.871 141.369 319.797 141.196C319.415 141.127 318.861 140.997 318.133 140.806C318.046 140.789 317.942 140.763 317.821 140.728C317.717 140.693 317.604 140.659 317.483 140.624C317.101 140.763 316.685 141.049 316.235 141.482C315.801 141.933 315.585 142.323 315.585 142.652ZM325.564 134.124C325.564 133.5 325.676 132.919 325.902 132.382C326.127 131.827 326.456 131.255 326.89 130.666C327.323 130.077 327.921 129.617 328.684 129.288C329.446 128.941 330.278 128.768 331.18 128.768C331.873 128.768 332.54 128.915 333.182 129.21C333.84 129.487 334.43 129.834 334.95 130.25C335.019 130.371 335.14 130.597 335.314 130.926C335.487 131.238 335.608 131.524 335.678 131.784C335.764 132.044 335.808 132.313 335.808 132.59C335.808 133.751 335.383 134.531 334.534 134.93C333.684 135.311 332.61 135.502 331.31 135.502C330.01 135.502 328.952 135.415 328.138 135.242C328.172 135.571 328.259 135.901 328.398 136.23C328.536 136.559 328.701 136.811 328.892 136.984C329.238 137.313 329.576 137.53 329.906 137.634C330.252 137.721 330.712 137.764 331.284 137.764C332.15 137.764 332.826 137.599 333.312 137.27C333.762 136.975 334.109 136.828 334.352 136.828C334.681 136.828 334.932 136.932 335.106 137.14C335.279 137.331 335.366 137.582 335.366 137.894C335.366 138.553 334.941 139.09 334.092 139.506C333.26 139.922 332.315 140.13 331.258 140.13C330.426 140.13 329.602 139.983 328.788 139.688C327.973 139.393 327.323 138.977 326.838 138.44C326.508 137.885 326.214 137.209 325.954 136.412C325.694 135.615 325.564 134.852 325.564 134.124ZM331.284 130.9C330.902 130.9 330.504 130.969 330.088 131.108C329.689 131.229 329.377 131.42 329.152 131.68C328.874 131.975 328.666 132.243 328.528 132.486C328.406 132.729 328.328 133.032 328.294 133.396C328.484 133.396 328.666 133.405 328.84 133.422C329.013 133.439 329.178 133.457 329.334 133.474C330.096 133.543 330.668 133.578 331.05 133.578C331.812 133.578 332.393 133.465 332.792 133.24C333.208 133.015 333.416 132.711 333.416 132.33C333.416 131.966 333.182 131.637 332.714 131.342C332.263 131.047 331.786 130.9 331.284 130.9Z" fill="#1F626D"/>
<path d="M282.378 214.004C282.135 213.969 281.936 213.865 281.78 213.692C281.641 213.519 281.572 213.311 281.572 213.068C281.572 212.947 281.598 212.817 281.65 212.678C281.719 212.539 281.815 212.418 281.936 212.314C282.161 212.089 282.768 211.976 283.756 211.976C283.895 211.3 283.964 210.615 283.964 209.922C283.964 209.662 283.955 209.437 283.938 209.246C283.921 209.055 283.912 208.908 283.912 208.804C283.912 208.423 284.051 208.137 284.328 207.946C284.623 207.755 284.952 207.66 285.316 207.66C285.767 207.66 286.07 207.773 286.226 207.998C286.399 208.223 286.486 208.639 286.486 209.246C286.486 210.147 286.408 211.031 286.252 211.898C286.529 211.898 286.911 211.881 287.396 211.846C288.055 211.811 288.531 211.794 288.826 211.794C289.121 211.794 289.372 211.872 289.58 212.028C289.805 212.167 289.918 212.366 289.918 212.626C289.918 213.302 289.615 213.701 289.008 213.822C288.367 213.978 287.37 214.073 286.018 214.108C285.966 214.784 285.94 215.521 285.94 216.318C285.94 217.566 286.018 218.589 286.174 219.386C286.278 219.941 286.451 220.348 286.694 220.608C286.954 220.851 287.335 220.972 287.838 220.972C288.133 220.972 288.436 220.894 288.748 220.738C288.956 220.617 289.147 220.556 289.32 220.556C289.563 220.556 289.736 220.634 289.84 220.79C289.961 220.946 290.022 221.154 290.022 221.414C290.022 221.899 289.762 222.307 289.242 222.636C288.722 222.948 288.055 223.104 287.24 223.104C286.737 223.104 286.226 222.983 285.706 222.74C285.203 222.497 284.779 222.194 284.432 221.83C284.38 221.778 284.285 221.579 284.146 221.232C284.007 220.885 283.886 220.513 283.782 220.114C283.609 219.299 283.522 218.155 283.522 216.682C283.522 216.041 283.557 215.183 283.626 214.108L282.378 214.004ZM292.699 206.308C293.306 206.36 293.835 206.525 294.285 206.802C294.736 207.062 294.961 207.461 294.961 207.998C294.961 208.397 294.771 208.717 294.389 208.96C294.025 209.185 293.583 209.298 293.063 209.298C292.561 209.298 292.214 209.168 292.023 208.908C291.833 208.648 291.737 208.379 291.737 208.102C291.737 207.582 291.789 207.149 291.893 206.802C292.015 206.455 292.283 206.291 292.699 206.308ZM294.779 217.826V218.58C294.779 219.256 294.797 219.897 294.831 220.504C294.883 221.093 294.944 221.691 295.013 222.298C294.996 222.471 294.866 222.653 294.623 222.844C294.381 223.017 294.164 223.104 293.973 223.104C293.644 223.104 293.306 223.043 292.959 222.922C292.63 222.783 292.431 222.619 292.361 222.428C292.257 221.873 292.205 221.379 292.205 220.946C292.205 219.525 292.162 217.93 292.075 216.162C292.006 214.602 291.971 213.51 291.971 212.886C291.971 212.574 292.127 212.305 292.439 212.08C292.751 211.855 293.081 211.742 293.427 211.742C293.93 211.742 294.277 211.855 294.467 212.08C294.675 212.305 294.779 212.661 294.779 213.146V217.826ZM297.22 214.056C296.786 213.692 296.57 213.267 296.57 212.782C296.57 212.539 296.691 212.323 296.934 212.132C297.176 211.924 297.471 211.82 297.818 211.82C298.442 211.82 298.953 211.985 299.352 212.314C299.75 212.643 300.097 213.12 300.392 213.744C300.756 213.068 301.215 212.574 301.77 212.262C302.342 211.933 303.061 211.768 303.928 211.768C304.448 211.768 304.864 211.837 305.176 211.976C305.505 212.097 305.774 212.279 305.982 212.522C306.19 212.747 306.45 213.094 306.762 213.562C307.212 213.007 307.776 212.574 308.452 212.262C309.145 211.95 309.856 211.794 310.584 211.794C311.433 211.794 312.204 212.149 312.898 212.86C313.608 213.571 314.085 214.377 314.328 215.278C314.414 215.659 314.475 216.561 314.51 217.982L314.614 219.49C314.7 220.409 314.995 220.955 315.498 221.128C315.74 221.197 315.94 221.284 316.096 221.388C316.269 221.475 316.356 221.57 316.356 221.674C316.39 222.09 316.295 222.393 316.07 222.584C315.914 222.688 315.697 222.801 315.42 222.922C315.142 223.043 314.926 223.104 314.77 223.104C313.834 223.104 313.166 222.766 312.768 222.09C312.508 221.639 312.343 221.128 312.274 220.556C312.204 219.967 312.17 219.169 312.17 218.164C312.17 217.089 312.04 216.171 311.78 215.408C311.52 214.628 310.93 214.238 310.012 214.238C309.682 214.238 309.353 214.342 309.024 214.55C308.712 214.741 308.486 214.983 308.348 215.278C308.105 215.746 307.94 216.257 307.854 216.812C307.767 217.349 307.724 217.973 307.724 218.684C307.724 219.135 307.75 219.594 307.802 220.062C307.802 220.201 307.81 220.426 307.828 220.738C307.862 221.033 307.88 221.301 307.88 221.544C307.88 221.977 307.793 222.35 307.62 222.662C307.464 222.957 307.186 223.104 306.788 223.104C305.834 223.104 305.332 222.601 305.28 221.596C305.28 220.885 305.288 220.504 305.306 220.452V219.334C305.306 218.71 305.28 218.103 305.228 217.514C305.176 216.925 305.115 216.483 305.046 216.188C304.89 215.616 304.682 215.174 304.422 214.862C304.162 214.55 303.763 214.394 303.226 214.394C302.862 214.394 302.524 214.481 302.212 214.654C301.9 214.827 301.631 215.07 301.406 215.382C301.076 215.902 300.86 216.535 300.756 217.28C300.652 218.233 300.574 218.987 300.522 219.542C300.487 220.079 300.47 220.703 300.47 221.414C300.47 221.917 300.383 222.324 300.21 222.636C300.054 222.948 299.75 223.104 299.3 223.104C298.97 223.104 298.624 223.017 298.26 222.844C297.913 222.653 297.74 222.402 297.74 222.09C297.74 221.761 297.774 221.431 297.844 221.102C298 220.114 298.078 218.433 298.078 216.058C298.078 215.677 297.991 215.304 297.818 214.94C297.662 214.559 297.462 214.264 297.22 214.056ZM317.128 217.046C317.128 215.989 317.362 215.113 317.83 214.42C318.298 213.709 318.948 213.042 319.78 212.418C320.022 212.245 320.43 212.097 321.002 211.976C321.574 211.837 322.076 211.768 322.51 211.768C323.03 211.768 323.576 211.881 324.148 212.106C324.737 212.314 325.214 212.557 325.578 212.834C326.219 213.302 326.661 213.848 326.904 214.472C327.146 215.079 327.268 215.807 327.268 216.656C327.268 217.02 327.06 217.375 326.644 217.722C326.245 218.051 325.812 218.216 325.344 218.216L324.356 218.19C323.853 218.19 323.134 218.207 322.198 218.242L321.652 218.268C321.27 218.303 320.984 218.32 320.794 218.32C320.516 218.32 320.135 218.285 319.65 218.216C319.719 219.031 320.022 219.672 320.56 220.14C321.097 220.591 321.678 220.816 322.302 220.816C323.394 220.816 324.156 220.599 324.59 220.166C324.954 219.906 325.196 219.741 325.318 219.672C325.439 219.603 325.63 219.568 325.89 219.568C326.167 219.568 326.41 219.698 326.618 219.958C326.826 220.218 326.93 220.478 326.93 220.738C326.93 221.033 326.748 221.336 326.384 221.648C326.037 221.943 325.56 222.255 324.954 222.584C324.624 222.723 324.174 222.844 323.602 222.948C323.03 223.052 322.553 223.104 322.172 223.104C321.565 223.104 320.889 222.931 320.144 222.584C319.398 222.22 318.844 221.821 318.48 221.388C318.116 220.955 317.795 220.339 317.518 219.542C317.258 218.745 317.128 217.913 317.128 217.046ZM322.302 216.344C323.532 216.344 324.434 216.301 325.006 216.214C324.971 215.711 324.815 215.304 324.538 214.992C324.26 214.663 323.879 214.385 323.394 214.16C323.238 214.091 323.099 214.039 322.978 214.004C322.856 213.969 322.718 213.952 322.562 213.952C321.764 213.952 321.088 214.169 320.534 214.602C319.996 215.035 319.676 215.59 319.572 216.266C320.438 216.318 321.348 216.344 322.302 216.344Z" fill="#192467"/>
</svg>
