<svg width="382" height="203" viewBox="0 0 382 203" fill="none" xmlns="http://www.w3.org/2000/svg">
<path d="M111.512 132.082L127.413 136.235L126.04 141.504L110.139 137.346L111.512 132.082ZM108.245 144.574L124.146 148.733L125.519 143.469L109.619 139.311L108.245 144.574ZM123.632 150.756L107.725 146.598L106.352 151.856L122.259 156.02L123.632 150.756ZM117.66 108.519L133.56 112.678L134.934 107.408L119.033 103.25L117.66 108.519ZM115.772 115.748L131.673 119.906L133.046 114.631L117.145 110.473L115.772 115.748ZM113.867 123.035L129.768 127.193L131.141 121.936L115.24 117.777L113.867 123.035ZM111.991 130.252L127.886 134.41L129.259 129.147L113.364 124.988L111.991 130.252ZM97.7383 167.102L103.769 168.541L105.335 161.973L116.263 164.57L114.691 171.149L120.722 172.594L123.76 159.845L100.777 154.359L97.7383 167.102ZM270.982 132.088L255.064 136.246L256.437 141.504L272.344 137.346L270.982 132.088ZM272.87 139.311L256.969 143.469L258.336 148.727L274.243 144.569L272.87 139.311ZM260.224 156.014L276.125 151.862L274.757 146.598L258.856 150.744L260.224 156.014ZM263.45 103.262L247.549 107.414L248.916 112.683L264.817 108.531L263.45 103.262ZM265.325 110.484L249.43 114.637L250.804 119.906L266.699 115.754L265.325 110.484ZM267.23 117.754L251.33 121.912L252.697 127.164L268.598 123.006L267.23 117.754ZM269.112 124.977L253.211 129.141L254.579 134.41L270.48 130.246L269.112 124.977ZM261.737 92.4306C261.141 86.8805 256.18 82.851 250.634 83.4358C246.432 83.8745 243.113 86.8396 241.991 90.6527C239.572 87.249 235.861 85.0675 231.7 85.0675H200.939H191.46H191.01H181.538H150.764C146.61 85.0675 142.899 87.2548 140.479 90.6585C139.369 86.8396 136.044 83.8745 131.842 83.4358C126.297 82.8451 121.33 86.8747 120.739 92.4306C120.155 97.9807 124.175 102.952 129.727 103.537C132.696 103.847 135.483 102.835 137.54 100.981V155.476C137.54 163.769 143.46 170.489 150.764 170.489H164.649V176.945V191.929H156.626C153.569 191.929 151.092 194.408 151.092 197.455C151.092 200.514 153.564 203 156.626 203H164.649H172.679H179.095V176.933H191.022H191.472H203.393V203H209.81H217.833H225.857C228.913 203 231.391 200.514 231.391 197.455C231.391 194.408 228.913 191.929 225.857 191.929H217.827V176.951V170.494H231.712C239.017 170.494 244.942 163.775 244.942 155.482V100.981C247.005 102.835 249.793 103.847 252.75 103.537C258.307 102.952 262.322 97.9807 261.737 92.4306ZM281.7 154.359L258.704 159.845L261.749 172.594L267.786 171.149L266.202 164.57L277.13 161.973L278.713 168.553L284.738 167.102L281.7 154.359ZM191.016 78.7805H151.512V61.3408C151.512 44.5911 163.223 31.0112 177.681 31.0112L191.022 30.9995H191.051H191.431H191.466L204.796 31.0112C219.253 31.0112 230.964 44.5911 230.964 61.3408V78.7864H191.46H191.425H191.045V78.7805H191.016ZM177.143 59.1301H191.016H191.466H205.339C210.727 59.1301 215.104 54.7555 215.104 49.3575C215.104 43.9595 210.733 39.5849 205.339 39.5849H191.466H191.016H177.143C171.755 39.5849 167.378 43.9595 167.378 49.3575C167.378 54.7555 171.749 59.1301 177.143 59.1301ZM183.279 75.4177H191.016H191.466H199.203C202.26 75.4177 204.726 72.938 204.726 69.8793C204.726 66.8207 202.26 64.341 199.203 64.341H191.466H191.016H183.279C180.223 64.341 177.751 66.8207 177.751 69.8793C177.751 72.938 180.223 75.4177 183.279 75.4177ZM180.509 43.8132C177.453 43.8132 174.975 46.2929 174.975 49.3516C174.975 52.4103 177.453 54.89 180.509 54.89C183.565 54.89 186.043 52.4103 186.043 49.3516C186.043 46.2929 183.565 43.8132 180.509 43.8132ZM201.973 54.89C205.024 54.89 207.507 52.4103 207.507 49.3516C207.507 46.2929 205.024 43.8132 201.973 43.8132C198.923 43.8132 196.445 46.2929 196.445 49.3516C196.445 52.4103 198.917 54.89 201.973 54.89Z" fill="#262937"/>
<rect x="99.5728" y="99.6743" width="37" height="73" transform="rotate(8.46269 99.5728 99.6743)" fill="white"/>
<path d="M117.635 101L96.1808 111.737L73.0212 118.712L48.2146 124.946L24.6606 126.917" stroke="#262937" stroke-width="14"/>
<rect x="245.681" y="105.226" width="37" height="73" transform="rotate(-8.71883 245.681 105.226)" fill="white"/>
<path d="M264.365 101L285.819 111.737L308.979 118.712L333.785 124.946L357.339 126.917" stroke="#262937" stroke-width="14"/>
<g filter="url(#filter0_dd_1258_1380)">
<rect x="4" y="109" width="374" height="47" rx="6" fill="white"/>
<rect x="5.5" y="110.5" width="371" height="44" rx="4.5" stroke="#818181" stroke-width="3"/>
</g>
<path d="M127.377 139.117H128.259V140H127.377V139.117ZM128.259 139.117H129.142V140H128.259V139.117ZM129.142 139.117H130.024V140H129.142V139.117ZM130.024 139.117H130.906V140H130.024V139.117ZM130.024 138.235H130.906V139.117H130.024V138.235ZM129.142 138.235H130.024V139.117H129.142V138.235ZM128.259 138.235H129.142V139.117H128.259V138.235ZM127.377 138.235H128.259V139.117H127.377V138.235ZM127.377 137.352H128.259V138.235H127.377V137.352ZM127.377 136.47H128.259V137.352H127.377V136.47ZM127.377 135.588H128.259V136.47H127.377V135.588ZM127.377 134.705H128.259V135.588H127.377V134.705ZM127.377 133.823H128.259V134.705H127.377V133.823ZM127.377 132.941H128.259V133.823H127.377V132.941ZM127.377 132.058H128.259V132.941H127.377V132.058ZM128.259 132.058H129.142V132.941H128.259V132.058ZM128.259 131.176H129.142V132.058H128.259V131.176ZM128.259 130.294H129.142V131.176H128.259V130.294ZM129.142 130.294H130.024V131.176H129.142V130.294ZM129.142 131.176H130.024V132.058H129.142V131.176ZM130.024 131.176H130.906V132.058H130.024V131.176ZM130.024 132.058H130.906V132.941H130.024V132.058ZM130.024 132.941H130.906V133.823H130.024V132.941ZM130.024 133.823H130.906V134.705H130.024V133.823ZM130.024 134.705H130.906V135.588H130.024V134.705ZM130.024 135.588H130.906V136.47H130.024V135.588ZM130.024 136.47H130.906V137.352H130.024V136.47ZM130.024 137.352H130.906V138.235H130.024V137.352ZM129.142 137.352H130.024V138.235H129.142V137.352ZM129.142 136.47H130.024V137.352H129.142V136.47ZM129.142 135.588H130.024V136.47H129.142V135.588ZM129.142 134.705H130.024V135.588H129.142V134.705ZM129.142 133.823H130.024V134.705H129.142V133.823ZM129.142 132.941H130.024V133.823H129.142V132.941ZM129.142 132.058H130.024V132.941H129.142V132.058ZM128.259 132.941H129.142V133.823H128.259V132.941ZM128.259 133.823H129.142V134.705H128.259V133.823ZM128.259 134.705H129.142V135.588H128.259V134.705ZM128.259 135.588H129.142V136.47H128.259V135.588ZM128.259 136.47H129.142V137.352H128.259V136.47ZM128.259 137.352H129.142V138.235H128.259V137.352ZM127.377 122.352H128.259V123.235H127.377V122.352ZM127.377 123.235H128.259V124.117H127.377V123.235ZM127.377 125H128.259V125.882H127.377V125ZM127.377 125.882H128.259V126.764H127.377V125.882ZM127.377 126.764H128.259V127.647H127.377V126.764ZM127.377 127.647H128.259V128.529H127.377V127.647ZM127.377 128.529H128.259V129.411H127.377V128.529ZM127.377 129.411H128.259V130.294H127.377V129.411ZM127.377 130.294H128.259V131.176H127.377V130.294ZM127.377 131.176H128.259V132.058H127.377V131.176ZM128.259 127.647H129.142V128.529H128.259V127.647ZM128.259 126.764H129.142V127.647H128.259V126.764ZM128.259 125.882H129.142V126.764H128.259V125.882ZM128.259 125H129.142V125.882H128.259V125ZM128.259 124.117H129.142V125H128.259V124.117ZM127.377 124.117H128.259V125H127.377V124.117ZM128.259 122.352H129.142V123.235H128.259V122.352ZM129.142 122.352H130.024V123.235H129.142V122.352ZM129.142 123.235H130.024V124.117H129.142V123.235ZM130.024 124.117H130.906V125H130.024V124.117ZM130.024 123.235H130.906V124.117H130.024V123.235ZM130.024 122.352H130.906V123.235H130.024V122.352ZM130.024 125H130.906V125.882H130.024V125ZM130.024 125.882H130.906V126.764H130.024V125.882ZM130.024 126.764H130.906V127.647H130.024V126.764ZM130.024 127.647H130.906V128.529H130.024V127.647ZM130.024 128.529H130.906V129.411H130.024V128.529ZM130.024 129.411H130.906V130.294H130.024V129.411ZM130.024 130.294H130.906V131.176H130.024V130.294ZM129.142 129.411H130.024V130.294H129.142V129.411ZM129.142 128.529H130.024V129.411H129.142V128.529ZM129.142 127.647H130.024V128.529H129.142V127.647ZM128.259 128.529H129.142V129.411H128.259V128.529ZM128.259 129.411H129.142V130.294H128.259V129.411ZM129.142 126.764H130.024V127.647H129.142V126.764ZM129.142 124.117H130.024V125H129.142V124.117ZM129.142 125H130.024V125.882H129.142V125ZM129.142 125.882H130.024V126.764H129.142V125.882ZM128.259 123.235H129.142V124.117H128.259V123.235ZM136.2 139.117H137.083V140H136.2V139.117ZM137.083 139.117H137.965V140H137.083V139.117ZM137.965 139.117H138.847V140H137.965V139.117ZM137.965 138.235H138.847V139.117H137.965V138.235ZM137.083 138.235H137.965V139.117H137.083V138.235ZM136.2 138.235H137.083V139.117H136.2V138.235ZM136.2 137.352H137.083V138.235H136.2V137.352ZM136.2 136.47H137.083V137.352H136.2V136.47ZM136.2 135.588H137.083V136.47H136.2V135.588ZM136.2 134.705H137.083V135.588H136.2V134.705ZM136.2 133.823H137.083V134.705H136.2V133.823ZM136.2 132.941H137.083V133.823H136.2V132.941ZM136.2 132.058H137.083V132.941H136.2V132.058ZM137.083 132.058H137.965V132.941H137.083V132.058ZM137.083 131.176H137.965V132.058H137.083V131.176ZM137.083 130.294H137.965V131.176H137.083V130.294ZM137.965 130.294H138.847V131.176H137.965V130.294ZM137.965 131.176H138.847V132.058H137.965V131.176ZM137.965 137.352H138.847V138.235H137.965V137.352ZM137.965 136.47H138.847V137.352H137.965V136.47ZM137.965 135.588H138.847V136.47H137.965V135.588ZM137.965 134.705H138.847V135.588H137.965V134.705ZM137.965 133.823H138.847V134.705H137.965V133.823ZM137.965 132.941H138.847V133.823H137.965V132.941ZM137.965 132.058H138.847V132.941H137.965V132.058ZM137.083 132.941H137.965V133.823H137.083V132.941ZM137.083 133.823H137.965V134.705H137.083V133.823ZM137.083 134.705H137.965V135.588H137.083V134.705ZM137.083 135.588H137.965V136.47H137.083V135.588ZM137.083 136.47H137.965V137.352H137.083V136.47ZM137.083 137.352H137.965V138.235H137.083V137.352ZM136.2 122.352H137.083V123.235H136.2V122.352ZM136.2 123.235H137.083V124.117H136.2V123.235ZM136.2 125H137.083V125.882H136.2V125ZM136.2 125.882H137.083V126.764H136.2V125.882ZM136.2 126.764H137.083V127.647H136.2V126.764ZM136.2 127.647H137.083V128.529H136.2V127.647ZM136.2 128.529H137.083V129.411H136.2V128.529ZM136.2 129.411H137.083V130.294H136.2V129.411ZM136.2 130.294H137.083V131.176H136.2V130.294ZM136.2 131.176H137.083V132.058H136.2V131.176ZM137.083 127.647H137.965V128.529H137.083V127.647ZM137.083 126.764H137.965V127.647H137.083V126.764ZM137.083 125.882H137.965V126.764H137.083V125.882ZM137.083 125H137.965V125.882H137.083V125ZM137.083 124.117H137.965V125H137.083V124.117ZM136.2 124.117H137.083V125H136.2V124.117ZM137.083 122.352H137.965V123.235H137.083V122.352ZM137.965 122.352H138.847V123.235H137.965V122.352ZM137.965 123.235H138.847V124.117H137.965V123.235ZM137.965 129.411H138.847V130.294H137.965V129.411ZM137.965 128.529H138.847V129.411H137.965V128.529ZM137.965 127.647H138.847V128.529H137.965V127.647ZM137.083 128.529H137.965V129.411H137.083V128.529ZM137.083 129.411H137.965V130.294H137.083V129.411ZM137.965 126.764H138.847V127.647H137.965V126.764ZM137.965 124.117H138.847V125H137.965V124.117ZM137.965 125H138.847V125.882H137.965V125ZM137.965 125.882H138.847V126.764H137.965V125.882ZM137.083 123.235H137.965V124.117H137.083V123.235ZM130.906 129.411H131.789V130.294H130.906V129.411ZM131.789 129.411H132.671V130.294H131.789V129.411ZM132.671 129.411H133.553V130.294H132.671V129.411ZM133.553 129.411H134.436V130.294H133.553V129.411ZM134.436 129.411H135.318V130.294H134.436V129.411ZM135.318 129.411H136.2V130.294H135.318V129.411ZM135.318 132.058H136.2V132.941H135.318V132.058ZM134.436 132.058H135.318V132.941H134.436V132.058ZM134.436 131.176H135.318V132.058H134.436V131.176ZM133.553 131.176H134.436V132.058H133.553V131.176ZM132.671 131.176H133.553V132.058H132.671V131.176ZM131.789 131.176H132.671V132.058H131.789V131.176ZM130.906 131.176H131.789V132.058H130.906V131.176ZM130.906 132.058H131.789V132.941H130.906V132.058ZM131.789 132.058H132.671V132.941H131.789V132.058ZM132.671 132.058H133.553V132.941H132.671V132.058ZM133.553 132.058H134.436V132.941H133.553V132.058ZM135.318 131.176H136.2V132.058H135.318V131.176ZM134.436 130.294H135.318V131.176H134.436V130.294ZM133.553 130.294H134.436V131.176H133.553V130.294ZM130.906 130.294H131.789V131.176H130.906V130.294ZM131.789 130.294H132.671V131.176H131.789V130.294ZM132.671 130.294H133.553V131.176H132.671V130.294ZM135.318 130.294H136.2V131.176H135.318V130.294ZM135.318 122.352H136.2V123.235H135.318V122.352ZM135.318 123.235H136.2V124.117H135.318V123.235ZM135.318 124.117H136.2V125H135.318V124.117ZM135.318 125H136.2V125.882H135.318V125ZM135.318 125.882H136.2V126.764H135.318V125.882ZM135.318 126.764H136.2V127.647H135.318V126.764ZM135.318 127.647H136.2V128.529H135.318V127.647ZM135.318 128.529H136.2V129.411H135.318V128.529ZM135.318 132.941H136.2V133.823H135.318V132.941ZM135.318 133.823H136.2V134.705H135.318V133.823ZM135.318 135.588H136.2V136.47H135.318V135.588ZM135.318 136.47H136.2V137.352H135.318V136.47ZM135.318 137.352H136.2V138.235H135.318V137.352ZM135.318 138.235H136.2V139.117H135.318V138.235ZM135.318 139.117H136.2V140H135.318V139.117ZM135.318 134.705H136.2V135.588H135.318V134.705ZM149.157 140H148.274V139.117H149.157V140ZM150.922 140H150.039V139.117H150.922V140ZM148.274 140H147.392V139.117H148.274V140ZM147.392 140H146.51V139.117H147.392V140ZM146.51 140H145.627V139.117H146.51V140ZM145.627 140H144.745V139.117H145.627V140ZM144.745 139.117H143.863V138.235H144.745V139.117ZM145.627 139.117H144.745V138.235H145.627V139.117ZM145.627 138.235H144.745V137.352H145.627V138.235ZM143.863 139.117H142.98V138.235H143.863V139.117ZM143.863 138.235H142.98V137.352H143.863V138.235ZM144.745 138.235H143.863V137.352H144.745V138.235ZM145.627 137.352H144.745V136.47H145.627V137.352ZM146.51 137.352H145.627V136.47H146.51V137.352ZM144.745 137.352H143.863V136.47H144.745V137.352ZM143.863 137.352H142.98V136.47H143.863V137.352ZM142.98 137.352H142.098V136.47H142.98V137.352ZM142.98 136.47H142.098V135.588H142.98V136.47ZM142.98 131.176H142.098V130.294H142.98V131.176ZM142.98 130.294H142.098V129.411H142.98V130.294ZM143.863 130.294H142.98V129.411H143.863V130.294ZM143.863 129.411H142.98V128.529H143.863V129.411ZM143.863 128.529H142.98V127.647H143.863V128.529ZM144.745 128.529H143.863V127.647H144.745V128.529ZM145.627 128.529H144.745V127.647H145.627V128.529ZM146.51 129.411H145.627V128.529H146.51V129.411ZM146.51 130.294H145.627V129.411H146.51V130.294ZM145.627 130.294H144.745V129.411H145.627V130.294ZM145.627 129.411H144.745V128.529H145.627V129.411ZM144.745 129.411H143.863V128.529H144.745V129.411ZM144.745 130.294H143.863V129.411H144.745V130.294ZM144.745 131.176H143.863V130.294H144.745V131.176ZM145.627 131.176H144.745V130.294H145.627V131.176ZM145.627 136.47H144.745V135.588H145.627V136.47ZM144.745 136.47H143.863V135.588H144.745V136.47ZM143.863 131.176H142.98V130.294H143.863V131.176ZM143.863 136.47H142.98V135.588H143.863V136.47ZM146.51 128.529H145.627V127.647H146.51V128.529ZM146.51 127.647H145.627V126.764H146.51V127.647ZM145.627 127.647H144.745V126.764H145.627V127.647ZM147.392 127.647H146.51V126.764H147.392V127.647ZM148.274 127.647H147.392V126.764H148.274V127.647ZM149.157 127.647H148.274V126.764H149.157V127.647ZM150.039 127.647H149.157V126.764H150.039V127.647ZM150.922 127.647H150.039V126.764H150.922V127.647ZM150.922 128.529H150.039V127.647H150.922V128.529ZM151.804 128.529H150.922V127.647H151.804V128.529ZM152.686 128.529H151.804V127.647H152.686V128.529ZM152.686 129.411H151.804V128.529H152.686V129.411ZM153.569 130.294H152.686V129.411H153.569V130.294ZM152.686 130.294H151.804V129.411H152.686V130.294ZM153.569 131.176H152.686V130.294H153.569V131.176ZM153.569 132.058H152.686V131.176H153.569V132.058ZM153.569 132.941H152.686V132.058H153.569V132.941ZM153.569 133.823H152.686V132.941H153.569V133.823ZM153.569 134.705H152.686V133.823H153.569V134.705ZM153.569 135.588H152.686V134.705H153.569V135.588ZM152.686 135.588H151.804V134.705H152.686V135.588ZM152.686 136.47H151.804V135.588H152.686V136.47ZM153.569 136.47H152.686V135.588H153.569V136.47ZM153.569 137.352H152.686V136.47H153.569V137.352ZM152.686 137.352H151.804V136.47H152.686V137.352ZM152.686 138.235H151.804V137.352H152.686V138.235ZM152.686 139.117H151.804V138.235H152.686V139.117ZM151.804 139.117H150.922V138.235H151.804V139.117ZM150.922 139.117H150.039V138.235H150.922V139.117ZM150.039 139.117H149.157V138.235H150.039V139.117ZM150.039 138.235H149.157V137.352H150.039V138.235ZM150.922 137.352H150.039V136.47H150.922V137.352ZM151.804 137.352H150.922V136.47H151.804V137.352ZM150.922 136.47H150.039V135.588H150.922V136.47ZM150.922 135.588H150.039V134.705H150.922V135.588ZM150.922 134.705H150.039V133.823H150.922V134.705ZM150.922 133.823H150.039V132.941H150.922V133.823ZM150.922 132.941H150.039V132.058H150.922V132.941ZM150.922 132.058H150.039V131.176H150.922V132.058ZM150.922 131.176H150.039V130.294H150.922V131.176ZM150.922 130.294H150.039V129.411H150.922V130.294ZM150.039 130.294H149.157V129.411H150.039V130.294ZM150.039 129.411H149.157V128.529H150.039V129.411ZM149.157 129.411H148.274V128.529H149.157V129.411ZM148.274 129.411H147.392V128.529H148.274V129.411ZM147.392 129.411H146.51V128.529H147.392V129.411ZM147.392 128.529H146.51V127.647H147.392V128.529ZM148.274 128.529H147.392V127.647H148.274V128.529ZM149.157 128.529H148.274V127.647H149.157V128.529ZM150.039 128.529H149.157V127.647H150.039V128.529ZM150.922 129.411H150.039V128.529H150.922V129.411ZM151.804 129.411H150.922V128.529H151.804V129.411ZM151.804 130.294H150.922V129.411H151.804V130.294ZM151.804 131.176H150.922V130.294H151.804V131.176ZM151.804 132.058H150.922V131.176H151.804V132.058ZM152.686 132.058H151.804V131.176H152.686V132.058ZM152.686 131.176H151.804V130.294H152.686V131.176ZM152.686 132.941H151.804V132.058H152.686V132.941ZM152.686 133.823H151.804V132.941H152.686V133.823ZM152.686 134.705H151.804V133.823H152.686V134.705ZM151.804 134.705H150.922V133.823H151.804V134.705ZM151.804 133.823H150.922V132.941H151.804V133.823ZM151.804 132.941H150.922V132.058H151.804V132.941ZM151.804 135.588H150.922V134.705H151.804V135.588ZM151.804 136.47H150.922V135.588H151.804V136.47ZM151.804 138.235H150.922V137.352H151.804V138.235ZM150.922 138.235H150.039V137.352H150.922V138.235ZM149.157 139.117H148.274V138.235H149.157V139.117ZM148.274 139.117H147.392V138.235H148.274V139.117ZM147.392 139.117H146.51V138.235H147.392V139.117ZM146.51 139.117H145.627V138.235H146.51V139.117ZM146.51 138.235H145.627V137.352H146.51V138.235ZM147.392 138.235H146.51V137.352H147.392V138.235ZM148.274 138.235H147.392V137.352H148.274V138.235ZM149.157 138.235H148.274V137.352H149.157V138.235ZM143.863 135.588H142.98V134.705H143.863V135.588ZM144.745 135.588H143.863V134.705H144.745V135.588ZM145.627 135.588H144.745V134.705H145.627V135.588ZM143.863 134.705H142.98V133.823H143.863V134.705ZM144.745 134.705H143.863V133.823H144.745V134.705ZM145.627 134.705H144.745V133.823H145.627V134.705ZM146.51 134.705H145.627V133.823H146.51V134.705ZM147.392 134.705H146.51V133.823H147.392V134.705ZM148.274 134.705H147.392V133.823H148.274V134.705ZM149.157 134.705H148.274V133.823H149.157V134.705ZM150.039 134.705H149.157V133.823H150.039V134.705ZM150.039 133.823H149.157V132.941H150.039V133.823ZM149.157 133.823H148.274V132.941H149.157V133.823ZM148.274 133.823H147.392V132.941H148.274V133.823ZM147.392 133.823H146.51V132.941H147.392V133.823ZM146.51 133.823H145.627V132.941H146.51V133.823ZM145.627 133.823H144.745V132.941H145.627V133.823ZM152.686 137.352H153.569V138.235H152.686V137.352ZM152.686 138.235H153.569V139.117H152.686V138.235ZM152.686 139.117H153.569V140H152.686V139.117ZM151.804 139.117H152.686V140H151.804V139.117ZM150.922 139.117H151.804V140H150.922V139.117ZM145.627 134.705H146.51V135.588H145.627V134.705ZM156.819 126.764H157.701V127.647H156.819V126.764ZM157.701 126.764H158.584V127.647H157.701V126.764ZM158.584 126.764H159.466V127.647H158.584V126.764ZM156.819 128.529H157.701V129.411H156.819V128.529ZM156.819 127.647H157.701V128.529H156.819V127.647ZM158.584 139.117H159.466V140H158.584V139.117ZM157.701 139.117H158.584V140H157.701V139.117ZM156.819 138.235H157.701V139.117H156.819V138.235ZM156.819 137.352H157.701V138.235H156.819V137.352ZM156.819 139.117H157.701V140H156.819V139.117ZM161.231 126.764H162.113V127.647H161.231V126.764ZM159.466 126.764H160.348V127.647H159.466V126.764ZM162.113 126.764H162.996V127.647H162.113V126.764ZM162.996 126.764H163.878V127.647H162.996V126.764ZM163.878 126.764H164.76V127.647H163.878V126.764ZM164.76 126.764H165.643V127.647H164.76V126.764ZM165.643 127.647H166.525V128.529H165.643V127.647ZM164.76 127.647H165.643V128.529H164.76V127.647ZM164.76 128.529H165.643V129.411H164.76V128.529ZM166.525 127.647H167.407V128.529H166.525V127.647ZM166.525 128.529H167.407V129.411H166.525V128.529ZM165.643 128.529H166.525V129.411H165.643V128.529ZM164.76 129.411H165.643V130.294H164.76V129.411ZM163.878 129.411H164.76V130.294H163.878V129.411ZM165.643 129.411H166.525V130.294H165.643V129.411ZM166.525 129.411H167.407V130.294H166.525V129.411ZM167.407 129.411H168.29V130.294H167.407V129.411ZM167.407 130.294H168.29V131.176H167.407V130.294ZM167.407 131.176H168.29V132.058H167.407V131.176ZM167.407 132.058H168.29V132.941H167.407V132.058ZM167.407 132.941H168.29V133.823H167.407V132.941ZM167.407 133.823H168.29V134.705H167.407V133.823ZM167.407 134.705H168.29V135.588H167.407V134.705ZM167.407 135.588H168.29V136.47H167.407V135.588ZM167.407 136.47H168.29V137.352H167.407V136.47ZM166.525 136.47H167.407V137.352H166.525V136.47ZM166.525 137.352H167.407V138.235H166.525V137.352ZM166.525 138.235H167.407V139.117H166.525V138.235ZM165.643 138.235H166.525V139.117H165.643V138.235ZM164.76 138.235H165.643V139.117H164.76V138.235ZM163.878 137.352H164.76V138.235H163.878V137.352ZM163.878 136.47H164.76V137.352H163.878V136.47ZM164.76 136.47H165.643V137.352H164.76V136.47ZM164.76 137.352H165.643V138.235H164.76V137.352ZM165.643 137.352H166.525V138.235H165.643V137.352ZM165.643 136.47H166.525V137.352H165.643V136.47ZM165.643 135.588H166.525V136.47H165.643V135.588ZM164.76 135.588H165.643V136.47H164.76V135.588ZM164.76 134.705H165.643V135.588H164.76V134.705ZM164.76 133.823H165.643V134.705H164.76V133.823ZM164.76 132.941H165.643V133.823H164.76V132.941ZM164.76 132.058H165.643V132.941H164.76V132.058ZM164.76 131.176H165.643V132.058H164.76V131.176ZM164.76 130.294H165.643V131.176H164.76V130.294ZM165.643 130.294H166.525V131.176H165.643V130.294ZM165.643 131.176H166.525V132.058H165.643V131.176ZM165.643 132.058H166.525V132.941H165.643V132.058ZM165.643 132.941H166.525V133.823H165.643V132.941ZM165.643 133.823H166.525V134.705H165.643V133.823ZM165.643 134.705H166.525V135.588H165.643V134.705ZM166.525 135.588H167.407V136.47H166.525V135.588ZM166.525 134.705H167.407V135.588H166.525V134.705ZM166.525 133.823H167.407V134.705H166.525V133.823ZM166.525 132.941H167.407V133.823H166.525V132.941ZM166.525 132.058H167.407V132.941H166.525V132.058ZM166.525 131.176H167.407V132.058H166.525V131.176ZM166.525 130.294H167.407V131.176H166.525V130.294ZM163.878 138.235H164.76V139.117H163.878V138.235ZM163.878 139.117H164.76V140H163.878V139.117ZM164.76 139.117H165.643V140H164.76V139.117ZM162.996 139.117H163.878V140H162.996V139.117ZM162.113 139.117H162.996V140H162.113V139.117ZM161.231 139.117H162.113V140H161.231V139.117ZM160.348 139.117H161.231V140H160.348V139.117ZM159.466 139.117H160.348V140H159.466V139.117ZM159.466 138.235H160.348V139.117H159.466V138.235ZM158.584 138.235H159.466V139.117H158.584V138.235ZM157.701 138.235H158.584V139.117H157.701V138.235ZM157.701 131.176H158.584V132.058H157.701V131.176ZM157.701 130.294H158.584V131.176H157.701V130.294ZM156.819 129.411H157.701V130.294H156.819V129.411ZM157.701 128.529H158.584V129.411H157.701V128.529ZM158.584 127.647H159.466V128.529H158.584V127.647ZM159.466 127.647H160.348V128.529H159.466V127.647ZM160.348 127.647H161.231V128.529H160.348V127.647ZM160.348 128.529H161.231V129.411H160.348V128.529ZM160.348 129.411H161.231V130.294H160.348V129.411ZM159.466 129.411H160.348V130.294H159.466V129.411ZM158.584 129.411H159.466V130.294H158.584V129.411ZM159.466 130.294H160.348V131.176H159.466V130.294ZM159.466 131.176H160.348V132.058H159.466V131.176ZM159.466 132.058H160.348V132.941H159.466V132.058ZM160.348 137.352H161.231V138.235H160.348V137.352ZM161.231 137.352H162.113V138.235H161.231V137.352ZM162.113 137.352H162.996V138.235H162.113V137.352ZM162.996 137.352H163.878V138.235H162.996V137.352ZM162.996 138.235H163.878V139.117H162.996V138.235ZM162.113 138.235H162.996V139.117H162.113V138.235ZM161.231 138.235H162.113V139.117H161.231V138.235ZM160.348 138.235H161.231V139.117H160.348V138.235ZM159.466 137.352H160.348V138.235H159.466V137.352ZM158.584 137.352H159.466V138.235H158.584V137.352ZM158.584 131.176H159.466V132.058H158.584V131.176ZM158.584 130.294H159.466V131.176H158.584V130.294ZM158.584 128.529H159.466V129.411H158.584V128.529ZM159.466 128.529H160.348V129.411H159.466V128.529ZM161.231 127.647H162.113V128.529H161.231V127.647ZM162.113 127.647H162.996V128.529H162.113V127.647ZM162.996 127.647H163.878V128.529H162.996V127.647ZM163.878 127.647H164.76V128.529H163.878V127.647ZM163.878 128.529H164.76V129.411H163.878V128.529ZM162.996 128.529H163.878V129.411H162.996V128.529ZM162.113 128.529H162.996V129.411H162.113V128.529ZM161.231 128.529H162.113V129.411H161.231V128.529ZM157.701 127.647H158.584V128.529H157.701V127.647ZM157.701 137.352H158.584V138.235H157.701V137.352ZM157.701 129.411H158.584V130.294H157.701V129.411ZM156.819 130.294H157.701V131.176H156.819V130.294ZM156.819 131.176H157.701V132.058H156.819V131.176ZM156.819 136.47H157.701V137.352H156.819V136.47ZM157.701 136.47H158.584V137.352H157.701V136.47ZM158.584 136.47H159.466V137.352H158.584V136.47ZM159.466 136.47H160.348V137.352H159.466V136.47ZM158.584 132.058H159.466V132.941H158.584V132.058ZM157.701 132.058H158.584V132.941H157.701V132.058ZM156.819 132.058H157.701V132.941H156.819V132.058ZM156.819 132.941H157.701V133.823H156.819V132.941ZM156.819 133.823H157.701V134.705H156.819V133.823ZM156.819 134.705H157.701V135.588H156.819V134.705ZM157.701 134.705H158.584V135.588H157.701V134.705ZM157.701 135.588H158.584V136.47H157.701V135.588ZM158.584 135.588H159.466V136.47H158.584V135.588ZM156.819 135.588H157.701V136.47H156.819V135.588ZM159.466 135.588H160.348V136.47H159.466V135.588ZM159.466 134.705H160.348V135.588H159.466V134.705ZM159.466 133.823H160.348V134.705H159.466V133.823ZM159.466 132.941H160.348V133.823H159.466V132.941ZM158.584 132.941H159.466V133.823H158.584V132.941ZM157.701 132.941H158.584V133.823H157.701V132.941ZM157.701 133.823H158.584V134.705H157.701V133.823ZM158.584 134.705H159.466V135.588H158.584V134.705ZM158.584 133.823H159.466V134.705H158.584V133.823ZM156.819 140H157.701V140.882H156.819V140ZM157.701 140H158.584V140.882H157.701V140ZM158.584 140H159.466V140.882H158.584V140ZM159.466 140H160.348V140.882H159.466V140ZM159.466 140.882H160.348V141.764H159.466V140.882ZM159.466 141.764H160.348V142.647H159.466V141.764ZM158.584 141.764H159.466V142.647H158.584V141.764ZM157.701 141.764H158.584V142.647H157.701V141.764ZM157.701 140.882H158.584V141.764H157.701V140.882ZM156.819 140.882H157.701V141.764H156.819V140.882ZM158.584 140.882H159.466V141.764H158.584V140.882ZM156.819 141.764H157.701V142.647H156.819V141.764ZM156.819 142.647H157.701V143.529H156.819V142.647ZM157.701 142.647H158.584V143.529H157.701V142.647ZM158.584 142.647H159.466V143.529H158.584V142.647ZM159.466 142.647H160.348V143.529H159.466V142.647ZM159.466 143.529H160.348V144.411H159.466V143.529ZM158.584 143.529H159.466V144.411H158.584V143.529ZM157.701 143.529H158.584V144.411H157.701V143.529ZM156.819 143.529H157.701V144.411H156.819V143.529ZM171.54 126.764H172.423V127.647H171.54V126.764ZM172.423 126.764H173.305V127.647H172.423V126.764ZM173.305 126.764H174.187V127.647H173.305V126.764ZM171.54 128.529H172.423V129.411H171.54V128.529ZM171.54 127.647H172.423V128.529H171.54V127.647ZM173.305 139.117H174.187V140H173.305V139.117ZM172.423 139.117H173.305V140H172.423V139.117ZM171.54 138.235H172.423V139.117H171.54V138.235ZM171.54 137.352H172.423V138.235H171.54V137.352ZM171.54 139.117H172.423V140H171.54V139.117ZM175.952 126.764H176.834V127.647H175.952V126.764ZM174.187 126.764H175.07V127.647H174.187V126.764ZM176.834 126.764H177.717V127.647H176.834V126.764ZM177.717 126.764H178.599V127.647H177.717V126.764ZM178.599 126.764H179.481V127.647H178.599V126.764ZM179.481 126.764H180.364V127.647H179.481V126.764ZM180.364 127.647H181.246V128.529H180.364V127.647ZM179.481 127.647H180.364V128.529H179.481V127.647ZM179.481 128.529H180.364V129.411H179.481V128.529ZM181.246 127.647H182.128V128.529H181.246V127.647ZM181.246 128.529H182.128V129.411H181.246V128.529ZM180.364 128.529H181.246V129.411H180.364V128.529ZM179.481 129.411H180.364V130.294H179.481V129.411ZM178.599 129.411H179.481V130.294H178.599V129.411ZM180.364 129.411H181.246V130.294H180.364V129.411ZM181.246 129.411H182.128V130.294H181.246V129.411ZM182.128 129.411H183.011V130.294H182.128V129.411ZM182.128 130.294H183.011V131.176H182.128V130.294ZM182.128 131.176H183.011V132.058H182.128V131.176ZM182.128 132.058H183.011V132.941H182.128V132.058ZM182.128 132.941H183.011V133.823H182.128V132.941ZM182.128 133.823H183.011V134.705H182.128V133.823ZM182.128 134.705H183.011V135.588H182.128V134.705ZM182.128 135.588H183.011V136.47H182.128V135.588ZM182.128 136.47H183.011V137.352H182.128V136.47ZM181.246 136.47H182.128V137.352H181.246V136.47ZM181.246 137.352H182.128V138.235H181.246V137.352ZM181.246 138.235H182.128V139.117H181.246V138.235ZM180.364 138.235H181.246V139.117H180.364V138.235ZM179.481 138.235H180.364V139.117H179.481V138.235ZM178.599 137.352H179.481V138.235H178.599V137.352ZM178.599 136.47H179.481V137.352H178.599V136.47ZM179.481 136.47H180.364V137.352H179.481V136.47ZM179.481 137.352H180.364V138.235H179.481V137.352ZM180.364 137.352H181.246V138.235H180.364V137.352ZM180.364 136.47H181.246V137.352H180.364V136.47ZM180.364 135.588H181.246V136.47H180.364V135.588ZM179.481 135.588H180.364V136.47H179.481V135.588ZM179.481 134.705H180.364V135.588H179.481V134.705ZM179.481 133.823H180.364V134.705H179.481V133.823ZM179.481 132.941H180.364V133.823H179.481V132.941ZM179.481 132.058H180.364V132.941H179.481V132.058ZM179.481 131.176H180.364V132.058H179.481V131.176ZM179.481 130.294H180.364V131.176H179.481V130.294ZM180.364 130.294H181.246V131.176H180.364V130.294ZM180.364 131.176H181.246V132.058H180.364V131.176ZM180.364 132.058H181.246V132.941H180.364V132.058ZM180.364 132.941H181.246V133.823H180.364V132.941ZM180.364 133.823H181.246V134.705H180.364V133.823ZM180.364 134.705H181.246V135.588H180.364V134.705ZM181.246 135.588H182.128V136.47H181.246V135.588ZM181.246 134.705H182.128V135.588H181.246V134.705ZM181.246 133.823H182.128V134.705H181.246V133.823ZM181.246 132.941H182.128V133.823H181.246V132.941ZM181.246 132.058H182.128V132.941H181.246V132.058ZM181.246 131.176H182.128V132.058H181.246V131.176ZM181.246 130.294H182.128V131.176H181.246V130.294ZM178.599 138.235H179.481V139.117H178.599V138.235ZM178.599 139.117H179.481V140H178.599V139.117ZM179.481 139.117H180.364V140H179.481V139.117ZM177.717 139.117H178.599V140H177.717V139.117ZM176.834 139.117H177.717V140H176.834V139.117ZM175.952 139.117H176.834V140H175.952V139.117ZM175.07 139.117H175.952V140H175.07V139.117ZM174.187 139.117H175.07V140H174.187V139.117ZM174.187 138.235H175.07V139.117H174.187V138.235ZM173.305 138.235H174.187V139.117H173.305V138.235ZM172.423 138.235H173.305V139.117H172.423V138.235ZM172.423 131.176H173.305V132.058H172.423V131.176ZM172.423 130.294H173.305V131.176H172.423V130.294ZM171.54 129.411H172.423V130.294H171.54V129.411ZM172.423 128.529H173.305V129.411H172.423V128.529ZM173.305 127.647H174.187V128.529H173.305V127.647ZM174.187 127.647H175.07V128.529H174.187V127.647ZM175.07 127.647H175.952V128.529H175.07V127.647ZM175.07 128.529H175.952V129.411H175.07V128.529ZM175.07 129.411H175.952V130.294H175.07V129.411ZM174.187 129.411H175.07V130.294H174.187V129.411ZM173.305 129.411H174.187V130.294H173.305V129.411ZM174.187 130.294H175.07V131.176H174.187V130.294ZM174.187 131.176H175.07V132.058H174.187V131.176ZM174.187 132.058H175.07V132.941H174.187V132.058ZM175.07 137.352H175.952V138.235H175.07V137.352ZM175.952 137.352H176.834V138.235H175.952V137.352ZM176.834 137.352H177.717V138.235H176.834V137.352ZM177.717 137.352H178.599V138.235H177.717V137.352ZM177.717 138.235H178.599V139.117H177.717V138.235ZM176.834 138.235H177.717V139.117H176.834V138.235ZM175.952 138.235H176.834V139.117H175.952V138.235ZM175.07 138.235H175.952V139.117H175.07V138.235ZM174.187 137.352H175.07V138.235H174.187V137.352ZM173.305 137.352H174.187V138.235H173.305V137.352ZM173.305 131.176H174.187V132.058H173.305V131.176ZM173.305 130.294H174.187V131.176H173.305V130.294ZM173.305 128.529H174.187V129.411H173.305V128.529ZM174.187 128.529H175.07V129.411H174.187V128.529ZM175.952 127.647H176.834V128.529H175.952V127.647ZM176.834 127.647H177.717V128.529H176.834V127.647ZM177.717 127.647H178.599V128.529H177.717V127.647ZM178.599 127.647H179.481V128.529H178.599V127.647ZM178.599 128.529H179.481V129.411H178.599V128.529ZM177.717 128.529H178.599V129.411H177.717V128.529ZM176.834 128.529H177.717V129.411H176.834V128.529ZM175.952 128.529H176.834V129.411H175.952V128.529ZM172.423 127.647H173.305V128.529H172.423V127.647ZM172.423 137.352H173.305V138.235H172.423V137.352ZM172.423 129.411H173.305V130.294H172.423V129.411ZM171.54 130.294H172.423V131.176H171.54V130.294ZM171.54 131.176H172.423V132.058H171.54V131.176ZM171.54 136.47H172.423V137.352H171.54V136.47ZM172.423 136.47H173.305V137.352H172.423V136.47ZM173.305 136.47H174.187V137.352H173.305V136.47ZM174.187 136.47H175.07V137.352H174.187V136.47ZM173.305 132.058H174.187V132.941H173.305V132.058ZM172.423 132.058H173.305V132.941H172.423V132.058ZM171.54 132.058H172.423V132.941H171.54V132.058ZM171.54 132.941H172.423V133.823H171.54V132.941ZM171.54 133.823H172.423V134.705H171.54V133.823ZM171.54 134.705H172.423V135.588H171.54V134.705ZM172.423 134.705H173.305V135.588H172.423V134.705ZM172.423 135.588H173.305V136.47H172.423V135.588ZM173.305 135.588H174.187V136.47H173.305V135.588ZM171.54 135.588H172.423V136.47H171.54V135.588ZM174.187 135.588H175.07V136.47H174.187V135.588ZM174.187 134.705H175.07V135.588H174.187V134.705ZM174.187 133.823H175.07V134.705H174.187V133.823ZM174.187 132.941H175.07V133.823H174.187V132.941ZM173.305 132.941H174.187V133.823H173.305V132.941ZM172.423 132.941H173.305V133.823H172.423V132.941ZM172.423 133.823H173.305V134.705H172.423V133.823ZM173.305 134.705H174.187V135.588H173.305V134.705ZM173.305 133.823H174.187V134.705H173.305V133.823ZM171.54 140H172.423V140.882H171.54V140ZM172.423 140H173.305V140.882H172.423V140ZM173.305 140H174.187V140.882H173.305V140ZM174.187 140H175.07V140.882H174.187V140ZM174.187 140.882H175.07V141.764H174.187V140.882ZM174.187 141.764H175.07V142.647H174.187V141.764ZM173.305 141.764H174.187V142.647H173.305V141.764ZM172.423 141.764H173.305V142.647H172.423V141.764ZM172.423 140.882H173.305V141.764H172.423V140.882ZM171.54 140.882H172.423V141.764H171.54V140.882ZM173.305 140.882H174.187V141.764H173.305V140.882ZM171.54 141.764H172.423V142.647H171.54V141.764ZM171.54 142.647H172.423V143.529H171.54V142.647ZM172.423 142.647H173.305V143.529H172.423V142.647ZM173.305 142.647H174.187V143.529H173.305V142.647ZM174.187 142.647H175.07V143.529H174.187V142.647ZM174.187 143.529H175.07V144.411H174.187V143.529ZM173.305 143.529H174.187V144.411H173.305V143.529ZM172.423 143.529H173.305V144.411H172.423V143.529ZM171.54 143.529H172.423V144.411H171.54V143.529ZM186.261 126.764H187.144V127.647H186.261V126.764ZM187.144 126.764H188.026V127.647H187.144V126.764ZM188.026 126.764H188.908V127.647H188.026V126.764ZM188.908 126.764H189.791V127.647H188.908V126.764ZM188.908 127.647H189.791V128.529H188.908V127.647ZM188.908 128.529H189.791V129.411H188.908V128.529ZM188.908 129.411H189.791V130.294H188.908V129.411ZM188.908 130.294H189.791V131.176H188.908V130.294ZM188.908 131.176H189.791V132.058H188.908V131.176ZM188.908 132.058H189.791V132.941H188.908V132.058ZM188.908 132.941H189.791V133.823H188.908V132.941ZM188.908 133.823H189.791V134.705H188.908V133.823ZM188.908 134.705H189.791V135.588H188.908V134.705ZM188.026 134.705H188.908V135.588H188.026V134.705ZM187.144 134.705H188.026V135.588H187.144V134.705ZM186.261 134.705H187.144V135.588H186.261V134.705ZM186.261 133.823H187.144V134.705H186.261V133.823ZM186.261 132.941H187.144V133.823H186.261V132.941ZM186.261 132.058H187.144V132.941H186.261V132.058ZM186.261 131.176H187.144V132.058H186.261V131.176ZM186.261 130.294H187.144V131.176H186.261V130.294ZM186.261 129.411H187.144V130.294H186.261V129.411ZM186.261 128.529H187.144V129.411H186.261V128.529ZM186.261 127.647H187.144V128.529H186.261V127.647ZM187.144 127.647H188.026V128.529H187.144V127.647ZM188.026 127.647H188.908V128.529H188.026V127.647ZM188.026 128.529H188.908V129.411H188.026V128.529ZM188.026 129.411H188.908V130.294H188.026V129.411ZM188.026 130.294H188.908V131.176H188.026V130.294ZM188.026 131.176H188.908V132.058H188.026V131.176ZM188.026 132.058H188.908V132.941H188.026V132.058ZM187.144 132.941H188.026V133.823H187.144V132.941ZM187.144 133.823H188.026V134.705H187.144V133.823ZM187.144 132.058H188.026V132.941H187.144V132.058ZM187.144 131.176H188.026V132.058H187.144V131.176ZM187.144 130.294H188.026V131.176H187.144V130.294ZM187.144 129.411H188.026V130.294H187.144V129.411ZM187.144 128.529H188.026V129.411H187.144V128.529ZM188.026 132.941H188.908V133.823H188.026V132.941ZM188.026 133.823H188.908V134.705H188.026V133.823ZM194.202 126.764H195.085V127.647H194.202V126.764ZM195.085 126.764H195.967V127.647H195.085V126.764ZM195.967 126.764H196.849V127.647H195.967V126.764ZM196.849 126.764H197.732V127.647H196.849V126.764ZM196.849 127.647H197.732V128.529H196.849V127.647ZM196.849 128.529H197.732V129.411H196.849V128.529ZM196.849 129.411H197.732V130.294H196.849V129.411ZM196.849 130.294H197.732V131.176H196.849V130.294ZM196.849 131.176H197.732V132.058H196.849V131.176ZM196.849 132.058H197.732V132.941H196.849V132.058ZM196.849 132.941H197.732V133.823H196.849V132.941ZM196.849 133.823H197.732V134.705H196.849V133.823ZM196.849 134.705H197.732V135.588H196.849V134.705ZM195.967 133.823H196.849V134.705H195.967V133.823ZM195.085 133.823H195.967V134.705H195.085V133.823ZM195.085 134.705H195.967V135.588H195.085V134.705ZM194.202 133.823H195.085V134.705H194.202V133.823ZM194.202 132.941H195.085V133.823H194.202V132.941ZM194.202 132.058H195.085V132.941H194.202V132.058ZM194.202 131.176H195.085V132.058H194.202V131.176ZM194.202 130.294H195.085V131.176H194.202V130.294ZM194.202 129.411H195.085V130.294H194.202V129.411ZM194.202 128.529H195.085V129.411H194.202V128.529ZM194.202 127.647H195.085V128.529H194.202V127.647ZM195.085 127.647H195.967V128.529H195.085V127.647ZM195.967 127.647H196.849V128.529H195.967V127.647ZM195.967 128.529H196.849V129.411H195.967V128.529ZM195.967 129.411H196.849V130.294H195.967V129.411ZM195.967 130.294H196.849V131.176H195.967V130.294ZM195.967 131.176H196.849V132.058H195.967V131.176ZM195.967 132.058H196.849V132.941H195.967V132.058ZM195.967 132.941H196.849V133.823H195.967V132.941ZM195.085 132.941H195.967V133.823H195.085V132.941ZM195.085 132.058H195.967V132.941H195.085V132.058ZM195.085 131.176H195.967V132.058H195.085V131.176ZM195.085 130.294H195.967V131.176H195.085V130.294ZM195.085 129.411H195.967V130.294H195.085V129.411ZM195.085 128.529H195.967V129.411H195.085V128.529ZM193.32 134.705H194.202V135.588H193.32V134.705ZM194.202 134.705H195.085V135.588H194.202V134.705ZM195.085 135.588H195.967V136.47H195.085V135.588ZM195.967 135.588H196.849V136.47H195.967V135.588ZM195.967 134.705H196.849V135.588H195.967V134.705ZM194.202 135.588H195.085V136.47H194.202V135.588ZM194.202 136.47H195.085V137.352H194.202V136.47ZM195.085 136.47H195.967V137.352H195.085V136.47ZM194.202 137.352H195.085V138.235H194.202V137.352ZM193.32 137.352H194.202V138.235H193.32V137.352ZM193.32 138.235H194.202V139.117H193.32V138.235ZM192.438 138.235H193.32V139.117H192.438V138.235ZM192.438 139.117H193.32V140H192.438V139.117ZM191.555 139.117H192.438V140H191.555V139.117ZM191.555 140H192.438V140.882H191.555V140ZM190.673 140H191.555V140.882H190.673V140ZM190.673 140.882H191.555V141.764H190.673V140.882ZM189.791 140.882H190.673V141.764H189.791V140.882ZM189.791 141.764H190.673V142.647H189.791V141.764ZM188.908 141.764H189.791V142.647H188.908V141.764ZM188.908 142.647H189.791V143.529H188.908V142.647ZM188.026 142.647H188.908V143.529H188.026V142.647ZM188.026 143.529H188.908V144.411H188.026V143.529ZM187.144 143.529H188.026V144.411H187.144V143.529ZM186.261 143.529H187.144V144.411H186.261V143.529ZM186.261 142.647H187.144V143.529H186.261V142.647ZM186.261 141.764H187.144V142.647H186.261V141.764ZM187.144 141.764H188.026V142.647H187.144V141.764ZM187.144 142.647H188.026V143.529H187.144V142.647ZM188.026 141.764H188.908V142.647H188.026V141.764ZM187.144 140.882H188.026V141.764H187.144V140.882ZM188.026 140.882H188.908V141.764H188.026V140.882ZM188.026 140H188.908V140.882H188.026V140ZM188.908 140H189.791V140.882H188.908V140ZM189.791 140H190.673V140.882H189.791V140ZM189.791 139.117H190.673V140H189.791V139.117ZM188.908 139.117H189.791V140H188.908V139.117ZM188.908 140.882H189.791V141.764H188.908V140.882ZM190.673 138.235H191.555V139.117H190.673V138.235ZM189.791 138.235H190.673V139.117H189.791V138.235ZM190.673 139.117H191.555V140H190.673V139.117ZM191.555 138.235H192.438V139.117H191.555V138.235ZM191.555 137.352H192.438V138.235H191.555V137.352ZM192.438 137.352H193.32V138.235H192.438V137.352ZM192.438 136.47H193.32V137.352H192.438V136.47ZM193.32 136.47H194.202V137.352H193.32V136.47ZM193.32 135.588H194.202V136.47H193.32V135.588ZM192.438 135.588H193.32V136.47H192.438V135.588ZM191.555 136.47H192.438V137.352H191.555V136.47ZM190.673 136.47H191.555V137.352H190.673V136.47ZM190.673 135.588H191.555V136.47H190.673V135.588ZM189.791 136.47H190.673V137.352H189.791V136.47ZM189.791 135.588H190.673V136.47H189.791V135.588ZM189.791 134.705H190.673V135.588H189.791V134.705ZM188.908 135.588H189.791V136.47H188.908V135.588ZM188.026 135.588H188.908V136.47H188.026V135.588ZM187.144 135.588H188.026V136.47H187.144V135.588ZM188.908 136.47H189.791V137.352H188.908V136.47ZM188.026 136.47H188.908V137.352H188.026V136.47ZM188.908 137.352H189.791V138.235H188.908V137.352ZM189.791 137.352H190.673V138.235H189.791V137.352ZM190.673 137.352H191.555V138.235H190.673V137.352ZM200.982 129.411H201.865V130.294H200.982V129.411ZM201.865 129.411H202.747V130.294H201.865V129.411ZM202.747 129.411H203.629V130.294H202.747V129.411ZM203.629 129.411H204.512V130.294H203.629V129.411ZM204.512 129.411H205.394V130.294H204.512V129.411ZM205.394 129.411H206.276V130.294H205.394V129.411ZM206.276 129.411H207.159V130.294H206.276V129.411ZM207.159 129.411H208.041V130.294H207.159V129.411ZM208.041 129.411H208.924V130.294H208.041V129.411ZM208.924 129.411H209.806V130.294H208.924V129.411ZM209.806 129.411H210.688V130.294H209.806V129.411ZM210.688 130.294H211.571V131.176H210.688V130.294ZM209.806 130.294H210.688V131.176H209.806V130.294ZM208.924 130.294H209.806V131.176H208.924V130.294ZM210.688 129.411H211.571V130.294H210.688V129.411ZM208.041 130.294H208.924V131.176H208.041V130.294ZM207.159 130.294H208.041V131.176H207.159V130.294ZM205.394 130.294H206.276V131.176H205.394V130.294ZM204.512 131.176H205.394V132.058H204.512V131.176ZM203.629 131.176H204.512V132.058H203.629V131.176ZM203.629 130.294H204.512V131.176H203.629V130.294ZM202.747 130.294H203.629V131.176H202.747V130.294ZM201.865 130.294H202.747V131.176H201.865V130.294ZM200.982 130.294H201.865V131.176H200.982V130.294ZM204.512 130.294H205.394V131.176H204.512V130.294ZM206.276 130.294H207.159V131.176H206.276V130.294ZM207.159 131.176H208.041V132.058H207.159V131.176ZM208.041 131.176H208.924V132.058H208.041V131.176ZM208.924 131.176H209.806V132.058H208.924V131.176ZM208.924 132.058H209.806V132.941H208.924V132.058ZM209.806 132.058H210.688V132.941H209.806V132.058ZM209.806 131.176H210.688V132.058H209.806V131.176ZM210.688 131.176H211.571V132.058H210.688V131.176ZM210.688 132.058H211.571V132.941H210.688V132.058ZM208.041 132.058H208.924V132.941H208.041V132.058ZM207.159 132.058H208.041V132.941H207.159V132.058ZM206.276 132.058H207.159V132.941H206.276V132.058ZM206.276 131.176H207.159V132.058H206.276V131.176ZM205.394 131.176H206.276V132.058H205.394V131.176ZM202.747 131.176H203.629V132.058H202.747V131.176ZM201.865 131.176H202.747V132.058H201.865V131.176ZM200.982 131.176H201.865V132.058H200.982V131.176ZM200.982 132.058H201.865V132.941H200.982V132.058ZM201.865 132.058H202.747V132.941H201.865V132.058ZM202.747 132.058H203.629V132.941H202.747V132.058ZM203.629 132.058H204.512V132.941H203.629V132.058ZM204.512 132.058H205.394V132.941H204.512V132.058ZM205.394 132.058H206.276V132.941H205.394V132.058ZM226.295 122.352V123.235H225.413V122.352H226.295ZM225.413 122.352V123.235H224.53V122.352H225.413ZM224.53 122.352V123.235H223.648V122.352H224.53ZM223.648 122.352V123.235H222.766V122.352H223.648ZM223.648 123.235V124.117H222.766V123.235H223.648ZM223.648 124.117V125H222.766V124.117H223.648ZM224.53 124.117V125H223.648V124.117H224.53ZM225.413 124.117V125H224.53V124.117H225.413ZM225.413 123.235V124.117H224.53V123.235H225.413ZM226.295 123.235V124.117H225.413V123.235H226.295ZM224.53 123.235V124.117H223.648V123.235H224.53ZM226.295 124.117V125H225.413V124.117H226.295ZM226.295 125V125.882H225.413V125H226.295ZM226.295 125.882V126.764H225.413V125.882H226.295ZM225.413 125.882V126.764H224.53V125.882H225.413ZM224.53 125.882V126.764H223.648V125.882H224.53ZM223.648 125.882V126.764H222.766V125.882H223.648ZM223.648 125V125.882H222.766V125H223.648ZM224.53 125V125.882H223.648V125H224.53ZM225.413 125V125.882H224.53V125H225.413ZM226.295 126.764V127.647H225.413V126.764H226.295ZM225.413 126.764V127.647H224.53V126.764H225.413ZM224.53 126.764V127.647H223.648V126.764H224.53ZM226.295 128.529V129.411H225.413V128.529H226.295ZM226.295 127.647V128.529H225.413V127.647H226.295ZM224.53 139.117V140H223.648V139.117H224.53ZM225.413 139.117V140H224.53V139.117H225.413ZM226.295 138.235V139.117H225.413V138.235H226.295ZM226.295 137.352V138.235H225.413V137.352H226.295ZM226.295 139.117V140H225.413V139.117H226.295ZM221.883 126.764V127.647H221.001V126.764H221.883ZM223.648 126.764V127.647H222.766V126.764H223.648ZM221.001 126.764V127.647H220.119V126.764H221.001ZM220.119 126.764V127.647H219.236V126.764H220.119ZM219.236 126.764V127.647H218.354V126.764H219.236ZM218.354 126.764V127.647H217.472V126.764H218.354ZM217.472 127.647V128.529H216.589V127.647H217.472ZM218.354 127.647V128.529H217.472V127.647H218.354ZM218.354 128.529V129.411H217.472V128.529H218.354ZM216.589 127.647V128.529H215.707V127.647H216.589ZM216.589 128.529V129.411H215.707V128.529H216.589ZM217.472 128.529V129.411H216.589V128.529H217.472ZM218.354 129.411V130.294H217.472V129.411H218.354ZM219.236 129.411V130.294H218.354V129.411H219.236ZM217.472 129.411V130.294H216.589V129.411H217.472ZM216.589 129.411V130.294H215.707V129.411H216.589ZM215.707 129.411V130.294H214.825V129.411H215.707ZM215.707 130.294V131.176H214.825V130.294H215.707ZM215.707 131.176V132.058H214.825V131.176H215.707ZM215.707 132.058V132.941H214.825V132.058H215.707ZM215.707 132.941V133.823H214.825V132.941H215.707ZM215.707 133.823V134.705H214.825V133.823H215.707ZM215.707 134.705V135.588H214.825V134.705H215.707ZM215.707 135.588V136.47H214.825V135.588H215.707ZM215.707 136.47V137.352H214.825V136.47H215.707ZM216.589 136.47V137.352H215.707V136.47H216.589ZM216.589 137.352V138.235H215.707V137.352H216.589ZM216.589 138.235V139.117H215.707V138.235H216.589ZM217.472 138.235V139.117H216.589V138.235H217.472ZM218.354 138.235V139.117H217.472V138.235H218.354ZM219.236 137.352V138.235H218.354V137.352H219.236ZM219.236 136.47V137.352H218.354V136.47H219.236ZM218.354 136.47V137.352H217.472V136.47H218.354ZM218.354 137.352V138.235H217.472V137.352H218.354ZM217.472 137.352V138.235H216.589V137.352H217.472ZM217.472 136.47V137.352H216.589V136.47H217.472ZM217.472 135.588V136.47H216.589V135.588H217.472ZM218.354 135.588V136.47H217.472V135.588H218.354ZM218.354 134.705V135.588H217.472V134.705H218.354ZM218.354 133.823V134.705H217.472V133.823H218.354ZM218.354 132.941V133.823H217.472V132.941H218.354ZM218.354 132.058V132.941H217.472V132.058H218.354ZM218.354 131.176V132.058H217.472V131.176H218.354ZM218.354 130.294V131.176H217.472V130.294H218.354ZM217.472 130.294V131.176H216.589V130.294H217.472ZM217.472 131.176V132.058H216.589V131.176H217.472ZM217.472 132.058V132.941H216.589V132.058H217.472ZM217.472 132.941V133.823H216.589V132.941H217.472ZM217.472 133.823V134.705H216.589V133.823H217.472ZM217.472 134.705V135.588H216.589V134.705H217.472ZM216.589 135.588V136.47H215.707V135.588H216.589ZM216.589 134.705V135.588H215.707V134.705H216.589ZM216.589 133.823V134.705H215.707V133.823H216.589ZM216.589 132.941V133.823H215.707V132.941H216.589ZM216.589 132.058V132.941H215.707V132.058H216.589ZM216.589 131.176V132.058H215.707V131.176H216.589ZM216.589 130.294V131.176H215.707V130.294H216.589ZM219.236 138.235V139.117H218.354V138.235H219.236ZM219.236 139.117V140H218.354V139.117H219.236ZM218.354 139.117V140H217.472V139.117H218.354ZM220.119 139.117V140H219.236V139.117H220.119ZM221.001 139.117V140H220.119V139.117H221.001ZM221.883 139.117V140H221.001V139.117H221.883ZM223.648 139.117V140H222.766V139.117H223.648ZM223.648 138.235V139.117H222.766V138.235H223.648ZM224.53 138.235V139.117H223.648V138.235H224.53ZM225.413 138.235V139.117H224.53V138.235H225.413ZM225.413 131.176V132.058H224.53V131.176H225.413ZM225.413 130.294V131.176H224.53V130.294H225.413ZM226.295 129.411V130.294H225.413V129.411H226.295ZM225.413 128.529V129.411H224.53V128.529H225.413ZM224.53 127.647V128.529H223.648V127.647H224.53ZM223.648 127.647V128.529H222.766V127.647H223.648ZM222.766 127.647V128.529H221.883V127.647H222.766ZM222.766 128.529V129.411H221.883V128.529H222.766ZM223.648 129.411V130.294H222.766V129.411H223.648ZM224.53 129.411V130.294H223.648V129.411H224.53ZM223.648 130.294V131.176H222.766V130.294H223.648ZM223.648 131.176V132.058H222.766V131.176H223.648ZM223.648 132.058V132.941H222.766V132.058H223.648ZM221.883 137.352V138.235H221.001V137.352H221.883ZM221.001 137.352V138.235H220.119V137.352H221.001ZM220.119 137.352V138.235H219.236V137.352H220.119ZM220.119 138.235V139.117H219.236V138.235H220.119ZM221.001 138.235V139.117H220.119V138.235H221.001ZM221.883 138.235V139.117H221.001V138.235H221.883ZM222.766 138.235V139.117H221.883V138.235H222.766ZM223.648 137.352V138.235H222.766V137.352H223.648ZM224.53 137.352V138.235H223.648V137.352H224.53ZM224.53 131.176V132.058H223.648V131.176H224.53ZM224.53 130.294V131.176H223.648V130.294H224.53ZM224.53 128.529V129.411H223.648V128.529H224.53ZM223.648 128.529V129.411H222.766V128.529H223.648ZM221.883 127.647V128.529H221.001V127.647H221.883ZM221.001 127.647V128.529H220.119V127.647H221.001ZM220.119 127.647V128.529H219.236V127.647H220.119ZM219.236 127.647V128.529H218.354V127.647H219.236ZM219.236 128.529V129.411H218.354V128.529H219.236ZM220.119 128.529V129.411H219.236V128.529H220.119ZM221.001 128.529V129.411H220.119V128.529H221.001ZM221.883 128.529V129.411H221.001V128.529H221.883ZM225.413 127.647V128.529H224.53V127.647H225.413ZM225.413 137.352V138.235H224.53V137.352H225.413ZM225.413 129.411V130.294H224.53V129.411H225.413ZM226.295 130.294V131.176H225.413V130.294H226.295ZM226.295 131.176V132.058H225.413V131.176H226.295ZM226.295 136.47V137.352H225.413V136.47H226.295ZM225.413 136.47V137.352H224.53V136.47H225.413ZM224.53 136.47V137.352H223.648V136.47H224.53ZM223.648 136.47V137.352H222.766V136.47H223.648ZM224.53 132.058V132.941H223.648V132.058H224.53ZM225.413 132.058V132.941H224.53V132.058H225.413ZM226.295 132.058V132.941H225.413V132.058H226.295ZM226.295 132.941V133.823H225.413V132.941H226.295ZM226.295 133.823V134.705H225.413V133.823H226.295ZM226.295 134.705V135.588H225.413V134.705H226.295ZM225.413 134.705V135.588H224.53V134.705H225.413ZM225.413 135.588V136.47H224.53V135.588H225.413ZM224.53 135.588V136.47H223.648V135.588H224.53ZM226.295 135.588V136.47H225.413V135.588H226.295ZM223.648 135.588V136.47H222.766V135.588H223.648ZM223.648 134.705V135.588H222.766V134.705H223.648ZM223.648 133.823V134.705H222.766V133.823H223.648ZM223.648 132.941V133.823H222.766V132.941H223.648ZM224.53 132.941V133.823H223.648V132.941H224.53ZM225.413 132.941V133.823H224.53V132.941H225.413ZM225.413 133.823V134.705H224.53V133.823H225.413ZM224.53 134.705V135.588H223.648V134.705H224.53ZM224.53 133.823V134.705H223.648V133.823H224.53ZM221.883 126.764H222.766V127.647H221.883V126.764ZM221.883 137.352H222.766V138.235H221.883V137.352ZM221.883 136.47H222.766V137.352H221.883V136.47ZM236.604 140H235.722V139.117H236.604V140ZM238.369 140H237.487V139.117H238.369V140ZM235.722 140H234.84V139.117H235.722V140ZM234.84 140H233.957V139.117H234.84V140ZM233.957 140H233.075V139.117H233.957V140ZM233.075 140H232.193V139.117H233.075V140ZM232.193 139.117H231.31V138.235H232.193V139.117ZM233.075 139.117H232.193V138.235H233.075V139.117ZM233.075 138.235H232.193V137.352H233.075V138.235ZM231.31 139.117H230.428V138.235H231.31V139.117ZM231.31 138.235H230.428V137.352H231.31V138.235ZM232.193 138.235H231.31V137.352H232.193V138.235ZM233.075 137.352H232.193V136.47H233.075V137.352ZM233.957 137.352H233.075V136.47H233.957V137.352ZM232.193 137.352H231.31V136.47H232.193V137.352ZM231.31 137.352H230.428V136.47H231.31V137.352ZM230.428 137.352H229.546V136.47H230.428V137.352ZM230.428 136.47H229.546V135.588H230.428V136.47ZM230.428 131.176H229.546V130.294H230.428V131.176ZM230.428 130.294H229.546V129.411H230.428V130.294ZM231.31 130.294H230.428V129.411H231.31V130.294ZM231.31 129.411H230.428V128.529H231.31V129.411ZM231.31 128.529H230.428V127.647H231.31V128.529ZM232.193 128.529H231.31V127.647H232.193V128.529ZM233.075 128.529H232.193V127.647H233.075V128.529ZM233.957 129.411H233.075V128.529H233.957V129.411ZM233.957 130.294H233.075V129.411H233.957V130.294ZM233.075 130.294H232.193V129.411H233.075V130.294ZM233.075 129.411H232.193V128.529H233.075V129.411ZM232.193 129.411H231.31V128.529H232.193V129.411ZM232.193 130.294H231.31V129.411H232.193V130.294ZM232.193 131.176H231.31V130.294H232.193V131.176ZM233.075 131.176H232.193V130.294H233.075V131.176ZM233.075 136.47H232.193V135.588H233.075V136.47ZM232.193 136.47H231.31V135.588H232.193V136.47ZM231.31 131.176H230.428V130.294H231.31V131.176ZM231.31 136.47H230.428V135.588H231.31V136.47ZM233.957 128.529H233.075V127.647H233.957V128.529ZM233.957 127.647H233.075V126.764H233.957V127.647ZM233.075 127.647H232.193V126.764H233.075V127.647ZM234.84 127.647H233.957V126.764H234.84V127.647ZM235.722 127.647H234.84V126.764H235.722V127.647ZM236.604 127.647H235.722V126.764H236.604V127.647ZM237.487 127.647H236.604V126.764H237.487V127.647ZM238.369 127.647H237.487V126.764H238.369V127.647ZM238.369 128.529H237.487V127.647H238.369V128.529ZM239.252 128.529H238.369V127.647H239.252V128.529ZM240.134 128.529H239.252V127.647H240.134V128.529ZM240.134 129.411H239.252V128.529H240.134V129.411ZM241.016 130.294H240.134V129.411H241.016V130.294ZM240.134 130.294H239.252V129.411H240.134V130.294ZM241.016 131.176H240.134V130.294H241.016V131.176ZM241.016 132.058H240.134V131.176H241.016V132.058ZM241.016 132.941H240.134V132.058H241.016V132.941ZM241.016 133.823H240.134V132.941H241.016V133.823ZM241.016 134.705H240.134V133.823H241.016V134.705ZM241.016 135.588H240.134V134.705H241.016V135.588ZM240.134 135.588H239.252V134.705H240.134V135.588ZM240.134 136.47H239.252V135.588H240.134V136.47ZM241.016 136.47H240.134V135.588H241.016V136.47ZM241.016 137.352H240.134V136.47H241.016V137.352ZM240.134 137.352H239.252V136.47H240.134V137.352ZM240.134 138.235H239.252V137.352H240.134V138.235ZM240.134 139.117H239.252V138.235H240.134V139.117ZM239.252 139.117H238.369V138.235H239.252V139.117ZM238.369 139.117H237.487V138.235H238.369V139.117ZM237.487 139.117H236.604V138.235H237.487V139.117ZM237.487 138.235H236.604V137.352H237.487V138.235ZM238.369 137.352H237.487V136.47H238.369V137.352ZM239.252 137.352H238.369V136.47H239.252V137.352ZM238.369 136.47H237.487V135.588H238.369V136.47ZM238.369 135.588H237.487V134.705H238.369V135.588ZM238.369 134.705H237.487V133.823H238.369V134.705ZM238.369 133.823H237.487V132.941H238.369V133.823ZM238.369 132.941H237.487V132.058H238.369V132.941ZM238.369 132.058H237.487V131.176H238.369V132.058ZM238.369 131.176H237.487V130.294H238.369V131.176ZM238.369 130.294H237.487V129.411H238.369V130.294ZM237.487 130.294H236.604V129.411H237.487V130.294ZM237.487 129.411H236.604V128.529H237.487V129.411ZM236.604 129.411H235.722V128.529H236.604V129.411ZM235.722 129.411H234.84V128.529H235.722V129.411ZM234.84 129.411H233.957V128.529H234.84V129.411ZM234.84 128.529H233.957V127.647H234.84V128.529ZM235.722 128.529H234.84V127.647H235.722V128.529ZM236.604 128.529H235.722V127.647H236.604V128.529ZM237.487 128.529H236.604V127.647H237.487V128.529ZM238.369 129.411H237.487V128.529H238.369V129.411ZM239.252 129.411H238.369V128.529H239.252V129.411ZM239.252 130.294H238.369V129.411H239.252V130.294ZM239.252 131.176H238.369V130.294H239.252V131.176ZM239.252 132.058H238.369V131.176H239.252V132.058ZM240.134 132.058H239.252V131.176H240.134V132.058ZM240.134 131.176H239.252V130.294H240.134V131.176ZM240.134 132.941H239.252V132.058H240.134V132.941ZM240.134 133.823H239.252V132.941H240.134V133.823ZM240.134 134.705H239.252V133.823H240.134V134.705ZM239.252 134.705H238.369V133.823H239.252V134.705ZM239.252 133.823H238.369V132.941H239.252V133.823ZM239.252 132.941H238.369V132.058H239.252V132.941ZM239.252 135.588H238.369V134.705H239.252V135.588ZM239.252 136.47H238.369V135.588H239.252V136.47ZM239.252 138.235H238.369V137.352H239.252V138.235ZM238.369 138.235H237.487V137.352H238.369V138.235ZM236.604 139.117H235.722V138.235H236.604V139.117ZM235.722 139.117H234.84V138.235H235.722V139.117ZM234.84 139.117H233.957V138.235H234.84V139.117ZM233.957 139.117H233.075V138.235H233.957V139.117ZM233.957 138.235H233.075V137.352H233.957V138.235ZM234.84 138.235H233.957V137.352H234.84V138.235ZM235.722 138.235H234.84V137.352H235.722V138.235ZM236.604 138.235H235.722V137.352H236.604V138.235ZM231.31 135.588H230.428V134.705H231.31V135.588ZM232.193 135.588H231.31V134.705H232.193V135.588ZM233.075 135.588H232.193V134.705H233.075V135.588ZM231.31 134.705H230.428V133.823H231.31V134.705ZM232.193 134.705H231.31V133.823H232.193V134.705ZM233.075 134.705H232.193V133.823H233.075V134.705ZM233.957 134.705H233.075V133.823H233.957V134.705ZM234.84 134.705H233.957V133.823H234.84V134.705ZM235.722 134.705H234.84V133.823H235.722V134.705ZM236.604 134.705H235.722V133.823H236.604V134.705ZM237.487 134.705H236.604V133.823H237.487V134.705ZM237.487 133.823H236.604V132.941H237.487V133.823ZM236.604 133.823H235.722V132.941H236.604V133.823ZM235.722 133.823H234.84V132.941H235.722V133.823ZM234.84 133.823H233.957V132.941H234.84V133.823ZM233.957 133.823H233.075V132.941H233.957V133.823ZM233.075 133.823H232.193V132.941H233.075V133.823ZM240.134 137.352H241.016V138.235H240.134V137.352ZM240.134 138.235H241.016V139.117H240.134V138.235ZM240.134 139.117H241.016V140H240.134V139.117ZM239.252 139.117H240.134V140H239.252V139.117ZM238.369 139.117H239.252V140H238.369V139.117ZM233.075 134.705H233.957V135.588H233.075V134.705ZM244.267 126.764H245.149V127.647H244.267V126.764ZM245.149 126.764H246.031V127.647H245.149V126.764ZM246.031 126.764H246.914V127.647H246.031V126.764ZM246.914 126.764H247.796V127.647H246.914V126.764ZM246.914 127.647H247.796V128.529H246.914V127.647ZM246.914 128.529H247.796V129.411H246.914V128.529ZM246.914 129.411H247.796V130.294H246.914V129.411ZM246.914 130.294H247.796V131.176H246.914V130.294ZM246.914 131.176H247.796V132.058H246.914V131.176ZM246.914 132.058H247.796V132.941H246.914V132.058ZM246.914 132.941H247.796V133.823H246.914V132.941ZM246.914 133.823H247.796V134.705H246.914V133.823ZM246.914 134.705H247.796V135.588H246.914V134.705ZM246.031 134.705H246.914V135.588H246.031V134.705ZM245.149 134.705H246.031V135.588H245.149V134.705ZM244.267 134.705H245.149V135.588H244.267V134.705ZM244.267 133.823H245.149V134.705H244.267V133.823ZM244.267 132.941H245.149V133.823H244.267V132.941ZM244.267 132.058H245.149V132.941H244.267V132.058ZM244.267 131.176H245.149V132.058H244.267V131.176ZM244.267 130.294H245.149V131.176H244.267V130.294ZM244.267 129.411H245.149V130.294H244.267V129.411ZM244.267 128.529H245.149V129.411H244.267V128.529ZM244.267 127.647H245.149V128.529H244.267V127.647ZM245.149 127.647H246.031V128.529H245.149V127.647ZM246.031 127.647H246.914V128.529H246.031V127.647ZM246.031 128.529H246.914V129.411H246.031V128.529ZM246.031 129.411H246.914V130.294H246.031V129.411ZM246.031 130.294H246.914V131.176H246.031V130.294ZM246.031 131.176H246.914V132.058H246.031V131.176ZM246.031 132.058H246.914V132.941H246.031V132.058ZM245.149 132.941H246.031V133.823H245.149V132.941ZM245.149 133.823H246.031V134.705H245.149V133.823ZM245.149 132.058H246.031V132.941H245.149V132.058ZM245.149 131.176H246.031V132.058H245.149V131.176ZM245.149 130.294H246.031V131.176H245.149V130.294ZM245.149 129.411H246.031V130.294H245.149V129.411ZM245.149 128.529H246.031V129.411H245.149V128.529ZM246.031 132.941H246.914V133.823H246.031V132.941ZM246.031 133.823H246.914V134.705H246.031V133.823ZM252.208 126.764H253.09V127.647H252.208V126.764ZM253.09 126.764H253.973V127.647H253.09V126.764ZM253.973 126.764H254.855V127.647H253.973V126.764ZM254.855 126.764H255.737V127.647H254.855V126.764ZM254.855 127.647H255.737V128.529H254.855V127.647ZM254.855 128.529H255.737V129.411H254.855V128.529ZM254.855 129.411H255.737V130.294H254.855V129.411ZM254.855 130.294H255.737V131.176H254.855V130.294ZM254.855 131.176H255.737V132.058H254.855V131.176ZM254.855 132.058H255.737V132.941H254.855V132.058ZM254.855 132.941H255.737V133.823H254.855V132.941ZM254.855 133.823H255.737V134.705H254.855V133.823ZM254.855 134.705H255.737V135.588H254.855V134.705ZM253.973 133.823H254.855V134.705H253.973V133.823ZM253.09 133.823H253.973V134.705H253.09V133.823ZM253.09 134.705H253.973V135.588H253.09V134.705ZM252.208 133.823H253.09V134.705H252.208V133.823ZM252.208 132.941H253.09V133.823H252.208V132.941ZM252.208 132.058H253.09V132.941H252.208V132.058ZM252.208 131.176H253.09V132.058H252.208V131.176ZM252.208 130.294H253.09V131.176H252.208V130.294ZM252.208 129.411H253.09V130.294H252.208V129.411ZM252.208 128.529H253.09V129.411H252.208V128.529ZM252.208 127.647H253.09V128.529H252.208V127.647ZM253.09 127.647H253.973V128.529H253.09V127.647ZM253.973 127.647H254.855V128.529H253.973V127.647ZM253.973 128.529H254.855V129.411H253.973V128.529ZM253.973 129.411H254.855V130.294H253.973V129.411ZM253.973 130.294H254.855V131.176H253.973V130.294ZM253.973 131.176H254.855V132.058H253.973V131.176ZM253.973 132.058H254.855V132.941H253.973V132.058ZM253.973 132.941H254.855V133.823H253.973V132.941ZM253.09 132.941H253.973V133.823H253.09V132.941ZM253.09 132.058H253.973V132.941H253.09V132.058ZM253.09 131.176H253.973V132.058H253.09V131.176ZM253.09 130.294H253.973V131.176H253.09V130.294ZM253.09 129.411H253.973V130.294H253.09V129.411ZM253.09 128.529H253.973V129.411H253.09V128.529ZM251.326 134.705H252.208V135.588H251.326V134.705ZM252.208 134.705H253.09V135.588H252.208V134.705ZM253.09 135.588H253.973V136.47H253.09V135.588ZM253.973 135.588H254.855V136.47H253.973V135.588ZM253.973 134.705H254.855V135.588H253.973V134.705ZM252.208 135.588H253.09V136.47H252.208V135.588ZM252.208 136.47H253.09V137.352H252.208V136.47ZM253.09 136.47H253.973V137.352H253.09V136.47ZM252.208 137.352H253.09V138.235H252.208V137.352ZM251.326 137.352H252.208V138.235H251.326V137.352ZM251.326 138.235H252.208V139.117H251.326V138.235ZM250.443 138.235H251.326V139.117H250.443V138.235ZM250.443 139.117H251.326V140H250.443V139.117ZM249.561 139.117H250.443V140H249.561V139.117ZM249.561 140H250.443V140.882H249.561V140ZM248.678 140H249.561V140.882H248.678V140ZM248.678 140.882H249.561V141.764H248.678V140.882ZM247.796 140.882H248.678V141.764H247.796V140.882ZM247.796 141.764H248.678V142.647H247.796V141.764ZM246.914 141.764H247.796V142.647H246.914V141.764ZM246.914 142.647H247.796V143.529H246.914V142.647ZM246.031 142.647H246.914V143.529H246.031V142.647ZM246.031 143.529H246.914V144.411H246.031V143.529ZM245.149 143.529H246.031V144.411H245.149V143.529ZM244.267 143.529H245.149V144.411H244.267V143.529ZM244.267 142.647H245.149V143.529H244.267V142.647ZM244.267 141.764H245.149V142.647H244.267V141.764ZM245.149 141.764H246.031V142.647H245.149V141.764ZM245.149 142.647H246.031V143.529H245.149V142.647ZM246.031 141.764H246.914V142.647H246.031V141.764ZM245.149 140.882H246.031V141.764H245.149V140.882ZM246.031 140.882H246.914V141.764H246.031V140.882ZM246.031 140H246.914V140.882H246.031V140ZM246.914 140H247.796V140.882H246.914V140ZM247.796 140H248.678V140.882H247.796V140ZM247.796 139.117H248.678V140H247.796V139.117ZM246.914 139.117H247.796V140H246.914V139.117ZM246.914 140.882H247.796V141.764H246.914V140.882ZM248.678 138.235H249.561V139.117H248.678V138.235ZM247.796 138.235H248.678V139.117H247.796V138.235ZM248.678 139.117H249.561V140H248.678V139.117ZM249.561 138.235H250.443V139.117H249.561V138.235ZM249.561 137.352H250.443V138.235H249.561V137.352ZM250.443 137.352H251.326V138.235H250.443V137.352ZM250.443 136.47H251.326V137.352H250.443V136.47ZM251.326 136.47H252.208V137.352H251.326V136.47ZM251.326 135.588H252.208V136.47H251.326V135.588ZM250.443 135.588H251.326V136.47H250.443V135.588ZM249.561 136.47H250.443V137.352H249.561V136.47ZM248.678 136.47H249.561V137.352H248.678V136.47ZM248.678 135.588H249.561V136.47H248.678V135.588ZM247.796 136.47H248.678V137.352H247.796V136.47ZM247.796 135.588H248.678V136.47H247.796V135.588ZM247.796 134.705H248.678V135.588H247.796V134.705ZM246.914 135.588H247.796V136.47H246.914V135.588ZM246.031 135.588H246.914V136.47H246.031V135.588ZM245.149 135.588H246.031V136.47H245.149V135.588ZM246.914 136.47H247.796V137.352H246.914V136.47ZM246.031 136.47H246.914V137.352H246.031V136.47ZM246.914 137.352H247.796V138.235H246.914V137.352ZM247.796 137.352H248.678V138.235H247.796V137.352ZM248.678 137.352H249.561V138.235H248.678V137.352Z" fill="#4F5A8E"/>
<path d="M248.352 12.1705C248.531 12.2129 248.655 12.268 248.724 12.3359C248.892 12.4956 249.025 12.69 249.125 12.9192C249.229 13.1323 249.24 13.409 249.159 13.7496C249.004 14.2608 248.716 14.5695 248.297 14.6755C247.935 14.7608 247.477 14.7379 246.926 14.6071C246.553 14.5186 246.286 14.3096 246.124 13.98C245.963 13.6505 245.932 13.2749 246.032 12.8532C246.147 12.3668 246.418 11.84 246.844 11.273C247.289 10.6936 247.691 10.2663 248.047 9.99121C248.303 9.77793 248.59 9.6148 248.908 9.50184C249.226 9.38888 249.483 9.35549 249.677 9.40167C250.05 9.49017 250.264 9.6008 250.318 9.73356C250.388 9.87016 250.385 10.1006 250.308 10.425C250.289 10.506 250.179 10.6084 249.978 10.7321C249.798 10.8434 249.687 10.9114 249.647 10.9362C249.334 11.1016 249.133 11.2253 249.045 11.3072C248.677 11.631 248.414 11.9111 248.255 12.1474L248.352 12.1705ZM252.56 13.1691C252.755 13.2153 252.887 13.2723 252.957 13.3402C253.12 13.5161 253.246 13.7087 253.333 13.9178C253.437 14.1308 253.448 14.4076 253.368 14.7482C253.212 15.2594 252.933 15.57 252.53 15.6799C252.167 15.7651 251.71 15.7423 251.159 15.6115C250.786 15.5229 250.518 15.3139 250.357 14.9844C250.195 14.6548 250.164 14.2792 250.264 13.8576C250.38 13.3711 250.65 12.8444 251.076 12.2773C251.522 11.698 251.923 11.2707 252.28 10.9956C252.552 10.7861 252.839 10.623 253.141 10.5062C253.443 10.3894 253.691 10.3541 253.885 10.4002C254.275 10.4926 254.496 10.6052 254.55 10.7379C254.621 10.8745 254.618 11.105 254.541 11.4293C254.51 11.559 254.271 11.7337 253.825 11.9533C253.745 12.0028 253.645 12.0646 253.524 12.1388C253.408 12.1968 253.317 12.2525 253.253 12.3058C252.929 12.5886 252.674 12.8706 252.487 13.1518L252.56 13.1691ZM268.859 16.2917C269.033 16.6413 269.148 16.9169 269.203 17.1184C269.258 17.3198 269.266 17.5016 269.228 17.6638C269.181 17.8584 268.998 18.0546 268.677 18.2525C268.372 18.4543 268.098 18.5263 267.855 18.4686C267.53 18.3916 267.282 18.2814 267.111 18.1379C266.939 17.9944 266.814 17.8019 266.734 17.5603C266.567 17.1095 266.33 16.7021 266.022 16.3379C265.718 15.9575 265.169 15.673 264.375 15.4844C263.694 15.3228 262.879 15.2922 261.93 15.3925C260.997 15.4966 260.291 15.7315 259.81 16.097C259.389 16.4255 258.959 16.9744 258.52 17.7437C258.097 18.5168 257.793 19.2926 257.608 20.071C257.385 21.0116 257.381 21.9272 257.598 22.818C257.835 23.6965 258.287 24.4632 258.954 25.1182C259.637 25.777 260.53 26.2372 261.632 26.4989C262.232 26.6413 262.876 26.674 263.562 26.5971C264.268 26.5077 264.92 26.2513 265.517 25.8278L265.493 25.822C265.858 25.5831 266.26 25.5157 266.697 25.6196C266.957 25.6811 267.173 25.8524 267.346 26.1333C267.536 26.418 267.603 26.6739 267.55 26.9009C267.492 27.1442 267.399 27.3535 267.272 27.5288C267.165 27.6918 266.987 27.8638 266.739 28.0446C265.897 28.6328 264.989 28.957 264.015 29.0171C263.042 29.0773 261.923 28.9573 260.658 28.6572C259.539 28.3917 258.467 27.8547 257.443 27.0464C256.435 26.2419 255.713 25.3854 255.278 24.477C255.065 23.9298 254.908 23.1818 254.808 22.233C254.728 21.2718 254.753 20.5156 254.884 19.9642C255.219 18.5534 255.747 17.2656 256.469 16.1007C257.211 14.9235 258.102 14.0558 259.142 13.4976C259.833 13.1134 260.744 12.9185 261.876 12.913C263.008 12.9075 264.02 13.0106 264.911 13.2223C265.998 13.4801 266.813 13.8362 267.356 14.2905C267.919 14.7325 268.42 15.3996 268.859 16.2917ZM280.926 25.1675C281.001 25.4253 281.028 25.7827 281.005 26.2398C280.986 26.6807 280.936 27.0714 280.856 27.4119C280.705 28.0444 280.354 28.9117 279.801 30.0138C278.198 31.7916 276.301 32.4207 274.112 31.9012C273.301 31.7088 272.537 31.245 271.821 30.5097C271.105 29.7745 270.667 29.0197 270.509 28.2455C270.402 26.747 270.392 25.8112 270.481 25.4382C270.635 24.7896 270.936 24.1331 271.385 23.4688C271.85 22.8083 272.365 22.2625 272.93 21.8312C273.294 21.5237 273.864 21.3248 274.639 21.2347C275.418 21.1283 276.099 21.1444 276.683 21.2829C277.818 21.5523 278.731 22.0002 279.422 22.6266C280.116 23.2368 280.618 24.0837 280.926 25.1675ZM277.88 28.5815C278.011 28.39 278.181 27.8563 278.388 26.9807C278.5 26.5104 278.521 26.0271 278.45 25.5307C278.395 25.0381 278.245 24.5912 277.997 24.1899C277.972 24.1498 277.895 24.08 277.764 23.9805C277.638 23.8648 277.452 23.7437 277.208 23.6173C276.984 23.4785 276.71 23.3706 276.386 23.2936C275.477 23.0781 274.726 23.2852 274.131 23.9149C273.536 24.5446 273.129 25.3216 272.91 26.2459C272.872 26.4081 272.839 26.7258 272.812 27.1991C272.802 27.6763 272.816 27.9793 272.854 28.1082C272.875 28.2333 272.958 28.4243 273.103 28.6813C273.268 28.9259 273.477 29.1639 273.73 29.3953C274.004 29.6144 274.302 29.7624 274.627 29.8394C275.356 30.0125 275.981 29.9808 276.499 29.7442C277.022 29.4913 277.482 29.1038 277.88 28.5815ZM297.925 36.5499C297.789 36.0381 297.755 35.4989 297.821 34.9321C297.89 34.3492 298.043 33.5631 298.277 32.5739C298.501 31.6333 298.565 30.7836 298.471 30.0247C298.377 29.2659 297.925 28.7902 297.114 28.5978C296.806 28.5247 296.475 28.5489 296.12 28.6704C295.786 28.7795 295.513 28.9546 295.302 29.1956C294.971 29.5796 294.703 30.0214 294.499 30.5211C294.299 31.0046 294.12 31.5787 293.962 32.2436C293.862 32.6652 293.784 33.1007 293.729 33.5501C293.698 33.6798 293.656 33.8926 293.603 34.1883C293.57 34.4717 293.527 34.7269 293.473 34.9539C293.242 35.9269 292.786 36.3326 292.105 36.171C291.213 35.9593 290.855 35.3775 291.029 34.4254C291.187 33.7605 291.28 33.4057 291.307 33.3609L291.556 32.3149C291.694 31.7311 291.804 31.1578 291.887 30.5949C291.969 30.032 292.01 29.605 292.011 29.3139C291.992 28.7441 291.895 28.2844 291.721 27.9348C291.564 27.5891 291.233 27.3565 290.731 27.2372C290.017 27.0679 289.368 27.2394 288.784 27.7517C288.361 28.1651 288.018 28.7089 287.755 29.3831C287.446 30.2519 287.205 30.94 287.034 31.4474C286.882 31.9424 286.727 32.5224 286.569 33.1872C286.458 33.6575 286.286 34.0194 286.055 34.2728C285.84 34.53 285.521 34.6086 285.1 34.5086C284.792 34.4355 284.486 34.2774 284.184 34.0345C283.902 33.7791 283.796 33.5055 283.865 33.2136C283.938 32.9055 284.044 32.6051 284.182 32.3124C284.547 31.4227 285.013 29.7859 285.578 27.4021C285.671 27.0129 285.662 26.6168 285.552 26.2139C285.462 25.7986 285.287 25.5602 285.028 25.4986C284.963 25.4832 284.834 25.4868 284.64 25.5093C284.462 25.5357 284.333 25.5393 284.252 25.52C284.041 25.47 283.87 25.3265 283.738 25.0896C283.622 24.8565 283.579 24.6751 283.61 24.5454C283.706 24.14 283.981 23.8456 284.436 23.6623C284.911 23.4666 285.367 23.4207 285.805 23.5246C286.405 23.667 286.871 23.9747 287.204 24.4477C287.538 24.9207 287.739 25.5166 287.808 26.2354C288.335 25.6752 288.961 25.2756 289.686 25.0365C290.414 24.7811 291.168 24.7458 291.946 24.9305C292.433 25.046 292.806 25.2032 293.067 25.4022C293.349 25.5888 293.56 25.8187 293.7 26.092C293.845 26.3489 294.019 26.7329 294.223 27.2439C294.752 26.8212 295.367 26.5389 296.069 26.3971C296.787 26.2591 297.486 26.2709 298.167 26.4325C298.978 26.6249 299.629 27.1305 300.12 27.9493C300.615 28.7519 300.874 29.6099 300.897 30.5232C300.906 30.988 300.763 31.8447 300.467 33.0934L300.229 34.5273C300.11 35.3898 300.265 35.966 300.693 36.256C301.205 36.549 301.441 36.7847 301.398 36.9631C301.306 37.3522 301.141 37.6129 300.904 37.7451C300.735 37.8078 300.508 37.8651 300.221 37.9171C299.935 37.969 299.719 37.9777 299.573 37.943C298.697 37.7352 298.148 37.2709 297.925 36.5499ZM305.014 30.3697C304.906 30.1042 304.838 29.8826 304.812 29.7051C304.785 29.5275 304.801 29.3171 304.859 29.0739C304.92 28.8144 305.078 28.6205 305.331 28.4922C305.6 28.3676 305.905 28.3458 306.246 28.4266C306.586 28.5074 306.896 28.718 307.175 29.0582C307.458 29.3823 307.658 29.7639 307.777 30.2031C308.233 29.7975 308.778 29.5585 309.412 29.4862C310.045 29.4139 310.703 29.4586 311.384 29.6202C312.13 29.7972 312.765 30.1878 313.29 30.7919C313.831 31.3999 314.203 32.1049 314.407 32.9069C314.61 33.709 314.628 34.4667 314.458 35.1803C314.293 35.8776 314.072 36.4846 313.795 37.0013C313.522 37.5018 313.134 37.9835 312.63 38.4463C312.07 38.9301 311.389 39.2738 310.587 39.4774C309.801 39.6849 308.921 39.6732 307.948 39.4424C307.689 39.3808 307.388 39.2409 307.046 39.0226C306.708 38.7882 306.436 38.561 306.231 38.3411C305.856 39.4169 305.572 40.3602 305.38 41.171C305.264 41.6575 305.179 42.1255 305.124 42.5748C305.033 43.1015 304.961 43.4783 304.907 43.7053C304.822 44.0621 304.639 44.2927 304.357 44.3971C304.072 44.5178 303.783 44.5435 303.491 44.4742C302.907 44.3357 302.557 44.0812 302.439 43.7106C302.334 43.3602 302.35 42.8931 302.489 42.3093C302.885 40.9301 303.272 39.6601 303.65 38.4994C304.168 36.8237 304.721 34.7452 305.309 32.2641C305.356 32.0695 305.342 31.7665 305.268 31.355C305.211 30.9474 305.126 30.619 305.014 30.3697ZM306.9 35.9561C306.908 36.2835 307.073 36.5968 307.396 36.8961C307.739 37.1831 308.065 37.3631 308.373 37.4362C309.297 37.6555 310.046 37.5677 310.62 37.1728C311.045 36.8968 311.346 36.6001 311.525 36.2827C311.719 35.9691 311.905 35.4393 312.082 34.6933C312.22 34.1095 312.222 33.5961 312.087 33.1531C311.956 32.6938 311.75 32.3365 311.468 32.0811C311.19 31.8096 310.905 31.6391 310.613 31.5699C309.948 31.4121 309.357 31.4859 308.839 31.7913C308.341 32.0842 307.955 32.5578 307.68 33.212C307.472 33.7279 307.212 34.6426 306.9 35.9561ZM319.415 38.5661C319.268 39.1823 319.244 39.6818 319.342 40.0647C319.459 40.4352 319.664 40.6551 319.956 40.7244C320.118 40.7629 320.274 40.7913 320.424 40.8097C320.577 40.8119 320.727 40.8303 320.873 40.865C321.035 40.9035 321.154 41.0172 321.229 41.2063C321.32 41.3993 321.343 41.5931 321.297 41.7877C321.204 42.1769 320.945 42.4407 320.518 42.5792C320.111 42.7054 319.6 42.6954 318.983 42.5491C318.545 42.4452 318.13 42.2097 317.738 41.8425C317.365 41.4629 317.101 40.9547 316.943 40.3178C316.79 39.6648 316.815 38.9085 317.019 38.0491C317.458 36.2004 317.862 34.6432 318.231 33.3775C318.673 31.8724 319.17 29.9604 319.72 27.6415C319.893 26.9117 320.055 26.4105 320.205 26.1379C320.357 25.9339 320.551 25.8002 320.789 25.7367C321.047 25.6609 321.297 25.6518 321.54 25.7095C321.784 25.7673 321.985 25.8578 322.144 25.9812C322.319 26.1085 322.418 26.269 322.441 26.4628C322.46 26.6728 322.454 26.877 322.424 27.0754C322.414 27.2615 322.369 27.5248 322.288 27.8654C322.13 28.5302 321.954 29.165 321.759 29.7697C321.549 30.5079 321.404 31.0473 321.324 31.3879C320.517 34.2112 319.88 36.6039 319.415 38.5661ZM324.249 37.812C324.484 36.8228 324.897 36.0558 325.489 35.5111C326.085 34.9501 326.841 34.4701 327.758 34.071C328.023 33.9627 328.437 33.9153 328.999 33.9288C329.565 33.926 330.051 33.9728 330.456 34.069C330.943 34.1844 331.429 34.411 331.914 34.7488C332.419 35.0743 332.811 35.4071 333.09 35.7474C333.586 36.3276 333.878 36.9365 333.967 37.5742C334.059 38.1957 334.011 38.9037 333.823 39.6983C333.742 40.0388 333.468 40.3251 333.002 40.5571C332.556 40.7767 332.114 40.8345 331.676 40.7306L330.758 40.4869C330.287 40.3753 329.611 40.2319 328.727 40.0565L328.211 39.9596C327.846 39.9074 327.575 39.8601 327.396 39.8178C327.137 39.7562 326.788 39.6391 326.349 39.4665C326.233 40.2441 326.375 40.9114 326.773 41.4685C327.176 42.0095 327.669 42.3492 328.253 42.4877C329.275 42.7301 330.036 42.6968 330.538 42.3876C330.936 42.2251 331.2 42.1249 331.329 42.087C331.458 42.0491 331.644 42.059 331.887 42.1167C332.146 42.1783 332.345 42.3538 332.481 42.6432C332.618 42.9326 332.658 43.1989 332.6 43.4422C332.535 43.7179 332.297 43.9612 331.887 44.1723C331.498 44.371 330.982 44.5571 330.342 44.7305C330.003 44.7872 329.554 44.8006 328.996 44.7709C328.438 44.7412 327.98 44.6841 327.623 44.5994C327.056 44.4647 326.462 44.1525 325.842 43.6627C325.225 43.1567 324.795 42.6606 324.55 42.1743C324.306 41.6881 324.143 41.0413 324.06 40.2337C323.994 39.4301 324.057 38.6228 324.249 37.812ZM329.246 38.3039C330.397 38.5771 331.25 38.7367 331.804 38.7826C331.884 38.3046 331.828 37.8889 331.638 37.5354C331.452 37.1658 331.156 36.8216 330.752 36.5031C330.622 36.4036 330.504 36.3241 330.398 36.2648C330.292 36.2054 330.166 36.1584 330.02 36.1238C329.274 35.9468 328.594 35.9994 327.979 36.2817C327.38 36.5678 326.956 37.0155 326.709 37.6248C327.508 37.8659 328.354 38.0923 329.246 38.3039ZM337.199 37.8787C336.98 37.7924 336.816 37.6509 336.709 37.4541C336.618 37.2611 336.599 37.0511 336.653 36.8241C336.68 36.7106 336.733 36.5947 336.812 36.4766C336.908 36.3622 337.024 36.2699 337.161 36.1995C337.422 36.0387 338.014 36.068 338.939 36.2873C339.218 35.6857 339.435 35.0605 339.589 34.4119C339.647 34.1686 339.689 33.9559 339.715 33.7737C339.741 33.5914 339.766 33.4517 339.789 33.3544C339.873 32.9976 340.067 32.7608 340.368 32.644C340.686 32.5311 341.016 32.515 341.356 32.5958C341.778 32.6958 342.037 32.8686 342.133 33.114C342.245 33.3633 342.233 33.7718 342.099 34.3393C341.899 35.1826 341.629 35.9923 341.291 36.7685C341.55 36.8301 341.911 36.8985 342.373 36.9738C342.997 37.0876 343.447 37.1772 343.722 37.2426C343.998 37.3081 344.216 37.4368 344.376 37.6289C344.556 37.8087 344.617 38.0202 344.559 38.2635C344.409 38.8959 344.037 39.2015 343.442 39.1804C342.808 39.1839 341.854 39.0518 340.581 38.7841C340.383 39.405 340.195 40.0884 340.018 40.8344C339.741 42.002 339.587 42.976 339.556 43.7566C339.53 44.2986 339.602 44.7182 339.771 45.0153C339.96 45.3001 340.29 45.4983 340.76 45.6098C341.036 45.6753 341.337 45.6696 341.664 45.593C341.885 45.5256 342.077 45.5112 342.239 45.5497C342.466 45.6035 342.611 45.715 342.674 45.884C342.753 46.0569 342.763 46.265 342.705 46.5082C342.598 46.9623 342.264 47.2856 341.704 47.4783C341.149 47.6548 340.49 47.6526 339.728 47.4717C339.257 47.3601 338.806 47.1331 338.373 46.7906C337.957 46.452 337.627 46.0739 337.383 45.6564C337.346 45.5962 337.301 45.3886 337.249 45.0334C337.196 44.6783 337.165 44.3027 337.156 43.9067C337.175 43.106 337.348 42.0165 337.675 40.6381C337.817 40.0381 338.04 39.2431 338.344 38.2531L337.199 37.8787ZM345.944 43.0371C346.082 42.4533 346.317 41.9351 346.647 41.4824C346.981 41.0135 347.416 40.5515 347.952 40.0963C348.488 39.6412 349.15 39.3442 349.936 39.2054C350.727 39.0504 351.544 39.073 352.387 39.2731C353.036 39.427 353.627 39.713 354.162 40.131C354.716 40.5367 355.191 40.9919 355.585 41.4965C355.623 41.6254 355.686 41.8632 355.775 42.2098C355.868 42.5402 355.918 42.8347 355.926 43.0933C355.949 43.3558 355.93 43.6168 355.868 43.8762C355.61 44.9627 355.04 45.5982 354.157 45.7826C353.278 45.9508 352.23 45.8906 351.014 45.602C349.797 45.3134 348.827 44.9976 348.104 44.6545C348.063 44.9703 348.071 45.2977 348.128 45.6366C348.184 45.9755 348.283 46.2472 348.422 46.4517C348.674 46.8367 348.942 47.1145 349.227 47.2849C349.532 47.4429 349.952 47.5855 350.487 47.7124C351.298 47.9048 351.967 47.9009 352.494 47.7005C352.981 47.5249 353.338 47.464 353.565 47.5179C353.873 47.591 354.085 47.7441 354.201 47.9772C354.321 48.194 354.346 48.4484 354.277 48.7403C354.131 49.3565 353.614 49.7649 352.727 49.9656C351.857 50.1701 350.927 50.1549 349.938 49.9202C349.159 49.7355 348.422 49.4149 347.725 48.9583C347.028 48.5018 346.512 47.9683 346.178 47.3578C345.993 46.7658 345.867 46.0679 345.801 45.2643C345.735 44.4606 345.782 43.7182 345.944 43.0371ZM352.011 41.2908C351.654 41.2061 351.266 41.1825 350.846 41.2198C350.446 41.2449 350.112 41.354 349.843 41.5472C349.518 41.7613 349.264 41.9665 349.08 42.1627C348.913 42.3628 348.773 42.6293 348.66 42.9621C348.838 43.0044 349.006 43.053 349.165 43.1077C349.323 43.1624 349.473 43.2151 349.615 43.266C350.313 43.5002 350.841 43.6596 351.198 43.7442C351.911 43.9136 352.479 43.9371 352.902 43.8148C353.342 43.6963 353.603 43.4587 353.688 43.1019C353.769 42.7614 353.623 42.4013 353.251 42.0218C352.894 41.646 352.481 41.4024 352.011 41.2908ZM363.443 38.094C363.236 38.9697 362.883 40.2392 362.386 41.9027C361.903 43.5012 361.56 44.7302 361.356 45.5897C361.303 45.8167 361.207 46.2908 361.07 47.012C360.989 47.2839 360.841 47.4716 360.628 47.5752C360.419 47.6626 360.193 47.6774 359.95 47.6197C359.69 47.5582 359.471 47.4375 359.291 47.2577C359.11 47.078 359.021 46.8769 359.023 46.6546C359.143 45.2787 359.423 43.6664 359.862 41.8177L360.787 38.0288C360.929 37.4288 361.118 36.9597 361.352 36.6213C361.607 36.2706 361.993 36.1568 362.512 36.28C362.95 36.3839 363.24 36.6068 363.381 36.9487C363.527 37.2744 363.547 37.6562 363.443 38.094ZM359.528 48.8557C360.631 49.1174 361.084 49.6618 360.888 50.4888C360.788 50.9104 360.557 51.2669 360.197 51.5582C359.857 51.8372 359.484 51.9286 359.079 51.8324C358.592 51.717 358.229 51.4767 357.991 51.1117C357.756 50.7305 357.686 50.3372 357.782 49.9318C357.867 49.575 358.074 49.2815 358.402 49.0512C358.747 48.8247 359.123 48.7595 359.528 48.8557ZM367.5 40.1614C367.321 40.119 367.199 40.0558 367.133 39.9717C366.953 39.792 366.812 39.5956 366.708 39.3826C366.621 39.1734 366.617 38.8985 366.698 38.558C366.772 38.3186 366.879 38.1213 367.018 37.966C367.162 37.7945 367.333 37.6893 367.53 37.6506C367.913 37.553 368.372 37.5677 368.907 37.6947C369.296 37.7871 369.562 38.0042 369.703 38.3461C369.865 38.6757 369.898 39.0431 369.801 39.4486C369.686 39.935 369.405 40.468 368.959 41.0474C368.534 41.6144 368.141 42.0436 367.78 42.3349C367.512 42.5281 367.227 42.6832 366.925 42.8C366.623 42.9168 366.375 42.9521 366.18 42.9059C365.791 42.8136 365.561 42.6991 365.491 42.5625C365.441 42.4135 365.452 42.185 365.525 41.8768C365.556 41.7471 365.774 41.5848 366.18 41.39C366.514 41.2121 366.724 41.0823 366.812 41.0004C367.133 40.7337 367.386 40.4599 367.573 40.1787L367.5 40.1614ZM371.732 41.1657C371.537 41.1195 371.407 41.0544 371.342 40.9703C371.174 40.8106 371.038 40.6243 370.935 40.4112C370.847 40.2021 370.846 39.9191 370.931 39.5624C370.984 39.3353 371.083 39.1361 371.227 38.9646C371.386 38.7969 371.565 38.6937 371.763 38.6549C372.113 38.5497 372.572 38.5644 373.14 38.6991C373.513 38.7876 373.778 39.0047 373.936 39.3505C374.097 39.68 374.13 40.0475 374.034 40.4529C373.918 40.9394 373.638 41.4723 373.192 42.0517C372.766 42.6188 372.373 43.0479 372.013 43.3393C371.744 43.5325 371.451 43.6856 371.133 43.7985C370.831 43.9154 370.583 43.9507 370.388 43.9045C370.015 43.816 369.794 43.7034 369.723 43.5668C369.673 43.4179 369.685 43.1893 369.758 42.8812C369.788 42.7515 370.007 42.5892 370.413 42.3943C370.746 42.2165 370.957 42.0866 371.045 42.0047C371.421 41.6485 371.674 41.3746 371.805 41.183L371.732 41.1657Z" fill="#4F5A8E"/>
<rect x="370" y="122" width="12" height="7" fill="#262937"/>
<rect x="370" y="136" width="12" height="7" fill="#262937"/>
<rect x="378" y="122" width="4" height="21" fill="#262937"/>
<rect width="12" height="7" transform="matrix(-1 0 0 1 12 122)" fill="#262937"/>
<rect width="12" height="7" transform="matrix(-1 0 0 1 12 136)" fill="#262937"/>
<rect width="4" height="21" transform="matrix(-1 0 0 1 4 122)" fill="#262937"/>
<defs>
<filter id="filter0_dd_1258_1380" x="0" y="106" width="382" height="55" filterUnits="userSpaceOnUse" color-interpolation-filters="sRGB">
<feFlood flood-opacity="0" result="BackgroundImageFix"/>
<feColorMatrix in="SourceAlpha" type="matrix" values="0 0 0 0 0 0 0 0 0 0 0 0 0 0 0 0 0 0 127 0" result="hardAlpha"/>
<feOffset dy="1"/>
<feGaussianBlur stdDeviation="1"/>
<feColorMatrix type="matrix" values="0 0 0 0 0 0 0 0 0 0 0 0 0 0 0 0 0 0 0.3 0"/>
<feBlend mode="normal" in2="BackgroundImageFix" result="effect1_dropShadow_1258_1380"/>
<feColorMatrix in="SourceAlpha" type="matrix" values="0 0 0 0 0 0 0 0 0 0 0 0 0 0 0 0 0 0 127 0" result="hardAlpha"/>
<feMorphology radius="1" operator="dilate" in="SourceAlpha" result="effect2_dropShadow_1258_1380"/>
<feOffset dy="1"/>
<feGaussianBlur stdDeviation="1.5"/>
<feColorMatrix type="matrix" values="0 0 0 0 0 0 0 0 0 0 0 0 0 0 0 0 0 0 0.15 0"/>
<feBlend mode="normal" in2="effect1_dropShadow_1258_1380" result="effect2_dropShadow_1258_1380"/>
<feBlend mode="normal" in="SourceGraphic" in2="effect2_dropShadow_1258_1380" result="shape"/>
</filter>
</defs>
</svg>
