<svg width="106" height="41" viewBox="0 0 106 41" fill="none" xmlns="http://www.w3.org/2000/svg">
<path d="M3.02344 15L0.351562 5.18182H3.10653L4.62784 11.7784H4.71733L6.30256 5.18182H9.00639L10.6172 11.7401H10.7003L12.196 5.18182H14.9446L12.2791 15H9.39631L7.70881 8.82528H7.58736L5.89986 15H3.02344ZM19.1202 9.32386V15H16.3972V1.90909H19.0435V6.91406H19.1586C19.3801 6.33452 19.7381 5.88068 20.2324 5.55256C20.7267 5.22017 21.3468 5.05398 22.0925 5.05398C22.7743 5.05398 23.3688 5.20312 23.8759 5.50142C24.3873 5.79545 24.7836 6.21946 25.0648 6.77344C25.3503 7.32315 25.4909 7.98153 25.4867 8.74858V15H22.7637V9.23438C22.7679 8.62926 22.6145 8.15838 22.3034 7.82173C21.9966 7.48509 21.5662 7.31676 21.0123 7.31676C20.6415 7.31676 20.3134 7.3956 20.0279 7.55327C19.7466 7.71094 19.525 7.94105 19.3631 8.24361C19.2054 8.5419 19.1245 8.90199 19.1202 9.32386ZM27.6296 15V5.18182H30.3526V15H27.6296ZM28.9975 3.91619C28.5927 3.91619 28.2454 3.78196 27.9556 3.51349C27.6701 3.24077 27.5273 2.91477 27.5273 2.53551C27.5273 2.16051 27.6701 1.83878 27.9556 1.57031C28.2454 1.29758 28.5927 1.16122 28.9975 1.16122C29.4023 1.16122 29.7475 1.29758 30.033 1.57031C30.3228 1.83878 30.4677 2.16051 30.4677 2.53551C30.4677 2.91477 30.3228 3.24077 30.033 3.51349C29.7475 3.78196 29.4023 3.91619 28.9975 3.91619ZM35.2569 1.90909V15H32.5339V1.90909H35.2569ZM41.9126 15.1918C40.9027 15.1918 40.0334 14.9872 39.3047 14.5781C38.5803 14.1648 38.022 13.581 37.63 12.8267C37.2379 12.0682 37.0419 11.1712 37.0419 10.1357C37.0419 9.12571 37.2379 8.23935 37.63 7.47656C38.022 6.71378 38.5739 6.11932 39.2855 5.69318C40.0014 5.26705 40.8409 5.05398 41.804 5.05398C42.4517 5.05398 43.0547 5.15838 43.6129 5.36719C44.1754 5.57173 44.6655 5.88068 45.0831 6.29403C45.505 6.70739 45.8331 7.22727 46.0675 7.85369C46.3018 8.47585 46.419 9.20455 46.419 10.0398V10.7876H38.1286V9.10014H43.8558C43.8558 8.7081 43.7706 8.3608 43.6001 8.05824C43.4297 7.75568 43.1932 7.51918 42.8906 7.34872C42.5923 7.17401 42.245 7.08665 41.8487 7.08665C41.4354 7.08665 41.0689 7.18253 40.7493 7.37429C40.4339 7.56179 40.1868 7.81534 40.0078 8.13494C39.8288 8.45028 39.7372 8.80185 39.733 9.18963V10.794C39.733 11.2798 39.8224 11.6996 40.0014 12.0533C40.1847 12.407 40.4425 12.6797 40.7749 12.8714C41.1072 13.0632 41.5014 13.1591 41.9574 13.1591C42.2599 13.1591 42.5369 13.1165 42.7884 13.0312C43.0398 12.946 43.255 12.8182 43.4339 12.6477C43.6129 12.4773 43.7493 12.2685 43.843 12.0213L46.3615 12.1875C46.2337 12.7926 45.9716 13.321 45.5753 13.7727C45.1832 14.2202 44.6761 14.5696 44.054 14.821C43.4361 15.0682 42.7223 15.1918 41.9126 15.1918ZM52.1754 13.074H66.9174V14.316H52.1754V13.074ZM58.7994 9.132H60.2754V13.488H58.7994V9.132ZM58.7634 2.184H60.0234V3.192C60.0234 6.522 56.6934 9.042 53.4894 9.708L52.8774 8.52C55.6854 8.052 58.7634 5.766 58.7634 3.192V2.184ZM59.0334 2.184H60.2934V3.192C60.2934 5.766 63.3894 7.998 66.2334 8.466L65.6394 9.654C62.3814 9.006 59.0334 6.522 59.0334 3.192V2.184ZM53.3814 1.608H65.6754V2.832H53.3814V1.608ZM80.614 0.131999H82.108V12.156H80.614V0.131999ZM77.104 5.154H80.902V6.396H77.104V5.154ZM75.592 1.392H77.158C77.158 5.586 74.206 8.772 69.616 10.302L68.968 9.096C72.946 7.764 75.592 5.208 75.592 1.986V1.392ZM69.778 1.392H76.564V2.616H69.778V1.392ZM71.83 14.82H82.522V16.044H71.83V14.82ZM71.83 10.95H73.324V15.432H71.83V10.95ZM89.5226 0.905999H90.7646V2.49C90.7646 5.568 88.9286 8.214 86.1746 9.258L85.4186 8.07C87.8846 7.17 89.5226 4.92 89.5226 2.49V0.905999ZM89.7926 0.905999H91.0166V2.49C91.0166 4.83 92.6906 6.936 95.1026 7.782L94.3466 8.952C91.6286 7.962 89.7926 5.478 89.7926 2.49V0.905999ZM87.7586 10.752H98.6306V16.404H97.1186V11.976H87.7586V10.752ZM97.1186 0.131999H98.6306V9.924H97.1186V0.131999ZM103.629 15.1662C103.208 15.1662 102.845 15.017 102.543 14.7188C102.244 14.4162 102.095 14.054 102.095 13.6321C102.095 13.2145 102.244 12.8565 102.543 12.5582C102.845 12.2599 103.208 12.1108 103.629 12.1108C104.039 12.1108 104.396 12.2599 104.703 12.5582C105.01 12.8565 105.164 13.2145 105.164 13.6321C105.164 13.9134 105.091 14.1712 104.946 14.4055C104.806 14.6357 104.62 14.821 104.39 14.9616C104.16 15.098 103.906 15.1662 103.629 15.1662ZM103.629 8.28835C103.208 8.28835 102.845 8.1392 102.543 7.84091C102.244 7.54261 102.095 7.1804 102.095 6.75426C102.095 6.33665 102.244 5.98082 102.543 5.68679C102.845 5.38849 103.208 5.23935 103.629 5.23935C104.039 5.23935 104.396 5.38849 104.703 5.68679C105.01 5.98082 105.164 6.33665 105.164 6.75426C105.164 7.03977 105.091 7.29972 104.946 7.53409C104.806 7.7642 104.62 7.94744 104.39 8.08381C104.16 8.22017 103.906 8.28835 103.629 8.28835ZM32.976 24.132H34.47V32.556H32.976V24.132ZM23.958 33.384H34.488V37.29H25.452V39.522H23.994V36.174H33.012V34.554H23.958V33.384ZM23.994 39.036H35.028V40.224H23.994V39.036ZM25.38 24.6H26.622V25.842C26.622 28.848 24.75 31.404 21.996 32.412L21.258 31.224C23.706 30.36 25.38 28.2 25.38 25.842V24.6ZM25.65 24.6H26.874V25.842C26.874 28.092 28.584 30.126 30.996 30.918L30.258 32.088C27.522 31.152 25.65 28.758 25.65 25.842V24.6ZM49.9846 24.132H51.4066V34.428H49.9846V24.132ZM47.3386 28.542H50.4166V29.784H47.3386V28.542ZM46.5106 24.456H47.9146V33.852H46.5106V24.456ZM37.6186 26.076H45.8626V27.264H37.6186V26.076ZM41.7586 28.092C43.7926 28.092 45.2146 29.208 45.2146 30.882C45.2146 32.574 43.7926 33.672 41.7586 33.672C39.7066 33.672 38.2846 32.574 38.2846 30.882C38.2846 29.208 39.7066 28.092 41.7586 28.092ZM41.7586 29.208C40.4806 29.208 39.6166 29.874 39.6166 30.882C39.6166 31.908 40.4806 32.556 41.7586 32.556C43.0186 32.556 43.8826 31.908 43.8826 30.882C43.8826 29.874 43.0186 29.208 41.7586 29.208ZM41.0206 24.258H42.4786V26.742H41.0206V24.258ZM46.0786 34.716C49.4626 34.716 51.4966 35.724 51.4966 37.542C51.4966 39.342 49.4626 40.368 46.0786 40.368C42.6586 40.368 40.6426 39.342 40.6426 37.542C40.6426 35.724 42.6586 34.716 46.0786 34.716ZM46.0786 35.868C43.5766 35.868 42.1186 36.462 42.1186 37.542C42.1186 38.622 43.5766 39.234 46.0786 39.234C48.5446 39.234 50.0206 38.622 50.0206 37.542C50.0206 36.462 48.5446 35.868 46.0786 35.868ZM61.0757 25.716H71.4077V26.94H61.0757V25.716ZM59.3117 36.966H74.0177V38.19H59.3117V36.966ZM70.7957 25.716H72.2537V27.264C72.2537 29.244 72.2537 31.476 71.5877 34.806L70.0937 34.626C70.7957 31.476 70.7957 29.19 70.7957 27.264V25.716ZM71.1197 29.622V30.756L60.8597 31.332L60.6257 30.036L71.1197 29.622ZM65.0357 32.754H66.5297V37.416H65.0357V32.754ZM77.7423 31.926H88.9203V33.15H77.7423V31.926ZM75.8883 36.966H90.6303V38.208H75.8883V36.966ZM77.7423 25.626H88.7583V26.868H79.2363V32.466H77.7423V25.626Z" fill="black"/>
</svg>
