<svg width="240" height="198" viewBox="0 0 240 198" fill="none" xmlns="http://www.w3.org/2000/svg">
<path d="M4.70455 14.1598C3.95881 14.1598 3.28338 13.968 2.67827 13.5845C2.07741 13.1967 1.60014 12.6278 1.24645 11.8778C0.897017 11.1236 0.722301 10.1989 0.722301 9.10369C0.722301 7.97869 0.903409 7.04332 1.26562 6.29759C1.62784 5.54759 2.10938 4.98722 2.71023 4.61648C3.31534 4.24148 3.97798 4.05398 4.69815 4.05398C5.24787 4.05398 5.70597 4.14773 6.07244 4.33523C6.44318 4.51847 6.74148 4.74858 6.96733 5.02557C7.19744 5.2983 7.37216 5.56676 7.49148 5.83097H7.57457V0.909091H10.2912V14H7.60653V12.4276H7.49148C7.36364 12.7003 7.18253 12.9709 6.94815 13.2393C6.71804 13.5036 6.41761 13.723 6.04688 13.8977C5.6804 14.0724 5.23295 14.1598 4.70455 14.1598ZM5.56747 11.9929C6.00639 11.9929 6.37713 11.8736 6.67969 11.6349C6.98651 11.392 7.22088 11.0533 7.38281 10.6186C7.54901 10.1839 7.6321 9.67472 7.6321 9.09091C7.6321 8.5071 7.55114 8 7.3892 7.5696C7.22727 7.1392 6.9929 6.80682 6.68608 6.57244C6.37926 6.33807 6.00639 6.22088 5.56747 6.22088C5.12003 6.22088 4.7429 6.34233 4.43608 6.58523C4.12926 6.82812 3.89702 7.16477 3.73935 7.59517C3.58168 8.02557 3.50284 8.52415 3.50284 9.09091C3.50284 9.66193 3.58168 10.1669 3.73935 10.6058C3.90128 11.0405 4.13352 11.3814 4.43608 11.6286C4.7429 11.8714 5.12003 11.9929 5.56747 11.9929ZM17.0044 14.1918C15.9945 14.1918 15.1252 13.9872 14.3965 13.5781C13.6721 13.1648 13.1138 12.581 12.7218 11.8267C12.3297 11.0682 12.1337 10.1712 12.1337 9.13565C12.1337 8.12571 12.3297 7.23935 12.7218 6.47656C13.1138 5.71378 13.6657 5.11932 14.3773 4.69318C15.0932 4.26705 15.9327 4.05398 16.8958 4.05398C17.5435 4.05398 18.1465 4.15838 18.7047 4.36719C19.2672 4.57173 19.7573 4.88068 20.1749 5.29403C20.5968 5.70739 20.9249 6.22727 21.1593 6.85369C21.3936 7.47585 21.5108 8.20455 21.5108 9.03977V9.78764H13.2203V8.10014H18.9476C18.9476 7.7081 18.8624 7.3608 18.6919 7.05824C18.5215 6.75568 18.285 6.51918 17.9824 6.34872C17.6841 6.17401 17.3368 6.08665 16.9405 6.08665C16.5272 6.08665 16.1607 6.18253 15.8411 6.37429C15.5257 6.56179 15.2786 6.81534 15.0996 7.13494C14.9206 7.45028 14.829 7.80185 14.8248 8.18963V9.79403C14.8248 10.2798 14.9142 10.6996 15.0932 11.0533C15.2765 11.407 15.5343 11.6797 15.8667 11.8714C16.199 12.0632 16.5932 12.1591 17.0492 12.1591C17.3517 12.1591 17.6287 12.1165 17.8801 12.0312C18.1316 11.946 18.3468 11.8182 18.5257 11.6477C18.7047 11.4773 18.8411 11.2685 18.9348 11.0213L21.4533 11.1875C21.3255 11.7926 21.0634 12.321 20.6671 12.7727C20.275 13.2202 19.7679 13.5696 19.1458 13.821C18.5279 14.0682 17.8141 14.1918 17.0044 14.1918ZM28.5676 4.18182V6.22727H22.508V4.18182H28.5676ZM23.8951 14V3.4723C23.8951 2.76065 24.0336 2.17045 24.3105 1.7017C24.5918 1.23295 24.9753 0.881391 25.4611 0.647016C25.9469 0.412641 26.4988 0.295454 27.1167 0.295454C27.5343 0.295454 27.9157 0.327414 28.2608 0.391335C28.6103 0.455255 28.8702 0.512784 29.0407 0.56392L28.5549 2.60938C28.4483 2.57528 28.3162 2.54332 28.1586 2.51349C28.0051 2.48366 27.8475 2.46875 27.6855 2.46875C27.285 2.46875 27.0059 2.5625 26.8482 2.75C26.6905 2.93324 26.6117 3.19105 26.6117 3.52344V14H23.8951ZM39.5763 14.2045C38.6559 14.2045 37.8633 13.9872 37.1985 13.5526C36.5337 13.1179 36.0224 12.5192 35.6644 11.7564C35.3065 10.9936 35.1275 10.1222 35.1275 9.14205C35.1275 8.14489 35.3107 7.26491 35.6772 6.50213C36.0479 5.73509 36.5636 5.13636 37.2241 4.70597C37.8888 4.27131 38.6644 4.05398 39.5508 4.05398C40.2411 4.05398 40.8633 4.18182 41.4173 4.4375C41.9712 4.69318 42.4251 5.05114 42.7788 5.51136C43.1325 5.97159 43.3519 6.50852 43.4371 7.12216H41.9286C41.8136 6.67472 41.5579 6.27841 41.1616 5.93324C40.7695 5.58381 40.2411 5.40909 39.5763 5.40909C38.9883 5.40909 38.4727 5.5625 38.0295 5.86932C37.5906 6.17187 37.2475 6.60014 37.0004 7.15412C36.7575 7.70383 36.636 8.34943 36.636 9.09091C36.636 9.84943 36.7553 10.5099 36.994 11.0724C37.2369 11.6349 37.5778 12.0717 38.0167 12.3828C38.4599 12.6939 38.9798 12.8494 39.5763 12.8494C39.9684 12.8494 40.3242 12.7812 40.6438 12.6449C40.9634 12.5085 41.234 12.3125 41.4556 12.0568C41.6772 11.8011 41.8349 11.4943 41.9286 11.1364H43.4371C43.3519 11.7159 43.141 12.2379 42.8043 12.7024C42.4719 13.1626 42.0309 13.5291 41.4812 13.8018C40.9357 14.0703 40.3008 14.2045 39.5763 14.2045ZM47.1509 8.09375V14H45.6424V0.909091H47.1509V5.71591H47.2788C47.5089 5.20881 47.854 4.80611 48.3143 4.50781C48.7788 4.20526 49.3967 4.05398 50.168 4.05398C50.837 4.05398 51.4229 4.18821 51.9258 4.45668C52.4286 4.72088 52.8185 5.12784 53.0955 5.67756C53.3768 6.22301 53.5174 6.91761 53.5174 7.76136V14H52.0089V7.86364C52.0089 7.08381 51.8065 6.48082 51.4016 6.05469C51.0011 5.62429 50.445 5.40909 49.7333 5.40909C49.239 5.40909 48.7958 5.51349 48.4038 5.7223C48.016 5.93111 47.7092 6.2358 47.4833 6.63636C47.2617 7.03693 47.1509 7.52273 47.1509 8.09375ZM60.3936 14.2045C59.4476 14.2045 58.6316 13.9957 57.9455 13.5781C57.2637 13.1562 56.7374 12.5682 56.3667 11.8139C56.0002 11.0554 55.8169 10.1733 55.8169 9.16761C55.8169 8.16193 56.0002 7.27557 56.3667 6.50852C56.7374 5.73722 57.253 5.13636 57.9135 4.70597C58.5783 4.27131 59.3539 4.05398 60.2402 4.05398C60.7516 4.05398 61.2566 4.1392 61.7551 4.30966C62.2537 4.48011 62.7076 4.7571 63.1167 5.14062C63.5257 5.51989 63.8517 6.02273 64.0946 6.64915C64.3375 7.27557 64.459 8.04687 64.459 8.96307V9.60227H56.8908V8.2983H62.9249C62.9249 7.74432 62.8141 7.25 62.5925 6.81534C62.3752 6.38068 62.0641 6.03764 61.6593 5.78622C61.2587 5.5348 60.7857 5.40909 60.2402 5.40909C59.6394 5.40909 59.1195 5.55824 58.6806 5.85653C58.2459 6.15057 57.9114 6.53409 57.677 7.0071C57.4426 7.48011 57.3255 7.98722 57.3255 8.52841V9.39773C57.3255 10.1392 57.4533 10.7678 57.709 11.2834C57.9689 11.7947 58.329 12.1847 58.7892 12.4531C59.2495 12.7173 59.7843 12.8494 60.3936 12.8494C60.79 12.8494 61.1479 12.794 61.4675 12.6832C61.7914 12.5682 62.0705 12.3977 62.3049 12.1719C62.5392 11.9418 62.7203 11.6562 62.8482 11.3153L64.3056 11.7244C64.1522 12.2188 63.8944 12.6534 63.5321 13.0284C63.1699 13.3991 62.7225 13.6889 62.1898 13.8977C61.6571 14.1023 61.0584 14.2045 60.3936 14.2045ZM70.7424 14.2045C69.8219 14.2045 69.0293 13.9872 68.3645 13.5526C67.6998 13.1179 67.1884 12.5192 66.8304 11.7564C66.4725 10.9936 66.2935 10.1222 66.2935 9.14205C66.2935 8.14489 66.4767 7.26491 66.8432 6.50213C67.214 5.73509 67.7296 5.13636 68.3901 4.70597C69.0549 4.27131 69.8304 4.05398 70.7168 4.05398C71.4071 4.05398 72.0293 4.18182 72.5833 4.4375C73.1373 4.69318 73.5911 5.05114 73.9448 5.51136C74.2985 5.97159 74.5179 6.50852 74.6032 7.12216H73.0946C72.9796 6.67472 72.7239 6.27841 72.3276 5.93324C71.9355 5.58381 71.4071 5.40909 70.7424 5.40909C70.1543 5.40909 69.6387 5.5625 69.1955 5.86932C68.7566 6.17187 68.4135 6.60014 68.1664 7.15412C67.9235 7.70383 67.802 8.34943 67.802 9.09091C67.802 9.84943 67.9213 10.5099 68.16 11.0724C68.4029 11.6349 68.7438 12.0717 69.1827 12.3828C69.6259 12.6939 70.1458 12.8494 70.7424 12.8494C71.1344 12.8494 71.4902 12.7812 71.8098 12.6449C72.1294 12.5085 72.4 12.3125 72.6216 12.0568C72.8432 11.8011 73.0009 11.4943 73.0946 11.1364H74.6032C74.5179 11.7159 74.307 12.2379 73.9703 12.7024C73.638 13.1626 73.1969 13.5291 72.6472 13.8018C72.1017 14.0703 71.4668 14.2045 70.7424 14.2045ZM78.2147 10.4205L78.1891 8.55398H78.4959L82.7914 4.18182H84.6578L80.0811 8.80966H79.9533L78.2147 10.4205ZM76.8084 14V0.909091H78.3169V14H76.8084ZM83.0471 14L79.2118 9.14205L80.2857 8.09375L84.9647 14H83.0471ZM93.375 14V15.4062H85.1932V14H93.375ZM98.8546 14.2045C97.9086 14.2045 97.0925 13.9957 96.4064 13.5781C95.7246 13.1562 95.1983 12.5682 94.8276 11.8139C94.4611 11.0554 94.2779 10.1733 94.2779 9.16761C94.2779 8.16193 94.4611 7.27557 94.8276 6.50852C95.1983 5.73722 95.714 5.13636 96.3745 4.70597C97.0392 4.27131 97.8148 4.05398 98.7012 4.05398C99.2125 4.05398 99.7175 4.1392 100.216 4.30966C100.715 4.48011 101.169 4.7571 101.578 5.14062C101.987 5.51989 102.313 6.02273 102.556 6.64915C102.798 7.27557 102.92 8.04687 102.92 8.96307V9.60227H95.3517V8.2983H101.386C101.386 7.74432 101.275 7.25 101.053 6.81534C100.836 6.38068 100.525 6.03764 100.12 5.78622C99.7196 5.5348 99.2466 5.40909 98.7012 5.40909C98.1003 5.40909 97.5804 5.55824 97.1415 5.85653C96.7069 6.15057 96.3723 6.53409 96.138 7.0071C95.9036 7.48011 95.7864 7.98722 95.7864 8.52841V9.39773C95.7864 10.1392 95.9142 10.7678 96.1699 11.2834C96.4299 11.7947 96.79 12.1847 97.2502 12.4531C97.7104 12.7173 98.2452 12.8494 98.8546 12.8494C99.2509 12.8494 99.6088 12.794 99.9284 12.6832C100.252 12.5682 100.531 12.3977 100.766 12.1719C101 11.9418 101.181 11.6562 101.309 11.3153L102.767 11.7244C102.613 12.2188 102.355 12.6534 101.993 13.0284C101.631 13.3991 101.183 13.6889 100.651 13.8977C100.118 14.1023 99.5194 14.2045 98.8546 14.2045ZM112.944 4.18182L109.314 14H107.779L104.149 4.18182H105.785L108.495 12.0057H108.598L111.308 4.18182H112.944ZM118.7 14.2045C117.754 14.2045 116.938 13.9957 116.252 13.5781C115.57 13.1562 115.044 12.5682 114.673 11.8139C114.307 11.0554 114.124 10.1733 114.124 9.16761C114.124 8.16193 114.307 7.27557 114.673 6.50852C115.044 5.73722 115.56 5.13636 116.22 4.70597C116.885 4.27131 117.661 4.05398 118.547 4.05398C119.058 4.05398 119.563 4.1392 120.062 4.30966C120.56 4.48011 121.014 4.7571 121.423 5.14062C121.832 5.51989 122.158 6.02273 122.401 6.64915C122.644 7.27557 122.766 8.04687 122.766 8.96307V9.60227H115.197V8.2983H121.232C121.232 7.74432 121.121 7.25 120.899 6.81534C120.682 6.38068 120.371 6.03764 119.966 5.78622C119.565 5.5348 119.092 5.40909 118.547 5.40909C117.946 5.40909 117.426 5.55824 116.987 5.85653C116.553 6.15057 116.218 6.53409 115.984 7.0071C115.749 7.48011 115.632 7.98722 115.632 8.52841V9.39773C115.632 10.1392 115.76 10.7678 116.016 11.2834C116.276 11.7947 116.636 12.1847 117.096 12.4531C117.556 12.7173 118.091 12.8494 118.7 12.8494C119.097 12.8494 119.455 12.794 119.774 12.6832C120.098 12.5682 120.377 12.3977 120.612 12.1719C120.846 11.9418 121.027 11.6562 121.155 11.3153L122.612 11.7244C122.459 12.2188 122.201 12.6534 121.839 13.0284C121.477 13.3991 121.029 13.6889 120.496 13.8977C119.964 14.1023 119.365 14.2045 118.7 14.2045ZM126.569 8.09375V14H125.06V4.18182H126.518V5.71591H126.646C126.876 5.21733 127.225 4.81676 127.694 4.5142C128.163 4.20739 128.768 4.05398 129.509 4.05398C130.174 4.05398 130.756 4.19034 131.254 4.46307C131.753 4.73153 132.141 5.14062 132.418 5.69034C132.695 6.2358 132.833 6.92614 132.833 7.76136V14H131.325V7.86364C131.325 7.09233 131.124 6.49148 130.724 6.06108C130.323 5.62642 129.773 5.40909 129.075 5.40909C128.593 5.40909 128.163 5.51349 127.783 5.7223C127.408 5.93111 127.112 6.2358 126.895 6.63636C126.678 7.03693 126.569 7.52273 126.569 8.09375ZM136.127 8.47727C136.127 6.86648 136.335 5.38565 136.753 4.0348C137.175 2.67969 137.776 1.43324 138.556 0.295454H139.885C139.578 0.717329 139.291 1.23722 139.022 1.85511C138.758 2.46875 138.526 3.14418 138.325 3.88139C138.125 4.61435 137.968 5.37287 137.852 6.15696C137.742 6.94105 137.686 7.71449 137.686 8.47727C137.686 9.49148 137.784 10.5206 137.98 11.5646C138.176 12.6087 138.441 13.5781 138.773 14.473C139.105 15.3679 139.476 16.0966 139.885 16.6591H138.556C137.776 15.5213 137.175 14.277 136.753 12.9261C136.335 11.571 136.127 10.0881 136.127 8.47727ZM143.62 8.09375V14H142.111V4.18182H143.569V5.71591H143.696C143.926 5.21733 144.276 4.81676 144.745 4.5142C145.213 4.20739 145.819 4.05398 146.56 4.05398C147.225 4.05398 147.806 4.19034 148.305 4.46307C148.804 4.73153 149.191 5.14062 149.468 5.69034C149.745 6.2358 149.884 6.92614 149.884 7.76136V14H148.375V7.86364C148.375 7.09233 148.175 6.49148 147.775 6.06108C147.374 5.62642 146.824 5.40909 146.125 5.40909C145.644 5.40909 145.213 5.51349 144.834 5.7223C144.459 5.93111 144.163 6.2358 143.946 6.63636C143.728 7.03693 143.62 7.52273 143.62 8.09375ZM158.828 9.9858V4.18182H160.336V14H158.828V12.3381H158.726C158.496 12.8366 158.138 13.2607 157.652 13.6101C157.166 13.9553 156.552 14.1278 155.811 14.1278C155.197 14.1278 154.652 13.9936 154.175 13.7251C153.697 13.4524 153.322 13.0433 153.05 12.4979C152.777 11.9482 152.64 11.2557 152.64 10.4205V4.18182H154.149V10.3182C154.149 11.0341 154.349 11.6051 154.75 12.0312C155.155 12.4574 155.67 12.6705 156.297 12.6705C156.672 12.6705 157.053 12.5746 157.441 12.3828C157.833 12.1911 158.161 11.897 158.425 11.5007C158.694 11.1044 158.828 10.5994 158.828 9.9858ZM163.099 14V4.18182H164.557V5.71591H164.685C164.889 5.19176 165.219 4.7848 165.675 4.49503C166.131 4.20099 166.679 4.05398 167.318 4.05398C167.966 4.05398 168.505 4.20099 168.935 4.49503C169.37 4.7848 169.709 5.19176 169.952 5.71591H170.054C170.305 5.20881 170.683 4.80611 171.185 4.50781C171.688 4.20526 172.291 4.05398 172.994 4.05398C173.872 4.05398 174.59 4.32884 175.148 4.87855C175.707 5.42401 175.986 6.27415 175.986 7.42898V14H174.477V7.42898C174.477 6.70455 174.279 6.18679 173.883 5.87571C173.487 5.56463 173.02 5.40909 172.483 5.40909C171.793 5.40909 171.258 5.6179 170.879 6.03551C170.499 6.44886 170.31 6.97301 170.31 7.60795V14H168.776V7.27557C168.776 6.71733 168.594 6.26776 168.232 5.92685C167.87 5.58168 167.403 5.40909 166.832 5.40909C166.44 5.40909 166.074 5.51349 165.733 5.7223C165.396 5.93111 165.124 6.22088 164.915 6.59162C164.71 6.9581 164.608 7.3821 164.608 7.86364V14H163.099ZM178.949 14V0.909091H180.457V5.74148H180.585C180.696 5.57102 180.849 5.35369 181.045 5.08949C181.245 4.82102 181.531 4.58239 181.902 4.37358C182.277 4.16051 182.784 4.05398 183.423 4.05398C184.25 4.05398 184.978 4.26065 185.609 4.67401C186.24 5.08736 186.732 5.6733 187.086 6.43182C187.439 7.19034 187.616 8.08523 187.616 9.11648C187.616 10.1562 187.439 11.0575 187.086 11.8203C186.732 12.5788 186.242 13.1669 185.615 13.5845C184.989 13.9979 184.267 14.2045 183.449 14.2045C182.818 14.2045 182.313 14.1001 181.934 13.8913C181.554 13.6783 181.262 13.4375 181.058 13.169C180.853 12.8963 180.696 12.6705 180.585 12.4915H180.406V14H178.949ZM180.431 9.09091C180.431 9.83239 180.54 10.4865 180.757 11.0533C180.975 11.6158 181.292 12.0568 181.71 12.3764C182.127 12.6918 182.639 12.8494 183.244 12.8494C183.875 12.8494 184.401 12.6832 184.823 12.3509C185.249 12.0142 185.569 11.5625 185.782 10.9957C185.999 10.4247 186.108 9.78977 186.108 9.09091C186.108 8.40057 186.001 7.77841 185.788 7.22443C185.579 6.66619 185.262 6.22514 184.836 5.90128C184.414 5.57315 183.883 5.40909 183.244 5.40909C182.63 5.40909 182.115 5.56463 181.697 5.87571C181.279 6.18253 180.964 6.61293 180.751 7.1669C180.538 7.71662 180.431 8.35795 180.431 9.09091ZM194.04 14.2045C193.094 14.2045 192.278 13.9957 191.592 13.5781C190.91 13.1562 190.384 12.5682 190.013 11.8139C189.647 11.0554 189.463 10.1733 189.463 9.16761C189.463 8.16193 189.647 7.27557 190.013 6.50852C190.384 5.73722 190.9 5.13636 191.56 4.70597C192.225 4.27131 193 4.05398 193.887 4.05398C194.398 4.05398 194.903 4.1392 195.402 4.30966C195.9 4.48011 196.354 4.7571 196.763 5.14062C197.172 5.51989 197.498 6.02273 197.741 6.64915C197.984 7.27557 198.105 8.04687 198.105 8.96307V9.60227H190.537V8.2983H196.571C196.571 7.74432 196.461 7.25 196.239 6.81534C196.022 6.38068 195.711 6.03764 195.306 5.78622C194.905 5.5348 194.432 5.40909 193.887 5.40909C193.286 5.40909 192.766 5.55824 192.327 5.85653C191.892 6.15057 191.558 6.53409 191.324 7.0071C191.089 7.48011 190.972 7.98722 190.972 8.52841V9.39773C190.972 10.1392 191.1 10.7678 191.355 11.2834C191.615 11.7947 191.975 12.1847 192.436 12.4531C192.896 12.7173 193.431 12.8494 194.04 12.8494C194.436 12.8494 194.794 12.794 195.114 12.6832C195.438 12.5682 195.717 12.3977 195.951 12.1719C196.186 11.9418 196.367 11.6562 196.495 11.3153L197.952 11.7244C197.799 12.2188 197.541 12.6534 197.179 13.0284C196.816 13.3991 196.369 13.6889 195.836 13.8977C195.304 14.1023 194.705 14.2045 194.04 14.2045ZM200.4 14V4.18182H201.858V5.66477H201.96C202.139 5.17898 202.463 4.7848 202.931 4.48224C203.4 4.17969 203.929 4.02841 204.517 4.02841C204.627 4.02841 204.766 4.03054 204.932 4.0348C205.098 4.03906 205.224 4.04545 205.309 4.05398V5.58807C205.258 5.57528 205.141 5.55611 204.958 5.53054C204.779 5.50071 204.589 5.4858 204.389 5.4858C203.912 5.4858 203.485 5.58594 203.11 5.78622C202.74 5.98224 202.446 6.25497 202.228 6.6044C202.015 6.94957 201.909 7.34375 201.909 7.78693V14H200.4ZM210.319 8.47727C210.319 10.0881 210.108 11.571 209.686 12.9261C209.269 14.277 208.67 15.5213 207.89 16.6591H206.561C206.867 16.2372 207.153 15.7173 207.417 15.0994C207.686 14.4858 207.92 13.8125 208.12 13.0795C208.32 12.3423 208.476 11.5817 208.587 10.7976C208.702 10.0092 208.759 9.2358 208.759 8.47727C208.759 7.46307 208.661 6.43395 208.465 5.38991C208.269 4.34588 208.005 3.37642 207.673 2.48153C207.34 1.58665 206.97 0.857954 206.561 0.295454H207.89C208.67 1.43324 209.269 2.67969 209.686 4.0348C210.108 5.38565 210.319 6.86648 210.319 8.47727ZM214.718 14.1023C214.403 14.1023 214.132 13.9893 213.907 13.7635C213.681 13.5376 213.568 13.267 213.568 12.9517C213.568 12.6364 213.681 12.3658 213.907 12.1399C214.132 11.9141 214.403 11.8011 214.718 11.8011C215.034 11.8011 215.304 11.9141 215.53 12.1399C215.756 12.3658 215.869 12.6364 215.869 12.9517C215.869 13.1605 215.816 13.3523 215.709 13.527C215.607 13.7017 215.468 13.8423 215.294 13.9489C215.123 14.0511 214.931 14.1023 214.718 14.1023ZM214.718 6.81534C214.403 6.81534 214.132 6.70241 213.907 6.47656C213.681 6.25071 213.568 5.98011 213.568 5.66477C213.568 5.34943 213.681 5.07884 213.907 4.85298C214.132 4.62713 214.403 4.5142 214.718 4.5142C215.034 4.5142 215.304 4.62713 215.53 4.85298C215.756 5.07884 215.869 5.34943 215.869 5.66477C215.869 5.87358 215.816 6.06534 215.709 6.24006C215.607 6.41477 215.468 6.5554 215.294 6.66193C215.123 6.7642 214.931 6.81534 214.718 6.81534ZM36.5241 44V34.1818H39.1641V35.8949H39.2663C39.4453 35.2855 39.7457 34.8253 40.1676 34.5142C40.5895 34.1989 41.0753 34.0412 41.625 34.0412C41.7614 34.0412 41.9084 34.0497 42.0661 34.0668C42.2237 34.0838 42.3622 34.1072 42.4815 34.1371V36.5533C42.3537 36.5149 42.1768 36.4808 41.951 36.451C41.7251 36.4212 41.5185 36.4062 41.331 36.4062C40.9304 36.4062 40.5724 36.4936 40.2571 36.6683C39.946 36.8388 39.6989 37.0774 39.5156 37.3842C39.3366 37.6911 39.2472 38.0447 39.2472 38.4453V44H36.5241ZM47.9068 44.1918C46.8968 44.1918 46.0275 43.9872 45.2988 43.5781C44.5744 43.1648 44.0162 42.581 43.6241 41.8267C43.2321 41.0682 43.036 40.1712 43.036 39.1357C43.036 38.1257 43.2321 37.2393 43.6241 36.4766C44.0162 35.7138 44.568 35.1193 45.2797 34.6932C45.9956 34.267 46.835 34.054 47.7981 34.054C48.4458 34.054 49.0488 34.1584 49.6071 34.3672C50.1696 34.5717 50.6596 34.8807 51.0772 35.294C51.4991 35.7074 51.8272 36.2273 52.0616 36.8537C52.296 37.4759 52.4132 38.2045 52.4132 39.0398V39.7876H44.1227V38.1001H49.85C49.85 37.7081 49.7647 37.3608 49.5943 37.0582C49.4238 36.7557 49.1873 36.5192 48.8848 36.3487C48.5865 36.174 48.2392 36.0866 47.8429 36.0866C47.4295 36.0866 47.063 36.1825 46.7434 36.3743C46.4281 36.5618 46.1809 36.8153 46.002 37.1349C45.823 37.4503 45.7314 37.8018 45.7271 38.1896V39.794C45.7271 40.2798 45.8166 40.6996 45.9956 41.0533C46.1788 41.407 46.4366 41.6797 46.769 41.8714C47.1014 42.0632 47.4956 42.1591 47.9515 42.1591C48.2541 42.1591 48.5311 42.1165 48.7825 42.0312C49.0339 41.946 49.2491 41.8182 49.4281 41.6477C49.6071 41.4773 49.7434 41.2685 49.8372 41.0213L52.3556 41.1875C52.2278 41.7926 51.9657 42.321 51.5694 42.7727C51.1774 43.2202 50.6703 43.5696 50.0481 43.821C49.4302 44.0682 48.7164 44.1918 47.9068 44.1918ZM59.4125 34.1818V36.2273H53.4998V34.1818H59.4125ZM54.8422 31.8295H57.5652V40.983C57.5652 41.2344 57.6035 41.4304 57.6802 41.571C57.7569 41.7074 57.8635 41.8033 57.9998 41.8587C58.1404 41.9141 58.3024 41.9418 58.4856 41.9418C58.6135 41.9418 58.7413 41.9311 58.8691 41.9098C58.997 41.8842 59.095 41.8651 59.1632 41.8523L59.5914 43.8786C59.4551 43.9212 59.2633 43.9702 59.0162 44.0256C58.769 44.0852 58.4686 44.1214 58.1149 44.1342C57.4586 44.1598 56.8833 44.0724 56.389 43.8722C55.899 43.6719 55.5176 43.3608 55.2449 42.9389C54.9721 42.517 54.8379 41.9844 54.8422 41.3409V31.8295ZM67.4824 39.8196V34.1818H70.2054V44H67.5911V42.2166H67.4888C67.2672 42.7919 66.8986 43.2543 66.383 43.6037C65.8716 43.9531 65.2473 44.1278 64.5101 44.1278C63.8539 44.1278 63.2765 43.9787 62.7779 43.6804C62.2793 43.3821 61.8894 42.9581 61.6081 42.4084C61.3311 41.8587 61.1905 41.2003 61.1863 40.4332V34.1818H63.9093V39.9474C63.9135 40.527 64.0691 40.9851 64.3759 41.3217C64.6827 41.6584 65.0939 41.8267 65.6096 41.8267C65.9377 41.8267 66.2445 41.7521 66.53 41.603C66.8155 41.4496 67.0456 41.2237 67.2203 40.9254C67.3993 40.6271 67.4867 40.2585 67.4824 39.8196ZM72.3835 44V34.1818H75.0234V35.8949H75.1257C75.3047 35.2855 75.6051 34.8253 76.027 34.5142C76.4489 34.1989 76.9347 34.0412 77.4844 34.0412C77.6207 34.0412 77.7678 34.0497 77.9254 34.0668C78.0831 34.0838 78.2216 34.1072 78.3409 34.1371V36.5533C78.2131 36.5149 78.0362 36.4808 77.8104 36.451C77.5845 36.4212 77.3778 36.4062 77.1903 36.4062C76.7898 36.4062 76.4318 36.4936 76.1165 36.6683C75.8054 36.8388 75.5582 37.0774 75.375 37.3842C75.196 37.6911 75.1065 38.0447 75.1065 38.4453V44H72.3835ZM82.4718 38.3239V44H79.7488V34.1818H82.3439V35.9141H82.459C82.6763 35.343 83.0407 34.8913 83.552 34.5589C84.0634 34.2223 84.6834 34.054 85.4121 34.054C86.0939 34.054 86.6884 34.2031 87.1955 34.5014C87.7026 34.7997 88.0968 35.2259 88.378 35.7798C88.6593 36.3295 88.7999 36.9858 88.7999 37.7486V44H86.0769V38.2344C86.0811 37.6335 85.9277 37.1648 85.6167 36.8281C85.3056 36.4872 84.8773 36.3168 84.3319 36.3168C83.9654 36.3168 83.6415 36.3956 83.3603 36.5533C83.0833 36.7109 82.8659 36.9411 82.7083 37.2436C82.5549 37.5419 82.476 37.902 82.4718 38.3239ZM97.8111 38.0938V44H96.3026V34.1818H97.7599V35.7159H97.8878C98.1179 35.2173 98.4673 34.8168 98.9361 34.5142C99.4048 34.2074 100.01 34.054 100.751 34.054C101.416 34.054 101.998 34.1903 102.496 34.4631C102.995 34.7315 103.383 35.1406 103.66 35.6903C103.937 36.2358 104.075 36.9261 104.075 37.7614V44H102.567V37.8636C102.567 37.0923 102.366 36.4915 101.966 36.0611C101.565 35.6264 101.016 35.4091 100.317 35.4091C99.8352 35.4091 99.4048 35.5135 99.0256 35.7223C98.6506 35.9311 98.3544 36.2358 98.1371 36.6364C97.9197 37.0369 97.8111 37.5227 97.8111 38.0938ZM113.019 39.9858V34.1818H114.528V44H113.019V42.3381H112.917C112.687 42.8366 112.329 43.2607 111.843 43.6101C111.357 43.9553 110.744 44.1278 110.002 44.1278C109.389 44.1278 108.843 43.9936 108.366 43.7251C107.889 43.4524 107.514 43.0433 107.241 42.4979C106.968 41.9482 106.832 41.2557 106.832 40.4205V34.1818H108.34V40.3182C108.34 41.0341 108.541 41.6051 108.941 42.0312C109.346 42.4574 109.862 42.6705 110.488 42.6705C110.863 42.6705 111.244 42.5746 111.632 42.3828C112.024 42.1911 112.352 41.897 112.617 41.5007C112.885 41.1044 113.019 40.5994 113.019 39.9858ZM117.291 44V34.1818H118.748V35.7159H118.876C119.081 35.1918 119.411 34.7848 119.867 34.495C120.323 34.201 120.87 34.054 121.51 34.054C122.157 34.054 122.696 34.201 123.127 34.495C123.561 34.7848 123.9 35.1918 124.143 35.7159H124.245C124.497 35.2088 124.874 34.8061 125.377 34.5078C125.88 34.2053 126.483 34.054 127.186 34.054C128.064 34.054 128.782 34.3288 129.34 34.8786C129.898 35.424 130.177 36.2741 130.177 37.429V44H128.669V37.429C128.669 36.7045 128.471 36.1868 128.074 35.8757C127.678 35.5646 127.211 35.4091 126.674 35.4091C125.984 35.4091 125.449 35.6179 125.07 36.0355C124.691 36.4489 124.501 36.973 124.501 37.608V44H122.967V37.2756C122.967 36.7173 122.786 36.2678 122.424 35.9268C122.061 35.5817 121.595 35.4091 121.024 35.4091C120.632 35.4091 120.265 35.5135 119.924 35.7223C119.588 35.9311 119.315 36.2209 119.106 36.5916C118.902 36.9581 118.799 37.3821 118.799 37.8636V44H117.291ZM133.14 44V30.9091H134.648V35.7415H134.776C134.887 35.571 135.04 35.3537 135.237 35.0895C135.437 34.821 135.722 34.5824 136.093 34.3736C136.468 34.1605 136.975 34.054 137.614 34.054C138.441 34.054 139.17 34.2607 139.8 34.674C140.431 35.0874 140.923 35.6733 141.277 36.4318C141.631 37.1903 141.808 38.0852 141.808 39.1165C141.808 40.1562 141.631 41.0575 141.277 41.8203C140.923 42.5788 140.433 43.1669 139.807 43.5845C139.18 43.9979 138.458 44.2045 137.64 44.2045C137.009 44.2045 136.504 44.1001 136.125 43.8913C135.746 43.6783 135.454 43.4375 135.249 43.169C135.045 42.8963 134.887 42.6705 134.776 42.4915H134.597V44H133.14ZM134.623 39.0909C134.623 39.8324 134.732 40.4865 134.949 41.0533C135.166 41.6158 135.484 42.0568 135.901 42.3764C136.319 42.6918 136.83 42.8494 137.435 42.8494C138.066 42.8494 138.592 42.6832 139.014 42.3509C139.44 42.0142 139.76 41.5625 139.973 40.9957C140.19 40.4247 140.299 39.7898 140.299 39.0909C140.299 38.4006 140.192 37.7784 139.979 37.2244C139.771 36.6662 139.453 36.2251 139.027 35.9013C138.605 35.5732 138.075 35.4091 137.435 35.4091C136.822 35.4091 136.306 35.5646 135.888 35.8757C135.471 36.1825 135.156 36.6129 134.942 37.1669C134.729 37.7166 134.623 38.358 134.623 39.0909ZM148.232 44.2045C147.286 44.2045 146.469 43.9957 145.783 43.5781C145.102 43.1562 144.575 42.5682 144.205 41.8139C143.838 41.0554 143.655 40.1733 143.655 39.1676C143.655 38.1619 143.838 37.2756 144.205 36.5085C144.575 35.7372 145.091 35.1364 145.751 34.706C146.416 34.2713 147.192 34.054 148.078 34.054C148.589 34.054 149.094 34.1392 149.593 34.3097C150.092 34.4801 150.545 34.7571 150.955 35.1406C151.364 35.5199 151.69 36.0227 151.933 36.6491C152.175 37.2756 152.297 38.0469 152.297 38.9631V39.6023H144.729V38.2983H150.763C150.763 37.7443 150.652 37.25 150.43 36.8153C150.213 36.3807 149.902 36.0376 149.497 35.7862C149.097 35.5348 148.624 35.4091 148.078 35.4091C147.477 35.4091 146.957 35.5582 146.518 35.8565C146.084 36.1506 145.749 36.5341 145.515 37.0071C145.281 37.4801 145.163 37.9872 145.163 38.5284V39.3977C145.163 40.1392 145.291 40.7678 145.547 41.2834C145.807 41.7947 146.167 42.1847 146.627 42.4531C147.087 42.7173 147.622 42.8494 148.232 42.8494C148.628 42.8494 148.986 42.794 149.305 42.6832C149.629 42.5682 149.908 42.3977 150.143 42.1719C150.377 41.9418 150.558 41.6562 150.686 41.3153L152.143 41.7244C151.99 42.2188 151.732 42.6534 151.37 43.0284C151.008 43.3991 150.56 43.6889 150.028 43.8977C149.495 44.1023 148.896 44.2045 148.232 44.2045ZM154.592 44V34.1818H156.049V35.6648H156.151C156.33 35.179 156.654 34.7848 157.123 34.4822C157.592 34.1797 158.12 34.0284 158.708 34.0284C158.819 34.0284 158.957 34.0305 159.124 34.0348C159.29 34.0391 159.415 34.0455 159.501 34.054V35.5881C159.45 35.5753 159.332 35.5561 159.149 35.5305C158.97 35.5007 158.781 35.4858 158.58 35.4858C158.103 35.4858 157.677 35.5859 157.302 35.7862C156.931 35.9822 156.637 36.255 156.42 36.6044C156.207 36.9496 156.1 37.3437 156.1 37.7869V44H154.592ZM172.999 41.5455V40.8551C172.999 40.3778 173.097 39.9411 173.293 39.5447C173.493 39.1442 173.783 38.8246 174.162 38.5859C174.546 38.343 175.01 38.2216 175.556 38.2216C176.11 38.2216 176.574 38.343 176.949 38.5859C177.324 38.8246 177.608 39.1442 177.8 39.5447C177.991 39.9411 178.087 40.3778 178.087 40.8551V41.5455C178.087 42.0227 177.989 42.4616 177.793 42.8622C177.601 43.2585 177.316 43.5781 176.937 43.821C176.562 44.0597 176.101 44.179 175.556 44.179C175.002 44.179 174.535 44.0597 174.156 43.821C173.777 43.5781 173.489 43.2585 173.293 42.8622C173.097 42.4616 172.999 42.0227 172.999 41.5455ZM174.303 40.8551V41.5455C174.303 41.9418 174.397 42.2976 174.584 42.6129C174.772 42.924 175.096 43.0795 175.556 43.0795C176.003 43.0795 176.319 42.924 176.502 42.6129C176.689 42.2976 176.783 41.9418 176.783 41.5455V40.8551C176.783 40.4588 176.694 40.1051 176.515 39.794C176.336 39.4787 176.016 39.321 175.556 39.321C175.108 39.321 174.787 39.4787 174.591 39.794C174.399 40.1051 174.303 40.4588 174.303 40.8551ZM166.479 34.054V33.3636C166.479 32.8864 166.577 32.4496 166.773 32.0533C166.974 31.6527 167.263 31.3331 167.643 31.0945C168.026 30.8516 168.491 30.7301 169.036 30.7301C169.59 30.7301 170.055 30.8516 170.43 31.0945C170.805 31.3331 171.088 31.6527 171.28 32.0533C171.471 32.4496 171.567 32.8864 171.567 33.3636V34.054C171.567 34.5312 171.469 34.9702 171.273 35.3707C171.081 35.767 170.796 36.0866 170.417 36.3295C170.042 36.5682 169.581 36.6875 169.036 36.6875C168.482 36.6875 168.015 36.5682 167.636 36.3295C167.257 36.0866 166.969 35.767 166.773 35.3707C166.577 34.9702 166.479 34.5312 166.479 34.054ZM167.783 33.3636V34.054C167.783 34.4503 167.877 34.8061 168.064 35.1214C168.252 35.4325 168.576 35.5881 169.036 35.5881C169.483 35.5881 169.799 35.4325 169.982 35.1214C170.17 34.8061 170.263 34.4503 170.263 34.054V33.3636C170.263 32.9673 170.174 32.6136 169.995 32.3026C169.816 31.9872 169.496 31.8295 169.036 31.8295C168.589 31.8295 168.267 31.9872 168.071 32.3026C167.879 32.6136 167.783 32.9673 167.783 33.3636ZM166.965 44L175.965 30.9091H177.422L168.422 44H166.965ZM186.013 44V42.8494L190.334 38.1193C190.841 37.5653 191.259 37.0838 191.587 36.6747C191.915 36.2614 192.158 35.8736 192.316 35.5114C192.478 35.1449 192.559 34.7614 192.559 34.3608C192.559 33.9006 192.448 33.5021 192.226 33.1655C192.009 32.8288 191.711 32.5689 191.331 32.3857C190.952 32.2024 190.526 32.1108 190.053 32.1108C189.55 32.1108 189.111 32.2152 188.736 32.424C188.366 32.6286 188.078 32.9162 187.873 33.2869C187.673 33.6577 187.573 34.0923 187.573 34.5909H186.064C186.064 33.8239 186.241 33.1506 186.595 32.571C186.949 31.9915 187.43 31.5398 188.04 31.2159C188.653 30.892 189.341 30.7301 190.104 30.7301C190.871 30.7301 191.551 30.892 192.143 31.2159C192.736 31.5398 193.2 31.9766 193.537 32.5263C193.873 33.076 194.042 33.6875 194.042 34.3608C194.042 34.8423 193.954 35.3132 193.78 35.7734C193.609 36.2294 193.311 36.7386 192.885 37.3011C192.463 37.8594 191.877 38.5412 191.127 39.3466L188.187 42.4915V42.5938H194.272V44H186.013ZM202.613 36.2528V34.8722H210.488V36.2528H202.613ZM202.613 40.0369V38.6562H210.488V40.0369H202.613ZM214.479 36.2528V34.8722H222.354V36.2528H214.479ZM214.479 40.0369V38.6562H222.354V40.0369H214.479ZM235.037 44.179C234.074 44.179 233.254 43.9169 232.576 43.3928C231.899 42.8643 231.381 42.0994 231.023 41.098C230.665 40.0923 230.486 38.8778 230.486 37.4545C230.486 36.0398 230.665 34.8317 231.023 33.8303C231.385 32.8246 231.905 32.0575 232.583 31.5291C233.264 30.9964 234.083 30.7301 235.037 30.7301C235.992 30.7301 236.808 30.9964 237.485 31.5291C238.167 32.0575 238.687 32.8246 239.045 33.8303C239.407 34.8317 239.588 36.0398 239.588 37.4545C239.588 38.8778 239.409 40.0923 239.051 41.098C238.693 42.0994 238.176 42.8643 237.498 43.3928C236.82 43.9169 236 44.179 235.037 44.179ZM235.037 42.7727C235.992 42.7727 236.733 42.3125 237.262 41.392C237.79 40.4716 238.054 39.1591 238.054 37.4545C238.054 36.321 237.933 35.3558 237.69 34.5589C237.451 33.7621 237.106 33.1548 236.654 32.7372C236.207 32.3196 235.668 32.1108 235.037 32.1108C234.091 32.1108 233.352 32.5774 232.819 33.5107C232.286 34.4396 232.02 35.7543 232.02 37.4545C232.02 38.5881 232.139 39.5511 232.378 40.3438C232.617 41.1364 232.96 41.7393 233.407 42.1527C233.859 42.5661 234.402 42.7727 235.037 42.7727ZM1.08665 104V94.1818H3.80966V104H1.08665ZM2.45455 92.9162C2.04972 92.9162 1.70241 92.782 1.41264 92.5135C1.12713 92.2408 0.984375 91.9148 0.984375 91.5355C0.984375 91.1605 1.12713 90.8388 1.41264 90.5703C1.70241 90.2976 2.04972 90.1612 2.45455 90.1612C2.85938 90.1612 3.20455 90.2976 3.49006 90.5703C3.77983 90.8388 3.92472 91.1605 3.92472 91.5355C3.92472 91.9148 3.77983 92.2408 3.49006 92.5135C3.20455 92.782 2.85938 92.9162 2.45455 92.9162ZM11.2708 94.1818V96.2273H5.21112V94.1818H11.2708ZM6.59819 104V93.4723C6.59819 92.7607 6.73668 92.1705 7.01367 91.7017C7.29492 91.233 7.67844 90.8814 8.16424 90.647C8.65004 90.4126 9.20188 90.2955 9.81978 90.2955C10.2374 90.2955 10.6188 90.3274 10.964 90.3913C11.3134 90.4553 11.5733 90.5128 11.7438 90.5639L11.258 92.6094C11.1515 92.5753 11.0194 92.5433 10.8617 92.5135C10.7083 92.4837 10.5506 92.4688 10.3887 92.4688C9.9881 92.4688 9.70898 92.5625 9.55131 92.75C9.39364 92.9332 9.31481 93.1911 9.31481 93.5234V104H6.59819ZM22.2795 104.205C21.359 104.205 20.5664 103.987 19.9016 103.553C19.2369 103.118 18.7255 102.519 18.3675 101.756C18.0096 100.994 17.8306 100.122 17.8306 99.142C17.8306 98.1449 18.0138 97.2649 18.3803 96.5021C18.7511 95.7351 19.2667 95.1364 19.9272 94.706C20.592 94.2713 21.3675 94.054 22.2539 94.054C22.9442 94.054 23.5664 94.1818 24.1204 94.4375C24.6744 94.6932 25.1282 95.0511 25.4819 95.5114C25.8356 95.9716 26.055 96.5085 26.1403 97.1222H24.6317C24.5167 96.6747 24.261 96.2784 23.8647 95.9332C23.4727 95.5838 22.9442 95.4091 22.2795 95.4091C21.6914 95.4091 21.1758 95.5625 20.7326 95.8693C20.2937 96.1719 19.9506 96.6001 19.7035 97.1541C19.4606 97.7038 19.3391 98.3494 19.3391 99.0909C19.3391 99.8494 19.4585 100.51 19.6971 101.072C19.94 101.635 20.2809 102.072 20.7198 102.383C21.163 102.694 21.6829 102.849 22.2795 102.849C22.6715 102.849 23.0273 102.781 23.3469 102.645C23.6665 102.509 23.9371 102.312 24.1587 102.057C24.3803 101.801 24.538 101.494 24.6317 101.136H26.1403C26.055 101.716 25.8441 102.238 25.5075 102.702C25.1751 103.163 24.734 103.529 24.1843 103.802C23.6388 104.07 23.0039 104.205 22.2795 104.205ZM29.854 98.0938V104H28.3455V90.9091H29.854V95.7159H29.9819C30.212 95.2088 30.5572 94.8061 31.0174 94.5078C31.4819 94.2053 32.0998 94.054 32.8711 94.054C33.5401 94.054 34.1261 94.1882 34.6289 94.4567C35.1317 94.7209 35.5217 95.1278 35.7987 95.6776C36.0799 96.223 36.2205 96.9176 36.2205 97.7614V104H34.712V97.8636C34.712 97.0838 34.5096 96.4808 34.1048 96.0547C33.7042 95.6243 33.1481 95.4091 32.4364 95.4091C31.9421 95.4091 31.4989 95.5135 31.1069 95.7223C30.7191 95.9311 30.4123 96.2358 30.1864 96.6364C29.9648 97.0369 29.854 97.5227 29.854 98.0938ZM43.0968 104.205C42.1507 104.205 41.3347 103.996 40.6486 103.578C39.9668 103.156 39.4405 102.568 39.0698 101.814C38.7033 101.055 38.5201 100.173 38.5201 99.1676C38.5201 98.1619 38.7033 97.2756 39.0698 96.5085C39.4405 95.7372 39.9561 95.1364 40.6167 94.706C41.2814 94.2713 42.057 94.054 42.9434 94.054C43.4547 94.054 43.9597 94.1392 44.4583 94.3097C44.9569 94.4801 45.4107 94.7571 45.8198 95.1406C46.2289 95.5199 46.5549 96.0227 46.7978 96.6491C47.0407 97.2756 47.1621 98.0469 47.1621 98.9631V99.6023H39.5939V98.2983H45.628C45.628 97.7443 45.5172 97.25 45.2956 96.8153C45.0783 96.3807 44.7672 96.0376 44.3624 95.7862C43.9618 95.5348 43.4888 95.4091 42.9434 95.4091C42.3425 95.4091 41.8226 95.5582 41.3837 95.8565C40.949 96.1506 40.6145 96.5341 40.3801 97.0071C40.1458 97.4801 40.0286 97.9872 40.0286 98.5284V99.3977C40.0286 100.139 40.1564 100.768 40.4121 101.283C40.6721 101.795 41.0321 102.185 41.4924 102.453C41.9526 102.717 42.4874 102.849 43.0968 102.849C43.4931 102.849 43.851 102.794 44.1706 102.683C44.4945 102.568 44.7736 102.398 45.008 102.172C45.2424 101.942 45.4235 101.656 45.5513 101.315L47.0087 101.724C46.8553 102.219 46.5975 102.653 46.2353 103.028C45.873 103.399 45.4256 103.689 44.8929 103.898C44.3603 104.102 43.7615 104.205 43.0968 104.205ZM53.4455 104.205C52.525 104.205 51.7324 103.987 51.0676 103.553C50.4029 103.118 49.8915 102.519 49.5336 101.756C49.1756 100.994 48.9966 100.122 48.9966 99.142C48.9966 98.1449 49.1799 97.2649 49.5463 96.5021C49.9171 95.7351 50.4327 95.1364 51.0932 94.706C51.758 94.2713 52.5336 94.054 53.4199 94.054C54.1103 94.054 54.7324 94.1818 55.2864 94.4375C55.8404 94.6932 56.2942 95.0511 56.6479 95.5114C57.0016 95.9716 57.2211 96.5085 57.3063 97.1222H55.7978C55.6827 96.6747 55.427 96.2784 55.0307 95.9332C54.6387 95.5838 54.1103 95.4091 53.4455 95.4091C52.8574 95.4091 52.3418 95.5625 51.8986 95.8693C51.4597 96.1719 51.1167 96.6001 50.8695 97.1541C50.6266 97.7038 50.5051 98.3494 50.5051 99.0909C50.5051 99.8494 50.6245 100.51 50.8631 101.072C51.106 101.635 51.4469 102.072 51.8858 102.383C52.329 102.694 52.8489 102.849 53.4455 102.849C53.8375 102.849 54.1934 102.781 54.513 102.645C54.8326 102.509 55.1032 102.312 55.3248 102.057C55.5463 101.801 55.704 101.494 55.7978 101.136H57.3063C57.2211 101.716 57.0101 102.238 56.6735 102.702C56.3411 103.163 55.9 103.529 55.3503 103.802C54.8049 104.07 54.1699 104.205 53.4455 104.205ZM60.9178 100.42L60.8922 98.554H61.199L65.4945 94.1818H67.361L62.7843 98.8097H62.6564L60.9178 100.42ZM59.5115 104V90.9091H61.0201V104H59.5115ZM65.7502 104L61.915 99.142L62.9888 98.0938L67.6678 104H65.7502ZM76.0781 104V105.406H67.8963V104H76.0781ZM81.5577 104.205C80.6117 104.205 79.7956 103.996 79.1096 103.578C78.4277 103.156 77.9015 102.568 77.5307 101.814C77.1642 101.055 76.981 100.173 76.981 99.1676C76.981 98.1619 77.1642 97.2756 77.5307 96.5085C77.9015 95.7372 78.4171 95.1364 79.0776 94.706C79.7424 94.2713 80.5179 94.054 81.4043 94.054C81.9157 94.054 82.4206 94.1392 82.9192 94.3097C83.4178 94.4801 83.8716 94.7571 84.2807 95.1406C84.6898 95.5199 85.0158 96.0227 85.2587 96.6491C85.5016 97.2756 85.623 98.0469 85.623 98.9631V99.6023H78.0549V98.2983H84.089C84.089 97.7443 83.9782 97.25 83.7566 96.8153C83.5392 96.3807 83.2282 96.0376 82.8233 95.7862C82.4228 95.5348 81.9498 95.4091 81.4043 95.4091C80.8034 95.4091 80.2836 95.5582 79.8446 95.8565C79.41 96.1506 79.0755 96.5341 78.8411 97.0071C78.6067 97.4801 78.4895 97.9872 78.4895 98.5284V99.3977C78.4895 100.139 78.6174 100.768 78.873 101.283C79.133 101.795 79.4931 102.185 79.9533 102.453C80.4135 102.717 80.9483 102.849 81.5577 102.849C81.954 102.849 82.312 102.794 82.6316 102.683C82.9554 102.568 83.2346 102.398 83.4689 102.172C83.7033 101.942 83.8844 101.656 84.0123 101.315L85.4696 101.724C85.3162 102.219 85.0584 102.653 84.6962 103.028C84.334 103.399 83.8865 103.689 83.3539 103.898C82.8212 104.102 82.2225 104.205 81.5577 104.205ZM95.6474 94.1818L92.0167 104H90.4826L86.8519 94.1818H88.4883L91.1985 102.006H91.3008L94.011 94.1818H95.6474ZM101.403 104.205C100.457 104.205 99.6413 103.996 98.9553 103.578C98.2734 103.156 97.7472 102.568 97.3764 101.814C97.0099 101.055 96.8267 100.173 96.8267 99.1676C96.8267 98.1619 97.0099 97.2756 97.3764 96.5085C97.7472 95.7372 98.2628 95.1364 98.9233 94.706C99.5881 94.2713 100.364 94.054 101.25 94.054C101.761 94.054 102.266 94.1392 102.765 94.3097C103.263 94.4801 103.717 94.7571 104.126 95.1406C104.536 95.5199 104.862 96.0227 105.104 96.6491C105.347 97.2756 105.469 98.0469 105.469 98.9631V99.6023H97.9006V98.2983H103.935C103.935 97.7443 103.824 97.25 103.602 96.8153C103.385 96.3807 103.074 96.0376 102.669 95.7862C102.268 95.5348 101.795 95.4091 101.25 95.4091C100.649 95.4091 100.129 95.5582 99.6903 95.8565C99.2557 96.1506 98.9212 96.5341 98.6868 97.0071C98.4524 97.4801 98.3352 97.9872 98.3352 98.5284V99.3977C98.3352 100.139 98.4631 100.768 98.7188 101.283C98.9787 101.795 99.3388 102.185 99.799 102.453C100.259 102.717 100.794 102.849 101.403 102.849C101.8 102.849 102.158 102.794 102.477 102.683C102.801 102.568 103.08 102.398 103.315 102.172C103.549 101.942 103.73 101.656 103.858 101.315L105.315 101.724C105.162 102.219 104.904 102.653 104.542 103.028C104.18 103.399 103.732 103.689 103.2 103.898C102.667 104.102 102.068 104.205 101.403 104.205ZM109.272 98.0938V104H107.763V94.1818H109.221V95.7159H109.349C109.579 95.2173 109.928 94.8168 110.397 94.5142C110.866 94.2074 111.471 94.054 112.212 94.054C112.877 94.054 113.459 94.1903 113.957 94.4631C114.456 94.7315 114.844 95.1406 115.121 95.6903C115.398 96.2358 115.536 96.9261 115.536 97.7614V104H114.028V97.8636C114.028 97.0923 113.827 96.4915 113.427 96.0611C113.026 95.6264 112.477 95.4091 111.778 95.4091C111.296 95.4091 110.866 95.5135 110.487 95.7223C110.112 95.9311 109.815 96.2358 109.598 96.6364C109.381 97.0369 109.272 97.5227 109.272 98.0938ZM118.83 98.4773C118.83 96.8665 119.039 95.3857 119.456 94.0348C119.878 92.6797 120.479 91.4332 121.259 90.2955H122.588C122.281 90.7173 121.994 91.2372 121.725 91.8551C121.461 92.4687 121.229 93.1442 121.029 93.8814C120.828 94.6143 120.671 95.3729 120.556 96.157C120.445 96.9411 120.389 97.7145 120.389 98.4773C120.389 99.4915 120.487 100.521 120.683 101.565C120.879 102.609 121.144 103.578 121.476 104.473C121.808 105.368 122.179 106.097 122.588 106.659H121.259C120.479 105.521 119.878 104.277 119.456 102.926C119.039 101.571 118.83 100.088 118.83 98.4773ZM126.323 98.0938V104H124.814V94.1818H126.272V95.7159H126.4C126.63 95.2173 126.979 94.8168 127.448 94.5142C127.917 94.2074 128.522 94.054 129.263 94.054C129.928 94.054 130.51 94.1903 131.008 94.4631C131.507 94.7315 131.895 95.1406 132.172 95.6903C132.449 96.2358 132.587 96.9261 132.587 97.7614V104H131.078V97.8636C131.078 97.0923 130.878 96.4915 130.478 96.0611C130.077 95.6264 129.527 95.4091 128.828 95.4091C128.347 95.4091 127.917 95.5135 127.537 95.7223C127.162 95.9311 126.866 96.2358 126.649 96.6364C126.431 97.0369 126.323 97.5227 126.323 98.0938ZM141.531 99.9858V94.1818H143.04V104H141.531V102.338H141.429C141.199 102.837 140.841 103.261 140.355 103.61C139.869 103.955 139.256 104.128 138.514 104.128C137.9 104.128 137.355 103.994 136.878 103.725C136.4 103.452 136.025 103.043 135.753 102.498C135.48 101.948 135.344 101.256 135.344 100.42V94.1818H136.852V100.318C136.852 101.034 137.052 101.605 137.453 102.031C137.858 102.457 138.373 102.67 139 102.67C139.375 102.67 139.756 102.575 140.144 102.383C140.536 102.191 140.864 101.897 141.128 101.501C141.397 101.104 141.531 100.599 141.531 99.9858ZM145.803 104V94.1818H147.26V95.7159H147.388C147.592 95.1918 147.923 94.7848 148.379 94.495C148.835 94.201 149.382 94.054 150.021 94.054C150.669 94.054 151.208 94.201 151.638 94.495C152.073 94.7848 152.412 95.1918 152.655 95.7159H152.757C153.009 95.2088 153.386 94.8061 153.888 94.5078C154.391 94.2053 154.994 94.054 155.697 94.054C156.575 94.054 157.293 94.3288 157.852 94.8786C158.41 95.424 158.689 96.2741 158.689 97.429V104H157.18V97.429C157.18 96.7045 156.982 96.1868 156.586 95.8757C156.19 95.5646 155.723 95.4091 155.186 95.4091C154.496 95.4091 153.961 95.6179 153.582 96.0355C153.202 96.4489 153.013 96.973 153.013 97.608V104H151.479V97.2756C151.479 96.7173 151.298 96.2678 150.935 95.9268C150.573 95.5817 150.107 95.4091 149.536 95.4091C149.143 95.4091 148.777 95.5135 148.436 95.7223C148.099 95.9311 147.827 96.2209 147.618 96.5916C147.413 96.9581 147.311 97.3821 147.311 97.8636V104H145.803ZM161.652 104V90.9091H163.16V95.7415H163.288C163.399 95.571 163.552 95.3537 163.748 95.0895C163.949 94.821 164.234 94.5824 164.605 94.3736C164.98 94.1605 165.487 94.054 166.126 94.054C166.953 94.054 167.681 94.2607 168.312 94.674C168.943 95.0874 169.435 95.6733 169.789 96.4318C170.142 97.1903 170.319 98.0852 170.319 99.1165C170.319 100.156 170.142 101.058 169.789 101.82C169.435 102.579 168.945 103.167 168.319 103.585C167.692 103.998 166.97 104.205 166.152 104.205C165.521 104.205 165.016 104.1 164.637 103.891C164.257 103.678 163.966 103.437 163.761 103.169C163.556 102.896 163.399 102.67 163.288 102.491H163.109V104H161.652ZM163.135 99.0909C163.135 99.8324 163.243 100.487 163.461 101.053C163.678 101.616 163.995 102.057 164.413 102.376C164.831 102.692 165.342 102.849 165.947 102.849C166.578 102.849 167.104 102.683 167.526 102.351C167.952 102.014 168.272 101.562 168.485 100.996C168.702 100.425 168.811 99.7898 168.811 99.0909C168.811 98.4006 168.704 97.7784 168.491 97.2244C168.282 96.6662 167.965 96.2251 167.539 95.9013C167.117 95.5732 166.586 95.4091 165.947 95.4091C165.333 95.4091 164.818 95.5646 164.4 95.8757C163.983 96.1825 163.667 96.6129 163.454 97.1669C163.241 97.7166 163.135 98.358 163.135 99.0909ZM176.743 104.205C175.797 104.205 174.981 103.996 174.295 103.578C173.613 103.156 173.087 102.568 172.716 101.814C172.35 101.055 172.167 100.173 172.167 99.1676C172.167 98.1619 172.35 97.2756 172.716 96.5085C173.087 95.7372 173.603 95.1364 174.263 94.706C174.928 94.2713 175.703 94.054 176.59 94.054C177.101 94.054 177.606 94.1392 178.105 94.3097C178.603 94.4801 179.057 94.7571 179.466 95.1406C179.875 95.5199 180.201 96.0227 180.444 96.6491C180.687 97.2756 180.809 98.0469 180.809 98.9631V99.6023H173.24V98.2983H179.275C179.275 97.7443 179.164 97.25 178.942 96.8153C178.725 96.3807 178.414 96.0376 178.009 95.7862C177.608 95.5348 177.135 95.4091 176.59 95.4091C175.989 95.4091 175.469 95.5582 175.03 95.8565C174.596 96.1506 174.261 96.5341 174.027 97.0071C173.792 97.4801 173.675 97.9872 173.675 98.5284V99.3977C173.675 100.139 173.803 100.768 174.059 101.283C174.319 101.795 174.679 102.185 175.139 102.453C175.599 102.717 176.134 102.849 176.743 102.849C177.14 102.849 177.498 102.794 177.817 102.683C178.141 102.568 178.42 102.398 178.654 102.172C178.889 101.942 179.07 101.656 179.198 101.315L180.655 101.724C180.502 102.219 180.244 102.653 179.882 103.028C179.52 103.399 179.072 103.689 178.539 103.898C178.007 104.102 177.408 104.205 176.743 104.205ZM183.103 104V94.1818H184.561V95.6648H184.663C184.842 95.179 185.166 94.7848 185.635 94.4822C186.103 94.1797 186.632 94.0284 187.22 94.0284C187.331 94.0284 187.469 94.0305 187.635 94.0348C187.801 94.0391 187.927 94.0455 188.012 94.054V95.5881C187.961 95.5753 187.844 95.5561 187.661 95.5305C187.482 95.5007 187.292 95.4858 187.092 95.4858C186.615 95.4858 186.189 95.5859 185.814 95.7862C185.443 95.9822 185.149 96.255 184.931 96.6044C184.718 96.9496 184.612 97.3437 184.612 97.7869V104H183.103ZM193.022 98.4773C193.022 100.088 192.811 101.571 192.389 102.926C191.972 104.277 191.373 105.521 190.593 106.659H189.264C189.57 106.237 189.856 105.717 190.12 105.099C190.389 104.486 190.623 103.812 190.823 103.08C191.024 102.342 191.179 101.582 191.29 100.798C191.405 100.009 191.463 99.2358 191.463 98.4773C191.463 97.4631 191.365 96.4339 191.169 95.3899C190.972 94.3459 190.708 93.3764 190.376 92.4815C190.044 91.5866 189.673 90.858 189.264 90.2955H190.593C191.373 91.4332 191.972 92.6797 192.389 94.0348C192.811 95.3857 193.022 96.8665 193.022 98.4773ZM197.422 104.102C197.106 104.102 196.836 103.989 196.61 103.763C196.384 103.538 196.271 103.267 196.271 102.952C196.271 102.636 196.384 102.366 196.61 102.14C196.836 101.914 197.106 101.801 197.422 101.801C197.737 101.801 198.007 101.914 198.233 102.14C198.459 102.366 198.572 102.636 198.572 102.952C198.572 103.161 198.519 103.352 198.412 103.527C198.31 103.702 198.172 103.842 197.997 103.949C197.826 104.051 197.635 104.102 197.422 104.102ZM197.422 96.8153C197.106 96.8153 196.836 96.7024 196.61 96.4766C196.384 96.2507 196.271 95.9801 196.271 95.6648C196.271 95.3494 196.384 95.0788 196.61 94.853C196.836 94.6271 197.106 94.5142 197.422 94.5142C197.737 94.5142 198.007 94.6271 198.233 94.853C198.459 95.0788 198.572 95.3494 198.572 95.6648C198.572 95.8736 198.519 96.0653 198.412 96.2401C198.31 96.4148 198.172 96.5554 197.997 96.6619C197.826 96.7642 197.635 96.8153 197.422 96.8153ZM36.8182 137.682V124.182H38.2756V125.741H38.4545C38.5653 125.571 38.7188 125.354 38.9148 125.089C39.1151 124.821 39.4006 124.582 39.7713 124.374C40.1463 124.161 40.6534 124.054 41.2926 124.054C42.1193 124.054 42.848 124.261 43.4787 124.674C44.1094 125.087 44.6016 125.673 44.9553 126.432C45.3089 127.19 45.4858 128.085 45.4858 129.116C45.4858 130.156 45.3089 131.058 44.9553 131.82C44.6016 132.579 44.1115 133.167 43.4851 133.585C42.8587 133.998 42.1364 134.205 41.3182 134.205C40.6875 134.205 40.1825 134.1 39.8033 133.891C39.424 133.678 39.1321 133.437 38.9276 133.169C38.723 132.896 38.5653 132.67 38.4545 132.491H38.3267V137.682H36.8182ZM38.3011 129.091C38.3011 129.832 38.4098 130.487 38.6271 131.053C38.8445 131.616 39.1619 132.057 39.5795 132.376C39.9972 132.692 40.5085 132.849 41.1136 132.849C41.7443 132.849 42.2706 132.683 42.6925 132.351C43.1186 132.014 43.4382 131.562 43.6513 130.996C43.8686 130.425 43.9773 129.79 43.9773 129.091C43.9773 128.401 43.8707 127.778 43.6577 127.224C43.4489 126.666 43.1314 126.225 42.7053 125.901C42.2834 125.573 41.7528 125.409 41.1136 125.409C40.5 125.409 39.9844 125.565 39.5668 125.876C39.1491 126.183 38.8338 126.613 38.6207 127.167C38.4077 127.717 38.3011 128.358 38.3011 129.091ZM47.7869 134V124.182H49.2443V125.665H49.3466C49.5256 125.179 49.8494 124.785 50.3182 124.482C50.7869 124.18 51.3153 124.028 51.9034 124.028C52.0142 124.028 52.1527 124.031 52.3189 124.035C52.4851 124.039 52.6108 124.045 52.696 124.054V125.588C52.6449 125.575 52.5277 125.556 52.3445 125.531C52.1655 125.501 51.9759 125.486 51.7756 125.486C51.2983 125.486 50.8722 125.586 50.4972 125.786C50.1264 125.982 49.8324 126.255 49.6151 126.604C49.402 126.95 49.2955 127.344 49.2955 127.787V134H47.7869ZM54.4842 134V124.182H55.9927V134H54.4842ZM55.2512 122.545C54.9572 122.545 54.7037 122.445 54.4906 122.245C54.2818 122.045 54.1774 121.804 54.1774 121.523C54.1774 121.241 54.2818 121.001 54.4906 120.8C54.7037 120.6 54.9572 120.5 55.2512 120.5C55.5453 120.5 55.7967 120.6 56.0055 120.8C56.2186 121.001 56.3251 121.241 56.3251 121.523C56.3251 121.804 56.2186 122.045 56.0055 122.245C55.7967 122.445 55.5453 122.545 55.2512 122.545ZM60.2642 128.094V134H58.7557V124.182H60.2131V125.716H60.3409C60.571 125.217 60.9205 124.817 61.3892 124.514C61.858 124.207 62.4631 124.054 63.2045 124.054C63.8693 124.054 64.451 124.19 64.9496 124.463C65.4482 124.732 65.8359 125.141 66.1129 125.69C66.3899 126.236 66.5284 126.926 66.5284 127.761V134H65.0199V127.864C65.0199 127.092 64.8196 126.491 64.419 126.061C64.0185 125.626 63.4688 125.409 62.7699 125.409C62.2884 125.409 61.858 125.513 61.4787 125.722C61.1037 125.931 60.8075 126.236 60.5902 126.636C60.3729 127.037 60.2642 127.523 60.2642 128.094ZM73.5549 124.182V125.46H68.4668V124.182H73.5549ZM69.9498 121.83H71.4583V131.188C71.4583 131.614 71.5201 131.933 71.6436 132.146C71.7715 132.355 71.9334 132.496 72.1294 132.568C72.3297 132.636 72.5407 132.67 72.7623 132.67C72.9284 132.67 73.0648 132.662 73.1713 132.645C73.2779 132.624 73.3631 132.607 73.427 132.594L73.7338 133.949C73.6316 133.987 73.4888 134.026 73.3056 134.064C73.1223 134.107 72.8901 134.128 72.6088 134.128C72.1827 134.128 71.7651 134.036 71.356 133.853C70.9512 133.67 70.6145 133.391 70.3461 133.016C70.0819 132.641 69.9498 132.168 69.9498 131.597V121.83ZM76.361 128.477C76.361 126.866 76.5698 125.386 76.9874 124.035C77.4093 122.68 78.0101 121.433 78.79 120.295H80.1195C79.8127 120.717 79.525 121.237 79.2566 121.855C78.9924 122.469 78.7601 123.144 78.5598 123.881C78.3596 124.614 78.2019 125.373 78.0868 126.157C77.976 126.941 77.9206 127.714 77.9206 128.477C77.9206 129.491 78.0186 130.521 78.2147 131.565C78.4107 132.609 78.6749 133.578 79.0073 134.473C79.3397 135.368 79.7104 136.097 80.1195 136.659H78.79C78.0101 135.521 77.4093 134.277 76.9874 132.926C76.5698 131.571 76.361 130.088 76.361 128.477ZM83.6495 120.909V125.409H82.2433V120.909H83.6495ZM86.9222 120.909V125.409H85.516V120.909H86.9222ZM91.5366 120.968H92.6346V122.408C92.6346 124.442 91.8606 127.016 89.7546 128.168L88.9626 127.07C90.7986 126.08 91.5366 123.956 91.5366 122.408V120.968ZM91.8786 120.968H92.9586V122.408C92.9586 123.758 93.3726 126.026 95.1366 127.196L94.4346 128.312C92.3466 127.016 91.8786 124.19 91.8786 122.408V120.968ZM95.9106 120.968H96.9726V122.408C96.9726 124.28 96.5226 127.052 94.4346 128.312L93.7506 127.196C95.4966 126.062 95.9106 123.848 95.9106 122.408V120.968ZM96.2346 120.968H97.3506V122.408C97.3506 124.01 98.0706 126.098 99.9246 127.07L99.1146 128.168C97.0086 127.034 96.2346 124.514 96.2346 122.408V120.968ZM100.591 119.132H102.085V128.924H100.591V119.132ZM101.329 123.38H104.137V124.64H101.329V123.38ZM91.1766 129.662H102.085V135.404H100.591V130.886H91.1766V129.662ZM89.5026 120.356H94.0926V121.562H89.5026V120.356ZM94.7946 120.356H99.3126V121.562H94.7946V120.356ZM112.253 119.708H113.567V120.608C113.567 123.722 110.399 125.954 107.015 126.53L106.421 125.324C109.391 124.874 112.253 122.93 112.253 120.608V119.708ZM112.523 119.708H113.819V120.608C113.819 122.876 116.717 124.874 119.651 125.324L119.057 126.53C115.709 125.954 112.523 123.686 112.523 120.608V119.708ZM112.253 129.212H113.729V135.404H112.253V129.212ZM105.683 128.294H120.389V129.536H105.683V128.294ZM134.068 119.132H135.58V127.862H134.068V119.132ZM125.086 128.672H126.562V130.652H134.104V128.672H135.58V135.188H125.086V128.672ZM126.562 131.84V133.982H134.104V131.84H126.562ZM126.85 119.906C129.316 119.906 131.08 121.436 131.08 123.65C131.08 125.882 129.316 127.412 126.85 127.412C124.384 127.412 122.602 125.882 122.602 123.65C122.602 121.436 124.384 119.906 126.85 119.906ZM126.85 121.148C125.23 121.148 124.06 122.174 124.06 123.65C124.06 125.126 125.23 126.152 126.85 126.152C128.47 126.152 129.64 125.126 129.64 123.65C129.64 122.174 128.47 121.148 126.85 121.148ZM150.626 119.132H152.12V135.404H150.626V119.132ZM139.826 120.716H141.302V130.796H139.826V120.716ZM139.826 129.914H141.158C143.624 129.914 146.198 129.734 148.952 129.158L149.132 130.436C146.306 131.012 143.732 131.21 141.158 131.21H139.826V129.914ZM166.357 119.114H167.869V135.422H166.357V119.114ZM167.509 125.54H170.533V126.8H167.509V125.54ZM156.043 130.112H157.321C160.327 130.112 162.433 130.004 164.863 129.554L165.025 130.814C162.523 131.282 160.381 131.372 157.321 131.372H156.043V130.112ZM156.043 120.698H163.603V121.922H157.519V130.67H156.043V120.698ZM173.498 134.102C173.182 134.102 172.912 133.989 172.686 133.763C172.46 133.538 172.347 133.267 172.347 132.952C172.347 132.636 172.46 132.366 172.686 132.14C172.912 131.914 173.182 131.801 173.498 131.801C173.813 131.801 174.084 131.914 174.309 132.14C174.535 132.366 174.648 132.636 174.648 132.952C174.648 133.161 174.595 133.352 174.488 133.527C174.386 133.702 174.248 133.842 174.073 133.949C173.903 134.051 173.711 134.102 173.498 134.102ZM177.183 120.909V125.409H175.776V120.909H177.183ZM180.455 120.909V125.409H179.049V120.909H180.455ZM186.36 128.477C186.36 130.088 186.149 131.571 185.727 132.926C185.31 134.277 184.711 135.521 183.931 136.659H182.602C182.908 136.237 183.194 135.717 183.458 135.099C183.727 134.486 183.961 133.812 184.161 133.08C184.362 132.342 184.517 131.582 184.628 130.798C184.743 130.009 184.8 129.236 184.8 128.477C184.8 127.463 184.702 126.434 184.506 125.39C184.31 124.346 184.046 123.376 183.714 122.482C183.381 121.587 183.011 120.858 182.602 120.295H183.931C184.711 121.433 185.31 122.68 185.727 124.035C186.149 125.386 186.36 126.866 186.36 128.477ZM5.56108 164.192C4.55114 164.192 3.68182 163.987 2.95312 163.578C2.22869 163.165 1.67045 162.581 1.27841 161.827C0.886364 161.068 0.690341 160.171 0.690341 159.136C0.690341 158.126 0.886364 157.239 1.27841 156.477C1.67045 155.714 2.2223 155.119 2.93395 154.693C3.64986 154.267 4.48935 154.054 5.45241 154.054C6.10014 154.054 6.70313 154.158 7.26136 154.367C7.82386 154.572 8.31392 154.881 8.73153 155.294C9.15341 155.707 9.48153 156.227 9.71591 156.854C9.95028 157.476 10.0675 158.205 10.0675 159.04V159.788H1.77699V158.1H7.50426C7.50426 157.708 7.41903 157.361 7.24858 157.058C7.07813 156.756 6.84162 156.519 6.53906 156.349C6.24077 156.174 5.89347 156.087 5.49716 156.087C5.08381 156.087 4.71733 156.183 4.39773 156.374C4.08239 156.562 3.83523 156.815 3.65625 157.135C3.47727 157.45 3.38565 157.802 3.38139 158.19V159.794C3.38139 160.28 3.47088 160.7 3.64986 161.053C3.8331 161.407 4.09091 161.68 4.4233 161.871C4.75568 162.063 5.14986 162.159 5.60582 162.159C5.90838 162.159 6.18537 162.116 6.43679 162.031C6.68821 161.946 6.90341 161.818 7.08239 161.648C7.26136 161.477 7.39773 161.268 7.49148 161.021L10.0099 161.188C9.8821 161.793 9.62003 162.321 9.22372 162.773C8.83168 163.22 8.32457 163.57 7.70241 163.821C7.08452 164.068 6.37074 164.192 5.56108 164.192ZM14.5675 150.909V164H11.8445V150.909H14.5675ZM24.9178 156.982L22.4249 157.135C22.3823 156.922 22.2907 156.73 22.15 156.56C22.0094 156.385 21.824 156.246 21.5939 156.144C21.3681 156.038 21.0975 155.984 20.7821 155.984C20.3603 155.984 20.0044 156.074 19.7147 156.253C19.4249 156.428 19.28 156.662 19.28 156.956C19.28 157.19 19.3738 157.388 19.5613 157.55C19.7488 157.712 20.0705 157.842 20.5265 157.94L22.3034 158.298C23.258 158.494 23.9696 158.81 24.4384 159.244C24.9071 159.679 25.1415 160.25 25.1415 160.957C25.1415 161.601 24.9519 162.165 24.5726 162.651C24.1976 163.137 23.682 163.516 23.0257 163.789C22.3738 164.058 21.6216 164.192 20.7694 164.192C19.4696 164.192 18.4341 163.921 17.6628 163.38C16.8958 162.835 16.4462 162.093 16.3141 161.156L18.9924 161.015C19.0733 161.411 19.2694 161.714 19.5804 161.923C19.8915 162.127 20.29 162.229 20.7757 162.229C21.253 162.229 21.6365 162.138 21.9263 161.955C22.2203 161.767 22.3695 161.526 22.3738 161.232C22.3695 160.985 22.2651 160.783 22.0605 160.625C21.856 160.463 21.5407 160.339 21.1145 160.254L19.4142 159.915C18.4554 159.724 17.7417 159.391 17.2729 158.918C16.8084 158.445 16.5762 157.842 16.5762 157.109C16.5762 156.479 16.7466 155.935 17.0875 155.479C17.4327 155.023 17.9164 154.672 18.5385 154.425C19.165 154.178 19.8979 154.054 20.7374 154.054C21.9775 154.054 22.9533 154.316 23.665 154.84C24.3809 155.364 24.7985 156.078 24.9178 156.982ZM31.3306 164.192C30.3207 164.192 29.4513 163.987 28.7227 163.578C27.9982 163.165 27.44 162.581 27.0479 161.827C26.6559 161.068 26.4599 160.171 26.4599 159.136C26.4599 158.126 26.6559 157.239 27.0479 156.477C27.44 155.714 27.9918 155.119 28.7035 154.693C29.4194 154.267 30.2589 154.054 31.2219 154.054C31.8697 154.054 32.4727 154.158 33.0309 154.367C33.5934 154.572 34.0835 154.881 34.5011 155.294C34.9229 155.707 35.2511 156.227 35.4854 156.854C35.7198 157.476 35.837 158.205 35.837 159.04V159.788H27.5465V158.1H33.2738C33.2738 157.708 33.1886 157.361 33.0181 157.058C32.8477 156.756 32.6112 156.519 32.3086 156.349C32.0103 156.174 31.663 156.087 31.2667 156.087C30.8533 156.087 30.4869 156.183 30.1673 156.374C29.8519 156.562 29.6048 156.815 29.4258 157.135C29.2468 157.45 29.1552 157.802 29.1509 158.19V159.794C29.1509 160.28 29.2404 160.7 29.4194 161.053C29.6026 161.407 29.8604 161.68 30.1928 161.871C30.5252 162.063 30.9194 162.159 31.3754 162.159C31.6779 162.159 31.9549 162.116 32.2063 162.031C32.4577 161.946 32.6729 161.818 32.8519 161.648C33.0309 161.477 33.1673 161.268 33.261 161.021L35.7795 161.188C35.6516 161.793 35.3896 162.321 34.9933 162.773C34.6012 163.22 34.0941 163.57 33.4719 163.821C32.854 164.068 32.1403 164.192 31.3306 164.192ZM39.0075 164.102C38.6921 164.102 38.4215 163.989 38.1957 163.763C37.9698 163.538 37.8569 163.267 37.8569 162.952C37.8569 162.636 37.9698 162.366 38.1957 162.14C38.4215 161.914 38.6921 161.801 39.0075 161.801C39.3228 161.801 39.5934 161.914 39.8192 162.14C40.0451 162.366 40.158 162.636 40.158 162.952C40.158 163.161 40.1048 163.352 39.9982 163.527C39.896 163.702 39.7575 163.842 39.5827 163.949C39.4123 164.051 39.2205 164.102 39.0075 164.102ZM39.0075 156.815C38.6921 156.815 38.4215 156.702 38.1957 156.477C37.9698 156.251 37.8569 155.98 37.8569 155.665C37.8569 155.349 37.9698 155.079 38.1957 154.853C38.4215 154.627 38.6921 154.514 39.0075 154.514C39.3228 154.514 39.5934 154.627 39.8192 154.853C40.0451 155.079 40.158 155.349 40.158 155.665C40.158 155.874 40.1048 156.065 39.9982 156.24C39.896 156.415 39.7575 156.555 39.5827 156.662C39.4123 156.764 39.2205 156.815 39.0075 156.815ZM36.8182 197.682V184.182H38.2756V185.741H38.4545C38.5653 185.571 38.7188 185.354 38.9148 185.089C39.1151 184.821 39.4006 184.582 39.7713 184.374C40.1463 184.161 40.6534 184.054 41.2926 184.054C42.1193 184.054 42.848 184.261 43.4787 184.674C44.1094 185.087 44.6016 185.673 44.9553 186.432C45.3089 187.19 45.4858 188.085 45.4858 189.116C45.4858 190.156 45.3089 191.058 44.9553 191.82C44.6016 192.579 44.1115 193.167 43.4851 193.585C42.8587 193.998 42.1364 194.205 41.3182 194.205C40.6875 194.205 40.1825 194.1 39.8033 193.891C39.424 193.678 39.1321 193.437 38.9276 193.169C38.723 192.896 38.5653 192.67 38.4545 192.491H38.3267V197.682H36.8182ZM38.3011 189.091C38.3011 189.832 38.4098 190.487 38.6271 191.053C38.8445 191.616 39.1619 192.057 39.5795 192.376C39.9972 192.692 40.5085 192.849 41.1136 192.849C41.7443 192.849 42.2706 192.683 42.6925 192.351C43.1186 192.014 43.4382 191.562 43.6513 190.996C43.8686 190.425 43.9773 189.79 43.9773 189.091C43.9773 188.401 43.8707 187.778 43.6577 187.224C43.4489 186.666 43.1314 186.225 42.7053 185.901C42.2834 185.573 41.7528 185.409 41.1136 185.409C40.5 185.409 39.9844 185.565 39.5668 185.876C39.1491 186.183 38.8338 186.613 38.6207 187.167C38.4077 187.717 38.3011 188.358 38.3011 189.091ZM47.7869 194V184.182H49.2443V185.665H49.3466C49.5256 185.179 49.8494 184.785 50.3182 184.482C50.7869 184.18 51.3153 184.028 51.9034 184.028C52.0142 184.028 52.1527 184.031 52.3189 184.035C52.4851 184.039 52.6108 184.045 52.696 184.054V185.588C52.6449 185.575 52.5277 185.556 52.3445 185.531C52.1655 185.501 51.9759 185.486 51.7756 185.486C51.2983 185.486 50.8722 185.586 50.4972 185.786C50.1264 185.982 49.8324 186.255 49.6151 186.604C49.402 186.95 49.2955 187.344 49.2955 187.787V194H47.7869ZM54.4842 194V184.182H55.9927V194H54.4842ZM55.2512 182.545C54.9572 182.545 54.7037 182.445 54.4906 182.245C54.2818 182.045 54.1774 181.804 54.1774 181.523C54.1774 181.241 54.2818 181.001 54.4906 180.8C54.7037 180.6 54.9572 180.5 55.2512 180.5C55.5453 180.5 55.7967 180.6 56.0055 180.8C56.2186 181.001 56.3251 181.241 56.3251 181.523C56.3251 181.804 56.2186 182.045 56.0055 182.245C55.7967 182.445 55.5453 182.545 55.2512 182.545ZM60.2642 188.094V194H58.7557V184.182H60.2131V185.716H60.3409C60.571 185.217 60.9205 184.817 61.3892 184.514C61.858 184.207 62.4631 184.054 63.2045 184.054C63.8693 184.054 64.451 184.19 64.9496 184.463C65.4482 184.732 65.8359 185.141 66.1129 185.69C66.3899 186.236 66.5284 186.926 66.5284 187.761V194H65.0199V187.864C65.0199 187.092 64.8196 186.491 64.419 186.061C64.0185 185.626 63.4688 185.409 62.7699 185.409C62.2884 185.409 61.858 185.513 61.4787 185.722C61.1037 185.931 60.8075 186.236 60.5902 186.636C60.3729 187.037 60.2642 187.523 60.2642 188.094ZM73.5549 184.182V185.46H68.4668V184.182H73.5549ZM69.9498 181.83H71.4583V191.188C71.4583 191.614 71.5201 191.933 71.6436 192.146C71.7715 192.355 71.9334 192.496 72.1294 192.568C72.3297 192.636 72.5407 192.67 72.7623 192.67C72.9284 192.67 73.0648 192.662 73.1713 192.645C73.2779 192.624 73.3631 192.607 73.427 192.594L73.7338 193.949C73.6316 193.987 73.4888 194.026 73.3056 194.064C73.1223 194.107 72.8901 194.128 72.6088 194.128C72.1827 194.128 71.7651 194.036 71.356 193.853C70.9512 193.67 70.6145 193.391 70.3461 193.016C70.0819 192.641 69.9498 192.168 69.9498 191.597V181.83ZM76.361 188.477C76.361 186.866 76.5698 185.386 76.9874 184.035C77.4093 182.68 78.0101 181.433 78.79 180.295H80.1195C79.8127 180.717 79.525 181.237 79.2566 181.855C78.9924 182.469 78.7601 183.144 78.5598 183.881C78.3596 184.614 78.2019 185.373 78.0868 186.157C77.976 186.941 77.9206 187.714 77.9206 188.477C77.9206 189.491 78.0186 190.521 78.2147 191.565C78.4107 192.609 78.6749 193.578 79.0073 194.473C79.3397 195.368 79.7104 196.097 80.1195 196.659H78.79C78.0101 195.521 77.4093 194.277 76.9874 192.926C76.5698 191.571 76.361 190.088 76.361 188.477ZM83.6495 180.909V185.409H82.2433V180.909H83.6495ZM86.9222 180.909V185.409H85.516V180.909H86.9222ZM89.8806 180.266H102.967V181.364H89.8806V180.266ZM96.4686 182.012C99.8706 182.012 101.725 182.714 101.725 184.118C101.725 185.54 99.8706 186.224 96.4686 186.224C93.0486 186.224 91.2126 185.54 91.2126 184.118C91.2126 182.714 93.0486 182.012 96.4686 182.012ZM96.4686 183.02C94.0386 183.02 92.7786 183.416 92.7786 184.118C92.7786 184.856 94.0386 185.234 96.4686 185.234C98.8986 185.234 100.141 184.856 100.141 184.118C100.141 183.416 98.8986 183.02 96.4686 183.02ZM95.7306 178.844H97.2066V181.148H95.7306V178.844ZM89.1066 187.322H103.813V188.456H89.1066V187.322ZM95.7306 185.81H97.2066V187.862H95.7306V185.81ZM90.8886 189.482H101.941V192.794H92.4366V194.414H90.9246V191.768H100.429V190.562H90.8886V189.482ZM90.9246 194.144H102.427V195.224H90.9246V194.144ZM112.253 179.708H113.567V180.608C113.567 183.722 110.399 185.954 107.015 186.53L106.421 185.324C109.391 184.874 112.253 182.93 112.253 180.608V179.708ZM112.523 179.708H113.819V180.608C113.819 182.876 116.717 184.874 119.651 185.324L119.057 186.53C115.709 185.954 112.523 183.686 112.523 180.608V179.708ZM112.253 189.212H113.729V195.404H112.253V189.212ZM105.683 188.294H120.389V189.536H105.683V188.294ZM134.068 179.132H135.58V187.862H134.068V179.132ZM125.086 188.672H126.562V190.652H134.104V188.672H135.58V195.188H125.086V188.672ZM126.562 191.84V193.982H134.104V191.84H126.562ZM126.85 179.906C129.316 179.906 131.08 181.436 131.08 183.65C131.08 185.882 129.316 187.412 126.85 187.412C124.384 187.412 122.602 185.882 122.602 183.65C122.602 181.436 124.384 179.906 126.85 179.906ZM126.85 181.148C125.23 181.148 124.06 182.174 124.06 183.65C124.06 185.126 125.23 186.152 126.85 186.152C128.47 186.152 129.64 185.126 129.64 183.65C129.64 182.174 128.47 181.148 126.85 181.148ZM150.626 179.132H152.12V195.404H150.626V179.132ZM139.826 180.716H141.302V190.796H139.826V180.716ZM139.826 189.914H141.158C143.624 189.914 146.198 189.734 148.952 189.158L149.132 190.436C146.306 191.012 143.732 191.21 141.158 191.21H139.826V189.914ZM166.357 179.114H167.869V195.422H166.357V179.114ZM167.509 185.54H170.533V186.8H167.509V185.54ZM156.043 190.112H157.321C160.327 190.112 162.433 190.004 164.863 189.554L165.025 190.814C162.523 191.282 160.381 191.372 157.321 191.372H156.043V190.112ZM156.043 180.698H163.603V181.922H157.519V190.67H156.043V180.698ZM173.498 194.102C173.182 194.102 172.912 193.989 172.686 193.763C172.46 193.538 172.347 193.267 172.347 192.952C172.347 192.636 172.46 192.366 172.686 192.14C172.912 191.914 173.182 191.801 173.498 191.801C173.813 191.801 174.084 191.914 174.309 192.14C174.535 192.366 174.648 192.636 174.648 192.952C174.648 193.161 174.595 193.352 174.488 193.527C174.386 193.702 174.248 193.842 174.073 193.949C173.903 194.051 173.711 194.102 173.498 194.102ZM177.183 180.909V185.409H175.776V180.909H177.183ZM180.455 180.909V185.409H179.049V180.909H180.455ZM186.36 188.477C186.36 190.088 186.149 191.571 185.727 192.926C185.31 194.277 184.711 195.521 183.931 196.659H182.602C182.908 196.237 183.194 195.717 183.458 195.099C183.727 194.486 183.961 193.812 184.161 193.08C184.362 192.342 184.517 191.582 184.628 190.798C184.743 190.009 184.8 189.236 184.8 188.477C184.8 187.463 184.702 186.434 184.506 185.39C184.31 184.346 184.046 183.376 183.714 182.482C183.381 181.587 183.011 180.858 182.602 180.295H183.931C184.711 181.433 185.31 182.68 185.727 184.035C186.149 185.386 186.36 186.866 186.36 188.477Z" fill="black"/>
</svg>
