<svg width="233" height="68" viewBox="0 0 233 68" fill="none" xmlns="http://www.w3.org/2000/svg">
<path d="M87.8532 28.7899C87.8532 21.6438 85.8157 17.9751 81.7401 17.7744C80.1183 17.6978 78.5357 17.9559 76.9952 18.5541C75.766 18.9938 74.9386 19.4296 74.5033 19.8698V36.9267C77.1101 38.5628 79.4249 39.3234 81.4437 39.2037C85.7146 38.9206 87.8532 35.453 87.8532 28.7899ZM92.8803 29.0863C92.8803 32.7167 92.0289 35.7303 90.3162 38.1265C88.4077 40.8388 85.7627 42.2355 82.381 42.312C79.8317 42.393 77.2053 41.5946 74.5028 39.9202V55.4229L70.1309 53.8634V19.4532C70.8483 18.5733 71.7719 17.8175 72.8907 17.1762C75.4931 15.6598 78.6544 14.8805 82.3761 14.8422L82.438 14.9041C85.8392 14.8614 88.4597 16.258 90.3015 19.0895C92.019 21.687 92.8803 25.0161 92.8803 29.0863ZM119.599 39.2606C119.599 44.1302 119.111 47.502 118.136 49.3771C117.155 51.2517 115.29 52.7489 112.535 53.8639C110.301 54.7438 107.885 55.2222 105.293 55.3037L104.57 52.5487C107.206 52.1905 109.062 51.8313 110.138 51.4725C112.257 50.7551 113.711 49.6553 114.51 48.1817C115.151 46.9813 115.466 44.6901 115.466 41.2991V40.1606C112.477 41.5195 109.344 42.1937 106.068 42.1937C103.915 42.1937 102.016 41.5195 100.38 40.1606C98.5433 38.6825 97.6252 36.8079 97.6252 34.5359V16.3395L101.997 14.8422V33.1569C101.997 35.113 102.628 36.62 103.891 37.677C105.154 38.7341 106.79 39.2415 108.794 39.2027C110.798 39.1595 112.945 38.3847 115.227 36.8683V15.5018H119.599L119.599 39.2606ZM136.665 42.073C136.187 42.1135 135.706 42.1341 135.226 42.1349C132.753 42.1349 130.825 41.547 129.448 40.3653C128.075 39.1841 127.386 37.5534 127.386 35.4722V18.2523H124.392V15.5023H127.386V8.19819L131.753 6.64355V15.5023H136.665V18.2523H131.753V35.3524C131.753 36.9934 132.193 38.1555 133.073 38.8352C133.829 39.3946 135.029 39.7151 136.665 39.7965V42.073H136.665ZM163.136 41.7143H158.764V24.839C158.764 23.1219 158.363 21.6438 157.564 20.4101C156.641 19.013 155.359 18.3147 153.713 18.3147C151.709 18.3147 149.203 19.3717 146.194 21.4858V41.7143H141.823V1.37749L146.194 0V18.3721C148.987 16.339 152.039 15.3202 155.354 15.3202C157.669 15.3202 159.544 16.1 160.979 17.6546C162.419 19.2088 163.137 21.1462 163.137 23.4615L163.136 41.7143ZM186.373 28.1014C186.373 25.3557 185.852 23.0885 184.813 21.2949C183.579 19.1092 181.661 17.9559 179.069 17.8367C174.276 18.114 171.884 21.5481 171.884 28.1303C171.884 31.1483 172.382 33.6692 173.386 35.6925C174.668 38.2708 176.591 39.5433 179.155 39.5001C183.967 39.4613 186.373 35.6636 186.373 28.1014ZM191.161 28.1298C191.161 32.038 190.161 35.2906 188.166 37.8876C185.97 40.7961 182.939 42.2546 179.069 42.2546C175.233 42.2546 172.243 40.7956 170.086 37.8876C168.129 35.2906 167.153 32.038 167.153 28.1298C167.153 24.4567 168.21 21.3665 170.325 18.8505C172.559 16.1814 175.495 14.8422 179.126 14.8422C182.756 14.8422 185.712 16.1814 187.989 18.8505C190.104 21.3665 191.161 24.4567 191.161 28.1298ZM216.225 41.7143H211.853V23.8825C211.853 21.9265 211.265 20.4003 210.088 19.3001C208.911 18.2047 207.342 17.6738 205.386 17.7165C203.311 17.7547 201.334 18.4339 199.46 19.7496V41.7143H195.088V19.2093C197.604 17.3778 199.919 16.1814 202.033 15.622C204.027 15.1008 205.788 14.8422 207.304 14.8422C208.341 14.8422 209.318 14.9423 210.236 15.1435C211.953 15.5405 213.35 16.2771 214.426 17.3582C215.627 18.5541 216.225 19.9886 216.225 21.6678V41.7143Z" fill="#646464"/>
<path d="M26.9504 1.53857C24.7009 1.54887 22.5529 1.74075 20.6631 2.07543C15.0953 3.05935 14.0843 5.11798 14.0843 8.91527V13.9301H27.2419V15.6015H9.14609C5.3223 15.6015 1.97353 17.9001 0.926307 22.2725C-0.281879 27.2844 -0.335369 30.4118 0.926307 35.645C1.86164 39.5405 4.09546 42.3161 7.91926 42.3161H12.4433V36.3046C12.4433 31.9616 16.2009 28.1309 20.6631 28.1309H33.8054C37.4639 28.1309 40.3842 25.1188 40.3842 21.4447V8.91478C40.3842 5.34911 37.376 2.6702 33.8054 2.07494C31.5446 1.69904 29.1999 1.52777 26.9504 1.53857ZM19.8348 5.57141C21.1941 5.57141 22.3036 6.69961 22.3036 8.08642C22.3036 9.46833 21.1936 10.5862 19.8348 10.5862C18.471 10.5862 17.3659 9.46882 17.3659 8.08642C17.3659 6.69961 18.471 5.57141 19.8348 5.57141Z" fill="url(#paint0_linear_1060_3222)"/>
<path d="M42.0249 15.6016V21.4442C42.0249 25.9742 38.1844 29.7867 33.8051 29.7867H20.6628C17.0627 29.7867 14.084 32.8675 14.084 36.4729V49.0019C14.084 52.568 17.1844 54.6654 20.6628 55.6881C24.8276 56.913 28.8217 57.1343 33.8051 55.6881C37.1175 54.7292 40.3839 52.7987 40.3839 49.0019V43.9875H27.2415V42.3161H46.9626C50.7869 42.3161 52.2115 39.6485 53.5414 35.6451C54.9155 31.5239 54.8571 27.5598 53.5414 22.2726C52.5962 18.466 50.7913 15.6016 46.9626 15.6016H42.0249ZM34.633 47.3304C35.9967 47.3304 37.1018 48.4478 37.1018 49.8302C37.1018 51.217 35.9967 52.3452 34.633 52.3452C33.2736 52.3452 32.1641 51.217 32.1641 49.8302C32.1641 48.4483 33.2741 47.3304 34.633 47.3304Z" fill="url(#paint1_linear_1060_3222)"/>
<path d="M224.738 11.605H225.505V6.79779H227.32V6.22461H222.922V6.79779H224.738L224.738 11.605ZM228 11.605H228.655V7.21442L230.076 11.6045H230.805L232.286 7.22914V11.605H233.001V6.2251H232.055L230.436 10.8346L229.057 6.2251H228V11.605Z" fill="#646464"/>
<path opacity="0.444" d="M45.0234 64.2056C45.0234 66.0939 37.129 67.6245 27.3904 67.6245C17.6522 67.6245 9.75781 66.0939 9.75781 64.2056C9.75781 62.3172 17.6522 60.7861 27.3904 60.7861C37.129 60.7861 45.0234 62.3172 45.0234 64.2056Z" fill="url(#paint2_radial_1060_3222)"/>
<defs>
<linearGradient id="paint0_linear_1060_3222" x1="-1.2977" y1="3.10448" x2="29.0435" y2="28.9561" gradientUnits="userSpaceOnUse">
<stop stop-color="#5A9FD4"/>
<stop offset="1" stop-color="#306998"/>
</linearGradient>
<linearGradient id="paint1_linear_1060_3222" x1="40.4281" y1="45.0724" x2="29.5423" y2="29.8198" gradientUnits="userSpaceOnUse">
<stop stop-color="#FFD43B"/>
<stop offset="1" stop-color="#FFE873"/>
</linearGradient>
<radialGradient id="paint2_radial_1060_3222" cx="0" cy="0" r="1" gradientUnits="userSpaceOnUse" gradientTransform="translate(27.3847 64.1269) rotate(-90) scale(3.41844 15.0289)">
<stop stop-color="#B8B8B8" stop-opacity="0.498"/>
<stop offset="1" stop-color="#7F7F7F" stop-opacity="0"/>
</radialGradient>
</defs>
</svg>
