<svg width="387" height="48" viewBox="0 0 387 48" fill="none" xmlns="http://www.w3.org/2000/svg">
<path d="M4.70455 14.1598C3.95881 14.1598 3.28338 13.968 2.67827 13.5845C2.07741 13.1967 1.60014 12.6278 1.24645 11.8778C0.897017 11.1236 0.722301 10.1989 0.722301 9.10369C0.722301 7.97869 0.903409 7.04332 1.26562 6.29759C1.62784 5.54759 2.10938 4.98722 2.71023 4.61648C3.31534 4.24148 3.97798 4.05398 4.69815 4.05398C5.24787 4.05398 5.70597 4.14773 6.07244 4.33523C6.44318 4.51847 6.74148 4.74858 6.96733 5.02557C7.19744 5.2983 7.37216 5.56676 7.49148 5.83097H7.57457V0.909091H10.2912V14H7.60653V12.4276H7.49148C7.36364 12.7003 7.18253 12.9709 6.94815 13.2393C6.71804 13.5036 6.41761 13.723 6.04688 13.8977C5.6804 14.0724 5.23295 14.1598 4.70455 14.1598ZM5.56747 11.9929C6.00639 11.9929 6.37713 11.8736 6.67969 11.6349C6.98651 11.392 7.22088 11.0533 7.38281 10.6186C7.54901 10.1839 7.6321 9.67472 7.6321 9.09091C7.6321 8.5071 7.55114 8 7.3892 7.5696C7.22727 7.1392 6.9929 6.80682 6.68608 6.57244C6.37926 6.33807 6.00639 6.22088 5.56747 6.22088C5.12003 6.22088 4.7429 6.34233 4.43608 6.58523C4.12926 6.82812 3.89702 7.16477 3.73935 7.59517C3.58168 8.02557 3.50284 8.52415 3.50284 9.09091C3.50284 9.66193 3.58168 10.1669 3.73935 10.6058C3.90128 11.0405 4.13352 11.3814 4.43608 11.6286C4.7429 11.8714 5.12003 11.9929 5.56747 11.9929ZM17.0044 14.1918C15.9945 14.1918 15.1252 13.9872 14.3965 13.5781C13.6721 13.1648 13.1138 12.581 12.7218 11.8267C12.3297 11.0682 12.1337 10.1712 12.1337 9.13565C12.1337 8.12571 12.3297 7.23935 12.7218 6.47656C13.1138 5.71378 13.6657 5.11932 14.3773 4.69318C15.0932 4.26705 15.9327 4.05398 16.8958 4.05398C17.5435 4.05398 18.1465 4.15838 18.7047 4.36719C19.2672 4.57173 19.7573 4.88068 20.1749 5.29403C20.5968 5.70739 20.9249 6.22727 21.1593 6.85369C21.3936 7.47585 21.5108 8.20455 21.5108 9.03977V9.78764H13.2203V8.10014H18.9476C18.9476 7.7081 18.8624 7.3608 18.6919 7.05824C18.5215 6.75568 18.285 6.51918 17.9824 6.34872C17.6841 6.17401 17.3368 6.08665 16.9405 6.08665C16.5272 6.08665 16.1607 6.18253 15.8411 6.37429C15.5257 6.56179 15.2786 6.81534 15.0996 7.13494C14.9206 7.45028 14.829 7.80185 14.8248 8.18963V9.79403C14.8248 10.2798 14.9142 10.6996 15.0932 11.0533C15.2765 11.407 15.5343 11.6797 15.8667 11.8714C16.199 12.0632 16.5932 12.1591 17.0492 12.1591C17.3517 12.1591 17.6287 12.1165 17.8801 12.0312C18.1316 11.946 18.3468 11.8182 18.5257 11.6477C18.7047 11.4773 18.8411 11.2685 18.9348 11.0213L21.4533 11.1875C21.3255 11.7926 21.0634 12.321 20.6671 12.7727C20.275 13.2202 19.7679 13.5696 19.1458 13.821C18.5279 14.0682 17.8141 14.1918 17.0044 14.1918ZM28.5676 4.18182V6.22727H22.508V4.18182H28.5676ZM23.8951 14V3.4723C23.8951 2.76065 24.0336 2.17045 24.3105 1.7017C24.5918 1.23295 24.9753 0.881391 25.4611 0.647016C25.9469 0.412641 26.4988 0.295454 27.1167 0.295454C27.5343 0.295454 27.9157 0.327414 28.2608 0.391335C28.6103 0.455255 28.8702 0.512784 29.0407 0.56392L28.5549 2.60938C28.4483 2.57528 28.3162 2.54332 28.1586 2.51349C28.0051 2.48366 27.8475 2.46875 27.6855 2.46875C27.285 2.46875 27.0059 2.5625 26.8482 2.75C26.6905 2.93324 26.6117 3.19105 26.6117 3.52344V14H23.8951ZM41.6458 6.38068L40.2907 6.7642C40.2054 6.53835 40.0797 6.31889 39.9135 6.10582C39.7516 5.88849 39.53 5.70952 39.2488 5.56889C38.9675 5.42827 38.6074 5.35795 38.1685 5.35795C37.5676 5.35795 37.0669 5.49645 36.6664 5.77344C36.2701 6.04616 36.0719 6.39347 36.0719 6.81534C36.0719 7.19034 36.2083 7.48651 36.481 7.70384C36.7537 7.92116 37.1799 8.10227 37.7594 8.24716L39.2168 8.60511C40.0946 8.81818 40.7488 9.14418 41.1792 9.5831C41.6096 10.0178 41.8248 10.5781 41.8248 11.2642C41.8248 11.8267 41.6628 12.3295 41.339 12.7727C41.0194 13.2159 40.5719 13.5653 39.9966 13.821C39.4213 14.0767 38.7523 14.2045 37.9895 14.2045C36.9881 14.2045 36.1593 13.9872 35.503 13.5526C34.8468 13.1179 34.4313 12.483 34.2566 11.6477L35.6884 11.2898C35.8248 11.8182 36.0826 12.2145 36.4618 12.4787C36.8453 12.7429 37.3461 12.875 37.964 12.875C38.6671 12.875 39.2253 12.7259 39.6387 12.4276C40.0563 12.125 40.2651 11.7628 40.2651 11.3409C40.2651 11 40.1458 10.7145 39.9071 10.4844C39.6685 10.25 39.302 10.0753 38.8077 9.96023L37.1713 9.5767C36.2722 9.36364 35.6117 9.03338 35.1898 8.58594C34.7722 8.13423 34.5634 7.5696 34.5634 6.89205C34.5634 6.33807 34.7189 5.84801 35.03 5.42188C35.3453 4.99574 35.7736 4.66122 36.3148 4.41832C36.8603 4.17543 37.4782 4.05398 38.1685 4.05398C39.1401 4.05398 39.9029 4.26705 40.4569 4.69318C41.0151 5.11932 41.4114 5.68182 41.6458 6.38068ZM48.3654 4.18182V5.46023H43.2773V4.18182H48.3654ZM44.7603 1.82955H46.2688V11.1875C46.2688 11.6136 46.3306 11.9332 46.4542 12.1463C46.582 12.3551 46.744 12.4957 46.94 12.5682C47.1403 12.6364 47.3512 12.6705 47.5728 12.6705C47.739 12.6705 47.8754 12.6619 47.9819 12.6449C48.0884 12.6236 48.1737 12.6065 48.2376 12.5938L48.5444 13.9489C48.4421 13.9872 48.2994 14.0256 48.1161 14.0639C47.9329 14.1065 47.7006 14.1278 47.4194 14.1278C46.9933 14.1278 46.5756 14.0362 46.1665 13.853C45.7617 13.6697 45.4251 13.3906 45.1566 13.0156C44.8924 12.6406 44.7603 12.1676 44.7603 11.5966V1.82955ZM53.5238 14.2301C52.9016 14.2301 52.337 14.1129 51.8299 13.8786C51.3228 13.6399 50.9201 13.2969 50.6218 12.8494C50.3235 12.3977 50.1744 11.8523 50.1744 11.2131C50.1744 10.6506 50.2852 10.1946 50.5067 9.84517C50.7283 9.49148 51.0245 9.21449 51.3952 9.0142C51.766 8.81392 52.1751 8.66477 52.6225 8.56676C53.0742 8.46449 53.5281 8.38352 53.984 8.32386C54.5806 8.24716 55.0643 8.18963 55.435 8.15128C55.81 8.10866 56.0827 8.03835 56.2532 7.94034C56.4279 7.84233 56.5153 7.67187 56.5153 7.42898V7.37784C56.5153 6.74716 56.3427 6.2571 55.9975 5.90767C55.6566 5.55824 55.1388 5.38352 54.4442 5.38352C53.7241 5.38352 53.1594 5.54119 52.7504 5.85653C52.3413 6.17187 52.0536 6.50852 51.8874 6.86648L50.4556 6.35511C50.7113 5.75852 51.0522 5.29403 51.4783 4.96165C51.9087 4.625 52.3775 4.39062 52.8846 4.25852C53.396 4.12216 53.8988 4.05398 54.3931 4.05398C54.7085 4.05398 55.0707 4.09233 55.4798 4.16903C55.8931 4.24148 56.2915 4.39276 56.6751 4.62287C57.0629 4.85298 57.3846 5.20028 57.6403 5.66477C57.896 6.12926 58.0238 6.75142 58.0238 7.53125V14H56.5153V12.6705H56.4386C56.3363 12.8835 56.1658 13.1115 55.9272 13.3544C55.6886 13.5973 55.3711 13.804 54.9748 13.9744C54.5785 14.1449 54.0948 14.2301 53.5238 14.2301ZM53.7539 12.875C54.3505 12.875 54.8533 12.7578 55.2624 12.5234C55.6758 12.2891 55.9869 11.9865 56.1957 11.6158C56.4087 11.245 56.5153 10.8551 56.5153 10.446V9.06534C56.4513 9.14205 56.3107 9.21236 56.0934 9.27628C55.8803 9.33594 55.6332 9.3892 55.3519 9.43608C55.0749 9.47869 54.8043 9.51705 54.5401 9.55114C54.2802 9.58097 54.0692 9.60653 53.9073 9.62784C53.5153 9.67898 53.1488 9.76207 52.8079 9.87713C52.4712 9.98793 52.1985 10.1562 51.9897 10.3821C51.7852 10.6037 51.6829 10.9062 51.6829 11.2898C51.6829 11.8139 51.8768 12.2102 52.2646 12.4787C52.6566 12.7429 53.1531 12.875 53.7539 12.875ZM60.7772 14V4.18182H62.2346V5.66477H62.3368C62.5158 5.17898 62.8397 4.7848 63.3084 4.48224C63.7772 4.17969 64.3056 4.02841 64.8936 4.02841C65.0044 4.02841 65.1429 4.03054 65.3091 4.0348C65.4753 4.03906 65.601 4.04545 65.6863 4.05398V5.58807C65.6351 5.57528 65.5179 5.55611 65.3347 5.53054C65.1557 5.50071 64.9661 5.4858 64.7658 5.4858C64.2885 5.4858 63.8624 5.58594 63.4874 5.78622C63.1167 5.98224 62.8226 6.25497 62.6053 6.6044C62.3922 6.94957 62.2857 7.34375 62.2857 7.78693V14H60.7772ZM72.3596 4.18182V5.46023H67.2715V4.18182H72.3596ZM68.7544 1.82955H70.263V11.1875C70.263 11.6136 70.3248 11.9332 70.4483 12.1463C70.5762 12.3551 70.7381 12.4957 70.9341 12.5682C71.1344 12.6364 71.3453 12.6705 71.5669 12.6705C71.7331 12.6705 71.8695 12.6619 71.976 12.6449C72.0826 12.6236 72.1678 12.6065 72.2317 12.5938L72.5385 13.9489C72.4363 13.9872 72.2935 14.0256 72.1103 14.0639C71.927 14.1065 71.6948 14.1278 71.4135 14.1278C70.9874 14.1278 70.5698 14.0362 70.1607 13.853C69.7559 13.6697 69.4192 13.3906 69.1507 13.0156C68.8865 12.6406 68.7544 12.1676 68.7544 11.5966V1.82955ZM81.4043 14V15.4062H73.2225V14H81.4043ZM84.5076 4.18182H86.0162V14.7159C86.0162 15.321 85.9118 15.8452 85.7029 16.2884C85.4984 16.7315 85.1873 17.0746 84.7697 17.3175C84.3564 17.5604 83.8343 17.6818 83.2037 17.6818C83.1525 17.6818 83.1014 17.6818 83.0502 17.6818C82.9991 17.6818 82.948 17.6818 82.8968 17.6818V16.2756C82.948 16.2756 82.9949 16.2756 83.0375 16.2756C83.0801 16.2756 83.127 16.2756 83.1781 16.2756C83.6383 16.2756 83.975 16.1392 84.188 15.8665C84.4011 15.598 84.5076 15.2145 84.5076 14.7159V4.18182ZM85.2491 2.54545C84.9551 2.54545 84.7015 2.44531 84.4885 2.24503C84.2797 2.04474 84.1752 1.80398 84.1752 1.52273C84.1752 1.24148 84.2797 1.00071 84.4885 0.800426C84.7015 0.600142 84.9551 0.5 85.2491 0.5C85.5431 0.5 85.7946 0.600142 86.0034 0.800426C86.2164 1.00071 86.323 1.24148 86.323 1.52273C86.323 1.80398 86.2164 2.04474 86.0034 2.24503C85.7946 2.44531 85.5431 2.54545 85.2491 2.54545ZM91.6683 14.2301C91.0462 14.2301 90.4815 14.1129 89.9744 13.8786C89.4673 13.6399 89.0646 13.2969 88.7663 12.8494C88.468 12.3977 88.3189 11.8523 88.3189 11.2131C88.3189 10.6506 88.4297 10.1946 88.6513 9.84517C88.8729 9.49148 89.169 9.21449 89.5398 9.0142C89.9105 8.81392 90.3196 8.66477 90.767 8.56676C91.2188 8.46449 91.6726 8.38352 92.1286 8.32386C92.7251 8.24716 93.2088 8.18963 93.5795 8.15128C93.9545 8.10866 94.2273 8.03835 94.3977 7.94034C94.5724 7.84233 94.6598 7.67187 94.6598 7.42898V7.37784C94.6598 6.74716 94.4872 6.2571 94.142 5.90767C93.8011 5.55824 93.2834 5.38352 92.5888 5.38352C91.8686 5.38352 91.304 5.54119 90.8949 5.85653C90.4858 6.17187 90.1982 6.50852 90.032 6.86648L88.6001 6.35511C88.8558 5.75852 89.1967 5.29403 89.6229 4.96165C90.0533 4.625 90.522 4.39062 91.0291 4.25852C91.5405 4.12216 92.0433 4.05398 92.5376 4.05398C92.853 4.05398 93.2152 4.09233 93.6243 4.16903C94.0376 4.24148 94.4361 4.39276 94.8196 4.62287C95.2074 4.85298 95.5291 5.20028 95.7848 5.66477C96.0405 6.12926 96.1683 6.75142 96.1683 7.53125V14H94.6598V12.6705H94.5831C94.4808 12.8835 94.3104 13.1115 94.0717 13.3544C93.8331 13.5973 93.5156 13.804 93.1193 13.9744C92.723 14.1449 92.2393 14.2301 91.6683 14.2301ZM91.8984 12.875C92.495 12.875 92.9979 12.7578 93.407 12.5234C93.8203 12.2891 94.1314 11.9865 94.3402 11.6158C94.5533 11.245 94.6598 10.8551 94.6598 10.446V9.06534C94.5959 9.14205 94.4553 9.21236 94.2379 9.27628C94.0249 9.33594 93.7777 9.3892 93.4964 9.43608C93.2195 9.47869 92.9489 9.51705 92.6847 9.55114C92.4247 9.58097 92.2138 9.60653 92.0518 9.62784C91.6598 9.67898 91.2933 9.76207 90.9524 9.87713C90.6158 9.98793 90.343 10.1562 90.1342 10.3821C89.9297 10.6037 89.8274 10.9062 89.8274 11.2898C89.8274 11.8139 90.0213 12.2102 90.4091 12.4787C90.8011 12.7429 91.2976 12.875 91.8984 12.875ZM98.9217 4.18182H100.43V14.7159C100.43 15.321 100.326 15.8452 100.117 16.2884C99.9125 16.7315 99.6014 17.0746 99.1838 17.3175C98.7704 17.5604 98.2484 17.6818 97.6177 17.6818C97.5666 17.6818 97.5154 17.6818 97.4643 17.6818C97.4132 17.6818 97.362 17.6818 97.3109 17.6818V16.2756C97.362 16.2756 97.4089 16.2756 97.4515 16.2756C97.4941 16.2756 97.541 16.2756 97.5922 16.2756C98.0524 16.2756 98.389 16.1392 98.6021 15.8665C98.8152 15.598 98.9217 15.2145 98.9217 14.7159V4.18182ZM99.6632 2.54545C99.3691 2.54545 99.1156 2.44531 98.9025 2.24503C98.6937 2.04474 98.5893 1.80398 98.5893 1.52273C98.5893 1.24148 98.6937 1.00071 98.9025 0.800426C99.1156 0.600142 99.3691 0.5 99.6632 0.5C99.9572 0.5 100.209 0.600142 100.417 0.800426C100.631 1.00071 100.737 1.24148 100.737 1.52273C100.737 1.80398 100.631 2.04474 100.417 2.24503C100.209 2.44531 99.9572 2.54545 99.6632 2.54545ZM109.381 9.9858V4.18182H110.889V14H109.381V12.3381H109.278C109.048 12.8366 108.69 13.2607 108.205 13.6101C107.719 13.9553 107.105 14.1278 106.364 14.1278C105.75 14.1278 105.205 13.9936 104.727 13.7251C104.25 13.4524 103.875 13.0433 103.602 12.4979C103.33 11.9482 103.193 11.2557 103.193 10.4205V4.18182H104.702V10.3182C104.702 11.0341 104.902 11.6051 105.303 12.0312C105.707 12.4574 106.223 12.6705 106.849 12.6705C107.224 12.6705 107.606 12.5746 107.994 12.3828C108.386 12.1911 108.714 11.897 108.978 11.5007C109.246 11.1044 109.381 10.5994 109.381 9.9858ZM117.641 14.2045C116.72 14.2045 115.928 13.9872 115.263 13.5526C114.598 13.1179 114.087 12.5192 113.729 11.7564C113.371 10.9936 113.192 10.1222 113.192 9.14205C113.192 8.14489 113.375 7.26491 113.742 6.50213C114.112 5.73509 114.628 5.13636 115.289 4.70597C115.953 4.27131 116.729 4.05398 117.615 4.05398C118.306 4.05398 118.928 4.18182 119.482 4.4375C120.036 4.69318 120.49 5.05114 120.843 5.51136C121.197 5.97159 121.416 6.50852 121.502 7.12216H119.993C119.878 6.67472 119.622 6.27841 119.226 5.93324C118.834 5.58381 118.306 5.40909 117.641 5.40909C117.053 5.40909 116.537 5.5625 116.094 5.86932C115.655 6.17187 115.312 6.60014 115.065 7.15412C114.822 7.70383 114.7 8.34943 114.7 9.09091C114.7 9.84943 114.82 10.5099 115.058 11.0724C115.301 11.6349 115.642 12.0717 116.081 12.3828C116.524 12.6939 117.044 12.8494 117.641 12.8494C118.033 12.8494 118.389 12.7812 118.708 12.6449C119.028 12.5085 119.298 12.3125 119.52 12.0568C119.742 11.8011 119.899 11.4943 119.993 11.1364H121.502C121.416 11.7159 121.205 12.2379 120.869 12.7024C120.536 13.1626 120.095 13.5291 119.546 13.8018C119 14.0703 118.365 14.2045 117.641 14.2045ZM125.215 8.09375V14H123.707V0.909091H125.215V5.71591H125.343C125.573 5.20881 125.919 4.80611 126.379 4.50781C126.843 4.20526 127.461 4.05398 128.232 4.05398C128.901 4.05398 129.487 4.18821 129.99 4.45668C130.493 4.72088 130.883 5.12784 131.16 5.67756C131.441 6.22301 131.582 6.91761 131.582 7.76136V14H130.073V7.86364C130.073 7.08381 129.871 6.48082 129.466 6.05469C129.066 5.62429 128.509 5.40909 127.798 5.40909C127.303 5.40909 126.86 5.51349 126.468 5.7223C126.08 5.93111 125.774 6.2358 125.548 6.63636C125.326 7.03693 125.215 7.52273 125.215 8.09375ZM137.231 14.2301C136.609 14.2301 136.044 14.1129 135.537 13.8786C135.03 13.6399 134.627 13.2969 134.329 12.8494C134.031 12.3977 133.881 11.8523 133.881 11.2131C133.881 10.6506 133.992 10.1946 134.214 9.84517C134.435 9.49148 134.732 9.21449 135.102 9.0142C135.473 8.81392 135.882 8.66477 136.33 8.56676C136.781 8.46449 137.235 8.38352 137.691 8.32386C138.288 8.24716 138.771 8.18963 139.142 8.15128C139.517 8.10866 139.79 8.03835 139.96 7.94034C140.135 7.84233 140.222 7.67187 140.222 7.42898V7.37784C140.222 6.74716 140.05 6.2571 139.705 5.90767C139.364 5.55824 138.846 5.38352 138.151 5.38352C137.431 5.38352 136.866 5.54119 136.457 5.85653C136.048 6.17187 135.761 6.50852 135.594 6.86648L134.163 6.35511C134.418 5.75852 134.759 5.29403 135.185 4.96165C135.616 4.625 136.085 4.39062 136.592 4.25852C137.103 4.12216 137.606 4.05398 138.1 4.05398C138.415 4.05398 138.778 4.09233 139.187 4.16903C139.6 4.24148 139.999 4.39276 140.382 4.62287C140.77 4.85298 141.092 5.20028 141.347 5.66477C141.603 6.12926 141.731 6.75142 141.731 7.53125V14H140.222V12.6705H140.146C140.043 12.8835 139.873 13.1115 139.634 13.3544C139.396 13.5973 139.078 13.804 138.682 13.9744C138.286 14.1449 137.802 14.2301 137.231 14.2301ZM137.461 12.875C138.058 12.875 138.56 12.7578 138.969 12.5234C139.383 12.2891 139.694 11.9865 139.903 11.6158C140.116 11.245 140.222 10.8551 140.222 10.446V9.06534C140.158 9.14205 140.018 9.21236 139.8 9.27628C139.587 9.33594 139.34 9.3892 139.059 9.43608C138.782 9.47869 138.511 9.51705 138.247 9.55114C137.987 9.58097 137.776 9.60653 137.614 9.62784C137.222 9.67898 136.856 9.76207 136.515 9.87713C136.178 9.98793 135.906 10.1562 135.697 10.3821C135.492 10.6037 135.39 10.9062 135.39 11.2898C135.39 11.8139 135.584 12.2102 135.972 12.4787C136.364 12.7429 136.86 12.875 137.461 12.875ZM145.021 8.47727C145.021 6.86648 145.23 5.38565 145.648 4.0348C146.069 2.67969 146.67 1.43324 147.45 0.295454H148.78C148.473 0.717329 148.185 1.23722 147.917 1.85511C147.653 2.46875 147.42 3.14418 147.22 3.88139C147.02 4.61435 146.862 5.37287 146.747 6.15696C146.636 6.94105 146.581 7.71449 146.581 8.47727C146.581 9.49148 146.679 10.5206 146.875 11.5646C147.071 12.6087 147.335 13.5781 147.667 14.473C148 15.3679 148.371 16.0966 148.78 16.6591H147.45C146.67 15.5213 146.069 14.277 145.648 12.9261C145.23 11.571 145.021 10.0881 145.021 8.47727ZM154.227 8.47727C154.227 10.0881 154.016 11.571 153.594 12.9261C153.177 14.277 152.578 15.5213 151.798 16.6591H150.469C150.776 16.2372 151.061 15.7173 151.325 15.0994C151.594 14.4858 151.828 13.8125 152.028 13.0795C152.229 12.3423 152.384 11.5817 152.495 10.7976C152.61 10.0092 152.668 9.2358 152.668 8.47727C152.668 7.46307 152.57 6.43395 152.374 5.38991C152.178 4.34588 151.913 3.37642 151.581 2.48153C151.249 1.58665 150.878 0.857954 150.469 0.295454H151.798C152.578 1.43324 153.177 2.67969 153.594 4.0348C154.016 5.38565 154.227 6.86648 154.227 8.47727ZM158.627 14.1023C158.311 14.1023 158.041 13.9893 157.815 13.7635C157.589 13.5376 157.476 13.267 157.476 12.9517C157.476 12.6364 157.589 12.3658 157.815 12.1399C158.041 11.9141 158.311 11.8011 158.627 11.8011C158.942 11.8011 159.213 11.9141 159.438 12.1399C159.664 12.3658 159.777 12.6364 159.777 12.9517C159.777 13.1605 159.724 13.3523 159.617 13.527C159.515 13.7017 159.377 13.8423 159.202 13.9489C159.031 14.0511 158.84 14.1023 158.627 14.1023ZM158.627 6.81534C158.311 6.81534 158.041 6.70241 157.815 6.47656C157.589 6.25071 157.476 5.98011 157.476 5.66477C157.476 5.34943 157.589 5.07884 157.815 4.85298C158.041 4.62713 158.311 4.5142 158.627 4.5142C158.942 4.5142 159.213 4.62713 159.438 4.85298C159.664 5.07884 159.777 5.34943 159.777 5.66477C159.777 5.87358 159.724 6.06534 159.617 6.24006C159.515 6.41477 159.377 6.5554 159.202 6.66193C159.031 6.7642 158.84 6.81534 158.627 6.81534ZM34.7088 47.6818V34.1818H36.1662V35.7415H36.3452C36.456 35.571 36.6094 35.3537 36.8054 35.0895C37.0057 34.821 37.2912 34.5824 37.6619 34.3736C38.0369 34.1605 38.544 34.054 39.1832 34.054C40.0099 34.054 40.7386 34.2607 41.3693 34.674C42 35.0874 42.4922 35.6733 42.8459 36.4318C43.1996 37.1903 43.3764 38.0852 43.3764 39.1165C43.3764 40.1562 43.1996 41.0575 42.8459 41.8203C42.4922 42.5788 42.0021 43.1669 41.3757 43.5845C40.7493 43.9979 40.027 44.2045 39.2088 44.2045C38.5781 44.2045 38.0732 44.1001 37.6939 43.8913C37.3146 43.6783 37.0227 43.4375 36.8182 43.169C36.6136 42.8963 36.456 42.6705 36.3452 42.4915H36.2173V47.6818H34.7088ZM36.1918 39.0909C36.1918 39.8324 36.3004 40.4865 36.5178 41.0533C36.7351 41.6158 37.0526 42.0568 37.4702 42.3764C37.8878 42.6918 38.3991 42.8494 39.0043 42.8494C39.6349 42.8494 40.1612 42.6832 40.5831 42.3509C41.0092 42.0142 41.3288 41.5625 41.5419 40.9957C41.7592 40.4247 41.8679 39.7898 41.8679 39.0909C41.8679 38.4006 41.7614 37.7784 41.5483 37.2244C41.3395 36.6662 41.022 36.2251 40.5959 35.9013C40.174 35.5732 39.6435 35.4091 39.0043 35.4091C38.3906 35.4091 37.875 35.5646 37.4574 35.8757C37.0398 36.1825 36.7244 36.6129 36.5114 37.1669C36.2983 37.7166 36.1918 38.358 36.1918 39.0909ZM45.6776 44V34.1818H47.1349V35.6648H47.2372C47.4162 35.179 47.7401 34.7848 48.2088 34.4822C48.6776 34.1797 49.206 34.0284 49.794 34.0284C49.9048 34.0284 50.0433 34.0305 50.2095 34.0348C50.3757 34.0391 50.5014 34.0455 50.5866 34.054V35.5881C50.5355 35.5753 50.4183 35.5561 50.2351 35.5305C50.0561 35.5007 49.8665 35.4858 49.6662 35.4858C49.1889 35.4858 48.7628 35.5859 48.3878 35.7862C48.017 35.9822 47.723 36.255 47.5057 36.6044C47.2926 36.9496 47.1861 37.3437 47.1861 37.7869V44H45.6776ZM52.3748 44V34.1818H53.8833V44H52.3748ZM53.1419 32.5455C52.8478 32.5455 52.5943 32.4453 52.3812 32.245C52.1724 32.0447 52.068 31.804 52.068 31.5227C52.068 31.2415 52.1724 31.0007 52.3812 30.8004C52.5943 30.6001 52.8478 30.5 53.1419 30.5C53.4359 30.5 53.6873 30.6001 53.8961 30.8004C54.1092 31.0007 54.2157 31.2415 54.2157 31.5227C54.2157 31.804 54.1092 32.0447 53.8961 32.245C53.6873 32.4453 53.4359 32.5455 53.1419 32.5455ZM58.1548 38.0938V44H56.6463V34.1818H58.1037V35.7159H58.2315C58.4616 35.2173 58.8111 34.8168 59.2798 34.5142C59.7486 34.2074 60.3537 34.054 61.0952 34.054C61.7599 34.054 62.3416 34.1903 62.8402 34.4631C63.3388 34.7315 63.7266 35.1406 64.0036 35.6903C64.2805 36.2358 64.419 36.9261 64.419 37.7614V44H62.9105V37.8636C62.9105 37.0923 62.7102 36.4915 62.3097 36.0611C61.9091 35.6264 61.3594 35.4091 60.6605 35.4091C60.179 35.4091 59.7486 35.5135 59.3693 35.7223C58.9943 35.9311 58.6982 36.2358 58.4808 36.6364C58.2635 37.0369 58.1548 37.5227 58.1548 38.0938ZM71.4455 34.1818V35.4602H66.3574V34.1818H71.4455ZM67.8404 31.8295H69.3489V41.1875C69.3489 41.6136 69.4107 41.9332 69.5343 42.1463C69.6621 42.3551 69.824 42.4957 70.0201 42.5682C70.2203 42.6364 70.4313 42.6705 70.6529 42.6705C70.8191 42.6705 70.9554 42.6619 71.062 42.6449C71.1685 42.6236 71.2537 42.6065 71.3176 42.5938L71.6245 43.9489C71.5222 43.9872 71.3794 44.0256 71.1962 44.0639C71.013 44.1065 70.7807 44.1278 70.4995 44.1278C70.0733 44.1278 69.6557 44.0362 69.2466 43.853C68.8418 43.6697 68.5051 43.3906 68.2367 43.0156C67.9725 42.6406 67.8404 42.1676 67.8404 41.5966V31.8295ZM74.2516 38.4773C74.2516 36.8665 74.4604 35.3857 74.878 34.0348C75.2999 32.6797 75.9007 31.4332 76.6806 30.2955H78.0101C77.7033 30.7173 77.4157 31.2372 77.1472 31.8551C76.883 32.4687 76.6507 33.1442 76.4505 33.8814C76.2502 34.6143 76.0925 35.3729 75.9775 36.157C75.8667 36.9411 75.8113 37.7145 75.8113 38.4773C75.8113 39.4915 75.9093 40.5206 76.1053 41.5646C76.3013 42.6087 76.5655 43.5781 76.8979 44.473C77.2303 45.3679 77.601 46.0966 78.0101 46.6591H76.6806C75.9007 45.5213 75.2999 44.277 74.878 42.9261C74.4604 41.571 74.2516 40.0881 74.2516 38.4773ZM81.5401 30.9091V35.4091H80.1339V30.9091H81.5401ZM84.8129 30.9091V35.4091H83.4066V30.9091H84.8129ZM91.0292 31.454H92.2172V34.1C92.2172 37.484 90.1472 40.976 87.6092 42.272L86.7452 41.084C89.0672 39.95 91.0292 36.854 91.0292 34.1V31.454ZM91.2992 31.454H92.4872V34.1C92.4872 36.674 94.3232 39.572 96.6812 40.688L95.8352 41.876C93.2612 40.598 91.2992 37.322 91.2992 34.1V31.454ZM87.3212 30.788H96.0872V32.048H87.3212V30.788ZM98.0132 29.132H99.5252V45.404H98.0132V29.132ZM99.1652 35.702H102.189V36.962H99.1652V35.702ZM110.09 30.734H111.386V31.418C111.386 34.334 108.29 36.476 105.014 37.034L104.438 35.846C107.3 35.432 110.09 33.56 110.09 31.418V30.734ZM110.468 30.734H111.746V31.418C111.746 33.56 114.554 35.432 117.398 35.846L116.84 37.034C113.546 36.476 110.468 34.334 110.468 31.418V30.734ZM110.144 39.194H111.62V45.404H110.144V39.194ZM103.574 38.402H118.28V39.626H103.574V38.402ZM104.942 30.14H116.858V31.346H104.942V30.14ZM124.092 33.002H125.262V34.388C125.262 37.826 123.39 40.994 120.816 42.272L119.97 41.12C122.364 39.968 124.092 37.196 124.092 34.388V33.002ZM124.38 33.002H125.55V34.388C125.55 37.016 127.188 39.662 129.51 40.814L128.682 41.966C126.144 40.706 124.38 37.628 124.38 34.388V33.002ZM120.42 31.958H129.15V33.164H120.42V31.958ZM124.074 29.42H125.55V32.624H124.074V29.42ZM131.13 29.132H132.642V45.404H131.13V29.132ZM132.282 35.81H135.306V37.052H132.282V35.81ZM141.754 42.074H156.496V43.316H141.754V42.074ZM143.032 30.752H155.11V31.976H143.032V30.752ZM143.068 37.628H155.092V38.852H143.068V37.628ZM145.57 31.886H147.064V37.754H145.57V31.886ZM151.114 31.886H152.59V37.754H151.114V31.886ZM158.312 42.164H173.054V43.406H158.312V42.164ZM164.9 38.672H166.394V42.686H164.9V38.672ZM160.094 30.338H171.236V35.27H161.624V38.528H160.148V34.064H169.76V31.544H160.094V30.338ZM160.148 37.898H171.614V39.122H160.148V37.898ZM181.585 33.326H184.555V34.55H181.585V33.326ZM184.015 29.474H185.419V38.942H184.015V29.474ZM178.237 31.274H179.407V32.606C179.407 35.126 178.093 37.628 175.699 38.69L174.925 37.538C177.013 36.638 178.237 34.55 178.237 32.606V31.274ZM178.489 31.274H179.659V32.588C179.659 34.388 180.829 36.314 182.845 37.16L182.089 38.312C179.731 37.322 178.489 34.946 178.489 32.588V31.274ZM175.231 30.446H182.467V31.67H175.231V30.446ZM187.147 29.132H188.569V39.068H187.147V29.132ZM177.661 39.788H188.569V45.404H187.093V41.012H177.661V39.788ZM193.319 37.898H204.497V39.104H193.319V37.898ZM191.429 42.074H206.171V43.316H191.429V42.074ZM193.319 30.518H204.317V31.742H194.831V38.276H193.319V30.518ZM194.345 34.154H203.975V35.342H194.345V34.154ZM214.576 35.45H217.654V36.692H214.576V35.45ZM220.372 29.132H221.812V45.404H220.372V29.132ZM217.15 29.474H218.572V44.594H217.15V29.474ZM211.642 30.482C213.748 30.482 215.116 32.66 215.116 36.152C215.116 39.644 213.748 41.822 211.642 41.822C209.536 41.822 208.186 39.644 208.186 36.152C208.186 32.66 209.536 30.482 211.642 30.482ZM211.642 31.868C210.364 31.868 209.554 33.524 209.554 36.152C209.554 38.78 210.364 40.436 211.642 40.436C212.938 40.436 213.748 38.78 213.748 36.152C213.748 33.524 212.938 31.868 211.642 31.868ZM236.197 38.33H237.691V42.38H236.197V38.33ZM236.953 30.194C240.391 30.194 242.857 31.868 242.857 34.46C242.857 37.052 240.391 38.726 236.953 38.726C233.515 38.726 231.031 37.052 231.031 34.46C231.031 31.868 233.515 30.194 236.953 30.194ZM236.953 31.382C234.361 31.382 232.471 32.606 232.471 34.46C232.471 36.314 234.361 37.538 236.953 37.538C239.527 37.538 241.417 36.314 241.417 34.46C241.417 32.606 239.527 31.382 236.953 31.382ZM229.609 42.092H244.351V43.334H229.609V42.092ZM257.994 29.15H259.506V41.066H257.994V29.15ZM249.048 43.82H259.992V45.044H249.048V43.82ZM249.048 39.968H250.524V44.396H249.048V39.968ZM250.398 30.032H251.64V31.688C251.64 34.856 249.84 37.628 247.104 38.744L246.33 37.538C248.778 36.584 250.398 34.208 250.398 31.688V30.032ZM250.668 30.032H251.892V31.688C251.892 34.136 253.53 36.35 255.96 37.232L255.168 38.438C252.468 37.394 250.668 34.784 250.668 31.688V30.032ZM279.669 29.132H281.163V37.466H279.669V29.132ZM276.141 33.038H279.903V34.244H276.141V33.038ZM274.449 29.924H276.015C276.015 33.974 273.207 36.62 268.545 37.808L268.023 36.602C272.145 35.594 274.449 33.452 274.449 30.59V29.924ZM268.887 29.924H275.655V31.13H268.887V29.924ZM270.687 38.168H281.163V42.182H272.217V44.756H270.741V41.03H279.687V39.374H270.687V38.168ZM270.741 44.054H281.703V45.242H270.741V44.054ZM300.516 29.132H302.01V41.876H300.516V29.132ZM301.38 34.802H304.386V36.044H301.38V34.802ZM291.714 43.82H302.586V45.044H291.714V43.82ZM291.714 41.03H293.208V44.198H291.714V41.03ZM293.658 37.088H295.152V39.302H293.658V37.088ZM289.5 40.004L289.302 38.798C292.182 38.798 296.196 38.744 299.544 38.222L299.67 39.284C296.232 39.914 292.326 39.986 289.5 40.004ZM289.716 30.716H299.058V31.85H289.716V30.716ZM294.396 32.516C296.682 32.516 298.176 33.47 298.176 35.018C298.176 36.584 296.682 37.538 294.396 37.538C292.11 37.538 290.598 36.584 290.598 35.018C290.598 33.47 292.11 32.516 294.396 32.516ZM294.396 33.578C292.938 33.578 292.002 34.136 292.002 35.018C292.002 35.918 292.938 36.458 294.396 36.458C295.836 36.458 296.772 35.918 296.772 35.018C296.772 34.136 295.836 33.578 294.396 33.578ZM293.658 29.06H295.152V31.22H293.658V29.06ZM313.366 31.472H318.334V32.696H313.366V31.472ZM313.366 35.216H318.334V36.458H313.366V35.216ZM310.396 30.086C312.79 30.086 314.59 31.706 314.59 33.956C314.59 36.224 312.79 37.826 310.396 37.826C307.984 37.826 306.202 36.224 306.202 33.956C306.202 31.706 307.984 30.086 310.396 30.086ZM310.396 31.364C308.812 31.364 307.642 32.426 307.642 33.956C307.642 35.486 308.812 36.548 310.396 36.548C311.98 36.548 313.168 35.486 313.168 33.956C313.168 32.426 311.98 31.364 310.396 31.364ZM317.848 29.132H319.342V38.762H317.848V29.132ZM313.996 39.14C317.344 39.14 319.414 40.292 319.414 42.254C319.414 44.234 317.344 45.368 313.996 45.368C310.63 45.368 308.56 44.234 308.56 42.254C308.56 40.292 310.63 39.14 313.996 39.14ZM313.996 40.328C311.53 40.328 310.036 41.048 310.036 42.254C310.036 43.478 311.53 44.198 313.996 44.198C316.444 44.198 317.938 43.478 317.938 42.254C317.938 41.048 316.444 40.328 313.996 40.328ZM333.651 29.132H335.145V38.582H333.651V29.132ZM334.497 33.272H337.557V34.532H334.497V33.272ZM324.921 39.302H326.379V41.03H333.669V39.302H335.145V45.188H324.921V39.302ZM326.379 42.182V43.982H333.669V42.182H326.379ZM322.563 30.788H332.175V32.012H322.563V30.788ZM327.369 32.75C329.691 32.75 331.257 33.884 331.257 35.612C331.257 37.34 329.691 38.474 327.369 38.474C325.029 38.474 323.463 37.34 323.463 35.612C323.463 33.884 325.029 32.75 327.369 32.75ZM327.369 33.884C325.875 33.884 324.885 34.568 324.885 35.612C324.885 36.656 325.875 37.34 327.369 37.34C328.827 37.34 329.835 36.656 329.835 35.612C329.835 34.568 328.827 33.884 327.369 33.884ZM326.613 28.97H328.107V31.454H326.613V28.97ZM350.912 29.132H352.406V45.404H350.912V29.132ZM340.112 30.716H341.588V40.796H340.112V30.716ZM340.112 39.914H341.444C343.91 39.914 346.484 39.734 349.238 39.158L349.418 40.436C346.592 41.012 344.018 41.21 341.444 41.21H340.112V39.914ZM366.642 29.114H368.154V45.422H366.642V29.114ZM367.794 35.54H370.818V36.8H367.794V35.54ZM356.328 40.112H357.606C360.612 40.112 362.718 40.004 365.148 39.554L365.31 40.814C362.808 41.282 360.666 41.372 357.606 41.372H356.328V40.112ZM356.328 30.698H363.888V31.922H357.804V40.67H356.328V30.698ZM373.783 44.1023C373.468 44.1023 373.197 43.9893 372.971 43.7635C372.745 43.5376 372.632 43.267 372.632 42.9517C372.632 42.6364 372.745 42.3658 372.971 42.1399C373.197 41.9141 373.468 41.8011 373.783 41.8011C374.098 41.8011 374.369 41.9141 374.595 42.1399C374.82 42.3658 374.933 42.6364 374.933 42.9517C374.933 43.1605 374.88 43.3523 374.774 43.527C374.671 43.7017 374.533 43.8423 374.358 43.9489C374.188 44.0511 373.996 44.1023 373.783 44.1023ZM377.468 30.9091V35.4091H376.062V30.9091H377.468ZM380.741 30.9091V35.4091H379.334V30.9091H380.741ZM386.645 38.4773C386.645 40.0881 386.434 41.571 386.012 42.9261C385.595 44.277 384.996 45.5213 384.216 46.6591H382.887C383.194 46.2372 383.479 45.7173 383.743 45.0994C384.012 44.4858 384.246 43.8125 384.446 43.0795C384.647 42.3423 384.802 41.5817 384.913 40.7976C385.028 40.0092 385.086 39.2358 385.086 38.4773C385.086 37.4631 384.988 36.4339 384.792 35.3899C384.596 34.3459 384.331 33.3764 383.999 32.4815C383.667 31.5866 383.296 30.858 382.887 30.2955H384.216C384.996 31.4332 385.595 32.6797 386.012 34.0348C386.434 35.3857 386.645 36.8665 386.645 38.4773Z" fill="black"/>
</svg>
